<svg id="Layer_1" data-name="Layer 1" xmlns="http://www.w3.org/2000/svg" viewBox="0 0 24 24"><defs><style>.cls-1{fill:#a5dbe8;}.cls-2{fill:#525353;}.cls-3{fill:#aa9678;}.cls-4{fill:#c4b6a1;}.cls-5{fill:#786453;}.cls-6{fill:#fff;}.cls-7{fill:#bbbcbd;}.cls-8{fill:#676a6a;}.cls-9{fill:#909393;}.cls-10{fill:#e3dddb;}.cls-11{fill:#fcb03f;}.cls-12{fill:#9f2254;}.cls-13{fill:#df0067;}.cls-14{fill:#8b7460;}</style></defs><path class="cls-1" d="M8.07,17.45l.54-.22A6.26,6.26,0,0,1,9.22,17c.26-.08.52-.15.79-.21a9.36,9.36,0,0,1,1.08-.16c-.21.64-.43,1.28-.68,1.91a2.3,2.3,0,0,1,0,.37A7.68,7.68,0,0,1,12,18.78a7.78,7.78,0,0,1,1.53.15c0-.12,0-.25,0-.37-.24-.63-.47-1.27-.67-1.91a9.69,9.69,0,0,1,1.08.16c.27.06.53.13.79.21a6.26,6.26,0,0,1,.61.21l.54.22a9.6,9.6,0,0,1,3.33,2.46,11,11,0,1,0-14.43,0,9.6,9.6,0,0,1,3.33-2.46"/><path class="cls-2" d="M15.84,17.45l.69,2.36h.19c.13,0,.21,0,.21.16s0,.44,0,.65c.17.14.37.31.53.46a10.93,10.93,0,0,0,1.67-1.18,9.6,9.6,0,0,0-3.33-2.46"/><path class="cls-2" d="M14.5,17.43l.8-.2a6.26,6.26,0,0,0-.61-.21c-.26-.08-.52-.15-.79-.21a9.69,9.69,0,0,0-1.08-.16c.2.64.43,1.28.67,1.91,0,.12,0,.25,0,.37a7.78,7.78,0,0,1,1.65.54l-.63-2"/><path d="M6.41,21.09a3.61,3.61,0,0,0,.39.22c0-.22.12-.53.14-.75-.17.14-.38.38-.53.53"/><path d="M15.11,19.45a7.56,7.56,0,0,0-1.63-.52A7.78,7.78,0,0,0,12,18.78a7.68,7.68,0,0,0-1.52.15,8,8,0,0,0-1.68.51l-.06.35h6.52l-.1-.34"/><path class="cls-2" d="M6.92,20.62A5.88,5.88,0,0,0,7,20a.2.2,0,0,1,.22-.2h.2l.7-2.36a9.6,9.6,0,0,0-3.33,2.46,10.93,10.93,0,0,0,1.67,1.18c.15-.15.32-.31.49-.45"/><path d="M17.05,21a1.42,1.42,0,0,0,.06.27l.39-.22c-.16-.15-.32-.31-.5-.46l.05.41"/><path class="cls-3" d="M15.11,19.45l.1.34h1.34l-.71-2.34-.54-.22-.8.2.61,2"/><path class="cls-4" d="M7.38,20.26l0,0h0v0"/><path class="cls-3" d="M16.52,20.24h0l0,0v0"/><path class="cls-3" d="M16.5,20.21H12v2.38a11,11,0,0,0,4.74-1.06,7.94,7.94,0,0,1-.12-1.29l-.07,0"/><path class="cls-4" d="M12,20.22H7.36c0,.44-.1,1-.14,1.31A11,11,0,0,0,12,22.59V20.23h0"/><path class="cls-5" d="M12,20h0v.22h0Z"/><path class="cls-2" d="M15.12,18.21,15,18.08l.11.13"/><path class="cls-3" d="M15.37,18.46h0a2.35,2.35,0,0,1-.25-.25,2.35,2.35,0,0,0,.25.25"/><path class="cls-6" d="M19.19,11.65h0"/><path class="cls-7" d="M19.19,11.65h0"/><path class="cls-8" d="M19.18,11.47h0a.53.53,0,0,1,0,.13v0h0v0a.53.53,0,0,1,0,.13h0l0,.13h0l.28-.31-.29-.3h0l0,.13"/><path d="M19.18,11.82v0a.53.53,0,0,0,0-.13v-.05a.53.53,0,0,0,0-.13v0l0-.13v0a1.22,1.22,0,0,0-.1-.23l0,0L19,11,18.93,11l0,0,0,0h0l-.08,0-.08,0h0l-.05,0,0,0-.06.05,0,.05v0a.82.82,0,0,0-.11.23h0l0,.12s0,0,0,0,0,.1,0,.15v0h0c0,.42.2.76.45.76l.12,0h0l.05,0,0,0,.06-.06,0-.05s0,0,0,0l0-.07v0l0-.11,0-.13Zm-.42-.28c-.09,0-.16-.12-.16-.28s.07-.29.16-.29.17.13.17.29-.08.28-.17.28Z"/><path class="cls-6" d="M18.76,11c-.09,0-.16.13-.16.29s.07.28.16.28.17-.12.17-.28-.08-.29-.17-.29"/><path class="cls-9" d="M18.35,11.3h0a.82.82,0,0,1,.11-.23v0l0-.05.06-.05,0,0,.05,0h0l.08,0,.08,0h0l0,0,0,0L19,11l0,.05,0,0a1.22,1.22,0,0,1,.1.23h0l-.39-1.8-.4,1.8h0"/><path d="M13.53,11.63v-.11h0s0-.07,0-.1h0l0-.1h0a.3.3,0,0,0,0-.1h0l0-.09a1.12,1.12,0,0,0-.19-.24,1,1,0,0,0-.32-.21h0l-.18-.06h0l-.2,0-.19,0h0l-.18.06h0a.7.7,0,0,0-.17.09h0l-.15.12h0a.88.88,0,0,0-.19.24h0l-.05.09h0l0,.08v0s0,.05,0,.08v0s0,.05,0,.08v0s0,.07,0,.1a1.49,1.49,0,0,0,0,.21h0l.06.19h0a1,1,0,0,0,.21.32.92.92,0,0,0,.25.19h0l.08,0h0l.08,0h0l.08,0h0l.08,0h.13a.94.94,0,0,0,.41-.08l.18-.09a1.24,1.24,0,0,0,.28-.28,1.51,1.51,0,0,0,.09-.18.94.94,0,0,0,.08-.41h0Zm-1-.12a.4.4,0,0,1-.39-.39.39.39,0,0,1,.39-.39.38.38,0,0,1,.39.39.39.39,0,0,1-.39.39Z"/><path class="cls-6" d="M12.49,10.73a.39.39,0,0,0-.39.39.4.4,0,0,0,.39.39.39.39,0,0,0,.39-.39.38.38,0,0,0-.39-.39"/><path class="cls-7" d="M11.78,10.89h0l.72-2.2V8.18h0a6.26,6.26,0,0,0-1.23-.12h-.48a6,6,0,0,0-2.08.54,6.58,6.58,0,0,0-1.56,1h0l-.36.33L6.72,10l-.32.34-.07.08-.3.38,0,0c-.1.13-.18.26-.27.39l0,.07c-.07.11-.13.22-.19.33H8.76l3-.74"/><path class="cls-10" d="M14.53,10.64a2.11,2.11,0,0,0,0-.25c0-.12,0-.23,0-.35V9.69c0-.23,0-.46,0-.7h0l-.24-.14h0l-.07,0h0l0,0h0l0,0a3.82,3.82,0,0,0-.46-.21,8.34,8.34,0,0,0-1.15-.37v.52l.71,2.2h0a1.12,1.12,0,0,1,.19.24h0l0,.09h0a.3.3,0,0,1,0,.1h0l0,.1h0s0,.07,0,.1h0v.11h.88c.05-.31.1-.64.12-1v0"/><path class="cls-11" d="M15.67,9.87h0"/><path class="cls-9" d="M11.78,10.89h0l.15-.12h0a.7.7,0,0,1,.17-.09h0l.18-.06h0l.19,0,.2,0h0l.18.06h0a1,1,0,0,1,.32.21h0l-.71-2.2-.72,2.2"/><path class="cls-8" d="M11.53,12l-.06-.19h0a1.49,1.49,0,0,1,0-.21s0-.07,0-.1v0s0,0,0-.08v0s0-.06,0-.08v0l0-.08h0l.05-.09h0a.88.88,0,0,1,.19-.24l-3,.74h0l3,.73a1,1,0,0,1-.21-.32h0"/><path class="cls-10" d="M18.31,11.47s0,0,0,0l0-.12v0l.4-1.8v-1a1.61,1.61,0,0,0-1-.41,1.81,1.81,0,0,0-1.19.55,4.76,4.76,0,0,0-.83,1.2l0,.06.2.17.43.41.2.2.21.21a3.45,3.45,0,0,0,.26.28l.1.12c.11.11.21.23.31.35h0l0,0h.89v0s0-.1,0-.15"/><path class="cls-10" d="M15.67,9.87h0"/><path class="cls-2" d="M5,12.77v0c.06-.15.12-.3.19-.44a.69.69,0,0,1,0-.13l.17-.34a.83.83,0,0,0,.07-.13l0-.08c.06-.11.12-.22.19-.33l0-.07c.09-.13.17-.26.27-.39l0,0,.3-.38.07-.08L6.72,10l.07-.07.36-.33h0a3.94,3.94,0,0,1,3.9-2.69,4,4,0,0,1,2.06.59A3.29,3.29,0,0,1,14.5,8.93h0l0,.05h0a6.6,6.6,0,0,1,.8.59l.25.22.08.07h0l0,0c.25-1.6,1.06-2.47,1.89-2.47.63,0,1.08.37,1.43,1.38h0a3.3,3.3,0,0,1,.28.35h0v0h0V9.08A7.75,7.75,0,0,0,4.61,14h0c0-.23.11-.46.17-.68L5,12.77"/><path class="cls-6" d="M19.43,11.65l-.27.3h0l0,.11v0l0,.07s0,0,0,0l0,.05-.06.06,0,0-.05,0h0l-.12,0c-.25,0-.45-.34-.45-.76h-.89c.17.19.33.39.49.58h0c.15.19.31.38.46.58l0,0c.15.18.29.36.43.55l0,0,.45.6h0a7.9,7.9,0,0,0,.41-2.4h-.26l0,0"/><path d="M10.79,8.07h.48a6.26,6.26,0,0,1,1.23.12h0a8.34,8.34,0,0,1,1.15.37,3.82,3.82,0,0,1,.46.21l0,0h0l0,0h0l.07,0h0l.24.14h0l0-.05h0A4,4,0,0,0,13,7.32,3.92,3.92,0,0,0,11,6.73,4,4,0,0,0,7.15,9.61a6.58,6.58,0,0,1,1.56-1,6,6,0,0,1,2.08-.54"/><path class="cls-7" d="M19.31,9.09h0A3.3,3.3,0,0,0,19,8.73h0l-.14-.14a.1.1,0,0,0-.05,0,.6.6,0,0,0-.08-.08v1l.39,1.8h0v0l.28.31h.28s0-.05,0-.08h0a7.55,7.55,0,0,0-.4-2.43h0v0"/><path d="M16.53,8.61a1.81,1.81,0,0,1,1.19-.55,1.61,1.61,0,0,1,1,.41h0a.6.6,0,0,1,.08.08.1.1,0,0,1,.05,0l.14.14h0c-.35-1-.9-1.66-1.53-1.66-.83,0-1.54,1.15-1.79,2.75h0a4.76,4.76,0,0,1,.83-1.2"/><path d="M15.41,18.43a1.82,1.82,0,0,1-.26-.25l-.1-.12L15,17.94a.22.22,0,0,1-.05-.08,2,2,0,0,1-.15-.29,2,2,0,0,1-.08-.31.94.94,0,0,1-.06-.24,2.73,2.73,0,0,1,0-.41,2,2,0,0,1,0-.24,2.17,2.17,0,0,1,0-.25,3.55,3.55,0,0,1,.34-.8l.05-.09a1.13,1.13,0,0,1,.12-.18,5.13,5.13,0,0,0,.94-3.64c0-.11-.05-.34-.07-.45,0,.08-.06.32-.06.32a.19.19,0,0,1,0,.09,6.56,6.56,0,0,1-1.56,2.44c-.09.11-.2.22-.3.33l-.56.57-.24.23c-.08.08-.17.24-.28.35s-.15.41-.22.64l-.09,0a10.31,10.31,0,0,1-2.35-1.28,10.07,10.07,0,0,0,2,1.84c.12.09.24.16.35.23-.05.8.3,1.56,1.9,1.79a3.21,3.21,0,0,0,.82,0h0s0,0,0,0"/><path class="cls-12" d="M14.56,16.37a9.81,9.81,0,0,0,5.68-.82c.05,0,.11,0,.16,0a13.39,13.39,0,0,1-3.26,2.38L17,18c-.18.08-.35.15-.53.21a4.33,4.33,0,0,1-1,.26h0v0h0a2.35,2.35,0,0,1-.25-.25L15,18.08,14.93,18a.56.56,0,0,1,0-.08,1.25,1.25,0,0,1-.15-.28,2.52,2.52,0,0,1-.13-.33,1.84,1.84,0,0,1,0-.25,2.63,2.63,0,0,1,0-.41,1.94,1.94,0,0,1,0-.24h0"/><path class="cls-11" d="M13.54,14.76c.2-.19.38-.38.56-.57s.21-.21.31-.32A6.75,6.75,0,0,0,16,11.39a.19.19,0,0,0,0-.08v0s0-.07,0-.12.1-.09.1-.12a3.6,3.6,0,0,0-.47-1.18h0l-.08-.07-.25-.22a6.6,6.6,0,0,0-.8-.59c0,.24,0,.47,0,.7V10c0,.12,0,.23,0,.35a2.11,2.11,0,0,1,0,.25v0c0,.32-.07.65-.12,1l-.11.49a14.93,14.93,0,0,1-1,2.46c-.09.21-.18.43-.26.65l0,.06L13.3,15l.24-.24"/><path class="cls-2" d="M8.87,19.42a6.75,6.75,0,0,1,1.56-.49,2.3,2.3,0,0,0,0-.37c.25-.63.47-1.27.68-1.91a9.36,9.36,0,0,0-1.08.16c-.27.06-.53.13-.79.21a6.26,6.26,0,0,0-.61.21l.8.2-.65,2,.11,0"/><path class="cls-13" d="M18.82,13.39c-.14-.19-.28-.37-.43-.55l0,0c-.15-.2-.31-.39-.46-.58h0c-.16-.19-.32-.39-.49-.58l0,0c-.1-.12-.2-.24-.31-.35l-.1-.12a3.45,3.45,0,0,1-.26-.28l-.21-.21-.2-.2L15.87,10l-.2-.18h0a8.75,8.75,0,0,1,.38,1.23c0,.11,0,.21.05.32a5.12,5.12,0,0,1-1,3.64l-.16.28a2.77,2.77,0,0,0-.34.79c0,.09,0,.17-.05.25a9.74,9.74,0,0,0,5.86-.82S20,14.92,19.31,14l-.45-.6,0,0"/><path class="cls-3" d="M8.69,19.82l.72-2.39-.8-.2-.54.22-.72,2.37.8,0,.54,0"/><path class="cls-6" d="M9.19,18.79l.22.07a7.7,7.7,0,0,0,5.45-.12l.14-.06.23-.1.2-.1h0a3.21,3.21,0,0,1-.82,0c-1.6-.23-2-1-1.9-1.79-.11-.07-.23-.14-.35-.23a10.07,10.07,0,0,1-2-1.84,10.31,10.31,0,0,0,2.35,1.28l.09,0c.07-.23.15-.44.22-.64l0-.06c.08-.22.17-.44.26-.65a14.93,14.93,0,0,0,1-2.46l.11-.49h-.88a.94.94,0,0,1-.08.41,1.51,1.51,0,0,1-.09.18,1.24,1.24,0,0,1-.28.28l-.18.09a.94.94,0,0,1-.41.08h-.13l-.08,0h0l-.08,0h0l-.08,0h0l-.08,0h0a.92.92,0,0,1-.25-.19l-3-.73H5.5l0,.08a.83.83,0,0,1-.07.13l-.17.34a.69.69,0,0,0,0,.13c-.07.14-.13.29-.19.44v0l-.18.52c-.06.22-.12.45-.17.68a7.73,7.73,0,0,0,2.81,3.85l.12.08a6.12,6.12,0,0,0,.69.43,8.46,8.46,0,0,0,1,.46"/><path class="cls-14" d="M17,20.64c0-.21,0-.42,0-.62a.23.23,0,0,0-.23-.23H7.16a.23.23,0,0,0-.23.23c0,.2,0,.41,0,.62s-.06.45-.1.67c.13.08.28.15.42.22a6.79,6.79,0,0,0,.16-1.27v0h9.13v0a7.75,7.75,0,0,0,.17,1.27l.42-.22c0-.22-.08-.44-.1-.67"/></svg>