<svg id="Layer_1" data-name="Layer 1" xmlns="http://www.w3.org/2000/svg" viewBox="0 0 24 24"><defs><style>.cls-1{fill:#0e009e;}.cls-2{fill:#009aff;}</style></defs><path class="cls-1" d="M11,13.41,9.79,14.65,5.16,10,9.78,5.39,11,6.61,7.57,10Z"/><path class="cls-1" d="M16.69,14.72l-3.45-3.43,1.22-1.19,4.61,4.62-4.62,4.61-1.18-1.2Z"/><path class="cls-2" d="M19.75,11.33H21a9.2,9.2,0,0,0-7.82-8.1c-.19.4-.39.8-.61,1.18A8,8,0,0,1,19.75,11.33Z"/><path class="cls-2" d="M12.17,20.26h-.29a8,8,0,0,1-7.94-7.82c-.41.13-.82.29-1.22.46a9.18,9.18,0,0,0,9.07,8.6C11.9,21.08,12,20.67,12.17,20.26Z"/></svg>