<svg width="52" height="52" viewBox="0 0 52 52" fill="none" xmlns="http://www.w3.org/2000/svg">
<path d="M44.9135 15.5783L36.7452 12.7617V3.85667C36.7452 3.53167 36.4852 3.25 36.1602 3.25C36.0952 3.25 36.0302 3.27167 35.9652 3.29333L22.3802 8.71C22.1635 8.79667 22.0119 9.035 22.0119 9.27333V12.805H14.4069C14.0819 12.805 13.8435 13.0867 13.8435 13.4117L13.8435 26.6283H12.4135V26.1083C12.4135 25.4583 11.9152 24.9167 11.2869 24.9167H10.5069C9.87854 24.9167 9.38021 25.4583 9.38021 26.1083V26.6283H8.36187C7.43021 26.6283 6.67187 27.43 6.67187 28.4267L6.67187 46.9517C6.67187 47.9483 7.43021 48.75 8.36187 48.75H28.1869C29.1185 48.75 29.8769 47.9483 29.8769 46.9517L29.8769 43.9617L44.7402 43.9617C45.0652 43.9617 45.3035 43.68 45.3035 43.355L45.3035 16.1417C45.3252 15.8817 45.1519 15.665 44.9135 15.5783ZM44.1769 42.7483H40.5369V39.39C40.5369 39.065 40.2769 38.7833 39.9735 38.7833H36.9835C36.6585 38.7833 36.4202 39.065 36.4202 39.39V42.7483L32.7802 42.7483V12.675L36.0085 13.78L44.1769 16.5967L44.1769 42.7483ZM39.4102 42.7483H37.5685V39.9967H39.4102V42.7483ZM14.9919 14.0183H22.0335L22.0335 26.6283L19.8019 26.6283V26.1083C19.8019 25.4583 19.3035 24.9167 18.6752 24.9167H17.8952C17.2669 24.9167 16.7685 25.4583 16.7685 26.1083V26.6283H14.9919L14.9919 14.0183ZM18.6535 26.1517V28.34H17.9169V26.1517H18.6535ZM10.5285 26.1517H11.2652V28.34H10.5285V26.1517ZM8.36187 27.8417H9.38021V28.34C9.38021 28.99 9.87854 29.5317 10.5069 29.5317H11.3085C11.9369 29.5317 12.4352 28.99 12.4352 28.34V27.8417H16.7902V28.34C16.7902 28.99 17.2885 29.5317 17.9169 29.5317H18.7185C19.3469 29.5317 19.8452 28.99 19.8452 28.34V27.8417L24.2002 27.8417V28.34C24.2002 28.99 24.6985 29.5317 25.3269 29.5317H26.1285C26.7569 29.5317 27.2552 28.99 27.2552 28.34V27.8417H28.2735C28.5769 27.8417 28.8152 28.1017 28.8152 28.4267V31.6983L7.82021 31.6983V28.4267C7.82021 28.1017 8.05854 27.8417 8.36187 27.8417ZM25.3052 28.34V26.1517H26.0635V28.34H25.3052ZM28.7502 46.9517C28.7502 47.2767 28.5119 47.5367 28.2085 47.5367H8.36187C8.05854 47.5367 7.82021 47.2767 7.82021 46.9517L7.82021 32.9117H28.7502L28.7502 46.9517ZM28.2085 26.6283H27.1902V26.1083C27.1902 25.4583 26.6919 24.9167 26.0635 24.9167H25.2619C24.6335 24.9167 24.1352 25.4583 24.1352 26.1083V26.6283H23.1385L23.1385 9.70667L35.5752 4.745V12.3717L32.3902 11.2667C32.0869 11.1583 31.7619 11.3317 31.6752 11.6567C31.6535 11.7 31.6319 11.765 31.6319 11.83L31.6319 42.7267H29.8985V28.405C29.8985 27.43 29.1402 26.6283 28.2085 26.6283ZM13.6269 35.1217H10.4419C10.1169 35.1217 9.87854 35.4033 9.87854 35.7283V39.1083C9.87854 39.4333 10.1385 39.715 10.4419 39.715H13.6269C13.9519 39.715 14.1902 39.4333 14.1902 39.1083V35.7283C14.1902 35.4033 13.9302 35.1217 13.6269 35.1217ZM13.0419 38.5017H11.0052V36.335H13.0419V38.5017ZM19.8669 35.1217H16.7035C16.3785 35.1217 16.1402 35.4033 16.1402 35.7283V39.1083C16.1402 39.4333 16.4002 39.715 16.7035 39.715H19.8885C20.2135 39.715 20.4519 39.4333 20.4519 39.1083V35.7283C20.4519 35.4033 20.1919 35.1217 19.8669 35.1217ZM19.3035 38.5017H17.2669V36.335H19.3035V38.5017ZM26.1285 35.1217H22.9435C22.6185 35.1217 22.3802 35.4033 22.3802 35.7283V39.1083C22.3802 39.4333 22.6402 39.715 22.9435 39.715H26.1285C26.4535 39.715 26.6919 39.4333 26.6919 39.1083V35.7283C26.6919 35.4033 26.4535 35.1217 26.1285 35.1217ZM25.5435 38.5017H23.5069V36.335H25.5435V38.5017ZM13.6269 41.2317H10.4419C10.1169 41.2317 9.87854 41.5133 9.87854 41.8383V45.2183C9.87854 45.5433 10.1385 45.825 10.4419 45.825H13.6269C13.9519 45.825 14.1902 45.5433 14.1902 45.2183L14.1902 41.8383C14.1902 41.5133 13.9302 41.2317 13.6269 41.2317ZM13.0419 44.6117H11.0052L11.0052 42.445H13.0419L13.0419 44.6117ZM19.8669 41.2317H16.7035C16.3785 41.2317 16.1402 41.5133 16.1402 41.8383V45.2183C16.1402 45.5433 16.4002 45.825 16.7035 45.825H19.8885C20.2135 45.825 20.4519 45.5433 20.4519 45.2183V41.8383C20.4519 41.5133 20.1919 41.2317 19.8669 41.2317ZM19.3035 44.6117H17.2669V42.445H19.3035V44.6117ZM26.1285 41.2317H22.9435C22.6185 41.2317 22.3802 41.5133 22.3802 41.8383V45.2183C22.3802 45.5433 22.6402 45.825 22.9435 45.825H26.1285C26.4535 45.825 26.6919 45.5433 26.6919 45.2183V41.8383C26.6919 41.5133 26.4535 41.2317 26.1285 41.2317ZM25.5435 44.6117H23.5069V42.445H25.5435V44.6117ZM34.6435 18.5683H35.7919V19.7817H34.6435V18.5683ZM34.6435 22.0783H35.7919V23.2917H34.6435V22.0783ZM34.6435 25.61H35.7919V26.8233H34.6435V25.61ZM34.6435 29.12H35.7919V30.3333H34.6435V29.12ZM34.6435 32.63H35.7919V33.8433H34.6435V32.63ZM34.6435 36.14L35.7919 36.14V37.3533L34.6435 37.3533V36.14ZM39.0419 19.7817H37.9152V18.5683H39.0635V19.7817H39.0419ZM39.0419 23.2917H37.9152V22.0783H39.0635V23.2917H39.0419ZM39.0419 26.8233H37.9152V25.61H39.0635V26.8233H39.0419ZM39.0419 30.3333H37.9152V29.12H39.0635V30.3333H39.0419ZM39.0419 33.8433H37.9152V32.63H39.0635V33.8433H39.0419ZM39.0419 37.3533H37.9152V36.14H39.0635V37.3533H39.0419ZM42.3135 19.7817H41.1652V18.5683H42.3135V19.7817ZM42.3135 23.2917H41.1652V22.0783H42.3135V23.2917ZM42.3135 26.8233H41.1652V25.61H42.3135V26.8233ZM42.3135 30.3333H41.1652V29.12H42.3135V30.3333ZM42.3135 33.8433H41.1652V32.63H42.3135V33.8433ZM42.3135 37.3533H41.1652V36.14H42.3135V37.3533ZM25.3919 14.6683H26.5402V15.8817H25.3919V14.6683ZM28.2085 14.6683L29.3569 14.6683V15.8817L28.2085 15.8817V14.6683ZM25.3919 18.2H26.5402V19.4133H25.3919V18.2ZM28.2085 18.2L29.3569 18.2V19.4133H28.2085V18.2ZM25.3919 21.71H26.5402V22.9233H25.3919V21.71ZM28.2085 21.71H29.3569V22.9233H28.2085V21.71ZM17.9602 19.3917H16.8119V18.2H17.9602V19.3917ZM20.2785 19.3917H19.1519V18.2H20.3002L20.2785 19.3917ZM17.9602 22.9233H16.8119V21.71H17.9602V22.9233ZM20.2785 22.9233H19.1519V21.71H20.3002L20.2785 22.9233Z" fill="#002680"/>
<path d="M44.9135 15.5783L36.7452 12.7617V3.85667C36.7452 3.53167 36.4852 3.25 36.1602 3.25C36.0952 3.25 36.0302 3.27167 35.9652 3.29333L22.3802 8.71C22.1635 8.79667 22.0119 9.035 22.0119 9.27333V12.805H14.4069C14.0819 12.805 13.8435 13.0867 13.8435 13.4117L13.8435 26.6283H12.4135V26.1083C12.4135 25.4583 11.9152 24.9167 11.2869 24.9167H10.5069C9.87854 24.9167 9.38021 25.4583 9.38021 26.1083V26.6283H8.36187C7.43021 26.6283 6.67187 27.43 6.67187 28.4267L6.67187 46.9517C6.67187 47.9483 7.43021 48.75 8.36187 48.75H28.1869C29.1185 48.75 29.8769 47.9483 29.8769 46.9517L29.8769 43.9617L44.7402 43.9617C45.0652 43.9617 45.3035 43.68 45.3035 43.355L45.3035 16.1417C45.3252 15.8817 45.1519 15.665 44.9135 15.5783ZM44.1769 42.7483H40.5369V39.39C40.5369 39.065 40.2769 38.7833 39.9735 38.7833H36.9835C36.6585 38.7833 36.4202 39.065 36.4202 39.39V42.7483L32.7802 42.7483V12.675L36.0085 13.78L44.1769 16.5967L44.1769 42.7483ZM39.4102 42.7483H37.5685V39.9967H39.4102V42.7483ZM14.9919 14.0183H22.0335L22.0335 26.6283L19.8019 26.6283V26.1083C19.8019 25.4583 19.3035 24.9167 18.6752 24.9167H17.8952C17.2669 24.9167 16.7685 25.4583 16.7685 26.1083V26.6283H14.9919L14.9919 14.0183ZM18.6535 26.1517V28.34H17.9169V26.1517H18.6535ZM10.5285 26.1517H11.2652V28.34H10.5285V26.1517ZM8.36187 27.8417H9.38021V28.34C9.38021 28.99 9.87854 29.5317 10.5069 29.5317H11.3085C11.9369 29.5317 12.4352 28.99 12.4352 28.34V27.8417H16.7902V28.34C16.7902 28.99 17.2885 29.5317 17.9169 29.5317H18.7185C19.3469 29.5317 19.8452 28.99 19.8452 28.34V27.8417L24.2002 27.8417V28.34C24.2002 28.99 24.6985 29.5317 25.3269 29.5317H26.1285C26.7569 29.5317 27.2552 28.99 27.2552 28.34V27.8417H28.2735C28.5769 27.8417 28.8152 28.1017 28.8152 28.4267V31.6983L7.82021 31.6983V28.4267C7.82021 28.1017 8.05854 27.8417 8.36187 27.8417ZM25.3052 28.34V26.1517H26.0635V28.34H25.3052ZM28.7502 46.9517C28.7502 47.2767 28.5119 47.5367 28.2085 47.5367H8.36187C8.05854 47.5367 7.82021 47.2767 7.82021 46.9517L7.82021 32.9117H28.7502L28.7502 46.9517ZM28.2085 26.6283H27.1902V26.1083C27.1902 25.4583 26.6919 24.9167 26.0635 24.9167H25.2619C24.6335 24.9167 24.1352 25.4583 24.1352 26.1083V26.6283H23.1385L23.1385 9.70667L35.5752 4.745V12.3717L32.3902 11.2667C32.0869 11.1583 31.7619 11.3317 31.6752 11.6567C31.6535 11.7 31.6319 11.765 31.6319 11.83L31.6319 42.7267H29.8985V28.405C29.8985 27.43 29.1402 26.6283 28.2085 26.6283ZM13.6269 35.1217H10.4419C10.1169 35.1217 9.87854 35.4033 9.87854 35.7283V39.1083C9.87854 39.4333 10.1385 39.715 10.4419 39.715H13.6269C13.9519 39.715 14.1902 39.4333 14.1902 39.1083V35.7283C14.1902 35.4033 13.9302 35.1217 13.6269 35.1217ZM13.0419 38.5017H11.0052V36.335H13.0419V38.5017ZM19.8669 35.1217H16.7035C16.3785 35.1217 16.1402 35.4033 16.1402 35.7283V39.1083C16.1402 39.4333 16.4002 39.715 16.7035 39.715H19.8885C20.2135 39.715 20.4519 39.4333 20.4519 39.1083V35.7283C20.4519 35.4033 20.1919 35.1217 19.8669 35.1217ZM19.3035 38.5017H17.2669V36.335H19.3035V38.5017ZM26.1285 35.1217H22.9435C22.6185 35.1217 22.3802 35.4033 22.3802 35.7283V39.1083C22.3802 39.4333 22.6402 39.715 22.9435 39.715H26.1285C26.4535 39.715 26.6919 39.4333 26.6919 39.1083V35.7283C26.6919 35.4033 26.4535 35.1217 26.1285 35.1217ZM25.5435 38.5017H23.5069V36.335H25.5435V38.5017ZM13.6269 41.2317H10.4419C10.1169 41.2317 9.87854 41.5133 9.87854 41.8383V45.2183C9.87854 45.5433 10.1385 45.825 10.4419 45.825H13.6269C13.9519 45.825 14.1902 45.5433 14.1902 45.2183L14.1902 41.8383C14.1902 41.5133 13.9302 41.2317 13.6269 41.2317ZM13.0419 44.6117H11.0052L11.0052 42.445H13.0419L13.0419 44.6117ZM19.8669 41.2317H16.7035C16.3785 41.2317 16.1402 41.5133 16.1402 41.8383V45.2183C16.1402 45.5433 16.4002 45.825 16.7035 45.825H19.8885C20.2135 45.825 20.4519 45.5433 20.4519 45.2183V41.8383C20.4519 41.5133 20.1919 41.2317 19.8669 41.2317ZM19.3035 44.6117H17.2669V42.445H19.3035V44.6117ZM26.1285 41.2317H22.9435C22.6185 41.2317 22.3802 41.5133 22.3802 41.8383V45.2183C22.3802 45.5433 22.6402 45.825 22.9435 45.825H26.1285C26.4535 45.825 26.6919 45.5433 26.6919 45.2183V41.8383C26.6919 41.5133 26.4535 41.2317 26.1285 41.2317ZM25.5435 44.6117H23.5069V42.445H25.5435V44.6117ZM34.6435 18.5683H35.7919V19.7817H34.6435V18.5683ZM34.6435 22.0783H35.7919V23.2917H34.6435V22.0783ZM34.6435 25.61H35.7919V26.8233H34.6435V25.61ZM34.6435 29.12H35.7919V30.3333H34.6435V29.12ZM34.6435 32.63H35.7919V33.8433H34.6435V32.63ZM34.6435 36.14L35.7919 36.14V37.3533L34.6435 37.3533V36.14ZM39.0419 19.7817H37.9152V18.5683H39.0635V19.7817H39.0419ZM39.0419 23.2917H37.9152V22.0783H39.0635V23.2917H39.0419ZM39.0419 26.8233H37.9152V25.61H39.0635V26.8233H39.0419ZM39.0419 30.3333H37.9152V29.12H39.0635V30.3333H39.0419ZM39.0419 33.8433H37.9152V32.63H39.0635V33.8433H39.0419ZM39.0419 37.3533H37.9152V36.14H39.0635V37.3533H39.0419ZM42.3135 19.7817H41.1652V18.5683H42.3135V19.7817ZM42.3135 23.2917H41.1652V22.0783H42.3135V23.2917ZM42.3135 26.8233H41.1652V25.61H42.3135V26.8233ZM42.3135 30.3333H41.1652V29.12H42.3135V30.3333ZM42.3135 33.8433H41.1652V32.63H42.3135V33.8433ZM42.3135 37.3533H41.1652V36.14H42.3135V37.3533ZM25.3919 14.6683H26.5402V15.8817H25.3919V14.6683ZM28.2085 14.6683L29.3569 14.6683V15.8817L28.2085 15.8817V14.6683ZM25.3919 18.2H26.5402V19.4133H25.3919V18.2ZM28.2085 18.2L29.3569 18.2V19.4133H28.2085V18.2ZM25.3919 21.71H26.5402V22.9233H25.3919V21.71ZM28.2085 21.71H29.3569V22.9233H28.2085V21.71ZM17.9602 19.3917H16.8119V18.2H17.9602V19.3917ZM20.2785 19.3917H19.1519V18.2H20.3002L20.2785 19.3917ZM17.9602 22.9233H16.8119V21.71H17.9602V22.9233ZM20.2785 22.9233H19.1519V21.71H20.3002L20.2785 22.9233Z" fill="url(#paint0_linear_5823_14372)"/>
<defs>
<linearGradient id="paint0_linear_5823_14372" x1="25.2857" y1="2.57097" x2="26.0263" y2="32.685" gradientUnits="userSpaceOnUse">
<stop stop-color="#10BEF0"/>
<stop offset="1" stop-color="#10BEF0" stop-opacity="0"/>
</linearGradient>
</defs>
</svg>
