<svg width="47" height="47" viewBox="0 0 47 47" fill="none" xmlns="http://www.w3.org/2000/svg">
<path d="M46.1933 23.2207C46.1933 29.3957 43.7883 35.1807 39.4333 39.5574C35.0783 43.9124 29.2717 46.3174 23.0967 46.3174C18.1783 46.3174 13.39 44.7357 9.46833 41.854L9.945 43.544C10.0533 43.934 9.83667 44.3457 9.425 44.454C9.36 44.4757 9.295 44.4757 9.23 44.4757C8.905 44.4757 8.60167 44.259 8.515 43.934L7.38833 39.969C7.32333 39.7524 7.36667 39.514 7.49667 39.319C7.62667 39.124 7.84333 39.0157 8.08167 39.0157L12.1983 38.864C12.61 38.8424 12.9567 39.1674 12.9783 39.579C13 39.9907 12.675 40.3374 12.2633 40.359L10.0967 40.4457C13.8233 43.2624 18.4167 44.8224 23.1183 44.8224C35.035 44.8224 44.72 35.1374 44.72 23.2207C44.72 19.4074 43.7017 15.6374 41.795 12.3657C41.5783 12.019 41.7083 11.564 42.055 11.3474C42.4017 11.1307 42.8567 11.2607 43.0733 11.6074C45.11 15.1174 46.1933 19.1474 46.1933 23.2207ZM1.495 23.2207C1.495 11.304 11.18 1.61902 23.0967 1.61902C27.7983 1.61902 32.3917 3.15736 36.1183 5.99569L33.9517 6.08236C33.54 6.10402 33.215 6.45069 33.2367 6.86236C33.2583 7.27402 33.5833 7.57736 33.9733 7.57736H33.995L38.1117 7.42569C38.35 7.42569 38.545 7.29569 38.6967 7.12236C38.8483 6.94902 38.87 6.71069 38.805 6.47236L37.6783 2.50736C37.57 2.11736 37.1583 1.87902 36.7683 1.98736C36.3783 2.09569 36.14 2.50736 36.2483 2.89736L36.725 4.58736C32.7817 1.70569 27.9933 0.124023 23.0967 0.124023C16.9217 0.124023 11.1367 2.52902 6.76 6.88402C2.405 11.2607 0 17.0457 0 23.2207C0 27.294 1.08333 31.324 3.12 34.834C3.25 35.0724 3.51 35.2024 3.77 35.2024C3.9 35.2024 4.03 35.159 4.13833 35.094C4.485 34.8774 4.615 34.4224 4.39833 34.0757C2.51333 30.804 1.495 27.034 1.495 23.2207ZM46.1933 23.2207C46.1933 29.3957 43.7883 35.1807 39.4333 39.5574C35.0783 43.9124 29.2717 46.3174 23.0967 46.3174C18.1783 46.3174 13.39 44.7357 9.46833 41.854L9.945 43.544C10.0533 43.934 9.83667 44.3457 9.425 44.454C9.36 44.4757 9.295 44.4757 9.23 44.4757C8.905 44.4757 8.60167 44.259 8.515 43.934L7.38833 39.969C7.32333 39.7524 7.36667 39.514 7.49667 39.319C7.62667 39.124 7.84333 39.0157 8.08167 39.0157L12.1983 38.864C12.61 38.8424 12.9567 39.1674 12.9783 39.579C13 39.9907 12.675 40.3374 12.2633 40.359L10.0967 40.4457C13.8233 43.2624 18.4167 44.8224 23.1183 44.8224C35.035 44.8224 44.72 35.1374 44.72 23.2207C44.72 19.4074 43.7017 15.6374 41.795 12.3657C41.5783 12.019 41.7083 11.564 42.055 11.3474C42.4017 11.1307 42.8567 11.2607 43.0733 11.6074C45.11 15.1174 46.1933 19.1474 46.1933 23.2207ZM1.495 23.2207C1.495 11.304 11.18 1.61902 23.0967 1.61902C27.7983 1.61902 32.3917 3.15736 36.1183 5.99569L33.9517 6.08236C33.54 6.10402 33.215 6.45069 33.2367 6.86236C33.2583 7.27402 33.5833 7.57736 33.9733 7.57736H33.995L38.1117 7.42569C38.35 7.42569 38.545 7.29569 38.6967 7.12236C38.8483 6.94902 38.87 6.71069 38.805 6.47236L37.6783 2.50736C37.57 2.11736 37.1583 1.87902 36.7683 1.98736C36.3783 2.09569 36.14 2.50736 36.2483 2.89736L36.725 4.58736C32.7817 1.70569 27.9933 0.124023 23.0967 0.124023C16.9217 0.124023 11.1367 2.52902 6.76 6.88402C2.405 11.2607 0 17.0457 0 23.2207C0 27.294 1.08333 31.324 3.12 34.834C3.25 35.0724 3.51 35.2024 3.77 35.2024C3.9 35.2024 4.03 35.159 4.13833 35.094C4.485 34.8774 4.615 34.4224 4.39833 34.0757C2.51333 30.804 1.495 27.034 1.495 23.2207ZM1.495 23.2207C1.495 11.304 11.18 1.61902 23.0967 1.61902C27.7983 1.61902 32.3917 3.15736 36.1183 5.99569L33.9517 6.08236C33.54 6.10402 33.215 6.45069 33.2367 6.86236C33.2583 7.27402 33.5833 7.57736 33.9733 7.57736H33.995L38.1117 7.42569C38.35 7.42569 38.545 7.29569 38.6967 7.12236C38.8483 6.94902 38.87 6.71069 38.805 6.47236L37.6783 2.50736C37.57 2.11736 37.1583 1.87902 36.7683 1.98736C36.3783 2.09569 36.14 2.50736 36.2483 2.89736L36.725 4.58736C32.7817 1.70569 27.9933 0.124023 23.0967 0.124023C16.9217 0.124023 11.1367 2.52902 6.76 6.88402C2.405 11.2607 0 17.0457 0 23.2207C0 27.294 1.08333 31.324 3.12 34.834C3.25 35.0724 3.51 35.2024 3.77 35.2024C3.9 35.2024 4.03 35.159 4.13833 35.094C4.485 34.8774 4.615 34.4224 4.39833 34.0757C2.51333 30.804 1.495 27.034 1.495 23.2207ZM27.1917 23.3507C27.3867 23.3507 27.5817 23.4374 27.7117 23.5674C27.8417 23.6974 27.9283 23.8924 27.9283 24.0874C27.9283 26.7524 25.7617 28.919 23.0967 28.919C20.4317 28.919 18.265 26.7524 18.265 24.0874C18.265 23.6757 18.59 23.3507 19.0017 23.3507H27.1917ZM26.3467 24.8457H19.8467C20.1933 26.3407 21.515 27.4457 23.0967 27.4457C24.6783 27.4457 26.0217 26.319 26.3467 24.8457ZM7.345 26.8824C7.06333 26.774 6.86833 26.4924 6.86833 26.189L6.86833 24.0874C6.86833 23.6757 7.19333 23.3507 7.605 23.3507L15.7733 23.3507C16.185 23.3507 16.51 23.6757 16.51 24.0874C16.51 27.7057 19.4567 30.6524 23.075 30.6524C26.6933 30.6524 29.64 27.7057 29.64 24.0874C29.64 23.6757 29.965 23.3507 30.3767 23.3507H38.545C38.9567 23.3507 39.2817 23.6757 39.2817 24.0874V26.189C39.2817 26.4924 39.0867 26.774 38.805 26.8824L36.595 27.7274C36.27 28.8974 35.815 30.024 35.2083 31.0857L36.1617 33.2524C36.2917 33.534 36.2267 33.859 36.01 34.0757L33.0417 37.044C32.825 37.2607 32.5 37.3257 32.2183 37.1957L30.0517 36.2424C28.99 36.849 27.8633 37.3257 26.6933 37.629L25.8483 39.839C25.74 40.1207 25.4583 40.3157 25.155 40.3157H20.9733C20.67 40.3157 20.3883 40.1207 20.28 39.839L19.435 37.629C18.265 37.304 17.1383 36.849 16.0767 36.2424L13.91 37.1957C13.6283 37.3257 13.3033 37.2607 13.0867 37.044L10.1183 34.0757C9.90167 33.859 9.83667 33.534 9.96667 33.2524L10.92 31.0857C10.3133 30.024 9.83667 28.8974 9.53333 27.7274L7.345 26.8824ZM8.36333 25.6907L10.4433 26.4924C10.6817 26.579 10.8333 26.774 10.8983 27.0124C11.2017 28.3124 11.7217 29.5257 12.415 30.6524C12.545 30.869 12.5667 31.129 12.4583 31.3457L11.57 33.404L13.8017 35.6357L15.8383 34.7257C16.055 34.6174 16.315 34.639 16.5317 34.769C17.6583 35.4624 18.8933 35.9824 20.1717 36.2857C20.41 36.3507 20.605 36.524 20.6917 36.7407L21.4933 38.8207H24.6567L25.4583 36.7407C25.545 36.5024 25.74 36.3507 25.9783 36.2857C27.2783 35.9824 28.4917 35.4624 29.6183 34.769C29.835 34.639 30.095 34.6174 30.3117 34.7257L32.3483 35.6357L34.58 33.404L33.67 31.3674C33.5617 31.1507 33.5833 30.8907 33.7133 30.674C34.4067 29.5474 34.9267 28.3124 35.23 27.034C35.295 26.7957 35.4683 26.6007 35.685 26.514L37.765 25.7124V24.8674H31.0483C30.68 28.9624 27.2133 32.169 23.0317 32.169C18.85 32.169 15.3833 28.9624 15.015 24.8674L8.36333 24.8674V25.6907ZM39.3033 19.234C39.325 19.4507 39.26 19.6457 39.1083 19.819C38.9567 19.9707 38.7617 20.0574 38.545 20.0574H29.9433C29.965 20.209 29.9867 20.3607 30.0083 20.5124C30.03 20.729 29.965 20.924 29.8133 21.0974C29.6617 21.249 29.4667 21.3357 29.25 21.3357H16.9C16.6833 21.3357 16.4883 21.249 16.3367 21.0974C16.185 20.9457 16.12 20.729 16.1417 20.5124C16.1633 20.3607 16.185 20.209 16.2067 20.0574L7.62667 20.0574C7.41 20.0574 7.215 19.9707 7.06333 19.819C6.91167 19.6674 6.84667 19.4507 6.86833 19.234C7.12833 17.024 8.53667 15.204 10.4433 14.3807C9.83667 13.7524 9.44667 12.9074 9.44667 11.9757C9.44667 10.0907 10.9633 8.57402 12.8483 8.57402C14.7333 8.57402 16.25 10.0907 16.25 11.9757C16.25 12.929 15.86 13.774 15.2317 14.4024C16.315 14.8574 17.2467 15.6374 17.8967 16.6124C18.6117 15.8107 19.5 15.1824 20.4967 14.7924C19.695 14.0774 19.1967 13.0374 19.1967 11.889C19.1967 9.74402 20.9517 7.98902 23.0967 7.98902C25.2417 7.98902 26.9967 9.74402 26.9967 11.889C26.9967 13.0374 26.4983 14.0774 25.6967 14.7924C26.6933 15.204 27.6033 15.8324 28.2967 16.6124C28.9467 15.6157 29.8783 14.8574 30.94 14.3807C30.3117 13.7524 29.9217 12.9074 29.9217 11.954C29.9217 10.069 31.4383 8.55236 33.3233 8.55236C35.2083 8.55236 36.725 10.069 36.725 11.954C36.725 12.8857 36.335 13.7524 35.7283 14.359C37.6567 15.204 39.065 17.024 39.3033 19.234ZM33.345 13.8824C34.4067 13.8824 35.2517 13.0157 35.2517 11.9757C35.2517 10.9357 34.385 10.069 33.345 10.069C32.2833 10.069 31.4383 10.9357 31.4383 11.9757C31.4167 13.0157 32.2833 13.8824 33.345 13.8824ZM23.0967 14.294C24.4183 14.294 25.5017 13.2107 25.5017 11.889C25.5017 10.5674 24.4183 9.48402 23.0967 9.48402C21.775 9.48402 20.6917 10.5674 20.6917 11.889C20.6917 13.2107 21.775 14.294 23.0967 14.294ZM12.8483 13.8824C13.91 13.8824 14.755 13.0157 14.755 11.9757C14.755 10.9357 13.8883 10.069 12.8483 10.069C11.8083 10.069 10.9417 10.9357 10.9417 11.9757C10.9417 13.0157 11.7867 13.8824 12.8483 13.8824ZM16.6617 18.584C16.7483 18.3674 16.835 18.1724 16.9433 17.9774C16.2067 16.4174 14.6033 15.3774 12.8483 15.3774C10.8117 15.3774 9.07833 16.699 8.515 18.584L16.6617 18.584ZM28.405 19.8624C27.7767 17.479 25.6317 15.789 23.0967 15.789C20.5617 15.789 18.4167 17.5007 17.7883 19.8624H28.405ZM37.6567 18.584C37.0933 16.699 35.36 15.3774 33.3233 15.3774C31.5683 15.3774 29.965 16.4174 29.2283 17.9774C29.3367 18.1724 29.4233 18.3674 29.51 18.584H37.6567Z" fill="#002680"/>
<path d="M46.1942 23.2207C46.1942 29.3957 43.7892 35.1807 39.4342 39.5574C35.0792 43.9124 29.2726 46.3174 23.0976 46.3174C18.1792 46.3174 13.3909 44.7357 9.46924 41.854L9.9459 43.544C10.0542 43.934 9.83757 44.3457 9.4259 44.454C9.3609 44.4757 9.2959 44.4757 9.2309 44.4757C8.9059 44.4757 8.60257 44.259 8.5159 43.934L7.38924 39.969C7.32424 39.7524 7.36757 39.514 7.49757 39.319C7.62757 39.124 7.84424 39.0157 8.08257 39.0157L12.1992 38.864C12.6109 38.8424 12.9576 39.1674 12.9792 39.579C13.0009 39.9907 12.6759 40.3374 12.2642 40.359L10.0976 40.4457C13.8242 43.2624 18.4176 44.8224 23.1192 44.8224C35.0359 44.8224 44.7209 35.1374 44.7209 23.2207C44.7209 19.4074 43.7026 15.6374 41.7959 12.3657C41.5792 12.019 41.7092 11.564 42.0559 11.3474C42.4026 11.1307 42.8576 11.2607 43.0742 11.6074C45.1109 15.1174 46.1942 19.1474 46.1942 23.2207Z" fill="url(#paint0_linear_5823_14458)"/>
<path d="M1.495 23.2207C1.495 11.304 11.18 1.61902 23.0967 1.61902C27.7983 1.61902 32.3917 3.15736 36.1183 5.99569L33.9517 6.08236C33.54 6.10402 33.215 6.45069 33.2367 6.86236C33.2583 7.27402 33.5833 7.57736 33.9733 7.57736H33.995L38.1117 7.42569C38.35 7.42569 38.545 7.29569 38.6967 7.12236C38.8483 6.94902 38.87 6.71069 38.805 6.47236L37.6783 2.50736C37.57 2.11736 37.1583 1.87902 36.7683 1.98736C36.3783 2.09569 36.14 2.50736 36.2483 2.89736L36.725 4.58736C32.7817 1.70569 27.9933 0.124023 23.0967 0.124023C16.9217 0.124023 11.1367 2.52902 6.76 6.88402C2.405 11.2607 0 17.0457 0 23.2207C0 27.294 1.08333 31.324 3.12 34.834C3.25 35.0724 3.51 35.2024 3.77 35.2024C3.9 35.2024 4.03 35.159 4.13833 35.094C4.485 34.8774 4.615 34.4224 4.39833 34.0757C2.51333 30.804 1.495 27.034 1.495 23.2207Z" fill="url(#paint1_linear_5823_14458)"/>
<defs>
<linearGradient id="paint0_linear_5823_14458" x1="7.34872" y1="28.7782" x2="46.1884" y2="28.7782" gradientUnits="userSpaceOnUse">
<stop stop-color="#10BEF0"/>
<stop offset="1" stop-color="#10BEF0" stop-opacity="0"/>
</linearGradient>
<linearGradient id="paint1_linear_5823_14458" x1="50.5633" y1="11.795" x2="-13.367" y2="21.6685" gradientUnits="userSpaceOnUse">
<stop stop-color="#10BEF0"/>
<stop offset="1" stop-color="#10BEF0" stop-opacity="0"/>
</linearGradient>
</defs>
</svg>
