<svg width="52" height="53" viewBox="0 0 52 53" fill="none" xmlns="http://www.w3.org/2000/svg">
<path d="M47.2324 33.1073L44.9791 32.7823C44.7407 31.8073 44.3507 30.8973 43.8524 30.0307L45.2174 28.189C45.3691 27.994 45.3474 27.7123 45.1741 27.5173L44.3074 26.6507L45.3474 25.6107H47.1891C47.4707 25.6107 47.7091 25.3723 47.7091 25.0907C47.7091 24.809 47.4707 24.5707 47.1891 24.5707H45.6507V23.0323C45.6507 22.7507 45.4124 22.5123 45.1307 22.5123C44.8491 22.5123 44.6107 22.7507 44.6107 23.0323V24.874L43.5707 25.914L42.7041 25.0473C42.5307 24.874 42.2491 24.8523 42.0324 25.004L40.1907 26.369C39.3241 25.849 38.4141 25.4807 37.4607 25.2423L37.1357 22.989C37.0924 22.729 36.8757 22.5557 36.6374 22.5557H33.1707C32.9107 22.5557 32.6941 22.729 32.6724 22.989L32.3474 25.2423C31.3941 25.4807 30.4624 25.8707 29.6174 26.369L27.7757 25.004C27.5807 24.8523 27.2991 24.874 27.1041 25.0473L24.6557 27.4957C24.4824 27.669 24.4607 27.9507 24.6124 28.1673L25.9774 30.009C25.4574 30.854 25.0891 31.7857 24.8507 32.7607L22.5974 33.0857C22.3374 33.129 22.1641 33.3457 22.1641 33.584L22.1641 37.0507C22.1641 37.3107 22.3374 37.5273 22.5974 37.549L24.8507 37.874C25.0891 38.8273 25.4791 39.759 25.9774 40.6257L24.6124 42.4673C24.4607 42.6623 24.4824 42.944 24.6557 43.139L27.1041 45.5873C27.2774 45.7607 27.5591 45.7823 27.7757 45.6307L29.6174 44.2657C30.4841 44.7857 31.3941 45.154 32.3474 45.3923L32.6724 47.6457C32.7157 47.9057 32.9324 48.079 33.1707 48.079H36.6374C36.8974 48.079 37.1141 47.9057 37.1357 47.6457L37.4607 45.3923C38.4141 45.154 39.3457 44.764 40.1907 44.2657L41.3824 45.154C41.5991 45.3273 41.9241 45.2623 42.0974 45.0457C42.2707 44.829 42.2274 44.504 41.9891 44.3307L40.5157 43.2473C40.3424 43.1173 40.1041 43.1173 39.9307 43.2257C38.9991 43.8323 37.9591 44.2657 36.8757 44.4823C36.6807 44.5257 36.5074 44.699 36.4857 44.9157L36.1607 47.0823H33.5607L33.2357 44.9157C33.1924 44.699 33.0407 44.5257 32.8457 44.4823C31.7624 44.244 30.7224 43.8107 29.7907 43.2257C29.6174 43.1173 29.3791 43.1173 29.2057 43.2473L27.4507 44.5473L25.6091 42.7057L26.9091 40.9507C27.0391 40.7773 27.0391 40.539 26.9307 40.3657C26.3241 39.434 25.8907 38.394 25.6524 37.3107C25.6091 37.1157 25.4357 36.9423 25.2191 36.9207L23.0524 36.5957V33.9957L25.2191 33.6707C25.4357 33.6273 25.6091 33.4757 25.6524 33.2807C25.8907 32.1973 26.3241 31.1573 26.9307 30.2257C27.0391 30.0523 27.0391 29.814 26.9091 29.6407L25.6091 27.8857L27.4507 26.044L29.2057 27.344C29.3791 27.474 29.6174 27.474 29.7907 27.3657C30.7224 26.759 31.7624 26.3257 32.8457 26.109C33.0407 26.0657 33.2141 25.8923 33.2357 25.6757L33.5607 23.509H36.1607L36.4857 25.6757C36.5291 25.8923 36.6807 26.0657 36.8757 26.109C37.9591 26.3473 38.9991 26.7807 39.9307 27.3657C40.1041 27.474 40.3424 27.474 40.5157 27.344L42.2707 26.044L42.8341 26.6073L39.6707 29.7707C38.3707 28.644 36.7024 27.9723 34.8607 27.9723C34.1024 27.9723 33.3657 28.0807 32.6724 28.2973C32.3907 28.384 32.2391 28.6657 32.3474 28.9473C32.4341 29.2073 32.7157 29.3807 32.9974 29.2723C33.6041 29.0773 34.2541 28.9907 34.9041 28.9907C36.4641 28.9907 37.8941 29.554 38.9774 30.5073L38.0024 31.4823C37.1574 30.789 36.0741 30.3773 34.8824 30.3773C32.1524 30.3773 29.9424 32.5873 29.9424 35.3173C29.9424 38.0473 32.1741 40.2573 34.9041 40.2573C37.6341 40.2573 39.8441 38.0473 39.8441 35.3173C39.8441 34.1473 39.4324 33.0423 38.7391 32.1973L39.7141 31.2223C40.6457 32.3273 41.2307 33.7573 41.2307 35.2957C41.2307 38.784 38.3924 41.6007 34.9257 41.6007C31.4374 41.6007 28.5991 38.784 28.5991 35.2957C28.5991 33.324 29.5091 31.4823 31.0691 30.2907C31.2857 30.1173 31.3291 29.7923 31.1557 29.5757C30.9824 29.359 30.6574 29.3157 30.4407 29.489C28.6207 30.8973 27.5591 33.0207 27.5591 35.3173C27.5591 39.369 30.8524 42.6623 34.9041 42.6623C38.9557 42.6623 42.2491 39.369 42.2491 35.3173C42.2491 33.4757 41.5774 31.8073 40.4507 30.5073L43.6141 27.344L44.1774 27.9073L42.8774 29.6623C42.7474 29.8357 42.7474 30.074 42.8557 30.2473C43.4624 31.179 43.8741 32.219 44.1341 33.3023C44.1774 33.4973 44.3507 33.6707 44.5674 33.6923L46.7341 34.0173V36.6173L44.5674 36.9423C44.3507 36.9857 44.1774 37.1373 44.1341 37.3323C43.8957 38.4157 43.4624 39.4557 42.8557 40.3873C42.7474 40.5607 42.7474 40.799 42.8774 40.9723L44.1774 42.7273L43.1374 43.7673C42.9424 43.9623 42.9424 44.2873 43.1374 44.4823C43.3324 44.6773 43.6574 44.6773 43.8524 44.4823L45.1957 43.139C45.3691 42.9657 45.3907 42.684 45.2391 42.4673L43.8741 40.6257C44.3941 39.759 44.7624 38.849 45.0007 37.874L47.2541 37.549C47.5141 37.5057 47.6874 37.289 47.6874 37.0507V33.584C47.6657 33.3673 47.4924 33.1507 47.2324 33.1073ZM38.8041 35.339C38.8041 37.5057 37.0491 39.2607 34.8824 39.2607C32.7157 39.2607 30.9607 37.5057 30.9607 35.339C30.9607 33.1723 32.7157 31.4173 34.8824 31.4173C35.7924 31.4173 36.6157 31.7207 37.2657 32.219L36.2907 33.194C35.8791 32.934 35.4024 32.7607 34.8824 32.7607C33.4741 32.7607 32.3257 33.909 32.3257 35.3173C32.3257 36.7257 33.4741 37.874 34.8824 37.874C36.2907 37.874 37.4391 36.7257 37.4391 35.3173C37.4391 34.7973 37.2874 34.3207 37.0057 33.909L37.9807 32.9773C38.4791 33.6273 38.8041 34.4507 38.8041 35.339ZM36.3991 35.339C36.3991 36.184 35.7057 36.8773 34.8607 36.8773C34.0157 36.8773 33.3224 36.184 33.3224 35.339C33.3224 34.494 34.0157 33.8007 34.8607 33.8007C35.0991 33.8007 35.3157 33.8657 35.5107 33.9523L34.4924 34.9707C34.2974 35.1657 34.2974 35.4907 34.4924 35.6857C34.6007 35.794 34.7307 35.8373 34.8607 35.8373C34.9907 35.8373 35.1207 35.794 35.2291 35.6857L36.2474 34.6673C36.3341 34.884 36.3991 35.1007 36.3991 35.339Z" fill="#002680"/>
<path d="M47.2324 33.1073L44.9791 32.7823C44.7407 31.8073 44.3507 30.8973 43.8524 30.0307L45.2174 28.189C45.3691 27.994 45.3474 27.7123 45.1741 27.5173L44.3074 26.6507L45.3474 25.6107H47.1891C47.4707 25.6107 47.7091 25.3723 47.7091 25.0907C47.7091 24.809 47.4707 24.5707 47.1891 24.5707H45.6507V23.0323C45.6507 22.7507 45.4124 22.5123 45.1307 22.5123C44.8491 22.5123 44.6107 22.7507 44.6107 23.0323V24.874L43.5707 25.914L42.7041 25.0473C42.5307 24.874 42.2491 24.8523 42.0324 25.004L40.1907 26.369C39.3241 25.849 38.4141 25.4807 37.4607 25.2423L37.1357 22.989C37.0924 22.729 36.8757 22.5557 36.6374 22.5557H33.1707C32.9107 22.5557 32.6941 22.729 32.6724 22.989L32.3474 25.2423C31.3941 25.4807 30.4624 25.8707 29.6174 26.369L27.7757 25.004C27.5807 24.8523 27.2991 24.874 27.1041 25.0473L24.6557 27.4957C24.4824 27.669 24.4607 27.9507 24.6124 28.1673L25.9774 30.009C25.4574 30.854 25.0891 31.7857 24.8507 32.7607L22.5974 33.0857C22.3374 33.129 22.1641 33.3457 22.1641 33.584L22.1641 37.0507C22.1641 37.3107 22.3374 37.5273 22.5974 37.549L24.8507 37.874C25.0891 38.8273 25.4791 39.759 25.9774 40.6257L24.6124 42.4673C24.4607 42.6623 24.4824 42.944 24.6557 43.139L27.1041 45.5873C27.2774 45.7607 27.5591 45.7823 27.7757 45.6307L29.6174 44.2657C30.4841 44.7857 31.3941 45.154 32.3474 45.3923L32.6724 47.6457C32.7157 47.9057 32.9324 48.079 33.1707 48.079H36.6374C36.8974 48.079 37.1141 47.9057 37.1357 47.6457L37.4607 45.3923C38.4141 45.154 39.3457 44.764 40.1907 44.2657L41.3824 45.154C41.5991 45.3273 41.9241 45.2623 42.0974 45.0457C42.2707 44.829 42.2274 44.504 41.9891 44.3307L40.5157 43.2473C40.3424 43.1173 40.1041 43.1173 39.9307 43.2257C38.9991 43.8323 37.9591 44.2657 36.8757 44.4823C36.6807 44.5257 36.5074 44.699 36.4857 44.9157L36.1607 47.0823H33.5607L33.2357 44.9157C33.1924 44.699 33.0407 44.5257 32.8457 44.4823C31.7624 44.244 30.7224 43.8107 29.7907 43.2257C29.6174 43.1173 29.3791 43.1173 29.2057 43.2473L27.4507 44.5473L25.6091 42.7057L26.9091 40.9507C27.0391 40.7773 27.0391 40.539 26.9307 40.3657C26.3241 39.434 25.8907 38.394 25.6524 37.3107C25.6091 37.1157 25.4357 36.9423 25.2191 36.9207L23.0524 36.5957V33.9957L25.2191 33.6707C25.4357 33.6273 25.6091 33.4757 25.6524 33.2807C25.8907 32.1973 26.3241 31.1573 26.9307 30.2257C27.0391 30.0523 27.0391 29.814 26.9091 29.6407L25.6091 27.8857L27.4507 26.044L29.2057 27.344C29.3791 27.474 29.6174 27.474 29.7907 27.3657C30.7224 26.759 31.7624 26.3257 32.8457 26.109C33.0407 26.0657 33.2141 25.8923 33.2357 25.6757L33.5607 23.509H36.1607L36.4857 25.6757C36.5291 25.8923 36.6807 26.0657 36.8757 26.109C37.9591 26.3473 38.9991 26.7807 39.9307 27.3657C40.1041 27.474 40.3424 27.474 40.5157 27.344L42.2707 26.044L42.8341 26.6073L39.6707 29.7707C38.3707 28.644 36.7024 27.9723 34.8607 27.9723C34.1024 27.9723 33.3657 28.0807 32.6724 28.2973C32.3907 28.384 32.2391 28.6657 32.3474 28.9473C32.4341 29.2073 32.7157 29.3807 32.9974 29.2723C33.6041 29.0773 34.2541 28.9907 34.9041 28.9907C36.4641 28.9907 37.8941 29.554 38.9774 30.5073L38.0024 31.4823C37.1574 30.789 36.0741 30.3773 34.8824 30.3773C32.1524 30.3773 29.9424 32.5873 29.9424 35.3173C29.9424 38.0473 32.1741 40.2573 34.9041 40.2573C37.6341 40.2573 39.8441 38.0473 39.8441 35.3173C39.8441 34.1473 39.4324 33.0423 38.7391 32.1973L39.7141 31.2223C40.6457 32.3273 41.2307 33.7573 41.2307 35.2957C41.2307 38.784 38.3924 41.6007 34.9257 41.6007C31.4374 41.6007 28.5991 38.784 28.5991 35.2957C28.5991 33.324 29.5091 31.4823 31.0691 30.2907C31.2857 30.1173 31.3291 29.7923 31.1557 29.5757C30.9824 29.359 30.6574 29.3157 30.4407 29.489C28.6207 30.8973 27.5591 33.0207 27.5591 35.3173C27.5591 39.369 30.8524 42.6623 34.9041 42.6623C38.9557 42.6623 42.2491 39.369 42.2491 35.3173C42.2491 33.4757 41.5774 31.8073 40.4507 30.5073L43.6141 27.344L44.1774 27.9073L42.8774 29.6623C42.7474 29.8357 42.7474 30.074 42.8557 30.2473C43.4624 31.179 43.8741 32.219 44.1341 33.3023C44.1774 33.4973 44.3507 33.6707 44.5674 33.6923L46.7341 34.0173V36.6173L44.5674 36.9423C44.3507 36.9857 44.1774 37.1373 44.1341 37.3323C43.8957 38.4157 43.4624 39.4557 42.8557 40.3873C42.7474 40.5607 42.7474 40.799 42.8774 40.9723L44.1774 42.7273L43.1374 43.7673C42.9424 43.9623 42.9424 44.2873 43.1374 44.4823C43.3324 44.6773 43.6574 44.6773 43.8524 44.4823L45.1957 43.139C45.3691 42.9657 45.3907 42.684 45.2391 42.4673L43.8741 40.6257C44.3941 39.759 44.7624 38.849 45.0007 37.874L47.2541 37.549C47.5141 37.5057 47.6874 37.289 47.6874 37.0507V33.584C47.6657 33.3673 47.4924 33.1507 47.2324 33.1073ZM38.8041 35.339C38.8041 37.5057 37.0491 39.2607 34.8824 39.2607C32.7157 39.2607 30.9607 37.5057 30.9607 35.339C30.9607 33.1723 32.7157 31.4173 34.8824 31.4173C35.7924 31.4173 36.6157 31.7207 37.2657 32.219L36.2907 33.194C35.8791 32.934 35.4024 32.7607 34.8824 32.7607C33.4741 32.7607 32.3257 33.909 32.3257 35.3173C32.3257 36.7257 33.4741 37.874 34.8824 37.874C36.2907 37.874 37.4391 36.7257 37.4391 35.3173C37.4391 34.7973 37.2874 34.3207 37.0057 33.909L37.9807 32.9773C38.4791 33.6273 38.8041 34.4507 38.8041 35.339ZM36.3991 35.339C36.3991 36.184 35.7057 36.8773 34.8607 36.8773C34.0157 36.8773 33.3224 36.184 33.3224 35.339C33.3224 34.494 34.0157 33.8007 34.8607 33.8007C35.0991 33.8007 35.3157 33.8657 35.5107 33.9523L34.4924 34.9707C34.2974 35.1657 34.2974 35.4907 34.4924 35.6857C34.6007 35.794 34.7307 35.8373 34.8607 35.8373C34.9907 35.8373 35.1207 35.794 35.2291 35.6857L36.2474 34.6673C36.3341 34.884 36.3991 35.1007 36.3991 35.339Z" fill="url(#paint0_linear_5823_14375)"/>
<path d="M8.94703 8.0607C8.94703 8.42903 8.6437 8.73236 8.27536 8.73236C7.88536 8.73236 7.58203 8.42903 7.58203 8.0607C7.58203 7.69236 7.88536 7.38903 8.2537 7.38903C8.62203 7.36737 8.94703 7.6707 8.94703 8.0607Z" fill="#002680"/>
<path d="M11.6754 8.0607C11.6754 8.42903 11.372 8.73236 11.0037 8.73236C10.6354 8.73236 10.332 8.42903 10.332 8.0607C10.332 7.69236 10.6354 7.38903 11.0037 7.38903C11.3504 7.36737 11.6754 7.6707 11.6754 8.0607Z" fill="#002680"/>
<path d="M14.4058 8.0607C14.4058 8.42903 14.1025 8.73236 13.7342 8.73236C13.3658 8.73236 13.0625 8.42903 13.0625 8.0607C13.0625 7.69236 13.3658 7.38903 13.7342 7.38903C14.0808 7.36737 14.4058 7.6707 14.4058 8.0607Z" fill="#002680"/>
<path d="M19.0008 24.4406V13.5206C19.0008 13.2389 18.7625 13.0006 18.4808 13.0006L7.5825 13.0006C7.30083 13.0006 7.0625 13.2389 7.0625 13.5206L7.0625 24.4406C7.0625 24.7223 7.30083 24.9606 7.5825 24.9606H18.5025C18.7625 24.9389 19.0008 24.7006 19.0008 24.4406ZM17.9825 23.9206H8.08083L8.08083 14.0189L17.9825 14.0189V23.9206Z" fill="#002680"/>
<path d="M34.1878 15.7307L21.9028 15.7307C21.6211 15.7307 21.3828 15.969 21.3828 16.2507C21.3828 16.5324 21.6211 16.7707 21.9028 16.7707H34.1878C34.4695 16.7707 34.7078 16.5324 34.7078 16.2507C34.7078 15.969 34.4695 15.7307 34.1878 15.7307Z" fill="#002680"/>
<path d="M34.7078 19.6523C34.7078 19.3707 34.4695 19.1323 34.1878 19.1323H21.9028C21.6211 19.1323 21.3828 19.3707 21.3828 19.6523C21.3828 19.934 21.6211 20.1723 21.9028 20.1723H34.1878C34.4695 20.1723 34.7078 19.934 34.7078 19.6523Z" fill="#002680"/>
<path d="M29.9195 23.0541C29.9195 22.7724 29.6811 22.5341 29.3995 22.5341H21.9028C21.6211 22.5341 21.3828 22.7724 21.3828 23.0541C21.3828 23.3357 21.6211 23.5741 21.9028 23.5741H29.3995C29.6811 23.5741 29.9195 23.3357 29.9195 23.0541Z" fill="#002680"/>
<path d="M11.4379 22.144C11.5029 22.1873 11.5896 22.209 11.6762 22.209C11.7846 22.209 11.8712 22.1873 11.9579 22.1223L16.0529 19.3923C16.2046 19.3057 16.2696 19.1323 16.2696 18.959C16.2696 18.7857 16.1829 18.634 16.0529 18.5257L11.9579 15.8173C11.8062 15.709 11.5896 15.709 11.4379 15.7957C11.2646 15.8823 11.1562 16.0557 11.1562 16.2507V21.7107C11.1562 21.884 11.2646 22.0573 11.4379 22.144ZM12.1746 17.204L14.8396 18.9807L12.1746 20.7357V17.204Z" fill="#002680"/>
<path d="M11.6762 29.7274H22.5963C22.8779 29.7274 23.1163 29.489 23.1163 29.2074C23.1163 28.9257 22.8779 28.6874 22.5963 28.6874H11.6762C11.3946 28.6874 11.1562 28.9257 11.1562 29.2074C11.1563 29.489 11.3946 29.7274 11.6762 29.7274Z" fill="#002680"/>
<path d="M9.61917 31.0924C9.90083 31.0924 10.1392 30.8541 10.1392 30.5724V27.8424C10.1392 27.5607 9.90083 27.3224 9.61917 27.3224C9.3375 27.3224 9.09917 27.5607 9.09917 27.8424V28.6874H7.5825C7.30083 28.6874 7.0625 28.9257 7.0625 29.2074C7.0625 29.4891 7.30083 29.7274 7.5825 29.7274H9.09917V30.5724C9.09917 30.8541 9.3375 31.0924 9.61917 31.0924Z" fill="#002680"/>
<path d="M8.94703 8.0607C8.94703 8.42903 8.6437 8.73236 8.27536 8.73236C7.88536 8.73236 7.58203 8.42903 7.58203 8.0607C7.58203 7.69236 7.88536 7.38903 8.2537 7.38903C8.62203 7.36737 8.94703 7.6707 8.94703 8.0607Z" fill="url(#paint1_linear_5823_14375)"/>
<path d="M11.6754 8.0607C11.6754 8.42903 11.372 8.73236 11.0037 8.73236C10.6354 8.73236 10.332 8.42903 10.332 8.0607C10.332 7.69236 10.6354 7.38903 11.0037 7.38903C11.3504 7.36737 11.6754 7.6707 11.6754 8.0607Z" fill="url(#paint2_linear_5823_14375)"/>
<path d="M14.4058 8.0607C14.4058 8.42903 14.1025 8.73236 13.7342 8.73236C13.3658 8.73236 13.0625 8.42903 13.0625 8.0607C13.0625 7.69236 13.3658 7.38903 13.7342 7.38903C14.0808 7.36737 14.4058 7.6707 14.4058 8.0607Z" fill="url(#paint3_linear_5823_14375)"/>
<path d="M19.0008 24.4406V13.5206C19.0008 13.2389 18.7625 13.0006 18.4808 13.0006L7.5825 13.0006C7.30083 13.0006 7.0625 13.2389 7.0625 13.5206L7.0625 24.4406C7.0625 24.7223 7.30083 24.9606 7.5825 24.9606H18.5025C18.7625 24.9389 19.0008 24.7006 19.0008 24.4406ZM17.9825 23.9206H8.08083L8.08083 14.0189L17.9825 14.0189V23.9206Z" fill="url(#paint4_linear_5823_14375)"/>
<path d="M34.1878 15.7307L21.9028 15.7307C21.6211 15.7307 21.3828 15.969 21.3828 16.2507C21.3828 16.5324 21.6211 16.7707 21.9028 16.7707H34.1878C34.4695 16.7707 34.7078 16.5324 34.7078 16.2507C34.7078 15.969 34.4695 15.7307 34.1878 15.7307Z" fill="url(#paint5_linear_5823_14375)"/>
<path d="M34.7078 19.6523C34.7078 19.3707 34.4695 19.1323 34.1878 19.1323H21.9028C21.6211 19.1323 21.3828 19.3707 21.3828 19.6523C21.3828 19.934 21.6211 20.1723 21.9028 20.1723H34.1878C34.4695 20.1723 34.7078 19.934 34.7078 19.6523Z" fill="url(#paint6_linear_5823_14375)"/>
<path d="M29.9195 23.0541C29.9195 22.7724 29.6811 22.5341 29.3995 22.5341H21.9028C21.6211 22.5341 21.3828 22.7724 21.3828 23.0541C21.3828 23.3357 21.6211 23.5741 21.9028 23.5741H29.3995C29.6811 23.5741 29.9195 23.3357 29.9195 23.0541Z" fill="url(#paint7_linear_5823_14375)"/>
<path d="M11.4379 22.144C11.5029 22.1873 11.5896 22.209 11.6762 22.209C11.7846 22.209 11.8712 22.1873 11.9579 22.1223L16.0529 19.3923C16.2046 19.3057 16.2696 19.1323 16.2696 18.959C16.2696 18.7857 16.1829 18.634 16.0529 18.5257L11.9579 15.8173C11.8062 15.709 11.5896 15.709 11.4379 15.7957C11.2646 15.8823 11.1562 16.0557 11.1562 16.2507V21.7107C11.1562 21.884 11.2646 22.0573 11.4379 22.144ZM12.1746 17.204L14.8396 18.9807L12.1746 20.7357V17.204Z" fill="url(#paint8_linear_5823_14375)"/>
<path d="M11.6762 29.7274H22.5963C22.8779 29.7274 23.1163 29.489 23.1163 29.2074C23.1163 28.9257 22.8779 28.6874 22.5963 28.6874H11.6762C11.3946 28.6874 11.1562 28.9257 11.1562 29.2074C11.1563 29.489 11.3946 29.7274 11.6762 29.7274Z" fill="url(#paint9_linear_5823_14375)"/>
<path d="M9.61917 31.0924C9.90083 31.0924 10.1392 30.8541 10.1392 30.5724V27.8424C10.1392 27.5607 9.90083 27.3224 9.61917 27.3224C9.3375 27.3224 9.09917 27.5607 9.09917 27.8424V28.6874H7.5825C7.30083 28.6874 7.0625 28.9257 7.0625 29.2074C7.0625 29.4891 7.30083 29.7274 7.5825 29.7274H9.09917V30.5724C9.09917 30.8541 9.3375 31.0924 9.61917 31.0924Z" fill="url(#paint10_linear_5823_14375)"/>
<path d="M20.5387 33.4756H7.58203C6.3687 33.4756 5.37203 32.479 5.37203 31.2656L5.37203 15.4056C5.37203 15.124 5.1337 14.8856 4.85203 14.8856C4.57036 14.8856 4.33203 15.1023 4.33203 15.384L4.33203 31.244C4.33203 33.0423 5.7837 34.494 7.58203 34.494H20.5387C20.8204 34.494 21.0587 34.2556 21.0587 33.974C21.0587 33.714 20.8204 33.4756 20.5387 33.4756Z" fill="#002680"/>
<path d="M4.85203 13.5857C5.1337 13.5857 5.37203 13.3473 5.37203 13.0657V11.3107L38.4787 11.3107V24.1373C38.4787 24.419 38.717 24.6573 38.9987 24.6573C39.2804 24.6573 39.5187 24.419 39.5187 24.1373V8.06067C39.5187 6.26234 38.067 4.81067 36.2687 4.81067L7.58203 4.81067C5.7837 4.81067 4.33203 6.26234 4.33203 8.06067L4.33203 13.0657C4.33203 13.3473 4.57036 13.5857 4.85203 13.5857ZM5.35036 8.06067C5.35036 6.84734 6.34703 5.85067 7.56036 5.85067L36.2254 5.85067C37.4387 5.85067 38.4354 6.84734 38.4354 8.06067V10.2707L5.35036 10.2707L5.35036 8.06067Z" fill="#002680"/>
<defs>
<linearGradient id="paint0_linear_5823_14375" x1="48.6797" y1="23.1435" x2="26.4335" y2="42.6931" gradientUnits="userSpaceOnUse">
<stop stop-color="#10BEF0"/>
<stop offset="1" stop-color="#10BEF0" stop-opacity="0"/>
</linearGradient>
<linearGradient id="paint1_linear_5823_14375" x1="8.80338" y1="7.64448" x2="7.70878" y2="8.4598" gradientUnits="userSpaceOnUse">
<stop stop-color="#10BEF0"/>
<stop offset="1" stop-color="#10BEF0" stop-opacity="0"/>
</linearGradient>
<linearGradient id="paint2_linear_5823_14375" x1="11.5315" y1="7.64448" x2="10.4369" y2="8.4598" gradientUnits="userSpaceOnUse">
<stop stop-color="#10BEF0"/>
<stop offset="1" stop-color="#10BEF0" stop-opacity="0"/>
</linearGradient>
<linearGradient id="paint3_linear_5823_14375" x1="14.2615" y1="7.64448" x2="13.1671" y2="8.4598" gradientUnits="userSpaceOnUse">
<stop stop-color="#10BEF0"/>
<stop offset="1" stop-color="#10BEF0" stop-opacity="0"/>
</linearGradient>
<linearGradient id="paint4_linear_5823_14375" x1="19.5692" y1="14.1019" x2="6.49743" y2="23.84" gradientUnits="userSpaceOnUse">
<stop stop-color="#10BEF0"/>
<stop offset="1" stop-color="#10BEF0" stop-opacity="0"/>
</linearGradient>
<linearGradient id="paint5_linear_5823_14375" x1="32.4044" y1="12.9933" x2="23.6862" y2="19.4884" gradientUnits="userSpaceOnUse">
<stop stop-color="#10BEF0"/>
<stop offset="1" stop-color="#10BEF0" stop-opacity="0"/>
</linearGradient>
<linearGradient id="paint6_linear_5823_14375" x1="32.4042" y1="16.4056" x2="23.686" y2="22.9006" gradientUnits="userSpaceOnUse">
<stop stop-color="#10BEF0"/>
<stop offset="1" stop-color="#10BEF0" stop-opacity="0"/>
</linearGradient>
<linearGradient id="paint7_linear_5823_14375" x1="28.4799" y1="20.9617" x2="22.8338" y2="25.1681" gradientUnits="userSpaceOnUse">
<stop stop-color="#10BEF0"/>
<stop offset="1" stop-color="#10BEF0" stop-opacity="0"/>
</linearGradient>
<linearGradient id="paint8_linear_5823_14375" x1="14.7882" y1="16.8075" x2="10.0263" y2="20.355" gradientUnits="userSpaceOnUse">
<stop stop-color="#10BEF0"/>
<stop offset="1" stop-color="#10BEF0" stop-opacity="0"/>
</linearGradient>
<linearGradient id="paint9_linear_5823_14375" x1="21.0471" y1="26.2863" x2="13.2068" y2="32.1272" gradientUnits="userSpaceOnUse">
<stop stop-color="#10BEF0"/>
<stop offset="1" stop-color="#10BEF0" stop-opacity="0"/>
</linearGradient>
<linearGradient id="paint10_linear_5823_14375" x1="10.6457" y1="28.3633" x2="7.8568" y2="30.4409" gradientUnits="userSpaceOnUse">
<stop stop-color="#10BEF0"/>
<stop offset="1" stop-color="#10BEF0" stop-opacity="0"/>
</linearGradient>
</defs>
</svg>
