<svg width="52" height="53" viewBox="0 0 52 53" fill="none" xmlns="http://www.w3.org/2000/svg">
<path d="M37.6782 13.5398C37.9816 13.4748 38.1766 13.1931 38.1116 12.8898C37.3966 9.11977 34.1032 6.38977 30.2682 6.38977C29.9649 6.38977 29.7266 6.6281 29.7266 6.93144C29.7266 7.23477 29.9649 7.4731 30.2682 7.4731C33.5832 7.4731 36.4216 9.83477 37.0282 13.0848C37.0716 13.3448 37.3099 13.5398 37.5699 13.5398C37.6132 13.5398 37.6566 13.5398 37.6782 13.5398Z" fill="#002680"/>
<path d="M36.5306 28.0565L34.884 27.8182C34.7106 27.2332 34.4723 26.6482 34.1906 26.1282L35.1873 24.8065C35.339 24.5898 35.3173 24.2865 35.144 24.0915L32.4356 21.3832C32.2406 21.1882 31.9373 21.1665 31.7206 21.3398L30.3773 22.3365C29.8356 22.0548 29.2723 21.8165 28.6873 21.6432L28.449 19.9748C28.4056 19.7148 28.189 19.4982 27.9073 19.4982H24.0723C23.8123 19.4982 23.574 19.6932 23.5306 19.9748L23.2923 21.6215C22.7073 21.7948 22.144 22.0332 21.6023 22.3148L20.2806 21.3182C20.064 21.1665 19.7606 21.1882 19.5656 21.3615L16.879 24.0915C16.684 24.2865 16.6623 24.5898 16.8356 24.8065L17.8323 26.1282C17.5506 26.6482 17.3123 27.2332 17.139 27.8182L15.4923 28.0565C15.2323 28.0998 15.0156 28.3165 15.0156 28.5982V32.4332C15.0156 32.6932 15.2106 32.9315 15.4923 32.9748L17.1173 33.1915C17.2906 33.7982 17.529 34.3615 17.8106 34.8815L16.814 36.2032C16.6623 36.4198 16.684 36.7232 16.8573 36.9182L19.5656 39.6265C19.7606 39.8215 20.064 39.8432 20.2806 39.6698L21.6023 38.6948C22.144 38.9765 22.7073 39.2148 23.2923 39.3882L23.5306 41.0348C23.574 41.2948 23.7906 41.5115 24.0723 41.5115H27.9073C28.1673 41.5115 28.4056 41.3165 28.449 41.0348L28.6873 39.3665C29.2723 39.1932 29.8356 38.9548 30.3773 38.6732L31.7206 39.6698C31.9373 39.8215 32.2406 39.7998 32.4356 39.6265L35.144 36.9182C35.339 36.7232 35.3606 36.4198 35.1873 36.2032L34.1906 34.8815C34.4723 34.3615 34.7106 33.7982 34.884 33.1915L36.5306 32.9532C36.7906 32.9098 37.0073 32.6932 37.0073 32.4115V28.5765C37.0073 28.3165 36.8123 28.0998 36.5306 28.0565ZM35.9023 31.9565L34.3856 32.1732C34.169 32.1948 33.9956 32.3682 33.9306 32.5848C33.7356 33.3432 33.4323 34.0365 33.064 34.6648C32.9556 34.8598 32.9556 35.0982 33.0856 35.2715L34.0173 36.5065L31.9806 38.5432L30.7456 37.6115C30.5723 37.4815 30.334 37.4598 30.139 37.5682C29.4673 37.9582 28.774 38.2398 28.059 38.4348C27.8423 38.4998 27.6906 38.6732 27.6473 38.8898L27.4306 40.4282H24.549L24.3323 38.8898C24.3106 38.6732 24.1373 38.4998 23.9206 38.4348C23.2056 38.2398 22.4906 37.9582 21.8406 37.5682C21.6456 37.4598 21.4073 37.4815 21.234 37.6115L19.999 38.5432L17.9623 36.5065L18.894 35.2715C19.024 35.0982 19.0456 34.8598 18.9156 34.6648C18.5473 34.0365 18.244 33.3432 18.049 32.5848C17.984 32.3682 17.8106 32.2165 17.594 32.1732L16.0773 31.9565V29.0748L17.594 28.8582C17.8106 28.8365 17.984 28.6632 18.049 28.4465C18.244 27.7098 18.5256 26.9948 18.9156 26.3665C19.024 26.1715 19.024 25.9332 18.894 25.7598L17.9623 24.5248L19.999 22.4882L21.234 23.4198C21.4073 23.5498 21.6456 23.5715 21.8406 23.4632C22.4906 23.0732 23.184 22.7915 23.9206 22.5965C24.1373 22.5315 24.289 22.3582 24.3323 22.1415L24.549 20.6032H27.4306L27.6473 22.1415C27.669 22.3582 27.8423 22.5315 28.059 22.5965C28.7956 22.7915 29.489 23.0732 30.139 23.4632C30.334 23.5715 30.5723 23.5715 30.7456 23.4198L31.9806 22.4882L34.0173 24.5248L33.0856 25.7598C32.9556 25.9332 32.934 26.1715 33.064 26.3665C33.454 26.9948 33.7356 27.6882 33.9306 28.4465C33.9956 28.6632 34.169 28.8148 34.3856 28.8582L35.9023 29.0748V31.9565Z" fill="#002680"/>
<path d="M25.9996 25.6948C23.3346 25.6948 21.168 27.8615 21.168 30.5265C21.168 33.1915 23.3346 35.3365 25.9996 35.3365C28.6646 35.3365 30.8096 33.1698 30.8096 30.5265C30.8313 27.8398 28.6646 25.6948 25.9996 25.6948ZM25.9996 34.2532C23.9413 34.2532 22.2513 32.5848 22.2513 30.5265C22.2513 28.4682 23.9196 26.7782 25.9996 26.7782C28.058 26.7782 29.7263 28.4465 29.7263 30.5265C29.7263 32.5848 28.058 34.2532 25.9996 34.2532Z" fill="#002680"/>
<path d="M26.5441 43.8081V43.1581C26.5441 42.8548 26.3057 42.6165 26.0024 42.6165C25.6991 42.6165 25.4607 42.8548 25.4607 43.1581V43.8081C24.1607 44.0681 23.1641 45.2165 23.1641 46.6031C23.1641 48.1631 24.4424 49.4415 26.0024 49.4415C27.5624 49.4415 28.8407 48.1631 28.8407 46.6031C28.8407 45.2165 27.8657 44.0681 26.5441 43.8081ZM26.0024 48.3581C25.0491 48.3581 24.2474 47.5781 24.2474 46.6031C24.2474 45.6498 25.0274 44.8481 26.0024 44.8481C26.9557 44.8481 27.7574 45.6281 27.7574 46.6031C27.7574 47.5781 26.9557 48.3581 26.0024 48.3581Z" fill="#002680"/>
<path d="M40.9073 37.4381V30.5048C40.9073 30.2015 40.669 29.9631 40.3657 29.9631H38.8707C38.5673 29.9631 38.329 30.2015 38.329 30.5048C38.329 30.8081 38.5673 31.0465 38.8707 31.0465H39.824V37.4381C38.524 37.6981 37.5273 38.8465 37.5273 40.2331C37.5273 41.7931 38.8057 43.0715 40.3657 43.0715C41.9257 43.0715 43.204 41.7931 43.204 40.2331C43.204 38.8465 42.2073 37.6981 40.9073 37.4381ZM40.3657 41.9881C39.4123 41.9881 38.6107 41.2081 38.6107 40.2331C38.6107 39.2581 39.3907 38.4781 40.3657 38.4781C41.3407 38.4781 42.1207 39.2581 42.1207 40.2331C42.1207 41.2081 41.319 41.9881 40.3657 41.9881Z" fill="#002680"/>
<path d="M12.1985 37.4381V31.0465H13.3685C13.6719 31.0465 13.9102 30.8081 13.9102 30.5048C13.9102 30.2015 13.6719 29.9631 13.3685 29.9631H11.6352C11.3319 29.9631 11.0935 30.2015 11.0935 30.5048V37.4381C9.79354 37.6981 8.79687 38.8465 8.79687 40.2331C8.79687 41.7931 10.0752 43.0715 11.6352 43.0715C13.1952 43.0715 14.4735 41.7931 14.4735 40.2331C14.4735 38.8465 13.4985 37.6981 12.1985 37.4381ZM11.6352 41.9881C10.6819 41.9881 9.88021 41.2081 9.88021 40.2331C9.88021 39.2581 10.6602 38.4781 11.6352 38.4781C12.6102 38.4781 13.3902 39.2581 13.3902 40.2331C13.3902 41.2081 12.6102 41.9881 11.6352 41.9881Z" fill="#002680"/>
<path d="M26.5441 43.8081V43.1581C26.5441 42.8548 26.3057 42.6165 26.0024 42.6165C25.6991 42.6165 25.4607 42.8548 25.4607 43.1581V43.8081C24.1607 44.0681 23.1641 45.2165 23.1641 46.6031C23.1641 48.1631 24.4424 49.4415 26.0024 49.4415C27.5624 49.4415 28.8407 48.1631 28.8407 46.6031C28.8407 45.2165 27.8657 44.0681 26.5441 43.8081ZM26.0024 48.3581C25.0491 48.3581 24.2474 47.5781 24.2474 46.6031C24.2474 45.6498 25.0274 44.8481 26.0024 44.8481C26.9557 44.8481 27.7574 45.6281 27.7574 46.6031C27.7574 47.5781 26.9557 48.3581 26.0024 48.3581Z" fill="url(#paint0_linear_5823_14402)"/>
<path d="M40.9073 37.4381V30.5048C40.9073 30.2015 40.669 29.9631 40.3657 29.9631H38.8707C38.5673 29.9631 38.329 30.2015 38.329 30.5048C38.329 30.8081 38.5673 31.0465 38.8707 31.0465H39.824V37.4381C38.524 37.6981 37.5273 38.8465 37.5273 40.2331C37.5273 41.7931 38.8057 43.0715 40.3657 43.0715C41.9257 43.0715 43.204 41.7931 43.204 40.2331C43.204 38.8465 42.2073 37.6981 40.9073 37.4381ZM40.3657 41.9881C39.4123 41.9881 38.6107 41.2081 38.6107 40.2331C38.6107 39.2581 39.3907 38.4781 40.3657 38.4781C41.3407 38.4781 42.1207 39.2581 42.1207 40.2331C42.1207 41.2081 41.319 41.9881 40.3657 41.9881Z" fill="url(#paint1_linear_5823_14402)"/>
<path d="M12.1985 37.4381V31.0465H13.3685C13.6719 31.0465 13.9102 30.8081 13.9102 30.5048C13.9102 30.2015 13.6719 29.9631 13.3685 29.9631H11.6352C11.3319 29.9631 11.0935 30.2015 11.0935 30.5048V37.4381C9.79354 37.6981 8.79687 38.8465 8.79687 40.2331C8.79687 41.7931 10.0752 43.0715 11.6352 43.0715C13.1952 43.0715 14.4735 41.7931 14.4735 40.2331C14.4735 38.8465 13.4985 37.6981 12.1985 37.4381ZM11.6352 41.9881C10.6819 41.9881 9.88021 41.2081 9.88021 40.2331C9.88021 39.2581 10.6602 38.4781 11.6352 38.4781C12.6102 38.4781 13.3902 39.2581 13.3902 40.2331C13.3902 41.2081 12.6102 41.9881 11.6352 41.9881Z" fill="url(#paint2_linear_5823_14402)"/>
<path d="M37.6782 13.5398C37.9816 13.4748 38.1766 13.1931 38.1116 12.8898C37.3966 9.11977 34.1032 6.38977 30.2682 6.38977C29.9649 6.38977 29.7266 6.6281 29.7266 6.93144C29.7266 7.23477 29.9649 7.4731 30.2682 7.4731C33.5832 7.4731 36.4216 9.83477 37.0282 13.0848C37.0716 13.3448 37.3099 13.5398 37.5699 13.5398C37.6132 13.5398 37.6566 13.5398 37.6782 13.5398Z" fill="url(#paint3_linear_5823_14402)"/>
<path d="M41.3189 12.0015C40.2139 6.8015 35.6205 3.07483 30.2689 3.07483C26.3905 3.07483 22.7939 5.08983 20.7139 8.3615C20.0422 8.14483 19.3489 8.0365 18.6555 8.0365C14.6472 8.0365 11.3972 11.2865 11.3972 15.2948V15.3165C8.16885 15.8148 5.74219 18.6098 5.74219 21.9032C5.74219 25.5865 8.73219 28.5765 12.4155 28.5765H13.3689C13.6722 28.5765 13.9105 28.3382 13.9105 28.0348C13.9105 27.7315 13.6722 27.4932 13.3689 27.4932H12.3939C9.31719 27.4932 6.82552 25.0015 6.82552 21.9248C6.82552 19.0215 9.10052 16.5732 12.0039 16.3782C12.1555 16.3782 12.2855 16.2915 12.3722 16.1832C12.4589 16.0748 12.5022 15.9232 12.5022 15.7715C12.4805 15.6198 12.4805 15.4898 12.4805 15.3382C12.4805 11.9365 15.2539 9.16316 18.6555 9.16316C19.3705 9.16316 20.0855 9.29316 20.8005 9.55316C21.0389 9.63983 21.3422 9.55316 21.4722 9.31483C23.2922 6.1515 26.6722 4.2015 30.3122 4.2015C35.2089 4.2015 39.4339 7.68983 40.3222 12.5215C40.3655 12.6948 40.4739 12.8465 40.6255 12.9332C43.3772 14.1465 45.1755 16.8982 45.1755 19.9098C45.1755 23.7015 42.3372 26.9515 38.5889 27.4715C38.2855 27.5148 38.0689 27.7748 38.1122 28.0782C38.1555 28.3815 38.4372 28.5982 38.7189 28.5548C43.0305 27.9698 46.2589 24.2648 46.2589 19.9315C46.2589 16.5082 44.3305 13.4532 41.3189 12.0015Z" fill="url(#paint4_linear_5823_14402)"/>
<path d="M41.3189 12.0015C40.2139 6.8015 35.6205 3.07483 30.2689 3.07483C26.3905 3.07483 22.7939 5.08983 20.7139 8.3615C20.0422 8.14483 19.3489 8.0365 18.6555 8.0365C14.6472 8.0365 11.3972 11.2865 11.3972 15.2948V15.3165C8.16885 15.8148 5.74219 18.6098 5.74219 21.9032C5.74219 25.5865 8.73219 28.5765 12.4155 28.5765H13.3689C13.6722 28.5765 13.9105 28.3382 13.9105 28.0348C13.9105 27.7315 13.6722 27.4932 13.3689 27.4932H12.3939C9.31719 27.4932 6.82552 25.0015 6.82552 21.9248C6.82552 19.0215 9.10052 16.5732 12.0039 16.3782C12.1555 16.3782 12.2855 16.2915 12.3722 16.1832C12.4589 16.0748 12.5022 15.9232 12.5022 15.7715C12.4805 15.6198 12.4805 15.4898 12.4805 15.3382C12.4805 11.9365 15.2539 9.16316 18.6555 9.16316C19.3705 9.16316 20.0855 9.29316 20.8005 9.55316C21.0389 9.63983 21.3422 9.55316 21.4722 9.31483C23.2922 6.1515 26.6722 4.2015 30.3122 4.2015C35.2089 4.2015 39.4339 7.68983 40.3222 12.5215C40.3655 12.6948 40.4739 12.8465 40.6255 12.9332C43.3772 14.1465 45.1755 16.8982 45.1755 19.9098C45.1755 23.7015 42.3372 26.9515 38.5889 27.4715C38.2855 27.5148 38.0689 27.7748 38.1122 28.0782C38.1555 28.3815 38.4372 28.5982 38.7189 28.5548C43.0305 27.9698 46.2589 24.2648 46.2589 19.9315C46.2589 16.5082 44.3305 13.4532 41.3189 12.0015Z" fill="#002680"/>
<path d="M37.6782 13.5398C37.9816 13.4748 38.1766 13.1931 38.1116 12.8898C37.3966 9.11977 34.1032 6.38977 30.2682 6.38977C29.9649 6.38977 29.7266 6.6281 29.7266 6.93144C29.7266 7.23477 29.9649 7.4731 30.2682 7.4731C33.5832 7.4731 36.4216 9.83477 37.0282 13.0848C37.0716 13.3448 37.3099 13.5398 37.5699 13.5398C37.6132 13.5398 37.6566 13.5398 37.6782 13.5398Z" fill="url(#paint5_linear_5823_14402)"/>
<path d="M41.3189 12.0015C40.2139 6.8015 35.6205 3.07483 30.2689 3.07483C26.3905 3.07483 22.7939 5.08983 20.7139 8.3615C20.0422 8.14483 19.3489 8.0365 18.6555 8.0365C14.6472 8.0365 11.3972 11.2865 11.3972 15.2948V15.3165C8.16885 15.8148 5.74219 18.6098 5.74219 21.9032C5.74219 25.5865 8.73219 28.5765 12.4155 28.5765H13.3689C13.6722 28.5765 13.9105 28.3382 13.9105 28.0348C13.9105 27.7315 13.6722 27.4932 13.3689 27.4932H12.3939C9.31719 27.4932 6.82552 25.0015 6.82552 21.9248C6.82552 19.0215 9.10052 16.5732 12.0039 16.3782C12.1555 16.3782 12.2855 16.2915 12.3722 16.1832C12.4589 16.0748 12.5022 15.9232 12.5022 15.7715C12.4805 15.6198 12.4805 15.4898 12.4805 15.3382C12.4805 11.9365 15.2539 9.16316 18.6555 9.16316C19.3705 9.16316 20.0855 9.29316 20.8005 9.55316C21.0389 9.63983 21.3422 9.55316 21.4722 9.31483C23.2922 6.1515 26.6722 4.2015 30.3122 4.2015C35.2089 4.2015 39.4339 7.68983 40.3222 12.5215C40.3655 12.6948 40.4739 12.8465 40.6255 12.9332C43.3772 14.1465 45.1755 16.8982 45.1755 19.9098C45.1755 23.7015 42.3372 26.9515 38.5889 27.4715C38.2855 27.5148 38.0689 27.7748 38.1122 28.0782C38.1555 28.3815 38.4372 28.5982 38.7189 28.5548C43.0305 27.9698 46.2589 24.2648 46.2589 19.9315C46.2589 16.5082 44.3305 13.4532 41.3189 12.0015Z" fill="url(#paint6_linear_5823_14402)"/>
<defs>
<linearGradient id="paint0_linear_5823_14402" x1="25.8958" y1="56.1499" x2="26.1816" y2="30.5615" gradientUnits="userSpaceOnUse">
<stop stop-color="#10BEF0"/>
<stop offset="1" stop-color="#10BEF0" stop-opacity="0"/>
</linearGradient>
<linearGradient id="paint1_linear_5823_14402" x1="40.1785" y1="56.3096" x2="40.4645" y2="30.7213" gradientUnits="userSpaceOnUse">
<stop stop-color="#10BEF0"/>
<stop offset="1" stop-color="#10BEF0" stop-opacity="0"/>
</linearGradient>
<linearGradient id="paint2_linear_5823_14402" x1="11.4666" y1="55.9887" x2="11.7526" y2="30.4004" gradientUnits="userSpaceOnUse">
<stop stop-color="#10BEF0"/>
<stop offset="1" stop-color="#10BEF0" stop-opacity="0"/>
</linearGradient>
<linearGradient id="paint3_linear_5823_14402" x1="29.7389" y1="9.96174" x2="38.133" y2="9.96174" gradientUnits="userSpaceOnUse">
<stop stop-color="#10BEF0"/>
<stop offset="1" stop-color="#10BEF0" stop-opacity="0"/>
</linearGradient>
<linearGradient id="paint4_linear_5823_14402" x1="5.73504" y1="15.8261" x2="46.266" y2="15.8261" gradientUnits="userSpaceOnUse">
<stop stop-color="#10BEF0"/>
<stop offset="1" stop-color="#10BEF0" stop-opacity="0"/>
</linearGradient>
<linearGradient id="paint5_linear_5823_14402" x1="29.7389" y1="9.96174" x2="38.133" y2="9.96174" gradientUnits="userSpaceOnUse">
<stop stop-color="#10BEF0"/>
<stop offset="1" stop-color="#10BEF0" stop-opacity="0"/>
</linearGradient>
<linearGradient id="paint6_linear_5823_14402" x1="5.73504" y1="15.8261" x2="46.266" y2="15.8261" gradientUnits="userSpaceOnUse">
<stop stop-color="#10BEF0"/>
<stop offset="1" stop-color="#10BEF0" stop-opacity="0"/>
</linearGradient>
</defs>
</svg>
