<svg width="52" height="52" viewBox="0 0 52 52" fill="none" xmlns="http://www.w3.org/2000/svg">
<path d="M18.9782 7.1934C18.9349 7.15006 18.8482 7.10673 18.7832 7.0634C18.6099 6.9984 18.4366 6.9984 18.2849 7.0634C18.1982 7.10673 18.1116 7.15006 18.0466 7.1934C17.9816 7.28007 17.9382 7.34507 17.9166 7.43173C17.8732 7.49673 17.8516 7.5834 17.8516 7.67007C17.8516 7.75673 17.8732 7.8434 17.9166 7.9084C17.9599 7.99507 18.0032 8.06007 18.0682 8.12507C18.1332 8.19007 18.1982 8.2334 18.2849 8.25506C18.3716 8.27673 18.4582 8.32006 18.5449 8.32006C18.6316 8.32006 18.7182 8.2984 18.8049 8.25506C18.8482 8.2334 18.9349 8.19007 18.9782 8.12507C19.0432 8.06007 19.0866 7.99507 19.1299 7.9084C19.1732 7.8434 19.1949 7.73507 19.1949 7.67007C19.1949 7.60507 19.1732 7.49673 19.1299 7.43173C19.0866 7.34507 19.0649 7.2584 18.9782 7.1934Z" fill="#002680"/>
<path d="M47.7311 36.8117L47.7311 16.2717C47.7311 14.4517 46.2578 12.9784 44.4378 12.9784H42.2928V10.4217V10.4V6.89004C42.2928 5.43837 41.1228 4.2467 39.6494 4.2467L12.3494 4.2467C10.8978 4.2467 9.70609 5.4167 9.70609 6.89004V10.4217V10.4434V12.9784H7.53943C5.71943 12.9784 4.24609 14.4517 4.24609 16.2717L4.24609 36.8334C4.24609 36.8334 4.24609 36.8334 4.24609 36.855L4.24609 38.9567C4.24609 40.7767 5.71943 42.25 7.53943 42.25H20.9511L18.6111 46.4317H15.1444C14.7761 46.4317 14.4944 46.735 14.4944 47.0817C14.4944 47.4284 14.7978 47.7317 15.1444 47.7317H19.0011H32.9978L36.8544 47.7317C37.2228 47.7317 37.5044 47.4284 37.5044 47.0817C37.5044 46.735 37.2011 46.4317 36.8544 46.4317H33.3878L31.0478 42.25L44.4594 42.25C46.2794 42.25 47.7528 40.7767 47.7528 38.9567V36.8334C47.7311 36.8117 47.7311 36.8117 47.7311 36.8117ZM46.4094 16.2717L46.4094 36.1617H42.2711L42.2711 26.1734V14.3H44.4161C45.5211 14.3 46.4094 15.1884 46.4094 16.2717ZM11.0278 11.0717L40.9711 11.0717V13.5417C40.9711 13.5634 40.9711 13.6067 40.9711 13.6284L40.9711 36.1617H11.0278L11.0278 11.0717ZM11.0278 6.89004C11.0278 6.15337 11.6128 5.56837 12.3494 5.56837L39.6494 5.56837C40.3861 5.56837 40.9711 6.15337 40.9711 6.89004V9.7717L11.0278 9.7717V6.89004ZM7.53943 14.3H9.70609L9.70609 36.1834H5.56776L5.56776 16.2717C5.56776 15.1884 6.45609 14.3 7.53943 14.3ZM31.8711 46.41H20.1278L22.4678 42.2284H29.5311L31.8711 46.41ZM46.4311 38.935C46.4311 40.0184 45.5428 40.9067 44.4594 40.9067L29.8994 40.9067H22.0778H7.56109C6.47776 40.9067 5.58943 40.0184 5.58943 38.935L5.58943 37.4834H10.3778L41.6428 37.4834H46.4311V38.935Z" fill="#002680"/>
<path d="M13.7126 7.1934C13.6476 7.15006 13.5826 7.10673 13.4959 7.0634C13.3443 6.9984 13.1493 6.9984 12.9976 7.0634C12.9109 7.10673 12.8459 7.15006 12.7809 7.1934C12.7159 7.2584 12.6726 7.3234 12.6293 7.41007C12.6076 7.49673 12.5859 7.5834 12.5859 7.67007C12.5859 7.75673 12.6076 7.8434 12.6509 7.9084C12.6943 7.99507 12.7376 8.06007 12.8026 8.12507C12.8459 8.19007 12.9109 8.2334 12.9976 8.27673C13.0843 8.32007 13.1709 8.34173 13.2576 8.34173C13.3443 8.34173 13.4309 8.32007 13.4959 8.27673C13.5826 8.2334 13.6476 8.19007 13.7126 8.12507C13.7776 8.06007 13.8209 7.99507 13.8643 7.9084C13.9076 7.8434 13.9293 7.73507 13.9293 7.67007C13.9293 7.60507 13.8859 7.49673 13.8426 7.43173C13.8426 7.34507 13.7776 7.2584 13.7126 7.1934Z" fill="#002680"/>
<path d="M16.3571 7.1934C16.2921 7.15006 16.2271 7.10673 16.1405 7.0634C15.9671 6.9984 15.7938 6.9984 15.6421 7.0634C15.5555 7.10673 15.4905 7.15006 15.4255 7.1934C15.3605 7.2584 15.3171 7.3234 15.2738 7.41007C15.2305 7.49673 15.2305 7.5834 15.2305 7.67007C15.2305 7.75673 15.2521 7.8434 15.2955 7.9084C15.3388 7.99507 15.3821 8.06007 15.4471 8.12507C15.5771 8.25507 15.7288 8.32006 15.9238 8.32006C16.0105 8.32006 16.0971 8.2984 16.1621 8.25506C16.2488 8.21173 16.3138 8.19007 16.3788 8.12507C16.4438 8.06007 16.4871 7.99507 16.5305 7.9084C16.5738 7.8434 16.5955 7.73507 16.5955 7.67007C16.5955 7.5834 16.5738 7.49673 16.5305 7.43173C16.4655 7.34507 16.4221 7.2584 16.3571 7.1934Z" fill="#002680"/>
<path d="M38.7404 6.99841L27.9938 6.99841C27.6254 6.99841 27.3438 7.30175 27.3438 7.64841C27.3438 8.01675 27.6471 8.29841 27.9938 8.29841L38.7404 8.29841C39.1087 8.29841 39.3904 7.99508 39.3904 7.64841C39.3904 7.30175 39.1087 6.99841 38.7404 6.99841Z" fill="#002680"/>
<path d="M16.2927 19.4784C16.5094 19.4784 16.7477 19.3701 16.856 19.1534C17.051 18.8501 16.9427 18.4384 16.6394 18.2651L14.5594 17.0517L16.6394 15.8384C16.9644 15.6434 17.051 15.2534 16.8777 14.9501C16.6827 14.6251 16.271 14.5167 15.9677 14.7117L12.9127 16.4884C12.7177 16.5967 12.6094 16.8134 12.6094 17.0517C12.6094 17.2901 12.7394 17.5067 12.9344 17.6151L15.9894 19.3917C16.076 19.4567 16.1844 19.4784 16.2927 19.4784Z" fill="#002680"/>
<path d="M22.6831 19.1534C22.8131 19.3701 23.0297 19.4784 23.2464 19.4784C23.3547 19.4784 23.4631 19.4567 23.5714 19.3917L26.6264 17.6151C26.8214 17.5067 26.9514 17.2684 26.9514 17.0517C26.9514 16.8134 26.8214 16.5967 26.6264 16.4884L23.5714 14.7117C23.2464 14.5167 22.8564 14.6467 22.6831 14.9501C22.4881 15.2751 22.6181 15.6651 22.9214 15.8384L25.0014 17.0517L22.9214 18.2651C22.5964 18.4384 22.4881 18.8501 22.6831 19.1534Z" fill="#002680"/>
<path d="M17.6376 21.58C17.7242 21.6233 17.8326 21.645 17.9192 21.645C18.1576 21.645 18.3959 21.515 18.5259 21.2766L22.2526 13.39C22.4042 13.065 22.2742 12.675 21.9276 12.5016C21.5809 12.3283 21.1909 12.5017 21.0392 12.8267L17.3126 20.6916C17.1609 21.0383 17.2909 21.4283 17.6376 21.58Z" fill="#002680"/>
<path d="M13.2383 24.1367C13.2383 24.505 13.5416 24.7867 13.8883 24.7867L38.0899 24.7867C38.4583 24.7867 38.7399 24.4834 38.7399 24.1367C38.7399 23.79 38.4366 23.4867 38.0899 23.4867L13.9099 23.4867C13.5416 23.4867 13.2383 23.79 13.2383 24.1367Z" fill="#002680"/>
<path d="M38.0881 26.65H31.9781C31.6098 26.65 31.3281 26.9534 31.3281 27.3C31.3281 27.6684 31.6315 27.95 31.9781 27.95H38.0881C38.4565 27.95 38.7381 27.6467 38.7381 27.3C38.7598 26.9534 38.4565 26.65 38.0881 26.65Z" fill="#002680"/>
<path d="M28.9246 27.3218C28.9246 26.9534 28.6213 26.6718 28.2746 26.6718H20.193C19.8246 26.6718 19.543 26.9751 19.543 27.3218C19.543 27.6901 19.8463 27.9718 20.193 27.9718H28.253C28.6213 27.9718 28.9246 27.6901 28.9246 27.3218Z" fill="#002680"/>
<path d="M13.9089 27.9718H16.7039C17.0722 27.9718 17.3539 27.6684 17.3539 27.3218C17.3539 26.9534 17.0506 26.6718 16.7039 26.6718H13.9089C13.5406 26.6718 13.2589 26.9751 13.2589 27.3218C13.2372 27.6901 13.5406 27.9718 13.9089 27.9718Z" fill="#002680"/>
<path d="M38.0887 29.8134H27.732C27.3637 29.8134 27.082 30.1167 27.082 30.4634C27.082 30.81 27.3854 31.1134 27.732 31.1134H38.1104C38.4787 31.1134 38.7604 30.81 38.7604 30.4634C38.7604 30.1167 38.457 29.8134 38.0887 29.8134Z" fill="#002680"/>
<path d="M13.9078 31.1351H24.8278C25.1961 31.1351 25.4778 30.8317 25.4778 30.4851C25.4778 30.1384 25.1745 29.8351 24.8278 29.8351H13.9078C13.5395 29.8351 13.2578 30.1384 13.2578 30.4851C13.2578 30.8317 13.5395 31.1351 13.9078 31.1351Z" fill="#002680"/>
<path d="M38.0879 32.9984H24.8063C24.4379 32.9984 24.1562 33.3017 24.1562 33.6484C24.1562 33.9951 24.4596 34.2984 24.8063 34.2984H38.0879C38.4563 34.2984 38.7379 33.9951 38.7379 33.6484C38.7379 33.3017 38.4563 32.9984 38.0879 32.9984Z" fill="#002680"/>
<path d="M20.5161 32.9984H13.9078C13.5395 32.9984 13.2578 33.3017 13.2578 33.6484C13.2578 33.9951 13.5611 34.2984 13.9078 34.2984H20.5161C20.8845 34.2984 21.1661 33.9951 21.1661 33.6484C21.1661 33.3017 20.8845 32.9984 20.5161 32.9984Z" fill="#002680"/>
<path d="M18.9782 7.1934C18.9349 7.15006 18.8482 7.10673 18.7832 7.0634C18.6099 6.9984 18.4366 6.9984 18.2849 7.0634C18.1982 7.10673 18.1116 7.15006 18.0466 7.1934C17.9816 7.28007 17.9382 7.34507 17.9166 7.43173C17.8732 7.49673 17.8516 7.5834 17.8516 7.67007C17.8516 7.75673 17.8732 7.8434 17.9166 7.9084C17.9599 7.99507 18.0032 8.06007 18.0682 8.12507C18.1332 8.19007 18.1982 8.2334 18.2849 8.25506C18.3716 8.27673 18.4582 8.32006 18.5449 8.32006C18.6316 8.32006 18.7182 8.2984 18.8049 8.25506C18.8482 8.2334 18.9349 8.19007 18.9782 8.12507C19.0432 8.06007 19.0866 7.99507 19.1299 7.9084C19.1732 7.8434 19.1949 7.73507 19.1949 7.67007C19.1949 7.60507 19.1732 7.49673 19.1299 7.43173C19.0866 7.34507 19.0649 7.2584 18.9782 7.1934Z" fill="url(#paint0_linear_5823_14423)"/>
<path d="M13.7126 7.1934C13.6476 7.15006 13.5826 7.10673 13.4959 7.0634C13.3443 6.9984 13.1493 6.9984 12.9976 7.0634C12.9109 7.10673 12.8459 7.15006 12.7809 7.1934C12.7159 7.2584 12.6726 7.3234 12.6293 7.41007C12.6076 7.49673 12.5859 7.5834 12.5859 7.67007C12.5859 7.75673 12.6076 7.8434 12.6509 7.9084C12.6943 7.99507 12.7376 8.06007 12.8026 8.12507C12.8459 8.19007 12.9109 8.2334 12.9976 8.27673C13.0843 8.32007 13.1709 8.34173 13.2576 8.34173C13.3443 8.34173 13.4309 8.32007 13.4959 8.27673C13.5826 8.2334 13.6476 8.19007 13.7126 8.12507C13.7776 8.06007 13.8209 7.99507 13.8643 7.9084C13.9076 7.8434 13.9293 7.73507 13.9293 7.67007C13.9293 7.60507 13.8859 7.49673 13.8426 7.43173C13.8426 7.34507 13.7776 7.2584 13.7126 7.1934Z" fill="url(#paint1_linear_5823_14423)"/>
<path d="M16.3571 7.1934C16.2921 7.15006 16.2271 7.10673 16.1405 7.0634C15.9671 6.9984 15.7938 6.9984 15.6421 7.0634C15.5555 7.10673 15.4905 7.15006 15.4255 7.1934C15.3605 7.2584 15.3171 7.3234 15.2738 7.41007C15.2305 7.49673 15.2305 7.5834 15.2305 7.67007C15.2305 7.75673 15.2521 7.8434 15.2955 7.9084C15.3388 7.99507 15.3821 8.06007 15.4471 8.12507C15.5771 8.25507 15.7288 8.32006 15.9238 8.32006C16.0105 8.32006 16.0971 8.2984 16.1621 8.25506C16.2488 8.21173 16.3138 8.19007 16.3788 8.12507C16.4438 8.06007 16.4871 7.99507 16.5305 7.9084C16.5738 7.8434 16.5955 7.73507 16.5955 7.67007C16.5955 7.5834 16.5738 7.49673 16.5305 7.43173C16.4655 7.34507 16.4221 7.2584 16.3571 7.1934Z" fill="url(#paint2_linear_5823_14423)"/>
<path d="M38.7404 6.99841L27.9938 6.99841C27.6254 6.99841 27.3438 7.30175 27.3438 7.64841C27.3438 8.01675 27.6471 8.29841 27.9938 8.29841L38.7404 8.29841C39.1087 8.29841 39.3904 7.99508 39.3904 7.64841C39.3904 7.30175 39.1087 6.99841 38.7404 6.99841Z" fill="url(#paint3_linear_5823_14423)"/>
<path d="M16.2927 19.4784C16.5094 19.4784 16.7477 19.3701 16.856 19.1534C17.051 18.8501 16.9427 18.4384 16.6394 18.2651L14.5594 17.0517L16.6394 15.8384C16.9644 15.6434 17.051 15.2534 16.8777 14.9501C16.6827 14.6251 16.271 14.5167 15.9677 14.7117L12.9127 16.4884C12.7177 16.5967 12.6094 16.8134 12.6094 17.0517C12.6094 17.2901 12.7394 17.5067 12.9344 17.6151L15.9894 19.3917C16.076 19.4567 16.1844 19.4784 16.2927 19.4784Z" fill="url(#paint4_linear_5823_14423)"/>
<path d="M22.6831 19.1534C22.8131 19.3701 23.0297 19.4784 23.2464 19.4784C23.3547 19.4784 23.4631 19.4567 23.5714 19.3917L26.6264 17.6151C26.8214 17.5067 26.9514 17.2684 26.9514 17.0517C26.9514 16.8134 26.8214 16.5967 26.6264 16.4884L23.5714 14.7117C23.2464 14.5167 22.8564 14.6467 22.6831 14.9501C22.4881 15.2751 22.6181 15.6651 22.9214 15.8384L25.0014 17.0517L22.9214 18.2651C22.5964 18.4384 22.4881 18.8501 22.6831 19.1534Z" fill="url(#paint5_linear_5823_14423)"/>
<path d="M17.6376 21.58C17.7242 21.6233 17.8326 21.645 17.9192 21.645C18.1576 21.645 18.3959 21.515 18.5259 21.2766L22.2526 13.39C22.4042 13.065 22.2742 12.675 21.9276 12.5016C21.5809 12.3283 21.1909 12.5017 21.0392 12.8267L17.3126 20.6916C17.1609 21.0383 17.2909 21.4283 17.6376 21.58Z" fill="url(#paint6_linear_5823_14423)"/>
<path d="M13.2383 24.1367C13.2383 24.505 13.5416 24.7867 13.8883 24.7867L38.0899 24.7867C38.4583 24.7867 38.7399 24.4834 38.7399 24.1367C38.7399 23.79 38.4366 23.4867 38.0899 23.4867L13.9099 23.4867C13.5416 23.4867 13.2383 23.79 13.2383 24.1367Z" fill="url(#paint7_linear_5823_14423)"/>
<path d="M38.0881 26.65H31.9781C31.6098 26.65 31.3281 26.9534 31.3281 27.3C31.3281 27.6684 31.6315 27.95 31.9781 27.95H38.0881C38.4565 27.95 38.7381 27.6467 38.7381 27.3C38.7598 26.9534 38.4565 26.65 38.0881 26.65Z" fill="url(#paint8_linear_5823_14423)"/>
<path d="M28.9246 27.3218C28.9246 26.9534 28.6213 26.6718 28.2746 26.6718H20.193C19.8246 26.6718 19.543 26.9751 19.543 27.3218C19.543 27.6901 19.8463 27.9718 20.193 27.9718H28.253C28.6213 27.9718 28.9246 27.6901 28.9246 27.3218Z" fill="url(#paint9_linear_5823_14423)"/>
<path d="M13.9089 27.9718H16.7039C17.0722 27.9718 17.3539 27.6684 17.3539 27.3218C17.3539 26.9534 17.0506 26.6718 16.7039 26.6718H13.9089C13.5406 26.6718 13.2589 26.9751 13.2589 27.3218C13.2372 27.6901 13.5406 27.9718 13.9089 27.9718Z" fill="url(#paint10_linear_5823_14423)"/>
<path d="M38.0887 29.8134H27.732C27.3637 29.8134 27.082 30.1167 27.082 30.4634C27.082 30.81 27.3854 31.1134 27.732 31.1134H38.1104C38.4787 31.1134 38.7604 30.81 38.7604 30.4634C38.7604 30.1167 38.457 29.8134 38.0887 29.8134Z" fill="url(#paint11_linear_5823_14423)"/>
<path d="M13.9078 31.1351H24.8278C25.1961 31.1351 25.4778 30.8317 25.4778 30.4851C25.4778 30.1384 25.1745 29.8351 24.8278 29.8351H13.9078C13.5395 29.8351 13.2578 30.1384 13.2578 30.4851C13.2578 30.8317 13.5395 31.1351 13.9078 31.1351Z" fill="url(#paint12_linear_5823_14423)"/>
<path d="M38.0879 32.9984H24.8063C24.4379 32.9984 24.1562 33.3017 24.1562 33.6484C24.1562 33.9951 24.4596 34.2984 24.8063 34.2984H38.0879C38.4563 34.2984 38.7379 33.9951 38.7379 33.6484C38.7379 33.3017 38.4563 32.9984 38.0879 32.9984Z" fill="url(#paint13_linear_5823_14423)"/>
<path d="M20.5161 32.9984H13.9078C13.5395 32.9984 13.2578 33.3017 13.2578 33.6484C13.2578 33.9951 13.5611 34.2984 13.9078 34.2984H20.5161C20.8845 34.2984 21.1661 33.9951 21.1661 33.6484C21.1661 33.3017 20.8845 32.9984 20.5161 32.9984Z" fill="url(#paint14_linear_5823_14423)"/>
<defs>
<linearGradient id="paint0_linear_5823_14423" x1="17.8548" y1="7.66985" x2="19.1864" y2="7.66985" gradientUnits="userSpaceOnUse">
<stop stop-color="#10BEF0"/>
<stop offset="1" stop-color="#10BEF0" stop-opacity="0"/>
</linearGradient>
<linearGradient id="paint1_linear_5823_14423" x1="12.5831" y1="7.66985" x2="13.9078" y2="7.66985" gradientUnits="userSpaceOnUse">
<stop stop-color="#10BEF0"/>
<stop offset="1" stop-color="#10BEF0" stop-opacity="0"/>
</linearGradient>
<linearGradient id="paint2_linear_5823_14423" x1="15.2199" y1="7.66985" x2="16.5446" y2="7.66985" gradientUnits="userSpaceOnUse">
<stop stop-color="#10BEF0"/>
<stop offset="1" stop-color="#10BEF0" stop-opacity="0"/>
</linearGradient>
<linearGradient id="paint3_linear_5823_14423" x1="27.3422" y1="7.66813" x2="39.401" y2="7.66813" gradientUnits="userSpaceOnUse">
<stop stop-color="#10BEF0"/>
<stop offset="1" stop-color="#10BEF0" stop-opacity="0"/>
</linearGradient>
<linearGradient id="paint4_linear_5823_14423" x1="12.5988" y1="17.0489" x2="16.9598" y2="17.0489" gradientUnits="userSpaceOnUse">
<stop stop-color="#10BEF0"/>
<stop offset="1" stop-color="#10BEF0" stop-opacity="0"/>
</linearGradient>
<linearGradient id="paint5_linear_5823_14423" x1="22.5808" y1="17.0359" x2="26.9419" y2="17.0359" gradientUnits="userSpaceOnUse">
<stop stop-color="#10BEF0"/>
<stop offset="1" stop-color="#10BEF0" stop-opacity="0"/>
</linearGradient>
<linearGradient id="paint6_linear_5823_14423" x1="17.2543" y1="17.0421" x2="22.2937" y2="17.0421" gradientUnits="userSpaceOnUse">
<stop stop-color="#10BEF0"/>
<stop offset="1" stop-color="#10BEF0" stop-opacity="0"/>
</linearGradient>
<linearGradient id="paint7_linear_5823_14423" x1="13.2443" y1="24.1469" x2="38.7555" y2="24.1469" gradientUnits="userSpaceOnUse">
<stop stop-color="#10BEF0"/>
<stop offset="1" stop-color="#10BEF0" stop-opacity="0"/>
</linearGradient>
<linearGradient id="paint8_linear_5823_14423" x1="31.3344" y1="27.3178" x2="38.7537" y2="27.3178" gradientUnits="userSpaceOnUse">
<stop stop-color="#10BEF0"/>
<stop offset="1" stop-color="#10BEF0" stop-opacity="0"/>
</linearGradient>
<linearGradient id="paint9_linear_5823_14423" x1="19.5378" y1="27.3179" x2="28.9201" y2="27.3179" gradientUnits="userSpaceOnUse">
<stop stop-color="#10BEF0"/>
<stop offset="1" stop-color="#10BEF0" stop-opacity="0"/>
</linearGradient>
<linearGradient id="paint10_linear_5823_14423" x1="13.2433" y1="27.3179" x2="17.3615" y2="27.3179" gradientUnits="userSpaceOnUse">
<stop stop-color="#10BEF0"/>
<stop offset="1" stop-color="#10BEF0" stop-opacity="0"/>
</linearGradient>
<linearGradient id="paint11_linear_5823_14423" x1="27.066" y1="30.4818" x2="38.7543" y2="30.4818" gradientUnits="userSpaceOnUse">
<stop stop-color="#10BEF0"/>
<stop offset="1" stop-color="#10BEF0" stop-opacity="0"/>
</linearGradient>
<linearGradient id="paint12_linear_5823_14423" x1="13.2422" y1="30.4818" x2="25.4795" y2="30.4818" gradientUnits="userSpaceOnUse">
<stop stop-color="#10BEF0"/>
<stop offset="1" stop-color="#10BEF0" stop-opacity="0"/>
</linearGradient>
<linearGradient id="paint13_linear_5823_14423" x1="24.1619" y1="33.6527" x2="38.7535" y2="33.6527" gradientUnits="userSpaceOnUse">
<stop stop-color="#10BEF0"/>
<stop offset="1" stop-color="#10BEF0" stop-opacity="0"/>
</linearGradient>
<linearGradient id="paint14_linear_5823_14423" x1="13.2422" y1="33.6527" x2="21.1694" y2="33.6527" gradientUnits="userSpaceOnUse">
<stop stop-color="#10BEF0"/>
<stop offset="1" stop-color="#10BEF0" stop-opacity="0"/>
</linearGradient>
</defs>
</svg>
