<svg width="52" height="48" viewBox="0 0 52 48" fill="none" xmlns="http://www.w3.org/2000/svg">
<path d="M46.4951 32.68V29.94L44.6101 29.38C44.5018 29.06 44.3718 28.76 44.1984 28.48L45.1084 26.84L43.2451 25.12V13.98C43.2451 12.94 42.3134 12.08 41.1868 12.08H33.3868V10.96L31.4801 10.4C31.3718 10.08 31.2418 9.78001 31.0684 9.50001L31.9784 7.86001L29.8768 5.92001L28.1001 6.76002C27.7751 6.62002 27.4501 6.48001 27.1251 6.38001L26.5184 4.64001L23.5501 4.64001L22.9434 6.38001C22.5968 6.48001 22.2718 6.60002 21.9684 6.76002L20.1701 5.92001L18.0684 7.86001L18.9784 9.50001C18.8051 9.78001 18.6751 10.08 18.5668 10.4L16.6818 10.96V12.08L7.58177 12.08C6.4551 12.08 5.52344 12.94 5.52344 13.98L5.52344 34.3C5.52344 35.34 6.4551 36.2 7.58177 36.2H19.0651V39.58H16.7468C15.6201 39.6 14.7101 40.46 14.7318 41.5C14.7534 42.52 15.6418 43.34 16.7468 43.36H32.0001C33.1268 43.38 34.0584 42.54 34.0801 41.5C34.1018 40.46 33.1918 39.6 32.0651 39.58C32.0434 39.58 32.0218 39.58 32.0001 39.58H29.7034V36.2H31.6318L33.2784 37.72L35.0551 36.88C35.3801 37.02 35.7051 37.16 36.0301 37.26L36.6368 39H39.6051L40.2118 37.26C40.5584 37.16 40.8834 37.04 41.1868 36.88L42.9634 37.72L45.0651 35.78L44.1551 34.14C44.3068 33.84 44.4584 33.54 44.5668 33.24L46.4951 32.68ZM32.0001 40.74C32.4334 40.74 32.8018 41.06 32.8234 41.46C32.8234 41.86 32.4768 42.2 32.0434 42.22C32.0218 42.22 32.0218 42.22 32.0001 42.22H16.7468C16.3134 42.22 15.9451 41.86 15.9668 41.46C15.9668 41.06 16.3134 40.74 16.7468 40.74H32.0001ZM20.3001 39.6V36.22H28.4684V39.6H20.3001ZM17.8301 11.74L19.5201 11.24L19.6068 10.96C19.7368 10.54 19.9101 10.14 20.1484 9.76002L20.3001 9.52002L19.4768 8.06002L20.3868 7.22001L21.9684 7.96001L22.2284 7.82001C22.6401 7.60001 23.0734 7.44001 23.5284 7.32001L23.8318 7.24001L24.3734 5.70001L25.6734 5.70001L26.2151 7.24001L26.5184 7.32001C26.9734 7.44001 27.4068 7.60001 27.8184 7.82001L28.0784 7.96001L29.6601 7.22001L30.5701 8.06002L29.7684 9.52002L29.9201 9.76002C30.1584 10.14 30.3318 10.54 30.4618 10.96L30.5484 11.24L32.2384 11.74V12.08H29.0318C28.8801 10.04 26.9734 8.48001 24.7418 8.62001C22.7484 8.76001 21.1451 10.24 21.0151 12.1H17.8301V11.74ZM22.1634 12.08C22.3151 10.62 23.7234 9.54002 25.3051 9.68002C26.6701 9.80001 27.7751 10.8 27.9051 12.08L22.1634 12.08ZM7.58177 13.24L41.1868 13.24C41.6418 13.24 42.0101 13.58 42.0101 14V25.38L41.2301 25.74C40.9051 25.6 40.5801 25.46 40.2551 25.36L39.6484 23.62H36.6801L36.0734 25.36C35.7268 25.46 35.4018 25.58 35.0984 25.74L33.3218 24.9L31.2201 26.84L32.1301 28.48C31.9784 28.78 31.8268 29.08 31.7184 29.38L29.8334 29.94V30.96L6.75844 30.96L6.75844 13.96C6.75844 13.58 7.12677 13.24 7.58177 13.24ZM31.5884 35.06H7.58177C7.12677 35.06 6.75844 34.72 6.75844 34.3V32.12H29.7901V32.68L31.6751 33.24C31.7834 33.56 31.9134 33.86 32.0868 34.14L31.5884 35.06ZM43.6784 35.6L42.7684 36.44L41.1868 35.7L40.9268 35.84C40.5151 36.06 40.0818 36.22 39.6484 36.34L39.3451 36.42L38.8034 37.96H37.5034L36.9618 36.4L36.6584 36.32C36.2034 36.2 35.7701 36.04 35.3801 35.82L35.0984 35.68L33.5168 36.42L32.6068 35.58L33.4084 34.12L33.2568 33.88C33.0184 33.5 32.8451 33.1 32.7151 32.7L32.6284 32.42L30.9384 31.92V30.72L32.6284 30.22L32.7151 29.94C32.8451 29.52 33.0184 29.12 33.2568 28.76L33.4084 28.52L32.6068 27.06L33.5168 26.22L35.0984 26.96L35.3584 26.82C35.7701 26.6 36.2034 26.44 36.6368 26.32L36.9401 26.24L37.4818 24.68H38.7818L39.3234 26.22L39.6268 26.3C40.0818 26.42 40.5151 26.58 40.9051 26.8L41.1651 26.94L42.7468 26.2L43.6568 27.04L42.8551 28.5L43.0068 28.74C43.2451 29.12 43.4184 29.52 43.5484 29.94L43.6351 30.22L45.3251 30.72V31.92L43.6351 32.42L43.5484 32.7C43.4184 33.12 43.2451 33.52 43.0068 33.9L42.8551 34.14L43.6784 35.6ZM38.1534 27.6C35.9218 27.6 34.1234 29.26 34.1234 31.32C34.1234 33.38 35.9218 35.04 38.1534 35.04C40.3851 35.04 42.1834 33.38 42.1834 31.32C42.1618 29.26 40.3634 27.6 38.1534 27.6ZM38.1534 33.98C36.5718 33.98 35.2718 32.8 35.2718 31.32C35.2718 29.86 36.5501 28.66 38.1534 28.66C39.7351 28.66 41.0351 29.84 41.0351 31.32C41.0134 32.78 39.7351 33.98 38.1534 33.98ZM11.0918 29.56H14.2768C14.6234 29.56 14.9051 29.3 14.9051 28.98L14.9051 22.7C14.9051 22.38 14.6234 22.12 14.2768 22.12H11.0918C10.7451 22.12 10.4634 22.38 10.4634 22.7L10.4634 28.98C10.4851 29.3 10.7451 29.56 11.0918 29.56ZM16.7034 29.56H19.8884C20.2351 29.56 20.5168 29.3 20.5168 28.98L20.5168 19.36C20.5168 19.04 20.2351 18.78 19.8884 18.78H16.7034C16.3568 18.78 16.0751 19.04 16.0751 19.36L16.0751 28.98C16.0751 29.3 16.3568 29.56 16.7034 29.56ZM22.3151 29.56H25.5001C25.8468 29.56 26.1284 29.3 26.1284 28.98L26.1284 15.42C26.1284 15.1 25.8468 14.84 25.5001 14.84H22.3151C21.9684 14.84 21.6868 15.1 21.6868 15.42L21.6868 28.98C21.6868 29.3 21.9684 29.56 22.3151 29.56ZM11.0918 29.56H14.2768C14.6234 29.56 14.9051 29.3 14.9051 28.98L14.9051 22.7C14.9051 22.38 14.6234 22.12 14.2768 22.12H11.0918C10.7451 22.12 10.4634 22.38 10.4634 22.7L10.4634 28.98C10.4851 29.3 10.7451 29.56 11.0918 29.56ZM16.7034 29.56H19.8884C20.2351 29.56 20.5168 29.3 20.5168 28.98L20.5168 19.36C20.5168 19.04 20.2351 18.78 19.8884 18.78H16.7034C16.3568 18.78 16.0751 19.04 16.0751 19.36L16.0751 28.98C16.0751 29.3 16.3568 29.56 16.7034 29.56ZM22.3151 29.56H25.5001C25.8468 29.56 26.1284 29.3 26.1284 28.98L26.1284 15.42C26.1284 15.1 25.8468 14.84 25.5001 14.84H22.3151C21.9684 14.84 21.6868 15.1 21.6868 15.42L21.6868 28.98C21.6868 29.3 21.9684 29.56 22.3151 29.56ZM29.8768 16.68C29.8768 16.36 30.1584 16.1 30.5051 16.1H36.2251C36.5718 16.1 36.8534 16.36 36.8534 16.68C36.8534 17 36.5718 17.26 36.2251 17.26H30.5051C30.1584 17.24 29.8768 17 29.8768 16.68ZM29.8768 19.4C29.8768 19.08 30.1584 18.82 30.5051 18.82H36.2251C36.5501 18.82 36.8318 19.08 36.8318 19.4C36.8318 19.72 36.5501 19.98 36.2034 19.98H30.4834C30.1584 19.98 29.8768 19.72 29.8768 19.4ZM29.8768 22.12C29.8768 21.8 30.1584 21.54 30.5051 21.54H36.2251C36.5718 21.54 36.8534 21.8 36.8534 22.12C36.8534 22.44 36.5718 22.7 36.2251 22.7H30.5051C30.1584 22.7 29.8768 22.44 29.8768 22.12Z" fill="#002680"/>
<path d="M29.875 16.68C29.875 16.36 30.1567 16.1 30.5033 16.1H36.2233C36.57 16.1 36.8517 16.36 36.8517 16.68C36.8517 17 36.57 17.26 36.2233 17.26H30.5033C30.1567 17.24 29.875 17 29.875 16.68Z" fill="url(#paint0_linear_5823_14354)"/>
<path d="M29.875 19.4001C29.875 19.0801 30.1567 18.8201 30.5033 18.8201H36.2233C36.5483 18.8201 36.83 19.0801 36.83 19.4001C36.83 19.7201 36.5483 19.9801 36.2017 19.9801H30.4817C30.1567 19.9801 29.875 19.7201 29.875 19.4001Z" fill="url(#paint1_linear_5823_14354)"/>
<path d="M29.875 22.12C29.875 21.8 30.1567 21.54 30.5033 21.54H36.2233C36.57 21.54 36.8517 21.8 36.8517 22.12C36.8517 22.44 36.57 22.7 36.2233 22.7H30.5033C30.1567 22.7 29.875 22.44 29.875 22.12Z" fill="url(#paint2_linear_5823_14354)"/>
<path d="M11.0932 29.56H14.2782C14.6248 29.56 14.9065 29.3 14.9065 28.98V22.7C14.9065 22.38 14.6248 22.12 14.2782 22.12H11.0932C10.7465 22.12 10.4648 22.38 10.4648 22.7V28.98C10.4865 29.3 10.7682 29.56 11.0932 29.56Z" fill="url(#paint3_linear_5823_14354)"/>
<path d="M16.7026 29.56H19.8876C20.2342 29.56 20.5159 29.3 20.5159 28.98V19.36C20.5159 19.04 20.2342 18.78 19.8876 18.78H16.7026C16.3559 18.78 16.0742 19.04 16.0742 19.36V28.98C16.0959 29.3 16.3559 29.56 16.7026 29.56Z" fill="url(#paint4_linear_5823_14354)"/>
<path d="M22.3158 29.56H25.5008C25.8475 29.56 26.1292 29.3 26.1292 28.98V15.42C26.1292 15.1 25.8475 14.84 25.5008 14.84H22.3158C21.9692 14.84 21.6875 15.1 21.6875 15.42V28.98C21.6875 29.3 21.9692 29.56 22.3158 29.56Z" fill="url(#paint5_linear_5823_14354)"/>
<path d="M13.6718 23.28H11.7188V28.42H13.6718V23.28Z" fill="white"/>
<path d="M19.2851 19.9401H17.332V28.4201H19.2851V19.9401Z" fill="white"/>
<path d="M22.9219 15.98H24.289C24.4843 16.02 24.6796 16.04 24.875 16.04V28.4H22.9219V15.98Z" fill="white"/>
<defs>
<linearGradient id="paint0_linear_5823_14354" x1="33.3486" y1="17.2774" x2="33.361" y2="16.0732" gradientUnits="userSpaceOnUse">
<stop stop-color="#10BEF0"/>
<stop offset="1" stop-color="#10BEF0" stop-opacity="0"/>
</linearGradient>
<linearGradient id="paint1_linear_5823_14354" x1="33.3488" y1="20.0045" x2="33.3612" y2="18.8" gradientUnits="userSpaceOnUse">
<stop stop-color="#10BEF0"/>
<stop offset="1" stop-color="#10BEF0" stop-opacity="0"/>
</linearGradient>
<linearGradient id="paint2_linear_5823_14354" x1="33.3488" y1="22.7312" x2="33.3612" y2="21.527" gradientUnits="userSpaceOnUse">
<stop stop-color="#10BEF0"/>
<stop offset="1" stop-color="#10BEF0" stop-opacity="0"/>
</linearGradient>
<linearGradient id="paint3_linear_5823_14354" x1="12.6465" y1="29.5704" x2="12.7233" y2="22.1187" gradientUnits="userSpaceOnUse">
<stop stop-color="#10BEF0"/>
<stop offset="1" stop-color="#10BEF0" stop-opacity="0"/>
</linearGradient>
<linearGradient id="paint4_linear_5823_14354" x1="18.2327" y1="29.5702" x2="18.344" y2="18.7774" gradientUnits="userSpaceOnUse">
<stop stop-color="#10BEF0"/>
<stop offset="1" stop-color="#10BEF0" stop-opacity="0"/>
</linearGradient>
<linearGradient id="paint5_linear_5823_14354" x1="23.8076" y1="29.57" x2="23.9597" y2="14.8245" gradientUnits="userSpaceOnUse">
<stop stop-color="#10BEF0"/>
<stop offset="1" stop-color="#10BEF0" stop-opacity="0"/>
</linearGradient>
</defs>
</svg>
