<svg width="56" height="55" viewBox="0 0 56 55" fill="none" xmlns="http://www.w3.org/2000/svg">
<g clip-path="url(#clip0_6204_14730)">
<path d="M34.2659 24.6579L34.0198 24.7858L33.76 24.932C33.4911 25.0919 33.2268 25.2656 32.967 25.4483C32.7073 25.6311 32.443 25.8413 32.1695 26.0652C32.1198 26.1048 32.0565 26.1231 31.9934 26.1163C31.9303 26.1094 31.8724 26.0779 31.8323 26.0286L30.6747 24.699C30.631 24.6545 30.6065 24.5946 30.6065 24.5322C30.6065 24.4698 30.631 24.4099 30.6747 24.3654C30.8798 24.1781 31.094 23.9908 31.3128 23.8217C31.5315 23.6526 31.7685 23.4836 32.0055 23.3236C32.2424 23.1637 32.3883 23.086 32.5842 22.9764C32.7802 22.8667 32.9853 22.7616 33.1812 22.6702L33.4228 22.556C32.735 21.4239 31.7345 20.516 30.5426 19.9424C29.9497 19.6578 29.3212 19.4549 28.6741 19.3392C28.0136 19.2244 27.3408 19.1983 26.6734 19.2616C26.0099 19.3238 25.3582 19.4775 24.7366 19.7185C24.1281 19.9523 23.557 20.274 23.0413 20.6735C22.3866 21.1852 21.8359 21.818 21.4189 22.5377C20.9891 23.2789 20.69 24.0889 20.5348 24.932L20.4208 25.5397C20.4114 25.5879 20.3876 25.632 20.3526 25.6662C20.3176 25.7005 20.2731 25.7233 20.2249 25.7316L19.6233 25.8367C19.3362 25.887 19.0628 25.9464 18.8075 26.0149C18.5523 26.0835 18.3108 26.1657 18.0921 26.2525C17.8836 26.3307 17.681 26.4238 17.4859 26.5313C17.3008 26.6284 17.1227 26.7384 16.9527 26.8603C16.8254 26.9535 16.7036 27.0542 16.5881 27.1618C16.1511 27.5703 15.8209 28.0803 15.6266 28.6468C15.4767 29.088 15.4027 29.5516 15.4078 30.0176C15.4146 30.4838 15.493 30.9462 15.6402 31.3884C15.7875 31.8352 16.0011 32.2573 16.2737 32.6404C16.3786 32.785 16.4911 32.9238 16.6109 33.0562C16.7317 33.1835 16.8596 33.3041 16.9937 33.4172C17.1367 33.5333 17.2892 33.6372 17.4495 33.7279C17.5951 33.8187 17.7474 33.8981 17.9052 33.9655C18.0841 34.0416 18.2684 34.1042 18.4566 34.1528C18.6528 34.2055 18.8522 34.2452 19.0536 34.2716H36.4944C36.8793 34.1791 37.2583 34.0631 37.6292 33.9243C37.9752 33.7996 38.3105 33.6468 38.6318 33.4674C38.9247 33.308 39.201 33.1198 39.4566 32.9054C40.0699 32.3951 40.5108 31.7073 40.719 30.936C40.8751 30.3955 40.9549 29.8356 40.956 29.2728C40.9645 28.68 40.8955 28.0886 40.7509 27.5137C40.6225 27.0016 40.4149 26.5129 40.1357 26.0652C40.0536 25.9418 39.967 25.823 39.885 25.7134C39.803 25.6037 39.7073 25.494 39.6161 25.3981C39.2406 24.993 38.7862 24.6695 38.2809 24.4477C37.7687 24.2315 37.2187 24.1197 36.663 24.1187C36.263 24.1163 35.864 24.1592 35.4736 24.2466C35.0557 24.3421 34.6482 24.4783 34.2568 24.6533L34.2659 24.6579ZM20.4208 20.0886L16.775 16.4332C15.6647 17.0876 14.3689 17.353 13.0916 17.1875C11.8143 17.022 10.6282 16.4352 9.72031 15.5193C8.64486 14.4442 8.03438 12.988 8.02073 11.4654C8.00709 9.94272 8.59138 8.4758 9.64739 7.38145L9.72031 7.2992C10.2587 6.75873 10.8981 6.32996 11.6018 6.03743C12.3056 5.74489 13.06 5.59431 13.8219 5.59431C14.5837 5.59431 15.3381 5.74489 16.0419 6.03743C16.7457 6.32996 17.3851 6.75873 17.9234 7.2992C18.8354 8.20846 19.4199 9.39599 19.5849 10.6749C19.7499 11.9537 19.4861 13.2513 18.8349 14.3633L22.6812 18.2198C23.0818 17.9877 23.4992 17.7861 23.9299 17.6166C24.75 17.2964 25.6104 17.0918 26.4866 17.0089C27.2272 16.938 27.9735 16.9534 28.7105 17.0546V12.0284C27.7045 11.7702 26.7866 11.2445 26.0536 10.5068C25.0642 9.40542 24.5315 7.96682 24.5644 6.48488C24.5972 5.00294 25.1931 3.58948 26.2303 2.5332C27.2675 1.47692 28.6678 0.857522 30.1452 0.80152C31.6225 0.745518 33.0655 1.25714 34.1793 2.23188L34.2613 2.30956C34.8009 2.84905 35.229 3.48999 35.5212 4.19567C35.8133 4.90134 35.9636 5.65786 35.9636 6.4219C35.9636 7.18594 35.8133 7.94247 35.5212 8.64814C35.229 9.35381 34.8009 9.99475 34.2613 10.5342C33.5294 11.2709 32.6133 11.7964 31.609 12.0558V17.941C33.3673 18.7955 34.8051 20.1939 35.7105 21.93L40.2678 17.411C39.6174 16.2988 39.354 15.0014 39.519 13.7227C39.684 12.444 40.268 11.2566 41.1793 10.3469C42.2482 9.29182 43.6842 8.69441 45.1841 8.68076C46.684 8.66712 48.1305 9.23832 49.2184 10.2738L49.3004 10.3469C49.8394 10.8867 50.2671 11.5277 50.5589 12.2334C50.8506 12.939 51.0008 13.6954 51.0008 14.4593C51.0008 15.2231 50.8506 15.9795 50.5589 16.6851C50.2671 17.3908 49.8394 18.0318 49.3004 18.5716C48.3934 19.4842 47.2099 20.0691 45.9356 20.2345C44.6613 20.3999 43.3682 20.1364 42.2594 19.4854L39.3199 22.4555C40.0516 22.7963 40.7096 23.2776 41.2568 23.8719C41.3889 24.0182 41.5211 24.1735 41.6487 24.3289C41.7763 24.4842 41.8902 24.6579 42.0087 24.8361C42.4175 25.4713 42.725 26.1666 42.9202 26.8968C43.1265 27.6778 43.2261 28.4832 43.2164 29.2911V29.3916H44.5836C44.8411 28.3829 45.3654 27.4626 46.1012 26.7277C47.1893 25.6776 48.6429 25.0944 50.1531 25.1019C51.6634 25.1094 53.1112 25.7071 54.1888 26.7679C55.2665 27.8288 55.8891 29.2692 55.9243 30.783C55.9594 32.2968 55.4044 33.7647 54.3772 34.8748L54.2997 34.957C53.2112 36.0463 51.7361 36.6581 50.1982 36.6581C48.6602 36.6581 47.1851 36.0463 46.0966 34.957C45.3612 34.2255 44.8368 33.3082 44.579 32.3023H42.6194C42.4327 32.7643 42.1877 33.2004 41.8902 33.5999C41.6079 33.9781 41.2838 34.323 40.9241 34.628C40.5565 34.9432 40.1579 35.2203 39.7346 35.4551C39.2957 35.6962 38.8386 35.9025 38.3674 36.0719C37.8676 36.2532 37.3579 36.4058 36.8407 36.5288C36.2306 36.6197 35.616 36.6777 34.9996 36.7025L39.2288 40.9427C40.339 40.2883 41.6349 40.023 42.9122 40.1884C44.1895 40.3539 45.3755 40.9408 46.2835 41.8566C47.3589 42.9318 47.9694 44.3879 47.983 45.9106C47.9967 47.4332 47.4124 48.9001 46.3564 49.9945L46.2835 50.0767C45.7451 50.6172 45.1057 51.046 44.4019 51.3385C43.6982 51.631 42.9438 51.7816 42.1819 51.7816C41.42 51.7816 40.6656 51.631 39.9619 51.3385C39.2581 51.046 38.6187 50.6172 38.0803 50.0767C37.1683 49.1675 36.5838 47.9799 36.4188 46.7011C36.2538 45.4222 36.5177 44.1246 37.1689 43.0126L30.9892 36.7664C29.8043 36.7664 28.551 36.7664 27.3023 36.7162V42.9441C28.3074 43.2073 29.2244 43.7341 29.9592 44.4702C31.0066 45.5612 31.5883 47.0186 31.5809 48.5328C31.5734 50.0471 30.9772 51.4987 29.9192 52.5792C28.8611 53.6597 27.4245 54.2839 25.9146 54.3191C24.4048 54.3544 22.9407 53.7979 21.8336 52.768L21.7516 52.6949C21.2125 52.1551 20.7849 51.5141 20.4931 50.8084C20.2013 50.1028 20.0511 49.3464 20.0511 48.5826C20.0511 47.8187 20.2013 47.0623 20.4931 46.3567C20.7849 45.6511 21.2125 45.01 21.7516 44.4702C22.4859 43.7368 23.4011 43.2118 24.4039 42.9487V36.6431C22.3349 36.5882 20.4618 36.5334 19.1767 36.5334L15.7769 39.9375C16.4296 41.0507 16.6943 42.35 16.5293 43.6306C16.3643 44.9113 15.7789 46.1004 14.8655 47.0107C13.7932 48.089 12.3408 48.7011 10.8222 48.7148C9.30351 48.7285 7.84044 48.1426 6.74896 47.0839L6.66692 47.0107C6.12787 46.4709 5.70023 45.8299 5.40846 45.1243C5.11668 44.4186 4.9665 43.6623 4.9665 42.8984C4.9665 42.1345 5.11668 41.3782 5.40846 40.6725C5.70023 39.9669 6.12787 39.3259 6.66692 38.7861C7.5738 37.8717 8.75821 37.2856 10.0337 37.1202C11.3092 36.9547 12.6034 37.2193 13.7125 37.8722L16.0732 35.5099C15.8902 35.3904 15.7151 35.2591 15.5491 35.1169C15.3469 34.9475 15.1551 34.7659 14.9749 34.5732C14.7947 34.3802 14.6273 34.1756 14.4736 33.9609C13.6424 32.8091 13.1915 31.4255 13.1839 30.0039C13.1783 29.3187 13.2813 28.637 13.4892 27.9843H11.4202C11.1627 28.993 10.6384 29.9133 9.9026 30.6482C9.36876 31.1933 8.73306 31.6277 8.03179 31.9265C7.33052 32.2253 6.57741 32.3827 5.81547 32.3897C4.27666 32.4039 2.79527 31.8045 1.6972 30.7236C0.599122 29.6426 -0.0256932 28.1686 -0.0397951 26.6257C-0.053897 25.0828 0.543869 23.5976 1.622 22.4966L1.69948 22.4144C2.23755 21.8733 2.87682 21.4441 3.58064 21.1512C4.28446 20.8583 5.039 20.7076 5.80104 20.7076C6.56307 20.7076 7.31762 20.8583 8.02144 21.1512C8.72526 21.4441 9.36452 21.8733 9.9026 22.4144C10.6373 23.1482 11.1615 24.0668 11.4202 25.0737H15.5582L15.6493 25.0097C15.8976 24.8304 16.158 24.6685 16.4286 24.5254C16.7156 24.373 17.0125 24.2402 17.3173 24.1278C17.5315 24.0456 17.7503 23.9679 17.9781 23.8994C18.206 23.8308 18.3427 23.7943 18.5296 23.7486C18.7761 22.8089 19.1666 21.9134 19.6871 21.0938C19.9118 20.74 20.1632 20.404 20.4391 20.0886H20.4208ZM30.1415 9.57927C30.7638 9.57982 31.3722 9.395 31.8895 9.04824C32.4068 8.70149 32.8097 8.20845 33.047 7.63172C33.2843 7.05498 33.3453 6.42054 33.2224 5.80895C33.0994 5.19736 32.798 4.63619 32.3564 4.19667L32.3017 4.13727C31.6978 3.59143 30.9065 3.30134 30.0939 3.32787C29.2812 3.3544 28.5104 3.69549 27.9432 4.27956C27.376 4.86362 27.0565 5.64526 27.0517 6.46045C27.0469 7.27563 27.3573 8.06099 27.9176 8.65171C28.2093 8.94306 28.5555 9.17377 28.9364 9.3306C29.3172 9.48742 29.7252 9.56727 30.137 9.56556L30.1415 9.57927ZM16.096 13.6002C16.6583 13.0041 16.9671 12.2118 16.9569 11.3913C16.9467 10.5708 16.6183 9.7865 16.0413 9.20459C15.4525 8.61473 14.6542 8.28339 13.8219 8.28339C12.9895 8.28339 12.1913 8.61473 11.6025 9.20459L11.5478 9.25942C10.9851 9.85635 10.6762 10.6494 10.6864 11.4706C10.6966 12.2919 11.0252 13.0769 11.6025 13.6596C12.192 14.2498 12.9911 14.5812 13.8241 14.5812C14.6572 14.5812 15.4563 14.2498 16.0458 13.6596L16.1051 13.6048L16.096 13.6002ZM8.94101 26.5313C8.94156 25.9085 8.75786 25.2995 8.41316 24.7814C8.06846 24.2633 7.57824 23.8594 7.00452 23.6207C6.4308 23.382 5.79935 23.3193 5.19007 23.4404C4.58079 23.5616 4.02104 23.8613 3.58164 24.3015L3.52239 24.3654C2.97799 24.9709 2.68866 25.7643 2.71512 26.5791C2.74158 27.3938 3.08178 28.1666 3.66431 28.7353C4.24685 29.304 5.02644 29.6244 5.83948 29.6292C6.65253 29.634 7.43583 29.3229 8.025 28.7611C8.31586 28.4698 8.54618 28.1235 8.70263 27.7423C8.85909 27.3611 8.93856 26.9526 8.93645 26.5404L8.94101 26.5313ZM12.9514 40.6138C12.3561 40.0496 11.5651 39.7399 10.746 39.7501C9.92691 39.7604 9.14392 40.0898 8.56276 40.6686C7.97445 41.2589 7.64398 42.0593 7.64398 42.8938C7.64398 43.7284 7.97445 44.5287 8.56276 45.1191L8.61744 45.1739C9.21205 45.7377 10.0022 46.0473 10.8206 46.0371C11.6389 46.0269 12.4212 45.6976 13.0016 45.1191C13.5901 44.528 13.9207 43.7268 13.9207 42.8915C13.9207 42.0563 13.5901 41.2551 13.0016 40.664L12.9469 40.6046L12.9514 40.6138ZM25.8531 45.4343C25.2333 45.4356 24.6277 45.6208 24.1126 45.9665C23.5976 46.3122 23.1961 46.8031 22.9588 47.3772C22.7214 47.9513 22.6589 48.583 22.779 49.1926C22.8991 49.8023 23.1965 50.3627 23.6337 50.8032L23.6975 50.8672C24.294 51.4501 25.097 51.7716 25.9299 51.7608C26.7627 51.7501 27.5572 51.4081 28.1386 50.8101C28.72 50.212 29.0406 49.4069 29.0299 48.5719C29.0192 47.7368 28.6781 46.9402 28.0816 46.3573C27.7899 46.066 27.4437 45.8353 27.0629 45.6784C26.682 45.5216 26.274 45.4418 25.8622 45.4435L25.8531 45.4343ZM39.9032 43.7666C39.3406 44.3635 39.0317 45.1565 39.0419 45.9778C39.0521 46.799 39.3806 47.5841 39.9579 48.1668C40.5467 48.7566 41.345 49.088 42.1773 49.088C43.0097 49.088 43.808 48.7566 44.3967 48.1668L44.4514 48.1119C45.0138 47.5158 45.3226 46.7235 45.3124 45.903C45.3022 45.0825 44.9738 44.2982 44.3967 43.7163C43.8072 43.1262 43.0081 42.7947 42.1751 42.7947C41.342 42.7947 40.5429 43.1262 39.9534 43.7163L39.8941 43.7711L39.9032 43.7666ZM47.0582 30.8264C47.0612 31.4465 47.2469 32.052 47.5918 32.5667C47.9367 33.0815 48.4256 33.4826 48.9971 33.7198C49.5686 33.957 50.1972 34.0197 50.8041 33.9C51.411 33.7803 51.9691 33.4836 52.4085 33.047L52.4677 32.9922C53.0121 32.3867 53.3014 31.5934 53.275 30.7786C53.2485 29.9638 52.9083 29.191 52.3258 28.6223C51.7432 28.0536 50.9637 27.7333 50.1506 27.7285C49.3376 27.7237 48.5543 28.0348 47.9651 28.5966C47.6745 28.889 47.4444 29.2362 47.288 29.618C47.1316 29.9999 47.0519 30.409 47.0536 30.8218L47.0582 30.8264ZM43.0478 16.7439C43.6424 17.3077 44.4326 17.6173 45.2509 17.6071C46.0693 17.5969 46.8515 17.2676 47.4319 16.6891C48.0202 16.0987 48.3507 15.2983 48.3507 14.4638C48.3507 13.6293 48.0202 12.8289 47.4319 12.2386L47.3772 12.1838C46.7818 11.6196 45.9909 11.3099 45.1718 11.3201C44.3527 11.3304 43.5697 11.6597 42.9885 12.2386C42.3999 12.8297 42.0694 13.6308 42.0694 14.4661C42.0694 15.3014 42.3999 16.1025 42.9885 16.6936L43.0432 16.753L43.0478 16.7439Z" fill="#002680"/>
</g>
<defs>
<clipPath id="clip0_6204_14730">
<rect width="56" height="53.7895" fill="white" transform="translate(0 0.605225)"/>
</clipPath>
</defs>
</svg>
