<svg width="101" height="78" viewBox="0 0 101 78" fill="none" xmlns="http://www.w3.org/2000/svg">
<g clip-path="url(#clip0_6204_14794)">
<path d="M54.6779 27.9583L54.5322 28.389L62.2099 41.4112L62.6444 41.7187L70.6666 27.8468L62.6444 13.9192L54.6779 27.9583Z" fill="#59666C"/>
<path d="M38.5221 0.0473633L30.667 13.9192L38.8286 27.9581L46.6001 13.9192L46.5792 13.3519L38.8803 0.329551L38.5221 0.0473633Z" fill="#59666C"/>
<path d="M38.5225 0.0473633L46.6004 13.9192H62.645L54.5112 0.0473633H38.5225Z" fill="#BCAE79"/>
<path d="M38.8291 27.9583L46.74 41.7187H62.6452L54.6786 27.9583H38.8291Z" fill="#BCAE79"/>
</g>
<path d="M21.0361 60.88V72H19.2121V67.136H13.9801V72H12.1561V60.88H13.9801V65.648H19.2121V60.88H21.0361ZM24.3653 62.016C24.0346 62.016 23.7573 61.904 23.5333 61.68C23.3093 61.456 23.1973 61.1787 23.1973 60.848C23.1973 60.5173 23.3093 60.24 23.5333 60.016C23.7573 59.792 24.0346 59.68 24.3653 59.68C24.6853 59.68 24.9573 59.792 25.1813 60.016C25.4053 60.24 25.5173 60.5173 25.5173 60.848C25.5173 61.1787 25.4053 61.456 25.1813 61.68C24.9573 61.904 24.6853 62.016 24.3653 62.016ZM25.2613 63.184V72H23.4373V63.184H25.2613ZM29.4801 64.496C29.7894 64.0693 30.2107 63.7227 30.7441 63.456C31.2881 63.1787 31.8907 63.04 32.5521 63.04C33.3307 63.04 34.0347 63.2267 34.6641 63.6C35.2934 63.9733 35.7894 64.5067 36.1521 65.2C36.5147 65.8827 36.6961 66.6667 36.6961 67.552C36.6961 68.4373 36.5147 69.232 36.1521 69.936C35.7894 70.6293 35.2881 71.1733 34.6481 71.568C34.0187 71.952 33.3201 72.144 32.5521 72.144C31.8694 72.144 31.2614 72.0107 30.7281 71.744C30.2054 71.4773 29.7894 71.136 29.4801 70.72V72H27.6561V60.16H29.4801V64.496ZM34.8401 67.552C34.8401 66.944 34.7121 66.4213 34.4561 65.984C34.2107 65.536 33.8801 65.2 33.4641 64.976C33.0587 64.7413 32.6214 64.624 32.1521 64.624C31.6934 64.624 31.2561 64.7413 30.8401 64.976C30.4347 65.2107 30.1041 65.552 29.8481 66C29.6027 66.448 29.4801 66.976 29.4801 67.584C29.4801 68.192 29.6027 68.7253 29.8481 69.184C30.1041 69.632 30.4347 69.9733 30.8401 70.208C31.2561 70.4427 31.6934 70.56 32.1521 70.56C32.6214 70.56 33.0587 70.4427 33.4641 70.208C33.8801 69.9627 34.2107 69.6107 34.4561 69.152C34.7121 68.6933 34.8401 68.16 34.8401 67.552ZM46.5798 67.376C46.5798 67.7067 46.5585 68.0053 46.5158 68.272H39.7798C39.8331 68.976 40.0945 69.5413 40.5638 69.968C41.0331 70.3947 41.6091 70.608 42.2918 70.608C43.2731 70.608 43.9665 70.1973 44.3718 69.376H46.3398C46.0731 70.1867 45.5878 70.8533 44.8838 71.376C44.1905 71.888 43.3265 72.144 42.2918 72.144C41.4491 72.144 40.6918 71.9573 40.0198 71.584C39.3585 71.2 38.8358 70.6667 38.4518 69.984C38.0785 69.2907 37.8918 68.4907 37.8918 67.584C37.8918 66.6773 38.0731 65.8827 38.4358 65.2C38.8091 64.5067 39.3265 63.9733 39.9878 63.6C40.6598 63.2267 41.4278 63.04 42.2918 63.04C43.1238 63.04 43.8651 63.2213 44.5158 63.584C45.1665 63.9467 45.6731 64.4587 46.0358 65.12C46.3985 65.7707 46.5798 66.5227 46.5798 67.376ZM44.6758 66.8C44.6651 66.128 44.4251 65.5893 43.9558 65.184C43.4865 64.7787 42.9051 64.576 42.2118 64.576C41.5825 64.576 41.0438 64.7787 40.5958 65.184C40.1478 65.5787 39.8811 66.1173 39.7958 66.8H44.6758ZM50.1988 64.464C50.4655 64.016 50.8175 63.6693 51.2548 63.424C51.7028 63.168 52.2308 63.04 52.8388 63.04V64.928H52.3748C51.6601 64.928 51.1161 65.1093 50.7428 65.472C50.3801 65.8347 50.1988 66.464 50.1988 67.36V72H48.3748V63.184H50.1988V64.464ZM58.9634 63.04C59.6568 63.04 60.2754 63.184 60.8194 63.472C61.3741 63.76 61.8061 64.1867 62.1154 64.752C62.4248 65.3173 62.5794 66 62.5794 66.8V72H60.7714V67.072C60.7714 66.2827 60.5741 65.68 60.1794 65.264C59.7848 64.8373 59.2461 64.624 58.5634 64.624C57.8808 64.624 57.3368 64.8373 56.9314 65.264C56.5368 65.68 56.3394 66.2827 56.3394 67.072V72H54.5154V63.184H56.3394V64.192C56.6381 63.8293 57.0168 63.5467 57.4754 63.344C57.9448 63.1413 58.4408 63.04 58.9634 63.04ZM64.2981 67.552C64.2981 66.6667 64.4794 65.8827 64.8421 65.2C65.2154 64.5173 65.7167 63.9893 66.3461 63.616C66.9861 63.232 67.6901 63.04 68.4581 63.04C69.1514 63.04 69.7541 63.1787 70.2661 63.456C70.7887 63.7227 71.2047 64.0587 71.5141 64.464V63.184H73.3541V72H71.5141V70.688C71.2047 71.104 70.7834 71.4507 70.2501 71.728C69.7167 72.0053 69.1087 72.144 68.4261 72.144C67.6687 72.144 66.9754 71.952 66.3461 71.568C65.7167 71.1733 65.2154 70.6293 64.8421 69.936C64.4794 69.232 64.2981 68.4373 64.2981 67.552ZM71.5141 67.584C71.5141 66.976 71.3861 66.448 71.1301 66C70.8847 65.552 70.5594 65.2107 70.1541 64.976C69.7487 64.7413 69.3114 64.624 68.8421 64.624C68.3727 64.624 67.9354 64.7413 67.5301 64.976C67.1247 65.2 66.7941 65.536 66.5381 65.984C66.2927 66.4213 66.1701 66.944 66.1701 67.552C66.1701 68.16 66.2927 68.6933 66.5381 69.152C66.7941 69.6107 67.1247 69.9627 67.5301 70.208C67.9461 70.4427 68.3834 70.56 68.8421 70.56C69.3114 70.56 69.7487 70.4427 70.1541 70.208C70.5594 69.9733 70.8847 69.632 71.1301 69.184C71.3861 68.7253 71.5141 68.192 71.5141 67.584ZM77.8778 64.672V69.552C77.8778 69.8827 77.9525 70.1227 78.1018 70.272C78.2618 70.4107 78.5285 70.48 78.9018 70.48H80.0218V72H78.5818C77.7605 72 77.1311 71.808 76.6938 71.424C76.2565 71.04 76.0378 70.416 76.0378 69.552V64.672H74.9978V63.184H76.0378V60.992H77.8778V63.184H80.0218V64.672H77.8778ZM89.7829 67.376C89.7829 67.7067 89.7616 68.0053 89.7189 68.272H82.9829C83.0363 68.976 83.2976 69.5413 83.7669 69.968C84.2363 70.3947 84.8123 70.608 85.4949 70.608C86.4763 70.608 87.1696 70.1973 87.5749 69.376H89.5429C89.2763 70.1867 88.7909 70.8533 88.0869 71.376C87.3936 71.888 86.5296 72.144 85.4949 72.144C84.6523 72.144 83.8949 71.9573 83.2229 71.584C82.5616 71.2 82.0389 70.6667 81.6549 69.984C81.2816 69.2907 81.0949 68.4907 81.0949 67.584C81.0949 66.6773 81.2763 65.8827 81.6389 65.2C82.0123 64.5067 82.5296 63.9733 83.1909 63.6C83.8629 63.2267 84.6309 63.04 85.4949 63.04C86.3269 63.04 87.0683 63.2213 87.7189 63.584C88.3696 63.9467 88.8763 64.4587 89.2389 65.12C89.6016 65.7707 89.7829 66.5227 89.7829 67.376ZM87.8789 66.8C87.8683 66.128 87.6283 65.5893 87.1589 65.184C86.6896 64.7787 86.1083 64.576 85.4149 64.576C84.7856 64.576 84.2469 64.7787 83.7989 65.184C83.3509 65.5787 83.0843 66.1173 82.9989 66.8H87.8789Z" fill="#434343"/>
<defs>
<clipPath id="clip0_6204_14794">
<rect width="40" height="41.7188" fill="white" transform="translate(30.667)"/>
</clipPath>
</defs>
</svg>
