<svg width="52" height="78" viewBox="0 0 52 78" fill="none" xmlns="http://www.w3.org/2000/svg">
<g clip-path="url(#clip0_6204_14734)">
<g clip-path="url(#clip1_6204_14734)">
<path d="M39.4798 20.9384C39.4798 20.8713 39.4614 20.8233 39.4236 20.792C39.3817 20.7583 39.3092 20.7403 39.2083 20.7403H39.0632V21.139H39.2383C39.4 21.139 39.4798 21.0719 39.4798 20.9384ZM39.706 21.7697H39.5067L39.3795 21.4892C39.315 21.3486 39.2459 21.2783 39.1706 21.2783H39.0632V21.7697H38.8989V20.6003H39.2281C39.3744 20.6003 39.4843 20.632 39.5597 20.6981C39.6236 20.7549 39.6556 20.8278 39.6556 20.9186C39.6556 20.9991 39.6295 21.0668 39.577 21.123C39.5258 21.1799 39.4523 21.2182 39.3584 21.2381V21.2431C39.4236 21.2585 39.4888 21.3301 39.552 21.4591L39.706 21.7704V21.7697ZM40.0703 21.1965C40.0703 20.9665 39.9917 20.7722 39.8351 20.6182C39.6779 20.4642 39.4862 20.3869 39.26 20.3869C39.0267 20.3869 38.8325 20.4642 38.6785 20.6195C38.5245 20.7754 38.4479 20.9684 38.4479 21.1965C38.4479 21.4298 38.5277 21.6247 38.6862 21.78C38.8428 21.9352 39.0345 22.0119 39.26 22.0119C39.4843 22.0119 39.676 21.9346 39.8338 21.7773C39.9917 21.6227 40.0703 21.4285 40.0703 21.1965ZM40.1808 21.1915C40.1808 21.4497 40.092 21.6663 39.9137 21.8407C39.7354 22.0164 39.5169 22.104 39.2555 22.104C38.9923 22.104 38.7738 22.0177 38.5999 21.8483C38.4261 21.6765 38.3398 21.4605 38.3398 21.1985C38.3398 20.9422 38.428 20.7269 38.6044 20.5499C38.7808 20.3736 39.0006 20.2854 39.2632 20.2854C39.5207 20.2854 39.7367 20.3697 39.9118 20.5378C40.0913 20.7103 40.1808 20.9276 40.1808 21.1915Z" fill="black"/>
<path d="M15.1876 24.4523H14.6209V21.2087C14.6209 20.9525 14.6377 20.6406 14.6679 20.2726H14.6551C14.602 20.4879 14.5535 20.6438 14.5107 20.7403L12.8633 24.4523H12.5873L10.9367 20.7672C10.8902 20.6643 10.8415 20.4987 10.7923 20.2726H10.78C10.7974 20.4662 10.8071 20.7799 10.8071 21.2151V24.4523H10.2607V19.6221H11.0084L12.4903 22.9902C12.6021 23.244 12.6743 23.4369 12.7094 23.5686H12.7329C12.8294 23.3046 12.9061 23.1065 12.9642 22.9762L14.478 19.6221H15.1873V24.4523H15.1876Z" fill="black"/>
<path d="M16.9312 24.4521H16.3804V21.0028H16.9312V24.4521ZM17.0265 19.7663C17.0265 19.8679 16.9907 19.9529 16.9197 20.0226C16.8501 20.0922 16.7639 20.1274 16.6628 20.1274C16.5644 20.1274 16.4788 20.0936 16.4086 20.0264C16.3383 19.9587 16.3037 19.8724 16.3037 19.7663C16.3037 19.6666 16.3385 19.5817 16.4086 19.5126C16.4788 19.4436 16.5644 19.4104 16.6628 19.4104C16.7638 19.4104 16.8501 19.4436 16.9197 19.5126C16.9907 19.5817 17.0265 19.6666 17.0265 19.7663Z" fill="black"/>
<path d="M20.3731 24.2924C20.1086 24.4547 19.7929 24.5352 19.428 24.5352C18.9335 24.5352 18.5354 24.371 18.2312 24.0432C17.936 23.725 17.7871 23.3141 17.7871 22.8106C17.7871 22.2456 17.9488 21.7882 18.2746 21.4405C18.5986 21.0923 19.0345 20.9185 19.5827 20.9185C19.8824 20.9185 20.1482 20.9772 20.3808 21.0935V21.6604C20.1233 21.4795 19.8511 21.39 19.559 21.39C19.2076 21.39 18.922 21.5127 18.7002 21.7575C18.4695 22.008 18.3526 22.3428 18.3526 22.7607C18.3526 23.162 18.4593 23.4796 18.6715 23.7141C18.8843 23.9473 19.1674 24.0643 19.5245 24.0643C19.8261 24.0643 20.1086 23.9652 20.3731 23.7678V24.2924Z" fill="black"/>
<path d="M23.0078 21.5625C22.9106 21.4877 22.7707 21.4513 22.586 21.4513C22.3618 21.4513 22.1732 21.5516 22.0205 21.7542C21.8473 21.9804 21.7611 22.2935 21.7611 22.6935V24.452H21.209V21.0027H21.7611V21.7139H21.7744C21.8556 21.4622 21.9808 21.2685 22.1482 21.1312C22.3048 21.0059 22.4818 20.9426 22.6767 20.9426C22.8236 20.9426 22.9329 20.9585 23.0077 20.9897V21.5622L23.0078 21.5625Z" fill="black"/>
<path d="M26.0847 22.7336C26.0847 22.2921 25.985 21.9547 25.7857 21.7234C25.5921 21.501 25.3217 21.3898 24.9735 21.3898C24.6303 21.3898 24.3549 21.5023 24.1491 21.7272C23.9313 21.9675 23.8226 22.3068 23.8226 22.7471C23.8226 23.1599 23.9262 23.4838 24.1351 23.7151C24.3428 23.9477 24.6227 24.064 24.9735 24.064C25.3365 24.064 25.6144 23.9458 25.8048 23.7107C25.9914 23.4806 26.0847 23.1554 26.0847 22.7336ZM26.6509 22.7142C26.6509 23.2637 26.4956 23.7053 26.1863 24.0363C25.8758 24.3686 25.4579 24.5348 24.9326 24.5348C24.415 24.5348 24.0028 24.3686 23.7006 24.0363C23.4047 23.7162 23.2559 23.2931 23.2559 22.7673C23.2559 22.1672 23.4239 21.7046 23.7613 21.3761C24.0731 21.0713 24.4904 20.918 25.0131 20.918C25.5275 20.918 25.9295 21.0783 26.2189 21.396C26.5058 21.7154 26.6509 22.1551 26.6509 22.7142Z" fill="black"/>
<path d="M29.3894 23.5292C29.3894 23.8116 29.284 24.0455 29.0725 24.2321C28.8419 24.434 28.5249 24.535 28.1262 24.535C27.7996 24.535 27.5133 24.4666 27.2705 24.3273V23.7337C27.5408 23.9535 27.8392 24.0641 28.1671 24.0641C28.6041 24.0641 28.8233 23.903 28.8233 23.5823C28.8233 23.4474 28.7752 23.3356 28.6783 23.2493C28.5811 23.1611 28.3926 23.0557 28.1121 22.9324C27.8233 22.8058 27.6175 22.6761 27.4961 22.5413C27.3504 22.3815 27.2769 22.1739 27.2769 21.9183C27.2769 21.632 27.3913 21.3936 27.6175 21.2039C27.8443 21.0134 28.1357 20.9182 28.4936 20.9182C28.7677 20.9182 29.0131 20.9719 29.231 21.0799V21.6358C29.0035 21.4716 28.7434 21.3898 28.4482 21.3898C28.2655 21.3898 28.1185 21.4353 28.0092 21.524C27.8987 21.6147 27.8431 21.7304 27.8431 21.8716C27.8431 22.0244 27.8896 22.1432 27.9817 22.2282C28.0635 22.3068 28.2373 22.4026 28.4993 22.5144C28.7939 22.6378 29.0067 22.7656 29.1364 22.8966C29.3045 23.0621 29.3894 23.273 29.3894 23.5292Z" fill="black"/>
<path d="M32.7634 22.7336C32.7634 22.2921 32.6637 21.9547 32.4638 21.7234C32.2708 21.501 31.9998 21.3898 31.6522 21.3898C31.3091 21.3898 31.0337 21.5023 30.8266 21.7272C30.6094 21.9675 30.5013 22.3068 30.5013 22.7471C30.5013 23.1599 30.6049 23.4838 30.8119 23.7151C31.0222 23.9477 31.3021 24.064 31.6522 24.064C32.0158 24.064 32.2931 23.9458 32.4835 23.7107C32.6701 23.4806 32.7634 23.1554 32.7634 22.7336ZM33.3309 22.7142C33.3309 23.2637 33.1743 23.7053 32.8644 24.0363C32.5551 24.3686 32.1372 24.5348 31.6119 24.5348C31.0937 24.5348 30.6815 24.3686 30.3793 24.0363C30.0834 23.7162 29.9346 23.2931 29.9346 22.7673C29.9346 22.1672 30.1039 21.7046 30.4394 21.3761C30.7512 21.0713 31.1691 20.918 31.6925 20.918C32.2069 20.918 32.6082 21.0783 32.897 21.396C33.1846 21.7154 33.3309 22.1551 33.3309 22.7142Z" fill="black"/>
<path d="M35.7641 19.8307C35.6555 19.7706 35.5348 19.74 35.3973 19.74C35.0107 19.74 34.819 19.9834 34.819 20.471V21.0026H35.6274V21.4704H34.819V24.452H34.2663V21.4704H33.6797V21.0026H34.2663V20.4435C34.2663 20.0639 34.3826 19.7662 34.619 19.5514C34.8216 19.3648 35.0695 19.2722 35.3641 19.2722C35.5348 19.2722 35.6677 19.2927 35.7641 19.3323V19.8307Z" fill="black"/>
<path d="M37.9432 24.4172C37.8128 24.492 37.639 24.5291 37.4243 24.5291C36.8224 24.5291 36.5214 24.1898 36.5214 23.5111V21.4708H35.9297V21.0024H36.5214V20.1609C36.6978 20.1052 36.8811 20.0446 37.0748 19.9819V21.0024H37.9432V21.4708H37.0748V23.4172C37.0748 23.6486 37.1126 23.814 37.1917 23.9099C37.2716 24.0089 37.402 24.0575 37.586 24.0575C37.7234 24.0575 37.8422 24.0207 37.9432 23.9463V24.4172Z" fill="black"/>
<path d="M8.09637 37.9144C8.09637 38.1847 7.99991 38.4185 7.80498 38.616C7.61072 38.8128 7.37491 38.9119 7.09824 38.9119C6.82792 38.9119 6.59787 38.8128 6.40939 38.616C6.22086 38.4185 6.12695 38.1847 6.12695 37.9144C6.12695 37.6365 6.22086 37.4019 6.40939 37.2077C6.59787 37.0127 6.82792 36.9163 7.09824 36.9163C7.37491 36.9163 7.61072 37.0141 7.80498 37.2115C7.99991 37.409 8.09637 37.6435 8.09637 37.9144Z" fill="black"/>
<path d="M20.4579 38.7089H18.6572L12.1208 28.6145C11.9681 28.3717 11.8365 28.1078 11.7247 27.8196H11.6709C11.7175 28.0899 11.7413 28.6701 11.7413 29.559V38.7089H10.2568V26.0444H12.1835L18.5243 35.9797C18.7767 36.3739 18.9492 36.6564 19.0368 36.8264H19.072C19.0133 36.4621 18.9826 35.841 18.9826 34.9643V26.0444H20.4581V38.7089H20.4579Z" fill="black"/>
<path d="M29.9748 38.7089H23.2627V26.0444H29.6834V27.3863H24.7459V31.5993H29.3211V32.9419H24.7459V37.3663H29.9748V38.7089Z" fill="black"/>
<path d="M40.1561 27.3865H36.508V38.709H35.0243V27.3865H31.3691V26.0439H40.1561V27.3865Z" fill="black"/>
<path d="M19.9551 4.16999C21.3871 8.54907 21.9296 16.3609 26.117 16.3609C26.4359 16.3609 26.7579 16.3297 27.0813 16.2683C23.2747 15.3807 22.8236 7.6538 20.5008 3.65234C20.3187 3.81786 20.1378 3.99039 19.9551 4.16999Z" fill="url(#paint0_linear_6204_14734)"/>
<path d="M20.5 3.65247C22.8228 7.65393 23.2739 15.3808 27.0805 16.2684C27.3795 16.2134 27.6792 16.1304 27.9796 16.0256C24.5628 14.3514 23.6183 6.84816 20.9805 3.23584C20.8208 3.3688 20.6604 3.50811 20.5 3.65247Z" fill="url(#paint1_linear_6204_14734)"/>
<path d="M23.8473 1.27271C23.5291 1.27271 23.2064 1.30388 22.8825 1.36539C22.0351 1.52514 21.1744 1.88998 20.3066 2.44208C20.5437 2.67596 20.7692 2.94368 20.9814 3.23573C21.8639 2.50343 22.7406 1.96221 23.6141 1.63693C23.9419 1.51553 24.2685 1.42417 24.5963 1.36411C24.3598 1.30398 24.1106 1.27271 23.8473 1.27271Z" fill="#14559A"/>
<path d="M30.6471 14.4822C30.9966 14.2042 31.3468 13.8969 31.6976 13.5614C30.2426 9.20272 29.7218 1.27905 25.505 1.27905C25.2034 1.27905 24.8992 1.30717 24.5957 1.36339C28.4368 2.31874 28.9288 10.6756 30.6471 14.4822Z" fill="url(#paint2_linear_6204_14734)"/>
<path d="M24.5956 1.3638C24.3592 1.30374 24.11 1.27246 23.8467 1.27246L25.5049 1.27854C25.2033 1.27854 24.8991 1.30665 24.5956 1.36355" fill="#3092C4"/>
<path d="M30.5732 15.4083C30.4083 15.2511 30.2518 15.0786 30.0978 14.8945C29.3885 15.3968 28.6817 15.7776 27.9795 16.0256C28.2293 16.1476 28.4913 16.2384 28.7693 16.2946C28.9846 16.3386 29.2077 16.3611 29.4421 16.3611C30.2301 16.3611 30.8531 16.2678 31.3834 16.0135C31.0914 15.8556 30.8237 15.6511 30.5732 15.4083Z" fill="#1969BC"/>
<path d="M23.6133 1.63769C27.0537 3.43712 27.3527 11.5857 30.0979 14.8945C30.282 14.7648 30.4641 14.6274 30.6462 14.4823C28.9279 10.6758 28.4365 2.3182 24.5961 1.36353C24.2683 1.42487 23.9411 1.51566 23.6133 1.63769Z" fill="url(#paint3_linear_6204_14734)"/>
<path d="M20.9814 3.23582C23.6193 6.84814 24.5637 14.3514 27.9805 16.0255C28.6827 15.7776 29.3895 15.3968 30.0988 14.8945C27.3536 11.5857 27.0546 3.43713 23.6141 1.6377C22.7406 1.9623 21.8639 2.50352 20.9814 3.23582Z" fill="url(#paint4_linear_6204_14734)"/>
<path d="M18.2673 4.06469C17.8538 4.99959 17.4315 6.22837 16.9209 7.83228C17.9363 6.40152 18.9485 5.1689 19.9549 4.17016C19.8162 3.74392 19.6674 3.35095 19.507 3.00073C19.0954 3.31578 18.6807 3.67045 18.2673 4.06469Z" fill="url(#paint5_linear_6204_14734)"/>
<path d="M19.873 2.7312C19.7515 2.8181 19.6295 2.90695 19.5068 3.00086C19.6672 3.35104 19.8154 3.74405 19.9541 4.17024C20.1368 3.99132 20.3183 3.81816 20.4998 3.65264C20.3049 3.3178 20.0979 3.00852 19.873 2.7312Z" fill="#2B74B1"/>
<path d="M20.3063 2.44214C20.1619 2.53354 20.0181 2.63 19.873 2.73096C20.098 3.00829 20.305 3.31757 20.5006 3.65308C20.661 3.508 20.8213 3.36808 20.9811 3.23578C20.7689 2.94378 20.5434 2.67601 20.3063 2.44214Z" fill="#125A9E"/>
<path d="M43.7729 0.939259C41.8271 8.44308 37.763 14.4702 34.3558 15.9897H34.3494C34.2874 16.0179 34.226 16.0434 34.1653 16.0683C34.157 16.0734 34.1494 16.074 34.1429 16.077C34.125 16.0843 34.1084 16.0898 34.0905 16.097C34.0822 16.102 34.0746 16.1037 34.0669 16.1067C34.0382 16.117 34.0101 16.1257 33.9819 16.1369C33.9698 16.142 33.9583 16.1451 33.9468 16.1492C33.934 16.1542 33.9193 16.1589 33.9046 16.163C33.8918 16.168 33.8784 16.1717 33.8637 16.1773C33.8515 16.1823 33.8388 16.1845 33.8273 16.1896C33.8023 16.1968 33.7794 16.2029 33.7544 16.2115C33.7442 16.2115 33.7347 16.2171 33.7238 16.2198C33.7084 16.2248 33.6912 16.2285 33.6746 16.2331C33.663 16.2381 33.6535 16.2398 33.6413 16.2423C33.624 16.2474 33.6049 16.252 33.5876 16.2561C33.5646 16.2612 33.5442 16.2659 33.5225 16.2704C33.6765 16.3273 33.8369 16.356 34.01 16.356C37.2408 16.356 40.4984 10.566 45.8885 0.9375H43.7721L43.7729 0.939259Z" fill="url(#paint6_linear_6204_14734)"/>
<path d="M16.2191 1.57725C16.2211 1.57725 16.2236 1.57219 16.2249 1.57219C16.2274 1.57219 16.2313 1.57219 16.2326 1.56713H16.2366C16.2545 1.56105 16.2712 1.55384 16.289 1.54719C16.2936 1.54719 16.296 1.54719 16.2993 1.54213C16.3039 1.54213 16.3083 1.53706 16.3127 1.53643C16.3319 1.53035 16.3511 1.52314 16.369 1.51649H16.372C16.4149 1.50372 16.4544 1.48787 16.496 1.47305C16.5018 1.47305 16.5075 1.46799 16.5145 1.46799C16.5318 1.46242 16.5497 1.45621 16.5675 1.45214C16.5759 1.44708 16.5841 1.44708 16.5918 1.44442C16.6103 1.43885 16.6283 1.43265 16.6455 1.42857C16.6532 1.42857 16.6602 1.42351 16.6659 1.423C16.7254 1.40665 16.7841 1.3913 16.8436 1.37699C16.8519 1.37699 16.8589 1.37192 16.8679 1.37142C16.8851 1.36635 16.9011 1.3637 16.9196 1.36116C16.9273 1.3561 16.9362 1.3561 16.9452 1.35344C16.9624 1.34838 16.979 1.34787 16.9976 1.3437H17.0097C17.0455 1.33648 17.0819 1.3304 17.1177 1.32376H17.1394C17.1567 1.3187 17.172 1.31819 17.1893 1.31502C17.1988 1.31502 17.2085 1.30996 17.2174 1.30996C17.2334 1.30996 17.2494 1.3049 17.2653 1.30275C17.2737 1.30275 17.2819 1.30275 17.2915 1.29768C17.3292 1.29262 17.3682 1.29059 17.4078 1.28743C17.296 1.27667 17.181 1.26953 17.064 1.26953C13.4255 1.26953 8.41254 8.02061 6.1543 16.7635H6.58946C7.31218 15.4746 7.96141 14.2554 8.55504 13.1109C10.1366 6.91834 13.3578 2.69513 16.2193 1.57625" fill="url(#paint7_linear_6204_14734)"/>
<path d="M18.2676 4.0645C18.681 3.67026 19.0957 3.31559 19.5072 3.00059C19.4133 2.79483 19.3162 2.6044 19.212 2.42993C18.8791 2.83378 18.575 3.36672 18.2676 4.0645Z" fill="#0D82CA"/>
<path d="M18.5655 1.62836C18.8033 1.82772 19.016 2.10188 19.2109 2.43033C19.2723 2.35493 19.3343 2.28526 19.3988 2.22008C19.1285 1.96769 18.8365 1.76065 18.5195 1.60474C18.5323 1.61182 18.5451 1.61752 18.5584 1.62314C18.5584 1.62314 18.5634 1.6282 18.5656 1.6282" fill="#0D82CA"/>
<path d="M8.55469 13.1116C11.8724 6.71835 13.4444 2.67216 16.2189 1.5769C13.3581 2.69649 10.1362 6.91965 8.55469 13.1116Z" fill="url(#paint8_linear_6204_14734)"/>
<path d="M19.3988 2.21997C19.3343 2.28582 19.273 2.35483 19.2109 2.43024C19.3151 2.60465 19.4122 2.79446 19.5068 3.00084C19.6295 2.90693 19.7515 2.81808 19.8729 2.73119C19.7228 2.54587 19.5643 2.374 19.3988 2.21997Z" fill="#127BCA"/>
<path d="M10.0608 16.7354C10.0403 16.7405 10.0199 16.7405 10.0007 16.7426H9.9892C9.97192 16.7426 9.95403 16.7477 9.93808 16.7477H9.92975C9.88824 16.7527 9.84732 16.7527 9.8077 16.7559H9.79492C13.1529 16.6619 14.6878 14.9807 15.4495 12.5422C16.0284 10.6936 16.5038 9.13634 16.9205 7.82959C15.514 9.80924 14.1012 12.1691 12.6807 14.8126C11.9957 16.0868 10.9541 16.6191 10.0607 16.7329" fill="url(#paint9_linear_6204_14734)"/>
<path d="M10.0605 16.7341C10.9539 16.6203 11.9955 16.0887 12.6805 14.8139C14.101 12.1709 15.5145 9.81046 16.9196 7.83081C17.4308 6.22625 17.8526 4.99813 18.2667 4.06323C15.4659 6.72917 12.6543 11.162 10.0605 16.7328" fill="url(#paint10_linear_6204_14734)"/>
<path d="M8.55445 13.1118C7.96084 14.2563 7.31161 15.4755 6.58887 16.7644H7.85476C8.02218 15.4844 8.25989 14.2639 8.55445 13.1124" fill="#05A1E6"/>
<path d="M17.2914 1.30106C17.2811 1.30106 17.2735 1.30612 17.2646 1.30612C17.2492 1.31118 17.2332 1.31118 17.2173 1.31283C17.2078 1.31283 17.1988 1.31283 17.1891 1.31789C17.1719 1.32295 17.1559 1.32346 17.1393 1.32663C17.1316 1.32663 17.124 1.32663 17.1176 1.33169C17.0811 1.33776 17.0454 1.34447 17.0096 1.3506H16.9974C16.9789 1.35566 16.9623 1.35832 16.945 1.36085C16.936 1.36592 16.9271 1.36592 16.9188 1.36794C16.9016 1.37301 16.8843 1.37516 16.8677 1.3782C16.8587 1.38326 16.8517 1.38326 16.8434 1.38376C16.784 1.39808 16.7252 1.41342 16.6658 1.42978C16.6594 1.42978 16.653 1.43484 16.6453 1.43585C16.6274 1.44092 16.6102 1.44611 16.5916 1.4517C16.5839 1.45676 16.575 1.45676 16.5674 1.45879C16.5495 1.46385 16.5316 1.46904 16.5143 1.47464C16.5074 1.47464 16.5015 1.4797 16.4952 1.4797C16.4543 1.49503 16.414 1.51037 16.3718 1.52316C16.3539 1.52873 16.3348 1.53593 16.3156 1.54257C16.3079 1.54764 16.3009 1.54878 16.292 1.55232C16.2741 1.55789 16.2562 1.56511 16.2396 1.57175C16.2332 1.57682 16.2268 1.57732 16.2223 1.57998C13.4478 2.67523 11.8758 6.72142 8.55811 13.1147C8.26353 14.2662 8.02518 15.4867 7.8584 16.7666H8.03604C8.53638 16.7666 8.6776 16.7615 9.25335 16.7615H9.28274H9.36837H9.39776H9.40609H9.43549H9.4521H9.46361H9.48661H9.55818H9.62975H9.68981H9.70576H9.8112C9.85082 16.7565 9.89171 16.7565 9.93325 16.7533H9.94092C9.9582 16.7533 9.97543 16.7482 9.99204 16.7482H10.0042C10.0227 16.7482 10.0438 16.7432 10.0642 16.741C12.6579 11.1702 15.4696 6.73737 18.2703 4.07144C18.5783 3.37365 18.8819 2.84071 19.2142 2.43752C19.0199 2.10908 18.8071 1.83431 18.5694 1.63489C18.5694 1.63489 18.5629 1.63489 18.5624 1.62983C18.549 1.62426 18.5363 1.61755 18.5228 1.61092C18.5094 1.6037 18.4979 1.59813 18.4839 1.59098C18.4717 1.58592 18.4576 1.57921 18.4455 1.57257C18.4289 1.56751 18.4155 1.5603 18.4008 1.55365C18.3886 1.54859 18.3778 1.5434 18.3656 1.53832C18.3407 1.52857 18.3158 1.51838 18.2921 1.50765C18.2813 1.50259 18.2711 1.49993 18.2608 1.49588C18.2436 1.48968 18.2237 1.48156 18.2058 1.47389C18.1969 1.46883 18.1867 1.46782 18.1765 1.46414C18.1503 1.45541 18.1247 1.44626 18.1004 1.43807H18.0941C18.0647 1.42832 18.0359 1.42121 18.0059 1.41302C17.9989 1.40795 17.9931 1.40795 17.9861 1.40694C17.9599 1.39973 17.9369 1.39263 17.912 1.38598C17.9056 1.38598 17.8998 1.38092 17.8947 1.38092C17.8347 1.36507 17.7727 1.3523 17.7101 1.34054C17.7036 1.34054 17.6973 1.33547 17.6909 1.33547C17.6641 1.33041 17.6379 1.32573 17.611 1.32269C17.6046 1.31763 17.6008 1.31763 17.5951 1.31763C17.5631 1.31256 17.5318 1.30889 17.5005 1.30535H17.4839C17.4583 1.30028 17.4347 1.29978 17.411 1.29712C17.3708 1.30218 17.3325 1.30433 17.2947 1.30788" fill="url(#paint11_linear_6204_14734)"/>
<path d="M36.1726 5.09335C35.5342 7.13817 35.0172 8.82514 34.5674 10.2131C36.3189 7.80274 38.0442 4.77062 39.6871 1.27148C37.7707 1.87337 36.7483 3.25112 36.1726 5.09335Z" fill="url(#paint12_linear_6204_14734)"/>
<path d="M34.6235 15.8619C34.5341 15.9074 34.4446 15.9507 34.3564 15.9897C37.7636 14.4701 41.8277 8.44303 43.7735 0.939209H43.3792C38.9087 8.92484 37.471 14.2708 34.6235 15.8619Z" fill="url(#paint13_linear_6204_14734)"/>
<path d="M32.3979 15.191C33.1391 14.2862 33.7429 12.7481 34.5673 10.2131C33.6164 11.5193 32.6593 12.642 31.7014 13.5577C31.7014 13.5628 31.7014 13.5628 31.6963 13.5659C31.9053 14.1921 32.1346 14.7449 32.396 15.1909" fill="#079AE1"/>
<path d="M32.3985 15.1909C32.1461 15.4989 31.879 15.7335 31.5819 15.9073C31.5167 15.9451 31.4509 15.9807 31.3838 16.0133C31.6976 16.1827 32.04 16.2958 32.4234 16.3411C32.4796 16.3467 32.5352 16.3519 32.5934 16.356H32.6037C32.6297 16.356 32.6573 16.356 32.6855 16.361H32.6967H32.7805H32.8706H32.8987H32.9626C32.9729 16.361 32.9836 16.361 32.9938 16.356C33.0137 16.356 33.0347 16.356 33.0551 16.3509H33.0623H33.0853C33.1063 16.3509 33.1293 16.3458 33.1518 16.3437H33.1569C33.1636 16.3437 33.1707 16.3386 33.1773 16.3386C33.2008 16.3336 33.2254 16.3314 33.2483 16.3279H33.2692C33.2953 16.3228 33.3222 16.3196 33.3491 16.3146H33.3541H33.3619C33.4156 16.3043 33.4679 16.2941 33.521 16.2808C33.0813 16.1198 32.7133 15.7402 32.3963 15.1996" fill="#1969BC"/>
<path d="M26.1172 16.3611C26.4361 16.3611 26.7581 16.33 27.0815 16.2679C27.3805 16.2136 27.6802 16.1304 27.9805 16.0256C28.2304 16.1477 28.4924 16.2385 28.7697 16.2947C28.985 16.3386 29.2087 16.3611 29.4432 16.3611H26.1172Z" fill="#1E5CB3"/>
<path d="M29.4427 16.361C30.2299 16.361 30.8536 16.2678 31.3834 16.0134C31.6971 16.1827 32.0396 16.2959 32.423 16.3413C32.4792 16.3468 32.5349 16.352 32.593 16.3561H32.6032C32.6293 16.3561 32.6569 16.3561 32.685 16.3611H32.6968H32.7805H29.4404L29.4427 16.361Z" fill="#1E5CB3"/>
<path d="M32.7822 16.3612H32.873H32.9011H32.9644C32.9751 16.3612 32.9853 16.3612 32.9956 16.3562C33.0155 16.3562 33.0365 16.3562 33.0576 16.3511H33.0643H33.0878C33.1087 16.3511 33.1318 16.346 33.1536 16.344H33.1592C33.1659 16.344 33.1725 16.339 33.1791 16.339C33.2027 16.3339 33.2272 16.3319 33.25 16.3282C33.2578 16.3282 33.2638 16.3282 33.272 16.3231C33.2981 16.3181 33.3251 16.3154 33.3519 16.3104H33.357H33.3647C33.4184 16.3001 33.4708 16.2899 33.5238 16.2766C33.6778 16.3335 33.8382 16.3622 34.0113 16.3622L32.7832 16.3673L32.7822 16.3612Z" fill="#1D60B5"/>
<path d="M31.699 13.5661V13.561C31.3482 13.8965 30.998 14.2039 30.6485 14.4818C30.4657 14.6269 30.2836 14.7643 30.0996 14.894C30.2536 15.078 30.4102 15.2506 30.575 15.4078C30.8255 15.6505 31.0932 15.8551 31.3853 16.0129C31.4517 15.9802 31.5182 15.9445 31.5827 15.9068C31.8805 15.733 32.1476 15.4985 32.4 15.1905C32.1386 14.7445 31.9093 14.1917 31.7003 13.5655" fill="#175FAB"/>
<path d="M42.1298 0.939209H40.4722H40.3074H40.1514H40.1454C40.038 0.944272 39.9339 0.947943 39.831 0.954551C39.7824 1.05874 39.7326 1.16292 39.6846 1.26772C38.0418 4.76685 36.3164 7.79897 34.5649 10.2093C33.7413 12.7442 33.1368 14.2823 32.3955 15.1872C32.7125 15.7278 33.0812 16.1079 33.5195 16.269C33.5323 16.2639 33.5425 16.2639 33.554 16.2612H33.5611C33.5688 16.2612 33.5771 16.2562 33.5854 16.2562C33.6033 16.2511 33.6225 16.248 33.6404 16.2424C33.6519 16.2373 33.6614 16.2368 33.673 16.2331C33.6896 16.2281 33.7068 16.2244 33.7222 16.2204C33.7324 16.2153 33.7426 16.2137 33.7528 16.2116C33.7784 16.2034 33.8014 16.1973 33.8257 16.1896C33.8372 16.1846 33.8493 16.1804 33.8621 16.1774C33.8762 16.1723 33.8902 16.1686 33.903 16.1625C33.9177 16.1575 33.9324 16.1548 33.9452 16.1492C33.9567 16.1442 33.9688 16.141 33.9797 16.1365C34.0084 16.1262 34.0366 16.1176 34.0653 16.1063C34.073 16.1063 34.0807 16.0992 34.089 16.0976C34.1062 16.0903 34.1241 16.0848 34.1414 16.0771C34.1477 16.072 34.1554 16.0715 34.1637 16.0689C34.2238 16.0438 34.2858 16.0183 34.3478 15.9903H34.3542C34.4424 15.9515 34.5319 15.9079 34.6207 15.8625C37.4687 14.2714 38.9065 8.92546 43.377 0.939829H42.1284L42.1298 0.939209Z" fill="url(#paint14_linear_6204_14734)"/>
<path d="M17.4082 1.29015C17.4153 1.29015 17.4216 1.29015 17.4286 1.29521C17.4459 1.29521 17.4632 1.29521 17.4804 1.30078H17.4977C17.529 1.30584 17.5603 1.3085 17.5923 1.31306C17.5981 1.31306 17.6031 1.31306 17.6082 1.31812C17.6344 1.32318 17.6612 1.32736 17.6881 1.33141C17.6939 1.33141 17.7015 1.33647 17.7079 1.33647C17.7693 1.34875 17.8319 1.36153 17.892 1.37737C17.8976 1.37737 17.9035 1.38244 17.9086 1.38244C17.9341 1.38851 17.9571 1.39623 17.9827 1.40339C17.9904 1.40339 17.9961 1.40845 18.0031 1.40959C18.0332 1.41731 18.0613 1.42493 18.0907 1.43464C18.092 1.43464 18.0937 1.43464 18.0971 1.4397C18.122 1.4473 18.1476 1.45708 18.1738 1.46577C18.1841 1.47083 18.1936 1.47298 18.2032 1.47551C18.2211 1.48323 18.2409 1.49084 18.2582 1.49801C18.2684 1.49801 18.2786 1.50509 18.2894 1.50877C18.3131 1.51953 18.338 1.52921 18.3623 1.53944C18.3751 1.5445 18.3859 1.5502 18.3981 1.55477C18.4121 1.56198 18.4268 1.56858 18.4422 1.57369C18.4549 1.57977 18.469 1.58646 18.4811 1.59208C18.4945 1.5993 18.5073 1.60487 18.5201 1.61202C18.8371 1.76794 19.1291 1.97564 19.3994 2.22741C19.4991 2.12261 19.6032 2.02865 19.7112 1.94431C19.1201 1.52512 18.4505 1.28613 17.6779 1.28613C17.5884 1.28613 17.499 1.2912 17.4082 1.2979" fill="#7DCBEC"/>
<path d="M19.3994 2.21987C19.5649 2.37384 19.7234 2.54577 19.8736 2.73108C20.0186 2.63012 20.1624 2.53298 20.3068 2.44225C20.1177 2.2531 19.9183 2.08312 19.7106 1.93677C19.6026 2.0205 19.4991 2.11507 19.3994 2.21987Z" fill="#5EC5ED"/>
<path d="M17.4073 1.29009C17.498 1.28243 17.5875 1.27923 17.6769 1.27923C18.4495 1.27923 19.1192 1.51822 19.7102 1.93677C20.3339 1.44473 21.0879 1.27284 22.1353 1.27284H17.0635C17.1804 1.27284 17.2948 1.27987 17.4073 1.29009Z" fill="url(#paint15_linear_6204_14734)"/>
<path d="M22.136 1.27276C21.0886 1.27276 20.3346 1.44465 19.7109 1.93669C19.918 2.08302 20.1173 2.25299 20.3065 2.44214C21.1749 1.89004 22.035 1.52453 22.883 1.36477C23.2063 1.30407 23.529 1.27276 23.8472 1.27276H22.136Z" fill="url(#paint16_linear_6204_14734)"/>
<path d="M34.5675 10.2145C35.0179 8.82532 35.5336 7.13902 36.1733 5.09352C36.7497 3.25064 37.7702 1.87294 39.6865 1.27166C39.7371 1.16875 39.7849 1.06267 39.8342 0.958496C36.71 1.14575 35.2499 2.73493 34.515 5.08842C33.23 9.19722 32.4517 11.8606 31.7021 13.5578C32.6594 12.6427 33.6166 11.5194 34.5675 10.2145Z" fill="url(#paint17_linear_6204_14734)"/>
<path d="M39.1506 15.2667H38.7966V16.3671H38.6522V15.2667H38.2969V15.1357H39.1506V15.2667Z" fill="black"/>
<path d="M40.6002 16.3668H40.4564V15.54C40.4564 15.4748 40.4615 15.3949 40.4682 15.301C40.4534 15.3572 40.4411 15.3962 40.4299 15.4211L40.0107 16.3668H39.9404L39.5199 15.4282C39.5076 15.4021 39.4954 15.3598 39.4821 15.301H39.477C39.4821 15.3506 39.4837 15.4307 39.4837 15.5419V16.3668H39.3457V15.1355H39.5361L39.9138 15.9949C39.9424 16.0595 39.9603 16.1093 39.9694 16.1426H39.9749C40 16.0748 40.0204 16.0243 40.0344 15.9911L40.4197 15.1355H40.6012V16.3668H40.6002Z" fill="black"/>
</g>
</g>
<path d="M12.3266 74.112C11.996 74.112 11.7186 74 11.4946 73.776C11.2706 73.552 11.1586 73.2747 11.1586 72.944C11.1586 72.6133 11.2706 72.336 11.4946 72.112C11.7186 71.888 11.996 71.776 12.3266 71.776C12.6466 71.776 12.9186 71.888 13.1426 72.112C13.3666 72.336 13.4786 72.6133 13.4786 72.944C13.4786 73.2747 13.3666 73.552 13.1426 73.776C12.9186 74 12.6466 74.112 12.3266 74.112ZM24.586 74H22.762L17.274 65.696V74H15.45V62.864H17.274L22.762 71.152V62.864H24.586V74ZM35.0613 69.376C35.0613 69.7067 35.0399 70.0053 34.9973 70.272H28.2613C28.3146 70.976 28.5759 71.5413 29.0453 71.968C29.5146 72.3947 30.0906 72.608 30.7733 72.608C31.7546 72.608 32.4479 72.1973 32.8533 71.376H34.8212C34.5546 72.1867 34.0693 72.8533 33.3653 73.376C32.6719 73.888 31.8079 74.144 30.7733 74.144C29.9306 74.144 29.1733 73.9573 28.5013 73.584C27.8399 73.2 27.3173 72.6667 26.9333 71.984C26.5599 71.2907 26.3733 70.4907 26.3733 69.584C26.3733 68.6773 26.5546 67.8827 26.9173 67.2C27.2906 66.5067 27.8079 65.9733 28.4693 65.6C29.1413 65.2267 29.9093 65.04 30.7733 65.04C31.6053 65.04 32.3466 65.2213 32.9973 65.584C33.6479 65.9467 34.1546 66.4587 34.5173 67.12C34.8799 67.7707 35.0613 68.5227 35.0613 69.376ZM33.1573 68.8C33.1466 68.128 32.9066 67.5893 32.4373 67.184C31.9679 66.7787 31.3866 66.576 30.6933 66.576C30.0639 66.576 29.5253 66.7787 29.0773 67.184C28.6293 67.5787 28.3626 68.1173 28.2773 68.8H33.1573ZM38.9843 66.672V71.552C38.9843 71.8827 39.0589 72.1227 39.2083 72.272C39.3683 72.4107 39.6349 72.48 40.0083 72.48H41.1283V74H39.6883C38.8669 74 38.2376 73.808 37.8003 73.424C37.3629 73.04 37.1443 72.416 37.1443 71.552V66.672H36.1043V65.184H37.1443V62.992H38.9843V65.184H41.1283V66.672H38.9843Z" fill="#434343"/>
<defs>
<linearGradient id="paint0_linear_6204_14734" x1="376.245" y1="-244.369" x2="376.245" y2="1651.01" gradientUnits="userSpaceOnUse">
<stop stop-color="#0994DC"/>
<stop offset="0.350006" stop-color="#66CEF5"/>
<stop offset="0.846161" stop-color="#127BCA"/>
<stop offset="1" stop-color="#127BCA"/>
</linearGradient>
<linearGradient id="paint1_linear_6204_14734" x1="394.484" y1="-251.11" x2="394.484" y2="1692.57" gradientUnits="userSpaceOnUse">
<stop stop-color="#0E76BC"/>
<stop offset="0.360001" stop-color="#36AEE8"/>
<stop offset="0.846161" stop-color="#00ADEF"/>
<stop offset="1" stop-color="#00ADEF"/>
</linearGradient>
<linearGradient id="paint2_linear_6204_14734" x1="379.686" y1="1465.79" x2="379.686" y2="-80.7646" gradientUnits="userSpaceOnUse">
<stop stop-color="#1C63B7"/>
<stop offset="0.5" stop-color="#33BDF2"/>
<stop offset="1" stop-color="#33BDF2" stop-opacity="0.419608"/>
</linearGradient>
<linearGradient id="paint3_linear_6204_14734" x1="375.265" y1="-262.693" x2="375.265" y2="1755.35" gradientUnits="userSpaceOnUse">
<stop stop-color="#166AB8"/>
<stop offset="0.399994" stop-color="#36AEE8"/>
<stop offset="0.846161" stop-color="#0798DD"/>
<stop offset="1" stop-color="#0798DD"/>
</linearGradient>
<linearGradient id="paint4_linear_6204_14734" x1="476.835" y1="-279.229" x2="476.835" y2="1866.69" gradientUnits="userSpaceOnUse">
<stop stop-color="#124379"/>
<stop offset="0.389999" stop-color="#1487CB"/>
<stop offset="0.780228" stop-color="#165197"/>
<stop offset="1" stop-color="#165197"/>
</linearGradient>
<linearGradient id="paint5_linear_6204_14734" x1="16.9218" y1="244.581" x2="320.322" y2="244.581" gradientUnits="userSpaceOnUse">
<stop stop-color="#33BDF2" stop-opacity="0.698039"/>
<stop offset="1" stop-color="#1DACD8"/>
</linearGradient>
<linearGradient id="paint6_linear_6204_14734" x1="651.942" y1="1460.86" x2="651.942" y2="-45.6971" gradientUnits="userSpaceOnUse">
<stop stop-color="#136AB4"/>
<stop offset="0.6" stop-color="#59CAF5" stop-opacity="0.54902"/>
<stop offset="1" stop-color="#59CAF5" stop-opacity="0.235294"/>
</linearGradient>
<linearGradient id="paint7_linear_6204_14734" x1="6.14573" y1="775.963" x2="1131.5" y2="775.963" gradientUnits="userSpaceOnUse">
<stop stop-color="#05A1E6" stop-opacity="0.247059"/>
<stop offset="1" stop-color="#05A1E6"/>
</linearGradient>
<linearGradient id="paint8_linear_6204_14734" x1="391.754" y1="1435.5" x2="391.754" y2="-107.096" gradientUnits="userSpaceOnUse">
<stop stop-color="#318ED5"/>
<stop offset="1" stop-color="#38A7E4"/>
</linearGradient>
<linearGradient id="paint9_linear_6204_14734" x1="366.063" y1="821.908" x2="366.063" y2="-677.58" gradientUnits="userSpaceOnUse">
<stop stop-color="#05A1E6"/>
<stop offset="1" stop-color="#05A1E6" stop-opacity="0.54902"/>
</linearGradient>
<linearGradient id="paint10_linear_6204_14734" x1="420.367" y1="1271.28" x2="420.367" y2="4.19238" gradientUnits="userSpaceOnUse">
<stop stop-color="#1959A6"/>
<stop offset="0.5" stop-color="#05A1E6"/>
<stop offset="0.917587" stop-color="#7EC5EA"/>
<stop offset="1" stop-color="#7EC5EA"/>
</linearGradient>
<linearGradient id="paint11_linear_6204_14734" x1="686.979" y1="1464.21" x2="257.468" y2="151.6" gradientUnits="userSpaceOnUse">
<stop stop-color="#165096"/>
<stop offset="1" stop-color="#0D82CA"/>
</linearGradient>
<linearGradient id="paint12_linear_6204_14734" x1="290.527" y1="689.756" x2="290.527" y2="-28.2262" gradientUnits="userSpaceOnUse">
<stop stop-color="#05A1E6"/>
<stop offset="0.873627" stop-color="#0495D6"/>
<stop offset="1" stop-color="#0495D6"/>
</linearGradient>
<linearGradient id="paint13_linear_6204_14734" x1="648.943" y1="-61.6925" x2="-20.2174" y2="1424.04" gradientUnits="userSpaceOnUse">
<stop stop-color="#38A7E4" stop-opacity="0.329412"/>
<stop offset="0.961533" stop-color="#0E88D3"/>
<stop offset="1" stop-color="#0E88D3"/>
</linearGradient>
<linearGradient id="paint14_linear_6204_14734" x1="581.654" y1="-3.59497" x2="581.654" y2="1562.76" gradientUnits="userSpaceOnUse">
<stop stop-color="#168CD4"/>
<stop offset="0.5" stop-color="#1C87CC"/>
<stop offset="1" stop-color="#154B8D"/>
</linearGradient>
<linearGradient id="paint15_linear_6204_14734" x1="101.63" y1="-134.543" x2="108.417" y2="29.7327" gradientUnits="userSpaceOnUse">
<stop stop-color="#97D6EE"/>
<stop offset="0.703293" stop-color="#55C1EA"/>
<stop offset="1" stop-color="#55C1EA"/>
</linearGradient>
<linearGradient id="paint16_linear_6204_14734" x1="48.2106" y1="-4.92541" x2="78.8907" y2="-178.939" gradientUnits="userSpaceOnUse">
<stop stop-color="#7ACCEC"/>
<stop offset="1" stop-color="#3FB7ED"/>
</linearGradient>
<linearGradient id="paint17_linear_6204_14734" x1="438.276" y1="81.1256" x2="438.276" y2="1613.18" gradientUnits="userSpaceOnUse">
<stop stop-color="#1DA7E7"/>
<stop offset="1" stop-color="#37ABE7" stop-opacity="0"/>
</linearGradient>
<clipPath id="clip0_6204_14734">
<rect width="40" height="40" fill="white" transform="translate(6)"/>
</clipPath>
<clipPath id="clip1_6204_14734">
<rect width="40" height="38.125" fill="white" transform="translate(6 0.9375)"/>
</clipPath>
</defs>
</svg>
