<?xml version="1.0" encoding="utf-8"?>
<!-- Generator: Adobe Illustrator 25.2.1, SVG Export Plug-In . SVG Version: 6.00 Build 0)  -->
<svg version="1.1" id="Layer_1" xmlns="http://www.w3.org/2000/svg" xmlns:xlink="http://www.w3.org/1999/xlink" x="0px" y="0px"
	 viewBox="0 0 24 24" style="enable-background:new 0 0 24 24;" xml:space="preserve">
<style type="text/css">
	.st0{fill:#002680;}
	.st1{opacity:0.65;}
	.st2{fill:url(#SVGID_1_);}
	.st3{fill:#FFFFFF;}
	.st4{fill:url(#SVGID_2_);}
	.st5{fill:url(#SVGID_3_);}
	.st6{fill:url(#SVGID_4_);}
	.st7{fill:url(#SVGID_5_);}
	.st8{fill:url(#SVGID_6_);}
	.st9{fill:url(#SVGID_7_);}
	.st10{fill:url(#SVGID_8_);}
	.st11{fill:url(#SVGID_9_);}
	.st12{fill:url(#SVGID_10_);}
	.st13{fill:url(#SVGID_11_);}
	.st14{fill:url(#SVGID_12_);}
	.st15{fill:url(#SVGID_13_);}
	.st16{fill:url(#SVGID_14_);}
	.st17{fill:url(#SVGID_15_);}
	.st18{fill:url(#SVGID_16_);}
	.st19{fill:url(#SVGID_17_);}
	.st20{fill:url(#SVGID_18_);}
	.st21{fill:url(#SVGID_19_);}
	.st22{fill:url(#SVGID_20_);}
	.st23{fill:url(#SVGID_21_);}
	.st24{fill:url(#SVGID_22_);}
	.st25{fill:url(#SVGID_23_);}
	.st26{fill:url(#SVGID_24_);}
	.st27{fill:url(#SVGID_25_);}
	.st28{fill:url(#SVGID_26_);}
	.st29{fill:url(#SVGID_27_);}
	.st30{fill:url(#SVGID_28_);}
	.st31{fill:url(#SVGID_29_);}
	.st32{fill:url(#SVGID_30_);}
	.st33{fill:url(#SVGID_31_);}
	.st34{fill:url(#SVGID_32_);}
	.st35{fill:url(#SVGID_33_);}
	.st36{fill:url(#SVGID_34_);}
	.st37{fill:url(#SVGID_35_);}
	.st38{fill:url(#SVGID_36_);}
	.st39{fill:url(#SVGID_37_);}
	.st40{fill:url(#SVGID_38_);}
	.st41{fill:url(#SVGID_39_);}
	.st42{fill:url(#SVGID_40_);}
	.st43{fill:url(#SVGID_41_);}
	.st44{fill:url(#SVGID_42_);}
	.st45{fill:url(#SVGID_43_);}
	.st46{fill:url(#SVGID_44_);}
	.st47{fill:url(#SVGID_45_);}
	.st48{fill:url(#SVGID_46_);}
	.st49{fill:url(#SVGID_47_);}
	.st50{fill:url(#SVGID_48_);}
	.st51{fill:url(#SVGID_49_);}
	.st52{fill:url(#SVGID_50_);}
	.st53{fill:url(#SVGID_51_);}
	.st54{fill:url(#SVGID_52_);}
	.st55{fill:url(#SVGID_53_);}
	.st56{fill:url(#SVGID_54_);}
	.st57{fill:url(#SVGID_55_);}
	.st58{fill:url(#SVGID_56_);}
	.st59{fill:url(#SVGID_57_);}
	.st60{fill:url(#SVGID_58_);}
	.st61{fill:url(#SVGID_59_);}
	.st62{fill:url(#SVGID_60_);}
	.st63{fill:url(#SVGID_61_);}
	.st64{fill:url(#SVGID_62_);}
	.st65{fill:url(#SVGID_63_);}
	.st66{fill:url(#SVGID_64_);}
	.st67{fill:url(#SVGID_65_);}
	.st68{fill:url(#SVGID_66_);}
	.st69{fill:url(#SVGID_67_);}
	.st70{fill:url(#SVGID_68_);}
	.st71{fill:url(#SVGID_69_);}
	.st72{fill:url(#SVGID_70_);}
	.st73{fill:url(#SVGID_71_);}
	.st74{fill:url(#SVGID_72_);}
	.st75{fill:url(#SVGID_73_);}
	.st76{fill:url(#SVGID_74_);}
	.st77{fill:url(#SVGID_75_);}
	.st78{fill:url(#SVGID_76_);}
	.st79{fill:url(#SVGID_77_);}
	.st80{fill:url(#SVGID_78_);}
	.st81{fill:url(#SVGID_79_);}
	.st82{fill:url(#SVGID_80_);}
	.st83{fill:url(#SVGID_81_);}
	.st84{fill:url(#SVGID_82_);}
	.st85{fill:url(#SVGID_83_);}
	.st86{fill:url(#SVGID_84_);}
	.st87{fill:url(#SVGID_85_);}
	.st88{fill:url(#SVGID_86_);}
	.st89{fill:url(#SVGID_87_);}
	.st90{fill:url(#SVGID_88_);}
	.st91{fill:url(#SVGID_89_);}
	.st92{fill:url(#SVGID_90_);}
	.st93{fill:url(#SVGID_91_);}
	.st94{fill:url(#SVGID_92_);}
	.st95{fill:url(#SVGID_93_);}
	.st96{fill:url(#SVGID_94_);}
	.st97{fill:url(#SVGID_95_);}
	.st98{fill:url(#SVGID_96_);}
	.st99{fill:url(#SVGID_97_);}
	.st100{fill:url(#SVGID_98_);}
	.st101{fill:url(#SVGID_99_);}
	.st102{fill:url(#SVGID_100_);}
	.st103{fill:url(#SVGID_101_);}
	.st104{fill:url(#SVGID_102_);}
	.st105{fill:url(#SVGID_103_);}
	.st106{fill:url(#SVGID_104_);}
	.st107{fill:url(#SVGID_105_);}
	.st108{fill:url(#SVGID_106_);}
	.st109{fill:url(#SVGID_107_);}
	.st110{fill:url(#SVGID_108_);}
	.st111{fill:url(#SVGID_109_);}
	.st112{fill:url(#SVGID_110_);}
	.st113{fill:url(#SVGID_111_);}
	.st114{fill:url(#SVGID_112_);}
	.st115{fill:url(#SVGID_113_);}
	.st116{fill:url(#SVGID_114_);}
	.st117{fill:url(#SVGID_115_);}
	.st118{fill:url(#SVGID_116_);}
	.st119{fill:url(#SVGID_117_);}
	.st120{fill:url(#SVGID_118_);}
	.st121{fill:url(#SVGID_119_);}
	.st122{fill:url(#SVGID_120_);}
	.st123{fill:url(#SVGID_121_);}
	.st124{fill:url(#SVGID_122_);}
	.st125{fill:url(#SVGID_123_);}
	.st126{fill:url(#SVGID_124_);}
	.st127{fill:url(#SVGID_125_);}
	.st128{fill:url(#SVGID_126_);}
	.st129{fill:url(#SVGID_127_);}
	.st130{fill:url(#SVGID_128_);}
	.st131{fill:url(#SVGID_129_);}
	.st132{fill:url(#SVGID_130_);}
	.st133{fill:url(#SVGID_131_);}
	.st134{fill:url(#SVGID_132_);}
	.st135{fill:url(#SVGID_133_);}
	.st136{fill:url(#SVGID_134_);}
	.st137{fill:url(#SVGID_135_);}
	.st138{fill:url(#SVGID_136_);}
	.st139{fill:url(#SVGID_137_);}
	.st140{fill:url(#SVGID_138_);}
	.st141{fill:url(#SVGID_139_);}
	.st142{fill:url(#SVGID_140_);}
	.st143{fill:url(#SVGID_141_);}
	.st144{fill:url(#SVGID_142_);}
	.st145{fill:url(#SVGID_143_);}
	.st146{fill:url(#SVGID_144_);}
	.st147{fill:url(#SVGID_145_);}
	.st148{fill:url(#SVGID_146_);}
	.st149{fill:url(#SVGID_147_);}
	.st150{fill:url(#SVGID_148_);}
	.st151{fill:url(#SVGID_149_);}
	.st152{fill:url(#SVGID_150_);}
	.st153{fill:url(#SVGID_151_);}
	.st154{fill:url(#SVGID_152_);}
	.st155{fill:url(#SVGID_153_);}
	.st156{fill:url(#SVGID_154_);}
	.st157{fill:url(#SVGID_155_);}
	.st158{fill:url(#SVGID_156_);}
	.st159{fill:url(#SVGID_157_);}
	.st160{fill:url(#SVGID_158_);}
	.st161{fill:url(#SVGID_159_);}
	.st162{fill:url(#SVGID_160_);}
	.st163{fill:url(#SVGID_161_);}
	.st164{fill:url(#SVGID_162_);}
	.st165{fill:url(#SVGID_163_);}
	.st166{fill:url(#SVGID_164_);}
	.st167{fill:url(#SVGID_165_);}
	.st168{fill:url(#SVGID_166_);}
	.st169{fill:url(#SVGID_167_);}
	.st170{fill:url(#SVGID_168_);}
	.st171{fill:url(#SVGID_169_);}
	.st172{fill:url(#SVGID_170_);}
	.st173{fill:url(#SVGID_171_);}
	.st174{fill:url(#SVGID_172_);}
	.st175{fill:url(#SVGID_173_);}
	.st176{fill:url(#SVGID_174_);}
	.st177{fill:url(#SVGID_175_);}
	.st178{fill:url(#SVGID_176_);}
	.st179{fill:url(#SVGID_177_);}
	.st180{fill:url(#SVGID_178_);}
	.st181{fill:url(#SVGID_179_);}
	.st182{fill:url(#SVGID_180_);}
	.st183{fill:url(#SVGID_181_);}
	.st184{fill:url(#SVGID_182_);}
	.st185{fill:url(#SVGID_183_);}
	.st186{fill:url(#SVGID_184_);}
	.st187{fill:url(#SVGID_185_);}
	.st188{fill:url(#SVGID_186_);}
	.st189{fill:url(#SVGID_187_);}
	.st190{fill:url(#SVGID_188_);}
	.st191{fill:url(#SVGID_189_);}
	.st192{fill:url(#SVGID_190_);}
	.st193{fill:url(#SVGID_191_);}
	.st194{fill:url(#SVGID_192_);}
	.st195{fill:url(#SVGID_193_);}
	.st196{fill:url(#SVGID_194_);}
	.st197{fill:url(#SVGID_195_);}
	.st198{fill:url(#SVGID_196_);}
	.st199{fill:url(#SVGID_197_);}
	.st200{fill:url(#SVGID_198_);}
	.st201{fill:url(#SVGID_199_);}
	.st202{fill:url(#SVGID_200_);}
	.st203{fill:url(#SVGID_201_);}
	.st204{fill:url(#SVGID_202_);}
	.st205{fill:url(#SVGID_203_);}
	.st206{fill:url(#SVGID_204_);}
	.st207{fill:url(#SVGID_205_);}
	.st208{fill:url(#SVGID_206_);}
	.st209{fill:url(#SVGID_207_);}
	.st210{fill:url(#SVGID_208_);}
	.st211{fill:url(#SVGID_209_);}
	.st212{fill:url(#SVGID_210_);}
	.st213{fill:url(#SVGID_211_);}
	.st214{fill:url(#SVGID_212_);}
	.st215{fill:url(#SVGID_213_);}
	.st216{fill:url(#SVGID_214_);}
	.st217{fill:url(#SVGID_215_);}
	.st218{fill:url(#SVGID_216_);}
	.st219{fill:url(#SVGID_217_);}
	.st220{fill:url(#SVGID_218_);}
	.st221{fill:url(#SVGID_219_);}
	.st222{fill:url(#SVGID_220_);}
	.st223{fill:url(#SVGID_221_);}
	.st224{fill:url(#SVGID_222_);}
	.st225{fill:url(#SVGID_223_);}
	.st226{fill:url(#SVGID_224_);}
	.st227{fill:url(#SVGID_225_);}
	.st228{fill:url(#SVGID_226_);}
	.st229{fill:url(#SVGID_227_);}
	.st230{fill:url(#SVGID_228_);}
	.st231{fill:url(#SVGID_229_);}
	.st232{fill:url(#SVGID_230_);}
	.st233{fill:url(#SVGID_231_);}
	.st234{fill:url(#SVGID_232_);}
	.st235{fill:url(#SVGID_233_);}
	.st236{fill:url(#SVGID_234_);}
	.st237{fill:url(#SVGID_235_);}
	.st238{fill:url(#SVGID_236_);}
	.st239{fill:url(#SVGID_237_);}
	.st240{fill:url(#SVGID_238_);}
	.st241{fill:url(#SVGID_239_);}
	.st242{fill:url(#SVGID_240_);}
	.st243{fill:url(#SVGID_241_);}
	.st244{fill:url(#SVGID_242_);}
	.st245{fill:url(#SVGID_243_);}
	.st246{fill:url(#SVGID_244_);}
	.st247{fill:url(#SVGID_245_);}
	.st248{fill:url(#SVGID_246_);}
	.st249{fill:url(#SVGID_247_);}
	.st250{fill-rule:evenodd;clip-rule:evenodd;fill:#002680;}
	.st251{fill-rule:evenodd;clip-rule:evenodd;fill:url(#SVGID_248_);}
	.st252{fill-rule:evenodd;clip-rule:evenodd;fill:url(#SVGID_249_);}
	.st253{fill-rule:evenodd;clip-rule:evenodd;fill:url(#SVGID_250_);}
	.st254{fill-rule:evenodd;clip-rule:evenodd;fill:url(#SVGID_251_);}
	.st255{fill-rule:evenodd;clip-rule:evenodd;fill:url(#SVGID_252_);}
	.st256{fill-rule:evenodd;clip-rule:evenodd;fill:url(#SVGID_253_);}
	.st257{fill-rule:evenodd;clip-rule:evenodd;fill:url(#SVGID_254_);}
	.st258{fill-rule:evenodd;clip-rule:evenodd;fill:url(#SVGID_255_);}
	.st259{fill-rule:evenodd;clip-rule:evenodd;fill:url(#SVGID_256_);}
	.st260{fill-rule:evenodd;clip-rule:evenodd;fill:#FFFFFF;}
	.st261{fill:url(#SVGID_257_);}
	.st262{fill:url(#SVGID_258_);}
	.st263{fill:url(#SVGID_259_);}
	.st264{fill:url(#SVGID_260_);}
	.st265{fill:url(#SVGID_261_);}
	.st266{fill:url(#SVGID_262_);}
	.st267{fill:url(#SVGID_263_);}
	.st268{fill:url(#SVGID_264_);}
	.st269{fill:url(#SVGID_265_);}
	.st270{fill:url(#SVGID_266_);}
	.st271{fill:url(#SVGID_267_);}
	.st272{fill:url(#SVGID_268_);}
	.st273{fill:url(#SVGID_269_);}
	.st274{fill:url(#SVGID_270_);}
	.st275{fill:url(#SVGID_271_);}
	.st276{fill:url(#SVGID_272_);}
	.st277{fill:url(#SVGID_273_);}
	.st278{fill:url(#SVGID_274_);}
	.st279{fill:url(#SVGID_275_);}
	.st280{fill:url(#SVGID_276_);}
	.st281{fill:url(#SVGID_277_);}
	.st282{fill:url(#SVGID_278_);}
	.st283{fill:url(#SVGID_279_);}
	.st284{fill:url(#SVGID_280_);}
	.st285{fill:url(#SVGID_281_);}
	.st286{fill:url(#SVGID_282_);}
	.st287{fill:url(#SVGID_283_);}
	.st288{fill:url(#SVGID_284_);}
	.st289{fill:url(#SVGID_285_);}
	.st290{fill:url(#SVGID_286_);}
	.st291{fill:url(#SVGID_287_);}
	.st292{fill:url(#SVGID_288_);}
	.st293{fill:url(#SVGID_289_);}
	.st294{fill:url(#SVGID_290_);}
	.st295{fill:url(#SVGID_291_);}
	.st296{fill:url(#SVGID_292_);}
	.st297{fill:url(#SVGID_293_);}
	.st298{fill:url(#SVGID_294_);}
	.st299{fill:url(#SVGID_295_);}
	.st300{fill:url(#SVGID_296_);}
	.st301{fill:url(#SVGID_297_);}
	.st302{fill:url(#SVGID_298_);}
	.st303{fill:url(#SVGID_299_);}
	.st304{fill:url(#SVGID_300_);}
	.st305{fill:url(#SVGID_301_);}
	.st306{fill:url(#SVGID_302_);}
	.st307{fill:url(#SVGID_303_);}
	.st308{fill:url(#SVGID_304_);}
	.st309{fill:url(#SVGID_305_);}
	.st310{fill:url(#SVGID_306_);}
	.st311{fill:url(#SVGID_307_);}
	.st312{fill:url(#SVGID_308_);}
	.st313{fill:url(#SVGID_309_);}
	.st314{fill:url(#SVGID_310_);}
	.st315{fill:url(#SVGID_311_);}
	.st316{fill:url(#SVGID_312_);}
	.st317{fill:url(#SVGID_313_);}
	.st318{fill:url(#SVGID_314_);}
	.st319{fill:url(#SVGID_315_);}
	.st320{fill:url(#SVGID_316_);}
	.st321{fill:url(#SVGID_317_);}
	.st322{fill:url(#SVGID_318_);}
	.st323{fill:url(#SVGID_319_);}
	.st324{fill:url(#SVGID_320_);}
	.st325{fill:url(#SVGID_321_);}
	.st326{fill:url(#SVGID_322_);}
	.st327{fill:url(#SVGID_323_);}
	.st328{fill:url(#SVGID_324_);}
	.st329{fill:url(#SVGID_325_);}
	.st330{fill:url(#SVGID_326_);}
	.st331{fill:url(#SVGID_327_);}
	.st332{fill:url(#SVGID_328_);}
	.st333{fill:url(#SVGID_329_);}
	.st334{fill:url(#SVGID_330_);}
	.st335{fill:url(#SVGID_331_);}
	.st336{fill:url(#SVGID_332_);}
	.st337{fill:url(#SVGID_333_);}
	.st338{fill:url(#SVGID_334_);}
	.st339{fill:url(#SVGID_335_);}
	.st340{fill:url(#SVGID_336_);}
	.st341{fill:url(#SVGID_337_);}
	.st342{fill:url(#SVGID_338_);}
	.st343{fill:url(#SVGID_339_);}
	.st344{fill:url(#SVGID_340_);}
	.st345{fill:url(#SVGID_341_);}
	.st346{fill:url(#SVGID_342_);}
	.st347{fill-rule:evenodd;clip-rule:evenodd;}
	.st348{fill:none;}
	.st349{fill-rule:evenodd;clip-rule:evenodd;fill:url(#SVGID_343_);}
	.st350{fill:url(#SVGID_344_);}
	.st351{fill:url(#SVGID_345_);}
	.st352{fill:url(#SVGID_346_);}
	.st353{fill:url(#SVGID_347_);}
	.st354{fill:url(#SVGID_348_);}
	.st355{fill:url(#SVGID_349_);}
	.st356{fill:url(#SVGID_350_);}
	.st357{fill:url(#SVGID_351_);}
	.st358{fill:url(#SVGID_352_);}
	.st359{fill:url(#SVGID_353_);}
	.st360{fill:url(#SVGID_354_);}
	.st361{fill:url(#SVGID_355_);}
	.st362{fill:url(#SVGID_356_);}
	.st363{fill:url(#SVGID_357_);}
	.st364{fill:url(#SVGID_358_);}
	.st365{fill:url(#SVGID_359_);}
	.st366{fill:url(#SVGID_360_);}
	.st367{fill:url(#SVGID_361_);}
	.st368{fill:url(#SVGID_362_);}
	.st369{fill:url(#SVGID_363_);}
	.st370{fill:url(#SVGID_364_);}
	.st371{fill:url(#SVGID_365_);}
	.st372{fill:url(#SVGID_366_);}
	.st373{fill:url(#SVGID_367_);}
	.st374{fill:url(#SVGID_368_);}
</style>
<g>
	<path class="st0" d="M7.42,14.88c-1.75,0-3.17-1.42-3.17-3.17l0,0V9.95c0-0.18,0.01-0.35,0.04-0.53c0.03-0.19,0.21-0.33,0.41-0.3
		C4.9,9.16,5.03,9.34,5,9.53C4.98,9.67,4.97,9.81,4.97,9.95v1.76c0,1.36,1.1,2.46,2.46,2.46s2.46-1.1,2.46-2.46V9.95
		c0-0.24-0.03-0.48-0.1-0.7C9.74,9.06,9.84,8.86,10.03,8.8s0.38,0.05,0.44,0.24c0.08,0.3,0.13,0.6,0.12,0.91v1.76
		C10.59,13.46,9.17,14.88,7.42,14.88L7.42,14.88z"/>
	<path class="st0" d="M12.05,19.07H2.78c-0.19,0-0.35-0.16-0.35-0.35V18.6c0-1.77,1.43-3.2,3.2-3.2h0.74c0.19,0,0.35,0.16,0.35,0.35
		S6.56,16.1,6.37,16.1H5.63c-1.29,0-2.37,0.98-2.49,2.27h8.55c-0.12-1.29-1.2-2.27-2.49-2.27H8.48c-0.19,0-0.35-0.16-0.35-0.35
		c0-0.19,0.16-0.35,0.35-0.35H9.2c1.77,0,3.2,1.43,3.2,3.2v0.12C12.4,18.92,12.25,19.07,12.05,19.07z"/>
	<path class="st0" d="M3.55,12.39H3.2C2.65,12.42,2.18,12,2.15,11.45V10.5C2.19,9.96,2.65,9.54,3.2,9.57h0.35
		c0.19,0,0.35,0.16,0.35,0.35v2.11C3.91,12.23,3.75,12.39,3.55,12.39z M3.2,10.28c-0.21,0-0.35,0.12-0.35,0.24v0.94
		c0,0.11,0.14,0.23,0.35,0.23l0,0V10.28z"/>
	<path class="st0" d="M11.65,12.39H11.3c-0.19,0-0.35-0.16-0.35-0.35V9.92c0-0.19,0.16-0.35,0.35-0.35h0.35
		c0.55-0.03,1.02,0.39,1.06,0.94v0.94C12.67,12,12.2,12.42,11.65,12.39z M11.65,11.68L11.65,11.68c0.21,0,0.35-0.12,0.35-0.23V10.5
		c0-0.11-0.14-0.24-0.35-0.24l0,0V11.68z"/>
	<path class="st0" d="M11.65,13.44H8.13c-0.19,0-0.35-0.16-0.35-0.35c0-0.19,0.16-0.35,0.35-0.35h3.17v-0.35
		c0-0.19,0.16-0.35,0.35-0.35S12,12.19,12,12.39v0.7C12,13.29,11.84,13.44,11.65,13.44z"/>
	<path class="st0" d="M7.42,13.97c-0.49,0-0.88-0.39-0.88-0.88c0-0.49,0.39-0.88,0.88-0.88s0.88,0.39,0.88,0.88
		C8.3,13.58,7.91,13.97,7.42,13.97z M7.42,12.92c-0.1,0-0.18,0.08-0.18,0.18c0,0.1,0.08,0.18,0.18,0.18c0.1,0,0.18-0.08,0.18-0.18
		C7.6,12.99,7.52,12.92,7.42,12.92z"/>
	<linearGradient id="SVGID_1_" gradientUnits="userSpaceOnUse" x1="7.2407" y1="11.7238" x2="7.5065" y2="13.6985">
		<stop  offset="0" style="stop-color:#10BEF0"/>
		<stop  offset="1" style="stop-color:#10BEF0;stop-opacity:0"/>
	</linearGradient>
	<path class="st2" d="M7.42,13.97c-0.49,0-0.88-0.39-0.88-0.88c0-0.49,0.39-0.88,0.88-0.88s0.88,0.39,0.88,0.88
		C8.3,13.58,7.91,13.97,7.42,13.97z M7.42,12.92c-0.1,0-0.18,0.08-0.18,0.18c0,0.1,0.08,0.18,0.18,0.18c0.1,0,0.18-0.08,0.18-0.18
		C7.6,12.99,7.52,12.92,7.42,12.92z"/>
	<path class="st0" d="M5.11,9.92C4.22,9.93,3.49,9.21,3.48,8.31S4.2,6.69,5.09,6.69c0.35,0,0.69,0.11,0.98,0.32
		C6.23,7.12,6.26,7.34,6.14,7.5C6.02,7.65,5.8,7.69,5.65,7.57C5.49,7.46,5.31,7.39,5.11,7.39C4.61,7.39,4.2,7.8,4.2,8.3
		c0,0.5,0.41,0.91,0.91,0.91c0.31,0,0.6-0.16,0.77-0.42C5.98,8.64,6.2,8.59,6.37,8.7c0.16,0.11,0.21,0.33,0.1,0.49l0,0
		C6.17,9.65,5.66,9.92,5.11,9.92z"/>
	<path class="st0" d="M8.2,10.48c-0.95,0-1.83-0.5-2.33-1.31C5.75,9.03,5.77,8.8,5.92,8.68s0.37-0.11,0.5,0.04
		c0.03,0.03,0.05,0.06,0.06,0.1c0.59,0.96,1.84,1.25,2.79,0.67c0.22-0.14,0.42-0.32,0.57-0.53c0.26-0.35,0.41-0.78,0.4-1.22
		c0-1.13-0.92-2.04-2.04-2.03c-0.97,0-1.81,0.69-1.99,1.64C6.17,7.54,5.98,7.67,5.78,7.63C5.59,7.6,5.46,7.41,5.5,7.21l0,0
		c0.25-1.49,1.66-2.5,3.16-2.25c1.35,0.23,2.32,1.41,2.29,2.77c0,0.59-0.19,1.16-0.54,1.63C9.89,10.06,9.07,10.48,8.2,10.48z"/>
	<path class="st0" d="M17.63,13.44c-2.33,0-4.22-1.89-4.22-4.22S15.3,5,17.63,5s4.22,1.89,4.22,4.22S19.96,13.44,17.63,13.44z
		 M17.63,5.7c-1.94,0-3.52,1.58-3.52,3.52s1.58,3.52,3.52,3.52s3.52-1.58,3.52-3.52S19.57,5.7,17.63,5.7z"/>
	
		<linearGradient id="SVGID_2_" gradientUnits="userSpaceOnUse" x1="13.8169" y1="11.0356" x2="21.4453" y2="7.4044" gradientTransform="matrix(0.0427 0.9991 -0.9991 0.0427 26.089 -8.789)">
		<stop  offset="0" style="stop-color:#10BEF0"/>
		<stop  offset="1" style="stop-color:#10BEF0;stop-opacity:0"/>
	</linearGradient>
	<path class="st4" d="M13.41,9.4c-0.1-2.33,1.71-4.3,4.04-4.4s4.3,1.71,4.4,4.04s-1.71,4.3-4.04,4.4S13.51,11.73,13.41,9.4z
		 M21.15,9.07c-0.08-1.94-1.72-3.45-3.67-3.37s-3.45,1.72-3.37,3.67s1.72,3.45,3.67,3.37S21.23,11.01,21.15,9.07z"/>
	<path class="st0" d="M13.23,18.02h-0.2c-0.19-0.01-0.34-0.18-0.33-0.38s0.18-0.34,0.38-0.33c0.11,0.01,0.22,0.01,0.33,0
		c0.19,0,0.35,0.16,0.35,0.35c0,0.19-0.16,0.35-0.35,0.35H13.23z M14.79,17.78c-0.16,0.01-0.3-0.09-0.35-0.24
		c-0.06-0.19,0.04-0.38,0.23-0.44c0,0,0,0,0,0c0.1-0.03,0.2-0.07,0.31-0.11c0.18-0.07,0.39,0.02,0.46,0.2
		c0.07,0.18-0.02,0.39-0.2,0.46l0,0l-0.35,0.13C14.86,17.77,14.82,17.78,14.79,17.78L14.79,17.78z M16.32,16.93
		c-0.1,0-0.2-0.04-0.26-0.12c-0.13-0.15-0.12-0.37,0.03-0.5c0,0,0,0,0,0c0.08-0.07,0.16-0.14,0.23-0.22
		c0.13-0.14,0.36-0.15,0.5-0.01c0.14,0.13,0.15,0.36,0.01,0.5c-0.09,0.1-0.18,0.18-0.28,0.27C16.49,16.9,16.41,16.94,16.32,16.93
		L16.32,16.93z M17.34,15.53c-0.05,0-0.09-0.01-0.14-0.03c-0.18-0.07-0.26-0.28-0.19-0.46c0.04-0.1,0.08-0.2,0.11-0.3
		c0.05-0.19,0.25-0.3,0.44-0.24c0,0,0.01,0,0.01,0c0.18,0.06,0.29,0.26,0.23,0.44c-0.04,0.12-0.08,0.24-0.13,0.35
		c-0.05,0.13-0.18,0.22-0.32,0.23V15.53z M17.65,13.81c-0.19,0-0.35-0.16-0.35-0.35c0-0.14,0-0.25-0.02-0.32
		c-0.03-0.19,0.11-0.37,0.3-0.4c0,0,0.01,0,0.01,0c0.19-0.02,0.37,0.12,0.39,0.31c0,0,0,0,0,0c0,0.09,0,0.22,0.02,0.38
		c0,0.19-0.16,0.35-0.35,0.35V13.81z"/>
	<linearGradient id="SVGID_3_" gradientUnits="userSpaceOnUse" x1="14.3477" y1="18.1479" x2="17.3857" y2="11.92">
		<stop  offset="0" style="stop-color:#10BEF0"/>
		<stop  offset="1" style="stop-color:#10BEF0;stop-opacity:0"/>
	</linearGradient>
	<path class="st5" d="M13.23,18.02h-0.2c-0.19-0.01-0.34-0.18-0.33-0.38s0.18-0.34,0.38-0.33c0.11,0.01,0.22,0.01,0.33,0
		c0.19,0,0.35,0.16,0.35,0.35c0,0.19-0.16,0.35-0.35,0.35H13.23z M14.79,17.78c-0.16,0.01-0.3-0.09-0.35-0.24
		c-0.06-0.19,0.04-0.38,0.23-0.44c0,0,0,0,0,0c0.1-0.03,0.2-0.07,0.31-0.11c0.18-0.07,0.39,0.02,0.46,0.2
		c0.07,0.18-0.02,0.39-0.2,0.46l0,0l-0.35,0.13C14.86,17.77,14.82,17.78,14.79,17.78L14.79,17.78z M16.32,16.93
		c-0.1,0-0.2-0.04-0.26-0.12c-0.13-0.15-0.12-0.37,0.03-0.5c0,0,0,0,0,0c0.08-0.07,0.16-0.14,0.23-0.22
		c0.13-0.14,0.36-0.15,0.5-0.01c0.14,0.13,0.15,0.36,0.01,0.5c-0.09,0.1-0.18,0.18-0.28,0.27C16.49,16.9,16.41,16.94,16.32,16.93
		L16.32,16.93z M17.34,15.53c-0.05,0-0.09-0.01-0.14-0.03c-0.18-0.07-0.26-0.28-0.19-0.46c0.04-0.1,0.08-0.2,0.11-0.3
		c0.05-0.19,0.25-0.3,0.44-0.24c0,0,0.01,0,0.01,0c0.18,0.06,0.29,0.26,0.23,0.44c-0.04,0.12-0.08,0.24-0.13,0.35
		c-0.05,0.13-0.18,0.22-0.32,0.23V15.53z M17.65,13.81c-0.19,0-0.35-0.16-0.35-0.35c0-0.14,0-0.25-0.02-0.32
		c-0.03-0.19,0.11-0.37,0.3-0.4c0,0,0.01,0,0.01,0c0.19-0.02,0.37,0.12,0.39,0.31c0,0,0,0,0,0c0,0.09,0,0.22,0.02,0.38
		c0,0.19-0.16,0.35-0.35,0.35V13.81z"/>
	<path class="st0" d="M18.45,10.81c-0.19,0-0.35-0.16-0.35-0.35c0-0.13,0.07-0.25,0.18-0.31c0.51-0.28,0.7-0.92,0.42-1.43
		c-0.28-0.51-0.92-0.7-1.43-0.42c-0.51,0.28-0.7,0.92-0.42,1.43c0.09,0.16,0.22,0.3,0.38,0.4c0.18,0.07,0.27,0.27,0.2,0.45
		c-0.07,0.18-0.27,0.27-0.45,0.2c-0.04-0.01-0.07-0.03-0.1-0.06c-0.53-0.32-0.85-0.88-0.86-1.5c0-0.97,0.79-1.76,1.76-1.76
		c0.97,0,1.76,0.79,1.76,1.76c0,0.64-0.35,1.23-0.92,1.54C18.56,10.79,18.51,10.81,18.45,10.81z"/>
	<path class="st0" d="M17.84,11.86h-0.19c-0.53,0-0.96-0.43-0.96-0.96v-0.48c0-0.19,0.16-0.35,0.35-0.35c0.19,0,0.35,0.16,0.35,0.35
		v0.48c0,0.14,0.12,0.26,0.26,0.26h0.19c0.14,0,0.26-0.12,0.26-0.26v-0.44c0-0.19,0.16-0.35,0.35-0.35c0.19,0,0.35,0.16,0.35,0.35
		v0.44C18.8,11.43,18.37,11.86,17.84,11.86z"/>
	<path class="st0" d="M17.77,7.11c-0.05,0-0.09-0.01-0.13-0.03c-0.04-0.02-0.08-0.04-0.12-0.07c-0.02-0.02-0.03-0.04-0.04-0.06
		c-0.01-0.02-0.02-0.04-0.03-0.06c-0.01-0.02-0.02-0.04-0.02-0.06c0-0.02,0-0.05,0-0.07c0-0.09,0.04-0.18,0.1-0.25
		c0.14-0.14,0.36-0.14,0.5,0c0,0,0,0,0,0c0.06,0.07,0.1,0.16,0.1,0.25c0,0.02,0,0.05,0,0.07c0,0.02-0.01,0.04-0.02,0.06
		c-0.01,0.02-0.02,0.04-0.03,0.06l-0.04,0.06C17.96,7.07,17.87,7.11,17.77,7.11z"/>
	<path class="st0" d="M16.03,7.83c-0.05,0-0.09-0.01-0.13-0.03c-0.04-0.02-0.08-0.04-0.12-0.07c-0.06-0.07-0.1-0.16-0.1-0.25
		c0-0.05,0.01-0.09,0.03-0.13c0.02-0.04,0.04-0.08,0.07-0.12c0.03-0.03,0.07-0.06,0.12-0.07c0.09-0.04,0.18-0.04,0.27,0
		c0.09,0.03,0.16,0.1,0.19,0.19c0.02,0.04,0.03,0.09,0.03,0.13c0,0.09-0.04,0.18-0.1,0.25c-0.03,0.03-0.07,0.06-0.12,0.07
		C16.12,7.82,16.08,7.83,16.03,7.83z"/>
	<path class="st0" d="M15.31,9.57c-0.05,0-0.09-0.01-0.13-0.03c-0.04-0.02-0.08-0.04-0.12-0.07c-0.02-0.02-0.03-0.03-0.04-0.05
		C15,9.4,14.99,9.38,14.98,9.35c-0.01-0.02-0.02-0.04-0.02-0.06c0-0.02,0-0.05,0-0.07c0-0.09,0.04-0.18,0.1-0.25
		c0.03-0.03,0.07-0.06,0.12-0.07c0.13-0.06,0.28-0.03,0.38,0.07c0.14,0.14,0.14,0.36,0,0.5C15.5,9.54,15.41,9.57,15.31,9.57z"/>
	<path class="st0" d="M20.24,9.57c-0.09,0-0.18-0.04-0.25-0.1c-0.02-0.02-0.03-0.03-0.04-0.05c-0.01-0.02-0.02-0.04-0.03-0.06
		c-0.01-0.02-0.02-0.04-0.02-0.06c0-0.02,0-0.05,0-0.07c0-0.09,0.04-0.18,0.1-0.25c0.08-0.08,0.2-0.12,0.31-0.1l0.06,0.02
		c0.02,0.01,0.04,0.02,0.06,0.03l0.05,0.04c0.06,0.07,0.1,0.16,0.1,0.25c0,0.02,0,0.05,0,0.07c0,0.02-0.01,0.04-0.02,0.06
		c-0.01,0.02-0.02,0.04-0.03,0.06l-0.04,0.05l-0.05,0.04c-0.02,0.01-0.04,0.02-0.06,0.03l-0.07,0.04H20.24z"/>
	<path class="st0" d="M19.51,7.83c-0.19,0-0.35-0.16-0.35-0.35c0-0.05,0.01-0.09,0.03-0.13c0.02-0.04,0.04-0.08,0.07-0.12
		c0.14-0.14,0.36-0.14,0.5,0c0,0,0,0,0,0c0.03,0.03,0.06,0.07,0.07,0.12c0.02,0.04,0.03,0.09,0.03,0.13
		C19.87,7.67,19.71,7.83,19.51,7.83z"/>
	<linearGradient id="SVGID_4_" gradientUnits="userSpaceOnUse" x1="17.7624" y1="7.2647" x2="17.7814" y2="11.214">
		<stop  offset="0" style="stop-color:#10BEF0"/>
		<stop  offset="1" style="stop-color:#10BEF0;stop-opacity:0"/>
	</linearGradient>
	<path class="st6" d="M18.45,10.81c-0.19,0-0.35-0.16-0.35-0.35c0-0.13,0.07-0.25,0.18-0.31c0.51-0.28,0.7-0.92,0.42-1.43
		c-0.28-0.51-0.92-0.7-1.43-0.42c-0.51,0.28-0.7,0.92-0.42,1.43c0.09,0.16,0.22,0.3,0.38,0.4c0.18,0.07,0.27,0.27,0.2,0.45
		c-0.07,0.18-0.27,0.27-0.45,0.2c-0.04-0.01-0.07-0.03-0.1-0.06c-0.53-0.32-0.85-0.88-0.86-1.5c0-0.97,0.79-1.76,1.76-1.76
		c0.97,0,1.76,0.79,1.76,1.76c0,0.64-0.35,1.23-0.92,1.54C18.56,10.79,18.51,10.81,18.45,10.81z"/>
	<linearGradient id="SVGID_5_" gradientUnits="userSpaceOnUse" x1="17.5922" y1="12.3994" x2="17.7821" y2="10.2348">
		<stop  offset="0" style="stop-color:#10BEF0"/>
		<stop  offset="1" style="stop-color:#10BEF0;stop-opacity:0"/>
	</linearGradient>
	<path class="st7" d="M17.84,11.86h-0.19c-0.53,0-0.96-0.43-0.96-0.96v-0.48c0-0.19,0.16-0.35,0.35-0.35c0.19,0,0.35,0.16,0.35,0.35
		v0.48c0,0.14,0.12,0.26,0.26,0.26h0.19c0.14,0,0.26-0.12,0.26-0.26v-0.44c0-0.19,0.16-0.35,0.35-0.35c0.19,0,0.35,0.16,0.35,0.35
		v0.44C18.8,11.43,18.37,11.86,17.84,11.86z"/>
	<linearGradient id="SVGID_6_" gradientUnits="userSpaceOnUse" x1="17.9606" y1="6.2778" x2="17.6568" y2="7.0943">
		<stop  offset="0" style="stop-color:#10BEF0"/>
		<stop  offset="1" style="stop-color:#10BEF0;stop-opacity:0"/>
	</linearGradient>
	<path class="st8" d="M17.77,7.11c-0.05,0-0.09-0.01-0.13-0.03c-0.04-0.02-0.08-0.04-0.12-0.07c-0.02-0.02-0.03-0.04-0.04-0.06
		c-0.01-0.02-0.02-0.04-0.03-0.06c-0.01-0.02-0.02-0.04-0.02-0.06c0-0.02,0-0.05,0-0.07c0-0.09,0.04-0.18,0.1-0.25
		c0.14-0.14,0.36-0.14,0.5,0c0,0,0,0,0,0c0.06,0.07,0.1,0.16,0.1,0.25c0,0.02,0,0.05,0,0.07c0,0.02-0.01,0.04-0.02,0.06
		c-0.01,0.02-0.02,0.04-0.03,0.06l-0.04,0.06C17.96,7.07,17.87,7.11,17.77,7.11z"/>
	<linearGradient id="SVGID_7_" gradientUnits="userSpaceOnUse" x1="15.9915" y1="6.8655" x2="16.0484" y2="7.7769">
		<stop  offset="0" style="stop-color:#10BEF0"/>
		<stop  offset="1" style="stop-color:#10BEF0;stop-opacity:0"/>
	</linearGradient>
	<path class="st9" d="M16.03,7.83c-0.05,0-0.09-0.01-0.13-0.03c-0.04-0.02-0.08-0.04-0.12-0.07c-0.06-0.07-0.1-0.16-0.1-0.25
		c0-0.05,0.01-0.09,0.03-0.13c0.02-0.04,0.04-0.08,0.07-0.12c0.03-0.03,0.07-0.06,0.12-0.07c0.09-0.04,0.18-0.04,0.27,0
		c0.09,0.03,0.16,0.1,0.19,0.19c0.02,0.04,0.03,0.09,0.03,0.13c0,0.09-0.04,0.18-0.1,0.25c-0.03,0.03-0.07,0.06-0.12,0.07
		C16.12,7.82,16.08,7.83,16.03,7.83z"/>
	<linearGradient id="SVGID_8_" gradientUnits="userSpaceOnUse" x1="15.1894" y1="8.7405" x2="15.3603" y2="9.4051">
		<stop  offset="0" style="stop-color:#10BEF0"/>
		<stop  offset="1" style="stop-color:#10BEF0;stop-opacity:0"/>
	</linearGradient>
	<path class="st10" d="M15.31,9.57c-0.05,0-0.09-0.01-0.13-0.03c-0.04-0.02-0.08-0.04-0.12-0.07c-0.02-0.02-0.03-0.03-0.04-0.05
		C15,9.4,14.99,9.38,14.98,9.35c-0.01-0.02-0.02-0.04-0.02-0.06c0-0.02,0-0.05,0-0.07c0-0.09,0.04-0.18,0.1-0.25
		c0.03-0.03,0.07-0.06,0.12-0.07c0.13-0.06,0.28-0.03,0.38,0.07c0.14,0.14,0.14,0.36,0,0.5C15.5,9.54,15.41,9.57,15.31,9.57z"/>
	<linearGradient id="SVGID_9_" gradientUnits="userSpaceOnUse" x1="20.2081" y1="8.6488" x2="20.2461" y2="9.3893">
		<stop  offset="0" style="stop-color:#10BEF0"/>
		<stop  offset="1" style="stop-color:#10BEF0;stop-opacity:0"/>
	</linearGradient>
	<path class="st11" d="M20.24,9.57c-0.09,0-0.18-0.04-0.25-0.1c-0.02-0.02-0.03-0.03-0.04-0.05c-0.01-0.02-0.02-0.04-0.03-0.06
		c-0.01-0.02-0.02-0.04-0.02-0.06c0-0.02,0-0.05,0-0.07c0-0.09,0.04-0.18,0.1-0.25c0.08-0.08,0.2-0.12,0.31-0.1l0.06,0.02
		c0.02,0.01,0.04,0.02,0.06,0.03l0.05,0.04c0.06,0.07,0.1,0.16,0.1,0.25c0,0.02,0,0.05,0,0.07c0,0.02-0.01,0.04-0.02,0.06
		c-0.01,0.02-0.02,0.04-0.03,0.06l-0.04,0.05l-0.05,0.04c-0.02,0.01-0.04,0.02-0.06,0.03l-0.07,0.04H20.24z"/>
	<linearGradient id="SVGID_10_" gradientUnits="userSpaceOnUse" x1="19.5859" y1="6.9642" x2="19.472" y2="7.7806">
		<stop  offset="0" style="stop-color:#10BEF0"/>
		<stop  offset="1" style="stop-color:#10BEF0;stop-opacity:0"/>
	</linearGradient>
	<path class="st12" d="M19.51,7.83c-0.19,0-0.35-0.16-0.35-0.35c0-0.05,0.01-0.09,0.03-0.13c0.02-0.04,0.04-0.08,0.07-0.12
		c0.14-0.14,0.36-0.14,0.5,0c0,0,0,0,0,0c0.03,0.03,0.06,0.07,0.07,0.12c0.02,0.04,0.03,0.09,0.03,0.13
		C19.87,7.67,19.71,7.83,19.51,7.83z"/>
	<path class="st0" d="M7.42,17.31c-0.78,0-1.41-0.63-1.41-1.41v-1.59c0-0.19,0.16-0.35,0.35-0.35c0.19,0,0.35,0.16,0.35,0.35v1.59
		c0,0.39,0.32,0.7,0.7,0.7s0.7-0.32,0.7-0.7v-1.59c0-0.19,0.16-0.35,0.35-0.35c0.19,0,0.35,0.16,0.35,0.35v1.59
		C8.83,16.68,8.2,17.31,7.42,17.31z"/>
</g>
</svg>
