<svg width="198" height="298" viewBox="0 0 198 298" fill="none" xmlns="http://www.w3.org/2000/svg">
<path d="M101.438 297.76L6 166.271L11.5519 164.155L101.276 287.746L185.367 164.586L191 166.584L101.438 297.76Z" fill="#EDF2F7"/>
<path d="M98.5765 207.557L197.153 155.801V52.3126L98.5765 0.556152L0 52.3126V155.801L98.5765 207.557Z" fill="#002680"/>
<path d="M159.781 137.2L98.3906 169.409L37 137.2L37.027 72.7563L98.3906 40.5469L159.781 72.7563V137.2Z" fill="white"/>
<path d="M91.6798 91.2347C94.4318 91.2347 96.6024 92.264 98.1918 94.3227C99.7811 96.3707 100.576 99.32 100.576 103.171C100.576 107 99.7918 109.939 98.2238 111.987C96.6558 114.024 94.4744 115.043 91.6798 115.043C88.8744 115.043 86.6824 114.024 85.1038 111.987C83.5358 109.949 82.7518 107.016 82.7518 103.187C82.7518 100.627 83.1144 98.456 83.8398 96.6747C84.5651 94.8933 85.5944 93.544 86.9278 92.6267C88.2611 91.6987 89.8451 91.2347 91.6798 91.2347ZM91.6798 111.219C93.0558 111.219 94.0638 110.605 94.7038 109.379C95.3438 108.141 95.6638 106.077 95.6638 103.187C95.6638 100.232 95.3384 98.1147 94.6878 96.8347C94.0371 95.5547 93.0291 94.9147 91.6638 94.9147C90.2984 94.9147 89.2798 95.56 88.6078 96.8507C87.9464 98.1413 87.6158 100.253 87.6158 103.187C87.6158 106.067 87.9464 108.125 88.6078 109.363C89.2691 110.6 90.2931 111.219 91.6798 111.219ZM107.473 114.691V97.3627H103.345V94.7227C104.667 94.7227 105.734 94.6 106.545 94.3547C107.366 94.0987 107.979 93.736 108.385 93.2667C108.79 92.7867 109.03 92.216 109.105 91.5547H112.209V114.691H107.473Z" fill="#5093FF"/>
</svg>
