<svg width="284" height="434" viewBox="0 0 284 434" fill="none" xmlns="http://www.w3.org/2000/svg">
<path d="M144.438 327L49 182.329L54.5519 180L144.276 315.983L228.367 180.474L234 182.674L144.438 327Z" fill="#EDF2F7"/>
<path d="M141.577 227.754L240.153 170.809V56.9453L141.577 0L43 56.9453V170.809L141.577 227.754Z" fill="#002680"/>
<path d="M202.781 150.343L141.391 185.782L80 150.343L80.027 79.4386L141.391 44L202.781 79.4386V150.343Z" fill="white"/>
<path d="M134.68 99.0132C137.432 99.0132 139.602 100.043 141.192 102.101C142.781 104.149 143.576 107.099 143.576 110.949C143.576 114.779 142.792 117.717 141.224 119.765C139.656 121.803 137.474 122.821 134.68 122.821C131.874 122.821 129.682 121.803 128.104 119.765C126.536 117.728 125.752 114.795 125.752 110.965C125.752 108.405 126.114 106.235 126.84 104.453C127.565 102.672 128.594 101.323 129.928 100.405C131.261 99.4772 132.845 99.0132 134.68 99.0132ZM134.68 118.997C136.056 118.997 137.064 118.384 137.704 117.157C138.344 115.92 138.664 113.856 138.664 110.965C138.664 108.011 138.338 105.893 137.688 104.613C137.037 103.333 136.029 102.693 134.664 102.693C133.298 102.693 132.28 103.339 131.608 104.629C130.946 105.92 130.616 108.032 130.616 110.965C130.616 113.845 130.946 115.904 131.608 117.141C132.269 118.379 133.293 118.997 134.68 118.997ZM150.473 122.469V105.141H146.345V102.501C147.667 102.501 148.734 102.379 149.545 102.133C150.366 101.877 150.979 101.515 151.385 101.045C151.79 100.565 152.03 99.9946 152.105 99.3332H155.209V122.469H150.473Z" fill="#5093FF"/>
<path d="M108.545 356V345.878H115.496L115.489 347.6H110.596V350.057H114.845V351.744H110.582V354.257L115.566 354.264V356H108.545ZM123.191 348.762L120.475 356H118.998L116.275 348.762H118.123L119.705 353.375H119.761L121.322 348.762H123.191ZM126.04 356.14C125.578 356.14 125.163 356.054 124.794 355.881C124.426 355.708 124.134 355.459 123.919 355.132C123.705 354.801 123.597 354.399 123.597 353.928C123.597 353.135 123.894 352.533 124.486 352.122C125.079 351.707 126.015 351.492 127.293 351.478L128.196 351.464V351.03C128.196 350.699 128.098 350.444 127.902 350.267C127.711 350.085 127.412 349.996 127.006 350.001C126.708 350.006 126.423 350.076 126.152 350.211C125.886 350.346 125.704 350.582 125.606 350.918H123.905C123.933 350.395 124.085 349.966 124.36 349.63C124.636 349.289 125.009 349.037 125.48 348.874C125.956 348.706 126.495 348.622 127.097 348.622C127.839 348.622 128.434 348.715 128.882 348.902C129.33 349.084 129.655 349.348 129.855 349.693C130.056 350.034 130.156 350.44 130.156 350.911V356H128.448L128.28 354.754C128.033 355.277 127.723 355.638 127.349 355.839C126.981 356.04 126.544 356.14 126.04 356.14ZM126.726 354.796C126.913 354.796 127.093 354.763 127.265 354.698C127.443 354.628 127.599 354.537 127.734 354.425C127.874 354.308 127.986 354.178 128.07 354.033C128.154 353.888 128.196 353.739 128.196 353.585V352.514L127.461 352.528C127.121 352.533 126.803 352.575 126.509 352.654C126.215 352.729 125.977 352.852 125.795 353.025C125.618 353.198 125.529 353.431 125.529 353.725C125.529 354.061 125.646 354.325 125.879 354.516C126.113 354.703 126.395 354.796 126.726 354.796ZM134.276 356.126C133.744 356.126 133.321 356.063 133.009 355.937C132.696 355.811 132.465 355.645 132.316 355.44C132.166 355.23 132.071 354.999 132.029 354.747C131.987 354.49 131.966 354.231 131.966 353.97V345.598H133.968V353.718C133.968 353.984 134.024 354.201 134.136 354.369C134.252 354.532 134.469 354.633 134.787 354.67L135.13 354.691V355.951C134.99 355.998 134.847 356.037 134.703 356.07C134.558 356.107 134.416 356.126 134.276 356.126ZM139.076 356.14C138.74 356.14 138.409 356.089 138.082 355.986C137.76 355.883 137.466 355.732 137.2 355.531C136.934 355.33 136.72 355.083 136.556 354.789C136.398 354.495 136.318 354.154 136.318 353.767V348.762H138.362V353.508C138.362 353.844 138.472 354.119 138.691 354.334C138.911 354.549 139.233 354.656 139.657 354.656C140.059 354.656 140.376 354.553 140.609 354.348C140.847 354.138 140.966 353.846 140.966 353.473V348.762H142.989V356H141.449L141.211 354.565C141.127 354.99 140.969 355.316 140.735 355.545C140.507 355.769 140.243 355.923 139.944 356.007C139.65 356.096 139.361 356.14 139.076 356.14ZM146.753 356.14C146.291 356.14 145.876 356.054 145.507 355.881C145.139 355.708 144.847 355.459 144.632 355.132C144.418 354.801 144.31 354.399 144.31 353.928C144.31 353.135 144.607 352.533 145.199 352.122C145.792 351.707 146.728 351.492 148.006 351.478L148.909 351.464V351.03C148.909 350.699 148.811 350.444 148.615 350.267C148.424 350.085 148.125 349.996 147.719 350.001C147.421 350.006 147.136 350.076 146.865 350.211C146.599 350.346 146.417 350.582 146.319 350.918H144.618C144.646 350.395 144.798 349.966 145.073 349.63C145.349 349.289 145.722 349.037 146.193 348.874C146.669 348.706 147.208 348.622 147.81 348.622C148.552 348.622 149.147 348.715 149.595 348.902C150.043 349.084 150.368 349.348 150.568 349.693C150.769 350.034 150.869 350.44 150.869 350.911V356H149.161L148.993 354.754C148.746 355.277 148.436 355.638 148.062 355.839C147.694 356.04 147.257 356.14 146.753 356.14ZM147.439 354.796C147.626 354.796 147.806 354.763 147.978 354.698C148.156 354.628 148.312 354.537 148.447 354.425C148.587 354.308 148.699 354.178 148.783 354.033C148.867 353.888 148.909 353.739 148.909 353.585V352.514L148.174 352.528C147.834 352.533 147.516 352.575 147.222 352.654C146.928 352.729 146.69 352.852 146.508 353.025C146.331 353.198 146.242 353.431 146.242 353.725C146.242 354.061 146.359 354.325 146.592 354.516C146.826 354.703 147.108 354.796 147.439 354.796ZM156.774 350.183H155.164L155.178 354.04C155.178 354.217 155.199 354.35 155.241 354.439C155.288 354.523 155.358 354.579 155.451 354.607C155.549 354.63 155.673 354.642 155.822 354.642H156.795V355.902C156.702 355.944 156.555 355.984 156.354 356.021C156.158 356.058 155.883 356.077 155.528 356.077C154.894 356.077 154.401 355.995 154.051 355.832C153.706 355.669 153.466 355.44 153.33 355.146C153.195 354.852 153.127 354.511 153.127 354.124V350.183H151.951V348.762H153.197L153.708 346.578H155.164V348.755H156.774V350.183ZM160.342 348.762V356H158.389V348.762H160.342ZM160.363 345.885V347.726H158.375V345.885H160.363ZM165.302 356.14C164.593 356.14 163.975 355.988 163.447 355.685C162.925 355.382 162.519 354.952 162.229 354.397C161.945 353.842 161.802 353.184 161.802 352.423C161.802 351.662 161.945 350.997 162.229 350.428C162.519 349.859 162.925 349.415 163.447 349.098C163.975 348.781 164.595 348.622 165.309 348.622C166.023 348.622 166.642 348.778 167.164 349.091C167.687 349.399 168.091 349.838 168.375 350.407C168.66 350.976 168.802 351.648 168.802 352.423C168.802 353.151 168.662 353.795 168.382 354.355C168.107 354.91 167.708 355.347 167.185 355.664C166.667 355.981 166.04 356.14 165.302 356.14ZM165.309 354.621C165.669 354.621 165.958 354.516 166.177 354.306C166.397 354.096 166.555 353.821 166.653 353.48C166.756 353.135 166.807 352.759 166.807 352.353C166.807 351.97 166.761 351.609 166.667 351.268C166.579 350.927 166.425 350.652 166.205 350.442C165.986 350.232 165.687 350.127 165.309 350.127C164.95 350.127 164.658 350.227 164.434 350.428C164.215 350.624 164.054 350.892 163.951 351.233C163.849 351.569 163.797 351.942 163.797 352.353C163.797 352.731 163.844 353.095 163.937 353.445C164.031 353.79 164.187 354.073 164.406 354.292C164.626 354.511 164.927 354.621 165.309 354.621ZM170.165 356V348.762H172.174V349.784C172.286 349.607 172.431 349.436 172.608 349.273C172.79 349.105 173.019 348.967 173.294 348.86C173.569 348.753 173.896 348.699 174.274 348.699C174.717 348.699 175.13 348.785 175.513 348.958C175.9 349.131 176.213 349.404 176.451 349.777C176.689 350.146 176.808 350.629 176.808 351.226V356H174.764V351.478C174.764 351.086 174.647 350.792 174.414 350.596C174.181 350.4 173.896 350.302 173.56 350.302C173.336 350.302 173.119 350.342 172.909 350.421C172.704 350.5 172.536 350.619 172.405 350.778C172.274 350.937 172.209 351.133 172.209 351.366V356H170.165Z" fill="#002680"/>
<path d="M26.5329 384.636V385.524H22.8969V388.344H25.8489V389.232H22.8969V393H21.8049V384.636H26.5329ZM30.7197 393.108C30.1037 393.108 29.5437 392.968 29.0397 392.688C28.5437 392.408 28.1517 392.012 27.8637 391.5C27.5837 390.98 27.4437 390.38 27.4437 389.7C27.4437 389.028 27.5877 388.436 27.8757 387.924C28.1717 387.404 28.5717 387.008 29.0757 386.736C29.5797 386.456 30.1437 386.316 30.7677 386.316C31.3917 386.316 31.9557 386.456 32.4597 386.736C32.9637 387.008 33.3597 387.4 33.6477 387.912C33.9437 388.424 34.0917 389.02 34.0917 389.7C34.0917 390.38 33.9397 390.98 33.6357 391.5C33.3397 392.012 32.9357 392.408 32.4237 392.688C31.9117 392.968 31.3437 393.108 30.7197 393.108ZM30.7197 392.148C31.1117 392.148 31.4797 392.056 31.8237 391.872C32.1677 391.688 32.4437 391.412 32.6517 391.044C32.8677 390.676 32.9757 390.228 32.9757 389.7C32.9757 389.172 32.8717 388.724 32.6637 388.356C32.4557 387.988 32.1837 387.716 31.8477 387.54C31.5117 387.356 31.1477 387.264 30.7557 387.264C30.3557 387.264 29.9877 387.356 29.6517 387.54C29.3237 387.716 29.0597 387.988 28.8597 388.356C28.6597 388.724 28.5597 389.172 28.5597 389.7C28.5597 390.236 28.6557 390.688 28.8477 391.056C29.0477 391.424 29.3117 391.7 29.6397 391.884C29.9677 392.06 30.3277 392.148 30.7197 392.148ZM36.6195 384.12V393H35.5275V384.12H36.6195ZM39.5726 384.12V393H38.4806V384.12H39.5726ZM44.3018 393.108C43.6858 393.108 43.1258 392.968 42.6218 392.688C42.1258 392.408 41.7338 392.012 41.4458 391.5C41.1658 390.98 41.0258 390.38 41.0258 389.7C41.0258 389.028 41.1698 388.436 41.4578 387.924C41.7538 387.404 42.1538 387.008 42.6578 386.736C43.1618 386.456 43.7258 386.316 44.3498 386.316C44.9738 386.316 45.5378 386.456 46.0418 386.736C46.5458 387.008 46.9418 387.4 47.2298 387.912C47.5258 388.424 47.6738 389.02 47.6738 389.7C47.6738 390.38 47.5218 390.98 47.2178 391.5C46.9218 392.012 46.5178 392.408 46.0058 392.688C45.4938 392.968 44.9258 393.108 44.3018 393.108ZM44.3018 392.148C44.6938 392.148 45.0618 392.056 45.4058 391.872C45.7498 391.688 46.0258 391.412 46.2338 391.044C46.4498 390.676 46.5578 390.228 46.5578 389.7C46.5578 389.172 46.4538 388.724 46.2458 388.356C46.0378 387.988 45.7658 387.716 45.4298 387.54C45.0938 387.356 44.7298 387.264 44.3378 387.264C43.9378 387.264 43.5698 387.356 43.2338 387.54C42.9058 387.716 42.6418 387.988 42.4418 388.356C42.2418 388.724 42.1418 389.172 42.1418 389.7C42.1418 390.236 42.2378 390.688 42.4298 391.056C42.6298 391.424 42.8938 391.7 43.2218 391.884C43.5498 392.06 43.9098 392.148 44.3018 392.148ZM57.8695 386.424L55.8175 393H54.6895L53.1055 387.78L51.5215 393H50.3935L48.3295 386.424H49.4455L50.9575 391.944L52.5895 386.424H53.7055L55.3015 391.956L56.7895 386.424H57.8695ZM59.5173 385.356C59.3093 385.356 59.1333 385.284 58.9893 385.14C58.8453 384.996 58.7733 384.82 58.7733 384.612C58.7733 384.404 58.8453 384.228 58.9893 384.084C59.1333 383.94 59.3093 383.868 59.5173 383.868C59.7173 383.868 59.8853 383.94 60.0213 384.084C60.1653 384.228 60.2373 384.404 60.2373 384.612C60.2373 384.82 60.1653 384.996 60.0213 385.14C59.8853 385.284 59.7173 385.356 59.5173 385.356ZM60.0453 386.424V393H58.9533V386.424H60.0453ZM65.1104 386.304C65.9104 386.304 66.5584 386.548 67.0544 387.036C67.5504 387.516 67.7984 388.212 67.7984 389.124V393H66.7184V389.28C66.7184 388.624 66.5544 388.124 66.2264 387.78C65.8984 387.428 65.4504 387.252 64.8824 387.252C64.3064 387.252 63.8464 387.432 63.5024 387.792C63.1664 388.152 62.9984 388.676 62.9984 389.364V393H61.9064V386.424H62.9984V387.36C63.2144 387.024 63.5064 386.764 63.8744 386.58C64.2504 386.396 64.6624 386.304 65.1104 386.304ZM72.2942 386.316C72.8622 386.316 73.3582 386.44 73.7822 386.688C74.2142 386.936 74.5342 387.248 74.7422 387.624V386.424H75.8462V393.144C75.8462 393.744 75.7182 394.276 75.4622 394.74C75.2062 395.212 74.8382 395.58 74.3582 395.844C73.8862 396.108 73.3342 396.24 72.7022 396.24C71.8382 396.24 71.1182 396.036 70.5422 395.628C69.9662 395.22 69.6262 394.664 69.5222 393.96H70.6022C70.7222 394.36 70.9702 394.68 71.3462 394.92C71.7222 395.168 72.1742 395.292 72.7022 395.292C73.3022 395.292 73.7902 395.104 74.1662 394.728C74.5502 394.352 74.7422 393.824 74.7422 393.144V391.764C74.5262 392.148 74.2062 392.468 73.7822 392.724C73.3582 392.98 72.8622 393.108 72.2942 393.108C71.7102 393.108 71.1782 392.964 70.6982 392.676C70.2262 392.388 69.8542 391.984 69.5822 391.464C69.3102 390.944 69.1742 390.352 69.1742 389.688C69.1742 389.016 69.3102 388.428 69.5822 387.924C69.8542 387.412 70.2262 387.016 70.6982 386.736C71.1782 386.456 71.7102 386.316 72.2942 386.316ZM74.7422 389.7C74.7422 389.204 74.6422 388.772 74.4422 388.404C74.2422 388.036 73.9702 387.756 73.6262 387.564C73.2902 387.364 72.9182 387.264 72.5102 387.264C72.1022 387.264 71.7302 387.36 71.3942 387.552C71.0582 387.744 70.7902 388.024 70.5902 388.392C70.3902 388.76 70.2902 389.192 70.2902 389.688C70.2902 390.192 70.3902 390.632 70.5902 391.008C70.7902 391.376 71.0582 391.66 71.3942 391.86C71.7302 392.052 72.1022 392.148 72.5102 392.148C72.9182 392.148 73.2902 392.052 73.6262 391.86C73.9702 391.66 74.2422 391.376 74.4422 391.008C74.6422 390.632 74.7422 390.196 74.7422 389.7ZM80.4828 389.688C80.4828 389.016 80.6188 388.428 80.8908 387.924C81.1628 387.412 81.5348 387.016 82.0068 386.736C82.4868 386.456 83.0188 386.316 83.6028 386.316C84.1788 386.316 84.6788 386.44 85.1028 386.688C85.5268 386.936 85.8428 387.248 86.0508 387.624V386.424H87.1548V393H86.0508V391.776C85.8348 392.16 85.5108 392.48 85.0788 392.736C84.6548 392.984 84.1588 393.108 83.5908 393.108C83.0068 393.108 82.4788 392.964 82.0068 392.676C81.5348 392.388 81.1628 391.984 80.8908 391.464C80.6188 390.944 80.4828 390.352 80.4828 389.688ZM86.0508 389.7C86.0508 389.204 85.9508 388.772 85.7508 388.404C85.5508 388.036 85.2788 387.756 84.9348 387.564C84.5988 387.364 84.2268 387.264 83.8188 387.264C83.4108 387.264 83.0388 387.36 82.7028 387.552C82.3668 387.744 82.0988 388.024 81.8988 388.392C81.6988 388.76 81.5988 389.192 81.5988 389.688C81.5988 390.192 81.6988 390.632 81.8988 391.008C82.0988 391.376 82.3668 391.66 82.7028 391.86C83.0388 392.052 83.4108 392.148 83.8188 392.148C84.2268 392.148 84.5988 392.052 84.9348 391.86C85.2788 391.66 85.5508 391.376 85.7508 391.008C85.9508 390.632 86.0508 390.196 86.0508 389.7ZM92.2042 386.304C93.0042 386.304 93.6522 386.548 94.1482 387.036C94.6442 387.516 94.8922 388.212 94.8922 389.124V393H93.8122V389.28C93.8122 388.624 93.6482 388.124 93.3202 387.78C92.9922 387.428 92.5442 387.252 91.9762 387.252C91.4002 387.252 90.9402 387.432 90.5962 387.792C90.2602 388.152 90.0922 388.676 90.0922 389.364V393H89.0002V386.424H90.0922V387.36C90.3082 387.024 90.6002 386.764 90.9682 386.58C91.3442 386.396 91.7562 386.304 92.2042 386.304ZM105.875 389.46C105.875 389.668 105.863 389.888 105.839 390.12H100.583C100.623 390.768 100.843 391.276 101.243 391.644C101.651 392.004 102.143 392.184 102.719 392.184C103.191 392.184 103.583 392.076 103.895 391.86C104.215 391.636 104.439 391.34 104.567 390.972H105.743C105.567 391.604 105.215 392.12 104.687 392.52C104.159 392.912 103.503 393.108 102.719 393.108C102.095 393.108 101.535 392.968 101.039 392.688C100.551 392.408 100.167 392.012 99.8872 391.5C99.6072 390.98 99.4672 390.38 99.4672 389.7C99.4672 389.02 99.6032 388.424 99.8752 387.912C100.147 387.4 100.527 387.008 101.015 386.736C101.511 386.456 102.079 386.316 102.719 386.316C103.343 386.316 103.895 386.452 104.375 386.724C104.855 386.996 105.223 387.372 105.479 387.852C105.743 388.324 105.875 388.86 105.875 389.46ZM104.747 389.232C104.747 388.816 104.655 388.46 104.471 388.164C104.287 387.86 104.035 387.632 103.715 387.48C103.403 387.32 103.055 387.24 102.671 387.24C102.119 387.24 101.647 387.416 101.255 387.768C100.871 388.12 100.651 388.608 100.595 389.232H104.747ZM109.765 391.992L111.805 386.424H112.969L110.389 393H109.117L106.537 386.424H107.713L109.765 391.992ZM113.635 389.688C113.635 389.016 113.771 388.428 114.043 387.924C114.315 387.412 114.687 387.016 115.159 386.736C115.639 386.456 116.171 386.316 116.755 386.316C117.331 386.316 117.831 386.44 118.255 386.688C118.679 386.936 118.995 387.248 119.203 387.624V386.424H120.307V393H119.203V391.776C118.987 392.16 118.663 392.48 118.231 392.736C117.807 392.984 117.311 393.108 116.743 393.108C116.159 393.108 115.631 392.964 115.159 392.676C114.687 392.388 114.315 391.984 114.043 391.464C113.771 390.944 113.635 390.352 113.635 389.688ZM119.203 389.7C119.203 389.204 119.103 388.772 118.903 388.404C118.703 388.036 118.431 387.756 118.087 387.564C117.751 387.364 117.379 387.264 116.971 387.264C116.563 387.264 116.191 387.36 115.855 387.552C115.519 387.744 115.251 388.024 115.051 388.392C114.851 388.76 114.751 389.192 114.751 389.688C114.751 390.192 114.851 390.632 115.051 391.008C115.251 391.376 115.519 391.66 115.855 391.86C116.191 392.052 116.563 392.148 116.971 392.148C117.379 392.148 117.751 392.052 118.087 391.86C118.431 391.66 118.703 391.376 118.903 391.008C119.103 390.632 119.203 390.196 119.203 389.7ZM123.245 384.12V393H122.153V384.12H123.245ZM130.938 386.424V393H129.846V392.028C129.638 392.364 129.346 392.628 128.97 392.82C128.602 393.004 128.194 393.096 127.746 393.096C127.234 393.096 126.774 392.992 126.366 392.784C125.958 392.568 125.634 392.248 125.394 391.824C125.162 391.4 125.046 390.884 125.046 390.276V386.424H126.126V390.132C126.126 390.78 126.29 391.28 126.618 391.632C126.946 391.976 127.394 392.148 127.962 392.148C128.546 392.148 129.006 391.968 129.342 391.608C129.678 391.248 129.846 390.724 129.846 390.036V386.424H130.938ZM132.373 389.688C132.373 389.016 132.509 388.428 132.781 387.924C133.053 387.412 133.425 387.016 133.897 386.736C134.377 386.456 134.909 386.316 135.493 386.316C136.069 386.316 136.569 386.44 136.993 386.688C137.417 386.936 137.733 387.248 137.941 387.624V386.424H139.045V393H137.941V391.776C137.725 392.16 137.401 392.48 136.969 392.736C136.545 392.984 136.049 393.108 135.481 393.108C134.897 393.108 134.369 392.964 133.897 392.676C133.425 392.388 133.053 391.984 132.781 391.464C132.509 390.944 132.373 390.352 132.373 389.688ZM137.941 389.7C137.941 389.204 137.841 388.772 137.641 388.404C137.441 388.036 137.169 387.756 136.825 387.564C136.489 387.364 136.117 387.264 135.709 387.264C135.301 387.264 134.929 387.36 134.593 387.552C134.257 387.744 133.989 388.024 133.789 388.392C133.589 388.76 133.489 389.192 133.489 389.688C133.489 390.192 133.589 390.632 133.789 391.008C133.989 391.376 134.257 391.66 134.593 391.86C134.929 392.052 135.301 392.148 135.709 392.148C136.117 392.148 136.489 392.052 136.825 391.86C137.169 391.66 137.441 391.376 137.641 391.008C137.841 390.632 137.941 390.196 137.941 389.7ZM142.223 387.324V391.2C142.223 391.52 142.291 391.748 142.427 391.884C142.563 392.012 142.799 392.076 143.135 392.076H143.939V393H142.955C142.347 393 141.891 392.86 141.587 392.58C141.283 392.3 141.131 391.84 141.131 391.2V387.324H140.279V386.424H141.131V384.768H142.223V386.424H143.939V387.324H142.223ZM145.826 385.356C145.618 385.356 145.442 385.284 145.298 385.14C145.154 384.996 145.082 384.82 145.082 384.612C145.082 384.404 145.154 384.228 145.298 384.084C145.442 383.94 145.618 383.868 145.826 383.868C146.026 383.868 146.194 383.94 146.33 384.084C146.474 384.228 146.546 384.404 146.546 384.612C146.546 384.82 146.474 384.996 146.33 385.14C146.194 385.284 146.026 385.356 145.826 385.356ZM146.354 386.424V393H145.262V386.424H146.354ZM151.083 393.108C150.467 393.108 149.907 392.968 149.403 392.688C148.907 392.408 148.515 392.012 148.227 391.5C147.947 390.98 147.807 390.38 147.807 389.7C147.807 389.028 147.951 388.436 148.239 387.924C148.535 387.404 148.935 387.008 149.439 386.736C149.943 386.456 150.507 386.316 151.131 386.316C151.755 386.316 152.319 386.456 152.823 386.736C153.327 387.008 153.723 387.4 154.011 387.912C154.307 388.424 154.455 389.02 154.455 389.7C154.455 390.38 154.303 390.98 153.999 391.5C153.703 392.012 153.299 392.408 152.787 392.688C152.275 392.968 151.707 393.108 151.083 393.108ZM151.083 392.148C151.475 392.148 151.843 392.056 152.187 391.872C152.531 391.688 152.807 391.412 153.015 391.044C153.231 390.676 153.339 390.228 153.339 389.7C153.339 389.172 153.235 388.724 153.027 388.356C152.819 387.988 152.547 387.716 152.211 387.54C151.875 387.356 151.511 387.264 151.119 387.264C150.719 387.264 150.351 387.356 150.015 387.54C149.687 387.716 149.423 387.988 149.223 388.356C149.023 388.724 148.923 389.172 148.923 389.7C148.923 390.236 149.019 390.688 149.211 391.056C149.411 391.424 149.675 391.7 150.003 391.884C150.331 392.06 150.691 392.148 151.083 392.148ZM159.095 386.304C159.895 386.304 160.543 386.548 161.039 387.036C161.535 387.516 161.783 388.212 161.783 389.124V393H160.703V389.28C160.703 388.624 160.539 388.124 160.211 387.78C159.883 387.428 159.435 387.252 158.867 387.252C158.291 387.252 157.831 387.432 157.487 387.792C157.151 388.152 156.983 388.676 156.983 389.364V393H155.891V386.424H156.983V387.36C157.199 387.024 157.491 386.764 157.859 386.58C158.235 386.396 158.647 386.304 159.095 386.304ZM169.634 393.108C169.018 393.108 168.458 392.968 167.954 392.688C167.458 392.408 167.066 392.012 166.778 391.5C166.498 390.98 166.358 390.38 166.358 389.7C166.358 389.028 166.502 388.436 166.79 387.924C167.086 387.404 167.486 387.008 167.99 386.736C168.494 386.456 169.058 386.316 169.682 386.316C170.306 386.316 170.87 386.456 171.374 386.736C171.878 387.008 172.274 387.4 172.562 387.912C172.858 388.424 173.006 389.02 173.006 389.7C173.006 390.38 172.854 390.98 172.55 391.5C172.254 392.012 171.85 392.408 171.338 392.688C170.826 392.968 170.258 393.108 169.634 393.108ZM169.634 392.148C170.026 392.148 170.394 392.056 170.738 391.872C171.082 391.688 171.358 391.412 171.566 391.044C171.782 390.676 171.89 390.228 171.89 389.7C171.89 389.172 171.786 388.724 171.578 388.356C171.37 387.988 171.098 387.716 170.762 387.54C170.426 387.356 170.062 387.264 169.67 387.264C169.27 387.264 168.902 387.356 168.566 387.54C168.238 387.716 167.974 387.988 167.774 388.356C167.574 388.724 167.474 389.172 167.474 389.7C167.474 390.236 167.57 390.688 167.762 391.056C167.962 391.424 168.226 391.7 168.554 391.884C168.882 392.06 169.242 392.148 169.634 392.148ZM177.118 387.324H175.738V393H174.646V387.324H173.794V386.424H174.646V385.956C174.646 385.22 174.834 384.684 175.21 384.348C175.594 384.004 176.206 383.832 177.046 383.832V384.744C176.566 384.744 176.226 384.84 176.026 385.032C175.834 385.216 175.738 385.524 175.738 385.956V386.424H177.118V387.324ZM187.254 386.424L183.294 396.096H182.166L183.462 392.928L180.81 386.424H182.022L184.086 391.752L186.126 386.424H187.254ZM191.22 393.108C190.604 393.108 190.044 392.968 189.54 392.688C189.044 392.408 188.652 392.012 188.364 391.5C188.084 390.98 187.944 390.38 187.944 389.7C187.944 389.028 188.088 388.436 188.376 387.924C188.672 387.404 189.072 387.008 189.576 386.736C190.08 386.456 190.644 386.316 191.268 386.316C191.892 386.316 192.456 386.456 192.96 386.736C193.464 387.008 193.86 387.4 194.148 387.912C194.444 388.424 194.592 389.02 194.592 389.7C194.592 390.38 194.44 390.98 194.136 391.5C193.84 392.012 193.436 392.408 192.924 392.688C192.412 392.968 191.844 393.108 191.22 393.108ZM191.22 392.148C191.612 392.148 191.98 392.056 192.324 391.872C192.668 391.688 192.944 391.412 193.152 391.044C193.368 390.676 193.476 390.228 193.476 389.7C193.476 389.172 193.372 388.724 193.164 388.356C192.956 387.988 192.684 387.716 192.348 387.54C192.012 387.356 191.648 387.264 191.256 387.264C190.856 387.264 190.488 387.356 190.152 387.54C189.824 387.716 189.56 387.988 189.36 388.356C189.16 388.724 189.06 389.172 189.06 389.7C189.06 390.236 189.156 390.688 189.348 391.056C189.548 391.424 189.812 391.7 190.14 391.884C190.468 392.06 190.828 392.148 191.22 392.148ZM201.86 386.424V393H200.768V392.028C200.56 392.364 200.268 392.628 199.892 392.82C199.524 393.004 199.116 393.096 198.668 393.096C198.156 393.096 197.696 392.992 197.288 392.784C196.88 392.568 196.556 392.248 196.316 391.824C196.084 391.4 195.968 390.884 195.968 390.276V386.424H197.048V390.132C197.048 390.78 197.212 391.28 197.54 391.632C197.868 391.976 198.316 392.148 198.884 392.148C199.468 392.148 199.928 391.968 200.264 391.608C200.6 391.248 200.768 390.724 200.768 390.036V386.424H201.86ZM204.795 387.492C204.987 387.116 205.259 386.824 205.611 386.616C205.971 386.408 206.407 386.304 206.919 386.304V387.432H206.631C205.407 387.432 204.795 388.096 204.795 389.424V393H203.703V386.424H204.795V387.492ZM212.471 387.648C212.695 387.256 213.023 386.936 213.455 386.688C213.887 386.44 214.379 386.316 214.931 386.316C215.523 386.316 216.055 386.456 216.527 386.736C216.999 387.016 217.371 387.412 217.643 387.924C217.915 388.428 218.051 389.016 218.051 389.688C218.051 390.352 217.915 390.944 217.643 391.464C217.371 391.984 216.995 392.388 216.515 392.676C216.043 392.964 215.515 393.108 214.931 393.108C214.363 393.108 213.863 392.984 213.431 392.736C213.007 392.488 212.687 392.172 212.471 391.788V393H211.379V384.12H212.471V387.648ZM216.935 389.688C216.935 389.192 216.835 388.76 216.635 388.392C216.435 388.024 216.163 387.744 215.819 387.552C215.483 387.36 215.111 387.264 214.703 387.264C214.303 387.264 213.931 387.364 213.587 387.564C213.251 387.756 212.979 388.04 212.771 388.416C212.571 388.784 212.471 389.212 212.471 389.7C212.471 390.196 212.571 390.632 212.771 391.008C212.979 391.376 213.251 391.66 213.587 391.86C213.931 392.052 214.303 392.148 214.703 392.148C215.111 392.148 215.483 392.052 215.819 391.86C216.163 391.66 216.435 391.376 216.635 391.008C216.835 390.632 216.935 390.192 216.935 389.688ZM225.32 386.424V393H224.228V392.028C224.02 392.364 223.728 392.628 223.352 392.82C222.984 393.004 222.576 393.096 222.128 393.096C221.616 393.096 221.156 392.992 220.748 392.784C220.34 392.568 220.016 392.248 219.776 391.824C219.544 391.4 219.428 390.884 219.428 390.276V386.424H220.508V390.132C220.508 390.78 220.672 391.28 221 391.632C221.328 391.976 221.776 392.148 222.344 392.148C222.928 392.148 223.388 391.968 223.724 391.608C224.06 391.248 224.228 390.724 224.228 390.036V386.424H225.32ZM229.492 393.108C228.988 393.108 228.536 393.024 228.136 392.856C227.736 392.68 227.42 392.44 227.188 392.136C226.956 391.824 226.828 391.468 226.804 391.068H227.932C227.964 391.396 228.116 391.664 228.388 391.872C228.668 392.08 229.032 392.184 229.48 392.184C229.896 392.184 230.224 392.092 230.464 391.908C230.704 391.724 230.824 391.492 230.824 391.212C230.824 390.924 230.696 390.712 230.44 390.576C230.184 390.432 229.788 390.292 229.252 390.156C228.764 390.028 228.364 389.9 228.052 389.772C227.748 389.636 227.484 389.44 227.26 389.184C227.044 388.92 226.936 388.576 226.936 388.152C226.936 387.816 227.036 387.508 227.236 387.228C227.436 386.948 227.72 386.728 228.088 386.568C228.456 386.4 228.876 386.316 229.348 386.316C230.076 386.316 230.664 386.5 231.112 386.868C231.56 387.236 231.8 387.74 231.832 388.38H230.74C230.716 388.036 230.576 387.76 230.32 387.552C230.072 387.344 229.736 387.24 229.312 387.24C228.92 387.24 228.608 387.324 228.376 387.492C228.144 387.66 228.028 387.88 228.028 388.152C228.028 388.368 228.096 388.548 228.232 388.692C228.376 388.828 228.552 388.94 228.76 389.028C228.976 389.108 229.272 389.2 229.648 389.304C230.12 389.432 230.504 389.56 230.8 389.688C231.096 389.808 231.348 389.992 231.556 390.24C231.772 390.488 231.884 390.812 231.892 391.212C231.892 391.572 231.792 391.896 231.592 392.184C231.392 392.472 231.108 392.7 230.74 392.868C230.38 393.028 229.964 393.108 229.492 393.108ZM233.998 385.356C233.79 385.356 233.614 385.284 233.47 385.14C233.326 384.996 233.254 384.82 233.254 384.612C233.254 384.404 233.326 384.228 233.47 384.084C233.614 383.94 233.79 383.868 233.998 383.868C234.198 383.868 234.366 383.94 234.502 384.084C234.646 384.228 234.718 384.404 234.718 384.612C234.718 384.82 234.646 384.996 234.502 385.14C234.366 385.284 234.198 385.356 233.998 385.356ZM234.526 386.424V393H233.434V386.424H234.526ZM239.591 386.304C240.391 386.304 241.039 386.548 241.535 387.036C242.031 387.516 242.279 388.212 242.279 389.124V393H241.199V389.28C241.199 388.624 241.035 388.124 240.707 387.78C240.379 387.428 239.931 387.252 239.363 387.252C238.787 387.252 238.327 387.432 237.983 387.792C237.647 388.152 237.479 388.676 237.479 389.364V393H236.387V386.424H237.479V387.36C237.695 387.024 237.987 386.764 238.355 386.58C238.731 386.396 239.143 386.304 239.591 386.304ZM250.063 389.46C250.063 389.668 250.051 389.888 250.027 390.12H244.771C244.811 390.768 245.031 391.276 245.431 391.644C245.839 392.004 246.331 392.184 246.907 392.184C247.379 392.184 247.771 392.076 248.083 391.86C248.403 391.636 248.627 391.34 248.755 390.972H249.931C249.755 391.604 249.403 392.12 248.875 392.52C248.347 392.912 247.691 393.108 246.907 393.108C246.283 393.108 245.723 392.968 245.227 392.688C244.739 392.408 244.355 392.012 244.075 391.5C243.795 390.98 243.655 390.38 243.655 389.7C243.655 389.02 243.791 388.424 244.063 387.912C244.335 387.4 244.715 387.008 245.203 386.736C245.699 386.456 246.267 386.316 246.907 386.316C247.531 386.316 248.083 386.452 248.563 386.724C249.043 386.996 249.411 387.372 249.667 387.852C249.931 388.324 250.063 388.86 250.063 389.46ZM248.935 389.232C248.935 388.816 248.843 388.46 248.659 388.164C248.475 387.86 248.223 387.632 247.903 387.48C247.591 387.32 247.243 387.24 246.859 387.24C246.307 387.24 245.835 387.416 245.443 387.768C245.059 388.12 244.839 388.608 244.783 389.232H248.935ZM253.832 393.108C253.328 393.108 252.876 393.024 252.476 392.856C252.076 392.68 251.76 392.44 251.528 392.136C251.296 391.824 251.168 391.468 251.144 391.068H252.272C252.304 391.396 252.456 391.664 252.728 391.872C253.008 392.08 253.372 392.184 253.82 392.184C254.236 392.184 254.564 392.092 254.804 391.908C255.044 391.724 255.164 391.492 255.164 391.212C255.164 390.924 255.036 390.712 254.78 390.576C254.524 390.432 254.128 390.292 253.592 390.156C253.104 390.028 252.704 389.9 252.392 389.772C252.088 389.636 251.824 389.44 251.6 389.184C251.384 388.92 251.276 388.576 251.276 388.152C251.276 387.816 251.376 387.508 251.576 387.228C251.776 386.948 252.06 386.728 252.428 386.568C252.796 386.4 253.216 386.316 253.688 386.316C254.416 386.316 255.004 386.5 255.452 386.868C255.9 387.236 256.14 387.74 256.172 388.38H255.08C255.056 388.036 254.916 387.76 254.66 387.552C254.412 387.344 254.076 387.24 253.652 387.24C253.26 387.24 252.948 387.324 252.716 387.492C252.484 387.66 252.368 387.88 252.368 388.152C252.368 388.368 252.436 388.548 252.572 388.692C252.716 388.828 252.892 388.94 253.1 389.028C253.316 389.108 253.612 389.2 253.988 389.304C254.46 389.432 254.844 389.56 255.14 389.688C255.436 389.808 255.688 389.992 255.896 390.24C256.112 390.488 256.224 390.812 256.232 391.212C256.232 391.572 256.132 391.896 255.932 392.184C255.732 392.472 255.448 392.7 255.08 392.868C254.72 393.028 254.304 393.108 253.832 393.108ZM260.102 393.108C259.598 393.108 259.146 393.024 258.746 392.856C258.346 392.68 258.03 392.44 257.798 392.136C257.566 391.824 257.438 391.468 257.414 391.068H258.542C258.574 391.396 258.726 391.664 258.998 391.872C259.278 392.08 259.642 392.184 260.09 392.184C260.506 392.184 260.834 392.092 261.074 391.908C261.314 391.724 261.434 391.492 261.434 391.212C261.434 390.924 261.306 390.712 261.05 390.576C260.794 390.432 260.398 390.292 259.862 390.156C259.374 390.028 258.974 389.9 258.662 389.772C258.358 389.636 258.094 389.44 257.87 389.184C257.654 388.92 257.546 388.576 257.546 388.152C257.546 387.816 257.646 387.508 257.846 387.228C258.046 386.948 258.33 386.728 258.698 386.568C259.066 386.4 259.486 386.316 259.958 386.316C260.686 386.316 261.274 386.5 261.722 386.868C262.17 387.236 262.41 387.74 262.442 388.38H261.35C261.326 388.036 261.186 387.76 260.93 387.552C260.682 387.344 260.346 387.24 259.922 387.24C259.53 387.24 259.218 387.324 258.986 387.492C258.754 387.66 258.638 387.88 258.638 388.152C258.638 388.368 258.706 388.548 258.842 388.692C258.986 388.828 259.162 388.94 259.37 389.028C259.586 389.108 259.882 389.2 260.258 389.304C260.73 389.432 261.114 389.56 261.41 389.688C261.706 389.808 261.958 389.992 262.166 390.24C262.382 390.488 262.494 390.812 262.502 391.212C262.502 391.572 262.402 391.896 262.202 392.184C262.002 392.472 261.718 392.7 261.35 392.868C260.99 393.028 260.574 393.108 260.102 393.108ZM3.32069 405.492C3.51269 405.116 3.78469 404.824 4.13669 404.616C4.49669 404.408 4.93269 404.304 5.44469 404.304V405.432H5.15669C3.93269 405.432 3.32069 406.096 3.32069 407.424V411H2.22869V404.424H3.32069V405.492ZM12.7053 407.46C12.7053 407.668 12.6933 407.888 12.6693 408.12H7.41325C7.45325 408.768 7.67325 409.276 8.07325 409.644C8.48125 410.004 8.97325 410.184 9.54925 410.184C10.0213 410.184 10.4133 410.076 10.7253 409.86C11.0453 409.636 11.2693 409.34 11.3973 408.972H12.5733C12.3973 409.604 12.0453 410.12 11.5173 410.52C10.9893 410.912 10.3333 411.108 9.54925 411.108C8.92525 411.108 8.36525 410.968 7.86925 410.688C7.38125 410.408 6.99725 410.012 6.71725 409.5C6.43725 408.98 6.29725 408.38 6.29725 407.7C6.29725 407.02 6.43325 406.424 6.70525 405.912C6.97725 405.4 7.35725 405.008 7.84525 404.736C8.34125 404.456 8.90925 404.316 9.54925 404.316C10.1733 404.316 10.7253 404.452 11.2053 404.724C11.6853 404.996 12.0533 405.372 12.3093 405.852C12.5733 406.324 12.7053 406.86 12.7053 407.46ZM11.5773 407.232C11.5773 406.816 11.4853 406.46 11.3013 406.164C11.1173 405.86 10.8653 405.632 10.5453 405.48C10.2333 405.32 9.88525 405.24 9.50125 405.24C8.94925 405.24 8.47725 405.416 8.08525 405.768C7.70125 406.12 7.48125 406.608 7.42525 407.232H11.5773ZM13.7387 407.688C13.7387 407.016 13.8747 406.428 14.1467 405.924C14.4187 405.412 14.7907 405.016 15.2627 404.736C15.7427 404.456 16.2787 404.316 16.8707 404.316C17.4387 404.316 17.9347 404.444 18.3587 404.7C18.7907 404.948 19.1067 405.256 19.3067 405.624V404.424H20.4107V414.12H19.3067V409.788C19.0987 410.156 18.7787 410.468 18.3467 410.724C17.9147 410.98 17.4107 411.108 16.8347 411.108C16.2587 411.108 15.7347 410.964 15.2627 410.676C14.7907 410.388 14.4187 409.984 14.1467 409.464C13.8747 408.944 13.7387 408.352 13.7387 407.688ZM19.3067 407.7C19.3067 407.204 19.2067 406.772 19.0067 406.404C18.8067 406.036 18.5347 405.756 18.1907 405.564C17.8547 405.364 17.4827 405.264 17.0747 405.264C16.6667 405.264 16.2947 405.36 15.9587 405.552C15.6227 405.744 15.3547 406.024 15.1547 406.392C14.9547 406.76 14.8547 407.192 14.8547 407.688C14.8547 408.192 14.9547 408.632 15.1547 409.008C15.3547 409.376 15.6227 409.66 15.9587 409.86C16.2947 410.052 16.6667 410.148 17.0747 410.148C17.4827 410.148 17.8547 410.052 18.1907 409.86C18.5347 409.66 18.8067 409.376 19.0067 409.008C19.2067 408.632 19.3067 408.196 19.3067 407.7ZM28.088 404.424V411H26.996V410.028C26.788 410.364 26.496 410.628 26.12 410.82C25.752 411.004 25.344 411.096 24.896 411.096C24.384 411.096 23.924 410.992 23.516 410.784C23.108 410.568 22.784 410.248 22.544 409.824C22.312 409.4 22.196 408.884 22.196 408.276V404.424H23.276V408.132C23.276 408.78 23.44 409.28 23.768 409.632C24.096 409.976 24.544 410.148 25.112 410.148C25.696 410.148 26.156 409.968 26.492 409.608C26.828 409.248 26.996 408.724 26.996 408.036V404.424H28.088ZM30.4958 403.356C30.2878 403.356 30.1118 403.284 29.9678 403.14C29.8238 402.996 29.7518 402.82 29.7518 402.612C29.7518 402.404 29.8238 402.228 29.9678 402.084C30.1118 401.94 30.2878 401.868 30.4958 401.868C30.6958 401.868 30.8638 401.94 30.9998 402.084C31.1438 402.228 31.2158 402.404 31.2158 402.612C31.2158 402.82 31.1438 402.996 30.9998 403.14C30.8638 403.284 30.6958 403.356 30.4958 403.356ZM31.0238 404.424V411H29.9318V404.424H31.0238ZM33.9769 405.492C34.1689 405.116 34.4409 404.824 34.7929 404.616C35.1529 404.408 35.5889 404.304 36.1009 404.304V405.432H35.8129C34.5889 405.432 33.9769 406.096 33.9769 407.424V411H32.8849V404.424H33.9769V405.492ZM43.3615 407.46C43.3615 407.668 43.3495 407.888 43.3255 408.12H38.0695C38.1095 408.768 38.3295 409.276 38.7295 409.644C39.1375 410.004 39.6295 410.184 40.2055 410.184C40.6775 410.184 41.0695 410.076 41.3815 409.86C41.7015 409.636 41.9255 409.34 42.0535 408.972H43.2295C43.0535 409.604 42.7015 410.12 42.1735 410.52C41.6455 410.912 40.9895 411.108 40.2055 411.108C39.5815 411.108 39.0215 410.968 38.5255 410.688C38.0375 410.408 37.6535 410.012 37.3735 409.5C37.0935 408.98 36.9535 408.38 36.9535 407.7C36.9535 407.02 37.0895 406.424 37.3615 405.912C37.6335 405.4 38.0135 405.008 38.5015 404.736C38.9975 404.456 39.5655 404.316 40.2055 404.316C40.8295 404.316 41.3815 404.452 41.8615 404.724C42.3415 404.996 42.7095 405.372 42.9655 405.852C43.2295 406.324 43.3615 406.86 43.3615 407.46ZM42.2335 407.232C42.2335 406.816 42.1415 406.46 41.9575 406.164C41.7735 405.86 41.5215 405.632 41.2015 405.48C40.8895 405.32 40.5415 405.24 40.1575 405.24C39.6055 405.24 39.1335 405.416 38.7415 405.768C38.3575 406.12 38.1375 406.608 38.0815 407.232H42.2335ZM52.7109 404.304C53.2229 404.304 53.6789 404.412 54.0789 404.628C54.4789 404.836 54.7949 405.152 55.0269 405.576C55.2589 406 55.3749 406.516 55.3749 407.124V411H54.2949V407.28C54.2949 406.624 54.1309 406.124 53.8029 405.78C53.4829 405.428 53.0469 405.252 52.4949 405.252C51.9269 405.252 51.4749 405.436 51.1389 405.804C50.8029 406.164 50.6349 406.688 50.6349 407.376V411H49.5549V407.28C49.5549 406.624 49.3909 406.124 49.0629 405.78C48.7429 405.428 48.3069 405.252 47.7549 405.252C47.1869 405.252 46.7349 405.436 46.3989 405.804C46.0629 406.164 45.8949 406.688 45.8949 407.376V411H44.8029V404.424H45.8949V405.372C46.1109 405.028 46.3989 404.764 46.7589 404.58C47.1269 404.396 47.5309 404.304 47.9709 404.304C48.5229 404.304 49.0109 404.428 49.4349 404.676C49.8589 404.924 50.1749 405.288 50.3829 405.768C50.5669 405.304 50.8709 404.944 51.2949 404.688C51.7189 404.432 52.1909 404.304 52.7109 404.304ZM63.1662 407.46C63.1662 407.668 63.1542 407.888 63.1302 408.12H57.8742C57.9142 408.768 58.1342 409.276 58.5342 409.644C58.9422 410.004 59.4342 410.184 60.0102 410.184C60.4822 410.184 60.8742 410.076 61.1862 409.86C61.5062 409.636 61.7302 409.34 61.8582 408.972H63.0342C62.8582 409.604 62.5062 410.12 61.9782 410.52C61.4502 410.912 60.7942 411.108 60.0102 411.108C59.3862 411.108 58.8262 410.968 58.3302 410.688C57.8422 410.408 57.4582 410.012 57.1782 409.5C56.8982 408.98 56.7582 408.38 56.7582 407.7C56.7582 407.02 56.8942 406.424 57.1662 405.912C57.4382 405.4 57.8182 405.008 58.3062 404.736C58.8022 404.456 59.3702 404.316 60.0102 404.316C60.6342 404.316 61.1862 404.452 61.6662 404.724C62.1462 404.996 62.5142 405.372 62.7702 405.852C63.0342 406.324 63.1662 406.86 63.1662 407.46ZM62.0382 407.232C62.0382 406.816 61.9462 406.46 61.7622 406.164C61.5782 405.86 61.3262 405.632 61.0062 405.48C60.6942 405.32 60.3462 405.24 59.9622 405.24C59.4102 405.24 58.9382 405.416 58.5462 405.768C58.1622 406.12 57.9422 406.608 57.8862 407.232H62.0382ZM67.8116 404.304C68.6116 404.304 69.2596 404.548 69.7556 405.036C70.2516 405.516 70.4996 406.212 70.4996 407.124V411H69.4196V407.28C69.4196 406.624 69.2556 406.124 68.9276 405.78C68.5996 405.428 68.1516 405.252 67.5836 405.252C67.0076 405.252 66.5476 405.432 66.2036 405.792C65.8676 406.152 65.6996 406.676 65.6996 407.364V411H64.6076V404.424H65.6996V405.36C65.9156 405.024 66.2076 404.764 66.5756 404.58C66.9516 404.396 67.3636 404.304 67.8116 404.304ZM73.6154 405.324V409.2C73.6154 409.52 73.6834 409.748 73.8194 409.884C73.9554 410.012 74.1914 410.076 74.5274 410.076H75.3314V411H74.3474C73.7394 411 73.2834 410.86 72.9794 410.58C72.6754 410.3 72.5234 409.84 72.5234 409.2V405.324H71.6714V404.424H72.5234V402.768H73.6154V404.424H75.3314V405.324H73.6154ZM78.9825 411.108C78.4785 411.108 78.0265 411.024 77.6265 410.856C77.2265 410.68 76.9105 410.44 76.6785 410.136C76.4465 409.824 76.3185 409.468 76.2945 409.068H77.4225C77.4545 409.396 77.6065 409.664 77.8785 409.872C78.1585 410.08 78.5225 410.184 78.9705 410.184C79.3865 410.184 79.7145 410.092 79.9545 409.908C80.1945 409.724 80.3145 409.492 80.3145 409.212C80.3145 408.924 80.1865 408.712 79.9305 408.576C79.6745 408.432 79.2785 408.292 78.7425 408.156C78.2545 408.028 77.8545 407.9 77.5425 407.772C77.2385 407.636 76.9745 407.44 76.7505 407.184C76.5345 406.92 76.4265 406.576 76.4265 406.152C76.4265 405.816 76.5265 405.508 76.7265 405.228C76.9265 404.948 77.2105 404.728 77.5785 404.568C77.9465 404.4 78.3665 404.316 78.8385 404.316C79.5665 404.316 80.1545 404.5 80.6025 404.868C81.0505 405.236 81.2905 405.74 81.3225 406.38H80.2305C80.2065 406.036 80.0665 405.76 79.8105 405.552C79.5625 405.344 79.2265 405.24 78.8025 405.24C78.4105 405.24 78.0985 405.324 77.8665 405.492C77.6345 405.66 77.5185 405.88 77.5185 406.152C77.5185 406.368 77.5865 406.548 77.7225 406.692C77.8665 406.828 78.0425 406.94 78.2505 407.028C78.4665 407.108 78.7625 407.2 79.1385 407.304C79.6105 407.432 79.9945 407.56 80.2905 407.688C80.5865 407.808 80.8385 407.992 81.0465 408.24C81.2625 408.488 81.3745 408.812 81.3825 409.212C81.3825 409.572 81.2825 409.896 81.0825 410.184C80.8825 410.472 80.5985 410.7 80.2305 410.868C79.8705 411.028 79.4545 411.108 78.9825 411.108ZM84.052 409.488L82.708 412.716H81.976L82.852 409.488H84.052ZM91.3701 411.108C90.7541 411.108 90.1941 410.968 89.6901 410.688C89.1941 410.408 88.8021 410.012 88.5141 409.5C88.2341 408.98 88.0941 408.38 88.0941 407.7C88.0941 407.028 88.2381 406.436 88.5261 405.924C88.8221 405.404 89.2221 405.008 89.7261 404.736C90.2301 404.456 90.7941 404.316 91.4181 404.316C92.0421 404.316 92.6061 404.456 93.1101 404.736C93.6141 405.008 94.0101 405.4 94.2981 405.912C94.5941 406.424 94.7421 407.02 94.7421 407.7C94.7421 408.38 94.5901 408.98 94.2861 409.5C93.9901 410.012 93.5861 410.408 93.0741 410.688C92.5621 410.968 91.9941 411.108 91.3701 411.108ZM91.3701 410.148C91.7621 410.148 92.1301 410.056 92.4741 409.872C92.8181 409.688 93.0941 409.412 93.3021 409.044C93.5181 408.676 93.6261 408.228 93.6261 407.7C93.6261 407.172 93.5221 406.724 93.3141 406.356C93.1061 405.988 92.8341 405.716 92.4981 405.54C92.1621 405.356 91.7981 405.264 91.4061 405.264C91.0061 405.264 90.6381 405.356 90.3021 405.54C89.9741 405.716 89.7101 405.988 89.5101 406.356C89.3101 406.724 89.2101 407.172 89.2101 407.7C89.2101 408.236 89.3061 408.688 89.4981 409.056C89.6981 409.424 89.9621 409.7 90.2901 409.884C90.6181 410.06 90.9781 410.148 91.3701 410.148ZM102.01 404.424V411H100.918V410.028C100.71 410.364 100.418 410.628 100.042 410.82C99.6739 411.004 99.2659 411.096 98.8179 411.096C98.3059 411.096 97.8459 410.992 97.4379 410.784C97.0299 410.568 96.7059 410.248 96.4659 409.824C96.2339 409.4 96.1179 408.884 96.1179 408.276V404.424H97.1979V408.132C97.1979 408.78 97.3619 409.28 97.6899 409.632C98.0179 409.976 98.4659 410.148 99.0339 410.148C99.6179 410.148 100.078 409.968 100.414 409.608C100.75 409.248 100.918 408.724 100.918 408.036V404.424H102.01ZM104.946 405.492C105.138 405.116 105.41 404.824 105.762 404.616C106.122 404.408 106.558 404.304 107.07 404.304V405.432H106.782C105.558 405.432 104.946 406.096 104.946 407.424V411H103.854V404.424H104.946V405.492ZM113.857 411.108C113.353 411.108 112.901 411.024 112.501 410.856C112.101 410.68 111.785 410.44 111.553 410.136C111.321 409.824 111.193 409.468 111.169 409.068H112.297C112.329 409.396 112.481 409.664 112.753 409.872C113.033 410.08 113.397 410.184 113.845 410.184C114.261 410.184 114.589 410.092 114.829 409.908C115.069 409.724 115.189 409.492 115.189 409.212C115.189 408.924 115.061 408.712 114.805 408.576C114.549 408.432 114.153 408.292 113.617 408.156C113.129 408.028 112.729 407.9 112.417 407.772C112.113 407.636 111.849 407.44 111.625 407.184C111.409 406.92 111.301 406.576 111.301 406.152C111.301 405.816 111.401 405.508 111.601 405.228C111.801 404.948 112.085 404.728 112.453 404.568C112.821 404.4 113.241 404.316 113.713 404.316C114.441 404.316 115.029 404.5 115.477 404.868C115.925 405.236 116.165 405.74 116.197 406.38H115.105C115.081 406.036 114.941 405.76 114.685 405.552C114.437 405.344 114.101 405.24 113.677 405.24C113.285 405.24 112.973 405.324 112.741 405.492C112.509 405.66 112.393 405.88 112.393 406.152C112.393 406.368 112.461 406.548 112.597 406.692C112.741 406.828 112.917 406.94 113.125 407.028C113.341 407.108 113.637 407.2 114.013 407.304C114.485 407.432 114.869 407.56 115.165 407.688C115.461 407.808 115.713 407.992 115.921 408.24C116.137 408.488 116.249 408.812 116.257 409.212C116.257 409.572 116.157 409.896 115.957 410.184C115.757 410.472 115.473 410.7 115.105 410.868C114.745 411.028 114.329 411.108 113.857 411.108ZM117.391 407.688C117.391 407.016 117.527 406.428 117.799 405.924C118.071 405.412 118.443 405.016 118.915 404.736C119.395 404.456 119.927 404.316 120.511 404.316C121.087 404.316 121.587 404.44 122.011 404.688C122.435 404.936 122.751 405.248 122.959 405.624V404.424H124.063V411H122.959V409.776C122.743 410.16 122.419 410.48 121.987 410.736C121.563 410.984 121.067 411.108 120.499 411.108C119.915 411.108 119.387 410.964 118.915 410.676C118.443 410.388 118.071 409.984 117.799 409.464C117.527 408.944 117.391 408.352 117.391 407.688ZM122.959 407.7C122.959 407.204 122.859 406.772 122.659 406.404C122.459 406.036 122.187 405.756 121.843 405.564C121.507 405.364 121.135 405.264 120.727 405.264C120.319 405.264 119.947 405.36 119.611 405.552C119.275 405.744 119.007 406.024 118.807 406.392C118.607 406.76 118.507 407.192 118.507 407.688C118.507 408.192 118.607 408.632 118.807 409.008C119.007 409.376 119.275 409.66 119.611 409.86C119.947 410.052 120.319 410.148 120.727 410.148C121.135 410.148 121.507 410.052 121.843 409.86C122.187 409.66 122.459 409.376 122.659 409.008C122.859 408.632 122.959 408.196 122.959 407.7ZM127 402.12V411H125.908V402.12H127ZM134.862 407.46C134.862 407.668 134.85 407.888 134.826 408.12H129.57C129.61 408.768 129.83 409.276 130.23 409.644C130.638 410.004 131.13 410.184 131.706 410.184C132.178 410.184 132.57 410.076 132.882 409.86C133.202 409.636 133.426 409.34 133.554 408.972H134.73C134.554 409.604 134.202 410.12 133.674 410.52C133.146 410.912 132.49 411.108 131.706 411.108C131.082 411.108 130.522 410.968 130.026 410.688C129.538 410.408 129.154 410.012 128.874 409.5C128.594 408.98 128.454 408.38 128.454 407.7C128.454 407.02 128.59 406.424 128.862 405.912C129.134 405.4 129.514 405.008 130.002 404.736C130.498 404.456 131.066 404.316 131.706 404.316C132.33 404.316 132.882 404.452 133.362 404.724C133.842 404.996 134.21 405.372 134.466 405.852C134.73 406.324 134.862 406.86 134.862 407.46ZM133.734 407.232C133.734 406.816 133.642 406.46 133.458 406.164C133.274 405.86 133.022 405.632 132.702 405.48C132.39 405.32 132.042 405.24 131.658 405.24C131.106 405.24 130.634 405.416 130.242 405.768C129.858 406.12 129.638 406.608 129.582 407.232H133.734ZM138.631 411.108C138.127 411.108 137.675 411.024 137.275 410.856C136.875 410.68 136.559 410.44 136.327 410.136C136.095 409.824 135.967 409.468 135.943 409.068H137.071C137.103 409.396 137.255 409.664 137.527 409.872C137.807 410.08 138.171 410.184 138.619 410.184C139.035 410.184 139.363 410.092 139.603 409.908C139.843 409.724 139.963 409.492 139.963 409.212C139.963 408.924 139.835 408.712 139.579 408.576C139.323 408.432 138.927 408.292 138.391 408.156C137.903 408.028 137.503 407.9 137.191 407.772C136.887 407.636 136.623 407.44 136.399 407.184C136.183 406.92 136.075 406.576 136.075 406.152C136.075 405.816 136.175 405.508 136.375 405.228C136.575 404.948 136.859 404.728 137.227 404.568C137.595 404.4 138.015 404.316 138.487 404.316C139.215 404.316 139.803 404.5 140.251 404.868C140.699 405.236 140.939 405.74 140.971 406.38H139.879C139.855 406.036 139.715 405.76 139.459 405.552C139.211 405.344 138.875 405.24 138.451 405.24C138.059 405.24 137.747 405.324 137.515 405.492C137.283 405.66 137.167 405.88 137.167 406.152C137.167 406.368 137.235 406.548 137.371 406.692C137.515 406.828 137.691 406.94 137.899 407.028C138.115 407.108 138.411 407.2 138.787 407.304C139.259 407.432 139.643 407.56 139.939 407.688C140.235 407.808 140.487 407.992 140.695 408.24C140.911 408.488 141.023 408.812 141.031 409.212C141.031 409.572 140.931 409.896 140.731 410.184C140.531 410.472 140.247 410.7 139.879 410.868C139.519 411.028 139.103 411.108 138.631 411.108ZM153.68 404.304C154.192 404.304 154.648 404.412 155.048 404.628C155.448 404.836 155.764 405.152 155.996 405.576C156.228 406 156.344 406.516 156.344 407.124V411H155.264V407.28C155.264 406.624 155.1 406.124 154.772 405.78C154.452 405.428 154.016 405.252 153.464 405.252C152.896 405.252 152.444 405.436 152.108 405.804C151.772 406.164 151.604 406.688 151.604 407.376V411H150.524V407.28C150.524 406.624 150.36 406.124 150.032 405.78C149.712 405.428 149.276 405.252 148.724 405.252C148.156 405.252 147.704 405.436 147.368 405.804C147.032 406.164 146.864 406.688 146.864 407.376V411H145.772V404.424H146.864V405.372C147.08 405.028 147.368 404.764 147.728 404.58C148.096 404.396 148.5 404.304 148.94 404.304C149.492 404.304 149.98 404.428 150.404 404.676C150.828 404.924 151.144 405.288 151.352 405.768C151.536 405.304 151.84 404.944 152.264 404.688C152.688 404.432 153.16 404.304 153.68 404.304ZM157.727 407.688C157.727 407.016 157.863 406.428 158.135 405.924C158.407 405.412 158.779 405.016 159.251 404.736C159.731 404.456 160.263 404.316 160.847 404.316C161.423 404.316 161.923 404.44 162.347 404.688C162.771 404.936 163.087 405.248 163.295 405.624V404.424H164.399V411H163.295V409.776C163.079 410.16 162.755 410.48 162.323 410.736C161.899 410.984 161.403 411.108 160.835 411.108C160.251 411.108 159.723 410.964 159.251 410.676C158.779 410.388 158.407 409.984 158.135 409.464C157.863 408.944 157.727 408.352 157.727 407.688ZM163.295 407.7C163.295 407.204 163.195 406.772 162.995 406.404C162.795 406.036 162.523 405.756 162.179 405.564C161.843 405.364 161.471 405.264 161.063 405.264C160.655 405.264 160.283 405.36 159.947 405.552C159.611 405.744 159.343 406.024 159.143 406.392C158.943 406.76 158.843 407.192 158.843 407.688C158.843 408.192 158.943 408.632 159.143 409.008C159.343 409.376 159.611 409.66 159.947 409.86C160.283 410.052 160.655 410.148 161.063 410.148C161.471 410.148 161.843 410.052 162.179 409.86C162.523 409.66 162.795 409.376 162.995 409.008C163.195 408.632 163.295 408.196 163.295 407.7ZM169.448 404.304C170.248 404.304 170.896 404.548 171.392 405.036C171.888 405.516 172.136 406.212 172.136 407.124V411H171.056V407.28C171.056 406.624 170.892 406.124 170.564 405.78C170.236 405.428 169.788 405.252 169.22 405.252C168.644 405.252 168.184 405.432 167.84 405.792C167.504 406.152 167.336 406.676 167.336 407.364V411H166.244V404.424H167.336V405.36C167.552 405.024 167.844 404.764 168.212 404.58C168.588 404.396 169 404.304 169.448 404.304ZM173.512 407.688C173.512 407.016 173.648 406.428 173.92 405.924C174.192 405.412 174.564 405.016 175.036 404.736C175.516 404.456 176.048 404.316 176.632 404.316C177.208 404.316 177.708 404.44 178.132 404.688C178.556 404.936 178.872 405.248 179.08 405.624V404.424H180.184V411H179.08V409.776C178.864 410.16 178.54 410.48 178.108 410.736C177.684 410.984 177.188 411.108 176.62 411.108C176.036 411.108 175.508 410.964 175.036 410.676C174.564 410.388 174.192 409.984 173.92 409.464C173.648 408.944 173.512 408.352 173.512 407.688ZM179.08 407.7C179.08 407.204 178.98 406.772 178.78 406.404C178.58 406.036 178.308 405.756 177.964 405.564C177.628 405.364 177.256 405.264 176.848 405.264C176.44 405.264 176.068 405.36 175.732 405.552C175.396 405.744 175.128 406.024 174.928 406.392C174.728 406.76 174.628 407.192 174.628 407.688C174.628 408.192 174.728 408.632 174.928 409.008C175.128 409.376 175.396 409.66 175.732 409.86C176.068 410.052 176.44 410.148 176.848 410.148C177.256 410.148 177.628 410.052 177.964 409.86C178.308 409.66 178.58 409.376 178.78 409.008C178.98 408.632 179.08 408.196 179.08 407.7ZM184.741 404.316C185.309 404.316 185.805 404.44 186.229 404.688C186.661 404.936 186.981 405.248 187.189 405.624V404.424H188.293V411.144C188.293 411.744 188.165 412.276 187.909 412.74C187.653 413.212 187.285 413.58 186.805 413.844C186.333 414.108 185.781 414.24 185.149 414.24C184.285 414.24 183.565 414.036 182.989 413.628C182.413 413.22 182.073 412.664 181.969 411.96H183.049C183.169 412.36 183.417 412.68 183.793 412.92C184.169 413.168 184.621 413.292 185.149 413.292C185.749 413.292 186.237 413.104 186.613 412.728C186.997 412.352 187.189 411.824 187.189 411.144V409.764C186.973 410.148 186.653 410.468 186.229 410.724C185.805 410.98 185.309 411.108 184.741 411.108C184.157 411.108 183.625 410.964 183.145 410.676C182.673 410.388 182.301 409.984 182.029 409.464C181.757 408.944 181.621 408.352 181.621 407.688C181.621 407.016 181.757 406.428 182.029 405.924C182.301 405.412 182.673 405.016 183.145 404.736C183.625 404.456 184.157 404.316 184.741 404.316ZM187.189 407.7C187.189 407.204 187.089 406.772 186.889 406.404C186.689 406.036 186.417 405.756 186.073 405.564C185.737 405.364 185.365 405.264 184.957 405.264C184.549 405.264 184.177 405.36 183.841 405.552C183.505 405.744 183.237 406.024 183.037 406.392C182.837 406.76 182.737 407.192 182.737 407.688C182.737 408.192 182.837 408.632 183.037 409.008C183.237 409.376 183.505 409.66 183.841 409.86C184.177 410.052 184.549 410.148 184.957 410.148C185.365 410.148 185.737 410.052 186.073 409.86C186.417 409.66 186.689 409.376 186.889 409.008C187.089 408.632 187.189 408.196 187.189 407.7ZM196.139 407.46C196.139 407.668 196.127 407.888 196.103 408.12H190.847C190.887 408.768 191.107 409.276 191.507 409.644C191.915 410.004 192.407 410.184 192.983 410.184C193.455 410.184 193.847 410.076 194.159 409.86C194.479 409.636 194.703 409.34 194.831 408.972H196.007C195.831 409.604 195.479 410.12 194.951 410.52C194.423 410.912 193.767 411.108 192.983 411.108C192.359 411.108 191.799 410.968 191.303 410.688C190.815 410.408 190.431 410.012 190.151 409.5C189.871 408.98 189.731 408.38 189.731 407.7C189.731 407.02 189.867 406.424 190.139 405.912C190.411 405.4 190.791 405.008 191.279 404.736C191.775 404.456 192.343 404.316 192.983 404.316C193.607 404.316 194.159 404.452 194.639 404.724C195.119 404.996 195.487 405.372 195.743 405.852C196.007 406.324 196.139 406.86 196.139 407.46ZM195.011 407.232C195.011 406.816 194.919 406.46 194.735 406.164C194.551 405.86 194.299 405.632 193.979 405.48C193.667 405.32 193.319 405.24 192.935 405.24C192.383 405.24 191.911 405.416 191.519 405.768C191.135 406.12 190.915 406.608 190.859 407.232H195.011ZM198.672 405.492C198.864 405.116 199.136 404.824 199.488 404.616C199.848 404.408 200.284 404.304 200.796 404.304V405.432H200.508C199.284 405.432 198.672 406.096 198.672 407.424V411H197.58V404.424H198.672V405.492ZM204.848 407.7C204.848 407.02 204.984 406.428 205.256 405.924C205.528 405.412 205.904 405.016 206.384 404.736C206.872 404.456 207.428 404.316 208.052 404.316C208.86 404.316 209.524 404.512 210.044 404.904C210.572 405.296 210.92 405.84 211.088 406.536H209.912C209.8 406.136 209.58 405.82 209.252 405.588C208.932 405.356 208.532 405.24 208.052 405.24C207.428 405.24 206.924 405.456 206.54 405.888C206.156 406.312 205.964 406.916 205.964 407.7C205.964 408.492 206.156 409.104 206.54 409.536C206.924 409.968 207.428 410.184 208.052 410.184C208.532 410.184 208.932 410.072 209.252 409.848C209.572 409.624 209.792 409.304 209.912 408.888H211.088C210.912 409.56 210.56 410.1 210.032 410.508C209.504 410.908 208.844 411.108 208.052 411.108C207.428 411.108 206.872 410.968 206.384 410.688C205.904 410.408 205.528 410.012 205.256 409.5C204.984 408.988 204.848 408.388 204.848 407.7ZM215.413 411.108C214.797 411.108 214.237 410.968 213.733 410.688C213.237 410.408 212.845 410.012 212.557 409.5C212.277 408.98 212.137 408.38 212.137 407.7C212.137 407.028 212.281 406.436 212.569 405.924C212.865 405.404 213.265 405.008 213.769 404.736C214.273 404.456 214.837 404.316 215.461 404.316C216.085 404.316 216.649 404.456 217.153 404.736C217.657 405.008 218.053 405.4 218.341 405.912C218.637 406.424 218.785 407.02 218.785 407.7C218.785 408.38 218.633 408.98 218.329 409.5C218.033 410.012 217.629 410.408 217.117 410.688C216.605 410.968 216.037 411.108 215.413 411.108ZM215.413 410.148C215.805 410.148 216.173 410.056 216.517 409.872C216.861 409.688 217.137 409.412 217.345 409.044C217.561 408.676 217.669 408.228 217.669 407.7C217.669 407.172 217.565 406.724 217.357 406.356C217.149 405.988 216.877 405.716 216.541 405.54C216.205 405.356 215.841 405.264 215.449 405.264C215.049 405.264 214.681 405.356 214.345 405.54C214.017 405.716 213.753 405.988 213.553 406.356C213.353 406.724 213.253 407.172 213.253 407.7C213.253 408.236 213.349 408.688 213.541 409.056C213.741 409.424 214.005 409.7 214.333 409.884C214.661 410.06 215.021 410.148 215.413 410.148ZM223.425 404.304C224.225 404.304 224.873 404.548 225.369 405.036C225.865 405.516 226.113 406.212 226.113 407.124V411H225.033V407.28C225.033 406.624 224.869 406.124 224.541 405.78C224.213 405.428 223.765 405.252 223.197 405.252C222.621 405.252 222.161 405.432 221.817 405.792C221.481 406.152 221.313 406.676 221.313 407.364V411H220.221V404.424H221.313V405.36C221.529 405.024 221.821 404.764 222.189 404.58C222.565 404.396 222.977 404.304 223.425 404.304ZM229.229 405.324V409.2C229.229 409.52 229.297 409.748 229.433 409.884C229.569 410.012 229.805 410.076 230.141 410.076H230.945V411H229.961C229.353 411 228.897 410.86 228.593 410.58C228.289 410.3 228.137 409.84 228.137 409.2V405.324H227.285V404.424H228.137V402.768H229.229V404.424H230.945V405.324H229.229ZM231.86 407.688C231.86 407.016 231.996 406.428 232.268 405.924C232.54 405.412 232.912 405.016 233.384 404.736C233.864 404.456 234.396 404.316 234.98 404.316C235.556 404.316 236.056 404.44 236.48 404.688C236.904 404.936 237.22 405.248 237.428 405.624V404.424H238.532V411H237.428V409.776C237.212 410.16 236.888 410.48 236.456 410.736C236.032 410.984 235.536 411.108 234.968 411.108C234.384 411.108 233.856 410.964 233.384 410.676C232.912 410.388 232.54 409.984 232.268 409.464C231.996 408.944 231.86 408.352 231.86 407.688ZM237.428 407.7C237.428 407.204 237.328 406.772 237.128 406.404C236.928 406.036 236.656 405.756 236.312 405.564C235.976 405.364 235.604 405.264 235.196 405.264C234.788 405.264 234.416 405.36 234.08 405.552C233.744 405.744 233.476 406.024 233.276 406.392C233.076 406.76 232.976 407.192 232.976 407.688C232.976 408.192 233.076 408.632 233.276 409.008C233.476 409.376 233.744 409.66 234.08 409.86C234.416 410.052 234.788 410.148 235.196 410.148C235.604 410.148 235.976 410.052 236.312 409.86C236.656 409.66 236.928 409.376 237.128 409.008C237.328 408.632 237.428 408.196 237.428 407.7ZM239.969 407.7C239.969 407.02 240.105 406.428 240.377 405.924C240.649 405.412 241.025 405.016 241.505 404.736C241.993 404.456 242.549 404.316 243.173 404.316C243.981 404.316 244.645 404.512 245.165 404.904C245.693 405.296 246.041 405.84 246.209 406.536H245.033C244.921 406.136 244.701 405.82 244.373 405.588C244.053 405.356 243.653 405.24 243.173 405.24C242.549 405.24 242.045 405.456 241.661 405.888C241.277 406.312 241.085 406.916 241.085 407.7C241.085 408.492 241.277 409.104 241.661 409.536C242.045 409.968 242.549 410.184 243.173 410.184C243.653 410.184 244.053 410.072 244.373 409.848C244.693 409.624 244.913 409.304 245.033 408.888H246.209C246.033 409.56 245.681 410.1 245.153 410.508C244.625 410.908 243.965 411.108 243.173 411.108C242.549 411.108 241.993 410.968 241.505 410.688C241.025 410.408 240.649 410.012 240.377 409.5C240.105 408.988 239.969 408.388 239.969 407.7ZM248.998 405.324V409.2C248.998 409.52 249.066 409.748 249.202 409.884C249.338 410.012 249.574 410.076 249.91 410.076H250.714V411H249.73C249.122 411 248.666 410.86 248.362 410.58C248.058 410.3 247.906 409.84 247.906 409.2V405.324H247.054V404.424H247.906V402.768H248.998V404.424H250.714V405.324H248.998ZM254.365 411.108C253.861 411.108 253.409 411.024 253.009 410.856C252.609 410.68 252.293 410.44 252.061 410.136C251.829 409.824 251.701 409.468 251.677 409.068H252.805C252.837 409.396 252.989 409.664 253.261 409.872C253.541 410.08 253.905 410.184 254.353 410.184C254.769 410.184 255.097 410.092 255.337 409.908C255.577 409.724 255.697 409.492 255.697 409.212C255.697 408.924 255.569 408.712 255.313 408.576C255.057 408.432 254.661 408.292 254.125 408.156C253.637 408.028 253.237 407.9 252.925 407.772C252.621 407.636 252.357 407.44 252.133 407.184C251.917 406.92 251.809 406.576 251.809 406.152C251.809 405.816 251.909 405.508 252.109 405.228C252.309 404.948 252.593 404.728 252.961 404.568C253.329 404.4 253.749 404.316 254.221 404.316C254.949 404.316 255.537 404.5 255.985 404.868C256.433 405.236 256.673 405.74 256.705 406.38H255.613C255.589 406.036 255.449 405.76 255.193 405.552C254.945 405.344 254.609 405.24 254.185 405.24C253.793 405.24 253.481 405.324 253.249 405.492C253.017 405.66 252.901 405.88 252.901 406.152C252.901 406.368 252.969 406.548 253.105 406.692C253.249 406.828 253.425 406.94 253.633 407.028C253.849 407.108 254.145 407.2 254.521 407.304C254.993 407.432 255.377 407.56 255.673 407.688C255.969 407.808 256.221 407.992 256.429 408.24C256.645 408.488 256.757 408.812 256.765 409.212C256.765 409.572 256.665 409.896 256.465 410.184C256.265 410.472 255.981 410.7 255.613 410.868C255.253 411.028 254.837 411.108 254.365 411.108ZM267.17 404.424L263.21 414.096H262.082L263.378 410.928L260.726 404.424H261.938L264.002 409.752L266.042 404.424H267.17ZM271.136 411.108C270.52 411.108 269.96 410.968 269.456 410.688C268.96 410.408 268.568 410.012 268.28 409.5C268 408.98 267.86 408.38 267.86 407.7C267.86 407.028 268.004 406.436 268.292 405.924C268.588 405.404 268.988 405.008 269.492 404.736C269.996 404.456 270.56 404.316 271.184 404.316C271.808 404.316 272.372 404.456 272.876 404.736C273.38 405.008 273.776 405.4 274.064 405.912C274.36 406.424 274.508 407.02 274.508 407.7C274.508 408.38 274.356 408.98 274.052 409.5C273.756 410.012 273.352 410.408 272.84 410.688C272.328 410.968 271.76 411.108 271.136 411.108ZM271.136 410.148C271.528 410.148 271.896 410.056 272.24 409.872C272.584 409.688 272.86 409.412 273.068 409.044C273.284 408.676 273.392 408.228 273.392 407.7C273.392 407.172 273.288 406.724 273.08 406.356C272.872 405.988 272.6 405.716 272.264 405.54C271.928 405.356 271.564 405.264 271.172 405.264C270.772 405.264 270.404 405.356 270.068 405.54C269.74 405.716 269.476 405.988 269.276 406.356C269.076 406.724 268.976 407.172 268.976 407.7C268.976 408.236 269.072 408.688 269.264 409.056C269.464 409.424 269.728 409.7 270.056 409.884C270.384 410.06 270.744 410.148 271.136 410.148ZM281.776 404.424V411H280.684V410.028C280.476 410.364 280.184 410.628 279.808 410.82C279.44 411.004 279.032 411.096 278.584 411.096C278.072 411.096 277.612 410.992 277.204 410.784C276.796 410.568 276.472 410.248 276.232 409.824C276 409.4 275.884 408.884 275.884 408.276V404.424H276.964V408.132C276.964 408.78 277.128 409.28 277.456 409.632C277.784 409.976 278.232 410.148 278.8 410.148C279.384 410.148 279.844 409.968 280.18 409.608C280.516 409.248 280.684 408.724 280.684 408.036V404.424H281.776ZM121.557 425.688C121.557 425.016 121.693 424.428 121.965 423.924C122.237 423.412 122.609 423.016 123.081 422.736C123.561 422.456 124.097 422.316 124.689 422.316C125.257 422.316 125.753 422.444 126.177 422.7C126.609 422.948 126.925 423.256 127.125 423.624V422.424H128.229V432.12H127.125V427.788C126.917 428.156 126.597 428.468 126.165 428.724C125.733 428.98 125.229 429.108 124.653 429.108C124.077 429.108 123.553 428.964 123.081 428.676C122.609 428.388 122.237 427.984 121.965 427.464C121.693 426.944 121.557 426.352 121.557 425.688ZM127.125 425.7C127.125 425.204 127.025 424.772 126.825 424.404C126.625 424.036 126.353 423.756 126.009 423.564C125.673 423.364 125.301 423.264 124.893 423.264C124.485 423.264 124.113 423.36 123.777 423.552C123.441 423.744 123.173 424.024 122.973 424.392C122.773 424.76 122.673 425.192 122.673 425.688C122.673 426.192 122.773 426.632 122.973 427.008C123.173 427.376 123.441 427.66 123.777 427.86C124.113 428.052 124.485 428.148 124.893 428.148C125.301 428.148 125.673 428.052 126.009 427.86C126.353 427.66 126.625 427.376 126.825 427.008C127.025 426.632 127.125 426.196 127.125 425.7ZM135.906 422.424V429H134.814V428.028C134.606 428.364 134.314 428.628 133.938 428.82C133.57 429.004 133.162 429.096 132.714 429.096C132.202 429.096 131.742 428.992 131.334 428.784C130.926 428.568 130.602 428.248 130.362 427.824C130.13 427.4 130.014 426.884 130.014 426.276V422.424H131.094V426.132C131.094 426.78 131.258 427.28 131.586 427.632C131.914 427.976 132.362 428.148 132.93 428.148C133.514 428.148 133.974 427.968 134.31 427.608C134.646 427.248 134.814 426.724 134.814 426.036V422.424H135.906ZM138.314 421.356C138.106 421.356 137.93 421.284 137.786 421.14C137.642 420.996 137.57 420.82 137.57 420.612C137.57 420.404 137.642 420.228 137.786 420.084C137.93 419.94 138.106 419.868 138.314 419.868C138.514 419.868 138.682 419.94 138.818 420.084C138.962 420.228 139.034 420.404 139.034 420.612C139.034 420.82 138.962 420.996 138.818 421.14C138.682 421.284 138.514 421.356 138.314 421.356ZM138.842 422.424V429H137.75V422.424H138.842ZM140.295 425.7C140.295 425.02 140.431 424.428 140.703 423.924C140.975 423.412 141.351 423.016 141.831 422.736C142.319 422.456 142.875 422.316 143.499 422.316C144.307 422.316 144.971 422.512 145.491 422.904C146.019 423.296 146.367 423.84 146.535 424.536H145.359C145.247 424.136 145.027 423.82 144.699 423.588C144.379 423.356 143.979 423.24 143.499 423.24C142.875 423.24 142.371 423.456 141.987 423.888C141.603 424.312 141.411 424.916 141.411 425.7C141.411 426.492 141.603 427.104 141.987 427.536C142.371 427.968 142.875 428.184 143.499 428.184C143.979 428.184 144.379 428.072 144.699 427.848C145.019 427.624 145.239 427.304 145.359 426.888H146.535C146.359 427.56 146.007 428.1 145.479 428.508C144.951 428.908 144.291 429.108 143.499 429.108C142.875 429.108 142.319 428.968 141.831 428.688C141.351 428.408 140.975 428.012 140.703 427.5C140.431 426.988 140.295 426.388 140.295 425.7ZM151.664 429L149.084 426.096V429H147.992V420.12H149.084V425.34L151.616 422.424H153.14L150.044 425.7L153.152 429H151.664ZM155.26 420.12V429H154.168V420.12H155.26ZM162.785 422.424L158.825 432.096H157.697L158.993 428.928L156.341 422.424H157.553L159.617 427.752L161.657 422.424H162.785Z" fill="#434343"/>
</svg>
