<svg width="284" height="416" viewBox="0 0 284 416" fill="none" xmlns="http://www.w3.org/2000/svg">
<path d="M144.438 327L49 182.329L54.5519 180L144.276 315.983L228.367 180.474L234 182.674L144.438 327Z" fill="#EDF2F7"/>
<path d="M141.577 227.754L240.153 170.809V56.9453L141.577 0L43 56.9453V170.809L141.577 227.754Z" fill="#002680"/>
<path d="M202.781 150.343L141.391 185.782L80 150.343L80.027 79.4386L141.391 44L202.781 79.4386V150.343Z" fill="white"/>
<path d="M131.367 99.0132C134.119 99.0132 136.29 100.043 137.879 102.101C139.469 104.149 140.263 107.099 140.263 110.949C140.263 114.779 139.479 117.717 137.911 119.765C136.343 121.803 134.162 122.821 131.367 122.821C128.562 122.821 126.37 121.803 124.791 119.765C123.223 117.728 122.439 114.795 122.439 110.965C122.439 108.405 122.802 106.235 123.527 104.453C124.253 102.672 125.282 101.323 126.615 100.405C127.949 99.4772 129.533 99.0132 131.367 99.0132ZM131.367 118.997C132.743 118.997 133.751 118.384 134.391 117.157C135.031 115.92 135.351 113.856 135.351 110.965C135.351 108.011 135.026 105.893 134.375 104.613C133.725 103.333 132.717 102.693 131.351 102.693C129.986 102.693 128.967 103.339 128.295 104.629C127.634 105.92 127.303 108.032 127.303 110.965C127.303 113.845 127.634 115.904 128.295 117.141C128.957 118.379 129.981 118.997 131.367 118.997ZM143.464 122.469V120.165V118.981C143.464 117.808 143.683 116.795 144.12 115.941C144.558 115.077 145.134 114.331 145.848 113.701C146.574 113.061 147.363 112.501 148.216 112.021C149.08 111.541 149.944 111.088 150.808 110.661C151.672 110.235 152.462 109.808 153.176 109.381C153.902 108.944 154.483 108.459 154.92 107.925C155.358 107.392 155.576 106.763 155.576 106.037C155.576 105.109 155.251 104.352 154.6 103.765C153.96 103.179 153.08 102.885 151.96 102.885C150.798 102.885 149.811 103.221 149 103.893C148.19 104.565 147.688 105.579 147.496 106.933H143.032C143.054 105.461 143.395 104.128 144.056 102.933C144.728 101.728 145.731 100.773 147.064 100.069C148.398 99.3652 150.072 99.0132 152.088 99.0132C153.816 99.0132 155.304 99.3066 156.552 99.8932C157.811 100.48 158.782 101.296 159.464 102.341C160.147 103.387 160.488 104.608 160.488 106.005C160.488 107.168 160.275 108.171 159.848 109.013C159.422 109.856 158.856 110.576 158.152 111.173C157.448 111.771 156.675 112.293 155.832 112.741C154.99 113.189 154.147 113.605 153.304 113.989C152.472 114.373 151.704 114.768 151 115.173C150.296 115.568 149.731 116.016 149.304 116.517C148.878 117.019 148.664 117.621 148.664 118.325V118.533H160.456V122.469H143.464Z" fill="#5093FF"/>
<path d="M134.903 345.878H136.947V356H135.106L130.297 349.035V356H128.26V345.878H130.283L134.903 352.577V345.878ZM139.211 345.878C139.262 345.878 139.405 345.878 139.638 345.878C139.876 345.878 140.154 345.878 140.471 345.878C140.793 345.878 141.113 345.88 141.43 345.885C141.752 345.885 142.02 345.887 142.235 345.892C143.462 345.92 144.463 346.139 145.238 346.55C146.013 346.961 146.58 347.535 146.939 348.272C147.303 349.009 147.485 349.882 147.485 350.89C147.485 351.94 147.294 352.848 146.911 353.613C146.528 354.374 145.943 354.962 145.154 355.377C144.37 355.792 143.374 356 142.165 356H139.211V345.878ZM141.269 347.53V354.348H142.207C142.786 354.348 143.311 354.236 143.782 354.012C144.258 353.788 144.638 353.422 144.923 352.913C145.208 352.404 145.35 351.725 145.35 350.876C145.35 350.087 145.224 349.448 144.972 348.958C144.72 348.463 144.361 348.102 143.894 347.873C143.427 347.644 142.874 347.53 142.235 347.53H141.269ZM148.087 356L151.713 345.878H153.869L157.488 356H155.451L154.625 353.655H150.985L150.138 356H148.087ZM151.44 351.87H154.135L152.798 347.852L151.44 351.87Z" fill="#002680"/>
<path d="M14.6058 384.636V393H13.5138V384.636H14.6058ZM19.671 386.304C20.471 386.304 21.119 386.548 21.615 387.036C22.111 387.516 22.359 388.212 22.359 389.124V393H21.279V389.28C21.279 388.624 21.115 388.124 20.787 387.78C20.459 387.428 20.011 387.252 19.443 387.252C18.867 387.252 18.407 387.432 18.063 387.792C17.727 388.152 17.559 388.676 17.559 389.364V393H16.467V386.424H17.559V387.36C17.775 387.024 18.067 386.764 18.435 386.58C18.811 386.396 19.223 386.304 19.671 386.304ZM28.674 387.324V391.2C28.674 391.52 28.742 391.748 28.878 391.884C29.014 392.012 29.25 392.076 29.586 392.076H30.39V393H29.406C28.798 393 28.342 392.86 28.038 392.58C27.734 392.3 27.582 391.84 27.582 391.2V387.324H26.73V386.424H27.582V384.768H28.674V386.424H30.39V387.324H28.674ZM34.9771 386.304C35.4731 386.304 35.9211 386.412 36.3211 386.628C36.7211 386.836 37.0331 387.152 37.2571 387.576C37.4891 388 37.6051 388.516 37.6051 389.124V393H36.5251V389.28C36.5251 388.624 36.3611 388.124 36.0331 387.78C35.7051 387.428 35.2571 387.252 34.6891 387.252C34.1131 387.252 33.6531 387.432 33.3091 387.792C32.9731 388.152 32.8051 388.676 32.8051 389.364V393H31.7131V384.12H32.8051V387.36C33.0211 387.024 33.3171 386.764 33.6931 386.58C34.0771 386.396 34.5051 386.304 34.9771 386.304ZM45.3888 389.46C45.3888 389.668 45.3768 389.888 45.3528 390.12H40.0968C40.1368 390.768 40.3568 391.276 40.7568 391.644C41.1648 392.004 41.6568 392.184 42.2328 392.184C42.7048 392.184 43.0968 392.076 43.4088 391.86C43.7288 391.636 43.9528 391.34 44.0808 390.972H45.2568C45.0808 391.604 44.7288 392.12 44.2008 392.52C43.6728 392.912 43.0168 393.108 42.2328 393.108C41.6088 393.108 41.0488 392.968 40.5528 392.688C40.0648 392.408 39.6808 392.012 39.4008 391.5C39.1208 390.98 38.9808 390.38 38.9808 389.7C38.9808 389.02 39.1168 388.424 39.3888 387.912C39.6608 387.4 40.0408 387.008 40.5288 386.736C41.0248 386.456 41.5928 386.316 42.2328 386.316C42.8568 386.316 43.4088 386.452 43.8888 386.724C44.3688 386.996 44.7368 387.372 44.9928 387.852C45.2568 388.324 45.3888 388.86 45.3888 389.46ZM44.2608 389.232C44.2608 388.816 44.1688 388.46 43.9848 388.164C43.8008 387.86 43.5488 387.632 43.2288 387.48C42.9168 387.32 42.5688 387.24 42.1848 387.24C41.6328 387.24 41.1608 387.416 40.7688 387.768C40.3848 388.12 40.1648 388.608 40.1088 389.232H44.2608ZM50.5935 385.356C50.3855 385.356 50.2095 385.284 50.0655 385.14C49.9215 384.996 49.8495 384.82 49.8495 384.612C49.8495 384.404 49.9215 384.228 50.0655 384.084C50.2095 383.94 50.3855 383.868 50.5935 383.868C50.7935 383.868 50.9615 383.94 51.0975 384.084C51.2415 384.228 51.3135 384.404 51.3135 384.612C51.3135 384.82 51.2415 384.996 51.0975 385.14C50.9615 385.284 50.7935 385.356 50.5935 385.356ZM51.1215 386.424V393H50.0295V386.424H51.1215ZM56.1866 386.304C56.9866 386.304 57.6346 386.548 58.1306 387.036C58.6266 387.516 58.8746 388.212 58.8746 389.124V393H57.7946V389.28C57.7946 388.624 57.6306 388.124 57.3026 387.78C56.9746 387.428 56.5266 387.252 55.9586 387.252C55.3826 387.252 54.9226 387.432 54.5786 387.792C54.2426 388.152 54.0746 388.676 54.0746 389.364V393H52.9826V386.424H54.0746V387.36C54.2906 387.024 54.5826 386.764 54.9506 386.58C55.3266 386.396 55.7386 386.304 56.1866 386.304ZM61.9904 387.324V391.2C61.9904 391.52 62.0584 391.748 62.1944 391.884C62.3304 392.012 62.5664 392.076 62.9024 392.076H63.7064V393H62.7224C62.1144 393 61.6584 392.86 61.3544 392.58C61.0504 392.3 60.8984 391.84 60.8984 391.2V387.324H60.0464V386.424H60.8984V384.768H61.9904V386.424H63.7064V387.324H61.9904ZM71.0295 389.46C71.0295 389.668 71.0175 389.888 70.9935 390.12H65.7375C65.7775 390.768 65.9975 391.276 66.3975 391.644C66.8055 392.004 67.2975 392.184 67.8735 392.184C68.3455 392.184 68.7375 392.076 69.0495 391.86C69.3695 391.636 69.5935 391.34 69.7215 390.972H70.8975C70.7215 391.604 70.3695 392.12 69.8415 392.52C69.3135 392.912 68.6575 393.108 67.8735 393.108C67.2495 393.108 66.6895 392.968 66.1935 392.688C65.7055 392.408 65.3215 392.012 65.0415 391.5C64.7615 390.98 64.6215 390.38 64.6215 389.7C64.6215 389.02 64.7575 388.424 65.0295 387.912C65.3015 387.4 65.6815 387.008 66.1695 386.736C66.6655 386.456 67.2335 386.316 67.8735 386.316C68.4975 386.316 69.0495 386.452 69.5295 386.724C70.0095 386.996 70.3775 387.372 70.6335 387.852C70.8975 388.324 71.0295 388.86 71.0295 389.46ZM69.9015 389.232C69.9015 388.816 69.8095 388.46 69.6255 388.164C69.4415 387.86 69.1895 387.632 68.8695 387.48C68.5575 387.32 68.2095 387.24 67.8255 387.24C67.2735 387.24 66.8015 387.416 66.4095 387.768C66.0255 388.12 65.8055 388.608 65.7495 389.232H69.9015ZM73.5629 387.492C73.7549 387.116 74.0269 386.824 74.3789 386.616C74.7389 386.408 75.1749 386.304 75.6869 386.304V387.432H75.3989C74.1749 387.432 73.5629 388.096 73.5629 389.424V393H72.4709V386.424H73.5629V387.492ZM77.5114 385.356C77.3034 385.356 77.1274 385.284 76.9834 385.14C76.8394 384.996 76.7674 384.82 76.7674 384.612C76.7674 384.404 76.8394 384.228 76.9834 384.084C77.1274 383.94 77.3034 383.868 77.5114 383.868C77.7114 383.868 77.8794 383.94 78.0154 384.084C78.1594 384.228 78.2314 384.404 78.2314 384.612C78.2314 384.82 78.1594 384.996 78.0154 385.14C77.8794 385.284 77.7114 385.356 77.5114 385.356ZM78.0394 386.424V393H76.9474V386.424H78.0394ZM87.8086 386.304C88.3206 386.304 88.7766 386.412 89.1766 386.628C89.5766 386.836 89.8926 387.152 90.1246 387.576C90.3566 388 90.4726 388.516 90.4726 389.124V393H89.3926V389.28C89.3926 388.624 89.2286 388.124 88.9006 387.78C88.5806 387.428 88.1446 387.252 87.5926 387.252C87.0246 387.252 86.5726 387.436 86.2366 387.804C85.9006 388.164 85.7326 388.688 85.7326 389.376V393H84.6526V389.28C84.6526 388.624 84.4886 388.124 84.1606 387.78C83.8406 387.428 83.4046 387.252 82.8526 387.252C82.2846 387.252 81.8326 387.436 81.4966 387.804C81.1606 388.164 80.9926 388.688 80.9926 389.376V393H79.9006V386.424H80.9926V387.372C81.2086 387.028 81.4966 386.764 81.8566 386.58C82.2246 386.396 82.6286 386.304 83.0686 386.304C83.6206 386.304 84.1086 386.428 84.5326 386.676C84.9566 386.924 85.2726 387.288 85.4806 387.768C85.6646 387.304 85.9686 386.944 86.3926 386.688C86.8166 386.432 87.2886 386.304 87.8086 386.304ZM93.3918 391.488L92.0478 394.716H91.3158L92.1918 391.488H93.3918ZM106.602 386.424L104.55 393H103.422L101.838 387.78L100.254 393H99.126L97.062 386.424H98.178L99.69 391.944L101.322 386.424H102.438L104.034 391.956L105.522 386.424H106.602ZM113.686 389.46C113.686 389.668 113.674 389.888 113.65 390.12H108.394C108.434 390.768 108.654 391.276 109.054 391.644C109.462 392.004 109.954 392.184 110.53 392.184C111.002 392.184 111.394 392.076 111.706 391.86C112.026 391.636 112.25 391.34 112.378 390.972H113.554C113.378 391.604 113.026 392.12 112.498 392.52C111.97 392.912 111.314 393.108 110.53 393.108C109.906 393.108 109.346 392.968 108.85 392.688C108.362 392.408 107.978 392.012 107.698 391.5C107.418 390.98 107.278 390.38 107.278 389.7C107.278 389.02 107.414 388.424 107.686 387.912C107.958 387.4 108.338 387.008 108.826 386.736C109.322 386.456 109.89 386.316 110.53 386.316C111.154 386.316 111.706 386.452 112.186 386.724C112.666 386.996 113.034 387.372 113.29 387.852C113.554 388.324 113.686 388.86 113.686 389.46ZM112.558 389.232C112.558 388.816 112.466 388.46 112.282 388.164C112.098 387.86 111.846 387.632 111.526 387.48C111.214 387.32 110.866 387.24 110.482 387.24C109.93 387.24 109.458 387.416 109.066 387.768C108.682 388.12 108.462 388.608 108.406 389.232H112.558ZM117.918 389.688C117.918 389.016 118.054 388.428 118.326 387.924C118.598 387.412 118.97 387.016 119.442 386.736C119.922 386.456 120.454 386.316 121.038 386.316C121.614 386.316 122.114 386.44 122.538 386.688C122.962 386.936 123.278 387.248 123.486 387.624V386.424H124.59V393H123.486V391.776C123.27 392.16 122.946 392.48 122.514 392.736C122.09 392.984 121.594 393.108 121.026 393.108C120.442 393.108 119.914 392.964 119.442 392.676C118.97 392.388 118.598 391.984 118.326 391.464C118.054 390.944 117.918 390.352 117.918 389.688ZM123.486 389.7C123.486 389.204 123.386 388.772 123.186 388.404C122.986 388.036 122.714 387.756 122.37 387.564C122.034 387.364 121.662 387.264 121.254 387.264C120.846 387.264 120.474 387.36 120.138 387.552C119.802 387.744 119.534 388.024 119.334 388.392C119.134 388.76 119.034 389.192 119.034 389.688C119.034 390.192 119.134 390.632 119.334 391.008C119.534 391.376 119.802 391.66 120.138 391.86C120.474 392.052 120.846 392.148 121.254 392.148C121.662 392.148 122.034 392.052 122.37 391.86C122.714 391.66 122.986 391.376 123.186 391.008C123.386 390.632 123.486 390.196 123.486 389.7ZM129.112 387.324H127.732V393H126.64V387.324H125.788V386.424H126.64V385.956C126.64 385.22 126.828 384.684 127.204 384.348C127.588 384.004 128.2 383.832 129.04 383.832V384.744C128.56 384.744 128.22 384.84 128.02 385.032C127.828 385.216 127.732 385.524 127.732 385.956V386.424H129.112V387.324ZM133.061 387.324H131.681V393H130.589V387.324H129.737V386.424H130.589V385.956C130.589 385.22 130.777 384.684 131.153 384.348C131.537 384.004 132.149 383.832 132.989 383.832V384.744C132.509 384.744 132.169 384.84 131.969 385.032C131.777 385.216 131.681 385.524 131.681 385.956V386.424H133.061V387.324ZM134.898 385.356C134.69 385.356 134.514 385.284 134.37 385.14C134.226 384.996 134.154 384.82 134.154 384.612C134.154 384.404 134.226 384.228 134.37 384.084C134.514 383.94 134.69 383.868 134.898 383.868C135.098 383.868 135.266 383.94 135.402 384.084C135.546 384.228 135.618 384.404 135.618 384.612C135.618 384.82 135.546 384.996 135.402 385.14C135.266 385.284 135.098 385.356 134.898 385.356ZM135.426 386.424V393H134.334V386.424H135.426ZM140.719 393L139.159 390.552L137.659 393H136.519L138.643 389.736L136.519 386.424H137.755L139.315 388.86L140.803 386.424H141.943L139.831 389.676L141.955 393H140.719ZM145.821 389.688C145.821 389.016 145.957 388.428 146.229 387.924C146.501 387.412 146.873 387.016 147.345 386.736C147.825 386.456 148.357 386.316 148.941 386.316C149.517 386.316 150.017 386.44 150.441 386.688C150.865 386.936 151.181 387.248 151.389 387.624V386.424H152.493V393H151.389V391.776C151.173 392.16 150.849 392.48 150.417 392.736C149.993 392.984 149.497 393.108 148.929 393.108C148.345 393.108 147.817 392.964 147.345 392.676C146.873 392.388 146.501 391.984 146.229 391.464C145.957 390.944 145.821 390.352 145.821 389.688ZM151.389 389.7C151.389 389.204 151.289 388.772 151.089 388.404C150.889 388.036 150.617 387.756 150.273 387.564C149.937 387.364 149.565 387.264 149.157 387.264C148.749 387.264 148.377 387.36 148.041 387.552C147.705 387.744 147.437 388.024 147.237 388.392C147.037 388.76 146.937 389.192 146.937 389.688C146.937 390.192 147.037 390.632 147.237 391.008C147.437 391.376 147.705 391.66 148.041 391.86C148.377 392.052 148.749 392.148 149.157 392.148C149.565 392.148 149.937 392.052 150.273 391.86C150.617 391.66 150.889 391.376 151.089 391.008C151.289 390.632 151.389 390.196 151.389 389.7ZM157.542 386.304C158.342 386.304 158.99 386.548 159.486 387.036C159.982 387.516 160.23 388.212 160.23 389.124V393H159.15V389.28C159.15 388.624 158.986 388.124 158.658 387.78C158.33 387.428 157.882 387.252 157.314 387.252C156.738 387.252 156.278 387.432 155.934 387.792C155.598 388.152 155.43 388.676 155.43 389.364V393H154.338V386.424H155.43V387.36C155.646 387.024 155.938 386.764 156.306 386.58C156.682 386.396 157.094 386.304 157.542 386.304ZM171.789 393H170.697L166.305 386.34V393H165.213V384.624H166.305L170.697 391.272V384.624H171.789V393ZM176.255 384.636C177.167 384.636 177.955 384.808 178.619 385.152C179.291 385.488 179.803 385.972 180.155 386.604C180.515 387.236 180.695 387.98 180.695 388.836C180.695 389.692 180.515 390.436 180.155 391.068C179.803 391.692 179.291 392.172 178.619 392.508C177.955 392.836 177.167 393 176.255 393H173.651V384.636H176.255ZM176.255 392.1C177.335 392.1 178.159 391.816 178.727 391.248C179.295 390.672 179.579 389.868 179.579 388.836C179.579 387.796 179.291 386.984 178.715 386.4C178.147 385.816 177.327 385.524 176.255 385.524H174.743V392.1H176.255ZM187.079 391.14H183.431L182.759 393H181.607L184.631 384.684H185.891L188.903 393H187.751L187.079 391.14ZM186.767 390.252L185.255 386.028L183.743 390.252H186.767ZM194.752 387.324V391.2C194.752 391.52 194.82 391.748 194.956 391.884C195.092 392.012 195.328 392.076 195.664 392.076H196.468V393H195.484C194.876 393 194.42 392.86 194.116 392.58C193.812 392.3 193.66 391.84 193.66 391.2V387.324H192.808V386.424H193.66V384.768H194.752V386.424H196.468V387.324H194.752ZM200.659 393.108C200.043 393.108 199.483 392.968 198.979 392.688C198.483 392.408 198.091 392.012 197.803 391.5C197.523 390.98 197.383 390.38 197.383 389.7C197.383 389.028 197.527 388.436 197.815 387.924C198.111 387.404 198.511 387.008 199.015 386.736C199.519 386.456 200.083 386.316 200.707 386.316C201.331 386.316 201.895 386.456 202.399 386.736C202.903 387.008 203.299 387.4 203.587 387.912C203.883 388.424 204.031 389.02 204.031 389.7C204.031 390.38 203.879 390.98 203.575 391.5C203.279 392.012 202.875 392.408 202.363 392.688C201.851 392.968 201.283 393.108 200.659 393.108ZM200.659 392.148C201.051 392.148 201.419 392.056 201.763 391.872C202.107 391.688 202.383 391.412 202.591 391.044C202.807 390.676 202.915 390.228 202.915 389.7C202.915 389.172 202.811 388.724 202.603 388.356C202.395 387.988 202.123 387.716 201.787 387.54C201.451 387.356 201.087 387.264 200.695 387.264C200.295 387.264 199.927 387.356 199.591 387.54C199.263 387.716 198.999 387.988 198.799 388.356C198.599 388.724 198.499 389.172 198.499 389.7C198.499 390.236 198.595 390.688 198.787 391.056C198.987 391.424 199.251 391.7 199.579 391.884C199.907 392.06 200.267 392.148 200.659 392.148ZM214.666 389.46C214.666 389.668 214.654 389.888 214.63 390.12H209.374C209.414 390.768 209.634 391.276 210.034 391.644C210.442 392.004 210.934 392.184 211.51 392.184C211.982 392.184 212.374 392.076 212.686 391.86C213.006 391.636 213.23 391.34 213.358 390.972H214.534C214.358 391.604 214.006 392.12 213.478 392.52C212.95 392.912 212.294 393.108 211.51 393.108C210.886 393.108 210.326 392.968 209.83 392.688C209.342 392.408 208.958 392.012 208.678 391.5C208.398 390.98 208.258 390.38 208.258 389.7C208.258 389.02 208.394 388.424 208.666 387.912C208.938 387.4 209.318 387.008 209.806 386.736C210.302 386.456 210.87 386.316 211.51 386.316C212.134 386.316 212.686 386.452 213.166 386.724C213.646 386.996 214.014 387.372 214.27 387.852C214.534 388.324 214.666 388.86 214.666 389.46ZM213.538 389.232C213.538 388.816 213.446 388.46 213.262 388.164C213.078 387.86 212.826 387.632 212.506 387.48C212.194 387.32 211.846 387.24 211.462 387.24C210.91 387.24 210.438 387.416 210.046 387.768C209.662 388.12 209.442 388.608 209.386 389.232H213.538ZM219.312 386.304C220.112 386.304 220.76 386.548 221.256 387.036C221.752 387.516 222 388.212 222 389.124V393H220.92V389.28C220.92 388.624 220.756 388.124 220.428 387.78C220.1 387.428 219.652 387.252 219.084 387.252C218.508 387.252 218.048 387.432 217.704 387.792C217.368 388.152 217.2 388.676 217.2 389.364V393H216.108V386.424H217.2V387.36C217.416 387.024 217.708 386.764 218.076 386.58C218.452 386.396 218.864 386.304 219.312 386.304ZM226.111 393.108C225.607 393.108 225.155 393.024 224.755 392.856C224.355 392.68 224.039 392.44 223.807 392.136C223.575 391.824 223.447 391.468 223.423 391.068H224.551C224.583 391.396 224.735 391.664 225.007 391.872C225.287 392.08 225.651 392.184 226.099 392.184C226.515 392.184 226.843 392.092 227.083 391.908C227.323 391.724 227.443 391.492 227.443 391.212C227.443 390.924 227.315 390.712 227.059 390.576C226.803 390.432 226.407 390.292 225.871 390.156C225.383 390.028 224.983 389.9 224.671 389.772C224.367 389.636 224.103 389.44 223.879 389.184C223.663 388.92 223.555 388.576 223.555 388.152C223.555 387.816 223.655 387.508 223.855 387.228C224.055 386.948 224.339 386.728 224.707 386.568C225.075 386.4 225.495 386.316 225.967 386.316C226.695 386.316 227.283 386.5 227.731 386.868C228.179 387.236 228.419 387.74 228.451 388.38H227.359C227.335 388.036 227.195 387.76 226.939 387.552C226.691 387.344 226.355 387.24 225.931 387.24C225.539 387.24 225.227 387.324 224.995 387.492C224.763 387.66 224.647 387.88 224.647 388.152C224.647 388.368 224.715 388.548 224.851 388.692C224.995 388.828 225.171 388.94 225.379 389.028C225.595 389.108 225.891 389.2 226.267 389.304C226.739 389.432 227.123 389.56 227.419 389.688C227.715 389.808 227.967 389.992 228.175 390.24C228.391 390.488 228.503 390.812 228.511 391.212C228.511 391.572 228.411 391.896 228.211 392.184C228.011 392.472 227.727 392.7 227.359 392.868C226.999 393.028 226.583 393.108 226.111 393.108ZM235.885 386.424V393H234.793V392.028C234.585 392.364 234.293 392.628 233.917 392.82C233.549 393.004 233.141 393.096 232.693 393.096C232.181 393.096 231.721 392.992 231.313 392.784C230.905 392.568 230.581 392.248 230.341 391.824C230.109 391.4 229.993 390.884 229.993 390.276V386.424H231.073V390.132C231.073 390.78 231.237 391.28 231.565 391.632C231.893 391.976 232.341 392.148 232.909 392.148C233.493 392.148 233.953 391.968 234.289 391.608C234.625 391.248 234.793 390.724 234.793 390.036V386.424H235.885ZM238.821 387.492C239.013 387.116 239.285 386.824 239.637 386.616C239.997 386.408 240.433 386.304 240.945 386.304V387.432H240.657C239.433 387.432 238.821 388.096 238.821 389.424V393H237.729V386.424H238.821V387.492ZM248.205 389.46C248.205 389.668 248.193 389.888 248.169 390.12H242.913C242.953 390.768 243.173 391.276 243.573 391.644C243.981 392.004 244.473 392.184 245.049 392.184C245.521 392.184 245.913 392.076 246.225 391.86C246.545 391.636 246.769 391.34 246.897 390.972H248.073C247.897 391.604 247.545 392.12 247.017 392.52C246.489 392.912 245.833 393.108 245.049 393.108C244.425 393.108 243.865 392.968 243.369 392.688C242.881 392.408 242.497 392.012 242.217 391.5C241.937 390.98 241.797 390.38 241.797 389.7C241.797 389.02 241.933 388.424 242.205 387.912C242.477 387.4 242.857 387.008 243.345 386.736C243.841 386.456 244.409 386.316 245.049 386.316C245.673 386.316 246.225 386.452 246.705 386.724C247.185 386.996 247.553 387.372 247.809 387.852C248.073 388.324 248.205 388.86 248.205 389.46ZM247.077 389.232C247.077 388.816 246.985 388.46 246.801 388.164C246.617 387.86 246.365 387.632 246.045 387.48C245.733 387.32 245.385 387.24 245.001 387.24C244.449 387.24 243.977 387.416 243.585 387.768C243.201 388.12 242.981 388.608 242.925 389.232H247.077ZM254.178 387.324V391.2C254.178 391.52 254.246 391.748 254.382 391.884C254.518 392.012 254.754 392.076 255.09 392.076H255.894V393H254.91C254.302 393 253.846 392.86 253.542 392.58C253.238 392.3 253.086 391.84 253.086 391.2V387.324H252.234V386.424H253.086V384.768H254.178V386.424H255.894V387.324H254.178ZM260.481 386.304C260.977 386.304 261.425 386.412 261.825 386.628C262.225 386.836 262.537 387.152 262.761 387.576C262.993 388 263.109 388.516 263.109 389.124V393H262.029V389.28C262.029 388.624 261.865 388.124 261.537 387.78C261.209 387.428 260.761 387.252 260.193 387.252C259.617 387.252 259.157 387.432 258.813 387.792C258.477 388.152 258.309 388.676 258.309 389.364V393H257.217V384.12H258.309V387.36C258.525 387.024 258.821 386.764 259.197 386.58C259.581 386.396 260.009 386.304 260.481 386.304ZM270.893 389.46C270.893 389.668 270.881 389.888 270.857 390.12H265.601C265.641 390.768 265.861 391.276 266.261 391.644C266.669 392.004 267.161 392.184 267.737 392.184C268.209 392.184 268.601 392.076 268.913 391.86C269.233 391.636 269.457 391.34 269.585 390.972H270.761C270.585 391.604 270.233 392.12 269.705 392.52C269.177 392.912 268.521 393.108 267.737 393.108C267.113 393.108 266.553 392.968 266.057 392.688C265.569 392.408 265.185 392.012 264.905 391.5C264.625 390.98 264.485 390.38 264.485 389.7C264.485 389.02 264.621 388.424 264.893 387.912C265.165 387.4 265.545 387.008 266.033 386.736C266.529 386.456 267.097 386.316 267.737 386.316C268.361 386.316 268.913 386.452 269.393 386.724C269.873 386.996 270.241 387.372 270.497 387.852C270.761 388.324 270.893 388.86 270.893 389.46ZM269.765 389.232C269.765 388.816 269.673 388.46 269.489 388.164C269.305 387.86 269.053 387.632 268.733 387.48C268.421 387.32 268.073 387.24 267.689 387.24C267.137 387.24 266.665 387.416 266.273 387.768C265.889 388.12 265.669 388.608 265.613 389.232H269.765ZM76.0982 404.304C76.5942 404.304 77.0422 404.412 77.4422 404.628C77.8422 404.836 78.1542 405.152 78.3782 405.576C78.6102 406 78.7262 406.516 78.7262 407.124V411H77.6462V407.28C77.6462 406.624 77.4822 406.124 77.1542 405.78C76.8262 405.428 76.3782 405.252 75.8102 405.252C75.2342 405.252 74.7742 405.432 74.4302 405.792C74.0942 406.152 73.9262 406.676 73.9262 407.364V411H72.8342V402.12H73.9262V405.36C74.1422 405.024 74.4382 404.764 74.8142 404.58C75.1982 404.396 75.6262 404.304 76.0982 404.304ZM81.0739 403.356C80.8659 403.356 80.6899 403.284 80.5459 403.14C80.4019 402.996 80.3299 402.82 80.3299 402.612C80.3299 402.404 80.4019 402.228 80.5459 402.084C80.6899 401.94 80.8659 401.868 81.0739 401.868C81.2739 401.868 81.4419 401.94 81.5779 402.084C81.7219 402.228 81.7939 402.404 81.7939 402.612C81.7939 402.82 81.7219 402.996 81.5779 403.14C81.4419 403.284 81.2739 403.356 81.0739 403.356ZM81.6019 404.424V411H80.5099V404.424H81.6019ZM86.1751 404.316C86.7431 404.316 87.2391 404.44 87.6631 404.688C88.0951 404.936 88.4151 405.248 88.6231 405.624V404.424H89.7271V411.144C89.7271 411.744 89.5991 412.276 89.3431 412.74C89.0871 413.212 88.7191 413.58 88.2391 413.844C87.7671 414.108 87.2151 414.24 86.5831 414.24C85.7191 414.24 84.9991 414.036 84.4231 413.628C83.8471 413.22 83.5071 412.664 83.4031 411.96H84.4831C84.6031 412.36 84.8511 412.68 85.2271 412.92C85.6031 413.168 86.0551 413.292 86.5831 413.292C87.1831 413.292 87.6711 413.104 88.0471 412.728C88.4311 412.352 88.6231 411.824 88.6231 411.144V409.764C88.4071 410.148 88.0871 410.468 87.6631 410.724C87.2391 410.98 86.7431 411.108 86.1751 411.108C85.5911 411.108 85.0591 410.964 84.5791 410.676C84.1071 410.388 83.7351 409.984 83.4631 409.464C83.1911 408.944 83.0551 408.352 83.0551 407.688C83.0551 407.016 83.1911 406.428 83.4631 405.924C83.7351 405.412 84.1071 405.016 84.5791 404.736C85.0591 404.456 85.5911 404.316 86.1751 404.316ZM88.6231 407.7C88.6231 407.204 88.5231 406.772 88.3231 406.404C88.1231 406.036 87.8511 405.756 87.5071 405.564C87.1711 405.364 86.7991 405.264 86.3911 405.264C85.9831 405.264 85.6111 405.36 85.2751 405.552C84.9391 405.744 84.6711 406.024 84.4711 406.392C84.2711 406.76 84.1711 407.192 84.1711 407.688C84.1711 408.192 84.2711 408.632 84.4711 409.008C84.6711 409.376 84.9391 409.66 85.2751 409.86C85.6111 410.052 85.9831 410.148 86.3911 410.148C86.7991 410.148 87.1711 410.052 87.5071 409.86C87.8511 409.66 88.1231 409.376 88.3231 409.008C88.5231 408.632 88.6231 408.196 88.6231 407.7ZM94.8364 404.304C95.3324 404.304 95.7804 404.412 96.1804 404.628C96.5804 404.836 96.8924 405.152 97.1164 405.576C97.3484 406 97.4644 406.516 97.4644 407.124V411H96.3844V407.28C96.3844 406.624 96.2204 406.124 95.8924 405.78C95.5644 405.428 95.1164 405.252 94.5484 405.252C93.9724 405.252 93.5124 405.432 93.1684 405.792C92.8324 406.152 92.6644 406.676 92.6644 407.364V411H91.5724V402.12H92.6644V405.36C92.8804 405.024 93.1764 404.764 93.5524 404.58C93.9364 404.396 94.3644 404.304 94.8364 404.304ZM105.248 407.46C105.248 407.668 105.236 407.888 105.212 408.12H99.9562C99.9962 408.768 100.216 409.276 100.616 409.644C101.024 410.004 101.516 410.184 102.092 410.184C102.564 410.184 102.956 410.076 103.268 409.86C103.588 409.636 103.812 409.34 103.94 408.972H105.116C104.94 409.604 104.588 410.12 104.06 410.52C103.532 410.912 102.876 411.108 102.092 411.108C101.468 411.108 100.908 410.968 100.412 410.688C99.9242 410.408 99.5402 410.012 99.2602 409.5C98.9802 408.98 98.8402 408.38 98.8402 407.7C98.8402 407.02 98.9762 406.424 99.2482 405.912C99.5202 405.4 99.9002 405.008 100.388 404.736C100.884 404.456 101.452 404.316 102.092 404.316C102.716 404.316 103.268 404.452 103.748 404.724C104.228 404.996 104.596 405.372 104.852 405.852C105.116 406.324 105.248 406.86 105.248 407.46ZM104.12 407.232C104.12 406.816 104.028 406.46 103.844 406.164C103.66 405.86 103.408 405.632 103.088 405.48C102.776 405.32 102.428 405.24 102.044 405.24C101.492 405.24 101.02 405.416 100.628 405.768C100.244 406.12 100.024 406.608 99.9682 407.232H104.12ZM109.018 411.108C108.514 411.108 108.062 411.024 107.662 410.856C107.262 410.68 106.946 410.44 106.714 410.136C106.482 409.824 106.354 409.468 106.33 409.068H107.458C107.49 409.396 107.642 409.664 107.914 409.872C108.194 410.08 108.558 410.184 109.006 410.184C109.422 410.184 109.75 410.092 109.99 409.908C110.23 409.724 110.35 409.492 110.35 409.212C110.35 408.924 110.222 408.712 109.966 408.576C109.71 408.432 109.314 408.292 108.778 408.156C108.29 408.028 107.89 407.9 107.578 407.772C107.274 407.636 107.01 407.44 106.786 407.184C106.57 406.92 106.462 406.576 106.462 406.152C106.462 405.816 106.562 405.508 106.762 405.228C106.962 404.948 107.246 404.728 107.614 404.568C107.982 404.4 108.402 404.316 108.874 404.316C109.602 404.316 110.19 404.5 110.638 404.868C111.086 405.236 111.326 405.74 111.358 406.38H110.266C110.242 406.036 110.102 405.76 109.846 405.552C109.598 405.344 109.262 405.24 108.838 405.24C108.446 405.24 108.134 405.324 107.902 405.492C107.67 405.66 107.554 405.88 107.554 406.152C107.554 406.368 107.622 406.548 107.758 406.692C107.902 406.828 108.078 406.94 108.286 407.028C108.502 407.108 108.798 407.2 109.174 407.304C109.646 407.432 110.03 407.56 110.326 407.688C110.622 407.808 110.874 407.992 111.082 408.24C111.298 408.488 111.41 408.812 111.418 409.212C111.418 409.572 111.318 409.896 111.118 410.184C110.918 410.472 110.634 410.7 110.266 410.868C109.906 411.028 109.49 411.108 109.018 411.108ZM114.291 405.324V409.2C114.291 409.52 114.359 409.748 114.495 409.884C114.631 410.012 114.867 410.076 115.203 410.076H116.007V411H115.023C114.415 411 113.959 410.86 113.655 410.58C113.351 410.3 113.199 409.84 113.199 409.2V405.324H112.347V404.424H113.199V402.768H114.291V404.424H116.007V405.324H114.291ZM121.621 402.12V411H120.529V402.12H121.621ZM129.483 407.46C129.483 407.668 129.471 407.888 129.447 408.12H124.191C124.231 408.768 124.451 409.276 124.851 409.644C125.259 410.004 125.751 410.184 126.327 410.184C126.799 410.184 127.191 410.076 127.503 409.86C127.823 409.636 128.047 409.34 128.175 408.972H129.351C129.175 409.604 128.823 410.12 128.295 410.52C127.767 410.912 127.111 411.108 126.327 411.108C125.703 411.108 125.143 410.968 124.647 410.688C124.159 410.408 123.775 410.012 123.495 409.5C123.215 408.98 123.075 408.38 123.075 407.7C123.075 407.02 123.211 406.424 123.483 405.912C123.755 405.4 124.135 405.008 124.623 404.736C125.119 404.456 125.687 404.316 126.327 404.316C126.951 404.316 127.503 404.452 127.983 404.724C128.463 404.996 128.831 405.372 129.087 405.852C129.351 406.324 129.483 406.86 129.483 407.46ZM128.355 407.232C128.355 406.816 128.263 406.46 128.079 406.164C127.895 405.86 127.643 405.632 127.323 405.48C127.011 405.32 126.663 405.24 126.279 405.24C125.727 405.24 125.255 405.416 124.863 405.768C124.479 406.12 124.259 406.608 124.203 407.232H128.355ZM133.372 409.992L135.412 404.424H136.576L133.996 411H132.724L130.144 404.424H131.32L133.372 409.992ZM143.651 407.46C143.651 407.668 143.639 407.888 143.615 408.12H138.359C138.399 408.768 138.619 409.276 139.019 409.644C139.427 410.004 139.919 410.184 140.495 410.184C140.967 410.184 141.359 410.076 141.671 409.86C141.991 409.636 142.215 409.34 142.343 408.972H143.519C143.343 409.604 142.991 410.12 142.463 410.52C141.935 410.912 141.279 411.108 140.495 411.108C139.871 411.108 139.311 410.968 138.815 410.688C138.327 410.408 137.943 410.012 137.663 409.5C137.383 408.98 137.243 408.38 137.243 407.7C137.243 407.02 137.379 406.424 137.651 405.912C137.923 405.4 138.303 405.008 138.791 404.736C139.287 404.456 139.855 404.316 140.495 404.316C141.119 404.316 141.671 404.452 142.151 404.724C142.631 404.996 142.999 405.372 143.255 405.852C143.519 406.324 143.651 406.86 143.651 407.46ZM142.523 407.232C142.523 406.816 142.431 406.46 142.247 406.164C142.063 405.86 141.811 405.632 141.491 405.48C141.179 405.32 140.831 405.24 140.447 405.24C139.895 405.24 139.423 405.416 139.031 405.768C138.647 406.12 138.427 406.608 138.371 407.232H142.523ZM146.184 402.12V411H145.092V402.12H146.184ZM154.112 411.108C153.496 411.108 152.936 410.968 152.432 410.688C151.936 410.408 151.544 410.012 151.256 409.5C150.976 408.98 150.836 408.38 150.836 407.7C150.836 407.028 150.98 406.436 151.268 405.924C151.564 405.404 151.964 405.008 152.468 404.736C152.972 404.456 153.536 404.316 154.16 404.316C154.784 404.316 155.348 404.456 155.852 404.736C156.356 405.008 156.752 405.4 157.04 405.912C157.336 406.424 157.484 407.02 157.484 407.7C157.484 408.38 157.332 408.98 157.028 409.5C156.732 410.012 156.328 410.408 155.816 410.688C155.304 410.968 154.736 411.108 154.112 411.108ZM154.112 410.148C154.504 410.148 154.872 410.056 155.216 409.872C155.56 409.688 155.836 409.412 156.044 409.044C156.26 408.676 156.368 408.228 156.368 407.7C156.368 407.172 156.264 406.724 156.056 406.356C155.848 405.988 155.576 405.716 155.24 405.54C154.904 405.356 154.54 405.264 154.148 405.264C153.748 405.264 153.38 405.356 153.044 405.54C152.716 405.716 152.452 405.988 152.252 406.356C152.052 406.724 151.952 407.172 151.952 407.7C151.952 408.236 152.048 408.688 152.24 409.056C152.44 409.424 152.704 409.7 153.032 409.884C153.36 410.06 153.72 410.148 154.112 410.148ZM161.596 405.324H160.216V411H159.124V405.324H158.272V404.424H159.124V403.956C159.124 403.22 159.312 402.684 159.688 402.348C160.072 402.004 160.684 401.832 161.524 401.832V402.744C161.044 402.744 160.704 402.84 160.504 403.032C160.312 403.216 160.216 403.524 160.216 403.956V404.424H161.596V405.324ZM167.161 405.636C167.377 405.26 167.697 404.948 168.121 404.7C168.553 404.444 169.053 404.316 169.621 404.316C170.205 404.316 170.733 404.456 171.205 404.736C171.685 405.016 172.061 405.412 172.333 405.924C172.605 406.428 172.741 407.016 172.741 407.688C172.741 408.352 172.605 408.944 172.333 409.464C172.061 409.984 171.685 410.388 171.205 410.676C170.733 410.964 170.205 411.108 169.621 411.108C169.061 411.108 168.565 410.984 168.133 410.736C167.709 410.48 167.385 410.164 167.161 409.788V414.12H166.069V404.424H167.161V405.636ZM171.625 407.688C171.625 407.192 171.525 406.76 171.325 406.392C171.125 406.024 170.853 405.744 170.509 405.552C170.173 405.36 169.801 405.264 169.393 405.264C168.993 405.264 168.621 405.364 168.277 405.564C167.941 405.756 167.669 406.04 167.461 406.416C167.261 406.784 167.161 407.212 167.161 407.7C167.161 408.196 167.261 408.632 167.461 409.008C167.669 409.376 167.941 409.66 168.277 409.86C168.621 410.052 168.993 410.148 169.393 410.148C169.801 410.148 170.173 410.052 170.509 409.86C170.853 409.66 171.125 409.376 171.325 409.008C171.525 408.632 171.625 408.192 171.625 407.688ZM175.27 405.492C175.462 405.116 175.734 404.824 176.086 404.616C176.446 404.408 176.882 404.304 177.394 404.304V405.432H177.106C175.882 405.432 175.27 406.096 175.27 407.424V411H174.178V404.424H175.27V405.492ZM179.218 403.356C179.01 403.356 178.834 403.284 178.69 403.14C178.546 402.996 178.474 402.82 178.474 402.612C178.474 402.404 178.546 402.228 178.69 402.084C178.834 401.94 179.01 401.868 179.218 401.868C179.418 401.868 179.586 401.94 179.722 402.084C179.866 402.228 179.938 402.404 179.938 402.612C179.938 402.82 179.866 402.996 179.722 403.14C179.586 403.284 179.418 403.356 179.218 403.356ZM179.746 404.424V411H178.654V404.424H179.746ZM184.056 409.992L186.096 404.424H187.26L184.68 411H183.408L180.828 404.424H182.004L184.056 409.992ZM187.926 407.688C187.926 407.016 188.062 406.428 188.334 405.924C188.606 405.412 188.978 405.016 189.45 404.736C189.93 404.456 190.462 404.316 191.046 404.316C191.622 404.316 192.122 404.44 192.546 404.688C192.97 404.936 193.286 405.248 193.494 405.624V404.424H194.598V411H193.494V409.776C193.278 410.16 192.954 410.48 192.522 410.736C192.098 410.984 191.602 411.108 191.034 411.108C190.45 411.108 189.922 410.964 189.45 410.676C188.978 410.388 188.606 409.984 188.334 409.464C188.062 408.944 187.926 408.352 187.926 407.688ZM193.494 407.7C193.494 407.204 193.394 406.772 193.194 406.404C192.994 406.036 192.722 405.756 192.378 405.564C192.042 405.364 191.67 405.264 191.262 405.264C190.854 405.264 190.482 405.36 190.146 405.552C189.81 405.744 189.542 406.024 189.342 406.392C189.142 406.76 189.042 407.192 189.042 407.688C189.042 408.192 189.142 408.632 189.342 409.008C189.542 409.376 189.81 409.66 190.146 409.86C190.482 410.052 190.854 410.148 191.262 410.148C191.67 410.148 192.042 410.052 192.378 409.86C192.722 409.66 192.994 409.376 193.194 409.008C193.394 408.632 193.494 408.196 193.494 407.7ZM196.036 407.7C196.036 407.02 196.172 406.428 196.444 405.924C196.716 405.412 197.092 405.016 197.572 404.736C198.06 404.456 198.616 404.316 199.24 404.316C200.048 404.316 200.712 404.512 201.232 404.904C201.76 405.296 202.108 405.84 202.276 406.536H201.1C200.988 406.136 200.768 405.82 200.44 405.588C200.12 405.356 199.72 405.24 199.24 405.24C198.616 405.24 198.112 405.456 197.728 405.888C197.344 406.312 197.152 406.916 197.152 407.7C197.152 408.492 197.344 409.104 197.728 409.536C198.112 409.968 198.616 410.184 199.24 410.184C199.72 410.184 200.12 410.072 200.44 409.848C200.76 409.624 200.98 409.304 201.1 408.888H202.276C202.1 409.56 201.748 410.1 201.22 410.508C200.692 410.908 200.032 411.108 199.24 411.108C198.616 411.108 198.06 410.968 197.572 410.688C197.092 410.408 196.716 410.012 196.444 409.5C196.172 408.988 196.036 408.388 196.036 407.7ZM209.397 404.424L205.437 414.096H204.309L205.605 410.928L202.953 404.424H204.165L206.229 409.752L208.269 404.424H209.397ZM210.842 411.072C210.634 411.072 210.458 411 210.314 410.856C210.17 410.712 210.098 410.536 210.098 410.328C210.098 410.12 210.17 409.944 210.314 409.8C210.458 409.656 210.634 409.584 210.842 409.584C211.042 409.584 211.21 409.656 211.346 409.8C211.49 409.944 211.562 410.12 211.562 410.328C211.562 410.536 211.49 410.712 211.346 410.856C211.21 411 211.042 411.072 210.842 411.072Z" fill="#434343"/>
</svg>
