<svg width="198" height="298" viewBox="0 0 198 298" fill="none" xmlns="http://www.w3.org/2000/svg">
<path d="M101.438 297.48L6 165.991L11.5519 163.875L101.276 287.467L185.367 164.306L191 166.305L101.438 297.48Z" fill="#EDF2F7"/>
<path d="M98.5765 207.278L197.153 155.521V52.0328L98.5765 0.276367L0 52.0328V155.521L98.5765 207.278Z" fill="#002680"/>
<path d="M159.781 136.92L98.3906 169.13L37 136.92L37.027 72.4766L98.3906 40.2671L159.781 72.4766V136.92Z" fill="white"/>
<path d="M88.3673 90.9549C91.1193 90.9549 93.2899 91.9843 94.8793 94.0429C96.4686 96.0909 97.2633 99.0403 97.2633 102.891C97.2633 106.72 96.4793 109.659 94.9113 111.707C93.3433 113.744 91.1619 114.763 88.3673 114.763C85.5619 114.763 83.3699 113.744 81.7913 111.707C80.2233 109.67 79.4393 106.736 79.4393 102.907C79.4393 100.347 79.8019 98.1763 80.5273 96.3949C81.2526 94.6136 82.2819 93.2643 83.6153 92.3469C84.9486 91.4189 86.5326 90.9549 88.3673 90.9549ZM88.3673 110.939C89.7433 110.939 90.7513 110.326 91.3913 109.099C92.0313 107.862 92.3513 105.798 92.3513 102.907C92.3513 99.9523 92.0259 97.8349 91.3753 96.5549C90.7246 95.2749 89.7166 94.6349 88.3513 94.6349C86.9859 94.6349 85.9673 95.2803 85.2953 96.5709C84.6339 97.8616 84.3033 99.9736 84.3033 102.907C84.3033 105.787 84.6339 107.846 85.2953 109.083C85.9566 110.32 86.9806 110.939 88.3673 110.939ZM100.464 114.411V112.107V110.923C100.464 109.75 100.683 108.736 101.12 107.883C101.558 107.019 102.134 106.272 102.848 105.643C103.574 105.003 104.363 104.443 105.216 103.963C106.08 103.483 106.944 103.03 107.808 102.603C108.672 102.176 109.462 101.75 110.176 101.323C110.902 100.886 111.483 100.4 111.92 99.8669C112.358 99.3336 112.576 98.7043 112.576 97.9789C112.576 97.0509 112.251 96.2936 111.6 95.7069C110.96 95.1203 110.08 94.8269 108.96 94.8269C107.798 94.8269 106.811 95.1629 106 95.8349C105.19 96.5069 104.688 97.5203 104.496 98.8749H100.032C100.054 97.4029 100.395 96.0696 101.056 94.8749C101.728 93.6696 102.731 92.7149 104.064 92.0109C105.398 91.3069 107.072 90.9549 109.088 90.9549C110.816 90.9549 112.304 91.2483 113.552 91.8349C114.811 92.4216 115.782 93.2376 116.464 94.2829C117.147 95.3283 117.488 96.5496 117.488 97.9469C117.488 99.1096 117.275 100.112 116.848 100.955C116.422 101.798 115.856 102.518 115.152 103.115C114.448 103.712 113.675 104.235 112.832 104.683C111.99 105.131 111.147 105.547 110.304 105.931C109.472 106.315 108.704 106.71 108 107.115C107.296 107.51 106.731 107.958 106.304 108.459C105.878 108.96 105.664 109.563 105.664 110.267V110.475H117.456V114.411H100.464Z" fill="#5093FF"/>
</svg>
