<svg width="284" height="416" viewBox="0 0 284 416" fill="none" xmlns="http://www.w3.org/2000/svg">
<path d="M144.438 327L49 182.329L54.5519 180L144.276 315.983L228.367 180.474L234 182.674L144.438 327Z" fill="#EDF2F7"/>
<path d="M141.577 227.754L240.153 170.809V56.9453L141.577 0L43 56.9453V170.809L141.577 227.754Z" fill="#002680"/>
<path d="M202.781 150.343L141.391 185.782L80 150.343L80.027 79.4386L141.391 44L202.781 79.4386V150.343Z" fill="white"/>
<path d="M130.93 99.0132C133.682 99.0132 135.852 100.043 137.442 102.101C139.031 104.149 139.826 107.099 139.826 110.949C139.826 114.779 139.042 117.717 137.474 119.765C135.906 121.803 133.724 122.821 130.93 122.821C128.124 122.821 125.932 121.803 124.354 119.765C122.786 117.728 122.002 114.795 122.002 110.965C122.002 108.405 122.364 106.235 123.09 104.453C123.815 102.672 124.844 101.323 126.178 100.405C127.511 99.4772 129.095 99.0132 130.93 99.0132ZM130.93 118.997C132.306 118.997 133.314 118.384 133.954 117.157C134.594 115.92 134.914 113.856 134.914 110.965C134.914 108.011 134.588 105.893 133.938 104.613C133.287 103.333 132.279 102.693 130.914 102.693C129.548 102.693 128.53 103.339 127.858 104.629C127.196 105.92 126.866 108.032 126.866 110.965C126.866 113.845 127.196 115.904 127.858 117.141C128.519 118.379 129.543 118.997 130.93 118.997ZM142.677 106.453C142.677 104.789 143.066 103.408 143.845 102.309C144.634 101.211 145.696 100.389 147.029 99.8452C148.362 99.2906 149.845 99.0132 151.477 99.0132C153.205 99.0132 154.741 99.2372 156.085 99.6852C157.44 100.133 158.506 100.816 159.285 101.733C160.064 102.651 160.453 103.813 160.453 105.221C160.453 106.363 160.122 107.371 159.461 108.245C158.8 109.109 157.722 109.797 156.229 110.309C157.082 110.544 157.872 110.901 158.597 111.381C159.322 111.861 159.904 112.475 160.341 113.221C160.778 113.968 160.997 114.864 160.997 115.909C160.997 117.04 160.746 118.037 160.245 118.901C159.744 119.765 159.05 120.491 158.165 121.077C157.28 121.664 156.256 122.101 155.093 122.389C153.93 122.677 152.688 122.821 151.365 122.821C149.509 122.811 147.925 122.507 146.613 121.909C145.312 121.301 144.309 120.437 143.605 119.317C142.912 118.197 142.554 116.864 142.533 115.317H147.029C147.253 116.629 147.765 117.579 148.565 118.165C149.365 118.752 150.314 119.045 151.413 119.045C152.373 119.045 153.194 118.907 153.877 118.629C154.57 118.352 155.098 117.968 155.461 117.477C155.834 116.976 156.021 116.405 156.021 115.765C156.021 115.104 155.829 114.533 155.445 114.053C155.072 113.573 154.549 113.2 153.877 112.933C153.205 112.656 152.437 112.507 151.573 112.485L149.365 112.405V108.693L151.349 108.581C152.181 108.549 152.906 108.395 153.525 108.117C154.144 107.84 154.624 107.472 154.965 107.013C155.317 106.544 155.493 106.016 155.493 105.429C155.493 104.864 155.317 104.373 154.965 103.957C154.613 103.541 154.128 103.216 153.509 102.981C152.89 102.747 152.181 102.629 151.381 102.629C150.645 102.629 149.968 102.752 149.349 102.997C148.73 103.243 148.224 103.648 147.829 104.213C147.434 104.768 147.205 105.515 147.141 106.453H142.677Z" fill="#5093FF"/>
<path d="M119.38 356V345.878H123.048C124.373 345.878 125.356 346.107 125.995 346.564C126.639 347.017 126.961 347.672 126.961 348.531C126.961 349.035 126.833 349.474 126.576 349.847C126.319 350.216 125.862 350.538 125.204 350.813C125.629 350.92 125.972 351.065 126.233 351.247C126.494 351.429 126.695 351.632 126.835 351.856C126.975 352.075 127.071 352.306 127.122 352.549C127.173 352.787 127.199 353.023 127.199 353.256C127.199 354.189 126.882 354.88 126.247 355.328C125.612 355.776 124.602 356 123.216 356H119.38ZM121.417 354.418H123.258C123.874 354.418 124.338 354.294 124.651 354.047C124.968 353.8 125.127 353.468 125.127 353.053C125.127 352.754 125.05 352.505 124.896 352.304C124.742 352.099 124.532 351.945 124.266 351.842C124.005 351.739 123.706 351.688 123.37 351.688H121.417V354.418ZM121.417 350.064H123.37C123.58 350.064 123.781 350.041 123.972 349.994C124.168 349.943 124.341 349.866 124.49 349.763C124.644 349.66 124.765 349.53 124.854 349.371C124.943 349.208 124.987 349.016 124.987 348.797C124.987 348.358 124.821 348.027 124.49 347.803C124.163 347.574 123.743 347.46 123.23 347.46H121.417V350.064ZM131.372 356.14C131.036 356.14 130.705 356.089 130.378 355.986C130.056 355.883 129.762 355.732 129.496 355.531C129.23 355.33 129.015 355.083 128.852 354.789C128.693 354.495 128.614 354.154 128.614 353.767V348.762H130.658V353.508C130.658 353.844 130.768 354.119 130.987 354.334C131.206 354.549 131.528 354.656 131.953 354.656C132.354 354.656 132.672 354.553 132.905 354.348C133.143 354.138 133.262 353.846 133.262 353.473V348.762H135.285V356H133.745L133.507 354.565C133.423 354.99 133.264 355.316 133.031 355.545C132.802 355.769 132.539 355.923 132.24 356.007C131.946 356.096 131.657 356.14 131.372 356.14ZM139.637 356.14C138.667 356.14 137.911 355.806 137.369 355.139C136.828 354.467 136.557 353.534 136.557 352.339C136.557 351.583 136.667 350.927 136.886 350.372C137.106 349.817 137.43 349.387 137.859 349.084C138.289 348.776 138.814 348.622 139.434 348.622C139.696 348.622 139.938 348.652 140.162 348.713C140.391 348.769 140.599 348.848 140.785 348.951C140.972 349.054 141.135 349.173 141.275 349.308C141.415 349.443 141.53 349.588 141.618 349.742V345.598H143.669V356H142.185L141.954 354.516C141.889 354.717 141.798 354.913 141.681 355.104C141.565 355.295 141.415 355.47 141.233 355.629C141.051 355.783 140.827 355.907 140.561 356C140.3 356.093 139.992 356.14 139.637 356.14ZM140.085 354.67C140.599 354.67 140.981 354.49 141.233 354.131C141.49 353.772 141.618 353.165 141.618 352.311C141.614 351.816 141.555 351.406 141.443 351.079C141.331 350.752 141.163 350.51 140.939 350.351C140.72 350.188 140.44 350.106 140.099 350.106C139.656 350.106 139.287 350.276 138.993 350.617C138.699 350.953 138.552 351.518 138.552 352.311C138.552 353.118 138.69 353.713 138.965 354.096C139.241 354.479 139.614 354.67 140.085 354.67ZM148.724 358.394C147.436 358.394 146.456 358.231 145.784 357.904C145.117 357.577 144.783 357.148 144.783 356.616C144.783 356.369 144.848 356.161 144.979 355.993C145.11 355.825 145.261 355.692 145.434 355.594C145.611 355.491 145.772 355.414 145.917 355.363C146.066 355.307 146.157 355.27 146.19 355.251C146.115 355.209 146.008 355.148 145.868 355.069C145.728 354.985 145.597 354.873 145.476 354.733C145.359 354.588 145.301 354.402 145.301 354.173C145.301 353.916 145.422 353.678 145.665 353.459C145.912 353.24 146.286 353.088 146.785 353.004C146.309 352.78 145.947 352.477 145.7 352.094C145.453 351.711 145.329 351.319 145.329 350.918C145.329 350.442 145.478 350.034 145.777 349.693C146.076 349.352 146.482 349.093 146.995 348.916C147.513 348.739 148.099 348.65 148.752 348.65C149.251 348.65 149.66 348.704 149.977 348.811C150.294 348.914 150.588 349.049 150.859 349.217C150.966 349.175 151.109 349.121 151.286 349.056C151.463 348.986 151.655 348.911 151.86 348.832C152.065 348.748 152.266 348.666 152.462 348.587C152.658 348.503 152.833 348.428 152.987 348.363L152.98 349.945L151.727 350.148C151.778 350.274 151.818 350.409 151.846 350.554C151.874 350.699 151.888 350.818 151.888 350.911C151.888 351.331 151.764 351.723 151.517 352.087C151.274 352.451 150.908 352.745 150.418 352.969C149.933 353.193 149.331 353.305 148.612 353.305C148.523 353.305 148.404 353.303 148.255 353.298C148.11 353.293 147.991 353.286 147.898 353.277C147.623 353.291 147.434 353.326 147.331 353.382C147.228 353.438 147.177 353.503 147.177 353.578C147.177 353.69 147.282 353.765 147.492 353.802C147.702 353.835 148.019 353.865 148.444 353.893C148.593 353.902 148.801 353.914 149.067 353.928C149.333 353.942 149.627 353.961 149.949 353.984C150.836 354.045 151.496 354.264 151.93 354.642C152.369 355.015 152.588 355.487 152.588 356.056C152.588 356.733 152.266 357.29 151.622 357.729C150.983 358.172 150.017 358.394 148.724 358.394ZM149.053 357.253C149.622 357.253 150.028 357.183 150.271 357.043C150.514 356.903 150.635 356.702 150.635 356.441C150.635 356.222 150.542 356.044 150.355 355.909C150.168 355.769 149.895 355.687 149.536 355.664L147.877 355.552C147.662 355.543 147.471 355.575 147.303 355.65C147.14 355.725 147.011 355.827 146.918 355.958C146.829 356.089 146.785 356.229 146.785 356.378C146.785 356.681 146.969 356.903 147.338 357.043C147.707 357.183 148.278 357.253 149.053 357.253ZM148.668 352.164C149.055 352.164 149.366 352.059 149.599 351.849C149.837 351.634 149.956 351.345 149.956 350.981C149.956 350.603 149.837 350.3 149.599 350.071C149.366 349.842 149.055 349.728 148.668 349.728C148.285 349.728 147.973 349.842 147.73 350.071C147.492 350.3 147.373 350.603 147.373 350.981C147.373 351.34 147.487 351.627 147.716 351.842C147.949 352.057 148.267 352.164 148.668 352.164ZM155.664 352.85C155.66 353.219 155.718 353.541 155.839 353.816C155.961 354.087 156.136 354.297 156.364 354.446C156.598 354.591 156.878 354.663 157.204 354.663C157.554 354.663 157.86 354.588 158.121 354.439C158.387 354.29 158.572 354.045 158.674 353.704H160.515C160.436 354.217 160.231 354.656 159.899 355.02C159.573 355.384 159.176 355.662 158.709 355.853C158.243 356.044 157.757 356.14 157.253 356.14C156.539 356.14 155.909 355.991 155.363 355.692C154.822 355.389 154.4 354.962 154.096 354.411C153.793 353.86 153.641 353.212 153.641 352.465C153.641 351.742 153.779 351.091 154.054 350.512C154.33 349.929 154.729 349.469 155.251 349.133C155.779 348.792 156.411 348.622 157.148 348.622C157.886 348.622 158.504 348.778 159.003 349.091C159.507 349.399 159.885 349.831 160.137 350.386C160.394 350.937 160.522 351.574 160.522 352.297V352.85H155.664ZM155.657 351.632H158.611C158.611 351.343 158.558 351.077 158.45 350.834C158.343 350.591 158.18 350.4 157.96 350.26C157.746 350.12 157.475 350.05 157.148 350.05C156.831 350.05 156.56 350.127 156.336 350.281C156.117 350.43 155.949 350.626 155.832 350.869C155.716 351.112 155.657 351.366 155.657 351.632ZM166.119 350.183H164.509L164.523 354.04C164.523 354.217 164.544 354.35 164.586 354.439C164.633 354.523 164.703 354.579 164.796 354.607C164.894 354.63 165.018 354.642 165.167 354.642H166.14V355.902C166.047 355.944 165.9 355.984 165.699 356.021C165.503 356.058 165.228 356.077 164.873 356.077C164.238 356.077 163.746 355.995 163.396 355.832C163.051 355.669 162.81 355.44 162.675 355.146C162.54 354.852 162.472 354.511 162.472 354.124V350.183H161.296V348.762H162.542L163.053 346.578H164.509V348.755H166.119V350.183Z" fill="#002680"/>
<path d="M28.6262 393.084C27.8502 393.084 27.1422 392.904 26.5022 392.544C25.8622 392.176 25.3542 391.668 24.9782 391.02C24.6102 390.364 24.4262 389.628 24.4262 388.812C24.4262 387.996 24.6102 387.264 24.9782 386.616C25.3542 385.96 25.8622 385.452 26.5022 385.092C27.1422 384.724 27.8502 384.54 28.6262 384.54C29.4102 384.54 30.1222 384.724 30.7622 385.092C31.4022 385.452 31.9062 385.956 32.2742 386.604C32.6422 387.252 32.8262 387.988 32.8262 388.812C32.8262 389.636 32.6422 390.372 32.2742 391.02C31.9062 391.668 31.4022 392.176 30.7622 392.544C30.1222 392.904 29.4102 393.084 28.6262 393.084ZM28.6262 392.136C29.2102 392.136 29.7342 392 30.1982 391.728C30.6702 391.456 31.0382 391.068 31.3022 390.564C31.5742 390.06 31.7102 389.476 31.7102 388.812C31.7102 388.14 31.5742 387.556 31.3022 387.06C31.0382 386.556 30.6742 386.168 30.2102 385.896C29.7462 385.624 29.2182 385.488 28.6262 385.488C28.0342 385.488 27.5062 385.624 27.0422 385.896C26.5782 386.168 26.2102 386.556 25.9382 387.06C25.6742 387.556 25.5422 388.14 25.5422 388.812C25.5422 389.476 25.6742 390.06 25.9382 390.564C26.2102 391.068 26.5782 391.456 27.0422 391.728C27.5142 392 28.0422 392.136 28.6262 392.136ZM40.0998 386.424V393H39.0078V392.028C38.7998 392.364 38.5078 392.628 38.1318 392.82C37.7638 393.004 37.3558 393.096 36.9078 393.096C36.3958 393.096 35.9358 392.992 35.5278 392.784C35.1198 392.568 34.7958 392.248 34.5558 391.824C34.3238 391.4 34.2078 390.884 34.2078 390.276V386.424H35.2878V390.132C35.2878 390.78 35.4518 391.28 35.7798 391.632C36.1078 391.976 36.5558 392.148 37.1238 392.148C37.7078 392.148 38.1678 391.968 38.5038 391.608C38.8398 391.248 39.0078 390.724 39.0078 390.036V386.424H40.0998ZM43.0355 387.492C43.2275 387.116 43.4995 386.824 43.8515 386.616C44.2115 386.408 44.6475 386.304 45.1595 386.304V387.432H44.8715C43.6475 387.432 43.0355 388.096 43.0355 389.424V393H41.9435V386.424H43.0355V387.492ZM50.7113 387.636C50.9273 387.26 51.2473 386.948 51.6713 386.7C52.1033 386.444 52.6033 386.316 53.1713 386.316C53.7553 386.316 54.2833 386.456 54.7553 386.736C55.2353 387.016 55.6113 387.412 55.8833 387.924C56.1553 388.428 56.2913 389.016 56.2913 389.688C56.2913 390.352 56.1553 390.944 55.8833 391.464C55.6113 391.984 55.2353 392.388 54.7553 392.676C54.2833 392.964 53.7553 393.108 53.1713 393.108C52.6113 393.108 52.1153 392.984 51.6833 392.736C51.2593 392.48 50.9353 392.164 50.7113 391.788V396.12H49.6193V386.424H50.7113V387.636ZM55.1753 389.688C55.1753 389.192 55.0753 388.76 54.8753 388.392C54.6753 388.024 54.4033 387.744 54.0593 387.552C53.7233 387.36 53.3513 387.264 52.9433 387.264C52.5433 387.264 52.1713 387.364 51.8273 387.564C51.4913 387.756 51.2193 388.04 51.0113 388.416C50.8113 388.784 50.7113 389.212 50.7113 389.7C50.7113 390.196 50.8113 390.632 51.0113 391.008C51.2193 391.376 51.4913 391.66 51.8273 391.86C52.1713 392.052 52.5433 392.148 52.9433 392.148C53.3513 392.148 53.7233 392.052 54.0593 391.86C54.4033 391.66 54.6753 391.376 54.8753 391.008C55.0753 390.632 55.1753 390.192 55.1753 389.688ZM58.8207 387.492C59.0127 387.116 59.2847 386.824 59.6367 386.616C59.9967 386.408 60.4327 386.304 60.9447 386.304V387.432H60.6567C59.4327 387.432 58.8207 388.096 58.8207 389.424V393H57.7287V386.424H58.8207V387.492ZM68.2053 389.46C68.2053 389.668 68.1933 389.888 68.1693 390.12H62.9133C62.9533 390.768 63.1733 391.276 63.5733 391.644C63.9813 392.004 64.4733 392.184 65.0493 392.184C65.5213 392.184 65.9133 392.076 66.2253 391.86C66.5453 391.636 66.7693 391.34 66.8973 390.972H68.0733C67.8973 391.604 67.5453 392.12 67.0173 392.52C66.4893 392.912 65.8333 393.108 65.0493 393.108C64.4253 393.108 63.8653 392.968 63.3693 392.688C62.8813 392.408 62.4973 392.012 62.2173 391.5C61.9373 390.98 61.7973 390.38 61.7973 389.7C61.7973 389.02 61.9333 388.424 62.2053 387.912C62.4773 387.4 62.8573 387.008 63.3453 386.736C63.8413 386.456 64.4093 386.316 65.0493 386.316C65.6733 386.316 66.2253 386.452 66.7053 386.724C67.1853 386.996 67.5533 387.372 67.8093 387.852C68.0733 388.324 68.2053 388.86 68.2053 389.46ZM67.0773 389.232C67.0773 388.816 66.9853 388.46 66.8013 388.164C66.6173 387.86 66.3653 387.632 66.0453 387.48C65.7333 387.32 65.3853 387.24 65.0013 387.24C64.4493 387.24 63.9773 387.416 63.5853 387.768C63.2013 388.12 62.9813 388.608 62.9253 389.232H67.0773ZM74.2067 388.14V389.064H69.4187V388.14H74.2067ZM78.584 393.108C78.08 393.108 77.628 393.024 77.228 392.856C76.828 392.68 76.512 392.44 76.28 392.136C76.048 391.824 75.92 391.468 75.896 391.068H77.024C77.056 391.396 77.208 391.664 77.48 391.872C77.76 392.08 78.124 392.184 78.572 392.184C78.988 392.184 79.316 392.092 79.556 391.908C79.796 391.724 79.916 391.492 79.916 391.212C79.916 390.924 79.788 390.712 79.532 390.576C79.276 390.432 78.88 390.292 78.344 390.156C77.856 390.028 77.456 389.9 77.144 389.772C76.84 389.636 76.576 389.44 76.352 389.184C76.136 388.92 76.028 388.576 76.028 388.152C76.028 387.816 76.128 387.508 76.328 387.228C76.528 386.948 76.812 386.728 77.18 386.568C77.548 386.4 77.968 386.316 78.44 386.316C79.168 386.316 79.756 386.5 80.204 386.868C80.652 387.236 80.892 387.74 80.924 388.38H79.832C79.808 388.036 79.668 387.76 79.412 387.552C79.164 387.344 78.828 387.24 78.404 387.24C78.012 387.24 77.7 387.324 77.468 387.492C77.236 387.66 77.12 387.88 77.12 388.152C77.12 388.368 77.188 388.548 77.324 388.692C77.468 388.828 77.644 388.94 77.852 389.028C78.068 389.108 78.364 389.2 78.74 389.304C79.212 389.432 79.596 389.56 79.892 389.688C80.188 389.808 80.44 389.992 80.648 390.24C80.864 390.488 80.976 390.812 80.984 391.212C80.984 391.572 80.884 391.896 80.684 392.184C80.484 392.472 80.2 392.7 79.832 392.868C79.472 393.028 79.056 393.108 78.584 393.108ZM82.1176 389.688C82.1176 389.016 82.2536 388.428 82.5256 387.924C82.7976 387.412 83.1696 387.016 83.6416 386.736C84.1216 386.456 84.6536 386.316 85.2376 386.316C85.8136 386.316 86.3136 386.44 86.7376 386.688C87.1616 386.936 87.4776 387.248 87.6856 387.624V386.424H88.7896V393H87.6856V391.776C87.4696 392.16 87.1456 392.48 86.7136 392.736C86.2896 392.984 85.7936 393.108 85.2256 393.108C84.6416 393.108 84.1136 392.964 83.6416 392.676C83.1696 392.388 82.7976 391.984 82.5256 391.464C82.2536 390.944 82.1176 390.352 82.1176 389.688ZM87.6856 389.7C87.6856 389.204 87.5856 388.772 87.3856 388.404C87.1856 388.036 86.9136 387.756 86.5696 387.564C86.2336 387.364 85.8616 387.264 85.4536 387.264C85.0456 387.264 84.6736 387.36 84.3376 387.552C84.0016 387.744 83.7336 388.024 83.5336 388.392C83.3336 388.76 83.2336 389.192 83.2336 389.688C83.2336 390.192 83.3336 390.632 83.5336 391.008C83.7336 391.376 84.0016 391.66 84.3376 391.86C84.6736 392.052 85.0456 392.148 85.4536 392.148C85.8616 392.148 86.2336 392.052 86.5696 391.86C86.9136 391.66 87.1856 391.376 87.3856 391.008C87.5856 390.632 87.6856 390.196 87.6856 389.7ZM91.7269 384.12V393H90.6349V384.12H91.7269ZM99.5881 389.46C99.5881 389.668 99.5761 389.888 99.5521 390.12H94.2961C94.3361 390.768 94.5561 391.276 94.9561 391.644C95.3641 392.004 95.8561 392.184 96.4321 392.184C96.9041 392.184 97.2961 392.076 97.6081 391.86C97.9281 391.636 98.1521 391.34 98.2801 390.972H99.4561C99.2801 391.604 98.9281 392.12 98.4001 392.52C97.8721 392.912 97.2161 393.108 96.4321 393.108C95.8081 393.108 95.2481 392.968 94.7521 392.688C94.2641 392.408 93.8801 392.012 93.6001 391.5C93.3201 390.98 93.1801 390.38 93.1801 389.7C93.1801 389.02 93.3161 388.424 93.5881 387.912C93.8601 387.4 94.2401 387.008 94.7281 386.736C95.2241 386.456 95.7921 386.316 96.4321 386.316C97.0561 386.316 97.6081 386.452 98.0881 386.724C98.5681 386.996 98.9361 387.372 99.1921 387.852C99.4561 388.324 99.5881 388.86 99.5881 389.46ZM98.4601 389.232C98.4601 388.816 98.3681 388.46 98.1841 388.164C98.0001 387.86 97.7481 387.632 97.4281 387.48C97.1161 387.32 96.7681 387.24 96.3841 387.24C95.8321 387.24 95.3601 387.416 94.9681 387.768C94.5841 388.12 94.3641 388.608 94.3081 389.232H98.4601ZM112.137 386.304C112.649 386.304 113.105 386.412 113.505 386.628C113.905 386.836 114.221 387.152 114.453 387.576C114.685 388 114.801 388.516 114.801 389.124V393H113.721V389.28C113.721 388.624 113.557 388.124 113.229 387.78C112.909 387.428 112.473 387.252 111.921 387.252C111.353 387.252 110.901 387.436 110.565 387.804C110.229 388.164 110.061 388.688 110.061 389.376V393H108.981V389.28C108.981 388.624 108.817 388.124 108.489 387.78C108.169 387.428 107.733 387.252 107.181 387.252C106.613 387.252 106.161 387.436 105.825 387.804C105.489 388.164 105.321 388.688 105.321 389.376V393H104.229V386.424H105.321V387.372C105.537 387.028 105.825 386.764 106.185 386.58C106.553 386.396 106.957 386.304 107.397 386.304C107.949 386.304 108.437 386.428 108.861 386.676C109.285 386.924 109.601 387.288 109.809 387.768C109.993 387.304 110.297 386.944 110.721 386.688C111.145 386.432 111.617 386.304 112.137 386.304ZM116.184 389.688C116.184 389.016 116.32 388.428 116.592 387.924C116.864 387.412 117.236 387.016 117.708 386.736C118.188 386.456 118.72 386.316 119.304 386.316C119.88 386.316 120.38 386.44 120.804 386.688C121.228 386.936 121.544 387.248 121.752 387.624V386.424H122.856V393H121.752V391.776C121.536 392.16 121.212 392.48 120.78 392.736C120.356 392.984 119.86 393.108 119.292 393.108C118.708 393.108 118.18 392.964 117.708 392.676C117.236 392.388 116.864 391.984 116.592 391.464C116.32 390.944 116.184 390.352 116.184 389.688ZM121.752 389.7C121.752 389.204 121.652 388.772 121.452 388.404C121.252 388.036 120.98 387.756 120.636 387.564C120.3 387.364 119.928 387.264 119.52 387.264C119.112 387.264 118.74 387.36 118.404 387.552C118.068 387.744 117.8 388.024 117.6 388.392C117.4 388.76 117.3 389.192 117.3 389.688C117.3 390.192 117.4 390.632 117.6 391.008C117.8 391.376 118.068 391.66 118.404 391.86C118.74 392.052 119.112 392.148 119.52 392.148C119.928 392.148 120.3 392.052 120.636 391.86C120.98 391.66 121.252 391.376 121.452 391.008C121.652 390.632 121.752 390.196 121.752 389.7ZM127.905 386.304C128.705 386.304 129.353 386.548 129.849 387.036C130.345 387.516 130.593 388.212 130.593 389.124V393H129.513V389.28C129.513 388.624 129.349 388.124 129.021 387.78C128.693 387.428 128.245 387.252 127.677 387.252C127.101 387.252 126.641 387.432 126.297 387.792C125.961 388.152 125.793 388.676 125.793 389.364V393H124.701V386.424H125.793V387.36C126.009 387.024 126.301 386.764 126.669 386.58C127.045 386.396 127.457 386.304 127.905 386.304ZM131.969 389.688C131.969 389.016 132.105 388.428 132.377 387.924C132.649 387.412 133.021 387.016 133.493 386.736C133.973 386.456 134.505 386.316 135.089 386.316C135.665 386.316 136.165 386.44 136.589 386.688C137.013 386.936 137.329 387.248 137.537 387.624V386.424H138.641V393H137.537V391.776C137.321 392.16 136.997 392.48 136.565 392.736C136.141 392.984 135.645 393.108 135.077 393.108C134.493 393.108 133.965 392.964 133.493 392.676C133.021 392.388 132.649 391.984 132.377 391.464C132.105 390.944 131.969 390.352 131.969 389.688ZM137.537 389.7C137.537 389.204 137.437 388.772 137.237 388.404C137.037 388.036 136.765 387.756 136.421 387.564C136.085 387.364 135.713 387.264 135.305 387.264C134.897 387.264 134.525 387.36 134.189 387.552C133.853 387.744 133.585 388.024 133.385 388.392C133.185 388.76 133.085 389.192 133.085 389.688C133.085 390.192 133.185 390.632 133.385 391.008C133.585 391.376 133.853 391.66 134.189 391.86C134.525 392.052 134.897 392.148 135.305 392.148C135.713 392.148 136.085 392.052 136.421 391.86C136.765 391.66 137.037 391.376 137.237 391.008C137.437 390.632 137.537 390.196 137.537 389.7ZM143.199 386.316C143.767 386.316 144.263 386.44 144.687 386.688C145.119 386.936 145.439 387.248 145.647 387.624V386.424H146.751V393.144C146.751 393.744 146.623 394.276 146.367 394.74C146.111 395.212 145.743 395.58 145.263 395.844C144.791 396.108 144.239 396.24 143.607 396.24C142.743 396.24 142.023 396.036 141.447 395.628C140.871 395.22 140.531 394.664 140.427 393.96H141.507C141.627 394.36 141.875 394.68 142.251 394.92C142.627 395.168 143.079 395.292 143.607 395.292C144.207 395.292 144.695 395.104 145.071 394.728C145.455 394.352 145.647 393.824 145.647 393.144V391.764C145.431 392.148 145.111 392.468 144.687 392.724C144.263 392.98 143.767 393.108 143.199 393.108C142.615 393.108 142.083 392.964 141.603 392.676C141.131 392.388 140.759 391.984 140.487 391.464C140.215 390.944 140.079 390.352 140.079 389.688C140.079 389.016 140.215 388.428 140.487 387.924C140.759 387.412 141.131 387.016 141.603 386.736C142.083 386.456 142.615 386.316 143.199 386.316ZM145.647 389.7C145.647 389.204 145.547 388.772 145.347 388.404C145.147 388.036 144.875 387.756 144.531 387.564C144.195 387.364 143.823 387.264 143.415 387.264C143.007 387.264 142.635 387.36 142.299 387.552C141.963 387.744 141.695 388.024 141.495 388.392C141.295 388.76 141.195 389.192 141.195 389.688C141.195 390.192 141.295 390.632 141.495 391.008C141.695 391.376 141.963 391.66 142.299 391.86C142.635 392.052 143.007 392.148 143.415 392.148C143.823 392.148 144.195 392.052 144.531 391.86C144.875 391.66 145.147 391.376 145.347 391.008C145.547 390.632 145.647 390.196 145.647 389.7ZM154.596 389.46C154.596 389.668 154.584 389.888 154.56 390.12H149.304C149.344 390.768 149.564 391.276 149.964 391.644C150.372 392.004 150.864 392.184 151.44 392.184C151.912 392.184 152.304 392.076 152.616 391.86C152.936 391.636 153.16 391.34 153.288 390.972H154.464C154.288 391.604 153.936 392.12 153.408 392.52C152.88 392.912 152.224 393.108 151.44 393.108C150.816 393.108 150.256 392.968 149.76 392.688C149.272 392.408 148.888 392.012 148.608 391.5C148.328 390.98 148.188 390.38 148.188 389.7C148.188 389.02 148.324 388.424 148.596 387.912C148.868 387.4 149.248 387.008 149.736 386.736C150.232 386.456 150.8 386.316 151.44 386.316C152.064 386.316 152.616 386.452 153.096 386.724C153.576 386.996 153.944 387.372 154.2 387.852C154.464 388.324 154.596 388.86 154.596 389.46ZM153.468 389.232C153.468 388.816 153.376 388.46 153.192 388.164C153.008 387.86 152.756 387.632 152.436 387.48C152.124 387.32 151.776 387.24 151.392 387.24C150.84 387.24 150.368 387.416 149.976 387.768C149.592 388.12 149.372 388.608 149.316 389.232H153.468ZM157.129 387.492C157.321 387.116 157.593 386.824 157.945 386.616C158.305 386.408 158.741 386.304 159.253 386.304V387.432H158.965C157.741 387.432 157.129 388.096 157.129 389.424V393H156.037V386.424H157.129V387.492ZM164.805 387.636C165.021 387.26 165.341 386.948 165.765 386.7C166.197 386.444 166.697 386.316 167.265 386.316C167.849 386.316 168.377 386.456 168.849 386.736C169.329 387.016 169.705 387.412 169.977 387.924C170.249 388.428 170.385 389.016 170.385 389.688C170.385 390.352 170.249 390.944 169.977 391.464C169.705 391.984 169.329 392.388 168.849 392.676C168.377 392.964 167.849 393.108 167.265 393.108C166.705 393.108 166.209 392.984 165.777 392.736C165.353 392.48 165.029 392.164 164.805 391.788V396.12H163.713V386.424H164.805V387.636ZM169.269 389.688C169.269 389.192 169.169 388.76 168.969 388.392C168.769 388.024 168.497 387.744 168.153 387.552C167.817 387.36 167.445 387.264 167.037 387.264C166.637 387.264 166.265 387.364 165.921 387.564C165.585 387.756 165.313 388.04 165.105 388.416C164.905 388.784 164.805 389.212 164.805 389.7C164.805 390.196 164.905 390.632 165.105 391.008C165.313 391.376 165.585 391.66 165.921 391.86C166.265 392.052 166.637 392.148 167.037 392.148C167.445 392.148 167.817 392.052 168.153 391.86C168.497 391.66 168.769 391.376 168.969 391.008C169.169 390.632 169.269 390.192 169.269 389.688ZM172.914 387.492C173.106 387.116 173.378 386.824 173.73 386.616C174.09 386.408 174.526 386.304 175.038 386.304V387.432H174.75C173.526 387.432 172.914 388.096 172.914 389.424V393H171.822V386.424H172.914V387.492ZM179.167 393.108C178.551 393.108 177.991 392.968 177.487 392.688C176.991 392.408 176.599 392.012 176.311 391.5C176.031 390.98 175.891 390.38 175.891 389.7C175.891 389.028 176.035 388.436 176.323 387.924C176.619 387.404 177.019 387.008 177.523 386.736C178.027 386.456 178.591 386.316 179.215 386.316C179.839 386.316 180.403 386.456 180.907 386.736C181.411 387.008 181.807 387.4 182.095 387.912C182.391 388.424 182.539 389.02 182.539 389.7C182.539 390.38 182.387 390.98 182.083 391.5C181.787 392.012 181.383 392.408 180.871 392.688C180.359 392.968 179.791 393.108 179.167 393.108ZM179.167 392.148C179.559 392.148 179.927 392.056 180.271 391.872C180.615 391.688 180.891 391.412 181.099 391.044C181.315 390.676 181.423 390.228 181.423 389.7C181.423 389.172 181.319 388.724 181.111 388.356C180.903 387.988 180.631 387.716 180.295 387.54C179.959 387.356 179.595 387.264 179.203 387.264C178.803 387.264 178.435 387.356 178.099 387.54C177.771 387.716 177.507 387.988 177.307 388.356C177.107 388.724 177.007 389.172 177.007 389.7C177.007 390.236 177.103 390.688 177.295 391.056C177.495 391.424 177.759 391.7 178.087 391.884C178.415 392.06 178.775 392.148 179.167 392.148ZM186.423 391.992L188.463 386.424H189.627L187.047 393H185.775L183.195 386.424H184.371L186.423 391.992ZM191.265 385.356C191.057 385.356 190.881 385.284 190.737 385.14C190.593 384.996 190.521 384.82 190.521 384.612C190.521 384.404 190.593 384.228 190.737 384.084C190.881 383.94 191.057 383.868 191.265 383.868C191.465 383.868 191.633 383.94 191.769 384.084C191.913 384.228 191.985 384.404 191.985 384.612C191.985 384.82 191.913 384.996 191.769 385.14C191.633 385.284 191.465 385.356 191.265 385.356ZM191.793 386.424V393H190.701V386.424H191.793ZM193.246 389.688C193.246 389.016 193.382 388.428 193.654 387.924C193.926 387.412 194.298 387.016 194.77 386.736C195.25 386.456 195.786 386.316 196.378 386.316C196.89 386.316 197.366 386.436 197.806 386.676C198.246 386.908 198.582 387.216 198.814 387.6V384.12H199.918V393H198.814V391.764C198.598 392.156 198.278 392.48 197.854 392.736C197.43 392.984 196.934 393.108 196.366 393.108C195.782 393.108 195.25 392.964 194.77 392.676C194.298 392.388 193.926 391.984 193.654 391.464C193.382 390.944 193.246 390.352 193.246 389.688ZM198.814 389.7C198.814 389.204 198.714 388.772 198.514 388.404C198.314 388.036 198.042 387.756 197.698 387.564C197.362 387.364 196.99 387.264 196.582 387.264C196.174 387.264 195.802 387.36 195.466 387.552C195.13 387.744 194.862 388.024 194.662 388.392C194.462 388.76 194.362 389.192 194.362 389.688C194.362 390.192 194.462 390.632 194.662 391.008C194.862 391.376 195.13 391.66 195.466 391.86C195.802 392.052 196.174 392.148 196.582 392.148C196.99 392.148 197.362 392.052 197.698 391.86C198.042 391.66 198.314 391.376 198.514 391.008C198.714 390.632 198.814 390.196 198.814 389.7ZM207.764 389.46C207.764 389.668 207.752 389.888 207.728 390.12H202.472C202.512 390.768 202.732 391.276 203.132 391.644C203.54 392.004 204.032 392.184 204.608 392.184C205.08 392.184 205.472 392.076 205.784 391.86C206.104 391.636 206.328 391.34 206.456 390.972H207.632C207.456 391.604 207.104 392.12 206.576 392.52C206.048 392.912 205.392 393.108 204.608 393.108C203.984 393.108 203.424 392.968 202.928 392.688C202.44 392.408 202.056 392.012 201.776 391.5C201.496 390.98 201.356 390.38 201.356 389.7C201.356 389.02 201.492 388.424 201.764 387.912C202.036 387.4 202.416 387.008 202.904 386.736C203.4 386.456 203.968 386.316 204.608 386.316C205.232 386.316 205.784 386.452 206.264 386.724C206.744 386.996 207.112 387.372 207.368 387.852C207.632 388.324 207.764 388.86 207.764 389.46ZM206.636 389.232C206.636 388.816 206.544 388.46 206.36 388.164C206.176 387.86 205.924 387.632 205.604 387.48C205.292 387.32 204.944 387.24 204.56 387.24C204.008 387.24 203.536 387.416 203.144 387.768C202.76 388.12 202.54 388.608 202.484 389.232H206.636ZM211.533 393.108C211.029 393.108 210.577 393.024 210.177 392.856C209.777 392.68 209.461 392.44 209.229 392.136C208.997 391.824 208.869 391.468 208.845 391.068H209.973C210.005 391.396 210.157 391.664 210.429 391.872C210.709 392.08 211.073 392.184 211.521 392.184C211.937 392.184 212.265 392.092 212.505 391.908C212.745 391.724 212.865 391.492 212.865 391.212C212.865 390.924 212.737 390.712 212.481 390.576C212.225 390.432 211.829 390.292 211.293 390.156C210.805 390.028 210.405 389.9 210.093 389.772C209.789 389.636 209.525 389.44 209.301 389.184C209.085 388.92 208.977 388.576 208.977 388.152C208.977 387.816 209.077 387.508 209.277 387.228C209.477 386.948 209.761 386.728 210.129 386.568C210.497 386.4 210.917 386.316 211.389 386.316C212.117 386.316 212.705 386.5 213.153 386.868C213.601 387.236 213.841 387.74 213.873 388.38H212.781C212.757 388.036 212.617 387.76 212.361 387.552C212.113 387.344 211.777 387.24 211.353 387.24C210.961 387.24 210.649 387.324 210.417 387.492C210.185 387.66 210.069 387.88 210.069 388.152C210.069 388.368 210.137 388.548 210.273 388.692C210.417 388.828 210.593 388.94 210.801 389.028C211.017 389.108 211.313 389.2 211.689 389.304C212.161 389.432 212.545 389.56 212.841 389.688C213.137 389.808 213.389 389.992 213.597 390.24C213.813 390.488 213.925 390.812 213.933 391.212C213.933 391.572 213.833 391.896 213.633 392.184C213.433 392.472 213.149 392.7 212.781 392.868C212.421 393.028 212.005 393.108 211.533 393.108ZM219.766 387.636C219.982 387.26 220.302 386.948 220.726 386.7C221.158 386.444 221.658 386.316 222.226 386.316C222.81 386.316 223.338 386.456 223.81 386.736C224.29 387.016 224.666 387.412 224.938 387.924C225.21 388.428 225.346 389.016 225.346 389.688C225.346 390.352 225.21 390.944 224.938 391.464C224.666 391.984 224.29 392.388 223.81 392.676C223.338 392.964 222.81 393.108 222.226 393.108C221.666 393.108 221.17 392.984 220.738 392.736C220.314 392.48 219.99 392.164 219.766 391.788V396.12H218.674V386.424H219.766V387.636ZM224.23 389.688C224.23 389.192 224.13 388.76 223.93 388.392C223.73 388.024 223.458 387.744 223.114 387.552C222.778 387.36 222.406 387.264 221.998 387.264C221.598 387.264 221.226 387.364 220.882 387.564C220.546 387.756 220.274 388.04 220.066 388.416C219.866 388.784 219.766 389.212 219.766 389.7C219.766 390.196 219.866 390.632 220.066 391.008C220.274 391.376 220.546 391.66 220.882 391.86C221.226 392.052 221.598 392.148 221.998 392.148C222.406 392.148 222.778 392.052 223.114 391.86C223.458 391.66 223.73 391.376 223.93 391.008C224.13 390.632 224.23 390.192 224.23 389.688ZM227.875 387.492C228.067 387.116 228.339 386.824 228.691 386.616C229.051 386.408 229.487 386.304 229.999 386.304V387.432H229.711C228.487 387.432 227.875 388.096 227.875 389.424V393H226.783V386.424H227.875V387.492ZM234.128 393.108C233.512 393.108 232.952 392.968 232.448 392.688C231.952 392.408 231.56 392.012 231.272 391.5C230.992 390.98 230.852 390.38 230.852 389.7C230.852 389.028 230.996 388.436 231.284 387.924C231.58 387.404 231.98 387.008 232.484 386.736C232.988 386.456 233.552 386.316 234.176 386.316C234.8 386.316 235.364 386.456 235.868 386.736C236.372 387.008 236.768 387.4 237.056 387.912C237.352 388.424 237.5 389.02 237.5 389.7C237.5 390.38 237.348 390.98 237.044 391.5C236.748 392.012 236.344 392.408 235.832 392.688C235.32 392.968 234.752 393.108 234.128 393.108ZM234.128 392.148C234.52 392.148 234.888 392.056 235.232 391.872C235.576 391.688 235.852 391.412 236.06 391.044C236.276 390.676 236.384 390.228 236.384 389.7C236.384 389.172 236.28 388.724 236.072 388.356C235.864 387.988 235.592 387.716 235.256 387.54C234.92 387.356 234.556 387.264 234.164 387.264C233.764 387.264 233.396 387.356 233.06 387.54C232.732 387.716 232.468 387.988 232.268 388.356C232.068 388.724 231.968 389.172 231.968 389.7C231.968 390.236 232.064 390.688 232.256 391.056C232.456 391.424 232.72 391.7 233.048 391.884C233.376 392.06 233.736 392.148 234.128 392.148ZM239.524 385.356C239.316 385.356 239.14 385.284 238.996 385.14C238.86 384.996 238.792 384.82 238.792 384.612C238.792 384.404 238.86 384.228 238.996 384.084C239.14 383.94 239.316 383.868 239.524 383.868C239.732 383.868 239.904 383.94 240.04 384.084C240.184 384.228 240.256 384.404 240.256 384.612C240.256 384.82 240.184 384.996 240.04 385.14C239.904 385.284 239.732 385.356 239.524 385.356ZM240.064 394.428C240.064 395.012 239.916 395.44 239.62 395.712C239.324 395.984 238.892 396.12 238.324 396.12H237.688V395.196H238.144C238.448 395.196 238.66 395.136 238.78 395.016C238.908 394.896 238.972 394.692 238.972 394.404V386.424H240.064V394.428ZM247.912 389.46C247.912 389.668 247.9 389.888 247.876 390.12H242.62C242.66 390.768 242.88 391.276 243.28 391.644C243.688 392.004 244.18 392.184 244.756 392.184C245.228 392.184 245.62 392.076 245.932 391.86C246.252 391.636 246.476 391.34 246.604 390.972H247.78C247.604 391.604 247.252 392.12 246.724 392.52C246.196 392.912 245.54 393.108 244.756 393.108C244.132 393.108 243.572 392.968 243.076 392.688C242.588 392.408 242.204 392.012 241.924 391.5C241.644 390.98 241.504 390.38 241.504 389.7C241.504 389.02 241.64 388.424 241.912 387.912C242.184 387.4 242.564 387.008 243.052 386.736C243.548 386.456 244.116 386.316 244.756 386.316C245.38 386.316 245.932 386.452 246.412 386.724C246.892 386.996 247.26 387.372 247.516 387.852C247.78 388.324 247.912 388.86 247.912 389.46ZM246.784 389.232C246.784 388.816 246.692 388.46 246.508 388.164C246.324 387.86 246.072 387.632 245.752 387.48C245.44 387.32 245.092 387.24 244.708 387.24C244.156 387.24 243.684 387.416 243.292 387.768C242.908 388.12 242.688 388.608 242.632 389.232H246.784ZM248.946 389.7C248.946 389.02 249.082 388.428 249.354 387.924C249.626 387.412 250.002 387.016 250.482 386.736C250.97 386.456 251.526 386.316 252.15 386.316C252.958 386.316 253.622 386.512 254.142 386.904C254.67 387.296 255.018 387.84 255.186 388.536H254.01C253.898 388.136 253.678 387.82 253.35 387.588C253.03 387.356 252.63 387.24 252.15 387.24C251.526 387.24 251.022 387.456 250.638 387.888C250.254 388.312 250.062 388.916 250.062 389.7C250.062 390.492 250.254 391.104 250.638 391.536C251.022 391.968 251.526 392.184 252.15 392.184C252.63 392.184 253.03 392.072 253.35 391.848C253.67 391.624 253.89 391.304 254.01 390.888H255.186C255.01 391.56 254.658 392.1 254.13 392.508C253.602 392.908 252.942 393.108 252.15 393.108C251.526 393.108 250.97 392.968 250.482 392.688C250.002 392.408 249.626 392.012 249.354 391.5C249.082 390.988 248.946 390.388 248.946 389.7ZM257.975 387.324V391.2C257.975 391.52 258.043 391.748 258.179 391.884C258.315 392.012 258.551 392.076 258.887 392.076H259.691V393H258.707C258.099 393 257.643 392.86 257.339 392.58C257.035 392.3 256.883 391.84 256.883 391.2V387.324H256.031V386.424H256.883V384.768H257.975V386.424H259.691V387.324H257.975ZM50.0785 405.648C50.3025 405.256 50.6305 404.936 51.0625 404.688C51.4945 404.44 51.9865 404.316 52.5385 404.316C53.1305 404.316 53.6625 404.456 54.1345 404.736C54.6065 405.016 54.9785 405.412 55.2505 405.924C55.5225 406.428 55.6585 407.016 55.6585 407.688C55.6585 408.352 55.5225 408.944 55.2505 409.464C54.9785 409.984 54.6025 410.388 54.1225 410.676C53.6505 410.964 53.1225 411.108 52.5385 411.108C51.9705 411.108 51.4705 410.984 51.0385 410.736C50.6145 410.488 50.2945 410.172 50.0785 409.788V411H48.9865V402.12H50.0785V405.648ZM54.5425 407.688C54.5425 407.192 54.4425 406.76 54.2425 406.392C54.0425 406.024 53.7705 405.744 53.4265 405.552C53.0905 405.36 52.7185 405.264 52.3105 405.264C51.9105 405.264 51.5385 405.364 51.1945 405.564C50.8585 405.756 50.5865 406.04 50.3785 406.416C50.1785 406.784 50.0785 407.212 50.0785 407.7C50.0785 408.196 50.1785 408.632 50.3785 409.008C50.5865 409.376 50.8585 409.66 51.1945 409.86C51.5385 410.052 51.9105 410.148 52.3105 410.148C52.7185 410.148 53.0905 410.052 53.4265 409.86C53.7705 409.66 54.0425 409.376 54.2425 409.008C54.4425 408.632 54.5425 408.192 54.5425 407.688ZM62.9279 404.424V411H61.8359V410.028C61.6279 410.364 61.3359 410.628 60.9599 410.82C60.5919 411.004 60.1839 411.096 59.7359 411.096C59.2239 411.096 58.7639 410.992 58.3559 410.784C57.9479 410.568 57.6239 410.248 57.3839 409.824C57.1519 409.4 57.0359 408.884 57.0359 408.276V404.424H58.1159V408.132C58.1159 408.78 58.2799 409.28 58.6079 409.632C58.9359 409.976 59.3839 410.148 59.9519 410.148C60.5359 410.148 60.9959 409.968 61.3319 409.608C61.6679 409.248 61.8359 408.724 61.8359 408.036V404.424H62.9279ZM64.3637 407.688C64.3637 407.016 64.4997 406.428 64.7717 405.924C65.0437 405.412 65.4157 405.016 65.8877 404.736C66.3677 404.456 66.9037 404.316 67.4957 404.316C68.0077 404.316 68.4837 404.436 68.9237 404.676C69.3637 404.908 69.6997 405.216 69.9317 405.6V402.12H71.0357V411H69.9317V409.764C69.7157 410.156 69.3957 410.48 68.9717 410.736C68.5477 410.984 68.0517 411.108 67.4837 411.108C66.8997 411.108 66.3677 410.964 65.8877 410.676C65.4157 410.388 65.0437 409.984 64.7717 409.464C64.4997 408.944 64.3637 408.352 64.3637 407.688ZM69.9317 407.7C69.9317 407.204 69.8317 406.772 69.6317 406.404C69.4317 406.036 69.1597 405.756 68.8157 405.564C68.4797 405.364 68.1077 405.264 67.6997 405.264C67.2917 405.264 66.9197 405.36 66.5837 405.552C66.2477 405.744 65.9797 406.024 65.7797 406.392C65.5797 406.76 65.4797 407.192 65.4797 407.688C65.4797 408.192 65.5797 408.632 65.7797 409.008C65.9797 409.376 66.2477 409.66 66.5837 409.86C66.9197 410.052 67.2917 410.148 67.6997 410.148C68.1077 410.148 68.4797 410.052 68.8157 409.86C69.1597 409.66 69.4317 409.376 69.6317 409.008C69.8317 408.632 69.9317 408.196 69.9317 407.7ZM75.593 404.316C76.161 404.316 76.657 404.44 77.081 404.688C77.513 404.936 77.833 405.248 78.041 405.624V404.424H79.145V411.144C79.145 411.744 79.017 412.276 78.761 412.74C78.505 413.212 78.137 413.58 77.657 413.844C77.185 414.108 76.633 414.24 76.001 414.24C75.137 414.24 74.417 414.036 73.841 413.628C73.265 413.22 72.925 412.664 72.821 411.96H73.901C74.021 412.36 74.269 412.68 74.645 412.92C75.021 413.168 75.473 413.292 76.001 413.292C76.601 413.292 77.089 413.104 77.465 412.728C77.849 412.352 78.041 411.824 78.041 411.144V409.764C77.825 410.148 77.505 410.468 77.081 410.724C76.657 410.98 76.161 411.108 75.593 411.108C75.009 411.108 74.477 410.964 73.997 410.676C73.525 410.388 73.153 409.984 72.881 409.464C72.609 408.944 72.473 408.352 72.473 407.688C72.473 407.016 72.609 406.428 72.881 405.924C73.153 405.412 73.525 405.016 73.997 404.736C74.477 404.456 75.009 404.316 75.593 404.316ZM78.041 407.7C78.041 407.204 77.941 406.772 77.741 406.404C77.541 406.036 77.269 405.756 76.925 405.564C76.589 405.364 76.217 405.264 75.809 405.264C75.401 405.264 75.029 405.36 74.693 405.552C74.357 405.744 74.089 406.024 73.889 406.392C73.689 406.76 73.589 407.192 73.589 407.688C73.589 408.192 73.689 408.632 73.889 409.008C74.089 409.376 74.357 409.66 74.693 409.86C75.029 410.052 75.401 410.148 75.809 410.148C76.217 410.148 76.589 410.052 76.925 409.86C77.269 409.66 77.541 409.376 77.741 409.008C77.941 408.632 78.041 408.196 78.041 407.7ZM86.9904 407.46C86.9904 407.668 86.9784 407.888 86.9544 408.12H81.6984C81.7384 408.768 81.9584 409.276 82.3584 409.644C82.7664 410.004 83.2584 410.184 83.8344 410.184C84.3064 410.184 84.6984 410.076 85.0104 409.86C85.3304 409.636 85.5544 409.34 85.6824 408.972H86.8584C86.6824 409.604 86.3304 410.12 85.8024 410.52C85.2744 410.912 84.6184 411.108 83.8344 411.108C83.2104 411.108 82.6504 410.968 82.1544 410.688C81.6664 410.408 81.2824 410.012 81.0024 409.5C80.7224 408.98 80.5824 408.38 80.5824 407.7C80.5824 407.02 80.7184 406.424 80.9904 405.912C81.2624 405.4 81.6424 405.008 82.1304 404.736C82.6264 404.456 83.1944 404.316 83.8344 404.316C84.4584 404.316 85.0104 404.452 85.4904 404.724C85.9704 404.996 86.3384 405.372 86.5944 405.852C86.8584 406.324 86.9904 406.86 86.9904 407.46ZM85.8624 407.232C85.8624 406.816 85.7704 406.46 85.5864 406.164C85.4024 405.86 85.1504 405.632 84.8304 405.48C84.5184 405.32 84.1704 405.24 83.7864 405.24C83.2344 405.24 82.7624 405.416 82.3704 405.768C81.9864 406.12 81.7664 406.608 81.7104 407.232H85.8624ZM89.7638 405.324V409.2C89.7638 409.52 89.8318 409.748 89.9678 409.884C90.1038 410.012 90.3398 410.076 90.6758 410.076H91.4798V411H90.4958C89.8878 411 89.4318 410.86 89.1278 410.58C88.8238 410.3 88.6718 409.84 88.6718 409.2V405.324H87.8198V404.424H88.6718V402.768H89.7638V404.424H91.4798V405.324H89.7638ZM95.1309 411.108C94.6269 411.108 94.1749 411.024 93.7749 410.856C93.3749 410.68 93.0589 410.44 92.8269 410.136C92.5949 409.824 92.4669 409.468 92.4429 409.068H93.5709C93.6029 409.396 93.7549 409.664 94.0269 409.872C94.3069 410.08 94.6709 410.184 95.1189 410.184C95.5349 410.184 95.8629 410.092 96.1029 409.908C96.3429 409.724 96.4629 409.492 96.4629 409.212C96.4629 408.924 96.3349 408.712 96.0789 408.576C95.8229 408.432 95.4269 408.292 94.8909 408.156C94.4029 408.028 94.0029 407.9 93.6909 407.772C93.3869 407.636 93.1229 407.44 92.8989 407.184C92.6829 406.92 92.5749 406.576 92.5749 406.152C92.5749 405.816 92.6749 405.508 92.8749 405.228C93.0749 404.948 93.3589 404.728 93.7269 404.568C94.0949 404.4 94.5149 404.316 94.9869 404.316C95.7149 404.316 96.3029 404.5 96.7509 404.868C97.1989 405.236 97.4389 405.74 97.4709 406.38H96.3789C96.3549 406.036 96.2149 405.76 95.9589 405.552C95.7109 405.344 95.3749 405.24 94.9509 405.24C94.5589 405.24 94.2469 405.324 94.0149 405.492C93.7829 405.66 93.6669 405.88 93.6669 406.152C93.6669 406.368 93.7349 406.548 93.8709 406.692C94.0149 406.828 94.1909 406.94 94.3989 407.028C94.6149 407.108 94.9109 407.2 95.2869 407.304C95.7589 407.432 96.1429 407.56 96.4389 407.688C96.7349 407.808 96.9869 407.992 97.1949 408.24C97.4109 408.488 97.5229 408.812 97.5309 409.212C97.5309 409.572 97.4309 409.896 97.2309 410.184C97.0309 410.472 96.7469 410.7 96.3789 410.868C96.0189 411.028 95.6029 411.108 95.1309 411.108ZM101.864 407.688C101.864 407.016 102 406.428 102.272 405.924C102.544 405.412 102.916 405.016 103.388 404.736C103.868 404.456 104.4 404.316 104.984 404.316C105.56 404.316 106.06 404.44 106.484 404.688C106.908 404.936 107.224 405.248 107.432 405.624V404.424H108.536V411H107.432V409.776C107.216 410.16 106.892 410.48 106.46 410.736C106.036 410.984 105.54 411.108 104.972 411.108C104.388 411.108 103.86 410.964 103.388 410.676C102.916 410.388 102.544 409.984 102.272 409.464C102 408.944 101.864 408.352 101.864 407.688ZM107.432 407.7C107.432 407.204 107.332 406.772 107.132 406.404C106.932 406.036 106.66 405.756 106.316 405.564C105.98 405.364 105.608 405.264 105.2 405.264C104.792 405.264 104.42 405.36 104.084 405.552C103.748 405.744 103.48 406.024 103.28 406.392C103.08 406.76 102.98 407.192 102.98 407.688C102.98 408.192 103.08 408.632 103.28 409.008C103.48 409.376 103.748 409.66 104.084 409.86C104.42 410.052 104.792 410.148 105.2 410.148C105.608 410.148 105.98 410.052 106.316 409.86C106.66 409.66 106.932 409.376 107.132 409.008C107.332 408.632 107.432 408.196 107.432 407.7ZM113.585 404.304C114.385 404.304 115.033 404.548 115.529 405.036C116.025 405.516 116.273 406.212 116.273 407.124V411H115.193V407.28C115.193 406.624 115.029 406.124 114.701 405.78C114.373 405.428 113.925 405.252 113.357 405.252C112.781 405.252 112.321 405.432 111.977 405.792C111.641 406.152 111.473 406.676 111.473 407.364V411H110.381V404.424H111.473V405.36C111.689 405.024 111.981 404.764 112.349 404.58C112.725 404.396 113.137 404.304 113.585 404.304ZM117.649 407.688C117.649 407.016 117.785 406.428 118.057 405.924C118.329 405.412 118.701 405.016 119.173 404.736C119.653 404.456 120.189 404.316 120.781 404.316C121.293 404.316 121.769 404.436 122.209 404.676C122.649 404.908 122.985 405.216 123.217 405.6V402.12H124.321V411H123.217V409.764C123.001 410.156 122.681 410.48 122.257 410.736C121.833 410.984 121.337 411.108 120.769 411.108C120.185 411.108 119.653 410.964 119.173 410.676C118.701 410.388 118.329 409.984 118.057 409.464C117.785 408.944 117.649 408.352 117.649 407.688ZM123.217 407.7C123.217 407.204 123.117 406.772 122.917 406.404C122.717 406.036 122.445 405.756 122.101 405.564C121.765 405.364 121.393 405.264 120.985 405.264C120.577 405.264 120.205 405.36 119.869 405.552C119.533 405.744 119.265 406.024 119.065 406.392C118.865 406.76 118.765 407.192 118.765 407.688C118.765 408.192 118.865 408.632 119.065 409.008C119.265 409.376 119.533 409.66 119.869 409.86C120.205 410.052 120.577 410.148 120.985 410.148C121.393 410.148 121.765 410.052 122.101 409.86C122.445 409.66 122.717 409.376 122.917 409.008C123.117 408.632 123.217 408.196 123.217 407.7ZM128.957 407.688C128.957 407.016 129.093 406.428 129.365 405.924C129.637 405.412 130.009 405.016 130.481 404.736C130.961 404.456 131.493 404.316 132.077 404.316C132.653 404.316 133.153 404.44 133.577 404.688C134.001 404.936 134.317 405.248 134.525 405.624V404.424H135.629V411H134.525V409.776C134.309 410.16 133.985 410.48 133.553 410.736C133.129 410.984 132.633 411.108 132.065 411.108C131.481 411.108 130.953 410.964 130.481 410.676C130.009 410.388 129.637 409.984 129.365 409.464C129.093 408.944 128.957 408.352 128.957 407.688ZM134.525 407.7C134.525 407.204 134.425 406.772 134.225 406.404C134.025 406.036 133.753 405.756 133.409 405.564C133.073 405.364 132.701 405.264 132.293 405.264C131.885 405.264 131.513 405.36 131.177 405.552C130.841 405.744 130.573 406.024 130.373 406.392C130.173 406.76 130.073 407.192 130.073 407.688C130.073 408.192 130.173 408.632 130.373 409.008C130.573 409.376 130.841 409.66 131.177 409.86C131.513 410.052 131.885 410.148 132.293 410.148C132.701 410.148 133.073 410.052 133.409 409.86C133.753 409.66 134.025 409.376 134.225 409.008C134.425 408.632 134.525 408.196 134.525 407.7ZM141.766 405.492C141.958 405.116 142.23 404.824 142.582 404.616C142.942 404.408 143.378 404.304 143.89 404.304V405.432H143.602C142.378 405.432 141.766 406.096 141.766 407.424V411H140.674V404.424H141.766V405.492ZM148.019 411.108C147.403 411.108 146.843 410.968 146.339 410.688C145.843 410.408 145.451 410.012 145.163 409.5C144.883 408.98 144.743 408.38 144.743 407.7C144.743 407.028 144.887 406.436 145.175 405.924C145.471 405.404 145.871 405.008 146.375 404.736C146.879 404.456 147.443 404.316 148.067 404.316C148.691 404.316 149.255 404.456 149.759 404.736C150.263 405.008 150.659 405.4 150.947 405.912C151.243 406.424 151.391 407.02 151.391 407.7C151.391 408.38 151.239 408.98 150.935 409.5C150.639 410.012 150.235 410.408 149.723 410.688C149.211 410.968 148.643 411.108 148.019 411.108ZM148.019 410.148C148.411 410.148 148.779 410.056 149.123 409.872C149.467 409.688 149.743 409.412 149.951 409.044C150.167 408.676 150.275 408.228 150.275 407.7C150.275 407.172 150.171 406.724 149.963 406.356C149.755 405.988 149.483 405.716 149.147 405.54C148.811 405.356 148.447 405.264 148.055 405.264C147.655 405.264 147.287 405.356 146.951 405.54C146.623 405.716 146.359 405.988 146.159 406.356C145.959 406.724 145.859 407.172 145.859 407.7C145.859 408.236 145.955 408.688 146.147 409.056C146.347 409.424 146.611 409.7 146.939 409.884C147.267 410.06 147.627 410.148 148.019 410.148ZM158.658 404.424V411H157.566V410.028C157.358 410.364 157.066 410.628 156.69 410.82C156.322 411.004 155.914 411.096 155.466 411.096C154.954 411.096 154.494 410.992 154.086 410.784C153.678 410.568 153.354 410.248 153.114 409.824C152.882 409.4 152.766 408.884 152.766 408.276V404.424H153.846V408.132C153.846 408.78 154.01 409.28 154.338 409.632C154.666 409.976 155.114 410.148 155.682 410.148C156.266 410.148 156.726 409.968 157.062 409.608C157.398 409.248 157.566 408.724 157.566 408.036V404.424H158.658ZM163.214 404.316C163.782 404.316 164.278 404.44 164.702 404.688C165.134 404.936 165.454 405.248 165.662 405.624V404.424H166.766V411.144C166.766 411.744 166.638 412.276 166.382 412.74C166.126 413.212 165.758 413.58 165.278 413.844C164.806 414.108 164.254 414.24 163.622 414.24C162.758 414.24 162.038 414.036 161.462 413.628C160.886 413.22 160.546 412.664 160.442 411.96H161.522C161.642 412.36 161.89 412.68 162.266 412.92C162.642 413.168 163.094 413.292 163.622 413.292C164.222 413.292 164.71 413.104 165.086 412.728C165.47 412.352 165.662 411.824 165.662 411.144V409.764C165.446 410.148 165.126 410.468 164.702 410.724C164.278 410.98 163.782 411.108 163.214 411.108C162.63 411.108 162.098 410.964 161.618 410.676C161.146 410.388 160.774 409.984 160.502 409.464C160.23 408.944 160.094 408.352 160.094 407.688C160.094 407.016 160.23 406.428 160.502 405.924C160.774 405.412 161.146 405.016 161.618 404.736C162.098 404.456 162.63 404.316 163.214 404.316ZM165.662 407.7C165.662 407.204 165.562 406.772 165.362 406.404C165.162 406.036 164.89 405.756 164.546 405.564C164.21 405.364 163.838 405.264 163.43 405.264C163.022 405.264 162.65 405.36 162.314 405.552C161.978 405.744 161.71 406.024 161.51 406.392C161.31 406.76 161.21 407.192 161.21 407.688C161.21 408.192 161.31 408.632 161.51 409.008C161.71 409.376 161.978 409.66 162.314 409.86C162.65 410.052 163.022 410.148 163.43 410.148C163.838 410.148 164.21 410.052 164.546 409.86C164.89 409.66 165.162 409.376 165.362 409.008C165.562 408.632 165.662 408.196 165.662 407.7ZM171.876 404.304C172.372 404.304 172.82 404.412 173.22 404.628C173.62 404.836 173.932 405.152 174.156 405.576C174.388 406 174.504 406.516 174.504 407.124V411H173.424V407.28C173.424 406.624 173.26 406.124 172.932 405.78C172.604 405.428 172.156 405.252 171.588 405.252C171.012 405.252 170.552 405.432 170.208 405.792C169.872 406.152 169.704 406.676 169.704 407.364V411H168.612V402.12H169.704V405.36C169.92 405.024 170.216 404.764 170.592 404.58C170.976 404.396 171.404 404.304 171.876 404.304ZM181.815 411.108C181.311 411.108 180.859 411.024 180.459 410.856C180.059 410.68 179.743 410.44 179.511 410.136C179.279 409.824 179.151 409.468 179.127 409.068H180.255C180.287 409.396 180.439 409.664 180.711 409.872C180.991 410.08 181.355 410.184 181.803 410.184C182.219 410.184 182.547 410.092 182.787 409.908C183.027 409.724 183.147 409.492 183.147 409.212C183.147 408.924 183.019 408.712 182.763 408.576C182.507 408.432 182.111 408.292 181.575 408.156C181.087 408.028 180.687 407.9 180.375 407.772C180.071 407.636 179.807 407.44 179.583 407.184C179.367 406.92 179.259 406.576 179.259 406.152C179.259 405.816 179.359 405.508 179.559 405.228C179.759 404.948 180.043 404.728 180.411 404.568C180.779 404.4 181.199 404.316 181.671 404.316C182.399 404.316 182.987 404.5 183.435 404.868C183.883 405.236 184.123 405.74 184.155 406.38H183.063C183.039 406.036 182.899 405.76 182.643 405.552C182.395 405.344 182.059 405.24 181.635 405.24C181.243 405.24 180.931 405.324 180.699 405.492C180.467 405.66 180.351 405.88 180.351 406.152C180.351 406.368 180.419 406.548 180.555 406.692C180.699 406.828 180.875 406.94 181.083 407.028C181.299 407.108 181.595 407.2 181.971 407.304C182.443 407.432 182.827 407.56 183.123 407.688C183.419 407.808 183.671 407.992 183.879 408.24C184.095 408.488 184.207 408.812 184.215 409.212C184.215 409.572 184.115 409.896 183.915 410.184C183.715 410.472 183.431 410.7 183.063 410.868C182.703 411.028 182.287 411.108 181.815 411.108ZM185.348 407.7C185.348 407.02 185.484 406.428 185.756 405.924C186.028 405.412 186.404 405.016 186.884 404.736C187.372 404.456 187.928 404.316 188.552 404.316C189.36 404.316 190.024 404.512 190.544 404.904C191.072 405.296 191.42 405.84 191.588 406.536H190.412C190.3 406.136 190.08 405.82 189.752 405.588C189.432 405.356 189.032 405.24 188.552 405.24C187.928 405.24 187.424 405.456 187.04 405.888C186.656 406.312 186.464 406.916 186.464 407.7C186.464 408.492 186.656 409.104 187.04 409.536C187.424 409.968 187.928 410.184 188.552 410.184C189.032 410.184 189.432 410.072 189.752 409.848C190.072 409.624 190.292 409.304 190.412 408.888H191.588C191.412 409.56 191.06 410.1 190.532 410.508C190.004 410.908 189.344 411.108 188.552 411.108C187.928 411.108 187.372 410.968 186.884 410.688C186.404 410.408 186.028 410.012 185.756 409.5C185.484 408.988 185.348 408.388 185.348 407.7ZM196.309 404.304C196.805 404.304 197.253 404.412 197.653 404.628C198.053 404.836 198.365 405.152 198.589 405.576C198.821 406 198.937 406.516 198.937 407.124V411H197.857V407.28C197.857 406.624 197.693 406.124 197.365 405.78C197.037 405.428 196.589 405.252 196.021 405.252C195.445 405.252 194.985 405.432 194.641 405.792C194.305 406.152 194.137 406.676 194.137 407.364V411H193.045V402.12H194.137V405.36C194.353 405.024 194.649 404.764 195.025 404.58C195.409 404.396 195.837 404.304 196.309 404.304ZM206.721 407.46C206.721 407.668 206.709 407.888 206.685 408.12H201.429C201.469 408.768 201.689 409.276 202.089 409.644C202.497 410.004 202.989 410.184 203.565 410.184C204.037 410.184 204.429 410.076 204.741 409.86C205.061 409.636 205.285 409.34 205.413 408.972H206.589C206.413 409.604 206.061 410.12 205.533 410.52C205.005 410.912 204.349 411.108 203.565 411.108C202.941 411.108 202.381 410.968 201.885 410.688C201.397 410.408 201.013 410.012 200.733 409.5C200.453 408.98 200.313 408.38 200.313 407.7C200.313 407.02 200.449 406.424 200.721 405.912C200.993 405.4 201.373 405.008 201.861 404.736C202.357 404.456 202.925 404.316 203.565 404.316C204.189 404.316 204.741 404.452 205.221 404.724C205.701 404.996 206.069 405.372 206.325 405.852C206.589 406.324 206.721 406.86 206.721 407.46ZM205.593 407.232C205.593 406.816 205.501 406.46 205.317 406.164C205.133 405.86 204.881 405.632 204.561 405.48C204.249 405.32 203.901 405.24 203.517 405.24C202.965 405.24 202.493 405.416 202.101 405.768C201.717 406.12 201.497 406.608 201.441 407.232H205.593ZM207.754 407.688C207.754 407.016 207.89 406.428 208.162 405.924C208.434 405.412 208.806 405.016 209.278 404.736C209.758 404.456 210.294 404.316 210.886 404.316C211.398 404.316 211.874 404.436 212.314 404.676C212.754 404.908 213.09 405.216 213.322 405.6V402.12H214.426V411H213.322V409.764C213.106 410.156 212.786 410.48 212.362 410.736C211.938 410.984 211.442 411.108 210.874 411.108C210.29 411.108 209.758 410.964 209.278 410.676C208.806 410.388 208.434 409.984 208.162 409.464C207.89 408.944 207.754 408.352 207.754 407.688ZM213.322 407.7C213.322 407.204 213.222 406.772 213.022 406.404C212.822 406.036 212.55 405.756 212.206 405.564C211.87 405.364 211.498 405.264 211.09 405.264C210.682 405.264 210.31 405.36 209.974 405.552C209.638 405.744 209.37 406.024 209.17 406.392C208.97 406.76 208.87 407.192 208.87 407.688C208.87 408.192 208.97 408.632 209.17 409.008C209.37 409.376 209.638 409.66 209.974 409.86C210.31 410.052 210.682 410.148 211.09 410.148C211.498 410.148 211.87 410.052 212.206 409.86C212.55 409.66 212.822 409.376 213.022 409.008C213.222 408.632 213.322 408.196 213.322 407.7ZM222.104 404.424V411H221.012V410.028C220.804 410.364 220.512 410.628 220.136 410.82C219.768 411.004 219.36 411.096 218.912 411.096C218.4 411.096 217.94 410.992 217.532 410.784C217.124 410.568 216.8 410.248 216.56 409.824C216.328 409.4 216.212 408.884 216.212 408.276V404.424H217.292V408.132C217.292 408.78 217.456 409.28 217.784 409.632C218.112 409.976 218.56 410.148 219.128 410.148C219.712 410.148 220.172 409.968 220.508 409.608C220.844 409.248 221.012 408.724 221.012 408.036V404.424H222.104ZM225.039 402.12V411H223.947V402.12H225.039ZM232.901 407.46C232.901 407.668 232.889 407.888 232.865 408.12H227.609C227.649 408.768 227.869 409.276 228.269 409.644C228.677 410.004 229.169 410.184 229.745 410.184C230.217 410.184 230.609 410.076 230.921 409.86C231.241 409.636 231.465 409.34 231.593 408.972H232.769C232.593 409.604 232.241 410.12 231.713 410.52C231.185 410.912 230.529 411.108 229.745 411.108C229.121 411.108 228.561 410.968 228.065 410.688C227.577 410.408 227.193 410.012 226.913 409.5C226.633 408.98 226.493 408.38 226.493 407.7C226.493 407.02 226.629 406.424 226.901 405.912C227.173 405.4 227.553 405.008 228.041 404.736C228.537 404.456 229.105 404.316 229.745 404.316C230.369 404.316 230.921 404.452 231.401 404.724C231.881 404.996 232.249 405.372 232.505 405.852C232.769 406.324 232.901 406.86 232.901 407.46ZM231.773 407.232C231.773 406.816 231.681 406.46 231.497 406.164C231.313 405.86 231.061 405.632 230.741 405.48C230.429 405.32 230.081 405.24 229.697 405.24C229.145 405.24 228.673 405.416 228.281 405.768C227.897 406.12 227.677 406.608 227.621 407.232H231.773ZM234.69 411.072C234.482 411.072 234.306 411 234.162 410.856C234.018 410.712 233.946 410.536 233.946 410.328C233.946 410.12 234.018 409.944 234.162 409.8C234.306 409.656 234.482 409.584 234.69 409.584C234.89 409.584 235.058 409.656 235.194 409.8C235.338 409.944 235.41 410.12 235.41 410.328C235.41 410.536 235.338 410.712 235.194 410.856C235.058 411 234.89 411.072 234.69 411.072Z" fill="#434343"/>
</svg>
