<svg width="198" height="327" viewBox="0 0 198 327" fill="none" xmlns="http://www.w3.org/2000/svg">
<path d="M101.438 327L6 182.329L11.5519 180L101.276 315.983L185.367 180.474L191 182.674L101.438 327Z" fill="#EDF2F7"/>
<path d="M98.5765 227.754L197.153 170.809V56.9453L98.5765 0L0 56.9453V170.809L98.5765 227.754Z" fill="#002680"/>
<path d="M159.781 150.343L98.3906 185.782L37 150.343L37.027 79.4386L98.3906 44L159.781 79.4386V150.343Z" fill="white"/>
<path d="M87.9298 99.0132C90.6818 99.0132 92.8524 100.043 94.4418 102.101C96.0311 104.149 96.8258 107.099 96.8258 110.949C96.8258 114.779 96.0418 117.717 94.4738 119.765C92.9058 121.803 90.7244 122.821 87.9298 122.821C85.1244 122.821 82.9324 121.803 81.3538 119.765C79.7858 117.728 79.0018 114.795 79.0018 110.965C79.0018 108.405 79.3644 106.235 80.0898 104.453C80.8151 102.672 81.8444 101.323 83.1778 100.405C84.5111 99.4772 86.0951 99.0132 87.9298 99.0132ZM87.9298 118.997C89.3058 118.997 90.3138 118.384 90.9538 117.157C91.5938 115.92 91.9138 113.856 91.9138 110.965C91.9138 108.011 91.5884 105.893 90.9378 104.613C90.2871 103.333 89.2791 102.693 87.9138 102.693C86.5484 102.693 85.5298 103.339 84.8578 104.629C84.1964 105.92 83.8658 108.032 83.8658 110.965C83.8658 113.845 84.1964 115.904 84.8578 117.141C85.5191 118.379 86.5431 118.997 87.9298 118.997ZM99.677 106.453C99.677 104.789 100.066 103.408 100.845 102.309C101.634 101.211 102.696 100.389 104.029 99.8452C105.362 99.2906 106.845 99.0132 108.477 99.0132C110.205 99.0132 111.741 99.2372 113.085 99.6852C114.44 100.133 115.506 100.816 116.285 101.733C117.064 102.651 117.453 103.813 117.453 105.221C117.453 106.363 117.122 107.371 116.461 108.245C115.8 109.109 114.722 109.797 113.229 110.309C114.082 110.544 114.872 110.901 115.597 111.381C116.322 111.861 116.904 112.475 117.341 113.221C117.778 113.968 117.997 114.864 117.997 115.909C117.997 117.04 117.746 118.037 117.245 118.901C116.744 119.765 116.05 120.491 115.165 121.077C114.28 121.664 113.256 122.101 112.093 122.389C110.93 122.677 109.688 122.821 108.365 122.821C106.509 122.811 104.925 122.507 103.613 121.909C102.312 121.301 101.309 120.437 100.605 119.317C99.9117 118.197 99.5543 116.864 99.533 115.317H104.029C104.253 116.629 104.765 117.579 105.565 118.165C106.365 118.752 107.314 119.045 108.413 119.045C109.373 119.045 110.194 118.907 110.877 118.629C111.57 118.352 112.098 117.968 112.461 117.477C112.834 116.976 113.021 116.405 113.021 115.765C113.021 115.104 112.829 114.533 112.445 114.053C112.072 113.573 111.549 113.2 110.877 112.933C110.205 112.656 109.437 112.507 108.573 112.485L106.365 112.405V108.693L108.349 108.581C109.181 108.549 109.906 108.395 110.525 108.117C111.144 107.84 111.624 107.472 111.965 107.013C112.317 106.544 112.493 106.016 112.493 105.429C112.493 104.864 112.317 104.373 111.965 103.957C111.613 103.541 111.128 103.216 110.509 102.981C109.89 102.747 109.181 102.629 108.381 102.629C107.645 102.629 106.968 102.752 106.349 102.997C105.73 103.243 105.224 103.648 104.829 104.213C104.434 104.768 104.205 105.515 104.141 106.453H99.677Z" fill="#5093FF"/>
</svg>
