<svg width="182" height="148" viewBox="0 0 182 148" fill="none" xmlns="http://www.w3.org/2000/svg">
<g opacity="0.2" clip-path="url(#clip0_3968_7670)">
<path d="M180.664 143.228C125.807 143.228 70.951 143.228 16.0946 143.228C14.3278 143.228 14.3278 147.59 16.0946 147.59C70.951 147.59 125.807 147.59 180.664 147.59C182.431 147.59 182.431 143.228 180.664 143.228Z" fill="#055586"/>
<path d="M40.0967 90.2867C38.136 91.5519 35.9383 92.2499 33.6328 92.2499C30.5517 92.2499 27.7077 91.0065 25.4453 88.9343V140.436H41.8204V91.6391L40.0967 90.2867Z" fill="#2D96B3"/>
<path d="M66.0176 117.073C62.9365 117.073 60.0924 115.83 57.8301 113.758V140.414H74.2051V113.758C71.9212 115.83 69.0987 117.073 66.0176 117.073Z" fill="#DF2938"/>
<path d="M130.762 103.484C127.681 103.484 124.837 102.24 122.574 100.168V140.436H138.949V100.168C136.687 102.24 133.843 103.484 130.762 103.484Z" fill="#DF2938"/>
<path d="M163.147 49.3431C162.198 49.3431 161.25 49.2122 160.324 48.9723L154.959 58.3956V140.414H171.334V46.0275C169.05 48.0997 166.228 49.3431 163.147 49.3431Z" fill="#2D96B3"/>
<path d="M103.054 74.6902C101.568 75.3446 99.9948 75.6936 98.4004 75.6936C97.6463 75.6936 96.8922 75.6063 96.1381 75.4536L90.2129 82.652V140.436H106.588V77.5695L103.054 74.6902Z" fill="#2D96B3"/>
<path d="M130.268 84.2662L98.2293 56.7815L65.8024 98.2268L35.2285 72.8143V78.2894L66.2118 104.051L98.5525 62.7147L131.26 90.8102L163.148 37.1713V28.7077L130.268 84.2662Z" fill="#055586"/>
<path d="M26.0273 74.6902C26.0273 70.4366 29.4316 66.9901 33.6331 66.9901C37.8346 66.9901 41.2389 70.4366 41.2389 74.6902C41.2389 78.9438 37.8346 82.3903 33.6331 82.3903C29.4316 82.3903 26.0273 78.9438 26.0273 74.6902Z" fill="#055586"/>
<path d="M58.4121 100.168C58.4121 95.9145 61.8164 92.468 66.0179 92.468C70.2194 92.468 73.6237 95.9145 73.6237 100.168C73.6237 104.422 70.2194 107.868 66.0179 107.868C61.8164 107.868 58.4121 104.422 58.4121 100.168Z" fill="#055586"/>
<path d="M90.7734 60.7079C90.7734 56.4543 94.1777 53.0078 98.3792 53.0078C102.581 53.0078 105.985 56.4543 105.985 60.7079C105.985 64.9615 102.581 68.408 98.3792 68.408C94.1777 68.408 90.7734 64.9615 90.7734 60.7079Z" fill="#055586"/>
<path d="M123.158 86.164C123.158 81.9104 126.562 78.4639 130.764 78.4639C134.965 78.4639 138.37 81.9104 138.37 86.164C138.37 90.4176 134.965 93.8641 130.764 93.8641C126.562 93.8859 123.158 90.4394 123.158 86.164Z" fill="#055586"/>
<path d="M155.541 33.3976C155.541 29.144 158.945 25.6974 163.147 25.6974C167.348 25.6974 170.753 29.144 170.753 33.3976C170.753 37.6512 167.348 41.0977 163.147 41.0977C158.945 41.1195 155.541 37.673 155.541 33.3976Z" fill="#055586"/>
<path d="M94.7177 45.5258C94.3729 45.5258 94.0282 45.3513 93.8127 45.0459L77.6101 20.375H65.5011C64.8978 20.375 64.4238 19.8951 64.4238 19.2843C64.4238 18.6736 64.9194 18.1937 65.5011 18.1937H78.7735L95.6226 43.8243C95.9458 44.326 95.8165 45.0022 95.321 45.3513C95.127 45.4603 94.9116 45.5258 94.7177 45.5258Z" fill="#055586"/>
<path d="M67.0948 9.57741C66.0821 9.57741 65.1341 9.18477 64.4231 8.46493C63.712 7.74509 63.3242 6.7853 63.3242 5.76008C63.3242 4.73485 63.712 3.77506 64.4231 3.05522C65.8451 1.61554 68.3229 1.61554 69.745 3.05522C71.2101 4.53853 71.2101 6.95981 69.745 8.44311C69.0555 9.18477 68.1075 9.57741 67.0948 9.57741ZM67.0948 4.14589C66.6639 4.14589 66.2545 4.3204 65.9528 4.62578C65.328 5.25837 65.328 6.2836 65.9528 6.91618C66.5561 7.52696 67.6119 7.52696 68.2152 6.91618C68.84 6.2836 68.84 5.25837 68.2152 4.62578C67.9351 4.3204 67.5257 4.14589 67.0948 4.14589Z" fill="#055586"/>
<path d="M67.0735 14.4854C66.7934 14.4854 66.5133 14.3763 66.2978 14.1582C65.8669 13.722 65.8669 13.0457 66.2978 12.6095L73.8605 4.95299C74.2914 4.51673 74.9593 4.51673 75.3903 4.95299C75.8212 5.38926 75.8212 6.06547 75.3903 6.50174L67.8276 14.1582C67.6337 14.3763 67.3536 14.4854 67.0735 14.4854Z" fill="#055586"/>
<path d="M74.5928 17.1684C73.5802 17.1684 72.6321 16.7758 71.9211 16.056C70.456 14.5727 70.456 12.1514 71.9211 10.6681C73.3432 9.2284 75.821 9.2284 77.243 10.6681C77.954 11.3879 78.3419 12.3477 78.3419 13.3511C78.3419 14.3763 77.954 15.3361 77.243 16.056C76.5535 16.7758 75.6055 17.1684 74.5928 17.1684ZM74.5928 11.7369C74.1619 11.7369 73.7741 11.9114 73.4724 12.2168C72.8476 12.8494 72.8476 13.8746 73.4724 14.5072C74.0757 15.118 75.1315 15.118 75.7348 14.5072C76.0364 14.2018 76.2088 13.7874 76.2088 13.3511C76.2088 12.9148 76.0364 12.5222 75.7348 12.2168C75.4331 11.9114 75.0238 11.7369 74.5928 11.7369Z" fill="#055586"/>
<path d="M157.934 25.8938C157.59 25.8938 157.266 25.7411 157.051 25.4357L152.483 18.9789H140.353C139.749 18.9789 139.275 18.499 139.275 17.8883C139.275 17.2775 139.749 16.7976 140.353 16.7976H153.604L158.818 24.1705C159.162 24.6722 159.055 25.3484 158.559 25.6974C158.365 25.8283 158.15 25.8938 157.934 25.8938Z" fill="#055586"/>
<path d="M141.968 8.18135C140.955 8.18135 140.007 7.78871 139.296 7.06887C138.585 6.34903 138.197 5.38925 138.197 4.36402C138.197 3.33879 138.585 2.37901 139.296 1.65917C140.718 0.219487 143.196 0.219487 144.618 1.65917C146.083 3.14247 146.083 5.56375 144.618 7.04706C143.907 7.78871 142.959 8.18135 141.968 8.18135ZM141.968 2.74983C141.537 2.74983 141.128 2.92434 140.826 3.22973C140.201 3.86231 140.201 4.88754 140.826 5.52013C141.429 6.1309 142.485 6.1309 143.088 5.52013C143.713 4.88754 143.713 3.86231 143.088 3.22973C142.787 2.92434 142.377 2.74983 141.968 2.74983Z" fill="#055586"/>
<path d="M141.925 13.0894C141.645 13.0894 141.365 12.9803 141.149 12.7622C140.718 12.3259 140.718 11.6497 141.149 11.2134L148.712 3.55694C149.143 3.12067 149.811 3.12067 150.242 3.55694C150.673 3.9932 150.673 4.66942 150.242 5.10568L142.679 12.7622C142.485 12.9803 142.205 13.0894 141.925 13.0894Z" fill="#055586"/>
<path d="M149.466 15.7724C148.453 15.7724 147.505 15.3798 146.794 14.6599C145.329 13.1766 145.329 10.7553 146.794 9.27202C148.216 7.83234 150.694 7.83234 152.116 9.27202C152.827 9.99186 153.215 10.9516 153.215 11.9551C153.215 12.9803 152.827 13.9401 152.116 14.6599C151.405 15.3798 150.457 15.7724 149.466 15.7724ZM149.466 10.3409C149.035 10.3409 148.647 10.5154 148.324 10.8208C147.699 11.4534 147.699 12.4786 148.324 13.1112C148.927 13.7219 149.983 13.7219 150.586 13.1112C150.888 12.8058 151.06 12.3913 151.06 11.9551C151.06 11.5188 150.888 11.1262 150.586 10.8208C150.285 10.4936 149.875 10.3409 149.466 10.3409Z" fill="#055586"/>
<path d="M73.8397 82.0849C73.4949 82.0849 73.1502 81.9104 72.9347 81.605L56.4089 56.8469H44.3C43.6967 56.8469 43.2227 56.367 43.2227 55.7562C43.2227 55.1454 43.7182 54.6655 44.3 54.6655H57.5724L74.7446 80.4053C75.0894 80.907 74.9385 81.5832 74.4645 81.9322C74.2491 82.0194 74.0336 82.0849 73.8397 82.0849Z" fill="#055586"/>
<path d="M45.8936 46.0493C44.8809 46.0493 43.9545 45.6566 43.2219 44.9368C42.5109 44.217 42.123 43.2572 42.123 42.2319C42.123 41.2067 42.5109 40.2469 43.2219 39.5271C44.6439 38.0874 47.1217 38.0874 48.5438 39.5271C50.0089 41.0104 50.0089 43.4317 48.5438 44.915C47.8543 45.6566 46.9063 46.0493 45.8936 46.0493ZM45.8936 40.6178C45.4627 40.6178 45.0749 40.7923 44.7517 41.0976C44.1268 41.7302 44.1268 42.7555 44.7517 43.388C45.355 43.9988 46.4107 43.9988 47.014 43.388C47.6389 42.7555 47.6389 41.7302 47.014 41.0976C46.7339 40.7923 46.3245 40.6178 45.8936 40.6178Z" fill="#055586"/>
<path d="M45.8723 50.9573C45.5922 50.9573 45.3121 50.8482 45.0966 50.6301C44.6657 50.1938 44.6657 49.5176 45.0966 49.0813L52.6593 41.4249C53.0902 40.9886 53.7582 40.9886 54.1891 41.4249C54.62 41.8611 54.62 42.5373 54.1891 42.9736L46.6264 50.6301C46.4325 50.8482 46.1524 50.9573 45.8723 50.9573Z" fill="#055586"/>
<path d="M53.3917 53.6403C52.379 53.6403 51.431 53.2477 50.7199 52.5278C49.2548 51.0445 49.2548 48.6232 50.7199 47.1399C52.142 45.7003 54.6198 45.7003 56.0418 47.1399C56.7529 47.8598 57.1407 48.8196 57.1407 49.823C57.1407 50.8482 56.7529 51.808 56.0418 52.5278C55.3524 53.2477 54.4043 53.6403 53.3917 53.6403ZM53.3917 48.2088C52.9607 48.2088 52.5729 48.3833 52.2713 48.6887C51.6464 49.3213 51.6464 50.3465 52.2713 50.9791C52.8746 51.5899 53.9303 51.5899 54.5336 50.9791C54.8352 50.6737 55.0076 50.2592 55.0076 49.823C55.0076 49.3867 54.8352 48.9941 54.5336 48.6887C54.232 48.3833 53.8226 48.2088 53.3917 48.2088Z" fill="#055586"/>
<path d="M135.526 69.4768C135.182 69.4768 134.837 69.3023 134.622 68.9969L126.52 56.8469H114.411C113.808 56.8469 113.334 56.367 113.334 55.7563C113.334 55.1455 113.83 54.6656 114.411 54.6656H127.684L136.431 67.7754C136.776 68.2771 136.647 68.9533 136.151 69.3023C135.936 69.4114 135.742 69.4768 135.526 69.4768Z" fill="#055586"/>
<path d="M116.005 46.0493C114.992 46.0493 114.066 45.6567 113.333 44.9368C112.644 44.217 112.256 43.2572 112.256 42.2538C112.256 41.2286 112.644 40.2688 113.355 39.5489C114.777 38.1093 117.255 38.1093 118.677 39.5489C120.142 41.0322 120.142 43.4535 118.677 44.9368C117.966 45.6567 117.018 46.0493 116.005 46.0493ZM116.005 40.6178C115.574 40.6178 115.165 40.7923 114.863 41.0977C114.238 41.7303 114.238 42.7555 114.863 43.3881C115.466 43.9989 116.522 43.9989 117.125 43.3881C117.75 42.7555 117.75 41.7303 117.125 41.0977C116.845 40.7923 116.436 40.6178 116.005 40.6178Z" fill="#055586"/>
<path d="M115.984 50.9573C115.704 50.9573 115.423 50.8482 115.208 50.6301C114.777 50.1938 114.777 49.5176 115.208 49.0813L122.771 41.4249C123.202 40.9886 123.869 40.9886 124.3 41.4249C124.731 41.8611 124.731 42.5373 124.3 42.9736L116.738 50.6301C116.544 50.8482 116.264 50.9573 115.984 50.9573Z" fill="#055586"/>
<path d="M123.503 53.6404C122.49 53.6404 121.542 53.2477 120.831 52.5279C119.366 51.0446 119.366 48.6233 120.831 47.14C122.253 45.7003 124.731 45.7003 126.153 47.14C126.864 47.8598 127.252 48.8196 127.252 49.823C127.252 50.8483 126.864 51.8081 126.153 52.5279C125.464 53.2477 124.516 53.6404 123.503 53.6404ZM123.503 48.2089C123.072 48.2089 122.684 48.3834 122.383 48.6887C121.758 49.3213 121.758 50.3466 122.383 50.9791C122.986 51.5899 124.042 51.5899 124.645 50.9791C124.947 50.6738 125.119 50.2593 125.119 49.823C125.119 49.3868 124.947 48.9941 124.645 48.6887C124.343 48.3834 123.934 48.2089 123.503 48.2089Z" fill="#055586"/>
<path d="M23.2706 69.4768C22.9259 69.4768 22.5811 69.3023 22.3657 68.9969L14.2643 56.8469H2.15543C1.55214 56.8469 1.07812 56.367 1.07812 55.7563C1.07812 55.1455 1.55214 54.6656 2.15543 54.6656H15.4063L24.154 67.7754C24.4987 68.2771 24.3479 68.9533 23.8739 69.3023C23.7015 69.4114 23.4861 69.4768 23.2706 69.4768Z" fill="#055586"/>
<path d="M3.77057 46.0493C2.7579 46.0493 1.80987 45.6567 1.09885 44.9368C0.38783 44.217 0 43.2572 0 42.2538C0 41.2286 0.38783 40.2688 1.09885 39.5489C2.5209 38.1093 4.9987 38.1093 6.42074 39.5489C7.88588 41.0322 7.88588 43.4535 6.42074 44.9368C5.70972 45.6567 4.76169 46.0493 3.77057 46.0493ZM3.77057 40.6178C3.33965 40.6178 2.93027 40.7923 2.62863 41.0977C2.00379 41.7303 2.00379 42.7555 2.62863 43.3881C3.23192 43.9989 4.28768 43.9989 4.89097 43.3881C5.5158 42.7555 5.5158 41.7303 4.89097 41.0977C4.58932 40.7923 4.20149 40.6178 3.77057 40.6178Z" fill="#055586"/>
<path d="M3.72776 50.9573C3.44766 50.9573 3.16756 50.8482 2.9521 50.6301C2.52118 50.1938 2.52118 49.5176 2.9521 49.0813L10.5148 41.4249C10.9457 40.9886 11.6136 40.9886 12.0446 41.4249C12.4755 41.8611 12.4755 42.5373 12.0446 42.9736L4.48187 50.6301C4.28796 50.8482 4.00786 50.9573 3.72776 50.9573Z" fill="#055586"/>
<path d="M11.2686 53.6404C10.2559 53.6404 9.30792 53.2477 8.5969 52.5279C7.13176 51.0446 7.13176 48.6233 8.5969 47.14C10.0189 45.7003 12.4967 45.7003 13.9188 47.14C14.6298 47.8598 15.0176 48.8196 15.0176 49.823C15.0176 50.8483 14.6298 51.8081 13.9188 52.5279C13.2078 53.2477 12.2597 53.6404 11.2686 53.6404ZM11.2686 48.2089C10.8377 48.2089 10.4283 48.3834 10.1267 48.6887C9.50183 49.3213 9.50183 50.3466 10.1267 50.9791C10.73 51.5899 11.7857 51.5899 12.389 50.9791C12.6907 50.6738 12.863 50.2593 12.863 49.823C12.863 49.3868 12.6907 48.9941 12.389 48.6887C12.0874 48.3834 11.6995 48.2089 11.2686 48.2089Z" fill="#055586"/>
</g>
<defs>
<clipPath id="clip0_3968_7670">
<rect width="182" height="147" fill="white" transform="translate(0 0.590332)"/>
</clipPath>
</defs>
</svg>
