<svg width="182" height="148" viewBox="0 0 182 148" fill="none" xmlns="http://www.w3.org/2000/svg">
<g opacity="0.2" clip-path="url(#clip0_3983_8995)">
<path d="M172.309 93.4693C171.348 90.1011 169.85 86.4992 167.886 82.7624C167.89 82.7545 167.895 82.7466 167.899 82.7347C168.66 81.2448 169.318 79.636 169.7 77.8726C170.083 76.1172 170.166 74.1755 169.73 72.2576C169.521 71.2987 169.164 70.3675 168.723 69.4838C168.623 69.254 168.485 69.0519 168.361 68.8419L167.974 68.2118L167.878 68.0573L167.786 67.9265L167.599 67.6689L167.225 67.1499C166.205 65.7907 165.119 64.483 163.946 63.2705C159.273 58.3886 153.764 54.3705 147.926 50.7368C143.403 47.9353 138.643 45.4032 133.704 43.093C110.049 23.9815 80.0527 11.2061 55.8942 21.2671C49.8484 23.7833 44.7928 27.7419 40.6027 32.7071C36.0839 34.51 31.8522 36.848 28.1407 39.7248C25.5442 41.7259 23.2058 44.0401 21.2668 46.5682C19.3361 49.1042 17.7965 51.8463 16.6398 54.6558C15.4789 57.4693 14.6966 60.3461 14.2098 63.1952C13.7188 66.0483 13.5232 68.8736 13.5274 71.6315C13.5357 74.3935 13.7438 77.088 14.0933 79.7073C14.4387 82.3266 14.938 84.8666 15.5371 87.3234C16.1363 89.7802 16.8187 92.1617 17.5802 94.456C18.3458 96.7504 19.178 98.9654 20.0476 101.105C21.5539 104.755 23.1891 108.171 24.891 111.36C27.1004 125.99 31.7149 136.891 37.3114 138.528C39.1714 139.071 42.3004 139.352 46.3823 139.38C49.374 142.094 54.7333 145.871 63.6502 144.579C64.9859 144.448 66.5837 144.202 68.402 143.786C70.4201 143.327 72.7045 142.665 75.226 141.813C77.7475 140.965 80.5021 139.911 83.4772 138.686C86.4398 137.474 89.6146 136.087 92.9933 134.549C106.35 132.212 120.281 129.053 132.693 125.142C157.38 117.372 176.067 106.637 172.309 93.4693ZM23.651 98.6167C23.0185 96.8653 22.411 95.0702 21.8493 93.2276C21.1836 91.0086 20.5885 88.7261 20.0809 86.3803C19.5691 84.0344 19.1572 81.6291 18.8909 79.1684C18.6204 76.7116 18.4789 74.2033 18.5247 71.6672C18.6163 66.607 19.4609 61.3962 21.558 56.5381C22.6024 54.1129 23.9589 51.7829 25.6358 49.6432C27.3251 47.5034 29.3307 45.5696 31.6151 43.8538C32.4972 43.1881 33.4126 42.5541 34.3571 41.9518C25.5817 58.0795 22.7439 79.8222 23.651 98.6167ZM74.3688 139.733C74.1608 139.82 73.9569 139.899 73.753 139.982C70.8695 141.119 58.5156 145.53 51.2839 140.66C50.7638 140.26 50.227 139.82 49.6736 139.348C57.0718 139.19 66.8001 138.369 77.5561 136.931C79.0416 136.733 80.5437 136.523 82.0666 136.301C79.2829 137.613 76.7115 138.77 74.3688 139.733ZM164.262 76.5214C160.825 71.1085 156.548 65.5371 151.638 60.0806C152 60.3461 152.366 60.6076 152.72 60.8731C153.968 61.836 155.208 62.8069 156.365 63.8292C157.538 64.8397 158.645 65.8897 159.693 66.9636C160.75 68.0335 161.699 69.1589 162.573 70.3001L162.893 70.732L163.051 70.946L163.13 71.053C163.155 71.0887 163.168 71.1164 163.189 71.1481L163.413 71.5127C163.488 71.6355 163.58 71.7504 163.63 71.8812C163.879 72.3805 164.091 72.8877 164.208 73.4226C164.437 74.3935 164.445 75.4396 164.262 76.5214Z" fill="#D2F5FC"/>
<path d="M42.7746 17.883C44.3641 20.5023 41.88 24.6987 37.2322 27.2545C32.5844 29.8104 27.5247 29.7589 25.9394 27.1396C24.3499 24.5204 26.834 20.324 31.4818 17.7681C36.1296 15.2123 41.1851 15.2638 42.7746 17.883Z" fill="#D2F5FC"/>
<path d="M84.1766 12.2601C83.9103 13.9759 81.2223 15.0141 78.1807 14.5862C75.1349 14.1543 72.8879 12.4147 73.1542 10.6989C73.4205 8.98309 76.1085 7.94489 79.1502 8.37285C82.196 8.80477 84.4471 10.5443 84.1766 12.2601Z" fill="#D2F5FC"/>
<path d="M108.534 140.735C109.279 143.029 106.579 145.859 102.505 147.055C98.4315 148.252 94.5285 147.361 93.7837 145.066C93.0389 142.772 95.7393 139.943 99.8129 138.746C103.886 137.553 107.789 138.441 108.534 140.735Z" fill="#D2F5FC"/>
<path d="M122.81 135.005C123.255 136.376 121.641 138.064 119.211 138.778C116.781 139.491 114.447 138.96 114.005 137.589C113.56 136.218 115.175 134.53 117.605 133.816C120.035 133.103 122.365 133.634 122.81 135.005Z" fill="#D2F5FC"/>
<path d="M159.527 17.0787H156.336C156.107 16.3892 155.82 15.7274 155.47 15.0934L157.73 12.9417C158.291 12.4068 158.291 11.539 157.73 11.008L154.247 7.69129C153.685 7.15635 152.778 7.15635 152.216 7.69129L149.957 9.84298C149.295 9.51408 148.596 9.2367 147.872 9.01876V5.97946C147.872 5.2226 147.232 4.61237 146.437 4.61237H141.51C140.716 4.61237 140.075 5.2226 140.075 5.97946V9.01876C139.351 9.2367 138.652 9.51408 137.99 9.84298L135.731 7.69129C135.169 7.15635 134.262 7.15635 133.7 7.69129L130.217 11.008C129.656 11.5429 129.656 12.4068 130.217 12.9417L132.477 15.0934C132.131 15.7235 131.84 16.3852 131.611 17.0787H128.42C127.625 17.0787 126.984 17.6929 126.984 18.4457V23.1374C126.984 23.8943 127.625 24.5045 128.42 24.5045H131.611C131.84 25.194 132.131 25.8597 132.477 26.4898L130.217 28.6415C129.656 29.1764 129.656 30.0403 130.217 30.5752L133.7 33.8919C134.262 34.4269 135.169 34.4269 135.731 33.8919L137.99 31.7402C138.652 32.0691 139.351 32.3465 140.075 32.5644V35.6037C140.075 36.3606 140.716 36.9708 141.51 36.9708H146.437C147.232 36.9708 147.872 36.3606 147.872 35.6037V32.5644C148.596 32.3465 149.295 32.0691 149.957 31.7402L152.216 33.8919C152.778 34.4269 153.685 34.4269 154.247 33.8919L157.73 30.5752C158.291 30.0403 158.291 29.1725 157.73 28.6415L155.47 26.4898C155.816 25.8597 156.107 25.194 156.336 24.5045H159.527C160.322 24.5045 160.963 23.8943 160.963 23.1374V18.4457C160.967 17.6929 160.322 17.0787 159.527 17.0787ZM143.974 26.9059C140.428 26.9059 137.553 24.1677 137.553 20.7916C137.553 17.4155 140.428 14.6773 143.974 14.6773C147.519 14.6773 150.394 17.4155 150.394 20.7916C150.394 24.1677 147.523 26.9059 143.974 26.9059Z" fill="#2B2C84"/>
<path d="M143.973 31.4905C137.777 31.4905 132.738 26.6919 132.738 20.7916C132.738 14.8913 137.777 10.0926 143.973 10.0926C150.169 10.0926 155.207 14.8913 155.207 20.7916C155.207 26.6919 150.169 31.4905 143.973 31.4905ZM143.973 11.1427C138.389 11.1427 133.841 15.4698 133.841 20.7916C133.841 26.1094 138.385 30.4405 143.973 30.4405C149.561 30.4405 154.105 26.1133 154.105 20.7916C154.105 15.4698 149.561 11.1427 143.973 11.1427Z" fill="white"/>
<path d="M120.712 18.6755H118.474C118.316 18.1921 118.112 17.7285 117.87 17.2847L119.452 15.7789C119.843 15.4025 119.843 14.7962 119.452 14.4237L117.009 12.1016C116.618 11.7252 115.981 11.7252 115.586 12.1016L114.005 13.6074C113.539 13.3776 113.052 13.1834 112.544 13.0289V10.897C112.544 10.366 112.095 9.93805 111.538 9.93805H108.088C107.531 9.93805 107.081 10.366 107.081 10.897V13.0289C106.574 13.1794 106.087 13.3736 105.621 13.6074L104.039 12.1016C103.648 11.7252 103.012 11.7252 102.616 12.1016L100.174 14.4237C99.7828 14.7962 99.7828 15.4025 100.174 15.7789L101.755 17.2847C101.514 17.7285 101.31 18.1921 101.152 18.6755H98.9132C98.3556 18.6755 97.9062 19.1035 97.9062 19.6345V22.9195C97.9062 23.4505 98.3556 23.8784 98.9132 23.8784H101.152C101.31 24.3619 101.514 24.8255 101.755 25.2693L100.174 26.7751C99.7828 27.1476 99.7828 27.7538 100.174 28.1303L102.616 30.4524C103.008 30.8248 103.644 30.8248 104.039 30.4524L105.621 28.9466C106.087 29.1764 106.574 29.3706 107.081 29.5211V31.653C107.081 32.184 107.531 32.612 108.088 32.612H111.538C112.095 32.612 112.544 32.184 112.544 31.653V29.5211C113.052 29.3706 113.539 29.1764 114.005 28.9466L115.586 30.4524C115.977 30.8248 116.614 30.8248 117.009 30.4524L119.452 28.1303C119.843 27.7538 119.843 27.1476 119.452 26.7751L117.87 25.2693C118.112 24.8255 118.316 24.3619 118.474 23.8784H120.712C121.27 23.8784 121.719 23.4505 121.719 22.9195V19.6345C121.719 19.1035 121.27 18.6755 120.712 18.6755ZM109.819 25.5586C107.335 25.5586 105.321 23.6407 105.321 21.275C105.321 18.9093 107.335 16.9914 109.819 16.9914C112.303 16.9914 114.317 18.9093 114.317 21.275C114.317 23.6407 112.303 25.5586 109.819 25.5586Z" fill="#FFD234"/>
<path d="M109.82 28.7682C105.48 28.7682 101.951 25.408 101.951 21.275C101.951 17.142 105.48 13.7817 109.82 13.7817C114.159 13.7817 117.688 17.142 117.688 21.275C117.688 25.408 114.159 28.7682 109.82 28.7682ZM109.82 14.5188C105.908 14.5188 102.725 17.5502 102.725 21.275C102.725 24.9998 105.908 28.0312 109.82 28.0312C113.731 28.0312 116.914 24.9998 116.914 21.275C116.914 17.5502 113.731 14.5188 109.82 14.5188Z" fill="white"/>
<path d="M158.321 126.949H155.192C154.967 126.272 154.684 125.626 154.347 125.008L156.561 122.899C157.11 122.376 157.11 121.528 156.561 121.005L153.149 117.756C152.599 117.233 151.709 117.233 151.16 117.756L148.946 119.864C148.297 119.539 147.615 119.27 146.903 119.056V116.076C146.903 115.335 146.275 114.737 145.497 114.737H140.67C139.892 114.737 139.264 115.335 139.264 116.076V119.056C138.552 119.27 137.87 119.539 137.22 119.864L135.007 117.756C134.458 117.233 133.567 117.233 133.018 117.756L129.606 121.005C129.057 121.528 129.057 122.376 129.606 122.899L131.82 125.008C131.478 125.626 131.195 126.276 130.975 126.949H127.846C127.068 126.949 126.439 127.552 126.439 128.289V132.885C126.439 133.626 127.068 134.225 127.846 134.225H130.975C131.2 134.902 131.483 135.552 131.82 136.17L129.606 138.278C129.057 138.801 129.057 139.649 129.606 140.172L133.018 143.422C133.567 143.945 134.458 143.945 135.007 143.422L137.22 141.314C137.87 141.635 138.552 141.908 139.264 142.118V145.098C139.264 145.839 139.892 146.437 140.67 146.437H145.497C146.275 146.437 146.903 145.839 146.903 145.098V142.118C147.615 141.904 148.297 141.635 148.946 141.314L151.16 143.422C151.709 143.945 152.599 143.945 153.149 143.422L156.561 140.172C157.11 139.649 157.11 138.801 156.561 138.278L154.347 136.17C154.684 135.552 154.971 134.902 155.192 134.225H158.321C159.099 134.225 159.727 133.626 159.727 132.885V128.289C159.727 127.552 159.099 126.949 158.321 126.949ZM143.079 136.578C139.605 136.578 136.788 133.896 136.788 130.587C136.788 127.278 139.605 124.595 143.079 124.595C146.553 124.595 149.37 127.278 149.37 130.587C149.37 133.896 146.553 136.578 143.079 136.578Z" fill="#FF9A00"/>
<path d="M143.08 141.068C137.009 141.068 132.074 136.364 132.074 130.587C132.074 124.806 137.013 120.106 143.08 120.106C149.147 120.106 154.086 124.809 154.086 130.587C154.086 136.368 149.151 141.068 143.08 141.068ZM143.08 121.136C137.608 121.136 133.156 125.376 133.156 130.587C133.156 135.798 137.608 140.038 143.08 140.038C148.552 140.038 153.004 135.798 153.004 130.587C153.008 125.376 148.556 121.136 143.08 121.136Z" fill="white"/>
<path d="M41.1976 29.6004H38.6261C38.4431 29.0456 38.21 28.5107 37.9313 28.0035L39.7496 26.2718C40.199 25.8399 40.199 25.1425 39.7496 24.7145L36.9451 22.0437C36.4957 21.6118 35.7634 21.6118 35.3099 22.0437L33.4915 23.7754C32.9589 23.5099 32.3972 23.288 31.8147 23.1097V20.6608C31.8147 20.0506 31.2987 19.5592 30.6579 19.5592H26.6925C26.0517 19.5592 25.5358 20.0506 25.5358 20.6608V23.1097C24.9532 23.284 24.3915 23.5059 23.8589 23.7754L22.0406 22.0437C21.5912 21.6118 20.8589 21.6118 20.4053 22.0437L17.6008 24.7145C17.1515 25.1425 17.1515 25.8399 17.6008 26.2718L19.4192 28.0035C19.1404 28.5107 18.9074 29.0456 18.7243 29.6004H16.1528C15.5121 29.6004 14.9961 30.0957 14.9961 30.702V34.4783C14.9961 35.0886 15.5121 35.5799 16.1528 35.5799H18.7243C18.9074 36.1347 19.1404 36.6696 19.4192 37.1769L17.6008 38.9085C17.1515 39.3365 17.1515 40.0339 17.6008 40.4658L20.4053 43.1366C20.8547 43.5645 21.587 43.5645 22.0406 43.1366L23.8589 41.4049C24.3915 41.6704 24.9532 41.8923 25.5358 42.0667V44.5156C25.5358 45.1258 26.0517 45.6172 26.6925 45.6172H30.6579C31.2987 45.6172 31.8147 45.1258 31.8147 44.5156V42.0667C32.3972 41.8923 32.9589 41.6704 33.4915 41.4049L35.3099 43.1366C35.7592 43.5645 36.4916 43.5645 36.9451 43.1366L39.7496 40.4658C40.199 40.0339 40.199 39.3365 39.7496 38.9085L37.9313 37.1769C38.21 36.6696 38.4431 36.1347 38.6261 35.5799H41.1976C41.8384 35.5799 42.3543 35.0886 42.3543 34.4783V30.702C42.3543 30.0957 41.8384 29.6004 41.1976 29.6004ZM28.6731 37.5176C25.8187 37.5176 23.5011 35.3144 23.5011 32.5921C23.5011 29.8738 25.8146 27.6667 28.6731 27.6667C31.5276 27.6667 33.8452 29.8699 33.8452 32.5921C33.8452 35.3105 31.5276 37.5176 28.6731 37.5176Z" fill="#008489"/>
<path d="M28.6729 41.2068C23.6839 41.2068 19.627 37.3433 19.627 32.5921C19.627 27.841 23.6839 23.9775 28.6729 23.9775C33.6618 23.9775 37.7188 27.841 37.7188 32.5921C37.7188 37.3433 33.6618 41.2068 28.6729 41.2068ZM28.6729 24.8215C24.1749 24.8215 20.5132 28.3046 20.5132 32.5921C20.5132 36.8757 24.1707 40.3588 28.6729 40.3588C33.1709 40.3588 36.8325 36.8757 36.8325 32.5921C36.8283 28.3086 33.1709 24.8215 28.6729 24.8215Z" fill="white"/>
<path d="M58.0325 34.831C54.9076 34.831 52.3652 32.4099 52.3652 29.434V26.9495H54.2293V29.434C54.2293 31.4311 55.9353 33.0558 58.0325 33.0558C60.1296 33.0558 61.8356 31.4311 61.8356 29.434V21.5841C61.8356 18.6082 64.3779 16.1871 67.5028 16.1871H69.5832C72.7081 16.1871 75.2505 18.6082 75.2505 21.5841V41.5793H73.3864V21.5841C73.3864 19.587 71.6804 17.9623 69.5832 17.9623H67.5028C65.4057 17.9623 63.6997 19.587 63.6997 21.5841V29.434C63.7038 32.4099 61.1573 34.831 58.0325 34.831Z" fill="white"/>
<path d="M62.3815 9.24064C62.3815 4.25967 57.9626 0.261423 52.649 0.61013C48.201 0.903361 44.5851 4.31515 44.2356 8.54719C44.0691 10.576 44.6392 12.4662 45.7127 14.0116C47.5435 16.6427 48.5172 19.7256 48.5172 22.8799H58.0624C58.0624 19.7494 58.9903 16.6626 60.8295 14.0671C61.8156 12.6921 62.3815 11.0317 62.3815 9.24064Z" fill="#FF9A00"/>
<path d="M54.281 9.33575V11.5627H53.9523H52.6416H52.3129V9.33575H49.084V12.3671H51.4724V23.9973H52.3129V12.3671H52.6416H53.9523H54.281V23.9973H55.1215V12.3671H57.5099V9.33575H54.281ZM51.4724 11.5627H49.9287V10.1362H51.4724V11.5627ZM56.6694 11.5627H55.1257V10.1362H56.6694V11.5627Z" fill="white"/>
<path d="M55.5446 27.207H51.0508V29.2557H55.5446V27.207Z" fill="#004D47"/>
<path d="M56.0861 28.1422H50.5063C49.4119 28.1422 48.5215 27.2982 48.5215 26.252V22.8799H58.0667V26.252C58.0709 27.2982 57.1846 28.1422 56.0861 28.1422Z" fill="#008489"/>
<path d="M145.251 53.9188L132.456 56.1498L135.265 59.2921L126.756 66.183L116.861 55.6624L100.018 69.2025L102.822 72.3647L116.441 61.42L126.344 71.9525L138.082 62.4423L140.886 65.5847L145.251 53.9188Z" fill="#F15381"/>
<path d="M138.557 42.7483L128.367 44.5275L130.601 47.0279L123.827 52.52L115.946 44.1392L102.527 54.9253L104.762 57.4455L115.609 48.7239L123.499 57.1127L132.848 49.5402L135.083 52.0406L138.557 42.7483Z" fill="#0052FF"/>
<path d="M165.725 60.9246C165.209 60.9246 164.793 61.3209 164.793 61.8122V62.6999C164.793 63.1912 165.209 63.5875 165.725 63.5875C166.241 63.5875 166.657 63.1912 166.657 62.6999V61.8122C166.657 61.3248 166.241 60.9246 165.725 60.9246Z" fill="white"/>
<path d="M165.725 82.7307C165.209 82.7307 164.793 83.127 164.793 83.6183V85.5204C164.793 86.0117 165.209 86.408 165.725 86.408C166.241 86.408 166.657 86.0117 166.657 85.5204V83.6183C166.657 83.127 166.241 82.7307 165.725 82.7307Z" fill="white"/>
<path d="M165.725 67.5184C165.209 67.5184 164.793 67.9146 164.793 68.406V70.308C164.793 70.7994 165.209 71.1956 165.725 71.1956C166.241 71.1956 166.657 70.7994 166.657 70.308V68.406C166.657 67.9146 166.241 67.5184 165.725 67.5184Z" fill="white"/>
<path d="M165.725 75.1226C165.209 75.1226 164.793 75.5188 164.793 76.0102V77.9122C164.793 78.4036 165.209 78.7998 165.725 78.7998C166.241 78.7998 166.657 78.4036 166.657 77.9122V76.0102C166.657 75.5228 166.241 75.1226 165.725 75.1226Z" fill="white"/>
<path d="M165.725 90.3349C165.209 90.3349 164.793 90.7312 164.793 91.2225C164.277 91.2225 163.861 91.6188 163.861 92.1101C163.861 92.6015 164.277 92.9978 164.793 92.9978H166.657V91.2225C166.657 90.7351 166.241 90.3349 165.725 90.3349Z" fill="white"/>
<path d="M139.932 91.2225H138.276C137.76 91.2225 137.344 91.6188 137.344 92.1102C137.344 92.6015 137.76 92.9978 138.276 92.9978H139.932C140.448 92.9978 140.864 92.6015 140.864 92.1102C140.864 91.6188 140.448 91.2225 139.932 91.2225Z" fill="white"/>
<path d="M146.565 91.2225H144.909C144.393 91.2225 143.977 91.6188 143.977 92.1102C143.977 92.6015 144.393 92.9978 144.909 92.9978H146.565C147.081 92.9978 147.497 92.6015 147.497 92.1102C147.493 91.6188 147.076 91.2225 146.565 91.2225Z" fill="white"/>
<path d="M153.194 91.2225H151.538C151.022 91.2225 150.605 91.6188 150.605 92.1102C150.605 92.6015 151.022 92.9978 151.538 92.9978H153.194C153.71 92.9978 154.126 92.6015 154.126 92.1102C154.126 91.6188 153.71 91.2225 153.194 91.2225Z" fill="white"/>
<path d="M159.821 91.2225H158.164C157.649 91.2225 157.232 91.6188 157.232 92.1102C157.232 92.6015 157.649 92.9978 158.164 92.9978H159.821C160.336 92.9978 160.753 92.6015 160.753 92.1102C160.753 91.6188 160.336 91.2225 159.821 91.2225Z" fill="white"/>
<path d="M133.304 91.2225H132.372C131.856 91.2225 131.439 91.6188 131.439 92.1102C131.439 92.6015 131.856 92.9978 132.372 92.9978H133.304C133.82 92.9978 134.236 92.6015 134.236 92.1102C134.236 91.6188 133.815 91.2225 133.304 91.2225Z" fill="white"/>
<path d="M40.8787 66.38L-0.00195312 78.1238L8.79316 105.89L49.6738 94.1467L40.8787 66.38Z" fill="#0052FF"/>
<path d="M39.8171 71.9407L4.11523 82.1968L10.7461 103.131L46.448 92.8748L39.8171 71.9407Z" fill="white"/>
<path d="M31.7628 72.1665C31.9209 72.6579 31.6254 73.181 31.1095 73.3276C30.5935 73.4782 30.0443 73.1968 29.8903 72.7055C29.7322 72.2141 30.0276 71.691 30.5436 71.5444C31.0596 71.3938 31.6046 71.6752 31.7628 72.1665Z" fill="white"/>
<path d="M35.4874 71.0966C35.6455 71.588 35.35 72.111 34.8341 72.2577C34.3181 72.4082 33.7689 72.1269 33.6149 71.6355C33.4568 71.1442 33.7522 70.6211 34.2682 70.4745C34.7842 70.3239 35.3334 70.6013 35.4874 71.0966Z" fill="white"/>
<path d="M39.2159 70.0267C39.374 70.5181 39.0786 71.0412 38.5626 71.1878C38.0466 71.3383 37.4974 71.057 37.3434 70.5656C37.1853 70.0743 37.4808 69.5512 37.9967 69.4046C38.5127 69.254 39.0578 69.5314 39.2159 70.0267Z" fill="white"/>
<path d="M16.9619 90.9238L12.7949 92.1212L15.1005 99.3977L19.2675 98.2002L16.9619 90.9238Z" fill="#FFD234"/>
<path d="M23.081 85.6765L18.9141 86.8739L22.2331 97.3485L26.4 96.1511L23.081 85.6765Z" fill="#FFD234"/>
<path d="M31.2431 86.8771L27.0762 88.0742L29.3642 95.2975L33.5311 94.1005L31.2431 86.8771Z" fill="#FFD234"/>
<path d="M35.4716 75.668L31.3047 76.865L36.4936 93.2465L40.6605 92.0495L35.4716 75.668Z" fill="#FFD234"/>
<path d="M8.64267 83.5034C8.77166 83.9076 8.53032 84.3356 8.10591 84.4584C7.68149 84.5813 7.23211 84.3514 7.10312 83.9473C6.97413 83.5431 7.21546 83.1151 7.63988 82.9923C8.06846 82.8694 8.51784 83.0993 8.64267 83.5034Z" fill="#EBEBEB"/>
<path d="M18.1694 80.4585L9.55664 82.9327L9.73809 83.5055L18.3508 81.0314L18.1694 80.4585Z" fill="#EBEBEB"/>
<path d="M9.30478 85.5918C9.43377 85.9959 9.19243 86.4239 8.76802 86.5467C8.3436 86.6696 7.89422 86.4398 7.76523 86.0356C7.63624 85.6314 7.87757 85.2034 8.30199 85.0806C8.73057 84.9577 9.17995 85.1876 9.30478 85.5918Z" fill="#EBEBEB"/>
<path d="M18.8315 82.5468L10.2188 85.021L10.4002 85.5939L19.013 83.1197L18.8315 82.5468Z" fill="#EBEBEB"/>
<path d="M58.3083 54.2873C58.3083 54.2715 58.3207 54.2556 58.3207 54.2358V44.896C58.3207 44.8802 58.3124 44.8683 58.3124 44.8524C58.3082 44.8207 58.3041 44.793 58.2958 44.7653C58.2874 44.7335 58.275 44.7058 58.2583 44.682C58.25 44.6701 58.25 44.6543 58.2417 44.6424C58.2334 44.6305 58.2209 44.6266 58.2125 44.6147C58.1917 44.5909 58.1668 44.5671 58.1418 44.5473C58.121 44.5315 58.096 44.5156 58.0711 44.5037C58.0419 44.4879 58.0128 44.4799 57.9837 44.472C57.9546 44.4641 57.9254 44.4562 57.8963 44.4562C57.8797 44.4562 57.8672 44.4482 57.8505 44.4482H43.4869C43.4703 44.4482 43.4578 44.4562 43.4453 44.4562C43.412 44.4601 43.3829 44.4641 43.3538 44.472C43.3247 44.4799 43.2955 44.4918 43.2706 44.5037C43.2456 44.5156 43.2206 44.5315 43.1998 44.5513C43.1749 44.5711 43.1499 44.5909 43.1291 44.6147C43.1208 44.6266 43.1083 44.6305 43.1 44.6424C43.0917 44.6543 43.0917 44.6701 43.0833 44.682C43.0667 44.7098 43.0542 44.7375 43.0459 44.7653C43.0376 44.793 43.0292 44.8247 43.0292 44.8524C43.0292 44.8683 43.0209 44.8802 43.0209 44.896V48.1929H38.9141C38.9099 48.1929 38.9057 48.1968 38.8974 48.1968C38.86 48.1968 38.8267 48.2087 38.7934 48.2167C38.7684 48.2246 38.7435 48.2246 38.7185 48.2365C38.6935 48.2484 38.6727 48.2642 38.6478 48.2801C38.6186 48.2999 38.5895 48.3157 38.5645 48.3395C38.5604 48.3435 38.5562 48.3435 38.5521 48.3474C38.5354 48.3633 38.5312 48.3831 38.5188 48.4029C38.498 48.4306 38.4813 48.4584 38.4688 48.4861C38.4563 48.5178 38.4522 48.5495 38.448 48.5812C38.4439 48.601 38.4355 48.6208 38.4355 48.6446V57.9884C38.4355 58.238 38.6478 58.4401 38.9099 58.4401H53.261C53.5232 58.4401 53.7354 58.238 53.7354 57.9884V56.1735C53.7395 56.1418 53.7395 56.1141 53.7354 56.0824V54.6876H57.8422C57.913 54.6876 57.9795 54.6717 58.0378 54.644C58.0544 54.636 58.0669 54.6242 58.0836 54.6162C58.1252 54.5925 58.1668 54.5608 58.2001 54.5251C58.2084 54.5172 58.2167 54.5172 58.2209 54.5092C58.2334 54.4934 58.2333 54.4775 58.2458 54.4617C58.2625 54.434 58.2791 54.4062 58.2874 54.3785C58.2999 54.3468 58.3041 54.319 58.3083 54.2873ZM53.7395 50.7448V48.6407C53.7395 48.6169 53.7312 48.5971 53.727 48.5773C53.7229 48.5456 53.7187 48.5139 53.7062 48.4822C53.6938 48.4505 53.6729 48.4267 53.6563 48.3989C53.6438 48.3831 53.6397 48.3593 53.623 48.3435C53.6189 48.3395 53.6147 48.3395 53.6105 48.3355C53.5856 48.3118 53.5564 48.2919 53.5273 48.2761C53.5232 48.2721 53.5148 48.2682 53.5107 48.2642L57.372 45.7519V53.3324L53.7395 50.7448ZM39.3718 49.6353L43.7033 53.2174L39.3718 55.3612V49.6353ZM44.8476 52.9678L40.1665 49.0964H43.4661C43.4703 49.0964 43.4703 49.0964 43.4745 49.0964C43.4786 49.0964 43.4786 49.0964 43.4828 49.0964H49.2249C49.2291 49.0964 49.2332 49.0964 49.2374 49.0964C49.2415 49.0964 49.2457 49.0964 49.254 49.0964H51.9836L47.3067 52.9678L46.0751 53.9862L44.8476 52.9678ZM51.9337 48.1929H49.3872L45.014 45.3517H56.3027L51.9337 48.1929ZM52.7867 49.6353V55.3612L48.4551 53.2214L52.7867 49.6353ZM43.953 45.7519L47.702 48.1889H43.953V45.7519ZM39.3718 57.5367V56.3875L44.4772 53.8594L45.7671 54.9253C45.8545 55.0006 45.9669 55.0363 46.0792 55.0363C46.1916 55.0363 46.2997 55.0006 46.3913 54.9253L47.6812 53.8594L52.7867 56.3796V57.5327H39.3718V57.5367ZM53.7395 51.8781L56.415 53.7841H53.7395V51.8781Z" fill="white"/>
<path d="M50.1318 128.352L52.0375 123.106C51.9418 123.28 57.4467 125.348 57.4467 125.348L53.032 120.879C53.032 120.879 53.0237 120.894 53.0112 120.918L53.032 120.879L37.4492 116.817L50.1318 128.352ZM52.7449 121.41L52.749 121.406C52.7449 121.406 52.7449 121.406 52.7449 121.41Z" fill="#FF769B"/>
<path d="M57.4467 125.348L54.1471 118.973L37.4492 116.817L53.0361 120.879L57.4467 125.348Z" fill="#F15381"/>
<path d="M54.1471 118.973L57.5716 114.919L37.4492 116.817L54.1471 118.973Z" fill="#FF769B"/>
<path d="M60.9177 125.84C60.7804 125.887 60.6264 125.887 60.4849 125.824C59.9399 125.578 59.6361 125.424 59.6236 125.416C59.3532 125.277 59.2533 124.952 59.3989 124.694C59.5446 124.437 59.8858 124.342 60.1562 124.481C60.1604 124.481 60.4475 124.631 60.9593 124.861C61.2381 124.988 61.3587 125.305 61.2256 125.57C61.1632 125.701 61.0508 125.792 60.9177 125.84Z" fill="white"/>
<path d="M81.9437 127.619C81.6691 127.718 81.3945 127.809 81.1198 127.892C80.8244 127.983 80.5123 127.829 80.4166 127.552C80.3209 127.27 80.479 126.981 80.7745 126.882C81.332 126.707 81.8938 126.517 82.4389 126.244C82.7135 126.113 83.0505 126.208 83.192 126.47C83.3335 126.731 83.2294 127.052 82.9548 127.187C82.6219 127.353 82.2849 127.496 81.9437 127.619ZM77.4624 128.677C77.4249 128.693 77.3833 128.701 77.3375 128.705C76.7092 128.784 76.0601 128.839 75.4069 128.867C75.0989 128.883 74.8368 128.653 74.8202 128.36C74.8035 128.067 75.0448 127.817 75.3528 127.801C75.9727 127.773 76.5927 127.722 77.1919 127.647C77.4998 127.607 77.7786 127.813 77.8202 128.106C77.8535 128.356 77.6995 128.59 77.4624 128.677ZM85.8716 125.023C85.6761 125.095 85.4472 125.055 85.2891 124.908C85.0644 124.706 85.0603 124.37 85.2725 124.156C85.6761 123.755 86.0755 123.312 86.4625 122.832C86.6497 122.598 87.0034 122.555 87.2448 122.737C87.4903 122.915 87.536 123.252 87.3446 123.482C86.9327 123.993 86.5041 124.465 86.0755 124.893C86.0173 124.952 85.9465 124.996 85.8716 125.023ZM71.7993 128.736C71.7203 128.764 71.637 128.776 71.5496 128.768C70.9255 128.709 70.2806 128.629 69.6398 128.53C69.336 128.483 69.128 128.209 69.1779 127.92C69.2278 127.631 69.5149 127.433 69.8187 127.48C70.4387 127.575 71.0545 127.655 71.6578 127.71C71.9657 127.738 72.1904 127.999 72.1613 128.293C72.1363 128.499 71.9907 128.669 71.7993 128.736ZM89.1671 120.641C89.0173 120.692 88.8467 120.688 88.6969 120.609C88.4265 120.466 88.3308 120.141 88.4806 119.884C88.7718 119.389 89.0631 118.858 89.346 118.311C89.4834 118.045 89.8162 117.938 90.095 118.069C90.3738 118.2 90.4861 118.517 90.3488 118.782C90.0576 119.345 89.758 119.892 89.4584 120.403C89.3918 120.514 89.2836 120.597 89.1671 120.641ZM66.232 127.718C66.1238 127.758 66.0031 127.766 65.8824 127.734C65.2708 127.571 64.655 127.385 64.0475 127.191C63.7562 127.096 63.5981 126.795 63.6979 126.517C63.7978 126.24 64.114 126.089 64.4053 126.184C64.9962 126.375 65.5912 126.553 66.182 126.711C66.4775 126.791 66.6522 127.084 66.569 127.369C66.5232 127.532 66.3942 127.659 66.232 127.718ZM91.568 115.743C91.4432 115.787 91.3017 115.791 91.1685 115.739C90.8814 115.632 90.74 115.323 90.8523 115.05C91.0728 114.515 91.2975 113.952 91.5139 113.377C91.6179 113.1 91.9383 112.957 92.2296 113.056C92.5208 113.155 92.6706 113.461 92.5666 113.738C92.3461 114.324 92.1214 114.895 91.8925 115.442C91.8301 115.585 91.7095 115.692 91.568 115.743ZM93.4113 110.627C93.2989 110.667 93.1783 110.675 93.0534 110.639C92.758 110.556 92.5916 110.259 92.679 109.977C92.862 109.395 93.0326 108.82 93.1991 108.258C93.2823 107.972 93.5861 107.806 93.8856 107.885C94.1852 107.964 94.36 108.258 94.2768 108.539C94.1103 109.11 93.9356 109.696 93.7525 110.287C93.6984 110.449 93.5694 110.572 93.4113 110.627Z" fill="white"/>
<path d="M92.8214 76.9612C92.8214 76.9612 96.5788 94.884 111.113 100.119C111.113 100.119 113.535 98.2562 115.212 98.6088C116.888 98.9655 119.963 102.425 119.963 102.425H110.46C110.46 102.425 94.9019 101.006 86.8879 86.5428L86.4219 81.1299L92.8214 76.9612Z" fill="#FFC7CA"/>
<path d="M84.6218 61.7013C84.6218 61.7013 94.063 73.1452 95.1823 76.1647C95.1823 76.1647 89.2197 80.8683 87.3555 82.4652C87.3555 82.4652 80.2861 69.2738 81.4844 65.6084C82.6037 62.1927 84.6218 61.7013 84.6218 61.7013Z" fill="#F15381"/>
<path d="M70.3365 58.7413C70.3365 58.7413 56.052 60.6354 53.5679 69.6265C51.0838 78.6176 70.4322 105.71 70.4322 105.71H92.8223C92.8223 105.71 87.3548 63.3577 84.6252 61.7013C81.8915 60.0449 78.2881 57.2038 70.3365 58.7413Z" fill="#FF769B"/>
<path d="M78.04 53.5384L77.5033 61.8519C75.4852 63.0367 68.2285 60.7503 68.2285 60.7503L69.2188 51.6205L78.04 53.5384Z" fill="#FFC7CA"/>
<path d="M86.0525 41.825C86.0525 41.825 85.7904 59.1732 75.8041 56.9105C64.066 54.2477 69.467 38.2784 69.467 38.2784L86.0525 41.825Z" fill="#FFC7CA"/>
<path d="M69.4668 46.6752C69.4668 46.6752 68.6595 44.9594 67.353 45.6687C66.0506 46.378 65.7386 51.2401 69.2171 51.6205L69.4668 46.6752Z" fill="#FFC7CA"/>
<path d="M67.3581 45.6727C67.3581 45.6727 69.2846 45.3755 69.9337 47.0635L70.9573 40.763C70.9573 40.763 77.5025 42.5382 81.0767 40.763C81.0767 40.763 83.7897 44.1708 85.8535 44.5077C87.9132 44.8445 90.9673 36.7687 85.8535 35.1718C85.8535 35.1718 74.4567 21.8615 67.9572 35.1718C67.9572 35.1718 63.6923 35.4373 63.1347 40.3192C62.5771 45.2011 66.4718 48.5614 66.4718 48.5614C66.4718 48.5614 66.3636 46.1442 67.3581 45.6727Z" fill="#2B2C84"/>
<path d="M69.375 91.6901C69.375 91.6901 82.0451 104.022 94.5321 104.022C107.015 104.022 107.577 104.022 107.577 104.022H119.315C119.315 104.022 113.539 96.8335 110.743 97.8559C107.947 98.8782 106.083 100.384 106.083 100.384C106.083 100.384 88.2574 97.1664 77.1393 84.5773C77.1393 84.5812 71.7467 84.5931 69.375 91.6901Z" fill="#FFC7CA"/>
<path d="M53.5684 69.6265C53.5684 69.6265 53.818 86.4239 68.9722 93.9964C68.9722 93.9964 74.9973 85.457 77.1401 84.5813C77.1401 84.5813 69.692 68.4654 64.7488 65.3667C62.2315 63.7935 57.0469 64.3047 53.5684 69.6265Z" fill="#F15381"/>
<path d="M93.8159 104.026C93.8159 104.026 93.1959 104.648 93.2583 105.71H133.445C133.445 105.71 133.012 104.113 132.45 104.026H93.8159Z" fill="#2B2C84"/>
<path d="M119.311 105.71L129.78 74.8333H145.678L135.118 105.71H119.311Z" fill="#0052FF"/>
<path d="M137.487 89.1422C137.175 90.3548 136.276 91.1909 135.477 91.0046C134.678 90.8184 134.279 89.6851 134.591 88.4686C134.903 87.256 135.801 86.4199 136.6 86.6062C137.399 86.7964 137.795 87.9297 137.487 89.1422Z" fill="white"/>
<path d="M152.15 109.613H34.1699C34.1699 107.457 36.0049 105.71 38.2685 105.71H148.047C150.315 105.71 152.15 107.457 152.15 109.613Z" fill="#009AFF"/>
<path d="M69.151 105.71H50.2187C48.2631 105.71 46.6777 104.2 46.6777 102.338C46.6777 100.475 48.2631 98.9655 50.2187 98.9655H69.151V105.71Z" fill="#FF9A00"/>
<path d="M69.1509 103.824H49.9315C49.0701 103.824 48.3711 103.158 48.3711 102.338C48.3711 101.517 49.0701 100.852 49.9315 100.852H69.1509V103.824Z" fill="white"/>
<path d="M69.151 98.9654H50.2187C48.2631 98.9654 46.6777 97.4557 46.6777 95.5933C46.6777 93.7309 48.2631 92.2211 50.2187 92.2211H69.151V98.9654Z" fill="#008489"/>
<path d="M69.1509 97.0792H49.9315C49.0701 97.0792 48.3711 96.4135 48.3711 95.5933C48.3711 94.773 49.0701 94.1073 49.9315 94.1073H69.1509V97.0792Z" fill="white"/>
<path d="M48.5 67.4312L48.7039 68.0533L48.9078 67.4312C49.1699 66.6308 49.7191 65.9611 50.439 65.5529C49.7191 65.1488 49.1699 64.4791 48.9078 63.6747L48.7039 63.0526L48.5 63.6747C48.2378 64.4751 47.6886 65.1448 46.9688 65.5529C47.6928 65.9611 48.2378 66.6308 48.5 67.4312Z" fill="#FF9A00"/>
<path d="M90.8628 59.2445L91.2498 60.4214L91.6368 59.2445C92.1361 57.7308 93.168 56.4628 94.5328 55.694C93.168 54.9253 92.1361 53.6612 91.6368 52.1436L91.2498 50.9667L90.8628 52.1436C90.3635 53.6573 89.3316 54.9253 87.9668 55.694C89.3316 56.4667 90.3635 57.7308 90.8628 59.2445Z" fill="#FF9A00"/>
<path d="M118.117 84.3712L118.504 85.5481L118.891 84.3712C119.39 82.8575 120.422 81.5895 121.787 80.8208C120.422 80.052 119.39 78.7879 118.891 77.2703L118.504 76.0934L118.117 77.2703C117.617 78.784 116.585 80.052 115.221 80.8208C116.585 81.5895 117.617 82.8575 118.117 84.3712Z" fill="#FF9A00"/>
<path d="M111.718 92.019L111.972 92.7917L112.225 92.019C112.55 91.0284 113.228 90.1962 114.123 89.693C113.228 89.1897 112.55 88.3616 112.225 87.3669L111.972 86.5942L111.718 87.3669C111.393 88.3576 110.715 89.1897 109.82 89.693C110.715 90.1962 111.393 91.0284 111.718 92.019Z" fill="#FF9A00"/>
<path d="M95.7783 44.4839L96.0321 45.2566L96.2859 44.4839C96.6104 43.4932 97.2887 42.6611 98.1833 42.1578C97.2887 41.6546 96.6104 40.8264 96.2859 39.8318L96.0321 39.063L95.7783 39.8318C95.4537 40.8224 94.7755 41.6546 93.8809 42.1578C94.7755 42.6611 95.4537 43.4932 95.7783 44.4839Z" fill="#FF9A00"/>
<path d="M31.3452 63.3299L31.703 64.4157L32.0608 63.3299C32.5185 61.9311 33.4756 60.7622 34.7322 60.0568C33.4714 59.3475 32.5185 58.1786 32.0608 56.7837L31.703 55.698L31.3452 56.7837C30.8875 58.1825 29.9304 59.3515 28.6738 60.0568C29.9346 60.7661 30.8875 61.9351 31.3452 63.3299Z" fill="#FF9A00"/>
<path d="M178.895 39.606H151.316V71.794H178.895V39.606Z" fill="#FFD234"/>
<path d="M181.999 43.097V45.427H178.895V39.606C180.659 39.8833 181.999 41.3416 181.999 43.097Z" fill="#ECAF0B"/>
<path d="M158.798 48.918H154.434V53.0748H158.798V48.918Z" fill="#ECAF0B"/>
<path d="M175.78 48.918H160.967V49.9562H175.78V48.918Z" fill="#2B2C84"/>
<path d="M175.78 52.0366H160.967V53.0748H175.78V52.0366Z" fill="#2B2C84"/>
<path d="M158.798 58.3212H154.434V62.4819H158.798V58.3212Z" fill="#ECAF0B"/>
<path d="M175.78 58.3212H160.967V59.3594H175.78V58.3212Z" fill="#2B2C84"/>
<path d="M175.78 61.4437H160.967V62.4819H175.78V61.4437Z" fill="#2B2C84"/>
<path d="M156.992 51.8583L155.174 50.3604L155.906 49.556L156.838 50.3248L158.736 48.0502L159.614 48.712L156.992 51.8583Z" fill="white"/>
<path d="M156.992 61.0237L155.174 59.5299L155.906 58.7254L156.838 59.4942L158.736 57.2157L159.614 57.8775L156.992 61.0237Z" fill="white"/>
</g>
<defs>
<clipPath id="clip0_3983_8995">
<rect width="182" height="147" fill="white" transform="translate(0 0.590332)"/>
</clipPath>
</defs>
</svg>
