<svg width="239" height="148" viewBox="0 0 239 148" fill="none" xmlns="http://www.w3.org/2000/svg">
<g opacity="0.2" clip-path="url(#clip0_3983_12758)">
<path d="M19.4444 10.589C19.4444 14.0704 17.7284 17.1309 15.1551 18.925L16.7453 22.5923H12.934L11.9493 20.3492C11.2929 20.5071 10.587 20.586 9.87959 20.586C4.60566 20.586 0.316406 16.1014 0.316406 10.5873C0.316406 5.07328 4.60725 0.590332 9.88119 0.590332C15.1551 0.590332 19.4444 5.07493 19.4444 10.589ZM13.5395 15.2051C14.8014 14.0967 15.6092 12.4358 15.6092 10.589C15.6092 7.29174 13.036 4.59966 9.88119 4.59966C6.70249 4.59966 4.12766 7.29009 4.12766 10.589C4.12766 13.9126 6.70089 16.603 9.88119 16.603C10.0326 16.603 10.1839 16.5767 10.3353 16.5767L9.50197 14.6509H13.3116L13.5395 15.2051Z" fill="#3F6FA4"/>
<path d="M29.1325 20.5876C25.095 20.5876 21.8398 17.1851 21.8398 12.9637V0.590332H25.6495V12.9637C25.6495 14.9683 27.2142 16.6046 29.1309 16.6046C31.0493 16.6046 32.6124 14.9683 32.6124 12.9637V0.590332H36.422V12.9637C36.4252 17.1835 33.17 20.5876 29.1325 20.5876Z" fill="#3F6FA4"/>
<path d="M51.3914 20.5876L49.4491 14.9946H43.5697L41.6275 20.5876H37.5645L44.4763 0.590332H48.5393L55.4528 20.5876H51.3914ZM46.4951 6.47277L44.9559 10.9837H48.0597L46.4951 6.47277Z" fill="#3F6FA4"/>
<path d="M57.3457 0.590332H61.1554V16.5767H68.1198V20.586H57.3457V0.590332Z" fill="#3F6FA4"/>
<path d="M70.5195 0.590332H74.3292V20.5876H70.5195V0.590332Z" fill="#3F6FA4"/>
<path d="M85.936 4.59966V20.586H82.1009V4.59966H76.7266V0.590332H91.3103V4.59966H85.936Z" fill="#3F6FA4"/>
<path d="M98.7057 11.0643L93.709 0.590332H97.9727L100.622 6.13071L103.247 0.590332H107.51L102.514 11.0643V20.5876H98.7041V11.0643H98.7057Z" fill="#3F6FA4"/>
<path d="M134.256 3.3597L131.557 6.208C130.548 5.20484 129.159 4.59802 127.671 4.59802C124.492 4.59802 121.917 7.28845 121.917 10.5873C121.917 13.9109 124.49 16.575 127.671 16.575C129.159 16.575 130.547 15.9682 131.557 14.993L134.256 17.815C132.54 19.5302 130.218 20.5844 127.671 20.5844C122.397 20.5844 118.107 16.0998 118.107 10.5857C118.107 5.07164 122.397 0.590332 127.671 0.590332C130.218 0.590332 132.54 1.64611 134.256 3.3597Z" fill="#3F6FA4"/>
<path d="M154.521 10.589C154.521 16.1031 150.232 20.5876 144.958 20.5876C139.684 20.5876 135.395 16.1031 135.395 10.589C135.395 5.07493 139.684 0.590332 144.958 0.590332C150.23 0.590332 154.521 5.07493 154.521 10.589ZM139.204 10.589C139.204 13.9126 141.777 16.603 144.958 16.603C148.111 16.603 150.686 13.9126 150.686 10.589C150.686 7.29173 148.113 4.59966 144.958 4.59966C141.777 4.59966 139.204 7.29173 139.204 10.589Z" fill="#3F6FA4"/>
<path d="M169.029 0.590332H172.839V20.5876H168.398L160.728 7.26542V20.5876H156.918V0.590332H161.384L169.029 13.9389V0.590332Z" fill="#3F6FA4"/>
<path d="M184.448 4.59966V20.586H180.613V4.59966H175.238V0.590332H189.822V4.59966H184.448Z" fill="#3F6FA4"/>
<path d="M192.221 0.590332H197.949C201.127 0.590332 203.677 3.28076 203.677 6.60597C203.677 8.8754 202.466 10.8801 200.675 11.8816L204.435 20.5876H200.246L196.789 12.5937H196.032V20.5876H192.222V0.590332H192.221ZM197.947 8.58432C199.007 8.58432 199.866 7.68806 199.866 6.60597C199.866 5.49757 199.007 4.60131 197.947 4.60131H196.029V8.58432H197.947Z" fill="#3F6FA4"/>
<path d="M224.316 10.589C224.316 16.1031 220.027 20.5876 214.753 20.5876C209.479 20.5876 205.189 16.1031 205.189 10.589C205.189 5.07493 209.479 0.590332 214.753 0.590332C220.027 0.590332 224.316 5.07493 224.316 10.589ZM208.999 10.589C208.999 13.9126 211.572 16.603 214.753 16.603C217.906 16.603 220.481 13.9126 220.481 10.589C220.481 7.29173 217.907 4.59966 214.753 4.59966C211.572 4.59966 208.999 7.29173 208.999 10.589Z" fill="#3F6FA4"/>
<path d="M226.715 0.590332H230.525V16.5767H237.489V20.586H226.715V0.590332Z" fill="#3F6FA4"/>
<path d="M27.449 60.6776L23.053 55.6849C22.9398 55.5549 22.7423 55.5566 22.6291 55.6881L22.5049 55.8345C22.4762 55.869 22.4475 55.9019 22.4172 55.9348C22.2467 56.1239 22.0938 56.2818 21.9472 56.4183C21.8118 56.5449 21.6572 56.6765 21.4644 56.8294C21.4294 56.8574 21.3927 56.8854 21.3561 56.9117L21.2366 57.0005C21.0995 57.1024 21.0788 57.3064 21.1935 57.4363L25.5736 62.4093C25.6613 62.503 25.7951 62.5524 25.9608 62.5524C26.0038 62.5524 26.0421 62.5491 26.0723 62.5458C26.3591 62.5112 26.6762 62.3501 26.9407 62.11L26.9869 62.0689C27.4745 61.6133 27.6816 60.9884 27.449 60.6776Z" fill="#3F6FA4"/>
<path d="M22.352 54.7097C24.5046 51.7594 24.3198 47.63 21.9138 44.8919C20.4989 43.2819 18.477 42.3577 16.3658 42.3577C16.0727 42.3577 15.7763 42.3758 15.4847 42.412C13.9376 42.6011 12.51 43.2754 11.3532 44.3575C9.87301 45.7405 9.00464 47.6366 8.90585 49.6956C8.80707 51.7545 9.4922 53.7296 10.8338 55.2573C12.2471 56.8673 14.269 57.7899 16.3786 57.7899C16.6718 57.7899 16.9665 57.7718 17.2597 57.7356C18.3543 57.6007 19.3836 57.2291 20.3173 56.6305C20.7029 56.3822 21.0662 56.1009 21.3944 55.7934C21.7417 55.4695 22.0636 55.1044 22.352 54.7097ZM20.9817 50.3073C20.9212 51.5654 20.3906 52.7231 19.4872 53.5684C18.7797 54.2295 17.9082 54.6406 16.9633 54.7557C15.4975 54.935 14.0205 54.3611 13.0374 53.2411C11.3468 51.3154 11.4886 48.3306 13.3544 46.5858C14.0619 45.9247 14.935 45.5136 15.8783 45.3984C16.0567 45.3771 16.2368 45.3655 16.4168 45.3655C17.7058 45.3655 18.9407 45.9296 19.8043 46.913C20.6232 47.8438 21.0423 49.0509 20.9817 50.3073Z" fill="#3F6FA4"/>
<path d="M43.8652 131.55C43.8971 131.583 43.9385 131.601 43.9831 131.601C44.0038 131.601 44.0245 131.596 44.0437 131.588C44.1058 131.561 44.1456 131.5 44.1456 131.431V124.628C44.1456 124.534 44.0723 124.46 43.9831 124.46C42.2209 124.46 40.5527 125.159 39.2844 126.425C39.2191 126.49 39.2175 126.596 39.2812 126.664L43.8652 131.55Z" fill="#3F6FA4"/>
<path d="M43.8558 133.295C43.8605 133.245 43.843 133.198 43.8111 133.161L39.2255 128.275C39.1953 128.243 39.1538 128.224 39.1108 128.224C39.0662 128.226 39.0264 128.241 38.9945 128.272C37.6688 129.598 36.9375 131.377 36.9375 133.28C36.9375 134.733 37.3677 136.126 38.1819 137.31C38.2138 137.356 38.2647 137.381 38.3157 137.381C38.3476 137.381 38.3811 137.371 38.4097 137.35L43.7872 133.416C43.8255 133.388 43.851 133.344 43.8558 133.295ZM38.6583 136.212C38.0735 135.316 37.766 134.275 37.766 133.191C37.766 131.757 38.2998 130.413 39.2701 129.394L42.8153 133.171L38.6583 136.212Z" fill="#3F6FA4"/>
<path d="M52.0352 133.571C52.0336 133.273 52.0145 132.966 51.9746 132.655C51.9603 132.541 51.9428 132.428 51.9237 132.316C51.8806 132.074 51.8265 131.834 51.7611 131.604C51.7325 131.504 51.7022 131.405 51.6703 131.306C51.5986 131.091 51.5174 130.879 51.4281 130.675C51.3883 130.584 51.3485 130.497 51.3054 130.408C51.2099 130.213 51.1079 130.024 50.9995 129.844C50.9517 129.764 50.9023 129.685 50.8513 129.606C50.7239 129.414 50.5869 129.226 50.4435 129.048C50.3861 128.978 50.3271 128.907 50.2682 128.838C50.1375 128.69 49.9957 128.54 49.8444 128.394C49.779 128.331 49.7121 128.271 49.6436 128.21C49.4906 128.075 49.3313 127.943 49.1672 127.822C49.0939 127.767 49.019 127.713 48.9425 127.662C48.7657 127.54 48.5856 127.43 48.4088 127.332C48.3259 127.286 48.2431 127.241 48.1586 127.198C47.9419 127.09 47.7189 126.991 47.4926 126.907C47.3986 126.873 47.3046 126.838 47.209 126.809C46.9875 126.738 46.7597 126.677 46.5302 126.628C46.4235 126.605 46.3167 126.585 46.2084 126.568C45.9582 126.529 45.6953 126.503 45.4292 126.493C45.3368 126.49 45.246 126.486 45.1536 126.486C44.9911 126.486 44.8588 126.623 44.8588 126.791V133.438L39.6056 137.279C39.5419 137.325 39.4988 137.398 39.4845 137.477C39.4718 137.556 39.4893 137.638 39.5355 137.704L39.561 137.738C39.6725 137.899 39.7968 138.059 39.9386 138.23C39.9976 138.3 40.0565 138.37 40.1171 138.437C40.2509 138.585 40.3959 138.733 40.5473 138.873C40.6142 138.935 40.6811 138.994 40.7512 139.055C40.9408 139.216 41.1177 139.355 41.2913 139.476C41.3583 139.524 41.4284 139.568 41.4969 139.611L41.5224 139.628C41.7008 139.743 41.8857 139.848 42.0689 139.945C42.1533 139.989 42.2394 140.032 42.3254 140.072C42.515 140.16 42.7158 140.241 42.9389 140.32C43.0345 140.353 43.1301 140.386 43.2257 140.414C43.4678 140.486 43.6925 140.542 43.914 140.585C44.0223 140.606 44.1339 140.621 44.2422 140.636C44.5417 140.677 44.8397 140.698 45.1233 140.7C45.1249 140.7 45.1456 140.7 45.1488 140.7C45.2731 140.7 45.3958 140.697 45.5185 140.69C45.8451 140.672 46.1733 140.629 46.4952 140.563C46.6545 140.53 46.8186 140.491 46.9955 140.44C47.4974 140.295 47.9786 140.095 48.4279 139.843C48.8772 139.59 49.3058 139.281 49.6978 138.924C49.9145 138.726 50.1216 138.513 50.3128 138.289C50.6601 137.883 50.9597 137.442 51.2035 136.978C51.4473 136.516 51.6416 136.018 51.7819 135.5C51.8312 135.317 51.8695 135.15 51.9014 134.983C51.9651 134.65 52.0065 134.311 52.024 133.975C52.0304 133.849 52.0336 133.722 52.0336 133.594C52.0368 133.591 52.0352 133.571 52.0352 133.571Z" fill="#3F6FA4"/>
<path d="M111.809 74.8336C111.632 75.0968 111.342 75.2645 111.03 75.2809C110.726 75.299 110.413 75.1609 110.212 74.9208C107.217 71.3473 103.584 69.2324 99.4128 68.6355C98.9571 68.5697 98.4887 68.522 98.0203 68.494C97.9008 68.4875 97.7956 68.5549 97.7478 68.6651C97.7016 68.7752 97.7255 68.9052 97.8099 68.9874C100.778 71.9327 106.299 78.2657 109.919 87.5869C109.958 87.6855 110.047 87.7546 110.149 87.7661C110.158 87.7678 110.168 87.7678 110.177 87.7678C110.27 87.7678 110.357 87.7201 110.408 87.6395C116.683 77.9434 125.078 65.7444 134.391 57.4166C134.495 57.3245 134.517 57.1666 134.445 57.0466C134.372 56.9265 134.227 56.8788 134.1 56.9347C119.935 63.1625 112.598 73.6562 111.809 74.8336Z" fill="#3F6FA4"/>
<path d="M139.354 109.577L127.549 92.5944C127.503 92.5287 127.431 92.4843 127.353 92.476C127.274 92.4678 127.196 92.4925 127.137 92.5484C127.065 92.6142 126.993 92.68 126.922 92.7441C126.848 92.8099 126.773 92.8773 126.7 92.9447L126.557 93.0779C126.452 93.175 126.346 93.272 126.238 93.3674C125.645 93.8903 125.112 94.3261 124.606 94.6994C124.135 95.0481 123.612 95.3983 122.956 95.8012C122.839 95.8736 122.72 95.9427 122.6 96.0117L122.444 96.1022C122.365 96.1482 122.287 96.1959 122.209 96.2436C122.143 96.2831 122.076 96.3242 122.011 96.362C121.942 96.4031 121.893 96.4706 121.877 96.5511C121.861 96.6301 121.877 96.7139 121.923 96.7797L133.716 113.748C133.881 113.986 134.182 114.138 134.586 114.187C134.678 114.198 134.774 114.203 134.874 114.203C134.874 114.203 134.879 114.203 134.88 114.203C135.674 114.202 136.643 113.847 137.469 113.256L137.592 113.171C139.248 111.947 139.85 110.293 139.354 109.577Z" fill="#3F6FA4"/>
<path d="M127.342 90.1507C130.715 86.4949 132.808 81.9067 133.396 76.8827C133.979 71.8933 133.028 66.9515 130.645 62.5919C130.601 62.5146 130.528 62.462 130.442 62.4488C130.356 62.4356 130.27 62.4636 130.208 62.5261C128.983 63.7381 127.722 65.1031 126.462 66.5815C126.389 66.667 126.373 66.7887 126.417 66.8906C127.808 70.0284 128.251 73.5016 127.698 76.937C126.961 81.5203 124.537 85.5312 120.877 88.2315C118.016 90.3431 114.649 91.4646 111.141 91.4745H111.096C110.449 91.4745 109.797 91.435 109.157 91.3594C104.433 90.7937 100.14 88.1838 97.3789 84.1992C91.9775 76.4009 93.7286 65.5208 101.284 59.9442C104.149 57.831 107.516 56.7094 111.024 56.6996H111.069C111.716 56.6996 112.367 56.739 113.008 56.8147C116.872 57.2768 120.49 59.1236 123.197 62.013C123.29 62.1117 123.438 62.1298 123.551 62.0541C125.003 61.0723 126.529 60.1711 128.087 59.3768C128.164 59.3374 128.219 59.2634 128.237 59.1762C128.255 59.0891 128.232 58.9986 128.176 58.9312C124.446 54.4088 119.243 51.5407 113.524 50.8566C112.664 50.753 111.787 50.7004 110.921 50.7004H110.857C106.144 50.7135 101.62 52.2216 97.7756 55.06C92.8586 58.6861 89.605 64.0736 88.6124 70.2307C87.6213 76.3877 89.0123 82.5711 92.5288 87.6461C96.2349 92.9957 102.001 96.4985 108.346 97.2583C109.208 97.3619 110.084 97.4145 110.951 97.4145H111.011C114.349 97.4046 117.568 96.6564 120.579 95.1911C121.825 94.5843 123.011 93.8673 124.102 93.0598C125.246 92.2162 126.338 91.236 127.342 90.1507Z" fill="#3F6FA4"/>
<path d="M193.875 142.466C182.606 142.466 173.438 133.003 173.438 121.372C173.438 109.74 182.606 100.278 193.875 100.278C205.145 100.278 214.313 109.74 214.313 121.372C214.313 133.002 205.145 142.466 193.875 142.466ZM193.875 104.412C184.815 104.412 177.445 112.019 177.445 121.37C177.445 130.721 184.815 138.328 193.875 138.328C202.935 138.328 210.306 130.721 210.306 121.37C210.306 112.019 202.935 104.412 193.875 104.412Z" fill="#DAAA49"/>
<path d="M222.748 60.4261C213.787 60.4261 206.496 52.9024 206.496 43.652C206.496 34.4032 213.786 26.8779 222.748 26.8779C231.711 26.8779 239 34.4016 239 43.652C239 52.9008 231.711 60.4261 222.748 60.4261ZM222.748 31.0155C215.997 31.0155 210.503 36.6842 210.503 43.6536C210.503 50.6214 215.996 56.2917 222.748 56.2917C229.501 56.2917 234.993 50.6231 234.993 43.6536C234.993 36.6842 229.501 31.0155 222.748 31.0155Z" fill="#89BBE1"/>
<path d="M18.7902 72.4146C8.42873 72.4146 0 63.7151 0 53.0208C0 42.3265 8.42873 33.627 18.7902 33.627C29.1516 33.627 37.5804 42.3265 37.5804 53.0208C37.5804 63.7151 29.15 72.4146 18.7902 72.4146ZM18.7902 37.763C10.6387 37.763 4.00723 44.6074 4.00723 53.0208C4.00723 61.4341 10.6387 68.2786 18.7902 68.2786C26.9417 68.2786 33.5731 61.4341 33.5731 53.0208C33.5731 44.6074 26.9417 37.763 18.7902 37.763Z" fill="#8BC3B6"/>
<path d="M44.7461 147.59C37.1108 147.59 30.8984 141.178 30.8984 133.298C30.8984 125.417 37.1108 119.005 44.7461 119.005C52.3813 119.005 58.5938 125.417 58.5938 133.298C58.5954 141.178 52.3829 147.59 44.7461 147.59ZM44.7461 123.141C39.3192 123.141 34.9057 127.698 34.9057 133.298C34.9057 138.899 39.3208 143.454 44.7461 143.454C50.173 143.454 54.5865 138.897 54.5865 133.298C54.5881 127.698 50.173 123.141 44.7461 123.141Z" fill="#D16E52"/>
<path d="M61.1627 107.24C57.4056 107.24 54.3496 104.086 54.3496 100.209C54.3496 96.3308 57.4056 93.1766 61.1627 93.1766C64.9198 93.1766 67.9758 96.3308 67.9758 100.209C67.9758 104.086 64.9198 107.24 61.1627 107.24ZM61.1627 97.3125C59.6156 97.3125 58.3568 98.6117 58.3568 100.209C58.3568 101.805 59.6156 103.105 61.1627 103.105C62.7098 103.105 63.9686 101.805 63.9686 100.209C63.9686 98.6117 62.7098 97.3125 61.1627 97.3125Z" fill="#DAAA49"/>
<path d="M10.3866 88.5078C11.8977 86.9981 11.9369 84.5099 10.4742 82.9503C9.01149 81.3906 6.60072 81.3501 5.08961 82.8599C3.57851 84.3696 3.53929 86.8578 5.00203 88.4174C6.46476 89.9771 8.87553 90.0176 10.3866 88.5078Z" fill="#89BBE1"/>
<path d="M114.019 137.126C116.064 136.622 117.327 134.502 116.839 132.39C116.351 130.279 114.297 128.976 112.251 129.479C110.205 129.983 108.943 132.103 109.431 134.215C109.919 136.326 111.973 137.629 114.019 137.126Z" fill="#D16E52"/>
<path d="M210.32 86.3847C212.423 86.3847 214.128 84.625 214.128 82.4543C214.128 80.2836 212.423 78.5239 210.32 78.5239C208.217 78.5239 206.512 80.2836 206.512 82.4543C206.512 84.625 208.217 86.3847 210.32 86.3847Z" fill="#DAAA49"/>
<path d="M49.4628 110.547C50.9499 109.012 50.9499 106.523 49.4628 104.989C47.9757 103.454 45.5646 103.454 44.0774 104.989C42.5903 106.523 42.5903 109.012 44.0774 110.547C45.5646 112.082 47.9757 112.082 49.4628 110.547Z" fill="#8BC3B6"/>
<path d="M138.561 145.295C134.804 145.295 131.748 142.14 131.748 138.263C131.748 134.385 134.804 131.231 138.561 131.231C142.318 131.231 145.374 134.385 145.374 138.263C145.374 142.14 142.317 145.295 138.561 145.295ZM138.561 135.367C137.014 135.367 135.755 136.666 135.755 138.263C135.755 139.859 137.014 141.159 138.561 141.159C140.108 141.159 141.367 139.859 141.367 138.263C141.367 136.666 140.108 135.367 138.561 135.367Z" fill="#8BC3B6"/>
<path d="M155.78 95.2804L153.756 98.8497L177.24 113.036L179.264 109.467L155.78 95.2804Z" fill="#DAAA49"/>
<path d="M207.874 47.8522L153.668 66.3422L154.925 70.2693L209.132 51.7793L207.874 47.8522Z" fill="#89BBE1"/>
<path d="M35.6556 55.24L34.5039 59.2014L77.6481 72.5632L78.7998 68.6018L35.6556 55.24Z" fill="#8BC3B6"/>
<path d="M77.8013 92.7669L64.8711 95.649L65.717 99.6919L78.6472 96.8098L77.8013 92.7669Z" fill="#DAAA49"/>
<path d="M85.3188 107.769L54.123 125.524L56.0581 129.146L87.2539 111.391L85.3188 107.769Z" fill="#D16E52"/>
<path d="M133.255 120.496L129.617 122.23L134.953 134.158L138.591 132.424L133.255 120.496Z" fill="#8BC3B6"/>
<path d="M232.092 41.5256C232.092 41.2576 231.915 41.029 231.662 40.9714L229.707 40.5192L230.781 38.7694C230.919 38.5425 230.889 38.253 230.706 38.0639L228.165 35.436C227.986 35.2518 227.69 35.2189 227.481 35.3587L225.791 36.4687L225.354 34.4476C225.298 34.1861 225.077 34.0036 224.817 34.0036H221.222C220.963 34.0036 220.741 34.1861 220.685 34.4476L220.249 36.4687L218.56 35.3603C218.348 35.2189 218.053 35.2534 217.875 35.4376L215.333 38.0672C215.152 38.2563 215.12 38.5458 215.259 38.7727L216.332 40.5225L214.377 40.9747C214.124 41.0323 213.947 41.2609 213.947 41.5289V45.2455C213.947 45.5136 214.124 45.7422 214.377 45.7997L216.332 46.252L215.259 48.0017C215.12 48.227 215.15 48.5181 215.333 48.7072L217.875 51.3352C218.052 51.521 218.346 51.5539 218.558 51.4141L220.249 50.304L220.685 52.3252C220.741 52.5833 220.966 52.7708 221.222 52.7708L224.817 52.7692C225.077 52.7692 225.298 52.5866 225.354 52.3252L225.791 50.304L227.481 51.4141C227.695 51.5539 227.989 51.5193 228.165 51.3352L230.704 48.7072C230.886 48.5214 230.918 48.2254 230.781 48.0017L229.707 46.252L231.662 45.7997C231.915 45.7422 232.092 45.5136 232.092 45.2455V41.5256ZM223.005 47.5314C223.004 47.5314 223.004 47.5314 223.002 47.5314L222.951 47.5281C220.909 47.4903 219.247 45.7422 219.247 43.6306C219.247 41.519 220.909 39.7693 222.95 39.7315C222.972 39.7315 222.996 39.7298 223.017 39.7282L223.029 39.7265C225.105 39.7315 226.793 41.4812 226.793 43.629C226.793 45.7816 225.102 47.5314 223.005 47.5314Z" fill="#3F6FA4"/>
<path d="M154.461 75.4043L158.98 75.0738C157.073 63.4684 150.749 53.3941 141.861 46.7651L139.49 50.7349C147.186 56.5779 152.689 65.3284 154.461 75.4043Z" fill="#D16E52"/>
<path d="M116.944 43.0978C125.373 43.0978 133.17 45.9362 139.49 50.7349L141.86 46.765C134.847 41.5338 126.238 38.4454 116.942 38.4454C107.782 38.4454 99.2866 41.4434 92.3301 46.5365L95.2347 50.1166C101.401 45.6945 108.883 43.0978 116.944 43.0978Z" fill="#8BC3B6"/>
<path d="M95.236 50.1166L92.3314 46.5365C87.7904 49.8601 83.9074 54.0799 80.9199 58.9411L84.8236 61.273C87.5514 56.8854 91.0934 53.0882 95.236 50.1166Z" fill="#DAAA49"/>
<path d="M158.98 75.0737L154.462 75.4043C154.865 77.6918 155.075 80.0484 155.075 82.4543C155.075 104.155 137.969 121.811 116.944 121.811C95.9179 121.811 78.8119 104.155 78.8119 82.4543C78.8119 74.661 81.0218 67.3922 84.8235 61.273L80.9183 58.941C76.7326 65.7477 74.3027 73.8124 74.3027 82.4543C74.3027 106.721 93.4307 126.463 116.942 126.463C140.453 126.463 159.581 106.721 159.581 82.4543C159.583 79.9399 159.374 77.4747 158.98 75.0737Z" fill="#89BBE1"/>
<path d="M188.159 114.282H184.346C183.673 114.282 183.127 114.845 183.127 115.54V127.804C183.127 128.498 183.672 129.062 184.346 129.062H188.159C188.831 129.062 189.378 128.499 189.378 127.804V115.54C189.378 114.846 188.833 114.282 188.159 114.282Z" fill="#3F6FA4"/>
<path d="M195.489 119.326H191.676C191.004 119.326 190.457 119.888 190.457 120.584V127.804C190.457 128.498 191.002 129.062 191.676 129.062H195.489C196.161 129.062 196.708 128.499 196.708 127.804V120.584C196.708 119.888 196.161 119.326 195.489 119.326Z" fill="#3F6FA4"/>
<path d="M202.819 109.24H199.006C198.334 109.24 197.787 109.803 197.787 110.498V127.804C197.787 128.498 198.332 129.062 199.006 129.062H202.819C203.491 129.062 204.038 128.499 204.038 127.804V110.497C204.038 109.803 203.491 109.24 202.819 109.24Z" fill="#3F6FA4"/>
<path d="M205.399 130.65V130.639C205.399 130.318 205.148 130.058 204.837 130.058H182.439C182.129 130.058 181.877 130.318 181.877 130.639V130.65C181.877 130.971 182.129 131.231 182.439 131.231H204.837C205.148 131.231 205.399 130.971 205.399 130.65Z" fill="#3F6FA4"/>
</g>
<defs>
<clipPath id="clip0_3983_12758">
<rect width="239" height="147" fill="white" transform="translate(0 0.590332)"/>
</clipPath>
</defs>
</svg>
