<svg width="203" height="182" viewBox="0 0 203 182" fill="none" xmlns="http://www.w3.org/2000/svg">
<path d="M8.27303 10.5547L10.4297 8.39807L2.15662 0.125001L-3.7456e-05 2.28166L8.27303 10.5547Z" fill="#C9CAD0"/>
<path d="M10.432 2.28642L8.27539 0.129761L0.00232039 8.40283L2.15898 10.5595L10.432 2.28642Z" fill="#C9CAD0"/>
<path d="M29.7047 10.5547L31.8613 8.39807L23.5883 0.125001L21.4316 2.28166L29.7047 10.5547Z" fill="#C9CAD0"/>
<path d="M31.8617 2.28605L29.7051 0.129395L21.432 8.40246L23.5887 10.5591L31.8617 2.28605Z" fill="#C9CAD0"/>
<path d="M51.1344 10.5547L53.291 8.39807L45.0179 0.125001L42.8613 2.28166L51.1344 10.5547Z" fill="#C9CAD0"/>
<path d="M53.2914 2.28654L51.1348 0.129883L42.8617 8.40295L45.0184 10.5596L53.2914 2.28654Z" fill="#C9CAD0"/>
<path d="M72.566 10.5547L74.7227 8.39807L66.4496 0.125001L64.2929 2.28165L72.566 10.5547Z" fill="#C9CAD0"/>
<path d="M74.7211 2.28531L72.5645 0.128662L64.2914 8.40173L66.448 10.5584L74.7211 2.28531Z" fill="#C9CAD0"/>
<path d="M93.9996 10.5547L96.1562 8.39807L87.8832 0.125001L85.7265 2.28165L93.9996 10.5547Z" fill="#C9CAD0"/>
<path d="M96.1527 2.28495L93.9961 0.128296L85.723 8.40137L87.8797 10.558L96.1527 2.28495Z" fill="#C9CAD0"/>
<path d="M8.27303 31.9893L10.4297 29.8326L2.15662 21.5596L-3.47586e-05 23.7162L8.27303 31.9893Z" fill="#C9CAD0"/>
<path d="M10.4301 23.724L8.27344 21.5674L0.00036996 29.8405L2.15702 31.9971L10.4301 23.724Z" fill="#C9CAD0"/>
<path d="M29.7047 31.9893L31.8613 29.8326L23.5883 21.5596L21.4316 23.7162L29.7047 31.9893Z" fill="#C9CAD0"/>
<path d="M31.8598 23.7244L29.7031 21.5677L21.4301 29.8408L23.5867 31.9975L31.8598 23.7244Z" fill="#C9CAD0"/>
<path d="M51.1344 31.9893L53.291 29.8326L45.0179 21.5596L42.8613 23.7162L51.1344 31.9893Z" fill="#C9CAD0"/>
<path d="M53.2914 23.7264L51.1348 21.5697L42.8617 29.8428L45.0184 31.9994L53.2914 23.7264Z" fill="#C9CAD0"/>
<path d="M72.568 31.9893L74.7246 29.8326L66.4515 21.5596L64.2949 23.7162L72.568 31.9893Z" fill="#C9CAD0"/>
<path d="M74.7211 23.7251L72.5645 21.5685L64.2914 29.8415L66.448 31.9982L74.7211 23.7251Z" fill="#C9CAD0"/>
<path d="M94.0016 31.9893L96.1582 29.8326L87.8851 21.5596L85.7285 23.7162L94.0016 31.9893Z" fill="#C9CAD0"/>
<path d="M96.1547 23.7255L93.998 21.5688L85.725 29.8419L87.8816 31.9986L96.1547 23.7255Z" fill="#C9CAD0"/>
<path d="M8.27303 53.4291L10.4297 51.2725L2.15662 42.9994L-3.47586e-05 45.156L8.27303 53.4291Z" fill="#C9CAD0"/>
<path d="M10.4301 45.1639L8.27344 43.0072L0.00036996 51.2803L2.15702 53.4369L10.4301 45.1639Z" fill="#C9CAD0"/>
<path d="M29.7047 53.4291L31.8613 51.2725L23.5883 42.9994L21.4316 45.156L29.7047 53.4291Z" fill="#C9CAD0"/>
<path d="M31.8598 45.1642L29.7031 43.0076L21.4301 51.2806L23.5867 53.4373L31.8598 45.1642Z" fill="#C9CAD0"/>
<path d="M51.1344 53.4291L53.291 51.2725L45.0179 42.9994L42.8613 45.1561L51.1344 53.4291Z" fill="#C9CAD0"/>
<path d="M53.2914 45.1662L51.1348 43.0095L42.8617 51.2826L45.0184 53.4392L53.2914 45.1662Z" fill="#C9CAD0"/>
<path d="M72.568 53.4291L74.7246 51.2725L66.4515 42.9994L64.2949 45.156L72.568 53.4291Z" fill="#C9CAD0"/>
<path d="M74.7211 45.165L72.5645 43.0083L64.2914 51.2814L66.448 53.438L74.7211 45.165Z" fill="#C9CAD0"/>
<path d="M94.0016 53.4291L96.1582 51.2725L87.8851 42.9994L85.7285 45.156L94.0016 53.4291Z" fill="#C9CAD0"/>
<path d="M96.1547 45.1653L93.998 43.0087L85.725 51.2817L87.8816 53.4384L96.1547 45.1653Z" fill="#C9CAD0"/>
<path d="M8.27303 73.8689L10.4297 71.7123L2.15662 63.4392L-3.67816e-05 65.5959L8.27303 73.8689Z" fill="#C9CAD0"/>
<path d="M10.4301 65.604L8.27344 63.4474L0.000367937 71.7205L2.15702 73.8771L10.4301 65.604Z" fill="#C9CAD0"/>
<path d="M29.7047 73.8689L31.8613 71.7123L23.5883 63.4392L21.4316 65.5959L29.7047 73.8689Z" fill="#C9CAD0"/>
<path d="M31.8617 65.604L29.7051 63.4474L21.432 71.7205L23.5887 73.8771L31.8617 65.604Z" fill="#C9CAD0"/>
<path d="M51.1344 73.8689L53.291 71.7123L45.0179 63.4392L42.8613 65.5959L51.1344 73.8689Z" fill="#C9CAD0"/>
<path d="M53.2914 65.6043L51.1348 63.4476L42.8617 71.7207L45.0184 73.8774L53.2914 65.6043Z" fill="#C9CAD0"/>
<path d="M72.566 73.8689L74.7227 71.7123L66.4496 63.4392L64.2929 65.5959L72.566 73.8689Z" fill="#C9CAD0"/>
<path d="M74.7211 65.604L72.5645 63.4474L64.2914 71.7205L66.448 73.8771L74.7211 65.604Z" fill="#C9CAD0"/>
<path d="M93.9976 73.8689L96.1543 71.7123L87.8812 63.4392L85.7246 65.5959L93.9976 73.8689Z" fill="#C9CAD0"/>
<path d="M96.1527 65.604L93.9961 63.4474L85.723 71.7205L87.8797 73.8771L96.1527 65.604Z" fill="#C9CAD0"/>
<path d="M8.27303 95.307L10.4297 93.1504L2.15662 84.8773L-3.7456e-05 87.034L8.27303 95.307Z" fill="#C9CAD0"/>
<path d="M10.432 87.0387L8.27539 84.8821L0.00232039 93.1552L2.15898 95.3118L10.432 87.0387Z" fill="#C9CAD0"/>
<path d="M29.7047 95.307L31.8613 93.1504L23.5883 84.8773L21.4316 87.034L29.7047 95.307Z" fill="#C9CAD0"/>
<path d="M31.8617 87.0384L29.7051 84.8817L21.432 93.1548L23.5887 95.3114L31.8617 87.0384Z" fill="#C9CAD0"/>
<path d="M51.1344 95.307L53.291 93.1504L45.0179 84.8773L42.8613 87.034L51.1344 95.307Z" fill="#C9CAD0"/>
<path d="M53.2914 87.0389L51.1348 84.8822L42.8617 93.1553L45.0184 95.3119L53.2914 87.0389Z" fill="#C9CAD0"/>
<path d="M72.566 95.307L74.7227 93.1504L66.4496 84.8773L64.2929 87.034L72.566 95.307Z" fill="#C9CAD0"/>
<path d="M74.7211 87.0376L72.5645 84.881L64.2914 93.1541L66.448 95.3107L74.7211 87.0376Z" fill="#C9CAD0"/>
<path d="M93.9996 95.307L96.1562 93.1504L87.8832 84.8773L85.7265 87.034L93.9996 95.307Z" fill="#C9CAD0"/>
<path d="M96.1527 87.0373L93.9961 84.8806L85.723 93.1537L87.8797 95.3103L96.1527 87.0373Z" fill="#C9CAD0"/>
<path d="M8.27303 116.742L10.4297 114.585L2.15662 106.312L-3.47586e-05 108.469L8.27303 116.742Z" fill="#C9CAD0"/>
<path d="M10.4301 108.476L8.27344 106.32L0.00036996 114.593L2.15702 116.749L10.4301 108.476Z" fill="#C9CAD0"/>
<path d="M29.7047 116.742L31.8613 114.585L23.5883 106.312L21.4316 108.469L29.7047 116.742Z" fill="#C9CAD0"/>
<path d="M31.8598 108.477L29.7031 106.32L21.4301 114.593L23.5867 116.75L31.8598 108.477Z" fill="#C9CAD0"/>
<path d="M51.1344 116.742L53.291 114.585L45.0179 106.312L42.8613 108.469L51.1344 116.742Z" fill="#C9CAD0"/>
<path d="M53.2914 108.479L51.1348 106.322L42.8617 114.595L45.0184 116.752L53.2914 108.479Z" fill="#C9CAD0"/>
<path d="M72.568 116.742L74.7246 114.585L66.4515 106.312L64.2949 108.469L72.568 116.742Z" fill="#C9CAD0"/>
<path d="M74.7211 108.477L72.5645 106.321L64.2914 114.594L66.448 116.751L74.7211 108.477Z" fill="#C9CAD0"/>
<path d="M94.0016 116.742L96.1582 114.585L87.8851 106.312L85.7285 108.469L94.0016 116.742Z" fill="#C9CAD0"/>
<path d="M96.1547 108.478L93.998 106.321L85.725 114.594L87.8816 116.751L96.1547 108.478Z" fill="#C9CAD0"/>
<path d="M8.27303 138.181L10.4297 136.025L2.15662 127.752L-3.47586e-05 129.908L8.27303 138.181Z" fill="#C9CAD0"/>
<path d="M10.4301 129.916L8.27344 127.76L0.00036996 136.033L2.15702 138.189L10.4301 129.916Z" fill="#C9CAD0"/>
<path d="M29.7047 138.181L31.8613 136.025L23.5883 127.752L21.4316 129.908L29.7047 138.181Z" fill="#C9CAD0"/>
<path d="M31.8598 129.917L29.7031 127.76L21.4301 136.033L23.5867 138.19L31.8598 129.917Z" fill="#C9CAD0"/>
<path d="M51.1344 138.181L53.291 136.025L45.0179 127.752L42.8613 129.908L51.1344 138.181Z" fill="#C9CAD0"/>
<path d="M53.2914 129.918L51.1348 127.762L42.8617 136.035L45.0184 138.192L53.2914 129.918Z" fill="#C9CAD0"/>
<path d="M72.568 138.181L74.7246 136.025L66.4515 127.752L64.2949 129.908L72.568 138.181Z" fill="#C9CAD0"/>
<path d="M74.7211 129.917L72.5645 127.761L64.2914 136.034L66.448 138.19L74.7211 129.917Z" fill="#C9CAD0"/>
<path d="M94.0016 138.181L96.1582 136.025L87.8851 127.752L85.7285 129.908L94.0016 138.181Z" fill="#C9CAD0"/>
<path d="M96.1547 129.918L93.998 127.761L85.725 136.034L87.8816 138.191L96.1547 129.918Z" fill="#C9CAD0"/>
<path d="M8.27303 159.621L10.4297 157.465L2.15662 149.192L-3.47586e-05 151.348L8.27303 159.621Z" fill="#C9CAD0"/>
<path d="M10.4301 151.356L8.27344 149.199L0.00036996 157.473L2.15702 159.629L10.4301 151.356Z" fill="#C9CAD0"/>
<path d="M29.7047 159.621L31.8613 157.465L23.5883 149.192L21.4316 151.348L29.7047 159.621Z" fill="#C9CAD0"/>
<path d="M31.8598 151.357L29.7031 149.2L21.4301 157.473L23.5867 159.63L31.8598 151.357Z" fill="#C9CAD0"/>
<path d="M51.1344 159.621L53.291 157.465L45.0179 149.192L42.8613 151.348L51.1344 159.621Z" fill="#C9CAD0"/>
<path d="M53.2914 151.358L51.1348 149.202L42.8617 157.475L45.0184 159.631L53.2914 151.358Z" fill="#C9CAD0"/>
<path d="M72.568 159.621L74.7246 157.465L66.4515 149.192L64.2949 151.348L72.568 159.621Z" fill="#C9CAD0"/>
<path d="M74.7211 151.357L72.5645 149.2L64.2914 157.474L66.448 159.63L74.7211 151.357Z" fill="#C9CAD0"/>
<path d="M94.0016 159.621L96.1582 157.465L87.8851 149.192L85.7285 151.348L94.0016 159.621Z" fill="#C9CAD0"/>
<path d="M96.1547 151.358L93.998 149.201L85.725 157.474L87.8816 159.631L96.1547 151.358Z" fill="#C9CAD0"/>
<path d="M8.27303 181.061L10.4297 178.904L2.15662 170.631L-3.47586e-05 172.788L8.27303 181.061Z" fill="#C9CAD0"/>
<path d="M10.4301 172.796L8.27344 170.639L0.00036996 178.912L2.15702 181.069L10.4301 172.796Z" fill="#C9CAD0"/>
<path d="M29.7047 181.061L31.8613 178.904L23.5883 170.631L21.4316 172.788L29.7047 181.061Z" fill="#C9CAD0"/>
<path d="M31.8598 172.796L29.7031 170.64L21.4301 178.913L23.5867 181.069L31.8598 172.796Z" fill="#C9CAD0"/>
<path d="M51.1344 181.061L53.291 178.904L45.0179 170.631L42.8613 172.788L51.1344 181.061Z" fill="#C9CAD0"/>
<path d="M53.2914 172.798L51.1348 170.641L42.8617 178.914L45.0184 181.071L53.2914 172.798Z" fill="#C9CAD0"/>
<path d="M72.568 181.061L74.7246 178.904L66.4515 170.631L64.2949 172.788L72.568 181.061Z" fill="#C9CAD0"/>
<path d="M74.7211 172.797L72.5645 170.64L64.2914 178.913L66.448 181.07L74.7211 172.797Z" fill="#C9CAD0"/>
<path d="M94.0016 181.061L96.1582 178.904L87.8851 170.631L85.7285 172.788L94.0016 181.061Z" fill="#C9CAD0"/>
<path d="M96.1547 172.797L93.998 170.641L85.725 178.914L87.8816 181.07L96.1547 172.797Z" fill="#C9CAD0"/>
<path d="M114.431 10.5547L116.588 8.39807L108.315 0.125004L106.158 2.28166L114.431 10.5547Z" fill="#C9CAD0"/>
<path d="M116.588 2.28947L114.432 0.132812L106.159 8.40588L108.315 10.5625L116.588 2.28947Z" fill="#C9CAD0"/>
<path d="M135.863 10.5547L138.02 8.39807L129.746 0.125004L127.59 2.28166L135.863 10.5547Z" fill="#C9CAD0"/>
<path d="M138.018 2.28983L135.861 0.133179L127.588 8.40625L129.745 10.5629L138.018 2.28983Z" fill="#C9CAD0"/>
<path d="M157.293 10.5547L159.449 8.39807L151.176 0.125004L149.019 2.28166L157.293 10.5547Z" fill="#C9CAD0"/>
<path d="M159.45 2.29179L157.293 0.135132L149.02 8.4082L151.177 10.5649L159.45 2.29179Z" fill="#C9CAD0"/>
<path d="M178.726 10.5547L180.883 8.39807L172.61 0.125004L170.453 2.28166L178.726 10.5547Z" fill="#C9CAD0"/>
<path d="M180.879 2.29056L178.723 0.133911L170.45 8.40698L172.606 10.5636L180.879 2.29056Z" fill="#C9CAD0"/>
<path d="M200.16 10.5547L202.316 8.39807L194.043 0.125004L191.887 2.28166L200.16 10.5547Z" fill="#C9CAD0"/>
<path d="M202.313 2.29093L200.156 0.134277L191.883 8.40734L194.04 10.564L202.313 2.29093Z" fill="#C9CAD0"/>
<path d="M114.431 31.9945L116.588 29.8379L108.315 21.5648L106.158 23.7215L114.431 31.9945Z" fill="#C9CAD0"/>
<path d="M116.588 23.7293L114.432 21.5726L106.159 29.8457L108.315 32.0024L116.588 23.7293Z" fill="#C9CAD0"/>
<path d="M135.863 31.9945L138.02 29.8379L129.746 21.5648L127.59 23.7215L135.863 31.9945Z" fill="#C9CAD0"/>
<path d="M138.018 23.7297L135.861 21.573L127.588 29.8461L129.745 32.0027L138.018 23.7297Z" fill="#C9CAD0"/>
<path d="M157.293 31.9945L159.449 29.8379L151.176 21.5648L149.019 23.7215L157.293 31.9945Z" fill="#C9CAD0"/>
<path d="M159.45 23.7316L157.293 21.575L149.02 29.848L151.177 32.0047L159.45 23.7316Z" fill="#C9CAD0"/>
<path d="M178.726 31.9945L180.883 29.8379L172.61 21.5648L170.453 23.7215L178.726 31.9945Z" fill="#C9CAD0"/>
<path d="M180.879 23.7304L178.723 21.5737L170.45 29.8468L172.606 32.0034L180.879 23.7304Z" fill="#C9CAD0"/>
<path d="M200.16 31.9945L202.316 29.8379L194.043 21.5648L191.887 23.7215L200.16 31.9945Z" fill="#C9CAD0"/>
<path d="M202.313 23.7307L200.156 21.5741L191.883 29.8472L194.04 32.0038L202.313 23.7307Z" fill="#C9CAD0"/>
<path d="M114.431 53.4344L116.588 51.2777L108.315 43.0046L106.158 45.1613L114.431 53.4344Z" fill="#C9CAD0"/>
<path d="M116.59 45.1661L114.434 43.0094L106.161 51.2825L108.317 53.4391L116.59 45.1661Z" fill="#C9CAD0"/>
<path d="M135.863 53.4344L138.02 51.2777L129.746 43.0046L127.59 45.1613L135.863 53.4344Z" fill="#C9CAD0"/>
<path d="M138.02 45.1657L135.863 43.009L127.59 51.2821L129.747 53.4388L138.02 45.1657Z" fill="#C9CAD0"/>
<path d="M157.293 53.4344L159.449 51.2777L151.176 43.0046L149.019 45.1613L157.293 53.4344Z" fill="#C9CAD0"/>
<path d="M159.45 45.1662L157.293 43.0095L149.02 51.2826L151.177 53.4392L159.45 45.1662Z" fill="#C9CAD0"/>
<path d="M178.724 53.4344L180.881 51.2777L172.608 43.0046L170.451 45.1613L178.724 53.4344Z" fill="#C9CAD0"/>
<path d="M180.879 45.165L178.723 43.0083L170.45 51.2814L172.606 53.438L180.879 45.165Z" fill="#C9CAD0"/>
<path d="M200.158 53.4344L202.314 51.2777L194.041 43.0046L191.885 45.1613L200.158 53.4344Z" fill="#C9CAD0"/>
<path d="M202.311 45.1646L200.154 43.0079L191.881 51.281L194.038 53.4377L202.311 45.1646Z" fill="#C9CAD0"/>
<path d="M114.431 73.8689L116.588 71.7123L108.315 63.4392L106.158 65.5959L114.431 73.8689Z" fill="#C9CAD0"/>
<path d="M116.588 65.604L114.432 63.4474L106.159 71.7205L108.315 73.8771L116.588 65.604Z" fill="#C9CAD0"/>
<path d="M135.863 73.8689L138.02 71.7123L129.746 63.4392L127.59 65.5959L135.863 73.8689Z" fill="#C9CAD0"/>
<path d="M138.02 65.604L135.863 63.4474L127.59 71.7205L129.747 73.8771L138.02 65.604Z" fill="#C9CAD0"/>
<path d="M157.293 73.8689L159.449 71.7123L151.176 63.4392L149.019 65.5959L157.293 73.8689Z" fill="#C9CAD0"/>
<path d="M159.45 65.6043L157.293 63.4476L149.02 71.7207L151.177 73.8774L159.45 65.6043Z" fill="#C9CAD0"/>
<path d="M178.724 73.8689L180.881 71.7123L172.608 63.4392L170.451 65.5959L178.724 73.8689Z" fill="#C9CAD0"/>
<path d="M180.879 65.604L178.723 63.4474L170.45 71.7205L172.606 73.8771L180.879 65.604Z" fill="#C9CAD0"/>
<path d="M200.156 73.8689L202.312 71.7123L194.039 63.4392L191.883 65.5959L200.156 73.8689Z" fill="#C9CAD0"/>
<path d="M202.311 65.604L200.154 63.4474L191.881 71.7205L194.038 73.8771L202.311 65.604Z" fill="#C9CAD0"/>
<path d="M114.431 95.307L116.588 93.1504L108.315 84.8773L106.158 87.034L114.431 95.307Z" fill="#C9CAD0"/>
<path d="M116.59 87.0387L114.434 84.8821L106.161 93.1552L108.317 95.3118L116.59 87.0387Z" fill="#C9CAD0"/>
<path d="M135.863 95.307L138.02 93.1504L129.746 84.8773L127.59 87.034L135.863 95.307Z" fill="#C9CAD0"/>
<path d="M138.02 87.0384L135.863 84.8817L127.59 93.1548L129.747 95.3114L138.02 87.0384Z" fill="#C9CAD0"/>
<path d="M157.293 95.307L159.449 93.1504L151.176 84.8773L149.019 87.034L157.293 95.307Z" fill="#C9CAD0"/>
<path d="M159.45 87.0389L157.293 84.8822L149.02 93.1553L151.177 95.3119L159.45 87.0389Z" fill="#C9CAD0"/>
<path d="M178.724 95.307L180.881 93.1504L172.608 84.8773L170.451 87.034L178.724 95.307Z" fill="#C9CAD0"/>
<path d="M180.879 87.0376L178.723 84.881L170.45 93.1541L172.606 95.3107L180.879 87.0376Z" fill="#C9CAD0"/>
<path d="M200.158 95.307L202.314 93.1504L194.041 84.8773L191.885 87.034L200.158 95.307Z" fill="#C9CAD0"/>
<path d="M202.311 87.0373L200.154 84.8806L191.881 93.1537L194.038 95.3103L202.311 87.0373Z" fill="#C9CAD0"/>
<path d="M114.431 116.742L116.588 114.585L108.315 106.312L106.158 108.469L114.431 116.742Z" fill="#C9CAD0"/>
<path d="M116.588 108.476L114.432 106.32L106.159 114.593L108.315 116.749L116.588 108.476Z" fill="#C9CAD0"/>
<path d="M135.863 116.742L138.02 114.585L129.746 106.312L127.59 108.469L135.863 116.742Z" fill="#C9CAD0"/>
<path d="M138.018 108.477L135.861 106.32L127.588 114.593L129.745 116.75L138.018 108.477Z" fill="#C9CAD0"/>
<path d="M157.293 116.742L159.449 114.585L151.176 106.312L149.019 108.469L157.293 116.742Z" fill="#C9CAD0"/>
<path d="M159.45 108.479L157.293 106.322L149.02 114.595L151.177 116.752L159.45 108.479Z" fill="#C9CAD0"/>
<path d="M178.726 116.742L180.883 114.585L172.61 106.312L170.453 108.469L178.726 116.742Z" fill="#C9CAD0"/>
<path d="M180.879 108.477L178.723 106.321L170.45 114.594L172.606 116.751L180.879 108.477Z" fill="#C9CAD0"/>
<path d="M200.16 116.742L202.316 114.585L194.043 106.312L191.887 108.469L200.16 116.742Z" fill="#C9CAD0"/>
<path d="M202.313 108.478L200.156 106.321L191.883 114.594L194.04 116.751L202.313 108.478Z" fill="#C9CAD0"/>
<path d="M114.431 138.181L116.588 136.025L108.315 127.752L106.158 129.908L114.431 138.181Z" fill="#C9CAD0"/>
<path d="M116.588 129.916L114.432 127.76L106.159 136.033L108.315 138.189L116.588 129.916Z" fill="#C9CAD0"/>
<path d="M135.863 138.181L138.02 136.025L129.746 127.752L127.59 129.908L135.863 138.181Z" fill="#C9CAD0"/>
<path d="M138.018 129.917L135.861 127.76L127.588 136.033L129.745 138.19L138.018 129.917Z" fill="#C9CAD0"/>
<path d="M157.293 138.181L159.449 136.025L151.176 127.752L149.019 129.908L157.293 138.181Z" fill="#C9CAD0"/>
<path d="M159.45 129.918L157.293 127.762L149.02 136.035L151.177 138.192L159.45 129.918Z" fill="#C9CAD0"/>
<path d="M178.726 138.181L180.883 136.025L172.61 127.752L170.453 129.908L178.726 138.181Z" fill="#C9CAD0"/>
<path d="M180.879 129.917L178.723 127.761L170.45 136.034L172.606 138.19L180.879 129.917Z" fill="#C9CAD0"/>
<path d="M200.16 138.181L202.316 136.025L194.043 127.752L191.887 129.908L200.16 138.181Z" fill="#C9CAD0"/>
<path d="M202.313 129.918L200.156 127.761L191.883 136.034L194.04 138.191L202.313 129.918Z" fill="#C9CAD0"/>
<path d="M114.431 159.621L116.588 157.465L108.315 149.192L106.158 151.348L114.431 159.621Z" fill="#C9CAD0"/>
<path d="M116.588 151.356L114.432 149.199L106.159 157.473L108.315 159.629L116.588 151.356Z" fill="#C9CAD0"/>
<path d="M135.863 159.621L138.02 157.465L129.746 149.192L127.59 151.348L135.863 159.621Z" fill="#C9CAD0"/>
<path d="M138.018 151.357L135.861 149.2L127.588 157.473L129.745 159.63L138.018 151.357Z" fill="#C9CAD0"/>
<path d="M157.293 159.621L159.449 157.465L151.176 149.192L149.019 151.348L157.293 159.621Z" fill="#C9CAD0"/>
<path d="M159.45 151.358L157.293 149.202L149.02 157.475L151.177 159.631L159.45 151.358Z" fill="#C9CAD0"/>
<path d="M178.726 159.621L180.883 157.465L172.61 149.192L170.453 151.348L178.726 159.621Z" fill="#C9CAD0"/>
<path d="M180.879 151.357L178.723 149.2L170.45 157.474L172.606 159.63L180.879 151.357Z" fill="#C9CAD0"/>
<path d="M200.16 159.621L202.316 157.465L194.043 149.192L191.887 151.348L200.16 159.621Z" fill="#C9CAD0"/>
<path d="M202.313 151.358L200.156 149.201L191.883 157.474L194.04 159.631L202.313 151.358Z" fill="#C9CAD0"/>
<path d="M114.431 181.061L116.588 178.904L108.315 170.631L106.158 172.788L114.431 181.061Z" fill="#C9CAD0"/>
<path d="M116.588 172.796L114.432 170.639L106.159 178.912L108.315 181.069L116.588 172.796Z" fill="#C9CAD0"/>
<path d="M135.863 181.061L138.02 178.904L129.746 170.631L127.59 172.788L135.863 181.061Z" fill="#C9CAD0"/>
<path d="M138.018 172.796L135.861 170.64L127.588 178.913L129.745 181.069L138.018 172.796Z" fill="#C9CAD0"/>
<path d="M157.293 181.061L159.449 178.904L151.176 170.631L149.019 172.788L157.293 181.061Z" fill="#C9CAD0"/>
<path d="M159.45 172.798L157.293 170.641L149.02 178.914L151.177 181.071L159.45 172.798Z" fill="#C9CAD0"/>
<path d="M178.726 181.061L180.883 178.904L172.61 170.631L170.453 172.788L178.726 181.061Z" fill="#C9CAD0"/>
<path d="M180.879 172.797L178.723 170.64L170.45 178.913L172.606 181.07L180.879 172.797Z" fill="#C9CAD0"/>
<path d="M200.16 181.061L202.316 178.904L194.043 170.631L191.887 172.788L200.16 181.061Z" fill="#C9CAD0"/>
<path d="M202.313 172.797L200.156 170.641L191.883 178.914L194.04 181.07L202.313 172.797Z" fill="#C9CAD0"/>
</svg>
