<svg width="430" height="430" viewBox="0 0 430 430" fill="none" xmlns="http://www.w3.org/2000/svg">
<path d="M13.7992 339.873L9.92383 343.754L24.786 358.595L28.6614 354.714L13.7992 339.873Z" fill="#273C7F"/>
<path d="M9.90239 354.816L13.7832 358.691L28.6244 343.829L24.7436 339.954L9.90239 354.816Z" fill="#273C7F"/>
<path d="M13.8363 379.143L9.96094 383.023L24.8231 397.865L28.6985 393.984L13.8363 379.143Z" fill="#273C7F"/>
<path d="M9.93559 394.074L13.8164 397.949L28.6576 383.087L24.7768 379.212L9.93559 394.074Z" fill="#273C7F"/>
<path d="M13.8974 415.819L10.0215 419.699L24.8816 434.542L28.7575 430.662L13.8974 415.819Z" fill="#273C7F"/>
<path d="M10.0079 430.585L13.8887 434.461L28.7299 419.599L24.849 415.723L10.0079 430.585Z" fill="#273C7F"/>
<path d="M13.7406 223.611L9.86523 227.492L24.7274 242.333L28.6028 238.452L13.7406 223.611Z" fill="#273C7F"/>
<path d="M9.95176 238.46L13.832 242.336L28.6753 227.476L24.7951 223.6L9.95176 238.46Z" fill="#273C7F"/>
<path d="M13.7562 262.814L9.88086 266.695L24.743 281.536L28.6184 277.656L13.7562 262.814Z" fill="#273C7F"/>
<path d="M9.83793 277.757L13.7188 281.633L28.5599 266.771L24.6791 262.895L9.83793 277.757Z" fill="#273C7F"/>
<path d="M13.7699 299.354L9.89453 303.234L24.7567 318.076L28.6321 314.195L13.7699 299.354Z" fill="#273C7F"/>
<path d="M9.8809 314.297L13.7617 318.172L28.6029 303.31L24.7221 299.434L9.8809 314.297Z" fill="#273C7F"/>
<path d="M13.6825 107.381L9.80664 111.262L24.6667 126.105L28.5426 122.225L13.6825 107.381Z" fill="#273C7F"/>
<path d="M9.79887 122.203L13.6797 126.078L28.5209 111.216L24.6401 107.34L9.79887 122.203Z" fill="#273C7F"/>
<path d="M13.6898 146.564L9.81445 150.445L24.6766 165.286L28.5519 161.406L13.6898 146.564Z" fill="#273C7F"/>
<path d="M9.77543 161.464L13.6562 165.34L28.4974 150.478L24.6166 146.602L9.77543 161.464Z" fill="#273C7F"/>
<path d="M13.7171 183.08L9.8418 186.961L24.704 201.802L28.5793 197.921L13.7171 183.08Z" fill="#273C7F"/>
<path d="M9.79301 197.976L13.6738 201.852L28.515 186.989L24.6342 183.114L9.79301 197.976Z" fill="#273C7F"/>
<path d="M13.5862 -9.04884L9.71094 -5.16809L24.5731 9.6731L28.4484 5.79234L13.5862 -9.04884Z" fill="#273C7F"/>
<path d="M9.68956 5.87473L13.5703 9.75L28.4115 -5.11219L24.5307 -8.98746L9.68956 5.87473Z" fill="#273C7F"/>
<path d="M13.6747 30.3385L9.79883 34.2188L24.6589 49.062L28.5348 45.1818L13.6747 30.3385Z" fill="#273C7F"/>
<path d="M9.73253 45.1638L13.6133 49.0391L28.4545 34.1769L24.5737 30.3016L9.73253 45.1638Z" fill="#273C7F"/>
<path d="M13.6786 66.8774L9.80273 70.7577L24.6628 85.601L28.5387 81.7207L13.6786 66.8774Z" fill="#273C7F"/>
<path d="M9.79496 81.6559L13.6758 85.5312L28.517 70.6691L24.6362 66.7937L9.79496 81.6559Z" fill="#273C7F"/>
<path d="M55.1253 339.885L51.25 343.765L66.1122 358.607L69.9875 354.726L55.1253 339.885Z" fill="#273C7F"/>
<path d="M51.3346 354.733L55.2148 358.609L70.0581 343.749L66.1779 339.873L51.3346 354.733Z" fill="#273C7F"/>
<path d="M94.1728 339.963L90.2969 343.844L105.157 358.687L109.033 354.807L94.1728 339.963Z" fill="#273C7F"/>
<path d="M90.2207 354.773L94.1016 358.648L108.943 343.786L105.062 339.911L90.2207 354.773Z" fill="#273C7F"/>
<path d="M133.198 339.94L129.322 343.82L144.182 358.663L148.058 354.783L133.198 339.94Z" fill="#273C7F"/>
<path d="M129.314 354.738L133.195 358.613L148.036 343.751L144.156 339.876L129.314 354.738Z" fill="#273C7F"/>
<path d="M172.19 339.811L168.314 343.691L183.177 358.533L187.052 354.652L172.19 339.811Z" fill="#273C7F"/>
<path d="M168.442 354.686L172.322 358.562L187.166 343.702L183.285 339.826L168.442 354.686Z" fill="#273C7F"/>
<path d="M211.241 339.732L207.365 343.613L222.227 358.454L226.103 354.574L211.241 339.732Z" fill="#273C7F"/>
<path d="M207.324 354.671L211.205 358.547L226.046 343.684L222.165 339.809L207.324 354.671Z" fill="#273C7F"/>
<path d="M55.1571 379.268L51.2812 383.148L66.1413 397.992L70.0172 394.111L55.1571 379.268Z" fill="#273C7F"/>
<path d="M51.2325 394.058L55.1133 397.934L69.9545 383.071L66.0737 379.196L51.2325 394.058Z" fill="#273C7F"/>
<path d="M94.1605 379.061L90.2852 382.941L105.147 397.783L109.023 393.902L94.1605 379.061Z" fill="#273C7F"/>
<path d="M90.2442 394.015L94.125 397.89L108.966 383.028L105.085 379.153L90.2442 394.015Z" fill="#273C7F"/>
<path d="M133.188 379.045L129.312 382.926L144.175 397.767L148.05 393.886L133.188 379.045Z" fill="#273C7F"/>
<path d="M129.281 393.999L133.162 397.875L148.003 383.013L144.123 379.137L129.281 393.999Z" fill="#273C7F"/>
<path d="M172.209 379.025L168.334 382.906L183.196 397.747L187.072 393.867L172.209 379.025Z" fill="#273C7F"/>
<path d="M168.314 393.988L172.195 397.863L187.036 383.001L183.156 379.126L168.314 393.988Z" fill="#273C7F"/>
<path d="M211.27 379.029L207.395 382.91L222.257 397.751L226.132 393.871L211.27 379.029Z" fill="#273C7F"/>
<path d="M207.497 393.894L211.377 397.77L226.22 382.909L222.34 379.034L207.497 393.894Z" fill="#273C7F"/>
<path d="M55.1845 415.78L51.3086 419.66L66.1687 434.503L70.0446 430.623L55.1845 415.78Z" fill="#273C7F"/>
<path d="M51.3086 430.562L55.1895 434.437L70.0306 419.575L66.1498 415.7L51.3086 430.562Z" fill="#273C7F"/>
<path d="M94.1839 415.654L90.3086 419.535L105.171 434.376L109.046 430.496L94.1839 415.654Z" fill="#273C7F"/>
<path d="M90.44 430.511L94.3203 434.387L109.164 419.527L105.283 415.651L90.44 430.511Z" fill="#273C7F"/>
<path d="M133.215 415.556L129.34 419.437L144.202 434.278L148.077 430.398L133.215 415.556Z" fill="#273C7F"/>
<path d="M129.299 430.511L133.18 434.386L148.021 419.524L144.14 415.649L129.299 430.511Z" fill="#273C7F"/>
<path d="M172.239 415.541L168.363 419.422L183.225 434.263L187.101 430.382L172.239 415.541Z" fill="#273C7F"/>
<path d="M168.332 430.503L172.213 434.379L187.054 419.516L183.173 415.641L168.332 430.503Z" fill="#273C7F"/>
<path d="M211.276 415.568L207.4 419.449L222.263 434.29L226.138 430.41L211.276 415.568Z" fill="#273C7F"/>
<path d="M207.536 430.433L211.416 434.309L226.259 419.449L222.379 415.573L207.536 430.433Z" fill="#273C7F"/>
<path d="M55.01 223.525L51.1348 227.406L65.997 242.247L69.8722 238.367L55.01 223.525Z" fill="#273C7F"/>
<path d="M51.1153 238.484L54.9961 242.359L69.8373 227.497L65.9565 223.622L51.1153 238.484Z" fill="#273C7F"/>
<path d="M94.0316 223.506L90.1562 227.387L105.018 242.228L108.894 238.347L94.0316 223.506Z" fill="#273C7F"/>
<path d="M90.1485 238.472L94.0293 242.348L108.87 227.485L104.99 223.61L90.1485 238.472Z" fill="#273C7F"/>
<path d="M133.119 223.545L129.244 227.426L144.106 242.267L147.982 238.386L133.119 223.545Z" fill="#273C7F"/>
<path d="M129.329 238.362L133.209 242.238L148.052 227.378L144.172 223.502L129.329 238.362Z" fill="#273C7F"/>
<path d="M172.177 223.612L168.301 227.492L183.161 242.335L187.037 238.455L172.177 223.612Z" fill="#273C7F"/>
<path d="M168.275 238.386L172.156 242.262L186.997 227.4L183.117 223.524L168.275 238.386Z" fill="#273C7F"/>
<path d="M211.143 223.436L207.268 227.316L222.13 242.158L226.005 238.277L211.143 223.436Z" fill="#273C7F"/>
<path d="M207.309 238.363L211.189 242.238L226.031 227.376L222.15 223.501L207.309 238.363Z" fill="#273C7F"/>
<path d="M55.0609 262.853L51.1855 266.734L66.0477 281.575L69.9231 277.695L55.0609 262.853Z" fill="#273C7F"/>
<path d="M51.2779 277.694L55.1582 281.57L70.0015 266.71L66.1212 262.834L51.2779 277.694Z" fill="#273C7F"/>
<path d="M94.0687 262.768L90.1934 266.648L105.056 281.49L108.931 277.609L94.0687 262.768Z" fill="#273C7F"/>
<path d="M90.1817 277.722L94.0625 281.598L108.904 266.735L105.023 262.86L90.1817 277.722Z" fill="#273C7F"/>
<path d="M133.138 262.897L129.262 266.777L144.122 281.621L147.998 277.74L133.138 262.897Z" fill="#273C7F"/>
<path d="M129.262 277.703L133.143 281.578L147.984 266.716L144.103 262.84L129.262 277.703Z" fill="#273C7F"/>
<path d="M172.172 262.775L168.297 266.656L183.159 281.497L187.034 277.616L172.172 262.775Z" fill="#273C7F"/>
<path d="M168.242 277.652L172.123 281.527L186.964 266.665L183.083 262.79L168.242 277.652Z" fill="#273C7F"/>
<path d="M211.178 262.693L207.303 266.574L222.165 281.415L226.04 277.535L211.178 262.693Z" fill="#273C7F"/>
<path d="M207.279 277.636L211.16 281.512L226.001 266.65L222.121 262.774L207.279 277.636Z" fill="#273C7F"/>
<path d="M55.0902 299.373L51.2148 303.254L66.077 318.095L69.9524 314.214L55.0902 299.373Z" fill="#273C7F"/>
<path d="M51.3014 314.218L55.1816 318.094L70.0249 303.233L66.1447 299.358L51.3014 314.218Z" fill="#273C7F"/>
<path d="M94.1395 299.436L90.2637 303.316L105.124 318.16L109 314.279L94.1395 299.436Z" fill="#273C7F"/>
<path d="M90.2482 314.234L94.1289 318.109L108.97 303.247L105.089 299.372L90.2482 314.234Z" fill="#273C7F"/>
<path d="M133.119 299.26L129.244 303.14L144.106 317.982L147.982 314.101L133.119 299.26Z" fill="#273C7F"/>
<path d="M129.285 314.207L133.166 318.082L148.007 303.22L144.126 299.345L129.285 314.207Z" fill="#273C7F"/>
<path d="M172.201 299.295L168.326 303.176L183.188 318.017L187.064 314.136L172.201 299.295Z" fill="#273C7F"/>
<path d="M168.413 314.116L172.293 317.992L187.136 303.132L183.256 299.256L168.413 314.116Z" fill="#273C7F"/>
<path d="M211.203 299.213L207.328 303.094L222.19 317.935L226.066 314.054L211.203 299.213Z" fill="#273C7F"/>
<path d="M207.297 314.156L211.178 318.031L226.019 303.169L222.138 299.294L207.297 314.156Z" fill="#273C7F"/>
<path d="M54.9378 107.248L51.0625 111.129L65.9247 125.97L69.8 122.089L54.9378 107.248Z" fill="#273C7F"/>
<path d="M51.1153 122.148L54.9961 126.023L69.8373 111.161L65.9565 107.286L51.1153 122.148Z" fill="#273C7F"/>
<path d="M94.0023 107.256L90.127 111.137L104.989 125.978L108.864 122.097L94.0023 107.256Z" fill="#273C7F"/>
<path d="M90.2135 122.077L94.0938 125.953L108.937 111.093L105.057 107.217L90.2135 122.077Z" fill="#273C7F"/>
<path d="M133.002 107.178L129.127 111.058L143.989 125.9L147.864 122.019L133.002 107.178Z" fill="#273C7F"/>
<path d="M129.115 122.121L132.996 125.996L147.837 111.134L143.957 107.259L129.115 122.121Z" fill="#273C7F"/>
<path d="M172.024 107.154L168.148 111.035L183.011 125.876L186.886 121.996L172.024 107.154Z" fill="#273C7F"/>
<path d="M168.148 122.105L172.029 125.98L186.87 111.118L182.99 107.243L168.148 122.105Z" fill="#273C7F"/>
<path d="M211.069 107.107L207.193 110.988L222.056 125.829L225.931 121.949L211.069 107.107Z" fill="#273C7F"/>
<path d="M207.297 122.003L211.178 125.879L226.021 111.019L222.141 107.143L207.297 122.003Z" fill="#273C7F"/>
<path d="M54.9496 146.482L51.0742 150.363L65.9364 165.204L69.8117 161.324L54.9496 146.482Z" fill="#273C7F"/>
<path d="M51.0723 161.445L54.9531 165.32L69.7943 150.458L65.9135 146.583L51.0723 161.445Z" fill="#273C7F"/>
<path d="M94.012 146.459L90.1367 150.34L104.999 165.181L108.874 161.3L94.012 146.459Z" fill="#273C7F"/>
<path d="M90.1056 161.386L93.9863 165.262L108.828 150.399L104.947 146.524L90.1056 161.386Z" fill="#273C7F"/>
<path d="M133.057 146.49L129.182 150.371L144.044 165.212L147.919 161.331L133.057 146.49Z" fill="#273C7F"/>
<path d="M129.272 161.315L133.152 165.191L147.996 150.331L144.115 146.455L129.272 161.315Z" fill="#273C7F"/>
<path d="M172.118 146.565L168.242 150.445L183.102 165.289L186.978 161.408L172.118 146.565Z" fill="#273C7F"/>
<path d="M168.176 161.367L172.057 165.242L186.898 150.38L183.017 146.505L168.176 161.367Z" fill="#273C7F"/>
<path d="M211.142 146.538L207.266 150.418L222.126 165.261L226.002 161.381L211.142 146.538Z" fill="#273C7F"/>
<path d="M207.266 161.32L211.146 165.195L225.988 150.333L222.107 146.458L207.266 161.32Z" fill="#273C7F"/>
<path d="M54.9788 183.002L51.1035 186.883L65.9657 201.724L69.841 197.843L54.9788 183.002Z" fill="#273C7F"/>
<path d="M51.0899 197.964L54.9707 201.84L69.8119 186.978L65.931 183.102L51.0899 197.964Z" fill="#273C7F"/>
<path d="M94.0042 182.982L90.1289 186.863L104.991 201.704L108.866 197.824L94.0042 182.982Z" fill="#273C7F"/>
<path d="M90.1271 197.949L94.0078 201.824L108.849 186.962L104.968 183.087L90.1271 197.949Z" fill="#273C7F"/>
<path d="M133.067 182.955L129.191 186.836L144.054 201.677L147.929 197.796L133.067 182.955Z" fill="#273C7F"/>
<path d="M129.296 197.835L133.176 201.711L148.019 186.851L144.139 182.975L129.296 197.835Z" fill="#273C7F"/>
<path d="M172.149 183.077L168.273 186.957L183.134 201.8L187.009 197.92L172.149 183.077Z" fill="#273C7F"/>
<path d="M168.25 197.859L172.131 201.734L186.972 186.872L183.091 182.997L168.25 197.859Z" fill="#273C7F"/>
<path d="M211.11 182.904L207.234 186.785L222.097 201.626L225.972 197.745L211.11 182.904Z" fill="#273C7F"/>
<path d="M207.234 197.851L211.115 201.727L225.956 186.864L222.076 182.989L207.234 197.851Z" fill="#273C7F"/>
<path d="M54.8871 -9.02547L51.0117 -5.14465L65.8739 9.69653L69.7492 5.81572L54.8871 -9.02547Z" fill="#273C7F"/>
<path d="M51.0982 5.79587L54.9785 9.67175L69.8218 -5.18834L65.9415 -9.06422L51.0982 5.79587Z" fill="#273C7F"/>
<path d="M93.9501 -8.96633L90.0742 -5.08606L104.934 9.7572L108.81 5.87693L93.9501 -8.96633Z" fill="#273C7F"/>
<path d="M90.0547 5.83158L93.9355 9.70691L108.777 -5.15525L104.896 -9.03058L90.0547 5.83158Z" fill="#273C7F"/>
<path d="M132.91 -9.11134L129.035 -5.23059L143.897 9.6106L147.773 5.72984L132.91 -9.11134Z" fill="#273C7F"/>
<path d="M129.049 5.83164L132.93 9.70691L147.771 -5.15528L143.89 -9.03055L129.049 5.83164Z" fill="#273C7F"/>
<path d="M171.979 -9.11922L168.104 -5.2384L182.966 9.60278L186.841 5.72197L171.979 -9.11922Z" fill="#273C7F"/>
<path d="M168.066 5.78861L171.947 9.66394L186.788 -5.19825L182.908 -9.07358L168.066 5.78861Z" fill="#273C7F"/>
<path d="M210.971 -9.18953L207.096 -5.30872L221.958 9.53247L225.833 5.65165L210.971 -9.18953Z" fill="#273C7F"/>
<path d="M207.094 5.77689L210.975 9.65222L225.816 -5.20997L221.935 -9.0853L207.094 5.77689Z" fill="#273C7F"/>
<path d="M54.9579 30.3188L51.082 34.1991L65.9421 49.0424L69.818 45.1621L54.9579 30.3188Z" fill="#273C7F"/>
<path d="M51.0508 45.1012L54.9316 48.9766L69.7728 34.1144L65.892 30.239L51.0508 45.1012Z" fill="#273C7F"/>
<path d="M93.9436 30.209L90.0684 34.0897L104.931 48.9309L108.806 45.0502L93.9436 30.209Z" fill="#273C7F"/>
<path d="M90.0431 45.0896L93.9238 48.9648L108.765 34.1027L104.884 30.2274L90.0431 45.0896Z" fill="#273C7F"/>
<path d="M132.94 30.1386L129.064 34.0194L143.927 48.8606L147.802 44.9798L132.94 30.1386Z" fill="#273C7F"/>
<path d="M129.07 45.0816L132.951 48.9569L147.792 34.0947L143.912 30.2194L129.07 45.0816Z" fill="#273C7F"/>
<path d="M171.979 30.0918L168.104 33.9727L182.966 48.8138L186.841 44.933L171.979 30.0918Z" fill="#273C7F"/>
<path d="M168.084 45.0542L171.965 48.9296L186.806 34.0674L182.925 30.192L168.084 45.0542Z" fill="#273C7F"/>
<path d="M211.032 30.1192L207.156 34L222.018 48.8412L225.894 44.9603L211.032 30.1192Z" fill="#273C7F"/>
<path d="M207.119 45.0347L211 48.91L225.841 34.0479L221.96 30.1725L207.119 45.0347Z" fill="#273C7F"/>
<path d="M54.928 66.7052L51.0527 70.5859L65.9149 85.4271L69.7902 81.5464L54.928 66.7052Z" fill="#273C7F"/>
<path d="M51.0685 81.6052L54.9492 85.4805L69.7904 70.6183L65.9097 66.743L51.0685 81.6052Z" fill="#273C7F"/>
<path d="M93.971 66.7247L90.0957 70.6055L104.958 85.4467L108.833 81.5658L93.971 66.7247Z" fill="#273C7F"/>
<path d="M90.0606 81.6089L93.9414 85.4843L108.783 70.6221L104.902 66.7467L90.0606 81.6089Z" fill="#273C7F"/>
<path d="M132.973 66.6581L129.098 70.5389L143.96 85.3801L147.835 81.4993L132.973 66.6581Z" fill="#273C7F"/>
<path d="M129.092 81.6011L132.973 85.4764L147.814 70.6143L143.933 66.7389L129.092 81.6011Z" fill="#273C7F"/>
<path d="M171.991 66.627L168.115 70.5078L182.977 85.349L186.853 81.4682L171.991 66.627Z" fill="#273C7F"/>
<path d="M168.125 81.5894L172.006 85.4647L186.847 70.6025L182.966 66.7272L168.125 81.5894Z" fill="#273C7F"/>
<path d="M211.035 66.5878L207.16 70.4686L222.022 85.3098L225.898 81.429L211.035 66.5878Z" fill="#273C7F"/>
<path d="M207.191 81.5231L211.072 85.3984L225.913 70.5362L222.033 66.6609L207.191 81.5231Z" fill="#273C7F"/>
<path d="M246.401 339.709L242.525 343.59L257.388 358.431L261.263 354.55L246.401 339.709Z" fill="#273C7F"/>
<path d="M242.651 354.605L246.531 358.48L261.375 343.62L257.494 339.744L242.651 354.605Z" fill="#273C7F"/>
<path d="M285.422 339.685L281.547 343.566L296.409 358.407L300.284 354.527L285.422 339.685Z" fill="#273C7F"/>
<path d="M281.518 354.644L285.398 358.52L300.24 343.657L296.359 339.782L281.518 354.644Z" fill="#273C7F"/>
<path d="M324.463 339.724L320.588 343.605L335.45 358.446L339.325 354.566L324.463 339.724Z" fill="#273C7F"/>
<path d="M320.557 354.624L324.438 358.5L339.279 343.638L335.398 339.762L320.557 354.624Z" fill="#273C7F"/>
<path d="M363.487 339.619L359.611 343.5L374.474 358.341L378.349 354.46L363.487 339.619Z" fill="#273C7F"/>
<path d="M359.739 354.53L363.619 358.406L378.462 343.546L374.582 339.67L359.739 354.53Z" fill="#273C7F"/>
<path d="M402.571 339.772L398.695 343.652L413.555 358.496L417.431 354.615L402.571 339.772Z" fill="#273C7F"/>
<path d="M398.67 354.562L402.551 358.438L417.392 343.575L413.511 339.7L398.67 354.562Z" fill="#273C7F"/>
<path d="M246.45 379.033L242.574 382.914L257.436 397.755L261.312 393.874L246.45 379.033Z" fill="#273C7F"/>
<path d="M242.514 393.917L246.395 397.793L261.236 382.931L257.355 379.055L242.514 393.917Z" fill="#273C7F"/>
<path d="M285.453 378.943L281.578 382.824L296.44 397.665L300.316 393.784L285.453 378.943Z" fill="#273C7F"/>
<path d="M281.712 393.843L285.592 397.719L300.435 382.858L296.555 378.983L281.712 393.843Z" fill="#273C7F"/>
<path d="M324.473 378.924L320.598 382.804L335.46 397.646L339.335 393.765L324.473 378.924Z" fill="#273C7F"/>
<path d="M320.582 393.882L324.463 397.758L339.304 382.896L335.423 379.02L320.582 393.882Z" fill="#273C7F"/>
<path d="M363.494 378.892L359.619 382.773L374.481 397.614L378.357 393.734L363.494 378.892Z" fill="#273C7F"/>
<path d="M359.682 393.847L363.562 397.722L378.404 382.86L374.523 378.985L359.682 393.847Z" fill="#273C7F"/>
<path d="M402.539 378.853L398.664 382.734L413.526 397.575L417.402 393.695L402.539 378.853Z" fill="#273C7F"/>
<path d="M398.621 393.836L402.502 397.711L417.343 382.849L413.462 378.973L398.621 393.836Z" fill="#273C7F"/>
<path d="M246.459 415.572L242.584 419.453L257.446 434.294L261.322 430.413L246.459 415.572Z" fill="#273C7F"/>
<path d="M242.555 430.449L246.436 434.324L261.277 419.462L257.396 415.587L242.555 430.449Z" fill="#273C7F"/>
<path d="M285.483 415.467L281.607 419.347L296.47 434.189L300.345 430.308L285.483 415.467Z" fill="#273C7F"/>
<path d="M281.733 430.366L285.613 434.242L300.457 419.382L296.576 415.506L281.733 430.366Z" fill="#273C7F"/>
<path d="M324.558 415.616L320.682 419.496L335.542 434.339L339.418 430.459L324.558 415.616Z" fill="#273C7F"/>
<path d="M320.666 430.39L324.547 434.266L339.388 419.403L335.507 415.528L320.666 430.39Z" fill="#273C7F"/>
<path d="M363.528 415.408L359.652 419.289L374.515 434.13L378.39 430.249L363.528 415.408Z" fill="#273C7F"/>
<path d="M359.703 430.363L363.584 434.238L378.425 419.376L374.544 415.501L359.703 430.363Z" fill="#273C7F"/>
<path d="M402.571 415.373L398.695 419.254L413.558 434.095L417.433 430.214L402.571 415.373Z" fill="#273C7F"/>
<path d="M398.827 430.288L402.707 434.164L417.55 419.304L413.67 415.428L398.827 430.288Z" fill="#273C7F"/>
<path d="M246.368 223.569L242.492 227.449L257.352 242.293L261.228 238.412L246.368 223.569Z" fill="#273C7F"/>
<path d="M242.486 238.355L246.367 242.23L261.208 227.368L257.328 223.493L242.486 238.355Z" fill="#273C7F"/>
<path d="M285.348 223.361L281.473 227.242L296.335 242.083L300.21 238.203L285.348 223.361Z" fill="#273C7F"/>
<path d="M281.49 238.304L285.371 242.18L300.212 227.317L296.332 223.442L281.49 238.304Z" fill="#273C7F"/>
<path d="M324.366 223.334L320.49 227.215L335.352 242.056L339.228 238.175L324.366 223.334Z" fill="#273C7F"/>
<path d="M320.624 238.249L324.504 242.125L339.347 227.265L335.467 223.389L320.624 238.249Z" fill="#273C7F"/>
<path d="M363.393 223.314L359.518 227.195L374.38 242.036L378.255 238.156L363.393 223.314Z" fill="#273C7F"/>
<path d="M359.504 238.3L363.385 242.176L378.226 227.313L374.345 223.438L359.504 238.3Z" fill="#273C7F"/>
<path d="M402.44 223.322L398.564 227.203L413.427 242.044L417.302 238.163L402.44 223.322Z" fill="#273C7F"/>
<path d="M398.559 238.265L402.439 242.141L417.281 227.278L413.4 223.403L398.559 238.265Z" fill="#273C7F"/>
<path d="M246.334 262.662L242.459 266.543L257.321 281.384L261.197 277.503L246.334 262.662Z" fill="#273C7F"/>
<path d="M242.445 277.621L246.326 281.496L261.167 266.634L257.287 262.759L242.445 277.621Z" fill="#273C7F"/>
<path d="M285.36 262.643L281.484 266.523L296.347 281.365L300.222 277.484L285.36 262.643Z" fill="#273C7F"/>
<path d="M281.481 277.605L285.361 281.48L300.203 266.618L296.322 262.743L281.481 277.605Z" fill="#273C7F"/>
<path d="M324.407 262.607L320.531 266.488L335.393 281.329L339.269 277.449L324.407 262.607Z" fill="#273C7F"/>
<path d="M320.494 277.574L324.375 281.449L339.216 266.587L335.335 262.712L320.494 277.574Z" fill="#273C7F"/>
<path d="M363.424 262.588L359.549 266.469L374.411 281.31L378.286 277.429L363.424 262.588Z" fill="#273C7F"/>
<path d="M359.541 277.429L363.422 281.304L378.265 266.442L374.384 262.566L359.541 277.429Z" fill="#273C7F"/>
<path d="M402.516 262.729L398.641 266.609L413.501 281.452L417.376 277.572L402.516 262.729Z" fill="#273C7F"/>
<path d="M398.563 277.554L402.443 281.429L417.285 266.567L413.404 262.692L398.563 277.554Z" fill="#273C7F"/>
<path d="M246.364 299.182L242.488 303.062L257.35 317.904L261.226 314.023L246.364 299.182Z" fill="#273C7F"/>
<path d="M242.62 314.089L246.5 317.965L261.343 303.105L257.463 299.229L242.62 314.089Z" fill="#273C7F"/>
<path d="M285.387 299.166L281.512 303.047L296.374 317.888L300.249 314.007L285.387 299.166Z" fill="#273C7F"/>
<path d="M281.498 314.125L285.379 318L300.22 303.138L296.339 299.262L281.498 314.125Z" fill="#273C7F"/>
<path d="M324.412 299.147L320.537 303.027L335.399 317.869L339.275 313.988L324.412 299.147Z" fill="#273C7F"/>
<path d="M320.531 314.109L324.412 317.984L339.253 303.122L335.372 299.247L320.531 314.109Z" fill="#273C7F"/>
<path d="M363.52 299.268L359.645 303.148L374.505 317.991L378.38 314.111L363.52 299.268Z" fill="#273C7F"/>
<path d="M359.563 313.944L363.443 317.82L378.287 302.958L374.406 299.082L359.563 313.944Z" fill="#273C7F"/>
<path d="M402.546 299.245L398.67 303.125L413.53 317.968L417.406 314.088L402.546 299.245Z" fill="#273C7F"/>
<path d="M398.647 314.043L402.527 317.918L417.369 303.056L413.488 299.18L398.647 314.043Z" fill="#273C7F"/>
<path d="M246.231 107.088L242.355 110.969L257.218 125.81L261.093 121.929L246.231 107.088Z" fill="#273C7F"/>
<path d="M242.33 122.058L246.211 125.934L261.052 111.071L257.171 107.196L242.33 122.058Z" fill="#273C7F"/>
<path d="M285.327 107.214L281.451 111.094L296.311 125.937L300.187 122.057L285.327 107.214Z" fill="#273C7F"/>
<path d="M281.508 121.964L285.389 125.84L300.232 110.98L296.352 107.104L281.508 121.964Z" fill="#273C7F"/>
<path d="M324.368 107.217L320.492 111.098L335.352 125.941L339.228 122.061L324.368 107.217Z" fill="#273C7F"/>
<path d="M320.477 121.984L324.357 125.859L339.199 110.997L335.318 107.122L320.477 121.984Z" fill="#273C7F"/>
<path d="M363.338 107.017L359.463 110.898L374.325 125.74L378.2 121.859L363.338 107.017Z" fill="#273C7F"/>
<path d="M359.434 121.972L363.314 125.848L378.156 110.985L374.275 107.11L359.434 121.972Z" fill="#273C7F"/>
<path d="M402.393 107.049L398.518 110.93L413.38 125.771L417.255 121.89L402.393 107.049Z" fill="#273C7F"/>
<path d="M398.626 121.87L402.506 125.746L417.349 110.886L413.469 107.01L398.626 121.87Z" fill="#273C7F"/>
<path d="M246.262 146.346L242.387 150.226L257.249 165.068L261.124 161.187L246.262 146.346Z" fill="#273C7F"/>
<path d="M242.361 161.304L246.242 165.18L261.083 150.317L257.203 146.442L242.361 161.304Z" fill="#273C7F"/>
<path d="M285.354 146.475L281.479 150.355L296.339 165.199L300.214 161.318L285.354 146.475Z" fill="#273C7F"/>
<path d="M281.447 161.277L285.328 165.152L300.169 150.29L296.288 146.415L281.447 161.277Z" fill="#273C7F"/>
<path d="M324.307 146.295L320.432 150.176L335.294 165.017L339.169 161.136L324.307 146.295Z" fill="#273C7F"/>
<path d="M320.575 161.206L324.455 165.082L339.298 150.222L335.418 146.346L320.575 161.206Z" fill="#273C7F"/>
<path d="M363.35 146.295L359.475 150.176L374.337 165.017L378.212 161.136L363.35 146.295Z" fill="#273C7F"/>
<path d="M359.479 161.246L363.359 165.121L378.201 150.259L374.32 146.383L359.479 161.246Z" fill="#273C7F"/>
<path d="M402.391 146.248L398.516 150.129L413.378 164.97L417.253 161.089L402.391 146.248Z" fill="#273C7F"/>
<path d="M398.484 161.21L402.365 165.086L417.206 150.224L413.326 146.348L398.484 161.21Z" fill="#273C7F"/>
<path d="M246.335 183.038L242.459 186.918L257.319 201.761L261.195 197.881L246.335 183.038Z" fill="#273C7F"/>
<path d="M242.451 197.832L246.332 201.707L261.173 186.845L257.292 182.969L242.451 197.832Z" fill="#273C7F"/>
<path d="M285.315 182.838L281.439 186.719L296.302 201.56L300.177 197.679L285.315 182.838Z" fill="#273C7F"/>
<path d="M281.467 197.789L285.348 201.664L300.189 186.802L296.308 182.926L281.467 197.789Z" fill="#273C7F"/>
<path d="M324.364 182.877L320.488 186.758L335.35 201.599L339.226 197.718L324.364 182.877Z" fill="#273C7F"/>
<path d="M320.598 197.726L324.479 201.602L339.322 186.741L335.442 182.866L320.598 197.726Z" fill="#273C7F"/>
<path d="M363.379 182.81L359.504 186.691L374.366 201.532L378.241 197.652L363.379 182.81Z" fill="#273C7F"/>
<path d="M359.498 197.757L363.379 201.633L378.22 186.771L374.339 182.895L359.498 197.757Z" fill="#273C7F"/>
<path d="M402.403 182.787L398.527 186.668L413.39 201.509L417.265 197.628L402.403 182.787Z" fill="#273C7F"/>
<path d="M398.525 197.75L402.406 201.625L417.247 186.763L413.367 182.887L398.525 197.75Z" fill="#273C7F"/>
<path d="M246.186 -9.14254L242.311 -5.26172L257.173 9.57947L261.048 5.69865L246.186 -9.14254Z" fill="#273C7F"/>
<path d="M242.419 5.66306L246.299 9.53894L261.142 -5.32115L257.262 -9.19703L242.419 5.66306Z" fill="#273C7F"/>
<path d="M285.176 -9.21681L281.301 -5.33606L296.163 9.50513L300.038 5.62438L285.176 -9.21681Z" fill="#273C7F"/>
<path d="M281.317 5.7302L285.197 9.60547L300.038 -5.25672L296.158 -9.13199L281.317 5.7302Z" fill="#273C7F"/>
<path d="M324.219 -9.26375L320.344 -5.38293L335.206 9.45825L339.081 5.57744L324.219 -9.26375Z" fill="#273C7F"/>
<path d="M320.33 5.69095L324.211 9.56628L339.052 -5.29591L335.171 -9.17124L320.33 5.69095Z" fill="#273C7F"/>
<path d="M363.241 -9.28719L359.365 -5.40637L374.227 9.43481L378.103 5.554L363.241 -9.28719Z" fill="#273C7F"/>
<path d="M359.357 5.67923L363.238 9.55457L378.079 -5.30762L374.199 -9.18296L359.357 5.67923Z" fill="#273C7F"/>
<path d="M402.268 -9.30647L398.393 -5.42578L413.255 9.41541L417.13 5.53472L402.268 -9.30647Z" fill="#273C7F"/>
<path d="M398.451 5.6248L402.332 9.5L417.173 -5.36219L413.293 -9.23739L398.451 5.6248Z" fill="#273C7F"/>
<path d="M246.166 30.041L242.291 33.9218L257.153 48.7629L261.028 44.8822L246.166 30.041Z" fill="#273C7F"/>
<path d="M242.287 45.0115L246.168 48.8867L261.009 34.0245L257.128 30.1493L242.287 45.0115Z" fill="#273C7F"/>
<path d="M285.239 30.0995L281.363 33.9803L296.225 48.8215L300.101 44.9407L285.239 30.0995Z" fill="#273C7F"/>
<path d="M281.473 44.9054L285.354 48.7812L300.197 33.9212L296.317 30.0453L281.473 44.9054Z" fill="#273C7F"/>
<path d="M324.337 30.1431L320.461 34.0233L335.321 48.8666L339.197 44.9864L324.337 30.1431Z" fill="#273C7F"/>
<path d="M320.356 44.9527L324.236 48.828L339.078 33.9658L335.197 30.0905L320.356 44.9527Z" fill="#273C7F"/>
<path d="M363.276 29.967L359.4 33.8477L374.263 48.6888L378.138 44.8082L363.276 29.967Z" fill="#273C7F"/>
<path d="M359.451 44.8942L363.332 48.7694L378.173 33.9072L374.293 30.032L359.451 44.8942Z" fill="#273C7F"/>
<path d="M402.33 30.002L398.455 33.8828L413.317 48.724L417.193 44.8432L402.33 30.002Z" fill="#273C7F"/>
<path d="M398.573 44.8233L402.453 48.6992L417.296 33.8391L413.416 29.9632L398.573 44.8233Z" fill="#273C7F"/>
<path d="M246.2 66.5605L242.324 70.4413L257.186 85.2825L261.062 81.4017L246.2 66.5605Z" fill="#273C7F"/>
<path d="M242.309 81.5309L246.189 85.4062L261.031 70.5441L257.15 66.6687L242.309 81.5309Z" fill="#273C7F"/>
<path d="M285.243 66.5528L281.367 70.4336L296.229 85.2748L300.105 81.394L285.243 66.5528Z" fill="#273C7F"/>
<path d="M281.499 81.4171L285.379 85.293L300.222 70.4329L296.342 66.557L281.499 81.4171Z" fill="#273C7F"/>
<path d="M324.341 66.6862L320.465 70.5664L335.325 85.4097L339.201 81.5295L324.341 66.6862Z" fill="#273C7F"/>
<path d="M320.451 81.4607L324.332 85.3359L339.173 70.4737L335.292 66.5985L320.451 81.4607Z" fill="#273C7F"/>
<path d="M363.305 66.4902L359.43 70.371L374.292 85.2122L378.167 81.3313L363.305 66.4902Z" fill="#273C7F"/>
<path d="M359.416 81.4449L363.297 85.3202L378.138 70.458L374.257 66.5827L359.416 81.4449Z" fill="#273C7F"/>
<path d="M402.36 66.5215L398.484 70.4023L413.347 85.2435L417.222 81.3627L402.36 66.5215Z" fill="#273C7F"/>
<path d="M398.594 81.3429L402.475 85.2188L417.318 70.3587L413.438 66.4828L398.594 81.3429Z" fill="#273C7F"/>
</svg>
