<svg width="325" height="192" viewBox="0 0 325 192" fill="none" xmlns="http://www.w3.org/2000/svg">
<path opacity="0.1" d="M63.821 59.8135C59.424 59.918 33.5307 60.963 15.1286 81.5485C-4.84783 103.911 0.200554 131.341 1.61193 137.871C8.50595 168.854 36.1906 184.058 49.0558 189.544C52.91 191.216 57.0355 192 61.2696 192C132.055 191.634 202.841 191.321 273.627 190.955C278.078 190.955 282.421 190.015 286.384 188.134C297.241 183.066 317.38 170.631 323.351 146.545C324.437 142.156 329.214 120.682 315.046 100.462C298.489 76.8985 270.262 75.1743 267.113 75.0698C270.044 43.042 250.394 13.4699 220.592 3.5428C194.753 -5.07806 165.223 2.3411 145.789 22.4564C142.641 20.7323 123.262 10.544 100.734 17.8586C81.7346 23.9194 67.6208 40.0639 63.821 59.8135Z" fill="#273C7F"/>
</svg>
