<svg width="375" height="229" viewBox="0 0 375 229" fill="none" xmlns="http://www.w3.org/2000/svg">
<g opacity="0.4" clip-path="url(#clip0_6134_13773)">
<path d="M375 0H-1.0166V229H375V0Z" fill="#EEF8FF"/>
<g opacity="0.3">
<mask id="mask0_6134_13773" style="mask-type:luminance" maskUnits="userSpaceOnUse" x="-6" y="0" width="381" height="229">
<path d="M-4.0496 0H373.969C374.539 0 375 0.444989 375 0.995929V228.004C375 228.555 374.539 229 373.969 229H-4.0496C-4.62019 229 -5.08105 228.555 -5.08105 228.004V0.995929C-5.05911 0.444989 -4.59825 0 -4.0496 0Z" fill="white"/>
</mask>
<g mask="url(#mask0_6134_13773)">
<path d="M126.245 -67.5172C164.343 -55.7267 194.497 -11.2833 202.134 41.5296C210.408 98.7716 201.432 164.2 298.718 164.078C436.253 163.894 316.384 471.761 416.524 459.237" stroke="#00BBFF" stroke-width="0.5" stroke-miterlimit="10"/>
<path d="M123.15 -64.3405C158.11 -49.3122 187.606 -4.19674 197.284 46.5391C207.774 101.521 208.52 161.237 297.796 169.942C423.963 182.222 325.053 468.706 414.592 467.118" stroke="#00ADEB" stroke-width="0.5" stroke-miterlimit="10"/>
<path d="M120.057 -61.1638C151.856 -42.8672 180.715 2.92033 192.434 51.518C205.119 104.209 215.763 158.304 296.897 175.746C412.025 200.518 333.744 465.621 412.662 474.938" stroke="#009ED8" stroke-width="0.5" stroke-miterlimit="10"/>
<path d="M116.984 -57.9871C145.624 -36.422 173.846 9.97633 187.606 56.4969C202.508 106.927 223.225 155.494 295.997 181.58C400.372 219.029 342.413 462.536 410.752 482.788" stroke="#0090C4" stroke-width="0.5" stroke-miterlimit="10"/>
<path d="M113.889 -54.8104C139.368 -30.0076 166.954 17.0934 182.755 61.4758C199.873 109.615 230.882 152.959 295.096 187.414C389.134 237.875 351.102 459.451 408.842 490.669" stroke="#0081B1" stroke-width="0.5" stroke-miterlimit="10"/>
<path d="M110.795 -51.6336C133.114 -23.5625 160.085 24.1799 177.906 66.4547C197.24 112.303 238.696 150.913 294.175 193.248C378.184 257.363 359.749 456.366 406.911 498.488" stroke="#00739D" stroke-width="0.5" stroke-miterlimit="10"/>
<path d="M107.723 -48.4264C126.881 -17.1174 153.217 31.297 173.078 71.4641C194.628 115.052 246.574 149.538 293.275 199.083C367.409 277.706 368.44 453.311 404.98 506.369" stroke="#006589" stroke-width="0.5" stroke-miterlimit="10"/>
<path d="M104.629 -45.2497C120.627 -10.6723 146.326 38.3529 168.228 76.4735C191.974 117.771 254.256 148.897 292.376 204.947C356.436 299.119 377.131 450.257 403.049 514.249" stroke="#005676" stroke-width="0.5" stroke-miterlimit="10"/>
<path d="M101.534 -42.073C114.373 -4.25786 139.435 45.47 163.378 81.4524C189.34 120.459 261.542 148.744 291.454 210.781C344.805 321.417 385.778 447.172 401.118 522.1" stroke="#004862" stroke-width="0.5" stroke-miterlimit="10"/>
<path d="M98.4619 -38.8962C108.14 2.1873 132.566 52.5566 158.55 86.4314C186.728 123.177 268.389 148.774 290.576 216.585C332.274 344.112 394.49 444.087 399.209 529.919" stroke="#263474" stroke-miterlimit="10"/>
<path d="M95.3672 -35.7195C101.885 8.6323 125.674 59.643 153.699 91.4102C184.094 125.865 274.775 148.652 289.654 222.419C318.776 366.654 403.137 441.002 397.277 537.769" stroke="#263474" stroke-miterlimit="10"/>
<path d="M92.2734 -32.5122C95.6531 15.0774 118.784 66.7601 148.85 96.4197C181.462 128.584 280.855 148.194 288.755 228.284C304.578 388.647 411.828 437.947 395.346 545.65" stroke="#263474" stroke-miterlimit="10"/>
<path d="M89.1777 -29.3356C89.3972 21.5224 111.892 73.8466 144.021 101.429C178.849 131.333 286.779 147.247 287.876 234.149C290.049 409.907 420.539 434.893 393.458 553.531" stroke="#263474" stroke-miterlimit="10"/>
<path d="M86.106 -26.1588C83.1653 27.937 105.023 80.9332 139.193 106.408C176.216 134.021 292.683 145.873 286.955 239.952C275.368 430.403 429.186 431.808 391.527 561.35" stroke="#263474" stroke-miterlimit="10"/>
<g opacity="0.4">
<path d="M400.459 615.171C365.257 591.713 343.136 538.93 344.277 485.109C345.528 426.707 364.928 365.799 270.122 335.376C136.164 292.338 302.975 30.1058 203.406 10.8317" stroke="#000DFF" stroke-width="0.5" stroke-miterlimit="10"/>
<path d="M402.521 613.155C370.918 587.528 349.521 534.318 348.358 481.872C347.085 425.027 356.083 366.593 270.516 330.092C149.594 278.501 292.55 30.5028 205.073 3.89783" stroke="#1420FF" stroke-width="0.5" stroke-miterlimit="10"/>
<path d="M404.584 611.17C376.581 583.343 355.908 529.705 352.419 478.664C348.622 423.346 347.064 367.326 270.868 324.807C162.784 264.541 282.126 30.8999 206.764 -3.00546" stroke="#2732FF" stroke-width="0.5" stroke-miterlimit="10"/>
<path d="M406.625 609.184C382.243 579.189 362.294 525.093 356.457 475.487C350.136 421.697 337.869 367.876 271.219 319.584C175.644 250.338 271.702 31.3275 208.432 -9.90869" stroke="#3B45FF" stroke-width="0.5" stroke-miterlimit="10"/>
<path d="M408.688 607.199C387.905 575.035 368.681 520.511 360.517 472.28C351.673 420.017 328.52 368.06 271.57 314.3C188.198 235.615 261.277 31.7246 210.1 -16.8119" stroke="#4E57FF" stroke-width="0.5" stroke-miterlimit="10"/>
<path d="M410.73 605.214C393.547 570.881 375.068 515.899 364.578 469.073C353.21 418.337 319.106 367.723 271.944 309.046C200.554 220.22 250.854 32.1217 211.812 -23.7152" stroke="#626AFF" stroke-width="0.5" stroke-miterlimit="10"/>
<path d="M412.791 603.228C399.229 566.696 381.453 511.287 368.636 465.896C354.744 416.688 309.755 366.746 272.294 303.792C212.864 203.909 240.428 32.5494 213.479 -30.6184" stroke="#767DFF" stroke-width="0.5" stroke-miterlimit="10"/>
<path d="M414.854 601.243C404.89 562.542 387.838 506.674 372.696 462.689C356.28 415.008 300.669 365.127 272.666 298.538C225.592 186.651 230.003 32.9464 215.168 -37.5217" stroke="#898FFF" stroke-width="0.5" stroke-miterlimit="10"/>
<path d="M416.895 599.257C410.531 558.388 394.225 502.093 376.734 459.512C357.773 413.358 292.045 363.111 272.996 293.284C239.024 168.721 219.58 33.3741 216.814 -44.4249" stroke="#9DA2FF" stroke-width="0.5" stroke-miterlimit="10"/>
<path d="M418.959 597.272C416.194 554.203 400.613 497.48 380.817 456.305C359.354 411.678 283.97 361.034 273.392 288.031C253.509 150.668 209.178 33.7712 218.527 -51.3282" stroke="#B1B5FF" stroke-width="0.5" stroke-miterlimit="10"/>
<path d="M420.999 595.256C421.855 550.018 406.998 492.837 384.854 453.067C360.845 409.968 276.244 359.232 273.72 282.716C268.826 133.013 198.731 34.1377 220.194 -58.2619" stroke="#C4C7FF" stroke-width="0.5" stroke-miterlimit="10"/>
<path d="M423.063 593.27C427.518 545.864 413.385 488.255 388.915 449.89C362.383 408.288 268.762 357.98 274.094 277.493C284.76 116.274 188.308 34.5959 221.885 -65.1347" stroke="#D8DAFF" stroke-width="0.5" stroke-miterlimit="10"/>
<path d="M425.104 591.285C433.158 541.679 419.749 483.643 392.953 446.683C363.897 406.638 261.343 357.185 274.423 272.239C300.912 100.329 177.883 34.993 223.531 -72.0379" stroke="#EBECFF" stroke-width="0.5" stroke-miterlimit="10"/>
<path d="M427.167 589.299C438.82 537.525 426.157 479.031 397.035 443.506C365.455 404.958 253.948 356.849 274.818 266.985C317.064 85.0874 167.459 35.4206 225.242 -78.9412" stroke="white" stroke-width="0.5" stroke-miterlimit="10"/>
</g>
<path d="M138.558 7.41052C176.656 19.201 175.712 114.044 214.447 116.457C304.381 122.108 241.703 237.386 338.99 237.234C476.525 237.05 328.719 546.689 428.858 534.165" stroke="#1967A6" stroke-miterlimit="10"/>
<path d="M141.366 4.60034C176.326 19.6592 173.012 113.739 211.418 117.496C297.226 125.865 246.619 234.576 335.917 243.251C462.106 255.53 337.365 543.665 426.904 542.076" stroke="#1967A6" stroke-miterlimit="10"/>
<path d="M144.197 1.79016C175.997 20.0868 170.335 113.403 208.411 118.504C290.072 129.409 251.732 231.766 332.866 249.207C447.973 273.98 346.056 540.549 424.995 549.896" stroke="#1967A6" stroke-miterlimit="10"/>
<path d="M147.007 -1.01999C175.646 20.545 167.592 113.036 205.383 119.512C282.896 132.799 257.022 229.078 329.816 255.194C434.191 292.612 354.725 537.495 423.064 557.746" stroke="#1967A6" stroke-miterlimit="10"/>
<path d="M149.816 -3.83012C175.296 20.9727 164.849 112.578 202.355 120.52C275.698 136.037 262.531 226.696 326.744 261.151C420.783 311.612 363.394 534.409 421.134 565.596" stroke="#1967A6" stroke-miterlimit="10"/>
<path d="M152.646 -6.64034C174.965 21.4308 162.127 112.089 199.369 121.528C268.543 139.061 268.236 224.802 323.715 267.138C407.724 331.252 372.106 531.355 419.223 573.477" stroke="#1967A6" stroke-miterlimit="10"/>
<path d="M155.456 -9.45052C174.615 21.8585 159.362 111.509 196.341 122.536C261.367 141.932 273.942 223.549 320.643 273.094C394.776 351.718 380.753 528.27 417.293 581.297" stroke="#1967A6" stroke-miterlimit="10"/>
<path d="M158.288 -12.2607C174.287 22.3166 156.664 110.868 193.314 123.544C254.192 144.62 279.451 223 317.593 279.081C381.654 373.252 389.444 525.215 415.362 589.177" stroke="#1967A6" stroke-miterlimit="10"/>
<path d="M161.096 -15.0709C173.934 22.7442 153.919 110.104 190.306 124.582C247.058 147.125 284.629 223.03 314.542 285.068C367.892 395.703 398.112 522.13 413.452 597.058" stroke="#1967A6" stroke-miterlimit="10"/>
<path d="M163.904 -17.9116C173.604 23.1719 151.22 109.218 187.277 125.56C239.947 149.416 289.281 223.183 311.469 290.993C353.166 418.52 406.78 519.014 411.498 604.847" stroke="#1967A6" stroke-miterlimit="10"/>
<path d="M166.715 -20.7218C173.233 23.6301 148.566 108.21 184.25 126.568C232.882 151.584 293.519 223.213 308.398 296.98C337.52 441.215 415.428 515.96 409.569 612.728" stroke="#1967A6" stroke-miterlimit="10"/>
<path d="M169.546 -23.5319C172.925 24.0577 145.976 107.049 181.265 127.576C225.925 153.57 297.468 222.847 305.391 302.937C321.214 463.3 424.162 512.875 407.681 620.547" stroke="#1967A6" stroke-miterlimit="10"/>
<path d="M172.378 -26.3421C172.597 24.5159 143.475 105.675 178.259 128.584C219.057 155.464 301.266 222.053 302.341 308.924C304.514 484.682 432.854 509.82 405.772 628.428" stroke="#1967A6" stroke-miterlimit="10"/>
<path d="M175.185 -29.1523C172.245 24.9436 141.081 104.148 175.229 129.592C212.252 157.205 304.995 220.77 299.267 314.88C287.68 505.33 441.499 506.735 403.84 636.278" stroke="#1967A6" stroke-miterlimit="10"/>
<g opacity="0.43">
<path d="M440.554 634.14C404.673 612.758 418.213 519.809 380.488 507.468C292.858 478.847 369.779 381.622 274.161 356.788C138.974 321.661 325.404 55.3056 225.331 41.8962" stroke="#FF6200" stroke-linecap="round" stroke-linejoin="round"/>
<path d="M442.158 626.473C406.166 605.519 419.136 512.447 381.346 500.565C293.584 472.983 369.89 374.902 274.162 351.198C138.821 317.66 323.562 49.2577 223.467 37.009" stroke="#EB6D14" stroke-linecap="round" stroke-linejoin="round"/>
<path d="M443.78 618.837C407.679 598.31 420.078 505.116 382.244 493.693C294.35 467.118 370.042 368.212 274.182 345.609C138.688 313.658 321.739 43.2097 221.6 32.1523" stroke="#D87827" stroke-linecap="round" stroke-linejoin="round"/>
<path d="M445.382 611.17C409.171 591.071 421 497.786 383.1 486.789C295.075 461.253 370.13 361.492 274.182 340.019C138.556 309.657 319.896 37.1616 219.734 27.265" stroke="#C4833B" stroke-linecap="round" stroke-linejoin="round"/>
<path d="M447.007 603.503C410.665 583.832 421.945 490.424 384 479.855C295.843 455.358 370.284 354.742 274.227 334.398C138.425 305.625 318.119 31.0832 217.892 22.3472" stroke="#B18E4E" stroke-linecap="round" stroke-linejoin="round"/>
<path d="M448.608 595.836C412.156 576.592 422.866 483.063 384.855 472.952C296.567 449.493 370.393 348.022 274.226 328.778C138.293 301.593 316.274 25.0351 216.025 17.4599" stroke="#9D9962" stroke-linecap="round" stroke-linejoin="round"/>
<path d="M450.232 588.169C413.67 569.353 423.809 475.701 385.755 466.049C297.335 443.629 370.524 341.302 274.27 323.188C138.183 297.591 314.453 18.9566 214.182 12.5727" stroke="#89A476" stroke-linecap="round" stroke-linejoin="round"/>
<path d="M451.856 580.502C415.184 562.114 424.775 468.34 386.633 459.146C298.081 437.733 370.656 334.582 274.292 317.599C138.051 293.59 312.631 12.9087 212.316 7.68542" stroke="#76B089" stroke-linecap="round" stroke-linejoin="round"/>
<path d="M453.458 572.835C416.677 554.875 425.697 460.978 387.511 452.212C298.827 431.838 370.788 327.831 274.292 311.978C137.92 289.588 310.81 6.86069 210.451 2.79816" stroke="#62BB9D" stroke-linecap="round" stroke-linejoin="round"/>
<path d="M455.084 565.169C418.193 547.666 426.642 453.648 388.39 445.339C299.575 426.004 370.899 321.142 274.315 306.419C137.768 285.587 308.99 0.812667 208.609 -2.08914" stroke="#4EC6B1" stroke-linecap="round" stroke-linejoin="round"/>
<path d="M456.685 557.502C419.684 540.396 427.563 446.286 389.267 438.405C300.321 420.109 371.03 314.391 274.337 300.768C137.657 281.524 307.19 -5.29634 206.743 -7.00688" stroke="#3BD1C4" stroke-linecap="round" stroke-linejoin="round"/>
<path d="M458.309 549.865C421.198 533.188 428.506 438.955 390.145 431.533C301.066 414.275 371.162 307.702 274.358 295.209C137.525 277.554 305.346 -11.3138 204.899 -11.8636" stroke="#27DCD8" stroke-linecap="round" stroke-linejoin="round"/>
<path d="M459.911 542.198C422.669 525.948 429.428 431.594 391.001 424.599C301.769 408.349 371.25 300.951 274.358 289.588C137.372 273.522 303.525 -17.3923 203.034 -16.7509" stroke="#14E7EB" stroke-linecap="round" stroke-linejoin="round"/>
<path d="M461.534 534.532C424.182 518.709 430.371 424.263 391.899 417.696C302.558 402.484 371.402 294.231 274.379 283.999C137.261 269.52 301.724 -23.4403 201.189 -21.6382" stroke="#00F2FF" stroke-linecap="round" stroke-linejoin="round"/>
<path d="M450.737 543.634C417.028 525.001 425.982 431.869 388.082 423.805C303.217 405.691 360.123 301.929 272.141 283.938C148.147 258.585 288.579 -17.1479 199.939 -24.5399" stroke="#00DFEB" stroke-linecap="round" stroke-linejoin="round"/>
<path d="M439.918 552.706C409.874 531.263 421.572 439.536 384.242 429.853C303.898 409.051 348.667 309.535 269.86 283.785C158.703 247.497 275.39 -10.9778 198.667 -27.5639" stroke="#00CDD8" stroke-linecap="round" stroke-linejoin="round"/>
<path d="M429.122 561.809C402.721 537.556 417.227 447.264 380.424 435.931C304.601 412.625 337.015 317.049 267.6 283.693C168.909 236.348 262.223 -4.716 197.417 -30.4657" stroke="#00BAC4" stroke-linecap="round" stroke-linejoin="round"/>
<path d="M418.302 570.911C395.544 543.817 412.859 455.053 376.582 442.01C305.302 416.413 325.119 324.288 265.317 283.602C178.74 224.741 249.077 1.51521 196.165 -33.4287" stroke="#00A8B1" stroke-linecap="round" stroke-linejoin="round"/>
<path d="M407.505 580.014C388.412 550.11 408.536 462.933 372.764 448.119C306.005 420.475 313.071 331.008 263.035 283.541C188.177 212.492 235.888 7.77707 194.893 -36.361" stroke="#00959D" stroke-linecap="round" stroke-linejoin="round"/>
<path d="M396.685 589.116C381.235 556.402 404.19 470.906 368.901 454.197C306.663 424.752 300.957 336.964 260.752 283.449C197.438 199.205 222.719 14.0388 193.619 -39.2934" stroke="#008289" stroke-linecap="round" stroke-linejoin="round"/>
<path d="M385.888 598.219C374.081 562.694 399.845 478.97 365.083 460.276C307.299 429.211 289.128 342.096 258.47 283.357C207.007 184.757 209.552 20.2701 192.347 -42.2257" stroke="#007076" stroke-linecap="round" stroke-linejoin="round"/>
<path d="M375.067 607.291C366.903 568.956 395.455 487.125 361.241 466.324C307.89 433.885 277.781 346.647 256.186 283.235C217.429 169.362 196.383 26.5319 191.116 -45.1886" stroke="#005D62" stroke-linecap="round" stroke-linejoin="round"/>
<path d="M364.27 616.393C359.749 575.249 391.044 495.464 357.423 472.433C308.44 438.833 267.028 351.198 253.926 283.174C228.995 153.753 183.216 32.7631 189.844 -48.121" stroke="#004A4E" stroke-linecap="round" stroke-linejoin="round"/>
<path d="M353.473 625.496C352.595 581.51 386.545 503.956 353.605 478.511C308.879 443.934 256.757 356.055 251.666 283.082C241.593 138.664 170.071 38.9944 188.593 -51.0839" stroke="#00383B" stroke-linecap="round" stroke-linejoin="round"/>
<path d="M342.653 634.598C345.44 587.803 381.936 512.631 349.763 484.59C309.185 449.218 246.705 361.492 249.382 282.991C254.781 124.46 156.902 45.2562 187.319 -54.0162" stroke="#002527" stroke-linecap="round" stroke-linejoin="round"/>
<path d="M331.857 643.701C338.287 594.095 377.219 521.519 345.946 490.668C309.384 454.625 236.743 367.418 247.124 282.899C268.214 111.173 143.737 51.4874 186.07 -56.9486" stroke="#001314" stroke-linecap="round" stroke-linejoin="round"/>
<path d="M321.037 652.803C331.11 600.387 372.28 530.561 342.105 496.777C309.383 460.123 226.713 373.832 244.84 282.838C281.534 98.6494 130.568 57.7798 184.818 -59.8809" stroke="black" stroke-linecap="round" stroke-linejoin="round"/>
</g>
<path d="M155.718 38.3835C193.64 51.2736 191.292 146.056 229.961 149.599C319.785 157.816 255.418 271.261 352.682 273.919C490.173 277.676 337.825 583.007 438.118 573.355" stroke="#007AFF" stroke-linecap="round" stroke-linejoin="round"/>
<path d="M157.804 37.5894C195.726 50.4795 193.378 145.262 232.047 148.805C321.871 157.022 257.504 270.467 354.768 273.125C492.259 276.882 339.911 582.213 440.204 572.561" stroke="#007AFF" stroke-linecap="round" stroke-linejoin="round"/>
<path d="M159.887 36.8257C197.809 49.7159 195.461 144.498 234.13 148.041C323.954 156.258 259.587 269.703 356.851 272.361C494.342 276.118 341.994 581.449 442.287 571.797" stroke="#007AFF" stroke-linecap="round" stroke-linejoin="round"/>
<path d="M161.973 36.0621C199.895 48.9522 197.547 143.734 236.216 147.278C326.04 155.494 261.673 268.94 358.937 271.597C496.428 275.354 344.08 580.686 444.373 571.033" stroke="#007AFF" stroke-linecap="round" stroke-linejoin="round"/>
<path d="M164.035 35.2679C201.958 48.158 199.609 142.94 238.278 146.483C328.103 154.7 263.735 268.146 361 270.803C498.491 274.56 346.142 579.891 446.435 570.239" stroke="#007AFF" stroke-linecap="round" stroke-linejoin="round"/>
<path d="M166.12 34.5042C204.043 47.3944 201.694 142.177 240.363 145.72C330.188 153.937 265.82 267.382 363.085 270.039C500.576 273.796 348.227 579.128 448.52 569.475" stroke="#007AFF" stroke-linecap="round" stroke-linejoin="round"/>
<path d="M168.205 33.7101C206.128 46.6003 203.779 141.413 242.448 144.926C332.273 153.142 267.905 266.588 365.17 269.245C502.661 273.002 350.312 578.334 450.605 568.681" stroke="#007AFF" stroke-linecap="round" stroke-linejoin="round"/>
<path d="M170.29 32.9465C208.213 45.8366 205.864 140.619 244.533 144.162C334.358 152.379 269.99 265.824 367.255 268.482C504.746 272.239 352.397 577.57 452.69 567.918" stroke="#007AFF" stroke-linecap="round" stroke-linejoin="round"/>
<path d="M172.374 32.1828C210.297 45.073 207.948 139.855 246.617 143.398C336.442 151.615 272.074 265.061 369.339 267.718C506.83 271.475 354.481 576.806 454.774 567.154" stroke="#007AFF" stroke-linecap="round" stroke-linejoin="round"/>
<path d="M174.438 31.3886C212.36 44.2787 210.012 139.061 248.681 142.604C338.505 150.821 274.138 264.266 371.402 266.924C508.893 270.681 356.545 576.012 456.837 566.36" stroke="#007AFF" stroke-linecap="round" stroke-linejoin="round"/>
<path d="M176.523 30.625C214.446 43.5151 212.098 138.297 250.766 141.841C340.591 150.057 276.224 263.503 373.488 266.16C510.979 269.917 358.631 575.249 458.923 565.596" stroke="#007AFF" stroke-linecap="round" stroke-linejoin="round"/>
<path d="M178.608 29.8613C216.531 42.7515 214.183 137.534 252.851 141.077C342.676 149.294 278.309 262.739 375.573 265.397C513.064 269.154 360.716 574.485 461.008 564.833" stroke="#007AFF" stroke-linecap="round" stroke-linejoin="round"/>
<path d="M180.692 29.0672C218.615 41.9573 216.267 136.74 254.935 140.283C344.76 148.5 280.393 261.945 377.657 264.602C515.148 268.359 362.8 573.691 463.092 564.038" stroke="#007AFF" stroke-linecap="round" stroke-linejoin="round"/>
<path d="M182.754 28.3035C220.676 41.1937 218.328 135.976 256.997 139.519C346.822 147.736 282.454 261.181 379.718 263.839C517.21 267.596 364.861 572.927 465.154 563.275" stroke="#007AFF" stroke-linecap="round" stroke-linejoin="round"/>
<path d="M188.658 19.873C223.377 35.9094 218.68 129.897 257.02 134.724C342.697 145.537 290.487 252.781 379.632 264.022C505.601 279.906 376.625 564.405 466.164 565.382" stroke="#0071EB" stroke-linecap="round" stroke-linejoin="round"/>
<path d="M194.519 11.4731C226.033 30.6861 218.988 123.819 256.977 129.989C338.462 143.246 298.608 244.442 379.479 264.236C494.212 292.307 388.345 555.913 467.131 567.521" stroke="#0067D8" stroke-linecap="round" stroke-linejoin="round"/>
<path d="M200.398 3.07312C228.709 25.4323 219.294 117.679 256.975 125.255C334.268 140.772 306.99 236.287 379.367 264.45C483.171 304.861 400.106 547.391 468.117 569.628" stroke="#005EC4" stroke-linecap="round" stroke-linejoin="round"/>
<path d="M206.303 -5.35741C231.409 20.1785 219.602 111.479 256.998 120.459C330.1 138.084 315.593 228.345 379.28 264.633C472.551 317.782 411.87 538.869 469.127 571.736" stroke="#0054B1" stroke-linecap="round" stroke-linejoin="round"/>
<path d="M212.162 -13.7574C234.064 14.9247 219.887 105.217 256.954 115.724C325.864 135.243 324.284 220.922 379.105 264.847C462.148 331.344 423.567 530.377 470.07 573.843" stroke="#004B9D" stroke-linecap="round" stroke-linejoin="round"/>
<path d="M218.045 -22.1879C236.743 9.67089 220.174 98.8633 256.955 110.959C321.673 132.219 333.041 214.172 378.996 265.061C451.944 345.792 435.309 521.886 471.037 575.982" stroke="#004289" stroke-linecap="round" stroke-linejoin="round"/>
<path d="M223.926 -30.5878C239.42 4.44767 220.48 92.4794 256.954 106.194C317.503 129.012 341.6 208.094 378.886 265.244C441.52 361.248 447.072 513.364 472.046 578.089" stroke="#003876" stroke-linecap="round" stroke-linejoin="round"/>
<path d="M229.828 -38.9878C242.118 -0.806142 220.808 85.9732 256.953 101.46C313.354 125.621 349.784 202.595 378.775 265.458C430.458 377.59 458.812 504.872 473.033 580.197" stroke="#002F62" stroke-linecap="round" stroke-linejoin="round"/>
<path d="M235.711 -47.4184C244.797 -6.05995 221.139 79.3143 256.955 96.6946C309.252 122.078 357.489 197.219 378.667 265.671C418.476 394.359 470.576 496.38 474.022 582.335" stroke="#00264E" stroke-linecap="round" stroke-linejoin="round"/>
<path d="M241.571 -55.8184C247.453 -11.3138 221.513 72.5637 256.933 91.9295C305.17 118.321 364.753 191.691 378.535 265.855C405.529 410.915 482.296 487.858 475.01 584.443" stroke="#001C3B" stroke-linecap="round" stroke-linejoin="round"/>
<path d="M247.451 -64.2488C250.129 -16.5675 221.95 65.63 256.91 87.1645C301.175 114.441 371.687 185.765 378.402 266.038C391.855 426.829 494.035 479.336 475.974 586.52" stroke="#001327" stroke-linecap="round" stroke-linejoin="round"/>
<path d="M253.331 -72.6488C252.805 -21.7908 222.475 58.5129 256.909 82.4299C297.289 110.471 378.489 179.381 378.291 266.282C377.852 442.071 505.797 470.875 476.96 588.689" stroke="#000914" stroke-linecap="round" stroke-linejoin="round"/>
<path d="M259.215 -81.0488C255.484 -27.0446 223.136 51.2431 256.911 77.6648C293.516 106.347 385.294 172.569 378.184 266.466C363.787 456.549 517.54 462.353 477.95 590.796" stroke="black" stroke-linecap="round" stroke-linejoin="round"/>
</g>
</g>
<path d="M94.4635 32.3719L94.602 33.3623L94.4635 32.3719ZM89.1833 33.9548L88.5359 33.1926L89.1833 33.9548ZM87.4258 38.5847L86.4526 38.3546L87.4258 38.5847ZM87.0296 44.6032L86.0622 44.8565L87.0296 44.6032ZM90.534 50.0314L90.1879 50.9696L90.534 50.0314ZM95.856 49.8757L95.3171 49.0334L95.856 49.8757ZM97.6595 46.8195L96.7087 46.5097L97.6595 46.8195ZM97.5118 41.7692L96.5828 42.1394L97.5118 41.7692ZM95.552 39.4824L96.0429 38.6112L95.552 39.4824ZM91.395 38.8348L91.5234 39.8266L91.395 38.8348ZM86.9236 40.9802L87.684 41.6296L86.9236 40.9802ZM85.5523 45.2691L86.5254 45.4995L85.5523 45.2691ZM84.802 52.7264L83.8027 52.6883L84.802 52.7264ZM83.7598 66.748L84.7365 66.5332L83.7598 66.748ZM83.6548 72.2124L82.7082 72.5348L83.6548 72.2124ZM90.0435 76.3274L78.5068 75.8413L83.8542 86.0755L90.0435 76.3274ZM98.554 32.2522C98.5942 31.253 98.5942 31.253 98.5941 31.253C98.5941 31.253 98.5941 31.253 98.5941 31.253C98.594 31.253 98.594 31.253 98.5939 31.253C98.5938 31.253 98.5937 31.253 98.5935 31.253C98.5932 31.253 98.5928 31.253 98.5922 31.253C98.5912 31.2529 98.5897 31.2529 98.5879 31.2528C98.5842 31.2526 98.5788 31.2524 98.572 31.2522C98.5583 31.2517 98.5385 31.251 98.513 31.2501C98.462 31.2484 98.3883 31.246 98.2955 31.2435C98.11 31.2386 97.8478 31.233 97.5385 31.2305L97.5223 33.2304C97.817 33.2328 98.0666 33.2381 98.242 33.2428C98.3296 33.2452 98.3985 33.2473 98.4451 33.2489C98.4683 33.2497 98.486 33.2504 98.4976 33.2508C98.5034 33.251 98.5077 33.2512 98.5105 33.2513C98.5118 33.2513 98.5128 33.2514 98.5134 33.2514C98.5136 33.2514 98.5138 33.2514 98.5139 33.2514C98.5139 33.2514 98.514 33.2514 98.514 33.2514C98.514 33.2514 98.5139 33.2514 98.5139 33.2514C98.5139 33.2514 98.5139 33.2514 98.5139 33.2514C98.5139 33.2514 98.5139 33.2514 98.554 32.2522ZM95.4221 31.2773C95.0475 31.3 94.6713 31.3331 94.3251 31.3815L94.602 33.3623C94.88 33.3234 95.201 33.2944 95.5433 33.2736L95.4221 31.2773ZM94.3251 31.3815C93.8435 31.4488 93.4026 31.4981 92.9491 31.5544L93.1957 33.5392C93.6185 33.4866 94.1009 33.4323 94.602 33.3623L94.3251 31.3815ZM89.9356 32.2906C89.4545 32.5146 88.99 32.807 88.5359 33.1926L89.8306 34.717C90.1479 34.4475 90.4609 34.2522 90.7799 34.1036L89.9356 32.2906ZM88.5359 33.1926C88.0952 33.5669 87.7562 33.9604 87.4963 34.3795L89.1959 35.4336C89.3372 35.2058 89.535 34.968 89.8306 34.717L88.5359 33.1926ZM86.6621 37.188C86.6045 37.5816 86.5459 37.9598 86.4526 38.3546L88.399 38.8148C88.5139 38.3284 88.5828 37.8755 88.641 37.4775L86.6621 37.188ZM86.4526 38.3546C86.3921 38.6103 86.3331 38.854 86.2753 39.0943L88.2198 39.5621C88.2767 39.3258 88.3373 39.0755 88.399 38.8148L86.4526 38.3546ZM85.9335 40.6365C85.8314 41.1849 85.7598 41.7341 85.7461 42.3126L87.7456 42.3598C87.756 41.918 87.8109 41.4796 87.8997 41.0027L85.9335 40.6365ZM85.8801 44.0313C85.9275 44.2986 85.9879 44.5729 86.0622 44.8565L87.9969 44.3498C87.9354 44.115 87.8869 43.8934 87.8494 43.6821L85.8801 44.0313ZM86.0622 44.8565C86.1334 45.1284 86.1994 45.3966 86.2675 45.6704L88.2084 45.1879C88.1419 44.9203 88.0721 44.6369 87.9969 44.3498L86.0622 44.8565ZM86.7578 47.3995C86.9727 48.0104 87.256 48.6217 87.681 49.1809L89.2734 47.9708C89.0147 47.6304 88.8166 47.2251 88.6445 46.7357L86.7578 47.3995ZM89.2709 50.5508C89.5526 50.7083 89.8577 50.8478 90.1879 50.9696L90.88 49.0932C90.6401 49.0047 90.4307 48.9079 90.2469 48.8051L89.2709 50.5508ZM90.1879 50.9696C90.666 51.146 91.1489 51.2974 91.6342 51.4089L92.0821 49.4597C91.6981 49.3715 91.2983 49.2475 90.88 49.0932L90.1879 50.9696ZM94.8671 51.4068C95.3911 51.2606 95.9011 51.034 96.3949 50.7181L95.3171 49.0334C94.9868 49.2447 94.6585 49.3886 94.3298 49.4803L94.8671 51.4068ZM96.3949 50.7181C96.7475 50.4925 97.0438 50.2466 97.2939 49.9756L95.8241 48.6193C95.7015 48.7522 95.5404 48.8905 95.3171 49.0334L96.3949 50.7181ZM98.344 47.991C98.4431 47.6755 98.5086 47.4414 98.6103 47.1294L96.7087 46.5097C96.6095 46.8142 96.5087 47.1598 96.4359 47.3919L98.344 47.991ZM98.6103 47.1294C98.7658 46.6522 98.8889 46.1979 98.9731 45.7533L97.0081 45.3812C96.9436 45.7214 96.8453 46.0908 96.7087 46.5097L98.6103 47.1294ZM98.8885 42.7563C98.7786 42.3168 98.6279 41.8689 98.4408 41.3991L96.5828 42.1394C96.7453 42.5472 96.8649 42.9083 96.9483 43.2417L98.8885 42.7563ZM98.4408 41.3991C98.3531 41.1791 98.2358 40.856 98.1485 40.6507L96.308 41.4335C96.3951 41.6381 96.4409 41.7831 96.5828 42.1394L98.4408 41.3991ZM96.778 39.0591C96.5661 38.9162 96.3227 38.7689 96.0429 38.6112L95.0611 40.3536C95.3112 40.4945 95.5059 40.6135 95.6602 40.7175L96.778 39.0591ZM96.0429 38.6112C95.6665 38.3992 95.308 38.2199 94.9454 38.0793L94.2226 39.9442C94.4668 40.0388 94.7352 40.17 95.0611 40.3536L96.0429 38.6112ZM92.4093 37.7295C92.0583 37.7499 91.6806 37.7895 91.2666 37.8431L91.5234 39.8266C91.9112 39.7763 92.2383 39.7428 92.5253 39.7261L92.4093 37.7295ZM91.2666 37.8431C90.7917 37.9046 90.3424 37.9783 89.9161 38.0757L90.3614 40.0255C90.7061 39.9467 91.0885 39.8829 91.5234 39.8266L91.2666 37.8431ZM87.2196 39.3055C86.8476 39.5968 86.4996 39.9368 86.1632 40.3307L87.684 41.6296C87.9466 41.322 88.1999 41.0781 88.4528 40.8801L87.2196 39.3055ZM86.1632 40.3307C85.8319 40.7187 85.5821 41.1035 85.3925 41.4947L87.1923 42.367C87.3034 42.1376 87.4573 41.895 87.684 41.6296L86.1632 40.3307ZM84.7675 44.001C84.718 44.3442 84.6638 44.6813 84.5792 45.0387L86.5254 45.4995C86.6307 45.0548 86.6948 44.6484 86.747 44.2865L84.7675 44.001ZM84.5792 45.0387C84.5011 45.3688 84.4319 45.6846 84.3705 45.9895L86.3312 46.3842C86.3879 46.1025 86.4522 45.8088 86.5254 45.4995L84.5792 45.0387ZM84.0616 47.9241C83.9846 48.5829 83.9392 49.2134 83.9068 49.8614L85.9044 49.9612C85.9353 49.342 85.9777 48.758 86.0481 48.1563L84.0616 47.9241ZM83.8355 51.7543C83.8257 52.0533 83.8151 52.3632 83.8027 52.6883L85.8013 52.7646C85.8139 52.4344 85.8245 52.1205 85.8345 51.8204L83.8355 51.7543ZM83.8027 52.6883C83.7904 53.0118 83.7659 53.3165 83.7322 53.6069L85.7188 53.8373C85.7582 53.4977 85.7869 53.1415 85.8013 52.7646L83.8027 52.6883ZM83.388 55.4453C83.241 56.0477 83.0477 56.7416 82.9016 57.4033L84.8545 57.8346C84.9981 57.1842 85.1575 56.6304 85.331 55.9195L83.388 55.4453ZM82.595 59.5339C82.5751 59.8785 82.569 60.2389 82.5801 60.6195L84.5793 60.5611C84.5698 60.239 84.575 59.9367 84.5917 59.6496L82.595 59.5339ZM82.5801 60.6195C82.5877 60.8773 82.5892 61.1204 82.5866 61.3526L84.5865 61.3746C84.5893 61.118 84.5877 60.8479 84.5793 60.5611L82.5801 60.6195ZM82.5261 62.8515C82.4973 63.37 82.4691 63.9 82.4796 64.4692L84.4793 64.4323C84.4703 63.9462 84.494 63.4846 84.523 62.9625L82.5261 62.8515ZM82.6277 66.145C82.669 66.4055 82.7203 66.6771 82.7832 66.9629L84.7365 66.5332C84.6817 66.2843 84.6379 66.0515 84.603 65.8315L82.6277 66.145ZM82.7832 66.9629C82.8266 67.1605 82.8367 67.5179 82.8025 68.0516L84.7984 68.1795C84.8333 67.6352 84.8458 67.0301 84.7365 66.5332L82.7832 66.9629ZM82.5608 70.7998C82.5327 71.3534 82.5305 72.0131 82.7082 72.5348L84.6014 71.8899C84.5605 71.77 84.5298 71.4617 84.5583 70.9014L82.5608 70.7998ZM82.7082 72.5348C82.8065 72.8233 82.9391 73.2238 83.1037 73.6596L84.9747 72.9527C84.8248 72.5561 84.706 72.1969 84.6014 71.8899L82.7082 72.5348ZM84.2259 75.9387C84.726 76.6926 85.4187 77.4469 86.3716 77.843L87.1392 75.9961C86.6984 75.8129 86.2803 75.4178 85.8925 74.8331L84.2259 75.9387Z" fill="#002680"/>
</g>
<defs>
<clipPath id="clip0_6134_13773">
<rect width="375" height="229" fill="white"/>
</clipPath>
</defs>
</svg>
