<svg width="472" height="340" viewBox="0 0 472 340" fill="none" xmlns="http://www.w3.org/2000/svg">
<g filter="url(#filter0_d_5532_21079)">
<rect x="32" y="32.9485" width="408" height="275.052" rx="12" fill="white"/>
</g>
<mask id="mask0_5532_21079" style="mask-type:alpha" maskUnits="userSpaceOnUse" x="62" y="32" width="369" height="276">
<rect x="62" y="32.9485" width="369" height="275.052" rx="12" fill="white"/>
</mask>
<g mask="url(#mask0_5532_21079)">
<path d="M262.352 0.314583C281.616 0.314583 296.811 7.51992 307.936 21.9306C319.061 36.2666 324.624 56.9119 324.624 83.8666C324.624 110.672 319.136 131.243 308.16 145.579C297.184 159.84 281.915 166.971 262.352 166.971C242.715 166.971 227.371 159.84 216.32 145.579C205.344 131.317 199.856 110.784 199.856 83.9786C199.856 66.0586 202.395 50.8639 207.472 38.3946C212.549 25.9252 219.755 16.4799 229.088 10.0586C238.421 3.56258 249.509 0.314583 262.352 0.314583ZM262.352 140.203C271.984 140.203 279.04 135.909 283.52 127.323C288 118.661 290.24 104.213 290.24 83.9786C290.24 63.2959 287.963 48.4746 283.408 39.5146C278.853 30.5546 271.797 26.0746 262.24 26.0746C252.683 26.0746 245.552 30.5919 240.848 39.6266C236.219 48.6613 233.904 63.4453 233.904 83.9786C233.904 104.139 236.219 118.549 240.848 127.211C245.477 135.872 252.645 140.203 262.352 140.203ZM416.94 2.55458H449.084V101.227H474.06V128.667H449.084V164.507H417.612L417.724 128.667H343.132V101.787L416.94 2.55458ZM373.372 101.227H417.724V41.8666L373.372 101.227Z" fill="#5A5A5A" fill-opacity="0.03"/>
</g>
<path d="M62.288 152.71C61.2533 152.71 60.3093 152.47 59.456 151.99C58.6027 151.499 57.9253 150.822 57.424 149.958C56.9333 149.083 56.688 148.102 56.688 147.014C56.688 145.926 56.9333 144.95 57.424 144.086C57.9253 143.211 58.6027 142.534 59.456 142.054C60.3093 141.563 61.2533 141.318 62.288 141.318C63.3333 141.318 64.2827 141.563 65.136 142.054C65.9893 142.534 66.6613 143.206 67.152 144.07C67.6427 144.934 67.888 145.915 67.888 147.014C67.888 148.113 67.6427 149.094 67.152 149.958C66.6613 150.822 65.9893 151.499 65.136 151.99C64.2827 152.47 63.3333 152.71 62.288 152.71ZM62.288 151.446C63.0667 151.446 63.7653 151.265 64.384 150.902C65.0133 150.539 65.504 150.022 65.856 149.35C66.2187 148.678 66.4 147.899 66.4 147.014C66.4 146.118 66.2187 145.339 65.856 144.678C65.504 144.006 65.0187 143.489 64.4 143.126C63.7813 142.763 63.0773 142.582 62.288 142.582C61.4987 142.582 60.7947 142.763 60.176 143.126C59.5573 143.489 59.0667 144.006 58.704 144.678C58.352 145.339 58.176 146.118 58.176 147.014C58.176 147.899 58.352 148.678 58.704 149.35C59.0667 150.022 59.5573 150.539 60.176 150.902C60.8053 151.265 61.5093 151.446 62.288 151.446ZM77.5861 143.83V152.598H76.1301V151.302C75.8528 151.75 75.4635 152.102 74.9621 152.358C74.4715 152.603 73.9275 152.726 73.3301 152.726C72.6475 152.726 72.0341 152.587 71.4901 152.31C70.9461 152.022 70.5141 151.595 70.1941 151.03C69.8848 150.465 69.7301 149.777 69.7301 148.966V143.83H71.1701V148.774C71.1701 149.638 71.3888 150.305 71.8261 150.774C72.2635 151.233 72.8608 151.462 73.6181 151.462C74.3968 151.462 75.0101 151.222 75.4581 150.742C75.9061 150.262 76.1301 149.563 76.1301 148.646V143.83H77.5861ZM81.5005 145.254C81.7565 144.753 82.1192 144.363 82.5885 144.086C83.0685 143.809 83.6498 143.67 84.3325 143.67V145.174H83.9485C82.3165 145.174 81.5005 146.059 81.5005 147.83V152.598H80.0445V143.83H81.5005V145.254ZM91.7349 145.446C92.0229 144.945 92.4495 144.529 93.0149 144.198C93.5909 143.857 94.2575 143.686 95.0149 143.686C95.7935 143.686 96.4975 143.873 97.1269 144.246C97.7669 144.619 98.2682 145.147 98.6309 145.83C98.9935 146.502 99.1749 147.286 99.1749 148.182C99.1749 149.067 98.9935 149.857 98.6309 150.55C98.2682 151.243 97.7669 151.782 97.1269 152.166C96.4975 152.55 95.7935 152.742 95.0149 152.742C94.2682 152.742 93.6069 152.577 93.0309 152.246C92.4655 151.905 92.0335 151.483 91.7349 150.982V156.758H90.2789V143.83H91.7349V145.446ZM97.6869 148.182C97.6869 147.521 97.5535 146.945 97.2869 146.454C97.0202 145.963 96.6575 145.59 96.1989 145.334C95.7509 145.078 95.2549 144.95 94.7109 144.95C94.1775 144.95 93.6815 145.083 93.2229 145.35C92.7749 145.606 92.4122 145.985 92.1349 146.486C91.8682 146.977 91.7349 147.547 91.7349 148.198C91.7349 148.859 91.8682 149.441 92.1349 149.942C92.4122 150.433 92.7749 150.811 93.2229 151.078C93.6815 151.334 94.1775 151.462 94.7109 151.462C95.2549 151.462 95.7509 151.334 96.1989 151.078C96.6575 150.811 97.0202 150.433 97.2869 149.942C97.5535 149.441 97.6869 148.854 97.6869 148.182ZM102.547 145.254C102.803 144.753 103.166 144.363 103.635 144.086C104.115 143.809 104.697 143.67 105.379 143.67V145.174H104.995C103.363 145.174 102.547 146.059 102.547 147.83V152.598H101.091V143.83H102.547V145.254ZM107.812 142.406C107.535 142.406 107.3 142.31 107.108 142.118C106.916 141.926 106.82 141.691 106.82 141.414C106.82 141.137 106.916 140.902 107.108 140.71C107.3 140.518 107.535 140.422 107.812 140.422C108.079 140.422 108.303 140.518 108.484 140.71C108.676 140.902 108.772 141.137 108.772 141.414C108.772 141.691 108.676 141.926 108.484 142.118C108.303 142.31 108.079 142.406 107.812 142.406ZM108.516 143.83V152.598H107.06V143.83H108.516ZM110.454 148.198C110.454 147.291 110.635 146.502 110.998 145.83C111.36 145.147 111.862 144.619 112.502 144.246C113.152 143.873 113.894 143.686 114.726 143.686C115.803 143.686 116.688 143.947 117.382 144.47C118.086 144.993 118.55 145.718 118.774 146.646H117.206C117.056 146.113 116.763 145.691 116.326 145.382C115.899 145.073 115.366 144.918 114.726 144.918C113.894 144.918 113.222 145.206 112.71 145.782C112.198 146.347 111.942 147.153 111.942 148.198C111.942 149.254 112.198 150.07 112.71 150.646C113.222 151.222 113.894 151.51 114.726 151.51C115.366 151.51 115.899 151.361 116.326 151.062C116.752 150.763 117.046 150.337 117.206 149.782H118.774C118.539 150.678 118.07 151.398 117.366 151.942C116.662 152.475 115.782 152.742 114.726 152.742C113.894 152.742 113.152 152.555 112.502 152.182C111.862 151.809 111.36 151.281 110.998 150.598C110.635 149.915 110.454 149.115 110.454 148.198ZM128.716 147.878C128.716 148.155 128.7 148.449 128.668 148.758H121.66C121.714 149.622 122.007 150.299 122.54 150.79C123.084 151.27 123.74 151.51 124.508 151.51C125.138 151.51 125.66 151.366 126.076 151.078C126.503 150.779 126.802 150.385 126.972 149.894H128.54C128.306 150.737 127.836 151.425 127.132 151.958C126.428 152.481 125.554 152.742 124.508 152.742C123.676 152.742 122.93 152.555 122.268 152.182C121.618 151.809 121.106 151.281 120.732 150.598C120.359 149.905 120.172 149.105 120.172 148.198C120.172 147.291 120.354 146.497 120.716 145.814C121.079 145.131 121.586 144.609 122.236 144.246C122.898 143.873 123.655 143.686 124.508 143.686C125.34 143.686 126.076 143.867 126.716 144.23C127.356 144.593 127.847 145.094 128.188 145.734C128.54 146.363 128.716 147.078 128.716 147.878ZM127.212 147.574C127.212 147.019 127.09 146.545 126.844 146.15C126.599 145.745 126.263 145.441 125.836 145.238C125.42 145.025 124.956 144.918 124.444 144.918C123.708 144.918 123.079 145.153 122.556 145.622C122.044 146.091 121.751 146.742 121.676 147.574H127.212ZM133.742 152.742C133.07 152.742 132.468 152.63 131.934 152.406C131.401 152.171 130.98 151.851 130.67 151.446C130.361 151.03 130.19 150.555 130.158 150.022H131.662C131.705 150.459 131.908 150.817 132.27 151.094C132.644 151.371 133.129 151.51 133.726 151.51C134.281 151.51 134.718 151.387 135.038 151.142C135.358 150.897 135.518 150.587 135.518 150.214C135.518 149.83 135.348 149.547 135.006 149.366C134.665 149.174 134.137 148.987 133.422 148.806C132.772 148.635 132.238 148.465 131.822 148.294C131.417 148.113 131.065 147.851 130.766 147.51C130.478 147.158 130.334 146.699 130.334 146.134C130.334 145.686 130.468 145.275 130.734 144.902C131.001 144.529 131.38 144.235 131.87 144.022C132.361 143.798 132.921 143.686 133.55 143.686C134.521 143.686 135.305 143.931 135.902 144.422C136.5 144.913 136.82 145.585 136.862 146.438H135.406C135.374 145.979 135.188 145.611 134.846 145.334C134.516 145.057 134.068 144.918 133.502 144.918C132.98 144.918 132.564 145.03 132.254 145.254C131.945 145.478 131.79 145.771 131.79 146.134C131.79 146.422 131.881 146.662 132.062 146.854C132.254 147.035 132.489 147.185 132.766 147.302C133.054 147.409 133.449 147.531 133.95 147.67C134.58 147.841 135.092 148.011 135.486 148.182C135.881 148.342 136.217 148.587 136.494 148.918C136.782 149.249 136.932 149.681 136.942 150.214C136.942 150.694 136.809 151.126 136.542 151.51C136.276 151.894 135.897 152.198 135.406 152.422C134.926 152.635 134.372 152.742 133.742 152.742ZM142.719 148.182C142.719 147.286 142.901 146.502 143.263 145.83C143.626 145.147 144.122 144.619 144.751 144.246C145.391 143.873 146.101 143.686 146.879 143.686C147.647 143.686 148.314 143.851 148.879 144.182C149.445 144.513 149.866 144.929 150.143 145.43V143.83H151.615V152.598H150.143V150.966C149.855 151.478 149.423 151.905 148.847 152.246C148.282 152.577 147.621 152.742 146.863 152.742C146.085 152.742 145.381 152.55 144.751 152.166C144.122 151.782 143.626 151.243 143.263 150.55C142.901 149.857 142.719 149.067 142.719 148.182ZM150.143 148.198C150.143 147.537 150.01 146.961 149.743 146.47C149.477 145.979 149.114 145.606 148.655 145.35C148.207 145.083 147.711 144.95 147.167 144.95C146.623 144.95 146.127 145.078 145.679 145.334C145.231 145.59 144.874 145.963 144.607 146.454C144.341 146.945 144.207 147.521 144.207 148.182C144.207 148.854 144.341 149.441 144.607 149.942C144.874 150.433 145.231 150.811 145.679 151.078C146.127 151.334 146.623 151.462 147.167 151.462C147.711 151.462 148.207 151.334 148.655 151.078C149.114 150.811 149.477 150.433 149.743 149.942C150.01 149.441 150.143 148.859 150.143 148.198ZM155.532 145.254C155.788 144.753 156.15 144.363 156.62 144.086C157.1 143.809 157.681 143.67 158.364 143.67V145.174H157.98C156.348 145.174 155.532 146.059 155.532 147.83V152.598H154.076V143.83H155.532V145.254ZM168.045 147.878C168.045 148.155 168.029 148.449 167.997 148.758H160.989C161.042 149.622 161.335 150.299 161.869 150.79C162.413 151.27 163.069 151.51 163.837 151.51C164.466 151.51 164.989 151.366 165.405 151.078C165.831 150.779 166.13 150.385 166.301 149.894H167.869C167.634 150.737 167.165 151.425 166.461 151.958C165.757 152.481 164.882 152.742 163.837 152.742C163.005 152.742 162.258 152.555 161.597 152.182C160.946 151.809 160.434 151.281 160.061 150.598C159.687 149.905 159.501 149.105 159.501 148.198C159.501 147.291 159.682 146.497 160.045 145.814C160.407 145.131 160.914 144.609 161.565 144.246C162.226 143.873 162.983 143.686 163.837 143.686C164.669 143.686 165.405 143.867 166.045 144.23C166.685 144.593 167.175 145.094 167.517 145.734C167.869 146.363 168.045 147.078 168.045 147.878ZM166.541 147.574C166.541 147.019 166.418 146.545 166.173 146.15C165.927 145.745 165.591 145.441 165.165 145.238C164.749 145.025 164.285 144.918 163.773 144.918C163.037 144.918 162.407 145.153 161.885 145.622C161.373 146.091 161.079 146.742 161.005 147.574H166.541ZM173.688 148.182C173.688 147.286 173.869 146.502 174.232 145.83C174.595 145.147 175.091 144.619 175.72 144.246C176.36 143.873 177.069 143.686 177.848 143.686C178.616 143.686 179.283 143.851 179.848 144.182C180.413 144.513 180.835 144.929 181.112 145.43V143.83H182.584V152.598H181.112V150.966C180.824 151.478 180.392 151.905 179.816 152.246C179.251 152.577 178.589 152.742 177.832 152.742C177.053 152.742 176.349 152.55 175.72 152.166C175.091 151.782 174.595 151.243 174.232 150.55C173.869 149.857 173.688 149.067 173.688 148.182ZM181.112 148.198C181.112 147.537 180.979 146.961 180.712 146.47C180.445 145.979 180.083 145.606 179.624 145.35C179.176 145.083 178.68 144.95 178.136 144.95C177.592 144.95 177.096 145.078 176.648 145.334C176.2 145.59 175.843 145.963 175.576 146.454C175.309 146.945 175.176 147.521 175.176 148.182C175.176 148.854 175.309 149.441 175.576 149.942C175.843 150.433 176.2 150.811 176.648 151.078C177.096 151.334 177.592 151.462 178.136 151.462C178.68 151.462 179.176 151.334 179.624 151.078C180.083 150.811 180.445 150.433 180.712 149.942C180.979 149.441 181.112 148.859 181.112 148.198ZM188.613 145.03H186.773V152.598H185.317V145.03H184.181V143.83H185.317V143.206C185.317 142.225 185.567 141.51 186.069 141.062C186.581 140.603 187.397 140.374 188.516 140.374V141.59C187.877 141.59 187.423 141.718 187.157 141.974C186.901 142.219 186.773 142.63 186.773 143.206V143.83H188.613V145.03ZM193.878 145.03H192.038V152.598H190.582V145.03H189.446V143.83H190.582V143.206C190.582 142.225 190.833 141.51 191.334 141.062C191.846 140.603 192.662 140.374 193.782 140.374V141.59C193.142 141.59 192.689 141.718 192.422 141.974C192.166 142.219 192.038 142.63 192.038 143.206V143.83H193.878V145.03ZM199.4 152.742C198.578 152.742 197.832 152.555 197.16 152.182C196.498 151.809 195.976 151.281 195.592 150.598C195.218 149.905 195.032 149.105 195.032 148.198C195.032 147.302 195.224 146.513 195.608 145.83C196.002 145.137 196.536 144.609 197.208 144.246C197.88 143.873 198.632 143.686 199.464 143.686C200.296 143.686 201.048 143.873 201.72 144.246C202.392 144.609 202.92 145.131 203.304 145.814C203.698 146.497 203.896 147.291 203.896 148.198C203.896 149.105 203.693 149.905 203.288 150.598C202.893 151.281 202.354 151.809 201.672 152.182C200.989 152.555 200.232 152.742 199.4 152.742ZM199.4 151.462C199.922 151.462 200.413 151.339 200.872 151.094C201.33 150.849 201.698 150.481 201.976 149.99C202.264 149.499 202.408 148.902 202.408 148.198C202.408 147.494 202.269 146.897 201.992 146.406C201.714 145.915 201.352 145.553 200.904 145.318C200.456 145.073 199.97 144.95 199.448 144.95C198.914 144.95 198.424 145.073 197.976 145.318C197.538 145.553 197.186 145.915 196.92 146.406C196.653 146.897 196.52 147.494 196.52 148.198C196.52 148.913 196.648 149.515 196.904 150.006C197.17 150.497 197.522 150.865 197.96 151.11C198.397 151.345 198.877 151.462 199.4 151.462ZM207.266 145.254C207.522 144.753 207.885 144.363 208.354 144.086C208.834 143.809 209.415 143.67 210.098 143.67V145.174H209.714C208.082 145.174 207.266 146.059 207.266 147.83V152.598H205.81V143.83H207.266V145.254ZM211.235 148.182C211.235 147.286 211.416 146.502 211.779 145.83C212.142 145.147 212.638 144.619 213.267 144.246C213.907 143.873 214.622 143.686 215.411 143.686C216.094 143.686 216.728 143.846 217.315 144.166C217.902 144.475 218.35 144.886 218.659 145.398V140.758H220.131V152.598H218.659V150.95C218.371 151.473 217.944 151.905 217.379 152.246C216.814 152.577 216.152 152.742 215.395 152.742C214.616 152.742 213.907 152.55 213.267 152.166C212.638 151.782 212.142 151.243 211.779 150.55C211.416 149.857 211.235 149.067 211.235 148.182ZM218.659 148.198C218.659 147.537 218.526 146.961 218.259 146.47C217.992 145.979 217.63 145.606 217.171 145.35C216.723 145.083 216.227 144.95 215.683 144.95C215.139 144.95 214.643 145.078 214.195 145.334C213.747 145.59 213.39 145.963 213.123 146.454C212.856 146.945 212.723 147.521 212.723 148.182C212.723 148.854 212.856 149.441 213.123 149.942C213.39 150.433 213.747 150.811 214.195 151.078C214.643 151.334 215.139 151.462 215.683 151.462C216.227 151.462 216.723 151.334 217.171 151.078C217.63 150.811 217.992 150.433 218.259 149.942C218.526 149.441 218.659 148.859 218.659 148.198ZM222.047 148.182C222.047 147.286 222.229 146.502 222.591 145.83C222.954 145.147 223.45 144.619 224.079 144.246C224.719 143.873 225.429 143.686 226.207 143.686C226.975 143.686 227.642 143.851 228.207 144.182C228.773 144.513 229.194 144.929 229.471 145.43V143.83H230.943V152.598H229.471V150.966C229.183 151.478 228.751 151.905 228.175 152.246C227.61 152.577 226.949 152.742 226.191 152.742C225.413 152.742 224.709 152.55 224.079 152.166C223.45 151.782 222.954 151.243 222.591 150.55C222.229 149.857 222.047 149.067 222.047 148.182ZM229.471 148.198C229.471 147.537 229.338 146.961 229.071 146.47C228.805 145.979 228.442 145.606 227.983 145.35C227.535 145.083 227.039 144.95 226.495 144.95C225.951 144.95 225.455 145.078 225.007 145.334C224.559 145.59 224.202 145.963 223.935 146.454C223.669 146.945 223.535 147.521 223.535 148.182C223.535 148.854 223.669 149.441 223.935 149.942C224.202 150.433 224.559 150.811 225.007 151.078C225.455 151.334 225.951 151.462 226.495 151.462C227.039 151.462 227.535 151.334 227.983 151.078C228.442 150.811 228.805 150.433 229.071 149.942C229.338 149.441 229.471 148.859 229.471 148.198ZM234.86 145.462C235.159 144.939 235.596 144.513 236.172 144.182C236.748 143.851 237.404 143.686 238.14 143.686C238.929 143.686 239.639 143.873 240.268 144.246C240.897 144.619 241.393 145.147 241.756 145.83C242.119 146.502 242.3 147.286 242.3 148.182C242.3 149.067 242.119 149.857 241.756 150.55C241.393 151.243 240.892 151.782 240.252 152.166C239.623 152.55 238.919 152.742 238.14 152.742C237.383 152.742 236.716 152.577 236.14 152.246C235.575 151.915 235.148 151.494 234.86 150.982V152.598H233.404V140.758H234.86V145.462ZM240.812 148.182C240.812 147.521 240.679 146.945 240.412 146.454C240.145 145.963 239.783 145.59 239.324 145.334C238.876 145.078 238.38 144.95 237.836 144.95C237.303 144.95 236.807 145.083 236.348 145.35C235.9 145.606 235.537 145.985 235.26 146.486C234.993 146.977 234.86 147.547 234.86 148.198C234.86 148.859 234.993 149.441 235.26 149.942C235.537 150.433 235.9 150.811 236.348 151.078C236.807 151.334 237.303 151.462 237.836 151.462C238.38 151.462 238.876 151.334 239.324 151.078C239.783 150.811 240.145 150.433 240.412 149.942C240.679 149.441 240.812 148.854 240.812 148.182ZM245.672 140.758V152.598H244.216V140.758H245.672ZM256.154 147.878C256.154 148.155 256.138 148.449 256.106 148.758H249.098C249.151 149.622 249.445 150.299 249.978 150.79C250.522 151.27 251.178 151.51 251.946 151.51C252.575 151.51 253.098 151.366 253.514 151.078C253.941 150.779 254.239 150.385 254.41 149.894H255.978C255.743 150.737 255.274 151.425 254.57 151.958C253.866 152.481 252.991 152.742 251.946 152.742C251.114 152.742 250.367 152.555 249.706 152.182C249.055 151.809 248.543 151.281 248.17 150.598C247.797 149.905 247.61 149.105 247.61 148.198C247.61 147.291 247.791 146.497 248.154 145.814C248.517 145.131 249.023 144.609 249.674 144.246C250.335 143.873 251.093 143.686 251.946 143.686C252.778 143.686 253.514 143.867 254.154 144.23C254.794 144.593 255.285 145.094 255.626 145.734C255.978 146.363 256.154 147.078 256.154 147.878ZM254.65 147.574C254.65 147.019 254.527 146.545 254.282 146.15C254.037 145.745 253.701 145.441 253.274 145.238C252.858 145.025 252.394 144.918 251.882 144.918C251.146 144.918 250.517 145.153 249.994 145.622C249.482 146.091 249.189 146.742 249.114 147.574H254.65ZM265.909 145.03H264.069V152.598H262.613V145.03H261.477V143.83H262.613V143.206C262.613 142.225 262.864 141.51 263.365 141.062C263.877 140.603 264.693 140.374 265.813 140.374V141.59C265.173 141.59 264.72 141.718 264.453 141.974C264.197 142.219 264.069 142.63 264.069 143.206V143.83H265.909V145.03ZM271.431 152.742C270.61 152.742 269.863 152.555 269.191 152.182C268.53 151.809 268.007 151.281 267.623 150.598C267.25 149.905 267.063 149.105 267.063 148.198C267.063 147.302 267.255 146.513 267.639 145.83C268.034 145.137 268.567 144.609 269.239 144.246C269.911 143.873 270.663 143.686 271.495 143.686C272.327 143.686 273.079 143.873 273.751 144.246C274.423 144.609 274.951 145.131 275.335 145.814C275.73 146.497 275.927 147.291 275.927 148.198C275.927 149.105 275.724 149.905 275.319 150.598C274.924 151.281 274.386 151.809 273.703 152.182C273.02 152.555 272.263 152.742 271.431 152.742ZM271.431 151.462C271.954 151.462 272.444 151.339 272.903 151.094C273.362 150.849 273.73 150.481 274.007 149.99C274.295 149.499 274.439 148.902 274.439 148.198C274.439 147.494 274.3 146.897 274.023 146.406C273.746 145.915 273.383 145.553 272.935 145.318C272.487 145.073 272.002 144.95 271.479 144.95C270.946 144.95 270.455 145.073 270.007 145.318C269.57 145.553 269.218 145.915 268.951 146.406C268.684 146.897 268.551 147.494 268.551 148.198C268.551 148.913 268.679 149.515 268.935 150.006C269.202 150.497 269.554 150.865 269.991 151.11C270.428 151.345 270.908 151.462 271.431 151.462ZM279.297 145.254C279.553 144.753 279.916 144.363 280.385 144.086C280.865 143.809 281.447 143.67 282.129 143.67V145.174H281.745C280.113 145.174 279.297 146.059 279.297 147.83V152.598H277.841V143.83H279.297V145.254ZM296.076 147.878C296.076 148.155 296.06 148.449 296.028 148.758H289.02C289.073 149.622 289.366 150.299 289.9 150.79C290.444 151.27 291.1 151.51 291.868 151.51C292.497 151.51 293.02 151.366 293.436 151.078C293.862 150.779 294.161 150.385 294.332 149.894H295.9C295.665 150.737 295.196 151.425 294.492 151.958C293.788 152.481 292.913 152.742 291.868 152.742C291.036 152.742 290.289 152.555 289.628 152.182C288.977 151.809 288.465 151.281 288.092 150.598C287.718 149.905 287.532 149.105 287.532 148.198C287.532 147.291 287.713 146.497 288.076 145.814C288.438 145.131 288.945 144.609 289.596 144.246C290.257 143.873 291.014 143.686 291.868 143.686C292.7 143.686 293.436 143.867 294.076 144.23C294.716 144.593 295.206 145.094 295.548 145.734C295.9 146.363 296.076 147.078 296.076 147.878ZM294.572 147.574C294.572 147.019 294.449 146.545 294.204 146.15C293.958 145.745 293.622 145.441 293.196 145.238C292.78 145.025 292.316 144.918 291.804 144.918C291.068 144.918 290.438 145.153 289.916 145.622C289.404 146.091 289.11 146.742 289.036 147.574H294.572ZM301.262 151.254L303.982 143.83H305.534L302.094 152.598H300.398L296.958 143.83H298.526L301.262 151.254ZM314.966 147.878C314.966 148.155 314.95 148.449 314.918 148.758H307.91C307.964 149.622 308.257 150.299 308.79 150.79C309.334 151.27 309.99 151.51 310.758 151.51C311.388 151.51 311.91 151.366 312.326 151.078C312.753 150.779 313.052 150.385 313.222 149.894H314.79C314.556 150.737 314.086 151.425 313.382 151.958C312.678 152.481 311.804 152.742 310.758 152.742C309.926 152.742 309.18 152.555 308.518 152.182C307.868 151.809 307.356 151.281 306.982 150.598C306.609 149.905 306.422 149.105 306.422 148.198C306.422 147.291 306.604 146.497 306.966 145.814C307.329 145.131 307.836 144.609 308.486 144.246C309.148 143.873 309.905 143.686 310.758 143.686C311.59 143.686 312.326 143.867 312.966 144.23C313.606 144.593 314.097 145.094 314.438 145.734C314.79 146.363 314.966 147.078 314.966 147.878ZM313.462 147.574C313.462 147.019 313.34 146.545 313.094 146.15C312.849 145.745 312.513 145.441 312.086 145.238C311.67 145.025 311.206 144.918 310.694 144.918C309.958 144.918 309.329 145.153 308.806 145.622C308.294 146.091 308.001 146.742 307.926 147.574H313.462ZM318.344 145.254C318.6 144.753 318.963 144.363 319.432 144.086C319.912 143.809 320.494 143.67 321.176 143.67V145.174H320.792C319.16 145.174 318.344 146.059 318.344 147.83V152.598H316.888V143.83H318.344V145.254ZM330.409 143.83L325.129 156.726H323.625L325.353 152.502L321.817 143.83H323.433L326.185 150.934L328.905 143.83H330.409ZM335.697 152.742C334.875 152.742 334.129 152.555 333.457 152.182C332.795 151.809 332.273 151.281 331.889 150.598C331.515 149.905 331.329 149.105 331.329 148.198C331.329 147.302 331.521 146.513 331.905 145.83C332.299 145.137 332.833 144.609 333.505 144.246C334.177 143.873 334.929 143.686 335.761 143.686C336.593 143.686 337.345 143.873 338.017 144.246C338.689 144.609 339.217 145.131 339.601 145.814C339.995 146.497 340.193 147.291 340.193 148.198C340.193 149.105 339.99 149.905 339.585 150.598C339.19 151.281 338.651 151.809 337.969 152.182C337.286 152.555 336.529 152.742 335.697 152.742ZM335.697 151.462C336.219 151.462 336.71 151.339 337.169 151.094C337.627 150.849 337.995 150.481 338.273 149.99C338.561 149.499 338.705 148.902 338.705 148.198C338.705 147.494 338.566 146.897 338.289 146.406C338.011 145.915 337.649 145.553 337.201 145.318C336.753 145.073 336.267 144.95 335.745 144.95C335.211 144.95 334.721 145.073 334.273 145.318C333.835 145.553 333.483 145.915 333.217 146.406C332.95 146.897 332.817 147.494 332.817 148.198C332.817 148.913 332.945 149.515 333.201 150.006C333.467 150.497 333.819 150.865 334.257 151.11C334.694 151.345 335.174 151.462 335.697 151.462ZM346.379 143.67C347.446 143.67 348.31 143.995 348.971 144.646C349.632 145.286 349.963 146.214 349.963 147.43V152.598H348.523V147.638C348.523 146.763 348.304 146.097 347.867 145.638C347.43 145.169 346.832 144.934 346.075 144.934C345.307 144.934 344.694 145.174 344.235 145.654C343.787 146.134 343.563 146.833 343.563 147.75V152.598H342.107V143.83H343.563V145.078C343.851 144.63 344.24 144.283 344.731 144.038C345.232 143.793 345.782 143.67 346.379 143.67ZM360.341 147.878C360.341 148.155 360.325 148.449 360.293 148.758H353.285C353.339 149.622 353.632 150.299 354.165 150.79C354.709 151.27 355.365 151.51 356.133 151.51C356.763 151.51 357.285 151.366 357.701 151.078C358.128 150.779 358.427 150.385 358.597 149.894H360.165C359.931 150.737 359.461 151.425 358.757 151.958C358.053 152.481 357.179 152.742 356.133 152.742C355.301 152.742 354.555 152.555 353.893 152.182C353.243 151.809 352.731 151.281 352.357 150.598C351.984 149.905 351.797 149.105 351.797 148.198C351.797 147.291 351.979 146.497 352.341 145.814C352.704 145.131 353.211 144.609 353.861 144.246C354.523 143.873 355.28 143.686 356.133 143.686C356.965 143.686 357.701 143.867 358.341 144.23C358.981 144.593 359.472 145.094 359.813 145.734C360.165 146.363 360.341 147.078 360.341 147.878ZM358.837 147.574C358.837 147.019 358.715 146.545 358.469 146.15C358.224 145.745 357.888 145.441 357.461 145.238C357.045 145.025 356.581 144.918 356.069 144.918C355.333 144.918 354.704 145.153 354.181 145.622C353.669 146.091 353.376 146.742 353.301 147.574H358.837ZM362.727 152.694C362.45 152.694 362.215 152.598 362.023 152.406C361.831 152.214 361.735 151.979 361.735 151.702C361.735 151.425 361.831 151.19 362.023 150.998C362.215 150.806 362.45 150.71 362.727 150.71C362.994 150.71 363.218 150.806 363.399 150.998C363.591 151.19 363.687 151.425 363.687 151.702C363.687 151.979 363.591 152.214 363.399 152.406C363.218 152.598 362.994 152.694 362.727 152.694ZM71.248 165.446L68.016 176.598H66.384L63.792 167.622L61.104 176.598L59.488 176.614L56.368 165.446H57.92L60.352 174.902L63.04 165.446H64.672L67.232 174.87L69.68 165.446H71.248ZM80.8414 171.878C80.8414 172.155 80.8254 172.449 80.7934 172.758H73.7854C73.8387 173.622 74.132 174.299 74.6654 174.79C75.2094 175.27 75.8654 175.51 76.6334 175.51C77.2627 175.51 77.7854 175.366 78.2014 175.078C78.628 174.779 78.9267 174.385 79.0974 173.894H80.6654C80.4307 174.737 79.9614 175.425 79.2574 175.958C78.5534 176.481 77.6787 176.742 76.6334 176.742C75.8014 176.742 75.0547 176.555 74.3934 176.182C73.7427 175.809 73.2307 175.281 72.8574 174.598C72.484 173.905 72.2974 173.105 72.2974 172.198C72.2974 171.291 72.4787 170.497 72.8414 169.814C73.204 169.131 73.7107 168.609 74.3614 168.246C75.0227 167.873 75.78 167.686 76.6334 167.686C77.4654 167.686 78.2014 167.867 78.8414 168.23C79.4814 168.593 79.972 169.094 80.3134 169.734C80.6654 170.363 80.8414 171.078 80.8414 171.878ZM79.3374 171.574C79.3374 171.019 79.2147 170.545 78.9694 170.15C78.724 169.745 78.388 169.441 77.9614 169.238C77.5454 169.025 77.0814 168.918 76.5694 168.918C75.8334 168.918 75.204 169.153 74.6814 169.622C74.1694 170.091 73.876 170.742 73.8014 171.574H79.3374ZM88.4849 169.446C88.7729 168.945 89.1995 168.529 89.7649 168.198C90.3409 167.857 91.0075 167.686 91.7649 167.686C92.5435 167.686 93.2475 167.873 93.8769 168.246C94.5169 168.619 95.0182 169.147 95.3809 169.83C95.7435 170.502 95.9249 171.286 95.9249 172.182C95.9249 173.067 95.7435 173.857 95.3809 174.55C95.0182 175.243 94.5169 175.782 93.8769 176.166C93.2475 176.55 92.5435 176.742 91.7649 176.742C91.0182 176.742 90.3569 176.577 89.7809 176.246C89.2155 175.905 88.7835 175.483 88.4849 174.982V180.758H87.0289V167.83H88.4849V169.446ZM94.4369 172.182C94.4369 171.521 94.3035 170.945 94.0369 170.454C93.7702 169.963 93.4075 169.59 92.9489 169.334C92.5009 169.078 92.0049 168.95 91.4609 168.95C90.9275 168.95 90.4315 169.083 89.9729 169.35C89.5249 169.606 89.1622 169.985 88.8849 170.486C88.6182 170.977 88.4849 171.547 88.4849 172.198C88.4849 172.859 88.6182 173.441 88.8849 173.942C89.1622 174.433 89.5249 174.811 89.9729 175.078C90.4315 175.334 90.9275 175.462 91.4609 175.462C92.0049 175.462 92.5009 175.334 92.9489 175.078C93.4075 174.811 93.7702 174.433 94.0369 173.942C94.3035 173.441 94.4369 172.854 94.4369 172.182ZM99.2974 169.254C99.5534 168.753 99.916 168.363 100.385 168.086C100.865 167.809 101.447 167.67 102.129 167.67V169.174H101.745C100.113 169.174 99.2974 170.059 99.2974 171.83V176.598H97.8414V167.83H99.2974V169.254ZM107.634 176.742C106.813 176.742 106.066 176.555 105.394 176.182C104.733 175.809 104.21 175.281 103.826 174.598C103.453 173.905 103.266 173.105 103.266 172.198C103.266 171.302 103.458 170.513 103.842 169.83C104.237 169.137 104.77 168.609 105.442 168.246C106.114 167.873 106.866 167.686 107.698 167.686C108.53 167.686 109.282 167.873 109.954 168.246C110.626 168.609 111.154 169.131 111.538 169.814C111.933 170.497 112.13 171.291 112.13 172.198C112.13 173.105 111.927 173.905 111.522 174.598C111.127 175.281 110.589 175.809 109.906 176.182C109.223 176.555 108.466 176.742 107.634 176.742ZM107.634 175.462C108.157 175.462 108.647 175.339 109.106 175.094C109.565 174.849 109.933 174.481 110.21 173.99C110.498 173.499 110.642 172.902 110.642 172.198C110.642 171.494 110.503 170.897 110.226 170.406C109.949 169.915 109.586 169.553 109.138 169.318C108.69 169.073 108.205 168.95 107.682 168.95C107.149 168.95 106.658 169.073 106.21 169.318C105.773 169.553 105.421 169.915 105.154 170.406C104.887 170.897 104.754 171.494 104.754 172.198C104.754 172.913 104.882 173.515 105.138 174.006C105.405 174.497 105.757 174.865 106.194 175.11C106.631 175.345 107.111 175.462 107.634 175.462ZM117.309 175.254L120.029 167.83H121.581L118.141 176.598H116.445L113.005 167.83H114.573L117.309 175.254ZM123.765 166.406C123.488 166.406 123.253 166.31 123.061 166.118C122.869 165.926 122.773 165.691 122.773 165.414C122.773 165.137 122.869 164.902 123.061 164.71C123.253 164.518 123.488 164.422 123.765 164.422C124.032 164.422 124.256 164.518 124.437 164.71C124.629 164.902 124.725 165.137 124.725 165.414C124.725 165.691 124.629 165.926 124.437 166.118C124.256 166.31 124.032 166.406 123.765 166.406ZM124.469 167.83V176.598H123.013V167.83H124.469ZM126.407 172.182C126.407 171.286 126.588 170.502 126.951 169.83C127.313 169.147 127.809 168.619 128.439 168.246C129.079 167.873 129.793 167.686 130.583 167.686C131.265 167.686 131.9 167.846 132.487 168.166C133.073 168.475 133.521 168.886 133.831 169.398V164.758H135.303V176.598H133.831V174.95C133.543 175.473 133.116 175.905 132.551 176.246C131.985 176.577 131.324 176.742 130.567 176.742C129.788 176.742 129.079 176.55 128.439 176.166C127.809 175.782 127.313 175.243 126.951 174.55C126.588 173.857 126.407 173.067 126.407 172.182ZM133.831 172.198C133.831 171.537 133.697 170.961 133.431 170.47C133.164 169.979 132.801 169.606 132.343 169.35C131.895 169.083 131.399 168.95 130.855 168.95C130.311 168.95 129.815 169.078 129.367 169.334C128.919 169.59 128.561 169.963 128.295 170.454C128.028 170.945 127.895 171.521 127.895 172.182C127.895 172.854 128.028 173.441 128.295 173.942C128.561 174.433 128.919 174.811 129.367 175.078C129.815 175.334 130.311 175.462 130.855 175.462C131.399 175.462 131.895 175.334 132.343 175.078C132.801 174.811 133.164 174.433 133.431 173.942C133.697 173.441 133.831 172.859 133.831 172.198ZM145.763 171.878C145.763 172.155 145.747 172.449 145.715 172.758H138.707C138.761 173.622 139.054 174.299 139.587 174.79C140.131 175.27 140.787 175.51 141.555 175.51C142.185 175.51 142.707 175.366 143.123 175.078C143.55 174.779 143.849 174.385 144.019 173.894H145.587C145.353 174.737 144.883 175.425 144.179 175.958C143.475 176.481 142.601 176.742 141.555 176.742C140.723 176.742 139.977 176.555 139.315 176.182C138.665 175.809 138.153 175.281 137.779 174.598C137.406 173.905 137.219 173.105 137.219 172.198C137.219 171.291 137.401 170.497 137.763 169.814C138.126 169.131 138.633 168.609 139.283 168.246C139.945 167.873 140.702 167.686 141.555 167.686C142.387 167.686 143.123 167.867 143.763 168.23C144.403 168.593 144.894 169.094 145.235 169.734C145.587 170.363 145.763 171.078 145.763 171.878ZM144.259 171.574C144.259 171.019 144.137 170.545 143.891 170.15C143.646 169.745 143.31 169.441 142.883 169.238C142.467 169.025 142.003 168.918 141.491 168.918C140.755 168.918 140.126 169.153 139.603 169.622C139.091 170.091 138.798 170.742 138.723 171.574H144.259ZM155.519 169.03H153.679V176.598H152.223V169.03H151.087V167.83H152.223V167.206C152.223 166.225 152.473 165.51 152.975 165.062C153.487 164.603 154.303 164.374 155.423 164.374V165.59C154.783 165.59 154.329 165.718 154.063 165.974C153.807 166.219 153.679 166.63 153.679 167.206V167.83H155.519V169.03ZM158.672 164.758V176.598H157.216V164.758H158.672ZM169.154 171.878C169.154 172.155 169.138 172.449 169.106 172.758H162.098C162.151 173.622 162.445 174.299 162.978 174.79C163.522 175.27 164.178 175.51 164.946 175.51C165.575 175.51 166.098 175.366 166.514 175.078C166.941 174.779 167.239 174.385 167.41 173.894H168.978C168.743 174.737 168.274 175.425 167.57 175.958C166.866 176.481 165.991 176.742 164.946 176.742C164.114 176.742 163.367 176.555 162.706 176.182C162.055 175.809 161.543 175.281 161.17 174.598C160.797 173.905 160.61 173.105 160.61 172.198C160.61 171.291 160.791 170.497 161.154 169.814C161.517 169.131 162.023 168.609 162.674 168.246C163.335 167.873 164.093 167.686 164.946 167.686C165.778 167.686 166.514 167.867 167.154 168.23C167.794 168.593 168.285 169.094 168.626 169.734C168.978 170.363 169.154 171.078 169.154 171.878ZM167.65 171.574C167.65 171.019 167.527 170.545 167.282 170.15C167.037 169.745 166.701 169.441 166.274 169.238C165.858 169.025 165.394 168.918 164.882 168.918C164.146 168.918 163.517 169.153 162.994 169.622C162.482 170.091 162.189 170.742 162.114 171.574H167.65ZM175.652 176.598L173.572 173.334L171.572 176.598H170.052L172.884 172.246L170.052 167.83H171.7L173.78 171.078L175.764 167.83H177.284L174.468 172.166L177.3 176.598H175.652ZM179.484 166.406C179.207 166.406 178.972 166.31 178.78 166.118C178.588 165.926 178.492 165.691 178.492 165.414C178.492 165.137 178.588 164.902 178.78 164.71C178.972 164.518 179.207 164.422 179.484 164.422C179.751 164.422 179.975 164.518 180.156 164.71C180.348 164.902 180.444 165.137 180.444 165.414C180.444 165.691 180.348 165.926 180.156 166.118C179.975 166.31 179.751 166.406 179.484 166.406ZM180.188 167.83V176.598H178.732V167.83H180.188ZM184.126 169.462C184.424 168.939 184.862 168.513 185.438 168.182C186.014 167.851 186.67 167.686 187.406 167.686C188.195 167.686 188.904 167.873 189.534 168.246C190.163 168.619 190.659 169.147 191.022 169.83C191.384 170.502 191.566 171.286 191.566 172.182C191.566 173.067 191.384 173.857 191.022 174.55C190.659 175.243 190.157 175.782 189.517 176.166C188.888 176.55 188.184 176.742 187.406 176.742C186.648 176.742 185.982 176.577 185.406 176.246C184.84 175.915 184.414 175.494 184.126 174.982V176.598H182.67V164.758H184.126V169.462ZM190.078 172.182C190.078 171.521 189.944 170.945 189.678 170.454C189.411 169.963 189.048 169.59 188.59 169.334C188.142 169.078 187.646 168.95 187.102 168.95C186.568 168.95 186.072 169.083 185.614 169.35C185.166 169.606 184.803 169.985 184.526 170.486C184.259 170.977 184.126 171.547 184.126 172.198C184.126 172.859 184.259 173.441 184.526 173.942C184.803 174.433 185.166 174.811 185.614 175.078C186.072 175.334 186.568 175.462 187.102 175.462C187.646 175.462 188.142 175.334 188.59 175.078C189.048 174.811 189.411 174.433 189.678 173.942C189.944 173.441 190.078 172.854 190.078 172.182ZM194.938 164.758V176.598H193.482V164.758H194.938ZM205.42 171.878C205.42 172.155 205.404 172.449 205.372 172.758H198.364C198.417 173.622 198.71 174.299 199.244 174.79C199.788 175.27 200.444 175.51 201.212 175.51C201.841 175.51 202.364 175.366 202.78 175.078C203.206 174.779 203.505 174.385 203.676 173.894H205.244C205.009 174.737 204.54 175.425 203.836 175.958C203.132 176.481 202.257 176.742 201.212 176.742C200.38 176.742 199.633 176.555 198.972 176.182C198.321 175.809 197.809 175.281 197.436 174.598C197.062 173.905 196.876 173.105 196.876 172.198C196.876 171.291 197.057 170.497 197.42 169.814C197.782 169.131 198.289 168.609 198.94 168.246C199.601 167.873 200.358 167.686 201.212 167.686C202.044 167.686 202.78 167.867 203.42 168.23C204.06 168.593 204.55 169.094 204.892 169.734C205.244 170.363 205.42 171.078 205.42 171.878ZM203.916 171.574C203.916 171.019 203.793 170.545 203.548 170.15C203.302 169.745 202.966 169.441 202.54 169.238C202.124 169.025 201.66 168.918 201.148 168.918C200.412 168.918 199.782 169.153 199.26 169.622C198.748 170.091 198.454 170.742 198.38 171.574H203.916ZM211.063 172.182C211.063 171.286 211.244 170.502 211.607 169.83C211.97 169.147 212.466 168.619 213.095 168.246C213.735 167.873 214.45 167.686 215.239 167.686C215.922 167.686 216.556 167.846 217.143 168.166C217.73 168.475 218.178 168.886 218.487 169.398V164.758H219.959V176.598H218.487V174.95C218.199 175.473 217.772 175.905 217.207 176.246C216.642 176.577 215.98 176.742 215.223 176.742C214.444 176.742 213.735 176.55 213.095 176.166C212.466 175.782 211.97 175.243 211.607 174.55C211.244 173.857 211.063 173.067 211.063 172.182ZM218.487 172.198C218.487 171.537 218.354 170.961 218.087 170.47C217.82 169.979 217.458 169.606 216.999 169.35C216.551 169.083 216.055 168.95 215.511 168.95C214.967 168.95 214.471 169.078 214.023 169.334C213.575 169.59 213.218 169.963 212.951 170.454C212.684 170.945 212.551 171.521 212.551 172.182C212.551 172.854 212.684 173.441 212.951 173.942C213.218 174.433 213.575 174.811 214.023 175.078C214.471 175.334 214.967 175.462 215.511 175.462C216.055 175.462 216.551 175.334 216.999 175.078C217.458 174.811 217.82 174.433 218.087 173.942C218.354 173.441 218.487 172.859 218.487 172.198ZM223.172 166.406C222.894 166.406 222.66 166.31 222.468 166.118C222.276 165.926 222.18 165.691 222.18 165.414C222.18 165.137 222.276 164.902 222.468 164.71C222.66 164.518 222.894 164.422 223.172 164.422C223.438 164.422 223.662 164.518 223.844 164.71C224.036 164.902 224.132 165.137 224.132 165.414C224.132 165.691 224.036 165.926 223.844 166.118C223.662 166.31 223.438 166.406 223.172 166.406ZM223.876 167.83V176.598H222.42V167.83H223.876ZM229.461 176.742C228.789 176.742 228.186 176.63 227.653 176.406C227.12 176.171 226.698 175.851 226.389 175.446C226.08 175.03 225.909 174.555 225.877 174.022H227.381C227.424 174.459 227.626 174.817 227.989 175.094C228.362 175.371 228.848 175.51 229.445 175.51C230 175.51 230.437 175.387 230.757 175.142C231.077 174.897 231.237 174.587 231.237 174.214C231.237 173.83 231.066 173.547 230.725 173.366C230.384 173.174 229.856 172.987 229.141 172.806C228.49 172.635 227.957 172.465 227.541 172.294C227.136 172.113 226.784 171.851 226.485 171.51C226.197 171.158 226.053 170.699 226.053 170.134C226.053 169.686 226.186 169.275 226.453 168.902C226.72 168.529 227.098 168.235 227.589 168.022C228.08 167.798 228.64 167.686 229.269 167.686C230.24 167.686 231.024 167.931 231.621 168.422C232.218 168.913 232.538 169.585 232.581 170.438H231.125C231.093 169.979 230.906 169.611 230.565 169.334C230.234 169.057 229.786 168.918 229.221 168.918C228.698 168.918 228.282 169.03 227.973 169.254C227.664 169.478 227.509 169.771 227.509 170.134C227.509 170.422 227.6 170.662 227.781 170.854C227.973 171.035 228.208 171.185 228.485 171.302C228.773 171.409 229.168 171.531 229.669 171.67C230.298 171.841 230.81 172.011 231.205 172.182C231.6 172.342 231.936 172.587 232.213 172.918C232.501 173.249 232.65 173.681 232.661 174.214C232.661 174.694 232.528 175.126 232.261 175.51C231.994 175.894 231.616 176.198 231.125 176.422C230.645 176.635 230.09 176.742 229.461 176.742ZM234.172 172.198C234.172 171.291 234.354 170.502 234.716 169.83C235.079 169.147 235.58 168.619 236.22 168.246C236.871 167.873 237.612 167.686 238.444 167.686C239.522 167.686 240.407 167.947 241.1 168.47C241.804 168.993 242.268 169.718 242.492 170.646H240.924C240.775 170.113 240.482 169.691 240.044 169.382C239.618 169.073 239.084 168.918 238.444 168.918C237.612 168.918 236.94 169.206 236.428 169.782C235.916 170.347 235.66 171.153 235.66 172.198C235.66 173.254 235.916 174.07 236.428 174.646C236.94 175.222 237.612 175.51 238.444 175.51C239.084 175.51 239.618 175.361 240.044 175.062C240.471 174.763 240.764 174.337 240.924 173.782H242.492C242.258 174.678 241.788 175.398 241.084 175.942C240.38 176.475 239.5 176.742 238.444 176.742C237.612 176.742 236.871 176.555 236.22 176.182C235.58 175.809 235.079 175.281 234.716 174.598C234.354 173.915 234.172 173.115 234.172 172.198ZM248.259 176.742C247.438 176.742 246.691 176.555 246.019 176.182C245.358 175.809 244.835 175.281 244.451 174.598C244.078 173.905 243.891 173.105 243.891 172.198C243.891 171.302 244.083 170.513 244.467 169.83C244.862 169.137 245.395 168.609 246.067 168.246C246.739 167.873 247.491 167.686 248.323 167.686C249.155 167.686 249.907 167.873 250.579 168.246C251.251 168.609 251.779 169.131 252.163 169.814C252.558 170.497 252.755 171.291 252.755 172.198C252.755 173.105 252.552 173.905 252.147 174.598C251.752 175.281 251.214 175.809 250.531 176.182C249.848 176.555 249.091 176.742 248.259 176.742ZM248.259 175.462C248.782 175.462 249.272 175.339 249.731 175.094C250.19 174.849 250.558 174.481 250.835 173.99C251.123 173.499 251.267 172.902 251.267 172.198C251.267 171.494 251.128 170.897 250.851 170.406C250.574 169.915 250.211 169.553 249.763 169.318C249.315 169.073 248.83 168.95 248.307 168.95C247.774 168.95 247.283 169.073 246.835 169.318C246.398 169.553 246.046 169.915 245.779 170.406C245.512 170.897 245.379 171.494 245.379 172.198C245.379 172.913 245.507 173.515 245.763 174.006C246.03 174.497 246.382 174.865 246.819 175.11C247.256 175.345 247.736 175.462 248.259 175.462ZM262.446 167.83V176.598H260.99V175.302C260.712 175.75 260.323 176.102 259.822 176.358C259.331 176.603 258.787 176.726 258.19 176.726C257.507 176.726 256.894 176.587 256.35 176.31C255.806 176.022 255.374 175.595 255.054 175.03C254.744 174.465 254.59 173.777 254.59 172.966V167.83H256.03V172.774C256.03 173.638 256.248 174.305 256.686 174.774C257.123 175.233 257.72 175.462 258.478 175.462C259.256 175.462 259.87 175.222 260.318 174.742C260.766 174.262 260.99 173.563 260.99 172.646V167.83H262.446ZM269.176 167.67C270.243 167.67 271.107 167.995 271.768 168.646C272.429 169.286 272.76 170.214 272.76 171.43V176.598H271.32V171.638C271.32 170.763 271.101 170.097 270.664 169.638C270.227 169.169 269.629 168.934 268.872 168.934C268.104 168.934 267.491 169.174 267.032 169.654C266.584 170.134 266.36 170.833 266.36 171.75V176.598H264.904V167.83H266.36V169.078C266.648 168.63 267.037 168.283 267.528 168.038C268.029 167.793 268.579 167.67 269.176 167.67ZM276.914 169.03V174.198C276.914 174.625 277.005 174.929 277.186 175.11C277.368 175.281 277.682 175.366 278.13 175.366H279.202V176.598H277.89C277.08 176.598 276.472 176.411 276.066 176.038C275.661 175.665 275.458 175.051 275.458 174.198V169.03H274.322V167.83H275.458V165.622H276.914V167.83H279.202V169.03H276.914ZM284.07 176.742C283.398 176.742 282.796 176.63 282.262 176.406C281.729 176.171 281.308 175.851 280.998 175.446C280.689 175.03 280.518 174.555 280.486 174.022H281.99C282.033 174.459 282.236 174.817 282.598 175.094C282.972 175.371 283.457 175.51 284.054 175.51C284.609 175.51 285.046 175.387 285.366 175.142C285.686 174.897 285.846 174.587 285.846 174.214C285.846 173.83 285.676 173.547 285.334 173.366C284.993 173.174 284.465 172.987 283.75 172.806C283.1 172.635 282.566 172.465 282.15 172.294C281.745 172.113 281.393 171.851 281.094 171.51C280.806 171.158 280.662 170.699 280.662 170.134C280.662 169.686 280.796 169.275 281.062 168.902C281.329 168.529 281.708 168.235 282.198 168.022C282.689 167.798 283.249 167.686 283.878 167.686C284.849 167.686 285.633 167.931 286.23 168.422C286.828 168.913 287.148 169.585 287.19 170.438H285.734C285.702 169.979 285.516 169.611 285.174 169.334C284.844 169.057 284.396 168.918 283.83 168.918C283.308 168.918 282.892 169.03 282.582 169.254C282.273 169.478 282.118 169.771 282.118 170.134C282.118 170.422 282.209 170.662 282.39 170.854C282.582 171.035 282.817 171.185 283.094 171.302C283.382 171.409 283.777 171.531 284.278 171.67C284.908 171.841 285.42 172.011 285.814 172.182C286.209 172.342 286.545 172.587 286.822 172.918C287.11 173.249 287.26 173.681 287.27 174.214C287.27 174.694 287.137 175.126 286.87 175.51C286.604 175.894 286.225 176.198 285.734 176.422C285.254 176.635 284.7 176.742 284.07 176.742ZM296.695 176.742C296.023 176.742 295.421 176.63 294.887 176.406C294.354 176.171 293.933 175.851 293.623 175.446C293.314 175.03 293.143 174.555 293.111 174.022H294.615C294.658 174.459 294.861 174.817 295.223 175.094C295.597 175.371 296.082 175.51 296.679 175.51C297.234 175.51 297.671 175.387 297.991 175.142C298.311 174.897 298.471 174.587 298.471 174.214C298.471 173.83 298.301 173.547 297.959 173.366C297.618 173.174 297.09 172.987 296.375 172.806C295.725 172.635 295.191 172.465 294.775 172.294C294.37 172.113 294.018 171.851 293.719 171.51C293.431 171.158 293.287 170.699 293.287 170.134C293.287 169.686 293.421 169.275 293.687 168.902C293.954 168.529 294.333 168.235 294.823 168.022C295.314 167.798 295.874 167.686 296.503 167.686C297.474 167.686 298.258 167.931 298.855 168.422C299.453 168.913 299.773 169.585 299.815 170.438H298.359C298.327 169.979 298.141 169.611 297.799 169.334C297.469 169.057 297.021 168.918 296.455 168.918C295.933 168.918 295.517 169.03 295.207 169.254C294.898 169.478 294.743 169.771 294.743 170.134C294.743 170.422 294.834 170.662 295.015 170.854C295.207 171.035 295.442 171.185 295.719 171.302C296.007 171.409 296.402 171.531 296.903 171.67C297.533 171.841 298.045 172.011 298.439 172.182C298.834 172.342 299.17 172.587 299.447 172.918C299.735 173.249 299.885 173.681 299.895 174.214C299.895 174.694 299.762 175.126 299.495 175.51C299.229 175.894 298.85 176.198 298.359 176.422C297.879 176.635 297.325 176.742 296.695 176.742ZM305.775 176.742C304.953 176.742 304.207 176.555 303.535 176.182C302.873 175.809 302.351 175.281 301.967 174.598C301.593 173.905 301.407 173.105 301.407 172.198C301.407 171.302 301.599 170.513 301.983 169.83C302.377 169.137 302.911 168.609 303.583 168.246C304.255 167.873 305.007 167.686 305.839 167.686C306.671 167.686 307.423 167.873 308.095 168.246C308.767 168.609 309.295 169.131 309.679 169.814C310.073 170.497 310.271 171.291 310.271 172.198C310.271 173.105 310.068 173.905 309.663 174.598C309.268 175.281 308.729 175.809 308.047 176.182C307.364 176.555 306.607 176.742 305.775 176.742ZM305.775 175.462C306.297 175.462 306.788 175.339 307.247 175.094C307.705 174.849 308.073 174.481 308.351 173.99C308.639 173.499 308.783 172.902 308.783 172.198C308.783 171.494 308.644 170.897 308.367 170.406C308.089 169.915 307.727 169.553 307.279 169.318C306.831 169.073 306.345 168.95 305.823 168.95C305.289 168.95 304.799 169.073 304.351 169.318C303.913 169.553 303.561 169.915 303.295 170.406C303.028 170.897 302.895 171.494 302.895 172.198C302.895 172.913 303.023 173.515 303.279 174.006C303.545 174.497 303.897 174.865 304.335 175.11C304.772 175.345 305.252 175.462 305.775 175.462ZM324.003 167.83L318.723 180.726H317.219L318.947 176.502L315.411 167.83H317.027L319.779 174.934L322.499 167.83H324.003ZM329.29 176.742C328.469 176.742 327.722 176.555 327.05 176.182C326.389 175.809 325.866 175.281 325.482 174.598C325.109 173.905 324.922 173.105 324.922 172.198C324.922 171.302 325.114 170.513 325.498 169.83C325.893 169.137 326.426 168.609 327.098 168.246C327.77 167.873 328.522 167.686 329.354 167.686C330.186 167.686 330.938 167.873 331.61 168.246C332.282 168.609 332.81 169.131 333.194 169.814C333.589 170.497 333.786 171.291 333.786 172.198C333.786 173.105 333.584 173.905 333.178 174.598C332.784 175.281 332.245 175.809 331.562 176.182C330.88 176.555 330.122 176.742 329.29 176.742ZM329.29 175.462C329.813 175.462 330.304 175.339 330.762 175.094C331.221 174.849 331.589 174.481 331.866 173.99C332.154 173.499 332.298 172.902 332.298 172.198C332.298 171.494 332.16 170.897 331.882 170.406C331.605 169.915 331.242 169.553 330.794 169.318C330.346 169.073 329.861 168.95 329.338 168.95C328.805 168.95 328.314 169.073 327.866 169.318C327.429 169.553 327.077 169.915 326.81 170.406C326.544 170.897 326.41 171.494 326.41 172.198C326.41 172.913 326.538 173.515 326.794 174.006C327.061 174.497 327.413 174.865 327.85 175.11C328.288 175.345 328.768 175.462 329.29 175.462ZM343.477 167.83V176.598H342.021V175.302C341.743 175.75 341.354 176.102 340.853 176.358C340.362 176.603 339.818 176.726 339.221 176.726C338.538 176.726 337.925 176.587 337.381 176.31C336.837 176.022 336.405 175.595 336.085 175.03C335.775 174.465 335.621 173.777 335.621 172.966V167.83H337.061V172.774C337.061 173.638 337.279 174.305 337.717 174.774C338.154 175.233 338.751 175.462 339.509 175.462C340.287 175.462 340.901 175.222 341.349 174.742C341.797 174.262 342.021 173.563 342.021 172.646V167.83H343.477ZM56.688 196.198C56.688 195.291 56.8693 194.502 57.232 193.83C57.5947 193.147 58.096 192.619 58.736 192.246C59.3867 191.873 60.128 191.686 60.96 191.686C62.0373 191.686 62.9227 191.947 63.616 192.47C64.32 192.993 64.784 193.718 65.008 194.646H63.44C63.2907 194.113 62.9973 193.691 62.56 193.382C62.1333 193.073 61.6 192.918 60.96 192.918C60.128 192.918 59.456 193.206 58.944 193.782C58.432 194.347 58.176 195.153 58.176 196.198C58.176 197.254 58.432 198.07 58.944 198.646C59.456 199.222 60.128 199.51 60.96 199.51C61.6 199.51 62.1333 199.361 62.56 199.062C62.9867 198.763 63.28 198.337 63.44 197.782H65.008C64.7733 198.678 64.304 199.398 63.6 199.942C62.896 200.475 62.016 200.742 60.96 200.742C60.128 200.742 59.3867 200.555 58.736 200.182C58.096 199.809 57.5947 199.281 57.232 198.598C56.8693 197.915 56.688 197.115 56.688 196.198ZM66.4068 196.182C66.4068 195.286 66.5881 194.502 66.9508 193.83C67.3134 193.147 67.8094 192.619 68.4388 192.246C69.0788 191.873 69.7881 191.686 70.5668 191.686C71.3348 191.686 72.0014 191.851 72.5668 192.182C73.1321 192.513 73.5534 192.929 73.8308 193.43V191.83H75.3028V200.598H73.8308V198.966C73.5428 199.478 73.1108 199.905 72.5348 200.246C71.9694 200.577 71.3081 200.742 70.5508 200.742C69.7721 200.742 69.0681 200.55 68.4388 200.166C67.8094 199.782 67.3134 199.243 66.9508 198.55C66.5881 197.857 66.4068 197.067 66.4068 196.182ZM73.8308 196.198C73.8308 195.537 73.6974 194.961 73.4308 194.47C73.1641 193.979 72.8014 193.606 72.3428 193.35C71.8948 193.083 71.3988 192.95 70.8548 192.95C70.3108 192.95 69.8148 193.078 69.3668 193.334C68.9188 193.59 68.5614 193.963 68.2948 194.454C68.0281 194.945 67.8948 195.521 67.8948 196.182C67.8948 196.854 68.0281 197.441 68.2948 197.942C68.5614 198.433 68.9188 198.811 69.3668 199.078C69.8148 199.334 70.3108 199.462 70.8548 199.462C71.3988 199.462 71.8948 199.334 72.3428 199.078C72.8014 198.811 73.1641 198.433 73.4308 197.942C73.6974 197.441 73.8308 196.859 73.8308 196.198ZM82.0353 191.67C83.1019 191.67 83.9659 191.995 84.6273 192.646C85.2886 193.286 85.6193 194.214 85.6193 195.43V200.598H84.1793V195.638C84.1793 194.763 83.9606 194.097 83.5233 193.638C83.0859 193.169 82.4886 192.934 81.7313 192.934C80.9633 192.934 80.3499 193.174 79.8913 193.654C79.4433 194.134 79.2193 194.833 79.2193 195.75V200.598H77.7633V191.83H79.2193V193.078C79.5073 192.63 79.8966 192.283 80.3873 192.038C80.8886 191.793 81.4379 191.67 82.0353 191.67ZM100.039 191.83V200.598H98.5833V199.302C98.3059 199.75 97.9166 200.102 97.4153 200.358C96.9246 200.603 96.3806 200.726 95.7833 200.726C95.1006 200.726 94.4873 200.587 93.9433 200.31C93.3993 200.022 92.9673 199.595 92.6473 199.03C92.3379 198.465 92.1833 197.777 92.1833 196.966V191.83H93.6233V196.774C93.6233 197.638 93.8419 198.305 94.2793 198.774C94.7166 199.233 95.3139 199.462 96.0713 199.462C96.8499 199.462 97.4633 199.222 97.9113 198.742C98.3593 198.262 98.5833 197.563 98.5833 196.646V191.83H100.039ZM105.602 200.742C104.93 200.742 104.327 200.63 103.794 200.406C103.26 200.171 102.839 199.851 102.53 199.446C102.22 199.03 102.05 198.555 102.018 198.022H103.522C103.564 198.459 103.767 198.817 104.13 199.094C104.503 199.371 104.988 199.51 105.586 199.51C106.14 199.51 106.578 199.387 106.898 199.142C107.218 198.897 107.378 198.587 107.378 198.214C107.378 197.83 107.207 197.547 106.866 197.366C106.524 197.174 105.996 196.987 105.282 196.806C104.631 196.635 104.098 196.465 103.682 196.294C103.276 196.113 102.924 195.851 102.626 195.51C102.338 195.158 102.194 194.699 102.194 194.134C102.194 193.686 102.327 193.275 102.594 192.902C102.86 192.529 103.239 192.235 103.73 192.022C104.22 191.798 104.78 191.686 105.41 191.686C106.38 191.686 107.164 191.931 107.762 192.422C108.359 192.913 108.679 193.585 108.722 194.438H107.266C107.234 193.979 107.047 193.611 106.706 193.334C106.375 193.057 105.927 192.918 105.362 192.918C104.839 192.918 104.423 193.03 104.114 193.254C103.804 193.478 103.65 193.771 103.65 194.134C103.65 194.422 103.74 194.662 103.922 194.854C104.114 195.035 104.348 195.185 104.626 195.302C104.914 195.409 105.308 195.531 105.81 195.67C106.439 195.841 106.951 196.011 107.346 196.182C107.74 196.342 108.076 196.587 108.354 196.918C108.642 197.249 108.791 197.681 108.802 198.214C108.802 198.694 108.668 199.126 108.402 199.51C108.135 199.894 107.756 200.198 107.266 200.422C106.786 200.635 106.231 200.742 105.602 200.742ZM118.857 195.878C118.857 196.155 118.841 196.449 118.809 196.758H111.801C111.854 197.622 112.148 198.299 112.681 198.79C113.225 199.27 113.881 199.51 114.649 199.51C115.278 199.51 115.801 199.366 116.217 199.078C116.644 198.779 116.942 198.385 117.113 197.894H118.681C118.446 198.737 117.977 199.425 117.273 199.958C116.569 200.481 115.694 200.742 114.649 200.742C113.817 200.742 113.07 200.555 112.409 200.182C111.758 199.809 111.246 199.281 110.873 198.598C110.5 197.905 110.313 197.105 110.313 196.198C110.313 195.291 110.494 194.497 110.857 193.814C111.22 193.131 111.726 192.609 112.377 192.246C113.038 191.873 113.796 191.686 114.649 191.686C115.481 191.686 116.217 191.867 116.857 192.23C117.497 192.593 117.988 193.094 118.329 193.734C118.681 194.363 118.857 195.078 118.857 195.878ZM117.353 195.574C117.353 195.019 117.23 194.545 116.985 194.15C116.74 193.745 116.404 193.441 115.977 193.238C115.561 193.025 115.097 192.918 114.585 192.918C113.849 192.918 113.22 193.153 112.697 193.622C112.185 194.091 111.892 194.742 111.817 195.574H117.353ZM124.501 196.182C124.501 195.286 124.682 194.502 125.045 193.83C125.407 193.147 125.903 192.619 126.533 192.246C127.173 191.873 127.882 191.686 128.661 191.686C129.429 191.686 130.095 191.851 130.661 192.182C131.226 192.513 131.647 192.929 131.925 193.43V191.83H133.397V200.598H131.925V198.966C131.637 199.478 131.205 199.905 130.629 200.246C130.063 200.577 129.402 200.742 128.645 200.742C127.866 200.742 127.162 200.55 126.533 200.166C125.903 199.782 125.407 199.243 125.045 198.55C124.682 197.857 124.501 197.067 124.501 196.182ZM131.925 196.198C131.925 195.537 131.791 194.961 131.525 194.47C131.258 193.979 130.895 193.606 130.437 193.35C129.989 193.083 129.493 192.95 128.949 192.95C128.405 192.95 127.909 193.078 127.461 193.334C127.013 193.59 126.655 193.963 126.389 194.454C126.122 194.945 125.989 195.521 125.989 196.182C125.989 196.854 126.122 197.441 126.389 197.942C126.655 198.433 127.013 198.811 127.461 199.078C127.909 199.334 128.405 199.462 128.949 199.462C129.493 199.462 129.989 199.334 130.437 199.078C130.895 198.811 131.258 198.433 131.525 197.942C131.791 197.441 131.925 196.859 131.925 196.198ZM140.129 191.67C141.196 191.67 142.06 191.995 142.721 192.646C143.382 193.286 143.713 194.214 143.713 195.43V200.598H142.273V195.638C142.273 194.763 142.054 194.097 141.617 193.638C141.18 193.169 140.582 192.934 139.825 192.934C139.057 192.934 138.444 193.174 137.985 193.654C137.537 194.134 137.313 194.833 137.313 195.75V200.598H135.857V191.83H137.313V193.078C137.601 192.63 137.99 192.283 138.481 192.038C138.982 191.793 139.532 191.67 140.129 191.67ZM153.643 191.83L148.363 204.726H146.859L148.587 200.502L145.051 191.83H146.667L149.419 198.934L152.139 191.83H153.643ZM162.477 200.742C161.805 200.742 161.202 200.63 160.669 200.406C160.135 200.171 159.714 199.851 159.405 199.446C159.095 199.03 158.925 198.555 158.893 198.022H160.397C160.439 198.459 160.642 198.817 161.005 199.094C161.378 199.371 161.863 199.51 162.461 199.51C163.015 199.51 163.453 199.387 163.773 199.142C164.093 198.897 164.253 198.587 164.253 198.214C164.253 197.83 164.082 197.547 163.741 197.366C163.399 197.174 162.871 196.987 162.157 196.806C161.506 196.635 160.973 196.465 160.557 196.294C160.151 196.113 159.799 195.851 159.501 195.51C159.213 195.158 159.069 194.699 159.069 194.134C159.069 193.686 159.202 193.275 159.469 192.902C159.735 192.529 160.114 192.235 160.605 192.022C161.095 191.798 161.655 191.686 162.285 191.686C163.255 191.686 164.039 191.931 164.637 192.422C165.234 192.913 165.554 193.585 165.597 194.438H164.141C164.109 193.979 163.922 193.611 163.581 193.334C163.25 193.057 162.802 192.918 162.237 192.918C161.714 192.918 161.298 193.03 160.989 193.254C160.679 193.478 160.525 193.771 160.525 194.134C160.525 194.422 160.615 194.662 160.797 194.854C160.989 195.035 161.223 195.185 161.501 195.302C161.789 195.409 162.183 195.531 162.685 195.67C163.314 195.841 163.826 196.011 164.221 196.182C164.615 196.342 164.951 196.587 165.229 196.918C165.517 197.249 165.666 197.681 165.677 198.214C165.677 198.694 165.543 199.126 165.277 199.51C165.01 199.894 164.631 200.198 164.141 200.422C163.661 200.635 163.106 200.742 162.477 200.742ZM175.732 195.878C175.732 196.155 175.716 196.449 175.684 196.758H168.676C168.729 197.622 169.023 198.299 169.556 198.79C170.1 199.27 170.756 199.51 171.524 199.51C172.153 199.51 172.676 199.366 173.092 199.078C173.519 198.779 173.817 198.385 173.988 197.894H175.556C175.321 198.737 174.852 199.425 174.148 199.958C173.444 200.481 172.569 200.742 171.524 200.742C170.692 200.742 169.945 200.555 169.284 200.182C168.633 199.809 168.121 199.281 167.748 198.598C167.375 197.905 167.188 197.105 167.188 196.198C167.188 195.291 167.369 194.497 167.732 193.814C168.095 193.131 168.601 192.609 169.252 192.246C169.913 191.873 170.671 191.686 171.524 191.686C172.356 191.686 173.092 191.867 173.732 192.23C174.372 192.593 174.863 193.094 175.204 193.734C175.556 194.363 175.732 195.078 175.732 195.878ZM174.228 195.574C174.228 195.019 174.105 194.545 173.86 194.15C173.615 193.745 173.279 193.441 172.852 193.238C172.436 193.025 171.972 192.918 171.46 192.918C170.724 192.918 170.095 193.153 169.572 193.622C169.06 194.091 168.767 194.742 168.692 195.574H174.228ZM179.11 193.254C179.366 192.753 179.729 192.363 180.198 192.086C180.678 191.809 181.259 191.67 181.942 191.67V193.174H181.558C179.926 193.174 179.11 194.059 179.11 195.83V200.598H177.654V191.83H179.11V193.254ZM186.887 199.254L189.607 191.83H191.159L187.719 200.598H186.023L182.583 191.83H184.151L186.887 199.254ZM193.343 190.406C193.066 190.406 192.831 190.31 192.639 190.118C192.447 189.926 192.351 189.691 192.351 189.414C192.351 189.137 192.447 188.902 192.639 188.71C192.831 188.518 193.066 188.422 193.343 188.422C193.61 188.422 193.834 188.518 194.015 188.71C194.207 188.902 194.303 189.137 194.303 189.414C194.303 189.691 194.207 189.926 194.015 190.118C193.834 190.31 193.61 190.406 193.343 190.406ZM194.047 191.83V200.598H192.591V191.83H194.047ZM195.985 196.198C195.985 195.291 196.166 194.502 196.529 193.83C196.892 193.147 197.393 192.619 198.033 192.246C198.684 191.873 199.425 191.686 200.257 191.686C201.334 191.686 202.22 191.947 202.913 192.47C203.617 192.993 204.081 193.718 204.305 194.646H202.737C202.588 194.113 202.294 193.691 201.857 193.382C201.43 193.073 200.897 192.918 200.257 192.918C199.425 192.918 198.753 193.206 198.241 193.782C197.729 194.347 197.473 195.153 197.473 196.198C197.473 197.254 197.729 198.07 198.241 198.646C198.753 199.222 199.425 199.51 200.257 199.51C200.897 199.51 201.43 199.361 201.857 199.062C202.284 198.763 202.577 198.337 202.737 197.782H204.305C204.07 198.678 203.601 199.398 202.897 199.942C202.193 200.475 201.313 200.742 200.257 200.742C199.425 200.742 198.684 200.555 198.033 200.182C197.393 199.809 196.892 199.281 196.529 198.598C196.166 197.915 195.985 197.115 195.985 196.198ZM214.248 195.878C214.248 196.155 214.232 196.449 214.2 196.758H207.192C207.245 197.622 207.538 198.299 208.072 198.79C208.616 199.27 209.272 199.51 210.04 199.51C210.669 199.51 211.192 199.366 211.608 199.078C212.034 198.779 212.333 198.385 212.504 197.894H214.072C213.837 198.737 213.368 199.425 212.664 199.958C211.96 200.481 211.085 200.742 210.04 200.742C209.208 200.742 208.461 200.555 207.8 200.182C207.149 199.809 206.637 199.281 206.264 198.598C205.89 197.905 205.704 197.105 205.704 196.198C205.704 195.291 205.885 194.497 206.248 193.814C206.61 193.131 207.117 192.609 207.768 192.246C208.429 191.873 209.186 191.686 210.04 191.686C210.872 191.686 211.608 191.867 212.248 192.23C212.888 192.593 213.378 193.094 213.72 193.734C214.072 194.363 214.248 195.078 214.248 195.878ZM212.744 195.574C212.744 195.019 212.621 194.545 212.376 194.15C212.13 193.745 211.794 193.441 211.368 193.238C210.952 193.025 210.488 192.918 209.976 192.918C209.24 192.918 208.61 193.153 208.088 193.622C207.576 194.091 207.282 194.742 207.208 195.574H212.744ZM227.987 191.83L222.707 204.726H221.203L222.931 200.502L219.395 191.83H221.011L223.763 198.934L226.483 191.83H227.987ZM233.275 200.742C232.453 200.742 231.707 200.555 231.035 200.182C230.373 199.809 229.851 199.281 229.467 198.598C229.093 197.905 228.907 197.105 228.907 196.198C228.907 195.302 229.099 194.513 229.483 193.83C229.877 193.137 230.411 192.609 231.083 192.246C231.755 191.873 232.507 191.686 233.339 191.686C234.171 191.686 234.923 191.873 235.595 192.246C236.267 192.609 236.795 193.131 237.179 193.814C237.573 194.497 237.771 195.291 237.771 196.198C237.771 197.105 237.568 197.905 237.163 198.598C236.768 199.281 236.229 199.809 235.547 200.182C234.864 200.555 234.107 200.742 233.275 200.742ZM233.275 199.462C233.797 199.462 234.288 199.339 234.747 199.094C235.205 198.849 235.573 198.481 235.851 197.99C236.139 197.499 236.283 196.902 236.283 196.198C236.283 195.494 236.144 194.897 235.867 194.406C235.589 193.915 235.227 193.553 234.779 193.318C234.331 193.073 233.845 192.95 233.323 192.95C232.789 192.95 232.299 193.073 231.851 193.318C231.413 193.553 231.061 193.915 230.795 194.406C230.528 194.897 230.395 195.494 230.395 196.198C230.395 196.913 230.523 197.515 230.779 198.006C231.045 198.497 231.397 198.865 231.835 199.11C232.272 199.345 232.752 199.462 233.275 199.462ZM247.461 191.83V200.598H246.005V199.302C245.728 199.75 245.338 200.102 244.837 200.358C244.346 200.603 243.802 200.726 243.205 200.726C242.522 200.726 241.909 200.587 241.365 200.31C240.821 200.022 240.389 199.595 240.069 199.03C239.76 198.465 239.605 197.777 239.605 196.966V191.83H241.045V196.774C241.045 197.638 241.264 198.305 241.701 198.774C242.138 199.233 242.736 199.462 243.493 199.462C244.272 199.462 244.885 199.222 245.333 198.742C245.781 198.262 246.005 197.563 246.005 196.646V191.83H247.461ZM255.641 193.254C255.897 192.753 256.26 192.363 256.729 192.086C257.209 191.809 257.79 191.67 258.473 191.67V193.174H258.089C256.457 193.174 255.641 194.059 255.641 195.83V200.598H254.185V191.83H255.641V193.254ZM268.154 195.878C268.154 196.155 268.138 196.449 268.106 196.758H261.098C261.151 197.622 261.445 198.299 261.978 198.79C262.522 199.27 263.178 199.51 263.946 199.51C264.575 199.51 265.098 199.366 265.514 199.078C265.941 198.779 266.239 198.385 266.41 197.894H267.978C267.743 198.737 267.274 199.425 266.57 199.958C265.866 200.481 264.991 200.742 263.946 200.742C263.114 200.742 262.367 200.555 261.706 200.182C261.055 199.809 260.543 199.281 260.17 198.598C259.797 197.905 259.61 197.105 259.61 196.198C259.61 195.291 259.791 194.497 260.154 193.814C260.517 193.131 261.023 192.609 261.674 192.246C262.335 191.873 263.093 191.686 263.946 191.686C264.778 191.686 265.514 191.867 266.154 192.23C266.794 192.593 267.285 193.094 267.626 193.734C267.978 194.363 268.154 195.078 268.154 195.878ZM266.65 195.574C266.65 195.019 266.527 194.545 266.282 194.15C266.037 193.745 265.701 193.441 265.274 193.238C264.858 193.025 264.394 192.918 263.882 192.918C263.146 192.918 262.517 193.153 261.994 193.622C261.482 194.091 261.189 194.742 261.114 195.574H266.65ZM269.532 196.182C269.532 195.286 269.713 194.502 270.076 193.83C270.438 193.147 270.934 192.619 271.564 192.246C272.204 191.873 272.918 191.686 273.708 191.686C274.465 191.686 275.126 191.857 275.692 192.198C276.268 192.529 276.689 192.939 276.956 193.43V191.83H278.428V204.758H276.956V198.982C276.678 199.473 276.252 199.889 275.676 200.23C275.1 200.571 274.428 200.742 273.66 200.742C272.892 200.742 272.193 200.55 271.564 200.166C270.934 199.782 270.438 199.243 270.076 198.55C269.713 197.857 269.532 197.067 269.532 196.182ZM276.956 196.198C276.956 195.537 276.822 194.961 276.556 194.47C276.289 193.979 275.926 193.606 275.468 193.35C275.02 193.083 274.524 192.95 273.98 192.95C273.436 192.95 272.94 193.078 272.492 193.334C272.044 193.59 271.686 193.963 271.42 194.454C271.153 194.945 271.02 195.521 271.02 196.182C271.02 196.854 271.153 197.441 271.42 197.942C271.686 198.433 272.044 198.811 272.492 199.078C272.94 199.334 273.436 199.462 273.98 199.462C274.524 199.462 275.02 199.334 275.468 199.078C275.926 198.811 276.289 198.433 276.556 197.942C276.822 197.441 276.956 196.859 276.956 196.198ZM288.664 191.83V200.598H287.208V199.302C286.931 199.75 286.542 200.102 286.04 200.358C285.55 200.603 285.006 200.726 284.408 200.726C283.726 200.726 283.112 200.587 282.568 200.31C282.024 200.022 281.592 199.595 281.272 199.03C280.963 198.465 280.808 197.777 280.808 196.966V191.83H282.248V196.774C282.248 197.638 282.467 198.305 282.904 198.774C283.342 199.233 283.939 199.462 284.696 199.462C285.475 199.462 286.088 199.222 286.536 198.742C286.984 198.262 287.208 197.563 287.208 196.646V191.83H288.664ZM291.875 190.406C291.597 190.406 291.363 190.31 291.171 190.118C290.979 189.926 290.883 189.691 290.883 189.414C290.883 189.137 290.979 188.902 291.171 188.71C291.363 188.518 291.597 188.422 291.875 188.422C292.141 188.422 292.365 188.518 292.547 188.71C292.739 188.902 292.835 189.137 292.835 189.414C292.835 189.691 292.739 189.926 292.547 190.118C292.365 190.31 292.141 190.406 291.875 190.406ZM292.579 191.83V200.598H291.123V191.83H292.579ZM296.516 193.254C296.772 192.753 297.135 192.363 297.604 192.086C298.084 191.809 298.665 191.67 299.348 191.67V193.174H298.964C297.332 193.174 296.516 194.059 296.516 195.83V200.598H295.06V191.83H296.516V193.254ZM309.029 195.878C309.029 196.155 309.013 196.449 308.981 196.758H301.973C302.026 197.622 302.32 198.299 302.853 198.79C303.397 199.27 304.053 199.51 304.821 199.51C305.45 199.51 305.973 199.366 306.389 199.078C306.816 198.779 307.114 198.385 307.285 197.894H308.853C308.618 198.737 308.149 199.425 307.445 199.958C306.741 200.481 305.866 200.742 304.821 200.742C303.989 200.742 303.242 200.555 302.581 200.182C301.93 199.809 301.418 199.281 301.045 198.598C300.672 197.905 300.485 197.105 300.485 196.198C300.485 195.291 300.666 194.497 301.029 193.814C301.392 193.131 301.898 192.609 302.549 192.246C303.21 191.873 303.968 191.686 304.821 191.686C305.653 191.686 306.389 191.867 307.029 192.23C307.669 192.593 308.16 193.094 308.501 193.734C308.853 194.363 309.029 195.078 309.029 195.878ZM307.525 195.574C307.525 195.019 307.402 194.545 307.157 194.15C306.912 193.745 306.576 193.441 306.149 193.238C305.733 193.025 305.269 192.918 304.757 192.918C304.021 192.918 303.392 193.153 302.869 193.622C302.357 194.091 302.064 194.742 301.989 195.574H307.525ZM311.415 200.694C311.137 200.694 310.903 200.598 310.711 200.406C310.519 200.214 310.423 199.979 310.423 199.702C310.423 199.425 310.519 199.19 310.711 198.998C310.903 198.806 311.137 198.71 311.415 198.71C311.681 198.71 311.905 198.806 312.087 198.998C312.279 199.19 312.375 199.425 312.375 199.702C312.375 199.979 312.279 200.214 312.087 200.406C311.905 200.598 311.681 200.694 311.415 200.694Z" fill="black"/>
<path d="M164.952 82.7035H160.504L159.768 84.8315H157.416L161.432 73.6475H164.04L168.056 84.8315H165.688L164.952 82.7035ZM164.344 80.9115L162.728 76.2395L161.112 80.9115H164.344ZM168.981 80.3675C168.981 79.4715 169.157 78.6769 169.509 77.9835C169.872 77.2902 170.362 76.7569 170.981 76.3835C171.6 76.0102 172.288 75.8235 173.045 75.8235C173.621 75.8235 174.17 75.9515 174.693 76.2075C175.216 76.4529 175.632 76.7835 175.941 77.1995V72.9915H178.213V84.8315H175.941V83.5195C175.664 83.9569 175.274 84.3089 174.773 84.5755C174.272 84.8422 173.69 84.9755 173.029 84.9755C172.282 84.9755 171.6 84.7835 170.981 84.3995C170.362 84.0155 169.872 83.4769 169.509 82.7835C169.157 82.0795 168.981 81.2742 168.981 80.3675ZM175.957 80.3995C175.957 79.8555 175.85 79.3915 175.637 79.0075C175.424 78.6129 175.136 78.3142 174.773 78.1115C174.41 77.8982 174.021 77.7915 173.605 77.7915C173.189 77.7915 172.805 77.8929 172.453 78.0955C172.101 78.2982 171.813 78.5969 171.589 78.9915C171.376 79.3755 171.269 79.8342 171.269 80.3675C171.269 80.9009 171.376 81.3702 171.589 81.7755C171.813 82.1702 172.101 82.4742 172.453 82.6875C172.816 82.9009 173.2 83.0075 173.605 83.0075C174.021 83.0075 174.41 82.9062 174.773 82.7035C175.136 82.4902 175.424 82.1915 175.637 81.8075C175.85 81.4129 175.957 80.9435 175.957 80.3995ZM188.641 80.2075C188.641 80.5275 188.62 80.8155 188.577 81.0715H182.097C182.15 81.7115 182.374 82.2129 182.769 82.5755C183.164 82.9382 183.649 83.1195 184.225 83.1195C185.057 83.1195 185.649 82.7622 186.001 82.0475H188.417C188.161 82.9009 187.67 83.6049 186.945 84.1595C186.22 84.7035 185.329 84.9755 184.273 84.9755C183.42 84.9755 182.652 84.7889 181.969 84.4155C181.297 84.0315 180.769 83.4929 180.385 82.7995C180.012 82.1062 179.825 81.3062 179.825 80.3995C179.825 79.4822 180.012 78.6769 180.385 77.9835C180.758 77.2902 181.281 76.7569 181.953 76.3835C182.625 76.0102 183.398 75.8235 184.273 75.8235C185.116 75.8235 185.868 76.0049 186.529 76.3675C187.201 76.7302 187.718 77.2475 188.081 77.9195C188.454 78.5809 188.641 79.3435 188.641 80.2075ZM186.321 79.5675C186.31 78.9915 186.102 78.5329 185.697 78.1915C185.292 77.8395 184.796 77.6635 184.209 77.6635C183.654 77.6635 183.185 77.8342 182.801 78.1755C182.428 78.5062 182.198 78.9702 182.113 79.5675H186.321ZM189.7 80.3835C189.7 79.4982 189.881 78.7142 190.244 78.0315C190.617 77.3382 191.119 76.7995 191.748 76.4155C192.377 76.0315 193.071 75.8395 193.828 75.8395C194.457 75.8395 195.012 75.9622 195.492 76.2075C195.983 76.4422 196.377 76.7462 196.676 77.1195V75.9675H198.932V89.0555H196.676V83.6155C196.377 83.9995 195.977 84.3195 195.476 84.5755C194.975 84.8315 194.409 84.9595 193.78 84.9595C193.033 84.9595 192.345 84.7675 191.716 84.3835C191.097 83.9889 190.607 83.4449 190.244 82.7515C189.881 82.0582 189.7 81.2689 189.7 80.3835ZM196.676 80.3995C196.676 79.8555 196.564 79.3862 196.34 78.9915C196.116 78.5969 195.823 78.2982 195.46 78.0955C195.108 77.8929 194.729 77.7915 194.324 77.7915C193.929 77.7915 193.551 77.8929 193.188 78.0955C192.836 78.2982 192.548 78.5969 192.324 78.9915C192.1 79.3755 191.988 79.8395 191.988 80.3835C191.988 80.9275 192.1 81.4022 192.324 81.8075C192.548 82.2022 192.836 82.5009 193.188 82.7035C193.551 82.9062 193.929 83.0075 194.324 83.0075C194.729 83.0075 195.108 82.9062 195.46 82.7035C195.823 82.5009 196.116 82.2022 196.34 81.8075C196.564 81.4129 196.676 80.9435 196.676 80.3995ZM209.488 75.9675V84.8315H207.232V83.7115C206.944 84.0955 206.565 84.3995 206.096 84.6235C205.637 84.8369 205.136 84.9435 204.592 84.9435C203.898 84.9435 203.285 84.7995 202.752 84.5115C202.218 84.2129 201.797 83.7809 201.488 83.2155C201.189 82.6395 201.04 81.9569 201.04 81.1675V75.9675H203.28V80.8475C203.28 81.5515 203.456 82.0955 203.808 82.4795C204.16 82.8529 204.64 83.0395 205.248 83.0395C205.866 83.0395 206.352 82.8529 206.704 82.4795C207.056 82.0955 207.232 81.5515 207.232 80.8475V75.9675H209.488ZM211.122 80.3675C211.122 79.4715 211.298 78.6769 211.65 77.9835C212.012 77.2902 212.498 76.7569 213.106 76.3835C213.724 76.0102 214.412 75.8235 215.17 75.8235C215.831 75.8235 216.407 75.9569 216.898 76.2235C217.399 76.4902 217.799 76.8262 218.098 77.2315V75.9675H220.354V84.8315H218.098V83.5355C217.81 83.9515 217.41 84.2982 216.898 84.5755C216.396 84.8422 215.815 84.9755 215.154 84.9755C214.407 84.9755 213.724 84.7835 213.106 84.3995C212.498 84.0155 212.012 83.4769 211.65 82.7835C211.298 82.0795 211.122 81.2742 211.122 80.3675ZM218.098 80.3995C218.098 79.8555 217.991 79.3915 217.778 79.0075C217.564 78.6129 217.276 78.3142 216.914 78.1115C216.551 77.8982 216.162 77.7915 215.746 77.7915C215.33 77.7915 214.946 77.8929 214.594 78.0955C214.242 78.2982 213.954 78.5969 213.73 78.9915C213.516 79.3755 213.41 79.8342 213.41 80.3675C213.41 80.9009 213.516 81.3702 213.73 81.7755C213.954 82.1702 214.242 82.4742 214.594 82.6875C214.956 82.9009 215.34 83.0075 215.746 83.0075C216.162 83.0075 216.551 82.9062 216.914 82.7035C217.276 82.4902 217.564 82.1915 217.778 81.8075C217.991 81.4129 218.098 80.9435 218.098 80.3995ZM225.15 77.8075V82.0955C225.15 82.3942 225.219 82.6129 225.358 82.7515C225.507 82.8795 225.752 82.9435 226.094 82.9435H227.134V84.8315H225.726C223.838 84.8315 222.894 83.9142 222.894 82.0795V77.8075H221.838V75.9675H222.894V73.7755H225.15V75.9675H227.134V77.8075H225.15ZM236.985 80.2075C236.985 80.5275 236.963 80.8155 236.921 81.0715H230.441C230.494 81.7115 230.718 82.2129 231.113 82.5755C231.507 82.9382 231.993 83.1195 232.569 83.1195C233.401 83.1195 233.993 82.7622 234.345 82.0475H236.761C236.505 82.9009 236.014 83.6049 235.289 84.1595C234.563 84.7035 233.673 84.9755 232.617 84.9755C231.763 84.9755 230.995 84.7889 230.313 84.4155C229.641 84.0315 229.113 83.4929 228.729 82.7995C228.355 82.1062 228.169 81.3062 228.169 80.3995C228.169 79.4822 228.355 78.6769 228.729 77.9835C229.102 77.2902 229.625 76.7569 230.297 76.3835C230.969 76.0102 231.742 75.8235 232.617 75.8235C233.459 75.8235 234.211 76.0049 234.873 76.3675C235.545 76.7302 236.062 77.2475 236.425 77.9195C236.798 78.5809 236.985 79.3435 236.985 80.2075ZM234.665 79.5675C234.654 78.9915 234.446 78.5329 234.041 78.1915C233.635 77.8395 233.139 77.6635 232.553 77.6635C231.998 77.6635 231.529 77.8342 231.145 78.1755C230.771 78.5062 230.542 78.9702 230.457 79.5675H234.665ZM250.576 77.1195C250.576 77.7169 250.432 78.2769 250.144 78.7995C249.867 79.3222 249.424 79.7435 248.816 80.0635C248.219 80.3835 247.461 80.5435 246.544 80.5435H244.672V84.8315H242.432V73.6635H246.544C247.408 73.6635 248.144 73.8129 248.752 74.1115C249.36 74.4102 249.813 74.8209 250.112 75.3435C250.421 75.8662 250.576 76.4582 250.576 77.1195ZM246.448 78.7355C247.067 78.7355 247.525 78.5969 247.824 78.3195C248.123 78.0315 248.272 77.6315 248.272 77.1195C248.272 76.0315 247.664 75.4875 246.448 75.4875H244.672V78.7355H246.448ZM254.407 77.3435C254.695 76.8742 255.068 76.5062 255.527 76.2395C255.996 75.9729 256.529 75.8395 257.127 75.8395V78.1915H256.535C255.831 78.1915 255.297 78.3569 254.935 78.6875C254.583 79.0182 254.407 79.5942 254.407 80.4155V84.8315H252.167V75.9675H254.407V77.3435ZM259.771 74.9115C259.377 74.9115 259.046 74.7889 258.779 74.5435C258.523 74.2875 258.395 73.9729 258.395 73.5995C258.395 73.2262 258.523 72.9169 258.779 72.6715C259.046 72.4155 259.377 72.2875 259.771 72.2875C260.166 72.2875 260.491 72.4155 260.747 72.6715C261.014 72.9169 261.147 73.2262 261.147 73.5995C261.147 73.9729 261.014 74.2875 260.747 74.5435C260.491 74.7889 260.166 74.9115 259.771 74.9115ZM260.875 75.9675V84.8315H258.635V75.9675H260.875ZM262.512 80.3995C262.512 79.4822 262.699 78.6822 263.072 77.9995C263.446 77.3062 263.963 76.7729 264.624 76.3995C265.286 76.0155 266.043 75.8235 266.896 75.8235C267.995 75.8235 268.902 76.1009 269.616 76.6555C270.342 77.1995 270.827 77.9675 271.072 78.9595H268.656C268.528 78.5755 268.31 78.2769 268 78.0635C267.702 77.8395 267.328 77.7275 266.88 77.7275C266.24 77.7275 265.734 77.9622 265.36 78.4315C264.987 78.8902 264.8 79.5462 264.8 80.3995C264.8 81.2422 264.987 81.8982 265.36 82.3675C265.734 82.8262 266.24 83.0555 266.88 83.0555C267.787 83.0555 268.379 82.6502 268.656 81.8395H271.072C270.827 82.7995 270.342 83.5622 269.616 84.1275C268.891 84.6929 267.984 84.9755 266.896 84.9755C266.043 84.9755 265.286 84.7889 264.624 84.4155C263.963 84.0315 263.446 83.4982 263.072 82.8155C262.699 82.1222 262.512 81.3169 262.512 80.3995ZM280.953 80.2075C280.953 80.5275 280.932 80.8155 280.889 81.0715H274.409C274.463 81.7115 274.687 82.2129 275.081 82.5755C275.476 82.9382 275.961 83.1195 276.537 83.1195C277.369 83.1195 277.961 82.7622 278.313 82.0475H280.729C280.473 82.9009 279.983 83.6049 279.257 84.1595C278.532 84.7035 277.641 84.9755 276.585 84.9755C275.732 84.9755 274.964 84.7889 274.281 84.4155C273.609 84.0315 273.081 83.4929 272.697 82.7995C272.324 82.1062 272.137 81.3062 272.137 80.3995C272.137 79.4822 272.324 78.6769 272.697 77.9835C273.071 77.2902 273.593 76.7569 274.265 76.3835C274.937 76.0102 275.711 75.8235 276.585 75.8235C277.428 75.8235 278.18 76.0049 278.841 76.3675C279.513 76.7302 280.031 77.2475 280.393 77.9195C280.767 78.5809 280.953 79.3435 280.953 80.2075ZM278.633 79.5675C278.623 78.9915 278.415 78.5329 278.009 78.1915C277.604 77.8395 277.108 77.6635 276.521 77.6635C275.967 77.6635 275.497 77.8342 275.113 78.1755C274.74 78.5062 274.511 78.9702 274.425 79.5675H278.633Z" fill="#002680"/>
<ellipse cx="100" cy="61.8488" rx="44" ry="43.8488" fill="white"/>
<path d="M100 108.698C125.948 108.698 147 87.7324 147 61.8488C147 35.9652 125.948 15 100 15C74.0524 15 53 35.9652 53 61.8488C53 87.7324 74.0524 108.698 100 108.698Z" stroke="black" stroke-opacity="0.03" stroke-width="6"/>
<g clip-path="url(#clip0_5532_21079)">
<path d="M109.176 58.0175L100.098 50.847L97.0284 53.5543C97.7388 53.9153 98.5429 54.2488 99.4485 54.5488C99.7506 54.3773 100.09 54.2874 100.467 54.2815C101.043 54.274 101.538 54.4575 101.945 54.8333C102.356 55.2114 102.568 55.6726 102.582 56.2141C102.598 56.7585 102.409 57.2369 102.011 57.6491C101.617 58.0368 101.129 58.2351 100.552 58.247C99.9739 58.2522 99.4789 58.0688 99.0714 57.6929C98.653 57.3282 98.436 56.867 98.418 56.3121C98.4157 56.2141 98.4196 56.119 98.4297 56.0254C97.3805 55.6548 96.4538 55.2352 95.6388 54.7806L91.9923 57.996L91.7995 77.2058C91.7948 77.7086 92.1828 78.1394 92.7262 78.1394L108.219 78.2872C108.763 78.2954 109.195 77.9166 109.201 77.3945L109.176 58.0175ZM99.7007 61.3421H101.709L101.661 62.5446C102.505 62.5944 103.243 62.6753 103.876 62.786L103.417 64.7803H101.046C100.68 64.7803 100.43 64.8367 100.31 64.9459C100.191 65.0566 100.123 65.6025 100.114 65.9137L101.108 66.0192C102.321 66.1499 103.156 66.4455 103.613 66.9068C104.072 67.368 104.301 67.9645 104.301 68.6961C104.301 69.4292 104.222 70.0122 104.064 70.449C103.906 70.885 103.68 71.2177 103.385 71.448C102.848 71.8394 102.141 72.0652 101.266 72.1261L101.22 73.6443H99.1807L99.2424 72.1261C98.2416 72.0548 97.3938 71.9345 96.699 71.7651L97.1564 69.7084C98.0316 69.9298 98.9481 70.0405 99.9075 70.0405C100.307 70.0405 100.681 70.0204 101.029 69.9795V69.0125L100.05 68.907C98.7841 68.7874 97.9418 68.4354 97.5195 67.8545C97.151 67.3435 96.9667 66.6765 96.9667 65.8543C96.9667 64.7699 97.2017 63.9826 97.6701 63.4923C98.1393 63.0014 98.8013 62.7006 99.6546 62.5899L99.7007 61.3421ZM105.75 53.0871C103.465 47.4162 100.669 44.7512 98.1955 43.9646C96.489 43.4217 94.944 43.8213 93.9042 44.7341C92.8565 45.6544 92.3038 47.1027 92.5919 48.638C92.8456 49.9735 93.727 51.3803 95.4491 52.6073L99.4493 49.0792C99.7772 48.7925 100.288 48.7725 100.639 49.0495L105.75 53.0871ZM94.1079 53.789C92.1477 52.3109 91.1266 50.5922 90.8174 48.9403C90.4185 46.8004 91.2015 44.772 92.6832 43.4707C94.1774 42.159 96.3695 41.5774 98.767 42.3402C102.065 43.389 105.784 47.0805 108.411 55.1817L108.404 55.1839L110.624 56.9368C110.838 57.0943 110.975 57.3401 110.975 57.6164L111 77.4034C110.981 78.8807 109.752 80.0238 108.197 80L92.7222 79.8522C91.164 79.8522 89.9907 78.6393 90.0001 77.1924L90.196 57.6588C90.1827 57.4151 90.2788 57.1671 90.4817 56.9881L94.1079 53.789Z" fill="#002680"/>
</g>
<ellipse cx="100" cy="61.8487" rx="35" ry="34.8797" stroke="#002680" stroke-width="6"/>
<defs>
<filter id="filter0_d_5532_21079" x="0" y="0.948486" width="472" height="339.052" filterUnits="userSpaceOnUse" color-interpolation-filters="sRGB">
<feFlood flood-opacity="0" result="BackgroundImageFix"/>
<feColorMatrix in="SourceAlpha" type="matrix" values="0 0 0 0 0 0 0 0 0 0 0 0 0 0 0 0 0 0 127 0" result="hardAlpha"/>
<feOffset/>
<feGaussianBlur stdDeviation="16"/>
<feComposite in2="hardAlpha" operator="out"/>
<feColorMatrix type="matrix" values="0 0 0 0 0 0 0 0 0 0 0 0 0 0 0 0 0 0 0.06 0"/>
<feBlend mode="normal" in2="BackgroundImageFix" result="effect1_dropShadow_5532_21079"/>
<feBlend mode="normal" in="SourceGraphic" in2="effect1_dropShadow_5532_21079" result="shape"/>
</filter>
<clipPath id="clip0_5532_21079">
<rect width="21" height="38" fill="white" transform="translate(90 42)"/>
</clipPath>
</defs>
</svg>
