<svg width="129" height="92" viewBox="0 0 129 92" fill="none" xmlns="http://www.w3.org/2000/svg">
<path fill-rule="evenodd" clip-rule="evenodd" d="M76.5199 56.2181C70.7982 60.8638 62.5049 63.3425 55.3644 63.3425C45.3524 63.3425 36.339 59.2633 29.5199 52.4789C28.9843 51.9453 29.4643 51.2182 30.1072 51.6338C37.4662 56.3503 46.5653 59.1878 55.9645 59.1878C62.3034 59.1878 69.2766 57.7431 75.6885 54.7451C76.657 54.2918 77.4671 55.4438 76.5199 56.2181Z" fill="#FF9900"/>
<path fill-rule="evenodd" clip-rule="evenodd" d="M78.8982 53.2204C78.1695 52.1911 74.0635 52.7341 72.2205 52.9749C71.6591 53.0505 71.5734 52.5122 72.0791 52.1251C75.3493 49.5898 80.7154 50.3216 81.3411 51.1714C81.9668 52.0259 81.1782 57.9511 78.1052 60.7791C77.6337 61.2135 77.1836 60.9822 77.3937 60.4061C78.0838 58.5083 79.631 54.2544 78.8982 53.2204Z" fill="#FF9900"/>
<path fill-rule="evenodd" clip-rule="evenodd" d="M72.3499 34.2265V31.762C72.3499 31.389 72.607 31.1388 72.9156 31.1388H82.9319C83.2534 31.1388 83.5106 31.3937 83.5106 31.762V33.8724C83.5062 34.2265 83.2363 34.6892 82.7563 35.421L77.566 43.584C79.4946 43.5322 81.5304 43.8484 83.2791 44.9343C83.6734 45.1798 83.7806 45.5387 83.8106 45.8927V48.5225C83.8106 48.8813 83.4505 49.3014 83.0734 49.0843C79.9918 47.3044 75.8987 47.1108 72.4913 49.1032C72.1442 49.311 71.7799 48.8955 71.7799 48.5367V46.0391C71.7799 45.6378 71.7841 44.9532 72.1484 44.3442L78.1616 34.845H72.9284C72.607 34.845 72.3499 34.5948 72.3499 34.2265ZM35.8121 49.6036H32.7647C32.4732 49.5801 32.2418 49.3393 32.2204 49.0323V31.8045C32.2204 31.4598 32.4818 31.186 32.8075 31.186H35.6491C35.9449 31.2001 36.1806 31.4504 36.2021 31.7619V34.0141H36.2578C36.9992 31.8376 38.3921 30.8226 40.2694 30.8226C42.1766 30.8226 43.3682 31.8376 44.2254 34.0141C44.9626 31.8376 46.6384 30.8226 48.4342 30.8226C49.7114 30.8226 51.1087 31.4033 51.9615 32.7064C52.9259 34.1558 52.7287 36.2614 52.7287 38.1074L52.7244 48.9805C52.7244 49.3252 52.463 49.6037 52.1373 49.6037H49.0942C48.79 49.5802 48.5456 49.3111 48.5456 48.9805V39.8496C48.5456 39.1224 48.6057 37.3094 48.4599 36.6202C48.2328 35.4635 47.5513 35.1377 46.6683 35.1377C45.9311 35.1377 45.1597 35.6806 44.8468 36.5494C44.534 37.4182 44.564 38.8722 44.564 39.8496V48.9804C44.564 49.3251 44.3025 49.6036 43.9768 49.6036H40.9337C40.6252 49.5801 40.3851 49.311 40.3851 48.9804L40.3809 39.8496C40.3809 37.9279 40.668 35.1 38.5036 35.1C36.3135 35.1 36.3992 37.8571 36.3992 39.8496V48.9804C36.3992 49.3251 36.1378 49.6036 35.8121 49.6036ZM92.1339 30.8225C96.6556 30.8225 99.1029 35.0999 99.1029 40.5388C99.1029 45.7936 96.3985 49.9625 92.1338 49.9625C87.6936 49.9625 85.2764 45.685 85.2764 40.3547C85.2764 34.9913 87.7236 30.8225 92.1339 30.8225ZM92.1596 34.3398C89.9137 34.3398 89.7723 37.7108 89.7723 39.8117C89.7723 41.9175 89.7424 46.412 92.1339 46.412C94.4955 46.412 94.6069 42.7862 94.6069 40.5766C94.6069 39.1224 94.5512 37.385 94.1526 36.0064C93.8098 34.8072 93.1282 34.3398 92.1596 34.3398ZM104.966 49.6036H101.932C101.627 49.5801 101.383 49.311 101.383 48.9804L101.379 31.7478C101.404 31.4315 101.657 31.186 101.966 31.186H104.79C105.056 31.2001 105.275 31.3986 105.335 31.6675V34.3021H105.39C106.243 31.9462 107.439 30.8225 109.544 30.8225C110.911 30.8225 112.244 31.3654 113.101 32.8526C113.898 34.2311 113.898 36.5494 113.898 38.216V49.0607C113.864 49.3628 113.611 49.6036 113.311 49.6036H110.255C109.976 49.5801 109.745 49.3534 109.715 49.0607V39.7031C109.715 37.8194 109.912 35.0621 107.808 35.0621C107.066 35.0621 106.385 35.6098 106.046 36.4407C105.618 37.4937 105.562 38.5417 105.562 39.7032V48.9804C105.558 49.3251 105.292 49.6036 104.966 49.6036ZM64.3651 41.3745C64.3651 42.6822 64.3951 43.7729 63.795 44.9342C63.3108 45.8786 62.5393 46.4592 61.6864 46.4592C60.5164 46.4592 59.8306 45.4773 59.8306 44.0278C59.8306 41.1667 62.1579 40.6474 64.3651 40.6474V41.3745ZM67.4381 49.5564C67.2367 49.7547 66.9453 49.7689 66.7182 49.6367C65.7067 48.7113 65.5223 48.2817 64.9695 47.3988C63.2979 49.2779 62.1107 49.8397 59.9463 49.8397C57.379 49.8397 55.386 48.0975 55.386 44.6086C55.386 41.8844 56.7232 40.029 58.6348 39.1224C60.2892 38.3198 62.5993 38.1782 64.3652 37.9563V37.522C64.3652 36.724 64.4208 35.7798 63.9922 35.0905C63.6237 34.472 62.9121 34.217 62.2822 34.217C61.1206 34.217 60.0877 34.8732 59.8349 36.233C59.7834 36.5352 59.582 36.8326 59.3034 36.8468L56.3503 36.4974C56.1018 36.4361 55.8232 36.2141 55.896 35.794C56.5733 31.847 59.8134 30.6572 62.7109 30.6572C64.1938 30.6572 66.131 31.0916 67.3011 32.3286C68.784 33.8536 68.6426 35.8883 68.6426 38.1027V43.3338C68.6426 44.906 69.2341 45.5952 69.7912 46.4451C69.9842 46.7473 70.027 47.1108 69.7784 47.3374C69.1569 47.9087 68.0511 48.971 67.4425 49.5659L67.4383 49.5564M24.4156 41.3745C24.4156 42.6822 24.4457 43.7729 23.8455 44.9342C23.3613 45.8786 22.5941 46.4592 21.7369 46.4592C20.5669 46.4592 19.8853 45.4773 19.8853 44.0278C19.8853 41.1667 22.2126 40.6474 24.4156 40.6474V41.3745ZM27.4886 49.5564C27.2873 49.7547 26.9958 49.7689 26.7687 49.6367C25.7572 48.7113 25.5771 48.2817 25.02 47.3988C23.3484 49.2779 22.1656 49.8397 19.9968 49.8397C17.4338 49.8397 15.4365 48.0975 15.4365 44.6086C15.4365 41.8844 16.7781 40.029 18.6853 39.1224C20.3397 38.3198 22.6498 38.1782 24.4156 37.9563V37.522C24.4156 36.724 24.4714 35.7798 24.047 35.0905C23.6741 34.472 22.9627 34.217 22.3369 34.217C21.1755 34.217 20.1383 34.8732 19.8853 36.233C19.8339 36.5352 19.6325 36.8326 19.3581 36.8468L16.4009 36.4974C16.1522 36.4361 15.878 36.2141 15.9466 35.794C16.628 31.847 19.8639 30.6572 22.7613 30.6572C24.2441 30.6572 26.1814 31.0916 27.3516 32.3286C28.8344 33.8536 28.693 35.8883 28.693 38.1027V43.3338C28.693 44.906 29.2845 45.5952 29.8416 46.4451C30.0389 46.7473 30.0817 47.1108 29.8331 47.3374C29.2116 47.9087 28.1059 48.971 27.4973 49.5659L27.4886 49.5564Z" fill="black"/>
</svg>
