<svg width="2066" height="1191" viewBox="0 0 2066 1191" fill="none" xmlns="http://www.w3.org/2000/svg">
<path d="M-2.62453e-05 600.422C-2.12257e-05 485.587 23.246 382.235 69.7383 290.368C118.168 198.5 185.969 126.318 273.142 73.8222C156.911 73.8222 360.315 21.3264 273.142 73.8222L273.142 274.683C185.969 281.245 278.953 285.446 273.142 361.729C216.964 414.225 278.953 506.913 278.953 600.422C278.953 697.211 306.074 772.674 360.315 826.81C416.493 880.946 488.169 908.015 575.342 908.015C643.143 908.015 698.352 890.789 740.97 856.339C783.588 823.529 816.52 781.696 839.766 730.841C863.012 681.626 888.196 612.725 915.316 524.138C950.186 412.585 985.055 321.537 1019.92 250.996C1056.73 182.095 1112.91 123.037 1188.46 73.8223C1264.01 24.6074 1364.74 -3.0653e-05 1490.66 -2.5149e-05C1606.89 -2.00684e-05 1708.59 24.6074 1795.76 73.8223C1882.94 123.037 1949.77 191.938 1996.26 280.525C2042.75 369.112 2066 471.643 2066 588.118C2066 753.808 2016.6 889.149 1917.81 994.141C1820.95 1100.77 2025.97 1108.16 1855.5 1119.64L1855.5 809.585C1929.11 804.663 1992.07 775.134 2044.37 720.998C2096.68 666.862 1784.14 647.176 1784.14 558.589C1784.14 478.205 1759.93 412.585 1711.5 361.729C1663.07 310.874 1593.33 285.446 1502.28 285.446C1440.29 285.446 1388.96 301.031 1348.28 332.2C1309.53 365.01 1278.54 406.023 1255.29 455.238C1232.04 504.452 1206.86 571.713 1179.74 657.019C1142.93 770.213 1106.13 862.081 1069.32 932.622C1032.52 1004.8 975.369 1065.5 897.882 1114.72C822.332 1165.57 720.63 1191 592.776 1191C490.106 1191 393.247 1167.21 302.2 1119.64C211.152 1073.7 137.539 1005.62 81.3612 915.397C27.1202 826.81 -3.15517e-05 721.818 -2.62453e-05 600.422Z" fill="#002680" fill-opacity="0.05"/>
</svg>
