<svg width="472" height="340" viewBox="0 0 472 340" fill="none" xmlns="http://www.w3.org/2000/svg">
<g filter="url(#filter0_d_5532_21091)">
<rect x="32" y="32" width="408" height="276" rx="12" fill="white"/>
</g>
<mask id="mask0_5532_21091" style="mask-type:alpha" maskUnits="userSpaceOnUse" x="32" y="32" width="408" height="276">
<rect x="32" y="32" width="408" height="276" rx="12" fill="white"/>
</mask>
<g mask="url(#mask0_5532_21091)">
<path d="M245.88 -0.914665C265.144 -0.914665 280.339 6.29067 291.464 20.7013C302.59 35.0373 308.152 55.6827 308.152 82.6373C308.152 109.443 302.664 130.013 291.688 144.349C280.712 158.611 265.443 165.741 245.88 165.741C226.243 165.741 210.899 158.611 199.848 144.349C188.872 130.088 183.384 109.555 183.384 82.7493C183.384 64.8293 185.923 49.6347 191 37.1653C196.078 24.696 203.283 15.2507 212.616 8.82934C221.95 2.33334 233.038 -0.914665 245.88 -0.914665ZM245.88 138.973C255.512 138.973 262.568 134.68 267.048 126.093C271.528 117.432 273.768 102.984 273.768 82.7493C273.768 62.0667 271.491 47.2453 266.936 38.2853C262.382 29.3253 255.326 24.8453 245.768 24.8453C236.211 24.8453 229.08 29.3627 224.376 38.3973C219.747 47.432 217.432 62.216 217.432 82.7493C217.432 102.909 219.747 117.32 224.376 125.981C229.006 134.643 236.174 138.973 245.88 138.973ZM344.671 1.32533H448.719L447.487 28.0933H370.543L367.407 67.1813C373.381 63.8213 379.055 61.3947 384.431 59.9013C389.882 58.408 395.855 57.6613 402.351 57.6613C413.178 57.6613 422.847 59.7147 431.359 63.8213C439.946 67.8533 446.741 73.7893 451.743 81.6293C456.746 89.4693 459.247 99.0267 459.247 110.301C459.247 121.725 456.671 131.581 451.519 139.869C446.367 148.157 439.05 154.541 429.567 159.021C420.159 163.501 408.997 165.741 396.079 165.741C385.477 165.741 375.621 164.099 366.511 160.813C357.402 157.528 349.525 153.048 342.879 147.373C336.234 141.624 331.194 135.053 327.759 127.661L353.295 112.541C356.207 117.619 359.493 122.211 363.151 126.317C366.81 130.349 371.029 133.56 375.807 135.949C380.661 138.264 386.298 139.421 392.719 139.421C402.426 139.421 410.229 136.845 416.127 131.693C422.026 126.541 424.975 119.821 424.975 111.533C424.975 106.307 423.631 101.64 420.943 97.5333C418.33 93.352 414.709 90.0667 410.079 87.6773C405.45 85.288 400.037 84.0933 393.839 84.0933C390.554 84.0933 387.418 84.392 384.431 84.9893C381.519 85.512 378.533 86.5573 375.471 88.1253C372.485 89.6187 369.162 91.784 365.503 94.6213C364.458 95.0693 363.711 95.2933 363.263 95.2933C362.89 95.2933 362.143 95.032 361.023 94.5093L337.279 83.5333L344.671 1.32533Z" fill="#5A5A5A" fill-opacity="0.03"/>
</g>
<path d="M71.248 140.848L68.016 152H66.384L63.792 143.024L61.104 152L59.488 152.016L56.368 140.848H57.92L60.352 150.304L63.04 140.848H64.672L67.232 150.272L69.68 140.848H71.248ZM80.8414 147.28C80.8414 147.557 80.8254 147.851 80.7934 148.16H73.7854C73.8387 149.024 74.132 149.701 74.6654 150.192C75.2094 150.672 75.8654 150.912 76.6334 150.912C77.2627 150.912 77.7854 150.768 78.2014 150.48C78.628 150.181 78.9267 149.787 79.0974 149.296H80.6654C80.4307 150.139 79.9614 150.827 79.2574 151.36C78.5534 151.883 77.6787 152.144 76.6334 152.144C75.8014 152.144 75.0547 151.957 74.3934 151.584C73.7427 151.211 73.2307 150.683 72.8574 150C72.484 149.307 72.2974 148.507 72.2974 147.6C72.2974 146.693 72.4787 145.899 72.8414 145.216C73.204 144.533 73.7107 144.011 74.3614 143.648C75.0227 143.275 75.78 143.088 76.6334 143.088C77.4654 143.088 78.2014 143.269 78.8414 143.632C79.4814 143.995 79.972 144.496 80.3134 145.136C80.6654 145.765 80.8414 146.48 80.8414 147.28ZM79.3374 146.976C79.3374 146.421 79.2147 145.947 78.9694 145.552C78.724 145.147 78.388 144.843 77.9614 144.64C77.5454 144.427 77.0814 144.32 76.5694 144.32C75.8334 144.32 75.204 144.555 74.6814 145.024C74.1694 145.493 73.876 146.144 73.8014 146.976H79.3374ZM90.8529 152.144C90.0315 152.144 89.2849 151.957 88.6129 151.584C87.9515 151.211 87.4289 150.683 87.0449 150C86.6715 149.307 86.4849 148.507 86.4849 147.6C86.4849 146.704 86.6769 145.915 87.0609 145.232C87.4555 144.539 87.9889 144.011 88.6609 143.648C89.3329 143.275 90.0849 143.088 90.9169 143.088C91.7489 143.088 92.5009 143.275 93.1729 143.648C93.8449 144.011 94.3729 144.533 94.7569 145.216C95.1515 145.899 95.3489 146.693 95.3489 147.6C95.3489 148.507 95.1462 149.307 94.7409 150C94.3462 150.683 93.8075 151.211 93.1249 151.584C92.4422 151.957 91.6849 152.144 90.8529 152.144ZM90.8529 150.864C91.3755 150.864 91.8662 150.741 92.3249 150.496C92.7835 150.251 93.1515 149.883 93.4289 149.392C93.7169 148.901 93.8609 148.304 93.8609 147.6C93.8609 146.896 93.7222 146.299 93.4449 145.808C93.1675 145.317 92.8049 144.955 92.3569 144.72C91.9089 144.475 91.4235 144.352 90.9009 144.352C90.3675 144.352 89.8769 144.475 89.4289 144.72C88.9915 144.955 88.6395 145.317 88.3729 145.808C88.1062 146.299 87.9729 146.896 87.9729 147.6C87.9729 148.315 88.1009 148.917 88.3569 149.408C88.6235 149.899 88.9755 150.267 89.4129 150.512C89.8502 150.747 90.3302 150.864 90.8529 150.864ZM100.831 144.432H98.9913V152H97.5353V144.432H96.3993V143.232H97.5353V142.608C97.5353 141.627 97.7859 140.912 98.2873 140.464C98.7993 140.005 99.6153 139.776 100.735 139.776V140.992C100.095 140.992 99.6419 141.12 99.3753 141.376C99.1193 141.621 98.9913 142.032 98.9913 142.608V143.232H100.831V144.432ZM106.097 144.432H104.257V152H102.801V144.432H101.665V143.232H102.801V142.608C102.801 141.627 103.052 140.912 103.553 140.464C104.065 140.005 104.881 139.776 106.001 139.776V140.992C105.361 140.992 104.908 141.12 104.641 141.376C104.385 141.621 104.257 142.032 104.257 142.608V143.232H106.097V144.432ZM115.795 147.28C115.795 147.557 115.779 147.851 115.747 148.16H108.739C108.792 149.024 109.085 149.701 109.619 150.192C110.163 150.672 110.819 150.912 111.587 150.912C112.216 150.912 112.739 150.768 113.155 150.48C113.581 150.181 113.88 149.787 114.051 149.296H115.619C115.384 150.139 114.915 150.827 114.211 151.36C113.507 151.883 112.632 152.144 111.587 152.144C110.755 152.144 110.008 151.957 109.347 151.584C108.696 151.211 108.184 150.683 107.811 150C107.437 149.307 107.251 148.507 107.251 147.6C107.251 146.693 107.432 145.899 107.795 145.216C108.157 144.533 108.664 144.011 109.315 143.648C109.976 143.275 110.733 143.088 111.587 143.088C112.419 143.088 113.155 143.269 113.795 143.632C114.435 143.995 114.925 144.496 115.267 145.136C115.619 145.765 115.795 146.48 115.795 147.28ZM114.291 146.976C114.291 146.421 114.168 145.947 113.923 145.552C113.677 145.147 113.341 144.843 112.915 144.64C112.499 144.427 112.035 144.32 111.523 144.32C110.787 144.32 110.157 144.555 109.635 145.024C109.123 145.493 108.829 146.144 108.755 146.976H114.291ZM119.172 144.656C119.428 144.155 119.791 143.765 120.26 143.488C120.74 143.211 121.322 143.072 122.004 143.072V144.576H121.62C119.988 144.576 119.172 145.461 119.172 147.232V152H117.716V143.232H119.172V144.656ZM127.407 147.584C127.407 146.688 127.588 145.904 127.951 145.232C128.313 144.549 128.809 144.021 129.439 143.648C130.079 143.275 130.793 143.088 131.583 143.088C132.265 143.088 132.9 143.248 133.487 143.568C134.073 143.877 134.521 144.288 134.831 144.8V140.16H136.303V152H134.831V150.352C134.543 150.875 134.116 151.307 133.551 151.648C132.985 151.979 132.324 152.144 131.567 152.144C130.788 152.144 130.079 151.952 129.439 151.568C128.809 151.184 128.313 150.645 127.951 149.952C127.588 149.259 127.407 148.469 127.407 147.584ZM134.831 147.6C134.831 146.939 134.697 146.363 134.431 145.872C134.164 145.381 133.801 145.008 133.343 144.752C132.895 144.485 132.399 144.352 131.855 144.352C131.311 144.352 130.815 144.48 130.367 144.736C129.919 144.992 129.561 145.365 129.295 145.856C129.028 146.347 128.895 146.923 128.895 147.584C128.895 148.256 129.028 148.843 129.295 149.344C129.561 149.835 129.919 150.213 130.367 150.48C130.815 150.736 131.311 150.864 131.855 150.864C132.399 150.864 132.895 150.736 133.343 150.48C133.801 150.213 134.164 149.835 134.431 149.344C134.697 148.843 134.831 148.261 134.831 147.6ZM139.515 141.808C139.238 141.808 139.003 141.712 138.811 141.52C138.619 141.328 138.523 141.093 138.523 140.816C138.523 140.539 138.619 140.304 138.811 140.112C139.003 139.92 139.238 139.824 139.515 139.824C139.782 139.824 140.006 139.92 140.187 140.112C140.379 140.304 140.475 140.539 140.475 140.816C140.475 141.093 140.379 141.328 140.187 141.52C140.006 141.712 139.782 141.808 139.515 141.808ZM140.219 143.232V152H138.763V143.232H140.219ZM145.805 152.144C145.133 152.144 144.53 152.032 143.997 151.808C143.463 151.573 143.042 151.253 142.733 150.848C142.423 150.432 142.253 149.957 142.221 149.424H143.725C143.767 149.861 143.97 150.219 144.333 150.496C144.706 150.773 145.191 150.912 145.789 150.912C146.343 150.912 146.781 150.789 147.101 150.544C147.421 150.299 147.581 149.989 147.581 149.616C147.581 149.232 147.41 148.949 147.069 148.768C146.727 148.576 146.199 148.389 145.485 148.208C144.834 148.037 144.301 147.867 143.885 147.696C143.479 147.515 143.127 147.253 142.829 146.912C142.541 146.56 142.397 146.101 142.397 145.536C142.397 145.088 142.53 144.677 142.797 144.304C143.063 143.931 143.442 143.637 143.933 143.424C144.423 143.2 144.983 143.088 145.613 143.088C146.583 143.088 147.367 143.333 147.965 143.824C148.562 144.315 148.882 144.987 148.925 145.84H147.469C147.437 145.381 147.25 145.013 146.909 144.736C146.578 144.459 146.13 144.32 145.565 144.32C145.042 144.32 144.626 144.432 144.317 144.656C144.007 144.88 143.853 145.173 143.853 145.536C143.853 145.824 143.943 146.064 144.125 146.256C144.317 146.437 144.551 146.587 144.829 146.704C145.117 146.811 145.511 146.933 146.013 147.072C146.642 147.243 147.154 147.413 147.549 147.584C147.943 147.744 148.279 147.989 148.557 148.32C148.845 148.651 148.994 149.083 149.005 149.616C149.005 150.096 148.871 150.528 148.605 150.912C148.338 151.296 147.959 151.6 147.469 151.824C146.989 152.037 146.434 152.144 145.805 152.144ZM150.516 147.6C150.516 146.693 150.697 145.904 151.06 145.232C151.423 144.549 151.924 144.021 152.564 143.648C153.215 143.275 153.956 143.088 154.788 143.088C155.865 143.088 156.751 143.349 157.444 143.872C158.148 144.395 158.612 145.12 158.836 146.048H157.268C157.119 145.515 156.825 145.093 156.388 144.784C155.961 144.475 155.428 144.32 154.788 144.32C153.956 144.32 153.284 144.608 152.772 145.184C152.26 145.749 152.004 146.555 152.004 147.6C152.004 148.656 152.26 149.472 152.772 150.048C153.284 150.624 153.956 150.912 154.788 150.912C155.428 150.912 155.961 150.763 156.388 150.464C156.815 150.165 157.108 149.739 157.268 149.184H158.836C158.601 150.08 158.132 150.8 157.428 151.344C156.724 151.877 155.844 152.144 154.788 152.144C153.956 152.144 153.215 151.957 152.564 151.584C151.924 151.211 151.423 150.683 151.06 150C150.697 149.317 150.516 148.517 150.516 147.6ZM164.603 152.144C163.782 152.144 163.035 151.957 162.363 151.584C161.702 151.211 161.179 150.683 160.795 150C160.422 149.307 160.235 148.507 160.235 147.6C160.235 146.704 160.427 145.915 160.811 145.232C161.206 144.539 161.739 144.011 162.411 143.648C163.083 143.275 163.835 143.088 164.667 143.088C165.499 143.088 166.251 143.275 166.923 143.648C167.595 144.011 168.123 144.533 168.507 145.216C168.902 145.899 169.099 146.693 169.099 147.6C169.099 148.507 168.896 149.307 168.491 150C168.096 150.683 167.558 151.211 166.875 151.584C166.192 151.957 165.435 152.144 164.603 152.144ZM164.603 150.864C165.126 150.864 165.616 150.741 166.075 150.496C166.534 150.251 166.902 149.883 167.179 149.392C167.467 148.901 167.611 148.304 167.611 147.6C167.611 146.896 167.472 146.299 167.195 145.808C166.918 145.317 166.555 144.955 166.107 144.72C165.659 144.475 165.174 144.352 164.651 144.352C164.118 144.352 163.627 144.475 163.179 144.72C162.742 144.955 162.39 145.317 162.123 145.808C161.856 146.299 161.723 146.896 161.723 147.6C161.723 148.315 161.851 148.917 162.107 149.408C162.374 149.899 162.726 150.267 163.163 150.512C163.6 150.747 164.08 150.864 164.603 150.864ZM178.789 143.232V152H177.333V150.704C177.056 151.152 176.667 151.504 176.165 151.76C175.675 152.005 175.131 152.128 174.533 152.128C173.851 152.128 173.237 151.989 172.693 151.712C172.149 151.424 171.717 150.997 171.397 150.432C171.088 149.867 170.933 149.179 170.933 148.368V143.232H172.373V148.176C172.373 149.04 172.592 149.707 173.029 150.176C173.467 150.635 174.064 150.864 174.821 150.864C175.6 150.864 176.213 150.624 176.661 150.144C177.109 149.664 177.333 148.965 177.333 148.048V143.232H178.789ZM185.52 143.072C186.586 143.072 187.45 143.397 188.112 144.048C188.773 144.688 189.104 145.616 189.104 146.832V152H187.664V147.04C187.664 146.165 187.445 145.499 187.008 145.04C186.57 144.571 185.973 144.336 185.216 144.336C184.448 144.336 183.834 144.576 183.376 145.056C182.928 145.536 182.704 146.235 182.704 147.152V152H181.248V143.232H182.704V144.48C182.992 144.032 183.381 143.685 183.872 143.44C184.373 143.195 184.922 143.072 185.52 143.072ZM193.258 144.432V149.6C193.258 150.027 193.349 150.331 193.53 150.512C193.711 150.683 194.026 150.768 194.474 150.768H195.546V152H194.234C193.423 152 192.815 151.813 192.41 151.44C192.005 151.067 191.802 150.453 191.802 149.6V144.432H190.666V143.232H191.802V141.024H193.258V143.232H195.546V144.432H193.258ZM200.414 152.144C199.742 152.144 199.139 152.032 198.606 151.808C198.073 151.573 197.651 151.253 197.342 150.848C197.033 150.432 196.862 149.957 196.83 149.424H198.334C198.377 149.861 198.579 150.219 198.942 150.496C199.315 150.773 199.801 150.912 200.398 150.912C200.953 150.912 201.39 150.789 201.71 150.544C202.03 150.299 202.19 149.989 202.19 149.616C202.19 149.232 202.019 148.949 201.678 148.768C201.337 148.576 200.809 148.389 200.094 148.208C199.443 148.037 198.91 147.867 198.494 147.696C198.089 147.515 197.737 147.253 197.438 146.912C197.15 146.56 197.006 146.101 197.006 145.536C197.006 145.088 197.139 144.677 197.406 144.304C197.673 143.931 198.051 143.637 198.542 143.424C199.033 143.2 199.593 143.088 200.222 143.088C201.193 143.088 201.977 143.333 202.574 143.824C203.171 144.315 203.491 144.987 203.534 145.84H202.078C202.046 145.381 201.859 145.013 201.518 144.736C201.187 144.459 200.739 144.32 200.174 144.32C199.651 144.32 199.235 144.432 198.926 144.656C198.617 144.88 198.462 145.173 198.462 145.536C198.462 145.824 198.553 146.064 198.734 146.256C198.926 146.437 199.161 146.587 199.438 146.704C199.726 146.811 200.121 146.933 200.622 147.072C201.251 147.243 201.763 147.413 202.158 147.584C202.553 147.744 202.889 147.989 203.166 148.32C203.454 148.651 203.603 149.083 203.614 149.616C203.614 150.096 203.481 150.528 203.214 150.912C202.947 151.296 202.569 151.6 202.078 151.824C201.598 152.037 201.043 152.144 200.414 152.144ZM213.759 152.144C212.938 152.144 212.191 151.957 211.519 151.584C210.858 151.211 210.335 150.683 209.951 150C209.578 149.307 209.391 148.507 209.391 147.6C209.391 146.704 209.583 145.915 209.967 145.232C210.362 144.539 210.895 144.011 211.567 143.648C212.239 143.275 212.991 143.088 213.823 143.088C214.655 143.088 215.407 143.275 216.079 143.648C216.751 144.011 217.279 144.533 217.663 145.216C218.058 145.899 218.255 146.693 218.255 147.6C218.255 148.507 218.052 149.307 217.647 150C217.252 150.683 216.714 151.211 216.031 151.584C215.348 151.957 214.591 152.144 213.759 152.144ZM213.759 150.864C214.282 150.864 214.772 150.741 215.231 150.496C215.69 150.251 216.058 149.883 216.335 149.392C216.623 148.901 216.767 148.304 216.767 147.6C216.767 146.896 216.628 146.299 216.351 145.808C216.074 145.317 215.711 144.955 215.263 144.72C214.815 144.475 214.33 144.352 213.807 144.352C213.274 144.352 212.783 144.475 212.335 144.72C211.898 144.955 211.546 145.317 211.279 145.808C211.012 146.299 210.879 146.896 210.879 147.6C210.879 148.315 211.007 148.917 211.263 149.408C211.53 149.899 211.882 150.267 212.319 150.512C212.756 150.747 213.236 150.864 213.759 150.864ZM224.442 143.072C225.508 143.072 226.372 143.397 227.034 144.048C227.695 144.688 228.026 145.616 228.026 146.832V152H226.586V147.04C226.586 146.165 226.367 145.499 225.93 145.04C225.492 144.571 224.895 144.336 224.138 144.336C223.37 144.336 222.756 144.576 222.298 145.056C221.85 145.536 221.626 146.235 221.626 147.152V152H220.17V143.232H221.626V144.48C221.914 144.032 222.303 143.685 222.794 143.44C223.295 143.195 223.844 143.072 224.442 143.072ZM236.446 144.432V149.6C236.446 150.027 236.536 150.331 236.718 150.512C236.899 150.683 237.214 150.768 237.661 150.768H238.734V152H237.422C236.611 152 236.003 151.813 235.598 151.44C235.192 151.067 234.99 150.453 234.99 149.6V144.432H233.854V143.232H234.99V141.024H236.446V143.232H238.734V144.432H236.446ZM244.85 143.072C245.511 143.072 246.108 143.216 246.642 143.504C247.175 143.781 247.591 144.203 247.89 144.768C248.199 145.333 248.354 146.021 248.354 146.832V152H246.914V147.04C246.914 146.165 246.695 145.499 246.258 145.04C245.82 144.571 245.223 144.336 244.466 144.336C243.698 144.336 243.084 144.576 242.626 145.056C242.178 145.536 241.954 146.235 241.954 147.152V152H240.498V140.16H241.954V144.48C242.242 144.032 242.636 143.685 243.138 143.44C243.65 143.195 244.22 143.072 244.85 143.072ZM258.732 147.28C258.732 147.557 258.716 147.851 258.684 148.16H251.676C251.729 149.024 252.023 149.701 252.556 150.192C253.1 150.672 253.756 150.912 254.524 150.912C255.153 150.912 255.676 150.768 256.092 150.48C256.519 150.181 256.817 149.787 256.988 149.296H258.556C258.321 150.139 257.852 150.827 257.148 151.36C256.444 151.883 255.569 152.144 254.524 152.144C253.692 152.144 252.945 151.957 252.284 151.584C251.633 151.211 251.121 150.683 250.748 150C250.375 149.307 250.188 148.507 250.188 147.6C250.188 146.693 250.369 145.899 250.732 145.216C251.095 144.533 251.601 144.011 252.252 143.648C252.913 143.275 253.671 143.088 254.524 143.088C255.356 143.088 256.092 143.269 256.732 143.632C257.372 143.995 257.863 144.496 258.204 145.136C258.556 145.765 258.732 146.48 258.732 147.28ZM257.228 146.976C257.228 146.421 257.105 145.947 256.86 145.552C256.615 145.147 256.279 144.843 255.852 144.64C255.436 144.427 254.972 144.32 254.46 144.32C253.724 144.32 253.095 144.555 252.572 145.024C252.06 145.493 251.767 146.144 251.692 146.976H257.228ZM275.464 143.072C276.146 143.072 276.754 143.216 277.288 143.504C277.821 143.781 278.242 144.203 278.552 144.768C278.861 145.333 279.016 146.021 279.016 146.832V152H277.576V147.04C277.576 146.165 277.357 145.499 276.92 145.04C276.493 144.571 275.912 144.336 275.176 144.336C274.418 144.336 273.816 144.581 273.368 145.072C272.92 145.552 272.696 146.251 272.696 147.168V152H271.256V147.04C271.256 146.165 271.037 145.499 270.6 145.04C270.173 144.571 269.592 144.336 268.856 144.336C268.098 144.336 267.496 144.581 267.048 145.072C266.6 145.552 266.376 146.251 266.376 147.168V152H264.92V143.232H266.376V144.496C266.664 144.037 267.048 143.685 267.528 143.44C268.018 143.195 268.557 143.072 269.144 143.072C269.88 143.072 270.53 143.237 271.096 143.568C271.661 143.899 272.082 144.384 272.36 145.024C272.605 144.405 273.01 143.925 273.576 143.584C274.141 143.243 274.77 143.072 275.464 143.072ZM285.228 152.144C284.407 152.144 283.66 151.957 282.988 151.584C282.327 151.211 281.804 150.683 281.42 150C281.047 149.307 280.86 148.507 280.86 147.6C280.86 146.704 281.052 145.915 281.436 145.232C281.831 144.539 282.364 144.011 283.036 143.648C283.708 143.275 284.46 143.088 285.292 143.088C286.124 143.088 286.876 143.275 287.548 143.648C288.22 144.011 288.748 144.533 289.132 145.216C289.527 145.899 289.724 146.693 289.724 147.6C289.724 148.507 289.521 149.307 289.116 150C288.721 150.683 288.183 151.211 287.5 151.584C286.817 151.957 286.06 152.144 285.228 152.144ZM285.228 150.864C285.751 150.864 286.241 150.741 286.7 150.496C287.159 150.251 287.527 149.883 287.804 149.392C288.092 148.901 288.236 148.304 288.236 147.6C288.236 146.896 288.097 146.299 287.82 145.808C287.543 145.317 287.18 144.955 286.732 144.72C286.284 144.475 285.799 144.352 285.276 144.352C284.743 144.352 284.252 144.475 283.804 144.72C283.367 144.955 283.015 145.317 282.748 145.808C282.481 146.299 282.348 146.896 282.348 147.6C282.348 148.315 282.476 148.917 282.732 149.408C282.999 149.899 283.351 150.267 283.788 150.512C284.225 150.747 284.705 150.864 285.228 150.864ZM294.742 152.144C294.07 152.144 293.468 152.032 292.934 151.808C292.401 151.573 291.98 151.253 291.67 150.848C291.361 150.432 291.19 149.957 291.158 149.424H292.662C292.705 149.861 292.908 150.219 293.27 150.496C293.644 150.773 294.129 150.912 294.726 150.912C295.281 150.912 295.718 150.789 296.038 150.544C296.358 150.299 296.518 149.989 296.518 149.616C296.518 149.232 296.348 148.949 296.006 148.768C295.665 148.576 295.137 148.389 294.422 148.208C293.772 148.037 293.238 147.867 292.822 147.696C292.417 147.515 292.065 147.253 291.766 146.912C291.478 146.56 291.334 146.101 291.334 145.536C291.334 145.088 291.468 144.677 291.734 144.304C292.001 143.931 292.38 143.637 292.87 143.424C293.361 143.2 293.921 143.088 294.55 143.088C295.521 143.088 296.305 143.333 296.902 143.824C297.5 144.315 297.82 144.987 297.862 145.84H296.406C296.374 145.381 296.188 145.013 295.846 144.736C295.516 144.459 295.068 144.32 294.502 144.32C293.98 144.32 293.564 144.432 293.254 144.656C292.945 144.88 292.79 145.173 292.79 145.536C292.79 145.824 292.881 146.064 293.062 146.256C293.254 146.437 293.489 146.587 293.766 146.704C294.054 146.811 294.449 146.933 294.95 147.072C295.58 147.243 296.092 147.413 296.486 147.584C296.881 147.744 297.217 147.989 297.494 148.32C297.782 148.651 297.932 149.083 297.942 149.616C297.942 150.096 297.809 150.528 297.542 150.912C297.276 151.296 296.897 151.6 296.406 151.824C295.926 152.037 295.372 152.144 294.742 152.144ZM301.774 144.432V149.6C301.774 150.027 301.864 150.331 302.046 150.512C302.227 150.683 302.542 150.768 302.99 150.768H304.062V152H302.75C301.939 152 301.331 151.813 300.926 151.44C300.52 151.067 300.318 150.453 300.318 149.6V144.432H299.182V143.232H300.318V141.024H301.774V143.232H304.062V144.432H301.774ZM321.771 143.232L319.035 152H317.531L315.419 145.04L313.307 152H311.803L309.051 143.232H310.539L312.555 150.592L314.731 143.232H316.219L318.347 150.608L320.331 143.232H321.771ZM331.216 147.28C331.216 147.557 331.2 147.851 331.168 148.16H324.16C324.214 149.024 324.507 149.701 325.04 150.192C325.584 150.672 326.24 150.912 327.008 150.912C327.638 150.912 328.16 150.768 328.576 150.48C329.003 150.181 329.302 149.787 329.472 149.296H331.04C330.806 150.139 330.336 150.827 329.632 151.36C328.928 151.883 328.054 152.144 327.008 152.144C326.176 152.144 325.43 151.957 324.768 151.584C324.118 151.211 323.606 150.683 323.232 150C322.859 149.307 322.672 148.507 322.672 147.6C322.672 146.693 322.854 145.899 323.216 145.216C323.579 144.533 324.086 144.011 324.736 143.648C325.398 143.275 326.155 143.088 327.008 143.088C327.84 143.088 328.576 143.269 329.216 143.632C329.856 143.995 330.347 144.496 330.688 145.136C331.04 145.765 331.216 146.48 331.216 147.28ZM329.712 146.976C329.712 146.421 329.59 145.947 329.344 145.552C329.099 145.147 328.763 144.843 328.336 144.64C327.92 144.427 327.456 144.32 326.944 144.32C326.208 144.32 325.579 144.555 325.056 145.024C324.544 145.493 324.251 146.144 324.176 146.976H329.712ZM334.594 140.16V152H333.138V140.16H334.594ZM338.532 140.16V152H337.076V140.16H338.532ZM347.093 145.52V146.752H340.709V145.52H347.093ZM62.128 176L58.688 172.128V176H57.232V164.16H58.688V171.12L62.064 167.232H64.096L59.968 171.6L64.112 176H62.128ZM69.7384 167.072C70.805 167.072 71.669 167.397 72.3304 168.048C72.9917 168.688 73.3224 169.616 73.3224 170.832V176H71.8824V171.04C71.8824 170.165 71.6637 169.499 71.2264 169.04C70.789 168.571 70.1917 168.336 69.4344 168.336C68.6664 168.336 68.053 168.576 67.5944 169.056C67.1464 169.536 66.9224 170.235 66.9224 171.152V176H65.4664V167.232H66.9224V168.48C67.2104 168.032 67.5997 167.685 68.0904 167.44C68.5917 167.195 69.141 167.072 69.7384 167.072ZM79.5248 176.144C78.7034 176.144 77.9568 175.957 77.2848 175.584C76.6234 175.211 76.1008 174.683 75.7168 174C75.3434 173.307 75.1568 172.507 75.1568 171.6C75.1568 170.704 75.3488 169.915 75.7328 169.232C76.1274 168.539 76.6608 168.011 77.3328 167.648C78.0048 167.275 78.7568 167.088 79.5888 167.088C80.4208 167.088 81.1728 167.275 81.8448 167.648C82.5168 168.011 83.0448 168.533 83.4288 169.216C83.8234 169.899 84.0208 170.693 84.0208 171.6C84.0208 172.507 83.8181 173.307 83.4128 174C83.0181 174.683 82.4794 175.211 81.7968 175.584C81.1141 175.957 80.3568 176.144 79.5248 176.144ZM79.5248 174.864C80.0474 174.864 80.5381 174.741 80.9968 174.496C81.4554 174.251 81.8234 173.883 82.1008 173.392C82.3888 172.901 82.5328 172.304 82.5328 171.6C82.5328 170.896 82.3941 170.299 82.1168 169.808C81.8394 169.317 81.4768 168.955 81.0288 168.72C80.5808 168.475 80.0954 168.352 79.5728 168.352C79.0394 168.352 78.5488 168.475 78.1008 168.72C77.6634 168.955 77.3114 169.317 77.0448 169.808C76.7781 170.299 76.6448 170.896 76.6448 171.6C76.6448 172.315 76.7728 172.917 77.0288 173.408C77.2954 173.899 77.6474 174.267 78.0848 174.512C78.5221 174.747 79.0021 174.864 79.5248 174.864ZM97.6151 167.232L94.8791 176H93.3751L91.2631 169.04L89.1511 176H87.6471L84.8951 167.232H86.3831L88.3991 174.592L90.5751 167.232H92.0631L94.1911 174.608L96.1751 167.232H97.6151ZM103.332 167.072C104.399 167.072 105.263 167.397 105.924 168.048C106.585 168.688 106.916 169.616 106.916 170.832V176H105.476V171.04C105.476 170.165 105.257 169.499 104.82 169.04C104.383 168.571 103.785 168.336 103.028 168.336C102.26 168.336 101.647 168.576 101.188 169.056C100.74 169.536 100.516 170.235 100.516 171.152V176H99.0601V167.232H100.516V168.48C100.804 168.032 101.193 167.685 101.684 167.44C102.185 167.195 102.735 167.072 103.332 167.072ZM116.664 176.144C115.992 176.144 115.389 176.032 114.856 175.808C114.323 175.573 113.901 175.253 113.592 174.848C113.283 174.432 113.112 173.957 113.08 173.424H114.584C114.627 173.861 114.829 174.219 115.192 174.496C115.565 174.773 116.051 174.912 116.648 174.912C117.203 174.912 117.64 174.789 117.96 174.544C118.28 174.299 118.44 173.989 118.44 173.616C118.44 173.232 118.269 172.949 117.928 172.768C117.587 172.576 117.059 172.389 116.344 172.208C115.693 172.037 115.16 171.867 114.744 171.696C114.339 171.515 113.987 171.253 113.688 170.912C113.4 170.56 113.256 170.101 113.256 169.536C113.256 169.088 113.389 168.677 113.656 168.304C113.923 167.931 114.301 167.637 114.792 167.424C115.283 167.2 115.843 167.088 116.472 167.088C117.443 167.088 118.227 167.333 118.824 167.824C119.421 168.315 119.741 168.987 119.784 169.84H118.328C118.296 169.381 118.109 169.013 117.768 168.736C117.437 168.459 116.989 168.32 116.424 168.32C115.901 168.32 115.485 168.432 115.176 168.656C114.867 168.88 114.712 169.173 114.712 169.536C114.712 169.824 114.803 170.064 114.984 170.256C115.176 170.437 115.411 170.587 115.688 170.704C115.976 170.811 116.371 170.933 116.872 171.072C117.501 171.243 118.013 171.413 118.408 171.584C118.803 171.744 119.139 171.989 119.416 172.32C119.704 172.651 119.853 173.083 119.864 173.616C119.864 174.096 119.731 174.528 119.464 174.912C119.197 175.296 118.819 175.6 118.328 175.824C117.848 176.037 117.293 176.144 116.664 176.144ZM129.92 171.28C129.92 171.557 129.904 171.851 129.872 172.16H122.864C122.917 173.024 123.21 173.701 123.744 174.192C124.288 174.672 124.944 174.912 125.712 174.912C126.341 174.912 126.864 174.768 127.28 174.48C127.706 174.181 128.005 173.787 128.176 173.296H129.744C129.509 174.139 129.04 174.827 128.336 175.36C127.632 175.883 126.757 176.144 125.712 176.144C124.88 176.144 124.133 175.957 123.472 175.584C122.821 175.211 122.309 174.683 121.936 174C121.562 173.307 121.376 172.507 121.376 171.6C121.376 170.693 121.557 169.899 121.92 169.216C122.282 168.533 122.789 168.011 123.44 167.648C124.101 167.275 124.858 167.088 125.712 167.088C126.544 167.088 127.28 167.269 127.92 167.632C128.56 167.995 129.05 168.496 129.392 169.136C129.744 169.765 129.92 170.48 129.92 171.28ZM128.416 170.976C128.416 170.421 128.293 169.947 128.048 169.552C127.802 169.147 127.466 168.843 127.04 168.64C126.624 168.427 126.16 168.32 125.648 168.32C124.912 168.32 124.282 168.555 123.76 169.024C123.248 169.493 122.954 170.144 122.88 170.976H128.416ZM133.297 168.656C133.553 168.155 133.916 167.765 134.385 167.488C134.865 167.211 135.447 167.072 136.129 167.072V168.576H135.745C134.113 168.576 133.297 169.461 133.297 171.232V176H131.841V167.232H133.297V168.656ZM141.074 174.656L143.794 167.232H145.346L141.906 176H140.21L136.77 167.232H138.338L141.074 174.656ZM147.531 165.808C147.254 165.808 147.019 165.712 146.827 165.52C146.635 165.328 146.539 165.093 146.539 164.816C146.539 164.539 146.635 164.304 146.827 164.112C147.019 163.92 147.254 163.824 147.531 163.824C147.798 163.824 148.022 163.92 148.203 164.112C148.395 164.304 148.491 164.539 148.491 164.816C148.491 165.093 148.395 165.328 148.203 165.52C148.022 165.712 147.798 165.808 147.531 165.808ZM148.235 167.232V176H146.779V167.232H148.235ZM150.172 171.6C150.172 170.693 150.354 169.904 150.716 169.232C151.079 168.549 151.58 168.021 152.22 167.648C152.871 167.275 153.612 167.088 154.444 167.088C155.522 167.088 156.407 167.349 157.1 167.872C157.804 168.395 158.268 169.12 158.492 170.048H156.924C156.775 169.515 156.482 169.093 156.044 168.784C155.618 168.475 155.084 168.32 154.444 168.32C153.612 168.32 152.94 168.608 152.428 169.184C151.916 169.749 151.66 170.555 151.66 171.6C151.66 172.656 151.916 173.472 152.428 174.048C152.94 174.624 153.612 174.912 154.444 174.912C155.084 174.912 155.618 174.763 156.044 174.464C156.471 174.165 156.764 173.739 156.924 173.184H158.492C158.258 174.08 157.788 174.8 157.084 175.344C156.38 175.877 155.5 176.144 154.444 176.144C153.612 176.144 152.871 175.957 152.22 175.584C151.58 175.211 151.079 174.683 150.716 174C150.354 173.317 150.172 172.517 150.172 171.6ZM168.435 171.28C168.435 171.557 168.419 171.851 168.387 172.16H161.379C161.432 173.024 161.726 173.701 162.259 174.192C162.803 174.672 163.459 174.912 164.227 174.912C164.856 174.912 165.379 174.768 165.795 174.48C166.222 174.181 166.52 173.787 166.691 173.296H168.259C168.024 174.139 167.555 174.827 166.851 175.36C166.147 175.883 165.272 176.144 164.227 176.144C163.395 176.144 162.648 175.957 161.987 175.584C161.336 175.211 160.824 174.683 160.451 174C160.078 173.307 159.891 172.507 159.891 171.6C159.891 170.693 160.072 169.899 160.435 169.216C160.798 168.533 161.304 168.011 161.955 167.648C162.616 167.275 163.374 167.088 164.227 167.088C165.059 167.088 165.795 167.269 166.435 167.632C167.075 167.995 167.566 168.496 167.907 169.136C168.259 169.765 168.435 170.48 168.435 171.28ZM166.931 170.976C166.931 170.421 166.808 169.947 166.563 169.552C166.318 169.147 165.982 168.843 165.555 168.64C165.139 168.427 164.675 168.32 164.163 168.32C163.427 168.32 162.798 168.555 162.275 169.024C161.763 169.493 161.47 170.144 161.395 170.976H166.931ZM173.461 176.144C172.789 176.144 172.186 176.032 171.653 175.808C171.12 175.573 170.698 175.253 170.389 174.848C170.08 174.432 169.909 173.957 169.877 173.424H171.381C171.424 173.861 171.626 174.219 171.989 174.496C172.362 174.773 172.848 174.912 173.445 174.912C174 174.912 174.437 174.789 174.757 174.544C175.077 174.299 175.237 173.989 175.237 173.616C175.237 173.232 175.066 172.949 174.725 172.768C174.384 172.576 173.856 172.389 173.141 172.208C172.49 172.037 171.957 171.867 171.541 171.696C171.136 171.515 170.784 171.253 170.485 170.912C170.197 170.56 170.053 170.101 170.053 169.536C170.053 169.088 170.186 168.677 170.453 168.304C170.72 167.931 171.098 167.637 171.589 167.424C172.08 167.2 172.64 167.088 173.269 167.088C174.24 167.088 175.024 167.333 175.621 167.824C176.218 168.315 176.538 168.987 176.581 169.84H175.125C175.093 169.381 174.906 169.013 174.565 168.736C174.234 168.459 173.786 168.32 173.221 168.32C172.698 168.32 172.282 168.432 171.973 168.656C171.664 168.88 171.509 169.173 171.509 169.536C171.509 169.824 171.6 170.064 171.781 170.256C171.973 170.437 172.208 170.587 172.485 170.704C172.773 170.811 173.168 170.933 173.669 171.072C174.298 171.243 174.81 171.413 175.205 171.584C175.6 171.744 175.936 171.989 176.213 172.32C176.501 172.651 176.65 173.083 176.661 173.616C176.661 174.096 176.528 174.528 176.261 174.912C175.994 175.296 175.616 175.6 175.125 175.824C174.645 176.037 174.09 176.144 173.461 176.144ZM180.22 173.984L178.428 178.288H177.452L178.62 173.984H180.22ZM196.698 167.072C197.381 167.072 197.989 167.216 198.522 167.504C199.055 167.781 199.477 168.203 199.786 168.768C200.095 169.333 200.25 170.021 200.25 170.832V176H198.81V171.04C198.81 170.165 198.591 169.499 198.154 169.04C197.727 168.571 197.146 168.336 196.41 168.336C195.653 168.336 195.05 168.581 194.602 169.072C194.154 169.552 193.93 170.251 193.93 171.168V176H192.49V171.04C192.49 170.165 192.271 169.499 191.834 169.04C191.407 168.571 190.826 168.336 190.09 168.336C189.333 168.336 188.73 168.581 188.282 169.072C187.834 169.552 187.61 170.251 187.61 171.168V176H186.154V167.232H187.61V168.496C187.898 168.037 188.282 167.685 188.762 167.44C189.253 167.195 189.791 167.072 190.378 167.072C191.114 167.072 191.765 167.237 192.33 167.568C192.895 167.899 193.317 168.384 193.594 169.024C193.839 168.405 194.245 167.925 194.81 167.584C195.375 167.243 196.005 167.072 196.698 167.072ZM210.638 171.28C210.638 171.557 210.622 171.851 210.59 172.16H203.582C203.636 173.024 203.929 173.701 204.462 174.192C205.006 174.672 205.662 174.912 206.43 174.912C207.06 174.912 207.582 174.768 207.998 174.48C208.425 174.181 208.724 173.787 208.894 173.296H210.462C210.228 174.139 209.758 174.827 209.054 175.36C208.35 175.883 207.476 176.144 206.43 176.144C205.598 176.144 204.852 175.957 204.19 175.584C203.54 175.211 203.028 174.683 202.654 174C202.281 173.307 202.094 172.507 202.094 171.6C202.094 170.693 202.276 169.899 202.638 169.216C203.001 168.533 203.508 168.011 204.158 167.648C204.82 167.275 205.577 167.088 206.43 167.088C207.262 167.088 207.998 167.269 208.638 167.632C209.278 167.995 209.769 168.496 210.11 169.136C210.462 169.765 210.638 170.48 210.638 171.28ZM209.134 170.976C209.134 170.421 209.012 169.947 208.766 169.552C208.521 169.147 208.185 168.843 207.758 168.64C207.342 168.427 206.878 168.32 206.366 168.32C205.63 168.32 205.001 168.555 204.478 169.024C203.966 169.493 203.673 170.144 203.598 170.976H209.134ZM212.016 171.584C212.016 170.688 212.197 169.904 212.56 169.232C212.923 168.549 213.419 168.021 214.048 167.648C214.688 167.275 215.397 167.088 216.176 167.088C216.944 167.088 217.611 167.253 218.176 167.584C218.741 167.915 219.163 168.331 219.44 168.832V167.232H220.912V176H219.44V174.368C219.152 174.88 218.72 175.307 218.144 175.648C217.579 175.979 216.917 176.144 216.16 176.144C215.381 176.144 214.677 175.952 214.048 175.568C213.419 175.184 212.923 174.645 212.56 173.952C212.197 173.259 212.016 172.469 212.016 171.584ZM219.44 171.6C219.44 170.939 219.307 170.363 219.04 169.872C218.773 169.381 218.411 169.008 217.952 168.752C217.504 168.485 217.008 168.352 216.464 168.352C215.92 168.352 215.424 168.48 214.976 168.736C214.528 168.992 214.171 169.365 213.904 169.856C213.637 170.347 213.504 170.923 213.504 171.584C213.504 172.256 213.637 172.843 213.904 173.344C214.171 173.835 214.528 174.213 214.976 174.48C215.424 174.736 215.92 174.864 216.464 174.864C217.008 174.864 217.504 174.736 217.952 174.48C218.411 174.213 218.773 173.835 219.04 173.344C219.307 172.843 219.44 172.261 219.44 171.6ZM227.645 167.072C228.711 167.072 229.575 167.397 230.237 168.048C230.898 168.688 231.229 169.616 231.229 170.832V176H229.789V171.04C229.789 170.165 229.57 169.499 229.133 169.04C228.695 168.571 228.098 168.336 227.341 168.336C226.573 168.336 225.959 168.576 225.501 169.056C225.053 169.536 224.829 170.235 224.829 171.152V176H223.373V167.232H224.829V168.48C225.117 168.032 225.506 167.685 225.997 167.44C226.498 167.195 227.047 167.072 227.645 167.072ZM234.359 165.808C234.082 165.808 233.847 165.712 233.655 165.52C233.463 165.328 233.367 165.093 233.367 164.816C233.367 164.539 233.463 164.304 233.655 164.112C233.847 163.92 234.082 163.824 234.359 163.824C234.626 163.824 234.85 163.92 235.031 164.112C235.223 164.304 235.319 164.539 235.319 164.816C235.319 165.093 235.223 165.328 235.031 165.52C234.85 165.712 234.626 165.808 234.359 165.808ZM235.063 167.232V176H233.607V167.232H235.063ZM241.817 167.072C242.883 167.072 243.747 167.397 244.409 168.048C245.07 168.688 245.401 169.616 245.401 170.832V176H243.961V171.04C243.961 170.165 243.742 169.499 243.305 169.04C242.867 168.571 242.27 168.336 241.513 168.336C240.745 168.336 240.131 168.576 239.673 169.056C239.225 169.536 239.001 170.235 239.001 171.152V176H237.545V167.232H239.001V168.48C239.289 168.032 239.678 167.685 240.169 167.44C240.67 167.195 241.219 167.072 241.817 167.072ZM251.395 167.088C252.152 167.088 252.814 167.253 253.379 167.584C253.955 167.915 254.382 168.331 254.659 168.832V167.232H256.131V176.192C256.131 176.992 255.96 177.701 255.619 178.32C255.278 178.949 254.787 179.44 254.147 179.792C253.518 180.144 252.782 180.32 251.939 180.32C250.787 180.32 249.827 180.048 249.059 179.504C248.291 178.96 247.838 178.219 247.699 177.28H249.139C249.299 177.813 249.63 178.24 250.131 178.56C250.632 178.891 251.235 179.056 251.939 179.056C252.739 179.056 253.39 178.805 253.891 178.304C254.403 177.803 254.659 177.099 254.659 176.192V174.352C254.371 174.864 253.944 175.291 253.379 175.632C252.814 175.973 252.152 176.144 251.395 176.144C250.616 176.144 249.907 175.952 249.267 175.568C248.638 175.184 248.142 174.645 247.779 173.952C247.416 173.259 247.235 172.469 247.235 171.584C247.235 170.688 247.416 169.904 247.779 169.232C248.142 168.549 248.638 168.021 249.267 167.648C249.907 167.275 250.616 167.088 251.395 167.088ZM254.659 171.6C254.659 170.939 254.526 170.363 254.259 169.872C253.992 169.381 253.63 169.008 253.171 168.752C252.723 168.485 252.227 168.352 251.683 168.352C251.139 168.352 250.643 168.48 250.195 168.736C249.747 168.992 249.39 169.365 249.123 169.856C248.856 170.347 248.723 170.923 248.723 171.584C248.723 172.256 248.856 172.843 249.123 173.344C249.39 173.835 249.747 174.213 250.195 174.48C250.643 174.736 251.139 174.864 251.683 174.864C252.227 174.864 252.723 174.736 253.171 174.48C253.63 174.213 253.992 173.835 254.259 173.344C254.526 172.843 254.659 172.261 254.659 171.6ZM270.409 167.232L265.129 180.128H263.625L265.353 175.904L261.817 167.232H263.433L266.185 174.336L268.905 167.232H270.409ZM275.697 176.144C274.875 176.144 274.129 175.957 273.457 175.584C272.795 175.211 272.273 174.683 271.889 174C271.515 173.307 271.329 172.507 271.329 171.6C271.329 170.704 271.521 169.915 271.905 169.232C272.299 168.539 272.833 168.011 273.505 167.648C274.177 167.275 274.929 167.088 275.761 167.088C276.593 167.088 277.345 167.275 278.017 167.648C278.689 168.011 279.217 168.533 279.601 169.216C279.995 169.899 280.193 170.693 280.193 171.6C280.193 172.507 279.99 173.307 279.585 174C279.19 174.683 278.651 175.211 277.969 175.584C277.286 175.957 276.529 176.144 275.697 176.144ZM275.697 174.864C276.219 174.864 276.71 174.741 277.169 174.496C277.627 174.251 277.995 173.883 278.273 173.392C278.561 172.901 278.705 172.304 278.705 171.6C278.705 170.896 278.566 170.299 278.289 169.808C278.011 169.317 277.649 168.955 277.201 168.72C276.753 168.475 276.267 168.352 275.745 168.352C275.211 168.352 274.721 168.475 274.273 168.72C273.835 168.955 273.483 169.317 273.217 169.808C272.95 170.299 272.817 170.896 272.817 171.6C272.817 172.315 272.945 172.917 273.201 173.408C273.467 173.899 273.819 174.267 274.257 174.512C274.694 174.747 275.174 174.864 275.697 174.864ZM289.883 167.232V176H288.427V174.704C288.15 175.152 287.76 175.504 287.259 175.76C286.768 176.005 286.224 176.128 285.627 176.128C284.944 176.128 284.331 175.989 283.787 175.712C283.243 175.424 282.811 174.997 282.491 174.432C282.182 173.867 282.027 173.179 282.027 172.368V167.232H283.467V172.176C283.467 173.04 283.686 173.707 284.123 174.176C284.56 174.635 285.158 174.864 285.915 174.864C286.694 174.864 287.307 174.624 287.755 174.144C288.203 173.664 288.427 172.965 288.427 172.048V167.232H289.883ZM308.287 167.232L305.551 176H304.047L301.935 169.04L299.823 176H298.319L295.567 167.232H297.055L299.071 174.592L301.247 167.232H302.735L304.863 174.608L306.847 167.232H308.287ZM310.484 165.808C310.207 165.808 309.972 165.712 309.78 165.52C309.588 165.328 309.492 165.093 309.492 164.816C309.492 164.539 309.588 164.304 309.78 164.112C309.972 163.92 310.207 163.824 310.484 163.824C310.751 163.824 310.975 163.92 311.156 164.112C311.348 164.304 311.444 164.539 311.444 164.816C311.444 165.093 311.348 165.328 311.156 165.52C310.975 165.712 310.751 165.808 310.484 165.808ZM311.188 167.232V176H309.732V167.232H311.188ZM315.126 164.16V176H313.67V164.16H315.126ZM319.063 164.16V176H317.607V164.16H319.063ZM328.914 176.144C328.242 176.144 327.639 176.032 327.106 175.808C326.573 175.573 326.151 175.253 325.842 174.848C325.533 174.432 325.362 173.957 325.33 173.424H326.834C326.877 173.861 327.079 174.219 327.442 174.496C327.815 174.773 328.301 174.912 328.898 174.912C329.453 174.912 329.89 174.789 330.21 174.544C330.53 174.299 330.69 173.989 330.69 173.616C330.69 173.232 330.519 172.949 330.178 172.768C329.837 172.576 329.309 172.389 328.594 172.208C327.943 172.037 327.41 171.867 326.994 171.696C326.589 171.515 326.237 171.253 325.938 170.912C325.65 170.56 325.506 170.101 325.506 169.536C325.506 169.088 325.639 168.677 325.906 168.304C326.173 167.931 326.551 167.637 327.042 167.424C327.533 167.2 328.093 167.088 328.722 167.088C329.693 167.088 330.477 167.333 331.074 167.824C331.671 168.315 331.991 168.987 332.034 169.84H330.578C330.546 169.381 330.359 169.013 330.018 168.736C329.687 168.459 329.239 168.32 328.674 168.32C328.151 168.32 327.735 168.432 327.426 168.656C327.117 168.88 326.962 169.173 326.962 169.536C326.962 169.824 327.053 170.064 327.234 170.256C327.426 170.437 327.661 170.587 327.938 170.704C328.226 170.811 328.621 170.933 329.122 171.072C329.751 171.243 330.263 171.413 330.658 171.584C331.053 171.744 331.389 171.989 331.666 172.32C331.954 172.651 332.103 173.083 332.114 173.616C332.114 174.096 331.981 174.528 331.714 174.912C331.447 175.296 331.069 175.6 330.578 175.824C330.098 176.037 329.543 176.144 328.914 176.144ZM341.946 167.232V176H340.49V174.704C340.212 175.152 339.823 175.504 339.322 175.76C338.831 176.005 338.287 176.128 337.69 176.128C337.007 176.128 336.394 175.989 335.85 175.712C335.306 175.424 334.874 174.997 334.554 174.432C334.244 173.867 334.09 173.179 334.09 172.368V167.232H335.53V172.176C335.53 173.04 335.748 173.707 336.186 174.176C336.623 174.635 337.22 174.864 337.978 174.864C338.756 174.864 339.37 174.624 339.818 174.144C340.266 173.664 340.49 172.965 340.49 172.048V167.232H341.946ZM345.86 168.656C346.116 168.155 346.479 167.765 346.948 167.488C347.428 167.211 348.009 167.072 348.692 167.072V168.576H348.308C346.676 168.576 345.86 169.461 345.86 171.232V176H344.404V167.232H345.86V168.656ZM358.373 171.28C358.373 171.557 358.357 171.851 358.325 172.16H351.317C351.37 173.024 351.663 173.701 352.197 174.192C352.741 174.672 353.397 174.912 354.165 174.912C354.794 174.912 355.317 174.768 355.733 174.48C356.159 174.181 356.458 173.787 356.629 173.296H358.197C357.962 174.139 357.493 174.827 356.789 175.36C356.085 175.883 355.21 176.144 354.165 176.144C353.333 176.144 352.586 175.957 351.925 175.584C351.274 175.211 350.762 174.683 350.389 174C350.015 173.307 349.829 172.507 349.829 171.6C349.829 170.693 350.01 169.899 350.373 169.216C350.735 168.533 351.242 168.011 351.893 167.648C352.554 167.275 353.311 167.088 354.165 167.088C354.997 167.088 355.733 167.269 356.373 167.632C357.013 167.995 357.503 168.496 357.845 169.136C358.197 169.765 358.373 170.48 358.373 171.28ZM356.869 170.976C356.869 170.421 356.746 169.947 356.501 169.552C356.255 169.147 355.919 168.843 355.493 168.64C355.077 168.427 354.613 168.32 354.101 168.32C353.365 168.32 352.735 168.555 352.213 169.024C351.701 169.493 351.407 170.144 351.333 170.976H356.869ZM361.751 164.16V176H360.295V164.16H361.751ZM371.784 167.232L366.504 180.128H365L366.728 175.904L363.192 167.232H364.808L367.56 174.336L370.28 167.232H371.784ZM60.848 191.088C61.6053 191.088 62.2667 191.253 62.832 191.584C63.408 191.915 63.8347 192.331 64.112 192.832V191.232H65.584V200.192C65.584 200.992 65.4133 201.701 65.072 202.32C64.7307 202.949 64.24 203.44 63.6 203.792C62.9707 204.144 62.2347 204.32 61.392 204.32C60.24 204.32 59.28 204.048 58.512 203.504C57.744 202.96 57.2907 202.219 57.152 201.28H58.592C58.752 201.813 59.0827 202.24 59.584 202.56C60.0853 202.891 60.688 203.056 61.392 203.056C62.192 203.056 62.8427 202.805 63.344 202.304C63.856 201.803 64.112 201.099 64.112 200.192V198.352C63.824 198.864 63.3973 199.291 62.832 199.632C62.2667 199.973 61.6053 200.144 60.848 200.144C60.0693 200.144 59.36 199.952 58.72 199.568C58.0907 199.184 57.5947 198.645 57.232 197.952C56.8693 197.259 56.688 196.469 56.688 195.584C56.688 194.688 56.8693 193.904 57.232 193.232C57.5947 192.549 58.0907 192.021 58.72 191.648C59.36 191.275 60.0693 191.088 60.848 191.088ZM64.112 195.6C64.112 194.939 63.9787 194.363 63.712 193.872C63.4453 193.381 63.0827 193.008 62.624 192.752C62.176 192.485 61.68 192.352 61.136 192.352C60.592 192.352 60.096 192.48 59.648 192.736C59.2 192.992 58.8427 193.365 58.576 193.856C58.3093 194.347 58.176 194.923 58.176 195.584C58.176 196.256 58.3093 196.843 58.576 197.344C58.8427 197.835 59.2 198.213 59.648 198.48C60.096 198.736 60.592 198.864 61.136 198.864C61.68 198.864 62.176 198.736 62.624 198.48C63.0827 198.213 63.4453 197.835 63.712 197.344C63.9787 196.843 64.112 196.261 64.112 195.6ZM76.0445 195.28C76.0445 195.557 76.0285 195.851 75.9965 196.16H68.9885C69.0418 197.024 69.3352 197.701 69.8685 198.192C70.4125 198.672 71.0685 198.912 71.8365 198.912C72.4658 198.912 72.9885 198.768 73.4045 198.48C73.8312 198.181 74.1298 197.787 74.3005 197.296H75.8685C75.6338 198.139 75.1645 198.827 74.4605 199.36C73.7565 199.883 72.8818 200.144 71.8365 200.144C71.0045 200.144 70.2578 199.957 69.5965 199.584C68.9458 199.211 68.4338 198.683 68.0605 198C67.6872 197.307 67.5005 196.507 67.5005 195.6C67.5005 194.693 67.6818 193.899 68.0445 193.216C68.4072 192.533 68.9138 192.011 69.5645 191.648C70.2258 191.275 70.9832 191.088 71.8365 191.088C72.6685 191.088 73.4045 191.269 74.0445 191.632C74.6845 191.995 75.1752 192.496 75.5165 193.136C75.8685 193.765 76.0445 194.48 76.0445 195.28ZM74.5405 194.976C74.5405 194.421 74.4178 193.947 74.1725 193.552C73.9272 193.147 73.5912 192.843 73.1645 192.64C72.7485 192.427 72.2845 192.32 71.7725 192.32C71.0365 192.32 70.4072 192.555 69.8845 193.024C69.3725 193.493 69.0792 194.144 69.0045 194.976H74.5405ZM79.7424 192.432V197.6C79.7424 198.027 79.833 198.331 80.0144 198.512C80.1957 198.683 80.5104 198.768 80.9584 198.768H82.0304V200H80.7184C79.9077 200 79.2997 199.813 78.8944 199.44C78.489 199.067 78.2864 198.453 78.2864 197.6V192.432H77.1504V191.232H78.2864V189.024H79.7424V191.232H82.0304V192.432H79.7424ZM92.4121 191.072C93.0735 191.072 93.6708 191.216 94.2041 191.504C94.7375 191.781 95.1535 192.203 95.4521 192.768C95.7615 193.333 95.9161 194.021 95.9161 194.832V200H94.4761V195.04C94.4761 194.165 94.2575 193.499 93.8201 193.04C93.3828 192.571 92.7855 192.336 92.0281 192.336C91.2601 192.336 90.6468 192.576 90.1881 193.056C89.7401 193.536 89.5161 194.235 89.5161 195.152V200H88.0601V188.16H89.5161V192.48C89.8041 192.032 90.1988 191.685 90.7001 191.44C91.2121 191.195 91.7828 191.072 92.4121 191.072ZM106.295 195.28C106.295 195.557 106.279 195.851 106.247 196.16H99.2385C99.2918 197.024 99.5852 197.701 100.119 198.192C100.663 198.672 101.319 198.912 102.087 198.912C102.716 198.912 103.239 198.768 103.655 198.48C104.081 198.181 104.38 197.787 104.551 197.296H106.119C105.884 198.139 105.415 198.827 104.711 199.36C104.007 199.883 103.132 200.144 102.087 200.144C101.255 200.144 100.508 199.957 99.8465 199.584C99.1958 199.211 98.6838 198.683 98.3105 198C97.9372 197.307 97.7505 196.507 97.7505 195.6C97.7505 194.693 97.9318 193.899 98.2945 193.216C98.6572 192.533 99.1638 192.011 99.8145 191.648C100.476 191.275 101.233 191.088 102.087 191.088C102.919 191.088 103.655 191.269 104.295 191.632C104.935 191.995 105.425 192.496 105.767 193.136C106.119 193.765 106.295 194.48 106.295 195.28ZM104.791 194.976C104.791 194.421 104.668 193.947 104.423 193.552C104.177 193.147 103.841 192.843 103.415 192.64C102.999 192.427 102.535 192.32 102.023 192.32C101.287 192.32 100.657 192.555 100.135 193.024C99.6225 193.493 99.3292 194.144 99.2545 194.976H104.791ZM109.672 188.16V200H108.216V188.16H109.672ZM113.61 192.848C113.898 192.347 114.325 191.931 114.89 191.6C115.466 191.259 116.133 191.088 116.89 191.088C117.669 191.088 118.373 191.275 119.002 191.648C119.642 192.021 120.143 192.549 120.506 193.232C120.869 193.904 121.05 194.688 121.05 195.584C121.05 196.469 120.869 197.259 120.506 197.952C120.143 198.645 119.642 199.184 119.002 199.568C118.373 199.952 117.669 200.144 116.89 200.144C116.143 200.144 115.482 199.979 114.906 199.648C114.341 199.307 113.909 198.885 113.61 198.384V204.16H112.154V191.232H113.61V192.848ZM119.562 195.584C119.562 194.923 119.429 194.347 119.162 193.856C118.895 193.365 118.533 192.992 118.074 192.736C117.626 192.48 117.13 192.352 116.586 192.352C116.053 192.352 115.557 192.485 115.098 192.752C114.65 193.008 114.287 193.387 114.01 193.888C113.743 194.379 113.61 194.949 113.61 195.6C113.61 196.261 113.743 196.843 114.01 197.344C114.287 197.835 114.65 198.213 115.098 198.48C115.557 198.736 116.053 198.864 116.586 198.864C117.13 198.864 117.626 198.736 118.074 198.48C118.533 198.213 118.895 197.835 119.162 197.344C119.429 196.843 119.562 196.256 119.562 195.584ZM138.912 191.232L136.176 200H134.672L132.56 193.04L130.448 200H128.944L126.192 191.232H127.68L129.696 198.592L131.872 191.232H133.36L135.488 198.608L137.472 191.232H138.912ZM141.109 189.808C140.832 189.808 140.597 189.712 140.405 189.52C140.213 189.328 140.117 189.093 140.117 188.816C140.117 188.539 140.213 188.304 140.405 188.112C140.597 187.92 140.832 187.824 141.109 187.824C141.376 187.824 141.6 187.92 141.781 188.112C141.973 188.304 142.069 188.539 142.069 188.816C142.069 189.093 141.973 189.328 141.781 189.52C141.6 189.712 141.376 189.808 141.109 189.808ZM141.813 191.232V200H140.357V191.232H141.813ZM146.071 192.432V197.6C146.071 198.027 146.161 198.331 146.343 198.512C146.524 198.683 146.839 198.768 147.286 198.768H148.359V200H147.047C146.236 200 145.628 199.813 145.223 199.44C144.817 199.067 144.615 198.453 144.615 197.6V192.432H143.479V191.232H144.615V189.024H146.071V191.232H148.359V192.432H146.071ZM154.475 191.072C155.136 191.072 155.733 191.216 156.267 191.504C156.8 191.781 157.216 192.203 157.515 192.768C157.824 193.333 157.979 194.021 157.979 194.832V200H156.539V195.04C156.539 194.165 156.32 193.499 155.883 193.04C155.445 192.571 154.848 192.336 154.091 192.336C153.323 192.336 152.709 192.576 152.251 193.056C151.803 193.536 151.579 194.235 151.579 195.152V200H150.123V188.16H151.579V192.48C151.867 192.032 152.261 191.685 152.763 191.44C153.275 191.195 153.845 191.072 154.475 191.072ZM164.181 200.144C163.36 200.144 162.613 199.957 161.941 199.584C161.28 199.211 160.757 198.683 160.373 198C160 197.307 159.813 196.507 159.813 195.6C159.813 194.704 160.005 193.915 160.389 193.232C160.784 192.539 161.317 192.011 161.989 191.648C162.661 191.275 163.413 191.088 164.245 191.088C165.077 191.088 165.829 191.275 166.501 191.648C167.173 192.011 167.701 192.533 168.085 193.216C168.48 193.899 168.677 194.693 168.677 195.6C168.677 196.507 168.474 197.307 168.069 198C167.674 198.683 167.136 199.211 166.453 199.584C165.77 199.957 165.013 200.144 164.181 200.144ZM164.181 198.864C164.704 198.864 165.194 198.741 165.653 198.496C166.112 198.251 166.48 197.883 166.757 197.392C167.045 196.901 167.189 196.304 167.189 195.6C167.189 194.896 167.05 194.299 166.773 193.808C166.496 193.317 166.133 192.955 165.685 192.72C165.237 192.475 164.752 192.352 164.229 192.352C163.696 192.352 163.205 192.475 162.757 192.72C162.32 192.955 161.968 193.317 161.701 193.808C161.434 194.299 161.301 194.896 161.301 195.6C161.301 196.315 161.429 196.917 161.685 197.408C161.952 197.899 162.304 198.267 162.741 198.512C163.178 198.747 163.658 198.864 164.181 198.864ZM178.367 191.232V200H176.911V198.704C176.634 199.152 176.245 199.504 175.743 199.76C175.253 200.005 174.709 200.128 174.111 200.128C173.429 200.128 172.815 199.989 172.271 199.712C171.727 199.424 171.295 198.997 170.975 198.432C170.666 197.867 170.511 197.179 170.511 196.368V191.232H171.951V196.176C171.951 197.04 172.17 197.707 172.607 198.176C173.045 198.635 173.642 198.864 174.399 198.864C175.178 198.864 175.791 198.624 176.239 198.144C176.687 197.664 176.911 196.965 176.911 196.048V191.232H178.367ZM182.602 192.432V197.6C182.602 198.027 182.692 198.331 182.874 198.512C183.055 198.683 183.37 198.768 183.818 198.768H184.89V200H183.578C182.767 200 182.159 199.813 181.754 199.44C181.348 199.067 181.146 198.453 181.146 197.6V192.432H180.01V191.232H181.146V189.024H182.602V191.232H184.89V192.432H182.602ZM190.376 195.584C190.376 194.688 190.557 193.904 190.92 193.232C191.282 192.549 191.778 192.021 192.408 191.648C193.048 191.275 193.762 191.088 194.552 191.088C195.234 191.088 195.869 191.248 196.456 191.568C197.042 191.877 197.49 192.288 197.8 192.8V188.16H199.272V200H197.8V198.352C197.512 198.875 197.085 199.307 196.52 199.648C195.954 199.979 195.293 200.144 194.536 200.144C193.757 200.144 193.048 199.952 192.408 199.568C191.778 199.184 191.282 198.645 190.92 197.952C190.557 197.259 190.376 196.469 190.376 195.584ZM197.8 195.6C197.8 194.939 197.666 194.363 197.4 193.872C197.133 193.381 196.77 193.008 196.312 192.752C195.864 192.485 195.368 192.352 194.824 192.352C194.28 192.352 193.784 192.48 193.336 192.736C192.888 192.992 192.53 193.365 192.264 193.856C191.997 194.347 191.864 194.923 191.864 195.584C191.864 196.256 191.997 196.843 192.264 197.344C192.53 197.835 192.888 198.213 193.336 198.48C193.784 198.736 194.28 198.864 194.824 198.864C195.368 198.864 195.864 198.736 196.312 198.48C196.77 198.213 197.133 197.835 197.4 197.344C197.666 196.843 197.8 196.261 197.8 195.6ZM209.732 195.28C209.732 195.557 209.716 195.851 209.684 196.16H202.676C202.729 197.024 203.023 197.701 203.556 198.192C204.1 198.672 204.756 198.912 205.524 198.912C206.153 198.912 206.676 198.768 207.092 198.48C207.519 198.181 207.817 197.787 207.988 197.296H209.556C209.321 198.139 208.852 198.827 208.148 199.36C207.444 199.883 206.569 200.144 205.524 200.144C204.692 200.144 203.945 199.957 203.284 199.584C202.633 199.211 202.121 198.683 201.748 198C201.375 197.307 201.188 196.507 201.188 195.6C201.188 194.693 201.369 193.899 201.732 193.216C202.095 192.533 202.601 192.011 203.252 191.648C203.913 191.275 204.671 191.088 205.524 191.088C206.356 191.088 207.092 191.269 207.732 191.632C208.372 191.995 208.863 192.496 209.204 193.136C209.556 193.765 209.732 194.48 209.732 195.28ZM208.228 194.976C208.228 194.421 208.105 193.947 207.86 193.552C207.615 193.147 207.279 192.843 206.852 192.64C206.436 192.427 205.972 192.32 205.46 192.32C204.724 192.32 204.095 192.555 203.572 193.024C203.06 193.493 202.767 194.144 202.692 194.976H208.228ZM213.11 188.16V200H211.654V188.16H213.11ZM215.047 195.584C215.047 194.688 215.229 193.904 215.591 193.232C215.954 192.549 216.45 192.021 217.079 191.648C217.719 191.275 218.429 191.088 219.207 191.088C219.975 191.088 220.642 191.253 221.207 191.584C221.773 191.915 222.194 192.331 222.471 192.832V191.232H223.943V200H222.471V198.368C222.183 198.88 221.751 199.307 221.175 199.648C220.61 199.979 219.949 200.144 219.191 200.144C218.413 200.144 217.709 199.952 217.079 199.568C216.45 199.184 215.954 198.645 215.591 197.952C215.229 197.259 215.047 196.469 215.047 195.584ZM222.471 195.6C222.471 194.939 222.338 194.363 222.071 193.872C221.805 193.381 221.442 193.008 220.983 192.752C220.535 192.485 220.039 192.352 219.495 192.352C218.951 192.352 218.455 192.48 218.007 192.736C217.559 192.992 217.202 193.365 216.935 193.856C216.669 194.347 216.535 194.923 216.535 195.584C216.535 196.256 216.669 196.843 216.935 197.344C217.202 197.835 217.559 198.213 218.007 198.48C218.455 198.736 218.951 198.864 219.495 198.864C220.039 198.864 220.535 198.736 220.983 198.48C221.442 198.213 221.805 197.835 222.071 197.344C222.338 196.843 222.471 196.261 222.471 195.6ZM233.956 191.232L228.676 204.128H227.172L228.9 199.904L225.364 191.232H226.98L229.732 198.336L232.452 191.232H233.956ZM235.884 200.096C235.606 200.096 235.372 200 235.18 199.808C234.988 199.616 234.892 199.381 234.892 199.104C234.892 198.827 234.988 198.592 235.18 198.4C235.372 198.208 235.606 198.112 235.884 198.112C236.15 198.112 236.374 198.208 236.556 198.4C236.748 198.592 236.844 198.827 236.844 199.104C236.844 199.381 236.748 199.616 236.556 199.808C236.374 200 236.15 200.096 235.884 200.096ZM239.243 200.096C238.966 200.096 238.731 200 238.539 199.808C238.347 199.616 238.251 199.381 238.251 199.104C238.251 198.827 238.347 198.592 238.539 198.4C238.731 198.208 238.966 198.112 239.243 198.112C239.51 198.112 239.734 198.208 239.915 198.4C240.107 198.592 240.203 198.827 240.203 199.104C240.203 199.381 240.107 199.616 239.915 199.808C239.734 200 239.51 200.096 239.243 200.096Z" fill="black"/>
<circle cx="100" cy="61" r="44" fill="white"/>
<circle cx="100" cy="61" r="47" stroke="black" stroke-opacity="0.03" stroke-width="6"/>
<g clip-path="url(#clip0_5532_21091)">
<path fill-rule="evenodd" clip-rule="evenodd" d="M92.1474 68.8498V59.7753H96.2272C97.9561 60.0849 99.6853 61.0241 101.414 62.1128H104.583C106.017 62.1986 106.769 63.654 105.374 64.6098C104.264 65.4259 102.797 65.3792 101.294 65.2441C100.258 65.1924 100.213 66.5862 101.294 66.5909C101.67 66.6205 102.078 66.5321 102.434 66.5321C104.308 66.5293 105.853 66.1708 106.798 64.6884L107.273 63.5801L111.986 61.2428C114.344 60.4661 116.021 62.9337 114.283 64.6518C110.868 67.1367 107.368 69.1816 103.787 70.8334C101.186 72.4164 98.5848 72.362 95.9862 70.8334L92.1474 68.8498ZM107.799 54.5377C108.285 54.5377 108.674 54.677 108.97 54.9531C109.265 55.2306 109.414 55.5988 109.414 56.059C109.414 56.5177 109.265 56.8873 108.97 57.1636C108.674 57.4408 108.285 57.579 107.799 57.579C107.313 57.579 106.922 57.4408 106.626 57.1636C106.331 56.8858 106.184 56.5177 106.184 56.059C106.184 55.5988 106.331 55.2306 106.626 54.9531C106.922 54.677 107.313 54.5377 107.799 54.5377ZM105.54 48C109.259 48 112.274 51.0167 112.274 54.7384C112.274 58.4599 109.259 61.4768 105.54 61.4768C101.821 61.4768 98.8064 58.4601 98.8064 54.7384C98.8064 51.0167 101.821 48 105.54 48ZM105.54 49.2701C108.558 49.2701 111.005 51.7184 111.005 54.7384C111.005 57.7585 108.558 60.2068 105.54 60.2068C102.522 60.2068 100.076 57.7587 100.076 54.7387C100.076 51.7186 102.522 49.2701 105.54 49.2701ZM106.807 52.1187H108.122L104.272 57.3582H102.958L106.807 52.1187ZM107.799 55.59C107.657 55.59 107.548 55.6321 107.472 55.7121C107.398 55.796 107.359 55.9091 107.359 56.0607C107.359 56.2102 107.398 56.325 107.472 56.4071C107.548 56.4893 107.657 56.5295 107.799 56.5295C107.94 56.5295 108.049 56.4877 108.124 56.4071C108.198 56.325 108.237 56.2102 108.237 56.0607C108.237 55.9091 108.198 55.7943 108.124 55.7121C108.051 55.6302 107.941 55.59 107.799 55.59ZM103.264 52.9545C103.121 52.9545 103.013 52.9963 102.939 53.0768C102.864 53.1587 102.826 53.2737 102.826 53.4232C102.826 53.573 102.864 53.6896 102.939 53.7716C103.013 53.8519 103.121 53.8939 103.264 53.8939C103.406 53.8939 103.515 53.8519 103.59 53.7716C103.664 53.6877 103.701 53.573 103.701 53.4232C103.701 53.2737 103.664 53.1587 103.59 53.0768C103.517 52.9963 103.408 52.9545 103.264 52.9545ZM103.263 51.9019C103.749 51.9019 104.14 52.0398 104.436 52.3175C104.731 52.595 104.878 52.9632 104.878 53.4221C104.878 53.8823 104.731 54.2505 104.436 54.528C104.14 54.8055 103.749 54.9434 103.263 54.9434C102.778 54.9434 102.388 54.8041 102.092 54.528C101.797 54.2505 101.648 53.8823 101.648 53.4221C101.648 52.9634 101.797 52.5938 102.092 52.3175C102.388 52.04 102.778 51.9019 103.263 51.9019ZM86 58.9029H90.9192V69.7617H86V58.9029Z" fill="#002680"/>
</g>
<ellipse cx="100" cy="60.8487" rx="35" ry="34.8797" stroke="#002680" stroke-width="6"/>
<path d="M173.555 74.4715V77.2715H177.315V79.0475H173.555V82.0075H177.795V83.8315H171.315V72.6475H177.795V74.4715H173.555ZM184.727 83.8315L182.903 81.0795L181.287 83.8315H178.887L181.783 79.3835L178.855 74.9675H181.383L183.191 77.7035L184.823 74.9675H187.223L184.311 79.3835L187.255 83.8315H184.727ZM187.895 79.3995C187.895 78.4822 188.082 77.6822 188.455 76.9995C188.829 76.3062 189.346 75.7729 190.007 75.3995C190.669 75.0155 191.426 74.8235 192.279 74.8235C193.378 74.8235 194.285 75.1009 194.999 75.6555C195.725 76.1995 196.21 76.9675 196.455 77.9595H194.039C193.911 77.5755 193.693 77.2769 193.383 77.0635C193.085 76.8395 192.711 76.7275 192.263 76.7275C191.623 76.7275 191.117 76.9622 190.743 77.4315C190.37 77.8902 190.183 78.5462 190.183 79.3995C190.183 80.2422 190.37 80.8982 190.743 81.3675C191.117 81.8262 191.623 82.0555 192.263 82.0555C193.17 82.0555 193.762 81.6502 194.039 80.8395H196.455C196.21 81.7995 195.725 82.5622 194.999 83.1275C194.274 83.6929 193.367 83.9755 192.279 83.9755C191.426 83.9755 190.669 83.7889 190.007 83.4155C189.346 83.0315 188.829 82.4982 188.455 81.8155C188.082 81.1222 187.895 80.3169 187.895 79.3995ZM206.336 79.2075C206.336 79.5275 206.315 79.8155 206.272 80.0715H199.792C199.846 80.7115 200.07 81.2129 200.464 81.5755C200.859 81.9382 201.344 82.1195 201.92 82.1195C202.752 82.1195 203.344 81.7622 203.696 81.0475H206.112C205.856 81.9009 205.366 82.6049 204.64 83.1595C203.915 83.7035 203.024 83.9755 201.968 83.9755C201.115 83.9755 200.347 83.7889 199.664 83.4155C198.992 83.0315 198.464 82.4929 198.08 81.7995C197.707 81.1062 197.52 80.3062 197.52 79.3995C197.52 78.4822 197.707 77.6769 198.08 76.9835C198.454 76.2902 198.976 75.7569 199.648 75.3835C200.32 75.0102 201.094 74.8235 201.968 74.8235C202.811 74.8235 203.563 75.0049 204.224 75.3675C204.896 75.7302 205.414 76.2475 205.776 76.9195C206.15 77.5809 206.336 78.3435 206.336 79.2075ZM204.016 78.5675C204.006 77.9915 203.798 77.5329 203.392 77.1915C202.987 76.8395 202.491 76.6635 201.904 76.6635C201.35 76.6635 200.88 76.8342 200.496 77.1755C200.123 77.5062 199.894 77.9702 199.808 78.5675H204.016ZM210.211 76.2475C210.499 75.8422 210.894 75.5062 211.395 75.2395C211.907 74.9622 212.489 74.8235 213.139 74.8235C213.897 74.8235 214.579 75.0102 215.187 75.3835C215.806 75.7569 216.291 76.2902 216.643 76.9835C217.006 77.6662 217.187 78.4609 217.187 79.3675C217.187 80.2742 217.006 81.0795 216.643 81.7835C216.291 82.4769 215.806 83.0155 215.187 83.3995C214.579 83.7835 213.897 83.9755 213.139 83.9755C212.489 83.9755 211.913 83.8422 211.411 83.5755C210.921 83.3089 210.521 82.9729 210.211 82.5675V88.0555H207.971V74.9675H210.211V76.2475ZM214.899 79.3675C214.899 78.8342 214.787 78.3755 214.563 77.9915C214.35 77.5969 214.062 77.2982 213.699 77.0955C213.347 76.8929 212.963 76.7915 212.547 76.7915C212.142 76.7915 211.758 76.8982 211.395 77.1115C211.043 77.3142 210.755 77.6129 210.531 78.0075C210.318 78.4022 210.211 78.8662 210.211 79.3995C210.211 79.9329 210.318 80.3969 210.531 80.7915C210.755 81.1862 211.043 81.4902 211.395 81.7035C211.758 81.9062 212.142 82.0075 212.547 82.0075C212.963 82.0075 213.347 81.9009 213.699 81.6875C214.062 81.4742 214.35 81.1702 214.563 80.7755C214.787 80.3809 214.899 79.9115 214.899 79.3675ZM221.423 76.8075V81.0955C221.423 81.3942 221.492 81.6129 221.631 81.7515C221.78 81.8795 222.026 81.9435 222.367 81.9435H223.407V83.8315H221.999C220.111 83.8315 219.167 82.9142 219.167 81.0795V76.8075H218.111V74.9675H219.167V72.7755H221.423V74.9675H223.407V76.8075H221.423ZM226.154 73.9115C225.759 73.9115 225.429 73.7889 225.162 73.5435C224.906 73.2875 224.778 72.9729 224.778 72.5995C224.778 72.2262 224.906 71.9169 225.162 71.6715C225.429 71.4155 225.759 71.2875 226.154 71.2875C226.549 71.2875 226.874 71.4155 227.13 71.6715C227.397 71.9169 227.53 72.2262 227.53 72.5995C227.53 72.9729 227.397 73.2875 227.13 73.5435C226.874 73.7889 226.549 73.9115 226.154 73.9115ZM227.258 74.9675V83.8315H225.018V74.9675H227.258ZM233.407 83.9755C232.554 83.9755 231.786 83.7889 231.103 83.4155C230.421 83.0315 229.882 82.4929 229.487 81.7995C229.103 81.1062 228.911 80.3062 228.911 79.3995C228.911 78.4929 229.109 77.6929 229.503 76.9995C229.909 76.3062 230.458 75.7729 231.151 75.3995C231.845 75.0155 232.618 74.8235 233.471 74.8235C234.325 74.8235 235.098 75.0155 235.791 75.3995C236.485 75.7729 237.029 76.3062 237.423 76.9995C237.829 77.6929 238.031 78.4929 238.031 79.3995C238.031 80.3062 237.823 81.1062 237.407 81.7995C237.002 82.4929 236.447 83.0315 235.743 83.4155C235.05 83.7889 234.271 83.9755 233.407 83.9755ZM233.407 82.0235C233.813 82.0235 234.191 81.9275 234.543 81.7355C234.906 81.5329 235.194 81.2342 235.407 80.8395C235.621 80.4449 235.727 79.9649 235.727 79.3995C235.727 78.5569 235.503 77.9115 235.055 77.4635C234.618 77.0049 234.079 76.7755 233.439 76.7755C232.799 76.7755 232.261 77.0049 231.823 77.4635C231.397 77.9115 231.183 78.5569 231.183 79.3995C231.183 80.2422 231.391 80.8929 231.807 81.3515C232.234 81.7995 232.767 82.0235 233.407 82.0235ZM244.586 74.8395C245.642 74.8395 246.496 75.1755 247.146 75.8475C247.797 76.5089 248.122 77.4369 248.122 78.6315V83.8315H245.882V78.9355C245.882 78.2315 245.706 77.6929 245.354 77.3195C245.002 76.9355 244.522 76.7435 243.914 76.7435C243.296 76.7435 242.805 76.9355 242.442 77.3195C242.09 77.6929 241.914 78.2315 241.914 78.9355V83.8315H239.674V74.9675H241.914V76.0715C242.213 75.6875 242.592 75.3889 243.05 75.1755C243.52 74.9515 244.032 74.8395 244.586 74.8395ZM249.676 79.3675C249.676 78.4715 249.852 77.6769 250.204 76.9835C250.567 76.2902 251.052 75.7569 251.66 75.3835C252.279 75.0102 252.967 74.8235 253.724 74.8235C254.386 74.8235 254.962 74.9569 255.452 75.2235C255.954 75.4902 256.354 75.8262 256.652 76.2315V74.9675H258.908V83.8315H256.652V82.5355C256.364 82.9515 255.964 83.2982 255.452 83.5755C254.951 83.8422 254.37 83.9755 253.708 83.9755C252.962 83.9755 252.279 83.7835 251.66 83.3995C251.052 83.0155 250.567 82.4769 250.204 81.7835C249.852 81.0795 249.676 80.2742 249.676 79.3675ZM256.652 79.3995C256.652 78.8555 256.546 78.3915 256.332 78.0075C256.119 77.6129 255.831 77.3142 255.468 77.1115C255.106 76.8982 254.716 76.7915 254.3 76.7915C253.884 76.7915 253.5 76.8929 253.148 77.0955C252.796 77.2982 252.508 77.5969 252.284 77.9915C252.071 78.3755 251.964 78.8342 251.964 79.3675C251.964 79.9009 252.071 80.3702 252.284 80.7755C252.508 81.1702 252.796 81.4742 253.148 81.6875C253.511 81.9009 253.895 82.0075 254.3 82.0075C254.716 82.0075 255.106 81.9062 255.468 81.7035C255.831 81.4902 256.119 81.1915 256.332 80.8075C256.546 80.4129 256.652 79.9435 256.652 79.3995ZM263.336 71.9915V83.8315H261.096V71.9915H263.336ZM274.546 83.9435C273.5 83.9435 272.54 83.6982 271.666 83.2075C270.791 82.7169 270.098 82.0395 269.586 81.1755C269.074 80.3009 268.818 79.3142 268.818 78.2155C268.818 77.1275 269.074 76.1515 269.586 75.2875C270.098 74.4129 270.791 73.7302 271.666 73.2395C272.54 72.7489 273.5 72.5035 274.546 72.5035C275.602 72.5035 276.562 72.7489 277.426 73.2395C278.3 73.7302 278.988 74.4129 279.49 75.2875C280.002 76.1515 280.258 77.1275 280.258 78.2155C280.258 79.3142 280.002 80.3009 279.49 81.1755C278.988 82.0395 278.3 82.7169 277.426 83.2075C276.551 83.6982 275.591 83.9435 274.546 83.9435ZM274.546 81.9435C275.218 81.9435 275.81 81.7942 276.322 81.4955C276.834 81.1862 277.234 80.7489 277.522 80.1835C277.81 79.6182 277.954 78.9622 277.954 78.2155C277.954 77.4689 277.81 76.8182 277.522 76.2635C277.234 75.6982 276.834 75.2662 276.322 74.9675C275.81 74.6689 275.218 74.5195 274.546 74.5195C273.874 74.5195 273.276 74.6689 272.754 74.9675C272.242 75.2662 271.842 75.6982 271.554 76.2635C271.266 76.8182 271.122 77.4689 271.122 78.2155C271.122 78.9622 271.266 79.6182 271.554 80.1835C271.842 80.7489 272.242 81.1862 272.754 81.4955C273.276 81.7942 273.874 81.9435 274.546 81.9435ZM285.988 76.8075H284.436V83.8315H282.164V76.8075H281.156V74.9675H282.164V74.5195C282.164 73.4315 282.474 72.6315 283.092 72.1195C283.711 71.6075 284.644 71.3675 285.892 71.3995V73.2875C285.348 73.2769 284.97 73.3675 284.756 73.5595C284.543 73.7515 284.436 74.0982 284.436 74.5995V74.9675H285.988V76.8075ZM291.504 76.8075H289.952V83.8315H287.68V76.8075H286.672V74.9675H287.68V74.5195C287.68 73.4315 287.989 72.6315 288.608 72.1195C289.227 71.6075 290.16 71.3675 291.408 71.3995V73.2875C290.864 73.2769 290.485 73.3675 290.272 73.5595C290.059 73.7515 289.952 74.0982 289.952 74.5995V74.9675H291.504V76.8075ZM301.196 79.2075C301.196 79.5275 301.174 79.8155 301.132 80.0715H294.652C294.705 80.7115 294.929 81.2129 295.324 81.5755C295.718 81.9382 296.204 82.1195 296.78 82.1195C297.612 82.1195 298.204 81.7622 298.556 81.0475H300.972C300.716 81.9009 300.225 82.6049 299.5 83.1595C298.774 83.7035 297.884 83.9755 296.828 83.9755C295.974 83.9755 295.206 83.7889 294.524 83.4155C293.852 83.0315 293.324 82.4929 292.94 81.7995C292.566 81.1062 292.38 80.3062 292.38 79.3995C292.38 78.4822 292.566 77.6769 292.94 76.9835C293.313 76.2902 293.836 75.7569 294.508 75.3835C295.18 75.0102 295.953 74.8235 296.828 74.8235C297.67 74.8235 298.422 75.0049 299.084 75.3675C299.756 75.7302 300.273 76.2475 300.636 76.9195C301.009 77.5809 301.196 78.3435 301.196 79.2075ZM298.876 78.5675C298.865 77.9915 298.657 77.5329 298.252 77.1915C297.846 76.8395 297.35 76.6635 296.764 76.6635C296.209 76.6635 295.74 76.8342 295.356 77.1755C294.982 77.5062 294.753 77.9702 294.668 78.5675H298.876ZM305.071 76.3435C305.359 75.8742 305.732 75.5062 306.191 75.2395C306.66 74.9729 307.193 74.8395 307.791 74.8395V77.1915H307.199C306.495 77.1915 305.961 77.3569 305.599 77.6875C305.247 78.0182 305.071 78.5942 305.071 79.4155V83.8315H302.831V74.9675H305.071V76.3435ZM312.691 83.9755C311.966 83.9755 311.315 83.8475 310.739 83.5915C310.163 83.3249 309.705 82.9675 309.363 82.5195C309.033 82.0715 308.851 81.5755 308.819 81.0315H311.075C311.118 81.3729 311.283 81.6555 311.571 81.8795C311.87 82.1035 312.238 82.2155 312.675 82.2155C313.102 82.2155 313.433 82.1302 313.667 81.9595C313.913 81.7889 314.035 81.5702 314.035 81.3035C314.035 81.0155 313.886 80.8022 313.587 80.6635C313.299 80.5142 312.835 80.3542 312.195 80.1835C311.534 80.0235 310.99 79.8582 310.563 79.6875C310.147 79.5169 309.785 79.2555 309.475 78.9035C309.177 78.5515 309.027 78.0769 309.027 77.4795C309.027 76.9889 309.166 76.5409 309.443 76.1355C309.731 75.7302 310.137 75.4102 310.659 75.1755C311.193 74.9409 311.817 74.8235 312.531 74.8235C313.587 74.8235 314.43 75.0902 315.059 75.6235C315.689 76.1462 316.035 76.8555 316.099 77.7515H313.955C313.923 77.3995 313.774 77.1222 313.507 76.9195C313.251 76.7062 312.905 76.5995 312.467 76.5995C312.062 76.5995 311.747 76.6742 311.523 76.8235C311.31 76.9729 311.203 77.1809 311.203 77.4475C311.203 77.7462 311.353 77.9755 311.651 78.1355C311.95 78.2849 312.414 78.4395 313.043 78.5995C313.683 78.7595 314.211 78.9249 314.627 79.0955C315.043 79.2662 315.401 79.5329 315.699 79.8955C316.009 80.2475 316.169 80.7169 316.179 81.3035C316.179 81.8155 316.035 82.2742 315.747 82.6795C315.47 83.0849 315.065 83.4049 314.531 83.6395C314.009 83.8635 313.395 83.9755 312.691 83.9755Z" fill="#002680"/>
<defs>
<filter id="filter0_d_5532_21091" x="0" y="0" width="472" height="340" filterUnits="userSpaceOnUse" color-interpolation-filters="sRGB">
<feFlood flood-opacity="0" result="BackgroundImageFix"/>
<feColorMatrix in="SourceAlpha" type="matrix" values="0 0 0 0 0 0 0 0 0 0 0 0 0 0 0 0 0 0 127 0" result="hardAlpha"/>
<feOffset/>
<feGaussianBlur stdDeviation="16"/>
<feComposite in2="hardAlpha" operator="out"/>
<feColorMatrix type="matrix" values="0 0 0 0 0 0 0 0 0 0 0 0 0 0 0 0 0 0 0.06 0"/>
<feBlend mode="normal" in2="BackgroundImageFix" result="effect1_dropShadow_5532_21091"/>
<feBlend mode="normal" in="SourceGraphic" in2="effect1_dropShadow_5532_21091" result="shape"/>
</filter>
<clipPath id="clip0_5532_21091">
<rect width="29" height="24" fill="white" transform="translate(86 48)"/>
</clipPath>
</defs>
</svg>
