<svg width="1264" height="250" viewBox="0 0 1264 250" fill="none" xmlns="http://www.w3.org/2000/svg">
<g clip-path="url(#clip0_6672_17738)">
<g clip-path="url(#clip1_6672_17738)">
<mask id="mask0_6672_17738" style="mask-type:luminance" maskUnits="userSpaceOnUse" x="0" y="0" width="1264" height="250">
<path d="M1264 250V0L0 0V250L1264 250Z" fill="white"/>
</mask>
<g mask="url(#mask0_6672_17738)">
<path d="M631.425 250L1053.66 197.997H210.711L631.425 250Z" fill="#EDF2F7"/>
<path d="M476.385 29.4717C474.252 30.7294 464.391 34.9192 461.454 35.9397C459.313 36.6837 465.498 33.5556 466.787 32.1667C461.454 32.1667 464.783 31.071 464.654 30.5497C461.988 31.8972 463.039 29.3559 463.587 28.6632L475.052 25.1597H469.186L467.853 23.5427H472.386H475.852C476.492 23.5427 475.585 21.7461 475.052 20.8477C477.097 20.3087 481.399 18.9073 482.252 17.6137C483.105 16.3201 488.651 17.0747 491.317 17.6137C493.717 18.1527 499.209 19.2307 501.982 19.2307H511.847C515.58 19.2307 514.78 19.2307 517.447 20.0392C520.113 20.8477 519.846 20.8477 521.179 20.8477C522.512 20.8477 526.779 21.3867 527.579 20.8477C528.379 20.3087 532.645 22.1952 534.778 22.1952C536.911 22.1952 536.378 20.8477 536.378 20.0392C536.378 19.2307 538.511 15.7272 539.577 15.9967C540.644 16.2662 539.577 17.8832 539.577 20.0392C539.577 22.1952 540.377 21.3867 541.977 20.8477C543.257 20.4165 544.999 19.5901 545.71 19.2307V22.1952C544.199 22.7342 540.857 23.7583 539.577 23.5427C538.298 23.3271 536.378 25.7886 535.578 27.0462L526.246 30.5497V34.3227C527.135 34.3227 529.232 34.7 530.512 36.2092C531.792 37.7184 533.889 37.0177 534.778 36.4787C534.067 37.5567 533.072 40.0361 534.778 41.3297C536.485 42.6233 536.911 39.1737 536.911 37.2872C538.067 36.5685 540.537 34.9695 541.177 34.3227C541.977 33.5143 541.177 32.4362 541.977 31.0887C542.777 29.7412 543.843 28.6632 544.643 27.5852C545.283 26.7228 545.976 26.8666 546.243 27.0462L549.976 28.6632C549.976 29.4717 550.242 31.3582 551.309 32.4362C552.375 33.5142 554.775 30.9091 555.841 29.4717C556.019 30.5497 556.268 33.0291 555.841 34.3227C555.308 35.9397 557.441 37.2872 559.041 38.0957C560.321 38.7425 559.041 40.5212 558.241 41.3297L557.441 44.0247C558.241 43.7552 559.841 43.6474 559.841 45.3722C559.841 47.5282 559.841 46.1807 559.041 47.2587C558.401 48.1211 557.708 46.8994 557.441 46.1807C555.753 46.2705 552.589 46.2346 553.442 45.3722L557.441 41.3297C555.753 41.6891 552.162 42.4077 551.309 42.4077H547.576C545.976 43.3959 543.363 45.1027 545.71 44.0247C548.056 42.9467 548.643 43.7552 548.643 44.2942C548.287 44.6535 547.576 45.8573 547.576 47.7977C547.576 49.6156 548.98 49.6831 549.816 49.4627C549.872 49.446 549.925 49.4299 549.976 49.4147C549.925 49.4317 549.872 49.4479 549.816 49.4627C548.866 49.7433 547.048 50.2232 546.243 50.2232C545.176 50.2232 545.443 51.5707 544.643 51.0317C544.003 50.6005 545.443 49.235 546.243 48.6062L543.843 49.4147L539.577 51.5707C539.4 52.469 538.618 54.2657 536.911 54.2657C535.205 54.2657 533.889 55.703 533.445 56.4217L531.312 58.8472V56.4217C530.868 57.7692 529.979 60.8415 529.979 62.3507C529.979 63.8599 526.957 64.9558 525.446 65.3152C524.645 65.944 522.939 67.3634 522.512 68.0102C521.979 68.8187 522.512 74.4782 522.512 74.7477C522.512 75.0172 521.979 75.8257 521.179 75.0172C520.511 74.3408 520.588 71.4009 520.631 70.7738C520.498 70.9758 519.542 69.9419 519.046 69.3577C518.869 69.6272 518.406 70.0045 517.98 69.3577C517.447 68.5492 515.047 69.0882 514.78 69.0882C514.514 69.0882 513.447 69.0882 513.447 69.3577C513.447 69.6272 513.181 70.7052 513.181 70.1662C513.181 69.6272 511.314 69.8967 510.781 69.8967C510.248 69.8967 509.981 69.6272 508.915 69.3577C507.848 69.0882 505.448 71.2442 504.649 71.5137C503.849 71.7832 503.582 72.5917 503.582 72.8612C503.582 73.1307 503.582 74.4782 503.049 75.0172C502.516 75.5562 502.782 76.9037 501.982 79.0597C501.182 81.2157 503.049 82.5632 503.849 83.6412C504.649 84.7192 504.649 84.7192 505.182 84.7192C505.715 84.7192 508.115 84.4497 509.181 84.1802C510.248 83.9107 509.714 81.7547 509.981 81.2157C510.248 80.6767 511.314 80.4072 512.647 79.8682C513.714 79.437 513.98 80.2275 513.98 80.6767C513.536 80.7665 512.807 81.2157 513.447 82.2937C514.087 83.3717 512.647 85.0785 511.847 85.7972C512.114 86.8751 511.314 87.1446 511.047 87.4141C510.781 87.6836 510.781 87.9531 512.647 88.2226C514.514 88.4921 513.447 88.2227 513.98 87.9531C514.514 87.6836 515.58 88.2227 516.113 88.4922C516.647 88.7617 517.18 89.0311 517.447 89.5701C517.66 90.0013 517.002 90.4685 516.647 90.6481C516.469 91.9956 516.113 94.7984 516.113 95.2296C516.113 95.7686 517.713 96.8466 518.78 97.1161C519.846 97.3856 520.113 96.5771 520.646 96.3076C521.179 96.0381 522.512 96.8466 522.779 96.8466C522.992 96.8466 523.125 97.3856 523.164 97.6551L525.446 95.7686C526.335 95.2296 528.486 94.1516 529.979 94.1516C531.472 94.1516 532.379 93.433 532.645 93.0736C532.912 93.433 534.032 94.475 536.378 95.7686C539.311 97.3856 539.044 94.1516 540.377 94.6906C541.71 95.2296 541.71 97.3856 542.777 97.3856C543.843 97.3856 544.377 98.7331 546.243 100.619C548.109 102.506 551.575 102.236 552.375 102.775C553.175 103.314 553.709 105.201 554.508 107.357C555.148 109.082 556.73 109.872 557.441 110.052C558.063 110.321 559.414 110.86 559.841 110.86C560.374 110.86 561.441 113.286 562.507 113.286C563.574 113.286 565.44 111.938 567.04 113.286C568.32 114.364 569.706 114.454 570.239 114.364C571.396 116.071 573.226 119.754 571.307 120.832C569.386 121.91 568.373 125.234 568.106 126.761C568.995 128.198 570.239 131.235 568.106 131.881C565.973 132.528 566.506 134.307 567.04 135.115C566.951 136.104 566.613 137.972 565.973 137.541C565.333 137.11 565.351 138.439 565.44 139.158C561.174 138.619 558.774 142.122 558.241 142.392C557.708 142.661 559.308 146.973 558.241 147.243C557.388 147.458 557.352 148.051 557.441 148.321C557.263 148.86 556.695 149.776 555.841 149.129C554.988 148.483 554.064 152.633 553.708 154.789C553.175 155.148 552.002 155.651 551.575 154.789C551.042 153.711 548.909 154.25 549.443 154.789C549.976 155.328 550.776 156.675 551.575 157.214C552.375 157.753 550.776 159.37 550.776 160.179C550.776 160.987 547.843 160.179 547.043 160.179C546.243 160.179 546.243 160.987 547.043 162.065C547.683 162.928 546.776 163.503 546.243 163.682C546.243 163.143 545.87 162.227 544.377 162.874C542.51 163.682 547.043 165.838 546.243 165.569C545.603 165.353 545.976 166.737 546.243 167.455C545.976 167.186 545.23 167.078 544.377 168.803C542.884 170.312 545.532 171.588 547.043 172.037C547.132 172.576 547.096 173.654 546.243 173.654C545.176 173.654 544.91 174.732 544.377 175.54C543.843 176.349 546.776 177.427 546.243 178.505C545.816 179.367 549.087 180.481 550.776 180.93C549.798 181.02 547.523 181.146 546.243 180.93C544.643 180.661 545.976 179.313 545.443 178.505C544.91 177.696 543.577 179.583 542.777 179.313C541.977 179.044 539.044 176.079 539.044 173.654C539.044 171.228 536.644 164.76 536.378 164.221C536.111 163.682 534.512 163.143 534.512 162.065C534.512 160.987 533.445 158.562 534.512 157.214C535.578 155.867 532.645 135.654 532.645 133.498C532.645 131.342 525.713 128.647 525.446 128.108C525.179 127.569 520.913 120.293 520.913 118.676C520.913 117.059 518.513 117.598 519.046 117.059C519.58 116.52 518.513 115.981 518.513 115.442C518.513 114.903 519.046 113.825 519.846 113.286C520.646 112.747 519.846 112.477 519.046 110.86C518.246 109.243 520.379 107.626 521.179 107.357C521.979 107.087 520.913 106.548 521.179 106.009C521.446 105.47 522.512 104.662 523.046 103.584C523.579 102.506 522.512 99.5416 522.512 98.1941C522.512 96.8466 521.446 97.9246 520.913 97.3856C520.486 96.9544 520.024 98.1043 519.846 98.7331C519.58 98.9128 518.94 99.1643 518.513 98.7331C517.98 98.1941 516.647 98.1941 516.647 97.9246C516.647 97.6551 514.78 96.3076 514.247 95.7686C513.82 95.3374 514.247 94.8703 514.514 94.6906C514.336 94.3313 513.927 93.7204 513.714 94.1516C513.5 94.5828 512.558 92.894 512.114 91.9956C511.492 91.277 510.034 89.9474 509.181 90.3786C508.115 90.9176 506.515 89.0312 505.182 87.6836C503.849 86.3362 503.049 88.2227 501.449 88.4922C499.849 88.7617 497.183 85.5277 495.583 84.9887C493.984 84.4497 492.917 81.7547 493.184 80.4072C493.45 79.0597 490.784 75.5562 489.718 75.0172C488.651 74.4782 489.184 73.6697 489.184 73.1307C489.184 72.5917 488.384 70.7052 487.851 70.1662C487.318 69.6272 487.851 67.7407 487.851 67.2017C487.851 66.6627 486.785 67.4712 486.251 67.2017C485.718 66.9322 485.718 68.5492 485.718 69.0882C485.718 69.5194 486.429 70.3458 486.785 70.7052V72.0527C486.785 72.5917 488.384 74.2087 487.851 74.4782C487.318 74.7477 488.118 75.8257 488.118 76.3647C488.118 76.7959 488.651 77.263 488.918 77.4427C488.829 77.802 488.598 78.4129 488.384 77.9817C488.118 77.4427 487.318 76.9037 487.051 76.3647C486.785 75.8257 486.518 75.2867 486.785 74.7477C487.051 74.2087 486.251 73.4002 485.718 73.6697C485.185 73.9392 484.652 73.1307 484.385 72.8612C484.118 72.5917 484.118 72.0527 484.918 72.0527C485.718 72.0527 485.452 71.2442 485.452 70.9747C485.452 70.7052 484.118 69.3577 484.118 69.0882V65.3152C484.118 64.7762 482.785 63.4287 482.252 63.4287C481.719 63.4287 481.185 62.8897 481.185 62.3507C481.185 61.8117 480.652 61.0032 481.185 60.4642C481.719 59.9252 481.185 59.3862 481.185 58.8472C481.185 58.3082 480.919 58.0387 480.652 57.2302C480.386 56.4217 480.919 56.6912 480.919 56.4217C480.919 56.1522 480.652 55.3437 481.719 54.2657C482.785 53.1877 481.985 53.4572 481.985 52.9182C481.985 52.3792 486.251 48.3367 486.251 47.7977C486.251 47.2587 487.051 46.4502 487.585 45.3722C488.118 44.2942 488.918 45.1027 489.184 44.2942C489.451 43.4857 488.384 42.9467 487.585 42.4077C486.785 41.8687 487.051 41.3297 487.318 40.5212C487.585 39.7127 487.318 38.9042 487.318 38.0957C487.318 37.2872 488.118 37.0177 488.118 36.4787C488.118 36.0475 487.407 34.8617 487.051 34.3227C487.14 34.0532 487.318 33.3525 487.318 32.7057C487.318 31.8972 486.785 32.4362 486.251 32.4362C485.718 32.4362 485.718 31.6277 485.718 31.0887C485.718 30.5497 484.385 30.5497 483.319 30.5497C482.465 30.5497 481.185 30.0107 479.852 28.9327C479.141 29.831 476.706 31.4121 474.787 31.6277C472.866 31.8433 475.585 30.5497 476.385 29.4717Z" fill="#EDF2F7"/>
<path d="M559.043 19.2305C559.842 18.422 553.71 14.9185 551.31 14.9185H547.578H543.845C543.205 14.9185 545.711 16.7152 547.044 17.6135C548.822 18.1525 552.59 19.2305 553.443 19.2305C554.51 19.2305 552.377 20.8475 551.31 22.195C550.244 23.5425 549.977 25.1595 550.777 25.1595C551.577 25.1595 553.71 27.585 554.51 27.585C555.15 27.585 555.665 23.9917 555.843 22.195H562.509C561.087 21.4764 558.403 19.8773 559.043 19.2305Z" fill="#EDF2F7"/>
<path d="M559.842 11.6845C557.353 11.7744 551.896 11.9001 549.977 11.6845L555.842 8.72004L558.242 7.10304H571.308L565.441 8.72004L562.641 10.2023H570.24L573.174 7.10304C577.44 7.10304 586.718 6.88744 589.705 6.02504C593.437 4.94704 598.237 5.21654 602.503 7.10304C603.581 7.57969 604.475 7.81799 605.204 7.90113L607.835 7.10304C607.592 7.53327 606.784 8.08123 605.204 7.90113L602.503 8.72004L600.37 13.3015C598.77 14.1999 595.304 16.3199 594.237 17.6135C593.171 18.9071 594.682 19.7695 595.57 20.039L588.372 20.8475C586.594 21.7459 582.186 23.8659 578.773 25.1595C574.507 26.7765 576.107 28.663 574.24 30.5495C572.747 32.0588 570.952 29.9207 570.24 28.663C569.529 26.507 568.267 22.0872 568.907 21.656C569.548 21.2248 572.019 19.8594 573.174 19.2305L570.24 15.9965C570.596 15.0084 570.667 13.0859 568.107 13.3015C565.547 13.5171 563.397 11.3252 562.641 10.2023L559.842 11.6845Z" fill="#EDF2F7"/>
<path d="M595.57 27.0458C593.437 27.0458 594.237 25.1593 594.237 23.5423L600.369 22.1948V25.1593C599.48 25.7882 597.276 27.0458 595.57 27.0458Z" fill="#EDF2F7"/>
<path d="M602.505 67.2015L607.837 62.3505H610.324C610.857 62.3505 614.057 60.9114 615.123 60.9114C616.19 60.9114 619.656 59.8334 621.256 59.0249C622.855 58.2164 622.322 59.0249 625.255 60.9114C628.188 62.7979 624.455 62.7979 625.255 64.4149C626.055 66.0319 627.921 65.4929 628.988 66.0319C630.054 66.5709 632.988 67.9184 634.588 68.1879C636.188 68.4574 635.388 66.3014 636.188 65.4929C636.987 64.6844 643.386 67.2015 645.519 67.2015C647.226 67.2015 650.141 66.4218 651.385 66.0319V60.9114C649.252 60.5521 644.56 59.6717 642.853 59.0249C641.147 58.3781 641.431 57.4978 641.787 57.1385C641.787 56.5995 641.68 55.3597 641.253 54.713C640.72 53.9045 639.654 55.5215 638.854 55.5215C638.054 55.5215 638.587 58.486 637.787 58.7554C637.147 58.971 635.388 57.408 634.588 56.5995L632.988 52.2875C632.01 51.9281 629.841 50.7783 628.988 49.0535C627.921 46.8975 627.121 49.0535 626.588 49.0535C626.161 49.0535 627.299 50.4908 627.921 51.2095L630.054 53.3655C630.587 53.9045 631.922 55.0903 632.988 55.5215C634.055 55.9527 633.432 56.4198 632.988 56.5995L631.655 55.5215V56.5995C631.477 57.2283 631.015 58.5937 630.587 59.0249C630.161 59.4561 629.343 59.7436 628.988 59.8334L626.588 59.0249C626.944 58.8453 628.028 58.3242 629.521 57.6774C631.015 57.0306 630.855 55.9706 630.587 55.5215L627.121 53.3655C626.233 53.0061 624.295 52.0719 623.655 51.2095C623.015 50.3471 622.144 50.8501 621.789 51.2095H617.789C616.723 51.2095 615.923 54.174 615.123 55.5215C614.323 56.869 612.457 58.2164 611.657 59.0249C610.857 59.8334 609.791 59.5639 608.991 59.8334C608.191 60.1029 605.791 59.2944 604.192 59.0249C602.912 58.8093 602.947 57.3181 603.125 56.5995L604.192 52.2875C605.407 51.7485 608.495 50.7783 611.124 51.2095C614.41 51.7485 612.19 50.6705 612.457 49.0535C612.724 47.4365 612.457 47.706 609.791 45.8195C607.124 43.933 611.124 43.933 611.657 43.394C612.19 42.855 613.523 42.855 614.057 42.5855C614.59 42.316 616.456 41.777 617.789 41.5075C619.123 41.238 618.856 38.543 618.856 38.004C618.856 37.465 621.256 38.2735 621.256 35.0395C619.923 32.8835 622.589 33.9615 623.655 33.9615C624.722 33.9615 623.922 37.1955 624.455 37.1955H629.521C630.854 37.1955 634.055 36.387 634.055 35.848C634.055 35.4168 636.01 34.4107 636.987 33.9615L637.521 31.536C638.409 31.536 640.507 31.4282 641.787 30.997C643.386 30.458 641.253 30.1885 640.72 30.1885H636.987C636.454 30.1885 634.588 29.6495 634.055 28.841C633.521 28.0325 634.588 27.046 635.654 26.4155C636.508 25.9111 637.254 24.5883 637.521 23.99L634.588 24.529C634.588 25.068 634.161 26.326 632.455 27.046C630.321 27.9461 630.321 28.302 630.587 28.841C630.855 29.38 631.655 30.1885 631.655 30.997C631.655 31.8055 630.855 32.075 631.655 33.9615C632.455 35.848 630.855 35.5785 628.988 36.387C627.495 37.0338 627.121 35.0395 627.121 33.9615C625.966 33.3327 623.549 32.075 623.122 32.075H618.856C618.678 31.1767 618.429 29.0566 618.856 27.763C619.389 26.146 623.389 25.1595 624.455 25.1595C625.522 25.1595 627.388 21.3865 628.988 20.4865C630.588 19.5865 632.988 17.883 634.588 17.883C635.868 17.883 640.987 18.7814 643.386 19.2305C645.075 19.5 648.808 20.2007 650.232 20.8475C652.012 21.656 648.986 22.195 648.452 22.912C647.919 23.629 644.72 22.195 644.453 22.195C644.186 22.195 644.72 23.5425 648.452 24.529C652.185 25.5155 651.652 22.195 652.452 22.195C653.092 22.195 653.074 21.056 652.985 20.4865L654.851 20.8475C654.585 21.2967 654.105 22.195 654.318 22.195H656.984C657.606 21.7459 659.117 20.6858 660.184 20.039C661.25 19.3922 661.993 20.1289 662.23 20.578C662.763 20.578 664.151 20.3085 665.43 19.2305C667.03 17.883 667.03 19.2305 667.83 19.2305C668.63 19.2305 669.963 20.039 671.03 20.578C672.096 21.117 672.896 20.578 673.696 20.578C674.336 20.578 673.429 19.6797 672.896 19.2305C672.54 19.2305 671.563 19.1227 670.496 18.6915C669.43 18.2603 670.407 17.0745 671.03 16.5355C671.918 16.1762 673.802 15.4575 674.229 15.4575C674.656 15.4575 674.94 17.0745 675.029 17.883L676.895 20.039C676.718 20.3984 676.202 21.1709 675.562 21.3865C674.762 21.656 675.562 22.4645 677.429 23.5425C679.295 24.6205 679.028 21.656 679.028 20.578C679.028 19.5 676.895 18.6915 676.362 17.883C675.829 17.0745 675.562 16.5355 675.562 15.4575C675.562 14.3795 678.228 16.5355 679.028 16.5355H681.961C681.606 16.1762 680.948 15.3497 681.161 14.9185C681.428 14.3795 683.294 14.9185 684.094 14.9185C684.734 14.9185 684.361 14.0202 684.094 13.571C685.694 13.032 689.053 11.954 689.693 11.954C690.493 11.954 692.36 10.876 693.426 10.337C694.493 9.79809 696.626 11.6845 698.225 11.954C699.825 12.2235 703.558 12.2235 704.624 12.7625C705.478 13.1937 703.913 13.4812 703.025 13.571C702.847 14.1999 702.598 15.3497 703.025 14.9185C703.558 14.3795 707.024 14.9185 707.824 14.9185C708.624 14.9185 711.023 15.9965 712.891 15.9965C714.384 15.9965 715.113 15.2779 715.29 14.9185L720.09 16.5355C721.245 16.9847 723.876 17.7752 725.155 17.344C726.755 16.805 727.822 17.344 728.888 17.883C729.741 18.3142 729.244 16.805 728.888 15.9965C730.31 16.1762 733.421 16.5355 734.487 16.5355C735.82 16.5355 741.419 17.6135 743.286 17.883C744.779 18.0986 747.463 18.5119 748.618 18.6915L759.283 20.578L756.884 19.2305L759.283 18.6915L773.682 22.4645L779.815 23.0035V25.1595C779.815 25.5907 778.215 25.3392 777.415 25.1595C777.059 24.89 775.922 24.1893 774.215 23.5425C772.082 22.734 773.415 25.429 775.282 26.507C776.135 26.7226 776.348 27.8545 776.348 28.3935H772.882C771.602 28.3935 771.816 29.8309 772.082 30.5495L769.949 29.4715L764.617 31.0885L769.949 35.9395V40.521L767.816 38.0955C766.75 37.3768 764.35 35.6161 763.284 34.3225C762.217 33.029 763.728 31.6275 764.617 31.0885C764.173 29.9207 763.017 27.585 761.951 27.585C760.617 27.585 758.484 29.4715 758.484 30.5495C758.484 31.6275 756.084 30.5495 753.418 30.5495C750.751 30.5495 748.618 31.0885 747.552 31.6275C746.699 32.0587 747.196 34.8615 747.552 36.209L752.085 38.0955L757.417 42.4075C758.217 43.6652 760.031 46.3961 760.884 47.2585C761.737 48.1209 762.839 49.0552 763.284 49.4145L766.75 51.0315L763.284 52.918C763.639 54.0858 764.404 56.5832 764.617 57.23C764.883 58.0385 765.95 62.3505 763.284 63.4285C760.618 64.5065 760.884 65.315 757.417 67.2015C753.951 69.088 756.084 65.315 756.084 63.4285C756.084 61.9193 757.684 62.081 758.484 62.3505L761.951 58.847L760.884 51.5705L754.484 41.3295L756.084 46.1805L754.484 51.5705C753.684 52.0197 751.711 53.1875 750.218 54.2655C748.725 55.3435 750.84 56.691 752.085 57.23L754.484 62.3505C753.24 62.3505 750.645 61.9732 750.218 60.464C749.792 58.9548 748.974 57.1402 748.618 56.4215C747.374 55.7028 744.352 54.2655 742.219 54.2655C740.086 54.2655 741.331 57.3198 742.219 58.847H747.552C746.219 59.386 743.819 60.8413 744.886 62.3505C745.952 63.8597 747.108 67.6506 747.552 69.3575C747.641 70.7948 747.765 73.939 747.552 75.017C747.285 76.3645 745.152 79.0595 742.219 80.407C739.287 81.7545 736.887 83.641 737.953 82.2935C739.02 80.946 736.887 80.407 735.287 80.407C733.687 80.407 733.154 83.641 733.154 84.9885C733.154 86.336 736.887 88.4919 736.887 90.3784C736.887 92.2649 737.687 94.1514 736.887 95.2294C736.247 96.0918 734.843 97.9244 734.221 98.7329C733.865 98.1939 733.154 96.7386 733.154 95.2294C733.154 93.7202 729.599 91.5463 727.822 90.6479V95.7684L731.821 102.775V108.435L733.154 112.477V117.059C731.732 115.801 728.675 113.124 727.822 112.477C726.968 111.831 726.4 108.794 726.222 107.357C724.711 106.099 721.369 103.422 720.09 102.775C718.81 102.129 721.867 101.069 723.556 100.619L730.488 108.435V106.009C729.421 104.931 727.075 102.344 726.222 100.619C725.155 98.4634 724.622 94.1514 723.556 93.0734C722.702 92.211 723.2 87.8631 723.556 85.797C722.311 86.336 719.876 86.875 720.09 84.719C720.356 82.024 718.223 82.2935 716.623 79.868C715.344 77.9276 713.602 79.0595 712.891 79.868C711.468 81.5748 708.197 85.1502 706.491 85.797C704.358 86.6055 704.624 88.4919 704.624 89.5699C704.624 90.6479 703.558 95.7684 701.691 96.8464C699.825 97.9245 696.892 90.3784 696.626 89.5699C696.412 88.9231 695.648 82.2935 695.292 79.0595C694.315 79.5086 692.04 80.2992 690.76 79.868C689.48 79.4368 690.227 77.3526 690.76 76.3645H682.494C680.095 75.7356 674.976 74.3163 673.696 73.6695C672.416 73.0227 668.363 70.3456 666.497 69.088V72.861L671.03 76.3645L678.228 80.407L676.895 84.719C674.94 85.9766 670.603 88.7076 668.897 89.5699C667.19 90.4323 664.097 91.5463 662.763 91.9954C662.408 90.4683 661.537 87.0906 660.897 85.797C660.257 84.5034 655.653 77.173 653.431 73.6695L650.232 70.166V76.3645C650.232 77.712 655.031 83.641 655.831 84.18C656.471 84.6112 658.231 88.6716 659.03 90.6479L662.763 95.2294L671.03 93.0734C670.585 94.9599 669.536 99.1102 668.897 100.619C668.257 102.129 665.43 105.74 664.096 107.357C661.963 109.693 657.697 114.58 657.697 115.442C657.697 116.304 658.586 120.293 659.03 122.179C658.942 124.874 658.55 130.588 657.697 131.881C656.844 133.175 653.787 135.475 652.365 136.463C652.631 137.361 653.218 139.589 653.431 141.314C653.698 143.47 651.298 142.392 650.232 142.392C649.379 142.392 647.566 147.602 646.766 150.207C643.3 151.734 635.727 154.789 633.168 154.789C630.608 154.789 631.213 151.734 631.835 150.207V143.47L626.769 136.463C626.591 133.948 626.342 128.486 626.769 126.761C627.302 124.605 627.035 118.676 626.769 117.059C626.556 115.765 623.303 113.466 621.703 112.477L622.503 107.357V103.584C621.347 103.314 618.93 102.344 618.503 100.619C617.97 98.4634 614.77 100.619 612.903 100.619C611.037 100.619 606.504 102.775 605.171 102.775H599.039C597.706 102.775 595.573 96.3074 595.573 95.2294C595.573 94.367 592.373 92.7141 590.773 91.9954C591.929 89.6598 594.24 84.4495 594.24 82.2935V75.017L599.039 72.861L602.505 67.2015Z" fill="#EDF2F7"/>
<path d="M739.37 111.308C738.73 110.372 738.57 108.284 738.57 107.357C739.192 106.908 740.597 106.009 741.237 106.009C742.036 106.009 743.37 102.953 743.37 102.775C743.37 102.633 745.858 101.279 747.102 100.619C747.813 101.338 749.289 102.811 749.502 102.953C749.769 103.131 749.502 106.009 749.235 107.357C748.969 108.704 747.549 109.152 746.302 109.96C745.305 110.607 746.42 112.745 747.102 113.733C746.125 113.644 744.009 113.518 743.37 113.733C742.57 114.003 740.17 112.477 739.37 111.308Z" fill="#EDF2F7"/>
<path d="M750.305 113.733C750.482 112.476 750.945 109.96 751.371 109.96L752.171 108.435L753.504 106.009H757.504C757.504 106.459 757.184 107.77 755.904 109.421C754.304 111.486 753.771 108.882 752.171 109.421C750.571 109.96 752.971 111.308 753.504 111.308C753.931 111.308 753.682 113.644 753.504 114.811L750.305 113.733Z" fill="#EDF2F7"/>
<path d="M750.836 89.5697V84.9883C751.28 86.0357 752.329 88.4185 752.969 89.5697C753.769 91.0088 754.569 91.6342 755.902 93.0732C757.235 94.5123 757.502 96.8462 758.035 98.7327C758.568 100.619 756.702 100.619 755.902 100.619C755.102 100.619 753.502 98.7327 753.502 97.5632C753.502 96.3936 754.569 96.8462 755.369 95.7682C756.168 94.6902 754.035 93.0732 752.969 91.6342C752.116 90.483 751.191 89.7782 750.836 89.5697Z" fill="#EDF2F7"/>
<path d="M766.035 111.308C765.502 111.308 764.329 111.038 763.902 109.96L767.368 109.421C767.546 110.23 768.008 111.973 768.435 112.477C768.968 113.108 769.501 112.477 770.835 111.308C772.168 110.138 771.901 111.308 773.501 111.308C775.102 111.308 778.568 113.733 778.568 114.811C778.568 115.889 782.034 116.159 783.367 116.698C784.433 117.129 782.923 117.956 782.034 118.315L786.833 122.357C786.033 122.178 784.22 121.818 783.367 121.818C782.3 121.818 780.967 119.932 780.967 119.393C780.967 118.854 779.101 119.662 778.568 120.471C778.034 121.279 775.102 121.01 774.567 120.471C774.141 120.04 772.612 120.291 771.901 120.471C771.901 120.112 772.221 119.177 773.501 118.315C775.102 117.237 772.434 116.159 771.901 115.62C771.474 115.189 769.057 114.901 767.902 114.811C767.28 114.811 765.875 114.596 765.235 113.733C764.596 112.871 765.502 111.757 766.035 111.308Z" fill="#EDF2F7"/>
<path d="M760.701 129.095C760.488 129.742 758.835 128.286 758.035 127.478L755.902 128.556C755.457 128.915 754.462 129.634 754.035 129.634C753.609 129.634 753.858 131.071 754.035 131.79L752.969 130.712L752.169 132.868C751.547 133.676 749.663 135.347 747.103 135.563C744.544 135.778 742.126 137.449 741.237 138.258V142.3L740.438 143.378C740.704 145.265 741.237 149.146 741.237 149.577C741.237 150.008 739.993 152.631 739.371 153.889C739.727 154.518 740.793 155.398 742.217 153.889C743.641 152.38 745.534 153.26 746.303 153.889C747.636 153.26 750.943 151.733 753.502 150.655C756.702 149.307 758.035 150.924 759.635 152.002C760.914 152.865 761.768 154.338 762.034 154.967L764.7 152.002L763.901 155.775C763.901 157.213 764.434 159.979 766.567 159.548C769.233 159.009 770.833 159.548 771.899 159.548C772.753 159.548 775.811 156.494 777.233 154.967C779.277 152.631 783.365 147.906 783.365 147.69C783.365 147.475 784.254 142.749 784.698 140.414L782.032 137.18L779.366 132.868V129.095C778.833 129.095 777.659 128.987 777.233 128.556C776.7 128.017 776.433 124.244 776.433 123.705C776.433 123.166 775.1 126.4 774.566 129.095C774.139 131.251 773.321 131.79 772.966 131.79L768.967 129.634C768.789 128.915 768.433 127.37 768.433 126.939C768.433 126.4 769.5 124.783 767.367 124.244C765.66 123.813 764.878 122.807 764.7 122.357C764.878 122.896 765.234 124.028 765.234 124.244C765.234 124.513 763.367 125.322 762.034 125.861C760.701 126.4 760.968 128.286 760.701 129.095Z" fill="#EDF2F7"/>
<path d="M800.431 160.357C801.71 159.71 802.208 156.135 802.297 154.428L803.363 157.931C803.275 158.74 802.937 160.572 802.297 161.435C801.497 162.513 799.097 164.669 798.031 165.477C796.964 166.286 793.765 166.825 793.232 167.094C792.698 167.364 788.699 169.52 788.699 170.059C788.699 170.598 784.7 170.059 783.9 169.52C783.1 168.981 786.833 168.172 788.699 167.633C790.192 167.202 793.409 164.759 794.831 163.591C796.165 162.782 799.151 161.004 800.431 160.357Z" fill="#EDF2F7"/>
<path d="M671.027 132.868C672.734 130.712 670.316 127.298 668.894 125.861L668.156 126.939C667.602 127.658 666.015 129.203 664.094 129.634C661.695 130.173 662.761 133.946 661.781 135.563C660.997 136.856 662.108 139.936 662.761 141.314L666.495 140.414C667.295 138.797 669.321 135.024 671.027 132.868Z" fill="#EDF2F7"/>
<path d="M498.655 19.1189C498.396 18.2856 497.634 17.7188 496.771 17.7188H486.441C485.132 17.7188 484.185 18.985 484.54 20.261L489.106 36.6769C489.346 37.5391 490.122 38.1347 491.007 38.1347H501.867C503.201 38.1347 504.152 36.8235 503.752 35.535L498.655 19.1189Z" fill="#718096"/>
<path d="M498.358 20.4387C498.1 19.6037 497.337 19.0352 496.473 19.0352H487.73C486.425 19.0352 485.478 20.2948 485.827 21.5688L489.534 35.1309C489.771 35.9974 490.55 36.5973 491.438 36.5973H500.658C501.99 36.5973 502.94 35.2887 502.542 34.0008L498.358 20.4387Z" fill="#E2E8F0"/>
<path d="M633.745 42.9061L631.15 38.547C629.934 36.5029 631.387 33.897 633.745 33.897C636.101 33.897 637.554 36.5029 636.338 38.547L633.745 42.9061Z" fill="#002680"/>
<path d="M633.728 38.7511C634.751 38.7511 635.58 37.9464 635.58 36.9537C635.58 35.961 634.751 35.1562 633.728 35.1562C632.704 35.1562 631.875 35.961 631.875 36.9537C631.875 37.9464 632.704 38.7511 633.728 38.7511Z" fill="#EDF2F7"/>
<path d="M633.776 43.9144C634.024 43.9144 634.224 43.7106 634.224 43.4592C634.224 43.2077 634.024 43.0039 633.776 43.0039C633.529 43.0039 633.328 43.2077 633.328 43.4592C633.328 43.7106 633.529 43.9144 633.776 43.9144Z" fill="#002680"/>
<path d="M507.042 60.7033L504.648 56.6795C503.525 54.7926 504.867 52.3872 507.042 52.3872C509.218 52.3872 510.56 54.7926 509.437 56.6795L507.042 60.7033Z" fill="#002680"/>
<path d="M507.027 56.8652C507.971 56.8652 508.737 56.1224 508.737 55.206C508.737 54.2897 507.971 53.5469 507.027 53.5469C506.082 53.5469 505.316 54.2897 505.316 55.206C505.316 56.1224 506.082 56.8652 507.027 56.8652Z" fill="#EDF2F7"/>
<path d="M507.07 61.6334C507.298 61.6334 507.484 61.4453 507.484 61.2132C507.484 60.9811 507.298 60.793 507.07 60.793C506.841 60.793 506.656 60.9811 506.656 61.2132C506.656 61.4453 506.841 61.6334 507.07 61.6334Z" fill="#002680"/>
<path d="M650.07 105.391L647.675 101.367C646.552 99.4801 647.894 97.0747 650.07 97.0747C652.245 97.0747 653.587 99.4801 652.464 101.367L650.07 105.391Z" fill="#002680"/>
<path d="M650.054 101.553C650.998 101.553 651.764 100.81 651.764 99.8935C651.764 98.9772 650.998 98.2344 650.054 98.2344C649.109 98.2344 648.344 98.9772 648.344 99.8935C648.344 100.81 649.109 101.553 650.054 101.553Z" fill="#EDF2F7"/>
<path d="M650.097 106.321C650.326 106.321 650.511 106.133 650.511 105.901C650.511 105.669 650.326 105.481 650.097 105.481C649.869 105.481 649.684 105.669 649.684 105.901C649.684 106.133 649.869 106.321 650.097 106.321Z" fill="#002680"/>
<path d="M763.425 143.141L761.03 139.117C759.908 137.23 761.25 134.825 763.425 134.825C765.601 134.825 766.943 137.23 765.82 139.117L763.425 143.141Z" fill="#002680"/>
<path d="M763.413 139.303C764.358 139.303 765.123 138.56 765.123 137.644C765.123 136.728 764.358 135.985 763.413 135.985C762.469 135.985 761.703 136.728 761.703 137.644C761.703 138.56 762.469 139.303 763.413 139.303Z" fill="#EDF2F7"/>
<path d="M763.457 144.071C763.685 144.071 763.87 143.883 763.87 143.651C763.87 143.419 763.685 143.231 763.457 143.231C763.228 143.231 763.043 143.419 763.043 143.651C763.043 143.883 763.228 144.071 763.457 144.071Z" fill="#002680"/>
<path d="M527.995 113.785L525.4 109.426C524.184 107.382 525.637 104.776 527.995 104.776C530.351 104.776 531.804 107.382 530.589 109.426L527.995 113.785Z" fill="#002680"/>
<path d="M527.982 109.631C529.005 109.631 529.834 108.826 529.834 107.833C529.834 106.84 529.005 106.036 527.982 106.036C526.958 106.036 526.129 106.84 526.129 107.833C526.129 108.826 526.958 109.631 527.982 109.631Z" fill="#EDF2F7"/>
<path d="M528.026 114.793C528.274 114.793 528.474 114.589 528.474 114.338C528.474 114.087 528.274 113.883 528.026 113.883C527.779 113.883 527.578 114.087 527.578 114.338C527.578 114.589 527.779 114.793 528.026 114.793Z" fill="#002680"/>
<path d="M505.608 14.7732C507.832 12.7637 510.588 11.4581 513.537 11.0178C514.124 10.93 514.577 11.5358 514.346 12.0904C513.202 14.8381 511.305 17.2331 508.895 18.9477L498.275 26.5049L495.957 23.4947L505.608 14.7732Z" fill="#002680"/>
<path d="M495.955 23.4957L498.273 26.506L498.305 31.3219L495.596 26.0136L491.172 22.0596L495.955 23.4957Z" fill="#002680"/>
<path d="M491.173 22.0581L495.653 25.967L498.305 31.3204L497.573 31.8982L494.922 26.5448L490.441 22.6359L491.173 22.0581Z" fill="#002680"/>
<path d="M498.355 8.94385L509.324 15.5486L512.748 28.1121L510.461 29.9178L504.979 18.9794L495.84 10.9301L498.355 8.94385Z" fill="#002680"/>
<path d="M504.082 11.1237L503.012 9.73438L500.725 11.54L501.795 12.9294L504.082 11.1237Z" fill="#002680"/>
<path d="M512.996 22.7019L511.926 21.3125L509.639 23.1182L510.709 24.5075L512.996 22.7019Z" fill="#002680"/>
<path d="M691.143 26.1751C691.318 25.2288 692.133 24.543 693.083 24.543H736.316C737.553 24.543 738.485 25.6802 738.258 26.9108L732.974 55.5096H685.723L691.143 26.1751Z" fill="#718096"/>
<path d="M715.427 66.7155C715.133 66.8816 714.801 66.9689 714.464 66.9689H671.739C670.721 66.9689 670.369 65.5978 671.258 65.0955L685.64 56.9717H732.676L715.427 66.7155Z" fill="#4A5568"/>
<path d="M715.427 65.7388C715.133 65.905 714.801 65.9922 714.464 65.9922H671.739C670.721 65.9922 670.369 64.6211 671.258 64.1189L685.64 55.9951H732.676L715.427 65.7388Z" fill="#718096"/>
<path d="M713.451 63.5546H678.297L687.303 58.4341H722.119L713.451 63.5546Z" fill="#4A5568"/>
<path d="M692.358 26.3375C692.445 25.8635 692.853 25.5195 693.329 25.5195H735.823C736.44 25.5195 736.906 26.0868 736.793 26.7016L732.151 52.0972H687.648L692.358 26.3375Z" fill="#E2E8F0"/>
<path d="M488.207 109.492C488.031 108.545 487.215 107.859 486.265 107.859H432.956C431.72 107.859 430.788 108.997 431.015 110.227L437.519 145.43H494.847L488.207 109.492Z" fill="#718096"/>
<path d="M458.906 159.079C459.2 159.245 459.532 159.332 459.869 159.332H512.624C513.642 159.332 513.994 157.961 513.105 157.459L494.949 147.203H437.883L458.906 159.079Z" fill="#4A5568"/>
<path d="M458.906 157.895C459.2 158.061 459.532 158.148 459.869 158.148H512.624C513.642 158.148 513.994 156.777 513.105 156.275L494.949 146.019H437.883L458.906 157.895Z" fill="#718096"/>
<path d="M461.208 155.191H503.859L492.932 148.979H450.691L461.208 155.191Z" fill="#4A5568"/>
<path d="M487.065 111.497C486.806 110.075 485.581 109.043 484.152 109.043H436.186C434.334 109.043 432.935 110.745 433.273 112.589L438.519 141.288H492.511L487.065 111.497Z" fill="#F7FAFC"/>
<path d="M343.005 178.21C347.788 183.658 340.65 192.766 344.703 200.438C340.247 202.284 328.859 203.076 320.224 201.644C316.792 201.075 309.757 195.515 309.757 195.515L314.488 190.414L308.215 194.386C305.026 193.582 301.643 189.629 298.197 185.724C295.137 182.257 293.485 177.058 291.355 175.85C295.55 175.588 313.341 170.507 313.341 170.507L317.964 176.534L317.669 170.736C321.528 170.569 326.151 171.229 330.231 173.731C332.771 175.288 334.245 178.371 335.757 178.942L335.547 174.819C336.63 174.887 340.919 175.835 343.005 178.21Z" fill="#EDF2F7"/>
<path d="M422.803 202.22C417.602 202.723 413.289 198.098 410.059 195.093C413.873 196.719 414.364 186.448 419.56 184.233C421.645 183.344 425.295 182.689 425.295 182.689L426.55 186.236L426.588 182.346C428.33 181.189 432.07 180.862 435.804 180.495C439.12 180.168 442.939 180.96 444.512 180.382C443.026 182.288 439.143 191.523 439.143 191.523L433.653 191.787L437.305 193.344C435.894 195.076 433.676 196.9 430.548 197.952C428.602 198.607 426.143 198.353 425.201 198.847L427.798 199.954C427.331 200.406 425.071 202.001 422.803 202.22Z" fill="#EDF2F7"/>
<path d="M355.518 182.794C355.974 189.787 350.42 195.905 346.8 200.458C348.812 195.203 336.739 195.19 334.267 188.312C333.275 185.553 332.6 180.664 332.6 180.664L336.805 178.745L332.228 178.938C330.912 176.659 330.626 171.629 330.29 166.609C329.992 162.15 331.022 156.941 330.383 154.853C332.587 156.74 343.355 161.4 343.355 161.4L343.522 168.799L345.449 163.768C347.45 165.566 349.539 168.445 350.697 172.603C351.417 175.19 351.054 178.527 351.61 179.769L352.981 176.191C353.501 176.792 355.319 179.745 355.518 182.794Z" fill="#EDF2F7"/>
<path d="M411.833 194.486L381.841 103.367L351.848 194.486" stroke="#CBD5E0" stroke-width="3"/>
<path d="M419.83 192.461H343.848V198.535H419.83V192.461Z" fill="#E2E8F0"/>
<path d="M381.839 111.465V192.459M371.841 135.763L393.836 148.925L361.843 166.136L405.833 184.36M391.836 135.763L369.841 148.925L401.834 166.136L357.844 184.36" stroke="#E2E8F0" stroke-width="2"/>
<path d="M389.203 83.3672C393.704 86.3702 393.704 95.8596 389.203 98.8626" stroke="#CBD5E0" stroke-width="2.5" stroke-linecap="round"/>
<path d="M393.145 79.8906C399.897 84.2419 399.897 97.9919 393.145 102.343" stroke="#CBD5E0" stroke-width="2.5" stroke-linecap="round"/>
<path d="M397.082 77.043C406.085 82.4974 406.085 99.7334 397.082 105.188" stroke="#CBD5E0" stroke-width="2.5" stroke-linecap="round"/>
<path d="M374.581 83.4141C370.046 86.4387 370.046 95.9967 374.581 99.0213" stroke="#CBD5E0" stroke-width="2.5" stroke-linecap="round"/>
<path d="M370.613 79.9102C363.811 84.2928 363.811 98.1421 370.613 102.525" stroke="#CBD5E0" stroke-width="2.5" stroke-linecap="round"/>
<path d="M366.645 77.043C357.577 82.5368 357.577 99.8971 366.645 105.391" stroke="#CBD5E0" stroke-width="2.5" stroke-linecap="round"/>
<path d="M377.838 91.2177C377.838 93.4543 379.628 95.2674 381.837 95.2674C384.045 95.2674 385.836 93.4543 385.836 91.2177C385.836 88.9811 384.045 87.168 381.837 87.168C379.628 87.168 377.838 88.9811 377.838 91.2177Z" fill="#E2E8F0"/>
<path d="M873.787 105.938H876.992L879.236 198.767H870.902L873.787 105.938Z" fill="#EDF2F7"/>
<path d="M880.623 195.25H869.512V198.766H880.623V195.25Z" fill="#EDF2F7"/>
<path d="M875.414 107.344C877.14 107.344 878.539 105.928 878.539 104.18C878.539 102.432 877.14 101.015 875.414 101.015C873.688 101.015 872.289 102.432 872.289 104.18C872.289 105.928 873.688 107.344 875.414 107.344Z" fill="#EDF2F7"/>
<path d="M871.703 99.6816C861.517 86.2388 856.248 75.6266 853.144 68.0383C852.721 67.004 853.971 66.2774 854.652 67.1597C864.253 79.6085 869.974 90.7995 873.184 98.8564C873.595 99.8865 872.371 100.563 871.703 99.6816Z" fill="#EDF2F7"/>
<path d="M917.048 102.071C900.557 104.939 888.829 104.719 880.752 103.966C879.652 103.864 879.599 102.405 880.687 102.206C896.037 99.3994 908.481 99.4838 917.016 100.36C918.108 100.471 918.129 101.883 917.048 102.071Z" fill="#EDF2F7"/>
<path d="M872.814 109.211C864.765 124.065 857.294 133.223 851.685 139.155C850.921 139.964 849.76 139.097 850.284 138.111C857.67 124.199 865.482 114.39 871.472 108.17C872.239 107.375 873.343 108.237 872.814 109.211Z" fill="#EDF2F7"/>
<path d="M842.281 97.0703H845.793L848.251 198.765H839.121L842.281 97.0703Z" fill="#CBD5E0"/>
<path d="M849.77 194.914H837.598V198.766H849.77V194.914Z" fill="#CBD5E0"/>
<path d="M844.064 98.6134C845.955 98.6134 847.488 97.0613 847.488 95.1466C847.488 93.2319 845.955 91.6797 844.064 91.6797C842.173 91.6797 840.641 93.2319 840.641 95.1466C840.641 97.0613 842.173 98.6134 844.064 98.6134Z" fill="#CBD5E0"/>
<path d="M840.313 90.6345C828.719 75.4094 822.865 63.4706 819.462 55.0494C819.043 54.0133 820.306 53.2855 820.989 54.1657C831.9 68.2236 838.297 80.846 841.811 89.7958C842.217 90.828 840.984 91.5141 840.313 90.6345Z" fill="#CBD5E0"/>
<path d="M890.178 92.7467C871.474 96.0468 858.315 95.7325 849.371 94.8601C848.271 94.7528 848.222 93.2827 849.31 93.0804C866.676 89.8496 880.686 89.9953 890.143 91.0136C891.234 91.1311 891.259 92.556 890.178 92.7467Z" fill="#CBD5E0"/>
<path d="M841.391 100.973C832.298 117.851 823.863 128.084 817.621 134.629C816.853 135.434 815.687 134.557 816.208 133.57C824.521 117.795 833.355 106.783 840.03 99.9216C840.799 99.1303 841.916 99.9974 841.391 100.973Z" fill="#CBD5E0"/>
<path d="M893.083 187.768C889.218 192.169 894.985 199.528 891.711 205.726C895.311 207.217 904.512 207.857 911.487 206.7C914.26 206.24 919.944 201.749 919.944 201.749L916.122 197.628L921.189 200.837C923.765 200.187 926.499 196.993 929.283 193.839C931.756 191.037 933.09 186.837 934.81 185.862C931.421 185.649 917.048 181.545 917.048 181.545L913.313 186.414L913.551 181.73C910.435 181.595 906.699 182.128 903.403 184.149C901.351 185.407 900.161 187.898 898.938 188.359L899.108 185.029C898.233 185.084 894.768 185.849 893.083 187.768Z" fill="#EDF2F7"/>
<path d="M829.28 202.093C834.189 202.913 837.457 200.061 839.978 198.247C836.695 199.043 834.604 191.805 829.426 189.787C827.349 188.977 823.856 188.19 823.856 188.19L823.256 190.561L822.6 187.833C820.799 186.866 817.274 186.302 813.749 185.709C810.618 185.182 807.197 185.393 805.645 184.847C807.328 186.315 812.405 193.133 812.405 193.133L817.545 193.811L814.402 194.573C815.989 195.913 818.338 197.39 821.409 198.408C823.321 199.041 825.563 199.085 826.517 199.515L824.282 200.057C824.787 200.416 827.14 201.736 829.28 202.093Z" fill="#EDF2F7"/>
<path d="M880.514 188.983C880.145 194.632 884.632 199.575 887.556 203.253C885.931 199.008 895.684 198.998 897.682 193.441C898.483 191.211 899.029 187.262 899.029 187.262L895.631 185.711L899.329 185.868C900.393 184.027 900.624 179.963 900.896 175.907C901.136 172.304 900.304 168.096 900.82 166.41C899.039 167.934 890.34 171.699 890.34 171.699L890.205 177.677L888.648 173.612C887.032 175.064 885.343 177.39 884.409 180.749C883.828 182.84 884.12 185.536 883.671 186.539L882.564 183.648C882.143 184.134 880.674 186.52 880.514 188.983Z" fill="#EDF2F7"/>
<path d="M860.073 201.053C862.497 202.38 865.603 201.358 867.831 200.786C865.619 200.653 867.616 196.226 865.568 194.18C864.746 193.359 863.111 192.301 863.111 192.301L861.728 193.525L862.556 191.879C861.959 191.019 860.21 190.08 858.471 189.125C856.927 188.277 854.895 187.791 854.254 187.211C854.563 188.332 854.444 193.05 854.444 193.05L857.06 194.338L854.943 194.21C855.254 195.241 855.937 196.484 857.23 197.597C858.036 198.29 859.288 198.71 859.64 199.12L858.135 199.029C858.263 199.319 859.017 200.475 860.073 201.053Z" fill="#EDF2F7"/>
<path d="M727.186 13.5356C727.186 10.3316 724.621 7.73438 721.457 7.73438H701.697C698.533 7.73438 695.969 10.3316 695.969 13.5356C695.969 16.7395 698.533 19.3367 701.697 19.3367H721.457C724.621 19.3367 727.186 16.7395 727.186 13.5356Z" fill="#F7FAFC"/>
<path d="M717.141 13.3403C714.068 13.3403 711.578 10.8183 711.578 7.70724C711.578 4.59621 714.068 2.07422 717.141 2.07422C720.213 2.07422 722.703 4.59621 722.703 7.70724C722.703 10.8183 720.213 13.3403 717.141 13.3403Z" fill="#F7FAFC"/>
<path d="M706.706 13.3399C703.069 13.3399 700.12 10.3537 700.12 6.66995C700.12 2.98624 703.069 0 706.706 0C710.344 0 713.293 2.98624 713.293 6.66995C713.293 10.3537 710.344 13.3399 706.706 13.3399Z" fill="#F7FAFC"/>
<path d="M722.107 47.3628L711.368 14.7383L700.629 47.3628" stroke="#002680" stroke-width="3"/>
<path d="M724.971 46.6367H697.766V48.8117H724.971V46.6367Z" fill="#2D3748"/>
<path d="M711.368 17.6367V46.6363M707.788 26.3366L715.663 31.049L704.209 37.2114L719.959 43.7363M714.947 26.3366L707.072 31.049L718.527 37.2114L702.777 43.7363" stroke="#002680"/>
<path d="M714.004 7.57812C715.61 8.65333 715.61 12.051 714.004 13.1262" stroke="#002680" stroke-linecap="round"/>
<path d="M715.414 6.33203C717.831 7.88999 717.831 12.8131 715.414 14.3711" stroke="#002680" stroke-linecap="round"/>
<path d="M716.824 5.3125C720.047 7.26543 720.047 13.4367 716.824 15.3896" stroke="#002680" stroke-linecap="round"/>
<path d="M708.765 7.59375C707.146 8.67672 707.146 12.0989 708.765 13.1819" stroke="#002680" stroke-linecap="round"/>
<path d="M707.35 6.33984C704.915 7.90904 704.915 12.8677 707.35 14.4369" stroke="#002680" stroke-linecap="round"/>
<path d="M705.927 5.3125C702.68 7.27952 702.68 13.4953 705.927 15.4623" stroke="#002680" stroke-linecap="round"/>
<path d="M709.937 10.3875C709.937 11.1883 710.578 11.8375 711.369 11.8375C712.16 11.8375 712.801 11.1883 712.801 10.3875C712.801 9.58665 712.16 8.9375 711.369 8.9375C710.578 8.9375 709.937 9.58665 709.937 10.3875Z" fill="#002680"/>
<path d="M469.507 103.234H455.184V139.443H469.507V103.234Z" fill="#CBD5E0"/>
<path d="M443.512 115.032L455.183 108.5V139.443H443.512V115.032Z" fill="#E2E8F0"/>
<path d="M469.504 113.562L481.705 109.816V139.442H469.504V113.562Z" fill="#E2E8F0"/>
<path d="M466.862 105.211H463.363V109.554H466.862V105.211Z" fill="#A0AEC0"/>
<path d="M466.862 110.793H463.363V115.136H466.862V110.793Z" fill="#A0AEC0"/>
<path d="M466.862 116.379H463.363V120.722H466.862V116.379Z" fill="#A0AEC0"/>
<path d="M466.862 121.961H463.363V126.304H466.862V121.961Z" fill="#A0AEC0"/>
<path d="M466.862 127.543H463.363V131.886H466.862V127.543Z" fill="#A0AEC0"/>
<path d="M466.862 133.129H463.363V137.472H466.862V133.129Z" fill="#A0AEC0"/>
<path d="M479.362 115.086H476.934V118.099H479.362V115.086Z" fill="#A0AEC0"/>
<path d="M479.362 118.961H476.934V121.974H479.362V118.961Z" fill="#A0AEC0"/>
<path d="M479.362 122.836H476.934V125.849H479.362V122.836Z" fill="#A0AEC0"/>
<path d="M479.362 126.707H476.934V129.72H479.362V126.707Z" fill="#A0AEC0"/>
<path d="M479.362 130.582H476.934V133.595H479.362V130.582Z" fill="#A0AEC0"/>
<path d="M479.362 134.457H476.934V137.47H479.362V134.457Z" fill="#A0AEC0"/>
<path d="M452.834 115.086H450.406V118.099H452.834V115.086Z" fill="#A0AEC0"/>
<path d="M452.834 118.961H450.406V121.974H452.834V118.961Z" fill="#A0AEC0"/>
<path d="M452.834 122.836H450.406V125.849H452.834V122.836Z" fill="#A0AEC0"/>
<path d="M452.834 126.707H450.406V129.72H452.834V126.707Z" fill="#A0AEC0"/>
<path d="M452.834 130.582H450.406V133.595H452.834V130.582Z" fill="#A0AEC0"/>
<path d="M452.834 134.457H450.406V137.47H452.834V134.457Z" fill="#A0AEC0"/>
<path d="M475.115 115.086H472.688V118.099H475.115V115.086Z" fill="#A0AEC0"/>
<path d="M475.115 118.961H472.688V121.974H475.115V118.961Z" fill="#A0AEC0"/>
<path d="M475.115 122.836H472.688V125.849H475.115V122.836Z" fill="#A0AEC0"/>
<path d="M475.115 126.707H472.688V129.72H475.115V126.707Z" fill="#A0AEC0"/>
<path d="M475.115 130.582H472.688V133.595H475.115V130.582Z" fill="#A0AEC0"/>
<path d="M475.115 134.457H472.688V137.47H475.115V134.457Z" fill="#A0AEC0"/>
<path d="M448.592 115.086H446.164V118.099H448.592V115.086Z" fill="#A0AEC0"/>
<path d="M448.592 118.961H446.164V121.974H448.592V118.961Z" fill="#A0AEC0"/>
<path d="M448.592 122.836H446.164V125.849H448.592V122.836Z" fill="#A0AEC0"/>
<path d="M448.592 126.707H446.164V129.72H448.592V126.707Z" fill="#A0AEC0"/>
<path d="M448.592 130.582H446.164V133.595H448.592V130.582Z" fill="#A0AEC0"/>
<path d="M448.592 134.457H446.164V137.47H448.592V134.457Z" fill="#A0AEC0"/>
<path d="M461.862 105.211H458.363V109.554H461.862V105.211Z" fill="#A0AEC0"/>
<path d="M461.862 110.793H458.363V115.136H461.862V110.793Z" fill="#A0AEC0"/>
<path d="M461.862 116.379H458.363V120.722H461.862V116.379Z" fill="#A0AEC0"/>
<path d="M461.862 121.961H458.363V126.304H461.862V121.961Z" fill="#A0AEC0"/>
<path d="M461.862 127.543H458.363V131.886H461.862V127.543Z" fill="#A0AEC0"/>
<path d="M461.862 133.129H458.363V137.472H461.862V133.129Z" fill="#A0AEC0"/>
<path d="M462.61 133.556C464.099 133.556 465.306 132.295 465.306 130.739C465.306 129.183 464.099 127.922 462.61 127.922C461.121 127.922 459.914 129.183 459.914 130.739C459.914 132.295 461.121 133.556 462.61 133.556Z" fill="#002680"/>
<path d="M459.016 136.555C459.016 134.898 460.342 133.555 461.978 133.555H463.242C464.878 133.555 466.205 134.898 466.205 136.555V139.189H459.016V136.555Z" fill="#002680"/>
<path d="M456.141 134.682C457.332 134.682 458.298 133.674 458.298 132.429C458.298 131.184 457.332 130.175 456.141 130.175C454.95 130.175 453.984 131.184 453.984 132.429C453.984 133.674 454.95 134.682 456.141 134.682Z" fill="#002680"/>
<path d="M453.266 137.596C453.266 135.987 454.553 134.684 456.141 134.684C457.729 134.684 459.017 135.987 459.017 137.596V139.191H453.266V137.596Z" fill="#002680"/>
<path d="M469.079 134.682C470.27 134.682 471.235 133.674 471.235 132.429C471.235 131.184 470.27 130.175 469.079 130.175C467.887 130.175 466.922 131.184 466.922 132.429C466.922 133.674 467.887 134.682 469.079 134.682Z" fill="#002680"/>
<path d="M466.203 137.596C466.203 135.987 467.49 134.684 469.078 134.684C470.667 134.684 471.953 135.987 471.953 137.596V139.191H466.203V137.596Z" fill="#002680"/>
<path d="M610.535 80.5981C610.684 78.1448 608.762 76.0712 606.334 76.0674C603.938 76.0637 602.021 78.0812 602.117 80.5059L602.265 84.2648L602.573 90.3072C602.645 91.7311 603.542 92.9772 604.857 93.4839C605.627 93.7802 606.475 93.7966 607.255 93.5303L607.352 93.4968C608.833 92.9915 609.864 91.6287 609.959 90.0497L610.535 80.5981Z" fill="#2D3748"/>
<path d="M587.678 113.301L592.846 113.309C595.39 113.313 597.45 115.405 597.446 117.981C597.442 120.558 595.376 122.644 592.832 122.64L587.664 122.632C585.12 122.628 583.06 120.536 583.064 117.959C583.068 115.383 585.134 113.297 587.678 113.301Z" fill="#2D3748"/>
<path d="M608.154 91.8201C609.256 81.3552 601.165 72.2274 590.773 72.2114C580.604 72.1958 572.563 80.9249 573.283 91.1952L573.37 92.4361L574.204 101.674C574.831 108.607 579.824 114.328 586.541 115.81C588.623 116.269 590.774 116.296 592.865 115.889L593.203 115.824C600.737 114.359 606.44 108.081 607.254 100.357L608.154 91.8201Z" fill="#E2E8F0" stroke="#E2E8F0"/>
<path d="M606.237 88.97C607.123 79.7303 599.959 71.726 590.792 71.7119C581.806 71.698 574.683 79.3804 575.259 88.4607L575.439 91.2944L576.255 101.247C576.747 107.267 581.002 112.287 586.803 113.695C588.798 114.18 590.875 114.208 592.881 113.778L593.186 113.713C599.676 112.323 604.526 106.83 605.167 100.144L606.237 88.97Z" fill="white"/>
<path d="M601.314 72.6649C601.316 71.5612 600.516 70.6228 599.438 70.4649C596.377 70.017 594.801 69.8264 591.199 69.7145C587.651 69.6043 585.519 69.8012 582.696 70.3398C581.631 70.5429 580.873 71.4952 580.871 72.5922C580.868 74.7236 582.304 76.5776 584.394 76.8278C587.452 77.1939 590.651 77.289 591.127 77.3015C591.17 77.3026 591.207 77.3023 591.25 77.3005C591.719 77.2806 594.808 77.141 597.811 76.7946C599.863 76.5578 601.311 74.7567 601.314 72.6649Z" fill="#A0AEC0"/>
<path d="M587.537 66.1366L594.562 66.1475L594.549 75.0406L587.524 75.0298L587.537 66.1366Z" fill="#E2E8F0" stroke="#E2E8F0"/>
<path d="M590.027 60.4672L591.982 60.4702C594.251 60.4737 596.087 62.3389 596.084 64.6362C596.08 66.9335 594.238 68.793 591.97 68.7895L590.015 68.7865C587.746 68.783 585.91 66.9178 585.913 64.6205C585.917 62.3232 587.759 60.4637 590.027 60.4672Z" fill="#4A5568"/>
<path d="M612.253 80.275C612.355 78.3783 610.865 76.7827 608.989 76.7798C606.916 76.7767 605.362 78.7019 605.779 80.7589L606.362 83.6489C606.439 84.0291 606.478 84.4164 606.478 84.8045L606.469 90.3826C606.468 91.0586 606.703 91.7132 607.132 92.231L607.291 92.4234C607.971 93.2448 609.091 93.5396 610.08 93.1577C610.998 92.8036 611.623 91.936 611.676 90.9435L612.253 80.275Z" fill="#A0AEC0"/>
<path d="M601.314 71.8108C596.889 71.2503 595.459 75.2665 591.19 75.1517C586.922 75.0369 584.709 71.0788 580.871 71.7793C580.867 74.5394 582.777 76.9053 585.493 77.1382C588.205 77.3708 590.757 77.4347 591.138 77.4433C591.174 77.4441 591.2 77.4439 591.236 77.4426C591.608 77.4292 594.039 77.3368 596.67 77.1134C599.368 76.8843 601.31 74.5527 601.314 71.8108Z" fill="#4A5568"/>
<path d="M578.41 79.2959C578.527 77.1328 576.827 75.3134 574.688 75.3101C572.573 75.3069 570.877 77.082 570.952 79.2226L571.1 83.5083L571.386 89.922C571.44 91.1281 572.169 92.1972 573.263 92.6758C574.01 93.0022 574.853 93.02 575.613 92.7254L575.702 92.6905C576.938 92.2116 577.779 91.0423 577.85 89.7053L578.41 79.2959Z" fill="#2D3748"/>
<path d="M601.961 50.2864C601.985 49.6581 601.488 49.1357 600.868 49.1348C600.252 49.1338 599.755 49.647 599.77 50.2707L599.824 52.6417L599.916 55.7475C599.925 56.0479 600.081 56.3244 600.331 56.4859C600.61 56.6665 600.966 56.6758 601.255 56.5102L601.282 56.4947C601.568 56.3305 601.75 56.0278 601.762 55.6949L601.961 50.2864Z" fill="#4A5568"/>
<path d="M600.915 51.2218C601.485 45.2782 596.878 40.1287 590.98 40.1196C585.201 40.1107 580.619 45.0528 580.99 50.8937L581.104 52.6937L581.628 59.0695C581.946 62.9439 584.684 66.1737 588.418 67.0782C589.7 67.3887 591.033 67.4068 592.322 67.1312L592.518 67.0893C596.695 66.1964 599.817 62.6626 600.229 58.36L600.915 51.2218Z" fill="#CBD5E0"/>
<path d="M600.559 51.0196C600.974 46.3982 597.384 42.4119 592.801 42.4048C588.304 42.3979 584.732 46.2328 585.003 50.7787L585.126 52.8619L585.565 58.5988C585.792 61.5671 587.86 64.0599 590.707 64.7988C591.762 65.0724 592.866 65.0882 593.928 64.8449L594.085 64.8089C597.272 64.0785 599.631 61.3513 599.928 58.0555L600.559 51.0196Z" fill="white"/>
<path d="M576.573 79.7583C576.682 77.7091 575.073 75.9856 573.046 75.9824C571.043 75.9794 569.436 77.661 569.506 79.689L569.646 83.7681L569.918 89.8654C569.969 91.0071 570.659 92.0194 571.694 92.4734C572.402 92.7839 573.203 92.8009 573.924 92.5206L574.009 92.4874C575.178 92.0331 575.974 90.9259 576.041 89.6603L576.573 79.7583Z" fill="#A0AEC0"/>
<path d="M620.869 223.087C623.136 223.891 625.603 222.591 626.254 220.249C626.895 217.939 625.506 215.552 623.198 215.003L619.935 214.225L614.517 213.005C613.141 212.695 611.714 213.246 610.891 214.407C610.434 215.052 610.202 215.834 610.233 216.628L610.237 216.73C610.3 218.314 611.312 219.698 612.789 220.222L620.869 223.087Z" fill="#A0AEC0"/>
<path d="M576.733 224.074C577.338 227.016 580.309 228.795 583.146 227.914C585.93 227.05 587.414 223.986 586.386 221.229L585.988 220.162L584.716 216.925C584.007 215.121 582.239 213.978 580.324 214.086C579.641 214.125 578.974 214.322 578.379 214.664L578.289 214.715C576.433 215.777 575.47 217.933 575.904 220.046L576.733 224.074Z" fill="#A0AEC0"/>
<path d="M593.154 47.9831L596.987 47.989C599.531 47.9929 601.591 50.0849 601.587 52.6616C601.583 55.2383 599.517 57.324 596.973 57.3201L593.14 57.3142C590.596 57.3102 588.536 55.2182 588.54 52.6415C588.544 50.0648 590.61 47.9792 593.154 47.9831Z" fill="#2D3748"/>
<path d="M599.261 52.7828C599.265 50.2061 597.205 48.1141 594.661 48.1102L592.267 48.1065C589.722 48.1026 587.656 50.1882 587.652 52.7649C587.649 55.3416 589.708 57.4336 592.253 57.4376L594.647 57.4412C597.192 57.4452 599.257 55.3595 599.261 52.7828Z" fill="#4A5568"/>
<path d="M597.32 51.6501C597.321 51.3099 597.445 50.9838 597.665 50.7435C597.885 50.5033 598.183 50.3686 598.494 50.3691C598.805 50.3696 599.104 50.5052 599.323 50.7461C599.542 50.987 599.666 51.3135 599.665 51.6537L598.492 51.6519L597.32 51.6501Z" fill="white"/>
<path d="M591.242 51.6423C591.242 51.4738 591.273 51.3071 591.332 51.1515C591.391 50.996 591.477 50.8547 591.587 50.7357C591.695 50.6168 591.825 50.5225 591.967 50.4582C592.109 50.394 592.262 50.361 592.416 50.3613C592.569 50.3615 592.722 50.3949 592.865 50.4596C593.007 50.5243 593.135 50.619 593.244 50.7383C593.352 50.8576 593.439 50.9991 593.498 51.1549C593.556 51.3106 593.586 51.4775 593.586 51.6459L592.414 51.6441L591.242 51.6423Z" fill="white"/>
<path d="M584.316 51.3555C584.411 50.0731 583.41 48.9786 582.14 48.9766C580.89 48.9747 579.894 50.0338 579.956 51.2982L580.012 52.463L580.155 54.7206C580.205 55.5089 580.73 56.184 581.476 56.4169C581.816 56.5235 582.181 56.5295 582.524 56.4343L582.573 56.4212C583.408 56.1901 584.01 55.4516 584.075 54.5769L584.316 51.3555Z" fill="#4A5568"/>
<path d="M597.48 53.8163C596.015 54.9602 595.194 54.8395 593.73 53.8105" stroke="#F7FAFC" stroke-linecap="round"/>
<path d="M585.365 177.063C585.544 174.559 583.625 172.563 581.157 172.685C578.742 172.805 576.753 174.911 576.746 177.357L576.66 208.803C576.655 210.613 578.1 211.98 579.888 211.856C581.589 211.738 583.003 210.309 583.126 208.583L585.365 177.063Z" fill="#CBD5E0"/>
<path d="M575.113 85.9254C575.353 84.3448 574.249 82.7888 572.689 82.5083C571.16 82.2332 569.793 83.2947 569.656 84.8636L567.731 106.933C567.629 108.091 568.467 109.178 569.599 109.357C570.675 109.527 571.64 108.813 571.804 107.725L575.113 85.9254Z" fill="#CBD5E0"/>
<path d="M572.123 108.504C572.553 106.899 571.558 105.354 569.938 105.114C568.352 104.879 566.793 105.991 566.48 107.58L562.405 128.244C562.173 129.42 562.94 130.496 564.118 130.647C565.239 130.79 566.338 130.043 566.635 128.937L572.123 108.504Z" fill="#CBD5E0"/>
<path d="M614.162 172.785C614.005 170.374 611.921 168.723 609.582 169.153C607.284 169.576 605.64 171.844 605.932 174.187L610.425 210.258C610.64 211.986 612.191 213.107 613.88 212.756C615.485 212.422 616.649 210.874 616.541 209.216L614.162 172.785Z" fill="#CBD5E0"/>
<path d="M587.786 136.759C588.042 133.594 585.625 131.054 582.507 131.209C579.466 131.359 576.966 134.017 576.969 137.095L577.005 171.542C577.008 173.768 578.785 175.447 580.984 175.302C583.076 175.164 584.825 173.417 584.997 171.294L587.786 136.759Z" fill="#E2E8F0" stroke="#E2E8F0"/>
<path d="M613.035 82.0863C611.927 81.1333 610.125 81.2134 609.089 82.2617C608.077 83.2862 608.198 84.8316 609.359 85.6869L622.827 95.6124C623.688 96.247 624.98 96.136 625.715 95.3643C626.415 94.63 626.365 93.5523 625.601 92.8949L613.035 82.0863Z" fill="#CBD5E0"/>
<path d="M604.307 139.044C603.537 136.217 600.62 134.74 597.935 135.818C595.319 136.869 593.967 139.933 594.942 142.603L605.599 171.816C606.302 173.744 608.385 174.663 610.263 173.873C612.05 173.121 613.032 171.08 612.516 169.187L604.307 139.044Z" fill="#E2E8F0" stroke="#E2E8F0"/>
<path d="M622.348 91.4372C621.199 92.4933 621.128 94.3331 622.189 95.4802C623.232 96.6057 624.958 96.621 626.021 95.514L641.664 79.2196C642.449 78.4027 642.447 77.0777 641.66 76.2648C640.913 75.4924 639.719 75.4568 638.929 76.1835L622.348 91.4372Z" fill="#CBD5E0"/>
<path d="M579.372 133.065C578.798 135.474 580.449 137.844 582.882 138.105L583.553 138.177C585.565 138.392 587.326 136.81 587.353 134.761L587.343 133.746C587.323 132.029 586.189 130.53 584.558 130.063C584.161 129.95 583.749 129.902 583.338 129.922L583.117 129.932C581.32 130.018 579.794 131.294 579.372 133.065Z" fill="#A0AEC0"/>
<path d="M595.897 137.626C597.876 139.084 600.67 138.445 601.837 136.267L602.159 135.667C603.124 133.866 602.353 131.614 600.494 130.805L599.564 130.427C597.989 129.79 596.188 130.278 595.139 131.627C594.884 131.954 594.683 132.321 594.543 132.714L594.469 132.925C593.861 134.639 594.443 136.554 595.897 137.626Z" fill="#A0AEC0"/>
<path d="M626.138 93.2156C625.861 92.1904 624.799 91.5141 623.766 91.7051L623.569 91.7416C622.585 91.9234 621.971 92.8256 622.159 93.8126C622.386 95.0079 623.667 95.7855 624.809 95.4214L624.999 95.3609C625.903 95.0723 626.392 94.1523 626.138 93.2156Z" fill="#4A5568"/>
<path d="M644.068 75.618C643.79 74.5928 642.728 73.9165 641.695 74.1075L641.498 74.1441C640.515 74.3259 639.901 75.228 640.088 76.2151C640.315 77.4104 641.596 78.188 642.738 77.8238L642.927 77.7634C643.833 77.4747 644.322 76.5548 644.068 75.618Z" fill="#4A5568"/>
<path d="M561.685 131.872L561.67 131.83C561.302 130.817 561.815 129.694 562.815 129.322C563.816 128.949 564.925 129.469 565.293 130.482L565.308 130.524C565.675 131.537 565.163 132.66 564.162 133.032C563.162 133.405 562.053 132.885 561.685 131.872Z" fill="#4A5568"/>
<path d="M567.626 108.72L567.611 108.679C567.243 107.666 567.756 106.542 568.757 106.17C569.757 105.798 570.866 106.317 571.234 107.33L571.249 107.372C571.617 108.385 571.104 109.508 570.104 109.88C569.103 110.253 567.994 109.733 567.626 108.72Z" fill="#4A5568"/>
<path d="M579.362 215.306L579.32 215.293C578.304 214.967 577.741 213.869 578.063 212.84C578.384 211.811 579.469 211.24 580.485 211.566L580.527 211.58C581.543 211.905 582.106 213.003 581.785 214.032C581.463 215.061 580.379 215.632 579.362 215.306Z" fill="#2D3748"/>
<path d="M568.179 135.188C567.959 134.729 567.384 134.554 566.948 134.813C566.531 135.06 566.412 135.602 566.688 136.005L567.848 137.701C568.062 138.012 568.484 138.105 568.805 137.912L568.821 137.902C569.113 137.726 569.222 137.36 569.074 137.052L568.179 135.188Z" fill="#CBD5E0"/>
<path d="M567.324 139.675C567.189 139.176 566.655 138.871 566.161 139.01C565.68 139.145 565.427 139.647 565.603 140.122L567.246 144.573C567.376 144.927 567.769 145.127 568.127 145.021C568.467 144.92 568.657 144.576 568.563 144.231L567.324 139.675Z" fill="#CBD5E0"/>
<path d="M565.399 140.394C565.331 139.876 564.838 139.493 564.324 139.558C563.824 139.622 563.504 140.085 563.616 140.584L564.638 145.148C564.722 145.52 565.088 145.778 565.462 145.725C565.815 145.674 566.052 145.359 566.005 145.002L565.399 140.394Z" fill="#CBD5E0"/>
<path d="M563.838 140.569C563.77 140.052 563.276 139.669 562.762 139.734C562.262 139.798 561.942 140.261 562.053 140.76L563.076 145.323C563.159 145.696 563.527 145.953 563.899 145.9C564.254 145.85 564.491 145.535 564.443 145.177L563.838 140.569Z" fill="#CBD5E0"/>
<path d="M562.283 140.46C562.215 139.942 561.722 139.559 561.208 139.625C560.708 139.688 560.387 140.152 560.499 140.65L561.522 145.214C561.605 145.587 561.972 145.844 562.344 145.791C562.699 145.74 562.936 145.426 562.889 145.068L562.283 140.46Z" fill="#CBD5E0"/>
<path d="M566.753 136.727C567.075 138.06 566.19 139.295 564.847 139.384L563.079 139.5C561.586 139.598 560.228 138.403 560.124 136.899L560.052 135.858L559.964 134.078C559.902 132.807 560.67 131.703 561.862 131.346C562.245 131.232 562.651 131.201 563.059 131.254L563.122 131.262C564.537 131.448 565.733 132.525 566.071 133.919L566.753 136.727Z" fill="#CBD5E0"/>
<path d="M651.77 76.502C651.287 76.5516 650.888 76.1846 650.899 75.7011C650.909 75.2304 651.305 74.837 651.774 74.8302L656.216 74.7662C656.567 74.7612 656.838 75.0403 656.826 75.3918C656.814 75.7261 656.546 76.0103 656.213 76.0446L651.77 76.502Z" fill="#CBD5E0"/>
<path d="M652.227 75.1309C651.752 75.2355 651.306 74.9201 651.255 74.4426C651.205 73.9777 651.55 73.5444 652.018 73.4835L656.455 72.9063C656.804 72.8608 657.112 73.1043 657.143 73.4521C657.174 73.7828 656.944 74.0936 656.615 74.1659L652.227 75.1309Z" fill="#CBD5E0"/>
<path d="M652.231 73.0099C651.755 73.1145 651.31 72.7991 651.259 72.3216C651.208 71.8567 651.553 71.4234 652.022 71.3625L656.458 70.7852C656.808 70.7397 657.116 70.9833 657.147 71.331C657.178 71.6617 656.947 71.9725 656.619 72.0448L652.231 73.0099Z" fill="#CBD5E0"/>
<path d="M652.702 71.0563C652.228 71.169 651.778 70.8568 651.728 70.3795C651.677 69.918 652.022 69.4886 652.487 69.4312L655.666 69.0391C656.017 68.9958 656.325 69.2406 656.359 69.5899C656.39 69.921 656.163 70.2338 655.835 70.3118L652.702 71.0563Z" fill="#CBD5E0"/>
<path d="M646.205 70.3152C645.806 70.6792 645.219 70.6232 644.938 70.194C644.666 69.7799 644.788 69.1856 645.209 68.8827L647.841 66.9859C648.16 66.7562 648.576 66.8257 648.779 67.1425C648.971 67.4423 648.905 67.8634 648.627 68.1156L646.205 70.3152Z" fill="#CBD5E0"/>
<path d="M647.862 76.8639C649.153 76.824 650.2 75.6434 650.113 74.3298L649.983 72.3841C649.881 70.8502 648.523 69.8191 647.03 70.1431L646.177 70.3283L644.621 70.7C643.351 71.0035 642.363 72.1081 642.182 73.4274C642.127 73.8275 642.149 74.2294 642.248 74.6096L642.264 74.6697C642.626 76.0645 643.853 76.9882 645.284 76.9439L647.862 76.8639Z" fill="#CBD5E0"/>
<path d="M586.725 84.9031L583.719 84.8984L585.493 87.1809L587.45 85.885L586.725 84.9031Z" fill="#002680"/>
<path d="M587.85 86.3896L585.895 87.7385L586.944 89.0656L588.5 87.2389L587.85 86.3896Z" fill="#002680"/>
<path d="M589.374 88.4058L588.924 87.7954L587.344 89.622L588.769 91.4268L589.847 90.6862L589.374 88.4058Z" fill="#002680"/>
<path d="M596.37 82.7203L594.262 85.9246L594.063 84.2808L592.337 82.7141L590.383 83.3208L589.88 83.9562L590.58 84.8851L590.832 84.3819L591.208 84.409L591.457 84.7804L590.805 85.9193L588.304 82.7079L581.992 82.6982L583.167 84.211L587.1 84.217L589.9 87.9325L590.547 91.035L589.192 91.9606L590.342 93.4204L590.946 91.7514L591.898 91.7527C591.898 91.7527 592.172 92.734 592.272 93.1317C592.297 93.2378 592.321 93.2909 592.321 93.2909L592.724 91.7541L593.676 91.7555L594.3 93.4265L595.455 91.9703L594.104 91.0139L594.76 87.9135L597.571 84.2066L601.478 84.2126L602.658 82.7035L596.37 82.6938V82.7203ZM592.11 83.7211L591.61 83.4022L592.186 83.2971L592.11 83.7211Z" fill="#002680"/>
<path d="M592.722 94.3771L591.895 94.3758L591.422 92.2544L590.969 94.2683L592.319 95.9669L593.649 94.2725L593.2 92.2571L592.722 94.3771Z" fill="#002680"/>
<path d="M597.191 85.9026L599.144 87.2045L600.926 84.9275L597.92 84.9229L597.191 85.9026Z" fill="#002680"/>
<path d="M596.141 87.2506L597.691 89.0821L598.746 87.7583L596.793 86.4033L596.141 87.2506Z" fill="#002680"/>
<path d="M595.264 88.4152L594.785 90.6942L595.862 91.4381L597.291 89.6377L595.716 87.8062L595.264 88.4152Z" fill="#002680"/>
<path d="M592.139 82.3154L592.341 81.0963L591.539 81.7313L590.714 80.9082L590.436 82.0477L589.484 81.9932L590.184 82.9221L592.139 82.3154Z" fill="#002680"/>
<path d="M597.766 136.556C594.479 136.551 591.82 132.896 591.827 128.393C591.834 123.89 594.504 120.243 597.791 120.248C601.078 120.253 603.737 123.908 603.73 128.411C603.723 132.914 601.053 136.561 597.766 136.556Z" fill="#4A5568"/>
<path d="M580.789 174.581C578.856 174.578 577.291 172.988 577.294 171.03C577.297 169.073 578.867 167.488 580.8 167.491C582.733 167.494 584.298 169.083 584.295 171.041C584.293 172.999 582.723 174.584 580.789 174.581Z" fill="#2D3748"/>
<path d="M609.117 173.835C607.184 173.832 605.619 172.243 605.622 170.285C605.625 168.327 607.195 166.742 609.128 166.745C611.062 166.748 612.627 168.338 612.624 170.296C612.621 172.254 611.051 173.838 609.117 173.835Z" fill="#2D3748"/>
<path d="M584.231 136.537C580.944 136.532 578.285 132.877 578.292 128.374C578.299 123.871 580.969 120.224 584.256 120.229C587.543 120.234 590.202 123.889 590.195 128.392C590.188 132.895 587.518 136.542 584.231 136.537Z" fill="#4A5568"/>
<path d="M586.726 132.584C588.621 135.92 593.373 135.927 595.278 132.597L597.951 127.925C599.856 124.595 597.487 120.425 593.686 120.419L588.355 120.411C584.554 120.405 582.172 124.568 584.068 127.904L586.726 132.584Z" fill="white"/>
<path d="M615.835 212.373C615.645 211.328 614.642 210.563 613.597 210.664L613.398 210.683C612.403 210.78 611.715 211.626 611.819 212.626C611.945 213.836 613.156 214.721 614.324 214.457L614.518 214.413C615.444 214.203 616.009 213.329 615.835 212.373Z" fill="#2D3748"/>
</g>
</g>
</g>
<defs>
<clipPath id="clip0_6672_17738">
<rect width="1264" height="250" fill="white"/>
</clipPath>
<clipPath id="clip1_6672_17738">
<rect width="1264" height="250" fill="white"/>
</clipPath>
</defs>
</svg>
