<svg width="107" height="54" viewBox="0 0 107 54" fill="none" xmlns="http://www.w3.org/2000/svg">
<path d="M50.5504 53.5821C47.0047 53.4893 43.0945 53.1793 39.6333 52.7171C24.8969 50.7489 12.5487 45.7319 5.67423 38.9206C2.75897 36.0324 0.911638 32.8586 0.288816 29.669C0.0857983 28.6301 0.0380859 28.1208 0.0380859 27.0004C0.0380859 25.8798 0.0861185 25.3708 0.288816 24.3319C0.698374 22.2349 1.67087 20.0731 3.10577 18.0693C6.35149 13.5381 12.0462 9.50375 19.5182 6.4432C31.9721 1.34101 48.2788 -0.679968 64.1577 0.910553C82.7985 2.77734 98.1328 9.53078 104.218 18.5528C107 22.6775 107.681 27.1575 106.193 31.5358C105.333 34.0642 103.663 36.5909 101.313 38.9203C94.7993 45.3739 83.3362 50.2405 69.5774 52.3935C63.4241 53.3567 57.0803 53.7525 50.5501 53.5818L50.5504 53.5821ZM58.6798 50.1766C66.1408 49.7182 72.4414 48.6294 78.5813 46.7375C83.4527 45.2363 87.9934 43.1584 91.4796 40.8344C93.2367 39.6636 94.4554 38.6752 95.8336 37.3037C97.4706 35.675 98.5266 34.246 99.3867 32.4968C100.349 30.5398 100.721 29.0058 100.721 27.0001C100.721 24.9833 100.324 23.3676 99.3499 21.4172C98.5074 19.7307 97.4325 18.2877 95.8339 16.6969C93.4858 14.3608 90.6964 12.434 87.01 10.6018C80.109 7.17218 71.4747 4.92834 61.856 4.06489C56.5282 3.58675 50.4755 3.58643 45.1308 4.06425C31.6077 5.27328 19.9991 9.25864 12.8164 15.1582C11.9053 15.9065 10.2815 17.5342 9.60073 18.3818C7.16676 21.4109 6.0175 24.6797 6.27944 27.8289C6.56443 31.2605 8.12101 34.2864 11.1531 37.3037C13.4497 39.5895 16.1806 41.4893 19.7318 43.2722C27.8188 47.332 37.7558 49.6584 49.4431 50.2288C50.7631 50.2933 57.3935 50.2558 58.6798 50.177V50.1766ZM20.7712 40.4561C20.7071 40.4294 20.6021 40.3499 20.5381 40.2794C20.4225 40.1516 20.4215 40.0587 20.4068 27.7637L20.3917 15.3766L20.2374 15.2167C20.0914 15.0653 20.051 15.0558 19.4945 15.0405L18.9062 15.024V13.4618L23.1411 13.4472L27.3757 13.4322L27.5553 13.5823L27.7353 13.7326V18.1984C27.7353 23.105 27.7218 22.9213 28.0773 22.9213C28.2979 22.9213 28.3741 22.83 29.6028 21.099C32.8571 16.5128 34.6472 14.0181 34.8089 13.8452C35.2066 13.4185 35.0263 13.4357 39.1456 13.4341L42.8342 13.4328L42.9747 13.5727C43.1476 13.7444 43.2127 13.9784 43.1342 14.1459C43.0842 14.2521 41.4883 16.605 35.9152 24.7881C35.3068 25.6814 35.1368 25.9726 35.1381 26.1189C35.1397 26.2705 35.5354 26.8602 37.2252 29.2281C44.6927 39.6909 44.7167 39.7252 44.7398 39.9367C44.7571 40.0956 44.7282 40.1837 44.6165 40.3127L44.4708 40.4812L40.6186 40.4968C36.8202 40.5121 36.7622 40.5108 36.4826 40.3913C36.3267 40.3245 36.1339 40.2005 36.0545 40.1153C35.9751 40.0301 34.219 37.6038 32.1523 34.7241C30.0857 31.8445 28.3527 29.4538 28.3014 29.4118C28.158 29.2935 27.8947 29.3498 27.8102 29.517C27.7529 29.6302 27.7366 30.809 27.7362 34.9089L27.7353 40.1563L27.5944 40.3185L27.4538 40.4809L24.1709 40.4927C22.3649 40.499 20.8352 40.4825 20.7712 40.4561ZM50.0243 40.4301C49.9276 40.3878 49.8162 40.2829 49.7768 40.1973C49.7211 40.0759 49.7054 37.3234 49.7054 27.7164V15.3915L49.535 15.2224C49.3704 15.059 49.3458 15.0533 48.8065 15.0533H48.2484V13.4332H56.8715L57.0617 13.602L57.2523 13.7708V40.1605L57.0905 40.321L56.9292 40.4812L53.565 40.4943C50.8703 40.5048 50.1655 40.4917 50.0243 40.4304V40.4301ZM62.5554 40.4402C62.3741 40.3369 62.297 40.2082 62.2947 40.0066C62.2938 39.9049 63.1209 37.366 64.1331 34.3655L67.7102 23.7603C68.4541 21.5529 69.2006 19.3464 69.9495 17.1407C70.2255 16.3319 70.4516 15.5994 70.4516 15.5126C70.4516 15.4258 70.4016 15.2936 70.3405 15.2186C70.2409 15.0962 70.1698 15.0787 69.6559 15.0533L69.082 15.024L69.066 14.2286L69.05 13.4328L74.2234 13.4335C77.6197 13.4335 79.4718 13.4545 79.6149 13.4939C79.7347 13.5269 79.8615 13.6077 79.897 13.6732C79.9701 13.8083 80.5503 15.5114 83.2846 23.6162C87.7331 36.8011 88.7504 39.8445 88.7504 39.9688C88.7504 40.1722 88.6351 40.3757 88.4789 40.4459C88.3802 40.4905 87.3459 40.5102 85.091 40.5102C82.1155 40.5102 81.828 40.5016 81.6448 40.4091C81.535 40.3534 81.3969 40.2425 81.3377 40.1624C81.2788 40.0826 80.827 38.7677 80.3332 37.2407C75.6292 22.6851 75.7592 23.0822 75.6535 22.9652C75.5367 22.8361 75.4476 22.837 75.3269 22.9696C75.2308 23.0752 75.0496 23.6283 72.492 31.6293C71.9005 33.4811 71.3075 35.3325 70.7132 37.1835C70.4772 37.9154 70.1753 38.8589 70.0414 39.2808C69.7788 40.1099 69.6623 40.3077 69.3657 40.4304C69.1096 40.5369 62.7405 40.5458 62.5554 40.4402Z" fill="#C41230"/>
</svg>
