<svg width="1440" height="1191" viewBox="0 0 1440 1191" fill="none" xmlns="http://www.w3.org/2000/svg">
<path d="M-321 600.422C-321 485.587 -297.754 382.235 -251.262 290.368C-202.832 198.5 -135.031 126.318 -47.8582 73.8222C39.3148 21.3264 -164.089 73.8222 -47.8582 73.8222L-47.8582 274.683C-135.031 281.245 -42.0465 285.446 -47.8582 361.729C-104.036 414.225 -42.0465 506.913 -42.0465 600.422C-42.0465 697.211 -14.9261 772.674 39.3149 826.81C95.4931 880.946 167.169 908.015 254.342 908.015C322.143 908.015 377.352 890.789 419.97 856.339C462.588 823.529 495.52 781.696 518.766 730.841C542.012 681.626 567.196 612.725 594.316 524.138C629.186 412.585 664.055 321.537 698.924 250.996C735.73 182.095 791.908 123.037 867.458 73.8223C943.008 24.6074 1043.74 -3.0653e-05 1169.66 -2.5149e-05C1285.89 -2.00684e-05 1387.59 24.6074 1474.76 73.8223C1561.94 123.037 1628.77 191.938 1675.26 280.525C1721.75 369.112 1745 471.643 1745 588.118C1745 753.808 1695.6 889.149 1596.81 994.141C1499.95 1100.77 1704.97 1108.16 1534.5 1119.64L1534.5 809.585C1608.11 804.663 1671.07 775.134 1723.37 720.998C1775.68 666.862 1463.14 647.176 1463.14 558.589C1463.14 478.205 1438.93 412.585 1390.5 361.729C1342.07 310.874 1272.33 285.446 1181.28 285.446C1119.29 285.446 1067.96 301.031 1027.28 332.2C988.532 365.01 957.537 406.023 934.291 455.238C911.045 504.453 885.862 571.713 858.741 657.019C821.935 770.213 785.128 862.081 748.322 932.622C711.516 1004.8 654.369 1065.5 576.882 1114.72C501.332 1165.57 399.63 1191 271.776 1191C169.106 1191 72.2469 1167.21 -18.8005 1119.64C-109.848 1073.7 -183.461 1005.62 -239.639 915.397C-293.88 826.81 -321 721.818 -321 600.422Z" fill="#002680" fill-opacity="0.05"/>
</svg>
