<svg width="375" height="307" viewBox="0 0 375 307" fill="none" xmlns="http://www.w3.org/2000/svg">
<path d="M-78 154.769C-78 125.168 -72.014 98.5275 -60.0422 74.8471C-47.5715 51.1666 -30.1126 32.5606 -7.66528 19.0289C14.782 5.49723 -37.595 19.0289 -7.66528 19.0289L-7.66529 70.804C-30.1126 72.4954 -6.1688 73.5785 -7.66529 93.2417C-22.1313 106.773 -6.16877 130.665 -6.16877 154.769C-6.16877 179.718 0.814811 199.169 14.782 213.124C29.248 227.079 47.7046 234.056 70.1519 234.056C87.6109 234.056 101.827 229.616 112.802 220.736C123.776 212.278 132.256 201.495 138.242 188.386C144.228 175.7 150.713 157.94 157.696 135.105C166.675 106.351 175.654 82.8815 184.633 64.6983C194.111 46.938 208.577 31.7149 228.031 19.0289C247.485 6.34297 273.424 -7.89322e-06 305.848 -6.47593e-06C335.778 -5.16766e-06 361.966 6.34297 384.413 19.0289C406.861 31.7149 424.07 49.4752 436.042 72.3099C448.014 95.1446 454 121.574 454 151.597C454 194.307 441.28 229.193 415.84 256.256C390.898 283.742 443.693 285.645 399.796 288.605L399.796 208.684C418.751 207.415 434.963 199.804 448.431 185.849C461.9 171.895 381.421 166.82 381.421 143.986C381.421 123.265 375.185 106.351 362.714 93.2417C350.244 80.1329 332.286 73.5785 308.841 73.5785C292.879 73.5785 279.66 77.5957 269.184 85.6302C259.208 94.0875 251.226 104.659 245.24 117.345C239.255 130.031 232.77 147.368 225.786 169.357C216.308 198.535 206.831 222.216 197.353 240.399C187.875 259.005 173.16 274.651 153.207 287.337C133.752 300.446 107.564 307 74.6413 307C48.2034 307 23.262 300.868 -0.182874 288.605C-23.6278 276.765 -42.5833 259.216 -57.0493 235.959C-71.0164 213.124 -78 186.061 -78 154.769Z" fill="#002680" fill-opacity="0.05"/>
</svg>
