<svg width="138" height="92" viewBox="0 0 138 92" fill="none" xmlns="http://www.w3.org/2000/svg">
<path d="M68.7131 58.4542L74.7498 24.5034C80.5039 24.5034 82.3189 25.1343 82.5809 27.7097C82.5809 27.7097 86.4409 26.2705 88.3877 23.3474C80.7906 19.8271 73.1573 19.6683 73.1573 19.6683L68.7031 25.0935L68.7131 25.0928L64.2589 19.6675C64.2589 19.6675 56.6254 19.8264 49.0293 23.3468C50.9744 26.2698 54.836 27.7091 54.836 27.7091C55.0995 25.1335 56.9123 24.5025 62.6277 24.4984L68.7131 58.4542Z" fill="#161822"/>
<path d="M68.7101 18.101C74.8513 18.054 81.8806 19.051 89.0765 22.1873C90.0382 20.4562 90.2855 19.6912 90.2855 19.6912C82.4193 16.5791 75.0528 15.514 68.7093 15.4873C62.3661 15.514 54.9999 16.5792 47.1348 19.6912C47.1348 19.6912 47.4856 20.6336 48.3429 22.1873C55.5374 19.051 62.5679 18.054 68.7093 18.101H68.7101Z" fill="#161822"/>
<path d="M85.512 72.9014V76.63H86.7077V74.1475H91.0596V76.63H92.2545V72.9079L85.512 72.9014ZM86.5745 71.6953H91.1723C91.8109 71.5683 92.2858 71.0047 92.4198 70.4595H85.3272C85.4597 71.0049 85.9416 71.5683 86.5745 71.6953ZM81.8906 76.6324C82.4935 76.3768 82.8178 75.9347 82.942 75.4174H77.579L77.5824 70.4626L76.3802 70.466V76.6324H81.8906ZM67.4401 71.6786H71.6864C72.3265 71.4926 72.8641 71.0049 72.9951 70.4643H66.2498V74.1084H71.7706V75.3871L67.4401 75.3905C66.7615 75.5798 66.186 76.0355 65.899 76.6373L66.2498 76.6309H72.9568V72.8968H67.4401V71.6786ZM56.9575 71.6903H61.5538C62.1933 71.5629 62.6686 70.9998 62.8018 70.4541H55.7096C55.842 70.9998 56.3242 71.5629 56.9575 71.6903ZM56.9575 74.1274H61.5538C62.1933 74.0013 62.6686 73.4377 62.8018 72.8917H55.7096C55.842 73.4379 56.3242 74.0013 56.9575 74.1274ZM56.9575 76.6317H61.5538C62.1933 76.5046 62.6686 75.9412 62.8018 75.3958H55.7096C55.842 75.9414 56.3242 76.5046 56.9575 76.6317ZM45 70.4691C45.1382 71.008 45.6048 71.5588 46.2449 71.6968H48.1797L48.2784 71.7358V76.6179H49.4865V71.7358L49.5963 71.6968H51.5327C52.18 71.53 52.6366 71.008 52.7724 70.4691V70.4572H45V70.4691Z" fill="#161822"/>
</svg>
