<?xml version="1.0" encoding="utf-8"?>
<!-- Generator: Adobe Illustrator 25.2.1, SVG Export Plug-In . SVG Version: 6.00 Build 0)  -->
<svg version="1.1" id="Слой_1" xmlns="http://www.w3.org/2000/svg" xmlns:xlink="http://www.w3.org/1999/xlink" x="0px" y="0px"
	 viewBox="0 0 600 600" style="enable-background:new 0 0 600 600;" xml:space="preserve">
<style type="text/css">
	.st0{filter:url(#Adobe_OpacityMaskFilter);}
	.st1{filter:url(#Adobe_OpacityMaskFilter_1_);}
	.st2{mask:url(#SVGID_1_);fill:url(#SVGID_2_);}
	.st3{opacity:0.72;fill:url(#SVGID_3_);}
	.st4{fill:#3A89C7;}
	.st5{fill:#4AAFFF;}
	.st6{opacity:0.72;}
	.st7{filter:url(#Adobe_OpacityMaskFilter_2_);}
	.st8{filter:url(#Adobe_OpacityMaskFilter_3_);}
	.st9{mask:url(#SVGID_4_);fill:url(#SVGID_5_);}
	.st10{fill:url(#SVGID_6_);}
	.st11{fill:url(#SVGID_7_);}
	.st12{fill:#FFFFFF;}
	.st13{fill:#002680;}
	.st14{fill:#0E459E;}
	.st15{fill:#3788CC;}
	.st16{fill:#1A598C;}
	.st17{fill:#2273B5;}
	.st18{fill:#EEA886;}
	.st19{fill:url(#SVGID_8_);}
	.st20{fill:url(#SVGID_9_);}
	.st21{fill:#CC844E;}
	.st22{fill:#002060;}
	.st23{fill:url(#SVGID_10_);}
	.st24{filter:url(#Adobe_OpacityMaskFilter_4_);}
	.st25{filter:url(#Adobe_OpacityMaskFilter_5_);}
	.st26{mask:url(#SVGID_11_);fill:url(#SVGID_12_);}
	.st27{opacity:0.72;fill:url(#SVGID_13_);}
	.st28{fill:url(#SVGID_14_);}
	.st29{fill:#292C47;}
	.st30{fill:#E2D2CA;}
	.st31{fill:url(#SVGID_15_);}
	.st32{fill:url(#SVGID_16_);}
</style>
<g>
	<defs>
		<filter id="Adobe_OpacityMaskFilter" filterUnits="userSpaceOnUse" x="73.65" y="39.41" width="283.73" height="283.73">
			<feFlood  style="flood-color:white;flood-opacity:1" result="back"/>
			<feBlend  in="SourceGraphic" in2="back" mode="normal"/>
		</filter>
	</defs>
	<mask maskUnits="userSpaceOnUse" x="73.65" y="39.41" width="283.73" height="283.73" id="SVGID_1_">
		<g class="st0">
			<defs>
				<filter id="Adobe_OpacityMaskFilter_1_" filterUnits="userSpaceOnUse" x="73.65" y="39.41" width="283.73" height="283.73">
					<feFlood  style="flood-color:white;flood-opacity:1" result="back"/>
					<feBlend  in="SourceGraphic" in2="back" mode="normal"/>
				</filter>
			</defs>
			<mask maskUnits="userSpaceOnUse" x="73.65" y="39.41" width="283.73" height="283.73" id="SVGID_1_">
			</mask>
			<linearGradient id="SVGID_2_" gradientUnits="userSpaceOnUse" x1="215.5162" y1="327.8327" x2="215.5162" y2="-23.5121">
				<stop  offset="0" style="stop-color:#000000"/>
				<stop  offset="0.2021" style="stop-color:#FFFFFF"/>
				<stop  offset="1" style="stop-color:#FFFFFF"/>
			</linearGradient>
			<path class="st2" d="M347.85,323.14H83.18c-5.26,0-9.53-4.27-9.53-9.53V48.94c0-5.26,4.27-9.53,9.53-9.53h264.67
				c5.26,0,9.53,4.27,9.53,9.53v264.67C357.38,318.87,353.12,323.14,347.85,323.14z"/>
		</g>
	</mask>
	<linearGradient id="SVGID_3_" gradientUnits="userSpaceOnUse" x1="215.5162" y1="327.8327" x2="215.5162" y2="-23.5121">
		<stop  offset="0" style="stop-color:#40CDE6"/>
		<stop  offset="0.2021" style="stop-color:#40CDE6"/>
		<stop  offset="1" style="stop-color:#5577FF"/>
	</linearGradient>
	<path class="st3" d="M347.85,323.14H83.18c-5.26,0-9.53-4.27-9.53-9.53V48.94c0-5.26,4.27-9.53,9.53-9.53h264.67
		c5.26,0,9.53,4.27,9.53,9.53v264.67C357.38,318.87,353.12,323.14,347.85,323.14z"/>
	<path class="st4" d="M574.19,546.1c0,12.95-40.08,23.44-89.51,23.44c-49.44,0-89.51-10.49-89.51-23.44
		c0-12.95,40.08-23.44,89.51-23.44C534.12,522.65,574.19,533.15,574.19,546.1z"/>
	<path class="st5" d="M568.79,540.32c0,12.16-37.65,22.03-84.1,22.03s-84.1-9.86-84.1-22.03c0-12.16,37.65-22.02,84.1-22.02
		S568.79,528.16,568.79,540.32z"/>
	<g class="st6">
		<defs>
			<filter id="Adobe_OpacityMaskFilter_2_" filterUnits="userSpaceOnUse" x="365.88" y="103.21" width="112.06" height="190.18">
				<feFlood  style="flood-color:white;flood-opacity:1" result="back"/>
				<feBlend  in="SourceGraphic" in2="back" mode="normal"/>
			</filter>
		</defs>
		<mask maskUnits="userSpaceOnUse" x="365.88" y="103.21" width="112.06" height="190.18" id="SVGID_4_">
			<g class="st7">
				<defs>
					<filter id="Adobe_OpacityMaskFilter_3_" filterUnits="userSpaceOnUse" x="365.88" y="103.21" width="112.06" height="190.18">
						<feFlood  style="flood-color:white;flood-opacity:1" result="back"/>
						<feBlend  in="SourceGraphic" in2="back" mode="normal"/>
					</filter>
				</defs>
				<mask maskUnits="userSpaceOnUse" x="365.88" y="103.21" width="112.06" height="190.18" id="SVGID_4_">
				</mask>
				<linearGradient id="SVGID_5_" gradientUnits="userSpaceOnUse" x1="421.9128" y1="288.4733" x2="421.9128" y2="134.102">
					<stop  offset="0" style="stop-color:#000000"/>
					<stop  offset="0.2021" style="stop-color:#FFFFFF"/>
					<stop  offset="1" style="stop-color:#FFFFFF"/>
				</linearGradient>
				<path class="st9" d="M471.51,293.39h-99.2c-3.55,0-6.43-2.88-6.43-6.43V109.64c0-3.55,2.88-6.43,6.43-6.43h99.2
					c3.55,0,6.43,2.88,6.43,6.43v177.32C477.94,290.51,475.06,293.39,471.51,293.39z"/>
			</g>
		</mask>
		<linearGradient id="SVGID_6_" gradientUnits="userSpaceOnUse" x1="428.5184" y1="360.7951" x2="418.2214" y2="107.4891">
			<stop  offset="0" style="stop-color:#40CDE6"/>
			<stop  offset="0.2021" style="stop-color:#40CDE6"/>
			<stop  offset="1" style="stop-color:#0057FF"/>
		</linearGradient>
		<path class="st10" d="M471.51,293.39h-99.2c-3.55,0-6.43-2.88-6.43-6.43V109.64c0-3.55,2.88-6.43,6.43-6.43h99.2
			c3.55,0,6.43,2.88,6.43,6.43v177.32C477.94,290.51,475.06,293.39,471.51,293.39z"/>
	</g>
	<linearGradient id="SVGID_7_" gradientUnits="userSpaceOnUse" x1="400.8401" y1="161.871" x2="404.9414" y2="-59.5973">
		<stop  offset="0" style="stop-color:#40CDE6"/>
		<stop  offset="0.2021" style="stop-color:#40CDE6"/>
		<stop  offset="1" style="stop-color:#0057FF"/>
	</linearGradient>
	<path class="st11" d="M430.57,96.62h-55.82c-2.85,0-5.17-2.31-5.17-5.17V35.63c0-2.85,2.31-5.17,5.17-5.17h55.82
		c2.85,0,5.17,2.31,5.17,5.17v55.82C435.74,94.3,433.43,96.62,430.57,96.62z"/>
	<g>
		<g>
			<rect x="376.58" y="48.44" class="st12" width="0.27" height="33.99"/>
		</g>
		<g>
			<rect x="389.47" y="48.44" class="st12" width="0.27" height="33.99"/>
		</g>
		<g>
			<rect x="402.35" y="48.44" class="st12" width="0.26" height="33.99"/>
		</g>
		<g>
			<rect x="415.24" y="48.44" class="st12" width="0.26" height="33.99"/>
		</g>
		<g>
			<rect x="428.12" y="48.44" class="st12" width="0.26" height="33.99"/>
		</g>
	</g>
	<path class="st12" d="M376.71,68.64c0,0,4.78,2.89,9.85-2.34c5.07-5.24,10.55-9.37,15.72-4.96c5.17,4.41,8.36,5.51,13.53,0.55
		c5.17-4.96,4.78-11.02,12.44-11.02v31.56h-51.54V68.64z"/>
	<rect x="376.71" y="45.61" class="st12" width="5.11" height="1.24"/>
	<rect x="389.6" y="45.61" class="st12" width="3.2" height="1.24"/>
	<rect x="402.48" y="45.61" class="st12" width="3.95" height="1.24"/>
	<rect x="415.37" y="45.61" class="st12" width="6.08" height="1.24"/>
	<rect x="428.25" y="45.61" class="st12" width="2.12" height="1.24"/>
	<rect x="376.85" y="87.15" class="st12" width="25.5" height="2.98"/>
	<g>
		<g>
			<g>
				<g>
					<path class="st12" d="M196.89,90.05c-7.58-21.19-27.82-34.2-49.17-33.56c-5.17,0.16-10.4,1.11-15.53,2.95
						c-15.54,5.56-26.69,17.94-31.27,32.57c-3.17,10.14-3.19,21.35,0.66,32.13c0.38,1.07,0.8,2.13,1.25,3.16
						c2.03,4.67,4.69,8.89,7.85,12.6c13.24,15.57,35.22,22.15,55.6,14.86C192.6,145.33,206.31,116.37,196.89,90.05z M162.02,142.82
						c-15.28,5.47-31.76,0.53-41.69-11.14c-2.37-2.78-4.36-5.95-5.88-9.45c-0.34-0.77-0.65-1.56-0.94-2.37
						c-2.89-8.08-2.87-16.49-0.49-24.09c3.43-10.97,11.79-20.25,23.44-24.42c3.85-1.38,7.77-2.09,11.64-2.21
						c16-0.48,31.18,9.27,36.86,25.16C192.02,114.05,181.75,135.76,162.02,142.82z"/>
				</g>
			</g>
			<g>
				<g>
					<path class="st13" d="M113.02,95.78l-12.09-3.78c4.58-14.63,15.73-27.01,31.27-32.57c5.13-1.83,10.36-2.79,15.53-2.95
						l0.38,12.66c-3.87,0.12-7.8,0.83-11.64,2.21C124.81,75.53,116.45,84.82,113.02,95.78z"/>
				</g>
			</g>
			<g>
				<g>
					<path class="st14" d="M114.45,122.23l-11.62,5.06c-0.45-1.03-0.86-2.08-1.25-3.16c-3.85-10.77-3.83-21.99-0.66-32.13
						l12.09,3.78c-2.38,7.6-2.4,16.01,0.49,24.09C113.8,120.67,114.11,121.46,114.45,122.23z"/>
				</g>
			</g>
			<g>
				<g>
					<path class="st15" d="M110.68,139.89c-3.16-3.71-5.82-7.93-7.85-12.6l11.62-5.06c1.52,3.5,3.51,6.67,5.88,9.45L110.68,139.89z"
						/>
				</g>
			</g>
		</g>
		<g>
			<g>
				<g>
					<path class="st12" d="M240.77,120.96c-8.41-3.98-18.14-1.86-24.2,4.57c-1.47,1.56-2.72,3.37-3.68,5.41
						c-2.92,6.17-2.56,13.05,0.38,18.67c2.04,3.89,5.31,7.18,9.59,9.2c0.43,0.2,0.86,0.39,1.29,0.56c1.96,0.77,3.97,1.23,5.98,1.39
						c8.43,0.68,16.78-3.82,20.61-11.92C255.69,138.39,251.22,125.91,240.77,120.96z M246.01,146.6c-2.87,6.07-9.13,9.44-15.45,8.93
						c-1.51-0.12-3.02-0.46-4.48-1.04c-0.32-0.13-0.65-0.27-0.97-0.42c-3.21-1.52-5.66-3.98-7.19-6.9c-2.2-4.21-2.48-9.37-0.29-14
						c0.72-1.53,1.66-2.89,2.76-4.05c4.54-4.82,11.83-6.41,18.14-3.42C246.37,129.41,249.71,138.77,246.01,146.6z"/>
				</g>
			</g>
			<g>
				<g>
					<path class="st16" d="M217.92,147.17l-4.64,2.43c-2.94-5.62-3.3-12.5-0.38-18.67c0.96-2.04,2.21-3.85,3.68-5.41l3.81,3.59
						c-1.1,1.17-2.04,2.52-2.76,4.05C215.44,137.8,215.71,142.96,217.92,147.17z"/>
				</g>
			</g>
			<g>
				<g>
					<path class="st17" d="M226.07,154.49l-1.92,4.88c-0.43-0.17-0.86-0.36-1.29-0.56c-4.28-2.02-7.55-5.31-9.59-9.2l4.64-2.43
						c1.53,2.92,3.98,5.38,7.19,6.9C225.43,154.23,225.75,154.37,226.07,154.49z"/>
				</g>
			</g>
		</g>
		<g>
			<g>
				<g>
					<path class="st12" d="M250.74,85.09c3.98-8.41,1.86-18.14-4.57-24.2c-1.56-1.46-3.37-2.72-5.4-3.68
						c-6.17-2.92-13.05-2.56-18.67,0.38c-3.89,2.04-7.18,5.31-9.2,9.59c-0.2,0.43-0.39,0.86-0.56,1.29
						c-0.77,1.96-1.23,3.97-1.39,5.98c-0.68,8.43,3.82,16.78,11.92,20.61C233.32,100.01,245.8,95.54,250.74,85.09z M225.11,90.32
						c-6.07-2.87-9.45-9.13-8.94-15.45c0.12-1.51,0.46-3.01,1.04-4.48c0.13-0.32,0.27-0.65,0.42-0.97c1.52-3.21,3.98-5.66,6.9-7.19
						c4.21-2.2,9.37-2.48,14-0.29c1.53,0.72,2.88,1.66,4.05,2.76c4.82,4.54,6.41,11.83,3.42,18.14
						C242.3,90.69,232.94,94.03,225.11,90.32z"/>
				</g>
			</g>
			<g>
				<g>
					<path class="st13" d="M224.53,62.24l-2.43-4.64c5.62-2.94,12.5-3.3,18.67-0.38c2.04,0.97,3.85,2.22,5.4,3.68l-3.59,3.81
						c-1.17-1.1-2.52-2.04-4.05-2.76C233.91,59.76,228.75,60.03,224.53,62.24z"/>
				</g>
			</g>
			<g>
				<g>
					<path class="st14" d="M217.21,70.39l-4.88-1.92c0.17-0.43,0.36-0.86,0.56-1.29c2.02-4.28,5.31-7.55,9.2-9.59l2.43,4.64
						c-2.92,1.53-5.38,3.98-6.9,7.19C217.48,69.74,217.34,70.07,217.21,70.39z"/>
				</g>
			</g>
			<g>
				<g>
					<path class="st15" d="M210.95,74.45c0.16-2.01,0.62-4.02,1.39-5.98l4.88,1.92c-0.58,1.47-0.92,2.98-1.04,4.48L210.95,74.45z"/>
				</g>
			</g>
		</g>
		<g>
			<g>
				<rect x="268.45" y="55.2" class="st12" width="6.6" height="105.63"/>
			</g>
			<g>
				<rect x="286.04" y="55.2" class="st12" width="6.6" height="105.63"/>
			</g>
			<g>
				<rect x="303.63" y="55.2" class="st12" width="6.6" height="105.63"/>
			</g>
			<g>
				<rect x="321.21" y="55.2" class="st12" width="6.61" height="105.63"/>
			</g>
		</g>
		<g>
			<rect x="268.45" y="95.78" class="st13" width="6.6" height="65.04"/>
		</g>
		<g>
			<rect x="286.04" y="72.63" class="st13" width="6.6" height="88.2"/>
		</g>
		<g>
			<rect x="303.63" y="83.73" class="st13" width="6.6" height="77.1"/>
		</g>
		<g>
			<rect x="321.21" y="63.99" class="st13" width="6.61" height="96.83"/>
		</g>
		<g>
			<polygon class="st12" points="225.39,174.56 186.3,174.56 186.3,173.78 224.61,173.78 224.61,159.01 225.39,159.01 			"/>
		</g>
		<g>
			<polygon class="st12" points="151.77,174.56 100.93,174.56 100.93,173.78 150.99,173.78 150.99,149.61 151.77,149.61 			"/>
		</g>
		<g>
			<rect x="100.93" y="165.69" class="st12" width="34.98" height="4.66"/>
		</g>
		<g>
			<rect x="186.3" y="165.69" class="st12" width="20.58" height="4.66"/>
		</g>
	</g>
	<g>
		<g>
			<rect x="373.69" y="216.65" class="st12" width="0.49" height="62.87"/>
		</g>
		<g>
			<rect x="397.52" y="216.65" class="st12" width="0.49" height="62.87"/>
		</g>
		<g>
			<rect x="421.35" y="216.65" class="st12" width="0.49" height="62.87"/>
		</g>
		<g>
			<rect x="445.19" y="216.65" class="st12" width="0.49" height="62.87"/>
		</g>
		<g>
			<rect x="469.02" y="216.65" class="st12" width="0.49" height="62.87"/>
		</g>
	</g>
	<path class="st12" d="M373.93,254.02c0,0,9.71,8.18,19.1-1.51c9.39-9.69,20.21-12.92,29.78-4.77c9.57,8.16,13.3-3.04,22.87-12.21
		c9.57-9.18,9.42-14.39,23.59-14.39v58.37h-95.34V254.02z"/>
	<rect x="373.93" y="211.41" class="st12" width="9.45" height="2.29"/>
	<rect x="397.77" y="211.41" class="st12" width="5.92" height="2.29"/>
	<rect x="421.6" y="211.41" class="st12" width="7.3" height="2.29"/>
	<rect x="445.19" y="211.41" class="st12" width="7.3" height="2.29"/>
	<rect x="433.23" y="170.07" class="st12" width="31.87" height="4.03"/>
	<rect x="433.23" y="186.97" class="st12" width="29.26" height="4.03"/>
	<rect x="433.23" y="178.52" class="st12" width="25.31" height="4.03"/>
	<path class="st13" d="M404.66,164.32c0,3.08-2.5,5.57-5.57,5.57c-3.08,0-5.57-2.5-5.57-5.57c0-3.08,2.5-5.57,5.57-5.57
		C402.16,158.75,404.66,161.24,404.66,164.32z"/>
	<path class="st13" d="M409.14,182.49v10.6c-3.08,1.4-6.5,2.18-10.1,2.18c-3.6,0-7.02-0.78-10.1-2.18v-10.6
		c0-5.58,4.52-10.1,10.1-10.1C404.62,172.38,409.14,176.91,409.14,182.49z"/>
	<g>
		<path class="st13" d="M399.03,195.92c-3.62,0-7.11-0.75-10.38-2.24c-8.95-4.07-14.73-13.04-14.73-22.87
			c0-13.84,11.26-25.1,25.1-25.1c13.84,0,25.1,11.26,25.1,25.1c0,9.82-5.78,18.8-14.73,22.87
			C406.15,195.17,402.66,195.92,399.03,195.92z M399.03,147.04c-13.11,0-23.78,10.67-23.78,23.78c0,9.31,5.48,17.81,13.95,21.66
			c3.09,1.41,6.4,2.12,9.83,2.12c3.43,0,6.74-0.71,9.83-2.12c8.48-3.85,13.95-12.35,13.95-21.66
			C422.81,157.71,412.15,147.04,399.03,147.04z"/>
	</g>
	<g>
		<g>
			<g>
				<g>
					<g>
						<path class="st18" d="M530.4,374.07c0,0-0.64,3.49-2.6,4c-1.66,0.44-3.5,2.21-4.06,2.75c-0.76,0.73-3.91,2.09-3,3.06
							c0.91,0.96,5.31-2,6.35-2.44c1.05-0.44-0.45,4.41-0.03,5.51c0.42,1.1,8.59,3.13,9.23-0.32c0.64-3.45-0.94-7.55-0.71-8.13
							c0.23-0.58,0.57-2.49,0.57-2.49L530.4,374.07z"/>
					</g>
				</g>
			</g>
		</g>
		<g>
			<g>
				<g>
					<g>
						<path class="st18" d="M527.02,386.1c0,0-1.27,10.68-0.76,11.46c0.51,0.78,1.09,0.82,1.25-0.18
							c0.16-0.99,1.53-10.28,1.53-10.28s0.62,12.89,0.9,13.62c0.16,0.43,1.29,0.56,1.42,0.04c0.14-0.53,0.25-13.34,0.25-13.34
							s0.6,12.04,1.02,12.58c0.36,0.47,1.43,0.34,1.44-0.56c0.02-0.89,0.09-12.1,0.09-12.1s0.99,8.73,1.61,8.98
							c0.38,0.15,1.35,0.32,1.02-1.93c-0.32-2.25-0.54-7.62-0.54-7.62L527.02,386.1z"/>
					</g>
				</g>
			</g>
		</g>
		<g>
			<path class="st18" d="M415.72,243.07c0,0-1.75-3.27-2.35-5.89c-0.6-2.61-3.86-6.1-5.19-6.92c-1.33-0.82-10.96-7.73-12.08-7.73
				c-1.11,0-0.47,2.14,0.5,2.77c0.96,0.62,8.79,6.72,8.79,6.72s-9.73-6.72-10.75-6.53c-1.02,0.18-1.74,1.47-0.65,2.81
				c0,0-2.22,1.46,0.09,3.24l4.6,3.56c0,0-2.71-1.41-1.7,0.77c0.53,1.16,6.19,4.53,7.1,5.57c0.9,1.03,8.04,4.51,8.04,4.51
				L415.72,243.07z"/>
		</g>
		<g>
			<path class="st18" d="M472.77,542.3h-2.41c0,0,0.8-9.12-1.43-9.21c-2.23-0.09-7.77,7.42-11.08,8.58
				c-3.31,1.16-20.28,2.14-20.37-0.98c-0.09-3.13,6.52-4.38,8.58-5.27c2.06-0.89,12.06-10.63,13.85-11.79
				c1.79-1.16,4.74-7.06,4.74-7.06h9.11c0,0,1,4.95,1.57,8.95c0.21,1.48,0.37,2.82,0.39,3.74
				C475.81,532.65,472.77,542.3,472.77,542.3z"/>
		</g>
		<g>
			<path class="st18" d="M514.7,540.5h-2.01v-8.48c-1.68,0.14-7.31,5.47-9.05,7.01c-1.74,1.54-4.13,1.47-11.47,1.94
				c-7.34,0.47-8.03-3.93-6.87-5.42c1.16-1.49,4.92-2.15,6.87-3.08c1.95-0.93,9.66-9.63,11.72-11.68c2.05-2.06,3.31-7.95,3.31-7.95
				l8.58,0.75c0,0-0.05,5.39,0.92,9.91v0c0,0.01,0.01,0.02,0.01,0.03c0.08,0.38,0.17,0.76,0.27,1.13
				C518.26,529.35,514.7,540.5,514.7,540.5z"/>
		</g>
		<g>
			<path class="st18" d="M494.64,256.94c0,0,4.19,8.83,1.95,16.06c0,0,12.88-1.76,13.26-3.26c0.38-1.5-1.61-15.05-0.12-19.2
				C511.22,246.38,494.64,256.94,494.64,256.94z"/>
		</g>
		<g>
			<path class="st13" d="M494.33,270.07c0,0-7.46,3.2-10.86,4.19c-3.4,0.99-10.39,4.84-8.89,17.35c1.5,12.51,4.44,23.23,5.62,28.57
				c1.18,5.33,1.68,19.09,0.89,25.85c0,0,18.66,3.18,39.9-2.89c0,0-4.65-11.1-4.76-14.04c-0.11-2.95,10.78-28.08,11.09-31.95
				c0.31-3.87,1.64-20.91-4.42-24.22c-6.05-3.3-10.72-2.47-13.3-3.96C507.03,267.48,497.82,268.62,494.33,270.07z"/>
		</g>
		<g>
			<path class="st13" d="M494.37,289.53c0,0,2.86-15.02-11.7-15c-12.8,0.02-24.89-2.4-26.92-3.53c-2.03-1.13-9.86-4.97-13.97-9.2
				c-4.11-4.23-26.39-21.17-26.39-21.17l-6.16,6.23c0,0,23.5,25.52,27.29,28.01c3.79,2.48,35.6,20.25,39.64,20.81
				C480.2,296.23,491.53,299.31,494.37,289.53z"/>
		</g>
		<g>
			<path class="st13" d="M540.13,335.94c0.44,5.29-2.44,41.81-2.44,41.81l-10.36,1.19c0,0,0.74-36.07,1.32-44.39
				c0.17-2.45-0.4-6.21-1.28-10.28v0c-0.56-2.59-1.25-5.3-1.96-7.89c-1.96-7.16-4.07-13.37-4.07-13.37s-11.6-30.17,2.95-28.95
				c0,0,5.41,5.57,7.7,14.72c2.29,9.15,4.91,22.85,5.01,28.31C537.09,322.56,539.81,332.05,540.13,335.94z"/>
		</g>
		<g>
			<linearGradient id="SVGID_8_" gradientUnits="userSpaceOnUse" x1="537.1045" y1="396.8566" x2="528.1923" y2="306.7064">
				<stop  offset="0" style="stop-color:#10BEF0"/>
				<stop  offset="1" style="stop-color:#10BEF0;stop-opacity:0"/>
			</linearGradient>
			<path class="st19" d="M540.13,335.94c0.44,5.29-2.44,41.81-2.44,41.81l-10.36,1.19c0,0,0.74-36.07,1.32-44.39
				c0.17-2.45-0.4-6.21-1.28-10.28v0c-0.56-2.59-1.25-5.3-1.96-7.89c-1.96-7.16-4.07-13.37-4.07-13.37s-11.6-30.17,2.95-28.95
				c0,0,5.41,5.57,7.7,14.72c2.29,9.15,4.91,22.85,5.01,28.31C537.09,322.56,539.81,332.05,540.13,335.94z"/>
		</g>
		<g>
			<path class="st13" d="M483.58,345.73c0,0-3.34,7.9-3.64,9.9c-0.29,2-10.77,28.08-11.5,35.71c-0.74,7.72-2.95,28.31-3.74,31.26
				c-0.79,2.95,1.77,16.12,2.16,19.07c0.39,2.95,0.2,51.11-3.34,74.9c0,0,8.26,3.54,14.55,0c0,0,10.42-37.15,9.83-58.58
				c-0.59-21.43-3.31-30.47,0.02-39.12c3.32-8.65,22.79-34.6,24.75-37.35c1.97-2.75,14.28-17.96,2.62-34.44
				C503.64,330.6,483.58,345.73,483.58,345.73z"/>
		</g>
		<g>
			<path class="st13" d="M523.83,416.11c-1.03,6.88,0.05,15.92,2.21,41.09c2.16,25.16-3.78,55.63-3.78,55.63
				c-7.47,2.56-16.07,0-16.07,0c0.2-1.77,0-61.34,0-66.64c0-5.31-1.53-11.33-1.92-17.42c-0.27-4.15-2.2-11.81-4.37-19.62
				c-0.65-2.34-1.32-4.7-1.98-6.97c0,0,0,0,0,0c-0.37-1.28-0.73-2.53-1.08-3.75c-3.06-10.62-7.18-51.61-7.18-51.61
				s22.82-18.38,33.92-1.08c11.11,17.3,5.4,29.88,5.01,32.04C528.21,379.94,524.87,409.23,523.83,416.11z"/>
		</g>
		<g>
			<path class="st13" d="M479.62,314.81c0,0,2.03,32.57-4.04,50.9c0,0,24.09,4.02,54.83-6.34c0,0-8.45-21.89-8.16-25.32
				c0.29-3.42,9.19-43.29,4.92-52.2C522.9,272.93,481.14,285.59,479.62,314.81z"/>
		</g>
		<g>
			<path class="st13" d="M479.62,314.81c0,0,2.03,32.57-4.04,50.9c0,0,24.09,4.02,54.83-6.34c0,0-8.45-21.89-8.16-25.32
				c0.29-3.42,9.19-43.29,4.92-52.2C522.9,272.93,481.14,285.59,479.62,314.81z"/>
		</g>
		<g>
			<linearGradient id="SVGID_9_" gradientUnits="userSpaceOnUse" x1="503.2548" y1="372.1253" x2="501.8837" y2="320.9373">
				<stop  offset="0" style="stop-color:#10BEF0"/>
				<stop  offset="1" style="stop-color:#10BEF0;stop-opacity:0"/>
			</linearGradient>
			<path class="st20" d="M479.62,314.81c0,0,2.03,32.57-4.04,50.9c0,0,24.09,4.02,54.83-6.34c0,0-8.45-21.89-8.16-25.32
				c0.29-3.42,9.19-43.29,4.92-52.2C522.9,272.93,481.14,285.59,479.62,314.81z"/>
		</g>
		<g>
			<path class="st18" d="M499.3,220.63c-5.51-0.22-19.57,1.91-16.95,23.11c2.62,21.2,10.27,19.36,17.85,16.54
				c7.58-2.81,15.6-19.95,15.28-24.37C515.17,231.51,515.02,221.27,499.3,220.63z"/>
		</g>
		<g>
			<path class="st21" d="M482.43,233.95c0,0,6.72,7.4,13.05,8.83c0,0,5.38,8.17,13.85,9.74c0,0,16.49-18.23,0.67-29.9
				C494.16,210.95,481.86,227.45,482.43,233.95z"/>
		</g>
		<g>
			<path class="st18" d="M494.1,239.93c0.12-1.18,2.53-3.73,4.71-1.23c2.18,2.5-1,8.94-2.37,9.04
				C495.06,247.85,493.63,244.4,494.1,239.93z"/>
		</g>
		<g>
			<path class="st22" d="M514.37,379.14c-0.18,0.39-11.54,25.62-14.47,30c-0.65-2.34-1.32-4.7-1.98-6.97c0,0,0,0,0,0
				S513.99,379.7,514.37,379.14z"/>
		</g>
		<g>
			<path class="st13" d="M527.87,298.4c0,0,0.8,16.03-0.51,25.86c-0.56-2.59-1.25-5.3-1.96-7.89
				C525.46,316.01,527.66,300.94,527.87,298.4z"/>
		</g>
		<g>
			<path class="st13" d="M477.68,285.95c0,0-4.93,17.59-5.97,21.28c-1.35,4.8,5.48,11.86,11.04,9.09
				C488.31,313.55,477.68,285.95,477.68,285.95z"/>
		</g>
		<g>
			<path class="st13" d="M514.7,540.5h-2.01v-8.48c-1.68,0.14-7.31,5.47-9.05,7.01c-1.74,1.54-4.13,1.47-11.47,1.94
				c-7.34,0.47-8.03-3.93-6.87-5.42c1.16-1.49,4.92-2.15,6.87-3.08c7.85,0.42,17.43-10.62,22.03-10.59c2.44,0.01,2.42,1.37,2.5,1.62
				v0c0,0.01,0.01,0.02,0.01,0.03c0.08,0.38,0.17,0.76,0.27,1.13C518.26,529.35,514.7,540.5,514.7,540.5z"/>
		</g>
		<g>
			<path class="st13" d="M472.77,542.3h-2.41c0,0,0.8-9.12-1.43-9.21c-2.23-0.09-7.77,7.42-11.08,8.58
				c-3.31,1.16-20.28,2.14-20.37-0.98c-0.09-3.13,6.52-4.38,8.58-5.27c7-0.02,18.39-7.72,21.92-9.29c3.53-1.56,7.35-0.62,7.35-0.62
				c0.21,1.48,0.37,2.82,0.39,3.74C475.81,532.65,472.77,542.3,472.77,542.3z"/>
		</g>
		<g>
			<path class="st13" d="M483.02,236.95c0,0,22.62,2.07,33.92,2.89c0,0-0.2,2.88-1.82,4.1c0,0-16.99-1.07-32.42-3.53
				C482.71,240.41,482.32,238.21,483.02,236.95z"/>
			<path class="st13" d="M483.37,235.58c0,0-3.18-0.35-3.33,0.84c-0.15,1.19-2.18,9.4,2.67,9.9
				C482.71,246.32,483.98,238.48,483.37,235.58z"/>
		</g>
		<g>
			<path class="st21" d="M503.54,219.26c0,0,19.17-0.44,16.29,32.49c-2.21,25.31,7.09,37.82,5.78,41.51
				c-1.31,3.69-5.81,9.86-15.87,4.29c-10.06-5.56-3.44-34.57-8.84-45.86c-5.41-11.29-17.27-16.52-17.27-16.52
				S485.71,215.96,503.54,219.26z"/>
		</g>
		<g>
			<linearGradient id="SVGID_10_" gradientUnits="userSpaceOnUse" x1="449.405" y1="237.6479" x2="454.7925" y2="299.1891">
				<stop  offset="0" style="stop-color:#10BEF0"/>
				<stop  offset="1" style="stop-color:#10BEF0;stop-opacity:0"/>
			</linearGradient>
			<path class="st23" d="M494.37,289.53c0,0,2.86-15.02-11.7-15c-12.8,0.02-24.89-2.4-26.92-3.53c-2.03-1.13-9.86-4.97-13.97-9.2
				c-4.11-4.23-26.39-21.17-26.39-21.17l-6.16,6.23c0,0,23.5,25.52,27.29,28.01c3.79,2.48,35.6,20.25,39.64,20.81
				C480.2,296.23,491.53,299.31,494.37,289.53z"/>
		</g>
	</g>
	<g>
		<path class="st12" d="M448.84,160.21c-8.36,0-15.17-6.8-15.17-15.16c0-8.36,6.81-15.17,15.17-15.17c8.36,0,15.17,6.8,15.17,15.17
			C464,153.41,457.2,160.21,448.84,160.21z M448.84,132.92c-6.69,0-12.13,5.44-12.13,12.13s5.44,12.13,12.13,12.13
			c6.69,0,12.13-5.44,12.13-12.13S455.53,132.92,448.84,132.92z"/>
	</g>
	<rect x="397.9" y="114.82" class="st12" width="22.85" height="3.65"/>
	<rect x="401.27" y="124.21" class="st12" width="19.48" height="3.64"/>
	<rect x="389.42" y="133.6" class="st12" width="31.33" height="3.64"/>
	<rect x="93.43" y="201.12" class="st12" width="199.88" height="5.48"/>
	<rect x="93.43" y="213.91" class="st12" width="214.72" height="5.48"/>
	<rect x="93.43" y="226.69" class="st12" width="163.86" height="5.48"/>
	<rect x="93.43" y="201.12" class="st13" width="121.69" height="5.48"/>
	<rect x="93.43" y="213.91" class="st13" width="131.49" height="5.48"/>
	<rect x="93.43" y="226.69" class="st13" width="85.32" height="5.48"/>
	<defs>
		<filter id="Adobe_OpacityMaskFilter_4_" filterUnits="userSpaceOnUse" x="151.77" y="245.93" width="176.05" height="57.85">
			<feFlood  style="flood-color:white;flood-opacity:1" result="back"/>
			<feBlend  in="SourceGraphic" in2="back" mode="normal"/>
		</filter>
	</defs>
	<mask maskUnits="userSpaceOnUse" x="151.77" y="245.93" width="176.05" height="57.85" id="SVGID_11_">
		<g class="st24">
			<defs>
				<filter id="Adobe_OpacityMaskFilter_5_" filterUnits="userSpaceOnUse" x="151.77" y="245.93" width="176.05" height="57.85">
					<feFlood  style="flood-color:white;flood-opacity:1" result="back"/>
					<feBlend  in="SourceGraphic" in2="back" mode="normal"/>
				</filter>
			</defs>
			<mask maskUnits="userSpaceOnUse" x="151.77" y="245.93" width="176.05" height="57.85" id="SVGID_11_">
			</mask>
			<linearGradient id="SVGID_12_" gradientUnits="userSpaceOnUse" x1="239.7949" y1="313.6213" x2="239.7949" y2="232.0191">
				<stop  offset="0" style="stop-color:#000000"/>
				<stop  offset="0.2021" style="stop-color:#FFFFFF"/>
				<stop  offset="1" style="stop-color:#FFFFFF"/>
			</linearGradient>
			<polygon class="st26" points="151.77,303.78 193.37,264.79 213.28,290.65 252.76,261.28 275.05,282.53 327.82,245.93 
				327.82,303.78 			"/>
		</g>
	</mask>
	<linearGradient id="SVGID_13_" gradientUnits="userSpaceOnUse" x1="239.7949" y1="313.6213" x2="239.7949" y2="232.0191">
		<stop  offset="0" style="stop-color:#40CDE6"/>
		<stop  offset="0.2021" style="stop-color:#40CDE6"/>
		<stop  offset="1" style="stop-color:#5577FF"/>
	</linearGradient>
	<polygon class="st27" points="151.77,303.78 193.37,264.79 213.28,290.65 252.76,261.28 275.05,282.53 327.82,245.93 
		327.82,303.78 	"/>
	<g>
		<g>
			<path class="st18" d="M221.57,283.48c0,0,4.07-0.76,6.13-2.85c2.06-2.09,7.59-3.61,9.37-3.56c1.78,0.05,14.85-0.22,15.95,0.47
				c1.1,0.69,0.17,2.27-1.13,2.26c-1.31-0.01-13.39,0.92-13.39,0.92s13.41-0.29,14.31,0.51c0.9,0.8,0.89,2.47-0.93,3.05
				c0,0,1.38,2.76-1.91,2.99l-6.55,0.5c0,0,3.47,0.36,1.25,1.78c-1.18,0.76-8.68,0.43-10.16,0.84c-1.48,0.41-10.54,0.19-10.54,0.19
				L221.57,283.48z"/>
		</g>
		<ellipse class="st4" cx="115.32" cy="531.44" rx="89.51" ry="23.44"/>
		<path class="st5" d="M199.42,525.66c0,12.16-37.65,22.03-84.1,22.03c-46.45,0-84.1-9.86-84.1-22.03
			c0-12.16,37.65-22.02,84.1-22.02C161.77,503.64,199.42,513.5,199.42,525.66z"/>
		<g>
			<path class="st13" d="M87.54,255.15c0,0-2.44,34.27,4.25,38.37c4.19,2.57,20.92,11.23,20.42,12.86
				c-0.5,1.63-9.44,14.46-9.44,14.46s-32.12-21.15-33.16-27.82c-1.01-6.52,1.58-50.18,6-52.19c3.31-1.51,5.05-0.26,9.22,2.83
				C90.68,248.01,87.54,255.15,87.54,255.15z"/>
		</g>
		<g>
			<linearGradient id="SVGID_14_" gradientUnits="userSpaceOnUse" x1="92.6891" y1="342.0581" x2="87.8903" y2="229.6274">
				<stop  offset="0" style="stop-color:#10BEF0"/>
				<stop  offset="1" style="stop-color:#10BEF0;stop-opacity:0"/>
			</linearGradient>
			<path class="st28" d="M87.54,255.15c0,0-2.44,34.27,4.25,38.37c4.19,2.57,20.92,11.23,20.42,12.86
				c-0.5,1.63-9.44,14.46-9.44,14.46s-32.12-21.15-33.16-27.82c-1.01-6.52,1.58-50.18,6-52.19c3.31-1.51,5.05-0.26,9.22,2.83
				C90.68,248.01,87.54,255.15,87.54,255.15z"/>
		</g>
		<g>
			<g>
				<g>
					<path class="st18" d="M83.81,504.54c0,0-1,6.93-1.12,7.97c-0.12,1.04-11.11-0.61-11.11-0.61l-0.89-8.25
						C70.68,503.65,82.43,503.56,83.81,504.54z"/>
				</g>
			</g>
		</g>
		<g>
			<g>
				<g>
					<path class="st13" d="M82.8,511.63c0,0,3.48,4.18,6.85,6c3.37,1.82,8.66,2.54,10.65,4.43c1.44,1.36,5.24,7.22-8.75,7.1
						c-13.98-0.12-20.73,0.83-22.23-1.42c-1.5-2.25,2.17-16.58,2.17-16.58S74.8,512.35,82.8,511.63z"/>
				</g>
			</g>
		</g>
		<g>
			<g>
				<g>
					<path class="st18" d="M138.8,504.54c0,0-1,6.93-1.12,7.97c-0.13,1.04-11.11-0.61-11.11-0.61l-0.89-8.25
						C125.67,503.65,137.42,503.56,138.8,504.54z"/>
				</g>
			</g>
		</g>
		<g>
			<g>
				<g>
					<path class="st13" d="M137.79,511.63c0,0,3.48,4.18,6.85,6c3.37,1.82,15.76,3.32,17.75,5.2c1.44,1.36,3.83,6.84-15.85,6.33
						c-13.98-0.36-20.73,0.83-22.23-1.42c-1.5-2.25,2.17-16.58,2.17-16.58S129.6,512.44,137.79,511.63z"/>
				</g>
			</g>
		</g>
		<g>
			<g>
				<g>
					<path class="st13" d="M87.75,326.37c0,0-10.32,16.4-9.55,31.23c0.77,14.83-0.92,30.67-2.47,46.16
						c-1.73,17.27-6.44,53.2-6.7,62.44c-0.26,9.24,0.34,43.99,0.34,43.99l17.91-0.13c0,0,6.36-70.21,9.44-77.51
						c3.08-7.29,15.73-60.04,16.24-65.88C113.46,360.84,87.75,326.37,87.75,326.37z"/>
				</g>
			</g>
		</g>
		<g>
			<g>
				<g>
					<path class="st13" d="M142.1,328.59c0,0,4.08,40.31,5.1,49.38c1.03,9.08,0.32,48.4,0.84,54.07c0.51,5.67-3.43,65.66-4.4,77.09
						l-19.68-0.13c0,0-1.36-48.53-1.36-72.11c0-23.58-6.05-51.03-12.98-66.58c-6.93-15.56-22.8-15.93-27.06-44.79
						C82.55,325.53,136.33,319.44,142.1,328.59z"/>
				</g>
			</g>
		</g>
		<g>
			<g>
				<g>
					<path class="st18" d="M98.65,188.07c0,0,12.3-8.22,20.94,0.59c8.64,8.8,12.88,29.5,6.68,33.63c-6.2,4.13-16.73,5.21-21.72-0.39
						c-4.99-5.6-10.33-14.15-11.64-20.39C91.6,195.26,95.54,190.69,98.65,188.07z"/>
				</g>
			</g>
		</g>
		<g>
			<g>
				<g>
					<path class="st18" d="M122.09,223.68c0,0-0.16,8.64,0.79,10.49c0.95,1.84-17.95,1.89-17.95,1.89s-1.53-10.02-4.44-18.5
						C97.58,209.09,122.09,223.68,122.09,223.68z"/>
				</g>
			</g>
		</g>
		<g>
			<g>
				<g>
					<path class="st29" d="M100.56,217.76c0,0,2.17,1.45,7.16-0.58c4.99-2.03,9.69-10.42,11.68-11.69c1.99-1.27,1.71-2.55,1.71-2.55
						l1.82,1.66l2.33-0.4c0,0-3.55-5.68-0.98-8.94c2.57-3.26-7.99-19.2-23.25-9.47c0,0-11.94,6.53-9.77,13.68
						C93.44,206.64,96.85,214.82,100.56,217.76z"/>
				</g>
			</g>
		</g>
		<g>
			<g>
				<g>
					<path class="st30" d="M124.01,233.94c0,0-0.06-3.52-1.66-3.86c-1.6-0.34-17.62-1.88-19.58-1.11v4.1
						C102.77,233.08,106.55,235.4,124.01,233.94z"/>
				</g>
			</g>
		</g>
		<g>
			<g>
				<g>
					<path class="st18" d="M120.14,200.39c-0.58-1.15-4.5-3.9-4.8,0.11c-0.31,4.01,3.85,8.32,5.41,7.5
						C122.3,207.17,121.6,203.3,120.14,200.39z"/>
				</g>
			</g>
		</g>
		<g>
			<g>
				<g>
					<path class="st29" d="M95.1,190.19c0,0-17.59,4.72,5.15,26.56L95.1,190.19z"/>
				</g>
			</g>
		</g>
		<g>
			<g>
				<g>
					<path class="st13" d="M147.41,238.82c-11.4-2-23.4-4.88-23.4-4.88l-21.23-0.87c0,0-19.49,4.29-27.16,7.76
						c-0.73,0.33-0.73,17.39-2.73,21.86l6.36,13.42c0,0,3.68,26.59,4.44,38.42c0.35,5.43-7.58,50.91-7.58,50.91s8.5,2.5,22.99,4.1
						c14.49,1.6,50.7-0.58,50.93-2.29c0.23-1.71-7.01-63.74-7.33-66.95c-0.49-4.93,1.42-27.71,1.42-27.71
						c2.73,3.67,18.52,17.43,26.23,21.8c5.48,3.11,18.93,1.21,22.89,0.8c8.57-0.88,32.26-2.57,32.72-3.41
						c0.37-0.51-1.36-9.14-2.35-9.47c-0.87-0.29-31.44-1.8-39.11-1.4c-3.11,0.16-13.26-11.18-13.26-11.18
						S153.7,241.65,147.41,238.82z"/>
				</g>
			</g>
		</g>
		<g>
			<g>
				<g>
					<linearGradient id="SVGID_15_" gradientUnits="userSpaceOnUse" x1="224.4859" y1="295.9032" x2="75.0353" y2="303.4443">
						<stop  offset="0" style="stop-color:#10BEF0"/>
						<stop  offset="1" style="stop-color:#10BEF0;stop-opacity:0"/>
					</linearGradient>
					<path class="st31" d="M147.41,238.82c-11.4-2-23.4-4.88-23.4-4.88l-21.23-0.87c0,0-19.49,4.29-27.16,7.76
						c-0.73,0.33-0.73,17.39-2.73,21.86l6.36,13.42c0,0,3.68,26.59,4.44,38.42c0.35,5.43-7.58,50.91-7.58,50.91s8.5,2.5,22.99,4.1
						c14.49,1.6,50.7-0.58,50.93-2.29c0.23-1.71-7.01-63.74-7.33-66.95c-0.49-4.93,1.42-27.71,1.42-27.71
						c2.73,3.67,18.52,17.43,26.23,21.8c5.48,3.11,18.93,1.21,22.89,0.8c8.57-0.88,32.26-2.57,32.72-3.41
						c0.37-0.51-1.36-9.14-2.35-9.47c-0.87-0.29-31.44-1.8-39.11-1.4c-3.11,0.16-13.26-11.18-13.26-11.18
						S153.7,241.65,147.41,238.82z"/>
				</g>
			</g>
		</g>
	</g>
	<rect x="275.05" y="245.93" class="st12" width="19.25" height="4.4"/>
	<rect x="215.3" y="255.49" class="st12" width="19.25" height="4.4"/>
	<rect x="164.46" y="245.93" class="st12" width="19.25" height="4.4"/>
	<g>
		<path class="st13" d="M125.38,197.23c0,0-21.13,8.32-31.76,12.26c0,0,0.99,2.71,2.89,3.43c0,0,16.01-5.78,30.13-12.46
			C126.65,200.47,126.4,198.25,125.38,197.23z"/>
		<path class="st13" d="M124.66,196.02c0,0,2.95-1.22,3.43-0.12c0.48,1.1,4.7,8.42,0.18,10.26
			C128.27,206.15,124.89,198.97,124.66,196.02z"/>
	</g>
</g>
</svg>
