<svg id="Layer_1" data-name="Layer 1" xmlns="http://www.w3.org/2000/svg" xmlns:xlink="http://www.w3.org/1999/xlink" viewBox="0 0 24 24"><defs><style>.cls-1{fill:url(#linear-gradient);}.cls-2{fill:#fff;}</style><linearGradient id="linear-gradient" x1="1.93" y1="13" x2="21.93" y2="13" gradientUnits="userSpaceOnUse"><stop offset="0" stop-color="#283478"/><stop offset="1" stop-color="#1675b1"/></linearGradient></defs><rect class="cls-1" x="1.93" y="4" width="20" height="18"/><path class="cls-2" d="M3.93,12.79H5v1.07H3.93Z"/><path class="cls-2" d="M6,8.18H7.31l2.11,4.36-.09.1V8.18h1v5.68H9L6.93,9.57,7,9.47v4.39H6Z"/><path class="cls-2" d="M11.6,8.18h1.07v5.68H11.6Zm.39,0h3.42v1H12Zm0,2.35h3v1H12Zm0,2.3h3.42v1H12Z"/><path class="cls-2" d="M15.76,8.18h4.16v1H15.76Zm1.55.47h1.07v5.21H17.31Z"/><path class="cls-2" d="M4.31,15.73h.4v2.13h-.4Zm.14,0H5.7v.39H4.45Zm0,.9H5.54V17H4.45Z"/><path class="cls-2" d="M6,16.34h.43v1.52H6Zm.78.38H6.64a.21.21,0,0,0-.19.08.28.28,0,0,0-.07.21l0-.39a.51.51,0,0,1,.17-.21.32.32,0,0,1,.21-.08.48.48,0,0,1,.18,0,.38.38,0,0,1,.13.09l-.23.33Z"/><path class="cls-2" d="M7.28,17.77a.48.48,0,0,1-.12-.35.4.4,0,0,1,.14-.34A.58.58,0,0,1,7.7,17h.38l0,.31H7.7a.17.17,0,0,0-.13,0,.13.13,0,0,0-.05.11.14.14,0,0,0,.06.11.37.37,0,0,0,.17,0,.7.7,0,0,0,.24,0,.14.14,0,0,0,.08-.12l0,.22a.23.23,0,0,1-.07.14.56.56,0,0,1-.17.09.75.75,0,0,1-.21,0A.5.5,0,0,1,7.28,17.77Zm.79-.87A.19.19,0,0,0,8,16.74a.3.3,0,0,0-.2-.06.51.51,0,0,0-.17,0,.55.55,0,0,0-.15.08l-.25-.25a.78.78,0,0,1,.24-.16.9.9,0,0,1,.34-.06.67.67,0,0,1,.33.07.46.46,0,0,1,.22.19.62.62,0,0,1,.07.31v1H8.07Z"/><path class="cls-2" d="M8.83,16.34h.4v1.52h-.4Zm.89.65a.33.33,0,0,0-.07-.21.28.28,0,0,0-.36,0,.24.24,0,0,0-.06.18l0-.34a.48.48,0,0,1,.17-.22.45.45,0,0,1,.24-.07.48.48,0,0,1,.27.08.49.49,0,0,1,.18.22,1,1,0,0,1,.06.36v.88h-.4Zm.88,0a.33.33,0,0,0-.06-.21.24.24,0,0,0-.18-.07.21.21,0,0,0-.18.07.27.27,0,0,0-.06.19L10,16.62a.59.59,0,0,1,.19-.22.46.46,0,0,1,.25-.08.48.48,0,0,1,.46.3A1,1,0,0,1,11,17v.88h-.4Z"/><path class="cls-2" d="M11.68,17.81a.56.56,0,0,1-.24-.24.7.7,0,0,1-.08-.37V17a.86.86,0,0,1,.07-.38.62.62,0,0,1,.23-.25.8.8,0,0,1,.36-.08.58.58,0,0,1,.35.1.64.64,0,0,1,.21.29,1.26,1.26,0,0,1,.08.46v.1h-1V17h.67v0a.34.34,0,0,0-.09-.2.21.21,0,0,0-.18-.07.27.27,0,0,0-.22.08.37.37,0,0,0-.08.25v.19a.31.31,0,0,0,.33.33.45.45,0,0,0,.16,0l.14-.08.27.23a1,1,0,0,1-.27.17.79.79,0,0,1-.3.05A.82.82,0,0,1,11.68,17.81Z"/><path class="cls-2" d="M12.82,16.34h.38l.27.94.32-.94H14l.32.94.27-.94H15l-.46,1.52h-.3l-.33-1-.33,1h-.29Z"/><path class="cls-2" d="M15.5,17.81a.51.51,0,0,1-.23-.23.8.8,0,0,1-.07-.36V17a.8.8,0,0,1,.07-.36.49.49,0,0,1,.23-.22.72.72,0,0,1,.35-.08.8.8,0,0,1,.36.08.47.47,0,0,1,.22.22.8.8,0,0,1,.08.36v.25a.75.75,0,0,1-.08.35.49.49,0,0,1-.22.23.8.8,0,0,1-.36.07A.73.73,0,0,1,15.5,17.81Zm.54-.38a.32.32,0,0,0,.07-.2V17a.28.28,0,0,0-.07-.2.29.29,0,0,0-.38,0,.28.28,0,0,0-.06.2v.25a.32.32,0,0,0,.06.2.29.29,0,0,0,.38,0Z"/><path class="cls-2" d="M16.87,16.34h.44v1.52h-.44Zm.79.38h-.1a.22.22,0,0,0-.19.08.33.33,0,0,0-.06.21l0-.39a.51.51,0,0,1,.17-.21.35.35,0,0,1,.22-.08.47.47,0,0,1,.17,0,.3.3,0,0,1,.13.09l-.23.33A.18.18,0,0,0,17.66,16.72Z"/><path class="cls-2" d="M18.15,15.73h.41v2.13h-.41Zm.19,1.59.71-1h.43L18.4,17.76Zm.36-.24.33-.2.52,1h-.46Z"/></svg>