<svg id="Layer_1" data-name="Layer 1" xmlns="http://www.w3.org/2000/svg" viewBox="0 0 24 24"><defs><style>.cls-1{fill:#1b64a2;}</style></defs><path class="cls-1" d="M16.79,7c-.29,0-.56.09-.53.41s.25.36.49.67c.24-.31.47-.47.51-.66S17.07,7,16.79,7Z"/><path class="cls-1" d="M12,1.83A10.17,10.17,0,1,0,22.18,12,10.18,10.18,0,0,0,12,1.83ZM18.33,9l-.45,0c0,.63,0,1.24,0,1.86A2.11,2.11,0,0,1,16.2,13.1a.72.72,0,0,0-.3.11,6.14,6.14,0,0,1-2.9,1.3v3.61c0,.65-.09.73-.76.74h-.78c-.57,0-.66-.1-.66-.69,0-1.09,0-2.18,0-3.28a.47.47,0,0,0-.21-.37,2.91,2.91,0,0,0-2.21-.08c-.31.16-.44.26-.43.61,0,1.08,0,2.16,0,3.23,0,.42-.17.6-.58.58H6.49c-.64,0-.72-.09-.72-.72,0-1.67,0-3.33,0-5,0-.16,0-.31,0-.47H5.63a3.92,3.92,0,0,0-.16.56c0,.3-.24.5-.5.39a.68.68,0,0,1-.33-.55A1.57,1.57,0,0,1,5.5,11.7a.66.66,0,0,0,.29-.35,3,3,0,0,1,1.6-1.93,1.82,1.82,0,0,0,.68-.58,2.39,2.39,0,0,1,4.23.08,1.22,1.22,0,0,0,1.08.67,1.75,1.75,0,0,1,1.23.54,1.76,1.76,0,0,0,.41.21,2.17,2.17,0,0,0,.11-.42c0-1,0-2,0-2.95,0-.24.18-.5-.1-.72a.35.35,0,0,1,0-.59,1.14,1.14,0,0,1,.61,0c.14,0,.28.11.4.09a2,2,0,0,1,2,.66,1.32,1.32,0,0,0,.49.31A1.19,1.19,0,0,1,18.33,9Z"/></svg>