<svg id="Layer_1" data-name="Layer 1" xmlns="http://www.w3.org/2000/svg" xmlns:xlink="http://www.w3.org/1999/xlink" viewBox="0 0 24 24"><defs><style>.cls-1{fill:url(#linear-gradient);}.cls-2{fill:url(#linear-gradient-2);}.cls-3,.cls-4{font-size:5.94px;font-family:FranklinGothic-Medium, Franklin Gothic Medium;font-weight:500;}.cls-3{fill:#231f20;}.cls-4{fill:#fff;}</style><linearGradient id="linear-gradient" x1="14.3" y1="11" x2="15.72" y2="11" gradientUnits="userSpaceOnUse"><stop offset="0" stop-color="#283478"/><stop offset="1" stop-color="#1675b1"/></linearGradient><linearGradient id="linear-gradient-2" x1="2.14" y1="12" x2="22" y2="12" xlink:href="#linear-gradient"/></defs><path class="cls-1" d="M15.67,11.05a.68.68,0,0,0-.57-.93,2.24,2.24,0,0,1-.8,1.77,1.56,1.56,0,0,0,.31,0A1.3,1.3,0,0,0,15.67,11.05Z"/><path class="cls-2" d="M12.07,2.07A9.93,9.93,0,1,0,22,12,9.93,9.93,0,0,0,12.07,2.07ZM13,3.83a.21.21,0,0,1,.26,0,.19.19,0,0,1,.1.22.4.4,0,0,1-.14.18,1,1,0,0,0-.24,1.33,1.18,1.18,0,0,0,.24.26,1.82,1.82,0,0,1,.6,1.38,1.85,1.85,0,0,1-.46,1.19.23.23,0,0,1-.34,0,.23.23,0,0,1,0-.34,1.35,1.35,0,0,0-.14-2A1.45,1.45,0,0,1,13,3.83ZM11,3.82a.23.23,0,0,1,.32.05.22.22,0,0,1-.07.32,1,1,0,0,0-.42.68,1,1,0,0,0,.32.9,1.8,1.8,0,0,1,.19,2.61,1,1,0,0,1-.17.12A.25.25,0,0,1,11,8.15s0-.05.06-.08a1.35,1.35,0,0,0-.14-1.94A1.45,1.45,0,0,1,11,3.82ZM9,9.77c0-.12.05-.14.18-.14h5.61c.16,0,.18,0,.22.17a.1.1,0,0,0,.1.1.9.9,0,0,1,.71,1.27,1.49,1.49,0,0,1-1.37.93,1.64,1.64,0,0,0-.92.23,3.54,3.54,0,0,1-3.78-.46A2,2,0,0,1,9,10.16,2.63,2.63,0,0,1,9,9.77Zm6.65,3.94H8.29a.23.23,0,0,1-.15-.22.21.21,0,0,1,.17-.2l.13,0H15.7c.19,0,.3.08.3.23S15.89,13.71,15.69,13.71Z"/><text class="cls-3" transform="translate(7.56 19.08)">EJB</text><text class="cls-4" transform="translate(7.56 19.08)">EJB</text></svg>