<svg id="Layer_1" data-name="Layer 1" xmlns="http://www.w3.org/2000/svg" viewBox="0 0 24 24"><defs><style>.cls-1{fill:#205191;}</style></defs><path class="cls-1" d="M11.52,1.52A10.48,10.48,0,1,0,22,12,10.48,10.48,0,0,0,11.52,1.52Zm6.14,13.73c-.33,2.32-1.89,3.66-4.07,4.65.91-2.22,1.49-4.27-.62-6,.14,1.3.36,2.62-1.05,3.38-.86.46-1.58,0-2.3-.68a4.76,4.76,0,0,0,0,3.5,4.67,4.67,0,0,1-3.82-2.34,3.92,3.92,0,0,1,.37-4.51,7.58,7.58,0,0,1,1.5-1.44c2.23-1.69,2.52-2.9,1.23-5.43,0,0,0-.1,0-.24a13.31,13.31,0,0,1,6,2.35A6.72,6.72,0,0,1,17.66,15.25Z"/></svg>