<svg id="Layer_1" data-name="Layer 1" xmlns="http://www.w3.org/2000/svg" xmlns:xlink="http://www.w3.org/1999/xlink" viewBox="0 0 24 24"><defs><style>.cls-1{fill:url(#linear-gradient);}</style><linearGradient id="linear-gradient" x1="1.46" y1="11.64" x2="22" y2="11.64" gradientUnits="userSpaceOnUse"><stop offset="0" stop-color="#283478"/><stop offset="1" stop-color="#1675b1"/></linearGradient></defs><path class="cls-1" d="M11.73,1.37A10.27,10.27,0,1,0,22,11.64,10.27,10.27,0,0,0,11.73,1.37ZM6.94,11.85c.19-1.17.37-2.34.55-3.52s.38-2.44.58-3.66l0-.22a.35.35,0,0,1,.28-.32.35.35,0,0,1,.39.22L9.94,6.54c.12.23.25.45.36.68a.2.2,0,0,1,0,.15L6.69,13.81l0,.07h0C6.73,13.2,6.84,12.52,6.94,11.85Zm-.43,3.32,4.88-8.69a.38.38,0,0,1,.34-.24c.17,0,.26.11.34.25l1.1,2.11L6.45,15.29Zm10.63,1L12.23,19a1,1,0,0,1-1.05,0L6.27,16.19l0,0c.25-.25.48-.51.73-.75l8.19-8.07a.36.36,0,0,1,.38-.13.37.37,0,0,1,.25.32l.6,3.56c.24,1.39.47,2.77.7,4.15.05.27.09.54.14.8A.14.14,0,0,1,17.14,16.21Z"/></svg>