<svg id="Layer_1" data-name="Layer 1" xmlns="http://www.w3.org/2000/svg" xmlns:xlink="http://www.w3.org/1999/xlink" viewBox="0 0 24 24"><defs><style>.cls-1{fill:url(#linear-gradient);}</style><linearGradient id="linear-gradient" x1="1.99" y1="11.99" x2="22" y2="11.99" gradientUnits="userSpaceOnUse"><stop offset="0" stop-color="#283478"/><stop offset="1" stop-color="#1675b1"/></linearGradient></defs><path class="cls-1" d="M22,12.06v6A3.74,3.74,0,0,1,18.09,22H5.9A3.74,3.74,0,0,1,2,18.12V5.87A3.72,3.72,0,0,1,5.84,2Q12,2,18.15,2A3.72,3.72,0,0,1,22,5.87ZM8.64,10.32V9.58c0-1.1,0-2.2,0-3.31,0-.65-.27-.9-.92-.92-.45,0-.91,0-1.37,0-.76,0-1,.26-1,1V17.62c0,.77.25,1,1,1,.46,0,.92,0,1.38,0,.64,0,.9-.27.91-.92,0-1.13,0-2.25,0-3.38,0-.22,0-.44,0-.65h6.66v.72c0,1.1,0,2.21,0,3.31,0,.65.27.9.92.92.45,0,.91,0,1.37,0,.76,0,1-.26,1-1,0-1.9,0-3.79,0-5.69s0-3.71,0-5.56c0-.77-.24-1-1-1-.46,0-.92,0-1.38,0-.64,0-.9.27-.91.93,0,1.12,0,2.24,0,3.37,0,.22,0,.44,0,.67Z"/></svg>