<svg id="Layer_1" data-name="Layer 1" xmlns="http://www.w3.org/2000/svg" xmlns:xlink="http://www.w3.org/1999/xlink" viewBox="0 0 24 24"><defs><style>.cls-1{fill:url(#linear-gradient);}.cls-2{font-size:7.29px;fill:#fff;font-family:Consolas;}</style><linearGradient id="linear-gradient" x1="0.39" y1="12" x2="23" y2="12" gradientUnits="userSpaceOnUse"><stop offset="0" stop-color="#283478"/><stop offset="1" stop-color="#1675b1"/></linearGradient></defs><path class="cls-1" d="M11.7.7A11.3,11.3,0,1,0,23,12,11.3,11.3,0,0,0,11.7.7ZM12.26,5c0-.22.1-.44.14-.65s.06-.39.09-.59a.65.65,0,0,1,.28.56,4.69,4.69,0,0,1-.09.64c-.07.28-.15.55-.23.85A1.05,1.05,0,0,1,12.26,5Zm-1-.54a3.84,3.84,0,0,1,.11-.59,1.9,1.9,0,0,0,.09-.76.65.65,0,0,1,.31.54,2,2,0,0,1-.05.54c-.07.33-.17.65-.27,1A1,1,0,0,1,11.21,4.47Zm-1,.45a3.69,3.69,0,0,1,.11-.45l.21-.7a.71.71,0,0,1,.18.49,1.53,1.53,0,0,1,0,.43,3.82,3.82,0,0,0-.16,1.11A.85.85,0,0,1,10.26,4.92Zm7.08,7a7.77,7.77,0,0,1-.8.31,12.91,12.91,0,0,1-2.24.36,31.11,31.11,0,0,1-3.48.09A18.46,18.46,0,0,1,7,12.3,6.1,6.1,0,0,1,6.13,12a.41.41,0,0,1-.27-.31h5.37A4.19,4.19,0,0,1,7.74,8.9h7.92l-.33.75A2,2,0,0,0,17,8H15.83c0,.14,0,.28-.05.42s0,.11-.11.1H7.78c-.11,0-.15,0-.17-.15a3.83,3.83,0,0,1,0-1.07h8.2l0,.28H17.4a1.81,1.81,0,0,1-.07.77A2.35,2.35,0,0,1,15.78,10c-.24.09-.5.14-.75.21a.25.25,0,0,0-.14.08,4.17,4.17,0,0,1-2.67,1.4h-.05v0h5.37A.36.36,0,0,1,17.34,12Z"/><text class="cls-2" transform="translate(3.68 18.41)">JBDC</text></svg>