<svg id="Layer_1" data-name="Layer 1" xmlns="http://www.w3.org/2000/svg" xmlns:xlink="http://www.w3.org/1999/xlink" viewBox="0 0 24 24"><defs><style>.cls-1{fill:url(#linear-gradient);}.cls-2{fill:url(#linear-gradient-2);}.cls-3{fill:#fff;}</style><linearGradient id="linear-gradient" x1="1" y1="12" x2="23" y2="12" gradientUnits="userSpaceOnUse"><stop offset="0" stop-color="#283478"/><stop offset="1" stop-color="#1675b1"/></linearGradient><linearGradient id="linear-gradient-2" x1="1.94" x2="22.06" xlink:href="#linear-gradient"/></defs><path class="cls-1" d="M12.63,23H11.37A10.38,10.38,0,0,1,1,12.63V11.37A10.38,10.38,0,0,1,11.37,1h1.26A10.38,10.38,0,0,1,23,11.37v1.26A10.38,10.38,0,0,1,12.63,23ZM11.37,1.63a9.75,9.75,0,0,0-9.74,9.74v1.26a9.75,9.75,0,0,0,9.74,9.74h1.26a9.75,9.75,0,0,0,9.74-9.74V11.37a9.75,9.75,0,0,0-9.74-9.74Z"/><rect class="cls-2" x="1.94" y="1.94" width="20.11" height="20.11" rx="10.06"/><path class="cls-3" d="M5.32,15a1.45,1.45,0,0,1-.63-.57l.87-.64a1.13,1.13,0,0,0,.34.28,1,1,0,0,0,.41.1A.55.55,0,0,0,6.79,14,1,1,0,0,0,7,13.36V9.49H8.07v3.87a2.09,2.09,0,0,1-.22,1,1.45,1.45,0,0,1-.61.64,2.16,2.16,0,0,1-1,.22A2.05,2.05,0,0,1,5.32,15Z"/><path class="cls-3" d="M12.89,9.49H14.3v5.68h-1V10.76l0,.25-1.09,3.53h-.94l-1.09-3.45,0-.33v4.41h-1V9.49h1.41l1.08,3.83Z"/><path class="cls-3" d="M16.54,15.14a3,3,0,0,1-.73-.24,2.51,2.51,0,0,1-.61-.38l.5-.88a2.5,2.5,0,0,0,.75.42,3,3,0,0,0,.89.14,1.63,1.63,0,0,0,.81-.17.57.57,0,0,0,.29-.51h0a.48.48,0,0,0-.13-.36A.88.88,0,0,0,18,13a5.26,5.26,0,0,0-.53-.11h-.13a5.25,5.25,0,0,1-.94-.22,1.41,1.41,0,0,1-.64-.48,1.53,1.53,0,0,1-.26-1h0a1.67,1.67,0,0,1,.25-.94,1.56,1.56,0,0,1,.71-.6,2.93,2.93,0,0,1,1.13-.2,2.76,2.76,0,0,1,.63.07,3.45,3.45,0,0,1,.62.2,4.08,4.08,0,0,1,.58.32l-.46.91a2.58,2.58,0,0,0-.68-.35,2,2,0,0,0-.69-.13,1.48,1.48,0,0,0-.76.17.49.49,0,0,0-.27.45h0a.53.53,0,0,0,.14.39.78.78,0,0,0,.35.21,4.52,4.52,0,0,0,.58.14h.15a5,5,0,0,1,.91.26,1.4,1.4,0,0,1,.6.48,1.57,1.57,0,0,1,.24.92h0a1.61,1.61,0,0,1-.25.93,1.57,1.57,0,0,1-.74.59,3,3,0,0,1-1.17.21A3.57,3.57,0,0,1,16.54,15.14Z"/></svg>