<svg id="Layer_1" data-name="Layer 1" xmlns="http://www.w3.org/2000/svg" xmlns:xlink="http://www.w3.org/1999/xlink" viewBox="0 0 24 24"><defs><style>.cls-1{fill:#1b64a2;}.cls-2{fill:url(#linear-gradient);}.cls-3{fill:url(#linear-gradient-2);}</style><linearGradient id="linear-gradient" x1="4.92" y1="19.25" x2="18" y2="19.25" gradientUnits="userSpaceOnUse"><stop offset="0" stop-color="#283478"/><stop offset="1" stop-color="#1675b1"/></linearGradient><linearGradient id="linear-gradient-2" x1="4.92" y1="19.23" x2="18" y2="19.23" xlink:href="#linear-gradient"/></defs><path class="cls-1" d="M7.59,7c0,.91,0,1.73,0,2.54,0,.14.17.32.31.41,1.06.63,2.12,1.25,3.2,1.84a.85.85,0,0,0,.7,0c1-.57,2.08-1.2,3.12-1.78a.71.71,0,0,0,.4-.71c0-2.09,0-4.19,0-6.28V2.3c.87.5,1.65.93,2.4,1.41a.61.61,0,0,1,.18.47c0,2.23,0,4.45,0,6.68a.76.76,0,0,1-.32.56c-1.93,1.14-3.87,2.27-5.82,3.37a.7.7,0,0,1-.6,0c-1.95-1.1-3.89-2.23-5.82-3.37A.77.77,0,0,1,5,10.86C5,8.64,5,6.41,5,4.19a.83.83,0,0,1,.36-.6C6.58,2.86,7.79,2.16,9,1.48a.71.71,0,0,1,.59,0c.88.5,1.74,1,2.59,1.58a.87.87,0,0,1,.33.61c0,1.5,0,3,0,4.49A1.11,1.11,0,0,1,11.12,9L8.2,7.3C8,7.2,7.85,7.12,7.59,7Z"/><path class="cls-2" d="M7.77,16.54v3.73a2.07,2.07,0,0,1-.1.66,1.48,1.48,0,0,1-.31.53,1.45,1.45,0,0,1-.53.37,1.88,1.88,0,0,1-.74.14,1.84,1.84,0,0,1-.33,0,1.8,1.8,0,0,1-.32-.06,2.46,2.46,0,0,1-.29-.09l-.23-.12v-.74a2.29,2.29,0,0,0,.56.29,2,2,0,0,0,.62.11.87.87,0,0,0,.69-.27A1.18,1.18,0,0,0,7,20.27V17.18H5v-.64Z"/><path class="cls-3" d="M13,18.18a1.72,1.72,0,0,1-.13.66,1.63,1.63,0,0,1-.38.57,1.81,1.81,0,0,1-.66.41,2.54,2.54,0,0,1-1,.16h-.66v1.93H9.44V16.54H11a3.16,3.16,0,0,1,.76.09,1.7,1.7,0,0,1,.64.29,1.36,1.36,0,0,1,.44.51A1.57,1.57,0,0,1,13,18.18Zm-.76,0a1,1,0,0,0-.34-.79,1.44,1.44,0,0,0-.95-.28h-.74v2.21h.68a1.63,1.63,0,0,0,1-.28A1.06,1.06,0,0,0,12.21,18.22Z"/><path class="cls-3" d="M18,21.91h-.8l-.37-1.17H14.6l-.38,1.17h-.76l1.78-5.37h1Zm-1.38-1.82-.91-2.87-.9,2.87Z"/></svg>