<svg id="Layer_1" data-name="Layer 1" xmlns="http://www.w3.org/2000/svg" xmlns:xlink="http://www.w3.org/1999/xlink" viewBox="0 0 24 24"><defs><style>.cls-1{fill:url(#linear-gradient);}.cls-2{fill:url(#linear-gradient-5);}</style><linearGradient id="linear-gradient" x1="2.58" y1="12.45" x2="14.94" y2="12.45" gradientUnits="userSpaceOnUse"><stop offset="0" stop-color="#283478"/><stop offset="1" stop-color="#1675b1"/></linearGradient><linearGradient id="linear-gradient-5" x1="15.66" y1="12.8" x2="21" y2="12.8" xlink:href="#linear-gradient"/></defs><path class="cls-1" d="M5.15,14.23H4.28v-1.5a1.52,1.52,0,0,0,0-.37.25.25,0,0,0-.11-.17.35.35,0,0,0-.23-.07c-.3,0-.46.2-.46.61v1.5H2.58V11.56h.81V12a1.11,1.11,0,0,1,.4-.41.87.87,0,0,1,.42-.1,1,1,0,0,1,.68.21,1,1,0,0,1,.26.81Z"/><path class="cls-1" d="M7.09,11.5a1.39,1.39,0,0,1,1.05.4,1.41,1.41,0,0,1,.38,1,1.34,1.34,0,0,1-.39,1,1.4,1.4,0,0,1-1.05.4,1.36,1.36,0,0,1-1-.39,1.4,1.4,0,0,1-.37-1,1.37,1.37,0,0,1,.17-.72,1.27,1.27,0,0,1,.47-.48A1.33,1.33,0,0,1,7.09,11.5Zm0,.52a.44.44,0,0,0-.37.17,1.34,1.34,0,0,0-.13.69,1.39,1.39,0,0,0,.12.68.41.41,0,0,0,.38.21.42.42,0,0,0,.35-.18,1.07,1.07,0,0,0,.14-.67,1.43,1.43,0,0,0-.12-.71A.4.4,0,0,0,7.11,12Z"/><path class="cls-1" d="M11.58,10.62v3.61h-.81v-.41a1,1,0,0,1-1.58.11,1.58,1.58,0,0,1-.28-1,1.7,1.7,0,0,1,.28-1A1,1,0,0,1,10,11.5a.86.86,0,0,1,.72.34V10.62Zm-.85,2.06q0-.63-.42-.63c-.34,0-.5.3-.5.89s.15.79.47.79a.47.47,0,0,0,.32-.14.58.58,0,0,0,.13-.41Z"/><path class="cls-1" d="M14.94,13H13v.12a.57.57,0,0,0,.17.44.63.63,0,0,0,.4.14.47.47,0,0,0,.52-.42l.79,0a1.29,1.29,0,0,1-1.34.93,1.6,1.6,0,0,1-.75-.16,1.32,1.32,0,0,1-.5-.47,1.26,1.26,0,0,1-.21-.73,1.39,1.39,0,0,1,1.44-1.43,1.41,1.41,0,0,1,1,.37A1.48,1.48,0,0,1,14.94,13ZM13,12.57h1.05c0-.37-.19-.55-.5-.55S13.08,12.2,13,12.57Z"/><path class="cls-2" d="M21,11.25,18.31,9.73l-2.65,1.55,0,3.08,2.67,1.52L21,14.33Zm-.93,2.61-1.55.89-.1.05h-.12l-.71-.39.3-.13s.05,0,.08,0l.32.19a.13.13,0,0,0,.12,0l1.5-.87a.12.12,0,0,0,.06-.1V11.8a.13.13,0,0,0-.06-.1c-.5-.3-1-.58-1.51-.87a.09.09,0,0,0-.1,0l-1.51.87a.12.12,0,0,0-.05.09q0,.87,0,1.74a.11.11,0,0,0,.05.09l.39.23.09,0a.22.22,0,0,0,.3-.23V12c0-.06,0-.09.08-.09.24,0,.2,0,.2.19v1.58a1.48,1.48,0,0,1,0,.21.43.43,0,0,1-.62.3,3.36,3.36,0,0,1-.65-.34.26.26,0,0,1-.11-.24V11.75a.29.29,0,0,1,.15-.27l1.57-.91a.34.34,0,0,1,.34,0l1.56.9a.32.32,0,0,1,.16.29v1.8A.34.34,0,0,1,20.05,13.86Zm-.88-1a4,4,0,0,0-.48-.09,2.33,2.33,0,0,1-.36-.08A.36.36,0,0,1,18,12.4a.47.47,0,0,1,.22-.47,1,1,0,0,1,.51-.11v0a3.59,3.59,0,0,1,.47.12.46.46,0,0,1,.28.42c0,.06,0,.08-.07.08h-.09a.11.11,0,0,1-.14-.1.25.25,0,0,0-.23-.2h-.44a.35.35,0,0,0-.11,0,.17.17,0,0,0-.09.18.12.12,0,0,0,.11.12l.53.1.32.07a.37.37,0,0,1,.28.32.44.44,0,0,1-.17.44.8.8,0,0,1-.45.17,1.51,1.51,0,0,1-.63-.07A.48.48,0,0,1,18,13c0-.07,0-.1.08-.1h.06c.1,0,.15,0,.17.13s.1.16.2.19a1.26,1.26,0,0,0,.61,0,.39.39,0,0,0,.11-.06A.17.17,0,0,0,19.17,12.89Z"/></svg>