<svg id="Layer_1" data-name="Layer 1" xmlns="http://www.w3.org/2000/svg" xmlns:xlink="http://www.w3.org/1999/xlink" viewBox="0 0 24 24"><defs><style>.cls-1{fill:url(#linear-gradient);}.cls-2{fill:#fff;}</style><linearGradient id="linear-gradient" x1="1.91" y1="11.92" x2="22" y2="11.92" gradientUnits="userSpaceOnUse"><stop offset="0" stop-color="#283478"/><stop offset="1" stop-color="#1675b1"/></linearGradient></defs><path class="cls-1" d="M12,1.88a10.07,10.07,0,0,0-10,10h0a10,10,0,1,0,20.09,0h0A10.07,10.07,0,0,0,12,1.88ZM7.35,12.39a.56.56,0,0,1,0-1.12A.56.56,0,0,1,7.35,12.39ZM9.51,7.48a.56.56,0,0,1,0,1.12A.56.56,0,0,1,9.51,7.48Zm.06,8.87a.56.56,0,0,1,0-1.12A.56.56,0,0,1,9.57,16.35Zm4.71.06a.56.56,0,0,1,0-1.11A.56.56,0,0,1,14.28,16.41Zm.09-7.83a.56.56,0,0,1,0-1.12A.56.56,0,0,1,14.37,8.58Zm2.18,4.08a.56.56,0,0,1,0-1.11A.56.56,0,0,1,16.55,12.66Z"/><path class="cls-2" d="M18.9,11.6a3.78,3.78,0,0,0-1.5-2.49,1,1,0,0,1-.29-.51,4.31,4.31,0,0,0-.93-2.13,3.33,3.33,0,0,0-3.84-.7,1,1,0,0,1-.77,0,3.37,3.37,0,0,0-3.37.3A3.54,3.54,0,0,0,6.84,8.5a1.08,1.08,0,0,1-.41.7A3.49,3.49,0,0,0,5,11.6a3.45,3.45,0,0,0,1.48,3.08.77.77,0,0,1,.33.54,3.66,3.66,0,0,0,1.39,2.55,3.36,3.36,0,0,0,3.34.28,1.08,1.08,0,0,1,.81,0c.47.16,1,.24,1.38.35a8.17,8.17,0,0,0,1.06-.19,3.31,3.31,0,0,0,2.28-2.91,1.08,1.08,0,0,1,.41-.7A3.38,3.38,0,0,0,18.9,11.6ZM16.63,9.43c0,.48-.06,1-.1,1.49l-1.46-2.5c.5.25,1,.46,1.41.71A.4.4,0,0,1,16.63,9.43Zm-4.8-2.85a.33.33,0,0,1,.24,0l1.35.88H10.49ZM8.15,8.74c.21-.1.43-.18.66-.28l-1.4,2.42c0-.24-.08-.48-.1-.72C7.24,9,7.07,9.29,8.15,8.74Zm-.87,5.62c0-.47.06-.94.09-1.48.51.87,1,1.65,1.46,2.5-.49-.24-1-.45-1.39-.69A.47.47,0,0,1,7.28,14.36Zm4.78,2.88a.29.29,0,0,1-.24,0c-.41-.26-.82-.54-1.23-.81l0-.06h2.79C12.91,16.68,12.49,17,12.06,17.24Zm4.43-2.56c-.44.24-.89.46-1.42.72l1.45-2.5c0,.55.09,1,.12,1.56A.33.33,0,0,1,16.49,14.68Zm.75-.57c-.1-.54-.21-1.07-.31-1.6a.51.51,0,0,1-.38.15.5.5,0,0,1-.48-.31,9.45,9.45,0,0,1-1.72,3,.54.54,0,0,1,.45.66l1.69-.6a2.68,2.68,0,0,1-3.81,2.21l1.41-1.21a.56.56,0,0,1-.32-.7,9.3,9.3,0,0,1-3.68,0,.56.56,0,0,1-.34.66l1.48,1.27a2.68,2.68,0,0,1-3.82-2.2L9.06,16a.54.54,0,0,1,.45-.7,9.88,9.88,0,0,1-1.74-3.08.49.49,0,0,1-.42.22A.51.51,0,0,1,7,12.25a13.28,13.28,0,0,0-.22,1.54c0,.11,0,.22,0,.36a2.73,2.73,0,0,1,0-4.49,6.31,6.31,0,0,0,.17,1.2A2.12,2.12,0,0,1,7,11.4a.51.51,0,0,1,.8.15,9.34,9.34,0,0,1,1.68-3A.53.53,0,0,1,9,7.88l-1.56.55a2.65,2.65,0,0,1,3.79-2.2L9.72,7.53a.54.54,0,0,1,.3.63l.22-.05C10.81,8,11.38,8,12,7.92l1.81.24a.56.56,0,0,1,.31-.66L12.68,6.23a2.66,2.66,0,0,1,3.8,2.2l-1.6-.56a.55.55,0,0,1-.48.7,9.6,9.6,0,0,1,1.75,3.1s0,0,0,.05a.51.51,0,0,1,.39-.17.5.5,0,0,1,.31.11c.12-.65.25-1.3.38-1.94A2.67,2.67,0,0,1,17.24,14.11Z"/><path class="cls-2" d="M12.86,11.88a.89.89,0,0,1-.9.93.87.87,0,0,1-.91-.88A.89.89,0,0,1,12,11,.88.88,0,0,1,12.86,11.88Z"/></svg>