<svg width="81" height="80" viewBox="0 0 81 80" fill="none" xmlns="http://www.w3.org/2000/svg">
<g clip-path="url(#clip0_6701_15370)">
<mask id="mask0_6701_15370" style="mask-type:luminance" maskUnits="userSpaceOnUse" x="0" y="0" width="81" height="80">
<path d="M80.5 0H0.5V80H80.5V0Z" fill="white"/>
</mask>
<g mask="url(#mask0_6701_15370)">
<path d="M63.176 74.2498L62.8616 31.9863L56.6646 34.2541L57.3084 64.4847L15.085 45.186L16.7407 51.6802L63.176 74.2498Z" fill="#2D3748"/>
<path d="M57.3146 64.9143L57.1517 59.0986L28.9013 45.6404L67.4792 22.154L60.8997 19.4326L15.0732 45.3635L57.3146 64.9143Z" fill="#718096"/>
<path d="M36.0603 49.0311L28.9316 45.7156L67.3313 22.2166L67.5691 70.1355L63.207 74.3242L62.5758 32.2354L36.0603 49.0311Z" fill="#E2E8F0"/>
<path d="M43.1301 24.7263L27.9321 21.5642L20.3271 5.13599L43.1301 24.7263Z" fill="#EDF2F7"/>
<path d="M27.8737 21.4368L17.1611 39.8108L20.3461 5.10815L27.8737 21.4368Z" fill="#CBD5E0"/>
<path d="M16.8415 6.83862L23.4788 21.2359L14.0332 37.4368L16.8415 6.83862Z" stroke="#002680"/>
<path d="M43.0699 24.6804L17.082 39.7927L27.8557 21.4949L43.0699 24.6804Z" fill="#718096"/>
</g>
</g>
<defs>
<clipPath id="clip0_6701_15370">
<rect width="80" height="80" fill="white" transform="translate(0.5)"/>
</clipPath>
</defs>
</svg>
