<svg width="81" height="80" viewBox="0 0 81 80" fill="none" xmlns="http://www.w3.org/2000/svg">
<g clip-path="url(#clip0_6701_15317)">
<mask id="mask0_6701_15317" style="mask-type:luminance" maskUnits="userSpaceOnUse" x="0" y="0" width="81" height="80">
<path d="M80.5 0H0.5V80H80.5V0Z" fill="white"/>
</mask>
<g mask="url(#mask0_6701_15317)">
<path d="M23.4186 82.8466C21.4537 75.9449 26.6369 69.0801 33.8128 69.0801H62.8916C68.3864 69.0801 72.5139 74.0971 71.4549 79.4889C69.8537 85.8479 64.3771 90.4786 57.8404 91.0007L50.2833 91.6043C48.9844 91.708 47.6796 91.7134 46.3799 91.6205L33.0423 90.6671C28.5091 90.343 24.6631 87.2176 23.4186 82.8466Z" fill="#F7FAFC"/>
<path d="M27.0566 72.7858C27.0566 70.8028 28.5277 69.124 30.4936 68.8633C36.7351 68.0355 39.8399 67.6878 47.0719 67.4928C54.2023 67.3005 58.4409 67.6769 64.1566 68.6938C66.0986 69.0393 67.4935 70.7445 67.4935 72.7169C67.4935 76.5579 64.8347 79.8821 61.0179 80.313C54.7907 81.0159 48.0998 81.1859 47.1791 81.2065C47.1025 81.2082 47.0405 81.2076 46.9639 81.2046C46.0575 81.1683 39.5973 80.8944 33.4787 80.2174C29.7273 79.8024 27.0566 76.5601 27.0566 72.7858Z" fill="#A0AEC0"/>
<path d="M39.4492 60.1289H55.2989V70.0857C55.2989 74.4625 51.7508 78.0105 47.374 78.0105C42.9973 78.0105 39.4492 74.4625 39.4492 70.0857V60.1289Z" fill="#EDF2F7"/>
<path d="M50.0222 50.7783H44.9422C40.7899 50.7783 37.4238 54.1444 37.4238 58.2967C37.4238 62.449 40.7899 65.8151 44.9422 65.8151H50.0222C54.1745 65.8151 57.5406 62.449 57.5406 58.2967C57.5406 54.1444 54.1745 50.7783 50.0222 50.7783Z" fill="#2D3748"/>
<path d="M64.9577 32.5057C64.9103 31.2791 65.8918 30.2588 67.1194 30.2588C68.3368 30.2588 69.3144 31.2629 69.2819 32.4798L69.172 36.6003L68.9835 42.1067C68.9628 42.7138 68.6329 43.2682 68.1092 43.576C67.5798 43.8871 66.9271 43.9025 66.3837 43.6166L66.33 43.5884C65.7341 43.2749 65.3508 42.6671 65.3248 41.9942L64.9577 32.5057Z" fill="#2D3748"/>
<path d="M23.9069 32.5057C23.8595 31.2791 24.8411 30.2588 26.0686 30.2588C27.286 30.2588 28.2636 31.2629 28.2311 32.4798L28.1212 36.6003L27.9328 42.1067C27.912 42.7138 27.5821 43.2682 27.0584 43.576C26.529 43.8871 25.8764 43.9025 25.3329 43.6166L25.2792 43.5884C24.6833 43.2749 24.3 42.6671 24.274 41.9942L23.9069 32.5057Z" fill="#2D3748"/>
<path d="M27.0779 35.6645C25.8798 24.078 34.9695 14 46.6177 14C58.0173 14 67.0231 23.6711 66.212 35.0418L66.0898 36.7548L65.1409 47.1294C64.4394 54.8007 58.8523 61.1353 51.3287 62.7897C48.9555 63.3116 46.5001 63.3387 44.1159 62.8695L43.7443 62.7963C35.3362 61.1414 28.9936 54.1916 28.1122 45.6676L27.0779 35.6645Z" fill="#CBD5E0"/>
<path d="M30.1662 36.1404C29.1644 26.4766 36.7451 18.0693 46.4607 18.0693C55.9684 18.0693 63.4791 26.1364 62.8008 35.6198L62.7021 37.0006L61.9137 45.5987C61.3267 52.0004 56.662 57.285 50.3827 58.6623C48.4075 59.0955 46.3644 59.118 44.3801 58.7285L44.0705 58.6677C37.0531 57.2901 31.7577 51.4921 31.0203 44.3789L30.1662 36.1404Z" fill="#F7FAFC"/>
<path d="M50.9517 28.4258H42.0109C37.3536 28.4258 33.5781 32.2013 33.5781 36.8586C33.5781 41.5159 37.3536 45.2914 42.0109 45.2914H50.9517C55.609 45.2914 59.3845 41.5159 59.3845 36.8586C59.3845 32.2013 55.609 28.4258 50.9517 28.4258Z" fill="#1A202C"/>
<path d="M48.1069 28.2197H42.0109C37.3536 28.2197 33.5781 31.9952 33.5781 36.6525C33.5781 41.3098 37.3536 45.0853 42.0109 45.0853H48.1069C52.7642 45.0853 56.5397 41.3098 56.5397 36.6525C56.5397 31.9952 52.7642 28.2197 48.1069 28.2197Z" fill="#2D3748"/>
<path d="M38.3542 36.7602C39.4204 36.7602 40.2846 35.8959 40.2846 34.8298C40.2846 33.7637 39.4204 32.8994 38.3542 32.8994C37.2881 32.8994 36.4238 33.7637 36.4238 34.8298C36.4238 35.8959 37.2881 36.7602 38.3542 36.7602Z" fill="white"/>
<path d="M52.1706 36.7602C53.2368 36.7602 54.101 35.8959 54.101 34.8298C54.101 33.7637 53.2368 32.8994 52.1706 32.8994C51.1045 32.8994 50.2402 33.7637 50.2402 34.8298C50.2402 35.8959 51.1045 36.7602 52.1706 36.7602Z" fill="white"/>
<path d="M41.498 38.9912C44.3942 41.0628 46.0181 40.8469 48.9149 38.9912" stroke="#F7FAFC" stroke-linecap="round"/>
<path d="M6.27105 20H2.97559L7.9969 5.45459H11.9599L16.9741 20H13.6787L10.0352 8.77845H9.92162L6.27105 20ZM6.06508 14.2827H13.8491V16.6832H6.06508V14.2827ZM21.8001 5.45459V20H18.7248V5.45459H21.8001Z" fill="#002680"/>
</g>
</g>
<defs>
<clipPath id="clip0_6701_15317">
<rect width="80" height="80" fill="white" transform="translate(0.5)"/>
</clipPath>
</defs>
</svg>
