<svg width="81" height="80" viewBox="0 0 81 80" fill="none" xmlns="http://www.w3.org/2000/svg">
<path d="M14.8996 36.3188H65.8524C72.612 36.3188 78.0918 41.7986 78.0918 48.5582C78.0918 55.3179 72.612 60.7976 65.8524 60.7976H14.8996C8.13996 60.7976 2.66019 55.3179 2.66019 48.5582C2.66019 41.7986 8.13996 36.3188 14.8996 36.3188Z" fill="#E2E8F0"/>
<path d="M53.8273 48.1373C46.4038 48.1373 40.386 42.8164 40.386 36.2526C40.386 29.6889 46.4038 24.3679 53.8273 24.3679C61.2507 24.3679 67.2686 29.6889 67.2686 36.2526C67.2686 42.8164 61.2507 48.1373 53.8273 48.1373Z" fill="#E2E8F0"/>
<path d="M28.4126 48.1448C19.6227 48.1448 12.4971 41.8444 12.4971 34.0724C12.4971 26.3004 19.6227 20 28.4126 20C37.2025 20 44.3281 26.3004 44.3281 34.0724C44.3281 41.8444 37.2025 48.1448 28.4126 48.1448Z" fill="#E2E8F0"/>
<path d="M24.7336 25.9092V55.0001H18.583V25.9092H24.7336Z" fill="#2D3748"/>
<path d="M48.2217 30.9802V25.9092H72.1137V30.9802H63.2075V55.0001H57.1279V30.9802H48.2217Z" fill="#2D3748"/>
<path d="M40.6673 55.4261C38.4609 55.4261 36.5527 54.9574 34.9429 54.0199C33.3425 53.0729 32.1067 51.7566 31.2355 50.071C30.3643 48.3759 29.9287 46.411 29.9287 44.1761C29.9287 41.9223 30.3643 39.9527 31.2355 38.267C32.1067 36.572 33.3425 35.2557 34.9429 34.3182C36.5527 33.3712 38.4609 32.8977 40.6673 32.8977C42.8737 32.8977 44.7772 33.3712 46.3775 34.3182C47.9874 35.2557 49.2279 36.572 50.0991 38.267C50.9703 39.9527 51.4059 41.9223 51.4059 44.1761C51.4059 46.411 50.9703 48.3759 50.0991 50.071C49.2279 51.7566 47.9874 53.0729 46.3775 54.0199C44.7772 54.9574 42.8737 55.4261 40.6673 55.4261ZM40.6957 50.7386C41.6995 50.7386 42.5376 50.4545 43.2099 49.8864C43.8823 49.3087 44.3889 48.5227 44.7298 47.5284C45.0802 46.5341 45.2554 45.4025 45.2554 44.1335C45.2554 42.8646 45.0802 41.733 44.7298 40.7386C44.3889 39.7443 43.8823 38.9583 43.2099 38.3807C42.5376 37.803 41.6995 37.5142 40.6957 37.5142C39.6825 37.5142 38.8302 37.803 38.1389 38.3807C37.4571 38.9583 36.941 39.7443 36.5906 40.7386C36.2497 41.733 36.0792 42.8646 36.0792 44.1335C36.0792 45.4025 36.2497 46.5341 36.5906 47.5284C36.941 48.5227 37.4571 49.3087 38.1389 49.8864C38.8302 50.4545 39.6825 50.7386 40.6957 50.7386Z" fill="#002680"/>
<path d="M43.1602 30.5H38.1602V41.5H43.1602V30.5Z" fill="#002680" stroke="#E2E8F0"/>
<path d="M17.7832 18.317C19.2663 16.0656 23.9528 16.0656 25.4359 18.317" stroke="#002680" stroke-width="1.5" stroke-linecap="round"/>
<path d="M16.0654 16.3472C18.2144 12.9702 25.005 12.9702 27.1539 16.3472" stroke="#002680" stroke-width="1.5" stroke-linecap="round"/>
<path d="M14.6602 14.3771C17.3539 9.87431 25.8661 9.87431 28.5599 14.3771" stroke="#002680" stroke-width="1.5" stroke-linecap="round"/>
<path d="M21.6602 24C22.7647 24 23.6602 23.1046 23.6602 22C23.6602 20.8954 22.7647 20 21.6602 20C20.5556 20 19.6602 20.8954 19.6602 22C19.6602 23.1046 20.5556 24 21.6602 24Z" fill="#002680"/>
</svg>
