<svg width="81" height="80" viewBox="0 0 81 80" fill="none" xmlns="http://www.w3.org/2000/svg">
<path d="M25.6602 30.4912C25.1079 30.4912 24.6602 30.9389 24.6602 31.4912V73.8911C24.6602 74.4434 25.1079 74.8911 25.6602 74.8911H53.7618C54.3141 74.8911 54.7618 74.4434 54.7618 73.8911L54.7619 31.4912C54.7619 30.9389 54.3141 30.4912 53.7619 30.4912H25.6602Z" fill="#2D3748"/>
<path d="M27.541 33.3135C26.9887 33.3135 26.541 33.7612 26.541 34.3135V70.8812C26.541 71.4335 26.9887 71.8812 27.541 71.8812H51.6918C52.2441 71.8812 52.6918 71.4335 52.6918 70.8812V34.3135C52.6918 33.7612 52.2441 33.3135 51.6918 33.3135H27.541Z" fill="#CBD5E0"/>
<path d="M23.6602 6H11.6602C8.89873 6 6.66016 8.23858 6.66016 11V19.4384C6.66016 22.1998 8.89873 24.4384 11.6602 24.4384H23.6602C26.4216 24.4384 28.6602 22.1998 28.6602 19.4384V11C28.6602 8.23858 26.4216 6 23.6602 6Z" fill="#CBD5E0"/>
<path d="M23.1193 28.4164L19.1328 23.9316H21.1261H23.1193V28.4164Z" fill="#CBD5E0"/>
<path d="M17.6351 16.4339C20.2532 16.4339 22.3756 14.3772 22.3756 11.84C22.3756 9.30286 20.2532 7.24609 17.6351 7.24609C15.0169 7.24609 12.8945 9.30286 12.8945 11.84C12.8945 14.3772 15.0169 16.4339 17.6351 16.4339Z" fill="#F7FAFC"/>
<path d="M19.4447 14.8701H15.7305V20.5392H19.4447V14.8701Z" fill="#F7FAFC"/>
<path d="M15.7305 17.7051H19.4447V21.3216C19.4447 22.3472 18.6132 23.1787 17.5876 23.1787C16.5619 23.1787 15.7305 22.3472 15.7305 21.3216V17.7051Z" fill="#002680"/>
<path d="M16.4121 12.4277L17.194 17.7547H18.0737L18.9534 12.4277L18.2203 13.1608L17.6827 12.4277L17.194 13.1608L16.4121 12.4277Z" stroke="#4A5568" stroke-width="0.5" stroke-linecap="round" stroke-linejoin="round"/>
<path d="M19.4447 17.7051H15.7305V18.487H19.4447V17.7051Z" fill="#4A5568"/>
<path d="M4.66016 49.9047V47.5879H11.3561L15.2248 49.9047H30.7494V66.0124H4.66016V49.9047Z" fill="#718096"/>
<path d="M6.2627 48.3559V46.0391H12.9586L16.8273 48.3559H32.3519V64.4636H6.2627V48.3559Z" fill="#002680"/>
<path d="M8.05078 46.8081V44.4912H14.7467L18.6155 46.8081H34.14V62.9157H8.05078V46.8081Z" fill="#EDF2F7"/>
<path d="M34.6602 21.4912C34.6602 19.8344 36.0033 18.4912 37.6602 18.4912H74.6602C76.3171 18.4912 77.6602 19.8344 77.6602 21.4912V36.4912C77.6602 38.1481 76.3171 39.4912 74.6602 39.4912H37.6602C36.0033 39.4912 34.6602 38.1481 34.6602 36.4912V21.4912Z" fill="#EDF2F7"/>
<path d="M40.8701 44.3055L46.0442 38.5566H43.4572H40.8701V44.3055Z" fill="#EDF2F7"/>
<path d="M44.5836 36.3382C48.4074 36.3382 51.5071 33.2384 51.5071 29.4147C51.5071 25.591 48.4074 22.4912 44.5836 22.4912C40.7599 22.4912 37.6602 25.591 37.6602 29.4147C37.6602 33.2384 40.7599 36.3382 44.5836 36.3382Z" fill="white"/>
<path d="M44.4823 29.4305C45.815 29.4305 46.8953 28.3501 46.8953 27.0175C46.8953 25.6848 45.815 24.6045 44.4823 24.6045C43.1497 24.6045 42.0693 25.6848 42.0693 27.0175C42.0693 28.3501 43.1497 29.4305 44.4823 29.4305Z" fill="#002680"/>
<path d="M40.9434 32.8882C40.9434 30.9247 42.5351 29.333 44.4985 29.333C46.462 29.333 48.0537 30.9247 48.0537 32.8882V33.9981H40.9434V32.8882Z" fill="#002680"/>
<path d="M75.5604 24.1348H55.4941V25.6603H75.5604V24.1348Z" fill="#2D3748"/>
<path d="M75.5604 28.4766H55.4941V30.0021H75.5604V28.4766Z" fill="#2D3748"/>
<path d="M75.5604 32.8184H55.4941V34.3439H75.5604V32.8184Z" fill="#2D3748"/>
</svg>
