<svg width="81" height="80" viewBox="0 0 81 80" fill="none" xmlns="http://www.w3.org/2000/svg">
<path d="M18.4677 68.6118C19.9525 65.4581 23.1248 63.4453 26.6105 63.4453H65.4334C69.6232 63.4453 73.2588 66.3365 74.2023 70.4187L76.0566 78.442H13.8398L18.4677 68.6118Z" fill="#002680"/>
<path d="M40.6527 46.6992H52.3055L53.2547 65.867C48.7042 68.0328 44.3491 68.2501 39.7988 65.867L40.6527 46.6992Z" fill="#CBD5E0"/>
<path d="M62.1954 40.2819C58.71 50.396 47.3544 57.5792 39.4019 54.8387C31.4494 52.0981 27.8281 41.6774 31.3136 31.5632C34.799 21.4491 44.0714 15.4717 52.0239 18.2122C59.9764 20.9527 65.6809 30.1678 62.1954 40.2819Z" fill="#E2E8F0"/>
<path d="M54.287 30.5259C51.2105 27.7892 54.0124 23 54.0124 23C54.0124 23 48.3835 20.3028 44.5356 20.8107C40.0838 21.3982 37.4565 23.045 34.5094 26.4208C32.9157 28.2464 31.3505 31.7574 31.3505 31.7574C31.3505 31.7574 29.3959 28.4929 29.9771 26.4208C30.5082 24.5271 33.4107 22.7263 33.4107 22.7263C33.4107 22.7263 33.0964 22.4443 32.8612 22.3158C31.8635 21.7709 29.9771 22.7263 29.9771 22.7263C29.9771 22.7263 32.176 17.9404 34.5094 15.611C38.1535 11.9732 41.3001 9.95433 46.4585 10.0008C51.52 10.0463 58.1328 14.6532 58.1328 14.6532C58.1328 14.6532 63.8193 19.1987 65.9614 22.7263C70.3906 30.0202 62.6652 43.5251 62.6652 43.5251C62.6652 43.5251 61.3985 43.5642 59.8877 45.6167C58.3769 47.6692 58.1328 47.5781 58.1328 47.5781C58.1328 47.5781 56.438 42.2404 58.1328 41.3357C59.4093 40.6543 59.9406 41.3431 61.017 40.3779C62.213 39.3055 61.8411 38.8338 61.8411 37.2307C61.8411 35.9482 62.6963 34.9052 61.8411 33.9467C60.879 32.8683 59.0949 32.8683 58.1328 33.9467C57.2776 34.9052 58.1328 37.2307 58.1328 37.2307H54.287C55.5689 36.136 57.3635 33.2625 54.287 30.5259Z" fill="#171923"/>
<path d="M20.7456 28.9721C20.8225 26.7643 22.6746 25.0369 24.8824 25.1138L49.033 25.955C51.2408 26.0319 52.9682 27.884 52.8913 30.0918L52.5466 39.9867C52.4697 42.1945 50.6176 43.9219 48.4098 43.845L24.2592 43.0038C22.0514 42.9269 20.324 41.0747 20.4009 38.8669L20.7456 28.9721Z" fill="#171923"/>
<path d="M55.99 33.3595L50.2647 33.16C48.9352 33.1137 47.8199 34.1539 47.7736 35.4834C47.7273 36.8129 48.7675 37.9282 50.097 37.9745L55.8223 38.1739C57.1518 38.2202 58.2671 37.18 58.3134 35.8505C58.3597 34.5211 57.3195 33.4058 55.99 33.3595Z" fill="#171923"/>
<path d="M21.382 29.9174C21.4589 27.7096 23.311 25.9822 25.5188 26.0591L44.5829 26.7231C45.7433 26.7636 46.7907 27.4657 47.1898 28.5561C48.8981 33.2241 48.6957 36.4591 46.7298 41.131C46.2653 42.2349 45.1461 42.9054 43.9492 42.8637L24.9565 42.2021C22.7487 42.1252 21.0213 40.2731 21.0982 38.0653L21.382 29.9174Z" fill="#2D3748"/>
<path d="M21.6811 30.6674C21.758 28.4596 23.6101 26.7322 25.8179 26.8091L42.0608 27.3749C43.392 27.4212 44.5493 28.3379 44.8084 29.6444C45.5671 33.4706 45.4216 36.2889 44.4225 40.1078C44.0795 41.4191 42.8479 42.2839 41.4933 42.2367L25.3002 41.6727C23.0924 41.5958 21.365 39.7436 21.4419 37.5358L21.6811 30.6674Z" fill="#718096"/>
<path d="M58.8371 32.3628L58.0919 32.3369C56.4361 32.2792 55.047 33.5748 54.9893 35.2306L54.9664 35.8873C54.9088 37.5432 56.2043 38.9323 57.8602 38.99L58.6054 39.0159C60.2612 39.0736 61.6503 37.778 61.708 36.1222L61.7309 35.4654C61.7886 33.8096 60.493 32.4205 58.8371 32.3628Z" fill="#2D3748"/>
</svg>
