<svg width="63" height="63" viewBox="0 0 63 63" fill="none" xmlns="http://www.w3.org/2000/svg">
<path d="M27.119 19.19C26.8134 19.1757 26.5109 19.257 26.2536 19.4226C25.9963 19.5882 25.7969 19.8299 25.6833 20.114C25.5696 20.3981 25.5473 20.7105 25.6195 21.0079C25.6916 21.3053 25.8545 21.5728 26.0857 21.7733L26.4732 22.135C25.6579 23.0808 25.1213 24.2345 24.9232 25.4675C24.8984 25.6738 24.9153 25.8831 24.973 26.0828C25.0307 26.2825 25.128 26.4686 25.259 26.63C25.3963 26.7908 25.5665 26.9201 25.7582 27.0093C25.9499 27.0984 26.1585 27.1453 26.3699 27.1466H36.8324C37.0401 27.1414 37.2443 27.0923 37.4317 27.0025C37.619 26.9127 37.7852 26.7843 37.9194 26.6257C38.0536 26.4671 38.1528 26.2819 38.2103 26.0823C38.2678 25.8827 38.2824 25.6731 38.2532 25.4675C38.1247 24.2159 37.6305 23.03 36.8324 22.0575L37.2199 21.67C37.3574 21.5353 37.4666 21.3745 37.5411 21.197C37.6157 21.0196 37.6541 20.8291 37.6541 20.6366C37.6541 20.4442 37.6157 20.2536 37.5411 20.0762C37.4666 19.8988 37.3574 19.738 37.2199 19.6033C36.9456 19.3396 36.5799 19.1924 36.1995 19.1924C35.819 19.1924 35.4533 19.3396 35.179 19.6033L34.4815 20.275C33.5899 19.8663 32.6207 19.6547 31.6399 19.6547C30.6591 19.6547 29.6898 19.8663 28.7982 20.275L28.1007 19.6033C27.97 19.4691 27.8131 19.3632 27.6398 19.2921C27.4665 19.221 27.2805 19.1863 27.0932 19.19H27.119Z" fill="white"/>
<path d="M19.5755 6.47998C18.3742 6.48681 17.2243 6.96884 16.3772 7.82077C15.5301 8.67269 15.0547 9.82526 15.0547 11.0266V51.2233C15.0547 52.4247 15.5301 53.5773 16.3772 54.4292C17.2243 55.2811 18.3742 55.7632 19.5755 55.77H43.7555C44.9569 55.7632 46.1067 55.2811 46.9538 54.4292C47.8009 53.5773 48.2764 52.4247 48.2764 51.2233V11.0266C48.2764 9.82526 47.8009 8.67269 46.9538 7.82077C46.1067 6.96884 44.9569 6.48681 43.7555 6.47998H19.5755ZM19.1105 9.06331H44.2205C44.4441 9.05629 44.6669 9.09473 44.8752 9.1763C45.0835 9.25787 45.2731 9.38087 45.4325 9.53786C45.5919 9.69485 45.7178 9.88256 45.8026 10.0896C45.8873 10.2967 45.9291 10.5188 45.9255 10.7425V51.6366C45.9291 51.8603 45.8873 52.0825 45.8026 52.2895C45.7178 52.4966 45.5919 52.6843 45.4325 52.8413C45.2731 52.9983 45.0835 53.1213 44.8752 53.2028C44.6669 53.2844 44.4441 53.3228 44.2205 53.3158H19.1105C18.8869 53.3228 18.6642 53.2844 18.4559 53.2028C18.2475 53.1213 18.0579 52.9983 17.8985 52.8413C17.7391 52.6843 17.6132 52.4966 17.5285 52.2895C17.4437 52.0825 17.4019 51.8603 17.4055 51.6366V10.6133C17.4019 10.3896 17.4437 10.1675 17.5285 9.96045C17.6132 9.75339 17.7391 9.56568 17.8985 9.40869C18.0579 9.2517 18.2475 9.1287 18.4559 9.04713C18.6642 8.96556 18.8869 8.92713 19.1105 8.93415V9.06331ZM28.4364 11.13C28.0651 11.1299 27.7033 11.2475 27.403 11.4658C27.274 11.5674 27.1698 11.6968 27.0981 11.8445C27.0264 11.9922 26.9892 12.1542 26.9892 12.3183C26.9892 12.4825 27.0264 12.6445 27.0981 12.7921C27.1698 12.9398 27.274 13.0693 27.403 13.1708C27.7033 13.3891 28.0651 13.5067 28.4364 13.5066H34.8947C35.0679 13.5245 35.2428 13.5078 35.4095 13.4576C35.5762 13.4074 35.7313 13.3246 35.8658 13.2141C36.0003 13.1036 36.1116 12.9676 36.1932 12.8138C36.2749 12.6601 36.3252 12.4916 36.3414 12.3183C36.3022 11.9709 36.1292 11.6525 35.8591 11.4306C35.589 11.2087 35.243 11.1009 34.8947 11.13H28.4364ZM31.6655 22.5483C32.7169 22.515 33.7533 22.8034 34.6364 23.375L34.843 23.5041C35.2678 23.8156 35.6424 24.1902 35.9539 24.615H27.3772C27.6681 24.2209 28.0164 23.8726 28.4105 23.5816C28.5511 23.514 28.6815 23.427 28.798 23.3233C29.6626 22.802 30.656 22.5335 31.6655 22.5483ZM22.4947 28.2316C22.1393 28.239 21.799 28.3769 21.5389 28.6191C21.29 28.8751 21.151 29.218 21.1514 29.575V34.7416C21.0942 34.9416 21.0843 35.152 21.1224 35.3564C21.1604 35.5608 21.2454 35.7536 21.3706 35.9196C21.4958 36.0856 21.6578 36.2202 21.8439 36.313C22.03 36.4057 22.2351 36.454 22.443 36.454C22.6509 36.454 22.856 36.4057 23.0421 36.313C23.2282 36.2202 23.3902 36.0856 23.5154 35.9196C23.6407 35.7536 23.7256 35.5608 23.7637 35.3564C23.8017 35.152 23.7918 34.9416 23.7347 34.7416V29.575C23.7357 29.2359 23.6084 28.909 23.3784 28.6598C23.1485 28.4107 22.8328 28.2577 22.4947 28.2316ZM26.318 27.9475C25.9343 27.9475 25.5664 28.0999 25.2951 28.3712C25.0238 28.6425 24.8714 29.0105 24.8714 29.3941V38.6683C24.8714 39.052 25.0238 39.42 25.2951 39.6913C25.5664 39.9626 25.9343 40.115 26.318 40.115H27.1189V42.6983C27.1195 42.8911 27.1587 43.0819 27.2341 43.2593C27.3095 43.4368 27.4196 43.5974 27.558 43.7316C27.8287 43.9931 28.1892 44.141 28.5655 44.145C28.9492 44.145 29.3172 43.9926 29.5885 43.7213C29.8598 43.45 30.0122 43.082 30.0122 42.6983V40.115H33.293V42.6983C33.293 43.082 33.4454 43.45 33.7167 43.7213C33.988 43.9926 34.356 44.145 34.7397 44.145C35.116 44.141 35.4765 43.9931 35.7472 43.7316C35.8856 43.5974 35.9957 43.4368 36.0711 43.2593C36.1465 43.0819 36.1857 42.8911 36.1864 42.6983V40.115H36.9872C37.1772 40.115 37.3653 40.0776 37.5408 40.0049C37.7163 39.9322 37.8758 39.8256 38.0101 39.6913C38.1445 39.5569 38.251 39.3974 38.3237 39.2219C38.3964 39.0464 38.4339 38.8583 38.4339 38.6683V29.3941C38.4339 29.2042 38.3964 29.016 38.3237 28.8405C38.251 28.665 38.1445 28.5055 38.0101 28.3712C37.8758 28.2369 37.7163 28.1303 37.5408 28.0576C37.3653 27.9849 37.1772 27.9475 36.9872 27.9475H26.318ZM40.9397 27.9475C40.7585 27.9495 40.5797 27.9897 40.415 28.0654C40.2504 28.141 40.1035 28.2505 39.9839 28.3866C39.8556 28.5204 39.7552 28.6784 39.6887 28.8514C39.6222 29.0244 39.5908 29.2089 39.5964 29.3941V34.9225C39.5919 35.3032 39.7301 35.6719 39.9839 35.9558C40.107 36.0856 40.2552 36.1889 40.4195 36.2595C40.5838 36.3301 40.7608 36.3666 40.9397 36.3666C41.1185 36.3666 41.2955 36.3301 41.4599 36.2595C41.6242 36.1889 41.7724 36.0856 41.8955 35.9558C42.1492 35.6719 42.2875 35.3032 42.283 34.9225V29.3941C42.2886 29.2089 42.2572 29.0244 42.1907 28.8514C42.1241 28.6784 42.0238 28.5204 41.8955 28.3866C41.7759 28.2505 41.629 28.141 41.4643 28.0654C41.2997 27.9897 41.1209 27.9495 40.9397 27.9475ZM30.4255 48.6142C30.0469 48.6212 29.6821 48.7579 29.3922 49.0016C29.2639 49.1206 29.1611 49.2644 29.0901 49.4242C29.019 49.5841 28.9812 49.7567 28.9789 49.9316C28.9816 50.1027 29.0198 50.2714 29.0909 50.427C29.1621 50.5826 29.2646 50.7218 29.3922 50.8358C29.6761 51.0895 30.0448 51.2278 30.4255 51.2233H33.0089C33.1941 51.2289 33.3786 51.1975 33.5516 51.131C33.7246 51.0644 33.8826 50.9641 34.0164 50.8358C34.1512 50.7263 34.2604 50.5887 34.3362 50.4324C34.4121 50.2762 34.4528 50.1053 34.4555 49.9316C34.4531 49.7542 34.4127 49.5794 34.3369 49.419C34.2611 49.2585 34.1518 49.1162 34.0164 49.0016C33.739 48.7539 33.3807 48.6161 33.0089 48.6142H30.4255Z" fill="white"/>
<path d="M28.4374 11.0009C28.0661 11.0008 27.7044 11.1184 27.4041 11.3367C27.2751 11.4382 27.1708 11.5677 27.0992 11.7154C27.0275 11.8631 26.9902 12.0251 26.9902 12.1892C26.9902 12.3534 27.0275 12.5154 27.0992 12.663C27.1708 12.8107 27.2751 12.9402 27.4041 13.0417C27.7044 13.26 28.0661 13.3776 28.4374 13.3775H34.8957C35.0689 13.3954 35.2439 13.3787 35.4106 13.3285C35.5773 13.2783 35.7323 13.1955 35.8669 13.085C36.0014 12.9745 36.1127 12.8385 36.1943 12.6847C36.2759 12.531 36.3262 12.3625 36.3424 12.1892C36.3033 11.8418 36.1303 11.5234 35.8602 11.3015C35.5901 11.0796 35.2441 10.9718 34.8957 11.0009H28.4374Z" fill="white"/>
<path d="M30.4252 48.64C30.0533 48.642 29.695 48.7798 29.4177 49.0275C29.2822 49.1421 29.1729 49.2844 29.0971 49.4448C29.0214 49.6053 28.9809 49.7801 28.9785 49.9575C28.9812 50.1312 29.0219 50.3021 29.0978 50.4583C29.1737 50.6145 29.2829 50.7522 29.4177 50.8617C29.5515 50.99 29.7094 51.0903 29.8824 51.1568C30.0554 51.2234 30.2399 51.2548 30.4252 51.2492H33.0085C33.3893 51.2536 33.7579 51.1154 34.0418 50.8617C34.1694 50.7476 34.272 50.6084 34.3431 50.4528C34.4142 50.2972 34.4524 50.1286 34.4552 49.9575C34.4529 49.7826 34.415 49.61 34.344 49.4501C34.2729 49.2902 34.1701 49.1465 34.0418 49.0275C33.752 48.7838 33.3872 48.647 33.0085 48.64H30.4252Z" fill="white"/>
<path d="M27.119 19.19C26.8134 19.1757 26.5109 19.257 26.2536 19.4226C25.9963 19.5882 25.7969 19.8299 25.6833 20.114C25.5696 20.3981 25.5473 20.7105 25.6195 21.0079C25.6916 21.3053 25.8545 21.5728 26.0857 21.7733L26.4732 22.135C25.6579 23.0808 25.1213 24.2345 24.9232 25.4675C24.8984 25.6738 24.9153 25.8831 24.973 26.0828C25.0307 26.2825 25.128 26.4686 25.259 26.63C25.3963 26.7908 25.5665 26.9201 25.7582 27.0093C25.9499 27.0984 26.1585 27.1453 26.3699 27.1466H36.8324C37.0401 27.1414 37.2443 27.0923 37.4317 27.0025C37.619 26.9127 37.7852 26.7843 37.9194 26.6257C38.0536 26.4671 38.1528 26.2819 38.2103 26.0823C38.2678 25.8827 38.2824 25.6731 38.2532 25.4675C38.1247 24.2159 37.6305 23.03 36.8324 22.0575L37.2199 21.67C37.3574 21.5353 37.4666 21.3745 37.5411 21.197C37.6157 21.0196 37.6541 20.8291 37.6541 20.6366C37.6541 20.4442 37.6157 20.2536 37.5411 20.0762C37.4666 19.8988 37.3574 19.738 37.2199 19.6033C36.9456 19.3396 36.5799 19.1924 36.1995 19.1924C35.819 19.1924 35.4533 19.3396 35.179 19.6033L34.4815 20.275C33.5899 19.8663 32.6207 19.6547 31.6399 19.6547C30.6591 19.6547 29.6898 19.8663 28.7982 20.275L28.1007 19.6033C27.97 19.4691 27.8131 19.3632 27.6398 19.2921C27.4665 19.221 27.2805 19.1863 27.0932 19.19H27.119Z" fill="white"/>
<path d="M31.6653 22.5484C32.7166 22.5151 33.7531 22.8035 34.6361 23.375L34.8428 23.5042C35.2675 23.8157 35.6421 24.1903 35.9536 24.615H27.377C27.6679 24.221 28.0162 23.8726 28.4103 23.5817C28.5508 23.514 28.6812 23.4271 28.7978 23.3234C29.6624 22.802 30.6558 22.5335 31.6653 22.5484Z" fill="white"/>
<path d="M22.4946 28.2317C22.1392 28.239 21.799 28.377 21.5388 28.6192C21.29 28.8751 21.1509 29.2181 21.1513 29.575V34.7417C21.0942 34.9416 21.0842 35.1521 21.1223 35.3565C21.1603 35.5609 21.2453 35.7537 21.3705 35.9196C21.4957 36.0856 21.6578 36.2203 21.8439 36.313C22.0299 36.4057 22.235 36.454 22.4429 36.454C22.6509 36.454 22.8559 36.4057 23.042 36.313C23.2281 36.2203 23.3902 36.0856 23.5154 35.9196C23.6406 35.7537 23.7256 35.5609 23.7636 35.3565C23.8016 35.1521 23.7917 34.9416 23.7346 34.7417V29.575C23.7356 29.2359 23.6084 28.909 23.3784 28.6599C23.1484 28.4107 22.8327 28.2578 22.4946 28.2317Z" fill="white"/>
<path d="M40.9397 27.9475C40.7585 27.9496 40.5797 27.9897 40.415 28.0654C40.2503 28.141 40.1034 28.2505 39.9838 28.3867C39.8556 28.5204 39.7552 28.6784 39.6887 28.8514C39.6222 29.0244 39.5908 29.2089 39.5963 29.3942V34.9225C39.5919 35.3033 39.7301 35.6719 39.9838 35.9558C40.1069 36.0856 40.2552 36.1889 40.4195 36.2596C40.5838 36.3302 40.7608 36.3666 40.9397 36.3666C41.1185 36.3666 41.2955 36.3302 41.4598 36.2596C41.6242 36.1889 41.7724 36.0856 41.8955 35.9558C42.1492 35.6719 42.2875 35.3033 42.283 34.9225V29.3942C42.2886 29.2089 42.2572 29.0244 42.1907 28.8514C42.1241 28.6784 42.0238 28.5204 41.8955 28.3867C41.7759 28.2505 41.629 28.141 41.4643 28.0654C41.2996 27.9897 41.1209 27.9496 40.9397 27.9475Z" fill="white"/>
<path d="M26.3178 27.9475C25.9341 27.9475 25.5661 28.0999 25.2948 28.3712C25.0235 28.6425 24.8711 29.0105 24.8711 29.3942V38.6683C24.8711 39.052 25.0235 39.42 25.2948 39.6913C25.5661 39.9626 25.9341 40.115 26.3178 40.115H27.1186V42.6983C27.1192 42.8912 27.1584 43.0819 27.2338 43.2594C27.3093 43.4368 27.4194 43.5974 27.5578 43.7317C27.8284 43.9931 28.1889 44.141 28.5653 44.145C28.9489 44.145 29.3169 43.9926 29.5882 43.7213C29.8595 43.45 30.0119 43.082 30.0119 42.6983V40.115H33.2928V42.6983C33.2928 43.082 33.4452 43.45 33.7165 43.7213C33.9878 43.9926 34.3557 44.145 34.7394 44.145C35.1157 44.141 35.4763 43.9931 35.7469 43.7317C35.8853 43.5974 35.9954 43.4368 36.0708 43.2594C36.1463 43.0819 36.1854 42.8912 36.1861 42.6983V40.115H36.9869C37.1769 40.115 37.365 40.0776 37.5405 40.0049C37.7161 39.9322 37.8755 39.8256 38.0099 39.6913C38.1442 39.557 38.2508 39.3975 38.3235 39.222C38.3962 39.0464 38.4336 38.8583 38.4336 38.6683V29.3942C38.4336 29.2042 38.3962 29.0161 38.3235 28.8406C38.2508 28.665 38.1442 28.5056 38.0099 28.3712C37.8755 28.2369 37.7161 28.1303 37.5405 28.0576C37.365 27.9849 37.1769 27.9475 36.9869 27.9475H26.3178Z" fill="white"/>
<path d="M36.2635 30.2725H27.041V37.8158H36.2635V30.2725Z" fill="white"/>
</svg>
