<svg id="Layer_1" data-name="Layer 1" xmlns="http://www.w3.org/2000/svg" viewBox="0 0 24 24"><defs><style>.cls-1{fill:#fff;}</style></defs><path class="cls-1" d="M20.71,18.27a.62.62,0,0,1-.29.13.33.33,0,0,1-.29-.13.41.41,0,0,1,0-.58l.29-.29h-7.3V10.84H12v10l.29-.29a.41.41,0,0,1,.58.58l-1.32,1.32L10.3,21.17a.41.41,0,0,1,.58-.58l.29.29v-10H10V17.4H3.64l.29.29a.41.41,0,0,1,0,.58.38.38,0,0,1-.29.13.33.33,0,0,1-.29-.13L2,17,3.25,15.7a.41.41,0,0,1,.58.58l-.29.29H9.2V10.85h-1v3.54h-2l.29.29a.41.41,0,0,1,0,.58.38.38,0,0,1-.29.13A.33.33,0,0,1,6,15.26L4.64,13.94l1.25-1.25a.41.41,0,0,1,.58.58l-.23.32H7.46V10.86H6.21a2.07,2.07,0,0,1-2-2.12,3.28,3.28,0,0,1,2-3.09A3,3,0,0,1,9.27,3a2.69,2.69,0,0,1,.74.1,2.93,2.93,0,0,1,2.57-1.51,3.19,3.19,0,0,1,3.05,3.28,3.8,3.8,0,0,1-.06.58h.35a3.19,3.19,0,0,1,3,3.28,2.05,2.05,0,0,1-2,2.12H15.73v2.73h2.09l-.29-.29a.41.41,0,0,1,.58-.58L19.36,14,18,15.28a.62.62,0,0,1-.29.13.33.33,0,0,1-.29-.13.41.41,0,0,1,0-.58l.29-.29H14.86V10.87h-1v5.72h6.56l-.29-.29a.41.41,0,0,1,.58-.58L22,17Z"/><path class="cls-1" d="M20.71,18.27a.62.62,0,0,1-.29.13.33.33,0,0,1-.29-.13.41.41,0,0,1,0-.58l.29-.29h-7.3V10.84H12v10l.29-.29a.41.41,0,0,1,.58.58l-1.32,1.32L10.3,21.17a.41.41,0,0,1,.58-.58l.29.29v-10H10V17.4H3.64l.29.29a.41.41,0,0,1,0,.58.38.38,0,0,1-.29.13.33.33,0,0,1-.29-.13L2,17,3.25,15.7a.41.41,0,0,1,.58.58l-.29.29H9.2V10.85h-1v3.54h-2l.29.29a.41.41,0,0,1,0,.58.38.38,0,0,1-.29.13A.33.33,0,0,1,6,15.26L4.64,13.94l1.25-1.25a.41.41,0,0,1,.58.58l-.23.32H7.46V10.86H6.21a2.07,2.07,0,0,1-2-2.12,3.28,3.28,0,0,1,2-3.09A3,3,0,0,1,9.27,3a2.69,2.69,0,0,1,.74.1,2.93,2.93,0,0,1,2.57-1.51,3.19,3.19,0,0,1,3.05,3.28,3.8,3.8,0,0,1-.06.58h.35a3.19,3.19,0,0,1,3,3.28,2.05,2.05,0,0,1-2,2.12H15.73v2.73h2.09l-.29-.29a.41.41,0,0,1,.58-.58L19.36,14,18,15.28a.62.62,0,0,1-.29.13.33.33,0,0,1-.29-.13.41.41,0,0,1,0-.58l.29-.29H14.86V10.87h-1v5.72h6.56l-.29-.29a.41.41,0,0,1,.58-.58L22,17Z"/></svg>