<svg id="Layer_1" data-name="Layer 1" xmlns="http://www.w3.org/2000/svg" viewBox="0 0 24 24"><defs><style>.cls-1{fill:#fff;}.cls-2{fill:#002680;}</style></defs><path class="cls-1" d="M12,6.09h-.62V5.54a.31.31,0,0,1,.62,0Z"/><path class="cls-1" d="M6.62,9.94a.31.31,0,0,0,.31.31h.32V10h0V9.63H6.93A.31.31,0,0,0,6.62,9.94Z"/><path class="cls-1" d="M10.19,4.13V6.38l.15-.13.18-.16h.29v-2a.83.83,0,0,0,.48-.54.79.79,0,0,0-.14-.71.84.84,0,0,0-.65-.32.81.81,0,0,0-.65.32.79.79,0,0,0-.14.71.81.81,0,0,0,.48.54Z"/><path class="cls-1" d="M13.13,3.13H14a.83.83,0,0,0,.54.48.79.79,0,0,0,.71-.14.84.84,0,0,0,.32-.65.81.81,0,0,0-.32-.65A.79.79,0,0,0,14.52,2a.81.81,0,0,0-.54.48H12.82a.31.31,0,0,0-.31.31V6.09h.62Z"/><path class="cls-1" d="M9,6.6a.31.31,0,0,0-.09-.22.26.26,0,0,0-.22-.1.31.31,0,0,0-.22.09.32.32,0,0,0-.09.23V7.73A3.46,3.46,0,0,0,9,7.37Z"/><path class="cls-1" d="M9.94,17.38a.31.31,0,0,0,.31-.31v-.15l-.62-.36v.51a.31.31,0,0,0,.31.31Z"/><path class="cls-1" d="M14.29,4.47a.82.82,0,0,0-.54.2.82.82,0,0,0-.14,1.07.85.85,0,0,0,.47.34A.83.83,0,0,0,14.66,6a.8.8,0,0,0,.39-.42h.23v2h0a2.43,2.43,0,0,0,.62.27V5.29A.31.31,0,0,0,15.59,5h-.54a.82.82,0,0,0-.76-.51Z"/><path class="cls-1" d="M17.38,14.06a.31.31,0,0,0-.31-.31h-.5a4.37,4.37,0,0,1-.17.62h.67a.31.31,0,0,0,.31-.31Z"/><path class="cls-1" d="M18.77,11.72h0a.31.31,0,0,0-.31-.31H16.75c0,.22,0,.42,0,.62h1.72a.31.31,0,0,0,.31-.31Z"/><path class="cls-1" d="M17.71,8.71h0a.31.31,0,0,0-.09-.22.36.36,0,0,0-.22-.09h-.65V9h.65a.31.31,0,0,0,.31-.31Z"/><path class="cls-1" d="M16.75,10.81h3.12a.83.83,0,0,0,.54.48.79.79,0,0,0,.71-.14.84.84,0,0,0,.32-.65.81.81,0,0,0-.32-.65.81.81,0,0,0-1.25.34H16.75v.62Z"/><path class="cls-1" d="M13.81,19.87v-3l-.23.13-.39.22v2.63a.83.83,0,0,0-.48.54.79.79,0,0,0,.14.71.84.84,0,0,0,.65.32.81.81,0,0,0,.65-.32.79.79,0,0,0,.14-.71.81.81,0,0,0-.48-.54Z"/><path class="cls-1" d="M12,18l0,0v.5a.31.31,0,0,0,.62,0V17.6l-.24.15Z"/><path class="cls-1" d="M10.87,20.87H10a.83.83,0,0,0-.54-.48.79.79,0,0,0-.71.14.84.84,0,0,0-.32.65.81.81,0,0,0,.32.65.79.79,0,0,0,.71.14.81.81,0,0,0,.54-.48h1.16a.31.31,0,0,0,.31-.31V17.65l-.62-.37Z"/><path class="cls-1" d="M18.37,13.47a.81.81,0,0,0-.65.32.79.79,0,0,0-.14.71.81.81,0,0,0,.48.54v.23H15.91a4.56,4.56,0,0,1-.93.88v1.24a.31.31,0,1,0,.62,0v-1.5h2.77a.31.31,0,0,0,.31-.31V15a.83.83,0,0,0,.48-.54.79.79,0,0,0-.14-.71.84.84,0,0,0-.65-.32Z"/><path class="cls-1" d="M21.49,14V12.81a.31.31,0,0,0-.31-.31H16.71c0,.22,0,.42-.05.62h4.21V14a.83.83,0,0,0-.48.54.79.79,0,0,0,.14.71.84.84,0,0,0,.65.32.81.81,0,0,0,.65-.32.79.79,0,0,0,.14-.71.83.83,0,0,0-.48-.54Z"/><path class="cls-1" d="M2.82,11.49H7.26v-.62H3.13V10a.83.83,0,0,0,.48-.54.79.79,0,0,0-.14-.71.84.84,0,0,0-.65-.32.81.81,0,0,0-.65.32A.79.79,0,0,0,2,9.48a.81.81,0,0,0,.48.54v1.16a.31.31,0,0,0,.31.31Z"/><path class="cls-1" d="M9.71,19.53a.82.82,0,0,0,.54-.2.82.82,0,0,0,.14-1.07.85.85,0,0,0-.47-.34.83.83,0,0,0-.58.06A.8.8,0,0,0,9,18.4H8.72V15.93A3.76,3.76,0,0,1,7.89,15H6.6a.31.31,0,1,0,0,.62H8.1v3.11a.31.31,0,0,0,.31.31H9a.84.84,0,0,0,.3.37.86.86,0,0,0,.46.14Z"/><path class="cls-1" d="M5.29,10.53A.82.82,0,0,0,5.6,9V8.72H7.25V8.1h-2A.31.31,0,0,0,5,8.41V9a.83.83,0,0,0-.48.54.82.82,0,0,0,.79,1Z"/><path class="cls-1" d="M7.34,13.19H4.13a.83.83,0,0,0-.54-.48.79.79,0,0,0-.71.14.84.84,0,0,0-.32.65.81.81,0,0,0,.32.65.79.79,0,0,0,.71.14.81.81,0,0,0,.54-.48H7.44c0-.19-.07-.4-.1-.62Z"/><path class="cls-1" d="M5.23,12.28a.31.31,0,0,0,.31.31H7.29c0-.2,0-.4,0-.62H5.55a.31.31,0,0,0-.22.09.29.29,0,0,0-.1.22Z"/><path class="cls-1" d="M12,6.09h-.62V5.54a.31.31,0,0,1,.62,0Z"/><path class="cls-1" d="M6.62,9.94a.31.31,0,0,0,.31.31h.32V10h0V9.63H6.93A.31.31,0,0,0,6.62,9.94Z"/><path class="cls-1" d="M10.19,4.13V6.38l.15-.13.18-.16h.29v-2a.83.83,0,0,0,.48-.54.79.79,0,0,0-.14-.71.84.84,0,0,0-.65-.32.81.81,0,0,0-.65.32.79.79,0,0,0-.14.71.81.81,0,0,0,.48.54Z"/><path class="cls-1" d="M9,6.6a.31.31,0,0,0-.09-.22.26.26,0,0,0-.22-.1.31.31,0,0,0-.22.09.32.32,0,0,0-.09.23V7.73A3.46,3.46,0,0,0,9,7.37Z"/><path class="cls-1" d="M9.94,17.38a.31.31,0,0,0,.31-.31v-.15l-.62-.36v.51a.31.31,0,0,0,.31.31Z"/><path class="cls-1" d="M14.29,4.47a.82.82,0,0,0-.54.2.82.82,0,0,0-.14,1.07.85.85,0,0,0,.47.34A.83.83,0,0,0,14.66,6a.8.8,0,0,0,.39-.42h.23v2h0a2.43,2.43,0,0,0,.62.27V5.29A.31.31,0,0,0,15.59,5h-.54a.82.82,0,0,0-.76-.51Z"/><path class="cls-1" d="M17.38,14.06a.31.31,0,0,0-.31-.31h-.5a4.37,4.37,0,0,1-.17.62h.67a.31.31,0,0,0,.31-.31Z"/><path class="cls-1" d="M18.77,11.72h0a.31.31,0,0,0-.31-.31H16.75c0,.22,0,.42,0,.62h1.72a.31.31,0,0,0,.31-.31Z"/><path class="cls-1" d="M17.71,8.71h0a.31.31,0,0,0-.09-.22.36.36,0,0,0-.22-.09h-.65V9h.65a.31.31,0,0,0,.31-.31Z"/><path class="cls-1" d="M16.75,10.81h3.12a.83.83,0,0,0,.54.48.79.79,0,0,0,.71-.14.84.84,0,0,0,.32-.65.81.81,0,0,0-.32-.65.81.81,0,0,0-1.25.34H16.75v.62Z"/><path class="cls-1" d="M13.81,19.87v-3l-.23.13-.39.22v2.63a.83.83,0,0,0-.48.54.79.79,0,0,0,.14.71.84.84,0,0,0,.65.32.81.81,0,0,0,.65-.32.79.79,0,0,0,.14-.71.81.81,0,0,0-.48-.54Z"/><path class="cls-1" d="M12,18l0,0v.5a.31.31,0,0,0,.62,0V17.6l-.24.15Z"/><path class="cls-1" d="M10.87,20.87H10a.83.83,0,0,0-.54-.48.79.79,0,0,0-.71.14.84.84,0,0,0-.32.65.81.81,0,0,0,.32.65.79.79,0,0,0,.71.14.81.81,0,0,0,.54-.48h1.16a.31.31,0,0,0,.31-.31V17.65l-.62-.37Z"/><path class="cls-1" d="M18.37,13.47a.81.81,0,0,0-.65.32.79.79,0,0,0-.14.71.81.81,0,0,0,.48.54v.23H15.91a4.56,4.56,0,0,1-.93.88v1.24a.31.31,0,1,0,.62,0v-1.5h2.77a.31.31,0,0,0,.31-.31V15a.83.83,0,0,0,.48-.54.79.79,0,0,0-.14-.71.84.84,0,0,0-.65-.32Z"/><path class="cls-1" d="M21.49,14V12.81a.31.31,0,0,0-.31-.31H16.71c0,.22,0,.42-.05.62h4.21V14a.83.83,0,0,0-.48.54.79.79,0,0,0,.14.71.84.84,0,0,0,.65.32.81.81,0,0,0,.65-.32.79.79,0,0,0,.14-.71.83.83,0,0,0-.48-.54Z"/><path class="cls-1" d="M2.82,11.49H7.26v-.62H3.13V10a.83.83,0,0,0,.48-.54.79.79,0,0,0-.14-.71.84.84,0,0,0-.65-.32.81.81,0,0,0-.65.32A.79.79,0,0,0,2,9.48a.81.81,0,0,0,.48.54v1.16a.31.31,0,0,0,.31.31Z"/><path class="cls-1" d="M9.71,19.53a.82.82,0,0,0,.54-.2.82.82,0,0,0,.14-1.07.85.85,0,0,0-.47-.34.83.83,0,0,0-.58.06A.8.8,0,0,0,9,18.4H8.72V15.93A3.76,3.76,0,0,1,7.89,15H6.6a.31.31,0,1,0,0,.62H8.1v3.11a.31.31,0,0,0,.31.31H9a.84.84,0,0,0,.3.37.86.86,0,0,0,.46.14Z"/><path class="cls-1" d="M5.29,10.53A.82.82,0,0,0,5.6,9V8.72H7.25V8.1h-2A.31.31,0,0,0,5,8.41V9a.83.83,0,0,0-.48.54.82.82,0,0,0,.79,1Z"/><path class="cls-1" d="M7.34,13.19H4.13a.83.83,0,0,0-.54-.48.79.79,0,0,0-.71.14.84.84,0,0,0-.32.65.81.81,0,0,0,.32.65.79.79,0,0,0,.71.14.81.81,0,0,0,.54-.48H7.44c0-.19-.07-.4-.1-.62Z"/><path class="cls-1" d="M5.23,12.28a.31.31,0,0,0,.31.31H7.29c0-.2,0-.4,0-.62H5.55a.31.31,0,0,0-.22.09.29.29,0,0,0-.1.22Z"/><path class="cls-1" d="M7.88,8.53a5.46,5.46,0,0,0,2.71-1.66l.17-.15h2.48l.17.15a5.41,5.41,0,0,0,2.71,1.66V10c0,2.25,0,3.6-.45,4.49a5.4,5.4,0,0,1-2.4,2c-.41.23-.83.47-1.27.75-.44-.28-.86-.52-1.27-.75a5.53,5.53,0,0,1-2.4-2c-.45-.89-.45-2.24-.45-4.49,0-.44,0-.94,0-1.47Z"/><path class="cls-2" d="M8.61,12.23A4.94,4.94,0,0,0,9,14.17a3.25,3.25,0,0,0,1.25,1.19l1,.61.6.34a.29.29,0,0,0,.31,0l.6-.34c.34-.19.69-.39,1-.61A3.25,3.25,0,0,0,15,14.17a4.91,4.91,0,0,0,.35-1.94c0-.87,0-1.76,0-2.62V9.3a.31.31,0,0,0-.2-.29A7.44,7.44,0,0,1,13,7.49h0a.24.24,0,0,0-.19-.07h-1.7a.32.32,0,0,0-.21.08A7.63,7.63,0,0,1,8.77,9h0a.31.31,0,0,0-.2.29v.31c0,.85,0,1.74,0,2.61Z"/><path class="cls-1" d="M9.51,13.88a2.71,2.71,0,0,0,1,.95c.33.21.68.4,1,.59l.45.26.45-.26,1-.59a2.64,2.64,0,0,0,1-.95,4.85,4.85,0,0,0,.28-1.68c0-.85,0-1.74,0-2.59v-.1A8.37,8.37,0,0,1,12.73,8H11.27A8.12,8.12,0,0,1,9.2,9.51v.1c0,.85,0,1.74,0,2.59a4.6,4.6,0,0,0,.28,1.68Z"/><path class="cls-1" d="M13.13,3.13H14a.83.83,0,0,0,.54.48.79.79,0,0,0,.71-.14.84.84,0,0,0,.32-.65.81.81,0,0,0-.32-.65A.79.79,0,0,0,14.52,2a.81.81,0,0,0-.54.48H12.82a.31.31,0,0,0-.31.31V6.09h.62Z"/></svg>