<svg id="Layer_1" data-name="Layer 1" xmlns="http://www.w3.org/2000/svg" viewBox="0 0 24 24"><defs><style>.cls-1{fill:#fff;}</style></defs><path class="cls-1" d="M15.08,3.13h-.55a.11.11,0,1,1,0-.22h.55a.1.1,0,0,1,.11.11A.11.11,0,0,1,15.08,3.13Z"/><path class="cls-1" d="M14.31,2.53a.18.18,0,0,1-.09,0,.15.15,0,0,1,0-.18l.4-.4s.11,0,.15,0a.15.15,0,0,1,0,.18l-.4.4S14.36,2.53,14.31,2.53Z"/><path class="cls-1" d="M14.69,4.16a.18.18,0,0,1-.09,0l-.4-.4a.15.15,0,0,1,0-.18.14.14,0,0,1,.18,0l.4.4a.15.15,0,0,1,0,.18s0,0-.09,0Z"/><path class="cls-1" d="M13.7,2.56V1.41a.11.11,0,0,0-.09-.11.11.11,0,0,0-.13,0,3,3,0,0,1-2.2.88H9.89a.51.51,0,0,0-.42.22H9.2a.15.15,0,0,0-.15.15v.88a.15.15,0,0,0,.15.15h.24a.75.75,0,0,0,.29.2l.73,1.92a.19.19,0,0,0,.18.13h.7a.22.22,0,0,0,.18-.11.23.23,0,0,0,0-.2l-.37-.42-.48-1.28h.64a3,3,0,0,1,2.2.88.18.18,0,0,0,.09,0h0s.09-.07.09-.11V3.55a.47.47,0,0,0,.37-.48.51.51,0,0,0-.38-.51Z"/><path class="cls-1" d="M15.08,3.13h-.55a.11.11,0,1,1,0-.22h.55a.1.1,0,0,1,.11.11A.11.11,0,0,1,15.08,3.13Z"/><path class="cls-1" d="M14.31,2.53a.18.18,0,0,1-.09,0,.15.15,0,0,1,0-.18l.4-.4s.11,0,.15,0a.15.15,0,0,1,0,.18l-.4.4S14.36,2.53,14.31,2.53Z"/><path class="cls-1" d="M14.69,4.16a.18.18,0,0,1-.09,0l-.4-.4a.15.15,0,0,1,0-.18.14.14,0,0,1,.18,0l.4.4a.15.15,0,0,1,0,.18s0,0-.09,0Z"/><path class="cls-1" d="M13.7,2.56V1.41a.11.11,0,0,0-.09-.11.11.11,0,0,0-.13,0,3,3,0,0,1-2.2.88H9.89a.51.51,0,0,0-.42.22H9.2a.15.15,0,0,0-.15.15v.88a.15.15,0,0,0,.15.15h.24a.75.75,0,0,0,.29.2l.73,1.92a.19.19,0,0,0,.18.13h.7a.22.22,0,0,0,.18-.11.23.23,0,0,0,0-.2l-.37-.42-.48-1.28h.64a3,3,0,0,1,2.2.88.18.18,0,0,0,.09,0h0s.09-.07.09-.11V3.55a.47.47,0,0,0,.37-.48.51.51,0,0,0-.38-.51Z"/><path class="cls-1" d="M3.45,15.84a9.45,9.45,0,0,1-.57-3.15A9.12,9.12,0,0,1,8.19,4.41v-1A10,10,0,0,0,2,12.67a9.49,9.49,0,0,0,.77,3.83Z"/><path class="cls-1" d="M21.1,12.67a9.82,9.82,0,0,1-.46,2.89l.7.7A9.78,9.78,0,0,0,22,12.67a10,10,0,0,0-6.34-9.32v1a9.15,9.15,0,0,1,5.44,8.35Z"/><path class="cls-1" d="M15.57,21.08a9.17,9.17,0,0,1-6.9.11L8,21.87a10.08,10.08,0,0,0,4,.84,9.65,9.65,0,0,0,4.23-.95Z"/><path class="cls-1" d="M21.54,18.24a2.48,2.48,0,0,0-4.8,1.28A2.39,2.39,0,0,0,17.8,21l-.66,1,2.62-.68a2.47,2.47,0,0,0,1.78-3ZM19.31,19.8H18v-.4h1.32ZM20.44,19H18v-.4h2.47V19Zm0-.75H18v-.4h2.47v.4Z"/><path class="cls-1" d="M21.54,18.24a2.48,2.48,0,0,0-4.8,1.28A2.39,2.39,0,0,0,17.8,21l-.66,1,2.62-.68a2.47,2.47,0,0,0,1.78-3ZM19.31,19.8H18v-.4h1.32ZM20.44,19H18v-.4h2.47V19Zm0-.75H18v-.4h2.47v.4Z"/><path class="cls-1" d="M2.66,18.33h.88v2.4H2.66Z"/><path class="cls-1" d="M4,18.3l1.3-1.48.55.11-.4,1.26H7.37l-.53,2.53H4"/><path class="cls-1" d="M2.66,18.33h.88v2.4H2.66Z"/><path class="cls-1" d="M4,18.3l1.3-1.48.55.11-.4,1.26H7.37l-.53,2.53H4"/><path class="cls-1" d="M16,8.72H8.17a1.65,1.65,0,0,0-1.56,1.72V15.2a1.65,1.65,0,0,0,1.56,1.72H16a1.65,1.65,0,0,0,1.56-1.72V10.44A1.65,1.65,0,0,0,16,8.72Zm-7.84.62H16a1,1,0,0,1,.95,1.1v.29H7.22v-.29a1,1,0,0,1,1-1.1Zm7.84,7H8.17a1,1,0,0,1-1-1.1V11.34H17v3.88a1,1,0,0,1-.95,1.1Z"/><path class="cls-1" d="M13.61,10a.37.37,0,0,1-.74,0,.37.37,0,0,1,.74,0"/><path class="cls-1" d="M14.78,10a.37.37,0,0,1-.37.37.37.37,0,1,1,.37-.37"/><path class="cls-1" d="M16,10a.37.37,0,0,1-.74,0A.37.37,0,0,1,16,10"/><path class="cls-1" d="M9.64,12.29h1.83v1.83H9.64Z"/><path class="cls-1" d="M9.64,14.76h4.89v.62H9.64Z"/><path class="cls-1" d="M12.09,12.29h2.44V13H12.09Z"/><path class="cls-1" d="M12.09,13.48h2.44v.66H12.09Z"/><path class="cls-1" d="M13.61,10a.37.37,0,0,1-.74,0,.37.37,0,0,1,.74,0"/><path class="cls-1" d="M14.78,10a.37.37,0,0,1-.37.37.37.37,0,1,1,.37-.37"/><path class="cls-1" d="M16,10a.37.37,0,0,1-.74,0A.37.37,0,0,1,16,10"/><path class="cls-1" d="M9.64,12.29h1.83v1.83H9.64Z"/><path class="cls-1" d="M9.64,14.76h4.89v.62H9.64Z"/><path class="cls-1" d="M12.09,12.29h2.44V13H12.09Z"/><path class="cls-1" d="M12.09,13.48h2.44v.66H12.09Z"/></svg>