<svg width="63" height="63" viewBox="0 0 63 63" fill="none" xmlns="http://www.w3.org/2000/svg">
<path d="M41.6647 38.1433C41.5099 37.9903 41.3011 37.9045 41.0834 37.9045C40.8658 37.9045 40.6569 37.9903 40.5022 38.1433L36.7822 42.07C36.7072 42.1444 36.6477 42.233 36.6071 42.3305C36.5664 42.428 36.5455 42.5327 36.5455 42.6383C36.5455 42.744 36.5664 42.8486 36.6071 42.9461C36.6477 43.0437 36.7072 43.1322 36.7822 43.2067L40.5022 47.1592C40.5767 47.2425 40.6684 47.3088 40.771 47.3534C40.8735 47.398 40.9845 47.4198 41.0963 47.4175C41.3039 47.4159 41.5046 47.3429 41.6647 47.2108C41.8193 47.0517 41.9058 46.8385 41.9058 46.6166C41.9058 46.3948 41.8193 46.1816 41.6647 46.0225L38.4613 42.6383L41.6647 39.3317C41.8193 39.1725 41.9058 38.9594 41.9058 38.7375C41.9058 38.5156 41.8193 38.3024 41.6647 38.1433ZM51.998 42.1217L48.278 38.195C48.2087 38.1028 48.121 38.0262 48.0203 37.97C47.9197 37.9138 47.8084 37.8792 47.6936 37.8685C47.5789 37.8579 47.4631 37.8713 47.3539 37.908C47.2446 37.9448 47.1442 38.0039 47.0592 38.0817C46.9741 38.1595 46.9063 38.2543 46.86 38.3599C46.8137 38.4655 46.7901 38.5795 46.7905 38.6948C46.7909 38.8101 46.8155 38.924 46.8626 39.0292C46.9096 39.1344 46.9782 39.2287 47.0638 39.3058L50.2672 42.69L47.0897 46.0742C46.9408 46.2362 46.8582 46.4483 46.8582 46.6683C46.8582 46.8884 46.9408 47.1004 47.0897 47.2625C47.2518 47.3911 47.4512 47.4636 47.658 47.4692C47.7734 47.4703 47.8879 47.448 47.9945 47.4036C48.1011 47.3592 48.1975 47.2936 48.278 47.2108L51.998 43.2583C52.073 43.1839 52.1325 43.0953 52.1731 42.9978C52.2137 42.9003 52.2346 42.7956 52.2346 42.69C52.2346 42.5843 52.2137 42.4797 52.1731 42.3822C52.1325 42.2846 52.073 42.1961 51.998 42.1217ZM45.488 37.9883C45.2725 37.9412 45.0471 37.9795 44.8592 38.0951C44.6713 38.2108 44.5356 38.3947 44.4805 38.6083L42.5947 46.3583C42.5681 46.4636 42.5631 46.5732 42.5802 46.6805C42.5973 46.7877 42.636 46.8904 42.694 46.9822C42.752 47.074 42.828 47.1531 42.9176 47.2146C43.0071 47.2761 43.1082 47.3188 43.2147 47.34H43.3955C43.5689 47.3666 43.7463 47.3354 43.9003 47.2514C44.0543 47.1674 44.1765 47.0352 44.248 46.875L46.1338 39.125C46.161 39.0198 46.1672 38.9103 46.1521 38.8028C46.1369 38.6952 46.1007 38.5917 46.0456 38.4981C45.9904 38.4045 45.9173 38.3228 45.8305 38.2574C45.7437 38.1921 45.6449 38.1446 45.5397 38.1175L45.488 37.9883ZM44.3513 31.1683C43.7366 31.1676 43.123 31.2194 42.5172 31.3233V21.0417C42.8803 21.0417 43.2285 20.8974 43.4853 20.6406C43.7421 20.3839 43.8863 20.0356 43.8863 19.6725V16.0558C43.8863 15.876 43.8509 15.698 43.7821 15.5319C43.7133 15.3657 43.6125 15.2148 43.4853 15.0877C43.3582 14.9605 43.2072 14.8597 43.0411 14.7909C42.875 14.7221 42.697 14.6867 42.5172 14.6867V8.74499C42.5172 7.64876 42.0817 6.59743 41.3065 5.82228C40.5314 5.04713 39.4801 4.61165 38.3838 4.61165H16.4772C15.9334 4.60822 15.3944 4.71279 14.8914 4.9193C14.3883 5.1258 13.9313 5.43013 13.5468 5.81463C13.1623 6.19913 12.858 6.65615 12.6515 7.15918C12.445 7.66221 12.3404 8.20123 12.3438 8.74499V54.005C12.3404 54.5487 12.445 55.0878 12.6515 55.5908C12.858 56.0938 13.1623 56.5508 13.5468 56.9353C13.9313 57.3198 14.3883 57.6242 14.8914 57.8307C15.3944 58.0372 15.9334 58.1418 16.4772 58.1383H38.4097C39.4901 58.1384 40.5272 57.7128 41.296 56.9536C42.0648 56.1944 42.5036 55.1629 42.5172 54.0825C43.1317 54.1865 43.7539 54.2383 44.3772 54.2375C47.3419 54.0971 50.1388 52.8206 52.1873 50.6728C54.2358 48.525 55.3786 45.671 55.3786 42.7029C55.3786 39.7348 54.2358 36.8808 52.1873 34.733C50.1388 32.5852 47.3419 31.3087 44.3772 31.1683H44.3513ZM40.8897 54.005C40.8897 54.6901 40.6175 55.3472 40.133 55.8317C39.6486 56.3161 38.9915 56.5883 38.3063 56.5883H16.4772C15.792 56.5883 15.1349 56.3161 14.6505 55.8317C14.166 55.3472 13.8938 54.6901 13.8938 54.005V13.6533H36.498C36.7172 13.6533 36.9275 13.5662 37.0825 13.4112C37.2376 13.2562 37.3247 13.0459 37.3247 12.8267C37.3247 12.6074 37.2376 12.3971 37.0825 12.2421C36.9275 12.0871 36.7172 12 36.498 12H13.9972V8.74499C13.9972 8.05984 14.2693 7.40276 14.7538 6.91829C15.2383 6.43383 15.8954 6.16165 16.5805 6.16165H38.513C39.1981 6.16165 39.8552 6.43383 40.3397 6.91829C40.8242 7.40276 41.0963 8.05984 41.0963 8.74499V31.7108C38.7566 32.4458 36.7125 33.9081 35.2613 35.8851C33.8101 37.8621 33.0276 40.2505 33.0276 42.7029C33.0276 45.1553 33.8101 47.5437 35.2613 49.5207C36.7125 51.4977 38.7566 52.96 41.0963 53.695L40.8897 54.005ZM44.3772 52.5841C42.4192 52.5893 40.5037 52.0133 38.8732 50.9293C37.2428 49.8452 35.9706 48.3017 35.2177 46.4943C34.4649 44.6868 34.2653 42.6966 34.6441 40.7756C35.023 38.8546 35.9633 37.0892 37.346 35.7029C38.7286 34.3166 40.4916 33.3717 42.4116 32.9879C44.3315 32.604 46.3222 32.7984 48.1317 33.5465C49.9411 34.2946 51.4879 35.5628 52.5762 37.1904C53.6646 38.8181 54.2455 40.732 54.2455 42.69C54.2387 45.3075 53.1977 47.8163 51.3492 49.6696C49.5007 51.5229 46.9947 52.5705 44.3772 52.5841ZM28.128 48.8642C27.5007 48.8693 26.8889 49.0599 26.3698 49.4122C25.8506 49.7644 25.4474 50.2624 25.2109 50.8435C24.9743 51.4245 24.9151 52.0626 25.0406 52.6772C25.1661 53.2919 25.4707 53.8557 25.9161 54.2975C26.3615 54.7393 26.9277 55.0393 27.5434 55.1599C28.159 55.2804 28.7966 55.216 29.3757 54.9747C29.9548 54.7335 30.4495 54.3262 30.7976 53.8043C31.1456 53.2823 31.3313 52.669 31.3313 52.0417C31.3246 51.2079 30.9904 50.4101 30.4008 49.8205C29.8112 49.231 29.0134 48.8967 28.1797 48.89L28.128 48.8642ZM32.8813 7.78915C32.5388 7.78915 32.2102 7.92524 31.968 8.16747C31.7257 8.40971 31.5897 8.73825 31.5897 9.08082C31.5897 9.42339 31.7257 9.75193 31.968 9.99417C32.2102 10.2364 32.5388 10.3725 32.8813 10.3725C33.2239 10.3725 33.5524 10.2364 33.7947 9.99417C34.0369 9.75193 34.173 9.42339 34.173 9.08082C34.173 8.73825 34.0369 8.40971 33.7947 8.16747C33.5524 7.92524 33.2239 7.78915 32.8813 7.78915Z" fill="white"/>
<path d="M41.666 38.1434C41.5112 37.9904 41.3024 37.9045 41.0847 37.9045C40.8671 37.9045 40.6583 37.9904 40.5035 38.1434L36.7835 42.0701C36.7085 42.1445 36.649 42.233 36.6084 42.3306C36.5678 42.4281 36.5469 42.5327 36.5469 42.6384C36.5469 42.7441 36.5678 42.8487 36.6084 42.9462C36.649 43.0437 36.7085 43.1323 36.7835 43.2067L40.5035 47.1592C40.578 47.2426 40.6697 47.3089 40.7723 47.3535C40.8749 47.3981 40.9859 47.4199 41.0977 47.4176C41.3052 47.4159 41.5059 47.343 41.666 47.2109C41.7457 47.1338 41.8091 47.0415 41.8523 46.9394C41.8956 46.8373 41.9179 46.7276 41.9179 46.6167C41.9179 46.5059 41.8956 46.3961 41.8523 46.294C41.8091 46.192 41.7457 46.0996 41.666 46.0226L38.4885 42.6384L41.666 39.3059C41.745 39.2311 41.8078 39.1409 41.8508 39.041C41.8938 38.9411 41.9159 38.8334 41.9159 38.7246C41.9159 38.6159 41.8938 38.5082 41.8508 38.4083C41.8078 38.3084 41.745 38.2182 41.666 38.1434Z" fill="white"/>
<path d="M51.9985 42.1217L48.2785 38.195C48.2093 38.1028 48.1215 38.0262 48.0209 37.97C47.9202 37.9138 47.8089 37.8792 47.6942 37.8685C47.5794 37.8579 47.4636 37.8713 47.3544 37.908C47.2451 37.9448 47.1447 38.0039 47.0597 38.0817C46.9746 38.1595 46.9068 38.2543 46.8605 38.3599C46.8143 38.4654 46.7906 38.5795 46.791 38.6948C46.7915 38.8101 46.816 38.924 46.8631 39.0292C46.9101 39.1344 46.9787 39.2287 47.0643 39.3058L50.2677 42.69L47.0902 46.0742C46.9355 46.2333 46.849 46.4464 46.849 46.6683C46.849 46.8902 46.9355 47.1034 47.0902 47.2625C47.2523 47.3911 47.4517 47.4636 47.6585 47.4692C47.774 47.4703 47.8885 47.448 47.995 47.4036C48.1016 47.3592 48.198 47.2936 48.2785 47.2108L51.9985 43.2583C52.0735 43.1839 52.133 43.0953 52.1736 42.9978C52.2142 42.9003 52.2351 42.7956 52.2351 42.69C52.2351 42.5843 52.2142 42.4797 52.1736 42.3822C52.133 42.2846 52.0735 42.1961 51.9985 42.1217Z" fill="white"/>
<path d="M32.8811 10.3209C33.5802 10.3209 34.1469 9.75412 34.1469 9.05502C34.1469 8.35592 33.5802 7.78918 32.8811 7.78918C32.182 7.78918 31.6152 8.35592 31.6152 9.05502C31.6152 9.75412 32.182 10.3209 32.8811 10.3209Z" fill="white"/>
<path d="M32.8821 9.44253C32.8324 9.44265 32.7831 9.43252 32.7375 9.41275C32.6918 9.39298 32.6507 9.364 32.6168 9.32763C32.5829 9.29126 32.5568 9.24828 32.5402 9.20138C32.5236 9.15447 32.5169 9.10465 32.5205 9.05503C32.5205 8.95911 32.5586 8.86712 32.6264 8.79929C32.6942 8.73146 32.7862 8.69336 32.8821 8.69336C32.9806 8.69314 33.0754 8.7304 33.1474 8.79758C33.2194 8.86475 33.2631 8.9568 33.2696 9.05503C33.2696 9.1578 33.2288 9.25636 33.1561 9.32903C33.0835 9.4017 32.9849 9.44253 32.8821 9.44253Z" fill="white"/>
<path d="M28.1282 48.8641C27.5009 48.8692 26.8891 49.0599 26.37 49.4122C25.8509 49.7644 25.4476 50.2624 25.2111 50.8435C24.9745 51.4245 24.9153 52.0626 25.0408 52.6772C25.1663 53.2919 25.471 53.8556 25.9163 54.2974C26.3617 54.7392 26.9279 55.0393 27.5436 55.1598C28.1593 55.2804 28.7968 55.2159 29.3759 54.9747C29.955 54.7335 30.4498 54.3262 30.7978 53.8042C31.1458 53.2823 31.3315 52.669 31.3316 52.0416C31.3248 51.2078 30.9906 50.4101 30.401 49.8205C29.8114 49.2309 29.0137 48.8967 28.1799 48.89L28.1282 48.8641Z" fill="white"/>
<path d="M28.1296 53.54C28.9714 53.54 29.6538 52.8576 29.6538 52.0159C29.6538 51.1741 28.9714 50.4917 28.1296 50.4917C27.2879 50.4917 26.6055 51.1741 26.6055 52.0159C26.6055 52.8576 27.2879 53.54 28.1296 53.54Z" fill="white"/>
</svg>
