<svg id="Layer_1" data-name="Layer 1" xmlns="http://www.w3.org/2000/svg" viewBox="0 0 24 24"><defs><style>.cls-1{fill:#fff;}</style></defs><path class="cls-1" d="M19.15,6H16.89V2.22a1.5,1.5,0,0,0-1.5-1.5H4.85a1.5,1.5,0,0,0-1.06.44,1.55,1.55,0,0,0-.45,1.06V21.79a1.5,1.5,0,0,0,1.5,1.5H15.38a1.5,1.5,0,0,0,1.5-1.5v-3h2.26a1.5,1.5,0,0,0,1.5-1.5V7.48a1.5,1.5,0,0,0-.44-1.06A1.46,1.46,0,0,0,19.15,6ZM12,1.46v.38a.38.38,0,0,1-.38.38h-3a.38.38,0,0,1-.38-.38V1.46Zm4.14,20.32a.75.75,0,0,1-.75.75H4.85a.75.75,0,0,1-.75-.75V2.22a.75.75,0,0,1,.75-.75H7.48v.38A1.13,1.13,0,0,0,8.61,3h3a1.13,1.13,0,0,0,1.13-1.13V1.46h2.63a.75.75,0,0,1,.75.75V6H6.36a1.5,1.5,0,0,0-1.06.44,1.55,1.55,0,0,0-.45,1.07v9.78a1.5,1.5,0,0,0,1.5,1.5h9.78Zm3.76-4.51a.75.75,0,0,1-.75.75H6.36a.75.75,0,0,1-.75-.75V7.48a.75.75,0,0,1,.75-.75H19.15a.75.75,0,0,1,.75.75Z"/><path class="cls-1" d="M10.23,12.64a.38.38,0,0,0,.53,0,.39.39,0,0,0,0-.53L9.15,10.48l1.62-1.62h0a.38.38,0,0,0,0-.53.39.39,0,0,0-.53,0L8.35,10.2a.39.39,0,0,0,0,.54Z"/><path class="cls-1" d="M15.28,8.35a.38.38,0,0,0-.53,0,.37.37,0,0,0,0,.52l1.62,1.62-1.62,1.62h0a.38.38,0,0,0,.54.54l1.88-1.88a.39.39,0,0,0,0-.54Z"/><path class="cls-1" d="M14,7.51a.37.37,0,0,0-.29,0,.41.41,0,0,0-.21.2L11.27,13a.37.37,0,0,0,.69.29L14.22,8a.37.37,0,0,0,0-.29.37.37,0,0,0-.19-.2Z"/><path class="cls-1" d="M11.62,14.63H7.11a.38.38,0,0,0,0,.76h4.52A.37.37,0,0,0,12,15,.39.39,0,0,0,11.62,14.63Z"/><path class="cls-1" d="M10.12,16.14h-3a.37.37,0,0,0-.37.38.38.38,0,0,0,.37.38h3a.37.37,0,0,0,.37-.38A.38.38,0,0,0,10.12,16.14Z"/><path class="cls-1" d="M10.23,12.64a.38.38,0,0,0,.53,0,.39.39,0,0,0,0-.53L9.15,10.48l1.62-1.62h0a.38.38,0,0,0,0-.53.39.39,0,0,0-.53,0L8.35,10.2a.39.39,0,0,0,0,.54Z"/><path class="cls-1" d="M15.28,8.35a.38.38,0,0,0-.53,0,.37.37,0,0,0,0,.52l1.62,1.62-1.62,1.62h0a.38.38,0,0,0,.54.54l1.88-1.88a.39.39,0,0,0,0-.54Z"/><path class="cls-1" d="M14,7.51a.37.37,0,0,0-.29,0,.41.41,0,0,0-.21.2L11.27,13a.37.37,0,0,0,.69.29L14.22,8a.37.37,0,0,0,0-.29.37.37,0,0,0-.19-.2Z"/><path class="cls-1" d="M11.62,14.63H7.11a.38.38,0,0,0,0,.76h4.52A.37.37,0,0,0,12,15,.39.39,0,0,0,11.62,14.63Z"/><path class="cls-1" d="M10.12,16.14h-3a.37.37,0,0,0-.37.38.38.38,0,0,0,.37.38h3a.37.37,0,0,0,.37-.38A.38.38,0,0,0,10.12,16.14Z"/><path class="cls-1" d="M8.61,21.78h3A.37.37,0,0,0,12,21.4a.38.38,0,0,0-.37-.38h-3a.37.37,0,0,0-.37.38A.38.38,0,0,0,8.61,21.78Z"/><path class="cls-1" d="M8.61,21.78h3A.37.37,0,0,0,12,21.4a.38.38,0,0,0-.37-.38h-3a.37.37,0,0,0-.37.38A.38.38,0,0,0,8.61,21.78Z"/></svg>