<svg width="62" height="63" viewBox="0 0 62 63" fill="none" xmlns="http://www.w3.org/2000/svg">
<path d="M44.5371 24.9684H47.5338C48.2384 24.9917 48.9315 25.1541 49.5731 25.4462C50.2147 25.7384 50.7922 26.1545 51.2724 26.6707C51.7526 27.1869 52.126 27.793 52.3711 28.454C52.6161 29.1151 52.7281 29.8181 52.7004 30.5225V42.7159C52.7004 42.7707 52.6787 42.8232 52.6399 42.862C52.6012 42.9008 52.5486 42.9225 52.4938 42.9225H49.9104V53.4367C49.9108 53.4941 49.8899 53.5497 49.8517 53.5926C49.8136 53.6355 49.7609 53.6628 49.7038 53.6692H44.5371V55.2709H49.7038C49.9434 55.2709 50.1807 55.2233 50.4018 55.1308C50.6229 55.0383 50.8234 54.9028 50.9917 54.7321C51.1599 54.5615 51.2926 54.359 51.3819 54.1367C51.4713 53.9143 51.5155 53.6763 51.5121 53.4367V44.55H52.4163C52.6559 44.5501 52.8932 44.5024 53.1143 44.41C53.3354 44.3175 53.5359 44.182 53.7042 44.0113C53.8724 43.8406 54.0051 43.6382 54.0944 43.4158C54.1838 43.1934 54.228 42.9555 54.2246 42.7159V30.5225C54.233 29.107 53.8388 27.7183 53.0879 26.5184C52.5072 25.5635 51.6922 24.7728 50.7201 24.2213C49.7481 23.6697 48.6513 23.3756 47.5338 23.3667H44.5371V24.9684Z" fill="white"/>
<path d="M45.9577 21.0416C46.5286 21.0383 47.0932 20.9217 47.6188 20.6985C48.1443 20.4753 48.6203 20.1501 49.0192 19.7416C49.4181 19.3331 49.7319 18.8494 49.9425 18.3187C50.1531 17.788 50.2563 17.2208 50.246 16.65V14.5316C50.2392 13.3964 49.7853 12.3096 48.9825 11.5068C48.1797 10.704 47.0929 10.2501 45.9577 10.2433H44.8985C43.7657 10.2501 42.6815 10.7049 41.8829 11.5084C41.0843 12.3119 40.636 13.3987 40.636 14.5316V16.65C40.6223 17.2196 40.7222 17.7862 40.9299 18.3168C41.1377 18.8474 41.449 19.3312 41.8459 19.7401C42.2427 20.1489 42.7171 20.4746 43.2412 20.6981C43.7653 20.9216 44.3287 21.0384 44.8985 21.0416H45.9577ZM42.2377 14.5316C42.2377 13.8465 42.5099 13.1894 42.9943 12.7049C43.4788 12.2205 44.1359 11.9483 44.821 11.9483H45.8802C46.5653 11.9483 47.2224 12.2205 47.7069 12.7049C48.1913 13.1894 48.4635 13.8465 48.4635 14.5316V16.65C48.4635 17.3351 48.1913 17.9922 47.7069 18.4766C47.2224 18.9611 46.5653 19.2333 45.8802 19.2333H44.821C44.1359 19.2333 43.4788 18.9611 42.9943 18.4766C42.5099 17.9922 42.2377 17.3351 42.2377 16.65V14.5316Z" fill="white"/>
<path d="M21.493 28.3783V41.7083C21.4895 41.9514 21.5345 42.1927 21.6251 42.4182C21.7157 42.6437 21.8503 42.849 22.021 43.022C22.1916 43.1951 22.395 43.3325 22.6192 43.4263C22.8434 43.5201 23.0841 43.5684 23.3271 43.5683H24.4638V53.4367C24.4604 53.6797 24.5053 53.921 24.5959 54.1465C24.6866 54.372 24.8211 54.5773 24.9918 54.7504C25.1625 54.9234 25.3658 55.0608 25.59 55.1546C25.8143 55.2484 26.0549 55.2967 26.298 55.2967H35.7013C35.9444 55.2967 36.185 55.2484 36.4092 55.1546C36.6335 55.0608 36.8368 54.9234 37.0075 54.7504C37.1781 54.5773 37.3127 54.372 37.4033 54.1465C37.494 53.921 37.5389 53.6797 37.5355 53.4367V43.5425H38.7496C38.9927 43.5425 39.2333 43.4942 39.4576 43.4005C39.6818 43.3067 39.8851 43.1693 40.0558 42.9962C40.2265 42.8231 40.361 42.6179 40.4517 42.3923C40.5423 42.1668 40.5872 41.9255 40.5838 41.6825V28.3783C40.6009 27.173 40.3366 25.9803 39.8119 24.895C39.2872 23.8098 38.5166 22.8619 37.5613 22.1267C36.3824 21.2019 34.9263 20.7014 33.428 20.7058H28.6488C27.1505 20.7014 25.6944 21.2019 24.5155 22.1267C23.5602 22.8619 22.7896 23.8098 22.2649 24.895C21.7402 25.9803 21.4759 27.173 21.493 28.3783ZM33.3505 22.3075C34.8878 22.3879 36.3319 23.0695 37.371 24.2053C38.4101 25.3411 38.961 26.8399 38.9046 28.3783V41.7083C38.9083 41.741 38.905 41.774 38.8949 41.8053C38.8849 41.8365 38.8684 41.8653 38.8464 41.8897C38.8244 41.9141 38.7975 41.9336 38.7675 41.9469C38.7375 41.9601 38.705 41.9669 38.6721 41.9667H35.9338V53.4367C35.9341 53.5009 35.9105 53.563 35.8675 53.6108C35.8245 53.6586 35.7652 53.6886 35.7013 53.695H26.298C26.234 53.6886 26.1748 53.6586 26.1318 53.6108C26.0888 53.563 26.0651 53.5009 26.0655 53.4367V41.9408H23.2496C23.2168 41.941 23.1843 41.9343 23.1543 41.921C23.1242 41.9078 23.0973 41.8883 23.0754 41.8639C23.0534 41.8395 23.0369 41.8107 23.0268 41.7794C23.0168 41.7482 23.0135 41.7151 23.0171 41.6825V28.3783C22.9608 26.8399 23.5116 25.3411 24.5508 24.2053C25.5899 23.0695 27.034 22.3879 28.5713 22.3075H33.3505Z" fill="white"/>
<path d="M31.594 19.3883C32.857 19.3815 34.066 18.8749 34.9567 17.9794C35.8474 17.0839 36.3474 15.8722 36.3473 14.6091V12.2583C36.3474 10.9952 35.8474 9.78354 34.9567 8.88801C34.066 7.99248 32.857 7.48595 31.594 7.47913H30.4057C29.1426 7.48595 27.9337 7.99248 27.043 8.88801C26.1523 9.78354 25.6523 10.9952 25.6523 12.2583V14.6091C25.6523 15.8722 26.1523 17.0839 27.043 17.9794C27.9337 18.8749 29.1426 19.3815 30.4057 19.3883H31.594ZM27.254 12.2583C27.254 11.42 27.5852 10.6157 28.1755 10.0205C28.7658 9.42539 29.5674 9.08761 30.4057 9.08079H31.594C32.4322 9.08761 33.2338 9.42539 33.8242 10.0205C34.4145 10.6157 34.7457 11.42 34.7457 12.2583V14.6091C34.7457 15.023 34.6642 15.4328 34.5058 15.8152C34.3474 16.1976 34.1152 16.545 33.8226 16.8377C33.5299 17.1304 33.1825 17.3625 32.8001 17.5209C32.4177 17.6793 32.0079 17.7608 31.594 17.7608H30.4057C29.5698 17.7608 28.7682 17.4287 28.1771 16.8377C27.5861 16.2466 27.254 15.445 27.254 14.6091V12.2583Z" fill="white"/>
<path d="M17.4626 24.9684H14.466C13.7613 24.9917 13.0683 25.1541 12.4267 25.4462C11.785 25.7384 11.2075 26.1545 10.7273 26.6707C10.2471 27.1869 9.87376 27.793 9.62869 28.454C9.38361 29.1151 9.27167 29.8181 9.2993 30.5225V42.7159C9.2993 42.7707 9.32107 42.8232 9.35983 42.862C9.39859 42.9008 9.45115 42.9225 9.50597 42.9225H12.0893V53.4367C12.0889 53.4941 12.1099 53.5497 12.148 53.5926C12.1862 53.6355 12.2389 53.6628 12.296 53.6692H17.4626V55.2709H12.296C12.0563 55.2709 11.819 55.2233 11.5979 55.1308C11.3768 55.0383 11.1763 54.9028 11.0081 54.7321C10.8398 54.5615 10.7071 54.359 10.6178 54.1367C10.5285 53.9143 10.4842 53.6763 10.4876 53.4367V44.55H9.6093C9.36964 44.5501 9.13236 44.5024 8.91126 44.41C8.69016 44.3175 8.48965 44.182 8.32139 44.0113C8.15313 43.8406 8.02047 43.6382 7.93113 43.4158C7.84179 43.1934 7.79754 42.9555 7.80097 42.7159V30.5225C7.7926 29.107 8.18681 27.7183 8.93763 26.5184C9.51609 25.5672 10.327 24.7789 11.2942 24.2275C12.2613 23.6762 13.3528 23.3799 14.466 23.3667H17.4626V24.9684Z" fill="white"/>
<path d="M16.0429 21.0416C15.472 21.0383 14.9074 20.9217 14.3818 20.6985C13.8563 20.4753 13.3803 20.1501 12.9814 19.7416C12.5825 19.3331 12.2687 18.8494 12.0581 18.3187C11.8475 17.788 11.7443 17.2208 11.7546 16.65V14.5316C11.7614 13.3964 12.2154 12.3096 13.0181 11.5068C13.8209 10.704 14.9077 10.2501 16.0429 10.2433H17.1021C18.235 10.2501 19.3191 10.7049 20.1177 11.5084C20.9164 12.3119 21.3646 13.3987 21.3646 14.5316V16.65C21.3783 17.2196 21.2784 17.7862 21.0707 18.3168C20.863 18.8474 20.5516 19.3312 20.1547 19.7401C19.7579 20.1489 19.2836 20.4746 18.7594 20.6981C18.2353 20.9216 17.6719 21.0384 17.1021 21.0416H16.0429ZM19.7629 14.5316C19.7629 13.8465 19.4908 13.1894 19.0063 12.7049C18.5218 12.2205 17.8647 11.9483 17.1796 11.9483H16.0429C15.3578 11.9483 14.7007 12.2205 14.2162 12.7049C13.7318 13.1894 13.4596 13.8465 13.4596 14.5316V16.65C13.4596 17.3351 13.7318 17.9922 14.2162 18.4766C14.7007 18.9611 15.3578 19.2333 16.0429 19.2333H17.1021C17.7872 19.2333 18.4443 18.9611 18.9288 18.4766C19.4133 17.9922 19.6854 17.3351 19.6854 16.65L19.7629 14.5316Z" fill="white"/>
<path d="M44.5371 24.9684H47.5338C48.2384 24.9917 48.9315 25.1541 49.5731 25.4462C50.2147 25.7384 50.7922 26.1545 51.2724 26.6707C51.7526 27.1869 52.126 27.793 52.3711 28.454C52.6161 29.1151 52.7281 29.8181 52.7004 30.5225V42.7159C52.7004 42.7707 52.6787 42.8232 52.6399 42.862C52.6012 42.9008 52.5486 42.9225 52.4938 42.9225H49.9104V53.4367C49.9108 53.4941 49.8899 53.5497 49.8517 53.5926C49.8136 53.6355 49.7609 53.6628 49.7038 53.6692H44.5371V55.2709H49.7038C49.9434 55.2709 50.1807 55.2233 50.4018 55.1308C50.6229 55.0383 50.8234 54.9028 50.9917 54.7321C51.1599 54.5615 51.2926 54.359 51.3819 54.1367C51.4713 53.9143 51.5155 53.6763 51.5121 53.4367V44.55H52.4163C52.6559 44.5501 52.8932 44.5024 53.1143 44.41C53.3354 44.3175 53.5359 44.182 53.7042 44.0113C53.8724 43.8406 54.0051 43.6382 54.0944 43.4158C54.1838 43.1934 54.228 42.9555 54.2246 42.7159V30.5225C54.233 29.107 53.8388 27.7183 53.0879 26.5184C52.5072 25.5635 51.6922 24.7728 50.7201 24.2213C49.7481 23.6697 48.6513 23.3756 47.5338 23.3667H44.5371V24.9684Z" fill="white"/>
<path d="M45.9577 21.0416C46.5286 21.0383 47.0932 20.9217 47.6188 20.6985C48.1443 20.4753 48.6203 20.1501 49.0192 19.7416C49.4181 19.3331 49.7319 18.8494 49.9425 18.3187C50.1531 17.788 50.2563 17.2208 50.246 16.65V14.5316C50.2392 13.3964 49.7853 12.3096 48.9825 11.5068C48.1797 10.704 47.0929 10.2501 45.9577 10.2433H44.8985C43.7657 10.2501 42.6815 10.7049 41.8829 11.5084C41.0843 12.3119 40.636 13.3987 40.636 14.5316V16.65C40.6223 17.2196 40.7222 17.7862 40.9299 18.3168C41.1377 18.8474 41.449 19.3312 41.8459 19.7401C42.2427 20.1489 42.7171 20.4746 43.2412 20.6981C43.7653 20.9216 44.3287 21.0384 44.8985 21.0416H45.9577ZM42.2377 14.5316C42.2377 13.8465 42.5099 13.1894 42.9943 12.7049C43.4788 12.2205 44.1359 11.9483 44.821 11.9483H45.8802C46.5653 11.9483 47.2224 12.2205 47.7069 12.7049C48.1913 13.1894 48.4635 13.8465 48.4635 14.5316V16.65C48.4635 17.3351 48.1913 17.9922 47.7069 18.4766C47.2224 18.9611 46.5653 19.2333 45.8802 19.2333H44.821C44.1359 19.2333 43.4788 18.9611 42.9943 18.4766C42.5099 17.9922 42.2377 17.3351 42.2377 16.65V14.5316Z" fill="white"/>
<path d="M21.493 28.3783V41.7083C21.4895 41.9514 21.5345 42.1927 21.6251 42.4182C21.7157 42.6437 21.8503 42.849 22.021 43.022C22.1916 43.1951 22.395 43.3325 22.6192 43.4263C22.8434 43.5201 23.0841 43.5684 23.3271 43.5683H24.4638V53.4367C24.4604 53.6797 24.5053 53.921 24.5959 54.1465C24.6866 54.372 24.8211 54.5773 24.9918 54.7504C25.1625 54.9234 25.3658 55.0608 25.59 55.1546C25.8143 55.2484 26.0549 55.2967 26.298 55.2967H35.7013C35.9444 55.2967 36.185 55.2484 36.4092 55.1546C36.6335 55.0608 36.8368 54.9234 37.0075 54.7504C37.1781 54.5773 37.3127 54.372 37.4033 54.1465C37.494 53.921 37.5389 53.6797 37.5355 53.4367V43.5425H38.7496C38.9927 43.5425 39.2333 43.4942 39.4576 43.4005C39.6818 43.3067 39.8851 43.1693 40.0558 42.9962C40.2265 42.8231 40.361 42.6179 40.4517 42.3923C40.5423 42.1668 40.5872 41.9255 40.5838 41.6825V28.3783C40.6009 27.173 40.3366 25.9803 39.8119 24.895C39.2872 23.8098 38.5166 22.8619 37.5613 22.1267C36.3824 21.2019 34.9263 20.7014 33.428 20.7058H28.6488C27.1505 20.7014 25.6944 21.2019 24.5155 22.1267C23.5602 22.8619 22.7896 23.8098 22.2649 24.895C21.7402 25.9803 21.4759 27.173 21.493 28.3783ZM33.3505 22.3075C34.8878 22.3879 36.3319 23.0695 37.371 24.2053C38.4101 25.3411 38.961 26.8399 38.9046 28.3783V41.7083C38.9083 41.741 38.905 41.774 38.8949 41.8053C38.8849 41.8365 38.8684 41.8653 38.8464 41.8897C38.8244 41.9141 38.7975 41.9336 38.7675 41.9469C38.7375 41.9601 38.705 41.9669 38.6721 41.9667H35.9338V53.4367C35.9341 53.5009 35.9105 53.563 35.8675 53.6108C35.8245 53.6586 35.7652 53.6886 35.7013 53.695H26.298C26.234 53.6886 26.1748 53.6586 26.1318 53.6108C26.0888 53.563 26.0651 53.5009 26.0655 53.4367V41.9408H23.2496C23.2168 41.941 23.1843 41.9343 23.1543 41.921C23.1242 41.9078 23.0973 41.8883 23.0754 41.8639C23.0534 41.8395 23.0369 41.8107 23.0268 41.7794C23.0168 41.7482 23.0135 41.7151 23.0171 41.6825V28.3783C22.9608 26.8399 23.5116 25.3411 24.5508 24.2053C25.5899 23.0695 27.034 22.3879 28.5713 22.3075H33.3505Z" fill="white"/>
<path d="M31.594 19.3883C32.857 19.3815 34.066 18.8749 34.9567 17.9794C35.8474 17.0839 36.3474 15.8722 36.3473 14.6091V12.2583C36.3474 10.9952 35.8474 9.78354 34.9567 8.88801C34.066 7.99248 32.857 7.48595 31.594 7.47913H30.4057C29.1426 7.48595 27.9337 7.99248 27.043 8.88801C26.1523 9.78354 25.6523 10.9952 25.6523 12.2583V14.6091C25.6523 15.8722 26.1523 17.0839 27.043 17.9794C27.9337 18.8749 29.1426 19.3815 30.4057 19.3883H31.594ZM27.254 12.2583C27.254 11.42 27.5852 10.6157 28.1755 10.0205C28.7658 9.42539 29.5674 9.08761 30.4057 9.08079H31.594C32.4322 9.08761 33.2338 9.42539 33.8242 10.0205C34.4145 10.6157 34.7457 11.42 34.7457 12.2583V14.6091C34.7457 15.023 34.6642 15.4328 34.5058 15.8152C34.3474 16.1976 34.1152 16.545 33.8226 16.8377C33.5299 17.1304 33.1825 17.3625 32.8001 17.5209C32.4177 17.6793 32.0079 17.7608 31.594 17.7608H30.4057C29.5698 17.7608 28.7682 17.4287 28.1771 16.8377C27.5861 16.2466 27.254 15.445 27.254 14.6091V12.2583Z" fill="white"/>
<path d="M17.4626 24.9684H14.466C13.7613 24.9917 13.0683 25.1541 12.4267 25.4462C11.785 25.7384 11.2075 26.1545 10.7273 26.6707C10.2471 27.1869 9.87376 27.793 9.62869 28.454C9.38361 29.1151 9.27167 29.8181 9.2993 30.5225V42.7159C9.2993 42.7707 9.32107 42.8232 9.35983 42.862C9.39859 42.9008 9.45115 42.9225 9.50597 42.9225H12.0893V53.4367C12.0889 53.4941 12.1099 53.5497 12.148 53.5926C12.1862 53.6355 12.2389 53.6628 12.296 53.6692H17.4626V55.2709H12.296C12.0563 55.2709 11.819 55.2233 11.5979 55.1308C11.3768 55.0383 11.1763 54.9028 11.0081 54.7321C10.8398 54.5615 10.7071 54.359 10.6178 54.1367C10.5285 53.9143 10.4842 53.6763 10.4876 53.4367V44.55H9.6093C9.36964 44.5501 9.13236 44.5024 8.91126 44.41C8.69016 44.3175 8.48965 44.182 8.32139 44.0113C8.15313 43.8406 8.02047 43.6382 7.93113 43.4158C7.84179 43.1934 7.79754 42.9555 7.80097 42.7159V30.5225C7.7926 29.107 8.18681 27.7183 8.93763 26.5184C9.51609 25.5672 10.327 24.7789 11.2942 24.2275C12.2613 23.6762 13.3528 23.3799 14.466 23.3667H17.4626V24.9684Z" fill="white"/>
<path d="M16.0429 21.0416C15.472 21.0383 14.9074 20.9217 14.3818 20.6985C13.8563 20.4753 13.3803 20.1501 12.9814 19.7416C12.5825 19.3331 12.2687 18.8494 12.0581 18.3187C11.8475 17.788 11.7443 17.2208 11.7546 16.65V14.5316C11.7614 13.3964 12.2154 12.3096 13.0181 11.5068C13.8209 10.704 14.9077 10.2501 16.0429 10.2433H17.1021C18.235 10.2501 19.3191 10.7049 20.1177 11.5084C20.9164 12.3119 21.3646 13.3987 21.3646 14.5316V16.65C21.3783 17.2196 21.2784 17.7862 21.0707 18.3168C20.863 18.8474 20.5516 19.3312 20.1547 19.7401C19.7579 20.1489 19.2836 20.4746 18.7594 20.6981C18.2353 20.9216 17.6719 21.0384 17.1021 21.0416H16.0429ZM19.7629 14.5316C19.7629 13.8465 19.4908 13.1894 19.0063 12.7049C18.5218 12.2205 17.8647 11.9483 17.1796 11.9483H16.0429C15.3578 11.9483 14.7007 12.2205 14.2162 12.7049C13.7318 13.1894 13.4596 13.8465 13.4596 14.5316V16.65C13.4596 17.3351 13.7318 17.9922 14.2162 18.4766C14.7007 18.9611 15.3578 19.2333 16.0429 19.2333H17.1021C17.7872 19.2333 18.4443 18.9611 18.9288 18.4766C19.4133 17.9922 19.6854 17.3351 19.6854 16.65L19.7629 14.5316Z" fill="white"/>
</svg>
