<svg id="Layer_1" data-name="Layer 1" xmlns="http://www.w3.org/2000/svg" viewBox="0 0 24 24"><defs><style>.cls-1{fill:#fff;}</style></defs><path class="cls-1" d="M12.37,17.87a.44.44,0,1,1-.44-.44.44.44,0,0,1,.44.44"/><path class="cls-1" d="M16.07,10.35h1.1a.22.22,0,0,0,0-.44h-1.1a.22.22,0,0,0-.22.22A.22.22,0,0,0,16.07,10.35Z"/><path class="cls-1" d="M17.82,10.35h.88a.22.22,0,1,0,0-.44h-.88a.22.22,0,0,0,0,.44Z"/><path class="cls-1" d="M16.07,11.23h2.2a.22.22,0,0,0,0-.44h-2.2a.22.22,0,0,0-.22.22A.22.22,0,0,0,16.07,11.23Z"/><path class="cls-1" d="M19.36,10.79h-.44a.22.22,0,0,0,0,.44h.44a.22.22,0,0,0,0-.44Z"/><path class="cls-1" d="M16.07,12.11h.66a.22.22,0,0,0,0-.44h-.66a.22.22,0,0,0-.22.22A.22.22,0,0,0,16.07,12.11Z"/><path class="cls-1" d="M17.16,11.89a.22.22,0,0,0,.22.22h1.76a.22.22,0,0,0,0-.44H17.38a.22.22,0,0,0-.22.22Z"/><path class="cls-1" d="M16.07,13H17a.22.22,0,0,0,0-.44h-.88a.22.22,0,0,0-.22.22A.22.22,0,0,0,16.07,13Z"/><path class="cls-1" d="M19.36,12.55H17.6a.22.22,0,0,0,0,.44h1.76a.22.22,0,0,0,0-.44Z"/><path class="cls-1" d="M16.07,13.87h1.1a.22.22,0,0,0,0-.44h-1.1a.22.22,0,0,0-.22.22A.22.22,0,0,0,16.07,13.87Z"/><path class="cls-1" d="M18.92,13.87a.22.22,0,0,0,0-.44h-1.1a.22.22,0,0,0,0,.44Z"/><path class="cls-1" d="M16.07,14.75h2.2a.22.22,0,0,0,0-.44h-2.2a.22.22,0,0,0-.22.22A.22.22,0,0,0,16.07,14.75Z"/><path class="cls-1" d="M19.36,14.31h-.44a.22.22,0,0,0,0,.44h.44a.22.22,0,0,0,0-.44Z"/><path class="cls-1" d="M16.73,15.19h-.66a.22.22,0,0,0,0,.44h.66a.22.22,0,0,0,0-.44Z"/><path class="cls-1" d="M19.14,15.19H17.38a.22.22,0,1,0,0,.44h1.76a.22.22,0,0,0,0-.44Z"/><path class="cls-1" d="M20.22,4.86H15.41V4.11A1.45,1.45,0,0,0,14,2.66h-.33a1.1,1.1,0,0,0-2.16,0h-8A1.45,1.45,0,0,0,2,4.11V17.8a1.56,1.56,0,0,0,1.56,1.56h6v2.42H8.9a.22.22,0,0,0,0,.44H15a.22.22,0,0,0,0-.44h-.62V19.36h5.87a1.56,1.56,0,0,0,1.56-1.56V6.42a1.56,1.56,0,0,0-1.56-1.56Zm-16.46,11h9.67a.22.22,0,0,0,0-.44H3.76V15H9.25a.22.22,0,0,0,0-.44H3.76V12.11H9.3l3.11,2.37a.22.22,0,0,0,.35-.17v-2.2H14a1.45,1.45,0,0,0,1.45-1.45v-4H20v9.67H3.76ZM11.89,4.2h1.32v4H11.89Zm1.32-.44H11.89V3.54h1.32ZM11.89,8.59h1.32v.58l-.66.83-.66-.82Zm.66-6.37a.67.67,0,0,1,.66.66V3.1H11.89V2.88a.67.67,0,0,1,.66-.66ZM2.44,4.11a1,1,0,0,1,1-1h8V9.25a.24.24,0,0,0,.05.14l.88,1.1a.22.22,0,0,0,.34,0l.88-1.1a.24.24,0,0,0,.05-.14V3.1H14a1,1,0,0,1,1,1v6.55a1,1,0,0,1-1,1H12.55a.22.22,0,0,0-.22.22v2L9.51,11.71a.22.22,0,0,0-.13,0H3.45a1,1,0,0,1-1-1V4.11ZM10,19.36h.66v2.42H10Zm1.1,2.42V19.36h1.76v2.42Zm2.85,0h-.66V19.36h.66Zm7.43-4a1.12,1.12,0,0,1-1.12,1.12H3.56A1.12,1.12,0,0,1,2.44,17.8V11.7a1.48,1.48,0,0,0,.88.41v4.4a.22.22,0,0,0,.22.22h16.7a.22.22,0,0,0,.22-.22V6.4a.22.22,0,0,0-.22-.22H15.4V5.3h4.81a1.12,1.12,0,0,1,1.12,1.12Z"/><path class="cls-1" d="M16.94,3.43a.33.33,0,1,1-.33-.33.33.33,0,0,1,.33.33"/><path class="cls-1" d="M19.14,2.77a.33.33,0,1,1-.33-.33.33.33,0,0,1,.33.33"/><path class="cls-1" d="M15.85,20.13a.33.33,0,1,1-.33-.33.33.33,0,0,1,.33.33"/><path class="cls-1" d="M21.56,20.13a.33.33,0,1,1-.33-.33.33.33,0,0,1,.33.33"/><path class="cls-1" d="M8.81,19.91a.33.33,0,1,1-.33-.33.33.33,0,0,1,.33.33"/><path class="cls-1" d="M3.76,20.79a.33.33,0,1,1-.33-.33.33.33,0,0,1,.33.33"/><path class="cls-1" d="M3.05,8l.9.2a2.8,2.8,0,0,0,.27.65l-.5.77a.21.21,0,0,0,0,.27l.49.49a.21.21,0,0,0,.27,0l.79-.49a2.63,2.63,0,0,0,.65.27l.2.9a.21.21,0,0,0,.21.17h.69a.21.21,0,0,0,.21-.17l.2-.9a2.63,2.63,0,0,0,.65-.27l.78.49a.21.21,0,0,0,.27,0l.49-.49a.21.21,0,0,0,0-.27l-.49-.78a2.56,2.56,0,0,0,.27-.64l.9-.2a.21.21,0,0,0,.17-.21v-.7a.21.21,0,0,0-.17-.21l-.9-.2A2.48,2.48,0,0,0,9.19,6l.49-.78a.21.21,0,0,0,0-.27l-.49-.49a.21.21,0,0,0-.27,0l-.78.49a2.48,2.48,0,0,0-.65-.27l-.2-.9a.21.21,0,0,0-.21-.17H6.36a.21.21,0,0,0-.21.17l-.2.9a3.17,3.17,0,0,0-.65.27l-.78-.49a.21.21,0,0,0-.27,0L3.76,5a.21.21,0,0,0,0,.27l.5.78A2.48,2.48,0,0,0,4,6.65l-.9.2a.21.21,0,0,0-.17.21v.69A.23.23,0,0,0,3.05,8Zm.27-.73.86-.19a.23.23,0,0,0,.17-.17,2.23,2.23,0,0,1,.31-.77.21.21,0,0,0,0-.24l-.47-.74.24-.24.74.47a.21.21,0,0,0,.24,0,2.49,2.49,0,0,1,.77-.31.23.23,0,0,0,.17-.17L6.54,4h.34l.19.86a.23.23,0,0,0,.17.17A2.41,2.41,0,0,1,8,5.37a.21.21,0,0,0,.24,0L9,4.9l.24.24-.48.74a.21.21,0,0,0,0,.24,2.13,2.13,0,0,1,.32.76.23.23,0,0,0,.17.17l.86.19v.34l-.86.19a.23.23,0,0,0-.17.16,2.17,2.17,0,0,1-.32.77.21.21,0,0,0,0,.24l.47.75L9,9.92l-.75-.47a.2.2,0,0,0-.23,0,2.47,2.47,0,0,1-.77.32.21.21,0,0,0-.17.16l-.19.86H6.53l-.19-.86a.2.2,0,0,0-.16-.16,2.47,2.47,0,0,1-.77-.32.21.21,0,0,0-.24,0l-.74.47-.24-.24.47-.75a.21.21,0,0,0,0-.24,2.23,2.23,0,0,1-.32-.76.2.2,0,0,0-.16-.16l-.86-.19Z"/><path class="cls-1" d="M6.7,8.32a.91.91,0,1,0-.91-.91A.91.91,0,0,0,6.7,8.32Zm0-1.38a.47.47,0,1,1-.47.47A.47.47,0,0,1,6.7,6.94Z"/><path class="cls-1" d="M6.7,9.28A1.87,1.87,0,1,0,4.83,7.41,1.87,1.87,0,0,0,6.7,9.28ZM6.7,6A1.43,1.43,0,1,1,5.27,7.4,1.43,1.43,0,0,1,6.7,6Z"/><path class="cls-1" d="M20.9,4.42a1.1,1.1,0,1,0-1.1-1.1A1.1,1.1,0,0,0,20.9,4.42Zm0-1.76a.66.66,0,1,1-.66.66A.67.67,0,0,1,20.9,2.66Z"/><path class="cls-1" d="M18.48,19.8a1.1,1.1,0,1,0,1.1,1.1,1.1,1.1,0,0,0-1.1-1.1Zm0,1.76a.66.66,0,1,1,.66-.66A.67.67,0,0,1,18.48,21.56Z"/><path class="cls-1" d="M6.18,20.24a.88.88,0,1,0,.88.88A.88.88,0,0,0,6.18,20.24Zm0,1.32a.44.44,0,1,1,.44-.44A.44.44,0,0,1,6.18,21.56Z"/><path class="cls-1" d="M12.37,17.87a.44.44,0,1,1-.44-.44.44.44,0,0,1,.44.44"/><path class="cls-1" d="M16.07,10.35h1.1a.22.22,0,0,0,0-.44h-1.1a.22.22,0,0,0-.22.22A.22.22,0,0,0,16.07,10.35Z"/><path class="cls-1" d="M17.82,10.35h.88a.22.22,0,1,0,0-.44h-.88a.22.22,0,0,0,0,.44Z"/><path class="cls-1" d="M16.07,11.23h2.2a.22.22,0,0,0,0-.44h-2.2a.22.22,0,0,0-.22.22A.22.22,0,0,0,16.07,11.23Z"/><path class="cls-1" d="M19.36,10.79h-.44a.22.22,0,0,0,0,.44h.44a.22.22,0,0,0,0-.44Z"/><path class="cls-1" d="M16.07,12.11h.66a.22.22,0,0,0,0-.44h-.66a.22.22,0,0,0-.22.22A.22.22,0,0,0,16.07,12.11Z"/><path class="cls-1" d="M17.16,11.89a.22.22,0,0,0,.22.22h1.76a.22.22,0,0,0,0-.44H17.38a.22.22,0,0,0-.22.22Z"/><path class="cls-1" d="M16.07,13H17a.22.22,0,0,0,0-.44h-.88a.22.22,0,0,0-.22.22A.22.22,0,0,0,16.07,13Z"/><path class="cls-1" d="M19.36,12.55H17.6a.22.22,0,0,0,0,.44h1.76a.22.22,0,0,0,0-.44Z"/><path class="cls-1" d="M16.07,13.87h1.1a.22.22,0,0,0,0-.44h-1.1a.22.22,0,0,0-.22.22A.22.22,0,0,0,16.07,13.87Z"/><path class="cls-1" d="M18.92,13.87a.22.22,0,0,0,0-.44h-1.1a.22.22,0,0,0,0,.44Z"/><path class="cls-1" d="M16.07,14.75h2.2a.22.22,0,0,0,0-.44h-2.2a.22.22,0,0,0-.22.22A.22.22,0,0,0,16.07,14.75Z"/><path class="cls-1" d="M19.36,14.31h-.44a.22.22,0,0,0,0,.44h.44a.22.22,0,0,0,0-.44Z"/><path class="cls-1" d="M16.73,15.19h-.66a.22.22,0,0,0,0,.44h.66a.22.22,0,0,0,0-.44Z"/><path class="cls-1" d="M19.14,15.19H17.38a.22.22,0,1,0,0,.44h1.76a.22.22,0,0,0,0-.44Z"/><path class="cls-1" d="M20.22,4.86H15.41V4.11A1.45,1.45,0,0,0,14,2.66h-.33a1.1,1.1,0,0,0-2.16,0h-8A1.45,1.45,0,0,0,2,4.11V17.8a1.56,1.56,0,0,0,1.56,1.56h6v2.42H8.9a.22.22,0,0,0,0,.44H15a.22.22,0,0,0,0-.44h-.62V19.36h5.87a1.56,1.56,0,0,0,1.56-1.56V6.42a1.56,1.56,0,0,0-1.56-1.56Zm-16.46,11h9.67a.22.22,0,0,0,0-.44H3.76V15H9.25a.22.22,0,0,0,0-.44H3.76V12.11H9.3l3.11,2.37a.22.22,0,0,0,.35-.17v-2.2H14a1.45,1.45,0,0,0,1.45-1.45v-4H20v9.67H3.76ZM11.89,4.2h1.32v4H11.89Zm1.32-.44H11.89V3.54h1.32ZM11.89,8.59h1.32v.58l-.66.83-.66-.82Zm.66-6.37a.67.67,0,0,1,.66.66V3.1H11.89V2.88a.67.67,0,0,1,.66-.66ZM2.44,4.11a1,1,0,0,1,1-1h8V9.25a.24.24,0,0,0,.05.14l.88,1.1a.22.22,0,0,0,.34,0l.88-1.1a.24.24,0,0,0,.05-.14V3.1H14a1,1,0,0,1,1,1v6.55a1,1,0,0,1-1,1H12.55a.22.22,0,0,0-.22.22v2L9.51,11.71a.22.22,0,0,0-.13,0H3.45a1,1,0,0,1-1-1V4.11ZM10,19.36h.66v2.42H10Zm1.1,2.42V19.36h1.76v2.42Zm2.85,0h-.66V19.36h.66Zm7.43-4a1.12,1.12,0,0,1-1.12,1.12H3.56A1.12,1.12,0,0,1,2.44,17.8V11.7a1.48,1.48,0,0,0,.88.41v4.4a.22.22,0,0,0,.22.22h16.7a.22.22,0,0,0,.22-.22V6.4a.22.22,0,0,0-.22-.22H15.4V5.3h4.81a1.12,1.12,0,0,1,1.12,1.12Z"/><path class="cls-1" d="M16.94,3.43a.33.33,0,1,1-.33-.33.33.33,0,0,1,.33.33"/><path class="cls-1" d="M19.14,2.77a.33.33,0,1,1-.33-.33.33.33,0,0,1,.33.33"/><path class="cls-1" d="M15.85,20.13a.33.33,0,1,1-.33-.33.33.33,0,0,1,.33.33"/><path class="cls-1" d="M21.56,20.13a.33.33,0,1,1-.33-.33.33.33,0,0,1,.33.33"/><path class="cls-1" d="M8.81,19.91a.33.33,0,1,1-.33-.33.33.33,0,0,1,.33.33"/><path class="cls-1" d="M3.76,20.79a.33.33,0,1,1-.33-.33.33.33,0,0,1,.33.33"/><path class="cls-1" d="M3.05,8l.9.2a2.8,2.8,0,0,0,.27.65l-.5.77a.21.21,0,0,0,0,.27l.49.49a.21.21,0,0,0,.27,0l.79-.49a2.63,2.63,0,0,0,.65.27l.2.9a.21.21,0,0,0,.21.17h.69a.21.21,0,0,0,.21-.17l.2-.9a2.63,2.63,0,0,0,.65-.27l.78.49a.21.21,0,0,0,.27,0l.49-.49a.21.21,0,0,0,0-.27l-.49-.78a2.56,2.56,0,0,0,.27-.64l.9-.2a.21.21,0,0,0,.17-.21v-.7a.21.21,0,0,0-.17-.21l-.9-.2A2.48,2.48,0,0,0,9.19,6l.49-.78a.21.21,0,0,0,0-.27l-.49-.49a.21.21,0,0,0-.27,0l-.78.49a2.48,2.48,0,0,0-.65-.27l-.2-.9a.21.21,0,0,0-.21-.17H6.36a.21.21,0,0,0-.21.17l-.2.9a3.17,3.17,0,0,0-.65.27l-.78-.49a.21.21,0,0,0-.27,0L3.76,5a.21.21,0,0,0,0,.27l.5.78A2.48,2.48,0,0,0,4,6.65l-.9.2a.21.21,0,0,0-.17.21v.69A.23.23,0,0,0,3.05,8Zm.27-.73.86-.19a.23.23,0,0,0,.17-.17,2.23,2.23,0,0,1,.31-.77.21.21,0,0,0,0-.24l-.47-.74.24-.24.74.47a.21.21,0,0,0,.24,0,2.49,2.49,0,0,1,.77-.31.23.23,0,0,0,.17-.17L6.54,4h.34l.19.86a.23.23,0,0,0,.17.17A2.41,2.41,0,0,1,8,5.37a.21.21,0,0,0,.24,0L9,4.9l.24.24-.48.74a.21.21,0,0,0,0,.24,2.13,2.13,0,0,1,.32.76.23.23,0,0,0,.17.17l.86.19v.34l-.86.19a.23.23,0,0,0-.17.16,2.17,2.17,0,0,1-.32.77.21.21,0,0,0,0,.24l.47.75L9,9.92l-.75-.47a.2.2,0,0,0-.23,0,2.47,2.47,0,0,1-.77.32.21.21,0,0,0-.17.16l-.19.86H6.53l-.19-.86a.2.2,0,0,0-.16-.16,2.47,2.47,0,0,1-.77-.32.21.21,0,0,0-.24,0l-.74.47-.24-.24.47-.75a.21.21,0,0,0,0-.24,2.23,2.23,0,0,1-.32-.76.2.2,0,0,0-.16-.16l-.86-.19Z"/><path class="cls-1" d="M6.7,8.32a.91.91,0,1,0-.91-.91A.91.91,0,0,0,6.7,8.32Zm0-1.38a.47.47,0,1,1-.47.47A.47.47,0,0,1,6.7,6.94Z"/><path class="cls-1" d="M6.7,9.28A1.87,1.87,0,1,0,4.83,7.41,1.87,1.87,0,0,0,6.7,9.28ZM6.7,6A1.43,1.43,0,1,1,5.27,7.4,1.43,1.43,0,0,1,6.7,6Z"/><path class="cls-1" d="M3.05,8l.9.2a2.8,2.8,0,0,0,.27.65l-.5.77a.21.21,0,0,0,0,.27l.49.49a.21.21,0,0,0,.27,0l.79-.49a2.63,2.63,0,0,0,.65.27l.2.9a.21.21,0,0,0,.21.17h.69a.21.21,0,0,0,.21-.17l.2-.9a2.63,2.63,0,0,0,.65-.27l.78.49a.21.21,0,0,0,.27,0l.49-.49a.21.21,0,0,0,0-.27l-.49-.78a2.56,2.56,0,0,0,.27-.64l.9-.2a.21.21,0,0,0,.17-.21v-.7a.21.21,0,0,0-.17-.21l-.9-.2A2.48,2.48,0,0,0,9.19,6l.49-.78a.21.21,0,0,0,0-.27l-.49-.49a.21.21,0,0,0-.27,0l-.78.49a2.48,2.48,0,0,0-.65-.27l-.2-.9a.21.21,0,0,0-.21-.17H6.36a.21.21,0,0,0-.21.17l-.2.9a3.17,3.17,0,0,0-.65.27l-.78-.49a.21.21,0,0,0-.27,0L3.76,5a.21.21,0,0,0,0,.27l.5.78A2.48,2.48,0,0,0,4,6.65l-.9.2a.21.21,0,0,0-.17.21v.69A.23.23,0,0,0,3.05,8Zm.27-.73.86-.19a.23.23,0,0,0,.17-.17,2.23,2.23,0,0,1,.31-.77.21.21,0,0,0,0-.24l-.47-.74.24-.24.74.47a.21.21,0,0,0,.24,0,2.49,2.49,0,0,1,.77-.31.23.23,0,0,0,.17-.17L6.54,4h.34l.19.86a.23.23,0,0,0,.17.17A2.41,2.41,0,0,1,8,5.37a.21.21,0,0,0,.24,0L9,4.9l.24.24-.48.74a.21.21,0,0,0,0,.24,2.13,2.13,0,0,1,.32.76.23.23,0,0,0,.17.17l.86.19v.34l-.86.19a.23.23,0,0,0-.17.16,2.17,2.17,0,0,1-.32.77.21.21,0,0,0,0,.24l.47.75L9,9.92l-.75-.47a.2.2,0,0,0-.23,0,2.47,2.47,0,0,1-.77.32.21.21,0,0,0-.17.16l-.19.86H6.53l-.19-.86a.2.2,0,0,0-.16-.16,2.47,2.47,0,0,1-.77-.32.21.21,0,0,0-.24,0l-.74.47-.24-.24.47-.75a.21.21,0,0,0,0-.24,2.23,2.23,0,0,1-.32-.76.2.2,0,0,0-.16-.16l-.86-.19Z"/><path class="cls-1" d="M6.7,8.32a.91.91,0,1,0-.91-.91A.91.91,0,0,0,6.7,8.32Zm0-1.38a.47.47,0,1,1-.47.47A.47.47,0,0,1,6.7,6.94Z"/><path class="cls-1" d="M6.7,9.28A1.87,1.87,0,1,0,4.83,7.41,1.87,1.87,0,0,0,6.7,9.28ZM6.7,6A1.43,1.43,0,1,1,5.27,7.4,1.43,1.43,0,0,1,6.7,6Z"/><path class="cls-1" d="M20.9,4.42a1.1,1.1,0,1,0-1.1-1.1A1.1,1.1,0,0,0,20.9,4.42Zm0-1.76a.66.66,0,1,1-.66.66A.67.67,0,0,1,20.9,2.66Z"/><path class="cls-1" d="M18.48,19.8a1.1,1.1,0,1,0,1.1,1.1,1.1,1.1,0,0,0-1.1-1.1Zm0,1.76a.66.66,0,1,1,.66-.66A.67.67,0,0,1,18.48,21.56Z"/><path class="cls-1" d="M6.18,20.24a.88.88,0,1,0,.88.88A.88.88,0,0,0,6.18,20.24Zm0,1.32a.44.44,0,1,1,.44-.44A.44.44,0,0,1,6.18,21.56Z"/><path class="cls-1" d="M12.37,17.87a.44.44,0,1,1-.44-.44.44.44,0,0,1,.44.44"/><path class="cls-1" d="M16.07,10.35h1.1a.22.22,0,0,0,0-.44h-1.1a.22.22,0,0,0-.22.22A.22.22,0,0,0,16.07,10.35Z"/><path class="cls-1" d="M17.82,10.35h.88a.22.22,0,1,0,0-.44h-.88a.22.22,0,0,0,0,.44Z"/><path class="cls-1" d="M16.07,11.23h2.2a.22.22,0,0,0,0-.44h-2.2a.22.22,0,0,0-.22.22A.22.22,0,0,0,16.07,11.23Z"/><path class="cls-1" d="M19.36,10.79h-.44a.22.22,0,0,0,0,.44h.44a.22.22,0,0,0,0-.44Z"/><path class="cls-1" d="M17.16,11.89a.22.22,0,0,0,.22.22h1.76a.22.22,0,0,0,0-.44H17.38a.22.22,0,0,0-.22.22Z"/><path class="cls-1" d="M16.07,13H17a.22.22,0,0,0,0-.44h-.88a.22.22,0,0,0-.22.22A.22.22,0,0,0,16.07,13Z"/><path class="cls-1" d="M19.36,12.55H17.6a.22.22,0,0,0,0,.44h1.76a.22.22,0,0,0,0-.44Z"/><path class="cls-1" d="M16.07,13.87h1.1a.22.22,0,0,0,0-.44h-1.1a.22.22,0,0,0-.22.22A.22.22,0,0,0,16.07,13.87Z"/><path class="cls-1" d="M18.92,13.87a.22.22,0,0,0,0-.44h-1.1a.22.22,0,0,0,0,.44Z"/><path class="cls-1" d="M16.07,14.75h2.2a.22.22,0,0,0,0-.44h-2.2a.22.22,0,0,0-.22.22A.22.22,0,0,0,16.07,14.75Z"/><path class="cls-1" d="M19.36,14.31h-.44a.22.22,0,0,0,0,.44h.44a.22.22,0,0,0,0-.44Z"/><path class="cls-1" d="M19.14,15.19H17.38a.22.22,0,1,0,0,.44h1.76a.22.22,0,0,0,0-.44Z"/><path class="cls-1" d="M16.94,3.43a.33.33,0,1,1-.33-.33.33.33,0,0,1,.33.33"/><path class="cls-1" d="M19.14,2.77a.33.33,0,1,1-.33-.33.33.33,0,0,1,.33.33"/><path class="cls-1" d="M15.85,20.13a.33.33,0,1,1-.33-.33.33.33,0,0,1,.33.33"/><path class="cls-1" d="M21.56,20.13a.33.33,0,1,1-.33-.33.33.33,0,0,1,.33.33"/><path class="cls-1" d="M8.81,19.91a.33.33,0,1,1-.33-.33.33.33,0,0,1,.33.33"/><path class="cls-1" d="M3.76,20.79a.33.33,0,1,1-.33-.33.33.33,0,0,1,.33.33"/><path class="cls-1" d="M20.9,4.42a1.1,1.1,0,1,0-1.1-1.1A1.1,1.1,0,0,0,20.9,4.42Zm0-1.76a.66.66,0,1,1-.66.66A.67.67,0,0,1,20.9,2.66Z"/><path class="cls-1" d="M18.48,19.8a1.1,1.1,0,1,0,1.1,1.1,1.1,1.1,0,0,0-1.1-1.1Zm0,1.76a.66.66,0,1,1,.66-.66A.67.67,0,0,1,18.48,21.56Z"/><path class="cls-1" d="M6.18,20.24a.88.88,0,1,0,.88.88A.88.88,0,0,0,6.18,20.24Zm0,1.32a.44.44,0,1,1,.44-.44A.44.44,0,0,1,6.18,21.56Z"/><path class="cls-1" d="M12.37,17.87a.44.44,0,1,1-.44-.44.44.44,0,0,1,.44.44"/><path class="cls-1" d="M16.07,10.35h1.1a.22.22,0,0,0,0-.44h-1.1a.22.22,0,0,0-.22.22A.22.22,0,0,0,16.07,10.35Z"/><path class="cls-1" d="M17.82,10.35h.88a.22.22,0,1,0,0-.44h-.88a.22.22,0,0,0,0,.44Z"/><path class="cls-1" d="M16.07,11.23h2.2a.22.22,0,0,0,0-.44h-2.2a.22.22,0,0,0-.22.22A.22.22,0,0,0,16.07,11.23Z"/><path class="cls-1" d="M19.36,10.79h-.44a.22.22,0,0,0,0,.44h.44a.22.22,0,0,0,0-.44Z"/><path class="cls-1" d="M17.16,11.89a.22.22,0,0,0,.22.22h1.76a.22.22,0,0,0,0-.44H17.38a.22.22,0,0,0-.22.22Z"/><path class="cls-1" d="M16.07,13H17a.22.22,0,0,0,0-.44h-.88a.22.22,0,0,0-.22.22A.22.22,0,0,0,16.07,13Z"/><path class="cls-1" d="M19.36,12.55H17.6a.22.22,0,0,0,0,.44h1.76a.22.22,0,0,0,0-.44Z"/><path class="cls-1" d="M16.07,13.87h1.1a.22.22,0,0,0,0-.44h-1.1a.22.22,0,0,0-.22.22A.22.22,0,0,0,16.07,13.87Z"/><path class="cls-1" d="M18.92,13.87a.22.22,0,0,0,0-.44h-1.1a.22.22,0,0,0,0,.44Z"/><path class="cls-1" d="M16.07,14.75h2.2a.22.22,0,0,0,0-.44h-2.2a.22.22,0,0,0-.22.22A.22.22,0,0,0,16.07,14.75Z"/><path class="cls-1" d="M19.36,14.31h-.44a.22.22,0,0,0,0,.44h.44a.22.22,0,0,0,0-.44Z"/><path class="cls-1" d="M19.14,15.19H17.38a.22.22,0,1,0,0,.44h1.76a.22.22,0,0,0,0-.44Z"/><path class="cls-1" d="M16.94,3.43a.33.33,0,1,1-.33-.33.33.33,0,0,1,.33.33"/><path class="cls-1" d="M19.14,2.77a.33.33,0,1,1-.33-.33.33.33,0,0,1,.33.33"/><path class="cls-1" d="M15.85,20.13a.33.33,0,1,1-.33-.33.33.33,0,0,1,.33.33"/><path class="cls-1" d="M21.56,20.13a.33.33,0,1,1-.33-.33.33.33,0,0,1,.33.33"/><path class="cls-1" d="M8.81,19.91a.33.33,0,1,1-.33-.33.33.33,0,0,1,.33.33"/><path class="cls-1" d="M3.76,20.79a.33.33,0,1,1-.33-.33.33.33,0,0,1,.33.33"/><path class="cls-1" d="M20.9,4.42a1.1,1.1,0,1,0-1.1-1.1A1.1,1.1,0,0,0,20.9,4.42Zm0-1.76a.66.66,0,1,1-.66.66A.67.67,0,0,1,20.9,2.66Z"/><path class="cls-1" d="M18.48,19.8a1.1,1.1,0,1,0,1.1,1.1,1.1,1.1,0,0,0-1.1-1.1Zm0,1.76a.66.66,0,1,1,.66-.66A.67.67,0,0,1,18.48,21.56Z"/><path class="cls-1" d="M6.18,20.24a.88.88,0,1,0,.88.88A.88.88,0,0,0,6.18,20.24Zm0,1.32a.44.44,0,1,1,.44-.44A.44.44,0,0,1,6.18,21.56Z"/></svg>