<svg id="Layer_1" data-name="Layer 1" xmlns="http://www.w3.org/2000/svg" viewBox="0 0 24 24"><defs><style>.cls-1{fill:#fff;}</style></defs><path class="cls-1" d="M8.79,9.14h1.79a.36.36,0,0,0,0-.72H8.79a.36.36,0,1,0,0,.72Z"/><path class="cls-1" d="M12.36,8.43H12a.36.36,0,0,0-.36.36.35.35,0,0,0,.36.35h.36a.36.36,0,1,0,0-.71Z"/><path class="cls-1" d="M8.79,10.57h.36a.36.36,0,0,0,0-.72H8.79a.36.36,0,0,0,0,.72Z"/><path class="cls-1" d="M12.36,9.86H10.57a.36.36,0,0,0,0,.72h1.79a.36.36,0,0,0,.36-.36A.37.37,0,0,0,12.36,9.86Z"/><path class="cls-1" d="M8.79,12h3.57a.36.36,0,0,0,0-.72H8.79a.36.36,0,0,0,0,.72Z"/><path class="cls-1" d="M13.79,11.29V12a.37.37,0,0,1-.1.25.35.35,0,0,1-.25.1.36.36,0,1,0,0,.72A1,1,0,0,0,14.5,12v-.71a.75.75,0,0,1,.21-.51.74.74,0,0,1,.51-.21.36.36,0,0,0,0-.72.75.75,0,0,1-.51-.21.74.74,0,0,1-.21-.51v-.7a1.08,1.08,0,0,0-.31-.76,1.07,1.07,0,0,0-.76-.31.36.36,0,0,0,0,.72.37.37,0,0,1,.25.1.35.35,0,0,1,.1.25v.71a1.42,1.42,0,0,0,.49,1.07,1.45,1.45,0,0,0-.48,1.08Z"/><path class="cls-1" d="M7.36,9.14V8.43a.36.36,0,0,1,.36-.36.36.36,0,0,0,0-.72A1.08,1.08,0,0,0,7,7.66a1.07,1.07,0,0,0-.31.76v.71a.75.75,0,0,1-.21.51.72.72,0,0,1-.51.22.36.36,0,0,0,0,.72.75.75,0,0,1,.51.21.74.74,0,0,1,.21.51V12a1.08,1.08,0,0,0,.31.76,1.07,1.07,0,0,0,.76.31.36.36,0,1,0,0-.72A.35.35,0,0,1,7.36,12v-.71a1.42,1.42,0,0,0-.49-1.07,1.5,1.5,0,0,0,.49-1.08Z"/><path class="cls-1" d="M8.79,9.14h1.79a.36.36,0,0,0,0-.72H8.79a.36.36,0,1,0,0,.72Z"/><path class="cls-1" d="M12.36,8.43H12a.36.36,0,0,0-.36.36.35.35,0,0,0,.36.35h.36a.36.36,0,1,0,0-.71Z"/><path class="cls-1" d="M8.79,10.57h.36a.36.36,0,0,0,0-.72H8.79a.36.36,0,0,0,0,.72Z"/><path class="cls-1" d="M12.36,9.86H10.57a.36.36,0,0,0,0,.72h1.79a.36.36,0,0,0,.36-.36A.37.37,0,0,0,12.36,9.86Z"/><path class="cls-1" d="M8.79,12h3.57a.36.36,0,0,0,0-.72H8.79a.36.36,0,0,0,0,.72Z"/><path class="cls-1" d="M13.79,11.29V12a.37.37,0,0,1-.1.25.35.35,0,0,1-.25.1.36.36,0,1,0,0,.72A1,1,0,0,0,14.5,12v-.71a.75.75,0,0,1,.21-.51.74.74,0,0,1,.51-.21.36.36,0,0,0,0-.72.75.75,0,0,1-.51-.21.74.74,0,0,1-.21-.51v-.7a1.08,1.08,0,0,0-.31-.76,1.07,1.07,0,0,0-.76-.31.36.36,0,0,0,0,.72.37.37,0,0,1,.25.1.35.35,0,0,1,.1.25v.71a1.42,1.42,0,0,0,.49,1.07,1.45,1.45,0,0,0-.48,1.08Z"/><path class="cls-1" d="M7.36,9.14V8.43a.36.36,0,0,1,.36-.36.36.36,0,0,0,0-.72A1.08,1.08,0,0,0,7,7.66a1.07,1.07,0,0,0-.31.76v.71a.75.75,0,0,1-.21.51.72.72,0,0,1-.51.22.36.36,0,0,0,0,.72.75.75,0,0,1,.51.21.74.74,0,0,1,.21.51V12a1.08,1.08,0,0,0,.31.76,1.07,1.07,0,0,0,.76.31.36.36,0,1,0,0-.72A.35.35,0,0,1,7.36,12v-.71a1.42,1.42,0,0,0-.49-1.07,1.5,1.5,0,0,0,.49-1.08Z"/><path class="cls-1" d="M20.93,9.5H17.36a1.08,1.08,0,0,0-.76.31,1.07,1.07,0,0,0-.31.76v7.14a1.08,1.08,0,0,0,.31.76,1.07,1.07,0,0,0,.76.31h3.57a1.08,1.08,0,0,0,.76-.31,1.07,1.07,0,0,0,.31-.76V10.57A1.06,1.06,0,0,0,20.93,9.5ZM17,11.64h4.29v5H17Zm.36-1.43h3.57a.37.37,0,0,1,.25.1.35.35,0,0,1,.1.25v.36H17v-.36A.36.36,0,0,1,17.36,10.21Zm3.57,7.86H17.36a.36.36,0,0,1-.36-.36v-.36h4.29v.36a.37.37,0,0,1-.1.25A.4.4,0,0,1,20.93,18.07Z"/><path class="cls-1" d="M20.21,12.36H18.07a.36.36,0,0,0-.36.36v1.43a.37.37,0,0,0,.1.25.35.35,0,0,0,.25.1H20.2a.37.37,0,0,0,.25-.1.35.35,0,0,0,.1-.25V12.72a.37.37,0,0,0-.1-.25A.27.27,0,0,0,20.21,12.36Zm-.35,1.43H18.43v-.71h1.43Z"/><path class="cls-1" d="M18.43,15.21h-.36a.36.36,0,0,0,0,.72h.36a.36.36,0,0,0,0-.72Z"/><path class="cls-1" d="M20.21,15.21h-.36a.36.36,0,0,0,0,.72h.36a.36.36,0,0,0,0-.72Z"/><path class="cls-1" d="M20.21,12.36H18.07a.36.36,0,0,0-.36.36v1.43a.37.37,0,0,0,.1.25.35.35,0,0,0,.25.1H20.2a.37.37,0,0,0,.25-.1.35.35,0,0,0,.1-.25V12.72a.37.37,0,0,0-.1-.25A.27.27,0,0,0,20.21,12.36Zm-.35,1.43H18.43v-.71h1.43Z"/><path class="cls-1" d="M18.43,15.21h-.36a.36.36,0,0,0,0,.72h.36a.36.36,0,0,0,0-.72Z"/><path class="cls-1" d="M20.21,15.21h-.36a.36.36,0,0,0,0,.72h.36a.36.36,0,0,0,0-.72Z"/><path class="cls-1" d="M3.79,18.07A1.08,1.08,0,0,1,3,17.76,1.07,1.07,0,0,1,2.72,17v-.36H8.21l.26.52a.36.36,0,0,0,.32.2h3.57a.37.37,0,0,0,.32-.2l.26-.52h2.64v-.71H12.72a.37.37,0,0,0-.32.2l-.26.52H9l-.26-.52a.36.36,0,0,0-.32-.2H3.79v-.71H15.58V14.5H3.79V5.93H17.36V8.79h.71V5.57a.37.37,0,0,0-.1-.25.35.35,0,0,0-.25-.1H3.43a.36.36,0,0,0-.36.36V15.94H2.71a.75.75,0,0,0-.51.21.7.7,0,0,0-.2.49V17a1.78,1.78,0,0,0,1.78,1.78H15.92a1.71,1.71,0,0,1-.33-.71Z"/></svg>