<svg width="62" height="63" viewBox="0 0 62 63" fill="none" xmlns="http://www.w3.org/2000/svg">
<path d="M53.8618 38.4791H8.13677C7.92438 38.4791 7.72068 38.3947 7.5705 38.2446C7.42031 38.0944 7.33594 37.8907 7.33594 37.6783V11.6641C7.33594 11.2502 7.41746 10.8404 7.57584 10.458C7.73423 10.0756 7.96638 9.72821 8.25904 9.43555C8.85009 8.8445 9.65173 8.51245 10.4876 8.51245H51.5109C51.9248 8.51245 52.3347 8.59397 52.717 8.75236C53.0994 8.91074 53.4468 9.14289 53.7395 9.43555C54.0322 9.72821 54.2643 10.0756 54.4227 10.458C54.5811 10.8404 54.6626 11.2502 54.6626 11.6641V37.6783C54.6626 37.8907 54.5782 38.0944 54.428 38.2446C54.2779 38.3947 54.0742 38.4791 53.8618 38.4791ZM8.91177 36.9033H53.0868V11.6641C53.0868 11.2462 52.9207 10.8454 52.6252 10.5498C52.3297 10.2543 51.9289 10.0883 51.5109 10.0883H10.4876C10.0697 10.0883 9.66885 10.2543 9.37332 10.5498C9.0778 10.8454 8.91177 11.2462 8.91177 11.6641V36.9033Z" fill="white"/>
<path d="M51.5109 44.7826H10.4876C9.66499 44.7828 8.87487 44.4614 8.286 43.887C7.69712 43.3126 7.35617 42.5308 7.33594 41.7084V37.6784C7.33588 37.5744 7.35675 37.4715 7.3973 37.3757C7.43785 37.28 7.49726 37.1934 7.57199 37.121C7.64671 37.0487 7.73522 36.9922 7.83225 36.9548C7.92928 36.9174 8.03284 36.8999 8.13677 36.9034H53.8618C53.9657 36.8999 54.0693 36.9174 54.1663 36.9548C54.2633 36.9922 54.3518 37.0487 54.4266 37.121C54.5013 37.1934 54.5607 37.28 54.6012 37.3757C54.6418 37.4715 54.6627 37.5744 54.6626 37.6784V41.7084C54.6626 42.5443 54.3306 43.3459 53.7395 43.937C53.1484 44.528 52.3468 44.86 51.5109 44.86V44.7826ZM8.91177 38.4792V41.7084C8.91177 42.1263 9.0778 42.5271 9.37332 42.8227C9.66885 43.1182 10.0697 43.2842 10.4876 43.2842H51.5109C51.9289 43.2842 52.3297 43.1182 52.6252 42.8227C52.9207 42.5271 53.0868 42.1263 53.0868 41.7084V38.4792H8.91177Z" fill="white"/>
<path d="M33.3758 41.7083H28.6224C28.4379 41.6747 28.271 41.5775 28.1508 41.4335C28.0307 41.2895 27.9648 41.1079 27.9648 40.9204C27.9648 40.7328 28.0307 40.5512 28.1508 40.4072C28.271 40.2632 28.4379 40.166 28.6224 40.1324H33.3758C33.5603 40.166 33.7272 40.2632 33.8473 40.4072C33.9675 40.5512 34.0333 40.7328 34.0333 40.9204C34.0333 41.1079 33.9675 41.2895 33.8473 41.4335C33.7272 41.5775 33.5603 41.6747 33.3758 41.7083Z" fill="white"/>
<path d="M33.3758 41.7083H28.6224C28.4379 41.6747 28.271 41.5775 28.1508 41.4335C28.0307 41.2895 27.9648 41.1079 27.9648 40.9204C27.9648 40.7328 28.0307 40.5512 28.1508 40.4072C28.271 40.2632 28.4379 40.166 28.6224 40.1324H33.3758C33.5603 40.166 33.7272 40.2632 33.8473 40.4072C33.9675 40.5512 34.0333 40.7328 34.0333 40.9204C34.0333 41.1079 33.9675 41.2895 33.8473 41.4335C33.7272 41.5775 33.5603 41.6747 33.3758 41.7083Z" fill="white"/>
<path d="M50.7108 38.4791H11.2891C11.0767 38.4791 10.873 38.3948 10.7228 38.2446C10.5727 38.0944 10.4883 37.8907 10.4883 37.6783V12.4391C10.4882 12.3351 10.5091 12.2322 10.5496 12.1365C10.5902 12.0407 10.6496 11.9541 10.7243 11.8818C10.7991 11.8095 10.8876 11.7529 10.9846 11.7155C11.0816 11.6781 11.1852 11.6607 11.2891 11.6641H50.7108C50.8147 11.6607 50.9183 11.6781 51.0153 11.7155C51.1123 11.7529 51.2008 11.8095 51.2756 11.8818C51.3503 11.9541 51.4097 12.0407 51.4503 12.1365C51.4908 12.2322 51.5117 12.3351 51.5116 12.4391V37.6783C51.5116 37.8907 51.4272 38.0944 51.2771 38.2446C51.1269 38.3948 50.9232 38.4791 50.7108 38.4791ZM11.9608 36.9033H49.9358V13.2916H12.0641L11.9608 36.9033Z" fill="white"/>
<path d="M41.3336 54.2375H20.6669C20.0332 54.2375 19.4254 53.9858 18.9772 53.5376C18.5291 53.0895 18.2773 52.4817 18.2773 51.8479C18.2773 51.2142 18.5291 50.6064 18.9772 50.1582C19.4254 49.7101 20.0332 49.4584 20.6669 49.4584H41.3336C41.6648 49.4237 41.9995 49.459 42.3162 49.562C42.6328 49.665 42.9243 49.8334 43.1717 50.0562C43.4191 50.2791 43.6169 50.5514 43.7523 50.8556C43.8877 51.1599 43.9577 51.4891 43.9577 51.8221C43.9577 52.1551 43.8877 52.4843 43.7523 52.7886C43.6169 53.0928 43.4191 53.3651 43.1717 53.588C42.9243 53.8108 42.6328 53.9792 42.3162 54.0822C41.9995 54.1852 41.6648 54.2205 41.3336 54.1859V54.2375ZM20.6669 51.0858C20.5629 51.0858 20.46 51.1067 20.3643 51.1472C20.2685 51.1878 20.1819 51.2472 20.1096 51.3219C20.0373 51.3966 19.9807 51.4851 19.9433 51.5822C19.9059 51.6792 19.8885 51.7828 19.8919 51.8867C19.8883 51.9894 19.9059 52.0918 19.9436 52.1875C19.9812 52.2831 20.0382 52.37 20.1109 52.4427C20.1836 52.5154 20.2705 52.5724 20.3661 52.61C20.4618 52.6477 20.5642 52.6653 20.6669 52.6617H41.3336C41.4363 52.6653 41.5387 52.6477 41.6344 52.61C41.7301 52.5724 41.8169 52.5154 41.8896 52.4427C41.9623 52.37 42.0193 52.2831 42.057 52.1875C42.0946 52.0918 42.1122 51.9894 42.1086 51.8867C42.1121 51.7828 42.0946 51.6792 42.0572 51.5822C42.0198 51.4851 41.9633 51.3966 41.8909 51.3219C41.8186 51.2472 41.732 51.1878 41.6363 51.1472C41.5405 51.1067 41.4376 51.0858 41.3336 51.0858H20.6669Z" fill="white"/>
<path d="M39.6804 51.0858H22.3204C22.2176 51.0894 22.1152 51.0719 22.0196 51.0342C21.9239 50.9965 21.837 50.9396 21.7643 50.8669C21.6917 50.7942 21.6347 50.7073 21.597 50.6116C21.5594 50.516 21.5418 50.4136 21.5454 50.3108C21.5419 50.2069 21.5594 50.1033 21.5968 50.0063C21.6342 49.9093 21.6907 49.8208 21.763 49.746C21.8353 49.6713 21.922 49.6119 22.0177 49.5714C22.1135 49.5308 22.2164 49.5099 22.3204 49.51C24.9037 49.51 26.2729 47.65 26.2729 43.9817C26.2793 43.7782 26.3631 43.5848 26.507 43.4408C26.651 43.2969 26.8444 43.2131 27.0479 43.2067H34.9529C35.1584 43.2067 35.3556 43.2883 35.5009 43.4337C35.6462 43.579 35.7279 43.7761 35.7279 43.9817C35.7279 47.65 37.0712 49.51 39.6804 49.51C39.7844 49.5099 39.8873 49.5308 39.9831 49.5714C40.0788 49.6119 40.1654 49.6713 40.2377 49.746C40.31 49.8208 40.3666 49.9093 40.404 50.0063C40.4414 50.1033 40.4588 50.2069 40.4554 50.3108C40.459 50.4136 40.4414 50.516 40.4037 50.6116C40.3661 50.7073 40.3091 50.7942 40.2364 50.8669C40.1637 50.9396 40.0768 50.9965 39.9812 51.0342C39.8855 51.0719 39.7831 51.0894 39.6804 51.0858ZM26.1695 49.4583H35.8312C34.7541 48.1188 34.1703 46.4497 34.1779 44.7308H27.8229C27.8304 46.4497 27.2467 48.1188 26.1695 49.4583Z" fill="white"/>
<path d="M42.2379 35.3275C42.0276 35.3166 41.8273 35.2346 41.6696 35.095L39.7838 33.1834L38.6729 34.2942C38.5789 34.3939 38.4593 34.4658 38.3272 34.5023C38.1952 34.5387 38.0556 34.5382 37.9238 34.5009C37.7868 34.4748 37.6604 34.4097 37.5595 34.3135C37.4587 34.2173 37.3878 34.0939 37.3554 33.9584L34.9788 26.2084C34.9421 26.0724 34.942 25.9293 34.9783 25.7932C35.0146 25.6572 35.0862 25.5332 35.1857 25.4337C35.2853 25.3341 35.4093 25.2626 35.5453 25.2262C35.6813 25.1899 35.8245 25.1901 35.9604 25.2267L43.7104 27.6034C43.84 27.6405 43.9576 27.7107 44.0517 27.8072C44.1458 27.9036 44.2131 28.0229 44.247 28.1534C44.2809 28.2838 44.2802 28.4208 44.245 28.5508C44.2098 28.6809 44.1413 28.7995 44.0463 28.895L42.9871 29.9542L44.8988 31.8659C44.973 31.9381 45.032 32.0244 45.0722 32.1198C45.1125 32.2152 45.1333 32.3177 45.1333 32.4213C45.1333 32.5248 45.1125 32.6273 45.0722 32.7227C45.032 32.8181 44.973 32.9045 44.8988 32.9767L42.6771 35.2242C42.5194 35.3638 42.3191 35.4458 42.1088 35.4567L42.2379 35.3275ZM39.7838 31.375C39.919 31.3755 40.0527 31.4032 40.177 31.4565C40.3012 31.5097 40.4135 31.5875 40.5071 31.685L42.2379 33.4159L43.3488 32.305L41.5146 30.4709C41.3504 30.2957 41.2582 30.0651 41.2563 29.825C41.2645 29.5939 41.3563 29.3736 41.5146 29.205L42.1346 28.585L36.9679 27.035L38.5438 32.2017L39.1121 31.6334C39.2952 31.4653 39.5353 31.373 39.7838 31.375Z" fill="white"/>
<path d="M40.4543 20.3441H18.3668C18.1589 20.3374 17.9618 20.2501 17.8172 20.1006C17.6725 19.9512 17.5917 19.7513 17.5918 19.5433V15.5908C17.5983 15.3873 17.682 15.1939 17.826 15.05C17.9699 14.906 18.1633 14.8223 18.3668 14.8158H40.4543C40.6623 14.8157 40.8622 14.8965 41.0116 15.0411C41.1611 15.1858 41.2484 15.3829 41.2551 15.5908V19.5433C41.2551 19.7557 41.1708 19.9594 41.0206 20.1096C40.8704 20.2598 40.6667 20.3441 40.4543 20.3441ZM19.1676 18.7425H39.6793V16.3916H19.1676V18.7425Z" fill="white"/>
<path d="M27.8477 28.2233H21.5444C21.4329 28.2341 21.3203 28.2215 21.214 28.1861C21.1078 28.1507 21.0101 28.0935 20.9273 28.018C20.8445 27.9425 20.7785 27.8505 20.7335 27.7479C20.6885 27.6454 20.6655 27.5345 20.666 27.4225V24.2708C20.6979 24.0692 20.808 23.8882 20.9724 23.7673C21.1369 23.6464 21.3424 23.5952 21.5444 23.625H27.8477C27.9504 23.6214 28.0528 23.6389 28.1485 23.6766C28.2441 23.7143 28.331 23.7712 28.4037 23.8439C28.4764 23.9166 28.5334 24.0035 28.571 24.0992C28.6087 24.1948 28.6263 24.2972 28.6227 24.4V27.5516C28.5975 27.7388 28.5049 27.9103 28.3622 28.034C28.2195 28.1577 28.0365 28.225 27.8477 28.2233ZM22.3194 26.6475H27.0469V25.0716H22.3194V26.6475Z" fill="white"/>
<path d="M27.8477 28.2233H21.5444C21.4329 28.2341 21.3203 28.2215 21.214 28.1861C21.1078 28.1507 21.0101 28.0935 20.9273 28.018C20.8445 27.9425 20.7785 27.8505 20.7335 27.7479C20.6885 27.6454 20.6655 27.5345 20.666 27.4225V24.2708C20.6979 24.0692 20.808 23.8882 20.9724 23.7673C21.1369 23.6464 21.3424 23.5952 21.5444 23.625H27.8477C27.9504 23.6214 28.0528 23.6389 28.1485 23.6766C28.2441 23.7143 28.331 23.7712 28.4037 23.8439C28.4764 23.9166 28.5334 24.0035 28.571 24.0992C28.6087 24.1948 28.6263 24.2972 28.6227 24.4V27.5516C28.5975 27.7388 28.5049 27.9103 28.3622 28.034C28.2195 28.1577 28.0365 28.225 27.8477 28.2233ZM22.3194 26.6475H27.0469V25.0716H22.3194V26.6475Z" fill="white"/>
<path d="M37.1476 31.375H18.3926C18.1802 31.375 17.9765 31.2907 17.8264 31.1405C17.6762 30.9903 17.5918 30.7866 17.5918 30.5742V15.5909C17.5985 15.383 17.6858 15.1859 17.8353 15.0412C17.9848 14.8966 18.1846 14.8158 18.3926 14.8159H40.4543C40.5582 14.8124 40.6618 14.8299 40.7588 14.8673C40.8558 14.9047 40.9444 14.9612 41.0191 15.0335C41.0938 15.1058 41.1532 15.1924 41.1938 15.2882C41.2343 15.3839 41.2552 15.4869 41.2551 15.5909V27.2675C41.2534 27.3912 41.2248 27.5131 41.1713 27.6246C41.1177 27.7361 41.0406 27.8346 40.9451 27.9134C40.8359 27.9642 40.7169 27.9905 40.5964 27.9905C40.4759 27.9905 40.3569 27.9642 40.2476 27.9134L36.9151 26.9317L37.9226 30.2642C37.9718 30.3739 37.9972 30.4927 37.9972 30.6129C37.9972 30.7332 37.9718 30.852 37.9226 30.9617C37.8439 31.0571 37.7454 31.1343 37.6339 31.1878C37.5223 31.2414 37.4005 31.27 37.2768 31.2717L37.1476 31.375ZM19.0643 29.7992H36.166L34.9776 26.2084C34.941 26.0724 34.9408 25.9292 34.9772 25.7932C35.0135 25.6572 35.085 25.5332 35.1846 25.4337C35.2841 25.3341 35.4082 25.2626 35.5442 25.2262C35.6802 25.1899 35.8234 25.1901 35.9593 25.2267L39.6793 26.3375V16.3917H19.1676L19.0643 29.7992Z" fill="white"/>
<path d="M37.1476 31.375H18.3926C18.1802 31.375 17.9765 31.2907 17.8264 31.1405C17.6762 30.9903 17.5918 30.7866 17.5918 30.5742V15.5909C17.5985 15.383 17.6858 15.1859 17.8353 15.0412C17.9848 14.8966 18.1846 14.8158 18.3926 14.8159H40.4543C40.5582 14.8124 40.6618 14.8299 40.7588 14.8673C40.8558 14.9047 40.9444 14.9612 41.0191 15.0335C41.0938 15.1058 41.1532 15.1924 41.1938 15.2882C41.2343 15.3839 41.2552 15.4869 41.2551 15.5909V27.2675C41.2534 27.3912 41.2248 27.5131 41.1713 27.6246C41.1177 27.7361 41.0406 27.8346 40.9451 27.9134C40.8359 27.9642 40.7169 27.9905 40.5964 27.9905C40.4759 27.9905 40.3569 27.9642 40.2476 27.9134L36.9151 26.9317L37.9226 30.2642C37.9718 30.3739 37.9972 30.4927 37.9972 30.6129C37.9972 30.7332 37.9718 30.852 37.9226 30.9617C37.8439 31.0571 37.7454 31.1343 37.6339 31.1878C37.5223 31.2414 37.4005 31.27 37.2768 31.2717L37.1476 31.375ZM19.0643 29.7992H36.166L34.9776 26.2084C34.941 26.0724 34.9408 25.9292 34.9772 25.7932C35.0135 25.6572 35.085 25.5332 35.1846 25.4337C35.2841 25.3341 35.4082 25.2626 35.5442 25.2262C35.6802 25.1899 35.8234 25.1901 35.9593 25.2267L39.6793 26.3375V16.3917H19.1676L19.0643 29.7992Z" fill="white"/>
<path d="M42.2379 35.3275C42.0276 35.3166 41.8273 35.2346 41.6696 35.095L39.7838 33.1834L38.6729 34.2942C38.5789 34.3939 38.4593 34.4658 38.3272 34.5023C38.1952 34.5387 38.0556 34.5382 37.9238 34.5009C37.7868 34.4748 37.6604 34.4097 37.5595 34.3135C37.4587 34.2173 37.3878 34.0939 37.3554 33.9584L34.9788 26.2084C34.9421 26.0724 34.942 25.9293 34.9783 25.7932C35.0146 25.6572 35.0862 25.5332 35.1857 25.4337C35.2853 25.3341 35.4093 25.2626 35.5453 25.2262C35.6813 25.1899 35.8245 25.1901 35.9604 25.2267L43.7104 27.6034C43.84 27.6405 43.9576 27.7107 44.0517 27.8072C44.1458 27.9036 44.2131 28.0229 44.247 28.1534C44.2809 28.2838 44.2802 28.4208 44.245 28.5508C44.2098 28.6809 44.1413 28.7995 44.0463 28.895L42.9871 29.9542L44.8988 31.8659C44.973 31.9381 45.032 32.0244 45.0722 32.1198C45.1125 32.2152 45.1333 32.3177 45.1333 32.4213C45.1333 32.5248 45.1125 32.6273 45.0722 32.7227C45.032 32.8181 44.973 32.9045 44.8988 32.9767L42.6771 35.2242C42.5194 35.3638 42.3191 35.4458 42.1088 35.4567L42.2379 35.3275ZM39.7838 31.375C39.919 31.3755 40.0527 31.4032 40.177 31.4565C40.3012 31.5097 40.4135 31.5875 40.5071 31.685L42.2379 33.4159L43.3488 32.305L41.5146 30.4709C41.3504 30.2957 41.2582 30.0651 41.2563 29.825C41.2645 29.5939 41.3563 29.3736 41.5146 29.205L42.1346 28.585L36.9679 27.035L38.5438 32.2017L39.1121 31.6334C39.2952 31.4653 39.5353 31.373 39.7838 31.375Z" fill="white"/>
</svg>
