<svg width="139" height="93" viewBox="0 0 139 93" fill="none" xmlns="http://www.w3.org/2000/svg">
<path fill-rule="evenodd" clip-rule="evenodd" d="M82.0067 55.0847C75.8379 59.6316 66.8967 62.0576 59.1984 62.0576C48.4042 62.0576 38.6866 58.0651 31.3349 51.4251C30.7574 50.9028 31.2749 50.1913 31.968 50.5979C39.9019 55.2141 49.7119 57.9912 59.8453 57.9912C66.6795 57.9912 74.1976 56.5773 81.1103 53.6431C82.1545 53.1995 83.0279 54.3269 82.0067 55.0847Z" fill="#161822"/>
<path fill-rule="evenodd" clip-rule="evenodd" d="M84.5712 52.1507C83.7857 51.1433 79.3589 51.6747 77.3719 51.9103C76.7666 51.9843 76.6743 51.4575 77.2195 51.0786C80.7451 48.5973 86.5304 49.3135 87.205 50.1452C87.8796 50.9816 87.0295 56.7807 83.7163 59.5485C83.208 59.9737 82.7228 59.7472 82.9492 59.1835C83.6933 57.326 85.3613 53.1626 84.5712 52.1507Z" fill="#161822"/>
<path fill-rule="evenodd" clip-rule="evenodd" d="M77.512 33.5607V31.1487C77.512 30.7836 77.7893 30.5387 78.122 30.5387H88.9208C89.2674 30.5387 89.5447 30.7882 89.5447 31.1487V33.2141C89.54 33.5607 89.2489 34.0135 88.7314 34.7298L83.1356 42.7191C85.215 42.6684 87.4098 42.9779 89.2951 44.0407C89.7203 44.281 89.8358 44.6322 89.8681 44.9787V47.5525C89.8681 47.9037 89.4799 48.3149 89.0734 48.1024C85.751 46.3604 81.3381 46.1709 77.6646 48.1209C77.2903 48.3243 76.8975 47.9176 76.8975 47.5664V45.122C76.8975 44.7292 76.9021 44.0592 77.2948 43.4631L83.7779 34.1661H78.1358C77.7893 34.1661 77.512 33.9212 77.512 33.5607ZM38.1197 48.6107H34.8343C34.52 48.5876 34.2706 48.352 34.2474 48.0515V31.1903C34.2474 30.8529 34.5293 30.5849 34.8804 30.5849H37.944C38.2629 30.5987 38.517 30.8437 38.5402 31.1486V33.3528H38.6003C39.3996 31.2227 40.9014 30.2293 42.9253 30.2293C44.9815 30.2293 46.2662 31.2227 47.1903 33.3528C47.9851 31.2227 49.7919 30.2293 51.728 30.2293C53.1049 30.2293 54.6114 30.7976 55.5309 32.0729C56.5705 33.4915 56.358 35.5524 56.358 37.3591L56.3533 48.0008C56.3533 48.3382 56.0715 48.6108 55.7203 48.6108H52.4396C52.1115 48.5877 51.8481 48.3244 51.8481 48.0008V39.0641C51.8481 38.3525 51.9128 36.578 51.7557 35.9035C51.5108 34.7714 50.7761 34.4525 49.8241 34.4525C49.0294 34.4525 48.1976 34.9839 47.8603 35.8342C47.523 36.6845 47.5554 38.1076 47.5554 39.0641V48.0007C47.5554 48.3381 47.2735 48.6107 46.9223 48.6107H43.6415C43.3088 48.5876 43.05 48.3243 43.05 48.0007L43.0455 39.0641C43.0455 37.1834 43.355 34.4157 41.0215 34.4157C38.6604 34.4157 38.7527 37.1141 38.7527 39.0641V48.0007C38.7527 48.3381 38.4709 48.6107 38.1197 48.6107ZM98.8417 30.2292C103.717 30.2292 106.355 34.4156 106.355 39.7387C106.355 44.8817 103.439 48.9619 98.8416 48.9619C94.0545 48.9619 91.4484 44.7754 91.4484 39.5585C91.4484 34.3093 94.0869 30.2292 98.8417 30.2292ZM98.8694 33.6716C96.4481 33.6716 96.2956 36.9709 96.2956 39.0271C96.2956 41.0881 96.2634 45.487 98.8417 45.487C101.388 45.487 101.508 41.9382 101.508 39.7757C101.508 38.3525 101.448 36.652 101.018 35.3028C100.648 34.129 99.9137 33.6716 98.8694 33.6716ZM112.676 48.6107H109.405C109.077 48.5876 108.813 48.3243 108.813 48.0007L108.809 31.1348C108.836 30.8252 109.109 30.5849 109.442 30.5849H112.487C112.773 30.5987 113.009 30.7929 113.074 31.0562V33.6347H113.134C114.053 31.3289 115.343 30.2292 117.611 30.2292C119.085 30.2292 120.523 30.7605 121.447 32.216C122.306 33.5653 122.306 35.8342 122.306 37.4654V48.0792C122.269 48.375 121.997 48.6107 121.673 48.6107H118.379C118.078 48.5876 117.829 48.3658 117.796 48.0792V38.9208C117.796 37.0771 118.009 34.3785 115.74 34.3785C114.941 34.3785 114.206 34.9146 113.841 35.7278C113.379 36.7584 113.319 37.7841 113.319 38.9209V48.0007C113.314 48.3381 113.028 48.6107 112.676 48.6107ZM68.9035 40.5567C68.9035 41.8366 68.9359 42.904 68.2889 44.0406C67.7668 44.9649 66.9351 45.5331 66.0155 45.5331C64.754 45.5331 64.0147 44.5721 64.0147 43.1535C64.0147 40.3533 66.5238 39.845 68.9035 39.845V40.5567ZM72.2165 48.5645C71.9995 48.7585 71.6852 48.7724 71.4403 48.643C70.3498 47.7373 70.1511 47.3169 69.5551 46.4528C67.7529 48.2919 66.473 48.8418 64.1394 48.8418C61.3716 48.8418 59.2229 47.1366 59.2229 43.722C59.2229 41.0557 60.6646 39.2397 62.7254 38.3525C64.5091 37.5669 66.9997 37.4283 68.9036 37.2111V36.7861C68.9036 36.0051 68.9636 35.0809 68.5015 34.4063C68.1041 33.801 67.337 33.5515 66.6578 33.5515C65.4055 33.5515 64.2919 34.1937 64.0193 35.5245C63.9638 35.8203 63.7466 36.1114 63.4463 36.1253L60.2626 35.7833C59.9946 35.7233 59.6942 35.5061 59.7728 35.0948C60.5029 31.2319 63.9962 30.0674 67.12 30.0674C68.7188 30.0674 70.8074 30.4925 72.0689 31.7032C73.6676 33.1957 73.5151 35.1872 73.5151 37.3544V42.4742C73.5151 44.013 74.1529 44.6875 74.7535 45.5193C74.9616 45.8151 75.0076 46.1709 74.7397 46.3927C74.0697 46.9518 72.8775 47.9915 72.2213 48.5737L72.2168 48.5645M25.8329 40.5567C25.8329 41.8366 25.8653 42.904 25.2183 44.0406C24.6962 44.9649 23.8691 45.5331 22.9449 45.5331C21.6835 45.5331 20.9487 44.5721 20.9487 43.1535C20.9487 40.3533 23.4579 39.845 25.8329 39.845V40.5567ZM29.146 48.5645C28.9289 48.7585 28.6147 48.7724 28.3698 48.643C27.2793 47.7373 27.0851 47.3169 26.4845 46.4528C24.6823 48.2919 23.4071 48.8418 21.0689 48.8418C18.3057 48.8418 16.1523 47.1366 16.1523 43.722C16.1523 41.0557 17.5987 39.2397 19.6549 38.3525C21.4386 37.5669 23.9292 37.4283 25.8329 37.2111V36.7861C25.8329 36.0051 25.893 35.0809 25.4355 34.4063C25.0335 33.801 24.2665 33.5515 23.5918 33.5515C22.3396 33.5515 21.2214 34.1937 20.9487 35.5245C20.8933 35.8203 20.6761 36.1114 20.3803 36.1253L17.192 35.7833C16.924 35.7233 16.6283 35.5061 16.7022 35.0948C17.4369 31.2319 20.9257 30.0674 24.0493 30.0674C25.648 30.0674 27.7367 30.4925 28.9982 31.7032C30.5969 33.1957 30.4445 35.1872 30.4445 37.3544V42.4742C30.4445 44.013 31.0821 44.6875 31.6829 45.5193C31.8955 45.8151 31.9417 46.1709 31.6736 46.3927C31.0036 46.9518 29.8115 47.9915 29.1553 48.5737L29.146 48.5645Z" fill="#161822"/>
</svg>
