<svg width="93" height="93" viewBox="0 0 93 93" fill="none" xmlns="http://www.w3.org/2000/svg">
<g clip-path="url(#clip0_5373_20111)">
<path d="M35.3661 57.2786C31.9427 55.0734 27.2968 54.6864 19.8044 56.7651C11.8168 58.6422 9.15365 59.8454 5.65615 57.43C4.31249 56.2434 3.83076 54.3329 4.19048 51.5809C5.0248 47.0948 7.27949 42.7776 11.2845 37.9887C13.5199 35.4976 15.5935 33.3598 18.3316 32.5013C20.4301 31.9627 20.2339 33.612 19.98 33.8478C19.712 33.8478 19.2619 33.89 18.914 34.117C18.6317 34.336 17.8567 35.043 17.8151 35.9941C17.7551 37.45 19.2617 37.1469 19.9115 36.3476C20.612 35.4468 21.6472 33.7218 20.8329 32.1141C20.4916 31.5418 19.9019 31.1464 19.1697 31.0117C16.6625 30.8684 14.3275 32.0636 12.1724 33.385C7.45947 36.6589 3.68942 41.1954 1.55617 46.1611C0.326361 49.1572 -0.785919 53.449 0.881236 56.9421C2.17108 59.3659 4.84862 60.6533 8.04321 60.3841C10.2838 60.1487 12.993 59.4245 14.8152 58.9873C16.6375 58.5493 25.9649 55.3431 29.0297 60.9234C29.0297 60.9234 30.0488 58.9451 32.5957 58.9029C34.6896 58.7097 37.7104 59.509 39.9102 61.1247C39.1773 60.0225 37.0995 58.3981 35.3661 57.2786Z" fill="#161822"/>
<path d="M20.7559 38.553C19.0114 37.4084 15.505 39.5966 12.6966 43.3501C10.1284 46.717 9.01947 50.6301 10.2264 52.4396C12.0215 54.5688 15.3544 51.4717 16.7716 49.814L16.9545 49.6202C17.9183 48.585 18.6628 47.3393 19.3836 46.144C19.3836 46.144 20.046 45.0499 20.0776 44.9993C20.487 44.9239 20.9802 44.806 21.5358 44.646C21.5279 44.6711 19.4098 48.2313 19.6259 49.9984C19.6932 50.5375 19.6419 52.5069 21.5646 53.1043C24.1273 53.5338 26.1736 51.5473 27.9788 49.7799C27.9788 49.7799 28.2865 49.4856 28.4605 49.3176C28.4164 49.4937 28.359 49.7289 28.359 49.7289C27.6088 52.338 28.6201 52.8856 29.2527 53.0875C31.1646 53.6434 33.4486 50.8658 33.4561 50.8658C33.3967 51.7407 33.2236 52.4644 34.1459 53.0453C35.0164 53.3569 35.8974 52.8818 36.5671 52.4357C38.9793 50.7357 40.9225 48.0749 42.4921 45.775H41.4909C41.479 45.775 39.0204 49.3386 37.4239 50.1131C37.4214 50.1131 37.1308 50.2623 36.9634 50.1443C36.7561 49.9675 36.8379 49.5999 36.9659 49.3395C36.9739 49.3226 43.1303 38.645 43.1303 38.645H40.2236C40.2236 38.645 39.9061 39.1587 39.8802 39.1924C39.8606 39.1756 39.8141 39.0873 39.7819 39.045C37.981 36.5538 33.9027 40.3856 30.8323 44.8292C29.6502 46.5379 28.1452 48.4617 26.5847 49.8504C26.5847 49.8504 24.2727 51.9696 23.285 50.447C22.9239 49.8072 23.035 48.8719 23.2386 48.2577C24.3888 44.9837 26.3706 42.0124 28.6258 40.2197C29.2623 39.7235 29.9544 39.5799 30.2977 39.7904C30.625 39.9843 30.6778 40.4636 30.4708 40.7919C29.9456 40.7751 29.5247 40.9348 29.1827 41.2883C28.5088 41.9953 28.2746 42.6771 28.4889 43.3169C29.5297 44.7981 31.6056 41.8691 31.5052 40.0849C31.4693 39.4452 31.1281 38.8393 30.6187 38.5445C29.8595 38.0902 28.7015 38.2079 27.952 38.57C26.9487 38.9486 25.3606 40.2698 24.4336 41.2968C23.2666 42.5847 21.265 44.0153 20.6392 43.8551C20.8438 43.3079 22.5344 39.8489 20.7559 38.553ZM34.7699 43.67C35.3354 42.8875 36.9811 40.7917 37.3824 40.4383C38.7318 39.2512 39.2711 39.7735 39.3178 40.1436C38.0585 42.399 36.5721 44.983 35.1746 47.306C35.1775 47.2977 34.7373 47.9708 34.7373 47.9708C34.1201 48.9131 33.4986 49.7212 32.4849 50.2849C32.3403 50.3274 32.102 50.3443 31.9435 50.2259C31.7526 50.0997 31.6772 49.8892 31.6987 49.6704C31.7596 48.9468 32.4963 46.7337 34.7699 43.67ZM18.9569 45.025C18.9569 45.025 18.9314 45.101 18.919 45.1258C18.9158 45.1258 17.6516 47.1875 17.6516 47.1875C16.8887 48.2061 15.9361 49.4857 14.7454 50.0998C14.3925 50.2175 13.9046 50.2936 13.6559 49.9824C13.1289 49.351 13.4005 48.4756 13.6212 47.7689L13.6994 47.5163C14.3321 45.7996 15.336 44.2844 16.3132 42.8788C16.3254 42.8705 16.3528 42.8622 16.3627 42.8622C16.3651 42.8705 16.369 42.8705 16.3706 42.8875C16.9838 44.0655 18.1336 44.6123 18.9934 44.8652C18.9986 44.8652 19.0042 44.8736 19.0042 44.8905C19.0043 44.9156 18.9903 44.9495 18.9569 45.025ZM20.1545 42.5929C20.1488 42.6097 19.5914 43.889 19.5914 43.889C19.5108 43.9563 19.3834 43.9227 19.2373 43.889L18.9871 43.8467C18.2013 43.6028 17.6086 43.0809 17.4259 42.4582C17.1739 41.2462 18.2092 40.2951 18.6653 39.9502C19.103 39.647 19.7835 39.4871 20.1786 39.7987C20.4223 40.0849 20.5146 40.4551 20.5146 40.8593C20.5148 41.4061 20.3459 42.0205 20.1545 42.5929ZM56.9016 46.4978C56.6212 45.8919 55.9559 45.5047 55.2468 45.5467C52.9442 45.7573 50.6919 47.6509 49.5092 50.3691C48.8887 51.7664 48.55 52.9192 48.328 54.754C49.0441 53.9294 50.5046 52.5745 52.162 51.8338C52.162 51.8338 52.3875 50.0748 53.5375 48.5093C53.9726 47.8611 54.8434 46.8176 55.8213 47.0952C56.6757 47.3814 56.3753 49.7465 55.2398 52.0352C54.3996 53.7187 53.1139 55.4024 51.813 56.5636C50.6629 57.5398 48.9613 58.7181 47.4725 57.8093C46.5348 57.2541 46.0565 56.0922 46.1575 54.5942C46.6055 50.3442 48.5403 46.7251 51.3089 42.6012C54.1636 38.7718 57.3105 34.8415 61.5497 32.7455C62.4144 32.3079 63.2152 32.2069 63.9074 32.4763C63.9074 32.4763 59.9279 34.6645 58.031 38.7128C57.5484 39.7398 56.8773 41.1281 57.5532 42.357C57.9063 42.9965 58.5333 43.0471 59.0383 43.0134C61.3634 42.4746 62.8657 40.3033 64.0931 38.3172C64.8047 36.8107 65.4372 35.3126 65.4372 33.6462C65.4372 33.4442 65.4267 33.175 65.4097 32.9728C66.5205 32.3839 68.7985 33.4273 68.7985 33.4273C70.5786 34.0167 74.3689 36.9204 75.6475 37.4757C76.2711 36.752 77.296 35.658 77.8732 35.1108L77.0377 34.5973C75.7003 33.7809 74.2866 33.0065 72.8952 32.2408C69.7351 30.5156 67.1628 31.1215 65.8537 31.5928C65.3392 31.7779 64.8691 31.9378 64.8691 31.9378C63.8976 30.8774 62.3041 30.9782 61.1301 31.2645C56.908 32.4764 52.988 35.4304 48.7853 40.5561C45.6955 44.5707 43.7789 48.0383 42.7574 51.4636C41.97 53.7696 41.7306 57.1613 43.6525 59.1728C45.2866 60.8809 47.4533 60.5109 48.9832 59.8968C52.2983 58.264 55.2779 54.7458 56.7625 50.6974C57.1209 49.4941 57.5184 47.794 56.9016 46.4978ZM64.5246 33.8146C64.0857 38.8476 60.1735 41.802 59.2055 42.0373C58.6189 42.1549 57.6179 41.8942 58.5116 39.782C59.8274 36.937 62.0742 34.5218 64.4846 33.2845C64.5433 33.4949 64.5417 33.6293 64.5246 33.8146ZM87.7313 34.454C85.627 35.6494 83.4454 36.4234 80.8048 36.1542C80.073 36.9792 79.3604 37.8292 78.7036 38.7043C82.4099 39.647 86.3392 37.5513 88.5306 35.5569C90.8489 33.5453 92.0375 31.0122 92.0375 31.0122C92.0375 31.0122 90.2999 32.9983 87.7313 34.454ZM47.9614 38.6452H45.2009L43.6438 41.1752H46.4037L47.9614 38.6452Z" fill="#161822"/>
<path d="M80.7932 57.513C80.4964 57.7149 80.0794 57.5596 80.2352 57.0969C80.6237 55.9186 82.1677 53.5174 82.1677 53.5174L86.4682 45.8899H83.5225C83.3824 46.1199 83.0831 46.648 83.0831 46.648C82.9468 46.421 82.5392 45.9162 82.3715 45.8071C81.6518 45.3523 80.596 45.5673 79.8676 45.9796C76.7006 47.8314 74.3899 51.4902 72.5675 54.3434C72.5675 54.3434 70.6492 57.5151 69.5844 57.751C68.753 57.8184 68.8388 56.6985 68.8748 56.4376C69.1963 54.552 69.9427 52.7595 70.6947 51.1352C72.2244 50.0748 73.97 48.6861 75.5564 47.1628C78.9993 43.8718 81.9018 40.1434 82.326 39.3102C82.326 39.3102 81.8668 39.4029 81.3246 39.4195C78.6759 43.1143 73.2557 48.4841 71.6125 49.2834C72.3405 47.5324 77.0437 39.1754 81.046 35.1778L81.6758 34.5716C82.6498 33.6206 83.6588 32.6443 84.4451 32.4844C84.5282 32.476 84.6351 32.4844 84.7275 32.6782C84.7625 33.4187 84.4869 33.9659 84.1706 34.5886L83.7274 35.4977C83.7274 35.4977 84.3552 35.3798 84.7676 35.2448C85.2459 34.3447 85.7758 33.3344 85.5804 32.1312C85.5153 31.744 85.235 31.4495 84.8687 31.3821C83.6747 31.1548 82.3736 32.0383 81.3266 32.7539L81.2844 32.779C75.9021 36.9956 71.3574 43.0722 67.384 51.3707C67.096 51.5892 65.9834 51.8504 65.7943 51.724C66.1867 50.9162 66.6807 49.8303 66.9279 48.652C66.9707 48.3151 67.0104 47.9704 67.0104 47.6338C67.0104 46.9094 66.8366 46.2279 66.1877 45.7568C65.4269 45.378 64.4865 45.5549 63.8524 45.8408C61.0123 47.0191 58.8895 49.9313 57.3576 52.3297C56.5337 53.8534 55.7123 55.4854 55.4848 57.3541C55.3246 58.8183 55.6507 59.7611 56.4833 60.2325C57.3394 60.6698 58.417 60.2152 58.8403 59.9966C61.7177 58.4816 63.7282 55.4435 65.3129 52.666C65.3759 52.6578 66.2412 52.6327 66.8958 52.4641C66.9044 52.4641 66.9081 52.4641 66.9226 52.4728C66.8851 52.5987 66.5469 53.6089 66.5469 53.6089C65.5425 56.5543 65.078 58.5576 66.0267 59.7442C67.3825 61.419 69.627 59.6855 71.4529 57.3959C71.061 60.1394 72.4828 60.569 73.5668 60.3587C74.8119 60.0223 76.1994 58.6922 76.8433 58.0107C76.6365 58.81 76.6926 60.2411 77.8254 60.3839C78.6016 60.5274 79.1827 60.1052 79.8549 59.7431C82.2663 58.4301 85.153 54.0547 85.9024 52.7897H84.9197C83.8543 54.4 82.4985 56.511 80.7932 57.513ZM59.1481 57.2199C58.9952 56.9926 58.9445 56.7442 58.9394 56.4755C58.9101 54.8252 60.6857 51.8699 61.9388 50.2599H61.9415C62.4666 51.4099 63.6559 52.1491 64.3738 52.4607C63.4822 54.4471 60.424 58.7011 59.1481 57.2199ZM64.8772 51.5726C64.7923 51.632 63.2926 51.1267 63.0027 49.738C62.7568 48.5425 63.5801 47.6083 64.3766 47.1375C64.7185 46.868 65.2335 46.7757 65.6112 46.9098C65.9619 47.1459 66.0569 47.5671 66.0569 48.0207C66.0569 48.299 66.0199 48.5849 65.9874 48.8457L65.9803 48.9049C65.7291 49.8379 65.3583 50.7346 64.8772 51.5726ZM76.9058 56.6898C76.9046 56.6898 76.6212 56.9422 76.6212 56.9422C76.2167 57.304 75.8004 57.6911 75.2978 57.4974C75.159 57.4471 75.0614 57.262 75.0379 57.1185C75.015 56.0833 75.4811 55.1241 75.9333 54.1899L76.0492 53.9458C77.3496 51.7745 78.8612 49.2159 81.0812 47.4403C81.4552 47.1704 81.8612 46.9436 82.2897 47.1205C82.3882 47.213 82.503 47.3729 82.503 47.5327C82.503 47.5834 82.4579 47.7179 82.4321 47.7599C81.812 48.7619 81.2216 49.8137 80.6474 50.8236C79.5252 52.8183 78.3611 54.8799 76.9058 56.6898Z" fill="#161822"/>
</g>
<defs>
<clipPath id="clip0_5373_20111">
<rect width="91.9999" height="92.1247" fill="white" transform="translate(0.0371094)"/>
</clipPath>
</defs>
</svg>
