<svg width="94" height="92" viewBox="0 0 94 92" fill="none" xmlns="http://www.w3.org/2000/svg">
<g clip-path="url(#clip0_6213_4130)">
<path d="M36.097 58.4598C32.5992 56.2066 27.8523 55.8112 20.197 57.9351C12.0358 59.853 9.31472 61.0824 5.74119 58.6144C4.36832 57.402 3.87612 55.45 4.24366 52.6382C5.09612 48.0545 7.39982 43.6435 11.4919 38.7505C13.7758 36.2053 15.8946 34.0209 18.6922 33.1438C20.8363 32.5935 20.6358 34.2786 20.3764 34.5196C20.1026 34.5196 19.6427 34.5627 19.2873 34.7947C18.9988 35.0184 18.207 35.7408 18.1645 36.7125C18.1031 38.2001 19.6425 37.8904 20.3065 37.0737C21.0222 36.1533 22.0799 34.3908 21.2479 32.7482C20.8992 32.1635 20.2966 31.7594 19.5485 31.6218C16.9868 31.4754 14.601 32.6966 12.3991 34.0467C7.58371 37.3918 3.73171 42.0269 1.55208 47.1006C0.295539 50.1618 -0.840921 54.5469 0.862477 58.1159C2.18036 60.5924 4.91611 61.9078 8.18014 61.6327C10.4694 61.3922 13.2376 60.6523 15.0994 60.2056C16.9613 59.758 26.4915 56.4821 29.6228 62.1838C29.6228 62.1838 30.6641 60.1624 33.2664 60.1193C35.4058 59.9219 38.4923 60.7387 40.7399 62.3894C39.991 61.2633 37.868 59.6036 36.097 58.4598Z" fill="#E61A27"/>
<path d="M21.1683 39.3268C19.3858 38.1573 15.8032 40.3931 12.9338 44.2282C10.3098 47.6682 9.1767 51.6664 10.4099 53.5153C12.244 55.6908 15.6493 52.5264 17.0974 50.8326L17.2842 50.6346C18.269 49.5769 19.0297 48.3041 19.7662 47.0828C19.7662 47.0828 20.443 45.9649 20.4753 45.9132C20.8936 45.8362 21.3974 45.7157 21.9652 45.5523C21.9571 45.5779 19.7929 49.2155 20.0137 51.021C20.0825 51.5718 20.0301 53.584 21.9945 54.1944C24.6129 54.6333 26.7037 52.6036 28.5482 50.7977C28.5482 50.7977 28.8625 50.497 29.0403 50.3254C28.9953 50.5054 28.9367 50.7457 28.9367 50.7457C28.1701 53.4115 29.2034 53.9709 29.8498 54.1773C31.8032 54.7452 34.1369 51.9073 34.1445 51.9073C34.0839 52.8012 33.907 53.5406 34.8494 54.1341C35.7387 54.4526 36.6389 53.967 37.3232 53.5113C39.7878 51.7744 41.7733 49.0557 43.377 46.7058H42.354C42.3419 46.7058 39.8299 50.3469 38.1986 51.1382C38.196 51.1382 37.8991 51.2906 37.7281 51.1701C37.5163 50.9895 37.5998 50.6138 37.7306 50.3478C37.7388 50.3305 44.0291 39.4208 44.0291 39.4208H41.0592C41.0592 39.4208 40.7347 39.9457 40.7083 39.9801C40.6883 39.9629 40.6407 39.8727 40.6078 39.8294C38.7678 37.2842 34.6009 41.1993 31.4637 45.7395C30.256 47.4853 28.7182 49.4509 27.1238 50.8697C27.1238 50.8697 24.7615 53.035 23.7523 51.4793C23.3834 50.8257 23.4969 49.8701 23.705 49.2425C24.8801 45.8973 26.905 42.8614 29.2093 41.0297C29.8596 40.5227 30.5667 40.3761 30.9175 40.5911C31.2519 40.7892 31.3058 41.2789 31.0943 41.6144C30.5577 41.5972 30.1277 41.7603 29.7782 42.1215C29.0897 42.8439 28.8504 43.5406 29.0693 44.1942C30.1328 45.7076 32.2538 42.715 32.1512 40.892C32.1146 40.2383 31.766 39.6194 31.2454 39.3181C30.4698 38.854 29.2866 38.9742 28.5208 39.3442C27.4957 39.731 25.8731 41.0809 24.9259 42.1302C23.7335 43.4461 21.6885 44.9078 21.049 44.7441C21.258 44.1851 22.9854 40.6509 21.1683 39.3268ZM35.4869 44.5551C36.0647 43.7555 37.7462 41.6142 38.1562 41.2531C39.5349 40.0401 40.086 40.5738 40.1337 40.9519C38.847 43.2565 37.3283 45.8966 35.9004 48.2701C35.9034 48.2616 35.4536 48.9493 35.4536 48.9493C34.823 49.9121 34.188 50.7378 33.1522 51.3138C33.0045 51.3571 32.7611 51.3744 32.599 51.2535C32.404 51.1245 32.327 50.9095 32.349 50.6859C32.4111 49.9465 33.1639 47.6854 35.4869 44.5551ZM19.3301 45.9394C19.3301 45.9394 19.3041 46.0171 19.2915 46.0425C19.2882 46.0425 17.9965 48.149 17.9965 48.149C17.217 49.1897 16.2437 50.4972 15.0271 51.1246C14.6665 51.2449 14.168 51.3226 13.9139 51.0046C13.3754 50.3596 13.653 49.4651 13.8785 48.743L13.9584 48.485C14.6048 46.7309 15.6305 45.1827 16.629 43.7467C16.6415 43.7382 16.6694 43.7296 16.6795 43.7296C16.682 43.7382 16.686 43.7382 16.6877 43.7555C17.3142 44.9591 18.4889 45.5179 19.3675 45.7762C19.3728 45.7762 19.3785 45.7848 19.3785 45.8021C19.3786 45.8277 19.3643 45.8624 19.3301 45.9394ZM20.5538 43.4546C20.548 43.4717 19.9785 44.7788 19.9785 44.7788C19.8961 44.8475 19.7659 44.8132 19.6167 44.7788L19.361 44.7355C18.5581 44.4863 17.9525 43.9531 17.7658 43.3168C17.5084 42.0785 18.5662 41.1068 19.0322 40.7544C19.4795 40.4446 20.1747 40.2812 20.5784 40.5995C20.8274 40.892 20.9218 41.2702 20.9218 41.6832C20.9219 42.242 20.7494 42.8696 20.5538 43.4546ZM58.0997 47.4443C57.8132 46.8253 57.1335 46.4297 56.409 46.4725C54.0563 46.6877 51.7551 48.6224 50.5467 51.3998C49.9127 52.8274 49.5666 54.0054 49.3397 55.8799C50.0714 55.0375 51.5637 53.6531 53.2571 52.8963C53.2571 52.8963 53.4875 51.0991 54.6625 49.4996C55.1071 48.8372 55.9968 47.771 56.9959 48.0547C57.8689 48.3471 57.562 50.7636 56.4018 53.1021C55.5434 54.8222 54.2297 56.5425 52.9006 57.7289C51.7254 58.7264 49.9868 59.9303 48.4656 59.0017C47.5075 58.4344 47.0189 57.2473 47.122 55.7167C47.5798 51.3743 49.5566 47.6766 52.3854 43.463C55.3023 39.5504 58.5175 35.5346 62.8489 33.393C63.7324 32.9459 64.5506 32.8428 65.2578 33.118C65.2578 33.118 61.1918 35.3538 59.2537 39.4901C58.7606 40.5394 58.0749 41.9578 58.7655 43.2134C59.1263 43.8669 59.7669 43.9186 60.2829 43.8841C62.6586 43.3336 64.1935 41.1151 65.4476 39.0859C66.1747 37.5467 66.8209 36.016 66.8209 34.3133C66.8209 34.107 66.8102 33.8319 66.7928 33.6253C67.9278 33.0236 70.2553 34.0897 70.2553 34.0897C72.0741 34.6919 75.9468 37.6588 77.2532 38.226C77.8904 37.4866 78.9375 36.3688 79.5272 35.8098L78.6736 35.2851C77.3071 34.451 75.8626 33.6598 74.441 32.8773C71.2122 31.1147 68.584 31.7337 67.2465 32.2153C66.7208 32.4044 66.2405 32.5678 66.2405 32.5678C65.2478 31.4844 63.6197 31.5873 62.4202 31.8799C58.1063 33.1181 54.1011 36.1363 49.807 41.3734C46.65 45.4753 44.6918 49.0183 43.648 52.518C42.8435 54.8741 42.599 58.3396 44.5626 60.3949C46.2322 62.1401 48.446 61.762 50.0092 61.1345C53.3964 59.4663 56.4407 55.8716 57.9576 51.7353C58.3238 50.5057 58.73 48.7687 58.0997 47.4443ZM65.8884 34.4854C65.44 39.6278 61.4428 42.6464 60.4537 42.8868C59.8543 43.007 58.8316 42.7406 59.7447 40.5825C61.0891 37.6757 63.3847 35.2079 65.8475 33.9438C65.9076 34.1588 65.9059 34.296 65.8884 34.4854ZM89.5997 35.1387C87.4496 36.36 85.2206 37.1509 82.5225 36.8758C81.7749 37.7188 81.0467 38.5872 80.3757 39.4814C84.1626 40.4446 88.1772 38.3034 90.4163 36.2656C92.785 34.2102 93.9995 31.6221 93.9995 31.6221C93.9995 31.6221 92.2241 33.6513 89.5997 35.1387ZM48.9651 39.421H46.1447L44.5537 42.006H47.3736L48.9651 39.421Z" fill="#E61A27"/>
<path d="M82.5112 58.699C82.208 58.9053 81.7819 58.7467 81.9411 58.2739C82.338 57.07 83.9156 54.6166 83.9156 54.6166L88.3096 46.8233H85.2999C85.1567 47.0583 84.8509 47.5978 84.8509 47.5978C84.7117 47.3659 84.2952 46.8502 84.1238 46.7387C83.3885 46.274 82.3097 46.4937 81.5655 46.9149C78.3296 48.807 75.9687 52.5453 74.1067 55.4606C74.1067 55.4606 72.1467 58.7012 71.0587 58.9422C70.2093 59.0111 70.297 57.8669 70.3338 57.6003C70.6622 55.6737 71.4249 53.8423 72.1932 52.1826C73.7562 51.0991 75.5397 49.6803 77.1606 48.1239C80.6783 44.7613 83.6439 40.9518 84.0774 40.1005C84.0774 40.1005 83.6082 40.1952 83.0542 40.2122C80.3479 43.9873 74.8099 49.4738 73.131 50.2906C73.8747 48.5015 78.6803 39.9628 82.7695 35.8783L83.413 35.2589C84.4082 34.2872 85.4391 33.2897 86.2426 33.1263C86.3274 33.1177 86.4367 33.1263 86.531 33.3244C86.5669 34.081 86.2852 34.64 85.9621 35.2763L85.5092 36.2051C85.5092 36.2051 86.1507 36.0847 86.572 35.9468C87.0607 35.0271 87.6022 33.9949 87.4025 32.7655C87.336 32.3698 87.0495 32.0689 86.6753 32.0001C85.4554 31.7679 84.126 32.6705 83.0562 33.4017L83.0131 33.4273C77.5138 37.7356 72.8703 43.9443 68.8105 52.4232C68.5163 52.6465 67.3795 52.9133 67.1863 52.7842C67.5872 51.9588 68.092 50.8493 68.3445 49.6454C68.3882 49.3012 68.4289 48.949 68.4289 48.605C68.4289 47.8649 68.2512 47.1686 67.5883 46.6873C66.8109 46.3003 65.8501 46.481 65.2022 46.7731C62.3003 47.977 60.1314 50.9526 58.5661 53.403C57.7244 54.9599 56.8851 56.6274 56.6526 58.5367C56.489 60.0327 56.8222 60.996 57.6729 61.4776C58.5476 61.9245 59.6485 61.46 60.0811 61.2366C63.021 59.6887 65.0753 56.5846 66.6944 53.7467C66.7588 53.7383 67.6429 53.7126 68.3117 53.5404C68.3205 53.5404 68.3243 53.5404 68.3391 53.5493C68.3008 53.6779 67.9552 54.7101 67.9552 54.7101C66.929 57.7195 66.4544 59.7664 67.4238 60.9787C68.809 62.69 71.1023 60.9188 72.9679 58.5794C72.5674 61.3826 74.0202 61.8214 75.1278 61.6067C76.3999 61.2628 77.8176 59.9038 78.4755 59.2075C78.2642 60.0243 78.3215 61.4864 79.4789 61.6324C80.272 61.779 80.8658 61.3476 81.5525 60.9777C84.0164 59.6361 86.9658 55.1655 87.7315 53.873H86.7275C85.6388 55.5184 84.2536 57.6752 82.5112 58.699ZM60.3956 58.3996C60.2393 58.1673 60.1875 57.9135 60.1824 57.639C60.1524 55.9528 61.9666 52.9333 63.247 51.2883H63.2497C63.7862 52.4633 65.0014 53.2186 65.7349 53.5369C64.824 55.5664 61.6993 59.913 60.3956 58.3996ZM66.2492 52.6295C66.1625 52.6902 64.6302 52.1739 64.334 50.7551C64.0828 49.5335 64.9239 48.5791 65.7377 48.098C66.0871 47.8226 66.6132 47.7284 66.9992 47.8654C67.3575 48.1066 67.4545 48.5369 67.4545 49.0004C67.4545 49.2848 67.4168 49.5769 67.3836 49.8434L67.3763 49.9038C67.1196 50.8571 66.7408 51.7733 66.2492 52.6295ZM78.5394 57.8579C78.5381 57.8579 78.2486 58.1158 78.2486 58.1158C77.8352 58.4855 77.4099 58.881 76.8964 58.6831C76.7546 58.6317 76.6548 58.4426 76.6308 58.296C76.6074 57.2382 77.0837 56.2582 77.5457 55.3037L77.6641 55.0543C78.9928 52.8357 80.5372 50.2216 82.8054 48.4074C83.1877 48.1316 83.6025 47.8999 84.0403 48.0806C84.141 48.1751 84.2582 48.3386 84.2582 48.5018C84.2582 48.5536 84.2122 48.691 84.1857 48.7339C83.5522 49.7577 82.9489 50.8324 82.3622 51.8643C81.2157 53.9023 80.0262 56.0087 78.5394 57.8579Z" fill="#E61A27"/>
</g>
<defs>
<clipPath id="clip0_6213_4130">
<rect width="94" height="94" fill="white"/>
</clipPath>
</defs>
</svg>
