<svg width="182" height="60" viewBox="0 0 182 60" fill="none" xmlns="http://www.w3.org/2000/svg">
<g clip-path="url(#clip0_4715_35702)">
<path d="M73.9943 44.8036L75.6931 43.1182C76.5033 43.9682 77.217 44.6937 77.9004 45.4322C78.0094 45.6041 78.1603 45.7453 78.3387 45.8426C78.5171 45.9399 78.7172 45.9901 78.9203 45.9885C79.1234 45.9869 79.3228 45.9336 79.4997 45.8336C79.6767 45.7335 79.8254 45.59 79.9319 45.4165C80.4513 44.9168 81.0032 44.4522 81.5839 44.0257C82.0351 44.4236 82.4062 44.6683 82.6992 44.9827C82.9096 45.1589 83.0702 45.3873 83.1651 45.6452C83.2599 45.9031 83.2858 46.1815 83.2401 46.4526C83.1943 46.7237 83.0785 46.9781 82.9043 47.1903C82.73 47.4026 82.5034 47.5654 82.247 47.6625C81.4513 48.0921 80.7086 48.6288 79.5846 49.3515C79.1318 49.1848 78.6877 48.9952 78.2539 48.7835C78.0089 48.6651 77.8653 48.3297 77.6211 48.1965C75.5317 47.168 75.5169 47.1671 73.9943 44.8036Z" fill="#2176FF" fill-opacity="0.37"/>
<path d="M67.7949 37.6928L69.9574 35.4246C71.7838 37.1515 72.0623 37.9706 71.2424 38.8151C70.4226 39.6596 69.6613 39.4964 67.7949 37.6928Z" fill="#2176FF" fill-opacity="0.37"/>
<path d="M87.9461 44.9607C87.1368 45.8802 86.5004 47.1367 85.1055 46.4014C84.8598 46.2309 84.6606 46.0014 84.526 45.7339C84.3914 45.4663 84.3257 45.1693 84.3349 44.8697C84.4254 44.5 84.5937 44.154 84.8284 43.8548C85.0631 43.5556 85.3587 43.3101 85.6956 43.1348C86.9163 42.7894 87.4008 43.8882 87.9461 44.9607Z" fill="#2176FF" fill-opacity="0.37"/>
<path d="M95.6172 51.2203L98.5794 51.2587C98.7448 53.5135 98.3013 54.5137 97.2169 54.5548C96.1325 54.5958 95.4881 53.6959 95.6172 51.2203Z" fill="#2176FF" fill-opacity="0.37"/>
<path d="M112.163 50.1008C111.718 50.4575 111.163 50.649 110.594 50.643C110.024 50.637 109.474 50.4338 109.037 50.0678C109.043 48.1798 109.543 47.2275 110.554 47.1821C111.564 47.1368 112.174 48.1239 112.163 50.1008Z" fill="#2176FF" fill-opacity="0.37"/>
<path d="M83.0877 10.5089C82.9234 11.0326 82.5645 11.4728 82.0855 11.7384C81.6064 12.004 81.044 12.0745 80.5147 11.9354C79.4043 10.384 79.2987 9.39646 80.1934 8.79424C81.0881 8.19202 82.0571 8.60524 83.0877 10.5089Z" fill="#2176FF" fill-opacity="0.37"/>
<path d="M78.2381 14.1378C77.7298 14.3254 77.1723 14.3302 76.661 14.1513C76.1496 13.9724 75.7161 13.6209 75.4345 13.157C75.8993 11.2807 76.7913 10.4702 77.8629 10.9043C78.9345 11.3383 78.9662 12.3215 78.2381 14.1378Z" fill="#2176FF" fill-opacity="0.37"/>
<path d="M119.219 41.6937C119.072 42.6962 118.939 43.6996 118.81 44.6437C116.338 44.3364 115.642 43.8201 115.876 42.5996C116.11 41.3791 116.859 41.2442 119.219 41.6937Z" fill="#2176FF" fill-opacity="0.37"/>
<path d="M129.315 26.8616C128.76 27.9892 128.19 29.1307 126.761 28.7205C126.484 28.5658 126.25 28.3432 126.082 28.0734C125.913 27.8036 125.816 27.4954 125.798 27.1776C125.818 26.8275 125.916 26.4864 126.085 26.1796C126.254 25.8728 126.491 25.6082 126.776 25.4055C128.11 24.8884 128.667 26.021 129.315 26.8616Z" fill="#2176FF" fill-opacity="0.37"/>
<path d="M153.035 12.7473C154.132 13.0044 155.094 12.5102 155.661 13.4799C155.905 13.8277 156.046 14.2381 156.066 14.6632C156 15.8043 155.286 16.1048 152.848 15.963L153.035 12.7473Z" fill="#2176FF" fill-opacity="0.37"/>
<path d="M103.669 51.8822C103.387 53.1742 102.627 54.0074 101.548 53.9595C101.165 53.868 100.823 53.6537 100.573 53.3494C100.324 53.045 100.18 52.6671 100.163 52.2731C100.075 51.4948 100.243 50.9098 100.925 50.652C101.453 50.4777 102.027 50.5072 102.534 50.7347C103.042 50.9622 103.447 51.3713 103.669 51.8822Z" fill="#2176FF" fill-opacity="0.37"/>
<path d="M124.011 32.6495C123.828 31.91 123.703 31.1569 123.638 30.3975C123.67 30.19 123.747 29.9923 123.865 29.8189C123.983 29.6456 124.138 29.5011 124.319 29.3962C125.209 28.8829 126.077 29.4984 126.95 31.3037C126.423 32.4626 125.472 32.7642 124.011 32.6495Z" fill="#2176FF" fill-opacity="0.37"/>
<path d="M39.8094 30.3262L38.5829 27.7123C40.5487 26.533 41.6175 26.5059 42.1367 27.5175C42.656 28.529 42.0142 29.369 39.8094 30.3262Z" fill="#2176FF" fill-opacity="0.37"/>
<path d="M131.096 19.1737C131.876 18.2526 132.615 17.2696 133.851 17.9214C134.095 18.0949 134.294 18.3247 134.431 18.5914C134.567 18.8581 134.638 19.154 134.637 19.4539C134.405 20.1244 133.788 21.055 133.203 21.1697C131.974 21.4105 131.553 20.2411 131.096 19.1737Z" fill="#2176FF" fill-opacity="0.37"/>
<path d="M68.7988 31.1641C69.2743 31.4185 69.6538 31.8218 69.8795 32.3128C70.1052 32.8037 70.1646 33.3553 70.0487 33.8835C68.3947 34.7984 67.2234 34.8046 66.8163 33.9037C66.4092 33.0027 66.9241 32.0513 68.7988 31.1641Z" fill="#2176FF" fill-opacity="0.37"/>
<path d="M66.8076 47.5678C65.7437 46.7476 65.9204 45.7468 66.2362 44.65C66.6381 44.3366 67.1396 44.1802 67.6476 44.2097C68.1557 44.2393 68.6357 44.4528 68.9986 44.8106C69.1468 45.0077 69.2485 45.236 69.296 45.4783C69.3435 45.7206 69.3357 45.9705 69.273 46.2093C68.8887 47.4657 67.8269 47.6271 66.8076 47.5678Z" fill="#2176FF" fill-opacity="0.37"/>
<path d="M52.6477 38.9533L49.6597 39.3594C49.1034 37.2008 49.3297 36.3665 50.3697 36.0701C51.4096 35.7737 52.0408 36.3903 52.6477 38.9533Z" fill="#2176FF" fill-opacity="0.37"/>
<path d="M162.351 25.0947L165.07 25.7583C164.949 27.833 164.224 28.8316 163.243 28.6259C162.262 28.4202 161.87 27.5053 162.351 25.0947Z" fill="#2176FF" fill-opacity="0.37"/>
<path d="M30.8791 22.8482C32.4347 21.5855 33.2697 21.5003 33.9548 22.2092C34.6398 22.9181 34.3736 23.9286 32.7041 25.1103C31.498 24.951 31.0735 24.0936 30.8791 22.8482Z" fill="#2176FF" fill-opacity="0.37"/>
<path d="M8.39602 29.8975C7.37491 31.3994 6.47061 31.9118 5.71354 31.4217C4.95646 30.9316 4.87597 29.7672 6.0613 28.2451C7.39583 27.9807 8.00098 28.7891 8.39602 29.8975Z" fill="#2176FF" fill-opacity="0.37"/>
<path d="M38.5821 25.6901C37.8083 26.5075 37.2093 27.6325 35.9995 27.0268C35.7623 26.8505 35.5711 26.6193 35.4421 26.3529C35.3131 26.0866 35.2501 25.7929 35.2584 25.4968C35.3841 24.8648 35.9397 23.9752 36.4506 23.8562C37.7764 23.4872 38.1393 24.6384 38.5821 25.6901Z" fill="#2176FF" fill-opacity="0.37"/>
<path d="M169.067 23.5819C169.309 24.7706 169.452 25.8941 168.254 26.3449C167.955 26.4053 167.645 26.3871 167.354 26.292C167.064 26.197 166.803 26.0283 166.596 25.8024C166.414 25.5108 166.301 25.1815 166.264 24.8394C166.227 24.4973 166.269 24.1513 166.385 23.8275C166.988 22.8812 168.051 23.2106 169.067 23.5819Z" fill="#2176FF" fill-opacity="0.37"/>
<path d="M99.1922 10.6128C100.098 11.3495 101.098 11.9875 100.526 13.1587C100.357 13.41 100.13 13.6159 99.8629 13.7585C99.5962 13.9012 99.2987 13.9761 98.9966 13.9767C98.3909 13.9415 97.5521 13.3277 97.3894 12.8127C97.1055 11.5769 98.1992 11.1201 99.1922 10.6128Z" fill="#2176FF" fill-opacity="0.37"/>
<path d="M89.0734 7.97262C89.9766 6.96943 90.9197 7.57443 91.8635 7.91181C92.0365 9.7805 91.5972 10.7066 90.5094 10.8069C89.4215 10.9072 88.9502 10.0917 89.0734 7.97262Z" fill="#2176FF" fill-opacity="0.37"/>
<path d="M72.4269 48.5489L70.3355 46.7917C71.5571 44.9 72.3806 44.5018 73.243 45.2211C74.1053 45.9403 73.944 46.6744 72.4269 48.5489Z" fill="#2176FF" fill-opacity="0.37"/>
<path d="M122.38 39.3497L120.174 41.095C118.62 39.5177 118.39 38.3743 119.318 37.7146C120.246 37.0548 121.008 37.4559 122.38 39.3497Z" fill="#2176FF" fill-opacity="0.37"/>
<path d="M123.035 36.9792C121.097 35.9 120.62 35.1883 121.206 34.2708C121.793 33.3533 122.55 33.3379 124.17 34.2796C124.326 34.7916 124.298 35.3423 124.09 35.8356C123.883 36.329 123.509 36.7337 123.035 36.9792Z" fill="#2176FF" fill-opacity="0.37"/>
<path d="M101.689 32.1841C102.37 33.2199 102.826 34.2873 101.901 35.1702C101.633 35.3251 101.332 35.4105 101.023 35.4185C100.714 35.4265 100.409 35.357 100.134 35.2162C99.8434 35.0206 99.6014 34.7608 99.4264 34.4568C99.2514 34.1529 99.148 33.8127 99.1243 33.4624C99.3418 32.2707 100.504 32.1747 101.689 32.1841Z" fill="#2176FF" fill-opacity="0.37"/>
<path d="M22.3726 20.7775C23.5682 20.6091 24.617 20.67 24.946 21.8936C24.9783 22.1671 24.9397 22.4444 24.8341 22.6987C24.7284 22.953 24.5592 23.1757 24.3428 23.3454C24.0419 23.5017 23.7113 23.5922 23.373 23.611C23.0346 23.6297 22.6962 23.5763 22.38 23.4543C21.5159 22.7647 21.8856 21.7602 22.3726 20.7775Z" fill="#2176FF" fill-opacity="0.37"/>
<path d="M69.128 19.6002C69.6159 18.6026 70.1324 17.6215 71.3646 17.8419C71.7782 17.8659 72.4147 18.6464 72.3636 19.0151C72.3214 19.7412 71.9656 20.7614 71.4313 21.0277C70.3654 21.5159 69.7081 20.5856 69.128 19.6002Z" fill="#2176FF" fill-opacity="0.37"/>
<path d="M160.285 16.782C158.746 17.763 157.587 17.7998 157.091 16.9085C156.594 16.0172 157.19 15.2043 158.869 14.3652C159.356 14.5292 159.767 14.864 160.027 15.308C160.287 15.7521 160.379 16.2755 160.285 16.782Z" fill="#2176FF" fill-opacity="0.37"/>
<path d="M103.641 22.0827C102.224 20.9595 101.797 20.1466 102.317 19.359C102.837 18.5715 103.844 18.5854 105.262 19.6938C105.007 21.27 105.007 21.27 103.641 22.0827Z" fill="#2176FF" fill-opacity="0.37"/>
<path d="M41.9811 31.2552C42.6233 30.7535 43.2986 30.296 44.0024 29.8858C44.2317 29.7653 44.741 29.9288 44.9775 30.1953C45.1342 30.3781 45.2527 30.5907 45.3257 30.8205C45.3988 31.0502 45.425 31.2924 45.4027 31.5326C45.3804 31.7727 45.3102 32.0059 45.1961 32.2183C45.0821 32.4307 44.9266 32.6178 44.7389 32.7686C44.0294 33.5006 43.4106 33.1821 41.9811 31.2552Z" fill="#2176FF" fill-opacity="0.37"/>
<path d="M45.4218 34.5333L47.4143 32.8946C48.2288 33.6705 49.0702 34.2399 48.7562 35.307C48.6597 35.5653 48.5027 35.7966 48.2985 35.9814C48.0943 36.1662 47.8488 36.2991 47.5828 36.3689C46.4611 36.5416 45.9628 35.6799 45.4218 34.5333Z" fill="#2176FF" fill-opacity="0.37"/>
<path d="M56.858 43.3167C57.9032 41.3998 58.6459 40.8631 59.4394 41.2364C60.2329 41.6096 60.3994 42.571 59.4098 44.5505L56.858 43.3167Z" fill="#2176FF" fill-opacity="0.37"/>
<path d="M93.7476 11.2328C93.4786 10.2507 93.1983 9.20841 94.2902 8.52844C94.4272 8.43077 94.5838 8.36426 94.749 8.33359C94.9142 8.30291 95.0841 8.3088 95.2468 8.35083C95.4095 8.39285 95.5611 8.46999 95.691 8.5769C95.8209 8.6838 95.9259 8.81787 95.9987 8.96974C96.2762 9.55089 96.5773 10.4903 96.3143 10.9359C95.7256 11.8831 94.6723 11.6434 93.7476 11.2328Z" fill="#2176FF" fill-opacity="0.37"/>
<path d="M52.8529 40.8087L54.3543 38.6954C56.1709 39.8269 56.6118 40.6555 55.9988 41.512C55.3858 42.3685 54.4759 42.2115 52.8529 40.8087Z" fill="#2176FF" fill-opacity="0.37"/>
<path d="M101.355 30.247C101.242 29.1252 101.695 28.2296 102.752 28.1424C103.259 28.0975 103.99 28.7794 104.314 29.3187C104.402 29.5666 104.422 29.8333 104.373 30.0918C104.324 30.3502 104.208 30.591 104.036 30.7894C103.027 31.5635 102.125 31.0203 101.355 30.247Z" fill="#2176FF" fill-opacity="0.37"/>
<path d="M141.859 12.7664C142.07 15.009 141.775 15.7354 140.849 15.86C139.923 15.9845 139.392 15.4332 139.055 13.0644L141.859 12.7664Z" fill="#2176FF" fill-opacity="0.37"/>
<path d="M135.213 17.6884L135.366 15.0507C136.326 15.1065 137.29 14.5975 137.849 15.6857C137.962 15.8943 138.032 16.1237 138.054 16.3602C138.076 16.5966 138.049 16.8351 137.977 17.0611C137.398 18.0832 136.416 17.8922 135.213 17.6884Z" fill="#2176FF" fill-opacity="0.37"/>
<path d="M61.9591 43.2416C63.9619 43.2094 64.7381 43.6263 64.7082 44.6505C64.6766 44.8834 64.5957 45.107 64.4709 45.306C64.3462 45.505 64.1804 45.675 63.9847 45.8045C63.789 45.9339 63.568 46.0199 63.3366 46.0566C63.1051 46.0933 62.8684 46.0799 62.6426 46.0173C61.6702 45.9161 61.4884 45.4744 61.9591 43.2416Z" fill="#2176FF" fill-opacity="0.37"/>
<path d="M160.376 30.779C159.173 30.8132 158.234 30.6545 158.006 29.4814C157.955 29.3228 157.937 29.1552 157.955 28.9895C157.972 28.8237 158.023 28.6633 158.106 28.5185C158.188 28.3736 158.299 28.2475 158.433 28.1482C158.566 28.0488 158.719 27.9784 158.881 27.9414C159.183 27.8655 159.497 27.8514 159.805 27.9C160.113 27.9485 160.408 28.0587 160.673 28.224C161.485 29.0296 160.93 29.9191 160.376 30.779Z" fill="#2176FF" fill-opacity="0.37"/>
<path d="M90.7321 44.4981C89.6597 44.3316 88.6577 43.976 88.6406 42.7408C88.6968 42.4745 88.8196 42.2269 88.9975 42.0214C89.1754 41.8158 89.4025 41.659 89.6575 41.5659C89.997 41.5182 90.3427 41.5432 90.6718 41.6392C91.0008 41.7352 91.3059 41.9001 91.5668 42.1229C92.2511 43.0995 91.4347 43.8847 90.7321 44.4981Z" fill="#2176FF" fill-opacity="0.37"/>
<path d="M3.14901 39.1234C2.18464 39.3945 1.19676 39.5601 0.696599 38.4753C0.632318 38.2187 0.633577 37.95 0.700278 37.6939C0.766979 37.4379 0.896941 37.2029 1.07817 37.0106C1.64456 36.7015 2.59245 36.4593 3.04964 36.7535C3.93622 37.3106 3.52397 38.2828 3.14901 39.1234Z" fill="#2176FF" fill-opacity="0.37"/>
<path d="M73.8235 40.809C73.8953 41.8689 73.7029 42.8837 72.5256 42.9937C72.0181 43.0534 71.2697 42.4151 70.9149 41.8889C70.8388 41.6403 70.8231 41.3771 70.8689 41.1212C70.9147 40.8652 71.0208 40.6239 71.1784 40.4173C72.211 39.4811 73.0768 40.1411 73.8235 40.809Z" fill="#2176FF" fill-opacity="0.37"/>
<path d="M88.8698 50.0104C89.4616 51.8142 89.3525 52.6703 88.5498 52.9656C87.747 53.2609 87.0725 52.8797 86.2662 51.1972C86.7053 50.0184 87.702 49.9574 88.8698 50.0104Z" fill="#2176FF" fill-opacity="0.37"/>
<path d="M68.3446 25.4576L67.2722 23.2541C68.1069 22.6633 68.7026 21.8504 69.6587 22.4858C70.0446 22.7313 70.5505 23.2068 70.5446 23.5633C70.5522 24.7087 69.6531 25.1322 68.3446 25.4576Z" fill="#2176FF" fill-opacity="0.37"/>
<path d="M151.647 13.4101L149.551 14.7752C148.286 13.3337 148.088 12.4151 148.823 11.759C149.557 11.1029 150.37 11.6557 151.647 13.4101Z" fill="#2176FF" fill-opacity="0.37"/>
<path d="M87.0892 8.18436C86.9823 10.0219 86.5665 10.8007 85.6523 10.7178C85.2252 10.6171 84.8499 10.3626 84.5976 10.0025C84.3452 9.64249 84.2335 9.20201 84.2837 8.7647C84.4283 7.80662 85.1043 7.65262 87.0892 8.18436Z" fill="#2176FF" fill-opacity="0.37"/>
<path d="M169.075 18.8542C169.168 19.8112 168.619 20.0767 167.875 20.1226C166.864 20.1828 166.255 19.6865 166.233 18.793C166.206 18.5927 166.221 18.389 166.276 18.1945C166.331 18 166.425 17.8187 166.552 17.6618C166.679 17.5049 166.836 17.3757 167.015 17.2821C167.194 17.1885 167.389 17.1324 167.59 17.1174C168.497 17.066 169.076 17.8283 169.075 18.8542Z" fill="#2176FF" fill-opacity="0.37"/>
<path d="M106.731 52.5506C105.711 52.4913 104.787 52.0807 104.793 50.951C104.852 50.6583 104.983 50.3851 105.175 50.157C105.367 49.929 105.614 49.7535 105.892 49.6469C106.197 49.5984 106.509 49.6239 106.803 49.7211C107.096 49.8183 107.362 49.9846 107.579 50.2059C108.189 51.1782 107.609 51.9771 106.731 52.5506Z" fill="#2176FF" fill-opacity="0.37"/>
<path d="M69.8486 28.4147C69.4085 29.3556 68.6825 30.1163 67.6648 29.7747C67.1851 29.6129 66.8092 28.6841 66.742 28.0557C66.7767 27.7896 66.8792 27.537 67.0397 27.3223C67.2002 27.1076 67.4132 26.9381 67.6581 26.8302C68.9041 26.5606 69.4111 27.5269 69.8486 28.4147Z" fill="#2176FF" fill-opacity="0.37"/>
<path d="M72.9681 17.3255L72.0694 15.1916C72.9631 14.3514 73.785 13.9829 74.6281 14.5226C74.8152 14.6804 74.9633 14.8797 75.0608 15.1046C75.1583 15.3296 75.2026 15.5741 75.19 15.8191C75.0428 16.8217 74.1645 17.1423 72.9681 17.3255Z" fill="#2176FF" fill-opacity="0.37"/>
<path d="M172.427 24.4018C171.29 24.3357 170.459 23.8413 170.416 22.798C170.462 22.5263 170.578 22.2711 170.751 22.0572C170.924 21.8433 171.15 21.6778 171.406 21.5768C171.747 21.5314 172.094 21.5603 172.423 21.6615C172.752 21.7628 173.056 21.934 173.313 22.1635C173.877 22.9249 173.369 23.7577 172.427 24.4018Z" fill="#2176FF" fill-opacity="0.37"/>
<path d="M131.596 23.0835C131.084 23.9756 130.669 24.9923 129.505 24.6272C129.267 24.5164 129.06 24.3474 128.904 24.1357C128.748 23.924 128.648 23.6763 128.612 23.4155C128.642 23.0783 128.744 22.7513 128.909 22.456C129.074 22.1607 129.3 21.9037 129.571 21.7019C130.529 21.2818 131.119 22.1041 131.596 23.0835Z" fill="#2176FF" fill-opacity="0.37"/>
<path d="M102.361 25.4729C102.699 24.5111 102.886 23.3325 104.213 23.4542C104.472 23.5415 104.707 23.6921 104.894 23.8924C105.082 24.0927 105.217 24.3366 105.287 24.6021C105.327 24.9141 105.299 25.2311 105.205 25.5312C105.111 25.8313 104.953 26.1072 104.742 26.3398C103.706 27.0677 103.018 26.1504 102.361 25.4729Z" fill="#2176FF" fill-opacity="0.37"/>
<path d="M143.614 13.1659C143.941 12.1293 144.464 11.2824 145.594 11.4819C145.845 11.5796 146.067 11.7398 146.239 11.9476C146.411 12.1553 146.528 12.4037 146.577 12.6692C146.581 12.9782 146.516 13.2841 146.387 13.5646C146.258 13.8452 146.068 14.0934 145.831 14.2911C144.824 14.7827 144.172 14.0162 143.614 13.1659Z" fill="#2176FF" fill-opacity="0.37"/>
<path d="M98.7492 38.8682L96.3646 38.3281C96.8372 36.3185 97.3651 35.6504 98.1838 35.8467C99.0024 36.043 99.2435 36.9937 98.7492 38.8682Z" fill="#2176FF" fill-opacity="0.37"/>
<path d="M164.267 11.0064C163.778 12.0188 163.05 12.5564 162.141 12.1318C161.896 11.9554 161.694 11.7256 161.551 11.4598C161.407 11.1939 161.325 10.8988 161.311 10.5967C161.349 10.3279 161.455 10.0732 161.618 9.85638C161.781 9.6396 161.996 9.46785 162.243 9.35725C163.4 9.08255 163.898 9.94419 164.267 11.0064Z" fill="#2176FF" fill-opacity="0.37"/>
<path d="M92.946 39.289C95.0921 39.0866 95.9004 39.4607 95.847 40.3795C95.7935 41.2983 95.2646 41.7285 93.1949 41.8906L92.946 39.289Z" fill="#2176FF" fill-opacity="0.37"/>
<path d="M173.292 19.9468C172.833 18.9239 172.533 17.9697 173.593 17.3324C173.805 17.2402 174.036 17.1992 174.266 17.2126C174.497 17.226 174.722 17.2935 174.922 17.4097C175.336 17.9393 175.82 18.7853 175.657 19.2963C175.313 20.3766 174.332 20.1708 173.292 19.9468Z" fill="#2176FF" fill-opacity="0.37"/>
<path d="M180.864 22.023C180.12 22.5894 179.704 23.1153 179.192 23.2491C178.681 23.383 177.491 22.4217 177.447 21.6608C177.429 21.4575 177.458 21.2528 177.533 21.063C177.608 20.8732 177.726 20.7036 177.878 20.5679C178.03 20.4322 178.212 20.3341 178.408 20.2814C178.605 20.2288 178.811 20.2231 179.01 20.2647C179.677 20.5265 180.108 21.2653 180.864 22.023Z" fill="#2176FF" fill-opacity="0.37"/>
<path d="M101.284 14.6449C102.252 14.5674 103.311 14.4505 103.564 15.6994C103.657 16.136 103.309 17.0228 102.991 17.153C102.669 17.2748 102.325 17.3275 101.981 17.3075C101.638 17.2876 101.302 17.1954 100.996 17.037C100.168 16.2454 100.724 15.341 101.284 14.6449Z" fill="#2176FF" fill-opacity="0.37"/>
<path d="M19.6634 24.2628C17.8518 24.3211 17.2182 24.0017 17.1881 22.9888C17.1581 21.976 17.5568 21.7464 19.5856 21.5224C19.9533 21.8781 20.1674 22.3642 20.1819 22.8764C20.1965 23.3887 20.0103 23.8864 19.6634 24.2628Z" fill="#2176FF" fill-opacity="0.37"/>
<path d="M81.678 49.2505L84.2426 48.225C85.0803 50.1323 85.0607 50.9787 84.2693 51.3342C83.4779 51.6896 82.6731 51.2562 81.678 49.2505Z" fill="#2176FF" fill-opacity="0.37"/>
<path d="M161.319 17.6004L163.309 16.0062C164.7 17.574 164.819 18.3244 164.164 18.8959C163.508 19.4674 162.637 19.1491 161.319 17.6004Z" fill="#2176FF" fill-opacity="0.37"/>
<path d="M166.452 11.9214C167.839 13.5633 168.069 14.4391 167.328 14.9462C166.587 15.4533 165.934 15.2219 164.624 13.7927L166.452 11.9214Z" fill="#2176FF" fill-opacity="0.37"/>
<path d="M15.686 25.6079L13.3808 25.7415C13.0323 23.8329 13.3351 22.9583 14.2561 22.9227C15.1772 22.887 15.5381 23.5622 15.686 25.6079Z" fill="#2176FF" fill-opacity="0.37"/>
<path d="M9.55406 28.3589C8.78504 26.5448 8.88191 25.6434 9.72638 25.3951C10.5709 25.1468 11.1907 25.7033 11.7903 27.6265L9.55406 28.3589Z" fill="#2176FF" fill-opacity="0.37"/>
<path d="M29.7749 22.4568L27.8771 23.9969C26.486 22.4291 26.291 21.7041 26.9911 21.1351C27.6912 20.5662 28.5907 20.901 29.7749 22.4568Z" fill="#2176FF" fill-opacity="0.37"/>
<path d="M113.335 47.552C112.868 46.6624 112.789 45.7211 113.706 45.2391C114.007 45.1701 114.319 45.1647 114.622 45.2233C114.925 45.2818 115.212 45.4031 115.465 45.5793C115.626 45.7525 115.74 45.9639 115.796 46.1934C115.853 46.423 115.85 46.6633 115.789 46.8917C115.279 48.0218 114.285 47.7856 113.335 47.552Z" fill="#2176FF" fill-opacity="0.37"/>
<path d="M170.965 15.1132C171.531 15.8301 171.972 16.6586 171.202 17.4168C170.978 17.5473 170.726 17.6224 170.468 17.6358C170.209 17.6492 169.951 17.6005 169.715 17.4939C169.479 17.3398 169.284 17.1307 169.146 16.8845C169.008 16.6383 168.931 16.3622 168.923 16.0798C169.087 15.0337 169.984 14.9074 170.965 15.1132Z" fill="#2176FF" fill-opacity="0.37"/>
<path d="M91.3197 53.7214C91.2696 52.5438 90.7956 51.52 91.8598 51.0615C92.1129 50.9984 92.3773 50.9961 92.6314 51.0548C92.8856 51.1134 93.1223 51.2315 93.3223 51.3993C93.6519 51.8497 93.8045 53.0481 93.6212 53.1415C92.8833 53.4372 92.1093 53.6322 91.3197 53.7214Z" fill="#2176FF" fill-opacity="0.37"/>
<path d="M4.83989 32.471C5.15147 33.4854 5.37956 34.4057 4.40054 34.9286C4.17382 35.0027 3.93263 35.0208 3.6975 34.9812C3.46238 34.9416 3.2403 34.8456 3.05015 34.7014C2.85656 34.4521 2.71697 34.165 2.64036 33.8584C2.56376 33.5518 2.55181 33.2326 2.60526 32.921C2.99758 32.0368 3.90568 32.2234 4.83989 32.471Z" fill="#2176FF" fill-opacity="0.37"/>
<path d="M3.70851 40.9256C5.12714 42.0192 5.12712 42.0192 3.86966 43.5073C3.51389 42.7432 3.00525 42.0594 3.70851 40.9256Z" fill="#2176FF" fill-opacity="0.37"/>
</g>
<defs>
<clipPath id="clip0_4715_35702">
<rect width="179" height="49" fill="white" transform="translate(2.84375) rotate(3.32757)"/>
</clipPath>
</defs>
</svg>
