<svg width="139" height="92" viewBox="0 0 139 92" fill="none" xmlns="http://www.w3.org/2000/svg">
<path d="M66.9946 72.6446C63.4744 72.5518 59.5923 72.2418 56.156 71.7796C41.5256 69.8114 29.2663 64.7944 22.4413 57.9831C19.547 55.0949 17.713 51.9211 17.0946 48.7315C16.8931 47.6926 16.8457 47.1833 16.8457 46.0629C16.8457 44.9423 16.8934 44.4333 17.0946 43.3944C17.5012 41.2974 18.4667 39.1356 19.8913 37.1318C23.1137 32.6006 28.7675 28.5663 36.1856 25.5057C48.5499 20.4035 64.7394 18.3825 80.5041 19.9731C99.0108 21.8398 114.235 28.5933 120.276 37.6153C123.038 41.74 123.714 46.22 122.237 50.5983C121.383 53.1267 119.725 55.6534 117.392 57.9828C110.925 64.4364 99.5445 69.303 85.8847 71.456C79.7757 72.4192 73.4775 72.815 66.9943 72.6443L66.9946 72.6446ZM75.0655 69.2391C82.4729 68.7807 88.7282 67.6919 94.8238 65.8C99.6602 64.2988 104.168 62.2209 107.629 59.8969C109.374 58.7261 110.584 57.7377 111.952 56.3662C113.577 54.7375 114.626 53.3085 115.48 51.5593C116.435 49.6023 116.805 48.0683 116.805 46.0626C116.805 44.0458 116.41 42.4301 115.443 40.4797C114.607 38.7932 113.539 37.3502 111.952 35.7594C109.621 33.4233 106.852 31.4965 103.192 29.6643C96.3406 26.2347 87.7684 23.9908 78.2189 23.1274C72.9295 22.6492 66.9202 22.6489 61.614 23.1268C48.1882 24.3358 36.6632 28.3211 29.532 34.2207C28.6276 34.969 27.0154 36.5967 26.3396 37.4443C23.9231 40.4734 22.7821 43.7422 23.0422 46.8914C23.3251 50.323 24.8705 53.3489 27.8808 56.3662C30.1609 58.652 32.872 60.5518 36.3977 62.3347C44.4266 66.3945 54.2921 68.7209 65.8953 69.2913C67.2057 69.3558 73.7885 69.3183 75.0655 69.2395V69.2391ZM37.4296 59.5186C37.3661 59.4919 37.2618 59.4124 37.1982 59.3419C37.0834 59.2141 37.0825 59.1212 37.0679 46.8262L37.0529 34.4391L36.8997 34.2792C36.7547 34.1278 36.7147 34.1183 36.1621 34.103L35.5781 34.0865V32.5243L39.7825 32.5097L43.9866 32.4947L44.165 32.6448L44.3436 32.7951V37.2609C44.3436 42.1675 44.3303 41.9838 44.6832 41.9838C44.9022 41.9838 44.9779 41.8925 46.1977 40.1615C49.4287 35.5753 51.2058 33.0806 51.3663 32.9077C51.7612 32.481 51.5822 32.4982 55.6718 32.4966L59.3339 32.4953L59.4734 32.6352C59.6451 32.8069 59.7097 33.0409 59.6318 33.2084C59.5822 33.3146 57.9977 35.6675 52.4647 43.8506C51.8607 44.7439 51.6919 45.0351 51.6931 45.1814C51.6947 45.333 52.0877 45.9227 53.7653 48.2906C61.179 58.7534 61.2029 58.7877 61.2258 58.9992C61.243 59.1581 61.2143 59.2462 61.1034 59.3752L60.9587 59.5437L57.1342 59.5593C53.3631 59.5746 53.3056 59.5733 53.0281 59.4538C52.8732 59.387 52.6819 59.263 52.603 59.1778C52.5242 59.0926 50.7807 56.6663 48.7289 53.7866C46.6771 50.907 44.9566 48.5163 44.9057 48.4743C44.7633 48.356 44.5019 48.4123 44.418 48.5795C44.3611 48.6927 44.3449 49.8715 44.3446 53.9714L44.3436 59.2188L44.2037 59.381L44.0642 59.5434L40.8049 59.5552C39.0119 59.5615 37.4932 59.545 37.4296 59.5186ZM66.4723 59.4926C66.3763 59.4503 66.2657 59.3454 66.2266 59.2598C66.1712 59.1384 66.1557 56.3859 66.1557 46.7789V34.454L65.9865 34.2849C65.8231 34.1215 65.7987 34.1158 65.2633 34.1158H64.7092V32.4957H73.2703L73.4591 32.6645L73.6483 32.8333V59.223L73.4877 59.3835L73.3275 59.5437L69.9875 59.5568C67.3122 59.5673 66.6125 59.5542 66.4723 59.4929V59.4926ZM78.9132 59.5027C78.7333 59.3994 78.6567 59.2707 78.6544 59.0691C78.6535 58.9674 79.4746 56.4285 80.4796 53.428L84.031 42.8228C84.7696 40.6154 85.5106 38.4089 86.2542 36.2032C86.5282 35.3944 86.7526 34.6619 86.7526 34.5751C86.7526 34.4883 86.7031 34.3561 86.6423 34.2811C86.5435 34.1587 86.4729 34.1412 85.9626 34.1158L85.3929 34.0865L85.377 33.2911L85.3611 32.4953L90.4973 32.496C93.8691 32.496 95.7079 32.517 95.8501 32.5564C95.969 32.5894 96.0948 32.6702 96.1301 32.7357C96.2026 32.8708 96.7787 34.5739 99.4933 42.6787C103.91 55.8636 104.92 58.907 104.92 59.0313C104.92 59.2347 104.805 59.4382 104.65 59.5085C104.552 59.553 103.525 59.5727 101.287 59.5727C98.3326 59.5727 98.0472 59.5641 97.8653 59.4716C97.7563 59.4159 97.6192 59.305 97.5604 59.2249C97.5019 59.1451 97.0534 57.8302 96.5631 56.3032C91.893 41.7476 92.0221 42.1447 91.9171 42.0277C91.8011 41.8986 91.7127 41.8995 91.5929 42.0321C91.4975 42.1377 91.3176 42.6908 88.7784 50.6918C88.1911 52.5436 87.6024 54.395 87.0124 56.246C86.7781 56.9779 86.4783 57.9214 86.3454 58.3433C86.0847 59.1724 85.969 59.3702 85.6746 59.4929C85.4203 59.5994 79.097 59.6083 78.9132 59.5027Z" fill="#161822"/>
</svg>
