<svg width="730" height="636" viewBox="0 0 730 636" fill="none" xmlns="http://www.w3.org/2000/svg">
<path d="M365.764 272.338H263.517C260.205 272.342 256.928 271.666 253.888 270.352C250.848 269.039 248.11 267.115 245.843 264.701C243.576 262.287 241.828 259.434 240.708 256.317C239.588 253.201 239.119 249.888 239.331 246.583C239.542 243.278 240.429 240.052 241.937 237.103C243.445 234.155 245.542 231.547 248.098 229.442C250.654 227.336 253.615 225.777 256.798 224.862C259.98 223.946 263.317 223.693 266.601 224.118C268.049 221.153 270.349 218.688 273.208 217.04C276.066 215.391 279.352 214.634 282.643 214.866C285.535 206.937 290.705 200.04 297.504 195.04C304.303 190.04 312.427 187.16 320.857 186.762C329.287 186.365 337.647 188.466 344.887 192.804C352.126 197.141 357.923 203.521 361.549 211.142C362.946 210.951 364.354 210.855 365.764 210.855C369.833 210.805 373.872 211.562 377.646 213.084C381.42 214.606 384.854 216.863 387.749 219.722C390.645 222.581 392.943 225.987 394.512 229.742C396.081 233.497 396.889 237.525 396.889 241.595C396.889 245.664 396.081 249.693 394.512 253.447C392.943 257.202 390.645 260.608 387.749 263.467C384.854 266.327 381.42 268.583 377.646 270.105C373.872 271.627 369.833 272.384 365.764 272.334V272.338ZM263.517 227.179C257.961 227.179 252.632 229.386 248.703 233.315C244.775 237.243 242.567 242.572 242.567 248.128C242.567 253.684 244.775 259.013 248.703 262.942C252.632 266.87 257.961 269.078 263.517 269.078H365.764C373.053 269.078 380.043 266.182 385.196 261.029C390.35 255.875 393.245 248.885 393.245 241.597C393.245 234.309 390.35 227.319 385.196 222.165C380.043 217.012 373.053 214.116 365.764 214.116C364.123 214.117 362.486 214.262 360.871 214.551L359.61 214.775L359.118 213.601C355.895 206.279 350.527 200.106 343.724 195.897C336.921 191.688 329.002 189.639 321.011 190.022C313.02 190.404 305.333 193.2 298.963 198.04C292.594 202.88 287.841 209.537 285.331 217.134L284.901 218.437L283.545 218.236C280.557 217.784 277.504 218.358 274.884 219.864C272.263 221.37 270.231 223.72 269.117 226.529L268.64 227.761L267.332 227.522C266.073 227.292 264.796 227.177 263.517 227.179Z" fill="#002680"/>
<path d="M522.402 208.979H467.02C463.558 208.914 460.26 207.492 457.834 205.02C455.409 202.549 454.051 199.224 454.051 195.762C454.051 192.299 455.409 188.975 457.834 186.503C460.26 184.031 463.558 182.61 467.02 182.544C467.556 182.544 468.092 182.578 468.624 182.644C469.422 181.052 470.67 179.729 472.213 178.839C473.756 177.949 475.526 177.53 477.304 177.636C478.887 173.341 481.7 169.608 485.392 166.902C489.084 164.197 493.492 162.639 498.064 162.424C502.636 162.208 507.171 163.345 511.101 165.691C515.031 168.037 518.183 171.49 520.163 175.617C520.899 175.52 521.64 175.47 522.383 175.469C526.778 175.543 530.967 177.341 534.049 180.475C537.131 183.609 538.858 187.829 538.858 192.224C538.858 196.619 537.131 200.839 534.049 203.973C530.967 207.107 526.778 208.905 522.383 208.979H522.402ZM467.02 184.525C464.04 184.525 461.183 185.709 459.076 187.816C456.969 189.923 455.786 192.78 455.786 195.759C455.786 198.739 456.969 201.596 459.076 203.703C461.183 205.81 464.04 206.993 467.02 206.993H522.402C524.446 206.982 526.464 206.546 528.331 205.714C530.198 204.882 531.871 203.672 533.246 202.16C534.621 200.648 535.667 198.867 536.318 196.93C536.97 194.993 537.212 192.942 537.03 190.907C536.848 188.871 536.246 186.896 535.261 185.105C534.277 183.314 532.931 181.747 531.31 180.503C529.689 179.259 527.827 178.365 525.843 177.877C523.858 177.389 521.794 177.319 519.781 177.67L519.012 177.808L518.697 177.092C516.961 173.147 514.069 169.822 510.404 167.554C506.739 165.287 502.473 164.184 498.168 164.39C493.863 164.597 489.722 166.104 486.291 168.713C482.86 171.321 480.301 174.909 478.951 179.002L478.688 179.794L477.867 179.675C476.274 179.439 474.648 179.747 473.251 180.549C471.855 181.351 470.77 182.601 470.171 184.096L469.87 184.845L469.073 184.702C468.405 184.583 467.727 184.523 467.048 184.525H467.02Z" fill="#002680"/>
<path d="M156.873 270.859H118.048C116.794 270.796 115.565 270.487 114.43 269.949C113.296 269.411 112.278 268.655 111.436 267.724C110.594 266.793 109.943 265.706 109.521 264.523C109.099 263.341 108.914 262.087 108.977 260.833C109.039 259.579 109.349 258.35 109.886 257.215C110.424 256.081 111.18 255.063 112.111 254.221C113.042 253.378 114.13 252.728 115.312 252.306C116.495 251.884 117.749 251.699 119.003 251.762C119.597 250.683 120.474 249.786 121.54 249.17C122.606 248.553 123.821 248.239 125.052 248.262C126.209 245.244 128.22 242.628 130.839 240.735C133.459 238.841 136.573 237.752 139.802 237.6C143.031 237.448 146.234 238.24 149.02 239.879C151.805 241.518 154.053 243.934 155.488 246.83C157.116 246.646 158.763 246.795 160.331 247.27C161.898 247.744 163.353 248.533 164.605 249.588C165.857 250.644 166.881 251.943 167.614 253.408C168.347 254.872 168.774 256.471 168.868 258.106C168.962 259.741 168.722 261.378 168.162 262.917C167.603 264.456 166.735 265.864 165.612 267.057C164.489 268.249 163.135 269.2 161.633 269.851C160.13 270.502 158.511 270.84 156.873 270.844V270.859ZM118.048 253.71C116.037 253.71 114.109 254.508 112.687 255.93C111.265 257.352 110.466 259.28 110.466 261.291C110.466 263.302 111.265 265.23 112.687 266.652C114.109 268.074 116.037 268.873 118.048 268.873H156.873C159.504 268.815 162.007 267.73 163.847 265.849C165.688 263.969 166.718 261.442 166.718 258.811C166.718 256.18 165.688 253.653 163.847 251.772C162.007 249.892 159.504 248.806 156.873 248.749C156.271 248.749 155.67 248.802 155.078 248.907L154.309 249.045L153.994 248.334C152.802 245.622 150.815 243.335 148.297 241.775C145.778 240.216 142.846 239.456 139.887 239.597C136.928 239.739 134.081 240.774 131.722 242.566C129.364 244.359 127.604 246.824 126.675 249.637L126.413 250.434L125.587 250.31C124.535 250.152 123.461 250.354 122.538 250.884C121.616 251.413 120.9 252.239 120.507 253.227L120.206 253.977L119.409 253.834C118.96 253.753 118.504 253.711 118.048 253.71Z" fill="#002680"/>
<path d="M424.796 337.961C423.724 336.586 422.365 335.463 420.812 334.67C419.26 333.876 417.553 333.433 415.811 333.37C414.069 333.307 412.335 333.627 410.729 334.306C409.124 334.985 407.687 336.008 406.52 337.302L404.887 335.827C406.269 334.293 407.97 333.081 409.871 332.276C411.772 331.471 413.826 331.092 415.889 331.166C417.952 331.24 419.974 331.765 421.812 332.705C423.651 333.645 425.261 334.976 426.529 336.605L424.796 337.961Z" fill="#002680"/>
<path d="M430.936 331.229C429.024 329.113 426.701 327.41 424.108 326.223C421.515 325.036 418.708 324.39 415.857 324.325C413.006 324.26 410.172 324.778 407.528 325.846C404.884 326.914 402.486 328.51 400.48 330.537L398.914 329.014C401.132 326.776 403.782 325.014 406.703 323.834C409.625 322.655 412.756 322.084 415.906 322.155C419.055 322.227 422.157 322.94 425.022 324.25C427.887 325.561 430.455 327.442 432.568 329.778L430.936 331.229Z" fill="#002680"/>
<path d="M395.27 325.323L393.527 323.982C396.103 320.636 399.412 317.926 403.2 316.061C406.989 314.196 411.155 313.227 415.377 313.227C419.599 313.227 423.765 314.196 427.554 316.061C431.342 317.926 434.652 320.636 437.227 323.982L435.508 325.323C433.138 322.245 430.092 319.751 426.606 318.036C423.12 316.32 419.286 315.428 415.401 315.428C411.515 315.428 407.682 316.32 404.196 318.036C400.71 319.751 397.664 322.245 395.294 325.323H395.27Z" fill="#002680"/>
<path d="M595.998 317.026C594.902 315.62 593.512 314.471 591.925 313.66C590.338 312.849 588.592 312.396 586.811 312.331C585.03 312.267 583.256 312.594 581.615 313.289C579.974 313.983 578.505 315.029 577.311 316.353L575.645 314.849C577.057 313.281 578.796 312.041 580.739 311.218C582.683 310.395 584.783 310.007 586.892 310.083C589.001 310.158 591.068 310.695 592.947 311.655C594.826 312.616 596.472 313.976 597.769 315.641L595.998 317.026Z" fill="#002680"/>
<path d="M602.277 310.146C600.265 307.926 597.812 306.151 595.074 304.934C592.336 303.718 589.374 303.088 586.378 303.085C583.543 303.075 580.734 303.632 578.117 304.724C575.5 305.815 573.127 307.418 571.138 309.44L569.539 307.859C571.805 305.57 574.514 303.767 577.501 302.56C580.487 301.354 583.688 300.769 586.909 300.842C590.129 300.915 593.3 301.644 596.229 302.984C599.158 304.324 601.783 306.248 603.943 308.637L602.277 310.146Z" fill="#002680"/>
<path d="M565.812 304.106L564.031 302.755C566.662 299.332 570.044 296.558 573.917 294.65C577.79 292.742 582.05 291.749 586.368 291.749C590.686 291.749 594.946 292.742 598.819 294.65C602.692 296.558 606.074 299.332 608.705 302.755L606.924 304.13C604.501 300.983 601.387 298.435 597.823 296.681C594.259 294.927 590.34 294.015 586.368 294.015C582.396 294.015 578.477 294.927 574.913 296.681C571.349 298.435 568.235 300.983 565.812 304.13V304.106Z" fill="#002680"/>
<path d="M219.71 150.456C218.26 148.594 216.419 147.072 214.317 145.998C212.216 144.924 209.904 144.323 207.545 144.238C205.187 144.152 202.838 144.585 200.664 145.505C198.491 146.426 196.545 147.811 194.964 149.564L192.754 147.573C194.625 145.496 196.929 143.855 199.503 142.765C202.077 141.675 204.859 141.162 207.653 141.263C210.446 141.363 213.184 142.075 215.673 143.347C218.162 144.62 220.341 146.422 222.059 148.628L219.71 150.456Z" fill="#002680"/>
<path d="M228.009 141.323C225.42 138.458 222.273 136.151 218.762 134.543C215.25 132.936 211.448 132.062 207.587 131.975C203.726 131.888 199.888 132.589 196.307 134.037C192.727 135.484 189.479 137.646 186.763 140.392L184.648 138.296C187.649 135.263 191.236 132.875 195.191 131.276C199.146 129.677 203.386 128.903 207.651 128.999C211.916 129.096 216.117 130.062 219.996 131.837C223.874 133.613 227.35 136.162 230.21 139.327L228.009 141.323Z" fill="#002680"/>
<path d="M179.729 133.331L177.375 131.512C180.861 126.983 185.341 123.315 190.469 120.791C195.597 118.268 201.237 116.955 206.952 116.955C212.667 116.955 218.307 118.268 223.435 120.791C228.563 123.315 233.043 126.983 236.529 131.512L234.175 133.326C230.964 129.165 226.84 125.795 222.123 123.477C217.405 121.158 212.218 119.953 206.962 119.953C201.705 119.953 196.518 121.158 191.8 123.477C187.083 125.795 182.959 129.165 179.748 133.326L179.729 133.331Z" fill="#002680"/>
<path d="M496.499 494.428H495.754V487.668H496.499V494.428ZM496.499 482.263H495.754V475.503H496.499V482.263ZM496.499 470.099H495.754V463.338H496.499V470.099ZM496.499 457.934H495.754V451.173H496.499V457.934ZM496.499 445.769H495.754V439.008H496.499V445.769ZM496.499 433.604H495.754V426.844H496.499V433.604ZM496.499 421.439H495.754V414.679H496.499V421.439ZM496.499 409.274H495.754V402.538H496.499V409.274ZM496.499 397.109H495.754V390.349H496.499V397.109ZM496.499 384.945H495.754V378.189H496.499V384.945ZM496.499 372.78H495.754V366.019H496.499V372.78ZM496.499 360.615H495.754V353.84H496.499V360.615ZM496.499 348.445H495.754V341.69H496.499V348.445ZM496.499 336.28H495.754V329.525H496.499V336.28ZM496.499 324.116H495.754V317.36H496.499V324.116ZM496.499 311.951H495.754V305.195H496.499V311.951ZM496.499 299.786H495.754V293.03H496.499V299.786ZM496.499 287.621H495.754V280.865H496.499V287.621ZM496.499 275.456H495.754V268.701H496.499V275.456ZM496.499 263.291H495.754V256.536H496.499V263.291ZM496.499 251.126H495.754V244.371H496.499V251.126ZM496.499 238.962H495.754V232.206H496.499V238.962Z" fill="#002680"/>
<path d="M139.369 455.389H138.328V447.588H139.369V455.389ZM139.369 441.343H138.328V433.542H139.369V441.343ZM139.369 427.302H138.328V419.496H139.369V427.302ZM139.369 413.256H138.328V405.455H139.369V413.256ZM139.369 399.21H138.328V391.409H139.369V399.21ZM139.369 385.164H138.328V377.363H139.369V385.164ZM139.369 371.123H138.328V363.317H139.369V371.123ZM139.369 357.077H138.328V349.276H139.369V357.077ZM139.369 343.031H138.328V335.221H139.369V343.031ZM139.369 328.99H138.328V321.184H139.369V328.99ZM139.369 314.944H138.328V307.143H139.369V314.944ZM139.369 300.898H138.328V293.097H139.369V300.898Z" fill="#002680"/>
<path d="M586.74 460.565H586V454.649H586.74V460.565ZM586.74 449.918H586V443.998H586.74V449.918ZM586.74 439.267H586V433.351H586.74V439.267ZM586.74 428.62H586V422.7H586.74V428.62ZM586.74 417.969H586V412.053H586.74V417.969ZM586.74 407.317H586V401.402H586.74V407.317ZM586.74 396.671H586V390.755H586.74V396.671ZM586.74 386.019H586V380.099H586.74V386.019ZM586.74 375.373H586V369.457H586.74V375.373ZM586.74 364.721H586V358.806H586.74V364.721ZM586.74 354.075H586V348.154H586.74V354.075ZM586.74 343.423H586V337.508H586.74V343.423Z" fill="#002680"/>
<path d="M317.906 456.659H316.918V451.713H317.906V456.659ZM317.906 447.731H316.918V442.771H317.906V447.731ZM317.906 438.803H316.918V433.843H317.906V438.803ZM317.906 429.875H316.918V424.915H317.906V429.875ZM317.906 420.947H316.918V415.987H317.906V420.947ZM317.906 412.019H316.918V407.059H317.906V412.019ZM317.906 403.092H316.918V398.131H317.906V403.092ZM317.906 394.164H316.918V389.203H317.906V394.164ZM317.906 385.236H316.918V380.275H317.906V385.236ZM317.906 376.308H316.918V371.347H317.906V376.308ZM317.906 367.38H316.918V362.434H317.906V367.38ZM317.906 358.452H316.918V353.492H317.906V358.452ZM317.906 349.524H316.918V344.564H317.906V349.524ZM317.906 340.596H316.918V335.636H317.906V340.596ZM317.906 331.668H316.918V326.708H317.906V331.668ZM317.906 322.741H316.918V317.78H317.906V322.741ZM317.906 313.813H316.918V308.852H317.906V313.813ZM317.906 304.885H316.918V299.924H317.906V304.885Z" fill="#002680"/>
<path d="M416.03 440.412H415.285V435.451H416.03V440.412ZM416.03 431.484H415.285V426.524H416.03V431.484ZM416.03 422.556H415.285V417.596H416.03V422.556ZM416.03 413.628H415.285V408.668H416.03V413.628ZM416.03 404.7H415.285V399.74H416.03V404.7ZM416.03 395.772H415.285V390.812H416.03V395.772ZM416.03 386.845H415.285V381.889H416.03V386.845ZM416.03 377.917H415.285V372.961H416.03V377.917ZM416.03 368.989H415.285V364.033H416.03V368.989ZM416.03 360.066H415.285V355.105H416.03V360.066ZM416.03 351.138H415.285V346.201H416.03V351.138Z" fill="#002680"/>
<path d="M207.323 470.605H206.578V466.728H207.323V470.605ZM207.323 462.087H206.578V456.282H207.323V462.087ZM207.323 451.636H206.578V445.836H207.323V451.636ZM207.323 441.19H206.578V435.385H207.323V441.19ZM207.323 430.744H206.578V424.939H207.323V430.744ZM207.323 420.298H206.578V414.473H207.323V420.298ZM207.323 409.847H206.578V404.046H207.323V409.847ZM207.323 399.401H206.578V393.6H207.323V399.401ZM207.323 388.955H206.578V383.149H207.323V388.955ZM207.323 378.509H206.578V372.703H207.323V378.509ZM207.323 368.058H206.578V362.257H207.323V368.058ZM207.323 357.612H206.578V351.811H207.323V357.612ZM207.323 347.166H206.578V341.36H207.323V347.166ZM207.323 336.72H206.578V330.924H207.323V336.72ZM207.323 326.274H206.578V320.468H207.323V326.274ZM207.323 315.823H206.578V310.022H207.323V315.823ZM207.323 305.377H206.578V299.571H207.323V305.377ZM207.323 294.93H206.578V289.125H207.323V294.93ZM207.323 284.484H206.578V278.679H207.323V284.484ZM207.323 274.033H206.578V268.233H207.323V274.033ZM207.323 263.587H206.578V257.787H207.323V263.587ZM207.323 253.141H206.578V247.336H207.323V253.141ZM207.323 242.695H206.578V236.871H207.323V242.695ZM207.323 232.249H206.578V226.444H207.323V232.249ZM207.323 221.798H206.578V215.997H207.323V221.798ZM207.323 211.352H206.578V205.547H207.323V211.352ZM207.323 200.906H206.578V195.1H207.323V200.906ZM207.323 190.46H206.578V184.654H207.323V190.46ZM207.323 180.009H206.578V174.208H207.323V180.009ZM207.323 169.563H206.578V163.757H207.323V169.563Z" fill="#002680"/>
</svg>
