<svg width="1440" height="825" viewBox="0 0 1440 825" fill="none" xmlns="http://www.w3.org/2000/svg">
<g opacity="0.4" clip-path="url(#clip0_4715_20600)">
<path d="M1440 0H0V825H1440V0Z" fill="#EEF8FF"/>
<path opacity="0.2" d="M915.676 164.007C907.201 164.007 900.301 171.035 900.301 179.743C900.301 188.451 907.201 195.403 915.751 195.403C924.226 195.403 931.126 188.375 931.126 179.743C931.126 171.035 924.226 164.007 915.676 164.007Z" fill="#1967A6"/>
<path opacity="0.2" d="M976.876 164.007C968.401 164.007 961.426 171.035 961.426 179.667C961.426 188.299 968.326 195.403 976.801 195.403C985.276 195.403 992.251 188.375 992.251 179.743C992.251 171.035 985.351 164.007 976.876 164.007Z" fill="#1967A6"/>
<path opacity="0.2" d="M1038 164.007C1029.52 164.007 1022.62 171.035 1022.62 179.743C1022.62 188.451 1029.52 195.403 1038.07 195.403C1046.55 195.403 1053.45 188.375 1053.45 179.743C1053.37 171.035 1046.48 164.007 1038 164.007Z" fill="#1967A6"/>
<path opacity="0.2" d="M793.426 226.34C784.951 226.34 778.051 233.368 778.051 242.076C778.051 250.785 784.951 257.736 793.501 257.736C801.976 257.736 808.876 250.708 808.876 242C808.801 233.368 801.901 226.34 793.426 226.34Z" fill="#1967A6"/>
<path opacity="0.2" d="M854.552 226.34C846.077 226.34 839.102 233.368 839.102 242C839.102 250.632 846.002 257.736 854.477 257.736C862.952 257.736 869.927 250.708 869.927 242.076C869.927 233.368 863.027 226.34 854.552 226.34Z" fill="#1967A6"/>
<path opacity="0.2" d="M915.676 226.34C907.201 226.34 900.301 233.368 900.301 242.076C900.301 250.785 907.201 257.736 915.751 257.736C924.226 257.736 931.126 250.708 931.126 242C931.126 233.368 924.226 226.34 915.676 226.34Z" fill="#1967A6"/>
<path opacity="0.2" d="M976.876 226.34C968.401 226.34 961.426 233.368 961.426 242C961.426 250.632 968.326 257.736 976.801 257.736C985.276 257.736 992.251 250.708 992.251 242.076C992.251 233.368 985.351 226.34 976.876 226.34Z" fill="#1967A6"/>
<path opacity="0.2" d="M1038 226.34C1029.52 226.34 1022.62 233.368 1022.62 242.076C1022.62 250.785 1029.52 257.736 1038.07 257.736C1046.55 257.736 1053.45 250.708 1053.45 242C1053.37 233.368 1046.48 226.34 1038 226.34Z" fill="#1967A6"/>
<path opacity="0.2" d="M1099.12 226.34C1090.65 226.34 1083.75 233.368 1083.75 242.076C1083.75 250.785 1090.65 257.736 1099.2 257.736C1107.67 257.736 1114.57 250.708 1114.57 242C1114.57 233.368 1107.67 226.34 1099.12 226.34Z" fill="#1967A6"/>
<path opacity="0.2" d="M1160.32 226.34C1151.85 226.34 1144.88 233.368 1144.88 242C1144.88 250.632 1151.77 257.736 1160.25 257.736C1168.73 257.736 1175.7 250.708 1175.7 242.076C1175.7 233.368 1168.8 226.34 1160.32 226.34Z" fill="#1967A6"/>
<path opacity="0.2" d="M793.426 288.597C784.951 288.597 778.051 295.625 778.051 304.333C778.051 313.042 784.951 319.993 793.501 319.993C802.051 319.993 808.876 312.965 808.876 304.257C808.801 295.625 801.901 288.597 793.426 288.597Z" fill="#1967A6"/>
<path opacity="0.2" d="M854.552 288.597C846.077 288.597 839.102 295.625 839.102 304.257C839.102 312.889 846.002 319.993 854.477 319.993C862.952 319.993 869.927 312.965 869.927 304.333C869.927 295.625 863.027 288.597 854.552 288.597Z" fill="#1967A6"/>
<path opacity="0.2" d="M915.676 288.597C907.201 288.597 900.301 295.625 900.301 304.333C900.301 313.042 907.201 319.993 915.751 319.993C924.301 319.993 931.126 312.965 931.126 304.257C931.126 295.625 924.226 288.597 915.676 288.597Z" fill="#1967A6"/>
<path opacity="0.2" d="M976.876 288.597C968.401 288.597 961.426 295.625 961.426 304.257C961.426 312.889 968.326 319.993 976.801 319.993C985.276 319.993 992.251 312.965 992.251 304.333C992.251 295.625 985.351 288.597 976.876 288.597Z" fill="#1967A6"/>
<path opacity="0.2" d="M1038 288.597C1029.52 288.597 1022.62 295.625 1022.62 304.333C1022.62 313.042 1029.52 319.993 1038.07 319.993C1046.62 319.993 1053.45 312.965 1053.45 304.257C1053.37 295.625 1046.48 288.597 1038 288.597Z" fill="#1967A6"/>
<path opacity="0.2" d="M1099.12 288.597C1090.65 288.597 1083.75 295.625 1083.75 304.333C1083.75 313.042 1090.65 319.993 1099.2 319.993C1107.75 319.993 1114.57 312.965 1114.57 304.257C1114.57 295.625 1107.67 288.597 1099.12 288.597Z" fill="#1967A6"/>
<path opacity="0.2" d="M1160.32 288.597C1151.85 288.597 1144.88 295.625 1144.88 304.257C1144.88 312.889 1151.77 319.993 1160.25 319.993C1168.73 319.993 1175.7 312.965 1175.7 304.333C1175.7 295.625 1168.8 288.597 1160.32 288.597Z" fill="#1967A6"/>
<path opacity="0.2" d="M793.426 350.854C784.951 350.854 778.051 357.882 778.051 366.59C778.051 375.299 784.951 382.25 793.501 382.25C801.976 382.25 808.876 375.222 808.876 366.514C808.801 357.882 801.901 350.854 793.426 350.854Z" fill="#1967A6"/>
<path opacity="0.2" d="M854.552 350.854C846.077 350.854 839.102 357.882 839.102 366.514C839.102 375.146 846.002 382.25 854.477 382.25C862.952 382.25 869.927 375.222 869.927 366.59C869.927 357.882 863.027 350.854 854.552 350.854Z" fill="#1967A6"/>
<path opacity="0.2" d="M915.676 350.854C907.201 350.854 900.301 357.882 900.301 366.59C900.301 375.299 907.201 382.25 915.751 382.25C924.226 382.25 931.126 375.222 931.126 366.514C931.126 357.882 924.226 350.854 915.676 350.854Z" fill="#1967A6"/>
<path opacity="0.2" d="M976.876 350.854C968.401 350.854 961.426 357.882 961.426 366.514C961.426 375.146 968.326 382.25 976.801 382.25C985.276 382.25 992.251 375.222 992.251 366.59C992.251 357.882 985.351 350.854 976.876 350.854Z" fill="#1967A6"/>
<path opacity="0.2" d="M1038 350.854C1029.52 350.854 1022.62 357.882 1022.62 366.59C1022.62 375.299 1029.52 382.25 1038.07 382.25C1046.55 382.25 1053.45 375.222 1053.45 366.514C1053.37 357.882 1046.48 350.854 1038 350.854Z" fill="#1967A6"/>
<path opacity="0.2" d="M1099.12 350.854C1090.65 350.854 1083.75 357.882 1083.75 366.59C1083.75 375.299 1090.65 382.25 1099.2 382.25C1107.67 382.25 1114.57 375.222 1114.57 366.514C1114.57 357.882 1107.67 350.854 1099.12 350.854Z" fill="#1967A6"/>
<path opacity="0.2" d="M1160.32 350.854C1151.85 350.854 1144.88 357.882 1144.88 366.514C1144.88 375.146 1151.77 382.25 1160.25 382.25C1168.73 382.25 1175.7 375.222 1175.7 366.59C1175.7 357.882 1168.8 350.854 1160.32 350.854Z" fill="#1967A6"/>
<path opacity="0.2" d="M1221.45 350.854C1212.97 350.854 1206.07 357.882 1206.07 366.59C1206.07 375.299 1212.97 382.25 1221.52 382.25C1230 382.25 1236.9 375.222 1236.9 366.514C1236.82 357.882 1229.92 350.854 1221.45 350.854Z" fill="#1967A6"/>
<path opacity="0.2" d="M793.426 413.188C784.951 413.188 778.051 420.215 778.051 428.924C778.051 437.632 784.951 444.583 793.501 444.583C801.976 444.583 808.876 437.556 808.876 428.924C808.801 420.215 801.901 413.188 793.426 413.188Z" fill="#1967A6"/>
<path opacity="0.2" d="M854.552 413.188C846.077 413.188 839.102 420.215 839.102 428.847C839.102 437.479 846.002 444.583 854.477 444.583C862.952 444.583 869.927 437.556 869.927 428.924C869.927 420.215 863.027 413.188 854.552 413.188Z" fill="#1967A6"/>
<path opacity="0.2" d="M915.676 413.188C907.201 413.188 900.301 420.215 900.301 428.924C900.301 437.632 907.201 444.583 915.751 444.583C924.226 444.583 931.126 437.556 931.126 428.924C931.126 420.215 924.226 413.188 915.676 413.188Z" fill="#1967A6"/>
<path opacity="0.2" d="M976.876 413.188C968.401 413.188 961.426 420.215 961.426 428.847C961.426 437.479 968.326 444.583 976.801 444.583C985.276 444.583 992.251 437.556 992.251 428.924C992.251 420.215 985.351 413.188 976.876 413.188Z" fill="#1967A6"/>
<path opacity="0.2" d="M1038 413.188C1029.52 413.188 1022.62 420.215 1022.62 428.924C1022.62 437.632 1029.52 444.583 1038.07 444.583C1046.55 444.583 1053.45 437.556 1053.45 428.924C1053.37 420.215 1046.48 413.188 1038 413.188Z" fill="#1967A6"/>
<path opacity="0.2" d="M1099.12 413.188C1090.65 413.188 1083.75 420.215 1083.75 428.924C1083.75 437.632 1090.65 444.583 1099.2 444.583C1107.67 444.583 1114.57 437.556 1114.57 428.924C1114.57 420.215 1107.67 413.188 1099.12 413.188Z" fill="#1967A6"/>
<path opacity="0.2" d="M1160.32 413.188C1151.85 413.188 1144.88 420.215 1144.88 428.847C1144.88 437.479 1151.77 444.583 1160.25 444.583C1168.73 444.583 1175.7 437.556 1175.7 428.924C1175.7 420.215 1168.8 413.188 1160.32 413.188Z" fill="#1967A6"/>
<path opacity="0.2" d="M1221.45 413.188C1212.97 413.188 1206.07 420.215 1206.07 428.924C1206.07 437.632 1212.97 444.583 1221.52 444.583C1230 444.583 1236.9 437.556 1236.9 428.924C1236.82 420.215 1229.92 413.188 1221.45 413.188Z" fill="#1967A6"/>
<path opacity="0.2" d="M793.426 475.444C784.951 475.444 778.051 482.472 778.051 491.181C778.051 499.889 784.951 506.84 793.501 506.84C801.976 506.84 808.876 499.813 808.876 491.104C808.801 482.472 801.901 475.444 793.426 475.444Z" fill="#1967A6"/>
<path opacity="0.2" d="M854.552 475.444C846.077 475.444 839.102 482.472 839.102 491.104C839.102 499.736 846.002 506.84 854.477 506.84C862.952 506.84 869.927 499.812 869.927 491.181C869.927 482.472 863.027 475.444 854.552 475.444Z" fill="#1967A6"/>
<path opacity="0.2" d="M915.676 475.444C907.201 475.444 900.301 482.472 900.301 491.181C900.301 499.889 907.201 506.84 915.751 506.84C924.226 506.84 931.126 499.813 931.126 491.104C931.126 482.472 924.226 475.444 915.676 475.444Z" fill="#1967A6"/>
<path opacity="0.2" d="M976.876 475.444C968.401 475.444 961.426 482.472 961.426 491.104C961.426 499.736 968.326 506.84 976.801 506.84C985.276 506.84 992.251 499.812 992.251 491.181C992.251 482.472 985.351 475.444 976.876 475.444Z" fill="#1967A6"/>
<path opacity="0.2" d="M1038 475.444C1029.52 475.444 1022.62 482.472 1022.62 491.181C1022.62 499.889 1029.52 506.84 1038.07 506.84C1046.55 506.84 1053.45 499.813 1053.45 491.104C1053.37 482.472 1046.48 475.444 1038 475.444Z" fill="#1967A6"/>
<path opacity="0.2" d="M1099.12 475.444C1090.65 475.444 1083.75 482.472 1083.75 491.181C1083.75 499.889 1090.65 506.84 1099.2 506.84C1107.67 506.84 1114.57 499.813 1114.57 491.104C1114.57 482.472 1107.67 475.444 1099.12 475.444Z" fill="#1967A6"/>
<path opacity="0.2" d="M1160.32 475.444C1151.85 475.444 1144.88 482.472 1144.88 491.104C1144.88 499.736 1151.77 506.84 1160.25 506.84C1168.73 506.84 1175.7 499.812 1175.7 491.181C1175.7 482.472 1168.8 475.444 1160.32 475.444Z" fill="#1967A6"/>
<path opacity="0.2" d="M1221.45 475.444C1212.97 475.444 1206.07 482.472 1206.07 491.181C1206.07 499.889 1212.97 506.84 1221.52 506.84C1230 506.84 1236.9 499.813 1236.9 491.104C1236.82 482.472 1229.92 475.444 1221.45 475.444Z" fill="#1967A6"/>
<path opacity="0.2" d="M793.426 537.701C784.951 537.701 778.051 544.729 778.051 553.438C778.051 562.146 784.951 569.097 793.501 569.097C801.976 569.097 808.876 562.069 808.876 553.438C808.801 544.729 801.901 537.701 793.426 537.701Z" fill="#1967A6"/>
<path opacity="0.2" d="M854.552 537.701C846.077 537.701 839.102 544.729 839.102 553.361C839.102 561.993 846.002 569.097 854.477 569.097C862.952 569.097 869.927 562.069 869.927 553.438C869.927 544.729 863.027 537.701 854.552 537.701Z" fill="#1967A6"/>
<path opacity="0.2" d="M915.676 537.701C907.201 537.701 900.301 544.729 900.301 553.438C900.301 562.146 907.201 569.097 915.751 569.097C924.226 569.097 931.126 562.069 931.126 553.438C931.126 544.729 924.226 537.701 915.676 537.701Z" fill="#1967A6"/>
<path opacity="0.2" d="M976.876 537.701C968.401 537.701 961.426 544.729 961.426 553.361C961.426 561.993 968.326 569.097 976.801 569.097C985.276 569.097 992.251 562.069 992.251 553.438C992.251 544.729 985.351 537.701 976.876 537.701Z" fill="#1967A6"/>
<path opacity="0.2" d="M1038 537.701C1029.52 537.701 1022.62 544.729 1022.62 553.438C1022.62 562.146 1029.52 569.097 1038.07 569.097C1046.55 569.097 1053.45 562.069 1053.45 553.438C1053.37 544.729 1046.48 537.701 1038 537.701Z" fill="#1967A6"/>
<path opacity="0.2" d="M1099.12 537.701C1090.65 537.701 1083.75 544.729 1083.75 553.438C1083.75 562.146 1090.65 569.097 1099.2 569.097C1107.67 569.097 1114.57 562.069 1114.57 553.438C1114.57 544.729 1107.67 537.701 1099.12 537.701Z" fill="#1967A6"/>
<path opacity="0.2" d="M1160.32 537.701C1151.85 537.701 1144.88 544.729 1144.88 553.361C1144.88 561.993 1151.77 569.097 1160.25 569.097C1168.73 569.097 1175.7 562.069 1175.7 553.438C1175.7 544.729 1168.8 537.701 1160.32 537.701Z" fill="#1967A6"/>
<path opacity="0.2" d="M793.426 600.035C784.951 600.035 778.051 607.062 778.051 615.771C778.051 624.403 784.951 631.43 793.501 631.43C801.976 631.43 808.876 624.403 808.876 615.694C808.801 607.062 801.901 600.035 793.426 600.035Z" fill="#1967A6"/>
<path opacity="0.2" d="M854.552 600.035C846.077 600.035 839.102 607.062 839.102 615.694C839.102 624.326 846.002 631.43 854.477 631.43C862.952 631.43 869.927 624.403 869.927 615.771C869.927 607.062 863.027 600.035 854.552 600.035Z" fill="#1967A6"/>
<path opacity="0.2" d="M915.677 600.035C907.202 600.035 900.227 607.062 900.227 615.694C900.227 624.326 907.127 631.43 915.602 631.43C924.077 631.43 931.052 624.403 931.052 615.771C931.127 607.062 924.227 600.035 915.677 600.035Z" fill="#1967A6"/>
<path opacity="0.2" d="M976.876 600.035C968.401 600.035 961.426 607.062 961.426 615.694C961.426 624.326 968.326 631.43 976.801 631.43C985.276 631.43 992.251 624.403 992.251 615.771C992.251 607.062 985.351 600.035 976.876 600.035Z" fill="#1967A6"/>
<path opacity="0.2" d="M1038 600.035C1029.52 600.035 1022.62 607.062 1022.62 615.771C1022.62 624.403 1029.52 631.431 1038.07 631.431C1046.55 631.431 1053.45 624.403 1053.45 615.694C1053.37 607.063 1046.48 600.035 1038 600.035Z" fill="#1967A6"/>
<path opacity="0.2" d="M1099.13 600.035C1090.65 600.035 1083.68 607.062 1083.68 615.694C1083.68 624.326 1090.58 631.43 1099.05 631.43C1107.53 631.43 1114.5 624.403 1114.5 615.771C1114.58 607.062 1107.68 600.035 1099.13 600.035Z" fill="#1967A6"/>
<path opacity="0.2" d="M1160.32 600.035C1151.85 600.035 1144.88 607.063 1144.88 615.694C1144.88 624.326 1151.77 631.431 1160.25 631.431C1168.73 631.431 1175.7 624.403 1175.7 615.771C1175.7 607.062 1168.8 600.035 1160.32 600.035Z" fill="#1967A6"/>
<path opacity="0.2" d="M915.676 662.292C907.201 662.292 900.301 669.32 900.301 678.028C900.301 686.736 907.201 693.688 915.751 693.688C924.226 693.688 931.126 686.66 931.126 677.951C931.126 669.32 924.226 662.292 915.676 662.292Z" fill="#1967A6"/>
<path opacity="0.2" d="M976.876 662.292C968.401 662.292 961.426 669.32 961.426 677.951C961.426 686.583 968.326 693.688 976.801 693.688C985.276 693.688 992.251 686.66 992.251 678.028C992.251 669.32 985.351 662.292 976.876 662.292Z" fill="#1967A6"/>
<path opacity="0.2" d="M1038 662.292C1029.52 662.292 1022.62 669.319 1022.62 678.028C1022.62 686.736 1029.52 693.688 1038.07 693.688C1046.55 693.688 1053.45 686.66 1053.45 677.951C1053.37 669.319 1046.48 662.292 1038 662.292Z" fill="#1967A6"/>
<path opacity="0.2" d="M732.227 350.854C723.752 350.854 716.852 357.882 716.852 366.514C716.852 375.146 723.752 382.25 732.227 382.25C740.702 382.25 747.602 375.222 747.602 366.59C747.677 357.882 740.777 350.854 732.227 350.854Z" fill="#1967A6"/>
<path opacity="0.2" d="M732.227 413.188C723.752 413.188 716.852 420.215 716.852 428.847C716.852 437.479 723.752 444.583 732.227 444.583C740.702 444.583 747.602 437.556 747.602 428.924C747.677 420.215 740.777 413.188 732.227 413.188Z" fill="#1967A6"/>
<path opacity="0.2" d="M732.227 475.444C723.752 475.444 716.852 482.472 716.852 491.104C716.852 499.736 723.752 506.764 732.227 506.764C740.702 506.764 747.602 499.736 747.602 491.104C747.677 482.472 740.777 475.444 732.227 475.444Z" fill="#1967A6"/>
<path opacity="0.2" d="M1285.2 590.257C1281.9 590.257 1279.2 593.007 1279.2 596.368C1279.2 599.729 1281.9 602.479 1285.2 602.479C1288.5 602.479 1291.2 599.729 1291.2 596.368C1291.2 593.007 1288.5 590.257 1285.2 590.257Z" fill="#1967A6"/>
<path opacity="0.2" d="M1309.05 590.257C1305.75 590.257 1303.05 593.007 1303.05 596.368C1303.05 599.729 1305.75 602.479 1309.05 602.479C1312.35 602.479 1315.05 599.729 1315.05 596.368C1315.05 593.007 1312.35 590.257 1309.05 590.257Z" fill="#1967A6"/>
<path opacity="0.2" d="M1332.98 590.257C1329.68 590.257 1326.98 593.007 1326.98 596.368C1326.98 599.729 1329.68 602.479 1332.98 602.479C1336.28 602.479 1338.98 599.729 1338.98 596.368C1338.98 593.007 1336.28 590.257 1332.98 590.257Z" fill="#1967A6"/>
<path opacity="0.2" d="M1237.43 614.549C1234.13 614.549 1231.43 617.299 1231.43 620.66C1231.43 624.021 1234.13 626.771 1237.43 626.771C1240.73 626.771 1243.43 624.021 1243.43 620.66C1243.43 617.299 1240.73 614.549 1237.43 614.549Z" fill="#1967A6"/>
<path opacity="0.2" d="M1261.27 614.549C1257.97 614.549 1255.27 617.299 1255.27 620.66C1255.27 624.021 1257.97 626.771 1261.27 626.771C1264.57 626.771 1267.27 624.021 1267.27 620.66C1267.27 617.299 1264.57 614.549 1261.27 614.549Z" fill="#1967A6"/>
<path opacity="0.2" d="M1285.2 614.549C1281.9 614.549 1279.2 617.299 1279.2 620.66C1279.2 624.021 1281.9 626.771 1285.2 626.771C1288.5 626.771 1291.2 624.021 1291.2 620.66C1291.2 617.299 1288.5 614.549 1285.2 614.549Z" fill="#1967A6"/>
<path opacity="0.2" d="M1309.05 614.549C1305.75 614.549 1303.05 617.299 1303.05 620.66C1303.05 624.021 1305.75 626.771 1309.05 626.771C1312.35 626.771 1315.05 624.021 1315.05 620.66C1315.05 617.299 1312.35 614.549 1309.05 614.549Z" fill="#1967A6"/>
<path opacity="0.2" d="M1332.98 614.549C1329.68 614.549 1326.98 617.299 1326.98 620.66C1326.98 624.021 1329.68 626.771 1332.98 626.771C1336.28 626.771 1338.98 624.021 1338.98 620.66C1338.98 617.299 1336.28 614.549 1332.98 614.549Z" fill="#1967A6"/>
<path opacity="0.2" d="M1356.82 614.549C1353.52 614.549 1350.82 617.299 1350.82 620.66C1350.82 624.021 1353.52 626.771 1356.82 626.771C1360.12 626.771 1362.82 624.021 1362.82 620.66C1362.82 617.299 1360.2 614.549 1356.82 614.549Z" fill="#1967A6"/>
<path opacity="0.2" d="M1380.75 614.549C1377.45 614.549 1374.75 617.299 1374.75 620.66C1374.75 624.021 1377.45 626.771 1380.75 626.771C1384.05 626.771 1386.75 624.021 1386.75 620.66C1386.75 617.299 1384.05 614.549 1380.75 614.549Z" fill="#1967A6"/>
<path opacity="0.2" d="M1237.43 638.917C1234.13 638.917 1231.43 641.667 1231.43 645.028C1231.43 648.389 1234.13 651.139 1237.43 651.139C1240.73 651.139 1243.43 648.389 1243.43 645.028C1243.43 641.667 1240.73 638.917 1237.43 638.917Z" fill="#1967A6"/>
<path opacity="0.2" d="M1261.27 638.917C1257.97 638.917 1255.27 641.667 1255.27 645.028C1255.27 648.389 1257.97 651.139 1261.27 651.139C1264.57 651.139 1267.27 648.389 1267.27 645.028C1267.27 641.667 1264.57 638.917 1261.27 638.917Z" fill="#1967A6"/>
<path opacity="0.2" d="M1285.2 638.917C1281.9 638.917 1279.2 641.667 1279.2 645.028C1279.2 648.389 1281.9 651.139 1285.2 651.139C1288.5 651.139 1291.2 648.389 1291.2 645.028C1291.2 641.667 1288.5 638.917 1285.2 638.917Z" fill="#1967A6"/>
<path opacity="0.2" d="M1309.05 638.917C1305.75 638.917 1303.05 641.667 1303.05 645.028C1303.05 648.389 1305.75 651.139 1309.05 651.139C1312.35 651.139 1315.05 648.389 1315.05 645.028C1315.05 641.667 1312.35 638.917 1309.05 638.917Z" fill="#1967A6"/>
<path opacity="0.2" d="M1332.98 638.917C1329.68 638.917 1326.98 641.667 1326.98 645.028C1326.98 648.389 1329.68 651.139 1332.98 651.139C1336.28 651.139 1338.98 648.389 1338.98 645.028C1338.98 641.667 1336.28 638.917 1332.98 638.917Z" fill="#1967A6"/>
<path opacity="0.2" d="M1356.82 638.917C1353.52 638.917 1350.82 641.667 1350.82 645.028C1350.82 648.389 1353.52 651.139 1356.82 651.139C1360.12 651.139 1362.82 648.389 1362.82 645.028C1362.82 641.667 1360.2 638.917 1356.82 638.917Z" fill="#1967A6"/>
<path opacity="0.2" d="M1380.75 638.917C1377.45 638.917 1374.75 641.667 1374.75 645.028C1374.75 648.389 1377.45 651.139 1380.75 651.139C1384.05 651.139 1386.75 648.389 1386.75 645.028C1386.75 641.667 1384.05 638.917 1380.75 638.917Z" fill="#1967A6"/>
<path opacity="0.2" d="M1237.43 663.285C1234.13 663.285 1231.43 666.035 1231.43 669.396C1231.43 672.757 1234.13 675.507 1237.43 675.507C1240.73 675.507 1243.43 672.757 1243.43 669.396C1243.43 666.035 1240.73 663.285 1237.43 663.285Z" fill="#1967A6"/>
<path opacity="0.2" d="M1261.27 663.285C1257.97 663.285 1255.27 666.035 1255.27 669.396C1255.27 672.757 1257.97 675.507 1261.27 675.507C1264.57 675.507 1267.27 672.757 1267.27 669.396C1267.27 666.035 1264.57 663.285 1261.27 663.285Z" fill="#1967A6"/>
<path opacity="0.2" d="M1285.2 663.285C1281.9 663.285 1279.2 666.035 1279.2 669.396C1279.2 672.757 1281.9 675.507 1285.2 675.507C1288.5 675.507 1291.2 672.757 1291.2 669.396C1291.2 666.035 1288.5 663.285 1285.2 663.285Z" fill="#1967A6"/>
<path opacity="0.2" d="M1309.05 663.285C1305.75 663.285 1303.05 666.035 1303.05 669.396C1303.05 672.757 1305.75 675.507 1309.05 675.507C1312.35 675.507 1315.05 672.757 1315.05 669.396C1315.05 666.035 1312.35 663.285 1309.05 663.285Z" fill="#1967A6"/>
<path opacity="0.2" d="M1332.98 663.285C1329.68 663.285 1326.98 666.035 1326.98 669.396C1326.98 672.757 1329.68 675.507 1332.98 675.507C1336.28 675.507 1338.98 672.757 1338.98 669.396C1338.98 666.035 1336.28 663.285 1332.98 663.285Z" fill="#1967A6"/>
<path opacity="0.2" d="M1356.82 663.285C1353.52 663.285 1350.82 666.035 1350.82 669.396C1350.82 672.757 1353.52 675.507 1356.82 675.507C1360.12 675.507 1362.82 672.757 1362.82 669.396C1362.82 666.035 1360.2 663.285 1356.82 663.285Z" fill="#1967A6"/>
<path opacity="0.2" d="M1380.75 663.285C1377.45 663.285 1374.75 666.035 1374.75 669.396C1374.75 672.757 1377.45 675.507 1380.75 675.507C1384.05 675.507 1386.75 672.757 1386.75 669.396C1386.75 666.035 1384.05 663.285 1380.75 663.285Z" fill="#1967A6"/>
<path opacity="0.2" d="M1404.6 663.285C1401.3 663.285 1398.6 666.035 1398.6 669.396C1398.6 672.757 1401.3 675.507 1404.6 675.507C1407.9 675.507 1410.6 672.757 1410.6 669.396C1410.6 666.035 1407.98 663.285 1404.6 663.285Z" fill="#1967A6"/>
<path opacity="0.2" d="M1237.43 687.576C1234.13 687.576 1231.43 690.326 1231.43 693.688C1231.43 697.049 1234.13 699.799 1237.43 699.799C1240.73 699.799 1243.43 697.049 1243.43 693.688C1243.43 690.326 1240.73 687.576 1237.43 687.576Z" fill="#1967A6"/>
<path opacity="0.2" d="M1261.27 687.576C1257.97 687.576 1255.27 690.326 1255.27 693.688C1255.27 697.049 1257.97 699.799 1261.27 699.799C1264.57 699.799 1267.27 697.049 1267.27 693.688C1267.27 690.326 1264.57 687.576 1261.27 687.576Z" fill="#1967A6"/>
<path opacity="0.2" d="M1285.2 687.576C1281.9 687.576 1279.2 690.326 1279.2 693.688C1279.2 697.049 1281.9 699.799 1285.2 699.799C1288.5 699.799 1291.2 697.049 1291.2 693.688C1291.2 690.326 1288.5 687.576 1285.2 687.576Z" fill="#1967A6"/>
<path opacity="0.2" d="M1309.05 687.576C1305.75 687.576 1303.05 690.326 1303.05 693.688C1303.05 697.049 1305.75 699.799 1309.05 699.799C1312.35 699.799 1315.05 697.049 1315.05 693.688C1315.05 690.326 1312.35 687.576 1309.05 687.576Z" fill="#1967A6"/>
<path opacity="0.2" d="M1332.98 687.576C1329.68 687.576 1326.98 690.326 1326.98 693.688C1326.98 697.049 1329.68 699.799 1332.98 699.799C1336.28 699.799 1338.98 697.049 1338.98 693.688C1338.98 690.326 1336.28 687.576 1332.98 687.576Z" fill="#1967A6"/>
<path opacity="0.2" d="M1356.82 687.576C1353.52 687.576 1350.82 690.326 1350.82 693.688C1350.82 697.049 1353.52 699.799 1356.82 699.799C1360.12 699.799 1362.82 697.049 1362.82 693.688C1362.82 690.326 1360.2 687.576 1356.82 687.576Z" fill="#1967A6"/>
<path opacity="0.2" d="M1380.75 687.576C1377.45 687.576 1374.75 690.326 1374.75 693.687C1374.75 697.049 1377.45 699.799 1380.75 699.799C1384.05 699.799 1386.75 697.049 1386.75 693.687C1386.75 690.326 1384.05 687.576 1380.75 687.576Z" fill="#1967A6"/>
<path opacity="0.2" d="M1404.6 687.576C1401.3 687.576 1398.6 690.326 1398.6 693.688C1398.6 697.049 1401.3 699.799 1404.6 699.799C1407.9 699.799 1410.6 697.049 1410.6 693.688C1410.6 690.326 1407.98 687.576 1404.6 687.576Z" fill="#1967A6"/>
<path opacity="0.2" d="M1237.43 711.944C1234.13 711.944 1231.43 714.694 1231.43 718.056C1231.43 721.417 1234.13 724.167 1237.43 724.167C1240.73 724.167 1243.43 721.417 1243.43 718.056C1243.43 714.694 1240.73 711.944 1237.43 711.944Z" fill="#1967A6"/>
<path opacity="0.2" d="M1261.27 711.944C1257.97 711.944 1255.27 714.694 1255.27 718.056C1255.27 721.417 1257.97 724.167 1261.27 724.167C1264.57 724.167 1267.27 721.417 1267.27 718.056C1267.27 714.694 1264.57 711.944 1261.27 711.944Z" fill="#1967A6"/>
<path opacity="0.2" d="M1285.2 711.944C1281.9 711.944 1279.2 714.694 1279.2 718.056C1279.2 721.417 1281.9 724.167 1285.2 724.167C1288.5 724.167 1291.2 721.417 1291.2 718.056C1291.2 714.694 1288.5 711.944 1285.2 711.944Z" fill="#1967A6"/>
<path opacity="0.2" d="M1309.05 711.944C1305.75 711.944 1303.05 714.694 1303.05 718.056C1303.05 721.417 1305.75 724.167 1309.05 724.167C1312.35 724.167 1315.05 721.417 1315.05 718.056C1315.05 714.694 1312.35 711.944 1309.05 711.944Z" fill="#1967A6"/>
<path opacity="0.2" d="M1332.98 711.944C1329.68 711.944 1326.98 714.694 1326.98 718.056C1326.98 721.417 1329.68 724.167 1332.98 724.167C1336.28 724.167 1338.98 721.417 1338.98 718.056C1338.98 714.694 1336.28 711.944 1332.98 711.944Z" fill="#1967A6"/>
<path opacity="0.2" d="M1356.82 711.944C1353.52 711.944 1350.82 714.694 1350.82 718.056C1350.82 721.417 1353.52 724.167 1356.82 724.167C1360.12 724.167 1362.82 721.417 1362.82 718.056C1362.82 714.694 1360.2 711.944 1356.82 711.944Z" fill="#1967A6"/>
<path opacity="0.2" d="M1380.75 711.944C1377.45 711.944 1374.75 714.694 1374.75 718.056C1374.75 721.417 1377.45 724.167 1380.75 724.167C1384.05 724.167 1386.75 721.417 1386.75 718.056C1386.75 714.694 1384.05 711.944 1380.75 711.944Z" fill="#1967A6"/>
<path opacity="0.2" d="M1404.6 711.944C1401.3 711.944 1398.6 714.694 1398.6 718.056C1398.6 721.417 1401.3 724.167 1404.6 724.167C1407.9 724.167 1410.6 721.417 1410.6 718.056C1410.6 714.694 1407.98 711.944 1404.6 711.944Z" fill="#1967A6"/>
<path opacity="0.2" d="M1237.43 736.236C1234.13 736.236 1231.43 738.986 1231.43 742.347C1231.43 745.708 1234.13 748.458 1237.43 748.458C1240.73 748.458 1243.43 745.708 1243.43 742.347C1243.43 738.986 1240.73 736.236 1237.43 736.236Z" fill="#1967A6"/>
<path opacity="0.2" d="M1261.27 736.236C1257.97 736.236 1255.27 738.986 1255.27 742.347C1255.27 745.708 1257.97 748.458 1261.27 748.458C1264.57 748.458 1267.27 745.708 1267.27 742.347C1267.27 738.986 1264.57 736.236 1261.27 736.236Z" fill="#1967A6"/>
<path opacity="0.2" d="M1285.2 736.236C1281.9 736.236 1279.2 738.986 1279.2 742.347C1279.2 745.708 1281.9 748.458 1285.2 748.458C1288.5 748.458 1291.2 745.708 1291.2 742.347C1291.2 738.986 1288.5 736.236 1285.2 736.236Z" fill="#1967A6"/>
<path opacity="0.2" d="M1309.05 736.236C1305.75 736.236 1303.05 738.986 1303.05 742.347C1303.05 745.708 1305.75 748.458 1309.05 748.458C1312.35 748.458 1315.05 745.708 1315.05 742.347C1315.05 738.986 1312.35 736.236 1309.05 736.236Z" fill="#1967A6"/>
<path opacity="0.2" d="M1332.98 736.236C1329.68 736.236 1326.98 738.986 1326.98 742.347C1326.98 745.708 1329.68 748.458 1332.98 748.458C1336.28 748.458 1338.98 745.708 1338.98 742.347C1338.98 738.986 1336.28 736.236 1332.98 736.236Z" fill="#1967A6"/>
<path opacity="0.2" d="M1356.82 736.236C1353.52 736.236 1350.82 738.986 1350.82 742.347C1350.82 745.708 1353.52 748.458 1356.82 748.458C1360.12 748.458 1362.82 745.708 1362.82 742.347C1362.82 738.986 1360.2 736.236 1356.82 736.236Z" fill="#1967A6"/>
<path opacity="0.2" d="M1380.75 736.236C1377.45 736.236 1374.75 738.986 1374.75 742.347C1374.75 745.708 1377.45 748.458 1380.75 748.458C1384.05 748.458 1386.75 745.708 1386.75 742.347C1386.75 738.986 1384.05 736.236 1380.75 736.236Z" fill="#1967A6"/>
<path opacity="0.2" d="M1237.43 760.604C1234.13 760.604 1231.43 763.354 1231.43 766.715C1231.43 770.076 1234.13 772.826 1237.43 772.826C1240.73 772.826 1243.43 770.076 1243.43 766.715C1243.43 763.354 1240.73 760.604 1237.43 760.604Z" fill="#1967A6"/>
<path opacity="0.2" d="M1261.27 760.604C1257.97 760.604 1255.27 763.354 1255.27 766.715C1255.27 770.076 1257.97 772.826 1261.27 772.826C1264.57 772.826 1267.27 770.076 1267.27 766.715C1267.27 763.354 1264.57 760.604 1261.27 760.604Z" fill="#1967A6"/>
<path opacity="0.2" d="M1285.2 760.604C1281.9 760.604 1279.2 763.354 1279.2 766.715C1279.2 770.076 1281.9 772.826 1285.2 772.826C1288.5 772.826 1291.2 770.076 1291.2 766.715C1291.2 763.354 1288.5 760.604 1285.2 760.604Z" fill="#1967A6"/>
<path opacity="0.2" d="M1309.05 760.604C1305.75 760.604 1303.05 763.354 1303.05 766.715C1303.05 770.076 1305.75 772.826 1309.05 772.826C1312.35 772.826 1315.05 770.076 1315.05 766.715C1315.05 763.354 1312.35 760.604 1309.05 760.604Z" fill="#1967A6"/>
<path opacity="0.2" d="M1332.98 760.604C1329.68 760.604 1326.98 763.354 1326.98 766.715C1326.98 770.076 1329.68 772.826 1332.98 772.826C1336.28 772.826 1338.98 770.076 1338.98 766.715C1338.98 763.354 1336.28 760.604 1332.98 760.604Z" fill="#1967A6"/>
<path opacity="0.2" d="M1356.82 760.604C1353.52 760.604 1350.82 763.354 1350.82 766.715C1350.82 770.076 1353.52 772.826 1356.82 772.826C1360.12 772.826 1362.82 770.076 1362.82 766.715C1362.82 763.354 1360.2 760.604 1356.82 760.604Z" fill="#1967A6"/>
<path opacity="0.2" d="M1380.75 760.604C1377.45 760.604 1374.75 763.354 1374.75 766.715C1374.75 770.076 1377.45 772.826 1380.75 772.826C1384.05 772.826 1386.75 770.076 1386.75 766.715C1386.75 763.354 1384.05 760.604 1380.75 760.604Z" fill="#1967A6"/>
<path opacity="0.2" d="M1285.2 784.896C1281.9 784.896 1279.2 787.646 1279.2 791.007C1279.2 794.368 1281.9 797.118 1285.2 797.118C1288.5 797.118 1291.2 794.368 1291.2 791.007C1291.2 787.646 1288.5 784.896 1285.2 784.896Z" fill="#1967A6"/>
<path opacity="0.2" d="M1309.05 784.896C1305.75 784.896 1303.05 787.646 1303.05 791.007C1303.05 794.368 1305.75 797.118 1309.05 797.118C1312.35 797.118 1315.05 794.368 1315.05 791.007C1315.05 787.646 1312.35 784.896 1309.05 784.896Z" fill="#1967A6"/>
<path opacity="0.2" d="M1332.98 784.896C1329.68 784.896 1326.98 787.646 1326.98 791.007C1326.98 794.368 1329.68 797.118 1332.98 797.118C1336.28 797.118 1338.98 794.368 1338.98 791.007C1338.98 787.646 1336.28 784.896 1332.98 784.896Z" fill="#1967A6"/>
<path opacity="0.2" d="M1213.5 663.285C1210.2 663.285 1207.5 666.035 1207.5 669.396C1207.5 672.757 1210.2 675.507 1213.5 675.507C1216.8 675.507 1219.5 672.757 1219.5 669.396C1219.5 666.035 1216.8 663.285 1213.5 663.285Z" fill="#1967A6"/>
<path opacity="0.2" d="M1213.5 687.576C1210.2 687.576 1207.5 690.326 1207.5 693.687C1207.5 697.049 1210.2 699.799 1213.5 699.799C1216.8 699.799 1219.5 697.049 1219.5 693.687C1219.5 690.326 1216.8 687.576 1213.5 687.576Z" fill="#1967A6"/>
<path opacity="0.2" d="M1213.5 711.944C1210.2 711.944 1207.5 714.694 1207.5 718.056C1207.5 721.417 1210.2 724.167 1213.5 724.167C1216.8 724.167 1219.5 721.417 1219.5 718.056C1219.5 714.694 1216.8 711.944 1213.5 711.944Z" fill="#1967A6"/>
<path opacity="0.2" d="M1291.2 19.4028C1287.9 19.4028 1285.2 22.1528 1285.2 25.5139C1285.2 28.875 1287.9 31.625 1291.2 31.625C1294.5 31.625 1297.2 28.875 1297.2 25.5139C1297.2 22.1528 1294.5 19.4028 1291.2 19.4028Z" fill="#1967A6"/>
<path opacity="0.2" d="M1315.05 19.4028C1311.75 19.4028 1309.05 22.1528 1309.05 25.5139C1309.05 28.875 1311.75 31.625 1315.05 31.625C1318.35 31.625 1321.05 28.875 1321.05 25.5139C1321.05 22.1528 1318.43 19.4028 1315.05 19.4028Z" fill="#1967A6"/>
<path opacity="0.2" d="M1338.98 19.4028C1335.68 19.4028 1332.98 22.1528 1332.98 25.5139C1332.98 28.875 1335.68 31.625 1338.98 31.625C1342.28 31.625 1344.98 28.875 1344.98 25.5139C1344.98 22.1528 1342.28 19.4028 1338.98 19.4028Z" fill="#1967A6"/>
<path opacity="0.2" d="M1243.43 43.6945C1240.13 43.6945 1237.43 46.4445 1237.43 49.8056C1237.43 53.1667 1240.13 55.9167 1243.43 55.9167C1246.73 55.9167 1249.43 53.1667 1249.43 49.8056C1249.43 46.4445 1246.73 43.6945 1243.43 43.6945Z" fill="#1967A6"/>
<path opacity="0.2" d="M1267.35 43.6945C1264.05 43.6945 1261.35 46.4445 1261.35 49.8056C1261.35 53.1667 1264.05 55.9167 1267.35 55.9167C1270.65 55.9167 1273.35 53.1667 1273.35 49.8056C1273.35 46.4445 1270.65 43.6945 1267.35 43.6945Z" fill="#1967A6"/>
<path opacity="0.2" d="M1291.2 43.6945C1287.9 43.6945 1285.2 46.4445 1285.2 49.8056C1285.2 53.1667 1287.9 55.9167 1291.2 55.9167C1294.5 55.9167 1297.2 53.1667 1297.2 49.8056C1297.2 46.4445 1294.5 43.6945 1291.2 43.6945Z" fill="#1967A6"/>
<path opacity="0.2" d="M1315.05 43.6945C1311.75 43.6945 1309.05 46.4445 1309.05 49.8056C1309.05 53.1667 1311.75 55.9167 1315.05 55.9167C1318.35 55.9167 1321.05 53.1667 1321.05 49.8056C1321.05 46.4445 1318.43 43.6945 1315.05 43.6945Z" fill="#1967A6"/>
<path opacity="0.2" d="M1338.98 43.6945C1335.68 43.6945 1332.98 46.4445 1332.98 49.8056C1332.98 53.1667 1335.68 55.9167 1338.98 55.9167C1342.28 55.9167 1344.98 53.1667 1344.98 49.8056C1344.98 46.4445 1342.28 43.6945 1338.98 43.6945Z" fill="#1967A6"/>
<path opacity="0.2" d="M1362.9 43.6945C1359.6 43.6945 1356.9 46.4445 1356.9 49.8056C1356.9 53.1667 1359.6 55.9167 1362.9 55.9167C1366.2 55.9167 1368.9 53.1667 1368.9 49.8056C1368.9 46.4445 1366.2 43.6945 1362.9 43.6945Z" fill="#1967A6"/>
<path opacity="0.2" d="M1386.75 43.6945C1383.45 43.6945 1380.75 46.4445 1380.75 49.8056C1380.75 53.1667 1383.45 55.9167 1386.75 55.9167C1390.05 55.9167 1392.75 53.1667 1392.75 49.8056C1392.75 46.4445 1390.05 43.6945 1386.75 43.6945Z" fill="#1967A6"/>
<path opacity="0.2" d="M1243.43 68.0625C1240.13 68.0625 1237.43 70.8125 1237.43 74.1736C1237.43 77.5347 1240.13 80.2847 1243.43 80.2847C1246.73 80.2847 1249.43 77.5347 1249.43 74.1736C1249.43 70.8125 1246.73 68.0625 1243.43 68.0625Z" fill="#1967A6"/>
<path opacity="0.2" d="M1267.35 68.0625C1264.05 68.0625 1261.35 70.8125 1261.35 74.1736C1261.35 77.5347 1264.05 80.2847 1267.35 80.2847C1270.65 80.2847 1273.35 77.5347 1273.35 74.1736C1273.35 70.8125 1270.65 68.0625 1267.35 68.0625Z" fill="#1967A6"/>
<path opacity="0.2" d="M1291.2 68.0625C1287.9 68.0625 1285.2 70.8125 1285.2 74.1736C1285.2 77.5347 1287.9 80.2847 1291.2 80.2847C1294.5 80.2847 1297.2 77.5347 1297.2 74.1736C1297.2 70.8125 1294.5 68.0625 1291.2 68.0625Z" fill="#1967A6"/>
<path opacity="0.2" d="M1315.05 68.0625C1311.75 68.0625 1309.05 70.8125 1309.05 74.1736C1309.05 77.5347 1311.75 80.2847 1315.05 80.2847C1318.35 80.2847 1321.05 77.5347 1321.05 74.1736C1321.05 70.8125 1318.43 68.0625 1315.05 68.0625Z" fill="#1967A6"/>
<path opacity="0.2" d="M1338.98 68.0625C1335.68 68.0625 1332.98 70.8125 1332.98 74.1736C1332.98 77.5347 1335.68 80.2847 1338.98 80.2847C1342.28 80.2847 1344.98 77.5347 1344.98 74.1736C1344.98 70.8125 1342.28 68.0625 1338.98 68.0625Z" fill="#1967A6"/>
<path opacity="0.2" d="M1362.9 68.0625C1359.6 68.0625 1356.9 70.8125 1356.9 74.1736C1356.9 77.5347 1359.6 80.2847 1362.9 80.2847C1366.2 80.2847 1368.9 77.5347 1368.9 74.1736C1368.9 70.8125 1366.2 68.0625 1362.9 68.0625Z" fill="#1967A6"/>
<path opacity="0.2" d="M1386.75 68.0625C1383.45 68.0625 1380.75 70.8125 1380.75 74.1736C1380.75 77.5347 1383.45 80.2847 1386.75 80.2847C1390.05 80.2847 1392.75 77.5347 1392.75 74.1736C1392.75 70.8125 1390.05 68.0625 1386.75 68.0625Z" fill="#1967A6"/>
<path opacity="0.2" d="M1243.43 92.3541C1240.13 92.3541 1237.43 95.1041 1237.43 98.4652C1237.43 101.826 1240.13 104.576 1243.43 104.576C1246.73 104.576 1249.43 101.826 1249.43 98.4652C1249.43 95.1041 1246.73 92.3541 1243.43 92.3541Z" fill="#1967A6"/>
<path opacity="0.2" d="M1267.35 92.3541C1264.05 92.3541 1261.35 95.1041 1261.35 98.4652C1261.35 101.826 1264.05 104.576 1267.35 104.576C1270.65 104.576 1273.35 101.826 1273.35 98.4652C1273.35 95.1041 1270.65 92.3541 1267.35 92.3541Z" fill="#1967A6"/>
<path opacity="0.2" d="M1291.2 92.3541C1287.9 92.3541 1285.2 95.1041 1285.2 98.4652C1285.2 101.826 1287.9 104.576 1291.2 104.576C1294.5 104.576 1297.2 101.826 1297.2 98.4652C1297.2 95.1041 1294.5 92.3541 1291.2 92.3541Z" fill="#1967A6"/>
<path opacity="0.2" d="M1315.05 92.3541C1311.75 92.3541 1309.05 95.1041 1309.05 98.4652C1309.05 101.826 1311.75 104.576 1315.05 104.576C1318.35 104.576 1321.05 101.826 1321.05 98.4652C1321.05 95.1041 1318.43 92.3541 1315.05 92.3541Z" fill="#1967A6"/>
<path opacity="0.2" d="M1338.98 92.3541C1335.68 92.3541 1332.98 95.1041 1332.98 98.4652C1332.98 101.826 1335.68 104.576 1338.98 104.576C1342.28 104.576 1344.98 101.826 1344.98 98.4652C1344.98 95.1041 1342.28 92.3541 1338.98 92.3541Z" fill="#1967A6"/>
<path opacity="0.2" d="M1362.9 92.3541C1359.6 92.3541 1356.9 95.1041 1356.9 98.4652C1356.9 101.826 1359.6 104.576 1362.9 104.576C1366.2 104.576 1368.9 101.826 1368.9 98.4652C1368.9 95.1041 1366.2 92.3541 1362.9 92.3541Z" fill="#1967A6"/>
<path opacity="0.2" d="M1386.75 92.3542C1383.45 92.3542 1380.75 95.1042 1380.75 98.4653C1380.75 101.826 1383.45 104.576 1386.75 104.576C1390.05 104.576 1392.75 101.826 1392.75 98.4653C1392.75 95.1042 1390.05 92.3542 1386.75 92.3542Z" fill="#1967A6"/>
<path opacity="0.2" d="M1410.68 92.3541C1407.38 92.3541 1404.68 95.1041 1404.68 98.4652C1404.68 101.826 1407.38 104.576 1410.68 104.576C1413.98 104.576 1416.68 101.826 1416.68 98.4652C1416.68 95.1041 1413.98 92.3541 1410.68 92.3541Z" fill="#1967A6"/>
<path opacity="0.2" d="M1243.43 116.722C1240.13 116.722 1237.43 119.472 1237.43 122.833C1237.43 126.194 1240.13 128.944 1243.43 128.944C1246.73 128.944 1249.43 126.194 1249.43 122.833C1249.43 119.472 1246.73 116.722 1243.43 116.722Z" fill="#1967A6"/>
<path opacity="0.2" d="M1267.35 116.722C1264.05 116.722 1261.35 119.472 1261.35 122.833C1261.35 126.194 1264.05 128.944 1267.35 128.944C1270.65 128.944 1273.35 126.194 1273.35 122.833C1273.35 119.472 1270.65 116.722 1267.35 116.722Z" fill="#1967A6"/>
<path opacity="0.2" d="M1291.2 116.722C1287.9 116.722 1285.2 119.472 1285.2 122.833C1285.2 126.194 1287.9 128.944 1291.2 128.944C1294.5 128.944 1297.2 126.194 1297.2 122.833C1297.2 119.472 1294.5 116.722 1291.2 116.722Z" fill="#1967A6"/>
<path opacity="0.2" d="M1315.05 116.722C1311.75 116.722 1309.05 119.472 1309.05 122.833C1309.05 126.194 1311.75 128.944 1315.05 128.944C1318.35 128.944 1321.05 126.194 1321.05 122.833C1321.05 119.472 1318.43 116.722 1315.05 116.722Z" fill="#1967A6"/>
<path opacity="0.2" d="M1338.98 116.722C1335.68 116.722 1332.98 119.472 1332.98 122.833C1332.98 126.194 1335.68 128.944 1338.98 128.944C1342.28 128.944 1344.98 126.194 1344.98 122.833C1344.98 119.472 1342.28 116.722 1338.98 116.722Z" fill="#1967A6"/>
<path opacity="0.2" d="M1362.9 116.722C1359.6 116.722 1356.9 119.472 1356.9 122.833C1356.9 126.194 1359.6 128.944 1362.9 128.944C1366.2 128.944 1368.9 126.194 1368.9 122.833C1368.9 119.472 1366.2 116.722 1362.9 116.722Z" fill="#1967A6"/>
<path opacity="0.2" d="M1386.75 116.722C1383.45 116.722 1380.75 119.472 1380.75 122.833C1380.75 126.194 1383.45 128.944 1386.75 128.944C1390.05 128.944 1392.75 126.194 1392.75 122.833C1392.75 119.472 1390.05 116.722 1386.75 116.722Z" fill="#1967A6"/>
<path opacity="0.2" d="M1410.68 116.722C1407.38 116.722 1404.68 119.472 1404.68 122.833C1404.68 126.194 1407.38 128.944 1410.68 128.944C1413.98 128.944 1416.68 126.194 1416.68 122.833C1416.68 119.472 1413.98 116.722 1410.68 116.722Z" fill="#1967A6"/>
<path opacity="0.2" d="M1243.43 141.014C1240.13 141.014 1237.43 143.764 1237.43 147.125C1237.43 150.486 1240.13 153.236 1243.43 153.236C1246.73 153.236 1249.43 150.486 1249.43 147.125C1249.43 143.764 1246.73 141.014 1243.43 141.014Z" fill="#1967A6"/>
<path opacity="0.2" d="M1267.35 141.014C1264.05 141.014 1261.35 143.764 1261.35 147.125C1261.35 150.486 1264.05 153.236 1267.35 153.236C1270.65 153.236 1273.35 150.486 1273.35 147.125C1273.35 143.764 1270.65 141.014 1267.35 141.014Z" fill="#1967A6"/>
<path opacity="0.2" d="M1291.2 141.014C1287.9 141.014 1285.2 143.764 1285.2 147.125C1285.2 150.486 1287.9 153.236 1291.2 153.236C1294.5 153.236 1297.2 150.486 1297.2 147.125C1297.2 143.764 1294.5 141.014 1291.2 141.014Z" fill="#1967A6"/>
<path opacity="0.2" d="M1315.05 141.014C1311.75 141.014 1309.05 143.764 1309.05 147.125C1309.05 150.486 1311.75 153.236 1315.05 153.236C1318.35 153.236 1321.05 150.486 1321.05 147.125C1321.05 143.764 1318.43 141.014 1315.05 141.014Z" fill="#1967A6"/>
<path opacity="0.2" d="M1338.98 141.014C1335.68 141.014 1332.98 143.764 1332.98 147.125C1332.98 150.486 1335.68 153.236 1338.98 153.236C1342.28 153.236 1344.98 150.486 1344.98 147.125C1344.98 143.764 1342.28 141.014 1338.98 141.014Z" fill="#1967A6"/>
<path opacity="0.2" d="M1362.9 141.014C1359.6 141.014 1356.9 143.764 1356.9 147.125C1356.9 150.486 1359.6 153.236 1362.9 153.236C1366.2 153.236 1368.9 150.486 1368.9 147.125C1368.9 143.764 1366.2 141.014 1362.9 141.014Z" fill="#1967A6"/>
<path opacity="0.2" d="M1386.75 141.014C1383.45 141.014 1380.75 143.764 1380.75 147.125C1380.75 150.486 1383.45 153.236 1386.75 153.236C1390.05 153.236 1392.75 150.486 1392.75 147.125C1392.75 143.764 1390.05 141.014 1386.75 141.014Z" fill="#1967A6"/>
<path opacity="0.2" d="M1410.68 141.014C1407.38 141.014 1404.68 143.764 1404.68 147.125C1404.68 150.486 1407.38 153.236 1410.68 153.236C1413.98 153.236 1416.68 150.486 1416.68 147.125C1416.68 143.764 1413.98 141.014 1410.68 141.014Z" fill="#1967A6"/>
<path opacity="0.2" d="M1243.43 165.382C1240.13 165.382 1237.43 168.132 1237.43 171.493C1237.43 174.854 1240.13 177.604 1243.43 177.604C1246.73 177.604 1249.43 174.854 1249.43 171.493C1249.43 168.132 1246.73 165.382 1243.43 165.382Z" fill="#1967A6"/>
<path opacity="0.2" d="M1267.35 165.382C1264.05 165.382 1261.35 168.132 1261.35 171.493C1261.35 174.854 1264.05 177.604 1267.35 177.604C1270.65 177.604 1273.35 174.854 1273.35 171.493C1273.35 168.132 1270.65 165.382 1267.35 165.382Z" fill="#1967A6"/>
<path opacity="0.2" d="M1291.2 165.382C1287.9 165.382 1285.2 168.132 1285.2 171.493C1285.2 174.854 1287.9 177.604 1291.2 177.604C1294.5 177.604 1297.2 174.854 1297.2 171.493C1297.2 168.132 1294.5 165.382 1291.2 165.382Z" fill="#1967A6"/>
<path opacity="0.2" d="M1315.05 165.382C1311.75 165.382 1309.05 168.132 1309.05 171.493C1309.05 174.854 1311.75 177.604 1315.05 177.604C1318.35 177.604 1321.05 174.854 1321.05 171.493C1321.05 168.132 1318.43 165.382 1315.05 165.382Z" fill="#1967A6"/>
<path opacity="0.2" d="M1338.98 165.382C1335.68 165.382 1332.98 168.132 1332.98 171.493C1332.98 174.854 1335.68 177.604 1338.98 177.604C1342.28 177.604 1344.98 174.854 1344.98 171.493C1344.98 168.132 1342.28 165.382 1338.98 165.382Z" fill="#1967A6"/>
<path opacity="0.2" d="M1362.9 165.382C1359.6 165.382 1356.9 168.132 1356.9 171.493C1356.9 174.854 1359.6 177.604 1362.9 177.604C1366.2 177.604 1368.9 174.854 1368.9 171.493C1368.9 168.132 1366.2 165.382 1362.9 165.382Z" fill="#1967A6"/>
<path opacity="0.2" d="M1386.75 165.382C1383.45 165.382 1380.75 168.132 1380.75 171.493C1380.75 174.854 1383.45 177.604 1386.75 177.604C1390.05 177.604 1392.75 174.854 1392.75 171.493C1392.75 168.132 1390.05 165.382 1386.75 165.382Z" fill="#1967A6"/>
<path opacity="0.2" d="M1243.43 189.75C1240.13 189.75 1237.43 192.5 1237.43 195.861C1237.43 199.222 1240.13 201.972 1243.43 201.972C1246.73 201.972 1249.43 199.222 1249.43 195.861C1249.43 192.5 1246.73 189.75 1243.43 189.75Z" fill="#1967A6"/>
<path opacity="0.2" d="M1267.35 189.75C1264.05 189.75 1261.35 192.5 1261.35 195.861C1261.35 199.222 1264.05 201.972 1267.35 201.972C1270.65 201.972 1273.35 199.222 1273.35 195.861C1273.35 192.5 1270.65 189.75 1267.35 189.75Z" fill="#1967A6"/>
<path opacity="0.2" d="M1291.2 189.75C1287.9 189.75 1285.2 192.5 1285.2 195.861C1285.2 199.222 1287.9 201.972 1291.2 201.972C1294.5 201.972 1297.2 199.222 1297.2 195.861C1297.2 192.5 1294.5 189.75 1291.2 189.75Z" fill="#1967A6"/>
<path opacity="0.2" d="M1315.05 189.75C1311.75 189.75 1309.05 192.5 1309.05 195.861C1309.05 199.222 1311.75 201.972 1315.05 201.972C1318.35 201.972 1321.05 199.222 1321.05 195.861C1321.05 192.5 1318.43 189.75 1315.05 189.75Z" fill="#1967A6"/>
<path opacity="0.2" d="M1338.98 189.75C1335.68 189.75 1332.98 192.5 1332.98 195.861C1332.98 199.222 1335.68 201.972 1338.98 201.972C1342.28 201.972 1344.98 199.222 1344.98 195.861C1344.98 192.5 1342.28 189.75 1338.98 189.75Z" fill="#1967A6"/>
<path opacity="0.2" d="M1362.9 189.75C1359.6 189.75 1356.9 192.5 1356.9 195.861C1356.9 199.222 1359.6 201.972 1362.9 201.972C1366.2 201.972 1368.9 199.222 1368.9 195.861C1368.9 192.5 1366.2 189.75 1362.9 189.75Z" fill="#1967A6"/>
<path opacity="0.2" d="M1386.75 189.75C1383.45 189.75 1380.75 192.5 1380.75 195.861C1380.75 199.222 1383.45 201.972 1386.75 201.972C1390.05 201.972 1392.75 199.222 1392.75 195.861C1392.75 192.5 1390.05 189.75 1386.75 189.75Z" fill="#1967A6"/>
<path opacity="0.2" d="M1291.2 214.042C1287.9 214.042 1285.2 216.792 1285.2 220.153C1285.2 223.514 1287.9 226.264 1291.2 226.264C1294.5 226.264 1297.2 223.514 1297.2 220.153C1297.2 216.792 1294.5 214.042 1291.2 214.042Z" fill="#1967A6"/>
<path opacity="0.2" d="M1315.05 214.042C1311.75 214.042 1309.05 216.792 1309.05 220.153C1309.05 223.514 1311.75 226.264 1315.05 226.264C1318.35 226.264 1321.05 223.514 1321.05 220.153C1321.05 216.792 1318.43 214.042 1315.05 214.042Z" fill="#1967A6"/>
<path opacity="0.2" d="M1338.98 214.042C1335.68 214.042 1332.98 216.792 1332.98 220.153C1332.98 223.514 1335.68 226.264 1338.98 226.264C1342.28 226.264 1344.98 223.514 1344.98 220.153C1344.98 216.792 1342.28 214.042 1338.98 214.042Z" fill="#1967A6"/>
<path opacity="0.2" d="M1219.5 92.3542C1216.2 92.3542 1213.5 95.1042 1213.5 98.4653C1213.5 101.826 1216.2 104.576 1219.5 104.576C1222.8 104.576 1225.5 101.826 1225.5 98.4653C1225.5 95.1042 1222.8 92.3542 1219.5 92.3542Z" fill="#1967A6"/>
<path opacity="0.2" d="M1219.5 116.722C1216.2 116.722 1213.5 119.472 1213.5 122.833C1213.5 126.194 1216.2 128.944 1219.5 128.944C1222.8 128.944 1225.5 126.194 1225.5 122.833C1225.5 119.472 1222.8 116.722 1219.5 116.722Z" fill="#1967A6"/>
<path opacity="0.2" d="M1219.5 141.014C1216.2 141.014 1213.5 143.764 1213.5 147.125C1213.5 150.486 1216.2 153.236 1219.5 153.236C1222.8 153.236 1225.5 150.486 1225.5 147.125C1225.5 143.764 1222.8 141.014 1219.5 141.014Z" fill="#1967A6"/>
</g>
<defs>
<clipPath id="clip0_4715_20600">
<rect width="1440" height="825" fill="white"/>
</clipPath>
</defs>
</svg>
