<svg width="184" height="297" viewBox="0 0 184 297" fill="none" xmlns="http://www.w3.org/2000/svg">
<g opacity="0.1">
<path d="M88.402 296.998C80.9708 297.076 73.7719 294.282 68.2759 289.16C62.5477 283.961 59.6836 276.666 59.6836 267.353C59.6836 259.049 62.4703 252.065 67.9663 246.399C73.3074 240.812 80.6612 237.785 88.3246 237.94C95.9105 237.785 103.187 240.889 108.373 246.399C113.792 252.065 116.501 259.049 116.501 267.353C116.501 276.588 113.637 283.805 107.986 289.083C102.413 294.36 95.8332 296.998 88.402 296.998Z" fill="#007CFF"/>
<path d="M0 88.0829C0 75.8987 3.71558 63.5593 11.2242 51.0648C18.7327 38.5702 29.6473 28.171 43.9677 20.0223C58.2882 11.7961 75.0858 7.68298 94.2056 7.68298C112.009 7.68298 127.646 11.0976 141.27 18.0046C154.893 24.9115 165.421 34.2243 172.852 46.0204C180.206 57.5061 184.076 70.8543 183.999 84.513C183.999 95.3778 181.909 105.001 177.651 113.15C173.704 120.988 168.595 128.128 162.557 134.414C156.751 140.389 146.301 150.401 131.207 164.525C127.646 167.862 124.317 171.354 121.144 175.002C118.976 177.485 117.041 180.279 115.57 183.228C114.409 185.634 113.403 188.117 112.706 190.756C112.009 193.239 111.003 197.663 109.687 203.949C107.365 217.297 100.089 223.971 87.7807 223.971C81.7428 224.126 75.9372 221.721 71.6798 217.452C67.345 213.106 65.1775 206.587 65.1775 198.051C65.1775 187.263 66.8031 177.951 69.9768 170.035C72.9958 162.429 77.2532 155.445 82.6718 149.236C89.4062 141.786 96.5278 134.724 104.036 127.972C111.855 120.755 117.583 115.4 121.066 111.753C124.549 108.105 127.491 103.992 129.891 99.5686C132.29 95.0674 133.451 90.023 133.451 84.901C133.451 74.657 129.813 65.9651 122.537 58.903C115.261 51.8408 105.817 48.3486 94.283 48.3486C80.814 48.3486 70.8283 51.9185 64.4809 59.0582C58.1334 66.198 52.7149 76.6748 48.3026 90.4887C44.1226 105.001 36.2269 112.218 24.5383 112.218C17.9586 112.296 11.6112 109.58 7.12152 104.613C2.32223 99.491 0 93.9809 0 88.0829Z" fill="#007CFF"/>
<path d="M88.402 296.998C80.9708 297.076 73.7719 294.282 68.2759 289.16C62.5477 283.961 59.6836 276.666 59.6836 267.353C59.6836 259.049 62.4703 252.065 67.9663 246.399C73.3074 240.812 80.6612 237.785 88.3246 237.94C95.9105 237.785 103.187 240.889 108.373 246.399C113.792 252.065 116.501 259.049 116.501 267.353C116.501 276.588 113.637 283.805 107.986 289.083C102.413 294.36 95.8332 296.998 88.402 296.998Z" fill="#263474"/>
<path d="M0 88.0829C0 75.8987 3.71558 63.5593 11.2242 51.0648C18.7327 38.5702 29.6473 28.171 43.9677 20.0223C58.2882 11.7961 75.0858 7.68298 94.2056 7.68298C112.009 7.68298 127.646 11.0976 141.27 18.0046C154.893 24.9115 165.421 34.2243 172.852 46.0204C180.206 57.5061 184.076 70.8543 183.999 84.513C183.999 95.3778 181.909 105.001 177.651 113.15C173.704 120.988 168.595 128.128 162.557 134.414C156.751 140.389 146.301 150.401 131.207 164.525C127.646 167.862 124.317 171.354 121.144 175.002C118.976 177.485 117.041 180.279 115.57 183.228C114.409 185.634 113.403 188.117 112.706 190.756C112.009 193.239 111.003 197.663 109.687 203.949C107.365 217.297 100.089 223.971 87.7807 223.971C81.7428 224.126 75.9372 221.721 71.6798 217.452C67.345 213.106 65.1775 206.587 65.1775 198.051C65.1775 187.263 66.8031 177.951 69.9768 170.035C72.9958 162.429 77.2532 155.445 82.6718 149.236C89.4062 141.786 96.5278 134.724 104.036 127.972C111.855 120.755 117.583 115.4 121.066 111.753C124.549 108.105 127.491 103.992 129.891 99.5686C132.29 95.0674 133.451 90.023 133.451 84.901C133.451 74.657 129.813 65.9651 122.537 58.903C115.261 51.8408 105.817 48.3486 94.283 48.3486C80.814 48.3486 70.8283 51.9185 64.4809 59.0582C58.1334 66.198 52.7149 76.6748 48.3026 90.4887C44.1226 105.001 36.2269 112.218 24.5383 112.218C17.9586 112.296 11.6112 109.58 7.12152 104.613C2.32223 99.491 0 93.9809 0 88.0829Z" fill="#263474"/>
<path d="M88.402 289.238C80.9708 289.315 73.7719 286.522 68.2759 281.4C62.5477 276.2 59.6836 268.905 59.6836 259.592C59.6836 251.288 62.4703 244.304 67.9663 238.639C73.3074 233.051 80.6612 230.024 88.3246 230.18C95.9105 230.024 103.187 233.129 108.373 238.716C113.792 244.382 116.501 251.366 116.501 259.67C116.501 268.905 113.637 276.122 107.986 281.4C102.413 286.599 95.8332 289.238 88.402 289.238Z" fill="url(#paint0_linear_4715_34448)"/>
<path d="M0 80.3223C0 68.1381 3.71558 55.7988 11.2242 43.3042C18.7327 30.8096 29.6473 20.4104 43.9677 12.2617C58.2882 4.03551 75.0858 0 94.2056 0C112.009 0 127.646 3.41466 141.27 10.3216C154.893 17.2285 165.421 26.5413 172.852 38.3374C180.206 49.8231 184.076 63.1713 183.999 76.83C183.999 87.7725 181.909 97.318 177.651 105.467C173.704 113.305 168.595 120.445 162.557 126.731C156.751 132.706 146.301 142.718 131.207 156.842C127.646 160.179 124.317 163.671 121.144 167.319C118.976 169.802 117.041 172.596 115.57 175.545C114.409 177.951 113.403 180.434 112.706 183.073C112.009 185.556 111.003 189.98 109.687 196.266C107.365 209.614 100.089 216.288 87.7807 216.288C81.7428 216.443 75.9372 214.038 71.6798 209.769C67.345 205.423 65.1775 198.904 65.1775 190.368C65.1775 179.58 66.8031 170.268 69.9768 162.352C72.9958 154.746 77.2532 147.684 82.6718 141.553C89.4062 134.103 96.5278 127.041 104.036 120.289C111.855 113.072 117.583 107.717 121.066 104.07C124.549 100.422 127.491 96.3091 129.891 91.8856C132.29 87.3844 133.451 82.34 133.451 77.218C133.451 66.974 129.813 58.2822 122.537 51.22C115.261 44.1579 105.817 40.6656 94.3603 40.6656C80.8913 40.6656 70.9057 44.2354 64.5583 51.3752C58.2108 58.515 52.7923 68.9918 48.38 82.8057C44.2 97.318 36.3044 104.535 24.6157 104.535C17.9587 104.613 11.6886 101.897 7.19894 96.93C2.32223 91.7304 0 86.2203 0 80.3223Z" fill="url(#paint1_linear_4715_34448)"/>
</g>
<defs>
<linearGradient id="paint0_linear_4715_34448" x1="59.7298" y1="259.674" x2="116.585" y2="259.674" gradientUnits="userSpaceOnUse">
<stop stop-color="#283376"/>
<stop offset="1" stop-color="#1C67A6"/>
</linearGradient>
<linearGradient id="paint1_linear_4715_34448" x1="-0.0232998" y1="108.075" x2="183.945" y2="108.075" gradientUnits="userSpaceOnUse">
<stop stop-color="#283376"/>
<stop offset="1" stop-color="#1C67A6"/>
</linearGradient>
</defs>
</svg>
