<svg width="123" height="92" viewBox="0 0 123 92" fill="none" xmlns="http://www.w3.org/2000/svg">
<path d="M76.187 74.5161V78.3258H77.2441V75.7893H81.0915V78.3258H82.1478V74.5227L76.187 74.5161ZM77.1263 73.2838H81.1911C81.7556 73.1541 82.1755 72.5782 82.2939 72.0212H76.0236C76.1408 72.5784 76.5669 73.1541 77.1263 73.2838ZM72.9855 78.3282C73.5185 78.0671 73.8052 77.6154 73.915 77.0868H69.1738L69.1768 72.0243L68.114 72.0278V78.3282H72.9855ZM60.2104 73.2667H63.9644C64.5303 73.0767 65.0055 72.5784 65.1214 72.0261H59.1582V75.7493H64.0388V77.0559L60.2104 77.0594C59.6105 77.2527 59.1017 77.7183 58.848 78.3333L59.1582 78.3267H65.0875V74.5114H60.2104V73.2667ZM50.9432 73.2787H55.0066C55.5719 73.1485 55.9921 72.5732 56.1099 72.0156H49.84C49.957 72.5732 50.3833 73.1485 50.9432 73.2787ZM50.9432 75.7688H55.0066C55.5719 75.64 55.9921 75.0641 56.1099 74.5062H49.84C49.957 75.0643 50.3833 75.64 50.9432 75.7688ZM50.9432 78.3275H55.0066C55.5719 78.1977 55.9921 77.622 56.1099 77.0648H49.84C49.957 77.6222 50.3833 78.1977 50.9432 78.3275ZM40.3721 72.0309C40.4942 72.5815 40.9067 73.1443 41.4726 73.2853H43.1831L43.2703 73.3252V78.3134H44.3384V73.3252L44.4355 73.2853H46.1474C46.7196 73.115 47.1233 72.5815 47.2433 72.0309V72.0188H40.3721V72.0309Z" fill="#E82127"/>
<path d="M61.3352 59.5674L66.672 24.8785C71.759 24.8785 73.3635 25.5232 73.5952 28.1546C73.5952 28.1546 77.0076 26.6841 78.7287 23.6975C72.0124 20.1006 65.2641 19.9384 65.2641 19.9384L61.3264 25.4815L61.3352 25.4808L57.3975 19.9375C57.3975 19.9375 50.649 20.0999 43.9336 23.6968C45.6532 26.6834 49.067 28.1539 49.067 28.1539C49.3 25.5223 50.9026 24.8776 55.9554 24.8735L61.3352 59.5674Z" fill="#E82127"/>
<path d="M61.3327 18.337C66.7618 18.289 72.9761 19.3077 79.3377 22.5122C80.1879 20.7435 80.4065 19.9618 80.4065 19.9618C73.4524 16.782 66.9399 15.6938 61.3319 15.6665C55.7242 15.6938 49.212 16.7822 42.2588 19.9618C42.2588 19.9618 42.569 20.9246 43.3269 22.5122C49.6872 19.3077 55.9026 18.289 61.3319 18.337H61.3327Z" fill="#E82127"/>
</svg>
