<svg width="716" height="184" viewBox="0 0 716 184" fill="none" xmlns="http://www.w3.org/2000/svg">
<g opacity="0.4">
<path d="M2.2708 47.3715L3.25835 47.2143L2.2708 47.3715ZM25.6808 107.704L25.0272 108.461L25.6808 107.704ZM100.713 129.145L100.531 130.128L100.713 129.145ZM199.155 135.627L199.313 136.615L199.155 135.627ZM289.794 97.732L290.658 98.2352L289.794 97.732ZM289.794 37.3992L289.038 38.0543L289.038 38.0543L289.794 37.3992ZM240.573 15.9586L240.332 16.9292L240.332 16.9292L240.573 15.9586ZM157.737 15.9586L157.982 16.9282L157.737 15.9586ZM119.321 37.3992L118.567 36.742L119.321 37.3992ZM106.716 84.2693L107.705 84.1263L106.716 84.2693ZM139.73 135.627L140.26 134.78L140.26 134.78L139.73 135.627ZM209.359 152.58L209.542 151.597L209.542 151.597L209.359 152.58ZM331.212 163.55L331.165 164.549L331.212 163.55ZM560.5 180L560.37 179.008L560.5 180ZM632 173.5L632.208 174.478L632 173.5ZM702.5 102.5L704.541 113.865L713.363 106.415L702.5 102.5ZM2.2708 1C1.27582 0.899892 1.27582 0.899912 1.27582 0.899935C1.27582 0.899948 1.27581 0.899975 1.27581 0.900001C1.27581 0.900054 1.2758 0.900122 1.27579 0.900207C1.27577 0.900376 1.27575 0.90061 1.27572 0.900907C1.27566 0.901502 1.27558 0.902354 1.27547 0.903461C1.27524 0.905675 1.27492 0.908911 1.2745 0.91316C1.27365 0.921657 1.2724 0.934208 1.27077 0.950744C1.26751 0.983815 1.26271 1.03283 1.2565 1.09724C1.24406 1.22606 1.22595 1.41647 1.20313 1.66414C1.15749 2.15947 1.09298 2.88387 1.01727 3.80259L3.01051 3.96684C3.08565 3.05501 3.1496 2.33706 3.19469 1.84767C3.21724 1.60297 3.23508 1.41544 3.24724 1.2894C3.25333 1.22638 3.25799 1.17873 3.26112 1.147C3.26269 1.13114 3.26387 1.11925 3.26465 1.11141C3.26504 1.10749 3.26533 1.10459 3.26552 1.1027C3.26561 1.10176 3.26568 1.10107 3.26572 1.10063C3.26575 1.10042 3.26576 1.10027 3.26577 1.10018C3.26577 1.10013 3.26578 1.10011 3.26578 1.1001C3.26578 1.10009 3.26578 1.10009 3.26578 1.10009C3.26578 1.1001 3.26578 1.10011 2.2708 1ZM0.59576 9.61863C0.484762 11.3767 0.375453 13.3371 0.281377 15.4383L2.27938 15.5278C2.37285 13.44 2.48147 11.492 2.59179 9.74465L0.59576 9.61863ZM0.0777778 21.2654C0.0309692 23.1615 0.0025629 25.1171 0.000165074 27.098L2.00016 27.1004C2.00254 25.1369 2.0307 23.197 2.07717 21.3148L0.0777778 21.2654ZM0.0744934 32.9368C0.12918 34.9018 0.216247 36.8601 0.343048 38.779L2.3387 38.6471C2.2138 36.7571 2.1278 34.8244 2.07372 32.8812L0.0744934 32.9368ZM0.878206 44.6202C0.998254 45.613 1.13283 46.5844 1.28325 47.5288L3.25835 47.2143C3.11227 46.297 2.98109 45.3506 2.86374 44.3801L0.878206 44.6202ZM1.28325 47.5288C1.42999 48.4502 1.56962 49.3626 1.70358 50.2664L3.68196 49.9732C3.54708 49.0631 3.40636 48.1436 3.25835 47.2143L1.28325 47.5288ZM2.47268 55.7537C2.72401 57.6286 2.96075 59.4522 3.20128 61.2586L5.18378 60.9946C4.94518 59.2027 4.70564 57.3581 4.45495 55.488L2.47268 55.7537ZM3.97078 66.7722C4.24958 68.6422 4.54796 70.48 4.88386 72.2884L6.85023 71.9232C6.51983 70.1443 6.22529 68.331 5.94891 66.4773L3.97078 66.7722ZM6.05814 77.7755C6.50934 79.6048 7.02206 81.4076 7.61709 83.1879L9.51394 82.5539C8.9381 80.831 8.43997 79.0805 7.99994 77.2966L6.05814 77.7755ZM9.66468 88.4532C10.4246 90.1476 11.2818 91.8233 12.2553 93.4844L13.9808 92.4731C13.0452 90.8767 12.2209 89.2656 11.4896 87.6348L9.66468 88.4532ZM15.3798 98.2076C16.4632 99.6695 17.6527 101.121 18.9615 102.567L20.444 101.224C19.178 99.8262 18.0301 98.4248 16.9867 97.0168L15.3798 98.2076ZM22.9283 106.58C23.6025 107.208 24.3018 107.835 25.0272 108.461L26.3345 106.948C25.6275 106.337 24.9468 105.727 24.2912 105.116L22.9283 106.58ZM25.0272 108.461C25.7631 109.097 26.5014 109.708 27.2422 110.296L28.4856 108.73C27.7666 108.159 27.0497 107.565 26.3345 106.948L25.0272 108.461ZM31.901 113.674C33.5346 114.751 35.1813 115.729 36.8429 116.619L37.7873 114.856C36.1784 113.994 34.584 113.047 33.0018 112.004L31.901 113.674ZM42.0279 119.104C43.8011 119.859 45.5917 120.532 47.4015 121.135L48.0337 119.237C46.2717 118.65 44.5321 117.997 42.812 117.264L42.0279 119.104ZM52.9014 122.752C54.738 123.226 56.5954 123.645 58.4752 124.023L58.8692 122.062C57.02 121.691 55.1983 121.28 53.4013 120.816L52.9014 122.752ZM64.0904 125.03C65.9427 125.327 67.8186 125.599 69.719 125.855L69.9869 123.873C68.0982 123.618 66.2393 123.349 64.4073 123.055L64.0904 125.03ZM75.3484 126.576C77.1951 126.804 79.0756 127.03 80.973 127.262L81.2159 125.277C79.3094 125.043 77.4417 124.819 75.5927 124.591L75.3484 126.576ZM86.5865 127.97C88.4265 128.211 90.2913 128.468 92.1828 128.747L92.4756 126.769C90.5709 126.487 88.695 126.229 86.8467 125.987L86.5865 127.97ZM97.7552 129.634C98.6742 129.792 99.5994 129.956 100.531 130.128L100.895 128.162C99.954 127.988 99.02 127.822 98.0928 127.663L97.7552 129.634ZM100.531 130.128C101.56 130.319 102.577 130.508 103.585 130.696L103.952 128.73C102.943 128.541 101.925 128.352 100.895 128.162L100.531 130.128ZM109.686 131.84C111.759 132.23 113.791 132.612 115.787 132.985L116.154 131.019C114.16 130.646 112.129 130.264 110.056 129.874L109.686 131.84ZM121.894 134.111C123.965 134.487 126.002 134.849 128.012 135.196L128.352 133.225C126.348 132.88 124.317 132.518 122.251 132.143L121.894 134.111ZM134.147 136.211C136.217 136.538 138.266 136.844 140.303 137.126L140.577 135.145C138.555 134.865 136.518 134.561 134.459 134.236L134.147 136.211ZM146.482 137.909C148.55 138.145 150.615 138.352 152.685 138.528L152.854 136.536C150.805 136.361 148.759 136.156 146.708 135.922L146.482 137.909ZM158.907 138.958C160.968 139.067 163.043 139.141 165.141 139.179L165.177 137.179C163.103 137.142 161.051 137.068 159.012 136.961L158.907 138.958ZM171.38 139.181C173.428 139.145 175.504 139.074 177.616 138.963L177.511 136.966C175.423 137.075 173.37 137.146 171.346 137.181L171.38 139.181ZM183.838 138.533C185.867 138.358 187.934 138.149 190.043 137.902L189.81 135.915C187.721 136.16 185.675 136.368 183.667 136.54L183.838 138.533ZM196.227 137.086C197.245 136.938 198.273 136.78 199.313 136.615L198.998 134.64C197.967 134.804 196.947 134.96 195.938 135.107L196.227 137.086ZM199.313 136.615C200.248 136.465 201.18 136.319 202.11 136.174L201.803 134.197C200.87 134.343 199.935 134.49 198.998 134.64L199.313 136.615ZM207.708 135.316C209.589 135.032 211.455 134.753 213.309 134.473L213.012 132.496C211.16 132.775 209.29 133.055 207.409 133.339L207.708 135.316ZM218.919 133.62C220.803 133.329 222.671 133.034 224.522 132.732L224.199 130.758C222.356 131.059 220.494 131.353 218.613 131.643L218.919 133.62ZM230.123 131.778C232.009 131.443 233.873 131.094 235.714 130.728L235.324 128.766C233.498 129.13 231.647 129.476 229.773 129.809L230.123 131.778ZM241.282 129.544C243.155 129.118 245 128.667 246.816 128.186L246.304 126.252C244.513 126.727 242.69 127.172 240.838 127.594L241.282 129.544ZM252.307 126.604C254.147 126.027 255.952 125.411 257.719 124.749L257.018 122.876C255.287 123.524 253.517 124.129 251.709 124.695L252.307 126.604ZM263.019 122.567C264.777 121.772 266.491 120.92 268.158 120.004L267.195 118.251C265.576 119.141 263.909 119.969 262.195 120.744L263.019 122.567ZM273.074 117.016C274.667 115.946 276.208 114.801 277.695 113.576L276.423 112.033C274.989 113.215 273.5 114.32 271.958 115.356L273.074 117.016ZM281.95 109.685C283.283 108.333 284.56 106.898 285.779 105.373L284.217 104.124C283.041 105.594 281.81 106.978 280.525 108.281L281.95 109.685ZM289.148 100.693C289.665 99.895 290.169 99.0759 290.658 98.2352L288.93 97.2288C288.456 98.0425 287.969 98.8347 287.47 99.6062L289.148 100.693ZM290.658 98.2352C291.215 97.2786 291.756 96.3239 292.28 95.3712L290.527 94.4079C290.012 95.3454 289.479 96.2857 288.93 97.2288L290.658 98.2352ZM295.283 89.5113C296.244 87.4806 297.115 85.4577 297.883 83.4425L296.014 82.7305C295.266 84.692 294.417 86.6669 293.475 88.6555L295.283 89.5113ZM299.939 77.1475C300.527 74.97 300.978 72.8001 301.276 70.638L299.295 70.3647C299.009 72.436 298.576 74.523 298.008 76.6264L299.939 77.1475ZM301.694 63.9786C301.659 61.7501 301.442 59.5317 301.025 57.3239L299.06 57.6953C299.455 59.7867 299.661 61.8912 299.694 64.0098L301.694 63.9786ZM299.214 50.8858C298.451 48.8612 297.503 46.8496 296.359 44.8509L294.623 45.8446C295.717 47.7539 296.618 49.6693 297.343 51.5912L299.214 50.8858ZM292.657 39.3212C291.994 38.4596 291.292 37.6006 290.549 36.7441L289.038 38.0543C289.756 38.8822 290.434 39.711 291.072 40.5407L292.657 39.3212ZM290.549 36.7441C289.928 36.0269 289.298 35.3398 288.661 34.6811L287.223 36.0717C287.835 36.7039 288.44 37.3642 289.038 38.0543L290.549 36.7441ZM284.55 30.8974C283.076 29.6946 281.564 28.6122 280.012 27.6304L278.943 29.3206C280.429 30.2607 281.875 31.2964 283.285 32.4469L284.55 30.8974ZM275.133 24.9176C273.471 24.1079 271.768 23.3824 270.021 22.7197L269.312 24.5896C271.009 25.2335 272.656 25.9355 274.257 26.7156L275.133 24.9176ZM264.777 20.9376C263.048 20.4091 261.277 19.9178 259.465 19.4466L258.962 21.3822C260.754 21.8482 262.496 22.3318 264.192 22.8503L264.777 20.9376ZM254.128 18.1287C252.389 17.7162 250.609 17.3055 248.791 16.8845L248.34 18.8328C250.16 19.2546 251.934 19.6637 253.667 20.0748L254.128 18.1287ZM243.47 15.635C242.593 15.4248 241.708 15.2096 240.813 14.9879L240.332 16.9292C241.232 17.1523 242.123 17.3687 243.003 17.5799L243.47 15.635ZM240.813 14.9879C239.83 14.7441 238.856 14.5078 237.893 14.2789L237.431 16.2248C238.388 16.4521 239.355 16.6869 240.332 16.9292L240.813 14.9879ZM232.024 12.9538C230.02 12.526 228.054 12.1335 226.12 11.7764L225.757 13.7432C227.672 14.0966 229.619 14.4855 231.607 14.9098L232.024 12.9538ZM220.18 10.7778C218.163 10.4735 216.175 10.2107 214.207 9.98958L213.984 11.9771C215.926 12.1952 217.889 12.4547 219.882 12.7554L220.18 10.7778ZM208.199 9.4408C206.18 9.29996 204.174 9.20498 202.171 9.15619L202.123 11.1556C204.094 11.2036 206.07 11.2972 208.06 11.436L208.199 9.4408ZM196.136 9.14932C194.135 9.19357 192.128 9.28411 190.107 9.42121L190.242 11.4166C192.234 11.2816 194.21 11.1924 196.18 11.1488L196.136 9.14932ZM184.098 9.96003C182.131 10.1784 180.142 10.4393 178.123 10.743L178.42 12.7208C180.415 12.4207 182.378 12.1632 184.319 11.9478L184.098 9.96003ZM172.181 11.7426C170.248 12.1008 168.282 12.4959 166.277 12.928L166.698 14.8831C168.686 14.4548 170.633 14.0636 172.546 13.7091L172.181 11.7426ZM160.411 14.2689C159.448 14.501 158.476 14.741 157.493 14.9889L157.982 16.9282C158.958 16.6819 159.924 16.4436 160.88 16.2133L160.411 14.2689ZM157.493 14.9889C156.545 15.228 155.632 15.4531 154.75 15.6676L155.223 17.6109C156.109 17.3954 157.027 17.169 157.982 16.9282L157.493 14.9889ZM149.257 16.9894C147.283 17.4695 145.465 17.9314 143.751 18.4346L144.314 20.3536C145.982 19.8639 147.764 19.4108 149.73 18.9328L149.257 16.9894ZM138.313 20.3619C136.58 21.1111 134.899 21.9951 133.191 23.0964L134.275 24.7774C135.888 23.7377 137.471 22.9049 139.106 22.1976L138.313 20.3619ZM128.563 26.5641C127.228 27.6992 125.842 28.9881 124.374 30.4621L125.791 31.8737C127.227 30.4319 128.572 29.1814 129.858 28.0876L128.563 26.5641ZM120.461 34.6053C119.846 35.2866 119.216 35.9983 118.567 36.742L120.075 38.0564C120.716 37.3205 121.339 36.6174 121.946 35.9452L120.461 34.6053ZM118.567 36.742C117.844 37.5719 117.151 38.3842 116.489 39.1819L118.029 40.459C118.679 39.6752 119.361 38.8754 120.075 38.0564L118.567 36.742ZM112.56 44.2569C111.24 46.1125 110.095 47.9196 109.115 49.7224L110.872 50.6776C111.808 48.9564 112.908 47.2177 114.19 45.4166L112.56 44.2569ZM106.481 55.669C105.781 57.7126 105.272 59.8019 104.935 61.9966L106.911 62.3007C107.232 60.2183 107.713 58.2443 108.373 56.3171L106.481 55.669ZM104.422 68.4543C104.393 70.4787 104.469 72.6115 104.638 74.8859L106.633 74.7373C106.467 72.5103 106.393 70.4377 106.421 68.483L104.422 68.4543ZM105.294 81.2421C105.425 82.2698 105.569 83.3258 105.726 84.4123L107.705 84.1263C107.55 83.0497 107.407 82.005 107.278 80.9898L105.294 81.2421ZM105.726 84.4123C105.881 85.4861 106.044 86.5417 106.216 87.5801L108.189 87.253C108.02 86.2294 107.859 85.1875 107.705 84.1263L105.726 84.4123ZM107.429 93.8762C107.908 96.0217 108.446 98.0922 109.057 100.097L110.97 99.5133C110.375 97.5632 109.85 95.5424 109.381 93.4405L107.429 93.8762ZM111.233 106.175C112.066 108.177 113.002 110.114 114.055 111.997L115.801 111.02C114.786 109.208 113.885 107.341 113.079 105.406L111.233 106.175ZM117.555 117.443C118.8 119.145 120.167 120.806 121.671 122.435L123.141 121.078C121.687 119.503 120.368 117.901 119.169 116.262L117.555 117.443ZM126.282 126.951C127.826 128.326 129.483 129.684 131.262 131.031L132.47 129.437C130.729 128.119 129.114 126.795 127.612 125.458L126.282 126.951ZM136.498 134.735C137.373 135.315 138.273 135.895 139.199 136.475L140.26 134.78C139.349 134.209 138.463 133.638 137.603 133.068L136.498 134.735ZM139.199 136.475C140.075 137.023 140.947 137.548 141.815 138.049L142.816 136.318C141.969 135.828 141.117 135.316 140.26 134.78L139.199 136.475ZM147.206 140.902C149.083 141.806 150.946 142.611 152.802 143.334L153.527 141.47C151.718 140.766 149.902 139.981 148.073 139.1L147.206 140.902ZM158.565 145.326C160.524 145.923 162.482 146.443 164.447 146.903L164.903 144.955C162.977 144.505 161.061 143.996 159.148 143.413L158.565 145.326ZM170.401 148.124C172.379 148.478 174.372 148.79 176.386 149.077L176.668 147.097C174.671 146.813 172.703 146.504 170.754 146.155L170.401 148.124ZM182.378 149.863C184.343 150.104 186.338 150.337 188.366 150.577L188.601 148.591C186.57 148.351 184.581 148.118 182.622 147.878L182.378 149.863ZM194.342 151.303C196.287 151.55 198.268 151.814 200.291 152.107L200.578 150.127C198.54 149.832 196.547 149.567 194.593 149.319L194.342 151.303ZM206.222 153.038C207.197 153.204 208.182 153.379 209.177 153.563L209.542 151.597C208.536 151.411 207.541 151.234 206.558 151.067L206.222 153.038ZM209.177 153.563C210.196 153.752 211.205 153.936 212.206 154.117L212.561 152.149C211.564 151.969 210.557 151.785 209.542 151.597L209.177 153.563ZM218.24 155.177C220.294 155.527 222.312 155.86 224.298 156.178L224.614 154.203C222.635 153.887 220.623 153.554 218.577 153.205L218.24 155.177ZM230.354 157.114C232.409 157.419 234.433 157.709 236.43 157.982L236.702 156.001C234.713 155.728 232.696 155.44 230.648 155.135L230.354 157.114ZM242.513 158.779C244.564 159.036 246.591 159.277 248.6 159.503L248.824 157.516C246.823 157.29 244.804 157.05 242.761 156.795L242.513 158.779ZM254.704 160.155C256.751 160.362 258.785 160.555 260.81 160.736L260.988 158.743C258.97 158.563 256.944 158.371 254.904 158.165L254.704 160.155ZM266.921 161.249C268.959 161.409 270.996 161.559 273.037 161.701L273.175 159.706C271.14 159.565 269.11 159.415 267.078 159.255L266.921 161.249ZM279.154 162.099C281.181 162.223 283.218 162.341 285.272 162.453L285.381 160.456C283.331 160.344 281.298 160.227 279.276 160.103L279.154 162.099ZM291.395 162.771C293.411 162.871 295.448 162.968 297.512 163.063L297.604 161.065C295.542 160.97 293.507 160.874 291.494 160.774L291.395 162.771ZM303.629 163.338C305.64 163.427 307.679 163.515 309.753 163.604L309.839 161.606C307.766 161.517 305.727 161.428 303.717 161.34L303.629 163.338ZM315.863 163.867C317.869 163.953 319.909 164.042 321.986 164.133L322.074 162.135C319.996 162.044 317.956 161.955 315.949 161.869L315.863 163.867ZM328.095 164.407C329.109 164.453 330.132 164.5 331.165 164.549L331.258 162.551C330.225 162.503 329.201 162.455 328.186 162.409L328.095 164.407ZM331.165 164.549C332.158 164.595 333.14 164.646 334.113 164.7L334.226 162.703C333.246 162.648 332.257 162.597 331.258 162.551L331.165 164.549ZM339.96 165.086C341.948 165.236 343.896 165.403 345.809 165.586L345.999 163.595C344.073 163.411 342.112 163.243 340.111 163.091L339.96 165.086ZM351.65 166.2C353.623 166.427 355.559 166.67 357.464 166.925L357.73 164.943C355.814 164.686 353.865 164.442 351.878 164.213L351.65 166.2ZM363.282 167.759C365.242 168.058 367.171 168.369 369.074 168.689L369.406 166.717C367.494 166.395 365.554 166.082 363.583 165.782L363.282 167.759ZM374.864 169.705C376.807 170.059 378.729 170.421 380.636 170.788L381.014 168.824C379.102 168.456 377.173 168.093 375.222 167.738L374.864 169.705ZM386.411 171.919C388.342 172.302 390.263 172.687 392.182 173.072L392.574 171.111C390.657 170.727 388.734 170.341 386.801 169.957L386.411 171.919ZM397.959 174.222C399.882 174.6 401.808 174.975 403.746 175.341L404.118 173.376C402.186 173.011 400.265 172.637 398.346 172.259L397.959 174.222ZM409.551 176.406C411.471 176.746 413.407 177.075 415.367 177.391L415.685 175.417C413.737 175.103 411.811 174.775 409.9 174.437L409.551 176.406ZM421.21 178.279C423.132 178.553 425.08 178.811 427.061 179.052L427.302 177.067C425.336 176.828 423.401 176.571 421.492 176.299L421.21 178.279ZM432.943 179.702C434.867 179.894 436.825 180.067 438.82 180.22L438.973 178.226C436.993 178.074 435.051 177.902 433.141 177.712L432.943 179.702ZM444.722 180.606C446.654 180.711 448.621 180.796 450.629 180.86L450.693 178.861C448.7 178.798 446.747 178.713 444.83 178.609L444.722 180.606ZM456.527 180.985C457.508 180.995 458.499 181 459.5 181V179C458.506 179 457.522 178.995 456.548 178.985L456.527 180.985ZM459.5 181C460.569 181 461.622 181.004 462.662 181.011L462.676 179.011C461.632 179.004 460.573 179 459.5 179V181ZM468.975 181.1C471.133 181.146 473.232 181.205 475.28 181.275L475.349 179.277C473.293 179.206 471.185 179.146 469.017 179.101L468.975 181.1ZM481.585 181.528C483.733 181.627 485.83 181.734 487.889 181.845L487.997 179.848C485.934 179.736 483.831 179.629 481.676 179.531L481.585 181.528ZM494.195 182.203C496.323 182.328 498.423 182.453 500.505 182.572L500.62 180.576C498.539 180.456 496.443 180.332 494.312 180.207L494.195 182.203ZM506.824 182.916C508.93 183.022 511.035 183.117 513.152 183.195L513.226 181.196C511.119 181.119 509.024 181.024 506.924 180.919L506.824 182.916ZM519.488 183.373C521.573 183.411 523.683 183.429 525.832 183.42L525.824 181.42C523.691 181.429 521.596 181.411 519.525 181.373L519.488 183.373ZM532.177 183.319C534.243 183.261 536.353 183.176 538.518 183.062L538.412 181.064C536.264 181.178 534.171 181.262 532.121 181.32L532.177 183.319ZM544.848 182.649C546.898 182.49 549.001 182.304 551.164 182.088L550.965 180.098C548.817 180.313 546.729 180.497 544.694 180.655L544.848 182.649ZM557.474 181.389C558.512 181.264 559.563 181.131 560.63 180.992L560.37 179.008C559.31 179.147 558.265 179.279 557.233 179.404L557.474 181.389ZM560.63 180.992C561.589 180.866 562.572 180.746 563.577 180.632L563.351 178.645C562.336 178.76 561.342 178.881 560.37 179.008L560.63 180.992ZM569.512 180.036C571.448 179.863 573.437 179.704 575.467 179.555L575.32 177.56C573.282 177.71 571.282 177.87 569.335 178.044L569.512 180.036ZM581.429 179.146C583.4 179.019 585.395 178.897 587.402 178.777L587.282 176.78C585.274 176.901 583.276 177.023 581.3 177.15L581.429 179.146ZM593.378 178.423C595.374 178.304 597.371 178.185 599.357 178.06L599.232 176.064C597.25 176.188 595.255 176.308 593.259 176.426L593.378 178.423ZM605.34 177.665C607.362 177.523 609.359 177.373 611.321 177.21L611.156 175.217C609.204 175.379 607.215 175.528 605.2 175.67L605.34 177.665ZM617.305 176.661C619.361 176.451 621.359 176.222 623.282 175.968L623.021 173.986C621.121 174.236 619.142 174.463 617.102 174.671L617.305 176.661ZM629.245 175.056C630.265 174.874 631.254 174.681 632.208 174.478L631.792 172.522C630.861 172.72 629.895 172.908 628.894 173.087L629.245 175.056ZM632.208 174.478C633.115 174.285 634.067 174.083 635.062 173.873L634.647 171.916C633.653 172.127 632.699 172.328 631.792 172.522L632.208 174.478ZM640.768 172.652C642.598 172.254 644.515 171.83 646.5 171.377L646.055 169.427C644.078 169.879 642.168 170.301 640.343 170.698L640.768 172.652ZM652.205 170.032C654.072 169.577 655.978 169.097 657.909 168.59L657.401 166.655C655.483 167.159 653.588 167.636 651.732 168.089L652.205 170.032ZM663.566 167.042C665.437 166.508 667.318 165.948 669.198 165.36L668.601 163.451C666.738 164.033 664.873 164.589 663.017 165.119L663.566 167.042ZM674.786 163.523C676.647 162.879 678.495 162.206 680.318 161.502L679.597 159.636C677.799 160.331 675.973 160.996 674.132 161.632L674.786 163.523ZM685.773 159.261C687.598 158.464 689.382 157.63 691.113 156.76L690.215 154.973C688.519 155.826 686.767 156.644 684.972 157.429L685.773 159.261ZM696.32 153.923C698.061 152.891 699.725 151.812 701.292 150.683L700.123 149.061C698.61 150.151 696.997 151.197 695.3 152.202L696.32 153.923ZM705.931 146.921C707.442 145.527 708.81 144.064 710.008 142.527L708.43 141.298C707.308 142.738 706.016 144.122 704.575 145.45L705.931 146.921ZM713.21 137.375C714.08 135.533 714.712 133.602 715.072 131.578L713.103 131.228C712.776 133.068 712.2 134.83 711.402 136.521L713.21 137.375ZM715.321 125.494C715.149 123.578 714.746 121.6 714.094 119.559L712.189 120.168C712.799 122.08 713.171 123.913 713.329 125.673L715.321 125.494ZM711.785 114.026C710.933 112.363 709.925 110.661 708.751 108.918L707.092 110.036C708.225 111.718 709.193 113.352 710.004 114.938L711.785 114.026Z" fill="#002680"/>
</g>
</svg>
