<svg width="1440" height="663" viewBox="0 0 1440 663" fill="none" xmlns="http://www.w3.org/2000/svg">
<g opacity="0.4" clip-path="url(#clip0_5373_19990)">
<path d="M1440 0H-2.17578V810H1440V0Z" fill="#EEF8FF"/>
<g opacity="0.3">
<mask id="mask0_5373_19990" style="mask-type:luminance" maskUnits="userSpaceOnUse" x="141" y="-1" width="1299" height="812">
<path d="M144.599 -0.300049H1436.47C1438.42 -0.300049 1440 1.27495 1440 3.22495V806.7C1440 808.65 1438.42 810.225 1436.47 810.225H144.599C142.649 810.225 141.074 808.65 141.074 806.7V3.22495C141.149 1.27495 142.724 -0.300049 144.599 -0.300049Z" fill="white"/>
</mask>
<g mask="url(#mask0_5373_19990)">
<path d="M589.875 -165.825C720.075 -136.875 823.125 -27.7501 849.225 101.925C877.5 242.475 846.825 403.125 1179.3 402.825C1649.33 402.375 1239.67 1158.3 1581.9 1127.55" stroke="#00BBFF" stroke-width="0.5" stroke-miterlimit="10"/>
<path d="M579.301 -158.025C698.776 -121.125 799.576 -10.35 832.651 114.225C868.501 249.225 871.051 395.85 1176.15 417.225C1607.33 447.375 1269.3 1150.8 1575.3 1146.9" stroke="#00ADEB" stroke-width="0.5" stroke-miterlimit="10"/>
<path d="M568.727 -150.225C677.402 -105.3 776.027 7.12492 816.077 126.45C859.427 255.825 895.802 388.65 1173.08 431.475C1566.53 492.3 1299 1143.22 1568.7 1166.1" stroke="#009ED8" stroke-width="0.5" stroke-miterlimit="10"/>
<path d="M558.227 -142.425C656.102 -89.4751 752.552 24.4499 799.577 138.675C850.502 262.5 921.302 381.75 1170 445.8C1526.7 537.75 1328.63 1135.65 1562.18 1185.37" stroke="#0090C4" stroke-width="0.5" stroke-miterlimit="10"/>
<path d="M547.648 -134.625C634.723 -73.7251 728.998 41.9249 782.998 150.9C841.498 269.1 947.473 375.525 1166.92 460.125C1488.3 584.025 1358.32 1128.08 1555.65 1204.73" stroke="#0081B1" stroke-width="0.5" stroke-miterlimit="10"/>
<path d="M537.074 -126.825C613.349 -57.9001 705.524 59.3249 766.424 163.125C832.499 275.7 974.174 370.5 1163.77 474.45C1450.87 631.875 1387.87 1120.5 1549.05 1223.92" stroke="#00739D" stroke-width="0.5" stroke-miterlimit="10"/>
<path d="M526.574 -118.95C592.049 -42.0751 682.049 76.7999 749.924 175.425C823.574 282.45 1001.1 367.125 1160.7 488.775C1414.05 681.825 1417.57 1113 1542.45 1243.27" stroke="#006589" stroke-width="0.5" stroke-miterlimit="10"/>
<path d="M516 -111.15C570.675 -26.2501 658.5 94.1249 733.35 187.725C814.5 289.125 1027.35 365.55 1157.62 503.175C1376.55 734.4 1447.28 1105.5 1535.85 1262.62" stroke="#005676" stroke-width="0.5" stroke-miterlimit="10"/>
<path d="M505.426 -103.35C549.301 -10.5001 634.951 111.6 716.776 199.95C805.501 295.725 1052.25 365.175 1154.48 517.5C1336.8 789.15 1476.83 1097.92 1529.25 1281.9" stroke="#004862" stroke-width="0.5" stroke-miterlimit="10"/>
<path d="M494.926 -95.55C528.001 5.32495 611.476 129 700.276 212.175C796.576 302.4 1075.65 365.25 1151.48 531.75C1293.98 844.875 1506.6 1090.35 1522.73 1301.1" stroke="#263474" stroke-miterlimit="10"/>
<path d="M484.352 -87.7501C506.627 21.1499 587.927 146.4 683.702 224.4C787.577 309 1097.48 364.95 1148.33 546.075C1247.85 900.225 1536.15 1082.77 1516.13 1320.37" stroke="#263474" stroke-miterlimit="10"/>
<path d="M473.773 -79.875C485.323 36.975 564.373 163.875 667.123 236.7C778.573 315.675 1118.25 363.825 1145.25 560.475C1199.32 954.225 1565.85 1075.27 1509.52 1339.72" stroke="#263474" stroke-miterlimit="10"/>
<path d="M463.199 -72.0751C463.949 52.7999 540.824 181.275 650.624 249C769.649 322.425 1138.5 361.5 1142.25 574.875C1149.67 1006.43 1595.62 1067.77 1503.07 1359.08" stroke="#263474" stroke-miterlimit="10"/>
<path d="M452.7 -64.2751C442.65 68.5499 517.35 198.675 634.125 261.225C760.65 329.025 1158.67 358.125 1139.1 589.125C1099.5 1056.75 1625.17 1060.2 1496.47 1378.27" stroke="#263474" stroke-miterlimit="10"/>
<g opacity="0.4">
<path d="M1527 1510.42C1406.7 1452.82 1331.1 1323.22 1335 1191.07C1339.27 1047.67 1405.57 898.125 1081.57 823.425C623.774 717.75 1193.85 73.875 853.574 26.55" stroke="#000DFF" stroke-width="0.5" stroke-miterlimit="10"/>
<path d="M1534.05 1505.48C1426.05 1442.55 1352.92 1311.9 1348.95 1183.13C1344.6 1043.55 1375.35 900.075 1082.92 810.45C669.674 683.775 1158.22 74.85 859.273 9.52502" stroke="#1420FF" stroke-width="0.5" stroke-miterlimit="10"/>
<path d="M1541.1 1500.6C1445.4 1432.28 1374.75 1300.57 1362.83 1175.25C1349.85 1039.42 1344.53 901.875 1084.13 797.475C714.751 649.5 1122.6 75.825 865.051 -7.42505" stroke="#2732FF" stroke-width="0.5" stroke-miterlimit="10"/>
<path d="M1548.08 1495.72C1464.75 1422.07 1396.58 1289.25 1376.62 1167.45C1355.03 1035.37 1313.1 903.225 1085.32 784.65C758.7 614.625 1086.97 76.875 870.75 -24.375" stroke="#3B45FF" stroke-width="0.5" stroke-miterlimit="10"/>
<path d="M1555.12 1490.85C1484.1 1411.88 1418.4 1278 1390.5 1159.57C1360.27 1031.25 1281.15 903.675 1086.52 771.675C801.599 578.475 1051.35 77.85 876.449 -41.325" stroke="#4E57FF" stroke-width="0.5" stroke-miterlimit="10"/>
<path d="M1562.1 1485.97C1503.38 1401.67 1440.23 1266.67 1404.38 1151.7C1365.53 1027.12 1248.98 902.85 1087.8 758.775C843.826 540.675 1015.73 78.825 882.301 -58.275" stroke="#626AFF" stroke-width="0.5" stroke-miterlimit="10"/>
<path d="M1569.15 1481.1C1522.8 1391.4 1462.05 1255.35 1418.25 1143.9C1370.78 1023.08 1217.02 900.45 1089 745.875C885.9 500.625 980.1 79.875 888 -75.225" stroke="#767DFF" stroke-width="0.5" stroke-miterlimit="10"/>
<path d="M1576.2 1476.22C1542.15 1381.2 1483.87 1244.02 1432.12 1136.02C1376.02 1018.95 1185.97 896.475 1090.27 732.975C929.398 458.25 944.473 80.8499 893.773 -92.175" stroke="#898FFF" stroke-width="0.5" stroke-miterlimit="10"/>
<path d="M1583.17 1471.35C1561.42 1371 1505.7 1232.78 1445.92 1128.23C1381.12 1014.9 1156.5 891.525 1091.4 720.075C975.298 414.225 908.848 81.9 899.398 -109.125" stroke="#9DA2FF" stroke-width="0.5" stroke-miterlimit="10"/>
<path d="M1590.22 1466.48C1580.77 1360.73 1527.52 1221.45 1459.87 1120.35C1386.52 1010.78 1128.9 886.425 1092.75 707.175C1024.8 369.9 873.298 82.8751 905.248 -126.075" stroke="#B1B5FF" stroke-width="0.5" stroke-miterlimit="10"/>
<path d="M1597.2 1461.52C1600.13 1350.45 1549.35 1210.05 1473.68 1112.4C1391.63 1006.57 1102.5 882 1093.88 694.125C1077.15 326.55 837.6 83.775 910.95 -143.1" stroke="#C4C7FF" stroke-width="0.5" stroke-miterlimit="10"/>
<path d="M1604.25 1456.65C1619.48 1340.25 1571.18 1198.8 1487.55 1104.6C1396.88 1002.45 1076.93 878.925 1095.15 681.3C1131.6 285.45 801.975 84.9 916.725 -159.975" stroke="#D8DAFF" stroke-width="0.5" stroke-miterlimit="10"/>
<path d="M1611.22 1451.77C1638.75 1329.97 1592.92 1187.48 1501.35 1096.73C1402.05 998.4 1051.57 876.975 1096.27 668.4C1186.8 246.3 766.349 85.8749 922.349 -176.925" stroke="#EBECFF" stroke-width="0.5" stroke-miterlimit="10"/>
<path d="M1618.27 1446.9C1658.1 1319.77 1614.82 1176.15 1515.3 1088.93C1407.37 994.275 1026.3 876.15 1097.62 655.5C1242 208.875 730.725 86.925 928.2 -193.875" stroke="white" stroke-width="0.5" stroke-miterlimit="10"/>
</g>
<path d="M631.949 18.15C762.149 47.1 758.924 279.975 891.299 285.9C1198.65 299.775 984.449 582.825 1316.92 582.45C1786.95 582 1281.82 1342.28 1624.05 1311.53" stroke="#1967A6" stroke-miterlimit="10"/>
<path d="M641.551 11.25C761.026 48.225 749.701 279.225 880.951 288.45C1174.2 309 1001.25 575.925 1306.43 597.225C1737.68 627.375 1311.38 1334.85 1617.38 1330.95" stroke="#1967A6" stroke-miterlimit="10"/>
<path d="M651.223 4.34998C759.898 49.275 740.548 278.4 870.673 290.925C1149.75 317.7 1018.72 569.025 1296 611.85C1689.37 672.675 1341.07 1327.2 1610.85 1350.15" stroke="#1967A6" stroke-miterlimit="10"/>
<path d="M660.824 -2.54999C758.699 50.4 731.174 277.5 860.324 293.4C1125.22 326.025 1036.8 562.425 1285.57 626.55C1642.27 718.425 1370.7 1319.7 1604.25 1369.42" stroke="#1967A6" stroke-miterlimit="10"/>
<path d="M670.426 -9.44995C757.501 51.4501 721.801 276.375 849.976 295.875C1100.63 333.975 1055.63 556.575 1275.08 641.175C1596.45 765.075 1400.33 1312.13 1597.65 1388.7" stroke="#1967A6" stroke-miterlimit="10"/>
<path d="M680.098 -16.35C756.373 52.575 712.498 275.175 839.773 298.35C1076.17 341.4 1075.12 551.925 1264.72 655.875C1551.82 813.3 1430.1 1304.63 1591.12 1408.05" stroke="#1967A6" stroke-miterlimit="10"/>
<path d="M689.699 -23.25C755.174 53.625 703.049 273.75 829.424 300.825C1051.65 348.45 1094.62 548.85 1254.22 670.5C1507.57 863.55 1459.65 1297.05 1584.52 1427.25" stroke="#1967A6" stroke-miterlimit="10"/>
<path d="M699.375 -30.15C754.05 54.75 693.825 272.175 819.075 303.3C1027.12 355.05 1113.45 547.5 1243.8 685.2C1462.73 916.425 1489.35 1289.55 1577.92 1446.6" stroke="#1967A6" stroke-miterlimit="10"/>
<path d="M708.973 -37.05C752.848 55.8 684.448 270.3 808.798 305.85C1002.75 361.2 1131.15 547.575 1233.37 699.9C1415.7 971.55 1518.97 1281.97 1571.4 1465.95" stroke="#1967A6" stroke-miterlimit="10"/>
<path d="M718.574 -44.025C751.724 56.85 675.224 268.125 798.449 308.25C978.449 366.825 1147.05 547.95 1222.87 714.45C1365.37 1027.57 1548.6 1274.32 1564.72 1485.07" stroke="#1967A6" stroke-miterlimit="10"/>
<path d="M728.176 -50.925C750.451 57.9749 666.151 265.65 788.101 310.725C954.301 372.15 1161.53 548.025 1212.38 729.15C1311.9 1083.3 1578.15 1266.82 1558.13 1504.42" stroke="#1967A6" stroke-miterlimit="10"/>
<path d="M737.85 -57.825C749.4 59.0251 657.3 262.8 777.9 313.2C930.525 377.025 1175.02 547.125 1202.1 743.775C1256.17 1137.53 1608 1259.25 1551.67 1523.63" stroke="#1967A6" stroke-miterlimit="10"/>
<path d="M747.525 -64.725C748.275 60.15 648.75 259.425 767.625 315.675C907.05 381.675 1188 545.175 1191.67 758.475C1199.1 1190.03 1637.7 1251.75 1545.15 1542.98" stroke="#1967A6" stroke-miterlimit="10"/>
<path d="M757.124 -71.625C747.074 61.2 640.574 255.675 757.274 318.15C883.799 385.95 1200.75 542.025 1181.17 773.1C1141.57 1240.73 1667.25 1244.17 1538.55 1562.25" stroke="#1967A6" stroke-miterlimit="10"/>
<g opacity="0.43">
<path d="M1664.03 1557C1541.4 1504.5 1587.68 1276.28 1458.75 1245.98C1159.28 1175.7 1422.15 936.975 1095.38 876C633.377 789.75 1270.5 135.75 928.502 102.825" stroke="#FF6200" stroke-linecap="round" stroke-linejoin="round"/>
<path d="M1669.5 1538.17C1546.5 1486.72 1590.83 1258.2 1461.68 1229.02C1161.75 1161.3 1422.53 920.475 1095.38 862.275C632.851 779.925 1264.2 120.9 922.126 90.825" stroke="#EB6D14" stroke-linecap="round" stroke-linejoin="round"/>
<path d="M1675.05 1519.43C1551.67 1469.03 1594.05 1240.2 1464.75 1212.15C1164.38 1146.9 1423.05 904.05 1095.45 848.55C632.4 770.1 1257.97 106.05 915.75 78.8999" stroke="#D87827" stroke-linecap="round" stroke-linejoin="round"/>
<path d="M1680.52 1500.6C1556.77 1451.25 1597.2 1222.2 1467.68 1195.2C1166.85 1132.5 1423.35 887.55 1095.45 834.825C631.95 760.275 1251.67 91.1999 909.375 66.8999" stroke="#C4833B" stroke-linecap="round" stroke-linejoin="round"/>
<path d="M1686.07 1481.77C1561.87 1433.47 1600.42 1204.12 1470.75 1178.17C1169.47 1118.02 1423.87 870.975 1095.6 821.025C631.499 750.375 1245.6 76.275 903.074 54.825" stroke="#B18E4E" stroke-linecap="round" stroke-linejoin="round"/>
<path d="M1691.55 1462.95C1566.97 1415.7 1603.57 1186.05 1473.67 1161.22C1171.95 1103.62 1424.25 854.475 1095.6 807.225C631.049 740.475 1239.3 61.4249 896.699 42.825" stroke="#9D9962" stroke-linecap="round" stroke-linejoin="round"/>
<path d="M1697.1 1444.12C1572.15 1397.92 1606.8 1167.97 1476.75 1144.27C1174.57 1089.22 1424.7 837.975 1095.75 793.5C630.673 730.65 1233.07 46.4999 890.398 30.825" stroke="#89A476" stroke-linecap="round" stroke-linejoin="round"/>
<path d="M1702.65 1425.3C1577.32 1380.15 1610.1 1149.9 1479.75 1127.33C1177.12 1074.75 1425.15 821.475 1095.82 779.775C630.223 720.825 1226.85 31.65 884.023 18.825" stroke="#76B089" stroke-linecap="round" stroke-linejoin="round"/>
<path d="M1708.12 1406.48C1582.42 1362.38 1613.25 1131.83 1482.75 1110.3C1179.67 1060.28 1425.6 804.9 1095.82 765.975C629.773 711 1220.62 16.8 877.648 6.82495" stroke="#62BB9D" stroke-linecap="round" stroke-linejoin="round"/>
<path d="M1713.68 1387.65C1587.6 1344.68 1616.48 1113.83 1485.75 1093.43C1182.23 1045.95 1425.98 788.475 1095.9 752.325C629.251 701.175 1214.4 1.94995 871.352 -5.17505" stroke="#4EC6B1" stroke-linecap="round" stroke-linejoin="round"/>
<path d="M1719.15 1368.82C1592.7 1326.82 1619.63 1095.75 1488.75 1076.4C1184.78 1031.47 1426.43 771.9 1095.98 738.45C628.877 691.2 1208.25 -13.05 864.977 -17.25" stroke="#3BD1C4" stroke-linecap="round" stroke-linejoin="round"/>
<path d="M1724.7 1350.07C1597.88 1309.12 1622.85 1077.75 1491.75 1059.52C1187.33 1017.15 1426.88 755.475 1096.05 724.8C628.426 681.45 1201.95 -27.825 858.676 -29.175" stroke="#27DCD8" stroke-linecap="round" stroke-linejoin="round"/>
<path d="M1730.18 1331.25C1602.9 1291.35 1626 1059.67 1494.68 1042.5C1189.73 1002.6 1427.18 738.9 1096.05 711C627.901 671.55 1195.73 -42.7501 852.301 -41.1751" stroke="#14E7EB" stroke-linecap="round" stroke-linejoin="round"/>
<path d="M1735.73 1312.43C1608.08 1273.58 1629.23 1041.68 1497.75 1025.55C1192.42 988.2 1427.7 722.4 1096.12 697.275C627.525 661.725 1189.58 -57.6001 846 -53.1751" stroke="#00F2FF" stroke-linecap="round" stroke-linejoin="round"/>
<path d="M1698.83 1334.77C1583.63 1289.02 1614.23 1060.35 1484.7 1040.55C1194.68 996.075 1389.15 741.3 1088.48 697.125C664.727 634.875 1144.65 -42.15 841.727 -60.3" stroke="#00DFEB" stroke-linecap="round" stroke-linejoin="round"/>
<path d="M1661.85 1357.05C1559.18 1304.4 1599.15 1079.17 1471.57 1055.4C1197 1004.32 1350 759.975 1080.68 696.75C700.8 607.65 1099.58 -27.0001 837.375 -67.7251" stroke="#00CDD8" stroke-linecap="round" stroke-linejoin="round"/>
<path d="M1624.95 1379.4C1534.73 1319.85 1584.3 1098.15 1458.53 1070.32C1199.4 1013.1 1310.18 778.425 1072.95 696.525C735.676 580.275 1054.58 -11.6251 833.102 -74.8501" stroke="#00BAC4" stroke-linecap="round" stroke-linejoin="round"/>
<path d="M1587.97 1401.75C1510.2 1335.22 1569.37 1117.27 1445.4 1085.25C1201.8 1022.4 1269.52 796.2 1065.15 696.3C769.274 551.775 1009.65 3.67488 828.824 -82.1251" stroke="#00A8B1" stroke-linecap="round" stroke-linejoin="round"/>
<path d="M1551.08 1424.1C1485.83 1350.67 1554.6 1136.62 1432.35 1100.25C1204.2 1032.37 1228.35 812.7 1057.35 696.15C801.527 521.7 964.577 19.0499 824.477 -89.3251" stroke="#00959D" stroke-linecap="round" stroke-linejoin="round"/>
<path d="M1514.1 1446.45C1461.3 1366.13 1539.75 1156.2 1419.15 1115.17C1206.45 1042.87 1186.95 827.325 1049.55 695.925C833.175 489.075 919.575 34.425 820.125 -96.525" stroke="#008289" stroke-linecap="round" stroke-linejoin="round"/>
<path d="M1477.2 1468.8C1436.85 1381.57 1524.9 1176 1406.1 1130.1C1208.62 1053.82 1146.52 839.925 1041.75 695.7C865.873 453.6 874.573 49.7249 815.773 -103.725" stroke="#007076" stroke-linecap="round" stroke-linejoin="round"/>
<path d="M1440.22 1491.07C1412.32 1396.95 1509.9 1196.02 1392.97 1144.95C1210.65 1065.3 1107.75 851.1 1033.95 695.4C901.499 415.8 829.574 65.0999 811.574 -111" stroke="#005D62" stroke-linecap="round" stroke-linejoin="round"/>
<path d="M1403.32 1513.42C1387.87 1412.4 1494.82 1216.5 1379.92 1159.95C1212.52 1077.45 1071 862.275 1026.22 695.25C941.024 377.475 784.574 80.3999 807.224 -118.2" stroke="#004A4E" stroke-linecap="round" stroke-linejoin="round"/>
<path d="M1366.42 1535.77C1363.42 1427.77 1479.45 1237.35 1366.87 1174.87C1214.02 1089.97 1035.9 874.2 1018.5 695.025C984.074 340.425 739.649 95.6999 802.949 -125.475" stroke="#00383B" stroke-linecap="round" stroke-linejoin="round"/>
<path d="M1329.45 1558.12C1338.97 1443.22 1463.7 1258.65 1353.75 1189.8C1215.07 1102.95 1001.55 887.55 1010.7 694.8C1029.15 305.55 694.648 111.075 798.598 -132.675" stroke="#002527" stroke-linecap="round" stroke-linejoin="round"/>
<path d="M1292.55 1580.47C1314.53 1458.67 1447.58 1280.47 1340.7 1204.72C1215.75 1116.22 967.501 902.1 1002.98 694.575C1075.05 272.925 649.651 126.375 794.326 -139.875" stroke="#001314" stroke-linecap="round" stroke-linejoin="round"/>
<path d="M1255.57 1602.83C1290 1474.13 1430.7 1302.67 1327.57 1219.72C1215.75 1129.72 933.225 917.85 995.175 694.425C1120.57 242.175 604.65 141.825 790.05 -147.075" stroke="black" stroke-linecap="round" stroke-linejoin="round"/>
</g>
<path d="M690.602 94.2C820.202 125.85 812.177 358.575 944.327 367.275C1251.3 387.45 1031.33 666 1363.73 672.525C1833.6 681.75 1312.95 1431.45 1655.7 1407.75" stroke="#007AFF" stroke-linecap="round" stroke-linejoin="round"/>
<path d="M697.727 92.2499C827.327 123.9 819.302 356.625 951.452 365.325C1258.43 385.5 1038.45 664.05 1370.85 670.575C1840.73 679.8 1320.08 1429.5 1662.83 1405.8" stroke="#007AFF" stroke-linecap="round" stroke-linejoin="round"/>
<path d="M704.852 90.375C834.452 122.025 826.427 354.75 958.577 363.45C1265.55 383.625 1045.58 662.175 1377.98 668.7C1847.85 677.925 1327.2 1427.63 1669.95 1403.93" stroke="#007AFF" stroke-linecap="round" stroke-linejoin="round"/>
<path d="M711.977 88.4999C841.577 120.15 833.552 352.875 965.702 361.575C1272.68 381.75 1052.7 660.3 1385.1 666.825C1854.98 676.05 1334.33 1425.75 1677.08 1402.05" stroke="#007AFF" stroke-linecap="round" stroke-linejoin="round"/>
<path d="M719.027 86.5499C848.627 118.2 840.602 350.925 972.752 359.625C1279.73 379.8 1059.75 658.35 1392.15 664.875C1862.03 674.1 1341.38 1423.8 1684.13 1400.1" stroke="#007AFF" stroke-linecap="round" stroke-linejoin="round"/>
<path d="M726.152 84.6749C855.752 116.325 847.727 349.05 979.877 357.75C1286.85 377.925 1066.88 656.475 1399.28 663C1869.15 672.225 1348.5 1421.92 1691.25 1398.22" stroke="#007AFF" stroke-linecap="round" stroke-linejoin="round"/>
<path d="M733.277 82.725C862.877 114.375 854.852 347.175 987.002 355.8C1293.98 375.975 1074 654.525 1406.4 661.05C1876.28 670.275 1355.63 1419.97 1698.38 1396.27" stroke="#007AFF" stroke-linecap="round" stroke-linejoin="round"/>
<path d="M740.402 80.85C870.002 112.5 861.977 345.225 994.127 353.925C1301.1 374.1 1081.13 652.65 1413.53 659.175C1883.4 668.4 1362.75 1418.1 1705.5 1394.4" stroke="#007AFF" stroke-linecap="round" stroke-linejoin="round"/>
<path d="M747.527 78.975C877.127 110.625 869.102 343.35 1001.25 352.05C1308.23 372.225 1088.25 650.775 1420.65 657.3C1890.53 666.525 1369.88 1416.22 1712.63 1392.52" stroke="#007AFF" stroke-linecap="round" stroke-linejoin="round"/>
<path d="M754.578 77.0249C884.178 108.675 876.153 341.4 1008.3 350.1C1315.28 370.275 1095.3 648.825 1427.7 655.35C1897.58 664.575 1376.93 1414.27 1719.68 1390.57" stroke="#007AFF" stroke-linecap="round" stroke-linejoin="round"/>
<path d="M761.703 75.1499C891.303 106.8 883.278 339.525 1015.43 348.225C1322.4 368.4 1102.43 646.95 1434.83 653.475C1904.7 662.7 1384.05 1412.4 1726.8 1388.7" stroke="#007AFF" stroke-linecap="round" stroke-linejoin="round"/>
<path d="M768.828 73.2749C898.428 104.925 890.403 337.65 1022.55 346.35C1329.53 366.525 1109.55 645.075 1441.95 651.6C1911.83 660.825 1391.18 1410.52 1733.93 1386.82" stroke="#007AFF" stroke-linecap="round" stroke-linejoin="round"/>
<path d="M775.953 71.325C905.553 102.975 897.528 335.7 1029.68 344.4C1336.65 364.575 1116.68 643.125 1449.08 649.65C1918.95 658.875 1398.3 1408.57 1741.05 1384.87" stroke="#007AFF" stroke-linecap="round" stroke-linejoin="round"/>
<path d="M783 69.45C912.6 101.1 904.575 333.825 1036.73 342.525C1343.7 362.7 1123.72 641.25 1456.12 647.775C1926 657 1405.35 1406.7 1748.1 1383" stroke="#007AFF" stroke-linecap="round" stroke-linejoin="round"/>
<path d="M803.176 48.75C921.826 88.125 905.776 318.9 1036.8 330.75C1329.6 357.3 1151.18 620.625 1455.83 648.225C1886.33 687.225 1445.55 1385.78 1751.55 1388.18" stroke="#0071EB" stroke-linecap="round" stroke-linejoin="round"/>
<path d="M823.203 28.125C930.903 75.3 906.828 303.975 1036.65 319.125C1315.13 351.675 1178.93 600.15 1455.3 648.75C1847.4 717.675 1485.6 1364.93 1754.85 1393.43" stroke="#0067D8" stroke-linecap="round" stroke-linejoin="round"/>
<path d="M843.301 7.5C940.051 62.4 907.876 288.9 1036.65 307.5C1300.8 345.6 1207.58 580.125 1454.93 649.275C1809.68 748.5 1525.8 1344 1758.23 1398.6" stroke="#005EC4" stroke-linecap="round" stroke-linejoin="round"/>
<path d="M863.477 -13.2001C949.277 49.4999 908.927 273.675 1036.73 295.725C1286.55 339 1236.98 560.625 1454.63 649.725C1773.38 780.225 1566 1323.07 1761.68 1403.77" stroke="#0054B1" stroke-linecap="round" stroke-linejoin="round"/>
<path d="M883.5 -33.8251C958.35 36.5999 909.9 258.3 1036.57 284.1C1272.07 332.025 1266.67 542.4 1454.02 650.25C1737.82 813.525 1605.97 1302.22 1764.9 1408.95" stroke="#004B9D" stroke-linecap="round" stroke-linejoin="round"/>
<path d="M903.602 -54.525C967.502 23.7 910.877 242.7 1036.58 272.4C1257.75 324.6 1296.6 525.825 1453.65 650.775C1702.95 849 1646.1 1281.37 1768.2 1414.2" stroke="#004289" stroke-linecap="round" stroke-linejoin="round"/>
<path d="M923.703 -75.15C976.653 10.875 911.928 227.025 1036.58 260.7C1243.5 316.725 1325.85 510.9 1453.28 651.225C1667.33 886.95 1686.3 1260.45 1771.65 1419.37" stroke="#003876" stroke-linecap="round" stroke-linejoin="round"/>
<path d="M943.875 -95.775C985.875 -2.02502 913.05 211.05 1036.57 249.075C1229.32 308.4 1353.82 497.4 1452.9 651.75C1629.52 927.075 1726.42 1239.6 1775.02 1424.55" stroke="#002F62" stroke-linecap="round" stroke-linejoin="round"/>
<path d="M963.977 -116.475C995.027 -14.925 914.177 194.7 1036.58 237.375C1215.3 299.7 1380.15 484.2 1452.53 652.275C1588.58 968.25 1766.63 1218.75 1778.4 1429.8" stroke="#00264E" stroke-linecap="round" stroke-linejoin="round"/>
<path d="M984.002 -137.1C1004.1 -27.8251 915.452 178.125 1036.5 225.675C1201.35 290.475 1404.98 470.625 1452.08 652.725C1544.33 1008.9 1806.68 1197.82 1781.78 1434.97" stroke="#001C3B" stroke-linecap="round" stroke-linejoin="round"/>
<path d="M1004.1 -157.8C1013.25 -40.725 916.95 161.1 1036.43 213.975C1187.7 280.95 1428.68 456.075 1451.63 653.175C1497.6 1047.98 1846.8 1176.9 1785.08 1440.07" stroke="#001327" stroke-linecap="round" stroke-linejoin="round"/>
<path d="M1024.2 -178.425C1022.4 -53.55 918.75 143.625 1036.42 202.35C1174.42 271.2 1451.92 440.4 1451.25 653.775C1449.75 1085.4 1887 1156.12 1788.45 1445.4" stroke="#000914" stroke-linecap="round" stroke-linejoin="round"/>
<path d="M1044.3 -199.05C1031.55 -66.45 921.002 125.775 1036.43 190.65C1161.53 261.075 1475.18 423.675 1450.88 654.225C1401.68 1120.95 1927.13 1135.2 1791.83 1450.58" stroke="black" stroke-linecap="round" stroke-linejoin="round"/>
</g>
</g>
</g>
<defs>
<clipPath id="clip0_5373_19990">
<rect width="1440" height="663" fill="white"/>
</clipPath>
</defs>
</svg>
