<svg width="48" height="57" viewBox="0 0 48 57" fill="none" xmlns="http://www.w3.org/2000/svg">
<g clip-path="url(#clip0_6204_14813)">
<g clip-path="url(#clip1_6204_14813)">
<path fill-rule="evenodd" clip-rule="evenodd" d="M13.386 -0.755371H34.6152C38.1412 -0.755371 41 2.11572 41 5.64893V52.1117C41 55.6473 38.1412 58.5149 34.6152 58.5149H13.386C9.85993 58.5149 7 55.6473 7 52.1117V5.64082C7 2.09717 9.85415 -0.755371 13.386 -0.755371ZM13.3455 30.8151C12.9014 30.8151 12.5406 30.4533 12.5406 30.008C12.5406 29.5627 12.9014 29.2021 13.3455 29.2021H34.6545C35.0986 29.2021 35.4594 29.5627 35.4594 30.008C35.4594 30.4533 35.0986 30.8151 34.6545 30.8151H13.3455ZM13.3455 35.2284C12.9014 35.2284 12.5406 34.8666 12.5406 34.4213C12.5406 33.9761 12.9014 33.6143 13.3455 33.6143H30.8717C31.3158 33.6143 31.6766 33.9761 31.6766 34.4213C31.6766 34.8666 31.3158 35.2284 30.8717 35.2284H13.3455ZM13.3455 44.0527C12.9014 44.0527 12.5406 43.6921 12.5406 43.2468C12.5406 42.8016 12.9014 42.4398 13.3455 42.4398H18.9439C19.388 42.4398 19.7488 42.8016 19.7488 43.2468C19.7488 43.6921 19.388 44.0527 18.9439 44.0527H13.3455ZM13.3455 39.6406C12.9014 39.6406 12.5406 39.2788 12.5406 38.8335C12.5406 38.3882 12.9014 38.0276 13.3455 38.0276H22.2503C22.6944 38.0276 23.0552 38.3882 23.0552 38.8335C23.0552 39.2788 22.6944 39.6406 22.2503 39.6406H13.3455ZM27.5376 44.0006C27.6047 44.0595 27.6596 44.1311 27.6992 44.2113C27.7387 44.2915 27.7621 44.3787 27.768 44.468C27.7739 44.5573 27.7622 44.6468 27.7336 44.7315C27.705 44.8163 27.66 44.8945 27.6012 44.9618C27.5425 45.0291 27.471 45.0842 27.391 45.1238C27.3111 45.1634 27.2241 45.1869 27.135 45.1928C27.046 45.1987 26.9567 45.187 26.8722 45.1583C26.7877 45.1296 26.7096 45.0845 26.6425 45.0256L24.4996 43.1436C24.4325 43.0847 24.3776 43.0131 24.338 42.9329C24.2985 42.8527 24.2751 42.7655 24.2692 42.6762C24.2633 42.5869 24.275 42.4974 24.3036 42.4126C24.3322 42.3279 24.3772 42.2496 24.436 42.1824L24.5042 42.1139L26.6425 40.2354C26.7097 40.1766 26.7878 40.1315 26.8724 40.1029C26.9569 40.0743 27.0463 40.0627 27.1353 40.0687C27.2243 40.0748 27.3113 40.0983 27.3912 40.1381C27.4712 40.1778 27.5425 40.233 27.6012 40.3004C27.7197 40.4364 27.7795 40.614 27.7676 40.7942C27.7557 40.9744 27.673 41.1425 27.5376 41.2617L25.9776 42.6311L27.5376 44.0006ZM32.6793 45.0256C32.6121 45.0846 32.5341 45.1297 32.4496 45.1584C32.3651 45.1871 32.2758 45.1988 32.1867 45.1929C32.0977 45.187 32.0107 45.1635 31.9307 45.1239C31.8507 45.0842 31.7793 45.0292 31.7205 44.9618C31.6618 44.8945 31.6168 44.8163 31.5882 44.7315C31.5595 44.6468 31.5478 44.5573 31.5538 44.468C31.5597 44.3787 31.583 44.2915 31.6226 44.2113C31.6621 44.1311 31.717 44.0595 31.7841 44.0006L33.3431 42.6311L31.7841 41.2617C31.717 41.2027 31.6621 41.1311 31.6226 41.0509C31.583 40.9707 31.5597 40.8835 31.5538 40.7942C31.5478 40.705 31.5595 40.6154 31.5882 40.5307C31.6168 40.4459 31.6618 40.3677 31.7205 40.3004C31.9669 40.0163 32.3971 39.9884 32.6793 40.2354L34.8164 42.1139L34.8858 42.1824C34.9445 42.2497 34.9894 42.328 35.0179 42.4128C35.0464 42.4976 35.058 42.5872 35.052 42.6764C35.046 42.7657 35.0225 42.8529 34.9829 42.9331C34.9432 43.0132 34.8882 43.0848 34.821 43.1436L32.6793 45.0256ZM29.5371 39.847C29.6216 39.4805 29.9882 39.2521 30.3548 39.3368C30.7202 39.4226 30.9492 39.7902 30.8636 40.1566L29.6389 45.4152C29.5975 45.5914 29.4883 45.7439 29.3351 45.8395C29.1819 45.9351 28.9972 45.966 28.8213 45.9254C28.4547 45.8396 28.2269 45.472 28.3124 45.1056L29.5371 39.847ZM33.298 17.734C33.2043 17.669 33.106 17.6458 32.9984 17.6644C32.8909 17.6841 32.8041 17.7398 32.7394 17.8325L32.389 18.3312C32.2618 18.2767 32.1299 18.2337 31.9935 18.1978C31.8582 18.1619 31.7205 18.1352 31.5829 18.1143L31.4684 17.4615C31.4499 17.3513 31.3967 17.2655 31.3065 17.2017C31.2163 17.138 31.118 17.1171 31.0082 17.1368L30.1894 17.2794C30.0853 17.298 30.0009 17.3513 29.935 17.4418C29.8702 17.5322 29.8482 17.6319 29.8667 17.7421L29.9708 18.3393C29.8401 18.3961 29.7141 18.4599 29.595 18.5318C29.4747 18.6037 29.3637 18.6813 29.2584 18.7648L28.708 18.3822C28.6201 18.3172 28.5229 18.2929 28.4142 18.3114C28.3067 18.33 28.2222 18.3868 28.1563 18.4784L27.6833 19.1544C27.6186 19.2472 27.5954 19.3469 27.6139 19.4548C27.6336 19.5615 27.6891 19.6496 27.7816 19.7134L28.2789 20.0659C28.2246 20.1934 28.1818 20.3245 28.1459 20.4613C28.1101 20.5981 28.0835 20.7361 28.0627 20.8741L27.4116 20.9877C27.3017 21.0063 27.215 21.0608 27.1525 21.1512C27.0889 21.2405 27.0681 21.3402 27.0866 21.4504L27.23 22.2702C27.2485 22.3757 27.3017 22.4604 27.3919 22.5265C27.4821 22.5903 27.5804 22.6134 27.6903 22.5937L28.287 22.4894C28.3437 22.6216 28.4073 22.7468 28.479 22.8662C28.5507 22.9868 28.6293 23.1016 28.7126 23.2118L28.3298 23.7568C28.265 23.8449 28.2407 23.9412 28.2593 24.0502C28.2778 24.158 28.3344 24.2438 28.4258 24.3099L29.1012 24.7911C29.1925 24.8514 29.292 24.8711 29.3984 24.8526C29.5059 24.834 29.5938 24.7807 29.6586 24.6937L30.009 24.187C30.135 24.2403 30.2669 24.2844 30.4033 24.3192C30.5398 24.3551 30.6763 24.3829 30.8139 24.4027L30.9284 25.0567C30.9469 25.1668 31.0012 25.2526 31.0903 25.3164C31.1805 25.379 31.2799 25.4011 31.3898 25.3813L32.2074 25.2387C32.3127 25.2202 32.3971 25.1668 32.4618 25.0764C32.5266 24.9859 32.5497 24.8862 32.5301 24.776L32.426 24.1777C32.5557 24.123 32.6813 24.0591 32.8018 23.9864C32.9221 23.9133 33.0366 23.8356 33.1465 23.751L33.69 24.136C33.7779 24.2009 33.875 24.2252 33.9849 24.2055C34.0971 24.1858 34.1803 24.1302 34.2405 24.0397L34.7216 23.3625C34.7817 23.2698 34.8014 23.1712 34.7829 23.0634C34.7644 22.9555 34.7112 22.8686 34.6244 22.8025L34.1179 22.4523C34.1722 22.3247 34.215 22.1925 34.2509 22.0557C34.2867 21.92 34.3145 21.782 34.3342 21.644L34.9864 21.5304C35.0963 21.5107 35.1818 21.4574 35.2454 21.3669C35.3079 21.2776 35.3299 21.1779 35.3102 21.0677L35.168 20.2479C35.1495 20.1424 35.0963 20.0578 35.0061 19.9917C34.9158 19.9267 34.8164 19.9047 34.7065 19.9232L34.1098 20.0276C34.0538 19.8997 33.9901 19.7754 33.919 19.6554C33.8461 19.5325 33.7686 19.4188 33.6854 19.3145L34.0682 18.7614C34.1329 18.6732 34.1572 18.5758 34.1376 18.4668C34.119 18.3601 34.0624 18.2743 33.971 18.2082L33.298 17.734ZM30.9596 19.8861C31.1481 19.8537 31.332 19.8583 31.5124 19.9001C31.6916 19.943 31.8547 20.0148 31.9993 20.1169C32.1438 20.2189 32.2664 20.3476 32.3682 20.503C32.4676 20.6596 32.5347 20.8312 32.5671 21.0202C32.6006 21.208 32.596 21.3924 32.5544 21.5733C32.5116 21.753 32.4387 21.9165 32.3381 22.0615C32.2336 22.208 32.1026 22.3334 31.9518 22.4314C31.7969 22.5323 31.6257 22.5984 31.4372 22.6308C31.2499 22.6645 31.066 22.6598 30.8844 22.6181C30.7052 22.5752 30.5433 22.5033 30.3976 22.4012C30.253 22.2992 30.1304 22.1705 30.0298 22.0151C29.9292 21.8586 29.8621 21.6869 29.8297 21.4979C29.7973 21.3101 29.802 21.1257 29.8436 20.9448C29.8864 20.7639 29.9581 20.6016 30.0599 20.4555C30.1616 20.3117 30.29 20.1888 30.445 20.0867C30.6011 19.9859 30.7722 19.9198 30.9596 19.8861ZM24.6858 9.88021C24.6453 9.83962 24.606 9.81063 24.5678 9.79556C24.532 9.78048 24.488 9.77237 24.4371 9.77237C24.3863 9.77237 24.3412 9.78048 24.3041 9.79556C24.266 9.81179 24.2267 9.83962 24.1897 9.87673L23.4033 10.6629C23.3407 10.725 23.2584 10.7631 23.1706 10.7705C23.0829 10.7779 22.9954 10.7542 22.9233 10.7035C22.8343 10.6467 22.7383 10.591 22.6377 10.5354C22.529 10.4774 22.4226 10.424 22.3185 10.3765C22.2098 10.3255 22.0976 10.2791 21.9878 10.2362C21.8871 10.1968 21.7715 10.1562 21.6478 10.1144C21.5724 10.0897 21.5068 10.0417 21.4603 9.97738C21.4138 9.91304 21.3887 9.8356 21.3887 9.75613V8.5525C21.3887 8.49916 21.3806 8.45278 21.3644 8.41219C21.3468 8.37122 21.3213 8.33416 21.2893 8.30319C21.2583 8.2709 21.2214 8.24491 21.1805 8.22666C21.1401 8.21158 21.0938 8.20347 21.0406 8.20347H19.5326C19.484 8.20347 19.4412 8.21042 19.4054 8.2255C19.3649 8.24289 19.3244 8.26956 19.2863 8.30783C19.2516 8.34146 19.2261 8.3774 19.2111 8.41567C19.1949 8.45393 19.1868 8.50032 19.1868 8.5525V9.65525C19.1868 9.84078 19.0527 9.995 18.8769 10.0263C18.7566 10.0553 18.6467 10.0843 18.5484 10.1144C18.4374 10.1492 18.3252 10.1887 18.2154 10.2316L18.1969 10.2385C18.0963 10.2768 17.9945 10.3208 17.8904 10.3695L17.8719 10.3765C17.7713 10.424 17.6753 10.4727 17.5828 10.5226C17.4348 10.6038 17.2555 10.5736 17.141 10.4612L16.2644 9.59495C16.2309 9.559 16.195 9.53233 16.1592 9.51726C16.1245 9.50218 16.0829 9.49407 16.0343 9.49407C15.9857 9.49407 15.9418 9.50335 15.9048 9.51842C15.8631 9.53581 15.8227 9.5648 15.7833 9.60307L14.731 10.6618C14.6916 10.7012 14.6627 10.7406 14.6465 10.78C14.6315 10.8171 14.6234 10.8612 14.6234 10.9122C14.6234 10.9632 14.6315 11.0085 14.6465 11.0456C14.6639 11.0838 14.6905 11.1221 14.7275 11.1592L15.5116 11.9477C15.6422 12.0799 15.6561 12.284 15.552 12.4301C15.4954 12.5182 15.4399 12.6145 15.3855 12.7165C15.3265 12.8255 15.2733 12.9322 15.2259 13.0366C15.1256 13.2552 15.0387 13.4798 14.9657 13.7091C14.941 13.7845 14.8931 13.8501 14.8289 13.8966C14.7647 13.943 14.6875 13.9679 14.6084 13.9677L13.4068 13.9689C13.3536 13.9689 13.3073 13.977 13.268 13.9932C13.2287 14.0083 13.1917 14.0338 13.1582 14.0674C13.1235 14.1022 13.0992 14.1381 13.083 14.1776C13.0668 14.2182 13.0587 14.2645 13.0587 14.3179V15.83C13.0587 15.8787 13.0656 15.9216 13.0807 15.9575C13.098 15.9981 13.1258 16.0375 13.1628 16.0769C13.1975 16.1106 13.2333 16.1361 13.2703 16.1523C13.3085 16.1674 13.3548 16.1755 13.4068 16.1755H14.5066C14.6916 16.1755 14.8466 16.31 14.8778 16.4874C14.9056 16.6069 14.9356 16.717 14.9657 16.8168C15.0004 16.9281 15.0386 17.0394 15.0814 17.1496L15.0906 17.1762C15.1276 17.2701 15.1716 17.3733 15.2201 17.4835C15.2733 17.6006 15.3254 17.7085 15.3751 17.8047C15.4526 17.9543 15.4202 18.1317 15.308 18.2453L14.4465 19.1057C14.4106 19.1405 14.384 19.1753 14.369 19.2113C14.3539 19.2472 14.347 19.289 14.347 19.3365C14.347 19.3864 14.3551 19.4293 14.3713 19.4664C14.3886 19.5081 14.4176 19.5499 14.4557 19.5881L15.5035 20.6515C15.5405 20.6862 15.581 20.7129 15.6203 20.728C15.6607 20.7431 15.707 20.7523 15.7602 20.7523C15.8134 20.7523 15.862 20.7431 15.9024 20.728L15.914 20.7233C15.9487 20.7083 15.9822 20.6851 16.0135 20.6549L16.7906 19.8641C16.9178 19.7342 17.1144 19.7168 17.2601 19.8108C17.3584 19.8734 17.459 19.9337 17.5597 19.9882C17.6684 20.0473 17.7748 20.0995 17.8788 20.1482C18.0976 20.2471 18.3215 20.3342 18.5496 20.4091C18.708 20.4613 18.8086 20.6085 18.8086 20.7674V21.971C18.8086 22.0244 18.8167 22.0719 18.8329 22.1114L18.8387 22.1253C18.8537 22.1577 18.8769 22.189 18.9081 22.2204C18.9439 22.2551 18.981 22.2818 19.018 22.2969C19.0573 22.3131 19.1035 22.3212 19.1567 22.3212H20.6648C20.7133 22.3212 20.7561 22.3131 20.792 22.2992C20.8324 22.2818 20.8729 22.254 20.9111 22.2169C20.9458 22.1821 20.9712 22.1461 20.9863 22.1079C21.0024 22.0696 21.0105 22.0244 21.0105 21.971V20.8683C21.0105 20.6828 21.1447 20.5285 21.3205 20.4972C21.4419 20.4682 21.5529 20.4381 21.6535 20.4079C21.7669 20.372 21.8779 20.3337 21.9831 20.2931C22.0884 20.2514 22.1994 20.205 22.3139 20.1528C22.4318 20.0995 22.5394 20.0473 22.6342 19.9986C22.7834 19.9198 22.9615 19.9522 23.0737 20.0659L23.9329 20.9286C23.9653 20.9634 24 20.9889 24.0382 21.0051L24.0567 21.0144C24.0879 21.0248 24.1249 21.0295 24.1677 21.0295C24.2209 21.0295 24.266 21.0214 24.2995 21.0063C24.3377 20.9889 24.3724 20.9634 24.4048 20.9286L25.4745 19.8699C25.5092 19.8316 25.5346 19.7922 25.5497 19.7528C25.5658 19.7122 25.5739 19.6647 25.5739 19.6125C25.5739 19.558 25.5658 19.5104 25.5497 19.4699L25.545 19.4571C25.53 19.4235 25.5069 19.3887 25.4768 19.3574L24.6881 18.5793C24.6267 18.5186 24.5881 18.4385 24.5786 18.3526C24.5691 18.2667 24.5894 18.1801 24.6361 18.1074C24.6985 18.01 24.7575 17.9091 24.8118 17.807C24.8708 17.698 24.924 17.5913 24.9714 17.4881C25.0212 17.378 25.0674 17.2667 25.1114 17.1553C25.1507 17.0545 25.1912 16.9397 25.2328 16.8144C25.2575 16.7392 25.3052 16.6738 25.3691 16.6273C25.4331 16.5809 25.51 16.5559 25.589 16.5558H26.7905C26.8437 16.5558 26.89 16.5466 26.9293 16.5315L26.9444 16.5257C26.9779 16.5095 27.0091 16.4863 27.0392 16.4561C27.0739 16.4213 27.0993 16.3842 27.1155 16.346C27.1305 16.3065 27.1386 16.259 27.1386 16.2057V14.6947C27.1386 14.646 27.1317 14.6031 27.1167 14.566C27.0993 14.5254 27.0716 14.486 27.0346 14.4466C26.9999 14.413 26.964 14.3875 26.927 14.3724C26.8888 14.3561 26.8426 14.348 26.7905 14.348H25.6907C25.5022 14.348 25.3461 14.2089 25.3184 14.028C25.2929 13.9259 25.2629 13.8193 25.2293 13.7114C25.1969 13.6047 25.1588 13.4934 25.1148 13.3786L25.1079 13.3589C25.0663 13.2499 25.0235 13.1456 24.9784 13.047C24.9286 12.9392 24.8778 12.8359 24.8246 12.7397C24.7448 12.5913 24.7748 12.4115 24.887 12.2967L25.7509 11.4178C25.7867 11.3842 25.8133 11.3482 25.8284 11.3123C25.8434 11.2775 25.8503 11.2357 25.8503 11.187C25.8503 11.1383 25.8422 11.0943 25.8272 11.0572C25.8087 11.0154 25.781 10.9737 25.7428 10.9354L24.6858 9.88021ZM24.8593 9.10329C24.9922 9.15895 25.1125 9.24128 25.2178 9.3468L26.2771 10.4078C26.3812 10.5145 26.4621 10.6328 26.5176 10.7626C26.5743 10.896 26.6032 11.0375 26.6032 11.187C26.6032 11.3389 26.5731 11.4816 26.5153 11.6138C26.4586 11.7436 26.3754 11.8584 26.2701 11.9605L25.611 12.6307L25.6595 12.7351C25.7127 12.851 25.7624 12.9705 25.8087 13.0911L25.8168 13.1096C25.8619 13.2302 25.9059 13.3578 25.9463 13.4899L25.9776 13.5931H26.7905C26.9409 13.5931 27.082 13.621 27.215 13.6766C27.3469 13.7329 27.4664 13.8149 27.5665 13.9178L27.5746 13.9259C27.6776 14.0326 27.7562 14.1497 27.8094 14.2785C27.8637 14.4118 27.8915 14.551 27.8915 14.6947V16.2057C27.8915 16.3564 27.8637 16.4967 27.8105 16.6289C27.7547 16.7628 27.6734 16.8845 27.5712 16.9872C27.4717 17.0858 27.363 17.1611 27.2439 17.2156L27.2115 17.2296C27.0808 17.2829 26.9397 17.3096 26.7905 17.3096H25.855L25.8099 17.4267C25.7613 17.5519 25.7093 17.6772 25.6537 17.8001C25.5975 17.9234 25.5374 18.0448 25.4733 18.1642L25.4259 18.2511L26.0192 18.8367C26.1129 18.9364 26.1857 19.0478 26.2366 19.1684L26.2493 19.1962C26.3002 19.3272 26.3268 19.4664 26.3268 19.6125C26.3268 19.7574 26.3002 19.8954 26.2493 20.0264C26.1965 20.1586 26.1197 20.2797 26.0227 20.3836L24.9471 21.4492C24.8442 21.5582 24.7263 21.6417 24.5967 21.6974C24.4614 21.7542 24.3192 21.7844 24.1677 21.7844C24.0312 21.7844 23.9017 21.76 23.7791 21.7113L23.741 21.6974C23.6081 21.6391 23.4885 21.5543 23.3894 21.4481L22.7325 20.7883L22.6227 20.8393C22.5082 20.8915 22.3844 20.9437 22.2537 20.9935C22.1265 21.0434 21.9993 21.0875 21.8733 21.1269L21.7622 21.1582V21.971C21.7636 22.116 21.7358 22.2598 21.6803 22.3937C21.6249 22.5276 21.543 22.6489 21.4396 22.7503L21.4315 22.7584C21.3251 22.8616 21.2071 22.9404 21.0799 22.9926C20.9458 23.0471 20.8082 23.075 20.6648 23.075H19.1567C19.0076 23.075 18.8665 23.0483 18.7358 22.9949C18.6009 22.9397 18.4786 22.8577 18.3761 22.7538C18.2818 22.6589 18.2054 22.5478 18.1506 22.4256L18.1367 22.3943C18.0835 22.2621 18.0558 22.1218 18.0558 21.971V21.0329L17.9401 20.9889C17.8141 20.9402 17.6903 20.8868 17.5678 20.8312C17.4394 20.772 17.3168 20.7118 17.2046 20.6515L17.1179 20.6028L16.5327 21.1976C16.4344 21.2915 16.3234 21.3657 16.2031 21.4168L16.1754 21.4284C16.0432 21.4805 15.9023 21.5069 15.7602 21.5061C15.6156 21.5061 15.478 21.4805 15.3473 21.4284C15.2148 21.3763 15.0934 21.2992 14.99 21.2011L13.9203 20.1157C13.8162 20.0091 13.7352 19.8908 13.6797 19.7609C13.6227 19.6267 13.5936 19.4823 13.5941 19.3365C13.5941 19.1846 13.6242 19.042 13.682 18.9098C13.74 18.7781 13.8242 18.6597 13.9295 18.5619L14.5876 17.9033L14.5355 17.7931C14.4904 17.6899 14.4418 17.5751 14.3933 17.4476L14.3829 17.4232C14.3343 17.2991 14.2892 17.1693 14.2487 17.0371L14.2175 16.9304H13.4068C13.2565 16.9304 13.1154 16.9026 12.9824 16.8469C12.8517 16.7924 12.7349 16.7112 12.6297 16.6057L12.6227 16.5988C12.5186 16.4909 12.4412 16.3738 12.388 16.2451C12.3336 16.1117 12.307 15.9737 12.307 15.83V14.3179C12.307 14.1671 12.3336 14.0257 12.3868 13.8946C12.4418 13.7607 12.5233 13.6392 12.6262 13.5375C12.7349 13.4285 12.854 13.3485 12.9859 13.294C13.1165 13.2406 13.2576 13.214 13.4068 13.214H14.3424L14.3875 13.0969C14.4356 12.9706 14.488 12.8461 14.5448 12.7235C14.6026 12.5948 14.6627 12.473 14.724 12.3594L14.7737 12.2701L14.2013 11.6949C14.0965 11.5931 14.0131 11.4713 13.9561 11.3366C13.8994 11.2024 13.8703 11.058 13.8705 10.9122C13.8705 10.765 13.8995 10.6235 13.9561 10.489C14.0133 10.355 14.0957 10.2333 14.199 10.1307L15.2571 9.06735C15.3635 8.96299 15.4815 8.88181 15.611 8.82616C15.7452 8.76934 15.8863 8.74035 16.0343 8.74035C16.1858 8.74035 16.328 8.76934 16.461 8.82848C16.5894 8.88529 16.705 8.96762 16.8056 9.0743L17.4741 9.7341L17.5758 9.6854C17.6846 9.63554 17.8025 9.58568 17.9263 9.53697L17.9424 9.53001C18.0662 9.48131 18.1957 9.43725 18.3287 9.39667L18.4351 9.36536V8.5525C18.4337 8.40751 18.4616 8.26374 18.517 8.12983C18.5725 7.99592 18.6544 7.87463 18.7578 7.77327L18.7659 7.76515C18.8722 7.66195 18.9902 7.58426 19.1174 7.53092C19.2516 7.47642 19.3892 7.44859 19.5326 7.44859H21.0406C21.1898 7.44859 21.3309 7.47526 21.4616 7.5286C21.5969 7.58542 21.716 7.66427 21.8212 7.76979C21.9265 7.87531 22.0063 7.9959 22.0606 8.12926C22.1138 8.26029 22.1416 8.40175 22.1416 8.5525V9.49059L22.2572 9.53465C22.3821 9.58335 22.5082 9.6367 22.6296 9.69236C22.758 9.75149 22.8805 9.81179 22.9927 9.87209L23.0818 9.92195L23.6565 9.34912C23.7618 9.24128 23.882 9.15895 24.0127 9.10329C24.148 9.04647 24.2903 9.01749 24.4371 9.01749C24.584 9.01749 24.7251 9.04531 24.8593 9.10329ZM21.3991 12.1843C21.8073 12.3617 22.1624 12.5994 22.4573 12.8962L22.4793 12.9194C22.7661 13.2128 22.9973 13.5607 23.1685 13.9584L23.1801 13.9909C23.3454 14.3956 23.4287 14.8304 23.4287 15.2618C23.4287 15.7036 23.342 16.1488 23.1685 16.5628V16.5663C22.9939 16.9721 22.7545 17.327 22.4573 17.6261C22.1589 17.9253 21.805 18.1642 21.3991 18.3393L21.3667 18.352C20.5438 18.6888 19.6212 18.6842 18.8017 18.3393H18.7982C18.3923 18.1642 18.0384 17.9253 17.7412 17.6273C17.4417 17.327 17.2046 16.9721 17.0288 16.5663L17.0173 16.5338C16.8507 16.128 16.7686 15.6931 16.7686 15.2618C16.7686 14.82 16.8554 14.3747 17.0288 13.9607V13.9584C17.2046 13.5502 17.4429 13.1954 17.7401 12.8974C18.035 12.5994 18.39 12.3617 18.7982 12.1843L18.8306 12.1727C19.2342 12.0057 19.6679 11.9222 20.0993 11.9222C20.5399 11.9222 20.9828 12.0092 21.3956 12.1843H21.3991ZM21.9253 13.4296C21.6963 13.2001 21.4211 13.0145 21.1019 12.8765C20.7885 12.7432 20.445 12.6771 20.0993 12.6771C19.7604 12.6771 19.425 12.7397 19.1174 12.8661L19.0954 12.8765C18.7763 13.0145 18.501 13.2001 18.272 13.4296C18.0419 13.6581 17.858 13.9341 17.7193 14.2553C17.5863 14.5707 17.5203 14.9151 17.5203 15.2618C17.5203 15.6004 17.5839 15.9366 17.7088 16.2462L17.7193 16.2683C17.858 16.5895 18.0419 16.8655 18.2697 17.0939C18.4987 17.3235 18.7751 17.509 19.0954 17.647C19.4088 17.7804 19.7523 17.8465 20.0993 17.8465C20.4369 17.8465 20.7723 17.7838 21.0799 17.6574L21.1019 17.647C21.4222 17.509 21.6986 17.3235 21.9253 17.0951C22.1554 16.8655 22.3393 16.5895 22.4781 16.2683C22.6099 15.9529 22.677 15.6085 22.677 15.2618C22.677 14.9232 22.6134 14.5869 22.4873 14.2773L22.4781 14.2553C22.3428 13.9433 22.1659 13.6732 21.9461 13.4482L21.9253 13.4296ZM9.19959 49.6198H38.7912V5.58748H9.19959V49.6198ZM23.9919 51.6236C25.4363 51.6236 26.6171 52.7901 26.6171 54.2558C26.6171 55.7064 25.4548 56.8892 23.9919 56.8892C22.5475 56.8892 21.3656 55.7238 21.3656 54.2558C21.3656 52.8087 22.529 51.6236 23.9919 51.6236Z" fill="#002680"/>
</g>
</g>
<defs>
<clipPath id="clip0_6204_14813">
<rect width="46.019" height="55.04" fill="white" transform="translate(0.990234 0.97998)"/>
</clipPath>
<clipPath id="clip1_6204_14813">
<rect width="34" height="59.2703" fill="white" transform="translate(7 -0.755371)"/>
</clipPath>
</defs>
</svg>
