<svg width="42" height="247" viewBox="0 0 42 247" fill="none" xmlns="http://www.w3.org/2000/svg">
<path d="M8.16335 1.81218L8.161 1.31082L7.66472 1.31082L7.66472 1.80982L8.16335 1.81218ZM7.80884 245.353C8.00356 245.55 8.31928 245.552 8.51401 245.357L11.6873 242.181C11.882 241.986 11.882 241.669 11.6873 241.472C11.4926 241.275 11.1768 241.274 10.9821 241.469L8.16143 244.292L5.34079 241.442C5.14606 241.245 4.83034 241.244 4.63562 241.439C4.44089 241.634 4.44089 241.951 4.63561 242.148L7.80884 245.353ZM41.3362 1.31077L38.5716 1.31078L38.5763 2.31351L41.3409 2.31351L41.3362 1.31077ZM33.0424 1.31079L27.5132 1.31079L27.5179 2.31353L33.0471 2.31352L33.0424 1.31079ZM21.984 1.3108L16.4548 1.31081L16.4595 2.31354L21.9887 2.31353L21.984 1.3108ZM10.9256 1.31081L8.161 1.31082L8.1657 2.31355L10.9303 2.31355L10.9256 1.31081ZM7.66472 1.80982L7.66469 4.84968L8.66195 4.85441L8.66197 1.81455L7.66472 1.80982ZM7.66465 10.9294L7.6646 17.0091L8.66185 17.0138L8.6619 10.9341L7.66465 10.9294ZM7.66455 23.0888L7.6645 29.1685L8.66176 29.1733L8.66181 23.0935L7.66455 23.0888ZM7.66445 35.2482L7.66441 41.3279L8.66166 41.3327L8.66171 35.253L7.66445 35.2482ZM7.66436 47.4077L7.66431 53.4874L8.66157 53.4921L8.66161 47.4124L7.66436 47.4077ZM7.66426 59.5671L7.66421 65.6468L8.66147 65.6515L8.66152 59.5718L7.66426 59.5671ZM7.66417 71.7265L7.66412 77.8062L8.66137 77.8109L8.66142 71.7312L7.66417 71.7265ZM7.66407 83.8859L7.66402 89.9656L8.66128 89.9704L8.66133 83.8907L7.66407 83.8859ZM7.66397 96.0453L7.66392 102.125L8.66118 102.13L8.66123 96.0501L7.66397 96.0453ZM7.66388 108.205L7.66383 114.284L8.66108 114.289L8.66114 108.209L7.66388 108.205ZM7.66378 120.364L7.66373 126.444L8.66099 126.449L8.66104 120.369L7.66378 120.364ZM7.66368 132.524L7.66364 138.603L8.6609 138.608L8.66094 132.528L7.66368 132.524ZM7.66359 144.683L7.66354 150.763L8.6608 150.768L8.66085 144.688L7.66359 144.683ZM7.66349 156.842L7.66344 162.922L8.6607 162.927L8.66075 156.847L7.66349 156.842ZM7.6634 169.002L7.66335 175.082L8.6606 175.086L8.66066 169.007L7.6634 169.002ZM7.6633 181.161L7.66325 187.241L8.66051 187.246L8.66055 181.166L7.6633 181.161ZM7.6632 193.321L7.66316 199.401L8.66042 199.405L8.66046 193.326L7.6632 193.321ZM7.66311 205.48L7.66306 211.56L8.66032 211.565L8.66037 205.485L7.66311 205.48ZM7.66301 217.64L7.66296 223.719L8.66022 223.724L8.66027 217.644L7.66301 217.64ZM7.66292 229.799L7.66287 235.879L8.66012 235.884L8.66018 229.804L7.66292 229.799ZM7.66282 241.959L7.6628 244.998L8.66005 245.003L8.66008 241.963L7.66282 241.959ZM8.16335 1.81218L8.15865 0.809447L7.1661 0.80945L7.16609 1.80746L8.16335 1.81218ZM7.45625 245.706C7.8457 246.1 8.47713 246.103 8.86659 245.713L15.2131 239.362C15.6026 238.972 15.6026 238.337 15.2132 237.944C14.8237 237.55 14.1923 237.547 13.8028 237.937L8.16144 243.583L2.52014 237.884C2.13069 237.49 1.49927 237.487 1.10981 237.877C0.720353 238.267 0.720346 238.902 1.1098 239.295L7.45625 245.706ZM41.3338 0.809404L38.5692 0.809409L38.5786 2.81488L41.3432 2.81488L41.3338 0.809404ZM33.04 0.809417L27.5108 0.809425L27.5202 2.8149L33.0494 2.81489L33.04 0.809417ZM21.9816 0.80943L16.4524 0.809438L16.4618 2.81491L21.991 2.8149L21.9816 0.80943ZM10.9233 0.809446L8.15865 0.809447L8.16805 2.81492L10.9326 2.81492L10.9233 0.809446ZM7.16609 1.80746L7.16607 4.84731L9.16058 4.85677L9.1606 1.81691L7.16609 1.80746ZM7.16602 10.927L7.16597 17.0067L9.16048 17.0162L9.16053 10.9365L7.16602 10.927ZM7.16592 23.0864L7.16587 29.1662L9.16039 29.1756L9.16043 23.0959L7.16592 23.0864ZM7.16582 35.2459L7.16578 41.3256L9.1603 41.335L9.16034 35.2553L7.16582 35.2459ZM7.16573 47.4053L7.16568 53.485L9.16019 53.4945L9.16024 47.4147L7.16573 47.4053ZM7.16563 59.5647L7.16559 65.6444L9.1601 65.6539L9.16015 59.5742L7.16563 59.5647ZM7.16554 71.7241L7.16549 77.8038L9.16 77.8133L9.16006 71.7336L7.16554 71.7241ZM7.16544 83.8836L7.16539 89.9633L9.15991 89.9727L9.15996 83.893L7.16544 83.8836ZM7.16535 96.043L7.1653 102.123L9.15981 102.132L9.15986 96.0524L7.16535 96.043ZM7.16525 108.202L7.1652 114.282L9.15971 114.292L9.15976 108.212L7.16525 108.202ZM7.16515 120.362L7.16511 126.442L9.15962 126.451L9.15967 120.371L7.16515 120.362ZM7.16506 132.521L7.16501 138.601L9.15953 138.61L9.15957 132.531L7.16506 132.521ZM7.16496 144.681L7.16491 150.76L9.15942 150.77L9.15947 144.69L7.16496 144.681ZM7.16486 156.84L7.16481 162.92L9.15933 162.929L9.15938 156.85L7.16486 156.84ZM7.16477 169L7.16472 175.079L9.15923 175.089L9.15928 169.009L7.16477 169ZM7.16467 181.159L7.16462 187.239L9.15914 187.248L9.15918 181.168L7.16467 181.159ZM7.16458 193.318L7.16453 199.398L9.15905 199.408L9.15909 193.328L7.16458 193.318ZM7.16448 205.478L7.16443 211.558L9.15894 211.567L9.15899 205.487L7.16448 205.478ZM7.16438 217.637L7.16433 223.717L9.15885 223.726L9.1589 217.647L7.16438 217.637ZM7.16429 229.797L7.16424 235.876L9.15875 235.886L9.1588 229.806L7.16429 229.797ZM7.16419 241.956L7.16417 244.996L9.15868 245.005L9.1587 241.966L7.16419 241.956Z" fill="#D5D2D2"/>
</svg>
