<svg width="113" height="298" viewBox="0 0 113 298" fill="none" xmlns="http://www.w3.org/2000/svg">
<path d="M9.63046 2.09242L9.6272 1.59243L9.13365 1.59565L9.13047 2.0892L9.63046 2.09242ZM7.37536 297.351C7.56937 297.548 7.88595 297.55 8.08246 297.356L11.2849 294.194C11.4814 294 11.4834 293.684 11.2894 293.487C11.0954 293.291 10.7788 293.289 10.5823 293.483L7.73575 296.293L4.92559 293.446C4.73159 293.25 4.41502 293.248 4.2185 293.442C4.02199 293.636 4.01995 293.952 4.21394 294.149L7.37536 297.351ZM112.319 0.92355L109.467 0.94213L109.473 1.94211L112.326 1.92353L112.319 0.92355ZM103.762 0.979291L98.0564 1.01645L98.0629 2.01643L103.768 1.97927L103.762 0.979291ZM92.3513 1.05361L86.6462 1.09077L86.6527 2.09075L92.3578 2.05359L92.3513 1.05361ZM80.9411 1.12793L75.236 1.16509L75.2425 2.16507L80.9476 2.12791L80.9411 1.12793ZM69.5309 1.20225L63.8257 1.23941L63.8323 2.23939L69.5374 2.20223L69.5309 1.20225ZM58.1206 1.27657L52.4155 1.31373L52.422 2.31371L58.1271 2.27655L58.1206 1.27657ZM46.7104 1.35089L41.0053 1.38805L41.0118 2.38803L46.7169 2.35087L46.7104 1.35089ZM35.3002 1.42521L29.5951 1.46237L29.6016 2.46235L35.3067 2.42519L35.3002 1.42521ZM23.89 1.49953L18.1849 1.53669L18.1914 2.53667L23.8965 2.49951L23.89 1.49953ZM12.4798 1.57385L9.6272 1.59243L9.63372 2.59241L12.4863 2.57383L12.4798 1.57385ZM9.13047 2.0892L9.11148 5.03828L10.1115 5.04472L10.1305 2.09565L9.13047 2.0892ZM9.07349 10.9364L9.03551 16.8346L10.0355 16.841L10.0735 10.9429L9.07349 10.9364ZM8.99752 22.7327L8.95954 28.6309L9.95952 28.6373L9.9975 22.7392L8.99752 22.7327ZM8.92156 34.529L8.88356 40.4272L9.88355 40.4336L9.92153 34.5355L8.92156 34.529ZM8.84558 46.3253L8.8076 52.2235L9.80757 52.2299L9.84556 46.3318L8.84558 46.3253ZM8.76961 58.1216L8.73162 64.0198L9.7316 64.0262L9.76959 58.1281L8.76961 58.1216ZM8.69364 69.9179L8.65565 75.8161L9.65564 75.8225L9.69362 69.9244L8.69364 69.9179ZM8.61767 81.7142L8.57968 87.6124L9.57966 87.6188L9.61765 81.7207L8.61767 81.7142ZM8.5417 93.5105L8.50371 99.4087L9.50369 99.4151L9.54168 93.517L8.5417 93.5105ZM8.46573 105.307L8.42774 111.205L9.42772 111.211L9.4657 105.313L8.46573 105.307ZM8.38976 117.103L8.35177 123.001L9.35175 123.008L9.38974 117.11L8.38976 117.103ZM8.31379 128.899L8.2758 134.798L9.27578 134.804L9.31377 128.906L8.31379 128.899ZM8.23781 140.696L8.19983 146.594L9.19981 146.6L9.2378 140.702L8.23781 140.696ZM8.16185 152.492L8.12386 158.39L9.12384 158.397L9.16182 152.498L8.16185 152.492ZM8.08587 164.288L8.04789 170.186L9.04787 170.193L9.08585 164.295L8.08587 164.288ZM8.0099 176.085L7.97192 181.983L8.9719 181.989L9.00988 176.091L8.0099 176.085ZM7.93393 187.881L7.89595 193.779L8.89593 193.785L8.93391 187.887L7.93393 187.881ZM7.85796 199.677L7.81998 205.575L8.81995 205.582L8.85794 199.684L7.85796 199.677ZM7.78199 211.473L7.74401 217.372L8.74398 217.378L8.78197 211.48L7.78199 211.473ZM7.70602 223.27L7.66803 229.168L8.66801 229.174L8.706 223.276L7.70602 223.27ZM7.63005 235.066L7.59207 240.964L8.59205 240.971L8.63003 235.072L7.63005 235.066ZM7.55408 246.862L7.5161 252.76L8.51608 252.767L8.55406 246.869L7.55408 246.862ZM7.47811 258.659L7.44012 264.557L8.4401 264.563L8.47809 258.665L7.47811 258.659ZM7.40214 270.455L7.36415 276.353L8.36413 276.36L8.40212 270.461L7.40214 270.455ZM7.32616 282.251L7.28818 288.149L8.28816 288.156L8.32615 282.258L7.32616 282.251ZM7.25019 294.048L7.2312 296.997L8.23119 297.003L8.25018 294.054L7.25019 294.048ZM9.63046 2.09242L9.62395 1.09245L8.63684 1.09888L8.63048 2.08598L9.63046 2.09242ZM7.01955 297.702C7.40755 298.095 8.0407 298.1 8.43373 297.712L14.8385 291.389C15.2316 291.001 15.2356 290.368 14.8476 289.975C14.4597 289.581 13.8265 289.577 13.4335 289.965L7.74029 295.586L2.12 289.893C1.732 289.5 1.09884 289.495 0.705813 289.883C0.312773 290.271 0.308699 290.905 0.696699 291.298L7.01955 297.702ZM112.316 0.423561L109.463 0.442141L109.476 2.4421L112.329 2.42352L112.316 0.423561ZM103.758 0.479302L98.0531 0.516461L98.0662 2.51642L103.771 2.47926L103.758 0.479302ZM92.348 0.553621L86.6429 0.590781L86.656 2.59074L92.3611 2.55358L92.348 0.553621ZM80.9378 0.627942L75.2327 0.665102L75.2457 2.66506L80.9508 2.6279L80.9378 0.627942ZM69.5276 0.702263L63.8225 0.739422L63.8355 2.73938L69.5406 2.70222L69.5276 0.702263ZM58.1174 0.776582L52.4123 0.813742L52.4253 2.8137L58.1304 2.77654L58.1174 0.776582ZM46.7072 0.850902L41.0021 0.888062L41.0151 2.88802L46.7202 2.85086L46.7072 0.850902ZM35.2969 0.925222L29.5918 0.962381L29.6049 2.96234L35.31 2.92518L35.2969 0.925222ZM23.8867 0.999544L18.1816 1.0367L18.1946 3.03666L23.8998 2.9995L23.8867 0.999544ZM12.4765 1.07386L9.62395 1.09245L9.63697 3.0924L12.4895 3.07382L12.4765 1.07386ZM8.63048 2.08598L8.61149 5.03506L10.6114 5.04794L10.6304 2.09886L8.63048 2.08598ZM8.5735 10.9332L8.53552 16.8314L10.5355 16.8442L10.5735 10.9461L8.5735 10.9332ZM8.49754 22.7295L8.45955 28.6277L10.4595 28.6405L10.4975 22.7424L8.49754 22.7295ZM8.42156 34.5258L8.38357 40.424L10.3835 40.4368L10.4215 34.5387L8.42156 34.5258ZM8.34559 46.3221L8.30761 52.2203L10.3076 52.2331L10.3455 46.335L8.34559 46.3221ZM8.26962 58.1184L8.23163 64.0166L10.2316 64.0294L10.2696 58.1313L8.26962 58.1184ZM8.19365 69.9147L8.15566 75.8129L10.1556 75.8257L10.1936 69.9276L8.19365 69.9147ZM8.11768 81.711L8.0797 87.6092L10.0797 87.622L10.1176 81.7239L8.11768 81.711ZM8.04171 93.5073L8.00372 99.4054L10.0037 99.4183L10.0417 93.5202L8.04171 93.5073ZM7.96574 105.304L7.92775 111.202L9.92771 111.215L9.96569 105.316L7.96574 105.304ZM7.88976 117.1L7.85178 122.998L9.85175 123.011L9.88973 117.113L7.88976 117.1ZM7.8138 128.896L7.77582 134.794L9.77577 134.807L9.81376 128.909L7.8138 128.896ZM7.73782 140.692L7.69984 146.591L9.6998 146.604L9.73779 140.705L7.73782 140.692ZM7.66186 152.489L7.62387 158.387L9.62383 158.4L9.66181 152.502L7.66186 152.489ZM7.58589 164.285L7.5479 170.183L9.54786 170.196L9.58584 164.298L7.58589 164.285ZM7.50992 176.081L7.47193 181.98L9.47189 181.992L9.50987 176.094L7.50992 176.081ZM7.43394 187.878L7.39596 193.776L9.39591 193.789L9.4339 187.891L7.43394 187.878ZM7.35797 199.674L7.31999 205.572L9.31994 205.585L9.35793 199.687L7.35797 199.674ZM7.282 211.47L7.24401 217.368L9.24397 217.381L9.28196 211.483L7.282 211.47ZM7.20603 223.267L7.16805 229.165L9.168 229.178L9.20599 223.279L7.20603 223.267ZM7.13005 235.063L7.09207 240.961L9.09203 240.974L9.13002 235.076L7.13005 235.063ZM7.05409 246.859L7.0161 252.757L9.01606 252.77L9.05404 246.872L7.05409 246.859ZM6.97812 258.655L6.94013 264.554L8.94009 264.566L8.97807 258.668L6.97812 258.655ZM6.90215 270.452L6.86416 276.35L8.86412 276.363L8.9021 270.465L6.90215 270.452ZM6.82618 282.248L6.78818 288.146L8.78815 288.159L8.82613 282.261L6.82618 282.248ZM6.75021 294.044L6.73121 296.993L8.73117 297.006L8.75016 294.057L6.75021 294.044Z" fill="#D5D2D2"/>
</svg>
