<svg width="41" height="246" viewBox="0 0 41 246" fill="none" xmlns="http://www.w3.org/2000/svg">
<path d="M33.619 1.81153L33.619 1.31153L34.119 1.31153L34.119 1.81153L33.619 1.81153ZM33.9745 245.354C33.7792 245.549 33.4627 245.549 33.2674 245.354L30.0854 242.172C29.8901 241.976 29.8901 241.66 30.0854 241.464C30.2806 241.269 30.5972 241.269 30.7925 241.464L33.6209 244.293L36.4493 241.464C36.6446 241.269 36.9612 241.269 37.1564 241.464C37.3517 241.66 37.3517 241.976 37.1564 242.172L33.9745 245.354ZM0.656248 1.31162L3.40314 1.31162L3.40315 2.31162L0.656253 2.31162L0.656248 1.31162ZM8.89694 1.3116L14.3907 1.31158L14.3907 2.31159L8.89694 2.3116L8.89694 1.3116ZM19.8845 1.31157L25.3783 1.31155L25.3783 2.31155L19.8845 2.31157L19.8845 1.31157ZM30.8721 1.31154L33.619 1.31153L33.619 2.31153L30.8721 2.31154L30.8721 1.31154ZM34.119 1.81153L34.119 4.85138L33.119 4.85139L33.119 1.81153L34.119 1.81153ZM34.1191 10.9311L34.1191 17.0108L33.1191 17.0108L33.1191 10.9311L34.1191 10.9311ZM34.1192 23.0905L34.1192 29.1702L33.1192 29.1702L33.1192 23.0905L34.1192 23.0905ZM34.1193 35.2499L34.1193 41.3297L33.1193 41.3297L33.1193 35.2499L34.1193 35.2499ZM34.1194 47.4094L34.1194 53.4891L33.1194 53.4891L33.1194 47.4094L34.1194 47.4094ZM34.1195 59.5688L34.1195 65.6485L33.1195 65.6485L33.1195 59.5688L34.1195 59.5688ZM34.1196 71.7282L34.1196 77.8079L33.1196 77.8079L33.1196 71.7282L34.1196 71.7282ZM34.1197 83.8876L34.1197 89.9673L33.1197 89.9674L33.1197 83.8876L34.1197 83.8876ZM34.1198 96.0471L34.1198 102.127L33.1198 102.127L33.1198 96.0471L34.1198 96.0471ZM34.1199 108.206L34.1199 114.286L33.1199 114.286L33.1199 108.206L34.1199 108.206ZM34.1199 120.366L34.12 126.446L33.12 126.446L33.1199 120.366L34.1199 120.366ZM34.12 132.525L34.1201 138.605L33.1201 138.605L33.12 132.525L34.12 132.525ZM34.1201 144.685L34.1202 150.764L33.1202 150.764L33.1201 144.685L34.1201 144.685ZM34.1202 156.844L34.1203 162.924L33.1203 162.924L33.1202 156.844L34.1202 156.844ZM34.1203 169.004L34.1204 175.083L33.1204 175.083L33.1203 169.004L34.1203 169.004ZM34.1204 181.163L34.1205 187.243L33.1205 187.243L33.1204 181.163L34.1204 181.163ZM34.1205 193.322L34.1206 199.402L33.1206 199.402L33.1205 193.322L34.1205 193.322ZM34.1206 205.482L34.1207 211.562L33.1207 211.562L33.1206 205.482L34.1206 205.482ZM34.1207 217.641L34.1208 223.721L33.1208 223.721L33.1207 217.641L34.1207 217.641ZM34.1208 229.801L34.1209 235.88L33.1209 235.88L33.1208 229.801L34.1208 229.801ZM34.1209 241.96L34.1209 245L33.1209 245L33.1209 241.96L34.1209 241.96ZM33.619 1.81153L33.619 0.811531L34.619 0.811526L34.619 1.81152L33.619 1.81153ZM34.328 245.707C33.9375 246.098 33.3044 246.098 32.9138 245.707L26.5498 239.343C26.1593 238.953 26.1593 238.319 26.5498 237.929C26.9403 237.538 27.5735 237.538 27.964 237.929L33.6209 243.586L39.2777 237.929C39.6683 237.538 40.3014 237.538 40.692 237.929C41.0825 238.319 41.0825 238.953 40.692 239.343L34.328 245.707ZM0.656245 0.811625L3.40315 0.811615L3.40315 2.81162L0.656255 2.81162L0.656245 0.811625ZM8.89693 0.811602L14.3907 0.811585L14.3907 2.81159L8.89694 2.8116L8.89693 0.811602ZM19.8845 0.811568L25.3783 0.811555L25.3783 2.81155L19.8845 2.81157L19.8845 0.811568ZM30.8721 0.811538L33.619 0.811531L33.619 2.81153L30.8721 2.81154L30.8721 0.811538ZM34.619 1.81152L34.619 4.85138L32.619 4.85139L32.619 1.81154L34.619 1.81152ZM34.6191 10.9311L34.6191 17.0108L32.6191 17.0108L32.6191 10.9311L34.6191 10.9311ZM34.6192 23.0905L34.6192 29.1702L32.6192 29.1702L32.6192 23.0905L34.6192 23.0905ZM34.6193 35.2499L34.6193 41.3296L32.6193 41.3297L32.6193 35.2499L34.6193 35.2499ZM34.6194 47.4094L34.6194 53.4891L32.6194 53.4891L32.6194 47.4094L34.6194 47.4094ZM34.6195 59.5688L34.6195 65.6485L32.6195 65.6485L32.6195 59.5688L34.6195 59.5688ZM34.6196 71.7282L34.6196 77.8079L32.6196 77.8079L32.6196 71.7282L34.6196 71.7282ZM34.6197 83.8876L34.6197 89.9673L32.6197 89.9674L32.6197 83.8876L34.6197 83.8876ZM34.6198 96.047L34.6198 102.127L32.6198 102.127L32.6198 96.0471L34.6198 96.047ZM34.6199 108.206L34.6199 114.286L32.6199 114.286L32.6199 108.206L34.6199 108.206ZM34.6199 120.366L34.62 126.446L32.62 126.446L32.62 120.366L34.6199 120.366ZM34.62 132.525L34.6201 138.605L32.6201 138.605L32.62 132.525L34.62 132.525ZM34.6201 144.685L34.6202 150.764L32.6202 150.764L32.6201 144.685L34.6201 144.685ZM34.6202 156.844L34.6203 162.924L32.6203 162.924L32.6202 156.844L34.6202 156.844ZM34.6203 169.004L34.6204 175.083L32.6204 175.083L32.6203 169.004L34.6203 169.004ZM34.6204 181.163L34.6205 187.243L32.6205 187.243L32.6204 181.163L34.6204 181.163ZM34.6205 193.322L34.6206 199.402L32.6206 199.402L32.6205 193.322L34.6205 193.322ZM34.6206 205.482L34.6207 211.562L32.6207 211.562L32.6206 205.482L34.6206 205.482ZM34.6207 217.641L34.6208 223.721L32.6208 223.721L32.6207 217.641L34.6207 217.641ZM34.6208 229.801L34.6209 235.88L32.6209 235.88L32.6208 229.801L34.6208 229.801ZM34.6209 241.96L34.6209 245L32.6209 245L32.6209 241.96L34.6209 241.96Z" fill="#D5D2D2"/>
</svg>
