<svg width="79" height="254" viewBox="0 0 79 254" fill="none" xmlns="http://www.w3.org/2000/svg">
<path d="M68.653 2.1805L68.6572 1.68052L69.1489 1.68465L69.1529 2.17636L68.653 2.1805ZM71.0863 253.351C70.8926 253.547 70.576 253.55 70.3792 253.356L67.171 250.201C66.9741 250.007 66.9715 249.691 67.1651 249.494C67.3587 249.297 67.6753 249.294 67.8722 249.488L70.7239 252.293L73.5288 249.441C73.7225 249.244 74.0391 249.242 74.2359 249.435C74.4328 249.629 74.4354 249.946 74.2418 250.142L71.0863 253.351ZM0.318095 1.10661L3.16556 1.13052L3.15716 2.13049L0.309697 2.10658L0.318095 1.10661ZM8.86048 1.17835L14.5554 1.22618L14.547 2.22614L8.85208 2.17831L8.86048 1.17835ZM20.2503 1.274L25.9452 1.32183L25.9369 2.32179L20.2419 2.27397L20.2503 1.274ZM31.6402 1.36965L37.3351 1.41747L37.3267 2.41744L31.6318 2.36962L31.6402 1.36965ZM43.03 1.4653L48.7249 1.51313L48.7165 2.51309L43.0216 2.46527L43.03 1.4653ZM54.4199 1.56095L60.1148 1.60878L60.1064 2.60874L54.4115 2.56092L54.4199 1.56095ZM65.8097 1.6566L68.6572 1.68052L68.6488 2.68048L65.8013 2.65657L65.8097 1.6566ZM69.1529 2.17636L69.1777 5.1623L68.1777 5.17059L68.153 2.18464L69.1529 2.17636ZM69.2271 11.1342L69.2766 17.1061L68.2766 17.1144L68.2272 11.1425L69.2271 11.1342ZM69.326 23.078L69.3755 29.0499L68.3755 29.0582L68.326 23.0863L69.326 23.078ZM69.4249 35.0218L69.4744 40.9937L68.4744 41.0019L68.4249 35.03L69.4249 35.0218ZM69.5238 46.9656L69.5733 52.9375L68.5733 52.9457L68.5238 46.9738L69.5238 46.9656ZM69.6227 58.9093L69.6722 64.8812L68.6722 64.8895L68.6227 58.9176L69.6227 58.9093ZM69.7216 70.8531L69.7711 76.825L68.7711 76.8333L68.7216 70.8614L69.7216 70.8531ZM69.8205 82.7969L69.8699 88.7688L68.87 88.7771L68.8205 82.8052L69.8205 82.7969ZM69.9194 94.7407L69.9688 100.713L68.9689 100.721L68.9194 94.749L69.9194 94.7407ZM70.0183 106.684L70.0677 112.656L69.0678 112.665L69.0183 106.693L70.0183 106.684ZM70.1172 118.628L70.1666 124.6L69.1667 124.608L69.1172 118.637L70.1172 118.628ZM70.2161 130.572L70.2655 136.544L69.2656 136.552L69.2161 130.58L70.2161 130.572ZM70.315 142.516L70.3644 148.488L69.3645 148.496L69.315 142.524L70.315 142.516ZM70.4139 154.46L70.4633 160.432L69.4634 160.44L69.4139 154.468L70.4139 154.46ZM70.5128 166.403L70.5622 172.375L69.5623 172.384L69.5128 166.412L70.5128 166.403ZM70.6117 178.347L70.6611 184.319L69.6611 184.327L69.6117 178.355L70.6117 178.347ZM70.7106 190.291L70.76 196.263L69.76 196.271L69.7106 190.299L70.7106 190.291ZM70.8095 202.235L70.8589 208.207L69.8589 208.215L69.8095 202.243L70.8095 202.235ZM70.9084 214.178L70.9578 220.15L69.9578 220.159L69.9084 214.187L70.9084 214.178ZM71.0073 226.122L71.0567 232.094L70.0567 232.102L70.0073 226.131L71.0073 226.122ZM71.1061 238.066L71.1556 244.038L70.1556 244.046L70.1062 238.074L71.1061 238.066ZM71.205 250.01L71.2298 252.996L70.2298 253.004L70.2051 250.018L71.205 250.01ZM68.653 2.1805L68.6614 1.18053L69.6448 1.18879L69.6529 2.17222L68.653 2.1805ZM71.4427 253.701C71.0554 254.095 70.4223 254.1 70.0286 253.713L63.6121 247.402C63.2184 247.015 63.2131 246.381 63.6004 245.988C63.9877 245.594 64.6208 245.589 65.0146 245.976L70.7181 251.586L76.3279 245.882C76.7152 245.489 77.3483 245.483 77.7421 245.871C78.1358 246.258 78.141 246.891 77.7538 247.285L71.4427 253.701ZM0.322294 0.60663L3.16976 0.630542L3.15296 2.63047L0.305498 2.60656L0.322294 0.60663ZM8.86468 0.678368L14.5596 0.726193L14.5428 2.72612L8.84788 2.6783L8.86468 0.678368ZM20.2545 0.774018L25.9494 0.821845L25.9327 2.82177L20.2377 2.77395L20.2545 0.774018ZM31.6444 0.86967L37.3393 0.917494L37.3225 2.91742L31.6276 2.8696L31.6444 0.86967ZM43.0342 0.965318L48.7291 1.01315L48.7123 3.01308L43.0174 2.96525L43.0342 0.965318ZM54.4241 1.06097L60.119 1.10879L60.1022 3.10872L54.4073 3.0609L54.4241 1.06097ZM65.8139 1.15662L68.6614 1.18053L68.6446 3.18046L65.7971 3.15655L65.8139 1.15662ZM69.6529 2.17222L69.6777 5.15817L67.6777 5.17472L67.653 2.18878L69.6529 2.17222ZM69.7271 11.1301L69.7765 17.102L67.7766 17.1185L67.7272 11.1466L69.7271 11.1301ZM69.826 23.0738L69.8755 29.0457L67.8755 29.0623L67.8261 23.0904L69.826 23.0738ZM69.9249 35.0176L69.9743 40.9895L67.9744 41.0061L67.925 35.0342L69.9249 35.0176ZM70.0238 46.9614L70.0732 52.9333L68.0733 52.9499L68.0239 46.978L70.0238 46.9614ZM70.1227 58.9052L70.1721 64.8771L68.1722 64.8937L68.1228 58.9218L70.1227 58.9052ZM70.2216 70.849L70.271 76.8209L68.2711 76.8374L68.2217 70.8656L70.2216 70.849ZM70.3205 82.7928L70.3699 88.7647L68.37 88.7812L68.3206 82.8093L70.3205 82.7928ZM70.4194 94.7366L70.4688 100.708L68.4689 100.725L68.4194 94.7531L70.4194 94.7366ZM70.5183 106.68L70.5677 112.652L68.5678 112.669L68.5183 106.697L70.5183 106.68ZM70.6172 118.624L70.6666 124.596L68.6667 124.613L68.6172 118.641L70.6172 118.624ZM70.7161 130.568L70.7655 136.54L68.7656 136.556L68.7161 130.584L70.7161 130.568ZM70.815 142.512L70.8644 148.484L68.8645 148.5L68.815 142.528L70.815 142.512ZM70.9139 154.455L70.9633 160.427L68.9634 160.444L68.9139 154.472L70.9139 154.455ZM71.0128 166.399L71.0622 172.371L69.0623 172.388L69.0128 166.416L71.0128 166.399ZM71.1117 178.343L71.1611 184.315L69.1612 184.331L69.1117 178.36L71.1117 178.343ZM71.2105 190.287L71.26 196.259L69.2601 196.275L69.2106 190.303L71.2105 190.287ZM71.3094 202.231L71.3589 208.202L69.359 208.219L69.3095 202.247L71.3094 202.231ZM71.4083 214.174L71.4578 220.146L69.4579 220.163L69.4084 214.191L71.4083 214.174ZM71.5072 226.118L71.5567 232.09L69.5568 232.107L69.5073 226.135L71.5072 226.118ZM71.6061 238.062L71.6556 244.034L69.6556 244.05L69.6062 238.078L71.6061 238.062ZM71.705 250.006L71.7298 252.992L69.7298 253.008L69.7051 250.022L71.705 250.006Z" fill="#D5D2D2"/>
</svg>
