<svg id="Layer_1" data-name="Layer 1" xmlns="http://www.w3.org/2000/svg" viewBox="0 0 24 24"><path d="M16.49,12.89a2.5,2.5,0,0,0-1.89.86l-1.18-.84a3.07,3.07,0,0,0,.2-1.1,3.29,3.29,0,0,0-.19-1.09l1.18-.83a2.48,2.48,0,0,0,1.88.86A2.52,2.52,0,1,0,14,8.23a2.46,2.46,0,0,0,.11.72l-1.18.82a3.23,3.23,0,0,0-2-1.16V7.18a2.51,2.51,0,1,0-1.08,0V8.61a3.25,3.25,0,0,0,0,6.4v1.52a2.51,2.51,0,1,0,1.08,0V15a3.34,3.34,0,0,0,2-1.15l1.19.84a2.33,2.33,0,0,0-.11.7,2.52,2.52,0,1,0,2.52-2.51Zm0-5.88a1.22,1.22,0,1,1-1.22,1.22A1.22,1.22,0,0,1,16.49,7ZM9.15,4.73a1.22,1.22,0,1,1,1.22,1.21A1.22,1.22,0,0,1,9.15,4.73ZM11.59,19a1.22,1.22,0,1,1-1.22-1.22A1.22,1.22,0,0,1,11.59,19Zm-1.22-5.47a1.7,1.7,0,1,1,1.7-1.7,1.7,1.7,0,0,1-1.7,1.7Zm6.12,3.11a1.22,1.22,0,1,1,1.22-1.22,1.21,1.21,0,0,1-1.22,1.22Z"/></svg>