<svg width="15" height="15" viewBox="0 0 15 15" fill="none" xmlns="http://www.w3.org/2000/svg">
<path d="M13.35 5.95312L14.0437 6.64687C14.3375 6.94062 14.3375 7.41563 14.0437 7.70625L7.97188 13.7812C7.67813 14.075 7.20313 14.075 6.9125 13.7812L0.8375 7.70625C0.54375 7.4125 0.54375 6.9375 0.8375 6.64687L1.53125 5.95312C1.82812 5.65625 2.3125 5.6625 2.60312 5.96562L6.19063 9.73125V0.75C6.19063 0.334375 6.525 0 6.94063 0H7.94063C8.35625 0 8.69063 0.334375 8.69063 0.75V9.73125L12.2781 5.96562C12.5687 5.65937 13.0531 5.65312 13.35 5.95312Z" fill="#2D3748"/>
</svg>
