<svg width="32" height="32" viewBox="0 0 32 32" fill="none" xmlns="http://www.w3.org/2000/svg">
<path d="M16 32C11.7565 32 7.68687 30.3143 4.68629 27.3137C1.68571 24.3131 0 20.2435 0 16C0 11.7565 1.68571 7.68686 4.68629 4.68628C7.68687 1.6857 11.7565 0 16 0C20.2435 0 24.3131 1.6857 27.3137 4.68628C30.3143 7.68686 32 11.7565 32 16C32 20.2435 30.3143 24.3131 27.3137 27.3137C24.3131 30.3143 20.2435 32 16 32Z" fill="white"/>
<path d="M16.0006 8.7836C18.3416 8.7836 18.6195 8.7836 19.5458 8.83413C20.1034 8.84433 20.6554 8.94677 21.1795 9.13728C21.5611 9.27817 21.9064 9.50259 22.19 9.79413C22.4825 10.0771 22.707 10.4225 22.8469 10.8046C23.0374 11.3287 23.1398 11.8808 23.15 12.4383C23.15 13.3647 23.2006 13.6425 23.2006 15.992C23.2006 18.3415 23.2006 18.611 23.15 19.5373C23.1398 20.0948 23.0374 20.6469 22.8469 21.171C22.707 21.5531 22.4825 21.8986 22.19 22.1815C21.9064 22.473 21.5611 22.6975 21.1795 22.8383C20.6554 23.0289 20.1034 23.1313 19.5458 23.1415C18.6195 23.1836 18.3416 23.192 16.0006 23.192C13.6595 23.192 13.3732 23.192 12.4469 23.1415C11.8893 23.1313 11.3373 23.0289 10.8132 22.8383C10.4337 22.6933 10.0893 22.4695 9.80267 22.1815C9.51286 21.8964 9.2887 21.5516 9.14583 21.171C8.95531 20.6469 8.85288 20.0948 8.84267 19.5373C8.84267 18.611 8.79215 18.3331 8.79215 15.992C8.79215 13.651 8.79214 13.3647 8.84267 12.4383C8.85288 11.8808 8.95531 11.3287 9.14583 10.8046C9.2887 10.4241 9.51286 10.0792 9.80267 9.79413C10.0893 9.50616 10.4337 9.28228 10.8132 9.13728C11.3373 8.94677 11.8893 8.84433 12.4469 8.83413C13.3732 8.83413 13.6511 8.7836 16.0006 8.7836ZM16.0006 7.20044C13.609 7.20044 13.3143 7.20044 12.3711 7.25096C11.6426 7.26606 10.922 7.40562 10.2406 7.6636C9.65512 7.88543 9.12392 8.22999 8.68267 8.67412C8.23667 9.11386 7.89183 9.64549 7.67214 10.232C7.41742 10.9144 7.27797 11.6344 7.25951 12.3625C7.2174 13.3057 7.20898 13.6004 7.20898 15.992C7.20898 18.3836 7.20898 18.6783 7.25951 19.6131C7.27797 20.3412 7.41742 21.0612 7.67214 21.7436C7.89609 22.3162 8.23615 22.8363 8.67094 23.2711C9.10572 23.7059 9.62581 24.046 10.1985 24.2699C10.8799 24.5279 11.6005 24.6675 12.329 24.6826C13.2721 24.7247 13.5669 24.7331 15.9585 24.7331C18.35 24.7331 18.6448 24.7331 19.5795 24.6826C20.3081 24.6683 21.0288 24.5287 21.71 24.2699C22.2827 24.046 22.8028 23.7059 23.2375 23.2711C23.6723 22.8363 24.0124 22.3162 24.2364 21.7436C24.4951 21.0624 24.6347 20.3417 24.649 19.6131C24.6911 18.6783 24.6995 18.3752 24.6995 15.992C24.6995 13.6089 24.6995 13.3057 24.649 12.3625C24.6347 11.634 24.4951 10.9133 24.2364 10.232C24.0196 9.64399 23.6744 9.11175 23.2258 8.67412C22.7861 8.22813 22.2545 7.88329 21.6679 7.6636C20.9867 7.40481 20.266 7.26523 19.5374 7.25096C18.6027 7.25096 18.2995 7.20044 15.9163 7.20044" fill="#434343"/>
<path d="M16.0006 11.4609C15.1076 11.4593 14.234 11.7226 13.4907 12.2176C12.7473 12.7125 12.1674 13.4169 11.8245 14.2415C11.4816 15.0661 11.391 15.9739 11.5642 16.85C11.7374 17.7262 12.1667 18.5312 12.7976 19.1633C13.4285 19.7954 14.2327 20.2261 15.1085 20.401C15.9843 20.5758 16.8923 20.4869 17.7176 20.1455C18.5428 19.8042 19.2483 19.2256 19.7446 18.4832C20.2409 17.7407 20.5059 16.8677 20.5059 15.9746C20.5059 14.779 20.0315 13.6322 19.1868 12.7859C18.3422 11.9397 17.1963 11.4632 16.0006 11.4609ZM16.0006 18.8967C15.4203 18.8984 14.8526 18.7277 14.3693 18.4064C13.8861 18.085 13.5092 17.6274 13.2864 17.0916C13.0635 16.5557 13.0048 15.9658 13.1176 15.3966C13.2304 14.8273 13.5097 14.3044 13.92 13.894C14.3304 13.4837 14.8533 13.2044 15.4226 13.0916C15.9918 12.9788 16.5817 13.0375 17.1176 13.2604C17.6534 13.4832 18.111 13.8601 18.4324 14.3434C18.7537 14.8266 18.9244 15.3943 18.9227 15.9746C18.9227 16.3584 18.8471 16.7383 18.7003 17.0929C18.5534 17.4474 18.3382 17.7695 18.0669 18.0409C17.7955 18.3122 17.4734 18.5275 17.1189 18.6743C16.7643 18.8212 16.3844 18.8967 16.0006 18.8967Z" fill="#434343"/>
<path d="M21.7608 11.3084C21.7608 11.5186 21.6983 11.7241 21.5814 11.8988C21.4644 12.0734 21.2982 12.2094 21.1038 12.2895C20.9094 12.3695 20.6956 12.39 20.4896 12.3484C20.2835 12.3068 20.0945 12.2049 19.9465 12.0556C19.7984 11.9064 19.698 11.7166 19.658 11.5102C19.6181 11.3038 19.6403 11.0902 19.7219 10.8965C19.8035 10.7028 19.9408 10.5376 20.1164 10.422C20.292 10.3065 20.4979 10.2457 20.7081 10.2473C20.8471 10.2473 20.9847 10.2748 21.1129 10.3283C21.2412 10.3817 21.3576 10.46 21.4555 10.5586C21.5533 10.6573 21.6307 10.7743 21.6831 10.903C21.7355 11.0317 21.7619 11.1695 21.7608 11.3084Z" fill="#434343"/>
</svg>
