<svg width="32" height="32" viewBox="0 0 32 32" fill="none" xmlns="http://www.w3.org/2000/svg">
<path d="M32 16C32 7.16344 24.8366 0 16 0C7.16344 0 0 7.16344 0 16C0 24.8366 7.16344 32 16 32C24.8366 32 32 24.8366 32 16Z" fill="white"/>
<g clip-path="url(#clip0_6613_14867)">
<path d="M11.189 12.7908H7.57548C7.4151 12.7908 7.28516 12.9208 7.28516 13.0811V24.6898C7.28516 24.8502 7.4151 24.9801 7.57548 24.9801H11.189C11.3494 24.9801 11.4793 24.8502 11.4793 24.6898V13.0811C11.4793 12.9208 11.3494 12.7908 11.189 12.7908Z" fill="#434343"/>
<path d="M9.38448 7.01978C8.06966 7.01978 7 8.08828 7 9.40164C7 10.7156 8.06966 11.7845 9.38448 11.7845C10.6982 11.7845 11.767 10.7155 11.767 9.40164C11.7671 8.08828 10.6982 7.01978 9.38448 7.01978Z" fill="#434343"/>
<path d="M20.3822 12.5022C18.9308 12.5022 17.858 13.1261 17.2072 13.835V13.081C17.2072 12.9207 17.0773 12.7907 16.9169 12.7907H13.4563C13.296 12.7907 13.166 12.9207 13.166 13.081V24.6898C13.166 24.8501 13.296 24.9801 13.4563 24.9801H17.062C17.2223 24.9801 17.3523 24.8501 17.3523 24.6898V18.9461C17.3523 17.0107 17.878 16.2566 19.2272 16.2566C20.6966 16.2566 20.8133 17.4654 20.8133 19.0457V24.6898C20.8133 24.8502 20.9433 24.9801 21.1037 24.9801H24.7106C24.871 24.9801 25.001 24.8502 25.001 24.6898V18.3222C25.001 15.4443 24.4522 12.5022 20.3822 12.5022Z" fill="#434343"/>
</g>
<defs>
<clipPath id="clip0_6613_14867">
<rect width="18" height="18" fill="white" transform="matrix(-1 0 0 1 25 7)"/>
</clipPath>
</defs>
</svg>
