<svg width="33" height="32" viewBox="0 0 33 32" fill="none" xmlns="http://www.w3.org/2000/svg">
<rect width="32" height="32" rx="16" transform="matrix(1 0 0 -1 0.5625 32)" fill="white"/>
<path d="M12.5846 25.125C15.4273 25.125 17.7316 21.0394 17.7316 15.9998C17.7316 10.9603 15.4272 6.875 12.5846 6.875C9.74212 6.875 7.4375 10.9603 7.4375 15.9998C7.4375 21.0394 9.74194 25.125 12.5846 25.125ZM20.8042 24.5905C22.2256 24.5905 23.3778 20.7447 23.3778 15.9998H23.378C23.378 11.2562 22.2258 7.40922 20.8044 7.40922C19.3831 7.40922 18.2309 11.2562 18.2309 15.9998C18.2309 20.7435 19.3829 24.5905 20.8042 24.5905ZM24.7824 23.6957C25.2822 23.6957 25.6875 20.2502 25.6875 15.9998C25.6875 11.7507 25.2823 8.304 24.7824 8.304C24.2824 8.304 23.8774 11.7498 23.8774 15.9998C23.8774 20.2499 24.2826 23.6957 24.7824 23.6957Z" fill="#434343"/>
</svg>
