<svg width="32" height="32" viewBox="0 0 32 32" fill="none" xmlns="http://www.w3.org/2000/svg">
<g clip-path="url(#clip0_4715_34542)">
<path d="M16.0021 32.0016C11.7653 32.0016 7.7021 30.3185 4.70625 27.3227C1.7104 24.3268 0.0273438 20.2636 0.0273438 16.0268V16.0268C0.0273438 11.79 1.7104 7.72676 4.70625 4.73091C7.7021 1.73505 11.7653 0.052002 16.0021 0.052002V0.052002C20.2389 0.052002 24.3021 1.73505 27.298 4.73091C30.2938 7.72676 31.9769 11.79 31.9769 16.0268V16.0268C31.9769 20.2636 30.2938 24.3268 27.298 27.3227C24.3021 30.3185 20.2389 32.0016 16.0021 32.0016V32.0016Z" fill="white"/>
<path d="M7.07892 16.0002C7.07781 17.1713 7.30752 18.3311 7.75491 19.4134C8.20229 20.4956 8.85858 21.4791 9.68627 22.3075C10.514 23.136 11.4968 23.7932 12.5787 24.2416C13.6605 24.6901 14.8201 24.9209 15.9912 24.9209C16.5552 24.9226 17.1181 24.8719 17.6727 24.7695C18.6736 25.3719 19.848 25.6201 21.0071 25.4741C22.1661 25.3281 23.2423 24.7963 24.0625 23.9645C24.8826 23.1327 25.3991 22.0491 25.5288 20.8881C25.6584 19.7272 25.3937 18.5563 24.7773 17.564C24.869 17.0507 24.914 16.5301 24.9118 16.0086C24.9157 14.6979 24.6293 13.4026 24.0732 12.2158C23.5172 11.0289 22.7053 9.9798 21.6957 9.14388C20.6862 8.30796 19.5041 7.70592 18.2343 7.38099C16.9646 7.05605 15.6386 7.01628 14.3516 7.26452C13.5394 6.7674 12.6051 6.50545 11.6527 6.50783C10.7264 6.50579 9.81634 6.75143 9.01684 7.21933C8.21734 7.68722 7.55747 8.36035 7.10555 9.16899C6.65364 9.97763 6.42613 10.8924 6.44658 11.8185C6.46703 12.7446 6.73469 13.6484 7.22185 14.4364C7.12828 14.9524 7.08046 15.4757 7.07892 16.0002V16.0002ZM16.0921 9.66915C18.9675 9.8373 20.6491 11.1069 20.8088 12.284C20.8356 12.4657 20.8204 12.6512 20.7643 12.8262C20.7082 13.0012 20.6128 13.161 20.4853 13.2933C20.3578 13.4256 20.2017 13.527 20.029 13.5896C19.8562 13.6522 19.6714 13.6744 19.4888 13.6544C18.1856 13.6544 18.0595 11.9224 15.8146 11.9224C14.8057 11.9224 13.9565 12.3428 13.9565 13.2509C13.9565 15.1594 21.1283 14.0496 21.1283 18.2451C21.1283 20.6581 19.1945 22.2388 16.3107 22.2388C13.7883 22.2388 11.2155 21.0869 11.266 19.1111C11.2545 18.8208 11.3572 18.5377 11.5521 18.3223C11.747 18.107 12.0186 17.9766 12.3086 17.9592C13.8051 17.9592 13.7883 20.1789 16.1677 20.1789C17.8493 20.1789 18.4126 19.2708 18.4126 18.6402C18.4126 16.3449 11.1903 17.749 11.1903 13.4358C11.1987 11.1069 13.0737 9.49258 16.0921 9.66915V9.66915Z" fill="#434343"/>
</g>
<defs>
<clipPath id="clip0_4715_34542">
<rect width="32" height="32" fill="white"/>
</clipPath>
</defs>
</svg>
