<svg width="32" height="32" viewBox="0 0 32 32" fill="none" xmlns="http://www.w3.org/2000/svg">
<path d="M16 32C11.7565 32 7.68687 30.3143 4.68629 27.3137C1.68571 24.3131 0 20.2435 0 16C0 11.7565 1.68571 7.68686 4.68629 4.68628C7.68687 1.6857 11.7565 0 16 0C20.2435 0 24.3131 1.6857 27.3137 4.68628C30.3143 7.68686 32 11.7565 32 16C32 20.2435 30.3143 24.3131 27.3137 27.3137C24.3131 30.3143 20.2435 32 16 32Z" fill="white"/>
<path d="M7.45898 21.3385C8.99805 22.3235 10.7782 22.8666 12.605 22.9085C14.4317 22.9503 16.2349 22.4894 17.8175 21.576C19.4001 20.6626 20.7012 19.3319 21.5788 17.7292C22.4564 16.1264 22.8767 14.3134 22.7937 12.488C23.4755 11.9903 24.0654 11.3777 24.5369 10.6775C23.8972 10.9598 23.2188 11.1443 22.5243 11.2249C23.257 10.7889 23.8051 10.1 24.0653 9.28803C23.378 9.69407 22.626 9.97892 21.8421 10.1301C21.3152 9.56599 20.6166 9.19171 19.855 9.06547C19.0934 8.93923 18.3115 9.0681 17.6307 9.43203C16.9499 9.79596 16.4083 10.3746 16.0902 11.078C15.7721 11.7814 15.6953 12.5701 15.8716 13.3217C14.4797 13.2527 13.1178 12.8916 11.8745 12.262C10.6311 11.6323 9.53415 10.7482 8.65478 9.66697C8.20634 10.437 8.06819 11.3489 8.26844 12.2172C8.46869 13.0855 8.9923 13.8448 9.73267 14.3407C9.17756 14.3232 8.6347 14.173 8.14951 13.9028C8.13775 14.7198 8.4127 15.5152 8.92655 16.1506C9.4404 16.786 10.1607 17.2212 10.9621 17.3807C10.4462 17.5231 9.90412 17.5432 9.37899 17.4396C9.59964 18.1366 10.0338 18.7466 10.6202 19.1834C11.2065 19.6201 11.9153 19.8615 12.6464 19.8733C11.921 20.4475 11.0893 20.8726 10.199 21.1241C9.30876 21.3755 8.37754 21.4484 7.45898 21.3385Z" fill="#434343"/>
</svg>
