<svg width="550" height="550" viewBox="0 0 550 550" fill="none" xmlns="http://www.w3.org/2000/svg">
<g clip-path="url(#clip0_6384_12397)">
<path d="M96.7074 218.836L430.081 8.34168C432.097 7.05835 434.407 7.10418 436.241 8.05751V8.04835L436.332 8.10335C436.342 8.11252 436.36 8.11251 436.369 8.12168L443.602 11.8892L439.541 15.2258L439.541 255.869C439.541 266.273 434.142 276.018 425.287 281.609L93.5724 491.04L92.5549 495.889L86.3124 492.626C85.9549 492.479 85.6157 492.296 85.2857 492.085L85.2032 492.048H85.2124C83.5991 490.985 82.4716 489.179 82.4716 486.961V244.585C82.4807 234.153 87.8616 224.437 96.7074 218.836Z" fill="#002680"/>
<path d="M96.7074 218.836L430.081 8.34168C432.097 7.05835 434.407 7.10418 436.241 8.05751V8.04835L436.332 8.10335C436.342 8.11252 436.36 8.11251 436.369 8.12168L443.602 11.8892L439.541 15.2258L439.541 255.869C439.541 266.273 434.142 276.018 425.287 281.609L93.5724 491.04L92.5549 495.889L86.3124 492.626C85.9549 492.479 85.6157 492.296 85.2857 492.085L85.2032 492.048H85.2124C83.5991 490.985 82.4716 489.179 82.4716 486.961V244.585C82.4807 234.153 87.8616 224.437 96.7074 218.836Z" fill="url(#paint0_linear_6384_12397)"/>
<path d="M89.3449 248.132V490.517C89.3449 495.348 94.6707 498.263 98.7866 495.642L432.16 285.166C441.006 279.565 446.414 269.83 446.414 259.426L446.414 17.0225C446.414 12.1917 441.07 9.27666 436.954 11.8983L103.581 222.393C94.7257 227.993 89.3449 237.71 89.3449 248.132Z" fill="url(#paint1_linear_6384_12397)"/>
<path d="M89.3463 248.132V251.992L446.406 26.5283V17.0225C446.406 12.1917 441.062 9.27666 436.946 11.8983L103.573 222.393C94.7271 227.993 89.3463 237.71 89.3463 248.132Z" fill="#002680"/>
<path d="M138.773 210.21C138.773 212.804 140.873 213.565 143.467 211.906C146.061 210.247 148.16 206.809 148.16 204.215C148.16 201.621 146.061 200.86 143.467 202.519C140.873 204.178 138.773 207.616 138.773 210.21Z" fill="#002680"/>
<path d="M121.375 221.311C121.375 223.905 123.474 224.666 126.068 223.007C128.663 221.357 130.762 217.91 130.762 215.316C130.762 212.722 128.663 211.961 126.068 213.62C123.483 215.27 121.375 218.717 121.375 221.311Z" fill="#002680"/>
<path d="M103.984 232.402C103.984 234.997 106.084 235.757 108.678 234.098C111.272 232.448 113.371 229.002 113.371 226.407C113.371 223.813 111.272 223.052 108.678 224.712C106.084 226.371 103.984 229.808 103.984 232.402Z" fill="#002680"/>
<path d="M138.773 210.21C138.773 212.804 140.873 213.565 143.467 211.906C146.061 210.247 148.16 206.809 148.16 204.215C148.16 201.621 146.061 200.86 143.467 202.519C140.873 204.178 138.773 207.616 138.773 210.21Z" fill="url(#paint2_linear_6384_12397)"/>
<path d="M121.375 221.311C121.375 223.905 123.474 224.666 126.068 223.007C128.663 221.357 130.762 217.91 130.762 215.316C130.762 212.722 128.663 211.961 126.068 213.62C123.483 215.27 121.375 218.717 121.375 221.311Z" fill="url(#paint3_linear_6384_12397)"/>
<path d="M103.984 232.402C103.984 234.997 106.084 235.757 108.678 234.098C111.272 232.448 113.371 229.002 113.371 226.407C113.371 223.813 111.272 223.052 108.678 224.712C106.084 226.371 103.984 229.808 103.984 232.402Z" fill="url(#paint4_linear_6384_12397)"/>
<path d="M263.77 233.108V296.78C263.77 297.798 264.888 298.412 265.759 297.862L335.92 253.568C337.781 252.386 338.918 250.342 338.918 248.151V184.47C338.918 183.453 337.79 182.838 336.929 183.388L266.767 227.691C264.906 228.864 263.77 230.908 263.77 233.108Z" fill="url(#paint5_linear_6384_12397)"/>
<path d="M263.77 190.868V212.483C263.77 213.501 264.888 214.115 265.759 213.565L335.92 169.272C337.781 168.089 338.918 166.045 338.918 163.854V142.239C338.918 141.222 337.79 140.608 336.929 141.158L266.767 185.46C264.906 186.624 263.77 188.668 263.77 190.868Z" fill="url(#paint6_linear_6384_12397)"/>
<path d="M263.77 190.868V212.483C263.77 213.501 264.888 214.115 265.759 213.565L335.92 169.272C337.781 168.089 338.918 166.045 338.918 163.854V142.239C338.918 141.222 337.79 140.608 336.929 141.158L266.767 185.46C264.906 186.624 263.77 188.668 263.77 190.868Z" fill="url(#paint7_linear_6384_12397)"/>
<path d="M287.83 246.877L297.254 240.909V231.486C297.254 230.569 297.996 229.359 298.913 228.773L303.79 225.683C304.706 225.106 305.449 225.372 305.449 226.288V235.712L314.872 229.744C315.789 229.167 316.531 229.433 316.531 230.349V235.226C316.531 236.143 315.789 237.353 314.872 237.939L305.449 243.907V253.33C305.449 254.247 304.706 255.457 303.79 256.043L298.913 259.133C297.996 259.71 297.254 259.444 297.254 258.528V249.104L287.83 255.072C286.914 255.649 286.171 255.383 286.171 254.467V249.59C286.171 248.673 286.914 247.454 287.83 246.877Z" fill="#FCFCFA"/>
<path d="M351.219 126.427L415.459 85.9742C416.88 85.0759 418.135 84.9658 418.96 85.47V85.4425L422.719 87.395L418.282 90.9425V144.412C418.282 146.896 416.265 150.187 413.781 151.745L352.19 190.538L351.796 195.708L347.9 193.692L347.91 193.683C347.167 193.343 346.709 192.573 346.709 191.4V133.769C346.718 131.276 348.735 127.994 351.219 126.427Z" fill="url(#paint8_linear_6384_12397)"/>
<path d="M351.219 126.427L415.459 85.9742C416.88 85.0759 418.135 84.9658 418.96 85.47V85.4425L422.719 87.395L418.282 90.9425V144.412C418.282 146.896 416.265 150.187 413.781 151.745L352.19 190.538L351.796 195.708L347.9 193.692L347.91 193.683C347.167 193.343 346.709 192.573 346.709 191.4V133.769C346.718 131.276 348.735 127.994 351.219 126.427Z" fill="url(#paint9_linear_6384_12397)"/>
<path d="M350.579 135.768V193.398C350.579 195.882 352.595 196.634 355.079 195.067L419.319 154.614C421.804 153.047 423.82 149.765 423.82 147.281V89.6408C423.82 87.1567 421.804 86.405 419.319 87.9725L355.079 128.425C352.595 129.993 350.579 133.283 350.579 135.768Z" fill="white"/>
<path d="M381.067 178.695L419.319 154.605C421.804 153.038 423.82 149.756 423.82 147.272V116.857L415.845 108.066C414.369 106.434 410.675 108.763 409.199 112.255L387.007 164.661L381.067 178.695Z" fill="url(#paint10_linear_6384_12397)"/>
<path d="M350.58 189.347V193.398C350.58 195.883 352.596 196.634 355.08 195.067L392.957 171.215L387.017 164.661L372.625 148.793C371.15 147.162 367.455 149.49 365.98 152.983L350.58 189.347Z" fill="url(#paint11_linear_6384_12397)"/>
<path d="M360.196 139.251C360.196 144.522 364.468 146.098 369.739 142.78C375.01 139.462 379.281 132.504 379.281 127.233C379.281 121.963 375.01 120.386 369.739 123.704C364.468 127.023 360.196 133.98 360.196 139.251Z" fill="url(#paint12_linear_6384_12397)"/>
<path d="M460.202 357.885C459.074 357.885 458.048 357.115 457.764 355.969L411.05 167.026C410.72 165.678 411.536 164.312 412.893 163.973C414.231 163.634 415.606 164.459 415.936 165.807L462.649 354.768C462.979 356.116 462.164 357.482 460.807 357.812C460.614 357.867 460.404 357.885 460.202 357.885Z" fill="#BBE4FF"/>
<path d="M380.565 224.437C379.923 224.437 379.291 224.107 378.943 223.511C378.411 222.612 378.704 221.457 379.603 220.926L419.377 197.349C420.266 196.817 421.43 197.111 421.962 198.009C422.493 198.907 422.2 200.062 421.302 200.594L381.528 224.171C381.225 224.354 380.895 224.437 380.565 224.437Z" fill="#0096EA"/>
<path d="M386.945 250.177C386.304 250.177 385.671 249.847 385.323 249.251C384.791 248.352 385.084 247.197 385.983 246.666L425.748 223.089C426.637 222.557 427.801 222.851 428.333 223.749C428.864 224.647 428.571 225.802 427.673 226.334L387.908 249.911C387.605 250.094 387.275 250.177 386.945 250.177Z" fill="#0096EA"/>
<path d="M393.324 275.917C392.683 275.917 392.05 275.587 391.702 274.991C391.17 274.092 391.463 272.937 392.362 272.406L432.127 248.838C433.016 248.307 434.18 248.6 434.712 249.498C435.243 250.397 434.95 251.552 434.052 252.083L394.296 275.651C393.984 275.825 393.654 275.917 393.324 275.917Z" fill="#0096EA"/>
<path d="M399.704 301.647C399.063 301.647 398.43 301.317 398.082 300.722C397.55 299.823 397.844 298.668 398.742 298.137L438.498 274.578C439.387 274.047 440.551 274.34 441.083 275.238C441.614 276.137 441.321 277.292 440.423 277.823L400.667 301.382C400.364 301.565 400.034 301.647 399.704 301.647Z" fill="#0096EA"/>
<path d="M406.093 327.387C405.451 327.387 404.818 327.058 404.47 326.462C403.938 325.563 404.232 324.408 405.13 323.877L444.877 300.318C445.775 299.787 446.93 300.08 447.462 300.978C447.993 301.877 447.7 303.032 446.802 303.563L407.055 327.122C406.753 327.305 406.413 327.387 406.093 327.387Z" fill="#0096EA"/>
<path d="M412.473 353.127C411.831 353.127 411.199 352.797 410.85 352.202C410.319 351.303 410.612 350.148 411.51 349.617L451.248 326.067C452.146 325.536 453.301 325.829 453.833 326.727C454.364 327.626 454.071 328.781 453.173 329.312L413.435 352.862C413.133 353.045 412.803 353.127 412.473 353.127Z" fill="#0096EA"/>
<path d="M425.076 276.852C427.157 276.595 427.973 278.107 427.973 278.107C427.973 278.107 432.034 275.962 434.967 276.989C436.828 277.64 438.074 279.757 438.349 281.563C438.542 282.828 438.634 283.571 438.67 283.956C438.689 284.084 438.661 284.212 438.597 284.322C438.395 284.652 437.946 285.386 436.654 285.872C435.214 286.412 433.729 286.403 432.593 286.183C431.456 285.963 430.393 285.386 430.393 285.386C430.393 285.386 430.118 284.781 429.604 284.597C428.972 284.377 428.184 284.341 427.01 284.277C422.06 283.983 420.969 281.893 420.493 281.178C419.164 279.162 419.778 274.798 425.076 276.852Z" fill="#080749"/>
<path d="M427.22 275.797C427.22 275.797 422.976 275.724 422.05 275.917C417.76 276.806 420.153 283.617 427.12 283.644C430.594 283.653 430.786 285.019 433.683 285.111C434.92 285.157 436.47 284.872 437.295 284.267C438.908 283.085 438.514 281.719 438.34 280.775C437.964 278.676 437.111 276.842 435.021 276.283C432.015 275.486 427.22 275.797 427.22 275.797Z" fill="white"/>
<path d="M433.575 269.142C433.575 269.142 435.051 274.037 435.5 275.064C435.775 275.687 436.298 276.989 436.554 277.457C436.903 278.089 436.151 279.592 433.089 279.803C429.872 280.023 428.781 278.437 428.781 278.3C428.708 276.32 427.113 272.717 426.352 271.132" fill="#F1BF9C"/>
<path d="M415.817 247.583C417.65 251.378 427.394 275.248 427.394 275.248C427.632 275.568 428.403 277.301 431.868 277.512C435.873 277.759 436.625 275.211 436.625 275.211C436.607 272.69 430.85 242.532 428.861 238.15C428.32 236.958 426.523 233.017 424.938 230.34L411.628 236.042C413.085 240.295 415.404 246.739 415.817 247.583Z" fill="url(#paint13_linear_6384_12397)"/>
<path d="M435.086 211.356C435.086 211.356 437.286 215.05 438.523 224.079C438.991 227.489 437.882 232.458 435.718 235.739C433.069 239.763 426.231 243.128 426.231 243.128L414.479 250.452C414.479 250.452 410.07 250.626 406.082 243.916C402.095 237.206 406.825 225.142 406.825 225.142L435.086 211.356Z" fill="url(#paint14_linear_6384_12397)"/>
<path d="M424.61 230.422C424.61 230.422 426.773 234.282 425.38 239.305C424.5 242.495 423.235 244.997 423.235 244.997L420.512 246.776L419.862 243.861L424.61 230.422Z" fill="#070644"/>
<path d="M416.837 313.124C418.936 313.087 420.595 312.62 420.595 312.62C420.595 312.62 424.876 310.869 427.672 312.235C430.358 313.546 430.596 315.929 430.578 317.707C430.569 318.331 430.605 319.33 430.596 319.559C430.596 319.687 430.495 319.852 430.413 319.953C430.174 320.265 429.734 320.824 428.396 321.172C426.911 321.557 425.445 321.466 424.335 321.117C423.226 320.778 422.227 320.091 422.227 320.091C422.227 320.091 421.677 319.266 421.393 319.156C420.806 318.936 420.11 318.78 419.019 318.707C413.235 318.303 411.942 316.378 411.456 315.379C410.576 313.555 411.786 310.521 416.837 313.124Z" fill="#080749"/>
<path d="M420.704 310.64C420.704 310.64 415.021 310.942 414.095 310.997C411.648 311.153 410.676 313.207 411.565 314.802C412.161 315.883 413.38 317.616 419.164 318.019C421.74 318.276 422.84 319.632 425.544 320.173C426.764 320.412 428.395 320.21 429.229 319.715C430.788 318.789 430.705 317.304 430.632 316.351C430.476 314.215 429.825 312.308 427.809 311.538C424.903 310.429 420.704 310.64 420.704 310.64Z" fill="white"/>
<path d="M426.899 307.175C426.899 307.175 427.66 311.007 427.917 311.456C428.174 311.896 428.614 312.198 428.742 312.638C428.944 313.344 427.202 314.646 425.341 314.912C421.803 315.416 420.483 314.132 420.235 313.637C419.887 312.097 419.089 308.889 418.686 308.009" fill="#F1BF9C"/>
<path d="M399.693 237.38C399.766 235.537 401.004 226.022 401.004 226.022L421.317 219.917C421.317 219.917 425.699 226.527 425.405 234.016C425.24 238.168 421.161 247.06 421.161 247.06C419.951 253.467 418.145 270.334 418.145 270.462C419.328 273.121 422.793 284.707 423.288 286.605C424.599 291.647 427.944 309.467 427.944 309.467C427.944 309.467 428.412 311.822 424.379 312.427C419.584 313.152 418.09 310.273 418.09 310.273C418.09 310.273 404.734 275.44 404.065 272.332C402.993 269.408 401.288 261.736 400.637 257.574C399.555 250.745 399.317 246.171 399.693 237.38Z" fill="url(#paint15_linear_6384_12397)"/>
<path d="M402.875 160.82C403.792 161.242 405.909 161.608 406.643 161.709C406.643 161.709 406.698 161.718 406.798 161.727C406.863 161.727 406.927 161.746 406.991 161.764C407.156 161.792 407.394 161.828 407.669 161.902C407.935 161.993 408.128 162.103 408.228 162.287C408.65 163.038 409.044 167.842 409.044 167.842L410.474 167.108L419.137 162.635C419.137 162.635 418.66 160.206 418.449 157.932C418.248 155.659 416.671 143.605 413.38 141.973C410.08 140.332 400.428 142.642 399.621 143.944C399.621 143.944 399.713 146.052 399.914 149.563C400.098 153.028 400.996 159.949 402.875 160.82Z" fill="#F1BF9C"/>
<path d="M414.194 135.392C417.054 136.602 417.054 137.986 417.778 138.582C421.757 139.984 421.683 144.467 421.408 147.253C421.069 150.737 419.749 153.267 419.428 154.477C419.107 155.687 419.593 156.842 419.346 157.557C419.016 158.538 417.54 159.463 416.669 159.894C415.569 160.435 413.727 160.664 413.222 159.949C412.416 158.803 411.857 155.412 411.71 153.725C411.591 152.423 411.004 151.809 410.152 151.901C409.409 151.983 409.317 153.193 409.226 154.284C409.134 155.375 408.071 155.402 407.796 155.201C407.512 154.99 407.2 152.854 406.916 152.066C406.632 151.277 404.047 149.912 403.744 147.51C403.506 145.557 402.452 145.878 400.371 145.163C396.695 143.99 396.732 140.791 398.382 138.371C399.179 137.207 401.15 135.712 403.093 135.346C406.732 134.667 411.142 134.108 414.194 135.392Z" fill="#191968"/>
<path d="M401.041 206.085V206.113C401.014 206.113 401.014 206.113 401.014 206.113V206.122L401.023 206.131C401.023 206.131 402.114 211.035 401.628 218.588C401.445 221.494 400.73 224.831 400.079 227.663C399.786 228.892 403.086 232.421 406.468 233.438C418 236.839 433.666 223.804 436.727 219.065C439.312 215.032 435.563 208.89 434.096 205.663C431.475 200.035 430.998 195.58 433.895 188.238C437.479 179.181 437.946 167.273 432.162 163.066C430.384 161.792 427.029 159.793 422.326 162.397C421.263 162.928 420.136 163.469 420.136 163.469L419.173 162.021C416.579 163.13 411.116 165.706 406.642 169.537L406.826 170.803C406.706 170.903 406.541 171.013 406.431 171.096C402.096 173.956 398.548 176.871 396.467 180.235L399.208 195.8L400.244 201.713L401.041 206.085Z" fill="#002680"/>
<path d="M401.041 206.085V206.113C401.014 206.113 401.014 206.113 401.014 206.113V206.122L401.023 206.131C401.023 206.131 402.114 211.035 401.628 218.588C401.445 221.494 400.73 224.831 400.079 227.663C399.786 228.892 403.086 232.421 406.468 233.438C418 236.839 433.666 223.804 436.727 219.065C439.312 215.032 435.563 208.89 434.096 205.663C431.475 200.035 430.998 195.58 433.895 188.238C437.479 179.181 437.946 167.273 432.162 163.066C430.384 161.792 427.029 159.793 422.326 162.397C421.263 162.928 420.136 163.469 420.136 163.469L419.173 162.021C416.579 163.13 411.116 165.706 406.642 169.537L406.826 170.803C406.706 170.903 406.541 171.013 406.431 171.096C402.096 173.956 398.548 176.871 396.467 180.235L399.208 195.8L400.244 201.713L401.041 206.085Z" fill="url(#paint16_linear_6384_12397)"/>
<path opacity="0.33" d="M399.217 195.8L400.253 201.713C403.617 198.587 406.816 193.939 406.816 193.939L399.217 195.8Z" fill="url(#paint17_linear_6384_12397)"/>
<path opacity="0.33" d="M406.704 169.95L406.842 170.83C406.842 170.83 413.258 166.888 416.824 165.119C415.917 165.422 411.398 167.053 406.704 169.95Z" fill="url(#paint18_linear_6384_12397)"/>
<path d="M401.031 206.103L401.003 206.113V206.103C401.012 206.103 401.012 206.103 401.031 206.103Z" fill="#150B6D"/>
<path d="M419.53 382.268C418.403 382.268 417.376 381.498 417.092 380.353L370.378 191.409C370.048 190.062 370.864 188.696 372.221 188.357C373.568 188.018 374.934 188.843 375.264 190.19L421.978 379.133C422.308 380.481 421.492 381.847 420.135 382.177C419.933 382.25 419.732 382.268 419.53 382.268Z" fill="#BBE4FF"/>
<path d="M345.48 181.124C345.599 181.198 345.718 181.308 345.847 181.436C346.167 181.243 346.818 181.418 347.212 181.986C347.68 182.673 349.678 184.663 350.393 184.846C351.145 185.038 351.75 185.158 351.75 185.158L351.301 184.186C351.301 184.186 350.971 183.508 350.375 182.618C349.788 181.729 350.008 181.005 350.522 181.042C351.035 181.078 352.437 182.178 353.537 183.297C354.252 184.021 355.05 184.855 355.637 185.552C355.902 185.873 356.709 188.054 358.038 188.714C358.414 188.898 360.156 189.677 363.914 190.758C371.77 193.023 378.691 194.783 378.691 194.783L385.364 190.163L395.777 198.963C395.777 198.963 385.291 207.946 380.542 206.901C377.105 206.14 359.193 195.883 359.193 195.883C359.193 195.883 354.537 193.38 353.996 193.206C353.088 192.913 351.777 192.766 350.723 192.372C349.165 191.776 347.992 190.383 347.597 189.814C347.203 189.246 345.782 186.175 345.159 184.846C344.591 183.645 344.811 183.361 345.168 183.288C344.921 182.783 344.829 182.591 344.664 182.252C344.05 180.923 344.921 180.767 345.48 181.124Z" fill="#F1BF9C"/>
<path d="M399.345 176.678C395.532 179.777 384.981 190.108 384.981 190.108C384.981 190.108 383.34 193.05 384.678 196.588C386.393 201.144 390.738 203.427 393.121 202.858C396.091 202.153 400.995 198.495 403.58 196.781C407.476 194.196 413.984 186.734 408.961 178.338C406.229 173.773 401.243 175.138 399.345 176.678Z" fill="#002680"/>
<path d="M399.345 176.678C395.532 179.777 384.981 190.108 384.981 190.108C384.981 190.108 383.34 193.05 384.678 196.588C386.393 201.144 390.738 203.427 393.121 202.858C396.091 202.153 400.995 198.495 403.58 196.781C407.476 194.196 413.984 186.734 408.961 178.338C406.229 173.773 401.243 175.138 399.345 176.678Z" fill="url(#paint19_linear_6384_12397)"/>
<path d="M118.359 270.573L118.359 382.268C118.359 384.047 120.321 385.128 121.842 384.157L244.914 306.46C248.177 304.397 250.176 300.795 250.176 296.954V185.249C250.176 183.471 248.205 182.389 246.683 183.361L123.612 261.067C120.348 263.129 118.359 266.723 118.359 270.573Z" stroke="url(#paint20_linear_6384_12397)" stroke-linecap="round" stroke-linejoin="round" stroke-dasharray="2.01 2.01"/>
<path d="M146.28 283.314L148.352 282.012C149.058 281.572 149.654 280.702 149.81 279.913C150.598 276.036 151.918 272.021 153.705 268.033C154.081 267.199 154.008 266.475 153.513 266.292L152.055 265.751C151.386 265.503 151.386 264.412 152.055 263.312L158.069 253.513C158.738 252.413 159.838 251.726 160.507 251.973L161.965 252.514C162.46 252.697 163.23 252.285 163.835 251.533C166.704 247.94 169.885 244.612 173.267 241.697C173.955 241.102 174.45 240.194 174.45 239.497V237.417C174.45 236.463 175.22 235.207 176.173 234.602L184.68 229.249C185.202 228.919 185.651 228.882 185.963 229.047L185.972 229.029L190.84 231.587C193.012 230.982 195.093 230.642 197.018 230.624C197.614 230.615 198.384 230.065 198.888 229.249L200.345 226.875C201.015 225.775 202.115 225.087 202.784 225.335L208.797 227.562L217.405 232.082C217.405 232.082 213.481 234.63 213.151 234.896C212.821 235.162 210.52 236.042 209.815 236.39C209.622 236.482 209.246 236.472 208.797 236.399C209.75 237.811 210.52 239.442 211.034 241.34C211.19 241.927 211.785 242.046 212.491 241.606L214.563 240.304C215.113 239.956 215.59 239.937 215.901 240.139V240.112L224.344 244.557C224.344 244.557 221.594 248.05 221.346 248.316C221.09 248.582 219.522 248.664 219.32 248.673C219.174 248.682 217.35 247.243 216.286 246.391V249.443C216.286 250.397 215.516 251.652 214.563 252.257L212.491 253.568C211.785 254.008 211.19 254.879 211.034 255.667C210.245 259.545 208.925 263.56 207.138 267.547C206.762 268.382 206.835 269.106 207.33 269.289L208.788 269.83L217.395 274.349L211.446 277.484L209.237 271.095C209.173 271.462 209.045 271.856 208.797 272.259L202.784 282.058C202.115 283.158 201.015 283.846 200.345 283.598L198.888 283.057C198.393 282.874 197.623 283.287 197.018 284.038C194.149 287.622 190.977 290.95 187.595 293.865C186.907 294.461 186.412 295.359 186.412 296.065V298.146C186.412 299.099 185.642 300.355 184.689 300.96L179.088 304.489C179.363 304.315 183.855 306.222 183.855 306.222L184.056 307.826L183.534 311.08L174.871 306.533C174.871 306.533 174.89 306.524 174.899 306.524C174.633 306.387 174.45 306.112 174.45 305.672V303.591C174.45 302.885 173.955 302.601 173.267 302.876C170.792 303.857 168.427 304.48 166.209 304.755C166.465 305.167 166.658 305.497 166.649 305.598C166.612 305.901 165.329 309.778 165.329 309.778L160.663 312.51L152.055 307.991C151.386 307.743 151.386 306.652 152.055 305.552L153.513 303.178C154.008 302.362 154.081 301.547 153.705 301.189C153.11 300.602 152.578 299.924 152.092 299.209L145.034 295.506L145.043 295.497C144.75 295.368 144.566 295.075 144.566 294.617V286.11C144.557 285.166 145.327 283.91 146.28 283.314ZM178.4 287.237C189.4 281.49 198.686 267.043 198.686 256.282C198.686 246.198 190.51 243.155 180.417 249.517C169.6 256.327 160.993 271.141 162.267 281.389C163.239 289.144 170.022 291.61 178.4 287.237Z" fill="#002680"/>
<path d="M146.28 283.314L148.352 282.012C149.058 281.572 149.654 280.702 149.81 279.913C150.598 276.036 151.918 272.021 153.705 268.033C154.081 267.199 154.008 266.475 153.513 266.292L152.055 265.751C151.386 265.503 151.386 264.412 152.055 263.312L158.069 253.513C158.738 252.413 159.838 251.726 160.507 251.973L161.965 252.514C162.46 252.697 163.23 252.285 163.835 251.533C166.704 247.94 169.885 244.612 173.267 241.697C173.955 241.102 174.45 240.194 174.45 239.497V237.417C174.45 236.463 175.22 235.207 176.173 234.602L184.68 229.249C185.202 228.919 185.651 228.882 185.963 229.047L185.972 229.029L190.84 231.587C193.012 230.982 195.093 230.642 197.018 230.624C197.614 230.615 198.384 230.065 198.888 229.249L200.345 226.875C201.015 225.775 202.115 225.087 202.784 225.335L208.797 227.562L217.405 232.082C217.405 232.082 213.481 234.63 213.151 234.896C212.821 235.162 210.52 236.042 209.815 236.39C209.622 236.482 209.246 236.472 208.797 236.399C209.75 237.811 210.52 239.442 211.034 241.34C211.19 241.927 211.785 242.046 212.491 241.606L214.563 240.304C215.113 239.956 215.59 239.937 215.901 240.139V240.112L224.344 244.557C224.344 244.557 221.594 248.05 221.346 248.316C221.09 248.582 219.522 248.664 219.32 248.673C219.174 248.682 217.35 247.243 216.286 246.391V249.443C216.286 250.397 215.516 251.652 214.563 252.257L212.491 253.568C211.785 254.008 211.19 254.879 211.034 255.667C210.245 259.545 208.925 263.56 207.138 267.547C206.762 268.382 206.835 269.106 207.33 269.289L208.788 269.83L217.395 274.349L211.446 277.484L209.237 271.095C209.173 271.462 209.045 271.856 208.797 272.259L202.784 282.058C202.115 283.158 201.015 283.846 200.345 283.598L198.888 283.057C198.393 282.874 197.623 283.287 197.018 284.038C194.149 287.622 190.977 290.95 187.595 293.865C186.907 294.461 186.412 295.359 186.412 296.065V298.146C186.412 299.099 185.642 300.355 184.689 300.96L179.088 304.489C179.363 304.315 183.855 306.222 183.855 306.222L184.056 307.826L183.534 311.08L174.871 306.533C174.871 306.533 174.89 306.524 174.899 306.524C174.633 306.387 174.45 306.112 174.45 305.672V303.591C174.45 302.885 173.955 302.601 173.267 302.876C170.792 303.857 168.427 304.48 166.209 304.755C166.465 305.167 166.658 305.497 166.649 305.598C166.612 305.901 165.329 309.778 165.329 309.778L160.663 312.51L152.055 307.991C151.386 307.743 151.386 306.652 152.055 305.552L153.513 303.178C154.008 302.362 154.081 301.547 153.705 301.189C153.11 300.602 152.578 299.924 152.092 299.209L145.034 295.506L145.043 295.497C144.75 295.368 144.566 295.075 144.566 294.617V286.11C144.557 285.166 145.327 283.91 146.28 283.314ZM178.4 287.237C189.4 281.49 198.686 267.043 198.686 256.282C198.686 246.198 190.51 243.155 180.417 249.517C169.6 256.327 160.993 271.141 162.267 281.389C163.239 289.144 170.022 291.61 178.4 287.237Z" fill="url(#paint21_linear_6384_12397)"/>
<path d="M223.17 256.786L221.098 258.097C220.392 258.537 219.796 259.407 219.641 260.196C218.852 264.073 217.532 268.088 215.745 272.076C215.369 272.91 215.442 273.634 215.937 273.817L217.395 274.358C218.064 274.606 218.073 275.697 217.395 276.797L211.382 286.596C210.712 287.696 209.612 288.383 208.943 288.136L207.486 287.595C206.991 287.412 206.221 287.824 205.616 288.576C202.747 292.16 199.575 295.487 196.192 298.402C195.505 298.998 195.01 299.897 195.01 300.602V302.683C195.01 303.637 194.24 304.892 193.286 305.497L184.78 310.851C183.826 311.447 183.057 311.162 183.057 310.209V308.128C183.057 307.422 182.562 307.138 181.874 307.413C178.492 308.761 175.311 309.439 172.441 309.457C171.846 309.467 171.076 310.017 170.571 310.832L169.114 313.207C168.445 314.307 167.345 314.994 166.676 314.747L160.662 312.519C159.993 312.272 159.993 311.181 160.662 310.081L162.12 307.707C162.615 306.891 162.688 306.075 162.312 305.717C160.534 303.976 159.205 301.629 158.417 298.742C158.261 298.155 157.665 298.036 156.959 298.476L154.887 299.777C153.934 300.373 153.164 300.089 153.164 299.136V290.629C153.164 289.676 153.934 288.42 154.887 287.815L156.959 286.513C157.665 286.073 158.261 285.202 158.417 284.414C159.205 280.537 160.525 276.522 162.312 272.534C162.688 271.7 162.615 270.976 162.12 270.792L160.662 270.252C159.993 270.004 159.993 268.913 160.662 267.813L166.676 258.014C167.345 256.914 168.445 256.227 169.114 256.474L170.571 257.015C171.066 257.198 171.836 256.786 172.441 256.034C175.311 252.441 178.492 249.113 181.874 246.198C182.562 245.602 183.057 244.695 183.057 243.998V241.936C183.057 240.982 183.826 239.727 184.78 239.122L193.286 233.768C194.24 233.172 195.01 233.457 195.01 234.41V236.472C195.01 237.178 195.505 237.462 196.192 237.187C199.575 235.84 202.756 235.171 205.625 235.143C206.221 235.134 206.991 234.584 207.495 233.768L208.952 231.394C209.622 230.294 210.721 229.607 211.391 229.854L217.404 232.082C218.073 232.329 218.073 233.42 217.404 234.52L215.946 236.894C215.451 237.71 215.378 238.526 215.754 238.883C217.532 240.625 218.862 242.972 219.65 245.859C219.806 246.446 220.401 246.565 221.107 246.125L223.179 244.823C224.132 244.227 224.902 244.512 224.902 245.465V253.972C224.893 254.925 224.123 256.19 223.17 256.786ZM207.302 260.801C207.302 250.717 199.126 247.674 189.033 254.036C178.217 260.847 169.609 275.66 170.883 285.908C171.846 293.672 178.638 296.138 187.016 291.757C198.016 286 207.302 271.562 207.302 260.801Z" fill="white"/>
<path d="M136.828 348.132L231.712 288.182C232.702 287.558 233.5 286.248 233.5 285.258C233.5 284.268 232.702 283.974 231.712 284.598L136.828 344.548C135.838 345.171 135.041 346.482 135.041 347.472C135.041 348.462 135.838 348.755 136.828 348.132Z" fill="url(#paint22_linear_6384_12397)"/>
<path d="M136.828 357.344L231.712 297.394C232.702 296.771 233.5 295.46 233.5 294.47C233.5 293.48 232.702 293.187 231.712 293.81L136.828 353.76C135.838 354.383 135.041 355.694 135.041 356.684C135.041 357.674 135.838 357.967 136.828 357.344Z" fill="url(#paint23_linear_6384_12397)"/>
<path d="M179.783 339.515L231.712 306.607C232.702 305.983 233.5 304.672 233.5 303.682C233.5 302.692 232.702 302.399 231.712 303.022L179.783 335.931C178.793 336.554 177.996 337.865 177.996 338.855C177.987 339.845 178.793 340.138 179.783 339.515Z" fill="url(#paint24_linear_6384_12397)"/>
<path d="M180.186 382.837L180.186 417.597C180.186 419.375 182.148 420.457 183.669 419.485L336.285 323.317C339.549 321.255 341.547 317.652 341.547 313.812V279.042C341.547 277.264 339.576 276.182 338.054 277.154L185.439 373.34C182.175 375.402 180.186 378.996 180.186 382.837Z" stroke="url(#paint25_linear_6384_12397)" stroke-linecap="round" stroke-linejoin="round" stroke-dasharray="2 2"/>
<path d="M188.553 398.997C188.58 398.759 188.645 398.512 188.69 398.264C188.745 397.943 188.8 397.632 188.874 397.311C188.956 396.962 189.075 396.623 189.185 396.275C189.25 396.055 189.314 395.844 189.387 395.624C189.534 395.193 189.717 394.772 189.891 394.35C189.946 394.222 189.992 394.093 190.056 393.965C190.276 393.479 190.524 393.002 190.78 392.526C190.808 392.471 190.835 392.416 190.872 392.361C191.156 391.847 191.468 391.343 191.798 390.858C191.807 390.848 191.807 390.839 191.816 390.83C192.495 389.812 193.255 388.868 194.071 388.025L192.485 387.218C192.238 387.09 192.009 386.916 191.816 386.705C191.78 386.668 191.752 386.622 191.715 386.586C191.569 386.412 191.431 386.219 191.321 385.999C191.275 385.917 191.239 385.834 191.202 385.742C191.11 385.532 191.037 385.302 190.973 385.046C190.945 384.945 190.918 384.853 190.9 384.743C190.835 384.386 190.79 384.001 190.79 383.579C190.79 383.075 190.845 382.543 190.936 382.012C190.973 381.819 191.028 381.627 191.074 381.425C191.156 381.077 191.239 380.728 191.349 380.371C191.413 380.16 191.495 379.949 191.578 379.729C191.706 379.381 191.844 379.051 192 378.712C192.091 378.51 192.183 378.317 192.284 378.125C192.476 377.758 192.678 377.41 192.889 377.052C192.953 376.952 192.999 376.842 193.063 376.741C193.109 376.677 193.155 376.612 193.2 376.548C193.338 376.347 193.485 376.145 193.631 375.952C193.778 375.751 193.934 375.549 194.099 375.357C194.255 375.173 194.41 374.99 194.566 374.816C194.75 374.614 194.942 374.431 195.135 374.247C195.281 374.11 195.428 373.963 195.575 373.835C195.923 373.532 196.28 373.257 196.647 373.019C198.178 372.038 199.553 371.809 200.607 372.231H200.616L200.68 372.258C200.763 372.295 200.855 372.341 200.937 372.387L204.723 374.293L202.358 379.069L202.01 379.766L201.973 379.839L200.57 383.836C200.589 383.845 200.598 383.854 200.625 383.863V383.854L206.281 386.723C206.281 386.723 205.713 387.081 205.126 387.438C204.54 387.796 203.935 388.162 203.861 388.172C203.843 388.172 203.815 388.181 203.76 388.19C203.614 388.217 203.348 388.254 203.082 388.3C203.091 388.538 203.119 388.767 203.119 389.015V391.462L200.03 393.461L195.382 396.467L195.529 397.091L192.43 405.093L188.461 403.086L188.452 400.638C188.443 400.107 188.48 399.557 188.553 398.997Z" fill="white"/>
<path d="M200.609 375.036C197.364 377.135 194.742 381.865 194.751 385.596C194.761 388.492 196.365 389.941 198.601 389.446C195.036 392.801 192.405 398.237 192.414 402.664L192.423 405.112L208.941 394.414L208.932 391.967C208.923 387.539 206.265 385.523 202.69 386.788C204.926 384.386 206.512 380.884 206.503 377.978C206.494 374.257 203.854 372.937 200.609 375.036Z" fill="white"/>
<path d="M235.103 170.243L290.635 135.053C290.965 134.842 291.341 134.869 291.616 135.034L293.898 135.988L291.653 138.032V179.841C291.653 180.538 291.277 181.198 290.681 181.583L236.918 215.655L236.387 218.341L234.15 217.406H234.159C233.857 217.296 233.628 217.021 233.628 216.654V172.883C233.628 171.829 234.187 170.821 235.103 170.243Z" fill="#002680"/>
<path d="M235.103 170.243L290.635 135.053C290.965 134.842 291.341 134.869 291.616 135.034L293.898 135.988L291.653 138.032V179.841C291.653 180.538 291.277 181.198 290.681 181.583L236.918 215.655L236.387 218.341L234.15 217.406H234.159C233.857 217.296 233.628 217.021 233.628 216.654V172.883C233.628 171.829 234.187 170.821 235.103 170.243Z" fill="url(#paint26_linear_6384_12397)"/>
<path d="M235.947 173.855V217.608C235.947 218.268 236.662 218.634 237.23 218.277L293.376 182.701C293.981 182.316 294.348 181.656 294.348 180.959V136.748C294.348 136.033 293.578 135.63 292.954 136.024L237.423 171.215C236.506 171.793 235.947 172.792 235.947 173.855Z" fill="url(#paint27_linear_6384_12397)"/>
<path d="M292.203 142.982L238.954 176.706" stroke="white" stroke-width="0.7175" stroke-miterlimit="10" stroke-linecap="round"/>
<path d="M247.99 169.327L250.273 167.878C250.594 167.677 250.859 167.246 250.859 166.925V164.643C250.859 164.322 250.594 164.221 250.273 164.432L247.99 165.88C247.669 166.082 247.404 166.513 247.404 166.833V169.116C247.404 169.437 247.669 169.538 247.99 169.327Z" fill="white"/>
<path d="M243.764 172.003L246.046 170.555C246.367 170.353 246.633 169.922 246.633 169.602V167.319C246.633 166.998 246.367 166.897 246.046 167.108L243.764 168.557C243.443 168.758 243.177 169.189 243.177 169.51V171.792C243.177 172.113 243.443 172.214 243.764 172.003Z" fill="white"/>
<path d="M239.537 174.68L241.82 173.232C242.14 173.03 242.406 172.599 242.406 172.278V169.996C242.406 169.675 242.14 169.574 241.82 169.785L239.537 171.233C239.216 171.435 238.95 171.866 238.95 172.187V174.469C238.95 174.79 239.216 174.891 239.537 174.68Z" fill="white"/>
<path d="M276.328 157.043V169.006C276.328 169.62 276.988 169.959 277.52 169.629L291.499 160.793C292.058 160.435 292.406 159.821 292.406 159.179V146.795C292.406 146.135 291.691 145.759 291.114 146.126L277.712 154.596C276.86 155.128 276.328 156.063 276.328 157.043Z" fill="white"/>
<path d="M276.328 173.525V174.286C276.328 174.9 276.988 175.239 277.52 174.909L291.499 166.073C292.058 165.715 292.406 165.101 292.406 164.459V163.277C292.406 162.617 291.691 162.241 291.114 162.598L277.712 171.068C276.86 171.609 276.328 172.544 276.328 173.525Z" fill="white"/>
<path d="M276.328 178.365V179.126C276.328 179.74 276.988 180.079 277.52 179.749L291.499 170.922C292.058 170.564 292.406 169.95 292.406 169.308V168.126C292.406 167.466 291.691 167.09 291.114 167.457L277.712 175.927C276.86 176.449 276.328 177.384 276.328 178.365Z" fill="white"/>
<path d="M276.328 183.214V183.975C276.328 184.589 276.988 184.928 277.52 184.598L291.499 175.762C292.058 175.404 292.406 174.79 292.406 174.148V172.966C292.406 172.306 291.691 171.93 291.114 172.288L277.712 180.758C276.86 181.298 276.328 182.233 276.328 183.214Z" fill="white"/>
<path d="M276.328 188.063V188.824C276.328 189.438 276.988 189.778 277.52 189.448L291.499 180.611C292.058 180.253 292.406 179.639 292.406 178.998V177.815C292.406 177.155 291.691 176.779 291.114 177.146L277.712 185.616C276.86 186.138 276.328 187.083 276.328 188.063Z" fill="white"/>
<path d="M289.457 150.966V152.029L284.507 157.85L279.548 158.244V157.144C279.548 156.741 279.768 156.356 280.116 156.136L288.852 150.645C289.127 150.48 289.457 150.663 289.457 150.966Z" fill="url(#paint28_linear_6384_12397)"/>
<path d="M284.515 158.693L289.465 152.873V157.52C289.465 157.997 289.208 158.455 288.796 158.712L280.243 164.083C279.941 164.276 279.565 164.074 279.565 163.726V159.088L284.515 158.693Z" fill="url(#paint29_linear_6384_12397)"/>
<path d="M238.955 180.18V213.033C238.955 213.437 239.386 213.666 239.734 213.446L273.99 191.739C274.357 191.51 274.586 191.098 274.586 190.676V157.538C274.586 157.108 274.118 156.86 273.733 157.098L239.853 178.567C239.303 178.915 238.955 179.529 238.955 180.18Z" fill="white"/>
<path d="M271.287 164.624L242.43 182.912C242.192 183.068 241.889 182.912 241.889 182.628V180.886C241.889 180.593 242.045 180.308 242.302 180.153L271.158 161.865C271.397 161.709 271.699 161.865 271.699 162.149V163.891C271.699 164.184 271.543 164.459 271.287 164.624Z" fill="url(#paint30_linear_6384_12397)"/>
<path d="M271.287 169.84L242.43 188.128C242.192 188.283 241.889 188.128 241.889 187.843V186.102C241.889 185.808 242.045 185.524 242.302 185.368L271.158 167.081C271.397 166.925 271.699 167.081 271.699 167.365V169.107C271.699 169.4 271.543 169.675 271.287 169.84Z" fill="url(#paint31_linear_6384_12397)"/>
<path d="M271.287 175.056L242.43 193.343C242.192 193.499 241.889 193.343 241.889 193.059V191.318C241.889 191.024 242.045 190.74 242.302 190.584L271.158 172.297C271.397 172.141 271.699 172.297 271.699 172.581V174.323C271.699 174.616 271.543 174.891 271.287 175.056Z" fill="url(#paint32_linear_6384_12397)"/>
<path d="M271.287 180.272L242.43 198.559C242.192 198.715 241.889 198.559 241.889 198.275V196.533C241.889 196.24 242.045 195.956 242.302 195.8L271.158 177.513C271.397 177.357 271.699 177.513 271.699 177.797V179.538C271.699 179.832 271.543 180.107 271.287 180.272Z" fill="url(#paint33_linear_6384_12397)"/>
<path d="M271.287 185.488L242.43 203.775C242.192 203.931 241.889 203.775 241.889 203.491V201.749C241.889 201.456 242.045 201.172 242.302 201.016L271.158 182.728C271.397 182.573 271.699 182.728 271.699 183.013V184.754C271.699 185.048 271.543 185.323 271.287 185.488Z" fill="url(#paint34_linear_6384_12397)"/>
<path d="M271.287 190.703L242.43 208.991C242.192 209.147 241.889 208.991 241.889 208.707V206.965C241.889 206.672 242.045 206.388 242.302 206.232L271.158 187.944C271.397 187.788 271.699 187.944 271.699 188.228V189.97C271.699 190.263 271.543 190.538 271.287 190.703Z" fill="url(#paint35_linear_6384_12397)"/>
<path d="M299.021 79.6217C299.021 79.6217 308.628 80.3459 312.185 81.5925C317.006 83.2792 318.959 88.66 316.722 91.8775C314.485 95.095 296.299 94.3342 296.299 94.3342L299.021 79.6217Z" fill="#FFD1A4"/>
<path d="M286.072 78.1184C292.122 77.8617 298.383 79.2001 303.856 79.8784C304.699 79.9884 307.266 86.0659 302.334 95.6359C296.183 95.9201 287.493 96.8367 287.493 96.8367C287.493 96.8367 281.718 78.3017 286.072 78.1184Z" fill="#002680"/>
<path d="M246.368 100.632C246.469 101.026 251.309 111.448 252.427 115.115C252.885 116.591 253.408 118.085 253.949 119.561L290.386 96.5525C291.275 85.2775 288.15 77.9534 286.83 78.0542C272.63 79.1175 258.44 85.9009 252.372 92.6017C249.338 95.9475 247.816 98.0375 246.368 100.632Z" fill="#002680"/>
<path d="M246.368 100.632C246.469 101.026 251.309 111.448 252.427 115.115C252.885 116.591 253.408 118.085 253.949 119.561L290.386 96.5525C291.275 85.2775 288.15 77.9534 286.83 78.0542C272.63 79.1175 258.44 85.9009 252.372 92.6017C249.338 95.9475 247.816 98.0375 246.368 100.632Z" fill="#002680"/>
<path d="M269.853 77.385L265.242 83.985C264.527 85.1492 265.022 86.5058 265.875 87.5325C268.12 90.2458 272.988 91.2817 275.353 89.3933C276.389 88.6508 275.958 86.2492 277.406 84.1317L272.117 79.2092L269.853 77.385Z" fill="#F2BA88"/>
<path d="M288.883 71.9492C288.883 71.9492 288.306 77.4034 286.197 82.0509C284.08 86.7075 283.521 87.7434 281.376 88.2017C279.231 88.66 277.434 88.385 274.565 85.58C271.696 82.7659 270.605 78.925 270.605 78.925C270.605 78.925 270.073 79.1359 269.166 77.5592C267.745 75.0934 267.607 73.975 268.194 71.1334C268.781 68.3009 270.229 64.8817 273.199 61.6367C276.169 58.3917 282.696 60.9767 285.446 63.1859C288.186 65.395 288.947 68.6584 288.883 71.9492Z" fill="#FFD1A4"/>
<path d="M269.294 61.7925C270.65 60.3717 272.823 60.4725 272.823 60.4725C272.823 60.4725 279.258 56.2467 284.584 60.3717C287.48 62.6175 289.011 64.9367 290.203 67.43C291.055 69.2084 293.696 76.2759 288.214 77.8709C286.161 78.4667 283.282 78.7325 280.706 78.0359C279.652 77.7517 278.03 76.12 277.672 75.2034C276.71 75.8909 275.839 75.6984 275.197 75.8909C274.235 76.1934 273.3 77.605 273.3 77.605L272.594 76.8809C272.594 76.8809 273.025 75.0017 272.896 73.6542C272.75 72.2975 270.871 70.8859 269.303 72.49C268.029 73.8009 268.982 76.5142 269.422 77.99L268.707 79.0075C268.377 78.3475 266.672 73.9934 266.947 70.015C267.305 65.0192 268.331 62.81 269.294 61.7925Z" fill="#191968"/>
<path d="M289.526 123.723C289.59 123.622 289.911 123.393 290.324 123.136C289.975 123.273 289.719 123.347 289.655 123.292C289.398 123.099 289.572 122.632 289.755 122.311C289.939 121.99 291.259 121.009 291.259 121.009C291.543 120.707 291.8 120.45 291.937 120.313C292.414 119.873 293.486 117.773 293.404 117.627C293.312 117.48 292.78 118.305 291.745 118.837C290.709 119.35 289.957 119.112 290.095 118.69C290.241 118.259 291.369 116.087 292.221 115.143C293.074 114.198 295.265 113.502 296.163 112.924C296.814 112.512 296.942 112.173 297.3 111.421C298.61 108.213 300.645 103.253 302.616 98.5417C305.265 92.1892 305.174 90.3467 306.732 88.0092C311.242 81.2717 314.56 82.8667 314.56 82.8667C314.56 82.8667 319.318 86.2584 317.668 92.3909C316.953 95.04 315.34 97.5059 312.69 101.338C308.73 107.058 303.799 112.704 301.241 115.537C299.82 117.269 299.298 120.551 298.702 121.623C298.381 122.21 295.054 125.483 292.936 125.464C292.735 125.464 292.79 125.107 292.863 124.878C292.065 125.244 291.332 125.519 290.993 125.483C290.535 125.428 290.837 124.731 291.259 124.355C290.315 124.786 289.545 125.088 289.435 125.015C289.16 124.786 289.105 124.41 289.526 123.723Z" fill="#FFD1A4"/>
<path d="M242.043 110.981L254.94 116.582L251.375 126.958C251.375 126.958 257.81 139.379 261.641 146.96C261.641 146.96 266.289 149.463 267.215 149.893C268.141 150.324 269.36 151.846 269.708 152.873C270.056 153.89 270.359 156.777 270.341 157.703C270.341 157.703 270.469 159.665 270.23 159.958C270.001 160.233 269.406 160.206 269.076 159.546C269.204 160.472 269.241 161.572 269.048 161.7C268.397 162.122 267.801 161.049 267.801 161.04C267.774 161.205 267.737 161.343 267.691 161.398C267.453 161.691 266.408 161.7 266.087 160.921C264.547 161.581 263.649 159.363 263.649 159.363C262.75 158.464 262.21 157.657 261.66 157.318C260.743 156.75 257.443 156.411 256.499 151.983C255.857 150.581 254.785 149.041 253.281 147.519C247.873 142.01 239.825 134.081 238.202 126.619C237.606 121.926 242.043 110.981 242.043 110.981Z" fill="#FFD1A4"/>
<path d="M251.529 93.8575C251.529 93.8575 249.183 95.975 246.369 100.632C241.446 108.781 239.283 116.398 239.283 116.398C239.283 116.398 238.256 122.283 254.994 124.318L266.297 102.823L251.529 93.8575Z" fill="#002680"/>
<path d="M286.072 78.1184C292.122 77.8617 298.383 79.2001 303.856 79.8784C304.699 79.9884 307.266 86.0659 302.334 95.6359C296.183 95.9201 287.493 96.8367 287.493 96.8367C287.493 96.8367 281.718 78.3017 286.072 78.1184Z" fill="url(#paint36_linear_6384_12397)"/>
<path d="M251.529 93.8575C251.529 93.8575 249.183 95.975 246.369 100.632C241.446 108.781 239.283 116.398 239.283 116.398C239.283 116.398 238.256 122.283 254.994 124.318L266.297 102.823L251.529 93.8575Z" fill="url(#paint37_linear_6384_12397)"/>
<path d="M304.211 94.3159C304.211 94.3159 306.008 89.9617 307.199 88.5225C307.199 88.5225 304.862 90.7592 303.267 94.2884L304.211 94.3159Z" fill="#F2BA88"/>
<path opacity="0.33" d="M287.499 96.8367L260.604 113.658L259.266 116.197L290.387 96.5433L287.499 96.8367Z" fill="url(#paint38_linear_6384_12397)"/>
<path d="M125.796 409.878L162.847 386.595C163.636 386.1 164.516 386.109 165.203 386.467L165.221 386.476H165.231L168.641 388.236C168.641 388.236 167.366 390.152 167.275 390.445C167.256 390.491 167.192 390.546 167.119 390.601V423.078C167.119 424.866 166.166 426.562 164.616 427.543L126.144 451.715L126.584 452.742L126.529 453.319L123.101 451.559C122.459 451.22 122.001 450.56 122.001 449.717V416.662C122.001 413.93 123.44 411.354 125.796 409.878Z" fill="#F6F9FF"/>
<path d="M125.336 418.367V451.422C125.336 453.108 127.16 454.071 128.627 453.154L167.255 428.881C168.804 427.909 169.758 426.204 169.758 424.417V390.179C169.758 388.346 167.778 387.31 166.192 388.3L129.14 411.583C126.784 413.068 125.336 415.653 125.336 418.367Z" fill="url(#paint39_linear_6384_12397)"/>
<path d="M152.312 407.816L141.459 423.802C141.294 424.041 141.413 424.362 141.688 424.417L152.541 426.736C152.798 426.791 153.055 426.58 153.055 426.314V408.008C153.046 407.614 152.541 407.477 152.312 407.816Z" fill="#FFFFF9"/>
<path d="M284.364 520.868C284.364 520.868 284.492 523.563 284.529 524.04C284.565 524.517 284.822 524.948 284.749 525.378C284.629 526.066 278.442 538.358 275.426 538.047C273.208 537.818 270.027 535.489 273.584 534.27C275.325 533.253 276.581 523.463 276.691 523.188C276.856 522.738 276.691 518.733 276.994 520.098L284.364 520.868Z" fill="#F4CCB0"/>
<path d="M297.364 515.552C297.364 515.552 297.492 518.247 297.529 518.723C297.565 519.2 297.822 519.631 297.749 520.062C297.629 520.749 291.442 533.042 288.426 532.73C286.208 532.501 283.027 530.172 286.584 528.953C288.325 527.936 289.581 518.146 289.691 517.871C289.856 517.422 289.691 513.416 289.994 514.782L297.364 515.552Z" fill="#F4CCB0"/>
<path d="M300.453 489.931C300.884 498.932 297.95 516.862 297.95 516.862C297.95 516.862 296.227 519.677 289.554 515.946C289.554 515.946 288.536 489.005 287.409 481.397C287.079 479.16 286.703 477.162 286.162 475.218C286.162 475.209 286.162 475.209 286.162 475.2C284.915 470.736 283.788 466.519 283.485 460.542C283.274 456.28 284.035 447.59 284.86 439.936C285.694 432.199 286.584 425.517 286.584 425.517C286.584 425.517 293.385 425.737 298.244 420.942C298.244 420.942 306.191 431.732 301.14 443.071C299.976 445.683 299.334 448.507 299.114 451.357C298.821 455.18 298.454 460.405 298.262 464.97C297.959 472.367 297.419 474.476 297.73 475.337C298.069 476.199 300.031 480.929 300.453 489.931Z" fill="#002680"/>
<path opacity="0.95" d="M290.304 450.505C287.994 459.305 286.536 468.976 286.169 475.209C284.923 470.745 283.795 466.528 283.493 460.552C283.282 456.289 284.043 447.599 284.868 439.945C287.416 437.947 292.027 434.289 292.027 434.289C292.027 434.289 293.934 441.357 290.304 450.505Z" fill="url(#paint40_linear_6384_12397)"/>
<path d="M272.017 424.6C272.017 424.6 269.12 435.783 268.589 447.471C268.057 459.158 270.651 475.878 271.183 479.847C271.715 483.817 273.016 490.004 274.116 499.858C275.152 509.144 275.959 521.006 275.959 521.006C275.959 521.006 282.687 524.837 285.318 521.51C285.318 521.51 286.94 495.211 286.198 487.062C285.446 478.912 283.769 478.344 283.98 475.658C284.19 472.982 287.124 451.082 288.416 449.157C289.7 447.223 295.823 438.57 289.388 425.058C289.388 425.067 281.99 426.919 272.017 424.6Z" fill="#002680"/>
<path d="M235.149 391.242L250.567 415.589C251.282 416.717 252.767 417.047 253.886 416.341L283.833 397.439C284.979 396.715 285.3 395.202 284.557 394.075L278.022 384.157L268.69 370.003C267.966 368.903 266.499 368.592 265.39 369.288L235.892 387.915C234.764 388.621 234.434 390.115 235.149 391.242Z" fill="url(#paint41_linear_6384_12397)"/>
<path d="M237.568 391.389L251.474 413.352C252.116 414.37 253.454 414.663 254.472 414.031L281.486 396.981C282.513 396.33 282.815 394.964 282.137 393.947L276.243 385L267.828 372.231C267.177 371.241 265.857 370.957 264.848 371.589L238.238 388.392C237.229 389.033 236.927 390.381 237.568 391.389Z" fill="url(#paint42_linear_6384_12397)"/>
<path d="M249.66 402.417C249.66 402.417 248.982 401.665 248.844 401.188C248.707 400.712 248.615 399.997 248.028 399.263C247.442 398.53 245.764 395.642 245.425 395.844C245.086 396.037 244.747 396.88 245.013 397.998C245.279 399.117 245.746 399.85 245.755 400.134C245.774 400.418 243.839 400.464 242.657 400.079C242.006 399.868 239.815 398.392 239.329 397.879C239.173 398.255 239.073 398.759 239.21 399.144C239.54 400.061 240.457 400.858 240.649 401.592C240.869 402.444 243.005 405.827 243.005 405.827L249.66 402.417Z" fill="#F4CCB0"/>
<path d="M282.12 390.802L278.646 387.438C278.178 386.989 277.647 386.622 277.06 386.366C276.528 386.127 275.859 385.788 275.419 385.431C274.594 384.762 274.237 383.066 273.916 382.424C273.595 381.782 271.615 380.059 271.422 379.573C271.239 379.097 271.175 378.354 271.826 378.418C272.357 378.464 275.456 380.252 275.593 380.462L274.007 378.052C274.007 378.052 276.574 379.097 278.151 379.922C279.727 380.747 280.122 382.947 280.736 383.478C281.35 384.01 285.539 387.282 285.539 387.282L282.12 390.802Z" fill="#F4CCB0"/>
<path d="M275.19 356.382C275.19 356.382 274.09 360.497 276.831 363.064C279.572 365.631 278.371 357.454 278.371 357.454L275.19 356.382Z" fill="#300E70"/>
<path d="M292.047 386.842L282.541 385.742L281.111 386.237C281.111 386.237 281.817 382.507 281.377 378.565C278.563 377.309 277.435 376.438 277.435 376.438C275.51 375.036 275.694 368.509 275.849 365.2C276.014 361.753 276.326 357.894 276.326 357.894C277.261 356.785 285.85 357.839 288.701 359.828C291.561 361.799 291.387 373.312 291.277 375.467C291.158 377.621 291.277 382.736 291.277 382.736L292.047 386.842Z" fill="#F4CCB0"/>
<path d="M297.604 412.528C297.182 418.513 300.234 424.417 300.234 424.417C300.234 424.417 293.708 429.541 283.441 430.907C275.851 431.924 271.039 428.936 271.039 428.936C271.039 428.936 272.239 422.932 272.734 418.009C272.899 416.387 272.991 414.892 272.936 413.756C272.844 411.822 272.349 408.192 271.882 404.415C271.259 399.272 270.699 393.818 271.369 391.811C272.514 388.309 281.159 382.837 281.159 382.837C281.159 382.837 291.517 383.533 291.279 380.573C291.279 380.573 296.879 379.747 299.464 380.957C302.04 382.158 302.471 389.235 301.674 395.166C300.904 401.087 298.025 406.523 297.604 412.528Z" fill="#002680"/>
<path d="M297.604 412.528C297.182 418.513 300.234 424.417 300.234 424.417C300.234 424.417 293.708 429.541 283.441 430.907C275.851 431.924 271.039 428.936 271.039 428.936C271.039 428.936 272.239 422.932 272.734 418.009C272.899 416.387 272.991 414.892 272.936 413.756C272.844 411.822 272.349 408.192 271.882 404.415C271.259 399.272 270.699 393.818 271.369 391.811C272.514 388.309 281.159 382.837 281.159 382.837C281.159 382.837 291.517 383.533 291.279 380.573C291.279 380.573 296.879 379.747 299.464 380.957C302.04 382.158 302.471 389.235 301.674 395.166C300.904 401.087 298.025 406.523 297.604 412.528Z" fill="url(#paint43_linear_6384_12397)"/>
<path opacity="0.33" d="M281.129 398.539C281.129 398.539 279.525 406.257 277.334 412.582C277.334 412.582 276.472 412.637 275.216 412.582L272.751 418C272.916 416.377 273.007 414.883 272.952 413.747C272.861 411.812 272.366 408.182 271.898 404.406L272.301 403.04L281.129 398.539Z" fill="url(#paint44_linear_6384_12397)"/>
<path d="M243.015 405.817C243.015 405.817 243.684 406.532 245.123 406.734C245.196 406.743 245.251 406.762 245.316 406.762C246.581 406.927 246.828 406.752 248.084 406.872C249.294 406.982 261.33 417.972 263.145 419.622C263.291 419.769 263.374 419.833 263.374 419.833V419.824C263.484 419.907 263.603 419.98 263.695 420.053C267.16 422.464 268.196 421.291 270.111 418.358C270.652 417.533 271.468 416.075 272.321 414.498C272.486 414.177 272.669 413.838 272.834 413.508C272.861 413.472 272.88 413.426 272.907 413.38C272.907 413.38 272.916 413.38 272.907 413.371C273.375 412.509 273.815 411.657 274.209 410.887C275.08 409.218 275.703 407.962 275.703 407.962C275.621 408.008 274.016 407.458 272.183 406.817C269.662 405.909 266.72 404.809 266.701 404.8C266.591 405.048 266.381 405.671 266.106 406.432C265.565 407.981 264.831 410.08 264.602 410.63C260.202 408.1 251.842 403.645 250.486 402.857C250.174 402.673 249.826 402.435 249.459 402.178C248.286 401.353 246.938 400.272 246.131 399.74C245.866 401.188 244.72 403.187 243.886 404.497C243.4 405.295 243.015 405.817 243.015 405.817Z" fill="#F4CCB0"/>
<path d="M271.375 391.792L265.646 405.982C265.646 405.982 270.504 411.024 275.794 411.024C275.794 411.024 281.321 400.629 281.633 395.908L271.375 391.792Z" fill="#002680"/>
<path d="M271.375 391.792L265.646 405.982C265.646 405.982 270.504 411.024 275.794 411.024C275.794 411.024 281.321 400.629 281.633 395.908L271.375 391.792Z" fill="url(#paint45_linear_6384_12397)"/>
<path d="M291.242 378.803L291.746 380.481C291.746 380.481 291.746 382.213 289.821 382.983C286.539 384.294 281.663 383.616 280.489 383.258L281.204 380.985C281.204 380.985 287.914 381.966 291.242 378.803Z" fill="#002680"/>
<path d="M291.242 378.803L291.746 380.481C291.746 380.481 291.746 382.213 289.821 382.983C286.539 384.294 281.663 383.616 280.489 383.258L281.204 380.985C281.204 380.985 287.914 381.966 291.242 378.803Z" fill="url(#paint46_linear_6384_12397)"/>
<path d="M287.316 373.936C287.316 373.936 283.823 379.344 286.848 384.166C289.864 388.987 297.527 386.604 297.527 381.636C297.527 375.173 293.467 373.285 293.467 373.285L287.316 373.936Z" fill="#00153F"/>
<path d="M297.583 361.139C296.703 354.97 292.047 349.672 281.67 351.413C279.488 351.78 274.694 353.668 275.171 357.582C275.253 358.279 275.464 358.811 275.739 359.242C275.143 361.414 275.061 365.567 281.881 368.912C281.762 370.113 282.522 370.333 282.797 372.432C283.21 375.705 286.372 377.832 290.598 377.208C293.926 376.713 299.169 372.222 297.583 361.139Z" fill="#00153F"/>
<path d="M286.721 528.092C286.537 529.714 284.924 532.941 284.649 534.077C284.374 535.214 283.806 542.584 283.806 542.584H282.577L282.284 534.261C282.284 534.261 282.284 534.27 282.275 534.297C282.165 534.6 281.294 537.084 280.891 538.523C280.487 539.962 276.885 541.328 275.666 541.292C274.447 541.246 269.047 537.588 267.828 535.462C266.6 533.335 273.576 534.279 273.576 534.279C273.576 534.279 271.651 535.269 272.439 536.167C273.227 537.075 275.079 536.644 276.335 534.985C277.875 532.968 280.432 521.556 284.842 524.471C284.851 524.462 286.95 526.011 286.721 528.092Z" fill="#002680"/>
<path d="M282.293 534.27C282.293 534.27 282.293 534.279 282.284 534.307C282.174 534.609 281.303 537.093 280.9 538.532C280.496 539.972 276.894 541.338 275.675 541.301C276.261 541.228 277.114 539.862 278.25 537.671C279.992 534.307 281.055 533.033 281.615 533.298C282.174 533.555 282.293 534.27 282.293 534.27Z" fill="url(#paint47_linear_6384_12397)"/>
<path d="M299.721 522.775C299.537 524.397 297.924 527.624 297.649 528.761C297.374 529.898 296.806 537.267 296.806 537.267H295.577L295.284 528.944C295.284 528.944 295.284 528.953 295.275 528.981C295.165 529.283 294.294 531.767 293.891 533.207C293.487 534.646 289.885 536.012 288.666 535.975C287.447 535.929 282.047 532.272 280.828 530.145C279.6 528.018 286.576 528.962 286.576 528.962C286.576 528.962 284.651 529.952 285.439 530.851C286.227 531.758 288.079 531.328 289.335 529.668C290.875 527.652 293.432 516.239 297.842 519.154C297.851 519.154 299.95 520.694 299.721 522.775Z" fill="#002680"/>
<path d="M295.293 528.953C295.293 528.953 295.293 528.963 295.284 528.99C295.174 529.293 294.303 531.777 293.9 533.216C293.496 534.655 289.894 536.021 288.675 535.984C289.261 535.911 290.114 534.545 291.25 532.354C292.992 528.99 294.055 527.716 294.615 527.982C295.174 528.238 295.293 528.953 295.293 528.953Z" fill="url(#paint48_linear_6384_12397)"/>
<path d="M194.801 123.053L217.25 108.946C217.727 108.643 218.259 108.653 218.68 108.863L218.689 108.873C218.689 108.873 218.689 108.873 218.699 108.873L221.109 110.11C221.109 110.11 220.339 111.274 220.275 111.448C220.266 111.476 220.229 111.513 220.174 111.54V131.212C220.174 132.293 219.597 133.32 218.662 133.916L195.36 148.555L195.626 149.178L195.589 149.527L193.169 148.289C192.784 148.088 192.5 147.684 192.5 147.171V127.151C192.5 125.51 193.38 123.943 194.801 123.053Z" fill="#002680"/>
<path d="M194.875 128.361V148.381C194.875 149.408 195.984 149.985 196.864 149.426L220.257 134.723C221.192 134.136 221.77 133.1 221.77 132.018V111.283C221.77 110.174 220.569 109.542 219.606 110.147L197.166 124.245C195.745 125.162 194.875 126.72 194.875 128.361Z" fill="#002680"/>
<path d="M194.875 128.361V148.381C194.875 149.408 195.984 149.985 196.864 149.426L220.257 134.723C221.192 134.136 221.77 133.1 221.77 132.018V111.283C221.77 110.174 220.569 109.542 219.606 110.147L197.166 124.245C195.745 125.162 194.875 126.72 194.875 128.361Z" fill="url(#paint49_linear_6384_12397)"/>
<path d="M201.879 140.928L205.409 135.025C205.647 134.631 205.509 134.154 205.152 133.87C204.409 133.283 203.969 132.257 203.969 130.836C203.969 127.078 207.031 121.962 210.789 119.432C214.548 116.902 217.609 117.902 217.609 121.669C217.609 125.428 214.548 130.543 210.789 133.073C209.928 133.65 209.112 134.035 208.36 134.255C207.563 134.484 206.903 135.062 206.472 135.777L203.144 141.341C202.97 141.634 202.741 141.872 202.521 142.019C202.292 142.175 202.063 142.239 201.898 142.184C201.531 142.065 201.531 141.506 201.879 140.928ZM215.822 122.861C215.822 120.083 213.558 119.341 210.78 121.211C208.003 123.081 205.739 126.867 205.739 129.644C205.739 132.422 208.003 133.164 210.78 131.294C213.558 129.424 215.822 125.638 215.822 122.861Z" fill="white"/>
<path d="M116.391 175.404L116.391 191.446C116.391 192.262 117.281 192.729 117.986 192.289L187.91 148.225C188.661 147.748 189.129 146.923 189.129 146.062V129.433C189.129 128.544 188.166 128.04 187.396 128.526L118.234 172.113C117.088 172.828 116.391 174.084 116.391 175.404Z" fill="#002680"/>
<path d="M116.391 175.404L116.391 191.446C116.391 192.262 117.281 192.729 117.986 192.289L187.91 148.225C188.661 147.748 189.129 146.923 189.129 146.062V129.433C189.129 128.544 188.166 128.04 187.396 128.526L118.234 172.113C117.088 172.828 116.391 174.084 116.391 175.404Z" fill="url(#paint50_linear_6384_12397)"/>
<path d="M121.279 176.385L185.125 135.676C185.647 135.337 186.078 134.64 186.078 134.118C186.078 133.595 185.656 133.439 185.125 133.769L121.279 174.478C120.756 174.818 120.326 175.514 120.326 176.037C120.326 176.559 120.747 176.715 121.279 176.385Z" fill="white"/>
<path d="M140.199 169.272L185.125 140.626C185.647 140.287 186.078 139.59 186.078 139.068C186.078 138.545 185.656 138.389 185.125 138.719L140.199 167.356C139.676 167.695 139.246 168.392 139.246 168.914C139.246 169.455 139.676 169.611 140.199 169.272Z" fill="white"/>
<path d="M163.611 159.39L185.125 145.677C185.647 145.338 186.078 144.641 186.078 144.118C186.078 143.596 185.656 143.44 185.125 143.77L163.611 157.483C163.088 157.823 162.657 158.519 162.657 159.042C162.657 159.564 163.088 159.72 163.611 159.39Z" fill="white"/>
<path d="M152.032 166.76L159.961 161.691C160.483 161.352 160.914 160.655 160.914 160.133C160.914 159.61 160.492 159.454 159.961 159.784L152.032 164.853C151.509 165.193 151.078 165.889 151.078 166.412C151.078 166.943 151.5 167.09 152.032 166.76Z" fill="white"/>
<path d="M399.675 73.1775L406.825 68.7042V65.3492C406.825 64.7075 407.54 63.8917 408.063 63.91L416.477 64.3317C416.945 64.3592 416.945 65.0467 416.477 65.6517L408.063 76.5875C407.531 77.275 406.825 77.3392 406.825 76.7067V73.3517L399.675 77.825C399.226 78.1092 398.859 77.9717 398.859 77.5225V74.5067C398.859 74.0484 399.217 73.4617 399.675 73.1775Z" fill="#002680"/>
<path d="M392.204 82.4817L385.054 86.955V90.31C385.054 90.9517 384.339 91.7675 383.816 91.7492L375.401 91.3275C374.934 91.3 374.934 90.6125 375.401 90.0075L383.816 79.0717C384.348 78.3842 385.054 78.32 385.054 78.9525V82.3075L392.204 77.8342C392.653 77.55 393.02 77.6875 393.02 78.1367V81.1525C393.02 81.6108 392.653 82.2067 392.204 82.4817Z" fill="#002680"/>
<path d="M350.569 104.903L359.048 92.0517C359.451 91.4375 360.056 91.0617 360.459 91.1717L368.939 93.4267C369.287 93.5184 369.067 94.2425 368.599 94.5359L366.409 95.9017V104.097C366.409 104.812 365.831 105.756 365.116 106.205L362.384 107.91C362.018 108.139 361.724 108.029 361.724 107.663V103.583C361.724 103.226 361.44 103.125 361.083 103.345L358.489 104.968C358.131 105.188 357.847 105.655 357.847 106.003V110.083C357.847 110.449 357.554 110.935 357.187 111.164L354.419 112.888C353.694 113.337 353.117 113.117 353.117 112.402V104.207L350.926 105.573C350.44 105.875 350.22 105.435 350.569 104.903Z" fill="#002680"/>
</g>
<defs>
<linearGradient id="paint0_linear_6384_12397" x1="451.709" y1="166.398" x2="-22.0049" y2="379.596" gradientUnits="userSpaceOnUse">
<stop stop-color="#10BEF0"/>
<stop offset="1" stop-color="#10BEF0" stop-opacity="0"/>
</linearGradient>
<linearGradient id="paint1_linear_6384_12397" x1="424.684" y1="27.6091" x2="100.848" y2="494.665" gradientUnits="userSpaceOnUse">
<stop stop-color="#00A7FF"/>
<stop offset="0.5766" stop-color="#005AFC"/>
<stop offset="1" stop-color="#001EF9"/>
</linearGradient>
<linearGradient id="paint2_linear_6384_12397" x1="140.609" y1="209.43" x2="150.492" y2="201.778" gradientUnits="userSpaceOnUse">
<stop stop-color="#10BEF0"/>
<stop offset="1" stop-color="#10BEF0" stop-opacity="0"/>
</linearGradient>
<linearGradient id="paint3_linear_6384_12397" x1="123.518" y1="220.292" x2="133.401" y2="212.64" gradientUnits="userSpaceOnUse">
<stop stop-color="#10BEF0"/>
<stop offset="1" stop-color="#10BEF0" stop-opacity="0"/>
</linearGradient>
<linearGradient id="paint4_linear_6384_12397" x1="106.774" y1="230.885" x2="116.657" y2="223.233" gradientUnits="userSpaceOnUse">
<stop stop-color="#10BEF0"/>
<stop offset="1" stop-color="#10BEF0" stop-opacity="0"/>
</linearGradient>
<linearGradient id="paint5_linear_6384_12397" x1="270.838" y1="284.428" x2="335.533" y2="191.533" gradientUnits="userSpaceOnUse">
<stop stop-color="#00A7E5"/>
<stop offset="1" stop-color="#06C9FD"/>
</linearGradient>
<linearGradient id="paint6_linear_6384_12397" x1="338.917" y1="177.355" x2="263.773" y2="177.355" gradientUnits="userSpaceOnUse">
<stop stop-color="#170960"/>
<stop offset="1" stop-color="#24188B"/>
</linearGradient>
<linearGradient id="paint7_linear_6384_12397" x1="338.917" y1="177.355" x2="263.773" y2="177.355" gradientUnits="userSpaceOnUse">
<stop stop-color="#10BEF0"/>
<stop offset="1" stop-color="#10BEF0" stop-opacity="0"/>
</linearGradient>
<linearGradient id="paint8_linear_6384_12397" x1="422.725" y1="140.436" x2="346.721" y2="140.436" gradientUnits="userSpaceOnUse">
<stop stop-color="#170960"/>
<stop offset="1" stop-color="#24188B"/>
</linearGradient>
<linearGradient id="paint9_linear_6384_12397" x1="418.238" y1="109.647" x2="290.156" y2="215.159" gradientUnits="userSpaceOnUse">
<stop stop-color="#10BEF0"/>
<stop offset="1" stop-color="#10BEF0" stop-opacity="0"/>
</linearGradient>
<linearGradient id="paint10_linear_6384_12397" x1="432.812" y1="114.757" x2="360.639" y2="185.755" gradientUnits="userSpaceOnUse">
<stop stop-color="#06C9FD"/>
<stop offset="0.2536" stop-color="#04AEF1"/>
<stop offset="1" stop-color="#0060D0"/>
</linearGradient>
<linearGradient id="paint11_linear_6384_12397" x1="429.896" y1="111.792" x2="357.722" y2="182.789" gradientUnits="userSpaceOnUse">
<stop stop-color="#06C9FD"/>
<stop offset="0.2536" stop-color="#04AEF1"/>
<stop offset="1" stop-color="#0060D0"/>
</linearGradient>
<linearGradient id="paint12_linear_6384_12397" x1="410.947" y1="92.5288" x2="338.774" y2="163.526" gradientUnits="userSpaceOnUse">
<stop stop-color="#06C9FD"/>
<stop offset="0.2536" stop-color="#04AEF1"/>
<stop offset="1" stop-color="#0060D0"/>
</linearGradient>
<linearGradient id="paint13_linear_6384_12397" x1="432.843" y1="252.677" x2="419.786" y2="257.235" gradientUnits="userSpaceOnUse">
<stop stop-color="#170960"/>
<stop offset="1" stop-color="#24188B"/>
</linearGradient>
<linearGradient id="paint14_linear_6384_12397" x1="418.087" y1="231.913" x2="396.454" y2="235.158" gradientUnits="userSpaceOnUse">
<stop stop-color="#170960"/>
<stop offset="1" stop-color="#24188B"/>
</linearGradient>
<linearGradient id="paint15_linear_6384_12397" x1="425.647" y1="265.477" x2="404.448" y2="270.873" gradientUnits="userSpaceOnUse">
<stop stop-color="#170960"/>
<stop offset="1" stop-color="#24188B"/>
</linearGradient>
<linearGradient id="paint16_linear_6384_12397" x1="418.141" y1="235.848" x2="416.51" y2="176.838" gradientUnits="userSpaceOnUse">
<stop stop-color="#10BEF0"/>
<stop offset="1" stop-color="#10BEF0" stop-opacity="0"/>
</linearGradient>
<linearGradient id="paint17_linear_6384_12397" x1="406.822" y1="197.82" x2="399.22" y2="197.82" gradientUnits="userSpaceOnUse">
<stop stop-color="#00A7E5"/>
<stop offset="1" stop-color="#06C9FD" stop-opacity="0"/>
</linearGradient>
<linearGradient id="paint18_linear_6384_12397" x1="416.824" y1="167.97" x2="406.706" y2="167.97" gradientUnits="userSpaceOnUse">
<stop stop-color="#00A7E5"/>
<stop offset="1" stop-color="#06C9FD" stop-opacity="0"/>
</linearGradient>
<linearGradient id="paint19_linear_6384_12397" x1="384.595" y1="200.262" x2="406.35" y2="182.858" gradientUnits="userSpaceOnUse">
<stop stop-color="#10BEF0"/>
<stop offset="1" stop-color="#10BEF0" stop-opacity="0"/>
</linearGradient>
<linearGradient id="paint20_linear_6384_12397" x1="250.637" y1="283.759" x2="117.904" y2="283.759" gradientUnits="userSpaceOnUse">
<stop stop-color="white"/>
<stop offset="1" stop-color="white"/>
</linearGradient>
<linearGradient id="paint21_linear_6384_12397" x1="224.345" y1="268.91" x2="144.556" y2="268.91" gradientUnits="userSpaceOnUse">
<stop stop-color="#10BEF0"/>
<stop offset="1" stop-color="#10BEF0" stop-opacity="0"/>
</linearGradient>
<linearGradient id="paint22_linear_6384_12397" x1="233.501" y1="285.258" x2="135.037" y2="285.258" gradientUnits="userSpaceOnUse">
<stop stop-color="white"/>
<stop offset="1" stop-color="white"/>
</linearGradient>
<linearGradient id="paint23_linear_6384_12397" x1="233.501" y1="294.469" x2="135.037" y2="294.469" gradientUnits="userSpaceOnUse">
<stop stop-color="white"/>
<stop offset="1" stop-color="white"/>
</linearGradient>
<linearGradient id="paint24_linear_6384_12397" x1="233.501" y1="303.732" x2="177.991" y2="303.732" gradientUnits="userSpaceOnUse">
<stop stop-color="white"/>
<stop offset="1" stop-color="white"/>
</linearGradient>
<linearGradient id="paint25_linear_6384_12397" x1="342.004" y1="348.326" x2="179.728" y2="348.326" gradientUnits="userSpaceOnUse">
<stop stop-color="white"/>
<stop offset="1" stop-color="white"/>
</linearGradient>
<linearGradient id="paint26_linear_6384_12397" x1="280.906" y1="158.42" x2="149.324" y2="286.034" gradientUnits="userSpaceOnUse">
<stop stop-color="#10BEF0"/>
<stop offset="1" stop-color="#10BEF0" stop-opacity="0"/>
</linearGradient>
<linearGradient id="paint27_linear_6384_12397" x1="294.349" y1="175.504" x2="235.944" y2="175.504" gradientUnits="userSpaceOnUse">
<stop stop-color="#06C9FD"/>
<stop offset="0.2536" stop-color="#04AEF1"/>
<stop offset="1" stop-color="#0060D0"/>
</linearGradient>
<linearGradient id="paint28_linear_6384_12397" x1="287.328" y1="150.4" x2="278.177" y2="163.924" gradientUnits="userSpaceOnUse">
<stop stop-color="#06D8FD"/>
<stop offset="0.3443" stop-color="#04AEED"/>
<stop offset="1" stop-color="#0060D0"/>
</linearGradient>
<linearGradient id="paint29_linear_6384_12397" x1="289.289" y1="151.728" x2="280.138" y2="165.251" gradientUnits="userSpaceOnUse">
<stop stop-color="#06D8FD"/>
<stop offset="0.3443" stop-color="#04AEED"/>
<stop offset="1" stop-color="#0060D0"/>
</linearGradient>
<linearGradient id="paint30_linear_6384_12397" x1="265.506" y1="158.796" x2="237.593" y2="204.668" gradientUnits="userSpaceOnUse">
<stop stop-color="#06D8FD"/>
<stop offset="0.3443" stop-color="#04AEED"/>
<stop offset="1" stop-color="#0060D0"/>
</linearGradient>
<linearGradient id="paint31_linear_6384_12397" x1="267.91" y1="160.259" x2="239.997" y2="206.131" gradientUnits="userSpaceOnUse">
<stop stop-color="#06D8FD"/>
<stop offset="0.3443" stop-color="#04AEED"/>
<stop offset="1" stop-color="#0060D0"/>
</linearGradient>
<linearGradient id="paint32_linear_6384_12397" x1="270.314" y1="161.722" x2="242.401" y2="207.594" gradientUnits="userSpaceOnUse">
<stop stop-color="#06D8FD"/>
<stop offset="0.3443" stop-color="#04AEED"/>
<stop offset="1" stop-color="#0060D0"/>
</linearGradient>
<linearGradient id="paint33_linear_6384_12397" x1="272.718" y1="163.185" x2="244.805" y2="209.057" gradientUnits="userSpaceOnUse">
<stop stop-color="#06D8FD"/>
<stop offset="0.3443" stop-color="#04AEED"/>
<stop offset="1" stop-color="#0060D0"/>
</linearGradient>
<linearGradient id="paint34_linear_6384_12397" x1="275.122" y1="164.647" x2="247.209" y2="210.519" gradientUnits="userSpaceOnUse">
<stop stop-color="#06D8FD"/>
<stop offset="0.3443" stop-color="#04AEED"/>
<stop offset="1" stop-color="#0060D0"/>
</linearGradient>
<linearGradient id="paint35_linear_6384_12397" x1="277.526" y1="166.11" x2="249.613" y2="211.982" gradientUnits="userSpaceOnUse">
<stop stop-color="#06D8FD"/>
<stop offset="0.3443" stop-color="#04AEED"/>
<stop offset="1" stop-color="#0060D0"/>
</linearGradient>
<linearGradient id="paint36_linear_6384_12397" x1="309.49" y1="88.3192" x2="291.361" y2="87.5942" gradientUnits="userSpaceOnUse">
<stop stop-color="#10BEF0"/>
<stop offset="1" stop-color="#10BEF0" stop-opacity="0"/>
</linearGradient>
<linearGradient id="paint37_linear_6384_12397" x1="242.101" y1="126.973" x2="252.616" y2="109.206" gradientUnits="userSpaceOnUse">
<stop stop-color="#10BEF0"/>
<stop offset="1" stop-color="#10BEF0" stop-opacity="0"/>
</linearGradient>
<linearGradient id="paint38_linear_6384_12397" x1="290.389" y1="106.372" x2="259.267" y2="106.372" gradientUnits="userSpaceOnUse">
<stop stop-color="#00A7E5"/>
<stop offset="1" stop-color="#06C9FD" stop-opacity="0"/>
</linearGradient>
<linearGradient id="paint39_linear_6384_12397" x1="169.754" y1="420.715" x2="125.333" y2="420.715" gradientUnits="userSpaceOnUse">
<stop stop-color="#069AFD"/>
<stop offset="1" stop-color="#0061FF"/>
</linearGradient>
<linearGradient id="paint40_linear_6384_12397" x1="292.524" y1="454.743" x2="283.452" y2="454.743" gradientUnits="userSpaceOnUse">
<stop stop-color="#00A7E5"/>
<stop offset="1" stop-color="#06C9FD" stop-opacity="0"/>
</linearGradient>
<linearGradient id="paint41_linear_6384_12397" x1="284.959" y1="392.81" x2="234.771" y2="392.81" gradientUnits="userSpaceOnUse">
<stop stop-color="#069AFD"/>
<stop offset="1" stop-color="#0061FF"/>
</linearGradient>
<linearGradient id="paint42_linear_6384_12397" x1="282.5" y1="392.81" x2="237.228" y2="392.81" gradientUnits="userSpaceOnUse">
<stop stop-color="#069AFD"/>
<stop offset="0.225" stop-color="#05B1FD"/>
<stop offset="1" stop-color="#00FFFF"/>
</linearGradient>
<linearGradient id="paint43_linear_6384_12397" x1="287.029" y1="431.728" x2="286.304" y2="398.19" gradientUnits="userSpaceOnUse">
<stop stop-color="#10BEF0"/>
<stop offset="1" stop-color="#10BEF0" stop-opacity="0"/>
</linearGradient>
<linearGradient id="paint44_linear_6384_12397" x1="281.126" y1="408.273" x2="271.892" y2="408.273" gradientUnits="userSpaceOnUse">
<stop stop-color="#00A7E5"/>
<stop offset="1" stop-color="#06C9FD" stop-opacity="0"/>
</linearGradient>
<linearGradient id="paint45_linear_6384_12397" x1="263.486" y1="417.258" x2="276.539" y2="396.772" gradientUnits="userSpaceOnUse">
<stop stop-color="#10BEF0"/>
<stop offset="1" stop-color="#10BEF0" stop-opacity="0"/>
</linearGradient>
<linearGradient id="paint46_linear_6384_12397" x1="275.884" y1="381.862" x2="291.475" y2="381.137" gradientUnits="userSpaceOnUse">
<stop stop-color="#10BEF0"/>
<stop offset="1" stop-color="#10BEF0" stop-opacity="0"/>
</linearGradient>
<linearGradient id="paint47_linear_6384_12397" x1="282.289" y1="537.275" x2="275.671" y2="537.275" gradientUnits="userSpaceOnUse">
<stop stop-color="#170960"/>
<stop offset="1" stop-color="#24188B"/>
</linearGradient>
<linearGradient id="paint48_linear_6384_12397" x1="295.289" y1="531.959" x2="288.67" y2="531.959" gradientUnits="userSpaceOnUse">
<stop stop-color="#170960"/>
<stop offset="1" stop-color="#24188B"/>
</linearGradient>
<linearGradient id="paint49_linear_6384_12397" x1="191.534" y1="131.672" x2="232.597" y2="127.049" gradientUnits="userSpaceOnUse">
<stop stop-color="#10BEF0"/>
<stop offset="1" stop-color="#10BEF0" stop-opacity="0"/>
</linearGradient>
<linearGradient id="paint50_linear_6384_12397" x1="108.562" y1="179.561" x2="178.721" y2="149.105" gradientUnits="userSpaceOnUse">
<stop stop-color="#10BEF0"/>
<stop offset="1" stop-color="#10BEF0" stop-opacity="0"/>
</linearGradient>
<clipPath id="clip0_6384_12397">
<rect width="550" height="550" fill="white" transform="matrix(-1 0 0 1 550 0)"/>
</clipPath>
</defs>
</svg>
