<svg id="Layer_1" data-name="Layer 1" xmlns="http://www.w3.org/2000/svg" xmlns:xlink="http://www.w3.org/1999/xlink" viewBox="0 0 24 24"><defs><style>.cls-1{fill:url(#linear-gradient);}.cls-2{fill:url(#linear-gradient-2);}.cls-3{fill:url(#radial-gradient);}.cls-4{fill:#231f1f;}</style><linearGradient id="linear-gradient" x1="7600.16" y1="4610.81" x2="7623.99" y2="4596.72" gradientTransform="translate(-277.83 -161.96) scale(0.04)" gradientUnits="userSpaceOnUse"><stop offset="0" stop-color="#909ca9"/><stop offset="1" stop-color="#ededee"/></linearGradient><linearGradient id="linear-gradient-2" x1="7600.69" y1="4345.35" x2="7619.87" y2="4345.35" gradientTransform="translate(-277.83 -161.96) scale(0.04)" gradientUnits="userSpaceOnUse"><stop offset="0" stop-color="#939fab"/><stop offset="1" stop-color="#dcdee1"/></linearGradient><radialGradient id="radial-gradient" cx="-24760.9" cy="-11534.17" r="25.46" gradientTransform="matrix(-0.04, -0.01, 0.01, -0.07, -761.01, -971.01)" gradientUnits="userSpaceOnUse"><stop offset="0" stop-color="#ee352c"/><stop offset="1" stop-color="#a91d22"/></radialGradient></defs><path class="cls-1" d="M16.31,7.82l-2.5.82-2.18,1L11,9.76c-.16.15-.32.3-.5.45l-.51.43a3.86,3.86,0,0,0-.5.49,2.14,2.14,0,0,0-.36.62,1,1,0,0,0,.15.94,3.33,3.33,0,0,0,1.36,1,8.56,8.56,0,0,0,1.21.41,15.45,15.45,0,0,0,2.57.36h.33s.12-.21.24-.46a12.09,12.09,0,0,0,.89-2.35A10.77,10.77,0,0,0,16.13,10c0-.18,0-.8,0-1A5.55,5.55,0,0,0,16,8.15a.37.37,0,0,1,0-.08l.34-.1-.06-.15Zm-.57.33a7.21,7.21,0,0,1,.1.95c0,.08,0,.13,0,.13s-.32-.18-.53-.32-.55-.35-.61-.4,0,0,.14-.07Zm-1.28.42a.93.93,0,0,1,.17.09,11.79,11.79,0,0,0,1.14.64c.07,0,.08,0-.08.13a8,8,0,0,1-1.3.7l-.17.07s0,0,0-.1a5.24,5.24,0,0,0,.2-1.33c0-.19,0-.19,0-.2Zm-.26.1s0,.44,0,.56a5.28,5.28,0,0,1-.18.82l0,.13a2.54,2.54,0,0,1-.35-.34,2.22,2.22,0,0,1-.35-.51,2.65,2.65,0,0,1-.11-.26l1-.4ZM13,9.16h0l0,.07a2.61,2.61,0,0,0,.32.56,2.86,2.86,0,0,0,.44.47l.09.08s0,0-.29.13-.75.27-1.2.42L12,11s0,0,0-.08a11.18,11.18,0,0,0,.75-1.51l.07-.18s0,0,0-.05Zm-.38.16s-.09.2-.18.39c-.19.36-.39.71-.66,1.14l-.09.15s0,0,0-.05a1.63,1.63,0,0,1-.15-.44,1.82,1.82,0,0,1,0-.57c0-.11,0-.11.08-.14.24-.12,1-.49,1-.48Zm3.27.13v.08A11.31,11.31,0,0,1,15.74,11c0,.08,0,.14,0,.14l-.12,0a4.69,4.69,0,0,1-.87-.38,3.56,3.56,0,0,1-.44-.27l.17-.09a11,11,0,0,0,1-.61,3.68,3.68,0,0,0,.33-.24l0,0Zm-4.7.56s0,0,0,.08a1.25,1.25,0,0,0,0,.21,1.41,1.41,0,0,0,.16.76l.07.14-1.66.49-.23.06s0,0,0,0a2.1,2.1,0,0,1,.55-1,2.83,2.83,0,0,1,.63-.48l.51-.28Zm3,.53.1.05a5.41,5.41,0,0,0,1.45.57h0l-.06,0a19.62,19.62,0,0,1-1.92.8l-.27.1,0,0,.07-.15a9.48,9.48,0,0,0,.6-1.36s0-.07,0-.07Zm-.3.1,0,.08a12.27,12.27,0,0,1-.65,1.33l-.13.22-.13-.07a4,4,0,0,1-1-.84l0,0,.18,0a12,12,0,0,0,1.66-.58Zm1.87.65h0s-.1.43-.18.72-.12.42-.23.75c0,.14-.08.26-.08.26h0a7.89,7.89,0,0,1-1.54-.43l-.33-.15.25-.12a21.36,21.36,0,0,0,2.07-1l.07,0Zm-4.32.15s-.24.35-.58.82l-.3.43-.17.25-.08.13L10.14,13a3.85,3.85,0,0,1-.35-.35A1.75,1.75,0,0,1,9.47,12c0-.09,0-.13,0-.14l1-.24.68-.15.2-.05Zm.24.09.06.07a3.65,3.65,0,0,0,.89.73l.1.06L10.94,13l-.55.19,0,0,0,0,.06-.08c.17-.26.4-.54.88-1.13l.34-.4Zm1.51,1.08.19.07a7.16,7.16,0,0,0,.7.22,7.58,7.58,0,0,0,1.06.18h.06l-.5.17-2.13.63-.28.08-.08,0a.47.47,0,0,1,.1-.13,11.84,11.84,0,0,0,.76-1l.12-.18Zm-.33,0-.37.59-.25.4a2.39,2.39,0,0,0-.13.21l0,.09h0l-.68-.24c-.15-.07-.32-.14-.44-.21a1.84,1.84,0,0,1-.32-.2l.57-.16c.83-.22,1.29-.36,1.59-.45l.11,0Zm2.35.55h0s-.3.88-.41,1.14c0,.07,0,.08-.05.08l-.75-.11c-.47-.07-1.26-.21-1.46-.25h-.05l.29-.07c.6-.13.89-.21,1.19-.3A7.25,7.25,0,0,0,15,13.22l.12-.05Z"/><path class="cls-2" d="M13.73,2a12,12,0,0,0-1.15.41,8,8,0,0,0-1.32.66,1.57,1.57,0,0,0-.26.26s0,0,0,.06l.26.24.6.2,1.44.26,1.64.28,0-.14h0l-.21,0-.05-.08c-.22-.39-.47-.88-.61-1.21a7.36,7.36,0,0,1-.28-.76c0-.13,0-.14,0-.14Zm0,.1h0l0,.11a4,4,0,0,0,.18.8c.07.21.07.2,0,.17S12.83,3,12.2,2.87a.57.57,0,0,1-.18,0l.65-.34C12.93,2.38,13.64,2.09,13.7,2.08Zm-1.83.84L12,3a11.4,11.4,0,0,0,2,.37H14l-.12.07c-.27.13-.56.3-.77.42L13,3.89h-.17l-.18-.19L12,3ZM11.8,3l.26.34.33.4.06.07s-.39-.07-.59-.11l-.42-.11-.1,0v0c0-.13.16-.32.43-.51Zm2.26.46s0,0,0,.07.27.52.32.59,0,0-.23,0c-.64-.11-.84-.14-.84-.15l0,0a3.74,3.74,0,0,0,.58-.4l.09-.08Z"/><path class="cls-3" d="M11,3.28a.2.2,0,0,0,0,.17.71.71,0,0,0,.17.21s.85.82,1,.94a2.68,2.68,0,0,1,.69,1.8,3,3,0,0,1-.3,1.36A8.93,8.93,0,0,1,10,10.62l.19-.06a5.29,5.29,0,0,1,.67-.4A23.51,23.51,0,0,1,14,8.76a38.12,38.12,0,0,1,6.34-1.7l.17,0,0,0c-.15-.24-.26-.38-.38-.54a4.78,4.78,0,0,0-1.35-1.12,10.06,10.06,0,0,0-2.92-1c-.23-.05-.73-.14-1.14-.2-.87-.13-1.43-.23-2-.33l-.78-.15a3.74,3.74,0,0,1-.5-.13c-.13,0-.33-.11-.37-.27Zm.49.48.07,0,.27.08.25.07.21,0s.21.63.27.86a.46.46,0,0,1,0,.17.48.48,0,0,1,0-.08,4.2,4.2,0,0,0-1-1.1Zm.93.25.1,0,1.27.25.11,0-.05,0-.4.24a3.08,3.08,0,0,0-.53.43l-.11.1,0-.07a5.81,5.81,0,0,0-.34-.93.29.29,0,0,1,0-.09Zm1.64.32s0,.06.07.21a3.11,3.11,0,0,1,.09.86,1.49,1.49,0,0,0,0,.17v0l-.1,0-.81-.24L13,5.23a3.14,3.14,0,0,1,.33-.34,6.89,6.89,0,0,1,.73-.56Zm.13,0,1.14.19.66.14s0,0-.15.09a7.5,7.5,0,0,0-1.24.67l-.18.12V5.44a2.67,2.67,0,0,0-.21-1Zm2,.39a1.18,1.18,0,0,1,0,.25,4.65,4.65,0,0,1-.48,1.1l-.08.13-.11-.06a7.28,7.28,0,0,0-.74-.37l-.15-.06s.6-.41.92-.61Zm.15,0,.54.14a11.76,11.76,0,0,1,1.29.48l.13.06-.09,0a13.76,13.76,0,0,0-2.19.68l-.1,0s0-.05,0-.1a3.84,3.84,0,0,0,.36-1.26s0-.06,0-.06Zm-3.44.78.42.1a5.24,5.24,0,0,1,.67.23L13.91,6c-.25.21-.49.43-.78.7a.77.77,0,0,1-.16.15v0a4.53,4.53,0,0,0,0-1.15A.77.77,0,0,0,12.93,5.55Zm5.53,0a2.61,2.61,0,0,1-.2.31c-.11.16-.28.38-.65.85l-.5.63a1.41,1.41,0,0,1-.14.17.3.3,0,0,1,0-.07,3.88,3.88,0,0,0-.77-.85L16,6.49l0,0,.57-.25C17,6,17.55,5.83,18,5.7l.47-.14Zm.15,0,.11.05A6.38,6.38,0,0,1,20,6.6l.34.36h-.19a18.16,18.16,0,0,0-2.8.47l-.13,0a1.47,1.47,0,0,1,.17-.16,5,5,0,0,0,1.15-1.53l.08-.18ZM14.39,6a4.07,4.07,0,0,1,.46.21c.17.09.43.22.44.24l-.2.1c-.36.18-.66.35-1,.54l-.17.1.05-.1a3.7,3.7,0,0,0,.38-1l0,0Zm-.24,0s-.06.24-.1.37a4.75,4.75,0,0,1-.34.77s-.07.13-.1.17l0,.08-.11-.1a1.18,1.18,0,0,0-.35-.26L13,7l.57-.52.56-.45Zm1.5.62.1.06a7.89,7.89,0,0,1,.65.49,4.59,4.59,0,0,1,.36.32l0,0-.15,0c-.87.24-1.54.45-2.32.74l-.17.06s0,0,.17-.17A8.53,8.53,0,0,0,15.59,6.8l.06-.11Zm-.39.1-.41.58c-.19.24-.52.66-.75.93a1.47,1.47,0,0,1-.18.2V8.43a1.62,1.62,0,0,0-.16-.68c0-.09-.06-.11,0-.12l.94-.53c.23-.13.6-.31.61-.31Zm-2.4.59.1,0a1.9,1.9,0,0,1,.33.22l-.11.09-.61.46c-.17.13-.18.14-.16.11a3.29,3.29,0,0,0,.26-.44c.06-.12.11-.27.16-.39a.39.39,0,0,1,0-.1Zm.64.5s0,0,.07.09a1.36,1.36,0,0,1,.22.55v0l-.26.1c-.46.18-.89.36-1.18.49L12,9.3l-.17.08.14-.1A7.88,7.88,0,0,0,13.42,8s.07-.09.08-.09ZM13.21,8a3.49,3.49,0,0,1-.36.4,5.66,5.66,0,0,1-1.17,1l-.12.07.2-.22c.13-.14.22-.25.33-.39a.66.66,0,0,1,.19-.18C12.56,8.38,13.2,7.94,13.21,8Z"/><path class="cls-4" d="M5,15.79h-.1a1.55,1.55,0,0,0-1.46,1,2.49,2.49,0,0,0,0,1.82,1.59,1.59,0,0,0,1.32.93c.15,0,.24.1.52.42l.34.4h.61l-.41-.41a5,5,0,0,1-.41-.45.6.6,0,0,1,.2-.08,1.43,1.43,0,0,0,.83-.78,1.74,1.74,0,0,0,.21-.84c.06-1.22-.58-2-1.65-2ZM5.55,19a1.39,1.39,0,0,1-1,.07,1.29,1.29,0,0,1-.7-.76,2,2,0,0,1,0-1.38A1.16,1.16,0,0,1,5,16.17c.75,0,1.17.46,1.23,1.32A1.43,1.43,0,0,1,5.55,19Zm10.63-2.14a.67.67,0,0,0-.59.31l-.1.16v-.42H15v2.54h.45v-.81c0-.74,0-.83.11-1a.58.58,0,0,1,.63-.36l.16.05v-.44Zm-2.62,0a1.24,1.24,0,0,0-.27,0,1.28,1.28,0,0,0-.92,1.32,1.28,1.28,0,0,0,.33,1,1.38,1.38,0,0,0,1.53.22l.21-.09v-.4l-.21.11a1,1,0,0,1-1.14,0,1.18,1.18,0,0,1-.3-.67h1.8v-.34a1,1,0,0,0-1-1.13Zm-.73,1.11a1.11,1.11,0,0,1,.31-.61.71.71,0,0,1,.39-.12.58.58,0,0,1,.38.13,1,1,0,0,1,.26.6ZM2.06,17.46c-.49-.29-.7-.5-.68-.75.08-.69.93-.6,1.4-.34v-.46a1.93,1.93,0,0,0-.64-.12A1.09,1.09,0,0,0,1,16.35c-.25.57,0,1,.79,1.47.46.27.66.5.66.75,0,.53-.63.71-1.28.38L1,18.83a4.66,4.66,0,0,0,0,.5,3.14,3.14,0,0,0,.5.14c.74.15,1.42-.2,1.48-.76s-.14-.81-.86-1.25Zm18.08-.66-.28,0A1.29,1.29,0,0,0,19,18.15a1.28,1.28,0,0,0,.34,1,1.36,1.36,0,0,0,1.52.21l.21-.09v-.4l-.21.11a1,1,0,0,1-1.13,0,1.13,1.13,0,0,1-.31-.67h1.8v-.34a1,1,0,0,0-1-1.13Zm-.73,1.12a1.08,1.08,0,0,1,.31-.61.65.65,0,0,1,.39-.13.58.58,0,0,1,.38.13,1,1,0,0,1,.26.6H19.41Zm-8.19-.45c-.49-.29-.7-.51-.67-.76.07-.69.92-.59,1.4-.33v-.46a1.66,1.66,0,0,0-.64-.12,1.09,1.09,0,0,0-1.12.56c-.25.57,0,1,.79,1.47.46.26.67.49.67.75,0,.52-.63.7-1.28.37l-.26-.12a4.66,4.66,0,0,0,0,.5,2.56,2.56,0,0,0,.5.15c.74.14,1.42-.2,1.48-.77s-.14-.81-.86-1.24Zm11.54-.65a.66.66,0,0,0-.58.31l-.11.17v-.43h-.45v2.55h.45V18.6c0-.74,0-.83.11-1a.56.56,0,0,1,.63-.35l.16.05v-.45Zm-15.09.63V15.83H7.21v3.59h1.9V19H7.67V17.45ZM18.08,18l-.37,1-.35-1L17,16.88h-.46c.3.84.63,1.71.95,2.54h.43l.5-1.26.51-1.28h-.44L18.08,18ZM8.7,14.86a.26.26,0,0,0,.19-.08A.23.23,0,0,0,9,14.6a.24.24,0,0,0-.07-.18.29.29,0,0,0-.18-.07.26.26,0,0,0-.19.08.27.27,0,0,0,0,.36.29.29,0,0,0,.18.07Zm-.16-.42a.25.25,0,0,1,.17-.06.21.21,0,0,1,.22.22.25.25,0,0,1-.06.17.25.25,0,0,1-.16.06.21.21,0,0,1-.16-.06.22.22,0,0,1-.07-.17A.25.25,0,0,1,8.54,14.44Zm.11.19h0s0,0,.06.06l0,.07h.06l0-.08s0-.06-.06-.06a.09.09,0,0,0,.06,0s0,0,0-.05a.09.09,0,0,0,0-.07l-.09,0H8.6v.32h.05v-.13Zm0-.15h.1a.05.05,0,0,1,0,0s0,.06-.07.06h0v-.11Zm-7.44.12a1.63,1.63,0,0,0,0-.25h0a.86.86,0,0,0,0,.13l.44,1h.07l.43-1,0-.12h0a2.36,2.36,0,0,0,0,.25v.85h.15V14.18H2.17l-.4.89-.06.15h0l-.06-.15-.39-.89h-.2v1.27h.15V14.6Zm1.47,0h.13v.79H2.68Zm.07-.29a.11.11,0,0,0,.09-.09.09.09,0,0,0,0-.07s0,0-.06,0a.08.08,0,0,0-.07,0,.09.09,0,0,0,0,.07.06.06,0,0,0,0,.06.09.09,0,0,0,.07,0Zm1,1.1v-.14a.37.37,0,0,1-.22.08.29.29,0,0,1-.23-.1.43.43,0,0,1,0-.51.31.31,0,0,1,.23-.1.44.44,0,0,1,.21.07v-.14a.36.36,0,0,0-.21-.05.44.44,0,0,0-.34.14A.53.53,0,0,0,3,15a.44.44,0,0,0,.12.32.39.39,0,0,0,.31.13A.49.49,0,0,0,3.72,15.41ZM4.09,15a.44.44,0,0,1,.06-.25.19.19,0,0,1,.15-.08.16.16,0,0,1,.11,0v-.15H4.32a.21.21,0,0,0-.13.05.27.27,0,0,0-.1.15h0v-.18H3.94v.9h.14V15Zm.83.48a.42.42,0,0,0,.33-.13A.5.5,0,0,0,5.37,15a.54.54,0,0,0-.11-.35.42.42,0,0,0-.32-.12.45.45,0,0,0-.33.12.53.53,0,0,0-.13.36.49.49,0,0,0,.12.34.39.39,0,0,0,.32.13Zm-.21-.74a.31.31,0,0,1,.44,0,.41.41,0,0,1,.07.27.37.37,0,0,1-.07.25.27.27,0,0,1-.22.09.29.29,0,0,1-.22-.09A.37.37,0,0,1,4.63,15,.46.46,0,0,1,4.71,14.73ZM6,15.39a.23.23,0,0,0,.09-.19A.2.2,0,0,0,6,15a.38.38,0,0,0-.17-.1l-.13-.07a.13.13,0,0,1,0-.1.11.11,0,0,1,0-.09.21.21,0,0,1,.12,0,.39.39,0,0,1,.21.06v-.14a.46.46,0,0,0-.2-.05.36.36,0,0,0-.23.08.23.23,0,0,0-.09.19.23.23,0,0,0,.06.16.55.55,0,0,0,.16.1.49.49,0,0,1,.15.09.09.09,0,0,1,0,.08c0,.09-.06.13-.17.13a.36.36,0,0,1-.24-.09v.16a.4.4,0,0,0,.22.06A.41.41,0,0,0,6,15.39Zm.7-.87a.45.45,0,0,0-.33.12.54.54,0,0,0,0,.7.42.42,0,0,0,.33.13A.39.39,0,0,0,7,15.34.5.5,0,0,0,7.13,15,.5.5,0,0,0,7,14.64a.41.41,0,0,0-.31-.12ZM7,15a.37.37,0,0,1-.08.25.25.25,0,0,1-.21.09.27.27,0,0,1-.22-.09A.33.33,0,0,1,6.38,15a.37.37,0,0,1,.09-.27.29.29,0,0,1,.22-.09.26.26,0,0,1,.21.09A.41.41,0,0,1,7,15Zm.39.45h.14v-.78h.22v-.13H7.51V14.4c0-.12,0-.19.15-.19a.17.17,0,0,1,.1,0v-.13a.16.16,0,0,0-.1,0,.27.27,0,0,0-.2.07.32.32,0,0,0-.09.24v.15H7.21v.12h.16v.78ZM8,15.2q0,.27.24.27a.29.29,0,0,0,.14,0v-.13a.17.17,0,0,1-.1,0,.15.15,0,0,1-.1,0,.23.23,0,0,1,0-.13v-.52h.23v-.12H8.11v-.26l-.15,0v.22H7.81v.12H8v.54Zm15.58,1.67a.24.24,0,0,0-.18-.07.25.25,0,0,0-.19.07.24.24,0,0,0-.07.18.21.21,0,0,0,.07.18.25.25,0,0,0,.19.07.25.25,0,0,0,.18-.43Zm0,.34a.19.19,0,0,1-.16.07.21.21,0,0,1-.16-.07.22.22,0,0,1,.16-.38.21.21,0,0,1,.16.06.2.2,0,0,1,.07.16A.19.19,0,0,1,23.51,17.21Zm-.13-.14a.09.09,0,0,0,.06,0s0,0,0-.06a.07.07,0,0,0,0-.06l-.1,0h-.09v.32h.05v-.13h0s0,0,.06.05l0,.08h.06l-.05-.08a.1.1,0,0,0-.05-.07Zm0,0H23.3v-.11h.1a.05.05,0,0,1,0,0s0,.06-.07.06Zm-8.09-2.53h0v-.33h.1v0h-.25v0h.11v.33Zm.24-.25v-.07s0,0,0,0l.13.28h0l.12-.29v.29h0v-.37h-.05l-.11.25s0,0,0,0h0l0,0-.11-.26h-.06v.37h0v-.25Z"/></svg>