<svg width="54" height="53" viewBox="0 0 54 53" fill="none" xmlns="http://www.w3.org/2000/svg">
<g clip-path="url(#clip0_6204_14649)">
<path fill-rule="evenodd" clip-rule="evenodd" d="M41.743 28.7507C48.2024 28.7507 53.4396 33.9879 53.4396 40.4473C53.4396 46.9066 48.2024 52.1439 41.743 52.1439C35.2836 52.1439 30.0464 46.9066 30.0464 40.4473C30.0464 33.9879 35.2836 28.7507 41.743 28.7507ZM36.1744 42.444C35.8559 42.1385 35.6967 41.734 35.6881 41.3295C35.6795 40.9206 35.8258 40.5118 36.1314 40.1934C36.4369 39.8792 36.8371 39.7157 37.2459 39.7071C37.6548 39.6985 38.0636 39.8448 38.382 40.1503L40.4347 42.0998L45.1943 35.8685C45.2072 35.8469 45.2287 35.834 45.2459 35.8168C46.7951 34.4785 48.8694 36.8023 47.3632 38.188L41.5149 45.4564C41.502 45.4693 41.4891 45.4865 41.4762 45.4951C41.1706 45.7619 40.7833 45.8954 40.4003 45.8867C40.013 45.8781 39.6257 45.7318 39.3245 45.4435L36.1744 42.444ZM8.17226 12.0406C11.658 13.2068 16.5122 13.9255 21.9044 13.9255C27.2965 13.9255 32.1507 13.2068 35.6365 12.0406C38.6962 11.0207 40.5897 9.78133 40.5897 8.57208C40.5897 7.36283 38.6962 6.12345 35.6365 5.10355C32.1507 3.94164 27.2965 3.21867 21.9044 3.21867C16.5122 3.21867 11.658 3.93733 8.17226 5.10355C1.67845 7.27246 1.49771 9.81576 8.17226 12.0406ZM3.24488 21.1595C3.48587 22.287 5.32342 23.4231 8.17226 24.3741C11.658 25.5403 16.5122 26.259 21.9044 26.259C27.2965 26.259 32.1507 25.5403 35.6365 24.3741C38.6962 23.3542 40.5897 22.1148 40.5897 20.9056H40.6026V12.6C39.5138 13.3445 38.1152 14.003 36.4756 14.5495C32.7188 15.8018 27.5633 16.5807 21.9044 16.5807C16.2411 16.5807 11.09 15.8061 7.3331 14.5495C5.71072 14.0073 4.32934 13.3617 3.24919 12.6259V21.1595H3.24488ZM27.8 40.387C25.928 40.5764 23.9485 40.6753 21.9044 40.6753C16.2411 40.6753 11.09 39.9007 7.3331 38.6441C5.71072 38.1019 4.32934 37.4564 3.24919 36.7205V44.6775C3.49018 45.805 5.32772 46.9411 8.17656 47.8921C11.6623 49.054 16.5165 49.777 21.9087 49.777C25.1448 49.777 28.183 49.5188 30.8511 49.0583C31.5224 49.8932 32.2841 50.6506 33.1276 51.3133C29.8871 52.0234 26.0313 52.4322 21.9087 52.4322C16.2454 52.4322 11.0943 51.6576 7.3374 50.401C5.35785 49.7383 0.593997 47.5694 0.593997 44.9701C0.593997 44.6646 0.593997 44.4107 0.593997 44.118C0.585391 32.2751 0.55957 20.4236 0.55957 8.57208C0.55957 6.09333 3.1459 3.98897 7.3288 2.59037C11.0857 1.33809 16.2411 0.563477 21.9044 0.563477C27.5676 0.563477 32.7188 1.33809 36.4756 2.59467C40.2841 3.86417 42.7672 5.72324 43.1846 7.91796C43.2362 8.05567 43.2621 8.20629 43.2621 8.36552V26.599C42.7457 26.5387 42.2206 26.5086 41.687 26.5086C41.3212 26.5086 40.9641 26.5215 40.6069 26.5516V24.9422C39.5181 25.6866 38.1195 26.3451 36.4799 26.8916C32.7231 28.1439 27.5676 28.9228 21.9087 28.9228C16.2454 28.9228 11.0943 28.1482 7.3374 26.8916C5.71503 26.3494 4.33364 25.7039 3.25349 24.968V32.9249C3.49448 34.0524 5.33202 35.1885 8.18087 36.1396C11.6666 37.3015 16.5208 38.0245 21.913 38.0245C24.069 38.0245 26.1389 37.9083 28.0711 37.6974C27.8904 38.5624 27.8 39.4661 27.8 40.387Z" fill="#002680"/>
</g>
<defs>
<clipPath id="clip0_6204_14649">
<rect width="52.88" height="51.873" fill="white" transform="translate(0.55957 0.563477)"/>
</clipPath>
</defs>
</svg>
