<svg id="Layer_1" data-name="Layer 1" xmlns="http://www.w3.org/2000/svg" viewBox="0 0 24 24"><defs><style>.cls-1{fill:#00618b;}.cls-2{fill:#e69000;}</style></defs><path class="cls-1" d="M5.85,17.81H5.1V14.89h0A.31.31,0,0,1,5,15L4,17.35c0,.06,0,.12-.08.17a.6.6,0,0,1-.46.32,1.3,1.3,0,0,1-.44,0,.51.51,0,0,1-.35-.24.76.76,0,0,1-.09-.18c-.37-.8-.73-1.61-1.1-2.41a.61.61,0,0,0-.05-.12h0V17.8H.62s0-.05,0-.08v-2.9a.46.46,0,0,1,.39-.5,1.33,1.33,0,0,1,.53-.06.69.69,0,0,1,.57.43l.42,1,.63,1.48a.67.67,0,0,1,.06.12l.07-.13c.35-.79.71-1.57,1.05-2.36a.75.75,0,0,1,.87-.49,1.54,1.54,0,0,1,.37.09.38.38,0,0,1,.27.36,1,1,0,0,1,0,.17v2.92Z"/><path class="cls-2" d="M17.81,17.66l.73.67h-.79a.17.17,0,0,1-.14,0l-.47-.43a.17.17,0,0,0-.16-.06c-.43,0-.86,0-1.29,0a1.78,1.78,0,0,1-.72-.14.74.74,0,0,1-.46-.54,1.27,1.27,0,0,1,0-.2c0-.59,0-1.18,0-1.76a.71.71,0,0,1,.45-.69,1.32,1.32,0,0,1,.58-.15h1.7a1.54,1.54,0,0,1,.59.14.72.72,0,0,1,.44.69V17c0,.05,0,.09,0,.14a.6.6,0,0,1-.3.48Zm-.47-.41a.36.36,0,0,0,.2-.32V15.22a.33.33,0,0,0-.2-.32.94.94,0,0,0-.29-.06H15.82a.75.75,0,0,0-.26.05.33.33,0,0,0-.25.36v1.62a.4.4,0,0,0,.32.42l.17,0h.67l.06,0L16,16.77v0h.11c.17,0,.35,0,.52,0a.43.43,0,0,1,.36.13C17.07,17,17.21,17.12,17.34,17.25Z"/><path class="cls-1" d="M17.29,12.2l-.06.34a2.51,2.51,0,0,1,0,.27.34.34,0,0,1-.54.2,1.16,1.16,0,0,1-.3-.36,2,2,0,0,1-.23-.79,2.83,2.83,0,0,1,.1-1.12l.12-.39a.14.14,0,0,0,0-.11,2.48,2.48,0,0,1-.48-.87c-.07-.2-.12-.4-.2-.59a.92.92,0,0,0-.14-.28c-.1-.15-.22-.28-.32-.42A4.05,4.05,0,0,1,15,7.73a.49.49,0,0,1,0-.47A.43.43,0,0,1,15.33,7a1,1,0,0,1,.41.06,2,2,0,0,1,.77.42.34.34,0,0,0,.24.09,2.64,2.64,0,0,1,.55.06,3.08,3.08,0,0,1,.65.27,6.12,6.12,0,0,1,1.63,1.41c.16.22.31.44.46.67a1.87,1.87,0,0,1,.15.32c.22.55.49,1.08.75,1.62l.08.13a.26.26,0,0,0,.14.11,5,5,0,0,1,1.67,1.05,2.88,2.88,0,0,1,.28.33s0,0,0,.06a1.85,1.85,0,0,1-.45.11,5.53,5.53,0,0,0-.79.16.3.3,0,0,0,.12.17,4,4,0,0,0,.34.23,2.61,2.61,0,0,1,.43.31,3,3,0,0,1,.25.25l.27.29a.41.41,0,0,1,.1.21s-.05,0-.06,0a3.18,3.18,0,0,0-.85-.55,3,3,0,0,1-.72-.45,1.34,1.34,0,0,1-.37-.51.08.08,0,0,1,0-.09l.06,0a3.09,3.09,0,0,1,1.12-.21h.14s0-.06-.07-.08l-.12-.1c-.16-.11-.33-.21-.49-.33a2.8,2.8,0,0,0-.87-.42l-.25-.08a.36.36,0,0,1-.21-.17c-.08-.15-.17-.29-.24-.43l-.45-1c-.05-.11-.1-.24-.15-.36a4,4,0,0,0-.52-.89,4.93,4.93,0,0,0-1.8-1.53L17.37,8a1.07,1.07,0,0,0-.46-.11l-.41,0a.22.22,0,0,1-.14-.06,2.62,2.62,0,0,0-.78-.44l-.19,0c-.17,0-.27.1-.2.26a1.87,1.87,0,0,0,.17.31l.22.29A2.17,2.17,0,0,1,16,9c.05.15.1.31.16.46a2.46,2.46,0,0,0,.19.4,1.08,1.08,0,0,0,.18.24.32.32,0,0,1,.1.37l-.09.28a2.34,2.34,0,0,0,.07,1.8.64.64,0,0,0,.08.14.29.29,0,0,0,.19.12.5.5,0,0,0,0-.12c0-.2.05-.39.09-.59a1.09,1.09,0,0,1,.35-.56,6.43,6.43,0,0,0,1.37,2.25l-.05,0a.1.1,0,0,1-.05,0c-.2-.17-.4-.34-.59-.52a2,2,0,0,1-.55-.74,1.51,1.51,0,0,0-.11-.22Z"/><path class="cls-1" d="M6.48,15.39h.76V17a.28.28,0,0,0,.26.32l.18,0H9.31V15.38h.76s0,.06,0,.08V18a.67.67,0,0,1-.34.6,1.4,1.4,0,0,1-.59.21l-.36,0H6.5v-.5H8.81a1.07,1.07,0,0,0,.31-.06A.25.25,0,0,0,9.31,18a1.76,1.76,0,0,0,0-.23H7.79a2.23,2.23,0,0,1-.73-.11,1.09,1.09,0,0,1-.38-.21A.57.57,0,0,1,6.47,17c0-.53,0-1,0-1.58Z"/><path class="cls-2" d="M10.66,17.81v-.5h2l.27,0a.44.44,0,0,0,.22-.1.26.26,0,0,0,.1-.21c0-.12,0-.23,0-.34a.28.28,0,0,0-.23-.31l-.34,0h-.84a1.79,1.79,0,0,1-.72-.15,1.14,1.14,0,0,1-.23-.15.5.5,0,0,1-.22-.45v-.44a.63.63,0,0,1,.35-.58,1.23,1.23,0,0,1,.6-.17H14a1.65,1.65,0,0,1,0,.5H11.9l-.27,0a.23.23,0,0,0-.21.25v.37a.33.33,0,0,0,.26.32l.23,0h.93a1.94,1.94,0,0,1,.63.11,1.36,1.36,0,0,1,.37.21.51.51,0,0,1,.17.4V17a.59.59,0,0,1-.28.54,1.57,1.57,0,0,1-.92.26H10.66Z"/><path class="cls-2" d="M18.73,14.33h.75V16.9a.33.33,0,0,0,.32.38,1.73,1.73,0,0,0,.32,0h1.93a1.56,1.56,0,0,1,0,.49H20.12a2.71,2.71,0,0,1-.75-.1l-.23-.09a.74.74,0,0,1-.42-.69v-2.5S18.73,14.37,18.73,14.33Z"/><path class="cls-1" d="M16.6,8.49c.25-.05.34,0,.44.18a.27.27,0,0,1-.11.33c-.05-.09-.08-.18-.14-.27S16.67,8.58,16.6,8.49Z"/></svg>