<svg id="Layer_1" data-name="Layer 1" xmlns="http://www.w3.org/2000/svg" viewBox="0 0 24 24"><path d="M2.74,11.67a4.93,4.93,0,0,1-1.38-.17,2,2,0,0,1-.48-.2,1.07,1.07,0,0,1-.16-.14A.27.27,0,0,1,.64,11a2.41,2.41,0,0,0,0-.38.37.37,0,0,1,.1-.24,1.18,1.18,0,0,1,.45-.25,4.17,4.17,0,0,1,.93-.2,6.55,6.55,0,0,1,1,0,3.93,3.93,0,0,1,1.31.27,1,1,0,0,1,.32.2.3.3,0,0,1,.1.25v.35a.31.31,0,0,1-.13.28,1.47,1.47,0,0,1-.48.25,4.89,4.89,0,0,1-1.08.19H2.74ZM4.45,11s.08,0,.08-.08a.08.08,0,0,0-.08-.08.08.08,0,0,0-.08.09A.07.07,0,0,0,4.45,11Z"/><path d="M4.84,11.52v.94a.33.33,0,0,1-.1.24A1.2,1.2,0,0,1,4.3,13a4.17,4.17,0,0,1-.93.2,6.31,6.31,0,0,1-1,0,4.35,4.35,0,0,1-1.3-.25,1.2,1.2,0,0,1-.36-.22.37.37,0,0,1-.1-.24c0-.31,0-.62,0-.94l.14.08a2.82,2.82,0,0,0,.89.29,6.35,6.35,0,0,0,2.34,0A2.37,2.37,0,0,0,4.84,11.52Zm-.39.88a.09.09,0,0,0,.08-.08.07.07,0,0,0-.08-.08.08.08,0,1,0,0,.16Z"/><path d="M4.84,13V14a.29.29,0,0,1-.09.22,1,1,0,0,1-.45.27,4.14,4.14,0,0,1-1,.2,5.53,5.53,0,0,1-1.15,0A3.72,3.72,0,0,1,1,14.39a.72.72,0,0,1-.28-.2A.29.29,0,0,1,.64,14V13l.36.17a3.56,3.56,0,0,0,.91.22,6.13,6.13,0,0,0,1.21.05,4.37,4.37,0,0,0,1.34-.26C4.59,13.17,4.71,13.1,4.84,13Zm-.39.72a.08.08,0,1,0,.08.08A.08.08,0,0,0,4.45,13.76Z"/><path d="M9.8,14.16H9.05L7.34,11.59v2.57H6.58V10.4h.76L9.05,13V10.4H9.8Z"/><path d="M11.09,14a1.4,1.4,0,0,1-.54-.54,1.72,1.72,0,0,1,0-1.61,1.41,1.41,0,0,1,.56-.55,1.67,1.67,0,0,1,.78-.19,1.7,1.7,0,0,1,.78.19,1.39,1.39,0,0,1,.55.55,1.61,1.61,0,0,1,.2.8,1.53,1.53,0,0,1-.21.81,1.39,1.39,0,0,1-.56.54,1.7,1.7,0,0,1-1.56,0Zm1.16-.56a.76.76,0,0,0,.29-.3,1.07,1.07,0,0,0,.11-.49.89.89,0,0,0-.23-.65.74.74,0,0,0-.54-.23.71.71,0,0,0-.54.23.88.88,0,0,0-.22.65,1,1,0,0,0,.21.66.71.71,0,0,0,.54.23A.86.86,0,0,0,12.25,13.46Z"/><path d="M14.57,14.07a1.15,1.15,0,0,1-.5-.39,1,1,0,0,1-.19-.6h.81a.51.51,0,0,0,.16.37.59.59,0,0,0,.41.13.65.65,0,0,0,.41-.12.43.43,0,0,0,.15-.34.36.36,0,0,0-.1-.27.74.74,0,0,0-.25-.17L15,12.54a4.29,4.29,0,0,1-.59-.21,1,1,0,0,1-.4-.32.89.89,0,0,1-.16-.56,1,1,0,0,1,.64-1,1.83,1.83,0,0,1,.68-.13,1.49,1.49,0,0,1,.95.29,1,1,0,0,1,.4.78h-.83a.45.45,0,0,0-.16-.32.65.65,0,0,0-.41-.12.49.49,0,0,0-.35.11.4.4,0,0,0-.13.33.33.33,0,0,0,.1.25.6.6,0,0,0,.24.16l.42.14a4.91,4.91,0,0,1,.6.22,1.11,1.11,0,0,1,.4.32.9.9,0,0,1,.16.57,1.12,1.12,0,0,1-.15.56,1.15,1.15,0,0,1-.46.41,1.59,1.59,0,0,1-.72.15A1.75,1.75,0,0,1,14.57,14.07Z"/><path d="M20.05,14.83l-.57-.69A2,2,0,0,1,18,14a1.83,1.83,0,0,1-.7-.68,2,2,0,0,1-.26-1,1.91,1.91,0,0,1,.26-1,1.85,1.85,0,0,1,.7-.69,2,2,0,0,1,1.94,0,1.93,1.93,0,0,1,.7.69,1.91,1.91,0,0,1,.25,1,2,2,0,0,1-.21.92,2,2,0,0,1-.58.67l.86,1ZM18,12.94a1.09,1.09,0,0,0,.41.44,1.16,1.16,0,0,0,.6.15,1.21,1.21,0,0,0,.6-.15,1.14,1.14,0,0,0,.4-.44,1.55,1.55,0,0,0,0-1.33,1.11,1.11,0,0,0-.4-.43A1.21,1.21,0,0,0,19,11a1.16,1.16,0,0,0-.6.15,1.06,1.06,0,0,0-.41.43,1.39,1.39,0,0,0-.14.66A1.41,1.41,0,0,0,18,12.94Z"/><path d="M22.24,13.57h1.24v.59h-2V10.41h.75Z"/></svg>