<svg id="Layer_1" data-name="Layer 1" xmlns="http://www.w3.org/2000/svg" viewBox="0 0 24 24"><defs><style>.cls-1{fill:#336791;}</style></defs><path class="cls-1" d="M13.38,23.64c-1.93-.45-2.26-2-2.47-3.61-.1-.73-.1-1.47-.14-2.15A11.93,11.93,0,0,1,8.71,18a12.5,12.5,0,0,1-2-.62c-.9.6-2,.73-3.19-.87a11.79,11.79,0,0,1-1.36-2.7A25.07,25.07,0,0,1,.47,7a8.1,8.1,0,0,1,.17-2.5A4.5,4.5,0,0,1,5.47.76a25.61,25.61,0,0,1,3.45.5,1.21,1.21,0,0,0,.63,0A7,7,0,0,1,13.38.74a4.08,4.08,0,0,0,1.1-.07,7.83,7.83,0,0,1,5.61.59,8.8,8.8,0,0,1,2.14,1.81,2.52,2.52,0,0,1,.53,1.46,13.52,13.52,0,0,1-1.27,6.19c-.41,1-.92,2-1.43,3.06.47-.07.9-.13,1.33-.21a1.24,1.24,0,0,1,1.31.48,1.19,1.19,0,0,1-.07,1.44A4.38,4.38,0,0,1,19.7,17c-.46.07-.92.08-1.44.12-.07.79-.12,1.6-.24,2.41a8.61,8.61,0,0,1-.4,1.59A3.43,3.43,0,0,1,15,23.45c-.21.05-.42.12-.63.19Zm-3.64-9,.08.14a7.42,7.42,0,0,1-1,.65c-.35.17-.77.18-1.12.35a.82.82,0,0,0-.45.54.74.74,0,0,0,.36.6,4.59,4.59,0,0,0,1.68.37,10.74,10.74,0,0,0,2-.5c.06,1.13.1,2.36.18,3.6A2.67,2.67,0,0,0,13.3,23a3.22,3.22,0,0,0,3.91-2.51c.08-.37.14-.74.19-1.11.13-1,.25-2,.38-3,.52,0,1,0,1.51,0a4.14,4.14,0,0,0,2.64-1.13c.24-.23.51-.55.24-.84a1.31,1.31,0,0,0-.82-.23,6.5,6.5,0,0,0-.75.12c-.53,0-1.06,0-1.71,0l.44-.73a20.72,20.72,0,0,0,2.44-5.8c.17-.72.26-1.45.37-2.18a3.37,3.37,0,0,0-1.86-3.54,7.53,7.53,0,0,0-6.06-.7,2.45,2.45,0,0,1-.85,0,5.69,5.69,0,0,0-3.76.5.85.85,0,0,1-.61,0,10.76,10.76,0,0,0-3.9-.56A3.83,3.83,0,0,0,1.35,4.18,8.2,8.2,0,0,0,1.09,7a23.66,23.66,0,0,0,1.6,6.57,12.1,12.1,0,0,0,1.56,2.87,1.44,1.44,0,0,0,2.45,0,12,12,0,0,0,.93-1.1c.5-.7,1-1.15,1.93-.66A1,1,0,0,0,9.74,14.69Z"/><path class="cls-1" d="M18,14.12a1.43,1.43,0,0,0-.87,1.36c-.16,1.68-.36,3.35-.64,5a2.53,2.53,0,0,1-3,1.88,1.81,1.81,0,0,1-1.4-1.72c-.1-1.58-.17-3.16-.17-4.74,0-1.18-.26-1.59-1.41-1.87.16-.43.29-.88.49-1.29a7,7,0,0,0,.32-4.93,1.66,1.66,0,0,0-2-1.26c-.57.1-1.12.29-1.67.43-.09-2,1.18-5,4.07-5a6.52,6.52,0,0,1,6.41,4.48h-.6c-1.64,0-2.42,1-2,2.58a12.31,12.31,0,0,0,.87,2.25C17,12.22,17.51,13.15,18,14.12Z"/><path class="cls-1" d="M8.7,2.41A8.84,8.84,0,0,0,7,8.46a17.29,17.29,0,0,1-.08,2.27A3.6,3.6,0,0,0,8,13.94c-.69.76-1.38,1.54-2.1,2.29A.61.61,0,0,1,5,16.18a3.37,3.37,0,0,1-.74-.91,21.88,21.88,0,0,1-2.5-9.46,3.93,3.93,0,0,1,.85-2.6,3.47,3.47,0,0,1,3-1.2C6.61,2.05,7.66,2.27,8.7,2.41Z"/><path class="cls-1" d="M18.5,13.44a3.14,3.14,0,0,0,.25-.64c.08-.73.15-1.46.18-2.19,0-1,0-2,.06-3a3.73,3.73,0,0,0-.31-1.95A7.84,7.84,0,0,0,15,1.89c.29-.06.49-.11.69-.13s.41-.05.62-.06a5.92,5.92,0,0,1,4.33,1.43,2.62,2.62,0,0,1,.87,2.4A16.12,16.12,0,0,1,20,10.8c-.42.92-.91,1.8-1.37,2.7Z"/><path class="cls-1" d="M11.09,10.29c-.14.52-.3,1.2-.51,1.87-.15.47-.4.91-.53,1.38s-.36.46-.72.36A2.7,2.7,0,0,1,7.5,11.16c.08-.94.1-1.88.1-2.82,0-.31.06-.51.35-.6a9.27,9.27,0,0,1,1.71-.49c.64-.09,1,.23,1.11.87S11,9.44,11.09,10.29ZM9.79,7.41l-.52.45a2.18,2.18,0,0,0,.66.47c.14,0,.35-.23.54-.37Z"/><path class="cls-1" d="M17.87,12.74c-.55-1.33-1.17-2.62-1.6-4-.35-1.09.17-1.63,1.3-1.64h.79a6.46,6.46,0,0,0-.11.9c0,1,0,2,0,3,0,.56-.06,1.13-.09,1.69Zm-.23-5.38-.95.28c.1.14.18.36.31.39C17.38,8.13,17.66,8,17.64,7.36Z"/><path class="cls-1" d="M8,16.39c.26-.07.42-.13.59-.16a2.4,2.4,0,0,0,1.74-1.07c.16-.24.35-.56.73-.26s.36.6.06,1A2.53,2.53,0,0,1,8,16.39Z"/><path class="cls-1" d="M21.37,14.88a4.18,4.18,0,0,1-3.09.88c-.29,0-.54-.1-.42-.51s.44-.65.73-.5A4.31,4.31,0,0,0,21.37,14.88Z"/></svg>