<svg width="553" height="534" viewBox="0 0 553 534" fill="none" xmlns="http://www.w3.org/2000/svg">
<g clip-path="url(#clip0_2719_22771)">
<path d="M489.784 130.575L534.909 104.479C535.806 103.955 536.61 103.936 537.245 104.292V104.254L541.617 106.781C541.617 106.781 539.674 107.493 538.534 107.905V140.852C538.534 143.529 536.908 146.637 534.909 147.797L491.783 172.751V176.608L487.355 174.062H487.374C486.626 173.612 486.14 172.602 486.14 171.16V137.539C486.159 134.843 487.785 131.735 489.784 130.575Z" fill="url(#paint0_linear_2719_22771)"/>
<path d="M494.231 176.475L539.375 150.36C541.374 149.2 543 146.092 543 143.415V109.794C543 107.117 541.374 105.881 539.375 107.042L494.231 133.156C492.232 134.317 490.606 137.425 490.606 140.102V173.723C490.606 176.4 492.232 177.636 494.231 176.475Z" fill="url(#paint1_linear_2719_22771)"/>
<path d="M493.129 132.354L538.254 106.258C539.525 105.528 540.646 105.752 541.281 106.688C540.721 106.538 540.067 106.632 539.357 107.044L494.232 133.159C492.232 134.319 490.607 137.427 490.607 140.104V173.725C490.607 174.717 490.831 175.485 491.204 176.046C490.177 175.784 489.504 174.661 489.504 172.939V139.299C489.504 136.622 491.13 133.514 493.129 132.354Z" fill="white"/>
<path d="M524.184 138.794C524.184 140.741 525.548 141.527 527.23 140.554C528.911 139.581 530.275 137.222 530.275 135.275C530.275 133.328 528.911 132.542 527.23 133.515C525.548 134.47 524.184 136.847 524.184 138.794Z" fill="white"/>
<path d="M514.973 144.13C514.973 146.077 516.337 146.863 518.019 145.89C519.7 144.916 521.064 142.558 521.064 140.611C521.064 138.664 519.7 137.878 518.019 138.851C516.337 139.806 514.973 142.183 514.973 144.13Z" fill="white"/>
<path d="M505.741 149.466C505.741 151.413 507.105 152.199 508.786 151.226C510.468 150.252 511.832 147.894 511.832 145.947C511.832 144 510.468 143.214 508.786 144.187C507.105 145.161 505.741 147.519 505.741 149.466Z" fill="white"/>
<path d="M225.105 332.644C227.516 332.288 229.795 331.558 231.683 330.472C237.326 327.196 237.326 321.898 231.683 318.641C226.04 315.365 216.884 315.365 211.222 318.641C209.335 319.727 208.102 321.056 207.466 322.441L168.377 299.827L251.545 251.716C258.533 247.673 269.857 247.673 276.845 251.716L360.014 299.827L321.709 321.973C323.185 322.366 324.586 322.928 325.801 323.62C331.444 326.897 331.444 332.194 325.801 335.452C320.158 338.709 310.983 338.728 305.34 335.452C304.126 334.74 303.173 333.935 302.481 333.074L264.176 355.22L225.105 332.644Z" fill="#EFEFEF"/>
<path d="M38.9817 383.412L122.15 335.301L161.24 357.915C161.875 356.529 163.109 355.2 164.996 354.115C170.639 350.839 179.813 350.839 185.456 354.115C191.099 357.391 191.099 362.688 185.456 365.946C183.569 367.031 181.289 367.762 178.879 368.117L217.969 390.731L177.72 414C177.515 412.035 176.114 410.107 173.535 408.609C167.892 405.333 158.736 405.333 153.074 408.609C147.432 411.885 147.432 417.183 153.074 420.44C155.672 421.938 158.998 422.743 162.38 422.874L122.132 446.143L38.963 398.032C31.9933 394.007 31.9933 387.455 38.9817 383.412Z" fill="#EFEFEF"/>
<path d="M343.945 416.865C345.795 415.798 348.018 415.086 350.373 414.712L311.339 392.135L349.644 369.989C350.335 370.85 351.288 371.655 352.503 372.367C358.146 375.643 367.302 375.643 372.963 372.367C378.606 369.091 378.606 363.793 372.963 360.536C371.749 359.824 370.347 359.281 368.871 358.888L407.176 336.742L490.345 384.853C497.333 388.897 497.333 395.449 490.345 399.492L407.176 447.603L368.142 425.027C367.507 426.393 366.274 427.666 364.424 428.733C358.781 432.009 349.607 432.009 343.964 428.733C338.302 425.42 338.302 420.122 343.945 416.865Z" fill="#EFEFEF"/>
<path d="M211.633 453.631C208.419 453.519 205.28 452.751 202.832 451.329C197.488 448.24 197.488 443.223 202.832 440.134C208.176 437.045 216.846 437.045 222.19 440.134C224.638 441.557 225.946 443.373 226.152 445.226L264.214 423.211L301.136 444.571C298.913 444.926 296.801 445.6 295.063 446.611C289.719 449.7 289.719 454.717 295.063 457.806C300.407 460.895 309.077 460.895 314.403 457.806C316.141 456.795 317.318 455.578 317.916 454.286L354.838 475.646L276.173 521.155C269.558 524.974 258.851 524.974 252.237 521.155L173.571 475.646L211.633 453.631Z" fill="#EFEFEF"/>
<path d="M174.132 235.5L248.873 192.257C257.338 187.352 271.053 187.352 279.517 192.257L357.921 237.616L380.25 228.48V250.533L343.926 271.537V286.194C344.075 288.89 342.393 291.623 338.825 293.701C331.986 297.651 320.887 297.651 314.048 293.701C312.572 292.84 311.432 291.867 310.591 290.837L264.195 317.663L216.846 290.276V270.675C211.035 269.796 204.589 270.675 200.03 273.296C197.75 274.625 196.237 276.217 195.489 277.901L148.14 250.514V228.461L174.132 235.5Z" fill="url(#paint2_linear_2719_22771)"/>
<path d="M221.277 269.911L222.043 270.959L221.613 270.978L264.197 295.614L310.593 268.788C311.433 269.817 312.573 270.809 314.049 271.652C320.888 275.602 331.987 275.602 338.826 271.652C341.592 270.042 343.217 268.039 343.759 265.961C344.544 269.031 342.9 272.251 338.826 274.61C331.987 278.56 320.888 278.56 314.049 274.61C312.573 273.749 311.433 272.775 310.593 271.745L264.197 298.571L216.848 271.184V268.226L221.277 269.911Z" fill="url(#paint3_linear_2719_22771)"/>
<path d="M216.846 268.225C219.761 267.794 222.527 266.914 224.806 265.604C231.645 261.654 231.645 255.233 224.806 251.264C217.968 247.314 206.868 247.314 200.03 251.264C197.75 252.593 196.237 254.185 195.489 255.869L148.14 228.482L248.873 170.206C257.338 165.301 271.053 165.301 279.517 170.206L380.25 228.482L333.854 255.308C335.648 255.795 337.33 256.45 338.825 257.311C345.663 261.261 345.663 267.682 338.825 271.651C331.986 275.6 320.887 275.6 314.048 271.651C312.572 270.789 311.432 269.816 310.591 268.786L264.195 295.612L216.846 268.225Z" fill="url(#paint4_linear_2719_22771)"/>
<path d="M333.874 255.306L380.27 228.48V231.438L337.032 256.448C336.023 255.999 334.976 255.606 333.874 255.306Z" fill="white"/>
<path d="M195.49 255.868C196.256 254.183 197.751 252.592 200.03 251.263C206.869 247.313 217.968 247.313 224.807 251.263C228.88 253.622 230.506 256.842 229.74 259.912C229.217 257.834 227.591 255.831 224.807 254.221C217.968 250.271 206.869 250.271 200.03 254.221C197.751 255.55 196.237 257.141 195.49 258.826L148.141 231.438V228.48L195.49 255.868Z" fill="white"/>
<path d="M31.1709 324.517L121.365 272.344L168.714 299.731C169.48 298.047 170.975 296.455 173.254 295.126C175.646 293.741 178.561 292.861 181.625 292.43C183.158 290.446 188.259 284.343 188.763 284.194C189.361 284.025 203.151 280.019 203.151 280.019V302.165C203.207 304.805 201.507 307.444 198.031 309.447C195.752 310.776 192.986 311.637 190.071 312.068L213.895 325.846L237.42 317.403V339.456L188.688 367.648C188.427 365.271 186.745 362.949 183.606 361.134C179.906 358.999 174.955 358.026 170.097 358.194V378.394L121.365 406.586L20.6323 348.31C16.2973 345.802 14.2045 342.507 14.298 339.231V317.609L31.1709 324.517Z" fill="#396CAA"/>
<path d="M188.689 328.488V367.67C188.428 365.292 186.746 362.971 183.607 361.155C176.768 357.205 165.669 357.205 158.83 361.155C157.354 361.997 156.233 362.971 155.392 364C151.748 362.859 147.918 362.203 144.013 362.016V328.488H188.689Z" fill="#173D7A"/>
<path d="M121.366 272.363L121.721 272.569V406.437L121.366 406.643L20.6329 348.367C16.2979 345.859 14.2051 342.564 14.2985 339.288V317.666L31.1901 324.518L121.366 272.363Z" fill="#173D7A"/>
<path d="M170.096 362.762V356.379L164.584 359.561L170.096 362.762Z" fill="#396CAA"/>
<path d="M14.4475 318.922C15.008 321.618 17.0447 324.238 20.6323 326.316L121.365 384.592L163.856 360.013C163.912 359.339 164.099 357.991 164.099 357.991L170.115 356.4V359.357L121.384 387.55L20.651 329.274C15.7555 326.429 13.7001 322.591 14.4475 318.922Z" fill="white"/>
<path d="M20.6323 308.569L121.365 250.293L168.714 277.681C169.48 275.996 170.975 274.405 173.254 273.075C180.093 269.125 191.192 269.125 198.031 273.075C204.87 277.025 204.87 283.446 198.031 287.415C195.752 288.744 192.986 289.605 190.071 290.036L237.42 317.424L188.688 345.616C188.427 343.239 186.745 340.917 183.606 339.102C176.767 335.152 165.668 335.152 158.829 339.102C151.99 343.051 151.99 349.472 158.829 353.441C161.968 355.257 166.004 356.23 170.097 356.38L121.365 384.573L20.6323 326.297C12.1678 321.411 12.1678 313.474 20.6323 308.569Z" fill="#273C7F"/>
<path d="M198.03 290.372C196.741 291.121 195.284 291.701 193.751 292.169L190.089 290.054C193.004 289.623 195.769 288.744 198.049 287.433C200.814 285.823 202.44 283.82 202.982 281.742C203.729 284.794 202.104 288.013 198.03 290.372Z" fill="white"/>
<path d="M153.896 347.749C153.112 344.678 154.756 341.459 158.829 339.1C165.668 335.15 176.767 335.15 183.606 339.1C186.745 340.916 188.427 343.256 188.688 345.614L237.42 317.422V320.38L188.688 348.572C188.427 346.195 186.745 343.873 183.606 342.058C176.767 338.108 165.668 338.108 158.829 342.058C156.064 343.668 154.438 345.671 153.896 347.749Z" fill="white"/>
<path d="M291.438 339.497V317.445L314.571 326.112L337.834 312.652C338.675 313.682 339.815 314.674 341.291 315.516C348.13 319.466 359.229 319.466 366.068 315.516C372.757 311.641 372.888 305.445 366.516 301.476L361.116 304.509V277.14H377.858L379.521 288.541L407.512 272.348L496.622 323.884L514.598 317.426V339.478C514.598 342.679 512.486 345.899 508.245 348.333L407.512 406.609L360.238 379.259C359.472 380.906 357.977 382.46 355.735 383.751C348.896 387.701 337.797 387.701 330.958 383.751C327.408 381.692 325.707 378.978 325.857 376.282V359.359L291.438 339.497Z" fill="#173D7A"/>
<path d="M407.492 272.348L496.603 323.884L514.578 317.426V339.478C514.578 342.679 512.467 345.899 508.225 348.333L407.492 406.609V272.348Z" fill="#396CAA"/>
<path d="M365.095 277.23L365.674 278.728L365.544 278.859C365.731 278.953 365.899 279.027 366.067 279.14C370.14 281.499 371.766 284.718 371 287.789C370.477 285.711 368.851 283.708 366.067 282.098C364.591 281.236 362.89 280.581 361.097 280.095V277.137L365.095 277.23Z" fill="white"/>
<path d="M330.939 347.395C333.181 346.104 335.872 345.243 338.712 344.793L291.438 317.443L337.834 290.617C338.675 291.647 339.815 292.639 341.291 293.481C348.13 297.431 359.229 297.431 366.068 293.481C372.906 289.531 372.906 283.11 366.068 279.142C364.591 278.28 362.891 277.625 361.097 277.139L407.493 250.312L508.226 308.588C516.69 313.493 516.69 321.412 508.226 326.316L407.493 384.592L360.219 357.242C359.453 358.89 357.958 360.443 355.716 361.735C348.877 365.685 337.778 365.685 330.939 361.735C324.082 357.766 324.082 351.345 330.939 347.395Z" fill="#2261A2"/>
<path d="M330.939 361.719C337.778 365.669 348.877 365.669 355.715 361.719C357.958 360.428 359.434 358.874 360.219 357.226L407.493 384.577L508.225 326.301C511.813 324.223 513.85 321.621 514.41 318.906C515.158 322.594 513.121 326.432 508.225 329.24L407.493 387.516L360.219 360.166C359.453 361.813 357.958 363.367 355.715 364.658C348.877 368.608 337.778 368.608 330.939 364.658C326.865 362.3 325.24 359.08 326.006 356.01C326.529 358.106 328.155 360.128 330.939 361.719Z" fill="white"/>
<path d="M338.711 344.776C337.459 344.982 336.244 345.263 335.067 345.618L291.437 320.384V317.426L338.711 344.776Z" fill="white"/>
<path d="M170.768 415.797L196.872 400.69C192.761 400.54 188.725 399.567 185.605 397.751C182.746 396.104 181.101 394.007 180.634 391.854L180.485 391.948V390.619C180.485 390.581 180.485 390.563 180.485 390.525V368.417L202.552 377.009L197.47 380.435C202.122 380.36 206.831 381.334 210.381 383.393C213.52 385.209 215.202 387.549 215.464 389.907L264.195 361.715L292.84 378.282L295.811 368.342L311.469 367.013V391.517L306.686 390.301C305.639 390.694 304.612 391.124 303.696 391.667C296.857 395.617 296.857 402.038 303.696 406.007C310.535 409.957 321.634 409.957 328.473 406.007C330.715 404.715 332.191 403.161 332.976 401.514L359.136 416.659L380.25 406.812V428.864L279.517 487.14C271.053 492.045 257.338 492.045 248.873 487.14L148.14 428.864V406.812L170.768 415.797Z" fill="url(#paint5_linear_2719_22771)"/>
<path d="M303.696 369.672C304.762 369.054 305.976 368.567 307.228 368.137L307.658 367.294L311.488 367.051V370.009C308.648 370.458 305.957 371.319 303.715 372.611C300.95 374.221 299.324 376.224 298.782 378.302C297.997 375.25 299.623 372.012 303.696 369.672Z" fill="white"/>
<path d="M196.872 378.656C192.761 378.506 188.725 377.533 185.605 375.717C178.766 371.767 178.766 365.346 185.605 361.377C192.443 357.427 203.543 357.427 210.381 361.377C213.52 363.193 215.202 365.533 215.464 367.892L264.195 339.699L311.469 367.049C308.629 367.499 305.938 368.36 303.696 369.652C296.857 373.601 296.857 380.022 303.696 383.991C310.535 387.941 321.634 387.941 328.473 383.991C330.715 382.699 332.191 381.146 332.976 379.498L380.25 406.849L279.517 465.124C271.053 470.029 257.338 470.029 248.873 465.124L148.14 406.849L196.872 378.656Z" fill="url(#paint6_linear_2719_22771)"/>
<path d="M180.671 370.027C181.194 372.105 182.82 374.108 185.604 375.718C188.743 377.534 192.779 378.508 196.871 378.657L192.573 381.147C190.014 380.679 187.622 379.855 185.585 378.676C181.53 376.317 179.905 373.097 180.671 370.027Z" fill="white"/>
<path d="M248.873 465.108C257.338 470.013 271.053 470.013 279.517 465.108L380.25 406.832V409.79L279.517 468.066C271.053 472.97 257.338 472.97 248.873 468.066L148.14 409.79V406.832L248.873 465.108Z" fill="white"/>
<path d="M406.84 349.828C381.196 349.828 360.407 337.801 360.407 322.965C360.407 308.129 381.196 296.102 406.84 296.102C432.485 296.102 453.273 308.129 453.273 322.965C453.273 337.801 432.485 349.828 406.84 349.828Z" fill="#F3F4FF"/>
<path d="M429.057 48.0586C429.057 48.0586 428.048 68.9316 426.459 82.9717C424.871 97.0119 391.144 72.1889 391.144 72.1889V56.2206L429.057 48.0586Z" fill="#161822"/>
<path d="M411.1 307.823C410.596 309.096 401.851 319.748 393.125 322.406C389.332 323.567 386.772 323.716 385.09 323.51C383.409 323.305 382.381 321.582 382.942 319.972C384.436 315.723 388.753 306.906 399.702 301.458C414.52 294.12 411.1 307.823 411.1 307.823Z" fill="#173D7A"/>
<path d="M414.015 311.922C414.015 311.922 410.726 319.653 409.717 326.13C409.101 330.08 411.268 335.21 413.043 338.598C414.146 340.714 416.949 341.182 418.705 339.572C421.564 336.969 425.189 332.458 425.805 325.981C426.814 315.067 425.805 313.157 425.805 313.157L414.015 311.922Z" fill="#173D7A"/>
<path d="M435.054 180.019C435.054 180.019 436.194 193.778 435.054 209.016C433.914 224.236 429.841 295.447 429.075 312.576C429.075 312.576 429.448 317.762 419.433 316.62C409.418 315.478 410.221 309.712 410.221 309.712C410.221 309.712 396.151 309.525 395.703 301.213C395.254 292.902 381.296 201.959 381.296 169.273L435.054 180.019Z" fill="#D4ECFF"/>
<path d="M376.084 108.844L369.189 119.552L345.496 148.231C345.496 148.231 346.318 150.889 349.27 151.582C351.569 152.125 371.506 133.068 380.12 124.718C382.4 122.491 382.792 118.953 381.036 116.294L376.084 108.844Z" fill="#FFC2B0"/>
<path d="M389.537 64.9261C389.537 64.9261 378.587 64.6453 374.776 80.5013C370.964 96.3573 367.974 116.219 371.3 117.867C381.259 122.828 387.556 117.024 387.556 117.024L389.537 64.9261Z" fill="#5793CE"/>
<path d="M386.267 65.6022C388.135 64.8159 390.228 64.7223 392.171 65.2839C401.495 67.9609 436.587 78.2944 442.379 83.2366C449.068 88.9649 432.364 121.108 432.607 131.647C432.849 142.186 434.027 154.617 434.961 166.073C435.895 177.53 437.147 183.82 427.786 188.687C418.424 193.555 402.448 193.779 390.508 184.663C378.55 175.527 380.717 169.293 381.222 162.666C381.726 156.039 385.8 127.379 385.445 119.254C385.445 119.254 381.24 116.147 378.12 110.811C375 105.476 380.512 95.6855 382.791 89.3019C385.071 82.937 381.502 75.6362 382.212 70.4507C382.548 67.755 384.268 66.4446 386.267 65.6022Z" fill="#5793CE"/>
<path d="M413.08 87.2594L409.1 91.8458C408.577 92.4449 408.353 93.2311 408.465 94.0174L411.959 118.41C412.052 119.102 411.884 119.795 411.473 120.357L402.953 132.188C402.579 132.712 401.757 132.6 401.551 131.982L396.338 116.931C396.132 116.369 396.132 115.733 396.338 115.171L404.205 92.707C404.373 92.2202 404.41 91.6774 404.279 91.1719L402.859 85.3125L413.08 87.2594Z" fill="white"/>
<path d="M397.479 76.573C396.731 82.3575 402.038 87.8238 409.325 88.7411C416.613 89.6771 423.115 85.7459 423.844 79.9426C424.591 74.1581 419.285 68.6918 411.997 67.7745C404.729 66.8385 398.226 70.7697 397.479 76.573Z" fill="white"/>
<path d="M401.235 77.0411C400.712 81.1782 404.486 85.072 409.699 85.746C414.894 86.4199 419.546 83.5931 420.088 79.456C420.611 75.3188 416.837 71.425 411.624 70.7511C406.411 70.0959 401.777 72.9039 401.235 77.0411Z" fill="#FFC2B0"/>
<path d="M406.411 63.4494C406.411 63.4494 412.745 58.2265 413.997 60.8661C415.249 63.5056 416.258 74.85 416.258 74.85L403.683 78.2384L405.588 66.7442C405.588 66.7629 403.066 64.6288 406.411 63.4494Z" fill="#FFC2B0"/>
<path d="M399.892 67.8664C389.995 64.7628 384.483 54.2085 387.581 44.2928C390.679 34.377 401.213 28.8548 411.111 31.9585C421.008 35.0621 426.52 45.6164 423.422 55.5321C420.324 65.4478 409.789 70.9701 399.892 67.8664Z" fill="#FFC2B0"/>
<path d="M414.874 64.1778C414.986 64.7768 415.098 65.4133 415.191 66.0498C413.921 72.6018 404.148 75.466 404.148 75.466L405.587 66.7611C405.587 66.7611 404.41 65.7502 404.746 64.7394C408.595 63.5225 413.472 62.4368 414.874 64.1778Z" fill="#EA9C92"/>
<path d="M399.892 67.8664C389.995 64.7628 384.483 54.2085 387.581 44.2928C390.679 34.377 401.213 28.8548 411.111 31.9585C421.008 35.0621 426.52 45.6164 423.422 55.5321C420.324 65.4478 409.789 70.9701 399.892 67.8664Z" fill="#FFC2B0"/>
<path d="M451.777 129.57L449.666 179.928L442.323 180.676L437.539 135.355L451.777 129.57Z" fill="#FFC2B0"/>
<path d="M427.637 125.356C428.03 123.596 431.243 122.155 431.748 119.871C434.271 108.133 434.868 90.8359 434.868 90.8359L436.924 114.461C434.551 121.462 432.514 127.902 432.608 131.627C432.757 137.824 433.224 144.656 433.766 151.564V151.583C433.766 151.602 425.189 136.101 427.637 125.356Z" fill="#396CAA"/>
<path d="M440.978 82.207C440.978 82.207 446.845 84.4535 450.171 102.537C453.497 120.602 455.982 138.723 450.059 141.045C444.136 143.385 439.184 145.126 437.428 140.296C435.69 135.466 434.606 112.159 434.382 103.773C434.176 95.4048 433.859 83.8544 440.978 82.207Z" fill="#5793CE"/>
<path d="M347.252 146.136C347.252 146.136 344.076 147.316 341.778 149.824C339.89 151.883 338.863 153.624 338.04 154.86C336.209 157.593 334.658 163.509 335.78 164.239C336.901 164.969 343.272 154.336 344.3 156.807C345.328 159.278 344.3 161.562 345.608 161.599C346.935 161.637 351.513 150.91 355.119 147.578C358.725 144.264 347.252 146.136 347.252 146.136Z" fill="#FFC2B0"/>
<path d="M410.223 309.733C410.223 309.733 408.485 309.714 406.205 309.321L403.459 198.629L410.223 309.733Z" fill="#396CAA"/>
<path d="M420.853 249.938L424.759 244.828L465.866 220.978C467.193 220.211 468.258 218.17 468.258 216.41L468.221 182.695L470.594 179.607L468.37 178.315C467.94 178.034 467.38 178.053 466.763 178.408L420.162 205.44C418.835 206.208 417.77 208.248 417.77 210.008L417.808 246.737C417.808 247.729 418.144 248.422 418.686 248.703L420.853 249.938Z" fill="#396CAA"/>
<path d="M449.292 230.599L452.207 228.896L468.239 201.003L468.221 182.676L470.594 179.587L468.37 178.295C467.94 178.015 467.38 178.033 466.763 178.389L420.162 205.421C419.471 205.833 418.835 206.581 418.406 207.48L449.292 230.599Z" fill="#396CAA"/>
<path d="M469.547 180.954L470.594 179.587L468.37 178.295C467.94 178.015 467.38 178.033 466.763 178.389L465.941 178.857L469.547 180.954Z" fill="#396CAA"/>
<path d="M419.751 205.719C418.723 206.561 417.919 208.171 417.807 209.65L422.367 212.29L424.553 208.489L419.751 205.719Z" fill="#396CAA"/>
<path d="M422.386 206.695L468.987 179.681C470.314 178.914 471.379 179.719 471.379 181.478L471.416 218.207C471.416 219.967 470.351 222.026 469.024 222.775L422.423 249.807C421.096 250.575 420.031 249.77 420.031 248.01L419.994 211.281C419.994 209.521 421.059 207.462 422.386 206.695Z" fill="#273C7F"/>
<path d="M421.676 206.282L468.278 179.25C469.062 178.801 469.735 178.913 470.184 179.419C469.829 179.344 469.417 179.419 468.988 179.662L422.386 206.694C421.06 207.462 419.995 209.502 419.995 211.262L420.032 247.991C420.032 248.721 420.219 249.264 420.518 249.619C419.808 249.47 419.322 248.74 419.322 247.56L419.285 210.831C419.303 209.09 420.368 207.05 421.676 206.282Z" fill="white"/>
<path d="M431.952 233.05L434.176 231.759V212.664L431.952 213.937V233.05Z" fill="white"/>
<path d="M437.147 230.039L439.352 228.766V209.652L437.147 210.944V230.039Z" fill="white"/>
<path d="M442.323 227.043L444.547 225.77V206.656L442.323 207.948V227.043Z" fill="white"/>
<path d="M449.61 179.495C449.61 179.495 451.553 191.251 451.254 195.014C450.955 198.777 448.956 204.992 447.423 204.861C445.891 204.73 447.367 189.716 444.695 191.214C442.023 192.711 441.724 195.276 440.51 194.359C439.295 193.46 442.621 180.618 441.743 175.058C440.865 169.517 449.61 179.495 449.61 179.495Z" fill="#FFC2B0"/>
<path d="M398.281 51.5617C388.864 54.9126 387.033 52.8721 386.939 52.7597C386.846 52.1981 386.79 51.6178 386.752 51.0375C386.622 48.9596 386.864 46.9378 387.388 45.0283L411.828 41.7148C411.828 41.7148 407.96 48.1171 398.281 51.5617Z" fill="#EA9C92"/>
<path d="M386.08 32.2784C388.303 30.3689 396.319 20.9527 410.67 23.1616C419.639 24.5469 427.206 30.6871 428.888 44.6711C430.009 54.0874 426.571 63.3726 420.199 70.2429C419.863 70.0744 419.489 69.9434 419.171 69.7187C415.584 67.3413 415.191 66.0496 415.191 66.0308L414.388 58.8985C414.407 57.8876 415.173 56.989 416.182 56.9141C416.966 56.858 417.901 56.4836 418.816 55.3042C420.872 52.6085 419.919 48.3964 415.808 48.228C413.659 48.1531 412.818 46.9737 412.519 45.8879C412.258 44.9332 411.249 44.409 410.315 44.746C405.624 46.4495 394.058 50.1187 386.621 48.0033C377.111 45.3076 383.856 34.1878 386.08 32.2784Z" fill="#161822"/>
<path d="M396.787 60.0608L391.05 58.4883C391.05 58.4883 393.797 62.8126 397.796 63.9171C401.794 65.0216 402.43 61.6146 402.43 61.6146L396.787 60.0608Z" fill="white"/>
<path d="M439.837 194.003L444.732 191.195L442.901 194.191L440.435 195.108L439.837 194.003Z" fill="#396CAA"/>
<path d="M416.463 55.7906C416.463 56.8764 417.341 57.7375 418.406 57.7375C419.471 57.7375 420.35 56.8577 420.35 55.7906C420.35 54.7236 419.471 53.8438 418.406 53.8438C417.341 53.8438 416.463 54.7049 416.463 55.7906Z" fill="white"/>
<path d="M122.056 343.033C96.8553 343.033 76.4262 331.215 76.4262 316.638C76.4262 302.06 96.8553 290.242 122.056 290.242C147.256 290.242 167.686 302.06 167.686 316.638C167.686 331.215 147.256 343.033 122.056 343.033Z" fill="#699DD1"/>
<path d="M119.365 302.728C119.869 304.001 128.651 314.709 137.433 317.386C141.245 318.546 143.824 318.696 145.487 318.509C147.169 318.303 148.215 316.562 147.654 314.952C146.141 310.703 141.806 301.829 130.819 296.363C115.945 288.969 119.365 302.728 119.365 302.728Z" fill="#173D7A"/>
<path d="M116.452 306.848C116.452 306.848 119.759 314.617 120.768 321.112C121.384 325.081 119.217 330.229 117.423 333.636C116.321 335.752 113.499 336.238 111.724 334.628C108.847 332.026 105.203 327.496 104.605 320.981C103.596 310.03 104.605 308.102 104.605 308.102L116.452 306.848Z" fill="#173D7A"/>
<path d="M95.2992 174.384C95.2992 174.384 94.1594 188.2 95.2992 203.494C96.439 218.789 100.55 290.3 101.297 307.504C101.297 307.504 100.924 312.708 110.976 311.566C121.048 310.424 120.226 304.639 120.226 304.639C120.226 304.639 134.352 304.452 134.8 296.103C135.249 287.754 149.281 196.437 149.281 163.602L95.2992 174.384Z" fill="#D4ECFF"/>
<path d="M120.243 304.639C120.243 304.639 122 304.62 124.279 304.227L127.045 193.066L120.243 304.639Z" fill="#396CAA"/>
<path d="M110.246 72.9388C87.4128 82.43 87.8799 95.9459 87.8799 95.9459C87.8799 95.9459 92.3457 145.517 90.8322 178.633C90.1969 192.467 164.228 193.534 153.185 156.599C140.162 113.056 145.038 77.8248 138.947 72.5083C132.856 67.1917 116.17 70.4865 110.246 72.9388Z" fill="#5793CE"/>
<path d="M102.904 84.9379C104.099 89.5805 110.172 92.0329 116.469 90.4042C122.766 88.7756 126.914 83.7024 125.718 79.0598C124.523 74.4172 118.45 71.9648 112.153 73.5935C105.856 75.2034 101.708 80.2953 102.904 84.9379Z" fill="#FFC2B0"/>
<path d="M112.583 92.3505C113.984 92.3505 115.423 92.1633 116.843 91.8076C120.188 90.9465 123.084 89.1681 125.027 86.7719C127.064 84.2634 127.811 81.3992 127.12 78.7035C126.428 76.0078 124.392 73.855 121.402 72.6382C118.562 71.4962 115.161 71.3277 111.817 72.1889C108.472 73.05 105.576 74.8284 103.632 77.2246C101.596 79.7331 100.848 82.5973 101.54 85.293C102.231 87.9887 104.268 90.1415 107.257 91.3583C108.883 92.0135 110.695 92.3505 112.583 92.3505ZM116.058 74.5102C117.572 74.5102 119.029 74.7723 120.318 75.2964C122.448 76.1576 123.869 77.6177 124.336 79.4149C124.803 81.212 124.261 83.1776 122.804 84.956C121.253 86.8655 118.88 88.3069 116.133 89.0183C113.386 89.7297 110.602 89.6174 108.322 88.7001C106.192 87.8389 104.772 86.3788 104.305 84.5816C103.838 82.7845 104.38 80.8189 105.837 79.0405C107.388 77.131 109.761 75.6895 112.508 74.9782C113.704 74.6599 114.9 74.5102 116.058 74.5102Z" fill="white"/>
<path d="M119.402 71.9068C119.402 71.9068 119.197 72.824 119.608 80.0688C119.739 82.3526 111.76 84.468 109.705 82.4088C107.649 80.3496 108.471 78.1967 107.967 70.4466C107.481 62.6964 119.402 71.9068 119.402 71.9068Z" fill="#FFC2B0"/>
<path d="M107.987 70.4688C107.987 70.4688 109.949 77.6573 119.609 80.4092L119.46 73.8758L107.987 70.4688Z" fill="#EA9C92"/>
<path d="M101.857 52.1972C99.4282 61.6134 105.071 71.2169 114.47 73.6505C123.869 76.0841 133.454 70.4306 135.883 61.0144C138.312 51.5981 132.669 41.9947 123.271 39.561C113.872 37.1274 104.286 42.7809 101.857 52.1972Z" fill="#FFC2B0"/>
<path d="M114.824 57.2487C114.824 57.2487 124.503 61.4046 131.193 61.442C137.901 61.4982 136.425 55.8634 136.425 55.8634L116.543 52.9805L114.824 57.2487Z" fill="#EA9C92"/>
<path d="M133.211 58.3351C133.211 58.3351 124.784 54.7409 117.384 56.2385C115.646 56.5942 114.04 57.5302 112.918 58.8967C112.545 59.346 112.096 59.7579 111.573 59.8702C110.265 60.1697 108.116 54.7221 105.575 54.5911C103.034 54.46 101.333 56.2759 103.408 59.6268C105.5 62.9777 104.79 66.7218 103.837 67.2647C102.884 67.8075 92.6821 59.9825 101.67 42.1235C110.657 24.2644 133.528 33.8866 137.079 37.4996C137.079 37.4996 140.816 40.7756 143.861 37.8553C143.843 37.8927 147.262 63.5019 133.211 58.3351Z" fill="#161822"/>
<path d="M150.122 68.8944L162.398 63.5966C163.799 62.9975 164.883 61.8182 165.388 60.358L177.514 25.1641L183.139 26.1375L173.348 69.9427C172.899 71.9832 171.591 73.7429 169.76 74.7725L149.318 86.2667L150.122 68.8944Z" fill="#FFC2B0"/>
<path d="M22.3695 74.6026L19.548 73.3109C17.1563 72.2064 14.9514 70.69 13.0829 68.8367L11.121 66.8898C10.0185 65.8041 9.68217 64.138 10.2801 62.6965C10.7472 61.5733 12.0739 61.0866 13.1577 61.6295L19.0435 64.606C19.0435 64.606 18.1279 62.0039 18.5577 61.3112C19.0062 60.6373 23.5467 65.673 25.6582 69.2299C27.7883 72.8429 22.3695 74.6026 22.3695 74.6026Z" fill="#FFC2B0"/>
<path d="M71.3809 88.698L60.8797 87.5186C58.3945 87.2378 56.0028 86.4703 53.8166 85.2347L25.6765 69.2852L22.3691 74.6204L51.1446 96.86C52.0415 97.5526 53.0131 98.1142 54.0408 98.5635L71.194 105.902L71.3809 88.698Z" fill="#FFC2B0"/>
<path d="M183.138 26.1366L184.203 24.901C185.436 23.4783 186.24 21.7186 186.52 19.8653L187.267 14.736C187.491 13.1448 186.875 11.5161 185.586 10.5614C185.53 10.5239 185.492 10.4865 185.436 10.4678C184.072 9.53176 182.185 10.2057 181.55 11.7407L179.027 17.8622C179.027 17.8622 179.83 14.6985 178.803 14.3428C178.055 14.0808 176.635 18.012 177.476 20.2023C178.317 22.3925 177.532 25.2005 177.532 25.2005L183.138 26.1366Z" fill="#FFC2B0"/>
<path d="M125.848 68.7269L130.389 67.4727C130.389 67.4727 128.221 70.8797 125.063 71.7596C121.906 72.6394 121.401 69.9437 121.401 69.9437L125.848 68.7269Z" fill="white"/>
<path d="M132.649 69.9781C132.649 69.9781 153.166 65.9159 159.425 64.0064C165.685 62.0969 168.301 79.3382 167.834 83.7C167.367 88.0618 146.028 92.9478 143.487 100.436C140.946 107.924 132.649 69.9781 132.649 69.9781Z" fill="#5793CE"/>
<path d="M101.297 77.543C101.297 77.543 86.3112 83.9827 61.2168 87.1277C60.1891 87.2587 59.3295 87.9327 58.9932 88.9061C58.0216 91.6954 56.3773 97.7608 57.6666 104.013C58.1898 106.597 60.5254 108.394 63.1601 108.375C71.0079 108.319 87.9182 109.068 90.6462 116.425C94.2338 126.066 101.297 77.543 101.297 77.543Z" fill="#5793CE"/>
<path d="M110.115 91.0949L114.226 95.569C114.768 96.1493 115.011 96.9356 114.917 97.7218L112.096 122.208C112.021 122.9 112.208 123.593 112.619 124.136L121.457 135.724C121.849 136.229 122.653 136.098 122.858 135.48L127.679 120.298C127.866 119.718 127.847 119.1 127.623 118.539L119.159 96.2991C118.972 95.8124 118.934 95.2882 119.047 94.764L120.28 88.8672L110.115 91.0949Z" fill="white"/>
<path d="M65.2152 103.824C69.6997 104.348 80.7054 105.303 89.1886 105.995C94.0467 106.407 97.2606 111.087 96.0461 115.805C91.5242 133.177 97.5035 161.089 96.4385 170.542C95.1492 181.849 101.988 186.23 102.025 186.249C95.28 184.789 90.7021 182.112 90.8516 178.63C91.7858 158.299 90.4592 131.773 89.3007 114.307C84.3677 108.916 70.0734 108.317 63.0851 108.373C60.4131 108.391 58.1708 106.482 57.6477 103.861C56.9937 100.604 57.1431 97.4215 57.5729 94.707C57.5542 94.8942 57.5542 102.925 65.2152 103.824Z" fill="#396CAA"/>
<path d="M258.159 440.543C228.336 440.543 204.159 426.554 204.159 409.299C204.159 392.043 228.336 378.055 258.159 378.055C287.983 378.055 312.16 392.043 312.16 409.299C312.16 426.554 287.983 440.543 258.159 440.543Z" fill="#F3F4FF"/>
<path d="M291.25 392.754C295.006 394.364 297.379 398.557 297.061 403.087C296.912 405.221 296.65 407.206 296.221 408.142C295.025 410.65 291.101 414.113 284.841 411.642C278.582 409.171 264.68 396.067 264.157 387.493C263.166 371.562 281.347 388.523 291.25 392.754Z" fill="#173D7A"/>
<path d="M254.459 419.074C254.459 419.074 255.954 428.247 255.226 429.932C254.497 431.617 250.143 435.211 243.697 434.425C237.25 433.657 218.733 427.255 214.604 415.012C208.213 396.049 250.367 416.435 250.367 416.435L254.459 419.074Z" fill="#173D7A"/>
<path d="M236.353 272.363L234.914 415.629C235.064 420.608 238.315 424.82 242.706 425.569C243.248 425.663 243.827 425.738 244.444 425.794C248.872 426.187 251.47 424.277 252.946 422.274C254.142 420.646 254.777 418.586 254.852 416.49L256.683 355.331L265.801 300.649L278.414 397.433C278.619 400.053 279.871 402.468 281.871 403.797C283.253 404.715 285.141 405.426 287.626 405.351C291.232 405.239 293.736 403.311 295.268 401.588C296.483 400.222 297.118 398.331 297.099 396.403L292.092 338.165L290.223 263.883L236.353 272.363Z" fill="#D4ECFF"/>
<path d="M254.87 144.129L257.131 157.177C257.131 157.177 257.224 161.632 252.254 162.868C247.284 164.103 245.751 160.883 245.751 160.883L243.509 146.188L254.87 144.129Z" fill="#FFC2B0"/>
<path d="M227.515 136.979C231.046 148.155 241.94 154.651 251.88 151.468C261.802 148.286 266.997 136.642 263.484 125.466C259.952 114.29 249.059 107.794 239.118 110.977C229.178 114.14 223.983 125.784 227.515 136.979Z" fill="#FFC2B0"/>
<path d="M254.272 157.423C254.609 157.291 275.331 143.925 282.992 157.909C295.474 180.71 286.336 206.863 290.802 263.641C291.55 273.132 278.04 278.935 271.65 282.586C265.969 285.843 259.616 287.827 253.058 287.883C246.593 287.94 234.167 282.174 234.615 273.694C236.689 234.699 233.251 201.827 230.075 169.928C230.093 169.89 234.073 165.622 254.272 157.423Z" fill="#5793CE"/>
<path d="M265.802 300.629L278.415 397.412C278.62 400.033 279.872 402.448 281.871 403.777C282.208 404.002 282.563 404.208 282.955 404.395C280.339 402.429 272.697 321.184 271.277 312.161C269.857 303.119 265.802 300.629 265.802 300.629Z" fill="#396CAA"/>
<path d="M187.099 169.231L169.759 134.73L175.197 131.285L193.172 157.568L187.099 169.231Z" fill="#FFC2B0"/>
<path d="M301.51 132.596L293.064 94.1445L286.356 94.2194L288.878 126.119L301.51 132.596Z" fill="#FFC2B0"/>
<path d="M230.094 169.887C230.094 169.887 210.699 177.562 194.031 156.483C192.555 154.63 189.547 154.836 188.669 156.839C187.174 160.283 185.287 165.506 187.566 170.411C197.638 192.07 232.019 191.321 240.296 203.471C248.574 215.601 230.094 169.887 230.094 169.887Z" fill="#5793CE"/>
<path d="M267.428 152.626C267.428 152.626 283.441 153.861 285.758 139.971C286.954 132.82 287.309 128.551 287.365 126.08C287.403 124.414 288.86 123.16 290.505 123.366C294.335 123.834 300.277 124.995 301.08 127.559C302.276 131.397 304.537 150.267 288.729 179.208C278.359 198.172 267.428 152.626 267.428 152.626Z" fill="#5793CE"/>
<path d="M293.102 94.2389L292.952 89.8584C292.896 88.3046 292.448 86.807 291.644 85.4779L287.216 78.177L286.057 76.7168C284.992 75.369 283.086 75.032 281.629 75.9493L280.601 76.5858C279.293 77.4095 278.546 78.8697 278.658 80.4047L280.956 86.6385L278.06 86.0769C277.499 85.9646 276.957 86.339 276.845 86.9006C276.752 87.3873 277.013 87.8553 277.481 88.0426L282.227 89.952L286.524 96.0548L293.102 94.2389Z" fill="#FFC2B0"/>
<path d="M169.628 134.955L167.591 131.061C166.881 129.694 166.526 128.159 166.564 126.606L166.825 118.069L167.106 116.235C167.367 114.531 168.862 113.296 170.581 113.37L171.777 113.427C173.309 113.501 174.692 114.4 175.365 115.785L176.448 122.356L178.691 120.428C179.12 120.054 179.793 120.11 180.148 120.559C180.466 120.933 180.466 121.476 180.167 121.869L176.99 125.875L176.168 134.243L169.628 134.955Z" fill="#FFC2B0"/>
<path d="M242.745 199.127C244.427 206.821 234.28 264.929 245.566 286.176C239.923 283.892 234.336 279.399 234.635 273.671C236.112 245.778 234.785 221.03 232.73 197.517C223.069 192.613 207.971 189.692 197.302 181.867C208.756 186.079 241.231 192.238 242.745 199.127Z" fill="#396CAA"/>
<path d="M261.729 153.731L258.851 150.773C258.851 150.773 254.124 155.622 250.312 156.464C250.312 156.464 245.734 157.756 243.492 157.868L241.642 162.979C241.66 162.979 256.721 161.893 261.729 153.731Z" fill="white"/>
<path d="M241.026 137.312C240.222 137.294 239.493 136.938 239.045 136.283C238.26 135.141 238.765 129.899 236.336 129.038C232.543 127.69 223.555 132.426 222.602 118.742C222.097 111.628 225.554 109.738 225.536 105.844C225.536 105.844 225.237 107.791 243.511 106.574C261.785 105.357 267.727 121.625 268.157 129.356C268.587 137.106 264.849 149.836 252.349 151.577C250.275 151.858 241.586 144.857 241.81 143.939C242.035 143.022 245.323 143.078 244.837 140.401C244.464 138.174 243.1 137.35 241.026 137.312Z" fill="#173D7A"/>
</g>
<defs>
<linearGradient id="paint0_linear_2719_22771" x1="509.017" y1="140.329" x2="482.28" y2="140.329" gradientUnits="userSpaceOnUse">
<stop stop-color="#002680"/>
<stop offset="1" stop-color="#1C67A6"/>
</linearGradient>
<linearGradient id="paint1_linear_2719_22771" x1="490.606" y1="141.758" x2="543" y2="141.758" gradientUnits="userSpaceOnUse">
<stop stop-color="#002680"/>
<stop offset="1" stop-color="#1C67A6"/>
</linearGradient>
<linearGradient id="paint2_linear_2719_22771" x1="243.856" y1="253.121" x2="131.988" y2="253.121" gradientUnits="userSpaceOnUse">
<stop stop-color="#002680"/>
<stop offset="1" stop-color="#1C67A6"/>
</linearGradient>
<linearGradient id="paint3_linear_2719_22771" x1="269.261" y1="282.266" x2="208.003" y2="282.266" gradientUnits="userSpaceOnUse">
<stop stop-color="#002680"/>
<stop offset="1" stop-color="#1C67A6"/>
</linearGradient>
<linearGradient id="paint4_linear_2719_22771" x1="243.856" y1="231.07" x2="131.988" y2="231.07" gradientUnits="userSpaceOnUse">
<stop stop-color="#002680"/>
<stop offset="1" stop-color="#1C67A6"/>
</linearGradient>
<linearGradient id="paint5_linear_2719_22771" x1="148.14" y1="426.267" x2="380.25" y2="426.267" gradientUnits="userSpaceOnUse">
<stop stop-color="#002680"/>
<stop offset="1" stop-color="#1C67A6"/>
</linearGradient>
<linearGradient id="paint6_linear_2719_22771" x1="243.856" y1="404.251" x2="131.988" y2="404.251" gradientUnits="userSpaceOnUse">
<stop stop-color="#002680"/>
<stop offset="1" stop-color="#1C67A6"/>
</linearGradient>
<clipPath id="clip0_2719_22771">
<rect width="533" height="514" fill="white" transform="matrix(-1 0 0 1 543 10)"/>
</clipPath>
</defs>
</svg>
