<svg width="1144" height="424" viewBox="0 0 1144 424" fill="none" xmlns="http://www.w3.org/2000/svg">
<path d="M236.51 247.479C220.949 251.856 191.556 282.362 209.779 296.672C228.001 310.982 282.448 234.556 236.51 247.479Z" fill="#ECF2FA"/>
<path d="M240.714 242.85C174.743 256.495 194.536 291.329 150.52 299.534C91.1315 310.604 63.2828 220.225 100.515 164.444C130.272 119.873 181.596 105.791 227.07 124.095C291.303 149.952 292.786 232.08 240.714 242.85Z" fill="#C7E5FD"/>
<path d="M261.84 291.712L269.484 288.068L267.638 282.977C269.608 281.434 271.296 279.552 272.626 277.417L277.791 278.816L280.657 270.759L275.803 268.485C276.122 265.981 276.007 263.439 275.462 260.975L280.086 258.254L276.496 250.496L271.479 252.369C269.958 250.371 268.104 248.658 266.002 247.306L267.377 242.063L259.44 239.156L257.201 244.081C254.732 243.757 252.227 243.874 249.799 244.429L247.118 239.734L239.474 243.379L241.318 248.47C239.35 250.014 237.662 251.895 236.331 254.028L231.165 252.633L228.301 260.687L233.154 262.961C232.836 265.465 232.951 268.007 233.494 270.472L228.87 273.193L232.461 280.951L237.479 279.078C238.998 281.077 240.851 282.79 242.954 284.139L241.579 289.382L249.517 292.29L251.758 287.365C254.225 287.687 256.729 287.569 259.157 287.017L261.84 291.712ZM240.681 272.299C237.102 264.567 240.38 255.354 247.999 251.721C250.727 250.42 253.775 249.97 256.756 250.427C259.736 250.885 262.516 252.229 264.745 254.289C266.973 256.35 268.549 259.035 269.273 262.005C269.998 264.974 269.838 268.095 268.815 270.973C267.792 273.851 265.951 276.356 263.525 278.172C261.098 279.988 258.196 281.033 255.185 281.175C252.173 281.317 249.188 280.549 246.607 278.969C244.025 277.39 241.963 275.068 240.681 272.299Z" fill="#425FEC"/>
<path d="M240.553 246.904L239.24 243.28L245.005 240.531L245.163 240.875L239.709 243.474L240.903 246.773L240.553 246.904Z" fill="#1F191A"/>
<path d="M228.963 273.357L228.775 273.029L233.274 270.381C232.535 267.617 232.815 264.714 232.819 264.684L233.191 264.722C233.191 264.752 232.906 267.685 233.675 270.42L233.715 270.561L228.963 273.357Z" fill="#1F191A"/>
<path d="M250.74 280.914L250.822 280.545C262.515 283.236 267.657 273.126 267.706 273.023L268.039 273.193C267.987 273.302 262.718 283.669 250.74 280.914Z" fill="#1F191A"/>
<path d="M269.988 280.635C270.88 279.579 271.709 278.469 272.469 277.311L272.544 277.195L274.441 277.709L274.344 278.074L272.706 277.631C271.956 278.761 271.142 279.846 270.269 280.881L269.988 280.635Z" fill="#1F191A"/>
<path d="M234.285 282.433L230.548 274.359L235.202 271.619C235.04 270.901 234.347 267.525 234.867 264.307L229.986 262.02L232.967 253.638L238.165 255.042C239.472 252.974 241.114 251.145 243.022 249.634L241.165 244.507L249.12 240.715L251.82 245.442C252.586 245.273 256.344 244.509 259.027 245.092L261.278 240.145L269.538 243.171L268.156 248.435C268.751 248.763 271.167 250.219 273.485 253.372L278.535 251.487L282.27 259.56L277.617 262.301C277.783 263.027 278.503 266.471 277.952 269.613L282.833 271.899L279.851 280.283L274.657 278.878C274.309 279.486 272.71 282.104 269.798 284.289L271.655 289.412L263.7 293.204L261.001 288.484C258.642 289.057 256.197 289.17 253.796 288.819L251.541 293.774L243.281 290.753L244.662 285.489C244.047 285.153 241.469 283.624 239.33 280.555L234.285 282.433ZM231.026 274.511L234.475 281.961L239.47 280.098L239.552 280.216C241.944 283.715 244.929 285.203 244.959 285.217L245.097 285.285L243.726 290.515L251.348 293.306L253.578 288.405L253.715 288.429C257.647 289.075 261.005 288.097 261.038 288.087L261.177 288.045L263.849 292.72L271.19 289.22L269.354 284.155L269.467 284.071C272.778 281.629 274.387 278.603 274.403 278.572L274.472 278.442L279.619 279.833L282.372 272.098L277.539 269.835L277.567 269.69C278.219 266.218 277.238 262.301 277.228 262.258L277.193 262.12L281.794 259.412L278.346 251.96L273.356 253.825L273.273 253.711C270.689 250.148 267.888 248.716 267.861 248.702L267.724 248.634L269.095 243.407L261.474 240.616L259.24 245.527L259.094 245.492C256.235 244.807 251.814 245.828 251.773 245.838L251.64 245.869L248.973 241.202L241.632 244.701L243.465 249.765L243.357 249.849C240.178 252.295 238.432 255.323 238.415 255.355L238.344 255.479L233.202 254.093L230.452 261.828L235.283 264.092L235.258 264.234C234.641 267.8 235.586 271.632 235.596 271.67L235.63 271.807L231.026 274.511Z" fill="#1F191A"/>
<path d="M244.964 277.478C239.251 271.073 239.738 261.145 246.049 255.346C252.36 249.548 262.143 250.042 267.857 256.447C273.571 262.853 273.083 272.78 266.772 278.578C260.462 284.377 250.678 283.883 244.964 277.478ZM267.582 256.699C262.006 250.447 252.457 249.966 246.297 255.624C240.138 261.283 239.663 270.974 245.239 277.225C250.816 283.477 260.364 283.96 266.524 278.3C272.684 272.641 273.16 262.951 267.582 256.699Z" fill="#1F191A"/>
<path d="M261.976 229.54L266.869 227.208L265.686 223.949C266.947 222.962 268.028 221.758 268.878 220.391L272.184 221.285L274.02 216.134L270.913 214.678C271.118 213.077 271.044 211.452 270.696 209.876L273.655 208.133L271.363 203.159L268.15 204.36C267.177 203.081 265.99 201.984 264.645 201.119L265.526 197.765L260.443 195.902L259.009 199.054C257.431 198.848 255.829 198.923 254.277 199.276L252.56 196.272L247.667 198.605L248.85 201.863C247.59 202.851 246.51 204.056 245.657 205.421L242.351 204.528L240.514 209.683L243.619 211.138C243.416 212.74 243.49 214.365 243.838 215.941L240.878 217.687L243.176 222.653L246.388 221.452C247.36 222.732 248.546 223.828 249.892 224.692L249.012 228.048L254.093 229.908L255.527 226.756C257.105 226.962 258.706 226.887 260.259 226.533L261.976 229.54ZM248.435 217.114C247.615 215.342 247.332 213.363 247.62 211.427C247.908 209.491 248.756 207.685 250.056 206.238C251.355 204.791 253.049 203.767 254.921 203.297C256.794 202.826 258.762 202.93 260.577 203.595C262.392 204.26 263.972 205.455 265.117 207.031C266.262 208.607 266.921 210.492 267.01 212.448C267.1 214.404 266.616 216.343 265.619 218.02C264.623 219.696 263.159 221.035 261.413 221.868C260.253 222.421 258.998 222.736 257.718 222.796C256.438 222.857 255.159 222.66 253.954 222.219C252.749 221.778 251.641 221.1 250.694 220.224C249.747 219.348 248.98 218.291 248.435 217.114Z" fill="#7109B5"/>
<path d="M248.351 200.863L247.51 198.544L251.2 196.785L251.302 197.004L247.81 198.668L248.574 200.779L248.351 200.863Z" fill="#1F191A"/>
<path d="M240.933 217.797L240.812 217.588L243.693 215.892C243.219 214.124 243.398 212.265 243.4 212.246L243.637 212.271C243.637 212.29 243.455 214.167 243.947 215.917L243.973 216.009L240.933 217.797Z" fill="#1F191A"/>
<path d="M254.869 222.628L254.922 222.392C262.406 224.114 265.696 217.644 265.728 217.578L265.942 217.686C265.908 217.754 262.534 224.392 254.869 222.628Z" fill="#1F191A"/>
<path d="M267.191 222.452C267.762 221.777 268.293 221.068 268.779 220.328L268.826 220.254L270.041 220.583L269.979 220.817L268.931 220.534C268.451 221.257 267.931 221.951 267.372 222.613L267.191 222.452Z" fill="#1F191A"/>
<path d="M244.339 223.605L241.946 218.433L244.926 216.679C244.822 216.217 244.38 214.058 244.712 211.999L241.588 210.535L243.499 205.17L246.826 206.069C247.662 204.745 248.713 203.575 249.934 202.607L248.742 199.328L253.834 196.901L255.563 199.925C256.052 199.817 258.457 199.33 260.176 199.702L261.615 196.535L266.902 198.475L266.018 201.845C266.399 202.055 267.945 202.988 269.429 205.005L272.661 203.799L275.051 208.97L272.073 210.725C272.18 211.187 272.64 213.394 272.289 215.404L275.412 216.868L273.501 222.234L270.176 221.334C269.369 222.682 268.313 223.858 267.065 224.797L268.255 228.077L263.163 230.504L261.434 227.483C259.924 227.849 258.359 227.922 256.822 227.697L255.38 230.869L250.092 228.93L250.977 225.556C250.583 225.341 248.933 224.362 247.565 222.397L244.339 223.605ZM242.254 218.537L244.461 223.307L247.658 222.113L247.71 222.189C249.241 224.429 251.152 225.381 251.168 225.39L251.259 225.434L250.382 228.781L255.262 230.568L256.688 227.428L256.779 227.441C258.34 227.685 259.933 227.611 261.465 227.223L261.556 227.197L263.267 230.189L267.965 227.948L266.79 224.706L266.862 224.653C268.141 223.711 269.216 222.513 270.022 221.134L270.066 221.049L273.36 221.94L275.12 216.989L272.026 215.54L272.044 215.448C272.461 213.225 271.834 210.717 271.827 210.691L271.804 210.598L274.75 208.865L272.542 204.096L269.348 205.288L269.296 205.215C267.641 202.936 265.849 202.019 265.831 202.01L265.745 201.966L266.622 198.621L261.743 196.834L260.314 199.974L260.223 199.952C258.394 199.514 255.565 200.167 255.537 200.174L255.452 200.194L253.745 197.207L249.047 199.447L250.22 202.687L250.151 202.741C248.899 203.716 247.828 204.909 246.988 206.265L246.942 206.345L243.652 205.456L241.884 210.41L244.978 211.86L244.962 211.952C244.567 214.235 245.172 216.687 245.178 216.711L245.2 216.803L242.254 218.537Z" fill="#1F191A"/>
<path d="M251.175 220.431C249.864 218.961 249.011 217.128 248.725 215.166C248.44 213.204 248.734 211.2 249.57 209.408C250.407 207.615 251.748 206.115 253.425 205.096C255.102 204.077 257.039 203.586 258.991 203.684C260.943 203.783 262.823 204.466 264.392 205.649C265.961 206.831 267.149 208.459 267.807 210.327C268.464 212.195 268.561 214.219 268.085 216.142C267.609 218.066 266.582 219.803 265.133 221.135C263.189 222.917 260.627 223.844 258.011 223.712C255.394 223.58 252.936 222.4 251.175 220.431ZM265.652 207.132C264.371 205.697 262.7 204.679 260.85 204.207C258.999 203.735 257.053 203.831 255.256 204.482C253.459 205.133 251.893 206.31 250.756 207.865C249.618 209.419 248.96 211.281 248.866 213.215C248.771 215.149 249.243 217.068 250.223 218.729C251.203 220.391 252.647 221.72 254.371 222.548C256.096 223.377 258.023 223.668 259.911 223.385C261.798 223.102 263.56 222.257 264.975 220.957C266.869 219.214 268.004 216.778 268.131 214.186C268.257 211.594 267.366 209.057 265.652 207.131V207.132Z" fill="#1F191A"/>
<path d="M277.786 300.461H83.5566V301.566H277.786V300.461Z" fill="#101C3A"/>
<path fill-rule="evenodd" clip-rule="evenodd" d="M280.32 185.098C280.32 185.412 280.228 185.719 280.057 185.98C279.885 186.241 279.641 186.444 279.355 186.564C279.07 186.684 278.755 186.716 278.452 186.654C278.149 186.593 277.87 186.442 277.652 186.221C277.433 185.999 277.284 185.716 277.224 185.408C277.163 185.101 277.194 184.782 277.312 184.492C277.43 184.202 277.631 183.954 277.888 183.78C278.144 183.605 278.447 183.512 278.756 183.512C279.171 183.512 279.568 183.679 279.862 183.976C280.155 184.274 280.32 184.677 280.32 185.098Z" fill="#425FEC"/>
<path d="M120.569 109.021C120.722 108.158 120.157 107.333 119.308 107.178C118.458 107.022 117.645 107.596 117.492 108.458C117.339 109.32 117.904 110.145 118.753 110.301C119.603 110.456 120.416 109.883 120.569 109.021Z" fill="#425FEC"/>
<path fill-rule="evenodd" clip-rule="evenodd" d="M252.176 107.274C252.175 107.588 252.082 107.894 251.91 108.155C251.738 108.415 251.493 108.618 251.207 108.737C250.921 108.857 250.607 108.888 250.304 108.826C250.001 108.764 249.723 108.612 249.504 108.39C249.286 108.167 249.138 107.885 249.078 107.577C249.019 107.269 249.05 106.95 249.169 106.66C249.288 106.371 249.489 106.123 249.746 105.949C250.003 105.776 250.306 105.683 250.615 105.684C250.82 105.684 251.024 105.725 251.213 105.805C251.403 105.885 251.575 106.003 251.72 106.15C251.865 106.298 251.98 106.473 252.058 106.666C252.136 106.859 252.176 107.065 252.176 107.274Z" fill="#FC721A"/>
<path d="M85.4222 189.656L85.4486 189.685L87.8774 187.506L84.8635 186.48L84.7998 186.637C84.6367 187.151 84.6084 187.7 84.7175 188.23C84.8266 188.759 85.0695 189.25 85.4222 189.656Z" fill="#FC721A"/>
<path d="M90.3303 285.802L90.3558 285.833L92.7846 283.651L89.7707 282.629L89.707 282.786C89.5446 283.3 89.5167 283.849 89.626 284.378C89.7353 284.906 89.978 285.397 90.3303 285.802Z" fill="#425FEC"/>
<path d="M279.815 233.084L279.842 233.114L282.271 230.932L279.257 229.906L279.193 230.062C279.029 230.578 279.001 231.127 279.11 231.657C279.219 232.187 279.462 232.679 279.815 233.084Z" fill="#FC721A"/>
<path d="M264.956 132.814L265.984 134.062C264.88 134.334 263.721 134.25 262.667 133.822C261.396 133.329 260.213 132.416 259.118 131.083C258.056 129.795 257.353 128.5 257.009 127.198C256.665 125.896 256.724 124.662 257.186 123.496C257.647 122.326 258.392 121.293 259.35 120.492C260.401 119.588 261.663 118.974 263.014 118.705C264.376 118.433 265.662 118.55 266.872 119.055C268.082 119.559 269.165 120.391 270.122 121.548C270.933 122.533 271.466 123.568 271.719 124.652C271.975 125.684 271.918 126.771 271.557 127.77C271.197 128.761 270.584 129.637 269.78 130.308C268.822 131.132 267.617 131.604 266.361 131.648C264.727 131.727 263.415 131.165 262.424 129.963C262.156 129.639 262.012 129.347 261.987 129.089C261.966 128.821 262.045 128.555 262.208 128.344C261.39 128.257 260.733 127.912 260.237 127.31C259.703 126.662 259.48 125.937 259.568 125.136C259.656 124.335 260.066 123.624 260.798 123.003C261.676 122.246 262.763 121.782 263.91 121.675C265.332 121.529 266.445 121.944 267.251 122.92C267.823 123.615 267.984 124.35 267.736 125.127L268.496 124.729L269.77 126.275L264.901 128.907C264.7 129.009 264.508 129.125 264.325 129.257C264.242 129.317 264.185 129.406 264.164 129.507C264.158 129.546 264.16 129.586 264.17 129.625C264.181 129.663 264.199 129.699 264.225 129.729C264.379 129.914 264.69 130.062 265.158 130.172C265.808 130.322 266.486 130.311 267.131 130.139C267.805 129.979 268.433 129.663 268.965 129.215C269.911 128.412 270.417 127.392 270.481 126.156C270.545 124.921 270.064 123.68 269.037 122.435C268.165 121.377 267.213 120.661 266.181 120.286C265.165 119.911 264.061 119.862 263.016 120.145C261.961 120.414 260.98 120.922 260.145 121.631C259.357 122.286 258.767 123.155 258.444 124.136C258.121 125.104 258.116 126.152 258.43 127.123C258.743 128.134 259.299 129.124 260.097 130.092C260.866 131.026 261.654 131.72 262.463 132.174C263.221 132.614 264.083 132.835 264.956 132.814ZM262.111 124.47C261.622 124.886 261.345 125.292 261.28 125.688C261.245 125.871 261.251 126.06 261.299 126.24C261.346 126.42 261.433 126.587 261.553 126.728C261.733 126.948 261.966 127.117 262.23 127.218C262.463 127.307 262.709 127.351 262.958 127.349C263.363 127.356 263.853 127.244 264.428 127.012C264.95 126.811 265.437 126.527 265.871 126.17C266.305 125.801 266.555 125.415 266.619 125.013C266.653 124.824 266.644 124.629 266.594 124.443C266.544 124.258 266.453 124.086 266.329 123.941C266.052 123.605 265.668 123.403 265.178 123.335C264.687 123.267 264.145 123.362 263.553 123.619C263.034 123.831 262.548 124.117 262.111 124.47Z" fill="#425FEC"/>
<path d="M188.862 119.022L190.445 118.768C190.109 119.868 189.443 120.835 188.539 121.533C187.468 122.386 186.089 122.948 184.4 123.22C182.766 123.483 181.31 123.43 180.032 123.061C178.754 122.692 177.742 122.007 176.994 121.007C176.242 120.004 175.751 118.824 175.567 117.577C175.342 116.198 175.47 114.785 175.938 113.47C176.406 112.145 177.164 111.085 178.213 110.29C179.262 109.494 180.522 108.978 181.993 108.742C183.241 108.541 184.39 108.608 185.437 108.945C186.442 109.252 187.332 109.859 187.991 110.687C188.644 111.509 189.07 112.493 189.226 113.538C189.43 114.795 189.21 116.086 188.602 117.201C187.831 118.666 186.682 119.521 185.156 119.767C184.746 119.833 184.428 119.809 184.193 119.698C183.957 119.578 183.772 119.373 183.677 119.123C183.182 119.791 182.553 120.186 181.791 120.308C180.968 120.441 180.24 120.263 179.607 119.775C178.974 119.287 178.583 118.565 178.434 117.609C178.244 116.456 178.409 115.272 178.905 114.216C179.512 112.903 180.435 112.147 181.674 111.946C182.556 111.804 183.26 112.041 183.787 112.658L183.843 111.79L185.805 111.475L185.532 117.062C185.514 117.288 185.514 117.516 185.532 117.742C185.54 117.845 185.586 117.941 185.66 118.011C185.69 118.037 185.726 118.056 185.764 118.067C185.802 118.077 185.842 118.08 185.88 118.073C186.118 118.034 186.402 117.839 186.733 117.487C187.194 116.996 187.532 116.4 187.718 115.75C187.928 115.08 187.982 114.37 187.874 113.675C187.68 112.439 187.077 111.476 186.066 110.786C185.055 110.095 183.76 109.878 182.181 110.135C180.839 110.351 179.745 110.812 178.897 111.52C178.059 112.213 177.45 113.15 177.154 114.205C176.84 115.262 176.766 116.377 176.936 117.467C177.085 118.491 177.516 119.452 178.18 120.238C178.833 121.016 179.717 121.558 180.7 121.784C181.716 122.03 182.838 122.054 184.067 121.856C185.25 121.666 186.242 121.335 187.042 120.863C187.802 120.429 188.432 119.793 188.862 119.022ZM180.346 117.217C180.445 117.855 180.646 118.305 180.948 118.565C181.085 118.69 181.247 118.782 181.424 118.834C181.6 118.886 181.785 118.897 181.967 118.865C182.245 118.822 182.508 118.704 182.728 118.526C182.923 118.37 183.087 118.179 183.212 117.961C183.426 117.612 183.583 117.128 183.682 116.51C183.78 115.951 183.79 115.381 183.711 114.82C183.622 114.251 183.423 113.836 183.116 113.574C182.973 113.447 182.804 113.354 182.622 113.303C182.439 113.251 182.247 113.242 182.06 113.276C181.636 113.345 181.268 113.575 180.957 113.968C180.647 114.361 180.449 114.881 180.363 115.529C180.277 116.088 180.271 116.656 180.346 117.217Z" fill="#390D9F"/>
<path d="M97.2716 236.974L98.2435 235.682C98.7489 236.713 98.9242 237.88 98.7449 239.017C98.5514 240.384 97.9356 241.757 96.8976 243.137C95.8948 244.473 94.8058 245.455 93.6307 246.082C92.4556 246.71 91.2565 246.925 90.0335 246.729C88.8066 246.531 87.6487 246.023 86.6665 245.251C85.5668 244.41 84.6977 243.297 84.1421 242.019C83.5791 240.731 83.4065 239.433 83.6243 238.122C83.8421 236.812 84.4027 235.556 85.306 234.354C86.0728 233.335 86.9495 232.58 87.9359 232.089C88.871 231.607 89.9279 231.422 90.968 231.56C92.0007 231.697 92.9785 232.112 93.8009 232.76C94.8043 233.527 95.5237 234.615 95.8429 235.848C96.2803 237.449 96.0307 238.872 95.094 240.117C94.8422 240.453 94.5944 240.662 94.3505 240.742C94.0984 240.822 93.8259 240.803 93.587 240.689C93.6823 241.518 93.4957 242.244 93.0274 242.867C92.5232 243.54 91.8762 243.921 91.0863 244.01C90.2965 244.099 89.5226 243.851 88.7649 243.265C87.8437 242.563 87.1578 241.589 86.8002 240.477C86.3458 239.102 86.4975 237.908 87.2552 236.896C87.797 236.176 88.4683 235.853 89.2691 235.929L88.7231 235.263L89.9279 233.661L93.5279 237.896C93.6695 238.072 93.8243 238.237 93.991 238.389C94.066 238.457 94.1635 238.494 94.264 238.493C94.3032 238.49 94.3413 238.479 94.3759 238.46C94.4104 238.442 94.4405 238.415 94.4642 238.384C94.6098 238.19 94.6826 237.849 94.6826 237.362C94.683 236.685 94.5225 236.018 94.2149 235.417C93.9112 234.785 93.467 234.234 92.9173 233.807C91.9363 233.048 90.8443 232.773 89.6413 232.983C88.4382 233.193 87.3526 233.943 86.3844 235.234C85.5599 236.331 85.0815 237.431 84.9493 238.535C84.8139 239.624 85.0112 240.728 85.5144 241.699C86.0081 242.683 86.7149 243.542 87.5819 244.209C88.3859 244.843 89.3498 245.234 90.3629 245.336C91.3648 245.441 92.3733 245.214 93.2376 244.689C94.1403 244.156 94.9687 243.386 95.7228 242.381C96.4508 241.413 96.9431 240.479 97.1997 239.578C97.4563 238.733 97.4811 237.833 97.2716 236.974ZM89.8815 241.635C90.3881 242.027 90.8391 242.212 91.2347 242.189C91.4182 242.184 91.5983 242.136 91.7613 242.05C91.9243 241.965 92.0659 241.842 92.1756 241.693C92.3473 241.466 92.4577 241.197 92.4959 240.913C92.5308 240.664 92.5191 240.411 92.4613 240.166C92.3794 239.763 92.1638 239.304 91.8143 238.786C91.5054 238.314 91.1245 237.894 90.6859 237.543C90.2358 237.195 89.8111 237.034 89.4119 237.059C89.2225 237.068 89.0372 237.119 88.8699 237.209C88.7026 237.3 88.5576 237.428 88.4455 237.583C88.1834 237.931 88.0742 238.355 88.1179 238.857C88.1616 239.358 88.3721 239.873 88.7495 240.403C89.0663 240.866 89.4476 241.281 89.8815 241.635Z" fill="#7109B5"/>
<path d="M115.194 122.344L87.1337 122.443C85.0407 122.447 83.3481 124.282 83.3654 126.522L83.5073 145.409C83.5237 147.649 85.2472 149.477 87.3366 149.473L103.679 149.38L113.469 155.481L112.994 149.364L115.397 149.377C117.49 149.377 119.182 147.538 119.166 145.299L119.027 126.407C119.006 124.169 117.283 122.34 115.194 122.344Z" fill="#3E36C7"/>
<path d="M100.737 140.534L100.076 141.245C99.8537 141.481 99.8755 141.398 99.7636 141.448C99.6871 141.46 99.6088 141.451 99.5371 141.421C99.4655 141.392 99.4034 141.342 99.3577 141.279L95.0425 134.681C94.9926 134.605 94.9386 134.531 94.8805 134.461C94.1279 133.569 92.8439 133.41 92.0131 134.111C91.1823 134.811 91.1186 136.103 91.8702 136.995L94.5556 140.193L95.8979 141.792L96.5686 142.592L96.9262 143.018C97.1287 143.261 97.3601 143.478 97.6151 143.664C98.6406 144.423 99.9811 144.549 101.008 144.053C101.497 143.849 102.009 143.314 102.18 143.037L102.742 142.238L104.99 139.049L113.984 126.293L103.388 137.686L100.737 140.534Z" fill="#161822"/>
<mask id="mask0_2719_22770" style="mask-type:luminance" maskUnits="userSpaceOnUse" x="101" y="131" width="164" height="170">
<path d="M264.178 131.527H101.08V300.464H264.178V131.527Z" fill="white"/>
</mask>
<g mask="url(#mask0_2719_22770)">
<path d="M157.244 150.627V319.2C157.244 326.268 162.91 332.018 169.879 332.018H203.103V331.995H245.026C248.238 331.795 251.255 330.36 253.462 327.984C255.669 325.607 256.9 322.466 256.906 319.2V150.627C256.906 143.559 251.235 137.809 244.271 137.809H169.879C162.91 137.809 157.244 143.559 157.244 150.627Z" fill="#101C3A"/>
<path d="M160.049 150.625V319.2C160.05 321.844 161.086 324.38 162.929 326.249C164.772 328.118 167.271 329.168 169.877 329.168H244.27C246.875 329.167 249.373 328.116 251.215 326.247C253.057 324.378 254.092 321.843 254.094 319.2V150.625C254.092 147.981 253.057 145.446 251.215 143.577C249.373 141.708 246.875 140.657 244.27 140.656H169.877C167.271 140.656 164.772 141.706 162.929 143.576C161.086 145.445 160.05 147.98 160.049 150.625Z" fill="#EBF1FD"/>
<path d="M195.355 142.316H218.517C218.765 142.316 219.003 142.416 219.178 142.594C219.354 142.773 219.452 143.014 219.452 143.266C219.452 143.518 219.354 143.759 219.178 143.937C219.003 144.115 218.765 144.215 218.517 144.215H195.355C195.107 144.215 194.869 144.115 194.694 143.937C194.518 143.759 194.42 143.518 194.42 143.266C194.42 143.014 194.518 142.773 194.694 142.594C194.869 142.416 195.107 142.316 195.355 142.316Z" fill="#101C3A"/>
<path d="M239.397 149.523L239.004 149.922L242.108 153.07L242.501 152.671L239.397 149.523Z" fill="#101C3A"/>
<path d="M242.093 149.498L238.99 152.648L239.383 153.047L242.486 149.897L242.093 149.498Z" fill="#101C3A"/>
<path d="M173.847 152.043H168.869V152.607H173.847V152.043Z" fill="#101C3A"/>
<path d="M200.052 184.543H197.111V222.348H200.052V184.543Z" fill="#3E36C7"/>
<path d="M219.376 223.098H213.127V319.347H219.376V223.098Z" fill="#3E36C7"/>
<path d="M183.548 200.461H189.884C189.93 200.461 189.975 200.461 190.022 200.461C190.07 200.461 190.113 200.461 190.161 200.461H233.711C233.757 200.461 233.802 200.461 233.849 200.461C233.896 200.461 233.94 200.461 233.986 200.461H240.323C244.996 200.461 248.82 204.74 248.82 209.973V236.774H175.055V209.972C175.055 204.74 178.879 200.461 183.548 200.461Z" fill="#390D9F"/>
<path d="M175.055 236.774H200.788V209.973C200.788 204.741 196.57 200.461 191.415 200.461H184.426C179.271 200.461 175.053 204.74 175.053 209.973L175.055 236.774Z" fill="#3E36C7"/>
<path d="M176.607 234.085H199.235V210.517C199.235 205.916 195.527 202.152 190.995 202.152H184.848C180.316 202.152 176.607 205.916 176.607 210.517V234.085Z" fill="#101C3A"/>
<path d="M200.175 184.543H189.637V189.683H200.175V184.543Z" fill="#FC721A"/>
<path d="M165.431 236.773H199.465C199.816 236.772 200.153 236.631 200.401 236.379C200.649 236.127 200.789 235.786 200.79 235.43C200.788 235.074 200.648 234.733 200.4 234.481C200.152 234.229 199.816 234.087 199.465 234.086H165.431C165.081 234.087 164.745 234.229 164.497 234.481C164.249 234.733 164.109 235.074 164.107 235.43C164.108 235.786 164.248 236.127 164.496 236.379C164.744 236.631 165.081 236.772 165.431 236.773Z" fill="#3E36C7"/>
<path opacity="0.5" d="M207.977 206.431H238.039C238.299 206.43 238.548 206.325 238.732 206.139C238.916 205.952 239.019 205.7 239.02 205.436C239.019 205.172 238.915 204.92 238.731 204.733C238.548 204.547 238.299 204.442 238.039 204.441H207.977C207.717 204.442 207.468 204.547 207.284 204.733C207.1 204.92 206.997 205.172 206.996 205.436C206.997 205.7 207.1 205.952 207.284 206.139C207.468 206.325 207.717 206.43 207.977 206.431Z" fill="#161822"/>
<path d="M191.892 224.216L171.508 215.282C171.445 215.255 171.389 215.216 171.341 215.166C171.294 215.117 171.256 215.059 171.231 214.995C171.205 214.931 171.193 214.863 171.193 214.794C171.194 214.725 171.208 214.657 171.235 214.594L176.825 201.452C176.852 201.389 176.89 201.331 176.939 201.283C176.987 201.235 177.045 201.196 177.108 201.171C177.171 201.145 177.238 201.132 177.306 201.133C177.374 201.134 177.441 201.148 177.504 201.175L197.888 210.109C197.95 210.136 198.007 210.175 198.055 210.224C198.102 210.273 198.14 210.332 198.165 210.396C198.191 210.46 198.203 210.528 198.202 210.597C198.202 210.666 198.188 210.734 198.161 210.797L192.571 223.937C192.544 224 192.506 224.058 192.457 224.106C192.409 224.155 192.351 224.193 192.288 224.219C192.225 224.245 192.158 224.258 192.09 224.257C192.022 224.257 191.955 224.243 191.892 224.216Z" fill="#101C3A"/>
<path d="M183.06 214.105C183.363 214.772 184.091 215.091 184.934 214.835L197.798 210.965C198.192 210.846 198.253 210.277 197.88 210.106H197.871L177.524 201.19H177.516C177.135 201.03 176.771 201.467 176.956 201.837L183.06 214.105Z" fill="#161822"/>
<path d="M180.484 211.545C180.547 211.526 180.605 211.492 180.654 211.448C180.703 211.403 180.741 211.348 180.767 211.286C180.793 211.225 180.806 211.158 180.804 211.091C180.802 211.025 180.786 210.959 180.757 210.899L176.905 203.166C176.865 203.089 176.805 203.025 176.731 202.981C176.657 202.937 176.573 202.916 176.487 202.918C176.402 202.921 176.319 202.948 176.248 202.996C176.177 203.044 176.12 203.112 176.086 203.191L171.678 213.55C171.645 213.63 171.635 213.719 171.649 213.806C171.663 213.892 171.702 213.973 171.759 214.038C171.817 214.103 171.892 214.151 171.976 214.174C172.059 214.198 172.147 214.197 172.23 214.171L180.484 211.545Z" fill="#161822"/>
<path d="M191.999 223.771L187.872 215.144C187.808 215.011 187.699 214.904 187.565 214.844C187.431 214.784 187.28 214.774 187.139 214.816L185.023 215.451C184.542 215.596 184.025 215.565 183.564 215.362C183.103 215.16 182.727 214.799 182.502 214.343L181.55 212.431C181.483 212.298 181.373 212.194 181.237 212.136C181.102 212.078 180.951 212.07 180.811 212.114L171.883 214.953C171.834 214.969 171.792 214.982 171.752 214.997C171.632 215.048 171.563 215.108 171.559 215.181C171.554 215.255 171.61 215.311 171.704 215.366L191.83 224.187C191.936 224.216 192.021 224.21 192.063 224.164C192.105 224.119 192.108 224.02 192.063 223.897C192.043 223.861 192.021 223.818 191.999 223.771Z" fill="#161822"/>
<path d="M196.876 211.919L188.783 214.354C188.72 214.373 188.662 214.406 188.613 214.45C188.564 214.494 188.524 214.548 188.498 214.609C188.471 214.67 188.458 214.736 188.459 214.803C188.46 214.869 188.475 214.935 188.503 214.995L192.239 222.804C192.278 222.881 192.338 222.946 192.411 222.99C192.485 223.035 192.569 223.057 192.654 223.055C192.74 223.053 192.823 223.027 192.894 222.979C192.966 222.931 193.022 222.864 193.058 222.785L197.416 212.542C197.449 212.462 197.459 212.375 197.445 212.289C197.431 212.204 197.394 212.124 197.338 212.059C197.282 211.994 197.208 211.947 197.127 211.922C197.045 211.897 196.958 211.896 196.876 211.919Z" fill="#161822"/>
<path d="M105.59 301.581C102.618 304.044 98.6369 311.271 95.6321 318.597C93.8394 322.967 91.6172 323.663 91.6172 323.663C91.6172 323.663 95.3482 329.504 96.5913 333.914C96.5913 333.914 124.178 309.412 128.077 303.2C131.977 296.987 115.702 293.203 105.59 301.581Z" fill="#F8A3A2"/>
<path d="M118.721 305.163C118.124 309.01 119.376 327.029 121.952 334.523C123.487 338.991 125.175 347.504 125.175 347.504C125.175 347.504 132.034 342.841 135.859 345.287C135.859 345.287 140.318 308.36 139.141 301.088C137.965 293.816 120.749 292.074 118.721 305.163Z" fill="#F8A3A2"/>
<path d="M97.7715 312.916C103.511 304.918 106.893 290.49 110.802 278.443C113.118 271.307 114.543 260.643 112.044 253.953C107.906 242.871 114.972 235.153 117.552 230.817C120.132 226.481 142.075 220.876 146.387 224.11C152.587 228.762 156.647 233.366 157.447 248.37C158.511 268.337 151.968 323.462 151.968 323.462C134.873 327.317 119.504 324.689 119.504 324.689C118.603 320.284 118.729 309.613 118.729 309.613L109.948 319.467C106.222 315.279 100.966 313.591 97.7715 312.916Z" fill="#101C3A"/>
<path d="M129.226 184.025L130.037 191.908C129.444 192.548 124.622 196.865 119.789 192.957L121.485 180.754C121.485 180.754 124.336 182.304 129.226 184.025Z" fill="#F8A3A2"/>
<path d="M129.469 186.325L129.852 190.101C125.279 190.193 124.791 184.333 124.797 184.34C126.623 185.762 128.811 186.399 129.469 186.325Z" fill="#101C3A"/>
<path d="M129.611 187.502C127.142 187.485 122.638 184.071 121.638 181.776C121.283 180.959 122.317 168.083 124.831 167.185C125.89 166.807 132.459 167.971 133.455 167.971C135.73 167.971 135.758 173.762 135.778 177.089C135.801 180.824 133.965 187.533 129.611 187.502Z" fill="#F8A3A2"/>
<path d="M121.213 184.545C122.095 184.17 122.997 183.843 123.914 183.567C125.171 181.239 127.8 176.424 128.665 175.288C129.529 174.152 130.841 180.964 130.841 180.964C132.538 177.058 132.05 173.237 133.852 172.352C135.779 171.406 138.574 165.051 131.213 165.051C127.228 165.051 122.415 162.09 118.893 166.943C113.972 173.722 122.004 182.338 121.213 184.545Z" fill="#101C3A"/>
<path d="M129.478 176.201C129.617 176.642 129.625 177.115 129.499 177.561C129.373 178.006 129.12 178.403 128.772 178.703C128.424 179.002 127.996 179.19 127.542 179.243C127.089 179.295 126.63 179.21 126.224 178.998C125.819 178.786 125.484 178.457 125.262 178.052C125.041 177.647 124.943 177.184 124.981 176.723C125.018 176.261 125.19 175.821 125.474 175.458C125.758 175.096 126.141 174.827 126.576 174.685C127.159 174.496 127.792 174.55 128.336 174.834C128.88 175.118 129.291 175.61 129.478 176.201Z" fill="#F8A3A2"/>
<path d="M127.22 178.654C126.966 178.648 126.718 178.585 126.492 178.469L126.685 178.082C126.691 178.082 127.336 178.403 127.524 178.082C127.579 177.99 127.58 177.99 127.433 177.845C127.258 177.678 126.995 177.424 127.101 176.896C127.162 176.616 127.301 176.359 127.502 176.157C127.696 175.936 127.743 175.88 127.46 175.528C127.427 175.481 127.384 175.443 127.334 175.417C127.284 175.391 127.228 175.378 127.171 175.378C126.711 175.378 126.038 176.072 125.837 176.316L125.51 176.039C125.601 175.927 126.428 174.945 127.172 174.945H127.179C127.298 174.946 127.416 174.974 127.523 175.028C127.63 175.082 127.723 175.159 127.796 175.256C128.269 175.85 128.097 176.136 127.824 176.445C127.675 176.589 127.57 176.775 127.523 176.978C127.464 177.271 127.582 177.383 127.729 177.527C127.877 177.67 128.122 177.904 127.893 178.298C127.823 178.414 127.724 178.508 127.605 178.571C127.487 178.634 127.353 178.663 127.22 178.654Z" fill="#101C3A"/>
<path d="M117.769 194.852C117.769 194.852 118.747 191.251 120.563 191.036C122.38 190.822 130.573 190.352 131.409 191.172C132.244 191.992 132.546 193.303 132.546 193.303C132.546 193.303 140.503 190.545 144.844 196.812C148.069 201.47 149.127 218.699 146.391 224.622C146.391 224.622 135.417 221.359 117.44 231.046C106.702 236.834 112.41 211.58 111.525 207.261C110.614 202.818 113.412 196.155 117.769 194.852Z" fill="#425FEC"/>
<path d="M114.637 232.166C115.488 232.166 116.465 231.871 117.56 231.281L117.316 230.813C115.587 231.746 114.212 231.887 113.238 231.232C110.253 229.23 110.999 220.392 111.545 213.94C111.808 210.824 112.017 208.363 111.78 207.208C110.905 202.933 113.584 196.378 117.842 195.109L117.694 194.602C113.192 195.948 110.351 202.835 111.269 207.319C111.491 208.399 111.275 210.947 111.026 213.898C110.469 220.483 109.707 229.506 112.95 231.677C113.452 232.008 114.039 232.178 114.637 232.166Z" fill="#161822"/>
<path d="M119.68 227.148C112.532 221.977 113.707 214.891 113.72 214.82L114.232 214.913C114.22 214.98 113.112 221.747 119.983 226.714L119.68 227.148Z" fill="#161822"/>
<path d="M140.05 237.47C136.467 236.59 132.203 231.559 130.9 224.762C129.598 217.965 142.565 213.008 144.248 215.475C144.248 215.475 148.042 228.025 147.044 231.267C146.045 234.51 141.988 237.942 140.05 237.47Z" fill="#F8A3A2"/>
<path d="M170.929 219.246C170.929 219.246 175.206 215.427 173.75 212.26C172.184 208.856 174.288 201.574 174.288 201.574C174.288 201.574 170.375 201.744 168.404 207.969C166.433 214.193 164.105 215.845 164.105 215.845L170.929 219.246Z" fill="#F8A3A2"/>
<path d="M173.978 201.59C173.978 201.59 179.465 201.584 184.065 202.242C184.692 202.334 184.558 203.509 183.96 203.719C181.631 204.557 175.428 203.485 175.428 203.485C175.428 203.485 181.136 205.5 181.168 206.285C181.186 206.734 180.507 208.754 179.923 210.402C179.505 211.581 179.179 211.38 177.957 211.202C176.41 210.975 175.163 211.052 175.006 211.221C174.692 211.558 173.988 214.897 173.651 215.535C173.651 215.535 169.397 211.01 169.364 209.05C169.324 206.809 173.978 201.59 173.978 201.59Z" fill="#F8A3A2"/>
<path d="M180.151 209.811L174.492 208.121C174.492 208.121 178.121 208.95 180.151 209.811Z" fill="#D17F80"/>
<path d="M180.731 208.086L174.213 205.57C174.213 205.57 178.793 207.029 180.731 208.086Z" fill="#D17F80"/>
<path d="M165.321 215.469L171.211 218.893C167.709 223.123 149.47 236.928 141.727 237.308C137.341 237.523 135.326 234.482 134.828 232.646C133.618 228.186 137.865 225.232 142.535 223.127C143.184 222.834 165.321 215.469 165.321 215.469Z" fill="#F8A3A2"/>
<path d="M126.464 199.756C122.684 208.095 125.309 224.414 130.764 223.046C130.764 223.046 131.293 225.534 131.1 226.848C131.1 226.848 141.098 227.563 148.313 223.219C148.313 223.219 147.73 221.179 148.152 220.428C148.152 220.428 152.482 218.938 151.709 213.267C150.935 207.595 145.174 204.451 143.326 198.241C140.629 189.178 130.61 190.608 126.464 199.756Z" fill="#425FEC"/>
<path d="M130.801 227.091L131.083 227.111C131.11 227.111 133.823 227.296 137.387 226.885L137.328 226.359C135.357 226.591 133.372 226.671 131.389 226.598C131.488 225.219 131.041 223.089 131.025 222.99L130.968 222.723L130.708 222.789C129.7 223.041 128.755 222.636 127.899 221.588C124.868 217.868 123.724 206.45 126.706 199.87L126.233 199.648C123.125 206.505 124.308 218.01 127.493 221.922C128.403 223.035 129.456 223.529 130.561 223.356C130.687 224.016 130.992 225.799 130.843 226.808L130.801 227.091Z" fill="#161822"/>
<path d="M130.516 221.001C130.683 221.084 134.551 222.973 136.795 220.724C137.787 221.278 142.549 223.587 146.532 219.665L146.168 219.285C142.014 223.373 137.089 220.301 136.886 220.168L136.704 220.05L136.557 220.214C134.601 222.413 130.787 220.549 130.749 220.53L130.516 221.001Z" fill="#161822"/>
<path d="M119.938 303.32C120.04 302.39 120.151 301.398 120.269 300.353C121.787 286.882 124.33 264.336 119.029 252.4C113.495 239.94 123.298 231.188 123.397 231.101L123.058 230.699C122.956 230.792 112.866 239.8 118.554 252.617C123.796 264.42 121.264 286.879 119.751 300.293C119.633 301.339 119.521 302.331 119.419 303.26L119.938 303.32Z" fill="#161822"/>
<path d="M118.229 171.172C118.145 166.86 122.514 166.752 122.514 166.752C118.084 154.74 110.053 162.029 108.239 166.065C105.869 171.341 106.644 214.798 109.378 216.008L110.174 215.278L110.797 216.715C112.322 217.823 116.408 219.26 117.59 218.997C117.59 219 118.235 171.439 118.229 171.172Z" fill="#101C3A"/>
<path d="M119.271 168.069C119.067 167.936 118.922 167.727 118.87 167.487C118.817 167.247 118.86 166.996 118.99 166.788L120.284 164.722C120.414 164.515 120.62 164.369 120.857 164.315C121.093 164.262 121.341 164.305 121.546 164.437C121.75 164.569 121.894 164.778 121.947 165.018C121.999 165.258 121.956 165.51 121.827 165.718L120.533 167.783C120.403 167.991 120.196 168.137 119.96 168.191C119.723 168.244 119.476 168.2 119.271 168.069Z" fill="#3E36C7"/>
</g>
<path d="M147.865 133.787L132.477 111.453L148.849 128.963L147.865 133.787Z" fill="#425FEC"/>
<path d="M158.134 128.852L151.319 128.605L132.443 111.309L158.134 128.852Z" fill="#425FEC"/>
<path d="M135.742 127.682L132.443 111.309L148.848 128.964L135.742 127.682Z" fill="#425FEC"/>
<path d="M147.863 133.789L148.848 128.964L132.443 111.309L151.319 128.605L147.863 133.789Z" fill="#161822"/>
<path d="M135.479 126.367L145.02 124.866L143.595 121.523L153.571 126.61L150.913 128.301L147.865 133.786L148.849 128.961L135.743 127.679L135.479 126.367Z" fill="#101C3A"/>
<path d="M202.409 200.189C202.353 199.924 202.294 199.655 202.232 199.381L202.632 199.289C202.693 199.566 202.752 199.835 202.808 200.099L202.409 200.189Z" fill="#292626"/>
<path d="M201.862 197.772C201.741 197.252 201.609 196.717 201.467 196.167L201.863 196.064C202.003 196.618 202.135 197.155 202.26 197.675L201.862 197.772ZM201.048 194.568C200.908 194.047 200.761 193.516 200.608 192.975L201 192.86C201.155 193.403 201.303 193.936 201.443 194.458L201.048 194.568ZM200.144 191.389C199.988 190.87 199.826 190.344 199.657 189.81L200.046 189.683C200.215 190.219 200.378 190.747 200.534 191.268L200.144 191.389ZM199.148 188.237C198.978 187.722 198.802 187.2 198.618 186.673L199.004 186.535C199.186 187.064 199.363 187.588 199.536 188.105L199.148 188.237ZM198.064 185.117C197.879 184.606 197.687 184.09 197.489 183.57L197.871 183.42C198.069 183.943 198.261 184.461 198.448 184.974L198.064 185.117ZM196.892 182.03C196.691 181.524 196.484 181.014 196.273 180.5L196.649 180.34C196.862 180.855 197.07 181.367 197.272 181.875L196.892 182.03ZM195.631 178.983C195.415 178.482 195.194 177.979 194.967 177.473L195.338 177.301C195.567 177.809 195.789 178.314 196.005 178.816L195.631 178.983ZM194.28 175.972C194.05 175.479 193.814 174.983 193.572 174.483L193.936 174.298C194.178 174.799 194.416 175.297 194.647 175.794L194.28 175.972ZM192.84 173.006C192.594 172.52 192.343 172.032 192.087 171.541L192.451 171.347C192.709 171.839 192.961 172.33 193.208 172.818L192.84 173.006ZM191.31 170.087C191.049 169.608 190.782 169.127 190.511 168.647L190.865 168.441C191.138 168.923 191.405 169.405 191.667 169.887L191.31 170.087ZM189.688 167.219C189.412 166.748 189.131 166.277 188.843 165.806L189.191 165.588C189.479 166.061 189.761 166.534 190.039 167.007L189.688 167.219ZM187.976 164.406C187.684 163.945 187.387 163.483 187.085 163.021L187.426 162.792C187.729 163.254 188.027 163.716 188.319 164.177L187.976 164.406ZM186.172 161.647C185.864 161.197 185.552 160.746 185.235 160.295L185.567 160.054C185.886 160.506 186.199 160.959 186.507 161.412L186.172 161.647ZM184.274 158.96C183.952 158.52 183.625 158.08 183.292 157.641L183.616 157.388C183.949 157.828 184.278 158.27 184.603 158.712L184.274 158.96ZM182.288 156.34C181.95 155.909 181.607 155.482 181.26 155.058L181.574 154.793C181.924 155.224 182.268 155.655 182.606 156.086L182.288 156.34ZM180.211 153.797C179.86 153.381 179.503 152.967 179.139 152.553L179.445 152.276C179.809 152.691 180.168 153.108 180.521 153.526L180.211 153.797ZM178.045 151.33C177.678 150.927 177.305 150.527 176.928 150.129L177.223 149.842C177.603 150.243 177.977 150.646 178.345 151.051L178.045 151.33ZM175.789 148.945C175.408 148.557 175.021 148.17 174.63 147.785L174.914 147.487C175.308 147.874 175.696 148.263 176.08 148.653L175.789 148.945ZM173.445 146.645C173.05 146.271 172.65 145.9 172.244 145.53L172.517 145.222C172.925 145.591 173.327 145.965 173.725 146.342L173.445 146.645ZM171.02 144.439C170.612 144.081 170.198 143.725 169.778 143.372L170.039 143.052C170.461 143.408 170.877 143.765 171.288 144.125L171.02 144.439ZM168.516 142.328C168.091 141.987 167.664 141.648 167.234 141.312L167.482 140.985C167.916 141.323 168.345 141.663 168.77 142.007L168.516 142.328ZM165.936 140.314C165.501 139.989 165.061 139.666 164.617 139.346L164.853 139.008C165.299 139.329 165.741 139.653 166.178 139.981L165.936 140.314ZM163.279 138.403C162.832 138.096 162.38 137.791 161.924 137.488L162.148 137.141C162.606 137.444 163.061 137.752 163.513 138.064L163.279 138.403ZM160.549 136.598C160.09 136.307 159.627 136.02 159.16 135.734L159.37 135.379C159.84 135.665 160.305 135.954 160.765 136.246L160.549 136.598Z" fill="#292626"/>
<path d="M157.763 134.903C157.527 134.766 157.29 134.63 157.053 134.495L157.253 134.133C157.491 134.269 157.729 134.406 157.965 134.544L157.763 134.903Z" fill="#292626"/>
<path d="M209.398 200.425L209.04 200.224C209.295 199.755 209.555 199.27 209.819 198.769L210.183 198.964C209.917 199.466 209.655 199.953 209.398 200.425ZM210.939 197.491L210.575 197.301C210.818 196.819 211.062 196.327 211.309 195.824L211.673 196.008C211.429 196.511 211.184 197.006 210.938 197.491H210.939ZM212.389 194.509L212.019 194.331C212.249 193.837 212.474 193.335 212.702 192.828L213.073 192.997C212.848 193.507 212.62 194.011 212.389 194.509ZM213.73 191.473L213.354 191.311C213.566 190.805 213.773 190.295 213.974 189.781L214.353 189.934C214.151 190.451 213.944 190.965 213.73 191.478V191.473ZM214.941 188.38L214.558 188.237C214.75 187.71 214.932 187.185 215.104 186.678L215.492 186.81C215.318 187.322 215.134 187.85 214.942 188.38H214.941ZM215.99 185.224L215.598 185.104C215.759 184.565 215.909 184.03 216.041 183.516L216.436 183.621C216.307 184.14 216.152 184.68 215.99 185.224ZM216.822 182L216.423 181.908C216.541 181.354 216.646 180.814 216.731 180.289L217.134 180.358C217.047 180.893 216.944 181.445 216.822 182ZM217.358 178.706L216.952 178.662C217.012 178.101 217.051 177.554 217.068 177.023L217.477 177.038C217.459 177.574 217.419 178.136 217.358 178.706ZM217.056 175.382C217.029 174.837 216.972 174.294 216.887 173.755L217.291 173.689C217.378 174.242 217.435 174.8 217.464 175.36L217.056 175.382ZM216.528 172.166C216.375 171.647 216.181 171.141 215.948 170.653L216.312 170.469C216.554 170.975 216.756 171.5 216.916 172.039L216.528 172.166ZM215.127 169.266C214.989 169.074 214.839 168.886 214.686 168.706C214.486 168.472 214.287 168.239 214.089 168.005L214.4 167.735C214.598 167.969 214.796 168.202 214.994 168.433C215.156 168.618 215.311 168.82 215.456 169.021L215.127 169.266ZM213.034 166.734C212.683 166.303 212.339 165.872 212 165.441L212.32 165.183C212.657 165.614 213 166.043 213.349 166.468L213.034 166.734ZM210.996 164.127C210.659 163.672 210.333 163.219 210.03 162.781L210.364 162.543C210.664 162.977 210.987 163.426 211.322 163.878L210.996 164.127ZM209.111 161.4C208.806 160.92 208.518 160.443 208.251 159.978L208.604 159.77C208.867 160.231 209.15 160.702 209.455 161.174L209.111 161.4ZM207.465 158.512C207.21 158.004 206.975 157.496 206.766 156.997L207.143 156.834C207.348 157.323 207.578 157.824 207.829 158.323L207.465 158.512ZM206.176 155.433C205.994 154.894 205.841 154.352 205.715 153.823L206.112 153.725C206.235 154.243 206.385 154.773 206.567 155.295L206.176 155.433ZM205.403 152.176C205.326 151.621 205.279 151.063 205.26 150.503L205.668 150.49C205.687 151.035 205.733 151.579 205.808 152.118L205.403 152.176ZM205.705 148.857L205.297 148.824C205.341 148.266 205.414 147.712 205.517 147.162L205.919 147.24C205.818 147.775 205.746 148.315 205.704 148.858L205.705 148.857ZM206.305 145.65L205.915 145.53C206.071 145.005 206.259 144.474 206.472 143.951L206.85 144.109C206.64 144.621 206.457 145.14 206.304 145.652L206.305 145.65ZM207.532 142.624L207.168 142.433C207.415 141.951 207.69 141.462 207.987 140.98L208.333 141.2C208.044 141.674 207.775 142.154 207.532 142.624ZM209.24 139.837L208.909 139.594C209.223 139.153 209.56 138.708 209.91 138.27L210.226 138.534C209.882 138.967 209.549 139.405 209.24 139.838V139.837ZM211.289 137.286L210.987 137.009C211.345 136.609 211.726 136.203 212.119 135.802L212.409 136.094C212.02 136.491 211.643 136.892 211.289 137.288V137.286ZM213.577 134.948L213.3 134.644C213.691 134.274 214.102 133.905 214.522 133.536L214.789 133.849C214.373 134.212 213.967 134.583 213.577 134.948ZM216.034 132.787L215.777 132.464C216.189 132.124 216.623 131.777 217.064 131.434L217.313 131.763C216.878 132.104 216.447 132.449 216.034 132.787Z" fill="#292626"/>
<path d="M265.971 168.71L284.292 148.785L265.662 163.792L265.971 168.71Z" fill="#425FEC"/>
<path d="M256.484 162.364L263.266 163.088L284.344 148.648L256.484 162.364Z" fill="#425FEC"/>
<path d="M278.816 164.391L284.343 148.648L265.662 163.795L278.816 164.391Z" fill="#425FEC"/>
<path d="M265.971 168.713L265.663 163.795L284.344 148.648L263.266 163.088L265.971 168.713Z" fill="#161822"/>
<path d="M279.26 163.126L270.02 160.282L271.892 157.176L261.312 160.793L263.711 162.846L265.972 168.71L265.663 163.792L278.817 164.387L279.26 163.126Z" fill="#101C3A"/>
<path d="M216.414 200.579L216.082 200.338C216.24 200.114 216.4 199.889 216.561 199.664L216.891 199.908C216.731 200.131 216.572 200.355 216.414 200.579Z" fill="#292626"/>
<path d="M217.86 198.577L217.533 198.328C217.859 197.888 218.191 197.447 218.528 197.005L218.851 197.259C218.515 197.699 218.185 198.138 217.86 198.577ZM219.862 195.958L219.543 195.699C219.884 195.268 220.229 194.837 220.58 194.406L220.895 194.671C220.546 195.101 220.202 195.53 219.863 195.958H219.862ZM221.949 193.408L221.638 193.138C221.992 192.718 222.351 192.301 222.717 191.884L223.022 192.161C222.66 192.575 222.302 192.99 221.949 193.408ZM224.117 190.93L223.817 190.653C224.184 190.247 224.558 189.842 224.937 189.438L225.233 189.724C224.857 190.123 224.485 190.525 224.118 190.93H224.117ZM226.368 188.529L226.077 188.238C226.459 187.845 226.846 187.453 227.238 187.063L227.525 187.359C227.136 187.748 226.75 188.138 226.369 188.529H226.368ZM228.702 186.209L228.42 185.908C228.816 185.529 229.216 185.151 229.622 184.775L229.895 185.082C229.494 185.456 229.096 185.834 228.703 186.214L228.702 186.209ZM231.114 183.976L230.841 183.665C231.251 183.3 231.664 182.937 232.082 182.577L232.347 182.893C231.932 183.253 231.521 183.614 231.115 183.976H231.114ZM233.605 181.834L233.346 181.512C233.767 181.163 234.194 180.816 234.626 180.472L234.879 180.798C234.449 181.141 234.024 181.486 233.606 181.834H233.605ZM236.172 179.786L235.925 179.455C236.36 179.122 236.799 178.791 237.242 178.464L237.482 178.799C237.042 179.125 236.605 179.454 236.173 179.786H236.172ZM238.811 177.837L238.577 177.497C239.023 177.181 239.475 176.868 239.931 176.557L240.159 176.901C239.705 177.21 239.257 177.522 238.813 177.837H238.811ZM241.523 175.99L241.301 175.641C241.759 175.342 242.221 175.046 242.689 174.753L242.904 175.106C242.441 175.399 241.981 175.694 241.524 175.992L241.523 175.99ZM244.302 174.25L244.093 173.893C244.563 173.612 245.036 173.334 245.514 173.062L245.715 173.423C245.241 173.696 244.77 173.972 244.304 174.252L244.302 174.25ZM247.144 172.62L246.95 172.251C247.429 171.988 247.912 171.729 248.399 171.474L248.587 171.843C248.102 172.101 247.622 172.361 247.146 172.622L247.144 172.62ZM250.045 171.102L249.863 170.732C250.351 170.486 250.844 170.246 251.342 170.013L251.515 170.388C251.023 170.623 250.533 170.862 250.047 171.104L250.045 171.102ZM253.002 169.697L252.836 169.318C253.333 169.094 253.835 168.873 254.34 168.656L254.5 169.038C253.997 169.255 253.499 169.475 253.004 169.699L253.002 169.697Z" fill="#292626"/>
<path d="M256.017 168.407L255.865 168.021C256.118 167.918 256.372 167.816 256.627 167.715L256.776 168.101C256.521 168.203 256.268 168.305 256.017 168.407Z" fill="#292626"/>
<path d="M222.333 133.274L237.052 110.48L221.205 128.482L222.333 133.274Z" fill="#425FEC"/>
<path d="M211.92 128.651L218.724 128.196L237.079 110.332L211.92 128.651Z" fill="#425FEC"/>
<path d="M234.267 126.798L237.079 110.332L221.205 128.48L234.267 126.798Z" fill="#425FEC"/>
<path d="M222.333 133.272L221.205 128.48L237.079 110.332L218.725 128.196L222.333 133.272Z" fill="#161822"/>
<path d="M234.493 125.48L224.912 124.27L226.237 120.887L216.416 126.275L219.122 127.885L222.333 133.273L221.205 128.481L234.268 126.799L234.493 125.48Z" fill="#101C3A"/>
<path opacity="0.2" d="M776.718 362.829C776.718 362.829 752.545 197.329 714.748 213.526C698.852 220.334 707.273 255.136 716.726 282.269C718.181 286.432 712.712 289.457 709.975 286.002C696.129 268.516 678.334 252.362 667.312 266.445C656.275 280.541 667.247 297.333 679.402 309.624C682.835 313.092 679.631 318.869 674.865 317.801C664.853 315.551 655.014 315.457 652.018 322.38C642.042 345.457 675.016 362.822 697.412 362.822C719.807 362.822 776.718 362.829 776.718 362.829Z" fill="#97A7AF"/>
<path opacity="0.3" d="M906.492 362.831C906.492 362.831 909.273 224.07 946.733 232.34C962.328 235.787 963.188 258.412 960.88 277.827C960.407 281.783 965.753 283.431 967.595 279.891C978.954 258.025 995.982 232.182 1009.43 241.427C1024.74 251.941 1009.69 274.602 996.054 290.505C993.589 293.378 996.204 297.743 999.902 296.904C1007.78 295.106 1016.24 296.431 1021.51 306.78C1033.59 330.516 1010.21 361.756 972.461 361.756C934.7 361.756 906.492 362.831 906.492 362.831Z" fill="#1395ED"/>
<g opacity="0.3">
<path d="M734.463 146.058C734.463 143.55 734.463 141.049 734.463 138.541C736.792 137.265 739.3 136.391 741.744 135.387C744.095 134.427 745.163 131.704 744.109 129.374C743.242 127.447 742.425 125.49 741.558 123.555C741.178 122.695 741.307 122.014 742.017 121.362C743.185 120.287 744.339 119.183 745.421 118.022C746.152 117.241 746.89 117.069 747.865 117.463C750.05 118.352 752.251 119.198 754.451 120.051C756.221 120.739 759.138 119.477 759.854 117.729C760.693 115.679 761.546 113.636 762.363 111.58C762.764 110.569 763.402 110.06 764.556 110.118C766.097 110.189 767.637 110.182 769.178 110.118C770.239 110.075 770.898 110.49 771.314 111.458C772.138 113.407 773.027 115.335 773.851 117.284C774.861 119.678 777.628 120.81 779.978 119.793C781.964 118.925 783.977 118.13 785.97 117.27C786.88 116.876 787.597 117.005 788.299 117.743C789.388 118.897 790.535 120.008 791.717 121.061C792.484 121.742 792.656 122.437 792.262 123.362C791.388 125.447 790.549 127.547 789.689 129.64C788.872 131.618 790.069 134.463 792.054 135.23C794.563 136.204 797.128 137.05 799.551 138.261C799.551 140.769 799.551 143.271 799.551 145.779C797.035 147.119 794.348 148.058 791.732 149.162C790.148 149.828 788.965 152.86 789.653 154.422C790.549 156.45 791.424 158.485 792.341 160.499C792.821 161.553 792.721 162.377 791.796 163.18C790.664 164.154 789.603 165.215 788.593 166.311C787.869 167.093 787.124 167.272 786.149 166.878C784.099 166.039 782.028 165.251 779.971 164.434C777.678 163.524 774.869 164.735 773.973 166.999C773.235 168.884 772.425 170.74 771.701 172.625C771.271 173.75 770.59 174.317 769.314 174.238C767.824 174.145 766.326 174.173 764.835 174.231C763.775 174.274 763.108 173.872 762.7 172.905C761.797 170.776 760.858 168.662 759.933 166.548C759.181 164.835 756.156 163.645 754.451 164.376C752.372 165.265 750.273 166.125 748.201 167.028C747.198 167.465 746.403 167.379 745.629 166.519C744.597 165.38 743.486 164.298 742.332 163.28C741.508 162.556 741.379 161.818 741.794 160.85C742.604 158.944 743.364 157.023 744.167 155.11C745.242 152.551 744.138 149.95 741.565 148.975C739.164 148.044 736.735 147.234 734.463 146.058ZM766.992 152.136C772.711 152.136 777.226 147.764 777.219 142.224C777.212 136.512 772.783 132.162 766.985 132.169C761.245 132.177 756.758 136.527 756.773 142.081C756.787 147.807 761.18 152.129 766.992 152.136Z" fill="#1395ED"/>
</g>
<g opacity="0.3">
<path d="M808.071 100.026C808.931 99.0439 809.784 98.062 810.644 97.0802C811.991 97.374 813.274 97.89 814.578 98.3344C815.833 98.7644 817.173 98.062 817.56 96.7864C817.882 95.7329 818.226 94.6865 818.549 93.633C818.692 93.1672 818.979 92.945 819.48 92.9307C820.305 92.9092 821.136 92.8734 821.953 92.7874C822.505 92.73 822.856 92.9164 823.1 93.4037C823.651 94.5002 824.225 95.5824 824.798 96.6717C825.257 97.546 826.826 98.0477 827.708 97.6034C828.74 97.0874 829.772 96.5785 830.797 96.0482C831.298 95.7902 831.721 95.8045 832.158 96.2202C832.739 96.772 833.348 97.3024 833.971 97.804C834.401 98.148 834.523 98.535 834.351 99.0582C834.007 100.105 833.699 101.165 833.355 102.212C832.932 103.494 833.627 104.885 834.896 105.286C835.971 105.623 837.032 106.003 838.107 106.347C838.601 106.504 838.838 106.798 838.859 107.329C838.895 108.153 838.959 108.977 839.067 109.801C839.131 110.324 838.967 110.661 838.494 110.89C837.44 111.406 836.394 111.944 835.34 112.474C834.344 112.969 833.842 114.495 834.351 115.477C835.003 116.717 835.72 117.928 836.25 119.225C835.39 120.207 834.538 121.189 833.678 122.171C832.237 121.834 830.861 121.289 829.456 120.823C828.611 120.544 827.106 121.325 826.841 122.171C826.497 123.267 826.145 124.371 825.816 125.475C825.644 126.055 825.321 126.342 824.683 126.342C823.909 126.335 823.128 126.392 822.361 126.471C821.81 126.528 821.458 126.349 821.208 125.854C820.692 124.822 820.147 123.812 819.624 122.787C819.036 121.648 817.524 121.16 816.399 121.741C815.467 122.228 814.514 122.68 813.582 123.167C813.03 123.461 812.572 123.454 812.092 122.981C811.54 122.436 810.945 121.934 810.336 121.447C809.906 121.103 809.784 120.716 809.949 120.193C810.321 119.053 810.68 117.899 811.038 116.753C811.332 115.828 810.551 114.323 809.633 114.029C808.515 113.664 807.397 113.284 806.279 112.933C805.735 112.761 805.455 112.46 805.441 111.851C805.427 111.048 805.362 110.245 805.255 109.457C805.176 108.891 805.384 108.561 805.871 108.318C806.838 107.852 807.799 107.357 808.766 106.877C810.063 106.239 810.515 104.849 809.841 103.58C809.232 102.412 808.558 101.266 808.071 100.026ZM818.742 113.528C820.985 115.484 824.246 115.312 826.138 113.141C828.088 110.898 827.837 107.68 825.565 105.702C823.315 103.738 820.068 103.91 818.176 106.096C816.22 108.339 816.463 111.535 818.742 113.528Z" fill="#97A7AF"/>
</g>
<path d="M664.029 164.379L673.152 155.256C668.795 150.984 662.832 148.34 656.268 148.34V161.24C659.278 161.24 662.008 162.444 664.029 164.379Z" fill="#F45573"/>
<path d="M673.145 155.262L664.021 164.385C666.143 166.427 667.469 169.287 667.469 172.462C667.469 175.472 666.272 178.209 664.33 180.223L673.453 189.346C677.731 184.996 680.369 179.034 680.369 172.462C680.376 165.725 677.602 159.633 673.145 155.262Z" fill="#3A415E"/>
<path d="M656.268 183.664C650.083 183.664 645.052 178.633 645.052 172.448C645.052 166.263 650.083 161.232 656.268 161.232V148.332C642.974 148.332 632.152 159.147 632.152 172.448C632.152 185.742 642.967 196.564 656.268 196.564C662.998 196.564 669.082 193.79 673.461 189.333L664.338 180.209C662.295 182.338 659.436 183.664 656.268 183.664Z" fill="#1395ED"/>
<path opacity="0.5" d="M656.268 148.34V113.23H722.552" stroke="#97A7AF" stroke-width="1.5595" stroke-miterlimit="10" stroke-dasharray="6.24 6.24"/>
<path d="M724.165 116.054C725.725 116.054 726.989 114.789 726.989 113.23C726.989 111.67 725.725 110.406 724.165 110.406C722.606 110.406 721.342 111.67 721.342 113.23C721.342 114.789 722.606 116.054 724.165 116.054Z" fill="#97A7AF"/>
<path opacity="0.5" d="M656.268 196.562V241.963" stroke="#97A7AF" stroke-width="1.5595" stroke-miterlimit="10" stroke-dasharray="6.24 6.24"/>
<path d="M656.269 244.788C657.828 244.788 659.093 243.524 659.093 241.964C659.093 240.405 657.828 239.141 656.269 239.141C654.71 239.141 653.445 240.405 653.445 241.964C653.445 243.524 654.71 244.788 656.269 244.788Z" fill="#97A7AF"/>
<path d="M956.845 93.1562V106.063C963.782 106.278 969.365 111.976 969.365 118.963C969.365 126.087 963.567 131.885 956.443 131.885C953.613 131.885 950.997 130.96 948.868 129.412L941.035 139.675C945.342 142.886 950.674 144.792 956.443 144.792C970.684 144.792 982.265 133.211 982.265 118.971C982.265 104.867 970.899 93.3713 956.845 93.1562Z" fill="#1395ED"/>
<path d="M956.444 106.041C956.58 106.041 956.709 106.056 956.845 106.063V93.1556C956.709 93.1556 956.58 93.1484 956.444 93.1484C944.175 93.1484 933.883 101.748 931.268 113.237L943.859 116.06C945.185 110.327 950.317 106.041 956.444 106.041Z" fill="#3A415E"/>
<path d="M943.523 118.968C943.523 117.964 943.652 116.997 943.867 116.058L931.275 113.234C930.852 115.083 930.623 116.997 930.623 118.968C930.623 127.439 934.722 134.964 941.036 139.679L948.869 129.417C945.637 127.059 943.523 123.261 943.523 118.968Z" fill="#F45573"/>
<path d="M1028.58 159.655C1028.58 146.361 1017.76 135.539 1004.46 135.539V148.439C1010.65 148.439 1015.68 153.47 1015.68 159.655C1015.68 163.74 1013.48 167.309 1010.2 169.273L1016.82 180.359C1023.85 176.138 1028.58 168.441 1028.58 159.655Z" fill="#3A415E"/>
<path d="M1004.46 148.439V135.539C994.077 135.539 985.205 142.132 981.822 151.356L993.948 155.799C995.518 151.514 999.631 148.439 1004.46 148.439Z" fill="#F45573"/>
<path d="M1004.46 170.87C998.277 170.87 993.246 165.839 993.246 159.654C993.246 158.3 993.497 157.003 993.941 155.799L981.815 151.355C980.862 153.943 980.346 156.738 980.346 159.654C980.346 172.949 991.16 183.77 1004.46 183.77C1008.97 183.77 1013.2 182.523 1016.81 180.359L1010.19 169.272C1008.52 170.275 1006.56 170.87 1004.46 170.87Z" fill="#1395ED"/>
<path d="M1004.46 224.034C1006.02 224.034 1007.28 222.77 1007.28 221.21C1007.28 219.651 1006.02 218.387 1004.46 218.387C1002.9 218.387 1001.64 219.651 1001.64 221.21C1001.64 222.77 1002.9 224.034 1004.46 224.034Z" fill="#97A7AF"/>
<path opacity="0.5" d="M982.266 118.969H1004.46V135.538" stroke="#97A7AF" stroke-width="1.5595" stroke-miterlimit="10" stroke-dasharray="6.24 6.24"/>
<path opacity="0.5" d="M1004.46 183.77V221.208" stroke="#97A7AF" stroke-width="1.5595" stroke-miterlimit="10" stroke-dasharray="6.24 6.24"/>
<path opacity="0.3" d="M686.268 147.282C689.102 147.282 691.399 144.985 691.399 142.151C691.399 139.317 689.102 137.02 686.268 137.02C683.434 137.02 681.137 139.317 681.137 142.151C681.137 144.985 683.434 147.282 686.268 147.282Z" fill="#1395ED"/>
<path opacity="0.3" d="M932.477 169.284C932.477 172.115 930.184 174.415 927.346 174.415C924.515 174.415 922.215 172.122 922.215 169.284C922.215 166.453 924.508 164.152 927.346 164.152C930.184 164.16 932.477 166.453 932.477 169.284Z" fill="#1395ED"/>
<path opacity="0.3" d="M1026.33 197.358C1026.33 200.189 1024.04 202.489 1021.2 202.489C1018.37 202.489 1016.07 200.196 1016.07 197.358C1016.07 194.527 1018.36 192.227 1021.2 192.227C1024.04 192.227 1026.33 194.52 1026.33 197.358Z" fill="#97A7AF"/>
<path opacity="0.3" d="M699.648 130.783C699.648 132.231 698.473 133.406 697.025 133.406C695.578 133.406 694.402 132.231 694.402 130.783C694.402 129.335 695.578 128.16 697.025 128.16C698.473 128.16 699.648 129.335 699.648 130.783Z" fill="#97A7AF"/>
<path opacity="0.3" d="M925.098 151.756C925.098 153.203 923.922 154.379 922.475 154.379C921.027 154.379 919.852 153.203 919.852 151.756C919.852 150.308 921.027 149.133 922.475 149.133C923.929 149.14 925.098 150.308 925.098 151.756Z" fill="#97A7AF"/>
<path opacity="0.3" d="M1001.2 104.018C1001.2 105.465 1000.02 106.641 998.576 106.641C997.128 106.641 995.953 105.465 995.953 104.018C995.953 102.57 997.128 101.395 998.576 101.395C1000.02 101.402 1001.2 102.57 1001.2 104.018Z" fill="#1395ED"/>
<path opacity="0.3" d="M979.642 185.057C979.642 186.504 978.467 187.68 977.019 187.68C975.572 187.68 974.396 186.504 974.396 185.057C974.396 183.609 975.572 182.434 977.019 182.434C978.467 182.434 979.642 183.609 979.642 185.057Z" fill="#97A7AF"/>
<path opacity="0.3" d="M730.143 178.609C731.591 178.609 732.766 177.435 732.766 175.986C732.766 174.538 731.591 173.363 730.143 173.363C728.694 173.363 727.52 174.538 727.52 175.986C727.52 177.435 728.694 178.609 730.143 178.609Z" fill="#97A7AF"/>
<path opacity="0.3" d="M646.399 211.747C646.399 214.04 644.536 215.903 642.243 215.903C639.949 215.903 638.086 214.04 638.086 211.747C638.086 209.453 639.949 207.59 642.243 207.59C644.536 207.597 646.399 209.453 646.399 211.747Z" fill="#97A7AF"/>
<path opacity="0.3" d="M647.488 119.682C647.488 121.129 646.313 122.305 644.865 122.305C643.418 122.305 642.242 121.129 642.242 119.682C642.242 118.234 643.418 117.059 644.865 117.059C646.313 117.059 647.488 118.234 647.488 119.682Z" fill="#97A7AF"/>
<path d="M1015.17 362.293H642.516V363.368H1015.17V362.293Z" fill="#25263A"/>
<path d="M637.491 362.293H623V363.368H637.491V362.293Z" fill="#25263A"/>
<path d="M1034.89 362.293H1021.21V363.368H1034.89V362.293Z" fill="#25263A"/>
<path d="M1053 362.293H1039.32V363.368H1053V362.293Z" fill="#25263A"/>
<path d="M804.18 362.257H797.558C794.104 362.257 791.503 359.097 792.169 355.707L795.953 336.5H809.247L804.18 362.257Z" fill="#748389"/>
<path d="M864.1 362.258H797.701L802.775 336.508H869.174L864.1 362.258Z" fill="#97A7AF"/>
<path d="M797.701 362.258H871.79L873.804 355.02H799.127L797.701 362.258Z" fill="#97A7AF"/>
<path d="M761.31 336.536H745.55C737.036 336.536 730.135 329.634 730.135 321.12V201.373C730.135 192.859 737.036 185.957 745.55 185.957H761.303C769.817 185.957 776.718 192.859 776.718 201.373V321.128C776.718 329.634 769.817 336.536 761.31 336.536Z" fill="#97A7AF"/>
<path d="M918.418 336.537H752.681C743.479 336.537 736.012 329.076 736.012 319.867V202.635C736.012 193.433 743.472 185.965 752.681 185.965H918.418C927.62 185.965 935.087 193.425 935.087 202.635V319.874C935.087 329.076 927.62 336.537 918.418 336.537Z" fill="#C2CFD8"/>
<path d="M917.852 315.252H753.255C747.156 315.252 742.211 310.307 742.211 304.208V203.302C742.211 197.203 747.156 192.258 753.255 192.258H917.852C923.95 192.258 928.895 197.203 928.895 203.302V304.208C928.895 310.307 923.95 315.252 917.852 315.252Z" fill="#161822"/>
<path d="M840.401 326.273C840.401 328.717 838.416 330.702 835.972 330.702C833.528 330.702 831.543 328.717 831.543 326.273C831.543 323.829 833.528 321.844 835.972 321.844C838.416 321.851 840.401 323.829 840.401 326.273Z" fill="#161822"/>
<g opacity="0.5">
<path d="M766.914 192.254V194.483" stroke="#97A7AF" stroke-width="1.5595" stroke-miterlimit="10"/>
<path d="M766.914 198.875V310.818" stroke="#97A7AF" stroke-width="1.5595" stroke-miterlimit="10" stroke-dasharray="6.13 6.13"/>
<path d="M766.914 313.012V315.248" stroke="#97A7AF" stroke-width="1.5595" stroke-miterlimit="10"/>
</g>
<g opacity="0.5">
<path d="M794.535 192.254V194.483" stroke="#97A7AF" stroke-width="1.5595" stroke-miterlimit="10"/>
<path d="M794.535 198.875V310.818" stroke="#97A7AF" stroke-width="1.5595" stroke-miterlimit="10" stroke-dasharray="6.13 6.13"/>
<path d="M794.535 313.012V315.248" stroke="#97A7AF" stroke-width="1.5595" stroke-miterlimit="10"/>
</g>
<g opacity="0.5">
<path d="M822.162 192.254V194.483" stroke="#97A7AF" stroke-width="1.5595" stroke-miterlimit="10"/>
<path d="M822.162 198.875V310.818" stroke="#97A7AF" stroke-width="1.5595" stroke-miterlimit="10" stroke-dasharray="6.13 6.13"/>
<path d="M822.162 313.012V315.248" stroke="#97A7AF" stroke-width="1.5595" stroke-miterlimit="10"/>
</g>
<g opacity="0.5">
<path d="M849.791 192.254V194.483" stroke="#97A7AF" stroke-width="1.5595" stroke-miterlimit="10"/>
<path d="M849.791 198.875V310.818" stroke="#97A7AF" stroke-width="1.5595" stroke-miterlimit="10" stroke-dasharray="6.13 6.13"/>
<path d="M849.791 313.012V315.248" stroke="#97A7AF" stroke-width="1.5595" stroke-miterlimit="10"/>
</g>
<g opacity="0.5">
<path d="M877.41 192.254V194.483" stroke="#97A7AF" stroke-width="1.5595" stroke-miterlimit="10"/>
<path d="M877.41 198.875V310.818" stroke="#97A7AF" stroke-width="1.5595" stroke-miterlimit="10" stroke-dasharray="6.13 6.13"/>
<path d="M877.41 313.012V315.248" stroke="#97A7AF" stroke-width="1.5595" stroke-miterlimit="10"/>
</g>
<g opacity="0.5">
<path d="M905.037 192.254V194.483" stroke="#97A7AF" stroke-width="1.5595" stroke-miterlimit="10"/>
<path d="M905.037 198.875V310.818" stroke="#97A7AF" stroke-width="1.5595" stroke-miterlimit="10" stroke-dasharray="6.13 6.13"/>
<path d="M905.037 313.012V315.248" stroke="#97A7AF" stroke-width="1.5595" stroke-miterlimit="10"/>
</g>
<path d="M893.234 276.195H885.186V315.239H893.234V276.195Z" fill="#CC3366"/>
<path d="M870.179 289.262H862.131V315.248H870.179V289.262Z" fill="#F45573"/>
<path d="M909.058 258.523H901.01V315.248H909.058V258.523Z" fill="#F45573"/>
<path d="M766.914 261.249L794.534 270.938L849.789 253.752L877.41 256.454L905.037 212.988" stroke="#1395ED" stroke-width="1.4974" stroke-miterlimit="10"/>
<path d="M769.014 261.248C769.014 262.409 768.075 263.348 766.914 263.348C765.753 263.348 764.814 262.409 764.814 261.248C764.814 260.087 765.753 259.148 766.914 259.148C768.075 259.148 769.014 260.087 769.014 261.248Z" fill="#F45573"/>
<path d="M796.641 270.936C796.641 272.097 795.702 273.036 794.541 273.036C793.38 273.036 792.441 272.097 792.441 270.936C792.441 269.775 793.38 268.836 794.541 268.836C795.695 268.836 796.641 269.775 796.641 270.936Z" fill="#F45573"/>
<path d="M851.889 253.752C851.889 254.913 850.95 255.852 849.789 255.852C848.628 255.852 847.689 254.913 847.689 253.752C847.689 252.591 848.628 251.652 849.789 251.652C850.95 251.645 851.889 252.591 851.889 253.752Z" fill="#F45573"/>
<path d="M907.137 212.987C907.137 214.148 906.198 215.086 905.037 215.086C903.876 215.086 902.938 214.148 902.938 212.987C902.938 211.826 903.876 210.887 905.037 210.887C906.198 210.887 907.137 211.826 907.137 212.987Z" fill="#F45573"/>
<path d="M879.516 256.416C879.516 257.577 878.577 258.516 877.416 258.516C876.255 258.516 875.316 257.577 875.316 256.416C875.316 255.255 876.255 254.316 877.416 254.316C878.57 254.316 879.516 255.255 879.516 256.416Z" fill="#F45573"/>
<path d="M794.076 219.631H748.367C748.116 219.631 747.908 219.424 747.908 219.173V206.81C747.908 206.559 748.116 206.352 748.367 206.352H794.076C794.327 206.352 794.535 206.559 794.535 206.81V219.173C794.535 219.424 794.334 219.631 794.076 219.631Z" fill="#F45573"/>
<path d="M758.225 220.475C757.413 220.475 756.635 220.368 755.891 220.156C755.147 219.933 754.548 219.648 754.093 219.3L754.891 217.532C755.326 217.841 755.838 218.097 756.428 218.3C757.027 218.493 757.631 218.59 758.24 218.59C758.704 218.59 759.076 218.547 759.356 218.46C759.646 218.363 759.859 218.232 759.994 218.068C760.129 217.904 760.197 217.715 760.197 217.503C760.197 217.232 760.091 217.019 759.878 216.865C759.666 216.7 759.385 216.57 759.037 216.473C758.689 216.367 758.303 216.27 757.877 216.183C757.462 216.087 757.041 215.971 756.616 215.835C756.2 215.7 755.819 215.526 755.471 215.313C755.123 215.101 754.838 214.821 754.615 214.473C754.403 214.125 754.296 213.68 754.296 213.139C754.296 212.559 754.451 212.032 754.76 211.558C755.079 211.075 755.553 210.693 756.181 210.413C756.819 210.123 757.616 209.978 758.573 209.978C759.211 209.978 759.839 210.056 760.458 210.21C761.077 210.355 761.623 210.577 762.096 210.877L761.371 212.66C760.898 212.39 760.424 212.192 759.951 212.066C759.477 211.931 759.013 211.863 758.559 211.863C758.105 211.863 757.732 211.916 757.442 212.022C757.153 212.129 756.945 212.269 756.819 212.443C756.693 212.607 756.631 212.8 756.631 213.023C756.631 213.284 756.737 213.496 756.95 213.661C757.162 213.815 757.442 213.941 757.79 214.038C758.138 214.134 758.52 214.231 758.936 214.328C759.361 214.424 759.781 214.535 760.197 214.661C760.622 214.787 761.009 214.956 761.357 215.168C761.705 215.381 761.985 215.661 762.198 216.009C762.42 216.357 762.531 216.797 762.531 217.329C762.531 217.899 762.372 218.421 762.053 218.894C761.734 219.368 761.255 219.75 760.618 220.04C759.989 220.33 759.192 220.475 758.225 220.475ZM766.097 220.301V212.066H762.849V210.152H771.693V212.066H768.445V220.301H766.097ZM771.113 220.301L775.637 210.152H777.956L782.494 220.301H780.029L776.318 211.341H777.246L773.52 220.301H771.113ZM773.375 218.126L773.998 216.343H779.218L779.855 218.126H773.375ZM754.891 238.301V228.152H759.284C760.192 228.152 760.975 228.302 761.632 228.602C762.29 228.892 762.797 229.312 763.155 229.863C763.512 230.414 763.691 231.071 763.691 231.835C763.691 232.589 763.512 233.241 763.155 233.792C762.797 234.333 762.29 234.749 761.632 235.039C760.975 235.329 760.192 235.474 759.284 235.474H756.196L757.24 234.444V238.301H754.891ZM761.342 238.301L758.805 234.618H761.313L763.88 238.301H761.342ZM757.24 234.705L756.196 233.603H759.153C759.878 233.603 760.419 233.449 760.777 233.139C761.135 232.821 761.313 232.386 761.313 231.835C761.313 231.274 761.135 230.839 760.777 230.53C760.419 230.221 759.878 230.066 759.153 230.066H756.196L757.24 228.95V234.705ZM767.513 238.301V230.066H764.265V228.152H773.109V230.066H769.861V238.301H767.513Z" fill="#161822"/>
<g opacity="0.2">
<path d="M834.13 185.872C821.452 179.257 804.417 183.972 799.881 197.109C799.021 199.596 798.318 202.57 795.91 203.638C794.671 204.182 793.259 204.068 791.904 204.075C779.578 204.139 769.365 217.835 772.819 229.667C773.658 232.527 775.149 235.451 774.389 238.332C773.744 240.783 771.644 242.51 769.781 244.23C763.073 250.422 758.128 258.814 757.225 267.901C756.322 276.989 759.848 286.671 767.158 292.146C774.468 297.621 785.504 298.051 792.578 292.275C795.91 289.559 798.906 285.424 803.199 285.603C805.722 285.71 807.872 287.352 810.136 288.477C819.138 292.97 831.514 288.09 835.033 278.666C835.743 276.774 836.18 274.667 837.613 273.233C839.692 271.155 843.017 271.255 845.962 271.205C856.469 271.026 867.548 266.418 872.565 257.187C877.582 247.956 873.891 234.182 863.879 230.993C862.209 230.463 860.274 230.104 859.321 228.642C858.074 226.729 859.271 224.235 860.195 222.149C863.65 214.352 862.904 204.835 858.275 197.675C853.652 190.501 841.691 189.813 834.13 185.872Z" fill="#97A7AF"/>
<path d="M848.772 280.963C844.63 282.274 842.437 287.097 841.269 291.283C840.961 292.386 840.767 293.598 841.226 294.644C841.72 295.762 842.853 296.443 843.978 296.909C847.482 298.342 851.718 298.163 854.85 296.027C857.974 293.891 859.701 289.706 858.562 286.094C857.415 282.475 852.384 279.823 848.772 280.963Z" fill="#97A7AF"/>
<path d="M798.898 296.31C797.745 298.604 796.01 300.861 796.906 303.269C797.802 305.677 800.59 307.304 803.069 306.63C803.843 306.423 804.553 306.021 805.184 305.512C807.728 303.47 808.573 299.371 806.574 296.791C804.582 294.211 800.368 293.394 798.898 296.31Z" fill="#97A7AF"/>
</g>
<path d="M852.405 152.668C852.405 152.668 835.729 146.612 812.795 151.063C812.322 151.156 811.921 151.486 811.735 151.93L804.346 169.746C804.016 170.542 804.46 171.445 805.292 171.667L836.675 180.045L852.405 152.668Z" fill="#97A7AF"/>
<path d="M877.151 166.879C877.151 166.879 890.782 178.231 898.493 200.283C898.651 200.741 898.572 201.25 898.278 201.637L886.611 216.995C886.088 217.683 885.084 217.755 884.468 217.146L861.42 194.256L877.151 166.879Z" fill="#97A7AF"/>
<path d="M859.881 201.874C915.229 163.225 917.795 97.9649 917.4 80.0698C917.35 77.7048 915 76.0851 912.771 76.8734C841.986 101.871 829.473 184.338 829.473 184.338L829.68 184.553C837.893 193.088 848.371 199.094 859.881 201.874Z" fill="#C2CFD8"/>
<path d="M829.473 184.34L829.68 184.555C837.893 193.091 848.371 199.096 859.881 201.884C863.213 199.555 866.352 197.125 869.319 194.624C850.492 188.418 838.273 178.492 832.153 172.465C830.168 179.768 829.473 184.34 829.473 184.34Z" fill="#CC3366"/>
<path d="M914.547 113.317C917.306 98.5246 917.535 86.3699 917.399 80.0776C917.349 77.7126 914.998 76.0929 912.77 76.8812C901.045 81.0236 890.926 86.7497 882.189 93.4076C885.988 99.3846 895.978 111.661 914.547 113.317Z" fill="#F45573"/>
<path d="M878.342 151.758C887.2 151.758 894.381 144.577 894.381 135.719C894.381 126.861 887.2 119.68 878.342 119.68C869.484 119.68 862.303 126.861 862.303 135.719C862.303 144.577 869.484 151.758 878.342 151.758Z" fill="#97A7AF"/>
<path d="M878.342 147.743C884.984 147.743 890.368 142.359 890.368 135.717C890.368 129.075 884.984 123.691 878.342 123.691C871.7 123.691 866.316 129.075 866.316 135.717C866.316 142.359 871.7 147.743 878.342 147.743Z" fill="#3A415E"/>
<path d="M882.729 98.465C882.729 99.0885 882.227 99.5902 881.604 99.5902C880.98 99.5902 880.479 99.0885 880.479 98.465C880.479 97.8415 880.98 97.3398 881.604 97.3398C882.22 97.3398 882.729 97.8415 882.729 98.465Z" fill="#97A7AF"/>
<path d="M887.008 104.02C887.008 104.643 886.506 105.145 885.883 105.145C885.259 105.145 884.758 104.643 884.758 104.02C884.758 103.396 885.259 102.895 885.883 102.895C886.506 102.895 887.008 103.396 887.008 104.02Z" fill="#97A7AF"/>
<path d="M898.159 112.375C898.159 112.999 897.657 113.5 897.033 113.5C896.41 113.5 895.908 112.999 895.908 112.375C895.908 111.752 896.41 111.25 897.033 111.25C897.65 111.243 898.159 111.752 898.159 112.375Z" fill="#97A7AF"/>
<path d="M912.047 115.84C912.047 116.464 911.546 116.965 910.922 116.965C910.299 116.965 909.797 116.464 909.797 115.84C909.797 115.217 910.299 114.715 910.922 114.715C911.538 114.715 912.047 115.217 912.047 115.84Z" fill="#97A7AF"/>
<path d="M892.016 108.492C892.016 109.116 891.514 109.618 890.891 109.618C890.267 109.618 889.766 109.116 889.766 108.492C889.766 107.869 890.267 107.367 890.891 107.367C891.514 107.367 892.016 107.869 892.016 108.492Z" fill="#97A7AF"/>
<path d="M904.93 114.629C904.93 115.253 904.428 115.754 903.805 115.754C903.181 115.754 902.68 115.253 902.68 114.629C902.68 114.006 903.181 113.504 903.805 113.504C904.421 113.504 904.93 114.006 904.93 114.629Z" fill="#97A7AF"/>
<path d="M837.592 172.149C837.592 172.772 837.09 173.274 836.467 173.274C835.843 173.274 835.342 172.772 835.342 172.149C835.342 171.525 835.843 171.024 836.467 171.024C837.09 171.016 837.592 171.525 837.592 172.149Z" fill="#97A7AF"/>
<path d="M844.127 177.113C844.127 177.737 843.626 178.239 843.002 178.239C842.379 178.239 841.877 177.737 841.877 177.113C841.877 176.49 842.379 175.988 843.002 175.988C843.626 175.988 844.127 176.49 844.127 177.113Z" fill="#97A7AF"/>
<path d="M851.202 181.766C851.202 182.389 850.7 182.891 850.076 182.891C849.453 182.891 848.951 182.389 848.951 181.766C848.951 181.142 849.453 180.641 850.076 180.641C850.7 180.641 851.202 181.142 851.202 181.766Z" fill="#97A7AF"/>
<path d="M859.823 186.477C859.823 187.1 859.321 187.602 858.697 187.602C858.074 187.602 857.572 187.1 857.572 186.477C857.572 185.853 858.074 185.352 858.697 185.352C859.321 185.352 859.823 185.86 859.823 186.477Z" fill="#97A7AF"/>
<path d="M869.262 190.203C869.262 190.827 868.76 191.328 868.137 191.328C867.513 191.328 867.012 190.827 867.012 190.203C867.012 189.58 867.513 189.078 868.137 189.078C868.753 189.078 869.262 189.58 869.262 190.203Z" fill="#97A7AF"/>
<path d="M847.389 216.652C854.942 200.427 833.134 186.143 821.639 199.86C819.389 202.548 817.403 206.31 815.999 211.528C809.233 236.59 813.419 244.516 813.419 244.516C813.419 244.516 826.276 243.348 841.813 225.066C844.307 222.127 846.149 219.325 847.389 216.652Z" fill="#1395ED"/>
<path d="M843.332 210.154C847.668 200.844 835.155 192.646 828.554 200.515C827.264 202.056 826.125 204.213 825.315 207.216C821.43 221.599 823.831 226.15 823.831 226.15C823.831 226.15 831.206 225.483 840.128 214.991C841.562 213.3 842.615 211.688 843.332 210.154Z" fill="#1147CB"/>
<path d="M720.953 247.23C720.953 247.23 732.52 290.796 732.678 303.309C732.828 315.829 727.281 357.159 727.281 357.159H716.094C716.094 357.159 716.467 310.289 715.428 302.191C714.381 294.1 708.462 273.309 708.462 273.309C708.462 273.309 706.312 329.754 701.689 357.152H690.581C690.581 357.152 688.925 282.54 690.022 247.223H720.953V247.23Z" fill="#1395ED"/>
<path d="M692.352 357.159L693.491 250.117" stroke="#1147CB" stroke-width="1.3182" stroke-miterlimit="10"/>
<path d="M712.524 268.141C712.338 268.692 712.08 269.187 711.793 269.66C711.514 270.14 711.191 270.584 710.862 271.022C710.518 271.452 710.159 271.867 709.765 272.254C709.371 272.641 708.948 273.014 708.461 273.322C708.647 272.77 708.905 272.276 709.192 271.803C709.471 271.323 709.794 270.878 710.131 270.441C710.475 270.018 710.833 269.595 711.234 269.208C711.614 268.814 712.03 268.449 712.524 268.141Z" fill="#1147CB"/>
<path d="M710.418 270.82C710.418 270.82 717.262 293.166 717.9 302.196C718.538 311.226 717.506 357.164 717.506 357.164" stroke="#1147CB" stroke-width="1.3182" stroke-miterlimit="10"/>
<path d="M742.626 248.27C743.916 246.607 746.797 247.56 748.882 247.202C749.14 247.159 749.413 247.116 749.663 247.202C750.136 247.367 750.337 247.926 750.473 248.406C750.523 248.585 750.566 248.786 750.466 248.936C750.394 249.044 750.258 249.087 750.136 249.13C749.319 249.395 748.481 249.603 747.635 249.739C749.219 250.886 750.86 252.054 752.752 252.512C753.44 252.677 754.25 252.821 754.58 253.451C754.709 253.695 754.737 253.974 754.73 254.247C754.709 255.981 753.318 257.579 751.606 257.844C750.523 258.016 749.42 257.701 748.395 257.3C745.442 256.146 742.791 254.211 740.784 251.753C740.734 251.688 740.684 251.624 740.676 251.545C740.669 251.452 740.727 251.373 740.784 251.308C741.508 250.355 741.895 249.209 742.626 248.27Z" fill="#FF5077"/>
<path d="M691.671 256.255C693.677 255.402 695.827 257.681 697.906 258.39C698.164 258.476 698.436 258.577 698.615 258.777C698.966 259.164 698.873 259.759 698.751 260.261C698.708 260.447 698.651 260.648 698.479 260.734C698.357 260.791 698.214 260.77 698.085 260.748C697.211 260.583 696.343 260.354 695.505 260.053C696.379 261.866 697.297 263.73 698.794 265.084C699.339 265.571 700.006 266.102 699.998 266.833C699.991 267.112 699.877 267.385 699.74 267.628C698.859 269.176 696.802 269.929 695.111 269.32C694.043 268.933 693.19 268.108 692.452 267.234C690.338 264.733 688.876 261.68 688.259 258.469C688.245 258.39 688.231 258.297 688.267 258.226C688.31 258.14 688.396 258.097 688.482 258.061C689.614 257.581 690.531 256.742 691.671 256.255Z" fill="#FF5077"/>
<path d="M705.861 157.14C705.861 157.14 711.516 156.251 714.074 162.278C716.626 168.298 717.135 180.876 709.158 180.704C701.182 180.525 697.921 174.326 697.921 174.326C697.921 174.326 694.008 172.735 694.502 170.255C695.004 167.775 696.788 168.506 696.788 168.506C696.788 168.506 695.233 157.319 705.861 157.14Z" fill="#FF5077"/>
<path d="M709.431 173.679L712.677 185.812L716.963 188.378C716.963 188.378 714.089 199.536 708.062 199.536C702.042 199.536 697.025 187.754 697.025 187.754L701.06 185.69L701.813 173.672H709.431V173.679Z" fill="#FF5077"/>
<path d="M711.816 182.623L711.221 180.416C711.221 180.416 708.361 181.247 704.914 179.871C704.921 179.864 707.874 182.186 711.816 182.623Z" fill="#CC3366"/>
<path d="M696.538 168.807C697.828 168.441 697.942 171.072 698.645 172.197C698.752 172.376 698.888 172.569 699.096 172.612C699.347 172.663 699.591 172.448 699.655 172.204C699.727 171.96 699.669 171.702 699.619 171.459C699.225 169.366 699.397 167.173 700.121 165.173C700.157 165.08 700.2 164.973 700.293 164.937C700.379 164.901 700.479 164.937 700.565 164.973C702.794 165.79 705.252 165.453 707.596 165.102C708.972 164.894 710.355 164.686 711.674 164.263C714.368 163.396 716.812 161.511 717.808 158.91C718.03 158.322 718.159 157.584 717.715 157.125C717.385 156.774 716.841 156.71 716.353 156.724C715.536 156.738 714.727 156.889 713.967 157.168C713.859 156.172 713.186 155.24 712.254 154.818C711.322 154.395 710.169 154.488 709.337 155.054C709.194 155.154 709.051 155.262 708.879 155.291C708.628 155.334 708.384 155.183 708.148 155.068C707.037 154.517 705.711 154.696 704.5 154.939C702.421 155.369 700.35 155.993 698.58 157.132C696.81 158.279 695.362 159.999 694.911 162.034C694.646 163.231 694.732 164.478 694.818 165.704C694.875 166.492 694.932 167.28 694.99 168.069C695.004 168.234 695.018 168.398 695.104 168.535C695.355 168.914 696.115 168.929 696.538 168.807Z" fill="#25263A"/>
<path d="M715.608 187.438C714.174 186.922 713.558 192.727 705.94 192.19C701.948 191.91 700.042 186.507 699.282 186.607C696.81 186.944 693.606 186.865 691.212 188.743C688.819 190.62 687.199 193.293 685.737 195.974C682.992 201.019 680.656 206.272 678.32 211.525C677.381 213.632 676.442 215.754 675.904 217.997C673.833 226.661 678.026 236.487 682.089 244.492C684.046 248.355 684.117 252.218 686.074 256.081C686.504 256.926 687.07 257.672 687.694 258.388C688.647 259.485 691.85 258.438 693.606 256.991C695.276 255.608 694.101 252.34 693.491 250.125C702.199 250.792 711.609 250.354 720.08 248.398C720.646 248.269 721.269 248.09 721.57 247.595C721.793 247.237 721.793 246.785 721.778 246.363C721.685 241.683 721.456 237.003 721.083 232.337C722.344 235.419 723.821 238.451 725.856 241.095C727.877 243.718 730.407 245.904 732.915 248.061C734.922 249.788 737.136 251.308 739.695 251.945C742.06 252.533 744.697 247.954 744.597 247.172C744.418 245.818 743.085 244.915 742.053 244.005C739.509 241.747 737.359 239.045 735.732 236.057C732.672 230.424 731.554 223.995 730.486 217.696C729.769 213.496 729.06 209.289 728.343 205.09C727.92 202.61 727.49 200.095 726.394 197.823C724.215 193.265 722.387 189.882 715.608 187.438Z" fill="#3C4161"/>
<path d="M693.492 250.119C693.492 250.119 690.21 238.954 686.275 221.066C686.275 221.066 690.346 213.268 692.991 208.488" stroke="#1C2035" stroke-width="1.3182" stroke-miterlimit="10"/>
<path d="M721.09 232.338C721.09 232.338 720.617 219.646 719.441 210.078" stroke="#1C2035" stroke-width="1.3182" stroke-miterlimit="10"/>
<path d="M715.472 187.277C715.472 187.277 712.878 192.2 707.754 192.2C702.629 192.2 699.275 186.617 699.275 186.617" stroke="#1C2035" stroke-width="1.3182" stroke-miterlimit="10"/>
<path d="M726.243 357.16L743.55 362.829H716.217L716.561 357.16H726.243Z" fill="#25263A"/>
<path d="M700.981 357.16L718.747 362.829H690.689L691.041 357.16H700.981Z" fill="#25263A"/>
<path d="M712.211 174.686L705.561 173.977C705.561 173.977 706.184 177.696 708.929 177.961C711.674 178.226 712.211 174.686 712.211 174.686Z" fill="#161822"/>
<path d="M710.047 168.809C710.377 169.253 710.62 169.733 710.821 170.235C711.022 170.736 711.172 171.26 711.251 171.819C711.28 172.098 711.287 172.392 711.23 172.714L711.136 172.972C711.101 173.058 711.015 173.152 710.95 173.23C710.821 173.352 710.671 173.431 710.513 173.488C709.854 173.689 709.266 173.395 708.879 173.03C709.402 173.152 709.947 173.18 710.291 172.98C710.37 172.929 710.448 172.858 710.506 172.793C710.513 172.757 710.527 172.757 710.534 172.722C710.542 172.679 710.549 172.636 710.556 172.6C710.57 172.399 710.57 172.163 710.534 171.919C710.484 171.432 710.37 170.923 710.284 170.407C710.19 169.876 710.097 169.36 710.047 168.809Z" fill="#CC3366"/>
<path d="M705.919 169.793C705.876 169.464 705.984 169.084 706.27 168.826C706.543 168.553 706.944 168.453 707.302 168.453C707.654 168.453 708.048 168.553 708.334 168.819C708.621 169.077 708.736 169.471 708.664 169.8C708.521 169.492 708.306 169.284 708.084 169.155C707.847 169.041 707.589 168.983 707.302 168.991C707.023 168.983 706.765 169.034 706.536 169.163C706.292 169.277 706.077 169.499 705.919 169.793Z" fill="#25263A"/>
<path d="M705.596 167.42C705.596 167.42 706.434 166.768 707.875 167.005" stroke="#25263A" stroke-miterlimit="10" stroke-linecap="round" stroke-linejoin="round"/>
<path d="M711.738 169.44C711.695 169.111 711.802 168.731 712.089 168.466C712.361 168.193 712.762 168.093 713.121 168.086C713.472 168.086 713.866 168.186 714.153 168.451C714.439 168.709 714.554 169.104 714.482 169.433C714.346 169.125 714.124 168.91 713.902 168.788C713.665 168.674 713.407 168.616 713.121 168.623C712.841 168.616 712.583 168.666 712.354 168.795C712.117 168.932 711.902 169.147 711.738 169.44Z" fill="#25263A"/>
<path d="M714.36 167.154C714.36 167.154 713.472 166.574 712.053 166.918" stroke="#25263A" stroke-miterlimit="10" stroke-linecap="round" stroke-linejoin="round"/>
<path d="M696.294 169.788C695.942 169.859 695.67 170.06 695.641 170.289C695.606 170.519 695.67 170.848 695.778 171.106C696 171.658 696.415 172.11 697.003 172.504C696.286 172.533 695.563 172.017 695.276 171.307C695.147 170.942 695.068 170.562 695.247 170.139C695.34 169.931 695.541 169.781 695.735 169.738C695.935 169.702 696.122 169.716 696.294 169.788Z" fill="#CC3366"/>
<path d="M898.651 249.33C897.555 247.71 894.86 248.477 892.961 248.054C892.725 248.004 892.481 247.946 892.244 248.018C891.8 248.154 891.585 248.663 891.435 249.115C891.377 249.279 891.327 249.466 891.413 249.609C891.478 249.709 891.592 249.76 891.707 249.803C892.445 250.089 893.198 250.319 893.972 250.483C892.452 251.487 890.883 252.512 889.113 252.856C888.475 252.985 887.722 253.078 887.385 253.651C887.256 253.873 887.213 254.138 887.199 254.396C887.12 256.023 888.31 257.586 889.865 257.908C890.847 258.116 891.886 257.865 892.846 257.535C895.627 256.582 898.171 254.891 900.156 252.669C900.207 252.612 900.257 252.555 900.264 252.476C900.271 252.39 900.228 252.318 900.178 252.246C899.569 251.336 899.275 250.247 898.651 249.33Z" fill="#FF5077"/>
<path d="M928.193 257.793C928.193 257.793 927.906 290.337 927.104 299.553C926.301 308.769 925.262 357.947 925.262 357.947H935.281C935.281 357.947 943.902 307.458 945.586 274.971L951.743 357.947H961.618C961.618 357.947 966.312 290.229 961.231 257.793H928.193Z" fill="#1395ED"/>
<path d="M943.802 269.645C944.44 270.419 944.813 271.279 945.128 272.16C945.272 272.604 945.401 273.056 945.479 273.522C945.565 273.988 945.616 274.461 945.587 274.969C945.257 274.59 945.014 274.174 944.799 273.751C944.584 273.328 944.412 272.891 944.261 272.454C943.974 271.558 943.759 270.648 943.802 269.645Z" fill="#1147CB"/>
<path d="M944.69 272.305C944.69 272.305 940.19 330.835 935.273 357.939" stroke="#1147CB" stroke-width="1.2814" stroke-miterlimit="10"/>
<path d="M960.192 357.946C960.192 357.946 965.61 285.57 959.074 257.957" stroke="#1147CB" stroke-width="1.2814" stroke-miterlimit="10"/>
<path d="M938.913 176.918L936.204 198.662C935.581 203.65 939.472 208.057 944.503 208.057H952.079C957.239 208.057 961.166 203.435 960.335 198.346L957.332 179.964L938.913 176.918Z" fill="#25263A"/>
<path d="M946.977 171.785C943.229 171.613 939.846 174.243 938.835 177.891C937.631 182.256 935.782 191.365 941.573 193.909C949.163 197.241 954.889 189.121 954.889 189.121C954.889 189.121 957.282 187.122 956.874 183.983C956.465 180.844 954.688 182.664 954.688 182.664C954.688 182.664 955.634 172.588 947.672 171.828C947.435 171.814 947.206 171.8 946.977 171.785Z" fill="#FF5077"/>
<path d="M942.34 189.883L941.186 199.953L935.037 202.418C935.037 202.418 938.147 211.692 945.228 211.692C952.309 211.692 956.394 202.253 956.394 202.253L950.868 200.003L949.958 187.16L942.34 189.883Z" fill="#FF5077"/>
<path d="M941.86 194.031C941.86 194.031 944.318 195.171 948.024 194.282C948.024 194.282 946.934 196.59 941.609 196.267L941.86 194.031Z" fill="#CC3366"/>
<path d="M938.377 175.679C938.377 175.679 937.983 178.18 940.312 178.94C942.519 179.656 945.866 186.357 952.796 185.182C953.506 185.06 954.1 184.53 954.323 183.835L954.695 182.666C954.695 182.666 956.236 180.982 956.881 183.985C956.881 183.985 960.056 171.723 949.722 169.594C939.387 167.466 938.377 175.679 938.377 175.679Z" fill="#25263A"/>
<path d="M930.924 257.794C931.784 230.468 937.754 201.3 937.754 201.3C937.754 201.3 940.642 210.767 945.085 210.767C950.274 210.767 954.051 201.07 954.051 201.07L957.433 257.794C957.433 257.794 953.176 261.578 942.648 261.578C932.121 261.578 930.924 257.794 930.924 257.794Z" fill="#161822"/>
<path d="M939.816 206.145C938.706 204.089 938.698 203.401 938.06 201.63L937.76 201.301L935.817 201.824C935.824 201.824 935.824 201.824 935.817 201.824C935.824 201.817 935.81 201.824 935.817 201.824L934.305 202.433C932.872 203.014 931.611 203.96 930.7 205.214C926.415 211.119 924.817 223.94 924.817 223.94V223.933C924.573 224.815 924.351 225.703 924.15 226.599C923.347 230.29 924.48 231.988 918.173 237.041C917.048 237.944 915.915 238.825 914.59 239.406C909.63 241.577 904.671 243.749 899.712 245.92C899.274 246.114 898.866 246.372 898.515 246.687C897.096 247.956 897.454 247.784 897.569 249.719C897.612 250.464 897.311 253.675 897.755 254.277C898.436 255.208 899.826 255.28 900.973 255.244C906.95 255.044 912.569 252.492 918.008 249.991C920.173 248.995 922.294 248.035 924.437 247.053C923.87 258.125 923.598 267.413 923.598 267.413C923.699 270.466 923.799 273.512 923.899 276.565C923.928 277.375 923.992 278.278 924.58 278.815C925.01 279.21 925.634 279.324 926.221 279.41C927.848 279.647 929.489 279.84 931.13 279.976C931.424 279.998 931.732 280.019 931.99 279.876C932.406 279.647 932.514 279.109 932.578 278.651C933.553 271.556 934.527 264.389 933.932 257.301C933.768 255.345 934.262 249.955 934.234 247.984C934.191 244.552 934.162 244.587 934.513 241.162C935.323 233.164 933.997 224.944 936.362 217.211C937.143 214.645 938.319 212.208 939.551 209.822C939.788 209.363 940.92 208.367 940.863 207.865C940.805 207.278 940.096 206.654 939.816 206.145Z" fill="#3A415E"/>
<path d="M954.05 201.07C958.881 201.916 960.4 203.213 963.46 206.983C967.051 211.405 968.649 218.858 969.093 224.62C970.247 239.469 971.336 249.116 972.132 266.602C972.146 266.86 972.096 267.125 971.981 267.362C971.752 267.813 971.222 268.021 970.727 268.114C968.943 268.473 967.144 267.985 965.345 267.849C965.023 267.828 964.679 267.813 964.385 267.964C963.274 268.516 963.89 273.54 963.804 274.765C963.668 276.664 961.346 277.574 959.447 277.761C957.254 277.976 955.039 277.861 952.897 277.417C952.588 277.352 952.266 277.273 952.051 277.044C951.779 276.757 951.764 276.313 951.757 275.912C951.642 264.323 951.521 252.728 952.115 241.132C952.388 235.75 952.811 230.332 952.252 225C952.058 223.187 951.757 221.381 951.657 219.56C951.463 216.034 951.169 215.21 950.854 211.698C950.811 211.218 950.302 207.75 950.46 207.284C950.575 206.94 950.804 206.646 951.033 206.359C952.273 204.761 952.603 203.134 953.843 201.543L954.05 201.07Z" fill="#3A415E"/>
<path d="M926.336 357.949L911.365 362.83H934.843L934.399 357.949H926.336Z" fill="#25263A"/>
<path d="M952.924 357.949L937.953 362.83H961.438L960.987 357.949H952.924Z" fill="#25263A"/>
<path d="M964.285 271.352C964.285 271.352 964.149 240.643 961.289 221.207" stroke="#1C2035" stroke-width="1.2814" stroke-miterlimit="10"/>
<path d="M966.734 267.715C964.806 267.364 964.455 268.861 962.871 270.08C962.678 270.23 962.47 270.395 962.37 270.617C962.176 271.047 962.427 271.527 962.671 271.914C962.757 272.058 962.864 272.215 963.036 272.23C963.158 272.244 963.273 272.18 963.38 272.122C964.09 271.721 964.763 271.269 965.401 270.768C965.157 272.567 964.899 274.416 963.989 275.999C963.66 276.573 963.237 277.225 963.452 277.834C963.538 278.071 963.71 278.264 963.896 278.429C965.086 279.475 967.071 279.497 968.354 278.479C969.164 277.834 969.665 276.881 970.052 275.928C971.17 273.183 971.794 270.574 971.421 267.679C971.414 267.607 971.4 267.528 971.349 267.478C971.292 267.421 971.192 267.371 971.12 267.407C970.683 267.6 968.54 268.044 966.734 267.715Z" fill="#FF5077"/>
<path d="M937.846 201.242C937.846 201.242 940.426 210.759 945.256 210.759C950.086 210.759 954.05 201.062 954.05 201.062" stroke="#1C2035" stroke-width="1.2814" stroke-miterlimit="10"/>
<path d="M941.902 189.727L947.951 189.039C947.951 189.039 947.478 192.852 944.812 192.852C942.16 192.852 941.902 189.727 941.902 189.727Z" fill="#161822"/>
<path d="M944.166 184.086C944.123 184.609 944.037 185.111 943.951 185.598C943.873 186.093 943.765 186.573 943.715 187.039C943.679 187.275 943.679 187.497 943.693 187.691C943.701 187.727 943.708 187.77 943.715 187.805C943.722 187.841 943.736 187.841 943.744 187.87C943.794 187.927 943.865 187.999 943.944 188.042C944.267 188.235 944.783 188.214 945.292 188.106C944.926 188.465 944.367 188.751 943.729 188.558C943.572 188.508 943.435 188.429 943.306 188.314C943.242 188.235 943.163 188.149 943.127 188.063L943.041 187.82C942.984 187.512 942.991 187.225 943.02 186.96C943.091 186.422 943.235 185.921 943.435 185.44C943.607 184.967 943.844 184.509 944.166 184.086Z" fill="#CC3366"/>
<path d="M948.453 184.565C948.295 184.286 948.087 184.078 947.865 183.956C947.643 183.834 947.399 183.791 947.134 183.799C946.862 183.791 946.618 183.842 946.396 183.949C946.181 184.071 945.973 184.272 945.837 184.558C945.765 184.243 945.865 183.863 946.145 183.612C946.417 183.354 946.797 183.261 947.134 183.254C947.478 183.254 947.865 183.354 948.123 183.619C948.395 183.877 948.503 184.25 948.453 184.565Z" fill="#25263A"/>
<path d="M948.761 182.289C948.761 182.289 947.958 181.666 946.582 181.888" stroke="#25263A" stroke-miterlimit="10" stroke-linecap="round" stroke-linejoin="round"/>
<path d="M941.902 184.495C941.744 184.216 941.536 184.008 941.314 183.886C941.092 183.764 940.848 183.721 940.583 183.728C940.311 183.721 940.067 183.771 939.845 183.879C939.63 184.001 939.422 184.201 939.286 184.488C939.214 184.173 939.315 183.793 939.594 183.542C939.867 183.284 940.246 183.191 940.583 183.184C940.927 183.184 941.314 183.284 941.572 183.549C941.845 183.807 941.952 184.173 941.902 184.495Z" fill="#25263A"/>
<path d="M939.4 182.303C939.4 182.303 940.253 181.744 941.608 182.081" stroke="#25263A" stroke-miterlimit="10" stroke-linecap="round" stroke-linejoin="round"/>
<path d="M955.532 183.75C956.034 184.187 956.213 184.925 956.098 185.592C956.027 185.921 955.905 186.251 955.704 186.516C955.518 186.789 955.26 187.004 954.98 187.168C955.109 186.867 955.231 186.588 955.339 186.316C955.446 186.043 955.518 185.771 955.575 185.499C955.633 185.226 955.64 184.947 955.64 184.66C955.618 184.366 955.597 184.065 955.532 183.75Z" fill="#CC3366"/>
<path d="M924.48 247.036C924.48 247.036 926.251 233.376 928.207 222.289" stroke="#1C2035" stroke-width="1.2814" stroke-miterlimit="10"/>
<path d="M964.148 267.787C964.148 267.787 969.602 268.998 972.369 266.984" stroke="#1C2035" stroke-width="1.2814" stroke-miterlimit="10"/>
</svg>
