<svg width="204" height="37" viewBox="0 0 204 37" fill="none" xmlns="http://www.w3.org/2000/svg">
<g clip-path="url(#clip0_2198_17328)">
<path d="M76.8176 9.00317C76.8176 15.2026 76.8176 21.3465 76.8176 27.5042C77.943 27.5042 79.0407 27.5042 80.1903 27.5042C80.1903 23.355 80.1903 19.2302 80.1903 15.0184C80.3288 15.1713 80.405 15.2478 80.4708 15.3312C83.705 19.3136 86.9392 23.296 90.1734 27.2749C90.2531 27.3756 90.3743 27.5112 90.4782 27.5146C91.3716 27.532 92.2649 27.5251 93.193 27.5251C93.193 27.3166 93.193 27.1671 93.193 27.0177C93.193 21.1866 93.193 15.3555 93.193 9.52094C93.193 9.45144 93.186 9.38194 93.193 9.31244C93.2137 9.07962 93.1168 8.98579 92.8813 8.99274C92.5212 9.00316 92.1611 8.99621 91.8009 8.99621C91.1534 8.99621 90.5059 8.99621 89.7925 8.99621C89.7925 13.1697 89.7925 17.2911 89.7925 21.409C89.5744 21.2839 89.4463 21.1414 89.3285 20.992C86.1567 17.0861 82.9848 13.1767 79.8094 9.27074C79.7194 9.15954 79.5844 9.01359 79.4666 9.01012C78.5905 8.99274 77.7075 9.00317 76.8176 9.00317ZM162.954 9.02054C162.954 9.23947 162.954 9.40279 162.954 9.56959C162.954 12.8882 162.96 16.2069 162.947 19.5256C162.943 20.1198 162.888 20.721 162.77 21.3013C162.434 22.9415 161.565 24.1682 159.868 24.5921C159.245 24.7485 158.58 24.8041 157.939 24.7902C155.768 24.7416 154.314 23.6018 153.822 21.5515C153.656 20.8565 153.576 20.1267 153.569 19.4109C153.542 16.1339 153.559 12.857 153.559 9.58002C153.559 9.40279 153.559 9.22904 153.559 9.03792C152.392 9.03792 151.284 9.03792 150.169 9.03792C150.162 9.17344 150.152 9.27074 150.152 9.36457C150.152 12.7388 150.141 16.1131 150.159 19.4873C150.162 20.1928 150.228 20.9017 150.332 21.6001C150.772 24.5991 152.725 26.7884 155.623 27.4973C157.469 27.949 159.332 27.9386 161.163 27.4208C163.272 26.8231 164.782 25.5026 165.634 23.4628C166.115 22.3091 166.316 21.0893 166.319 19.8487C166.337 16.3772 166.326 12.9056 166.323 9.43407C166.323 9.30202 166.309 9.16997 166.299 9.02402C165.177 9.02054 164.089 9.02054 162.954 9.02054ZM42.8203 25.593C43.0419 25.7563 43.222 25.9057 43.4194 26.0308C43.6998 26.208 43.9803 26.3922 44.2816 26.5277C47.0345 27.8031 49.9086 28.1262 52.8658 27.5007C54.4136 27.1741 55.7849 26.4582 56.7233 25.103C57.9318 23.3585 57.866 20.8113 56.5744 19.3657C55.8853 18.5942 55.0369 18.0417 54.0535 17.7498C52.4398 17.2703 50.802 16.8672 49.1883 16.3772C48.5512 16.1826 47.9244 15.8907 47.3565 15.5362C46.6605 15.0984 46.477 14.3895 46.6709 13.6006C46.9341 12.5373 47.734 12.0403 48.7035 11.8006C50.1717 11.4426 51.6503 11.4982 53.0874 11.9396C53.9911 12.2176 54.8603 12.6033 55.7641 12.9473C56.0238 12.3044 56.3043 11.6129 56.5848 10.9179C56.8168 10.3515 56.8271 10.3272 56.2662 10.0526C53.2778 8.57921 50.1821 8.31163 47.0068 9.31592C45.6667 9.73987 44.5725 10.5461 43.8487 11.804C42.9311 13.3956 42.9554 16.0505 44.3855 17.4266C45.13 18.146 45.9887 18.6603 46.9721 18.9417C48.5789 19.4039 50.2029 19.807 51.7992 20.297C52.4087 20.4847 53.0181 20.7731 53.5271 21.1519C54.4136 21.8121 54.4863 23.0944 53.6795 23.852C53.2709 24.2342 52.7307 24.5574 52.194 24.6999C50.1717 25.242 48.1841 24.964 46.2692 24.1821C45.4866 23.8624 44.7525 23.4141 43.9699 23.0145C43.5994 23.8381 43.2185 24.6999 42.8203 25.593ZM201.203 13.0342C201.539 12.2037 201.847 11.4183 202.176 10.6399C202.266 10.4245 202.221 10.3063 202.02 10.209C201.646 10.0283 201.293 9.8059 200.909 9.64952C198.852 8.81551 196.715 8.57574 194.52 8.82941C193.242 8.97536 192.034 9.34372 190.95 10.07C189.038 11.3523 188.214 13.684 188.928 15.8837C189.412 17.378 190.541 18.2711 191.951 18.7506C193.516 19.2858 195.143 19.6402 196.722 20.1337C197.467 20.3665 198.232 20.6341 198.873 21.0615C199.95 21.7739 199.967 23.1465 199.011 24.0257C198.526 24.4705 197.931 24.6999 197.297 24.8111C194.62 25.2732 192.165 24.679 189.897 23.2299C189.762 23.1431 189.634 23.0527 189.471 22.945C189.066 23.8624 188.682 24.7277 188.277 25.6416C188.782 25.9509 189.229 26.2845 189.728 26.5173C192.487 27.8135 195.375 28.1367 198.346 27.5042C199.866 27.181 201.217 26.486 202.152 25.169C203.835 22.7956 203.167 19.6889 200.649 18.2606C200.126 17.9653 199.548 17.7359 198.966 17.5691C197.443 17.1243 195.895 16.7594 194.375 16.2938C193.793 16.1165 193.239 15.7934 192.723 15.4598C192.255 15.1574 192.072 14.6536 192.079 14.0871C192.089 13.0828 192.744 12.2627 193.866 11.8909C194.981 11.5226 196.127 11.533 197.276 11.672C198.668 11.8353 199.957 12.3218 201.203 13.0342ZM112.917 14.6188C112.834 13.1141 112.754 11.6546 112.671 10.1013C112.287 10.4453 111.971 10.7268 111.698 10.97C111.071 10.5704 110.514 10.1534 109.904 9.83717C108.045 8.87459 106.054 8.60354 103.986 8.80161C101.677 9.02402 99.6475 9.88235 97.9854 11.5191C96.0082 13.4686 95.1529 15.8802 95.2498 18.6359C95.3503 21.5133 96.4687 23.9076 98.7403 25.7007C100.929 27.4312 103.47 27.9768 106.196 27.7509C108.242 27.5807 110.105 26.8961 111.663 25.5026C111.937 25.2593 112.183 24.9848 112.453 24.7138C111.688 23.9875 110.971 23.3029 110.25 22.6218C107.134 25.9266 102.331 25.1064 100.202 22.6114C97.8988 19.9078 98.2486 15.4215 100.946 13.2079C103.574 11.0534 107.698 11.4878 109.354 13.1975C109.07 13.4651 108.789 13.7362 108.453 14.0524C109.963 14.2435 111.4 14.4277 112.917 14.6188ZM68.043 27.5077C68.043 25.4609 68.0326 23.4628 68.0534 21.4646C68.0568 21.1797 68.1434 20.86 68.2889 20.6167C70.5154 16.895 72.7593 13.1836 74.9997 9.46882C75.0793 9.33329 75.152 9.19429 75.2594 8.99969C74.2205 8.99969 73.2683 9.01359 72.316 8.99274C72.0113 8.98579 71.852 9.10047 71.6962 9.35762C70.2869 11.7102 68.8602 14.0559 67.4405 16.4015C67.1184 16.9297 66.7964 17.4579 66.4432 18.0348C66.2908 17.788 66.1731 17.6039 66.0588 17.4162C64.4487 14.73 62.835 12.0438 61.2352 9.35414C61.0829 9.09699 60.9167 8.98926 60.6119 8.99621C59.6701 9.01707 58.7282 9.00317 57.7898 9.00317C57.6721 9.00317 57.5578 9.02054 57.3881 9.03444C57.5024 9.22557 57.5855 9.36804 57.6686 9.50704C59.9159 13.2323 62.1632 16.9575 64.3967 20.6932C64.5422 20.9399 64.6287 21.2596 64.6322 21.548C64.653 23.3655 64.6426 25.1864 64.6426 27.0038C64.6426 27.1671 64.6426 27.327 64.6426 27.5112C65.7991 27.5077 66.8968 27.5077 68.043 27.5077ZM127.814 24.6304C124.583 24.6304 121.383 24.6304 118.149 24.6304C118.149 19.4074 118.149 14.2331 118.149 9.03444C117.006 9.03444 115.895 9.03444 114.787 9.03444C114.787 15.213 114.787 21.3534 114.787 27.5077C119.139 27.5077 123.464 27.5077 127.814 27.5077C127.814 26.5521 127.814 25.6173 127.814 24.6304ZM109.295 15.3138C108.72 14.9142 108.246 14.5007 107.702 14.2227C106.646 13.6806 105.503 13.6354 104.343 13.8091C100.939 14.3165 99.2805 18.3545 101.41 21.058C102.757 22.7678 104.613 23.0979 106.653 22.7365C107.456 22.594 108.152 22.2083 108.782 21.6974C109.056 21.9337 109.298 22.1457 109.613 22.4203C109.669 21.27 109.717 20.224 109.769 19.1433C109.191 19.2197 108.675 19.2858 108.156 19.3553C107.633 19.4248 107.113 19.4943 106.59 19.5638C106.573 19.6055 106.559 19.6437 106.542 19.6854C106.743 19.8487 106.944 20.0086 107.144 20.1719C106.303 21.0302 104.662 21.0024 103.747 20.1511C102.826 19.2927 102.761 17.5656 103.609 16.5822C104.578 15.4632 106.095 15.5327 107.643 16.7942C108.156 16.339 108.668 15.8802 109.295 15.3138ZM186.556 16.7664C186.289 14.7752 185.461 13.0516 183.993 11.6685C181.957 9.74335 179.45 9.04487 176.732 9.00664C174.145 8.96841 171.555 8.99622 168.965 8.99969C168.823 8.99969 168.677 9.01707 168.529 9.02749V27.5285H169.031C171.538 27.5285 174.041 27.5494 176.548 27.5181C177.428 27.5077 178.321 27.4417 179.183 27.2714C181.884 26.7397 184.083 25.4088 185.489 22.9624C186.597 21.0372 186.843 18.9383 186.556 16.7664ZM181.957 21.2978C181.081 22.8199 179.713 23.6469 178.03 23.9805C177.494 24.0848 176.94 24.1265 176.393 24.1334C174.831 24.1543 173.273 24.1404 171.714 24.1404H171.403V12.6241C171.493 12.6207 171.583 12.6102 171.673 12.6102C173.283 12.6068 174.897 12.5894 176.507 12.6137C178.2 12.638 179.758 13.0724 181.026 14.2678C181.936 15.1296 182.452 16.2034 182.619 17.4405C182.799 18.7958 182.646 20.0989 181.957 21.2978ZM148.24 17.3745C148.046 14.9872 147.108 12.9508 145.342 11.3384C142.918 9.12827 140.002 8.44369 136.824 8.83984C132.003 9.43754 128.783 12.9994 128.426 17.3363C128.212 19.9843 128.839 22.389 130.584 24.4219C132.613 26.7849 135.265 27.7648 138.32 27.7787C138.597 27.7787 138.874 27.7892 139.151 27.7753C139.386 27.7648 139.618 27.7336 139.854 27.7023C142.319 27.3791 144.435 26.354 146.069 24.4497C147.814 22.4168 148.458 20.026 148.24 17.3745ZM138.42 25.0474C134.756 25.0474 131.789 22.0693 131.789 18.3962C131.789 14.7196 134.756 11.7415 138.42 11.7415C142.08 11.7415 145.048 14.7196 145.048 18.3962C145.048 22.0693 142.08 25.0474 138.42 25.0474Z" fill="#273C7F"/>
<path d="M36.2514 9.99308C36.5769 9.23204 36.8781 8.53356 37.2002 7.78296C38.1628 8.18954 39.1081 8.59264 40.1123 9.01659C39.07 11.4839 38.0381 13.9268 36.9855 16.4149C34.5234 15.3689 32.0891 14.3334 29.6098 13.2805C30.0184 12.3074 30.4201 11.3588 30.8425 10.358C31.5767 10.6672 32.29 10.9661 33.0552 11.2858C31.2789 7.63006 26.7946 3.93958 21.0914 3.57817C17.4971 3.3523 14.2109 4.2697 11.2884 6.39642C8.36582 8.52314 6.49594 11.3796 5.56446 14.9311C4.49101 14.6705 3.44179 14.4133 2.39258 14.1596C3.32406 9.38494 7.4101 3.15422 14.8619 0.9441C22.7916 -1.40502 31.9576 1.85803 36.2514 9.99308Z" fill="#273C7F"/>
<path d="M34.5513 22.0656C35.656 22.3366 36.6982 22.5938 37.7405 22.8509C36.5909 28.2094 32.1482 34.2525 24.6721 36.2159C17.009 38.2279 8.04744 34.9996 3.85751 27.014C3.53201 27.7716 3.23421 28.47 2.91217 29.2172C2.41354 29.0052 1.93222 28.8036 1.45436 28.5986C0.986884 28.4005 0.519413 28.199 0 27.9801C1.04575 25.5024 2.07765 23.0594 3.12686 20.5852C5.59927 21.6381 8.03705 22.6737 10.5025 23.7232C10.0905 24.6962 9.68878 25.6518 9.26979 26.6422C8.53568 26.3364 7.82928 26.0375 7.10557 25.7352C7.26485 26.7395 9.62991 29.4465 11.4686 30.7427C13.3316 32.0528 15.3885 32.9077 17.6358 33.2586C21.4587 33.8563 25.0184 33.1266 28.2561 30.9964C31.4972 28.8627 33.5506 25.8533 34.5513 22.0656Z" fill="#273C7F"/>
<path d="M13.8719 15.5183C13.5914 15.5252 11.9397 15.5947 10.7658 16.9639C9.49154 18.4512 9.81357 20.2756 9.90361 20.71C10.3434 22.7707 12.1094 23.7819 12.9301 24.1468C13.1759 24.258 13.4391 24.3101 13.7092 24.3101C18.2246 24.2858 22.74 24.2649 27.2555 24.2406C27.5394 24.2406 27.8164 24.1781 28.0692 24.0529C28.7618 23.7159 30.0464 22.8888 30.4273 21.2868C30.4966 20.9949 30.8013 19.5667 29.8975 18.2219C28.8414 16.6546 27.0408 16.5399 26.8399 16.533C27.0269 14.4028 25.7734 12.4359 23.8723 11.7757C22.2241 11.2023 20.3403 11.6957 19.1007 13.0336C18.8998 12.919 17.6636 12.2413 16.2266 12.7278C15.0146 13.1309 14.1143 14.2047 13.8719 15.5183Z" fill="#273C7F"/>
</g>
<defs>
<clipPath id="clip0_2198_17328">
<rect width="203.08" height="36.599" fill="white" transform="translate(0 0.200439)"/>
</clipPath>
</defs>
</svg>
