<svg id="Layer_1" data-name="Layer 1" xmlns="http://www.w3.org/2000/svg" xmlns:xlink="http://www.w3.org/1999/xlink" viewBox="0 0 64 64"><defs><style>.cls-1{fill:url(#linear-gradient);}.cls-2{fill:none;}.cls-3{fill:#283376;}.cls-4{fill:url(#linear-gradient-2);}</style><linearGradient id="linear-gradient" x1="15.23" y1="31.63" x2="59.31" y2="31.63" gradientUnits="userSpaceOnUse"><stop offset="0" stop-color="#283376"/><stop offset="1" stop-color="#1c67a6"/></linearGradient><linearGradient id="linear-gradient-2" x1="8.85" y1="33.46" x2="9.25" y2="29.74" gradientUnits="userSpaceOnUse"><stop offset="0" stop-color="#283478"/><stop offset="1" stop-color="#1675b1"/></linearGradient></defs><path class="cls-1" d="M24.58,29.09v5.08h.93V30.74l.08.09,2.67,3.27s0,.07.08.07h.75v-5c0-.06,0-.09-.09-.09s-.2,0-.3,0h-.55V32.5a.77.77,0,0,1-.13-.12l-2.61-3.21s-.07-.07-.1-.07Zm23.7,0v.15c0,.91,0,1.82,0,2.73a2.7,2.7,0,0,1,0,.49,1.08,1.08,0,0,1-.8.9,1.91,1.91,0,0,1-.53.05,1.1,1.1,0,0,1-1.14-.89,3.83,3.83,0,0,1-.07-.58V29.1h-.93s0,.07,0,.09c0,.93,0,1.85,0,2.78a5.65,5.65,0,0,0,0,.58,1.87,1.87,0,0,0,1.46,1.61,2.9,2.9,0,0,0,1.52,0A1.78,1.78,0,0,0,49,33.06a2.42,2.42,0,0,0,.19-1c0-1,0-1.91,0-2.86V29.1Zm-33,4.54.16.12.24.14a3.7,3.7,0,0,0,2.36.27,1.65,1.65,0,0,0,1.06-.66,1.32,1.32,0,0,0,0-1.57,1.44,1.44,0,0,0-.69-.45L17,31.12a2.1,2.1,0,0,1-.5-.24.43.43,0,0,1-.19-.53.68.68,0,0,1,.56-.49,2.22,2.22,0,0,1,1.2,0c.25.08.49.18.74.28l.23-.56c.06-.16.06-.16-.09-.24a3.33,3.33,0,0,0-2.55-.2,1.51,1.51,0,0,0-.87.68,1.36,1.36,0,0,0,.15,1.54,1.66,1.66,0,0,0,.71.42l1.33.37a1.71,1.71,0,0,1,.47.23.47.47,0,0,1,0,.74,1,1,0,0,1-.4.24,2.47,2.47,0,0,1-1.63-.15,6.36,6.36,0,0,1-.64-.32ZM58.8,30.2l.27-.66c0-.06,0-.09,0-.11s-.2-.12-.3-.16A3.54,3.54,0,0,0,57,29.05a2.17,2.17,0,0,0-1,.34A1.37,1.37,0,0,0,55.42,31a1.26,1.26,0,0,0,.83.79c.43.14.88.24,1.32.38a2.18,2.18,0,0,1,.59.25.5.5,0,0,1,0,.81.89.89,0,0,1-.47.22,2.81,2.81,0,0,1-2-.44l-.12-.08-.33.74a2.82,2.82,0,0,0,.4.24,3.59,3.59,0,0,0,2.37.27,1.59,1.59,0,0,0,1.05-.64,1.27,1.27,0,0,0-.42-1.89,2.34,2.34,0,0,0-.46-.19c-.42-.12-.84-.22-1.26-.35a1.91,1.91,0,0,1-.45-.23.41.41,0,0,1-.18-.37.65.65,0,0,1,.49-.61,2.29,2.29,0,0,1,.94-.06A2.91,2.91,0,0,1,58.8,30.2Zm-24.29.43-.07-1.24-.26.24c-.18-.11-.33-.22-.5-.31A2.86,2.86,0,0,0,32.05,29a2.7,2.7,0,0,0-1.65.74,2.52,2.52,0,0,0-.75,2,2.48,2.48,0,0,0,1,1.93,2.75,2.75,0,0,0,2,.56,2.5,2.5,0,0,0,1.51-.61l.21-.22-.6-.57a1.9,1.9,0,0,1-2.77,0,1.81,1.81,0,0,1,2.52-2.58l-.25.24ZM22.17,34.17c0-.56,0-1.11,0-1.66a.44.44,0,0,1,.06-.23l1.85-3.06.07-.13c-.28,0-.55,0-.81,0a.18.18,0,0,0-.17.1L22,31.12c-.09.15-.18.29-.27.45l-.11-.17-1.33-2.21a.17.17,0,0,0-.17-.1c-.26,0-.51,0-.77,0h-.11l.07.13c.62,1,1.24,2,1.85,3.07a.45.45,0,0,1,.07.23v1.64Zm16.44-.79H36V29.1H35v5.07h3.58Zm-5.1-2.56a2.71,2.71,0,0,0-.43-.29,1.49,1.49,0,0,0-.93-.12,1.24,1.24,0,0,0-.8,2,1.38,1.38,0,0,0,1.44.46,1.27,1.27,0,0,0,.58-.29l.23.2,0-.9-.45.06-.43.06v0l.16.14a.71.71,0,0,1-.93,0,.76.76,0,0,1,0-1c.27-.3.69-.29,1.11.06Zm21.26.4a2.26,2.26,0,0,0-.71-1.4,2.86,2.86,0,0,0-2-.72c-.72,0-1.43,0-2.14,0h-.12v5.07H52a3.51,3.51,0,0,0,.72-.07,2.44,2.44,0,0,0,1.74-1.18A2.64,2.64,0,0,0,54.77,31.22ZM53.5,32.46a1.5,1.5,0,0,1-1.08.74,2.22,2.22,0,0,1-.45,0H50.6V30.09H52a1.79,1.79,0,0,1,1.25.46,1.43,1.43,0,0,1,.44.87A1.59,1.59,0,0,1,53.5,32.46Zm-9.27-1.07a2.41,2.41,0,0,0-.8-1.66,2.82,2.82,0,0,0-2.34-.68,2.61,2.61,0,0,0-1.72,4.27,2.67,2.67,0,0,0,2.13.92h.23l.19,0a2.63,2.63,0,0,0,1.71-.89A2.53,2.53,0,0,0,44.23,31.39Zm-2.7,2.1a1.83,1.83,0,1,1,1.82-1.82A1.82,1.82,0,0,1,41.53,33.49Z"/><path class="cls-2" d="M43.35,31.67a1.83,1.83,0,1,1-1.82-1.83A1.82,1.82,0,0,1,43.35,31.67Z"/><path class="cls-2" d="M53.47,32.46a1.5,1.5,0,0,1-1.07.74,2.18,2.18,0,0,1-.44,0H50.6V30.09H52a1.72,1.72,0,0,1,1.22.46,1.43,1.43,0,0,1,.44.87A1.59,1.59,0,0,1,53.47,32.46Z"/><path class="cls-3" d="M13.42,29.37l.26-.61.8.34-.86,2-2-.86.34-.8.61.25a4.09,4.09,0,0,0-6-1.34A4.1,4.1,0,0,0,5,30.72l-.87-.21a4.91,4.91,0,0,1,3.43-3.62A5,5,0,0,1,13.42,29.37Z"/><path class="cls-3" d="M13,32.67l.88.22a5,5,0,0,1-3.59,3.66A5,5,0,0,1,4.51,34l-.26.6-.4-.17-.4-.16.86-2,2,.86-.34.8-.6-.25a3.76,3.76,0,0,0,1.2,1.37,4,4,0,0,0,1.7.69,4,4,0,0,0,2.92-.62A4,4,0,0,0,13,32.67Z"/><path class="cls-4" d="M7.26,30.88a1.17,1.17,0,0,0-.85.4,1.22,1.22,0,0,0-.24,1,1.38,1.38,0,0,0,.84.94.5.5,0,0,0,.21,0l3.73,0a.59.59,0,0,0,.22-.05,1.18,1.18,0,0,0,.65-.76,1,1,0,0,0-1-1.3,1.22,1.22,0,0,0-2.13-1,1,1,0,0,0-.79-.09A1,1,0,0,0,7.26,30.88Z"/></svg>