<svg id="Layer_1" data-name="Layer 1" xmlns="http://www.w3.org/2000/svg" xmlns:xlink="http://www.w3.org/1999/xlink" viewBox="0 0 128 128"><defs><style>.cls-1{fill:#283376;}.cls-2{fill:url(#linear-gradient);}</style><linearGradient id="linear-gradient" x1="63.9" y1="83.35" x2="67.76" y2="46.64" gradientUnits="userSpaceOnUse"><stop offset="0" stop-color="#283478"/><stop offset="1" stop-color="#1675b1"/></linearGradient></defs><path class="cls-1" d="M108.93,42.93l2.57-6c2.61,1.1,5.18,2.18,7.9,3.34-2.83,6.67-5.62,13.27-8.48,20l-20-8.48c1.11-2.63,2.2-5.19,3.34-7.9l6,2.51c-4.83-9.89-17-19.86-32.46-20.84A40.49,40.49,0,0,0,25.69,56.27l-8.6-2.08c2.52-12.9,13.61-29.74,33.82-35.71A49.72,49.72,0,0,1,108.93,42.93Z"/><path class="cls-1" d="M104.32,75.56,113,77.68c-3.11,14.49-15.17,30.82-35.44,36.13A49.79,49.79,0,0,1,21.06,88.93c-.88,2-1.7,3.94-2.56,6l-4-1.68L10.6,91.54c2.84-6.69,5.64-13.3,8.47-20l20,8.48-3.35,7.89-5.86-2.45c.42,2.72,6.85,10,11.83,13.53a40.6,40.6,0,0,0,45.55.69C96,93.93,101.6,85.8,104.32,75.56Z"/><path class="cls-2" d="M48.22,57.86a11.76,11.76,0,0,0-8.42,3.91c-3.46,4-2.59,8.95-2.34,10.12,1.19,5.57,6,8.3,8.21,9.29a5.12,5.12,0,0,0,2.11.44l36.75-.18a5.26,5.26,0,0,0,2.21-.51,11.6,11.6,0,0,0,6.4-7.48,10.66,10.66,0,0,0-1.44-8.28,11,11,0,0,0-8.29-4.57,12.07,12.07,0,0,0-21-9.46,9.92,9.92,0,0,0-7.8-.83A9.77,9.77,0,0,0,48.22,57.86Z"/></svg>