<svg id="Layer_1" data-name="Layer 1" xmlns="http://www.w3.org/2000/svg" xmlns:xlink="http://www.w3.org/1999/xlink" viewBox="0 0 128 128"><defs><style>.cls-1{fill:url(#linear-gradient);}.cls-2{fill:none;}.cls-3{fill:#283376;}.cls-4{fill:url(#linear-gradient-2);}</style><linearGradient id="linear-gradient" x1="28.88" y1="65.19" x2="123.88" y2="65.19" gradientUnits="userSpaceOnUse"><stop offset="0" stop-color="#283376"/><stop offset="1" stop-color="#1c67a6"/></linearGradient><linearGradient id="linear-gradient-2" x1="15.15" y1="69.13" x2="15.99" y2="61.11" gradientUnits="userSpaceOnUse"><stop offset="0" stop-color="#283478"/><stop offset="1" stop-color="#1675b1"/></linearGradient></defs><path class="cls-1" d="M49,59.71V70.64h2V63.27l.16.18L57,70.51c0,.06.12.14.18.14h1.61V60a.48.48,0,0,1,0-.12c0-.14,0-.19-.19-.19H56.73V67a.8.8,0,0,1-.27-.24q-2.82-3.47-5.65-6.92c-.05-.07-.13-.16-.2-.16Zm51.06,0v.32c0,2,0,3.92,0,5.88a5.26,5.26,0,0,1-.1,1,2.28,2.28,0,0,1-1.72,1.94,4,4,0,0,1-1.15.12,2.37,2.37,0,0,1-2.44-1.91,6.68,6.68,0,0,1-.15-1.27c0-1.93,0-3.87,0-5.8v-.32h-2a1.34,1.34,0,0,0,0,.19c0,2,0,4,0,6a8.78,8.78,0,0,0,.1,1.25,4.07,4.07,0,0,0,3.14,3.48,6.33,6.33,0,0,0,3.29,0,3.89,3.89,0,0,0,2.65-2.33,5.64,5.64,0,0,0,.4-2.14q0-3.08,0-6.15a1.94,1.94,0,0,0,0-.24ZM28.88,69.51a3.56,3.56,0,0,0,.36.26,3.78,3.78,0,0,0,.51.3,8,8,0,0,0,5.09.57,3.49,3.49,0,0,0,2.28-1.41A2.86,2.86,0,0,0,37,65.84a3.24,3.24,0,0,0-1.5-1c-1-.28-1.93-.52-2.88-.81a4.48,4.48,0,0,1-1.09-.5,1,1,0,0,1-.4-1.14,1.45,1.45,0,0,1,1.2-1.06,4.88,4.88,0,0,1,2.6.08c.54.16,1.05.39,1.59.6.15-.38.32-.79.48-1.2s.15-.35-.19-.51a7.18,7.18,0,0,0-5.49-.44,3.22,3.22,0,0,0-1.87,1.47,2.92,2.92,0,0,0,.32,3.32,3.61,3.61,0,0,0,1.53.9c1,.27,1.92.51,2.86.8a3.4,3.4,0,0,1,1,.5,1,1,0,0,1,.09,1.6,2.27,2.27,0,0,1-.88.5,5.43,5.43,0,0,1-3.51-.31c-.47-.19-.9-.45-1.37-.69Zm93.89-7.41c.2-.49.38-1,.58-1.42.05-.12,0-.19-.1-.25s-.43-.24-.65-.33a7.78,7.78,0,0,0-3.79-.49,4.77,4.77,0,0,0-2.12.74,3,3,0,0,0-1.2,3.43,2.65,2.65,0,0,0,1.8,1.69c.92.32,1.89.53,2.83.82a5.14,5.14,0,0,1,1.27.55,1.07,1.07,0,0,1,.08,1.75,2,2,0,0,1-1,.46,6.06,6.06,0,0,1-4.39-.93l-.25-.17-.71,1.59a9.84,9.84,0,0,0,.86.52,8,8,0,0,0,5.11.58,3.51,3.51,0,0,0,2.25-1.38,2.76,2.76,0,0,0-.89-4.08,4.89,4.89,0,0,0-1-.41c-.9-.26-1.82-.48-2.72-.75a4.73,4.73,0,0,1-1-.49.92.92,0,0,1-.38-.81,1.4,1.4,0,0,1,1.06-1.3,4.6,4.6,0,0,1,2-.13A6.17,6.17,0,0,1,122.77,62.1ZM70.44,63l-.15-2.67-.58.52a11.55,11.55,0,0,0-1.06-.67,6.16,6.16,0,0,0-3.51-.61,5.73,5.73,0,0,0-3.56,1.6A5.38,5.38,0,0,0,60,65.41,5.29,5.29,0,0,0,62,69.58a6,6,0,0,0,4.42,1.21,5.41,5.41,0,0,0,3.24-1.33c.16-.14.31-.3.47-.46l-1.31-1.24a4.07,4.07,0,0,1-5.95,0,3.9,3.9,0,0,1,5.42-5.56l-.53.51Zm-26.6,7.62c0-1.21,0-2.39,0-3.57a1.15,1.15,0,0,1,.14-.51L48,60c0-.08.09-.16.15-.28H46.37a.36.36,0,0,0-.37.21c-.83,1.39-1.68,2.78-2.52,4.16l-.59,1-.23-.37L39.8,59.92a.36.36,0,0,0-.37-.21H37.76l-.24,0,.17.28,4,6.61a1.06,1.06,0,0,1,.13.5c0,1.08,0,2.15,0,3.23v.3ZM79.27,69H73.54V59.73h-2V70.65h7.72Zm-11-5.51a9.25,9.25,0,0,0-.94-.64,3.2,3.2,0,0,0-2-.24,2.67,2.67,0,0,0-1.73,4.28,3,3,0,0,0,3.1,1A2.82,2.82,0,0,0,68,67.21l.5.43.09-1.93-1,.12-.92.13,0,.07.36.28a1.54,1.54,0,0,1-2,0,1.62,1.62,0,0,1-.08-2.11c.58-.66,1.47-.62,2.39.13Zm45.8.86a4.94,4.94,0,0,0-1.52-3,6.1,6.1,0,0,0-4.31-1.57c-1.53,0-3.06,0-4.6,0l-.26,0V70.66h.3c1.49,0,3,0,4.46,0a8.16,8.16,0,0,0,1.56-.14A5.27,5.27,0,0,0,113.46,68,5.68,5.68,0,0,0,114.09,64.3ZM111.36,67A3.24,3.24,0,0,1,109,68.56a5.15,5.15,0,0,1-1,.09c-.92,0-1.85,0-2.77,0h-.18V61.85h.16c1,0,1.91,0,2.86,0a3.77,3.77,0,0,1,2.68,1,3,3,0,0,1,.94,1.87A3.48,3.48,0,0,1,111.36,67Zm-20-2.32a5.3,5.3,0,0,0-1.72-3.57,6.09,6.09,0,0,0-5-1.47,5.49,5.49,0,0,0-5,5,5.43,5.43,0,0,0,1.28,4.18,5.76,5.76,0,0,0,4.58,2H86a2.85,2.85,0,0,0,.41,0,5.66,5.66,0,0,0,3.69-1.92A5.51,5.51,0,0,0,91.38,64.66Zm-5.83,4.53a3.93,3.93,0,1,1,3.93-3.93A3.93,3.93,0,0,1,85.55,69.19Z"/><path class="cls-2" d="M108.82,64.1A1.83,1.83,0,1,1,107,62.28,1.81,1.81,0,0,1,108.82,64.1Z"/><path class="cls-2" d="M118.94,64.89a1.5,1.5,0,0,1-1.07.74,2.12,2.12,0,0,1-.44,0c-.43,0-.85,0-1.27,0h-.09V62.52h1.39a1.76,1.76,0,0,1,1.23.46,1.47,1.47,0,0,1,.43.87A1.59,1.59,0,0,1,118.94,64.89Z"/><path class="cls-3" d="M25,60.3l.56-1.3,1.73.72L25.43,64.1l-4.38-1.86.73-1.72,1.32.55A8.82,8.82,0,0,0,6.8,63.22l-1.88-.46A10.6,10.6,0,0,1,12.31,55,10.87,10.87,0,0,1,25,60.3Z"/><path class="cls-3" d="M24,67.43l1.89.46a10.69,10.69,0,0,1-7.74,7.9A10.88,10.88,0,0,1,5.79,70.35l-.56,1.3-.87-.36-.86-.37,1.85-4.37,4.38,1.86L9,70.13,7.71,69.6a8.07,8.07,0,0,0,2.59,3A8.53,8.53,0,0,0,14,74a8.85,8.85,0,0,0,10-6.61Z"/><path class="cls-4" d="M11.72,63.56a2.45,2.45,0,0,0-2.35,3.07,3,3,0,0,0,1.79,2,1.28,1.28,0,0,0,.47.1l8,0a1.14,1.14,0,0,0,.48-.12A2.52,2.52,0,0,0,21.54,67a2.33,2.33,0,0,0-.32-1.81,2.4,2.4,0,0,0-1.81-1,2.63,2.63,0,0,0-4.59-2.06,2.07,2.07,0,0,0-3.1,1.46Z"/></svg>