<svg id="Layer_1" data-name="Layer 1" xmlns="http://www.w3.org/2000/svg" xmlns:xlink="http://www.w3.org/1999/xlink" viewBox="0 0 240 65"><defs><style>.cls-1{fill:none;}.cls-2{fill:url(#linear-gradient);}.cls-3{fill:#293577;}.cls-4{fill:url(#linear-gradient-2);}</style><linearGradient id="linear-gradient" x1="53.35" y1="34.6" x2="235.26" y2="34.6" gradientUnits="userSpaceOnUse"><stop offset="0" stop-color="#293577"/><stop offset="1" stop-color="#1c68a7"/></linearGradient><linearGradient id="linear-gradient-2" x1="27.05" y1="42.15" x2="28.66" y2="26.79" gradientUnits="userSpaceOnUse"><stop offset="0" stop-color="#293578"/><stop offset="1" stop-color="#1676b2"/></linearGradient></defs><rect class="cls-1" width="240" height="65"/><path class="cls-2" d="M91.94,24.11V45h3.83V30.92l.32.35,11,13.51c.09.12.23.27.35.27,1,0,2,0,3.08,0V24.47c0-.27-.08-.37-.35-.36s-.82,0-1.23,0h-2.28v14a1.76,1.76,0,0,1-.53-.47q-5.4-6.63-10.8-13.26c-.1-.12-.26-.29-.39-.29C94,24.1,93,24.11,91.94,24.11Zm97.77,0v.62c0,3.75,0,7.5,0,11.26a9.72,9.72,0,0,1-.2,2,4.37,4.37,0,0,1-3.29,3.72A8.49,8.49,0,0,1,184,42a4.53,4.53,0,0,1-4.67-3.66,11.06,11.06,0,0,1-.29-2.43c0-3.7,0-7.41,0-11.12v-.61H175.2c0,.16,0,.27,0,.37,0,3.82,0,7.64,0,11.45a17.37,17.37,0,0,0,.19,2.39,7.77,7.77,0,0,0,6,6.67,12.2,12.2,0,0,0,6.29-.09,7.43,7.43,0,0,0,5.07-4.47,10.48,10.48,0,0,0,.78-4.09c0-3.93,0-7.86,0-11.78,0-.15,0-.3,0-.46ZM53.35,42.88c.25.18.45.35.68.49a9.61,9.61,0,0,0,1,.57A15.28,15.28,0,0,0,64.75,45a6.81,6.81,0,0,0,4.38-2.71A5.48,5.48,0,0,0,69,35.84,6.06,6.06,0,0,0,66.1,34c-1.84-.55-3.69-1-5.52-1.56a8.7,8.7,0,0,1-2.08-1,1.86,1.86,0,0,1-.78-2.19,2.79,2.79,0,0,1,2.31-2,9.26,9.26,0,0,1,5,.16c1,.31,2,.75,3,1.14.3-.73.61-1.52.93-2.3s.28-.67-.36-1a13.72,13.72,0,0,0-10.51-.83,6.11,6.11,0,0,0-3.58,2.81c-1.05,1.8-1,4.8.6,6.36a6.92,6.92,0,0,0,2.94,1.72c1.82.52,3.67,1,5.48,1.53a6.53,6.53,0,0,1,2,1,2,2,0,0,1,.17,3,4.16,4.16,0,0,1-1.68,1,10.39,10.39,0,0,1-6.73-.59c-.89-.36-1.72-.87-2.61-1.32ZM233.13,28.67c.38-.93.73-1.82,1.1-2.7a.32.32,0,0,0-.18-.49c-.42-.21-.82-.46-1.26-.63a14.48,14.48,0,0,0-7.25-.93,8.93,8.93,0,0,0-4,1.4,5.72,5.72,0,0,0-2.3,6.58,5.1,5.1,0,0,0,3.43,3.24c1.78.6,3.63,1,5.42,1.56a9.47,9.47,0,0,1,2.44,1,2,2,0,0,1,.16,3.35,3.76,3.76,0,0,1-1.95.89,11.56,11.56,0,0,1-8.4-1.79l-.48-.32-1.36,3c.58.35,1.09.72,1.65,1A15.14,15.14,0,0,0,229.88,45a6.75,6.75,0,0,0,4.32-2.64,5.28,5.28,0,0,0-1.7-7.81,9,9,0,0,0-1.91-.78c-1.73-.51-3.49-.92-5.21-1.45a7.69,7.69,0,0,1-1.88-.94,1.7,1.7,0,0,1-.73-1.55,2.65,2.65,0,0,1,2-2.48,8.74,8.74,0,0,1,3.87-.25A11.92,11.92,0,0,1,233.13,28.67ZM132.91,30.46c-.09-1.7-.18-3.35-.28-5.11l-1.1,1c-.71-.45-1.34-.93-2-1.28a11.79,11.79,0,0,0-6.71-1.17A10.91,10.91,0,0,0,116,27a10.32,10.32,0,0,0-3.1,8,10.12,10.12,0,0,0,4,8,11.57,11.57,0,0,0,8.46,2.32,10.35,10.35,0,0,0,6.21-2.54c.31-.28.59-.59.89-.9l-2.49-2.36a7.82,7.82,0,0,1-11.41,0,7.72,7.72,0,0,1,.85-10.63c3-2.44,7.66-1.95,9.54,0l-1,1ZM82,45c0-2.31,0-4.57,0-6.83a1.9,1.9,0,0,1,.27-1q3.8-6.32,7.62-12.61c.09-.15.17-.31.29-.53-1.18,0-2.26,0-3.34,0a.69.69,0,0,0-.7.41q-2.4,4-4.84,8c-.36.6-.73,1.19-1.13,1.85l-.43-.7Q77,29.07,74.25,24.51a.69.69,0,0,0-.7-.41c-1.07,0-2.14,0-3.21,0l-.46,0,.32.54c2.55,4.21,5.11,8.43,7.64,12.65a1.94,1.94,0,0,1,.27,1c0,2.05,0,4.11,0,6.17V45Zm67.84-3.25h-11V24.15H135V45h14.78Zm-21-10.54A17,17,0,0,0,127,30a6.19,6.19,0,0,0-3.82-.47,5.14,5.14,0,0,0-3.33,8.2c1.53,1.93,3.64,2.31,6,1.9a5.28,5.28,0,0,0,2.42-1.18l.94.82c.07-1.3.12-2.48.18-3.7l-1.83.24-1.77.23-.06.14.68.55a2.92,2.92,0,0,1-3.85,0,3.08,3.08,0,0,1-.16-4c1.1-1.27,2.83-1.19,4.58.24Zm87.7,1.64a9.34,9.34,0,0,0-2.91-5.76,11.69,11.69,0,0,0-8.24-3c-2.94-.05-5.88,0-8.82,0l-.49,0V45.07h.57c2.84,0,5.69,0,8.53,0a17.6,17.6,0,0,0,3-.28,10,10,0,0,0,7.16-4.88A10.74,10.74,0,0,0,216.5,32.89ZM211.28,38a6.24,6.24,0,0,1-4.46,3,10.36,10.36,0,0,1-1.85.18c-1.78,0-3.55,0-5.32,0h-.35v-13l.31,0c1.83,0,3.66,0,5.48,0a7.31,7.31,0,0,1,5.13,1.87A5.83,5.83,0,0,1,212,33.66,6.68,6.68,0,0,1,211.28,38ZM173,33.58a10,10,0,0,0-3.29-6.83,11.62,11.62,0,0,0-9.67-2.82A10.78,10.78,0,0,0,153,41.55a11,11,0,0,0,8.78,3.8h.94c.27,0,.53-.05.8-.09a10.79,10.79,0,0,0,7.06-3.68A10.42,10.42,0,0,0,173,33.58Zm-11.15,8.68a7.53,7.53,0,1,1,7.53-7.52A7.52,7.52,0,0,1,161.86,42.26Z"/><path class="cls-1" d="M169.39,34.74a7.53,7.53,0,1,1-7.53-7.53A7.53,7.53,0,0,1,169.39,34.74Z"/><path class="cls-1" d="M211.13,38a6.15,6.15,0,0,1-4.4,3,10.23,10.23,0,0,1-1.83.18c-1.76,0-3.5,0-5.25,0h-.35v-13l.3,0c1.81,0,3.62,0,5.42,0a7.19,7.19,0,0,1,5.07,1.87,5.91,5.91,0,0,1,1.79,3.59A6.75,6.75,0,0,1,211.13,38Z"/><path class="cls-3" d="M45.89,25.23,47,22.73l3.31,1.4L46.73,32.5,38.36,29l1.4-3.3,2.51,1.05a16.85,16.85,0,0,0-24.71-5.53,16.76,16.76,0,0,0-6.5,9.65l-3.6-.88A20.38,20.38,0,0,1,21.61,15,20.8,20.8,0,0,1,45.89,25.23Z"/><path class="cls-3" d="M44,38.89l3.62.89A20.48,20.48,0,0,1,32.75,54.89,20.83,20.83,0,0,1,9.12,44.48L8.05,47,6.4,46.28l-1.66-.7,3.55-8.37,8.37,3.55-1.4,3.3-2.45-1c.18,1.13,2.86,4.19,5,5.66A17,17,0,0,0,36.82,49,16.76,16.76,0,0,0,44,38.89Z"/><path class="cls-4" d="M20.49,31.48A4.68,4.68,0,0,0,16,37.35a5.77,5.77,0,0,0,3.43,3.89,2.09,2.09,0,0,0,.89.18l15.37-.07a2.31,2.31,0,0,0,.93-.22A4.85,4.85,0,0,0,39.29,38a4.49,4.49,0,0,0-.61-3.46,4.57,4.57,0,0,0-3.47-1.91,5,5,0,0,0-8.78-4,4.19,4.19,0,0,0-3.27-.35A4.11,4.11,0,0,0,20.49,31.48Z"/></svg>