<svg id="Layer_1" data-name="Layer 1" xmlns="http://www.w3.org/2000/svg" viewBox="0 0 240 65"><defs><style>.cls-1{fill:none;}.cls-2{fill:#fff;}</style></defs><rect class="cls-1" width="240" height="65"/><path class="cls-2" d="M91.94,21.76V42.68h3.83V28.56c.15.18.24.26.32.36l11,13.51c.09.11.23.27.35.27,1,0,2,0,3.08,0V22.11c0-.26-.08-.37-.35-.36s-.82,0-1.23,0h-2.28v14a1.76,1.76,0,0,1-.53-.47q-5.4-6.63-10.8-13.25c-.1-.13-.26-.3-.39-.3C94,21.75,93,21.76,91.94,21.76Zm97.77,0v.62c0,3.76,0,7.51,0,11.26a9.72,9.72,0,0,1-.2,2,4.36,4.36,0,0,1-3.29,3.72,8.5,8.5,0,0,1-2.19.23A4.53,4.53,0,0,1,179.35,36a11,11,0,0,1-.29-2.42c0-3.71,0-7.41,0-11.12V21.8H175.2c0,.15,0,.26,0,.37,0,3.82,0,7.63,0,11.45a17.37,17.37,0,0,0,.19,2.39,7.78,7.78,0,0,0,6,6.67,12.2,12.2,0,0,0,6.29-.09,7.44,7.44,0,0,0,5.07-4.48,10.41,10.41,0,0,0,.78-4.09c0-3.92,0-7.85,0-11.78,0-.15,0-.3,0-.46ZM53.35,40.52A8.34,8.34,0,0,0,54,41a9.52,9.52,0,0,0,1,.56,15.21,15.21,0,0,0,9.74,1.1A6.81,6.81,0,0,0,69.13,40,5.48,5.48,0,0,0,69,33.48a6.14,6.14,0,0,0-2.86-1.83c-1.84-.54-3.69-1-5.52-1.55a8.7,8.7,0,0,1-2.08-1A1.87,1.87,0,0,1,57.72,27a2.81,2.81,0,0,1,2.31-2,9.36,9.36,0,0,1,5,.16c1,.31,2,.75,3,1.14L69,23.93c.27-.64.28-.67-.36-1a13.72,13.72,0,0,0-10.51-.84,6.09,6.09,0,0,0-3.58,2.82c-1.05,1.8-1,4.8.6,6.36A7,7,0,0,0,58.06,33c1.82.52,3.67,1,5.48,1.53a6.77,6.77,0,0,1,2,1,2,2,0,0,1,.17,3,4.05,4.05,0,0,1-1.68,1,10.38,10.38,0,0,1-6.73-.58c-.89-.37-1.72-.87-2.61-1.33Zm179.78-14.2c.38-.94.73-1.83,1.1-2.71a.32.32,0,0,0-.18-.49c-.42-.2-.82-.45-1.26-.63a14.7,14.7,0,0,0-7.25-.93,8.94,8.94,0,0,0-4,1.41,5.7,5.7,0,0,0-2.3,6.57,5.1,5.1,0,0,0,3.43,3.24c1.78.61,3.63,1,5.42,1.57a9.47,9.47,0,0,1,2.44,1,2,2,0,0,1,.16,3.35,3.74,3.74,0,0,1-1.95.88,11.51,11.51,0,0,1-8.4-1.79c-.15-.09-.3-.2-.48-.32l-1.36,3a18.45,18.45,0,0,0,1.65,1,15.14,15.14,0,0,0,9.78,1.12A6.79,6.79,0,0,0,234.2,40a5.28,5.28,0,0,0-1.7-7.81,9.06,9.06,0,0,0-1.91-.79c-1.73-.5-3.49-.92-5.21-1.44a8.07,8.07,0,0,1-1.88-.94,1.73,1.73,0,0,1-.73-1.56,2.66,2.66,0,0,1,2-2.48,8.89,8.89,0,0,1,3.87-.25A11.76,11.76,0,0,1,233.13,26.32ZM132.91,28.11c-.09-1.7-.18-3.35-.28-5.11l-1.1,1c-.71-.45-1.34-.92-2-1.28a11.88,11.88,0,0,0-6.71-1.17A10.87,10.87,0,0,0,116,24.61a10.3,10.3,0,0,0-3.1,8,10.14,10.14,0,0,0,4,8A11.62,11.62,0,0,0,125.28,43a10.37,10.37,0,0,0,6.21-2.55c.31-.27.59-.58.89-.89l-2.49-2.37a7.82,7.82,0,0,1-11.41,0,7.74,7.74,0,0,1,.85-10.64c3-2.43,7.66-1.94,9.54,0l-1,1ZM82,42.69c0-2.32,0-4.58,0-6.84a1.93,1.93,0,0,1,.27-1q3.8-6.32,7.62-12.61c.09-.15.17-.31.29-.53-1.18,0-2.26,0-3.34,0a.69.69,0,0,0-.7.41q-2.4,4-4.84,8c-.36.6-.73,1.2-1.13,1.85l-.43-.7c-1.83-3-3.66-6.07-5.48-9.12a.69.69,0,0,0-.7-.4c-1.07,0-2.14,0-3.21,0-.13,0-.26,0-.46,0l.32.53c2.55,4.22,5.11,8.43,7.64,12.66a1.9,1.9,0,0,1,.27,1c0,2.06,0,4.12,0,6.17v.58Zm67.84-3.26h-11V21.79H135v20.9h14.78Zm-21-10.53a17.19,17.19,0,0,0-1.8-1.24,6.18,6.18,0,0,0-3.82-.46,5.13,5.13,0,0,0-3.33,8.19c1.53,1.94,3.64,2.31,6,1.9a5.37,5.37,0,0,0,2.42-1.17l.94.82c.07-1.3.12-2.49.18-3.71l-1.83.24-1.77.24-.06.13.68.55a2.91,2.91,0,0,1-3.85,0,3.08,3.08,0,0,1-.16-4c1.1-1.26,2.83-1.18,4.58.24Zm87.7,1.64a9.39,9.39,0,0,0-2.91-5.77,11.78,11.78,0,0,0-8.24-3c-2.94,0-5.88,0-8.82,0a4.22,4.22,0,0,0-.49,0V42.71h.57c2.84,0,5.69,0,8.53,0a16.64,16.64,0,0,0,3-.28,10.06,10.06,0,0,0,7.16-4.87A10.75,10.75,0,0,0,216.5,30.54Zm-5.22,5.12a6.25,6.25,0,0,1-4.46,3,10.35,10.35,0,0,1-1.85.17c-1.78,0-3.55,0-5.32,0h-.35v-13h.31c1.83,0,3.66,0,5.48,0a7.31,7.31,0,0,1,5.13,1.87A5.86,5.86,0,0,1,212,31.3,6.67,6.67,0,0,1,211.28,35.66ZM173,31.23a10,10,0,0,0-3.29-6.83,11.62,11.62,0,0,0-9.67-2.83,10.52,10.52,0,0,0-9.53,9.61,10.51,10.51,0,0,0,2.45,8,11.08,11.08,0,0,0,8.78,3.8c.31,0,.63,0,.94,0s.53-.05.8-.08a10.87,10.87,0,0,0,7.06-3.68A10.43,10.43,0,0,0,173,31.23Zm-11.15,8.68a7.53,7.53,0,1,1,7.53-7.53A7.52,7.52,0,0,1,161.86,39.91Z"/><path class="cls-2" d="M45.89,22.88,47,20.38l3.31,1.4-3.55,8.37L38.36,26.6l1.4-3.31,2.51,1.05a16.85,16.85,0,0,0-24.71-5.53,16.82,16.82,0,0,0-6.5,9.65l-3.6-.87A20.35,20.35,0,0,1,21.61,12.65,20.8,20.8,0,0,1,45.89,22.88Z"/><path class="cls-2" d="M44,36.53l3.62.89A20.49,20.49,0,0,1,32.75,52.54,20.86,20.86,0,0,1,9.12,42.13L8.05,44.62l-1.65-.7-1.66-.7,3.55-8.37,8.37,3.55-1.4,3.3-2.45-1c.18,1.14,2.86,4.2,5,5.66a16.47,16.47,0,0,0,7,2.85A16.94,16.94,0,0,0,44,36.53Z"/><path class="cls-2" d="M20.49,29.13A5,5,0,0,0,17,30.76,5,5,0,0,0,16,35a5.75,5.75,0,0,0,3.43,3.88,2.09,2.09,0,0,0,.89.19L35.68,39a2.14,2.14,0,0,0,.93-.21,4.88,4.88,0,0,0,2.68-3.13,4.51,4.51,0,0,0-.61-3.47,4.61,4.61,0,0,0-3.47-1.91,5.18,5.18,0,0,0-3.37-5.38,5.12,5.12,0,0,0-5.41,1.43,4,4,0,0,0-5.94,2.81Z"/></svg>