<svg id="Layer_1" data-name="Layer 1" xmlns="http://www.w3.org/2000/svg" viewBox="0 0 24 24"><defs><style>.cls-1{fill:#326de6;}.cls-2{fill:#fff;}</style></defs><path class="cls-1" d="M7.81,21.53a1.6,1.6,0,0,1-1.25-.61L1.84,15.06a1.58,1.58,0,0,1-.31-1.37L3.22,6.37a1.58,1.58,0,0,1,.87-1.09L10.91,2a1.57,1.57,0,0,1,.7-.17,1.51,1.51,0,0,1,.7.17l6.82,3.24A1.61,1.61,0,0,1,20,6.35l1.68,7.32a1.63,1.63,0,0,1-.31,1.38l-4.71,5.86a1.62,1.62,0,0,1-1.26.6l-7.6,0Z"/><path class="cls-2" d="M11.6,2.19a1.3,1.3,0,0,1,.55.12L19,5.56a1.3,1.3,0,0,1,.7.88l1.69,7.31a1.27,1.27,0,0,1-.26,1.11l-4.72,5.86a1.27,1.27,0,0,1-1,.48H7.81a1.27,1.27,0,0,1-1-.48L2.09,14.86a1.34,1.34,0,0,1-.26-1.11L3.51,6.44a1.27,1.27,0,0,1,.71-.88L11,2.3a1.6,1.6,0,0,1,.57-.11Zm0-.63h0a1.94,1.94,0,0,0-.84.19L4,5a1.91,1.91,0,0,0-1.06,1.3L1.21,13.63a1.94,1.94,0,0,0,.38,1.65L6.3,21.14a1.91,1.91,0,0,0,1.5.71h7.56a1.91,1.91,0,0,0,1.5-.71l4.71-5.86A1.92,1.92,0,0,0,22,13.63L20.26,6.31A1.87,1.87,0,0,0,19.21,5L12.42,1.75a1.8,1.8,0,0,0-.82-.19Z"/><path class="cls-2" d="M18.43,13.17h-.12a1.15,1.15,0,0,0-.26,0h-.14a3.42,3.42,0,0,1-.73-.13.26.26,0,0,1-.15-.14s0,0,0,0h0l-.18-.05a5.3,5.3,0,0,0-.09-1.9A5.58,5.58,0,0,0,16,9.09L16.13,9v0a.31.31,0,0,1,.06-.2,4.6,4.6,0,0,1,.61-.42h0l.12-.07.23-.13.07,0s0,0,0,0h0a.46.46,0,0,0,.09-.61A.4.4,0,0,0,17,7.28a.5.5,0,0,0-.3.11h0l0,0s0,0-.07,0l-.18.19a.41.41,0,0,1-.09.1h0a3.27,3.27,0,0,1-.54.48.19.19,0,0,1-.12,0H15.6l-.16.11a6.76,6.76,0,0,0-.55-.52,5.36,5.36,0,0,0-2.82-1.11V6.57l0,0a.32.32,0,0,1-.11-.17,6.53,6.53,0,0,1,0-.73h0a.7.7,0,0,1,0-.14c0-.08,0-.16,0-.25V5.11h0a.43.43,0,0,0-.42-.44.4.4,0,0,0-.29.14.41.41,0,0,0-.12.3h0v.11a.71.71,0,0,0,0,.26s0,.08,0,.13v0a3.06,3.06,0,0,1,0,.72.26.26,0,0,1-.1.18l0,0h0v.17c-.25,0-.49.06-.73.11A5.14,5.14,0,0,0,7.76,8.35l-.14-.1h0l-.08,0a.28.28,0,0,1-.12,0,3.08,3.08,0,0,1-.54-.5h0l-.1-.1-.17-.18-.07-.06,0,0h0a.46.46,0,0,0-.29-.11.35.35,0,0,0-.31.15A.44.44,0,0,0,6,8H6S6,8,6,8l.06.05.23.13.13.07h0A3.89,3.89,0,0,1,7,8.7a.24.24,0,0,1,.07.2v0h0l.13.12a.6.6,0,0,0-.06.11,5.25,5.25,0,0,0-.76,3.56l-.17,0s0,0,0,0a.26.26,0,0,1-.15.14,3.32,3.32,0,0,1-.72.13H5.2l-.26,0H4.82a.45.45,0,0,0-.35.5.42.42,0,0,0,.43.31H5s0,0,0,0h.08l.24-.09.12-.06h0a3.57,3.57,0,0,1,.7-.2h0a.3.3,0,0,1,.18.07h0l.18,0a5.42,5.42,0,0,0,1.77,2.54,5.35,5.35,0,0,0,.58.39l-.08.17s0,0,0,0a.26.26,0,0,1,0,.22,3.71,3.71,0,0,1-.35.63h0a.76.76,0,0,0-.08.11,1.7,1.7,0,0,0-.15.22l0,.06a0,0,0,0,1,0,0h0a.44.44,0,0,0,.18.58.32.32,0,0,0,.16,0A.5.5,0,0,0,9,18.37H9a0,0,0,0,1,0,0,.21.21,0,0,1,0-.07c0-.09.05-.16.08-.24l0-.12h0a3.67,3.67,0,0,1,.28-.68.43.43,0,0,1,.18-.12h0l.09-.18a5.24,5.24,0,0,0,1.89.35,5.12,5.12,0,0,0,1.17-.13c.24-.06.47-.12.7-.2l.08.14,0,0a.22.22,0,0,1,.17.12,5.37,5.37,0,0,1,.29.67v0l0,.12a1.13,1.13,0,0,0,.08.24.25.25,0,0,0,0,.07v0h0a.45.45,0,0,0,.41.26.34.34,0,0,0,.16,0,.4.4,0,0,0,.2-.24A.45.45,0,0,0,15,18h0s0,0,0,0l0-.06a1.7,1.7,0,0,0-.15-.22l-.08-.11h0a3.12,3.12,0,0,1-.35-.63.4.4,0,0,1,0-.22s0,0,0,0h0l-.07-.16a5.28,5.28,0,0,0,1.78-1.74,4.93,4.93,0,0,0,.56-1.21l.17,0s0,0,0,0a.48.48,0,0,1,.18-.06h0a3.21,3.21,0,0,1,.71.2h0l.12,0,.24.1h.12a.22.22,0,0,0,.11,0,.46.46,0,0,0,.43-.31.53.53,0,0,0-.39-.45Zm-6.24-.66-.59.29L11,12.51l-.15-.63.4-.51h.66l.41.51-.14.63Zm3.52-1.4a4.2,4.2,0,0,1,.09,1.36l-2.06-.59a.36.36,0,0,1-.25-.43.28.28,0,0,1,.08-.15L15.2,9.83a4.4,4.4,0,0,1,.51,1.28ZM14.55,9l-1.76,1.26a.39.39,0,0,1-.48-.08.32.32,0,0,1-.06-.15l-.12-2.2A4.13,4.13,0,0,1,14.55,9Zm-3.91-1.1.43-.08L11,10a.36.36,0,0,1-.36.35.29.29,0,0,1-.16,0L8.64,9a4,4,0,0,1,2-1.1ZM8,9.83l1.6,1.43a.36.36,0,0,1,0,.5.31.31,0,0,1-.16.11l-2.09.6A4.33,4.33,0,0,1,8,9.83Zm-.37,3.65,2.15-.36a.36.36,0,0,1,.37.28.33.33,0,0,1,0,.22h0l-.82,2a4.29,4.29,0,0,1-1.69-2.12Zm4.92,2.68a4.24,4.24,0,0,1-.94.11,4.72,4.72,0,0,1-1.36-.21l1.06-1.93a.34.34,0,0,1,.43-.09.61.61,0,0,1,.17.14h0l1,1.88-.39.1Zm2.63-1.87a4.36,4.36,0,0,1-1.29,1.31l-.85-2a.36.36,0,0,1,.19-.41.38.38,0,0,1,.19,0l2.15.36a2.48,2.48,0,0,1-.39.82Z"/></svg>