<?xml version="1.0" encoding="utf-8"?>
<!-- Generator: Adobe Illustrator 25.2.1, SVG Export Plug-In . SVG Version: 6.00 Build 0)  -->
<svg version="1.1" id="Layer_1" xmlns="http://www.w3.org/2000/svg" xmlns:xlink="http://www.w3.org/1999/xlink" x="0px" y="0px"
	 viewBox="0 0 1080 263.3" style="enable-background:new 0 0 1080 263.3;" xml:space="preserve">
<style type="text/css">
	.st0{enable-background:new    ;}
</style>
<g class="st0">
	<path d="M22.4,102.3c4.1-8.2,9.7-14.6,16.8-19c7.1-4.4,15-6.6,23.7-6.6c7.5,0,14,1.5,19.6,4.6c5.6,3,10,7,13,12v-15H128v105.9H95.6
		v-15c-3.2,4.9-7.6,8.9-13.2,12c-5.6,3-12.2,4.6-19.6,4.6c-8.6,0-16.5-2.2-23.5-6.7c-7.1-4.5-12.7-10.9-16.8-19.2
		c-4.1-8.3-6.2-17.9-6.2-28.8C16.2,120.1,18.3,110.5,22.4,102.3z M88.8,112c-4.5-4.7-10-7-16.4-7s-11.9,2.3-16.4,6.9
		c-4.5,4.6-6.7,11-6.7,19.1c0,8.1,2.2,14.5,6.7,19.3c4.5,4.7,10,7.1,16.4,7.1s11.9-2.3,16.4-7c4.5-4.7,6.7-11.1,6.7-19.2
		C95.6,123.1,93.3,116.7,88.8,112z"/>
	<path d="M197.1,81.2c5.6-3,12.1-4.6,19.6-4.6c8.7,0,16.6,2.2,23.7,6.6c7.1,4.4,12.7,10.8,16.8,19c4.1,8.2,6.2,17.8,6.2,28.7
		c0,10.9-2.1,20.5-6.2,28.8c-4.1,8.3-9.7,14.7-16.8,19.2c-7.1,4.5-15,6.7-23.7,6.7c-7.3,0-13.8-1.5-19.5-4.6c-5.6-3-10-7-13.2-11.8
		v65.3h-32.5V78.2H184v15C187.2,88.3,191.6,84.3,197.1,81.2z M223.6,111.9c-4.5-4.6-10-6.9-16.6-6.9c-6.5,0-11.9,2.3-16.4,7
		c-4.5,4.7-6.7,11.1-6.7,19.2c0,8.1,2.2,14.5,6.7,19.2c4.5,4.7,10,7,16.4,7s12-2.4,16.5-7.1c4.6-4.7,6.8-11.2,6.8-19.3
		C230.4,122.9,228.1,116.5,223.6,111.9z"/>
	<path d="M326,81.2c5.6-3,12.1-4.6,19.6-4.6c8.7,0,16.6,2.2,23.7,6.6c7.1,4.4,12.7,10.8,16.8,19c4.1,8.2,6.2,17.8,6.2,28.7
		c0,10.9-2.1,20.5-6.2,28.8c-4.1,8.3-9.7,14.7-16.8,19.2c-7.1,4.5-15,6.7-23.7,6.7c-7.3,0-13.8-1.5-19.5-4.6c-5.6-3-10-7-13.2-11.8
		v65.3h-32.5V78.2h32.5v15C316.1,88.3,320.5,84.3,326,81.2z M352.5,111.9c-4.5-4.6-10-6.9-16.6-6.9c-6.5,0-11.9,2.3-16.4,7
		c-4.5,4.7-6.7,11.1-6.7,19.2c0,8.1,2.2,14.5,6.7,19.2c4.5,4.7,10,7,16.4,7c6.5,0,12-2.4,16.5-7.1c4.6-4.7,6.8-11.2,6.8-19.3
		C359.3,122.9,357,116.5,352.5,111.9z"/>
	<path d="M429.6,179c-8.3-4.4-14.8-10.8-19.6-19c-4.7-8.2-7.1-17.8-7.1-28.9c0-10.9,2.4-20.5,7.2-28.8c4.8-8.3,11.4-14.6,19.7-19.1
		c8.4-4.4,17.7-6.6,28.1-6.6c10.4,0,19.7,2.2,28.1,6.6c8.4,4.4,14.9,10.8,19.7,19.1c4.8,8.3,7.2,17.9,7.2,28.8
		c0,10.9-2.4,20.5-7.3,28.8c-4.9,8.3-11.5,14.6-19.9,19.1c-8.4,4.4-17.8,6.6-28.2,6.6C447.2,185.6,437.9,183.4,429.6,179z
		 M473.4,150.7c4.4-4.6,6.5-11.1,6.5-19.6c0-8.5-2.1-15-6.4-19.6c-4.2-4.6-9.5-6.8-15.7-6.8c-6.3,0-11.6,2.2-15.8,6.7
		c-4.2,4.5-6.3,11-6.3,19.6c0,8.5,2.1,15,6.2,19.6c4.1,4.6,9.3,6.8,15.5,6.8C463.8,157.5,469.1,155.3,473.4,150.7z"/>
	<path d="M532.7,62.2c-3.6-3.4-5.4-7.5-5.4-12.4c0-5.1,1.8-9.3,5.4-12.6c3.6-3.4,8.3-5,14-5c5.6,0,10.2,1.7,13.8,5
		c3.6,3.4,5.4,7.6,5.4,12.6c0,4.9-1.8,9.1-5.4,12.4c-3.6,3.4-8.2,5-13.8,5C540.9,67.2,536.3,65.5,532.7,62.2z M562.7,78.2v105.9
		h-32.5V78.2H562.7z"/>
	<path d="M680.5,89.1c7.4,8,11.1,19.1,11.1,33.1v61.9h-32.3v-57.5c0-7.1-1.8-12.6-5.5-16.5c-3.7-3.9-8.6-5.9-14.8-5.9
		c-6.2,0-11.1,2-14.8,5.9c-3.7,3.9-5.5,9.4-5.5,16.5v57.5h-32.5V78.2h32.5v14c3.3-4.7,7.7-8.4,13.3-11.1c5.6-2.7,11.8-4.1,18.8-4.1
		C663.2,77.1,673.1,81.1,680.5,89.1z"/>
	<path d="M773.3,156.6v27.5h-16.5c-11.8,0-20.9-2.9-27.5-8.6c-6.6-5.8-9.9-15.2-9.9-28.2v-42.1h-12.9v-27h12.9V52.4h32.5v25.8h21.3
		v27h-21.3v42.5c0,3.2,0.8,5.4,2.3,6.8s4,2.1,7.6,2.1H773.3z"/>
</g>
<g class="st0">
	<path d="M850.4,78.4c27.9,0,49.4,20.9,49.4,53.3c0,32.3-21.5,54.1-49.4,54.1c-19,0-32.5-10.3-38.9-20.9v68.5h-17.3V80.1h17.3v19.2
		C817.7,88.3,831.4,78.4,850.4,78.4z M846.8,93.4c-18.8,0-35.3,14.4-35.3,38.5c0,24.5,16.5,38.7,35.3,38.7
		c19.2,0,35.3-14.4,35.3-38.9C882.1,107.2,865.9,93.4,846.8,93.4z"/>
	<path d="M965.4,78.4c19.4,0,32.7,9.9,38.7,20.7v-19h17.5v104h-17.5v-19.4c-6.3,11.2-19.7,21.1-38.9,21.1
		c-27.7,0-49.2-21.8-49.2-54.1C916,99.3,937.5,78.4,965.4,78.4z M968.8,93.4c-19,0-35.1,13.9-35.1,38.3c0,24.5,16.1,38.9,35.1,38.9
		s35.3-14.2,35.3-38.7C1004.1,107.8,987.8,93.4,968.8,93.4z"/>
	<path d="M1050.8,43.6h17.3v140.5h-17.3V43.6z"/>
</g>
</svg>
