<svg id="Layer_1" data-name="Layer 1" xmlns="http://www.w3.org/2000/svg" viewBox="0 0 1080 1080"><defs><style>.cls-1{fill:#a5a5a5;}.cls-2{font-size:262.44px;font-family:Poppins-Bold, Poppins;font-weight:700;}.cls-3{font-size:105.23px;font-family:Poppins-Regular, Poppins;}</style></defs><path d="M418.49,594.3c-1.79-14.78-14.8-26.44-29.17-30.34C342.47,551.25,293,593.14,254.71,615.3c-.9.53-1.79,1-2.68,1.53-48.56,27.26-122.69,60.43-166,7.69-10.91-13.27-16.42-30.34-18.23-47.43-6.2-58.36,26-117.69,59.66-163.22C156.05,375.1,197.49,331.82,249,329.6c31.35-1.36,66.43,16.8,82.12,44.48.35.61.69,1.22,1,1.83-14.65-13.32-39.12-26.64-59.73-26.8C207,348.59,168.31,437.5,168.31,437.5,163,452.66,157,471.46,154.85,490h0c-1.63,14.57-.82,29,4.74,41.42,13.5,30.15,56,29,82,18.79,36.34-14.31,72.15-52.82,114-44.6,33.58,6.59,51.64,37.82,59.38,69.35A166.11,166.11,0,0,1,418.49,594.3Z"/><path class="cls-1" d="M302.56,452.59c-12.38-4.29-24-10.54-36.59-14.28-35.11-10.46-68.39.45-92.18,27.45-4.63,5.26-13,14.74-18.94,24.28,2.1-18.58,8.18-37.38,13.46-52.54,0,0,38.71-88.91,104.09-88.39,20.61.16,45.08,13.48,59.73,26.8-.32-.61-.66-1.22-1-1.83,13.78,13.71,25.93,30.3,29.7,47.18C368.65,456.32,326.27,460.82,302.56,452.59Z"/><path class="cls-1" d="M401.07,641.83c-24.4,19.88-58.58,10.46-69.39,3.49s-39.4-20.23-59.28-27.55a48.27,48.27,0,0,0-17.69-2.47c38.3-22.16,87.76-64,134.61-51.34,14.37,3.9,27.38,15.56,29.17,30.34A166.11,166.11,0,0,0,415,575C422.37,594.2,420,626.41,401.07,641.83Z"/><text class="cls-2" transform="translate(456.74 523.66)">FBO</text><text class="cls-3" transform="translate(469.7 621.65)">schedule</text></svg>