<?xml version="1.0" encoding="utf-8"?>
<!-- Generator: Adobe Illustrator 25.2.1, SVG Export Plug-In . SVG Version: 6.00 Build 0)  -->
<svg version="1.1" id="Layer_1" xmlns="http://www.w3.org/2000/svg" xmlns:xlink="http://www.w3.org/1999/xlink" x="0px" y="0px"
	 viewBox="0 0 1080 328" style="enable-background:new 0 0 1080 328;" xml:space="preserve">
<style type="text/css">
	.st0{enable-background:new    ;}
	.st1{fill:#FFFFFF;}
</style>
<g>
	<path d="M240.2,99.3c8.2-18.1,17.2-55.1-1.5-72.5c-11.2-10.1-26.4-14.6-41.3-12.2c-15.6,2.5-24.1,15.6-38.4,21.1
		c-15.8,6-26.8-4.5-40.9-9.5C98.6,19.3,77.2,29.5,70.4,49c-1,2.8-1.6,5.7-1.9,8.7c-1.2,11.7,3.3,23.5,10.3,33
		c6.8,9.1,15.1,17,24.6,23.2c5.9,3.9,12.1,7.2,18.7,9.7c-60.4,8.8-98.2,66-87.4,116.2c11.3,52.8,74.6,90,134.9,67.6
		c-57.8,13.6-112.1-27.3-117.1-78.1c-4.5-46.4,32.8-93.5,86.3-99.1c0.3,0.9,0.4,1.9,0.4,2.8c0.1,32.9,38.1,48.5,66.2,40.4
		c10.2-3,19.9-9.2,24.8-18.6s-1.8-16.2,0.5-31.5C232.3,112.5,236.4,107.7,240.2,99.3z"/>
	<g class="st0">
		<path d="M83.9,238.4l18.8-1.8c1.1,6.3,3.4,10.9,6.9,13.9s8.1,4.4,14,4.4c6.2,0,10.9-1.3,14.1-3.9c3.2-2.6,4.7-5.7,4.7-9.2
			c0-2.3-0.7-4.2-2-5.8c-1.3-1.6-3.6-3-6.9-4.1c-2.3-0.8-7.4-2.2-15.5-4.2c-10.4-2.6-17.6-5.7-21.8-9.5c-5.9-5.3-8.8-11.7-8.8-19.2
			c0-4.9,1.4-9.4,4.1-13.7c2.8-4.2,6.7-7.5,11.9-9.7c5.2-2.2,11.5-3.3,18.8-3.3c12,0,21,2.6,27.1,7.9c6.1,5.3,9.3,12.3,9.6,21.1
			l-19.3,0.8c-0.8-4.9-2.6-8.5-5.3-10.6c-2.7-2.2-6.8-3.2-12.2-3.2c-5.6,0-10,1.2-13.2,3.5c-2,1.5-3.1,3.5-3.1,5.9
			c0,2.3,1,4.2,2.9,5.8c2.4,2,8.4,4.2,17.7,6.4c9.4,2.2,16.3,4.5,20.8,6.9c4.5,2.4,8,5.6,10.6,9.7c2.5,4.1,3.8,9.2,3.8,15.2
			c0,5.5-1.5,10.6-4.6,15.4c-3,4.8-7.4,8.3-12.9,10.7c-5.6,2.3-12.5,3.5-20.8,3.5c-12.1,0-21.4-2.8-27.9-8.4
			C89.1,257.3,85.2,249.1,83.9,238.4z"/>
		<path d="M209.6,200.3v14.6h-12.5v27.9c0,5.7,0.1,9,0.4,9.9c0.2,0.9,0.8,1.7,1.6,2.3c0.8,0.6,1.9,0.9,3.1,0.9
			c1.7,0,4.2-0.6,7.4-1.8l1.6,14.2c-4.3,1.8-9.1,2.7-14.5,2.7c-3.3,0-6.3-0.6-8.9-1.7c-2.7-1.1-4.6-2.5-5.8-4.3s-2.1-4.1-2.6-7.1
			c-0.4-2.1-0.6-6.4-0.6-12.9v-30.2h-8.4v-14.6h8.4v-13.8l18.4-10.7v24.5H209.6z"/>
		<path d="M236,221.4l-16.6-3c1.9-6.7,5.1-11.7,9.7-14.9c4.6-3.2,11.4-4.8,20.4-4.8c8.2,0,14.3,1,18.3,2.9c4,1.9,6.8,4.4,8.5,7.4
			s2.4,8.5,2.4,16.4l-0.2,21.4c0,6.1,0.3,10.6,0.9,13.5c0.6,2.9,1.7,6,3.3,9.3h-18.1c-0.5-1.2-1.1-3-1.8-5.4
			c-0.3-1.1-0.5-1.8-0.7-2.2c-3.1,3-6.5,5.3-10,6.9c-3.6,1.5-7.4,2.3-11.4,2.3c-7.1,0-12.8-1.9-16.9-5.8c-4.1-3.9-6.2-8.8-6.2-14.7
			c0-3.9,0.9-7.4,2.8-10.5c1.9-3.1,4.5-5.4,7.9-7c3.4-1.6,8.2-3.1,14.6-4.3c8.6-1.6,14.5-3.1,17.8-4.5v-1.8c0-3.5-0.9-6-2.6-7.5
			c-1.7-1.5-5-2.3-9.9-2.3c-3.3,0-5.8,0.6-7.6,1.9C238.6,215.9,237.2,218.2,236,221.4z M260.6,236.3c-2.3,0.8-6.1,1.7-11.2,2.8
			c-5.1,1.1-8.4,2.2-10,3.2c-2.4,1.7-3.6,3.9-3.6,6.5c0,2.6,1,4.8,2.9,6.7c1.9,1.9,4.3,2.8,7.3,2.8c3.3,0,6.5-1.1,9.5-3.3
			c2.2-1.7,3.7-3.7,4.4-6.1c0.5-1.6,0.7-4.5,0.7-8.9V236.3z"/>
		<path d="M295.9,269.6v-95.7h18.3v34.5c5.7-6.4,12.4-9.7,20.1-9.7c8.4,0,15.4,3.1,20.9,9.2c5.5,6.1,8.3,14.9,8.3,26.3
			c0,11.8-2.8,20.9-8.5,27.3c-5.6,6.4-12.5,9.6-20.5,9.6c-4,0-7.9-1-11.7-3c-3.9-2-7.2-4.9-10-8.8v10.2H295.9z M314.1,233.4
			c0,7.2,1.1,12.5,3.4,15.9c3.2,4.9,7.4,7.3,12.7,7.3c4,0,7.5-1.7,10.3-5.2c2.8-3.5,4.3-8.9,4.3-16.3c0-7.9-1.4-13.6-4.3-17.1
			c-2.9-3.5-6.5-5.3-11-5.3c-4.4,0-8,1.7-11,5.1C315.5,221.3,314.1,226.5,314.1,233.4z"/>
		<path d="M378.3,269.6v-95.7h18.3v95.7H378.3z"/>
		<path d="M455.5,247.5l18.3,3.1c-2.3,6.7-6.1,11.8-11.1,15.3c-5.1,3.5-11.4,5.3-19,5.3c-12.1,0-21-3.9-26.8-11.8
			c-4.6-6.3-6.9-14.3-6.9-23.9c0-11.5,3-20.5,9-27c6-6.5,13.6-9.8,22.8-9.8c10.3,0,18.4,3.4,24.4,10.2c6,6.8,8.8,17.2,8.5,31.3
			h-45.9c0.1,5.4,1.6,9.7,4.4,12.7c2.8,3,6.4,4.5,10.6,4.5c2.9,0,5.3-0.8,7.2-2.3C453.1,253.5,454.5,251,455.5,247.5z M456.6,229
			c-0.1-5.3-1.5-9.3-4.1-12.1c-2.6-2.8-5.8-4.1-9.5-4.1c-4,0-7.3,1.5-9.9,4.4c-2.6,2.9-3.9,6.9-3.8,11.9H456.6z"/>
		<path d="M527.1,269.6v-95.7h65.6v16.2h-46.3v22.6h39.9v16.2h-39.9v40.7H527.1z"/>
		<path d="M682.1,269.6h-18.3v-69.3h17v9.9c2.9-4.7,5.5-7.7,7.9-9.2c2.3-1.5,5-2.2,7.9-2.2c4.2,0,8.2,1.2,12.1,3.5l-5.7,16
			c-3.1-2-6-3-8.6-3c-2.6,0-4.7,0.7-6.5,2.1c-1.8,1.4-3.2,4-4.2,7.7c-1,3.7-1.5,11.4-1.5,23.2V269.6z"/>
		<path d="M756.7,247.5l18.3,3.1c-2.3,6.7-6.1,11.8-11.1,15.3c-5.1,3.5-11.4,5.3-19,5.3c-12.1,0-21-3.9-26.8-11.8
			c-4.6-6.3-6.9-14.3-6.9-23.9c0-11.5,3-20.5,9-27c6-6.5,13.6-9.8,22.8-9.8c10.3,0,18.4,3.4,24.4,10.2c6,6.8,8.8,17.2,8.5,31.3H730
			c0.1,5.4,1.6,9.7,4.4,12.7c2.8,3,6.4,4.5,10.6,4.5c2.9,0,5.3-0.8,7.2-2.3C754.2,253.5,755.7,251,756.7,247.5z M757.8,229
			c-0.1-5.3-1.5-9.3-4.1-12.1c-2.6-2.8-5.8-4.1-9.5-4.1c-4,0-7.3,1.5-9.9,4.4c-2.6,2.9-3.9,6.9-3.8,11.9H757.8z"/>
		<path d="M851.3,220.8l-18.1,3.3c-0.6-3.6-2-6.3-4.1-8.2s-4.9-2.7-8.4-2.7c-4.6,0-8.2,1.6-10.9,4.7c-2.7,3.2-4.1,8.4-4.1,15.8
			c0,8.2,1.4,14,4.1,17.4c2.8,3.4,6.5,5.1,11.1,5.1c3.5,0,6.3-1,8.5-3s3.8-5.4,4.7-10.2l18,3.1c-1.9,8.3-5.5,14.5-10.8,18.7
			c-5.3,4.2-12.4,6.3-21.3,6.3c-10.1,0-18.2-3.2-24.2-9.6c-6-6.4-9-15.2-9-26.6c0-11.4,3-20.3,9.1-26.7c6-6.4,14.2-9.6,24.5-9.6
			c8.4,0,15.1,1.8,20.1,5.4C845.6,207.8,849.2,213.3,851.3,220.8z"/>
		<path d="M878.9,221.4l-16.6-3c1.9-6.7,5.1-11.7,9.7-14.9c4.6-3.2,11.4-4.8,20.4-4.8c8.2,0,14.3,1,18.3,2.9c4,1.9,6.8,4.4,8.5,7.4
			c1.6,3,2.4,8.5,2.4,16.4l-0.2,21.4c0,6.1,0.3,10.6,0.9,13.5c0.6,2.9,1.7,6,3.3,9.3h-18.1c-0.5-1.2-1.1-3-1.8-5.4
			c-0.3-1.1-0.5-1.8-0.7-2.2c-3.1,3-6.5,5.3-10,6.9c-3.6,1.5-7.4,2.3-11.4,2.3c-7.1,0-12.8-1.9-16.9-5.8c-4.1-3.9-6.2-8.8-6.2-14.7
			c0-3.9,0.9-7.4,2.8-10.5c1.9-3.1,4.5-5.4,7.9-7c3.4-1.6,8.2-3.1,14.6-4.3c8.6-1.6,14.5-3.1,17.8-4.5v-1.8c0-3.5-0.9-6-2.6-7.5
			c-1.7-1.5-5-2.3-9.9-2.3c-3.3,0-5.8,0.6-7.6,1.9C881.5,215.9,880.1,218.2,878.9,221.4z M903.5,236.3c-2.3,0.8-6.1,1.7-11.2,2.8
			c-5.1,1.1-8.4,2.2-10,3.2c-2.4,1.7-3.6,3.9-3.6,6.5c0,2.6,1,4.8,2.9,6.7c1.9,1.9,4.3,2.8,7.3,2.8c3.3,0,6.5-1.1,9.5-3.3
			c2.2-1.7,3.7-3.7,4.4-6.1c0.5-1.6,0.7-4.5,0.7-8.9V236.3z"/>
		<path d="M933.1,249.8l18.4-2.8c0.8,3.6,2.4,6.3,4.8,8.1c2.4,1.8,5.7,2.8,10,2.8c4.7,0,8.3-0.9,10.7-2.6c1.6-1.2,2.4-2.8,2.4-4.9
			c0-1.4-0.4-2.5-1.3-3.5c-0.9-0.9-3-1.7-6.1-2.4c-14.8-3.3-24.2-6.2-28.1-8.9c-5.5-3.7-8.2-8.9-8.2-15.6c0-6,2.4-11,7.1-15.1
			c4.7-4.1,12.1-6.1,22.1-6.1c9.5,0,16.5,1.5,21.1,4.6c4.6,3.1,7.8,7.7,9.5,13.7l-17.3,3.2c-0.7-2.7-2.1-4.8-4.2-6.2
			c-2.1-1.4-5-2.2-8.8-2.2c-4.8,0-8.3,0.7-10.4,2c-1.4,1-2.1,2.2-2.1,3.7c0,1.3,0.6,2.4,1.8,3.3c1.7,1.2,7.4,2.9,17.1,5.2
			c9.8,2.2,16.6,4.9,20.5,8.2c3.8,3.3,5.7,7.8,5.7,13.6c0,6.4-2.7,11.8-8,16.4c-5.3,4.6-13.2,6.9-23.6,6.9c-9.4,0-16.9-1.9-22.4-5.7
			C938.4,261.6,934.8,256.4,933.1,249.8z"/>
		<path d="M1045.7,200.3v14.6h-12.5v27.9c0,5.7,0.1,9,0.4,9.9c0.2,0.9,0.8,1.7,1.6,2.3c0.8,0.6,1.9,0.9,3.1,0.9
			c1.7,0,4.2-0.6,7.4-1.8l1.6,14.2c-4.3,1.8-9.1,2.7-14.5,2.7c-3.3,0-6.3-0.6-8.9-1.7c-2.7-1.1-4.6-2.5-5.8-4.3s-2.1-4.1-2.6-7.1
			c-0.4-2.1-0.6-6.4-0.6-12.9v-30.2h-8.4v-14.6h8.4v-13.8l18.4-10.7v24.5H1045.7z"/>
	</g>
	<path d="M654.2,239.4c-2.4-5.1-5.5-9.9-9.2-14.2c-5.3-6.4-10.6-12.8-15.9-19.3c-1.2-1.5-2.8-5.6-4.7-6.4c-2.5-1.1-4.1,2.3-5.8,4.2
		l-12.8,14.6c-8,9.1-16.4,19.1-16.1,30.3c0.3,12.8,13,23.7,28.1,25.6c1,0.1,2,0.2,2.9,0.3h4.4c1.4-0.2,2.8-0.3,4.2-0.5
		c6.5-0.9,12.6-3.6,17.7-7.8c4-3.3,7-7.7,8.4-12.7C656.7,248.8,656.3,243.8,654.2,239.4z M638.2,247.8c-0.7,2.3-2,4.4-3.9,5.9
		c-2.4,2-5.2,3.2-8.3,3.7c-0.7,0.1-1.3,0.2-2,0.2h-2c-0.5,0-0.9-0.1-1.4-0.2c-2.6-0.3-5-1.2-7.2-2.5c-2.6-1.5-4.6-3.9-5.5-6.8
		c-0.2-0.7-0.3-1.3-0.4-2v-1.7c0.1-0.6,0.2-1.1,0.3-1.7c0.5-2.4,1.6-4.6,3.1-6.5c1.3-1.6,2.7-3.2,4.1-4.8c2.9-3,5.6-6.3,8-9.8
		l0.1-0.1l0.2,0.3c0.9,1.2,1.7,2.4,2.7,3.5c2.5,3,5,6,7.4,9c1.7,2,3.2,4.3,4.3,6.7C638.6,243.3,638.8,245.6,638.2,247.8z"/>
	<path class="st1" d="M120.6,117.2c1.5-1.1,2.9-2.1,4.3-3.1c0.5-0.2,1-0.2,1.5-0.1c4.6,0.7,9.3,1.5,13.9,2.2
		c0.8,0.1,1.6-0.1,2.2-0.5c4.1-2.8,8-5.8,12-8.7l1.2-0.8l-21.8-20.3c1.5-1.1,2.9-2.2,4.4-3.1c0.3-0.2,1.1,0.1,1.6,0.3
		c9.5,4,19,8.1,28.5,12.2c0.9,0.5,2.1,0.4,2.9-0.4c5.8-4.3,11.7-8.5,17.5-12.7c2.3-1.7,5.5-1.5,7.6,0.6c1.9,1.8,2.3,4.8,0.9,7.1
		c-0.6,0.8-1.3,1.6-2.1,2.2c-5.7,4.2-11.5,8.3-17.3,12.4c-0.8,0.5-1.3,1.4-1.1,2.4c0.9,10.4,1.8,20.7,2.7,31.1
		c0.2,0.9-0.2,1.8-1,2.3c-1.2,0.7-2.3,1.6-3.6,2.6l-12.4-27.1l-6.2,4.4c-2.4,1.7-4.7,3.4-7,5.1c-0.6,0.5-1,1.2-1.2,2
		c-0.8,4.5-1.5,9-2.2,13.5c-0.1,1-0.6,1.9-1.5,2.5c-1.2,0.7-2.2,1.5-3.5,2.5c-0.7-2.1-1.3-4.1-2-6c-1.1-3.5-2.1-7-3.3-10.5
		c-0.2-0.7-0.7-1.2-1.2-1.7c-4.2-3.1-8.5-6.1-12.7-9.2C121.5,118,121.2,117.6,120.6,117.2z"/>
</g>
</svg>
