<svg id="Layer_1" data-name="Layer 1" xmlns="http://www.w3.org/2000/svg" viewBox="0 0 1080 1080"><defs><style>.cls-1{fill:#fff;}.cls-2{font-size:83px;font-family:Poppins-Regular, Poppins;}</style></defs><path d="M404.8,480.17h17.14v6.19c0,25.53-.63,51.08.17,76.59.87,28-17.52,46.53-47.7,46a67.42,67.42,0,0,1-24.69-5.58c-12.53-5.36-20.2-16.21-20.58-29.48-.91-31.08-.3-62.2-.3-93.69H345c.1,2.15.27,4.2.27,6.24,0,25.72-.08,51.45.09,77.18a55.76,55.76,0,0,0,1.87,14.26c2.23,8,7.61,14.07,15.8,15.45,7.64,1.29,15.9,1.72,23.43.24,11.15-2.2,17.8-11.26,18-23.41.47-24.94.27-49.89.34-74.84C404.81,490.53,404.8,485.7,404.8,480.17Z"/><path d="M462.93,480.83c19.85,0,39.45-1.87,58.55.43,30.55,3.67,38.7,29.89,31.51,52.32-4.29,13.36-14.91,19.94-28,22.45-6.42,1.23-13.12,1.19-19.71,1.36-8.32.21-16.64.05-25.49.05v49.5H462.93Zm16.89,62.38c12.93,0,25.59.87,38.07-.24,12.9-1.14,19.89-9.87,20.54-22.68.62-12-5.84-22.82-17.56-24.71-13.41-2.17-27.25-1.72-41.05-2.41Z"/><path d="M851.67,480.56v12.95H810.6V606.94H793.32V493.83H752.26V480.56Z"/><path d="M607.69,480.3V593.52h61.16v13.53H591.1V480.3Z"/><path d="M703.46,480.23h16.66V607.12H703.46Z"/><rect x="97.78" y="446.22" width="194.59" height="187.55" rx="43.36"/><path class="cls-1" d="M275.74,518H112.43c3.25-9.81,6.26-19.12,9.43-28.37,1.74-5.08,2.36-12,6-14.57s10.46-1,15.88-1c37.13,0,74.25.09,111.38-.12,4.78,0,6.77,1.47,8.12,5.91C267.05,492.38,271.36,504.76,275.74,518ZM150.1,478.56l-1-1.52c-2.25,1-6,1.53-6.51,3.1-3.79,11.3-6.93,22.81-10.28,34.25l1.12,1.49c2.44-1.1,6.49-1.69,7.05-3.4C144.12,501.31,147,489.89,150.1,478.56Zm87.1-.13c2.86,10.44,5.69,20.64,8.45,30.86,1.81,6.69,2,6.84,9.28,4.75-3.1-10.55-6.41-21-9.21-31.67C244.54,477.9,242.31,476.78,237.2,478.43Zm-41.1,35.79V477.73l-5.65.25v36.5Zm30.93,0c-2.18-12.52-4.22-24.25-6.3-36.18h-6.4c2,12.29,4,24.17,6,36.18Zm-54.1-35.84c-4.86-1.76-6.8-.13-7.23,4.05-.26,2.47-.87,4.91-1.28,7.37-1.32,8-2.62,16.1-3.91,24,4.77,1.58,6.68.49,7.29-4C169.23,499.37,171.16,489,172.93,478.37Z"/><path class="cls-1" d="M125.87,594.2c0-17.47,0-34.1,0-50.72,0-3.14-.07-5.59,4.39-5.63,4.29-.05,5.77,1.18,5.69,5.59-.24,14.5-.09,29-.1,43.53v6.78h40.87V541.34h6.88v52.49h70.66V581.18q0-17.7,0-35.41c0-8.63.42-8.95,10.13-6.85v55c2.15.12,3.66.25,5.16.27,6.72.09,8.82,2.86,6.81,9.38a4.53,4.53,0,0,1-2.63,2.5c-1.42.45-3.07.19-4.63.19H116.85c-7,0-8.36-1.31-7.11-8.14.28-1.51,2.65-3.47,4.3-3.74C117.61,593.8,121.33,594.2,125.87,594.2Z"/><path class="cls-1" d="M220.78,524.19c-2,7.26-6.19,11.81-13.53,11.88s-11.6-4.55-13.57-13.17c-2.75,8.72-7,14.08-15.51,13.06-6.53-.78-10.09-5.15-11.8-13.26-2.58,8.78-6.81,13.93-14.91,13.34-6.88-.5-10.65-5-12-11.53-2.62,3.38-4.45,7.62-7.66,9.38s-7.89,1.88-11.53,1c-5.46-1.29-7.76-6.21-7-12.51H273.77c.67,7.26-2.58,11.84-9.2,13.35-7.27,1.66-12.33-1.82-16.58-12-2.21,7.56-6.28,12.73-14.2,12.32C226.74,535.71,222.72,531.25,220.78,524.19Z"/><path class="cls-1" d="M127.13,465.26H254.41c1.16,0,2.51-.34,3.45.13,1.12.55,2.64,1.81,2.63,2.75A3.87,3.87,0,0,1,258,471a83.51,83.51,0,0,1-9.89.2q-58,0-116,0C128.43,471.25,125.06,471.3,127.13,465.26Z"/><path class="cls-1" d="M168.94,579.54c-1,1.14-2,3.59-3.63,4a9.11,9.11,0,0,1-6.75-1.14c-1.19-.83-1.81-4-1.23-5.56a34.16,34.16,0,0,0,.06-23.91c-.59-1.7.21-5,1.54-6a7.91,7.91,0,0,1,6.76-.56c1.5.71,3.16,4.11,2.63,5.55-3.19,8.65-3.4,17.08.17,25.6A16,16,0,0,1,168.94,579.54Z"/><text class="cls-2" transform="translate(858.67 606.32)">Inc.</text></svg>