<?xml version="1.0" encoding="utf-8"?>
<!-- Generator: Adobe Illustrator 25.2.1, SVG Export Plug-In . SVG Version: 6.00 Build 0)  -->
<svg version="1.1" id="Layer_1" xmlns="http://www.w3.org/2000/svg" xmlns:xlink="http://www.w3.org/1999/xlink" x="0px" y="0px"
	 viewBox="0 0 24 24" style="enable-background:new 0 0 24 24;" xml:space="preserve">
<style type="text/css">
	.st0{fill:#002680;}
	.st1{opacity:0.65;}
	.st2{fill:url(#SVGID_1_);}
	.st3{fill:#FFFFFF;}
	.st4{fill:url(#SVGID_2_);}
	.st5{fill:url(#SVGID_3_);}
	.st6{fill:url(#SVGID_4_);}
	.st7{fill:url(#SVGID_5_);}
	.st8{fill:url(#SVGID_6_);}
	.st9{fill:url(#SVGID_7_);}
	.st10{fill:url(#SVGID_8_);}
	.st11{fill:url(#SVGID_9_);}
	.st12{fill:url(#SVGID_10_);}
	.st13{fill:url(#SVGID_11_);}
	.st14{fill:url(#SVGID_12_);}
	.st15{fill:url(#SVGID_13_);}
	.st16{fill:url(#SVGID_14_);}
	.st17{fill:url(#SVGID_15_);}
	.st18{fill:url(#SVGID_16_);}
	.st19{fill:url(#SVGID_17_);}
	.st20{fill:url(#SVGID_18_);}
	.st21{fill:url(#SVGID_19_);}
	.st22{fill:url(#SVGID_20_);}
	.st23{fill:url(#SVGID_21_);}
	.st24{fill:url(#SVGID_22_);}
	.st25{fill:url(#SVGID_23_);}
	.st26{fill:url(#SVGID_24_);}
	.st27{fill:url(#SVGID_25_);}
	.st28{fill:url(#SVGID_26_);}
	.st29{fill:url(#SVGID_27_);}
	.st30{fill:url(#SVGID_28_);}
	.st31{fill:url(#SVGID_29_);}
	.st32{fill:url(#SVGID_30_);}
	.st33{fill:url(#SVGID_31_);}
	.st34{fill:url(#SVGID_32_);}
	.st35{fill:url(#SVGID_33_);}
	.st36{fill:url(#SVGID_34_);}
	.st37{fill:url(#SVGID_35_);}
	.st38{fill:url(#SVGID_36_);}
	.st39{fill:url(#SVGID_37_);}
	.st40{fill:url(#SVGID_38_);}
	.st41{fill:url(#SVGID_39_);}
	.st42{fill:url(#SVGID_40_);}
	.st43{fill:url(#SVGID_41_);}
	.st44{fill:url(#SVGID_42_);}
	.st45{fill:url(#SVGID_43_);}
	.st46{fill:url(#SVGID_44_);}
	.st47{fill:url(#SVGID_45_);}
	.st48{fill:url(#SVGID_46_);}
	.st49{fill:url(#SVGID_47_);}
	.st50{fill:url(#SVGID_48_);}
	.st51{fill:url(#SVGID_49_);}
	.st52{fill:url(#SVGID_50_);}
	.st53{fill:url(#SVGID_51_);}
	.st54{fill:url(#SVGID_52_);}
	.st55{fill:url(#SVGID_53_);}
	.st56{fill:url(#SVGID_54_);}
	.st57{fill:url(#SVGID_55_);}
	.st58{fill:url(#SVGID_56_);}
	.st59{fill:url(#SVGID_57_);}
	.st60{fill:url(#SVGID_58_);}
	.st61{fill:url(#SVGID_59_);}
	.st62{fill:url(#SVGID_60_);}
	.st63{fill:url(#SVGID_61_);}
	.st64{fill:url(#SVGID_62_);}
	.st65{fill:url(#SVGID_63_);}
	.st66{fill:url(#SVGID_64_);}
	.st67{fill:url(#SVGID_65_);}
	.st68{fill:url(#SVGID_66_);}
	.st69{fill:url(#SVGID_67_);}
	.st70{fill:url(#SVGID_68_);}
	.st71{fill:url(#SVGID_69_);}
	.st72{fill:url(#SVGID_70_);}
	.st73{fill:url(#SVGID_71_);}
	.st74{fill:url(#SVGID_72_);}
	.st75{fill:url(#SVGID_73_);}
	.st76{fill:url(#SVGID_74_);}
	.st77{fill:url(#SVGID_75_);}
	.st78{fill:url(#SVGID_76_);}
	.st79{fill:url(#SVGID_77_);}
	.st80{fill:url(#SVGID_78_);}
	.st81{fill:url(#SVGID_79_);}
	.st82{fill:url(#SVGID_80_);}
	.st83{fill:url(#SVGID_81_);}
	.st84{fill:url(#SVGID_82_);}
	.st85{fill:url(#SVGID_83_);}
	.st86{fill:url(#SVGID_84_);}
	.st87{fill:url(#SVGID_85_);}
	.st88{fill:url(#SVGID_86_);}
	.st89{fill:url(#SVGID_87_);}
	.st90{fill:url(#SVGID_88_);}
	.st91{fill:url(#SVGID_89_);}
	.st92{fill:url(#SVGID_90_);}
	.st93{fill:url(#SVGID_91_);}
	.st94{fill:url(#SVGID_92_);}
	.st95{fill:url(#SVGID_93_);}
	.st96{fill:url(#SVGID_94_);}
	.st97{fill:url(#SVGID_95_);}
	.st98{fill:url(#SVGID_96_);}
	.st99{fill:url(#SVGID_97_);}
	.st100{fill:url(#SVGID_98_);}
	.st101{fill:url(#SVGID_99_);}
	.st102{fill:url(#SVGID_100_);}
	.st103{fill:url(#SVGID_101_);}
	.st104{fill:url(#SVGID_102_);}
	.st105{fill:url(#SVGID_103_);}
	.st106{fill:url(#SVGID_104_);}
	.st107{fill:url(#SVGID_105_);}
	.st108{fill:url(#SVGID_106_);}
	.st109{fill:url(#SVGID_107_);}
	.st110{fill:url(#SVGID_108_);}
	.st111{fill:url(#SVGID_109_);}
	.st112{fill:url(#SVGID_110_);}
	.st113{fill:url(#SVGID_111_);}
	.st114{fill:url(#SVGID_112_);}
	.st115{fill:url(#SVGID_113_);}
	.st116{fill:url(#SVGID_114_);}
	.st117{fill:url(#SVGID_115_);}
	.st118{fill:url(#SVGID_116_);}
	.st119{fill:url(#SVGID_117_);}
	.st120{fill:url(#SVGID_118_);}
	.st121{fill:url(#SVGID_119_);}
	.st122{fill:url(#SVGID_120_);}
	.st123{fill:url(#SVGID_121_);}
	.st124{fill:url(#SVGID_122_);}
	.st125{fill:url(#SVGID_123_);}
	.st126{fill:url(#SVGID_124_);}
	.st127{fill:url(#SVGID_125_);}
	.st128{fill:url(#SVGID_126_);}
	.st129{fill:url(#SVGID_127_);}
	.st130{fill:url(#SVGID_128_);}
	.st131{fill:url(#SVGID_129_);}
	.st132{fill:url(#SVGID_130_);}
	.st133{fill:url(#SVGID_131_);}
	.st134{fill:url(#SVGID_132_);}
	.st135{fill:url(#SVGID_133_);}
	.st136{fill:url(#SVGID_134_);}
	.st137{fill:url(#SVGID_135_);}
	.st138{fill:url(#SVGID_136_);}
	.st139{fill:url(#SVGID_137_);}
	.st140{fill:url(#SVGID_138_);}
	.st141{fill:url(#SVGID_139_);}
	.st142{fill:url(#SVGID_140_);}
	.st143{fill:url(#SVGID_141_);}
	.st144{fill:url(#SVGID_142_);}
	.st145{fill:url(#SVGID_143_);}
	.st146{fill:url(#SVGID_144_);}
	.st147{fill:url(#SVGID_145_);}
	.st148{fill:url(#SVGID_146_);}
	.st149{fill:url(#SVGID_147_);}
	.st150{fill:url(#SVGID_148_);}
	.st151{fill:url(#SVGID_149_);}
	.st152{fill:url(#SVGID_150_);}
	.st153{fill:url(#SVGID_151_);}
	.st154{fill:url(#SVGID_152_);}
	.st155{fill:url(#SVGID_153_);}
	.st156{fill:url(#SVGID_154_);}
	.st157{fill:url(#SVGID_155_);}
	.st158{fill:url(#SVGID_156_);}
	.st159{fill:url(#SVGID_157_);}
	.st160{fill:url(#SVGID_158_);}
	.st161{fill:url(#SVGID_159_);}
	.st162{fill:url(#SVGID_160_);}
	.st163{fill:url(#SVGID_161_);}
	.st164{fill:url(#SVGID_162_);}
	.st165{fill:url(#SVGID_163_);}
	.st166{fill:url(#SVGID_164_);}
	.st167{fill:url(#SVGID_165_);}
	.st168{fill:url(#SVGID_166_);}
	.st169{fill:url(#SVGID_167_);}
	.st170{fill:url(#SVGID_168_);}
	.st171{fill:url(#SVGID_169_);}
	.st172{fill:url(#SVGID_170_);}
	.st173{fill:url(#SVGID_171_);}
	.st174{fill:url(#SVGID_172_);}
	.st175{fill:url(#SVGID_173_);}
	.st176{fill:url(#SVGID_174_);}
	.st177{fill:url(#SVGID_175_);}
	.st178{fill:url(#SVGID_176_);}
	.st179{fill:url(#SVGID_177_);}
	.st180{fill:url(#SVGID_178_);}
	.st181{fill:url(#SVGID_179_);}
	.st182{fill:url(#SVGID_180_);}
	.st183{fill:url(#SVGID_181_);}
	.st184{fill:url(#SVGID_182_);}
	.st185{fill:url(#SVGID_183_);}
	.st186{fill:url(#SVGID_184_);}
	.st187{fill:url(#SVGID_185_);}
	.st188{fill:url(#SVGID_186_);}
	.st189{fill:url(#SVGID_187_);}
	.st190{fill:url(#SVGID_188_);}
	.st191{fill:url(#SVGID_189_);}
	.st192{fill:url(#SVGID_190_);}
	.st193{fill:url(#SVGID_191_);}
	.st194{fill:url(#SVGID_192_);}
	.st195{fill:url(#SVGID_193_);}
	.st196{fill:url(#SVGID_194_);}
	.st197{fill:url(#SVGID_195_);}
	.st198{fill:url(#SVGID_196_);}
	.st199{fill:url(#SVGID_197_);}
	.st200{fill:url(#SVGID_198_);}
	.st201{fill:url(#SVGID_199_);}
	.st202{fill:url(#SVGID_200_);}
	.st203{fill:url(#SVGID_201_);}
	.st204{fill:url(#SVGID_202_);}
	.st205{fill:url(#SVGID_203_);}
	.st206{fill:url(#SVGID_204_);}
	.st207{fill:url(#SVGID_205_);}
	.st208{fill:url(#SVGID_206_);}
	.st209{fill:url(#SVGID_207_);}
	.st210{fill:url(#SVGID_208_);}
	.st211{fill:url(#SVGID_209_);}
	.st212{fill:url(#SVGID_210_);}
	.st213{fill:url(#SVGID_211_);}
	.st214{fill:url(#SVGID_212_);}
	.st215{fill:url(#SVGID_213_);}
	.st216{fill:url(#SVGID_214_);}
	.st217{fill:url(#SVGID_215_);}
	.st218{fill:url(#SVGID_216_);}
	.st219{fill:url(#SVGID_217_);}
	.st220{fill:url(#SVGID_218_);}
	.st221{fill:url(#SVGID_219_);}
	.st222{fill:url(#SVGID_220_);}
	.st223{fill:url(#SVGID_221_);}
	.st224{fill:url(#SVGID_222_);}
	.st225{fill:url(#SVGID_223_);}
	.st226{fill:url(#SVGID_224_);}
	.st227{fill:url(#SVGID_225_);}
	.st228{fill:url(#SVGID_226_);}
	.st229{fill:url(#SVGID_227_);}
	.st230{fill:url(#SVGID_228_);}
	.st231{fill:url(#SVGID_229_);}
	.st232{fill:url(#SVGID_230_);}
	.st233{fill:url(#SVGID_231_);}
	.st234{fill:url(#SVGID_232_);}
	.st235{fill:url(#SVGID_233_);}
	.st236{fill:url(#SVGID_234_);}
	.st237{fill:url(#SVGID_235_);}
	.st238{fill:url(#SVGID_236_);}
	.st239{fill:url(#SVGID_237_);}
	.st240{fill:url(#SVGID_238_);}
	.st241{fill:url(#SVGID_239_);}
	.st242{fill:url(#SVGID_240_);}
	.st243{fill:url(#SVGID_241_);}
	.st244{fill:url(#SVGID_242_);}
	.st245{fill:url(#SVGID_243_);}
	.st246{fill:url(#SVGID_244_);}
	.st247{fill:url(#SVGID_245_);}
	.st248{fill:url(#SVGID_246_);}
	.st249{fill:url(#SVGID_247_);}
	.st250{fill-rule:evenodd;clip-rule:evenodd;fill:#002680;}
	.st251{fill-rule:evenodd;clip-rule:evenodd;fill:url(#SVGID_248_);}
	.st252{fill-rule:evenodd;clip-rule:evenodd;fill:url(#SVGID_249_);}
	.st253{fill-rule:evenodd;clip-rule:evenodd;fill:url(#SVGID_250_);}
	.st254{fill-rule:evenodd;clip-rule:evenodd;fill:url(#SVGID_251_);}
	.st255{fill-rule:evenodd;clip-rule:evenodd;fill:url(#SVGID_252_);}
	.st256{fill-rule:evenodd;clip-rule:evenodd;fill:url(#SVGID_253_);}
	.st257{fill-rule:evenodd;clip-rule:evenodd;fill:url(#SVGID_254_);}
	.st258{fill-rule:evenodd;clip-rule:evenodd;fill:url(#SVGID_255_);}
	.st259{fill-rule:evenodd;clip-rule:evenodd;fill:url(#SVGID_256_);}
	.st260{fill-rule:evenodd;clip-rule:evenodd;fill:#FFFFFF;}
	.st261{fill:url(#SVGID_257_);}
	.st262{fill:url(#SVGID_258_);}
	.st263{fill:url(#SVGID_259_);}
	.st264{fill:url(#SVGID_260_);}
	.st265{fill:url(#SVGID_261_);}
	.st266{fill:url(#SVGID_262_);}
	.st267{fill:url(#SVGID_263_);}
	.st268{fill:url(#SVGID_264_);}
	.st269{fill:url(#SVGID_265_);}
	.st270{fill:url(#SVGID_266_);}
	.st271{fill:url(#SVGID_267_);}
	.st272{fill:url(#SVGID_268_);}
	.st273{fill:url(#SVGID_269_);}
	.st274{fill:url(#SVGID_270_);}
	.st275{fill:url(#SVGID_271_);}
	.st276{fill:url(#SVGID_272_);}
	.st277{fill:url(#SVGID_273_);}
	.st278{fill:url(#SVGID_274_);}
	.st279{fill:url(#SVGID_275_);}
	.st280{fill:url(#SVGID_276_);}
	.st281{fill:url(#SVGID_277_);}
	.st282{fill:url(#SVGID_278_);}
	.st283{fill:url(#SVGID_279_);}
	.st284{fill:url(#SVGID_280_);}
	.st285{fill:url(#SVGID_281_);}
	.st286{fill:url(#SVGID_282_);}
	.st287{fill:url(#SVGID_283_);}
	.st288{fill:url(#SVGID_284_);}
	.st289{fill:url(#SVGID_285_);}
	.st290{fill:url(#SVGID_286_);}
	.st291{fill:url(#SVGID_287_);}
	.st292{fill:url(#SVGID_288_);}
	.st293{fill:url(#SVGID_289_);}
	.st294{fill:url(#SVGID_290_);}
	.st295{fill:url(#SVGID_291_);}
	.st296{fill:url(#SVGID_292_);}
	.st297{fill:url(#SVGID_293_);}
	.st298{fill:url(#SVGID_294_);}
	.st299{fill:url(#SVGID_295_);}
	.st300{fill:url(#SVGID_296_);}
	.st301{fill:url(#SVGID_297_);}
	.st302{fill:url(#SVGID_298_);}
	.st303{fill:url(#SVGID_299_);}
	.st304{fill:url(#SVGID_300_);}
	.st305{fill:url(#SVGID_301_);}
	.st306{fill:url(#SVGID_302_);}
	.st307{fill:url(#SVGID_303_);}
	.st308{fill:url(#SVGID_304_);}
	.st309{fill:url(#SVGID_305_);}
	.st310{fill:url(#SVGID_306_);}
	.st311{fill:url(#SVGID_307_);}
	.st312{fill:url(#SVGID_308_);}
	.st313{fill:url(#SVGID_309_);}
	.st314{fill:url(#SVGID_310_);}
	.st315{fill:url(#SVGID_311_);}
	.st316{fill:url(#SVGID_312_);}
	.st317{fill:url(#SVGID_313_);}
	.st318{fill:url(#SVGID_314_);}
	.st319{fill:url(#SVGID_315_);}
	.st320{fill:url(#SVGID_316_);}
	.st321{fill:url(#SVGID_317_);}
	.st322{fill:url(#SVGID_318_);}
	.st323{fill:url(#SVGID_319_);}
	.st324{fill:url(#SVGID_320_);}
	.st325{fill:url(#SVGID_321_);}
	.st326{fill:url(#SVGID_322_);}
	.st327{fill:url(#SVGID_323_);}
	.st328{fill:url(#SVGID_324_);}
	.st329{fill:url(#SVGID_325_);}
	.st330{fill:url(#SVGID_326_);}
	.st331{fill:url(#SVGID_327_);}
	.st332{fill:url(#SVGID_328_);}
	.st333{fill:url(#SVGID_329_);}
	.st334{fill:url(#SVGID_330_);}
	.st335{fill:url(#SVGID_331_);}
	.st336{fill:url(#SVGID_332_);}
	.st337{fill:url(#SVGID_333_);}
	.st338{fill:url(#SVGID_334_);}
	.st339{fill:url(#SVGID_335_);}
	.st340{fill:url(#SVGID_336_);}
	.st341{fill:url(#SVGID_337_);}
	.st342{fill:url(#SVGID_338_);}
	.st343{fill:url(#SVGID_339_);}
	.st344{fill:url(#SVGID_340_);}
	.st345{fill:url(#SVGID_341_);}
	.st346{fill:url(#SVGID_342_);}
	.st347{fill-rule:evenodd;clip-rule:evenodd;}
	.st348{fill:none;}
	.st349{fill-rule:evenodd;clip-rule:evenodd;fill:url(#SVGID_343_);}
	.st350{fill:url(#SVGID_344_);}
	.st351{fill:url(#SVGID_345_);}
	.st352{fill:url(#SVGID_346_);}
	.st353{fill:url(#SVGID_347_);}
	.st354{fill-rule:evenodd;clip-rule:evenodd;fill:none;stroke:#FFFFFF;stroke-width:0.25;stroke-miterlimit:10;}
	.st355{fill:url(#SVGID_348_);}
	.st356{fill:url(#SVGID_349_);}
	.st357{fill:url(#SVGID_350_);}
	.st358{fill:url(#SVGID_351_);}
	.st359{fill:url(#SVGID_352_);}
	.st360{fill:url(#SVGID_353_);}
	.st361{fill:url(#SVGID_354_);}
	.st362{fill:url(#SVGID_355_);}
	.st363{fill:url(#SVGID_356_);}
	.st364{fill:url(#SVGID_357_);}
	.st365{fill:url(#SVGID_358_);}
	.st366{fill:url(#SVGID_359_);}
	.st367{fill:url(#SVGID_360_);}
	.st368{fill:url(#SVGID_361_);}
	.st369{fill:url(#SVGID_362_);}
	.st370{fill:url(#SVGID_363_);}
	.st371{fill:url(#SVGID_364_);}
	.st372{fill:url(#SVGID_365_);}
	.st373{fill:url(#SVGID_366_);}
	.st374{fill:url(#SVGID_367_);}
	.st375{fill:url(#SVGID_368_);}
	.st376{fill:url(#SVGID_369_);}
	.st377{fill:url(#SVGID_370_);}
	.st378{fill:url(#SVGID_371_);}
	.st379{fill:url(#SVGID_372_);}
	.st380{fill:url(#SVGID_373_);}
	.st381{fill:url(#SVGID_374_);}
	.st382{fill:url(#SVGID_375_);}
	.st383{fill:url(#SVGID_376_);}
	.st384{fill:url(#SVGID_377_);}
	.st385{fill:url(#SVGID_378_);}
	.st386{fill:url(#SVGID_379_);}
	.st387{fill:url(#SVGID_380_);}
	.st388{fill:url(#SVGID_381_);}
	.st389{fill:url(#SVGID_382_);}
	.st390{fill:url(#SVGID_383_);}
	.st391{fill:url(#SVGID_384_);}
	.st392{fill:url(#SVGID_385_);}
	.st393{fill:url(#SVGID_386_);}
	.st394{fill:url(#SVGID_387_);}
	.st395{fill:url(#SVGID_388_);}
	.st396{fill:url(#SVGID_389_);}
	.st397{fill:url(#SVGID_390_);}
	.st398{fill:url(#SVGID_391_);}
	.st399{fill:url(#SVGID_392_);}
	.st400{fill:url(#SVGID_393_);}
	.st401{fill:url(#SVGID_394_);}
	.st402{fill:url(#SVGID_395_);}
	.st403{fill:url(#SVGID_396_);}
	.st404{fill:url(#SVGID_397_);}
	.st405{fill:url(#SVGID_398_);}
	.st406{fill:url(#SVGID_399_);}
	.st407{fill:url(#SVGID_400_);}
	.st408{fill:url(#SVGID_401_);}
	.st409{fill:url(#SVGID_402_);}
	.st410{fill:url(#SVGID_403_);}
	.st411{fill:url(#SVGID_404_);}
	.st412{fill:url(#SVGID_405_);}
	.st413{fill:url(#SVGID_406_);}
	.st414{fill:url(#SVGID_407_);}
	.st415{fill:url(#SVGID_408_);}
	.st416{fill:url(#SVGID_409_);}
	.st417{fill:url(#SVGID_410_);}
	.st418{fill:url(#SVGID_411_);}
	.st419{fill:url(#SVGID_412_);}
	.st420{fill:url(#SVGID_413_);}
	.st421{fill:url(#SVGID_414_);}
	.st422{fill:url(#SVGID_415_);}
	.st423{fill:url(#SVGID_416_);}
	.st424{fill:url(#SVGID_417_);}
	.st425{fill:url(#SVGID_418_);}
	.st426{fill:url(#SVGID_419_);}
	.st427{fill:url(#SVGID_420_);}
	.st428{fill:url(#SVGID_421_);}
</style>
<g>
	<path class="st0" d="M17.1,10.67c0.47-0.61,0.85-1.2,1.16-1.78h1.15V8.24h-0.85c0.93-2.14,0.78-4,0.2-5.2
		c-0.65-1.32-1.86-2.05-3.35-1.97c-2,0.11-2.97,1.66-3.41,2.73c-0.44-1.07-1.41-2.61-3.41-2.73C7.11,0.99,5.88,1.72,5.24,3.04
		c-0.59,1.2-0.73,3.06,0.2,5.2H4.59v0.64h1.15c0.3,0.58,0.68,1.18,1.16,1.78c2.95,3.78,4.93,4.39,5.02,4.42
		c0.03,0.01,0.06,0.01,0.09,0.01s0.06,0,0.09-0.01C12.17,15.06,14.16,14.44,17.1,10.67z M5.81,3.32c0.51-1.04,1.41-1.61,2.55-1.61
		c0.06,0,0.13,0,0.19,0.01c2.55,0.14,3.11,3.09,3.13,3.21c0.03,0.15,0.16,0.26,0.31,0.26l0,0c0.16,0,0.29-0.11,0.31-0.26
		c0.01-0.03,0.57-3.07,3.13-3.21c1.24-0.07,2.21,0.51,2.74,1.61c0.52,1.06,0.63,2.85-0.33,4.92h-1.69c-0.12,0-0.23,0.07-0.28,0.17
		l-0.54,1.05l-1.29-3.07c-0.05-0.12-0.18-0.2-0.31-0.2c-0.13,0.01-0.25,0.09-0.29,0.22L12,10.9l-1.96-6.18
		C10,4.59,9.88,4.5,9.75,4.49C9.62,4.48,9.5,4.56,9.44,4.68L7.81,8.24H6.14C5.18,6.17,5.3,4.38,5.81,3.32z M12,14.43
		c-0.41-0.17-2.15-1.03-4.6-4.16C7.03,9.8,6.73,9.34,6.47,8.88h1.54c0.12,0,0.24-0.07,0.29-0.19l1.37-3l2.02,6.34
		c0.04,0.13,0.17,0.22,0.3,0.22c0,0,0,0,0,0c0.14,0,0.26-0.09,0.31-0.22l1.49-4.59l1.22,2.9c0.05,0.12,0.16,0.19,0.28,0.2
		c0.12,0.01,0.24-0.06,0.3-0.17l0.77-1.49h1.17c-0.25,0.45-0.56,0.92-0.93,1.39C14.15,13.41,12.41,14.27,12,14.43z"/>
	<linearGradient id="SVGID_1_" gradientUnits="userSpaceOnUse" x1="11.4104" y1="-2.3223" x2="12.3525" y2="15.0387">
		<stop  offset="0" style="stop-color:#10BEF0"/>
		<stop  offset="1" style="stop-color:#10BEF0;stop-opacity:0"/>
	</linearGradient>
	<path class="st2" d="M17.11,10.67c0.47-0.61,0.85-1.2,1.16-1.78h1.15V8.24h-0.85c0.93-2.14,0.78-4,0.2-5.2
		c-0.65-1.32-1.86-2.05-3.35-1.97c-2,0.11-2.97,1.66-3.41,2.73c-0.44-1.07-1.41-2.61-3.41-2.73C7.11,0.99,5.88,1.72,5.24,3.04
		c-0.59,1.2-0.73,3.06,0.2,5.2H4.59v0.64h1.15c0.3,0.58,0.68,1.18,1.16,1.78c2.95,3.78,4.93,4.39,5.02,4.42
		c0.03,0.01,0.06,0.01,0.09,0.01s0.06,0,0.09-0.01C12.17,15.06,14.16,14.44,17.11,10.67z M5.81,3.32c0.51-1.04,1.41-1.61,2.55-1.61
		c0.06,0,0.13,0,0.19,0.01c2.55,0.14,3.11,3.09,3.13,3.21c0.03,0.15,0.16,0.26,0.31,0.26l0,0c0.16,0,0.29-0.11,0.31-0.26
		c0.01-0.03,0.57-3.07,3.13-3.21c1.24-0.07,2.21,0.51,2.74,1.61c0.52,1.06,0.63,2.85-0.33,4.92h-1.69c-0.12,0-0.23,0.07-0.28,0.17
		l-0.54,1.05l-1.29-3.07c-0.05-0.12-0.18-0.2-0.31-0.2c-0.13,0.01-0.25,0.09-0.29,0.22L12,10.9l-1.96-6.18
		C10,4.59,9.89,4.5,9.75,4.49C9.62,4.48,9.5,4.56,9.44,4.68L7.81,8.24H6.14C5.18,6.17,5.3,4.38,5.81,3.32z M12,14.43
		c-0.41-0.17-2.15-1.03-4.6-4.16C7.03,9.8,6.73,9.34,6.48,8.88h1.54c0.12,0,0.24-0.07,0.29-0.19l1.37-3l2.02,6.34
		c0.04,0.13,0.17,0.22,0.3,0.22c0,0,0,0,0,0c0.14,0,0.26-0.09,0.31-0.22l1.49-4.59l1.22,2.9c0.05,0.12,0.16,0.19,0.28,0.2
		c0.12,0.01,0.24-0.06,0.3-0.17l0.77-1.49h1.17c-0.25,0.45-0.56,0.92-0.93,1.39C14.15,13.41,12.41,14.27,12,14.43z"/>
	<path class="st0" d="M6.35,14.52c-0.4-0.2-0.8-0.04-0.96,0.36C5.24,15.3,5.35,16.02,6,16.61c0.1,0.09,0.2,0.18,0.29,0.27
		c-0.53-0.26-0.99-0.49-1.12-0.6c-0.15-0.17-0.21-1.18-0.25-1.78c-0.03-0.45-0.05-0.91-0.11-1.29c-0.1-0.72-0.53-0.98-0.89-0.98
		c-0.5,0-0.91,0.46-0.91,1.03c0,0.2-0.01,0.58-0.02,1.03C2.93,16,2.9,17.47,3.02,17.93c0.13,0.52,1.13,1.23,3.06,2.43
		c0.29,0.18,0.53,0.33,0.67,0.43c0.57,0.39,0.87,0.92,1.06,1.89c0.03,0.15,0.16,0.26,0.31,0.26h3.16c0.09,0,0.17-0.04,0.23-0.1
		c0.06-0.06,0.09-0.15,0.09-0.23c0-0.13-0.09-3.21-0.66-4.28C10.34,17.21,7.02,14.85,6.35,14.52z M8.38,22.29
		c-0.24-0.98-0.62-1.58-1.27-2.03c-0.14-0.1-0.39-0.25-0.69-0.44c-0.72-0.45-2.65-1.66-2.78-2.04c-0.1-0.42-0.05-2.33-0.01-3.48
		c0.01-0.46,0.02-0.84,0.02-1.05c0-0.25,0.16-0.39,0.27-0.39c0.12,0,0.22,0.17,0.26,0.43c0.05,0.35,0.08,0.8,0.1,1.24
		c0.07,1.21,0.13,1.96,0.48,2.24c0.41,0.33,2.49,1.26,2.72,1.37c0.13,0.06,0.29,0.02,0.38-0.09c0.09-0.12,0.09-0.28,0-0.39
		c-0.02-0.03-0.57-0.73-1.44-1.52c-0.34-0.31-0.46-0.66-0.45-0.88c0-0.12,0.04-0.17,0.03-0.18c0,0,0.02,0,0.06,0.02
		c0.68,0.34,3.82,2.63,4.31,3.53c0.37,0.69,0.53,2.65,0.57,3.66L8.38,22.29L8.38,22.29z"/>
	<path class="st0" d="M21.02,14.28C21.01,13.83,21,13.46,21,13.25c0-0.57-0.41-1.03-0.91-1.03c-0.36,0-0.79,0.26-0.89,0.98
		c-0.05,0.38-0.08,0.84-0.11,1.29c-0.04,0.6-0.09,1.62-0.25,1.78c-0.13,0.11-0.59,0.35-1.13,0.6c0.09-0.09,0.19-0.18,0.29-0.27
		c0.64-0.58,0.76-1.31,0.6-1.73c-0.15-0.39-0.56-0.55-0.96-0.36c-0.66,0.33-3.99,2.69-4.59,3.8c-0.58,1.07-0.66,4.15-0.66,4.28
		c0,0.09,0.03,0.17,0.09,0.23s0.14,0.1,0.23,0.1h3.16c0.15,0,0.28-0.11,0.31-0.26c0.2-0.97,0.5-1.5,1.06-1.89
		c0.14-0.1,0.38-0.25,0.67-0.43c1.93-1.2,2.93-1.91,3.06-2.43C21.1,17.47,21.07,16,21.02,14.28z M20.36,17.77
		c-0.13,0.39-2.05,1.59-2.78,2.04c-0.3,0.19-0.55,0.34-0.69,0.44c-0.66,0.45-1.03,1.05-1.27,2.03h-2.57
		c0.04-1.02,0.2-2.97,0.57-3.66c0.49-0.9,3.63-3.19,4.31-3.53c0.03-0.02,0.05-0.02,0.06-0.02c0.01,0.01,0.04,0.07,0.04,0.18
		c0,0.22-0.12,0.57-0.45,0.88c-0.87,0.79-1.42,1.49-1.44,1.52c-0.09,0.12-0.09,0.28,0,0.39c0.09,0.12,0.25,0.15,0.38,0.09
		c0.24-0.1,2.31-1.04,2.72-1.37c0.35-0.28,0.41-1.04,0.48-2.24c0.03-0.44,0.05-0.89,0.1-1.24c0.04-0.26,0.14-0.43,0.26-0.43
		c0.11,0,0.27,0.14,0.27,0.39c0,0.21,0.01,0.59,0.02,1.05C20.41,15.44,20.47,17.36,20.36,17.77z"/>
</g>
</svg>
