<?xml version="1.0" encoding="utf-8"?>
<!-- Generator: Adobe Illustrator 25.2.1, SVG Export Plug-In . SVG Version: 6.00 Build 0)  -->
<svg version="1.1" id="Layer_1" xmlns="http://www.w3.org/2000/svg" xmlns:xlink="http://www.w3.org/1999/xlink" x="0px" y="0px"
	 viewBox="0 0 24 24" style="enable-background:new 0 0 24 24;" xml:space="preserve">
<style type="text/css">
	.st0{fill:#002680;}
	.st1{opacity:0.65;}
	.st2{fill:url(#SVGID_1_);}
	.st3{fill:#FFFFFF;}
	.st4{fill:url(#SVGID_2_);}
	.st5{fill:url(#SVGID_3_);}
	.st6{fill:url(#SVGID_4_);}
	.st7{fill:url(#SVGID_5_);}
	.st8{fill:url(#SVGID_6_);}
	.st9{fill:url(#SVGID_7_);}
	.st10{fill:url(#SVGID_8_);}
	.st11{fill:url(#SVGID_9_);}
	.st12{fill:url(#SVGID_10_);}
	.st13{fill:url(#SVGID_11_);}
	.st14{fill:url(#SVGID_12_);}
	.st15{fill:url(#SVGID_13_);}
	.st16{fill:url(#SVGID_14_);}
	.st17{fill:url(#SVGID_15_);}
	.st18{fill:url(#SVGID_16_);}
	.st19{fill:url(#SVGID_17_);}
	.st20{fill:url(#SVGID_18_);}
	.st21{fill:url(#SVGID_19_);}
	.st22{fill:url(#SVGID_20_);}
	.st23{fill:url(#SVGID_21_);}
	.st24{fill:url(#SVGID_22_);}
	.st25{fill:url(#SVGID_23_);}
	.st26{fill:url(#SVGID_24_);}
	.st27{fill:url(#SVGID_25_);}
	.st28{fill:url(#SVGID_26_);}
	.st29{fill:url(#SVGID_27_);}
	.st30{fill:url(#SVGID_28_);}
	.st31{fill:url(#SVGID_29_);}
	.st32{fill:url(#SVGID_30_);}
	.st33{fill:url(#SVGID_31_);}
	.st34{fill:url(#SVGID_32_);}
	.st35{fill:url(#SVGID_33_);}
	.st36{fill:url(#SVGID_34_);}
	.st37{fill:url(#SVGID_35_);}
	.st38{fill:url(#SVGID_36_);}
	.st39{fill:url(#SVGID_37_);}
	.st40{fill:url(#SVGID_38_);}
	.st41{fill:url(#SVGID_39_);}
	.st42{fill:url(#SVGID_40_);}
	.st43{fill:url(#SVGID_41_);}
	.st44{fill:url(#SVGID_42_);}
	.st45{fill:url(#SVGID_43_);}
	.st46{fill:url(#SVGID_44_);}
	.st47{fill:url(#SVGID_45_);}
	.st48{fill:url(#SVGID_46_);}
	.st49{fill:url(#SVGID_47_);}
	.st50{fill:url(#SVGID_48_);}
	.st51{fill:url(#SVGID_49_);}
	.st52{fill:url(#SVGID_50_);}
	.st53{fill:url(#SVGID_51_);}
	.st54{fill:url(#SVGID_52_);}
	.st55{fill:url(#SVGID_53_);}
	.st56{fill:url(#SVGID_54_);}
	.st57{fill:url(#SVGID_55_);}
	.st58{fill:url(#SVGID_56_);}
	.st59{fill:url(#SVGID_57_);}
	.st60{fill:url(#SVGID_58_);}
	.st61{fill:url(#SVGID_59_);}
	.st62{fill:url(#SVGID_60_);}
	.st63{fill:url(#SVGID_61_);}
	.st64{fill:url(#SVGID_62_);}
	.st65{fill:url(#SVGID_63_);}
	.st66{fill:url(#SVGID_64_);}
	.st67{fill:url(#SVGID_65_);}
	.st68{fill:url(#SVGID_66_);}
	.st69{fill:url(#SVGID_67_);}
	.st70{fill:url(#SVGID_68_);}
	.st71{fill:url(#SVGID_69_);}
	.st72{fill:url(#SVGID_70_);}
	.st73{fill:url(#SVGID_71_);}
	.st74{fill:url(#SVGID_72_);}
	.st75{fill:url(#SVGID_73_);}
	.st76{fill:url(#SVGID_74_);}
	.st77{fill:url(#SVGID_75_);}
	.st78{fill:url(#SVGID_76_);}
	.st79{fill:url(#SVGID_77_);}
	.st80{fill:url(#SVGID_78_);}
	.st81{fill:url(#SVGID_79_);}
	.st82{fill:url(#SVGID_80_);}
	.st83{fill:url(#SVGID_81_);}
	.st84{fill:url(#SVGID_82_);}
	.st85{fill:url(#SVGID_83_);}
	.st86{fill:url(#SVGID_84_);}
	.st87{fill:url(#SVGID_85_);}
	.st88{fill:url(#SVGID_86_);}
	.st89{fill:url(#SVGID_87_);}
	.st90{fill:url(#SVGID_88_);}
	.st91{fill:url(#SVGID_89_);}
	.st92{fill:url(#SVGID_90_);}
	.st93{fill:url(#SVGID_91_);}
	.st94{fill:url(#SVGID_92_);}
	.st95{fill:url(#SVGID_93_);}
	.st96{fill:url(#SVGID_94_);}
	.st97{fill:url(#SVGID_95_);}
	.st98{fill:url(#SVGID_96_);}
	.st99{fill:url(#SVGID_97_);}
	.st100{fill:url(#SVGID_98_);}
	.st101{fill:url(#SVGID_99_);}
	.st102{fill:url(#SVGID_100_);}
	.st103{fill:url(#SVGID_101_);}
	.st104{fill:url(#SVGID_102_);}
	.st105{fill:url(#SVGID_103_);}
	.st106{fill:url(#SVGID_104_);}
	.st107{fill:url(#SVGID_105_);}
	.st108{fill:url(#SVGID_106_);}
	.st109{fill:url(#SVGID_107_);}
	.st110{fill:url(#SVGID_108_);}
	.st111{fill:url(#SVGID_109_);}
	.st112{fill:url(#SVGID_110_);}
	.st113{fill:url(#SVGID_111_);}
	.st114{fill:url(#SVGID_112_);}
	.st115{fill:url(#SVGID_113_);}
	.st116{fill:url(#SVGID_114_);}
	.st117{fill:url(#SVGID_115_);}
	.st118{fill:url(#SVGID_116_);}
	.st119{fill:url(#SVGID_117_);}
	.st120{fill:url(#SVGID_118_);}
	.st121{fill:url(#SVGID_119_);}
	.st122{fill:url(#SVGID_120_);}
	.st123{fill:url(#SVGID_121_);}
	.st124{fill:url(#SVGID_122_);}
	.st125{fill:url(#SVGID_123_);}
	.st126{fill:url(#SVGID_124_);}
	.st127{fill:url(#SVGID_125_);}
	.st128{fill:url(#SVGID_126_);}
	.st129{fill:url(#SVGID_127_);}
	.st130{fill:url(#SVGID_128_);}
	.st131{fill:url(#SVGID_129_);}
	.st132{fill:url(#SVGID_130_);}
	.st133{fill:url(#SVGID_131_);}
	.st134{fill:url(#SVGID_132_);}
	.st135{fill:url(#SVGID_133_);}
	.st136{fill:url(#SVGID_134_);}
	.st137{fill:url(#SVGID_135_);}
	.st138{fill:url(#SVGID_136_);}
	.st139{fill:url(#SVGID_137_);}
	.st140{fill:url(#SVGID_138_);}
	.st141{fill:url(#SVGID_139_);}
	.st142{fill:url(#SVGID_140_);}
	.st143{fill:url(#SVGID_141_);}
	.st144{fill:url(#SVGID_142_);}
	.st145{fill:url(#SVGID_143_);}
	.st146{fill:url(#SVGID_144_);}
	.st147{fill:url(#SVGID_145_);}
	.st148{fill:url(#SVGID_146_);}
	.st149{fill:url(#SVGID_147_);}
	.st150{fill:url(#SVGID_148_);}
	.st151{fill:url(#SVGID_149_);}
	.st152{fill:url(#SVGID_150_);}
	.st153{fill:url(#SVGID_151_);}
	.st154{fill:url(#SVGID_152_);}
	.st155{fill:url(#SVGID_153_);}
	.st156{fill:url(#SVGID_154_);}
	.st157{fill:url(#SVGID_155_);}
	.st158{fill:url(#SVGID_156_);}
	.st159{fill:url(#SVGID_157_);}
	.st160{fill:url(#SVGID_158_);}
	.st161{fill:url(#SVGID_159_);}
	.st162{fill:url(#SVGID_160_);}
	.st163{fill:url(#SVGID_161_);}
	.st164{fill:url(#SVGID_162_);}
	.st165{fill:url(#SVGID_163_);}
	.st166{fill:url(#SVGID_164_);}
	.st167{fill:url(#SVGID_165_);}
	.st168{fill:url(#SVGID_166_);}
	.st169{fill:url(#SVGID_167_);}
	.st170{fill:url(#SVGID_168_);}
	.st171{fill:url(#SVGID_169_);}
	.st172{fill:url(#SVGID_170_);}
	.st173{fill:url(#SVGID_171_);}
	.st174{fill:url(#SVGID_172_);}
	.st175{fill:url(#SVGID_173_);}
	.st176{fill:url(#SVGID_174_);}
	.st177{fill:url(#SVGID_175_);}
	.st178{fill:url(#SVGID_176_);}
	.st179{fill:url(#SVGID_177_);}
	.st180{fill:url(#SVGID_178_);}
	.st181{fill:url(#SVGID_179_);}
	.st182{fill:url(#SVGID_180_);}
	.st183{fill:url(#SVGID_181_);}
	.st184{fill:url(#SVGID_182_);}
	.st185{fill:url(#SVGID_183_);}
	.st186{fill:url(#SVGID_184_);}
	.st187{fill:url(#SVGID_185_);}
	.st188{fill:url(#SVGID_186_);}
	.st189{fill:url(#SVGID_187_);}
	.st190{fill:url(#SVGID_188_);}
	.st191{fill:url(#SVGID_189_);}
	.st192{fill:url(#SVGID_190_);}
	.st193{fill:url(#SVGID_191_);}
	.st194{fill:url(#SVGID_192_);}
	.st195{fill:url(#SVGID_193_);}
	.st196{fill:url(#SVGID_194_);}
	.st197{fill:url(#SVGID_195_);}
	.st198{fill:url(#SVGID_196_);}
	.st199{fill:url(#SVGID_197_);}
	.st200{fill:url(#SVGID_198_);}
	.st201{fill:url(#SVGID_199_);}
	.st202{fill:url(#SVGID_200_);}
	.st203{fill:url(#SVGID_201_);}
	.st204{fill:url(#SVGID_202_);}
	.st205{fill:url(#SVGID_203_);}
	.st206{fill:url(#SVGID_204_);}
	.st207{fill:url(#SVGID_205_);}
	.st208{fill:url(#SVGID_206_);}
	.st209{fill:url(#SVGID_207_);}
	.st210{fill:url(#SVGID_208_);}
	.st211{fill:url(#SVGID_209_);}
	.st212{fill:url(#SVGID_210_);}
	.st213{fill:url(#SVGID_211_);}
	.st214{fill:url(#SVGID_212_);}
	.st215{fill:url(#SVGID_213_);}
	.st216{fill:url(#SVGID_214_);}
	.st217{fill:url(#SVGID_215_);}
	.st218{fill:url(#SVGID_216_);}
	.st219{fill:url(#SVGID_217_);}
	.st220{fill:url(#SVGID_218_);}
	.st221{fill:url(#SVGID_219_);}
	.st222{fill:url(#SVGID_220_);}
	.st223{fill:url(#SVGID_221_);}
	.st224{fill:url(#SVGID_222_);}
	.st225{fill:url(#SVGID_223_);}
	.st226{fill:url(#SVGID_224_);}
	.st227{fill:url(#SVGID_225_);}
	.st228{fill:url(#SVGID_226_);}
	.st229{fill:url(#SVGID_227_);}
	.st230{fill:url(#SVGID_228_);}
	.st231{fill:url(#SVGID_229_);}
	.st232{fill:url(#SVGID_230_);}
	.st233{fill:url(#SVGID_231_);}
	.st234{fill:url(#SVGID_232_);}
	.st235{fill:url(#SVGID_233_);}
	.st236{fill:url(#SVGID_234_);}
	.st237{fill:url(#SVGID_235_);}
	.st238{fill:url(#SVGID_236_);}
	.st239{fill:url(#SVGID_237_);}
	.st240{fill:url(#SVGID_238_);}
	.st241{fill:url(#SVGID_239_);}
	.st242{fill:url(#SVGID_240_);}
	.st243{fill:url(#SVGID_241_);}
	.st244{fill:url(#SVGID_242_);}
	.st245{fill:url(#SVGID_243_);}
	.st246{fill:url(#SVGID_244_);}
	.st247{fill:url(#SVGID_245_);}
	.st248{fill:url(#SVGID_246_);}
	.st249{fill:url(#SVGID_247_);}
	.st250{fill-rule:evenodd;clip-rule:evenodd;fill:#002680;}
	.st251{fill-rule:evenodd;clip-rule:evenodd;fill:url(#SVGID_248_);}
	.st252{fill-rule:evenodd;clip-rule:evenodd;fill:url(#SVGID_249_);}
	.st253{fill-rule:evenodd;clip-rule:evenodd;fill:url(#SVGID_250_);}
	.st254{fill-rule:evenodd;clip-rule:evenodd;fill:url(#SVGID_251_);}
	.st255{fill-rule:evenodd;clip-rule:evenodd;fill:url(#SVGID_252_);}
	.st256{fill-rule:evenodd;clip-rule:evenodd;fill:url(#SVGID_253_);}
	.st257{fill-rule:evenodd;clip-rule:evenodd;fill:url(#SVGID_254_);}
	.st258{fill-rule:evenodd;clip-rule:evenodd;fill:url(#SVGID_255_);}
	.st259{fill-rule:evenodd;clip-rule:evenodd;fill:url(#SVGID_256_);}
	.st260{fill-rule:evenodd;clip-rule:evenodd;fill:#FFFFFF;}
	.st261{fill:url(#SVGID_257_);}
	.st262{fill:url(#SVGID_258_);}
	.st263{fill:url(#SVGID_259_);}
	.st264{fill:url(#SVGID_260_);}
	.st265{fill:url(#SVGID_261_);}
	.st266{fill:url(#SVGID_262_);}
	.st267{fill:url(#SVGID_263_);}
	.st268{fill:url(#SVGID_264_);}
	.st269{fill:url(#SVGID_265_);}
	.st270{fill:url(#SVGID_266_);}
	.st271{fill:url(#SVGID_267_);}
	.st272{fill:url(#SVGID_268_);}
	.st273{fill:url(#SVGID_269_);}
	.st274{fill:url(#SVGID_270_);}
	.st275{fill:url(#SVGID_271_);}
	.st276{fill:url(#SVGID_272_);}
	.st277{fill:url(#SVGID_273_);}
	.st278{fill:url(#SVGID_274_);}
	.st279{fill:url(#SVGID_275_);}
	.st280{fill:url(#SVGID_276_);}
	.st281{fill:url(#SVGID_277_);}
	.st282{fill:url(#SVGID_278_);}
	.st283{fill:url(#SVGID_279_);}
	.st284{fill:url(#SVGID_280_);}
	.st285{fill:url(#SVGID_281_);}
	.st286{fill:url(#SVGID_282_);}
	.st287{fill:url(#SVGID_283_);}
	.st288{fill:url(#SVGID_284_);}
	.st289{fill:url(#SVGID_285_);}
	.st290{fill:url(#SVGID_286_);}
	.st291{fill:url(#SVGID_287_);}
	.st292{fill:url(#SVGID_288_);}
	.st293{fill:url(#SVGID_289_);}
	.st294{fill:url(#SVGID_290_);}
	.st295{fill:url(#SVGID_291_);}
	.st296{fill:url(#SVGID_292_);}
	.st297{fill:url(#SVGID_293_);}
	.st298{fill:url(#SVGID_294_);}
	.st299{fill:url(#SVGID_295_);}
	.st300{fill:url(#SVGID_296_);}
	.st301{fill:url(#SVGID_297_);}
	.st302{fill:url(#SVGID_298_);}
	.st303{fill:url(#SVGID_299_);}
	.st304{fill:url(#SVGID_300_);}
	.st305{fill:url(#SVGID_301_);}
	.st306{fill:url(#SVGID_302_);}
	.st307{fill:url(#SVGID_303_);}
	.st308{fill:url(#SVGID_304_);}
	.st309{fill:url(#SVGID_305_);}
	.st310{fill:url(#SVGID_306_);}
	.st311{fill:url(#SVGID_307_);}
	.st312{fill:url(#SVGID_308_);}
	.st313{fill:url(#SVGID_309_);}
	.st314{fill:url(#SVGID_310_);}
	.st315{fill:url(#SVGID_311_);}
	.st316{fill:url(#SVGID_312_);}
	.st317{fill:url(#SVGID_313_);}
	.st318{fill:url(#SVGID_314_);}
	.st319{fill:url(#SVGID_315_);}
	.st320{fill:url(#SVGID_316_);}
	.st321{fill:url(#SVGID_317_);}
	.st322{fill:url(#SVGID_318_);}
	.st323{fill:url(#SVGID_319_);}
	.st324{fill:url(#SVGID_320_);}
	.st325{fill:url(#SVGID_321_);}
	.st326{fill:url(#SVGID_322_);}
	.st327{fill:url(#SVGID_323_);}
	.st328{fill:url(#SVGID_324_);}
	.st329{fill:url(#SVGID_325_);}
	.st330{fill:url(#SVGID_326_);}
	.st331{fill:url(#SVGID_327_);}
	.st332{fill:url(#SVGID_328_);}
	.st333{fill:url(#SVGID_329_);}
	.st334{fill:url(#SVGID_330_);}
	.st335{fill:url(#SVGID_331_);}
	.st336{fill:url(#SVGID_332_);}
	.st337{fill:url(#SVGID_333_);}
	.st338{fill:url(#SVGID_334_);}
	.st339{fill:url(#SVGID_335_);}
	.st340{fill:url(#SVGID_336_);}
	.st341{fill:url(#SVGID_337_);}
	.st342{fill:url(#SVGID_338_);}
	.st343{fill:url(#SVGID_339_);}
	.st344{fill:url(#SVGID_340_);}
	.st345{fill:url(#SVGID_341_);}
	.st346{fill:url(#SVGID_342_);}
	.st347{fill-rule:evenodd;clip-rule:evenodd;}
	.st348{fill:none;}
	.st349{fill-rule:evenodd;clip-rule:evenodd;fill:url(#SVGID_343_);}
	.st350{fill:url(#SVGID_344_);}
	.st351{fill:url(#SVGID_345_);}
	.st352{fill:url(#SVGID_346_);}
	.st353{fill:url(#SVGID_347_);}
	.st354{fill-rule:evenodd;clip-rule:evenodd;fill:none;stroke:#FFFFFF;stroke-width:0.25;stroke-miterlimit:10;}
	.st355{fill:url(#SVGID_348_);}
	.st356{fill:url(#SVGID_349_);}
	.st357{fill:url(#SVGID_350_);}
	.st358{fill:url(#SVGID_351_);}
	.st359{fill:url(#SVGID_352_);}
	.st360{fill:url(#SVGID_353_);}
	.st361{fill:url(#SVGID_354_);}
	.st362{fill:url(#SVGID_355_);}
	.st363{fill:url(#SVGID_356_);}
	.st364{fill:url(#SVGID_357_);}
	.st365{fill:url(#SVGID_358_);}
	.st366{fill:url(#SVGID_359_);}
	.st367{fill:url(#SVGID_360_);}
	.st368{fill:url(#SVGID_361_);}
	.st369{fill:url(#SVGID_362_);}
	.st370{fill:url(#SVGID_363_);}
	.st371{fill:url(#SVGID_364_);}
	.st372{fill:url(#SVGID_365_);}
	.st373{fill:url(#SVGID_366_);}
	.st374{fill:url(#SVGID_367_);}
	.st375{fill:url(#SVGID_368_);}
	.st376{fill:url(#SVGID_369_);}
	.st377{fill:url(#SVGID_370_);}
	.st378{fill:url(#SVGID_371_);}
	.st379{fill:url(#SVGID_372_);}
	.st380{fill:url(#SVGID_373_);}
	.st381{fill:url(#SVGID_374_);}
	.st382{fill:url(#SVGID_375_);}
	.st383{fill:url(#SVGID_376_);}
	.st384{fill:url(#SVGID_377_);}
	.st385{fill:url(#SVGID_378_);}
	.st386{fill:url(#SVGID_379_);}
	.st387{fill:url(#SVGID_380_);}
	.st388{fill:url(#SVGID_381_);}
	.st389{fill:url(#SVGID_382_);}
	.st390{fill:url(#SVGID_383_);}
	.st391{fill:url(#SVGID_384_);}
	.st392{fill:url(#SVGID_385_);}
	.st393{fill:url(#SVGID_386_);}
	.st394{fill:url(#SVGID_387_);}
	.st395{fill:url(#SVGID_388_);}
	.st396{fill:url(#SVGID_389_);}
	.st397{fill:url(#SVGID_390_);}
	.st398{fill:url(#SVGID_391_);}
	.st399{fill:url(#SVGID_392_);}
	.st400{fill:url(#SVGID_393_);}
	.st401{fill:url(#SVGID_394_);}
	.st402{fill:url(#SVGID_395_);}
	.st403{fill:url(#SVGID_396_);}
	.st404{fill:url(#SVGID_397_);}
	.st405{fill:url(#SVGID_398_);}
	.st406{fill:url(#SVGID_399_);}
	.st407{fill:url(#SVGID_400_);}
	.st408{fill:url(#SVGID_401_);}
	.st409{fill:url(#SVGID_402_);}
	.st410{fill:url(#SVGID_403_);}
	.st411{fill:url(#SVGID_404_);}
	.st412{fill:url(#SVGID_405_);}
	.st413{fill:url(#SVGID_406_);}
	.st414{fill:url(#SVGID_407_);}
	.st415{fill:url(#SVGID_408_);}
	.st416{fill:url(#SVGID_409_);}
	.st417{fill:url(#SVGID_410_);}
	.st418{fill:url(#SVGID_411_);}
	.st419{fill:url(#SVGID_412_);}
	.st420{fill:url(#SVGID_413_);}
	.st421{fill:url(#SVGID_414_);}
	.st422{fill:url(#SVGID_415_);}
	.st423{fill:url(#SVGID_416_);}
	.st424{fill:url(#SVGID_417_);}
	.st425{fill:url(#SVGID_418_);}
	.st426{fill:url(#SVGID_419_);}
	.st427{fill:url(#SVGID_420_);}
	.st428{fill:url(#SVGID_421_);}
	.st429{fill:url(#SVGID_422_);}
	.st430{fill:url(#SVGID_423_);}
	.st431{fill:url(#SVGID_424_);}
	.st432{fill:url(#SVGID_425_);}
	.st433{fill:url(#SVGID_426_);}
	.st434{fill:url(#SVGID_427_);}
	.st435{fill:url(#SVGID_428_);}
	.st436{fill:url(#SVGID_429_);}
	.st437{fill:url(#SVGID_430_);}
	.st438{fill:url(#SVGID_431_);}
	.st439{fill:url(#SVGID_432_);}
	.st440{fill:url(#SVGID_433_);}
	.st441{fill:url(#SVGID_434_);}
	.st442{fill:url(#SVGID_435_);}
	.st443{fill:url(#SVGID_436_);}
	.st444{fill:url(#SVGID_437_);}
	.st445{fill:url(#SVGID_438_);}
	.st446{fill:url(#SVGID_439_);}
	.st447{fill:url(#SVGID_440_);}
	.st448{fill:url(#SVGID_441_);}
	.st449{fill:url(#SVGID_442_);}
	.st450{fill:url(#SVGID_443_);}
	.st451{fill:url(#SVGID_444_);}
	.st452{fill:url(#SVGID_445_);}
	.st453{fill:url(#SVGID_446_);}
	.st454{fill:url(#SVGID_447_);}
	.st455{fill:url(#SVGID_448_);}
	.st456{fill:url(#SVGID_449_);}
	.st457{fill:url(#SVGID_450_);}
	.st458{fill:url(#SVGID_451_);}
	.st459{fill:url(#SVGID_452_);}
	.st460{fill:url(#SVGID_453_);}
	.st461{fill:url(#SVGID_454_);}
	.st462{fill:url(#SVGID_455_);}
	.st463{fill:url(#SVGID_456_);}
	.st464{fill:url(#SVGID_457_);}
	.st465{fill:url(#SVGID_458_);}
	.st466{fill:url(#SVGID_459_);}
	.st467{fill:url(#SVGID_460_);}
	.st468{fill:url(#SVGID_461_);}
	.st469{fill:url(#SVGID_462_);}
	.st470{fill:url(#SVGID_463_);}
	.st471{fill:url(#SVGID_464_);}
	.st472{fill:url(#SVGID_465_);}
	.st473{fill:url(#SVGID_466_);}
	.st474{fill:url(#SVGID_467_);}
	.st475{fill:url(#SVGID_468_);}
	.st476{fill:url(#SVGID_469_);}
	.st477{fill:url(#SVGID_470_);}
	.st478{fill:url(#SVGID_471_);}
	.st479{fill:url(#SVGID_472_);}
	.st480{fill:url(#SVGID_473_);}
	.st481{fill:url(#SVGID_474_);}
	.st482{fill:url(#SVGID_475_);}
	.st483{fill:url(#SVGID_476_);}
	.st484{fill:url(#SVGID_477_);}
	.st485{fill:url(#SVGID_478_);}
	.st486{fill:url(#SVGID_479_);}
	.st487{fill:url(#SVGID_480_);}
	.st488{fill:url(#SVGID_481_);}
	.st489{fill:url(#SVGID_482_);}
</style>
<g>
	<path class="st0" d="M21.97,6.45h-3.61V2.92c-0.01-0.15-0.13-0.27-0.28-0.26c-0.14,0.01-0.26,0.12-0.26,0.26v3.53h-1.77V4.22
		c0-0.1-0.05-0.19-0.14-0.24l-3.78-2.06c-0.08-0.04-0.18-0.04-0.26,0L8.05,3.98C7.96,4.03,7.91,4.12,7.91,4.22v3.24H2.03
		c-0.15,0-0.27,0.12-0.27,0.27l0,0v1.19c0,0.15,0.12,0.27,0.27,0.27c0,0,0,0,0,0H2.5v12.63c-0.01,0.15,0.11,0.28,0.26,0.28
		c0.15,0.01,0.28-0.11,0.28-0.26c0-0.01,0-0.01,0-0.02v-2.77h1.49c0.15,0.01,0.28-0.11,0.28-0.26c0.01-0.15-0.11-0.28-0.26-0.28
		c-0.01,0-0.01,0-0.02,0H3.04v-1.41h1.49c0.15,0,0.27-0.12,0.27-0.27s-0.12-0.27-0.27-0.27H3.04v-1.41h1.49
		c0.15,0.01,0.28-0.11,0.28-0.26c0.01-0.15-0.11-0.28-0.26-0.28c-0.01,0-0.01,0-0.02,0H3.04V13.2h1.49
		c0.15,0.01,0.28-0.11,0.28-0.26c0.01-0.15-0.11-0.28-0.26-0.28c-0.01,0-0.01,0-0.02,0H3.04v-1.41h1.49
		c0.15,0.01,0.28-0.11,0.28-0.26S4.7,10.71,4.55,10.7c-0.01,0-0.01,0-0.02,0H3.04V9.2h2.7v10.47c0,0.15,0.12,0.27,0.27,0.27
		c0,0,0,0,0,0h1.56c0.15,0,0.27-0.12,0.27-0.27l0,0V9.2h2.7v1.5H9.06c-0.15-0.01-0.28,0.11-0.28,0.26
		c-0.01,0.15,0.11,0.28,0.26,0.28c0.01,0,0.01,0,0.02,0h1.49v1.41H9.06c-0.15-0.01-0.28,0.11-0.28,0.26
		c-0.01,0.15,0.11,0.28,0.26,0.28c0.01,0,0.01,0,0.02,0h1.49v1.41H9.06c-0.15-0.01-0.28,0.11-0.28,0.26
		c-0.01,0.15,0.11,0.28,0.26,0.28c0.01,0,0.01,0,0.02,0h1.49v1.41H9.06c-0.15,0-0.27,0.12-0.27,0.27s0.12,0.27,0.27,0.27h1.49v1.41
		H9.06c-0.15-0.01-0.28,0.11-0.28,0.26s0.11,0.28,0.26,0.28c0.01,0,0.01,0,0.02,0h1.49v2.77c-0.01,0.15,0.11,0.28,0.26,0.28
		s0.28-0.11,0.28-0.26c0-0.01,0-0.01,0-0.02V19.9h1.71v1.93c-0.01,0.15,0.11,0.28,0.26,0.28c0.15,0.01,0.28-0.11,0.28-0.26
		c0-0.01,0-0.01,0-0.02V19.9h1.77v1.93c-0.01,0.15,0.11,0.28,0.26,0.28c0.15,0.01,0.28-0.11,0.28-0.26c0-0.01,0-0.01,0-0.02V19.9
		h1.71v1.93c-0.01,0.15,0.11,0.28,0.26,0.28s0.28-0.11,0.28-0.26c0-0.01,0-0.01,0-0.02v-9.52c0-0.15-0.12-0.27-0.27-0.27l0,0h-1.6
		V6.99h5.65v0.82h-2.95c-0.15,0-0.27,0.12-0.27,0.27v0v1.13c0,0.15,0.12,0.27,0.27,0.27l0,0h2.95v1.12h-2.95
		c-0.15,0-0.27,0.12-0.27,0.27c0,0,0,0,0,0V12c0,0.15,0.12,0.27,0.27,0.27c0,0,0,0,0,0h2.95v1.12h-2.95c-0.15,0-0.27,0.12-0.27,0.27
		l0,0v1.13c0,0.15,0.12,0.27,0.27,0.27l0,0h2.95v1.12h-2.95c-0.15,0-0.27,0.12-0.27,0.27c0,0,0,0,0,0v1.13
		c0,0.15,0.12,0.27,0.27,0.27l0,0h2.95v1.12h-2.95c-0.15,0-0.27,0.12-0.27,0.27l0,0v1.13c0,0.15,0.12,0.27,0.27,0.27c0,0,0,0,0,0
		h2.95v1.19c0,0.15,0.12,0.27,0.27,0.27s0.27-0.12,0.27-0.27V6.72C22.24,6.57,22.12,6.45,21.97,6.45L21.97,6.45z M7.3,19.4H6.29V9.2
		H7.3L7.3,19.4z M2.77,8.65H2.3V8.01h8.98v0.65L2.77,8.65L2.77,8.65z M15.12,12.58v1.28h-1.77v-1.28H15.12z M11.1,14.41h1.71v1.29
		H11.1V14.41z M11.1,16.24h1.71v1.29H11.1V16.24z M13.35,16.24h1.77v1.29h-1.77L13.35,16.24z M15.67,16.24h1.71v1.29h-1.71
		L15.67,16.24z M17.37,15.69h-1.71v-1.29h1.71L17.37,15.69z M15.12,15.69h-1.77v-1.29h1.77L15.12,15.69z M12.8,13.86H11.1v-1.28
		h1.71L12.8,13.86z M11.1,19.35v-1.29h1.71v1.29L11.1,19.35z M13.35,19.35v-1.29h1.77v1.29L13.35,19.35z M15.67,19.35v-1.29h1.71
		v1.29L15.67,19.35z M17.37,13.86h-1.71v-1.28h1.71L17.37,13.86z M11.1,12.04V9.2h0.47c0.15,0,0.27-0.12,0.27-0.27V7.73
		c0-0.15-0.12-0.27-0.27-0.27l0,0H8.45V4.38L12,2.47l3.51,1.91v2.3c0,0.01,0,0.01,0,0.02s0,0.01,0,0.02v5.32H11.1z M19.02,8.93V8.35
		h2.68v0.58L19.02,8.93z M19.02,11.72v-0.58h2.68v0.58H19.02z M19.02,14.52v-0.58h2.68v0.58L19.02,14.52z M19.02,17.31v-0.58h2.68
		v0.58L19.02,17.31z M19.02,20.1v-0.59h2.68v0.58L19.02,20.1z"/>
	<path class="st0" d="M9.94,4.67c-0.15,0-0.27,0.12-0.27,0.27c0,0,0,0,0,0v0.8c0,0.15,0.12,0.27,0.27,0.27
		c0.15,0,0.27-0.12,0.27-0.27c0,0,0,0,0,0v-0.8C10.21,4.79,10.09,4.67,9.94,4.67z"/>
	<path class="st0" d="M12,4.67c-0.15,0-0.27,0.12-0.27,0.27c0,0,0,0,0,0v0.8c-0.01,0.15,0.11,0.28,0.26,0.28
		c0.15,0.01,0.28-0.11,0.28-0.26c0-0.01,0-0.01,0-0.02v-0.8C12.27,4.8,12.15,4.67,12,4.67C12,4.67,12,4.67,12,4.67z"/>
	<path class="st0" d="M14.05,4.67c-0.15,0-0.27,0.12-0.27,0.27c0,0,0,0,0,0v0.8c-0.01,0.15,0.11,0.28,0.26,0.28
		c0.15,0.01,0.28-0.11,0.28-0.26c0-0.01,0-0.01,0-0.02v-0.8C14.32,4.8,14.2,4.67,14.05,4.67C14.05,4.67,14.05,4.67,14.05,4.67z"/>
	<path class="st0" d="M12,9.36c-0.15,0-0.27,0.12-0.27,0.27l0,0v0.8c-0.01,0.15,0.11,0.28,0.26,0.28c0.15,0.01,0.28-0.11,0.28-0.26
		c0-0.01,0-0.01,0-0.02v-0.8C12.27,9.48,12.15,9.36,12,9.36C12,9.36,12,9.36,12,9.36z"/>
	<path class="st0" d="M14.05,9.36c-0.15,0-0.27,0.12-0.27,0.27l0,0v0.8c-0.01,0.15,0.11,0.28,0.26,0.28
		c0.15,0.01,0.28-0.11,0.28-0.26c0-0.01,0-0.01,0-0.02v-0.8C14.32,9.48,14.2,9.36,14.05,9.36C14.05,9.36,14.05,9.36,14.05,9.36z"/>
	<path class="st0" d="M14.05,7.06c-0.15,0-0.27,0.12-0.27,0.27v0v0.8c-0.01,0.15,0.11,0.28,0.26,0.28c0.15,0.01,0.28-0.11,0.28-0.26
		c0-0.01,0-0.01,0-0.02v-0.8C14.32,7.18,14.2,7.06,14.05,7.06C14.05,7.06,14.05,7.06,14.05,7.06z"/>
	<linearGradient id="SVGID_1_" gradientUnits="userSpaceOnUse" x1="9.6664" y1="5.3436" x2="10.2117" y2="5.3436">
		<stop  offset="0" style="stop-color:#10BEF0"/>
		<stop  offset="1" style="stop-color:#10BEF0;stop-opacity:0"/>
	</linearGradient>
	<path class="st2" d="M9.94,4.67c-0.15,0-0.27,0.12-0.27,0.27c0,0,0,0,0,0v0.8c0,0.15,0.12,0.27,0.27,0.27
		c0.15,0,0.27-0.12,0.27-0.27c0,0,0,0,0,0v-0.8C10.21,4.79,10.09,4.67,9.94,4.67z"/>
	<linearGradient id="SVGID_2_" gradientUnits="userSpaceOnUse" x1="11.7237" y1="5.349" x2="12.269" y2="5.349">
		<stop  offset="0" style="stop-color:#10BEF0"/>
		<stop  offset="1" style="stop-color:#10BEF0;stop-opacity:0"/>
	</linearGradient>
	<path class="st4" d="M12,4.67c-0.15,0-0.27,0.12-0.27,0.27c0,0,0,0,0,0v0.8c-0.01,0.15,0.11,0.28,0.26,0.28
		c0.15,0.01,0.28-0.11,0.28-0.26c0-0.01,0-0.01,0-0.02v-0.8C12.27,4.8,12.15,4.67,12,4.67C12,4.67,12,4.67,12,4.67z"/>
	<linearGradient id="SVGID_3_" gradientUnits="userSpaceOnUse" x1="13.7795" y1="5.349" x2="14.3248" y2="5.349">
		<stop  offset="0" style="stop-color:#10BEF0"/>
		<stop  offset="1" style="stop-color:#10BEF0;stop-opacity:0"/>
	</linearGradient>
	<path class="st5" d="M14.05,4.67c-0.15,0-0.27,0.12-0.27,0.27c0,0,0,0,0,0v0.8c-0.01,0.15,0.11,0.28,0.26,0.28
		c0.15,0.01,0.28-0.11,0.28-0.26c0-0.01,0-0.01,0-0.02v-0.8C14.32,4.8,14.2,4.67,14.05,4.67C14.05,4.67,14.05,4.67,14.05,4.67z"/>
	<linearGradient id="SVGID_4_" gradientUnits="userSpaceOnUse" x1="11.7237" y1="10.0363" x2="12.269" y2="10.0363">
		<stop  offset="0" style="stop-color:#10BEF0"/>
		<stop  offset="1" style="stop-color:#10BEF0;stop-opacity:0"/>
	</linearGradient>
	<path class="st6" d="M12,9.36c-0.15,0-0.27,0.12-0.27,0.27l0,0v0.8c-0.01,0.15,0.11,0.28,0.26,0.28c0.15,0.01,0.28-0.11,0.28-0.26
		c0-0.01,0-0.01,0-0.02v-0.8C12.27,9.48,12.15,9.36,12,9.36C12,9.36,12,9.36,12,9.36z"/>
	<linearGradient id="SVGID_5_" gradientUnits="userSpaceOnUse" x1="13.7795" y1="10.0363" x2="14.3248" y2="10.0363">
		<stop  offset="0" style="stop-color:#10BEF0"/>
		<stop  offset="1" style="stop-color:#10BEF0;stop-opacity:0"/>
	</linearGradient>
	<path class="st7" d="M14.05,9.36c-0.15,0-0.27,0.12-0.27,0.27l0,0v0.8c-0.01,0.15,0.11,0.28,0.26,0.28
		c0.15,0.01,0.28-0.11,0.28-0.26c0-0.01,0-0.01,0-0.02v-0.8C14.32,9.48,14.2,9.36,14.05,9.36C14.05,9.36,14.05,9.36,14.05,9.36z"/>
	<linearGradient id="SVGID_6_" gradientUnits="userSpaceOnUse" x1="13.7795" y1="7.7377" x2="14.3248" y2="7.7377">
		<stop  offset="0" style="stop-color:#10BEF0"/>
		<stop  offset="1" style="stop-color:#10BEF0;stop-opacity:0"/>
	</linearGradient>
	<path class="st8" d="M14.05,7.06c-0.15,0-0.27,0.12-0.27,0.27v0v0.8c-0.01,0.15,0.11,0.28,0.26,0.28c0.15,0.01,0.28-0.11,0.28-0.26
		c0-0.01,0-0.01,0-0.02v-0.8C14.32,7.18,14.2,7.06,14.05,7.06C14.05,7.06,14.05,7.06,14.05,7.06z"/>
</g>
<g>
	<linearGradient id="SVGID_7_" gradientUnits="userSpaceOnUse" x1="12.869" y1="25.678" x2="12.2424" y2="12.8046">
		<stop  offset="0" style="stop-color:#10BEF0"/>
		<stop  offset="1" style="stop-color:#10BEF0;stop-opacity:0"/>
	</linearGradient>
	<path class="st9" d="M21.97,6.45h-3.61V2.92c-0.01-0.15-0.13-0.27-0.28-0.26c-0.14,0.01-0.26,0.12-0.26,0.26v3.53h-1.77V4.22
		c0-0.1-0.05-0.19-0.14-0.24l-3.78-2.06c-0.08-0.04-0.18-0.04-0.26,0L8.05,3.98C7.96,4.03,7.91,4.12,7.91,4.22v3.24H2.03
		c-0.15,0-0.27,0.12-0.27,0.27l0,0v1.19c0,0.15,0.12,0.27,0.27,0.27c0,0,0,0,0,0H2.5v12.63c-0.01,0.15,0.11,0.28,0.26,0.28
		c0.15,0.01,0.28-0.11,0.28-0.26c0-0.01,0-0.01,0-0.02v-2.77h1.49c0.15,0.01,0.28-0.11,0.28-0.26c0.01-0.15-0.11-0.28-0.26-0.28
		c-0.01,0-0.01,0-0.02,0H3.04v-1.41h1.49c0.15,0,0.27-0.12,0.27-0.27s-0.12-0.27-0.27-0.27H3.04v-1.41h1.49
		c0.15,0.01,0.28-0.11,0.28-0.26c0.01-0.15-0.11-0.28-0.26-0.28c-0.01,0-0.01,0-0.02,0H3.04V13.2h1.49
		c0.15,0.01,0.28-0.11,0.28-0.26c0.01-0.15-0.11-0.28-0.26-0.28c-0.01,0-0.01,0-0.02,0H3.04v-1.41h1.49
		c0.15,0.01,0.28-0.11,0.28-0.26S4.7,10.71,4.55,10.7c-0.01,0-0.01,0-0.02,0H3.04V9.2h2.7v10.47c0,0.15,0.12,0.27,0.27,0.27
		c0,0,0,0,0,0h1.56c0.15,0,0.27-0.12,0.27-0.27l0,0V9.2h2.7v1.5H9.06c-0.15-0.01-0.28,0.11-0.28,0.26
		c-0.01,0.15,0.11,0.28,0.26,0.28c0.01,0,0.01,0,0.02,0h1.49v1.41H9.06c-0.15-0.01-0.28,0.11-0.28,0.26
		c-0.01,0.15,0.11,0.28,0.26,0.28c0.01,0,0.01,0,0.02,0h1.49v1.41H9.06c-0.15-0.01-0.28,0.11-0.28,0.26
		c-0.01,0.15,0.11,0.28,0.26,0.28c0.01,0,0.01,0,0.02,0h1.49v1.41H9.06c-0.15,0-0.27,0.12-0.27,0.27s0.12,0.27,0.27,0.27h1.49v1.41
		H9.06c-0.15-0.01-0.28,0.11-0.28,0.26s0.11,0.28,0.26,0.28c0.01,0,0.01,0,0.02,0h1.49v2.77c-0.01,0.15,0.11,0.28,0.26,0.28
		s0.28-0.11,0.28-0.26c0-0.01,0-0.01,0-0.02V19.9h1.71v1.93c-0.01,0.15,0.11,0.28,0.26,0.28c0.15,0.01,0.28-0.11,0.28-0.26
		c0-0.01,0-0.01,0-0.02V19.9h1.77v1.93c-0.01,0.15,0.11,0.28,0.26,0.28c0.15,0.01,0.28-0.11,0.28-0.26c0-0.01,0-0.01,0-0.02V19.9
		h1.71v1.93c-0.01,0.15,0.11,0.28,0.26,0.28s0.28-0.11,0.28-0.26c0-0.01,0-0.01,0-0.02v-9.52c0-0.15-0.12-0.27-0.27-0.27l0,0h-1.6
		V6.99h5.65v0.82h-2.95c-0.15,0-0.27,0.12-0.27,0.27v0v1.13c0,0.15,0.12,0.27,0.27,0.27l0,0h2.95v1.12h-2.95
		c-0.15,0-0.27,0.12-0.27,0.27c0,0,0,0,0,0V12c0,0.15,0.12,0.27,0.27,0.27c0,0,0,0,0,0h2.95v1.12h-2.95c-0.15,0-0.27,0.12-0.27,0.27
		l0,0v1.13c0,0.15,0.12,0.27,0.27,0.27l0,0h2.95v1.12h-2.95c-0.15,0-0.27,0.12-0.27,0.27c0,0,0,0,0,0v1.13
		c0,0.15,0.12,0.27,0.27,0.27l0,0h2.95v1.12h-2.95c-0.15,0-0.27,0.12-0.27,0.27l0,0v1.13c0,0.15,0.12,0.27,0.27,0.27c0,0,0,0,0,0
		h2.95v1.19c0,0.15,0.12,0.27,0.27,0.27s0.27-0.12,0.27-0.27V6.72C22.24,6.57,22.12,6.45,21.97,6.45L21.97,6.45z M7.3,19.4H6.29V9.2
		H7.3L7.3,19.4z M2.77,8.65H2.3V8.01h8.98v0.65L2.77,8.65L2.77,8.65z M15.12,12.58v1.28h-1.77v-1.28H15.12z M11.1,14.41h1.71v1.29
		H11.1V14.41z M11.1,16.24h1.71v1.29H11.1V16.24z M13.35,16.24h1.77v1.29h-1.77L13.35,16.24z M15.67,16.24h1.71v1.29h-1.71
		L15.67,16.24z M17.37,15.69h-1.71v-1.29h1.71L17.37,15.69z M15.12,15.69h-1.77v-1.29h1.77L15.12,15.69z M12.8,13.86H11.1v-1.28
		h1.71L12.8,13.86z M11.1,19.35v-1.29h1.71v1.29L11.1,19.35z M13.35,19.35v-1.29h1.77v1.29L13.35,19.35z M15.67,19.35v-1.29h1.71
		v1.29L15.67,19.35z M17.37,13.86h-1.71v-1.28h1.71L17.37,13.86z M11.1,12.04V9.2h0.47c0.15,0,0.27-0.12,0.27-0.27V7.73
		c0-0.15-0.12-0.27-0.27-0.27l0,0H8.45V4.38L12,2.47l3.51,1.91v2.3c0,0.01,0,0.01,0,0.02s0,0.01,0,0.02v5.32H11.1z M19.02,8.93V8.35
		h2.68v0.58L19.02,8.93z M19.02,11.72v-0.58h2.68v0.58H19.02z M19.02,14.52v-0.58h2.68v0.58L19.02,14.52z M19.02,17.31v-0.58h2.68
		v0.58L19.02,17.31z M19.02,20.1v-0.59h2.68v0.58L19.02,20.1z"/>
	<linearGradient id="SVGID_8_" gradientUnits="userSpaceOnUse" x1="10.9334" y1="25.7722" x2="10.3068" y2="12.8988">
		<stop  offset="0" style="stop-color:#10BEF0"/>
		<stop  offset="1" style="stop-color:#10BEF0;stop-opacity:0"/>
	</linearGradient>
	<path class="st10" d="M9.94,4.67c-0.15,0-0.27,0.12-0.27,0.27c0,0,0,0,0,0v0.8c0,0.15,0.12,0.27,0.27,0.27
		c0.15,0,0.27-0.12,0.27-0.27c0,0,0,0,0,0v-0.8C10.21,4.79,10.09,4.67,9.94,4.67z"/>
	<linearGradient id="SVGID_9_" gradientUnits="userSpaceOnUse" x1="12.9854" y1="25.6723" x2="12.3589" y2="12.7989">
		<stop  offset="0" style="stop-color:#10BEF0"/>
		<stop  offset="1" style="stop-color:#10BEF0;stop-opacity:0"/>
	</linearGradient>
	<path class="st11" d="M12,4.67c-0.15,0-0.27,0.12-0.27,0.27c0,0,0,0,0,0v0.8c-0.01,0.15,0.11,0.28,0.26,0.28
		c0.15,0.01,0.28-0.11,0.28-0.26c0-0.01,0-0.01,0-0.02v-0.8C12.27,4.8,12.15,4.67,12,4.67C12,4.67,12,4.67,12,4.67z"/>
	<linearGradient id="SVGID_10_" gradientUnits="userSpaceOnUse" x1="15.0364" y1="25.5725" x2="14.4098" y2="12.6991">
		<stop  offset="0" style="stop-color:#10BEF0"/>
		<stop  offset="1" style="stop-color:#10BEF0;stop-opacity:0"/>
	</linearGradient>
	<path class="st12" d="M14.05,4.67c-0.15,0-0.27,0.12-0.27,0.27c0,0,0,0,0,0v0.8c-0.01,0.15,0.11,0.28,0.26,0.28
		c0.15,0.01,0.28-0.11,0.28-0.26c0-0.01,0-0.01,0-0.02v-0.8C14.32,4.8,14.2,4.67,14.05,4.67C14.05,4.67,14.05,4.67,14.05,4.67z"/>
	<linearGradient id="SVGID_11_" gradientUnits="userSpaceOnUse" x1="12.7578" y1="25.6834" x2="12.1312" y2="12.81">
		<stop  offset="0" style="stop-color:#10BEF0"/>
		<stop  offset="1" style="stop-color:#10BEF0;stop-opacity:0"/>
	</linearGradient>
	<path class="st13" d="M12,9.36c-0.15,0-0.27,0.12-0.27,0.27l0,0v0.8c-0.01,0.15,0.11,0.28,0.26,0.28c0.15,0.01,0.28-0.11,0.28-0.26
		c0-0.01,0-0.01,0-0.02v-0.8C12.27,9.48,12.15,9.36,12,9.36C12,9.36,12,9.36,12,9.36z"/>
	<linearGradient id="SVGID_12_" gradientUnits="userSpaceOnUse" x1="14.8088" y1="25.5836" x2="14.1822" y2="12.7102">
		<stop  offset="0" style="stop-color:#10BEF0"/>
		<stop  offset="1" style="stop-color:#10BEF0;stop-opacity:0"/>
	</linearGradient>
	<path class="st14" d="M14.05,9.36c-0.15,0-0.27,0.12-0.27,0.27l0,0v0.8c-0.01,0.15,0.11,0.28,0.26,0.28
		c0.15,0.01,0.28-0.11,0.28-0.26c0-0.01,0-0.01,0-0.02v-0.8C14.32,9.48,14.2,9.36,14.05,9.36C14.05,9.36,14.05,9.36,14.05,9.36z"/>
	<linearGradient id="SVGID_13_" gradientUnits="userSpaceOnUse" x1="14.9204" y1="25.5781" x2="14.2938" y2="12.7047">
		<stop  offset="0" style="stop-color:#10BEF0"/>
		<stop  offset="1" style="stop-color:#10BEF0;stop-opacity:0"/>
	</linearGradient>
	<path class="st15" d="M14.05,7.06c-0.15,0-0.27,0.12-0.27,0.27v0v0.8c-0.01,0.15,0.11,0.28,0.26,0.28
		c0.15,0.01,0.28-0.11,0.28-0.26c0-0.01,0-0.01,0-0.02v-0.8C14.32,7.18,14.2,7.06,14.05,7.06C14.05,7.06,14.05,7.06,14.05,7.06z"/>
	<linearGradient id="SVGID_14_" gradientUnits="userSpaceOnUse" x1="10.9334" y1="25.7722" x2="10.3068" y2="12.8988">
		<stop  offset="0" style="stop-color:#10BEF0"/>
		<stop  offset="1" style="stop-color:#10BEF0;stop-opacity:0"/>
	</linearGradient>
	<path class="st16" d="M9.94,4.67c-0.15,0-0.27,0.12-0.27,0.27c0,0,0,0,0,0v0.8c0,0.15,0.12,0.27,0.27,0.27
		c0.15,0,0.27-0.12,0.27-0.27c0,0,0,0,0,0v-0.8C10.21,4.79,10.09,4.67,9.94,4.67z"/>
	<linearGradient id="SVGID_15_" gradientUnits="userSpaceOnUse" x1="12.9854" y1="25.6723" x2="12.3589" y2="12.7989">
		<stop  offset="0" style="stop-color:#10BEF0"/>
		<stop  offset="1" style="stop-color:#10BEF0;stop-opacity:0"/>
	</linearGradient>
	<path class="st17" d="M12,4.67c-0.15,0-0.27,0.12-0.27,0.27c0,0,0,0,0,0v0.8c-0.01,0.15,0.11,0.28,0.26,0.28
		c0.15,0.01,0.28-0.11,0.28-0.26c0-0.01,0-0.01,0-0.02v-0.8C12.27,4.8,12.15,4.67,12,4.67C12,4.67,12,4.67,12,4.67z"/>
	<linearGradient id="SVGID_16_" gradientUnits="userSpaceOnUse" x1="15.0364" y1="25.5725" x2="14.4098" y2="12.6991">
		<stop  offset="0" style="stop-color:#10BEF0"/>
		<stop  offset="1" style="stop-color:#10BEF0;stop-opacity:0"/>
	</linearGradient>
	<path class="st18" d="M14.05,4.67c-0.15,0-0.27,0.12-0.27,0.27c0,0,0,0,0,0v0.8c-0.01,0.15,0.11,0.28,0.26,0.28
		c0.15,0.01,0.28-0.11,0.28-0.26c0-0.01,0-0.01,0-0.02v-0.8C14.32,4.8,14.2,4.67,14.05,4.67C14.05,4.67,14.05,4.67,14.05,4.67z"/>
	<linearGradient id="SVGID_17_" gradientUnits="userSpaceOnUse" x1="12.7578" y1="25.6834" x2="12.1312" y2="12.81">
		<stop  offset="0" style="stop-color:#10BEF0"/>
		<stop  offset="1" style="stop-color:#10BEF0;stop-opacity:0"/>
	</linearGradient>
	<path class="st19" d="M12,9.36c-0.15,0-0.27,0.12-0.27,0.27l0,0v0.8c-0.01,0.15,0.11,0.28,0.26,0.28c0.15,0.01,0.28-0.11,0.28-0.26
		c0-0.01,0-0.01,0-0.02v-0.8C12.27,9.48,12.15,9.36,12,9.36C12,9.36,12,9.36,12,9.36z"/>
	<linearGradient id="SVGID_18_" gradientUnits="userSpaceOnUse" x1="14.8088" y1="25.5836" x2="14.1822" y2="12.7102">
		<stop  offset="0" style="stop-color:#10BEF0"/>
		<stop  offset="1" style="stop-color:#10BEF0;stop-opacity:0"/>
	</linearGradient>
	<path class="st20" d="M14.05,9.36c-0.15,0-0.27,0.12-0.27,0.27l0,0v0.8c-0.01,0.15,0.11,0.28,0.26,0.28
		c0.15,0.01,0.28-0.11,0.28-0.26c0-0.01,0-0.01,0-0.02v-0.8C14.32,9.48,14.2,9.36,14.05,9.36C14.05,9.36,14.05,9.36,14.05,9.36z"/>
	<linearGradient id="SVGID_19_" gradientUnits="userSpaceOnUse" x1="14.9204" y1="25.5781" x2="14.2938" y2="12.7047">
		<stop  offset="0" style="stop-color:#10BEF0"/>
		<stop  offset="1" style="stop-color:#10BEF0;stop-opacity:0"/>
	</linearGradient>
	<path class="st21" d="M14.05,7.06c-0.15,0-0.27,0.12-0.27,0.27v0v0.8c-0.01,0.15,0.11,0.28,0.26,0.28
		c0.15,0.01,0.28-0.11,0.28-0.26c0-0.01,0-0.01,0-0.02v-0.8C14.32,7.18,14.2,7.06,14.05,7.06C14.05,7.06,14.05,7.06,14.05,7.06z"/>
</g>
</svg>
