<?xml version="1.0" encoding="utf-8"?>
<!-- Generator: Adobe Illustrator 25.2.1, SVG Export Plug-In . SVG Version: 6.00 Build 0)  -->
<svg version="1.1" id="Layer_1" xmlns="http://www.w3.org/2000/svg" xmlns:xlink="http://www.w3.org/1999/xlink" x="0px" y="0px"
	 viewBox="0 0 24 24" style="enable-background:new 0 0 24 24;" xml:space="preserve">
<style type="text/css">
	.st0{fill:#002680;}
	.st1{opacity:0.65;}
	.st2{fill:url(#SVGID_1_);}
	.st3{fill:#FFFFFF;}
	.st4{fill:url(#SVGID_2_);}
	.st5{fill:url(#SVGID_3_);}
	.st6{fill:url(#SVGID_4_);}
	.st7{fill:url(#SVGID_5_);}
	.st8{fill:url(#SVGID_6_);}
	.st9{fill:url(#SVGID_7_);}
	.st10{fill:url(#SVGID_8_);}
	.st11{fill:url(#SVGID_9_);}
	.st12{fill:url(#SVGID_10_);}
	.st13{fill:url(#SVGID_11_);}
	.st14{fill:url(#SVGID_12_);}
	.st15{fill:url(#SVGID_13_);}
	.st16{fill:url(#SVGID_14_);}
	.st17{fill:url(#SVGID_15_);}
	.st18{fill:url(#SVGID_16_);}
	.st19{fill:url(#SVGID_17_);}
	.st20{fill:url(#SVGID_18_);}
	.st21{fill:url(#SVGID_19_);}
	.st22{fill:url(#SVGID_20_);}
	.st23{fill:url(#SVGID_21_);}
	.st24{fill:url(#SVGID_22_);}
	.st25{fill:url(#SVGID_23_);}
	.st26{fill:url(#SVGID_24_);}
	.st27{fill:url(#SVGID_25_);}
	.st28{fill:url(#SVGID_26_);}
	.st29{fill:url(#SVGID_27_);}
	.st30{fill:url(#SVGID_28_);}
	.st31{fill:url(#SVGID_29_);}
	.st32{fill:url(#SVGID_30_);}
	.st33{fill:url(#SVGID_31_);}
	.st34{fill:url(#SVGID_32_);}
	.st35{fill:url(#SVGID_33_);}
	.st36{fill:url(#SVGID_34_);}
	.st37{fill:url(#SVGID_35_);}
	.st38{fill:url(#SVGID_36_);}
	.st39{fill:url(#SVGID_37_);}
	.st40{fill:url(#SVGID_38_);}
	.st41{fill:url(#SVGID_39_);}
	.st42{fill:url(#SVGID_40_);}
	.st43{fill:url(#SVGID_41_);}
	.st44{fill:url(#SVGID_42_);}
	.st45{fill:url(#SVGID_43_);}
	.st46{fill:url(#SVGID_44_);}
	.st47{fill:url(#SVGID_45_);}
	.st48{fill:url(#SVGID_46_);}
	.st49{fill:url(#SVGID_47_);}
	.st50{fill:url(#SVGID_48_);}
	.st51{fill:url(#SVGID_49_);}
	.st52{fill:url(#SVGID_50_);}
	.st53{fill:url(#SVGID_51_);}
	.st54{fill:url(#SVGID_52_);}
	.st55{fill:url(#SVGID_53_);}
	.st56{fill:url(#SVGID_54_);}
	.st57{fill:url(#SVGID_55_);}
	.st58{fill:url(#SVGID_56_);}
	.st59{fill:url(#SVGID_57_);}
	.st60{fill:url(#SVGID_58_);}
	.st61{fill:url(#SVGID_59_);}
	.st62{fill:url(#SVGID_60_);}
	.st63{fill:url(#SVGID_61_);}
	.st64{fill:url(#SVGID_62_);}
	.st65{fill:url(#SVGID_63_);}
	.st66{fill:url(#SVGID_64_);}
	.st67{fill:url(#SVGID_65_);}
	.st68{fill:url(#SVGID_66_);}
	.st69{fill:url(#SVGID_67_);}
	.st70{fill:url(#SVGID_68_);}
	.st71{fill:url(#SVGID_69_);}
	.st72{fill:url(#SVGID_70_);}
	.st73{fill:url(#SVGID_71_);}
	.st74{fill:url(#SVGID_72_);}
	.st75{fill:url(#SVGID_73_);}
	.st76{fill:url(#SVGID_74_);}
	.st77{fill:url(#SVGID_75_);}
	.st78{fill:url(#SVGID_76_);}
	.st79{fill:url(#SVGID_77_);}
	.st80{fill:url(#SVGID_78_);}
	.st81{fill:url(#SVGID_79_);}
	.st82{fill:url(#SVGID_80_);}
	.st83{fill:url(#SVGID_81_);}
	.st84{fill:url(#SVGID_82_);}
	.st85{fill:url(#SVGID_83_);}
	.st86{fill:url(#SVGID_84_);}
	.st87{fill:url(#SVGID_85_);}
	.st88{fill:url(#SVGID_86_);}
	.st89{fill:url(#SVGID_87_);}
	.st90{fill:url(#SVGID_88_);}
	.st91{fill:url(#SVGID_89_);}
	.st92{fill:url(#SVGID_90_);}
	.st93{fill:url(#SVGID_91_);}
	.st94{fill:url(#SVGID_92_);}
	.st95{fill:url(#SVGID_93_);}
	.st96{fill:url(#SVGID_94_);}
	.st97{fill:url(#SVGID_95_);}
	.st98{fill:url(#SVGID_96_);}
	.st99{fill:url(#SVGID_97_);}
	.st100{fill:url(#SVGID_98_);}
	.st101{fill:url(#SVGID_99_);}
	.st102{fill:url(#SVGID_100_);}
	.st103{fill:url(#SVGID_101_);}
	.st104{fill:url(#SVGID_102_);}
	.st105{fill:url(#SVGID_103_);}
	.st106{fill:url(#SVGID_104_);}
	.st107{fill:url(#SVGID_105_);}
	.st108{fill:url(#SVGID_106_);}
	.st109{fill:url(#SVGID_107_);}
	.st110{fill:url(#SVGID_108_);}
	.st111{fill:url(#SVGID_109_);}
	.st112{fill:url(#SVGID_110_);}
	.st113{fill:url(#SVGID_111_);}
	.st114{fill:url(#SVGID_112_);}
	.st115{fill:url(#SVGID_113_);}
	.st116{fill:url(#SVGID_114_);}
	.st117{fill:url(#SVGID_115_);}
	.st118{fill:url(#SVGID_116_);}
	.st119{fill:url(#SVGID_117_);}
	.st120{fill:url(#SVGID_118_);}
	.st121{fill:url(#SVGID_119_);}
	.st122{fill:url(#SVGID_120_);}
	.st123{fill:url(#SVGID_121_);}
	.st124{fill:url(#SVGID_122_);}
	.st125{fill:url(#SVGID_123_);}
	.st126{fill:url(#SVGID_124_);}
	.st127{fill:url(#SVGID_125_);}
	.st128{fill:url(#SVGID_126_);}
	.st129{fill:url(#SVGID_127_);}
	.st130{fill:url(#SVGID_128_);}
	.st131{fill:url(#SVGID_129_);}
	.st132{fill:url(#SVGID_130_);}
	.st133{fill:url(#SVGID_131_);}
	.st134{fill:url(#SVGID_132_);}
	.st135{fill:url(#SVGID_133_);}
	.st136{fill:url(#SVGID_134_);}
	.st137{fill:url(#SVGID_135_);}
	.st138{fill:url(#SVGID_136_);}
	.st139{fill:url(#SVGID_137_);}
	.st140{fill:url(#SVGID_138_);}
	.st141{fill:url(#SVGID_139_);}
	.st142{fill:url(#SVGID_140_);}
	.st143{fill:url(#SVGID_141_);}
	.st144{fill:url(#SVGID_142_);}
	.st145{fill:url(#SVGID_143_);}
	.st146{fill:url(#SVGID_144_);}
	.st147{fill:url(#SVGID_145_);}
	.st148{fill:url(#SVGID_146_);}
	.st149{fill:url(#SVGID_147_);}
	.st150{fill:url(#SVGID_148_);}
	.st151{fill:url(#SVGID_149_);}
	.st152{fill:url(#SVGID_150_);}
	.st153{fill:url(#SVGID_151_);}
	.st154{fill:url(#SVGID_152_);}
	.st155{fill:url(#SVGID_153_);}
	.st156{fill:url(#SVGID_154_);}
	.st157{fill:url(#SVGID_155_);}
	.st158{fill:url(#SVGID_156_);}
	.st159{fill:url(#SVGID_157_);}
	.st160{fill:url(#SVGID_158_);}
	.st161{fill:url(#SVGID_159_);}
	.st162{fill:url(#SVGID_160_);}
	.st163{fill:url(#SVGID_161_);}
	.st164{fill:url(#SVGID_162_);}
	.st165{fill:url(#SVGID_163_);}
	.st166{fill:url(#SVGID_164_);}
	.st167{fill:url(#SVGID_165_);}
	.st168{fill:url(#SVGID_166_);}
	.st169{fill:url(#SVGID_167_);}
	.st170{fill:url(#SVGID_168_);}
	.st171{fill:url(#SVGID_169_);}
	.st172{fill:url(#SVGID_170_);}
	.st173{fill:url(#SVGID_171_);}
	.st174{fill:url(#SVGID_172_);}
	.st175{fill:url(#SVGID_173_);}
	.st176{fill:url(#SVGID_174_);}
	.st177{fill:url(#SVGID_175_);}
	.st178{fill:url(#SVGID_176_);}
	.st179{fill:url(#SVGID_177_);}
	.st180{fill:url(#SVGID_178_);}
	.st181{fill:url(#SVGID_179_);}
	.st182{fill:url(#SVGID_180_);}
	.st183{fill:url(#SVGID_181_);}
	.st184{fill:url(#SVGID_182_);}
	.st185{fill:url(#SVGID_183_);}
	.st186{fill:url(#SVGID_184_);}
	.st187{fill:url(#SVGID_185_);}
	.st188{fill:url(#SVGID_186_);}
	.st189{fill:url(#SVGID_187_);}
	.st190{fill:url(#SVGID_188_);}
	.st191{fill:url(#SVGID_189_);}
	.st192{fill:url(#SVGID_190_);}
	.st193{fill:url(#SVGID_191_);}
	.st194{fill:url(#SVGID_192_);}
	.st195{fill:url(#SVGID_193_);}
	.st196{fill:url(#SVGID_194_);}
	.st197{fill:url(#SVGID_195_);}
	.st198{fill:url(#SVGID_196_);}
	.st199{fill:url(#SVGID_197_);}
	.st200{fill:url(#SVGID_198_);}
	.st201{fill:url(#SVGID_199_);}
	.st202{fill:url(#SVGID_200_);}
	.st203{fill:url(#SVGID_201_);}
	.st204{fill:url(#SVGID_202_);}
	.st205{fill:url(#SVGID_203_);}
	.st206{fill:url(#SVGID_204_);}
	.st207{fill:url(#SVGID_205_);}
	.st208{fill:url(#SVGID_206_);}
	.st209{fill:url(#SVGID_207_);}
	.st210{fill:url(#SVGID_208_);}
	.st211{fill:url(#SVGID_209_);}
	.st212{fill:url(#SVGID_210_);}
	.st213{fill:url(#SVGID_211_);}
	.st214{fill:url(#SVGID_212_);}
	.st215{fill:url(#SVGID_213_);}
	.st216{fill:url(#SVGID_214_);}
	.st217{fill:url(#SVGID_215_);}
	.st218{fill:url(#SVGID_216_);}
	.st219{fill:url(#SVGID_217_);}
	.st220{fill:url(#SVGID_218_);}
	.st221{fill:url(#SVGID_219_);}
	.st222{fill:url(#SVGID_220_);}
	.st223{fill:url(#SVGID_221_);}
	.st224{fill:url(#SVGID_222_);}
	.st225{fill:url(#SVGID_223_);}
	.st226{fill:url(#SVGID_224_);}
	.st227{fill:url(#SVGID_225_);}
	.st228{fill:url(#SVGID_226_);}
	.st229{fill:url(#SVGID_227_);}
	.st230{fill:url(#SVGID_228_);}
	.st231{fill:url(#SVGID_229_);}
	.st232{fill:url(#SVGID_230_);}
	.st233{fill:url(#SVGID_231_);}
	.st234{fill:url(#SVGID_232_);}
	.st235{fill:url(#SVGID_233_);}
	.st236{fill:url(#SVGID_234_);}
	.st237{fill:url(#SVGID_235_);}
	.st238{fill:url(#SVGID_236_);}
	.st239{fill:url(#SVGID_237_);}
	.st240{fill:url(#SVGID_238_);}
	.st241{fill:url(#SVGID_239_);}
	.st242{fill:url(#SVGID_240_);}
	.st243{fill:url(#SVGID_241_);}
	.st244{fill:url(#SVGID_242_);}
	.st245{fill:url(#SVGID_243_);}
	.st246{fill:url(#SVGID_244_);}
	.st247{fill:url(#SVGID_245_);}
	.st248{fill:url(#SVGID_246_);}
	.st249{fill:url(#SVGID_247_);}
	.st250{fill-rule:evenodd;clip-rule:evenodd;fill:#002680;}
	.st251{fill-rule:evenodd;clip-rule:evenodd;fill:url(#SVGID_248_);}
	.st252{fill-rule:evenodd;clip-rule:evenodd;fill:url(#SVGID_249_);}
	.st253{fill-rule:evenodd;clip-rule:evenodd;fill:url(#SVGID_250_);}
	.st254{fill-rule:evenodd;clip-rule:evenodd;fill:url(#SVGID_251_);}
	.st255{fill-rule:evenodd;clip-rule:evenodd;fill:url(#SVGID_252_);}
	.st256{fill-rule:evenodd;clip-rule:evenodd;fill:url(#SVGID_253_);}
	.st257{fill-rule:evenodd;clip-rule:evenodd;fill:url(#SVGID_254_);}
	.st258{fill-rule:evenodd;clip-rule:evenodd;fill:url(#SVGID_255_);}
	.st259{fill-rule:evenodd;clip-rule:evenodd;fill:url(#SVGID_256_);}
	.st260{fill-rule:evenodd;clip-rule:evenodd;fill:#FFFFFF;}
	.st261{fill:url(#SVGID_257_);}
	.st262{fill:url(#SVGID_258_);}
	.st263{fill:url(#SVGID_259_);}
	.st264{fill:url(#SVGID_260_);}
	.st265{fill:url(#SVGID_261_);}
	.st266{fill:url(#SVGID_262_);}
	.st267{fill:url(#SVGID_263_);}
	.st268{fill:url(#SVGID_264_);}
	.st269{fill:url(#SVGID_265_);}
	.st270{fill:url(#SVGID_266_);}
	.st271{fill:url(#SVGID_267_);}
	.st272{fill:url(#SVGID_268_);}
	.st273{fill:url(#SVGID_269_);}
	.st274{fill:url(#SVGID_270_);}
	.st275{fill:url(#SVGID_271_);}
	.st276{fill:url(#SVGID_272_);}
	.st277{fill:url(#SVGID_273_);}
	.st278{fill:url(#SVGID_274_);}
	.st279{fill:url(#SVGID_275_);}
	.st280{fill:url(#SVGID_276_);}
	.st281{fill:url(#SVGID_277_);}
	.st282{fill:url(#SVGID_278_);}
	.st283{fill:url(#SVGID_279_);}
	.st284{fill:url(#SVGID_280_);}
	.st285{fill:url(#SVGID_281_);}
	.st286{fill:url(#SVGID_282_);}
	.st287{fill:url(#SVGID_283_);}
	.st288{fill:url(#SVGID_284_);}
	.st289{fill:url(#SVGID_285_);}
	.st290{fill:url(#SVGID_286_);}
	.st291{fill:url(#SVGID_287_);}
	.st292{fill:url(#SVGID_288_);}
	.st293{fill:url(#SVGID_289_);}
	.st294{fill:url(#SVGID_290_);}
	.st295{fill:url(#SVGID_291_);}
	.st296{fill:url(#SVGID_292_);}
	.st297{fill:url(#SVGID_293_);}
	.st298{fill:url(#SVGID_294_);}
	.st299{fill:url(#SVGID_295_);}
	.st300{fill:url(#SVGID_296_);}
	.st301{fill:url(#SVGID_297_);}
	.st302{fill:url(#SVGID_298_);}
	.st303{fill:url(#SVGID_299_);}
	.st304{fill:url(#SVGID_300_);}
	.st305{fill:url(#SVGID_301_);}
	.st306{fill:url(#SVGID_302_);}
	.st307{fill:url(#SVGID_303_);}
	.st308{fill:url(#SVGID_304_);}
	.st309{fill:url(#SVGID_305_);}
	.st310{fill:url(#SVGID_306_);}
	.st311{fill:url(#SVGID_307_);}
	.st312{fill:url(#SVGID_308_);}
	.st313{fill:url(#SVGID_309_);}
	.st314{fill:url(#SVGID_310_);}
	.st315{fill:url(#SVGID_311_);}
	.st316{fill:url(#SVGID_312_);}
	.st317{fill:url(#SVGID_313_);}
	.st318{fill:url(#SVGID_314_);}
	.st319{fill:url(#SVGID_315_);}
	.st320{fill:url(#SVGID_316_);}
	.st321{fill:url(#SVGID_317_);}
	.st322{fill:url(#SVGID_318_);}
	.st323{fill:url(#SVGID_319_);}
	.st324{fill:url(#SVGID_320_);}
	.st325{fill:url(#SVGID_321_);}
	.st326{fill:url(#SVGID_322_);}
	.st327{fill:url(#SVGID_323_);}
	.st328{fill:url(#SVGID_324_);}
	.st329{fill:url(#SVGID_325_);}
	.st330{fill:url(#SVGID_326_);}
	.st331{fill:url(#SVGID_327_);}
	.st332{fill:url(#SVGID_328_);}
	.st333{fill:url(#SVGID_329_);}
	.st334{fill:url(#SVGID_330_);}
	.st335{fill:url(#SVGID_331_);}
	.st336{fill:url(#SVGID_332_);}
	.st337{fill:url(#SVGID_333_);}
	.st338{fill:url(#SVGID_334_);}
	.st339{fill:url(#SVGID_335_);}
	.st340{fill:url(#SVGID_336_);}
	.st341{fill:url(#SVGID_337_);}
	.st342{fill:url(#SVGID_338_);}
	.st343{fill:url(#SVGID_339_);}
	.st344{fill:url(#SVGID_340_);}
	.st345{fill:url(#SVGID_341_);}
	.st346{fill:url(#SVGID_342_);}
	.st347{fill-rule:evenodd;clip-rule:evenodd;}
	.st348{fill:none;}
	.st349{fill-rule:evenodd;clip-rule:evenodd;fill:url(#SVGID_343_);}
	.st350{fill:url(#SVGID_344_);}
	.st351{fill:url(#SVGID_345_);}
	.st352{fill:url(#SVGID_346_);}
	.st353{fill:url(#SVGID_347_);}
	.st354{fill-rule:evenodd;clip-rule:evenodd;fill:none;stroke:#FFFFFF;stroke-width:0.25;stroke-miterlimit:10;}
	.st355{fill:url(#SVGID_348_);}
	.st356{fill:url(#SVGID_349_);}
	.st357{fill:url(#SVGID_350_);}
	.st358{fill:url(#SVGID_351_);}
	.st359{fill:url(#SVGID_352_);}
	.st360{fill:url(#SVGID_353_);}
	.st361{fill:url(#SVGID_354_);}
	.st362{fill:url(#SVGID_355_);}
	.st363{fill:url(#SVGID_356_);}
	.st364{fill:url(#SVGID_357_);}
	.st365{fill:url(#SVGID_358_);}
	.st366{fill:url(#SVGID_359_);}
	.st367{fill:url(#SVGID_360_);}
	.st368{fill:url(#SVGID_361_);}
	.st369{fill:url(#SVGID_362_);}
	.st370{fill:url(#SVGID_363_);}
	.st371{fill:url(#SVGID_364_);}
	.st372{fill:url(#SVGID_365_);}
	.st373{fill:url(#SVGID_366_);}
	.st374{fill:url(#SVGID_367_);}
	.st375{fill:url(#SVGID_368_);}
	.st376{fill:url(#SVGID_369_);}
	.st377{fill:url(#SVGID_370_);}
	.st378{fill:url(#SVGID_371_);}
	.st379{fill:url(#SVGID_372_);}
	.st380{fill:url(#SVGID_373_);}
	.st381{fill:url(#SVGID_374_);}
	.st382{fill:url(#SVGID_375_);}
	.st383{fill:url(#SVGID_376_);}
	.st384{fill:url(#SVGID_377_);}
	.st385{fill:url(#SVGID_378_);}
	.st386{fill:url(#SVGID_379_);}
	.st387{fill:url(#SVGID_380_);}
	.st388{fill:url(#SVGID_381_);}
	.st389{fill:url(#SVGID_382_);}
	.st390{fill:url(#SVGID_383_);}
	.st391{fill:url(#SVGID_384_);}
	.st392{fill:url(#SVGID_385_);}
	.st393{fill:url(#SVGID_386_);}
	.st394{fill:url(#SVGID_387_);}
	.st395{fill:url(#SVGID_388_);}
	.st396{fill:url(#SVGID_389_);}
	.st397{fill:url(#SVGID_390_);}
	.st398{fill:url(#SVGID_391_);}
	.st399{fill:url(#SVGID_392_);}
	.st400{fill:url(#SVGID_393_);}
	.st401{fill:url(#SVGID_394_);}
	.st402{fill:url(#SVGID_395_);}
	.st403{fill:url(#SVGID_396_);}
	.st404{fill:url(#SVGID_397_);}
	.st405{fill:url(#SVGID_398_);}
	.st406{fill:url(#SVGID_399_);}
	.st407{fill:url(#SVGID_400_);}
	.st408{fill:url(#SVGID_401_);}
	.st409{fill:url(#SVGID_402_);}
	.st410{fill:url(#SVGID_403_);}
	.st411{fill:url(#SVGID_404_);}
	.st412{fill:url(#SVGID_405_);}
	.st413{fill:url(#SVGID_406_);}
	.st414{fill:url(#SVGID_407_);}
	.st415{fill:url(#SVGID_408_);}
	.st416{fill:url(#SVGID_409_);}
	.st417{fill:url(#SVGID_410_);}
	.st418{fill:url(#SVGID_411_);}
	.st419{fill:url(#SVGID_412_);}
	.st420{fill:url(#SVGID_413_);}
	.st421{fill:url(#SVGID_414_);}
	.st422{fill:url(#SVGID_415_);}
	.st423{fill:url(#SVGID_416_);}
	.st424{fill:url(#SVGID_417_);}
	.st425{fill:url(#SVGID_418_);}
	.st426{fill:url(#SVGID_419_);}
	.st427{fill:url(#SVGID_420_);}
	.st428{fill:url(#SVGID_421_);}
	.st429{fill:url(#SVGID_422_);}
	.st430{fill:url(#SVGID_423_);}
	.st431{fill:url(#SVGID_424_);}
	.st432{fill:url(#SVGID_425_);}
	.st433{fill:url(#SVGID_426_);}
	.st434{fill:url(#SVGID_427_);}
	.st435{fill:url(#SVGID_428_);}
	.st436{fill:url(#SVGID_429_);}
	.st437{fill:url(#SVGID_430_);}
	.st438{fill:url(#SVGID_431_);}
	.st439{fill:url(#SVGID_432_);}
	.st440{fill:url(#SVGID_433_);}
	.st441{fill:url(#SVGID_434_);}
	.st442{fill:url(#SVGID_435_);}
	.st443{fill:url(#SVGID_436_);}
	.st444{fill:url(#SVGID_437_);}
	.st445{fill:url(#SVGID_438_);}
	.st446{fill:url(#SVGID_439_);}
	.st447{fill:url(#SVGID_440_);}
	.st448{fill:url(#SVGID_441_);}
	.st449{fill:url(#SVGID_442_);}
	.st450{fill:url(#SVGID_443_);}
	.st451{fill:url(#SVGID_444_);}
	.st452{fill:url(#SVGID_445_);}
	.st453{fill:url(#SVGID_446_);}
	.st454{fill:url(#SVGID_447_);}
	.st455{fill:url(#SVGID_448_);}
	.st456{fill:url(#SVGID_449_);}
	.st457{fill:url(#SVGID_450_);}
	.st458{fill:url(#SVGID_451_);}
	.st459{fill:url(#SVGID_452_);}
	.st460{fill:url(#SVGID_453_);}
	.st461{fill:url(#SVGID_454_);}
	.st462{fill:url(#SVGID_455_);}
	.st463{fill:url(#SVGID_456_);}
	.st464{fill:url(#SVGID_457_);}
	.st465{fill:url(#SVGID_458_);}
	.st466{fill:url(#SVGID_459_);}
	.st467{fill:url(#SVGID_460_);}
	.st468{fill:url(#SVGID_461_);}
	.st469{fill:url(#SVGID_462_);}
	.st470{fill:url(#SVGID_463_);}
	.st471{fill:url(#SVGID_464_);}
	.st472{fill:url(#SVGID_465_);}
	.st473{fill:url(#SVGID_466_);}
	.st474{fill:url(#SVGID_467_);}
	.st475{fill:url(#SVGID_468_);}
	.st476{fill:url(#SVGID_469_);}
	.st477{fill:url(#SVGID_470_);}
	.st478{fill:url(#SVGID_471_);}
	.st479{fill:url(#SVGID_472_);}
	.st480{fill:url(#SVGID_473_);}
	.st481{fill:url(#SVGID_474_);}
	.st482{fill:url(#SVGID_475_);}
	.st483{fill:url(#SVGID_476_);}
	.st484{fill:url(#SVGID_477_);}
	.st485{fill:url(#SVGID_478_);}
	.st486{fill:url(#SVGID_479_);}
	.st487{fill:url(#SVGID_480_);}
	.st488{fill:url(#SVGID_481_);}
	.st489{fill:url(#SVGID_482_);}
</style>
<g>
	<g>
		<path class="st348" d="M15.17,0.74c2.55,2.55,2.55,6.69,0,9.25"/>
		<path class="st0" d="M15.43,0.48c1.35,1.35,2.02,3.11,2.02,4.88c0,1.77-0.67,3.53-2.02,4.88l-0.51-0.51
			c1.21-1.21,1.81-2.79,1.81-4.37s-0.6-3.16-1.81-4.37C14.92,0.99,15.43,0.48,15.43,0.48z"/>
		<path class="st348" d="M14.3,2.36c1.66,1.66,1.66,4.34,0,5.99"/>
		<path class="st0" d="M14.56,2.11L14.56,2.11c0.9,0.9,1.35,2.08,1.35,3.25c0,1.18-0.45,2.36-1.35,3.25l0,0L14.04,8.1l0,0
			c0.76-0.76,1.13-1.75,1.13-2.74s-0.38-1.98-1.13-2.74l0,0C14.04,2.62,14.56,2.11,14.56,2.11z"/>
		<path class="st348" d="M13.42,3.99c0.76,0.76,0.76,1.98,0,2.74"/>
		<path class="st0" d="M13.68,3.73c0.45,0.45,0.67,1.04,0.67,1.63c0,0.59-0.22,1.18-0.67,1.63l-0.51-0.51
			c0.31-0.31,0.46-0.71,0.46-1.11c0-0.4-0.15-0.8-0.46-1.11L13.68,3.73z"/>
		<path class="st348" d="M8.83,0.74c-2.55,2.55-2.55,6.69,0,9.25"/>
		<path class="st0" d="M9.08,0.99C7.88,2.2,7.27,3.78,7.27,5.36s0.6,3.16,1.81,4.37l-0.51,0.51C7.22,8.9,6.55,7.13,6.55,5.36
			c0-1.77,0.67-3.53,2.02-4.88C8.57,0.48,9.08,0.99,9.08,0.99z"/>
		<path class="st348" d="M9.7,2.36c-1.66,1.66-1.66,4.34,0,5.99"/>
		<path class="st0" d="M9.96,2.62L9.96,2.62C9.2,3.38,8.82,4.37,8.82,5.36S9.2,7.34,9.96,8.1l0,0L9.44,8.62l0,0
			C8.54,7.72,8.1,6.54,8.1,5.36c0-1.18,0.45-2.36,1.35-3.25l0,0C9.44,2.11,9.96,2.62,9.96,2.62z"/>
		<path class="st348" d="M10.58,3.99c-0.76,0.76-0.76,1.98,0,2.74"/>
		<path class="st0" d="M10.83,4.25c-0.31,0.31-0.46,0.71-0.46,1.11c0,0.4,0.15,0.8,0.46,1.11l-0.51,0.51
			C9.87,6.54,9.64,5.95,9.64,5.36c0-0.59,0.22-1.18,0.67-1.63L10.83,4.25z"/>
		<linearGradient id="SVGID_1_" gradientUnits="userSpaceOnUse" x1="14.9166" y1="5.3614" x2="17.4534" y2="5.3614">
			<stop  offset="0" style="stop-color:#10BEF0"/>
			<stop  offset="1" style="stop-color:#10BEF0;stop-opacity:0"/>
		</linearGradient>
		<path class="st2" d="M15.43,0.48c1.35,1.35,2.02,3.11,2.02,4.88c0,1.77-0.67,3.53-2.02,4.88l-0.51-0.51
			c1.21-1.21,1.81-2.79,1.81-4.37s-0.6-3.16-1.81-4.37C14.92,0.99,15.43,0.48,15.43,0.48z"/>
		<linearGradient id="SVGID_2_" gradientUnits="userSpaceOnUse" x1="14.0421" y1="5.3614" x2="15.9047" y2="5.3614">
			<stop  offset="0" style="stop-color:#10BEF0"/>
			<stop  offset="1" style="stop-color:#10BEF0;stop-opacity:0"/>
		</linearGradient>
		<path class="st4" d="M14.56,2.11L14.56,2.11c0.9,0.9,1.35,2.08,1.35,3.25c0,1.18-0.45,2.36-1.35,3.25l0,0L14.04,8.1l0,0
			c0.76-0.76,1.13-1.75,1.13-2.74s-0.38-1.98-1.13-2.74l0,0C14.04,2.62,14.56,2.11,14.56,2.11z"/>
		<linearGradient id="SVGID_3_" gradientUnits="userSpaceOnUse" x1="13.1676" y1="5.3614" x2="14.3559" y2="5.3614">
			<stop  offset="0" style="stop-color:#10BEF0"/>
			<stop  offset="1" style="stop-color:#10BEF0;stop-opacity:0"/>
		</linearGradient>
		<path class="st5" d="M13.68,3.73c0.45,0.45,0.67,1.04,0.67,1.63c0,0.59-0.22,1.18-0.67,1.63l-0.51-0.51
			c0.31-0.31,0.46-0.71,0.46-1.11c0-0.4-0.15-0.8-0.46-1.11L13.68,3.73z"/>
		<linearGradient id="SVGID_4_" gradientUnits="userSpaceOnUse" x1="6.5466" y1="5.3614" x2="9.0834" y2="5.3614">
			<stop  offset="0" style="stop-color:#10BEF0"/>
			<stop  offset="1" style="stop-color:#10BEF0;stop-opacity:0"/>
		</linearGradient>
		<path class="st6" d="M9.08,0.99C7.88,2.2,7.27,3.78,7.27,5.36s0.6,3.16,1.81,4.37l-0.51,0.51C7.22,8.9,6.55,7.13,6.55,5.36
			c0-1.77,0.67-3.53,2.02-4.88C8.57,0.48,9.08,0.99,9.08,0.99z"/>
		<linearGradient id="SVGID_5_" gradientUnits="userSpaceOnUse" x1="8.0953" y1="5.3614" x2="9.9579" y2="5.3614">
			<stop  offset="0" style="stop-color:#10BEF0"/>
			<stop  offset="1" style="stop-color:#10BEF0;stop-opacity:0"/>
		</linearGradient>
		<path class="st7" d="M9.96,2.62L9.96,2.62C9.2,3.38,8.82,4.37,8.82,5.36S9.2,7.34,9.96,8.1l0,0L9.44,8.62l0,0
			C8.54,7.72,8.1,6.54,8.1,5.36c0-1.18,0.45-2.36,1.35-3.25l0,0C9.44,2.11,9.96,2.62,9.96,2.62z"/>
		<linearGradient id="SVGID_6_" gradientUnits="userSpaceOnUse" x1="9.6441" y1="5.3613" x2="10.8324" y2="5.3613">
			<stop  offset="0" style="stop-color:#10BEF0"/>
			<stop  offset="1" style="stop-color:#10BEF0;stop-opacity:0"/>
		</linearGradient>
		<path class="st8" d="M10.83,4.25c-0.31,0.31-0.46,0.71-0.46,1.11c0,0.4,0.15,0.8,0.46,1.11l-0.51,0.51
			C9.87,6.54,9.64,5.95,9.64,5.36c0-0.59,0.22-1.18,0.67-1.63L10.83,4.25z"/>
		<circle class="st250" cx="12.03" cy="5.36" r="0.83"/>
		<path class="st250" d="M12.03,6.44l0.56,3.87l-0.56,0.38l-0.56-0.38L12.03,6.44L12.03,6.44C12.03,6.44,12.03,6.44,12.03,6.44z
			 M12.64,10.72l0.06,0.45l-0.36-0.25C12.35,10.92,12.64,10.72,12.64,10.72z M12.78,11.66l0.16,1.15l-0.92,0.63l-0.92-0.63
			l0.16-1.15l0.75-0.52C12.03,11.14,12.78,11.66,12.78,11.66z M13,13.2l0.14,0.99l-0.79-0.55L13,13.2z M13.21,14.69l0.09,0.6
			l-1.27,0.87l-1.27-0.87l0.09-0.6l1.19-0.81C12.03,13.87,13.21,14.69,13.21,14.69z M13.36,15.69l0.22,1.54l-1.23-0.84
			C12.35,16.38,13.36,15.69,13.36,15.69z M13.65,17.72l0.01,0.06l-1.63,1.12l-1.63-1.12l0.01-0.06l1.62-1.11
			C12.03,16.6,13.65,17.72,13.65,17.72z M13.71,18.18l0.3,2.08l-1.67-1.14C12.35,19.11,13.71,18.18,13.71,18.18z M14.08,20.75
			l0.37,2.54l-2.1-1.44l1.67-1.15C14.01,20.7,14.08,20.75,14.08,20.75z M12.03,21.62l-1.67-1.15l1.67-1.15l1.67,1.15L12.03,21.62z
			 M14.15,23.52H9.91l2.12-1.46C12.03,22.06,14.15,23.52,14.15,23.52z M9.6,23.29l0.37-2.54l0.07-0.05l1.67,1.15
			C11.71,21.84,9.6,23.29,9.6,23.29z M10.04,20.26l0.3-2.08l1.37,0.94C11.71,19.11,10.04,20.26,10.04,20.26z M10.47,17.23l0.22-1.54
			l1.01,0.69C11.71,16.38,10.47,17.23,10.47,17.23z M10.91,14.2l0.14-0.99l0.65,0.45C11.71,13.65,10.91,14.2,10.91,14.2z
			 M11.35,11.17l0.06-0.45l0.3,0.2C11.71,10.92,11.35,11.17,11.35,11.17z"/>
	</g>
</g>
</svg>
