<svg width="208" height="167" viewBox="0 0 208 167" fill="none" xmlns="http://www.w3.org/2000/svg">
<path d="M63.352 0.00037384C82.616 0.00037384 97.8107 7.20571 108.936 21.6164C120.061 35.9524 125.624 56.5977 125.624 83.5524C125.624 110.358 120.136 130.928 109.16 145.264C98.184 159.526 82.9147 166.656 63.352 166.656C43.7147 166.656 28.3707 159.526 17.32 145.264C6.344 131.003 0.856001 110.47 0.856001 83.6644C0.856001 65.7444 3.39467 50.5497 8.472 38.0804C13.5493 25.611 20.7547 16.1657 30.088 9.74438C39.4213 3.24837 50.5093 0.00037384 63.352 0.00037384ZM63.352 139.888C72.984 139.888 80.04 135.595 84.52 127.008C89 118.347 91.24 103.899 91.24 83.6644C91.24 62.9817 88.9627 48.1604 84.408 39.2004C79.8533 30.2404 72.7973 25.7604 63.24 25.7604C53.6827 25.7604 46.552 30.2777 41.848 39.3124C37.2187 48.347 34.904 63.131 34.904 83.6644C34.904 103.824 37.2187 118.235 41.848 126.896C46.4773 135.558 53.6453 139.888 63.352 139.888ZM173.903 164.192V42.8964H145.007V24.4164C154.266 24.4164 161.732 23.5577 167.407 21.8404C173.156 20.0484 177.45 17.5097 180.287 14.2244C183.124 10.8644 184.804 6.86971 185.327 2.24037H207.055V164.192H173.903Z" fill="#5A5A5A" fill-opacity="0.03"/>
</svg>
