<?xml version="1.0" encoding="utf-8"?>
<!-- Generator: Adobe Illustrator 25.2.1, SVG Export Plug-In . SVG Version: 6.00 Build 0)  -->
<svg version="1.1" id="Layer_1" xmlns="http://www.w3.org/2000/svg" xmlns:xlink="http://www.w3.org/1999/xlink" x="0px" y="0px"
	 viewBox="0 0 600 600" style="enable-background:new 0 0 600 600;" xml:space="preserve">
<style type="text/css">
	.st0{fill-rule:evenodd;clip-rule:evenodd;fill:#FF8976;}
	.st1{fill-rule:evenodd;clip-rule:evenodd;fill:#EF6456;}
	.st2{opacity:0.3;fill-rule:evenodd;clip-rule:evenodd;fill:#BA2B27;}
	.st3{fill-rule:evenodd;clip-rule:evenodd;fill:#7C4284;}
	.st4{fill-rule:evenodd;clip-rule:evenodd;fill:#3E2344;}
	.st5{fill:#3E2344;}
	.st6{fill-rule:evenodd;clip-rule:evenodd;fill:#A1ABAD;}
	.st7{fill:#FFB072;}
	.st8{fill:#764582;}
	.st9{fill:#9D68AA;}
	.st10{opacity:0.5;fill:#552F5E;}
	.st11{clip-path:url(#SVGID_2_);fill:#B22714;}
	.st12{fill:#FFD25A;}
	.st13{fill:#552F5E;}
	.st14{clip-path:url(#SVGID_4_);fill:#B22714;}
	.st15{fill:#AF79BC;}
	.st16{fill-rule:evenodd;clip-rule:evenodd;fill:#DD4026;}
	.st17{fill-rule:evenodd;clip-rule:evenodd;fill:#552F5E;}
	.st18{fill-rule:evenodd;clip-rule:evenodd;fill:#9D68AA;}
	.st19{fill-rule:evenodd;clip-rule:evenodd;fill:#FFB072;}
	.st20{fill:#E57E55;}
	.st21{fill:#FFFFFF;}
	.st22{fill:#FF8976;}
	.st23{fill:#DD4026;}
	.st24{opacity:0.5;fill:#E57E55;}
	.st25{fill:#FFDCAE;}
	.st26{fill:#F99441;}
	.st27{fill:#D36D29;}
	.st28{fill:#FFCC5A;}
	.st29{fill:#FFE3A4;}
	.st30{fill:#E4BCE8;}
	.st31{fill:#8D5B99;}
	.st32{fill:#C899CE;}
	.st33{fill:#D3D3D3;}
	.st34{fill:#E2E2E2;}
	.st35{fill:#F4F4F4;}
	.st36{fill:#7C4284;}
	.st37{fill:none;stroke:#3C8460;stroke-width:1.1603;stroke-miterlimit:10;}
	.st38{fill:#83B6E5;}
	.st39{fill:#6680FF;}
	.st40{fill:#FFAE44;}
	.st41{fill:#CAD5FF;}
	.st42{fill:#ED6D4F;}
	.st43{fill:#FFC176;}
	.st44{fill:#FEC524;}
	.st45{fill:none;stroke:#00B8D4;stroke-miterlimit:10;}
	.st46{fill:#00B8D4;}
	.st47{fill:#00899E;}
	.st48{fill:#E0E0E0;}
	.st49{fill:#002680;}
	.st50{fill:url(#SVGID_5_);}
	.st51{fill:#EEEEEE;}
	.st52{fill:none;stroke:#002680;stroke-miterlimit:10;}
	.st53{fill:url(#SVGID_6_);}
	.st54{fill:none;stroke:#00B8D4;stroke-width:4;stroke-miterlimit:10;}
	.st55{fill:url(#SVGID_7_);}
	.st56{fill:none;stroke:#FFFFFF;stroke-width:2;stroke-linecap:round;stroke-miterlimit:10;}
	.st57{fill:none;stroke:#FFFFFF;stroke-width:2;stroke-linecap:round;stroke-linejoin:round;stroke-miterlimit:10;}
	.st58{fill:url(#SVGID_8_);}
	.st59{fill:none;stroke:#263238;stroke-miterlimit:10;}
	.st60{fill:url(#SVGID_9_);}
	.st61{fill:url(#SVGID_10_);}
	.st62{fill:#FFFFFF;stroke:#00B8D4;stroke-width:2;stroke-miterlimit:10;}
	.st63{fill:none;stroke:#FFFFFF;stroke-width:2;stroke-miterlimit:10;}
	.st64{fill:url(#SVGID_11_);}
	.st65{fill:#000A8C;}
	.st66{fill:url(#SVGID_12_);}
	.st67{fill:url(#SVGID_13_);}
	.st68{fill-rule:evenodd;clip-rule:evenodd;fill:#000045;}
	.st69{fill-rule:evenodd;clip-rule:evenodd;fill:#FFFFFF;}
	.st70{fill-rule:evenodd;clip-rule:evenodd;fill:#3D61FF;}
	.st71{fill:#000045;}
</style>
<g>
	<path class="st45" d="M418.92,355.95h14.44c5.61,0,10.16-4.55,10.16-10.16v-15.35c0-9.53,7.73-17.26,17.26-17.26h76.11
		c10.93,0,19.79-8.86,19.79-19.79l0,0c0-10.93-8.86-19.79-19.79-19.79h-77.73l0,0c-13.33,0-24.14-10.81-24.14-24.14v-62.02
		c0-15.69-12.72-28.4-28.4-28.4l0,0c-15.69,0-28.4,12.72-28.4,28.4v65.33c0,12.03-9.75,21.78-21.78,21.78H119.21
		c-11.74,0-21.26,9.52-21.26,21.26l0,0c0,11.74,9.52,21.26,21.26,21.26h26.04c9.43,0,17.08,7.65,17.08,17.08v92.17
		c0,22.64,18.36,41,41,41h17.77"/>
	<path class="st46" d="M426.46,336.08c-10.36-12.07-25.46-19.01-41.35-19.01h-38.57h-68.26H239.7c-15.89,0-31,6.94-41.35,19.01
		c-2.95,3.44-4.5,7.87-4.5,12.4v17.83c0,1.84,1.49,3.34,3.34,3.34h48.3c1.84,0,3.34-1.49,3.34-3.34v-8.62
		c0-6.38-1.3-12.69-3.83-18.54h33.28h68.26h33.28c-2.53,5.86-3.83,12.16-3.83,18.54v8.62c0,1.84,1.49,3.34,3.34,3.34h48.3
		c1.84,0,3.34-1.49,3.34-3.34v-17.83C430.96,343.95,429.41,339.52,426.46,336.08z"/>
	<g>
		<path class="st46" d="M426.22,335.8c-10.35-11.9-25.34-18.73-41.11-18.73h-38.57h-68.26H239.7c-15.77,0-30.77,6.83-41.11,18.73
			c-3.06,3.52-4.74,8.02-4.74,12.68v5.22c0-4.66,1.68-9.16,4.74-12.68c10.35-11.9,25.34-18.73,41.11-18.73h38.57h68.26h38.57
			c15.77,0,30.77,6.83,41.11,18.73c3.06,3.52,4.74,8.02,4.74,12.68v-5.22C430.96,343.82,429.28,339.32,426.22,335.8z"/>
	</g>
	<path class="st46" d="M346.32,369.65H312.4h-33.92c0,0-57.38,22.55-57.38,97.68h91.3h91.3
		C403.71,392.19,346.32,369.65,346.32,369.65z"/>
	<path class="st46" d="M346.32,369.65h-9.09c0,0,57.38,22.55,57.38,97.68h9.09C403.71,392.19,346.32,369.65,346.32,369.65z"/>
	<path class="st46" d="M360.73,387.67c0-3.63-0.41-7.15-1.17-10.55c-7.67-5.28-13.24-7.47-13.24-7.47H312.4h-33.92
		c0,0-5.57,2.19-13.24,7.47c-0.76,3.4-1.17,6.93-1.17,10.55c0,26.69,21.64,48.33,48.33,48.33S360.73,414.36,360.73,387.67z"/>
	<rect x="221.1" y="467.32" class="st47" width="182.61" height="18.5"/>
	<rect x="394.62" y="467.32" class="st47" width="9.09" height="18.5"/>
	<circle class="st48" cx="312.4" cy="381.04" r="48.33"/>
	<circle class="st48" cx="312.4" cy="384.19" r="22.94"/>
	<path class="st48" d="M312.4,336.78c26.01,0,47.21,20.55,48.27,46.29c0.03-0.68,0.05-1.35,0.05-2.03
		c0-26.69-21.64-48.33-48.33-48.33s-48.33,21.64-48.33,48.33c0,0.68,0.02,1.36,0.05,2.03C265.2,357.33,286.4,336.78,312.4,336.78z"
		/>
	
		<ellipse transform="matrix(0.1508 -0.9886 0.9886 0.1508 -115.2037 635.6776)" class="st49" cx="312.4" cy="384.89" rx="22.94" ry="22.94"/>
	<linearGradient id="SVGID_2_" gradientUnits="userSpaceOnUse" x1="312.4044" y1="350.2632" x2="312.4044" y2="384.9209">
		<stop  offset="0" style="stop-color:#00C0F3"/>
		<stop  offset="1" style="stop-color:#00C0F3;stop-opacity:0"/>
	</linearGradient>
	<path style="fill:url(#SVGID_2_);" d="M312.4,361.61c12.08,0,21.95,9.34,22.85,21.18c0.04-0.58,0.09-1.16,0.09-1.75
		c0-12.67-10.27-22.94-22.94-22.94s-22.94,10.27-22.94,22.94c0,0.59,0.04,1.17,0.09,1.75C290.45,370.95,300.33,361.61,312.4,361.61z
		"/>
	<circle class="st49" cx="312.4" cy="345.55" r="6.63"/>
	<path class="st49" d="M319.04,416.53c0,3.66-2.97,6.63-6.63,6.63c-3.66,0-6.63-2.97-6.63-6.63c0-3.66,2.97-6.63,6.63-6.63
		C316.07,409.89,319.04,412.86,319.04,416.53z"/>
	<path class="st49" d="M292,351.26c2.59,2.59,2.59,6.79,0,9.38c-2.59,2.59-6.79,2.59-9.38,0c-2.59-2.59-2.59-6.79,0-9.38
		C285.21,348.67,289.41,348.67,292,351.26z"/>
	<path class="st49" d="M342.19,401.44c2.59,2.59,2.59,6.79,0,9.38c-2.59,2.59-6.79,2.59-9.38,0c-2.59-2.59-2.59-6.79,0-9.38
		C335.4,398.85,339.6,398.85,342.19,401.44z"/>
	<path class="st49" d="M276.92,374.41c3.66,0,6.63,2.97,6.63,6.63c0,3.66-2.97,6.63-6.63,6.63c-3.66,0-6.63-2.97-6.63-6.63
		C270.29,377.38,273.26,374.41,276.92,374.41z"/>
	<path class="st49" d="M347.89,374.41c3.66,0,6.63,2.97,6.63,6.63c0,3.66-2.97,6.63-6.63,6.63c-3.66,0-6.63-2.97-6.63-6.63
		C341.26,377.38,344.23,374.41,347.89,374.41z"/>
	<path class="st49" d="M282.62,401.44c2.59-2.59,6.79-2.59,9.38,0c2.59,2.59,2.59,6.79,0,9.38c-2.59,2.59-6.79,2.59-9.38,0
		S280.03,404.03,282.62,401.44z"/>
	<path class="st49" d="M332.81,351.26c2.59-2.59,6.79-2.59,9.38,0c2.59,2.59,2.59,6.79,0,9.38c-2.59,2.59-6.79,2.59-9.38,0
		C330.22,358.05,330.22,353.85,332.81,351.26z"/>
	<rect x="155.47" y="485.82" class="st49" width="313.87" height="12.17"/>
	<polygon class="st46" points="293.94,226.89 231.51,193.27 231.51,253.79 293.94,253.79 356.37,253.79 356.37,193.27 	"/>
	<polygon class="st46" points="231.51,193.27 293.94,154.79 356.37,193.27 293.94,226.89 	"/>
	<polygon class="st49" points="231.51,193.27 356.37,193.27 293.94,226.89 	"/>
	<polygon class="st51" points="342.76,136.86 293.94,136.86 245.12,136.86 245.12,200.6 293.94,226.89 293.94,226.89 293.94,226.89 
		293.94,226.89 293.94,226.89 342.76,200.6 	"/>
	<line class="st52" x1="266.96" y1="152.88" x2="331.22" y2="152.88"/>
	<line class="st52" x1="256.66" y1="159.03" x2="331.22" y2="159.03"/>
	<line class="st52" x1="256.66" y1="165.18" x2="331.22" y2="165.18"/>
	<line class="st52" x1="256.66" y1="171.34" x2="331.22" y2="171.34"/>
	<line class="st52" x1="256.66" y1="177.49" x2="331.22" y2="177.49"/>
	<line class="st52" x1="256.66" y1="183.65" x2="331.22" y2="183.65"/>
	<line class="st52" x1="256.66" y1="189.8" x2="331.22" y2="189.8"/>
	<line class="st52" x1="256.66" y1="195.96" x2="314.53" y2="195.96"/>
	<linearGradient id="SVGID_4_" gradientUnits="userSpaceOnUse" x1="456.5576" y1="215.2473" x2="532.0663" y2="215.2473">
		<stop  offset="0" style="stop-color:#000A8C"/>
		<stop  offset="0.1706" style="stop-color:#0032A2"/>
		<stop  offset="0.4573" style="stop-color:#006EC5"/>
		<stop  offset="0.7012" style="stop-color:#009BDE"/>
		<stop  offset="0.8897" style="stop-color:#00B6ED"/>
		<stop  offset="1" style="stop-color:#00C0F3"/>
	</linearGradient>
	<circle style="fill:url(#SVGID_4_);" cx="494.31" cy="215.25" r="37.75"/>
	<g>
		<path class="st21" d="M501.14,230.77c-2.5,1.21-4.82,1.64-7.79,1.64c-7.1,0-13.26-5.17-13.26-13.56c0-8.83,6.29-16.45,15.93-16.45
			c7.58,0,12.79,5.25,12.79,12.44c0,6.37-3.57,10.25-7.92,10.25c-1.89,0-3.4-1.08-3.49-3.53h-0.13c-1.42,2.37-3.36,3.53-5.77,3.53
			c-2.67,0-4.78-2.07-4.78-5.51c0-5.3,4.05-10.12,10.16-10.12c1.89,0,3.79,0.43,4.91,0.99l-1.38,7.88
			c-0.52,2.89-0.13,4.22,1.16,4.22c2.02,0.09,4.39-2.54,4.39-7.49c0-5.94-3.66-10.33-10.33-10.33c-6.8,0-12.62,5.34-12.62,13.82
			c0,7.19,4.65,11.45,11.02,11.45c2.33,0,4.65-0.52,6.37-1.42L501.14,230.77z M497.99,212.6c-0.43-0.13-0.99-0.26-1.72-0.26
			c-3.27,0-5.86,3.19-5.86,6.85c0,1.77,0.82,2.97,2.41,2.97c2.02,0,3.96-2.58,4.39-5.12L497.99,212.6z"/>
	</g>
	<g>
		
			<ellipse transform="matrix(0.1654 -0.9862 0.9862 0.1654 -72.8835 276.0653)" class="st54" cx="126.67" cy="181.09" rx="68.88" ry="68.88"/>
		<ellipse class="st54" cx="126.67" cy="181.09" rx="41.98" ry="68.88"/>
		<line class="st54" x1="126.67" y1="112.21" x2="126.67" y2="249.98"/>
		<line class="st54" x1="57.79" y1="181.09" x2="195.55" y2="181.09"/>
	</g>
	<linearGradient id="SVGID_5_" gradientUnits="userSpaceOnUse" x1="148.0778" y1="133.0765" x2="210.2127" y2="133.0765">
		<stop  offset="0" style="stop-color:#000A8C"/>
		<stop  offset="0.1706" style="stop-color:#0032A2"/>
		<stop  offset="0.4573" style="stop-color:#006EC5"/>
		<stop  offset="0.7012" style="stop-color:#009BDE"/>
		<stop  offset="0.8897" style="stop-color:#00B6ED"/>
		<stop  offset="1" style="stop-color:#00C0F3"/>
	</linearGradient>
	<circle class="st50" cx="179.15" cy="133.08" r="31.07"/>
	<g>
		<path class="st56" d="M160.86,121.04c3.88-5.77,10.47-9.57,17.95-9.57c11.94,0,21.61,9.68,21.61,21.61
			c0,11.94-9.68,21.61-21.61,21.61c-10.09,0-18.56-6.91-20.94-16.25"/>
		<polyline class="st57" points="159.88,115.44 160.86,121.04 167.01,120.66 		"/>
		<g>
			<path class="st21" d="M172.62,136.44v1.75h-8.22v-1.39l4.43-4.21c1.08-1.04,1.27-1.69,1.27-2.31c0-1.02-0.7-1.61-2.07-1.61
				c-1.08,0-1.99,0.37-2.61,1.16l-1.45-1.11c0.86-1.16,2.41-1.85,4.24-1.85c2.42,0,3.98,1.23,3.98,3.2c0,1.08-0.3,2.07-1.85,3.52
				l-2.98,2.84H172.62z"/>
			<path class="st21" d="M183.52,135.66h-1.98v2.53h-2.01v-2.53h-6.12v-1.43l5.5-7.18h2.21l-5.18,6.87h3.65v-2.25h1.94v2.25h1.98
				V135.66z"/>
			<path class="st21" d="M193.39,133.32v4.87h-1.99v-4.62c0-1.51-0.75-2.25-2.02-2.25c-1.42,0-2.37,0.86-2.37,2.56v4.3h-1.99v-11.82
				H187v4.3c0.65-0.7,1.66-1.08,2.83-1.08C191.87,129.59,193.39,130.75,193.39,133.32z"/>
		</g>
	</g>
	
		<linearGradient id="SVGID_6_" gradientUnits="userSpaceOnUse" x1="52.688" y1="396.3845" x2="162.5943" y2="396.3845" gradientTransform="matrix(-1 0 0 1 192.3256 0)">
		<stop  offset="0" style="stop-color:#000A8C"/>
		<stop  offset="0.1706" style="stop-color:#0032A2"/>
		<stop  offset="0.4573" style="stop-color:#006EC5"/>
		<stop  offset="0.7012" style="stop-color:#009BDE"/>
		<stop  offset="0.8897" style="stop-color:#00B6ED"/>
		<stop  offset="1" style="stop-color:#00C0F3"/>
	</linearGradient>
	<path class="st53" d="M31.7,431.08h105.98c1.08,0,1.96-0.88,1.96-1.96v-65.46c0-1.08-0.88-1.96-1.96-1.96H31.7
		c-1.08,0-1.96,0.88-1.96,1.96v65.46C29.73,430.2,30.61,431.08,31.7,431.08z"/>
	<path class="st51" d="M124.07,419.59H18.09c-1.08,0-1.96-0.88-1.96-1.96v-65.46c0-1.08,0.88-1.96,1.96-1.96h105.98
		c1.08,0,1.96,0.88,1.96,1.96v65.46C126.03,418.71,125.15,419.59,124.07,419.59z"/>
	<g>
		<g>
			<circle class="st49" cx="42" cy="374.98" r="16.42"/>
			<g>
				<circle class="st51" cx="42" cy="369.3" r="5.5"/>
				<path class="st51" d="M42,376.04c-8.52,0-7.28,10.12-7.28,10.12H42h7.28C49.28,386.16,50.52,376.04,42,376.04z"/>
			</g>
		</g>
		<line class="st59" x1="67.58" y1="364.73" x2="116.58" y2="364.73"/>
		<line class="st59" x1="67.58" y1="373.46" x2="116.58" y2="373.46"/>
		<line class="st59" x1="67.58" y1="382.19" x2="116.58" y2="382.19"/>
		<line class="st59" x1="67.58" y1="390.91" x2="116.58" y2="390.91"/>
		<line class="st59" x1="25.58" y1="399.64" x2="116.58" y2="399.64"/>
		<line class="st59" x1="25.58" y1="408.36" x2="116.58" y2="408.36"/>
	</g>
	<g>
		<linearGradient id="SVGID_7_" gradientUnits="userSpaceOnUse" x1="427.2941" y1="408.5529" x2="545.0561" y2="408.5529">
			<stop  offset="0" style="stop-color:#000A8C"/>
			<stop  offset="0.1706" style="stop-color:#0032A2"/>
			<stop  offset="0.4573" style="stop-color:#006EC5"/>
			<stop  offset="0.7012" style="stop-color:#009BDE"/>
			<stop  offset="0.8897" style="stop-color:#00B6ED"/>
			<stop  offset="1" style="stop-color:#00C0F3"/>
		</linearGradient>
		<path class="st55" d="M438.25,444.88h95.84c6.05,0,10.96-4.91,10.96-10.96v-50.73c0-6.05-4.91-10.96-10.96-10.96h-95.84
			c-6.05,0-10.96,4.91-10.96,10.96v50.73C427.29,439.97,432.2,444.88,438.25,444.88z"/>
		<linearGradient id="SVGID_8_" gradientUnits="userSpaceOnUse" x1="441.3195" y1="454.5823" x2="459.7825" y2="454.5823">
			<stop  offset="0" style="stop-color:#000A8C"/>
			<stop  offset="0.1706" style="stop-color:#0032A2"/>
			<stop  offset="0.4573" style="stop-color:#006EC5"/>
			<stop  offset="0.7012" style="stop-color:#009BDE"/>
			<stop  offset="0.8897" style="stop-color:#00B6ED"/>
			<stop  offset="1" style="stop-color:#00C0F3"/>
		</linearGradient>
		<polygon class="st58" points="459.78,444.88 441.32,464.29 442.86,444.88 		"/>
	</g>
	<g>
		<path class="st51" d="M572.92,425.09h-95.84c-6.05,0-10.96-4.91-10.96-10.96V363.4c0-6.05,4.91-10.96,10.96-10.96h95.84
			c6.05,0,10.96,4.91,10.96,10.96v50.73C583.88,420.18,578.97,425.09,572.92,425.09z"/>
		<polygon class="st51" points="551.39,425.09 569.85,444.5 568.31,425.09 		"/>
		<circle class="st49" cx="495.76" cy="388.76" r="6.15"/>
		<circle class="st49" cx="524.99" cy="388.76" r="6.15"/>
		<path class="st49" d="M560.38,388.76c0,3.4-2.76,6.15-6.15,6.15c-3.4,0-6.15-2.76-6.15-6.15c0-3.4,2.76-6.15,6.15-6.15
			C557.63,382.61,560.38,385.36,560.38,388.76z"/>
	</g>
	<path class="st62" d="M375.2,142.92c0,2.61-2.12,4.73-4.73,4.73c-2.61,0-4.73-2.12-4.73-4.73c0-2.61,2.12-4.73,4.73-4.73
		C373.08,138.19,375.2,140.31,375.2,142.92z"/>
	<path class="st62" d="M89.41,327.99c0,2.61-2.12,4.73-4.73,4.73c-2.61,0-4.73-2.12-4.73-4.73c0-2.61,2.12-4.73,4.73-4.73
		C87.3,323.26,89.41,325.37,89.41,327.99z"/>
	<path class="st63" d="M207.78,245.25c0,2.61-2.12,4.73-4.73,4.73c-2.61,0-4.73-2.12-4.73-4.73s2.12-4.73,4.73-4.73
		C205.66,240.52,207.78,242.63,207.78,245.25z"/>
	<path class="st62" d="M558.96,253c0,2.61-2.12,4.73-4.73,4.73c-2.61,0-4.73-2.12-4.73-4.73c0-2.61,2.12-4.73,4.73-4.73
		C556.84,248.27,558.96,250.39,558.96,253z"/>
	<path class="st62" d="M479.16,335.38c0,2.61-2.12,4.73-4.73,4.73c-2.61,0-4.73-2.12-4.73-4.73c0-2.61,2.12-4.73,4.73-4.73
		C477.04,330.66,479.16,332.77,479.16,335.38z"/>
	<path class="st63" d="M200.28,436c0,2.61-2.12,4.73-4.73,4.73c-2.61,0-4.73-2.12-4.73-4.73c0-2.61,2.12-4.73,4.73-4.73
		C198.16,431.27,200.28,433.38,200.28,436z"/>
</g>
</svg>
