<?xml version="1.0" encoding="utf-8"?>
<!-- Generator: Adobe Illustrator 25.2.1, SVG Export Plug-In . SVG Version: 6.00 Build 0)  -->
<svg version="1.1" id="Layer_1" xmlns="http://www.w3.org/2000/svg" xmlns:xlink="http://www.w3.org/1999/xlink" x="0px" y="0px"
	 viewBox="0 0 600 600" style="enable-background:new 0 0 600 600;" xml:space="preserve">
<style type="text/css">
	.st0{fill-rule:evenodd;clip-rule:evenodd;fill:#FF8976;}
	.st1{fill-rule:evenodd;clip-rule:evenodd;fill:#EF6456;}
	.st2{opacity:0.3;fill-rule:evenodd;clip-rule:evenodd;fill:#BA2B27;}
	.st3{fill-rule:evenodd;clip-rule:evenodd;fill:#7C4284;}
	.st4{fill-rule:evenodd;clip-rule:evenodd;fill:#3E2344;}
	.st5{fill:#3E2344;}
	.st6{fill-rule:evenodd;clip-rule:evenodd;fill:#A1ABAD;}
	.st7{fill:#FFB072;}
	.st8{fill:#764582;}
	.st9{fill:#9D68AA;}
	.st10{opacity:0.5;fill:#552F5E;}
	.st11{clip-path:url(#SVGID_2_);fill:#B22714;}
	.st12{fill:#FFD25A;}
	.st13{fill:#552F5E;}
	.st14{clip-path:url(#SVGID_4_);fill:#B22714;}
	.st15{fill:#AF79BC;}
	.st16{fill-rule:evenodd;clip-rule:evenodd;fill:#DD4026;}
	.st17{fill-rule:evenodd;clip-rule:evenodd;fill:#552F5E;}
	.st18{fill-rule:evenodd;clip-rule:evenodd;fill:#9D68AA;}
	.st19{fill-rule:evenodd;clip-rule:evenodd;fill:#FFB072;}
	.st20{fill:#E57E55;}
	.st21{fill:#FFFFFF;}
	.st22{fill:#FF8976;}
	.st23{fill:#DD4026;}
	.st24{opacity:0.5;fill:#E57E55;}
	.st25{fill:#FFDCAE;}
	.st26{fill:#F99441;}
	.st27{fill:#D36D29;}
	.st28{fill:#FFCC5A;}
	.st29{fill:#FFE3A4;}
	.st30{fill:#E4BCE8;}
	.st31{fill:#8D5B99;}
	.st32{fill:#C899CE;}
	.st33{fill:#D3D3D3;}
	.st34{fill:#E2E2E2;}
	.st35{fill:#F4F4F4;}
	.st36{fill:#7C4284;}
	.st37{fill:none;stroke:#3C8460;stroke-width:1.1603;stroke-miterlimit:10;}
	.st38{fill:#83B6E5;}
	.st39{fill:#6680FF;}
	.st40{fill:#FFAE44;}
	.st41{fill:#CAD5FF;}
	.st42{fill:#ED6D4F;}
	.st43{fill:#FFC176;}
	.st44{fill:#FEC524;}
	.st45{fill:none;stroke:#00B8D4;stroke-miterlimit:10;}
	.st46{fill:#00B8D4;}
	.st47{fill:#00899E;}
	.st48{fill:#E0E0E0;}
	.st49{fill:#002680;}
	.st50{fill:url(#SVGID_5_);}
	.st51{fill:#EEEEEE;}
	.st52{fill:none;stroke:#002680;stroke-miterlimit:10;}
	.st53{fill:url(#SVGID_6_);}
	.st54{fill:none;stroke:#00B8D4;stroke-width:4;stroke-miterlimit:10;}
	.st55{fill:url(#SVGID_7_);}
	.st56{fill:none;stroke:#FFFFFF;stroke-width:2;stroke-linecap:round;stroke-miterlimit:10;}
	.st57{fill:none;stroke:#FFFFFF;stroke-width:2;stroke-linecap:round;stroke-linejoin:round;stroke-miterlimit:10;}
	.st58{fill:url(#SVGID_8_);}
	.st59{fill:none;stroke:#263238;stroke-miterlimit:10;}
	.st60{fill:url(#SVGID_9_);}
	.st61{fill:url(#SVGID_10_);}
	.st62{fill:#FFFFFF;stroke:#00B8D4;stroke-width:2;stroke-miterlimit:10;}
	.st63{fill:none;stroke:#FFFFFF;stroke-width:2;stroke-miterlimit:10;}
	.st64{fill:url(#SVGID_11_);}
	.st65{fill:#000A8C;}
	.st66{fill:url(#SVGID_12_);}
	.st67{fill:url(#SVGID_13_);}
	.st68{fill-rule:evenodd;clip-rule:evenodd;fill:#000045;}
	.st69{fill-rule:evenodd;clip-rule:evenodd;fill:#FFFFFF;}
	.st70{fill-rule:evenodd;clip-rule:evenodd;fill:#3D61FF;}
	.st71{fill:#000045;}
</style>
<g>
	<path class="st68" d="M228.08,213.14c0-2.28-0.88-4.44-2.49-6.06c-1.61-1.6-3.79-2.49-6.05-2.49c-28.53,0-120.36,0-148.89,0
		c-2.27,0-4.45,0.89-6.05,2.49c-1.61,1.62-2.51,3.78-2.51,6.06c0,20.68,0,73.33,0,94.02c0,2.26,0.9,4.44,2.51,6.04
		c1.61,1.62,3.79,2.51,6.05,2.51c28.53,0,120.36,0,148.89,0c2.27,0,4.45-0.89,6.05-2.51c1.61-1.59,2.49-3.77,2.49-6.04
		C228.08,286.48,228.08,233.82,228.08,213.14z"/>
	<path class="st69" d="M208.75,143.7c0-3.92-3.17-7.1-7.1-7.1c-22.24,0-90.17,0-112.41,0c-3.93,0-7.12,3.18-7.12,7.1
		c0,19.97,0,75.01,0,75.01s39.32,29.65,56,42.23c4.33,3.28,10.31,3.28,14.65,0c16.68-12.58,56-42.23,56-42.23
		S208.75,163.67,208.75,143.7z"/>
	<path class="st68" d="M209.79,143.7c0-4.5-3.66-8.13-8.15-8.13H89.24c-4.5,0-8.15,3.63-8.15,8.13c0,19.97,0,75.01,0,75.01
		c0,0.33,0.15,0.62,0.42,0.81c0,0,39.3,29.67,55.98,42.23c4.7,3.56,11.19,3.56,15.89,0c16.68-12.55,56-42.23,56-42.23
		c0.27-0.19,0.42-0.48,0.42-0.81V143.7z M207.73,143.7v74.51c-4.2,3.16-39.91,30.1-55.58,41.92c-3.98,2.99-9.46,2.99-13.44,0
		l-55.58-41.92V143.7c0-3.35,2.74-6.1,6.1-6.1h112.41C205.01,137.6,207.73,140.35,207.73,143.7z"/>
	<path class="st69" d="M64.5,206.73c0,0,53.06,40.02,72.94,54.98c4.72,3.57,11.27,3.57,15.99,0c19.85-14.96,72.93-54.98,72.93-54.98
		c0.43-0.35,0.53-0.99,0.19-1.44c-0.34-0.45-0.98-0.55-1.44-0.2c0,0-53.06,40.02-72.91,54.99c-4,3.03-9.54,3.03-13.55,0
		c-19.85-14.96-72.91-54.99-72.91-54.99c-0.46-0.35-1.1-0.25-1.44,0.2C63.97,205.74,64.04,206.38,64.5,206.73z"/>
	<path class="st70" d="M101.91,163.15h44.89c0.57,0,1.03-0.46,1.03-1.03c0-0.55-0.46-1.01-1.03-1.01h-44.89
		c-0.55,0-1.01,0.46-1.01,1.01C100.9,162.69,101.36,163.15,101.91,163.15z"/>
	<path class="st70" d="M101.85,181.21h86.35c0.59,0,1.06-0.47,1.06-1.06c0-0.55-0.47-1.02-1.06-1.02h-86.35
		c-0.55,0-1.02,0.47-1.02,1.02C100.83,180.75,101.29,181.21,101.85,181.21z"/>
	<path class="st70" d="M101.85,199.27h86.35c0.59,0,1.06-0.47,1.06-1.06c0-0.55-0.47-1.02-1.06-1.02h-86.35
		c-0.55,0-1.02,0.47-1.02,1.02C100.83,198.8,101.29,199.27,101.85,199.27z"/>
	<path class="st70" d="M101.85,217.3h86.35c0.59,0,1.06-0.47,1.06-1.06c0-0.55-0.47-1.02-1.06-1.02h-86.35
		c-0.55,0-1.02,0.47-1.02,1.02C100.83,216.84,101.29,217.3,101.85,217.3z"/>
	<path class="st68" d="M214.64,273.61l4.49,8.09c0.28,0.51,0.9,0.68,1.39,0.41c0.49-0.27,0.68-0.91,0.4-1.39l-4.49-8.11
		c-0.28-0.48-0.9-0.68-1.39-0.41C214.55,272.49,214.36,273.1,214.64,273.61z"/>
	<path class="st70" d="M77.1,130.57L49.03,102.5c-0.4-0.4-1.05-0.4-1.45,0c-0.4,0.4-0.4,1.05,0,1.45l28.07,28.06
		c0.4,0.4,1.05,0.4,1.45,0C77.5,131.62,77.5,130.97,77.1,130.57z"/>
	<path class="st70" d="M89.22,118.16l-5.55-20.72c-0.15-0.55-0.71-0.87-1.26-0.72c-0.55,0.15-0.87,0.71-0.73,1.25l5.55,20.72
		c0.15,0.55,0.71,0.87,1.26,0.72C89.04,119.27,89.36,118.71,89.22,118.16z"/>
	<path class="st70" d="M63.77,142.16l-22.39-6c-0.55-0.15-1.11,0.18-1.25,0.72c-0.15,0.55,0.18,1.11,0.72,1.26l22.39,6
		c0.55,0.15,1.11-0.18,1.26-0.72C64.64,142.86,64.32,142.3,63.77,142.16z"/>
	<path class="st68" d="M372.2,187.25c2.07,0.26,4.14,0.44,6.19,0.55c0.57,0.04,1.05-0.4,1.08-0.97c0.02-0.57-0.4-1.03-0.97-1.08
		c-2.01-0.09-4.01-0.29-6.05-0.53c-0.55-0.09-1.08,0.31-1.14,0.88C371.24,186.65,371.63,187.18,372.2,187.25z M390.83,187.51
		c2.09-0.22,4.16-0.51,6.16-0.88c0.57-0.11,0.95-0.64,0.84-1.19c-0.11-0.55-0.64-0.92-1.19-0.84c-1.98,0.37-3.99,0.66-6.01,0.86
		c-0.57,0.04-0.97,0.55-0.93,1.12C389.77,187.14,390.28,187.56,390.83,187.51z M354.06,182.93c1.98,0.7,3.97,1.32,5.95,1.87
		c0.53,0.13,1.1-0.18,1.25-0.73c0.15-0.55-0.17-1.1-0.73-1.25c-1.91-0.53-3.85-1.15-5.79-1.83c-0.53-0.18-1.12,0.11-1.3,0.64
		C353.25,182.16,353.53,182.76,354.06,182.93z M409.04,183.46c1.98-0.68,3.92-1.45,5.81-2.27c0.51-0.24,0.75-0.84,0.53-1.36
		c-0.24-0.51-0.84-0.75-1.37-0.53c-1.83,0.81-3.72,1.56-5.64,2.22c-0.55,0.2-0.81,0.77-0.63,1.32
		C407.94,183.37,408.51,183.66,409.04,183.46z M337.15,175.16c1.83,1.06,3.65,2.03,5.48,2.93c0.51,0.26,1.1,0.07,1.37-0.44
		c0.24-0.51,0.04-1.12-0.46-1.39c-1.79-0.88-3.57-1.85-5.37-2.86c-0.49-0.29-1.12-0.11-1.39,0.37
		C336.5,174.26,336.67,174.9,337.15,175.16z M425.81,175.29c1.76-1.14,3.46-2.36,5.09-3.61c0.44-0.33,0.52-0.97,0.19-1.43
		c-0.35-0.44-0.99-0.53-1.45-0.18c-1.58,1.21-3.24,2.38-4.95,3.48c-0.47,0.31-0.62,0.95-0.31,1.43
		C424.69,175.45,425.32,175.6,425.81,175.29z M321.74,164.92c1.43,0.95,2.86,1.96,4.29,3.02c0.24,0.15,0.47,0.33,0.71,0.48
		c0.46,0.33,1.1,0.24,1.43-0.22c0.33-0.46,0.22-1.1-0.24-1.43c-0.22-0.18-0.44-0.33-0.66-0.51c-1.48-1.08-2.95-2.09-4.4-3.04
		c-0.49-0.33-1.12-0.2-1.43,0.29C321.13,163.98,321.26,164.62,321.74,164.92z M440.1,163.3c1.43-1.54,2.78-3.13,4.05-4.76
		c0.33-0.44,0.24-1.1-0.19-1.43c-0.44-0.35-1.1-0.26-1.44,0.18c-1.23,1.59-2.53,3.13-3.92,4.62c-0.38,0.42-0.35,1.06,0.06,1.45
		C439.06,163.74,439.73,163.71,440.1,163.3z M235.71,162.48c0,0,1.85-1.28,5.22-2.99c0.48-0.24,0.7-0.86,0.44-1.36
		c-0.26-0.51-0.88-0.71-1.39-0.46c-3.5,1.81-5.44,3.15-5.44,3.15c-0.46,0.31-0.59,0.95-0.26,1.41
		C234.6,162.7,235.24,162.81,235.71,162.48z M305.61,156.45c1.85,0.73,3.7,1.56,5.57,2.47c0.5,0.24,1.12,0.02,1.36-0.48
		c0.24-0.51,0.04-1.12-0.46-1.36c-1.92-0.92-3.83-1.76-5.7-2.51c-0.52-0.22-1.12,0.04-1.32,0.57
		C304.83,155.63,305.1,156.25,305.61,156.45z M252.13,154.86c1.83-0.59,3.76-1.17,5.83-1.67c0.55-0.13,0.88-0.7,0.75-1.26
		c-0.13-0.55-0.7-0.88-1.23-0.75c-2.14,0.53-4.12,1.12-5.99,1.72c-0.55,0.18-0.84,0.77-0.66,1.3
		C251.01,154.75,251.58,155.04,252.13,154.86z M288.08,151.67c1.96,0.29,3.94,0.66,5.97,1.14c0.55,0.13,1.1-0.22,1.23-0.77
		c0.11-0.55-0.22-1.1-0.77-1.23c-2.07-0.48-4.12-0.86-6.12-1.17c-0.57-0.09-1.08,0.31-1.17,0.86
		C287.13,151.08,287.53,151.58,288.08,151.67z M269.92,151.17c1.96-0.18,3.98-0.29,6.08-0.31c0.55-0.02,1.01-0.48,1.01-1.04
		c-0.02-0.57-0.48-1.03-1.03-1.01c-2.14,0.02-4.23,0.13-6.23,0.31c-0.57,0.04-0.99,0.55-0.92,1.12
		C268.86,150.79,269.37,151.21,269.92,151.17z"/>
	<path class="st70" d="M243.42,482.67c2,0.11,4.07,0.18,6.19,0.2c0.57,0,1.04-0.44,1.04-1.01c0-0.57-0.46-1.03-1.01-1.03
		c-2.09-0.02-4.12-0.09-6.1-0.2c-0.57-0.02-1.06,0.42-1.08,0.97C242.41,482.17,242.85,482.65,243.42,482.67z M261.98,482.46
		c2.03-0.15,4.07-0.35,6.16-0.59c0.57-0.07,0.97-0.57,0.9-1.14c-0.07-0.55-0.57-0.97-1.14-0.91c-2.05,0.24-4.07,0.44-6.08,0.59
		c-0.57,0.04-0.99,0.53-0.95,1.1C260.93,482.06,261.43,482.5,261.98,482.46z M224.97,480.3c1.98,0.42,4.03,0.79,6.12,1.12
		c0.55,0.09,1.08-0.31,1.17-0.86c0.09-0.57-0.31-1.08-0.86-1.16c-2.07-0.33-4.05-0.68-6.01-1.1c-0.55-0.11-1.1,0.24-1.21,0.79
		C224.07,479.66,224.42,480.19,224.97,480.3z M280.39,480.01c1.98-0.37,4.01-0.79,6.05-1.25c0.55-0.11,0.9-0.66,0.77-1.21
		c-0.11-0.55-0.66-0.9-1.21-0.79c-2.03,0.46-4.03,0.86-6.01,1.23c-0.55,0.11-0.92,0.64-0.81,1.19
		C279.29,479.75,279.81,480.1,280.39,480.01z M207.14,474.99c1.89,0.75,3.83,1.46,5.86,2.11c0.53,0.18,1.1-0.11,1.28-0.66
		c0.18-0.53-0.11-1.1-0.64-1.28c-1.98-0.66-3.9-1.34-5.72-2.09c-0.53-0.2-1.12,0.06-1.34,0.59
		C206.37,474.2,206.61,474.79,207.14,474.99z M298.42,475.81c1.96-0.53,3.94-1.06,5.95-1.61c0.55-0.15,0.88-0.7,0.72-1.25
		c-0.15-0.55-0.72-0.88-1.25-0.73c-2.01,0.55-3.99,1.08-5.95,1.58c-0.55,0.15-0.88,0.73-0.73,1.26
		C297.32,475.61,297.87,475.94,298.42,475.81z M316.23,470.88c1.94-0.55,3.92-1.12,5.9-1.7c0.55-0.17,0.86-0.72,0.71-1.27
		c-0.16-0.55-0.73-0.86-1.28-0.71c-1.99,0.57-3.94,1.14-5.9,1.72c-0.55,0.15-0.86,0.7-0.7,1.25
		C315.11,470.72,315.68,471.03,316.23,470.88z M190.54,466.6c1.7,1.08,3.48,2.11,5.35,3.15c0.51,0.26,1.12,0.06,1.39-0.42
		c0.29-0.51,0.09-1.12-0.4-1.39c-1.85-1.01-3.59-2.02-5.26-3.08c-0.48-0.29-1.12-0.15-1.41,0.33
		C189.9,465.68,190.06,466.32,190.54,466.6z M333.95,465.7c1.94-0.57,3.92-1.17,5.88-1.76c0.55-0.15,0.86-0.73,0.71-1.28
		c-0.18-0.53-0.75-0.84-1.28-0.68c-1.98,0.59-3.94,1.17-5.9,1.76c-0.55,0.15-0.86,0.73-0.68,1.25
		C332.83,465.55,333.4,465.86,333.95,465.7z M351.63,460.44c1.96-0.59,3.92-1.17,5.9-1.76c0.52-0.15,0.84-0.73,0.68-1.28
		c-0.16-0.52-0.73-0.84-1.28-0.68c-1.96,0.6-3.94,1.17-5.9,1.76c-0.53,0.15-0.84,0.73-0.68,1.26
		C350.51,460.29,351.08,460.59,351.63,460.44z M175.77,455.25c1.43,1.34,2.97,2.73,4.67,4.11c0.44,0.35,1.1,0.29,1.45-0.15
		c0.35-0.44,0.29-1.08-0.13-1.43c-1.67-1.37-3.19-2.71-4.58-4.01c-0.42-0.4-1.06-0.38-1.45,0.04
		C175.33,454.21,175.35,454.87,175.77,455.25z M369.33,455.22c1.96-0.57,3.92-1.14,5.9-1.72c0.53-0.15,0.86-0.72,0.7-1.25
		c-0.15-0.55-0.73-0.86-1.28-0.71c-1.98,0.57-3.94,1.12-5.9,1.7c-0.55,0.18-0.86,0.75-0.71,1.28
		C368.21,455.07,368.78,455.37,369.33,455.22z M387.05,450.16c1.98-0.55,3.94-1.08,5.92-1.63c0.55-0.15,0.88-0.7,0.73-1.25
		c-0.15-0.55-0.73-0.86-1.26-0.73c-1.98,0.55-3.96,1.1-5.94,1.65c-0.55,0.13-0.86,0.7-0.71,1.25
		C385.96,450,386.5,450.31,387.05,450.16z M163.68,441c0,0,1.17,2.01,3.63,5.13c0.35,0.44,1.01,0.5,1.45,0.15
		c0.44-0.35,0.51-0.99,0.15-1.43c-2.36-3-3.48-4.89-3.48-4.89c-0.29-0.48-0.9-0.66-1.39-0.37C163.55,439.88,163.4,440.52,163.68,441
		z M404.86,445.38c1.99-0.51,3.97-1.01,5.95-1.51c0.55-0.13,0.88-0.68,0.75-1.23c-0.13-0.55-0.7-0.88-1.25-0.75
		c-1.98,0.49-3.97,0.99-5.97,1.52c-0.55,0.13-0.88,0.71-0.73,1.26C403.74,445.18,404.31,445.51,404.86,445.38z M422.74,441
		c2.01-0.46,4.01-0.92,5.99-1.36c0.57-0.11,0.9-0.66,0.79-1.21c-0.13-0.55-0.66-0.9-1.23-0.79c-1.98,0.44-3.99,0.9-6.01,1.37
		c-0.55,0.13-0.88,0.68-0.75,1.23C421.64,440.78,422.19,441.11,422.74,441z M531.54,436.44c1.94,0.64,3.83,1.37,5.68,2.13
		c0.52,0.22,1.12-0.02,1.34-0.52c0.22-0.53-0.02-1.12-0.55-1.35c-1.87-0.81-3.83-1.54-5.81-2.2c-0.55-0.2-1.12,0.11-1.3,0.64
		C530.73,435.67,531.02,436.26,531.54,436.44z M440.75,437.14c2.02-0.4,4.03-0.77,6.03-1.12c0.57-0.11,0.93-0.63,0.84-1.19
		c-0.11-0.57-0.64-0.92-1.19-0.84c-2.02,0.38-4.03,0.75-6.05,1.15c-0.57,0.11-0.93,0.64-0.82,1.19
		C439.67,436.88,440.2,437.25,440.75,437.14z M458.89,434.04c2.04-0.31,4.07-0.57,6.07-0.84c0.57-0.06,0.97-0.59,0.88-1.14
		c-0.06-0.57-0.57-0.97-1.14-0.88c-2.02,0.24-4.05,0.53-6.1,0.84c-0.57,0.07-0.95,0.59-0.88,1.14
		C457.81,433.73,458.34,434.13,458.89,434.04z M513.75,432.41c2.05,0.29,4.05,0.62,6.04,0.99c0.55,0.11,1.08-0.26,1.19-0.81
		c0.11-0.55-0.27-1.1-0.82-1.21c-2-0.37-4.05-0.7-6.12-0.99c-0.55-0.09-1.08,0.31-1.14,0.88
		C512.81,431.82,513.2,432.35,513.75,432.41z M477.17,431.93c2.04-0.17,4.09-0.31,6.09-0.42c0.57-0.04,1.01-0.53,0.97-1.08
		c-0.02-0.57-0.51-1.01-1.08-0.97c-2.02,0.11-4.09,0.24-6.16,0.42c-0.57,0.04-0.99,0.55-0.95,1.1
		C476.11,431.56,476.59,431.97,477.17,431.93z M495.5,431.2c2.04,0,4.09,0.06,6.1,0.15c0.57,0.02,1.05-0.42,1.07-0.99
		c0.02-0.55-0.42-1.03-0.99-1.06c-2.02-0.09-4.09-0.15-6.18-0.15c-0.55-0.02-1.01,0.44-1.01,1.01
		C494.47,430.72,494.93,431.18,495.5,431.2z"/>
	<path class="st70" d="M229.65,433c-3.19,0-5.79,2.6-5.79,5.79c0,3.21,2.6,5.81,5.79,5.81c3.21,0,5.81-2.59,5.81-5.81
		C235.46,435.6,232.86,433,229.65,433z M229.65,435.05c2.09,0,3.77,1.67,3.77,3.74c0,2.09-1.67,3.76-3.77,3.76
		c-2.07,0-3.74-1.67-3.74-3.76C225.91,436.72,227.58,435.05,229.65,435.05z"/>
	<path class="st68" d="M488.02,274.84c-2.51,0-4.52,2.03-4.52,4.51c0,2.48,2.01,4.51,4.52,4.51c2.48,0,4.51-2.03,4.51-4.51
		C492.53,276.88,490.5,274.84,488.02,274.84z M488.02,276.9c1.35,0,2.46,1.1,2.46,2.46c0,1.35-1.1,2.46-2.46,2.46
		c-1.38,0-2.49-1.1-2.49-2.46C485.54,278,486.64,276.9,488.02,276.9z"/>
	<path class="st68" d="M129.86,381.34c-0.34-0.19-0.78-0.17-1.11,0.07c-0.32,0.25-0.46,0.67-0.36,1.05l13.04,54.16
		c0.08,0.31,0.31,0.57,0.59,0.69c0.31,0.13,0.65,0.11,0.92-0.05l23.27-13.43l22.47-8.38c0.36-0.13,0.63-0.48,0.65-0.88
		c0.04-0.4-0.17-0.78-0.52-0.98L129.86,381.34z M130.91,384.24c0,0,44.92,24.59,54.95,30.08l-20.44,7.61
		c-0.06,0.02-0.1,0.04-0.15,0.08l-22.15,12.79L130.91,384.24z"/>
	<path class="st70" d="M471.45,108.26c0.1-0.4-0.05-0.8-0.37-1.06c-0.32-0.24-0.75-0.27-1.11-0.08l-49.6,27.14
		c-0.34,0.19-0.54,0.58-0.53,0.98c0.03,0.39,0.29,0.74,0.68,0.89l18.89,7.03l19.56,11.29c0.28,0.16,0.61,0.19,0.92,0.06
		c0.29-0.13,0.51-0.39,0.58-0.71L471.45,108.26z M468.93,110.03l-10.13,41.96l-18.44-10.65c-0.05-0.03-0.1-0.06-0.16-0.08
		l-16.86-6.27L468.93,110.03z"/>
	<path class="st68" d="M166.02,422.09l-35-39.53c-0.36-0.42-1.01-0.48-1.43-0.1c-0.42,0.39-0.48,1.03-0.1,1.46l35,39.53
		c0.36,0.42,1.01,0.46,1.43,0.08C166.36,423.16,166.4,422.51,166.02,422.09z"/>
	<path class="st70" d="M441.04,142.79l29.43-33.26c0.39-0.42,0.34-1.06-0.08-1.45c-0.42-0.37-1.08-0.32-1.45,0.1l-29.44,33.26
		c-0.37,0.42-0.34,1.08,0.1,1.45C440.01,143.25,440.66,143.22,441.04,142.79z"/>
	<path class="st68" d="M163.96,422.99l-5.99,12.24l-4.44-5.37c-0.36-0.44-1.01-0.5-1.45-0.15c-0.44,0.36-0.5,1.01-0.13,1.45
		l5.45,6.6c0.23,0.27,0.57,0.4,0.92,0.36c0.34-0.03,0.65-0.25,0.8-0.55l6.67-13.67c0.25-0.5,0.04-1.11-0.46-1.36
		C164.82,422.28,164.2,422.49,163.96,422.99z"/>
	<path class="st70" d="M439.66,143.14l5.63,11.49c0.16,0.31,0.47,0.53,0.81,0.56c0.35,0.05,0.69-0.1,0.92-0.37l4.58-5.55
		c0.36-0.43,0.29-1.08-0.14-1.43c-0.44-0.37-1.08-0.31-1.43,0.13l-3.59,4.33l-4.92-10.06c-0.26-0.51-0.87-0.72-1.37-0.48
		C439.63,142.01,439.42,142.63,439.66,143.14z"/>
	<path class="st68" d="M540.6,319.48c-0.86-3.21-4.15-5.11-7.37-4.25c-12.05,3.23-39.64,10.62-51.7,13.85
		c-3.21,0.86-5.11,4.15-4.25,7.37c2.17,8.09,6.07,22.68,8.24,30.77c0.86,3.2,4.16,5.11,7.37,4.25c12.06-3.23,39.65-10.62,51.7-13.86
		c3.22-0.86,5.11-4.16,4.26-7.36C546.67,342.16,542.77,327.58,540.6,319.48z"/>
	<path class="st69" d="M477.16,332.31c0,0,22.42,9.07,31.99,12.94c2.94,1.19,6.31,0.29,8.26-2.21c6.34-8.11,21.14-27.07,21.14-27.07
		c0.35-0.44,0.27-1.08-0.18-1.43c-0.45-0.35-1.09-0.27-1.45,0.17l-21.13,27.07c-1.39,1.78-3.79,2.43-5.88,1.57l-31.99-12.93
		c-0.52-0.21-1.12,0.04-1.33,0.56C476.38,331.5,476.64,332.11,477.16,332.31z"/>
	<path class="st69" d="M295.76,203.5c0,0,2.7,15.57,5.77,22.48c0,0-5,15.3,5.55,12.13c0,0,8.56,24.39,31.39,12.97l4.04,12.06
		l43.49-7.77l-9.72-23.84l-21.99-38.73L295.76,203.5z"/>
	<path class="st68" d="M295.56,202.49c-0.54,0.11-0.91,0.64-0.82,1.19c0,0,2.68,15.21,5.7,22.37c-0.32,1.08-1.16,4.27-1.11,7.2
		c0.04,2.47,0.8,4.69,2.63,5.72c1.05,0.57,2.5,0.81,4.5,0.37c1.23,2.88,5.79,12.11,14.85,14.95c4.41,1.39,9.88,1.3,16.54-1.78
		l3.68,10.96c0.16,0.48,0.66,0.77,1.16,0.68l43.49-7.79c0.32-0.04,0.57-0.24,0.73-0.51c0.13-0.26,0.16-0.59,0.04-0.88l-9.72-23.84
		c-0.02-0.02-0.04-0.07-0.06-0.11l-21.99-38.73c-0.2-0.37-0.64-0.57-1.07-0.51L295.56,202.49z M296.94,204.32l56.82-10.37
		c0,0,20.65,36.39,21.58,38.02l9.22,22.61l-41.38,7.4l-3.75-11.23c-0.09-0.29-0.32-0.51-0.59-0.62c-0.28-0.11-0.59-0.11-0.84,0.02
		c-6.54,3.28-11.86,3.52-16.08,2.18c-9.9-3.1-13.88-14.55-13.88-14.55c-0.18-0.53-0.75-0.81-1.27-0.64
		c-1.75,0.51-2.98,0.51-3.82,0.02c-1.25-0.68-1.54-2.29-1.59-3.94c-0.04-3.28,1.14-6.94,1.14-6.94c0.09-0.22,0.06-0.48-0.02-0.73
		C299.89,219.77,297.6,207.84,296.94,204.32z"/>
	<path class="st68" d="M352.5,205.56c0,0-5.37,2.8-10.34,8.96c-0.35,0.44-0.3,1.08,0.14,1.44c0.46,0.36,1.1,0.29,1.45-0.15
		c4.66-5.78,9.71-8.42,9.71-8.42c0.5-0.26,0.7-0.88,0.43-1.38C353.63,205.49,353.02,205.3,352.5,205.56z"/>
	<path class="st68" d="M352.39,213.4c0,0-3.29-2.03-5.75-2.82c-0.55-0.17-1.13,0.12-1.3,0.66c-0.17,0.54,0.14,1.12,0.67,1.29
		c2.28,0.73,5.29,2.61,5.29,2.61c0.49,0.3,1.12,0.15,1.43-0.33C353.01,214.33,352.88,213.7,352.39,213.4z"/>
	<path class="st68" d="M337.94,206.01c0,0,0.95,4.32,0.75,11.78c0,0.18-0.13,0.35-0.31,0.44c-0.18,0.09-0.38,0.04-0.53-0.09
		c-1.46-1.39-4.73-4.84-7.99-10.72c0,0-22.11,3.17-33.82-2.82l0.75,3.7c0,0-9.53-5-7.33-16.47l-4.42,4.67
		c0,0,3.52-42.89,44.83-51.21c33.2-6.67,46.96,13.76,46.96,13.76s26,12.53,17.87,38.86c-6.96,22.57-10.23,26-15.98,38.9l-5.51,1.06
		l-18.22-18.34c0,0,7.55-5.92,1.96-14.93C353.87,199.7,344.63,197.71,337.94,206.01z"/>
	<path class="st68" d="M305.13,212.6c0,0,1.86-2.27,5.85-3.58c0.52-0.17,0.82-0.76,0.64-1.3c-0.18-0.52-0.75-0.83-1.3-0.64
		c-4.64,1.53-6.78,4.23-6.78,4.23c-0.36,0.45-0.28,1.09,0.16,1.45C304.14,213.12,304.77,213.03,305.13,212.6z"/>
	<path class="st68" d="M326.75,232.27c0,0-0.86,7.68-9.22,8.12c-0.54,0.05-0.98,0.55-0.96,1.08c0.02,0.57,0.51,1.02,1.09,0.96
		c10.14-0.55,11.13-9.93,11.13-9.93c0.04-0.58-0.36-1.09-0.92-1.15C327.31,231.29,326.79,231.72,326.75,232.27z"/>
	<path class="st71" d="M310.7,221.29c1.59-0.22,2.7-1.68,2.49-3.27c-0.22-1.59-1.68-2.7-3.27-2.49c-1.59,0.22-2.7,1.68-2.49,3.27
		C307.65,220.39,309.11,221.51,310.7,221.29z"/>
	<path class="st69" d="M326.69,501.3l-10.86-140.37v-65.16l72.32-9.69l45.97,19.44c8.3,0.84,35.21,105.17,44.65,195.78H326.69z"/>
	<path class="st68" d="M325.65,501.37c0.04,0.52,0.51,0.95,1.03,0.95h152.08c0.29,0,0.57-0.11,0.77-0.33
		c0.2-0.22,0.29-0.5,0.26-0.79c-7.57-72.6-26.35-153.98-37.8-184.05c-2.07-5.42-3.92-9.18-5.42-11.03
		c-0.77-0.97-1.54-1.45-2.18-1.58c-2.51-1.06-45.86-19.4-45.86-19.4c-0.15-0.07-0.35-0.09-0.52-0.07l-72.32,9.69
		c-0.51,0.07-0.91,0.51-0.91,1.01v65.17c0,0.02,0,0.04,0.02,0.06L325.65,501.37z M327.63,500.26
		c-0.95-12.13-10.59-136.85-10.77-139.38c0-1.67,0-56.51,0-64.22c7.95-1.08,66.62-8.94,71.16-9.53
		c3.67,1.56,45.68,19.31,45.68,19.31c0.11,0.04,0.2,0.06,0.31,0.08c0.15,0.02,0.31,0.16,0.49,0.33c0.35,0.31,0.7,0.77,1.1,1.34
		c1.3,1.96,2.8,5.24,4.49,9.67c11.36,29.83,29.92,110.3,37.56,182.4H327.63z"/>
	<path class="st70" d="M320.94,279.32c0,0-0.77-10.66,8.35-16.86c9.13-6.19,65.43-22.1,90.88-12.5
		c9.53,3.59,11.69,12.81,15.26,26.22c1.87,7.07,0.66,9.29,6.16,19.35c5.48,10.06-3.26,18.91-14.71,18.87
		c-11.45-0.07-40.88-1.74-70.01-12.7c-29.13-10.99-35.35-5.61-41.85-2.27C315.02,299.42,310.29,285.41,320.94,279.32z"/>
	<path class="st68" d="M325.34,279.72c0,0,8.36-1.87,14.91-0.37c0.54,0.12,1.08-0.22,1.21-0.76c0.14-0.57-0.2-1.11-0.77-1.23
		c-6.91-1.6-15.79,0.35-15.79,0.35c-0.54,0.12-0.89,0.69-0.76,1.23C324.26,279.5,324.8,279.84,325.34,279.72z"/>
	<path class="st68" d="M433.76,286.66c0,0-10.85,5.88-36.8-0.07c-0.54-0.15-1.1,0.2-1.23,0.76c-0.12,0.54,0.22,1.11,0.76,1.23
		c26.99,6.18,38.26-0.12,38.26-0.12c0.49-0.27,0.66-0.89,0.39-1.38C434.87,286.59,434.26,286.39,433.76,286.66z"/>
	<path class="st68" d="M32.72,502.31h534.56c0.56,0,1.02-0.46,1.02-1.01c0-0.57-0.46-1.03-1.02-1.03H32.72
		c-0.56,0-1.03,0.46-1.03,1.03C31.69,501.85,32.16,502.31,32.72,502.31z"/>
	<path class="st69" d="M232.21,299.2c0,0-3.85-8.3-4.66-13.28c-0.81-5-3.92-10.47-6.22-12.77c-2.21-2.21-5.9,0-5.9,0
		s-11.23-15.22-15.93-21.6c-1.13-1.52-3.3-1.84-4.82-0.74c-1.57,1.15-1.98,3.32-0.99,4.98c3.71,6.2,12.06,20.06,12.06,20.06
		s-4.93,1.73-6.41,5.92c0,0-5,2.63-5.26,7.33c0,0-3.32,3.25-2.17,8.27c1.15,5.03,7.42,9.34,10.95,11.44
		c3.53,2.12,6.85,6.25,6.85,6.25l10.77-3.23L232.21,299.2z"/>
	<path class="st68" d="M232.95,299.9c0.3-0.3,0.37-0.76,0.18-1.13c0,0-3.78-8.12-4.56-13c-0.83-5.21-4.1-10.93-6.52-13.35
		c-1.13-1.13-2.56-1.38-3.85-1.25c-0.97,0.09-1.84,0.41-2.44,0.67l-15.45-20.89c-1.45-1.98-4.24-2.42-6.22-0.95
		c-2.01,1.45-2.54,4.2-1.27,6.32l11.46,19.06c-1.61,0.81-4.52,2.63-5.76,5.67c-1.18,0.74-4.98,3.39-5.44,7.61
		c-0.83,0.97-3.2,4.26-2.14,8.95c0.51,2.19,1.87,4.24,3.6,6.06c2.44,2.61,5.65,4.73,7.81,6.04c3.41,2.03,6.59,6,6.59,6
		c0.25,0.32,0.69,0.46,1.08,0.35l10.77-3.23c0.16-0.04,0.32-0.16,0.46-0.28L232.95,299.9z M230.99,298.99l-11.07,11.94l-9.84,2.95
		c-1.06-1.2-3.8-4.22-6.69-5.95c-2.05-1.22-5.07-3.23-7.4-5.67c-1.45-1.54-2.65-3.27-3.07-5.11c-1.01-4.43,1.87-7.33,1.87-7.33
		c0.18-0.18,0.28-0.41,0.3-0.67c0.23-4.17,4.73-6.48,4.73-6.48c0.23-0.11,0.41-0.32,0.48-0.58c1.34-3.76,5.76-5.28,5.76-5.28
		c0.3-0.12,0.53-0.35,0.62-0.62c0.12-0.3,0.09-0.62-0.07-0.88l-12.06-20.06c-0.74-1.2-0.41-2.77,0.71-3.62
		c1.08-0.78,2.6-0.55,3.39,0.51l15.93,21.6c0.32,0.44,0.9,0.55,1.36,0.28c0,0,1.13-0.69,2.44-0.83c0.74-0.07,1.54,0.02,2.19,0.67
		c2.21,2.21,5.19,7.45,5.95,12.22C227.23,290.33,230.07,296.95,230.99,298.99z"/>
	<path class="st69" d="M243.73,308.03c3.06,0.06,5.04,0.99,7.31,3.15c6.32,6.05,19,19.59,39.58,47.4c0,0,13.96-47.53,24.11-58.7
		c10.15-11.14,50,4.96,40.09,48.41c-9.89,43.48-26.18,83.57-53.54,84.21c-27.39,0.64-46.56-24.85-66.58-53.06
		c-20.03-28.2-23.2-45.02-21.2-50.81c0,0,0.07-0.24,0.26-0.66c-0.55-1.12-2.44-4.14-4.01-7.09c-1.43-2.73-0.95-6.08,1.19-8.3
		c3.65-3.76,10.39-9.62,20.19-13.74c2.07-0.86,4.47-0.28,5.92,1.43C239.75,303.38,243.73,308.03,243.73,308.03z"/>
	<path class="st68" d="M244.21,307.01c-0.97-1.12-4.12-4.82-6.38-7.42c-1.74-2.02-4.6-2.71-7.09-1.7
		c-9.95,4.18-16.82,10.15-20.54,13.98c-2.44,2.53-2.99,6.34-1.34,9.47c1.39,2.66,3.06,5.35,3.79,6.67
		c-0.07,0.18-0.11,0.27-0.11,0.29c-0.84,2.45-0.86,6.72,0.81,12.88c2.42,8.87,8.41,21.79,20.52,38.85
		c10.04,14.18,19.9,27.65,30.67,37.52c10.92,9.99,22.81,16.29,36.76,15.98c11.25-0.26,20.72-6.96,28.62-17.83
		c11.62-15.94,19.95-40.95,25.91-67.17c7.09-31.2-10.92-48.59-25.84-52.31c-6.67-1.67-12.77-0.59-16.03,2.98
		c-3.08,3.39-6.56,10.12-9.86,17.87c-6.27,14.75-12.07,33.27-13.87,39.26c-19.92-26.77-32.25-39.93-38.48-45.88
		C249.39,308.2,247.3,307.16,244.21,307.01z M242.96,308.68c0.2,0.22,0.46,0.35,0.75,0.35c2.77,0.07,4.56,0.93,6.63,2.89
		c6.3,6.03,18.93,19.55,39.45,47.27c0.24,0.31,0.62,0.47,1.01,0.4c0.37-0.06,0.68-0.35,0.79-0.73c0,0,6.83-23.22,14.4-40.97
		c3.19-7.51,6.49-14.03,9.49-17.3c2.84-3.13,8.19-3.83,14-2.38c14.22,3.54,31.11,20.18,24.35,49.87
		c-5.9,25.93-14.07,50.66-25.56,66.44c-7.49,10.28-16.38,16.71-27.04,16.97c-13.41,0.31-24.81-5.83-35.31-15.45
		c-10.68-9.78-20.43-23.14-30.38-37.19c-11.91-16.77-17.83-29.48-20.21-38.22c-1.54-5.57-1.63-9.47-0.86-11.67
		c0,0,0.07-0.22,0.24-0.59c0.11-0.27,0.09-0.57-0.02-0.84c-0.55-1.15-2.44-4.16-4.03-7.13c-1.21-2.33-0.81-5.2,1.01-7.09
		c3.59-3.72,10.24-9.47,19.86-13.52c1.67-0.68,3.57-0.22,4.75,1.14C238.97,304.04,242.96,308.68,242.96,308.68z"/>
	<path class="st68" d="M289.74,359.09c0,0,7.92,13.46,11.14,29.5c0.1,0.54,0.64,0.91,1.21,0.81c0.54-0.12,0.91-0.66,0.79-1.21
		c-3.27-16.41-11.37-30.14-11.37-30.14c-0.3-0.49-0.91-0.66-1.4-0.37C289.62,357.98,289.44,358.59,289.74,359.09z"/>
	<path class="st68" d="M218.79,326.39c0,0,12.5-12.03,20.79-14.57c0.54-0.17,0.86-0.74,0.69-1.28c-0.17-0.54-0.74-0.84-1.28-0.69
		c-8.61,2.63-21.63,15.06-21.63,15.06c-0.39,0.39-0.42,1.05-0.02,1.45C217.73,326.78,218.37,326.78,218.79,326.39z"/>
</g>
</svg>
