<svg width="456" height="302" viewBox="0 0 456 302" fill="none" xmlns="http://www.w3.org/2000/svg">
<path d="M351.399 150.293C351.399 152.004 350.009 153.394 348.298 153.394C346.587 153.394 345.197 152.004 345.197 150.293C345.197 148.582 346.587 147.192 348.298 147.192C350.009 147.2 351.399 148.59 351.399 150.293ZM349.865 150.293C349.865 149.434 349.166 148.727 348.306 148.727C347.447 148.727 346.74 149.426 346.74 150.293C346.74 151.153 347.439 151.86 348.306 151.86C349.166 151.86 349.865 151.161 349.865 150.293Z" fill="#182A7D"/>
<path d="M403.488 36.8384H385.935C385.509 36.8384 385.164 37.1838 385.164 37.6096C385.164 38.0354 385.509 38.3808 385.935 38.3808H403.488C403.914 38.3808 404.259 38.0354 404.259 37.6096C404.259 37.1838 403.914 36.8384 403.488 36.8384Z" fill="#182A7D"/>
<path d="M380.352 36.8384H376.922C376.496 36.8384 376.15 37.1838 376.15 37.6096C376.15 38.0354 376.496 38.3808 376.922 38.3808H380.352C380.778 38.3808 381.123 38.0354 381.123 37.6096C381.123 37.1758 380.778 36.8384 380.352 36.8384Z" fill="#182A7D"/>
<path d="M395.246 42.9519C395.246 43.3776 394.9 43.7231 394.474 43.7231H392.281C391.856 43.7231 391.51 43.3776 391.51 42.9519C391.51 42.5261 391.856 42.1807 392.281 42.1807H394.474C394.9 42.1887 395.246 42.5261 395.246 42.9519ZM389.213 42.9519C389.213 43.3776 388.867 43.7231 388.441 43.7231H384.601C384.176 43.7231 383.83 43.3776 383.83 42.9519C383.83 42.5261 384.176 42.1807 384.601 42.1807H388.441C388.867 42.1887 389.213 42.5261 389.213 42.9519ZM381.533 42.9519C381.533 43.3776 381.187 43.7231 380.762 43.7231H376.922C376.496 43.7231 376.15 43.3776 376.15 42.9519C376.15 42.5261 376.496 42.1807 376.922 42.1807H380.762C381.187 42.1887 381.533 42.5261 381.533 42.9519Z" fill="#182A7D"/>
<path d="M118.747 88.1636C118.321 88.1636 117.976 88.509 117.976 88.9348V90.7182C117.976 91.1439 118.321 91.4894 118.747 91.4894C119.173 91.4894 119.518 91.1439 119.518 90.7182V88.9348C119.518 88.509 119.173 88.1636 118.747 88.1636Z" fill="#182A7D"/>
<path d="M116.738 86.3804H114.955C114.529 86.3804 114.184 86.7258 114.184 87.1516C114.184 87.5773 114.529 87.9228 114.955 87.9228H116.738C117.164 87.9228 117.509 87.5773 117.509 87.1516C117.509 86.7258 117.164 86.3804 116.738 86.3804Z" fill="#182A7D"/>
<path d="M118.747 82.6929C118.321 82.6929 117.976 83.0383 117.976 83.4641V85.2475C117.976 85.6732 118.321 86.0187 118.747 86.0187C119.173 86.0187 119.518 85.6732 119.518 85.2475V83.4641C119.518 83.0303 119.173 82.6929 118.747 82.6929Z" fill="#182A7D"/>
<path d="M122.538 86.2598H120.755C120.329 86.2598 119.983 86.6052 119.983 87.031C119.983 87.4567 120.329 87.8022 120.755 87.8022H122.538C122.964 87.8022 123.309 87.4567 123.309 87.031C123.309 86.5972 122.964 86.2598 122.538 86.2598Z" fill="#182A7D"/>
<path d="M311.868 38.3887C311.442 38.3887 311.097 38.7341 311.097 39.1599V40.9433C311.097 41.369 311.442 41.7145 311.868 41.7145C312.294 41.7145 312.639 41.369 312.639 40.9433V39.1599C312.639 38.7341 312.294 38.3887 311.868 38.3887Z" fill="#182A7D"/>
<path d="M309.859 36.5977H308.076C307.65 36.5977 307.305 36.9431 307.305 37.3689C307.305 37.7946 307.65 38.1401 308.076 38.1401H309.859C310.285 38.1401 310.63 37.7946 310.63 37.3689C310.63 36.9431 310.285 36.5977 309.859 36.5977Z" fill="#182A7D"/>
<path d="M311.868 32.9102C311.442 32.9102 311.097 33.2556 311.097 33.6814V35.4648C311.097 35.8905 311.442 36.236 311.868 36.236C312.294 36.236 312.639 35.8905 312.639 35.4648V33.6814C312.639 33.2556 312.294 32.9102 311.868 32.9102Z" fill="#182A7D"/>
<path d="M315.659 36.4771H313.876C313.45 36.4771 313.104 36.8225 313.104 37.2482C313.104 37.674 313.45 38.0194 313.876 38.0194H315.659C316.085 38.0194 316.43 37.674 316.43 37.2482C316.43 36.8225 316.085 36.4771 315.659 36.4771Z" fill="#182A7D"/>
<path d="M240.291 0.254395H222.738C222.312 0.254395 221.967 0.599827 221.967 1.02559C221.967 1.45136 222.312 1.79679 222.738 1.79679H240.291C240.717 1.79679 241.062 1.45136 241.062 1.02559C241.054 0.591794 240.709 0.254395 240.291 0.254395Z" fill="#182A7D"/>
<path d="M217.155 0.246582H213.724C213.299 0.246582 212.953 0.592021 212.953 1.01779C212.953 1.44355 213.299 1.78899 213.724 1.78899H217.155C217.58 1.78899 217.926 1.44355 217.926 1.01779C217.918 0.592021 217.572 0.246582 217.155 0.246582Z" fill="#182A7D"/>
<path d="M232.041 6.36788C232.041 6.79365 231.695 7.13908 231.269 7.13908H229.076C228.65 7.13908 228.305 6.79365 228.305 6.36788C228.305 5.94211 228.65 5.59668 229.076 5.59668H231.269C231.695 5.59668 232.041 5.94211 232.041 6.36788ZM226.007 6.36788C226.007 6.79365 225.662 7.13908 225.236 7.13908H221.396C220.971 7.13908 220.625 6.79365 220.625 6.36788C220.625 5.94211 220.971 5.59668 221.396 5.59668H225.236C225.662 5.59668 226.007 5.94211 226.007 6.36788ZM218.328 6.36788C218.328 6.79365 217.982 7.13908 217.556 7.13908H213.717C213.291 7.13908 212.945 6.79365 212.945 6.36788C212.945 5.94211 213.291 5.59668 213.717 5.59668H217.556C217.99 5.59668 218.328 5.94211 218.328 6.36788Z" fill="#182A7D"/>
<path d="M428.938 80.6923C428.938 82.1865 430.151 83.4076 431.653 83.4076C433.147 83.4076 434.368 82.1945 434.368 80.6923C434.368 79.1981 433.155 77.9771 431.653 77.9771C430.151 77.9771 428.938 79.1901 428.938 80.6923Z" fill="#182A7D"/>
<path d="M73.5183 213.532H91.0711C91.4969 213.532 91.8423 213.186 91.8423 212.76C91.8423 212.335 91.4969 211.989 91.0711 211.989H73.5183C73.0925 211.989 72.7471 212.335 72.7471 212.76C72.7551 213.186 73.0925 213.532 73.5183 213.532Z" fill="#182A7D"/>
<path d="M64.5046 213.532H67.9348C68.3606 213.532 68.706 213.186 68.706 212.76C68.706 212.335 68.3606 211.989 67.9348 211.989H64.5046C64.0788 211.989 63.7334 212.335 63.7334 212.76C63.7334 213.186 64.0788 213.532 64.5046 213.532Z" fill="#182A7D"/>
<path d="M405.142 226.016C405.142 226.016 406.186 233.495 397.454 233.318C397.454 233.318 404.957 233.398 404.764 240.411C404.764 240.411 405.439 234.892 412.324 233.655C412.324 233.663 406.5 234.997 405.142 226.016Z" fill="#182A7D"/>
<path d="M446.852 120.53C446.852 120.53 447.896 128.009 439.164 127.832C439.164 127.832 446.667 127.912 446.474 134.926C446.474 134.926 447.149 129.407 454.034 128.169C454.026 128.169 448.21 129.511 446.852 120.53Z" fill="#182A7D"/>
<path d="M169.774 19.2695C169.774 19.2695 170.818 26.7486 162.086 26.5718C162.086 26.5718 169.589 26.6522 169.396 33.6653C169.396 33.6653 170.071 28.1464 176.956 26.9092C176.956 26.9173 171.14 28.2508 169.774 19.2695Z" fill="#182A7D"/>
<path d="M94.5736 39.9233C94.5736 39.9233 95.618 47.4024 86.8857 47.2256C86.8857 47.2256 94.3889 47.306 94.1961 54.3191C94.1961 54.3191 94.8709 48.8002 101.755 47.563C101.755 47.5711 95.9313 48.9046 94.5736 39.9233Z" fill="#182A7D"/>
<path d="M140.155 7.9585C140.155 7.9585 140.516 10.5613 137.472 10.5051C137.472 10.5051 140.091 10.5292 140.018 12.9793C140.018 12.9793 140.251 11.0513 142.653 10.6256C142.653 10.6256 140.629 11.0915 140.155 7.9585Z" fill="#182A7D"/>
<path d="M276.955 97.8276C276.955 97.8276 277.316 100.43 274.271 100.374C274.271 100.374 276.89 100.398 276.818 102.848C276.818 102.848 277.051 100.92 279.453 100.495C279.461 100.495 277.429 100.961 276.955 97.8276Z" fill="#182A7D"/>
<path d="M23.4868 142.388C23.4868 142.388 23.8483 144.991 20.8037 144.935C20.8037 144.935 23.4226 144.959 23.3503 147.409C23.3503 147.409 23.5832 145.481 25.9852 145.055C25.9852 145.047 23.9608 145.513 23.4868 142.388Z" fill="#182A7D"/>
<path d="M250.943 212.664C250.943 212.664 251.304 215.267 248.26 215.211C248.26 215.211 250.879 215.235 250.806 217.685C250.806 217.685 251.039 215.757 253.441 215.331C253.449 215.323 251.417 215.789 250.943 212.664Z" fill="#182A7D"/>
<path d="M405.142 226.016C405.142 226.016 406.186 233.495 397.454 233.318C397.454 233.318 404.957 233.398 404.764 240.411C404.764 240.411 405.439 234.892 412.324 233.655C412.324 233.663 406.5 234.997 405.142 226.016Z" fill="url(#paint0_linear_5823_14685)"/>
<path d="M446.852 120.53C446.852 120.53 447.896 128.009 439.164 127.832C439.164 127.832 446.667 127.912 446.474 134.926C446.474 134.926 447.149 129.407 454.034 128.169C454.026 128.169 448.21 129.511 446.852 120.53Z" fill="url(#paint1_linear_5823_14685)"/>
<path d="M169.774 19.2695C169.774 19.2695 170.818 26.7486 162.086 26.5718C162.086 26.5718 169.589 26.6522 169.396 33.6653C169.396 33.6653 170.071 28.1464 176.956 26.9092C176.956 26.9173 171.14 28.2508 169.774 19.2695Z" fill="url(#paint2_linear_5823_14685)"/>
<path d="M94.5736 39.9233C94.5736 39.9233 95.618 47.4024 86.8857 47.2256C86.8857 47.2256 94.3889 47.306 94.1961 54.3191C94.1961 54.3191 94.8709 48.8002 101.755 47.563C101.755 47.5711 95.9313 48.9046 94.5736 39.9233Z" fill="url(#paint3_linear_5823_14685)"/>
<path d="M140.155 7.9585C140.155 7.9585 140.516 10.5613 137.472 10.5051C137.472 10.5051 140.091 10.5292 140.018 12.9793C140.018 12.9793 140.251 11.0513 142.653 10.6256C142.653 10.6256 140.629 11.0915 140.155 7.9585Z" fill="url(#paint4_linear_5823_14685)"/>
<path d="M276.955 97.8276C276.955 97.8276 277.316 100.43 274.271 100.374C274.271 100.374 276.89 100.398 276.818 102.848C276.818 102.848 277.051 100.92 279.453 100.495C279.461 100.495 277.429 100.961 276.955 97.8276Z" fill="url(#paint5_linear_5823_14685)"/>
<path d="M23.4868 142.388C23.4868 142.388 23.8483 144.991 20.8037 144.935C20.8037 144.935 23.4226 144.959 23.3503 147.409C23.3503 147.409 23.5832 145.481 25.9852 145.055C25.9852 145.047 23.9608 145.513 23.4868 142.388Z" fill="url(#paint6_linear_5823_14685)"/>
<path d="M250.943 212.664C250.943 212.664 251.304 215.267 248.26 215.211C248.26 215.211 250.879 215.235 250.806 217.685C250.806 217.685 251.039 215.757 253.441 215.331C253.449 215.323 251.417 215.789 250.943 212.664Z" fill="url(#paint7_linear_5823_14685)"/>
<path d="M147.441 170.65H130.403C128.226 170.65 126.45 168.874 126.45 166.697C126.45 164.561 128.153 162.809 130.274 162.745C130.33 159.419 133.054 156.728 136.395 156.728C138.468 156.728 140.396 157.78 141.521 159.508C143.818 159.178 145.867 160.624 146.445 162.745H147.441C149.618 162.745 151.394 164.52 151.394 166.697C151.394 168.874 149.618 170.65 147.441 170.65ZM130.403 163.91C128.868 163.91 127.615 165.155 127.615 166.697C127.615 168.232 128.86 169.477 130.403 169.477H147.441C148.976 169.477 150.229 168.232 150.229 166.697C150.229 165.163 148.984 163.91 147.441 163.91H145.473L145.393 163.42C145.096 161.556 143.328 160.255 141.36 160.729L140.926 160.833L140.709 160.447C139.834 158.881 138.179 157.901 136.387 157.901C133.656 157.901 131.439 160.118 131.439 162.849C131.439 162.994 131.447 163.139 131.463 163.275L131.519 163.91H130.403Z" fill="#182A7D"/>
<path d="M451.455 26.4271H434.416C432.239 26.4271 430.464 24.6518 430.464 22.4747C430.464 20.3379 432.167 18.5866 434.288 18.5223C434.344 15.1965 437.067 12.5054 440.409 12.5054C442.482 12.5054 444.41 13.5577 445.534 15.2849C447.832 14.9555 449.88 16.4015 450.459 18.5223H451.455C453.632 18.5223 455.407 20.2977 455.407 22.4747C455.407 24.6518 453.632 26.4271 451.455 26.4271ZM434.416 19.6872C432.882 19.6872 431.637 20.9323 431.637 22.4747C431.637 24.0091 432.882 25.2543 434.416 25.2543H451.455C452.989 25.2543 454.243 24.0091 454.243 22.4747C454.243 20.9404 452.997 19.6872 451.455 19.6872H449.487L449.406 19.1971C449.109 17.3334 447.342 16.032 445.374 16.506L444.94 16.6104L444.723 16.2248C443.847 14.6583 442.193 13.6782 440.401 13.6782C437.67 13.6782 435.453 15.8954 435.453 18.6268C435.453 18.7714 435.461 18.916 435.477 19.0525L435.533 19.6872H434.416Z" fill="#182A7D"/>
<path d="M187.584 69.9359H170.545C168.368 69.9359 166.593 68.1606 166.593 65.9835C166.593 63.8467 168.296 62.0954 170.417 62.0311C170.473 58.7053 173.196 56.0142 176.538 56.0142C178.611 56.0142 180.539 57.0665 181.663 58.7937C183.961 58.4643 186.009 59.9103 186.588 62.0311H187.584C189.761 62.0311 191.536 63.8065 191.536 65.9835C191.536 68.1606 189.769 69.9359 187.584 69.9359ZM170.545 63.204C169.011 63.204 167.766 64.4492 167.766 65.9916C167.766 67.5259 169.011 68.7711 170.545 68.7711H187.584C189.118 68.7711 190.371 67.5259 190.371 65.9916C190.371 64.4572 189.126 63.204 187.584 63.204H185.616L185.535 62.714C185.238 60.8502 183.471 59.5488 181.503 60.0228L181.069 60.1272L180.852 59.7416C179.976 58.1751 178.321 57.1951 176.53 57.1951C173.799 57.1951 171.581 59.4123 171.581 62.1436C171.581 62.2882 171.59 62.4328 171.606 62.5694L171.662 63.204H170.545Z" fill="#182A7D"/>
<path d="M240.957 288.394C233.639 290.467 226.023 286.209 223.958 278.891L213.033 240.266C210.96 232.948 215.218 225.333 222.537 223.268C229.855 221.195 237.47 225.453 239.535 232.771L250.46 271.396C252.533 278.714 248.275 286.33 240.957 288.394Z" fill="#182A7D"/>
<path d="M225.364 288.073C219.934 282.747 219.845 274.031 225.171 268.6L253.28 239.945C258.606 234.515 267.322 234.426 272.753 239.752C278.183 245.079 278.272 253.795 272.946 259.225L244.837 287.88C239.511 293.311 230.795 293.399 225.364 288.073Z" fill="#182A7D"/>
<path d="M240.957 288.394C233.639 290.467 226.023 286.209 223.958 278.891L213.033 240.266C210.96 232.948 215.218 225.333 222.537 223.268C229.855 221.195 237.47 225.453 239.535 232.771L250.46 271.396C252.533 278.714 248.275 286.33 240.957 288.394Z" fill="url(#paint8_linear_5823_14685)"/>
<path d="M225.364 288.073C219.934 282.747 219.845 274.031 225.171 268.6L253.28 239.945C258.606 234.515 267.322 234.426 272.753 239.752C278.183 245.079 278.272 253.795 272.946 259.225L244.837 287.88C239.511 293.311 230.795 293.399 225.364 288.073Z" fill="url(#paint9_linear_5823_14685)"/>
<path d="M281.293 233.036C284.988 238.587 283.486 246.074 277.935 249.77C272.384 253.465 264.896 251.963 261.201 246.412C257.506 240.861 259.008 233.374 264.559 229.678C270.102 225.991 277.597 227.493 281.293 233.036Z" fill="#E48282"/>
<path d="M263.161 237.985C261.482 238.419 259.763 237.407 259.329 235.728L258.261 231.574C257.827 229.895 258.839 228.176 260.518 227.742C262.197 227.309 263.916 228.321 264.35 230L265.418 234.153C265.852 235.84 264.84 237.551 263.161 237.985Z" fill="#E48282"/>
<path d="M275.267 223.686L270.993 234.507C270.334 236.186 268.431 237.005 266.76 236.346C265.081 235.688 264.261 233.784 264.92 232.113L269.194 221.292C269.852 219.613 271.756 218.793 273.427 219.452C275.106 220.119 275.926 222.015 275.267 223.686Z" fill="#E48282"/>
<path d="M282.802 225.959L277.637 236.387C276.833 238.001 274.881 238.66 273.267 237.865C271.652 237.061 270.993 235.109 271.788 233.495L276.954 223.067C277.757 221.453 279.709 220.794 281.324 221.589C282.939 222.384 283.597 224.345 282.802 225.959Z" fill="#E48282"/>
<path d="M288.41 231.767L281.196 240.901C280.079 242.315 278.023 242.556 276.609 241.439C275.195 240.323 274.954 238.266 276.07 236.852L283.284 227.719C284.401 226.305 286.457 226.064 287.871 227.18C289.285 228.297 289.526 230.353 288.41 231.767Z" fill="#E48282"/>
<path d="M211.146 209.732L206.463 209.547C203.314 209.427 200.864 206.776 200.992 203.627L201.972 178.739L218.047 179.374L217.067 204.261C216.938 207.402 214.287 209.852 211.146 209.732Z" fill="#E48282"/>
<path d="M218.047 178.498L201.972 177.864L201.723 184.178C201.482 190.364 206.519 195.794 212.697 195.344C213.082 195.32 213.468 195.272 213.853 195.2C215.147 194.967 216.344 194.509 217.452 193.882L218.047 178.498Z" fill="#B85E77"/>
<path d="M212.07 176.686C222.725 173.67 229.481 164.574 227.159 156.369C224.837 148.164 214.317 143.957 203.661 146.973C193.006 149.988 186.251 159.084 188.572 167.289C190.894 175.494 201.415 179.701 212.07 176.686Z" fill="#252E65"/>
<path d="M222.265 172.52C231.963 170.872 238.955 164.42 237.882 158.108C236.81 151.796 228.079 148.015 218.382 149.662C208.685 151.31 201.693 157.762 202.765 164.074C203.837 170.386 212.568 174.167 222.265 172.52Z" fill="#252E65"/>
<path d="M218.27 163.241C225.493 156.564 227.825 147.341 223.479 142.64C219.134 137.938 209.756 139.54 202.533 146.217C195.31 152.894 192.978 162.117 197.324 166.818C201.67 171.519 211.048 169.918 218.27 163.241Z" fill="#252E65"/>
<path d="M227.357 174.514C228.94 183.382 224.297 191.633 216.994 192.934C209.692 194.235 202.478 188.106 200.895 179.237L199.65 172.256C198.068 163.387 202.711 155.137 210.013 153.836C217.324 152.534 224.53 158.664 226.112 167.533L227.357 174.514Z" fill="#E48282"/>
<path d="M211.749 152.783C207.708 149.128 200.671 150.896 196.036 156.736C191.4 162.576 190.918 170.28 194.959 173.935C199 177.59 206.037 175.823 210.672 169.983C215.308 164.135 215.79 156.439 211.749 152.783Z" fill="#252E65"/>
<path d="M211.749 152.783C207.708 149.128 200.671 150.896 196.036 156.736C191.4 162.576 190.918 170.28 194.959 173.935C199 177.59 206.037 175.823 210.672 169.983C215.308 164.135 215.79 156.439 211.749 152.783Z" fill="#252E65"/>
<path d="M214.416 172.537C214.183 172.537 213.95 172.425 213.814 172.224C213.589 171.886 213.669 171.437 213.999 171.204C214.095 171.139 216.425 169.557 218.899 170.995C219.252 171.204 219.365 171.654 219.164 171.999C218.963 172.352 218.513 172.465 218.16 172.264C216.505 171.3 214.906 172.36 214.834 172.409C214.705 172.497 214.561 172.537 214.416 172.537Z" fill="#742D4E"/>
<path d="M227.093 172.545C226.948 172.545 226.803 172.505 226.675 172.417C226.603 172.368 225.004 171.308 223.349 172.272C222.996 172.481 222.554 172.36 222.345 172.007C222.136 171.653 222.256 171.204 222.61 171.003C225.084 169.557 227.414 171.147 227.51 171.212C227.84 171.445 227.928 171.902 227.695 172.232C227.55 172.433 227.326 172.545 227.093 172.545Z" fill="#742D4E"/>
<path d="M217.734 174.513C217.718 174.939 217.365 175.268 216.939 175.252C216.513 175.236 216.184 174.883 216.2 174.457C216.216 174.031 216.569 173.702 216.995 173.718C217.421 173.734 217.75 174.095 217.734 174.513Z" fill="#742D4E"/>
<path d="M225.085 174.803C225.069 175.228 224.715 175.558 224.289 175.542C223.864 175.526 223.534 175.172 223.55 174.746C223.566 174.321 223.92 173.991 224.346 174.007C224.771 174.023 225.101 174.385 225.085 174.803Z" fill="#742D4E"/>
<path d="M226.868 180.137C226.788 180.137 226.707 180.137 226.627 180.129C225.02 180.064 223.534 179.381 222.434 178.201C221.341 177.02 220.771 175.477 220.835 173.871C220.899 172.264 221.582 170.77 222.763 169.685C223.944 168.593 225.47 168.014 227.093 168.087C228.7 168.151 230.186 168.834 231.286 170.015C232.379 171.196 232.949 172.738 232.885 174.345C232.821 175.951 232.138 177.437 230.949 178.53C229.832 179.574 228.386 180.137 226.868 180.137ZM226.86 169.099C225.599 169.099 224.402 169.565 223.47 170.432C222.49 171.34 221.919 172.577 221.863 173.911C221.807 175.244 222.281 176.53 223.189 177.51C224.097 178.49 225.334 179.06 226.667 179.116C228.017 179.14 229.286 178.699 230.266 177.791C231.246 176.883 231.817 175.646 231.873 174.312C231.929 172.971 231.455 171.694 230.547 170.714C229.64 169.733 228.402 169.163 227.069 169.107C226.989 169.099 226.924 169.099 226.86 169.099Z" fill="#F3D1D3"/>
<path d="M213.918 180.37C213.83 180.37 213.733 180.37 213.645 180.362C209.917 180.217 207.001 177.06 207.146 173.333C207.218 171.525 207.989 169.854 209.315 168.625C210.64 167.396 212.367 166.745 214.175 166.834C215.982 166.906 217.653 167.677 218.882 169.003C220.112 170.328 220.746 172.055 220.674 173.863C220.602 175.67 219.83 177.341 218.505 178.57C217.244 179.735 215.621 180.37 213.918 180.37ZM213.902 167.974C212.48 167.974 211.138 168.497 210.086 169.469C208.985 170.489 208.343 171.879 208.286 173.381C208.166 176.482 210.584 179.101 213.685 179.221C215.171 179.293 216.617 178.755 217.726 177.735C218.826 176.715 219.469 175.325 219.533 173.823C219.589 172.32 219.059 170.882 218.047 169.782C217.027 168.681 215.637 168.039 214.135 167.982C214.054 167.974 213.982 167.974 213.902 167.974Z" fill="#F3D1D3"/>
<path d="M219.509 174.658L222 174.754C222.289 174.762 222.53 174.538 222.546 174.248C222.554 173.959 222.329 173.718 222.04 173.702L219.549 173.606C219.26 173.598 219.019 173.823 219.003 174.112C218.995 174.401 219.22 174.65 219.509 174.658Z" fill="#F3D1D3"/>
<path d="M224.498 178.185C224.425 179.061 223.413 179.856 222.232 179.968C221.051 180.081 220.151 179.454 220.224 178.579C220.296 177.703 221.308 176.908 222.489 176.795C223.67 176.691 224.57 177.309 224.498 178.185Z" fill="#742D4E"/>
<path d="M223.999 182.892C223.919 184.925 222.071 186.499 219.87 186.411C217.669 186.322 216.4 184.145 216.48 182.113C219.059 181.888 221.573 182.129 223.999 182.892Z" fill="#742D4E"/>
<path d="M220.191 184.162C218.456 183.961 217.38 183.366 217.275 182.057C219.444 181.944 221.557 182.161 223.622 182.764C223.324 183.945 221.895 184.362 220.191 184.162Z" fill="#F3D1D3"/>
<path d="M215.051 187.223L210.729 187.215C208.986 187.215 207.315 186.572 206.014 185.399L203.306 182.957C203.089 182.764 203.073 182.427 203.266 182.218C203.459 182.001 203.788 181.985 204.005 182.178L206.712 184.62C207.813 185.616 209.235 186.162 210.721 186.162L215.043 186.17C215.332 186.17 215.565 186.403 215.565 186.692C215.573 186.99 215.34 187.223 215.051 187.223Z" fill="#22172C"/>
<path d="M215.051 187.753H213.299C212.721 187.753 212.247 187.279 212.255 186.701C212.255 186.122 212.729 185.656 213.307 185.656H215.059C215.637 185.656 216.111 186.13 216.103 186.709C216.095 187.279 215.629 187.753 215.051 187.753Z" fill="#F3D1D3"/>
<path d="M209.219 180.525C210.871 175.962 208.512 170.923 203.948 169.27C199.385 167.617 194.345 169.977 192.693 174.54C191.04 179.104 193.4 184.143 197.963 185.796C202.527 187.448 207.566 185.089 209.219 180.525Z" fill="#182A7D"/>
<path d="M206.536 177.756C206.699 173.615 203.762 170.138 199.976 169.989C196.19 169.84 192.989 173.076 192.826 177.217C192.663 181.357 195.6 184.835 199.386 184.983C203.172 185.132 206.373 181.897 206.536 177.756Z" fill="#182A7D"/>
<path d="M206.535 177.743C206.374 181.88 203.169 185.118 199.385 184.973C195.602 184.82 192.661 181.35 192.83 177.205C192.991 173.068 196.196 169.83 199.98 169.975C203.764 170.128 206.704 173.606 206.535 177.743Z" fill="url(#paint10_linear_5823_14685)"/>
<path d="M200.759 177.518C200.695 179.197 199.586 180.515 198.285 180.466C196.983 180.418 195.979 179.012 196.052 177.333C196.116 175.654 197.224 174.337 198.526 174.385C199.819 174.441 200.823 175.839 200.759 177.518Z" fill="#E3EDF6"/>
<path d="M222.199 300.22L180.161 301.401C173.156 301.127 167.693 295.223 167.974 288.21L170.633 217.862C170.778 214.183 173.212 210.993 176.715 209.877L208.053 199.899L233.1 211.909C236.25 213.42 238.194 216.649 238.057 220.135L235.39 288.033C235.117 295.038 229.212 300.493 222.199 300.22Z" fill="#182A7D"/>
<path d="M222.199 300.22L180.161 301.401C173.156 301.127 167.693 295.223 167.974 288.21L170.633 217.862C170.778 214.183 173.212 210.993 176.715 209.877L208.053 199.899L233.1 211.909C236.25 213.42 238.194 216.649 238.057 220.135L235.39 288.033C235.117 295.038 229.212 300.493 222.199 300.22Z" fill="url(#paint11_linear_5823_14685)"/>
<path d="M238.057 220.127C238.202 227.461 238.113 234.788 237.993 242.114C237.897 249.441 237.64 256.759 237.374 264.077C237.061 271.396 236.748 278.714 236.266 286.024C236.161 287.8 236.065 289.8 235.398 291.624C234.764 293.439 233.743 295.118 232.402 296.476C229.703 299.159 225.863 300.613 222.191 300.211C225.863 300.131 229.381 298.484 231.647 295.777C232.811 294.459 233.655 292.885 234.137 291.214C234.651 289.543 234.635 287.832 234.651 285.96C234.748 278.634 235.013 271.315 235.27 263.997C235.583 256.679 235.896 249.36 236.378 242.05C236.852 234.748 237.342 227.429 238.057 220.127Z" fill="#041551"/>
<path d="M219.556 213.202L196.87 211.74L197.738 198.252C197.842 196.573 199.296 195.304 200.967 195.417L217.588 196.485C219.267 196.589 220.536 198.044 220.424 199.714L219.556 213.202Z" fill="#182A7D"/>
<path d="M151.964 279.598C144.943 276.682 141.609 268.625 144.525 261.595L159.917 224.53C162.833 217.508 170.891 214.175 177.92 217.091C184.941 220.007 188.275 228.064 185.359 235.093L169.967 272.159C167.051 279.188 158.985 282.514 151.964 279.598Z" fill="#182A7D"/>
<path d="M177.928 217.091C180.386 217.886 182.627 219.469 184.29 221.557C185.921 223.67 186.957 226.281 187.182 228.996C187.544 231.695 186.676 234.563 185.688 236.885L182.78 244.035C180.788 248.782 178.787 253.522 176.634 258.205L173.405 265.227C172.256 267.54 171.172 269.87 169.967 272.159C170.738 269.693 171.63 267.275 172.449 264.833L175.14 257.587C176.94 252.759 178.884 247.995 180.836 243.231L183.848 236.122C184.363 234.909 184.893 233.832 185.15 232.659C185.431 231.495 185.6 230.29 185.568 229.077C185.511 224.224 182.539 219.445 177.928 217.091Z" fill="#041551"/>
<path d="M216.063 260.173L209.05 259.723C206.423 259.555 204.422 257.273 204.591 254.646L204.792 251.481C204.961 248.854 207.234 246.854 209.869 247.023L216.882 247.472L216.063 260.173ZM209.668 250.164C208.768 250.107 207.997 250.79 207.941 251.682L207.74 254.847C207.684 255.747 208.367 256.518 209.258 256.574L213.13 256.823L213.54 250.413L209.668 250.164Z" fill="#742D4E"/>
<path d="M222.883 270.255L216.818 269.862C213.131 269.621 210.343 266.447 210.576 262.76L211.837 243.263C211.974 241.086 231.382 242.339 231.246 244.516L229.985 264.013C229.752 267.701 226.57 270.496 222.883 270.255Z" fill="#B85E77"/>
<path d="M229.31 245.047C229.262 245.834 225.655 246.235 221.261 245.954C216.866 245.673 213.348 244.806 213.396 244.026C213.444 243.247 217.051 242.837 221.445 243.119C225.84 243.4 229.358 244.259 229.31 245.047Z" fill="#742D4E"/>
<path d="M144.333 267.211C144.453 259.603 150.719 253.538 158.319 253.659L198.453 254.293C206.061 254.414 212.126 260.68 212.006 268.279C211.885 275.887 205.619 281.952 198.02 281.831L157.885 281.197C150.277 281.084 144.212 274.818 144.333 267.211Z" fill="#182A7D"/>
<path d="M158.318 253.659C163.476 253.305 168.625 253.185 173.774 253.096C178.924 252.984 184.073 253.04 189.215 253.096L196.935 253.273C199.457 253.289 202.437 253.634 204.767 255.04C207.169 256.334 209.153 258.326 210.439 260.656C211.7 263.017 212.254 265.7 212.005 268.271C211.684 263.106 208.478 258.47 204.044 256.478C202.944 255.964 201.779 255.635 200.598 255.434C199.417 255.201 198.228 255.265 196.902 255.257L189.182 255.193C184.033 255.088 178.892 254.976 173.75 254.703C168.601 254.462 163.46 254.173 158.318 253.659Z" fill="#041551"/>
<path d="M223.152 272.986C227.407 267.858 226.699 260.25 221.571 255.995C216.442 251.739 208.835 252.447 204.579 257.575C200.324 262.704 201.032 270.311 206.16 274.567C211.289 278.822 218.896 278.115 223.152 272.986Z" fill="#E48282"/>
<path d="M207.603 259.491C206.101 258.969 205.297 257.33 205.82 255.819L207.105 252.1C207.627 250.598 209.266 249.794 210.776 250.317C212.278 250.839 213.082 252.478 212.56 253.988L211.274 257.707C210.752 259.21 209.105 260.013 207.603 259.491Z" fill="#E48282"/>
<path d="M230.707 261.065L219.999 262.061C218.336 262.214 216.874 260.993 216.713 259.338C216.56 257.675 217.782 256.205 219.436 256.052L230.145 255.056C231.808 254.904 233.278 256.125 233.43 257.78C233.591 259.443 232.37 260.913 230.707 261.065Z" fill="#E48282"/>
<path d="M228.441 270.914L217.709 270.223C216.046 270.119 214.784 268.681 214.889 267.018C214.993 265.355 216.431 264.094 218.094 264.198L228.827 264.889C230.49 264.993 231.751 266.431 231.646 268.094C231.534 269.765 230.104 271.018 228.441 270.914Z" fill="#E48282"/>
<path d="M211.009 295.737H314.992C317.892 295.737 318.784 293.391 318.784 290.483H205.755C205.755 293.391 208.109 295.737 211.009 295.737Z" fill="#182A7D"/>
<path d="M204.976 290.491H241.833C241.833 293.391 239.166 295.745 235.864 295.745H211.708C211.676 295.745 204.847 295.745 204.815 295.745C201.425 295.688 201.578 290.491 204.976 290.491Z" fill="#182A7D"/>
<path d="M244.139 292.017H318.784C321.001 292.017 322.905 290.443 323.315 288.266L333.381 245.094C333.919 242.251 331.742 239.616 328.85 239.616H254.204C251.987 239.616 250.083 241.19 249.665 243.375L239.608 286.546C239.061 289.382 241.239 292.017 244.139 292.017Z" fill="#182A7D"/>
<path d="M244.139 292.017H318.784C321.001 292.017 322.905 290.443 323.315 288.266L333.381 245.094C333.919 242.251 331.742 239.616 328.85 239.616H254.204C251.987 239.616 250.083 241.19 249.665 243.375L239.608 286.546C239.061 289.382 241.239 292.017 244.139 292.017Z" fill="url(#paint12_linear_5823_14685)"/>
<path d="M249.666 243.367C249.891 242.17 250.573 241.158 251.505 240.483C252.903 241.488 253.698 243.239 253.345 245.086L243.287 288.258C243.062 289.455 242.379 290.467 241.448 291.142C240.05 290.137 239.255 288.386 239.6 286.538L249.666 243.367Z" fill="#182A7D"/>
<path d="M296.613 271.323H284.37C281.856 271.323 279.823 269.291 279.823 266.776C279.823 264.262 281.856 262.229 284.37 262.229H296.613C299.127 262.229 301.16 264.262 301.16 266.776C301.16 269.283 299.127 271.323 296.613 271.323Z" fill="white"/>
<path d="M216.111 291.937H212.439C211.716 291.937 211.13 291.35 211.13 290.627C211.13 289.904 211.716 289.318 212.439 289.318H216.111C216.834 289.318 217.42 289.904 217.42 290.627C217.42 291.35 216.834 291.937 216.111 291.937Z" fill="#182A7D"/>
<path d="M223.277 291.937H219.605C218.882 291.937 218.296 291.35 218.296 290.627C218.296 289.904 218.882 289.318 219.605 289.318H223.277C224 289.318 224.586 289.904 224.586 290.627C224.586 291.35 224 291.937 223.277 291.937Z" fill="#182A7D"/>
<path d="M230.45 291.937H226.779C226.056 291.937 225.47 291.35 225.47 290.627C225.47 289.904 226.056 289.318 226.779 289.318H230.45C231.173 289.318 231.76 289.904 231.76 290.627C231.76 291.35 231.173 291.937 230.45 291.937Z" fill="#182A7D"/>
<path d="M237.615 291.937H233.944C233.221 291.937 232.635 291.35 232.635 290.627C232.635 289.904 233.221 289.318 233.944 289.318H237.615C238.338 289.318 238.925 289.904 238.925 290.627C238.933 291.35 238.338 291.937 237.615 291.937Z" fill="#182A7D"/>
<path d="M374.439 301.754H60.3356C58.6004 301.754 57.1865 300.348 57.1865 298.605C57.1865 296.869 58.5924 295.456 60.3356 295.456H374.439C376.174 295.456 377.588 296.861 377.588 298.605C377.588 300.34 376.174 301.754 374.439 301.754Z" fill="#182A7D"/>
<path d="M374.439 301.754H60.3356C58.6004 301.754 57.1865 300.348 57.1865 298.605C57.1865 296.869 58.5924 295.456 60.3356 295.456H374.439C376.174 295.456 377.588 296.861 377.588 298.605C377.588 300.34 376.174 301.754 374.439 301.754Z" fill="url(#paint13_linear_5823_14685)"/>
<path d="M156.053 119.413L164.287 128.25L227.075 102.061L156.053 119.413Z" fill="#182A7D"/>
<path d="M156.053 119.413L164.287 128.25L227.075 102.061L156.053 119.413Z" fill="url(#paint14_linear_5823_14685)"/>
<path d="M158.986 90.2681L152.784 99.6189L156.977 108.785L147.57 110.384L139.256 128.635L229.085 101.45L158.986 90.2681Z" fill="#182A7D"/>
<path d="M156.977 108.785L152.783 99.6191L201.433 101.893L156.977 108.785Z" fill="url(#paint15_linear_5823_14685)"/>
<path d="M152.245 199.449C151.554 199.449 150.864 199.441 150.173 199.433C149.474 199.425 148.92 198.855 148.928 198.164C148.936 197.473 149.538 196.838 150.197 196.919C153.458 196.959 156.696 196.903 160.247 196.758C160.263 196.758 160.287 196.758 160.303 196.758C160.978 196.758 161.532 197.288 161.564 197.963C161.596 198.654 161.05 199.248 160.359 199.272C157.507 199.393 154.856 199.449 152.245 199.449ZM140.083 198.951C140.043 198.951 140.011 198.951 139.97 198.943C136.5 198.646 133.094 198.204 129.832 197.618C129.149 197.497 128.692 196.846 128.812 196.155C128.933 195.473 129.591 195.039 130.274 195.135C133.455 195.706 136.797 196.139 140.187 196.429C140.878 196.485 141.392 197.095 141.336 197.794C141.28 198.461 140.726 198.951 140.083 198.951ZM120.208 195.32C120.088 195.32 119.959 195.304 119.839 195.264C116.529 194.252 113.3 193.006 110.239 191.577C109.612 191.279 109.339 190.532 109.637 189.906C109.934 189.271 110.689 189.006 111.307 189.303C114.256 190.685 117.373 191.882 120.57 192.862C121.237 193.063 121.606 193.77 121.405 194.436C121.245 194.967 120.747 195.32 120.208 195.32ZM101.973 186.732C101.732 186.732 101.491 186.668 101.274 186.524C98.422 184.62 95.6987 182.483 93.1682 180.161C92.6541 179.695 92.6219 178.892 93.0959 178.386C93.5699 177.872 94.3652 177.84 94.8713 178.313C97.2973 180.547 99.9242 182.603 102.664 184.435C103.242 184.82 103.395 185.6 103.009 186.178C102.784 186.532 102.382 186.732 101.973 186.732ZM87.1352 173.1C86.7656 173.1 86.3961 172.939 86.1471 172.626C84.0102 169.935 82.0661 167.067 80.3711 164.094C80.0257 163.492 80.2345 162.721 80.8451 162.375C81.4476 162.038 82.2188 162.247 82.5642 162.849C84.195 165.709 86.0667 168.473 88.1233 171.059C88.5571 171.606 88.4687 172.393 87.9224 172.827C87.6895 173.011 87.4163 173.1 87.1352 173.1ZM77.1658 155.579C76.6597 155.579 76.1777 155.266 75.9849 154.76C74.7558 151.498 73.7998 148.156 73.1572 144.839C73.0206 144.156 73.4705 143.497 74.1533 143.36C74.8442 143.216 75.4949 143.674 75.6314 144.357C76.25 147.538 77.1658 150.743 78.3467 153.876C78.5957 154.527 78.2664 155.25 77.6157 155.499C77.463 155.555 77.3104 155.579 77.1658 155.579ZM73.1491 135.825C72.4904 135.825 71.9361 135.311 71.8959 134.644C71.7674 132.588 71.7031 130.419 71.7031 128.21V127.703C71.7112 126.611 71.7272 125.51 71.7594 124.418C71.7835 123.735 72.3378 123.197 73.0206 123.197C73.0367 123.197 73.0447 123.197 73.0608 123.197C73.7516 123.221 74.2979 123.799 74.2818 124.498C74.2497 125.575 74.2256 126.643 74.2256 127.712V128.218C74.2256 130.379 74.2899 132.491 74.4184 134.492C74.4666 135.183 73.9364 135.785 73.2455 135.825C73.2054 135.825 73.1732 135.825 73.1491 135.825Z" fill="#182A7D"/>
<path d="M83.737 115.854C81.817 115.854 79.9212 115.83 78.0655 115.782C77.3746 115.766 76.8203 115.187 76.8364 114.489C76.8524 113.806 77.4148 113.259 78.0976 113.259C78.1057 113.259 78.1217 113.259 78.1298 113.259C81.3832 113.34 84.7332 113.348 88.1875 113.284C88.9667 113.243 89.4567 113.822 89.4728 114.521C89.4889 115.22 88.9346 115.79 88.2357 115.806C86.7174 115.846 85.2151 115.854 83.737 115.854ZM98.3175 115.436C97.6588 115.436 97.0964 114.914 97.0643 114.248C97.0241 113.557 97.5544 112.962 98.2533 112.922C101.507 112.737 104.889 112.496 108.303 112.191C108.978 112.119 109.612 112.641 109.669 113.332C109.733 114.023 109.219 114.633 108.528 114.697C105.09 115.003 101.675 115.252 98.3898 115.428C98.3657 115.436 98.3416 115.436 98.3175 115.436ZM67.9917 115.276C67.9596 115.276 67.9274 115.276 67.8953 115.276C64.3927 115.003 60.9786 114.633 57.7572 114.167C57.0663 114.071 56.5924 113.428 56.6888 112.745C56.7852 112.062 57.4359 111.597 58.1107 111.677C61.2758 112.127 64.6338 112.496 68.0881 112.761C68.779 112.818 69.3011 113.42 69.2449 114.119C69.1967 114.778 68.6424 115.276 67.9917 115.276ZM118.473 113.669C117.847 113.669 117.3 113.195 117.228 112.553C117.148 111.862 117.646 111.235 118.337 111.155C121.606 110.769 124.94 110.335 128.338 109.853C129.029 109.741 129.664 110.231 129.76 110.922C129.856 111.613 129.382 112.247 128.692 112.344C125.269 112.834 121.919 113.267 118.626 113.653C118.57 113.661 118.521 113.669 118.473 113.669ZM47.9726 112.376C47.8843 112.376 47.7878 112.368 47.6995 112.344C45.2654 111.797 42.8875 111.179 40.6462 110.512C39.6903 110.231 38.7504 109.934 37.8265 109.628C37.1678 109.411 36.8063 108.697 37.0312 108.038C37.2481 107.379 37.9631 107.01 38.6218 107.234C39.5216 107.532 40.4374 107.821 41.3692 108.094C43.5623 108.745 45.8759 109.347 48.2538 109.877C48.9366 110.03 49.3624 110.705 49.2098 111.38C49.0732 111.974 48.551 112.376 47.9726 112.376ZM28.8533 105.909C28.6685 105.909 28.4837 105.869 28.307 105.78C25.0856 104.214 22.0892 102.455 19.4222 100.543C18.8598 100.133 18.7233 99.3537 19.133 98.7834C19.5346 98.2211 20.3219 98.0845 20.8923 98.4942C23.4549 100.326 26.3228 102.013 29.4156 103.515C30.0422 103.82 30.2993 104.575 30.0021 105.194C29.7691 105.644 29.3192 105.909 28.8533 105.909ZM72.2011 104.784C71.5103 104.784 70.9399 104.222 70.9399 103.523V103.073C70.9399 99.9 70.8114 96.6706 70.5624 93.4814C70.5061 92.7905 71.0283 92.18 71.7192 92.1238C72.3859 92.0595 73.0125 92.5897 73.0768 93.2805C73.3339 96.534 73.4624 99.8277 73.4624 103.065V103.515C73.4544 104.222 72.892 104.784 72.2011 104.784ZM12.5697 94.108C12.2323 94.108 11.8869 93.9714 11.6379 93.6983C9.27605 91.1115 7.24362 88.2758 5.58875 85.2553C5.25135 84.6447 5.47628 83.8815 6.08682 83.5442C6.70538 83.2148 7.46052 83.4397 7.79792 84.0422C9.35638 86.886 11.2764 89.5611 13.5016 92.0032C13.9675 92.5174 13.9354 93.3127 13.4213 93.7786C13.1803 93.9955 12.875 94.108 12.5697 94.108ZM70.5784 84.5885C69.9759 84.5885 69.4457 84.1547 69.3413 83.5442C68.7549 80.1219 68.0078 76.8443 67.1161 73.8158C66.9233 73.149 67.3008 72.4501 67.9676 72.2573C68.6344 72.0484 69.3333 72.4421 69.5261 73.1088C70.4499 76.2338 71.2131 79.5998 71.8156 83.1264C71.9361 83.8092 71.4701 84.46 70.7873 84.5805C70.715 84.5885 70.6507 84.5885 70.5784 84.5885ZM2.91365 76.5471C2.35935 76.5471 1.85325 76.1776 1.70062 75.6233C1.54798 75.061 1.39535 74.4906 1.25878 73.9122C0.808918 72.0163 0.583984 70.1445 0.583984 68.329C0.583984 67.2445 0.664317 66.16 0.824984 65.0996C0.929417 64.4088 1.58012 63.9348 2.25492 64.0472C2.94578 64.1517 3.41172 64.7943 3.30728 65.4772C3.16268 66.409 3.09038 67.365 3.09038 68.329C3.09038 69.9437 3.29925 71.6227 3.70092 73.3338C3.82945 73.8801 3.96602 74.4183 4.11865 74.9565C4.30342 75.6313 3.90978 76.3222 3.24302 76.507C3.13858 76.5311 3.02612 76.5471 2.91365 76.5471ZM64.7382 65.2522C64.2723 65.2522 63.8224 64.9871 63.6055 64.5373C62.1032 61.3962 60.36 58.5926 58.4401 56.2067C58.0063 55.6685 58.0866 54.8732 58.6328 54.4394C59.1711 54.0056 59.9584 54.0859 60.4002 54.6322C62.4407 57.1707 64.2883 60.1431 65.8709 63.4528C66.1762 64.0794 65.911 64.8345 65.2844 65.1318C65.1077 65.2121 64.923 65.2522 64.7382 65.2522ZM6.03862 57.3635C5.77352 57.3635 5.50038 57.2832 5.27545 57.1064C4.72115 56.6807 4.61672 55.8934 5.03445 55.3391C7.05885 52.6881 9.70985 50.3424 12.9151 48.3742C13.5096 48.0127 14.2888 48.1975 14.6503 48.792C15.0118 49.3864 14.8271 50.1576 14.2326 50.5271C11.2844 52.3346 8.86635 54.4635 7.03475 56.8735C6.79375 57.1868 6.42422 57.3635 6.03862 57.3635ZM52.0053 49.8764C51.7724 49.8764 51.5314 49.8122 51.3145 49.6676C48.6474 47.9163 45.6751 46.631 42.4859 45.8437C41.8111 45.675 41.4014 44.9922 41.562 44.3174C41.7307 43.6426 42.4136 43.2329 43.0884 43.3936C46.5507 44.2451 49.7801 45.6509 52.6962 47.5548C53.2746 47.9324 53.4433 48.7196 53.0577 49.298C52.8167 49.6756 52.415 49.8764 52.0053 49.8764ZM22.8283 46.6631C22.282 46.6631 21.784 46.3097 21.6233 45.7554C21.4305 45.0886 21.8081 44.3897 22.4748 44.1888C25.648 43.2489 28.9818 42.6545 32.3719 42.3974L32.7495 42.3813C33.368 42.4135 34.0187 42.9196 34.0348 43.6185C34.0508 44.3094 33.4966 44.8877 32.7976 44.9038L32.5245 44.9119C29.3433 45.1448 26.1862 45.7152 23.1818 46.5988C23.0693 46.647 22.9488 46.6631 22.8283 46.6631Z" fill="#182A7D"/>
<path d="M325.806 55.2349H393.109C401.52 55.2349 408.34 62.0552 408.34 70.4661V105.178C408.34 113.589 401.52 120.409 393.109 120.409H349.094L333.261 134.379V120.409H325.798C317.387 120.409 310.566 113.589 310.566 105.178V70.4661C310.574 62.0552 317.395 55.2349 325.806 55.2349Z" fill="#182A7D"/>
<path d="M335.598 76.7243H383.324C384.377 76.7243 385.236 75.8727 385.236 74.8123C385.236 73.76 384.385 72.9004 383.324 72.9004H335.598C334.546 72.9004 333.687 73.7519 333.687 74.8123C333.687 75.8647 334.546 76.7243 335.598 76.7243Z" fill="white"/>
<path d="M335.598 89.4489H383.324C384.377 89.4489 385.236 88.5973 385.236 87.5369C385.236 86.4846 384.385 85.625 383.324 85.625H335.598C334.546 85.625 333.687 86.4765 333.687 87.5369C333.687 88.5893 334.546 89.4489 335.598 89.4489Z" fill="white"/>
<path d="M376.319 102.174H383.316C384.369 102.174 385.228 101.322 385.228 100.262C385.228 99.2097 384.377 98.3501 383.316 98.3501H376.319C375.267 98.3501 374.407 99.2016 374.407 100.262C374.415 101.322 375.267 102.174 376.319 102.174Z" fill="white"/>
<path d="M360.414 102.174H367.411C368.463 102.174 369.323 101.322 369.323 100.262C369.323 99.2097 368.471 98.3501 367.411 98.3501H360.414C359.361 98.3501 358.502 99.2016 358.502 100.262C358.51 101.322 359.361 102.174 360.414 102.174Z" fill="white"/>
<path d="M335.598 102.174H351.504C352.557 102.174 353.416 101.322 353.416 100.262C353.416 99.2097 352.565 98.3501 351.504 98.3501H335.598C334.546 98.3501 333.687 99.2016 333.687 100.262C333.687 101.322 334.546 102.174 335.598 102.174Z" fill="white"/>
<path d="M317.29 124.562H265.772C260.703 124.562 256.598 128.668 256.598 133.737V163.444C256.598 168.288 260.35 172.24 265.098 172.586L254.478 189.994L282.474 172.618H317.29C322.359 172.618 326.464 168.513 326.464 163.444V133.737C326.464 128.668 322.359 124.562 317.29 124.562Z" fill="#182A7D"/>
<path d="M295.842 145.694C298.224 143.313 298.224 139.453 295.842 137.071C293.461 134.69 289.601 134.69 287.22 137.071C284.838 139.453 284.838 143.313 287.22 145.694C289.601 148.075 293.461 148.075 295.842 145.694Z" fill="white"/>
<path d="M305.947 161.901H277.115C277.115 156.8 281.252 152.663 286.354 152.663H296.709C301.81 152.663 305.947 156.8 305.947 161.901Z" fill="white"/>
<path d="M255.104 76.2499C253.401 76.2499 251.69 76.0731 250.027 75.7357C249.344 75.5911 248.91 74.9244 249.047 74.2496C249.191 73.5667 249.866 73.149 250.533 73.2695C253.12 73.8077 255.851 73.88 258.438 73.4864C259.129 73.39 259.763 73.8559 259.868 74.5468C259.972 75.2377 259.498 75.8723 258.807 75.9767C257.594 76.1535 256.349 76.2499 255.104 76.2499ZM266.535 73.3097C266.093 73.3097 265.66 73.0767 265.427 72.659C265.089 72.0484 265.314 71.2853 265.917 70.9479C268.246 69.6625 270.303 67.9836 272.054 65.9592C272.504 65.429 273.307 65.3727 273.83 65.8306C274.36 66.2805 274.416 67.0758 273.958 67.606C272.022 69.8553 269.725 71.7191 267.138 73.157C266.945 73.2534 266.736 73.3097 266.535 73.3097ZM242.532 72.6268C242.307 72.6268 242.074 72.5626 241.865 72.434C239.359 70.8595 237.173 68.8672 235.366 66.5135C234.94 65.9592 235.045 65.1719 235.599 64.7461C236.153 64.3204 236.94 64.4248 237.366 64.9791C238.997 67.0919 240.957 68.8833 243.215 70.3052C243.801 70.6747 243.978 71.454 243.608 72.0404C243.359 72.426 242.949 72.6268 242.532 72.6268ZM277.252 60.85C277.107 60.85 276.963 60.8259 276.81 60.7696C276.159 60.5286 275.83 59.8056 276.071 59.1469C276.995 56.6646 277.461 54.0457 277.461 51.3706C277.461 50.6798 278.023 50.1094 278.722 50.1094C279.413 50.1094 279.983 50.6717 279.983 51.3706C279.983 54.351 279.461 57.2591 278.433 60.0306C278.248 60.5286 277.766 60.85 277.252 60.85ZM232.53 59.5968C231.992 59.5968 231.494 59.2513 231.325 58.7051C230.594 56.3352 230.225 53.869 230.225 51.3706C230.225 50.9047 230.241 50.4388 230.265 49.9809C230.305 49.29 230.932 48.7678 231.59 48.8C232.281 48.8401 232.819 49.4346 232.771 50.1255C232.747 50.5352 232.739 50.9529 232.739 51.3706C232.739 53.62 233.076 55.8452 233.727 57.966C233.936 58.6328 233.558 59.3317 232.892 59.5405C232.779 59.5807 232.651 59.5968 232.53 59.5968ZM278.031 46.9282C277.469 46.9282 276.955 46.5426 276.81 45.9722C276.167 43.3855 275.083 40.9594 273.572 38.7583C273.179 38.1879 273.323 37.4007 273.902 37.007C274.472 36.6134 275.259 36.758 275.653 37.3364C277.332 39.7866 278.537 42.4858 279.252 45.3617C279.421 46.0365 279.011 46.7193 278.336 46.888C278.232 46.9202 278.127 46.9282 278.031 46.9282ZM233.446 43.1847C233.277 43.1847 233.109 43.1525 232.94 43.0802C232.305 42.7991 232.008 42.06 232.289 41.4254C233.47 38.7101 235.117 36.2519 237.181 34.115C237.663 33.6089 238.459 33.6009 238.957 34.0829C239.455 34.5649 239.471 35.3602 238.989 35.8583C237.133 37.7782 235.655 39.9874 234.595 42.4295C234.394 42.9035 233.928 43.1847 233.446 43.1847ZM268.761 33.3519C268.511 33.3519 268.254 33.2796 268.029 33.1189C265.86 31.5765 263.45 30.4438 260.88 29.761C260.205 29.5842 259.811 28.8934 259.988 28.2186C260.173 27.5518 260.856 27.1501 261.531 27.3269C264.398 28.09 267.074 29.3513 269.492 31.0704C270.062 31.4721 270.19 32.2593 269.789 32.8297C269.54 33.1671 269.154 33.3519 268.761 33.3519ZM244.845 31.3435C244.379 31.3435 243.929 31.0784 243.713 30.6286C243.407 30.002 243.672 29.2468 244.299 28.9496C246.966 27.6643 249.818 26.869 252.774 26.5958C253.441 26.5316 254.084 27.0377 254.148 27.7366C254.212 28.4274 253.706 29.046 253.007 29.1103C250.348 29.3593 247.785 30.0662 245.392 31.223C245.215 31.3034 245.03 31.3435 244.845 31.3435Z" fill="#182A7D"/>
<path d="M255.104 39.4092C245.986 39.4092 238.596 44.2934 238.596 50.3184C238.596 50.3265 238.596 50.3426 238.596 50.3506C238.604 51.9251 239.841 53.0016 241.006 52.5035L245.336 50.6558C246.38 50.214 246.886 48.6957 246.412 47.4104L245.882 45.9564C245.882 45.9564 253.843 47.3783 264.254 45.9564L263.716 47.8201C263.379 49.001 263.82 50.3184 264.72 50.8085L269.002 53.1462C270.046 53.7165 271.259 52.9534 271.5 51.5315C271.564 51.1298 271.605 50.7282 271.605 50.3104C271.613 44.2935 264.222 39.4092 255.104 39.4092Z" fill="#182A7D"/>
<path d="M266.535 63.3242H243.656L247.046 52.7042C247.681 50.7119 249.529 49.3623 251.625 49.3623H258.574C260.663 49.3623 262.519 50.7119 263.153 52.7042L266.535 63.3242Z" fill="#182A7D"/>
<path d="M266.535 63.3242H243.656L247.046 52.7042C247.681 50.7119 249.529 49.3623 251.625 49.3623H258.574C260.663 49.3623 262.519 50.7119 263.153 52.7042L266.535 63.3242Z" fill="url(#paint16_linear_5823_14685)"/>
<path d="M402.548 205.619C400.837 205.619 399.126 205.442 397.463 205.097C396.78 204.952 396.346 204.285 396.483 203.61C396.628 202.928 397.302 202.502 397.969 202.63C400.548 203.169 403.295 203.241 405.874 202.847C406.565 202.751 407.199 203.217 407.304 203.908C407.408 204.598 406.934 205.233 406.244 205.338C405.047 205.522 403.801 205.619 402.548 205.619ZM413.98 202.679C413.538 202.679 413.104 202.446 412.879 202.028C412.542 201.417 412.759 200.654 413.369 200.317C415.699 199.023 417.763 197.344 419.507 195.328C419.956 194.798 420.752 194.742 421.282 195.199C421.812 195.649 421.868 196.445 421.41 196.975C419.474 199.224 417.177 201.088 414.59 202.526C414.389 202.63 414.18 202.679 413.98 202.679ZM389.984 202.004C389.759 202.004 389.526 201.939 389.317 201.811C386.811 200.236 384.626 198.244 382.818 195.89C382.393 195.336 382.497 194.549 383.051 194.123C383.606 193.697 384.393 193.802 384.819 194.356C386.441 196.469 388.41 198.26 390.659 199.682C391.245 200.052 391.422 200.831 391.052 201.417C390.811 201.795 390.402 202.004 389.984 202.004ZM424.696 190.219C424.551 190.219 424.407 190.195 424.254 190.138C423.604 189.897 423.274 189.174 423.515 188.516C424.439 186.033 424.905 183.415 424.905 180.739C424.905 180.049 425.467 179.478 426.166 179.478C426.857 179.478 427.427 180.041 427.427 180.739C427.427 183.72 426.905 186.628 425.877 189.399C425.692 189.906 425.21 190.219 424.696 190.219ZM379.975 188.966C379.436 188.966 378.938 188.62 378.77 188.074C378.038 185.704 377.669 183.238 377.669 180.739C377.669 180.274 377.685 179.808 377.709 179.35C377.749 178.659 378.432 178.129 379.035 178.161C379.725 178.201 380.264 178.795 380.224 179.486C380.199 179.904 380.191 180.322 380.191 180.739C380.191 182.989 380.521 185.206 381.18 187.335C381.388 188.002 381.011 188.701 380.344 188.909C380.224 188.95 380.095 188.966 379.975 188.966ZM425.483 176.305C424.921 176.305 424.407 175.919 424.262 175.349C423.62 172.77 422.535 170.344 421.025 168.143C420.631 167.573 420.776 166.786 421.354 166.392C421.925 165.998 422.712 166.143 423.105 166.721C424.784 169.171 425.989 171.871 426.704 174.747C426.873 175.421 426.463 176.104 425.789 176.273C425.684 176.297 425.58 176.305 425.483 176.305ZM380.89 172.553C380.722 172.553 380.553 172.521 380.384 172.449C379.75 172.168 379.452 171.429 379.734 170.794C380.922 168.079 382.569 165.621 384.626 163.484C385.108 162.978 385.903 162.97 386.401 163.452C386.899 163.934 386.915 164.729 386.433 165.227C384.586 167.147 383.099 169.356 382.039 171.798C381.838 172.272 381.38 172.553 380.89 172.553ZM416.213 162.729C415.964 162.729 415.707 162.656 415.482 162.496C413.305 160.945 410.903 159.821 408.332 159.13C407.657 158.953 407.264 158.262 407.44 157.587C407.617 156.921 408.308 156.527 408.983 156.696C411.843 157.459 414.526 158.72 416.944 160.439C417.514 160.841 417.643 161.628 417.241 162.199C416.992 162.552 416.606 162.729 416.213 162.729ZM392.298 160.72C391.832 160.72 391.382 160.455 391.165 160.005C390.86 159.379 391.125 158.624 391.751 158.326C394.418 157.041 397.27 156.246 400.227 155.973C400.933 155.908 401.536 156.423 401.6 157.113C401.664 157.804 401.15 158.423 400.46 158.487C397.8 158.736 395.238 159.443 392.844 160.6C392.667 160.672 392.482 160.72 392.298 160.72Z" fill="#182A7D"/>
<path d="M416.991 176.265H387.71V192.87H416.991V176.265Z" fill="#182A7D"/>
<path d="M416.991 176.265H387.71V192.87H416.991V176.265Z" fill="url(#paint17_linear_5823_14685)"/>
<path d="M412.975 174.947V172.915C412.975 171.421 414.188 170.208 415.682 170.208C417.176 170.208 418.389 171.421 418.389 172.915V176.281H412.975" fill="#182A7D"/>
<path d="M412.975 174.947V172.915C412.975 171.421 414.188 170.208 415.682 170.208C417.176 170.208 418.389 171.421 418.389 172.915V176.281H412.975" fill="url(#paint18_linear_5823_14685)"/>
<path d="M413.031 172.875V190.13H393.068V172.875C393.068 171.381 394.281 170.167 395.776 170.167H415.513L414.967 170.28C413.851 170.609 413.031 171.646 413.031 172.875Z" fill="#E3EDF6"/>
<path d="M398.732 172.979H394.306V177.526H398.732V172.979Z" fill="#182A7D"/>
<path d="M400.09 172.947H411.345" stroke="#303876" stroke-width="0.6576" stroke-miterlimit="10" stroke-linecap="round" stroke-linejoin="round"/>
<path d="M400.09 174.481H411.345" stroke="#303876" stroke-width="0.6576" stroke-miterlimit="10" stroke-linecap="round" stroke-linejoin="round"/>
<path d="M400.09 176.008H411.345" stroke="#303876" stroke-width="0.6576" stroke-miterlimit="10" stroke-linecap="round" stroke-linejoin="round"/>
<path d="M400.194 177.542H411.449" stroke="#303876" stroke-width="0.6576" stroke-miterlimit="10" stroke-linecap="round" stroke-linejoin="round"/>
<path d="M394.306 179.053H411.344" stroke="#303876" stroke-width="0.6576" stroke-miterlimit="10" stroke-linecap="round" stroke-linejoin="round"/>
<path d="M394.306 180.579H411.344" stroke="#303876" stroke-width="0.6576" stroke-miterlimit="10" stroke-linecap="round" stroke-linejoin="round"/>
<path d="M394.306 182.081H411.344" stroke="#303876" stroke-width="0.6576" stroke-miterlimit="10" stroke-linecap="round" stroke-linejoin="round"/>
<path d="M394.306 183.607H402.588" stroke="#303876" stroke-width="0.6576" stroke-miterlimit="10" stroke-linecap="round" stroke-linejoin="round"/>
<path d="M409.802 192.87H387.71V176.265L409.802 192.87Z" fill="#182A7D"/>
<path d="M394.908 192.87H416.992V176.265L394.908 192.87Z" fill="#182A7D"/>
<path d="M416.992 192.87H402.347H387.702L400.853 185.849C401.752 185.23 402.933 185.23 403.833 185.849L416.992 192.87Z" fill="#182A7D"/>
<defs>
<linearGradient id="paint0_linear_5823_14685" x1="397.453" y1="233.215" x2="412.32" y2="233.215" gradientUnits="userSpaceOnUse">
<stop stop-color="#6CBCED"/>
<stop offset="1" stop-color="#6CBCED" stop-opacity="0"/>
</linearGradient>
<linearGradient id="paint1_linear_5823_14685" x1="439.162" y1="127.726" x2="454.029" y2="127.726" gradientUnits="userSpaceOnUse">
<stop stop-color="#6CBCED"/>
<stop offset="1" stop-color="#6CBCED" stop-opacity="0"/>
</linearGradient>
<linearGradient id="paint2_linear_5823_14685" x1="162.087" y1="26.4712" x2="176.955" y2="26.4712" gradientUnits="userSpaceOnUse">
<stop stop-color="#6CBCED"/>
<stop offset="1" stop-color="#6CBCED" stop-opacity="0"/>
</linearGradient>
<linearGradient id="paint3_linear_5823_14685" x1="86.8853" y1="47.1257" x2="101.753" y2="47.1257" gradientUnits="userSpaceOnUse">
<stop stop-color="#6CBCED"/>
<stop offset="1" stop-color="#6CBCED" stop-opacity="0"/>
</linearGradient>
<linearGradient id="paint4_linear_5823_14685" x1="137.475" y1="10.47" x2="142.657" y2="10.47" gradientUnits="userSpaceOnUse">
<stop stop-color="#6CBCED"/>
<stop offset="1" stop-color="#6CBCED" stop-opacity="0"/>
</linearGradient>
<linearGradient id="paint5_linear_5823_14685" x1="274.276" y1="100.339" x2="279.457" y2="100.339" gradientUnits="userSpaceOnUse">
<stop stop-color="#6CBCED"/>
<stop offset="1" stop-color="#6CBCED" stop-opacity="0"/>
</linearGradient>
<linearGradient id="paint6_linear_5823_14685" x1="20.8051" y1="144.894" x2="25.9866" y2="144.894" gradientUnits="userSpaceOnUse">
<stop stop-color="#6CBCED"/>
<stop offset="1" stop-color="#6CBCED" stop-opacity="0"/>
</linearGradient>
<linearGradient id="paint7_linear_5823_14685" x1="248.265" y1="215.17" x2="253.447" y2="215.17" gradientUnits="userSpaceOnUse">
<stop stop-color="#6CBCED"/>
<stop offset="1" stop-color="#6CBCED" stop-opacity="0"/>
</linearGradient>
<linearGradient id="paint8_linear_5823_14685" x1="212.504" y1="255.834" x2="250.984" y2="255.834" gradientUnits="userSpaceOnUse">
<stop stop-color="#6CBCED"/>
<stop offset="1" stop-color="#6CBCED" stop-opacity="0"/>
</linearGradient>
<linearGradient id="paint9_linear_5823_14685" x1="221.232" y1="263.911" x2="276.882" y2="263.911" gradientUnits="userSpaceOnUse">
<stop stop-color="#6CBCED"/>
<stop offset="1" stop-color="#6CBCED" stop-opacity="0"/>
</linearGradient>
<linearGradient id="paint10_linear_5823_14685" x1="191.001" y1="177.302" x2="215.284" y2="177.79" gradientUnits="userSpaceOnUse">
<stop stop-color="#6CBCED"/>
<stop offset="1" stop-color="#6CBCED" stop-opacity="0"/>
</linearGradient>
<linearGradient id="paint11_linear_5823_14685" x1="205.026" y1="321.389" x2="202.097" y2="223.647" gradientUnits="userSpaceOnUse">
<stop stop-color="#6CBCED"/>
<stop offset="1" stop-color="#6CBCED" stop-opacity="0"/>
</linearGradient>
<linearGradient id="paint12_linear_5823_14685" x1="239.519" y1="265.813" x2="333.464" y2="265.813" gradientUnits="userSpaceOnUse">
<stop stop-color="#6CBCED"/>
<stop offset="1" stop-color="#6CBCED" stop-opacity="0"/>
</linearGradient>
<linearGradient id="paint13_linear_5823_14685" x1="399.352" y1="296.119" x2="-163.673" y2="303.807" gradientUnits="userSpaceOnUse">
<stop stop-color="#6CBCED"/>
<stop offset="1" stop-color="#6CBCED" stop-opacity="0"/>
</linearGradient>
<linearGradient id="paint14_linear_5823_14685" x1="156.053" y1="115.154" x2="227.072" y2="115.154" gradientUnits="userSpaceOnUse">
<stop stop-color="#6CBCED"/>
<stop offset="1" stop-color="#6CBCED" stop-opacity="0"/>
</linearGradient>
<linearGradient id="paint15_linear_5823_14685" x1="156.682" y1="92.6808" x2="194.626" y2="114.011" gradientUnits="userSpaceOnUse">
<stop stop-color="#6CBCED"/>
<stop offset="1" stop-color="#6CBCED" stop-opacity="0"/>
</linearGradient>
<linearGradient id="paint16_linear_5823_14685" x1="255.108" y1="63.6706" x2="254.676" y2="49.2706" gradientUnits="userSpaceOnUse">
<stop stop-color="#6CBCED"/>
<stop offset="1" stop-color="#6CBCED" stop-opacity="0"/>
</linearGradient>
<linearGradient id="paint17_linear_5823_14685" x1="387.71" y1="184.564" x2="416.993" y2="184.564" gradientUnits="userSpaceOnUse">
<stop stop-color="#6CBCED"/>
<stop offset="1" stop-color="#6CBCED" stop-opacity="0"/>
</linearGradient>
<linearGradient id="paint18_linear_5823_14685" x1="412.978" y1="173.244" x2="418.394" y2="173.244" gradientUnits="userSpaceOnUse">
<stop stop-color="#6CBCED"/>
<stop offset="1" stop-color="#6CBCED" stop-opacity="0"/>
</linearGradient>
</defs>
</svg>
