<svg width="28" height="29" viewBox="0 0 28 29" fill="none" xmlns="http://www.w3.org/2000/svg">
<path d="M14 9.60407V18.7041L17.675 20.9499L16.7125 16.7499L19.95 13.9499L15.6916 13.5707L14 9.60407ZM14 21.4457L9.15829 24.3624C8.9444 24.4985 8.72079 24.5568 8.48746 24.5374C8.25413 24.518 8.04996 24.4402 7.87496 24.3041C7.69996 24.168 7.56385 23.998 7.46663 23.7942C7.3694 23.5897 7.34996 23.361 7.40829 23.1082L8.69163 17.5957L4.40413 13.8916C4.20968 13.7166 4.08835 13.5171 4.04013 13.2931C3.99113 13.0698 4.00552 12.8513 4.08329 12.6374C4.16107 12.4235 4.27774 12.2485 4.43329 12.1124C4.58885 11.9763 4.80274 11.8888 5.07496 11.8499L10.7333 11.3541L12.9208 6.1624C13.018 5.92907 13.1689 5.75407 13.3735 5.6374C13.5772 5.52074 13.7861 5.4624 14 5.4624C14.2138 5.4624 14.4231 5.52074 14.6276 5.6374C14.8314 5.75407 14.9819 5.92907 15.0791 6.1624L17.2666 11.3541L22.925 11.8499C23.1972 11.8888 23.4111 11.9763 23.5666 12.1124C23.7222 12.2485 23.8388 12.4235 23.9166 12.6374C23.9944 12.8513 24.0092 13.0698 23.961 13.2931C23.912 13.5171 23.7902 13.7166 23.5958 13.8916L19.3083 17.5957L20.5916 23.1082C20.65 23.361 20.6305 23.5897 20.5333 23.7942C20.4361 23.998 20.3 24.168 20.125 24.3041C19.95 24.4402 19.7458 24.518 19.5125 24.5374C19.2791 24.5568 19.0555 24.4985 18.8416 24.3624L14 21.4457Z" fill="#273C7F"/>
</svg>
