<svg width="20" height="20" viewBox="0 0 20 20" fill="none" xmlns="http://www.w3.org/2000/svg">
<path d="M9.99996 16.4457L5.15829 19.3624C4.9444 19.4985 4.72079 19.5568 4.48746 19.5374C4.25413 19.518 4.04996 19.4402 3.87496 19.3041C3.69996 19.168 3.56385 18.998 3.46663 18.7942C3.3694 18.5897 3.34996 18.361 3.40829 18.1082L4.69163 12.5957L0.404127 8.89157C0.209682 8.71657 0.088349 8.51707 0.0401267 8.29307C-0.00887325 8.06985 0.00551556 7.85129 0.0832933 7.6374C0.161071 7.42351 0.277738 7.24851 0.433293 7.1124C0.588849 6.97629 0.802738 6.88879 1.07496 6.8499L6.73329 6.35407L8.92079 1.1624C9.01801 0.929069 9.1689 0.754069 9.37346 0.637402C9.57724 0.520736 9.78607 0.462402 9.99996 0.462402C10.2138 0.462402 10.4231 0.520736 10.6276 0.637402C10.8314 0.754069 10.9819 0.929069 11.0791 1.1624L13.2666 6.35407L18.925 6.8499C19.1972 6.88879 19.4111 6.97629 19.5666 7.1124C19.7222 7.24851 19.8388 7.42351 19.9166 7.6374C19.9944 7.85129 20.0092 8.06985 19.961 8.29307C19.912 8.51707 19.7902 8.71657 19.5958 8.89157L15.3083 12.5957L16.5916 18.1082C16.65 18.361 16.6305 18.5897 16.5333 18.7942C16.4361 18.998 16.3 19.168 16.125 19.3041C15.95 19.4402 15.7458 19.518 15.5125 19.5374C15.2791 19.5568 15.0555 19.4985 14.8416 19.3624L9.99996 16.4457Z" fill="#273C7F"/>
</svg>
