<svg id="Layer_1" data-name="Layer 1" xmlns="http://www.w3.org/2000/svg" viewBox="0 0 24 24"><defs><style>.cls-1{fill:#539e43;}</style></defs><path class="cls-1" d="M11.84,22.38a1.73,1.73,0,0,1-.8-.21l-2.52-1.5c-.38-.21-.19-.29-.07-.32a4.35,4.35,0,0,0,1.13-.52.21.21,0,0,1,.19,0L11.71,21a.24.24,0,0,0,.23,0l7.56-4.38a.21.21,0,0,0,.12-.21V7.68a.21.21,0,0,0-.12-.21L11.94,3.11a.23.23,0,0,0-.23,0L4.14,7.47A.25.25,0,0,0,4,7.68v8.74a.25.25,0,0,0,.11.21l2.07,1.19c1.12.57,1.82-.09,1.82-.75V8.44a.23.23,0,0,1,.23-.23h1a.23.23,0,0,1,.23.23v8.63a2.1,2.1,0,0,1-2.24,2.37A3.23,3.23,0,0,1,5.47,19l-2-1.14a1.6,1.6,0,0,1-.8-1.38V7.7a1.63,1.63,0,0,1,.8-1.39L11,1.93a1.74,1.74,0,0,1,1.6,0L20.2,6.31A1.6,1.6,0,0,1,21,7.7v8.74a1.58,1.58,0,0,1-.8,1.38L12.64,22.2a1.87,1.87,0,0,1-.8.18Zm2.33-6c-3.32,0-4-1.51-4-2.8a.23.23,0,0,1,.23-.23h1a.19.19,0,0,1,.2.19c.16,1,.59,1.5,2.6,1.5,1.6,0,2.28-.36,2.28-1.22,0-.49-.19-.85-2.68-1.1-2.06-.2-3.35-.66-3.35-2.31s1.29-2.45,3.45-2.45c2.43,0,3.62.84,3.77,2.66a.37.37,0,0,1-.05.17.25.25,0,0,1-.16.08h-1a.22.22,0,0,1-.21-.17c-.23-1-.82-1.39-2.37-1.39-1.75,0-2,.61-2,1.06s.24.72,2.59,1S18,12.12,18,13.75s-1.39,2.61-3.8,2.61Z"/></svg>