<svg id="Layer_1" data-name="Layer 1" xmlns="http://www.w3.org/2000/svg" xmlns:xlink="http://www.w3.org/1999/xlink" viewBox="0 0 128 128"><defs><style>.cls-1{fill:#283376;}.cls-2{fill:url(#linear-gradient);}</style><linearGradient id="linear-gradient" x1="62.62" y1="45.71" x2="67.11" y2="88.41" gradientTransform="matrix(1, 0, 0, -1, 0, 130)" gradientUnits="userSpaceOnUse"><stop offset="0" stop-color="#283478"/><stop offset="1" stop-color="#1675b1"/></linearGradient></defs><path class="cls-1" d="M115,37.28l2.92-7,9.2,3.89-9.81,23.3L94,47.63l3.88-9.2,7,2.91A47,47,0,0,0,18.13,52.8l-10-2.43A56.52,56.52,0,0,1,47.48,8.83,57.82,57.82,0,0,1,115,37.28Z"/><path class="cls-1" d="M109.61,75.23l10,2.43a57,57,0,0,1-41.28,42,57.89,57.89,0,0,1-65.64-28.9l-3,6.92L5.16,95.84.55,93.9l9.88-23.26L33.69,80.5,29.8,89.7,23,86.84c.49,3.15,8,11.67,13.77,15.75a47.26,47.26,0,0,0,53,.8A46.61,46.61,0,0,0,109.61,75.23Z"/><path class="cls-2" d="M44.32,54.57a13.7,13.7,0,0,0-9.71,4.54,13.87,13.87,0,0,0-2.72,11.78,16.1,16.1,0,0,0,9.54,10.82,6,6,0,0,0,2.43.51L86.62,82a6.19,6.19,0,0,0,2.57-.59,13.49,13.49,0,0,0,7.43-8.71A12.37,12.37,0,0,0,94.94,63a12.87,12.87,0,0,0-9.71-5.32,14,14,0,0,0-24.4-10.85,11,11,0,0,0-16.51,7.74Z"/></svg>