<svg id="Layer_1" data-name="Layer 1" xmlns="http://www.w3.org/2000/svg" xmlns:xlink="http://www.w3.org/1999/xlink" viewBox="0 0 64 64"><defs><style>.cls-1{fill:#283376;}.cls-2{fill:url(#linear-gradient);}</style><linearGradient id="linear-gradient" x1="30.22" y1="40.24" x2="32.07" y2="22.65" gradientUnits="userSpaceOnUse"><stop offset="0" stop-color="#283478"/><stop offset="1" stop-color="#1675b1"/></linearGradient></defs><path class="cls-1" d="M51.8,20.88,53,18l3.79,1.6L52.75,29.2l-9.58-4.06,1.6-3.79,2.88,1.2a19.31,19.31,0,0,0-28.3-6.33,19.19,19.19,0,0,0-7.44,11.05l-4.12-1A23.28,23.28,0,0,1,24,9.16,23.82,23.82,0,0,1,51.8,20.88Z"/><path class="cls-1" d="M49.59,36.51l4.14,1a23.45,23.45,0,0,1-17,17.31A23.85,23.85,0,0,1,9.69,42.92L8.46,45.77,6.57,45l-1.9-.8,4.07-9.58,9.58,4.06-1.6,3.79-2.81-1.18c.2,1.3,3.28,4.81,5.67,6.49a19.47,19.47,0,0,0,21.83.33A19.18,19.18,0,0,0,49.59,36.51Z"/><path class="cls-2" d="M22.7,28a5.64,5.64,0,0,0-4,1.87,5.7,5.7,0,0,0-1.12,4.85,6.64,6.64,0,0,0,3.93,4.46,2.52,2.52,0,0,0,1,.21l17.61-.09a2.48,2.48,0,0,0,1.06-.24,5.56,5.56,0,0,0,3.06-3.59,5.09,5.09,0,0,0-.69-4,5.3,5.3,0,0,0-4-2.19A5.78,5.78,0,0,0,29.5,24.81a4.75,4.75,0,0,0-3.73-.4A4.69,4.69,0,0,0,22.7,28Z"/></svg>