<svg width="53" height="68" viewBox="0 0 53 68" fill="none" xmlns="http://www.w3.org/2000/svg">
<path d="M5.04619 35.1531H16.9805V67.4303H5.04619V35.1531Z" fill="#002680"/>
<path opacity="0.2" d="M13.6123 35.1228H16.9844V67.438H13.6123V35.1228Z" fill="black"/>
<path d="M16.9974 48.0625H28.9316V67.4311H16.9974V48.0625Z" fill="#002680"/>
<path opacity="0.2" d="M25.3452 48.0625H28.9316V67.4113H25.3452V48.0625Z" fill="black"/>
<path d="M28.9407 52.1763H40.875V67.4325H28.9407V52.1763Z" fill="#002680"/>
<path opacity="0.2" d="M37.325 52.1763H40.875V67.412H37.325V52.1763Z" fill="black"/>
<path d="M40.879 56.2883H52.8125V67.4315H40.879V56.2883Z" fill="#002680"/>
<path opacity="0.2" d="M49.4384 56.2769H52.8105V67.4101H49.4384V56.2769Z" fill="black"/>
<path d="M20.366 10.2199C20.9329 10.9055 21.5166 11.5765 22.1003 12.2469L22.5419 12.7469L22.9378 13.1885C23.1005 13.3808 23.2084 13.6217 23.2464 13.8847L23.3794 15.1865C23.4242 15.6281 23.4668 16.0697 23.5185 16.5112C23.6157 17.3943 23.7176 18.2767 23.8361 19.1583C23.8779 19.4676 24.1622 19.6842 24.4707 19.6424C24.7436 19.6059 24.9442 19.3802 24.9594 19.115C25.0103 18.2273 25.0445 17.3411 25.0742 16.4542C25.0924 16.0111 25.1015 15.5681 25.1122 15.125L25.1426 13.7729C25.1342 13.1513 24.929 12.5258 24.5733 12.0006L24.1341 11.4101L23.7358 10.8811C23.2008 10.1797 22.665 9.47894 22.1125 8.79266C21.7218 8.30778 21.012 8.23026 20.5271 8.6209C20.0422 9.01154 19.9647 9.72138 20.3553 10.2063C20.3584 10.2108 20.3637 10.2177 20.366 10.2199Z" fill="#002680"/>
<path d="M20.366 10.2199C20.9329 10.9055 21.5166 11.5765 22.1003 12.2469L22.5419 12.7469L22.9378 13.1885C23.1005 13.3808 23.2084 13.6217 23.2464 13.8847L23.3794 15.1865C23.4242 15.6281 23.4668 16.0697 23.5185 16.5112C23.6157 17.3943 23.7176 18.2767 23.8361 19.1583C23.8779 19.4676 24.1622 19.6842 24.4707 19.6424C24.7436 19.6059 24.9442 19.3802 24.9594 19.115C25.0103 18.2273 25.0445 17.3411 25.0742 16.4542C25.0924 16.0111 25.1015 15.5681 25.1122 15.125L25.1426 13.7729C25.1342 13.1513 24.929 12.5258 24.5733 12.0006L24.1341 11.4101L23.7358 10.8811C23.2008 10.1797 22.665 9.47894 22.1125 8.79266C21.7218 8.30778 21.012 8.23026 20.5271 8.6209C20.0422 9.01154 19.9647 9.72138 20.3553 10.2063C20.3584 10.2108 20.3637 10.2177 20.366 10.2199Z" fill="url(#paint0_linear_3941_5706)"/>
<path d="M25.0987 19.2177L25.8359 20.4694L24.1389 20.6419L23.8402 19.3712C23.8045 19.2207 23.9017 19.0687 24.0537 19.0429C24.3357 18.9942 24.7757 18.9745 25.0987 19.2177Z" fill="#E27B62"/>
<path d="M25.8359 20.4697L25.7584 20.9128C25.7204 21.1317 25.5297 21.2913 25.3077 21.2905L24.7552 21.289C24.5865 21.2882 24.4322 21.1955 24.3532 21.0466L24.1389 20.6422L25.8359 20.4697Z" fill="#E27B62"/>
<path d="M25.2188 18.2798L23.5855 18.3353L23.6904 19.3111L25.0705 19.2047L25.2188 18.2798Z" fill="#007CFF"/>
<path opacity="0.3" d="M25.2188 18.2798L23.5855 18.3353L23.6904 19.3111L25.0705 19.2047L25.2188 18.2798Z" fill="white"/>
<path d="M16.93 3.14278C16.8654 3.13062 16.797 3.1975 16.7765 3.29478C16.756 3.39206 16.7894 3.48326 16.854 3.49542C16.9186 3.50758 16.987 3.4407 17.0075 3.34342C17.0334 3.2431 16.9946 3.15494 16.93 3.14278Z" fill="#1A2E35"/>
<path d="M16.9188 3.22408C16.8534 3.19368 16.7926 3.12452 16.766 3.05688C16.8223 3.10932 16.8998 3.13896 16.9766 3.13668C16.9477 3.15416 16.9203 3.19064 16.9188 3.22408Z" fill="#1A2E35"/>
<path d="M16.7914 4.2114C16.622 4.21824 16.4586 4.14984 16.3446 4.0252C16.5916 3.81088 16.8082 3.56312 16.9883 3.29028L16.7914 4.2114Z" fill="#D14C38"/>
<path d="M17.4712 2.98315C17.3777 2.86611 17.2333 2.80075 17.0836 2.80911C17.0775 2.81139 17.0707 2.81215 17.0646 2.81215C17.0319 2.81139 17.0053 2.78403 17.0061 2.75135C17.0068 2.71867 17.0342 2.69207 17.0669 2.69283C17.2538 2.67763 17.437 2.75363 17.5578 2.89803C17.5669 2.90867 17.5723 2.92235 17.5723 2.93679C17.5723 2.96947 17.5457 2.99607 17.513 2.99607C17.4978 2.99683 17.4826 2.99227 17.4712 2.98315Z" fill="#1A2E35"/>
<path d="M18.0846 8.8124C19.7627 8.83064 20.0195 7.91712 20.0195 7.91712C19.521 7.42768 19.4967 6.5324 19.6023 5.73364C19.4739 5.91376 19.3135 6.07184 19.1037 6.21168C18.7025 6.4754 17.8315 6.05132 17.8315 6.05132C17.8292 6.05132 17.8315 6.20028 17.8201 6.4146C17.7927 6.93748 17.678 7.85556 17.2022 7.99768C17.203 7.99844 16.2355 8.79264 18.0846 8.8124Z" fill="#E27B62"/>
<path d="M17.8077 6.18893C17.8252 6.26645 17.8434 6.34321 17.854 6.42529C17.8609 6.42985 17.8677 6.43213 17.8753 6.43289C18.2682 6.53017 18.7022 6.47697 19.1042 6.21325C19.3155 6.07341 19.4759 5.91685 19.6036 5.73597C19.6294 5.53305 19.6659 5.33545 19.7031 5.15381L17.8761 6.15321L17.8077 6.18893Z" fill="#E27B62"/>
<path d="M16.6057 4.81782C16.6178 5.43798 16.9568 5.96162 17.4318 6.24662H17.4341C17.4364 6.2489 17.4386 6.2489 17.4409 6.2489C17.5686 6.32946 17.7077 6.38722 17.8544 6.4237C17.8612 6.42826 17.868 6.43054 17.8756 6.4313C18.2686 6.52858 18.7025 6.47538 19.1046 6.21166C19.3158 6.07182 19.4762 5.91526 19.6039 5.73438C19.933 5.28294 20.0698 4.68102 20.3054 3.83438C20.3783 3.58586 20.3928 3.32214 20.3464 3.06754C20.1815 2.1563 19.309 1.5521 18.4 1.71778C17.124 1.94426 16.5806 3.68466 16.6057 4.81782Z" fill="#E27B62"/>
<path opacity="0.2" d="M17.5227 6.28066C17.6398 6.35514 17.6983 6.38402 17.8206 6.41594C17.832 6.20162 17.8298 6.05266 17.832 6.05266C17.8206 5.8657 17.8069 5.67798 17.8069 5.67798C17.8069 5.68482 17.6109 6.28066 17.5227 6.28066Z" fill="black"/>
<path d="M17.0462 2.5302C17.183 2.74756 17.6132 2.93072 17.598 2.88056C17.5243 2.70044 17.538 2.35464 17.7606 2.43596C17.6991 2.57352 17.5136 3.6094 17.598 3.7348C17.6436 3.8032 17.6877 4.63236 18.0403 5.36272C18.3215 5.94564 18.3215 6.12652 18.3215 6.12652L19.4668 6.34768C19.8955 6.29448 20.2952 5.74652 20.3302 5.68572C20.4799 5.42808 20.9374 5.08988 21.1753 4.91128C21.2779 4.83376 21.3585 4.71976 21.4026 4.5974C21.4808 4.37776 21.3205 3.58508 21.2855 3.21268C21.2354 2.67688 20.9542 2.18136 20.1767 1.86292C19.6964 1.66608 19.292 1.2344 18.8011 1.0634C18.3109 0.892397 17.7272 0.899998 17.313 1.21388C17.1101 1.36664 16.7042 1.98604 17.0462 2.5302Z" fill="#1A2E35"/>
<path d="M17.6452 3.28475C17.2926 3.38811 17.1079 3.90795 17.0934 4.23855C17.076 4.60335 17.3199 4.83363 17.6384 4.58967C17.8778 4.40119 18.0488 4.13975 18.1255 3.84487C18.2114 3.48767 17.9986 3.18139 17.6452 3.28475Z" fill="#E27B62"/>
<path d="M20.502 8.52261C20.502 8.52261 20.2413 7.71777 19.8484 7.46393C19.4554 7.21009 17.7287 7.47381 17.4582 7.57945C17.1876 7.68509 16.9148 8.30905 16.9148 8.30905L20.502 8.52261Z" fill="#007CFF"/>
<path opacity="0.3" d="M20.502 8.52261C20.502 8.52261 20.2413 7.71777 19.8484 7.46393C19.4554 7.21009 17.7287 7.47381 17.4582 7.57945C17.1876 7.68509 16.9148 8.30905 16.9148 8.30905L20.502 8.52261Z" fill="white"/>
<path d="M16.5604 8.18006C16.8287 8.13598 16.9032 8.09494 17.211 8.07138C18.1374 8.02806 19.0654 8.03794 19.9903 8.10102C20.3277 8.12534 20.653 8.1907 20.9752 8.26822C21.638 8.42706 22.0841 9.04494 22.0354 9.71982C21.8979 11.6077 21.34 12.7157 21.2572 13.9591C21.093 16.4359 21.4882 18.1718 21.5551 18.7501L20.2852 18.9432C18.0173 18.8892 16.5118 18.4021 15.2638 17.8708C15.2638 17.8708 15.5906 14.8764 15.2745 13.798C14.4104 10.8507 14.9712 10.3841 15.1415 9.54046C15.2851 8.83746 15.849 8.29634 16.5604 8.18006Z" fill="#002680"/>
<path opacity="0.1" d="M15.2759 13.7951C15.3793 14.147 15.4135 14.7018 15.4135 15.2878C15.4135 16.5053 15.2645 17.868 15.2645 17.868C16.5117 18.4 18.018 18.8871 20.2873 18.9419L21.5573 18.748C21.4897 18.1704 21.0952 16.4339 21.2571 13.9578C21.3407 12.7152 21.8978 11.6079 22.0353 9.71773C22.0847 9.04361 21.6386 8.42573 20.9751 8.26765C20.6529 8.18861 20.3276 8.12553 19.9894 8.10045C19.0645 8.03737 18.1381 8.02597 17.2109 8.06853C16.9038 8.09361 16.8301 8.13389 16.5611 8.17873C15.8482 8.29577 15.2843 8.83537 15.1421 9.53837C15.0813 9.84085 14.9689 10.0955 14.8921 10.4337C14.7971 10.8441 14.7523 11.3783 14.9103 12.2736C14.9825 12.6947 15.0996 13.1932 15.2759 13.7951Z" fill="#002680"/>
<path d="M16.1957 8.08787C15.7321 8.15323 15.2731 8.24595 14.8117 8.32347C14.3519 8.4124 13.8921 8.5036 13.4339 8.60164L13.5995 8.58872C13.3951 8.59784 13.215 8.6138 13.1017 8.62064C13.047 8.62444 13.0083 8.62367 13.0227 8.63203C13.0257 8.63659 13.0523 8.64496 13.0835 8.66547C13.123 8.68676 13.1701 8.72096 13.2211 8.77264C13.3267 8.87828 13.3693 9.0204 13.3662 9.0622C13.367 9.1078 13.3525 9.09715 13.3503 9.06143C13.3427 8.98847 13.3579 8.84939 13.3883 8.70651L13.367 8.76579C13.5995 8.09471 13.8207 7.41831 14.0229 6.73507C14.2189 6.04955 14.4074 5.36099 14.5419 4.65115C14.5936 4.37831 14.4143 4.11611 14.1414 4.06443C13.9332 4.02491 13.7295 4.12219 13.6231 4.29091C13.2393 4.90271 12.9095 5.53579 12.588 6.17267C12.2726 6.81107 11.9754 7.45708 11.6897 8.10764L11.6684 8.16691C11.5901 8.37288 11.5141 8.58871 11.4685 8.87979C11.4472 9.02571 11.4328 9.19976 11.4662 9.42548C11.4974 9.64587 11.6182 9.9628 11.8569 10.1954C11.9731 10.3124 12.0993 10.3945 12.2194 10.4568C12.3341 10.5146 12.4466 10.5548 12.5386 10.5799C12.7309 10.6331 12.8745 10.6483 13.0022 10.662C13.2537 10.6856 13.4399 10.6871 13.6003 10.6962L13.6261 10.6977L13.7667 10.6833C14.2326 10.6346 14.6977 10.5784 15.1629 10.5199C15.6257 10.4507 16.0908 10.3952 16.5521 10.3132C17.1655 10.2037 17.5736 9.61852 17.4649 9.0052C17.3562 8.40784 16.7931 8.00427 16.1957 8.08787Z" fill="#002680"/>
<g opacity="0.1">
<path d="M16.1957 8.08787C15.7321 8.15323 15.2731 8.24595 14.8117 8.32347C14.3519 8.4124 13.8921 8.5036 13.4339 8.60164L13.5995 8.58872C13.3951 8.59784 13.215 8.6138 13.1017 8.62064C13.047 8.62444 13.0083 8.62367 13.0227 8.63203C13.0257 8.63659 13.0523 8.64496 13.0835 8.66547C13.123 8.68676 13.1701 8.72096 13.2211 8.77264C13.3267 8.87828 13.3693 9.0204 13.3662 9.0622C13.367 9.1078 13.3525 9.09715 13.3503 9.06143C13.3427 8.98847 13.3579 8.84939 13.3883 8.70651L13.367 8.76579C13.5995 8.09471 13.8207 7.41831 14.0229 6.73507C14.2189 6.04955 14.4074 5.36099 14.5419 4.65115C14.5936 4.37831 14.4143 4.11611 14.1414 4.06443C13.9332 4.02491 13.7295 4.12219 13.6231 4.29091C13.2393 4.90271 12.9095 5.53579 12.588 6.17267C12.2726 6.81107 11.9754 7.45708 11.6897 8.10764L11.6684 8.16691C11.5901 8.37288 11.5141 8.58871 11.4685 8.87979C11.4472 9.02571 11.4328 9.19976 11.4662 9.42548C11.4974 9.64587 11.6182 9.9628 11.8569 10.1954C11.9731 10.3124 12.0993 10.3945 12.2194 10.4568C12.3341 10.5146 12.4466 10.5548 12.5386 10.5799C12.7309 10.6331 12.8745 10.6483 13.0022 10.662C13.2537 10.6856 13.4399 10.6871 13.6003 10.6962L13.6261 10.6977L13.7667 10.6833C14.2326 10.6346 14.6977 10.5784 15.1629 10.5199C15.6257 10.4507 16.0908 10.3952 16.5521 10.3132C17.1655 10.2037 17.5736 9.61852 17.4649 9.0052C17.3562 8.40784 16.7931 8.00427 16.1957 8.08787Z" fill="#002680"/>
</g>
<path d="M20.502 8.52261C20.502 8.52261 20.2413 7.71777 19.8484 7.46393C19.4554 7.21009 17.7287 7.47381 17.4582 7.57945C17.1876 7.68509 16.9148 8.30905 16.9148 8.30905L20.502 8.52261Z" fill="url(#paint1_linear_3941_5706)"/>
<path opacity="0.3" d="M20.502 8.52261C20.502 8.52261 20.2413 7.71777 19.8484 7.46393C19.4554 7.21009 17.7287 7.47381 17.4582 7.57945C17.1876 7.68509 16.9148 8.30905 16.9148 8.30905L20.502 8.52261Z" fill="url(#paint2_linear_3941_5706)"/>
<path d="M16.5604 8.18006C16.8287 8.13598 16.9032 8.09494 17.211 8.07138C18.1374 8.02806 19.0654 8.03794 19.9903 8.10102C20.3277 8.12534 20.653 8.1907 20.9752 8.26822C21.638 8.42706 22.0841 9.04494 22.0354 9.71982C21.8979 11.6077 21.34 12.7157 21.2572 13.9591C21.093 16.4359 21.4882 18.1718 21.5551 18.7501L20.2852 18.9432C18.0173 18.8892 16.5118 18.4021 15.2638 17.8708C15.2638 17.8708 15.5906 14.8764 15.2745 13.798C14.4104 10.8507 14.9712 10.3841 15.1415 9.54046C15.2851 8.83746 15.849 8.29634 16.5604 8.18006Z" fill="url(#paint3_linear_3941_5706)"/>
<path opacity="0.1" d="M15.2759 13.7951C15.3793 14.147 15.4135 14.7018 15.4135 15.2878C15.4135 16.5053 15.2645 17.868 15.2645 17.868C16.5117 18.4 18.018 18.8871 20.2873 18.9419L21.5573 18.748C21.4897 18.1704 21.0952 16.4339 21.2571 13.9578C21.3407 12.7152 21.8978 11.6079 22.0353 9.71773C22.0847 9.04361 21.6386 8.42573 20.9751 8.26765C20.6529 8.18861 20.3276 8.12553 19.9894 8.10045C19.0645 8.03737 18.1381 8.02597 17.2109 8.06853C16.9038 8.09361 16.8301 8.13389 16.5611 8.17873C15.8482 8.29577 15.2843 8.83537 15.1421 9.53837C15.0813 9.84085 14.9689 10.0955 14.8921 10.4337C14.7971 10.8441 14.7523 11.3783 14.9103 12.2736C14.9825 12.6947 15.0996 13.1932 15.2759 13.7951Z" fill="url(#paint4_linear_3941_5706)"/>
<path d="M16.1957 8.08787C15.7321 8.15323 15.2731 8.24595 14.8117 8.32347C14.3519 8.4124 13.8921 8.5036 13.4339 8.60164L13.5995 8.58872C13.3951 8.59784 13.215 8.6138 13.1017 8.62064C13.047 8.62444 13.0083 8.62367 13.0227 8.63203C13.0257 8.63659 13.0523 8.64496 13.0835 8.66547C13.123 8.68676 13.1701 8.72096 13.2211 8.77264C13.3267 8.87828 13.3693 9.0204 13.3662 9.0622C13.367 9.1078 13.3525 9.09715 13.3503 9.06143C13.3427 8.98847 13.3579 8.84939 13.3883 8.70651L13.367 8.76579C13.5995 8.09471 13.8207 7.41831 14.0229 6.73507C14.2189 6.04955 14.4074 5.36099 14.5419 4.65115C14.5936 4.37831 14.4143 4.11611 14.1414 4.06443C13.9332 4.02491 13.7295 4.12219 13.6231 4.29091C13.2393 4.90271 12.9095 5.53579 12.588 6.17267C12.2726 6.81107 11.9754 7.45708 11.6897 8.10764L11.6684 8.16691C11.5901 8.37288 11.5141 8.58871 11.4685 8.87979C11.4472 9.02571 11.4328 9.19976 11.4662 9.42548C11.4974 9.64587 11.6182 9.9628 11.8569 10.1954C11.9731 10.3124 12.0993 10.3945 12.2194 10.4568C12.3341 10.5146 12.4466 10.5548 12.5386 10.5799C12.7309 10.6331 12.8745 10.6483 13.0022 10.662C13.2537 10.6856 13.4399 10.6871 13.6003 10.6962L13.6261 10.6977L13.7667 10.6833C14.2326 10.6346 14.6977 10.5784 15.1629 10.5199C15.6257 10.4507 16.0908 10.3952 16.5521 10.3132C17.1655 10.2037 17.5736 9.61852 17.4649 9.0052C17.3562 8.40784 16.7931 8.00427 16.1957 8.08787Z" fill="url(#paint5_linear_3941_5706)"/>
<g opacity="0.1">
<path d="M16.1957 8.08787C15.7321 8.15323 15.2731 8.24595 14.8117 8.32347C14.3519 8.4124 13.8921 8.5036 13.4339 8.60164L13.5995 8.58872C13.3951 8.59784 13.215 8.6138 13.1017 8.62064C13.047 8.62444 13.0083 8.62367 13.0227 8.63203C13.0257 8.63659 13.0523 8.64496 13.0835 8.66547C13.123 8.68676 13.1701 8.72096 13.2211 8.77264C13.3267 8.87828 13.3693 9.0204 13.3662 9.0622C13.367 9.1078 13.3525 9.09715 13.3503 9.06143C13.3427 8.98847 13.3579 8.84939 13.3883 8.70651L13.367 8.76579C13.5995 8.09471 13.8207 7.41831 14.0229 6.73507C14.2189 6.04955 14.4074 5.36099 14.5419 4.65115C14.5936 4.37831 14.4143 4.11611 14.1414 4.06443C13.9332 4.02491 13.7295 4.12219 13.6231 4.29091C13.2393 4.90271 12.9095 5.53579 12.588 6.17267C12.2726 6.81107 11.9754 7.45708 11.6897 8.10764L11.6684 8.16691C11.5901 8.37288 11.5141 8.58871 11.4685 8.87979C11.4472 9.02571 11.4328 9.19976 11.4662 9.42548C11.4974 9.64587 11.6182 9.9628 11.8569 10.1954C11.9731 10.3124 12.0993 10.3945 12.2194 10.4568C12.3341 10.5146 12.4466 10.5548 12.5386 10.5799C12.7309 10.6331 12.8745 10.6483 13.0022 10.662C13.2537 10.6856 13.4399 10.6871 13.6003 10.6962L13.6261 10.6977L13.7667 10.6833C14.2326 10.6346 14.6977 10.5784 15.1629 10.5199C15.6257 10.4507 16.0908 10.3952 16.5521 10.3132C17.1655 10.2037 17.5736 9.61852 17.4649 9.0052C17.3562 8.40784 16.7931 8.00427 16.1957 8.08787Z" fill="url(#paint6_linear_3941_5706)"/>
</g>
<path d="M7.85423 3.74464L1.80767 3.55996L1.90039 1.66528L7.93555 2.06276L7.85423 3.74464Z" fill="#007CFF"/>
<path d="M12.4241 3.81818L7.53428 3.66086L7.60876 2.10742L12.4902 2.42206L12.4241 3.81818Z" fill="#007CFF"/>
<path d="M8.17943 3.69913L7.85871 3.73333L7.93851 2.07349L8.25391 2.13809L8.17943 3.69913Z" fill="#1A2E35"/>
<path opacity="0.2" d="M8.17943 3.69913L7.85871 3.73333L7.93851 2.07349L8.25391 2.13809L8.17943 3.69913Z" fill="black"/>
<path d="M7.85889 3.74542L7.53057 3.73478L7.61189 2.0415L7.93945 2.06278L7.85889 3.74542Z" fill="#1A2E35"/>
<path d="M13.1836 3.58857L12.6987 3.81353L12.7625 2.45312L13.2246 2.72369L13.1836 3.58857Z" fill="#1A2E35"/>
<path d="M15.6684 3.57149L14.2305 3.49625L14.2601 2.85938L15.6973 2.94525L15.6684 3.57149Z" fill="#1A2E35"/>
<path opacity="0.2" d="M15.6684 3.57149L14.2305 3.49625L14.2601 2.85938L15.6973 2.94525L15.6684 3.57149Z" fill="black"/>
<path d="M14.4265 3.62369L12.8267 3.56289L12.8693 2.67065L14.4668 2.76565L14.4265 3.62369Z" fill="#1A2E35"/>
<path opacity="0.2" d="M13.1836 3.58857L12.6987 3.81353L12.7625 2.45312L13.2246 2.72369L13.1836 3.58857Z" fill="black"/>
<path d="M12.6885 3.82562L12.4233 3.81726L12.4894 2.42114L12.7539 2.43862L12.6885 3.82562Z" fill="#1A2E35"/>
<path d="M2.01351 3.56609L1.06503 3.53189L1.15775 1.63037L2.10547 1.67901L2.01351 3.56609Z" fill="#1A2E35"/>
<path d="M1.59173 3.70059L0.381813 3.66715L0.351411 3.58355C0.0930111 2.86611 0.143931 2.07343 0.493531 1.39551L1.70117 1.47911L1.67457 1.54219C1.38729 2.22771 1.35841 2.99455 1.59173 3.70059Z" fill="#007CFF"/>
<g opacity="0.4">
<path d="M2.88101 1.87513L2.39157 1.84473L2.38169 2.05373L2.87873 2.08261C2.89089 2.01421 2.88709 1.94505 2.88101 1.87513Z" fill="white"/>
<path d="M3.17749 1.89868C3.18281 1.96784 3.18585 2.037 3.17521 2.10464L7.41981 2.3448L7.42969 2.15632L3.17749 1.89868Z" fill="white"/>
</g>
<g opacity="0.4">
<path d="M12.3867 2.53162L12.3776 2.7011L8.38912 2.46398L8.39824 2.2793L12.3867 2.53162Z" fill="white"/>
</g>
<g opacity="0.4">
<path d="M1.59375 1.54369L1.58159 1.75497L0.636152 1.69265L0.646032 1.47681L1.59375 1.54369Z" fill="white"/>
</g>
<path opacity="0.3" d="M0.502666 3.3877C0.508746 3.4599 0.512544 3.5321 0.500384 3.60354L1.48002 3.63698L1.49219 3.42494L0.502666 3.3877Z" fill="black"/>
<path opacity="0.3" d="M2.25711 3.26953C2.26243 3.33945 2.26623 3.40937 2.25483 3.47853L7.44715 3.66397L7.45703 3.47549L2.25711 3.26953Z" fill="black"/>
<path opacity="0.3" d="M8.43618 3.4519C8.43998 3.51346 8.44226 3.57578 8.4339 3.63734L12.2917 3.77262L12.3008 3.60314L8.43618 3.4519Z" fill="black"/>
<path d="M15.9921 2.96939L15.9792 3.57891C15.9769 3.68227 15.8835 3.76511 15.7695 3.76283L15.2747 3.75447L15.2952 2.75659L15.7892 2.77483C15.904 2.77863 15.9944 2.86603 15.9921 2.96939Z" fill="#007CFF"/>
<path d="M13.4368 4.65888L13.249 3.52344C13.2414 3.47632 13.2392 3.42844 13.2437 3.38056L13.2977 2.77864C13.3068 2.70112 13.3615 2.62436 13.4459 2.59852L14.3526 2.58788C14.4719 2.54988 14.6034 2.60764 14.6436 2.71404L14.8063 3.45808C14.8184 3.51356 14.8169 3.57132 14.8025 3.6268L14.5334 4.65052C14.5076 4.73564 14.4286 4.80252 14.3305 4.82152L13.7377 4.82684C13.5986 4.8542 13.4649 4.77972 13.4368 4.65888Z" fill="#E67B62"/>
<path d="M12.9042 5.13845L14.4462 5.68033L14.7031 4.73337L13.3792 4.33057L12.9042 5.13845Z" fill="#007CFF"/>
<path opacity="0.3" d="M12.9042 5.13845L14.4462 5.68033L14.7031 4.73337L13.3792 4.33057L12.9042 5.13845Z" fill="white"/>
<path opacity="0.2" d="M14.91 12.2741L16.0918 10.0435L14.8918 10.4333C14.7968 10.8445 14.7519 11.3788 14.91 12.2741Z" fill="black"/>
<path d="M8.81854 30.7907L9.0625 33.8201L7.68386 33.8467L7.30538 30.7253L8.81854 30.7907Z" fill="#E67B62"/>
<path d="M7.4664 33.4318L9.0396 33.4637C9.09888 33.4652 9.1498 33.5101 9.16196 33.5724L9.43252 34.9518C9.4576 35.0742 9.3854 35.1942 9.27216 35.2193C9.25772 35.2224 9.24252 35.2246 9.22808 35.2239C8.66112 35.2018 8.15724 35.1585 7.4512 35.1448C6.61824 35.1281 6.82876 35.2398 5.84912 35.2345C5.2586 35.2307 5.15828 34.5087 5.40832 34.4783C6.55516 34.3468 6.67752 33.9782 7.12364 33.5466C7.22016 33.4652 7.34252 33.4242 7.4664 33.4318Z" fill="#1A2E35"/>
<path d="M23.8758 43.7744L24.4336 46.5568L22.9508 47.0097L22.2364 44.1681L23.8758 43.7744Z" fill="#E67B62"/>
<path d="M15.9432 17.99C15.9432 17.99 18.0537 30.3066 19.1998 33.931C20.0161 36.512 22.2049 44.9556 22.2049 44.9556L24.1907 44.5155C24.1907 44.5155 24.4127 38.7684 23.3084 35.8014C22.9314 34.789 22.4397 33.8763 22.3067 33.2485C21.7382 30.568 22.9101 25.7048 22.3918 22.0773C22.1106 20.1112 21.511 18.7089 21.511 18.7089L15.9432 17.99Z" fill="black"/>
<path d="M19.1998 33.9291C20.0161 36.51 22.2049 44.9536 22.2049 44.9536L24.1907 44.5136C24.1907 44.5136 24.4127 38.7665 23.3084 35.7994C22.9314 34.7871 22.4397 33.8744 22.3067 33.2466C21.7382 30.5661 22.9101 25.7028 22.3918 22.0753C22.1106 20.1092 21.511 18.707 21.511 18.707" fill="black"/>
<path opacity="0.2" d="M18.5312 21.7954L17.4688 25.9671L16.6913 21.9763L18.5312 21.7954Z" fill="#808285"/>
<path d="M7.20832 32.2439L9.1486 32.3062C9.1486 32.3062 9.00572 29.767 9.00572 26.0635C9.00572 25.4928 8.9168 24.9304 8.79216 24.4257C8.51552 23.2941 8.06788 22.4513 8.06788 22.4513C8.06788 22.4513 8.27536 22.4634 8.63028 22.4794C9.72772 22.5356 16.529 22.8875 16.662 22.8769C16.763 22.867 17.3809 22.9491 18.489 22.4087C20.5478 21.4047 20.5684 18.5867 20.5684 18.5867L15.2658 17.8669C15.2658 17.8707 15.1792 17.8829 13.9024 17.9049C10.0317 17.9718 5.27564 18.1215 4.4404 19.45C3.2662 21.3196 7.20832 32.2439 7.20832 32.2439Z" fill="black"/>
<path d="M22.8772 46.2886L24.5043 46.3106C24.5659 46.3114 24.616 46.357 24.6252 46.4193L24.8273 47.8101C24.8463 47.9332 24.765 48.0548 24.6457 48.0814C24.6305 48.0844 24.6153 48.0867 24.5993 48.0867C24.0134 48.0685 23.4943 48.0274 22.7639 48.0183C21.9021 48.0069 22.1134 48.1179 21.0995 48.1194C20.4885 48.1194 20.4246 47.3913 20.6861 47.3586C21.8808 47.2188 22.029 46.8456 22.5154 46.4071C22.621 46.3243 22.7495 46.2817 22.8772 46.2886Z" fill="#1A2E35"/>
<path opacity="0.2" d="M8.79102 24.4279C8.51438 23.2962 8.06674 22.4534 8.06674 22.4534C8.06674 22.4534 8.27422 22.4655 8.62914 22.4815C8.6451 22.4754 8.66106 22.4716 8.68158 22.4716L7.26722 22.3523L8.79102 24.4279Z" fill="black"/>
<defs>
<linearGradient id="paint0_linear_3941_5706" x1="21.642" y1="6.89538" x2="22.9818" y2="13.251" gradientUnits="userSpaceOnUse">
<stop stop-color="#00C0F3"/>
<stop offset="1" stop-color="#00C0F3" stop-opacity="0"/>
</linearGradient>
<linearGradient id="paint1_linear_3941_5706" x1="22.3863" y1="4.2492" x2="15.962" y2="11.3606" gradientUnits="userSpaceOnUse">
<stop stop-color="#00C0F3"/>
<stop offset="1" stop-color="#00C0F3" stop-opacity="0"/>
</linearGradient>
<linearGradient id="paint2_linear_3941_5706" x1="22.3863" y1="4.2492" x2="15.962" y2="11.3606" gradientUnits="userSpaceOnUse">
<stop stop-color="#00C0F3"/>
<stop offset="1" stop-color="#00C0F3" stop-opacity="0"/>
</linearGradient>
<linearGradient id="paint3_linear_3941_5706" x1="24.9964" y1="6.6076" x2="18.5721" y2="13.719" gradientUnits="userSpaceOnUse">
<stop stop-color="#00C0F3"/>
<stop offset="1" stop-color="#00C0F3" stop-opacity="0"/>
</linearGradient>
<linearGradient id="paint4_linear_3941_5706" x1="24.9963" y1="6.60704" x2="18.572" y2="13.7184" gradientUnits="userSpaceOnUse">
<stop stop-color="#00C0F3"/>
<stop offset="1" stop-color="#00C0F3" stop-opacity="0"/>
</linearGradient>
<linearGradient id="paint5_linear_3941_5706" x1="19.9714" y1="2.06705" x2="13.5471" y2="9.17843" gradientUnits="userSpaceOnUse">
<stop stop-color="#00C0F3"/>
<stop offset="1" stop-color="#00C0F3" stop-opacity="0"/>
</linearGradient>
<linearGradient id="paint6_linear_3941_5706" x1="19.9714" y1="2.06705" x2="13.5471" y2="9.17843" gradientUnits="userSpaceOnUse">
<stop stop-color="#00C0F3"/>
<stop offset="1" stop-color="#00C0F3" stop-opacity="0"/>
</linearGradient>
</defs>
</svg>
