<svg width="83" height="83" viewBox="0 0 83 83" fill="none" xmlns="http://www.w3.org/2000/svg">
<path d="M43.2012 54.1408C50.4369 54.1408 56.3027 48.2751 56.3027 41.0393C56.3027 33.8035 50.4369 27.9377 43.2012 27.9377C35.9654 27.9377 30.0996 33.8035 30.0996 41.0393C30.0996 48.2751 35.9654 54.1408 43.2012 54.1408Z" fill="#002680"/>
<path d="M65.9524 53.1739C65.8901 53.1739 65.8237 53.0867 65.7739 53.0369C65.7241 52.9871 65.6992 52.8626 65.6992 52.7962V52.4393C65.6992 52.3314 65.7324 52.2235 65.803 52.1322C65.8735 52.0409 65.969 51.9828 66.0769 51.9538L67.0065 51.7214C67.0604 51.7089 67.1061 51.6799 67.1434 51.6342C67.1808 51.5886 67.1974 51.5346 67.1974 51.4807V51.3022V50.9287H68.1934V51.4807C68.1934 51.5346 68.21 51.5886 68.2473 51.6342C68.2847 51.6799 68.3303 51.7089 68.3843 51.7214L69.3139 51.9538C69.4176 51.9787 69.5131 52.0409 69.5878 52.1322C69.6583 52.2235 69.6915 52.3314 69.6915 52.4393V52.7962C69.6915 52.8585 69.6666 52.9871 69.6168 53.0369C69.567 53.0867 69.5048 53.1739 69.4384 53.1739H65.9524Z" fill="url(#paint0_linear_6302_14374)"/>
<path d="M69.5878 52.1324C69.5172 52.0411 69.4218 51.983 69.3139 51.9539L68.3843 51.7215C68.3303 51.7091 68.2847 51.68 68.2473 51.6344C68.2349 51.6178 68.2224 51.6593 68.2141 51.6385L67.9444 51.9249H67.6954H67.4464L67.1766 51.6385C67.1683 51.6593 67.16 51.6468 67.1434 51.6676C67.1061 51.7132 67.0604 51.7257 67.0065 51.7423L66.0769 51.9664C65.9731 51.9913 65.8777 52.0494 65.803 52.1407C65.7324 52.232 65.6992 52.3357 65.6992 52.4436V52.8005C65.6992 52.8628 65.7241 52.9914 65.7739 53.0412C65.8237 53.091 65.886 53.1782 65.9524 53.1782H69.4467C69.5089 53.1782 69.5753 53.091 69.6251 53.0412C69.6749 52.9914 69.6998 52.8669 69.6998 52.8005V52.4436C69.6957 52.3316 69.6583 52.2237 69.5878 52.1324Z" fill="url(#paint1_linear_6302_14374)"/>
<path d="M66.8242 51.9455L67.0732 51.572L67.6999 51.9455L67.4509 52.319L66.8242 51.9455Z" fill="url(#paint2_linear_6302_14374)"/>
<path d="M68.5707 51.9455L68.3217 51.572L67.6992 51.9455L67.9482 52.319L68.5707 51.9455Z" fill="url(#paint3_linear_6302_14374)"/>
<path d="M68.4139 50.2773C68.3765 49.8291 68.1815 49.5095 67.6669 49.5095C67.1481 49.5095 66.9489 49.8415 66.9116 50.2897C66.8535 50.3146 66.8161 50.4142 66.8286 50.5595C66.841 50.7172 66.8991 50.8417 66.9655 50.85C67.0817 51.2193 67.3515 51.5181 67.6669 51.5181C67.9823 51.5181 68.252 51.2193 68.3682 50.85C68.4346 50.8417 68.4927 50.7172 68.5052 50.5595C68.5135 50.4142 68.472 50.3022 68.4139 50.2773Z" fill="url(#paint4_linear_6302_14374)"/>
<path d="M67.1064 50.4017H67.152C67.152 50.4017 67.1188 50.1444 67.2309 50.0863C67.4093 49.995 67.484 50.2565 67.8492 50.2191C68.2144 50.1818 68.1937 50.4017 68.1937 50.4017H68.231C68.231 50.4017 68.2476 50.3146 68.2808 50.2897C68.4136 50.2108 68.4717 50.3478 68.4717 50.3478C68.4717 50.3478 68.4759 50.298 68.4759 50.2606C68.4759 49.663 68.2476 49.4555 67.9613 49.3559C67.6957 49.2646 67.5338 49.3103 67.4508 49.3559C67.3927 49.3891 67.3346 49.414 67.2724 49.4348C67.206 49.4555 67.123 49.4929 67.04 49.5676C66.8864 49.7087 66.8283 49.8913 66.8532 50.2565C66.8574 50.3146 66.8532 50.3353 66.8532 50.3478C66.9072 50.2648 66.986 50.2482 67.0483 50.2855C67.0856 50.3146 67.1064 50.4017 67.1064 50.4017Z" fill="#002680"/>
<path d="M69.9446 53.1739C69.8823 53.1739 69.8159 53.0867 69.7661 53.0369C69.7163 52.9871 69.6914 52.8626 69.6914 52.7962V52.4393C69.6914 52.3314 69.7246 52.2235 69.7952 52.1322C69.8657 52.0409 69.9612 51.9828 70.0691 51.9538L70.9987 51.7214C71.0526 51.7089 71.0983 51.6799 71.1356 51.6342C71.173 51.5886 71.1896 51.5346 71.1896 51.4807V51.3022V50.9287H72.1856V51.4807C72.1856 51.5346 72.2022 51.5886 72.2395 51.6342C72.2769 51.6799 72.3225 51.7089 72.3765 51.7214L73.3061 51.9538C73.4098 51.9787 73.5053 52.0409 73.58 52.1322C73.6505 52.2235 73.6837 52.3314 73.6837 52.4393V52.7962C73.6837 52.8585 73.6588 52.9871 73.609 53.0369C73.5592 53.0867 73.497 53.1739 73.4306 53.1739H69.9446Z" fill="url(#paint5_linear_6302_14374)"/>
<path d="M73.58 52.1324C73.5094 52.0411 73.414 51.983 73.3061 51.9539L72.3765 51.7215C72.3225 51.7091 72.2769 51.68 72.2395 51.6344C72.2271 51.6178 72.2146 51.6593 72.2063 51.6385L71.9366 51.9249H71.6876H71.4386L71.1688 51.6385C71.1605 51.6593 71.1522 51.6468 71.1356 51.6676C71.0983 51.7132 71.0526 51.7257 70.9987 51.7423L70.0691 51.9664C69.9653 51.9913 69.8699 52.0494 69.7952 52.1407C69.7246 52.232 69.6914 52.3357 69.6914 52.4436V52.8005C69.6914 52.8628 69.7163 52.9914 69.7661 53.0412C69.8159 53.091 69.8782 53.1782 69.9446 53.1782H73.4389C73.5011 53.1782 73.5675 53.091 73.6173 53.0412C73.6671 52.9914 73.692 52.8669 73.692 52.8005V52.4436C73.6879 52.3316 73.6505 52.2237 73.58 52.1324Z" fill="url(#paint6_linear_6302_14374)"/>
<path d="M70.8164 51.9455L71.0654 51.572L71.6921 51.9455L71.4389 52.319L70.8164 51.9455Z" fill="url(#paint7_linear_6302_14374)"/>
<path d="M72.5629 51.9455L72.3139 51.572L71.6914 51.9455L71.9404 52.319L72.5629 51.9455Z" fill="url(#paint8_linear_6302_14374)"/>
<path d="M72.4061 50.2773C72.3687 49.8291 72.1737 49.5095 71.6591 49.5095C71.1403 49.5095 70.9411 49.8415 70.9038 50.2897C70.8457 50.3146 70.8083 50.4142 70.8208 50.5595C70.8332 50.7172 70.8913 50.8417 70.9577 50.85C71.0739 51.2193 71.3437 51.5181 71.6591 51.5181C71.9745 51.5181 72.2442 51.2193 72.3604 50.85C72.4268 50.8417 72.4849 50.7172 72.4974 50.5595C72.5057 50.4142 72.4642 50.3022 72.4061 50.2773Z" fill="url(#paint9_linear_6302_14374)"/>
<path d="M71.0986 50.4017H71.1442C71.1442 50.4017 71.111 50.1444 71.2231 50.0863C71.4015 49.995 71.4762 50.2565 71.8414 50.2191C72.2066 50.1818 72.1859 50.4017 72.1859 50.4017H72.2232C72.2232 50.4017 72.2398 50.3146 72.273 50.2897C72.4058 50.2108 72.4639 50.3478 72.4639 50.3478C72.4639 50.3478 72.4681 50.298 72.4681 50.2606C72.4681 49.663 72.2398 49.4555 71.9535 49.3559C71.6879 49.2646 71.526 49.3103 71.443 49.3559C71.3849 49.3891 71.3268 49.414 71.2646 49.4348C71.1982 49.4555 71.1152 49.4929 71.0322 49.5676C70.8786 49.7087 70.8205 49.8913 70.8454 50.2565C70.8496 50.3146 70.8454 50.3353 70.8454 50.3478C70.8994 50.2648 70.9782 50.2482 71.0404 50.2855C71.0778 50.3146 71.0986 50.4017 71.0986 50.4017Z" fill="#002680"/>
<path d="M67.0649 53.9042C66.9695 53.9042 66.874 53.8669 66.7993 53.7963C66.7246 53.7216 66.6914 53.6262 66.6914 53.5307V52.9912C66.6914 52.8294 66.7412 52.6675 66.8491 52.5306C66.957 52.3936 67.1023 52.3023 67.26 52.265L68.6585 51.9164C68.7374 51.8956 68.8079 51.85 68.8619 51.7836C68.9158 51.713 68.9407 51.6342 68.9407 51.5512V51.2814V50.5303H70.443V51.5512C70.443 51.63 70.4679 51.713 70.5219 51.7836C70.5758 51.8541 70.6464 51.8956 70.7252 51.9164L72.1238 52.265C72.2815 52.3023 72.4267 52.3936 72.5346 52.5306C72.6425 52.6675 72.6923 52.8294 72.6923 52.9912V53.5307C72.6923 53.6262 72.655 53.7216 72.5844 53.7963C72.5097 53.871 72.4143 53.9042 72.3188 53.9042H67.0649Z" fill="url(#paint10_linear_6302_14374)"/>
<path d="M72.5385 52.5265C72.4306 52.3896 72.2854 52.2983 72.1277 52.2609L70.7291 51.9123C70.6503 51.8916 70.5797 51.8459 70.5258 51.7795C70.505 51.7505 70.4884 51.7214 70.476 51.6924L70.0693 52.0327H69.6958H69.3223L68.9156 51.6924C68.9031 51.7214 68.8907 51.7546 68.8658 51.7795C68.8118 51.8501 68.7413 51.8916 68.6624 51.9123L67.2639 52.2609C67.1062 52.2983 66.9609 52.3896 66.853 52.5265C66.7451 52.6635 66.6953 52.8253 66.6953 52.9872V53.5267C66.6953 53.6221 66.7327 53.7176 66.8032 53.7923C66.8779 53.867 66.9734 53.9002 67.0688 53.9002H72.3269C72.4223 53.9002 72.5178 53.8628 72.5925 53.7923C72.6672 53.7176 72.7004 53.6221 72.7004 53.5267V52.9872C72.6962 52.8253 72.6464 52.6635 72.5385 52.5265Z" fill="url(#paint11_linear_6302_14374)"/>
<path d="M68.3809 52.1364L68.7544 51.572L69.6964 52.1364L69.3188 52.7008L68.3809 52.1364Z" fill="url(#paint12_linear_6302_14374)"/>
<path d="M71.0067 52.1364L70.6332 51.572L69.6953 52.1364L70.0688 52.7008L71.0067 52.1364Z" fill="url(#paint13_linear_6302_14374)"/>
<path d="M70.7702 49.7335C70.7162 49.0571 70.4216 48.5757 69.6414 48.5757C68.8612 48.5757 68.5582 49.0778 68.5043 49.7501C68.4213 49.7875 68.3632 49.9369 68.3798 50.1568C68.3964 50.3934 68.4877 50.5801 68.5873 50.5926C68.7616 51.1487 69.1683 51.5969 69.6414 51.5969C70.1145 51.5969 70.5212 51.1487 70.6955 50.5926C70.7951 50.5801 70.8864 50.3934 70.903 50.1568C70.9237 49.941 70.8573 49.7709 70.7702 49.7335Z" fill="url(#paint14_linear_6302_14374)"/>
<path d="M68.8025 49.9245H68.8689C68.8689 49.9245 68.8191 49.5344 68.9893 49.4514C69.259 49.3144 69.3669 49.7087 69.9188 49.6506C70.4708 49.5925 70.4376 49.9245 70.4376 49.9245H70.4915C70.4915 49.9245 70.5123 49.7917 70.5704 49.7585C70.7696 49.6381 70.8568 49.8456 70.8568 49.8456C70.8568 49.8456 70.8609 49.7709 70.8609 49.717C70.8609 48.8164 70.5164 48.5052 70.089 48.3558C69.6781 48.2105 69.4333 48.2894 69.3088 48.3641C69.2258 48.4139 69.1386 48.4512 69.0432 48.4761C68.9477 48.5052 68.8191 48.5633 68.6987 48.6753C68.4663 48.887 68.3833 49.1609 68.4207 49.7128C68.4248 49.8 68.4165 49.8332 68.4165 49.8498C68.4954 49.7211 68.6157 49.6962 68.707 49.7543C68.7734 49.7917 68.8025 49.9245 68.8025 49.9245Z" fill="#002680"/>
<path d="M67.0222 55.1826H66.6113V54.8838H67.8107V55.1826H67.3998V56.2242H67.0222V55.1826Z" fill="#78909C"/>
<path d="M69.1432 55.9296V56.2242H68.0684V54.8838H69.1183V55.1784H68.4419V55.4025H69.0353V55.6847H68.4419V55.9296H69.1432Z" fill="#78909C"/>
<path d="M70.3688 55.9628H69.8003L69.6965 56.2242H69.3105L69.904 54.8838H70.2775L70.871 56.2242H70.4767L70.3688 55.9628ZM70.2567 55.6806L70.0824 55.2531L69.9081 55.6806H70.2567Z" fill="#78909C"/>
<path d="M72.3016 56.2242L72.2975 55.5146L71.953 56.0914H71.7829L71.4384 55.5312V56.2242H71.0898V54.8838H71.4011L71.87 55.6557L72.3307 54.8838H72.6419L72.6461 56.2242H72.3016Z" fill="#78909C"/>
<path d="M68.4092 56.8633L67.9735 58.2037H67.5668L67.3095 57.3862L67.0397 58.2037H66.633L66.1973 56.8633H66.5874L66.8571 57.7182L67.1393 56.8633H67.4879L67.7577 57.7265L68.0399 56.8633H68.4092Z" fill="#78909C"/>
<path d="M68.5762 57.5356C68.5762 57.133 68.8916 56.8384 69.319 56.8384C69.7465 56.8384 70.0619 57.133 70.0619 57.5356C70.0619 57.9381 69.7465 58.2328 69.319 58.2328C68.8916 58.2328 68.5762 57.934 68.5762 57.5356ZM69.6801 57.5356C69.6801 57.3032 69.5224 57.1538 69.319 57.1538C69.1157 57.1538 68.958 57.3032 68.958 57.5356C68.958 57.768 69.1157 57.9174 69.319 57.9174C69.5224 57.9174 69.6801 57.7638 69.6801 57.5356Z" fill="#78909C"/>
<path d="M70.966 57.8468H70.7585V58.2037H70.3809V56.8633H70.9951C71.3603 56.8633 71.5885 57.0542 71.5885 57.3571C71.5885 57.5563 71.4931 57.7016 71.3271 57.7804L71.6176 58.2037H71.2109L70.966 57.8468ZM70.966 57.1621H70.7544V57.5563H70.966C71.1237 57.5563 71.2026 57.4816 71.2026 57.3613C71.2026 57.2368 71.1237 57.1621 70.966 57.1621Z" fill="#78909C"/>
<path d="M72.4267 57.7182L72.2856 57.8676V58.2037H71.9121V56.8633H72.2856V57.4194L72.8044 56.8633H73.2235L72.6757 57.4567L73.2526 58.2037H72.8127L72.4267 57.7182Z" fill="#78909C"/>
<path d="M77.9911 54.5001C79.0688 49.8352 76.1609 45.1798 71.496 44.1021C66.8311 43.0243 62.1757 45.9323 61.098 50.5972C60.0202 55.2621 62.9281 59.9174 67.593 60.9952C72.2579 62.0729 76.9133 59.165 77.9911 54.5001Z" stroke="#002680" stroke-width="2" stroke-miterlimit="10"/>
<path d="M47.7683 33.0007H38.6383L37.0156 35.1587H49.3868L47.7683 33.0007Z" fill="url(#paint15_linear_6302_14374)"/>
<path d="M49.3868 35.1587H37.0156L43.2033 43.2263L49.3868 35.1587Z" fill="url(#paint16_linear_6302_14374)"/>
<path d="M45.3025 33.0007H41.0986L40.3516 35.1587H46.0495L45.3025 33.0007Z" fill="url(#paint17_linear_6302_14374)"/>
<path d="M46.0495 35.1587H40.3516L43.2026 43.2263L46.0495 35.1587Z" fill="url(#paint18_linear_6302_14374)"/>
<path d="M37.592 46.0359L36.4715 48.6462H35.7453L34.6289 46.0359H35.4257L36.1354 47.7374L36.8575 46.0359H37.592Z" fill="white"/>
<path d="M39.629 48.1399H38.5251L38.3217 48.6462H37.5664L38.7201 46.0359H39.4464L40.6042 48.6462H39.8365L39.629 48.1399ZM39.409 47.5921L39.0729 46.758L38.7367 47.5921H39.409Z" fill="white"/>
<path d="M41.0371 46.0359H41.7758V48.0611H43.0208V48.6462H41.0371V46.0359Z" fill="white"/>
<path d="M43.4844 47.4801V46.0317H44.2231V47.4552C44.2231 47.9034 44.4098 48.0818 44.7211 48.0818C45.0282 48.0818 45.2149 47.9034 45.2149 47.4552V46.0317H45.9412V47.4801C45.9412 48.2603 45.4847 48.696 44.7128 48.696C43.9409 48.696 43.4844 48.2603 43.4844 47.4801Z" fill="white"/>
<path d="M48.7637 48.0735V48.6462H46.668V46.0359H48.7181V46.6086H47.4025V47.0485H48.5645V47.6004H47.4025V48.0777H48.7637V48.0735Z" fill="white"/>
<path d="M49.2129 48.4097L49.4536 47.866C49.686 48.0196 50.0138 48.1233 50.3168 48.1233C50.6239 48.1233 50.7401 48.0362 50.7401 47.9117C50.7401 47.4967 49.2544 47.7996 49.2544 46.8285C49.2544 46.3637 49.6362 45.9819 50.4122 45.9819C50.7525 45.9819 51.1011 46.0608 51.3584 46.2102L51.1302 46.758C50.8812 46.6252 50.6322 46.5546 50.4081 46.5546C50.0968 46.5546 49.9848 46.6584 49.9848 46.7912C49.9848 47.1896 51.4663 46.8908 51.4663 47.8536C51.4663 48.3101 51.0845 48.696 50.3085 48.696C49.8852 48.696 49.4619 48.584 49.2129 48.4097Z" fill="white"/>
<path d="M49.318 74.7666C52.697 71.3875 52.697 65.9089 49.318 62.5298C45.9389 59.1508 40.4603 59.1508 37.0812 62.5298C33.7022 65.9089 33.7022 71.3875 37.0812 74.7665C40.4603 78.1456 45.9389 78.1456 49.318 74.7666Z" stroke="#002680" stroke-width="2" stroke-miterlimit="10"/>
<path d="M10.4703 58.0751C10.379 58.183 10.2462 58.2452 10.0968 58.2452C9.87686 58.2452 9.73576 58.1705 9.51166 57.9381C9.15891 57.88 8.91406 57.6061 8.91406 57.2534C8.91406 56.8508 9.22946 56.5562 9.65691 56.5562C10.0844 56.5562 10.3998 56.8508 10.3998 57.2534C10.3998 57.5563 10.2172 57.8012 9.94326 57.9008C9.99721 57.9589 10.0429 57.9755 10.101 57.9755C10.1757 57.9755 10.2462 57.9423 10.3043 57.88L10.4703 58.0751ZM9.65276 57.631C9.85611 57.631 10.0138 57.4816 10.0138 57.2492C10.0138 57.0168 9.85611 56.8674 9.65276 56.8674C9.44941 56.8674 9.29171 57.0168 9.29171 57.2492C9.29171 57.4816 9.45356 57.631 9.65276 57.631Z" fill="#78909C"/>
<path d="M10.7031 57.3239V56.5811H11.0808V57.3115C11.0808 57.5397 11.1762 57.6352 11.3339 57.6352C11.4916 57.6352 11.5871 57.5439 11.5871 57.3115V56.5811H11.9606V57.3239C11.9606 57.7223 11.7282 57.9464 11.3298 57.9464C10.9314 57.9464 10.7031 57.7223 10.7031 57.3239Z" fill="#78909C"/>
<path d="M13.2047 57.6601H12.6362L12.5324 57.9215H12.1465L12.7399 56.5811H13.1134L13.7069 57.9215H13.3126L13.2047 57.6601ZM13.0927 57.382L12.9184 56.9546L12.7441 57.382H13.0927Z" fill="#78909C"/>
<path d="M13.9277 56.5811H14.3054V57.6227H14.9445V57.9215H13.9277V56.5811Z" fill="#78909C"/>
<path d="M15.209 56.5811H15.5866V57.9215H15.209V56.5811Z" fill="#78909C"/>
<path d="M16.2605 56.8799H15.8496V56.5811H17.049V56.8799H16.6381V57.9215H16.2605V56.8799Z" fill="#78909C"/>
<path d="M17.9897 57.4401V57.9215H17.612V57.436L17.1016 56.5811H17.5L17.8195 57.1123L18.1391 56.5811H18.5084L17.9897 57.4401Z" fill="#78909C"/>
<path d="M10.7734 55.419L11.9271 55.1285L12.7903 55.9959L13.944 51.6716L11.9271 51.0947L10.7734 55.419Z" fill="url(#paint19_linear_6302_14374)"/>
<path d="M16.5378 55.419L15.3841 55.1285L14.5209 55.9959L13.3672 51.6716L15.3841 51.0947L16.5378 55.419Z" fill="url(#paint20_linear_6302_14374)"/>
<path d="M13.6533 47.5632L14.5497 47.1025L15.0975 47.9491L16.1017 47.9989L16.1515 49.0032L16.994 49.551L16.5375 50.4474L16.994 51.3397L16.1515 51.8875L16.1017 52.8918L15.0975 52.9416L14.5497 53.7882L13.6533 53.3275L12.761 53.7882L12.2132 52.9416L11.2089 52.8918L11.1591 51.8875L10.3125 51.3397L10.7731 50.4474L10.3125 49.551L11.1591 49.0032L11.2089 47.9989L12.2132 47.9491L12.761 47.1025L13.6533 47.5632Z" fill="url(#paint21_linear_6302_14374)"/>
<path d="M13.6533 47.2768L14.5497 46.8162L15.0975 47.6628L16.1017 47.7126L16.1515 48.7169L16.994 49.2605L16.5375 50.1569L16.994 51.0533L16.1515 51.597L16.1017 52.6054L15.0975 52.6552L14.5497 53.4977L13.6533 53.0412L12.761 53.4977L12.2132 52.6552L11.2089 52.6054L11.1591 51.597L10.3125 51.0533L10.7731 50.1569L10.3125 49.2605L11.1591 48.7169L11.2089 47.7126L12.2132 47.6628L12.761 46.8162L13.6533 47.2768Z" fill="url(#paint22_linear_6302_14374)"/>
<path d="M13.6531 52.4105C14.9274 52.4105 15.9605 51.3774 15.9605 50.1031C15.9605 48.8287 14.9274 47.7957 13.6531 47.7957C12.3788 47.7957 11.3457 48.8287 11.3457 50.1031C11.3457 51.3774 12.3788 52.4105 13.6531 52.4105Z" fill="url(#paint23_linear_6302_14374)"/>
<path d="M12.8066 49.2729C12.8606 49.248 12.9104 49.2231 12.9643 49.1982C13.0141 49.1733 13.0639 49.1443 13.1179 49.1069C13.1718 49.0737 13.2258 49.0281 13.2839 48.9783C13.342 48.9243 13.4042 48.8579 13.4748 48.7749H14.1512V50.9288H14.504V51.4351H12.9809V50.9288H13.3627V49.5178L12.9809 49.6962L12.8066 49.2729Z" fill="url(#paint24_linear_6302_14374)"/>
<path d="M22.0559 54.4809C23.1246 49.8113 20.2055 45.1596 15.536 44.0909C10.8665 43.0222 6.2147 45.9412 5.146 50.6107C4.07729 55.2803 6.99634 59.932 11.6659 61.0007C16.3354 62.0694 20.9872 59.1504 22.0559 54.4809Z" stroke="#002680" stroke-width="2" stroke-miterlimit="10"/>
<path d="M13.7129 21.6755C12.5011 21.6755 11.5176 22.6632 11.5176 23.8709C11.5176 23.8792 11.5425 24.9125 12.3849 25.9998C12.58 26.2613 12.5758 26.7966 12.5675 26.8921C12.5675 26.8962 12.5675 26.9004 12.5675 26.9004C12.5675 26.9336 12.5966 26.9626 12.6298 26.9626H14.8044C14.8376 26.9626 14.8666 26.9336 14.8666 26.9004C14.8666 26.8962 14.8666 26.8921 14.8666 26.8879C14.8583 26.7925 14.8459 26.2571 15.0451 25.9957C15.8917 24.9084 15.9124 23.875 15.9124 23.8667C15.9124 22.6591 14.9247 21.6755 13.7129 21.6755Z" fill="url(#paint25_linear_6302_14374)"/>
<path d="M14.8416 27.166H12.5798C12.5466 27.166 12.5176 27.1951 12.5176 27.2283C12.5176 27.2615 12.5466 27.2905 12.5798 27.2905H14.8416C14.8748 27.2905 14.9038 27.2615 14.9038 27.2283C14.908 27.1951 14.8789 27.166 14.8416 27.166Z" fill="url(#paint26_linear_6302_14374)"/>
<path d="M14.8416 27.5312H12.5798C12.5466 27.5312 12.5176 27.5603 12.5176 27.5935C12.5176 27.6267 12.5466 27.6558 12.5798 27.6558H14.8416C14.8748 27.6558 14.9038 27.6267 14.9038 27.5935C14.908 27.5603 14.8789 27.5312 14.8416 27.5312Z" fill="url(#paint27_linear_6302_14374)"/>
<path d="M14.8416 27.8923H12.5798C12.5466 27.8923 12.5176 27.9214 12.5176 27.9546C12.5176 27.9878 12.5466 28.0168 12.5798 28.0168H14.8416C14.8748 28.0168 14.9038 27.9878 14.9038 27.9546C14.908 27.9214 14.8789 27.8923 14.8416 27.8923Z" fill="url(#paint28_linear_6302_14374)"/>
<path d="M14.5711 28.2947H12.8572C12.824 28.2947 12.7949 28.3237 12.7949 28.3569C12.7949 28.3901 12.824 28.4192 12.8572 28.4192H14.5711C14.6043 28.4192 14.6334 28.3901 14.6334 28.3569C14.6334 28.3237 14.6043 28.2947 14.5711 28.2947Z" fill="url(#paint29_linear_6302_14374)"/>
<path d="M7.19727 30.5898C7.19727 30.1831 7.50852 29.8926 7.93597 29.8926C8.18497 29.8926 8.38002 29.9839 8.51282 30.1457L8.27212 30.3657C8.18912 30.2661 8.08537 30.208 7.95672 30.208C7.73677 30.208 7.58322 30.3615 7.58322 30.5898C7.58322 30.818 7.73677 30.9716 7.95672 30.9716C8.08537 30.9716 8.18912 30.9176 8.27212 30.8139L8.51282 31.0338C8.38417 31.1957 8.18497 31.287 7.93597 31.287C7.50852 31.287 7.19727 30.9965 7.19727 30.5898Z" fill="#78909C"/>
<path d="M9.38007 30.9052H9.17257V31.2621H8.79492V29.9216H9.40912C9.77432 29.9216 10.0026 30.1125 10.0026 30.4155C10.0026 30.6147 9.90712 30.7599 9.74112 30.8388L10.0316 31.2621H9.62492L9.38007 30.9052ZM9.38422 30.2204H9.17257V30.6147H9.38422C9.54192 30.6147 9.62077 30.54 9.62077 30.4196C9.61662 30.291 9.53777 30.2204 9.38422 30.2204Z" fill="#78909C"/>
<path d="M11.401 30.9674V31.2621H10.3262V29.9216H11.3761V30.2163H10.6997V30.4404H11.2931V30.7226H10.6997V30.9674H11.401Z" fill="#78909C"/>
<path d="M12.6247 31.0006H12.0561L11.9524 31.2621H11.5664L12.1599 29.9216H12.5334L13.1268 31.2621H12.7326L12.6247 31.0006ZM12.5126 30.7226L12.3383 30.2951L12.164 30.7226H12.5126Z" fill="#78909C"/>
<path d="M13.5671 30.2204H13.1562V29.9216H14.3556V30.2204H13.9447V31.2621H13.5671V30.2204Z" fill="#78909C"/>
<path d="M14.6133 29.9216H14.9909V31.2621H14.6133V29.9216Z" fill="#78909C"/>
<path d="M16.7298 29.9216L16.1571 31.2621H15.7836L15.2109 29.9216H15.6218L15.987 30.7931L16.3563 29.9216H16.7298Z" fill="#78909C"/>
<path d="M16.9258 29.9216H17.3034V31.2621H16.9258V29.9216Z" fill="#78909C"/>
<path d="M17.9753 30.2204H17.5645V29.9216H18.7638V30.2204H18.353V31.2621H17.9753V30.2204Z" fill="#78909C"/>
<path d="M19.7045 30.7807V31.2621H19.3269V30.7765L18.8164 29.9216H19.2148L19.5344 30.4528L19.8539 29.9216H20.2233L19.7045 30.7807Z" fill="#78909C"/>
<path d="M13.5998 36.6695C18.4679 36.6695 22.4144 32.7231 22.4144 27.8549C22.4144 22.9867 18.4679 19.0403 13.5998 19.0403C8.73159 19.0403 4.78516 22.9867 4.78516 27.8549C4.78516 32.7231 8.73159 36.6695 13.5998 36.6695Z" stroke="#002680" stroke-width="2" stroke-miterlimit="10"/>
<path d="M43.5415 15.2595C42.0807 14.4751 41.1719 12.9521 41.1719 11.2921V9.54492C42.641 8.70247 44.4421 8.70247 45.9112 9.54492V11.2921C45.9112 12.9521 45.0023 14.4751 43.5415 15.2595Z" fill="url(#paint30_linear_6302_14374)"/>
<path d="M37.7852 16.3965H38.1628V17.7369H37.7852V16.3965Z" fill="#78909C"/>
<path d="M39.8229 16.3965V17.7369H39.5116L38.9182 17.0231V17.7369H38.5488V16.3965H38.8601L39.4535 17.1103V16.3965H39.8229Z" fill="#78909C"/>
<path d="M40.4948 16.6994H40.084V16.4006H41.2833V16.6994H40.8725V17.7411H40.4948V16.6994Z" fill="#78909C"/>
<path d="M42.6159 17.4464V17.7411H41.541V16.4006H42.591V16.6953H41.9145V16.9194H42.508V17.2016H41.9145V17.4464H42.6159Z" fill="#78909C"/>
<path d="M43.8361 17.0397H44.1722V17.5958C44.0187 17.7079 43.8029 17.766 43.6078 17.766C43.1804 17.766 42.8691 17.4755 42.8691 17.0688C42.8691 16.6621 43.1804 16.3716 43.6161 16.3716C43.8651 16.3716 44.0685 16.4587 44.2013 16.6164L43.9606 16.8364C43.8693 16.7368 43.7614 16.687 43.6369 16.687C43.4086 16.687 43.2551 16.8364 43.2551 17.0688C43.2551 17.2929 43.4086 17.4506 43.6327 17.4506C43.7033 17.4506 43.7697 17.4381 43.8361 17.4049V17.0397Z" fill="#78909C"/>
<path d="M45.1144 17.38H44.9069V17.7369H44.5293V16.3965H45.1435C45.5087 16.3965 45.7369 16.5874 45.7369 16.8903C45.7369 17.0895 45.6415 17.2348 45.4755 17.3136L45.766 17.7369H45.3593L45.1144 17.38ZM45.1186 16.6953H44.9069V17.0895H45.1186C45.2763 17.0895 45.3551 17.0148 45.3551 16.8945C45.3551 16.77 45.2763 16.6953 45.1186 16.6953Z" fill="#78909C"/>
<path d="M46.0605 16.3965H46.4382V17.7369H46.0605V16.3965Z" fill="#78909C"/>
<path d="M47.1101 16.6994H46.6992V16.4006H47.8986V16.6994H47.4877V17.7411H47.1101V16.6994Z" fill="#78909C"/>
<path d="M48.8412 17.2555V17.7369H48.4636V17.2514L47.9531 16.3965H48.3515L48.6711 16.9277L48.9906 16.3965H49.36L48.8412 17.2555Z" fill="#78909C"/>
<path d="M43.2016 22.6715C47.9804 22.6715 51.8543 18.7975 51.8543 14.0187C51.8543 9.23993 47.9804 5.36597 43.2016 5.36597C38.4228 5.36597 34.5488 9.23993 34.5488 14.0187C34.5488 18.7975 38.4228 22.6715 43.2016 22.6715Z" stroke="#002680" stroke-width="2" stroke-miterlimit="10"/>
<path d="M68.516 27.249H67.0137V29.5523H68.516V27.249Z" fill="url(#paint31_linear_6302_14374)"/>
<path d="M70.4457 26.5974H68.9434V29.5564H70.4457V26.5974Z" fill="url(#paint32_linear_6302_14374)"/>
<path d="M72.3753 25.4771H70.873V29.5524H72.3753V25.4771Z" fill="url(#paint33_linear_6302_14374)"/>
<path d="M67.1086 26.5145C67.0256 26.5145 66.9426 26.5145 66.8555 26.5104L66.8721 25.8256C69.6069 25.892 71.0428 24.9043 71.2545 22.8169L71.9351 22.8874C71.7649 24.5557 70.7855 26.5145 67.1086 26.5145Z" fill="url(#paint34_linear_6302_14374)"/>
<path d="M70.752 22.9247L72.4161 23.0036L71.6234 22.1321L70.752 22.9247Z" fill="url(#paint35_linear_6302_14374)"/>
<path d="M65.5939 31.3161H65.9301V31.8722C65.7765 31.9843 65.5607 32.0423 65.3657 32.0423C64.9382 32.0423 64.627 31.7518 64.627 31.3451C64.627 30.9384 64.9382 30.6479 65.374 30.6479C65.623 30.6479 65.8263 30.7351 65.9591 30.8928L65.7184 31.1128C65.6271 31.0132 65.5192 30.9634 65.3947 30.9634C65.1665 30.9634 65.0129 31.1127 65.0129 31.3451C65.0129 31.5692 65.1665 31.7269 65.3906 31.7269C65.4611 31.7269 65.5275 31.7145 65.5939 31.6813V31.3161Z" fill="#78909C"/>
<path d="M66.8684 31.6606H66.6609V32.0175H66.2832V30.677H66.8974C67.2626 30.677 67.4909 30.8679 67.4909 31.1709C67.4909 31.3701 67.3954 31.5153 67.2294 31.5942L67.5199 32.0175H67.1132L66.8684 31.6606ZM66.8725 30.9758H66.6609V31.3701H66.8725C67.0302 31.3701 67.1091 31.2954 67.1091 31.175C67.1091 31.0464 67.0302 30.9758 66.8725 30.9758Z" fill="#78909C"/>
<path d="M67.748 31.3451C67.748 30.9426 68.0634 30.6479 68.4909 30.6479C68.9183 30.6479 69.2337 30.9426 69.2337 31.3451C69.2337 31.7477 68.9183 32.0423 68.4909 32.0423C68.0634 32.0423 67.748 31.7477 67.748 31.3451ZM68.8561 31.3451C68.8561 31.1127 68.6984 30.9634 68.495 30.9634C68.2917 30.9634 68.134 31.1127 68.134 31.3451C68.134 31.5775 68.2917 31.7269 68.495 31.7269C68.6942 31.7269 68.8561 31.5775 68.8561 31.3451Z" fill="#78909C"/>
<path d="M71.6065 30.677L71.1707 32.0175H70.764L70.5067 31.1999L70.237 32.0175H69.8303L69.3945 30.677H69.7846L70.0544 31.5319L70.3366 30.677H70.6852L70.9632 31.5402L71.2454 30.677H71.6065Z" fill="#78909C"/>
<path d="M72.1433 30.9758H71.7324V30.677H72.9318V30.9758H72.5209V32.0175H72.1433V30.9758Z" fill="#78909C"/>
<path d="M74.4615 30.677V32.0175H74.0839V31.4946H73.5652V32.0175H73.1875V30.677H73.5652V31.1792H74.0839V30.677H74.4615Z" fill="#78909C"/>
<path d="M69.5453 36.4288C74.3241 36.4288 78.1981 32.5548 78.1981 27.776C78.1981 22.9973 74.3241 19.1233 69.5453 19.1233C64.7665 19.1233 60.8926 22.9973 60.8926 27.776C60.8926 32.5548 64.7665 36.4288 69.5453 36.4288Z" stroke="#002680" stroke-width="2" stroke-miterlimit="10"/>
<path d="M37.0176 71.0771H37.3496V72.2557H37.0176V71.0771Z" fill="#78909C"/>
<path d="M38.81 71.0771V72.2557H38.5361L38.0173 71.6291V72.2557H37.6895V71.0771H37.9634L38.4821 71.7038V71.0771H38.81Z" fill="#78909C"/>
<path d="M40.2709 71.0771V72.2557H39.997L39.4782 71.6291V72.2557H39.1504V71.0771H39.4243L39.943 71.7038V71.0771H40.2709Z" fill="#78909C"/>
<path d="M40.5449 71.6664C40.5449 71.3137 40.823 71.0522 41.2006 71.0522C41.5783 71.0522 41.8563 71.3137 41.8563 71.6664C41.8563 72.0192 41.5783 72.2806 41.2006 72.2806C40.823 72.2806 40.5449 72.0233 40.5449 71.6664ZM41.5202 71.6664C41.5202 71.4631 41.3791 71.3303 41.2006 71.3303C41.0222 71.3303 40.8811 71.4631 40.8811 71.6664C40.8811 71.8698 41.0222 72.0026 41.2006 72.0026C41.3791 72.0067 41.5202 71.8698 41.5202 71.6664Z" fill="#78909C"/>
<path d="M43.2933 71.0771L42.787 72.2557H42.4592L41.957 71.0771H42.3181L42.6376 71.8449L42.9655 71.0771H43.2933Z" fill="#78909C"/>
<path d="M44.2089 72.0275H43.7109L43.6196 72.2557H43.2793L43.798 71.0771H44.1259L44.6488 72.2557H44.3002L44.2089 72.0275ZM44.1134 71.7826L43.9599 71.405L43.8063 71.7826H44.1134Z" fill="#78909C"/>
<path d="M45.0388 71.3427H44.6777V71.0771H45.736V71.3427H45.3749V72.2599H45.0429V71.3427H45.0388Z" fill="#78909C"/>
<path d="M45.9609 71.0771H46.2929V72.2557H45.9609V71.0771Z" fill="#78909C"/>
<path d="M46.5703 71.6664C46.5703 71.3137 46.8484 71.0522 47.226 71.0522C47.6037 71.0522 47.8817 71.3137 47.8817 71.6664C47.8817 72.0192 47.6037 72.2806 47.226 72.2806C46.8484 72.2806 46.5703 72.0233 46.5703 71.6664ZM47.5456 71.6664C47.5456 71.4631 47.4045 71.3303 47.226 71.3303C47.0476 71.3303 46.9065 71.4631 46.9065 71.6664C46.9065 71.8698 47.0476 72.0026 47.226 72.0026C47.4045 72.0067 47.5456 71.8698 47.5456 71.6664Z" fill="#78909C"/>
<path d="M49.2807 71.0771V72.2557H49.0068L48.488 71.6291V72.2557H48.1602V71.0771H48.4341L48.9528 71.7038V71.0771H49.2807Z" fill="#78909C"/>
<path d="M46.1887 68.2343V66.952H45.6492C45.6077 66.8192 45.5538 66.6947 45.4915 66.5743L45.8733 66.1925L44.9686 65.2878H44.5453L44.5868 65.6696C44.4665 65.6074 44.342 65.5534 44.2092 65.5119V64.9766H42.9268V65.5119C42.794 65.5534 42.6695 65.6074 42.5492 65.6696L42.1674 65.2878H41.7441L41.2585 66.1925L41.6403 66.5743C41.5781 66.6947 41.5241 66.8192 41.4826 66.952H40.9473V68.2343H41.4826C41.5241 68.3671 41.5781 68.4916 41.6403 68.612L41.2585 68.9938L41.7441 69.8985H42.1674L42.5492 69.5167C42.6695 69.5789 42.794 69.6329 42.9268 69.6744V70.2097H44.2092V69.6744C44.342 69.6329 44.4665 69.5789 44.5868 69.5167L44.5453 69.8985H44.9686L45.8733 68.9938L45.4915 68.612C45.5538 68.4916 45.6077 68.3671 45.6492 68.2343H46.1887ZM43.5701 68.7614C42.9268 68.7614 42.4039 68.2385 42.4039 67.5952C42.4039 66.952 42.9268 66.4291 43.5701 66.4291C44.2133 66.4291 44.7362 66.952 44.7362 67.5952C44.7362 68.2385 44.2133 68.7614 43.5701 68.7614Z" fill="url(#paint36_linear_6302_14374)"/>
<path d="M45.7664 68.2343V66.952H45.231C45.1895 66.8192 45.1356 66.6947 45.0733 66.5743L45.4551 66.1925L44.5504 65.2878L44.1686 65.6696C44.0483 65.6074 43.9238 65.5534 43.791 65.5119V64.9766H42.5086V65.5119C42.3758 65.5534 42.2513 65.6074 42.131 65.6696L41.7492 65.2878L40.8445 66.1925L41.2263 66.5743C41.164 66.6947 41.1101 66.8192 41.0686 66.952H40.5332V68.2343H41.0686C41.1101 68.3671 41.164 68.4916 41.2263 68.612L40.8445 68.9938L41.7492 69.8985L42.131 69.5167C42.2513 69.5789 42.3758 69.6329 42.5086 69.6744V70.2097H43.791V69.6744C43.9238 69.6329 44.0483 69.5789 44.1686 69.5167L44.5504 69.8985L45.4551 68.9938L45.0733 68.612C45.1356 68.4916 45.1895 68.3671 45.231 68.2343H45.7664ZM43.1477 68.7614C42.5045 68.7614 41.9816 68.2385 41.9816 67.5952C41.9816 66.952 42.5045 66.4291 43.1477 66.4291C43.791 66.4291 44.3139 66.952 44.3139 67.5952C44.318 68.2385 43.7951 68.7614 43.1477 68.7614Z" fill="url(#paint37_linear_6302_14374)"/>
<defs>
<linearGradient id="paint0_linear_6302_14374" x1="67.6984" y1="53.1725" x2="67.6984" y2="50.9271" gradientUnits="userSpaceOnUse">
<stop stop-color="white"/>
<stop offset="0.2482" stop-color="#FCFCFC"/>
<stop offset="0.4645" stop-color="#F1F3F5"/>
<stop offset="0.6689" stop-color="#DFE5E7"/>
<stop offset="0.8648" stop-color="#C6D0D5"/>
<stop offset="1" stop-color="#B0BEC5"/>
</linearGradient>
<linearGradient id="paint1_linear_6302_14374" x1="65.7025" y1="52.4012" x2="69.6943" y2="52.4012" gradientUnits="userSpaceOnUse">
<stop stop-color="#00D4E6"/>
<stop offset="1" stop-color="#007FF5"/>
</linearGradient>
<linearGradient id="paint2_linear_6302_14374" x1="66.8255" y1="51.9456" x2="67.6987" y2="51.9456" gradientUnits="userSpaceOnUse">
<stop stop-color="#00D4E6"/>
<stop offset="1" stop-color="#007FF5"/>
</linearGradient>
<linearGradient id="paint3_linear_6302_14374" x1="67.6981" y1="51.9456" x2="68.5713" y2="51.9456" gradientUnits="userSpaceOnUse">
<stop stop-color="#00D4E6"/>
<stop offset="1" stop-color="#007FF5"/>
</linearGradient>
<linearGradient id="paint4_linear_6302_14374" x1="67.6659" y1="49.0867" x2="67.6659" y2="51.7596" gradientUnits="userSpaceOnUse">
<stop stop-color="white"/>
<stop offset="0.2482" stop-color="#FCFCFC"/>
<stop offset="0.4645" stop-color="#F1F3F5"/>
<stop offset="0.6689" stop-color="#DFE5E7"/>
<stop offset="0.8648" stop-color="#C6D0D5"/>
<stop offset="1" stop-color="#B0BEC5"/>
</linearGradient>
<linearGradient id="paint5_linear_6302_14374" x1="71.69" y1="53.1725" x2="71.69" y2="50.9271" gradientUnits="userSpaceOnUse">
<stop stop-color="white"/>
<stop offset="0.2482" stop-color="#FCFCFC"/>
<stop offset="0.4645" stop-color="#F1F3F5"/>
<stop offset="0.6689" stop-color="#DFE5E7"/>
<stop offset="0.8648" stop-color="#C6D0D5"/>
<stop offset="1" stop-color="#B0BEC5"/>
</linearGradient>
<linearGradient id="paint6_linear_6302_14374" x1="69.6941" y1="52.4012" x2="73.6859" y2="52.4012" gradientUnits="userSpaceOnUse">
<stop stop-color="#00D4E6"/>
<stop offset="1" stop-color="#007FF5"/>
</linearGradient>
<linearGradient id="paint7_linear_6302_14374" x1="70.8172" y1="51.9456" x2="71.6904" y2="51.9456" gradientUnits="userSpaceOnUse">
<stop stop-color="#00D4E6"/>
<stop offset="1" stop-color="#007FF5"/>
</linearGradient>
<linearGradient id="paint8_linear_6302_14374" x1="71.6897" y1="51.9456" x2="72.5629" y2="51.9456" gradientUnits="userSpaceOnUse">
<stop stop-color="#00D4E6"/>
<stop offset="1" stop-color="#007FF5"/>
</linearGradient>
<linearGradient id="paint9_linear_6302_14374" x1="71.6575" y1="49.0867" x2="71.6575" y2="51.7596" gradientUnits="userSpaceOnUse">
<stop stop-color="white"/>
<stop offset="0.2482" stop-color="#FCFCFC"/>
<stop offset="0.4645" stop-color="#F1F3F5"/>
<stop offset="0.6689" stop-color="#DFE5E7"/>
<stop offset="0.8648" stop-color="#C6D0D5"/>
<stop offset="1" stop-color="#B0BEC5"/>
</linearGradient>
<linearGradient id="paint10_linear_6302_14374" x1="69.6946" y1="53.9045" x2="69.6946" y2="50.5256" gradientUnits="userSpaceOnUse">
<stop stop-color="white"/>
<stop offset="0.2482" stop-color="#FCFCFC"/>
<stop offset="0.4645" stop-color="#F1F3F5"/>
<stop offset="0.6689" stop-color="#DFE5E7"/>
<stop offset="0.8648" stop-color="#C6D0D5"/>
<stop offset="1" stop-color="#B0BEC5"/>
</linearGradient>
<linearGradient id="paint11_linear_6302_14374" x1="66.6908" y1="52.7965" x2="72.6978" y2="52.7965" gradientUnits="userSpaceOnUse">
<stop stop-color="#00D4E6"/>
<stop offset="1" stop-color="#007FF5"/>
</linearGradient>
<linearGradient id="paint12_linear_6302_14374" x1="68.3809" y1="52.1367" x2="69.695" y2="52.1367" gradientUnits="userSpaceOnUse">
<stop stop-color="#00D4E6"/>
<stop offset="1" stop-color="#007FF5"/>
</linearGradient>
<linearGradient id="paint13_linear_6302_14374" x1="69.6939" y1="52.1367" x2="71.0079" y2="52.1367" gradientUnits="userSpaceOnUse">
<stop stop-color="#00D4E6"/>
<stop offset="1" stop-color="#007FF5"/>
</linearGradient>
<linearGradient id="paint14_linear_6302_14374" x1="69.6442" y1="51.6016" x2="69.6442" y2="48.5782" gradientUnits="userSpaceOnUse">
<stop stop-color="white"/>
<stop offset="0.2482" stop-color="#FCFCFC"/>
<stop offset="0.4645" stop-color="#F1F3F5"/>
<stop offset="0.6689" stop-color="#DFE5E7"/>
<stop offset="0.8648" stop-color="#C6D0D5"/>
<stop offset="1" stop-color="#B0BEC5"/>
</linearGradient>
<linearGradient id="paint15_linear_6302_14374" x1="38.2735" y1="32.9135" x2="47.8363" y2="35.6188" gradientUnits="userSpaceOnUse">
<stop stop-color="#00D4E6"/>
<stop offset="1" stop-color="#007FF5"/>
</linearGradient>
<linearGradient id="paint16_linear_6302_14374" x1="37.2232" y1="36.6259" x2="46.7861" y2="39.3312" gradientUnits="userSpaceOnUse">
<stop stop-color="#00D4E6"/>
<stop offset="1" stop-color="#007FF5"/>
</linearGradient>
<linearGradient id="paint17_linear_6302_14374" x1="43.2285" y1="34.9406" x2="43.5515" y2="32.4032" gradientUnits="userSpaceOnUse">
<stop stop-color="#00D4E6"/>
<stop offset="1" stop-color="#007FF5"/>
</linearGradient>
<linearGradient id="paint18_linear_6302_14374" x1="43.2777" y1="33.8047" x2="42.9086" y2="40.3098" gradientUnits="userSpaceOnUse">
<stop stop-color="#00D4E6"/>
<stop offset="1" stop-color="#007FF5"/>
</linearGradient>
<linearGradient id="paint19_linear_6302_14374" x1="10.7721" y1="53.5447" x2="13.943" y2="53.5447" gradientUnits="userSpaceOnUse">
<stop stop-color="#00D4E6"/>
<stop offset="1" stop-color="#007FF5"/>
</linearGradient>
<linearGradient id="paint20_linear_6302_14374" x1="13.3665" y1="53.5447" x2="16.5374" y2="53.5447" gradientUnits="userSpaceOnUse">
<stop stop-color="#00D4E6"/>
<stop offset="1" stop-color="#007FF5"/>
</linearGradient>
<linearGradient id="paint21_linear_6302_14374" x1="13.688" y1="46.6221" x2="13.6391" y2="52.1956" gradientUnits="userSpaceOnUse">
<stop stop-color="#00D4E6"/>
<stop offset="1" stop-color="#007FF5"/>
</linearGradient>
<linearGradient id="paint22_linear_6302_14374" x1="10.3131" y1="50.1576" x2="16.9958" y2="50.1576" gradientUnits="userSpaceOnUse">
<stop stop-color="#00D4E6"/>
<stop offset="1" stop-color="#007FF5"/>
</linearGradient>
<linearGradient id="paint23_linear_6302_14374" x1="11.3482" y1="50.1039" x2="15.9605" y2="50.1039" gradientUnits="userSpaceOnUse">
<stop stop-color="#F7F7FF"/>
<stop offset="1" stop-color="#DEDEE6"/>
</linearGradient>
<linearGradient id="paint24_linear_6302_14374" x1="12.8056" y1="50.1037" x2="14.5034" y2="50.1037" gradientUnits="userSpaceOnUse">
<stop stop-color="#00D4E6"/>
<stop offset="1" stop-color="#007FF5"/>
</linearGradient>
<linearGradient id="paint25_linear_6302_14374" x1="13.7136" y1="26.966" x2="13.7136" y2="21.6739" gradientUnits="userSpaceOnUse">
<stop stop-color="#00D4E6"/>
<stop offset="1" stop-color="#007FF5"/>
</linearGradient>
<linearGradient id="paint26_linear_6302_14374" x1="13.7133" y1="27.2928" x2="13.7133" y2="27.1652" gradientUnits="userSpaceOnUse">
<stop stop-color="#00D4E6"/>
<stop offset="1" stop-color="#007FF5"/>
</linearGradient>
<linearGradient id="paint27_linear_6302_14374" x1="13.7133" y1="27.6573" x2="13.7133" y2="27.5298" gradientUnits="userSpaceOnUse">
<stop stop-color="#00D4E6"/>
<stop offset="1" stop-color="#007FF5"/>
</linearGradient>
<linearGradient id="paint28_linear_6302_14374" x1="13.7133" y1="28.022" x2="13.7133" y2="27.8944" gradientUnits="userSpaceOnUse">
<stop stop-color="#00D4E6"/>
<stop offset="1" stop-color="#007FF5"/>
</linearGradient>
<linearGradient id="paint29_linear_6302_14374" x1="13.7127" y1="28.4226" x2="13.7127" y2="28.2951" gradientUnits="userSpaceOnUse">
<stop stop-color="#00D4E6"/>
<stop offset="1" stop-color="#007FF5"/>
</linearGradient>
<linearGradient id="paint30_linear_6302_14374" x1="41.1722" y1="12.0883" x2="45.9112" y2="12.0883" gradientUnits="userSpaceOnUse">
<stop stop-color="#00D4E6"/>
<stop offset="1" stop-color="#007FF5"/>
</linearGradient>
<linearGradient id="paint31_linear_6302_14374" x1="67.7626" y1="29.5546" x2="67.7626" y2="27.2504" gradientUnits="userSpaceOnUse">
<stop stop-color="#00D4E6"/>
<stop offset="1" stop-color="#007FF5"/>
</linearGradient>
<linearGradient id="paint32_linear_6302_14374" x1="69.6931" y1="29.5545" x2="69.6931" y2="26.5957" gradientUnits="userSpaceOnUse">
<stop stop-color="#00D4E6"/>
<stop offset="1" stop-color="#007FF5"/>
</linearGradient>
<linearGradient id="paint33_linear_6302_14374" x1="71.6236" y1="29.5547" x2="71.6236" y2="25.4774" gradientUnits="userSpaceOnUse">
<stop stop-color="#00D4E6"/>
<stop offset="1" stop-color="#007FF5"/>
</linearGradient>
<linearGradient id="paint34_linear_6302_14374" x1="66.857" y1="24.6665" x2="71.967" y2="24.6665" gradientUnits="userSpaceOnUse">
<stop stop-color="#00D4E6"/>
<stop offset="1" stop-color="#007FF5"/>
</linearGradient>
<linearGradient id="paint35_linear_6302_14374" x1="66.8566" y1="22.5686" x2="71.9666" y2="22.5686" gradientUnits="userSpaceOnUse">
<stop stop-color="#00D4E6"/>
<stop offset="1" stop-color="#007FF5"/>
</linearGradient>
<linearGradient id="paint36_linear_6302_14374" x1="43.4535" y1="65.8702" x2="43.8082" y2="71.1405" gradientUnits="userSpaceOnUse">
<stop stop-color="#00D4E6"/>
<stop offset="1" stop-color="#007FF5"/>
</linearGradient>
<linearGradient id="paint37_linear_6302_14374" x1="43.3278" y1="63.7791" x2="43.1744" y2="67.0516" gradientUnits="userSpaceOnUse">
<stop stop-color="#00D4E6"/>
<stop offset="1" stop-color="#007FF5"/>
</linearGradient>
</defs>
</svg>
