<svg width="69" height="49" viewBox="0 0 69 49" fill="none" xmlns="http://www.w3.org/2000/svg">
<path style="mix-blend-mode:multiply" opacity="0.5" d="M68.5655 41.4966L50.4305 46.4458L24.2124 47.2946L0.435547 43.3318L54.1637 38.7832L68.5655 41.4966Z" fill="url(#paint0_linear_3941_8926)"/>
<path d="M39.6857 2.2302L33.1041 3.39234L32.3965 3.51714V0.291748L33.1041 0.480293L39.6857 2.2302Z" fill="#002680"/>
<path d="M39.6857 2.2302L33.1041 3.39234L32.3965 3.51714V0.291748L33.1041 0.480293L39.6857 2.2302Z" fill="url(#paint1_linear_3941_8926)"/>
<g style="mix-blend-mode:multiply">
<path d="M33.1041 0.480293V3.39234L32.3965 3.51714V0.291748L33.1041 0.480293Z" fill="#CADADD"/>
</g>
<path d="M32.6855 8.76172H27.9238V10.7465H32.6855V8.76172Z" fill="white"/>
<path d="M31.997 12.866H24.4395V15.4049H31.997V12.866Z" fill="white"/>
<path d="M31.9941 17.9438H20.0723V20.4828H31.9941V17.9438Z" fill="white"/>
<path d="M32.5956 23.0212H15.709V25.5602H32.5956V23.0212Z" fill="white"/>
<path d="M31.9954 28.0986H11.3457V30.6376H31.9954V28.0986Z" fill="white"/>
<path d="M31.9964 33.1765H6.98242V35.7155H31.9964V33.1765Z" fill="white"/>
<path d="M31.9974 38.2539H2.61914V40.7929H31.9974V38.2539Z" fill="white"/>
<path d="M31.9958 10.7463H26.1348V12.8666H31.9958V10.7463Z" fill="#000A8C"/>
<path d="M31.9952 15.405H22.2559V17.944H31.9952V15.405Z" fill="#000A8C"/>
<path d="M31.9962 20.4822H17.8926V23.0212H31.9962V20.4822Z" fill="#000A8C"/>
<path d="M32.5985 25.5603H13.5293V28.0993H32.5985V25.5603Z" fill="#000A8C"/>
<path d="M31.9983 30.6375H9.16602V33.1764H31.9983V30.6375Z" fill="#000A8C"/>
<path d="M31.9946 35.7156H4.79883V38.2546H31.9946V35.7156Z" fill="#000A8C"/>
<path d="M32.1463 42.9723L25.7824 43.2769L0.435547 43.332V40.793H31.9956L32.1463 42.9723Z" fill="#000A8C"/>
<path d="M31.9958 10.7463H26.1348V12.8666H31.9958V10.7463Z" fill="url(#paint2_linear_3941_8926)"/>
<path d="M31.9952 15.405H22.2559V17.944H31.9952V15.405Z" fill="url(#paint3_linear_3941_8926)"/>
<path d="M31.9962 20.4822H17.8926V23.0212H31.9962V20.4822Z" fill="url(#paint4_linear_3941_8926)"/>
<path d="M32.5985 25.5603H13.5293V28.0993H32.5985V25.5603Z" fill="url(#paint5_linear_3941_8926)"/>
<path d="M31.9983 30.6375H9.16602V33.1764H31.9983V30.6375Z" fill="url(#paint6_linear_3941_8926)"/>
<path d="M31.9946 35.7156H4.79883V38.2546H31.9946V35.7156Z" fill="url(#paint7_linear_3941_8926)"/>
<path d="M32.1463 42.9723L25.7824 43.2769L0.435547 43.332V40.793H31.9956L32.1463 42.9723Z" fill="url(#paint8_linear_3941_8926)"/>
<path d="M54.1655 38.7833L43.6702 42.422L24.6309 43.3319L29.0669 39.1262L25.2845 33.1766L33.1 26.0468L28.2182 20.4824L32.2231 9.25288L32.398 8.76172H33.5336L54.1655 38.7833Z" fill="#000A8C"/>
<path d="M54.1655 38.7833L43.6702 42.422L24.6309 43.3319L29.0669 39.1262L25.2845 33.1766L33.1 26.0468L28.2182 20.4824L32.2231 9.25288L32.398 8.76172H33.5336L54.1655 38.7833Z" fill="url(#paint9_linear_3941_8926)"/>
<g style="mix-blend-mode:multiply">
<path d="M54.1653 38.7833L43.67 42.422L40.0795 33.9006L39.6789 25.669L38.3095 20.1435L34.8407 16.6746L33.3666 12.8661L32.916 8.76172H33.5334L54.1653 38.7833Z" fill="#DDC0DB"/>
</g>
<g style="mix-blend-mode:multiply">
<path d="M10.4828 47.6691L31.6458 42.9964L31.2952 38.7444L28.3228 33.4685L34.445 26.0468L30.594 19.2129L32.9152 8.76172H32.5791L28.2181 20.7555L33.3996 26.0468L25.2336 33.1766L29.0659 39.1262L24.7081 43.1856L8.89258 47.2799L10.4828 47.6691Z" fill="#CADADD"/>
</g>
<path d="M9.58008 47.0013L24.5219 43.0533L24.3647 43.1392L28.8008 38.9335L28.7548 39.2629L24.9724 33.3127L24.8572 33.1315L25.0232 32.9799L32.8379 25.8501L32.8137 26.2184L27.9328 20.6547L27.8288 20.5366L27.8796 20.399L32.1729 8.73071L32.6066 8.83807L28.5517 20.5654L28.4993 20.3098L33.3803 25.8742L33.5495 26.0668L33.3561 26.2433L25.5415 33.3731L25.5922 33.0396L29.3746 38.9892L29.4875 39.1676L29.3279 39.3186L24.8918 43.5243L24.8274 43.5854L24.7339 43.6095L9.79205 47.5576L9.58008 47.0013Z" fill="#000A8C"/>
<g style="mix-blend-mode:multiply">
<path d="M33.4933 27.6262C34.2371 27.6262 34.84 27.1242 34.84 26.505C34.84 25.8858 34.2371 25.3838 33.4933 25.3838C32.7495 25.3838 32.1465 25.8858 32.1465 26.505C32.1465 27.1242 32.7495 27.6262 33.4933 27.6262Z" fill="#CADADD"/>
</g>
<g style="mix-blend-mode:multiply">
<path d="M25.7433 34.7571C26.4871 34.7571 27.09 34.2551 27.09 33.6359C27.09 33.0166 26.4871 32.5146 25.7433 32.5146C24.9995 32.5146 24.3965 33.0166 24.3965 33.6359C24.3965 34.2551 24.9995 34.7571 25.7433 34.7571Z" fill="#CADADD"/>
</g>
<g style="mix-blend-mode:multiply">
<path d="M29.2472 40.7922C29.991 40.7922 30.5939 40.2902 30.5939 39.671C30.5939 39.0518 29.991 38.5498 29.2472 38.5498C28.5034 38.5498 27.9004 39.0518 27.9004 39.671C27.9004 40.2902 28.5034 40.7922 29.2472 40.7922Z" fill="#CADADD"/>
</g>
<g style="mix-blend-mode:multiply">
<path d="M24.8409 44.7785C25.5847 44.7785 26.1877 44.2766 26.1877 43.6573C26.1877 43.0381 25.5847 42.5361 24.8409 42.5361C24.0971 42.5361 23.4941 43.0381 23.4941 43.6573C23.4941 44.2766 24.0971 44.7785 24.8409 44.7785Z" fill="#CADADD"/>
</g>
<g style="mix-blend-mode:multiply">
<path d="M10.2354 48.5903C10.9792 48.5903 11.5822 48.0883 11.5822 47.4691C11.5822 46.8499 10.9792 46.3479 10.2354 46.3479C9.49164 46.3479 8.88867 46.8499 8.88867 47.4691C8.88867 48.0883 9.49164 48.5903 10.2354 48.5903Z" fill="#CADADD"/>
</g>
<g style="mix-blend-mode:multiply">
<path d="M28.5675 21.9599C29.3113 21.9599 29.9142 21.458 29.9142 20.8387C29.9142 20.2195 29.3113 19.7175 28.5675 19.7175C27.8237 19.7175 27.2207 20.2195 27.2207 20.8387C27.2207 21.458 27.8237 21.9599 28.5675 21.9599Z" fill="#CADADD"/>
</g>
<path d="M25.2315 34.2978C25.9753 34.2978 26.5783 33.7958 26.5783 33.1766C26.5783 32.5574 25.9753 32.0554 25.2315 32.0554C24.4877 32.0554 23.8848 32.5574 23.8848 33.1766C23.8848 33.7958 24.4877 34.2978 25.2315 34.2978Z" fill="#FFFDFD"/>
<path d="M25.5693 33.7799C25.9671 33.6247 26.1385 33.2304 25.952 32.8992C25.7656 32.568 25.292 32.4253 24.8941 32.5805C24.4963 32.7357 24.325 33.1301 24.5114 33.4612C24.6978 33.7924 25.1715 33.9351 25.5693 33.7799Z" fill="#000A8C"/>
<path d="M25.5693 33.7799C25.9671 33.6247 26.1385 33.2304 25.952 32.8992C25.7656 32.568 25.292 32.4253 24.8941 32.5805C24.4963 32.7357 24.325 33.1301 24.5114 33.4612C24.6978 33.7924 25.1715 33.9351 25.5693 33.7799Z" fill="url(#paint10_linear_3941_8926)"/>
<path d="M28.8917 40.2407C29.6355 40.2407 30.2385 39.7387 30.2385 39.1195C30.2385 38.5003 29.6355 37.9983 28.8917 37.9983C28.1479 37.9983 27.5449 38.5003 27.5449 39.1195C27.5449 39.7387 28.1479 40.2407 28.8917 40.2407Z" fill="#FFFDFD"/>
<path d="M29.2317 39.717C29.6284 39.5599 29.7972 39.1648 29.6085 38.8345C29.4198 38.5042 28.9453 38.3637 28.5485 38.5208C28.1517 38.6779 27.983 39.0729 28.1717 39.4033C28.3603 39.7336 28.8349 39.874 29.2317 39.717Z" fill="#000A8C"/>
<path d="M29.2317 39.717C29.6284 39.5599 29.7972 39.1648 29.6085 38.8345C29.4198 38.5042 28.9453 38.3637 28.5485 38.5208C28.1517 38.6779 27.983 39.0729 28.1717 39.4033C28.3603 39.7336 28.8349 39.874 29.2317 39.717Z" fill="url(#paint11_linear_3941_8926)"/>
<path d="M24.4386 44.4529C25.1824 44.4529 25.7853 43.9509 25.7853 43.3317C25.7853 42.7124 25.1824 42.2104 24.4386 42.2104C23.6948 42.2104 23.0918 42.7124 23.0918 43.3317C23.0918 43.9509 23.6948 44.4529 24.4386 44.4529Z" fill="#FFFDFD"/>
<path d="M25.2142 43.4807C25.3116 43.124 25.0434 42.7691 24.615 42.688C24.1866 42.6068 23.7603 42.8301 23.6628 43.1868C23.5654 43.5434 23.8336 43.8983 24.262 43.9795C24.6904 44.0606 25.1167 43.8373 25.2142 43.4807Z" fill="#000A8C"/>
<path d="M25.2142 43.4807C25.3116 43.124 25.0434 42.7691 24.615 42.688C24.1866 42.6068 23.7603 42.8301 23.6628 43.1868C23.5654 43.5434 23.8336 43.8983 24.262 43.9795C24.6904 44.0606 25.1167 43.8373 25.2142 43.4807Z" fill="url(#paint12_linear_3941_8926)"/>
<path d="M9.68466 48.4011C10.4285 48.4011 11.0314 47.8991 11.0314 47.2799C11.0314 46.6607 10.4285 46.1587 9.68466 46.1587C8.94086 46.1587 8.33789 46.6607 8.33789 47.2799C8.33789 47.8991 8.94086 48.4011 9.68466 48.4011Z" fill="#FFFDFD"/>
<path d="M10.4594 47.4351C10.56 47.079 10.2949 46.7225 9.86724 46.6387C9.43958 46.555 9.01133 46.7757 8.91071 47.1317C8.81009 47.4877 9.0752 47.8443 9.50286 47.928C9.93052 48.0118 10.3588 47.7911 10.4594 47.4351Z" fill="#000A8C"/>
<path d="M10.4594 47.4351C10.56 47.079 10.2949 46.7225 9.86724 46.6387C9.43958 46.555 9.01133 46.7757 8.91071 47.1317C8.81009 47.4877 9.0752 47.8443 9.50286 47.928C9.93052 48.0118 10.3588 47.7911 10.4594 47.4351Z" fill="url(#paint13_linear_3941_8926)"/>
<path d="M32.5409 0.111379L32.6473 8.76163C32.6495 8.78996 32.6448 8.81836 32.6334 8.84511C32.6219 8.87186 32.6041 8.89639 32.5809 8.9172C32.5577 8.93801 32.5297 8.95467 32.4985 8.96615C32.4673 8.97763 32.4337 8.98369 32.3996 8.98396C32.3655 8.98424 32.3317 8.97872 32.3002 8.96775C32.2688 8.95677 32.2404 8.94057 32.2167 8.92013C32.193 8.8997 32.1746 8.87546 32.1626 8.8489C32.1506 8.82234 32.1452 8.79401 32.1468 8.76566V8.76163L32.2531 0.111379C32.2559 0.0811627 32.2722 0.0529178 32.2989 0.0323075C32.3256 0.0116972 32.3606 0.000244141 32.397 0.000244141C32.4334 0.000244141 32.4685 0.0116972 32.4951 0.0323075C32.5218 0.0529178 32.5382 0.0811627 32.5409 0.111379Z" fill="#002680"/>
<path d="M33.0987 27.1679C33.8425 27.1679 34.4455 26.666 34.4455 26.0467C34.4455 25.4275 33.8425 24.9255 33.0987 24.9255C32.3549 24.9255 31.752 25.4275 31.752 26.0467C31.752 26.666 32.3549 27.1679 33.0987 27.1679Z" fill="#FFFDFD"/>
<path d="M33.4457 26.6418C33.8413 26.4826 34.0069 26.0866 33.8157 25.7573C33.6245 25.428 33.1488 25.2901 32.7533 25.4493C32.3578 25.6085 32.1921 26.0045 32.3833 26.3338C32.5745 26.6631 33.0502 26.801 33.4457 26.6418Z" fill="#000A8C"/>
<path d="M33.4457 26.6418C33.8413 26.4826 34.0069 26.0866 33.8157 25.7573C33.6245 25.428 33.1488 25.2901 32.7533 25.4493C32.3578 25.6085 32.1921 26.0045 32.3833 26.3338C32.5745 26.6631 33.0502 26.801 33.4457 26.6418Z" fill="url(#paint14_linear_3941_8926)"/>
<path d="M28.2159 21.6035C28.9597 21.6035 29.5627 21.1015 29.5627 20.4823C29.5627 19.8631 28.9597 19.3611 28.2159 19.3611C27.4721 19.3611 26.8691 19.8631 26.8691 20.4823C26.8691 21.1015 27.4721 21.6035 28.2159 21.6035Z" fill="#FFFDFD"/>
<path d="M28.5586 21.0815C28.9556 20.9248 29.1248 20.5298 28.9366 20.1993C28.7483 19.8689 28.2739 19.728 27.877 19.8847C27.48 20.0414 27.3108 20.4364 27.499 20.7668C27.6873 21.0973 28.1617 21.2382 28.5586 21.0815Z" fill="#000A8C"/>
<path d="M28.5586 21.0815C28.9556 20.9248 29.1248 20.5298 28.9366 20.1993C28.7483 19.8689 28.2739 19.728 27.877 19.8847C27.48 20.0414 27.3108 20.4364 27.499 20.7668C27.6873 21.0973 28.1617 21.2382 28.5586 21.0815Z" fill="url(#paint15_linear_3941_8926)"/>
<defs>
<linearGradient id="paint0_linear_3941_8926" x1="64.7074" y1="46.7088" x2="-0.577372" y2="33.1635" gradientUnits="userSpaceOnUse">
<stop stop-color="#C4E7F2"/>
<stop offset="0.03" stop-color="#C6E7F4"/>
<stop offset="1" stop-color="#95B0B8"/>
</linearGradient>
<linearGradient id="paint1_linear_3941_8926" x1="32.3965" y1="1.90478" x2="39.6857" y2="1.90478" gradientUnits="userSpaceOnUse">
<stop stop-color="#00C0F3"/>
<stop offset="0.27" stop-color="#00C0F3" stop-opacity="0.67"/>
<stop offset="0.53" stop-color="#00C0F3" stop-opacity="0.38"/>
<stop offset="0.75" stop-color="#00C0F3" stop-opacity="0.17"/>
<stop offset="0.91" stop-color="#00C0F3" stop-opacity="0.05"/>
<stop offset="1" stop-color="#00C0F3" stop-opacity="0"/>
</linearGradient>
<linearGradient id="paint2_linear_3941_8926" x1="26.1348" y1="11.8058" x2="31.9958" y2="11.8058" gradientUnits="userSpaceOnUse">
<stop stop-color="#00C0F3"/>
<stop offset="0.27" stop-color="#00C0F3" stop-opacity="0.67"/>
<stop offset="0.53" stop-color="#00C0F3" stop-opacity="0.38"/>
<stop offset="0.75" stop-color="#00C0F3" stop-opacity="0.17"/>
<stop offset="0.91" stop-color="#00C0F3" stop-opacity="0.05"/>
<stop offset="1" stop-color="#00C0F3" stop-opacity="0"/>
</linearGradient>
<linearGradient id="paint3_linear_3941_8926" x1="22.2559" y1="16.6745" x2="31.9952" y2="16.6745" gradientUnits="userSpaceOnUse">
<stop stop-color="#00C0F3"/>
<stop offset="0.27" stop-color="#00C0F3" stop-opacity="0.67"/>
<stop offset="0.53" stop-color="#00C0F3" stop-opacity="0.38"/>
<stop offset="0.75" stop-color="#00C0F3" stop-opacity="0.17"/>
<stop offset="0.91" stop-color="#00C0F3" stop-opacity="0.05"/>
<stop offset="1" stop-color="#00C0F3" stop-opacity="0"/>
</linearGradient>
<linearGradient id="paint4_linear_3941_8926" x1="17.8926" y1="21.7517" x2="31.9962" y2="21.7517" gradientUnits="userSpaceOnUse">
<stop stop-color="#00C0F3"/>
<stop offset="0.27" stop-color="#00C0F3" stop-opacity="0.67"/>
<stop offset="0.53" stop-color="#00C0F3" stop-opacity="0.38"/>
<stop offset="0.75" stop-color="#00C0F3" stop-opacity="0.17"/>
<stop offset="0.91" stop-color="#00C0F3" stop-opacity="0.05"/>
<stop offset="1" stop-color="#00C0F3" stop-opacity="0"/>
</linearGradient>
<linearGradient id="paint5_linear_3941_8926" x1="13.5293" y1="26.8298" x2="32.5985" y2="26.8298" gradientUnits="userSpaceOnUse">
<stop stop-color="#00C0F3"/>
<stop offset="0.27" stop-color="#00C0F3" stop-opacity="0.67"/>
<stop offset="0.53" stop-color="#00C0F3" stop-opacity="0.38"/>
<stop offset="0.75" stop-color="#00C0F3" stop-opacity="0.17"/>
<stop offset="0.91" stop-color="#00C0F3" stop-opacity="0.05"/>
<stop offset="1" stop-color="#00C0F3" stop-opacity="0"/>
</linearGradient>
<linearGradient id="paint6_linear_3941_8926" x1="9.16602" y1="31.9069" x2="31.9974" y2="31.9069" gradientUnits="userSpaceOnUse">
<stop stop-color="#00C0F3"/>
<stop offset="0.27" stop-color="#00C0F3" stop-opacity="0.67"/>
<stop offset="0.53" stop-color="#00C0F3" stop-opacity="0.38"/>
<stop offset="0.75" stop-color="#00C0F3" stop-opacity="0.17"/>
<stop offset="0.91" stop-color="#00C0F3" stop-opacity="0.05"/>
<stop offset="1" stop-color="#00C0F3" stop-opacity="0"/>
</linearGradient>
<linearGradient id="paint7_linear_3941_8926" x1="4.79883" y1="36.9851" x2="31.9946" y2="36.9851" gradientUnits="userSpaceOnUse">
<stop stop-color="#00C0F3"/>
<stop offset="0.27" stop-color="#00C0F3" stop-opacity="0.67"/>
<stop offset="0.53" stop-color="#00C0F3" stop-opacity="0.38"/>
<stop offset="0.75" stop-color="#00C0F3" stop-opacity="0.17"/>
<stop offset="0.91" stop-color="#00C0F3" stop-opacity="0.05"/>
<stop offset="1" stop-color="#00C0F3" stop-opacity="0"/>
</linearGradient>
<linearGradient id="paint8_linear_3941_8926" x1="0.435547" y1="42.0625" x2="32.1463" y2="42.0625" gradientUnits="userSpaceOnUse">
<stop stop-color="#00C0F3"/>
<stop offset="0.27" stop-color="#00C0F3" stop-opacity="0.67"/>
<stop offset="0.53" stop-color="#00C0F3" stop-opacity="0.38"/>
<stop offset="0.75" stop-color="#00C0F3" stop-opacity="0.17"/>
<stop offset="0.91" stop-color="#00C0F3" stop-opacity="0.05"/>
<stop offset="1" stop-color="#00C0F3" stop-opacity="0"/>
</linearGradient>
<linearGradient id="paint9_linear_3941_8926" x1="24.6309" y1="26.0468" x2="54.1655" y2="26.0468" gradientUnits="userSpaceOnUse">
<stop stop-color="#00C0F3"/>
<stop offset="0.27" stop-color="#00C0F3" stop-opacity="0.67"/>
<stop offset="0.53" stop-color="#00C0F3" stop-opacity="0.38"/>
<stop offset="0.75" stop-color="#00C0F3" stop-opacity="0.17"/>
<stop offset="0.91" stop-color="#00C0F3" stop-opacity="0.05"/>
<stop offset="1" stop-color="#00C0F3" stop-opacity="0"/>
</linearGradient>
<linearGradient id="paint10_linear_3941_8926" x1="24.4406" y1="33.1782" x2="26.0307" y2="33.1782" gradientUnits="userSpaceOnUse">
<stop stop-color="#00C0F3"/>
<stop offset="0.27" stop-color="#00C0F3" stop-opacity="0.67"/>
<stop offset="0.53" stop-color="#00C0F3" stop-opacity="0.38"/>
<stop offset="0.75" stop-color="#00C0F3" stop-opacity="0.17"/>
<stop offset="0.91" stop-color="#00C0F3" stop-opacity="0.05"/>
<stop offset="1" stop-color="#00C0F3" stop-opacity="0"/>
</linearGradient>
<linearGradient id="paint11_linear_3941_8926" x1="28.0943" y1="39.1194" x2="29.6844" y2="39.1194" gradientUnits="userSpaceOnUse">
<stop stop-color="#00C0F3"/>
<stop offset="0.27" stop-color="#00C0F3" stop-opacity="0.67"/>
<stop offset="0.53" stop-color="#00C0F3" stop-opacity="0.38"/>
<stop offset="0.75" stop-color="#00C0F3" stop-opacity="0.17"/>
<stop offset="0.91" stop-color="#00C0F3" stop-opacity="0.05"/>
<stop offset="1" stop-color="#00C0F3" stop-opacity="0"/>
</linearGradient>
<linearGradient id="paint12_linear_3941_8926" x1="23.6456" y1="43.333" x2="25.2358" y2="43.333" gradientUnits="userSpaceOnUse">
<stop stop-color="#00C0F3"/>
<stop offset="0.27" stop-color="#00C0F3" stop-opacity="0.67"/>
<stop offset="0.53" stop-color="#00C0F3" stop-opacity="0.38"/>
<stop offset="0.75" stop-color="#00C0F3" stop-opacity="0.17"/>
<stop offset="0.91" stop-color="#00C0F3" stop-opacity="0.05"/>
<stop offset="1" stop-color="#00C0F3" stop-opacity="0"/>
</linearGradient>
<linearGradient id="paint13_linear_3941_8926" x1="9.68894" y1="47.9444" x2="9.68894" y2="46.6206" gradientUnits="userSpaceOnUse">
<stop stop-color="#00C0F3"/>
<stop offset="0.27" stop-color="#00C0F3" stop-opacity="0.67"/>
<stop offset="0.53" stop-color="#00C0F3" stop-opacity="0.38"/>
<stop offset="0.75" stop-color="#00C0F3" stop-opacity="0.17"/>
<stop offset="0.91" stop-color="#00C0F3" stop-opacity="0.05"/>
<stop offset="1" stop-color="#00C0F3" stop-opacity="0"/>
</linearGradient>
<linearGradient id="paint14_linear_3941_8926" x1="32.3036" y1="26.0464" x2="33.8937" y2="26.0464" gradientUnits="userSpaceOnUse">
<stop stop-color="#00C0F3"/>
<stop offset="0.27" stop-color="#00C0F3" stop-opacity="0.67"/>
<stop offset="0.53" stop-color="#00C0F3" stop-opacity="0.38"/>
<stop offset="0.75" stop-color="#00C0F3" stop-opacity="0.17"/>
<stop offset="0.91" stop-color="#00C0F3" stop-opacity="0.05"/>
<stop offset="1" stop-color="#00C0F3" stop-opacity="0"/>
</linearGradient>
<linearGradient id="paint15_linear_3941_8926" x1="28.2187" y1="21.1448" x2="28.2187" y2="19.8203" gradientUnits="userSpaceOnUse">
<stop stop-color="#00C0F3"/>
<stop offset="0.27" stop-color="#00C0F3" stop-opacity="0.67"/>
<stop offset="0.53" stop-color="#00C0F3" stop-opacity="0.38"/>
<stop offset="0.75" stop-color="#00C0F3" stop-opacity="0.17"/>
<stop offset="0.91" stop-color="#00C0F3" stop-opacity="0.05"/>
<stop offset="1" stop-color="#00C0F3" stop-opacity="0"/>
</linearGradient>
</defs>
</svg>
