<svg width="69" height="49" viewBox="0 0 69 49" fill="none" xmlns="http://www.w3.org/2000/svg">
<path d="M36.1371 24.0775C33.8221 22.4571 33.5987 22.2489 32.4283 20.0791L31.3164 22.35C36.0793 23.6914 40.1871 28.1913 43.7713 31.6022C47.4413 35.0952 54.2228 40.2381 55.2176 45.0854C56.5362 41.7475 58.5746 42.1776 60.9518 39.4887C53.0486 37.3037 41.8948 28.1077 36.1371 24.0775Z" fill="#2261A2"/>
<path d="M47.1934 48.5465C47.7618 46.987 49.7234 46.2543 51.2373 46.936C51.2267 46.7004 51.2153 46.4641 51.2046 46.2285C51.3468 45.1842 51.9251 44.2069 52.771 43.5784C53.6169 42.9506 54.7204 42.68 55.7608 42.8465C55.8505 41.6791 57.0688 40.7299 58.2225 40.9298C58.0294 40.1036 58.3593 39.1787 59.0311 38.6612C59.703 38.1436 60.6811 38.06 61.4312 38.4575C62.6259 37.7058 64.285 37.7818 65.406 38.6399C66.527 39.4979 67.0339 41.0795 66.6197 42.4292C68.4346 43.817 69.0897 46.5241 68.1108 48.589" fill="#41A2D3"/>
<path d="M29.8906 21.6804L33.0788 19.5114C34.2226 19.3609 34.8321 20.491 34.785 21.3042C35.2691 21.0527 35.9113 21.1507 36.2982 21.5345C36.6858 21.9191 36.7884 22.5598 36.5406 23.0462C37.1919 23.0788 37.7353 23.7514 37.6297 24.3952C37.5241 25.0389 36.7937 25.5025 36.1667 25.3246C35.7525 25.2076 35.4151 24.8648 34.9879 24.8162C34.5867 24.7706 34.2112 24.9933 33.8267 25.1164C32.8713 25.4212 31.7792 25.0784 31.058 24.3815C30.336 23.6838 29.9628 22.6806 29.8906 21.6804Z" fill="#2261A2"/>
<path d="M31.9373 20.3186C32.3082 20.4204 32.6578 20.599 32.961 20.8362C33.1586 20.9912 33.0408 21.3104 32.7893 21.3028H32.7824C33.17 21.5726 33.5394 21.8682 33.8882 22.1867C34.1109 22.3904 33.9597 22.7605 33.6587 22.7476C32.4777 22.6989 31.3141 22.2148 30.4629 21.3925L31.9373 20.3186Z" fill="#41A2D3"/>
<path d="M26.252 20.5852C26.252 20.589 26.252 20.5974 26.2527 20.6103C26.3044 22.0816 27.0241 23.4489 28.2036 24.3297L28.9439 24.8822L29.0199 22.6509L26.252 20.5852Z" fill="#2261A2"/>
<path d="M29.3848 16.3886C29.3886 16.3878 29.3962 16.3856 29.4091 16.3825C30.8151 16.0185 32.31 16.3141 33.4736 17.1828L34.2032 17.7277L32.1139 18.4262L29.3848 16.3886Z" fill="#2261A2"/>
<path d="M20.572 13.0802C20.8198 12.7481 22.1346 12.7777 23.9928 13.2809C25.8221 13.7764 27.0784 14.6679 27.0784 14.6679L33.2542 19.2757L32.0397 20.9029L31.3359 21.8461L30.1214 23.4732L24.5172 19.2917C23.9692 18.8828 23.46 18.4253 23.0002 17.9199C22.605 17.4852 22.1437 16.9273 21.7379 16.3019C20.6952 14.6937 20.3243 13.4123 20.572 13.0802Z" fill="#41A2D3"/>
<path d="M29.1504 22.6834C29.1565 22.6879 29.861 21.7653 30.7236 20.623C31.587 19.4807 32.2816 18.5505 32.2756 18.5459C32.2695 18.5414 31.565 19.464 30.7024 20.6063C29.839 21.7486 29.1444 22.6788 29.1504 22.6834Z" fill="#E1E1E1"/>
<path d="M29.3516 22.803C29.3577 22.8075 30.0622 21.8849 30.9248 20.7426C31.7882 19.6003 32.4828 18.6701 32.4767 18.6655C32.4706 18.661 31.7661 19.5836 30.9035 20.7259C30.0402 21.8689 29.3455 22.7984 29.3516 22.803Z" fill="#E1E1E1"/>
<path d="M29.5469 22.9548C29.553 22.9594 30.2575 22.0368 31.1201 20.8945C31.9835 19.7522 32.6781 18.822 32.672 18.8174C32.666 18.8128 31.9614 19.7355 31.0988 20.8778C30.2355 22.02 29.5408 22.9503 29.5469 22.9548Z" fill="#E1E1E1"/>
<path d="M29.7422 23.1055C29.7483 23.11 30.4528 22.1874 31.3154 21.0451C32.1788 19.9028 32.8727 18.9726 32.8673 18.968C32.8613 18.9635 32.1567 19.8861 31.2941 21.0284C30.4308 22.1707 29.7361 23.1009 29.7422 23.1055Z" fill="#E1E1E1"/>
<path d="M29.9375 23.2551C29.9436 23.2597 30.6481 22.3371 31.5107 21.1948C32.3741 20.0525 33.0687 19.1223 33.0627 19.1177C33.0566 19.1131 32.3521 20.0358 31.4895 21.1781C30.6261 22.3203 29.9315 23.2506 29.9375 23.2551Z" fill="#E1E1E1"/>
<path d="M27.8165 18.4991C27.8157 18.4998 27.8241 18.5082 27.8415 18.5249C27.859 18.5424 27.8864 18.5637 27.9213 18.5926C27.992 18.6496 28.0961 18.7301 28.2246 18.8274C28.483 19.0235 28.8432 19.2895 29.2422 19.5821C29.642 19.8739 30.0045 20.1361 30.2682 20.3246C30.3982 20.4166 30.5046 20.4926 30.5813 20.5465C30.6171 20.5708 30.6452 20.5906 30.6672 20.6058C30.687 20.6187 30.6976 20.6256 30.6984 20.6248C30.6991 20.624 30.6893 20.6157 30.6703 20.6012C30.649 20.5853 30.6216 20.564 30.5874 20.5382C30.5122 20.4819 30.4073 20.4044 30.2796 20.3094C30.0159 20.1164 29.6557 19.8519 29.2582 19.56C28.8599 19.269 28.4997 19.0052 28.236 18.8122C28.1075 18.7172 28.0027 18.6397 27.9274 18.5842C27.8917 18.5568 27.8621 18.5363 27.8446 18.5211C27.8271 18.5059 27.8172 18.4983 27.8165 18.4991Z" fill="#E1E1E1"/>
<path d="M26.252 20.5867C26.2581 20.5913 26.9588 19.6641 27.8176 18.515C28.6764 17.3659 29.3672 16.4318 29.3612 16.4273C29.3551 16.4227 28.6544 17.3499 27.7956 18.499C26.9375 19.6474 26.2459 20.5822 26.252 20.5867Z" fill="#E1E1E1"/>
<path d="M29.6019 20.3555C29.6019 20.3539 29.5874 20.3554 29.5646 20.3676C29.5426 20.3798 29.5122 20.4056 29.494 20.4489C29.475 20.4907 29.4719 20.5561 29.5122 20.607C29.5494 20.6572 29.6216 20.6921 29.6946 20.6731C29.7676 20.6519 29.8116 20.585 29.8185 20.5234C29.8268 20.4588 29.7911 20.4041 29.7539 20.3783C29.7159 20.3501 29.6771 20.3433 29.652 20.344C29.6262 20.3448 29.6133 20.3517 29.614 20.3524C29.6148 20.3547 29.6285 20.3524 29.652 20.3547C29.6756 20.357 29.7098 20.3669 29.7425 20.3935C29.7744 20.4193 29.8025 20.4664 29.7942 20.5204C29.7873 20.5728 29.7478 20.6298 29.6885 20.6465C29.6292 20.6625 29.5654 20.6336 29.5327 20.5918C29.4978 20.5493 29.4985 20.4945 29.513 20.4565C29.5274 20.417 29.5525 20.3912 29.5715 20.3775C29.5897 20.3623 29.6026 20.3577 29.6019 20.3555Z" fill="#E1E1E1"/>
<path d="M28.3929 19.4868C28.3929 19.4853 28.3784 19.4868 28.3556 19.499C28.3336 19.5111 28.3032 19.537 28.285 19.5803C28.266 19.6221 28.2629 19.6874 28.3032 19.7384C28.3404 19.7885 28.4126 19.8235 28.4856 19.8045C28.5586 19.7832 28.6026 19.7163 28.6095 19.6548C28.6178 19.5902 28.5821 19.5354 28.5449 19.5096C28.5069 19.4815 28.4681 19.4746 28.443 19.4754C28.4172 19.4762 28.4043 19.483 28.405 19.4838C28.4058 19.486 28.4195 19.4838 28.443 19.486C28.4666 19.4883 28.5008 19.4982 28.5335 19.5248C28.5654 19.5506 28.5935 19.5978 28.5852 19.6517C28.5783 19.7042 28.5388 19.7612 28.4795 19.7779C28.4202 19.7938 28.3564 19.765 28.3237 19.7232C28.2888 19.6806 28.2895 19.6259 28.304 19.5879C28.3184 19.5484 28.3435 19.5225 28.3625 19.5088C28.3807 19.4944 28.3936 19.4891 28.3929 19.4868Z" fill="#E1E1E1"/>
<path d="M34.1215 23.376C34.2568 23.325 34.427 23.3995 34.481 23.534C34.5349 23.6686 34.4627 23.8396 34.3297 23.8958C34.196 23.952 34.0234 23.8836 33.9649 23.7506C33.9064 23.6184 33.9718 23.4444 34.1032 23.3836" fill="#41A2D3"/>
<path d="M23.4306 16.6937C23.6936 17.4294 24.5022 17.8124 25.2379 17.5495C25.9736 17.2865 26.3566 16.4779 26.0936 15.7422C25.8307 15.0065 25.022 14.6234 24.2864 14.8864C23.5507 15.1494 23.1676 15.9588 23.4306 16.6937Z" fill="white"/>
<path d="M23.4304 16.694C23.4387 16.6917 23.3886 16.5755 23.3681 16.3528C23.3483 16.1347 23.3772 15.7934 23.5968 15.4598C23.7063 15.2956 23.8598 15.1353 24.0619 15.0205C24.2633 14.908 24.5073 14.8282 24.7687 14.8343C24.8987 14.8335 25.0325 14.8541 25.1624 14.8943C25.2931 14.9323 25.4208 14.9924 25.5363 15.0729C25.7727 15.2287 25.9612 15.4712 26.0645 15.7524C26.1633 16.0359 26.1709 16.3421 26.0866 16.6135C26.0478 16.7495 25.987 16.8764 25.9103 16.9889C25.835 17.1021 25.7453 17.2032 25.6443 17.2845C25.4459 17.4548 25.2065 17.5483 24.9793 17.5885C24.7497 17.6281 24.5293 17.6007 24.3409 17.5437C23.9593 17.4244 23.7207 17.1789 23.5983 16.9973C23.4729 16.8126 23.438 16.691 23.4304 16.694C23.4281 16.6948 23.438 16.7244 23.4593 16.7799C23.4691 16.808 23.4828 16.8422 23.5041 16.8802C23.5239 16.919 23.5459 16.9646 23.5786 17.0109C23.6971 17.1994 23.9365 17.4563 24.3279 17.5855C24.521 17.6478 24.7497 17.6782 24.9876 17.6395C25.224 17.5999 25.4725 17.5049 25.6807 17.3286C25.7864 17.2443 25.8806 17.1394 25.9597 17.0216C26.0402 16.9045 26.1041 16.7723 26.1451 16.6309C26.2333 16.349 26.2264 16.0283 26.1231 15.7319C26.0151 15.4377 25.8175 15.1854 25.5705 15.0228C25.4489 14.9392 25.3159 14.8769 25.1799 14.8373C25.0446 14.7963 24.9055 14.775 24.7695 14.7765C24.4974 14.772 24.2443 14.8563 24.0369 14.9757C23.8279 15.0965 23.6713 15.2645 23.5611 15.4355C23.3399 15.7828 23.3179 16.1339 23.3453 16.3551C23.3491 16.4121 23.3612 16.4607 23.3703 16.5033C23.3779 16.5458 23.3893 16.5815 23.3992 16.6089C23.4175 16.6659 23.4281 16.6948 23.4304 16.694Z" fill="#E1E1E1"/>
<path d="M20.572 13.0802C20.8198 12.7481 22.1346 12.7777 23.9928 13.2809L21.7386 16.3019C20.6952 14.6937 20.3243 13.4123 20.572 13.0802Z" fill="#2261A2"/>
<path d="M20.5721 13.0802C20.5721 13.0802 20.5592 13.1007 20.5349 13.1432C20.5159 13.1881 20.4984 13.2595 20.4931 13.3545C20.4847 13.5453 20.5349 13.825 20.6458 14.1692C20.8723 14.857 21.342 15.8109 22.1111 16.8733C22.5025 17.3985 22.9654 17.9541 23.5278 18.4906C23.8097 18.7574 24.1168 19.0196 24.4481 19.2704C24.7802 19.5189 25.123 19.775 25.4749 20.0387C26.8839 21.0913 28.445 22.2579 30.104 23.4967L30.1284 23.515L30.1466 23.4906C30.6497 22.8173 31.1764 22.1112 31.713 21.3923C32.2495 20.6733 32.7762 19.9673 33.2786 19.2932L33.2968 19.2688L33.2725 19.2506C31.6119 18.0126 30.0486 16.8483 28.6388 15.7972C28.2861 15.535 27.9434 15.2789 27.6105 15.0319C27.444 14.908 27.2806 14.7864 27.1195 14.6663C26.9538 14.5485 26.7851 14.4474 26.6164 14.3494C25.9423 13.9618 25.2773 13.6768 24.6579 13.4625C24.0354 13.2557 23.4601 13.1182 22.9524 13.0194C22.4448 12.9228 22.0032 12.8666 21.6407 12.8545C21.2789 12.8423 20.9962 12.8689 20.8146 12.9274C20.7705 12.9457 20.7302 12.9578 20.699 12.976C20.6686 12.9958 20.6413 13.0087 20.623 13.0255C20.5888 13.0619 20.5721 13.0802 20.5721 13.0802C20.5721 13.0802 20.5911 13.0642 20.6261 13.0308C20.6443 13.0156 20.6724 13.0027 20.7021 12.9844C20.7332 12.9669 20.7735 12.9563 20.8176 12.9388C20.9985 12.8841 21.2797 12.8605 21.6392 12.8765C21.9994 12.8917 22.4394 12.951 22.9456 13.0505C23.451 13.1524 24.0248 13.2922 24.6442 13.5012C25.2606 13.7163 25.9225 14.0036 26.5921 14.3912C26.7585 14.4885 26.928 14.5911 27.0899 14.7066C27.251 14.8267 27.4144 14.949 27.5801 15.0736C27.9122 15.3222 28.255 15.5783 28.6068 15.8412C30.0159 16.8938 31.5769 18.0605 33.236 19.3L33.2299 19.2575C32.7268 19.9308 32.2001 20.6376 31.6636 21.3566C31.127 22.0755 30.6003 22.7816 30.098 23.4549L30.1405 23.4489C28.4799 22.2116 26.9174 21.0473 25.5076 19.9962C25.1549 19.734 24.8122 19.4778 24.4793 19.2301C24.1487 18.9816 23.8432 18.7209 23.5612 18.4564C22.9996 17.9244 22.5367 17.3711 22.1438 16.8498C21.3732 15.7941 20.8982 14.8449 20.6671 14.1632C20.5531 13.8212 20.5007 13.5438 20.5052 13.3553C20.5083 13.2611 20.5242 13.1911 20.541 13.1455C20.5622 13.103 20.5721 13.0802 20.5721 13.0802Z" fill="#E1E1E1"/>
<path d="M24.8772 17.2707C24.8855 17.2699 24.8779 17.1605 24.8536 16.9865C24.8293 16.8124 24.7867 16.573 24.7343 16.3101C24.6834 16.0593 24.637 15.8328 24.5975 15.6382C24.5618 15.4665 24.5397 15.3601 24.5306 15.3616C24.5223 15.3623 24.5299 15.4718 24.5542 15.6458C24.5785 15.8199 24.6211 16.0593 24.6735 16.3222C24.7244 16.573 24.7708 16.7995 24.8103 16.9941C24.8468 17.1651 24.8688 17.2715 24.8772 17.2707Z" fill="#E1E1E1"/>
<path d="M25.1277 16.9377C25.1444 16.9355 25.1133 16.6581 25.057 16.3176C25.0016 15.9771 24.9423 15.7043 24.9263 15.7073C24.9096 15.7103 24.9415 15.9877 24.997 16.3275C25.0517 16.6672 25.111 16.94 25.1277 16.9377Z" fill="#E1E1E1"/>
<path d="M59.6523 35.5747L56.667 34.1208C56.4611 34.0205 56.3752 33.772 56.4755 33.5653L58.488 29.4332C58.5883 29.2272 58.8368 29.1413 59.0436 29.2416L60.9367 30.1635L61.6663 32.388L60.2079 35.3832C60.1068 35.5899 59.8583 35.675 59.6523 35.5747Z" fill="#41A2D3"/>
<path d="M60.9354 30.1643L60.3692 31.3271C60.2757 31.5186 60.3555 31.7504 60.547 31.8439L61.665 32.3888L60.9354 30.1643Z" fill="#41A2D3"/>
<path d="M60.1428 31.1571C60.1352 31.1723 59.8205 31.0333 59.439 30.8478C59.0575 30.6624 58.7543 30.4997 58.7619 30.4845C58.7695 30.4693 59.0841 30.6077 59.4656 30.7939C59.8464 30.9793 60.1496 31.1419 60.1428 31.1571Z" fill="white"/>
<path d="M60.7146 32.2491C60.707 32.2643 60.1925 32.0287 59.5648 31.7224C58.937 31.4169 58.4339 31.157 58.4415 31.1418C58.4491 31.1266 58.9636 31.3622 59.5914 31.6685C60.2191 31.974 60.7222 32.2339 60.7146 32.2491Z" fill="white"/>
<path d="M60.6515 32.8979C60.6439 32.9131 60.0838 32.6547 59.3998 32.3218C58.7158 31.9882 58.1671 31.7062 58.1739 31.6918C58.1815 31.6766 58.7416 31.935 59.4264 32.2679C60.1096 32.6008 60.6583 32.8835 60.6515 32.8979Z" fill="white"/>
<path d="M60.3995 33.4157C60.3919 33.4309 59.8318 33.1725 59.1478 32.8397C58.4638 32.5068 57.9151 32.2241 57.9219 32.2096C57.9295 32.1944 58.4897 32.4528 59.1744 32.7857C59.8577 33.1186 60.4064 33.4005 60.3995 33.4157Z" fill="white"/>
<path d="M60.1476 33.9338C60.14 33.949 59.5799 33.6906 58.8959 33.3577C58.2119 33.0241 57.6631 32.7421 57.67 32.7277C57.6776 32.7125 58.2377 32.9709 58.9225 33.3038C59.6057 33.6366 60.1552 33.9194 60.1476 33.9338Z" fill="white"/>
<path d="M59.8956 34.4514C59.888 34.4666 59.3279 34.2082 58.6439 33.8753C57.9599 33.5424 57.4112 33.2597 57.418 33.2453C57.4256 33.2301 57.9858 33.4885 58.6705 33.8213C59.3545 34.1542 59.9032 34.4362 59.8956 34.4514Z" fill="white"/>
<path d="M36.0037 4.62305H34.1934V10.2767H36.0037V4.62305Z" fill="#2261A2"/>
<path d="M38.7068 5.91504H36.8965V10.2774H38.7068V5.91504Z" fill="#2261A2"/>
<path d="M41.2088 7.68579H39.3984V10.2766H41.2088V7.68579Z" fill="#2261A2"/>
<path d="M56.8579 22.0144C56.8237 19.8606 58.5398 18.0799 60.6838 18.0457C62.8277 18.0107 64.6 19.7352 64.6342 21.889C64.6684 24.0428 62.9524 25.8235 60.8084 25.8577C58.6644 25.8927 56.8921 24.169 56.8579 22.0144ZM62.605 21.9217C62.5883 20.8919 61.7409 20.0673 60.7164 20.084C59.6912 20.1007 58.8704 20.9519 58.8871 21.9817C58.9038 23.0115 59.7512 23.8361 60.7765 23.8194C61.801 23.8034 62.6218 22.9522 62.605 21.9217Z" fill="#002680"/>
<path d="M56.8618 22.0139C56.8276 19.86 58.5437 18.0794 60.6877 18.0452L60.7204 20.0835C59.6951 20.1002 58.8743 20.9514 58.891 21.9812C58.9078 23.011 59.7552 23.8356 60.7804 23.8189L60.8131 25.8572C58.6683 25.8914 56.896 24.1677 56.8618 22.0139Z" fill="#5FCAFF"/>
<path d="M60.3379 17.7321C62.8459 17.6918 64.847 19.6381 64.8872 22.1583L62.513 22.1963C62.494 20.9917 61.5767 20.2332 60.3774 20.2522L60.3379 17.7321Z" fill="#002680"/>
<path d="M60.3379 17.7321C62.8459 17.6918 64.847 19.6381 64.8872 22.1583L62.513 22.1963C62.494 20.9917 61.5767 20.2332 60.3774 20.2522L60.3379 17.7321Z" fill="url(#paint0_linear_3941_9778)"/>
<path d="M35.8886 33.5859H28.9688V48.4865H35.8886V33.5859Z" fill="#002680"/>
<g opacity="0.3">
<path d="M35.8889 33.5859H33.7441V48.4865H35.8889V33.5859Z" fill="black"/>
</g>
<path d="M33.7445 48.4872C33.7285 48.4872 33.7148 45.1888 33.7148 41.1213C33.7148 37.0523 33.7278 33.7546 33.7445 33.7546C33.7604 33.7546 33.7741 37.0523 33.7741 41.1213C33.7734 45.1888 33.7604 48.4872 33.7445 48.4872Z" fill="#1A2E35"/>
<path d="M27.4432 28.3328H20.5234V48.4857H27.4432V28.3328Z" fill="#002680"/>
<g opacity="0.3">
<path d="M27.4416 28.3328H25.2969V48.4857H27.4416V28.3328Z" fill="black"/>
</g>
<path d="M25.2972 48.4865C25.2813 48.4865 25.2676 44.0253 25.2676 38.5244C25.2676 33.0212 25.2805 28.5608 25.2972 28.5608C25.3132 28.5608 25.3269 33.0205 25.3269 38.5244C25.3269 44.0253 25.3139 48.4865 25.2972 48.4865Z" fill="#1A2E35"/>
<path d="M44.4257 37.9224H37.5059V48.4848H44.4257V37.9224Z" fill="#002680"/>
<g opacity="0.3">
<path d="M44.424 37.9224H42.2793V48.4848H44.424V37.9224Z" fill="black"/>
</g>
<path d="M42.2796 48.4856C42.2637 48.4856 42.25 46.1479 42.25 43.2644C42.25 40.3802 42.2629 38.0425 42.2796 38.0425C42.2956 38.0425 42.3093 40.3802 42.3093 43.2644C42.3093 46.1471 42.2964 48.4856 42.2796 48.4856Z" fill="#1A2E35"/>
<path d="M52.7792 42.7227H45.8594V48.4865H52.7792V42.7227Z" fill="#002680"/>
<g opacity="0.3">
<path d="M52.7775 42.7227H50.6328V48.4865H52.7775V42.7227Z" fill="black"/>
</g>
<path d="M50.6332 48.4868C50.6172 48.4868 50.6035 47.2108 50.6035 45.6376C50.6035 44.0636 50.6164 42.7883 50.6332 42.7883C50.6491 42.7883 50.6628 44.0636 50.6628 45.6376C50.6628 47.2108 50.6491 48.4868 50.6332 48.4868Z" fill="#1A2E35"/>
<path d="M61.2245 44.7168H54.3047V48.4864H61.2245V44.7168Z" fill="#002680"/>
<g opacity="0.3">
<path d="M61.2228 44.7168H59.0781V48.4864H61.2228V44.7168Z" fill="black"/>
</g>
<path d="M59.0785 48.4863C59.0625 48.4863 59.0488 47.6518 59.0488 46.6228C59.0488 45.5938 59.0617 44.7593 59.0785 44.7593C59.0944 44.7593 59.1081 45.5938 59.1081 46.6228C59.1081 47.6518 59.0952 48.4863 59.0785 48.4863Z" fill="#1A2E35"/>
<path d="M18.9979 21.7073H12.0781V48.4821H18.9979V21.7073Z" fill="#002680"/>
<g opacity="0.3">
<path d="M18.9982 21.7073H16.8535V48.4821H18.9982V21.7073Z" fill="black"/>
</g>
<path d="M16.8539 48.5903C16.8379 48.5903 16.8242 42.6395 16.8242 35.3002C16.8242 27.9586 16.8371 22.0093 16.8539 22.0093C16.8698 22.0093 16.8835 27.9586 16.8835 35.3002C16.8835 42.6395 16.8698 48.5903 16.8539 48.5903Z" fill="#1A2E35"/>
<path d="M10.5526 16.2725H3.63281V48.5899H10.5526V16.2725Z" fill="#002680"/>
<g opacity="0.3">
<path d="M10.5529 16.2725H8.4082V48.5899H10.5529V16.2725Z" fill="black"/>
</g>
<path d="M8.40855 48.5902C8.39259 48.5902 8.37891 41.437 8.37891 32.6142C8.37891 23.7891 8.39183 16.6367 8.40855 16.6367C8.42451 16.6367 8.43819 23.7883 8.43819 32.6142C8.43743 41.4363 8.42451 48.5902 8.40855 48.5902Z" fill="#1A2E35"/>
<path d="M9.76723 12.8731C11.4848 11.1555 11.4848 8.37083 9.76723 6.65327C8.04968 4.93572 5.26497 4.93572 3.54741 6.65327C1.82985 8.37083 1.82986 11.1555 3.54741 12.8731C5.26497 14.5907 8.04968 14.5907 9.76723 12.8731Z" fill="#002680"/>
<path opacity="0.3" d="M9.76723 12.8731C11.4848 11.1555 11.4848 8.37083 9.76723 6.65327C8.04968 4.93572 5.26497 4.93572 3.54741 6.65327C1.82985 8.37083 1.82986 11.1555 3.54741 12.8731C5.26497 14.5907 8.04968 14.5907 9.76723 12.8731Z" fill="black"/>
<path d="M9.76723 12.3873C11.4848 10.6697 11.4848 7.88499 9.76723 6.16743C8.04968 4.44988 5.26497 4.44988 3.54741 6.16743C1.82985 7.88499 1.82985 10.6697 3.54741 12.3873C5.26497 14.1048 8.04968 14.1048 9.76723 12.3873Z" fill="#002680"/>
<path d="M6.6567 12.2238C8.2836 12.2238 9.60246 10.9049 9.60246 9.27803C9.60246 7.65114 8.2836 6.33228 6.6567 6.33228C5.0298 6.33228 3.71094 7.65114 3.71094 9.27803C3.71094 10.9049 5.0298 12.2238 6.6567 12.2238Z" fill="white"/>
<path d="M7.67746 10.2968C8.24048 9.73376 8.24048 8.82093 7.67746 8.2579C7.11444 7.69488 6.2016 7.69488 5.63858 8.2579C5.07556 8.82092 5.07556 9.73376 5.63858 10.2968C6.2016 10.8598 7.11444 10.8598 7.67746 10.2968Z" fill="#002680"/>
<path d="M10.1935 5.55382L10.0742 4.61522L11.0295 3.59302L11.0979 4.60534L10.1935 5.55382Z" fill="#002680"/>
<path d="M12.245 4.80655L11.276 4.72827L10.3047 5.66231L11.276 5.76643L12.245 4.80655Z" fill="#002680"/>
<path d="M10.1935 5.55382L10.0742 4.61522L11.0295 3.59302L11.0979 4.60534L10.1935 5.55382Z" fill="url(#paint1_linear_3941_9778)"/>
<path d="M12.245 4.80655L11.276 4.72827L10.3047 5.66231L11.276 5.76643L12.245 4.80655Z" fill="url(#paint2_linear_3941_9778)"/>
<path opacity="0.3" d="M6.85156 9.25658L10.2146 6.6893C10.1006 6.5183 9.9554 6.3473 9.79352 6.17554L6.85156 9.02782V9.25658Z" fill="black"/>
<path d="M11.1868 4.35501C10.6722 4.87637 10.1585 5.39697 9.64396 5.91833C8.82772 6.74521 8.01224 7.57209 7.196 8.39821C7.00828 8.58821 6.82056 8.77821 6.6336 8.96821C6.455 9.14909 6.73392 9.42801 6.91252 9.24713C7.42704 8.72577 7.9408 8.20517 8.45532 7.68382C9.27156 6.85694 10.087 6.03005 10.9033 5.20393C11.091 5.01393 11.2787 4.82393 11.4657 4.63393C11.6435 4.45305 11.3646 4.17413 11.1868 4.35501Z" fill="#002680"/>
<path d="M11.1868 4.35501C10.6722 4.87637 10.1585 5.39697 9.64396 5.91833C8.82772 6.74521 8.01224 7.57209 7.196 8.39821C7.00828 8.58821 6.82056 8.77821 6.6336 8.96821C6.455 9.14909 6.73392 9.42801 6.91252 9.24713C7.42704 8.72577 7.9408 8.20517 8.45532 7.68382C9.27156 6.85694 10.087 6.03005 10.9033 5.20393C11.091 5.01393 11.2787 4.82393 11.4657 4.63393C11.6435 4.45305 11.3646 4.17413 11.1868 4.35501Z" fill="url(#paint3_linear_3941_9778)"/>
<path d="M6.65822 3.75896C6.64302 3.75896 6.63086 2.91764 6.63086 1.87948C6.63086 0.84132 6.64302 0 6.65822 0C6.67342 0 6.68558 0.84132 6.68558 1.87948C6.68558 2.91764 6.67342 3.75896 6.65822 3.75896Z" fill="#002680"/>
<path d="M9.49793 1.79654C9.51009 1.80566 9.20913 2.22746 8.82685 2.73894C8.44381 3.25042 8.12384 3.65778 8.11168 3.64866C8.09952 3.63954 8.39972 3.21774 8.78276 2.70626C9.1658 2.19478 9.48653 1.78742 9.49793 1.79654Z" fill="#002680"/>
<path d="M3.78376 1.71079C3.79668 1.70319 4.05812 2.15083 4.36668 2.71019C4.67524 3.26955 4.91464 3.72935 4.90172 3.73619C4.8888 3.74379 4.62736 3.29615 4.3188 2.73603C4.00948 2.17743 3.77008 1.71839 3.78376 1.71079Z" fill="#002680"/>
<path d="M50.7285 13.2377L51.5676 13.1397C51.9058 13.4832 52.3397 13.7401 52.8421 13.864C54.2868 14.2189 55.746 13.3358 56.101 11.891C56.4559 10.4463 55.5728 8.98706 54.128 8.63214C52.6832 8.27722 51.224 9.16034 50.8691 10.6051C50.7209 11.2085 50.7893 11.8135 51.0234 12.3409L51.0226 12.3394L50.7285 13.2377Z" fill="white"/>
<path d="M50.7285 13.2377C50.7285 13.2377 50.7331 13.2195 50.7452 13.1815C50.7582 13.1404 50.7756 13.0842 50.7984 13.0105C50.8478 12.8547 50.9193 12.6289 51.012 12.3356L51.0188 12.3143L51.0333 12.331C51.0333 12.331 51.034 12.3318 51.034 12.3325L51.0135 12.3455C50.8684 12.0225 50.7399 11.5672 50.7832 11.0253C50.8022 10.7555 50.8706 10.4683 50.9915 10.184C51.1116 9.89903 51.2894 9.61631 51.528 9.36779C51.7659 9.11851 52.0654 8.90419 52.4096 8.75523C52.7539 8.60551 53.143 8.52267 53.5451 8.53027C54.3469 8.53787 55.195 8.94979 55.7035 9.67483C55.9604 10.0434 56.1321 10.4652 56.1823 10.8954C56.237 11.324 56.1884 11.7542 56.0554 12.141C55.9239 12.5294 55.7004 12.8699 55.4344 13.1427C55.1669 13.4155 54.8538 13.62 54.5316 13.7537C53.8825 14.022 53.2137 14.0061 52.6984 13.8427C52.1771 13.6823 51.8024 13.3973 51.5615 13.1488L51.5714 13.1518C51.2985 13.1807 51.0872 13.2027 50.9421 13.2179C50.8737 13.2248 50.8212 13.2301 50.7832 13.2339C50.7452 13.2369 50.7285 13.2377 50.7285 13.2377C50.7285 13.2377 50.7483 13.2339 50.7848 13.2293C50.8235 13.224 50.8775 13.2172 50.9466 13.2081C51.0895 13.1898 51.297 13.1632 51.566 13.1283L51.5714 13.1275L51.5752 13.1313C51.8176 13.3745 52.1908 13.6527 52.706 13.8069C53.2152 13.9643 53.8734 13.9764 54.511 13.7097C54.828 13.5767 55.135 13.3745 55.3964 13.1062C55.6571 12.8379 55.8752 12.5035 56.0037 12.122C56.1336 11.742 56.1815 11.321 56.1268 10.9007C56.0774 10.4797 55.9094 10.0662 55.6571 9.70523C55.1593 8.99539 54.3294 8.59107 53.5428 8.58195C53.1491 8.57359 52.7668 8.65415 52.4286 8.80007C52.0897 8.94523 51.7956 9.15575 51.5607 9.39895C51.3251 9.64291 51.1496 9.91955 51.0295 10.2C50.9086 10.4797 50.8395 10.7624 50.819 11.0284C50.7726 11.5627 50.895 12.0133 51.0348 12.3356L51.0705 12.4169L51.015 12.3485C51.015 12.3477 51.0143 12.347 51.0143 12.347L51.0348 12.3432C50.9368 12.6312 50.8615 12.8531 50.8098 13.0051C50.784 13.0789 50.765 13.1366 50.7506 13.1777C50.7361 13.2172 50.7285 13.2377 50.7285 13.2377Z" fill="#1A2E35"/>
<path d="M52.1602 11.3499L52.4915 10.995L53.174 11.5612L54.4318 10.2654L54.7624 10.5983L53.1474 12.2254L52.1602 11.3499Z" fill="#002680"/>
<path d="M15.7227 17.4401L16.0601 17.4006C16.1961 17.5389 16.3709 17.6423 16.5731 17.6917C17.1545 17.8346 17.7412 17.4789 17.8841 16.8982C18.027 16.3168 17.6713 15.7301 17.0907 15.5872C16.5093 15.4444 15.9225 15.8 15.7797 16.3807C15.7204 16.6231 15.7477 16.8671 15.842 17.0791L15.8412 17.0784L15.7227 17.4401Z" fill="white"/>
<path d="M15.7227 17.4405C15.7227 17.4405 15.7249 17.4329 15.7295 17.4177C15.7348 17.4009 15.7417 17.3781 15.7508 17.3493C15.7705 17.2869 15.7994 17.1957 15.8367 17.0779L15.8397 17.0696L15.8458 17.0764C15.8458 17.0764 15.8458 17.0764 15.8465 17.0772L15.8382 17.0825C15.7797 16.9526 15.728 16.7694 15.7455 16.5513C15.7531 16.4426 15.7804 16.3271 15.8291 16.2123C15.8777 16.0975 15.9491 15.9843 16.0449 15.884C16.1407 15.7837 16.2607 15.6978 16.3998 15.6378C16.5381 15.5777 16.6947 15.5443 16.8566 15.5473C17.1796 15.5503 17.5201 15.716 17.7245 16.0079C17.8279 16.1561 17.897 16.3255 17.9168 16.4988C17.9388 16.6713 17.9191 16.8439 17.8659 16.9997C17.8127 17.1562 17.723 17.293 17.6158 17.4025C17.5087 17.5127 17.3825 17.5947 17.2525 17.6487C16.9911 17.7566 16.7221 17.7505 16.5153 17.6844C16.3056 17.6198 16.1551 17.5051 16.0578 17.4055L16.0616 17.407C15.9514 17.4184 15.8671 17.4276 15.8085 17.4336C15.7812 17.4367 15.7599 17.4382 15.7447 17.4397C15.7287 17.4405 15.7227 17.4405 15.7227 17.4405C15.7227 17.4405 15.731 17.4389 15.7455 17.4374C15.7614 17.4351 15.7827 17.4329 15.8108 17.4291C15.8686 17.4215 15.9522 17.4108 16.0601 17.3971H16.0624L16.0639 17.3987C16.1612 17.4967 16.3117 17.6084 16.5191 17.6708C16.7243 17.7338 16.9888 17.7391 17.2449 17.632C17.3726 17.5788 17.4957 17.4975 17.6014 17.3888C17.7063 17.2809 17.7937 17.1463 17.8453 16.9928C17.8978 16.8401 17.9168 16.6706 17.8947 16.5019C17.875 16.3324 17.8073 16.166 17.7055 16.0208C17.5049 15.735 17.1712 15.5724 16.8551 15.5686C16.697 15.5655 16.5427 15.5975 16.4067 15.656C16.2706 15.7145 16.1521 15.7989 16.0571 15.8969C15.9621 15.995 15.8914 16.1067 15.8435 16.2191C15.7949 16.3316 15.7675 16.4456 15.7591 16.552C15.7401 16.7671 15.7895 16.9487 15.8458 17.0779L15.8602 17.1106L15.8374 17.0833L15.8367 17.0825L15.845 17.081C15.8055 17.1965 15.7751 17.2862 15.7546 17.3478C15.7447 17.3774 15.7363 17.4002 15.731 17.4169C15.7257 17.4321 15.7227 17.4405 15.7227 17.4405Z" fill="#1A2E35"/>
<path d="M16.2988 16.6816L16.4326 16.5387L16.7069 16.7667L17.2131 16.2454L17.3461 16.3791L16.6963 17.0342L16.2988 16.6816Z" fill="#002680"/>
<path d="M38.7524 15.0893C38.5601 14.8757 38.3055 14.6773 38.2424 14.6386C38.1216 14.5641 37.9361 14.5215 37.9361 14.5215C37.9361 14.5215 36.3736 14.0906 36.0452 14.0617C35.7169 14.0329 35.7504 14.3011 36.0551 14.3513C36.3606 14.4022 37.0089 14.6644 37.0089 14.6644C37.0089 14.6644 36.8744 14.6872 36.8653 14.8263C36.8562 14.9654 36.9527 14.995 36.9527 14.995C36.9527 14.995 36.8668 15.1067 36.8668 15.1812C36.8668 15.2557 36.942 15.3636 36.942 15.3636C36.942 15.3636 36.8288 15.4556 36.8645 15.5597C36.9002 15.6638 37.0614 15.8097 37.0614 15.8097C37.0614 15.8097 37.7294 16.2323 37.873 16.2437C38.0167 16.2551 38.1839 16.287 38.1839 16.287L38.4187 16.4573L39.0495 15.4685C39.0503 15.4685 38.9568 15.3157 38.7524 15.0893Z" fill="#FFC19D"/>
<path d="M37.0098 14.6582C37.009 14.6628 37.0691 14.6795 37.1443 14.6947C37.2195 14.7099 37.2819 14.719 37.2834 14.7137C37.2841 14.7091 37.2241 14.6924 37.1489 14.6772C37.0729 14.662 37.0105 14.6537 37.0098 14.6582Z" fill="#FF9C6A"/>
<path d="M36.9434 14.9936C36.9419 14.9981 37.0019 15.0149 37.0741 15.0369C37.1471 15.0582 37.2056 15.0772 37.2079 15.0726C37.2101 15.0681 37.1539 15.0422 37.0802 15.0202C37.0065 14.9981 36.9441 14.989 36.9434 14.9936Z" fill="#FF9C6A"/>
<path d="M36.9063 15.3096C36.9048 15.3142 36.9694 15.3385 37.0476 15.3712C37.1259 15.4031 37.1882 15.432 37.1913 15.4274C37.1943 15.4236 37.1358 15.3879 37.056 15.3552C36.977 15.3225 36.9078 15.3058 36.9063 15.3096Z" fill="#FF9C6A"/>
<path d="M50.3412 30.4927C50.3412 30.4927 50.063 27.9406 49.4657 27.6571C48.8683 27.3736 48.0399 27.1874 47.8134 27.569C47.5877 27.9512 47.3521 28.5266 47.2624 29.1368C47.172 29.7471 47.2237 30.6804 47.2237 30.6804L47.9046 30.6044C47.9046 30.6044 47.8712 28.0607 48.0779 27.6852C48.2846 27.309 49.3334 27.6115 49.4482 28.0645C49.563 28.5174 49.8145 30.5504 49.8145 30.5504L50.3412 30.4927Z" fill="#375A64"/>
<path d="M52.7148 34.09C52.6829 33.0374 52.5826 30.7164 52.537 29.6957C52.5248 29.4176 52.2945 29.1987 52.0164 29.2002L45.757 29.2374C45.4773 29.239 45.2501 29.4616 45.2417 29.7413L45.1194 34.0642C45.111 34.3553 45.3443 34.5962 45.6354 34.597L52.195 34.6236C52.4876 34.6251 52.7232 34.3826 52.7148 34.09Z" fill="#375A64"/>
<path d="M45.6773 30.8242C45.6773 30.8242 45.6765 30.8394 45.6758 30.8706C45.6758 30.904 45.6758 30.9504 45.6758 31.0097C45.6765 31.1351 45.6765 31.3167 45.6773 31.5493C45.6803 32.0227 45.6841 32.7045 45.6895 33.5465C45.6902 33.599 45.6902 33.6529 45.691 33.7069C45.6887 33.7601 45.6978 33.8224 45.7275 33.8726C45.7563 33.9235 45.8012 33.9661 45.8567 33.9911C45.9106 34.0185 45.976 34.0177 46.0307 34.017C46.2602 34.017 46.4989 34.0162 46.7466 34.0162C47.2414 34.0155 47.7696 34.0147 48.3259 34.0132C48.8822 34.0117 49.4659 34.0109 50.0709 34.0094C50.3733 34.0086 50.6811 34.0079 50.9943 34.0071C51.1508 34.0063 51.3081 34.0063 51.4662 34.0056H51.5855C51.6243 34.0048 51.6661 34.0086 51.7094 33.998C51.7938 33.9782 51.869 33.9189 51.9055 33.8391C51.9215 33.8049 51.9306 33.7685 51.9321 33.7305C51.9336 33.6932 51.9313 33.6605 51.9306 33.6256C51.9291 33.5572 51.9275 33.4888 51.926 33.4204C51.923 33.2843 51.9199 33.1483 51.9177 33.0138C51.9116 32.7447 51.9063 32.4787 51.9009 32.2173C51.8895 31.6944 51.8789 31.1883 51.8683 30.7057L51.8675 30.6829L51.8447 30.6844C50.0465 30.7938 48.5037 30.8242 47.4116 30.8288C46.8659 30.8311 46.432 30.8288 46.1356 30.8265C45.9881 30.8257 45.8734 30.825 45.7936 30.8242C45.7563 30.8242 45.7282 30.8242 45.7069 30.8242C45.6864 30.8242 45.6765 30.8242 45.6773 30.8242C45.6781 30.825 45.6879 30.825 45.7085 30.8265C45.7297 30.8273 45.7594 30.8288 45.7966 30.8303C45.8757 30.8326 45.9881 30.8364 46.1348 30.8402C46.432 30.847 46.8652 30.8539 47.4116 30.8554C48.5037 30.8584 50.0473 30.8341 51.8477 30.7277L51.8242 30.7064C51.8341 31.1898 51.8447 31.6952 51.8553 32.2181C51.8607 32.4795 51.866 32.7455 51.8721 33.0145C51.8751 33.1491 51.8774 33.2851 51.8804 33.4211C51.8819 33.4895 51.8835 33.5579 51.885 33.6263C51.8865 33.6963 51.8933 33.7616 51.8637 33.8186C51.8333 33.8855 51.7702 33.9357 51.6995 33.9516C51.6653 33.9607 51.6266 33.9577 51.5855 33.9585H51.4662C51.3081 33.9592 51.1501 33.9592 50.9943 33.96C50.6819 33.9607 50.3741 33.9623 50.0709 33.963C49.4659 33.9653 48.8822 33.9676 48.3259 33.9699C47.7696 33.9721 47.2414 33.9744 46.7466 33.9767C46.4996 33.9782 46.2602 33.979 46.0307 33.9805C45.9722 33.982 45.9197 33.982 45.8711 33.9585C45.8232 33.9372 45.7837 33.8999 45.7579 33.8551C45.7313 33.8095 45.7237 33.7601 45.7252 33.7061C45.7244 33.6522 45.7237 33.5997 45.7229 33.5473C45.71 32.7098 45.7001 32.0303 45.6933 31.5591C45.6887 31.3243 45.6857 31.1419 45.6834 31.0157C45.6819 30.9549 45.6811 30.9071 45.6803 30.8736C45.6788 30.8417 45.6773 30.8242 45.6773 30.8242Z" fill="#1A2E35"/>
<path d="M47.4747 33.6007C47.4747 33.5977 47.4359 33.6 47.3652 33.5855C47.2961 33.5696 47.1904 33.5331 47.0939 33.4358C46.9966 33.34 46.9245 33.1782 46.9412 32.9806C46.9404 32.7837 46.9396 32.5603 46.9389 32.3133C46.9381 32.1894 46.9374 32.0602 46.9366 31.9257C46.9283 31.7919 46.9594 31.6544 47.0483 31.5426C47.1342 31.4317 47.271 31.3549 47.42 31.345C47.572 31.3405 47.7331 31.342 47.8965 31.3397C48.5501 31.3344 49.2683 31.3283 50.023 31.3222C50.2039 31.32 50.3794 31.4188 50.4691 31.5708C50.5162 31.6452 50.5398 31.7319 50.5436 31.8185C50.5451 31.909 50.5458 31.9979 50.5474 32.0868C50.5489 32.2646 50.5512 32.4394 50.5527 32.6104C50.5534 32.6963 50.5542 32.7807 50.5557 32.8643C50.555 32.9471 50.5618 33.0323 50.5519 33.109C50.5314 33.2656 50.4364 33.4031 50.3087 33.4799C50.2457 33.5186 50.1742 33.5437 50.1028 33.5521C50.0321 33.5597 49.9553 33.5559 49.8839 33.5582C49.5936 33.562 49.323 33.565 49.0752 33.568C48.5835 33.5756 48.1845 33.5817 47.9049 33.5863C47.7688 33.5893 47.6624 33.5916 47.5864 33.5939C47.5522 33.5954 47.5248 33.5962 47.5036 33.5969C47.4838 33.5992 47.4747 33.6 47.4747 33.6007C47.4747 33.6015 47.4846 33.6022 47.5028 33.603C47.5241 33.6038 47.5515 33.6038 47.5857 33.6045C47.6617 33.6045 47.7681 33.6053 47.9041 33.606C48.1838 33.6053 48.5828 33.6045 49.0752 33.603C49.323 33.6015 49.5936 33.6 49.8839 33.5984C49.9576 33.5969 50.029 33.6007 50.1073 33.5931C50.1848 33.584 50.2616 33.5574 50.33 33.5164C50.4683 33.4343 50.5725 33.2853 50.5945 33.1158C50.6051 33.03 50.5983 32.9486 50.5998 32.865C50.599 32.7814 50.5983 32.6971 50.5975 32.6112C50.596 32.4402 50.5945 32.2654 50.593 32.0876C50.5922 31.9987 50.5907 31.9082 50.5899 31.8178C50.5861 31.7235 50.5595 31.6293 50.5086 31.548C50.4113 31.3823 50.2191 31.2744 50.0222 31.2766C49.2683 31.2842 48.5501 31.2911 47.8957 31.2979C47.7316 31.3002 47.5742 31.2994 47.4169 31.3048C47.2558 31.3162 47.1084 31.3998 47.0172 31.5191C46.9229 31.6376 46.8902 31.7912 46.9001 31.9257C46.9016 32.0602 46.9039 32.1902 46.9054 32.3133C46.9092 32.5603 46.9123 32.7837 46.9153 32.9806C46.9161 33.0292 46.9161 33.0771 46.9207 33.1234C46.9275 33.1698 46.9374 33.2139 46.9533 33.2534C46.9845 33.334 47.0308 33.3986 47.081 33.448C47.1828 33.5468 47.2923 33.581 47.363 33.5946C47.4359 33.606 47.4747 33.6007 47.4747 33.6007Z" fill="#1A2E35"/>
<g opacity="0.3">
<path d="M51.7351 33.9753C49.8807 34.5385 47.8606 34.5438 46.0039 33.989L51.7351 33.9753Z" fill="black"/>
</g>
<path d="M48.1681 31.9918L48.9463 31.985C49.0512 31.9842 49.1356 31.8983 49.1348 31.7934V31.7539C49.134 31.649 49.0482 31.5647 48.9433 31.5654L48.165 31.5723C48.0602 31.573 47.9758 31.6589 47.9766 31.7638V31.8033C47.9773 31.909 48.0632 31.9933 48.1681 31.9918Z" fill="#E1E1E1"/>
<path d="M48.2219 26.5955C48.2219 26.5955 48.0106 26.7832 47.9369 26.9124C47.8631 27.0423 47.7324 27.6047 47.7324 27.6047C47.7324 27.6047 47.8365 27.699 48.0227 27.4018C48.2097 27.1047 48.2637 26.9557 48.2637 26.9557L48.2219 26.5955Z" fill="#FFC19D"/>
<path d="M49.1432 25.4775L48.8947 25.9153L48.21 26.6069L47.9523 27.6329C47.925 27.7416 47.9348 27.8571 47.9873 27.9559C48.0063 27.9916 48.0291 28.0213 48.0564 28.0319C48.1332 28.0638 48.3498 27.9529 48.3498 27.9529C48.3498 27.9529 48.5079 28.1489 48.6766 28.0334C48.6766 28.0334 48.9198 28.1588 49.0551 28.0372C49.0551 28.0372 49.2094 28.1596 49.3241 28.0836C49.4389 28.0076 49.768 27.528 49.768 27.528L50.2088 25.9465L49.1432 25.4775Z" fill="#FFC19D"/>
<path d="M50.7564 16.8242C50.7564 16.8242 51.1912 17.1047 51.2147 17.6823C51.2322 18.1132 51.556 21.0361 51.5271 21.8227C51.499 22.6093 50.1598 26.3311 50.1598 26.3311L48.6816 25.8857L49.96 21.7239L49.8338 19.1118L50.7564 16.8242Z" fill="#ECECEC"/>
<path d="M48.1628 10.3953C48.0906 10.2449 47.9135 10.1514 47.7479 10.1757C47.5594 10.0169 47.2561 10.0123 47.0631 10.1651C46.9202 10.0739 46.7279 10.064 46.5759 10.1392C46.4239 10.2145 46.316 10.3725 46.3031 10.5405C46.1344 10.5078 45.9482 10.5929 45.8638 10.7419C45.7795 10.8909 45.8023 11.0923 45.9178 11.2184C45.7308 11.2716 45.6016 11.4768 45.6366 11.6668C45.6708 11.8568 45.8646 12.005 46.0584 11.9898L48.0731 10.8536C48.197 10.7411 48.235 10.5458 48.1628 10.3953Z" fill="#1A2E35"/>
<path d="M45.8011 14.1722C45.811 13.739 45.9045 12.8483 45.9987 12.0434C46.0998 11.1778 46.8537 10.5348 47.7323 10.5652L47.8197 10.5683C48.7583 10.6549 49.2082 11.4947 49.095 12.4227L48.8305 15.3494L47.0141 16.9872L46.6181 15.8298L46.6812 15.24C46.6804 15.24 45.7806 15.069 45.8011 14.1722Z" fill="#FFC19D"/>
<path d="M46.6737 15.2378C46.6737 15.2378 47.2498 15.2925 47.8707 14.9346C47.8707 14.9346 47.5698 15.5699 46.6699 15.4582L46.6737 15.2378Z" fill="#FF9C6A"/>
<path d="M46.2346 12.8212C46.2301 12.8888 46.2833 12.9481 46.3547 12.9549C46.4254 12.961 46.487 12.9116 46.4915 12.844C46.4961 12.7763 46.4429 12.7163 46.3714 12.7102C46.3008 12.7041 46.2392 12.7543 46.2346 12.8212Z" fill="#1A2E35"/>
<path d="M46.1777 12.4883C46.1929 12.5058 46.2932 12.4374 46.4323 12.442C46.5713 12.445 46.6709 12.5195 46.6861 12.5035C46.6937 12.4959 46.6785 12.4655 46.6352 12.4321C46.5926 12.3987 46.5189 12.3652 46.4323 12.3622C46.3456 12.3599 46.2719 12.3888 46.2286 12.4199C46.1853 12.4511 46.1701 12.4807 46.1777 12.4883Z" fill="#1A2E35"/>
<path d="M47.4886 12.8888C47.484 12.9565 47.5372 13.0157 47.6086 13.0226C47.6793 13.0286 47.7409 12.9793 47.7454 12.9116C47.75 12.844 47.6968 12.7847 47.6254 12.7778C47.5547 12.7718 47.4931 12.8212 47.4886 12.8888Z" fill="#1A2E35"/>
<path d="M47.5428 12.5603C47.558 12.5778 47.6591 12.5094 47.7974 12.5147C47.9365 12.5178 48.0361 12.5923 48.0513 12.5763C48.0589 12.5695 48.0437 12.5383 48.0004 12.5049C47.9578 12.4714 47.8841 12.438 47.7974 12.4349C47.7108 12.4327 47.6371 12.4615 47.5938 12.4927C47.5512 12.5231 47.5352 12.5527 47.5428 12.5603Z" fill="#1A2E35"/>
<path d="M47.0021 13.5651C47.0028 13.5575 46.917 13.5392 46.7779 13.5172C46.7422 13.5126 46.7095 13.5043 46.7042 13.48C46.6966 13.4541 46.7125 13.4169 46.7315 13.3766C46.768 13.293 46.806 13.2048 46.8455 13.1121C47.0044 12.7359 47.1214 12.4258 47.1054 12.4198C47.0902 12.4137 46.9489 12.7139 46.7893 13.0901C46.7513 13.1828 46.714 13.2717 46.6791 13.3561C46.6646 13.3956 46.6396 13.4404 46.6555 13.4936C46.6639 13.5202 46.6897 13.54 46.7118 13.5468C46.7346 13.5544 46.7543 13.556 46.7718 13.5575C46.9139 13.5696 47.0013 13.5734 47.0021 13.5651Z" fill="#1A2E35"/>
<path d="M47.4073 13.6746C47.3845 13.6723 47.3791 13.822 47.2461 13.9239C47.1139 14.0257 46.9536 14.0037 46.9513 14.0242C46.949 14.0333 46.9862 14.0546 47.0539 14.0584C47.12 14.0629 47.218 14.0455 47.2993 13.9831C47.3807 13.9208 47.4171 13.8349 47.4247 13.7741C47.4331 13.7118 47.4179 13.6746 47.4073 13.6746Z" fill="#1A2E35"/>
<path d="M47.526 12.0195C47.5381 12.0575 47.678 12.0445 47.8399 12.0696C48.0025 12.0917 48.1325 12.1433 48.1553 12.1107C48.1651 12.0947 48.1439 12.059 48.0922 12.021C48.0405 11.983 47.9577 11.9457 47.8604 11.9313C47.7631 11.9176 47.6727 11.9298 47.6126 11.9518C47.5518 11.9731 47.5207 12.0012 47.526 12.0195Z" fill="#1A2E35"/>
<path d="M46.2436 12.092C46.2672 12.124 46.3637 12.0951 46.4792 12.0974C46.5947 12.0958 46.6912 12.1255 46.7148 12.0936C46.7254 12.0784 46.711 12.0464 46.6692 12.0153C46.6281 11.9841 46.559 11.9575 46.48 11.9575C46.4009 11.9575 46.331 11.9834 46.29 12.0138C46.2474 12.0442 46.233 12.0761 46.2436 12.092Z" fill="#1A2E35"/>
<path d="M46.0998 11.6348C46.0998 11.6348 46.3582 11.0815 46.6356 10.9599C46.9715 10.8124 47.1014 11.1772 47.4191 11.1012C47.7376 11.0245 48.0583 10.8831 48.3714 11.1362C48.7142 11.4128 48.5432 11.5922 48.5508 11.9912C48.5827 13.607 48.8631 14.0736 48.9748 13.3166C48.987 13.2338 49.2226 13.1753 49.269 12.8249C49.3298 12.3704 49.367 11.8172 49.2758 11.4904C49.199 11.2145 49.0486 11.0207 48.775 10.8033C48.3425 10.4598 47.733 10.4317 47.3173 10.459C46.9016 10.4849 46.0868 10.9302 46.0998 11.6348Z" fill="#1A2E35"/>
<path d="M48.9181 13.2899C48.9288 13.1516 49.0526 13.0467 49.1909 13.0642C49.3589 13.0862 49.5436 13.1873 49.52 13.5323C49.479 14.1449 48.8672 13.9769 48.8672 13.9594C48.8679 13.948 48.8991 13.546 48.9181 13.2899Z" fill="#FFC19D"/>
<path d="M49.0183 13.7379C49.0213 13.7364 49.0289 13.7463 49.0464 13.7554C49.0639 13.7645 49.0935 13.7721 49.127 13.7622C49.1939 13.7425 49.2554 13.6437 49.2661 13.5335C49.2714 13.478 49.263 13.424 49.2463 13.3784C49.2303 13.3321 49.2037 13.2994 49.1711 13.291C49.1391 13.2812 49.1141 13.2994 49.1057 13.3161C49.0966 13.3328 49.0996 13.345 49.0958 13.3458C49.0943 13.3473 49.0829 13.3344 49.0897 13.3093C49.0928 13.2971 49.1011 13.2834 49.1163 13.2728C49.1323 13.2622 49.1543 13.2568 49.1771 13.2614C49.2243 13.2675 49.2645 13.3138 49.2828 13.364C49.3041 13.4142 49.3147 13.475 49.3086 13.5373C49.2965 13.6604 49.225 13.7714 49.1338 13.7911C49.0897 13.7995 49.054 13.7843 49.0365 13.7683C49.0183 13.7524 49.016 13.7387 49.0183 13.7379Z" fill="#FF9C6A"/>
<path d="M48.9483 12.1015C48.8662 12.1531 48.7796 12.2063 48.6823 12.2124C48.585 12.2185 48.4764 12.16 48.4634 12.0642C48.4574 12.0217 48.4695 11.9723 48.4429 11.9381C48.4102 11.8978 48.3479 11.9077 48.2955 11.9115C48.1154 11.9244 47.9352 11.7914 47.8957 11.6166C47.8478 11.6827 47.7407 11.6766 47.673 11.6295C47.6054 11.5831 47.5628 11.5087 47.5112 11.4448C47.4587 11.381 47.385 11.3232 47.3029 11.3323C47.2573 11.3369 47.2132 11.3627 47.1676 11.3574C47.0871 11.3475 47.0506 11.2518 47.0407 11.1712C47.0316 11.0907 47.0248 10.9972 46.9579 10.9516C46.8956 10.909 46.812 10.9295 46.7367 10.9379C46.6615 10.9463 46.5657 10.9258 46.549 10.852C46.5406 10.814 46.5581 10.7745 46.5809 10.7418C46.6828 10.5951 46.8948 10.5351 47.059 10.6081C47.1266 10.4074 47.3234 10.2562 47.5355 10.2418C47.7483 10.2266 47.9641 10.3489 48.0591 10.5381C48.1936 10.4249 48.3852 10.3823 48.5562 10.4272C48.7272 10.472 48.8716 10.6035 48.9324 10.7677C49.0844 10.7335 49.2531 10.7973 49.3443 10.9227C49.4355 11.0481 49.4423 11.2275 49.3618 11.3589C49.4704 11.4258 49.5616 11.5383 49.5601 11.6652C49.5578 11.7921 49.4286 11.9145 49.3063 11.8765C49.3526 11.9768 49.307 12.1098 49.209 12.1615C49.1102 12.2132 48.9742 12.1759 48.9164 12.0817" fill="#1A2E35"/>
<path d="M49.353 11.877C49.3553 11.8755 49.3629 11.9287 49.3104 11.9933C49.2846 12.0237 49.2413 12.0548 49.1843 12.0624C49.128 12.07 49.0604 12.0541 49.0095 12.0054L49.0361 12.0024C49.0034 12.0541 48.9616 12.1065 48.9076 12.1513C48.8727 12.1795 48.8347 12.2038 48.7929 12.2167C48.7518 12.2311 48.7055 12.2311 48.6682 12.2235C48.59 12.2121 48.5231 12.1681 48.4934 12.1156C48.4623 12.0647 48.4532 12.0176 48.4478 11.9864C48.4425 11.9545 48.4425 11.937 48.4448 11.937C48.4478 11.9363 48.4524 11.9537 48.4615 11.9834C48.4706 12.013 48.4836 12.0579 48.5147 12.1019C48.5702 12.1916 48.7594 12.2433 48.8856 12.1232C48.9358 12.0822 48.9768 12.0328 49.008 11.9841L49.0194 11.9667L49.0338 11.9811C49.0748 12.0221 49.1326 12.0381 49.1812 12.0335C49.2306 12.0297 49.2694 12.0047 49.2952 11.9788C49.3462 11.9256 49.3477 11.8755 49.353 11.877Z" fill="#375A64"/>
<path d="M47.6182 13.7717C47.6083 13.7717 47.6068 13.7063 47.5558 13.6516C47.5072 13.5946 47.4426 13.5847 47.4434 13.5748C47.4434 13.5703 47.4608 13.5657 47.489 13.5718C47.5163 13.5771 47.5536 13.5953 47.5824 13.628C47.6113 13.6607 47.625 13.6995 47.6273 13.7268C47.6296 13.7549 47.6227 13.7717 47.6182 13.7717Z" fill="#FF9C6A"/>
<path d="M47.6778 13.604C47.6687 13.6085 47.6474 13.5865 47.6147 13.5713C47.5828 13.5546 47.5524 13.5508 47.5509 13.5401C47.5486 13.531 47.5881 13.5181 47.6307 13.5394C47.674 13.5614 47.6869 13.6002 47.6778 13.604Z" fill="#FF9C6A"/>
<path d="M46.5474 10.1551C46.5444 10.1491 46.4805 10.1893 46.4304 10.2912C46.4053 10.3413 46.3817 10.4052 46.3749 10.4804C46.3665 10.5557 46.3863 10.6438 46.4387 10.716C46.4919 10.7875 46.5649 10.8331 46.6318 10.8642C46.6987 10.8961 46.7617 10.9167 46.8142 10.9326C46.9198 10.9645 46.9852 10.982 46.9867 10.9767C46.989 10.9706 46.9267 10.9425 46.8241 10.9037C46.7731 10.884 46.7123 10.8604 46.6493 10.8285C46.5862 10.7966 46.5208 10.7533 46.4737 10.6902C46.4281 10.6263 46.4099 10.5519 46.4144 10.4835C46.4182 10.4151 46.4372 10.3535 46.4577 10.3049C46.4988 10.2038 46.5505 10.1597 46.5474 10.1551Z" fill="#E1E1E1"/>
<path d="M46.1549 10.5579C46.1496 10.5579 46.1458 10.5966 46.1625 10.6567C46.1785 10.716 46.2203 10.7942 46.291 10.8596C46.3616 10.9242 46.4437 10.9592 46.5045 10.9706C46.5661 10.982 46.6041 10.9751 46.6041 10.9706C46.6041 10.9637 46.5676 10.9592 46.5121 10.9409C46.4574 10.9227 46.3852 10.887 46.3198 10.8277C46.2552 10.7684 46.2134 10.7 46.1914 10.6468C46.1694 10.5936 46.1625 10.5571 46.1549 10.5579Z" fill="#E1E1E1"/>
<path d="M45.5065 16.4335L44.6173 23.5372C44.574 23.8823 44.8871 24.5108 45.2245 24.5959L49.7192 25.0854C49.992 25.1325 50.2132 24.9227 50.2451 24.6484C50.3576 23.6847 50.4343 21.66 50.5734 20.3414C50.7262 18.8876 51.0059 17.0392 50.6677 16.7763C49.9586 16.2253 48.9463 15.7237 48.9463 15.7237L48.871 15.0632C48.871 15.0632 46.8669 15.2943 46.5257 15.5907L46.3668 16.2291L45.5065 16.4335Z" fill="#ECECEC"/>
<path d="M46.2179 16.3085L42.0941 16.6984L38.8869 15.1274L38.209 16.5357L38.6999 16.7911C39.4903 17.2957 40.9328 18.3544 41.5332 18.6196C42.3753 18.9913 46.6032 18.5117 46.6032 18.5117L46.2179 16.3085Z" fill="#ECECEC"/>
<path d="M45.0492 18.6854C45.0492 18.6793 45.1488 18.6861 45.3205 18.6466C45.49 18.6071 45.7378 18.509 45.9597 18.2848C46.1801 18.0644 46.3663 17.7126 46.3906 17.2984C46.3997 17.0932 46.3602 16.8728 46.2584 16.6736C46.2082 16.5748 46.1406 16.4798 46.0387 16.4358C45.9377 16.3917 45.8161 16.3856 45.699 16.394C44.7331 16.4654 43.8583 16.5513 43.2252 16.6052C42.9136 16.6318 42.659 16.6539 42.4751 16.6698C42.3907 16.6759 42.3231 16.6812 42.2707 16.6858C42.2243 16.6888 42.1992 16.6896 42.1992 16.6881C42.1992 16.6866 42.2235 16.682 42.2699 16.6752C42.3216 16.6683 42.3892 16.66 42.4728 16.6493C42.656 16.6296 42.9098 16.6014 43.2214 16.5672C43.8545 16.5034 44.727 16.4114 45.696 16.34C45.8191 16.3316 45.9445 16.3362 46.0615 16.3864C46.1801 16.438 46.2553 16.5467 46.307 16.6493C46.4127 16.8583 46.4529 17.0871 46.4423 17.3006C46.4142 17.73 46.2181 18.0888 45.9886 18.3122C45.756 18.5387 45.5007 18.6329 45.3266 18.6671C45.2385 18.6846 45.1693 18.6884 45.1222 18.6892C45.0735 18.6892 45.0492 18.6869 45.0492 18.6854Z" fill="#1A2E35"/>
<path d="M48.9474 15.7233C48.9481 15.7317 48.803 15.7537 48.5697 15.7985C48.3363 15.8426 48.0164 15.9163 47.6638 16.0022C47.3111 16.0881 46.9881 16.1557 46.7518 16.1907C46.634 16.2082 46.5382 16.2203 46.4713 16.2249C46.4044 16.2302 46.368 16.2317 46.3672 16.2279C46.3664 16.2196 46.5116 16.1975 46.7449 16.1527C46.9782 16.1086 47.2982 16.0349 47.6508 15.949C48.0035 15.8631 48.3265 15.7955 48.5628 15.7605C48.6806 15.7431 48.7764 15.7309 48.8433 15.7263C48.9101 15.721 48.9466 15.7195 48.9474 15.7233Z" fill="#1A2E35"/>
<path d="M50.7973 17.5142C50.7988 17.5142 50.798 17.5415 50.7935 17.5925C50.7882 17.6487 50.7805 17.7232 50.7714 17.8159C50.7509 18.0158 50.722 18.2947 50.6871 18.6367C50.6187 19.3298 50.5351 20.2889 50.4765 21.3507C50.4469 21.8811 50.4264 22.3873 50.4119 22.8479C50.4059 23.0781 50.4006 23.2963 50.3952 23.5015C50.3907 23.7059 50.3907 23.8974 50.3793 24.0722C50.3663 24.247 50.3435 24.4051 50.3025 24.5389C50.263 24.6734 50.2075 24.7821 50.1482 24.8619C50.0905 24.9424 50.0297 24.9903 49.9886 25.0215C49.9445 25.0488 49.9218 25.0625 49.9202 25.061C49.9134 25.0534 50.0213 25.0101 50.1307 24.8497C50.1855 24.7707 50.2364 24.6627 50.2729 24.5313C50.3101 24.399 50.3299 24.2432 50.3405 24.0707C50.3496 23.8974 50.3473 23.7067 50.3504 23.5015C50.3527 23.2963 50.3557 23.0774 50.3625 22.8471C50.3739 22.3858 50.3929 21.8796 50.4226 21.3484C50.4811 20.2859 50.5708 19.326 50.6491 18.6337C50.6886 18.2871 50.7243 18.0074 50.7509 17.8144C50.7646 17.7224 50.7752 17.6479 50.7836 17.5925C50.7904 17.54 50.795 17.5134 50.7973 17.5142Z" fill="#1A2E35"/>
<path d="M41.6343 34.9792L42.4391 36.7743C42.4391 36.7743 40.3202 37.6034 40.3027 37.9979L44.4265 37.9234L44.4212 37.5791L43.5115 34.6182L41.6343 34.9792Z" fill="#375A64"/>
<path d="M43.6484 36.4513C43.729 36.4718 43.7852 36.5607 43.7685 36.6413C43.7518 36.7226 43.6613 36.7811 43.5808 36.7621C43.5002 36.7431 43.4288 36.639 43.4546 36.5599C43.4804 36.4817 43.5899 36.4186 43.6636 36.4558" fill="#E1E1E1"/>
<path d="M44.4266 37.9226L44.4213 37.5784L40.4617 37.7851C40.4617 37.7851 40.2793 37.8679 40.3029 37.9971L44.4266 37.9226Z" fill="#1A2E35"/>
<path d="M42.3712 36.7553C42.372 36.7758 42.4731 36.7826 42.5734 36.8457C42.6752 36.9057 42.7277 36.9924 42.7467 36.984C42.7649 36.9795 42.733 36.8601 42.6099 36.7857C42.4883 36.7104 42.3667 36.7363 42.3712 36.7553Z" fill="#1A2E35"/>
<path d="M41.9435 36.9406C41.939 36.9604 42.0271 36.9931 42.0971 37.0767C42.1693 37.1587 42.1882 37.2499 42.2088 37.2492C42.2278 37.2522 42.2399 37.1337 42.1502 37.0311C42.0621 36.9277 41.9435 36.9216 41.9435 36.9406Z" fill="#1A2E35"/>
<path d="M41.7061 37.463C41.7244 37.4668 41.751 37.3657 41.697 37.2562C41.6438 37.1468 41.548 37.105 41.5404 37.1217C41.529 37.1384 41.5913 37.1962 41.6339 37.2866C41.6787 37.3771 41.6856 37.4614 41.7061 37.463Z" fill="#1A2E35"/>
<path d="M42.2215 36.2863C42.2306 36.3046 42.3218 36.2749 42.4358 36.281C42.5498 36.2841 42.6395 36.3213 42.6494 36.3038C42.6608 36.2894 42.5726 36.2164 42.4389 36.2111C42.3044 36.205 42.2109 36.2704 42.2215 36.2863Z" fill="#1A2E35"/>
<path d="M48.8863 39.366L48.9782 42.789L47.1786 42.7837L47.082 39.4442L48.8863 39.366Z" fill="#375A64"/>
<path d="M48.0843 42.6156C48.0691 42.6156 48.0463 41.886 48.0341 40.9854C48.0212 40.0848 48.0227 39.3553 48.0379 39.3545C48.0531 39.3545 48.0759 40.0841 48.0881 40.9847C48.101 41.8853 48.0995 42.6149 48.0843 42.6156Z" fill="#1A2E35"/>
<path d="M47.1469 41.716C47.1438 41.7137 47.159 41.6871 47.1909 41.6423C47.2236 41.5974 47.2745 41.5351 47.3475 41.4675C47.4205 41.3998 47.5147 41.3253 47.6333 41.2661C47.7511 41.2053 47.8955 41.1612 48.0505 41.1597C48.3613 41.1528 48.6266 41.2995 48.7588 41.4485C48.8272 41.5222 48.8705 41.5913 48.8949 41.6407C48.9192 41.6909 48.9283 41.7205 48.9253 41.7213C48.9154 41.7266 48.8698 41.6103 48.7315 41.4751C48.5977 41.339 48.3461 41.2075 48.0513 41.2136C47.7571 41.2189 47.5177 41.3725 47.3733 41.4963C47.2259 41.6217 47.1545 41.7221 47.1469 41.716Z" fill="#1A2E35"/>
<path d="M48.973 42.7921L47.1809 42.7837L47.168 42.3794L48.9745 42.3878L48.973 42.7921Z" fill="#1A2E35"/>
<path d="M49.0289 24.8674L45.2973 24.5398L45.235 24.9494C44.2842 25.711 41.321 27.5319 39.7911 29.023C39.7911 29.023 39.2264 29.8112 39.4514 30.5043L41.8431 35.9269L44.2781 35.3652L42.7923 30.7627L47.3622 28.6286C48.2507 28.2995 49.0509 27.1785 49.2402 26.5356C49.4021 25.9861 49.0532 25.5719 49.0289 24.8674Z" fill="#1A2E35"/>
<path d="M45.8945 29.1872L46.8818 40.7057L49.3738 40.6921C49.3738 40.6921 49.4536 37.1755 49.4042 34.8043C49.3548 32.4331 49.6429 27.6147 49.6429 27.6147L45.8945 29.1872Z" fill="#1A2E35"/>
<path d="M49.0293 24.8674L50.227 24.9997C50.227 24.9997 50.3456 27.3922 50.2589 27.6954C50.1723 27.9986 49.5255 29.1994 49.5255 29.1994L45.9824 30.2308V27.5328L49.0293 24.8674Z" fill="#1A2E35"/>
<path d="M48.7142 27.3162C48.7157 27.317 48.7058 27.339 48.6845 27.3808C48.6625 27.4211 48.6359 27.4857 48.5865 27.5586C48.4968 27.7099 48.3456 27.9212 48.11 28.134C47.8766 28.3483 47.5612 28.5603 47.1903 28.7518C46.8202 28.9464 46.3984 29.1242 45.9629 29.3272C45.0912 29.7262 44.3031 30.0879 43.7255 30.3516C43.442 30.4786 43.211 30.5827 43.0453 30.6572C42.9678 30.6906 42.9062 30.7172 42.8591 30.7377C42.8165 30.756 42.7937 30.7643 42.793 30.7628C42.7922 30.7613 42.8135 30.7499 42.8553 30.7286C42.9017 30.7058 42.9617 30.6762 43.0377 30.6397C43.2019 30.5614 43.4306 30.4535 43.7111 30.3197C44.2864 30.0522 45.073 29.6859 45.9424 29.2816C46.3779 29.0786 46.8005 28.9023 47.1691 28.7116C47.5392 28.5231 47.8523 28.3164 48.0864 28.1081C48.322 27.9014 48.4763 27.6962 48.5705 27.5488C48.6655 27.4013 48.7088 27.3139 48.7142 27.3162Z" fill="#375A64"/>
<path d="M41.207 30.5574C41.2063 30.5514 41.3036 30.5263 41.4647 30.5073C41.6258 30.4883 41.8523 30.4784 42.0993 30.5065C42.347 30.5331 42.5652 30.5939 42.7179 30.6509C42.8699 30.7087 42.9581 30.7588 42.955 30.7634C42.952 30.771 42.8593 30.733 42.7058 30.6844C42.5522 30.6365 42.3364 30.5825 42.0932 30.5559C41.85 30.5278 41.6273 30.5324 41.467 30.5422C41.3074 30.5529 41.2086 30.565 41.207 30.5574Z" fill="#375A64"/>
<path d="M45.207 24.9456L50.2451 25.4214L50.2284 25.052L45.2967 24.5398L45.207 24.9456Z" fill="#375A64"/>
<path d="M46.2754 25.0992C46.2898 25.0696 46.3263 24.6326 46.3263 24.6326L46.6007 24.6607L46.5346 25.195L46.2754 25.0992Z" fill="#1A2E35"/>
<path d="M48.916 25.3809C48.9305 25.3513 48.9669 24.9143 48.9669 24.9143L49.2413 24.9424L49.1752 25.4767L48.916 25.3809Z" fill="#1A2E35"/>
<defs>
<linearGradient id="paint0_linear_3941_9778" x1="60.3377" y1="19.9637" x2="64.8872" y2="19.9637" gradientUnits="userSpaceOnUse">
<stop stop-color="#00C0F3"/>
<stop offset="1" stop-color="#00C0F3" stop-opacity="0"/>
</linearGradient>
<linearGradient id="paint1_linear_3941_9778" x1="10.0742" y1="4.57339" x2="11.0982" y2="4.57339" gradientUnits="userSpaceOnUse">
<stop stop-color="#00C0F3"/>
<stop offset="1" stop-color="#00C0F3" stop-opacity="0"/>
</linearGradient>
<linearGradient id="paint2_linear_3941_9778" x1="10.3045" y1="5.24705" x2="12.2448" y2="5.24705" gradientUnits="userSpaceOnUse">
<stop stop-color="#00C0F3"/>
<stop offset="1" stop-color="#00C0F3" stop-opacity="0"/>
</linearGradient>
<linearGradient id="paint3_linear_3941_9778" x1="6.57598" y1="6.80103" x2="11.5224" y2="6.80103" gradientUnits="userSpaceOnUse">
<stop stop-color="#00C0F3"/>
<stop offset="1" stop-color="#00C0F3" stop-opacity="0"/>
</linearGradient>
</defs>
</svg>
