<svg width="1264" height="250" viewBox="0 0 1264 250" fill="none" xmlns="http://www.w3.org/2000/svg">
<g clip-path="url(#clip0_6650_13507)">
<mask id="mask0_6650_13507" style="mask-type:luminance" maskUnits="userSpaceOnUse" x="0" y="0" width="1264" height="250">
<path d="M1264 0H0V250H1264V0Z" fill="white"/>
</mask>
<g mask="url(#mask0_6650_13507)">
<path d="M631.304 248.025L1007.34 190.8H255.268L631.304 248.025Z" fill="#EDF2F7"/>
<path d="M637.285 22.457L815.514 190.65H397.453L637.285 22.457Z" fill="#F7FAFC"/>
<path d="M719.129 222.553C720.305 224.003 719.466 226.2 717.622 226.378C714.447 226.683 711.708 226.677 708.313 226.338C706.503 226.158 705.598 224.07 706.629 222.553H719.129Z" fill="#A0AEC0"/>
<path d="M703.145 207.773C710.701 209.56 714.933 209.474 722.492 207.773L720.004 222.552C714.58 223.733 711.539 223.826 706.116 222.552L703.145 207.773Z" fill="#4A5568"/>
<path d="M703.145 207.773C706.139 208.815 714.186 210.274 722.423 207.773C719.406 207.091 711.325 206.136 703.145 207.773Z" fill="#1A202C"/>
<path d="M739.823 167.095C712.442 173.689 715.249 181.396 720.074 184.425C721.239 189.425 731.544 186.165 736.552 183.91L730.492 180.771C732.419 180.994 736.525 181.376 737.534 181.119C738.544 180.862 740.736 177.451 741.707 175.777L736.428 175.582L742.44 174.053L739.823 167.095Z" fill="#A0AEC0"/>
<path d="M718.494 136.924C724.292 170.503 716.684 176.19 711.769 172.232C706.617 173.273 704.962 162.958 704.877 156.327L710.627 158.921C709.581 156.879 705.646 153.984 705.446 152.74C705.244 151.496 709.251 145.958 710.383 144.095L712.863 149.882L711.666 142.471L718.494 136.924Z" fill="#A0AEC0"/>
<path d="M720.038 136.609C704.135 167.146 714.938 172.117 714.938 172.115C714.874 176.117 725.24 166.494 727.459 160.001L721.621 160.046C723.191 158.491 727.548 157.359 728.126 156.221C728.702 155.083 727.011 147.881 726.629 145.552L722.602 150.169L726.039 143.393L720.038 136.609Z" fill="#A0AEC0"/>
<path d="M688.152 177.78C713.054 181.622 710.998 190.12 706.857 193.888C706.11 199.326 696.692 197.054 692.076 195.238L697.315 191.211C695.603 191.67 691.949 192.547 691.031 192.391C690.111 192.234 687.947 188.869 686.98 187.205L691.693 186.391L686.221 185.46L688.152 177.78Z" fill="#A0AEC0"/>
<path d="M713.294 207.98C706.883 195.247 712.991 157.864 716.212 152.175" stroke="#718096"/>
<path d="M715.721 208.063C715.722 199.582 717.239 184.364 724.218 179.02" stroke="#718096"/>
<path d="M709.8 207.985C709.723 202.401 708.317 192.767 702.34 190.048" stroke="#718096"/>
<path d="M595.408 216.178H694.789L707.587 231.98H582.859L595.408 216.178Z" fill="#CBD5E0"/>
<path d="M594.82 215.932H694.7V162.193C694.7 159.431 692.49 157.193 689.762 157.193H599.758C597.03 157.193 594.82 159.431 594.82 162.193V215.932Z" fill="#002680"/>
<path d="M596.535 216.178H692.926V163.405C692.926 160.644 690.715 158.405 687.989 158.405H601.473C598.746 158.405 596.535 160.644 596.535 163.405V216.178Z" fill="#171923"/>
<path d="M599.818 213.455H689.686V161.313H599.818V213.455Z" fill="#A0AEC0"/>
<path d="M601.889 218.998H688.719L695.732 229.142H594.742L601.889 218.998Z" fill="#718096"/>
<path d="M582.859 231.676H707.261V234.098H582.859V231.676Z" fill="#002680"/>
<path d="M649.845 201.645H604.988V205.032H649.845V201.645Z" fill="#CBD5E0"/>
<path d="M649.845 196.678H604.988V200.065H649.845V196.678Z" fill="#CBD5E0"/>
<path d="M649.845 191.709H604.988V195.096H649.845V191.709Z" fill="#CBD5E0"/>
<path d="M649.845 169.305H604.988V188.683H649.845V169.305Z" fill="#CBD5E0"/>
<path d="M451.271 151.498L498.184 171.87L493.764 225.834L451.271 151.498Z" fill="white"/>
<path d="M498.144 172.289L569.922 125.906L493.643 225.902L498.144 172.289Z" fill="#E2E8F0"/>
<path d="M451.396 151.675L570.169 126.014L498.321 172.128L451.396 151.675Z" fill="#CBD5E0"/>
<path d="M401.623 110.647L478.799 156.111L568.767 126.133L401.623 110.647Z" stroke="#002680" stroke-width="0.5"/>
<path d="M810.861 41.0625L790.697 78.5197L823.718 103.6L810.861 41.0625Z" fill="#F7FAFC"/>
<path d="M790.955 78.7114L716.912 96.3199L823.837 103.566L790.955 78.7114Z" fill="#E2E8F0"/>
<path d="M832.093 127.95L783.881 88.106L717.826 96.7924L832.093 127.95Z" stroke="#002680" stroke-width="0.5"/>
<path d="M810.874 41.2251L716.807 96.5168L790.747 78.7307L810.874 41.2251Z" fill="#CBD5E0"/>
<path d="M649.453 126.455H644.597C642.645 126.455 641.062 128.057 641.062 130.034V130.034C641.062 132.011 642.645 133.613 644.597 133.613H649.453C651.405 133.613 652.987 132.011 652.987 130.034V130.034C652.987 128.057 651.405 126.455 649.453 126.455Z" fill="#171923"/>
<path d="M631.951 111.246C630.951 102.345 637.943 94.5469 646.789 94.5469C655.307 94.5469 662.129 101.897 661.463 110.497L660.847 116.698C660.252 122.701 655.856 127.607 650.015 128.79C648.349 129.127 646.636 129.145 644.964 128.842L644.695 128.793C638.169 127.61 633.183 122.227 632.435 115.555L631.951 111.246Z" fill="#E2E8F0"/>
<path d="M633.917 108.842C633.137 101.196 639.061 94.5469 646.65 94.5469C654.079 94.5469 659.948 100.928 659.42 108.432L659.339 109.587L658.719 116.461C658.262 121.521 654.624 125.7 649.725 126.793C648.175 127.139 646.573 127.157 645.017 126.846L644.775 126.798C639.299 125.705 635.168 121.119 634.595 115.496L633.917 108.842Z" fill="#F7FAFC"/>
<path d="M637.912 95.263C637.912 94.4214 638.528 93.709 639.353 93.5983C641.969 93.247 643.27 93.0994 646.302 93.0166C649.29 92.935 651.068 93.0948 653.463 93.5264C654.277 93.673 654.862 94.3967 654.862 95.2338C654.862 96.8638 653.748 98.2746 652.148 98.4575C649.537 98.7558 646.732 98.828 646.346 98.8367C646.315 98.8374 646.288 98.8372 646.256 98.8359C645.876 98.8205 643.169 98.7042 640.603 98.4169C639.031 98.2408 637.912 96.8648 637.912 95.263Z" fill="#A0AEC0"/>
<path d="M649.751 89.8906H643.107V97.4795H649.751V89.8906Z" fill="#E2E8F0"/>
<path d="M647.537 85.9238H645.407C643.667 85.9238 642.256 87.3524 642.256 89.1146V89.1146C642.256 90.8769 643.667 92.3054 645.407 92.3054H647.537C649.277 92.3054 650.688 90.8769 650.688 89.1146V89.1146C650.688 87.3524 649.277 85.9238 647.537 85.9238Z" fill="#2D3748"/>
<path d="M637.912 94.6117C641.582 94.1869 642.762 97.2694 646.302 97.1863C649.841 97.1033 651.681 94.0697 654.862 94.6117C654.862 96.7214 653.383 98.5228 651.307 98.6941C648.945 98.889 646.652 98.9383 646.338 98.9443C646.311 98.9448 646.292 98.9447 646.265 98.9438C645.958 98.9332 643.769 98.8535 641.471 98.6614C639.408 98.4889 637.912 96.7082 637.912 94.6117Z" fill="#2D3748"/>
<path d="M660.583 100.696C660.482 98.9038 661.89 97.3945 663.662 97.3945C665.413 97.3945 666.812 98.8689 666.743 100.641L666.625 103.687L666.388 108.438C666.336 109.462 665.7 110.362 664.759 110.741C664.176 110.977 663.527 110.989 662.934 110.775L662.861 110.749C661.804 110.367 661.074 109.381 661.01 108.245L660.583 100.696Z" fill="#2D3748"/>
<path d="M654.216 78.1684C654.196 77.6479 654.608 77.2148 655.122 77.2148C655.632 77.2148 656.041 77.641 656.028 78.1574L655.982 79.9062L655.903 82.2431C655.894 82.5007 655.756 82.736 655.537 82.8666C655.315 82.9987 655.041 83.0052 654.813 82.8839L654.791 82.8719C654.541 82.7388 654.38 82.4809 654.37 82.1953L654.216 78.1684Z" fill="#2D3748"/>
<path d="M626.173 100.696C626.072 98.9038 627.48 97.3945 629.252 97.3945C631.003 97.3945 632.402 98.8689 632.333 100.641L632.215 103.687L631.978 108.438C631.926 109.462 631.29 110.362 630.349 110.741C629.766 110.977 629.117 110.989 628.524 110.775L628.451 110.749C627.393 110.367 626.663 109.381 626.6 108.245L626.173 100.696Z" fill="#2D3748"/>
<path d="M637.01 78.1684C636.991 77.6479 637.402 77.2148 637.916 77.2148C638.427 77.2148 638.836 77.641 638.823 78.1574L638.776 79.9062L638.697 82.2431C638.689 82.5007 638.551 82.736 638.331 82.8666C638.11 82.9987 637.836 83.0052 637.608 82.8839L637.585 82.8719C637.335 82.7388 637.175 82.4809 637.165 82.1953L637.01 78.1684Z" fill="#2D3748"/>
<path d="M624.972 101.124C624.876 99.4259 626.21 97.9961 627.889 97.9961C629.548 97.9961 630.874 99.3929 630.809 101.071L630.696 103.972L630.471 108.489C630.423 109.459 629.821 110.311 628.931 110.671C628.376 110.894 627.76 110.906 627.198 110.703L627.129 110.678C626.127 110.316 625.437 109.382 625.377 108.306L624.972 101.124Z" fill="#A0AEC0"/>
<path d="M638.341 79.5103C637.839 74.5923 641.649 70.3145 646.532 70.3145C651.309 70.3145 655.085 74.4196 654.745 79.246L654.694 79.9715L654.296 84.3734C654.001 87.6297 651.66 90.3186 648.506 91.0207C647.511 91.2422 646.482 91.2537 645.483 91.0546L645.327 91.0235C641.803 90.3212 639.144 87.3712 638.774 83.7529L638.341 79.5103Z" fill="#CBD5E0"/>
<path d="M639.633 79.7097C639.213 75.6077 642.391 72.0391 646.464 72.0391C650.449 72.0391 653.597 75.4633 653.313 79.4887L653.271 80.0734L652.941 83.7215C652.695 86.4389 650.739 88.6821 648.107 89.2666C647.279 89.4505 646.423 89.46 645.592 89.2947L645.461 89.2689C642.52 88.6843 640.301 86.2232 639.991 83.2038L639.633 79.7097Z" fill="#F7FAFC"/>
<path d="M662.106 101.038C662.011 99.3399 663.345 97.9102 665.023 97.9102C666.682 97.9102 668.009 99.3069 667.944 100.985L667.831 103.886L667.606 108.403C667.557 109.373 666.956 110.225 666.065 110.585C665.51 110.809 664.895 110.82 664.332 110.617L664.263 110.592C663.262 110.23 662.572 109.296 662.511 108.221L662.106 101.038Z" fill="#A0AEC0"/>
<path d="M648.345 76.4375H644.597C642.645 76.4375 641.062 78.0398 641.062 80.0164V80.0164C641.062 81.9929 642.645 83.5952 644.597 83.5952H648.345C650.297 83.5952 651.88 81.9929 651.88 80.0164V80.0164C651.88 78.0398 650.297 76.4375 648.345 76.4375Z" fill="#171923"/>
<path d="M647.153 76.3516H644.597C642.645 76.3516 641.062 77.9539 641.062 79.9304V79.9304C641.062 81.907 642.645 83.5093 644.597 83.5093H647.153C649.105 83.5093 650.687 81.907 650.687 79.9304V79.9304C650.687 77.9539 649.105 76.3516 647.153 76.3516Z" fill="#2D3748"/>
<path d="M643.065 79.9725C643.512 79.9725 643.874 79.6057 643.874 79.1532C643.874 78.7008 643.512 78.334 643.065 78.334C642.618 78.334 642.256 78.7008 642.256 79.1532C642.256 79.6057 642.618 79.9725 643.065 79.9725Z" fill="white"/>
<path d="M648.856 79.9725C649.303 79.9725 649.665 79.6057 649.665 79.1532C649.665 78.7008 649.303 78.334 648.856 78.334C648.409 78.334 648.047 78.7008 648.047 79.1532C648.047 79.6057 648.409 79.9725 648.856 79.9725Z" fill="white"/>
<path d="M644.385 80.9219C645.598 81.8011 646.279 81.7094 647.492 80.9219" stroke="#F7FAFC" stroke-linecap="round"/>
<path d="M667.796 105.84C666.776 106.629 665.312 106.394 664.582 105.325C663.867 104.277 664.141 102.839 665.189 102.135L679.339 92.6307C680.114 92.1103 681.158 92.3253 681.672 93.1107C682.159 93.8576 681.992 94.8591 681.29 95.4026L667.796 105.84Z" fill="#CBD5E0"/>
<path d="M683.839 94.6752C682.952 95.6153 681.47 95.6143 680.585 94.6729C679.717 93.7505 679.766 92.2871 680.694 91.4264L693.21 79.808C693.896 79.1718 694.96 79.2195 695.588 79.9145C696.185 80.5754 696.174 81.5911 695.562 82.2387L683.839 94.6752Z" fill="#E2E8F0"/>
<path d="M596.341 108.131C596.586 108.47 597.062 108.529 597.38 108.26C597.69 107.998 597.725 107.53 597.458 107.224L595.102 104.519C594.902 104.29 594.559 104.266 594.329 104.466C594.112 104.655 594.076 104.982 594.245 105.216L596.341 108.131Z" fill="#A0AEC0"/>
<path d="M596.925 106.844C597.126 107.21 597.592 107.328 597.941 107.1C598.278 106.878 598.369 106.417 598.142 106.08L596.128 103.106C595.957 102.855 595.618 102.789 595.367 102.958C595.129 103.12 595.053 103.439 595.193 103.693L596.925 106.844Z" fill="#A0AEC0"/>
<path d="M597.664 105.572C597.865 105.939 598.331 106.056 598.679 105.828C599.018 105.606 599.109 105.146 598.88 104.809L596.866 101.835C596.696 101.583 596.356 101.517 596.107 101.687C595.868 101.848 595.792 102.168 595.931 102.421L597.664 105.572Z" fill="#A0AEC0"/>
<path d="M696.114 76.3691C695.751 76.5696 695.642 77.0466 695.881 77.3884C696.109 77.714 696.56 77.7807 696.871 77.535L698.057 76.5965C698.283 76.4182 698.328 76.0914 698.161 75.8566L698.109 75.7833C697.958 75.5722 697.676 75.5073 697.45 75.6319L696.114 76.3691Z" fill="#A0AEC0"/>
<path d="M699.678 76.9518C699.282 77.0782 699.074 77.5169 699.225 77.9079C699.372 78.288 699.8 78.4708 700.171 78.3122L703.453 76.9115C703.731 76.7929 703.863 76.47 703.749 76.1873C703.64 75.9185 703.347 75.7789 703.074 75.8663L699.678 76.9518Z" fill="#A0AEC0"/>
<path d="M700.392 78.4795C699.982 78.5486 699.717 78.9537 699.813 79.3622C699.905 79.7594 700.303 80.0009 700.693 79.8966L704.136 78.9748C704.427 78.8968 704.603 78.5957 704.529 78.2997C704.459 78.0182 704.187 77.8383 703.905 77.8861L700.392 78.4795Z" fill="#A0AEC0"/>
<path d="M700.666 79.7218C700.257 79.7909 699.99 80.196 700.086 80.6045C700.179 81.0017 700.577 81.2432 700.967 81.1389L704.409 80.2171C704.702 80.139 704.876 79.838 704.802 79.542C704.733 79.2605 704.461 79.0806 704.178 79.1283L700.666 79.7218Z" fill="#A0AEC0"/>
<path d="M700.713 80.9639C700.305 81.033 700.039 81.438 700.135 81.8466C700.228 82.2438 700.626 82.4853 701.015 82.381L704.458 81.4592C704.749 81.3811 704.925 81.0801 704.851 80.784C704.781 80.5026 704.509 80.3227 704.227 80.3704L700.713 80.9639Z" fill="#A0AEC0"/>
<path d="M598.758 104.769C598.952 105.139 599.418 105.261 599.767 105.033C600.102 104.813 600.191 104.355 599.962 104.022L598.516 101.918C598.342 101.666 598.002 101.601 597.749 101.77C597.51 101.931 597.43 102.25 597.566 102.506L598.758 104.769Z" fill="#A0AEC0"/>
<path d="M602.505 106.494C602.378 106.894 602.614 107.318 603.018 107.414C603.407 107.506 603.794 107.253 603.872 106.856L604.366 104.34C604.425 104.039 604.235 103.746 603.939 103.679C603.659 103.617 603.377 103.78 603.288 104.056L602.505 106.494Z" fill="#A0AEC0"/>
<path d="M624.882 104.012C625.354 102.803 626.728 102.238 627.898 102.773C629.044 103.297 629.542 104.671 629.004 105.822L621.73 121.357C621.332 122.207 620.328 122.569 619.489 122.165C618.69 121.78 618.322 120.835 618.647 120.002L624.882 104.012Z" fill="#CBD5E0"/>
<path d="M621.499 117.789C622.61 118.44 622.959 119.899 622.264 120.992C621.582 122.062 620.166 122.359 619.122 121.65L605.02 112.072C604.248 111.547 604.043 110.488 604.562 109.707C605.057 108.964 606.033 108.736 606.799 109.184L621.499 117.789Z" fill="#E2E8F0"/>
<path d="M621.352 118.574C620.706 117.95 619.681 117.974 619.064 118.629C618.447 119.283 618.471 120.32 619.118 120.945L619.18 121.005C619.826 121.629 620.85 121.605 621.467 120.95C622.084 120.296 622.06 119.259 621.414 118.634L621.352 118.574Z" fill="#2D3748"/>
<path d="M683.869 92.9998C683.869 92.0949 683.144 91.3613 682.251 91.3613C681.357 91.3613 680.633 92.0949 680.633 92.9998V93.0861C680.633 93.991 681.357 94.7246 682.251 94.7246C683.144 94.7246 683.869 93.991 683.869 93.0861V92.9998Z" fill="#2D3748"/>
<path d="M692.219 81.44C692.219 80.7183 692.691 80.084 693.376 79.8855L693.42 79.8729C694.44 79.5774 695.455 80.353 695.455 81.4274C695.455 82.149 694.983 82.7833 694.297 82.9818L694.254 82.9944C693.234 83.2899 692.219 82.5143 692.219 81.44Z" fill="#2D3748"/>
<path d="M602.852 109.851C602.852 108.946 603.576 108.213 604.47 108.213C605.364 108.213 606.089 108.946 606.089 109.851V109.937C606.089 110.842 605.364 111.576 604.47 111.576C603.576 111.576 602.852 110.842 602.852 109.937V109.851Z" fill="#2D3748"/>
<path d="M697.624 77.0339C698.664 76.8664 699.619 77.647 699.676 78.7116L699.754 80.1743C699.819 81.3791 698.86 82.3863 697.669 82.3655L696.896 82.3521L695.545 82.301C694.535 82.2629 693.666 81.5668 693.396 80.5805C693.312 80.2707 693.291 79.9467 693.335 79.6284L693.341 79.5787C693.498 78.4513 694.362 77.5593 695.473 77.3804L697.624 77.0339Z" fill="#A0AEC0"/>
<path d="M598.78 110.256C597.801 109.867 597.369 108.704 597.854 107.757L598.519 106.456C599.067 105.385 600.398 105.009 601.414 105.639L602.074 106.048L603.212 106.786C604.063 107.337 604.463 108.384 604.202 109.372C604.119 109.682 603.975 109.972 603.777 110.224L603.747 110.263C603.047 111.155 601.854 111.479 600.809 111.063L598.78 110.256Z" fill="#A0AEC0"/>
<path d="M643.56 105.361H641.703L642.801 106.706L644.008 105.94L643.56 105.361Z" fill="#002680"/>
<path d="M644.257 106.236L643.051 107.034L643.701 107.816L644.66 106.737L644.257 106.236Z" fill="#002680"/>
<path d="M645.202 107.426L644.924 107.066L643.949 108.145L644.831 109.209L645.496 108.771L645.202 107.426Z" fill="#002680"/>
<path d="M649.517 104.063L648.218 105.955L648.093 104.985L647.026 104.063L645.819 104.422L645.51 104.798L645.944 105.345L646.098 105.048L646.33 105.063L646.485 105.282L646.083 105.955L644.535 104.063H640.637L641.364 104.954H643.793L645.526 107.143L645.928 108.973L645.092 109.52L645.804 110.38L646.176 109.395H646.763C646.763 109.395 646.933 109.974 646.995 110.208C647.011 110.271 647.026 110.302 647.026 110.302L647.274 109.395H647.861L648.248 110.38L648.96 109.52L648.125 108.957L648.527 107.128L650.26 104.938H652.673L653.4 104.047H649.517V104.063ZM646.887 104.657L646.578 104.469L646.933 104.407L646.887 104.657Z" fill="#002680"/>
<path d="M647.272 110.944H646.762L646.468 109.693L646.189 110.882L647.025 111.883L647.844 110.882L647.566 109.693L647.272 110.944Z" fill="#002680"/>
<path d="M650.027 105.94L651.234 106.706L652.332 105.361H650.476L650.027 105.94Z" fill="#002680"/>
<path d="M649.377 106.737L650.337 107.816L650.986 107.034L649.78 106.236L649.377 106.737Z" fill="#002680"/>
<path d="M648.836 107.426L648.543 108.771L649.208 109.209L650.089 108.145L649.115 107.066L648.836 107.426Z" fill="#002680"/>
<path d="M646.901 103.829L647.025 103.109L646.531 103.485L646.02 103L645.849 103.672L645.262 103.641L645.695 104.189L646.901 103.829Z" fill="#002680"/>
<path d="M663.971 226.783C665.893 227.647 668.138 226.688 668.869 224.691C669.591 222.721 668.544 220.539 666.569 219.894L663.773 218.982L659.128 217.529C657.949 217.16 656.665 217.539 655.866 218.493C655.422 219.024 655.165 219.69 655.137 220.386L655.134 220.475C655.077 221.862 655.863 223.142 657.117 223.705L663.971 226.783Z" fill="#A0AEC0"/>
<path d="M632.396 224.732C632.027 227.395 634.005 229.799 636.657 229.912C639.256 230.023 641.405 227.883 641.339 225.25L641.322 224.552L641.202 221.806C641.125 220.049 639.942 218.543 638.269 218.073C637.708 217.915 637.119 217.883 636.544 217.979L636.457 217.994C634.552 218.312 633.072 219.846 632.804 221.782L632.396 224.732Z" fill="#A0AEC0"/>
<path d="M660.225 177.734C660.216 175.618 658.488 174.058 656.418 174.297C654.382 174.531 652.811 176.418 652.928 178.488L654.987 214.796C655.073 216.319 656.365 217.389 657.862 217.178C659.281 216.977 660.38 215.691 660.374 214.239L660.225 177.734Z" fill="#F7FAFC"/>
<path d="M644.364 147.408C644.622 144.384 642.311 141.953 639.333 142.113C636.438 142.27 634.072 144.815 634.098 147.744L634.32 172.734C634.34 174.927 636.098 176.572 638.266 176.424C640.327 176.283 642.049 174.566 642.227 172.475L644.364 147.408Z" fill="#E2E8F0"/>
<path d="M642.037 182.69C642.173 180.497 640.483 178.761 638.323 178.878C636.204 178.992 634.466 180.846 634.465 182.992L634.463 213.815C634.463 215.399 635.734 216.59 637.299 216.472C638.786 216.359 640.015 215.099 640.108 213.589L642.037 182.69Z" fill="#F7FAFC"/>
<path d="M659.944 147.729C659.944 144.134 656.614 141.677 653.229 142.773C650.628 143.616 648.962 146.293 649.348 149.009L652.474 170.958C652.769 173.03 654.646 174.397 656.685 174.024C658.55 173.682 659.944 171.985 659.944 170.056V147.729Z" fill="#E2E8F0"/>
<path d="M636.604 144.187C636.111 146.299 637.565 148.368 639.697 148.586L640.285 148.646C642.048 148.827 643.584 147.435 643.601 145.641L643.587 144.752C643.563 143.249 642.565 141.94 641.134 141.538C640.786 141.44 640.426 141.4 640.066 141.419L639.871 141.429C638.298 141.511 636.968 142.635 636.604 144.187Z" fill="#A0AEC0"/>
<path d="M651.093 148.12C652.832 149.389 655.276 148.818 656.291 146.906L656.57 146.38C657.409 144.799 656.725 142.83 655.094 142.129L654.277 141.802C652.896 141.25 651.321 141.684 650.406 142.869C650.185 143.157 650.01 143.479 649.89 143.824L649.825 144.008C649.299 145.512 649.816 147.187 651.093 148.12Z" fill="#A0AEC0"/>
<path d="M636.56 218.987L636.524 218.976C635.633 218.695 635.135 217.735 635.413 216.833C635.691 215.931 636.638 215.427 637.529 215.708L637.566 215.72C638.457 216.001 638.954 216.96 638.677 217.863C638.399 218.765 637.451 219.268 636.56 218.987Z" fill="#171923"/>
<path d="M657.48 218.961L657.444 218.95C656.552 218.669 656.055 217.709 656.333 216.807C656.611 215.905 657.558 215.401 658.449 215.682L658.486 215.694C659.377 215.975 659.874 216.934 659.596 217.837C659.319 218.739 658.371 219.243 657.48 218.961Z" fill="#171923"/>
<path d="M652.727 147.174C649.848 147.182 647.506 143.993 647.494 140.049C647.483 136.106 649.808 132.903 652.686 132.894C655.565 132.886 657.908 136.076 657.919 140.019C657.93 143.962 655.606 147.166 652.727 147.174Z" fill="#2D3748"/>
<path d="M638.003 180.538C636.309 180.543 634.933 179.157 634.928 177.443C634.923 175.729 636.292 174.335 637.985 174.33C639.678 174.325 641.055 175.711 641.06 177.425C641.065 179.14 639.696 180.533 638.003 180.538Z" fill="#171923"/>
<path d="M656.526 177.975C654.833 177.98 653.456 176.594 653.451 174.88C653.446 173.166 654.815 171.772 656.508 171.767C658.202 171.762 659.578 173.148 659.583 174.862C659.588 176.577 658.219 177.97 656.526 177.975Z" fill="#171923"/>
<path d="M640.869 147.209C637.991 147.217 635.648 144.027 635.637 140.084C635.626 136.141 637.95 132.937 640.829 132.929C643.707 132.92 646.05 136.11 646.061 140.054C646.073 143.997 643.748 147.2 640.869 147.209Z" fill="#2D3748"/>
<path d="M642.509 142.811C644.419 146.138 649.17 146.124 651.061 142.786L652.326 140.552C654.217 137.213 651.83 133.053 648.029 133.064L645.486 133.072C641.685 133.083 639.321 137.257 641.231 140.584L642.509 142.811Z" fill="white"/>
<path d="M752.517 36.6875C754.699 36.6875 756.467 38.4784 756.467 40.6875V74.1255C756.467 76.3346 754.699 78.1255 752.517 78.1255H739.321C737.14 78.1255 735.371 76.3346 735.371 74.1255V40.6875C735.371 38.4784 737.14 36.6875 739.321 36.6875H752.517Z" fill="#1A202C"/>
<path d="M753.172 39.3203C754.264 39.3203 755.147 40.2157 755.147 41.3203V73.3152C755.147 74.4197 754.264 75.3152 753.172 75.3152H738.795C737.704 75.3152 736.82 74.4197 736.82 73.3152V41.3203C736.82 40.2157 737.704 39.3203 738.795 39.3203H753.172Z" fill="#CBD5E0"/>
<path d="M502.479 92.3984C500.298 92.3984 498.529 94.1893 498.529 96.3984V143.433C498.529 145.642 500.298 147.433 502.479 147.433H531.431C533.612 147.433 535.381 145.642 535.381 143.433V96.3984C535.381 94.1893 533.612 92.3984 531.431 92.3984H502.479Z" fill="#1A202C"/>
<path d="M502.807 95.8965C501.717 95.8965 500.832 96.7919 500.832 97.8965V141.702C500.832 142.807 501.717 143.702 502.807 143.702H530.872C531.963 143.702 532.847 142.807 532.847 141.702V97.8965C532.847 96.7919 531.963 95.8965 530.872 95.8965H502.807Z" fill="#CBD5E0"/>
<path d="M612.165 65.6504H566.711V98.9739H612.165V65.6504Z" fill="#F7FAFC"/>
<path d="M576.743 71.4876C576.079 70.9622 573.925 71.4594 573.873 75.31C573.828 78.6598 574.291 81.6238 571.061 82.3483" stroke="#002680" stroke-width="2" stroke-linecap="round"/>
<path d="M576.574 93.426C575.896 93.9312 573.757 93.3694 573.809 89.5188C573.855 86.1691 574.398 83.2202 571.189 82.3989" stroke="#002680" stroke-width="2" stroke-linecap="round"/>
<path d="M602.129 71.4857C602.793 70.9603 604.946 71.4576 604.999 75.3082C605.044 78.658 604.581 81.6219 607.811 82.3465" stroke="#002680" stroke-width="2" stroke-linecap="round"/>
<path d="M602.297 93.4241C602.974 93.9293 605.113 93.3676 605.061 89.517C605.015 86.1672 604.472 83.2183 607.681 82.397" stroke="#002680" stroke-width="2" stroke-linecap="round"/>
<path d="M578.516 77.8613H600.23" stroke="#002680" stroke-width="2"/>
<path d="M578.516 82.5156H589.425" stroke="#002680" stroke-width="2"/>
<path d="M591.688 82.5156H594.98" stroke="#002680" stroke-width="2"/>
<path d="M597.039 82.5156H600.332" stroke="#002680" stroke-width="2"/>
<path d="M578.516 87.2793H600.23" stroke="#002680" stroke-width="2"/>
<path d="M528.433 101.482H505.107V114.804H528.433V101.482Z" fill="white"/>
<path d="M518.265 119.648H505.107V132.97H518.265V119.648Z" fill="white"/>
<path d="M630.49 36.0293C637.307 36.0293 642.834 30.8902 642.834 24.5508C642.834 18.2114 637.307 13.0723 630.49 13.0723C623.673 13.0723 618.146 18.2114 618.146 24.5508C618.146 30.8902 623.673 36.0293 630.49 36.0293Z" fill="#CBD5E0"/>
<path d="M635.112 32.3516H625.49V45.7883H635.112V32.3516Z" fill="#CBD5E0"/>
<path d="M625.49 39.0703H635.111V47.172C635.111 49.8625 632.958 52.0436 630.3 52.0436C627.644 52.0436 625.49 49.8625 625.49 47.172V39.0703Z" fill="#002680"/>
<path d="M627.26 26.5586L629.286 39.1844H631.564L633.843 26.5586L631.944 28.2961L630.552 26.5586L629.286 28.2961L627.26 26.5586Z" stroke="#4A5568" stroke-linecap="round" stroke-linejoin="round"/>
<path d="M635.112 39.0703H625.49V40.9236H635.112V39.0703Z" fill="#4A5568"/>
<path d="M693.462 64.1112L683.936 58.4335L693.462 52.7559" stroke="#002680" stroke-width="2" stroke-linecap="round"/>
<path d="M705.791 64.1978L715.158 58.7185L705.791 52.7559" stroke="#002680" stroke-width="2" stroke-linecap="round"/>
<path d="M701.889 52.4336L697.049 64.1978" stroke="#002680" stroke-width="2" stroke-linecap="round"/>
<path d="M739.557 44.5605H752.117V54.2494H739.557V44.5605Z" fill="white"/>
<path d="M752.117 58.7904L752.117 63.9375L739.773 63.9375L739.773 58.7904L752.117 58.7904Z" fill="white"/>
<path d="M401.128 110.564L397.83 190.712H256.305L401.128 110.564Z" fill="#F7FAFC"/>
<path d="M834.305 128.732L815.127 191.232H1003.61L834.305 128.732Z" fill="#F7FAFC"/>
</g>
</g>
<defs>
<clipPath id="clip0_6650_13507">
<rect width="1264" height="250" fill="white"/>
</clipPath>
</defs>
</svg>
