<svg id="Layer_1" data-name="Layer 1" xmlns="http://www.w3.org/2000/svg" viewBox="0 0 24 24"><defs><style>.cls-1{fill:#092e1f;}</style></defs><path class="cls-1" d="M12,1.67A10.33,10.33,0,1,1,1.67,12,10.29,10.29,0,0,1,12,1.67ZM10.6,9.15a4.62,4.62,0,0,0-2,0A3.29,3.29,0,0,0,6.16,11.1a4.34,4.34,0,0,0-.23,2.71,2.83,2.83,0,0,0,1.45,2,4.71,4.71,0,0,0,1.87.52,12.68,12.68,0,0,0,3.37-.23c.17,0,.23-.09.23-.27q0-4.92,0-9.84V5.78h-2c-.18,0-.21.07-.21.23,0,.91,0,1.82,0,2.73Zm5.78.07H14.14v.26c0,1.14,0,2.28,0,3.41,0,.88,0,1.75-.07,2.63a2.93,2.93,0,0,1-1.81,2.71l-.31.16,2,1a.26.26,0,0,0,.15,0,3.52,3.52,0,0,0,1.93-2.07,7.19,7.19,0,0,0,.32-2.39c0-1.8,0-3.61,0-5.41Zm0-3.41H14.16V8.07h2.21Z"/><path class="cls-1" d="M10.6,12.74v1.59c0,.14,0,.21-.18.2a5.65,5.65,0,0,1-.92,0,1.44,1.44,0,0,1-1.37-1.47,3.2,3.2,0,0,1,.07-1,1.52,1.52,0,0,1,1.56-1.22c.21,0,.42,0,.64.06s.21.09.21.25C10.59,11.7,10.6,12.22,10.6,12.74Z"/></svg>