<svg id="Layer_1" data-name="Layer 1" xmlns="http://www.w3.org/2000/svg" viewBox="0 0 24 24"><defs><style>.cls-1{fill:#ff2d20;}</style></defs><path class="cls-1" d="M5.76.59a5.57,5.57,0,0,1,.8.43l3.6,2.07a.45.45,0,0,1,.24.43V12.7l.06,0,3.49-2a.12.12,0,0,0,.07-.12c0-1.53,0-3.07,0-4.6a.39.39,0,0,1,.09-.28l.13-.1,3.33-1.92.92-.53a.39.39,0,0,1,.44,0l4.24,2.44a.41.41,0,0,1,.22.39v4.84a.41.41,0,0,1-.22.39l-4,2.32a.12.12,0,0,0-.07.11c0,1.54,0,3.07,0,4.61a.41.41,0,0,1-.23.39l-8.56,4.93a.41.41,0,0,1-.45,0L2.5,19.31l-1.26-.72A.39.39,0,0,1,1,18.22V3.47a.4.4,0,0,1,.21-.36L5.52.65,5.67.59Zm-4,3.47V18c0,.06,0,.09.06.11l7.81,4.5.06,0s0,0,0-.06v-4a.09.09,0,0,0,0-.08l-4-2.28a.43.43,0,0,1-.24-.42V6.21a.09.09,0,0,0-.05-.1l-3.51-2ZM10.4,22.62l.06,0,7.83-4.5a.1.1,0,0,0,.05-.1v-4l-.06,0-7.82,4.46a.11.11,0,0,0-.06.11v4.08Zm-4-6.81.07,0,.57.33L10,17.82a.15.15,0,0,0,.13,0l.47-.28,7.35-4.19.05,0-.07,0-3.49-2a.09.09,0,0,0-.1,0L6.77,15.62Zm-.37-.62.06,0,3.51-2a.07.07,0,0,0,0-.08V4.12s0,0,0-.06l0,0-3.5,2a.1.1,0,0,0-.06.1v9Zm16.24-9.3-.06,0-3.5-2s-.06,0-.1,0l-3.47,2-.09,0,.05,0,3.5,2a.13.13,0,0,0,.12,0l3.48-2ZM2.11,3.44l.05,0,3.5,2a.11.11,0,0,0,.11,0l3.5-2,.05,0-.05,0-3.5-2a.09.09,0,0,0-.1,0L2.6,3.15ZM22.67,6.51l-.06,0-3.5,2s-.06,0-.06.1c0,1.32,0,2.65,0,4v.07l.05,0,3.5-2a.11.11,0,0,0,.06-.11v-4ZM18.34,12.7V8.64a.07.07,0,0,0-.05-.08l-3.51-2,0,0v.07c0,1.33,0,2.65,0,4a.09.09,0,0,0,.06.09c1.12.65,2.24,1.3,3.37,1.94Z"/></svg>