<svg id="Layer_1" data-name="Layer 1" xmlns="http://www.w3.org/2000/svg" viewBox="0 0 24 24"><defs><style>.cls-1{fill:#539e43;}</style></defs><path class="cls-1" d="M12,22.42a1.73,1.73,0,0,1-.8-.21l-2.52-1.5c-.38-.21-.19-.28-.07-.32a4.66,4.66,0,0,0,1.13-.51.17.17,0,0,1,.19,0l1.94,1.15a.22.22,0,0,0,.22,0l7.57-4.38a.19.19,0,0,0,.11-.2V7.72a.19.19,0,0,0-.11-.2L12.09,3.15a.28.28,0,0,0-.22,0L4.3,7.52a.23.23,0,0,0-.11.2v8.75a.23.23,0,0,0,.11.2l2.07,1.2c1.12.57,1.82-.1,1.82-.76V8.48a.23.23,0,0,1,.23-.23h1a.23.23,0,0,1,.23.23v8.63a2.1,2.1,0,0,1-2.24,2.37A3.28,3.28,0,0,1,5.63,19l-2-1.14a1.6,1.6,0,0,1-.8-1.39V7.74a1.58,1.58,0,0,1,.8-1.38L11.2,2a1.68,1.68,0,0,1,1.6,0l7.56,4.38a1.58,1.58,0,0,1,.8,1.38v8.74a1.6,1.6,0,0,1-.8,1.39L12.8,22.25a2,2,0,0,1-.8.17Zm2.33-6c-3.32,0-4-1.52-4-2.81a.24.24,0,0,1,.23-.23h1a.2.2,0,0,1,.21.19c.16,1,.59,1.5,2.6,1.5,1.59,0,2.28-.36,2.28-1.21,0-.49-.19-.85-2.68-1.1-2.06-.21-3.35-.66-3.35-2.31S11.89,8,14.05,8c2.43,0,3.62.83,3.77,2.65a.27.27,0,0,1-.06.17.2.2,0,0,1-.15.08h-1a.22.22,0,0,1-.21-.17c-.23-1-.82-1.38-2.37-1.38-1.75,0-2,.6-2,1.06s.25.72,2.6,1,3.44.74,3.44,2.37-1.39,2.62-3.8,2.62Z"/></svg>