<svg width="76" height="82" viewBox="0 0 76 82" fill="none" xmlns="http://www.w3.org/2000/svg">
<g clip-path="url(#clip0_5373_19664)">
<path d="M30.4863 38.908H44.1437C47.9678 38.908 51.0635 35.6748 51.0635 31.681V17.9877C51.0635 14.184 47.9678 11.1411 44.1437 10.5706C39.5912 9.80982 34.6746 9.80982 30.4863 10.5706C24.6591 11.7117 23.5665 13.8037 23.5665 17.9877V20.8405H37.224V25.2147H18.4678C14.4616 25.2147 11.0017 27.6871 9.90914 32.4417C8.63445 37.9571 8.63445 41.1902 9.90914 46.8957C10.8196 51.0798 13.1869 54.1227 17.1931 54.1227H21.9277V47.6564C21.9277 43.092 25.7517 38.908 30.4863 38.908Z" fill="#347AB4"/>
<path d="M67.0918 34.7239C66.1813 30.5399 64.1782 27.4969 60.1721 27.4969H55.0733V33.773C55.0733 38.7178 51.0671 42.9019 46.5147 42.9019H32.8573C29.0332 42.9019 25.9375 46.3252 25.9375 50.1289V63.8221C25.9375 67.6258 29.2153 69.908 32.8573 71.0491C37.2276 72.3804 41.4159 72.5706 46.5147 71.0491C49.9745 70.0982 53.4344 67.816 53.4344 63.8221V60.9693H39.777V56.5951H60.3542C64.3603 56.5951 65.8171 53.7423 67.2739 49.3681C68.3665 44.6135 68.3665 40.4295 67.0918 34.7239Z" fill="#FFCA1D"/>
<path d="M29.5767 18.3681C28.302 18.3681 27.0273 17.227 27.0273 15.7055C27.0273 14.1841 28.1199 13.043 29.5767 13.043C30.8514 13.043 32.1261 14.1841 32.1261 15.7055C32.1261 17.227 31.0335 18.3681 29.5767 18.3681Z" fill="white"/>
</g>
<defs>
<clipPath id="clip0_5373_19664">
<rect width="59" height="62" fill="white" transform="translate(9 10)"/>
</clipPath>
</defs>
</svg>
