<svg id="Layer_1" data-name="Layer 1" xmlns="http://www.w3.org/2000/svg" viewBox="0 0 24 24"><defs><style>.cls-1{fill:#495467;}</style></defs><path class="cls-1" d="M12.72,22H10.8l-.15,0a10.13,10.13,0,0,1-7.2-4.19,10,10,0,0,1-1.88-7.18A10,10,0,0,1,4.66,4.36a10,10,0,0,1,6.41-2.83,9.89,9.89,0,0,1,6,1.49,10.13,10.13,0,0,1,4.7,6.7c.08.38.13.77.19,1.16v1.8l0,.13a10.23,10.23,0,0,1-4,7.13c-.2.16-.42.3-.63.45l-.19-.27C14.56,16.23,12,12.36,9.44,8.46a.93.93,0,0,0-1-.5H8.31a.4.4,0,0,0-.39.43c0,1.5,0,3,0,4.48V16.1a.39.39,0,0,0,.43.43h.32c.4,0,.49-.1.5-.5,0-1.78,0-3.56,0-5.34v-.36l.07,0c2.38,3.54,4.73,7.11,7.39,10.47a.78.78,0,0,1-.18.11,9.54,9.54,0,0,1-2.61.92C13.48,21.88,13.1,21.94,12.72,22Zm2.72-6.85.05,0v-.22c0-1.14,0-2.28,0-3.42s0-2.26,0-3.4c0-.28-.14-.41-.42-.41h-.38a.38.38,0,0,0-.44.44c0,1.67,0,3.34,0,5a.54.54,0,0,0,.09.27l.7,1.08Z"/></svg>