<svg id="Layer_1" data-name="Layer 1" xmlns="http://www.w3.org/2000/svg" xmlns:xlink="http://www.w3.org/1999/xlink" viewBox="0 0 1080 1080"><defs><style>.cls-1,.cls-18{fill:none;}.cls-2{opacity:0.2;fill:url(#linear-gradient);}.cls-3{clip-path:url(#clip-path);}.cls-4{fill:#fec4ad;}.cls-5{fill:#03214c;}.cls-6{fill:#064482;}.cls-7{fill:#fff;}.cls-8{fill:#d12865;}.cls-9{fill:#053063;}.cls-10{fill:#133a50;}.cls-11{fill:#613531;}.cls-12{fill:#c61b05;}.cls-13{fill:#ddae8a;}.cls-14{fill:#283376;}.cls-15{fill:#072d4c;}.cls-16{fill:#808194;}.cls-17{fill:#1c67a6;}.cls-18{stroke:#aebfde;stroke-miterlimit:10;stroke-width:0.25px;}.cls-19{fill:url(#linear-gradient-2);}.cls-20{opacity:0.26;}.cls-21{fill:url(#linear-gradient-3);}.cls-22{fill:url(#linear-gradient-4);}.cls-23{fill:#717272;}.cls-24{fill:#156eaa;}.cls-25{fill:#1c358e;}.cls-26{fill:#0f257f;}.cls-27{fill:#026db5;}.cls-28{fill:url(#linear-gradient-5);}.cls-29{fill:#125f93;}.cls-30{clip-path:url(#clip-path-2);}.cls-31{fill:#031151;}.cls-32{fill:#e9f2f4;}.cls-33{fill:url(#linear-gradient-6);}.cls-34{fill:#d0dae9;}.cls-35{fill:#ebf0f7;}.cls-36{fill:#e4efff;}.cls-37{fill:url(#linear-gradient-7);}.cls-38{fill:url(#linear-gradient-8);}.cls-39{fill:url(#linear-gradient-9);}.cls-40{fill:url(#linear-gradient-10);}.cls-41{fill:url(#linear-gradient-11);}.cls-42{fill:url(#linear-gradient-12);}.cls-43{fill:url(#linear-gradient-13);}.cls-44{fill:url(#linear-gradient-14);}</style><linearGradient id="linear-gradient" x1="817.43" y1="816.53" x2="329.29" y2="1098.36" gradientUnits="userSpaceOnUse"><stop offset="0" stop-color="#283376"/><stop offset="1" stop-color="#1c67a6"/></linearGradient><clipPath id="clip-path"><rect class="cls-1" x="-378.59" y="20.38" width="1398.86" height="964.63"/></clipPath><linearGradient id="linear-gradient-2" x1="278.65" y1="357.33" x2="367.39" y2="357.33" xlink:href="#linear-gradient"/><linearGradient id="linear-gradient-3" x1="346.87" y1="207.1" x2="357.08" y2="207.1" gradientUnits="userSpaceOnUse"><stop offset="0" stop-color="#1c67a6"/><stop offset="1" stop-color="#283376"/></linearGradient><linearGradient id="linear-gradient-4" x1="329.73" y1="147.04" x2="329.73" y2="200.72" xlink:href="#linear-gradient"/><linearGradient id="linear-gradient-5" x1="1477.01" y1="639.69" x2="1506.15" y2="639.69" gradientTransform="matrix(-1, 0, 0, 1, 2324.67, 0)" gradientUnits="userSpaceOnUse"><stop offset="0" stop-color="#fff"/><stop offset="0.15" stop-color="#f1f6fb"/><stop offset="0.42" stop-color="#deeaf7"/><stop offset="0.7" stop-color="#d3e3f4"/><stop offset="1" stop-color="#cfe1f3"/></linearGradient><clipPath id="clip-path-2"><polygon class="cls-1" points="416.2 651.29 397.7 617.89 189.9 610.01 204.43 717.55 613.26 758.03 949.9 701 949.9 581.02 887.1 581.02 720.87 629.76 688.31 655.67 416.2 651.29"/></clipPath><linearGradient id="linear-gradient-6" x1="732.98" y1="587.89" x2="917.97" y2="587.89" xlink:href="#linear-gradient"/><linearGradient id="linear-gradient-7" x1="442" y1="130.45" x2="517.68" y2="130.45" xlink:href="#linear-gradient"/><linearGradient id="linear-gradient-8" x1="627.76" y1="109.65" x2="674.58" y2="109.65" xlink:href="#linear-gradient"/><linearGradient id="linear-gradient-9" x1="599.42" y1="146.89" x2="635.2" y2="146.89" xlink:href="#linear-gradient"/><linearGradient id="linear-gradient-10" x1="765.55" y1="138.73" x2="829.4" y2="138.73" xlink:href="#linear-gradient"/><linearGradient id="linear-gradient-11" x1="800.75" y1="165.06" x2="877.13" y2="165.06" xlink:href="#linear-gradient"/><linearGradient id="linear-gradient-12" x1="820.24" y1="163.28" x2="827.61" y2="163.28" xlink:href="#linear-gradient"/><linearGradient id="linear-gradient-13" x1="830.37" y1="163.28" x2="837.74" y2="163.28" xlink:href="#linear-gradient"/><linearGradient id="linear-gradient-14" x1="841.43" y1="163.28" x2="848.8" y2="163.28" xlink:href="#linear-gradient"/></defs><ellipse class="cls-2" cx="576.32" cy="955.74" rx="321.28" ry="19.3"/><g class="cls-3"><path class="cls-4" d="M371.87,354.51c.83,0-9.93-10.92-9.93-10.92l-9.54-3.5s-4.57-4.49-7.24-7.84-15.5-7.75-15.5-7.75L326.84,328s5.71,2.87,6.79,4,1,3.92,1,3.92a72.66,72.66,0,0,1-9.18-1.13c-5.47-1-15-5.58-15-5.58l-2,3a69.36,69.36,0,0,0,6.67,4c2.16,1,6.62,2.78,6.62,2.78s-7.42-1.24-10.35-2.39-6.77-2.24-6.77-2.24l-1.31,3.22a64.25,64.25,0,0,0,8.15,3.36c3.39,1,9.08,3,9.08,3s-8.2-.64-10.67-1.32a35.82,35.82,0,0,0-3.7-.85l-.39,3.56a27.28,27.28,0,0,0,7.86,2.34,38.26,38.26,0,0,1,6.33,1.22s-6.68.48-8.83-.19a7.45,7.45,0,0,0-2.94-.53l.1,2.8s10.63,3,17.12,4.39,14.9,1.71,19.54,2.28,19.16,3.66,19.16,3.66Z"/><path class="cls-5" d="M518.37,291.71,459.88,349s-55.25,2.12-76.59-1.63l-21.35-3.75-5.37,20.28s91.79,23.38,103.33,22.8S520.62,359,520.62,359,530.24,314.82,518.37,291.71Z"/><path class="cls-6" d="M521.74,455.73l58.7,4,58.71-4s4.66,100.19,5.41,184.72c.85,96.33-1.25,187-1.25,187H625.14s-14.6-80.09-20.91-136.83S577.94,532.8,577.94,532.8s-15,101.05-21.28,157.78-18.07,136.83-18.07,136.83h-21s-.53-102.43-1.25-187C515.48,541.19,521.74,455.73,521.74,455.73Z"/><path class="cls-4" d="M563.16,269.85c3.17-5.22,3.86-16.44,3.86-16.44h26.21s1.93,16.44,5.7,19.65c4.27,3.63,15.7,9.23,24.29,13-1.36,12.53-3,25-4.68,37.5H547.65q-2-20.16-4.38-40.26C550,280.24,560,275.07,563.16,269.85Z"/><path class="cls-7" d="M638.19,467.7c-37.08,1.41-74.14,3.6-111.23,4.22,1.32-28.49,5.26-96.14,1.77-122.92a183.24,183.24,0,0,1,1.53-57.29L555,274.42l9.36,8.15,16.19,9.14,21.51-9.14,2.91-8.15,31.23,17.29A183.24,183.24,0,0,1,637.77,349C634.43,374.58,637,435.22,638.19,467.7Z"/><polygon class="cls-8" points="584.9 302.44 591.04 402.51 580.04 414.7 570.17 404.32 575.75 302.44 584.9 302.44"/><polygon class="cls-8" points="590.95 295.35 584.9 302.44 575.75 302.44 568.95 292.99 580.59 291.71 590.95 295.35"/><path class="cls-9" d="M554.8,300.68l-7.68-23.54-28.65,14.57s2.89,56.92,0,74.21-1.13,108.48-1.13,108.48h42.59c16,0,16.65-8.64,16.65-8.64s6.4-38.91,0-82.46S554.8,300.68,554.8,300.68Z"/><path class="cls-5" d="M556.08,274.42s7.69,41,14.09,65.33a189.71,189.71,0,0,1,6.41,43.55l-33.31-54.44,7.69-9.92-7.69-8.65,3.85-33.15Z"/><path class="cls-9" d="M605.22,300.68l7.68-23.54,28.65,14.57s-2.89,56.92,0,74.21,1.13,108.48,1.13,108.48H600.09c-16,0-16.65-8.64-16.65-8.64s-6.4-38.91,0-82.46S605.22,300.68,605.22,300.68Z"/><path class="cls-5" d="M603.94,274.42s-7.69,41-14.09,65.33a189.71,189.71,0,0,0-6.41,43.55l33.3-54.44-7.68-9.92,7.68-8.65-3.84-33.15Z"/><polygon class="cls-6" points="555.04 274.42 560.97 269.85 580.59 291.71 567.76 302.44 555.04 274.42"/><polygon class="cls-6" points="605.01 274.42 599.08 269.85 580.59 291.71 593.43 302.44 605.01 274.42"/><path class="cls-10" d="M534.11,822v23.81H501.79s1.21-6.45,16.54-9.42L520.59,822Z"/><path class="cls-10" d="M628.6,822v23.81h32.32s-1.21-6.45-16.54-9.42L642.13,822Z"/><path class="cls-4" d="M553.25,215.44s.33-11.2,7.25-16.25,20.09-5.42,20.09-5.42,13.18.36,20.09,5.42,7.25,16.25,7.25,16.25c-.33,2.17,2.16,18.31-3.13,31.79-2.84,7.23-8.2,14.45-13.73,17.89-9.88,6.14-16.32,3-22.58-.37-5.71-3.08-10.49-10.43-13.07-17.76C552,237.34,553.09,217,553.25,215.44Z"/><path class="cls-11" d="M557.76,190.08c10-9,31.18-12.91,46.4,2,13.68,13.43,7.49,36.72,7.49,36.72-2.25,1.37-2.24.77-2.5,3.65l-3.29,1.19s2.07-9.07-.44-11.35-1.59-5.45-1.88-9.31c-.17-2.33-.66-8.14-5.58-10.33-3.35-1.49-6.6,3.06-15.35,3.32-11,0-14.7-4.37-18-3.11-6.23,2.36-6.6,8.42-6.64,11-.06,3.87.79,5.58-1.62,8s-1.45,11.38-1.45,11.38l-2.55-.89c-.48-4.93-.58-4.13-2.92-5.39C549.4,227,542.73,203.57,557.76,190.08Z"/><path class="cls-4" d="M554.11,233.12c-.42-4.07-1.6-8.75-3.89-10.68s-5.32,1.67-4.36,7.57,8.25,8,8.25,8Z"/><path class="cls-4" d="M607.08,233.12c.42-4.07,1.6-8.75,3.89-10.68s5.32,1.67,4.36,7.57-8.25,10.4-8.25,10.4Z"/><path class="cls-4" d="M391.08,281.5c3.33-5.22,4.05-16.44,4.05-16.44h27.58s2,16.44,6,19.65c4.49,3.64,16.52,9.23,25.56,13-1.43,12.52-3.11,25-4.93,37.49h-74.6q-2.1-20.15-4.6-40.25C377.25,291.89,387.74,286.72,391.08,281.5Z"/><path class="cls-4" d="M380.65,227.09s.35-11.19,7.62-16.25,21.15-5.42,21.15-5.42,13.86.36,21.14,5.42,7.62,16.25,7.62,16.25c-.34,2.17,2.28,18.31-3.29,31.8-3,7.22-8.62,14.44-14.45,17.88-10.4,6.14-17.17,3-23.76-.36-6-3.09-11-10.44-13.75-17.76C379.36,249,380.48,228.68,380.65,227.09Z"/><path class="cls-11" d="M385.39,201.73c10.56-9,32.81-12.9,48.83,2,14.39,13.43,7.88,36.72,7.88,36.72-2.36,1.37-2.35.77-2.63,3.66L436,245.32s2.18-9.06-.47-11.35-1.67-5.45-2-9.3c-.18-2.34-.69-8.15-5.88-10.34-3.52-1.49-6.94,3.07-16.15,3.33-11.58,0-15.47-4.38-19-3.12-6.56,2.37-6.95,8.42-7,11-.07,3.87.84,5.58-1.7,8S382.35,245,382.35,245l-2.68-.89c-.51-4.92-.61-4.12-3.08-5.39C376.59,238.67,369.58,215.22,385.39,201.73Z"/><path class="cls-4" d="M381.55,244.77c-.44-4.07-1.69-8.75-4.09-10.67s-5.61,1.67-4.59,7.57,8.68,7.94,8.68,7.94Z"/><path class="cls-4" d="M437.29,244.77c.45-4.07,1.69-8.75,4.09-10.67s5.61,1.67,4.59,7.57-8.68,10.39-8.68,10.39Z"/><path class="cls-12" d="M774.81,249.52c-.83,13.81-4,22.32-7,25,0,0-5,.12-19.61-1.47-15.23-1.65-31.69,1.47-31.69,1.47s-12.35-16.82-7.13-38.27,15.1-30.21,26.47-33.69,24.74,4.4,24.74,4.4S775.55,237.09,774.81,249.52Z"/><path class="cls-4" d="M755.28,473.45c-2.94,30.32-4.18,108.56-9.07,136.93S727.89,755.13,726.92,769.8s1,51.83,4.89,57.7,13.69,17.61,13.69,17.61H710s3.92-14.68,0-49.88-13.42-94.39-9.51-142.07S695.62,543.64,692.68,513s9.25-68.84,9.25-68.84Z"/><path class="cls-4" d="M798.24,473.45c-2.94,30.32.45,108.56-4.44,136.93S780.1,755.13,779.13,769.8s1,51.83,4.89,57.7,32.19,17.61,32.19,17.61l-15.45-2.67L775.31,841l-13.08,4.13s3.92-14.68,0-49.88S746,715,748.09,653.16c1.63-47.81-9.51-109.52-12.45-140.21s0-68.84,0-68.84Z"/><polygon class="cls-4" points="793.05 388.81 696.11 365.41 696.11 293.39 725.5 282.82 770.9 286.8 780.11 294.03 793.05 388.81"/><rect class="cls-4" x="730.04" y="252.76" width="26.93" height="43.83"/><path class="cls-4" d="M767.65,253.73h0l.14-19.12,3.63,0a4.1,4.1,0,0,1,4.06,4.12l-.06,7.31A7.72,7.72,0,0,1,767.65,253.73Z"/><path class="cls-13" d="M770.2,248.86H770l.06-11,1.8,0a1.56,1.56,0,0,1,1.55,1.57l0,6.31A3.13,3.13,0,0,1,770.2,248.86Z"/><path class="cls-4" d="M721,253.73h0l-.15-19.12-3.63,0a4.08,4.08,0,0,0-4,4.12l0,7.31A7.72,7.72,0,0,0,721,253.73Z"/><path class="cls-13" d="M718.49,248.86h.21l-.06-11-1.8,0a1.55,1.55,0,0,0-1.54,1.57l0,6.31A3.14,3.14,0,0,0,718.49,248.86Z"/><path class="cls-4" d="M771,216.8c.41,10.16,1.08,12.72.25,23.93-.72,9.63-2.61,12.25-4.24,16.44s-11.18,12.14-18.13,15.51a13,13,0,0,1-7.45.24c-8.91-2.45-18.11-12.7-20.89-18.92-2-4.56-3.11-12.78-3.27-20.36s-.19-17.12.08-22.68C718.26,191.32,770.64,208.59,771,216.8Z"/><polygon class="cls-7" points="716.57 296.58 723.31 282.37 744.03 288.05 762.54 282.37 768.11 283.75 773.61 306.9 759.3 390.65 723.59 330.53 716.57 296.58"/><path class="cls-9" d="M818.39,396.18c-.83-6.11-5.29-46.79-7.44-54.48-3.6-12.94-8.4-26.44-12.79-33.52s-14.07-20-14.07-20l-6.5,39.39s5,46.88,12.16,57.64c2.45,3.68,9.91,6.43,12.31,8.9C802.64,391.33,815.5,406.94,818.39,396.18Z"/><path class="cls-14" d="M798.34,459.82c1.29,5.09,2.75,10.45,4.38,16.12,15.19,52.89-7.18,137.21-7.18,137.21-17.26,6.28-21.79,9.37-52.22,6.28-13.76-1.4-25.35-2.25-42.61-8.53,0,0-12.21-24.78-12-104,0-16.44,3-31.87,6.23-47.11Z"/><path class="cls-15" d="M791.75,379.27c-3.15,13.2,8.64,72,11.21,89.8,0,0-20.49,7.69-43.84,6.67-59.32-2.59-70.41-.8-70.41-.8,2.41-16.38,15-74.15,10.43-92.29-5.81-22.82-14.27-50.36-14.27-50.36s2.8-33.23,4.69-39l31-10.27,41.1,81.65,13.46-79.32,8.93,2.9c1.88,5.8,7.78,31.61,11.59,44.09a55.5,55.5,0,0,1,2.22,25.11C796.81,364.93,794,369.81,791.75,379.27Z"/><path class="cls-9" d="M723.31,282.37l-10.11,3.37,4.2,24.31,9.73-2.09.06,14.42c18.75,8,35.22,43,35.22,43s-12.58-35.82-18.46-47C728.42,288.91,723.31,282.37,723.31,282.37Z"/><path class="cls-9" d="M721.31,384.52c-1.24-20.49-1.83-55.68-1.83-55.68l-29.92-35.59s-6.66.78-8.24,20.77c-.63,8,6.29,51.24,8.57,77.12,1.74,19.78,4.53,16.61,3.19,16.75-1.8.2,27.86,8.94,34.87,4.39C724.24,399.43,721.47,402.55,721.31,384.52Z"/><path class="cls-9" d="M766.48,283.35l8.68,2,7.16,20.13-7.83-1.08,5.26,16c-10.51,9.75-17.9,45-17.9,45s1.26-30.3,2.77-47.82C767.16,288.21,766.48,283.35,766.48,283.35Z"/><path class="cls-14" d="M750.31,286s3.07-1.3,6.66-8l5.57,4.37-6.68,19.46Z"/><path class="cls-14" d="M750.31,286s-15.56-1.3-20.7-8l-6.3,4.37,18,19.09Z"/><path class="cls-12" d="M750.65,194.26c-3.21,1.87-2.65,10.43-1.76,14.67s10.64,14.37,16.83,26-4.31,37.16-7.32,45.12c0,0,10.68-2.29,17.4-8.12s7.44-8.72,7.44-17.74-1.66-39.4-7.5-50.18S758.26,189.84,750.65,194.26Z"/><path class="cls-12" d="M737,218c-11.6,5.06-13.41,14.81-14.13,25.83-.67,10.19,4.43,31.09,8.85,36.31,0,0-20.07-1.79-23.55-11.21s1.49-49.64,4.72-58.86,13.58-18.26,22.43-20c12-2.38,18.41.36,19.37,6.08S749.73,212.38,737,218Z"/><path class="cls-4" d="M742.75,385.47c-2.42-4.82-7.85-10.86-8.86-16.69s-4.42-8.86-9.65-11.07a94.55,94.55,0,0,0-12.88-4c-2.82-.81-3.62,2.21.4,4s7,3,8.65,4,2.62,3.83,2.62,3.83-6.24-2.82-12.27-2.62-10.67-.2-10.87,1.61,2.62,3.62,8.25,3.82,9.05,1,10.26,2.42a8.46,8.46,0,0,0,2.91,2.09s-8.74-.68-13.17-.89-7.85,3.22-5.23,4.23,7.85.6,11.87.8,6.53,4.63,6.53,4.63-4.72.4-9.75.61-6.84,2-3.62,3.21,9.82.48,13.37,1a94,94,0,0,1,11,3Z"/><path class="cls-16" d="M737.71,405.2c-8.49.7-8-15.37-8-15.37s14.49-7.62,15.19-.78S737.71,405.2,737.71,405.2Z"/><path class="cls-4" d="M744.51,379.74c-4.39,0-11.74-4.39-18.66-.11a61.66,61.66,0,0,0-11.3,8.89s13.89-.22,21.49,3.38a87.72,87.72,0,0,1,15.08,9.65Z"/><path class="cls-9" d="M744.51,379.74c2,3.37-8.67,22.82-9.59,26.12,0,0,14.18,4.08,35.06,5,24.2,1,41.82,2,47.38-1.83s-1.21-32.74-15.56-27.25c-8.75,3.33-22.25,4.77-34.82,2.11S744.51,379.74,744.51,379.74Z"/><path class="cls-4" d="M763.79,379.27c4.37-.49,11.16-5.7,18.53-2.25a61.91,61.91,0,0,1,12.24,7.53s-13.82,1.38-21,5.83a88.07,88.07,0,0,0-13.87,11.32Z"/><path class="cls-9" d="M763.79,379.27c5.63,1.94,12.52,5.85,12.52,24.86,0,0-13.61,5.67-34.26,9-23.91,3.81-41.5,0-47.46-3.11s-2.86-31.2,9.79-27.81c9,2.43,25.38,7.87,37.57,3.79S763.79,379.27,763.79,379.27Z"/><path class="cls-10" d="M731.41,825.06c-4.9-1-6.63,1-11,3.91a18.59,18.59,0,0,1-9.29,2.93v13.21h34Z"/><path class="cls-10" d="M784,827.5s-.5,4.58-7.84,6.64-12.32-4-12.32-4l-1.63,15h9.41l3.67-4.13,4.09,4.48h40.8Z"/><path class="cls-10" d="M455.07,827.33v18.43H419.64s1.33-6.67,18.14-9.75l2.47-8.68Z"/><path class="cls-10" d="M386.4,827.33v18.43H351s1.34-6.67,18.14-9.75l2.47-8.68Z"/><path class="cls-14" d="M441.13,464.5s15.75,58.62,16,121.59.87,241.19.87,241.19H432.55s-20-171.91-29.55-212.4S368.68,456,368.68,456Z"/><path class="cls-14" d="M398.23,528.82s-4.77,96-5.72,114.85,0,183.51,0,183.51-23.83.65-23.83,0S346.21,653.11,343.3,606.56s-1.2-101.74-5.07-108.18,10.43-42.88,10.43-42.88l33.73,9Z"/><path class="cls-17" d="M432.55,283.49l35.74,23.45S453.52,342,453,356,441.13,464.5,441.13,464.5s-34.54,5.85-58.74,0-33.73-9-33.73-9,1-99.53,2.86-113.47,6.68-41.84,6.68-41.84l18.94-9.78,10.51,8.09Z"/><path class="cls-18" d="M387.65,298.5s-15.33,90.31-11.23,163.17"/><polygon class="cls-14" points="426.11 280.68 387.65 298.5 398.23 310.67 432.55 283.49 426.11 280.68"/><polygon class="cls-14" points="387.65 298.5 377.14 306.94 377.14 290.41 382.39 288.75 387.65 298.5"/><path class="cls-17" d="M468.29,306.94s18.59,91.76,18.59,95.81-29.3,86-39,95c0,0-7.53,3.8-15.63-7.89,0,0,6.93-19.59,11.22-33.54s7.63-59.46,7.63-59.46-23.6-32.76-23.81-52.18C426.89,303.34,468.29,306.94,468.29,306.94Z"/><path class="cls-14" d="M447.78,292.16c1.34,1.06,2.73,2.08,4.12,3.1-6.16,14-29.11,93-33.44,176L413.4,471C417.9,384.71,442.42,304.09,447.78,292.16Z"/><path class="cls-14" d="M370.46,294.35c-4.24,16-17.69,96.83-9.62,178.08l-5,.45C348,394.23,360.17,314.32,365,295.34,366.81,295,368.64,294.7,370.46,294.35Z"/><path class="cls-14" d="M364.68,396.24l-37,10.7a8.64,8.64,0,0,1-9.87-4.37l-36.05-77a5.75,5.75,0,0,1,3.82-8.23l36.69-10.84c6.68-.66,10,.65,11.72,4.19l36.13,76.44C371.81,390.68,371.16,393.19,364.68,396.24Z"/><path class="cls-19" d="M362.59,397l-37.2,10.76a8.67,8.67,0,0,1-9.92-4.37l-36.19-77.36a5.79,5.79,0,0,1,3.85-8.27L320,306.91a9,9,0,0,1,10.29,4.37l36.44,77.15C368.47,392,366.6,395.88,362.59,397Z"/><path class="cls-4" d="M299.68,373.77c-.67-1.55-1.33-3.08-2-4.54,2.47-1.06,5.86-2.94,7.77-3.81a25,25,0,0,1,7.26-2.17l1,3.83a32.59,32.59,0,0,0-7.24,2.72C304.48,370.92,301.61,372.62,299.68,373.77Z"/><path class="cls-4" d="M297.48,368.7l-2-4.6a108.56,108.56,0,0,1,11.15-5.74l2.24,3.12s-5.42,2.95-7.46,4.45C300.39,366.69,298.81,367.78,297.48,368.7Z"/><path class="cls-4" d="M301.84,378.72l-1.93-4.44a82.59,82.59,0,0,0,8.74-3.18,39.26,39.26,0,0,1,3.73-1.76l1.33,3.49a30.39,30.39,0,0,1-7.78,4.26C304.15,377.73,302.86,378.27,301.84,378.72Z"/><path class="cls-4" d="M302.13,379.38a30.08,30.08,0,0,0,6.74-1.86,8.41,8.41,0,0,1,3-1.25l.62,2.84s-4,2.1-8.54,4.41C303.4,382.3,302.79,380.89,302.13,379.38Z"/><polygon class="cls-4" points="307.31 381.8 303.94 383.52 297.71 379.9 292.78 365.94 296.34 358.36 307.31 381.8"/><path class="cls-9" d="M662.62,311.05s17.06,84.24,17.06,87.95-26.89,79-35.76,87.24c0,0-6.91,3.49-14.35-7.25,0,0,6.36-18,10.3-30.77s7-54.58,7-54.58-21.66-30.08-21.85-47.9c-.07-6.58,3.17-7.69,7.27-23.49,5.13-19.71,4.38-28.06,8.79-29.63C644.11,291.55,650,293.55,662.62,311.05Z"/></g><g class="cls-20"><polygon class="cls-21" points="346.87 200.71 357.08 200.71 357.08 213.49 346.87 200.71"/><rect class="cls-22" x="292.23" y="147.04" width="74.99" height="53.68" rx="3.76"/><polygon class="cls-7" points="346.2 160.06 350.07 162.62 346.06 168.65 333.31 162.55 324.32 176.48 313.8 171.45 302.98 188.23 306.21 190.32 315.2 176.39 325.72 181.43 325.72 181.42 325.72 181.42 334.71 167.5 347.42 173.58 353.28 164.76 357.14 167.32 357.96 154.22 346.2 160.06"/></g><polygon class="cls-14" points="436.06 932.04 445.15 932.04 412.68 679.5 392.76 679.5 436.06 932.04"/><polygon class="cls-14" points="736.32 932.04 727.23 932.04 759.71 679.5 779.63 679.5 736.32 932.04"/><path class="cls-10" d="M649.13,597.56c1.22,4.79,2.58,9.82,4.12,15.15,14.27,49.7-6.74,128.92-6.74,128.92-16.22,5.9-20.48,8.8-49.07,5.9-12.93-1.32-23.82-2.11-40-8,0,0-11.47-23.28-11.27-97.69,0-15.45,2.85-30,5.85-44.27Z"/><path class="cls-10" d="M586.24,940.74c-4.59-.92-6.22.91-10.36,3.67a17.43,17.43,0,0,1-8.73,2.76v12.4h32Z"/><path class="cls-10" d="M635.67,943s-.46,4.3-7.35,6.25-11.59-3.76-11.59-3.76l-1.52,14.05h8.84l3.44-3.87,3.85,4.21h38.33Z"/><rect class="cls-23" x="496.66" y="805.67" width="12.72" height="114.83"/><rect class="cls-24" x="492.79" y="787.72" width="20.46" height="17.95"/><rect class="cls-24" x="495.29" y="873.05" width="15.45" height="38.48"/><rect class="cls-24" x="492.79" y="911.53" width="20.46" height="17.95"/><rect class="cls-23" x="478.23" y="753.74" width="49.59" height="33.98"/><rect class="cls-23" x="431.37" y="743.58" width="138.34" height="25.45" rx="0.75"/><polygon class="cls-23" points="552.3 946.63 513.25 927.27 513.25 913.76 557.43 943.38 552.3 946.63"/><path class="cls-23" d="M566.58,950.42a9.15,9.15,0,1,1-9.15-9.15A9.15,9.15,0,0,1,566.58,950.42Z"/><circle class="cls-23" cx="503.02" cy="950.42" r="9.15"/><polygon class="cls-23" points="453.74 946.63 492.79 927.27 492.79 913.76 448.61 943.38 453.74 946.63"/><circle class="cls-23" cx="448.61" cy="950.42" r="9.15"/><rect class="cls-23" x="500.54" y="920.5" width="4.96" height="29.81"/><path class="cls-10" d="M496.4,933.88v24.64H463s1.26-6.68,17.11-9.76l2.33-14.88Z"/><path class="cls-25" d="M544.22,698.94s20,23.4,9.15,45.1c-4.11,8.24-68.07,58.41-68.07,58.41l13.2,140.7H479.31s-32-80.11-38.42-109.9-14.6-43-6.09-58.48,44.51-48.7,44.51-48.7l12.31-34.85Z"/><path class="cls-10" d="M419,933.88v24.64H385.53s1.25-6.68,17.11-9.76L405,933.88Z"/><path class="cls-25" d="M498.82,695.06s20,23.4,9.15,45.09c-4.12,8.25-100.12,62.3-100.12,62.3l13.2,140.7H401.86s-32-80.11-38.41-109.9-14.6-43-6.1-58.48,76.55-52.58,76.55-52.58l12.31-34.85Z"/><rect class="cls-23" x="623.77" y="804.66" width="12.72" height="114.83" transform="translate(1260.27 1724.16) rotate(180)"/><rect class="cls-24" x="619.91" y="786.71" width="20.46" height="17.95" transform="translate(1260.27 1591.38) rotate(180)"/><rect class="cls-24" x="622.41" y="872.04" width="15.45" height="38.48" transform="translate(1260.27 1782.56) rotate(180)"/><rect class="cls-24" x="619.91" y="910.52" width="20.46" height="17.95" transform="translate(1260.27 1838.99) rotate(180)"/><rect class="cls-23" x="605.34" y="752.73" width="49.59" height="33.98" transform="translate(1260.27 1539.44) rotate(180)"/><rect class="cls-23" x="563.44" y="743.81" width="138.34" height="25.45" rx="0.75" transform="translate(1265.23 1513.08) rotate(180)"/><polygon class="cls-23" points="580.85 945.62 619.91 926.26 619.91 912.75 575.73 942.37 580.85 945.62"/><path class="cls-23" d="M566.58,949.41a9.15,9.15,0,1,0,9.15-9.15A9.14,9.14,0,0,0,566.58,949.41Z"/><path class="cls-23" d="M621,949.41a9.15,9.15,0,1,0,9.15-9.15A9.14,9.14,0,0,0,621,949.41Z"/><polygon class="cls-23" points="679.42 945.62 640.36 926.26 640.36 912.75 684.54 942.37 679.42 945.62"/><path class="cls-23" d="M693.69,949.41a9.15,9.15,0,1,1-9.15-9.15A9.14,9.14,0,0,1,693.69,949.41Z"/><rect class="cls-23" x="627.66" y="919.49" width="4.96" height="29.81" transform="translate(1260.27 1868.8) rotate(180)"/><path class="cls-10" d="M636.75,932.87v24.64h33.43s-1.26-6.68-17.11-9.75l-2.33-14.89Z"/><path class="cls-26" d="M588.93,697.93s-20,23.4-9.15,45.1c4.11,8.24,68.08,58.41,68.08,58.41l-13.2,140.7h19.18s32-80.11,38.42-109.9,14.6-43,6.1-58.48-44.52-48.7-44.52-48.7l-12.31-34.85Z"/><path class="cls-10" d="M768.76,932.87v24.64h33.43s-1.26-6.68-17.11-9.75l-2.33-14.89Z"/><path class="cls-26" d="M634.34,694.05s-20,23.4-9.15,45.09c4.11,8.25,100.12,62.3,100.12,62.3l41.35,140.7h19.19s-1.54-152.9-10.05-168.38-76.55-52.58-76.55-52.58l-12.31-34.85Z"/><path class="cls-14" d="M261.1,630.09l2.5,2.89c31.49-13.68,81.09-24.92,144.62-32.34,18.81,8.68,80.33,9.46,80.33,9.46V641s-7.86.6-11.73.94c-82.71,7.09-121.23,20.65-121.23,27.58,0,11.24,86.1,31.87,226.79,31.87s226.81-20.63,226.81-31.87c0-8.44-49.49-23.07-142.46-29.18V609.44c9.37-8,43.68-6.62,51.23-12.67,91,7.72,159.61,22.73,195,41.85h26.82V658c0,44.6-153.64,78.24-357.38,78.24S225,702.56,225,658V638.62Z"/><path class="cls-17" d="M408.22,569.77c28.26,13,53.89,26.8,80.33,40.33-3.94.29-7.86.6-11.73.93-82.71,7.1-121.23,20.66-121.23,27.59,0,11.24,86.1,31.87,226.8,31.87s226.8-20.63,226.8-31.87c0-8.44-49.49-23.07-142.46-29.18C684,595,700,580.27,718,565.9c135.88,11.52,221.8,39.26,221.8,72.72,0,44.61-153.64,78.25-357.37,78.25S225,683.23,225,638.62C225,608.69,294.22,583.07,408.22,569.77Z"/><path class="cls-4" d="M658,492s2.81,11.2,9.15,16.24c9.95,7.92,28.65,19.33,28.65,19.33s1,5.45-14.16,16.79-36.78,17.42-56.38,8.27-4.57-46.78-4.57-46.78,8.28-1.83,12.38-8.83c4.51-7.71,3.16-26.83,3.16-26.83Z"/><path class="cls-7" d="M673.75,513.66a33.47,33.47,0,0,1-21.38,15.23s-13.1-1.61-20.66-8.45a49.48,49.48,0,0,1-11.07-14.56l-31.4,7.78a240,240,0,0,0-5.36,42.28c-.79,23,7,84.85,7,84.85s19.33,12.39,47.84,12.19,59-15.1,59-15.1a610.22,610.22,0,0,1,.45-67.92c1.88-29.42-.1-44.54-.1-44.54S685.64,517.57,673.75,513.66Z"/><polygon class="cls-27" points="657.21 529.69 654.38 536.38 647.04 536.51 643.72 530.58 651.61 525.66 657.21 529.69"/><polygon class="cls-26" points="650.45 533.42 654.38 536.38 657.21 581.92 651.42 591.45 643.18 581.41 647.04 536.51 650.45 533.42"/><path class="cls-4" d="M741.33,578.7c.83,1.64,19.44,31,21.41,34,1.65,2.5,25.39,15.66,48.58,17.17,0,0-21.24,18-16.77,15.72,0,0-34.29-9.12-42.08-10.36-12-1.92-29.05-29-35.74-38.15Z"/><path class="cls-28" d="M818.52,646.52h29.14v-1.24c0-8-6.52-12.43-14.57-12.43-8.7,0-14.57,4.38-14.57,12.43Z"/><path class="cls-4" d="M814.06,627.86c2.66-1,10.61-4.73,14.91-4.73s11.46,7.31,15.48,10.89-1.57,4.49-4.73,2.86-6.41-3.42-9.56-3.29-4.49,2.87-6.21,3.44c-.86.29-1.33,2.58.29,3.73s5.31,1.15,6.31,1.79c2,1.29.72,4.79-2.72,4.79s-6.36.36-10.47-.42a82.59,82.59,0,0,0-12.31-.94c-10.5-.34-16.92-1.11-16.92-1.11L799.3,630.3S809,629.79,814.06,627.86Z"/><path class="cls-17" d="M698.12,525.42c9.62,4.91,14.35,11.44,31.84,37.05,15.08,22.08,27.47,43.75,27.47,43.75l61.09,22.53s-4.36,4.39-7.2,21.54c0,0-64.57-12.92-74.24-20.61s-46-52.81-46-52.81Z"/><path class="cls-7" d="M652.37,580.53l-1.78,105.31c-11.44,3.57-65.12-3.56-65.12-3.56s.55-24.11,1.27-39,5-129.09,5-129.09l23-6.73Z"/><path class="cls-4" d="M685,436.11c4.49,5.29,5.62,17.67,4.12,23.7s-4.55,27.5-9,35.52c-2.05,3.7-5.52,9.74-13.1,10.16-6.22.34-15.26-2.75-20-7.62-6.65-6.82-9.84-11-10.66-18.48s-9.28-2.26-9.47-16.76,3.43-11,14.75-18.85S674.17,423.36,685,436.11Z"/><path class="cls-11" d="M670.46,453c-6.61,2.56-19.93,2.18-19.93,2.18s-.46,6.4-2.25,9.46a78.69,78.69,0,0,1-5.68,7.79s-.29-4-.52-8-5.91-5.73-7.32-1.52,1.35,11.49,4,13.8-3.46,10.19-3.46,10.19-2.7-2.9-8-11.35c-7.26-11.58-9.06-27.83-4.73-39.51s15.8-19.36,29.78-19.86,24.77,8.46,24.77,8.46c3.81,0,8.42,2.82,12.17,10.47s.44,21.3.44,21.3-3.25-6.71-5.21-11.23A65.92,65.92,0,0,1,670.46,453Z"/><polygon class="cls-17" points="625.66 502.18 651.61 525.66 640.42 537.19 620.64 505.88 625.66 502.18"/><polygon class="cls-17" points="670.27 509.56 651.61 525.66 659.37 536.86 675.4 513.66 670.27 509.56"/><polygon class="cls-27" points="652.37 580.53 620.64 505.88 614.78 507.43 617.52 537.88 630.47 541.3 625.21 552.66 652.37 580.53"/><path class="cls-4" d="M482.39,501.86s-2.81,11.19-9.15,16.23c-9.95,7.92-28.65,19.33-28.65,19.33s-1,5.46,14.16,16.79,36.78,17.42,56.38,8.28,4.57-46.78,4.57-46.78-8.28-1.83-12.38-8.83c-4.51-7.71-3.16-26.83-3.16-26.83Z"/><path class="cls-7" d="M466.59,523.49A33.47,33.47,0,0,0,488,538.72s13.1-1.61,20.66-8.45a49.48,49.48,0,0,0,11.07-14.56l31.4,7.78a240,240,0,0,1,5.36,42.28c.79,23.05-.76,140.84-.76,140.84S536.37,719,507.86,718.8s-49.44-21.63-49.44-21.63-6.81-73.71-9.16-110.47a347.17,347.17,0,0,0-7-51.45S454.7,527.4,466.59,523.49Z"/><polygon class="cls-25" points="483.13 539.52 485.96 546.21 493.3 546.34 496.62 540.41 488.73 535.49 483.13 539.52"/><polygon class="cls-25" points="489.89 543.25 485.96 546.21 480.43 626.52 488.55 640.97 500.62 626.52 493.3 546.34 489.89 543.25"/><polygon class="cls-29" points="514.68 512.01 488.73 535.49 499.92 547.02 519.7 515.71 514.68 512.01"/><polygon class="cls-29" points="470.07 519.38 488.73 535.49 480.97 546.69 464.94 523.49 470.07 519.38"/><g class="cls-30"><path class="cls-14" d="M261.1,622.62l2.5,2.89c31.49-13.68,81.09-24.93,144.62-32.34,18.81,8.68,80.33,9.46,80.33,9.46V633.5s-7.86.6-11.73.93c-82.71,7.1-121.23,20.66-121.23,27.59,0,11.24,86.1,31.86,226.79,31.86S809.19,673.26,809.19,662c0-8.44-49.49-23.08-142.46-29.18V602c9.37-8,43.68-6.62,51.23-12.67,91,7.72,159.61,22.72,195,41.85h26.82v19.33c0,44.61-153.64,78.25-357.38,78.25S225,695.09,225,650.48V631.15Z"/><path class="cls-17" d="M408.22,562.3c28.26,13,53.89,26.8,80.33,40.33-3.94.29-7.86.6-11.73.93-82.71,7.1-121.23,20.66-121.23,27.59,0,11.24,86.1,31.86,226.8,31.86s226.8-20.62,226.8-31.86c0-8.44-49.49-23.08-142.46-29.18C684,587.48,700,572.8,718,558.43c135.88,11.52,221.8,39.26,221.8,72.72,0,44.61-153.64,78.25-357.37,78.25S225,675.76,225,631.15C225,601.22,294.22,575.6,408.22,562.3Z"/></g><polygon class="cls-31" points="799.32 669.5 799.8 663.42 735.22 672.87 734.74 678.94 799.32 669.5"/><polygon class="cls-7" points="737.81 658.56 799.8 663.42 735.22 672.87 673.47 666.44 737.81 658.56"/><polygon class="cls-31" points="673 672.52 734.74 678.94 735.22 672.87 673.47 666.44 673 672.52"/><path class="cls-4" d="M684,638.39a157.37,157.37,0,0,0,19,3.34c1.9,0,8.87,0,12.14.1h0c9.53-.27,20.24-.22,22.42,1.58,1.8,1.5,9.88,10.54,13.51,14.84h0c.2.23.38.45.54.65l.2.24.37.46c0,.06.1.13.15.18s.27.34.35.46c1.53,2.12.8,4.54-4,2.86a12.78,12.78,0,0,1-2.54-1.36,3.2,3.2,0,0,1,.08,2.08c-1,2.17-3.72,2-6-.42a35.2,35.2,0,0,1-2.86-3.83,27.27,27.27,0,0,0-3.85-4.7l-.88.22a38.81,38.81,0,0,1,2.7,4.6c1.32,2.84.82,5.13-.12,6.08a1.27,1.27,0,0,1-1.45.4c-1.52-.65-4.37-4.66-7-8.21-.27-.35-.54-.68-.82-1a16.59,16.59,0,0,1-2.84.46h0a14.15,14.15,0,0,1,3.6,4.57c1.17,2.56-1,4.61-3.38,3.45s-9.88-6-12.21-4.54-7.45,4-10.28,4.31-5.86-1-8.8-3.86-12.59-4.31-13.4-4.44A157,157,0,0,0,684,638.39Z"/><polygon class="cls-32" points="685.37 637.82 691.14 639.08 685.37 659.36 678.8 657.42 678.8 641.92 685.37 637.82"/><path class="cls-17" d="M591.75,514.16c-14.45,4.2-19.88,12.68-21,61.52C570.15,603.17,584,638,591,642c13.59,7.84,76.73,17,87.83,18.93,0,0,3.64-18.38,6.57-23.13,0,0-68.51-19.53-71.32-24.05,0,0-6.95-47.78-4.87-58.44C614.61,527.52,598.13,512.3,591.75,514.16Z"/><polygon class="cls-27" points="674.17 512.98 652.37 580.53 675.4 548.58 671.3 541.64 681.59 537.97 679.67 515.03 674.17 512.98"/><path class="cls-31" d="M743.11,516.42l167.82-9.82c2.48-.15,4.35,2.2,4.18,5.25l-7.2,127.37c-.17,3.1-2.35,5.91-4.87,6.28L732.72,670.09c-3.08.45-5.4-2-5.17-5.45l9.63-141.76C737.41,519.49,740.07,516.59,743.11,516.42Z"/><path class="cls-31" d="M741.11,516.42l167.82-9.82c2.48-.15,4.35,2.2,4.18,5.25l-7.2,127.37c-.17,3.1-2.35,5.91-4.87,6.28L730.72,670.09c-3.08.45-5.4-2-5.17-5.45l9.63-141.76C735.41,519.49,738.07,516.59,741.11,516.42Z"/><path class="cls-33" d="M746.53,516.22l167.21-9.79c2.47-.14,4.36,2.21,4.23,5.25L912.3,638.6c-.13,3.09-2.27,5.89-4.77,6.25L738.21,669.3c-3.07.44-5.41-2-5.22-5.43l7.72-141.21C740.9,519.28,743.51,516.39,746.53,516.22Z"/><path class="cls-34" d="M780.07,649.77h0a2,2,0,0,0,1.63-1.83l.43-7.57a1.24,1.24,0,0,0-1.44-1.38h0a2,2,0,0,0-1.63,1.81l-.44,7.6A1.23,1.23,0,0,0,780.07,649.77Z"/><path class="cls-34" d="M775.16,650.51h0a2.05,2.05,0,0,0,1.65-1.84l.44-7.63a1.26,1.26,0,0,0-1.46-1.39h0a2,2,0,0,0-1.66,1.82l-.44,7.66A1.25,1.25,0,0,0,775.16,650.51Z"/><path class="cls-34" d="M770.18,651.26h0a2.08,2.08,0,0,0,1.67-1.86l.45-7.68a1.27,1.27,0,0,0-1.48-1.4h0a2,2,0,0,0-1.68,1.84l-.45,7.71A1.25,1.25,0,0,0,770.18,651.26Z"/><path class="cls-34" d="M765.13,652h0a2.09,2.09,0,0,0,1.69-1.87l.46-7.73a1.28,1.28,0,0,0-1.5-1.41h0a2.06,2.06,0,0,0-1.71,1.85l-.46,7.76A1.28,1.28,0,0,0,765.13,652Z"/><path class="cls-34" d="M760,652.79h0a2.13,2.13,0,0,0,1.73-1.89l.46-7.79a1.29,1.29,0,0,0-1.52-1.41h0a2.07,2.07,0,0,0-1.73,1.86l-.47,7.82A1.28,1.28,0,0,0,760,652.79Z"/><polygon class="cls-7" points="790.04 677.34 814.54 677.34 849.3 666.87 824.8 667.63 790.04 677.34"/><polygon class="cls-31" points="790.04 677.34 814.54 677.34 810.6 685.84 790.04 684.65 790.04 677.34"/><path class="cls-34" d="M823.62,652.43,817.37,579h27L856,651.69c1.59,8.4-1,17.3-6.23,21.35l-6,4.65-33.21,8.15.59-8.5C820.86,673.67,824.76,660.52,823.62,652.43Z"/><path class="cls-35" d="M827.56,652.43,821.31,579h27L860,651.69c1.58,8.4-1,17.3-6.24,21.35l-8.93,6-26.35-1.36,2.67-5.11C826.08,668.75,828.71,660.52,827.56,652.43Z"/><path class="cls-36" d="M827,662.82h32.72c-1,4.28-3.1,8-6,10.22l-8.93,6-34.21,6.79,10.53-13.26A17.88,17.88,0,0,0,827,662.82Z"/><path class="cls-29" d="M442.22,535.25c-9.62,4.9-41.35,80.8-41.35,80.8l-41.22,46.1a22.7,22.7,0,0,1,16.77,11s35.14-26,44.8-33.66,28-52.81,28-52.81S447.94,564.55,447,558C446.14,551.57,442.22,535.25,442.22,535.25Z"/><polygon class="cls-14" points="586.63 981.69 595.73 981.69 601.14 729.15 581.22 729.15 586.63 981.69"/><polygon class="cls-17" points="300.01 673.52 299.53 667.45 383.95 679.6 384.43 685.67 300.01 673.52"/><polygon class="cls-7" points="361.52 662.59 299.53 667.45 383.95 679.6 445.7 673.17 361.52 662.59"/><polygon class="cls-17" points="446.18 679.25 384.43 685.67 383.95 679.6 445.7 673.17 446.18 679.25"/><polygon class="cls-14" points="276.05 667.85 259.63 562.38 361.34 577.45 377.75 682.93 276.05 667.85"/><polygon class="cls-31" points="266.89 562.38 259.63 562.38 361.34 577.45 362.57 574.96 266.89 562.38"/><polygon class="cls-31" points="383.36 677.8 377.75 682.93 361.34 577.45 362.57 574.96 383.36 677.8"/><path class="cls-7" d="M313.08,632.43c1.51,7.42,6.26,12.71,10.62,11.8s6.67-7.67,5.17-15.09-6.27-12.72-10.63-11.81S311.57,625,313.08,632.43Z"/><path class="cls-4" d="M456.32,648.21a158.08,158.08,0,0,1-19,3.35c-1.9,0-8.87,0-12.14.1h0c-9.53-.27-20.24-.23-22.42,1.58-1.8,1.49-9.88,10.53-13.51,14.84h0l-.55.65-.19.24-.37.46-.15.18c-.14.18-.27.34-.35.46-1.53,2.12-.8,4.53,3.95,2.85a12.2,12.2,0,0,0,2.54-1.35,3.2,3.2,0,0,0-.08,2.08c1,2.16,3.72,2,6-.43a36,36,0,0,0,2.86-3.82,26.9,26.9,0,0,1,3.85-4.7c.3.06.59.14.88.21a38.86,38.86,0,0,0-2.7,4.61c-1.32,2.84-.82,5.13.12,6.08a1.28,1.28,0,0,0,1.45.4c1.52-.65,4.37-4.66,7-8.21.27-.36.54-.68.82-1a17.63,17.63,0,0,0,2.84.46h0a13.94,13.94,0,0,0-3.6,4.57c-1.17,2.55,1,4.61,3.38,3.45s9.88-5.95,12.21-4.55,7.45,4,10.28,4.32,5.86-1,8.8-3.87,12.59-4.31,13.4-4.43A156.65,156.65,0,0,1,456.32,648.21Z"/><polygon class="cls-32" points="454.97 647.65 449.2 648.91 454.97 669.19 461.54 667.25 461.54 651.75 454.97 647.65"/><path class="cls-29" d="M548.59,524c14.45,4.21,19.88,12.69,21,61.53.62,27.48-13.2,62.3-20.2,66.34-13.59,7.83-76.73,17-87.83,18.92,0,0-3.64-18.37-6.57-23.12,0,0,68.51-19.54,71.32-24.06,0,0,7-47.77,4.87-58.43C525.73,537.35,542.21,522.13,548.59,524Z"/><polygon class="cls-14" points="533.08 970.35 523.99 970.35 518.58 717.82 538.49 717.82 533.08 970.35"/><polygon class="cls-14" points="288.44 932.04 297.53 932.04 265.05 679.5 245.13 679.5 288.44 932.04"/><polygon class="cls-14" points="881.71 932.04 872.62 932.04 905.1 679.5 925.01 679.5 881.71 932.04"/><path class="cls-4" d="M455,466.46c-.1,7.56,1.65,20.4,3.88,27.28,3.09,9.52,7.51,18.31,14.75,21.13s20.26-6.61,25.33-13.45,5.17-12.28,5.61-20.87-2.58-17.4-2.58-17.4,1.31-14.25-6.43-18.77C465.88,427,455.07,458.89,455,466.46Z"/><path class="cls-11" d="M460.24,459.54c3.9,6.49,14,7.07,20.59,1.34,6-5.28,16.15-9.84,20.11-4.38,3.27,4.51-3.54,9.83-3.65,14.54a108.09,108.09,0,0,0,.62,11.31s3,3.72,4.9,5.79,1.94,17.66,1.94,17.66,5.86-13.9,7.35-15.63c12-13.86,12.17-40.57-3.64-51.19a39.93,39.93,0,0,0-40.17-1.91c-5.34,2.8-14.35,12.13-11.82,22.27C456.47,459.34,458.92,457.34,460.24,459.54Z"/><path class="cls-4" d="M498.06,483.3c.06-3.54-.5-12.48,6.23-12.64s5.95,8.68,2.55,14.46c-1.84,3.13-5.38,8.42-5.38,8.42S498,488.6,498.06,483.3Z"/><path class="cls-10" d="M650.15,463.81c.11.63,1.55,1,1.8,1.18.53.38.11,1.52,1.53,4.66,1.53,3.36,3.4,5.55,13.53,4.41,4.81-.54,4.83-5,5.47-6.91s1.09-2.16,1.83-2.16,1.11.26,1.75,2.16,1.61,6.63,6.44,6.91c5.16.31,7.19-1.35,8.08-4,1.6-4.74,1.6-4.69,2.14-5.07s.75-2.41.64-3.56-4.57-1.39-7.47-1.39-7.36,0-9.08.89-1.67,1.64-2.5,1.65-.86-.76-2.58-1.65S661.54,460,657.1,460c-2.9,0-7,.4-7.05,1.54A9,9,0,0,0,650.15,463.81Zm27.33.08c.38-1.44,1.59-1.51,5.2-1.7s6.85-.39,7.45.33.86,3-.09,5.91c-1.1,3.39-2.24,4.87-6.84,4.87a5.24,5.24,0,0,1-5.37-4.49A15.1,15.1,0,0,1,677.48,463.89Zm-23-1.37c.61-.72,7.72-.53,11.33-.33s4.82.26,5.21,1.7a14.93,14.93,0,0,1-.36,4.92c-.49,2.42-1.29,4.49-7,4.49-6.85,0-7.66-.55-9.1-4.87C653.65,465.48,653.93,463.23,654.53,462.52Z"/><g class="cls-20"><path class="cls-37" d="M477.42,168.32c-1.37-.19-2.75-.34-4.11-.59a37.25,37.25,0,0,1-20-10.41,36.33,36.33,0,0,1-11.07-22.91c-1.14-12,2.5-22.37,11.17-30.89a36.26,36.26,0,0,1,19-10.18c10.63-2,20.56-.06,29.33,6.26a37.09,37.09,0,0,1,15.63,25.71c.13.92.23,1.84.35,2.75v4.8c0,.2-.11.4-.13.6a37.94,37.94,0,0,1-31.28,34.27c-1.49.26-3,.4-4.51.59Zm2.41-37.87v-1.08c0-6.66-.05-13.32-.1-20a12.57,12.57,0,0,0-.31-2.6,3.23,3.23,0,0,0-3.05-1.78,3.3,3.3,0,0,0-2.79,3,15.91,15.91,0,0,0-.17,2.08c0,6.34-.08,12.69-.06,19,0,1.77.2,3.55.36,5.31a2,2,0,0,0,1.44,1.85,12.1,12.1,0,0,0,3.08.56q8.94.12,17.88.09c2.16,0,4.33-.13,6.48-.35a3.18,3.18,0,0,0,2.63-3.14,3.06,3.06,0,0,0-3-2.89c-.36,0-.72,0-1.08,0l-20.2-.09Z"/></g><g class="cls-20"><path class="cls-38" d="M660.08,125.68a19.19,19.19,0,0,1-3.87,1.61c0,.16,0,.31,0,.45v3.83a3.31,3.31,0,0,1,0,.44,1.18,1.18,0,0,1-1.1,1H647.3a1.19,1.19,0,0,1-1.14-1.1c0-.13,0-.26,0-.4v-3.78c0-.15,0-.29,0-.46-.45-.16-.9-.3-1.33-.46s-.85-.34-1.26-.52-.85-.42-1.26-.62a.73.73,0,0,0-.32.25l-2.76,2.76L639,129a1.21,1.21,0,0,1-1.53,0,2,2,0,0,1-.26-.25l-5.07-5.06a2.5,2.5,0,0,1-.22-.24,1.2,1.2,0,0,1,0-1.59l.25-.26,2.73-2.73c.1-.09.18-.19.27-.28-.31-.65-.62-1.27-.89-1.92s-.48-1.3-.73-2h-4.62a1.2,1.2,0,0,1-1.09-1,2.42,2.42,0,0,1,0-.47q0-3.57,0-7.13a2.59,2.59,0,0,1,0-.56,1.18,1.18,0,0,1,1.06-.9h4.63c.25-.67.46-1.33.73-2s.58-1.26.89-1.92l-.26-.28-2.73-2.73a2.5,2.5,0,0,1-.23-.23,1.22,1.22,0,0,1,0-1.65l.19-.2,5.07-5.07c.09-.08.17-.17.26-.24a1.21,1.21,0,0,1,1.53,0c.1.08.19.18.29.27l2.7,2.71.33.31A18.52,18.52,0,0,1,646.07,92a.61.61,0,0,0,.08-.45V87.76c0-.14,0-.27,0-.4a1.19,1.19,0,0,1,1.13-1.11c.12,0,.24,0,.36,0h7.05c.12,0,.24,0,.36,0a1.18,1.18,0,0,1,1.11,1,3.31,3.31,0,0,1,0,.44v3.83c0,.14,0,.29,0,.43.68.25,1.34.47,2,.73s1.26.58,1.91.89l.28-.27,2.74-2.73a3.19,3.19,0,0,1,.26-.26,1.2,1.2,0,0,1,1.58,0c.07.05.12.11.18.16l5.15,5.16a1.89,1.89,0,0,1,.2.2,1.23,1.23,0,0,1,0,1.56l-.25.26-2.74,2.73-.29.31c.16.31.32.62.46.93s.3.63.43,1,.26.64.38,1l.33,1a1.11,1.11,0,0,0,.44,0h4a2.08,2.08,0,0,1,.43,0,1.24,1.24,0,0,1,1,1.08,2.62,2.62,0,0,1,0,.28c0,2.42,0,4.83,0,7.25a2.22,2.22,0,0,1,0,.44,1.21,1.21,0,0,1-1.1,1h-4.64a19.44,19.44,0,0,1-1.58,3.82c0,.17.15.24.24.33l2.73,2.73a3,3,0,0,1,.25.26,1.22,1.22,0,0,1,0,1.65l-.17.18-5.09,5.09a2.5,2.5,0,0,1-.24.22,1.18,1.18,0,0,1-1.55,0,1.54,1.54,0,0,1-.26-.25L660.39,126Zm-8.91-24.78a8.76,8.76,0,1,0,8.76,8.75A8.73,8.73,0,0,0,651.17,100.9Z"/><path class="cls-39" d="M629.73,140.25a15.89,15.89,0,0,1,1,2.53l.38,0h2.9a1.21,1.21,0,0,1,1.11,1,3.15,3.15,0,0,1,0,.44v5.27a2.24,2.24,0,0,1-.05.52,1.18,1.18,0,0,1-1,.9,3.17,3.17,0,0,1-.44,0h-2.86a1.3,1.3,0,0,0-.11.19,13.48,13.48,0,0,1-.92,2.22l-.06.16.28.3c.6.59,1.19,1.19,1.79,1.79.08.08.16.15.23.23a1.23,1.23,0,0,1,0,1.59,1.37,1.37,0,0,1-.17.17l-3.81,3.82-.18.17a1.22,1.22,0,0,1-1.62,0c-.08-.07-.15-.15-.23-.23l-1.76-1.76-.31-.3c-.42.2-.84.4-1.27.58s-.85.32-1.3.49c0,.15,0,.29,0,.44v2.58a1.83,1.83,0,0,1,0,.47,1.21,1.21,0,0,1-1.08.89h-5.88a1.22,1.22,0,0,1-1.14-1.19,2.62,2.62,0,0,1,0-.28v-2.92c-.43-.16-.86-.31-1.28-.48s-.83-.38-1.27-.58a1.74,1.74,0,0,0-.22.19l-1.85,1.85c-.09.08-.17.17-.27.25a1.21,1.21,0,0,1-1.58,0c-.09-.07-.16-.15-.24-.22l-3.73-3.73-.22-.23a1.21,1.21,0,0,1,0-1.56,3.07,3.07,0,0,1,.25-.26l1.76-1.77.29-.29a4,4,0,0,0-.27-.63l-.3-.66-.24-.64c-.08-.21-.15-.42-.23-.64l-.46,0h-2.46a2.68,2.68,0,0,1-.4,0,1.16,1.16,0,0,1-1.06-1,2.61,2.61,0,0,1,0-.4c0-1.74,0-3.49,0-5.23,0-.12,0-.24,0-.36a1.2,1.2,0,0,1,1.14-1.1h3.24c.16-.44.31-.87.48-1.29s.38-.83.58-1.27l-.23-.25-1.83-1.82c-.08-.09-.17-.17-.25-.27a1.2,1.2,0,0,1,0-1.55l.19-.21,3.82-3.81a1.19,1.19,0,0,1,.2-.19,1.21,1.21,0,0,1,1.53,0,3,3,0,0,1,.26.25l1.79,1.79.3.28c.43-.19.83-.39,1.25-.56s.85-.33,1.3-.49c0-.11,0-.23,0-.35,0-.86,0-1.72,0-2.58,0-.12,0-.24,0-.36a1.2,1.2,0,0,1,1.1-1.1h5.92a1.2,1.2,0,0,1,1.12,1.12c0,.12,0,.24,0,.36V133c0,.13,0,.26,0,.4.44.17.87.32,1.29.49s.83.37,1.26.57l.26-.24,1.86-1.85a3.71,3.71,0,0,1,.29-.27,1.2,1.2,0,0,1,1.46,0c.1.08.18.17.27.25,1.24,1.24,2.48,2.49,3.73,3.73l.22.23a1.22,1.22,0,0,1,0,1.56l-.25.26L630,140C629.92,140,629.83,140.14,629.73,140.25Zm-12.42,13.51a6.88,6.88,0,1,0-6.88-6.89A6.88,6.88,0,0,0,617.31,153.76Z"/></g><g class="cls-20"><path class="cls-40" d="M829.4,124.12c-27.8,8.89-33.11,16-35.52,47.45H765.55l9.2-9.68c-12.06-23.64-8.35-42.56,10.17-52.16C801.28,101.26,819.78,107.06,829.4,124.12Z"/><path class="cls-41" d="M863.43,186.71l13.7,12.54c-17.15,0-32.93,1.58-48.25-.39-20.33-2.62-32.46-24.09-26.7-43.58a34.79,34.79,0,1,1,64.46,25.41C865.74,182.51,864.73,184.28,863.43,186.71Zm-7.49.3c1.83-2.37,3.4-4.13,4.65-6.09,6.61-10.33,5.61-25-2.25-34.44A29.19,29.19,0,0,0,824.23,138c-12.05,5.11-19.05,17-17.79,30.32,1.19,12.42,10.57,23.86,23,25.39,10.48,1.29,21.23.27,33,.27Z"/><circle class="cls-42" cx="823.92" cy="163.28" r="3.69"/><circle class="cls-43" cx="834.06" cy="163.28" r="3.69"/><circle class="cls-44" cx="845.11" cy="163.28" r="3.69"/></g></svg>