<?xml version="1.0" encoding="utf-8"?>
<!-- Generator: Adobe Illustrator 25.2.1, SVG Export Plug-In . SVG Version: 6.00 Build 0)  -->
<svg version="1.1" id="Layer_1" xmlns="http://www.w3.org/2000/svg" xmlns:xlink="http://www.w3.org/1999/xlink" x="0px" y="0px"
	 viewBox="0 0 24 24" style="enable-background:new 0 0 24 24;" xml:space="preserve">
<style type="text/css">
	.st0{fill:#002680;}
	.st1{opacity:0.65;}
	.st2{fill:url(#SVGID_1_);}
	.st3{fill:url(#SVGID_2_);}
	.st4{fill:url(#SVGID_3_);}
	.st5{fill:url(#SVGID_4_);}
	.st6{fill:url(#SVGID_5_);}
	.st7{fill:url(#SVGID_6_);}
	.st8{fill:url(#SVGID_7_);}
	.st9{fill:url(#SVGID_8_);}
	.st10{fill:url(#SVGID_9_);}
	.st11{fill:url(#SVGID_10_);}
	.st12{fill:url(#SVGID_11_);}
	.st13{fill:url(#SVGID_12_);}
	.st14{fill:url(#SVGID_13_);}
	.st15{fill:url(#SVGID_14_);}
	.st16{fill:url(#SVGID_15_);}
	.st17{fill:url(#SVGID_16_);}
	.st18{fill:url(#SVGID_17_);}
	.st19{fill:url(#SVGID_18_);}
	.st20{fill:url(#SVGID_19_);}
	.st21{fill:url(#SVGID_20_);}
	.st22{fill:url(#SVGID_21_);}
	.st23{fill:url(#SVGID_22_);}
	.st24{fill:url(#SVGID_23_);}
	.st25{fill:url(#SVGID_24_);}
	.st26{fill:url(#SVGID_25_);}
	.st27{fill:url(#SVGID_26_);}
	.st28{fill:url(#SVGID_27_);}
	.st29{fill:#FFFFFF;}
	.st30{fill:url(#SVGID_28_);}
	.st31{fill:url(#SVGID_29_);}
	.st32{fill:url(#SVGID_30_);}
	.st33{fill:url(#SVGID_31_);}
	.st34{fill:url(#SVGID_32_);}
	.st35{fill:url(#SVGID_33_);}
	.st36{fill:url(#SVGID_34_);}
	.st37{fill:url(#SVGID_35_);}
	.st38{fill:url(#SVGID_36_);}
	.st39{fill:url(#SVGID_37_);}
	.st40{fill:url(#SVGID_38_);}
	.st41{fill:url(#SVGID_39_);}
	.st42{fill:url(#SVGID_40_);}
	.st43{fill:url(#SVGID_41_);}
	.st44{fill:url(#SVGID_42_);}
	.st45{fill:url(#SVGID_43_);}
	.st46{fill:url(#SVGID_44_);}
	.st47{fill:url(#SVGID_45_);}
	.st48{fill:url(#SVGID_46_);}
	.st49{fill:url(#SVGID_47_);}
	.st50{fill:url(#SVGID_48_);}
	.st51{fill:url(#SVGID_49_);}
	.st52{fill:url(#SVGID_50_);}
	.st53{fill:url(#SVGID_51_);}
	.st54{fill:url(#SVGID_52_);}
	.st55{fill:url(#SVGID_53_);}
	.st56{fill:url(#SVGID_54_);}
	.st57{fill:url(#SVGID_55_);}
	.st58{fill:url(#SVGID_56_);}
	.st59{fill:url(#SVGID_57_);}
	.st60{fill:url(#SVGID_58_);}
	.st61{fill:url(#SVGID_59_);}
	.st62{fill:url(#SVGID_60_);}
	.st63{fill:url(#SVGID_61_);}
	.st64{fill:url(#SVGID_62_);}
	.st65{fill:url(#SVGID_63_);}
	.st66{fill:url(#SVGID_64_);}
	.st67{fill:url(#SVGID_65_);}
	.st68{fill:url(#SVGID_66_);}
	.st69{fill:url(#SVGID_67_);}
	.st70{fill:url(#SVGID_68_);}
	.st71{fill:url(#SVGID_69_);}
	.st72{fill:url(#SVGID_70_);}
	.st73{fill:url(#SVGID_71_);}
	.st74{fill:url(#SVGID_72_);}
	.st75{fill:url(#SVGID_73_);}
	.st76{fill:url(#SVGID_74_);}
	.st77{fill:url(#SVGID_75_);}
	.st78{fill:url(#SVGID_76_);}
	.st79{fill:url(#SVGID_77_);}
	.st80{fill:url(#SVGID_78_);}
	.st81{fill:url(#SVGID_79_);}
	.st82{fill:url(#SVGID_80_);}
	.st83{fill:url(#SVGID_81_);}
	.st84{fill:url(#SVGID_82_);}
	.st85{fill:url(#SVGID_83_);}
	.st86{fill:url(#SVGID_84_);}
	.st87{fill:url(#SVGID_85_);}
	.st88{fill:url(#SVGID_86_);}
	.st89{fill:url(#SVGID_87_);}
	.st90{fill:url(#SVGID_88_);}
	.st91{fill:url(#SVGID_89_);}
	.st92{fill:url(#SVGID_90_);}
	.st93{fill:url(#SVGID_91_);}
	.st94{fill:url(#SVGID_92_);}
	.st95{fill:url(#SVGID_93_);}
	.st96{fill:url(#SVGID_94_);}
	.st97{fill:url(#SVGID_95_);}
	.st98{fill:url(#SVGID_96_);}
	.st99{fill:url(#SVGID_97_);}
	.st100{fill:url(#SVGID_98_);}
	.st101{fill:url(#SVGID_99_);}
	.st102{fill:url(#SVGID_100_);}
	.st103{fill:url(#SVGID_101_);}
	.st104{fill:url(#SVGID_102_);}
	.st105{fill:url(#SVGID_103_);}
	.st106{fill:url(#SVGID_104_);}
	.st107{fill:url(#SVGID_105_);}
	.st108{fill:url(#SVGID_106_);}
	.st109{fill:url(#SVGID_107_);}
	.st110{fill:url(#SVGID_108_);}
	.st111{fill:url(#SVGID_109_);}
	.st112{fill:url(#SVGID_110_);}
	.st113{fill:url(#SVGID_111_);}
	.st114{fill:url(#SVGID_112_);}
	.st115{fill:url(#SVGID_113_);}
	.st116{fill:url(#SVGID_114_);}
	.st117{fill:url(#SVGID_115_);}
	.st118{fill:url(#SVGID_116_);}
	.st119{fill:url(#SVGID_117_);}
	.st120{fill:url(#SVGID_118_);}
	.st121{fill:url(#SVGID_119_);}
	.st122{fill:url(#SVGID_120_);}
	.st123{fill:url(#SVGID_121_);}
	.st124{fill:url(#SVGID_122_);}
	.st125{fill:url(#SVGID_123_);}
	.st126{fill:url(#SVGID_124_);}
	.st127{fill:url(#SVGID_125_);}
	.st128{fill:url(#SVGID_126_);}
	.st129{fill:url(#SVGID_127_);}
	.st130{fill:url(#SVGID_128_);}
	.st131{fill:url(#SVGID_129_);}
	.st132{fill:url(#SVGID_130_);}
	.st133{fill:url(#SVGID_131_);}
	.st134{fill:url(#SVGID_132_);}
	.st135{fill:url(#SVGID_133_);}
	.st136{fill:url(#SVGID_134_);}
	.st137{fill:url(#SVGID_135_);}
	.st138{fill:url(#SVGID_136_);}
	.st139{fill:url(#SVGID_137_);}
	.st140{fill:url(#SVGID_138_);}
	.st141{fill:url(#SVGID_139_);}
	.st142{fill:url(#SVGID_140_);}
	.st143{fill:url(#SVGID_141_);}
	.st144{fill:url(#SVGID_142_);}
	.st145{fill:url(#SVGID_143_);}
	.st146{fill:url(#SVGID_144_);}
	.st147{fill:url(#SVGID_145_);}
	.st148{fill:url(#SVGID_146_);}
	.st149{fill:url(#SVGID_147_);}
	.st150{fill:url(#SVGID_148_);}
	.st151{fill:url(#SVGID_149_);}
	.st152{fill:url(#SVGID_150_);}
	.st153{fill:url(#SVGID_151_);}
	.st154{fill:url(#SVGID_152_);}
	.st155{fill:url(#SVGID_153_);}
	.st156{fill:url(#SVGID_154_);}
	.st157{fill:url(#SVGID_155_);}
	.st158{fill:url(#SVGID_156_);}
	.st159{fill:url(#SVGID_157_);}
	.st160{fill:url(#SVGID_158_);}
	.st161{fill:url(#SVGID_159_);}
	.st162{fill:url(#SVGID_160_);}
	.st163{fill:url(#SVGID_161_);}
	.st164{fill:url(#SVGID_162_);}
	.st165{fill:url(#SVGID_163_);}
	.st166{fill:url(#SVGID_164_);}
	.st167{fill:url(#SVGID_165_);}
	.st168{fill:url(#SVGID_166_);}
	.st169{fill:url(#SVGID_167_);}
	.st170{fill:url(#SVGID_168_);}
	.st171{fill:url(#SVGID_169_);}
	.st172{fill:url(#SVGID_170_);}
	.st173{fill:url(#SVGID_171_);}
	.st174{fill:url(#SVGID_172_);}
	.st175{fill:url(#SVGID_173_);}
	.st176{fill:url(#SVGID_174_);}
	.st177{fill:url(#SVGID_175_);}
	.st178{fill:url(#SVGID_176_);}
	.st179{fill:url(#SVGID_177_);}
	.st180{fill:url(#SVGID_178_);}
	.st181{fill:url(#SVGID_179_);}
	.st182{fill:url(#SVGID_180_);}
	.st183{fill:url(#SVGID_181_);}
	.st184{fill:url(#SVGID_182_);}
	.st185{fill:url(#SVGID_183_);}
	.st186{fill:url(#SVGID_184_);}
	.st187{fill:url(#SVGID_185_);}
	.st188{fill:url(#SVGID_186_);}
	.st189{fill:url(#SVGID_187_);}
	.st190{fill:url(#SVGID_188_);}
	.st191{fill:url(#SVGID_189_);}
	.st192{fill:url(#SVGID_190_);}
	.st193{fill:url(#SVGID_191_);}
	.st194{fill:url(#SVGID_192_);}
	.st195{fill:url(#SVGID_193_);}
	.st196{fill:url(#SVGID_194_);}
	.st197{fill:url(#SVGID_195_);}
	.st198{fill:url(#SVGID_196_);}
	.st199{fill:url(#SVGID_197_);}
	.st200{fill:url(#SVGID_198_);}
	.st201{fill:url(#SVGID_199_);}
	.st202{fill:url(#SVGID_200_);}
	.st203{fill:url(#SVGID_201_);}
	.st204{fill:url(#SVGID_202_);}
	.st205{fill:url(#SVGID_203_);}
	.st206{fill:url(#SVGID_204_);}
	.st207{fill:url(#SVGID_205_);}
	.st208{fill:url(#SVGID_206_);}
	.st209{fill:url(#SVGID_207_);}
	.st210{fill:url(#SVGID_208_);}
	.st211{fill:url(#SVGID_209_);}
	.st212{fill:url(#SVGID_210_);}
	.st213{fill:url(#SVGID_211_);}
	.st214{fill:url(#SVGID_212_);}
	.st215{fill:url(#SVGID_213_);}
	.st216{fill:url(#SVGID_214_);}
	.st217{fill:url(#SVGID_215_);}
	.st218{fill:url(#SVGID_216_);}
	.st219{fill:url(#SVGID_217_);}
	.st220{fill:url(#SVGID_218_);}
	.st221{fill:url(#SVGID_219_);}
	.st222{fill:url(#SVGID_220_);}
	.st223{fill:url(#SVGID_221_);}
	.st224{fill:url(#SVGID_222_);}
	.st225{fill:url(#SVGID_223_);}
	.st226{fill:url(#SVGID_224_);}
	.st227{fill:url(#SVGID_225_);}
	.st228{fill:url(#SVGID_226_);}
	.st229{fill:url(#SVGID_227_);}
	.st230{fill:url(#SVGID_228_);}
	.st231{fill:url(#SVGID_229_);}
	.st232{fill:url(#SVGID_230_);}
	.st233{fill:url(#SVGID_231_);}
	.st234{fill:url(#SVGID_232_);}
	.st235{fill:url(#SVGID_233_);}
	.st236{fill:url(#SVGID_234_);}
	.st237{fill:url(#SVGID_235_);}
	.st238{fill:url(#SVGID_236_);}
	.st239{fill:url(#SVGID_237_);}
	.st240{fill:url(#SVGID_238_);}
	.st241{fill:url(#SVGID_239_);}
	.st242{fill:url(#SVGID_240_);}
	.st243{fill:url(#SVGID_241_);}
	.st244{fill:url(#SVGID_242_);}
	.st245{fill:url(#SVGID_243_);}
	.st246{fill:url(#SVGID_244_);}
	.st247{fill:url(#SVGID_245_);}
	.st248{fill:url(#SVGID_246_);}
	.st249{fill:url(#SVGID_247_);}
</style>
<g>
	<path class="st0" d="M11.38,3.34c0-0.24-0.09-0.48-0.26-0.65c-0.39-0.41-1.18-1.11-2.01-1.14C8,1.51,6.99,2.02,6.66,2.79
		C6.49,3.16,6.44,3.71,6.81,4.41C6.34,4.22,5.8,4.29,5.4,4.6C4.67,5.16,4.5,6.39,4.83,7.07C4.87,7.14,4.91,7.22,4.95,7.3
		C4.67,7.32,4.4,7.41,4.16,7.56C3.93,7.72,3.74,7.94,3.62,8.19c-0.28,0.49-0.33,1.07-0.16,1.6c-0.82,0.47-1.11,1.52-0.65,2.56
		c0.16,0.37,0.43,0.67,0.78,0.87c-0.17,0.05-0.33,0.14-0.46,0.27c-0.54,0.57-0.79,1.35-0.69,2.13c0.08,0.79,0.46,1.5,1,1.85
		c0.19,0.12,0.42,0.14,0.62,0.07c-0.2,0.33-0.26,0.73-0.17,1.11c0.17,0.68,0.93,1.25,2.3,1.74c0.52,1.86,1.94,2.11,2.54,2.13h0.22
		c1.01-0.04,1.93-0.57,2.16-1.26c0.13-0.4,0.2-2.22,0.25-4.59l0,0c0-0.02,0-0.03,0-0.05C11.44,11.91,11.4,5.18,11.38,3.34
		L11.38,3.34z M10.65,21.09c-0.13,0.4-0.7,0.8-1.42,0.91c0.11-0.7,0.19-2.05,0.06-2.47C9.14,19,8.31,18.28,8.21,18.2h0
		c-0.1-0.08-0.25-0.07-0.33,0.03c-0.08,0.1-0.07,0.25,0.03,0.33c0.32,0.27,0.85,0.8,0.93,1.09c0.11,0.37,0.01,1.82-0.09,2.37
		c-1.51-0.05-1.99-1.35-2.13-1.9c-0.02-0.08-0.08-0.14-0.15-0.17c-1.27-0.44-1.99-0.92-2.12-1.45c-0.15-0.61,0.47-1.29,1.01-1.89
		c0.17-0.19,0.34-0.37,0.48-0.54v0c0.08-0.1,0.06-0.25-0.04-0.33c-0.1-0.08-0.25-0.06-0.33,0.04c-0.06,0.08-0.12,0.15-0.19,0.22
		v0.01c-0.59,0.66-1.31,1.21-1.57,1.04c-0.43-0.27-0.74-0.86-0.81-1.51c-0.08-0.64,0.12-1.28,0.56-1.75
		c0.22-0.22,0.64-0.22,1.29-0.21h0.29c0.1,0,0.2-0.07,0.23-0.16c0.03-0.1-0.01-0.21-0.09-0.26c-0.1-0.05-0.22-0.08-0.33-0.08
		c-0.44-0.05-1.25-0.15-1.6-0.93c-0.3-0.69-0.24-1.55,0.42-1.95h0c0.24,0.37,0.57,0.67,0.96,0.88c0.05,0.05,0.12,0.08,0.19,0.07
		c0.07-0.01,0.14-0.05,0.17-0.11c0.04-0.06,0.04-0.14,0.02-0.21c-0.03-0.07-0.08-0.12-0.15-0.14c-1.17-0.69-1.17-1.66-0.82-2.29
		c0.25-0.46,0.75-0.79,1.22-0.56c0.66,1.13,1.59,2.45,2.24,2.74c-0.05,0.02-0.1,0.06-0.12,0.11c-0.06,0.12-0.59,1.22-0.66,1.64
		c-0.02,0.13,0.06,0.25,0.19,0.27h0.04h0c0.11,0,0.2-0.09,0.22-0.2c0.16-0.52,0.37-1.03,0.62-1.51c0.04-0.07,0.04-0.15,0-0.22
		c0.48,0.12,0.98,0.08,1.44-0.11c0.12-0.05,0.17-0.19,0.12-0.31c-0.05-0.12-0.19-0.17-0.31-0.12c-0.43,0.18-0.92,0.18-1.35,0
		C7.06,9.88,5.9,8.19,5.24,6.85C4.99,6.35,5.15,5.36,5.68,4.95c0.59-0.46,1.37,0,1.91,0.47h0c0.1,0.09,0.24,0.08,0.33-0.01
		c0.09-0.1,0.08-0.24-0.01-0.33c-0.8-0.8-1.09-1.55-0.84-2.12C7.33,2.39,8.18,1.97,9.08,2c0.69,0.02,1.41,0.71,1.69,1v0
		c0.08,0.09,0.13,0.21,0.13,0.33c0,1.48,0.02,3.23,0.02,5.03c-0.23-0.23-0.51-0.41-0.82-0.53C9.68,7.65,9.23,7.55,8.78,7.54
		c-0.13,0-0.23,0.1-0.23,0.23C8.54,7.9,8.65,8,8.78,8c0.47,0,1.85,0.28,2.09,1.18v0c0.01,0.03,0.02,0.05,0.04,0.08
		c0,1.24,0,2.5-0.01,3.71c-0.38,0.11-1.45-0.18-1.67-0.31v0c-0.11-0.05-0.24,0-0.3,0.1C8.87,12.87,8.9,13.01,9,13.07
		c0.53,0.22,1.09,0.36,1.66,0.38c0.08,0,0.16-0.01,0.23-0.02c0,1.05-0.02,2.06-0.04,2.97c-0.46,0.08-1.62,0.16-2.18-0.13H8.67
		c-0.55-0.22-1.16-1.33-1.34-1.87h0c-0.05-0.11-0.17-0.16-0.29-0.13c-0.11,0.04-0.18,0.16-0.15,0.27c0.18,0.54,0.83,1.83,1.6,2.15h0
		c0.46,0.19,0.96,0.28,1.45,0.26c0.31,0,0.63-0.02,0.94-0.07C10.83,19.13,10.76,20.75,10.65,21.09L10.65,21.09z"/>
	<linearGradient id="SVGID_1_" gradientUnits="userSpaceOnUse" x1="2.4185" y1="12.0232" x2="11.4037" y2="12.0232">
		<stop  offset="0" style="stop-color:#10BEF0"/>
		<stop  offset="1" style="stop-color:#10BEF0;stop-opacity:0"/>
	</linearGradient>
	<path class="st2" d="M11.38,3.34c0-0.24-0.09-0.48-0.26-0.65c-0.39-0.41-1.18-1.11-2.01-1.14C8,1.51,6.99,2.02,6.66,2.79
		C6.49,3.16,6.44,3.71,6.81,4.41C6.34,4.22,5.8,4.29,5.4,4.6C4.67,5.16,4.5,6.39,4.83,7.07C4.87,7.14,4.91,7.22,4.95,7.3
		C4.67,7.32,4.4,7.41,4.16,7.56C3.93,7.72,3.74,7.94,3.62,8.19c-0.28,0.49-0.33,1.07-0.16,1.6c-0.82,0.47-1.11,1.52-0.65,2.56
		c0.16,0.37,0.43,0.67,0.78,0.87c-0.17,0.05-0.33,0.14-0.46,0.27c-0.54,0.57-0.79,1.35-0.69,2.13c0.08,0.79,0.46,1.5,1,1.85
		c0.19,0.12,0.42,0.14,0.62,0.07c-0.2,0.33-0.26,0.73-0.17,1.11c0.17,0.68,0.93,1.25,2.3,1.74c0.52,1.86,1.94,2.11,2.54,2.13h0.22
		c1.01-0.04,1.93-0.57,2.16-1.26c0.13-0.4,0.2-2.22,0.25-4.59l0,0c0-0.02,0-0.03,0-0.05C11.44,11.91,11.4,5.18,11.38,3.34
		L11.38,3.34z M10.65,21.09c-0.13,0.4-0.7,0.8-1.42,0.91c0.11-0.7,0.19-2.05,0.06-2.47C9.14,19,8.31,18.28,8.21,18.2h0
		c-0.1-0.08-0.25-0.07-0.33,0.03c-0.08,0.1-0.07,0.25,0.03,0.33c0.32,0.27,0.85,0.8,0.93,1.09c0.11,0.37,0.01,1.82-0.09,2.37
		c-1.51-0.05-1.99-1.35-2.13-1.9c-0.02-0.08-0.08-0.14-0.15-0.17c-1.27-0.44-1.99-0.92-2.12-1.45c-0.15-0.61,0.47-1.29,1.01-1.89
		c0.17-0.19,0.34-0.37,0.48-0.54v0c0.08-0.1,0.06-0.25-0.04-0.33c-0.1-0.08-0.25-0.06-0.33,0.04c-0.06,0.08-0.12,0.15-0.19,0.22
		v0.01c-0.59,0.66-1.31,1.21-1.57,1.04c-0.43-0.27-0.74-0.86-0.81-1.51c-0.08-0.64,0.12-1.28,0.56-1.75
		c0.22-0.22,0.64-0.22,1.29-0.21h0.29c0.1,0,0.2-0.07,0.23-0.16c0.03-0.1-0.01-0.21-0.09-0.26c-0.1-0.05-0.22-0.08-0.33-0.08
		c-0.44-0.05-1.25-0.15-1.6-0.93c-0.3-0.69-0.24-1.55,0.42-1.95h0c0.24,0.37,0.57,0.67,0.96,0.88c0.05,0.05,0.12,0.08,0.19,0.07
		c0.07-0.01,0.14-0.05,0.17-0.11c0.04-0.06,0.04-0.14,0.02-0.21c-0.03-0.07-0.08-0.12-0.15-0.14c-1.17-0.69-1.17-1.66-0.82-2.29
		c0.25-0.46,0.75-0.79,1.22-0.56c0.66,1.13,1.59,2.45,2.24,2.74c-0.05,0.02-0.1,0.06-0.12,0.11c-0.06,0.12-0.59,1.22-0.66,1.64
		c-0.02,0.13,0.06,0.25,0.19,0.27h0.04h0c0.11,0,0.2-0.09,0.22-0.2c0.16-0.52,0.37-1.03,0.62-1.51c0.04-0.07,0.04-0.15,0-0.22
		c0.48,0.12,0.98,0.08,1.44-0.11c0.12-0.05,0.17-0.19,0.12-0.31c-0.05-0.12-0.19-0.17-0.31-0.12c-0.43,0.18-0.92,0.18-1.35,0
		C7.06,9.88,5.9,8.19,5.24,6.85C4.99,6.35,5.15,5.36,5.68,4.95c0.59-0.46,1.37,0,1.91,0.47h0c0.1,0.09,0.24,0.08,0.33-0.01
		c0.09-0.1,0.08-0.24-0.01-0.33c-0.8-0.8-1.09-1.55-0.84-2.12C7.33,2.39,8.18,1.97,9.08,2c0.69,0.02,1.41,0.71,1.69,1v0
		c0.08,0.09,0.13,0.21,0.13,0.33c0,1.48,0.02,3.23,0.02,5.03c-0.23-0.23-0.51-0.41-0.82-0.53C9.68,7.65,9.23,7.55,8.78,7.54
		c-0.13,0-0.23,0.1-0.23,0.23C8.54,7.9,8.65,8,8.78,8c0.47,0,1.85,0.28,2.09,1.18v0c0.01,0.03,0.02,0.05,0.04,0.08
		c0,1.24,0,2.5-0.01,3.71c-0.38,0.11-1.45-0.18-1.67-0.31v0c-0.11-0.05-0.24,0-0.3,0.1C8.87,12.87,8.9,13.01,9,13.07
		c0.53,0.22,1.09,0.36,1.66,0.38c0.08,0,0.16-0.01,0.23-0.02c0,1.05-0.02,2.06-0.04,2.97c-0.46,0.08-1.62,0.16-2.18-0.13H8.67
		c-0.55-0.22-1.16-1.33-1.34-1.87h0c-0.05-0.11-0.17-0.16-0.29-0.13c-0.11,0.04-0.18,0.16-0.15,0.27c0.18,0.54,0.83,1.83,1.6,2.15h0
		c0.46,0.19,0.96,0.28,1.45,0.26c0.31,0,0.63-0.02,0.94-0.07C10.83,19.13,10.76,20.75,10.65,21.09L10.65,21.09z"/>
	<path class="st0" d="M16.68,6c-0.08-0.04-0.17-0.06-0.27-0.06c-0.18,0-0.36,0.08-0.47,0.22c-0.12,0.14-0.16,0.33-0.12,0.51
		c0.04,0.18,0.16,0.33,0.33,0.41v2.08c-0.17,0.08-0.29,0.24-0.32,0.42c-0.04,0.18,0.01,0.37,0.14,0.51c0.12,0.14,0.3,0.22,0.49,0.21
		c0.19-0.01,0.36-0.11,0.46-0.26c0.1-0.16,0.13-0.35,0.07-0.53c-0.06-0.18-0.2-0.32-0.37-0.38V7.11c0.15-0.05,0.27-0.16,0.34-0.3
		c0.07-0.14,0.08-0.3,0.03-0.45l1.17-1.02h0c0.12,0.06,0.27,0.08,0.4,0.05l1.28,1.49c-0.04,0.08-0.07,0.17-0.07,0.27
		c0,0.16,0.06,0.31,0.18,0.43c0.11,0.11,0.27,0.18,0.43,0.18c0.16,0,0.31-0.06,0.43-0.18c0.11-0.11,0.18-0.27,0.18-0.43
		c0-0.16-0.06-0.31-0.18-0.43c-0.11-0.11-0.27-0.18-0.43-0.18c-0.06,0-0.12,0.01-0.18,0.03l-1.25-1.47c0.11-0.18,0.12-0.4,0.04-0.58
		c-0.09-0.19-0.27-0.32-0.47-0.34c-0.21-0.03-0.41,0.06-0.54,0.22c-0.13,0.16-0.17,0.38-0.11,0.57L16.68,6z"/>
	<path class="st0" d="M16.16,14.66l-0.58-0.74c0.11-0.16,0.14-0.36,0.08-0.54c-0.06-0.18-0.2-0.33-0.38-0.39
		c-0.18-0.06-0.38-0.04-0.54,0.07c-0.16,0.11-0.26,0.28-0.28,0.47c-0.01,0.19,0.06,0.38,0.21,0.51c0.14,0.13,0.34,0.18,0.53,0.14
		l0.75,0.95h1.47v0.85c-0.17,0.07-0.3,0.22-0.35,0.4c-0.05,0.18-0.01,0.37,0.11,0.52c0.11,0.15,0.29,0.24,0.48,0.24
		c0.19,0,0.36-0.09,0.48-0.24c0.11-0.15,0.15-0.34,0.11-0.52c-0.05-0.18-0.18-0.33-0.35-0.4v-0.85h0.92l2,1.46l-0.68,1.63h-2.26
		c-0.06-0.18-0.2-0.31-0.38-0.37c-0.18-0.06-0.37-0.03-0.53,0.07c-0.16,0.11-0.25,0.28-0.26,0.46c-0.01,0.19,0.06,0.37,0.21,0.49
		c0.14,0.12,0.33,0.17,0.51,0.14c0.18-0.04,0.34-0.16,0.42-0.32h2.6l0.94-2.26l-2.43-1.77L16.16,14.66z"/>
	
		<linearGradient id="SVGID_2_" gradientUnits="userSpaceOnUse" x1="14.915" y1="17.6572" x2="16.1469" y2="17.6572" gradientTransform="matrix(0.5 0.866 0.866 -0.5 -7.9969 8.9467)">
		<stop  offset="0" style="stop-color:#10BEF0"/>
		<stop  offset="1" style="stop-color:#10BEF0;stop-opacity:0"/>
	</linearGradient>
	<circle class="st3" cx="15.06" cy="13.57" r="0.62"/>
	
		<linearGradient id="SVGID_3_" gradientUnits="userSpaceOnUse" x1="16.4535" y1="18.7546" x2="17.6612" y2="18.7546" gradientTransform="matrix(-6.123234e-17 -1 1 -6.123234e-17 -1.1216 33.5948)">
		<stop  offset="0" style="stop-color:#10BEF0"/>
		<stop  offset="1" style="stop-color:#10BEF0;stop-opacity:0"/>
	</linearGradient>
	<circle class="st4" cx="17.63" cy="16.54" r="0.6"/>
	
		<linearGradient id="SVGID_4_" gradientUnits="userSpaceOnUse" x1="14.5871" y1="19.1074" x2="15.7948" y2="19.1074" gradientTransform="matrix(1 0 0 1 2.0913 -0.6937)">
		<stop  offset="0" style="stop-color:#10BEF0"/>
		<stop  offset="1" style="stop-color:#10BEF0;stop-opacity:0"/>
	</linearGradient>
	<circle class="st5" cx="17.28" cy="18.41" r="0.6"/>
	<path class="st0" d="M18.82,8.42c0-0.02,0-0.05,0-0.07c0-0.19-0.08-0.36-0.23-0.48c-0.14-0.12-0.33-0.16-0.51-0.12
		c-0.18,0.04-0.33,0.16-0.42,0.32c-0.08,0.17-0.09,0.36-0.01,0.53c0.08,0.17,0.23,0.29,0.41,0.34c0.18,0.04,0.37,0,0.52-0.11
		l2.52,1.18v0.82l-1.91-0.01l-1.07,1.12c-0.06-0.02-0.12-0.03-0.17-0.03c-0.16,0-0.31,0.07-0.42,0.18
		c-0.11,0.11-0.17,0.27-0.17,0.43s0.07,0.31,0.18,0.42c0.11,0.11,0.27,0.17,0.43,0.17c0.16,0,0.31-0.07,0.42-0.18
		c0.11-0.11,0.18-0.27,0.18-0.43c0-0.1-0.02-0.19-0.07-0.27l0.91-0.95l1.71,0.01l0,1.69l-0.61,0.66h0c-0.17-0.08-0.37-0.08-0.55,0
		c-0.17,0.09-0.29,0.25-0.33,0.43c-0.04,0.19,0.02,0.38,0.14,0.53c0.13,0.14,0.31,0.22,0.5,0.21c0.19-0.01,0.37-0.11,0.47-0.27
		c0.11-0.16,0.13-0.36,0.07-0.54l0.77-0.82V9.71L18.82,8.42z"/>
	
		<linearGradient id="SVGID_5_" gradientUnits="userSpaceOnUse" x1="15.2567" y1="13.0992" x2="16.4643" y2="13.0992" gradientTransform="matrix(0.8061 -0.5918 0.5918 0.8061 -2.5782 11.337)">
		<stop  offset="0" style="stop-color:#10BEF0"/>
		<stop  offset="1" style="stop-color:#10BEF0;stop-opacity:0"/>
	</linearGradient>
	<circle class="st6" cx="17.96" cy="12.51" r="0.6"/>
	
		<linearGradient id="SVGID_6_" gradientUnits="userSpaceOnUse" x1="16.0648" y1="15.8099" x2="17.3003" y2="15.8099" gradientTransform="matrix(0.8061 -0.5918 0.5918 0.8061 -2.5782 11.337)">
		<stop  offset="0" style="stop-color:#10BEF0"/>
		<stop  offset="1" style="stop-color:#10BEF0;stop-opacity:0"/>
	</linearGradient>
	<circle class="st7" cx="20.23" cy="14.21" r="0.62"/>
	
		<linearGradient id="SVGID_7_" gradientUnits="userSpaceOnUse" x1="17.7843" y1="9.9093" x2="19.0039" y2="9.9093" gradientTransform="matrix(0.8289 0.5594 -0.5594 0.8289 8.5041 -10.1568)">
		<stop  offset="0" style="stop-color:#10BEF0"/>
		<stop  offset="1" style="stop-color:#10BEF0;stop-opacity:0"/>
	</linearGradient>
	<circle class="st8" cx="18.21" cy="8.35" r="0.61"/>
	
		<linearGradient id="SVGID_8_" gradientUnits="userSpaceOnUse" x1="17.0443" y1="12.0296" x2="18.2521" y2="12.0296" gradientTransform="matrix(-9.645063e-16 -1 1 -9.645063e-16 4.3821 27.3454)">
		<stop  offset="0" style="stop-color:#10BEF0"/>
		<stop  offset="1" style="stop-color:#10BEF0;stop-opacity:0"/>
	</linearGradient>
	<circle class="st9" cx="16.41" cy="9.7" r="0.6"/>
	
		<linearGradient id="SVGID_9_" gradientUnits="userSpaceOnUse" x1="19.5929" y1="15.9875" x2="20.8007" y2="15.9875" gradientTransform="matrix(-0.3863 -0.9224 0.9224 -0.3863 13.4239 31.9532)">
		<stop  offset="0" style="stop-color:#10BEF0"/>
		<stop  offset="1" style="stop-color:#10BEF0;stop-opacity:0"/>
	</linearGradient>
	<circle class="st10" cx="20.37" cy="7.15" r="0.6"/>
	
		<linearGradient id="SVGID_10_" gradientUnits="userSpaceOnUse" x1="22.5378" y1="15.106" x2="23.7456" y2="15.106" gradientTransform="matrix(0.1709 0.9944 -0.9944 0.1709 29.4939 -20.8042)">
		<stop  offset="0" style="stop-color:#10BEF0"/>
		<stop  offset="1" style="stop-color:#10BEF0;stop-opacity:0"/>
	</linearGradient>
	<circle class="st11" cx="18.43" cy="4.79" r="0.61"/>
	
		<linearGradient id="SVGID_11_" gradientUnits="userSpaceOnUse" x1="15.2863" y1="9.4175" x2="16.4884" y2="9.4175" gradientTransform="matrix(0.8376 0.5653 -0.5594 0.8289 8.3712 -10.2465)">
		<stop  offset="0" style="stop-color:#10BEF0"/>
		<stop  offset="1" style="stop-color:#10BEF0;stop-opacity:0"/>
	</linearGradient>
	<path class="st12" d="M16.91,6.88c-0.19,0.28-0.56,0.35-0.84,0.16c-0.28-0.19-0.35-0.56-0.17-0.84c0.19-0.28,0.56-0.35,0.84-0.16
		C17.02,6.23,17.1,6.6,16.91,6.88z"/>
	<path class="st0" d="M18.76,19.49c-0.15,0-0.29,0.05-0.4,0.15c-0.11,0.1-0.18,0.23-0.2,0.37c-0.02,0.14,0.01,0.29,0.1,0.41
		l-1.13,1.55h-1.66v-2.13c0.17-0.07,0.3-0.22,0.35-0.4c0.05-0.18,0.01-0.37-0.11-0.52c-0.11-0.15-0.29-0.24-0.48-0.24
		c-0.19,0-0.36,0.09-0.48,0.24c-0.11,0.15-0.15,0.34-0.11,0.52c0.05,0.18,0.18,0.33,0.35,0.4v2.13h-0.64l-1.64-1.74l0.03-3.28h1.17
		c0.07,0.17,0.22,0.3,0.4,0.35c0.18,0.05,0.37,0.01,0.52-0.11s0.24-0.29,0.24-0.48c0-0.19-0.09-0.36-0.24-0.48
		c-0.15-0.11-0.34-0.15-0.52-0.11c-0.18,0.05-0.33,0.18-0.4,0.35h-1.16l0.03-2.9c0.17-0.08,0.29-0.24,0.32-0.42
		c0.04-0.18-0.01-0.37-0.14-0.51c-0.12-0.14-0.3-0.22-0.49-0.21c-0.19,0.01-0.36,0.11-0.46,0.26c-0.11,0.15-0.13,0.35-0.08,0.53
		c0.06,0.18,0.19,0.32,0.37,0.38l-0.06,6.81l1.91,2.02h3.21l1.28-1.76h0c0.17,0.03,0.34-0.01,0.48-0.11
		c0.14-0.1,0.22-0.26,0.24-0.43c0.02-0.17-0.04-0.34-0.16-0.46C19.09,19.56,18.93,19.49,18.76,19.49L18.76,19.49z"/>
	
		<linearGradient id="SVGID_12_" gradientUnits="userSpaceOnUse" x1="13.8695" y1="16.7248" x2="15.0772" y2="16.7248" gradientTransform="matrix(-1 0 0 1 28.9499 0)">
		<stop  offset="0" style="stop-color:#10BEF0"/>
		<stop  offset="1" style="stop-color:#10BEF0;stop-opacity:0"/>
	</linearGradient>
	<circle class="st13" cx="14.48" cy="16.72" r="0.6"/>
	
		<linearGradient id="SVGID_13_" gradientUnits="userSpaceOnUse" x1="15.2404" y1="13.6393" x2="16.4481" y2="13.6393" gradientTransform="matrix(-6.123234e-17 1 1 6.123234e-17 -1.1216 -2.7928)">
		<stop  offset="0" style="stop-color:#10BEF0"/>
		<stop  offset="1" style="stop-color:#10BEF0;stop-opacity:0"/>
	</linearGradient>
	<circle class="st14" cx="12.52" cy="13.05" r="0.6"/>
	
		<linearGradient id="SVGID_14_" gradientUnits="userSpaceOnUse" x1="14.6267" y1="19.2913" x2="15.8376" y2="19.2913" gradientTransform="matrix(5.551115e-17 1 -1 5.551115e-17 34.5234 4.0592)">
		<stop  offset="0" style="stop-color:#10BEF0"/>
		<stop  offset="1" style="stop-color:#10BEF0;stop-opacity:0"/>
	</linearGradient>
	<circle class="st15" cx="15.23" cy="19.29" r="0.61"/>
	
		<linearGradient id="SVGID_15_" gradientUnits="userSpaceOnUse" x1="15.422" y1="15.7607" x2="16.633" y2="15.7607" gradientTransform="matrix(-0.5 0.866 -0.866 -0.5 40.4256 14.0868)">
		<stop  offset="0" style="stop-color:#10BEF0"/>
		<stop  offset="1" style="stop-color:#10BEF0;stop-opacity:0"/>
	</linearGradient>
	<circle class="st16" cx="18.76" cy="20.09" r="0.61"/>
	<path class="st0" d="M12.25,3.32v8.18h2.32c0.06,0.18,0.2,0.31,0.38,0.37s0.37,0.03,0.53-0.07c0.15-0.11,0.25-0.28,0.26-0.46
		c0.01-0.19-0.06-0.37-0.21-0.49c-0.14-0.12-0.33-0.17-0.51-0.14c-0.18,0.04-0.34,0.16-0.42,0.32h-1.88V8.16h1.41
		c0.08,0.17,0.24,0.28,0.42,0.32c0.18,0.04,0.37-0.02,0.51-0.14c0.14-0.12,0.21-0.31,0.2-0.49c-0.01-0.19-0.11-0.36-0.27-0.46
		c-0.16-0.1-0.35-0.13-0.53-0.07c-0.18,0.06-0.32,0.2-0.38,0.37h-1.38V3.35c0.12-0.04,0.22-0.12,0.29-0.22
		c0.07-0.1,0.11-0.22,0.11-0.35V2.76l1.99-0.7l0.97,1.4c0,0.02,0,0.05,0,0.07c0,0.08,0.02,0.15,0.05,0.22l-1.11,1.11h0
		c-0.09-0.04-0.18-0.07-0.28-0.07c-0.16,0-0.31,0.06-0.43,0.18c-0.11,0.11-0.18,0.27-0.18,0.43c0,0.16,0.06,0.31,0.18,0.43
		c0.11,0.11,0.27,0.18,0.43,0.18s0.31-0.06,0.43-0.18c0.11-0.11,0.18-0.27,0.18-0.43c0-0.05-0.01-0.11-0.02-0.16l1.23-1.13v0
		c0.2,0.05,0.41,0,0.56-0.15c0.15-0.14,0.22-0.35,0.18-0.55c-0.04-0.2-0.18-0.37-0.37-0.45c-0.19-0.08-0.41-0.05-0.58,0.07L15.3,1.5
		l-2.38,0.83c-0.13-0.11-0.3-0.16-0.47-0.14c-0.17,0.02-0.32,0.12-0.42,0.26c-0.1,0.14-0.13,0.32-0.08,0.49
		C11.98,3.11,12.1,3.25,12.25,3.32L12.25,3.32z"/>
	
		<linearGradient id="SVGID_16_" gradientUnits="userSpaceOnUse" x1="16.7588" y1="14.1557" x2="17.9784" y2="14.1557" gradientTransform="matrix(-0.8192 0.5529 0.5529 0.8192 21.5423 -9.8962)">
		<stop  offset="0" style="stop-color:#10BEF0"/>
		<stop  offset="1" style="stop-color:#10BEF0;stop-opacity:0"/>
	</linearGradient>
	<circle class="st17" cx="15.14" cy="11.3" r="0.6"/>
	
		<linearGradient id="SVGID_17_" gradientUnits="userSpaceOnUse" x1="15.2187" y1="11.0216" x2="16.4435" y2="11.0216" gradientTransform="matrix(-0.883 0.4438 0.4438 0.883 23.7546 -8.8737)">
		<stop  offset="0" style="stop-color:#10BEF0"/>
		<stop  offset="1" style="stop-color:#10BEF0;stop-opacity:0"/>
	</linearGradient>
	<circle class="st18" cx="14.67" cy="7.89" r="0.61"/>
	
		<linearGradient id="SVGID_18_" gradientUnits="userSpaceOnUse" x1="14.9021" y1="9.4138" x2="16.1227" y2="9.4138" gradientTransform="matrix(0.5495 -0.8215 -0.8215 -0.5495 13.9583 23.3009)">
		<stop  offset="0" style="stop-color:#10BEF0"/>
		<stop  offset="1" style="stop-color:#10BEF0;stop-opacity:0"/>
	</linearGradient>
	<circle class="st19" cx="14.75" cy="5.39" r="0.6"/>
	
		<linearGradient id="SVGID_19_" gradientUnits="userSpaceOnUse" x1="15.8356" y1="12.7528" x2="17.0562" y2="12.7528" gradientTransform="matrix(0.8735 0.4623 -0.4623 0.8735 4.0488 -15.9594)">
		<stop  offset="0" style="stop-color:#10BEF0"/>
		<stop  offset="1" style="stop-color:#10BEF0;stop-opacity:0"/>
	</linearGradient>
	<circle class="st20" cx="12.52" cy="2.78" r="0.6"/>
	
		<linearGradient id="SVGID_20_" gradientUnits="userSpaceOnUse" x1="19.9014" y1="11.4196" x2="21.1391" y2="11.4196" gradientTransform="matrix(-0.8769 0.4546 0.4693 0.8687 29.3307 -15.7401)">
		<stop  offset="0" style="stop-color:#10BEF0"/>
		<stop  offset="1" style="stop-color:#10BEF0;stop-opacity:0"/>
	</linearGradient>
	<path class="st21" d="M16.15,3.78c0.16,0.3,0.53,0.41,0.83,0.26c0.22-0.12,0.34-0.35,0.32-0.58c0-0.04-0.01-0.13-0.07-0.24
		c-0.03-0.05-0.11-0.18-0.27-0.26c-0.19-0.09-0.41-0.07-0.59,0.04c-0.19,0.12-0.31,0.33-0.3,0.55C16.09,3.67,16.14,3.76,16.15,3.78z
		"/>
</g>
</svg>
