<svg id="Layer_1" data-name="Layer 1" xmlns="http://www.w3.org/2000/svg" xmlns:xlink="http://www.w3.org/1999/xlink" viewBox="0 0 128.51 124"><defs><style>.cls-1{fill:#002680;}.cls-2{opacity:0.65;}.cls-3{fill:url(#linear-gradient);}.cls-4{fill:#fff;}</style><linearGradient id="linear-gradient" x1="18.51" y1="61" x2="114.51" y2="61" gradientUnits="userSpaceOnUse"><stop offset="0" stop-color="#10bef0"/><stop offset="0.27" stop-color="#10bef0" stop-opacity="0.67"/><stop offset="0.53" stop-color="#10bef0" stop-opacity="0.39"/><stop offset="0.75" stop-color="#10bef0" stop-opacity="0.18"/><stop offset="0.91" stop-color="#10bef0" stop-opacity="0.05"/><stop offset="1" stop-color="#10bef0" stop-opacity="0"/></linearGradient></defs><circle class="cls-1" cx="66.51" cy="61" r="48"/><g class="cls-2"><circle class="cls-3" cx="66.51" cy="61" r="48"/></g><path class="cls-4" d="M55.78,51.46h6a1.2,1.2,0,0,0,0-2.39h-6a1.2,1.2,0,1,0,0,2.39Z"/><path class="cls-4" d="M67.71,49.07h-1.2a1.2,1.2,0,0,0,0,2.39h1.2a1.2,1.2,0,0,0,0-2.39Z"/><path class="cls-4" d="M55.78,56.23H57a1.2,1.2,0,0,0,0-2.39H55.78a1.2,1.2,0,1,0,0,2.39Z"/><path class="cls-4" d="M67.71,53.84h-6a1.2,1.2,0,0,0,0,2.39h6a1.2,1.2,0,0,0,0-2.39Z"/><path class="cls-4" d="M55.78,61H67.71a1.2,1.2,0,0,0,0-2.39H55.78a1.2,1.2,0,1,0,0,2.39Z"/><path class="cls-4" d="M72.48,58.61V61a1.19,1.19,0,0,1-.35.84,1.16,1.16,0,0,1-.84.35,1.2,1.2,0,1,0,0,2.39A3.57,3.57,0,0,0,74.86,61V58.61a2.39,2.39,0,0,1,2.39-2.38,1.2,1.2,0,0,0,0-2.39,2.39,2.39,0,0,1-2.39-2.38V49.07a3.57,3.57,0,0,0-3.57-3.58,1.2,1.2,0,1,0,0,2.39,1.16,1.16,0,0,1,.84.35,1.19,1.19,0,0,1,.35.84v2.39A4.79,4.79,0,0,0,74.12,55a4.81,4.81,0,0,0-1.64,3.58Z"/><path class="cls-4" d="M51,51.46V49.07a1.19,1.19,0,0,1,1.2-1.19,1.2,1.2,0,0,0,0-2.39,3.62,3.62,0,0,0-2.54,1,3.57,3.57,0,0,0-1,2.53v2.38a2.39,2.39,0,0,1-2.39,2.39,1.2,1.2,0,0,0,0,2.39,2.39,2.39,0,0,1,1.69.7,2.35,2.35,0,0,1,.7,1.68V61a3.57,3.57,0,0,0,1,2.53,3.62,3.62,0,0,0,2.54,1,1.2,1.2,0,0,0,0-2.39A1.19,1.19,0,0,1,51,61V58.61A4.81,4.81,0,0,0,49.36,55,4.8,4.8,0,0,0,51,51.45Z"/><path class="cls-4" d="M96.34,52.65H84.41a3.58,3.58,0,0,0-3.58,3.58V80.09a3.58,3.58,0,0,0,3.58,3.58H96.34a3.58,3.58,0,0,0,3.58-3.58V56.23a3.58,3.58,0,0,0-3.58-3.58ZM83.22,59.81H97.53v16.7H83.22ZM84.41,55H96.34a1.2,1.2,0,0,1,1.19,1.2v1.19H83.22V56.23A1.19,1.19,0,0,1,84.41,55ZM96.34,81.28H84.41a1.19,1.19,0,0,1-1.19-1.19V78.9H97.53v1.19a1.2,1.2,0,0,1-1.19,1.19Z"/><path class="cls-4" d="M94,62.19H86.8a1.2,1.2,0,0,0-1.2,1.2v4.77A1.21,1.21,0,0,0,86,69a1.19,1.19,0,0,0,.85.35H94A1.19,1.19,0,0,0,94.8,69a1.21,1.21,0,0,0,.35-.84V63.39a1.2,1.2,0,0,0-1.2-1.2ZM92.76,67H88V64.58h4.77Z"/><path class="cls-4" d="M88,71.74H86.8a1.19,1.19,0,1,0,0,2.38H88a1.19,1.19,0,1,0,0-2.38Z"/><path class="cls-4" d="M94,71.74H92.76a1.19,1.19,0,0,0,0,2.38H94a1.19,1.19,0,1,0,0-2.38Z"/><path class="cls-4" d="M39.07,81.28a3.54,3.54,0,0,1-2.53-1,3.58,3.58,0,0,1-1-2.53V76.51H53.84l.87,1.73a1.2,1.2,0,0,0,1.06.66H67.71a1.2,1.2,0,0,0,1.06-.66l.87-1.73h8.8V74.12H68.9a1.21,1.21,0,0,0-1.06.66L67,76.51H56.51l-.87-1.73a1.21,1.21,0,0,0-1.06-.66H39.07V71.74H78.44V69.35H39.07V40.72H84.41v9.54H86.8V39.52a1.21,1.21,0,0,0-.35-.84,1.23,1.23,0,0,0-.85-.35H37.88a1.2,1.2,0,0,0-1.2,1.19v34.6H35.49a2.37,2.37,0,0,0-2.38,2.39V77.7a6,6,0,0,0,6,6H79.64a5.76,5.76,0,0,1-1.11-2.39Z"/></svg>