<svg xmlns="http://www.w3.org/2000/svg" xmlns:xlink="http://www.w3.org/1999/xlink" viewBox="0 0 1080 1080"><defs><style>.cls-1{isolation:isolate;}.cls-2{fill:#cecece;opacity:0.3;}.cls-3{fill:#2557a0;}.cls-4{fill:url(#linear-gradient);}.cls-23,.cls-5{fill:#fff;}.cls-10,.cls-22,.cls-6,.cls-9{fill:none;}.cls-10,.cls-6,.cls-9{stroke:#143c83;}.cls-10,.cls-22,.cls-23,.cls-6,.cls-9{stroke-miterlimit:10;}.cls-6{stroke-dasharray:4.99 4.99;}.cls-7{fill:#143c83;}.cls-17,.cls-8{fill:#089bcb;}.cls-22,.cls-9{stroke-dasharray:5;}.cls-10{stroke-dasharray:5.02 5.02;}.cls-11{fill:#493bb5;}.cls-12{fill:#4c303a;}.cls-13,.cls-16{fill:#ffb58c;}.cls-14{fill:#4198c4;}.cls-15{fill:#3162c4;}.cls-16{opacity:0.64;}.cls-16,.cls-17,.cls-19{mix-blend-mode:multiply;}.cls-17,.cls-19{opacity:0.49;}.cls-18{fill:#ffb400;}.cls-20{fill:#4a3333;}.cls-21{fill:#072560;}.cls-22,.cls-23{stroke:#cdd7f9;}</style><linearGradient id="linear-gradient" x1="447.28" y1="590.43" x2="612.5" y2="590.43" gradientUnits="userSpaceOnUse"><stop offset="0" stop-color="#089bcb"/><stop offset="1" stop-color="#143c83"/></linearGradient></defs><g class="cls-1"><g id="Layer_1" data-name="Layer 1"><path class="cls-2" d="M689.62,745.38c11.48,8.8,7.89,21.16-8,27.59s-38.1,4.52-49.58-4.29-7.89-21.16,8-27.59S678.14,736.57,689.62,745.38Z"/><path class="cls-2" d="M425.18,745.38c11.48,8.8,7.9,21.16-8,27.59s-38.11,4.52-49.59-4.29-7.89-21.16,8-27.59S413.71,736.57,425.18,745.38Z"/><ellipse id="_Path_" data-name="&lt;Path&gt;" class="cls-2" cx="524.66" cy="760.06" rx="162.38" ry="9.22"/><path class="cls-3" d="M670.3,496.28H648.63a24.37,24.37,0,0,1-24.37-24.37h0a24.38,24.38,0,0,1,24.37-24.38H670.3a24.39,24.39,0,0,1,24.38,24.38h0A24.38,24.38,0,0,1,670.3,496.28Z"/><path class="cls-3" d="M395.36,493.1H373.69a24.37,24.37,0,0,1-24.37-24.37h0a24.37,24.37,0,0,1,24.37-24.38h21.67a24.37,24.37,0,0,1,24.38,24.38h0A24.37,24.37,0,0,1,395.36,493.1Z"/><path class="cls-3" d="M545.39,416h-30.7a22.22,22.22,0,0,1-22.22-22.22h0a22.22,22.22,0,0,1,22.22-22.23h30.7a22.22,22.22,0,0,1,22.22,22.23h0A22.22,22.22,0,0,1,545.39,416Z"/><rect class="cls-4" x="447.28" y="422.74" width="165.21" height="335.38" rx="14.62"/><path class="cls-5" d="M606.47,444.38V740.07H453.61V444.38a15,15,0,0,1,15-15H501.2v7.49a5.93,5.93,0,0,0,5.93,5.92H553a5.93,5.93,0,0,0,5.93-5.92V429.4h32.61A15,15,0,0,1,606.47,444.38Z"/><rect class="cls-6" x="466.84" y="579" width="126.09" height="70.6" rx="8.02"/><rect class="cls-7" x="466.84" y="660.12" width="126.09" height="70.6" rx="8.02"/><path class="cls-8" d="M526.25,719h-48a5.58,5.58,0,0,1-5.59-5.58h0a5.59,5.59,0,0,1,5.59-5.59h48a5.59,5.59,0,0,1,5.59,5.59h0A5.58,5.58,0,0,1,526.25,719Z"/><path class="cls-9" d="M526.25,640.63h-48a5.58,5.58,0,0,1-5.59-5.58h0a5.59,5.59,0,0,1,5.59-5.59h48a5.59,5.59,0,0,1,5.59,5.59h0A5.58,5.58,0,0,1,526.25,640.63Z"/><rect class="cls-10" x="466.14" y="472.55" width="59.6" height="70.6" rx="5.51"/><rect class="cls-9" x="475.25" y="522.46" width="41.39" height="11.17" rx="4.22"/><rect class="cls-10" x="534.85" y="472.55" width="59.6" height="70.6" rx="5.51"/><rect class="cls-9" x="543.96" y="522.46" width="41.39" height="11.17" rx="4.22"/><path class="cls-8" d="M497.9,566.05H472.43a5.59,5.59,0,0,1-5.59-5.59h0a5.59,5.59,0,0,1,5.59-5.59H497.9a5.59,5.59,0,0,1,5.59,5.59h0A5.59,5.59,0,0,1,497.9,566.05Z"/><path class="cls-8" d="M542.63,566.05H517.15a5.58,5.58,0,0,1-5.58-5.59h0a5.59,5.59,0,0,1,5.58-5.59h25.48a5.59,5.59,0,0,1,5.58,5.59h0A5.58,5.58,0,0,1,542.63,566.05Z"/><path class="cls-8" d="M587.35,566.05H561.88a5.59,5.59,0,0,1-5.59-5.59h0a5.59,5.59,0,0,1,5.59-5.59h25.47a5.59,5.59,0,0,1,5.59,5.59h0A5.59,5.59,0,0,1,587.35,566.05Z"/><rect class="cls-8" x="473.73" y="587.96" width="104" height="1.54"/><rect class="cls-8" x="473.73" y="594.33" width="82.63" height="1.54"/><rect class="cls-8" x="473.73" y="600.71" width="90.93" height="1.54"/><rect class="cls-8" x="473.73" y="607.16" width="82.63" height="1.54"/><rect class="cls-8" x="473.73" y="613.53" width="90.93" height="1.54"/><rect class="cls-5" x="473.73" y="671.21" width="59.72" height="1.54"/><rect class="cls-11" x="473.73" y="677.58" width="38.35" height="1.54"/><rect class="cls-11" x="473.73" y="683.95" width="46.65" height="1.54"/><rect class="cls-11" x="473.73" y="690.4" width="38.35" height="1.54"/><rect class="cls-11" x="473.73" y="696.77" width="46.65" height="1.54"/><path class="cls-12" d="M676.29,526.63c-1-3.46-2.86-6.87-5.91-8.81a13.87,13.87,0,0,0-10.06-1.47,23.28,23.28,0,0,0-2.7.7,33,33,0,0,0-11,4.39,5.27,5.27,0,0,0-2.28,2.3,6.57,6.57,0,0,0,.11,3.67c1,4.86.43,9.88.12,14.82s-.37,10.07,1.46,14.67a18.53,18.53,0,0,1,27.92.49,112.19,112.19,0,0,0,3.28-15.27A38.15,38.15,0,0,0,676.29,526.63Z"/><path class="cls-12" d="M677.86,751.63c2.86.82,4.17.68,7.06,1.4.26.71,2.3,6.44-1.65,6.5l-18.57.33c-.66,0-1.45-.17-1.7-.78C661.61,755.76,673.73,752.65,677.86,751.63Z"/><path class="cls-12" d="M646.89,751.63c3.07-.4,4.17.68,7.05,1.4.27.71,2.31,6.44-1.64,6.5l-18.57.33c-.66,0-1.45-.17-1.7-.78C630.64,755.76,642.76,752.65,646.89,751.63Z"/><path class="cls-13" d="M597.22,533.35l5,4.45-.87.79c-5.16-3.68-3.91-.85-3.91-.85l6,4c3,5.48,6.82,6.25,6.82,6.25l6.17,27.2a7.53,7.53,0,0,0,10.42,4.5l6.52-3.14,1.39-.67L653.3,567a9.43,9.43,0,0,0,5.32-9,5.67,5.67,0,0,0-1.6-3.66h0c-2-1.33-4.48-2-6.31-1.33l-.36.17-18.57,9.21h0l-2,1-4.33,2.14c-2.62-4.67-10.87-20.3-10.87-20.3l1.29-2.79a7,7,0,0,0,.5-4.16,12.06,12.06,0,0,1,.43-6.11c-2.7-.28-2.56,5-2.56,5l-2,1-2.85-3.35c-3.93-11-5.33-7.45-5.33-7.45l3,7.28-1.21.66c-4.16-9.4-5.15-6.11-5.15-6.11l3.78,7-1.1.9C596.78,529.89,597.22,533.35,597.22,533.35Z"/><path class="cls-11" d="M637,574.71c2.72,2.62,5.43,5.26,8.31,7.71.59.51,1.22,1,1.86,1.44l.8-1.32L658.76,565c2-3.25,4.85-7.08,2.61-10.16-1.21-1.65-3.8-2.49-6.37-2.49h0c-2.43,0-4.84.75-6,2.31-.07.1-.14.22-.21.33l-10.6,17.82h0Z"/><path class="cls-13" d="M684.92,753s-7-1.12-7.06-1.4l-12.28-40a150.09,150.09,0,0,1-4.66-21.05c-.06-.37-.11-.73-.17-1.1s-.14-1-.18-1.51L659,675.68c-.62-4.79-2.74-29.47-3.45-34.25,1.31,8.84-5.53,55.67-5.53,55.67s7.93,17.52,4,55.93l-7.05-1.4-7.09-41.42a147.66,147.66,0,0,1-2.09-19.65c0-1-.07-2-.08-2.95q0-.76,0-1.53L637.48,676l-.21-19.56c-.35-5.85-.55-11.71-.55-17.58,0-1.81,0-3.58.06-5.38,0-.59,0-1.2,0-1.79v-.44l1-18.5.2-5.89,0,0h.15l15.92.7,6.47-.64a14.69,14.69,0,0,1,3.84,1,14,14,0,0,1,1.15,1.16,18.51,18.51,0,0,1,3.24,4.8c.5,1.09,1.24,2.65,2.06,4.39a57.45,57.45,0,0,1,5.52,25.37c-.15,9.29-2.59,53.44-2.21,53.73C683,704.28,684.59,739.75,684.92,753Z"/><path class="cls-14" d="M637.4,667.74c3.07.19,33,2.19,37.78,2.31h.08c.52-11.11,1-22.34,1.12-26.51a57.45,57.45,0,0,0-5.52-25.37c-.82-1.74-1.56-3.3-2.06-4.39a18.51,18.51,0,0,0-3.24-4.8,14,14,0,0,0-1.15-1.16,14.69,14.69,0,0,0-3.84-1l-6.47.64-15.92-.7H638l0,0-.2,5.89-1,18.5v.44c0,.59,0,1.2,0,1.79,0,1.8-.06,3.57-.06,5.38,0,5.87.2,11.73.55,17.58Z"/><path class="cls-15" d="M673,567.34c-.33,1.31-.65,2.45-.82,3.23-1.32,5.5-3.71,10.71-5.69,16-.47,1.29-.93,2.58-1.35,3.88a37.08,37.08,0,0,0-1.9,10.76,2.67,2.67,0,0,0,.25,1.08,3.19,3.19,0,0,0,.47.76c.73.87,1.42,1.77,2.08,2.68.52.7,1,1.4,1.47,2.13s.92,1.45,1.37,2.19c-2.68.38-5.37.66-8.07.8a69.3,69.3,0,0,1-20.14-1.81c-.92-.23-1.84-.49-2.76-.75,0-.16,0-.31,0-.46s0-.25,0-.37,0-.48,0-.71,0-.64.06-.92c0-.69.08-1.39.12-2.09.06-.93.13-1.85.19-2.77,0-.54.08-1.07.1-1.6.36-5.33.71-10.65,1-16,0-.89.07-1.76.12-2.62,0-.15,0-.31,0-.44a14.69,14.69,0,0,0,.08-1.75c-2.13-1.9-3.56-4-3.46-6.83.2-4.68,3.95-6.88,7.29-9.53.05,0,.05,0,.1-.08.82-.65,1.64-1.31,2.46-1.94S648,558.7,649,558q2.65-2.07,5.32-4.08l.75-.57,0,0,.33-.25a5.09,5.09,0,0,1,.6-.39.39.39,0,0,1,.11-.06l.24-.11a5.49,5.49,0,0,1,3.09-.23c.35,0,3.6.52,4,.55l.24,0h0l.85.1.22,0h.06l.18,0,.1,0,.18.06.06,0,.06,0,.11.07h0a3.56,3.56,0,0,0,.58.26l.45.14.79.22,1,.27.2.05.06,0,.29.09.18.06c.51.15,1.15.35,1.6.52l.29.13a8.68,8.68,0,0,1,1,.51,5.07,5.07,0,0,1,.54.36C675,557.81,674,563.36,673,567.34Z"/><path class="cls-13" d="M668.53,554.19a13,13,0,0,1-2.27,4c-4.11,5.28-11,9.55-13.65,7.45-2.17-1.7-1-7,1.68-11.74l.75-.57,0,0,.33-.25a5.09,5.09,0,0,1,.6-.39.39.39,0,0,1,.11-.06l.24-.11a5.49,5.49,0,0,1,3.09-.23c.35,0,3.6.52,4,.55l.24,0h0l.85.1.22,0h.06l.18,0,.1,0,.18.06.06,0,.06,0,.11.07h0a3.56,3.56,0,0,0,.58.26l.45.14.79.22,1,.27Z"/><path class="cls-13" d="M656.37,553a.15.15,0,0,1,0,.06c0,.11,0,.35,0,.65a5.48,5.48,0,0,0,2.53,4.61,4.73,4.73,0,0,0,4,.51,6.11,6.11,0,0,0,4.21-5.7l0-2.05.72-11.06-10.55-.25-.15,2.06-.47,6.76Z"/><path class="cls-16" d="M656.37,553a.15.15,0,0,1,0,.06c10.72-.19,10-12.88,10-12.88l-9.21,1.65-.47,6.76Z"/><rect class="cls-7" x="591.71" y="553.78" width="81.86" height="41.02" rx="3.84" transform="translate(989.96 1350.4) rotate(-156.95)"/><path class="cls-14" d="M622.66,573.46l2.47-5.8a13.07,13.07,0,0,0-6.91-17.13l-.36-.15a13,13,0,0,0-17.13,6.9l-2.47,5.8a13.06,13.06,0,0,0,6.9,17.13l.37.16A13.06,13.06,0,0,0,622.66,573.46Z"/><path class="cls-17" d="M658.71,576.44l-28.26-12a1.11,1.11,0,0,1-.59-1.47h0a1.11,1.11,0,0,1,1.46-.59l28.27,12a1.11,1.11,0,0,1,.59,1.46h0A1.12,1.12,0,0,1,658.71,576.44Z"/><path class="cls-17" d="M666.16,584.83l-37.59-16a1.11,1.11,0,0,1-.59-1.47h0a1.11,1.11,0,0,1,1.46-.59l37.59,16a1.13,1.13,0,0,1,.6,1.47h0A1.13,1.13,0,0,1,666.16,584.83Z"/><path class="cls-17" d="M656.52,585.94l-29.83-12.69a1.12,1.12,0,0,1-.6-1.47h0a1.13,1.13,0,0,1,1.47-.59l29.83,12.69a1.13,1.13,0,0,1,.6,1.47h0A1.12,1.12,0,0,1,656.52,585.94Z"/><path class="cls-17" d="M662.4,593.67l-37.59-16a1.12,1.12,0,0,1-.6-1.47h0a1.13,1.13,0,0,1,1.47-.59l37.59,16a1.1,1.1,0,0,1,.59,1.46h0A1.12,1.12,0,0,1,662.4,593.67Z"/><path class="cls-17" d="M646.38,592.07l-23.45-10a1.12,1.12,0,0,1-.6-1.46h0a1.13,1.13,0,0,1,1.47-.6l23.45,10a1.12,1.12,0,0,1,.6,1.47h0A1.12,1.12,0,0,1,646.38,592.07Z"/><path class="cls-13" d="M660.65,592.64l-23.75,4.29h0a12.22,12.22,0,0,0-7.33-4.44l-4.6-.86a.72.72,0,0,0-.82,1c.46,1.09,1.85,2.63,6,3.29l-12-2.77,2.06,5.45a4.89,4.89,0,0,0,2.63,2l.64.19,1.23,1.7a4.82,4.82,0,0,0,3.56,2l2.12.16a9.76,9.76,0,0,0,6.06-1.55h0l24.79-.45s7.68.84,8.19-4.62l8.3-33.41a7.3,7.3,0,0,0-3.11-8.08h0c-4.41-2.8-7.38.57-8.24,5.72Z"/><path class="cls-13" d="M649.34,534.34c.22-1.63.43-3.25.52-4.89.14-2.35,1.53-4.71,2.91-6.69a12.88,12.88,0,0,1,3.2-3.26,13.21,13.21,0,0,1,12-1.18c5.22,2.19,5.74,7.47,4.32,12.2,3.35-1.65,3.49,2.62,3.49,2.62.15,4.28-4,4.26-4,4.26a15.56,15.56,0,0,1-4,6.57,20.86,20.86,0,0,1-6.82,4.4,8.45,8.45,0,0,1-10.06-3.48,13.46,13.46,0,0,1-1.73-9.06C649.21,535.33,649.28,534.84,649.34,534.34Z"/><path class="cls-16" d="M654.16,538.51a5.39,5.39,0,0,1,.65-.86,6,6,0,0,0,.67-1,6.6,6.6,0,0,0,.75-2.27.43.43,0,0,1,.49-.31.4.4,0,0,1,.29.48,7.57,7.57,0,0,1-1.63,3.64c-.33.41-.81.84-.39,1.33s1.18.41,1.77.37.52.76,0,.8a3,3,0,0,1-2.21-.44A1.44,1.44,0,0,1,654.16,538.51Z"/><path class="cls-12" d="M662.24,535.12c-.14.73-.66,1.27-1.16,1.21s-.79-.71-.65-1.44.67-1.28,1.16-1.21S662.38,534.38,662.24,535.12Z"/><path class="cls-12" d="M654.36,534.67c-.15.73-.66,1.27-1.16,1.21s-.79-.71-.65-1.44.66-1.28,1.16-1.21S654.5,533.93,654.36,534.67Z"/><path class="cls-12" d="M654.36,529.41a.87.87,0,0,0-.52-.08,2.54,2.54,0,0,0-2.19,2.24,1.68,1.68,0,0,1,.29-.44h0a1.15,1.15,0,0,1,.23-.21,2.57,2.57,0,0,1,1.07-.32,3.44,3.44,0,0,0,1.11-.24.47.47,0,0,0,.32-.44A.68.68,0,0,0,654.36,529.41Z"/><path class="cls-12" d="M661.2,529.45a.94.94,0,0,1,.52-.15,2.24,2.24,0,0,1,2.25,2,1.11,1.11,0,0,0-.3-.4l0,0a.81.81,0,0,0-.24-.17,2.26,2.26,0,0,0-1.08-.19,3.39,3.39,0,0,1-1.11-.1.41.41,0,0,1-.33-.4A.74.74,0,0,1,661.2,529.45Z"/><path class="cls-16" d="M661.86,540.79a5.64,5.64,0,0,1-5,1.59.4.4,0,0,0-.16.79,6.47,6.47,0,0,0,5.72-1.89C662.83,540.91,662.22,540.41,661.86,540.79Z"/><path class="cls-12" d="M676.19,531.22c-.09-3.57-2.11-5.25-3.47-8.54a11.47,11.47,0,0,0-3.31-4.82,9.72,9.72,0,0,0-5.33-1.81A14.7,14.7,0,0,0,650,524.36c-1.65,3.7-1.25,9.32-1,13.39,0-2.2.55-5.84,2.08-7.42,2.14-2.2,5.23-3.08,8.15-4a25.67,25.67,0,0,0,3.94-1.57,12.21,12.21,0,0,0,1.28,2.29,55.2,55.2,0,0,1,3.65,5.11,11.94,11.94,0,0,1-1,12.54c2.6,0,6.24-3.63,7.52-5.9A14.79,14.79,0,0,0,676.19,531.22Z"/><path class="cls-18" d="M390.69,582.38a5.3,5.3,0,0,1-4.08-1.61l-14.27-25.36a7.54,7.54,0,0,1-1.25-3h0c-1.1-6.42,3.06-10,8.43-6.34a11.81,11.81,0,0,1,3.14,2.77l8.9,14.76.06-.07C392.28,566.87,392.91,573.44,390.69,582.38Z"/><path class="cls-13" d="M424.28,542.87a7.76,7.76,0,0,1-3.54,1.3l-4.15,4L395,580a5.32,5.32,0,0,1-4.29,2.43c2.22-8.94,1.59-15.51.93-18.86l17.88-18.31-.13-.1,3.13-3.31,0-1.83a5.26,5.26,0,0,1,2.7-4.47l10.25-5.65s3.06-.05.28,2.71l.37-.3a2.88,2.88,0,0,1,.82,2.55l-.24,1.32C426.48,537.46,429.92,539,424.28,542.87Z"/><rect class="cls-7" x="390.2" y="520.7" width="81.86" height="41.02" rx="3.84" transform="translate(839.74 1099.62) rotate(-177.65)"/><path class="cls-14" d="M421.5,544l.26-6.29a13.06,13.06,0,0,0-12.51-13.59l-.4,0a13.06,13.06,0,0,0-13.58,12.52l-.26,6.3a13,13,0,0,0,12.51,13.58l.4,0A13.06,13.06,0,0,0,421.5,544Z"/><g class="cls-19"><path class="cls-17" d="M456.28,534l-30.69-1.26a1.1,1.1,0,0,1-1.07-1.16h0a1.1,1.1,0,0,1,1.16-1.07l30.69,1.25a1.12,1.12,0,0,1,1.07,1.17h0A1.1,1.1,0,0,1,456.28,534Z"/><path class="cls-17" d="M466.21,539.23l-40.82-1.68a1.1,1.1,0,0,1-1.07-1.16h0a1.11,1.11,0,0,1,1.16-1.07L466.3,537a1.11,1.11,0,0,1,1.07,1.16h0A1.12,1.12,0,0,1,466.21,539.23Z"/><path class="cls-17" d="M457.59,543.68l-32.39-1.33a1.12,1.12,0,0,1-1.08-1.16h0a1.12,1.12,0,0,1,1.17-1.07l32.39,1.32a1.12,1.12,0,0,1,1.07,1.17h0A1.11,1.11,0,0,1,457.59,543.68Z"/><path class="cls-17" d="M465.81,548.83,425,547.15a1.1,1.1,0,0,1-1.07-1.16h0a1.1,1.1,0,0,1,1.16-1.07l40.82,1.67a1.12,1.12,0,0,1,1.07,1.16h0A1.13,1.13,0,0,1,465.81,548.83Z"/><path class="cls-17" d="M450.27,553l-25.47-1a1.1,1.1,0,0,1-1.07-1.16h0a1.11,1.11,0,0,1,1.16-1.07l25.47,1a1.11,1.11,0,0,1,1.07,1.16h0A1.13,1.13,0,0,1,450.27,553Z"/></g><path class="cls-20" d="M368.71,758.16h0a2,2,0,0,0,1.83,1.48l20.26.81a2.13,2.13,0,0,0,2.22-1.92v0c.23-2.22-12-6.43-12.68-6.63a3.41,3.41,0,0,1-2-1.32h0l-8.5-.34a12.59,12.59,0,0,0-1.12,3.06,12.12,12.12,0,0,0-.29,2A9.25,9.25,0,0,0,368.71,758.16Z"/><path class="cls-20" d="M407.7,758.16h0a2,2,0,0,0,1.83,1.48l20.26.81a2.13,2.13,0,0,0,2.22-1.92v0c.23-2.22-12-6.43-12.68-6.63a3.41,3.41,0,0,1-2-1.32h0l-8.5-.34a12.59,12.59,0,0,0-1.12,3.06,11.18,11.18,0,0,0-.28,2A8.94,8.94,0,0,0,407.7,758.16Z"/><path class="cls-13" d="M416,522.82a9.65,9.65,0,0,1-1.65,1.36c.06.54.11,1.09.13,1.63,0,.91,0,5.29-.46,6.49a5.25,5.25,0,0,1-3.45,3c-1.14.33-2.92.88-3.14,1-3.29,1.46-7.86-.55-11.3-3.69a13.87,13.87,0,0,1-11.62-13.76c0-7.69,6.2-13,13.71-13.92,6.33-.8,10.94,3.18,12.8,8.5a40.59,40.59,0,0,1,1.78,4.48l3.22,3.41A1.32,1.32,0,0,1,416,522.82Z"/><polygon class="cls-13" points="392.2 538.15 393.91 530.47 404.52 530.57 406.23 537.86 392.2 538.15"/><path class="cls-16" d="M404.62,518.09c-.24-.05-.34.32-.1.37a3.33,3.33,0,0,1,2.39,1.78,14.64,14.64,0,0,1,1,2.37c.08.23.44.13.36-.1C407.6,520.58,406.83,518.53,404.62,518.09Z"/><path class="cls-16" d="M407.08,525.23a3.73,3.73,0,0,1-3.2-2.29c-.09-.22-.46-.12-.36.1a4.12,4.12,0,0,0,3.56,2.57C407.33,525.63,407.33,525.25,407.08,525.23Z"/><path class="cls-16" d="M413.47,527a3.75,3.75,0,0,1-3.2-2.3c-.09-.22-.46-.12-.36.11a4.12,4.12,0,0,0,3.56,2.57C413.72,527.39,413.72,527,413.47,527Z"/><path class="cls-16" d="M407.58,524.69c-.29-.63-.68-1.27-1.45-1.29-.24,0-.24.37,0,.38.62,0,.9.61,1.13,1.1C407.36,525.1,407.69,524.91,407.58,524.69Z"/><path class="cls-12" d="M412.1,518.82c.16.73-.1,1.43-.59,1.57s-1-.34-1.16-1.07.11-1.43.6-1.57S412,518.09,412.1,518.82Z"/><path class="cls-12" d="M410,514a.88.88,0,0,0-.51.12A2.55,2.55,0,0,0,408.4,517a1.3,1.3,0,0,1,.1-.52v0a1.82,1.82,0,0,1,.13-.28,2.67,2.67,0,0,1,.87-.72,3.59,3.59,0,0,0,.92-.66.46.46,0,0,0,.12-.52A.65.65,0,0,0,410,514Z"/><path class="cls-15" d="M408.5,750.92c.76-.25,8.84-.37,8.84-.37-1.84-47.6.21-93.43-6-134.19l-.76-5.56H371.45l-3,16.18L372,679.29l-2.14,71.84,8.53-.58,10.29-66.21,2-43.72,8.39,43Z"/><path class="cls-21" d="M421,546.36l-3.63,32.95a118.21,118.21,0,0,1-1.93,11.84l-2.19,10.1a14.9,14.9,0,0,0-.13,5.49l2.47,23.8c-23.51,12.13-48.14.4-48.14.4v-2.73A89.48,89.48,0,0,1,372.55,599a5.85,5.85,0,0,0,.45-2.37l-2.24-45.85a6.17,6.17,0,0,1,4.41-6.64l9.06-2.49a26.16,26.16,0,0,1,3.36-.73,27.2,27.2,0,0,1,4.6-.28l9.49.27a27.69,27.69,0,0,1,8.26,1.5l.25.08Z"/><path class="cls-5" d="M411.51,543c-.17,0-1.15-.47-1.32-.44l-.24-.08a25.9,25.9,0,0,0-8-1.49l-9.78-.28a27.2,27.2,0,0,0-4.6.28l.62-.92a8.07,8.07,0,0,1,6.92-3.54l7.3.23a8,8,0,0,1,5.6,2.54Z"/><path class="cls-21" d="M438.06,587.64A5.34,5.34,0,0,1,434,586l-18.22-25.72-2.89-16.77,8.91,3.24a18.37,18.37,0,0,1,8.26,7.31l8.89,14.76.07-.07C439.65,572.13,440.28,578.7,438.06,587.64Z"/><path class="cls-13" d="M471.65,548.13a7.76,7.76,0,0,1-3.54,1.3l-4.15,4-21.61,31.77a5.32,5.32,0,0,1-4.29,2.43c2.22-8.94,1.59-15.51.93-18.86l17.87-18.31-.12-.1,3.13-3.31,0-1.83a5.26,5.26,0,0,1,2.7-4.47l10.25-5.65s3.06-.05.28,2.71l.37-.3a2.88,2.88,0,0,1,.82,2.55l-.24,1.32C473.85,542.72,477.29,544.23,471.65,548.13Z"/><path class="cls-12" d="M413.29,508.15a12.66,12.66,0,0,0-2.23-5,8.52,8.52,0,0,0-6.58-3.2,45.78,45.78,0,0,0-8.61,1.42c-6.08,1.46-11.43,5.55-13.44,11.62,0,.11-.07.23-.11.34-1.79,5.87-.31,13.82,5.44,17,1.56.86,3.37,1.11,4.9,2,.24.14,4.29.19,7.68.45,2,.15,5-.85,5.5-2.75,0,0,.15.49.15.48a7.4,7.4,0,0,0,.67-2.71c-.08-.49-1.56-.68-2-.9-2.32-1.23-4.28-4.51-2.48-7a3.55,3.55,0,0,1,3.75-1.25,25.5,25.5,0,0,0,1.24-4.24,5.78,5.78,0,0,1,1.21,2.44c.59-1.39,1.38-3.12,1-4.66-.16-.66-.31-1.32-.46-2a16.74,16.74,0,0,1-.56-1.58,10.71,10.71,0,0,1,1.66,2.06,5.66,5.66,0,0,0-.55-2.86,3.17,3.17,0,0,1,.39.27,7.7,7.7,0,0,1,2,2.32c.55.95.71,2,1.16,3,.27.6.47,1.21.69,1.83,0-.6.19-1.19.25-1.79A16.12,16.12,0,0,0,413.29,508.15Z"/><path class="cls-21" d="M587.15,445.22a.57.57,0,0,0-.57.57.58.58,0,0,0,.57.57.57.57,0,0,0,.57-.57A.56.56,0,0,0,587.15,445.22Zm-1.3-.73.5.5a1.12,1.12,0,0,1,.8-.33,1.1,1.1,0,0,1,.8.33l.5-.5a1.83,1.83,0,0,0-2.6,0Zm-1.1-1.1.5.5a2.68,2.68,0,0,1,3.8,0l.5-.5a3.35,3.35,0,0,0-2.4-1A3.39,3.39,0,0,0,584.75,443.39Zm2.4-2.39a4.76,4.76,0,0,0-3.38,1.41l.5.5a4.06,4.06,0,0,1,5.76,0l.5-.5A4.74,4.74,0,0,0,587.15,441Z"/><path class="cls-21" d="M581.44,441.78v4.38h.71v-4.38Zm-1.32,4.38h.71v-3.58h-.71Zm-1.32,0h.71v-2.78h-.71Zm-1.32,0h.7v-2h-.7Zm-1.33,0h.71V445h-.71Z"/><path class="cls-21" d="M592.77,443v2.26a.58.58,0,0,0,.57.57h5.21v-3.4h-5.21A.57.57,0,0,0,592.77,443Zm8.11.57v-.64a1,1,0,0,0-1-.94h-6.66a.94.94,0,0,0-.94.94v2.39a.94.94,0,0,0,.94.95h6.66a1,1,0,0,0,1-.95v-.64h.42v-1.11Zm-.18,1.75a.76.76,0,0,1-.77.77h-6.66a.76.76,0,0,1-.76-.77v-2.39a.77.77,0,0,1,.76-.77h6.66a.78.78,0,0,1,.77.77Z"/><path class="cls-21" d="M461.55,442.88a1.31,1.31,0,0,1,2.61-.14h0c0,.11,0,.21,0,.31a3.22,3.22,0,0,1-.19,1.1,1.94,1.94,0,0,1-.7.93,1.52,1.52,0,0,1-.8.25.31.31,0,0,1-.32-.29.32.32,0,0,1,.29-.31.9.9,0,0,0,.51-.15,1,1,0,0,0,.34-.38.61.61,0,0,0,.07-.14,1.27,1.27,0,0,1-.52.11A1.31,1.31,0,0,1,461.55,442.88Zm.6,0a.71.71,0,0,0,1.42,0,.71.71,0,0,0-1.42,0Z"/><path class="cls-21" d="M465.52,442.44a.4.4,0,1,1,0,.8.4.4,0,1,1,0-.8Zm0,2.14a.4.4,0,1,1,0,.8.4.4,0,0,1,0-.8Z"/><path class="cls-21" d="M468.34,443.06a1.31,1.31,0,0,1,.39.94,1.34,1.34,0,0,1-2.28.95.31.31,0,0,1,0-.44.32.32,0,0,1,.43,0,.67.67,0,0,0,.51.21.72.72,0,0,0,.52-1.23.72.72,0,0,0-.51-.22.23.23,0,0,1-.22-.1h0a.31.31,0,0,1,0-.43l.55-.56h-.87a.31.31,0,0,1-.31-.31.3.3,0,0,1,.31-.3h1.59a.29.29,0,0,1,.3.3.28.28,0,0,1,0,.15l-.05.07-.68.7A1.26,1.26,0,0,1,468.34,443.06Z"/><path class="cls-21" d="M469.58,443.46a2.33,2.33,0,0,1,.37-1.29,1.13,1.13,0,0,1,2,0,2.33,2.33,0,0,1,.36,1.29,2.35,2.35,0,0,1-.36,1.29,1.14,1.14,0,0,1-2,0A2.36,2.36,0,0,1,469.58,443.46Zm2.13,0a1.79,1.79,0,0,0-.26-1,.62.62,0,0,0-.5-.33.65.65,0,0,0-.51.33,1.79,1.79,0,0,0-.26,1,1.75,1.75,0,0,0,.26,1,.66.66,0,0,0,.51.34.63.63,0,0,0,.5-.34A1.75,1.75,0,0,0,471.71,443.46Z"/><path class="cls-21" d="M475.84,444v1.06a.28.28,0,0,1-.29.28.29.29,0,0,1-.28-.23,1.19,1.19,0,0,1-.72.23,1.25,1.25,0,0,1-.91-.39,1.39,1.39,0,0,1-.37-.95,1.35,1.35,0,0,1,.37-.94,1.23,1.23,0,0,1,.91-.41,1.2,1.2,0,0,1,.72.24.29.29,0,0,1,.57.05Zm-.58,0a.82.82,0,0,0-.2-.55.67.67,0,0,0-.51-.22.65.65,0,0,0-.5.22.77.77,0,0,0-.2.55.82.82,0,0,0,.2.56.71.71,0,0,0,.5.21.74.74,0,0,0,.51-.21A.87.87,0,0,0,475.26,444Z"/><path class="cls-21" d="M479.14,443.77h0v1.28a.28.28,0,0,1-.28.28.29.29,0,0,1-.29-.28v-1.28h0a.56.56,0,0,0-.56-.54.55.55,0,0,0-.54.55v1.28s0,0,0,0h0a.08.08,0,0,1,0,0v0a.31.31,0,0,1-.27.17h-.06a.29.29,0,0,1-.23-.28v-1.28h0v-.84a.28.28,0,0,1,.29-.29.29.29,0,0,1,.26.16,1.14,1.14,0,0,1,1.42.21,1.1,1.1,0,0,1,.84-.37,1.13,1.13,0,0,1,1.12,1.13v1.28a.29.29,0,0,1-.57,0v-1.28a.55.55,0,0,0-.55-.55A.56.56,0,0,0,479.14,443.77Z"/><path class="cls-21" d="M470.18,454.51H460a1.18,1.18,0,0,1-1.18-1.18h0a1.17,1.17,0,0,1,1.18-1.17h10.22a1.17,1.17,0,0,1,1.17,1.17h0A1.17,1.17,0,0,1,470.18,454.51Z"/><path class="cls-21" d="M470.18,458.75H460a1.18,1.18,0,0,1-1.18-1.18h0a1.18,1.18,0,0,1,1.18-1.18h10.22a1.17,1.17,0,0,1,1.17,1.18h0A1.17,1.17,0,0,1,470.18,458.75Z"/><path class="cls-21" d="M470.18,463H460a1.18,1.18,0,0,1-1.18-1.18h0a1.18,1.18,0,0,1,1.18-1.18h10.22a1.17,1.17,0,0,1,1.17,1.18h0A1.17,1.17,0,0,1,470.18,463Z"/><polyline class="cls-22" points="660.88 446.36 660.88 395.3 568.88 395.3"/><polyline class="cls-22" points="383.71 441.97 383.71 395.3 488.59 395.3"/><path class="cls-5" d="M372.6,467.57a3.57,3.57,0,0,1,1.37-1.41,4.11,4.11,0,0,1,2-.5,3.84,3.84,0,0,1,2.45.78,3.57,3.57,0,0,1,1.29,2.12h-2.34a1.56,1.56,0,0,0-.58-.68,1.62,1.62,0,0,0-.86-.23,1.48,1.48,0,0,0-1.2.54,2.51,2.51,0,0,0,0,2.87,1.48,1.48,0,0,0,1.2.54,1.62,1.62,0,0,0,.86-.23,1.56,1.56,0,0,0,.58-.68h2.34a3.54,3.54,0,0,1-1.29,2.12,3.84,3.84,0,0,1-2.45.78,4,4,0,0,1-2-.5,3.55,3.55,0,0,1-1.37-1.4,4.36,4.36,0,0,1-.48-2.07A4.31,4.31,0,0,1,372.6,467.57Z"/><path class="cls-5" d="M381.6,473a2.36,2.36,0,0,1-.94-1.86H383a.88.88,0,0,0,.25.6.76.76,0,0,0,.54.19.77.77,0,0,0,.49-.15.5.5,0,0,0,.2-.41.58.58,0,0,0-.32-.53,5.46,5.46,0,0,0-1-.42,9.56,9.56,0,0,1-1.24-.5,2.54,2.54,0,0,1-.82-.69,2,2,0,0,1-.35-1.2,2.16,2.16,0,0,1,.38-1.29,2.37,2.37,0,0,1,1-.82,4,4,0,0,1,1.51-.27,3.45,3.45,0,0,1,2.17.63,2.32,2.32,0,0,1,.87,1.79h-2.36a.72.72,0,0,0-.21-.53.79.79,0,0,0-.53-.18.57.57,0,0,0-.4.15.52.52,0,0,0-.15.4.5.5,0,0,0,.17.39,1.6,1.6,0,0,0,.42.27c.17.08.42.18.76.3a8.93,8.93,0,0,1,1.22.5,2.53,2.53,0,0,1,.83.7,1.79,1.79,0,0,1,.35,1.13,2.31,2.31,0,0,1-.35,1.25,2.34,2.34,0,0,1-1,.87,3.44,3.44,0,0,1-1.55.32A3.69,3.69,0,0,1,381.6,473Z"/><path class="cls-5" d="M388.58,473a2.36,2.36,0,0,1-.94-1.86H390a.84.84,0,0,0,.24.6.76.76,0,0,0,.54.19.77.77,0,0,0,.49-.15.5.5,0,0,0,.2-.41.58.58,0,0,0-.32-.53,5.19,5.19,0,0,0-1-.42,9.56,9.56,0,0,1-1.24-.5,2.54,2.54,0,0,1-.82-.69,2,2,0,0,1-.34-1.2,2.16,2.16,0,0,1,.37-1.29,2.37,2.37,0,0,1,1-.82,4,4,0,0,1,1.51-.27,3.45,3.45,0,0,1,2.17.63,2.32,2.32,0,0,1,.87,1.79h-2.36a.72.72,0,0,0-.21-.53.79.79,0,0,0-.53-.18.57.57,0,0,0-.4.15.52.52,0,0,0-.15.4.5.5,0,0,0,.17.39,1.6,1.6,0,0,0,.42.27c.17.08.43.18.76.3a8.93,8.93,0,0,1,1.22.5,2.53,2.53,0,0,1,.83.7,1.79,1.79,0,0,1,.35,1.13,2.31,2.31,0,0,1-.35,1.25,2.34,2.34,0,0,1-1,.87,3.41,3.41,0,0,1-1.55.32A3.69,3.69,0,0,1,388.58,473Z"/><path class="cls-5" d="M517.87,387.31,516,385.14l1.91-2.18h2.45l-1.91,2.18,1.91,2.17Z"/><path class="cls-5" d="M527.31,379.1l-2.66,11.4h-1.88l2.66-11.4Z"/><path class="cls-5" d="M529.66,383h2.44l1.91,2.18-1.91,2.17h-2.44l1.91-2.17Z"/><path class="cls-5" d="M647.82,468.21v5.16a2.44,2.44,0,0,1-2.67,2.71,2.93,2.93,0,0,1-2.12-.74,2.76,2.76,0,0,1-.79-2.13h2.14c0,.61.23.92.68.92s.59-.25.59-.76v-5.16Z"/><path class="cls-5" d="M654.17,474.73h-2.76L651,476h-2.28l2.84-7.8h2.5l2.83,7.8h-2.29Zm-.54-1.65-.84-2.53-.83,2.53Z"/><path class="cls-5" d="M665.3,468.21l-2.69,7.8h-2.77l-2.7-7.8h2.32l1.77,5.63,1.76-5.63Z"/><path class="cls-5" d="M671,474.73h-2.76l-.42,1.28h-2.28l2.84-7.8h2.5l2.83,7.8h-2.29Zm-.54-1.65-.84-2.53-.83,2.53Z"/><line class="cls-23" x1="502.27" y1="393.76" x2="556.36" y2="393.76"/><line class="cls-23" x1="501.74" y1="398.14" x2="536.98" y2="398.14"/><line class="cls-23" x1="501.55" y1="402.69" x2="530.72" y2="402.69"/></g></g></svg>