<svg id="Layer_1" data-name="Layer 1" xmlns="http://www.w3.org/2000/svg" xmlns:xlink="http://www.w3.org/1999/xlink" viewBox="0 0 128.51 124"><defs><style>.cls-1{fill:#002680;}.cls-2{opacity:0.65;}.cls-3{fill:url(#linear-gradient);}.cls-4{fill:#fff;}</style><linearGradient id="linear-gradient" x1="18.51" y1="61" x2="114.51" y2="61" gradientUnits="userSpaceOnUse"><stop offset="0" stop-color="#10bef0"/><stop offset="0.27" stop-color="#10bef0" stop-opacity="0.67"/><stop offset="0.53" stop-color="#10bef0" stop-opacity="0.39"/><stop offset="0.75" stop-color="#10bef0" stop-opacity="0.18"/><stop offset="0.91" stop-color="#10bef0" stop-opacity="0.05"/><stop offset="1" stop-color="#10bef0" stop-opacity="0"/></linearGradient></defs><circle class="cls-1" cx="66.51" cy="61" r="48"/><g class="cls-2"><circle class="cls-3" cx="66.51" cy="61" r="48"/></g><path class="cls-4" d="M51.47,30.36A5.65,5.65,0,0,0,45.84,36V86a5.65,5.65,0,0,0,5.63,5.63H81.56A5.65,5.65,0,0,0,87.18,86V36a5.65,5.65,0,0,0-5.62-5.63Zm-.59,3H82.14a2,2,0,0,1,2.1,2.06V86.53a2,2,0,0,1-2.1,2.06H50.88a2,2,0,0,1-2.1-2.06V35.47A2,2,0,0,1,50.88,33.41ZM62.5,36a2,2,0,0,0-1.28.43,1.37,1.37,0,0,0-.53,1.05,1.36,1.36,0,0,0,.53,1,2,2,0,0,0,1.28.44h8a1.51,1.51,0,1,0,0-3ZM60.85,46.15a1.74,1.74,0,0,0-1.27.54,1.79,1.79,0,0,0,0,2.54l.47.47a8.25,8.25,0,0,0-1.91,4.14h0a1.81,1.81,0,0,0,1.78,2.07H73.06a1.79,1.79,0,0,0,1.37-.63,1.82,1.82,0,0,0,.42-1.44A8.32,8.32,0,0,0,73,49.71l.48-.48A1.79,1.79,0,0,0,74,48a1.81,1.81,0,0,0-.53-1.28,1.77,1.77,0,0,0-1.27-.53,1.79,1.79,0,0,0-1.28.51l-.86.85a8.4,8.4,0,0,0-3.54-.77,8.55,8.55,0,0,0-3.54.76l-.85-.84h0a1.79,1.79,0,0,0-1.28-.51Zm5.66,4.2a6.58,6.58,0,0,1,3.7,1.1h0l.26.17A6.49,6.49,0,0,1,71.85,53H61.18a6.36,6.36,0,0,1,1.28-1.31h0a2.85,2.85,0,0,0,.49-.34,6.68,6.68,0,0,1,3.56-1ZM55.1,57.41a1.67,1.67,0,0,0-1.68,1.68v6.4a1.71,1.71,0,0,0,.49,1.19,1.72,1.72,0,0,0,1.19.49,1.68,1.68,0,0,0,1.68-1.68v-6.4A1.68,1.68,0,0,0,55.1,57.41Zm4.77-.36a1.8,1.8,0,0,0-1.8,1.81V70.37a1.8,1.8,0,0,0,1.8,1.8h1v3.16a1.8,1.8,0,0,0,.53,1.27,1.77,1.77,0,0,0,1.27.53,1.8,1.8,0,0,0,1.8-1.8V72.17h4.08v3.16h0a1.81,1.81,0,0,0,3.61,0V72.17h1a1.81,1.81,0,0,0,1.8-1.8V58.86a1.81,1.81,0,0,0-1.8-1.81Zm18.17,0h0a1.6,1.6,0,0,0-1.18.53,1.87,1.87,0,0,0-.5,1.28v6.86a1.87,1.87,0,0,0,.5,1.28,1.61,1.61,0,0,0,2.37,0,1.86,1.86,0,0,0,.49-1.28V58.86a1.86,1.86,0,0,0-.49-1.28A1.61,1.61,0,0,0,78,57.05ZM60.77,59.93H72.25V69.3H60.77ZM65,82.8h0a1.94,1.94,0,0,0-1.28.47,1.56,1.56,0,0,0-.53,1.15,1.52,1.52,0,0,0,.53,1.14A2,2,0,0,0,65,86h3.07a1.9,1.9,0,0,0,1.27-.48,1.52,1.52,0,0,0,.53-1.14,1.56,1.56,0,0,0-.53-1.15,1.9,1.9,0,0,0-1.27-.47Z"/></svg>