<?xml version="1.0" encoding="utf-8"?>
<!-- Generator: Adobe Illustrator 25.2.1, SVG Export Plug-In . SVG Version: 6.00 Build 0)  -->
<svg version="1.1" id="Layer_1" xmlns="http://www.w3.org/2000/svg" xmlns:xlink="http://www.w3.org/1999/xlink" x="0px" y="0px"
	 viewBox="0 0 128.51 124" style="enable-background:new 0 0 128.51 124;" xml:space="preserve">
<style type="text/css">
	.st0{fill:#002680;}
	.st1{opacity:0.65;}
	.st2{fill:url(#SVGID_1_);}
	.st3{fill:url(#SVGID_2_);}
	.st4{fill:#FFFFFF;}
	.st5{fill:url(#SVGID_3_);}
	.st6{fill:url(#SVGID_4_);}
	.st7{fill:url(#SVGID_5_);}
	.st8{fill:url(#SVGID_6_);}
	.st9{fill:url(#SVGID_7_);}
	.st10{fill:url(#SVGID_8_);}
	.st11{fill:url(#SVGID_9_);}
	.st12{fill:url(#SVGID_10_);}
	.st13{fill:url(#SVGID_11_);}
	.st14{fill:url(#SVGID_12_);}
	.st15{fill:url(#SVGID_13_);}
	.st16{fill:url(#SVGID_14_);}
	.st17{fill:url(#SVGID_15_);}
	.st18{fill:url(#SVGID_16_);}
	.st19{fill:url(#SVGID_17_);}
	.st20{fill:url(#SVGID_18_);}
	.st21{fill:url(#SVGID_19_);}
	.st22{fill:url(#SVGID_20_);}
	.st23{fill:url(#SVGID_21_);}
	.st24{fill:url(#SVGID_22_);}
	.st25{fill:url(#SVGID_23_);}
	.st26{fill:url(#SVGID_24_);}
	.st27{fill:url(#SVGID_25_);}
	.st28{fill:url(#SVGID_26_);}
	.st29{fill:url(#SVGID_27_);}
	.st30{fill:url(#SVGID_28_);}
	.st31{fill:url(#SVGID_29_);}
	.st32{fill:url(#SVGID_30_);}
	.st33{fill:url(#SVGID_31_);}
	.st34{fill:url(#SVGID_32_);}
	.st35{fill:url(#SVGID_33_);}
	.st36{fill:url(#SVGID_34_);}
	.st37{fill:url(#SVGID_35_);}
	.st38{fill:url(#SVGID_36_);}
	.st39{fill:url(#SVGID_37_);}
	.st40{fill:url(#SVGID_38_);}
	.st41{fill:url(#SVGID_39_);}
	.st42{fill:url(#SVGID_40_);}
	.st43{fill:url(#SVGID_41_);}
	.st44{fill:url(#SVGID_42_);}
	.st45{fill:url(#SVGID_43_);}
	.st46{fill:url(#SVGID_44_);}
	.st47{fill:url(#SVGID_45_);}
	.st48{fill:url(#SVGID_46_);}
	.st49{fill:url(#SVGID_47_);}
	.st50{fill:url(#SVGID_48_);}
	.st51{fill:url(#SVGID_49_);}
	.st52{fill:url(#SVGID_50_);}
	.st53{fill:url(#SVGID_51_);}
	.st54{fill:url(#SVGID_52_);}
	.st55{fill:url(#SVGID_53_);}
</style>
<g>
	<path class="st0" d="M72.02,36.92c-0.44,0-0.8,0.36-0.8,0.8c0,0.44,0.36,0.8,0.8,0.8c0.44,0,0.8-0.36,0.8-0.8
		C72.82,37.27,72.46,36.92,72.02,36.92z"/>
	<path class="st0" d="M108.19,51.9c0.48,1.43,1.84,2.47,3.43,2.47c2,0,3.62-1.63,3.62-3.63s-1.62-3.62-3.62-3.62
		c-1.59,0-2.95,1.03-3.43,2.46h-15c-0.13-2.33-0.59-4.57-1.33-6.68h1.81l12.19-12.2c0.52,0.28,1.1,0.46,1.73,0.46
		c2,0,3.63-1.63,3.63-3.62c0-2-1.63-3.63-3.63-3.63s-3.62,1.63-3.62,3.63c0,0.52,0.11,1.01,0.32,1.46L92.71,40.58h-1.79
		c-2.39-5.11-6.47-9.27-11.52-11.76v-5.51h13.74c0.48,1.42,1.82,2.46,3.41,2.46c2,0,3.63-1.62,3.63-3.62s-1.63-3.63-3.63-3.63
		c-1.59,0-2.93,1.04-3.41,2.47H77.08v6.83c-2.67-0.99-5.56-1.53-8.58-1.53c-2.74,0-5.38,0.46-7.84,1.28v-9.09H37.95
		c-0.49-1.43-1.83-2.47-3.42-2.47c-2,0-3.62,1.63-3.62,3.63c0,1.99,1.62,3.62,3.62,3.62c1.59,0,2.93-1.04,3.42-2.47h20.39v7.69
		c-5.98,2.7-10.69,7.71-13,13.89H43.1L32.75,32.02c0.28-0.52,0.45-1.1,0.45-1.73c0-2-1.62-3.62-3.62-3.62s-3.62,1.62-3.62,3.62
		s1.62,3.62,3.62,3.62c0.52,0,1.02-0.11,1.47-0.31l11.09,11.08h2.47c-0.42,1.58-0.68,3.22-0.78,4.9H28.85
		C28.4,48.09,27.03,47,25.4,47c-2,0-3.63,1.62-3.63,3.62s1.63,3.62,3.63,3.62c1.54,0,2.86-0.97,3.38-2.34h15.03
		c0.07,2,0.38,3.94,0.89,5.79h-4.42L28.98,69c-0.52-0.29-1.11-0.47-1.75-0.47c-2,0-3.62,1.63-3.62,3.63c0,1.99,1.62,3.62,3.62,3.62
		s3.62-1.63,3.62-3.62c0-0.52-0.11-1.01-0.3-1.45l10.69-10.69h4.24c2.36,6.01,7,10.88,12.86,13.53v4.43H46.25
		c-0.48-1.42-1.82-2.46-3.41-2.46c-2,0-3.63,1.62-3.63,3.62s1.63,3.63,3.63,3.63c1.59,0,2.93-1.04,3.42-2.47h14.4v-5.84
		c2.47,0.83,5.1,1.28,7.85,1.28c3.01,0,5.9-0.54,8.57-1.53v8.02h17.79c0.49,1.43,1.83,2.47,3.42,2.47c2,0,3.62-1.63,3.62-3.63
		c0-1.99-1.62-3.62-3.62-3.62c-1.59,0-2.93,1.04-3.42,2.47H79.4v-6.71c5.52-2.71,9.88-7.42,12.14-13.19h5.37l9.54,9.54
		c-0.26,0.51-0.41,1.09-0.41,1.7c0,2,1.62,3.62,3.62,3.62s3.62-1.62,3.62-3.62s-1.62-3.63-3.62-3.63c-0.54,0-1.06,0.12-1.52,0.34
		L97.87,57.7h-5.56c0.52-1.86,0.83-3.8,0.9-5.8H108.19z M111.62,49.03c0.94,0,1.71,0.77,1.71,1.71c0,0.95-0.76,1.71-1.71,1.71
		c-0.94,0-1.71-0.76-1.71-1.71C109.91,49.8,110.68,49.03,111.62,49.03z M107.59,25.82c0.95,0,1.72,0.77,1.72,1.72
		c0,0.94-0.77,1.71-1.72,1.71c-0.94,0-1.71-0.77-1.71-1.71C105.88,26.59,106.65,25.82,107.59,25.82z M96.55,20.43
		c0.95,0,1.71,0.77,1.71,1.72c0,0.94-0.76,1.71-1.71,1.71c-0.94,0-1.71-0.77-1.71-1.71C94.84,21.2,95.61,20.43,96.55,20.43z
		 M34.53,21.35c-0.95,0-1.71-0.77-1.71-1.71c0-0.95,0.76-1.72,1.71-1.72c0.94,0,1.71,0.77,1.71,1.72
		C36.24,20.58,35.47,21.35,34.53,21.35z M31.07,31.11l-0.67,0.67C30.16,31.92,29.88,32,29.58,32c-0.95,0-1.71-0.76-1.71-1.71
		c0-0.94,0.76-1.71,1.71-1.71c0.94,0,1.71,0.77,1.71,1.71C31.29,30.59,31.21,30.87,31.07,31.11z M25.4,52.34
		c-0.95,0-1.72-0.77-1.72-1.72c0-0.94,0.77-1.71,1.72-1.71c0.94,0,1.71,0.77,1.71,1.71C27.11,51.57,26.34,52.34,25.4,52.34z
		 M27.23,73.87c-0.94,0-1.71-0.77-1.71-1.71c0-0.95,0.77-1.72,1.71-1.72c0.95,0,1.71,0.77,1.71,1.72
		C28.94,73.1,28.18,73.87,27.23,73.87z M42.84,80.86c-0.95,0-1.72-0.77-1.72-1.72c0-0.94,0.77-1.71,1.72-1.71
		c0.94,0,1.71,0.77,1.71,1.71C44.55,80.09,43.78,80.86,42.84,80.86z M98.29,79.36c0.94,0,1.71,0.77,1.71,1.72
		c0,0.94-0.77,1.71-1.71,1.71c-0.95,0-1.72-0.77-1.72-1.71C96.57,80.13,97.34,79.36,98.29,79.36z M60.26,36.22l-1.78-3.11
		c-0.13-0.23-0.05-0.51,0.17-0.64c0.22-0.13,0.51-0.05,0.63,0.17l1.64,2.87c1.82-1.78,4.41-2.9,7.27-2.9c2.87,0,5.45,1.11,7.27,2.89
		l1.64-2.86c0.12-0.22,0.4-0.3,0.63-0.17c0.22,0.13,0.3,0.41,0.17,0.63l-1.78,3.11c1.3,1.56,2.07,3.5,2.07,5.62h-20
		C58.19,39.72,58.96,37.77,60.26,36.22z M56.66,46.36v9.99h-0.01c-0.09,1.07-1.05,1.91-2.24,1.91s-2.15-0.84-2.24-1.91h-0.01V46.24
		c0-1.14,1.01-2.07,2.25-2.07s2.25,0.93,2.25,2.07c0,0.04,0,0.08-0.01,0.12H56.66z M78.3,57.98c0,0.04-0.01,0.07-0.02,0.11
		c0.01,0.1,0.02,0.2,0.02,0.31c0,1.02-0.81,1.87-1.87,2.04v0.03h-0.88v6.15c-0.05,0.54-0.31,1.02-0.71,1.36
		c-0.4,0.35-0.94,0.56-1.53,0.56c-1.19,0-2.16-0.85-2.24-1.92h-0.01v-6.15h-5.73v6.15c-0.05,0.54-0.31,1.02-0.71,1.36
		c-0.4,0.35-0.94,0.56-1.53,0.56c-1.19,0-2.16-0.85-2.25-1.92v-6.15h-0.89v-0.03c-1.06-0.17-1.86-1.02-1.86-2.05
		c0-0.1,0.01-0.2,0.02-0.3c-0.01-0.03-0.02-0.07-0.02-0.12V43.06c0-0.15,0.12-0.28,0.28-0.28h19.64c0.16,0,0.29,0.13,0.29,0.28
		V57.98z M84.24,56.34c-0.04,0.54-0.31,1.02-0.71,1.36c-0.41,0.35-0.95,0.56-1.54,0.56c-1.18,0-2.15-0.85-2.24-1.92v-10.1
		c0-1.15,1-2.08,2.24-2.08c1.24,0,2.25,0.93,2.25,2.08V56.34z M111.37,71.26c0,0.94-0.76,1.71-1.71,1.71
		c-0.94,0-1.72-0.77-1.72-1.71c0-0.95,0.78-1.72,1.72-1.72C110.61,69.54,111.37,70.31,111.37,71.26z"/>
	<path class="st0" d="M65.18,37.72c0,1.07-1.6,1.07-1.6,0C63.57,36.65,65.18,36.65,65.18,37.72"/>
	<linearGradient id="SVGID_1_" gradientUnits="userSpaceOnUse" x1="65.3946" y1="24.1423" x2="25.5212" y2="19.6993">
		<stop  offset="0" style="stop-color:#10BEF0"/>
		<stop  offset="1" style="stop-color:#10BEF0;stop-opacity:0"/>
	</linearGradient>
	<path class="st2" d="M60.66,18.48c0,3.03,0,6.06,0,9.09c-0.77,0.31-1.55,0.62-2.32,0.93c-0.01-2.57-0.01-5.14-0.02-7.71H37.96
		c-0.48,1.43-1.84,2.46-3.43,2.46c-2,0-3.62-1.62-3.62-3.62c0-1.99,1.62-3.61,3.62-3.61c1.59,0,2.95,1.03,3.43,2.46H60.66z"/>
	<circle class="st4" cx="34.53" cy="19.63" r="1.71"/>
	<linearGradient id="SVGID_2_" gradientUnits="userSpaceOnUse" x1="46.5597" y1="47.5867" x2="28.3319" y2="29.0171">
		<stop  offset="0" style="stop-color:#10BEF0"/>
		<stop  offset="1" style="stop-color:#10BEF0;stop-opacity:0"/>
	</linearGradient>
	<path class="st3" d="M45.34,42.37c-0.24,0.77-0.49,1.54-0.73,2.31h-2.47c-3.7-3.69-7.39-7.39-11.09-11.08
		c0.01-0.01,0.01-0.01,0.02-0.02c-0.45,0.21-0.96,0.33-1.49,0.33c-2,0-3.62-1.62-3.62-3.62s1.62-3.62,3.62-3.62s3.62,1.62,3.62,3.62
		c0,0.63-0.16,1.22-0.44,1.74L43.1,42.37H45.34z"/>
	<circle class="st4" cx="29.58" cy="30.29" r="1.71"/>
	<linearGradient id="SVGID_3_" gradientUnits="userSpaceOnUse" x1="53.3695" y1="49.3636" x2="12.8126" y2="51.1864">
		<stop  offset="0" style="stop-color:#10BEF0"/>
		<stop  offset="0.8303" style="stop-color:#10BEF0;stop-opacity:0"/>
	</linearGradient>
	<path class="st5" d="M43.81,49.58v2.32H28.85c-0.63,1.43-2,2.35-3.45,2.34c-1.85-0.02-3.62-1.56-3.62-3.62
		c0-1.99,1.62-3.61,3.62-3.61c1.63,0,3.01,1.08,3.46,2.57H43.81z"/>
	<circle class="st4" cx="25.39" cy="50.62" r="1.71"/>
	<linearGradient id="SVGID_4_" gradientUnits="userSpaceOnUse" x1="50.0171" y1="52.1245" x2="22.7893" y2="76.0485">
		<stop  offset="0" style="stop-color:#10BEF0"/>
		<stop  offset="1" style="stop-color:#10BEF0;stop-opacity:0"/>
	</linearGradient>
	<path class="st6" d="M30.55,70.71c-0.01-0.01-0.01-0.01-0.02-0.02c0.21,0.45,0.32,0.94,0.32,1.46c0,2-1.62,3.62-3.62,3.62
		s-3.62-1.62-3.62-3.62c0-1.99,1.62-3.61,3.62-3.61c0.64,0,1.24,0.16,1.76,0.45c3.77-3.77,7.52-7.53,11.29-11.3h4.42
		c0.26,0.78,0.52,1.55,0.78,2.33h-4.24L30.55,70.71z"/>
	<circle class="st4" cx="27.23" cy="72.15" r="1.71"/>
	<linearGradient id="SVGID_5_" gradientUnits="userSpaceOnUse" x1="70.1428" y1="80.0827" x2="39.9529" y2="77.1207">
		<stop  offset="0" style="stop-color:#10BEF0"/>
		<stop  offset="1" style="stop-color:#10BEF0;stop-opacity:0"/>
	</linearGradient>
	<path class="st7" d="M60.66,74.46v5.84h-14.4c-0.48,1.43-1.83,2.46-3.42,2.46c-2,0-3.62-1.62-3.62-3.62c0-1.99,1.62-3.61,3.62-3.61
		c1.58,0,2.93,1.03,3.42,2.45h12.08v-4.42C59.11,73.86,59.89,74.16,60.66,74.46z"/>
	<circle class="st4" cx="42.83" cy="79.14" r="1.71"/>
	<linearGradient id="SVGID_6_" gradientUnits="userSpaceOnUse" x1="77.0766" y1="78.9551" x2="101.8766" y2="78.9551">
		<stop  offset="0" style="stop-color:#10BEF0"/>
		<stop  offset="1" style="stop-color:#10BEF0;stop-opacity:0"/>
	</linearGradient>
	<path class="st8" d="M101.88,81.07c0,2-1.62,3.62-3.62,3.62c-1.59,0-2.95-1.03-3.43-2.46H77.08v-8.02
		c0.77-0.33,1.55-0.65,2.32-0.98v6.69h15.43c0.48-1.43,1.84-2.46,3.43-2.46C100.26,77.46,101.88,79.08,101.88,81.07z"/>
	<circle class="st4" cx="98.26" cy="81.07" r="1.71"/>
	<linearGradient id="SVGID_7_" gradientUnits="userSpaceOnUse" x1="91.5366" y1="66.2802" x2="113.2666" y2="66.2802">
		<stop  offset="0" style="stop-color:#10BEF0"/>
		<stop  offset="1" style="stop-color:#10BEF0;stop-opacity:0"/>
	</linearGradient>
	<path class="st9" d="M113.27,71.25c0,2-1.62,3.62-3.61,3.62c-2,0-3.62-1.62-3.62-3.62c0-0.6,0.15-1.17,0.41-1.67
		c-3.18-3.18-6.36-6.37-9.54-9.56h-5.37c0.26-0.77,0.51-1.55,0.77-2.32h5.56l10.27,10.27c0.46-0.21,0.98-0.33,1.52-0.33
		C111.65,67.64,113.27,69.26,113.27,71.25z"/>
	<circle class="st4" cx="109.65" cy="71.25" r="1.71"/>
	<linearGradient id="SVGID_8_" gradientUnits="userSpaceOnUse" x1="93.1866" y1="50.7351" x2="115.2366" y2="50.7351">
		<stop  offset="0" style="stop-color:#10BEF0"/>
		<stop  offset="1" style="stop-color:#10BEF0;stop-opacity:0"/>
	</linearGradient>
	<path class="st10" d="M115.24,50.74c0,2-1.62,3.62-3.62,3.62c-1.57,0-2.91-1-3.41-2.4H93.19v-2.38h15
		c0.48-1.43,1.84-2.46,3.43-2.46C113.62,47.12,115.24,48.74,115.24,50.74z"/>
	<circle class="st4" cx="111.62" cy="50.74" r="1.71"/>
	<linearGradient id="SVGID_9_" gradientUnits="userSpaceOnUse" x1="90.9166" y1="33.4051" x2="111.2066" y2="33.4051">
		<stop  offset="0" style="stop-color:#10BEF0"/>
		<stop  offset="1" style="stop-color:#10BEF0;stop-opacity:0"/>
	</linearGradient>
	<path class="st11" d="M111.21,27.54c0,1.99-1.62,3.61-3.61,3.61c-0.63,0-1.23-0.16-1.74-0.45c-4.06,4.07-8.13,8.13-12.19,12.2
		h-1.81c-0.31-0.77-0.63-1.55-0.94-2.32h1.79c3.86-3.86,7.72-7.72,11.58-11.58c-0.2-0.45-0.31-0.94-0.31-1.46
		c0-2,1.62-3.62,3.62-3.62C109.59,23.92,111.21,25.54,111.21,27.54z"/>
	<circle class="st4" cx="107.59" cy="27.53" r="1.71"/>
	<linearGradient id="SVGID_10_" gradientUnits="userSpaceOnUse" x1="77.0766" y1="23.6701" x2="100.1666" y2="23.6701">
		<stop  offset="0" style="stop-color:#10BEF0"/>
		<stop  offset="1" style="stop-color:#10BEF0;stop-opacity:0"/>
	</linearGradient>
	<path class="st12" d="M100.17,22.14c0,2-1.62,3.62-3.62,3.62c-1.59,0-2.95-1.03-3.43-2.46h-13.7c-0.01,1.84-0.01,3.68-0.02,5.52
		c-0.77-0.32-1.55-0.64-2.32-0.96v-6.87h16.04c0.48-1.43,1.83-2.46,3.43-2.46C98.55,18.53,100.17,20.15,100.17,22.14z"/>
	<path class="st4" d="M98.26,22.14c0,0.95-0.77,1.71-1.71,1.71c-0.95,0-1.72-0.77-1.72-1.71s0.77-1.71,1.72-1.71
		C97.49,20.43,98.26,21.19,98.26,22.14z"/>
</g>
</svg>
