<svg id="Layer_1" data-name="Layer 1" xmlns="http://www.w3.org/2000/svg" xmlns:xlink="http://www.w3.org/1999/xlink" viewBox="0 0 24 24"><defs><style>.cls-1{fill:#002680;}.cls-2{fill:url(#linear-gradient);}</style><linearGradient id="linear-gradient" x1="12.71" y1="3.33" x2="11.27" y2="20.87" gradientUnits="userSpaceOnUse"><stop offset="0" stop-color="#10bef0"/><stop offset="0.03" stop-color="#10bef0" stop-opacity="0.93"/><stop offset="0.13" stop-color="#10bef0" stop-opacity="0.71"/><stop offset="0.24" stop-color="#10bef0" stop-opacity="0.52"/><stop offset="0.35" stop-color="#10bef0" stop-opacity="0.36"/><stop offset="0.47" stop-color="#10bef0" stop-opacity="0.23"/><stop offset="0.58" stop-color="#10bef0" stop-opacity="0.13"/><stop offset="0.71" stop-color="#10bef0" stop-opacity="0.06"/><stop offset="0.84" stop-color="#10bef0" stop-opacity="0.01"/><stop offset="1" stop-color="#10bef0" stop-opacity="0"/></linearGradient></defs><path class="cls-1" d="M18.29,8.06l-1.46.83L14.62,7.61l.8-.46v-4L12,1.24,8.58,3.18v4l.76.45L7.13,8.87,5.69,8.06,2.28,10v4l3.41,2,2.24-1.29,2.21,1.27-1.57.89v4l3.42,2,3.42-2v-4l-1.6-.9L16,14.63l2.26,1.31,3.43-2V10ZM15.05,6.93,12.18,8.58V5.26L15,3.61ZM12,1.67l2.86,1.62L12,5,9.14,3.29ZM9,6.94V3.62l2.85,1.66v3.3ZM5.51,15.4,2.66,13.75V10.44L5.51,12.1Zm.17-3.64L2.85,10.11,5.69,8.49l2.86,1.62Zm.21,3.64V12.08l2.86-1.65v3.32Zm5.91,6.82L9,20.57V17.26l2.85,1.66v3.3Zm3.25-1.65-2.87,1.65V18.9L15,17.25Zm-.2-3.64L12,18.58,9.14,16.93,12,15.31Zm-1.42-1.24L12,14.87l-1.46.84L8.32,14.43,9.13,14V10l-1.6-.91L9.73,7.82,12,9.13l2.23-1.29,2.21,1.27L14.87,10v4l.76.44Zm4.67-.29-2.84-1.65V10.44L18.1,12.1Zm.17-3.64-2.83-1.65,2.85-1.62,2.86,1.62Zm.21,3.64V12.08l2.86-1.65v3.32Z"/><path class="cls-2" d="M18.29,8.06l-1.46.83L14.62,7.61l.8-.46v-4L12,1.24,8.58,3.18v4l.76.45L7.13,8.87,5.69,8.06,2.28,10v4l3.41,2,2.24-1.29,2.21,1.27-1.57.89v4l3.42,2,3.42-2v-4l-1.6-.9L16,14.63l2.26,1.31,3.43-2V10ZM15.05,6.93,12.18,8.58V5.26L15,3.61ZM12,1.67l2.86,1.62L12,5,9.14,3.29ZM9,6.94V3.62l2.85,1.66v3.3ZM5.51,15.4,2.66,13.75V10.44L5.51,12.1Zm.17-3.64L2.85,10.11,5.69,8.49l2.86,1.62Zm.21,3.64V12.08l2.86-1.65v3.32Zm5.91,6.82L9,20.57V17.26l2.85,1.66v3.3Zm3.25-1.65-2.87,1.65V18.9L15,17.25Zm-.2-3.64L12,18.58,9.14,16.93,12,15.31Zm-1.42-1.24L12,14.87l-1.46.84L8.32,14.43,9.13,14V10l-1.6-.91L9.73,7.82,12,9.13l2.23-1.29,2.21,1.27L14.87,10v4l.76.44Zm4.67-.29-2.84-1.65V10.44L18.1,12.1Zm.17-3.64-2.83-1.65,2.85-1.62,2.86,1.62Zm.21,3.64V12.08l2.86-1.65v3.32Z"/></svg>