<svg xmlns="http://www.w3.org/2000/svg" xmlns:xlink="http://www.w3.org/1999/xlink" viewBox="0 0 1080 1080"><defs><style>.cls-1{fill:#143c83;}.cls-2{isolation:isolate;}.cls-3{fill:#cdd7f9;}.cls-4{fill:url(#linear-gradient);}.cls-5{fill:url(#linear-gradient-2);}.cls-10,.cls-16,.cls-6{fill:#fff;}.cls-6{stroke:#8693f2;}.cls-16,.cls-18,.cls-19,.cls-20,.cls-25,.cls-29,.cls-30,.cls-32,.cls-36,.cls-45,.cls-46,.cls-50,.cls-54,.cls-6,.cls-7,.cls-9{stroke-miterlimit:10;}.cls-18,.cls-19,.cls-20,.cls-25,.cls-26,.cls-29,.cls-30,.cls-32,.cls-33,.cls-36,.cls-45,.cls-46,.cls-49,.cls-50,.cls-54,.cls-7,.cls-9{fill:none;}.cls-16,.cls-7{stroke:#143c83;}.cls-8{fill:#4198c4;opacity:0.58;}.cls-9{stroke:#277ef1;stroke-width:1.5px;}.cls-11{fill:#e0ebfc;}.cls-11,.cls-13{opacity:0.75;}.cls-12{fill:url(#linear-gradient-3);}.cls-13,.cls-14,.cls-15{fill:#f5f6ff;}.cls-15{mix-blend-mode:multiply;}.cls-17{fill:#089bcb;}.cls-18{stroke:#f5f6ff;}.cls-18,.cls-49{stroke-width:2px;}.cls-19{stroke:#d4daff;}.cls-20{stroke:#089bcb;}.cls-21{fill:#f4f4f4;}.cls-22{fill:#182270;}.cls-23{fill:#ffcbbd;}.cls-24{fill:#0b0b3a;}.cls-25,.cls-33{stroke:#2944b7;}.cls-25,.cls-26,.cls-30,.cls-32,.cls-33{stroke-width:0.75px;}.cls-26{stroke:#e88872;}.cls-26,.cls-33,.cls-49{stroke-linejoin:round;}.cls-27{fill:#3162c4;}.cls-28{fill:url(#linear-gradient-4);}.cls-29{stroke:#3162c4;}.cls-30{stroke:#ffa6a4;}.cls-31{fill:#f94c43;}.cls-32{stroke:#1f38b2;}.cls-34{fill:#a1c7ff;}.cls-35{fill:#fe881c;}.cls-36{stroke:#254bb7;}.cls-37{fill:#254bb7;}.cls-38{fill:#202263;}.cls-39,.cls-41{fill:#f2b18f;}.cls-39{fill-rule:evenodd;}.cls-40{fill:#212237;}.cls-42{fill:#103bb2;}.cls-43{fill:#22252d;}.cls-44{fill:#141744;}.cls-45{stroke:#4d59a3;}.cls-45,.cls-46{stroke-width:0.5px;}.cls-46{stroke:#1c38ad;}.cls-47{fill:url(#linear-gradient-5);}.cls-48{fill:url(#linear-gradient-6);}.cls-49,.cls-54{stroke:#202263;}.cls-49{stroke-linecap:round;}.cls-50{stroke:#fff;}.cls-51{fill:#4a63fe;}.cls-52{clip-path:url(#clip-path);}.cls-53{opacity:0.44;}.cls-54{stroke-dasharray:3 2;}.cls-55{fill:url(#linear-gradient-7);}</style><linearGradient id="linear-gradient" x1="492.36" y1="658.61" x2="568.95" y2="658.61" gradientUnits="userSpaceOnUse"><stop offset="0" stop-color="#089bcb"/><stop offset="1" stop-color="#143c83"/></linearGradient><linearGradient id="linear-gradient-2" x1="379.12" y1="558.94" x2="683.05" y2="558.94" gradientUnits="userSpaceOnUse"><stop offset="0" stop-color="#143c83"/><stop offset="1" stop-color="#089bcb"/></linearGradient><linearGradient id="linear-gradient-3" x1="467.84" y1="694.5" x2="594.33" y2="694.5" xlink:href="#linear-gradient"/><linearGradient id="linear-gradient-4" x1="407.48" y1="663.85" x2="444.21" y2="663.85" xlink:href="#linear-gradient"/><linearGradient id="linear-gradient-5" x1="415.16" y1="589.05" x2="427.71" y2="589.05" xlink:href="#linear-gradient"/><linearGradient id="linear-gradient-6" x1="447.37" y1="589.05" x2="459.91" y2="589.05" xlink:href="#linear-gradient"/><clipPath id="clip-path"><circle class="cls-1" cx="437.54" cy="556.28" r="5.54" transform="translate(-178.8 208.4) rotate(-22.37)"/></clipPath><linearGradient id="linear-gradient-7" x1="434.72" y1="592.74" x2="440.35" y2="592.74" xlink:href="#linear-gradient"/></defs><g class="cls-2"><g id="Layer_1" data-name="Layer 1"><path class="cls-3" d="M631.84,429a6,6,0,0,1,2.5.54,4.85,4.85,0,0,1-.13-1.09,4.56,4.56,0,0,1,8.93-1.28,10.31,10.31,0,1,1,20.43,2.4,7.1,7.1,0,1,1,5.4,11.71H631.84a6.14,6.14,0,1,1,0-12.28Z"/><path class="cls-3" d="M440.75,443.1a10.88,10.88,0,0,0-4.42.95,8.05,8.05,0,0,0-15.55-4.18,18.22,18.22,0,1,0-36.09,4.25,12.54,12.54,0,1,0-9.54,20.68h65.6a10.85,10.85,0,1,0,0-21.7Z"/><path class="cls-3" d="M667.12,460.52a26.56,26.56,0,0,0,1.09,6.76,26.14,26.14,0,0,0,2.54,5.84l4.45-1.88a25,25,0,0,0,4.65,5.8l-2.78,4a26.49,26.49,0,0,0,5.54,4,23.84,23.84,0,0,0,2.45,1.17l.65.26a26.6,26.6,0,0,0,2.83.91l1.83-4.53c.28.08.55.15.83.21s.62.14.94.21a25,25,0,0,0,5.61.45l.86,4.8a26.46,26.46,0,0,0,12.6-3.63l-1.89-4.47a24.8,24.8,0,0,0,5.82-4.62l4,2.78a26.07,26.07,0,0,0,4-5.54,26.6,26.6,0,0,0,2.34-5.93L721,465.31a24.73,24.73,0,0,0,.86-7.4l4.77-.86a26,26,0,0,0-1.08-6.75,27.17,27.17,0,0,0-2.54-5.85l-4.44,1.88a25.14,25.14,0,0,0-4.64-5.83l2.76-4a26.41,26.41,0,0,0-11.47-6.34l-1.82,4.46a25.06,25.06,0,0,0-7.4-.87l-.86-4.73a26.31,26.31,0,0,0-12.59,3.62l1.86,4.41a25,25,0,0,0-5.85,4.65L674.61,439a26.53,26.53,0,0,0-4,5.54,26.09,26.09,0,0,0-2.33,5.93l4.45,1.8a24.85,24.85,0,0,0-.84,7.42Zm14.06,2.35A16.22,16.22,0,1,1,702,474.14,16.28,16.28,0,0,1,681.18,462.87Z"/><path class="cls-3" d="M699.23,449.43a8.54,8.54,0,0,1,2.19.85,7.93,7.93,0,0,1,1.68,1.23,5.75,5.75,0,0,1,1.1,1.44,3.28,3.28,0,0,1,.43,1.46.53.53,0,0,1-.17.41.54.54,0,0,1-.39.18h-3.52a1.51,1.51,0,0,1-.61-.11,2.06,2.06,0,0,1-.47-.32l-.25-.27a2.41,2.41,0,0,0-.5-.39,3.23,3.23,0,0,0-.81-.35,4,4,0,0,0-1.18-.15,6.19,6.19,0,0,0-1,.07,3.33,3.33,0,0,0-.84.21,1.59,1.59,0,0,0-.59.42,1,1,0,0,0-.22.67.93.93,0,0,0,.25.67,2.31,2.31,0,0,0,.86.5,12.93,12.93,0,0,0,1.6.45l2.47.51a13.11,13.11,0,0,1,2.59.75,6.11,6.11,0,0,1,1.84,1.14,4.41,4.41,0,0,1,1.1,1.61,6.07,6.07,0,0,1,.36,2.2,4.89,4.89,0,0,1-.43,2.07,5.14,5.14,0,0,1-1.21,1.66,6.4,6.4,0,0,1-1.88,1.21,9.47,9.47,0,0,1-2.42.7v1.91a.69.69,0,0,1-.21.51.7.7,0,0,1-.52.22H695a.73.73,0,0,1-.72-.73v-2a9.44,9.44,0,0,1-2.33-.85,7.66,7.66,0,0,1-1.77-1.25,5.14,5.14,0,0,1-1.15-1.52,4,4,0,0,1-.43-1.65.58.58,0,0,1,.18-.42.54.54,0,0,1,.39-.17h3.52a1.55,1.55,0,0,1,.59.09,1.63,1.63,0,0,1,.43.29,4.57,4.57,0,0,1,.32.35,3.8,3.8,0,0,0,.58.49,3.76,3.76,0,0,0,.92.45,4.34,4.34,0,0,0,1.35.19,8,8,0,0,0,2.38-.31c.64-.21,1-.58,1-1.12a.82.82,0,0,0-.35-.67,3.43,3.43,0,0,0-1.05-.5,15.63,15.63,0,0,0-1.79-.44l-2.57-.54a7.42,7.42,0,0,1-4-2,5.23,5.23,0,0,1-1.28-3.69,4.91,4.91,0,0,1,.35-1.82,5.33,5.33,0,0,1,1-1.6,6.62,6.62,0,0,1,1.61-1.26,8.6,8.6,0,0,1,2.17-.84v-2a.72.72,0,0,1,.72-.72h3.52a.72.72,0,0,1,.73.72Z"/><path class="cls-1" d="M569,644.12H493.22s3.14,48.24-11.85,48.24h99.44C565.81,692.36,569,644.12,569,644.12Z"/><path class="cls-4" d="M492.36,673.11l76.35-15.47c-.14-7.65.24-13.52.24-13.52H493.22S494.23,659.67,492.36,673.11Z"/><rect class="cls-5" x="379.12" y="459.22" width="303.93" height="199.44" rx="5.57"/><rect class="cls-6" x="387.66" y="466.29" width="286.86" height="185.3" rx="2.59"/><line class="cls-7" x1="387.66" y1="489.66" x2="674.52" y2="489.66"/><path class="cls-8" d="M640.07,482.38H442.44a4.9,4.9,0,0,1-4.9-4.9h0a4.9,4.9,0,0,1,4.9-4.91H640.07a4.9,4.9,0,0,1,4.9,4.91h0A4.9,4.9,0,0,1,640.07,482.38Z"/><path class="cls-7" d="M401.73,477.72a2.62,2.62,0,1,1-2.61-2.62A2.62,2.62,0,0,1,401.73,477.72Z"/><path class="cls-7" d="M413.94,477.72a2.62,2.62,0,1,1-2.61-2.62A2.62,2.62,0,0,1,413.94,477.72Z"/><path class="cls-7" d="M426.15,477.72a2.62,2.62,0,1,1-2.62-2.62A2.62,2.62,0,0,1,426.15,477.72Z"/><path class="cls-9" d="M611.15,556.8H451a11,11,0,0,1-11-11h0a11,11,0,0,1,11-11H611.15a11,11,0,0,1,11,11h0A11,11,0,0,1,611.15,556.8Z"/><path class="cls-1" d="M611.15,534.84H592.72v22h18.43a11,11,0,0,0,11-11h0A11,11,0,0,0,611.15,534.84Z"/><path class="cls-10" d="M614.36,551.12l-3.64-3.64a5.73,5.73,0,1,0-1.94,1.65l3.79,3.78a1.27,1.27,0,0,0,1.79-1.79Zm-4.11-7a4.1,4.1,0,1,1-4.1-4.1A4.11,4.11,0,0,1,610.25,544.07Z"/><path class="cls-11" d="M497.12,550.55H451.29a4.73,4.73,0,0,1-4.73-4.73h0a4.73,4.73,0,0,1,4.73-4.73h45.83a4.73,4.73,0,0,1,4.73,4.73h0A4.73,4.73,0,0,1,497.12,550.55Z"/><rect class="cls-12" x="467.84" y="690.98" width="126.49" height="7.04"/><line class="cls-6" x1="618.33" y1="498.51" x2="629.94" y2="498.51"/><line class="cls-6" x1="635.56" y1="498.51" x2="647.16" y2="498.51"/><rect class="cls-13" x="651.34" y="495.37" width="1.56" height="1.56"/><rect class="cls-13" x="653.52" y="495.37" width="1.56" height="1.56"/><rect class="cls-13" x="655.7" y="495.37" width="1.56" height="1.56"/><rect class="cls-13" x="651.34" y="497.73" width="1.56" height="1.56"/><rect class="cls-13" x="653.52" y="497.73" width="1.56" height="1.56"/><rect class="cls-13" x="655.7" y="497.73" width="1.56" height="1.56"/><rect class="cls-13" x="651.34" y="500.09" width="1.56" height="1.56"/><rect class="cls-13" x="653.52" y="500.09" width="1.56" height="1.56"/><rect class="cls-13" x="655.7" y="500.09" width="1.56" height="1.56"/><path class="cls-14" d="M667.67,498.51a4,4,0,1,1-4-4A4,4,0,0,1,667.67,498.51Z"/><circle class="cls-1" cx="666.6" cy="472.57" r="1.03"/><circle class="cls-1" cx="666.6" cy="477.48" r="1.03"/><circle class="cls-1" cx="666.6" cy="482.38" r="1.03"/><rect class="cls-15" x="407.11" y="522.14" width="157.73" height="111.42" rx="3.68"/><rect class="cls-16" x="397.9" y="516.41" width="157.73" height="111.42" rx="3.68"/><path class="cls-1" d="M551.31,516.41H402.22a4.31,4.31,0,0,0-4.32,4.32v7.14H555.63v-7.14A4.32,4.32,0,0,0,551.31,516.41Z"/><rect class="cls-7" x="483.13" y="482.57" width="173.38" height="127.44" rx="4.05"/><path class="cls-1" d="M651.76,482.57H487.88a4.75,4.75,0,0,0-4.75,4.74v7.85H656.51v-7.85A4.74,4.74,0,0,0,651.76,482.57Z"/><rect class="cls-17" x="616.4" y="518.52" width="11.6" height="8.17"/><rect class="cls-17" x="616.4" y="535.61" width="11.6" height="8.17"/><rect class="cls-17" x="616.4" y="552.7" width="11.6" height="8.17"/><rect class="cls-17" x="616.4" y="569.8" width="11.6" height="8.17"/><rect class="cls-17" x="616.4" y="586.89" width="11.6" height="8.17"/><line class="cls-18" x1="519.63" y1="504.98" x2="620.02" y2="504.98"/><line class="cls-18" x1="533.37" y1="510.07" x2="606.28" y2="510.07"/><polygon class="cls-17" points="534.67 550.56 534.67 593.76 543.34 593.76 543.34 544.26 534.67 550.56"/><polygon class="cls-17" points="523.07 558.99 518.74 556.22 518.74 593.76 527.41 593.76 527.41 555.84 523.07 558.99"/><polygon class="cls-17" points="507.14 548.8 502.8 551.57 502.8 593.76 511.48 593.76 511.48 551.57 507.14 548.8"/><polygon class="cls-17" points="582.47 540.48 582.47 593.76 591.14 593.76 591.14 535.31 582.47 540.48"/><polygon class="cls-17" points="554.94 535.82 550.6 538.98 550.6 593.76 559.28 593.76 559.28 538.97 554.94 535.82"/><polygon class="cls-17" points="570.87 547.39 566.54 544.25 566.54 593.76 575.21 593.76 575.21 544.81 570.87 547.39"/><polyline class="cls-7" points="493.01 548.13 493.01 593.76 608.56 593.76"/><polyline class="cls-19" points="491.09 549.26 493.01 547.84 494.93 549.26"/><polyline class="cls-19" points="607.2 592.34 609.12 593.76 607.2 595.18"/><polyline class="cls-20" points="495.21 553.18 507.14 545.58 523.07 555.77 554.94 532.6 570.87 544.17 601.85 525.71"/><polyline class="cls-19" points="597.98 525.03 601.66 525.65 600.69 529.36"/><path class="cls-1" d="M630,662.76c-12.38,0-32.81,34.18-25.75,39s40.78,4.79,48.53,0S645.21,662.76,630,662.76Z"/><path class="cls-1" d="M633.23,668.47l5.82-14.56s-.18-2.37-4.19-3.1-3.46,2.37-7.1,2.37-7.92-3.55-10.92-.55l8.56,15.84Z"/><path class="cls-21" d="M632.22,676.06a7.21,7.21,0,0,1,1.87.73,6.68,6.68,0,0,1,1.44,1.05,5.3,5.3,0,0,1,.94,1.23,2.93,2.93,0,0,1,.37,1.24.47.47,0,0,1-.15.35.46.46,0,0,1-.34.15h-3a1.25,1.25,0,0,1-.52-.09,1.76,1.76,0,0,1-.4-.27l-.22-.23a2.27,2.27,0,0,0-.42-.34,3.18,3.18,0,0,0-.69-.29,3.3,3.3,0,0,0-1-.13,5.73,5.73,0,0,0-.84.06,2.83,2.83,0,0,0-.71.18,1.19,1.19,0,0,0-.51.36.84.84,0,0,0-.19.57.77.77,0,0,0,.22.57,1.87,1.87,0,0,0,.73.43,11.33,11.33,0,0,0,1.37.38l2.11.43a12,12,0,0,1,2.2.64,5.19,5.19,0,0,1,1.57,1,3.61,3.61,0,0,1,.94,1.38,5,5,0,0,1,.31,1.87,4.23,4.23,0,0,1-.36,1.76,4.53,4.53,0,0,1-1,1.43,5.72,5.72,0,0,1-1.6,1,8.75,8.75,0,0,1-2.07.6v1.63a.6.6,0,0,1-.18.43.61.61,0,0,1-.44.19h-3a.61.61,0,0,1-.44-.19.6.6,0,0,1-.18-.43v-1.7a7.81,7.81,0,0,1-2-.73,6.65,6.65,0,0,1-1.51-1.06,4.59,4.59,0,0,1-1-1.3,3.35,3.35,0,0,1-.36-1.41.52.52,0,0,1,.14-.36.48.48,0,0,1,.34-.15h3a1.16,1.16,0,0,1,.51.09,1.45,1.45,0,0,1,.37.24l.27.29a3.12,3.12,0,0,0,.49.43,3.54,3.54,0,0,0,.78.38,3.86,3.86,0,0,0,1.16.16,6.52,6.52,0,0,0,2-.27,1,1,0,0,0,.82-1,.69.69,0,0,0-.3-.57,3.21,3.21,0,0,0-.89-.43,13.32,13.32,0,0,0-1.53-.37l-2.19-.46a6.43,6.43,0,0,1-3.46-1.69,4.51,4.51,0,0,1-1.09-3.16,4.06,4.06,0,0,1,.3-1.54,4.58,4.58,0,0,1,.86-1.37,5.8,5.8,0,0,1,1.38-1.08A7.5,7.5,0,0,1,628,676v-1.7a.63.63,0,0,1,.62-.62h3a.63.63,0,0,1,.62.62Z"/><path class="cls-20" d="M623.58,665.1c6,2.79,11.45-1.15,11.45-1.15"/><path class="cls-20" d="M631.61,665.56s4.52-2.55,3.17-6.6c-1.85-5.57-4,6.83-4,6.83,4.23,0,1.67,4.7,5.43,5.55"/><path class="cls-20" d="M630,665.94s-5.92-1-5.9-5.29c0-5.87,6.39,5.14,6.39,5.14-6.35,3.41-3.65,6.64-6.92,7.93"/><path class="cls-22" d="M446.08,673.94s-44.31-4.31-47,7.52c-4,17.92,56.06,17.92,56.06,17.92l5.18-12-24.63-9.65"/><path class="cls-23" d="M444.8,702.18l-12.24-.45s-1.95-.62-3.19-4.28-.74-4-.74-4l14.27-1.6"/><path class="cls-22" d="M460.34,672.41s33.88,2.05,32.46,17.45S440.86,704,440.86,704l-3.65-15.29S463.32,683,474.37,683"/><path class="cls-22" d="M458.07,670.77l26,13.68s-19.41,11-38,6.46S424.68,678,424.68,678Z"/><path class="cls-24" d="M433.4,692.76a1.25,1.25,0,0,0,.25,1c.38.39,1.21-.2,2.1.7s1.25,4.34.91,5-1.11.59-1.06,1c.1.93,1.18,1.34,1.18,1.34s-2.71.38-6.28.64c-6.35.46-8.27.39-10.6,0-1.9-.31-4.14-3.84-1.72-6.26,3.64-3.64,11.59-3.4,11.59-3.4l3.63-.11"/><path class="cls-25" d="M437.77,691.08s23.29-8.82,36.6-9.69"/><path class="cls-25" d="M442.68,689.32s-17.6-10.49-28.9-11.32"/><path class="cls-23" d="M449.86,615.8s-3.08,8-.55,10.66c1.31,1.38,5.27,1.71,7,.4,1.27-1,3.26-7.13,2.57-8.22C456.25,614.43,449.86,615.8,449.86,615.8Z"/><path class="cls-23" d="M459.88,623.67l.56,8.7s-5.57,4.37-10.14-.54l1-5.66Z"/><path class="cls-24" d="M461.93,622c.4-1.82,1.56-4.77.46-5.92-.42-.44-1-.72-1.38-1.16a6.35,6.35,0,0,1-.9-1.53,6.32,6.32,0,0,0-1.93-2.38,3.28,3.28,0,0,0-2.93-.47,7.3,7.3,0,0,1-1.06.42,3.48,3.48,0,0,1-1.32-.14,7.32,7.32,0,0,0-3.54.16,4.39,4.39,0,0,0-3.08,2.71c-.4,1.36.52,3.1,1.94,3.16.67,0,1.42-.27,2,.11a2.67,2.67,0,0,1,.48.47,2.58,2.58,0,0,0,2.77.62c1.21-.48,1.81-.69,2,.77a3,3,0,0,0,1.94,2.37,5.8,5.8,0,0,1,1.78.63,1.5,1.5,0,0,1,.41,1.78,6.88,6.88,0,0,0-.35.65c-.2.66.36,1.28.86,1.73A7.81,7.81,0,0,0,461.93,622Z"/><path class="cls-23" d="M458.23,622.12c.8-1.23,1.55-1.12,2-.53.62.79-.29,2.63-.76,3-1,.7-1.77.71-1.92-.1"/><path class="cls-26" d="M451,627.77a7.44,7.44,0,0,0,5.6-1.23"/><path class="cls-27" d="M440.82,633.9s-7.26,1.83-10,13.78c-1.6,6.93-3.41,14-3.41,14s-11.69,1.3-15.52,2.48l1.44,6.65s22.58,2,27.55-3,2.94-18.14,2.94-18.14"/><path class="cls-10" d="M453.36,633.64l8.26-1.11,1.88.41S449,673.87,448.67,673.87s-5.38-.83-5.38-.83l3.77-40.33,1.77-.71Z"/><path class="cls-22" d="M452.66,635.73l-.78,1.92S445.6,650,445.6,652.94s-1,20.35-.77,20.35,4.53.52,4.53.52l4.44-18.51.2-17.65"/><path class="cls-22" d="M451.24,633.93c-.29.29.3,3.37.64,3.72a2.39,2.39,0,0,0,2.12,0c.33-.32,1.9-3.21,1.38-3.72S451.71,633.46,451.24,633.93Z"/><path class="cls-27" d="M447.86,662.06c7.5-20,15.83-29.12,15.83-29.12s9,.85,11.58,5.32c3.19,5.6-.59,13.45-1.37,24.59s-1.7,8.29-1.7,8.29-11.15,4.25-21,4.25c0,0-11.45-.34-14.4-1.52v-16c0-7-1.77-18.3,1.83-22.68,1.58-1.93,8.66-2.46,8.66-2.46Z"/><path class="cls-28" d="M410.12,674.62h34.09l-2.67-20.4a1.31,1.31,0,0,0-1.31-1.14h-31.5a1.25,1.25,0,0,0-1.24,1.41Z"/><path class="cls-10" d="M422.1,663.69a2.55,2.55,0,0,0,2.5,2.34,2.15,2.15,0,0,0,2.17-2.34,2.55,2.55,0,0,0-2.5-2.33A2.15,2.15,0,0,0,422.1,663.69Z"/><polygon class="cls-10" points="460.32 630.46 453.59 633.2 450.54 630.46 448.83 632 450.09 636.09 453.51 633.85 455.7 637.34 461.62 632.53 460.32 630.46"/><path class="cls-27" d="M465.64,633.56a65.84,65.84,0,0,0-3.48,15.08h-3.72l2,3.21s-7.78,4-12.66,15.92"/><path class="cls-29" d="M444.8,633.29a45,45,0,0,1-2.71,10.93l2.34,1.69-2.92,1.65s5.35,13.16,4.47,20.21"/><polyline class="cls-30" points="461.74 632.71 455.78 637.69 453.51 633.85 450.08 636.35 448.6 632.09"/><path class="cls-23" d="M442.16,671.45c-1.47-.1-8.12-.43-8.12,0s2.19.84,2.08,1-1.87.26-2.83.17-2.23-.07-2.32.3c-.15.7,4.53,1.08,4.53,1.08-.05.21-5-1.35-5.15-.78-.28.82,5,2,5.16,2.28,0,0-4.3-2.35-4.5-1.74s3.58,2.8,4.86,3c-1-.38-3.84-2.59-4-2.15s2.4,2,2.84,2.19a25.77,25.77,0,0,0,7.06,1.18"/><polygon class="cls-10" points="443.61 670.77 440.86 671.08 441.94 680.02 445.73 679.84 443.61 670.77"/><path class="cls-27" d="M464.12,649.65a145.18,145.18,0,0,1-.62,16.11,106.22,106.22,0,0,1-21.59,4.66c.69,4.45,1.38,10.11,1.38,10.11s23.15-1.66,29.78-6.32c7.16-5,8-34.49-.39-38.48"/><path class="cls-27" d="M444,670c17.88-2.87,20.36-4.19,20.36-4.19s1.33-11,.81-17.31"/><path class="cls-23" d="M703.81,520.59l2.05,9.08s-5,5.3-10.45.62l-.1-6.12Z"/><path class="cls-23" d="M692.19,512.64s-2.44,9.53,1,11.39c1.81,1,7,.62,8.31-1.3,1-1.42.89-8.37-.18-9.25C697.26,510.09,692.19,512.64,692.19,512.64Z"/><path class="cls-31" d="M702.73,509.89c-1.44-2.78-4.65-2.22-9.5-.28-1.87.75-3.9.06-4.09.83-.51,2.18.63,4.1,1.82,4.49a5.22,5.22,0,0,0,2.88,0c2.11-.72,3.87.28,3.8,1.54,0,.33-.14.92.17,1.06a3.41,3.41,0,0,0,.72,0c.48,0,.72.64.64,1.12s1,.37.94.85c-.19,1.13,2,2.56,3.12,2.69s1.45-.66,1.95-2C705.87,518.23,707.07,509.74,702.73,509.89Z"/><path class="cls-23" d="M698.13,517.8c.39-1.53,1.19-1.67,1.86-1.22.89.59.6,2.78.24,3.29-.73,1-1.57,1.33-2,.56"/><path class="cls-26" d="M695.32,524.72c1.91,0,3.58-1.93,3.58-1.93"/><polyline class="cls-23" points="733.89 662.59 743.77 670.37 738.22 679.77 753.27 664.33 742.71 653.97"/><path class="cls-24" d="M741.79,668.84c-.37.58.27.64.24,2.33s-3.5,7.65-5.3,10.24.32,4.09,1.1,3.47l12.31-9.77c.9-.71,1-2,1.68-2.52.19-.15.48-.6.69-.55s.74.61.74.61l4.17-3.31a.81.81,0,0,0,.19-1.22l-5.14-5.57s-4.55,4.74-6.32,5.46c-.71.29-.46-.63-.89-.68A8.11,8.11,0,0,0,741.79,668.84Z"/><path class="cls-17" d="M726.6,587.79c0,9.43-.15,24,2.12,39,.9,5.92,21.2,32.36,21.2,32.36l-12.06,11.34s-35-30.93-34.1-53.4c.93-24.25-3.4-57.08-3.4-57.08"/><polyline class="cls-23" points="693 670.44 694.13 683.95 683.94 687.86 705.33 685.12 705.29 670.44"/><path class="cls-24" d="M693.53,681.52c-.65.22-.18.67-1.26,2s-7.49,3.82-10.51,4.73-2.29,3.4-1.3,3.4h15.71c1.16,0,2-.93,2.89-.93.24,0,.74-.17.88,0a1.82,1.82,0,0,1,.2.93h5.33c.6,0,.95-.38.91-.83l-.58-7.56s-6.5.89-8.33.35c-.74-.22,0-.78-.28-1.09A8.07,8.07,0,0,0,693.53,681.52Z"/><path class="cls-17" d="M687.19,589.14S685,620.83,685,636s4.3,42.73,4.3,42.73h17.53s-.93-46.74,8.88-79.22c3.5-11.62,4-16.85,2.45-23.28l-21.83-5.65Z"/><path class="cls-32" d="M692.83,588.24c-6.64,39.36-.09,90.52-.09,90.52"/><path class="cls-32" d="M719,592.43c0,4.89-1.44,7.23-5.22,11-2.69,11.37-3,21.67-4.83,31.88"/><path class="cls-32" d="M710.34,627.6c10.09,20.43,29.6,40,29.6,40"/><path class="cls-32" d="M705.24,594.32a32.29,32.29,0,0,0,10.14.2"/><path class="cls-32" d="M722.6,594a12.43,12.43,0,0,0,3.85-.08"/><path class="cls-22" d="M694,529.42a14.46,14.46,0,0,1,.89-2.77c3.27-1.93,8.35-2.54,10-2.54l1,3.31"/><path class="cls-23" d="M650.53,552c-2.87.13-11.25-.85-11.51-.32s2.69.91,2.39,1.31-4.86.11-5,.71c-.16.8,4.53.84,4.53.84s-5.14.22-5.08,1c.05.52,4,.54,5.48.74-1.65,0-4.34.3-4.28.85s2.74.6,4.79.77c-1.29,0-3.63.18-3.6.68s6.52,1.13,12.66,1.47"/><polyline class="cls-10" points="649.25 560.7 646.02 560.57 646.83 551.4 650.3 551.32"/><path class="cls-22" d="M698.6,526.71c.31-.06,3.83-.56,4.18-.58,3.66-.21,10,2.25,14.69,13.93,6.07,15,10.11,48.76,10.11,48.76S702,593.7,684,592.09C682.67,568.57,677,531.15,698.6,526.71Z"/><path class="cls-33" d="M689,556.06a175.67,175.67,0,0,1,5.61,36.27"/><path class="cls-22" d="M701.45,526.44A26,26,0,0,0,685.23,534c-4.63,4.79-8.11,10.6-11.55,13.35-3.93,3.14-25.37,3.55-25.37,3.55l.15,10.52s20.87,2.81,27.88.66,15-8.3,15-8.3"/><path class="cls-33" d="M683.36,559.44a41.65,41.65,0,0,0,7.84-5.05"/><rect class="cls-34" x="221.71" y="1059.06" width="444.59" height="1"/><path class="cls-35" d="M595.23,1049.36a.08.08,0,0,0,0-.15.08.08,0,0,0,0,.15Z"/><line class="cls-36" x1="350" y1="702.18" x2="361.72" y2="599.51"/><line class="cls-36" x1="317.11" y1="702.18" x2="328.83" y2="599.51"/><line class="cls-36" x1="318.92" y1="687.63" x2="351.66" y2="687.63"/><line class="cls-36" x1="320.42" y1="675.06" x2="353.1" y2="675.06"/><line class="cls-36" x1="321.68" y1="662.14" x2="354.29" y2="662.14"/><line class="cls-36" x1="323.09" y1="649.83" x2="355.63" y2="649.83"/><line class="cls-36" x1="324.55" y1="636.97" x2="357.29" y2="636.97"/><line class="cls-36" x1="326.01" y1="624.22" x2="358.55" y2="624.22"/><line class="cls-36" x1="327.61" y1="612.19" x2="360.27" y2="612.19"/><line class="cls-36" x1="340.54" y1="702.18" x2="328.83" y2="599.51"/><line class="cls-36" x1="373.43" y1="702.18" x2="361.72" y2="599.51"/><line class="cls-36" x1="371.63" y1="687.63" x2="338.88" y2="687.63"/><line class="cls-36" x1="370.13" y1="675.06" x2="337.45" y2="675.06"/><line class="cls-36" x1="368.87" y1="662.14" x2="336.25" y2="662.14"/><line class="cls-36" x1="367.46" y1="649.83" x2="334.92" y2="649.83"/><line class="cls-36" x1="365.99" y1="636.97" x2="333.25" y2="636.97"/><line class="cls-36" x1="364.54" y1="624.22" x2="331.99" y2="624.22"/><line class="cls-36" x1="362.94" y1="612.19" x2="330.27" y2="612.19"/><rect class="cls-37" x="323.86" y="597.14" width="42.4" height="2.97"/><polygon class="cls-38" points="390.4 545.61 378.74 567.72 347.96 567.72 347.96 564.95 378.05 564.95 388.82 544.57 390.4 545.61"/><path class="cls-39" d="M350.28,522.26c.16,3.72-.67,6.9-3.82,7s-7.35-1.24-7.59-6.54c-.17-3.72,2.27-6.85,5.42-7S350.13,518.54,350.28,522.26Z"/><path class="cls-39" d="M344.18,532.31a11,11,0,0,1-4.27-.76c-2.59-1-2.93-1.95-2.93-1.95l4.11-6.82,5.42,3.26Z"/><path class="cls-39" d="M349.64,522.07s1.29,2.47,1.16,2.87-1.27.45-1.27.45"/><path class="cls-40" d="M342.23,522.58c.49.94,1.87,1.58,2.41-.11s.33-2.17,1.18-2.34c1.08-.23.77.56,4.45.8,2.2.14,3.21-1.53,3-2.72a2.34,2.34,0,0,0-1.94-2c-2-.34-1.33.07-2.59-.33s-1.75-1.49-3.76-1.58a3.85,3.85,0,0,0-3.12,1.49,2.41,2.41,0,0,0-2.92,1.05c-1.22,1.69-.48,2.39-1.22,4.09a5.41,5.41,0,0,0,.56,4.77,2.78,2.78,0,0,0,3.95.08s-2-3.39-.54-3.29"/><path class="cls-41" d="M343,522.72a1.13,1.13,0,0,0-1.55-.52c-1.31.68-.32,3,.48,3.51a.89.89,0,0,0,1.28-.39"/><rect class="cls-42" x="367.07" y="642.87" width="18.87" height="0.85" transform="translate(79.2 -40.22) rotate(6.83)"/><path class="cls-43" d="M370.68,635.15l-1.67.19s-.87,2-1.28,3.49a16.89,16.89,0,0,0-.54,2.92L385.93,644s-.3-1.68-4.46-4.83a9.86,9.86,0,0,1-2.39-2.53Z"/><path class="cls-41" d="M366.6,622.42,369,635.34s.68,1,3.86,1.43a24.69,24.69,0,0,0,6.21-.13l-1.53-16.47"/><polyline class="cls-44" points="380.16 589.12 383.1 632.6 365.98 634.83 362.58 596.39"/><line class="cls-45" x1="365.84" y1="631.62" x2="382.27" y2="629.47"/><rect class="cls-42" x="347.75" y="635.21" width="18.87" height="0.85" transform="translate(299.56 -91.2) rotate(24.8)"/><path class="cls-43" d="M354.16,626.09l-1.65-.34s-1.46,1.68-2.3,2.92a17.21,17.21,0,0,0-1.41,2.62l17.13,7.91s.24-1.69-2.75-6a9.88,9.88,0,0,1-1.49-3.14Z"/><path class="cls-41" d="M355,621.12l-2.52,4.63s.32,1.2,3.23,2.55a24.8,24.8,0,0,0,5.95,1.79l5.14-7.91"/><path class="cls-38" d="M323.54,568.91s-5.28,28.23,8.48,28.23c10.76,0,23.24.17,28.19.25a1.58,1.58,0,0,1,1.47,2.1l-7.83,23.07,16.7,7.3s13.61-30.65,12.1-42.13-39.72-13-39.72-13L339,567.21"/><path class="cls-45" d="M330.48,572.4s-2.84,15.49,4.36,17.78,24.28,2.57,29.38,3.72a3.61,3.61,0,0,1,2.71,4.37l-9.29,26"/><path class="cls-45" d="M341.06,574.39c-.67,5.12-11,7.05-11,7.05"/><line class="cls-45" x1="354.8" y1="619.77" x2="371.68" y2="627.23"/><path class="cls-41" d="M371.06,566.87c1.3-.09,7.18-.38,7.18,0s-1.94.75-1.84.91a5.6,5.6,0,0,0,2.5.16c.76-.07,2-.06,2.06.26.14.62-4,1-4,1,0,.18,4.39-1.2,4.56-.7.25.73-4.45,1.82-4.57,2,0,0,3.8-2.08,4-1.54s-3.18,2.47-4.31,2.67c.9-.34,3.41-2.3,3.54-1.91s-2.13,1.82-2.52,1.94a22.75,22.75,0,0,1-6.25,1"/><path class="cls-17" d="M345.32,542.27c0,12.49,1.8,16.87,6.17,19.54s14.49,3.6,20.59,4.12l-.71,9.55s-23.28-.47-29.25-3.71-6.87-21.14-6.87-21.14"/><path class="cls-17" d="M344.3,532.07c6,5.86,8.46,43.5,8.46,43.5-14.39.78-34.58.94-34.58.94s1.77-27.57,7.09-36.13a31.61,31.61,0,0,1,11.81-11,6.88,6.88,0,0,0,3.56,2.28,13.54,13.54,0,0,0,3.66.42"/><path class="cls-46" d="M352.5,562.33c-6.84-2.65-6.65-17.24-6.65-17.24"/><path class="cls-46" d="M352.66,574.21s-10.11,0-14.81-8.69a51.24,51.24,0,0,1-5.41-18.42"/><path class="cls-47" d="M424.26,572.31S430.69,589.12,426,591s-9.4,14.83-9.4,14.83-2.45-14.07-.91-21.59S424.26,572.31,424.26,572.31Z"/><path class="cls-48" d="M450.81,572.31s-6.42,16.81-1.72,18.64,9.4,14.83,9.4,14.83,2.46-14.07.91-21.59S450.81,572.31,450.81,572.31Z"/><line class="cls-49" x1="437.48" y1="540.19" x2="437.48" y2="530.74"/><path class="cls-50" d="M447.81,591.32c.62,11.53-10.27,18.52-10.27,18.52s-10.29-6.79-10.27-18.52C427.27,586,447.52,586,447.81,591.32Z"/><path class="cls-50" d="M437.57,606.14c-2.51-2.2-7.26-7.28-7.43-14.43.76-.55,3.32-1.4,7.29-1.4,4.16,0,6.81.92,7.52,1.5C445.17,598.84,440.19,604,437.57,606.14Z"/><path class="cls-50" d="M437.62,602.1c-1.81-2-4.57-6.45-4.45-10.39a21.39,21.39,0,0,1,8.77.07C442,595.8,439.51,600.12,437.62,602.1Z"/><path class="cls-17" d="M450.72,550.35a30.37,30.37,0,0,0-13.18-14.07c-1.57.66-8.86,4.26-13.18,14.07-5.22,11.86.64,42.34.64,42.34h25.08S455.93,562.21,450.72,550.35Z"/><path class="cls-10" d="M424.35,588.94h26.37c.1-.6.2-1.27.31-2H424C424.15,587.67,424.26,588.34,424.35,588.94Z"/><circle class="cls-51" cx="437.54" cy="556.28" r="5.54" transform="translate(-178.8 208.4) rotate(-22.37)"/><circle class="cls-1" cx="437.54" cy="556.28" r="5.54" transform="translate(-178.8 208.4) rotate(-22.37)"/><g class="cls-52"><g class="cls-53"><rect class="cls-1" x="436.88" y="549.38" width="1.32" height="13.81" transform="translate(487.07 -149.72) rotate(42.2)"/><rect class="cls-1" x="438.42" y="550.69" width="0.85" height="13.81" transform="translate(488.32 -150.25) rotate(42.2)"/><rect class="cls-1" x="435.68" y="548.21" width="0.85" height="13.81" transform="translate(485.94 -149.06) rotate(42.2)"/></g></g><path class="cls-54" d="M437.54,548.79a7.5,7.5,0,1,0,7.5,7.49A7.49,7.49,0,0,0,437.54,548.79Zm0,13a5.54,5.54,0,1,1,5.54-5.54A5.54,5.54,0,0,1,437.54,561.82Z"/><path class="cls-38" d="M447.56,545a30.56,30.56,0,0,0-10-8.67A25.3,25.3,0,0,0,427.4,545Z"/><path class="cls-10" d="M426.23,546.74h22.56l-.25-.39H426.47Z"/><path class="cls-55" d="M437.54,574.34c-5.31.88-1.71,27.79-.41,36.41a.41.41,0,0,0,.82,0C439.24,602.13,442.85,575.22,437.54,574.34Z"/></g></g></svg>