<svg id="Layer_1" data-name="Layer 1" xmlns="http://www.w3.org/2000/svg" xmlns:xlink="http://www.w3.org/1999/xlink" viewBox="0 0 24 24"><defs><style>.cls-1{fill:url(#linear-gradient);}.cls-2{fill:url(#linear-gradient-2);}.cls-3{fill:url(#linear-gradient-3);}.cls-4{fill:url(#linear-gradient-4);}.cls-5{fill:url(#linear-gradient-5);}</style><linearGradient id="linear-gradient" x1="2.44" y1="12.7" x2="22" y2="12.7" gradientUnits="userSpaceOnUse"><stop offset="0" stop-color="#283376"/><stop offset="1" stop-color="#1c67a6"/></linearGradient><linearGradient id="linear-gradient-2" x1="6.36" y1="12.7" x2="18.08" y2="12.7" xlink:href="#linear-gradient"/><linearGradient id="linear-gradient-3" x1="8.31" y1="12.7" x2="10.75" y2="12.7" xlink:href="#linear-gradient"/><linearGradient id="linear-gradient-4" x1="13.69" y1="12.7" x2="16.13" y2="12.7" xlink:href="#linear-gradient"/><linearGradient id="linear-gradient-5" x1="11.25" y1="12.45" x2="13.25" y2="12.45" xlink:href="#linear-gradient"/></defs><path class="cls-1" d="M12.22,22.48H10.93c-.49,0-.66-.17-.66-.65V21a.77.77,0,0,0-.52-.77c-.4-.16-.78-.35-1.17-.54a.71.71,0,0,0-1,.13c-.22.22-.43.44-.65.65a.52.52,0,0,1-.85,0L4.47,18.77a.51.51,0,0,1,0-.82l.65-.65a.69.69,0,0,0,.14-1c-.19-.38-.37-.75-.53-1.14a.76.76,0,0,0-.78-.54H3a.48.48,0,0,1-.54-.53c0-.94,0-1.88,0-2.83A.49.49,0,0,1,3,10.75H4a.69.69,0,0,0,.68-.46c.19-.43.39-.85.6-1.27a.66.66,0,0,0-.13-.86c-.22-.24-.46-.46-.68-.69a.51.51,0,0,1,0-.84C5,6.06,5.58,5.51,6.14,5A.51.51,0,0,1,7,5c.23.22.44.45.67.67a.69.69,0,0,0,.91.12c.39-.19.79-.39,1.19-.55a.76.76,0,0,0,.52-.77c0-.31,0-.61,0-.92s.17-.57.55-.58c.93,0,1.87,0,2.8,0,.38,0,.54.19.55.58v.92a.76.76,0,0,0,.52.77c.4.16.8.36,1.19.55a.69.69,0,0,0,.91-.12c.23-.23.45-.46.69-.69a.51.51,0,0,1,.8,0c.57.56,1.14,1.13,1.7,1.7a.5.5,0,0,1,0,.8c-.22.24-.46.46-.68.7a.66.66,0,0,0-.12.9c.19.4.38.79.55,1.19a.72.72,0,0,0,.74.51h.92c.42,0,.61.18.61.59,0,.91,0,1.83,0,2.75,0,.39-.18.56-.58.57h-.95a.76.76,0,0,0-.74.52c-.16.4-.36.8-.55,1.19a.68.68,0,0,0,.12.91c.23.23.46.45.69.69a.5.5,0,0,1,0,.8l-1.7,1.7a.5.5,0,0,1-.8,0c-.24-.23-.46-.47-.69-.69a.7.7,0,0,0-.92-.12c-.39.19-.78.39-1.19.55a.77.77,0,0,0-.51.77v.92c0,.4-.18.58-.58.59ZM21,11.72h-.58a1.65,1.65,0,0,1-1.59-1.1,11.77,11.77,0,0,0-.51-1.08,1.66,1.66,0,0,1,.3-2.12c.12-.12.26-.23.41-.36-.24-.23-.43-.41-.6-.59s-.33-.39-.53-.62c-.16.19-.26.31-.37.42a1.66,1.66,0,0,1-2.18.31c-.34-.18-.7-.34-1.06-.49A1.65,1.65,0,0,1,13.2,4.53c0-.2,0-.4,0-.62H11.24c0,.22,0,.4,0,.58A1.67,1.67,0,0,1,10.13,6.1,11.21,11.21,0,0,0,9,6.62a1.65,1.65,0,0,1-2-.27L6.56,5.9l-1,1-.15.17.4.38a1.66,1.66,0,0,1,.29,2.07c-.2.38-.38.77-.54,1.16a1.6,1.6,0,0,1-1.48,1c-.22,0-.44,0-.67,0v1.95H4a1.69,1.69,0,0,1,1.67,1.16,11.33,11.33,0,0,0,.5,1.06A1.64,1.64,0,0,1,5.84,18a2.74,2.74,0,0,1-.39.31l1.18,1.18a4.09,4.09,0,0,1,.3-.33,1.67,1.67,0,0,1,2.14-.3c.34.18.7.35,1.06.5a1.66,1.66,0,0,1,1.11,1.57c0,.2,0,.4,0,.6h1.95v-.56a1.67,1.67,0,0,1,1.11-1.61c.38-.16.75-.33,1.11-.52a1.64,1.64,0,0,1,2.05.28,4.43,4.43,0,0,1,.37.39L19,18.29a3.45,3.45,0,0,1-.38-.31,1.65,1.65,0,0,1-.3-2.11c.18-.34.34-.68.49-1a1.68,1.68,0,0,1,1.69-1.16H21Z"/><path class="cls-2" d="M12.18,18.56a5.86,5.86,0,1,1,5.9-5.79A5.86,5.86,0,0,1,12.18,18.56Zm0-1a4.88,4.88,0,1,0-4.87-4.91A4.89,4.89,0,0,0,12.21,17.58Z"/><path class="cls-3" d="M9.46,12.71l1.13,1.09a.47.47,0,0,1,.09.6.43.43,0,0,1-.51.23.64.64,0,0,1-.29-.16C9.41,14,9,13.56,8.5,13.09a.5.5,0,0,1,0-.8l1.36-1.35a.49.49,0,0,1,.73,0,.51.51,0,0,1,0,.74Z"/><path class="cls-4" d="M15,12.72c-.4-.39-.74-.74-1.09-1.07a.53.53,0,0,1-.16-.6.46.46,0,0,1,.75-.18c.52.49,1,1,1.52,1.52A.43.43,0,0,1,16,13c-.48.5-1,1-1.47,1.48a.48.48,0,0,1-.67-.69C14.2,13.45,14.58,13.11,15,12.72Z"/><path class="cls-5" d="M13.2,10.74c0,.11,0,.23-.08.34-.29,1-.57,2-.86,3a2.25,2.25,0,0,1-.08.24.48.48,0,0,1-.58.29.5.5,0,0,1-.35-.56,1,1,0,0,1,.05-.16l.9-3.16a1.19,1.19,0,0,1,.11-.26.4.4,0,0,1,.54-.19c.16.07.27.25.4.38Z"/></svg>