<svg xmlns="http://www.w3.org/2000/svg" xmlns:xlink="http://www.w3.org/1999/xlink" viewBox="0 0 1080 1080"><defs><style>.cls-1{isolation:isolate;}.cls-2{fill:url(#linear-gradient);}.cls-3{fill:url(#linear-gradient-2);}.cls-4{fill:url(#linear-gradient-3);}.cls-5{fill:url(#linear-gradient-4);}.cls-6{fill:#143c83;}.cls-22,.cls-7{fill:#fff;}.cls-7{stroke:#8693f2;}.cls-10,.cls-41,.cls-47,.cls-7{stroke-miterlimit:10;}.cls-8{fill:#0d346d;}.cls-9{fill:#205491;}.cls-10,.cls-41,.cls-47{fill:none;}.cls-10{stroke:#143c83;}.cls-11{fill:#ffa49a;}.cls-12{fill:#283770;}.cls-13{fill:#d99490;}.cls-14{fill:url(#linear-gradient-5);}.cls-15{fill:url(#linear-gradient-6);}.cls-16{fill:url(#linear-gradient-7);}.cls-17{fill:#3162c4;}.cls-18,.cls-31{opacity:0.5;mix-blend-mode:multiply;}.cls-18{fill:url(#linear-gradient-8);}.cls-19{fill:url(#linear-gradient-9);}.cls-20{fill:#ff8189;}.cls-21{fill:url(#linear-gradient-10);}.cls-23{fill:url(#linear-gradient-11);}.cls-24{fill:#f3b2ad;}.cls-25{fill:#203647;}.cls-26{fill:#072560;}.cls-27{fill:#2054a0;}.cls-28{fill:url(#linear-gradient-12);}.cls-29{fill:#d76b66;opacity:0.32;}.cls-30{fill:url(#linear-gradient-13);}.cls-31{fill:url(#linear-gradient-14);}.cls-32{fill:url(#linear-gradient-15);}.cls-33{fill:#089bcb;}.cls-34{fill:url(#linear-gradient-16);}.cls-35{fill:url(#linear-gradient-17);}.cls-36{fill:url(#linear-gradient-18);}.cls-37{fill:url(#linear-gradient-19);}.cls-38{fill:url(#linear-gradient-20);}.cls-39{fill:url(#linear-gradient-21);}.cls-40{fill:url(#linear-gradient-22);}.cls-41{stroke:#089bcb;}.cls-42{fill:url(#linear-gradient-23);}.cls-43{fill:url(#linear-gradient-24);}.cls-44{fill:url(#linear-gradient-25);}.cls-45{fill:url(#linear-gradient-26);}.cls-46{fill:url(#linear-gradient-27);}.cls-47{stroke-width:2px;stroke:url(#linear-gradient-28);}</style><linearGradient id="linear-gradient" x1="418.17" y1="433.79" x2="491.57" y2="433.79" gradientTransform="translate(-129.72 166.19) rotate(-19.14)" gradientUnits="userSpaceOnUse"><stop offset="0" stop-color="#dfedf2"/><stop offset="1" stop-color="#e8f8ff"/></linearGradient><linearGradient id="linear-gradient-2" x1="384.82" y1="405.36" x2="426.54" y2="405.36" xlink:href="#linear-gradient"/><linearGradient id="linear-gradient-3" x1="665.9" y1="416.67" x2="713.26" y2="416.67" gradientTransform="matrix(1, 0, 0, 1, 0, 0)" xlink:href="#linear-gradient"/><linearGradient id="linear-gradient-4" x1="644.37" y1="398.33" x2="671.3" y2="398.33" gradientTransform="matrix(1, 0, 0, 1, 0, 0)" xlink:href="#linear-gradient"/><linearGradient id="linear-gradient-5" x1="651.7" y1="-23042" x2="651.7" y2="-22994.99" gradientTransform="matrix(1, 0, 0, -1, 0, -22315.45)" gradientUnits="userSpaceOnUse"><stop offset="0" stop-color="#283770"/><stop offset="1" stop-color="#141a5a"/></linearGradient><linearGradient id="linear-gradient-6" x1="682.4" y1="-23021.6" x2="682.4" y2="-22966.57" xlink:href="#linear-gradient-5"/><linearGradient id="linear-gradient-7" x1="639.01" y1="597.41" x2="639.01" y2="628.76" gradientTransform="matrix(1, 0, 0, 1, 0, 0)" xlink:href="#linear-gradient-5"/><linearGradient id="linear-gradient-8" x1="670.52" y1="-22923.08" x2="670.52" y2="-22934.66" gradientTransform="matrix(1, 0, 0, -1, 0, -22315.45)" gradientUnits="userSpaceOnUse"><stop offset="0" stop-color="#49a5f7"/><stop offset="1" stop-color="#1c6ceb"/></linearGradient><linearGradient id="linear-gradient-9" x1="673.49" y1="-22912.65" x2="673.49" y2="-22894.14" gradientTransform="matrix(1, 0, 0, -1, 0, -22315.45)" gradientUnits="userSpaceOnUse"><stop offset="0" stop-color="#162959"/><stop offset="1" stop-color="#0b1b38"/></linearGradient><linearGradient id="linear-gradient-10" x1="680.05" y1="-22901.04" x2="680.05" y2="-22882.53" xlink:href="#linear-gradient-9"/><linearGradient id="linear-gradient-11" x1="655.31" y1="619.16" x2="655.31" y2="665.88" gradientUnits="userSpaceOnUse"><stop offset="0" stop-color="#089bcb"/><stop offset="1" stop-color="#143c83"/></linearGradient><linearGradient id="linear-gradient-12" x1="1433.96" y1="-22852.96" x2="1433.96" y2="-22834.1" gradientTransform="translate(1821.64 -22315.45) rotate(180)" xlink:href="#linear-gradient-9"/><linearGradient id="linear-gradient-13" x1="1442.9" y1="-22853.13" x2="1442.9" y2="-22834.27" gradientTransform="translate(1821.64 -22315.45) rotate(180)" xlink:href="#linear-gradient-9"/><linearGradient id="linear-gradient-14" x1="1442.67" y1="-22960.39" x2="1443.22" y2="-22943.6" gradientTransform="translate(1821.64 -22315.45) rotate(180)" xlink:href="#linear-gradient-5"/><linearGradient id="linear-gradient-15" x1="1416.33" y1="558.32" x2="1416.33" y2="586.82" gradientTransform="matrix(-1, 0, 0, 1, 1821.64, 0)" xlink:href="#linear-gradient-5"/><linearGradient id="linear-gradient-16" x1="537.5" y1="-22941.88" x2="537.5" y2="-22929.47" gradientTransform="matrix(1, 0, 0, -1, 0, -22315.45)" gradientUnits="userSpaceOnUse"><stop offset="0" stop-color="#cbe1f2"/><stop offset="1" stop-color="#aed2ed"/></linearGradient><linearGradient id="linear-gradient-17" x1="537.5" y1="-22954.93" x2="537.5" y2="-22942.53" xlink:href="#linear-gradient-16"/><linearGradient id="linear-gradient-18" x1="-14866.98" y1="635.8" x2="-14866.98" y2="648.2" gradientTransform="matrix(-1, 0, 0, 1, -14270.73, 0)" xlink:href="#linear-gradient-16"/><linearGradient id="linear-gradient-19" x1="-14866.99" y1="635.8" x2="-14866.99" y2="648.2" gradientTransform="matrix(-1, 0, 0, 1, -14270.73, 0)" xlink:href="#linear-gradient-16"/><linearGradient id="linear-gradient-20" x1="696.93" y1="-22841.99" x2="696.93" y2="-22899.13" xlink:href="#linear-gradient-16"/><linearGradient id="linear-gradient-21" x1="475.48" y1="597.17" x2="475.48" y2="615.46" xlink:href="#linear-gradient-11"/><linearGradient id="linear-gradient-22" x1="485.8" y1="597.17" x2="485.8" y2="615.46" xlink:href="#linear-gradient-11"/><linearGradient id="linear-gradient-23" x1="449.28" y1="655.14" x2="405.28" y2="619.47" gradientTransform="matrix(1, 0, 0, 1, 0, 0)" xlink:href="#linear-gradient-16"/><linearGradient id="linear-gradient-24" x1="457.01" y1="645.61" x2="413.01" y2="609.94" gradientTransform="matrix(1, 0, 0, 1, 0, 0)" xlink:href="#linear-gradient-16"/><linearGradient id="linear-gradient-25" x1="460.67" y1="641.09" x2="416.67" y2="605.42" gradientTransform="matrix(1, 0, 0, 1, 0, 0)" xlink:href="#linear-gradient-16"/><linearGradient id="linear-gradient-26" x1="412.47" y1="504.75" x2="453.72" y2="504.75" xlink:href="#linear-gradient-11"/><linearGradient id="linear-gradient-27" x1="437.18" y1="479.59" x2="437.18" y2="511.1" gradientUnits="userSpaceOnUse"><stop offset="0" stop-color="#71d2f9"/><stop offset="1" stop-color="#51b9f8"/></linearGradient><linearGradient id="linear-gradient-28" x1="460.5" y1="551.96" x2="647.58" y2="551.96" xlink:href="#linear-gradient-11"/></defs><g class="cls-1"><g id="Layer_1" data-name="Layer 1"><path class="cls-2" d="M478.4,419.07l-3-8.54a1.6,1.6,0,0,0-2-1l-2.19.76a1.47,1.47,0,0,1-1.73-.6,31.78,31.78,0,0,0-7-7.9,1.48,1.48,0,0,1-.42-1.81l1-2.08a1.59,1.59,0,0,0-.74-2.14l-8.13-3.94a1.59,1.59,0,0,0-2.13.74l-1,2.08a1.49,1.49,0,0,1-1.68.79,31.82,31.82,0,0,0-10.55-.6,1.49,1.49,0,0,1-1.54-1l-.76-2.19a1.6,1.6,0,0,0-2-1l-8.54,3a1.6,1.6,0,0,0-1,2l.76,2.19a1.48,1.48,0,0,1-.6,1.73,31.84,31.84,0,0,0-7.91,7,1.49,1.49,0,0,1-1.81.42l-2.07-1a1.61,1.61,0,0,0-2.14.74l-3.94,8.13A1.61,1.61,0,0,0,408,417l2.08,1a1.47,1.47,0,0,1,.79,1.68,32.09,32.09,0,0,0-.6,10.55,1.46,1.46,0,0,1-1,1.53l-2.2.76a1.62,1.62,0,0,0-1,2l3,8.53a1.59,1.59,0,0,0,2,1l2.2-.76A1.45,1.45,0,0,1,415,444a32.25,32.25,0,0,0,7,7.91,1.48,1.48,0,0,1,.42,1.81l-1,2.08a1.61,1.61,0,0,0,.74,2.14l8.13,3.94a1.6,1.6,0,0,0,2.14-.75l1-2.08a1.49,1.49,0,0,1,1.68-.79,32.09,32.09,0,0,0,10.55.6,1.46,1.46,0,0,1,1.53,1L448,462a1.6,1.6,0,0,0,2,1l8.53-3a1.6,1.6,0,0,0,1-2l-.76-2.2a1.45,1.45,0,0,1,.59-1.72,32.21,32.21,0,0,0,7.91-7,1.48,1.48,0,0,1,1.81-.43l2.08,1a1.6,1.6,0,0,0,2.14-.74l3.94-8.13a1.59,1.59,0,0,0-.75-2.13l-2.08-1a1.51,1.51,0,0,1-.79-1.69,31.75,31.75,0,0,0,.6-10.54,1.48,1.48,0,0,1,1-1.54l2.2-.76A1.6,1.6,0,0,0,478.4,419.07Zm-29.21,27.76a21.17,21.17,0,1,1,13.05-26.94A21.16,21.16,0,0,1,449.19,446.83Z"/><path class="cls-3" d="M407,411.69l-1.68-4.85a.91.91,0,0,0-1.16-.56l-1.25.43a.82.82,0,0,1-1-.34,18.44,18.44,0,0,0-4-4.49.84.84,0,0,1-.24-1l.57-1.18a.91.91,0,0,0-.42-1.22l-4.62-2.24a.92.92,0,0,0-1.22.42l-.57,1.19a.85.85,0,0,1-1,.44,18.19,18.19,0,0,0-6-.34.84.84,0,0,1-.88-.56l-.43-1.24a.91.91,0,0,0-1.16-.57l-4.85,1.69a.92.92,0,0,0-.56,1.16l.43,1.24a.83.83,0,0,1-.33,1,18.14,18.14,0,0,0-4.5,4,.86.86,0,0,1-1,.24l-1.18-.58a.91.91,0,0,0-1.21.43l-2.24,4.62a.9.9,0,0,0,.42,1.21l1.18.57a.85.85,0,0,1,.45,1,18.24,18.24,0,0,0-.34,6,.84.84,0,0,1-.56.87l-1.25.43a.92.92,0,0,0-.56,1.16l1.68,4.85a.91.91,0,0,0,1.16.56l1.25-.43a.83.83,0,0,1,1,.34,18.44,18.44,0,0,0,4,4.49.84.84,0,0,1,.24,1l-.57,1.18a.92.92,0,0,0,.42,1.22l4.62,2.24a.92.92,0,0,0,1.22-.42l.57-1.19a.84.84,0,0,1,1-.45,18.18,18.18,0,0,0,6,.34.83.83,0,0,1,.87.56l.44,1.25a.89.89,0,0,0,1.15.56l4.86-1.68a.92.92,0,0,0,.56-1.16l-.44-1.25a.85.85,0,0,1,.34-1,18.05,18.05,0,0,0,4.49-4,.85.85,0,0,1,1-.24l1.19.58a.91.91,0,0,0,1.21-.43l2.24-4.62a.9.9,0,0,0-.42-1.21l-1.18-.58a.83.83,0,0,1-.45-1,18.24,18.24,0,0,0,.34-6,.83.83,0,0,1,.56-.87l1.25-.43A.92.92,0,0,0,407,411.69ZM390,426.18a10.67,10.67,0,1,1,6.57-13.57A10.66,10.66,0,0,1,390,426.18Z"/><path class="cls-4" d="M713.26,419.59v-5.83a1,1,0,0,0-1-1h-1.5a1,1,0,0,1-.93-.73,20.69,20.69,0,0,0-2.59-6.3,1,1,0,0,1,.12-1.2l1.06-1.05a1,1,0,0,0,0-1.46l-4.13-4.12a1,1,0,0,0-1.46,0l-1,1.05a1,1,0,0,1-1.19.13,20.51,20.51,0,0,0-6.31-2.6.94.94,0,0,1-.72-.93V394a1,1,0,0,0-1-1h-5.83a1,1,0,0,0-1,1v1.5a1,1,0,0,1-.73.93,20.69,20.69,0,0,0-6.3,2.59,1,1,0,0,1-1.19-.12l-1.06-1.05a1,1,0,0,0-1.46,0L670.77,402a1,1,0,0,0,0,1.46l1.06,1.05a1,1,0,0,1,.12,1.2,20.71,20.71,0,0,0-2.6,6.3.93.93,0,0,1-.92.73h-1.5a1,1,0,0,0-1,1v5.83a1,1,0,0,0,1,1h1.5a.93.93,0,0,1,.92.73,20.71,20.71,0,0,0,2.6,6.3,1,1,0,0,1-.12,1.19l-1.06,1.06a1,1,0,0,0,0,1.46l4.12,4.12a1,1,0,0,0,1.46,0l1.06-1.06a1,1,0,0,1,1.19-.12,20.79,20.79,0,0,0,6.3,2.59,1,1,0,0,1,.73.93v1.5a1,1,0,0,0,1,1h5.83a1,1,0,0,0,1-1v-1.5a.94.94,0,0,1,.72-.93,20.58,20.58,0,0,0,6.3-2.59,1,1,0,0,1,1.2.12l1,1.06a1,1,0,0,0,1.46,0l4.13-4.12a1,1,0,0,0,0-1.46l-1.06-1.06a1,1,0,0,1-.13-1.19,20.46,20.46,0,0,0,2.6-6.3,1,1,0,0,1,.93-.73h1.5A1,1,0,0,0,713.26,419.59Zm-23.68,10.75a13.67,13.67,0,1,1,13.65-13.67A13.66,13.66,0,0,1,689.58,430.34Z"/><path class="cls-5" d="M671.3,400v-3.31a.59.59,0,0,0-.59-.59h-.85a.55.55,0,0,1-.53-.41,11.68,11.68,0,0,0-1.48-3.58.56.56,0,0,1,.07-.68l.6-.6a.59.59,0,0,0,0-.83l-2.34-2.35a.6.6,0,0,0-.83,0l-.6.6a.54.54,0,0,1-.68.07,11.66,11.66,0,0,0-3.58-1.47.55.55,0,0,1-.41-.53v-.85a.6.6,0,0,0-.59-.59h-3.31a.59.59,0,0,0-.59.59v.85a.55.55,0,0,1-.41.53,11.81,11.81,0,0,0-3.59,1.47.54.54,0,0,1-.68-.07l-.6-.6a.6.6,0,0,0-.83,0L647.14,390a.59.59,0,0,0,0,.83l.6.6a.54.54,0,0,1,.07.68,11.41,11.41,0,0,0-1.47,3.58.55.55,0,0,1-.53.41H645a.58.58,0,0,0-.59.59V400a.58.58,0,0,0,.59.59h.85a.55.55,0,0,1,.53.41,11.57,11.57,0,0,0,1.47,3.59.53.53,0,0,1-.07.67l-.6.6a.59.59,0,0,0,0,.83l2.34,2.35a.59.59,0,0,0,.83,0l.61-.6a.53.53,0,0,1,.67-.07,11.81,11.81,0,0,0,3.59,1.47.55.55,0,0,1,.41.53v.85a.58.58,0,0,0,.59.59h3.31a.59.59,0,0,0,.59-.59v-.85a.55.55,0,0,1,.41-.53,11.76,11.76,0,0,0,3.58-1.47.54.54,0,0,1,.68.07l.6.6a.59.59,0,0,0,.83,0l2.34-2.35a.59.59,0,0,0,0-.83l-.6-.6a.54.54,0,0,1-.07-.67,11.84,11.84,0,0,0,1.48-3.59.54.54,0,0,1,.53-.41h.85A.59.59,0,0,0,671.3,400Zm-13.47,5.23a6.89,6.89,0,1,1,6.88-6.89A6.88,6.88,0,0,1,657.83,405.21Z"/><rect class="cls-6" x="390.61" y="440.99" width="342.86" height="235.81" rx="20.74"/><path class="cls-7" d="M725.07,462.63v175a5.82,5.82,0,0,1-5.82,5.81H404.84a5.81,5.81,0,0,1-5.81-5.81v-175a13.9,13.9,0,0,1,13.9-13.9H711.16A13.9,13.9,0,0,1,725.07,462.63Z"/><polygon class="cls-8" points="594.75 727.11 529.33 727.11 536.2 687.24 538 676.8 586.08 676.8 587.88 687.24 594.75 727.11"/><polygon class="cls-9" points="587.88 687.24 536.2 687.24 538 676.8 586.08 676.8 587.88 687.24"/><rect class="cls-8" x="507.66" y="718.54" width="108.77" height="8.57"/><rect class="cls-6" x="640.76" y="667.16" width="68.25" height="6.25"/><rect class="cls-6" x="693.61" y="667.16" width="15.39" height="6.25"/><line class="cls-10" x1="654.42" y1="673.41" x2="654.42" y2="726.63"/><line class="cls-10" x1="705.44" y1="673.41" x2="705.44" y2="726.63"/><line class="cls-10" x1="705.44" y1="714.28" x2="654.42" y2="714.28"/><line class="cls-10" x1="697.6" y1="714.28" x2="646.58" y2="714.28"/><line class="cls-10" x1="646.58" y1="673.41" x2="646.58" y2="726.63"/><line class="cls-10" x1="697.6" y1="673.41" x2="697.6" y2="726.63"/><path class="cls-11" d="M669.11,714l-1.47,5.34s-4.92,1.52-6.88.55l.67-6.21"/><path class="cls-12" d="M660.92,718.45s-.29,1.19-.77,2.51a14.23,14.23,0,0,0-1.52,1.95,4.22,4.22,0,0,0,.11,3.7H670s1-3,0-4.34c-.48-.6-2.21-3.31-2.21-3.31A25.71,25.71,0,0,1,660.92,718.45Z"/><path class="cls-13" d="M621.19,714.28l-.89,4.61a17.6,17.6,0,0,0,7,1.06l1.56-4.94Z"/><path class="cls-12" d="M607.93,726.63h19.85a8,8,0,0,0-.16-7.76,19.37,19.37,0,0,1-7.14-.92s-2.42,1.56-5.37,3.08S607.38,724,607.93,726.63Z"/><path class="cls-14" d="M681,667.16H661.66c-4.48.94-11.66,5.26-17.66,5.67-1,7.11-3.43,13.68-5.85,19.66-2.36,5.82-7.37,18.22-9.27,23.92a23.72,23.72,0,0,1-8-1.75c2.32-12.91,7.52-41.26,8.94-46.84,2-8,7-11.1,12.28-12.3,5-1.12,6.42-1.43,11.09-2.47l12.6-2.87,14.83-3.63s.31,1.92.58,4.54C683,658.7,682.8,664.2,681,667.16Z"/><path class="cls-15" d="M699.65,667.16h-6s-2,4.42-13.24,5.63c-.67,4.35-1.42,7.12-3.63,15.36-1.34,5-8.19,29.07-8.19,29.07a15.72,15.72,0,0,1-7.77-.81s1.92-37.21,2.51-42.75c.22-2.14,1.36-9.81,1.78-11.71a11.69,11.69,0,0,1,5.65-7.7s2.32-.68,4.66-1.2l12.6-2.87,13.86-4.53a20.63,20.63,0,0,1,1.55,5.44C705.06,658.27,703.36,666.87,699.65,667.16Z"/><path class="cls-13" d="M665.35,602.31,652,615.53s-4.1-2.29-10.18-5.62a77.79,77.79,0,0,0-11-5l-1.59,3.2s14,13.34,21.41,15.9l.16.06c.24.08.47.14.69.2h0a8.18,8.18,0,0,0,1.22.2c6.38.58,18.94-12.82,18.94-12.82Z"/><path class="cls-16" d="M653,628.51h-20a1,1,0,0,1-1-.74L624,599.05a1,1,0,0,1,1-1.29h20a1,1,0,0,1,1,.74L654,627.22A1,1,0,0,1,653,628.51Z"/><path class="cls-17" d="M678.82,609l-6.59,5.56-3.42,2.89-2.32,2a73.21,73.21,0,0,1-9.64-9.42c8.93-9.62,13.61-13.2,13.68-13.25C672,595.62,678.82,609,678.82,609Z"/><path class="cls-18" d="M672.23,614.6l-3.42,2.89c.82-1.93,2.08-9.79,2.08-9.79l1,1Z"/><path class="cls-17" d="M703.58,598.46c-.14,3.48-2.54,30.69-2.26,38.51.17,4.61,1.82,11.19,1.82,11.93,0,.51-.67,1.05-.93,1.19a15.6,15.6,0,0,1-5.12,1.22h0a131.68,131.68,0,0,1-14.2.66c-4.91,0-12.27-.78-13.2-2s-.09-2.78.33-5.05c3.15-16.82,0-44.6.52-48.12,2-1.31,11-4.21,11.14-4.25,1.31-.08,1.57-.71,3.11-.67,1.33,0,4.27.21,6.48.5C691.27,592.36,699.36,594.35,703.58,598.46Z"/><path class="cls-19" d="M671,574.16s.62,7.48,3.1,8,1.88-2.67,1.88-2.67l-.35-3.56Z"/><path class="cls-11" d="M683.32,598.45c-4.89-.2-3.19-4.5-1.64-5.92a1.26,1.26,0,0,0,.14-.49,38.68,38.68,0,0,0-.12-5.21c0-.42-.05-.73-.05-.86l2.88-2,6-4.25s.27,6.55.75,12.66C692,594.38,688.3,598.66,683.32,598.45Z"/><path class="cls-20" d="M687.11,585.81s-1.57,5.06-5.29,6.23a38.68,38.68,0,0,0-.12-5.21Z"/><path class="cls-11" d="M673.19,573.76s-.78,16,5,17.13c0,0,4.63.62,8.46-4.54,1.11-1.48,2.51-1.82,3-3.61.74-2.92,1.79-8.3.45-11.54C688.17,566.58,673.37,562.52,673.19,573.76Z"/><path class="cls-21" d="M690.13,569.7c1.52-6-6.89-11.58-17.77-3.27-1.12-.78-3.21-1.51-4.21-.81-1.2.83-1.44,3.89-.7,6,1.58,4.49,7.4,5.5,11.91,4.35,3.13-.79,4.77-2.58,5.87-2.46-1,4.38,1,8.09,2.54,7.83.19.37,1.17-1.2,1.22-.69.12,1.14,1.15,3.06,2.31.84C693.05,578.18,694.63,569.84,690.13,569.7Z"/><path class="cls-11" d="M688.73,584.73c2.18.51,4.55-6.22,1.71-6.54-2.14-.25-3,3.17-3,3.17S687,584.31,688.73,584.73Z"/><path class="cls-11" d="M714.57,627.39a.51.51,0,0,0,0-.13c-.37-2.52-.91-4.89-1.07-5.53l0-.17a71.53,71.53,0,0,0-3.72-12l-10.08,5.15a143.75,143.75,0,0,0,4.13,14s-8.14,6.78-13.34,10.74c-2.55,1.95-4.47,3.4-5.76,4.37,0,0-4.59,1.81-7.1,3.15-1,.52-5.35,7.6-5.22,7.93s.66.62,1.37.3a4.15,4.15,0,0,0,1.15-1.15s-.46.78-.38,1.05.46.4,1,.18a3.35,3.35,0,0,0,1.36-1.46c0,.17-.1.31-.11.36-.07.22.41.67,1.32.24.66-.31,1.74-2.48,2-2.82a2.15,2.15,0,0,1,1-.37l-1.18,3.8s.11.43,1.17.16,2-2.84,2.54-4.25c3.47-.3,4.56-4,4.56-4,3.85-2.31,10-4.39,17.47-7.6a55.26,55.26,0,0,0,7.48-4.33l1-.62c.41-.21.63-.79.73-1.61h0A23,23,0,0,0,714.57,627.39Z"/><path class="cls-17" d="M695.45,608.31c1.07,4.47,4.91,13.6,4.91,13.6a23.12,23.12,0,0,0,7.71-1.65,13.15,13.15,0,0,0,5.21-3.38s-2.38-6.24-4.26-10.82c-1.28-3.15-3-6.15-3.81-6.9a24.28,24.28,0,0,0-8.46-4.92Z"/><path class="cls-22" d="M691.81,657.18H674.88v-1.66h16.93a.83.83,0,0,1,.83.83h0A.83.83,0,0,1,691.81,657.18Z"/><path class="cls-22" d="M682.73,655.59l-8.65-31.13a2.11,2.11,0,0,0-2.05-1.55H631a1,1,0,0,0-.74.3l-1,.78.75.52,8.62,31a1.13,1.13,0,0,0,1.09.83h42.4A.6.6,0,0,0,682.73,655.59Z"/><path class="cls-23" d="M681.12,657.18h-42.4a1.13,1.13,0,0,1-1.09-.83L629,625.11a1.09,1.09,0,0,1,1-1.38h41a2.14,2.14,0,0,1,2,1.56l8.64,31.13A.6.6,0,0,1,681.12,657.18Z"/><path class="cls-13" d="M629.07,604.28l-.07,0c.27-.3-.07-1.27-1.21-1.71-1.36-.52-1.69-.63-1.69-.63l-1.49-.73-.43-1.55a12.59,12.59,0,0,0-1.36,3.07c0,.66,1.31,3.75,2.46,4.35a12.07,12.07,0,0,0,3.44,1.26c.45,0,.61-.48.19-1a5.61,5.61,0,0,0,1,.19c.51,0,.4-.94-.49-1.54a4,4,0,0,0,.67.12C630.67,606.09,630.42,604.8,629.07,604.28Z"/><path class="cls-24" d="M355.11,723.34l1.4-5.81c-2.4.41-6.29-.75-7.85-1l.16,6.77A6.55,6.55,0,0,0,355.11,723.34Z"/><path class="cls-25" d="M389.71,607.41v0Z"/><path class="cls-24" d="M385.72,723.34l.26-4.41a24.27,24.27,0,0,1-6.71,0l.15,4.46A6.57,6.57,0,0,0,385.72,723.34Z"/><path class="cls-26" d="M348.11,717.69c1.64.94,6.42,1.67,8.73.92,0,0,10.27-46.56,11.58-52.29,1.72-7.48,4.71-16.51,6.49-24.67,0,4.23.35,9.73.76,14.41v0c.47,5.41,1,9.72,1,9.72-.36,3.42-1.07,20,.3,30.52.89,6.78.94,22.56.94,22.56a24.32,24.32,0,0,0,9,.11s5.63-52,5.88-56.07c1-17,.29-54.76.21-55.5,0,.27-2,2-8,1.63-8.28-.46-23.91-1.64-23.91-1.64-4.58,2.58-5.43,15.83-5.27,22.24.19,3-1.37,23.6-2.36,35.4-3,7.1-3.05,19.2-3.65,28.08C348.91,707,348.11,717.69,348.11,717.69Z"/><path class="cls-24" d="M397.73,570.05l3.13,16.11c3.87-3.14,9.88-7.82,13.94-10.09l3.17,1.86s-3.44,4.71-8.25,10a111.82,111.82,0,0,1-9.71,9.71h0c-.87.83-2.15,1.09-4.05.08-6.14-3.27-9.58-23-9.58-23Z"/><path class="cls-27" d="M401.37,579.6a26.39,26.39,0,0,1-6.3,2.94,19.69,19.69,0,0,1-3.2.76,14.63,14.63,0,0,1-1.75.19,18.63,18.63,0,0,1-2.47,0c-.27,0-.54-.05-.8-.09l-2.13-8.68-1.58-6.41L394,555.76S396.8,560.54,401.37,579.6Z"/><path class="cls-28" d="M389.79,521.22h-2a11.51,11.51,0,0,0-.19,1.31l-2.31,1.35v3.71s-.3,3.34,2.21,2.56c1.49-.45,1.75-3.33,1.73-5.61C390.7,523.57,389.79,521.22,389.79,521.22Z"/><path class="cls-24" d="M370.41,548.62c.48-1.12.93-15,.93-15l6.18,5.2,2.92,2.46c.31,1.46.83,3.33,1.26,4.84a6.79,6.79,0,0,1,.18,2.91,4.44,4.44,0,0,1-4.18,2.11C372,550.7,370.41,548.62,370.41,548.62Z"/><path class="cls-29" d="M373.7,538.83s2.48,5.48,8,7.29c-.43-1.51-.94-3.38-1.26-4.84l-2.92-2.46Z"/><path class="cls-24" d="M388,526.82s1.24,13-3,15.41c-2.33,1.3-7.27.8-10.47-2.19a12.39,12.39,0,0,1-2.9-4.91c-1.07-2.93-2.7-8.37-1.66-11.86C371.42,518.31,386.64,515.24,388,526.82Z"/><path class="cls-30" d="M386.39,514.52c-2.46-.5-2.74-2.45-5.46-2.17s-3.14,1.73-4.42,2.23-2.79.06-4.46,1a3.53,3.53,0,0,0-1.57,2.51c-5.06.77-4.6,4.25-3.42,8.16.89,2.93-.46,3.83.63,6,.46.9,1.68,2.27,1.92,3.48.39,2,.58,2.74,1.51,3.61.37-2.1,1.08-3.73,1.73-7.21,0-.26.11-.49.17-.72,1.87-.18,3.09.16,3.51-1.14a21.93,21.93,0,0,0,.34-3.92c4.37.3,5.55-1.48,6.1-1.91,4.71,1,6.54.58,7.65-1.06s.1-2.87.13-3.4v0C391.11,517.54,388.84,515,386.39,514.52Z"/><path class="cls-27" d="M392.74,609.82c-1.84,2.33-9,4.18-14.3,4.18-6,0-17.39-2.24-19.07-4.51-.17-.25-1.28-1.34.49-7.93a57.13,57.13,0,0,0,1.19-7c.5-7.89-1.76-18.89-2.58-21.29-2-6-4-10.9-3.17-15.72a21.14,21.14,0,0,1,2.42-3.83c2.47-2.72,11-6.71,13-7a8.44,8.44,0,0,0,6.57,4c5.66.44,4.58-4,4.58-4,3.36,1.71,7.57,3.84,10.51,6.82,2.42,2.45,4.23,8,2.68,18.29-.48,3.21-1.33,15.3-1.69,25C393.08,603.39,393.48,608.89,392.74,609.82Z"/><path class="cls-24" d="M365.22,568.24s-2.84,7.12-5.83,12.86c-1,2-3,8.1-3.86,8.65-2.67,1.76-7.24-2.13-9-3.88a65.94,65.94,0,0,1,2.08-9c2.2-7.32,5.51-16.38,5.51-16.38Z"/><path class="cls-27" d="M366.92,554.86c-1.46-1.91-6.35-4.59-9.57-.61a58.15,58.15,0,0,0-5.71,11.42c-1.76,5.09-3,9.12-3,9.12a55.53,55.53,0,0,0,6.74,2.93c2.88,1,6.21,1.73,8.75,1.12,0,0,3.39-9,4.21-13.9C368.31,564.94,369.54,558.29,366.92,554.86Z"/><path class="cls-24" d="M346.49,585.87s15.95-7,18.26-8.34c3.45-2,5.61-3.39,6.83-4.2h0s2.73-5.16,3.4-6.45,3.25-1.58,5-2.66,3.06-2.8,3.9-2.51-.31,2.57-1.17,3.3-2.8,2.22-2.8,2.22a6.24,6.24,0,0,1,.9,1.84c0,.5.79,1.08.83,2s.5,1.36.32,2.3a11.2,11.2,0,0,1-1.51,3.16c-.18.23-.71.12-.89-.19a4.07,4.07,0,0,1-.31-1,7.46,7.46,0,0,1-4.31,2.54,2,2,0,0,1-.49,0c-5.64,6.87-10.86,12-20.38,17.18C347.26,598.8,345.35,589.69,346.49,585.87Z"/><path class="cls-12" d="M390,723s-3.05-2.46-4.07-2.46c-.79,0-1.17.49-1.91.76a3.37,3.37,0,0,1-1.07.22c-2.62,0-3.57-.72-3.57-.72a10,10,0,0,0-1,8.08h19.92C398.83,724.15,392.45,723.81,390,723Z"/><path class="cls-12" d="M357.59,722a6,6,0,0,0-2.27-1.42,7.11,7.11,0,0,0-5.52.25,4.56,4.56,0,0,1-1.05-.06,4.21,4.21,0,0,1-1,1.67c-3.82,4-1.57,6.48-1.57,6.48h10.94C362.28,728.13,360.09,722.77,357.59,722Z"/><path class="cls-24" d="M374.25,536.51c-3,1.62-5-6-2.06-6.69,2.22-.56,2.73,2.57,2.73,2.57S375.94,535.59,374.25,536.51Z"/><path class="cls-31" d="M374.9,641.65c0,1.62,0,3.42.13,5.29l4.84-16.58a27.53,27.53,0,0,1,2.52-3.41l-4.49,1.75C377.21,632.38,374.9,641.65,374.9,641.65Z"/><path class="cls-32" d="M386.46,589h22.13a3.2,3.2,0,0,0,2.8-1.65l13.86-25a1.24,1.24,0,0,0-1.09-1.84H402a3.2,3.2,0,0,0-2.8,1.65l-13.86,25A1.24,1.24,0,0,0,386.46,589Z"/><path class="cls-24" d="M413.58,576.77c-1-.14-.64-1.09.14-1.53a6.32,6.32,0,0,1,1.34-.5h0c-2,.37-1.71-1-.75-1.5a16.5,16.5,0,0,1,3.5-1l2.84-1.6,1.27-2.28s.64,2.94-.07,4.12a5.65,5.65,0,0,1,0,1.64,1.14,1.14,0,0,1-.29.3c-.07.79-.23,1.62-.55,1.84l-.28.17a1.49,1.49,0,0,1-.49,1.12,10.68,10.68,0,0,1-2.37,1.1s-1.34.18-3,.5c-1.36.25-1.45-.41-1-.91C412.61,578.21,412.86,577.27,413.58,576.77Z"/><rect class="cls-33" x="523.39" y="611.82" width="86.98" height="43.41" rx="6.65"/><circle class="cls-22" cx="537.5" cy="625.27" r="7.51"/><circle class="cls-34" cx="537.5" cy="622.86" r="2.41"/><path class="cls-35" d="M542.51,630.87a7.46,7.46,0,0,1-5,1.92,7.56,7.56,0,0,1-5-1.92,5,5,0,0,1,10,0Z"/><path class="cls-22" d="M576.39,622.86H548.88A.86.86,0,0,1,548,622h0a.87.87,0,0,1,.87-.87h27.51a.87.87,0,0,1,.87.87h0A.86.86,0,0,1,576.39,622.86Z"/><path class="cls-22" d="M576.39,626.14H548.88a.87.87,0,0,1-.87-.87h0a.87.87,0,0,1,.87-.86h27.51a.87.87,0,0,1,.87.86h0A.87.87,0,0,1,576.39,626.14Z"/><path class="cls-22" d="M561.33,629.42H548.88a.87.87,0,0,1-.87-.87h0a.86.86,0,0,1,.87-.86h12.45a.86.86,0,0,1,.87.86h0A.87.87,0,0,1,561.33,629.42Z"/><path class="cls-22" d="M565.77,629.42h-1.6a.87.87,0,0,1-.87-.87h0a.86.86,0,0,1,.87-.86h1.6a.86.86,0,0,1,.87.86h0A.87.87,0,0,1,565.77,629.42Z"/><circle class="cls-22" cx="596.25" cy="641.76" r="7.51" transform="translate(-95.31 104.06) rotate(-9.24)"/><path class="cls-36" d="M593.84,639.35a2.41,2.41,0,1,0,2.41-2.41A2.4,2.4,0,0,0,593.84,639.35Z"/><path class="cls-37" d="M591.24,647.36a7.46,7.46,0,0,0,5,1.92,7.56,7.56,0,0,0,5-1.92,5,5,0,0,0-10,0Z"/><path class="cls-22" d="M557.36,639.35h27.51a.86.86,0,0,0,.87-.86h0a.87.87,0,0,0-.87-.87H557.36a.87.87,0,0,0-.87.87h0A.86.86,0,0,0,557.36,639.35Z"/><path class="cls-22" d="M551.42,639.35h2.82a.85.85,0,0,0,.86-.86h0a.86.86,0,0,0-.86-.87h-2.82a.87.87,0,0,0-.87.87h0A.86.86,0,0,0,551.42,639.35Z"/><path class="cls-22" d="M557.36,642.63h27.51a.87.87,0,0,0,.87-.87h0a.87.87,0,0,0-.87-.86H557.36a.87.87,0,0,0-.87.86h0A.87.87,0,0,0,557.36,642.63Z"/><path class="cls-22" d="M572.42,645.91h12.45a.87.87,0,0,0,.87-.87h0a.86.86,0,0,0-.87-.86H572.42a.86.86,0,0,0-.87.86h0A.87.87,0,0,0,572.42,645.91Z"/><path class="cls-33" d="M721.88,514.58H699.5a4.55,4.55,0,0,0-4.55,4.55v5.59a4.55,4.55,0,0,0,4.55,4.55h16.17l4.05,4.06a.85.85,0,0,0,1.44-.6v-3.46h.72a4.54,4.54,0,0,0,4.55-4.55v-5.59A4.54,4.54,0,0,0,721.88,514.58Z"/><path class="cls-22" d="M704.1,521.9a1.35,1.35,0,1,1-1.35-1.35A1.36,1.36,0,0,1,704.1,521.9Z"/><path class="cls-22" d="M709.39,521.9a1.35,1.35,0,1,1-1.35-1.35A1.35,1.35,0,0,1,709.39,521.9Z"/><path class="cls-22" d="M714.69,521.9a1.35,1.35,0,1,1-1.35-1.35A1.36,1.36,0,0,1,714.69,521.9Z"/><path class="cls-22" d="M720,521.9a1.35,1.35,0,1,1-1.35-1.35A1.35,1.35,0,0,1,720,521.9Z"/><path class="cls-38" d="M683.72,531.51h26.42a4.55,4.55,0,0,1,4.55,4.55v5.6a4.55,4.55,0,0,1-4.55,4.55h-20.2l-4.06,4.06a.85.85,0,0,1-1.44-.6v-3.46h-.72a4.55,4.55,0,0,1-4.55-4.55v-5.6A4.55,4.55,0,0,1,683.72,531.51Z"/><path class="cls-22" d="M705.54,538.84a1.35,1.35,0,1,0,1.34-1.35A1.35,1.35,0,0,0,705.54,538.84Z"/><path class="cls-22" d="M700.24,538.84a1.35,1.35,0,1,0,1.35-1.35A1.36,1.36,0,0,0,700.24,538.84Z"/><path class="cls-22" d="M695,538.84a1.35,1.35,0,1,0,1.35-1.35A1.35,1.35,0,0,0,695,538.84Z"/><path class="cls-22" d="M689.66,538.84a1.35,1.35,0,1,0,1.34-1.35A1.35,1.35,0,0,0,689.66,538.84Z"/><path class="cls-22" d="M684.36,538.84a1.35,1.35,0,1,0,1.35-1.35A1.35,1.35,0,0,0,684.36,538.84Z"/><rect class="cls-6" x="668.36" y="495.36" width="7.25" height="17.67" rx="2.31"/><path class="cls-6" d="M695.69,505.94a3.64,3.64,0,0,1-2.58,2.91,1.17,1.17,0,0,1,1.08,1.52c-.36,1.38-1.57,2.66-2.66,2.66h-8.86a10.3,10.3,0,0,1-4.24-.88l-.25-.12a1.48,1.48,0,0,1-.91-1.37V497.81a3.64,3.64,0,0,1,.43-1.71c.61-1.15,1.67-3.31,1.67-4.46,0-1.63-2.48-6.85-.76-7.93s3.87.38,5.32,3c1.14,2.06.32,6.52,1.14,7.33h8.58s2.33-.08,2.17,2.07a5,5,0,0,1-1.14,2.9s1.52-.11,1.47,1.88a5,5,0,0,1-1.52,3.2S696,504.28,695.69,505.94Z"/><rect class="cls-39" x="472.94" y="604.59" width="5.08" height="12.38" rx="1.62"/><path class="cls-40" d="M492.09,612a2.57,2.57,0,0,1-1.81,2,.82.82,0,0,1,.76,1.06c-.25,1-1.1,1.87-1.86,1.87H483a7.22,7.22,0,0,1-3-.62l-.18-.08a1,1,0,0,1-.63-1v-9a2.51,2.51,0,0,1,.3-1.2,9.15,9.15,0,0,0,1.16-3.12c0-1.14-1.73-4.8-.53-5.56s2.72.27,3.73,2.09c.8,1.44.23,4.57.8,5.14h6s1.63-.06,1.52,1.45a3.45,3.45,0,0,1-.8,2s1.07-.08,1,1.31a3.44,3.44,0,0,1-1.06,2.25S492.29,610.85,492.09,612Z"/><path class="cls-41" d="M579.8,492.72h0a9.86,9.86,0,0,0,9.86,9.86H651.1a9.86,9.86,0,0,0,9.86-9.86h0a9.85,9.85,0,0,0-9.86-9.86H589.66A9.85,9.85,0,0,0,579.8,492.72Z"/><path class="cls-33" d="M649.41,489.34H608.07a1.07,1.07,0,0,1-1.07-1.07h0a1.07,1.07,0,0,1,1.07-1.07h41.34a1.07,1.07,0,0,1,1.07,1.07h0A1.07,1.07,0,0,1,649.41,489.34Z"/><path class="cls-33" d="M633.82,493.81H608.07a1.07,1.07,0,0,1-1.07-1.07h0a1.07,1.07,0,0,1,1.07-1.07h25.75a1.07,1.07,0,0,1,1.07,1.07h0A1.07,1.07,0,0,1,633.82,493.81Z"/><path class="cls-33" d="M649.41,493.81h-11a1.07,1.07,0,0,1-1.07-1.07h0a1.07,1.07,0,0,1,1.07-1.07h11a1.07,1.07,0,0,1,1.07,1.07h0A1.07,1.07,0,0,1,649.41,493.81Z"/><path class="cls-33" d="M627.67,498.28h-19.6a1.07,1.07,0,0,1-1.07-1.07h0a1.07,1.07,0,0,1,1.07-1.07h19.6a1.07,1.07,0,0,1,1.07,1.07h0A1.07,1.07,0,0,1,627.67,498.28Z"/><path class="cls-6" d="M594.69,492h0a5.29,5.29,0,0,0-5.28,5.28v.53a.45.45,0,0,0,.44.45h9.68a.45.45,0,0,0,.45-.45v-.53A5.29,5.29,0,0,0,594.69,492Z"/><path class="cls-6" d="M596.94,488.85c0,1.25-1,2.82-2.25,2.82s-2.25-1.57-2.25-2.82a2.25,2.25,0,0,1,4.5,0Z"/><path class="cls-6" d="M574.7,475a4.92,4.92,0,1,1-4.92-4.93A4.93,4.93,0,0,1,574.7,475Z"/><path class="cls-6" d="M562.37,471.63a1.31,1.31,0,0,1-.71-.21,1.32,1.32,0,0,1-.41-1.82,10.09,10.09,0,0,1,17,0,1.32,1.32,0,0,1-2.23,1.41,7.44,7.44,0,0,0-12.59,0A1.31,1.31,0,0,1,562.37,471.63Z"/><path class="cls-6" d="M559.79,468.26A1.35,1.35,0,0,1,559,468a1.32,1.32,0,0,1-.2-1.86,14.15,14.15,0,0,1,22,0,1.32,1.32,0,1,1-2,1.66,11.51,11.51,0,0,0-17.93,0A1.32,1.32,0,0,1,559.79,468.26Z"/><path class="cls-6" d="M582.29,465a1.3,1.3,0,0,1-1-.43,15.59,15.59,0,0,0-23.08,0,1.32,1.32,0,0,1-2-1.77,18.22,18.22,0,0,1,27,0,1.31,1.31,0,0,1-1,2.2Z"/><path class="cls-6" d="M584.8,461.7a1.36,1.36,0,0,1-.95-.4,19.62,19.62,0,0,0-28.15,0,1.32,1.32,0,0,1-1.89-1.84,22.28,22.28,0,0,1,31.93,0,1.31,1.31,0,0,1,0,1.86A1.33,1.33,0,0,1,584.8,461.7Z"/><rect class="cls-33" x="503.8" y="470.77" width="44.95" height="29.65" rx="6.35"/><path class="cls-22" d="M523.45,480.07l7.5,4.33a1.85,1.85,0,0,1,0,3.2l-7.5,4.33a1.85,1.85,0,0,1-2.77-1.6v-8.66A1.85,1.85,0,0,1,523.45,480.07Z"/><rect class="cls-22" x="403.74" y="596.35" width="48.36" height="45.14" rx="5.35"/><rect class="cls-6" x="407.11" y="599.5" width="41.61" height="38.83" rx="3.51"/><path class="cls-42" d="M436.7,638.33H410.62a3.47,3.47,0,0,1-3.26-2.24l11.42-17a3,3,0,0,1,5,0l3.64,5.41Z"/><path class="cls-43" d="M448.72,619.31v15.51a3.51,3.51,0,0,1-3.51,3.51h-27.1l9.29-13.83,10.18-15.14a2.67,2.67,0,0,1,4.45,0Z"/><path class="cls-44" d="M427.34,608.91a6.36,6.36,0,1,1-6.36-6.35A6.36,6.36,0,0,1,427.34,608.91Z"/><path class="cls-45" d="M453.71,490.57l-20.62-8.21-20.61,8.21s-1,29,20.61,36.56C454.72,519.61,453.71,490.57,453.71,490.57Z"/><path class="cls-10" d="M433.1,485.94l17.24,6.87c-.29,6.14-2.4,24.77-17.24,30.77-14.83-6-17-24.63-17.25-30.77l17.25-6.87m0-1.95L414,491.59c.08,5,1.44,27.39,19.11,33.93,17.65-6.54,19-29,19.1-33.93L433.1,484Z"/><path class="cls-46" d="M420.63,501.33s9.17,6.1,12.44,14.63c0,0,8.79-22.43,20.65-30,0,0-11.5,2.28-21.69,21.14C432,507.08,427.54,501.78,420.63,501.33Z"/><circle class="cls-6" cx="555.1" cy="418.09" r="17.09" transform="translate(21.42 863.2) rotate(-76.82)"/><path class="cls-33" d="M560.73,415.65c0,3.54-2.52,6.4-5.63,6.4s-5.62-2.86-5.62-6.4,2.52-6.4,5.62-6.4S560.73,412.12,560.73,415.65Z"/><path class="cls-33" d="M567.64,429.7a17.09,17.09,0,0,1-25.08,0,16.27,16.27,0,0,1,2.06-2.17,15.51,15.51,0,0,1,8.27-3.64,18.16,18.16,0,0,1,4.42,0A15.43,15.43,0,0,1,567.64,429.7Z"/><circle class="cls-6" cx="520.68" cy="428.05" r="8.55"/><path class="cls-22" d="M523.49,426.83a2.83,2.83,0,1,1-2.81-3.2A3,3,0,0,1,523.49,426.83Z"/><path class="cls-22" d="M527,433.5a8.54,8.54,0,0,1-12.54,0,7.59,7.59,0,0,1,1-1.09,7.78,7.78,0,0,1,4.13-1.82,9.16,9.16,0,0,1,2.22,0A7.7,7.7,0,0,1,527,433.5Z"/><circle class="cls-6" cx="588.74" cy="426.83" r="8.55"/><path class="cls-22" d="M591.55,425.61a2.83,2.83,0,1,1-2.81-3.2A3,3,0,0,1,591.55,425.61Z"/><path class="cls-22" d="M595,432.28a8.54,8.54,0,0,1-12.54,0,7.59,7.59,0,0,1,1-1.09,7.78,7.78,0,0,1,4.13-1.82,9.16,9.16,0,0,1,2.22,0A7.7,7.7,0,0,1,595,432.28Z"/><circle class="cls-6" cx="475.48" cy="475" r="8.55"/><path class="cls-22" d="M478.29,473.78a2.83,2.83,0,1,1-2.81-3.21A3,3,0,0,1,478.29,473.78Z"/><path class="cls-22" d="M481.75,480.44a8.54,8.54,0,0,1-12.54,0,7.52,7.52,0,0,1,1-1.08,7.79,7.79,0,0,1,4.13-1.83,10.3,10.3,0,0,1,2.22,0A7.74,7.74,0,0,1,481.75,480.44Z"/><rect class="cls-47" x="461.5" y="523.58" width="185.08" height="56.77" rx="12"/><path class="cls-6" d="M502,544.4a11.71,11.71,0,0,1,4.64-4.77,13.73,13.73,0,0,1,6.91-1.71,13.12,13.12,0,0,1,8.35,2.65,12.11,12.11,0,0,1,4.36,7.2h-7.93a5.34,5.34,0,0,0-2-2.3,5.42,5.42,0,0,0-2.91-.79,5,5,0,0,0-4.08,1.83,7.34,7.34,0,0,0-1.52,4.86,7.45,7.45,0,0,0,1.52,4.91,5.07,5.07,0,0,0,4.08,1.82,5.17,5.17,0,0,0,4.89-3.08h7.93a12.11,12.11,0,0,1-4.36,7.2,13.18,13.18,0,0,1-8.35,2.65,13.73,13.73,0,0,1-6.91-1.71,11.67,11.67,0,0,1-4.64-4.78,15.72,15.72,0,0,1,0-14Z"/><path class="cls-6" d="M549.93,564.68l-5.26-9.77h-.79v9.77h-7.37v-26.5h11.62a12,12,0,0,1,5.41,1.11,7.75,7.75,0,0,1,3.34,3.05,8.36,8.36,0,0,1,1.13,4.34,7.87,7.87,0,0,1-1.48,4.75,8,8,0,0,1-4.34,2.91l6,10.34Zm-6-14.81h3.65a3.18,3.18,0,0,0,2.25-.71,2.74,2.74,0,0,0,.75-2.07,2.62,2.62,0,0,0-.77-2,3.11,3.11,0,0,0-2.23-.73h-3.65Z"/><path class="cls-6" d="M599.09,538.18v26.5h-7.37V550.06l-5,14.62h-6.16l-5-14.73v14.73h-7.36v-26.5h8.91l6.65,17.22,6.5-17.22Z"/></g></g></svg>