<?xml version="1.0" encoding="utf-8"?>
<!-- Generator: Adobe Illustrator 25.2.1, SVG Export Plug-In . SVG Version: 6.00 Build 0)  -->
<svg version="1.1" id="Layer_1" xmlns="http://www.w3.org/2000/svg" xmlns:xlink="http://www.w3.org/1999/xlink" x="0px" y="0px"
	 viewBox="0 0 128.51 124" style="enable-background:new 0 0 128.51 124;" xml:space="preserve">
<style type="text/css">
	.st0{fill:#002680;}
	.st1{opacity:0.65;}
	.st2{fill:url(#SVGID_1_);}
	.st3{fill:url(#SVGID_2_);}
	.st4{fill:#FFFFFF;}
	.st5{fill:url(#SVGID_3_);}
	.st6{fill:url(#SVGID_4_);}
	.st7{fill:url(#SVGID_5_);}
	.st8{fill:url(#SVGID_6_);}
	.st9{fill:url(#SVGID_7_);}
	.st10{fill:url(#SVGID_8_);}
	.st11{fill:url(#SVGID_9_);}
	.st12{fill:url(#SVGID_10_);}
	.st13{fill:url(#SVGID_11_);}
	.st14{fill:url(#SVGID_12_);}
	.st15{fill:url(#SVGID_13_);}
	.st16{fill:url(#SVGID_14_);}
	.st17{fill:url(#SVGID_15_);}
	.st18{fill:url(#SVGID_16_);}
	.st19{fill:url(#SVGID_17_);}
	.st20{fill:url(#SVGID_18_);}
	.st21{fill:url(#SVGID_19_);}
	.st22{fill:url(#SVGID_20_);}
	.st23{fill:url(#SVGID_21_);}
	.st24{fill:url(#SVGID_22_);}
	.st25{fill:url(#SVGID_23_);}
	.st26{fill:url(#SVGID_24_);}
	.st27{fill:url(#SVGID_25_);}
	.st28{fill:url(#SVGID_26_);}
	.st29{fill:url(#SVGID_27_);}
	.st30{fill:url(#SVGID_28_);}
	.st31{fill:url(#SVGID_29_);}
	.st32{fill:url(#SVGID_30_);}
	.st33{fill:url(#SVGID_31_);}
	.st34{fill:url(#SVGID_32_);}
	.st35{fill:url(#SVGID_33_);}
	.st36{fill:url(#SVGID_34_);}
	.st37{fill:url(#SVGID_35_);}
	.st38{fill:url(#SVGID_36_);}
	.st39{fill:url(#SVGID_37_);}
	.st40{fill:url(#SVGID_38_);}
	.st41{fill:url(#SVGID_39_);}
	.st42{fill:url(#SVGID_40_);}
	.st43{fill:url(#SVGID_41_);}
	.st44{fill:url(#SVGID_42_);}
	.st45{fill:url(#SVGID_43_);}
	.st46{fill:url(#SVGID_44_);}
	.st47{fill:url(#SVGID_45_);}
	.st48{fill:url(#SVGID_46_);}
	.st49{fill:url(#SVGID_47_);}
	.st50{fill:url(#SVGID_48_);}
	.st51{fill:url(#SVGID_49_);}
	.st52{fill:url(#SVGID_50_);}
	.st53{fill:url(#SVGID_51_);}
	.st54{fill:url(#SVGID_52_);}
	.st55{fill:url(#SVGID_53_);}
</style>
<g>
	<path class="st0" d="M107.3,73.99l-4.09-0.6c-0.44-1.75-1.14-3.41-2.05-4.96l2.46-3.32c0.27-0.37,0.23-0.88-0.09-1.21l-1.57-1.57
		l1.88-1.88l3.32,0c0.51,0,0.93-0.42,0.93-0.93c0-0.51-0.42-0.93-0.93-0.93h-2.78l0-2.77c0-0.51-0.42-0.93-0.93-0.93
		c-0.51,0-0.93,0.42-0.93,0.93v3.32l-1.88,1.88l-1.57-1.57c-0.32-0.32-0.84-0.36-1.21-0.09l-3.32,2.46
		c-1.56-0.93-3.21-1.6-4.95-2.05l-0.6-4.07c-0.07-0.46-0.46-0.79-0.91-0.79h-6.28c-0.46,0-0.85,0.33-0.91,0.79l-0.6,4.07
		c-1.74,0.44-3.41,1.14-4.95,2.05l-3.32-2.46c-0.37-0.27-0.88-0.23-1.21,0.09l-4.44,4.44c-0.32,0.32-0.36,0.84-0.09,1.21l2.46,3.32
		c-0.93,1.54-1.6,3.21-2.05,4.96L62.6,74c-0.46,0.06-0.79,0.46-0.79,0.91v6.28c0,0.46,0.33,0.85,0.79,0.91l4.07,0.6
		c0.44,1.74,1.14,3.41,2.05,4.96L66.27,91c-0.27,0.37-0.23,0.88,0.09,1.21l4.44,4.44c0.32,0.32,0.84,0.36,1.21,0.09l3.32-2.46
		c1.56,0.93,3.21,1.6,4.95,2.05l0.6,4.07c0.07,0.46,0.46,0.79,0.91,0.79h6.28c0.46,0,0.85-0.33,0.91-0.79l0.6-4.07
		c1.74-0.44,3.41-1.14,4.95-2.05l2.17,1.6c0.41,0.31,0.99,0.21,1.3-0.2s0.22-0.99-0.2-1.3l-2.68-1.97
		c-0.31-0.23-0.73-0.25-1.05-0.04c-1.7,1.09-3.56,1.86-5.53,2.28c-0.37,0.09-0.67,0.38-0.72,0.77l-0.58,3.91h-4.69l-0.58-3.91
		c-0.06-0.38-0.35-0.69-0.72-0.77c-1.96-0.43-3.83-1.2-5.53-2.28c-0.32-0.21-0.74-0.2-1.05,0.04l-3.17,2.36l-3.32-3.32l2.36-3.17
		c0.23-0.31,0.25-0.73,0.04-1.05c-1.09-1.7-1.86-3.57-2.3-5.53c-0.09-0.37-0.38-0.67-0.77-0.72l-3.91-0.58v-4.69l3.91-0.58
		c0.38-0.06,0.69-0.35,0.77-0.72c0.43-1.97,1.2-3.83,2.3-5.53c0.21-0.32,0.2-0.74-0.04-1.05l-2.36-3.17l3.32-3.32l3.17,2.36
		c0.31,0.22,0.73,0.25,1.05,0.04c1.7-1.09,3.56-1.86,5.53-2.28c0.37-0.09,0.67-0.38,0.72-0.77l0.58-3.91h4.69l0.58,3.91
		c0.06,0.38,0.35,0.69,0.72,0.77c1.96,0.43,3.83,1.2,5.53,2.28c0.32,0.21,0.74,0.2,1.05-0.04l3.17-2.36l1,1l-5.7,5.7
		c-2.33-2.02-5.37-3.27-8.69-3.27c-1.36,0-2.7,0.21-3.97,0.6c-0.49,0.16-0.77,0.68-0.6,1.16c0.16,0.48,0.68,0.77,1.16,0.6
		c1.1-0.35,2.26-0.52,3.43-0.52c2.81,0,5.39,1.02,7.38,2.73l-1.75,1.75c-1.54-1.25-3.51-2-5.63-2c-4.94,0-8.95,4.01-8.95,8.95
		c0,4.94,4.03,8.94,8.96,8.94c4.94,0,8.95-4.01,8.95-8.95c0-2.14-0.75-4.1-2-5.64l1.75-1.75c1.69,1.99,2.73,4.57,2.73,7.38
		c0,6.3-5.12,11.42-11.42,11.42c-6.29,0-11.43-5.11-11.43-11.41c0-3.58,1.63-6.89,4.48-9.07c0.41-0.31,0.48-0.89,0.17-1.3
		s-0.89-0.48-1.3-0.17c-3.31,2.53-5.21,6.38-5.21,10.54c0,7.32,5.95,13.27,13.27,13.27c7.32,0,13.27-5.95,13.27-13.27
		c0-3.32-1.23-6.36-3.27-8.69l5.7-5.7l1,1l-2.36,3.17c-0.23,0.31-0.25,0.73-0.04,1.05c1.09,1.7,1.85,3.56,2.3,5.53
		c0.09,0.37,0.38,0.67,0.77,0.72l3.91,0.58v4.69l-3.91,0.58c-0.38,0.06-0.69,0.35-0.77,0.72c-0.43,1.96-1.2,3.83-2.3,5.53
		c-0.21,0.32-0.2,0.74,0.04,1.05l2.36,3.17l-1.88,1.88c-0.36,0.36-0.36,0.95,0,1.31c0.36,0.36,0.95,0.36,1.31,0l2.44-2.44
		c0.32-0.32,0.36-0.84,0.09-1.21l-2.46-3.32c0.93-1.56,1.62-3.22,2.05-4.96l4.07-0.6c0.46-0.06,0.79-0.46,0.79-0.91v-6.28
		C108.09,74.44,107.76,74.06,107.3,73.99L107.3,73.99z M92.04,78.05c0,3.91-3.18,7.1-7.1,7.1c-3.91,0-7.1-3.18-7.1-7.1
		c0-3.91,3.18-7.1,7.1-7.1c1.63,0,3.12,0.56,4.31,1.47l-1.77,1.77c-0.73-0.48-1.6-0.77-2.54-0.77c-2.55,0-4.63,2.07-4.63,4.63
		s2.07,4.63,4.63,4.63s4.63-2.07,4.63-4.63c0-0.94-0.28-1.81-0.78-2.54l1.77-1.77C91.49,74.94,92.04,76.43,92.04,78.05L92.04,78.05z
		 M87.72,78.05c0,1.53-1.25,2.78-2.78,2.78c-1.53,0-2.78-1.25-2.78-2.78c0-1.53,1.25-2.78,2.78-2.78c0.43,0,0.83,0.11,1.18,0.28
		l-1.84,1.84c-0.36,0.36-0.36,0.95,0,1.31c0.19,0.19,0.42,0.27,0.65,0.27c0.23,0,0.47-0.09,0.65-0.27l1.84-1.84
		C87.61,77.22,87.72,77.62,87.72,78.05L87.72,78.05z"/>
	<linearGradient id="SVGID_1_" gradientUnits="userSpaceOnUse" x1="109.9247" y1="55.9696" x2="69.6849" y2="91.3318">
		<stop  offset="0" style="stop-color:#10BEF0"/>
		<stop  offset="1" style="stop-color:#10BEF0;stop-opacity:0"/>
	</linearGradient>
	<path class="st2" d="M107.3,73.99l-4.09-0.6c-0.44-1.75-1.14-3.41-2.05-4.96l2.46-3.32c0.27-0.37,0.23-0.88-0.09-1.21l-1.57-1.57
		l1.88-1.88l3.32,0c0.51,0,0.93-0.42,0.93-0.93c0-0.51-0.42-0.93-0.93-0.93h-2.78l0-2.77c0-0.51-0.42-0.93-0.93-0.93
		c-0.51,0-0.93,0.42-0.93,0.93v3.32l-1.88,1.88l-1.57-1.57c-0.32-0.32-0.84-0.36-1.21-0.09l-3.32,2.46
		c-1.56-0.93-3.21-1.6-4.95-2.05l-0.6-4.07c-0.07-0.46-0.46-0.79-0.91-0.79h-6.28c-0.46,0-0.85,0.33-0.91,0.79l-0.6,4.07
		c-1.74,0.44-3.41,1.14-4.95,2.05l-3.32-2.46c-0.37-0.27-0.88-0.23-1.21,0.09l-4.44,4.44c-0.32,0.32-0.36,0.84-0.09,1.21l2.46,3.32
		c-0.93,1.54-1.6,3.21-2.05,4.96L62.6,74c-0.46,0.06-0.79,0.46-0.79,0.91v6.28c0,0.46,0.33,0.85,0.79,0.91l4.07,0.6
		c0.44,1.74,1.14,3.41,2.05,4.96L66.27,91c-0.27,0.37-0.23,0.88,0.09,1.21l4.44,4.44c0.32,0.32,0.84,0.36,1.21,0.09l3.32-2.46
		c1.56,0.93,3.21,1.6,4.95,2.05l0.6,4.07c0.07,0.46,0.46,0.79,0.91,0.79h6.28c0.46,0,0.85-0.33,0.91-0.79l0.6-4.07
		c1.74-0.44,3.41-1.14,4.95-2.05l2.17,1.6c0.41,0.31,0.99,0.21,1.3-0.2s0.22-0.99-0.2-1.3l-2.68-1.97
		c-0.31-0.23-0.73-0.25-1.05-0.04c-1.7,1.09-3.56,1.86-5.53,2.28c-0.37,0.09-0.67,0.38-0.72,0.77l-0.58,3.91h-4.69l-0.58-3.91
		c-0.06-0.38-0.35-0.69-0.72-0.77c-1.96-0.43-3.83-1.2-5.53-2.28c-0.32-0.21-0.74-0.2-1.05,0.04l-3.17,2.36l-3.32-3.32l2.36-3.17
		c0.23-0.31,0.25-0.73,0.04-1.05c-1.09-1.7-1.86-3.57-2.3-5.53c-0.09-0.37-0.38-0.67-0.77-0.72l-3.91-0.58v-4.69l3.91-0.58
		c0.38-0.06,0.69-0.35,0.77-0.72c0.43-1.97,1.2-3.83,2.3-5.53c0.21-0.32,0.2-0.74-0.04-1.05l-2.36-3.17l3.32-3.32l3.17,2.36
		c0.31,0.22,0.73,0.25,1.05,0.04c1.7-1.09,3.56-1.86,5.53-2.28c0.37-0.09,0.67-0.38,0.72-0.77l0.58-3.91h4.69l0.58,3.91
		c0.06,0.38,0.35,0.69,0.72,0.77c1.96,0.43,3.83,1.2,5.53,2.28c0.32,0.21,0.74,0.2,1.05-0.04l3.17-2.36l1,1l-5.7,5.7
		c-2.33-2.02-5.37-3.27-8.69-3.27c-1.36,0-2.7,0.21-3.97,0.6c-0.49,0.16-0.77,0.68-0.6,1.16c0.16,0.48,0.68,0.77,1.16,0.6
		c1.1-0.35,2.26-0.52,3.43-0.52c2.81,0,5.39,1.02,7.38,2.73l-1.75,1.75c-1.54-1.25-3.51-2-5.63-2c-4.94,0-8.95,4.01-8.95,8.95
		c0,4.94,4.03,8.94,8.96,8.94c4.94,0,8.95-4.01,8.95-8.95c0-2.14-0.75-4.1-2-5.64l1.75-1.75c1.69,1.99,2.73,4.57,2.73,7.38
		c0,6.3-5.12,11.42-11.42,11.42c-6.29,0-11.43-5.11-11.43-11.41c0-3.58,1.63-6.89,4.48-9.07c0.41-0.31,0.48-0.89,0.17-1.3
		s-0.89-0.48-1.3-0.17c-3.31,2.53-5.21,6.38-5.21,10.54c0,7.32,5.95,13.27,13.27,13.27c7.32,0,13.27-5.95,13.27-13.27
		c0-3.32-1.23-6.36-3.27-8.69l5.7-5.7l1,1l-2.36,3.17c-0.23,0.31-0.25,0.73-0.04,1.05c1.09,1.7,1.85,3.56,2.3,5.53
		c0.09,0.37,0.38,0.67,0.77,0.72l3.91,0.58v4.69l-3.91,0.58c-0.38,0.06-0.69,0.35-0.77,0.72c-0.43,1.96-1.2,3.83-2.3,5.53
		c-0.21,0.32-0.2,0.74,0.04,1.05l2.36,3.17l-1.88,1.88c-0.36,0.36-0.36,0.95,0,1.31c0.36,0.36,0.95,0.36,1.31,0l2.44-2.44
		c0.32-0.32,0.36-0.84,0.09-1.21l-2.46-3.32c0.93-1.56,1.62-3.22,2.05-4.96l4.07-0.6c0.46-0.06,0.79-0.46,0.79-0.91v-6.28
		C108.09,74.44,107.76,74.06,107.3,73.99L107.3,73.99z M92.04,78.05c0,3.91-3.18,7.1-7.1,7.1c-3.91,0-7.1-3.18-7.1-7.1
		c0-3.91,3.18-7.1,7.1-7.1c1.63,0,3.12,0.56,4.31,1.47l-1.77,1.77c-0.73-0.48-1.6-0.77-2.54-0.77c-2.55,0-4.63,2.07-4.63,4.63
		s2.07,4.63,4.63,4.63s4.63-2.07,4.63-4.63c0-0.94-0.28-1.81-0.78-2.54l1.77-1.77C91.49,74.94,92.04,76.43,92.04,78.05L92.04,78.05z
		 M87.72,78.05c0,1.53-1.25,2.78-2.78,2.78c-1.53,0-2.78-1.25-2.78-2.78c0-1.53,1.25-2.78,2.78-2.78c0.43,0,0.83,0.11,1.18,0.28
		l-1.84,1.84c-0.36,0.36-0.36,0.95,0,1.31c0.19,0.19,0.42,0.27,0.65,0.27c0.23,0,0.47-0.09,0.65-0.27l1.84-1.84
		C87.61,77.22,87.72,77.62,87.72,78.05L87.72,78.05z"/>
	<path class="st0" d="M38.04,28.67c0,0.68-0.55,1.23-1.23,1.23c-0.68,0-1.23-0.55-1.23-1.23c0-0.68,0.55-1.23,1.23-1.23
		C37.49,27.44,38.04,27.99,38.04,28.67"/>
	<path class="st0" d="M42.98,28.67c0,0.68-0.55,1.23-1.23,1.23c-0.68,0-1.23-0.55-1.23-1.23c0-0.68,0.55-1.23,1.23-1.23
		C42.43,27.44,42.98,27.99,42.98,28.67"/>
	<path class="st0" d="M47.92,28.67c0,0.68-0.55,1.23-1.23,1.23c-0.68,0-1.23-0.55-1.23-1.23c0-0.68,0.55-1.23,1.23-1.23
		C47.36,27.44,47.92,27.99,47.92,28.67"/>
	<path class="st0" d="M56.25,58.3V38.55c0-0.51-0.42-0.93-0.93-0.93H35.57c-0.51,0-0.93,0.42-0.93,0.93V58.3
		c0,0.51,0.42,0.93,0.93,0.93h19.75C55.83,59.22,56.25,58.8,56.25,58.3z M54.4,57.37H36.5v-17.9h17.9V57.37z"/>
	<path class="st0" d="M83.71,42.56H61.49c-0.51,0-0.93,0.42-0.93,0.93c0,0.51,0.42,0.93,0.93,0.93h22.22c0.51,0,0.93-0.42,0.93-0.93
		C84.64,42.98,84.22,42.56,83.71,42.56z"/>
	<path class="st0" d="M84.64,49.66c0-0.51-0.42-0.93-0.93-0.93H61.49c-0.51,0-0.93,0.42-0.93,0.93c0,0.51,0.42,0.93,0.93,0.93h22.22
		C84.22,50.58,84.64,50.16,84.64,49.66L84.64,49.66z"/>
	<path class="st0" d="M76,55.83c0-0.51-0.42-0.93-0.93-0.93H61.49c-0.51,0-0.93,0.42-0.93,0.93c0,0.51,0.42,0.93,0.93,0.93h13.58
		C75.58,56.75,76,56.33,76,55.83L76,55.83z"/>
	<path class="st0" d="M42.55,54.17c0.14,0.07,0.28,0.11,0.43,0.11c0.19,0,0.36-0.05,0.52-0.16l7.41-4.94
		c0.26-0.17,0.41-0.46,0.41-0.77c0-0.31-0.16-0.6-0.41-0.77l-7.41-4.94c-0.28-0.19-0.65-0.21-0.95-0.05
		c-0.3,0.16-0.49,0.47-0.49,0.81v9.88C42.05,53.71,42.24,54.01,42.55,54.17L42.55,54.17z M43.9,45.21l4.81,3.21l-4.81,3.21V45.21z"
		/>
	<path class="st0" d="M42.98,67.86h19.75c0.51,0,0.93-0.42,0.93-0.93c0-0.51-0.42-0.93-0.93-0.93l-19.75,0
		c-0.51,0-0.93,0.42-0.93,0.93C42.05,67.44,42.47,67.86,42.98,67.86L42.98,67.86z"/>
	<path class="st0" d="M39.27,70.33c0.51,0,0.93-0.42,0.93-0.93v-4.94c0-0.51-0.42-0.93-0.93-0.93c-0.51,0-0.93,0.42-0.93,0.93v1.54
		h-2.78c-0.51,0-0.93,0.42-0.93,0.93c0,0.51,0.42,0.93,0.93,0.93h2.78v1.54C38.35,69.91,38.77,70.33,39.27,70.33L39.27,70.33z"/>
	<linearGradient id="SVGID_2_" gradientUnits="userSpaceOnUse" x1="37.7957" y1="27.9343" x2="35.8159" y2="29.4092">
		<stop  offset="0" style="stop-color:#10BEF0"/>
		<stop  offset="1" style="stop-color:#10BEF0;stop-opacity:0"/>
	</linearGradient>
	<path class="st3" d="M38.04,28.67c0,0.68-0.55,1.23-1.23,1.23c-0.68,0-1.23-0.55-1.23-1.23c0-0.68,0.55-1.23,1.23-1.23
		C37.49,27.44,38.04,27.99,38.04,28.67"/>
	<linearGradient id="SVGID_3_" gradientUnits="userSpaceOnUse" x1="42.7335" y1="27.9343" x2="40.7537" y2="29.4092">
		<stop  offset="0" style="stop-color:#10BEF0"/>
		<stop  offset="1" style="stop-color:#10BEF0;stop-opacity:0"/>
	</linearGradient>
	<path class="st5" d="M42.98,28.67c0,0.68-0.55,1.23-1.23,1.23c-0.68,0-1.23-0.55-1.23-1.23c0-0.68,0.55-1.23,1.23-1.23
		C42.43,27.44,42.98,27.99,42.98,28.67"/>
	<linearGradient id="SVGID_4_" gradientUnits="userSpaceOnUse" x1="47.6709" y1="27.9343" x2="45.6912" y2="29.4092">
		<stop  offset="0" style="stop-color:#10BEF0"/>
		<stop  offset="1" style="stop-color:#10BEF0;stop-opacity:0"/>
	</linearGradient>
	<path class="st6" d="M47.92,28.67c0,0.68-0.55,1.23-1.23,1.23c-0.68,0-1.23-0.55-1.23-1.23c0-0.68,0.55-1.23,1.23-1.23
		C47.36,27.44,47.92,27.99,47.92,28.67"/>
	<linearGradient id="SVGID_5_" gradientUnits="userSpaceOnUse" x1="57.2682" y1="39.615" x2="33.624" y2="57.2296">
		<stop  offset="0" style="stop-color:#10BEF0"/>
		<stop  offset="1" style="stop-color:#10BEF0;stop-opacity:0"/>
	</linearGradient>
	<path class="st7" d="M56.25,58.3V38.55c0-0.51-0.42-0.93-0.93-0.93H35.57c-0.51,0-0.93,0.42-0.93,0.93V58.3
		c0,0.51,0.42,0.93,0.93,0.93h19.75C55.83,59.22,56.25,58.8,56.25,58.3z M54.4,57.37H36.5v-17.9h17.9V57.37z"/>
	<linearGradient id="SVGID_6_" gradientUnits="userSpaceOnUse" x1="80.4878" y1="37.6096" x2="64.718" y2="49.3578">
		<stop  offset="0" style="stop-color:#10BEF0"/>
		<stop  offset="1" style="stop-color:#10BEF0;stop-opacity:0"/>
	</linearGradient>
	<path class="st8" d="M83.71,42.56H61.49c-0.51,0-0.93,0.42-0.93,0.93c0,0.51,0.42,0.93,0.93,0.93h22.22c0.51,0,0.93-0.42,0.93-0.93
		C84.64,42.98,84.22,42.56,83.71,42.56z"/>
	<linearGradient id="SVGID_7_" gradientUnits="userSpaceOnUse" x1="80.4872" y1="43.782" x2="64.7176" y2="55.5302">
		<stop  offset="0" style="stop-color:#10BEF0"/>
		<stop  offset="1" style="stop-color:#10BEF0;stop-opacity:0"/>
	</linearGradient>
	<path class="st9" d="M84.64,49.66c0-0.51-0.42-0.93-0.93-0.93H61.49c-0.51,0-0.93,0.42-0.93,0.93c0,0.51,0.42,0.93,0.93,0.93h22.22
		C84.22,50.58,84.64,50.16,84.64,49.66L84.64,49.66z"/>
	<linearGradient id="SVGID_8_" gradientUnits="userSpaceOnUse" x1="73.389" y1="52.023" x2="63.1761" y2="59.6315">
		<stop  offset="0" style="stop-color:#10BEF0"/>
		<stop  offset="1" style="stop-color:#10BEF0;stop-opacity:0"/>
	</linearGradient>
	<path class="st10" d="M76,55.83c0-0.51-0.42-0.93-0.93-0.93H61.49c-0.51,0-0.93,0.42-0.93,0.93c0,0.51,0.42,0.93,0.93,0.93h13.58
		C75.58,56.75,76,56.33,76,55.83L76,55.83z"/>
	<linearGradient id="SVGID_9_" gradientUnits="userSpaceOnUse" x1="48.6227" y1="44.5089" x2="40.0094" y2="50.9257">
		<stop  offset="0" style="stop-color:#10BEF0"/>
		<stop  offset="1" style="stop-color:#10BEF0;stop-opacity:0"/>
	</linearGradient>
	<path class="st11" d="M42.55,54.17c0.14,0.07,0.28,0.11,0.43,0.11c0.19,0,0.36-0.05,0.52-0.16l7.41-4.94
		c0.26-0.17,0.41-0.46,0.41-0.77c0-0.31-0.16-0.6-0.41-0.77l-7.41-4.94c-0.28-0.19-0.65-0.21-0.95-0.05
		c-0.3,0.16-0.49,0.47-0.49,0.81v9.88C42.05,53.71,42.24,54.01,42.55,54.17L42.55,54.17z M43.9,45.21l4.81,3.21l-4.81,3.21V45.21z"
		/>
	<linearGradient id="SVGID_10_" gradientUnits="userSpaceOnUse" x1="59.9439" y1="61.6544" x2="45.7621" y2="72.2196">
		<stop  offset="0" style="stop-color:#10BEF0"/>
		<stop  offset="1" style="stop-color:#10BEF0;stop-opacity:0"/>
	</linearGradient>
	<path class="st12" d="M42.98,67.86h19.75c0.51,0,0.93-0.42,0.93-0.93c0-0.51-0.42-0.93-0.93-0.93l-19.75,0
		c-0.51,0-0.93,0.42-0.93,0.93C42.05,67.44,42.47,67.86,42.98,67.86L42.98,67.86z"/>
	<linearGradient id="SVGID_11_" gradientUnits="userSpaceOnUse" x1="41.1273" y1="65.4113" x2="36.0827" y2="69.1695">
		<stop  offset="0" style="stop-color:#10BEF0"/>
		<stop  offset="1" style="stop-color:#10BEF0;stop-opacity:0"/>
	</linearGradient>
	<path class="st13" d="M39.27,70.33c0.51,0,0.93-0.42,0.93-0.93v-4.94c0-0.51-0.42-0.93-0.93-0.93c-0.51,0-0.93,0.42-0.93,0.93v1.54
		h-2.78c-0.51,0-0.93,0.42-0.93,0.93c0,0.51,0.42,0.93,0.93,0.93h2.78v1.54C38.35,69.91,38.77,70.33,39.27,70.33L39.27,70.33z"/>
	<path class="st0" d="M59.02,74.65H35.57c-2.21,0-4.01-1.8-4.01-4.01l0-28.7c0-0.52-0.42-0.93-0.93-0.93s-0.93,0.42-0.93,0.93v28.7
		c0,3.23,2.63,5.86,5.86,5.86h23.45c0.51,0,0.93-0.42,0.93-0.93C59.95,75.07,59.53,74.65,59.02,74.65L59.02,74.65z"/>
	<path class="st0" d="M30.63,38.67c0.51,0,0.93-0.42,0.93-0.93v-3.2h59.87v23.19c0,0.51,0.42,0.93,0.93,0.93
		c0.51,0,0.93-0.42,0.93-0.93V28.67c0-3.23-2.63-5.86-5.86-5.86H35.57c-3.23,0-5.86,2.63-5.86,5.86v9.06
		C29.71,38.25,30.13,38.67,30.63,38.67L30.63,38.67z M31.56,28.67c0-2.21,1.8-4.01,4.01-4.01h51.84c2.21,0,4.01,1.8,4.01,4.01v4.01
		H31.56L31.56,28.67z"/>
</g>
</svg>
