<svg id="Layer_1" data-name="Layer 1" xmlns="http://www.w3.org/2000/svg" xmlns:xlink="http://www.w3.org/1999/xlink" viewBox="0 0 128.51 124"><defs><style>.cls-1{fill:#002680;}.cls-2{opacity:0.65;}.cls-3{fill:url(#linear-gradient);}.cls-4{fill:#fff;}</style><linearGradient id="linear-gradient" x1="18.51" y1="61" x2="114.51" y2="61" gradientUnits="userSpaceOnUse"><stop offset="0" stop-color="#10bef0"/><stop offset="0.27" stop-color="#10bef0" stop-opacity="0.67"/><stop offset="0.53" stop-color="#10bef0" stop-opacity="0.39"/><stop offset="0.75" stop-color="#10bef0" stop-opacity="0.18"/><stop offset="0.91" stop-color="#10bef0" stop-opacity="0.05"/><stop offset="1" stop-color="#10bef0" stop-opacity="0"/></linearGradient></defs><circle class="cls-1" cx="66.51" cy="61" r="48"/><g class="cls-2"><circle class="cls-3" cx="66.51" cy="61" r="48"/></g><path class="cls-4" d="M96.61,70.65l-3-.44a13.67,13.67,0,0,0-1.48-3.58L94,64.24a.68.68,0,0,0-.06-.88l-1.13-1.13,1.35-1.35h2.4a.67.67,0,0,0,0-1.34h-2v-2a.67.67,0,1,0-1.33,0v2.39L91.81,61.3l-1.13-1.13a.67.67,0,0,0-.87-.07l-2.4,1.78a13.28,13.28,0,0,0-3.57-1.48l-.43-2.94a.67.67,0,0,0-.66-.57H78.21a.65.65,0,0,0-.65.57l-.44,2.94a13.47,13.47,0,0,0-3.57,1.48l-2.4-1.78a.67.67,0,0,0-.87.07l-3.21,3.2a.68.68,0,0,0-.06.87l1.77,2.4a13.51,13.51,0,0,0-1.47,3.58l-3,.44a.66.66,0,0,0-.57.66v4.53a.67.67,0,0,0,.57.66l2.94.43a14,14,0,0,0,1.47,3.58L67,82.92a.68.68,0,0,0,.06.87L70.27,87a.67.67,0,0,0,.87.06l2.4-1.77a13.28,13.28,0,0,0,3.57,1.48l.44,2.94a.67.67,0,0,0,.66.57h4.53a.67.67,0,0,0,.66-.57l.43-2.94a13.47,13.47,0,0,0,3.57-1.48L89,86.45a.67.67,0,0,0,.94-.15.65.65,0,0,0-.15-.93l-1.93-1.43a.65.65,0,0,0-.75,0,12.11,12.11,0,0,1-4,1.64.67.67,0,0,0-.52.56l-.42,2.82H78.77l-.42-2.82a.68.68,0,0,0-.52-.56,12.33,12.33,0,0,1-4-1.64.66.66,0,0,0-.76,0L70.8,85.65l-2.4-2.4L70.1,81a.66.66,0,0,0,0-.76,12.16,12.16,0,0,1-1.66-4,.65.65,0,0,0-.55-.51l-2.82-.42V71.89l2.82-.41a.67.67,0,0,0,.55-.52,11.86,11.86,0,0,1,1.66-4,.66.66,0,0,0,0-.76l-1.7-2.29,2.4-2.39,2.28,1.7a.68.68,0,0,0,.76,0,11.93,11.93,0,0,1,4-1.65.67.67,0,0,0,.52-.55l.42-2.83h3.38l.42,2.83a.66.66,0,0,0,.52.55,12.22,12.22,0,0,1,4,1.65.65.65,0,0,0,.75,0l2.29-1.7.72.72-4.11,4.11A9.58,9.58,0,0,0,80.46,64a9.88,9.88,0,0,0-2.87.44.67.67,0,1,0,.4,1.27,8.23,8.23,0,0,1,2.48-.37,8.13,8.13,0,0,1,5.32,2l-1.26,1.26a6.31,6.31,0,1,0,1,.94l1.27-1.27A8.24,8.24,0,1,1,75.47,67a.66.66,0,0,0,.13-.93.67.67,0,0,0-.94-.13,9.59,9.59,0,1,0,13,1.34l4.12-4.12.72.73-1.7,2.28a.66.66,0,0,0,0,.76,12.84,12.84,0,0,1,1.66,4,.66.66,0,0,0,.55.52l2.82.42v3.38L93,75.69a.65.65,0,0,0-.55.52,12.47,12.47,0,0,1-1.66,4,.65.65,0,0,0,0,.75l1.7,2.29-1.36,1.35a.67.67,0,0,0,1,1l1.76-1.77a.67.67,0,0,0,.06-.87l-1.77-2.39a13.29,13.29,0,0,0,1.48-3.58l2.94-.44a.66.66,0,0,0,.57-.66V71.3a.64.64,0,0,0-.55-.65Zm-11,2.93a5.13,5.13,0,1,1-5.12-5.12,5,5,0,0,1,3.1,1.06l-1.27,1.27a3.34,3.34,0,1,0-1.83,6.13,3.35,3.35,0,0,0,3.34-3.34,3.26,3.26,0,0,0-.57-1.84l1.28-1.27a5,5,0,0,1,1.07,3.11Zm-3.12,0a2,2,0,1,1-2-2,1.87,1.87,0,0,1,.85.21L80,73.11a.68.68,0,0,0,0,.94.71.71,0,0,0,.48.2.69.69,0,0,0,.47-.2l1.32-1.33a1.92,1.92,0,0,1,.21.86Z"/><path class="cls-4" d="M46.64,38a.9.9,0,1,1-.9-.89.89.89,0,0,1,.9.89"/><path class="cls-4" d="M50.2,38a.89.89,0,1,1-.89-.89.89.89,0,0,1,.89.89"/><path class="cls-4" d="M53.76,38a.89.89,0,1,1-.89-.89.89.89,0,0,1,.89.89"/><path class="cls-4" d="M59.77,59.33V45.08a.67.67,0,0,0-.67-.67H44.85a.67.67,0,0,0-.66.67V59.33a.67.67,0,0,0,.66.67H59.1A.68.68,0,0,0,59.77,59.33Zm-1.33-.67H45.52V45.75H58.44Z"/><path class="cls-4" d="M79.59,48h-16a.67.67,0,0,0,0,1.34h16a.67.67,0,0,0,0-1.34Z"/><path class="cls-4" d="M80.25,53.09a.67.67,0,0,0-.66-.66h-16a.67.67,0,1,0,0,1.33h16a.67.67,0,0,0,.66-.67Z"/><path class="cls-4" d="M74,57.55a.67.67,0,0,0-.67-.67H63.56a.67.67,0,1,0,0,1.33h9.79a.67.67,0,0,0,.67-.66Z"/><path class="cls-4" d="M49.89,56.35a.55.55,0,0,0,.31.08.62.62,0,0,0,.37-.11l5.34-3.56a.67.67,0,0,0,.3-.56.67.67,0,0,0-.3-.55l-5.34-3.56a.69.69,0,0,0-.68,0,.67.67,0,0,0-.36.59v7.13a.63.63,0,0,0,.36.58Zm1-6.46,3.47,2.31-3.47,2.32Z"/><path class="cls-4" d="M50.2,66.23H64.45a.67.67,0,0,0,0-1.34H50.2a.67.67,0,0,0,0,1.34Z"/><path class="cls-4" d="M47.53,68a.67.67,0,0,0,.66-.67V63.78a.67.67,0,1,0-1.33,0v1.11h-2a.67.67,0,0,0,0,1.34h2v1.11a.67.67,0,0,0,.67.67Z"/><path class="cls-4" d="M61.77,71.13H44.85A2.9,2.9,0,0,1,42,68.23V47.53a.66.66,0,0,0-.67-.67.68.68,0,0,0-.67.67v20.7a4.23,4.23,0,0,0,4.23,4.23H61.77a.67.67,0,1,0,0-1.33Z"/><path class="cls-4" d="M41.29,45.17A.67.67,0,0,0,42,44.5V42.19H85.15V58.93a.67.67,0,1,0,1.34,0V38a4.24,4.24,0,0,0-4.23-4.23H44.85A4.24,4.24,0,0,0,40.62,38v6.54a.69.69,0,0,0,.67.68ZM42,38a2.9,2.9,0,0,1,2.89-2.89H82.26A2.9,2.9,0,0,1,85.15,38v2.9H42Z"/></svg>