<svg id="Layer_1" data-name="Layer 1" xmlns="http://www.w3.org/2000/svg" viewBox="0 0 1080 1080"><defs><style>.cls-1{fill:#cecece;opacity:0.3;}.cls-11,.cls-12,.cls-15,.cls-16,.cls-2,.cls-7{fill:none;}.cls-2{stroke:#cdd7f9;}.cls-11,.cls-14,.cls-15,.cls-16,.cls-2{stroke-miterlimit:10;}.cls-2,.cls-7{stroke-dasharray:2.84;}.cls-3{fill:#cdd7f9;}.cls-4{fill:#143c83;}.cls-14,.cls-5{fill:#fff;}.cls-6{fill:#dee3fc;}.cls-11,.cls-12,.cls-14,.cls-15,.cls-16,.cls-7{stroke:#089bcb;}.cls-12,.cls-16,.cls-7{stroke-linecap:round;}.cls-12,.cls-7{stroke-linejoin:round;}.cls-8{fill:#205bb2;}.cls-9{fill:#089bcb;}.cls-10{fill:#b2c1f9;}.cls-11{stroke-width:0.9px;}.cls-12{stroke-width:1.67px;}.cls-13{fill:#f0f4ff;}.cls-14,.cls-15,.cls-16{stroke-width:2px;}.cls-17{fill:#153587;}.cls-18{fill:#2557a0;}.cls-19{fill:#4198c4;}.cls-20{fill:#e49191;}.cls-21{fill:#c17b0a;}.cls-22{fill:#c55f60;}.cls-23{fill:#2b37a5;}.cls-24{fill:#202d74;}.cls-25{fill:#0a2530;}.cls-26{fill:#2e3aaa;}</style></defs><path class="cls-1" d="M438.49,735.58c15,8.3,14.5,22.64-1.13,32s-40.48,10.27-55.49,2-14.5-22.65,1.14-32S423.48,727.27,438.49,735.58Z"/><ellipse id="_Path_" data-name="&lt;Path&gt;" class="cls-1" cx="568.8" cy="723.78" rx="128.59" ry="19.26"/><circle class="cls-2" cx="445.8" cy="385.08" r="62.53"/><path class="cls-3" d="M484.22,385.07a38.41,38.41,0,0,0-1.65-11.15l9.78-8.6-6.16-10.68-12.35,4.18a38.39,38.39,0,0,0-19.31-11.16L452,334.89H439.64l-2.55,12.77a38.45,38.45,0,0,0-19.33,11.16l-12.34-4.18-6.16,10.68,9.78,8.6a38.57,38.57,0,0,0,0,22.32l-9.78,8.59,6.16,10.68,12.34-4.18a38.53,38.53,0,0,0,19.33,11.17l2.55,12.77H452l2.57-12.77a38.47,38.47,0,0,0,19.31-11.17l12.35,4.18,6.16-10.68-9.78-8.59A38.5,38.5,0,0,0,484.22,385.07ZM445.8,405.81a20,20,0,1,1,20-20A20,20,0,0,1,445.8,405.81Z"/><rect class="cls-4" x="468.63" y="366.62" width="188.01" height="363.19" rx="21.35"/><rect class="cls-5" x="472.16" y="369.79" width="180.97" height="354.85" rx="18.7"/><path class="cls-4" d="M645.2,388.93v315a13.38,13.38,0,0,1-13.38,13.38H493.45a13.38,13.38,0,0,1-13.37-13.38v-315a13.38,13.38,0,0,1,13.37-13.38h23.08a3.37,3.37,0,0,1,3,1.87l2.45,4.89a6.61,6.61,0,0,0,5.93,3.67h69.42a6.62,6.62,0,0,0,5.93-3.67l2.45-4.89a3.37,3.37,0,0,1,3-1.87h23.07A13.38,13.38,0,0,1,645.2,388.93Z"/><path class="cls-6" d="M591.77,380.26H535.86a2.35,2.35,0,0,1-2.35-2.36h0a2.35,2.35,0,0,1,2.35-2.35h55.91a2.36,2.36,0,0,1,2.36,2.35h0A2.36,2.36,0,0,1,591.77,380.26Z"/><rect class="cls-7" x="489.97" y="644.72" width="142.11" height="61.63" rx="8.38"/><rect class="cls-7" x="548.83" y="511.84" width="74.49" height="43.27" rx="6.04"/><rect class="cls-8" x="495.14" y="565.5" width="142.68" height="68.97" rx="7.2"/><path class="cls-9" d="M632.09,567.51V621.3a7.59,7.59,0,0,1-7.6,7.59H497.56A7.59,7.59,0,0,1,490,621.3V567.51a7.59,7.59,0,0,1,7.59-7.59H624.49A7.6,7.6,0,0,1,632.09,567.51Z"/><rect class="cls-5" x="496.54" y="575.62" width="47.66" height="47.66" rx="4.86"/><path class="cls-10" d="M583.38,581.65H550.45a1.62,1.62,0,0,1-1.62-1.62h0a1.61,1.61,0,0,1,1.62-1.62h32.93A1.61,1.61,0,0,1,585,580h0A1.62,1.62,0,0,1,583.38,581.65Z"/><path class="cls-10" d="M568.37,588.12H550.45a1.61,1.61,0,0,1-1.62-1.62h0a1.62,1.62,0,0,1,1.62-1.62h17.92A1.63,1.63,0,0,1,570,586.5h0A1.62,1.62,0,0,1,568.37,588.12Z"/><path class="cls-10" d="M623.47,588.12H575a1.62,1.62,0,0,1-1.62-1.62h0a1.63,1.63,0,0,1,1.62-1.62h48.5a1.63,1.63,0,0,1,1.63,1.62h0A1.62,1.62,0,0,1,623.47,588.12Z"/><path class="cls-10" d="M578.18,594.6H550.45a1.62,1.62,0,0,1-1.62-1.62h0a1.61,1.61,0,0,1,1.62-1.62h27.73A1.61,1.61,0,0,1,579.8,593h0A1.62,1.62,0,0,1,578.18,594.6Z"/><path class="cls-10" d="M601.72,594.6H584.29a1.62,1.62,0,0,1-1.62-1.62h0a1.61,1.61,0,0,1,1.62-1.62h17.43a1.62,1.62,0,0,1,1.63,1.62h0A1.63,1.63,0,0,1,601.72,594.6Z"/><path class="cls-10" d="M623.47,594.6H607.42A1.62,1.62,0,0,1,605.8,593h0a1.61,1.61,0,0,1,1.62-1.62h16.05A1.62,1.62,0,0,1,625.1,593h0A1.63,1.63,0,0,1,623.47,594.6Z"/><path class="cls-10" d="M623.47,601.07h-73a1.61,1.61,0,0,1-1.62-1.62h0a1.62,1.62,0,0,1,1.62-1.62h73a1.63,1.63,0,0,1,1.63,1.62h0A1.62,1.62,0,0,1,623.47,601.07Z"/><path class="cls-10" d="M590.64,607.55H550.45a1.62,1.62,0,0,1-1.62-1.63h0a1.62,1.62,0,0,1,1.62-1.62h40.19a1.62,1.62,0,0,1,1.62,1.62h0A1.62,1.62,0,0,1,590.64,607.55Z"/><path class="cls-10" d="M623.47,607.55H597.12a1.62,1.62,0,0,1-1.62-1.63h0a1.62,1.62,0,0,1,1.62-1.62h26.35a1.63,1.63,0,0,1,1.63,1.62h0A1.63,1.63,0,0,1,623.47,607.55Z"/><path class="cls-10" d="M574.06,614H550.45a1.62,1.62,0,0,1-1.62-1.62h0a1.61,1.61,0,0,1,1.62-1.62h23.61a1.61,1.61,0,0,1,1.62,1.62h0A1.62,1.62,0,0,1,574.06,614Z"/><path class="cls-10" d="M604.07,614H580.45a1.63,1.63,0,0,1-1.62-1.62h0a1.62,1.62,0,0,1,1.62-1.62h23.62a1.62,1.62,0,0,1,1.62,1.62h0A1.63,1.63,0,0,1,604.07,614Z"/><path class="cls-10" d="M623.47,614h-13.7a1.63,1.63,0,0,1-1.62-1.62h0a1.62,1.62,0,0,1,1.62-1.62h13.7a1.62,1.62,0,0,1,1.63,1.62h0A1.63,1.63,0,0,1,623.47,614Z"/><path class="cls-10" d="M583.38,620.49H550.45a1.61,1.61,0,0,1-1.62-1.62h0a1.62,1.62,0,0,1,1.62-1.62h32.93a1.62,1.62,0,0,1,1.62,1.62h0A1.61,1.61,0,0,1,583.38,620.49Z"/><path class="cls-10" d="M623.47,581.65H590.54a1.63,1.63,0,0,1-1.62-1.62h0a1.62,1.62,0,0,1,1.62-1.62h32.93A1.62,1.62,0,0,1,625.1,580h0A1.63,1.63,0,0,1,623.47,581.65Z"/><path class="cls-4" d="M632.09,567.51v2.26H490v-2.26a7.59,7.59,0,0,1,7.59-7.59H624.49A7.6,7.6,0,0,1,632.09,567.51Z"/><path class="cls-6" d="M605.3,565a1.76,1.76,0,1,1-1.76-1.76A1.76,1.76,0,0,1,605.3,565Z"/><path class="cls-6" d="M614.31,565a1.77,1.77,0,1,1-1.76-1.76A1.76,1.76,0,0,1,614.31,565Z"/><path class="cls-6" d="M623.31,565a1.76,1.76,0,1,1-1.76-1.76A1.76,1.76,0,0,1,623.31,565Z"/><rect class="cls-11" x="498.29" y="511.88" width="43.23" height="43.23" rx="7.15"/><polyline class="cls-12" points="513.16 527.25 506.93 533.48 513.21 539.75"/><polyline class="cls-12" points="526.65 527.25 532.88 533.48 526.6 539.75"/><line class="cls-12" x1="522.82" y1="527.25" x2="516.99" y2="539.75"/><path class="cls-4" d="M632.09,406.36v87.95a8.64,8.64,0,0,1-8.64,8.64H498.61a8.64,8.64,0,0,1-8.64-8.64V406.36a8.65,8.65,0,0,1,8.64-8.64H623.45A8.64,8.64,0,0,1,632.09,406.36Z"/><circle class="cls-13" cx="603.3" cy="425.51" r="20.6"/><path class="cls-5" d="M573.51,503h-74.9a8.64,8.64,0,0,1-8.64-8.64V480.47l32.78-56.78a4.46,4.46,0,0,1,7.71,0l24.74,42.87,18.38,31.83A4.37,4.37,0,0,1,573.51,503Z"/><path class="cls-13" d="M605.81,503H534.18l21-36.39,11.33-19.62a4,4,0,0,1,6.94,0Z"/><path class="cls-14" d="M723.56,472.41H621.41a10.2,10.2,0,0,1-10.2-10.2h0a10.2,10.2,0,0,1,10.2-10.2H723.56a10.2,10.2,0,0,1,10.2,10.2h0A10.2,10.2,0,0,1,723.56,472.41Z"/><path class="cls-15" d="M722.07,461.51a5.43,5.43,0,1,1-5.43-5.43A5.43,5.43,0,0,1,722.07,461.51Z"/><line class="cls-16" x1="720.48" y1="465.34" x2="723.47" y2="468.34"/><rect class="cls-17" x="599.74" y="313.54" width="34.1" height="34.1" rx="5.63"/><rect class="cls-18" x="597.1" y="310.59" width="34.1" height="34.1" rx="4.51"/><path class="cls-5" d="M607.26,337.82a1.45,1.45,0,0,1-.29,0,1.06,1.06,0,0,1-.73-1.31l5.16-18.25a1.05,1.05,0,1,1,2,.57l-5.16,18.26A1.06,1.06,0,0,1,607.26,337.82Z"/><path class="cls-5" d="M615.88,337.82a1.45,1.45,0,0,1-.29,0,1.06,1.06,0,0,1-.73-1.31L620,318.22a1.05,1.05,0,1,1,2,.57l-5.16,18.26A1.06,1.06,0,0,1,615.88,337.82Z"/><path class="cls-5" d="M623.27,324.55H605a1.06,1.06,0,1,1,0-2.11h18.25a1.06,1.06,0,1,1,0,2.11Z"/><path class="cls-5" d="M623.27,332.89H605a1.06,1.06,0,1,1,0-2.11h18.25a1.06,1.06,0,1,1,0,2.11Z"/><circle class="cls-19" cx="495.96" cy="488.31" r="35.66"/><path class="cls-5" d="M464,486.41l8.14-4.24V484a.67.67,0,0,1-.11.37.75.75,0,0,1-.33.3L468,486.56a4.4,4.4,0,0,1-.5.21l-.56.16.56.16a4.4,4.4,0,0,1,.5.21l3.73,1.92a.8.8,0,0,1,.33.29.7.7,0,0,1,.11.38v1.8L464,487.44Z"/><path class="cls-5" d="M475.85,493.85V478.59h2.54v5.86a5.25,5.25,0,0,1,1.36-.94,3.9,3.9,0,0,1,1.73-.36,3.83,3.83,0,0,1,1.53.29,3.1,3.1,0,0,1,1.12.82,3.78,3.78,0,0,1,.68,1.27,5.44,5.44,0,0,1,.23,1.61v6.71H482.5v-6.71a2.23,2.23,0,0,0-.45-1.49,1.65,1.65,0,0,0-1.34-.53,2.6,2.6,0,0,0-1.23.3,4.53,4.53,0,0,0-1.09.81v7.62Z"/><path class="cls-5" d="M491,494a2.75,2.75,0,0,1-2.1-.78,3,3,0,0,1-.74-2.14v-5.89h-1.07a.49.49,0,0,1-.35-.13.51.51,0,0,1-.15-.4v-1l1.69-.28.54-2.87a.48.48,0,0,1,.19-.32.56.56,0,0,1,.37-.11h1.32v3.31h2.77v1.81h-2.77v5.71a1.13,1.13,0,0,0,.24.77.84.84,0,0,0,.66.28,1.16,1.16,0,0,0,.4-.06,1.69,1.69,0,0,0,.27-.11l.21-.12a.35.35,0,0,1,.19-.06.28.28,0,0,1,.18.06.89.89,0,0,1,.16.17l.76,1.23a3.88,3.88,0,0,1-1.28.7A4.65,4.65,0,0,1,491,494Z"/><path class="cls-5" d="M495.48,493.85V483.31H497a.63.63,0,0,1,.65.46l.16.79a5.27,5.27,0,0,1,.59-.57,3.47,3.47,0,0,1,.64-.44,3.67,3.67,0,0,1,.74-.29,3,3,0,0,1,.87-.11,2.47,2.47,0,0,1,1.64.54,3.18,3.18,0,0,1,1,1.43,3.24,3.24,0,0,1,.61-.9,3.43,3.43,0,0,1,.82-.61,3.65,3.65,0,0,1,.94-.35,4.79,4.79,0,0,1,1-.11,4.16,4.16,0,0,1,1.55.27,2.84,2.84,0,0,1,1.14.78,3.39,3.39,0,0,1,.7,1.25,5.47,5.47,0,0,1,.24,1.69v6.71h-2.53v-6.71a2.21,2.21,0,0,0-.45-1.51,1.6,1.6,0,0,0-1.29-.51,1.88,1.88,0,0,0-.72.13,1.69,1.69,0,0,0-1,1,2.33,2.33,0,0,0-.15.87v6.71h-2.55v-6.71a2.32,2.32,0,0,0-.42-1.54,1.61,1.61,0,0,0-1.26-.48,2,2,0,0,0-1,.27,3.26,3.26,0,0,0-.89.75v7.71Z"/><path class="cls-5" d="M515.48,478.59v15.26h-2.54V478.59Z"/><path class="cls-5" d="M519.34,491.69v-1.8a.8.8,0,0,1,.1-.38.9.9,0,0,1,.34-.29l3.73-1.92a4.69,4.69,0,0,1,1.06-.37l-.56-.16a4.4,4.4,0,0,1-.5-.21l-3.73-1.91a.84.84,0,0,1-.34-.3.76.76,0,0,1-.1-.37v-1.81l8.14,4.24v1Z"/><circle class="cls-19" cx="634.31" cy="534.34" r="26.35"/><path class="cls-5" d="M618.31,539.21l-5.68-3.51v-1.26l5.68-3.5v1.82l-3.93,2.31,3.93,2.33Z"/><path class="cls-5" d="M628.2,530.86a1.66,1.66,0,0,0-1.49,1.11,7.1,7.1,0,0,0-.54,3.07q0,4.1,2.13,4.09a3.94,3.94,0,0,0,2-.59v2a3.92,3.92,0,0,1-2.21.57,3.46,3.46,0,0,1-3-1.59,9.71,9.71,0,0,1,0-8.92,3.5,3.5,0,0,1,3.06-1.61,4.16,4.16,0,0,1,1.23.18,5.09,5.09,0,0,1,1.27.62l-.72,1.78a5.89,5.89,0,0,0-.78-.45A1.91,1.91,0,0,0,628.2,530.86Z"/><path class="cls-5" d="M637.3,537.65a3.53,3.53,0,0,1-.84,2.53,3.12,3.12,0,0,1-2.4.88,5.21,5.21,0,0,1-2.62-.61v-2.16a4.57,4.57,0,0,0,2.43.86,1.22,1.22,0,0,0,.94-.35,1.34,1.34,0,0,0,.32-.94,1.76,1.76,0,0,0-.38-1.08,5.78,5.78,0,0,0-1.25-1.08,5.72,5.72,0,0,1-1.15-1,3.4,3.4,0,0,1-.6-1.07,4.19,4.19,0,0,1-.21-1.39,3.34,3.34,0,0,1,.84-2.4,3,3,0,0,1,2.26-.89,5,5,0,0,1,2.6.76l-.72,1.76a6.09,6.09,0,0,0-.81-.4,2.34,2.34,0,0,0-.91-.18,1,1,0,0,0-.82.35,1.45,1.45,0,0,0-.28.95,1.63,1.63,0,0,0,.34,1,4.89,4.89,0,0,0,1.2,1,5,5,0,0,1,1.6,1.58A3.62,3.62,0,0,1,637.3,537.65Z"/><path class="cls-5" d="M644.12,537.65a3.53,3.53,0,0,1-.84,2.53,3.12,3.12,0,0,1-2.4.88,5.21,5.21,0,0,1-2.62-.61v-2.16a4.57,4.57,0,0,0,2.42.86,1.23,1.23,0,0,0,1-.35,1.34,1.34,0,0,0,.32-.94,1.76,1.76,0,0,0-.38-1.08,5.78,5.78,0,0,0-1.25-1.08,5.72,5.72,0,0,1-1.15-1,3.4,3.4,0,0,1-.6-1.07,4.19,4.19,0,0,1-.21-1.39,3.34,3.34,0,0,1,.84-2.4,3,3,0,0,1,2.26-.89,5,5,0,0,1,2.6.76l-.72,1.76a6.09,6.09,0,0,0-.81-.4,2.34,2.34,0,0,0-.91-.18,1,1,0,0,0-.82.35,1.45,1.45,0,0,0-.28.95,1.63,1.63,0,0,0,.34,1,5,5,0,0,0,1.19,1,5,5,0,0,1,1.61,1.58A3.62,3.62,0,0,1,644.12,537.65Z"/><path class="cls-5" d="M649.46,537.4l3.95-2.33-3.95-2.31v-1.82l5.68,3.5v1.26l-5.68,3.51Z"/><path class="cls-3" d="M422.62,484.94a19.23,19.23,0,0,0,1.87-5.29l6.3-1.52-.23-6.12-6.41-1a19.06,19.06,0,0,0-5.91-9.4l1.84-6.21-5.42-2.86-4.09,5a19.1,19.1,0,0,0-11.09.42l-4.47-4.7-5.19,3.26,2.31,6.06A19.33,19.33,0,0,0,387,472.4l-6.3,1.51.23,6.13,6.41,1a19.11,19.11,0,0,0,5.91,9.4l-1.84,6.21,5.42,2.86,4.09-5a19.19,19.19,0,0,0,11.09-.43l4.47,4.7,5.19-3.27-2.31-6A19.15,19.15,0,0,0,422.62,484.94Zm-21.71.21A9.93,9.93,0,1,1,414.33,481,9.93,9.93,0,0,1,400.91,485.15Z"/><path class="cls-4" d="M413.54,513h47a5.47,5.47,0,0,1,5.46,5.46v11.12a5.45,5.45,0,0,1-4.77,5.41.79.79,0,0,0-.69.79v6.08a.36.36,0,0,1-.66.21l-4.79-6.7a.79.79,0,0,0-.65-.33H413.54a5.46,5.46,0,0,1-5.46-5.46V518.47A5.46,5.46,0,0,1,413.54,513Z"/><path class="cls-6" d="M453.37,524a1.8,1.8,0,1,0,1.8-1.79A1.79,1.79,0,0,0,453.37,524Z"/><path class="cls-6" d="M444.32,524a1.8,1.8,0,1,0,1.79-1.79A1.79,1.79,0,0,0,444.32,524Z"/><path class="cls-6" d="M435.26,524a1.8,1.8,0,1,0,1.8-1.79A1.8,1.8,0,0,0,435.26,524Z"/><path class="cls-6" d="M426.21,524a1.8,1.8,0,1,0,1.8-1.79A1.8,1.8,0,0,0,426.21,524Z"/><path class="cls-6" d="M417.16,524a1.8,1.8,0,1,0,1.8-1.79A1.79,1.79,0,0,0,417.16,524Z"/><path class="cls-20" d="M426.79,581.11a42.63,42.63,0,0,0,1.66-4.75c0-.53-1.08-3.35-1.22-3.9a12.32,12.32,0,0,1,.52-4.57c.45-.62.9-.18,1.08.45a11.09,11.09,0,0,1,.29,2.3c0,.4,1,1.79,1,1.79L435,572l1.74-.16a19.71,19.71,0,0,1-.67,2.47,5.36,5.36,0,0,1-1.56,2c-.49.47-1.79,4-2.21,5.38"/><path class="cls-21" d="M439.36,621.7s-.4,3.49-5.44,3.91c-23.9,2-30.47-6.6-34.16-8.51l31.83-.15S439.14,618.07,439.36,621.7Z"/><path class="cls-20" d="M434.89,637l-12.38.26L406,633.83l-6.9-2.29c1.5-2,3.2-7.61,4.34-11.95.83-3.13,1.37-5.58,1.37-5.58l12.42-1.33,6-.64s7.87-1.1,9.64,3.18a5,5,0,0,1,.34,2.19,59.48,59.48,0,0,0,.22,6.85C433.86,630.44,434.89,637,434.89,637Z"/><path class="cls-22" d="M433.38,624.26s-1.48-2.35-7.73-3.69c-13-2.8-22.23-1-22.23-1,.83-3.13,1.37-5.58,1.37-5.58l12.42-1.33c5.16.63,11.87,1.5,13.87,2a14.36,14.36,0,0,1,1.74.56,5,5,0,0,1,.34,2.19A59.48,59.48,0,0,0,433.38,624.26Z"/><path class="cls-20" d="M392.72,728l-2.32,5.11-.54,1.23-2.07,4.58c-3,.17-6.5-2.14-6.5-2.14l1-4,.64-2.5,1.38-5.37Z"/><path class="cls-22" d="M390.4,733.13l-.54,1.23a17.07,17.07,0,0,1-7.52-1.59l.64-2.5,5.9,1.33Z"/><path class="cls-9" d="M409.66,533.83a29.18,29.18,0,0,1,6.34,1.31s-2.82,17.39-5.62,24.09c-2.25,5.39,2.05,19.87,2.05,19.87l-8.16,5.54S400.46,565,400,560.16,409.66,533.83,409.66,533.83Z"/><path class="cls-20" d="M436,734.17l-.26,1.93-.53,4.15-.5,3.8a12.66,12.66,0,0,1-6.86,0l-.25-3.53-.34-4.84-.1-1.51Z"/><path class="cls-22" d="M435.75,736.1l-.53,4.15a27.59,27.59,0,0,1-7.61.27l-.34-4.84C429.46,735.71,433.92,735.93,435.75,736.1Z"/><path class="cls-23" d="M426.13,746.74a4.77,4.77,0,0,1,2-3.72s1.26-.92,3.73-.06c.79.27,2.18,1.29,2.88,1.09,0,0,1.27,2.58,2.76,5.56a20.82,20.82,0,0,0,2.71,4.53,4.81,4.81,0,0,1,3.45,2.87c.35,1.29.22,1.66-3.45,1.66,0,0-5-1.23-6.4-2.65S426.13,746.74,426.13,746.74Z"/><path class="cls-24" d="M434.24,758.67a4.64,4.64,0,0,1-4-2.28,68.89,68.89,0,0,1-4-7.76c-1.34-4,3.89-3.74,5.16-2.32,1.11,1.23,2.69,4.42,4.13,7.25s2.49,4.53,4.67,5.11Z"/><path class="cls-23" d="M434.89,637l-1-7.36S432,632.06,421.74,631c-8-.85-17.28-3.57-20-5.61-3.5,2.8-7.38,9.18-6.67,18.54.43,5.7.93,11.41.25,17.08-1.36,11.14-2,24.32-2.38,27-5.12,10.79-10.69,43.16-10.69,43.16s4.22,2.62,8.43,2.6c0,0,12.31-25.65,17.37-41.49,1.56-4.89,3.33-10.83,5-17.2s3.34-13.06,4.63-19.54a127.11,127.11,0,0,0,2.62-20c3.77,1,6.54,1.73,6.71,1.7C427.57,637.12,434.89,637,434.89,637Z"/><path class="cls-25" d="M417.71,655.52c-1.29,6.48-2.92,13.21-4.63,19.54A133.17,133.17,0,0,1,407,644S414.59,652.49,417.71,655.52Z"/><path class="cls-23" d="M435.87,739.11a19.19,19.19,0,0,1-8.86-.24s-5.69-35.71-4.5-49c0,0-6.94-18.55-11.59-33-.89-2.76-2.43-8.06-3.06-10.37a22.94,22.94,0,0,1,.79-15L434.89,637c1.08,10.07,4.31,41,4.5,55.32C439.63,709.41,435.87,739.11,435.87,739.11Z"/><path class="cls-9" d="M468.07,530.55s-2.31,24-7,35.74c-2.22,3.67-7.18,8.92-12.15,13.51a32.29,32.29,0,0,0-10.46,23.69c0,3.49.34,10.18.87,18.21-.33-5.2-24.74-3.78-35.83-4.26a30.34,30.34,0,0,1-3.77-.34,153.63,153.63,0,0,0,5.6-20.43c2.5-13,6.67-20.76,12.38-24.13l11.45,3.05s11.1-8.49,22.26-16C456,549.09,461,529.31,461,529.31S465.1,528.41,468.07,530.55Z"/><path class="cls-20" d="M429,575.64a7.65,7.65,0,0,1-6.52-.94c-3.25-2.23.05-6.42.05-6.42h6l-.14,1.11a18.93,18.93,0,0,0,0,2A14.86,14.86,0,0,0,429,575.64Z"/><path class="cls-22" d="M428.42,569.39a18.93,18.93,0,0,0,0,2,9.78,9.78,0,0,1-4.3-1.54s2.23-.53,2.94-1.54h1.51Z"/><path class="cls-20" d="M430.73,551.74a39.24,39.24,0,0,1,3.26,9.74,7.12,7.12,0,0,1-2.85,7,16.64,16.64,0,0,1-2.51,1.49,6.36,6.36,0,0,1-7.26-1.24A19.59,19.59,0,0,1,418,564C413.19,554.83,423.78,544.59,430.73,551.74Z"/><path class="cls-23" d="M388.41,737.56s0,2.64-.17,4.06-1.12,14.14-2.52,15.65a3.56,3.56,0,0,1-3,1.23c-1.63,0-1.57-2.43-3.12-6.31s-.62-10.39-.06-13.82a10.54,10.54,0,0,1,2-2.44,2.92,2.92,0,0,1,2.19-.72c1.17.1,2,.64,3.19,2.31C387.3,737.91,388.09,738.13,388.41,737.56Z"/><path class="cls-24" d="M378.73,739.48a2.89,2.89,0,0,1,3-2.3c1.69.27,3.76,1.31,3.61,4.91s-.31,13.32-.62,14.56c-.71,2.86-3.87,2.1-4.88-.23a33.13,33.13,0,0,1-1.38-8.38A26.15,26.15,0,0,1,378.73,739.48Z"/><path class="cls-20" d="M462.25,529.89s.09-1.49.2-3a6.21,6.21,0,0,0-.61-2.69,12.47,12.47,0,0,1,0-2.46l2-.18a29.83,29.83,0,0,0,1.68-2.79,3,3,0,0,0,.36-1.37,16.67,16.67,0,0,1,.11-2.11c.09-1,.9-1.37,1.21-.17a13.74,13.74,0,0,1,.26,3.2,18.59,18.59,0,0,1-1.05,3.08s3,1.75,3.13,2.33-1.31,2.9-2.39,7.12"/><path class="cls-20" d="M467,515.48s-.31-1.39.32-1.56.84,1,1,1.56.45,2.53.56,3.17-1.38,4.4-1.38,4.4l-1.72-1.52.85-4.37"/><path class="cls-20" d="M468.21,516.33s-.09-1,.4-1.25.76.65.92,1.25.44,2.52.55,3.17-1.38,4.4-1.38,4.4L467,522.38l.85-4.37"/><path class="cls-20" d="M470.09,516.87a7.22,7.22,0,0,0,.2,1.83,3.78,3.78,0,0,1-.5,1.45l-1.12,3.24.55,1.4,1.76-4.08.3-.84a2.73,2.73,0,0,0,.07-1.5C471.1,517.31,470.6,515.67,470.09,516.87Z"/><path class="cls-26" d="M430.06,545.07a7.61,7.61,0,0,0-4-2.94c-4.42-1.11-9,.92-12.06,3.77h0a41.38,41.38,0,0,1-3.31,2.83,16.8,16.8,0,0,0-5,6.25c-2.9,6.51,1.79,12,.6,14s-6,2.38-6.33,6.54,1.53,5.16,0,9.12v0a20.76,20.76,0,0,0-4.47,8.72c-2.26,10.39,8.89,12.9,13.65,10s7.83-1.11,10.2-2.2c8.73-4,4.21-25.36,4.46-30.44.05-.92,0-2,0-3.08A14.66,14.66,0,0,1,428.57,557C431.22,554.47,433,550.22,430.06,545.07Z"/><circle class="cls-2" cx="405.72" cy="476.89" r="34.49"/><path class="cls-3" d="M372,433.08a10.16,10.16,0,0,0,1-2.83l3.38-.81-.13-3.28-3.42-.55a10.23,10.23,0,0,0-3.16-5l1-3.33-2.9-1.53-2.19,2.69a10.22,10.22,0,0,0-5.93.23l-2.39-2.52-2.77,1.75,1.23,3.24a10.26,10.26,0,0,0-1.77,2.42,10.4,10.4,0,0,0-1,2.83l-3.37.81.13,3.28,3.42.55a10.27,10.27,0,0,0,3.16,5l-1,3.33,2.9,1.53,2.19-2.69a10.22,10.22,0,0,0,5.93-.23l2.39,2.51,2.77-1.74-1.24-3.24A10,10,0,0,0,372,433.08Zm-11.62.11a5.31,5.31,0,1,1,7.18-2.22A5.31,5.31,0,0,1,360.41,433.19Z"/><circle class="cls-2" cx="362.99" cy="428.77" r="18.44"/></svg>