<svg id="Layer_1" data-name="Layer 1" xmlns="http://www.w3.org/2000/svg" xmlns:xlink="http://www.w3.org/1999/xlink" viewBox="0 0 24 24"><defs><style>.cls-1{fill:url(#linear-gradient);}.cls-2{fill:url(#linear-gradient-2);}.cls-3{fill:url(#linear-gradient-3);}.cls-4{fill:url(#linear-gradient-4);}.cls-5{fill:url(#linear-gradient-5);}</style><linearGradient id="linear-gradient" x1="15.73" y1="11.8" x2="23" y2="11.8" gradientUnits="userSpaceOnUse"><stop offset="0" stop-color="#283376"/><stop offset="1" stop-color="#1c67a6"/></linearGradient><linearGradient id="linear-gradient-2" x1="1.43" y1="11.8" x2="8.71" y2="11.8" xlink:href="#linear-gradient"/><linearGradient id="linear-gradient-3" x1="9" y1="18.85" x2="15.29" y2="18.85" xlink:href="#linear-gradient"/><linearGradient id="linear-gradient-4" x1="9" y1="4.56" x2="15.29" y2="4.56" xlink:href="#linear-gradient"/><linearGradient id="linear-gradient-5" x1="9.82" y1="11.8" x2="14.81" y2="11.8" xlink:href="#linear-gradient"/></defs><path class="cls-1" d="M19.6,13.11H16c-.22,0-.31-.09-.31-.31v-2a.26.26,0,0,1,.3-.3H19.6V9a.25.25,0,0,1,.15-.27.26.26,0,0,1,.31.08L21.9,10.6l1,1a.26.26,0,0,1,0,.43l-2.74,2.73-.12.13a.26.26,0,0,1-.28,0,.25.25,0,0,1-.15-.24V13.11Z"/><path class="cls-2" d="M4.83,13.11H8.39c.22,0,.32-.09.32-.31v-2c0-.2-.1-.3-.31-.3H4.83v-.08c0-.49,0-1,0-1.47a.26.26,0,0,0-.16-.27.26.26,0,0,0-.31.08C3.76,9.38,3.15,10,2.53,10.6l-1,1a.26.26,0,0,0,0,.43l2.73,2.73.12.13a.26.26,0,0,0,.28,0,.25.25,0,0,0,.15-.24V13.11Z"/><path class="cls-3" d="M10.84,19.09V15.53c0-.22.09-.31.31-.32h2c.2,0,.3.1.3.31v3.57H15a.27.27,0,0,1,.27.16.26.26,0,0,1-.08.31c-.62.61-1.23,1.22-1.84,1.84l-1,1a.26.26,0,0,1-.43,0L9.2,19.64l-.13-.12A.26.26,0,0,1,9,19.24a.25.25,0,0,1,.24-.15h1.58Z"/><path class="cls-4" d="M10.84,4.32V7.88c0,.22.09.31.31.31h2a.26.26,0,0,0,.3-.3V4.32H15a.25.25,0,0,0,.27-.15.26.26,0,0,0-.08-.31L13.35,2l-1-1a.26.26,0,0,0-.43,0L9.2,3.77l-.13.12A.26.26,0,0,0,9,4.17a.25.25,0,0,0,.24.15h1.58Z"/><path class="cls-5" d="M12.32,14.3a2.5,2.5,0,1,1,2.49-2.5A2.5,2.5,0,0,1,12.32,14.3Zm0-4.14A1.65,1.65,0,1,0,14,11.8,1.65,1.65,0,0,0,12.32,10.16Z"/></svg>