<svg id="Layer_1" data-name="Layer 1" xmlns="http://www.w3.org/2000/svg" xmlns:xlink="http://www.w3.org/1999/xlink" viewBox="0 0 24 24"><defs><style>.cls-1{fill:url(#linear-gradient);}.cls-2{fill:url(#linear-gradient-2);}.cls-3{fill:url(#linear-gradient-3);}.cls-4{fill:url(#linear-gradient-4);}</style><linearGradient id="linear-gradient" x1="7.06" y1="9.26" x2="21.79" y2="9.26" gradientUnits="userSpaceOnUse"><stop offset="0" stop-color="#283376"/><stop offset="1" stop-color="#1c67a6"/></linearGradient><linearGradient id="linear-gradient-2" x1="2.15" y1="14.61" x2="20" y2="14.61" xlink:href="#linear-gradient"/><linearGradient id="linear-gradient-3" x1="3.93" y1="16.85" x2="6.16" y2="16.85" xlink:href="#linear-gradient"/><linearGradient id="linear-gradient-4" x1="3.95" y1="14.39" x2="4.81" y2="14.39" xlink:href="#linear-gradient"/></defs><path class="cls-1" d="M20.3,1l.09,0a1.67,1.67,0,0,1,1.32,1.2A1.66,1.66,0,0,1,21.27,4L18.64,6.61l-3.05,3a1.28,1.28,0,0,1-.47.29c-.81.28-1.62.55-2.44.81a1.62,1.62,0,0,1-.44.07H8.87a.89.89,0,1,0,0,1.78h5.25a1.76,1.76,0,0,1,1.8,1.33,4.36,4.36,0,0,1,.06.81.25.25,0,0,0,.15.24,1.3,1.3,0,0,1,.71,1.49,1.33,1.33,0,0,1-1.3,1,1.35,1.35,0,0,1-1.3-1,1.32,1.32,0,0,1,.7-1.51.23.23,0,0,0,.16-.27,1.76,1.76,0,0,1,0-.23.9.9,0,0,0-1-1H8.94a1.79,1.79,0,1,1,0-3.58h3c.18,0,.26,0,.31-.21.22-.7.45-1.39.69-2.08a1.41,1.41,0,0,1,.26-.42l5.42-5.43A2.47,2.47,0,0,1,19.79,1ZM15.14,8.79l4.23-4.23-.26-.26L17.36,6.07l-.67-.65,1.77-1.76-.24-.25L14,7.64l.3.28,1.78-1.79.64.61L14.9,8.53Zm4.92-4.87c.21-.21.42-.4.62-.62a.83.83,0,0,0,0-1.1A.8.8,0,0,0,19.62,2a7.25,7.25,0,0,0-.76.7ZM13.52,8.47l-.4,1.2,1.2-.4Zm2,8.14a.45.45,0,0,0,.45-.45.46.46,0,0,0-.44-.43.44.44,0,0,0-.45.43A.43.43,0,0,0,15.54,16.61Z"/><path class="cls-2" d="M19.11,6.81h.51A.44.44,0,0,1,20,7.2a1.47,1.47,0,0,1,0,.21V18.26a1.35,1.35,0,0,1-1.48,1.48H14.21v1.78h.88v.89h-8v-.88h.86V19.74H3.59a1.35,1.35,0,0,1-1.44-1.43V8.25A1.34,1.34,0,0,1,3.59,6.81H12v.89H3.64c-.45,0-.59.14-.59.59v10c0,.45.14.59.6.59H18.5c.47,0,.61-.15.61-.62V6.81ZM13.3,19.75H8.86V21.5H13.3Z"/><path class="cls-3" d="M6.16,17.06V18a4.13,4.13,0,0,1-1.36-.09A1.26,1.26,0,0,1,4,16.77c0-.34,0-.68,0-1h.88v.76c0,.4.16.56.56.56Z"/><path class="cls-4" d="M4.81,14.82H4V14h.86Z"/></svg>