<svg xmlns="http://www.w3.org/2000/svg" xmlns:xlink="http://www.w3.org/1999/xlink" viewBox="0 0 1080 1080"><defs><style>.cls-1,.cls-27,.cls-50,.cls-69,.cls-82{fill:none;}.cls-2{isolation:isolate;}.cls-3{fill:url(#Áåçûìÿííûé_ãðàäèåíò_18);}.cls-100,.cls-4,.cls-99{fill:#fff;}.cls-5{fill:url(#Áåçûìÿííûé_ãðàäèåíò_18-2);}.cls-6{fill:url(#Áåçûìÿííûé_ãðàäèåíò_18-3);}.cls-7{fill:url(#linear-gradient);}.cls-10,.cls-100,.cls-24,.cls-25,.cls-26,.cls-8,.cls-87,.cls-88,.cls-89,.cls-9,.cls-93{opacity:0.48;}.cls-8{fill:url(#Áåçûìÿííûé_ãðàäèåíò_15);}.cls-9{fill:url(#Áåçûìÿííûé_ãðàäèåíò_15-2);}.cls-10{fill:url(#Áåçûìÿííûé_ãðàäèåíò_15-3);}.cls-11,.cls-14,.cls-16,.cls-17{opacity:0.05;}.cls-11{fill:url(#linear-gradient-2);}.cls-12{fill:url(#Áåçûìÿííûé_ãðàäèåíò_18-4);}.cls-13,.cls-46,.cls-66,.cls-92{opacity:0.5;}.cls-13{fill:url(#Áåçûìÿííûé_ãðàäèåíò_15-4);}.cls-14{fill:url(#linear-gradient-3);}.cls-15{fill:#bcbeff;}.cls-16{fill:url(#linear-gradient-4);}.cls-18{fill:url(#linear-gradient-5);}.cls-19{fill:url(#linear-gradient-6);}.cls-20{fill:#0b2f63;}.cls-21{fill:url(#Áåçûìÿííûé_ãðàäèåíò_18-5);}.cls-22{fill:url(#Áåçûìÿííûé_ãðàäèåíò_18-6);}.cls-23{fill:url(#Áåçûìÿííûé_ãðàäèåíò_18-7);}.cls-24{fill:url(#Áåçûìÿííûé_ãðàäèåíò_15-5);}.cls-25{fill:url(#Áåçûìÿííûé_ãðàäèåíò_15-6);}.cls-26{fill:url(#Áåçûìÿííûé_ãðàäèåíò_15-7);}.cls-27,.cls-50,.cls-69,.cls-82{stroke-miterlimit:10;stroke-width:2px;}.cls-27{stroke:url(#linear-gradient-7);}.cls-28{fill:url(#Áåçûìÿííûé_ãðàäèåíò_42);}.cls-29,.cls-65{fill:#0f054c;}.cls-29,.cls-64{opacity:0.3;}.cls-30,.cls-31,.cls-69{opacity:0.2;}.cls-30{fill:url(#linear-gradient-8);}.cls-31{fill:url(#linear-gradient-9);}.cls-32{fill:url(#linear-gradient-10);}.cls-33{fill:url(#linear-gradient-11);}.cls-34{fill:#143c83;opacity:0.63;}.cls-35{fill:url(#Áåçûìÿííûé_ãðàäèåíò_2);}.cls-36{fill:url(#Áåçûìÿííûé_ãðàäèåíò_24);}.cls-37{fill:#24126a;}.cls-38{opacity:0.51;}.cls-39{fill:#453c9e;}.cls-40{fill:url(#Áåçûìÿííûé_ãðàäèåíò_24-2);}.cls-41{fill:url(#linear-gradient-12);}.cls-42{opacity:0.15;}.cls-43{clip-path:url(#clip-path);}.cls-44{fill:url(#Áåçûìÿííûé_ãðàäèåíò_24-3);}.cls-45{fill:url(#Áåçûìÿííûé_ãðàäèåíò_2-2);}.cls-47{opacity:0.8;}.cls-48{fill:#42e8e0;}.cls-49{fill:url(#linear-gradient-13);}.cls-50{stroke:url(#linear-gradient-14);}.cls-51{fill:url(#linear-gradient-15);}.cls-52{fill:url(#linear-gradient-16);}.cls-53{fill:url(#Áåçûìÿííûé_ãðàäèåíò_43);}.cls-54{fill:url(#radial-gradient);}.cls-55{fill:url(#Áåçûìÿííûé_ãðàäèåíò_67);}.cls-56{fill:url(#linear-gradient-17);}.cls-57{fill:url(#linear-gradient-18);}.cls-58{fill:url(#linear-gradient-19);}.cls-59{fill:url(#linear-gradient-20);}.cls-60{fill:url(#Áåçûìÿííûé_ãðàäèåíò_6);}.cls-61{clip-path:url(#clip-path-2);}.cls-62{fill:url(#Áåçûìÿííûé_ãðàäèåíò_55);}.cls-63{fill:url(#Áåçûìÿííûé_ãðàäèåíò_6-2);}.cls-66{mix-blend-mode:lighten;fill:url(#Áåçûìÿííûé_ãðàäèåíò_56);}.cls-67{fill:#27adff;opacity:0.4;}.cls-68{fill:url(#Áåçûìÿííûé_ãðàäèåíò_43-2);}.cls-69{stroke:url(#linear-gradient-21);}.cls-70{fill:url(#linear-gradient-22);}.cls-71{fill:url(#linear-gradient-23);}.cls-72{fill:url(#radial-gradient-2);}.cls-73{fill:url(#Áåçûìÿííûé_ãðàäèåíò_67-2);}.cls-74{fill:url(#linear-gradient-24);}.cls-75{fill:url(#linear-gradient-25);}.cls-76{fill:url(#linear-gradient-26);}.cls-77{fill:url(#linear-gradient-27);}.cls-78{fill:url(#Áåçûìÿííûé_ãðàäèåíò_6-3);}.cls-79{clip-path:url(#clip-path-3);}.cls-80{fill:url(#Áåçûìÿííûé_ãðàäèåíò_55-2);}.cls-81{fill:url(#Áåçûìÿííûé_ãðàäèåíò_6-4);}.cls-82{stroke:url(#linear-gradient-28);}.cls-83{fill:url(#Áåçûìÿííûé_ãðàäèåíò_18-8);}.cls-84{fill:url(#Áåçûìÿííûé_ãðàäèåíò_18-9);}.cls-85{fill:url(#Áåçûìÿííûé_ãðàäèåíò_18-10);}.cls-86{fill:url(#linear-gradient-29);}.cls-87{fill:url(#Áåçûìÿííûé_ãðàäèåíò_15-8);}.cls-88{fill:url(#Áåçûìÿííûé_ãðàäèåíò_15-9);}.cls-89{fill:url(#Áåçûìÿííûé_ãðàäèåíò_15-10);}.cls-90{fill:url(#linear-gradient-30);}.cls-91{fill:url(#Áåçûìÿííûé_ãðàäèåíò_18-11);}.cls-92{fill:url(#Áåçûìÿííûé_ãðàäèåíò_15-11);}.cls-93{fill:url(#linear-gradient-31);}.cls-94{fill:url(#linear-gradient-32);}.cls-95{fill:url(#linear-gradient-33);}.cls-96{fill:url(#linear-gradient-34);}.cls-97{fill:url(#linear-gradient-35);}.cls-98,.cls-99{opacity:0.31;}.cls-100,.cls-98,.cls-99{mix-blend-mode:multiply;}.cls-98{fill:url(#linear-gradient-36);}</style><linearGradient id="Áåçûìÿííûé_ãðàäèåíò_18" x1="-5530.91" y1="-4176.81" x2="-5518.91" y2="-4176.81" gradientTransform="matrix(0, -1, -1, 0.58, -3554.32, -2646)" gradientUnits="userSpaceOnUse"><stop offset="0" stop-color="#5761d7"/><stop offset="0.16" stop-color="#5e67da"/><stop offset="0.41" stop-color="#727ae2"/><stop offset="0.69" stop-color="#9297ee"/><stop offset="1" stop-color="#bcbeff"/></linearGradient><linearGradient id="Áåçûìÿííûé_ãðàäèåíò_18-2" x1="-5516.64" y1="-4164.45" x2="-5504.64" y2="-4164.45" xlink:href="#Áåçûìÿííûé_ãðàäèåíò_18"/><linearGradient id="Áåçûìÿííûé_ãðàäèåíò_18-3" x1="-5502.12" y1="-4151.88" x2="-5490.13" y2="-4151.88" xlink:href="#Áåçûìÿííûé_ãðàäèåíò_18"/><linearGradient id="linear-gradient" x1="574.44" y1="455.47" x2="665.63" y2="455.47" gradientUnits="userSpaceOnUse"><stop offset="0" stop-color="#143c83"/><stop offset="1" stop-color="#089bcb"/></linearGradient><linearGradient id="Áåçûìÿííûé_ãðàäèåíò_15" x1="-867.73" y1="-4631.97" x2="-853.04" y2="-4631.97" gradientTransform="matrix(0.5, -0.87, -0.87, -0.5, -2957.33, -2594.03)" gradientUnits="userSpaceOnUse"><stop offset="0" stop-color="#42e8e0"/><stop offset="0.15" stop-color="#43e3e0"/><stop offset="0.33" stop-color="#45d5df"/><stop offset="0.52" stop-color="#49bddd"/><stop offset="0.72" stop-color="#4e9cdb"/><stop offset="0.93" stop-color="#5472d8"/><stop offset="1" stop-color="#5761d7"/></linearGradient><linearGradient id="Áåçûìÿííûé_ãðàäèåíò_15-2" x1="-867.73" y1="-4617.7" x2="-853.04" y2="-4617.7" xlink:href="#Áåçûìÿííûé_ãðàäèåíò_15"/><linearGradient id="Áåçûìÿííûé_ãðàäèåíò_15-3" x1="-867.73" y1="-4603.18" x2="-853.04" y2="-4603.18" xlink:href="#Áåçûìÿííûé_ãðàäèåíò_15"/><linearGradient id="linear-gradient-2" x1="-913.11" y1="-4694.74" x2="-818.2" y2="-4749.76" gradientTransform="matrix(0.5, -0.87, -0.87, -0.5, -2957.33, -2594.03)" gradientUnits="userSpaceOnUse"><stop offset="0" stop-color="#4198c4"/><stop offset="0.01" stop-color="#4198c4"/><stop offset="0.42" stop-color="#3490e4"/><stop offset="0.76" stop-color="#2c8cf8"/><stop offset="1" stop-color="#298aff"/></linearGradient><linearGradient id="Áåçûìÿííûé_ãðàäèåíò_18-4" x1="-809.04" y1="-4743.53" x2="-894.49" y2="-4680.97" gradientTransform="matrix(0.5, -0.87, -0.87, -0.5, -2957.33, -2594.03)" xlink:href="#Áåçûìÿííûé_ãðàäèåíò_18"/><linearGradient id="Áåçûìÿííûé_ãðàäèåíò_15-4" x1="-891.04" y1="-4717.32" x2="-823.89" y2="-4717.32" gradientTransform="matrix(0.5, -0.87, -0.87, -0.5, -2951.48, -2600.94)" xlink:href="#Áåçûìÿííûé_ãðàäèåíò_15"/><linearGradient id="linear-gradient-3" x1="-893.96" y1="-4718.9" x2="-826.81" y2="-4718.9" gradientTransform="matrix(0.5, -0.87, -0.87, -0.5, -2951.48, -2600.94)" gradientUnits="userSpaceOnUse"><stop offset="0" stop-color="#42e8e0"/><stop offset="0.2" stop-color="#42e3de"/><stop offset="0.44" stop-color="#42d5d9"/><stop offset="0.7" stop-color="#41bdd1"/><stop offset="0.97" stop-color="#419cc5"/><stop offset="1" stop-color="#4198c4"/></linearGradient><linearGradient id="linear-gradient-4" x1="643.95" y1="496.76" x2="768.21" y2="496.76" xlink:href="#linear-gradient"/><linearGradient id="linear-gradient-5" x1="644.95" y1="510.99" x2="768.2" y2="510.99" gradientUnits="userSpaceOnUse"><stop offset="0" stop-color="#42e8e0"/><stop offset="0.19" stop-color="#41e3e2"/><stop offset="0.4" stop-color="#3dd5e6"/><stop offset="0.64" stop-color="#37bdee"/><stop offset="0.88" stop-color="#2e9cf9"/><stop offset="1" stop-color="#298aff"/></linearGradient><linearGradient id="linear-gradient-6" x1="658.29" y1="484.98" x2="752.52" y2="484.98" xlink:href="#linear-gradient-5"/><linearGradient id="Áåçûìÿííûé_ãðàäèåíò_18-5" x1="-5545.13" y1="-4168.15" x2="-5530.94" y2="-4168.15" xlink:href="#Áåçûìÿííûé_ãðàäèåíò_18"/><linearGradient id="Áåçûìÿííûé_ãðàäèåíò_18-6" x1="-5528.26" y1="-4153.54" x2="-5514.07" y2="-4153.54" xlink:href="#Áåçûìÿííûé_ãðàäèåíò_18"/><linearGradient id="Áåçûìÿííûé_ãðàäèåíò_18-7" x1="-5511.09" y1="-4138.67" x2="-5496.91" y2="-4138.67" xlink:href="#Áåçûìÿííûé_ãðàäèåíò_18"/><linearGradient id="Áåçûìÿííûé_ãðàäèåíò_15-5" x1="-889.09" y1="-4633.82" x2="-871.72" y2="-4633.82" xlink:href="#Áåçûìÿííûé_ãðàäèåíò_15"/><linearGradient id="Áåçûìÿííûé_ãðàäèåíò_15-6" x1="-889.09" y1="-4616.95" x2="-871.72" y2="-4616.95" xlink:href="#Áåçûìÿííûé_ãðàäèåíò_15"/><linearGradient id="Áåçûìÿííûé_ãðàäèåíò_15-7" x1="-889.09" y1="-4599.79" x2="-871.72" y2="-4599.79" xlink:href="#Áåçûìÿííûé_ãðàäèåíò_15"/><linearGradient id="linear-gradient-7" x1="298.81" y1="640.69" x2="667.22" y2="640.69" gradientUnits="userSpaceOnUse"><stop offset="0" stop-color="#089bcb"/><stop offset="1" stop-color="#143c83"/></linearGradient><radialGradient id="Áåçûìÿííûé_ãðàäèåíò_42" cx="-2407.7" cy="-3149.3" r="109.31" gradientTransform="matrix(0.51, -0.86, -0.86, -0.51, -1115.79, -3019.76)" gradientUnits="userSpaceOnUse"><stop offset="0" stop-color="#e9e9fd"/><stop offset="0.36" stop-color="#d3d2f9"/><stop offset="0.71" stop-color="#c5c4f7"/><stop offset="1" stop-color="#c0bff6"/></radialGradient><linearGradient id="linear-gradient-8" x1="334.23" y1="529.97" x2="361.34" y2="529.97" xlink:href="#linear-gradient"/><linearGradient id="linear-gradient-9" x1="343.69" y1="532.79" x2="364.82" y2="532.79" xlink:href="#linear-gradient-7"/><linearGradient id="linear-gradient-10" x1="658.97" y1="627.09" x2="293.32" y2="627.09" gradientUnits="userSpaceOnUse"><stop offset="0" stop-color="#0b2f63"/><stop offset="0.14" stop-color="#0c3268"/><stop offset="0.3" stop-color="#0f3a76"/><stop offset="0.48" stop-color="#13488e"/><stop offset="0.66" stop-color="#1a5baf"/><stop offset="0.85" stop-color="#2274d9"/><stop offset="1" stop-color="#298aff"/></linearGradient><linearGradient id="linear-gradient-11" x1="-7148.19" y1="618.58" x2="-6782.54" y2="618.58" gradientTransform="matrix(-1, 0, 0, 1, -6605.23, 0)" gradientUnits="userSpaceOnUse"><stop offset="0" stop-color="#4198c4"/><stop offset="0.13" stop-color="#469ac6"/><stop offset="0.29" stop-color="#54a1cb"/><stop offset="0.46" stop-color="#6cadd3"/><stop offset="0.64" stop-color="#8dbdde"/><stop offset="0.82" stop-color="#b7d1ec"/><stop offset="1" stop-color="#e9e9fd"/></linearGradient><linearGradient id="Áåçûìÿííûé_ãðàäèåíò_2" x1="-7305.66" y1="458.18" x2="-7046.89" y2="458.18" gradientTransform="matrix(-1, 0, 0, 1, -6605.23, 0)" gradientUnits="userSpaceOnUse"><stop offset="0" stop-color="#c0bff6"/><stop offset="0.29" stop-color="#c5c4f7"/><stop offset="0.64" stop-color="#d3d2f9"/><stop offset="1" stop-color="#e9e9fd"/></linearGradient><linearGradient id="Áåçûìÿííûé_ãðàäèåíò_24" x1="-7305.65" y1="524.54" x2="-7261.22" y2="524.54" gradientTransform="matrix(-1, 0, 0, 1, -6605.23, 0)" gradientUnits="userSpaceOnUse"><stop offset="0" stop-color="#5761d7"/><stop offset="0.18" stop-color="#5c66d9"/><stop offset="0.39" stop-color="#6a73df"/><stop offset="0.61" stop-color="#8289e8"/><stop offset="0.85" stop-color="#a3a7f5"/><stop offset="1" stop-color="#bcbeff"/></linearGradient><linearGradient id="Áåçûìÿííûé_ãðàäèåíò_24-2" x1="-7270.99" y1="596.94" x2="-6905.53" y2="596.94" xlink:href="#Áåçûìÿííûé_ãðàäèåíò_24"/><linearGradient id="linear-gradient-12" x1="-7148.19" y1="586.95" x2="-6782.54" y2="586.95" gradientTransform="matrix(-1, 0, 0, 1, -6605.23, 0)" gradientUnits="userSpaceOnUse"><stop offset="0" stop-color="#089bcb"/><stop offset="0.11" stop-color="#0d9dcc"/><stop offset="0.25" stop-color="#1ba2cf"/><stop offset="0.39" stop-color="#33aad5"/><stop offset="0.54" stop-color="#54b5dc"/><stop offset="0.69" stop-color="#7fc4e5"/><stop offset="0.85" stop-color="#b2d6f1"/><stop offset="1" stop-color="#e9e9fd"/></linearGradient><clipPath id="clip-path"><polygon class="cls-1" points="694.26 440.3 469.21 310.43 440.94 478.55 665.84 608.34 694.26 440.3"/></clipPath><linearGradient id="Áåçûìÿííûé_ãðàäèåíò_24-3" x1="-7411.52" y1="516.51" x2="-7046.06" y2="516.51" xlink:href="#Áåçûìÿííûé_ãðàäèåíò_24"/><linearGradient id="Áåçûìÿííûé_ãðàäèåíò_2-2" x1="-7288.72" y1="506.52" x2="-6923.07" y2="506.52" xlink:href="#Áåçûìÿííûé_ãðàäèåíò_2"/><linearGradient id="linear-gradient-13" x1="374.14" y1="355.72" x2="423.47" y2="355.72" gradientTransform="translate(231.3 -151.75) rotate(30)" xlink:href="#linear-gradient-7"/><linearGradient id="linear-gradient-14" x1="359.09" y1="363.46" x2="411.02" y2="363.46" xlink:href="#linear-gradient-7"/><linearGradient id="linear-gradient-15" x1="109.09" y1="975.03" x2="134.06" y2="975.03" gradientTransform="matrix(1, 0.03, -0.03, 1, 255.17, -538.63)" xlink:href="#linear-gradient-7"/><linearGradient id="linear-gradient-16" x1="64.69" y1="977.84" x2="143.97" y2="977.84" gradientTransform="matrix(1, 0.03, -0.03, 1, 255.17, -538.63)" xlink:href="#linear-gradient-7"/><linearGradient id="Áåçûìÿííûé_ãðàäèåíò_43" x1="339.39" y1="448.17" x2="344.99" y2="448.17" gradientUnits="userSpaceOnUse"><stop offset="0" stop-color="#bcbeff"/><stop offset="0.23" stop-color="#aaadf8"/><stop offset="0.68" stop-color="#7c83e5"/><stop offset="1" stop-color="#5761d7"/></linearGradient><radialGradient id="radial-gradient" cx="89.09" cy="878.89" r="87.27" gradientTransform="matrix(1, 0.03, -0.03, 1, 255.17, -538.63)" gradientUnits="userSpaceOnUse"><stop offset="0" stop-color="#e9e9fd"/><stop offset="0.13" stop-color="#bfdcfd" stop-opacity="0.87"/><stop offset="0.29" stop-color="#91cefe" stop-opacity="0.73"/><stop offset="0.45" stop-color="#6bc2fe" stop-opacity="0.61"/><stop offset="0.6" stop-color="#4db9ff" stop-opacity="0.52"/><stop offset="0.75" stop-color="#38b2ff" stop-opacity="0.45"/><stop offset="0.89" stop-color="#2baeff" stop-opacity="0.41"/><stop offset="1" stop-color="#27adff" stop-opacity="0.4"/></radialGradient><radialGradient id="Áåçûìÿííûé_ãðàäèåíò_67" cx="521.48" cy="-636.04" r="25" gradientTransform="matrix(0.5, 0.87, -0.5, 0.87, -247.14, 491.65)" gradientUnits="userSpaceOnUse"><stop offset="0" stop-color="#f9636b"/><stop offset="1" stop-color="#b6246e"/></radialGradient><linearGradient id="linear-gradient-17" x1="53.14" y1="896.39" x2="95.96" y2="982.09" gradientTransform="matrix(1, 0.03, -0.03, 1, 255.17, -538.63)" xlink:href="#linear-gradient"/><linearGradient id="linear-gradient-18" x1="277.72" y1="429.01" x2="353.26" y2="429.01" xlink:href="#linear-gradient-7"/><linearGradient id="linear-gradient-19" x1="230.87" y1="387.18" x2="294.67" y2="474.85" gradientUnits="userSpaceOnUse"><stop offset="0" stop-color="#e9e9fd"/><stop offset="0.12" stop-color="#bcc8e6"/><stop offset="0.29" stop-color="#89a3cc"/><stop offset="0.45" stop-color="#5e84b6"/><stop offset="0.6" stop-color="#3d6ba5"/><stop offset="0.75" stop-color="#255a99"/><stop offset="0.88" stop-color="#175092"/><stop offset="1" stop-color="#124c8f"/></linearGradient><linearGradient id="linear-gradient-20" x1="-17.74" y1="969.78" x2="68.54" y2="969.78" gradientTransform="translate(716.78 -421.08) rotate(30)" xlink:href="#linear-gradient-19"/><radialGradient id="Áåçûìÿííûé_ãðàäèåíò_6" cx="46.65" cy="1000.66" r="98.52" gradientTransform="matrix(0.87, 0.5, -0.5, 0.87, 716.78, -421.08)" xlink:href="#Áåçûìÿííûé_ãðàäèåíò_43"/><clipPath id="clip-path-2"><ellipse class="cls-1" cx="253.89" cy="431.46" rx="30.9" ry="53.53" transform="translate(-174.77 172.87) rotate(-28.42)"/></clipPath><linearGradient id="Áåçûìÿííûé_ãðàäèåíò_55" x1="248.48" y1="411.22" x2="318.75" y2="411.22" gradientTransform="matrix(1, 0, 0, 1, 0, 0)" xlink:href="#Áåçûìÿííûé_ãðàäèåíò_42"/><radialGradient id="Áåçûìÿííûé_ãðàäèåíò_6-2" cx="233.72" cy="416.93" r="56.22" xlink:href="#Áåçûìÿííûé_ãðàäèåíò_43"/><linearGradient id="Áåçûìÿííûé_ãðàäèåíò_56" x1="497.45" y1="411.65" x2="727.68" y2="548.96" gradientUnits="userSpaceOnUse"><stop offset="0" stop-color="#42e8e0"/><stop offset="0.11" stop-color="#37b6bf"/><stop offset="0.22" stop-color="#2c87a1"/><stop offset="0.34" stop-color="#235f87"/><stop offset="0.46" stop-color="#1c3f72"/><stop offset="0.58" stop-color="#162561"/><stop offset="0.71" stop-color="#121355"/><stop offset="0.85" stop-color="#10084e"/><stop offset="1" stop-color="#0f054c"/></linearGradient><linearGradient id="Áåçûìÿííûé_ãðàäèåíò_43-2" x1="625.83" y1="782.1" x2="630.32" y2="782.1" gradientTransform="translate(-46.18 37.96) rotate(-3.56)" xlink:href="#Áåçûìÿííûé_ãðàäèåíò_43"/><linearGradient id="linear-gradient-21" x1="641.42" y1="714.23" x2="683.42" y2="714.23" gradientTransform="translate(-46.18 37.96) rotate(-3.56)" xlink:href="#linear-gradient-7"/><linearGradient id="linear-gradient-22" x1="405.06" y1="1302.78" x2="425.07" y2="1302.78" gradientTransform="translate(175.07 -515.47) rotate(-1.98)" xlink:href="#linear-gradient-7"/><linearGradient id="linear-gradient-23" x1="369.49" y1="1305.03" x2="433.01" y2="1305.03" gradientTransform="translate(175.07 -515.47) rotate(-1.98)" xlink:href="#linear-gradient-7"/><radialGradient id="radial-gradient-2" cx="389.04" cy="1225.75" r="69.92" gradientTransform="translate(175.07 -515.47) rotate(-1.98)" xlink:href="#radial-gradient"/><radialGradient id="Áåçûìÿííûé_ãðàäèåíò_67-2" cx="864.88" cy="-470.76" r="20.03" gradientTransform="matrix(0.5, 0.87, -0.5, 0.87, -49.79, 394.23)" xlink:href="#Áåçûìÿííûé_ãðàäèåíò_67"/><linearGradient id="linear-gradient-24" x1="360.24" y1="1239.77" x2="394.54" y2="1308.43" gradientTransform="translate(175.07 -515.47) rotate(-1.98)" xlink:href="#linear-gradient"/><linearGradient id="linear-gradient-25" x1="576.43" y1="766.75" x2="636.95" y2="766.75" gradientTransform="translate(-46.18 37.96) rotate(-3.56)" xlink:href="#linear-gradient-7"/><linearGradient id="linear-gradient-26" x1="538.89" y1="733.24" x2="590.01" y2="803.48" gradientTransform="translate(-46.18 37.96) rotate(-3.56)" xlink:href="#linear-gradient-19"/><linearGradient id="linear-gradient-27" x1="303.45" y1="1298.57" x2="372.58" y2="1298.57" gradientTransform="matrix(0.87, 0.5, -0.5, 0.87, 914.35, -522.98)" xlink:href="#linear-gradient-19"/><radialGradient id="Áåçûìÿííûé_ãðàäèåíò_6-3" cx="355.04" cy="1323.31" r="78.93" gradientTransform="translate(914.35 -522.98) rotate(30)" xlink:href="#Áåçûìÿííûé_ãðàäèåíò_43"/><clipPath id="clip-path-3"><ellipse class="cls-1" cx="557.8" cy="770.6" rx="24.76" ry="42.88" transform="translate(-323.49 412.42) rotate(-31.98)"/></clipPath><linearGradient id="Áåçûìÿííûé_ãðàäèåíò_55-2" x1="553" y1="752.5" x2="609.3" y2="752.5" gradientTransform="translate(-46.18 37.96) rotate(-3.56)" xlink:href="#Áåçûìÿííûé_ãðàäèåíò_42"/><radialGradient id="Áåçûìÿííûé_ãðàäèåíò_6-4" cx="541.17" cy="757.07" r="45.04" gradientTransform="translate(-46.18 37.96) rotate(-3.56)" xlink:href="#Áåçûìÿííûé_ãðàäèåíò_43"/><linearGradient id="linear-gradient-28" x1="626.79" y1="382.54" x2="776.47" y2="382.54" xlink:href="#linear-gradient-7"/><linearGradient id="Áåçûìÿííûé_ãðàäèåíò_18-8" x1="-5366.74" y1="-4158.48" x2="-5352.55" y2="-4158.48" xlink:href="#Áåçûìÿííûé_ãðàäèåíò_18"/><linearGradient id="Áåçûìÿííûé_ãðàäèåíò_18-9" x1="-5349.87" y1="-4143.87" x2="-5335.68" y2="-4143.87" xlink:href="#Áåçûìÿííûé_ãðàäèåíò_18"/><linearGradient id="Áåçûìÿííûé_ãðàäèåíò_18-10" x1="-5332.7" y1="-4129" x2="-5318.52" y2="-4129" xlink:href="#Áåçûìÿííûé_ãðàäèåíò_18"/><linearGradient id="linear-gradient-29" x1="545.97" y1="300.05" x2="653.79" y2="300.05" xlink:href="#linear-gradient"/><linearGradient id="Áåçûìÿííûé_ãðàäèåíò_15-8" x1="-744.28" y1="-4539.05" x2="-726.91" y2="-4539.05" xlink:href="#Áåçûìÿííûé_ãðàäèåíò_15"/><linearGradient id="Áåçûìÿííûé_ãðàäèåíò_15-9" x1="-744.28" y1="-4522.18" x2="-726.91" y2="-4522.18" xlink:href="#Áåçûìÿííûé_ãðàäèåíò_15"/><linearGradient id="Áåçûìÿííûé_ãðàäèåíò_15-10" x1="-744.28" y1="-4505.01" x2="-726.91" y2="-4505.01" xlink:href="#Áåçûìÿííûé_ãðàäèåíò_15"/><linearGradient id="linear-gradient-30" x1="-797.94" y1="-4613.26" x2="-685.72" y2="-4678.32" xlink:href="#linear-gradient-2"/><linearGradient id="Áåçûìÿííûé_ãðàäèåíò_18-11" x1="-674.89" y1="-4670.95" x2="-775.92" y2="-4596.98" gradientTransform="matrix(0.5, -0.87, -0.87, -0.5, -2957.33, -2594.03)" xlink:href="#Áåçûìÿííûé_ãðàäèåíò_18"/><linearGradient id="Áåçûìÿííûé_ãðàäèåíò_15-11" x1="-771.84" y1="-4639.96" x2="-692.45" y2="-4639.96" gradientTransform="matrix(0.5, -0.87, -0.87, -0.5, -2951.76, -2600.93)" xlink:href="#Áåçûìÿííûé_ãðàäèåíò_15"/><linearGradient id="linear-gradient-31" x1="-775.29" y1="-4641.83" x2="-695.9" y2="-4641.83" gradientTransform="matrix(0.5, -0.87, -0.87, -0.5, -2951.75, -2600.93)" xlink:href="#linear-gradient-3"/><linearGradient id="linear-gradient-32" x1="628.16" y1="348.87" x2="775.09" y2="348.87" xlink:href="#linear-gradient"/><linearGradient id="linear-gradient-33" x1="629.34" y1="365.7" x2="775.07" y2="365.7" xlink:href="#linear-gradient-5"/><linearGradient id="linear-gradient-34" x1="645.12" y1="334.94" x2="756.53" y2="334.94" xlink:href="#linear-gradient-5"/><linearGradient id="linear-gradient-35" x1="440.33" y1="252.47" x2="524.12" y2="252.47" xlink:href="#linear-gradient-7"/><linearGradient id="linear-gradient-36" x1="444.49" y1="254.83" x2="524.12" y2="254.83" gradientUnits="userSpaceOnUse"><stop offset="0" stop-color="#e7f1fd"/><stop offset="1" stop-color="#a2afbf"/></linearGradient></defs><g class="cls-2"><g id="Layer_1" data-name="Layer 1"><path class="cls-3" d="M628.38,453.7c2.87-1.66,5.2-.32,5.2,3a11.45,11.45,0,0,1-5.18,9c-2.86,1.66-5.19.32-5.2-3A11.54,11.54,0,0,1,628.38,453.7Z"/><path class="cls-4" d="M628.69,453.88a11.49,11.49,0,0,0-5.17,9,3.72,3.72,0,0,0,1.38,3.26c-1-.5-1.69-1.69-1.7-3.44a11.54,11.54,0,0,1,5.18-9c1.51-.87,2.87-.91,3.82-.26A3.75,3.75,0,0,0,628.69,453.88Z"/><path class="cls-5" d="M616,446.59c2.87-1.66,5.2-.32,5.2,3a11.45,11.45,0,0,1-5.18,9c-2.86,1.66-5.19.32-5.2-3A11.52,11.52,0,0,1,616,446.59Z"/><path class="cls-6" d="M603.43,439.36c2.86-1.67,5.19-.33,5.2,3a11.51,11.51,0,0,1-5.18,9c-2.87,1.67-5.2.33-5.2-3A11.45,11.45,0,0,1,603.43,439.36Z"/><path class="cls-7" d="M624.73,466.07l6.44,3.7a3.64,3.64,0,0,1-1.53-3.36,11.47,11.47,0,0,1,5.18-9,3.7,3.7,0,0,1,3.58-.41l27.23,15.65-7.32,12.73-80.19-46.09a7.35,7.35,0,1,1,7.32-12.74L607.18,439a3.59,3.59,0,0,0-3.75.32,11.45,11.45,0,0,0-5.18,9,3.64,3.64,0,0,0,1.52,3.36h0l6.43,3.7a3.66,3.66,0,0,1-1.53-3.36,11.48,11.48,0,0,1,5.18-9,3.71,3.71,0,0,1,3.58-.42l6.33,3.64c-.95-.6-2.28-.54-3.76.31a11.52,11.52,0,0,0-5.18,9,3.7,3.7,0,0,0,1.52,3.36h0l6.44,3.7a3.64,3.64,0,0,1-1.53-3.36,11.47,11.47,0,0,1,5.18-9,3.7,3.7,0,0,1,3.58-.41l6.11,3.51c-.95-.6-2.28-.54-3.76.31a11.54,11.54,0,0,0-5.18,9,3.7,3.7,0,0,0,1.52,3.36h0Z"/><path class="cls-4" d="M616.32,446.77a11.49,11.49,0,0,0-5.17,9,3.73,3.73,0,0,0,1.38,3.26c-1-.5-1.69-1.69-1.7-3.44a11.52,11.52,0,0,1,5.18-9c1.51-.87,2.87-.91,3.82-.27A3.78,3.78,0,0,0,616.32,446.77Z"/><path class="cls-4" d="M603.74,439.54a11.45,11.45,0,0,0-5.18,9,3.73,3.73,0,0,0,1.38,3.26c-1-.5-1.69-1.69-1.69-3.44a11.45,11.45,0,0,1,5.18-9c1.51-.88,2.87-.91,3.82-.27A3.72,3.72,0,0,0,603.74,439.54Z"/><path class="cls-8" d="M634.82,457.4a11.45,11.45,0,0,0-5.18,9,3.65,3.65,0,0,0,1.53,3.36l-6.44-3.7h0a3.63,3.63,0,0,1-1.52-3.35,11.49,11.49,0,0,1,5.17-9,3.58,3.58,0,0,1,3.76-.31l6.26,3.6A3.68,3.68,0,0,0,634.82,457.4Z"/><path class="cls-9" d="M622.45,450.29a11.45,11.45,0,0,0-5.18,9,3.66,3.66,0,0,0,1.53,3.36l-6.44-3.7h0a3.63,3.63,0,0,1-1.52-3.35,11.47,11.47,0,0,1,5.17-9,3.58,3.58,0,0,1,3.76-.31l6.26,3.6A3.68,3.68,0,0,0,622.45,450.29Z"/><path class="cls-10" d="M609.86,443.05a11.54,11.54,0,0,0-5.18,9,3.66,3.66,0,0,0,1.53,3.36l-6.43-3.7h0a3.66,3.66,0,0,1-1.52-3.36,11.49,11.49,0,0,1,5.18-9,3.58,3.58,0,0,1,3.75-.31l6.26,3.6A3.7,3.7,0,0,0,609.86,443.05Z"/><path class="cls-11" d="M658.64,507.71c0,.39,0,.77,0,1.16l15.84,13.25,25.65,9.55,18.07-4.06,17.27-4.93,17.61-13.56.45-.36a16.17,16.17,0,0,0-.16-3.26l9.34-12.39a27.56,27.56,0,0,1,3.43,5.54l2.06-1.65v11.4c-.25,9-6.28,17.92-18.13,24.79-24.24,14.06-63.58,14.13-87.87.17-12.05-6.93-18.13-16-18.24-25.12h0v-.39l0-11.24,2.21,1.85a26.71,26.71,0,0,1,1.85-3.27C650.84,499.91,653.6,505.71,658.64,507.71Z"/><path class="cls-12" d="M749,481.92c.33.18.67.35,1,.54a43.31,43.31,0,0,1,12.74,10.65l-9.34,12.39c-.92-6.22-5.49-12.29-13.74-17-18.57-10.67-48.63-10.61-67.15.13-9.14,5.29-13.74,12.2-13.85,19.12-5-2-7.8-7.8-10.59-12.52a37.7,37.7,0,0,1,9.53-9.63l-2.14.44s14.61-12.68,15.15-12.8,29.76-7.86,29.76-7.86l32.91,2.89Z"/><ellipse class="cls-13" cx="705.22" cy="500.5" rx="47.48" ry="27.41" transform="translate(-0.94 1.33) rotate(-0.11)"/><ellipse class="cls-14" cx="705.14" cy="503.82" rx="47.48" ry="27.41" transform="translate(-0.95 1.33) rotate(-0.11)"/><path class="cls-15" d="M750,471.31c-24.29-14-63.63-13.89-87.87.17s-24.2,36.76.09,50.73,63.63,13.89,87.87-.17S774.26,485.28,750,471.31Zm-10.35,6c18.56,10.67,18.6,28,.07,38.77s-48.58,10.8-67.15.13-18.59-28-.07-38.77S721.06,466.64,739.62,477.31Z"/><path class="cls-16" d="M750,471.31c-24.29-14-63.63-13.89-87.87.17s-24.2,36.76.09,50.73,63.63,13.89,87.87-.17S774.26,485.28,750,471.31Zm-10.35,6c18.56,10.67,18.6,28,.07,38.77s-48.58,10.8-67.15.13-18.59-28-.07-38.77S721.06,466.64,739.62,477.31Z"/><g class="cls-17"><path class="cls-18" d="M661.88,521.25c24.29,14,63.63,13.89,87.86-.16,14.92-8.65,20.63-20.58,17.16-31.73,4.11,11.42-1.49,23.79-16.84,32.68-24.24,14.06-63.58,14.13-87.87.17-9.33-5.37-15.07-12-17.24-19C647.33,509.83,653,516.13,661.88,521.25Z"/><path class="cls-19" d="M672.15,476.49c18.53-10.75,48.59-10.8,67.15-.13,7.19,4.13,11.59,9.27,13.22,14.64-1.84-5-6.13-9.8-12.9-13.69-18.56-10.67-48.63-10.61-67.15.13-11.35,6.58-15.72,15.64-13.14,24.13C656.11,492.81,660.38,483.31,672.15,476.49Z"/></g><path class="cls-20" d="M754.67,606.43h-.08c-1.33,0-2.7,0-4,0a1.27,1.27,0,0,1-.41,0,21.25,21.25,0,0,0-3.12-7.56,4.31,4.31,0,0,1,.46-.5l2.74-2.74a25.21,25.21,0,0,0-5.94-5.9c-1,1-1.95,1.91-2.91,2.91a2.34,2.34,0,0,1-.37.29,21.11,21.11,0,0,0-7.56-3.11.54.54,0,0,1-.05-.29c.05-.71,0-1.46,0-2.17v-2a25.76,25.76,0,0,0-8.22,0c0,.67,0,1.37,0,2v2.17a.66.66,0,0,1,0,.29,21,21,0,0,0-7.56,3.11,1.2,1.2,0,0,1-.38-.29c-1-1-2-2-2.9-2.91a25.78,25.78,0,0,0-5.94,5.9l2.74,2.74a4,4,0,0,1,.45.5,21.11,21.11,0,0,0-3.11,7.56,1.36,1.36,0,0,1-.42,0c-1.33,0-2.7,0-4,0h-.08c-.12,1.37-.25,2.79-.25,4.2a28,28,0,0,0,.33,4.15h4.53a20.76,20.76,0,0,0,3.2,7.65.45.45,0,0,1-.21.2c-.91.88-1.83,1.79-2.74,2.7l-.29.3a25.4,25.4,0,0,0,5.9,5.85l.08-.08c1-1,1.95-1.95,2.95-2.95a1,1,0,0,1,.21-.17,21.37,21.37,0,0,0,7.6,3.12.94.94,0,0,1,0,.37c0,1.37,0,2.75,0,4.12V636a25.26,25.26,0,0,0,8.14,0v-.08c0-1.37,0-2.75,0-4.12a1.2,1.2,0,0,1,0-.37,20.83,20.83,0,0,0,7.61-3.12c.08.05.12.13.2.17,1,1,2,1.95,3,2.95l.09.08a27.23,27.23,0,0,0,5.89-5.85l-.29-.3c-.91-.91-1.78-1.82-2.74-2.7-.08-.08-.12-.16-.21-.2a21.45,21.45,0,0,0,3.2-7.65h4.53a27.22,27.22,0,0,0,.33-4.15A19.61,19.61,0,0,0,754.67,606.43Zm-12.54,6.32a12.57,12.57,0,0,1-2.29,5.48,13.5,13.5,0,0,1-3,2.95,13.12,13.12,0,0,1-5.48,2.24,12.81,12.81,0,0,1-4.16,0,13.34,13.34,0,0,1-5.48-2.24,13.5,13.5,0,0,1-3-2.95,12.68,12.68,0,0,1-2.28-5.48,11.38,11.38,0,0,1-.17-2.12,11.66,11.66,0,0,1,.17-2.12,12.72,12.72,0,0,1,2.28-5.44,12.86,12.86,0,0,1,3-3,13.27,13.27,0,0,1,5.48-2.25,13.6,13.6,0,0,1,4.16,0,13.73,13.73,0,0,1,5.48,2.25,12.86,12.86,0,0,1,3,3,13.12,13.12,0,0,1,2.29,9.68Z"/><path class="cls-20" d="M702.25,643.57h0c-.71,0-1.45,0-2.17,0a.75.75,0,0,1-.22,0,11.33,11.33,0,0,0-1.68-4.07,2.63,2.63,0,0,1,.25-.27l1.48-1.48a13.8,13.8,0,0,0-3.2-3.18c-.52.54-1,1-1.57,1.57a1.4,1.4,0,0,1-.2.16,11.25,11.25,0,0,0-4.07-1.68.39.39,0,0,1,0-.16c0-.38,0-.78,0-1.16v-1.1a14.67,14.67,0,0,0-2.22-.18,14.43,14.43,0,0,0-2.21.18c0,.36,0,.74,0,1.1v1.16a.27.27,0,0,1,0,.16,11.25,11.25,0,0,0-4.07,1.68.87.87,0,0,1-.2-.16c-.51-.54-1.05-1-1.56-1.57a14,14,0,0,0-3.2,3.18l1.48,1.48a1.65,1.65,0,0,1,.24.27,11.28,11.28,0,0,0-1.68,4.07.72.72,0,0,1-.22,0c-.72,0-1.45,0-2.17,0h0c-.07.74-.14,1.5-.14,2.26a14.7,14.7,0,0,0,.18,2.23h2.44a11.14,11.14,0,0,0,1.72,4.12.23.23,0,0,1-.11.11c-.49.47-1,1-1.48,1.46l-.15.15a13.78,13.78,0,0,0,3.17,3.16l.05,0c.51-.54,1-1,1.59-1.59a.48.48,0,0,1,.11-.09,11.42,11.42,0,0,0,4.09,1.68.56.56,0,0,1,0,.2c0,.74,0,1.48,0,2.22v0a13.41,13.41,0,0,0,4.38,0v0c0-.74,0-1.48,0-2.22a.71.71,0,0,1,0-.2,11.18,11.18,0,0,0,4.1-1.68s.06.07.11.09c.51.54,1,1.05,1.59,1.59l0,0a14.89,14.89,0,0,0,3.18-3.16l-.16-.15c-.49-.5-1-1-1.48-1.46,0,0-.06-.09-.11-.11a11.69,11.69,0,0,0,1.73-4.12h2.43a13.7,13.7,0,0,0,.18-2.23A10.65,10.65,0,0,0,702.25,643.57Zm-6.76,3.4a6.8,6.8,0,0,1-1.23,2.95,7,7,0,0,1-4.56,2.8,7,7,0,0,1-2.24,0,7.27,7.27,0,0,1-3-1.21,7.36,7.36,0,0,1-1.61-1.59,6.8,6.8,0,0,1-1.23-2.95,6.12,6.12,0,0,1-.09-1.14,6.26,6.26,0,0,1,.09-1.14,6.77,6.77,0,0,1,1.23-2.93,6.65,6.65,0,0,1,1.61-1.61,7,7,0,0,1,3-1.21,7,7,0,0,1,2.24,0,7.24,7.24,0,0,1,2.95,1.21,6.48,6.48,0,0,1,1.61,1.61,6.77,6.77,0,0,1,1.23,2.93,7.26,7.26,0,0,1,0,2.28Z"/><path class="cls-21" d="M619.76,470.75c3.38-2,6.14-.38,6.14,3.53a13.55,13.55,0,0,1-6.12,10.65c-3.39,2-6.14.39-6.15-3.53A13.59,13.59,0,0,1,619.76,470.75Z"/><path class="cls-4" d="M620.12,471A13.58,13.58,0,0,0,614,481.61a4.46,4.46,0,0,0,1.63,3.85c-1.22-.59-2-2-2-4.06a13.59,13.59,0,0,1,6.13-10.65c1.78-1,3.39-1.08,4.51-.32A4.42,4.42,0,0,0,620.12,471Z"/><path class="cls-22" d="M605.13,462.34c3.39-2,6.14-.38,6.15,3.54a13.61,13.61,0,0,1-6.12,10.65c-3.39,2-6.15.38-6.15-3.54A13.55,13.55,0,0,1,605.13,462.34Z"/><path class="cls-23" d="M590.25,453.78c3.39-2,6.14-.38,6.15,3.54A13.59,13.59,0,0,1,590.27,468c-3.38,2-6.14.38-6.14-3.54A13.58,13.58,0,0,1,590.25,453.78Z"/><path class="cls-15" d="M615.44,485.37l7.61,4.37c-1.11-.64-1.8-2-1.81-4a13.61,13.61,0,0,1,6.12-10.65,4.41,4.41,0,0,1,4.24-.49l32.19,18.51-8.65,15.05-94.81-54.5A8.68,8.68,0,1,1,569,438.64l25.71,14.77c-1.12-.7-2.7-.64-4.44.37a13.58,13.58,0,0,0-6.12,10.65c0,2,.69,3.33,1.79,4h0l7.61,4.37c-1.11-.64-1.8-2-1.81-4a13.59,13.59,0,0,1,6.13-10.65c1.64-1,3.13-1.07,4.23-.49l7.48,4.3c-1.12-.71-2.69-.64-4.44.37A13.55,13.55,0,0,0,599,473c0,1.95.69,3.33,1.8,4h0l7.61,4.38c-1.11-.64-1.8-2-1.8-4a13.58,13.58,0,0,1,6.12-10.65,4.36,4.36,0,0,1,4.23-.48l7.22,4.15c-1.12-.71-2.69-.64-4.43.37a13.59,13.59,0,0,0-6.13,10.65c0,2,.69,3.32,1.8,4h0Z"/><path class="cls-4" d="M605.5,462.55a13.58,13.58,0,0,0-6.12,10.65,4.41,4.41,0,0,0,1.63,3.85c-1.23-.58-2-2-2-4.06a13.57,13.57,0,0,1,6.12-10.65c1.79-1,3.39-1.08,4.52-.32A4.45,4.45,0,0,0,605.5,462.55Z"/><path class="cls-4" d="M590.62,454a13.59,13.59,0,0,0-6.13,10.65,4.46,4.46,0,0,0,1.63,3.85c-1.22-.59-2-2-2-4.06a13.58,13.58,0,0,1,6.12-10.66c1.79-1,3.39-1.07,4.52-.31A4.42,4.42,0,0,0,590.62,454Z"/><path class="cls-24" d="M627.37,475.12a13.59,13.59,0,0,0-6.13,10.65c0,2,.7,3.33,1.81,4l-7.61-4.37h0c-1.1-.64-1.79-2-1.79-4a13.58,13.58,0,0,1,6.12-10.66c1.74-1,3.32-1.07,4.44-.37l7.4,4.26C630.5,474.05,629,474.17,627.37,475.12Z"/><path class="cls-25" d="M612.74,466.71a13.57,13.57,0,0,0-6.12,10.65c0,2,.69,3.33,1.8,4l-7.6-4.37h0c-1.11-.64-1.8-2-1.8-4a13.55,13.55,0,0,1,6.12-10.65c1.75-1,3.32-1.08,4.44-.38l7.41,4.26A4.41,4.41,0,0,0,612.74,466.71Z"/><path class="cls-26" d="M597.86,458.16a13.55,13.55,0,0,0-6.12,10.65c0,1.95.69,3.33,1.8,4l-7.61-4.37h0c-1.1-.64-1.79-2-1.79-4a13.57,13.57,0,0,1,6.12-10.65c1.74-1,3.32-1.08,4.44-.37l7.4,4.26A4.34,4.34,0,0,0,597.86,458.16Z"/><path class="cls-27" d="M528.55,746.62a9.89,9.89,0,0,1-4.83-1.21L302,617.4a3.73,3.73,0,0,1-2.2-3,2.79,2.79,0,0,1,1.61-2.38l132.3-76.39c2.21-1.27,6-1.12,8.58.34L664,664a3.73,3.73,0,0,1,2.2,3,2.81,2.81,0,0,1-1.61,2.38L532.3,745.75A7.61,7.61,0,0,1,528.55,746.62ZM302.38,616.75l221.72,128c2.32,1.34,5.83,1.49,7.82.34l132.31-76.39a2.1,2.1,0,0,0,1.23-1.73,3,3,0,0,0-1.82-2.35l-221.72-128c-2.32-1.34-5.82-1.49-7.82-.34L301.79,612.67a2.1,2.1,0,0,0-1.23,1.73,3.05,3.05,0,0,0,1.82,2.35Z"/><path class="cls-28" d="M386.8,545.38c14.91,8.75,26.91,29.85,26.79,47.14-.06,9.23-3.56,15.51-9.08,18h0L356.73,637.7l-38.55-66.28,49.2-27.9.55-.32.23-.12h0C373,540.6,379.6,541.16,386.8,545.38Z"/><path class="cls-29" d="M386.8,545.38c8.84,5.19,16.66,14.72,21.53,25.22-7.22,3.94-21.86,11.91-49.6,26.94-7,3.77-13.27,7.45-19,11l-21.58-37.1,49.2-27.9.55-.32.23-.12h0C373,540.6,379.6,541.16,386.8,545.38Z"/><path class="cls-30" d="M361.34,491.43l-9.53-5.68-.1-.05-.34-.16v0a6.55,6.55,0,0,0-5.84.79l-1.47.85c-5.43,3.13-9.83,11.54-9.83,18.78v63.28l9.46,5.5,1.69-13.28,8.93-5.15V493.18c0-.15,0-.3,0-.45Z"/><path class="cls-31" d="M364.82,562.56l-21.13,12.2V511.62c0-7.24,4.4-15.65,9.83-18.78L355,492c5.43-3.14,9.83.19,9.83,7.43Z"/><path class="cls-29" d="M339.33,524.17,339,524a1.58,1.58,0,0,0-1.69-.08h0l-2.39,1.38,1.61.31c0,.09,0,.19,0,.28l.06,13.27a6,6,0,0,0,2.48,4.73l-.48,1.81,2.39-1.4h0a2.1,2.1,0,0,0,1-2.07l-.05-13.27A6,6,0,0,0,339.33,524.17Z"/><path class="cls-4" d="M336.9,545.54l-.37-.22a5.94,5.94,0,0,1-2.51-4.74l0-13.27c0-1.83,1.1-2.68,2.48-1.89l.37.21a6,6,0,0,1,2.51,4.75l.05,13.27C339.39,545.48,338.28,546.32,336.9,545.54Z"/><path class="cls-32" d="M665.84,644.85l-12.21-1.76L442.11,521c-2.42-1.4-6.1-1.55-8.2-.34l-126,72.73-7.75-1.11v10.29h0a3.35,3.35,0,0,0,2,2.65l221.72,128c2.43,1.4,6.1,1.55,8.2.34l132.31-76.39a2.41,2.41,0,0,0,1.4-2.09h0Z"/><path class="cls-33" d="M302.19,595,523.91,723c2.43,1.4,6.1,1.55,8.2.34l132.31-76.39c2.1-1.21,1.84-3.33-.59-4.73l-221.72-128c-2.42-1.4-6.1-1.55-8.2-.34L301.6,590.23C299.5,591.44,299.77,593.56,302.19,595Z"/><path class="cls-34" d="M321.39,597.47,519.57,711.89a8.17,8.17,0,0,0,7.33.3l118.26-68.28c1.88-1.08,1.64-3-.53-4.23L446.46,525.26a8.17,8.17,0,0,0-7.33-.3L320.87,593.24C319,594.32,319.22,596.22,321.39,597.47Z"/><path class="cls-4" d="M664.42,645.81,532.11,722.2c-2.1,1.21-5.77,1.06-8.2-.34l-221.72-128a3.87,3.87,0,0,1-1.9-2.12c-.33,1.08.31,2.31,1.9,3.23L523.91,723c2.43,1.4,6.1,1.55,8.2.34l132.31-76.39a2.23,2.23,0,0,0,1.31-2.61A2.65,2.65,0,0,1,664.42,645.81Z"/><path class="cls-35" d="M441.71,474.27l28-166.28-2.25-.95,3.38-1.94v0a2.43,2.43,0,0,1,2.61.18l224,129.32a6.31,6.31,0,0,1,2.91,5.69L672.13,607.92a2.09,2.09,0,0,1-1.18,1.7h0l-3.32,1.92-.57-3.1.19.06L444.62,480A6.33,6.33,0,0,1,441.71,474.27Z"/><path class="cls-36" d="M696.23,439.17l3.68-1.63a5,5,0,0,1,.47,2.77L672.13,607.92a2.09,2.09,0,0,1-1.18,1.7h0l-3.32,1.92-.57-3.1.19.06L656,602Z"/><path class="cls-37" d="M441.11,482l224,129.32c1.73,1,3.21.42,3.52-1.37l28.25-167.6a6.32,6.32,0,0,0-2.91-5.69L470,307.31c-1.73-1-3.21-.42-3.51,1.37L438.2,476.29A6.34,6.34,0,0,0,441.11,482Z"/><g class="cls-38"><polygon class="cls-39" points="469.21 310.43 694.26 440.3 665.84 608.34 440.94 478.55 469.21 310.43"/></g><path class="cls-40" d="M300.3,561.33l12.23,6.38L435.1,496.94c2-1.18,5.64-1,8,.33L654.51,619.33c2-1.13,11.25-5.57,11.25-5.57L661.29,621l0,0a2.69,2.69,0,0,1-1.25,1.39l-129.1,74.53c-2,1.19-5.63,1-8-.33L306.58,571.71a3.83,3.83,0,0,1-1.81-1.93h0Z"/><path class="cls-41" d="M302.19,563.34l221.72,128c2.43,1.4,6.1,1.55,8.2.34L664.42,615.3c2.1-1.22,1.84-3.33-.59-4.74l-221.72-128c-2.42-1.4-6.1-1.55-8.2-.34L301.6,558.6C299.5,559.82,299.77,561.94,302.19,563.34Z"/><path class="cls-4" d="M302.19,562.34l221.72,128c2.43,1.4,6.1,1.56,8.2.34L664.42,614.3a2.61,2.61,0,0,0,1.33-1.55,2.26,2.26,0,0,1-1.33,2.55L532.11,691.69c-2.1,1.21-5.77,1.06-8.2-.34l-221.72-128c-1.57-.91-2.22-2.12-1.92-3.19A3.77,3.77,0,0,0,302.19,562.34Z"/><g class="cls-42"><g class="cls-43"><path class="cls-44" d="M440.83,480.9l12.23,6.38,122.57-70.77c2-1.18,5.64-1,8,.33L795,538.9c2-1.13,11.25-5.57,11.25-5.57l-4.47,7.28,0,0a2.69,2.69,0,0,1-1.25,1.39l-129.1,74.53c-2.05,1.19-5.63,1-8-.33L447.11,491.28a3.83,3.83,0,0,1-1.81-1.93h0Z"/><path class="cls-45" d="M442.72,482.91l221.72,128c2.43,1.4,6.1,1.55,8.2.34L805,534.87c2.1-1.22,1.84-3.33-.59-4.74l-221.72-128c-2.42-1.4-6.1-1.55-8.2-.34L442.13,478.17C440,479.39,440.3,481.51,442.72,482.91Z"/><path class="cls-4" d="M804.36,530.13l-221.72-128a9.71,9.71,0,0,0-5.48-1.11,9.31,9.31,0,0,1,3.85,1.11l221.72,128c2.42,1.41,2.69,3.52.59,4.74L671,611.26a6.71,6.71,0,0,1-2.72.77,7.79,7.79,0,0,0,4.35-.77L805,534.87C807.05,533.65,806.79,531.54,804.36,530.13Z"/><g class="cls-46"><path class="cls-37" d="M558.86,460.87l-7.11-4.1a2.34,2.34,0,0,0-2.15.06l-7.9,4.61c-.62.36-.66.92-.09,1.25l7.1,4.11a2.39,2.39,0,0,0,2.16-.06l7.9-4.62C559.39,461.76,559.43,461.2,558.86,460.87Z"/><path class="cls-37" d="M569.84,467.21l-7.11-4.11a2.39,2.39,0,0,0-2.16.06l-7.9,4.62c-.62.36-.66.92-.09,1.25l7.11,4.1a2.36,2.36,0,0,0,2.16-.06l7.9-4.61C570.37,468.1,570.41,467.54,569.84,467.21Z"/><path class="cls-37" d="M580.81,473.54l-7.11-4.1a2.37,2.37,0,0,0-2.15.06l-7.9,4.61c-.62.37-.66.93-.09,1.26l7.11,4.1a2.37,2.37,0,0,0,2.15-.06l7.9-4.61C581.34,474.43,581.38,473.87,580.81,473.54Z"/><path class="cls-37" d="M572.46,482l-7.11-4.11a2.39,2.39,0,0,0-2.16.06l-6.63,3.88c-.62.36-.66.92-.09,1.25l7.11,4.1a2.34,2.34,0,0,0,2.15-.06l6.64-3.87C573,482.87,573,482.31,572.46,482Z"/><path class="cls-37" d="M583.43,488.31l-7.11-4.1a2.37,2.37,0,0,0-2.15.06l-6.63,3.87c-.62.37-.66.93-.09,1.26l7.1,4.1a2.39,2.39,0,0,0,2.16-.06l6.63-3.87C584,489.2,584,488.64,583.43,488.31Z"/><path class="cls-37" d="M594.41,494.65l-7.11-4.1a2.36,2.36,0,0,0-2.16.06l-6.63,3.87c-.62.36-.66.92-.09,1.25l7.11,4.11a2.39,2.39,0,0,0,2.16-.06l6.63-3.88C594.94,495.54,595,495,594.41,494.65Z"/><path class="cls-37" d="M605.38,501l-7.11-4.11a2.37,2.37,0,0,0-2.15.06l-6.63,3.88c-.62.36-.66.92-.09,1.25l7.1,4.1a2.36,2.36,0,0,0,2.16-.06l6.63-3.87C605.91,501.88,606,501.32,605.38,501Z"/><path class="cls-37" d="M616.36,507.32l-7.11-4.1a2.39,2.39,0,0,0-2.16.06l-6.63,3.87c-.62.37-.66.93-.09,1.26l7.11,4.1a2.39,2.39,0,0,0,2.16-.06l6.63-3.87C616.89,508.21,616.93,507.65,616.36,507.32Z"/><path class="cls-37" d="M627.33,513.66l-7.1-4.1a2.36,2.36,0,0,0-2.16.06l-6.63,3.87c-.62.36-.66.92-.09,1.25l7.11,4.11a2.37,2.37,0,0,0,2.15-.06l6.63-3.88C627.86,514.55,627.9,514,627.33,513.66Z"/><path class="cls-37" d="M638.31,520l-7.11-4.11A2.39,2.39,0,0,0,629,516l-6.63,3.88c-.62.36-.66.92-.09,1.25l7.11,4.1a2.36,2.36,0,0,0,2.16-.06l6.63-3.87C638.84,520.89,638.88,520.33,638.31,520Z"/><path class="cls-37" d="M649.28,526.33l-7.1-4.1a2.39,2.39,0,0,0-2.16.06l-6.63,3.87c-.62.37-.66.93-.09,1.26l7.11,4.1a2.37,2.37,0,0,0,2.15-.06l6.63-3.87C649.81,527.22,649.85,526.66,649.28,526.33Z"/><path class="cls-37" d="M660.26,532.67l-7.11-4.1a2.34,2.34,0,0,0-2.15.06l-6.64,3.87c-.62.36-.66.92-.09,1.25l7.11,4.11a2.39,2.39,0,0,0,2.16-.06l6.63-3.88C660.79,533.56,660.83,533,660.26,532.67Z"/><path class="cls-37" d="M671.23,539l-7.1-4.11A2.39,2.39,0,0,0,662,535l-6.63,3.88c-.62.36-.66.92-.09,1.25l7.11,4.1a2.34,2.34,0,0,0,2.15-.06l6.63-3.87C671.77,539.9,671.81,539.34,671.23,539Z"/><path class="cls-37" d="M567.88,491l-7.1-4.1a2.39,2.39,0,0,0-2.16.06L552,490.85c-.62.37-.66.93-.09,1.26l7.11,4.1a2.37,2.37,0,0,0,2.15-.06l6.63-3.87C568.41,491.91,568.45,491.35,567.88,491Z"/><path class="cls-37" d="M556.74,484.59l-7.1-4.1a2.39,2.39,0,0,0-2.16.06l-6.63,3.87c-.62.36-.66.93-.09,1.25l7.11,4.11a2.37,2.37,0,0,0,2.15-.06l6.63-3.88C557.27,485.48,557.31,484.92,556.74,484.59Z"/><path class="cls-37" d="M545.59,478.15l-15.31-8.84a2.39,2.39,0,0,0-2.16.06l-6.63,3.88c-.62.36-.66.92-.09,1.25l15.31,8.84a2.39,2.39,0,0,0,2.16-.06l6.63-3.88C546.12,479,546.16,478.48,545.59,478.15Z"/><path class="cls-37" d="M532.64,482.36l-12.42-7.17a2.39,2.39,0,0,0-2.16.06l-6.63,3.87c-.62.37-.66.93-.09,1.26l12.42,7.17a2.39,2.39,0,0,0,2.16-.06l6.63-3.88C533.17,483.25,533.21,482.69,532.64,482.36Z"/><path class="cls-37" d="M578.86,497.36l-7.11-4.1a2.36,2.36,0,0,0-2.16.06L563,497.19c-.62.36-.66.92-.09,1.25l7.11,4.11a2.39,2.39,0,0,0,2.16-.06l6.63-3.88C579.39,498.25,579.43,497.69,578.86,497.36Z"/><path class="cls-37" d="M589.83,503.7l-7.1-4.11a2.39,2.39,0,0,0-2.16.06l-6.63,3.88c-.62.36-.66.92-.09,1.25l7.11,4.1a2.34,2.34,0,0,0,2.15-.06l6.63-3.87C590.36,504.59,590.4,504,589.83,503.7Z"/><path class="cls-37" d="M600.81,510l-7.11-4.1a2.37,2.37,0,0,0-2.15.06l-6.63,3.87c-.63.37-.67.93-.1,1.26l7.11,4.1a2.39,2.39,0,0,0,2.16-.06l6.63-3.87C601.34,510.92,601.38,510.36,600.81,510Z"/><path class="cls-37" d="M611.79,516.37l-7.11-4.1a2.36,2.36,0,0,0-2.16.06l-6.63,3.87c-.62.36-.66.92-.09,1.25l7.11,4.11a2.37,2.37,0,0,0,2.15-.06l6.63-3.88C612.32,517.26,612.36,516.7,611.79,516.37Z"/><path class="cls-37" d="M622.76,522.71l-7.11-4.11a2.37,2.37,0,0,0-2.15.06l-6.63,3.88c-.62.36-.66.92-.09,1.25l7.1,4.1a2.36,2.36,0,0,0,2.16-.06l6.63-3.87C623.29,523.6,623.33,523,622.76,522.71Z"/><path class="cls-37" d="M633.74,529l-7.11-4.1a2.39,2.39,0,0,0-2.16.06l-6.63,3.87c-.62.37-.66.93-.09,1.26l7.11,4.1a2.39,2.39,0,0,0,2.16-.06l6.63-3.87C634.27,529.93,634.31,529.37,633.74,529Z"/><path class="cls-37" d="M644.71,535.38l-7.11-4.1a2.34,2.34,0,0,0-2.15.06l-6.63,3.87c-.62.36-.66.92-.09,1.25l7.1,4.11a2.39,2.39,0,0,0,2.16-.06l6.63-3.88C645.24,536.27,645.28,535.71,644.71,535.38Z"/><path class="cls-37" d="M655.69,541.72l-7.11-4.11a2.39,2.39,0,0,0-2.16.06l-6.63,3.88c-.62.36-.66.92-.09,1.25l7.11,4.1a2.36,2.36,0,0,0,2.16-.06L655.6,543C656.22,542.61,656.26,542.05,655.69,541.72Z"/><path class="cls-37" d="M666.66,548.05l-7.1-4.1a2.39,2.39,0,0,0-2.16.06l-6.63,3.87c-.62.37-.66.93-.09,1.26l7.11,4.1a2.37,2.37,0,0,0,2.15-.06l6.63-3.87C667.19,548.94,667.23,548.38,666.66,548.05Z"/><path class="cls-37" d="M686.17,559.32l-15.5-9a2.36,2.36,0,0,0-2.16.06l-6.63,3.87c-.62.36-.66.92-.09,1.25l15.51,9a2.4,2.4,0,0,0,2.15-.06l6.63-3.88C686.7,560.21,686.75,559.65,686.17,559.32Z"/><path class="cls-37" d="M666.05,571.07,653,563.52a2.36,2.36,0,0,0-2.16.06l-6.63,3.87c-.62.36-.66.92-.09,1.25l13.09,7.56a2.37,2.37,0,0,0,2.15-.06l6.63-3.87C666.58,572,666.63,571.4,666.05,571.07Z"/><path class="cls-37" d="M577.34,508.17l-7.11-4.11a2.39,2.39,0,0,0-2.16.06L561.44,508c-.62.36-.66.92-.09,1.25l7.11,4.1a2.37,2.37,0,0,0,2.15-.06l6.63-3.87C577.87,509.06,577.91,508.49,577.34,508.17Z"/><path class="cls-37" d="M566.09,501.67l-7.11-4.1a2.39,2.39,0,0,0-2.16.06l-6.63,3.87c-.62.36-.66.92-.09,1.25l7.11,4.11a2.39,2.39,0,0,0,2.16-.06l6.63-3.88C566.62,502.56,566.66,502,566.09,501.67Z"/><path class="cls-37" d="M554.84,495.18l-7.11-4.11a2.39,2.39,0,0,0-2.16.06L538.94,495c-.62.36-.66.92-.09,1.25l7.11,4.1a2.36,2.36,0,0,0,2.16-.06l6.63-3.87C555.37,496.07,555.41,495.51,554.84,495.18Z"/><path class="cls-37" d="M543.59,488.68l-7.11-4.1a2.37,2.37,0,0,0-2.15.06l-6.63,3.87c-.63.37-.67.93-.1,1.26l7.11,4.1a2.39,2.39,0,0,0,2.16-.06l6.63-3.87C544.12,489.57,544.16,489,543.59,488.68Z"/><path class="cls-37" d="M588.31,514.5l-7.11-4.1a2.37,2.37,0,0,0-2.15.06l-6.63,3.87c-.62.37-.66.93-.09,1.26l7.1,4.1a2.39,2.39,0,0,0,2.16-.06l6.63-3.87C588.84,515.39,588.88,514.83,588.31,514.5Z"/><path class="cls-37" d="M599.29,520.84l-7.11-4.1a2.36,2.36,0,0,0-2.16.06l-6.63,3.87c-.62.36-.66.92-.09,1.25l7.11,4.11a2.42,2.42,0,0,0,2.16-.06l6.63-3.88C599.82,521.73,599.86,521.17,599.29,520.84Z"/><path class="cls-37" d="M610.26,527.18l-7.11-4.11a2.37,2.37,0,0,0-2.15.06L594.37,527c-.62.36-.66.92-.09,1.25l7.1,4.1a2.39,2.39,0,0,0,2.16-.06l6.63-3.87C610.79,528.07,610.83,527.51,610.26,527.18Z"/><path class="cls-37" d="M621.24,533.51l-7.11-4.1a2.39,2.39,0,0,0-2.16.06l-6.63,3.87c-.62.37-.66.93-.09,1.26l7.11,4.1a2.39,2.39,0,0,0,2.16-.06l6.63-3.87C621.77,534.4,621.81,533.84,621.24,533.51Z"/><path class="cls-37" d="M632.21,539.85l-7.1-4.1a2.36,2.36,0,0,0-2.16.06l-6.63,3.87c-.62.36-.66.92-.09,1.25l7.11,4.11a2.37,2.37,0,0,0,2.15-.06l6.63-3.88C632.74,540.74,632.78,540.18,632.21,539.85Z"/><path class="cls-37" d="M643.19,546.19l-7.11-4.11a2.39,2.39,0,0,0-2.16.06L627.29,546c-.62.36-.66.92-.09,1.25l7.11,4.1a2.39,2.39,0,0,0,2.16-.06l6.63-3.87C643.72,547.08,643.76,546.52,643.19,546.19Z"/><path class="cls-37" d="M654.16,552.52l-7.1-4.1a2.39,2.39,0,0,0-2.16.06l-6.63,3.87c-.62.37-.66.93-.09,1.26l7.11,4.1a2.37,2.37,0,0,0,2.15-.06l6.63-3.87C654.69,553.41,654.73,552.85,654.16,552.52Z"/><path class="cls-37" d="M665.14,558.86l-7.11-4.1a2.34,2.34,0,0,0-2.15.06l-6.64,3.87c-.62.36-.66.92-.09,1.25l7.11,4.11a2.39,2.39,0,0,0,2.16-.06l6.63-3.88C665.67,559.75,665.71,559.19,665.14,558.86Z"/><path class="cls-37" d="M676.11,565.2l-7.1-4.11a2.39,2.39,0,0,0-2.16.06L660.22,565c-.62.36-.66.92-.09,1.25l7.11,4.1a2.34,2.34,0,0,0,2.15-.06l6.63-3.87C676.64,566.09,676.69,565.53,676.11,565.2Z"/><path class="cls-37" d="M550.81,504.54l-7.11-4.11a2.4,2.4,0,0,0-2.15.06l-6.63,3.88c-.62.36-.66.92-.09,1.25l7.1,4.1a2.36,2.36,0,0,0,2.16-.06l6.63-3.87C551.34,505.43,551.38,504.87,550.81,504.54Z"/><path class="cls-37" d="M539.89,498.23l-7.11-4.1a2.37,2.37,0,0,0-2.15.06L524,498.06c-.62.37-.66.93-.09,1.26l7.1,4.1a2.39,2.39,0,0,0,2.16-.06l6.63-3.87C540.42,499.12,540.46,498.56,539.89,498.23Z"/><path class="cls-37" d="M529,491.93l-7.11-4.11a2.37,2.37,0,0,0-2.15.06l-6.63,3.88c-.62.36-.66.92-.09,1.25l7.1,4.1a2.36,2.36,0,0,0,2.16-.06l6.63-3.87C529.5,492.82,529.54,492.26,529,491.93Z"/><path class="cls-37" d="M518.05,485.62l-7.11-4.1a2.37,2.37,0,0,0-2.15.06l-6.64,3.87c-.62.37-.66.93-.09,1.26l7.11,4.1a2.39,2.39,0,0,0,2.16-.06l6.63-3.87C518.58,486.51,518.62,486,518.05,485.62Z"/><path class="cls-37" d="M507.48,491.8l-7.11-4.1a2.36,2.36,0,0,0-2.16.06L496,489c-.62.36-.66.92-.09,1.25l7.11,4.1a2.34,2.34,0,0,0,2.15-.06l2.2-1.28C508,492.69,508.05,492.13,507.48,491.8Z"/><path class="cls-37" d="M521.73,500l-7.11-4.1a2.39,2.39,0,0,0-2.16.05l-2.19,1.29c-.62.36-.66.92-.09,1.25l7.11,4.1a2.37,2.37,0,0,0,2.15-.06l2.2-1.28C522.26,500.92,522.3,500.36,521.73,500Z"/><path class="cls-37" d="M532.6,506.31l-7.1-4.11a2.39,2.39,0,0,0-2.16.06l-2.19,1.28c-.62.37-.66.93-.09,1.26l7.1,4.1a2.39,2.39,0,0,0,2.16-.06l2.19-1.28C533.13,507.2,533.17,506.64,532.6,506.31Z"/><path class="cls-37" d="M543.48,512.59l-7.11-4.11a2.39,2.39,0,0,0-2.16.06L532,509.82c-.62.37-.66.93-.09,1.26l7.11,4.1a2.39,2.39,0,0,0,2.16-.06l2.19-1.28C544,513.48,544.05,512.92,543.48,512.59Z"/><path class="cls-37" d="M554.35,518.86l-7.1-4.1a2.39,2.39,0,0,0-2.16.06l-2.19,1.28c-.62.36-.66.93-.09,1.25l7.1,4.11a2.39,2.39,0,0,0,2.16-.06l2.19-1.28C554.88,519.76,554.92,519.19,554.35,518.86Z"/><path class="cls-37" d="M615.07,553.92l-7.11-4.1a2.36,2.36,0,0,0-2.16.06l-2.19,1.28c-.62.36-.66.92-.09,1.25l7.11,4.1a2.36,2.36,0,0,0,2.16-.06l2.19-1.28C615.6,554.81,615.64,554.25,615.07,553.92Z"/><path class="cls-37" d="M625.94,560.2l-7.1-4.11a2.42,2.42,0,0,0-2.16.06l-2.19,1.29c-.62.36-.66.92-.09,1.25l7.11,4.1a2.37,2.37,0,0,0,2.15-.06l2.19-1.28C626.47,561.09,626.51,560.53,625.94,560.2Z"/><path class="cls-37" d="M636.82,566.48l-7.11-4.11a2.37,2.37,0,0,0-2.15.06l-2.2,1.28c-.62.37-.66.93-.09,1.26l7.11,4.1a2.39,2.39,0,0,0,2.16-.06l2.19-1.28C637.35,567.37,637.39,566.81,636.82,566.48Z"/><path class="cls-37" d="M647.69,572.76l-7.1-4.11a2.39,2.39,0,0,0-2.16.06L636.24,570c-.62.37-.66.93-.09,1.26l7.11,4.1a2.37,2.37,0,0,0,2.15-.06L647.6,574C648.23,573.65,648.27,573.09,647.69,572.76Z"/><path class="cls-37" d="M561.79,510.87l-7.11-4.1a2.39,2.39,0,0,0-2.16.06l-6.63,3.87c-.62.37-.66.93-.09,1.26l7.11,4.1a2.39,2.39,0,0,0,2.16-.06l6.63-3.87C562.32,511.76,562.36,511.2,561.79,510.87Z"/><path class="cls-37" d="M572.76,517.21l-7.1-4.1a2.39,2.39,0,0,0-2.16.06L556.87,517c-.62.36-.66.92-.09,1.25l7.11,4.11a2.37,2.37,0,0,0,2.15-.06l6.63-3.88C573.29,518.1,573.33,517.54,572.76,517.21Z"/><path class="cls-37" d="M583.74,523.55l-7.11-4.11a2.42,2.42,0,0,0-2.16.06l-6.63,3.88c-.62.36-.66.92-.09,1.25l7.11,4.1a2.36,2.36,0,0,0,2.16-.06l6.63-3.87C584.27,524.44,584.31,523.88,583.74,523.55Z"/><path class="cls-37" d="M594.71,529.88l-7.1-4.1a2.39,2.39,0,0,0-2.16.06l-6.63,3.88c-.62.36-.66.92-.09,1.25l7.11,4.1A2.37,2.37,0,0,0,588,535l6.63-3.87C595.24,530.78,595.28,530.21,594.71,529.88Z"/><path class="cls-37" d="M605.69,536.22l-7.11-4.1a2.37,2.37,0,0,0-2.15.06l-6.64,3.87c-.62.36-.66.93-.09,1.25l7.11,4.11a2.39,2.39,0,0,0,2.16-.06l6.63-3.88C606.22,537.11,606.26,536.55,605.69,536.22Z"/><path class="cls-37" d="M616.66,542.56l-7.1-4.11a2.42,2.42,0,0,0-2.16.06l-6.63,3.88c-.62.36-.66.92-.09,1.25l7.11,4.1a2.34,2.34,0,0,0,2.15-.06l6.63-3.87C617.2,543.45,617.24,542.89,616.66,542.56Z"/><path class="cls-37" d="M627.64,548.89l-7.11-4.1a2.37,2.37,0,0,0-2.15.06l-6.63,3.88c-.62.36-.66.92-.09,1.25l7.1,4.1a2.39,2.39,0,0,0,2.16-.06l6.63-3.87C628.17,549.79,628.21,549.22,627.64,548.89Z"/><path class="cls-37" d="M638.62,555.23l-7.11-4.1a2.39,2.39,0,0,0-2.16.06l-6.63,3.87c-.62.36-.66.93-.09,1.25l7.11,4.11a2.37,2.37,0,0,0,2.15-.06l6.64-3.88C639.15,556.12,639.19,555.56,638.62,555.23Z"/><path class="cls-37" d="M649.59,561.57l-7.11-4.11a2.4,2.4,0,0,0-2.15.06l-6.63,3.88c-.62.36-.66.92-.09,1.25l7.1,4.1a2.36,2.36,0,0,0,2.16-.06l6.63-3.87C650.12,562.46,650.16,561.9,649.59,561.57Z"/><path class="cls-37" d="M561.27,475.52l-20.93-12.08a2.39,2.39,0,0,0-2.16.05l-6.63,3.88c-.62.36-.66.92-.09,1.25l20.93,12.09a2.39,2.39,0,0,0,2.16-.06l6.63-3.88C561.8,476.41,561.84,475.85,561.27,475.52Z"/><path class="cls-37" d="M696.11,553.37l-20.93-12.09a2.39,2.39,0,0,0-2.16.06l-6.63,3.88c-.62.36-.66.92-.09,1.25l20.93,12.08a2.36,2.36,0,0,0,2.16-.06l6.63-3.87C696.64,554.26,696.68,553.7,696.11,553.37Z"/><path class="cls-37" d="M675.75,528.36l-7.11-4.11a2.37,2.37,0,0,0-2.15.06l-7.9,4.62c-.62.36-.66.92-.09,1.25l7.1,4.1a2.36,2.36,0,0,0,2.16-.06l7.9-4.61C676.28,529.25,676.32,528.69,675.75,528.36Z"/><path class="cls-37" d="M596.05,482.34l-11.37-6.56a2.36,2.36,0,0,0-2.16.06l-7.9,4.61c-.62.36-.66.92-.09,1.25l11.37,6.57a2.39,2.39,0,0,0,2.16-.06l7.9-4.62C596.58,483.23,596.62,482.67,596.05,482.34Z"/><path class="cls-37" d="M665.18,522.25l-11.37-6.56a2.39,2.39,0,0,0-2.16.06l-7.9,4.61c-.62.37-.66.93-.09,1.26L655,528.18a2.39,2.39,0,0,0,2.16-.06l7.9-4.62C665.71,523.14,665.75,522.58,665.18,522.25Z"/><path class="cls-37" d="M611.88,491.48l-11.36-6.56a2.39,2.39,0,0,0-2.16.06l-7.9,4.61c-.62.37-.66.93-.09,1.26l11.37,6.56a2.37,2.37,0,0,0,2.15-.06l7.9-4.62C612.41,492.37,612.45,491.81,611.88,491.48Z"/><path class="cls-37" d="M590.45,490.89l49.41,28.53a2.35,2.35,0,0,0,2.16,0l8.05-4.7c.58-.34.55-.9-.06-1.26L600.59,485Z"/><path class="cls-37" d="M696,545.92l7.92,4.57a1.94,1.94,0,0,0,1.77,0l3.23-1.89c.51-.29.54-.75.07-1L701,543a1.94,1.94,0,0,0-1.77,0L696,544.89C695.53,545.19,695.5,545.65,696,545.92Z"/><path class="cls-37" d="M684.9,539.53l7.91,4.57a1.94,1.94,0,0,0,1.77-.05l3.23-1.89c.51-.29.55-.75.08-1L690,536.57a1.94,1.94,0,0,0-1.77,0L685,538.5C684.46,538.8,684.43,539.26,684.9,539.53Z"/><path class="cls-37" d="M673.92,533.19l7.92,4.57a2,2,0,0,0,1.77,0l3.23-1.89c.51-.3.54-.76.07-1L679,530.23a1.94,1.94,0,0,0-1.77,0L674,532.17C673.49,532.46,673.45,532.92,673.92,533.19Z"/><path class="cls-37" d="M679.19,542.86l7.92,4.58a2,2,0,0,0,1.77-.05l3.23-1.89c.51-.3.54-.76.07-1l-7.92-4.57a1.92,1.92,0,0,0-1.76.05l-3.23,1.89C678.76,542.13,678.72,542.59,679.19,542.86Z"/></g></g></g><g class="cls-47"><path class="cls-37" d="M404.18,549.16l-7-4.06c-.56-.33-.49-.9.16-1.28l8.31-4.79a2.42,2.42,0,0,1,2.2-.09l7,4.06c.57.33.5.9-.16,1.27l-8.3,4.8A2.44,2.44,0,0,1,404.18,549.16Z"/><path class="cls-37" d="M415.05,555.44l-7-4.07c-.56-.32-.49-.89.16-1.27l8.31-4.8a2.48,2.48,0,0,1,2.2-.09l7,4.07c.57.32.5.89-.16,1.27l-8.3,4.8A2.5,2.5,0,0,1,415.05,555.44Z"/><path class="cls-37" d="M425.92,561.71l-7-4.06c-.56-.33-.49-.9.16-1.27l8.31-4.8a2.42,2.42,0,0,1,2.2-.09l7,4.06c.57.33.5.9-.16,1.27l-8.3,4.8A2.44,2.44,0,0,1,425.92,561.71Z"/><path class="cls-37" d="M441,556.53l-7-4.06c-.57-.33-.5-.9.15-1.28l7-4a2.45,2.45,0,0,1,2.2-.1l7,4.07c.57.32.5.89-.16,1.27l-7,4A2.47,2.47,0,0,1,441,556.53Z"/><path class="cls-37" d="M451.82,562.81l-7-4.07c-.57-.32-.5-.89.15-1.27l7-4a2.45,2.45,0,0,1,2.2-.09l7,4.06c.57.33.5.9-.16,1.28l-7,4A2.47,2.47,0,0,1,451.82,562.81Z"/><path class="cls-37" d="M462.69,569.08l-7-4.06c-.56-.33-.49-.9.16-1.28l7-4a2.42,2.42,0,0,1,2.2-.09l7,4.06c.57.33.49.9-.16,1.27l-7,4A2.44,2.44,0,0,1,462.69,569.08Z"/><path class="cls-37" d="M473.56,575.36l-7-4.07c-.56-.32-.49-.89.16-1.27l7-4a2.48,2.48,0,0,1,2.2-.09l7,4.07c.57.32.49.89-.16,1.27l-7,4A2.47,2.47,0,0,1,473.56,575.36Z"/><path class="cls-37" d="M484.43,581.63l-7-4.06c-.56-.33-.49-.9.16-1.27l7-4a2.42,2.42,0,0,1,2.2-.09l7,4.06c.57.33.49.9-.16,1.27l-7,4A2.44,2.44,0,0,1,484.43,581.63Z"/><path class="cls-37" d="M495.3,587.91l-7-4.07c-.56-.32-.49-.89.16-1.27l7-4a2.48,2.48,0,0,1,2.2-.09l7,4.07c.56.32.49.89-.16,1.27l-7,4A2.5,2.5,0,0,1,495.3,587.91Z"/><path class="cls-37" d="M506.17,594.18l-7-4.06c-.56-.33-.49-.9.16-1.27l7-4a2.42,2.42,0,0,1,2.2-.09l7,4.06c.56.33.49.9-.16,1.28l-7,4A2.44,2.44,0,0,1,506.17,594.18Z"/><path class="cls-37" d="M517,600.46l-7-4.06c-.56-.33-.49-.9.16-1.28l7-4a2.45,2.45,0,0,1,2.2-.1l7,4.07c.56.32.49.89-.16,1.27l-7,4A2.47,2.47,0,0,1,517,600.46Z"/><path class="cls-37" d="M527.91,606.73l-7-4.06c-.56-.33-.49-.9.16-1.27l7-4a2.42,2.42,0,0,1,2.2-.09l7,4.06c.56.33.49.9-.16,1.28l-7,4A2.44,2.44,0,0,1,527.91,606.73Z"/><path class="cls-37" d="M538.78,613l-7-4.06c-.56-.33-.49-.9.16-1.28l7-4a2.42,2.42,0,0,1,2.2-.09l7,4.06c.56.33.49.9-.16,1.27l-7,4A2.44,2.44,0,0,1,538.78,613Z"/><path class="cls-37" d="M457,553.56l-7-4.07c-.56-.32-.49-.89.16-1.27l7-4a2.47,2.47,0,0,1,2.21-.1l7,4.07c.56.32.49.89-.16,1.27l-7,4A2.48,2.48,0,0,1,457,553.56Z"/><path class="cls-37" d="M445.94,547.19l-7-4.06c-.57-.33-.49-.9.16-1.28l7-4a2.47,2.47,0,0,1,2.21-.1l7,4.07c.56.32.49.89-.16,1.27l-7,4A2.45,2.45,0,0,1,445.94,547.19Z"/><path class="cls-37" d="M434.89,540.81l-15.16-8.75c-.57-.33-.5-.9.16-1.28l7-4a2.44,2.44,0,0,1,2.21-.09l15.16,8.75c.56.32.49.89-.16,1.27l-7,4A2.45,2.45,0,0,1,434.89,540.81Z"/><path class="cls-37" d="M442.61,533.05l-12.3-7.1c-.57-.33-.49-.9.16-1.27l7-4a2.44,2.44,0,0,1,2.21-.09l12.3,7.1c.56.33.49.9-.16,1.27l-7,4A2.44,2.44,0,0,1,442.61,533.05Z"/><path class="cls-37" d="M467.84,559.83l-7-4.06c-.56-.33-.49-.9.16-1.27l7-4a2.44,2.44,0,0,1,2.21-.09l7,4.06c.56.33.49.9-.16,1.28l-7,4A2.42,2.42,0,0,1,467.84,559.83Z"/><path class="cls-37" d="M478.71,566.11l-7-4.06c-.56-.33-.49-.9.16-1.28l7-4a2.47,2.47,0,0,1,2.21-.1l7,4.07c.56.33.49.9-.16,1.27l-7,4A2.45,2.45,0,0,1,478.71,566.11Z"/><path class="cls-37" d="M489.58,572.39l-7-4.07c-.56-.32-.49-.89.16-1.27l7-4a2.47,2.47,0,0,1,2.21-.09l7,4.06c.56.33.49.9-.16,1.28l-7,4A2.45,2.45,0,0,1,489.58,572.39Z"/><path class="cls-37" d="M500.45,578.66l-7-4.06c-.57-.33-.49-.9.16-1.28l7-4a2.44,2.44,0,0,1,2.21-.09l7,4.06c.56.33.49.9-.16,1.27l-7,4A2.42,2.42,0,0,1,500.45,578.66Z"/><path class="cls-37" d="M511.32,584.94l-7-4.07c-.57-.32-.49-.89.16-1.27l7-4a2.5,2.5,0,0,1,2.21-.09l7,4.07c.56.32.49.89-.16,1.27l-7,4A2.48,2.48,0,0,1,511.32,584.94Z"/><path class="cls-37" d="M522.19,591.21l-7-4.06c-.57-.33-.49-.9.16-1.27l7-4a2.44,2.44,0,0,1,2.21-.09l7,4.06c.56.33.49.9-.16,1.27l-7,4A2.42,2.42,0,0,1,522.19,591.21Z"/><path class="cls-37" d="M533.06,597.49l-7-4.07c-.57-.32-.5-.89.16-1.27l7-4a2.5,2.5,0,0,1,2.21-.09l7,4.07c.57.32.5.89-.15,1.27l-7,4A2.48,2.48,0,0,1,533.06,597.49Z"/><path class="cls-37" d="M543.93,603.76l-7-4.06c-.57-.33-.5-.9.16-1.27l7-4a2.44,2.44,0,0,1,2.21-.09l7,4.06c.57.33.5.9-.15,1.28l-7,4A2.42,2.42,0,0,1,543.93,603.76Z"/><path class="cls-37" d="M554.8,610l-7-4.06c-.57-.33-.5-.9.16-1.28l7-4a2.47,2.47,0,0,1,2.21-.1l7,4.07c.57.32.5.89-.15,1.27l-7,4A2.45,2.45,0,0,1,554.8,610Z"/><path class="cls-37" d="M574.12,621.2l-15.36-8.87c-.56-.33-.49-.9.16-1.27l7-4a2.42,2.42,0,0,1,2.2-.09l15.36,8.86c.56.33.49.9-.16,1.28l-7,4A2.47,2.47,0,0,1,574.12,621.2Z"/><path class="cls-37" d="M595.28,609l-13-7.49c-.56-.32-.49-.89.16-1.27l7-4a2.5,2.5,0,0,1,2.21-.09l13,7.49c.57.32.49.89-.16,1.27l-7,4A2.5,2.5,0,0,1,595.28,609Z"/><path class="cls-37" d="M486.87,558.61l-7-4.07c-.57-.32-.5-.89.15-1.27l7-4a2.48,2.48,0,0,1,2.2-.09l7,4.07c.57.32.5.89-.16,1.27l-7,4A2.47,2.47,0,0,1,486.87,558.61Z"/><path class="cls-37" d="M475.73,552.17l-7-4.06c-.57-.33-.5-.9.15-1.27l7-4a2.42,2.42,0,0,1,2.2-.09l7,4.06c.57.33.5.9-.16,1.28l-7,4A2.44,2.44,0,0,1,475.73,552.17Z"/><path class="cls-37" d="M464.59,545.74l-7-4.06c-.57-.33-.5-.9.15-1.27l7-4a2.42,2.42,0,0,1,2.2-.09l7,4.06c.57.33.5.9-.16,1.27l-7,4A2.44,2.44,0,0,1,464.59,545.74Z"/><path class="cls-37" d="M453.45,539.31l-7-4.06c-.57-.33-.5-.9.15-1.28l7-4a2.42,2.42,0,0,1,2.2-.09l7,4.06c.57.33.5.9-.16,1.27l-7,4A2.44,2.44,0,0,1,453.45,539.31Z"/><path class="cls-37" d="M497.74,564.88l-7-4.06c-.57-.33-.5-.9.15-1.28l7-4a2.42,2.42,0,0,1,2.2-.09l7,4.06c.57.33.5.9-.16,1.27l-7,4A2.44,2.44,0,0,1,497.74,564.88Z"/><path class="cls-37" d="M508.61,571.16l-7-4.07c-.57-.32-.5-.89.15-1.27l7-4a2.48,2.48,0,0,1,2.2-.09l7,4.07c.57.32.5.89-.16,1.27l-7,4A2.5,2.5,0,0,1,508.61,571.16Z"/><path class="cls-37" d="M519.48,577.43l-7-4.06c-.57-.33-.5-.9.15-1.27l7-4a2.42,2.42,0,0,1,2.2-.09l7,4.06c.57.33.5.9-.16,1.28l-7,4A2.44,2.44,0,0,1,519.48,577.43Z"/><path class="cls-37" d="M530.35,583.71l-7-4.07c-.56-.32-.49-.89.16-1.27l7-4a2.45,2.45,0,0,1,2.2-.1l7,4.07c.57.32.49.89-.16,1.27l-7,4A2.5,2.5,0,0,1,530.35,583.71Z"/><path class="cls-37" d="M541.22,590l-7-4.06c-.56-.33-.49-.9.16-1.27l7-4a2.42,2.42,0,0,1,2.2-.09l7,4.06c.57.33.49.9-.16,1.28l-7,4A2.44,2.44,0,0,1,541.22,590Z"/><path class="cls-37" d="M552.09,596.26l-7-4.06c-.56-.33-.49-.9.16-1.28l7-4a2.42,2.42,0,0,1,2.2-.09l7,4.06c.57.33.49.9-.16,1.27l-7,4A2.44,2.44,0,0,1,552.09,596.26Z"/><path class="cls-37" d="M563,602.54l-7-4.07c-.56-.32-.49-.89.16-1.27l7-4a2.45,2.45,0,0,1,2.2-.09l7,4.06c.57.33.49.9-.16,1.28l-7,4A2.47,2.47,0,0,1,563,602.54Z"/><path class="cls-37" d="M573.83,608.81l-7-4.06c-.56-.33-.49-.9.16-1.28l7-4a2.42,2.42,0,0,1,2.2-.09l7,4.06c.56.33.49.9-.16,1.27l-7,4A2.44,2.44,0,0,1,573.83,608.81Z"/><path class="cls-37" d="M584.7,615.09l-7-4.07c-.56-.32-.49-.89.16-1.27l7-4a2.48,2.48,0,0,1,2.2-.09l7,4.07c.56.32.49.89-.16,1.27l-7,4A2.5,2.5,0,0,1,584.7,615.09Z"/><path class="cls-37" d="M481.15,543.08l-7-4.06c-.56-.33-.49-.9.16-1.27l7-4a2.42,2.42,0,0,1,2.2-.09l7,4.06c.56.33.49.9-.16,1.28l-7,4A2.44,2.44,0,0,1,481.15,543.08Z"/><path class="cls-37" d="M470.34,536.84l-7-4.06c-.57-.33-.5-.9.16-1.28l7-4a2.45,2.45,0,0,1,2.2-.1l7,4.07c.57.32.5.89-.16,1.27l-7,4A2.45,2.45,0,0,1,470.34,536.84Z"/><path class="cls-37" d="M459.52,530.59l-7-4.06c-.56-.33-.49-.9.16-1.27l7-4a2.47,2.47,0,0,1,2.21-.09l7,4.06c.56.33.49.9-.16,1.28l-7,4A2.42,2.42,0,0,1,459.52,530.59Z"/><path class="cls-37" d="M448.7,524.35l-7-4.06c-.57-.33-.5-.9.15-1.28l7-4a2.42,2.42,0,0,1,2.2-.09l7,4.06c.57.33.5.9-.16,1.27l-7,4A2.44,2.44,0,0,1,448.7,524.35Z"/><path class="cls-37" d="M459.83,517.93l-7-4.06c-.57-.33-.5-.9.16-1.28l2.3-1.33a2.44,2.44,0,0,1,2.21-.09l7,4.06c.57.33.5.9-.15,1.28L462,517.84A2.45,2.45,0,0,1,459.83,517.93Z"/><path class="cls-37" d="M473.94,526.08l-7-4.07c-.56-.32-.49-.89.16-1.27l2.31-1.33a2.42,2.42,0,0,1,2.2-.09l7,4.06c.56.33.49.9-.16,1.28l-2.3,1.33A2.5,2.5,0,0,1,473.94,526.08Z"/><path class="cls-37" d="M484.71,532.3l-7-4.07c-.56-.32-.49-.89.16-1.27l2.31-1.33a2.42,2.42,0,0,1,2.2-.09l7,4.06c.56.33.49.9-.16,1.27l-2.3,1.34A2.5,2.5,0,0,1,484.71,532.3Z"/><path class="cls-37" d="M495.48,538.52l-7-4.07c-.56-.32-.49-.89.16-1.27l2.31-1.33a2.42,2.42,0,0,1,2.2-.09l7,4.06c.57.33.49.9-.16,1.27l-2.3,1.33A2.47,2.47,0,0,1,495.48,538.52Z"/><path class="cls-37" d="M506.25,544.73l-7-4.06c-.56-.33-.49-.9.16-1.27l2.31-1.33a2.45,2.45,0,0,1,2.2-.1l7,4.07c.57.32.5.89-.16,1.27l-2.3,1.33A2.44,2.44,0,0,1,506.25,544.73Z"/><path class="cls-37" d="M566.38,579.45l-7-4.06c-.56-.33-.49-.9.16-1.28l2.31-1.33a2.45,2.45,0,0,1,2.2-.09l7,4.06c.57.33.5.9-.16,1.28l-2.3,1.33A2.44,2.44,0,0,1,566.38,579.45Z"/><path class="cls-37" d="M577.15,585.67l-7-4.07c-.56-.32-.49-.89.16-1.27l2.31-1.33a2.42,2.42,0,0,1,2.2-.09l7,4.06c.57.33.5.9-.16,1.28l-2.3,1.33A2.5,2.5,0,0,1,577.15,585.67Z"/><path class="cls-37" d="M587.92,591.89l-7-4.07c-.56-.32-.49-.89.16-1.27l2.31-1.33a2.42,2.42,0,0,1,2.2-.09l7,4.06c.57.33.5.9-.16,1.27l-2.3,1.34A2.5,2.5,0,0,1,587.92,591.89Z"/><path class="cls-37" d="M598.69,598.1l-7-4.06c-.57-.33-.5-.9.15-1.27l2.31-1.33a2.42,2.42,0,0,1,2.2-.09l7,4.06c.57.33.5.9-.16,1.27L600.9,598A2.44,2.44,0,0,1,598.69,598.1Z"/><path class="cls-37" d="M492,549.36l-7-4.06c-.56-.33-.49-.9.16-1.28l7-4a2.47,2.47,0,0,1,2.21-.1l7,4.07c.56.32.49.89-.16,1.27l-7,4A2.47,2.47,0,0,1,492,549.36Z"/><path class="cls-37" d="M502.89,555.64l-7-4.07c-.56-.33-.49-.89.16-1.27l7-4a2.44,2.44,0,0,1,2.21-.09l7,4.06c.56.33.49.9-.16,1.28l-7,4A2.47,2.47,0,0,1,502.89,555.64Z"/><path class="cls-37" d="M513.76,561.91l-7-4.06c-.56-.33-.49-.9.16-1.28l7-4a2.44,2.44,0,0,1,2.21-.09l7,4.06c.56.33.49.9-.16,1.27l-7,4A2.44,2.44,0,0,1,513.76,561.91Z"/><path class="cls-37" d="M524.63,568.19l-7-4.07c-.56-.32-.49-.89.16-1.27l7-4a2.5,2.5,0,0,1,2.21-.09l7,4.07c.56.32.49.89-.16,1.27l-7,4A2.45,2.45,0,0,1,524.63,568.19Z"/><path class="cls-37" d="M535.5,574.46l-7-4.06c-.56-.33-.49-.9.16-1.27l7-4a2.44,2.44,0,0,1,2.21-.09l7,4.06c.56.33.49.9-.16,1.27l-7,4A2.42,2.42,0,0,1,535.5,574.46Z"/><path class="cls-37" d="M546.37,580.74l-7-4.07c-.56-.32-.49-.89.16-1.27l7-4a2.5,2.5,0,0,1,2.21-.09l7,4.07c.56.32.49.89-.16,1.27l-7,4A2.48,2.48,0,0,1,546.37,580.74Z"/><path class="cls-37" d="M557.24,587l-7-4.06c-.56-.33-.49-.9.16-1.27l7-4a2.44,2.44,0,0,1,2.21-.09l7,4.06c.56.33.49.9-.16,1.28l-7,4A2.42,2.42,0,0,1,557.24,587Z"/><path class="cls-37" d="M568.11,593.29l-7-4.07c-.57-.32-.49-.89.16-1.27l7-4a2.47,2.47,0,0,1,2.21-.1l7,4.07c.56.32.49.89-.16,1.27l-7,4A2.48,2.48,0,0,1,568.11,593.29Z"/><path class="cls-37" d="M579,599.56l-7-4.06c-.57-.33-.49-.9.16-1.27l7-4a2.44,2.44,0,0,1,2.21-.09l7,4.06c.56.33.49.9-.16,1.28l-7,4A2.42,2.42,0,0,1,579,599.56Z"/><path class="cls-37" d="M429.88,550.13l-20.73-12c-.57-.33-.5-.9.16-1.28l7-4a2.42,2.42,0,0,1,2.2-.09l20.73,12c.57.33.5.9-.15,1.28l-7,4A2.42,2.42,0,0,1,429.88,550.13Z"/><path class="cls-37" d="M563.41,627.23l-20.73-12c-.56-.32-.49-.89.16-1.27l7-4a2.48,2.48,0,0,1,2.2-.09l20.73,12c.57.33.5.9-.16,1.27l-7,4A2.44,2.44,0,0,1,563.41,627.23Z"/><path class="cls-37" d="M519.94,616l-7-4.07c-.57-.32-.5-.89.15-1.27l8.31-4.8a2.5,2.5,0,0,1,2.21-.09l7,4.07c.56.32.49.89-.16,1.27l-8.31,4.8A2.5,2.5,0,0,1,519.94,616Z"/><path class="cls-37" d="M441,570.42l-11.26-6.5c-.56-.32-.49-.89.16-1.27l8.31-4.8a2.48,2.48,0,0,1,2.2-.09l11.26,6.5c.56.33.49.9-.16,1.28l-8.31,4.79A2.42,2.42,0,0,1,441,570.42Z"/><path class="cls-37" d="M509.47,610l-11.26-6.5c-.56-.33-.49-.9.16-1.27l8.31-4.8a2.44,2.44,0,0,1,2.21-.09l11.25,6.5c.57.33.5.9-.16,1.27l-8.3,4.8A2.44,2.44,0,0,1,509.47,610Z"/><path class="cls-37" d="M456.69,579.48,445.43,573c-.56-.33-.49-.9.16-1.27l8.31-4.8a2.44,2.44,0,0,1,2.21-.09l11.25,6.5c.57.32.5.89-.16,1.27l-8.3,4.8A2.5,2.5,0,0,1,456.69,579.48Z"/><path class="cls-37" d="M456.18,566.86l48.94,28.26a.67.67,0,0,1,0,1.27l-8.47,4.89a2.44,2.44,0,0,1-2.2,0L445.51,573Z"/><path class="cls-37" d="M550.32,627.38l7.84,4.52c.47.27.41.74-.13,1.05l-3.39,2a2,2,0,0,1-1.81.07L545,630.46c-.47-.27-.41-.74.13-1.05l3.4-2A2,2,0,0,1,550.32,627.38Z"/><path class="cls-37" d="M539.36,621.05l7.84,4.52c.47.27.41.74-.13,1l-3.39,2a2,2,0,0,1-1.81.07L534,624.13c-.47-.27-.41-.74.13-1l3.4-2A2,2,0,0,1,539.36,621.05Z"/><path class="cls-37" d="M528.49,614.77l7.84,4.53c.47.27.41.73-.13,1l-3.39,2a2,2,0,0,1-1.81.08l-7.84-4.53c-.46-.27-.41-.73.13-1l3.4-2A2,2,0,0,1,528.49,614.77Z"/><path class="cls-37" d="M545.37,617.58l7.84,4.53c.46.27.4.73-.13,1l-3.4,2a2,2,0,0,1-1.81.08L540,620.66c-.46-.27-.4-.73.13-1l3.4-2A2,2,0,0,1,545.37,617.58Z"/></g><path class="cls-48" d="M656.26,448.46a3.31,3.31,0,0,1-1.64-.47,4.8,4.8,0,0,1-2.3-4.85,2.43,2.43,0,0,1,1.38-1.75,2.94,2.94,0,0,1,2.61.28,4.79,4.79,0,0,1,2.29,4.85h0a2.32,2.32,0,0,1-2.34,1.94ZM654.67,442a1.63,1.63,0,0,0-.67.13,1.72,1.72,0,0,0-1,1.23,4,4,0,0,0,2,4,2.2,2.2,0,0,0,1.93.24,1.73,1.73,0,0,0,.94-1.23,4,4,0,0,0-1.94-4A2.49,2.49,0,0,0,654.67,442Z"/><path class="cls-48" d="M665.22,453.64a3.34,3.34,0,0,1-1.64-.47,4.82,4.82,0,0,1-2.3-4.85,2.44,2.44,0,0,1,1.38-1.76,2.94,2.94,0,0,1,2.61.28,4.82,4.82,0,0,1,2.3,4.85h0a2.41,2.41,0,0,1-1.38,1.75A2.44,2.44,0,0,1,665.22,453.64Zm-1.59-6.52a1.62,1.62,0,0,0-1.61,1.37,4,4,0,0,0,1.94,4,2.17,2.17,0,0,0,1.93.24,1.69,1.69,0,0,0,.94-1.23,4,4,0,0,0-1.94-4A2.59,2.59,0,0,0,663.63,447.12Z"/><path class="cls-48" d="M676.16,456.78c-.36,1.57-1.9,2.12-3.43,1.23a4.39,4.39,0,0,1-2.12-4.43c.36-1.57,1.9-2.12,3.43-1.24A4.39,4.39,0,0,1,676.16,456.78Z"/><polygon class="cls-48" points="504.32 357.89 499.52 355.12 499.89 352.9 504.69 355.67 504.32 357.89"/><polygon class="cls-48" points="511.28 361.91 506.49 359.14 506.86 356.93 511.66 359.69 511.28 361.91"/><polygon class="cls-48" points="497.42 353.9 486.91 347.84 487.28 345.62 497.79 351.69 497.42 353.9"/><ellipse class="cls-49" cx="398.8" cy="355.72" rx="20.14" ry="34.87" transform="translate(-124.43 247.07) rotate(-30)"/><path class="cls-48" d="M409.82,387.87a22.7,22.7,0,0,1-11.16-3.42c-13.69-7.9-24.82-27.17-24.82-43,0-7.72,2.62-13.48,7.38-16.23s11-2.12,17.74,1.73c13.68,7.9,24.81,27.18,24.81,43,0,7.71-2.62,13.48-7.38,16.22A12.94,12.94,0,0,1,409.82,387.87Zm-22-63.7a12.33,12.33,0,0,0-6.27,1.61c-4.56,2.63-7.07,8.21-7.07,15.7,0,15.61,11,34.65,24.51,42.45,6.49,3.75,12.57,4.36,17.13,1.73s7.07-8.21,7.07-15.7c0-15.61-11-34.65-24.5-42.46A22.19,22.19,0,0,0,387.79,324.17Z"/><path class="cls-50" d="M396.07,395.61a22.74,22.74,0,0,1-11.17-3.41c-13.68-7.9-24.81-27.18-24.81-43,0-7.72,2.62-13.48,7.37-16.22s11.06-2.14,17.74,1.72c13.69,7.9,24.82,27.18,24.82,43,0,7.72-2.62,13.48-7.38,16.22A13,13,0,0,1,396.07,395.61Zm-22-63.7a12.33,12.33,0,0,0-6.27,1.61c-4.57,2.63-7.08,8.21-7.08,15.7,0,15.61,11,34.65,24.51,42.45,6.5,3.75,12.58,4.37,17.14,1.73s7.07-8.21,7.07-15.7c0-15.61-11-34.65-24.51-42.45A22.1,22.1,0,0,0,374,331.91Z"/><path class="cls-51" d="M354.85,456.41v-7.15l8.41-42.64-8.36-5.15-16.73,9.26-.06,54.94c0,3.7,1.39,6.19,3.52,7h0l7.44,4.67.94-3.54,1.27-6.45A20.37,20.37,0,0,0,354.85,456.41Z"/><path class="cls-52" d="M354.84,477.18h0c-4.62,2.56-8.36-.29-8.36-6.36l.06-54.94,16.73-9.26-.06,54.94C363.21,467.63,359.46,474.62,354.84,477.18Z"/><path class="cls-53" d="M342.94,439.8l-.29-.17a1.25,1.25,0,0,0-1.36-.06h0l-1.91,1.11,1.28.25v.22l0,10.59a4.76,4.76,0,0,0,2,3.78l-.38,1.44,1.91-1.12h0a1.67,1.67,0,0,0,.77-1.65l-.05-10.59A4.73,4.73,0,0,0,342.94,439.8Z"/><path class="cls-29" d="M342.94,439.8l-.29-.17a1.25,1.25,0,0,0-1.36-.06h0l-1.91,1.11,1.28.25v.22l0,10.59a4.76,4.76,0,0,0,2,3.78l-.38,1.44,1.91-1.12h0a1.67,1.67,0,0,0,.77-1.65l-.05-10.59A4.73,4.73,0,0,0,342.94,439.8Z"/><path class="cls-4" d="M341,456.86l-.3-.17a4.78,4.78,0,0,1-2-3.79l0-10.59c0-1.47.88-2.14,2-1.51l.29.17a4.75,4.75,0,0,1,2,3.78l0,10.6C343,456.81,342.1,457.48,341,456.86Z"/><path class="cls-29" d="M354.84,477.18h0c4.62-2.56,8.37-9.55,8.37-15.62l.05-45.93v-6.34l-8,1.76-7.76,4.3-1.65-2L338.7,416l-.64,14.53v.34a9.09,9.09,0,0,0,7.61,8.86l.85.14,0,31C346.48,476.89,350.22,479.74,354.84,477.18Z"/><path class="cls-54" d="M392.56,384c.37-13.8-8.85-30.85-20.61-38.08-6.28-3.86-12-4.13-16.05-1.46h0l-38.59,20.89,28.61,54.12L385.61,398l.45-.24.18-.1h0C390,395.35,392.37,390.67,392.56,384Z"/><path class="cls-29" d="M392.55,384c.23-8.18-2.92-17.51-8-25.25-5.73,3.23-17.31,9.78-39.22,22.22-5.49,3.12-10.65,5.84-15.45,8.21l16,30.29L385.61,398l.45-.24.18-.1h0C390,395.35,392.37,390.67,392.55,384Z"/><ellipse class="cls-55" cx="331.6" cy="392.43" rx="17.67" ry="30.61" transform="matrix(0.88, -0.48, 0.48, 0.88, -146.82, 205.15)"/><path class="cls-56" d="M353.25,406.36c.39-14.33-9.19-32-21.41-39.55-5.55-3.42-10.69-4.13-14.68-2.55h0l-.08,0-.1,0-.52.24c-23.79,10.89-45.16,9.76-71.27,8l-7.4-.5,57.45,105,3.44-6.23c12.55-22.69,25.73-36,47.48-50.08C350.35,418.58,353.05,413.59,353.25,406.36Z"/><path class="cls-57" d="M298.67,470.87c12.55-22.69,25.73-36,47.48-50.08,4.2-2.21,6.9-7.2,7.1-14.43.22-8.22-2.84-17.55-7.79-25.44l-.1.06c-36,20.44-57.64,23.76-57.64,23.76l-10,31.84,3.06,14.1,14.45,26.42Z"/><path class="cls-58" d="M302.91,453.94c.76-27.5-17.63-61.47-41.07-75.88-11.69-7.18-22.42-8.14-30.34-3.89h0l-.05,0-.06,0-7.19,3.95,2.49-.45c-5.17,5.11-8.36,13.28-8.66,24-.75,27.5,17.63,61.47,41.07,75.88,9.2,5.65,17.81,7.45,24.92,5.89l-1.17,1.62,6.62-3.63.11-.06.23-.13h0C297.56,477,302.54,467.52,302.91,453.94Z"/><path class="cls-4" d="M297.78,456.74c.76-27.5-17.63-61.47-41.07-75.87-11.53-7.09-22.13-8.12-30-4.06l-1.1.6c-.38.22-.74.46-1.11.71l2.21-.4c-5.17,5.11-8.36,13.28-8.66,24-.75,27.5,17.63,61.47,41.07,75.88,9.2,5.65,17.81,7.45,24.92,5.89L283,485C291.7,481.13,297.38,471.3,297.78,456.74Z"/><ellipse class="cls-59" cx="253.89" cy="431.46" rx="35.22" ry="61.01" transform="translate(-174.77 172.86) rotate(-28.42)"/><ellipse class="cls-60" cx="253.89" cy="431.46" rx="30.9" ry="53.53" transform="translate(-174.77 172.87) rotate(-28.42)"/><path class="cls-29" d="M259.26,472a60.44,60.44,0,0,1-8.93-6.78,14.64,14.64,0,0,1-1-20.61c6.4-7.06,16.66-16.56,32.35-26.66-6.56-12.55-16-23.66-26.62-30.2-9.06-5.57-17.47-6.87-24.1-4.53l-.05,0-.74.29-.12.05-.67.29-.12.06-.71.35-.05,0a17.33,17.33,0,0,0-1.49.9l0,0c-.22.14-.43.29-.64.45l-.13.09-.55.43-.14.11c-.19.15-.37.31-.56.48l-.09.08c-.43.39-.85.8-1.26,1.24l-.05.06-.52.59a1.83,1.83,0,0,0-.13.16c-.15.17-.29.35-.43.53a1.33,1.33,0,0,0-.14.19l-.42.56-.12.17-.48.72,0,0-.5.82a.41.41,0,0,1-.05.09c-.13.24-.27.47-.4.72l-.12.23-.31.62c0,.09-.08.18-.13.27s-.19.42-.28.63l-.12.26c-.1.25-.21.5-.3.75a.87.87,0,0,0-.07.17c-.13.31-.24.63-.36,1l0,.13c-.09.27-.19.55-.27.84a2.81,2.81,0,0,0-.1.31c-.07.23-.13.46-.2.69s-.06.24-.1.36-.11.46-.17.69l-.09.36c-.06.26-.11.52-.17.78l-.06.29c-.07.36-.14.73-.2,1.1l0,.13-.15,1c0,.12,0,.25-.05.37s-.07.52-.1.78,0,.29,0,.44-.05.5-.08.76l0,.44-.06.83c0,.13,0,.26,0,.39,0,.41,0,.82-.05,1.24,0,.68,0,1.36,0,2.05,0,.25,0,.5,0,.74,0,.46,0,.92.05,1.38,0,.24,0,.47,0,.71q0,.81.12,1.62c0,.17,0,.34,0,.51.07.67.15,1.35.23,2l.12.84c.06.42.12.84.19,1.27s.11.65.17,1l.21,1.15c.07.34.13.68.2,1q.16.81.36,1.62c.11.5.24,1,.36,1.5l.21.82.36,1.31.21.7q.71,2.44,1.59,4.88c0,.08,0,.16.08.24.19.53.39,1.05.59,1.57.06.14.11.27.16.41,6.3,16.11,17.61,31.18,30.74,39.25,11.45,7,21.87,7.27,29,1.91C275.31,478.65,267.56,477.12,259.26,472Z"/><g class="cls-61"><polygon class="cls-62" points="248.48 422.26 304.54 381.32 318.75 422.38 258.36 441.13 248.48 422.26"/><path class="cls-63" d="M261.33,436c-.14,4.82-3.57,6.68-7.68,4.16a16.69,16.69,0,0,1-7.19-13.3c.13-4.82,3.56-6.68,7.67-4.15A16.69,16.69,0,0,1,261.33,436Z"/><g class="cls-64"><path class="cls-65" d="M266.76,413.54c5.36,3.29,9.57,11.07,9.4,17.36a8.09,8.09,0,0,1-1.81,5.32l45.67-13-14.71-42.5-43,31.37A9,9,0,0,1,266.76,413.54Z"/></g></g><path class="cls-66" d="M466.52,438.52l11.74,6.78c3.52,2,6.66,1.27,7.82-1.9L509.3,380c2.65-7.24,13.48-.69,15.77,9.54l14.29,63.83c1,4.67,4.28,9.32,7.95,11.44l3.42,2c3.31,1.92,6.31,1.36,7.62-1.4l4.73-10c2.93-6.21,12.7-.36,15.36,9.21h0c1.23,4.41,4.31,8.64,7.74,10.62l3,1.72c3.62,2.09,6.82,1.23,7.91-2.12l4.31-13.24c2.43-7.48,13.29-1.26,15.79,9l14.3,59.09c1.12,4.65,4.37,9.21,8,11.24L656,550.14Z"/><ellipse class="cls-67" cx="253.89" cy="431.46" rx="31.01" ry="53.7" transform="translate(-174.77 172.86) rotate(-28.42)"/><path class="cls-68" d="M629.42,772.84l-.24-.13a1,1,0,0,0-1.09,0h0l-1.47,1,1,.13c0,.06,0,.12,0,.18l.56,8.47a3.85,3.85,0,0,0,1.77,2.92l-.23,1.17,1.47-1h0a1.34,1.34,0,0,0,.53-1.36l-.56-8.47A3.79,3.79,0,0,0,629.42,772.84Z"/><path class="cls-29" d="M629.42,772.84l-.24-.13a1,1,0,0,0-1.09,0h0l-1.47,1,1,.13c0,.06,0,.12,0,.18l.56,8.47a3.85,3.85,0,0,0,1.77,2.92l-.23,1.17,1.47-1h0a1.34,1.34,0,0,0,.53-1.36l-.56-8.47A3.79,3.79,0,0,0,629.42,772.84Z"/><path class="cls-4" d="M628.72,786.57l-.25-.12a3.82,3.82,0,0,1-1.79-2.93l-.56-8.47c-.08-1.17.6-1.75,1.51-1.3l.25.12a3.79,3.79,0,0,1,1.78,2.93l.56,8.46C630.3,786.43,629.63,787,628.72,786.57Z"/><path class="cls-69" d="M669.71,734.86a18.21,18.21,0,0,1-9.1-2.18c-11.33-5.63-21.19-20.5-22-33.13-.38-6.17,1.42-10.91,5.09-13.34s8.73-2.25,14.27.5c11.33,5.64,21.19,20.5,22,33.13.38,6.17-1.43,10.91-5.09,13.34A10.43,10.43,0,0,1,669.71,734.86ZM648.92,685a9.87,9.87,0,0,0-4.93,1.59c-3.52,2.34-5.25,6.92-4.88,12.91.78,12.48,10.52,27.16,21.71,32.73,5.38,2.67,10.28,2.86,13.79.53s5.25-6.92,4.88-12.91c-.78-12.48-10.52-27.16-21.71-32.73A17.7,17.7,0,0,0,648.92,685Z"/><path class="cls-70" d="M639.77,785.52l-.35-5.71L644,745.3l-6.95-3.71-12.91,8.24,2.68,43.93c.19,3,1.42,4.89,3.16,5.43h0l6.19,3.37.57-2.88.7-5.22A16.4,16.4,0,0,0,639.77,785.52Z"/><path class="cls-71" d="M640.79,802.13h0c-3.56,2.28-6.7.19-7-4.66l-2.69-43.94L644,745.3l2.68,43.93C647,794.08,644.36,799.86,640.79,802.13Z"/><path class="cls-29" d="M640.79,802.13h0c3.57-2.27,6.22-8,5.92-12.9l-2.24-36.73-.32-5.07-6.3,1.81-6,3.82-1.42-1.55-5.59,2.5.2,11.64,0,.28a7.28,7.28,0,0,0,6.53,6.7l.68.07,1.52,24.77C634.09,802.32,637.23,804.41,640.79,802.13Z"/><path class="cls-72" d="M666.32,725.75c-.38-11-8.61-24.22-18.37-29.42-5.21-2.77-9.81-2.71-12.9-.37h0l-29.82,18.62,25.56,41.86,30.67-19.19.34-.22.14-.09h0C664.82,735,666.5,731.09,666.32,725.75Z"/><path class="cls-29" d="M666.32,725.75c-.23-6.55-3.21-13.85-7.64-19.78-4.41,2.86-13.35,8.67-30.25,19.71-4.24,2.77-8.23,5.2-11.95,7.33l14.31,23.43,30.67-19.19.34-.22.14-.09h0C664.82,735,666.5,731.09,666.32,725.75Z"/><ellipse class="cls-73" cx="618" cy="735.52" rx="14.16" ry="24.53" transform="translate(-295.77 438.98) rotate(-31.98)"/><path class="cls-74" d="M636,745.58c-.4-11.48-8.94-25.16-19.09-30.56-4.61-2.45-8.75-2.77-11.86-1.31h0l-.06,0-.08,0-.41.22c-18.48,9.89-35.62,10-56.58,10l-5.94,0L593.13,805l2.44-5.14c8.9-18.77,18.78-30.07,35.47-42.42C634.29,755.5,636.2,751.38,636,745.58Z"/><path class="cls-75" d="M595.57,799.89c8.9-18.77,18.78-30.07,35.47-42.42,3.25-2,5.16-6.09,5-11.89-.23-6.58-3.14-13.89-7.49-20l-.08,0c-27.77,18.14-44.91,21.86-44.91,21.86l-6.41,26,3.15,11.12L593.13,805Z"/><path class="cls-76" d="M598.12,786.13c-.77-22-17.16-48.28-36.62-58.63-9.7-5.16-18.33-5.4-24.46-1.6h0l0,0,0,0-5.55,3.52,2-.48c-3.89,4.34-6,11-5.73,19.66.76,22,17.15,48.28,36.61,58.63,7.64,4.06,14.61,5.07,20.22,3.47l-.85,1.35,5.11-3.23.08-.05.19-.11h0C595,804.82,598.49,797,598.12,786.13Z"/><path class="cls-4" d="M594.15,788.63c-.76-22-17.15-48.28-36.61-58.63-9.57-5.1-18.1-5.39-24.21-1.76l-.85.54c-.29.2-.57.41-.85.63l1.75-.43c-3.89,4.34-6,11-5.73,19.66.76,22,17.15,48.28,36.61,58.63,7.64,4.06,14.61,5.07,20.22,3.47L583.7,812C590.5,808.43,594.56,800.29,594.15,788.63Z"/><ellipse class="cls-77" cx="557.8" cy="770.6" rx="28.22" ry="48.88" transform="translate(-323.49 412.42) rotate(-31.98)"/><ellipse class="cls-78" cx="557.8" cy="770.6" rx="24.76" ry="42.88" transform="translate(-323.49 412.42) rotate(-31.98)"/><path class="cls-29" d="M564.11,802.76a47.2,47.2,0,0,1-7.48-5,11.72,11.72,0,0,1-1.8-16.43c4.76-6,12.5-14.07,24.54-22.93-5.86-9.7-14-18.12-22.78-22.82-7.52-4-14.31-4.63-19.5-2.42l0,0-.58.26-.09,0-.52.26-.1.06-.54.31,0,0c-.4.25-.78.51-1.15.79l0,0-.49.39a.39.39,0,0,1-.1.08l-.42.37-.1.1-.42.41a.23.23,0,0,0-.07.07,13.63,13.63,0,0,0-.95,1.05l0,0c-.14.16-.27.33-.4.5l-.09.13-.32.45s-.07.1-.1.16-.21.31-.31.47l-.08.14c-.12.19-.24.39-.35.6l0,0c-.12.23-.24.45-.35.68a.3.3,0,0,0,0,.08c-.1.19-.19.39-.28.59l-.09.19c-.07.17-.15.34-.22.52l-.09.22c-.07.17-.13.34-.2.52a1.8,1.8,0,0,1-.08.21c-.07.2-.13.41-.2.61,0,0,0,.1-.05.14-.08.26-.16.52-.23.79l0,.1-.18.69-.06.25-.12.57-.06.29c0,.18-.08.37-.11.56s0,.19-.05.29-.07.42-.1.63l0,.24c0,.29-.08.59-.11.89a.34.34,0,0,0,0,.1c0,.27,0,.53-.08.8,0,.1,0,.2,0,.3s0,.42,0,.63,0,.23,0,.35,0,.41,0,.61,0,.24,0,.36v1c0,.32,0,.65,0,1,0,.54.05,1.09.09,1.64,0,.2,0,.4,0,.59,0,.37.07.74.11,1.1l.06.57.18,1.29.06.4c.09.54.18,1.07.29,1.61,0,.22.09.44.13.66s.14.67.22,1l.18.77c.07.3.15.6.23.91s.13.53.21.8.24.85.36,1.27.24.79.37,1.18l.21.65c.11.34.23.69.35,1,.07.18.13.36.2.55.46,1.28,1,2.55,1.51,3.82a1.54,1.54,0,0,1,.08.19l.55,1.23.15.31c5.84,12.58,15.63,24.06,26.53,29.86,9.51,5.06,17.85,4.72,23.25.09C577.27,807.26,571,806.43,564.11,802.76Z"/><g class="cls-79"><polygon class="cls-80" points="553.01 763.51 595.81 727.99 609.22 760.11 561.86 778.1 553.01 763.51"/><path class="cls-81" d="M564,773.88c.14,3.86-2.52,5.52-5.93,3.7a13.36,13.36,0,0,1-6.41-10.27c-.14-3.86,2.52-5.52,5.93-3.7A13.36,13.36,0,0,1,564,773.88Z"/><g class="cls-64"><path class="cls-65" d="M567.2,755.62A17.51,17.51,0,0,1,575.58,769a6.49,6.49,0,0,1-1.18,4.34l35.87-12.68-13.88-33.25-32.8,27.22A7.17,7.17,0,0,1,567.2,755.62Z"/></g></g><ellipse class="cls-67" cx="557.8" cy="770.6" rx="24.84" ry="43.03" transform="translate(-323.49 412.42) rotate(-31.98)"/><path class="cls-82" d="M701.46,425.3c-18.8,0-37.59-4.11-51.91-12.35-14-8.05-21.74-18.8-21.76-30.27s7.66-22.25,21.64-30.36c28.72-16.65,75.5-16.74,104.27-.2h0c14,8.06,21.74,18.81,21.77,30.28s-7.67,22.25-21.65,30.36C739.4,421.12,720.42,425.3,701.46,425.3Zm.33-84.78c-18.83,0-37.66,4.15-52,12.45-13.74,8-21.29,18.52-21.27,29.71s7.61,21.71,21.38,29.62c28.57,16.42,75,16.33,103.52-.19,13.74-8,21.29-18.52,21.27-29.71s-7.61-21.71-21.38-29.62h0C739.11,344.6,720.45,340.52,701.79,340.52Z"/><path class="cls-83" d="M609.76,298c3.38-2,6.14-.38,6.14,3.54a13.58,13.58,0,0,1-6.12,10.65c-3.39,2-6.14.38-6.15-3.54A13.62,13.62,0,0,1,609.76,298Z"/><path class="cls-4" d="M610.12,298.17A13.61,13.61,0,0,0,604,308.82a4.48,4.48,0,0,0,1.63,3.86c-1.22-.59-2-2-2-4.07A13.62,13.62,0,0,1,609.76,298c1.78-1,3.39-1.08,4.51-.31A4.44,4.44,0,0,0,610.12,298.17Z"/><path class="cls-84" d="M595.13,289.55c3.39-2,6.14-.38,6.15,3.54a13.59,13.59,0,0,1-6.12,10.65c-3.39,2-6.15.38-6.15-3.54A13.58,13.58,0,0,1,595.13,289.55Z"/><path class="cls-85" d="M580.25,281c3.39-2,6.14-.38,6.15,3.53a13.59,13.59,0,0,1-6.13,10.65c-3.38,2-6.14.39-6.14-3.53A13.55,13.55,0,0,1,580.25,281Z"/><path class="cls-86" d="M605.44,312.59l7.61,4.37c-1.11-.64-1.8-2-1.81-4a13.58,13.58,0,0,1,6.12-10.65c1.65-1,3.14-1.07,4.24-.49l32.19,18.5-8.65,15.06L550.33,280.9a8.68,8.68,0,0,1,8.65-15l25.71,14.78c-1.12-.71-2.7-.64-4.44.37a13.55,13.55,0,0,0-6.12,10.65c0,2,.69,3.33,1.79,4h0l7.61,4.38c-1.11-.64-1.8-2-1.81-4a13.62,13.62,0,0,1,6.13-10.65,4.39,4.39,0,0,1,4.23-.49l7.48,4.3c-1.12-.7-2.69-.64-4.44.37A13.58,13.58,0,0,0,589,300.2c0,2,.69,3.33,1.8,4h0l7.61,4.37c-1.11-.64-1.8-2-1.8-4a13.55,13.55,0,0,1,6.12-10.65c1.64-.95,3.13-1.07,4.23-.49l7.22,4.15c-1.12-.7-2.69-.64-4.43.37a13.62,13.62,0,0,0-6.13,10.65c0,2,.69,3.33,1.8,4h0Z"/><path class="cls-4" d="M595.5,289.77a13.55,13.55,0,0,0-6.12,10.65,4.41,4.41,0,0,0,1.63,3.85c-1.23-.59-2-2-2-4.07a13.58,13.58,0,0,1,6.12-10.65c1.79-1,3.39-1.07,4.52-.31A4.42,4.42,0,0,0,595.5,289.77Z"/><path class="cls-4" d="M580.62,281.21a13.6,13.6,0,0,0-6.13,10.65,4.46,4.46,0,0,0,1.63,3.85c-1.22-.59-2-2-2-4.06A13.55,13.55,0,0,1,580.25,281c1.79-1,3.39-1.08,4.52-.32A4.42,4.42,0,0,0,580.62,281.21Z"/><path class="cls-87" d="M617.37,302.33A13.62,13.62,0,0,0,611.24,313c0,2,.7,3.34,1.81,4l-7.61-4.38h0c-1.1-.64-1.79-2-1.79-4A13.55,13.55,0,0,1,609.76,298c1.74-1,3.32-1.08,4.44-.37l7.4,4.25A4.39,4.39,0,0,0,617.37,302.33Z"/><path class="cls-88" d="M602.74,293.93a13.55,13.55,0,0,0-6.12,10.65c0,1.95.69,3.33,1.8,4l-7.6-4.37h0c-1.11-.64-1.8-2-1.8-4a13.57,13.57,0,0,1,6.12-10.65c1.75-1,3.32-1.08,4.44-.37l7.41,4.26A4.35,4.35,0,0,0,602.74,293.93Z"/><path class="cls-89" d="M587.86,285.37A13.55,13.55,0,0,0,581.74,296c0,2,.69,3.33,1.8,4l-7.61-4.37h0c-1.1-.64-1.79-2-1.79-4A13.55,13.55,0,0,1,580.25,281c1.74-1,3.32-1.08,4.44-.38l7.4,4.26C591,284.3,589.5,284.42,587.86,285.37Z"/><path class="cls-90" d="M645.53,361.82c0,.45,0,.91,0,1.37l18.73,15.66,30.32,11.29L716,385.35l20.43-5.84,20.82-16,.53-.43a19.22,19.22,0,0,0-.19-3.86l11-14.64a33,33,0,0,1,4.06,6.55l2.44-2v13.47h0c-.29,10.62-7.42,21.19-21.44,29.32-28.65,16.61-75.17,16.7-103.89.19-14.25-8.19-21.43-18.93-21.56-29.7h0V362l0-13.3,2.61,2.19A32.49,32.49,0,0,1,633,347C636.31,352.59,639.57,359.46,645.53,361.82Z"/><path class="cls-91" d="M752.36,331.32c.39.22.79.42,1.17.64a51,51,0,0,1,15.06,12.6l-11,14.64c-1.09-7.35-6.49-14.53-16.25-20.14-21.95-12.62-57.5-12.55-79.4.15-10.8,6.26-16.24,14.43-16.37,22.61-6-2.36-9.22-9.23-12.52-14.81a44.4,44.4,0,0,1,11.27-11.38l-2.53.52s17.27-15,17.91-15.14,35.19-9.29,35.19-9.29l38.91,3.41Z"/><ellipse class="cls-92" cx="700.61" cy="353.29" rx="56.14" ry="32.41" transform="translate(-0.67 1.32) rotate(-0.11)"/><ellipse class="cls-93" cx="700.51" cy="357.22" rx="56.14" ry="32.41" transform="translate(-0.67 1.32) rotate(-0.11)"/><path class="cls-15" d="M753.52,318.78c-28.72-16.51-75.24-16.42-103.9.2s-28.61,43.47.11,60,75.24,16.42,103.9-.2S782.24,335.29,753.52,318.78Zm-12.24,7.1c22,12.61,22,33.14.09,45.84s-57.45,12.76-79.4.14-22-33.14-.08-45.83S719.33,313.26,741.28,325.88Z"/><path class="cls-94" d="M753.52,318.78c-28.72-16.51-75.24-16.42-103.9.2s-28.61,43.47.11,60,75.24,16.42,103.9-.2S782.24,335.29,753.52,318.78Zm-12.24,7.1c22,12.61,22,33.14.09,45.84s-57.45,12.76-79.4.14-22-33.14-.08-45.83S719.33,313.26,741.28,325.88Z"/><path class="cls-95" d="M649.36,377.83c28.72,16.51,75.23,16.43,103.89-.19,17.64-10.23,24.39-24.34,20.28-37.52,4.86,13.5-1.76,28.12-19.9,38.64-28.66,16.62-75.18,16.71-103.9.2-11-6.35-17.82-14.23-20.39-22.46C632.16,364.32,638.82,371.77,649.36,377.83Z"/><path class="cls-96" d="M661.51,324.9c21.9-12.7,57.45-12.77,79.39-.15,8.51,4.89,13.71,11,15.63,17.31-2.18-5.94-7.25-11.59-15.25-16.18-21.95-12.62-57.49-12.55-79.39.15-13.42,7.77-18.59,18.49-15.55,28.52C642.55,344.2,647.59,333,661.51,324.9Z"/><path class="cls-97" d="M482.23,277.44c23.13,0,41.89-13.45,41.89-30.05s-18.76-30-41.89-30-41.9,13.45-41.9,30a21.71,21.71,0,0,0,.33,3.79h0a.36.36,0,0,1,0,.11c2.78,17.2,26.52,30.69,37.8,36.19a1.22,1.22,0,0,0,1.61-1.68,14.32,14.32,0,0,1-1.67-6.33,2,2,0,0,1,2-2.06Q481.33,277.44,482.23,277.44Z"/><path class="cls-98" d="M504.77,222.06a26.32,26.32,0,0,1,3.82,9.67.52.52,0,0,0,0,.11h0a22.6,22.6,0,0,1,.33,3.78c0,16.6-18.76,30.06-41.9,30.06A54.43,54.43,0,0,1,444.49,261c7.82,12.52,24.93,22.1,34,26.52a1.22,1.22,0,0,0,1.61-1.68,14.32,14.32,0,0,1-1.67-6.33,2,2,0,0,1,2-2.06q.87,0,1.77,0c23.13,0,41.89-13.45,41.89-30.05C524.12,236.75,516.41,227.4,504.77,222.06Z"/><circle class="cls-99" cx="464.75" cy="248.72" r="8.48"/><circle class="cls-4" cx="464.13" cy="248.47" r="8.48"/><circle class="cls-99" cx="465.37" cy="248.98" r="8.48"/><path class="cls-100" d="M467,240.49a8.46,8.46,0,0,1-10.11,12.37A8.48,8.48,0,1,0,467,240.49Z"/><circle class="cls-99" cx="485.69" cy="248.72" r="8.48"/><circle class="cls-4" cx="485.07" cy="248.47" r="8.48"/><circle class="cls-99" cx="486.3" cy="248.98" r="8.48"/><path class="cls-100" d="M487.94,240.49a8.47,8.47,0,0,1-10.12,12.37,8.48,8.48,0,1,0,10.12-12.37Z"/><circle class="cls-99" cx="506.62" cy="248.72" r="8.48"/><circle class="cls-4" cx="506" cy="248.47" r="8.48"/><circle class="cls-99" cx="507.24" cy="248.98" r="8.48"/><path class="cls-100" d="M508.87,240.49a8.46,8.46,0,0,1-10.11,12.37,8.48,8.48,0,1,0,10.11-12.37Z"/></g></g></svg>