<svg xmlns="http://www.w3.org/2000/svg" xmlns:xlink="http://www.w3.org/1999/xlink" viewBox="0 0 1080 1080"><defs><style>.cls-1{fill:#072560;}.cls-2{fill:none;}.cls-3{isolation:isolate;}.cls-4{fill:#e0e1e2;}.cls-4,.cls-65{opacity:0.3;}.cls-18,.cls-5{fill:#2251af;}.cls-5{opacity:0.2;}.cls-6{fill:#1c4d93;}.cls-7{fill:#fff;}.cls-8{fill:#e1cfd8;}.cls-9{fill:#f5eaef;}.cls-10{fill:#143c83;}.cls-11{fill:url(#linear-gradient);}.cls-12{fill:#295eaa;}.cls-13{fill:#e677d7;}.cls-14{fill:url(#linear-gradient-2);}.cls-15{fill:#245baa;}.cls-16{fill:url(#linear-gradient-3);}.cls-17{fill:url(#linear-gradient-4);}.cls-19{fill:#d1b3c2;}.cls-20{fill:#f9f2f6;}.cls-21{fill:#c07a2d;}.cls-22{fill:#eee;}.cls-23{fill:#fcbe9f;}.cls-24{fill:#3162c4;}.cls-25{fill:#542d0e;}.cls-26{fill:#838077;}.cls-27{fill:#fff2dd;}.cls-28{fill:#f2a883;}.cls-29{fill:#e8a34f;}.cls-30{fill:#3d3d3d;}.cls-31{fill:#232323;}.cls-32{fill:#1e1a1d;}.cls-33{fill:#4198c4;}.cls-34{fill:#986148;}.cls-35{fill:#2b2119;}.cls-36{fill:#8e5b1e;}.cls-37{fill:#6c3526;}.cls-38{fill:#ededed;}.cls-39{fill:url(#linear-gradient-5);}.cls-40{fill:#c1a491;}.cls-41{fill:url(#linear-gradient-6);}.cls-42{fill:#996148;}.cls-43{fill:#3a2b21;}.cls-44{fill:#89543f;}.cls-45{fill:#f5f5f5;}.cls-46{fill:#487ecc;}.cls-47{fill:#fbaf88;}.cls-48{fill:#bcb9b5;}.cls-49{fill:url(#linear-gradient-7);}.cls-50{opacity:0.1;fill:url(#linear-gradient-8);}.cls-50,.cls-68,.cls-71{mix-blend-mode:multiply;}.cls-51{fill:url(#linear-gradient-9);}.cls-52{fill:#fbfffb;}.cls-53{fill:url(#linear-gradient-10);}.cls-54{fill:#dddad7;}.cls-55{fill:url(#linear-gradient-11);}.cls-56{fill:#2b2825;}.cls-57{fill:#fbbd9e;}.cls-58{fill:#d5e3ea;}.cls-59{fill:#724a2f;}.cls-60{fill:url(#Áåçûìÿííûé_ãðàäèåíò_3);}.cls-61{fill:url(#Áåçûìÿííûé_ãðàäèåíò_3-2);}.cls-62{fill:url(#Áåçûìÿííûé_ãðàäèåíò_3-3);}.cls-63,.cls-64,.cls-65{mix-blend-mode:screen;}.cls-63{fill:url(#Áåçûìÿííûé_ãðàäèåíò_5);}.cls-64{fill:#c7deff;}.cls-65{fill:#afc6ff;}.cls-66,.cls-67{fill:#7399f1;}.cls-66,.cls-74{opacity:0.5;}.cls-68,.cls-71{fill:#999;}.cls-68{opacity:0.19;}.cls-69{clip-path:url(#clip-path);}.cls-70{clip-path:url(#clip-path-2);}.cls-71{opacity:0.35;}.cls-72{fill:#a7aac6;}.cls-73{fill:#dcdcdc;}.cls-75{fill:url(#Áåçûìÿííûé_ãðàäèåíò_3-4);}.cls-76{clip-path:url(#clip-path-3);}.cls-77{fill:#00304c;}.cls-78{fill:#00324f;}.cls-79{fill:#003452;}.cls-80{fill:#003655;}.cls-81{fill:#003858;}.cls-82{fill:#003a5b;}.cls-83{fill:#003c5d;}.cls-84{fill:#003d60;}.cls-85{fill:#003f63;}.cls-86{fill:#004166;}.cls-87{fill:#004369;}.cls-88{fill:#00456c;}.cls-89{fill:#00476f;}.cls-90{fill:#004972;}.cls-91{fill:#004a75;}.cls-92{fill:#6c74af;}</style><linearGradient id="linear-gradient" x1="472.4" y1="376.04" x2="408.56" y2="486.61" gradientUnits="userSpaceOnUse"><stop offset="0" stop-color="#089bcb"/><stop offset="1" stop-color="#143c83"/></linearGradient><linearGradient id="linear-gradient-2" x1="497.97" y1="516.43" x2="641.02" y2="516.43" xlink:href="#linear-gradient"/><linearGradient id="linear-gradient-3" x1="682.54" y1="443.98" x2="562.13" y2="618.8" xlink:href="#linear-gradient"/><linearGradient id="linear-gradient-4" x1="646.66" y1="409.54" x2="524.23" y2="621.6" gradientUnits="userSpaceOnUse"><stop offset="0" stop-color="#143c83"/><stop offset="1" stop-color="#089bcb"/></linearGradient><linearGradient id="linear-gradient-5" x1="489.07" y1="607.8" x2="494.57" y2="633.24" xlink:href="#linear-gradient"/><linearGradient id="linear-gradient-6" x1="481.35" y1="625.21" x2="510.7" y2="625.21" xlink:href="#linear-gradient-4"/><linearGradient id="linear-gradient-7" x1="587.63" y1="685.01" x2="628.92" y2="685.01" xlink:href="#linear-gradient"/><linearGradient id="linear-gradient-8" x1="597.02" y1="682.1" x2="610.87" y2="682.1" xlink:href="#linear-gradient"/><linearGradient id="linear-gradient-9" x1="597.02" y1="680.5" x2="610.87" y2="680.5" xlink:href="#linear-gradient"/><linearGradient id="linear-gradient-10" x1="604.87" y1="683.79" x2="636.48" y2="683.79" xlink:href="#linear-gradient"/><linearGradient id="linear-gradient-11" x1="587.63" y1="690.8" x2="612.2" y2="690.8" xlink:href="#linear-gradient"/><linearGradient id="Áåçûìÿííûé_ãðàäèåíò_3" x1="432.88" y1="350.25" x2="444.29" y2="350.25" gradientUnits="userSpaceOnUse"><stop offset="0" stop-color="#afc6ff"/><stop offset="1" stop-color="#98b7ff"/></linearGradient><linearGradient id="Áåçûìÿííûé_ãðàäèåíò_3-2" x1="435.96" y1="363.7" x2="462.38" y2="363.7" xlink:href="#Áåçûìÿííûé_ãðàäèåíò_3"/><linearGradient id="Áåçûìÿííûé_ãðàäèåíò_3-3" x1="454.53" y1="361.15" x2="465.36" y2="361.15" xlink:href="#Áåçûìÿííûé_ãðàäèåíò_3"/><radialGradient id="Áåçûìÿííûé_ãðàäèåíò_5" cx="536.03" cy="678.04" r="40.38" gradientUnits="userSpaceOnUse"><stop offset="0" stop-color="#afc6ff"/><stop offset="0.01" stop-color="#acc3fb"/><stop offset="0.39" stop-color="#637091"/><stop offset="0.68" stop-color="#2e3443"/><stop offset="0.9" stop-color="#0d0e13"/><stop offset="1"/></radialGradient><clipPath id="clip-path"><path class="cls-1" d="M468.41,722.23l.43,6.43c-1.84-10.09-25.71-8.52-26.2,1.74l-.43-6.44C442.7,713.71,466.58,712.13,468.41,722.23Z"/></clipPath><clipPath id="clip-path-2"><path class="cls-1" d="M441.54,742.35l.24,3.54c-1.12-5.57-14-4.71-14.4,1l-.23-3.53C427.52,737.64,440.43,736.79,441.54,742.35Z"/></clipPath><linearGradient id="Áåçûìÿííûé_ãðàäèåíò_3-4" x1="733.8" y1="582.99" x2="795.85" y2="582.99" xlink:href="#Áåçûìÿííûé_ãðàäèåíò_3"/><clipPath id="clip-path-3"><path class="cls-2" d="M734.64,542.48c.84-.51,1.54-1,2.63-.32l-.86.49A1.81,1.81,0,0,0,734.64,542.48Z"/></clipPath></defs><g class="cls-3"><g id="Layer_1" data-name="Layer 1"><ellipse class="cls-4" cx="528.81" cy="627.12" rx="255.29" ry="147.4"/><ellipse class="cls-5" cx="679.47" cy="663.14" rx="15.26" ry="8.81"/><path class="cls-5" d="M369.23,644.87c6,3.44,6,9,0,12.46s-15.62,3.44-21.58,0-6-9,0-12.46S363.27,641.42,369.23,644.87Z"/><ellipse class="cls-5" cx="321.88" cy="640.05" rx="15.26" ry="8.81"/><path class="cls-5" d="M504.7,664.57c-7.76-4.48-20.34-4.48-28.1,0s-7.76,11.74,0,16.22,20.34,4.48,28.1,0S512.45,669.05,504.7,664.57Z"/><path class="cls-5" d="M442.45,677.72c8.9,5.13,8.9,13.47,0,18.6s-23.33,5.14-32.23,0-8.9-13.47,0-18.6S433.55,672.58,442.45,677.72Z"/><ellipse class="cls-5" cx="716.72" cy="650.3" rx="15.26" ry="8.81"/><polygon class="cls-1" points="316.68 503.75 313.57 501.94 320 509.8 323.11 511.61 316.68 503.75"/><path class="cls-1" d="M324.6,461c-1.09-.63-2.6-.54-4.26.42l3.11,1.81c1.66-1,3.17-1.05,4.27-.42Z"/><path class="cls-1" d="M269,524.35,269,501.56l-3.11-1.81.07,22.79c0,1.89.67,3.22,1.75,3.85l3.11,1.81C269.71,527.57,269,526.24,269,524.35Z"/><polygon class="cls-1" points="320.33 461.38 271.86 489.37 274.97 491.18 323.45 463.19 320.33 461.38"/><path class="cls-1" d="M271.86,489.37a13.21,13.21,0,0,0-6,10.38l3.11,1.81a13.21,13.21,0,0,1,6-10.38Z"/><path class="cls-6" d="M323.45,463.19c3.31-1.92,6-.37,6,3.44l.07,22.79a13.17,13.17,0,0,1-6,10.36l-.47.27,0,11.56-6.43-7.86-41.61,24c-3.32,1.92-6,.39-6-3.42L269,501.56a13.21,13.21,0,0,1,6-10.38Z"/><path class="cls-7" d="M272.37,527.66c-1.49,0-2.38-1.24-2.39-3.32l-.06-22.78a12.4,12.4,0,0,1,5.52-9.57l48.48-28a4.62,4.62,0,0,1,2.22-.69c1.49,0,2.38,1.24,2.39,3.33l.06,22.78a12.17,12.17,0,0,1-5.51,9.55l-.94.54,0,9.45-5.26-6.43L274.6,527A4.6,4.6,0,0,1,272.37,527.66Z"/><path class="cls-5" d="M689.25,635.13l-6.46-3.73a6.5,6.5,0,0,0-5.89,0l-7.63,4.41L557.13,613.39,504.52,583l5.14-3c2.91-1.68,2.91-4.4,0-6.08L475.58,554.3c-16.05-9.27-42.08-9.27-58.14,0l-21.8,12.58c-16.05,9.27-16.05,24.3,0,33.57l34.08,19.68a11.63,11.63,0,0,0,10.53,0l5.91-3.41L498,646.64,537.28,712l-7.64,4.41c-1.63.94-1.63,2.46,0,3.4l6.46,3.73a6.48,6.48,0,0,0,5.88,0l147.27-85C690.88,637.59,690.88,636.07,689.25,635.13Z"/><g class="cls-3"><path class="cls-8" d="M438.53,497l0,82.67a15.18,15.18,0,0,0,6.89,11.93l14.32,8.26c1.91,1.11,3.64,1.22,4.9.51s3.26-2.25,3.27-4.45l5.52-85.94Z"/><path class="cls-9" d="M466.68,513.2l0,82.67c0,2.18-.77,3.71-2,4.43l19-11.06c1.24-.72,2-2.25,2-4.43l0-82.67Z"/></g><path class="cls-10" d="M647.85,435l-85.28,15.37c13.47-2.29,23.26,6.71,23.57,23.93.23,12.64-4.7,27-12.58,39.14-5.58,8.59-12.64,16.09-20.4,21.11l-1.53.95c-15.67,9.36-29.16,5.64-34-7.73l27.25,81.43c10.83,29.7,41.2,39.59,76,18.8,1.14-.68,3.89-1.59,5-2.32a163.58,163.58,0,0,0,46.74-47.05c17.52-27,29.56-61.31,29-89.39C701,451,677.78,429.94,647.85,435Z"/><path class="cls-10" d="M513.09,399.61c-8.42-4.89-20.14-4.07-33,3.61-21.69,13-39.51,41.18-43.49,67a68.47,68.47,0,0,0-.83,11.57C436,495.62,441,505.32,449,509.93a29.1,29.1,0,0,0,17.2,3.64c8.68-.76,16.1-4.62,19.75-6.85,24.65-15.08,43-47.65,42.67-75.77C528.25,424.19,527.48,408.37,513.09,399.61Z"/><path class="cls-11" d="M474,377a22.23,22.23,0,0,0-2.13-1.06c-7.26-3.55-14.42-5.36-25.54-3.9-8.24,1.08-19.06,6-26.3,12a85.86,85.86,0,0,0-22.65,28.15c-4.25,8.61-9.22,21.79-8.8,35.66.69,22.51,12,33.87,21.3,39.44l39,22.62c-7.93-4.61-12.93-14.31-13.19-28.12-.51-28.47,19.33-63.65,44.32-78.59,12.86-7.68,24.58-8.5,33-3.61Z"/><path class="cls-12" d="M514.66,409.71c-7.36-4.27-17.62-3.54-28.86,3.18-21.89,13.07-39.26,43.87-38.8,68.8.22,12.08,4.58,20.56,11.52,24.61l51,29.74,56.23-96.74Z"/><ellipse class="cls-13" cx="550.9" cy="495.38" rx="49.68" ry="28.78" transform="translate(-154.21 722.78) rotate(-59.84)"/><ellipse id="Cylinder_face" data-name="Cylinder face" class="cls-12" cx="601.47" cy="524.87" rx="45.49" ry="26.26" transform="translate(-153.82 783.32) rotate(-60)"/><path id="Cylinder_face-2" data-name="Cylinder face" class="cls-10" d="M585.27,534.22c0,10.33,7.25,14.52,16.2,9.35s16.19-17.72,16.19-28.05-7.25-14.51-16.19-9.35S585.27,523.9,585.27,534.22Z"/><path id="Cylinder_body" data-name="Cylinder body" class="cls-10" d="M624.42,485.6,579.2,459.49c-5.84-3.5-14-3.06-23,2.13-17.76,10.26-32.17,35.2-32.17,55.72,0,10.13,3.52,17.29,9.22,20.7l45.22,26.11c-5.7-3.41-9.21-10.57-9.21-20.7,0-20.52,14.4-45.46,32.17-55.72C610.46,482.54,618.59,482.11,624.42,485.6Z"/><path class="cls-14" d="M500.38,524.77l32.82,84.45c-3.1-8-4.87-17.43-5.07-28.27-1-52.74,35.8-117.92,82.1-145.58,10.83-6.47,21.21-10.31,30.79-11.73l-89.6,13.29a40.29,40.29,0,0,0-14.58,5.55c-21.91,13.1-39.31,43.95-38.86,68.91a39.17,39.17,0,0,0,2.4,13.38Z"/><path class="cls-15" d="M622.62,633c-47,28.1-85.94,7.45-86.91-46.12S572.07,467.13,619.09,439,705,431.59,706,485.16,669.65,604.93,622.62,633Zm76.53-143.76c-.9-49.25-36.67-68.24-79.91-42.41s-77.57,86.7-76.67,136,36.67,68.23,79.91,42.4,77.56-86.7,76.67-136Z"/><path class="cls-16" d="M622.17,634.09c30-18.34,49.47-45.61,60.54-65.25,11.16-19.8,24.39-50.56,24-84.69a1.21,1.21,0,0,1-.7,1c1,53.57-36.36,119.77-83.39,147.86s-85.94,7.45-86.91-46.12S572.07,467.13,619.09,439,705,431.59,706,485.16a1.21,1.21,0,0,0,.7-1c-.58-12.06-2-40.29-26-54.92-16.15-9.39-38.64-7.81-63.32,6.93-47.95,28.65-86,96.16-85,150.78.48,26.51,10.08,45.12,25.31,54a48,48,0,0,0,28.4,5.86,86.44,86.44,0,0,0,36.09-12.68Z"/><path class="cls-17" d="M675.15,426a41.8,41.8,0,0,0-8.29-3.64l-.32-.1c-.47-.15-.94-.31-1.42-.44-9-2.69-20.69-3.18-37.34,2.7A109.25,109.25,0,0,0,604.12,437a158.84,158.84,0,0,0-26.89,23.55c-26.38,27.75-52.41,78.64-51.11,122.2.42,14.27,2.49,23.69,7.62,34.77a44,44,0,0,0,7.14,10.79A50.77,50.77,0,0,1,534,617.42a49.51,49.51,0,0,0,9.7,13.78c-.93-.88-1.87-1.83-2.82-2.89a40.18,40.18,0,0,0,10.47,8.91l-.77-.52c.51.32,1,.67,1.53,1l5.57,3.24c-15.23-8.85-24.83-27.46-25.31-54-1-54.62,37.08-122.13,85-150.78,24.68-14.74,47.17-16.32,63.32-6.93Z"/><path class="cls-10" d="M423.72,479.85,401.44,467c-2.49-1.44-4.51-4.63-4.51-7.12s2-3.35,4.51-1.91l22.28,12.86c2.49,1.44,4.51,4.63,4.51,7.12S426.21,481.29,423.72,479.85Z"/><path class="cls-10" d="M512,398.93a19.25,19.25,0,0,0-3.4-1.55,26.78,26.78,0,0,0-13.32-1,47.19,47.19,0,0,0-17.62,7.06,45.67,45.67,0,0,0-4.35,3,53.19,53.19,0,0,0-4.26,3.39,88.61,88.61,0,0,0-8,7.68,107.13,107.13,0,0,0-12.66,17.62,88.44,88.44,0,0,0-4.49,8.9c-1.27,2.9-2.41,5.68-3.27,8.3a72.32,72.32,0,0,0-2.14,7.23c-.54,2.17-.87,4.1-1.22,5.67-.43,3.17-.67,5-.67,5s.43-1.78,1.17-4.89A111.35,111.35,0,0,1,442,452.87c1-2.54,2.23-5.22,3.62-8s3-5.64,4.72-8.57a104.14,104.14,0,0,1,12.65-17,85.28,85.28,0,0,1,7.61-7.6c1.33-1.17,2.66-2.32,4.05-3.33a43.6,43.6,0,0,1,4.2-3,48.41,48.41,0,0,1,16.65-7.51,27.53,27.53,0,0,1,12.9,0,22.44,22.44,0,0,1,3.48,1.2l1.2.55Z"/><path class="cls-18" d="M346.49,629.1l3.45,2,10.77-6.18,25,14.45L375,645.54l3.43,2,69-39.58L444,606l-4.24,2.43-25-14.45,4.24-2.42-3.45-2Zm83.19-15-25-14.44,6.82-3.9,25,14.44ZM419.53,620l-25-14.44,6.8-3.9,25,14.45Zm-10.14,5.82-25-14.44,6.8-3.9,25,14.45Zm-10.16,5.83-25-14.45,6.81-3.9,25,14.45ZM364.06,623l6.8-3.89,25,14.45-6.8,3.89Z"/><polygon class="cls-19" points="349.92 629.23 353.32 628.47 360.51 597.73 357.11 598.49 349.92 629.23"/><polygon class="cls-19" points="358.08 594.32 361.48 593.56 367.28 568.75 363.88 569.51 358.08 594.32"/><polygon class="cls-20" points="383.1 608.76 386.5 608 361.48 593.56 358.08 594.32 383.1 608.76"/><polygon class="cls-19" points="364.85 565.35 368.25 564.58 374.06 539.74 370.66 540.5 364.85 565.35"/><polygon class="cls-20" points="389.87 579.79 393.27 579.03 368.25 564.58 364.85 565.35 389.87 579.79"/><polygon class="cls-19" points="371.63 536.34 375.03 535.57 380.83 510.77 377.43 511.53 371.63 536.34"/><polygon class="cls-20" points="396.65 550.78 400.05 550.02 375.03 535.57 371.63 536.34 396.65 550.78"/><polygon class="cls-19" points="378.4 507.36 381.8 506.6 387.6 481.8 384.2 482.56 378.4 507.36"/><polygon class="cls-20" points="403.42 521.81 406.82 521.04 381.8 506.6 378.4 507.36 403.42 521.81"/><polygon class="cls-19" points="385.18 478.39 388.57 477.63 394.38 452.79 390.98 453.55 385.18 478.39"/><polygon class="cls-9" points="391.95 449.38 395.36 448.62 399.37 431.44 395.97 432.21 391.95 449.38"/><polygon class="cls-20" points="395.97 432.21 399.37 431.44 395.91 429.45 392.51 430.21 395.97 432.21"/><polygon class="cls-20" points="410.19 492.83 413.59 492.07 388.57 477.63 385.18 478.39 410.19 492.83"/><polygon class="cls-20" points="416.97 463.82 420.37 463.06 395.36 448.62 391.95 449.38 416.97 463.82"/><polygon class="cls-20" points="424.41 448.63 427.81 447.87 424.39 445.89 420.99 446.65 424.41 448.63"/><polygon class="cls-9" points="378.37 645.65 381.77 644.89 427.81 447.87 424.41 448.63 378.37 645.65"/><path class="cls-8" d="M392,449.38l25,14.44,4-17.17,3.42,2-46,197-3.43-2,7.18-30.74-25-14.44-7.19,30.74-3.45-2,46-197,3.46,2Zm-27.11,116,25,14.45L395.68,555l-25-14.44-5.81,24.83Zm20.33-87,25,14.44L416,468l-25-14.44-5.8,24.84Zm-27.1,115.93,25,14.44,5.8-24.8-25-14.45-5.8,24.81Zm20.32-87,25,14.45,5.8-24.81-25-14.44-5.8,24.8Zm-6.77,29,25,14.44,5.8-24.8-25-14.45-5.8,24.81Z"/><path class="cls-21" d="M312.21,639.73a34.33,34.33,0,0,1,5.91-4.15,28.12,28.12,0,0,0,4.42.1c3.11-.15,6.75-.54,9.43-2.33a10.16,10.16,0,0,1,0,1.83,2.57,2.57,0,0,1-1.6,2.61c-7.19,4.4-8.18,5-9.48,5.63-1.47.73-3.27,1.65-7.14.55-2-.87-2.09-1.68-2-2.4C311.81,641.19,311.72,640.17,312.21,639.73Z"/><path class="cls-22" d="M312.6,639.06c1.76-1.43,6.09-4.32,8.23-6.23a6.74,6.74,0,0,0,1.26-2.3c.83-1.92,6.29-2.32,8.74-1,1.16.6,1.37,2.58,1.24,4.41a2.57,2.57,0,0,1-1.61,2.61c-7.19,4.4-8.76,5.19-10.1,5.77a7.68,7.68,0,0,1-5.44.47,4.84,4.84,0,0,1-2.53-1.39A1.39,1.39,0,0,1,312.6,639.06Z"/><path class="cls-23" d="M323.09,628.09a2.22,2.22,0,0,1,.71-1.1,2.27,2.27,0,0,1,1-.36,7.69,7.69,0,0,1,4.84.9l.93.43a4,4,0,0,1,.41,2.68,1,1,0,0,1-.57,1c-2.31,1.65-7.9,1-7.81-.92A8.83,8.83,0,0,1,323.09,628.09Z"/><path class="cls-21" d="M362.28,655.85c-2.38,1.87-8,2.43-9.33-.77-.62-1.49,1.84-11.23,2.09-14.05.07-.81.19-2.23.19-2.23.23-.26,1.07-.43,1.39-.56,1.38-.57,3.8.13,5.3.13.76,0,1.13,5.11,1.16,5.62C363.3,647.09,364.13,654.39,362.28,655.85Z"/><path class="cls-22" d="M362.41,654.18c-2.38,1.87-8,2.43-9.33-.78-.62-1.49,1.62-11.21,1.87-14,.07-.81.19-2.23.19-2.23.23-.27,1.29-.44,1.61-.58,1.38-.57,3.8.14,5.3.14.76,0,1.13,5.11,1.16,5.62C363.43,645.42,364.26,652.72,362.41,654.18Z"/><path class="cls-23" d="M355.31,636.32a2,2,0,0,1,.56-1,1.94,1.94,0,0,1,.88-.38,6.79,6.79,0,0,1,4.3.5l.84.32a3.57,3.57,0,0,1,.51,2.33.92.92,0,0,1-.44.89c-1.93,1.57-6.86,1.38-6.9-.35A8.15,8.15,0,0,1,355.31,636.32Z"/><path class="cls-24" d="M357.12,599.87a26.85,26.85,0,0,0,.42,6.59,30,30,0,0,0,1.8,4.63c2.34,5.39,2.16,8.66,2.72,14.52a93,93,0,0,1,.68,10.27c.05,2.87-7.51,3.86-8.36,1-3.07-15.32-7.46-18.72-10.38-33.16-.63-3.14-4-16.7-4-16.7-1,5.57-4.11,18.1-4.36,21.06a58,58,0,0,1-.82,7.68c-.81,4-2.29,5.24-3.3,13.45-.14,2.41-9.3,2.5-9.06-.34a154.48,154.48,0,0,0,.73-15.52,59.18,59.18,0,0,1,.75-9.94c.11-.69.2-1.39.25-2.09.44-6.85-2.61-8.38,3.44-35.52,2.62-9,25.15-2.08,26.62,4.28C355.08,580.34,357.12,589.5,357.12,599.87Z"/><path class="cls-1" d="M307.84,533.94c5-4.48,18.74-15.86,26.7-14.72,1.13,5-.28,9.46-4.93,13.09l-15.31,8-.12,5.69a3.12,3.12,0,0,1-1.89,3,5.83,5.83,0,0,1-3.6.47c-2.63-.43-2.8-2.34-2.8-6.15,0-1.67,0-3.55,0-5A5.88,5.88,0,0,1,307.84,533.94Z"/><path class="cls-1" d="M354.88,526.5a12.67,12.67,0,0,1,3.68,3.14c1.63,2.29,1.68,5.4.94,8.11-1.44,5.27-7.44,8.94-7.44,19.92,0,8.12,2.7,7,5,21,.71,4.3-8,6-16.37,5.6-.06-1.8-.67-11.95-.8-16.14l-9.65-.91c-.77,6.33-2,14.75-2,14.75-3-1.16-3.92-4.33-3.75-7l2.35-15a31.75,31.75,0,0,0,.38-10.06c-.75-6.14-1.95-16.29-2.37-21a10,10,0,0,1,1.22-5.5C331.25,514.3,346.84,521.35,354.88,526.5Z"/><path class="cls-1" d="M351.4,534.36c1.42-2.42,2.55-5.19,1.34-8.16-1.09-2.66-6.47-4.74-8.57-5.54-2.3-.88-8.19-2.59-11.3-.35-1.91,1.37-3.26,5.76-3.09,9.16.15,3,.13,30.66.37,37.16l10.26,1S342.43,549.58,351.4,534.36Z"/><path class="cls-7" d="M349.66,531.74c-7.94,11.84-9.81,36.68-9.42,43.64-3.88.78-9.91-1.44-10.75-2.39,0,0,3.56-40.77,3.32-45.1-.4-7.15,3.69-9.2,10.84-6.46C346.32,522.45,354,525.34,349.66,531.74Z"/><path class="cls-25" d="M310.18,544.09c2.09,0,3.78,1.21,3.78,2.7V547c0,1.49-1.69,2.7-3.78,2.7s-3.78-1.21-3.78-2.7v-.16C306.4,545.3,308.09,544.09,310.18,544.09Z"/><path class="cls-23" d="M312.15,545.6a4.78,4.78,0,0,1,2.47-.56c.36.08.69.29,1,.39a13.62,13.62,0,0,0,1.43.18c2.12.37,2.16,2.32,2.42,4a2.09,2.09,0,0,1-.18,1.56c-.15.22-.39.37-.49.62a2.57,2.57,0,0,0-.11.48,1.83,1.83,0,0,1-1.59,1.26c-2.48.39-6.92-2-8.17-2.76a3.54,3.54,0,0,1-1.85-2.78c0-1.26.44-3.1,3.61-3A2.38,2.38,0,0,1,312.15,545.6Z"/><path class="cls-26" d="M308.91,546.35c-.89.65-1.42,1.39-1,3.69a2.79,2.79,0,0,1-.92-2.25,2.4,2.4,0,0,1,1.14-2.15,3.68,3.68,0,0,1,3-.67,3.22,3.22,0,0,1,1,.63A4.83,4.83,0,0,0,308.91,546.35Z"/><path class="cls-26" d="M308.39,545.43c0,.47.72.86,1.61.86s1.6-.39,1.6-.86-.72-.86-1.6-.86S308.39,545,308.39,545.43Z"/><path class="cls-27" d="M308.68,545.33c0,.4.6.72,1.33.72s1.33-.32,1.33-.72-.6-.71-1.33-.71S308.68,544.94,308.68,545.33Z"/><path class="cls-28" d="M334.28,522.58c-1.44,4.41-.15,10.43,4.79,11.78,4.15,1.14,8.57-2.46,10-6.88S335.72,518.16,334.28,522.58Z"/><path class="cls-28" d="M336.75,530.82c1,1.27,1.34,1.77,2.15,1.93,2.54.49,7.52-4.14,6.81-9.11a1.43,1.43,0,0,0-.46-.86c-1.13-1-2.5-2.85-3.42-6.57a1.58,1.58,0,0,0-2.57-.83c-3.07,2.63-5.33,7.6-5.21,9.7C334.11,526.27,336,529.85,336.75,530.82Z"/><path class="cls-23" d="M342.87,522.74c-.48,2.65-2.46,5.32-4.36,7.22-1.07,1.07-2.07,1.94-3.22,1.72-.85-.16-2.39-2.33-2.9-3-4.48-6.27-4.85-7.26-5.35-8.11-1-1.74-1.8-3.09.24-4.64,1.29-1,5.12-3.11,6.72-3.37a8.29,8.29,0,0,1,4.2.09,6.68,6.68,0,0,1,2.25,1.52c1.11,1.06,3.76,2.61,3.84,4.14S344.3,521.44,342.87,522.74Z"/><path class="cls-29" d="M332,520.77c-2.3.12-4.56-.12-5.23-.67-2-1.45-1.51-3.65-1.27-5a15.94,15.94,0,0,1,3.25-6.29,10.23,10.23,0,0,1,5.65-2.94c6.16-.94,9.88,2.77,11.11,7.84.44,1.85.24,3.39.63,6.43.35,2.71-.06,4.35-1.86,4.35-1,0-1.47-1.22-1.59-1.64A1.06,1.06,0,0,1,343,522a4.08,4.08,0,0,0,.93-2.35,1.67,1.67,0,0,0-.83-1.37,1.4,1.4,0,0,0-1.49.2c-1,.61-1.23,2.2-1.15,3.26.1,1.36-1.19,1.74-1.43,1.42C336.36,519.5,333.73,520.68,332,520.77Z"/><path class="cls-30" d="M336.7,528.52a1.29,1.29,0,0,1,.22-.39l6.54-7.47a.85.85,0,0,1,.17-.16.51.51,0,0,1,.35-.07l.49.11-4.9,13.69-.49-.11a.5.5,0,0,1-.33-.3l-2-4.38A1.22,1.22,0,0,1,336.7,528.52Z"/><path class="cls-31" d="M337.41,528.24l6.53-7.47a.64.64,0,0,1,.17-.16.45.45,0,0,1,.69.23l2,4.37a1.33,1.33,0,0,1-.21,1.32L340.1,534l-.18.15a.45.45,0,0,1-.69-.23l-2-4.37A1.31,1.31,0,0,1,337.41,528.24Z"/><path class="cls-23" d="M337.27,526.75a1.37,1.37,0,0,1,1.15.1c.1,0,.42.17.49.09s-1.11-.84-1.28-1c-.86-.67-.08-1.45,1.74-.63.59.26,2.47,1.62,3,1.39.24-.09-.07-.69-.59-1.62a6.8,6.8,0,0,0-1.26-1.61c-.22-.21-.46-.43-.65-.63-.63-.64-.2-1.44.74-.88.17.11.56.41.94.71a7,7,0,0,1,1.39,1.49c.69,1,2.21,3.36,2.7,3.46l1-1.18a27,27,0,0,0,.31,3.84c.18,1.16,1.14,5.7,1.37,7.05a36.06,36.06,0,0,1-5,2.16,6.64,6.64,0,0,0-1.13-2.68,9.8,9.8,0,0,1-2.47-3.21c-.43-.94-.7-2-1.19-2.86a6.25,6.25,0,0,1-1.06-2.3c0-.43-.08-.34-.36-.58A.72.72,0,0,1,337.27,526.75Z"/><path class="cls-1" d="M348.93,534.9l.78,2.58c1.36-2.11,2.6-3.48,3.72-6.82.24-.74.57-1.75,1.29-2,4.54-1.76,5.21,3.49,5.43,5.19.19,1.44.64,18.64-.19,25.91a4.93,4.93,0,0,1-2.28,3.63l-1.27.8a2.66,2.66,0,0,1-3.61-.73c-3.94-5.73-10.14-22.79-10.78-24.95C341.29,536.05,348.32,532.87,348.93,534.9Z"/><path class="cls-1" d="M348.93,534.9l11,24.83a4.93,4.93,0,0,1-2.28,3.63l-1.27.8a2.66,2.66,0,0,1-3.61-.73c-3.94-5.73-10.14-22.79-10.78-24.95C341.29,536.05,348.32,532.87,348.93,534.9Z"/><path class="cls-10" d="M441.49,582c-.33-.33-.84-5.33-1.18-10.89-.38-6.06-.73-12.69-5-12.06l-3,15.93s1.31,8.18,2.27,11.68c.83,3.06,14.46,10.75,14.46,10.75,1.7,1.06,4.26-3,3.24-4.26C452.28,593.17,443.82,584.46,441.49,582Z"/><path class="cls-10" d="M461.1,599c0-.6-2.94-3.66-3.51-3.84a30.75,30.75,0,0,0-3.49-.66,7,7,0,0,1-1.81-.87c-.82-.51-3.76,3.14-2.92,3.7a12.37,12.37,0,0,1,1.09,1.59,11.66,11.66,0,0,0,1.44,1.91,6.54,6.54,0,0,0,3.24,1.5C455.73,602.47,461.22,600.58,461.1,599Z"/><path class="cls-10" d="M462.52,602.67a1.28,1.28,0,0,1-.44.09l-10.21,0a1,1,0,0,1-.25,0,.51.51,0,0,1-.29-.22l-.25-.44L465,596.57l.24.45a.5.5,0,0,1,0,.46l-2,4.56A1.29,1.29,0,0,1,462.52,602.67Z"/><path class="cls-10" d="M461.83,602.32l-10.21,0a.88.88,0,0,1-.24,0,.46.46,0,0,1-.29-.69l2-4.55a1.4,1.4,0,0,1,1.17-.73l10.21,0a.88.88,0,0,1,.24,0,.47.47,0,0,1,.29.69l-2,4.55A1.35,1.35,0,0,1,461.83,602.32Z"/><path class="cls-32" d="M426.67,679.45a4.5,4.5,0,0,0,.65,2.86c1.31,1.05,8.76,5.61,12,6.07,3.71.53,6.15-1.33,6.28-2.61a4.92,4.92,0,0,0-.19-2.15c-.35-1-4.05-3-8.37-5.24-3.24-1.67-4.9-3-7.19-2.49A3.63,3.63,0,0,0,426.67,679.45Z"/><path class="cls-21" d="M439.57,687c-3.28-.46-10.72-5-12-6.07a4.21,4.21,0,0,1-.87-1.24,3.9,3.9,0,0,0,.65,2.68c1.31,1.06,8.75,5.62,12,6.08,3.71.52,6.17-1.34,6.29-2.62a3.74,3.74,0,0,0,0-.89C445,686.15,442.77,687.47,439.57,687Z"/><path class="cls-33" d="M434.45,677c-1.21-1.05-1.34-2.79-.89-5.39,0-.21.08-.4.12-.61-2,.1-4,.17-6,.19a33,33,0,0,1,.1,4.65c0,.43-.05.89-.06,1.42a1.65,1.65,0,0,0,.85,1.51,8.27,8.27,0,0,0,3.49,1.12C433.88,680.05,437,679.18,434.45,677Z"/><path class="cls-33" d="M427.05,649.34c-1.93,4.95-1.15,10.65-.39,16.17.39,2.9.72,6.74.79,9,.06,2,6.24,1.94,6.14,0a21.94,21.94,0,0,1,.3-2.81c.46-2.7,1.09-5.16,1.7-7.54.55-2.12,1.11-4.31,1.56-6.69.3-1.55.6-3,.89-4.52.46-2.27.9-4.44,1.26-6.55a125.88,125.88,0,0,0-.16-41.64,10.35,10.35,0,0,0-3.4-6A5.8,5.8,0,0,0,432,597c-4,.12-6.19,7.49-6.88,23.29,1.34,6.19,3.95,22.76,4,22.85a12.52,12.52,0,0,1-1.34,4.57C427.52,648.21,427.28,648.75,427.05,649.34Z"/><path class="cls-21" d="M409.4,691.63c1.75,1.91,6.44,3.16,8,.63.74-1.18,0-9.78.17-12.21l.14-1.91c-.15-.26-.84-.52-1.1-.67-1.09-.68-3.24-.42-4.51-.62-.65-.11-1.67,4.18-1.77,4.6C409.74,684.06,408,690.14,409.4,691.63Z"/><path class="cls-32" d="M409.52,690.19c1.76,1.91,6.44,3.17,8,.63.74-1.18.42-10.36.51-12.79.11-2.64-2-3.46-3.77-3.32a3.16,3.16,0,0,0-2.64,2.06c-.44,1.18-1.1,3-1.17,3.25C409.86,682.62,408.15,688.7,409.52,690.19Z"/><path class="cls-34" d="M418.4,671.82c0-.33-4.64-1.21-4.64-1.21-.14,1.19-1.7,6.34-1.76,6.74a2.84,2.84,0,0,0,2.47,3.44,2.52,2.52,0,0,0,3.07-2.44C417.57,677.68,418.48,672.48,418.4,671.82Z"/><path class="cls-33" d="M428.68,611.47a7.58,7.58,0,0,0-2.51-2.86,14.49,14.49,0,0,0-7.42-2.8c-.3,0-.61,0-.91,0a7.48,7.48,0,0,0-5.47,2c-1.53,1.58-1.92,3.88-2.1,5.92-.73,8.47,1.59,17.09,3.82,25.43.54,2,.75,4.55,1.24,6.53-5,9.25-1,11.73-2.44,27.65-.49,2.08,5,3.22,5.31,1.53.44-2.16,7.47-24.71,8-29,.79-6.41,1-13.66,1.86-20,.39-3.06.8-6.22,1.07-9.32A9.63,9.63,0,0,0,428.68,611.47Z"/><path class="cls-10" d="M440.37,582.75c2.62-4.26-1.8-9-2-13.3-.09-1.67.32-4.5,0-6.77a4.32,4.32,0,0,0-4.5-3.79c-5.78.36-22.7,6-23.25,11.13-.2,1.88,1.84,5.18,2.44,6.84,2.33,6.51,2.85,9.42,4.58,15.07.68,2.19.84,3.49-.68,6.59-.92,1.88-3.31,4.7-5.08,8.91-.4,3.41,10.1,8.68,18.86,6.72l1.16-5.43,1.84,4.42c4.69-.85,6.75-6.44,6.06-8.28a84.24,84.24,0,0,1-3.38-8.64c-1.11-4-.27-6.72,1.73-10C438.91,584.93,439.35,584.4,440.37,582.75Z"/><polygon class="cls-10" points="423.18 560.92 422.25 562.55 423.15 563.59 425.16 561.81 425.73 559.84 423.18 560.92"/><path class="cls-10" d="M430.86,568.63a3.45,3.45,0,0,1-2.5,1.46c-2.29.51-6.56-2.56-6-7.1a1.32,1.32,0,0,1,.39-.79c1-1,1.67-2.94,2.42-6.35.24-1.06,2-1.22,2.85-.53,2.85,2.31,5,6.78,5,8.69C432.94,565.09,431.51,567.73,430.86,568.63Z"/><path class="cls-10" d="M429.35,569.68l5.19.28a19.23,19.23,0,0,0-3.86-8.67C433.56,567.92,429.35,569.68,429.35,569.68Z"/><path class="cls-10" d="M430,569.5,425,573.6a10.24,10.24,0,0,1-4.25-6.4,6.65,6.65,0,0,1,.38-4.22,7.94,7.94,0,0,1,2.1-2.06s-1.58,2.71,1,6.16A6.31,6.31,0,0,0,430,569.5Z"/><path class="cls-34" d="M414.8,615.19c-1.6-1.81-1.85-.87-3.84-2.35-.33-1-3.14-.77-3.14.7a6.18,6.18,0,0,1-.24.84c-.63,2,.45,6,.66,6.85a28.64,28.64,0,0,0,2.8,3.49,2.66,2.66,0,0,0,.94.49c1.33,2.42,2.56,2,2.2.75-.65-2.33-1.3-4.5-1.3-4.5a20.3,20.3,0,0,1,.63-3.44c.28-.36.75-.13,1.11.14,1.44,1.06,3.08,1.27,3.67.73s-.53-1-.85-1.23A11.91,11.91,0,0,1,414.8,615.19Z"/><path class="cls-10" d="M405.34,589.45C404.4,597.3,407,612.2,407,614c0,2.22,6.25,1.74,6-.74-.62-5.79-.81-18.73-.44-19.71.93-2.5,7.7-19.63,3.14-25C409.91,561.85,406.4,580.65,405.34,589.45Z"/><path class="cls-35" d="M437.51,565.26c-2.19-4.47-2.28-10.37-1.86-15.26a9.49,9.49,0,0,0-1.06-2,2.7,2.7,0,0,0-2.37-1.09c-2.85.22-1.93,8.74-.37,16,.09.44.2.88.32,1.32.48,1.69,1.54,5,3.7,5.3C437.85,569.76,438.3,566.88,437.51,565.26Z"/><path class="cls-34" d="M434.66,552.92c0,1-.25,1.89-.28,2.84,0,.8.08,1.59.06,2.38a39,39,0,0,1-.93,4.89c-.45,2.92-1.15,4.52-6.27,1.31-2.23-1.39-7.51-6.67-7.48-8.32a14.4,14.4,0,0,1,1.09-4.8,11.58,11.58,0,0,1,2.48-4.16,4.86,4.86,0,0,1,4.26-1.49,7.55,7.55,0,0,1,1.44.53c1.26.55,3.31,1,4.28,2.08A8.16,8.16,0,0,1,434.66,552.92Z"/><path class="cls-35" d="M417.63,571c1,2.07,2.85,4.7,5.3,4.18,1.87-.4,1.4-1.87,1.84-4.87a11.39,11.39,0,0,0,0-4.43c-.31-1.23-1-2.36-1.15-3.6a1.91,1.91,0,0,1,.12-1.16,4.63,4.63,0,0,1,1.49-1.56c1.3-1,1-2.44,1-4.16,0-1.52.55-3.78,4.86-4.88,3.45-2.46,3.74.34,3.51,2.86a8.36,8.36,0,0,0,1-4.71c-.53-4.53-3.89-9.53-8.72-9a5.89,5.89,0,0,0-1.55.59A6.69,6.69,0,0,0,421,541.5a9.64,9.64,0,0,0-4.32,6.67c-.54,2.25-.28,7.06-.3,9.37-.08,7.56-3.56,8.5-3.59,9.33C414.11,566.5,416.27,568.22,417.63,571Z"/><path class="cls-34" d="M460.08,597.18c.8.38,0,1.05-.88.89-2.31-.45-1.7-1.53-3.51-1.78-.53-.07-.89-.12-.84-.65.06-.77-1.19-1.06-.43-1a11.19,11.19,0,0,1,3.35.54C458.5,595.63,459.5,596.91,460.08,597.18Z"/><path class="cls-36" d="M485,660.15a23.93,23.93,0,0,1-2.55-3,17.94,17.94,0,0,1-2.8-8.42,5.66,5.66,0,0,0-2.3,1.09c-.8.75-.95,1.08-.89,2.56.22,4.84.82,9.42,1,10.69.11.89.19,1.57.29,2.12a3.56,3.56,0,0,0,2.56,2.8,9.86,9.86,0,0,0,1.51.32C485.81,668.66,485.4,662.18,485,660.15Z"/><path class="cls-37" d="M485.55,665.72c-.08-2-.3-6.43-.19-9a5.91,5.91,0,0,1,.87-2.15c.85-1.64-1.82-5.89-4.18-6.57a5.94,5.94,0,0,0-3.72,1.62c-.79.74-1,1.34-.88,2.82.45,7.62,1,11.25,1.14,13.07C479,669.41,485.68,669.12,485.55,665.72Z"/><path class="cls-38" d="M487.34,652.56a2,2,0,0,0,.36-1.1,2.13,2.13,0,0,0-.33-.91,6.81,6.81,0,0,0-3.33-2.82l-.81-.39a3.51,3.51,0,0,0-2.07,1.22.91.91,0,0,0-.35.93c.17,2.51,3.71,6,5,4.84A7.59,7.59,0,0,0,487.34,652.56Z"/><path class="cls-36" d="M494.17,677.94c2.11,1.86,7.28,2.67,8.7-.23.65-1.35-.9-10.92-1.33-13.52-.12-.74-.34-2-.34-2-.23-.24-1-.33-1.33-.43-1.32-.43-3.51.4-4.89.51-.71,0-1.21,5.44-1.21,5.91C493.8,671,492.52,676.49,494.17,677.94Z"/><path class="cls-37" d="M494.13,676.38c2.11,1.86,7.29,2.67,8.7-.23.66-1.35-.9-10.91-1.33-13.5-.12-.75-.34-2-.34-2-.23-.23-1.22-.32-1.53-.42-1.32-.43-3.8.51-5.19.51a14,14,0,0,0-.33,3.38,41,41,0,0,1-.39,4.42C493.29,671.63,492.86,675.25,494.13,676.38Z"/><path class="cls-38" d="M500.93,659.55a1.89,1.89,0,0,0-.59-.89,1.79,1.79,0,0,0-.84-.28,6.24,6.24,0,0,0-3.95.76l-.76.36a3.3,3.3,0,0,0-.31,2.2.87.87,0,0,0,.47.79c1.91,1.32,6.46.79,6.37-.82A7.29,7.29,0,0,0,500.93,659.55Z"/><path class="cls-1" d="M472.08,577.78s.4-1.16,1.11-2.92a40.69,40.69,0,0,0,2.47-9.84c.47-3.43,2.07-7.69,8.06-10.4l-1.38,20.57s-1.81,7.8-5.26,9.79c-3,.88-14.81.31-14.81.31-2.31-.26-3.25-5.56-1.76-5.94C460.51,579.35,468.08,577.78,472.08,577.78Z"/><path class="cls-39" d="M488.68,635.53c.23,1.49.75,4.23.88,5.74,0,.19,9.24-5.47,9.62-6.29a7.55,7.55,0,0,0,.54-3.06c.28-9.37-2.89-30.85-7.82-32.15-3.28-.87-5.83-3.11-8.25-4.47-.21.66-1.33,1-1.46,2.4,0,.33-.08.7-.1,1.07-.36,4.94-.16,12.58,1.36,18C486.65,628.29,487.68,628.88,488.68,635.53Z"/><path class="cls-40" d="M501.2,643c.2,5.71.71,10.64,1.22,15.62.39,3.87-9.3,4.64-9.88,2-1.05-4.84-1.45-9.73-2.08-14.68C490.79,645.84,501.2,643,501.2,643Z"/><path class="cls-41" d="M495.19,633.54s-12,11-13.26,12.36c-2.21,2.23,2.43,10.08,5.1,8.55,0,0,20.81-11,21.56-15,1.53-8.13,2-21.18,2.11-32.4,0-3.32-.74-10.13-1.94-11.33.38.72-8,4.25-8.75,4.34a22.66,22.66,0,0,1-8.57-.45C491.12,602.72,495.19,622.5,495.19,633.54Z"/><path class="cls-1" d="M494.81,553.07a39,39,0,0,1,13.41,3.37c2.6,1.12,5.37,2.75,6.13,5.55a10.79,10.79,0,0,1-.25,5,68.42,68.42,0,0,1-3,10.78c-1,2.64-3.46,6.1-3.31,9,.19,3.59,1.2,7.38,1.74,10.94.11.71-.39,2.89-7.16,4.27a31.46,31.46,0,0,1-14.66-.44c-3.31-.92-5.9-2.29-5.55-4.14.9-4.81,1.9-13.11,1.67-14.4a17.59,17.59,0,0,0-1.24-3.71,51.69,51.69,0,0,1-4.19-15.36,12,12,0,0,1,.27-4.26C480.49,553.53,489.77,552.82,494.81,553.07Z"/><path class="cls-40" d="M489.87,605.42c-2.47-.55-6.61-1.78-7.88-4a4.15,4.15,0,0,1,0-.6,3.62,3.62,0,0,0,.2.49c1.14,2,5.5,3.28,7.76,3.77,5.5,1.09,13.13-.09,16.86-1.56,1.28-.5,3.17-1.44,3.41-2.79,0,.16.05.32.07.48-.51,1.22-2.14,2.09-3.37,2.57C503.64,605.13,495.85,606.65,489.87,605.42Z"/><path class="cls-1" d="M515,585.84c0-1.2-6.89-12.11-9.35-16.75l4.51-11.72a16.94,16.94,0,0,1,7.44,8.89c1.89,5,4.18,14,5.62,19.15.51,1.84-5.18,9.09-6.62,11.52-.79,1.32-5-1.39-4.45-2.76S515,587.33,515,585.84Z"/><path class="cls-9" d="M505.33,606.34a.88.88,0,0,1-.72-1c.23-.83.62-.77,1.12-.9a2.23,2.23,0,0,0,1.53-1.2c.21-.48.66-.47,1.2-.22C510.26,603.85,507.06,606.72,505.33,606.34Z"/><path class="cls-42" d="M504.31,599.18c.06-.41.32-.62.53-1s.26-1.14.57-1.58a14.16,14.16,0,0,1,3.1-1.81,7.36,7.36,0,0,1,1.93-.26c.87,0,1.28.17,1.95-.22,1.3-.75,4.18,1.53,3.71,2.65-1.59,3.81-5.26,7.78-7.51,7.4a8.47,8.47,0,0,1-3.54-2.25C504.11,601.21,504,601.23,504.31,599.18Z"/><path class="cls-42" d="M446.63,582.13a.69.69,0,0,1,.31-.18c.5-.17,6.41-1.59,6.68-1.74a.83.83,0,0,0,.42-.78c-.06-.75-1.42-1.22-1.9-1.63-1.68-1.46-.7-2.66,1-1.56a8.55,8.55,0,0,0,3.67,1.46,3.47,3.47,0,0,1,2.29,1.16,5.72,5.72,0,0,0,.53.45,1.67,1.67,0,0,0,.74.32c1.72-.26,2.73,5.24,1.61,5.48a4.69,4.69,0,0,0-2.25.89,5.69,5.69,0,0,1-3.17.81c-.88,0-1.13-.48-1-.83a2,2,0,0,1-1.68.76c-.77-.07-.86-.79-.53-1.3a2.52,2.52,0,0,1-1.12.61c-.62.11-1.37-.3-1.35-.93a1.63,1.63,0,0,1,.55-1c.39-.42,1.31-1.15,1.31-1.51s-5,.92-5.77.41C446.68,582.84,446.4,582.41,446.63,582.13Z"/><path class="cls-9" d="M504.85,597.87c2.24-1.94,5.62.47,3.45,1a3.58,3.58,0,0,0-2.24,1.25c-.27.41-.42,1-.89,1.14a10.5,10.5,0,0,1-.58-2.79C504.56,598.22,504.57,598.12,504.85,597.87Z"/><g id="Axonometric_Cylinder" data-name="Axonometric Cylinder"><path class="cls-9" d="M505.93,598.41v8.43a2.26,2.26,0,0,1-1.33,1.89,7.12,7.12,0,0,1-6.45,0,2.27,2.27,0,0,1-1.33-1.84v-8.44Z"/><path id="Cylinder_face-3" data-name="Cylinder face" class="cls-20" d="M498.15,600.29c-1.78-1-1.78-2.69,0-3.72a7.12,7.12,0,0,1,6.45,0c1.78,1,1.78,2.69,0,3.72A7.12,7.12,0,0,1,498.15,600.29Z"/><ellipse id="Cylinder_face-4" data-name="Cylinder face" class="cls-9" cx="501.38" cy="598.43" rx="4.07" ry="2.35"/><path class="cls-43" d="M498.5,597.75a6.33,6.33,0,0,1,5.75,0,1.17,1.17,0,0,1,0,2.34,6.33,6.33,0,0,1-5.75,0,1.17,1.17,0,0,1,0-2.34Z"/></g><polygon class="cls-38" points="500.37 552.2 501.33 553.96 500.35 555.05 498.24 553.12 497.66 551.01 500.37 552.2"/><path class="cls-44" d="M492.24,561c.88,1.28,1.23,1.78,2,2,2.44.58,7.47-3.71,7-8.56a1.4,1.4,0,0,0-.41-.85c-1.06-1.07-2.3-2.88-3-6.53a1.54,1.54,0,0,0-2.46-.91c-3.09,2.43-5.5,7.16-5.47,9.2C489.87,556.49,491.57,560.05,492.24,561Z"/><path class="cls-45" d="M491.65,560.67a26.84,26.84,0,0,0,4.05,1.52s-.18,4.07-2.51,3.34C491.37,565,491.65,560.67,491.65,560.67Z"/><path class="cls-1" d="M493.63,561.46l-5.5,1.58a48.37,48.37,0,0,1,4.22-10.56C490.17,560.27,493.63,561.46,493.63,561.46Z"/><path class="cls-42" d="M485.09,545.07c0-1.27.14-2.65,1.2-3.36,1.66-1.09,5.48-3,12.09.57a7.79,7.79,0,0,1,2.22,2.38,3.17,3.17,0,0,1,.63,2.73c-.22,2.15.11,3.06-3,6.57a30.68,30.68,0,0,1-7.07,5.72,4.16,4.16,0,0,1-3.14.39c-1-.27-2-1.23-2.22-3.54C485.65,554.77,485.21,549.75,485.09,545.07Z"/><path class="cls-35" d="M496.91,549c-.33.64-1.66.87-2-.62-.43-1.81-2.15-2.22-3.46-2.27-1.79-.07-4.06-.3-5.54-1.42a3.66,3.66,0,0,1-1.17-4.42c.29-.59.74-1.09,1-1.7.38-.87.33-1.9.84-2.69.81-1.24,2.59-1.36,3.73-2.3.25-.2.47-.44.72-.65,2-1.59,3.61.39,5.14.38.35,0,.7-.1,1.05-.09,1.28,0,2.08,1.33,3.14,2,.74.52,1.69.77,2.26,1.48.82,1,.51,2.55.91,3.8a10.05,10.05,0,0,1,.44,1.27c.2,1.05-.4,2.08-.43,3.15a6.71,6.71,0,0,1-.06,1.85,6,6,0,0,1-.85,1.27c-.27.45-.29.93-.56,1.38a15.21,15.21,0,0,1-3.07,3.71c.46-1.45,2.22-4.4.67-5.4a1.61,1.61,0,0,0-1.86,0A3.17,3.17,0,0,0,496.91,549Z"/><path class="cls-1" d="M492.91,561.25l5.83,3.83a11.62,11.62,0,0,0,4.17-6.13,6.35,6.35,0,0,0-.2-4.23,30.21,30.21,0,0,0-2.34-2.52s1.64,2.93-1.15,6.56A6.74,6.74,0,0,1,492.91,561.25Z"/><polygon class="cls-45" points="492.03 596.65 489.19 589.72 492.56 564.45 494.24 564.84 495.98 590.93 492.03 596.65"/><polygon id="Cube_face_-_top" data-name="Cube face - top" class="cls-46" points="583.07 660.72 616.5 680.03 583.07 699.33 549.63 680.03 583.07 660.72"/><polygon id="Cube_face_-_left" data-name="Cube face - left" class="cls-15" points="583.07 738.67 549.63 719.36 549.63 680.03 583.07 699.33 583.07 738.67"/><polygon id="Cube_face_-_right" data-name="Cube face - right" class="cls-46" points="616.5 719.36 583.07 738.67 583.07 699.33 616.5 680.03 616.5 719.36"/><path class="cls-45" d="M592.27,631.73c-.67,2.56-3.54,15-1.58,20.14,1,2.71,11.74,15.91,13.95,18.12,1.31,1.31,6.82-1.28,5.84-3.31l-10.72-17.37s2.45-11.43,1.86-17.2c-.2-2-2.18-5.27-5-5.06C594.48,627.21,592.75,629.92,592.27,631.73Z"/><path class="cls-21" d="M598.14,738.86c2.2,1.44,7.11,1.52,8-1.36.43-1.34-2.43-9.6-2.85-12l-.33-1.91c-.22-.22-1-.3-1.25-.39-1.24-.39-3.29.4-4.58.51-.66.05-.61,4.51-.6,5C596.61,731.34,596.43,737.73,598.14,738.86Z"/><path class="cls-7" d="M597.91,737.42c2.2,1.44,7.1,1.51,8-1.36.43-1.34-2.24-9.61-2.66-12l-.33-1.91c-.22-.22-1.15-.29-1.44-.38-1.24-.4-3.29.4-4.58.51-.66,0-.6,4.51-.6,5C596.38,729.9,596.19,736.29,597.91,737.42Z"/><path class="cls-7" d="M615.8,717.77a6.53,6.53,0,0,1,.71-1.87l-7.35-2.49c-.57,2-2.33,2.79-2.84,4.53s1.07,3,8.86,8.7c4,2.94,5.71,3.46,7.3,3.08a2.34,2.34,0,0,0,2-2.46C624.52,724.31,616.15,719.24,615.8,717.77Z"/><path class="cls-21" d="M624.46,727.44a2.54,2.54,0,0,1-1.62,1.07c-1.6.38-3.31-.14-7.31-3.08-6.93-5.11-8.88-6.44-8.93-8.15a9.63,9.63,0,0,0-.5,1c-.26.92.16,1.47,1.75,2.9,1.35,1.23,3.79,2.88,7.38,5.52,4,2.94,5.66,3.38,7.25,3A2.35,2.35,0,0,0,624.46,727.44Z"/><path class="cls-1" d="M599.53,671.6,597,667.37l-23.15,4.81c-.22,10.58.4,13.09,2,16,1.93,3.57,16.4,16.43,16.4,17.82.25,5.19,2.37,9.73,3.42,17.67,1,3.45,7.93,1.74,7.93-.65,0-8.31-.63-21-.93-22.42S596,687.42,596,687.42c5.77,4.23,18.15,10.12,18.15,10.12-2.77,3.66-3,9-5.61,16.92-.65,2.24,6.71,5.59,7.68,3.32,1.06-2.49,6.3-14,9.61-23.53,1-2.7-.83-4.37-2.23-5.54C619.19,685,605.7,676,599.53,671.6Z"/><path class="cls-45" d="M571.81,637.61c-4.4,3.66,3.19,19.35,3.19,25.06,0,6-1.42,10.17-1.21,12.27.5,5.27,25.09,2.37,24.3-5.76,0,0-1.13-13.76.93-24.21,1.52-5.85,1.8-17.58-2.35-17.49C594.05,627.54,578,632.44,571.81,637.61Z"/><path class="cls-47" d="M583.86,637.11a7.23,7.23,0,0,0,4.15,2.36l2.37,3.78.91-4.8c1.69,0,2.11-7.18,2.23-10.35a4.79,4.79,0,0,0-.28-2.13,4.63,4.63,0,0,0-1.86-1.94,7.36,7.36,0,0,0-3.59-1.31,2,2,0,0,0-1.61.49,2.71,2.71,0,0,0-.51,1.1,47.88,47.88,0,0,1-2.74,7.24C582,633.52,582.6,635.37,583.86,637.11Z"/><path class="cls-7" d="M588,639.47l-4.35,2.78s-4.63-8.12-.73-10.7C582.26,634.27,585.7,638.93,588,639.47Z"/><path class="cls-7" d="M591.29,638.45l3.61.2s-.91-2.25-2.1-5.07C593.05,637.31,591.29,638.45,591.29,638.45Z"/><path class="cls-23" d="M598.26,624.82c.14-1.24.39-3.12-.6-3.9-1.52-1.19-5.39-2.86-12.11.13a7.53,7.53,0,0,0-2.34,2.13,3.09,3.09,0,0,0-.84,2.62c0,2.11-.35,3,2.35,6.62a30,30,0,0,0,6.42,6.13,4.09,4.09,0,0,0,3,.63c1-.19,2-1,2.44-3.27C597,634.21,597.77,629.36,598.26,624.82Z"/><path class="cls-35" d="M586.54,628.56c.28.64,1,1,1.1.46.42-1.77.46-3.34,4.37-3.72,2.18-.21,5.44-.7,6.38-2.16s1-2.67.59-5.09c-.41-2.6-4-6.22-9.46-5.51a6,6,0,0,0-3.91,1.86s-1.21-.6-2.84.74c-3,2.49-2.37,10.48-1.36,12.58a15.07,15.07,0,0,0,2.69,3.86c-.33-1.45-1.81-4.46-.22-5.31a1.57,1.57,0,0,1,1.81.17C586.09,626.79,586.34,628.08,586.54,628.56Z"/><polygon class="cls-48" points="604.66 697.47 628.94 683.36 628.94 683.79 604.66 697.9 604.66 697.47"/><polygon class="cls-49" points="587.63 687.16 611.91 673.05 628.92 682.87 604.64 696.98 587.63 687.16"/><path class="cls-50" d="M610.74,681.53,603,686a.66.66,0,0,1-.64,0l-5.16-3c-.18-.1-.18-.26,0-.36l7.79-4.5a.72.72,0,0,1,.64,0l5.16,3C610.92,681.26,610.92,681.42,610.74,681.53Z"/><path class="cls-51" d="M597.15,682.77l7.79-4.5a.72.72,0,0,1,.64,0l5.16,3a.22.22,0,0,1,.12.14c0-.08,0-.17-.12-.23l-5.16-3a.72.72,0,0,0-.64,0l-7.79,4.5c-.11.06-.15.15-.12.23A.22.22,0,0,1,597.15,682.77Z"/><path class="cls-52" d="M598.85,691l-1.05.61a.4.4,0,0,1-.37,0l-.89-.51c-.1-.06-.1-.16,0-.21l1.05-.61a.4.4,0,0,1,.37,0l.89.51C599,690.8,599,690.89,598.85,691Zm1.69-1.19-.88-.51a.4.4,0,0,0-.37,0l-1,.61c-.1.06-.1.15,0,.21l.88.51a.4.4,0,0,0,.37,0l1-.61C600.64,689.91,600.64,689.82,600.54,689.76Zm1.7-1-.88-.51a.4.4,0,0,0-.37,0l-1,.61c-.11.06-.11.15,0,.21l.88.51a.4.4,0,0,0,.37,0l1-.61C602.34,688.94,602.34,688.84,602.24,688.78Zm1.69-1-.88-.51a.4.4,0,0,0-.37,0l-1,.61c-.1.06-.1.15,0,.21l.88.51a.4.4,0,0,0,.37,0l1-.6C604,688,604,687.86,603.93,687.8Zm1.7-1-.88-.51a.4.4,0,0,0-.37,0l-1,.61c-.11.06-.11.15,0,.21l.88.51a.4.4,0,0,0,.37,0l1-.6A.12.12,0,0,0,605.63,686.82Zm1.7-1-.89-.51a.4.4,0,0,0-.37,0l-1.05.61c-.1.06-.1.15,0,.21l.89.51a.4.4,0,0,0,.37,0l1.05-.6A.12.12,0,0,0,607.33,685.84Zm1.69-1-.88-.51a.48.48,0,0,0-.37,0l-1,.61c-.1.06-.1.16,0,.21l.88.51a.4.4,0,0,0,.37,0l1-.6A.12.12,0,0,0,609,684.86Zm1.7-1-.89-.51a.38.38,0,0,0-.36,0l-1.06.6a.12.12,0,0,0,0,.22l.89.51a.48.48,0,0,0,.37,0l1.05-.61C610.82,684,610.82,683.94,610.72,683.89Zm1.69-1-.88-.51a.4.4,0,0,0-.37,0l-1,.6a.12.12,0,0,0,0,.22l.88.51a.4.4,0,0,0,.37,0l1-.61C612.52,683.06,612.52,683,612.41,682.91Zm2.25-1.3-.89-.51a.4.4,0,0,0-.37,0l-1.59.92c-.11.06-.11.16,0,.22l.88.51a.4.4,0,0,0,.37,0l1.6-.92A.12.12,0,0,0,614.66,681.61ZM621,683.3l-.89-.51a.47.47,0,0,0-.37,0l-1,.61c-.1.06-.1.16,0,.21l.89.51a.4.4,0,0,0,.37,0l1-.6A.12.12,0,0,0,621,683.3Zm1.69-1-.88-.51a.4.4,0,0,0-.37,0l-1.05.6a.12.12,0,0,0,0,.22l.88.51a.48.48,0,0,0,.37,0l1.05-.61C622.82,682.48,622.82,682.38,622.72,682.33Zm1.7-1-.89-.51a.38.38,0,0,0-.36,0l-1.06.6a.12.12,0,0,0,0,.22l.89.51a.4.4,0,0,0,.37,0l1-.61C624.52,681.5,624.52,681.41,624.42,681.35Zm-1.84,2.85-.89-.51a.4.4,0,0,0-.37,0l-1.05.61c-.1.06-.1.15,0,.21l.89.51a.4.4,0,0,0,.37,0l1.05-.61C622.68,684.35,622.68,684.26,622.58,684.2Zm1.69-1-.88-.51a.4.4,0,0,0-.37,0l-1,.61c-.1.06-.1.15,0,.21l.88.51a.4.4,0,0,0,.37,0l1-.61C624.37,683.37,624.37,683.28,624.27,683.22Zm1.7-1-.88-.51a.4.4,0,0,0-.37,0l-1.05.61c-.11.06-.11.15,0,.21l.88.51a.4.4,0,0,0,.37,0l1.05-.61C626.07,682.4,626.07,682.3,626,682.24Zm-25,9.07-.88-.51a.4.4,0,0,0-.37,0l-1.6.92c-.1.06-.1.16,0,.21l.89.52a.47.47,0,0,0,.37,0l1.59-.93C601.07,691.46,601.07,691.37,601,691.31Zm1.7-1-.88-.51a.4.4,0,0,0-.37,0l-1,.61c-.11.06-.11.15,0,.21l.88.51a.4.4,0,0,0,.37,0l1-.61C602.77,690.48,602.77,690.39,602.67,690.33Zm1.69-1-.88-.51a.4.4,0,0,0-.37,0l-1.05.61c-.1.06-.1.15,0,.21l.88.51a.4.4,0,0,0,.37,0l1.05-.61C604.47,689.51,604.47,689.41,604.36,689.35Zm1.7-1-.88-.51a.4.4,0,0,0-.37,0l-1,.61c-.1.06-.1.15,0,.21l.88.51a.4.4,0,0,0,.37,0l1-.6A.12.12,0,0,0,606.06,688.37Zm1.7-1-.89-.51a.4.4,0,0,0-.37,0l-1,.61c-.1.06-.1.15,0,.21l.89.51a.4.4,0,0,0,.37,0l1-.6A.12.12,0,0,0,607.76,687.39Zm1.69-1-.88-.51a.4.4,0,0,0-.37,0l-1.05.61c-.1.06-.1.15,0,.21l.88.51a.4.4,0,0,0,.37,0l1.05-.6A.12.12,0,0,0,609.45,686.41Zm1.7-1-.89-.51a.45.45,0,0,0-.36,0l-1.06.61c-.1.06-.1.16,0,.21l.89.51a.4.4,0,0,0,.37,0l1-.6A.12.12,0,0,0,611.15,685.43Zm1.69-1L612,684a.4.4,0,0,0-.37,0l-1.05.6a.12.12,0,0,0,0,.22l.88.51a.47.47,0,0,0,.37,0l1.05-.61C613,684.61,613,684.51,612.84,684.46Zm1.7-1-.88-.51a.4.4,0,0,0-.37,0l-1,.6c-.11.06-.11.16,0,.22l.88.51a.4.4,0,0,0,.37,0l1-.61C614.64,683.63,614.64,683.54,614.54,683.48Zm1.7-1-.89-.51a.4.4,0,0,0-.37,0l-1.05.6a.12.12,0,0,0,0,.22l.89.51a.4.4,0,0,0,.37,0l1-.61C616.34,682.65,616.34,682.56,616.24,682.5Zm-14.31,10L601,692a.38.38,0,0,0-.36,0l-1,.61c-.11,0-.11.15,0,.21l.88.51a.4.4,0,0,0,.37,0l1-.61C602,692.67,602,692.58,601.93,692.52Zm1.69-1-.88-.51a.4.4,0,0,0-.37,0l-1,.61c-.1.06-.1.15,0,.21l.88.51a.4.4,0,0,0,.37,0l1-.61C603.73,691.69,603.73,691.6,603.62,691.54Zm1.7-1-.88-.51a.4.4,0,0,0-.37,0l-1.05.61c-.11.06-.11.15,0,.21l.88.51a.4.4,0,0,0,.37,0l1.05-.61C605.42,690.72,605.42,690.62,605.32,690.56Zm1.7-1-.89-.51a.4.4,0,0,0-.37,0l-1,.61c-.1.06-.1.15,0,.21l.89.51a.4.4,0,0,0,.37,0l1-.61C607.12,689.74,607.12,689.64,607,689.58Zm-2,4.71-.88-.51a.48.48,0,0,0-.37,0l-1,.61c-.1.06-.1.16,0,.21l.88.51a.4.4,0,0,0,.37,0l1-.6C605.11,694.45,605.11,694.35,605,694.29Zm1.7-1-.88-.51a.4.4,0,0,0-.37,0l-1.05.6c-.11.06-.11.16,0,.22l.88.51a.48.48,0,0,0,.37,0l1.05-.61C606.8,693.47,606.8,693.37,606.7,693.32Zm1.7-1-.89-.51a.4.4,0,0,0-.37,0l-1,.6a.12.12,0,0,0,0,.22l.89.51a.4.4,0,0,0,.37,0l1-.61C608.5,692.49,608.5,692.4,608.4,692.34Zm1.69-1-.88-.51a.4.4,0,0,0-.37,0l-1.05.6a.12.12,0,0,0,0,.22l.88.51a.4.4,0,0,0,.37,0l1.05-.61C610.19,691.51,610.19,691.42,610.09,691.36Zm10.71-6.19-.88-.51a.4.4,0,0,0-.37,0l-1.6.92a.12.12,0,0,0,0,.22l.89.51a.4.4,0,0,0,.37,0l1.59-.92C620.91,685.33,620.91,685.23,620.8,685.17Zm-12.09,3.43-.88-.51a.4.4,0,0,0-.37,0l-1.05.61c-.1.06-.1.15,0,.21l.88.51a.4.4,0,0,0,.37,0l1.05-.6A.12.12,0,0,0,608.71,688.6Zm1.7-1-.89-.51a.4.4,0,0,0-.37,0l-1,.61c-.1.06-.1.15,0,.21l.89.51a.4.4,0,0,0,.37,0l1-.6A.12.12,0,0,0,610.41,687.62Zm1.69-1-.88-.51a.4.4,0,0,0-.37,0l-1.05.61c-.1.06-.1.15,0,.21l.88.51a.4.4,0,0,0,.37,0l1.05-.6C612.21,686.8,612.21,686.7,612.1,686.64Zm1.7-1-.88-.51a.47.47,0,0,0-.37,0l-1,.61c-.11.06-.11.16,0,.21l.88.51a.4.4,0,0,0,.37,0l1-.6A.12.12,0,0,0,613.8,685.66Zm1.7-1-.89-.51a.4.4,0,0,0-.37,0l-1,.6a.12.12,0,0,0,0,.22l.89.51a.47.47,0,0,0,.37,0l1-.61C615.6,684.84,615.6,684.74,615.5,684.69Zm2.24-1.3-.89-.51a.38.38,0,0,0-.36,0l-1.6.92a.12.12,0,0,0,0,.22l.88.51a.4.4,0,0,0,.37,0l1.6-.93C617.84,683.55,617.84,683.45,617.74,683.39Zm-13.69,9.7-.88-.51a.4.4,0,0,0-.37,0l-1.6.92c-.1.06-.1.16,0,.21l.89.51a.4.4,0,0,0,.37,0l1.59-.92C604.16,693.24,604.16,693.15,604.05,693.09Zm1.7-1-.88-.51a.4.4,0,0,0-.37,0l-1,.61c-.11,0-.11.15,0,.21l.88.51a.4.4,0,0,0,.37,0l1-.61C605.85,692.26,605.85,692.17,605.75,692.11Zm1.7-1-.89-.51a.4.4,0,0,0-.37,0l-1.05.61c-.1.06-.1.15,0,.21l.89.51a.4.4,0,0,0,.37,0l1.05-.61C607.55,691.28,607.55,691.19,607.45,691.13Zm1.69-1-.88-.51a.4.4,0,0,0-.37,0l-1,.61c-.1.06-.1.15,0,.21l.88.51a.4.4,0,0,0,.37,0l1-.61C609.24,690.31,609.24,690.21,609.14,690.15Zm1.7-1-.89-.51a.38.38,0,0,0-.36,0l-1.06.61c-.1.06-.1.15,0,.21l.89.51a.4.4,0,0,0,.37,0l1.05-.6A.12.12,0,0,0,610.84,689.17Zm7.76-2.71-.88-.51a.4.4,0,0,0-.37,0l-7.86,4.54c-.1.06-.1.15,0,.21l.88.51a.4.4,0,0,0,.37,0l7.86-4.53A.12.12,0,0,0,618.6,686.46Zm-6.07,1.73-.88-.51a.4.4,0,0,0-.37,0l-1,.61c-.1.06-.1.15,0,.21l.88.51a.4.4,0,0,0,.37,0l1-.6C612.64,688.35,612.64,688.25,612.53,688.19Zm1.7-1-.88-.51a.47.47,0,0,0-.37,0l-1.05.61c-.11.06-.11.15,0,.21l.88.51a.4.4,0,0,0,.37,0l1.05-.6A.12.12,0,0,0,614.23,687.21Zm1.7-1-.89-.51a.48.48,0,0,0-.37,0l-1,.61c-.1.06-.1.16,0,.21l.89.51a.4.4,0,0,0,.37,0l1-.6A.12.12,0,0,0,615.93,686.23Zm1.69-1-.88-.51a.4.4,0,0,0-.37,0l-1,.6a.12.12,0,0,0,0,.22l.88.51a.48.48,0,0,0,.37,0l1-.61C617.72,685.41,617.72,685.31,617.62,685.26Zm1.7-1-.89-.51a.4.4,0,0,0-.37,0l-1,.6a.12.12,0,0,0,0,.22l.89.51a.4.4,0,0,0,.37,0l1.05-.61C619.42,684.43,619.42,684.34,619.32,684.28Zm-2.94-3.66-.88-.51a.48.48,0,0,0-.37,0l-1,.61c-.1.06-.1.16,0,.21l.88.51a.4.4,0,0,0,.37,0l1-.6C616.49,680.78,616.49,680.68,616.38,680.62Zm1.7-1-.88-.51a.4.4,0,0,0-.37,0l-1.05.6c-.11.06-.11.16,0,.22l.88.51a.48.48,0,0,0,.37,0l1.05-.61C618.18,679.8,618.18,679.7,618.08,679.65Zm1.7-1-.89-.51a.4.4,0,0,0-.37,0l-1,.6a.12.12,0,0,0,0,.22l.89.51a.47.47,0,0,0,.37,0l1-.61C619.88,678.82,619.88,678.72,619.78,678.67Zm1.54.89-.88-.51a.4.4,0,0,0-.37,0l-1.05.61c-.1.05-.1.15,0,.21l.88.51a.4.4,0,0,0,.37,0l1.05-.61C621.42,679.71,621.42,679.62,621.32,679.56Zm1.5.82-.86-.5a.39.39,0,0,0-.3,0l-1.49.85a.3.3,0,0,1-.26,0l-1.16-.67a.47.47,0,0,0-.46,0l-2.66,1.53c-.13.08-.13.19,0,.27L618,683.2a.53.53,0,0,0,.46,0l4.41-2.55C623,680.58,623,680.46,622.82,680.38Z"/><polygon class="cls-53" points="612.2 684.1 636.48 669.99 629.15 683.48 604.87 697.59 612.2 684.1"/><polygon class="cls-54" points="611.85 683.71 636.13 669.6 636.48 669.99 612.2 684.1 611.85 683.71"/><polygon class="cls-55" points="611.85 683.71 612.2 684.1 604.87 697.59 604.66 697.47 604.66 697.9 587.63 688.07 587.63 687.16 604.64 696.98 611.85 683.71"/><polygon class="cls-56" points="592.27 690.53 590.8 689.68 590.8 689.25 592.27 690.1 592.27 690.53"/><polygon class="cls-56" points="594.35 691.73 592.87 690.87 592.87 690.45 594.35 691.3 594.35 691.73"/><path class="cls-23" d="M607.24,678.31c.53,1.32,2.7,1.15,3.15,1.07.94-.18,2.87-1,3-1.72a13.55,13.55,0,0,0-1-7.38,12,12,0,0,0-2.4-3.33c-1.24-1.09-5.23,1.47-5,2.53.06.3.8,2.2,1.17,3.82A29.21,29.21,0,0,0,607.24,678.31Z"/><path class="cls-45" d="M566.55,649.74c-1.14,5.71-2.57,16.61-2.29,17.39,1.25,3.49,17,16,17.15,16.1,1.83,1.35,6-3.56,4.88-4.86-4-4.37-12.57-14.43-12.57-14.43,1-5.87,1.95-9.41,3.21-15.23,1-4.54,1.52-12.42-3.18-12.2C570,636.69,567.42,645.35,566.55,649.74Z"/><path class="cls-7" d="M573.76,663.93c.82-5.12,2.09-10.15,3.19-15.22,0,0-1,3.77-1,3.77-.33,1.25-.61,2.52-.91,3.78q-.9,3.79-1.59,7.64a.27.27,0,0,0,.06.21c2.07,2.44,4.23,4.79,6.33,7.18l3.18,3.58,3.25,3.51S573.76,663.93,573.76,663.93Z"/><path class="cls-23" d="M595.14,680.83a20.23,20.23,0,0,0-2.4-1c-.52-.2-4.88-.25-6.68-.88-1.42-.54-5,3.22-3.88,3.82a12,12,0,0,1,2,1.72,3.78,3.78,0,0,0,1.87.73,19.53,19.53,0,0,0,2.41.27c.65,0,1.1.1,1.43.67a5.89,5.89,0,0,1,.47.94,1.48,1.48,0,0,0,.67.84c.87.48,4.07-1.55,4.5-2.19S596,681.78,595.14,680.83Z"/><path class="cls-33" d="M715.24,561.17c-.82-.52-.35-10.5-4-16.59a9.25,9.25,0,0,0-6.51-4.46l0,16.45s3.19,7.57,4.94,10.72c1.52,2.75,16.47,7,16.47,7,1.88.62,3.4-3.88,2.12-4.87C728.27,569.38,718.06,563,715.24,561.17Z"/><path class="cls-33" d="M738.15,572.92c-.19-.57-3.71-2.84-4.3-2.88a32.6,32.6,0,0,0-3.52.18,6.55,6.55,0,0,1-2-.41c-.9-.29-2.88,3.91-1.94,4.25a14.35,14.35,0,0,1,1.43,1.28,11.48,11.48,0,0,0,1.83,1.51,6.52,6.52,0,0,0,3.48.68C733.78,577.53,738.63,574.42,738.15,572.92Z"/><path class="cls-33" d="M735.31,568.22a1.33,1.33,0,0,1,.41-.44c.43-.26,1.09,0,.95.85-.46,2.59-2.46,2.32-2.85,4.09-.12.52-.19.87-.72.78a2.85,2.85,0,0,1-1.88-1.19c-.27-.39-.79-1.46-.43-1.92.17-.22.65-.24.9-.3C733.74,569.6,734.33,569.62,735.31,568.22Z"/><path class="cls-33" d="M740.38,576.13a1.15,1.15,0,0,1-.41.19l-9.83,2.44a.72.72,0,0,1-.24,0,.48.48,0,0,1-.34-.14l-.34-.37,12.1-8.61.34.37a.49.49,0,0,1,.1.45l-.84,4.86A1.26,1.26,0,0,1,740.38,576.13Z"/><path class="cls-33" d="M739.63,576l-9.83,2.44-.24,0a.46.46,0,0,1-.45-.59L730,573a1.37,1.37,0,0,1,.95-1l9.83-2.44a.67.67,0,0,1,.24,0,.45.45,0,0,1,.44.59l-.84,4.86A1.35,1.35,0,0,1,739.63,576Z"/><path class="cls-21" d="M725.38,650.67a34.76,34.76,0,0,0-6.07-4,28.33,28.33,0,0,1-4.46.24c-3.13-.07-6.81-.35-9.56-2.07a11.49,11.49,0,0,0,0,1.85,2.62,2.62,0,0,0,1.7,2.58c7.38,4.21,8.38,4.77,9.72,5.38,1.5.69,3.34,1.57,7.21.34,1.95-.93,2-1.76,1.94-2.47C725.83,652.12,725.89,651.09,725.38,650.67Z"/><path class="cls-32" d="M725,650c-1.82-1.38-6.26-4.17-8.48-6a8.06,8.06,0,0,1-1.66-2.35c-.9-1.92-6.08-2.08-8.51-.72-1.15.64-1.3,2.64-1.12,4.49a2.6,2.6,0,0,0,1.7,2.58c7.37,4.21,9,5,10.35,5.51a7.71,7.71,0,0,0,5.49.31,4.82,4.82,0,0,0,2.51-1.48A1.4,1.4,0,0,0,725,650Z"/><path class="cls-57" d="M713.78,639.27c-.16-.41-.09-.84-.45-1.09a2.27,2.27,0,0,0-1.05-.33,7.7,7.7,0,0,0-4.85,1l-1.4,0c.46,1.71,0,2.24.14,3.16a1,1,0,0,0,.6,1c2.38,1.59,8.43.74,7.84-1.16C714.12,640.3,714.11,640.1,713.78,639.27Z"/><path class="cls-21" d="M675.42,668.4c2.45,1.82,8.12,2.21,9.38-1,.58-1.53-2.19-11.26-2.53-14.1L682,651c-.24-.26-1.1-.4-1.43-.53-1.4-.53-3.82.25-5.33.29-.76,0-1,5.19-1,5.7C674.13,659.61,673.51,667,675.42,668.4Z"/><path class="cls-32" d="M675.24,666.72c2.45,1.81,8.12,2.21,9.38-1.06.58-1.52-2-11.25-2.31-14.08-.09-.82-.26-2.24-.26-2.24-.23-.26-1.31-.41-1.64-.53-1.4-.54-3.82.25-5.33.29-.76,0-1,5.18-1,5.7C674,657.93,673.33,665.31,675.24,666.72Z"/><path class="cls-57" d="M682.32,648.33c.07-.39-.74-.56-1.05-.81a2,2,0,0,0-.9-.35,6.83,6.83,0,0,0-4.31.63l-1,.1c0,1.2-.34,1.8-.3,2.62a.89.89,0,0,0,.47.87c2,1.54,7,1.19,6.94-.55A9.66,9.66,0,0,1,682.32,648.33Z"/><path class="cls-1" d="M679,611.85a27.44,27.44,0,0,1-.23,6.66,30.72,30.72,0,0,1-1.68,4.71c-2.19,5.5-2.61,9.27-3,15.18-.19,2.93.74,7.09.93,10,0,1.44,7.1,2,7.36.12C685,633,689.78,630,692.28,615.38c.54-3.17,3.57-16.94,3.57-16.94,1.16,5.58,5.4,17.35,5.74,20.33s-.08,5,.6,8c.94,4,2.61,4.85,3.87,13.1.21,2.42,8.09,1.85,8-.57-.45-14.12.12-17-.69-20.84a57,57,0,0,1-1.18-6c-.65-6.89,2.37-8.53-4.53-35.68A103.78,103.78,0,0,1,681,581.8C680.42,592.12,678.64,601.4,679,611.85Z"/><path class="cls-33" d="M676.56,548.68c-1.18,2.81,1,5.84,2.38,8.57,3.65,7.36,3,13.58,2,24.55-.07.79,6.1,5.34,20,2.53,5.73-1.15,7.63-4.36,7.34-5.4s-.54-2-.77-2.89a31.36,31.36,0,0,1-.16-15c1.4-5.87,4.18-16.34-1.09-20.14-2.44-1.77-7.27-1.29-10.77-1C686.61,540.68,677.8,545.74,676.56,548.68Z"/><path class="cls-33" d="M675.59,552.43c-.12,1.23-2.29,25.48-1.74,26.59,1.49,3,20.81,9.19,23.27,10.06s4.32-4.92,2.49-5.88c-5.66-3-17-9.32-17-9.32,1-6.49,1.8-10.17,2.68-17.75a8.32,8.32,0,0,0-2-7.72C681.41,546.37,676.43,544.29,675.59,552.43Z"/><path class="cls-33" d="M699.62,583.18l-16.92-9.32,1.44-8.83c.48-3,.88-5.92,1.22-8.9,0,0-1.47,8.85-1.47,8.85l-1.56,8.85a.32.32,0,0,0,.16.33c1.42.8,2.85,1.54,4.27,2.3l4.26,2.29,4.27,2.28,4.31,2.19S699.63,583.19,699.62,583.18Z"/><path class="cls-22" d="M686.55,546.66c1.53,5.86,10.18,15.12,12.72,15,1.47,0,3.75-4.63,4.07-12.36.37-8.72-4.2-9.73-8.76-9.6S685.45,542.44,686.55,546.66Z"/><polygon class="cls-58" points="691 539.51 690.09 541.29 691.1 542.35 693.15 540.36 693.67 538.24 691 539.51"/><path class="cls-28" d="M699.37,548.06c-.23.32-.78.38-1.55.59-2.42.66-8-2-7.63-6.89a1.44,1.44,0,0,1,.38-.87c1-1.09,2.22-2.93,2.85-6.6a1.54,1.54,0,0,1,2.43-1c3.15,2.33,5.69,7,5.72,9C701.59,543.47,700,547.07,699.37,548.06Z"/><path class="cls-7" d="M698,548.54l5.54,1.41A48.69,48.69,0,0,0,699,539.54C701.41,547.25,698,548.54,698,548.54Z"/><path class="cls-57" d="M706,531.94c0-1.27-.22-2.64-1.3-3.31-1.69-1-5.55-2.87-12,.92a7.64,7.64,0,0,0-2.14,2.44,3.16,3.16,0,0,0-.56,2.75c.29,2.13,0,3,3.15,6.46a30.32,30.32,0,0,0,7.21,5.49,4.16,4.16,0,0,0,3.15.3c1-.3,1.91-1.29,2.11-3.6C705.76,541.63,706,536.61,706,531.94Z"/><path class="cls-59" d="M694.35,536.18c.35.63,1.68.82,2-.68.39-1.82,2.09-2.27,3.39-2.36a12.34,12.34,0,0,0,5.48-1.51,2.77,2.77,0,0,0,.76-.69s.71-.85,0-2.82c-.38-1-2.1-5.11-6.54-6.06a11.62,11.62,0,0,0-6.34.5c-7.69,2.8-5,12.48-3.85,14.24a15.25,15.25,0,0,0,3.17,3.61c-.5-1.43-2.34-4.32-.83-5.36a1.61,1.61,0,0,1,1.86,0A3.17,3.17,0,0,1,694.35,536.18Z"/><path class="cls-7" d="M698.71,548.31l-5.71,4a11.62,11.62,0,0,1-4.34-6,6.26,6.26,0,0,1,.08-4.22,29.27,29.27,0,0,1,2.26-2.58s-1.55,3,1.34,6.5A6.74,6.74,0,0,0,698.71,548.31Z"/><path class="cls-57" d="M707.91,586.83s-1.24-1.28-1.55-1.64a9,9,0,0,0-6-1.11,2.73,2.73,0,0,1-.93-.2c-1.06-.33-2.55,4.29-1.73,4.65.65.61,1.09,1.64,1.7,2.16a21.68,21.68,0,0,0,3.12,1.67,2.72,2.72,0,0,0,2.46-.14,17,17,0,0,0,3.15-3.1c1.71.33,4.93,1.73,5.44,1,.77-1-.77-1.49-1.27-1.66A41.34,41.34,0,0,1,707.91,586.83Z"/><path class="cls-23" d="M444.91,343c-3.88-1.8-6.09,4.45-8.17,10.16-1.9,5.24-3.67,10.41-4.07,10.65-2.92,1.67-14.6,7.72-14.64,7.75a4.76,4.76,0,0,1-1.11.11,31.2,31.2,0,0,0-3.54-.35c-.59,0-4.24,2.13-4.46,2.7-.55,1.48,4.18,4.85,4.79,4.88a6.53,6.53,0,0,0,3.53-.53,11.6,11.6,0,0,0,1.91-1.43c.26-.22,1.55-1.89,1.58-1.91,2.08-.45,15-5.8,16.14-7a82.79,82.79,0,0,0,6.45-8.87Z"/><path class="cls-30" d="M406.52,377.14a1.18,1.18,0,0,0,.41.22l9.78,2.92a.71.71,0,0,0,.24,0,.52.52,0,0,0,.35-.13l.36-.36-11.78-9.23-.36.35a.52.52,0,0,0-.12.45l.62,4.93A1.29,1.29,0,0,0,406.52,377.14Z"/><path class="cls-31" d="M407.29,377l9.78,2.92a.75.75,0,0,0,.24,0,.46.46,0,0,0,.47-.57l-.61-4.93a1.4,1.4,0,0,0-.92-1l-9.78-2.93-.23,0a.46.46,0,0,0-.48.58l.62,4.92A1.34,1.34,0,0,0,407.29,377Z"/><path class="cls-23" d="M410.42,372.57c-.88.13-.27,1,.59,1.09,2.34.23,2.06-1,3.87-.7.53.08.88.13,1-.4.16-.75,1.44-.67.69-.83a11,11,0,0,0-3.36-.43C412.37,371.53,411.05,372.47,410.42,372.57Z"/><path class="cls-60" d="M432.93,355.27c-.82,3,7.85,5.43,9.06,2.73l2.13-11.47c1.45-7.64-6.71-6-8.94-.53Z"/><path class="cls-22" d="M403.09,446.11c1.24-1.44,3.59-4.32,5.12-6.19.74-.9,1.26-1.74,2.37-1.81,2.32-.14,4.21.34,4.41,2.79a16,16,0,0,1-.35,2.8c-.52,1.28-5.69,7.6-6,7.89a6.23,6.23,0,0,1-2.69,1.82c-1.23.38-5.68.4-5.72-2.45C400.24,449.36,400.85,448.71,403.09,446.11Z"/><path class="cls-21" d="M406,452.29a6.32,6.32,0,0,0,2.69-1.82c.28-.3,5.35-6.62,6-7.9a4.74,4.74,0,0,0,.35-1.51,5.9,5.9,0,0,1-.35,2.8,96.27,96.27,0,0,1-6,7.9,6.3,6.3,0,0,1-2.69,1.81c-1.23.39-5.7.4-5.73-2.45a1.6,1.6,0,0,1,.05-.81C400.84,452.63,404.83,452.64,406,452.29Z"/><path class="cls-22" d="M419.24,441c1-1.65,2.74-4.92,3.9-7,.56-1,.91-2,2-2.22,2.25-.56,4.19-.44,4.84,1.93a16.27,16.27,0,0,1,.18,2.81c-.28,1.36-4.2,8.52-4.42,8.86a6.19,6.19,0,0,1-2.31,2.29c-1.14.6-5.51,1.43-6.07-1.36C417,444.71,417.52,444,419.24,441Z"/><path class="cls-21" d="M423.22,446.53a6.34,6.34,0,0,0,2.32-2.28c.21-.35,4-7.49,4.41-8.86a5,5,0,0,0,.06-1.55,5.91,5.91,0,0,1,.18,2.81,96.63,96.63,0,0,1-4.42,8.86,6.19,6.19,0,0,1-2.31,2.29c-1.14.6-5.53,1.44-6.09-1.36a1.81,1.81,0,0,1-.1-.81C418.23,447.82,422.16,447.1,423.22,446.53Z"/><path class="cls-23" d="M428.56,430.12c-.13,1.08-.32,1.79.22,2.42.37.44.18,1.11,0,1.64a24.71,24.71,0,0,1-1.6,2.95c-.59.84-5.1-.25-4.73-1.1a26.36,26.36,0,0,0,1-2.48,40.54,40.54,0,0,0,.75-4.3C424.28,428.63,428.56,430.12,428.56,430.12Z"/><path class="cls-23" d="M411.11,443.8a11.48,11.48,0,0,1-3.66-1.61.45.45,0,0,1-.12-.63,21.94,21.94,0,0,0,1.24-2.19c.52-1.06,1-2.74,1.49-4.1.21-.59,4.16,1.62,4.16,1.62-.3,1-.6,1.65-.27,2.32a1.44,1.44,0,0,1,0,1.31c-.67,1.06-1.23,2-1.77,2.87A1,1,0,0,1,411.11,443.8Z"/><path class="cls-10" d="M413.59,411.79c.47-4.24,1.63-5.64,5.66-12.22,1.72-2.82,11.44-13.52,15.77-17.84,1.75-1.75,2.89-6,2.89-6,8-.24,17.53,1.73,19.61,4,2.68,2.88-8.45,9.62-17,17.2l-18.35,14.68s2.58,6.62-2.64,15.31a54.61,54.61,0,0,0-3.31,6.23c-.9,2.07-1.87,4.37-2.11,5.2-.47,1.63-5.44,1.12-5-.7C409.08,437.62,412.19,422.29,413.59,411.79Z"/><path class="cls-10" d="M424.57,417.11c0-3.62-.58-8,.07-11.09a5.62,5.62,0,0,1,1.33-2.85c.57-.6,16.27-11.86,20.38-16.22l14.11-8a18.22,18.22,0,0,1-6.88,21.39c-2.5,1.68-18.14,9.37-19.89,10.41a.86.86,0,0,0-.45.45.92.92,0,0,0,.12.64,13.72,13.72,0,0,1,1.27,4.08c.52,5.24-4,10.77-6,15.19-.59,1.32-4.91,1.18-4.91-.18C423.85,429.27,424.58,420.7,424.57,417.11Z"/><path class="cls-61" d="M462.22,353.34c.54,2-.43,4.1-1.33,6-5.39,11.36-1.79,13.77.65,22.86,1.12,4.17-12,5.06-18.47,2.57-4.13-1.6-6.78-4.43-6.63-5.81.18-1.71,2.37-6.23,3-9.09.42-2,1-3.32-.27-4.61-2.74-2.69-4.21-5.59-2.37-8.42a10.83,10.83,0,0,0,2.19-7.29c-.05-1.44,0-3.69,0-5.12s1.21-3.13,2.69-3.16S460.93,348.54,462.22,353.34Z"/><path class="cls-59" d="M436.85,348.71c2.13-4.34,2.23-10.06,1.84-14.8a8.87,8.87,0,0,1,1-1.94,2.65,2.65,0,0,1,2.3-1.05c2.76.23,1.85,8.49.33,15.5-.09.43-.2.85-.32,1.28-.47,1.63-1.5,4.88-3.6,5.13C436.51,353.07,436.08,350.28,436.85,348.71Z"/><path class="cls-23" d="M458,351.85c-2.19,2.14-11.09,4.39-14.48,7.31a45.34,45.34,0,0,1-1.09-14.41c.24-3.89,4.93-1.12,7.78.36C455.87,348.05,459.55,350.35,458,351.85Z"/><path class="cls-28" d="M445.09,351.11a1.85,1.85,0,0,0,2.14,1.21c2.93-.67,7.52-2.34,6.17-5-1.66-3.26-2-3.6-2.39-6.86a1.54,1.54,0,0,0-2.51-1c-2.87,2.3-5.09,6.34-4.54,8.19C444.28,348.76,444.72,350.05,445.09,351.11Z"/><path class="cls-23" d="M439.64,336.74c0,.92.24,1.83.27,2.76,0,.77-.09,1.54-.07,2.31a40.75,40.75,0,0,0,.89,4.74c.44,2.83,1.11,4.39,6.09,1.29,2.16-1.35,7.3-6.46,7.27-8.06a13.8,13.8,0,0,0-1-4.66,11.13,11.13,0,0,0-2.4-4,4.67,4.67,0,0,0-4.12-1.45,6.86,6.86,0,0,0-1.4.5c-1.23.54-3.22,1-4.15,2A7.94,7.94,0,0,0,439.64,336.74Z"/><path class="cls-23" d="M463.14,357.49c-.76,7.91,1.5,13.51,2.15,20,.35,3.45.31,7.26.38,10.7a12.07,12.07,0,0,0,.37,3.26c1,1,3.34,2.72,4.87,3a12.36,12.36,0,0,0,4,0c.85-.06,1.07.93-.09,1.11-.58.09-2.06.24-2.54.39a.84.84,0,0,0-.33.19.37.37,0,0,0-.12.35.53.53,0,0,0,.28.31c.8.51,4.43,1,5.82,1.33.27.08.54.32.51.6s-.46.44-.8.46a42.65,42.65,0,0,1-5.4-.4,2.24,2.24,0,0,0,.92.71l3.64,1.9a1.31,1.31,0,0,1,.38.27.41.41,0,0,1,.08.43.4.4,0,0,1-.17.17,1.15,1.15,0,0,1-.91.09,3.92,3.92,0,0,1-.86-.39,24.39,24.39,0,0,0-3.37-1.54c-.17-.06-.38-.12-.51,0a.33.33,0,0,0,0,.42c.07.14.92,1,1.51,1.57s1.73,1.3,1.61,1.68a.81.81,0,0,1-1,.42,7.46,7.46,0,0,1-1.43-1c-.61-.45-1-.84-1.87-1.53-2.61-2-4.5-2.4-6.21-.77-1.24,1.2-1.34,3-3,3.43-.78.21-1.23-.14-.79-.86a16.21,16.21,0,0,0,2-11.24c-.29-2-3-13.78-3.71-17.34-1.06-5.13-2.12-10.26-3.14-15.39A17.61,17.61,0,0,1,455,358Z"/><path class="cls-62" d="M455.77,369.19c.37,3.1,9.49.83,9.59-2.13L463,355.63c-1.52-7.62-8.48-3.05-8.48,2.88Z"/><path class="cls-59" d="M456.12,354.27c-1,2-2.77,4.55-5.14,4-1.81-.39-1.36-1.82-1.78-4.73a11.06,11.06,0,0,1,0-4.29c.3-1.19.94-2.29,1.12-3.5a1.86,1.86,0,0,0-.11-1.12,4.45,4.45,0,0,0-1.44-1.52c-1.26-1-1.21-2.41-1.61-4s0-4-4.09-4.75c-2.33-2-3.62.32-3.41,2.77a8.15,8.15,0,0,1-1-4.57c.52-4.39,3.8-9.25,8.48-8.74a5.83,5.83,0,0,1,1.51.58,6.46,6.46,0,0,1,4.31,1.28,9.43,9.43,0,0,1,4.18,6.48c.51,2.18.25,6.85.27,9.09.05,7.34,3.46,9.26,3.5,10.06C459.59,351,457.45,351.63,456.12,354.27Z"/><path class="cls-63" d="M532.88,680a10.86,10.86,0,0,0-4.75,5.48,11.68,11.68,0,0,0-.49,1.87,7.5,7.5,0,0,0-.08,1.21c0,.27,0,.42,0,.42a8.67,8.67,0,0,1,1.2-3.69,13.14,13.14,0,0,1,4.69-4.62l22.87-13.74S538.83,676.43,532.88,680Z"/><path class="cls-64" d="M728.25,479.36l-8.31,4.8v1.16l8.31-4.8Zm12.39-7.15-10.83,6.25v1.16l10.83-6.25ZM724.7,484.56l-4.76,2.75v1.16l4.76-2.75Zm9.23-5.33-7.67,4.43v1.16l7.67-4.43Zm1.56.26,5.15-3v-1.16l-5.15,3Zm-7.24,6.17-8.31,4.8v1.16l8.31-4.8Zm12.39-7.15-10.83,6.25v1.16l10.83-6.25ZM724.7,490.86l-4.76,2.75v1.16L724.7,492Zm1.56.26,7.67-4.43v-1.16L726.26,490Zm9.23-5.33,5.15-3v-1.16l-5.15,3ZM728.25,492l-8.31,4.8v1.16l8.31-4.8Zm12.39-7.15-10.83,6.25v1.16L740.64,486Zm-20.7,16.26,4.76-2.75v-1.16l-4.76,2.75Zm6.32-3.65,7.67-4.43v-1.16l-7.67,4.43Zm9.23-5.33,5.15-3V488l-5.15,3Z"/><path class="cls-64" d="M728.25,456.45l-8.31,4.8v1.16l8.31-4.8Zm12.39-7.15-10.83,6.25v1.16l10.83-6.25ZM724.7,461.65l-4.76,2.75v1.16l4.76-2.75Zm9.23-5.33-7.67,4.43v1.16l7.67-4.43Zm1.56.26,5.15-3v-1.16l-5.15,3Zm-7.24,6.17-8.31,4.8v1.16l8.31-4.8Zm12.39-7.15-10.83,6.25V463l10.83-6.25ZM724.7,468l-4.76,2.75v1.16l4.76-2.75Zm1.56.26,7.67-4.42v-1.16l-7.67,4.42Zm9.23-5.32,5.15-3v-1.16l-5.15,3Zm-7.24,6.16-8.31,4.8V475l8.31-4.8Zm12.39-7.15-10.83,6.25v1.16l10.83-6.25Zm-20.7,16.27,4.76-2.76v-1.16L719.94,477Zm6.32-3.66,7.67-4.42v-1.16l-7.67,4.42Zm9.23-5.32,5.15-3v-1.16l-5.15,3Z"/><path class="cls-64" d="M300.51,441.74l-4.76,2.75v1.16l4.76-2.75Zm1.56.26,7.67-4.43v-1.16l-7.67,4.43Zm9.23-5.33,5.16-3v-1.16l-5.16,3ZM318,432.8,329,426.48v-1.16L318,431.64Zm-13.95,10-8.32,4.8v1.16l8.32-4.8Zm9.87-5.7-8.31,4.8v1.16l8.31-4.8Zm1.56.26,3.47-2v-1.16l-3.47,2Zm5-2.9,8.42-4.87v-1.16l-8.42,4.87ZM295.75,452l4.76-2.75V448l-4.76,2.75Zm6.32-3.65,7.67-4.42v-1.17l-7.67,4.43ZM311.3,443l5.16-3v-1.16l-5.16,3ZM318,439.1,329,432.78v-1.16L318,437.94Z"/><path class="cls-64" d="M314.72,420.43l-2.92,1.69v1.16l2.92-1.69Zm1.56.26,5.05-2.91v-1.16l-5.05,2.91Zm6.61-3.81,5.95-3.44v-1.16l-5.95,3.44Zm-4.62,4.65-6.47,3.74v1.16l6.47-3.74Zm7.26-4.19-5.7,3.29v1.16l5.7-3.29Zm1.56.26,1.8-1V415.4l-1.8,1Zm-15.29,12,2.92-1.68v-1.16l-2.92,1.68Zm4.48-2.58,5.05-2.92v-1.16l-5.05,2.91Zm6.61-3.82,6.07-3.51v-1.16L322.89,422Z"/><path class="cls-64" d="M504.55,362.33l-6.75,3.9v1.2l6.75-3.9Zm10.43-6-8.82,5.1v1.19l8.82-5.1ZM500.9,367.68l-3.1,1.79v1.2l3.1-1.8Zm9.49-5.48-7.89,4.55V368l7.89-4.55Zm1.6.27,3-1.73v-1.19l-3,1.73Zm-7.44,6.34-6.75,3.9v1.19l6.75-3.9Zm10.43-6-8.82,5.1v1.19L515,364ZM500.9,374.16,497.8,376v1.19l3.1-1.79Zm1.6.27,7.89-4.56v-1.19l-7.89,4.55ZM512,369l3-1.73V366l-3,1.74Zm-7.44,6.34-6.75,3.9v1.19l6.75-3.9Zm10.43-6-8.82,5.09v1.2l8.82-5.1ZM497.8,383.62l3.1-1.79v-1.19l-3.1,1.79Zm4.7-2.72,7.89-4.55v-1.19l-7.89,4.55Zm9.49-5.47,3-1.73v-1.2l-3,1.73Z"/><path class="cls-64" d="M602.22,410.17l-4.9,2.83v1.19l4.9-2.83Zm1.61.27,7.88-4.55v-1.2l-7.88,4.56Zm9.48-5.48,5.3-3.06v-1.19l-5.3,3.06Zm6.91-4,11.24-6.5v-1.19l-11.24,6.49ZM605.88,411.3l-8.56,4.94v1.19l8.56-4.94ZM616,405.44l-8.55,4.94v1.19l8.55-4.94Zm1.6.27,3.57-2.06v-1.19l-3.57,2.05Zm5.17-3,8.66-5v-1.19l-8.66,5Zm-25.48,17.95,4.9-2.83v-1.19l-4.9,2.83Zm6.51-3.75,7.88-4.56v-1.19l-7.88,4.55Zm9.48-5.48,5.3-3.06v-1.19l-5.3,3.06Zm6.91-4L631.46,401v-1.19l-11.24,6.49Z"/><path class="cls-64" d="M385.62,658.31l5.2-3v-1.2l-5.2,3Zm6.8-3.93,3.62-2.09V651.1l-3.62,2.09Zm5.23-3,6.09-3.52v-1.19l-6.09,3.52Zm-2.51,3.5-9.49,5.48v1.19l9.49-5.48Zm1.6.26,1.89-1.08v-1.2l-1.89,1.09Zm3.49-2,3.51-2v-1.19l-3.51,2ZM385.7,664.74l12-6.94v-1.2l-12,6.94Zm13.63-7.87,4.41-2.55v-1.19l-4.41,2.55Z"/><path class="cls-64" d="M288.41,611.75l-8.56,4.94v1.19l8.56-4.93Zm10.15-5.86L290,610.83V612l8.55-4.94Zm5.17-3L300.16,605v1.2l3.57-2.06Zm1.6-.93v1.19l4.58-2.64v-1.19ZM284.75,617.1l-4.9,2.83v1.19l4.9-2.83Zm9.49-5.48-7.88,4.56v1.19l7.88-4.55Zm1.6.27,5.3-3.06v-1.19l-5.3,3.06Zm6.91-4,7.16-4.14v-1.19l-7.16,4.13Zm-14.34,10.32-8.56,4.94v1.19l8.56-4.94Zm10.15-5.86L290,617.31v1.19l8.55-4.94Zm5.17-3-3.57,2.05v1.2l3.57-2.06Zm1.6.26,4.58-2.64v-1.2l-4.58,2.65Zm-20.58,13.93-4.9,2.83v1.19l4.9-2.83Zm1.61.27,7.88-4.56V618.1l-7.88,4.55Zm9.48-5.48,5.3-3.06v-1.19l-5.3,3.06Zm6.91-4,7.16-4.13v-1.2l-7.16,4.14Zm-14.34,10.33-8.56,4.94v1.19l8.56-4.94Zm10.15-5.86L290,623.78V625l8.55-4.94Zm1.6.26,3.57-2.05v-1.2l-3.57,2.06Zm5.17-3,4.58-2.65v-1.19l-4.58,2.65Zm-25.48,18,4.9-2.83v-1.19l-4.9,2.83Zm6.51-3.76,7.88-4.55v-1.19l-7.88,4.55Zm9.48-5.47,5.3-3.06v-1.2l-5.3,3.06Zm6.91-4,7.16-4.14v-1.19l-7.16,4.14Z"/><path class="cls-64" d="M342,436.24l-6.92,4v1.19l6.92-4Zm10.15-5.86-8.55,4.93v1.2l8.55-4.94Zm5.17-3-3.56,2.06v1.19l3.56-2.05Zm1.6-.92v1.19l2.63-1.51V425Zm-20.57,15.12-3.27,1.88v1.2l3.27-1.89Zm9.48-5.48-7.88,4.55v1.19l7.88-4.55Zm1.61.27,5.3-3.06v-1.2l-5.3,3.06Zm6.9-4,5.21-3v-1.2l-5.21,3ZM342,442.72l-6.92,4v1.2l6.92-4Zm10.15-5.86-8.55,4.93V443l8.55-4.94Zm5.17-3-3.56,2.06v1.19l3.56-2.05Zm1.6.27,2.63-1.52v-1.19L358.91,433Zm-20.57,13.93L335.07,450v1.19l3.27-1.88Zm1.6.26,7.88-4.55v-1.19l-7.88,4.55Zm9.49-5.47,5.3-3.06v-1.2l-5.3,3.06Zm6.9-4,5.21-3v-1.19l-5.21,3ZM342,449.2l-6.92,4v1.19l6.92-4Zm10.15-5.87-8.55,4.94v1.19l8.55-4.93Zm1.61.27,3.56-2.06v-1.19l-3.56,2.06Zm5.16-3,2.63-1.52v-1.19l-2.63,1.51Zm-23.84,17,3.27-1.88v-1.2l-3.27,1.89Zm4.87-2.81,7.88-4.55v-1.19l-7.88,4.55Zm9.49-5.48,5.3-3.06v-1.19l-5.3,3.06Zm6.9-4,5.21-3v-1.19l-5.21,3Z"/><path class="cls-7" d="M274.9,553.53c-1.31-1.73-4.44-1.68-8.09.43-4.82,2.78-8.72,8.1-8.71,11.86a3.19,3.19,0,0,0,1.39,2.88,2.84,2.84,0,0,1,1.19,2.63,19.87,19.87,0,0,1-.49,3.21l3.6-5.59a13.56,13.56,0,0,0,2.4-1,4.9,4.9,0,0,1-.21-1.48C266,562.36,269.91,556.69,274.9,553.53Z"/><path class="cls-7" d="M283,560.21a9.38,9.38,0,0,0,1.28-4.29c0-3.78-3.93-4.59-8.76-1.8s-8.72,8.1-8.71,11.88,3.93,4.57,8.75,1.79a20,20,0,0,0,3.53-2.63l3.92.57a3.56,3.56,0,0,1-.82-1.81A6.16,6.16,0,0,1,283,560.21Z"/><path class="cls-1" d="M340.89,425.47l-.06-23-5.76-3.34.06,23a3.05,3.05,0,0,0,1.27,2.78l5.76,3.35A3.07,3.07,0,0,1,340.89,425.47Z"/><path class="cls-1" d="M364.61,378.52a3.07,3.07,0,0,0-3.1.3L339.4,391.59a9.53,9.53,0,0,0-4.33,7.51l5.76,3.34a9.56,9.56,0,0,1,4.33-7.51l22.11-12.76a3.07,3.07,0,0,1,3.1-.3Z"/><path class="cls-65" d="M364.61,378.52a3.07,3.07,0,0,0-3.1.3l5.76,3.35a3.07,3.07,0,0,1,3.1-.3Z"/><path class="cls-1" d="M339.4,391.59a9.53,9.53,0,0,0-4.33,7.51l5.76,3.34a9.56,9.56,0,0,1,4.33-7.51Z"/><path class="cls-6" d="M371.63,384.65c0-2.76-2-3.87-4.36-2.48l-22.11,12.76a9.56,9.56,0,0,0-4.33,7.51l.06,23c0,2.76,2,3.87,4.36,2.48l22.12-12.76a9.58,9.58,0,0,0,4.33-7.5Z"/><path class="cls-7" d="M360.65,389.22l-8.17,4.71a1.69,1.69,0,0,0-.81,1.29v14.66s2.84,6.55,2.84,6.55l4.12-2.38,2.83-9.82V389.56C361.46,389.11,361.1,389,360.65,389.22Zm-6.09,19-2.27,1.31v-13l3.07-1.77v13.05Zm6.28-3.62-2.26,1.3-.81.47V393.31l3.07-1.77Z"/><polygon class="cls-7" points="356.57 418.97 357.9 415.21 355.24 416.75 356.57 418.97"/><path class="cls-1" d="M519.86,356.38l-.07-23L514,330l.06,23a3,3,0,0,0,1.27,2.79l5.76,3.34A3,3,0,0,1,519.86,356.38Z"/><path class="cls-1" d="M543.58,309.43a3.07,3.07,0,0,0-3.1.3l-22.11,12.76A9.56,9.56,0,0,0,514,330l5.75,3.35a9.58,9.58,0,0,1,4.34-7.51l22.11-12.76a3.06,3.06,0,0,1,3.09-.31Z"/><path class="cls-65" d="M543.58,309.43a3.07,3.07,0,0,0-3.1.3l5.76,3.35a3.06,3.06,0,0,1,3.09-.31Z"/><path class="cls-1" d="M518.37,322.49A9.56,9.56,0,0,0,514,330l5.75,3.35a9.58,9.58,0,0,1,4.34-7.51Z"/><path class="cls-6" d="M550.6,315.56c0-2.76-2-3.87-4.36-2.48l-22.11,12.76a9.58,9.58,0,0,0-4.34,7.51l.07,23c0,2.76,2,3.86,4.36,2.48l22.11-12.77a9.53,9.53,0,0,0,4.34-7.5Z"/><polygon class="cls-7" points="545.43 321.16 525.03 332.94 525.03 354.1 545.43 342.32 545.43 321.16"/><path class="cls-66" d="M545.43,322.28,525,334.06v.35l20.4-11.78Zm0,2.21L525,336.27v.35l20.4-11.78Zm0,2.21L525,338.48v.35l20.4-11.78Zm0,2.2L525,340.68V341l20.4-11.78Zm0,2.21L525,342.89v.35l20.4-11.78Zm0,2.21L525,345.1v.35l20.4-11.78Zm0,2.2L525,347.3v.35l20.4-11.78Zm0,2.21L525,349.51v.35l20.4-11.78Zm0,2.21L525,351.72v.35l20.4-11.78Z"/><polygon class="cls-7" points="545.43 321.86 525.03 333.64 525.03 329.62 545.43 317.84 545.43 321.86"/><path class="cls-67" d="M527.06,331l-1.22.71v-2l1.22-.71Zm2.19-3.23-1.22.71v2l1.22-.71Zm2.19-1.27-1.22.71v2l1.22-.71Zm2.19-1.26-1.22.71v2l1.22-.71Zm2.19-1.26-1.22.7v2l1.22-.7Zm2.19-1.27-1.23.71v2l1.23-.71Zm2.19-1.26-1.23.71v2l1.23-.71Zm2.19-1.27-1.23.71v2l1.23-.71Zm2.19-1.26-1.23.71v2l1.23-.71Z"/><path class="cls-1" d="M602,402.4l-.06-23L596.15,376l.07,23a3,3,0,0,0,1.26,2.78l5.76,3.35A3.07,3.07,0,0,1,602,402.4Z"/><path class="cls-1" d="M625.69,355.45a3.08,3.08,0,0,0-3.09.3l-22.11,12.77a9.54,9.54,0,0,0-4.34,7.51l5.76,3.34a9.56,9.56,0,0,1,4.33-7.51l22.11-12.76a3.07,3.07,0,0,1,3.1-.3Z"/><path class="cls-1" d="M600.49,368.52a9.54,9.54,0,0,0-4.34,7.51l5.76,3.34a9.56,9.56,0,0,1,4.33-7.51Z"/><path class="cls-6" d="M632.72,361.59c0-2.77-2-3.88-4.37-2.49l-22.11,12.76a9.56,9.56,0,0,0-4.33,7.51l.06,23c0,2.76,2,3.87,4.37,2.48l22.11-12.76a9.55,9.55,0,0,0,4.33-7.5Z"/><path class="cls-7" d="M628.41,379.45l1.38-1.24-.16-2.24-1.37.6a3.19,3.19,0,0,0-.64-1.16l.7-1.84-1.54-.63-1.09,1.6a4.17,4.17,0,0,0-1.39.25l-.39-1.37-2,1.35-.16,1.67a10.25,10.25,0,0,0-1.32,1.5l-1.26-.09-1.31,2.53.85.76a9.8,9.8,0,0,0-.48,1.88l-1.38,1.24.16,2.24,1.36-.6a3.46,3.46,0,0,0,.65,1.16l-.7,1.84,1.55.63,1.08-1.6a4.17,4.17,0,0,0,1.39-.25l.39,1.37,2-1.35.15-1.66a11.57,11.57,0,0,0,1.33-1.51l1.25.09,1.32-2.53-.85-.76A11.29,11.29,0,0,0,628.41,379.45Zm-3.92,3.08a3.77,3.77,0,0,1-1.18,1.1,1.31,1.31,0,0,1-1.72-.05c-.66-.72-.42-2.35.53-3.65a3.85,3.85,0,0,1,1.18-1.09,1.33,1.33,0,0,1,1.73.05C625.68,379.61,625.44,381.24,624.49,382.53Z"/><path class="cls-7" d="M617,380.18a14.53,14.53,0,0,0,.79-2.57l1.91-1.53v-3.17l-1.83.65a5.3,5.3,0,0,0-.74-1.73l1.07-2.47-1.95-1.12-1.55,2.09a4.52,4.52,0,0,0-1.84.15l-.38-2-2.76,1.59-.36,2.32a14.66,14.66,0,0,0-1.85,1.91l-1.63-.3-1.93,3.35,1,1.19a15.28,15.28,0,0,0-.8,2.58l-1.9,1.53v3.16l1.83-.64a5,5,0,0,0,.74,1.72l-1.08,2.48,2,1.11,1.55-2.08a4.9,4.9,0,0,0,1.84-.15l.38,2,2.76-1.59.35-2.31a15.54,15.54,0,0,0,1.87-1.92l1.61.31,1.95-3.37Zm-4.58,1.19a5.21,5.21,0,0,1-1.42,1.25c-1,.57-1.93.53-2.46-.2-.78-1.11-.32-3.37,1-5a5.09,5.09,0,0,1,1.41-1.26c1-.56,1.93-.53,2.46.21C614.22,377.43,613.76,379.69,612.41,381.37Z"/><path class="cls-1" d="M255.83,583.83l-.06-23L250,557.45l.06,23a3.07,3.07,0,0,0,1.27,2.79l5.76,3.34A3,3,0,0,1,255.83,583.83Z"/><path class="cls-1" d="M279.55,536.88a3.07,3.07,0,0,0-3.1.3L254.34,550a9.52,9.52,0,0,0-4.33,7.5l5.76,3.35a9.56,9.56,0,0,1,4.33-7.51l22.11-12.76a3.08,3.08,0,0,1,3.1-.31Z"/><path class="cls-1" d="M254.34,550a9.52,9.52,0,0,0-4.33,7.5l5.76,3.35a9.56,9.56,0,0,1,4.33-7.51Z"/><path class="cls-6" d="M286.58,543c0-2.76-2-3.87-4.37-2.48L260.1,553.29a9.56,9.56,0,0,0-4.33,7.51l.06,23c0,2.76,2,3.87,4.37,2.48l22.11-12.77a9.52,9.52,0,0,0,4.33-7.5Z"/><path class="cls-1" d="M725.69,443.94l-.07-23-5.76-3.35.07,23a3,3,0,0,0,1.27,2.78l5.75,3.34A3,3,0,0,1,725.69,443.94Z"/><path class="cls-1" d="M749.41,397a3.07,3.07,0,0,0-3.1.3L724.2,410.06a9.56,9.56,0,0,0-4.34,7.5l5.76,3.35A9.57,9.57,0,0,1,730,413.4l22.11-12.76a3.06,3.06,0,0,1,3.09-.31Z"/><path class="cls-1" d="M724.2,410.06a9.56,9.56,0,0,0-4.34,7.5l5.76,3.35A9.57,9.57,0,0,1,730,413.4Z"/><path class="cls-6" d="M756.43,403.12c0-2.76-2-3.87-4.36-2.48L730,413.4a9.57,9.57,0,0,0-4.34,7.51l.07,23c0,2.76,2,3.87,4.36,2.48l22.11-12.76a9.59,9.59,0,0,0,4.34-7.51Z"/><path class="cls-7" d="M748.14,424V407.14a.93.93,0,0,0-1.62-.63l-12.84,13.91a.93.93,0,0,0-.25.63v12.79a5.39,5.39,0,0,0-1.67.67c-2,1.13-3.56,3.15-3.56,4.5s1.6,1.52,3.56.39,3.56-3.15,3.56-4.5c0-.09,0-12.73,0-12.73l11-11.88V423a5.93,5.93,0,0,0-1.67.67c-2,1.13-3.56,3.15-3.56,4.5s1.59,1.52,3.56.39,3.56-3.15,3.56-4.5A.36.36,0,0,0,748.14,424Z"/><path class="cls-1" d="M757.28,534.9l-.07-23-5.76-3.34.07,23a3,3,0,0,0,1.26,2.78l5.76,3.35A3,3,0,0,1,757.28,534.9Z"/><path class="cls-1" d="M781,487.94a3.08,3.08,0,0,0-3.09.3L755.79,501a9.55,9.55,0,0,0-4.34,7.51l5.76,3.34a9.53,9.53,0,0,1,4.34-7.5l22.11-12.77a3.05,3.05,0,0,1,3.09-.3Z"/><path class="cls-1" d="M755.79,501a9.55,9.55,0,0,0-4.34,7.51l5.76,3.34a9.53,9.53,0,0,1,4.34-7.5Z"/><path class="cls-6" d="M788,494.08c0-2.77-2-3.87-4.36-2.49l-22.11,12.77a9.53,9.53,0,0,0-4.34,7.5l.07,23c0,2.75,2,3.86,4.36,2.47l22.11-12.76a9.54,9.54,0,0,0,4.33-7.5Z"/><polygon class="cls-7" points="773.27 504.51 773.26 503 771.95 503.76 771.96 505.27 773.27 504.51"/><polygon class="cls-7" points="780.42 510.06 781.72 509.31 781.72 507.8 780.42 508.55 780.42 510.06"/><polygon class="cls-7" points="772.03 523.11 772.03 524.62 773.34 523.86 773.34 522.35 772.03 523.11"/><polygon class="cls-7" points="763.57 518.31 763.58 519.81 764.88 519.06 764.87 517.56 763.57 518.31"/><path class="cls-7" d="M775.92,506.79a.44.44,0,0,0-.34.07,1.16,1.16,0,0,0-.47.56l-2.35,5.07-.12,0a2.39,2.39,0,0,0-1,1.58l-6,3.46a.57.57,0,0,0-.25.43.16.16,0,0,0,.25.15l6-3.46c.12.51.54.69,1.07.39a2.45,2.45,0,0,0,1.11-1.92,1.08,1.08,0,0,0-.08-.39l2.38-5.13C776.24,507.25,776.18,506.86,775.92,506.79Z"/><path class="cls-7" d="M781.75,502.49c-1.41-2-3.69-2.69-6.41-1.95a11.72,11.72,0,0,0-2.75,1.16,19.61,19.61,0,0,0-5.25,4.67,24.43,24.43,0,0,0-4.88,10.18c-.72,3.54-.33,6.6,1.08,8.58,2,2.76,5.52,2.88,9.16.78a19.45,19.45,0,0,0,5.25-4.66,24.31,24.31,0,0,0,4.88-10.18C783.55,507.53,783.17,504.47,781.75,502.49Zm.58,8.71a23.19,23.19,0,0,1-4.64,9.69,18.39,18.39,0,0,1-5,4.43,10.77,10.77,0,0,1-2.6,1.11c-2.59.69-4.76,0-6.11-1.85s-1.71-4.79-1-8.17a23.15,23.15,0,0,1,4.64-9.68,18.39,18.39,0,0,1,5-4.43,10.45,10.45,0,0,1,2.61-1.11c2.58-.69,4.75,0,6.1,1.85S783,507.83,782.33,511.2Z"/><path class="cls-7" d="M274.33,555c-1.11-1.46-3.76-1.42-6.85.36-4.08,2.36-7.39,6.86-7.38,10.06a2.73,2.73,0,0,0,1.18,2.44,2.41,2.41,0,0,1,1,2.23,17.27,17.27,0,0,1-.42,2.71l3.05-4.73a11.44,11.44,0,0,0,2-.83,4.39,4.39,0,0,1-.17-1.25C266.77,562.53,270.11,557.72,274.33,555Z"/><path class="cls-7" d="M281.22,560.7a7.9,7.9,0,0,0,1.09-3.64c0-3.2-3.33-3.88-7.42-1.52s-7.39,6.87-7.38,10.07,3.32,3.87,7.41,1.51a16.56,16.56,0,0,0,3-2.22l3.33.48a2.9,2.9,0,0,1-.7-1.54A5.13,5.13,0,0,1,281.22,560.7Z"/><path class="cls-7" d="M529.8,697.44c-1.31-1.73-4.44-1.69-8.09.42-4.82,2.78-8.72,8.1-8.71,11.87a3.21,3.21,0,0,0,1.4,2.88,2.86,2.86,0,0,1,1.19,2.63,19,19,0,0,1-.5,3.2l3.6-5.59a13.56,13.56,0,0,0,2.4-1,4.85,4.85,0,0,1-.21-1.48C520.87,706.27,524.82,700.59,529.8,697.44Z"/><path class="cls-7" d="M537.93,704.12a9.45,9.45,0,0,0,1.28-4.3c0-3.78-3.93-4.58-8.75-1.8s-8.73,8.11-8.72,11.88,3.93,4.58,8.76,1.79a20.76,20.76,0,0,0,3.52-2.62l3.93.56a3.38,3.38,0,0,1-.83-1.81A6.13,6.13,0,0,1,537.93,704.12Z"/><path class="cls-1" d="M510.74,727.73l-.07-23-5.76-3.34.07,23a3,3,0,0,0,1.26,2.78l5.76,3.35A3,3,0,0,1,510.74,727.73Z"/><path class="cls-1" d="M534.45,680.78a3.08,3.08,0,0,0-3.09.3l-22.11,12.77a9.54,9.54,0,0,0-4.34,7.51l5.76,3.34a9.53,9.53,0,0,1,4.34-7.5l22.11-12.77a3.05,3.05,0,0,1,3.09-.3Z"/><path class="cls-1" d="M509.25,693.85a9.54,9.54,0,0,0-4.34,7.51l5.76,3.34a9.53,9.53,0,0,1,4.34-7.5Z"/><path class="cls-6" d="M541.48,686.92c0-2.77-2-3.88-4.36-2.49L515,697.2a9.53,9.53,0,0,0-4.34,7.5l.07,23c0,2.76,2,3.87,4.36,2.48l22.11-12.76a9.55,9.55,0,0,0,4.33-7.5Z"/><path class="cls-7" d="M530.78,695.48c-2.7-2.22-8-.05-11.75,4.83s-4.65,10.66-1.95,12.88c2.36,1.94,6.69.52,10.26-3.13l5.92,4.87c.55.45,1.61,0,2.38-1s.94-2.15.39-2.6l-5.92-4.86C532.77,702.08,533.14,697.42,530.78,695.48Zm-3,12c-3,3.82-7.06,5.51-9.17,3.77s-1.42-6.24,1.53-10,7.06-5.5,9.17-3.77S530.7,703.66,527.75,707.47Z"/><ellipse class="cls-68" cx="452.86" cy="735.17" rx="31.03" ry="16.3" transform="translate(-306.91 324.92) rotate(-30)"/><polygon class="cls-1" points="443.4 715.28 443.83 721.71 442.58 718.19 442.15 711.76 443.4 715.28"/><polygon class="cls-1" points="475.68 715.54 476.1 721.97 472.74 724.83 472.31 718.39 475.68 715.54"/><polygon class="cls-1" points="436.88 721.95 437.31 728.39 432.36 726.27 431.93 719.83 436.88 721.95"/><path class="cls-1" d="M468.41,722.23l.43,6.43c-1.84-10.09-25.71-8.52-26.2,1.74l-.43-6.44C442.7,713.71,466.58,712.13,468.41,722.23Z"/><g class="cls-69"><g class="cls-3"><path class="cls-1" d="M468.41,722.23l.43,6.43c0-2.52-3.27-5.14-6.2-5.91l-.42-6.43c2.92.77,6.23,3.38,6.19,5.91"/><path class="cls-1" d="M462.22,716.32l.42,6.43q-.78-.24-1.62-.42l-.43-6.44c.56.12,1.1.26,1.63.43"/><path class="cls-1" d="M460.59,715.89l.43,6.44c-.46-.1-.92-.18-1.39-.24l-.43-6.44c.47.07.94.15,1.39.24"/><path class="cls-1" d="M459.2,715.65l.43,6.44c-.44-.06-.88-.11-1.32-.14l-.42-6.43c.44,0,.88.07,1.31.13"/><path class="cls-1" d="M457.89,715.52l.42,6.43c-.42,0-.85-.05-1.28-.05l-.43-6.44c.43,0,.86,0,1.29.06"/><path class="cls-1" d="M456.6,715.46l.43,6.44c-.43,0-.86,0-1.29,0l-.43-6.44c.43,0,.86,0,1.29,0"/><path class="cls-1" d="M455.31,715.48l.43,6.44c-.45,0-.9.05-1.34.09l-.43-6.43c.45-.05.89-.08,1.34-.1"/><path class="cls-1" d="M454,715.58l.43,6.43c-.49.06-1,.12-1.45.2l-.43-6.43c.48-.08,1-.15,1.45-.2"/><path class="cls-1" d="M452.52,715.78l.43,6.43c-.56.1-1.11.21-1.66.35l-.42-6.43c.54-.14,1.09-.26,1.65-.35"/><path class="cls-1" d="M450.87,716.13l.42,6.43a18.85,18.85,0,0,0-2.41.78l-.42-6.44a20,20,0,0,1,2.41-.77"/><path class="cls-1" d="M448.46,716.9l.42,6.44a15,15,0,0,0-2.94,1.56l-.43-6.43a15.37,15.37,0,0,1,2.95-1.57"/><path class="cls-1" d="M445.51,718.47l.43,6.43a9.91,9.91,0,0,0-1.59,1.36l-.43-6.43a9.84,9.84,0,0,1,1.59-1.36"/><path class="cls-1" d="M443.92,719.83l.43,6.43a6.37,6.37,0,0,0-.75.93l-.43-6.44a8.9,8.9,0,0,1,.75-.92"/><path class="cls-1" d="M443.17,720.75l.43,6.44a6.17,6.17,0,0,0-.47.82c.08-.71-.87-6.88,0-7.26"/><path class="cls-1" d="M442.7,721.57c0,.56.69,6.9.13,7.2.05-.55-.73-6.91-.13-7.2"/><path class="cls-1" d="M442.4,722.34c0,.44.59,7,.27,7.19,0-.45-.62-7-.27-7.19"/><path class="cls-1" d="M442.24,723.09c0,.38.5,7.06.39,7.19,0-.38-.53-7-.39-7.19"/><path class="cls-1" d="M442.21,723.85c0,.14.43,6.41.43,6.55,0-.14-.43-6.41-.43-6.55"/></g></g><polygon class="cls-1" points="478.99 721.61 479.42 728.04 479.06 731.06 478.63 724.62 478.99 721.61"/><polygon class="cls-1" points="478.63 724.62 479.06 731.06 473.08 731.83 472.65 725.39 478.63 724.62"/><polygon class="cls-1" points="432.83 729.14 433.26 735.58 431.65 732.84 431.23 726.4 432.83 729.14"/><polygon class="cls-1" points="438.83 729.02 439.25 735.46 433.26 735.58 432.83 729.14 438.83 729.02"/><polygon class="cls-1" points="472.65 725.39 473.08 731.83 471.03 734.72 470.6 728.28 472.65 725.39"/><polygon class="cls-1" points="441.53 731.16 441.96 737.59 439.25 735.46 438.83 729.02 441.53 731.16"/><polygon class="cls-1" points="464.82 731.81 465.24 738.25 461.35 739.55 460.92 733.12 464.82 731.81"/><polygon class="cls-1" points="452.69 733.8 453.12 740.23 449.06 739.75 448.64 733.32 452.69 733.8"/><polygon class="cls-1" points="469.84 733.44 470.27 739.87 465.24 738.25 464.82 731.81 469.84 733.44"/><polygon class="cls-1" points="473.51 730.95 473.93 737.38 470.27 739.87 469.84 733.44 473.51 730.95"/><polygon class="cls-1" points="448.64 733.32 449.06 739.75 443.91 742.33 443.48 735.89 448.64 733.32"/><polygon class="cls-1" points="443.48 735.89 443.91 742.33 439.73 740.93 439.3 734.49 443.48 735.89"/><polygon class="cls-1" points="460.92 733.12 461.35 739.55 459.98 743.11 459.55 736.68 460.92 733.12"/><polygon class="cls-1" points="459.55 736.68 459.98 743.11 455.4 743.64 454.97 737.21 459.55 736.68"/><polygon class="cls-1" points="454.97 737.21 455.4 743.64 453.12 740.23 452.69 733.8 454.97 737.21"/><path class="cls-15" d="M464.82,731.81l-3.9,1.31-1.37,3.56-4.58.53-2.28-3.41-4.05-.48-5.16,2.57-4.18-1.4,2.23-3.33-2.7-2.13-6,.11-1.6-2.74,4.81-1.79.84-2.66-4.95-2.12,2.06-2.89,6.39.3,3-2-1.25-3.52,4.36-1.5,4.31,2.64,4.76-.75,3.18-2.85,4.52.51.4,3.19,4.08,1.57,5.2-1.49,2.72,2.46-3.37,2.85,1.22,2.55,5.46.67-.36,3-6,.77-2,2.89,2.91,2.67-3.67,2.49Zm-.05-3.86c5.15-3.3,4.74-8.29-.61-10.86s-13.37-2.06-18.31,1.15c-5.14,3.3-4.74,8.29.61,10.86s13.37,2.06,18.31-1.15"/><polygon class="cls-1" points="427.8 738.53 428.03 742.07 427.35 740.13 427.11 736.6 427.8 738.53"/><polygon class="cls-1" points="445.53 738.67 445.77 742.21 443.92 743.78 443.69 740.24 445.53 738.67"/><polygon class="cls-1" points="424.22 742.2 424.45 745.74 421.73 744.57 421.5 741.04 424.22 742.2"/><path class="cls-1" d="M441.54,742.35l.24,3.54c-1.12-5.57-14-4.71-14.4,1l-.23-3.53C427.52,737.64,440.43,736.79,441.54,742.35Z"/><g class="cls-70"><g class="cls-3"><path class="cls-1" d="M441.54,742.35l.24,3.54c0-1.39-1.8-2.83-3.41-3.25l-.23-3.54c1.6.43,3.43,1.86,3.4,3.25"/><path class="cls-1" d="M438.14,739.1l.23,3.54a8.28,8.28,0,0,0-.89-.23l-.23-3.54c.3.07.6.14.89.23"/><path class="cls-1" d="M437.25,738.87l.23,3.54c-.25-.06-.51-.1-.76-.14l-.24-3.53c.26,0,.52.08.77.13"/><path class="cls-1" d="M436.48,738.74l.24,3.53-.73-.07-.23-3.54.72.08"/><path class="cls-1" d="M435.76,738.66l.23,3.54c-.23,0-.47,0-.7,0l-.24-3.54.71,0"/><path class="cls-1" d="M435.05,738.63l.24,3.54h-.71l-.24-3.54h.71"/><path class="cls-1" d="M434.34,738.64l.24,3.54-.74.05-.23-3.53c.24,0,.49-.05.73-.06"/><path class="cls-1" d="M433.61,738.7l.23,3.53-.8.11-.23-3.53c.26,0,.53-.08.8-.11"/><path class="cls-1" d="M432.81,738.81l.23,3.53c-.3,0-.61.12-.9.19L431.9,739a9.18,9.18,0,0,1,.91-.19"/><path class="cls-1" d="M431.9,739l.24,3.53a10.89,10.89,0,0,0-1.33.43l-.23-3.53a9.26,9.26,0,0,1,1.32-.43"/><path class="cls-1" d="M430.58,739.43l.23,3.53a8.61,8.61,0,0,0-1.62.86l-.23-3.53a7.59,7.59,0,0,1,1.62-.86"/><path class="cls-1" d="M429,740.29l.23,3.53a5.47,5.47,0,0,0-.87.75l-.24-3.54a5.46,5.46,0,0,1,.88-.74"/><path class="cls-1" d="M428.08,741l.24,3.54a3.27,3.27,0,0,0-.41.51l-.24-3.54a6.11,6.11,0,0,1,.41-.51"/><path class="cls-1" d="M427.67,741.54l.24,3.54a2.51,2.51,0,0,0-.26.45c.05-.39-.48-3.78,0-4"/><path class="cls-1" d="M427.41,742c0,.31.38,3.79.08,4,0-.31-.41-3.8-.08-4"/><path class="cls-1" d="M427.25,742.41a31.66,31.66,0,0,1,.15,4,28.12,28.12,0,0,1-.15-4"/><path class="cls-1" d="M427.16,742.83c0,.21.28,3.87.22,3.95,0-.22-.3-3.88-.22-3.95"/><path class="cls-1" d="M427.14,743.24c0,.08.24,3.53.24,3.6,0-.08-.23-3.52-.24-3.6"/></g></g><path class="cls-1" d="M447.35,742a22.54,22.54,0,0,1,0,5.19A23.72,23.72,0,0,1,447.35,742Z"/><polygon class="cls-1" points="447.16 743.67 447.39 747.2 444.11 747.63 443.87 744.09 447.16 743.67"/><polygon class="cls-1" points="421.99 746.15 422.23 749.69 421.35 748.18 421.11 744.64 421.99 746.15"/><polygon class="cls-1" points="425.29 746.09 425.52 749.62 422.23 749.69 421.99 746.15 425.29 746.09"/><polygon class="cls-1" points="443.87 744.09 444.11 747.63 442.98 749.21 442.74 745.68 443.87 744.09"/><polygon class="cls-1" points="426.77 747.26 427.01 750.79 425.52 749.62 425.29 746.09 426.77 747.26"/><polygon class="cls-1" points="439.57 747.62 439.8 751.15 437.66 751.87 437.43 748.34 439.57 747.62"/><polygon class="cls-1" points="432.91 748.71 433.14 752.24 430.91 751.98 430.68 748.44 432.91 748.71"/><polygon class="cls-1" points="442.33 748.51 442.56 752.05 439.8 751.15 439.57 747.62 442.33 748.51"/><polygon class="cls-1" points="444.34 747.14 444.58 750.68 442.56 752.05 442.33 748.51 444.34 747.14"/><polygon class="cls-1" points="430.68 748.44 430.91 751.98 428.08 753.39 427.84 749.86 430.68 748.44"/><polygon class="cls-1" points="427.84 749.86 428.08 753.39 425.78 752.63 425.55 749.09 427.84 749.86"/><polygon class="cls-1" points="437.43 748.34 437.66 751.87 436.91 753.83 436.67 750.29 437.43 748.34"/><polygon class="cls-1" points="436.67 750.29 436.91 753.83 434.39 754.12 434.16 750.58 436.67 750.29"/><polygon class="cls-1" points="434.16 750.58 434.39 754.12 433.14 752.24 432.91 748.71 434.16 750.58"/><path class="cls-15" d="M439.57,747.62l-2.14.72-.76,1.95-2.51.29-1.25-1.87-2.23-.27-2.84,1.42-2.29-.77,1.22-1.83-1.48-1.17-3.3.06-.88-1.51,2.65-1,.46-1.46L421.5,741l1.13-1.59,3.51.16,1.66-1.08-.69-1.93,2.4-.82,2.37,1.45,2.61-.42,1.75-1.56,2.48.28.22,1.75,2.25.86,2.85-.82,1.49,1.35-1.85,1.57.67,1.4,3,.37-.19,1.66-3.29.42-1.13,1.59,1.6,1.46-2,1.37Zm0-2.12c2.83-1.82,2.61-4.56-.33-6a11.26,11.26,0,0,0-10.06.63c-2.83,1.82-2.61,4.56.33,6a11.3,11.3,0,0,0,10.06-.63"/><ellipse class="cls-71" cx="762.23" cy="673.23" rx="17.42" ry="9.83"/><polygon class="cls-1" points="776.07 670.98 776.06 673.63 762.53 681.31 762.54 678.67 776.07 670.98"/><polygon class="cls-1" points="762.54 678.67 762.53 681.31 748.91 673.63 748.92 670.98 762.54 678.67"/><polygon class="cls-12" points="776.07 670.98 762.54 678.67 748.92 670.98 762.45 663.3 776.07 670.98"/><path class="cls-10" d="M765,598.23c-.19-2.09-4.92-2.11-5.23-.08h0l-.21,73.16c.37,1.78,3.39,1.81,4.67.93,1.61-.43.24-73.17.78-74.08Zm-.52.81,0,0Zm.47-.58,0,0,0-.06Zm-.07.14,0,0,0,0Zm-.09.15,0,0,0,0Zm-.16.16h0Zm.34-.54s0,0,0-.06S764.93,598.35,764.92,598.37Zm-.63.77-.1.06Zm-4.49-.63s0,0,0,.06S759.81,598.53,759.8,598.51Zm-.08-.29a.15.15,0,0,0,0,.07A.15.15,0,0,1,759.72,598.22Zm0,.15s0,0,0,.06S759.75,598.39,759.75,598.37Zm.22.41,0,.06Zm-.1-.13,0,.06Zm.38.4.06,0Zm-.15-.13,0,.05Z"/><path class="cls-72" d="M795.85,579.39l-.11,40.44a1.74,1.74,0,0,1-.73,1.56h0c3.51.73.87-41.19,1.7-42.49Z"/><polygon class="cls-73" points="733.91 544.44 734.77 543.95 796.71 578.9 795.85 579.39 733.91 544.44"/><g class="cls-74"><path class="cls-75" d="M795.85,579.39l-.11,40.44c0,1.54-1.13,2.16-2.5,1.39l-57-32.14a5.31,5.31,0,0,1-2.48-4.21l.11-40.43Z"/></g><g class="cls-3"><g class="cls-76"><g class="cls-3"><path class="cls-77" d="M734.64,542.48c.15-.08.91-.54,1.06-.58-.14.09-.92.53-1.06.58Z"/><path class="cls-78" d="M734.84,542.39a6.38,6.38,0,0,1,1-.53,6.8,6.8,0,0,1-1,.53Z"/><path class="cls-79" d="M735,542.35c.09-.05.9-.56,1-.51a6.74,6.74,0,0,1-1,.51Z"/><path class="cls-80" d="M735.16,542.32c.08,0,.9-.55,1-.49-.08,0-.9.55-1,.49Z"/><path class="cls-81" d="M735.29,542.32c.07,0,.9-.56,1-.49l-.86.49Z"/><path class="cls-82" d="M735.41,542.32l.86-.49.11,0-.86.48Z"/><path class="cls-83" d="M735.52,542.33l.86-.48h.11l-.86.49-.11,0Z"/><path class="cls-84" d="M735.63,542.35l.86-.49.1,0-.86.49-.1,0Z"/><path class="cls-85" d="M735.73,542.37l.86-.49.1,0-.86.49-.1,0Z"/><path class="cls-86" d="M735.83,542.4l.86-.49.1,0-.86.49-.1,0Z"/><path class="cls-87" d="M735.93,542.43l.86-.49.1,0-.86.49-.1,0Z"/><path class="cls-88" d="M736,542.47l.86-.49.1,0-.86.49-.1,0Z"/><path class="cls-89" d="M736.13,542.51,737,542l.1.05-.86.49-.1,0Z"/><path class="cls-90" d="M736.23,542.56l.86-.49.1,0-.86.49-.1-.05Z"/><path class="cls-91" d="M736.33,542.61l.86-.49.08,0-.86.49-.08,0Z"/></g></g></g><polygon class="cls-72" points="795.86 579 796.71 578.51 796.71 578.9 795.85 579.39 795.86 579"/><path class="cls-72" d="M793.86,575.13a5.29,5.29,0,0,1,2,3.86l.86-.48a5,5,0,0,0-1.09-2.94h0a4.92,4.92,0,0,0-1.26-1.19l-57.09-32.22-.86.49C737.07,543.08,793.29,574.65,793.86,575.13Z"/><path class="cls-10" d="M793.37,574.8a5.25,5.25,0,0,1,2.48,4.59l-61.94-34.95c-.16-1.62.93-2.71,2.5-1.79Z"/><polygon points="789.78 611.95 737.17 582.26 737.17 555.62 737.54 555.83 737.54 582.05 789.78 611.53 789.78 611.95"/><path class="cls-86" d="M740.14,585.1h-.25l0-.19.32,0,.17.1v1.64l-.2-.11Z"/><path class="cls-86" d="M744.19,588.82v-.14c.33-.17.73-.36.7-.64s-.33-.64-.6-.51l-.06-.2a.74.74,0,0,1,.24,1.45h0l.65.37v.18Z"/><path class="cls-86" d="M748.71,591.11c.71.85.92-.14.17-.45v-.16c.7.46.42-.63-.12-.49l0-.19c.46-.14,1.23.91.53.95h0c.77.7,0,1.3-.58.47Z"/><path class="cls-86" d="M753.27,593.94v-.45l-.68-.38V593l.65-.68.21.12v1l.21.12v.17l-.21-.11V594Zm0-.62c0-.18,0-.63,0-.8h0a3,3,0,0,1-.48.53h0Z"/><path class="cls-86" d="M757.56,594.93h0l-.26,0,0-.2h.31l.17.1v1.64l-.19-.11Z"/><path class="cls-86" d="M758.71,595.57h-.26l0-.19h.32l.17.09v1.65l-.19-.11Z"/><path class="cls-86" d="M762.28,599v-.13c.33-.17.73-.36.7-.64s-.33-.64-.6-.52l-.06-.19a.74.74,0,0,1,.24,1.45h0l.65.36v.19Z"/><path class="cls-86" d="M764,600v-.45l-.68-.38V599l.65-.68.21.12v1l.21.11v.18l-.21-.12v.45Zm0-.63c0-.18,0-.62,0-.8h0a3,3,0,0,1-.48.53h0Z"/><path class="cls-86" d="M768.85,602.73v-.13c.33-.17.73-.37.7-.64s-.33-.64-.6-.52l-.06-.19a.74.74,0,0,1,.24,1.45h0l.65.37v.19Z"/><path class="cls-86" d="M770.83,602.36c-.28-.2-.64-.11-.65.23h0c.63-.39,1.26,1.47.31,1.1-.72-.3-.72-2.16.34-1.51Zm-.06.92c0-.29-.33-.77-.58-.5S770.7,604,770.77,603.28Z"/><path class="cls-86" d="M775.47,606.21c.71.85.92-.14.16-.45v-.16c.71.46.43-.62-.11-.48l0-.2c.45-.14,1.23.92.53,1h0c.77.7,0,1.3-.58.47Z"/><path class="cls-86" d="M776.57,607.09V607c.33-.17.73-.36.7-.63s-.33-.65-.6-.52l-.06-.19a.74.74,0,0,1,.24,1.45h0l.65.37v.18Z"/><path class="cls-86" d="M782.13,610.22v-.44l-.68-.38v-.15l.65-.68.21.12v1l.21.11V610l-.21-.12v.45Zm0-.62c0-.18,0-.62,0-.8h0a4,4,0,0,1-.48.53h0Z"/><path class="cls-86" d="M782.67,610.53v-.14c.33-.17.73-.36.69-.63s-.33-.65-.59-.52l-.07-.19a.74.74,0,0,1,.24,1.45h0l.66.37v.18Z"/><path class="cls-86" d="M788.56,612.21c.1.06-.61,1.22-.63,1.29l-.21-.12s.64-1.09.63-1.1l-.71-.4v-.19Z"/><path class="cls-86" d="M789.19,612.78h-.26l0-.19h.31l.17.1v1.64l-.19-.11Z"/><polygon class="cls-7" points="777.32 573.85 774.42 572.22 774.42 568.96 777.32 570.59 777.32 573.85"/><polygon class="cls-92" points="781.35 574.95 778.34 573.25 778.34 572.1 781.35 573.8 781.35 574.95"/><polygon class="cls-33" points="786.81 579.21 783.91 577.58 783.91 574.31 786.81 575.94 786.81 579.21"/><polygon class="cls-7" points="790.84 580.3 787.83 578.6 787.83 577.45 790.84 579.15 790.84 580.3"/><path class="cls-33" d="M767.62,579.51l3-1.7a20.66,20.66,0,0,0-7.43-7.86v4.8A12.12,12.12,0,0,1,767.62,579.51Z"/><path class="cls-12" d="M763.21,588a12.61,12.61,0,0,1-5.86-9.91c0-3.65,2.63-5.13,5.86-3.31V570c-5.59-3.15-10.11-.6-10.11,5.71s4.52,14,10.11,17.11,10.11.6,10.11-5.7l-4.26-2.4C769.06,588.31,766.44,589.79,763.21,588Z"/><path class="cls-7" d="M767.62,579.51a11.19,11.19,0,0,1,1.44,5.16l4.26,2.4a19.67,19.67,0,0,0-2.68-9.26Z"/><path class="cls-86" d="M761.94,581.59l-.29-.17v.83l-.53-.3v-.83l-1-.59c-.19-.42.79-2.23.94-2.61l.63.35v2.59l.29.16Zm-.82-1V579l-.54,1.26Z"/><path class="cls-86" d="M762.27,581.69v-.11l.52.23c-.14.43.54,1.22.63.54v-.92c.07-.42-.65-.86-.61-.23l-.52-.29v-2.27l1.53.86v.57l-1-.58v1c.53-.37,1.21.6,1.15,1.16v1C763.86,584.16,762.08,582.56,762.27,581.69Z"/><path class="cls-86" d="M764.38,581.39v-1c0-1,1.2,0,1.06.6v1C765.4,583,764.24,582,764.38,581.39Zm.71.43v-1.05c0-.25-.35-.6-.36-.21v1.05C764.68,581.86,765.08,582.21,765.09,581.82Zm1.18-.94.35.2-1.47,3.15-.35-.2Zm-.3,3.23v-1c0-1,1.21,0,1.07.6v1C767,585.72,765.84,584.69,766,584.11Zm.72.43v-1c0-.25-.36-.6-.36-.2v1.05C766.28,584.58,766.68,584.94,766.69,584.54Z"/></g></g></svg>