<svg xmlns="http://www.w3.org/2000/svg" xmlns:xlink="http://www.w3.org/1999/xlink" viewBox="0 0 1080 1080"><defs><style>.cls-1{isolation:isolate;}.cls-2{fill:#cecece;opacity:0.3;}.cls-3,.cls-8{fill:#143c83;}.cls-4{fill:url(#linear-gradient);}.cls-5,.cls-6{fill:#fff;}.cls-6{opacity:0.5;}.cls-15,.cls-18,.cls-37,.cls-6,.cls-8{mix-blend-mode:multiply;}.cls-7{fill:#2d4c7f;}.cls-15,.cls-8{opacity:0.4;}.cls-9{fill:#cfe3ff;}.cls-10{fill:#5d81ec;}.cls-11{fill:#fa6e61;}.cls-12{fill:#3162c4;}.cls-13{fill:#132444;}.cls-14,.cls-15{fill:#4198c4;}.cls-16{fill:url(#linear-gradient-2);}.cls-17{fill:url(#linear-gradient-3);}.cls-18{fill:url(#linear-gradient-4);}.cls-19,.cls-23,.cls-27,.cls-36{fill:none;stroke-miterlimit:10;}.cls-19{stroke:#26395e;}.cls-19,.cls-27{stroke-width:0.5px;}.cls-20{fill:#d75246;}.cls-21{fill:#141d30;}.cls-22{opacity:0.66;}.cls-23{stroke:#143c83;stroke-dasharray:3 2;}.cls-23,.cls-36{stroke-width:2px;}.cls-24{fill:#e1edff;}.cls-25{fill:#089bcb;}.cls-26{fill:#072560;}.cls-27{stroke:#132444;}.cls-28{fill:#ff7055;}.cls-29{fill:#faeee1;}.cls-30{fill:#3598a8;}.cls-31{fill:#3a3845;}.cls-32{fill:#14b5db;}.cls-33{fill:#417fc9;}.cls-34{fill:#054756;}.cls-35{fill:url(#linear-gradient-5);}.cls-36{stroke:#5d81ec;}.cls-37{fill:#b8d0ff;}.cls-38{fill:#dbdaf2;}.cls-39{fill:#277ea0;}.cls-40{fill:#5653a3;}</style><linearGradient id="linear-gradient" x1="337.05" y1="472.58" x2="710.58" y2="472.58" gradientUnits="userSpaceOnUse"><stop offset="0" stop-color="#089bcb"/><stop offset="1" stop-color="#143c83"/></linearGradient><linearGradient id="linear-gradient-2" x1="356.32" y1="570.24" x2="397.58" y2="570.24" xlink:href="#linear-gradient"/><linearGradient id="linear-gradient-3" x1="338.89" y1="584.99" x2="357.43" y2="584.99" xlink:href="#linear-gradient"/><linearGradient id="linear-gradient-4" x1="356.32" y1="570.88" x2="385.67" y2="570.88" xlink:href="#linear-gradient"/><linearGradient id="linear-gradient-5" x1="422.65" y1="394.29" x2="442.46" y2="394.29" xlink:href="#linear-gradient"/></defs><g class="cls-1"><g id="Layer_1" data-name="Layer 1"><path class="cls-2" d="M427.91,638.19c10.9,6,10.53,16.46-.83,23.28s-29.41,7.46-40.32,1.43-10.54-16.46.83-23.28S417,632.16,427.91,638.19Z"/><path class="cls-2" d="M734,624.24c10.91,6,10.54,16.45-.83,23.28S703.76,655,692.85,649s-10.53-16.46.83-23.28S723.09,618.21,734,624.24Z"/><rect class="cls-3" x="500.78" y="575.64" width="46.07" height="33.79"/><rect class="cls-3" x="403.52" y="608.38" width="240.6" height="10.75"/><rect class="cls-3" x="403.52" y="616.06" width="240.6" height="3.07"/><rect class="cls-4" x="337.05" y="368.05" width="373.53" height="209.05"/><rect class="cls-5" x="348.8" y="375.4" width="350.03" height="180.54"/><path class="cls-6" d="M673.46,554.88c-13.87-3.35-27.1-8.75-40-14.73s-26-12-38.74-18.44C526.27,487.3,465.43,436,418.34,375.4H348.8V555.94H678.19C676.61,555.6,675,555.25,673.46,554.88Z"/><rect class="cls-7" x="348.57" y="555.94" width="350.49" height="3.3"/><rect class="cls-3" x="304.03" y="604.55" width="60.19" height="47.93"/><path class="cls-8" d="M317.64,634.57c3.57-8,14.91-9.72,22.45-11.28,9.36-1.95,18.27-3.9,24.13-11.3v-7.44H304v47.93H321.8C318.46,647.31,315,640.56,317.64,634.57Z"/><path class="cls-9" d="M324.23,633.55l-1.58-3.7a1.74,1.74,0,0,0-2.29-.86l-1.19.51a1.93,1.93,0,0,1-2.19-.43,17.28,17.28,0,0,0-1.32-1.25,1.8,1.8,0,0,1-.5-2.11l.5-1.18a1.64,1.64,0,0,0-.94-2.19l-3.85-1.45a1.8,1.8,0,0,0-2.28,1l-.5,1.17a2,2,0,0,1-1.91,1.21,16.68,16.68,0,0,0-1.87,0,1.88,1.88,0,0,1-1.9-1.1l-.49-1.15a1.72,1.72,0,0,0-2.28-.86l-3.86,1.64a1.72,1.72,0,0,0-.95,2.24l.49,1.15a1.88,1.88,0,0,1-.51,2.14,15,15,0,0,0-1.32,1.32,2,2,0,0,1-2.19.54l-1.2-.46a1.83,1.83,0,0,0-2.29,1l-1.6,3.78a1.64,1.64,0,0,0,.94,2.19l1.19.45a1.82,1.82,0,0,1,1.2,1.82,13.81,13.81,0,0,0,0,1.82,1.93,1.93,0,0,1-1.2,1.87l-1.2.51a1.72,1.72,0,0,0-.95,2.24l1.58,3.7a1.73,1.73,0,0,0,2.29.86l1.2-.51a1.92,1.92,0,0,1,2.18.43,14,14,0,0,0,1.32,1.24,1.8,1.8,0,0,1,.49,2.12l-.5,1.17a1.65,1.65,0,0,0,.95,2.2l3.84,1.44a1.81,1.81,0,0,0,2.29-1l.5-1.18a2,2,0,0,1,1.91-1.2c.62,0,1.24,0,1.87,0a1.87,1.87,0,0,1,1.9,1.1l.48,1.15a1.74,1.74,0,0,0,2.29.86l3.86-1.64a1.73,1.73,0,0,0,.95-2.25l-.49-1.14a1.86,1.86,0,0,1,.5-2.14,16.57,16.57,0,0,0,1.33-1.32,2,2,0,0,1,2.19-.54l1.2.45a1.8,1.8,0,0,0,2.28-1l1.61-3.77a1.63,1.63,0,0,0-.94-2.19l-1.2-.45a1.81,1.81,0,0,1-1.18-1.83,15.61,15.61,0,0,0,0-1.81,1.93,1.93,0,0,1,1.2-1.87l1.2-.51A1.72,1.72,0,0,0,324.23,633.55Zm-14.71,14a9.17,9.17,0,1,1,4.73-11.13A9.38,9.38,0,0,1,309.52,647.56Z"/><path class="cls-10" d="M339,643.23,338,640.77a1.14,1.14,0,0,0-1.51-.57l-.8.34a1.29,1.29,0,0,1-1.46-.29,11.37,11.37,0,0,0-.87-.83A1.22,1.22,0,0,1,333,638l.34-.78a1.09,1.09,0,0,0-.63-1.46l-2.56-1a1.21,1.21,0,0,0-1.52.65l-.33.78a1.35,1.35,0,0,1-1.27.81,8.73,8.73,0,0,0-1.25,0,1.26,1.26,0,0,1-1.26-.74l-.32-.77a1.17,1.17,0,0,0-1.52-.57l-2.56,1.1a1.14,1.14,0,0,0-.64,1.49l.33.76a1.24,1.24,0,0,1-.34,1.42,12.18,12.18,0,0,0-.88.88,1.34,1.34,0,0,1-1.46.36l-.79-.3a1.21,1.21,0,0,0-1.53.65l-1.06,2.51a1.09,1.09,0,0,0,.62,1.46l.79.3a1.19,1.19,0,0,1,.8,1.21,8.14,8.14,0,0,0,0,1.21,1.3,1.3,0,0,1-.8,1.24l-.8.34a1.15,1.15,0,0,0-.63,1.49l1,2.46a1.14,1.14,0,0,0,1.52.57l.8-.34a1.3,1.3,0,0,1,1.45.29,9.83,9.83,0,0,0,.88.83,1.21,1.21,0,0,1,.33,1.41l-.34.77a1.1,1.1,0,0,0,.63,1.46l2.56,1a1.21,1.21,0,0,0,1.52-.65l.33-.78a1.33,1.33,0,0,1,1.27-.8c.41,0,.83,0,1.25,0a1.24,1.24,0,0,1,1.26.74l.33.76a1.15,1.15,0,0,0,1.52.57l2.56-1.09a1.14,1.14,0,0,0,.63-1.49L333,656a1.23,1.23,0,0,1,.33-1.42,10.44,10.44,0,0,0,.88-.88,1.36,1.36,0,0,1,1.46-.35l.8.29A1.19,1.19,0,0,0,338,653l1.07-2.51a1.1,1.1,0,0,0-.63-1.46l-.8-.3a1.19,1.19,0,0,1-.78-1.21c0-.39,0-.8,0-1.2a1.3,1.3,0,0,1,.8-1.25l.8-.34A1.15,1.15,0,0,0,339,643.23Z"/><path class="cls-11" d="M338.75,538.52A268.29,268.29,0,0,0,361.58,556a126,126,0,0,0,8.9-19.26l5.17,2.64a69,69,0,0,1-6.1,20.18c-.89,1.84-1.93,3.72-3.62,4.77-3.36,2.08-7.59.09-11-1.88L344,556.1a5.12,5.12,0,0,1-1.53-1.16,5.55,5.55,0,0,1-.89-2.7,92.41,92.41,0,0,0-2.8-13.72"/><path class="cls-12" d="M352.38,548.17a2,2,0,0,1,.55,2.94l-4,7.73a1,1,0,0,1-.42.49,1,1,0,0,1-.74-.07c-4.25-1.6-8.78-3.41-11.28-7.2a18,18,0,0,1-2.45-8.14,7.89,7.89,0,0,1,.61-4.91c.87-1.44,2.11-2.13,3.49-1.18C338.12,537.83,348.15,543.86,352.38,548.17Z"/><path class="cls-11" d="M369.62,539c.49-1.78,1.1-4.43.75-5.89a7,7,0,0,1,0-3.63c.11-.23.4-.45.65-.29a.57.57,0,0,1,.18.51c0,.7.65,3.47.61,2.83a20.36,20.36,0,0,0,1.87-4.56,2.18,2.18,0,0,1,.39-.88c.22-.24.73-.55,1-.27s-.7,3.18-1,4.78l1.61-3.77c.13-.3.52-.68.81-.42s-.76,3.34-1.14,5c.56-1.16,1.12-2.33,1.67-3.5.23-.47.9-1.23,1.08-.71.33,1-.89,3.29-1.5,5l1.28-2.11c.14-.23.49-.48.71-.27a.43.43,0,0,1,.07.42,64.52,64.52,0,0,1-3,8.59c-1.69-1-4.5.5-5.95-.87"/><path class="cls-13" d="M402.84,652.61c2.31,2.42,6,2.66,8.74,4.6a1.5,1.5,0,0,1,.49.51,1.07,1.07,0,0,1-.49,1.31,3,3,0,0,1-1.47.31l-8.55.27a2.37,2.37,0,0,1-.92-.09,2.58,2.58,0,0,1-1.21-1.59q-1.17-2.88-2.32-5.76a21.39,21.39,0,0,1,5.73.44"/><path class="cls-13" d="M410.14,639.47c1.7,2.88,5.27,3.95,7.47,6.45a1.44,1.44,0,0,1,.37.6,1.09,1.09,0,0,1-.78,1.17,3.05,3.05,0,0,1-1.5,0L407.31,646a2.4,2.4,0,0,1-.88-.29,2.59,2.59,0,0,1-.82-1.82l-1-6.14a21.21,21.21,0,0,1,5.49,1.73"/><path class="cls-14" d="M315.52,582.1s-4,11.51,0,17.9,12.84,6.82,23.05,6.82S377,604.27,377,604.27s10.86,13.63,23.56,40.64l14.34-4.86c-12.57-31.93-12.42-31.79-14.34-36.28-4-9.33-5.18-18.28-28.66-19.1C361.1,584.28,315.52,582.1,315.52,582.1Z"/><path class="cls-14" d="M306.62,582.33s-2.36,10.32-1.48,17.67c1.3,10.75,19.84,11.45,23.62,11.51,10.22.14,44-3.83,44-3.83s11.2,26.26,14.39,34c3.62,8.72,2.67,7.23,7.2,15.53l15.79-4.07S394,607.23,390.34,599.24c-4.23-9.22-5.32-13.75-28.8-14.57C350.72,584.28,306.62,582.33,306.62,582.33Z"/><path class="cls-15" d="M323.14,599.4c2.47-5.11,10.18-5.65,15.09-6,7.07-.55,14.27-1.19,21.36-1.2,7.42,0,15.79.89,21.34,6.39,5.73,5.7,8.17,13.51,10.81,21s5.34,14.52,7.87,21.83c.75,2.16,3.18,8,4.31,13.36l6.26-1.61S394,607.23,390.34,599.24c-4.23-9.22-5.32-13.75-28.8-14.57-10.82-.39-54.92-2.34-54.92-2.34s-2.36,10.32-1.48,17.67c1.3,10.75,19.84,11.45,23.62,11.51h0C324.66,608.71,320.81,604.23,323.14,599.4Z"/><polygon class="cls-16" points="367.5 553.41 356.32 585.92 385.44 587.06 397.58 554.42 367.5 553.41"/><polygon class="cls-17" points="338.93 585.25 338.89 584.08 357.43 584.48 356.94 585.9 338.93 585.25"/><path class="cls-18" d="M382.61,585.68c-12.6-4.32-17.46-18.62-15.55-31l-10.74,31.22,29.12,1.14.23-.6A19.62,19.62,0,0,1,382.61,585.68Z"/><path class="cls-12" d="M340,538.81a27.44,27.44,0,0,0-6.79-3.12,49.5,49.5,0,0,0-12.63-1.07c-2.37.17-4.71,1.07-9.14,2.66s-5.29,2.68-7,8.22c-1.17,3.86,2.16,36.83,2.16,36.83l34.77,2.06-.5-27.82Z"/><path class="cls-12" d="M332.34,574.11c-6.29-.62-12.43-13.29-12.43-18.69,0-11.76-6.88-16.06-5-19.39-1,.35-2.16.77-3.49,1.25-4.51,1.63-5.29,2.68-7,8.22-1.17,3.86,2.16,36.83,2.16,36.83l34.77,2.06-.21-11.59A18.78,18.78,0,0,1,332.34,574.11Z"/><path class="cls-19" d="M328.21,564c1.17-1.76,2.72-3.4,3.83-5.29a28.26,28.26,0,0,0,2.6-6.06"/><path class="cls-19" d="M330.78,569.25c1-1.41,2-2.93,2.93-4.42s1.56-3.35,2.57-4.78"/><path class="cls-11" d="M310.8,544c4.87,2.93,4.12,8.1,5.24,13.27,1.07,4.9.69,12.34,2.09,17.12,2.08,7.14,24.16,4.53,31.27,4a10.07,10.07,0,0,0-1.17,5.92c-9.51,1.65-19.23,3.31-28.8,2.1a19.77,19.77,0,0,1-7.56-2.24c-4.84-2.88-6.47-8.5-7.37-13.65a113.73,113.73,0,0,1-1.68-16.66c-.08-2.6,0-5.39,1.65-7.54s5.28-3,6.33-2.32"/><path class="cls-12" d="M313.16,542.62c1.24,2.68,5,16.77,5.1,24.13-5.55-.22-9.91.93-15.44,1.47a59.72,59.72,0,0,1-1.16-13.68c0-4.4.43-9.93,2.07-12.36s4.71-3.47,6.14-2.76A6.24,6.24,0,0,1,313.16,542.62Z"/><path class="cls-11" d="M348.07,578.46a9.68,9.68,0,0,0,4.83-1.27,9.54,9.54,0,0,1,4.17-1.41c.3,0,.69.23.61.53s-.3.3-.5.37c-.81.27-3.71,2-3,1.68a29.31,29.31,0,0,0,6.07.08,3.12,3.12,0,0,1,1.18,0c.37.12.94.5.74.85s-4,.53-6,.8l5,.12c.41,0,1,.25.84.64s-4.17.53-6.25.8l4.77.29c.63,0,1.81.4,1.28.78-1,.69-4.17.39-6.45.46l3,.45c.33.05.77.29.62.59s-.27.2-.44.22c-3.81.49-7.17,0-11.46,0,.35-2,0-4.1.9-6"/><path class="cls-11" d="M325.77,530.2a15.71,15.71,0,0,0,1.7,6.74c-1.51,1.19-3.65,1.19-5.59,1a10,10,0,0,1-2.82-.58.52.52,0,0,1-.26-.17.55.55,0,0,1-.08-.31q-.36-6.27-.53-12.55c1.92.57,4,.19,6,.67a1.36,1.36,0,0,1,.52.23,1.32,1.32,0,0,1,.33.6,16.33,16.33,0,0,1,.76,4.37"/><path class="cls-20" d="M320.54,531c-1.46-2-1.44-4.45-2.35-6.62,1.92.57,4,.18,6,.66a1.36,1.36,0,0,1,.52.23,1.32,1.32,0,0,1,.33.6,16.33,16.33,0,0,1,.76,4.37,15.43,15.43,0,0,0,.58,3.82,7.91,7.91,0,0,1-5.81-3.06"/><path class="cls-11" d="M327.9,519.5c.48,1.4.56,2.9,1,4.32.58,1.94,1.79,3.94,1.09,5.84a4.19,4.19,0,0,1-4,2.45,7.51,7.51,0,0,1-4.56-1.92,11.38,11.38,0,0,1-4.06-8.28,3,3,0,0,1,1.16-2.86,9.9,9.9,0,0,1,4.16-1.87c2.32-.54,4.76.91,5.24,2.32"/><path class="cls-21" d="M324.54,515.4a4.53,4.53,0,0,1,3.59,3.91.48.48,0,0,1-.07.39c-.15.2-.48.13-.7,0s-.45-.31-.7-.27c-.42.06-.5.59-.69,1a2.24,2.24,0,0,1-2,.91,4.19,4.19,0,0,1-2.24-.43c-.45-.26-.81-.65-1.28-.88a1.15,1.15,0,0,0-1.42.19c-.37.53.09,1.3-.21,1.86a1.18,1.18,0,0,1-1.14.51,2.35,2.35,0,0,1-1.89-1.34,3.25,3.25,0,0,1-.12-2.32,4.41,4.41,0,0,1,1.36-2.09c1.53-1.31,3.74-1.48,5.79-1.58.8,0,1.7-.06,1.72.19"/><path class="cls-21" d="M322.53,515.27l5.85-.86a4.65,4.65,0,0,1,1.62,0,3.21,3.21,0,0,1,1.83,1.21,4.39,4.39,0,0,1,.49,4.62,2.73,2.73,0,0,1-2.77,1.63c-1.22-.24-1.86-1.5-2.91-2.13a.9.9,0,0,0-.75-.15,1.59,1.59,0,0,0-.36.28,1.58,1.58,0,0,1-1.41.21,2.59,2.59,0,0,1-1.18-.85,3.54,3.54,0,0,1-.41-3.91"/><path class="cls-21" d="M319.69,519.22a7.53,7.53,0,0,0-.19,3.68,2.07,2.07,0,0,1,.06.5,1.48,1.48,0,0,1-.17.54c-.34.81-.68,1.61-1,2.42-1.43-.91-2.49-2.77-2.81-6-.06-.56.05-.63.37-1.1a2.78,2.78,0,0,1,2.53-.82,1.89,1.89,0,0,1,.88.2c.26.16.43.5.36.54"/><path class="cls-11" d="M319.5,523.61a2.12,2.12,0,0,0-2.05-1c-1.42.18-.37,2.9,1.94,3.51a.9.9,0,0,0,.93-.17.88.88,0,0,0,0-.76,3,3,0,0,0-.86-1.56"/><g class="cls-22"><ellipse class="cls-23" cx="516.39" cy="465.83" rx="145.69" ry="82.67"/></g><path class="cls-24" d="M459.27,389.48a35.13,35.13,0,1,1-35.13-35.13A35.13,35.13,0,0,1,459.27,389.48Z"/><circle class="cls-25" cx="424.14" cy="389.48" r="31.51" transform="translate(-29 744.8) rotate(-80.66)"/><path class="cls-3" d="M433.34,406.5c-9.39-3.72-16.11-11.64-19.86-20.87a31,31,0,0,1,.73-26.06,31.51,31.51,0,1,0,34.07,50.16A49.23,49.23,0,0,1,433.34,406.5Z"/><path class="cls-24" d="M554.73,368.48a35.13,35.13,0,1,1-35.13-35.13A35.13,35.13,0,0,1,554.73,368.48Z"/><path class="cls-25" d="M551.12,368.48A31.52,31.52,0,1,1,519.6,337,31.52,31.52,0,0,1,551.12,368.48Z"/><path class="cls-3" d="M528.8,385.5c-9.38-3.72-16.1-11.64-19.86-20.87a31.11,31.11,0,0,1,.73-26.06,31.51,31.51,0,1,0,34.07,50.16A49.23,49.23,0,0,1,528.8,385.5Z"/><path class="cls-24" d="M499.73,549.42a35.13,35.13,0,1,1-35.13-35.13A35.13,35.13,0,0,1,499.73,549.42Z"/><path class="cls-25" d="M496.11,549.42a31.52,31.52,0,1,1-31.51-31.51A31.51,31.51,0,0,1,496.11,549.42Z"/><path class="cls-3" d="M473.8,566.44c-9.39-3.71-16.11-11.63-19.86-20.87a31,31,0,0,1,.73-26.06,31.51,31.51,0,1,0,34.07,50.16A49.23,49.23,0,0,1,473.8,566.44Z"/><path class="cls-24" d="M609.74,549.42a35.13,35.13,0,1,1-35.13-35.13A35.13,35.13,0,0,1,609.74,549.42Z"/><path class="cls-25" d="M606.12,549.42a31.52,31.52,0,1,1-31.51-31.51A31.51,31.51,0,0,1,606.12,549.42Z"/><path class="cls-3" d="M583.81,566.44c-9.39-3.71-16.11-11.63-19.86-20.87a31,31,0,0,1,.73-26.06,31.51,31.51,0,1,0,34.07,50.16A49.23,49.23,0,0,1,583.81,566.44Z"/><path class="cls-11" d="M727,631.42c-2.41,2.86-6.9,2.74-9.78,5.08a1.62,1.62,0,0,0-.51.6,1.19,1.19,0,0,0,.64,1.43,3.3,3.3,0,0,0,1.65.24l9.57-.29a2.73,2.73,0,0,0,1-.17,2.86,2.86,0,0,0,1.23-1.85c.73-2.19.77-4.1,1.5-6.29-2.12,0-3.2.63-5.32,1.25"/><path class="cls-13" d="M716.69,637.1a1.55,1.55,0,0,1,.51-.6,13,13,0,0,1,4-2,3.23,3.23,0,0,0,2.64,1.46c.74.06,1.48.06,2.23.08a9.21,9.21,0,0,0,2.22-.18,7.56,7.56,0,0,0,3.07-1.48,16.83,16.83,0,0,1-.54,2.05,2.86,2.86,0,0,1-1.23,1.85,2.73,2.73,0,0,1-1,.17l-9.57.29a3.3,3.3,0,0,1-1.65-.24,1.19,1.19,0,0,1-.64-1.43"/><path class="cls-11" d="M733.62,510.88a125.72,125.72,0,0,1,3.44,56.37,41.72,41.72,0,0,0-.95,8.75,53.78,53.78,0,0,0,1.47,8.23c3.29,16.1-1,32.71-6,48.34-2.32-.4-2.28-.48-4.59-.87,2.2-19-4.31-38.43-5.46-57.53-.39-6.5-.43-13-.47-19.51q-.13-20.7-.28-41.4c4.3-.37,8.6-.74,12.88-2.38"/><path class="cls-20" d="M735.2,586.18a25.08,25.08,0,0,0-5.66-3.2,10.71,10.71,0,0,0-2.82-.76,14.33,14.33,0,0,0-2.62,0,12.32,12.32,0,0,0-1.8.31c-.36-2.79-.64-5.58-.81-8.36-.39-6.5-.43-13-.47-19.51q-.13-20.7-.28-41.4c4.3-.37,8.6-.74,12.88-2.38a125.72,125.72,0,0,1,3.44,56.37,41.72,41.72,0,0,0-.95,8.75,53.78,53.78,0,0,0,1.47,8.23,53.06,53.06,0,0,1,.8,5.26,14.7,14.7,0,0,0-3.18-3.31"/><path class="cls-11" d="M700.11,630.86c-1.93,3.11-6.24,3.59-8.69,6.27a1.5,1.5,0,0,0-.41.65,1.18,1.18,0,0,0,.8,1.32,3.14,3.14,0,0,0,1.61,0l9.09-1.54a2.69,2.69,0,0,0,1-.3,2.87,2.87,0,0,0,.94-2c.41-2.25.21-4.13.62-6.38-2,.32-3,1-4.92,1.94"/><path class="cls-13" d="M691,637.78a1.5,1.5,0,0,1,.41-.65,12.26,12.26,0,0,1,3.55-2.46,3,3,0,0,0,2.71,1.08c.71,0,1.42-.14,2.13-.22a8.31,8.31,0,0,0,2.1-.47,7.31,7.31,0,0,0,2.75-1.85,20.1,20.1,0,0,1-.25,2.09,2.87,2.87,0,0,1-.94,2,2.69,2.69,0,0,1-1,.3l-9.09,1.54a3.14,3.14,0,0,1-1.61,0,1.18,1.18,0,0,1-.8-1.32"/><path class="cls-11" d="M716.49,522.22a96.27,96.27,0,0,1-5,50.85,21,21,0,0,0-2,13.14c.76,10.08-.48,19.61-1.77,29.65-.72,5.61-2.18,9.12-3,15.45-1.54-.24-5.14-.11-4.91.05-.76-6-5.6-43.59-2.66-67.44a361.81,361.81,0,0,1,7.53-40.77,1.84,1.84,0,0,1,2.46-1.7c3.51.31,7,.62,9.4.77"/><path class="cls-20" d="M709.32,579.94a30.59,30.59,0,0,0,.12,6.27c0,.42,0,.85.08,1.27-.37-.28-.74-.55-1.13-.79a15.16,15.16,0,0,0-1.53-.84,17,17,0,0,0-4.48-1.67,18.26,18.26,0,0,0-6.21-.24,157.94,157.94,0,0,1,.93-20,361.81,361.81,0,0,1,7.53-40.77,1.84,1.84,0,0,1,2.46-1.7c3.51.31,7,.62,9.4.77a96.27,96.27,0,0,1-5,50.85,30.59,30.59,0,0,0-2.15,6.87"/><path class="cls-26" d="M748.13,570.85c-2.74-22.37-5.76-45.61-17.57-64.54a47,47,0,0,1-22.87,1.25c-1.3-.25-2.82-.5-3.78.44a4.25,4.25,0,0,0-.93,1.89,214.65,214.65,0,0,0-6,26c-1,5.87-1.72,11.78-2.45,17.69q-1.12,9.12-2.26,18.23a2,2,0,0,0,0,.85c.19.58.85.82,1.43,1,13,3.47,26.82,5.91,39.82,3.8,0-2.16-.22-4.31-.24-6.47a1.63,1.63,0,0,1,.55-1.26,1.86,1.86,0,0,1,3.36,1v.35a41.3,41.3,0,0,1,1.79,5.19,48,48,0,0,0,7.84-2.87,2.5,2.5,0,0,0,1.1-.82A2.72,2.72,0,0,0,748.13,570.85Z"/><path class="cls-26" d="M748.13,570.85c-2.74-22.37-5.76-45.61-17.57-64.54a47,47,0,0,1-22.87,1.25c-1.3-.25-2.82-.5-3.78.44a4.25,4.25,0,0,0-.93,1.89,216.32,216.32,0,0,0-6,25.83,39.42,39.42,0,0,0,13.22,6.5,29.19,29.19,0,0,0,10.89.84,23.47,23.47,0,0,0,5.33-1.31l1.16-.47a8,8,0,0,1,1.48-.36,2.85,2.85,0,0,1,2.57.35c1.41,1.06,1.72,2.71,1.83,4.36a40.54,40.54,0,0,1,0,5.4,47.57,47.57,0,0,1-2,10.89A48.59,48.59,0,0,1,723,578.21a64,64,0,0,0,10.56-.77c0-2.16-.22-4.32-.24-6.48a1.63,1.63,0,0,1,.55-1.26,1.86,1.86,0,0,1,3.36,1v.35a39.72,39.72,0,0,1,1.78,5.19,48.68,48.68,0,0,0,7.85-2.87,2.5,2.5,0,0,0,1.1-.82A2.72,2.72,0,0,0,748.13,570.85Z"/><path class="cls-27" d="M717.78,563a35.24,35.24,0,0,1-19.12-12.63"/><path class="cls-27" d="M711.3,569.22c-4.44-3.45-9.1-7.2-11-12.5"/><path class="cls-14" d="M717.11,470.31c3.94.08,8.35.35,11,3.19s2.66,7.26,2.46,11.17c-.51,9.92-.67,20.52,4.67,28.95a48.72,48.72,0,0,1-33.48,1.76c1-6.81,1.85-13.83.28-20.55-1.41-6-4.67-12.56-1.69-18,1.6-2.94,4.77-4.8,8.06-5.63a45.14,45.14,0,0,1,8.66-.86"/><path class="cls-14" d="M703.2,506.31a15,15,0,0,0,2,.09,18,18,0,0,0,1.95-.29,29.88,29.88,0,0,0,3.51-.71,16.19,16.19,0,0,0,9.57-8.56c2.18-4.49,2.6-9.39,2.54-14.3a24.09,24.09,0,0,0-2.92-12.12c3.12.23,6.21.89,8.29,3.08,2.72,2.87,2.66,7.26,2.46,11.17-.51,9.92-.67,20.52,4.67,28.95a48.72,48.72,0,0,1-33.48,1.76c.45-3,.87-6.05,1.05-9.1.12,0,.23,0,.35,0"/><path class="cls-19" d="M716.47,490.64A18.51,18.51,0,0,1,705,478.33"/><path class="cls-19" d="M710.18,492a17.2,17.2,0,0,1-5.82-7.16"/><path class="cls-13" d="M715.16,457.14c1,2.41,4.16,3,6,4.87,1.65,1.67,2.28,4.4,4.43,5.34,1.79.78,4,0,5.72,1,1.93,1.1,2.19,3.9,4,5.26a4.78,4.78,0,0,0,2.9.88,7.43,7.43,0,0,0,7-8.6c-.33-1.51-1.14-2.88-1.59-4.37s-.44-3.28.66-4.37a13.56,13.56,0,0,1,1.56-1.14c2.4-1.82,2.41-5.82.36-8a7.88,7.88,0,0,0-8.39-1.61c-1.62.61-3.57,1.62-4.89.5a9,9,0,0,1-1.14-1.59,4.22,4.22,0,0,0-4.19-1.43,6.55,6.55,0,0,0-3.78,2.56c-.64.84-.27,3.07-.9,3.91-1.51,2-4.09.12-5.34.64-.77.32-3.06,4.49-2.32,6.22"/><path class="cls-28" d="M710.33,465.6a16.13,16.13,0,0,1-.5,7c1.67.94,3.74.59,5.59.09a10.14,10.14,0,0,0,2.63-1,.61.61,0,0,0,.23-.22.4.4,0,0,0,0-.32c-1.46-3.77-1.75-7.45-1.51-12.14-1.76.88-4,.36-5.78,1.16a.94.94,0,0,0-.68,1,16.71,16.71,0,0,0,0,4.48"/><path class="cls-20" d="M715.53,465.52c1.08-2.19.64-4.68,1.15-7-1.77.88-3.87.83-5.67,1.63a.94.94,0,0,0-.68,1,16.71,16.71,0,0,0,0,4.48,16,16,0,0,1,.1,3.91,7.68,7.68,0,0,0,5.1-4"/><path class="cls-28" d="M706.45,455.26c-.23,1.48-.46,2.79-.63,4.27-.22,2-.64,3.61.35,5.39a4.34,4.34,0,0,0,4.32,2.31,6.2,6.2,0,0,0,4.08-2.35,11.66,11.66,0,0,0,2.52-8.93,3,3,0,0,0-1.61-2.66,9.66,9.66,0,0,0-4.35-1.19c-2.34-.17-4.45,1.68-4.68,3.16"/><path class="cls-21" d="M705.54,450.42c-1.89,1.42-2.64,2.86-1.54,4.28.72.94,1.56.18,1.86.18s.58.51.83.84a2.18,2.18,0,0,0,2.09.59,4,4,0,0,0,2.1-.79c.39-.33.67-.78,1.09-1.09a1.12,1.12,0,0,1,1.41,0c.44.47.13,1.31.52,1.83a1.15,1.15,0,0,0,1.19.32,2.29,2.29,0,0,0,1.6-1.64,3.41,3.41,0,0,0-.28-2.34,4.41,4.41,0,0,0-1.67-1.86c-1.7-1.07-3.24.13-5-.85-1.46-.83-4,.42-4.2.57"/><path class="cls-21" d="M714.35,453.66a7.89,7.89,0,0,1,.82,3.64,2.07,2.07,0,0,0,0,.5,1.69,1.69,0,0,0,.26.52l1.41,2.25c1.23-1.15,2.9-2.7,2-5.58a5.79,5.79,0,0,0-.85-1.87,2.06,2.06,0,0,0-3.42-.06c-.22.2-.33.57-.26.6"/><path class="cls-28" d="M716.07,459.35a2.08,2.08,0,0,1,2.22-.44c1.29.55-.46,2.92-2.81,2.89-.33,0-.71-.1-.82-.41a.86.86,0,0,1,.17-.75,3.07,3.07,0,0,1,1.24-1.29"/><path class="cls-28" d="M719.94,493.11c-6.06,3.47-15.41,9.7-20.24,10.46a18.51,18.51,0,0,1-7.44-.45c-6.76-1.73-9.82-5.58-16.06-8.72,1.25-1.48.48-.57,1.19-2.38,6,1.93,20.92,9,30.27-.49,7.37-7.49,8.62-7,14.24-9.49,1.23-.54,4.09-1.08,5.29-.5s3.49,5.41-7.25,11.57"/><path class="cls-28" d="M676.81,494.51a22.7,22.7,0,0,1-5.31-1c-.54-.19-1.28-.33-1.45-.89.28-.32.38-.08,1.12.12a2.4,2.4,0,0,0,1.36.18,8.31,8.31,0,0,1-4-2.54.8.8,0,0,1,.82-.06,4.27,4.27,0,0,1,.71.49,4.39,4.39,0,0,0,2,.83c-1.28-.62-2.66-1.33-3.25-2.62a.56.56,0,0,1,.63-.13,2.15,2.15,0,0,1,.55.4,5.65,5.65,0,0,0,2.24,1.19,8,8,0,0,1-2.78-2.55c.28-.31.77,0,1.09.25a6.41,6.41,0,0,0,2.69,1.42c.13,0,.84.27.92.17s-.36-1.34-.42-1.82.15-.94.57-1c.84,2.1,1.84,4.37,3.86,5.37a18.47,18.47,0,0,0-1.34,2.15"/><path class="cls-14" d="M728.35,474.13a8.4,8.4,0,0,1,1.47,5.6,13.19,13.19,0,0,1-.92,3.43,31.22,31.22,0,0,1-9.63,13,46.4,46.4,0,0,1-7.6-7.29,1,1,0,0,1-.31-.7,1,1,0,0,1,.3-.52,101.23,101.23,0,0,1,13-12.13,7.3,7.3,0,0,1,3-1.65c.47-.08,1.15.4.69.23"/><path class="cls-5" d="M489.54,548.91A24.94,24.94,0,1,1,464.6,524,24.94,24.94,0,0,1,489.54,548.91Z"/><rect class="cls-3" x="452.08" y="534.23" width="12.12" height="21.36" transform="translate(-252.81 581.85) rotate(-52.92)"/><path class="cls-29" d="M461.74,553.54l-12.89-9.74a.25.25,0,0,1-.05-.35.75.75,0,0,0-.14-1.06.26.26,0,0,1-.05-.36l4.16-5.51a.27.27,0,0,1,.36,0,.75.75,0,0,0,1.06-.15.24.24,0,0,1,.35,0L467.43,546a.25.25,0,0,1,.05.35.75.75,0,0,0,.15,1.06.25.25,0,0,1,.05.35l-4.17,5.52a.25.25,0,0,1-.35.05.75.75,0,0,0-1.06.14A.26.26,0,0,1,461.74,553.54Zm-12.4-10L461.87,553a1.27,1.27,0,0,1,1.38-.19l3.89-5.15a1.25,1.25,0,0,1-.19-1.38l-12.53-9.47a1.27,1.27,0,0,1-1.38.2l-3.89,5.15A1.27,1.27,0,0,1,449.34,543.54Z"/><path class="cls-29" d="M459.84,546.19a2.12,2.12,0,1,1-.42-3A2.13,2.13,0,0,1,459.84,546.19Z"/><rect class="cls-30" x="445.6" y="548.93" width="21.36" height="12.12"/><path class="cls-29" d="M464.36,559.7H448.21a.25.25,0,0,1-.25-.25.75.75,0,0,0-.76-.75.26.26,0,0,1-.25-.26v-6.91a.25.25,0,0,1,.25-.25.76.76,0,0,0,.76-.75.26.26,0,0,1,.25-.26h16.15a.26.26,0,0,1,.26.26.76.76,0,0,0,.75.75.26.26,0,0,1,.26.25v6.91a.26.26,0,0,1-.26.26.75.75,0,0,0-.75.75A.26.26,0,0,1,464.36,559.7Zm-15.92-.5h15.7a1.26,1.26,0,0,1,1-1v-6.46a1.26,1.26,0,0,1-1-1h-15.7a1.29,1.29,0,0,1-1,1v6.46A1.29,1.29,0,0,1,448.44,559.2Z"/><path class="cls-29" d="M458.41,555a2.13,2.13,0,1,1-2.12-2.13A2.12,2.12,0,0,1,458.41,555Z"/><rect class="cls-3" x="458.83" y="534.77" width="23.3" height="27.15" rx="1.58"/><rect class="cls-25" x="458.14" y="534.77" width="23.3" height="27.15" rx="1.58"/><rect class="cls-31" x="460.51" y="537.61" width="18.52" height="4.51"/><rect class="cls-5" x="460.55" y="544.91" width="2.39" height="2.39"/><rect class="cls-5" x="464.57" y="544.91" width="2.39" height="2.39"/><rect class="cls-5" x="468.6" y="544.91" width="2.39" height="2.39"/><rect class="cls-5" x="472.62" y="544.91" width="2.39" height="2.39"/><rect class="cls-5" x="476.64" y="544.91" width="2.39" height="2.39"/><rect class="cls-5" x="460.55" y="548.75" width="2.39" height="2.39"/><rect class="cls-5" x="464.57" y="548.75" width="2.39" height="2.39"/><rect class="cls-5" x="468.6" y="548.75" width="2.39" height="2.39"/><rect class="cls-5" x="472.62" y="548.75" width="2.39" height="2.39"/><rect class="cls-5" x="476.64" y="548.75" width="2.39" height="2.39"/><rect class="cls-5" x="460.55" y="552.6" width="2.39" height="2.39"/><rect class="cls-5" x="464.57" y="552.6" width="2.39" height="2.39"/><rect class="cls-5" x="468.6" y="552.6" width="2.39" height="2.39"/><rect class="cls-5" x="472.62" y="552.6" width="2.39" height="2.39"/><rect class="cls-5" x="460.55" y="556.44" width="2.39" height="2.39"/><rect class="cls-5" x="464.57" y="556.44" width="2.39" height="2.39"/><rect class="cls-5" x="468.6" y="556.44" width="2.39" height="2.39"/><rect class="cls-5" x="472.62" y="556.44" width="2.39" height="2.39"/><rect class="cls-5" x="476.64" y="552.6" width="2.39" height="6.24"/><path class="cls-5" d="M545.32,369.07a24.94,24.94,0,1,1-24.94-24.94A24.94,24.94,0,0,1,545.32,369.07Z"/><rect class="cls-3" x="501.58" y="357.62" width="29.19" height="22.48" rx="1.51"/><path class="cls-25" d="M531.76,351.47l-2.29,1.07.73.51-6.51,9.47-6.26-3a.39.39,0,0,0-.48.12l-9.77,13.5-7.42-4.33a.39.39,0,0,0-.39.67l7.72,4.52a.45.45,0,0,0,.19,0,.42.42,0,0,0,.32-.16l9.79-13.53,6.27,3a.39.39,0,0,0,.48-.13l6.7-9.74.7.49Z"/><rect class="cls-32" x="535.14" y="356.14" width="3.68" height="23.62"/><rect class="cls-33" x="528.93" y="359.86" width="3.68" height="19.94"/><rect class="cls-32" x="522.73" y="367.56" width="3.68" height="12.27"/><rect class="cls-32" x="510.33" y="371.49" width="3.68" height="8.34"/><rect class="cls-33" x="516.53" y="364.22" width="3.68" height="15.62"/><path class="cls-3" d="M541.2,380.15H499.57a.4.4,0,0,1,0-.79H541.2a.4.4,0,0,1,0,.79Z"/><path class="cls-5" d="M599.54,549.42a24.94,24.94,0,1,1-24.93-24.94A24.94,24.94,0,0,1,599.54,549.42Z"/><path class="cls-25" d="M578.91,545.69a8.59,8.59,0,0,0-9-8.94c-5,0-8.73.65-11.19,5.21a14.88,14.88,0,0,0-1.63,7.24c-1.72,3.28-4.11,6.19.29,5.14a17.29,17.29,0,0,0,1.46,5.93c1.08,2,5.7.67,7.38,0,.83,1.45,1.68,3.3,3,5.48a11.54,11.54,0,0,0,8.87-3.8,36.58,36.58,0,0,1-3.63-6.51C578,552.46,578.91,549.49,578.91,545.69Z"/><path class="cls-3" d="M590.94,545.1a8.59,8.59,0,0,0-9-9c-5,0-8.72.66-11.18,5.22a14.74,14.74,0,0,0-1.64,7.24c-1.72,3.28-4.1,6.18.3,5.14a17.11,17.11,0,0,0,1.45,5.93c1.08,2,5.71.67,7.38,0,.84,1.45,1.68,3.3,3,5.48a11.59,11.59,0,0,0,8.88-3.8,37.34,37.34,0,0,1-3.64-6.51C590.06,551.87,590.94,548.9,590.94,545.1Z"/><path class="cls-5" d="M449.07,389.48a24.94,24.94,0,1,1-24.93-24.94A24.93,24.93,0,0,1,449.07,389.48Z"/><path class="cls-3" d="M436,388.81a2.57,2.57,0,0,1,1.8-2.45,15.71,15.71,0,0,0-.94-3.5,2.57,2.57,0,0,1-2.47-4.24,16.11,16.11,0,0,0-2.63-2.59,2.56,2.56,0,0,1-3,.37,2.59,2.59,0,0,1-1.26-2.78,16.2,16.2,0,0,0-3.27-.85,2.57,2.57,0,0,1-4.91,0,15.85,15.85,0,0,0-3.5.94,2.57,2.57,0,0,1-4.24,2.47A16.82,16.82,0,0,0,409,378.8a2.58,2.58,0,0,1-2.41,4.28,15.51,15.51,0,0,0-.86,3.28,2.57,2.57,0,0,1,0,4.9,16.27,16.27,0,0,0,.94,3.5A2.57,2.57,0,0,1,409.1,399a16.89,16.89,0,0,0,2.63,2.58,2.59,2.59,0,0,1,3-.36A2.56,2.56,0,0,1,416,404a15.67,15.67,0,0,0,3.28.86,2.57,2.57,0,0,1,4.91,0,16.33,16.33,0,0,0,3.49-.94,2.57,2.57,0,0,1,4.24-2.47,16.52,16.52,0,0,0,2.59-2.63,2.57,2.57,0,0,1,2.41-4.27,16.29,16.29,0,0,0,.85-3.28A2.58,2.58,0,0,1,436,388.81Zm-14.24,9.43a9.44,9.44,0,1,1,9.44-9.43A9.43,9.43,0,0,1,421.73,398.24Z"/><path class="cls-3" d="M426.56,388.81a4.83,4.83,0,1,1-4.83-4.83A4.82,4.82,0,0,1,426.56,388.81Z"/><path class="cls-34" d="M432.56,381.14A19.92,19.92,0,0,1,421.85,389c0,4.18,1.26,14.42,10.71,17.88,9.44-3.46,10.7-13.7,10.7-17.88A19.85,19.85,0,0,1,432.56,381.14Z"/><path class="cls-35" d="M432.56,406c-8.69-3.37-9.81-12.79-9.91-16.45a21.25,21.25,0,0,0,9.91-7,21.17,21.17,0,0,0,9.9,7C442.36,393.25,441.24,402.67,432.56,406Z"/><path class="cls-5" d="M432.51,401.82a1.69,1.69,0,0,1-1.18-.43,1.68,1.68,0,0,1,0-2.3,1.85,1.85,0,0,1,2.38,0,1.66,1.66,0,0,1,0,2.28A1.66,1.66,0,0,1,432.51,401.82Zm-.76-4.16-.58-4.24V389h2.68v4.42l-.56,4.24Z"/><path class="cls-25" d="M491.48,493.76v7.89H458.61V459.19h32.08v7.88H468.37v9.22h19.72v7.65H468.37v9.82Z"/><path class="cls-25" d="M526.36,501.65l-8.19-11.83h-9v11.83h-9.82V459.19h18.37c11.34,0,18.44,5.88,18.44,15.41a13.81,13.81,0,0,1-8.73,13.4l9.52,13.65Zm-9.22-34.45h-8V482h8c6,0,9-2.79,9-7.4S523.14,467.2,517.14,467.2Z"/><path class="cls-25" d="M580.7,474.6c0,9.46-7.1,15.34-18.44,15.34h-8.55v11.71h-9.83V459.19h18.38C573.6,459.19,580.7,465.07,580.7,474.6Zm-10,0c0-4.67-3-7.4-9-7.4h-8v14.73h8C567.72,481.93,570.75,479.21,570.75,474.6Z"/><line class="cls-36" x1="521.1" y1="414.75" x2="521.1" y2="462.84"/><path class="cls-36" d="M523.67,412.18a2.57,2.57,0,1,1-2.57-2.57A2.57,2.57,0,0,1,523.67,412.18Z"/><line class="cls-36" x1="406.25" y1="485.11" x2="462.06" y2="485.11"/><circle class="cls-36" cx="403.68" cy="485.11" r="2.57"/><line class="cls-36" x1="612.87" y1="485.11" x2="557.06" y2="485.11"/><path class="cls-36" d="M615.44,482.54a2.57,2.57,0,1,0,2.57,2.57A2.57,2.57,0,0,0,615.44,482.54Z"/><polyline class="cls-36" points="479.48 461.06 479.48 426.43 463.25 426.43"/><path class="cls-36" d="M463.71,426.43a2.58,2.58,0,1,1-2.57-2.57A2.57,2.57,0,0,1,463.71,426.43Z"/><polyline class="cls-36" points="558.31 459.87 558.31 405.05 608.38 405.05"/><path class="cls-36" d="M607.92,405.25a2.57,2.57,0,1,0,2.57-2.57A2.57,2.57,0,0,0,607.92,405.25Z"/><path class="cls-24" d="M411.32,475.06a35.13,35.13,0,1,1-35.13-35.13A35.13,35.13,0,0,1,411.32,475.06Z"/><path class="cls-3" d="M407.71,475.06a31.52,31.52,0,1,1-31.52-31.51A31.51,31.51,0,0,1,407.71,475.06Z"/><path class="cls-37" d="M385.39,492.08c-9.38-3.72-16.1-11.63-19.85-20.87a31.07,31.07,0,0,1,.72-26.06,31.51,31.51,0,1,0,34.07,50.16A49.29,49.29,0,0,1,385.39,492.08Z"/><path class="cls-5" d="M399.89,475.24A24.94,24.94,0,1,1,375,450.3,24.94,24.94,0,0,1,399.89,475.24Z"/><polygon class="cls-25" points="379.85 489.18 372.41 489.18 372.41 471.21 379.85 467.55 379.85 489.18"/><polygon class="cls-3" points="372.98 489.18 365.54 489.18 365.54 471.21 372.98 467.55 372.98 489.18"/><polygon class="cls-25" points="366.11 489.18 358.66 489.18 358.66 471.21 366.11 467.55 366.11 489.18"/><path class="cls-38" d="M384.79,464.71c0-4.37-2.75-7.09-7-5.55-3.55-2-10.76-3.91-12.83,1.18-3.25,0-3.37,7.92,3.72,5,3.67.95,7.57,1.18,9.34-1.89C379.79,464.12,381.49,461.42,384.79,464.71Z"/><polygon class="cls-39" points="387.7 474.74 386.34 466.96 387.06 466.96 387.06 465.78 382.45 465.78 382.45 466.96 383.23 466.96 381.88 474.74 387.7 474.74"/><rect class="cls-3" x="379.85" y="473.81" width="11.88" height="15.37"/><rect class="cls-5" x="387.07" y="481.55" width="3.1" height="7.65"/><rect class="cls-5" x="381.48" y="479.87" width="1.7" height="1.7"/><rect class="cls-5" x="384.09" y="479.87" width="1.7" height="1.7"/><rect class="cls-5" x="381.48" y="482.56" width="1.7" height="1.7"/><rect class="cls-5" x="384.09" y="482.56" width="1.7" height="1.7"/><rect class="cls-5" x="381.48" y="485.25" width="1.7" height="1.7"/><rect class="cls-5" x="384.09" y="485.25" width="1.7" height="1.7"/><path class="cls-40" d="M394.05,489.44H356.38a.26.26,0,0,1-.26-.26.26.26,0,0,1,.26-.26h37.67a.26.26,0,0,1,.26.26A.26.26,0,0,1,394.05,489.44Z"/><path class="cls-24" d="M652.49,389.48a35.13,35.13,0,1,1-35.13-35.13A35.13,35.13,0,0,1,652.49,389.48Z"/><path class="cls-25" d="M648.87,389.48A31.52,31.52,0,1,1,617.36,358,31.51,31.51,0,0,1,648.87,389.48Z"/><path class="cls-3" d="M626.56,406.5c-9.39-3.72-16.11-11.64-19.86-20.87a31.07,31.07,0,0,1,.73-26.06,31.51,31.51,0,1,0,34.07,50.16A49.23,49.23,0,0,1,626.56,406.5Z"/><path class="cls-5" d="M641.84,389.27a24.94,24.94,0,1,1-24.94-24.94A24.95,24.95,0,0,1,641.84,389.27Z"/><rect class="cls-3" x="603.9" y="372.95" width="22.61" height="30.15" rx="0.46"/><rect class="cls-14" x="607.81" y="377.1" width="22.61" height="30.15" rx="0.46"/><path class="cls-5" d="M628.75,382.23H613.07a.25.25,0,0,1-.26-.26.26.26,0,0,1,.26-.26h15.68a.26.26,0,0,1,.26.26A.26.26,0,0,1,628.75,382.23Z"/><path class="cls-5" d="M628.75,384.82H609.57a.26.26,0,1,1,0-.52h19.18a.26.26,0,0,1,0,.52Z"/><path class="cls-5" d="M628.75,387.41H609.57a.26.26,0,0,1,0-.52h19.18a.26.26,0,1,1,0,.52Z"/><path class="cls-5" d="M618.09,390h-8.52a.26.26,0,0,1-.26-.26.26.26,0,0,1,.26-.26h8.52a.25.25,0,0,1,.26.26A.26.26,0,0,1,618.09,390Z"/><path class="cls-5" d="M628.75,392.59H613.07a.26.26,0,0,1-.26-.26.25.25,0,0,1,.26-.26h15.68a.26.26,0,0,1,.26.26A.26.26,0,0,1,628.75,392.59Z"/><path class="cls-5" d="M628.75,395.17H609.57a.26.26,0,0,1-.26-.26.26.26,0,0,1,.26-.26h19.18a.26.26,0,0,1,.26.26A.26.26,0,0,1,628.75,395.17Z"/><path class="cls-5" d="M628.75,397.76H609.57a.26.26,0,0,1-.26-.26.26.26,0,0,1,.26-.26h19.18a.26.26,0,0,1,.26.26A.26.26,0,0,1,628.75,397.76Z"/><path class="cls-5" d="M628.75,400.35H609.57a.26.26,0,0,1-.26-.26.26.26,0,0,1,.26-.26h19.18a.26.26,0,0,1,.26.26A.26.26,0,0,1,628.75,400.35Z"/><path class="cls-5" d="M623.57,402.94h-14a.26.26,0,1,1,0-.52h14a.26.26,0,0,1,0,.52Z"/></g></g></svg>