<svg xmlns="http://www.w3.org/2000/svg" xmlns:xlink="http://www.w3.org/1999/xlink" viewBox="0 0 1000 1000"><defs><style>.cls-1{isolation:isolate;}.cls-2{opacity:0.5;fill:url(#linear-gradient);}.cls-16,.cls-17,.cls-2,.cls-5{mix-blend-mode:multiply;}.cls-3{fill:#002680;}.cls-4{fill:url(#linear-gradient-2);}.cls-18,.cls-5{fill:#cadadd;}.cls-6{fill:#fff;}.cls-7{fill:#000a8c;}.cls-8{fill:url(#linear-gradient-3);}.cls-9{fill:url(#linear-gradient-4);}.cls-10{fill:url(#linear-gradient-5);}.cls-11{fill:url(#linear-gradient-6);}.cls-12{fill:url(#linear-gradient-7);}.cls-13{fill:url(#linear-gradient-8);}.cls-14{fill:url(#linear-gradient-9);}.cls-15{fill:url(#linear-gradient-10);}.cls-16{fill:#ddc0db;}.cls-19{fill:#fffdfd;}.cls-20{fill:url(#linear-gradient-11);}.cls-21{fill:url(#linear-gradient-12);}.cls-22{fill:url(#linear-gradient-13);}.cls-23{fill:url(#linear-gradient-14);}.cls-24{fill:url(#linear-gradient-15);}.cls-25{fill:url(#linear-gradient-16);}</style><linearGradient id="linear-gradient" x1="894.79" y1="834.1" x2="74.38" y2="692.39" gradientUnits="userSpaceOnUse"><stop offset="0" stop-color="#c4e7f2"/><stop offset="0.03" stop-color="#c6e7f4"/><stop offset="1" stop-color="#95b0b8"/></linearGradient><linearGradient id="linear-gradient-2" x1="493.89" y1="166.36" x2="584.33" y2="166.36" gradientUnits="userSpaceOnUse"><stop offset="0" stop-color="#00c0f3"/><stop offset="0.27" stop-color="#00c0f3" stop-opacity="0.67"/><stop offset="0.53" stop-color="#00c0f3" stop-opacity="0.38"/><stop offset="0.75" stop-color="#00c0f3" stop-opacity="0.17"/><stop offset="0.91" stop-color="#00c0f3" stop-opacity="0.05"/><stop offset="1" stop-color="#00c0f3" stop-opacity="0"/></linearGradient><linearGradient id="linear-gradient-3" x1="416.2" y1="313.92" x2="488.92" y2="313.92" xlink:href="#linear-gradient-2"/><linearGradient id="linear-gradient-4" x1="368.08" y1="386.48" x2="488.92" y2="386.48" xlink:href="#linear-gradient-2"/><linearGradient id="linear-gradient-5" x1="313.93" y1="462.15" x2="488.92" y2="462.15" xlink:href="#linear-gradient-2"/><linearGradient id="linear-gradient-6" x1="259.78" y1="537.83" x2="496.38" y2="537.83" xlink:href="#linear-gradient-2"/><linearGradient id="linear-gradient-7" x1="205.64" y1="613.5" x2="488.92" y2="613.5" xlink:href="#linear-gradient-2"/><linearGradient id="linear-gradient-8" x1="151.49" y1="689.18" x2="488.92" y2="689.18" xlink:href="#linear-gradient-2"/><linearGradient id="linear-gradient-9" x1="97.34" y1="764.85" x2="490.79" y2="764.85" xlink:href="#linear-gradient-2"/><linearGradient id="linear-gradient-10" x1="397.52" y1="526.16" x2="763.97" y2="526.16" xlink:href="#linear-gradient-2"/><linearGradient id="linear-gradient-11" x1="395.15" y1="632.42" x2="414.88" y2="632.42" gradientTransform="translate(306.7 -112.11) rotate(25.11)" xlink:href="#linear-gradient-2"/><linearGradient id="linear-gradient-12" x1="440.52" y1="720.99" x2="460.25" y2="720.99" gradientTransform="translate(353.23 -123.54) rotate(25.43)" xlink:href="#linear-gradient-2"/><linearGradient id="linear-gradient-13" x1="385.28" y1="783.77" x2="405.01" y2="783.77" gradientTransform="translate(1071.72 224.59) rotate(77.18)" xlink:href="#linear-gradient-2"/><linearGradient id="linear-gradient-14" x1="212.12" y1="852.47" x2="212.12" y2="832.74" gradientTransform="translate(983.77 443.19) rotate(76.76)" xlink:href="#linear-gradient-2"/><linearGradient id="linear-gradient-15" x1="492.73" y1="526.16" x2="512.46" y2="526.16" gradientTransform="translate(279.09 -166.29) rotate(25.8)" xlink:href="#linear-gradient-2"/><linearGradient id="linear-gradient-16" x1="442.03" y1="453.1" x2="442.03" y2="433.36" gradientTransform="translate(232.55 -146.65) rotate(25.37)" xlink:href="#linear-gradient-2"/></defs><g class="cls-1"><g id="Layer_1" data-name="Layer 1"><polygon class="cls-2" points="942.66 756.42 717.65 830.18 392.35 842.83 97.34 783.77 763.97 715.98 942.66 756.42"/><polygon class="cls-3" points="584.33 171.21 502.67 188.53 493.89 190.39 493.89 142.32 502.67 145.13 584.33 171.21"/><polygon class="cls-4" points="584.33 171.21 502.67 188.53 493.89 190.39 493.89 142.32 502.67 145.13 584.33 171.21"/><polygon class="cls-5" points="502.67 145.13 502.67 188.53 493.89 190.39 493.89 142.32 502.67 145.13"/><rect class="cls-6" x="438.41" y="268.55" width="59.08" height="29.58"/><rect class="cls-6" x="395.15" y="329.72" width="93.77" height="37.84"/><rect class="cls-6" x="341" y="405.4" width="147.92" height="37.84"/><rect class="cls-6" x="286.86" y="481.07" width="209.52" height="37.84"/><rect class="cls-6" x="232.71" y="556.74" width="256.21" height="37.84"/><rect class="cls-6" x="178.56" y="632.42" width="310.36" height="37.84"/><rect class="cls-6" x="124.42" y="708.09" width="364.51" height="37.84"/><rect class="cls-7" x="416.2" y="298.13" width="72.72" height="31.6"/><rect class="cls-7" x="368.08" y="367.56" width="120.84" height="37.84"/><rect class="cls-7" x="313.93" y="443.23" width="174.99" height="37.84"/><rect class="cls-7" x="259.78" y="518.91" width="236.6" height="37.84"/><rect class="cls-7" x="205.64" y="594.58" width="283.29" height="37.84"/><rect class="cls-7" x="151.49" y="670.26" width="337.43" height="37.84"/><polygon class="cls-7" points="490.79 778.41 411.83 782.95 97.34 783.77 97.34 745.93 488.92 745.93 490.79 778.41"/><rect class="cls-8" x="416.2" y="298.13" width="72.72" height="31.6"/><rect class="cls-9" x="368.08" y="367.56" width="120.84" height="37.84"/><rect class="cls-10" x="313.93" y="443.23" width="174.99" height="37.84"/><rect class="cls-11" x="259.78" y="518.91" width="236.6" height="37.84"/><rect class="cls-12" x="205.64" y="594.58" width="283.29" height="37.84"/><rect class="cls-13" x="151.49" y="670.26" width="337.43" height="37.84"/><polygon class="cls-14" points="490.79 778.41 411.83 782.95 97.34 783.77 97.34 745.93 488.92 745.93 490.79 778.41"/><polygon class="cls-7" points="763.97 715.98 633.75 770.21 397.52 783.77 452.56 721.09 405.63 632.42 502.6 526.16 442.03 443.23 491.72 275.87 493.89 268.55 507.98 268.55 763.97 715.98"/><polygon class="cls-15" points="763.97 715.98 633.75 770.21 397.52 783.77 452.56 721.09 405.63 632.42 502.6 526.16 442.03 443.23 491.72 275.87 493.89 268.55 507.98 268.55 763.97 715.98"/><polygon class="cls-16" points="763.97 715.98 633.75 770.21 589.2 643.21 584.23 520.53 567.24 438.18 524.2 386.48 505.91 329.72 500.32 268.55 507.98 268.55 763.97 715.98"/><polygon class="cls-5" points="221.99 848.41 484.57 778.77 480.22 715.4 443.34 636.77 519.3 526.16 471.52 424.31 500.32 268.55 496.15 268.55 442.04 447.3 506.33 526.16 405.01 632.42 452.56 721.09 398.49 781.59 202.26 842.61 221.99 848.41"/><polygon class="cls-7" points="210.81 838.46 396.2 779.62 394.25 780.9 449.29 718.22 448.72 723.13 401.79 634.45 400.36 631.75 402.42 629.49 499.38 523.23 499.08 528.72 438.52 445.8 437.23 444.04 437.86 441.99 491.13 268.09 496.51 269.69 446.2 444.47 445.55 440.66 506.11 523.59 508.21 526.46 505.81 529.09 408.85 635.35 409.48 630.38 456.41 719.05 457.81 721.71 455.83 723.96 400.79 786.64 399.99 787.55 398.83 787.91 213.44 846.75 210.81 838.46"/><g class="cls-17"><circle class="cls-18" cx="507.49" cy="533" r="16.71"/></g><g class="cls-17"><circle class="cls-18" cx="411.32" cy="639.26" r="16.71"/></g><g class="cls-17"><circle class="cls-18" cx="454.81" cy="729.22" r="16.71"/></g><g class="cls-17"><circle class="cls-18" cx="400.16" cy="788.63" r="16.71"/></g><g class="cls-17"><circle class="cls-18" cx="218.96" cy="845.43" r="16.71"/></g><g class="cls-17"><circle class="cls-18" cx="446.42" cy="448.54" r="16.71"/></g><circle class="cls-19" cx="405.01" cy="632.42" r="16.71"/><circle class="cls-7" cx="405.01" cy="632.42" r="9.87" transform="translate(-230.13 231.69) rotate(-25.11)"/><circle class="cls-20" cx="405.01" cy="632.42" r="9.87" transform="translate(-230.13 231.69) rotate(-25.11)"/><circle class="cls-19" cx="450.39" cy="720.99" r="16.71"/><circle class="cls-7" cx="450.39" cy="720.99" r="9.87" transform="translate(-265.96 263.25) rotate(-25.43)"/><circle class="cls-21" cx="450.39" cy="720.99" r="9.87" transform="translate(-265.96 263.25) rotate(-25.43)"/><circle class="cls-19" cx="395.15" cy="783.77" r="16.71"/><circle class="cls-7" cx="395.15" cy="783.77" r="9.87" transform="translate(-456.75 995.19) rotate(-77.18)"/><circle class="cls-22" cx="395.15" cy="783.77" r="9.87" transform="translate(-456.75 995.19) rotate(-77.18)"/><circle class="cls-19" cx="212.12" cy="842.61" r="16.71"/><circle class="cls-7" cx="212.12" cy="842.61" r="9.87" transform="translate(-656.67 856.16) rotate(-76.76)"/><circle class="cls-23" cx="212.12" cy="842.61" r="9.87" transform="translate(-656.67 856.16) rotate(-76.76)"/><path class="cls-3" d="M495.68,139.63,497,268.55a3.11,3.11,0,1,1-6.21.06v-.06l1.32-128.92a1.79,1.79,0,0,1,3.57,0Z"/><circle class="cls-19" cx="502.6" cy="526.16" r="16.71"/><circle class="cls-7" cx="502.6" cy="526.16" r="9.87" transform="translate(-178.9 271.18) rotate(-25.8)"/><circle class="cls-24" cx="502.6" cy="526.16" r="9.87" transform="translate(-178.9 271.18) rotate(-25.8)"/><circle class="cls-19" cx="442.03" cy="443.23" r="16.71"/><circle class="cls-7" cx="442.03" cy="443.23" r="9.87" transform="translate(-147.28 232.15) rotate(-25.37)"/><circle class="cls-25" cx="442.03" cy="443.23" r="9.87" transform="translate(-147.28 232.15) rotate(-25.37)"/></g></g></svg>