<svg id="Layer_1" data-name="Layer 1" xmlns="http://www.w3.org/2000/svg" xmlns:xlink="http://www.w3.org/1999/xlink" viewBox="0 0 128.51 124"><defs><style>.cls-1{fill:#002680;}.cls-2{opacity:0.65;}.cls-3{fill:url(#linear-gradient);}.cls-4{fill:#fff;}</style><linearGradient id="linear-gradient" x1="18.51" y1="61" x2="114.51" y2="61" gradientUnits="userSpaceOnUse"><stop offset="0" stop-color="#10bef0"/><stop offset="0.27" stop-color="#10bef0" stop-opacity="0.67"/><stop offset="0.53" stop-color="#10bef0" stop-opacity="0.39"/><stop offset="0.75" stop-color="#10bef0" stop-opacity="0.18"/><stop offset="0.91" stop-color="#10bef0" stop-opacity="0.05"/><stop offset="1" stop-color="#10bef0" stop-opacity="0"/></linearGradient></defs><circle class="cls-1" cx="66.51" cy="61" r="48"/><g class="cls-2"><circle class="cls-3" cx="66.51" cy="61" r="48"/></g><path class="cls-4" d="M79.94,63.1a1,1,0,0,0-1.38,0l-4.41,4.67a1,1,0,0,0,0,1.34l4.41,4.68a1,1,0,0,0,.71.31A1,1,0,0,0,80,72.49l-3.77-4,3.77-4a1,1,0,0,0,0-1.38Zm12.32,4.71-4.42-4.67a1,1,0,1,0-1.42,1.34l3.78,4-3.78,4a1,1,0,1,0,1.42,1.34l4.42-4.67a1,1,0,0,0,0-1.35Zm-7.71-4.89a1,1,0,0,0-1.18.72l-2.24,9.23a1,1,0,0,0,.72,1.18l.23,0a1,1,0,0,0,1-.75l2.24-9.23a1,1,0,0,0-.72-1.18ZM83.2,54.83a13.17,13.17,0,0,0-1.9.15V33.88A4.9,4.9,0,0,0,76.4,29H53.06a4.89,4.89,0,0,0-4.89,4.89V88.12A4.9,4.9,0,0,0,53.06,93H76.4a4.91,4.91,0,0,0,4.9-4.89V82a13.17,13.17,0,0,0,1.9.15,13.66,13.66,0,1,0,0-27.31Zm-13-22h.49a1,1,0,1,1,0,1.95h-.49a1,1,0,0,1,0-1.95Zm-10.11,0h7a1,1,0,0,1,0,1.95h-7a1,1,0,0,1,0-1.95Zm4.59,58.07a2.9,2.9,0,1,1,2.9-2.9A2.9,2.9,0,0,1,64.73,90.91Zm13.64-7.55H51.1V38.72H78.37v17a13.63,13.63,0,0,0,0,25.51Zm4.83-3.18A11.7,11.7,0,1,1,94.9,68.49,11.71,11.71,0,0,1,83.2,80.18Z"/></svg>