<svg id="Layer_1" data-name="Layer 1" xmlns="http://www.w3.org/2000/svg" viewBox="0 0 1080 1080"><defs><style>.cls-1{fill:#cecece;}.cls-1,.cls-18,.cls-2{opacity:0.3;}.cls-2{fill:#c4c6c6;}.cls-3{fill:#cdd7f9;}.cls-4{fill:#143c83;}.cls-5,.cls-8{fill:#1a2e35;}.cls-6{fill:#0a2854;}.cls-7{fill:#089bcb;}.cls-11,.cls-8{opacity:0.8;}.cls-9{fill:#007cff;}.cls-10,.cls-11,.cls-25{fill:#fff;}.cls-12{fill:#e27b62;}.cls-13,.cls-14,.cls-24{opacity:0.1;}.cls-13,.cls-14,.cls-16,.cls-18{isolation:isolate;}.cls-15{fill:#d14c38;}.cls-16,.cls-19,.cls-25{opacity:0.2;}.cls-17,.cls-23{opacity:0.4;}.cls-20{fill:#cc7a63;}.cls-21{fill:#467cdb;}.cls-22{fill:#bb6953;}</style></defs><ellipse id="_Path_" data-name="&lt;Path&gt;" class="cls-1" cx="538.24" cy="757.46" rx="228.37" ry="13.34"/><path class="cls-2" d="M663,751.8c10.13,6.25,10.68,15.41,1.24,20.47s-25.33,4.11-35.46-2.14-10.69-15.41-1.24-20.47S652.85,745.56,663,751.8Z"/><path class="cls-2" d="M736.21,751.8c10.13,6.25,10.69,15.41,1.24,20.47s-25.33,4.11-35.46-2.14-10.69-15.41-1.24-20.47S726.08,745.56,736.21,751.8Z"/><path class="cls-2" d="M390,743.62c13.05,7.78,13.4,19.79.79,26.82s-33.42,6.42-46.46-1.36-13.4-19.79-.79-26.82S377,735.83,390,743.62Z"/><path class="cls-3" d="M716.78,392.38a26.27,26.27,0,0,0-1.14-7.72l6.78-6-4.27-7.39-8.55,2.89a26.59,26.59,0,0,0-13.38-7.72l-1.77-8.85h-8.53l-1.77,8.85a26.59,26.59,0,0,0-13.38,7.72l-8.55-2.89L658,378.7l6.78,6a26.52,26.52,0,0,0,0,15.45l-6.78,6,4.27,7.39,8.55-2.89a26.68,26.68,0,0,0,13.38,7.73l1.77,8.85h8.53l1.77-8.85a26.68,26.68,0,0,0,13.38-7.73l8.55,2.89,4.27-7.39-6.78-6A26.23,26.23,0,0,0,716.78,392.38Zm-26.6,14.36A13.83,13.83,0,1,1,704,392.92,13.82,13.82,0,0,1,690.18,406.74Z"/><path class="cls-3" d="M424.64,616.23a48.11,48.11,0,0,0,4.72-13.42l16-3.85-.59-15.54-16.24-2.61a48.49,48.49,0,0,0-15-23.83l4.66-15.77L404.44,534l-10.38,12.75a48.45,48.45,0,0,0-28.14,1.08l-11.33-11.93-13.16,8.28,5.86,15.37a48.65,48.65,0,0,0-13.14,24.91l-16,3.84.59,15.54L335,606.41a48.51,48.51,0,0,0,15,23.84L345.32,646l13.75,7.25,10.39-12.75a48.45,48.45,0,0,0,28.14-1.09l11.32,11.93,13.16-8.28-5.86-15.36A48,48,0,0,0,424.64,616.23Zm-55.09.53a25.2,25.2,0,1,1,34-10.53A25.18,25.18,0,0,1,369.55,616.76Z"/><path class="cls-3" d="M715.86,574.85,725.1,580a3.11,3.11,0,0,1,.92.69,1.31,1.31,0,0,1,.23.78,1.42,1.42,0,0,1-.43,1,1.37,1.37,0,0,1-1,.44,2.68,2.68,0,0,1-1.13-.42l-11.92-6.63a1.18,1.18,0,0,1,0-2l11.92-6.62a2.76,2.76,0,0,1,1.11-.41,1.4,1.4,0,0,1,1,.44,1.38,1.38,0,0,1,.43,1,1.27,1.27,0,0,1-.23.78,2.94,2.94,0,0,1-.92.7Z"/><path class="cls-3" d="M739.63,565.31,730.49,585a2.72,2.72,0,0,1-.63,1,1.32,1.32,0,0,1-.88.3,1.4,1.4,0,0,1-1-.42,1.3,1.3,0,0,1-.42-1,3,3,0,0,1,.33-1.1l9.17-19.68a3.16,3.16,0,0,1,.61-1,1.39,1.39,0,0,1,.88-.29,1.35,1.35,0,0,1,1,.41,1.26,1.26,0,0,1,.42.94A3,3,0,0,1,739.63,565.31Z"/><path class="cls-3" d="M751.12,574.85l-9.24-5.12a2.94,2.94,0,0,1-.92-.7,1.21,1.21,0,0,1-.23-.78,1.49,1.49,0,0,1,1.44-1.46,2.74,2.74,0,0,1,1.12.41l11.91,6.62a1.17,1.17,0,0,1,0,2l-11.91,6.63a2.65,2.65,0,0,1-1.12.42,1.4,1.4,0,0,1-1-.44,1.49,1.49,0,0,1-.42-1,1.24,1.24,0,0,1,.23-.78,3.11,3.11,0,0,1,.92-.69Z"/><path class="cls-4" d="M383.2,491.21H339.61a6.75,6.75,0,0,1-6.83-7.48l9.11-104.2a8.23,8.23,0,0,1,8-7.38h11.33a1.9,1.9,0,0,1,1.94,1.85l0,.36a2.66,2.66,0,0,0,2.71,2.58h10.77a3.43,3.43,0,0,0,3.27-2.68l.08-.36a2.21,2.21,0,0,1,2.15-1.75h11.33a6.76,6.76,0,0,1,6.83,7.48l-9.12,104.2A8.22,8.22,0,0,1,383.2,491.21ZM349.92,373.33a7,7,0,0,0-6.85,6.3L334,483.83a5.72,5.72,0,0,0,1.44,4.4,5.64,5.64,0,0,0,4.22,1.81H383.2a7,7,0,0,0,6.86-6.31l9.12-104.2a5.58,5.58,0,0,0-5.66-6.2H382.19a1.06,1.06,0,0,0-1,.82l-.08.36a4.63,4.63,0,0,1-4.42,3.61H365.92a3.83,3.83,0,0,1-3.89-3.71v-.36a.74.74,0,0,0-.77-.72Z"/><rect class="cls-4" x="341.65" y="388.51" width="57.28" height="1.18"/><rect class="cls-4" x="382.19" y="372.15" width="11.33" height="1.18"/><path class="cls-4" d="M382.86,437.19H349.44l2.92-33.43h33.43ZM350.72,436h31.06l2.72-31.07H353.44Z"/><path class="cls-4" d="M383.26,474.94h-41l1.09-12.4h41Zm-39.68-1.18h38.61l.87-10h-38.6Z"/><path class="cls-4" d="M356.32,454.38a3.23,3.23,0,0,1-3.26-3.57,3.86,3.86,0,0,1,3.77-3.47,3.23,3.23,0,0,1,3.26,3.57h0A3.87,3.87,0,0,1,356.32,454.38Zm.51-5.86a2.66,2.66,0,0,0-2.6,2.39,2.1,2.1,0,0,0,.53,1.63,2.06,2.06,0,0,0,1.56.66,2.66,2.66,0,0,0,2.6-2.39h0a2.14,2.14,0,0,0-.53-1.63A2.08,2.08,0,0,0,356.83,448.52Z"/><path class="cls-4" d="M364.79,454.38a3.23,3.23,0,0,1-3.26-3.57,3.87,3.87,0,0,1,3.77-3.47,3.23,3.23,0,0,1,3.26,3.57A3.87,3.87,0,0,1,364.79,454.38Zm.51-5.86a2.66,2.66,0,0,0-2.6,2.39,2.14,2.14,0,0,0,.53,1.63,2.08,2.08,0,0,0,1.56.66,2.66,2.66,0,0,0,2.6-2.39h0a2.14,2.14,0,0,0-.53-1.63A2.08,2.08,0,0,0,365.3,448.52Z"/><path class="cls-4" d="M373.26,454.38a3.23,3.23,0,0,1-3.26-3.57,3.87,3.87,0,0,1,3.77-3.47,3.23,3.23,0,0,1,3.26,3.57h0A3.86,3.86,0,0,1,373.26,454.38Zm.51-5.86a2.67,2.67,0,0,0-2.6,2.39,2.14,2.14,0,0,0,.53,1.63,2.08,2.08,0,0,0,1.56.66,2.66,2.66,0,0,0,2.6-2.39h0a2.05,2.05,0,0,0-2.09-2.29Z"/><rect class="cls-4" x="666.7" y="609.24" width="57.28" height="1.18"/><path class="cls-4" d="M708.23,711.94h-43.6a6.82,6.82,0,0,1-5.09-2.19,6.9,6.9,0,0,1-1.74-5.3l9.12-104.19a8.22,8.22,0,0,1,8-7.38h11.33a1.91,1.91,0,0,1,1.94,1.85v.35a2.67,2.67,0,0,0,2.71,2.58h10.77A3.41,3.41,0,0,0,705,595l.08-.35a2.25,2.25,0,0,1,2.15-1.75h11.33a6.75,6.75,0,0,1,6.83,7.48l-9.11,104.2A8.23,8.23,0,0,1,708.23,711.94ZM675,594.05a7,7,0,0,0-6.86,6.31L659,704.56a5.57,5.57,0,0,0,5.65,6.2h43.6a7,7,0,0,0,6.85-6.31l9.12-104.19a5.6,5.6,0,0,0-5.66-6.21H707.21a1.06,1.06,0,0,0-1,.83l-.07.35a4.64,4.64,0,0,1-4.43,3.61H690.94a3.83,3.83,0,0,1-3.89-3.71v-.35a.75.75,0,0,0-.76-.73Z"/><path class="cls-4" d="M715.54,625.6h-43a3.13,3.13,0,0,1-3.15-3.44,3.73,3.73,0,0,1,3.64-3.35h43a3.11,3.11,0,0,1,3.14,3.45A3.72,3.72,0,0,1,715.54,625.6ZM673,620a2.53,2.53,0,0,0-2.47,2.27,2,2,0,0,0,.5,1.54,2,2,0,0,0,1.48.62h43a2.52,2.52,0,0,0,2.46-2.26,2,2,0,0,0-.5-1.54A1.94,1.94,0,0,0,716,620Z"/><path class="cls-4" d="M714.56,636.82h-43a3.15,3.15,0,0,1-2.35-1,3.18,3.18,0,0,1-.8-2.44A3.72,3.72,0,0,1,672,630h43a3.11,3.11,0,0,1,3.14,3.45A3.72,3.72,0,0,1,714.56,636.82ZM672,631.21a2.53,2.53,0,0,0-2.47,2.27,1.95,1.95,0,0,0,2,2.16h43a2.52,2.52,0,0,0,2.46-2.27,2,2,0,0,0-.5-1.53,1.94,1.94,0,0,0-1.47-.63Z"/><path class="cls-4" d="M713.58,648H670.53a3.11,3.11,0,0,1-3.14-3.45,3.72,3.72,0,0,1,3.64-3.34h43a3.11,3.11,0,0,1,3.14,3.44A3.72,3.72,0,0,1,713.58,648ZM671,642.43a2.53,2.53,0,0,0-2.47,2.26,2,2,0,0,0,.5,1.54,1.94,1.94,0,0,0,1.47.63h43.05a2.53,2.53,0,0,0,2.46-2.27,2,2,0,0,0-.5-1.54,2,2,0,0,0-1.47-.62Z"/><path class="cls-4" d="M710.89,678.77h-43a3.11,3.11,0,0,1-3.15-3.45,3.72,3.72,0,0,1,3.64-3.34h43a3.11,3.11,0,0,1,3.14,3.45A3.72,3.72,0,0,1,710.89,678.77Zm-42.55-5.61a2.53,2.53,0,0,0-2.47,2.27,1.95,1.95,0,0,0,2,2.16h43a2.52,2.52,0,0,0,2.46-2.27,2,2,0,0,0-.5-1.53,1.94,1.94,0,0,0-1.47-.63Z"/><path class="cls-4" d="M709.91,690h-43a3.11,3.11,0,0,1-3.14-3.45,3.72,3.72,0,0,1,3.63-3.34h43a3.11,3.11,0,0,1,3.14,3.44A3.72,3.72,0,0,1,709.91,690Zm-42.56-5.61a2.52,2.52,0,0,0-2.46,2.26,2,2,0,0,0,.5,1.54,1.94,1.94,0,0,0,1.47.63h43a2.53,2.53,0,0,0,2.46-2.27,2,2,0,0,0-.5-1.54,2,2,0,0,0-1.47-.62Z"/><path class="cls-4" d="M708.92,701.2h-43a3.11,3.11,0,0,1-3.14-3.44,3.72,3.72,0,0,1,3.63-3.34h43a3.11,3.11,0,0,1,3.15,3.44A3.72,3.72,0,0,1,708.92,701.2Zm-42.55-5.61a2.52,2.52,0,0,0-2.46,2.27,2,2,0,0,0,.5,1.54,2,2,0,0,0,1.47.62h43a2.53,2.53,0,0,0,2.47-2.26,1.95,1.95,0,0,0-2-2.17Z"/><path class="cls-4" d="M736.56,500.13H693a6.78,6.78,0,0,1-5.08-2.19,6.88,6.88,0,0,1-1.75-5.3l9.12-104.2a8.23,8.23,0,0,1,8-7.38h11.33a1.91,1.91,0,0,1,1.94,1.86v.35a2.67,2.67,0,0,0,2.71,2.58H730a3.41,3.41,0,0,0,3.27-2.68l.08-.35a2.22,2.22,0,0,1,2.15-1.76h11.33a6.76,6.76,0,0,1,6.83,7.48l-9.11,104.2A8.24,8.24,0,0,1,736.56,500.13ZM703.28,382.24a7,7,0,0,0-6.86,6.3l-9.11,104.2A5.58,5.58,0,0,0,693,499h43.6a7,7,0,0,0,6.85-6.31l9.12-104.2a5.58,5.58,0,0,0-5.66-6.2H735.54a1.06,1.06,0,0,0-1,.82l-.07.36A4.64,4.64,0,0,1,730,387H719.27a3.82,3.82,0,0,1-3.88-3.71l0-.36a.74.74,0,0,0-.76-.72Z"/><rect class="cls-4" x="695" y="397.43" width="57.28" height="1.18"/><path class="cls-4" d="M739.34,488H693l2.92-33.42h46.36Zm-45.07-1.18h44L741,455.71H697Z"/><rect class="cls-4" x="717.04" y="444.63" width="1.18" height="53.23" transform="translate(-92.01 756.81) rotate(-52.72)"/><rect class="cls-4" x="688.72" y="470.65" width="57.82" height="1.18" transform="translate(-140.85 480.21) rotate(-33.89)"/><path class="cls-4" d="M745.41,418.66H699.05l1.08-12.39h46.36Zm-45.08-1.18h44l.87-10h-44Z"/><rect class="cls-4" x="699.02" y="411.88" width="47.5" height="1.18" transform="translate(-77.02 182.55) rotate(-13.67)"/><rect class="cls-4" x="722.18" y="389.67" width="1.18" height="45.6" transform="translate(145.17 1011.55) rotate(-75.76)"/><path class="cls-4" d="M744,434.78H697.64l1.08-12.39h46.36Zm-45.07-1.17h44l.87-10h-44Z"/><rect class="cls-4" x="697.61" y="428" width="47.5" height="1.18" transform="translate(-80.85 182.59) rotate(-13.67)"/><rect class="cls-4" x="720.77" y="405.79" width="1.18" height="45.6" transform="translate(128.48 1022.33) rotate(-75.76)"/><path class="cls-4" d="M742.58,450.91H696.23l1.08-12.4h46.36Zm-45.07-1.18h44l.87-10h-44Z"/><rect class="cls-4" x="696.2" y="444.12" width="47.5" height="1.18" transform="translate(-84.72 182.79) rotate(-13.67)"/><rect class="cls-4" x="719.36" y="421.91" width="1.18" height="45.6" transform="translate(111.79 1033.12) rotate(-75.76)"/><path class="cls-4" d="M729.87,553.7a18.84,18.84,0,1,1,18.83-18.84A18.86,18.86,0,0,1,729.87,553.7Zm0-36.49a17.66,17.66,0,1,0,17.65,17.65A17.67,17.67,0,0,0,729.87,517.21Z"/><path class="cls-4" d="M726.62,545.76l-8.78-11.62.94-.71,7.37,9.76a52.5,52.5,0,0,1,19.72-27.06l2.62-1.85.68,1-2.62,1.85A51.34,51.34,0,0,0,727,544.63Z"/><path class="cls-5" d="M599.47,398.7H568.89L538.05,751.23h30.58c14.18,0,26.68-11.49,27.92-25.67L622.9,424.37C624.14,410.19,613.65,398.7,599.47,398.7Z"/><path class="cls-6" d="M562.37,751.23h-126c-14.17,0-24.66-11.49-23.42-25.67l26.35-301.19c1.24-14.18,13.74-25.67,27.92-25.67h126c14.18,0,24.67,11.49,23.43,25.67L590.28,725.56C589,739.74,576.55,751.23,562.37,751.23Z"/><path class="cls-4" d="M592.7,404.59H559.94a4.75,4.75,0,0,0-4.55,3.72l-.22,1a11.62,11.62,0,0,1-11.12,9.09H512.91a9.35,9.35,0,0,1-9.53-9.09l0-1a3.83,3.83,0,0,0-3.9-3.72H466.68a22,22,0,0,0-21.51,19.78L418.82,725.56a17.83,17.83,0,0,0,18.05,19.78h126a22,22,0,0,0,21.52-19.78l26.35-301.19A17.84,17.84,0,0,0,592.7,404.59Z"/><path class="cls-7" d="M521.78,407.93a2.79,2.79,0,0,1-2.73,2.5,2.25,2.25,0,0,1-2.28-2.5,2.79,2.79,0,0,1,2.72-2.51A2.27,2.27,0,0,1,521.78,407.93Z"/><path class="cls-7" d="M539.74,405.42h-8.58a2.79,2.79,0,0,0-2.72,2.51,2.25,2.25,0,0,0,2.28,2.5h8.58a2.78,2.78,0,0,0,2.72-2.5A2.25,2.25,0,0,0,539.74,405.42Z"/><polygon class="cls-7" points="459.41 418.38 462.06 418.38 462.29 415.73 459.64 415.73 459.41 418.38"/><polygon class="cls-7" points="464.94 415.73 464.71 418.38 467.36 418.38 467.59 415.73 467.82 413.08 465.18 413.08 464.94 415.73"/><polygon class="cls-7" points="470.71 410.43 470.48 413.08 470.24 415.73 470.01 418.38 472.66 418.38 472.89 415.73 473.13 413.08 473.36 410.43 470.71 410.43"/><path class="cls-7" d="M584.65,410.61l-.17,1.94h-1.29l-.34,3.89h1.29l-.17,1.94h11.66l.68-7.77Zm4.68,5.83h-3.89l.34-3.89h3.89Z"/><polygon class="cls-8" points="579.37 620.67 408.92 620.67 423.26 456.76 593.71 456.76 579.37 620.67"/><polygon class="cls-9" points="574.86 615.73 404.42 615.73 418.76 451.82 589.2 451.82 574.86 615.73"/><polygon class="cls-10" points="574.86 615.73 404.42 615.73 418.76 451.82 589.2 451.82 574.86 615.73"/><path class="cls-4" d="M575.4,616.32H403.77l.06-.64,14.39-164.44H589.84Zm-170.34-1.18H574.32l14.24-162.73H419.3Z"/><polygon class="cls-11" points="565.38 570.59 421.8 570.59 430.98 465.69 574.55 465.69 565.38 570.59"/><path class="cls-4" d="M565.92,571.18H421.16l9.28-106.08H575.2ZM422.44,570h142.4l9.07-103.72H431.52Z"/><rect class="cls-4" x="497.59" y="432.89" width="1.18" height="170.49" transform="translate(-216.8 592.05) rotate(-52.03)"/><line class="cls-10" x1="421.8" y1="570.59" x2="574.55" y2="465.69"/><rect class="cls-4" x="405.52" y="517.55" width="185.3" height="1.18" transform="translate(-205.85 373.26) rotate(-34.5)"/><path class="cls-4" d="M477.46,586a6,6,0,0,1-5.88,5.41,4.87,4.87,0,0,1-4.94-5.41,6,6,0,0,1,5.88-5.41A4.87,4.87,0,0,1,477.46,586Z"/><path class="cls-4" d="M497.66,586a6,6,0,0,1-5.89,5.41,4.88,4.88,0,0,1-4.94-5.41,6,6,0,0,1,5.89-5.41A4.88,4.88,0,0,1,497.66,586Z"/><path class="cls-4" d="M517.85,586a6,6,0,0,1-5.88,5.41A4.87,4.87,0,0,1,507,586a6,6,0,0,1,5.88-5.41A4.88,4.88,0,0,1,517.85,586Z"/><polygon class="cls-9" points="476.15 708.06 396.34 708.06 403.05 631.31 482.86 631.31 476.15 708.06"/><polygon class="cls-10" points="476.15 708.06 396.34 708.06 403.05 631.31 482.86 631.31 476.15 708.06"/><path class="cls-4" d="M476.69,708.65h-81l6.81-77.93h81ZM397,707.47h78.63l6.61-75.57H403.59Z"/><polygon class="cls-10" points="471.71 686.92 404.48 686.92 408.77 637.8 476 637.8 471.71 686.92"/><path class="cls-4" d="M472.25,687.51H403.84l4.4-50.29h68.41Zm-67.13-1.18h66.05l4.19-47.94H409.31Z"/><line class="cls-10" x1="408.78" y1="637.81" x2="471.71" y2="686.92"/><rect class="cls-4" x="439.65" y="622.45" width="1.18" height="79.83" transform="translate(-352.78 601.87) rotate(-52.03)"/><line class="cls-10" x1="404.48" y1="686.92" x2="476" y2="637.81"/><rect class="cls-4" x="396.86" y="661.78" width="86.77" height="1.18" transform="translate(-297.73 365.81) rotate(-34.5)"/><path class="cls-4" d="M430.54,694.11a2.81,2.81,0,0,1-2.75,2.54,2.29,2.29,0,0,1-2.32-2.54,2.82,2.82,0,0,1,2.76-2.53A2.28,2.28,0,0,1,430.54,694.11Z"/><path class="cls-4" d="M440,694.11a2.82,2.82,0,0,1-2.76,2.54,2.28,2.28,0,0,1-2.31-2.54,2.81,2.81,0,0,1,2.75-2.53A2.29,2.29,0,0,1,440,694.11Z"/><path class="cls-4" d="M449.45,694.11a2.81,2.81,0,0,1-2.75,2.54,2.29,2.29,0,0,1-2.32-2.54,2.83,2.83,0,0,1,2.76-2.53A2.28,2.28,0,0,1,449.45,694.11Z"/><polygon class="cls-9" points="566.78 708.06 486.98 708.06 493.69 631.31 573.5 631.31 566.78 708.06"/><polygon class="cls-10" points="566.78 708.06 486.98 708.06 493.69 631.31 573.5 631.31 566.78 708.06"/><path class="cls-4" d="M567.32,708.65h-81l6.82-77.93h81Zm-79.7-1.18h78.62l6.62-75.57H494.23Z"/><polygon class="cls-10" points="562.34 686.92 495.12 686.92 499.41 637.8 566.64 637.8 562.34 686.92"/><path class="cls-4" d="M562.88,687.51H494.47l4.4-50.29h68.41Zm-67.12-1.18h66l4.2-47.94H500Z"/><line class="cls-10" x1="499.41" y1="637.81" x2="562.34" y2="686.92"/><rect class="cls-4" x="530.29" y="622.45" width="1.18" height="79.83" transform="translate(-317.91 673.33) rotate(-52.03)"/><line class="cls-10" x1="495.11" y1="686.92" x2="566.64" y2="637.81"/><rect class="cls-4" x="487.49" y="661.78" width="86.77" height="1.18" transform="translate(-281.79 417.15) rotate(-34.5)"/><path class="cls-4" d="M521.18,694.11a2.82,2.82,0,0,1-2.76,2.54,2.28,2.28,0,0,1-2.31-2.54,2.82,2.82,0,0,1,2.76-2.53A2.28,2.28,0,0,1,521.18,694.11Z"/><path class="cls-4" d="M530.63,694.11a2.81,2.81,0,0,1-2.75,2.54,2.29,2.29,0,0,1-2.32-2.54,2.83,2.83,0,0,1,2.76-2.53A2.28,2.28,0,0,1,530.63,694.11Z"/><path class="cls-4" d="M540.09,694.11a2.82,2.82,0,0,1-2.76,2.54,2.28,2.28,0,0,1-2.31-2.54,2.82,2.82,0,0,1,2.76-2.53A2.28,2.28,0,0,1,540.09,694.11Z"/><polygon class="cls-4" points="565.35 445.03 481 445.03 481.99 433.73 566.34 433.73 565.35 445.03"/><rect class="cls-7" x="458.64" y="442.5" width="13.04" height="1.18"/><rect class="cls-7" x="459.03" y="438.09" width="13.04" height="1.18"/><rect class="cls-7" x="459.41" y="433.69" width="13.04" height="1.18"/><rect class="cls-9" x="444.86" y="427.03" width="165.52" height="1.77"/><path class="cls-12" d="M624.81,469.51a2.35,2.35,0,0,1,.7-1,2.3,2.3,0,0,1,.88-.3c2.39-.45,4.88-.9,7.21-.24a.87.87,0,0,1,.46.25.88.88,0,0,1,.14.44c.18,1.33.36,2.66.55,4a1.86,1.86,0,0,1,0,.88,1.77,1.77,0,0,1-.56.69,40.8,40.8,0,0,1-6.71,4.2c-1.15.24-4.8-.94-5.89-1.4S623.75,471.72,624.81,469.51Z"/><path class="cls-9" d="M598.32,509.91c1.06-8.4,19.83-31.05,22.29-34.33,1.38-1.82,7.08-.47,8.22,3-5.12,7.11-8,13.11-11.45,21.14a120.51,120.51,0,0,1-5.76,10.83C602.14,523.8,597.86,513.56,598.32,509.91Z"/><g class="cls-13"><path d="M598.32,509.91c1.06-8.4,19.83-31.05,22.29-34.33,1.38-1.82,7.08-.47,8.22,3-5.12,7.11-8,13.11-11.45,21.14a120.51,120.51,0,0,1-5.76,10.83C602.14,523.8,597.86,513.56,598.32,509.91Z"/></g><path class="cls-12" d="M666,529.93s-6,.08-7.82,1.72l-2.58,2.28a1.23,1.23,0,0,0-.08,1.74c1.39,1.56,4.43,4.61,7.84,5.82a2.29,2.29,0,0,0,2.24-.4s4.12-5.15,3.46-6.21Z"/><path class="cls-9" d="M681.74,530.5c-.54.29-1.08.58-1.64.86l-8.42,3.12c-5.74,2.81-6.17-4.26-6.17-4.26l2.3-2,15.63-13s-14.55-10.79-24-19.9c-7.1-8.17-6.17-13.51,2.18-12.62,6,.63,33.51,26.34,35.9,29.09S694.5,523.5,681.74,530.5Z"/><path class="cls-14" d="M681.74,530.5c-.54.29-1.08.58-1.64.86l-8.42,3.12c-5.74,2.81-6.17-4.26-6.17-4.26l2.3-2,15.63-13s-14.55-10.79-24-19.9c-7.1-8.17-6.17-13.51,2.18-12.62,6,.63,33.51,26.34,35.9,29.09S694.5,523.5,681.74,530.5Z"/><path class="cls-5" d="M686.24,502.16l-.14-.14Z"/><g id="_Group_" data-name="&lt;Group&gt;"><path class="cls-5" d="M631.8,449.54c-.48-.08-1,.43-1.13,1.16s.13,1.41.61,1.5,1-.43,1.13-1.17S632.29,449.62,631.8,449.54Z"/><path class="cls-15" d="M630.5,459.24a4.29,4.29,0,0,1-3.38-1.33,27,27,0,0,0,4.71-5.61Z"/><path class="cls-5" d="M635.57,447.4a3.46,3.46,0,0,0-3-1.21h0l-.14,0a.43.43,0,0,1-.45-.44.44.44,0,0,1,.44-.45,4.38,4.38,0,0,1,3.73,1.41.45.45,0,0,1-.32.75A.48.48,0,0,1,635.57,447.4Z"/><path class="cls-12" d="M641.34,491.87c12.59-.12,14.37-7,14.37-7-3.81-3.59-4.14-10.3-3.46-16.3a13.85,13.85,0,0,1-3.67,3.65,11.48,11.48,0,0,1-9.18,1.84.24.24,0,0,1-.16-.05c0,.12,0,.25.07.37.85,4.78.29,9.93-4.71,11.54C634.6,485.91,627.47,492,641.34,491.87Z"/><path class="cls-12" d="M638.85,472.24c.15.58.29,1.15.39,1.76a.24.24,0,0,0,.16.05,11.48,11.48,0,0,0,9.18-1.84,13.85,13.85,0,0,0,3.67-3.65c.16-1.53.4-3,.65-4.38L639.36,472Z"/><path class="cls-9" d="M657,484.31s-1.9-5.47-4.63-7.16-14.52.37-16.36,1.13-3.62,5.07-3.62,5.07Z"/><path class="cls-11" d="M657,484.31s-1.9-5.47-4.63-7.16-14.52.37-16.36,1.13-3.62,5.07-3.62,5.07Z"/><path class="cls-9" d="M641.56,755.08c-1.18,0-2.23-.15-2.59-.67a.78.78,0,0,1,0-.91,1,1,0,0,1,.68-.48c1.47-.41,4.56,1.35,4.72,1.42a.2.2,0,0,1,.1.21.21.21,0,0,1-.17.18A16.72,16.72,0,0,1,641.56,755.08Zm-1.39-1.71a1.34,1.34,0,0,0-.4,0,.59.59,0,0,0-.42.3c-.14.26-.1.37,0,.46.41.56,2.64.57,4.29.34a9.43,9.43,0,0,0-3.47-1.12Z"/><path class="cls-9" d="M644.24,754.8h-.08c-1.08-.48-3.18-2.35-3-3.38,0-.23.21-.53.79-.59a1.54,1.54,0,0,1,1.18.36c1.17.92,1.35,3.29,1.36,3.4a.26.26,0,0,1-.1.19A.22.22,0,0,1,644.24,754.8Zm-2.14-3.53H642c-.38,0-.4.19-.41.24-.1.6,1.32,2.09,2.41,2.75a4.87,4.87,0,0,0-1.16-2.72,1.13,1.13,0,0,0-.74-.31Z"/><polygon class="cls-12" points="653.18 734.25 644.38 734.26 645.13 754.59 653.98 754.58 653.18 734.25"/><path class="cls-5" d="M643.05,754.26c-6,3.7-7.87,3.86-14.83,5.39-1.52.33-.55,4,3.09,4,6,0,6.66-.29,11.79-.3,4.4,0,9.45.19,12.95.24a1.66,1.66,0,0,0,.32,0,1.3,1.3,0,0,0,1-1.55l-1.72-7.86a.77.77,0,0,0-.75-.6l-9.68,0A4,4,0,0,0,643.05,754.26Z"/><polygon class="cls-16" points="653.19 734.26 653.59 745.6 644.76 745.61 644.38 734.27 653.19 734.26"/><path class="cls-9" d="M718.89,751.42c-.11-1.22-.06-2.32.43-2.75a.83.83,0,0,1,1-.08,1.17,1.17,0,0,1,.57.65c.56,1.48-1,4.84-1,5a.2.2,0,0,1-.21.13.21.21,0,0,1-.19-.16A16.57,16.57,0,0,1,718.89,751.42Zm1.65-1.61a1.12,1.12,0,0,0,0-.41.61.61,0,0,0-.34-.41c-.29-.12-.42-.06-.48,0-.55.48-.34,2.79.07,4.47a9.77,9.77,0,0,0,.79-3.69Z"/><path class="cls-9" d="M719.41,754.15s0,0,0-.08c.4-1.14,2.16-3.5,3.22-3.42.25,0,.57.16.69.75a1.59,1.59,0,0,1-.26,1.25c-.83,1.3-3.3,1.7-3.39,1.72a.21.21,0,0,1-.21-.07A.2.2,0,0,1,719.41,754.15Zm3.48-2.54a.85.85,0,0,0,0-.13c0-.39-.23-.4-.28-.4-.64-.05-2.05,1.57-2.62,2.76a5.14,5.14,0,0,0,2.71-1.45,1.21,1.21,0,0,0,.24-.78Z"/><polygon class="cls-12" points="713.14 734.12 704.56 734.74 709.63 755.24 718.27 754.61 713.14 734.12"/><path class="cls-5" d="M720.36,753c2.68,2.67,4.09,4,11.34,5.7,1.6.36.55,4.18-3.25,4.14-6.28-.06-2.84-.32-8.2-.37-4.58,0-8.58,0-12.23,0a1.47,1.47,0,0,1-.36,0,1.35,1.35,0,0,1-1-1.61l1.84-8.17a.77.77,0,0,1,.78-.62l8.82.2A3.17,3.17,0,0,1,720.36,753Z"/><polygon class="cls-16" points="713.15 734.13 715.78 744.66 707.17 745.28 704.56 734.74 713.15 734.13"/><path class="cls-9" d="M666.59,555.6A91.67,91.67,0,0,1,674.74,572c4.71,12.75,3,19.42,4.61,28,2.78,15.2,6.93,26.86,9.84,38.39,9.09,36.08,28.29,100.14,28.29,100.14L702,742S673.19,665.59,665,639.79c-7.36-23.22-26.23-84.24-26.23-84.24Z"/><path class="cls-17" d="M666.59,555.6A91.67,91.67,0,0,1,674.74,572c4.71,12.75,3,19.42,4.61,28,2.78,15.2,6.93,26.86,9.84,38.39,9.09,36.08,28.29,100.14,28.29,100.14L702,742S673.19,665.59,665,639.79c-7.36-23.22-26.23-84.24-26.23-84.24Z"/><path class="cls-9" d="M719.29,735.7l.17,5.52-18.69,2s-1.66-6-1.58-6Z"/><path class="cls-11" d="M719.29,735.7l.17,5.52-18.69,2s-1.66-6-1.58-6Z"/><path class="cls-18" d="M647.52,583.67c6,19.15,13.48,43.39,17.5,56.11.19.61.41,1.25.61,1.93-1.58-21.25-5.75-56.85-16.43-58.16A3.68,3.68,0,0,0,647.52,583.67Z"/><path class="cls-9" d="M652.28,555.53s4.54,58.53,5.06,86.2c.47,25.79-1.43,100.94-1.43,100.94l-14.95,0s-7.14-76.71-9.78-102.9c-2.52-24.8-9.06-83.74-9.06-83.74Z"/><path class="cls-17" d="M652.28,555.53s4.54,58.53,5.06,86.2c.47,25.79-1.43,100.94-1.43,100.94l-14.95,0s-7.14-76.71-9.78-102.9c-2.52-24.8-9.06-83.74-9.06-83.74Z"/><path class="cls-9" d="M658.13,737.43l-.51,5.49-18.18,0s-.85-6.15-.78-6.15Z"/><path class="cls-11" d="M658.13,737.43l-.51,5.49-18.18,0s-.85-6.15-.78-6.15Z"/><path class="cls-9" d="M681.27,574.21l-4.18-1.2a41.24,41.24,0,0,0-20.58-.62l-4.89-11.16,1.5,11.74-2.15,0A41.51,41.51,0,0,0,633,576.57a42.9,42.9,0,0,1-5.64,2.35c0-.36-5.27-22.87-5.27-22.87-5.36-36.51-4.48-55-2.87-64a11.82,11.82,0,0,1,9.45-9.52c1.82-.33,3.87-.66,5.95-.87a165.51,165.51,0,0,1,18.9-.19l4.17.31c6.59.35,13.33,5.92,12.15,12.42-4,21.58-4.61,37.36-4.35,47.76Z"/><path class="cls-16" d="M618.25,521.59s-.13-18,0-21.32l13.39-9.21A127.86,127.86,0,0,0,618.25,521.59Z"/><path class="cls-12" d="M629.62,462.15A12.79,12.79,0,0,0,636,472.74h0a.06.06,0,0,0,.05,0,10.61,10.61,0,0,0,3.13,1.24.24.24,0,0,0,.16.05,11.48,11.48,0,0,0,9.18-1.84,13.85,13.85,0,0,0,3.67-3.65c2.39-3.44,3.33-8,5-14.36a12.55,12.55,0,0,0-14.62-15.57C633.06,440.52,629.26,453.66,629.62,462.15Z"/><path class="cls-19" d="M636.11,472.76a10.61,10.61,0,0,0,3.13,1.24s-.46-5.59-.46-5.59S636.78,472.75,636.11,472.76Z"/><path class="cls-5" d="M668.29,455.64c-1,1.32-2.35,2.7-4,2.85a6.16,6.16,0,0,1-2.85-.45c-2.95,5.1-9.19,10.52-9.19,10.52a13.87,13.87,0,0,1-10-.09c-.52-.21-.9-.36-1-.37-.46-.1-2.83-10.06-6.13-11.58l-.74-.36c.22-1.05-.11-4,.92-5,.55-.53-1-1.92-.85-3a2.17,2.17,0,0,1,0-.25c-1-.66-1.12-2.08-.72-3.59,1-3.79,3-2.76,3-2.76a4.31,4.31,0,0,1-.67-3.43c.41-2.16,4.47-3.25,4.47-3.25s.53.09,1.44.28a4.88,4.88,0,0,1,3.27-1,6,6,0,0,1,4.35,2.52,4.92,4.92,0,0,1,7.83,2.62,4.12,4.12,0,0,1,4.24,1.13,4.45,4.45,0,0,1,1.21,4.39,2.83,2.83,0,0,1,2.05,2.45,15.65,15.65,0,0,1-.3,3.66,5.55,5.55,0,0,0,.47,3.58A2.47,2.47,0,0,0,668.29,455.64Z"/><path class="cls-12" d="M638.68,450.46c-2.63.83-3.93,4.76-4,7.24-.08,2.74,1.79,4.43,4.13,2.54a10.38,10.38,0,0,0,3.54-5.66C643,451.89,641.31,449.63,638.68,450.46Z"/></g><path class="cls-9" d="M616.16,491.77l-16.61,18.86c-2.3,5.35,5.66,11.24,11.29,6l19.93-23c1.44-3.13,1.64-5.72-.48-7.8C627.51,483.14,622.63,481.39,616.16,491.77Z"/><path class="cls-20" d="M389.17,527.72c7.63,8.18,12.21,12.24,15.06,14.48,3.1,2.44,29.61-13.68,32.89-15.52,0,0-3-2.92-4.19-2.61-4.62,1.18-25.27,8.3-25.27,8.3-1-.3-10.49-11.23-10.49-11.23Z"/><path class="cls-20" d="M440.56,522.62l-.09-.06.1.09s-2.35,3.86-5.56,4.82l-2.43-2.38,1.1-7.05.06-.43.26-.25,3.32-3.22a1.75,1.75,0,0,1,2.43,0l2.49,2.41a1.73,1.73,0,0,1,.34,2Z"/><path class="cls-21" d="M403.35,524.58c-6.75-9.64-18.63-15.93-22-16-4.88-.08-6.39,1-4.54,4.76,3.12,6.29,8.3,12.7,15.44,20.36Z"/><path class="cls-21" d="M384.13,509.08a74.76,74.76,0,0,0-8.31-2.5A110.28,110.28,0,0,0,360.19,504a91.54,91.54,0,0,0-9.23-.51,4.22,4.22,0,0,0-.93.11,4.63,4.63,0,0,0-3.41,5.43c5.17,27.34,5.42,39.46,4.68,53.54l31.46,1.12a1.67,1.67,0,0,0,1.67-1.41c1.4-7.09,5.75-22.86,5.75-22.86,4.44-3.14,4.25-6.74,3.1-11.37-.37-1.45-1.21-2.84-4.78-10.66C388.5,517.39,385.75,509.67,384.13,509.08Z"/><path class="cls-10" d="M364.24,563l11.47.42c1.72-13.62.85-23.79.8-39.25C376.55,538.64,368.28,556,364.24,563Z"/><path class="cls-20" d="M376.14,568.52s14.14,70,13.42,99c-.76,30.56-6.75,83.15-6.75,83.15l-7.46-.08s-6.7-38.94-2.87-81.65c-19.54-42.82-24.61-97.64-24.61-97.64Z"/><path class="cls-22" d="M376.14,568.52s14.14,70,13.42,99c-.76,30.56-6.75,83.15-6.75,83.15l-7.46-.08s-6.7-38.94-2.87-81.65c-19.54-42.82-24.61-97.64-24.61-97.64Z"/><path class="cls-20" d="M369.79,585.77s3.68,54.77-.16,83.52c-4.05,30.3-15.66,81.94-15.66,81.94l-7.41-.88s-2.47-39.44,5.94-81.49c-14.82-44.68-11.12-83.39-11.12-83.39Z"/><path class="cls-20" d="M369.79,585.77s3.68,54.77-.16,83.52c-4.05,30.3-15.66,81.94-15.66,81.94l-7.41-.88s-2.47-39.44,5.94-81.49c-14.82-44.68-11.12-83.39-11.12-83.39Z"/><path class="cls-9" d="M341.64,648.73a165.8,165.8,0,0,0,23.2,4.06l.71.06c.49,0,1,.09,1.54.11,3.16.17,24.32,2.91,25.78-5.8,0,0-4.55-21.58-8.94-45.53-2.66-14.52-.49-34.93-.49-34.93h0a157.79,157.79,0,0,0-27.66-.82l-5.37.31s-18.14,17.95-13.63,35.72C343.52,628.51,341.64,648.73,341.64,648.73Z"/><g class="cls-23"><path d="M341.64,648.73a165.8,165.8,0,0,0,23.2,4.06l.71.06c.49,0,1,.09,1.54.11,3.16.17,24.32,2.91,25.78-5.8,0,0-4.55-21.58-8.94-45.53-2.66-14.52-.49-34.93-.49-34.93h0a157.79,157.79,0,0,0-27.66-.82l-5.37.31s-18.14,17.95-13.63,35.72C343.52,628.51,341.64,648.73,341.64,648.73Z"/></g><path class="cls-24" d="M355.68,503.57h0a23.72,23.72,0,0,0,3.65,7.7c4.56,6.27,11.29,13.08,14.25,13.84.85-2,2.17-5.83,2.17-5.83,1.95,1,2.49,3.7,3.13,5.8,3.12-5.07,5.51-13.78,4.72-17,0,0-3.79-1.12-5.65-1.58A113.29,113.29,0,0,0,362.32,504,52.46,52.46,0,0,0,355.68,503.57Z"/><path class="cls-10" d="M355.58,503l1,1.88c4,7.29,13.32,16.67,17,17.59a47.54,47.54,0,0,0,1.73-5.38c1.94,1,3.37,3.7,4,5.8,3.12-5.07,5-12.16,4.18-15.33h0c-1.83-.56-3.79-1.12-5.65-1.58a113.19,113.19,0,0,0-15.64-2.51A52.33,52.33,0,0,0,355.58,503Z"/><path class="cls-9" d="M351.32,566.19l15.94.43,1.33,0,3.45.09,1.32,0,9.36.24c.29,0,.54-.14.55-.32l.37-3c0-.21-.22-.39-.55-.41l-9.25-.36-1.11,0-4.57-.17-1.08-.05-15.35-.6a.62.62,0,0,0-.55.24l-.38,3.4C350.68,565.93,351,566.17,351.32,566.19Z"/><path class="cls-25" d="M351.32,566.19l15.94.43,1.33,0,3.45.09,1.32,0,9.36.24c.29,0,.54-.14.55-.32l.37-3c0-.21-.22-.39-.55-.41l-9.25-.36-1.11,0-4.57-.17-1.08-.05-15.35-.6a.62.62,0,0,0-.55.24l-.38,3.4C350.68,565.93,351,566.17,351.32,566.19Z"/><path class="cls-5" d="M378.31,567.3h-1a.29.29,0,0,1-.34-.26l.57-4.25c0-.12.2-.24.41-.24l1,0c.21,0,.36.12.35.24l-.57,4.27A.41.41,0,0,1,378.31,567.3Z"/><path class="cls-5" d="M360.55,567.05l-1,0c-.2,0-.34-.11-.33-.23l.57-4.28c0-.11.2-.22.39-.21l1,0c.2,0,.34.1.33.23l-.57,4.25C360.92,567,360.75,567.05,360.55,567.05Z"/><polygon class="cls-4" points="394.36 554.6 370.33 554.6 373.14 522.47 397.17 522.47 394.36 554.6"/><path class="cls-20" d="M351.46,548.61a4.31,4.31,0,0,0,1.29-3.52s0-2,.07-4.93c.1-8.7.17-26-.74-28.35-2-5-5.38-7.67-7.16-4.76-2.07,3.39-2.23,29.17-2.23,29.17C343.18,553.26,349.42,551,351.46,548.61Z"/><path class="cls-20" d="M384.65,546l0-.09,0,.13s-3.89,2.29-7.18,1.62l-1-3.24,4.3-5.7.25-.35.35-.1,4.45-1.27a1.75,1.75,0,0,1,2.14,1.14l1.06,3.3a1.74,1.74,0,0,1-.66,2Z"/><path class="cls-20" d="M346.3,549.55c2.83,3.47,31.58-1.66,31.81-1.76.94-.42,1.08-2.89,0-3.78-.59-.49-30-3.16-32-3.32C342.6,546,344.87,547.79,346.3,549.55Z"/><path class="cls-5" d="M387.06,469.58c3.91,4.74,6,8.28,3.59,24.11-.45,3,.85,10,1.41,10.07-15.36-1.79-19.74-4.31-27-8.76-4.88-3-8.86-13.77-7.59-19.34,1.37-6,7.92-13,14.24-13.62C378.78,461.37,382.63,464.2,387.06,469.58Z"/><path class="cls-20" d="M376.57,499.41c-1.64,3.23-2.63,6.92,1.33,10.19a4.72,4.72,0,0,1,1.68,2.71c.33,1.72-.38,3.57-6.5,1.17-8.84-3.47-9.05-9-9.05-9,4-2,5.08-11.34,5.21-16.6Z"/><path class="cls-16" d="M371,495.47c-.26,2.28,2.61,5.37,4.57,6.47a14.42,14.42,0,0,1,1-2.54l-4.34-6.82A8.06,8.06,0,0,0,371,495.47Z"/><path class="cls-20" d="M365.22,474.93a11.37,11.37,0,0,1,14.69-6.53c8.27,3.13,9.78,15.51,8.21,23.09-1.71,8.47-11.85,11.18-18.39,4.82-4.37-4.23-4.49-7.79-5.21-16.16A11.46,11.46,0,0,1,365.22,474.93Z"/><path class="cls-5" d="M366.23,489a12,12,0,0,0,2.88-9.64s3.82-3.91,3.63-8.1c0,0,1.13,3.34,0,5.72,0,0,9.91-.72,9.67-5.72,0,0,.86,4.33-.63,5.64,0,0,6.83-.54,6.29-5.22-.84-7.21-7-7.58-7-7.58s-6.57-5.59-15.66,4.28c0,0-10.7,6.68-3.12,17.82Z"/><path class="cls-15" d="M383.16,488.54a2.88,2.88,0,0,0,2.41-.51,18.34,18.34,0,0,1-2.55-4.31Z"/><path class="cls-5" d="M376.8,489.3a.2.2,0,0,1,.33-.23,5.36,5.36,0,0,0,4.46,2,.22.22,0,0,1,.2.2h0a.18.18,0,0,1-.19.19,5.25,5.25,0,0,1-1,0A5.68,5.68,0,0,1,376.8,489.3Z"/><path class="cls-20" d="M361.37,485.2a3.11,3.11,0,0,1,3-3.2c2.36,0,3.92,2.92,4.26,5,.34,2.27-1,4.21-3.27,3.28a7,7,0,0,1-3.69-3.79A3.32,3.32,0,0,1,361.37,485.2Z"/><path class="cls-5" d="M377.45,481.4c0,.84.41,1.53,1,1.56s1-.65,1-1.5-.41-1.53-.95-1.55S377.48,480.55,377.45,481.4Z"/><path class="cls-5" d="M385.26,482.29c0,.83.4,1.53.94,1.55s1-.65,1-1.5-.41-1.53-.95-1.55S385.27,481.43,385.26,482.29Z"/><path class="cls-5" d="M386.05,480.83l2-.52S387,481.86,386.05,480.83Z"/><path class="cls-5" d="M375.1,478.63a.5.5,0,0,1-.19-.1.41.41,0,0,1,0-.58h0a4.8,4.8,0,0,1,4.15-1.51.41.41,0,0,1-.15.81,4,4,0,0,0-3.41,1.28A.44.44,0,0,1,375.1,478.63Z"/><path class="cls-5" d="M388.25,479.65a.79.79,0,0,1-.17-.14,4,4,0,0,0-3.18-1.79.43.43,0,0,1-.43-.39h0a.41.41,0,0,1,.41-.42,4.84,4.84,0,0,1,3.88,2.14.4.4,0,0,1-.07.57.41.41,0,0,1-.44,0Z"/><path class="cls-5" d="M378.25,479.94l2-.51S379.2,481,378.25,479.94Z"/><path class="cls-21" d="M348.35,503.93a5.8,5.8,0,0,1,5.59,1.56,11.26,11.26,0,0,1,2.85,6.27c.46,3.57-3.39,16.4-3.29,20-3.8-2.08-9.39-4.93-14.69-5.45.73-8.45,1.71-14.07,3.35-16.87a15.38,15.38,0,0,1,3.35-4.41A7.78,7.78,0,0,1,348.35,503.93Z"/><path class="cls-5" d="M384.75,751.57c2.69,2.67,4.1,4,11.35,5.7,1.59.36.55,4.18-3.25,4.14-6.29-.06-2.85-.32-8.2-.37-4.58-.06-8.59,0-12.23,0a1.16,1.16,0,0,1-.37,0,1.35,1.35,0,0,1-1-1.62l1.83-8.16a.79.79,0,0,1,.79-.62l8.81.2A3.14,3.14,0,0,1,384.75,751.57Z"/><path class="cls-5" d="M356.65,752.15c1.71,3.37,2.63,5.12,9,9,1.41.84-.78,4.14-4.38,2.92-5.95-2-2.6-1.2-7.67-2.92-4.33-1.48-8.16-2.67-11.63-3.78a1.24,1.24,0,0,1-.33-.15,1.36,1.36,0,0,1-.47-1.85l4.3-7.19a.79.79,0,0,1,.94-.34l8.31,2.94A3.23,3.23,0,0,1,356.65,752.15Z"/></svg>