<?xml version="1.0" encoding="utf-8"?>
<!-- Generator: Adobe Illustrator 25.2.1, SVG Export Plug-In . SVG Version: 6.00 Build 0)  -->
<svg version="1.1" id="Layer_1" xmlns="http://www.w3.org/2000/svg" xmlns:xlink="http://www.w3.org/1999/xlink" x="0px" y="0px"
	 viewBox="0 0 128.51 124" style="enable-background:new 0 0 128.51 124;" xml:space="preserve">
<style type="text/css">
	.st0{fill:#002680;}
	.st1{opacity:0.65;}
	.st2{fill:url(#SVGID_1_);}
	.st3{fill:url(#SVGID_2_);}
	.st4{fill:#FFFFFF;}
	.st5{fill:url(#SVGID_3_);}
	.st6{fill:url(#SVGID_4_);}
	.st7{fill:url(#SVGID_5_);}
	.st8{fill:url(#SVGID_6_);}
	.st9{fill:url(#SVGID_7_);}
	.st10{fill:url(#SVGID_8_);}
	.st11{fill:url(#SVGID_9_);}
	.st12{fill:url(#SVGID_10_);}
	.st13{fill:url(#SVGID_11_);}
	.st14{fill:url(#SVGID_12_);}
	.st15{fill:url(#SVGID_13_);}
	.st16{fill:url(#SVGID_14_);}
	.st17{fill:url(#SVGID_15_);}
	.st18{fill:url(#SVGID_16_);}
	.st19{fill:url(#SVGID_17_);}
	.st20{fill:url(#SVGID_18_);}
	.st21{fill:url(#SVGID_19_);}
	.st22{fill:url(#SVGID_20_);}
	.st23{fill:url(#SVGID_21_);}
	.st24{fill:url(#SVGID_22_);}
	.st25{fill:url(#SVGID_23_);}
	.st26{fill:url(#SVGID_24_);}
	.st27{fill:url(#SVGID_25_);}
	.st28{fill:url(#SVGID_26_);}
	.st29{fill:url(#SVGID_27_);}
	.st30{fill:url(#SVGID_28_);}
	.st31{fill:url(#SVGID_29_);}
	.st32{fill:url(#SVGID_30_);}
	.st33{fill:url(#SVGID_31_);}
	.st34{fill:url(#SVGID_32_);}
	.st35{fill:url(#SVGID_33_);}
	.st36{fill:url(#SVGID_34_);}
	.st37{fill:url(#SVGID_35_);}
	.st38{fill:url(#SVGID_36_);}
	.st39{fill:url(#SVGID_37_);}
	.st40{fill:url(#SVGID_38_);}
	.st41{fill:url(#SVGID_39_);}
	.st42{fill:url(#SVGID_40_);}
	.st43{fill:url(#SVGID_41_);}
	.st44{fill:url(#SVGID_42_);}
	.st45{fill:url(#SVGID_43_);}
	.st46{fill:url(#SVGID_44_);}
	.st47{fill:url(#SVGID_45_);}
	.st48{fill:url(#SVGID_46_);}
	.st49{fill:url(#SVGID_47_);}
	.st50{fill:url(#SVGID_48_);}
	.st51{fill:url(#SVGID_49_);}
	.st52{fill:url(#SVGID_50_);}
	.st53{fill:url(#SVGID_51_);}
	.st54{fill:url(#SVGID_52_);}
	.st55{fill:url(#SVGID_53_);}
</style>
<path class="st0" d="M95.73,36.17h-9.1V21c0-1.61-0.64-3.15-1.78-4.29c-1.14-1.14-2.68-1.78-4.29-1.78H38.08
	c-1.61,0-3.15,0.64-4.29,1.78c-1.14,1.14-1.78,2.68-1.78,4.29v78.89c0,1.61,0.64,3.15,1.78,4.29c1.14,1.14,2.68,1.78,4.29,1.78
	h42.48c1.61,0,3.15-0.64,4.29-1.78c1.14-1.14,1.78-2.68,1.78-4.29V87.75h9.1c1.61,0,3.15-0.64,4.29-1.78
	c1.14-1.14,1.78-2.68,1.78-4.29V42.24c0-1.61-0.64-3.15-1.78-4.29C98.88,36.81,97.34,36.17,95.73,36.17L95.73,36.17z M66.91,17.97
	v1.52c0,0.84-0.68,1.52-1.52,1.52H53.25c-0.84,0-1.52-0.68-1.52-1.52v-1.52H66.91z M83.6,99.89c0,0.8-0.32,1.58-0.89,2.14
	c-0.57,0.57-1.34,0.89-2.14,0.89H38.08c-0.8,0-1.58-0.32-2.14-0.89c-0.57-0.57-0.89-1.34-0.89-2.14V21c0-0.8,0.32-1.58,0.89-2.14
	s1.34-0.89,2.14-0.89H48.7v1.52c0,1.21,0.48,2.36,1.33,3.22c0.85,0.85,2.01,1.33,3.22,1.33h12.14c1.21,0,2.36-0.48,3.22-1.33
	c0.85-0.85,1.33-2.01,1.33-3.22v-1.52h10.62c0.8,0,1.58,0.32,2.14,0.89c0.57,0.57,0.89,1.34,0.89,2.14v15.17H44.15
	c-1.61,0-3.15,0.64-4.29,1.78c-1.14,1.14-1.78,2.68-1.78,4.29v39.44c0,1.61,0.64,3.15,1.78,4.29c1.14,1.14,2.68,1.78,4.29,1.78H83.6
	L83.6,99.89z M98.77,81.68c0,0.8-0.32,1.58-0.89,2.14c-0.57,0.57-1.34,0.89-2.14,0.89H44.15c-0.8,0-1.58-0.32-2.14-0.89
	c-0.57-0.57-0.89-1.34-0.89-2.14V42.24c0-0.8,0.32-1.58,0.89-2.14c0.57-0.57,1.34-0.89,2.14-0.89h51.58c0.8,0,1.58,0.32,2.14,0.89
	c0.57,0.57,0.89,1.34,0.89,2.14V81.68z"/>
<path class="st0" d="M59.77,63.03c0.6,0.57,1.54,0.56,2.12-0.02c0.58-0.58,0.59-1.53,0.02-2.12l-6.51-6.51l6.51-6.51h0
	c0.57-0.6,0.56-1.54-0.02-2.12c-0.58-0.58-1.53-0.59-2.12-0.02l-7.59,7.59c-0.28,0.28-0.44,0.67-0.44,1.07s0.16,0.79,0.44,1.07
	L59.77,63.03z"/>
<path class="st0" d="M80.12,45.72c-0.6-0.57-1.54-0.56-2.12,0.02c-0.58,0.58-0.59,1.53-0.02,2.12l6.51,6.51l-6.51,6.51h0
	c-0.29,0.28-0.45,0.67-0.45,1.07c0,0.4,0.16,0.79,0.44,1.08c0.29,0.29,0.67,0.45,1.08,0.44c0.4,0,0.79-0.16,1.07-0.45l7.59-7.59
	c0.28-0.28,0.44-0.67,0.44-1.07s-0.16-0.79-0.44-1.07L80.12,45.72z"/>
<path class="st0" d="M75.09,42.36c-0.37-0.16-0.79-0.16-1.16-0.01c-0.37,0.15-0.67,0.44-0.83,0.81L64,64.4
	c-0.33,0.77,0.03,1.66,0.8,1.99c0.77,0.33,1.66-0.03,1.99-0.8l9.1-21.24c0.16-0.37,0.16-0.79,0.01-1.16
	C75.75,42.82,75.46,42.52,75.09,42.36L75.09,42.36z"/>
<path class="st0" d="M65.39,71.06H47.18c-0.84,0-1.52,0.68-1.52,1.52c0,0.84,0.68,1.52,1.52,1.52h18.21c0.83-0.01,1.5-0.69,1.5-1.52
	C66.89,71.75,66.22,71.08,65.39,71.06z"/>
<path class="st0" d="M59.32,77.13H47.18c-0.83,0.01-1.5,0.69-1.5,1.52s0.67,1.51,1.5,1.52h12.14c0.83-0.01,1.5-0.69,1.5-1.52
	S60.15,77.14,59.32,77.13z"/>
<linearGradient id="SVGID_1_" gradientUnits="userSpaceOnUse" x1="51.7357" y1="54.3765" x2="62.3342" y2="54.3765">
	<stop  offset="0" style="stop-color:#10BEF0"/>
	<stop  offset="1" style="stop-color:#10BEF0;stop-opacity:0"/>
</linearGradient>
<path class="st2" d="M59.77,63.03c0.6,0.57,1.54,0.56,2.12-0.02c0.58-0.58,0.59-1.53,0.02-2.12l-6.51-6.51l6.51-6.51h0
	c0.57-0.6,0.56-1.54-0.02-2.12c-0.58-0.58-1.53-0.59-2.12-0.02l-7.59,7.59c-0.28,0.28-0.44,0.67-0.44,1.07s0.16,0.79,0.44,1.07
	L59.77,63.03z"/>
<linearGradient id="SVGID_2_" gradientUnits="userSpaceOnUse" x1="77.5204" y1="54.3895" x2="88.1468" y2="54.3895">
	<stop  offset="0" style="stop-color:#10BEF0"/>
	<stop  offset="1" style="stop-color:#10BEF0;stop-opacity:0"/>
</linearGradient>
<path class="st3" d="M80.12,45.72c-0.6-0.57-1.54-0.56-2.12,0.02c-0.58,0.58-0.59,1.53-0.02,2.12l6.51,6.51l-6.51,6.51h0
	c-0.29,0.28-0.45,0.67-0.45,1.07c0,0.4,0.16,0.79,0.44,1.08c0.29,0.29,0.67,0.45,1.08,0.44c0.4,0,0.79-0.16,1.07-0.45l7.59-7.59
	c0.28-0.28,0.44-0.67,0.44-1.07s-0.16-0.79-0.44-1.07L80.12,45.72z"/>
<linearGradient id="SVGID_3_" gradientUnits="userSpaceOnUse" x1="63.8741" y1="54.3758" x2="76.0099" y2="54.3758">
	<stop  offset="0" style="stop-color:#10BEF0"/>
	<stop  offset="1" style="stop-color:#10BEF0;stop-opacity:0"/>
</linearGradient>
<path class="st5" d="M75.09,42.36c-0.37-0.16-0.79-0.16-1.16-0.01c-0.37,0.15-0.67,0.44-0.83,0.81L64,64.4
	c-0.33,0.77,0.03,1.66,0.8,1.99c0.77,0.33,1.66-0.03,1.99-0.8l9.1-21.24c0.16-0.37,0.16-0.79,0.01-1.16
	C75.75,42.82,75.46,42.52,75.09,42.36L75.09,42.36z"/>
<linearGradient id="SVGID_4_" gradientUnits="userSpaceOnUse" x1="45.6678" y1="72.5811" x2="66.8861" y2="72.5811">
	<stop  offset="0" style="stop-color:#10BEF0"/>
	<stop  offset="1" style="stop-color:#10BEF0;stop-opacity:0"/>
</linearGradient>
<path class="st6" d="M65.39,71.06H47.18c-0.84,0-1.52,0.68-1.52,1.52c0,0.84,0.68,1.52,1.52,1.52h18.21c0.83-0.01,1.5-0.69,1.5-1.52
	C66.89,71.75,66.22,71.08,65.39,71.06z"/>
<linearGradient id="SVGID_5_" gradientUnits="userSpaceOnUse" x1="45.6888" y1="78.6495" x2="60.8177" y2="78.6495">
	<stop  offset="0" style="stop-color:#10BEF0"/>
	<stop  offset="1" style="stop-color:#10BEF0;stop-opacity:0"/>
</linearGradient>
<path class="st7" d="M59.32,77.13H47.18c-0.83,0.01-1.5,0.69-1.5,1.52s0.67,1.51,1.5,1.52h12.14c0.83-0.01,1.5-0.69,1.5-1.52
	S60.15,77.14,59.32,77.13z"/>
<path class="st0" d="M53.25,99.89h12.14c0.83-0.01,1.5-0.69,1.5-1.52c0-0.83-0.67-1.51-1.5-1.52H53.25c-0.83,0.01-1.5,0.69-1.5,1.52
	C51.76,99.2,52.42,99.88,53.25,99.89z"/>
<linearGradient id="SVGID_6_" gradientUnits="userSpaceOnUse" x1="51.7572" y1="98.3717" x2="66.8861" y2="98.3717">
	<stop  offset="0" style="stop-color:#10BEF0"/>
	<stop  offset="1" style="stop-color:#10BEF0;stop-opacity:0"/>
</linearGradient>
<path class="st8" d="M53.25,99.89h12.14c0.83-0.01,1.5-0.69,1.5-1.52c0-0.83-0.67-1.51-1.5-1.52H53.25c-0.83,0.01-1.5,0.69-1.5,1.52
	C51.76,99.2,52.42,99.88,53.25,99.89z"/>
</svg>
