<svg id="Layer_1" data-name="Layer 1" xmlns="http://www.w3.org/2000/svg" xmlns:xlink="http://www.w3.org/1999/xlink" viewBox="0 0 128.51 124"><defs><style>.cls-1{fill:#002680;}.cls-2{opacity:0.65;}.cls-3{fill:url(#linear-gradient);}.cls-4{fill:#fff;}</style><linearGradient id="linear-gradient" x1="18.51" y1="61" x2="114.51" y2="61" gradientUnits="userSpaceOnUse"><stop offset="0" stop-color="#10bef0"/><stop offset="0.27" stop-color="#10bef0" stop-opacity="0.67"/><stop offset="0.53" stop-color="#10bef0" stop-opacity="0.39"/><stop offset="0.75" stop-color="#10bef0" stop-opacity="0.18"/><stop offset="0.91" stop-color="#10bef0" stop-opacity="0.05"/><stop offset="1" stop-color="#10bef0" stop-opacity="0"/></linearGradient></defs><circle class="cls-1" cx="66.51" cy="61" r="48"/><g class="cls-2"><circle class="cls-3" cx="66.51" cy="61" r="48"/></g><path class="cls-4" d="M81.12,68.78a1,1,0,0,0-1.34,0L75.5,73.35a.94.94,0,0,0,0,1.3l4.28,4.54a.93.93,0,0,0,.69.3,1,1,0,0,0,.65-.26,1,1,0,0,0,0-1.34L77.49,74l3.67-3.88a1,1,0,0,0,0-1.34Zm11.95,4.57-4.29-4.53a.95.95,0,1,0-1.38,1.3L91.07,74,87.4,77.88a1,1,0,0,0,.69,1.61.92.92,0,0,0,.69-.3l4.29-4.53a1,1,0,0,0,0-1.31Zm-7.48-4.74a1,1,0,0,0-1.15.69l-2.17,9A1,1,0,0,0,83,79.4a.91.91,0,0,0,.23,0,1,1,0,0,0,.92-.73l2.17-9a.94.94,0,0,0-.7-1.14Zm-1.31-7.85a13.35,13.35,0,0,0-2.11.18V49.15a1.58,1.58,0,0,0,1.58-1.58V43.42a1.59,1.59,0,0,0-1.58-1.59V35a4.75,4.75,0,0,0-4.75-4.75H52.24A4.75,4.75,0,0,0,47.5,35V87a4.75,4.75,0,0,0,4.74,4.75H77.42a4.74,4.74,0,0,0,4.74-4.68,12.47,12.47,0,0,0,2.12.19,13.25,13.25,0,1,0,0-26.49ZM80.27,87a2.86,2.86,0,0,1-2.85,2.85H52.24A2.86,2.86,0,0,1,49.39,87V40.65h26a1,1,0,1,0,0-1.9h-26V35a2.86,2.86,0,0,1,2.85-2.85H77.42A2.86,2.86,0,0,1,80.27,35V61.38a13.24,13.24,0,0,0,0,25.24Zm4-1.64A11.35,11.35,0,1,1,95.63,74,11.36,11.36,0,0,1,84.28,85.35ZM65.62,81.07a3.64,3.64,0,1,0,3.64,3.64,3.64,3.64,0,0,0-3.64-3.64Zm0,5.38a1.74,1.74,0,1,1,1.75-1.74A1.74,1.74,0,0,1,65.62,86.45Zm5.47-52.53a1.47,1.47,0,1,0,1.47,1.47A1.47,1.47,0,0,0,71.09,33.92Zm0,1.9a.43.43,0,0,1-.43-.43.44.44,0,1,1,.87,0A.44.44,0,0,1,71.09,35.82Z"/></svg>