<svg id="Layer_1" data-name="Layer 1" xmlns="http://www.w3.org/2000/svg" xmlns:xlink="http://www.w3.org/1999/xlink" viewBox="0 0 1080 1080"><defs><style>.cls-1{opacity:0.58;}.cls-2{fill:#e6e7e8;}.cls-3{fill:#143c83;}.cls-4{fill:url(#linear-gradient);}.cls-5{fill:#fff;}.cls-6{fill:#dee3fc;}.cls-10,.cls-11,.cls-12,.cls-13,.cls-14,.cls-15,.cls-16,.cls-27,.cls-48,.cls-49,.cls-50,.cls-7,.cls-8{fill:none;}.cls-7{stroke:#698bd1;}.cls-11,.cls-12,.cls-13,.cls-14,.cls-15,.cls-16,.cls-7,.cls-8{stroke-linecap:round;stroke-linejoin:round;}.cls-7,.cls-8{stroke-dasharray:2.84;}.cls-10,.cls-11,.cls-12,.cls-13,.cls-14,.cls-15,.cls-16,.cls-8{stroke:#143c83;}.cls-9{fill:#115db7;}.cls-10,.cls-27,.cls-48,.cls-49,.cls-50{stroke-miterlimit:10;}.cls-10{stroke-width:0.9px;stroke-dasharray:3.02 2.01;}.cls-11,.cls-12,.cls-13,.cls-14,.cls-15,.cls-16{stroke-width:1.67px;}.cls-12{stroke-dasharray:3.05 2.03;}.cls-13{stroke-dasharray:3.08 2.06;}.cls-14{stroke-dasharray:3.05 2.03;}.cls-15{stroke-dasharray:3.08 2.06;}.cls-16{stroke-dasharray:3.21 2.14;}.cls-17{fill:#f0f4ff;}.cls-18{fill:#e0e9fc;}.cls-19{fill:#0d3570;}.cls-20{fill:#21589b;}.cls-21{fill:#281616;}.cls-22{fill:#002c54;}.cls-23{fill:#052635;}.cls-24{fill:#e5918f;}.cls-25{fill:#467cdb;}.cls-26{fill:#cc6362;}.cls-27{stroke:#fff;stroke-width:0.5px;}.cls-28{opacity:0.5;}.cls-29{fill:url(#linear-gradient-2);}.cls-30{fill:url(#linear-gradient-3);}.cls-31{fill:url(#linear-gradient-4);}.cls-32{fill:#153587;}.cls-33{fill:#2557a0;}.cls-34{fill:url(#linear-gradient-5);}.cls-35{fill:url(#linear-gradient-6);}.cls-36{fill:url(#linear-gradient-7);}.cls-37{fill:url(#linear-gradient-8);}.cls-38{fill:url(#linear-gradient-9);}.cls-39{fill:url(#linear-gradient-10);}.cls-40{fill:url(#linear-gradient-11);}.cls-41{fill:url(#linear-gradient-12);}.cls-42{fill:url(#linear-gradient-13);}.cls-43{fill:url(#linear-gradient-14);}.cls-44{fill:url(#linear-gradient-15);}.cls-45{fill:url(#linear-gradient-16);}.cls-46{fill:url(#linear-gradient-17);}.cls-47{fill:url(#linear-gradient-18);}.cls-48,.cls-49,.cls-50{stroke-width:2px;}.cls-48{stroke:url(#linear-gradient-19);}.cls-49{stroke:url(#linear-gradient-20);}.cls-50{stroke:url(#linear-gradient-21);}</style><linearGradient id="linear-gradient" x1="522.84" y1="537.29" x2="730.7" y2="537.29" gradientUnits="userSpaceOnUse"><stop offset="0" stop-color="#089bcb"/><stop offset="1" stop-color="#143c83"/></linearGradient><linearGradient id="linear-gradient-2" x1="805.82" y1="650.54" x2="835.72" y2="650.54" gradientUnits="userSpaceOnUse"><stop offset="0.06" stop-color="#0b2f63"/><stop offset="0.26" stop-color="#0c3065"/><stop offset="0.36" stop-color="#0e336d"/><stop offset="0.43" stop-color="#11387a"/><stop offset="0.47" stop-color="#143c83"/><stop offset="0.48" stop-color="#134086"/><stop offset="0.49" stop-color="#124e90"/><stop offset="0.51" stop-color="#0f63a1"/><stop offset="0.52" stop-color="#0b82b8"/><stop offset="0.53" stop-color="#089bcb"/><stop offset="0.63" stop-color="#089bcb"/><stop offset="0.65" stop-color="#0d79ad"/><stop offset="0.69" stop-color="#144e86"/><stop offset="0.72" stop-color="#192c68"/><stop offset="0.76" stop-color="#1d1453"/><stop offset="0.79" stop-color="#1f0546"/><stop offset="0.81" stop-color="#200041"/><stop offset="1" stop-color="#0b2f63"/></linearGradient><linearGradient id="linear-gradient-3" x1="731.02" y1="623.78" x2="819.91" y2="623.78" xlink:href="#linear-gradient-2"/><linearGradient id="linear-gradient-4" x1="728.43" y1="623.78" x2="817.33" y2="623.78" xlink:href="#linear-gradient"/><linearGradient id="linear-gradient-5" x1="490.93" y1="805.08" x2="513.07" y2="805.08" gradientUnits="userSpaceOnUse"><stop offset="0" stop-color="#09005d"/><stop offset="1" stop-color="#1a0f91"/></linearGradient><linearGradient id="linear-gradient-6" x1="6272.51" y1="792.17" x2="6283.01" y2="792.17" gradientTransform="translate(-5779.37)" gradientUnits="userSpaceOnUse"><stop offset="0" stop-color="#febbba"/><stop offset="1" stop-color="#ff928e"/></linearGradient><linearGradient id="linear-gradient-7" x1="6288.44" y1="721.73" x2="6333.03" y2="659.24" gradientTransform="translate(-5779.37)" gradientUnits="userSpaceOnUse"><stop offset="0" stop-color="#020039"/><stop offset="1" stop-color="#090056"/></linearGradient><linearGradient id="linear-gradient-8" x1="6286.43" y1="804.87" x2="6249.92" y2="852.61" gradientTransform="translate(-5779.37)" xlink:href="#linear-gradient-5"/><linearGradient id="linear-gradient-9" x1="6264.93" y1="801.85" x2="6274.77" y2="801.85" xlink:href="#linear-gradient-6"/><linearGradient id="linear-gradient-10" x1="6241.92" y1="795.55" x2="6244.38" y2="711.99" xlink:href="#linear-gradient-7"/><linearGradient id="linear-gradient-11" x1="6295.02" y1="688.3" x2="6329.37" y2="688.3" xlink:href="#linear-gradient-6"/><linearGradient id="linear-gradient-12" x1="6262.24" y1="637.6" x2="6285.03" y2="637.6" xlink:href="#linear-gradient-6"/><linearGradient id="linear-gradient-13" x1="6246.7" y1="688.71" x2="6159.44" y2="840.33" xlink:href="#linear-gradient-6"/><linearGradient id="linear-gradient-14" x1="5858.52" y1="2592.62" x2="5830.03" y2="2630.31" gradientTransform="translate(-5812.7 -434.51) rotate(-14.47)" xlink:href="#linear-gradient-6"/><linearGradient id="linear-gradient-15" x1="5836.76" y1="2601.71" x2="5870.79" y2="2601.71" gradientTransform="translate(-5812.7 -434.51) rotate(-14.47)" xlink:href="#linear-gradient-5"/><linearGradient id="linear-gradient-16" x1="5816.79" y1="2622.47" x2="5839.64" y2="2599.03" gradientTransform="translate(-5812.7 -434.51) rotate(-14.47)" xlink:href="#linear-gradient-6"/><linearGradient id="linear-gradient-17" x1="-10119.01" y1="676.13" x2="-10163.69" y2="688.37" gradientTransform="matrix(-1, -0.05, -0.05, 1, -9594.66, -488.29)" xlink:href="#linear-gradient-5"/><linearGradient id="linear-gradient-18" x1="518.15" y1="676.45" x2="597.33" y2="676.45" xlink:href="#linear-gradient"/><linearGradient id="linear-gradient-19" x1="681.56" y1="439.65" x2="824.33" y2="439.65" xlink:href="#linear-gradient"/><linearGradient id="linear-gradient-20" x1="796.43" y1="438.84" x2="810.89" y2="438.84" xlink:href="#linear-gradient"/><linearGradient id="linear-gradient-21" x1="807.36" y1="444.97" x2="812.21" y2="444.97" xlink:href="#linear-gradient"/></defs><g id="Shadow--inject-214" class="cls-1"><ellipse id="path--inject-214" class="cls-2" cx="616.13" cy="750.43" rx="185.11" ry="27.02"/></g><rect class="cls-3" x="518.8" y="329.84" width="215.95" height="417.17" rx="21.35"/><rect class="cls-4" x="522.84" y="333.5" width="207.86" height="407.59" rx="18.7"/><path class="cls-5" d="M721.6,355.47v361.8a15.36,15.36,0,0,1-15.36,15.36H547.3a15.36,15.36,0,0,1-15.36-15.36V355.47a15.36,15.36,0,0,1,15.36-15.36h26.51a3.89,3.89,0,0,1,3.47,2.14l2.81,5.62a7.61,7.61,0,0,0,6.81,4.22h79.74a7.61,7.61,0,0,0,6.81-4.22l2.81-5.62a3.89,3.89,0,0,1,3.47-2.14h26.51A15.36,15.36,0,0,1,721.6,355.47Z"/><path class="cls-6" d="M660.23,345.52H596a2.7,2.7,0,0,1-2.7-2.71h0a2.7,2.7,0,0,1,2.7-2.7h64.22a2.71,2.71,0,0,1,2.71,2.7h0A2.71,2.71,0,0,1,660.23,345.52Z"/><rect class="cls-7" x="543.3" y="649.28" width="163.24" height="70.79" rx="8.38"/><rect class="cls-8" x="610.91" y="496.66" width="85.56" height="49.7" rx="6.04"/><rect class="cls-3" x="549.24" y="558.28" width="163.88" height="79.23" rx="7.2"/><path class="cls-9" d="M706.54,560.6v61.78a8.71,8.71,0,0,1-8.73,8.71H552a8.71,8.71,0,0,1-8.72-8.71V560.6a8.73,8.73,0,0,1,8.72-8.73H697.81A8.73,8.73,0,0,1,706.54,560.6Z"/><rect class="cls-5" x="550.84" y="569.91" width="54.74" height="54.74" rx="4.86"/><path class="cls-3" d="M650.6,576.84H612.77a1.86,1.86,0,0,1-1.86-1.86h0a1.87,1.87,0,0,1,1.86-1.87H650.6a1.87,1.87,0,0,1,1.86,1.87h0A1.87,1.87,0,0,1,650.6,576.84Z"/><path class="cls-3" d="M633.36,584.27H612.77a1.86,1.86,0,0,1-1.86-1.86h0a1.86,1.86,0,0,1,1.86-1.86h20.59a1.86,1.86,0,0,1,1.86,1.86h0A1.86,1.86,0,0,1,633.36,584.27Z"/><path class="cls-3" d="M696.65,584.27H640.93a1.86,1.86,0,0,1-1.86-1.86h0a1.86,1.86,0,0,1,1.86-1.86h55.72a1.86,1.86,0,0,1,1.86,1.86h0A1.86,1.86,0,0,1,696.65,584.27Z"/><path class="cls-3" d="M644.62,591.71H612.77a1.86,1.86,0,0,1-1.86-1.86h0a1.87,1.87,0,0,1,1.86-1.87h31.85a1.87,1.87,0,0,1,1.87,1.87h0A1.87,1.87,0,0,1,644.62,591.71Z"/><path class="cls-3" d="M671.66,591.71h-20a1.86,1.86,0,0,1-1.86-1.86h0a1.87,1.87,0,0,1,1.86-1.87h20a1.87,1.87,0,0,1,1.87,1.87h0A1.87,1.87,0,0,1,671.66,591.71Z"/><path class="cls-3" d="M696.65,591.71H678.21a1.87,1.87,0,0,1-1.87-1.86h0a1.87,1.87,0,0,1,1.87-1.87h18.44a1.87,1.87,0,0,1,1.86,1.87h0A1.86,1.86,0,0,1,696.65,591.71Z"/><path class="cls-3" d="M696.65,599.15H612.77a1.87,1.87,0,0,1-1.86-1.87h0a1.86,1.86,0,0,1,1.86-1.86h83.88a1.86,1.86,0,0,1,1.86,1.86h0A1.87,1.87,0,0,1,696.65,599.15Z"/><path class="cls-3" d="M658.93,606.58H612.77a1.86,1.86,0,0,1-1.86-1.86h0a1.86,1.86,0,0,1,1.86-1.86h46.16a1.86,1.86,0,0,1,1.86,1.86h0A1.86,1.86,0,0,1,658.93,606.58Z"/><path class="cls-3" d="M696.65,606.58H666.38a1.87,1.87,0,0,1-1.87-1.86h0a1.87,1.87,0,0,1,1.87-1.86h30.27a1.86,1.86,0,0,1,1.86,1.86h0A1.86,1.86,0,0,1,696.65,606.58Z"/><path class="cls-3" d="M639.89,614H612.77a1.86,1.86,0,0,1-1.86-1.86h0a1.87,1.87,0,0,1,1.86-1.87h27.12a1.87,1.87,0,0,1,1.86,1.87h0A1.86,1.86,0,0,1,639.89,614Z"/><path class="cls-3" d="M674.36,614H647.23a1.86,1.86,0,0,1-1.86-1.86h0a1.87,1.87,0,0,1,1.86-1.87h27.13a1.87,1.87,0,0,1,1.86,1.87h0A1.86,1.86,0,0,1,674.36,614Z"/><path class="cls-3" d="M696.65,614H680.91a1.86,1.86,0,0,1-1.86-1.86h0a1.87,1.87,0,0,1,1.86-1.87h15.74a1.87,1.87,0,0,1,1.86,1.87h0A1.86,1.86,0,0,1,696.65,614Z"/><path class="cls-3" d="M650.6,621.45H612.77a1.86,1.86,0,0,1-1.86-1.86h0a1.86,1.86,0,0,1,1.86-1.86H650.6a1.86,1.86,0,0,1,1.86,1.86h0A1.86,1.86,0,0,1,650.6,621.45Z"/><path class="cls-3" d="M696.65,576.84H658.82A1.86,1.86,0,0,1,657,575h0a1.87,1.87,0,0,1,1.86-1.87h37.83a1.87,1.87,0,0,1,1.86,1.87h0A1.86,1.86,0,0,1,696.65,576.84Z"/><path class="cls-3" d="M706.54,560.6v2.59H543.3V560.6a8.73,8.73,0,0,1,8.72-8.73H697.81A8.73,8.73,0,0,1,706.54,560.6Z"/><path class="cls-6" d="M675.77,557.74a2,2,0,1,1-2-2A2,2,0,0,1,675.77,557.74Z"/><path class="cls-6" d="M686.12,557.74a2,2,0,1,1-2-2A2,2,0,0,1,686.12,557.74Z"/><path class="cls-6" d="M696.46,557.74a2,2,0,1,1-2-2A2,2,0,0,1,696.46,557.74Z"/><rect class="cls-10" x="552.86" y="496.7" width="49.66" height="49.66" rx="7.15"/><line class="cls-11" x1="569.94" y1="514.35" x2="568.88" y2="515.41"/><line class="cls-12" x1="567.44" y1="516.85" x2="564.57" y2="519.72"/><polyline class="cls-11" points="563.85 520.44 562.79 521.5 563.85 522.56"/><line class="cls-13" x1="565.3" y1="524.02" x2="568.21" y2="526.93"/><line class="cls-11" x1="568.94" y1="527.65" x2="570" y2="528.71"/><line class="cls-11" x1="585.43" y1="514.35" x2="586.49" y2="515.41"/><line class="cls-14" x1="587.93" y1="516.85" x2="590.81" y2="519.72"/><polyline class="cls-11" points="591.53 520.44 592.59 521.5 591.53 522.56"/><line class="cls-15" x1="590.07" y1="524.02" x2="587.16" y2="526.93"/><line class="cls-11" x1="586.44" y1="527.65" x2="585.38" y2="528.71"/><line class="cls-11" x1="581.04" y1="514.35" x2="580.4" y2="515.71"/><line class="cls-16" x1="579.5" y1="517.65" x2="575.42" y2="526.38"/><line class="cls-11" x1="574.97" y1="527.35" x2="574.34" y2="528.71"/><path class="cls-3" d="M706.54,375.5v101a9.92,9.92,0,0,1-9.93,9.92H553.23a9.93,9.93,0,0,1-9.93-9.92v-101a9.93,9.93,0,0,1,9.93-9.93H696.61A9.92,9.92,0,0,1,706.54,375.5Z"/><circle class="cls-17" cx="673.48" cy="397.49" r="23.66"/><path class="cls-5" d="M639.25,486.44h-86a9.93,9.93,0,0,1-9.93-9.92v-15.9L581,395.41a5.11,5.11,0,0,1,8.85,0l28.43,49.23,21.11,36.56A5,5,0,0,1,639.25,486.44Z"/><path class="cls-18" d="M676.35,486.44H594.09l24.14-41.8,13-22.53a4.61,4.61,0,0,1,8,0Z"/><rect class="cls-19" x="776.1" y="674.16" width="63.42" height="95.31"/><rect class="cls-20" x="839.53" y="674.16" width="24.28" height="95.31" transform="translate(1703.34 1443.64) rotate(180)"/><rect class="cls-3" x="843" y="677.82" width="17.83" height="3.04"/><rect class="cls-3" x="843" y="684.36" width="17.83" height="3.04"/><rect class="cls-3" x="843" y="690.89" width="17.83" height="3.04"/><rect class="cls-3" x="843" y="697.43" width="17.83" height="3.04"/><rect class="cls-3" x="843" y="703.96" width="17.83" height="3.04"/><rect class="cls-3" x="843" y="710.5" width="17.83" height="3.04"/><rect class="cls-3" x="843" y="717.03" width="17.83" height="3.04"/><rect class="cls-3" x="843" y="723.57" width="17.83" height="3.04"/><rect class="cls-3" x="843" y="730.1" width="17.83" height="3.04"/><rect class="cls-3" x="843" y="736.63" width="17.83" height="3.04"/><rect class="cls-3" x="843" y="743.17" width="17.83" height="3.04"/><rect class="cls-3" x="843" y="749.7" width="17.83" height="3.04"/><rect class="cls-3" x="843" y="756.24" width="17.83" height="3.04"/><rect class="cls-3" x="843" y="762.77" width="17.83" height="3.04"/><path class="cls-21" d="M765.8,769.48H798s1.81-5.74-2.1-12.85c0,0-2.59,2.08-10.36.67a35,35,0,0,1-5.49,3.83C777.83,762.22,764.93,764.75,765.8,769.48Z"/><path class="cls-22" d="M768.05,678.59c2.08,12.42,11.69,54.45,15.82,79.27,7.55.65,11.17-.22,13.09-.66-.38-8.66-1.12-29.37-1-38.45.14-15.35.86-35.59-5.9-46.69l-22.71,1.78c.13,1.2.26,2.18.37,2.88S767.93,678,768.05,678.59Z"/><path class="cls-21" d="M707.5,769.48h32.23s1.81-5.74-2.1-12.85c0,0-2.59,2.08-10.36.67a35,35,0,0,1-5.49,3.83C719.53,762.22,706.63,764.75,707.5,769.48Z"/><path class="cls-23" d="M726.33,757.14a37.32,37.32,0,0,0,12.73,1.14c1.72-10,4.42-31.94,6.86-42.23,3.78-16,7.48-38,4.91-45.85l-22.35-5.61C728.41,665.29,726.59,732.63,726.33,757.14Z"/><path class="cls-23" d="M815.27,641.68h0c-.44-4.42-1-7.64-1-7.64l-25,6.11L768.13,645c-7.86,1.75-17.36,3.86-25.73,5.75-9.4,2.14-15.64,9.28-13.58,18.68l2.35,11.42c13.15-.18,74.94-6.11,80.22-8.77C817.36,669,819.16,658.38,815.27,641.68Z"/><path class="cls-22" d="M852.55,641.68h0a34.42,34.42,0,0,0-2.61-9.16l-23.33,7.63L805.4,645c-7.86,1.75-17.36,3.86-25.73,5.75-9.4,2.14-15.64,9.28-13.58,18.68l2.36,11.42c13.14-.18,68.07-2.1,80.22-8.77C854.53,668.83,856.43,658.38,852.55,641.68Z"/><path class="cls-24" d="M782.66,605.9s11.09-5,14.14,0c1.67,2.75.52,7.86-3.26,10s-25.16,11.19-45.33,16.23a48.67,48.67,0,0,0-2.25-5.76,105.76,105.76,0,0,0,18-10.07,114.66,114.66,0,0,1,18.66-10.41Z"/><path class="cls-24" d="M785.43,571.27l-9.5,38s1,9.59,10.67,4.88,16.12-35,16.12-35Z"/><path class="cls-25" d="M801.51,592.5c-1.17-.29-2.29-.6-3.38-.92s-2.16-.67-3.16-1a53.17,53.17,0,0,1-13.91-6.81c2.84-12.34,6.26-20.63,9.3-26.09.08-.14.16-.26.23-.41l.24-.41a23.91,23.91,0,0,1,6.61-6.88l.8-.55,1.12,19.82.19,2Z"/><path class="cls-25" d="M801.51,592.5c-1.17-.29-2.29-.6-3.38-.92s-2.16-.67-3.16-1c1.9-13.35,3.61-21.74,3.61-21.74l1,2.45Z"/><path class="cls-25" d="M857.62,558.22c-.23,5.87-1.26,15.29-2.15,24.76-.28,3-.55,6-.78,8.92-.16,1.81-2.9,11.48-3,13.21-.49,8.27-4.55,14.47-.71,27.07a19.81,19.81,0,0,1,1.15,5.81c0,.87-1.12,1.77-1.57,2-1.6.93-4.77,1.58-8.61,2h0a223.07,223.07,0,0,1-23.9,1.1c-8.27,0-20.66-1.32-22.23-3.4-1.43-1.9-.11-4.68.57-8.5,3-17.27,2-26.27,1.77-38.74,0-.31,0-.62,0-.94-.31-19.23-1.58-35.68-.69-41.62l.8-.55c1.31-.89,2.6-1.69,3.84-2.39l.38-.22c.38-.22.77-.42,1.14-.62A4.32,4.32,0,0,1,804,546a98.09,98.09,0,0,1,9.22-3.64l.8-.25c2.2-.14,4.59-.16,7.18-.1,2.24.07,5.67.37,9.41.85h0a98.71,98.71,0,0,1,12.49,2.34l.07,0a25.77,25.77,0,0,1,9.83,6.88A33.45,33.45,0,0,1,857.62,558.22Z"/><path class="cls-3" d="M851,632.18a19.81,19.81,0,0,1,1.15,5.81c0,.87-1.12,1.77-1.57,2-1.6.93-4.77,1.58-8.61,2,1.58-.19,4.31-2.7,4.31-5,0-1.59-2-12.29-1.48-19.2s1.69-17.87-.45-26.66-4.16-20.35-4.16-20.35l12,7.28s1.56,2.17,3.26,4.81c-.28,3-.55,6-.78,8.92C854.53,593.71,847.14,619.58,851,632.18Z"/><path class="cls-22" d="M798,507.41s1,12.6,5.22,13.45,3.15-4.51,3.15-4.51l-.58-6Z"/><path class="cls-24" d="M817.25,553.07c-8.18-1-5.12-8.92-4-10.75.3-.09,1.7-.52,1.81-.59h0a2.23,2.23,0,0,0,.63-1c.8-2.1.44-6.27.41-6.54v-.77c.13-.5.27-1,.38-1.42l4.3-3.38,9.1-7.16s-2.42,12-.48,19.51a2.82,2.82,0,0,0,1.21,1.81s0,0,0,0a2,2,0,0,0,.91.33C833.79,544.2,830.68,554.67,817.25,553.07Z"/><path class="cls-26" d="M824.46,529.11s-.08,8-8.74,11.65c.8-2.08.43-6.26.41-6.53l3.63-2.85Z"/><path class="cls-24" d="M800,509.21s1.89,26.14,8.94,28.36a18.34,18.34,0,0,0,15.45-7.84c1.86-2.5,4.22-3.06,5-6.09,1.25-4.9,3-14,.77-19.41C826.93,496.46,800.29,490.29,800,509.21Z"/><path class="cls-22" d="M830.23,499.91c-.11-4.75-4.92-6.52-4.92-6.52-4.78-2.24-14.73-1.27-25,1-2.4.54-5.42-.94-7.1.23-2,1.41,0,7.84,0,7.84,4,12,18.51,8.08,22.88,6.6,1,3.08.91,7.37,3.5,9.58,1.48,1.26,4,1.3,6.66.86.32.61,1.52,1.15,1.77,2,.82,2.8.7,7.18.68,10.55l1.23-.6C830.1,530.54,842.87,500.3,830.23,499.91Z"/><path class="cls-27" d="M807.23,518c.36,2.17-.71,4.16-2.4,4.45s-3.35-1.24-3.72-3.41.7-4.16,2.39-4.45S806.86,515.84,807.23,518Z"/><path class="cls-27" d="M815.75,516.42c.37,2.17-.7,4.16-2.39,4.45s-3.35-1.24-3.72-3.41.7-4.17,2.39-4.45S815.39,514.25,815.75,516.42Z"/><path class="cls-27" d="M807.23,518s.37-.61,2.33-.44"/><line class="cls-27" x1="815.83" y1="516.94" x2="823.12" y2="515.77"/><path class="cls-24" d="M823.66,525c5,1.92,6.58-10.44,1.82-11-3.62-.41-3.77,4.63-3.77,4.63S820.79,523.93,823.66,525Z"/><g class="cls-28"><path class="cls-26" d="M825.31,515.91a4.37,4.37,0,0,0-.93,1.41,4.75,4.75,0,0,0-.38,1.57,9.35,9.35,0,0,0,0,1.67l.23,1.73a7.45,7.45,0,0,1-.46-.77,8.71,8.71,0,0,1-.32-.85,4.94,4.94,0,0,1-.19-1.84,3.85,3.85,0,0,1,.6-1.78A2.75,2.75,0,0,1,825.31,515.91Z"/><path class="cls-26" d="M826.09,518.25a2.61,2.61,0,0,0-1.4.66,2.48,2.48,0,0,0-.69,1.28l-.69-.25a3.06,3.06,0,0,1,1.17-1.32A2.74,2.74,0,0,1,826.09,518.25Z"/></g><path class="cls-24" d="M871.93,610.9h0c-2.21,2.56-10.58,4.43-14.61.89-1.27-1.13-2.7-4.1-4.1-7.79a242.78,242.78,0,0,1-7-23.54L865,570.89s2.41,10.81,4.49,21.08c0,0,0,.11.06.29.67,3.29,1.3,6.53,1.8,9.31a.78.78,0,0,1,0,.22A39,39,0,0,1,871.93,610.9Z"/><path class="cls-25" d="M839.19,567.34c1.81,7.53,7.49,21.79,7.49,21.79a29.72,29.72,0,0,0,13.76-1.66,25.4,25.4,0,0,0,8.76-5.69s-3.77-10.61-7.16-18.22c-3-6.84-4.86-9.39-6.18-10.75a29.76,29.76,0,0,0-7.44-5.53Z"/><path class="cls-25" d="M862.88,572.26l-11-4.75-8.67-22.32s1.59.48,3.68,1.33h0l.28.11.16.07c1.87.87,9.12,5.14,14.14,20.66l.12.4c.53,1.78.92,3.22,1.13,4l.06.22C862.83,572.05,862.85,572.16,862.88,572.26Z"/><path class="cls-24" d="M871.93,610.9h0c-.17,1.37-.54,2.36-1.22,2.71l-1.76,1a93,93,0,0,1-11.61,6,420.67,420.67,0,0,1-40.56,14.57,48.19,48.19,0,0,0-2.48-5.66,105.67,105.67,0,0,0,17.6-10.81c8.75-6.67,21.32-14.77,21.32-14.77l3.17-3.74s11.29-10.39,13.1-8.3c0,0,0,.11.06.29.27,1.08,1.16,5.07,1.8,9.31a.78.78,0,0,1,0,.22A39,39,0,0,1,871.93,610.9Z"/><path class="cls-24" d="M815.59,629a6.93,6.93,0,0,1-4.45.85c-1.24-.26-1.75-.77-2.67-.93a20.27,20.27,0,0,1-4.58-1.06c-1.21-.59-1.68-.66-1.64.56s2.43,2.27,3.08,2.61a5.81,5.81,0,0,1,1.55,1.55c.09.14-4,2.27-5.08,1.84a3.12,3.12,0,0,0-.14,1.53c.19.54,1,.74,1.09,1s-.19.84,0,1.28.93.43,1.23,1.14,0,.73.19,1.47,1.17.87,1.35,1.25.08.83.48,1.09,4.06-.91,5.4-1.48,4.91-5.72,8.87-7.48Z"/><path class="cls-29" d="M834.33,651.93H805.82v-2.79h28.51a1.4,1.4,0,0,1,1.39,1.4h0A1.39,1.39,0,0,1,834.33,651.93Z"/><path class="cls-30" d="M818.9,651.93H747.53a1.91,1.91,0,0,1-1.84-1.39L731.08,598a1.83,1.83,0,0,1,1.76-2.31h69a3.59,3.59,0,0,1,3.45,2.62l14.55,52.4A1,1,0,0,1,818.9,651.93Z"/><path class="cls-31" d="M816.32,651.93H744.94a1.91,1.91,0,0,1-1.83-1.39L728.5,598a1.82,1.82,0,0,1,1.76-2.31h69a3.58,3.58,0,0,1,3.45,2.62l14.56,52.4A1,1,0,0,1,816.32,651.93Z"/><path class="cls-3" d="M422.82,553.12H487.2a7.48,7.48,0,0,1,7.47,7.47V575.8a7.47,7.47,0,0,1-6.53,7.41,1.08,1.08,0,0,0-.94,1.07v8.33a.5.5,0,0,1-.9.29l-6.56-9.17a1.07,1.07,0,0,0-.88-.46h-56a7.46,7.46,0,0,1-7.47-7.47V560.59A7.47,7.47,0,0,1,422.82,553.12Z"/><path class="cls-5" d="M477.32,568.17a2.46,2.46,0,1,0,2.46-2.46A2.46,2.46,0,0,0,477.32,568.17Z"/><path class="cls-5" d="M464.94,568.17a2.46,2.46,0,1,0,2.46-2.46A2.46,2.46,0,0,0,464.94,568.17Z"/><path class="cls-5" d="M452.55,568.17a2.46,2.46,0,1,0,2.46-2.46A2.46,2.46,0,0,0,452.55,568.17Z"/><path class="cls-5" d="M440.16,568.17a2.46,2.46,0,1,0,2.46-2.46A2.46,2.46,0,0,0,440.16,568.17Z"/><path class="cls-5" d="M427.78,568.17a2.46,2.46,0,1,0,2.46-2.46A2.46,2.46,0,0,0,427.78,568.17Z"/><rect class="cls-32" x="763.55" y="337.48" width="63.04" height="63.04" rx="10.08"/><rect class="cls-33" x="752.06" y="337.48" width="63.04" height="63.04" rx="10.08"/><path class="cls-5" d="M791.15,353a7.57,7.57,0,1,1-7.57-7.58A7.57,7.57,0,0,1,791.15,353Z"/><path class="cls-5" d="M799.37,378.59v11.18a1.83,1.83,0,0,1-1.83,1.83H769.62a1.83,1.83,0,0,1-1.83-1.83V378.59a15.79,15.79,0,0,1,15.79-15.79h0A15.79,15.79,0,0,1,799.37,378.59Z"/><rect class="cls-32" x="605" y="281.07" width="39.16" height="39.16" rx="5.63"/><rect class="cls-33" x="601.96" y="277.68" width="39.16" height="39.16" rx="4.51"/><path class="cls-5" d="M613.63,309a1.24,1.24,0,0,1-.33,0,1.22,1.22,0,0,1-.84-1.5l5.93-21a1.21,1.21,0,1,1,2.33.65l-5.92,21A1.21,1.21,0,0,1,613.63,309Z"/><path class="cls-5" d="M623.54,309a1.24,1.24,0,0,1-.33,0,1.21,1.21,0,0,1-.84-1.5l5.92-21a1.21,1.21,0,0,1,2.34.65l-5.93,21A1.2,1.2,0,0,1,623.54,309Z"/><path class="cls-5" d="M632,293.72h-21a1.22,1.22,0,0,1,0-2.43h21a1.22,1.22,0,0,1,0,2.43Z"/><path class="cls-5" d="M632,303.3h-21a1.22,1.22,0,0,1,0-2.43h21a1.22,1.22,0,0,1,0,2.43Z"/><rect class="cls-3" x="462.44" y="743.21" width="5.97" height="64.52"/><path class="cls-3" d="M439.29,809h52.26v-2.81a1.08,1.08,0,0,0-1.08-1.08h-50a1.16,1.16,0,0,0-1.16,1.16Z"/><rect class="cls-3" x="429.41" y="727.85" width="69.83" height="19.8" rx="6.82"/><path class="cls-34" d="M498.65,796.3s17,12.28,14.08,20.53c0,0-18.64-8-20.89-14.38s.38-9.13.38-9.13Z"/><path class="cls-35" d="M496.09,786l-2.78,8a2.8,2.8,0,0,0,1.08,3.29,7.46,7.46,0,0,0,2.31.89,3.25,3.25,0,0,0,3.6-1.64l3.34-6.27Z"/><path class="cls-36" d="M469,713.52s35,6.07,50,19.93-13.77,58.1-13.77,58.1-4.72,0-10.44-4.93c0,0,17.07-33.26,2.36-43-16.54-10.9-35.6-13.36-35.6-13.36l7.11-15.7Z"/><path class="cls-37" d="M509.77,812.27c-3.75-1.74-14.36-9.16-16.14-9.49s-4.89,1.77-4.89,1.77a4.82,4.82,0,0,0,.05,3.73c2.49,3,8,8.75,15.45,10.9,5.47,1.57,9.29.1,11.67-1.62A15.74,15.74,0,0,0,509.77,812.27Z"/><path class="cls-38" d="M485.56,799.31c0,1,2.15,4.58,3.38,6.56a3.24,3.24,0,0,0,2.73,1.53,8.44,8.44,0,0,0,2.25-.27,2.1,2.1,0,0,0,1.4-2.6l-2.41-8.23Z"/><path class="cls-39" d="M435.3,703s-7.78,20.78,0,27.1,26.31,13.43,30.45,26,11.17,37.05,20.57,45.71c0,0,6.61-.64,9.08-3.27,0,0-5.35-36.52-8.88-45.89-3.06-8.12-7.57-19.83-16.21-26.38-2.47-1.87-2-4.84-.9-7.72l2.09-5.25Z"/><path class="cls-25" d="M516.35,686.73c-13,.79-9-20-8.74-20.86l-19.77,14s1,11.13,17.49,17a20.42,20.42,0,0,0,11.32.82A18,18,0,0,1,516.35,686.73Z"/><path class="cls-40" d="M541.54,680.46c-4.85-3.37-10.35,0-10.35,0-6.5,4.25-11.3,6.06-14.84,6.27a18,18,0,0,0,.3,10.9c7.27-1.56,12.48-6.83,14.74-9.53a2.34,2.34,0,0,1,3.25-.35c1,.8,2,1.89,1.81,3-.35,2.27,2.29,3,2.48,2.17s-.9-5.7-.9-5.7,5.27,5.29,7.32,7.33,4.65,0,4.65,0S546.4,683.84,541.54,680.46Z"/><path class="cls-25" d="M455.59,633.72s19-7.59,54.24,21.54c0,0,2.94,6.1-.27,11.53s-33.85,31.88-38.06,46.55c0,0-18.25,5.93-37.12-8.13C434.38,705.21,436.05,664.38,455.59,633.72Z"/><path class="cls-41" d="M493.06,627l-9.33,11.31a3.72,3.72,0,0,0-.49,4c1.3,2.65,4.37,6.49,11.19,6a5.73,5.73,0,0,0,4.71-3.21l6.52-13.49Z"/><path class="cls-25" d="M440.91,682.17c-2.2-9,20.09-28.94,20.09-28.94l-5.41-19.51s-48.13,32-35.87,57.81a18.78,18.78,0,0,0,6.8,8C430.4,689.11,436.58,684.33,440.91,682.17Z"/><path class="cls-25" d="M440.9,680.87a.51.51,0,0,1-.51-.4c-2.26-9.17,19.33-28.64,20.25-29.46a.51.51,0,0,1,.74,0,.52.52,0,0,1,0,.74c-.22.2-22,19.87-19.93,28.43a.52.52,0,0,1-.39.63Z"/><path class="cls-42" d="M474.67,681.4s-26.42,10.26-32.88,2.54a4.34,4.34,0,0,1-.88-1.77c-4.33,2.16-10.51,6.94-14.39,17.37,13.9,8.89,37.66-4.94,44.09-9a4.76,4.76,0,0,1,3.55-.65c2.47.51,6.75,1.27,9.06.91,3.38-.52,8.23,11.39,13.71,7.72C496.93,698.51,492.24,677.8,474.67,681.4Z"/><path class="cls-43" d="M513.37,610.33c.09.36-2.19,25.09-2.19,25.09l-14.09-1.6-1.32-23.76S511.8,604.24,513.37,610.33Z"/><path class="cls-44" d="M499.44,615l-.28,12.57a1.51,1.51,0,0,0,0,.47c.25,1,1.33,4.18,4.56,2.87,2.93-1.19,5.63-2.23,7.61-1.86a1.76,1.76,0,0,1,1.42,1.89,75.94,75.94,0,0,1-1.93,11.62,1.75,1.75,0,0,1-2,1.26,56.6,56.6,0,0,1-12.66-3.63,1.77,1.77,0,0,1-1-1.48c-.21-3.14-.88-12.68-1.48-15.31-.57-2.47-3.8-3.63-5.19-4a1.71,1.71,0,0,1-1.06-.85c-.79-1.48-2-5,2.32-6.93a1.76,1.76,0,0,0,.86-2.38c-.88-1.79-1.47-4.6,1.85-6.54s6.23-.38,7.83,1a1.75,1.75,0,0,0,2.25,0,1.38,1.38,0,0,1,1.58-.12,1.73,1.73,0,0,0,2.35-1,5.25,5.25,0,0,1,5.72-3.68c6.28.38,7.73,7.13,6.54,11.31s-8,3.38-11.51,1.73c-2.69-1.25-5.79.71-7.12,1.73A1.72,1.72,0,0,0,499.44,615Z"/><path class="cls-45" d="M493.64,628s1.75-7.38-1-8.83-6.55-.12-5.14,4.92C489.22,630.33,493.64,628,493.64,628Z"/><path class="cls-46" d="M488.21,701.64h.13l55.45-.06a2.49,2.49,0,0,0,0-5l-55.45.07a2.48,2.48,0,0,0-.13,5Z"/><path class="cls-47" d="M593.64,651.29H547.46a8.8,8.8,0,0,0-8,5.05l-21.35,45.27h57.39a5.35,5.35,0,0,0,5-3.39l16.55-41.89A3.69,3.69,0,0,0,593.64,651.29Z"/><path class="cls-5" d="M561.11,674.5c-1,3.11-.26,6.13,1.65,6.75s4.27-1.41,5.27-4.52.27-6.13-1.65-6.74S562.11,671.39,561.11,674.5Z"/><path class="cls-3" d="M586.16,820.57a2.29,2.29,0,0,0,.91-.19,2.22,2.22,0,0,0,1.22-3l-48.87-110a2.36,2.36,0,0,0-3.06-1.18,2.24,2.24,0,0,0-1.22,3L584,819.2A2.33,2.33,0,0,0,586.16,820.57Z"/><path class="cls-3" d="M531.1,820.57a2.33,2.33,0,0,0,2.14-1.37l48.87-110a2.24,2.24,0,0,0-1.22-3,2.37,2.37,0,0,0-3.06,1.18L529,817.42a2.22,2.22,0,0,0,1.22,3A2.3,2.3,0,0,0,531.1,820.57Z"/><path class="cls-3" d="M434.88,820.57a2.3,2.3,0,0,0,.92-.19,2.22,2.22,0,0,0,1.22-3l-48.87-110a2.37,2.37,0,0,0-3.06-1.18,2.24,2.24,0,0,0-1.22,3l48.87,110A2.33,2.33,0,0,0,434.88,820.57Z"/><path class="cls-3" d="M379.83,820.57A2.33,2.33,0,0,0,382,819.2l48.87-110a2.24,2.24,0,0,0-1.22-3,2.37,2.37,0,0,0-3.06,1.18l-48.87,110a2.22,2.22,0,0,0,1.22,3A2.3,2.3,0,0,0,379.83,820.57Z"/><path class="cls-3" d="M374.09,704a2.71,2.71,0,0,1,.47-2,2.12,2.12,0,0,1,1.69-.89H598.58a2.48,2.48,0,0,1,2.13,1.31,3.11,3.11,0,0,1,.16,2.71l-2.4,5.84a3.39,3.39,0,0,1-3.07,2.19H377.78a2.64,2.64,0,0,1-2.51-2.32Z"/><circle class="cls-3" cx="550.19" cy="469.62" r="40.96"/><path class="cls-5" d="M513.49,467.45l9.34-4.87v2.07a.8.8,0,0,1-.12.43,1,1,0,0,1-.39.34L518,467.61a2.87,2.87,0,0,1-.57.24c-.2.07-.42.13-.65.19a5.56,5.56,0,0,1,.65.18,4.87,4.87,0,0,1,.57.24l4.28,2.21a.93.93,0,0,1,.39.33.83.83,0,0,1,.12.44v2.07l-9.34-4.88Z"/><path class="cls-5" d="M527.09,476V458.46H530v6.73a6.14,6.14,0,0,1,1.56-1.08,5,5,0,0,1,3.75-.08,3.49,3.49,0,0,1,1.28,1,4.21,4.21,0,0,1,.78,1.45,6.06,6.06,0,0,1,.26,1.86V476h-2.91v-7.7a2.6,2.6,0,0,0-.51-1.72,1.89,1.89,0,0,0-1.54-.61,3.13,3.13,0,0,0-1.42.34,4.94,4.94,0,0,0-1.25.94V476Z"/><path class="cls-5" d="M544.48,476.18a3.2,3.2,0,0,1-2.42-.89,3.42,3.42,0,0,1-.85-2.46v-6.76H540a.55.55,0,0,1-.4-.16.56.56,0,0,1-.18-.46V464.3l2-.32.61-3.3a.66.66,0,0,1,.22-.37.69.69,0,0,1,.43-.13h1.51V464h3.19v2.08h-3.19v6.56a1.28,1.28,0,0,0,.29.88,1,1,0,0,0,.75.32,1.56,1.56,0,0,0,.46-.06l.31-.14a2.8,2.8,0,0,0,.25-.14.42.42,0,0,1,.21-.06.33.33,0,0,1,.21.06,1.24,1.24,0,0,1,.18.2l.87,1.41a4.26,4.26,0,0,1-1.46.81A5.46,5.46,0,0,1,544.48,476.18Z"/><path class="cls-5" d="M549.63,476V463.88h1.78a.72.72,0,0,1,.75.54l.19.89a8.08,8.08,0,0,1,.66-.65,4.26,4.26,0,0,1,.75-.5,3.36,3.36,0,0,1,.85-.34,3.84,3.84,0,0,1,1-.12,2.77,2.77,0,0,1,1.88.62,3.71,3.71,0,0,1,1.11,1.64,3.82,3.82,0,0,1,.7-1,3.9,3.9,0,0,1,.94-.7,4,4,0,0,1,1.08-.4,5.32,5.32,0,0,1,2.93.17,3.57,3.57,0,0,1,1.31.9,4,4,0,0,1,.81,1.44,6.43,6.43,0,0,1,.27,2V476h-2.91v-7.7a2.55,2.55,0,0,0-.51-1.74,1.86,1.86,0,0,0-1.48-.59,2.32,2.32,0,0,0-.84.15,2,2,0,0,0-1.12,1.17,2.85,2.85,0,0,0-.17,1V476h-2.92v-7.7a2.67,2.67,0,0,0-.49-1.77,1.84,1.84,0,0,0-1.45-.56,2.38,2.38,0,0,0-1.17.31,3.89,3.89,0,0,0-1,.86V476Z"/><path class="cls-5" d="M572.6,458.46V476h-2.91V458.46Z"/><path class="cls-5" d="M577,473.51v-2.07a.83.83,0,0,1,.12-.44.87.87,0,0,1,.39-.33l4.28-2.21A5.7,5.7,0,0,1,583,468c-.22-.06-.44-.12-.64-.19a2.87,2.87,0,0,1-.57-.24l-4.28-2.19a1,1,0,0,1-.39-.34.8.8,0,0,1-.12-.43v-2.07l9.34,4.87v1.18Z"/><circle class="cls-3" cx="709.09" cy="522.5" r="30.26"/><path class="cls-5" d="M690.71,528.09l-6.52-4v-1.45l6.52-4v2.09l-4.51,2.65,4.51,2.68Z"/><path class="cls-5" d="M702.07,518.5a1.88,1.88,0,0,0-1.7,1.27,8.08,8.08,0,0,0-.63,3.53q0,4.69,2.45,4.7a4.52,4.52,0,0,0,2.25-.68v2.24a4.55,4.55,0,0,1-2.53.65,4,4,0,0,1-3.52-1.82,9.12,9.12,0,0,1-1.22-5.11,9,9,0,0,1,1.26-5.14,4,4,0,0,1,3.51-1.84,5.2,5.2,0,0,1,1.43.2,6.21,6.21,0,0,1,1.45.71l-.83,2a6.48,6.48,0,0,0-.89-.52A2.23,2.23,0,0,0,702.07,518.5Z"/><path class="cls-5" d="M712.53,526.3a4,4,0,0,1-1,2.9,3.61,3.61,0,0,1-2.77,1,6,6,0,0,1-3-.69V527a5.2,5.2,0,0,0,2.78,1,1.39,1.39,0,0,0,1.09-.4,1.55,1.55,0,0,0,.37-1.08,2,2,0,0,0-.44-1.24,6.48,6.48,0,0,0-1.43-1.24,6.31,6.31,0,0,1-1.32-1.16,4.27,4.27,0,0,1-.7-1.23,4.83,4.83,0,0,1-.24-1.59,3.85,3.85,0,0,1,1-2.76,3.42,3.42,0,0,1,2.6-1,5.69,5.69,0,0,1,3,.87l-.83,2a8.1,8.1,0,0,0-.93-.47,2.79,2.79,0,0,0-1-.2,1.14,1.14,0,0,0-.94.4,1.7,1.7,0,0,0-.33,1.1,1.89,1.89,0,0,0,.39,1.19,5.65,5.65,0,0,0,1.38,1.16,5.68,5.68,0,0,1,1.84,1.82A4.18,4.18,0,0,1,712.53,526.3Z"/><path class="cls-5" d="M720.36,526.3a4,4,0,0,1-1,2.9,3.6,3.6,0,0,1-2.76,1,6.09,6.09,0,0,1-3-.69V527a5.2,5.2,0,0,0,2.78,1,1.38,1.38,0,0,0,1.09-.4,1.51,1.51,0,0,0,.37-1.08,2,2,0,0,0-.44-1.24,6.48,6.48,0,0,0-1.43-1.24,6.31,6.31,0,0,1-1.32-1.16,4.27,4.27,0,0,1-.7-1.23,4.83,4.83,0,0,1-.24-1.59,3.81,3.81,0,0,1,1-2.76,3.4,3.4,0,0,1,2.59-1,5.66,5.66,0,0,1,3,.87l-.83,2a8.1,8.1,0,0,0-.93-.47,2.75,2.75,0,0,0-1-.2,1.14,1.14,0,0,0-.94.4,1.7,1.7,0,0,0-.33,1.1,1.89,1.89,0,0,0,.39,1.19,5.86,5.86,0,0,0,1.38,1.16,5.73,5.73,0,0,1,1.85,1.82A4.28,4.28,0,0,1,720.36,526.3Z"/><path class="cls-5" d="M726.5,526l4.53-2.68-4.53-2.65v-2.09l6.52,4v1.45l-6.52,4Z"/><path class="cls-48" d="M811.61,451.36H694.27a11.71,11.71,0,0,1-11.71-11.71h0a11.72,11.72,0,0,1,11.71-11.72H811.61a11.72,11.72,0,0,1,11.72,11.72h0A11.72,11.72,0,0,1,811.61,451.36Z"/><path class="cls-49" d="M809.89,438.84a6.23,6.23,0,1,1-6.23-6.23A6.23,6.23,0,0,1,809.89,438.84Z"/><line class="cls-50" x1="808.07" y1="443.25" x2="811.51" y2="446.69"/></svg>