<svg id="Layer_1" data-name="Layer 1" xmlns="http://www.w3.org/2000/svg" xmlns:xlink="http://www.w3.org/1999/xlink" viewBox="0 0 24 24"><defs><style>.cls-1{fill:url(#linear-gradient);}.cls-2{fill:url(#linear-gradient-2);}</style><linearGradient id="linear-gradient" x1="1" y1="12.21" x2="22.57" y2="12.21" gradientUnits="userSpaceOnUse"><stop offset="0" stop-color="#283376"/><stop offset="1" stop-color="#1c67a6"/></linearGradient><linearGradient id="linear-gradient-2" x1="7.59" y1="14.85" x2="21.43" y2="14.85" xlink:href="#linear-gradient"/></defs><path class="cls-1" d="M1,11a.89.89,0,0,1,1-.55c.65,0,1.3,0,2,0a1,1,0,0,0,1-.62,8,8,0,0,0,.34-.8A1,1,0,0,0,5,7.85L3.51,6.39a.73.73,0,0,1,0-1.15L4.8,4A.73.73,0,0,1,6,4L7.45,5.42a1,1,0,0,0,1.21.24c.26-.1.52-.2.78-.32a1,1,0,0,0,.61-1V2.23a.73.73,0,0,1,.8-.8h1.88a.72.72,0,0,1,.79.78c0,.7,0,1.4,0,2.1a1.06,1.06,0,0,0,.73,1.08c1.33.56,1.35.56,2.38-.47l1-1a.73.73,0,0,1,1.15,0l1.31,1.32a.73.73,0,0,1,0,1.13L18.61,7.84a1.05,1.05,0,0,0-.24,1.28l.3.69a1,1,0,0,0,1,.67h2.09a.73.73,0,0,1,.81.79v1.89a.73.73,0,0,1-.81.79h-2a1,1,0,0,0-1.11.76l-.22.49c-.35-.35-.69-.68-1-1-.05-.06,0-.2,0-.3a5.78,5.78,0,0,0-.81-4.94,5.88,5.88,0,1,0-5.77,9.14,5.58,5.58,0,0,0,2.6-.18.34.34,0,0,1,.39.1l.94.92-.53.22a1.06,1.06,0,0,0-.73,1.08c0,.61,0,1.22,0,1.83A.89.89,0,0,1,13,23H10.59A.89.89,0,0,1,10,22c0-.62,0-1.24,0-1.86a1.06,1.06,0,0,0-.7-1l-.69-.28a1.06,1.06,0,0,0-1.33.26c-.46.45-.9.91-1.36,1.36a.74.74,0,0,1-1.17,0L3.53,19.22a.75.75,0,0,1,0-1.22l1.39-1.39a1.07,1.07,0,0,0,.24-1.24c-.09-.24-.19-.48-.29-.72a1.05,1.05,0,0,0-1-.7c-.65,0-1.3,0-1.95,0A.89.89,0,0,1,1,13.41Z"/><path class="cls-2" d="M10.88,8.2a3.86,3.86,0,0,1,3.33.44,4.21,4.21,0,0,1,1.84,5,.94.94,0,0,0,.28,1.09c1.53,1.45,3,2.92,4.55,4.39a1.4,1.4,0,0,1,.51,1.39,1.45,1.45,0,0,1-2.49.73Q16.59,19,14.31,16.75a1,1,0,0,0-1.13-.27A4.31,4.31,0,0,1,7.61,13a9.79,9.79,0,0,1,0-1.43.34.34,0,0,1,.15-.22s.15.06.21.12c.47.49.92,1,1.41,1.46a2.19,2.19,0,0,0,3.72-1.12,2,2,0,0,0-.59-1.89c-.46-.49-.94-1-1.42-1.42Zm9.61,11.92a.68.68,0,0,0-.67-.69.69.69,0,0,0-.69.68.66.66,0,0,0,.68.68A.65.65,0,0,0,20.49,20.12Z"/></svg>