<?xml version="1.0" encoding="utf-8"?>
<!-- Generator: Adobe Illustrator 25.2.1, SVG Export Plug-In . SVG Version: 6.00 Build 0)  -->
<svg version="1.1" id="Layer_1" xmlns="http://www.w3.org/2000/svg" xmlns:xlink="http://www.w3.org/1999/xlink" x="0px" y="0px"
	 viewBox="0 0 24 24" style="enable-background:new 0 0 24 24;" xml:space="preserve">
<style type="text/css">
	.st0{fill:#002680;}
	.st1{opacity:0.65;}
	.st2{fill:url(#SVGID_1_);}
	.st3{fill:url(#SVGID_2_);}
	.st4{fill:url(#SVGID_3_);}
	.st5{fill:url(#SVGID_4_);}
	.st6{fill:url(#SVGID_5_);}
	.st7{fill:url(#SVGID_6_);}
	.st8{fill:url(#SVGID_7_);}
	.st9{fill:url(#SVGID_8_);}
	.st10{fill:url(#SVGID_9_);}
	.st11{fill:url(#SVGID_10_);}
	.st12{fill:url(#SVGID_11_);}
	.st13{fill:url(#SVGID_12_);}
	.st14{fill:url(#SVGID_13_);}
	.st15{fill:url(#SVGID_14_);}
	.st16{fill:url(#SVGID_15_);}
	.st17{fill:url(#SVGID_16_);}
	.st18{fill:url(#SVGID_17_);}
	.st19{fill:url(#SVGID_18_);}
	.st20{fill:url(#SVGID_19_);}
	.st21{fill:url(#SVGID_20_);}
	.st22{fill:url(#SVGID_21_);}
	.st23{fill:url(#SVGID_22_);}
	.st24{fill:url(#SVGID_23_);}
	.st25{fill:url(#SVGID_24_);}
	.st26{fill:url(#SVGID_25_);}
	.st27{fill:url(#SVGID_26_);}
	.st28{fill:url(#SVGID_27_);}
	.st29{fill:#FFFFFF;}
	.st30{fill:url(#SVGID_28_);}
	.st31{fill:url(#SVGID_29_);}
	.st32{fill:url(#SVGID_30_);}
	.st33{fill:url(#SVGID_31_);}
	.st34{fill:url(#SVGID_32_);}
	.st35{fill:url(#SVGID_33_);}
	.st36{fill:url(#SVGID_34_);}
	.st37{fill:url(#SVGID_35_);}
	.st38{fill:url(#SVGID_36_);}
	.st39{fill:url(#SVGID_37_);}
	.st40{fill:url(#SVGID_38_);}
	.st41{fill:url(#SVGID_39_);}
	.st42{fill:url(#SVGID_40_);}
	.st43{fill:url(#SVGID_41_);}
	.st44{fill:url(#SVGID_42_);}
	.st45{fill:url(#SVGID_43_);}
	.st46{fill:url(#SVGID_44_);}
	.st47{fill:url(#SVGID_45_);}
	.st48{fill:url(#SVGID_46_);}
	.st49{fill:url(#SVGID_47_);}
	.st50{fill:url(#SVGID_48_);}
	.st51{fill:url(#SVGID_49_);}
	.st52{fill:url(#SVGID_50_);}
	.st53{fill:url(#SVGID_51_);}
	.st54{fill:url(#SVGID_52_);}
	.st55{fill:url(#SVGID_53_);}
	.st56{fill:url(#SVGID_54_);}
	.st57{fill:url(#SVGID_55_);}
	.st58{fill:url(#SVGID_56_);}
	.st59{fill:url(#SVGID_57_);}
	.st60{fill:url(#SVGID_58_);}
	.st61{fill:url(#SVGID_59_);}
	.st62{fill:url(#SVGID_60_);}
	.st63{fill:url(#SVGID_61_);}
	.st64{fill:url(#SVGID_62_);}
	.st65{fill:url(#SVGID_63_);}
	.st66{fill:url(#SVGID_64_);}
	.st67{fill:url(#SVGID_65_);}
	.st68{fill:url(#SVGID_66_);}
	.st69{fill:url(#SVGID_67_);}
	.st70{fill:url(#SVGID_68_);}
	.st71{fill:url(#SVGID_69_);}
	.st72{fill:url(#SVGID_70_);}
	.st73{fill:url(#SVGID_71_);}
	.st74{fill:url(#SVGID_72_);}
	.st75{fill:url(#SVGID_73_);}
	.st76{fill:url(#SVGID_74_);}
	.st77{fill:url(#SVGID_75_);}
	.st78{fill:url(#SVGID_76_);}
	.st79{fill:url(#SVGID_77_);}
	.st80{fill:url(#SVGID_78_);}
	.st81{fill:url(#SVGID_79_);}
	.st82{fill:url(#SVGID_80_);}
	.st83{fill:url(#SVGID_81_);}
	.st84{fill:url(#SVGID_82_);}
	.st85{fill:url(#SVGID_83_);}
	.st86{fill:url(#SVGID_84_);}
	.st87{fill:url(#SVGID_85_);}
	.st88{fill:url(#SVGID_86_);}
	.st89{fill:url(#SVGID_87_);}
	.st90{fill:url(#SVGID_88_);}
	.st91{fill:url(#SVGID_89_);}
	.st92{fill:url(#SVGID_90_);}
	.st93{fill:url(#SVGID_91_);}
	.st94{fill:url(#SVGID_92_);}
	.st95{fill:url(#SVGID_93_);}
	.st96{fill:url(#SVGID_94_);}
	.st97{fill:url(#SVGID_95_);}
	.st98{fill:url(#SVGID_96_);}
	.st99{fill:url(#SVGID_97_);}
	.st100{fill:url(#SVGID_98_);}
	.st101{fill:url(#SVGID_99_);}
	.st102{fill:url(#SVGID_100_);}
	.st103{fill:url(#SVGID_101_);}
	.st104{fill:url(#SVGID_102_);}
	.st105{fill:url(#SVGID_103_);}
	.st106{fill:url(#SVGID_104_);}
	.st107{fill:url(#SVGID_105_);}
	.st108{fill:url(#SVGID_106_);}
	.st109{fill:url(#SVGID_107_);}
	.st110{fill:url(#SVGID_108_);}
	.st111{fill:url(#SVGID_109_);}
	.st112{fill:url(#SVGID_110_);}
	.st113{fill:url(#SVGID_111_);}
	.st114{fill:url(#SVGID_112_);}
	.st115{fill:url(#SVGID_113_);}
	.st116{fill:url(#SVGID_114_);}
	.st117{fill:url(#SVGID_115_);}
	.st118{fill:url(#SVGID_116_);}
	.st119{fill:url(#SVGID_117_);}
	.st120{fill:url(#SVGID_118_);}
	.st121{fill:url(#SVGID_119_);}
	.st122{fill:url(#SVGID_120_);}
	.st123{fill:url(#SVGID_121_);}
	.st124{fill:url(#SVGID_122_);}
	.st125{fill:url(#SVGID_123_);}
	.st126{fill:url(#SVGID_124_);}
	.st127{fill:url(#SVGID_125_);}
	.st128{fill:url(#SVGID_126_);}
	.st129{fill:url(#SVGID_127_);}
	.st130{fill:url(#SVGID_128_);}
	.st131{fill:url(#SVGID_129_);}
	.st132{fill:url(#SVGID_130_);}
	.st133{fill:url(#SVGID_131_);}
	.st134{fill:url(#SVGID_132_);}
	.st135{fill:url(#SVGID_133_);}
	.st136{fill:url(#SVGID_134_);}
	.st137{fill:url(#SVGID_135_);}
	.st138{fill:url(#SVGID_136_);}
	.st139{fill:url(#SVGID_137_);}
	.st140{fill:url(#SVGID_138_);}
	.st141{fill:url(#SVGID_139_);}
	.st142{fill:url(#SVGID_140_);}
	.st143{fill:url(#SVGID_141_);}
	.st144{fill:url(#SVGID_142_);}
	.st145{fill:url(#SVGID_143_);}
	.st146{fill:url(#SVGID_144_);}
	.st147{fill:url(#SVGID_145_);}
	.st148{fill:url(#SVGID_146_);}
	.st149{fill:url(#SVGID_147_);}
	.st150{fill:url(#SVGID_148_);}
	.st151{fill:url(#SVGID_149_);}
	.st152{fill:url(#SVGID_150_);}
	.st153{fill:url(#SVGID_151_);}
	.st154{fill:url(#SVGID_152_);}
	.st155{fill:url(#SVGID_153_);}
	.st156{fill:url(#SVGID_154_);}
	.st157{fill:url(#SVGID_155_);}
	.st158{fill:url(#SVGID_156_);}
	.st159{fill:url(#SVGID_157_);}
	.st160{fill:url(#SVGID_158_);}
	.st161{fill:url(#SVGID_159_);}
	.st162{fill:url(#SVGID_160_);}
	.st163{fill:url(#SVGID_161_);}
	.st164{fill:url(#SVGID_162_);}
	.st165{fill:url(#SVGID_163_);}
	.st166{fill:url(#SVGID_164_);}
	.st167{fill:url(#SVGID_165_);}
	.st168{fill:url(#SVGID_166_);}
	.st169{fill:url(#SVGID_167_);}
	.st170{fill:url(#SVGID_168_);}
	.st171{fill:url(#SVGID_169_);}
	.st172{fill:url(#SVGID_170_);}
	.st173{fill:url(#SVGID_171_);}
	.st174{fill:url(#SVGID_172_);}
	.st175{fill:url(#SVGID_173_);}
	.st176{fill:url(#SVGID_174_);}
	.st177{fill:url(#SVGID_175_);}
	.st178{fill:url(#SVGID_176_);}
	.st179{fill:url(#SVGID_177_);}
	.st180{fill:url(#SVGID_178_);}
	.st181{fill:url(#SVGID_179_);}
	.st182{fill:url(#SVGID_180_);}
	.st183{fill:url(#SVGID_181_);}
	.st184{fill:url(#SVGID_182_);}
	.st185{fill:url(#SVGID_183_);}
	.st186{fill:url(#SVGID_184_);}
	.st187{fill:url(#SVGID_185_);}
	.st188{fill:url(#SVGID_186_);}
	.st189{fill:url(#SVGID_187_);}
	.st190{fill:url(#SVGID_188_);}
	.st191{fill:url(#SVGID_189_);}
</style>
<path class="st0" d="M21.51,11.87h-5.73l0.8-0.77c0.34,0.21,0.76,0.24,1.13,0.08c0.37-0.16,0.63-0.49,0.71-0.88
	c0.08-0.39-0.04-0.8-0.31-1.09c-0.28-0.29-0.68-0.43-1.07-0.37c-0.4,0.06-0.74,0.31-0.91,0.67c-0.18,0.36-0.17,0.78,0.02,1.13
	l-0.9,0.87v0c-0.14-0.66-0.47-1.26-0.96-1.73V6.81H16v1.22c0,0.08,0.03,0.16,0.09,0.22c0.06,0.06,0.14,0.09,0.22,0.09h2.41
	c0.1,0.38,0.38,0.69,0.75,0.82c0.37,0.13,0.78,0.08,1.1-0.15c0.32-0.23,0.51-0.59,0.51-0.99c0-0.39-0.19-0.76-0.51-0.99
	c-0.32-0.23-0.73-0.28-1.1-0.15c-0.37,0.13-0.65,0.44-0.75,0.82h-2.1V5.28h2.1c0.1,0.38,0.38,0.69,0.75,0.82
	c0.37,0.13,0.78,0.08,1.1-0.15c0.32-0.23,0.51-0.59,0.51-0.99s-0.19-0.76-0.51-0.99c-0.32-0.23-0.73-0.28-1.1-0.15
	c-0.37,0.13-0.65,0.44-0.75,0.82h-2.41C16.14,4.65,16,4.79,16,4.97v1.22h-2.03c-0.17,0-0.31,0.14-0.31,0.31v2.83
	c-0.41-0.25-0.87-0.4-1.35-0.45V4.44c0.38-0.1,0.69-0.38,0.82-0.75c0.13-0.37,0.08-0.78-0.15-1.1C12.76,2.26,12.39,2.07,12,2.07
	s-0.76,0.19-0.99,0.51c-0.23,0.32-0.28,0.73-0.15,1.1c0.13,0.37,0.44,0.65,0.82,0.75v4.43c-0.48,0.04-0.94,0.19-1.35,0.43V6.48
	c0-0.08-0.03-0.16-0.09-0.22c-0.06-0.06-0.14-0.09-0.22-0.09H8v-1.2C8,4.88,7.96,4.8,7.9,4.74C7.85,4.68,7.77,4.65,7.68,4.65H5.27
	c-0.1-0.38-0.38-0.69-0.75-0.82C4.14,3.7,3.73,3.75,3.41,3.98C3.09,4.2,2.9,4.57,2.9,4.97c0,0.39,0.19,0.76,0.51,0.99
	c0.32,0.23,0.73,0.28,1.1,0.15c0.37-0.13,0.65-0.44,0.75-0.82h2.1v2.43h-2.1c-0.1-0.38-0.38-0.69-0.75-0.82
	c-0.37-0.13-0.78-0.08-1.1,0.15C3.09,7.27,2.9,7.63,2.9,8.03s0.19,0.76,0.51,0.99c0.32,0.23,0.73,0.28,1.1,0.15
	c0.37-0.13,0.65-0.44,0.75-0.82h2.41c0.08,0,0.16-0.03,0.22-0.09C7.96,8.19,8,8.11,8,8.03V6.81h1.71v2.97
	c-0.49,0.46-0.83,1.07-0.96,1.73l-0.9-0.87v0C7.94,10.46,8,10.26,8,10.06c0-0.36-0.16-0.7-0.44-0.93C7.28,8.9,6.92,8.81,6.56,8.87
	C6.21,8.94,5.9,9.16,5.73,9.47c-0.18,0.31-0.2,0.69-0.08,1.03c0.13,0.34,0.4,0.6,0.74,0.71c0.34,0.12,0.71,0.08,1.02-0.11l0.82,0.77
	H2.49c-0.17,0-0.31,0.14-0.31,0.31v0.4c0,0.12,0,0.24,0.02,0.35v0.12c0,0.08,0.02,0.16,0.03,0.24v0.03v0.02v0.12
	c0,0.09,0.03,0.19,0.04,0.28v0.06v0.02c0.08,0.49,0.21,0.98,0.37,1.45v0.05c0.78,2.26,2.36,4.16,4.44,5.34l0.03,0.02l0.08,0.04
	c0.14,0.08,0.28,0.15,0.42,0.22l0.06,0.03c0.17,0.08,0.35,0.16,0.53,0.23l0.12,0.04c0.15,0.06,0.31,0.12,0.46,0.17l0.09,0.03v0
	c0.38,0.13,0.78,0.23,1.17,0.31h0.04c0.18,0.03,0.35,0.06,0.53,0.09h0.13c0.15,0.02,0.31,0.03,0.46,0.04h0.15
	c0.19,0,0.39,0.02,0.58,0.02c0.2,0,0.42,0,0.63-0.02h0.16c0.18,0,0.35-0.03,0.53-0.06h0.11c0.21-0.03,0.42-0.07,0.63-0.11l0.11-0.03
	c0.18-0.04,0.35-0.08,0.52-0.13l0.13-0.04c0.21-0.06,0.41-0.12,0.59-0.2l0.08-0.03c0.17-0.06,0.31-0.13,0.49-0.2l0.16-0.07
	c0.18-0.08,0.36-0.17,0.54-0.27l0.1-0.06c0.14-0.08,0.29-0.17,0.42-0.25l0,0c0.03-0.02,0.07-0.04,0.1-0.06
	c1.39-0.87,2.54-2.08,3.35-3.52c0.8-1.43,1.23-3.05,1.25-4.69c0-0.08-0.03-0.16-0.09-0.22C21.68,11.9,21.6,11.87,21.51,11.87
	L21.51,11.87z M14.86,12.51h3.79c-0.17,1.42-0.85,2.72-2.07,2.64c-0.49-0.03-0.96-0.22-1.33-0.55c-0.37-0.32-0.62-0.76-0.72-1.24
	c-0.04-0.16-0.03-0.33,0.03-0.49c0.06-0.16,0.16-0.29,0.3-0.38L14.86,12.51z M3.14,14.62c0-0.03-0.02-0.07-0.03-0.1
	c-0.01-0.03-0.02-0.08-0.03-0.13c-0.05-0.21-0.1-0.43-0.14-0.64c0-0.03,0-0.06-0.02-0.09c-0.02-0.12-0.03-0.24-0.05-0.36
	c-0.02-0.12-0.02-0.19-0.03-0.28V12.9c0-0.13-0.02-0.26-0.03-0.38h7.61C10.14,13.8,9.61,15,9.02,15.66
	c-0.15,0.2-0.38,0.33-0.63,0.35c-0.46,0-1.01-0.55-1.54-1.09c-0.63-0.63-1.28-1.29-2.02-1.29h0c-0.11,0-0.22,0.02-0.33,0.04
	C3.97,13.86,3.49,14.19,3.14,14.62L3.14,14.62z M16.51,20.21l-0.34,0.18l-0.16,0.08l-0.43,0.19l-0.06,0.03
	c-0.17,0.07-0.34,0.13-0.51,0.19l-0.13,0.04l-0.41,0.13l-0.13,0.03v0c-0.35,0.09-0.71,0.16-1.08,0.21c-0.05,0-0.1,0-0.14,0.02
	c-0.14,0.02-0.28,0.03-0.41,0.04h-0.15c-0.19,0-0.37,0.02-0.55,0.02h-0.51h-0.12c-0.13,0-0.26-0.02-0.39-0.03h-0.12
	c-0.13,0-0.27-0.03-0.4-0.06l-0.1-0.02c-0.14-0.03-0.29-0.05-0.43-0.09H9.87c-0.5-0.12-0.98-0.28-1.45-0.48l-0.13-0.06l-0.31-0.14
	l-0.08-0.04c1.27-1,2.33-1.44,2.93-1.22c1.57,0.57,2.44,0.24,3.07,0l0.2-0.08c0.63-0.23,1.68,0.36,2.51,1.02L16.51,20.21z
	 M17.17,19.8c-0.73-0.63-2.16-1.65-3.27-1.26l-0.22,0.08c-0.59,0.23-1.26,0.48-2.64,0c-0.89-0.31-2.14,0.19-3.74,1.49h0
	c-1.82-1.09-3.22-2.78-3.94-4.78c0.48-0.6,0.94-0.96,1.3-1.06c0.53-0.14,1.14,0.48,1.74,1.08s1.26,1.26,1.99,1.26h0.03
	c0.42-0.03,0.8-0.23,1.06-0.55c0.81-0.91,1.34-2.43,1.57-3.56h2.99v0c-0.16,0.3-0.21,0.66-0.14,1c0.12,0.62,0.45,1.17,0.93,1.58
	c0.48,0.41,1.07,0.65,1.7,0.69h0.18c1.57,0,2.41-1.57,2.59-3.27h1.91c-0.05,1.45-0.44,2.86-1.15,4.13
	C19.36,17.89,18.37,18.98,17.17,19.8L17.17,19.8z"/>
<linearGradient id="SVGID_1_" gradientUnits="userSpaceOnUse" x1="11.7296" y1="0.4485" x2="11.9954" y2="11.9549">
	<stop  offset="0" style="stop-color:#10BEF0"/>
	<stop  offset="1" style="stop-color:#10BEF0;stop-opacity:0"/>
</linearGradient>
<path class="st2" d="M21.52,11.87h-5.73l0.8-0.77c0.34,0.21,0.76,0.24,1.13,0.08c0.37-0.16,0.63-0.49,0.71-0.88
	c0.08-0.39-0.04-0.8-0.31-1.09c-0.28-0.29-0.68-0.43-1.07-0.37c-0.4,0.06-0.74,0.31-0.91,0.67c-0.18,0.36-0.17,0.78,0.02,1.13
	l-0.9,0.87v0c-0.14-0.66-0.47-1.26-0.96-1.73V6.81h1.71v1.22c0,0.08,0.03,0.16,0.09,0.22c0.06,0.06,0.14,0.09,0.22,0.09h2.41
	c0.1,0.38,0.38,0.69,0.75,0.82c0.37,0.13,0.78,0.08,1.1-0.15c0.32-0.23,0.51-0.59,0.51-0.99s-0.19-0.76-0.51-0.99
	c-0.32-0.23-0.73-0.28-1.1-0.15c-0.37,0.13-0.65,0.44-0.75,0.82h-2.1V5.28h2.1c0.1,0.38,0.38,0.69,0.75,0.82
	c0.37,0.13,0.78,0.08,1.1-0.15c0.32-0.23,0.51-0.59,0.51-0.99s-0.19-0.76-0.51-0.99c-0.32-0.23-0.73-0.28-1.1-0.15
	c-0.37,0.13-0.65,0.44-0.75,0.82h-2.41c-0.17,0-0.31,0.14-0.31,0.31v1.22h-2.03c-0.17,0-0.31,0.14-0.31,0.31v2.83
	c-0.41-0.25-0.87-0.4-1.35-0.45V4.44c0.38-0.1,0.69-0.38,0.82-0.75c0.13-0.37,0.08-0.78-0.15-1.1c-0.23-0.32-0.59-0.51-0.99-0.51
	s-0.76,0.19-0.99,0.51c-0.23,0.32-0.28,0.73-0.15,1.1c0.13,0.37,0.44,0.65,0.82,0.75v4.43c-0.48,0.04-0.94,0.19-1.35,0.43V6.48
	c0-0.08-0.03-0.16-0.09-0.22c-0.06-0.06-0.14-0.09-0.22-0.09H8v-1.2C8,4.88,7.97,4.8,7.91,4.74C7.85,4.68,7.77,4.65,7.69,4.65H5.27
	c-0.1-0.38-0.38-0.69-0.75-0.82C4.15,3.7,3.74,3.75,3.42,3.98C3.1,4.2,2.9,4.57,2.9,4.97c0,0.39,0.19,0.76,0.51,0.99
	c0.32,0.23,0.73,0.28,1.1,0.15c0.37-0.13,0.65-0.44,0.75-0.82h2.1v2.43h-2.1c-0.1-0.38-0.38-0.69-0.75-0.82
	c-0.37-0.13-0.78-0.08-1.1,0.15C3.1,7.27,2.9,7.63,2.9,8.03c0,0.39,0.19,0.76,0.51,0.99c0.32,0.23,0.73,0.28,1.1,0.15
	c0.37-0.13,0.65-0.44,0.75-0.82h2.41c0.08,0,0.16-0.03,0.22-0.09C7.97,8.19,8,8.11,8,8.03V6.81h1.71v2.97
	c-0.49,0.46-0.83,1.07-0.96,1.73l-0.9-0.87v0C7.95,10.46,8,10.26,8,10.06c0-0.36-0.16-0.7-0.44-0.93C7.29,8.9,6.92,8.81,6.57,8.87
	c-0.35,0.07-0.66,0.28-0.84,0.6c-0.18,0.31-0.2,0.69-0.08,1.03c0.13,0.34,0.4,0.6,0.74,0.71c0.34,0.12,0.71,0.08,1.02-0.11
	l0.82,0.77H2.49c-0.17,0-0.31,0.14-0.31,0.31v0.4c0,0.12,0,0.24,0.02,0.35v0.12c0,0.08,0.02,0.16,0.03,0.24v0.03v0.02v0.12
	c0,0.09,0.03,0.19,0.04,0.28v0.06v0.02c0.08,0.49,0.21,0.98,0.37,1.45v0.05c0.78,2.26,2.36,4.16,4.44,5.34l0.03,0.02l0.08,0.04
	c0.14,0.08,0.28,0.15,0.42,0.22l0.06,0.03c0.17,0.08,0.35,0.16,0.53,0.23l0.12,0.04c0.15,0.06,0.31,0.12,0.46,0.17l0.09,0.03v0
	c0.38,0.13,0.78,0.23,1.17,0.31h0.04c0.18,0.03,0.35,0.06,0.53,0.09h0.13c0.15,0.02,0.31,0.03,0.46,0.04h0.15
	c0.19,0,0.39,0.02,0.58,0.02c0.2,0,0.42,0,0.63-0.02h0.16c0.18,0,0.35-0.03,0.53-0.06h0.11c0.21-0.03,0.42-0.07,0.63-0.11l0.11-0.03
	c0.18-0.04,0.35-0.08,0.52-0.13l0.13-0.04c0.21-0.06,0.41-0.12,0.59-0.2l0.08-0.03c0.17-0.06,0.31-0.13,0.49-0.2l0.16-0.07
	c0.18-0.08,0.36-0.17,0.54-0.27l0.1-0.06c0.14-0.08,0.29-0.17,0.42-0.25l0,0c0.03-0.02,0.07-0.04,0.1-0.06
	c1.39-0.87,2.54-2.08,3.35-3.52c0.8-1.43,1.23-3.05,1.25-4.69c0-0.08-0.03-0.16-0.09-0.22C21.68,11.9,21.6,11.87,21.52,11.87
	L21.52,11.87z"/>
<path class="st29" d="M17.21,9.49c0.19,0,0.37,0.1,0.48,0.26c0.1,0.16,0.12,0.36,0.05,0.54c-0.08,0.18-0.23,0.31-0.42,0.34
	c-0.19,0.04-0.38-0.02-0.52-0.16c-0.16-0.17-0.2-0.41-0.11-0.62c0.09-0.21,0.3-0.35,0.53-0.35L17.21,9.49z"/>
<path class="st29" d="M19.89,7.45L19.89,7.45c0.23,0,0.44,0.14,0.53,0.36c0.09,0.22,0.04,0.46-0.13,0.63
	c-0.17,0.17-0.41,0.21-0.63,0.13c-0.22-0.09-0.36-0.3-0.36-0.53C19.32,7.71,19.57,7.45,19.89,7.45L19.89,7.45z"/>
<path class="st29" d="M19.89,4.39L19.89,4.39c0.23,0,0.44,0.14,0.53,0.36c0.09,0.22,0.04,0.46-0.13,0.63
	c-0.17,0.17-0.41,0.21-0.63,0.13c-0.22-0.09-0.36-0.3-0.36-0.53C19.32,4.65,19.57,4.39,19.89,4.39L19.89,4.39z"/>
<path class="st29" d="M4.11,5.54c-0.23,0-0.44-0.14-0.53-0.36C3.49,4.97,3.53,4.72,3.7,4.56c0.17-0.17,0.41-0.21,0.63-0.13
	c0.22,0.09,0.36,0.3,0.36,0.53C4.68,5.28,4.43,5.54,4.11,5.54L4.11,5.54z"/>
<path class="st29" d="M4.11,8.61c-0.23,0-0.44-0.14-0.53-0.36S3.53,7.78,3.7,7.62C3.87,7.45,4.11,7.4,4.33,7.49
	c0.22,0.09,0.36,0.3,0.36,0.53C4.68,8.35,4.43,8.6,4.11,8.61L4.11,8.61z"/>
<path class="st29" d="M7.21,10.47c-0.19,0.2-0.5,0.23-0.73,0.08c-0.23-0.15-0.32-0.44-0.22-0.7c0.1-0.26,0.37-0.4,0.64-0.35
	c0.27,0.05,0.47,0.29,0.47,0.56C7.37,10.22,7.31,10.37,7.21,10.47L7.21,10.47z"/>
<path class="st29" d="M11.41,3.3c-0.01-0.23,0.13-0.45,0.34-0.54c0.21-0.1,0.46-0.05,0.63,0.11c0.17,0.16,0.22,0.41,0.14,0.63
	C12.44,3.71,12.23,3.86,12,3.86c-0.32,0-0.58-0.26-0.58-0.58L11.41,3.3z"/>
<path class="st29" d="M12,9.49c0.66,0,1.3,0.24,1.79,0.68c0.49,0.44,0.81,1.04,0.89,1.7H9.34h0c0.08-0.65,0.39-1.25,0.88-1.69
	C10.71,9.74,11.34,9.49,12,9.49L12,9.49z"/>
</svg>
