<?xml version="1.0" encoding="utf-8"?>
<!-- Generator: Adobe Illustrator 25.2.1, SVG Export Plug-In . SVG Version: 6.00 Build 0)  -->
<svg version="1.1" id="Layer_1" xmlns="http://www.w3.org/2000/svg" xmlns:xlink="http://www.w3.org/1999/xlink" x="0px" y="0px"
	 viewBox="0 0 1000 1000" style="enable-background:new 0 0 1000 1000;" xml:space="preserve">
<style type="text/css">
	.st0{fill:#002680;}
	.st1{opacity:0.2;}
	.st2{fill:url(#SVGID_1_);}
	.st3{fill:#E27B62;}
	.st4{fill:#007CFF;}
	.st5{opacity:0.3;fill:#FFFFFF;}
	.st6{fill:#1A2E35;}
	.st7{fill:#D14C38;}
	.st8{opacity:0.1;fill:#002680;}
	.st9{opacity:0.1;}
	.st10{fill:url(#SVGID_2_);}
	.st11{opacity:0.3;fill:url(#SVGID_3_);}
	.st12{fill:url(#SVGID_4_);}
	.st13{opacity:0.1;fill:url(#SVGID_5_);}
	.st14{fill:url(#SVGID_6_);}
	.st15{fill:url(#SVGID_7_);}
	.st16{opacity:0.4;}
	.st17{fill:#FFFFFF;}
	.st18{opacity:0.3;enable-background:new    ;}
	.st19{fill:#E67B62;}
	.st20{opacity:0.2;fill:#808285;enable-background:new    ;}
	.st21{opacity:0.2;enable-background:new    ;}
	.st22{fill:#000A8C;}
	.st23{fill:url(#SVGID_8_);}
	.st24{fill:url(#SVGID_9_);}
	.st25{fill:#ECECEC;}
	.st26{fill:#E1E1E1;}
	.st27{fill:#F5F5F5;}
	.st28{fill:#5FCAFF;}
	.st29{fill:url(#SVGID_10_);}
	.st30{opacity:0.3;}
	.st31{fill:url(#SVGID_11_);}
	.st32{fill:url(#SVGID_12_);}
	.st33{fill:url(#SVGID_13_);}
	.st34{fill:#FFC19D;}
	.st35{fill:#FF9C6A;}
	.st36{fill:#375A64;}
	.st37{opacity:0.1;fill:url(#SVGID_14_);}
	.st38{fill:url(#SVGID_15_);}
	.st39{fill:url(#SVGID_16_);}
	.st40{fill:none;stroke:#FFFFFF;stroke-width:1.7246;stroke-miterlimit:10;}
	.st41{fill:url(#SVGID_17_);}
	.st42{fill:url(#SVGID_18_);}
	.st43{fill:url(#SVGID_19_);}
	.st44{fill:url(#SVGID_20_);}
	.st45{fill:url(#SVGID_21_);}
	.st46{fill:url(#SVGID_22_);}
	.st47{fill:url(#SVGID_23_);}
	.st48{fill:url(#SVGID_24_);}
	.st49{fill:url(#SVGID_25_);}
	.st50{fill:url(#SVGID_26_);}
	.st51{fill:url(#SVGID_27_);}
	.st52{fill:url(#SVGID_28_);}
	.st53{fill:url(#SVGID_29_);}
	.st54{fill:url(#SVGID_30_);}
	.st55{fill:url(#SVGID_31_);}
	.st56{fill:none;stroke:#002680;stroke-width:5;stroke-miterlimit:10;}
	.st57{fill:none;stroke:url(#SVGID_32_);stroke-width:5;stroke-miterlimit:10;}
	.st58{opacity:0.1;fill:url(#SVGID_33_);}
	.st59{fill:url(#SVGID_34_);}
	.st60{fill:url(#SVGID_35_);}
	.st61{fill:url(#SVGID_36_);}
	.st62{fill:url(#SVGID_37_);}
	.st63{fill:url(#SVGID_38_);}
	.st64{fill:url(#SVGID_39_);}
	.st65{fill:none;stroke:url(#SVGID_40_);stroke-width:5.1738;stroke-miterlimit:10;}
	.st66{opacity:0.1;fill:url(#SVGID_41_);}
	.st67{fill:url(#SVGID_42_);}
	.st68{fill:url(#SVGID_43_);}
	.st69{fill:url(#SVGID_44_);}
	.st70{fill:url(#SVGID_45_);}
	.st71{fill:url(#SVGID_46_);}
	.st72{fill:url(#SVGID_47_);}
	.st73{fill:url(#SVGID_48_);}
	.st74{fill:url(#SVGID_49_);}
	.st75{fill:none;stroke:url(#SVGID_50_);stroke-width:5.1738;stroke-miterlimit:10;}
	.st76{opacity:0.1;fill:url(#SVGID_51_);}
	.st77{fill:url(#SVGID_52_);}
	.st78{fill:url(#SVGID_53_);}
	.st79{fill:url(#SVGID_54_);}
	.st80{fill:url(#SVGID_55_);}
	.st81{fill:url(#SVGID_56_);}
	.st82{fill:url(#SVGID_57_);}
	.st83{fill:url(#SVGID_58_);}
	.st84{fill:none;stroke:url(#SVGID_59_);stroke-width:5.1738;stroke-miterlimit:10;}
	.st85{opacity:0.1;fill:url(#SVGID_60_);}
	.st86{fill:url(#SVGID_61_);}
	.st87{fill:url(#SVGID_62_);}
	.st88{fill:url(#SVGID_63_);}
	.st89{fill:none;stroke:url(#SVGID_64_);stroke-width:6.8984;stroke-miterlimit:10;}
	.st90{opacity:0.1;fill:url(#SVGID_65_);}
	.st91{fill:url(#SVGID_66_);}
	.st92{fill:url(#SVGID_67_);}
	.st93{fill:url(#SVGID_68_);}
	.st94{fill:url(#SVGID_69_);}
	.st95{fill:url(#SVGID_70_);}
	.st96{fill:url(#SVGID_71_);}
	.st97{fill:url(#SVGID_72_);}
	.st98{fill:none;stroke:url(#SVGID_73_);stroke-width:5.1738;stroke-miterlimit:10;}
	.st99{fill:url(#SVGID_74_);}
	.st100{fill:url(#SVGID_75_);}
</style>
<g>
	<path class="st25" d="M509.54,496.44c-30.46-21.32-33.4-24.06-48.8-52.61l-14.63,29.88c62.67,17.65,116.72,76.86,163.88,121.74
		c48.29,45.96,137.52,113.63,150.61,177.41c17.35-43.92,44.17-38.26,75.45-73.64C732.06,670.47,585.3,549.47,509.54,496.44z"/>
	<path class="st25" d="M655.01,818.4c7.48-20.52,33.29-30.16,53.21-21.19c-0.14-3.1-0.29-6.21-0.43-9.31
		c1.87-13.74,9.48-26.6,20.61-34.87c11.13-8.26,25.65-11.82,39.34-9.63c1.18-15.36,17.21-27.85,32.39-25.22
		c-2.54-10.87,1.8-23.04,10.64-29.85c8.84-6.81,21.71-7.91,31.58-2.68c15.72-9.89,37.55-8.89,52.3,2.4
		c14.75,11.29,21.42,32.1,15.97,49.86c23.88,18.26,32.5,53.88,19.62,81.05"/>
	<g>
		<g>
			<path class="st25" d="M427.35,464.89l41.95-28.54c15.05-1.98,23.07,12.89,22.45,23.59c6.37-3.31,14.82-2.02,19.91,3.03
				c5.1,5.06,6.45,13.49,3.19,19.89c8.57,0.43,15.72,9.28,14.33,17.75c-1.39,8.47-11,14.57-19.25,12.23
				c-5.45-1.54-9.89-6.05-15.51-6.69c-5.28-0.6-10.22,2.33-15.28,3.95c-12.57,4.01-26.94-0.5-36.43-9.67
				C433.21,491.25,428.3,478.05,427.35,464.89z"/>
		</g>
		<g>
			<g>
				<g>
					<path class="st26" d="M454.27,446.98c4.88,1.34,9.48,3.69,13.47,6.81c2.6,2.04,1.05,6.24-2.26,6.14l-0.09,0
						c5.1,3.55,9.96,7.44,14.55,11.63c2.93,2.68,0.94,7.55-3.02,7.38c-15.54-0.64-30.85-7.01-42.05-17.83L454.27,446.98z"/>
				</g>
				<g>
					<g>
						<g>
							<path class="st26" d="M379.47,450.49c0,0.05,0,0.16,0.01,0.33c0.68,19.36,10.15,37.35,25.67,48.94l9.74,7.27l1-29.36
								L379.47,450.49z"/>
						</g>
					</g>
					<g>
						<g>
							<path class="st26" d="M420.69,395.26c0.05-0.01,0.15-0.04,0.32-0.08c18.5-4.79,38.17-0.9,53.48,10.53l9.6,7.17l-27.49,9.19
								L420.69,395.26z"/>
						</g>
					</g>
					<g>
						<g>
							<path class="st27" d="M304.73,351.73c3.26-4.37,20.56-3.98,45.01,2.64c24.07,6.52,40.6,18.25,40.6,18.25l81.26,60.63
								l-15.98,21.41l-9.26,12.41l-15.98,21.41l-73.74-55.02c-7.21-5.38-13.91-11.4-19.96-18.05c-5.2-5.72-11.27-13.06-16.61-21.29
								C306.35,372.96,301.47,356.1,304.73,351.73"/>
						</g>
					</g>
				</g>
				<g>
					<g>
						<line class="st27" x1="458.73" y1="423.64" x2="417.61" y2="478.08"/>
					</g>
					<g>
						<g>
							<path class="st26" d="M417.61,478.08c0.08,0.06,9.35-12.08,20.7-27.11c11.36-15.03,20.5-27.27,20.42-27.33
								c-0.08-0.06-9.35,12.08-20.7,27.11C426.67,465.78,417.53,478.02,417.61,478.08z"/>
						</g>
					</g>
				</g>
				<g>
					<g>
						<line class="st27" x1="461.37" y1="425.24" x2="420.26" y2="479.67"/>
					</g>
					<g>
						<g>
							<path class="st26" d="M420.26,479.67c0.08,0.06,9.35-12.08,20.7-27.11c11.36-15.03,20.5-27.27,20.42-27.33
								c-0.08-0.06-9.35,12.08-20.7,27.11C429.32,467.38,420.18,479.61,420.26,479.67z"/>
						</g>
					</g>
				</g>
				<g>
					<g>
						<line class="st27" x1="463.94" y1="427.22" x2="422.82" y2="481.66"/>
					</g>
					<g>
						<g>
							<path class="st26" d="M422.82,481.66c0.08,0.06,9.35-12.08,20.7-27.11c11.36-15.03,20.5-27.27,20.42-27.33
								c-0.08-0.06-9.35,12.08-20.7,27.11C431.88,469.36,422.74,481.6,422.82,481.66z"/>
						</g>
					</g>
				</g>
				<g>
					<g>
						<line class="st27" x1="466.51" y1="429.2" x2="425.39" y2="483.64"/>
					</g>
					<g>
						<g>
							<path class="st26" d="M425.39,483.64c0.08,0.06,9.35-12.08,20.7-27.11c11.36-15.03,20.49-27.27,20.42-27.33
								c-0.08-0.06-9.35,12.08-20.7,27.11C434.45,471.34,425.31,483.58,425.39,483.64z"/>
						</g>
					</g>
				</g>
				<g>
					<g>
						<line class="st27" x1="469.07" y1="431.19" x2="427.96" y2="485.62"/>
					</g>
					<g>
						<g>
							<path class="st26" d="M427.96,485.62c0.08,0.06,9.35-12.08,20.7-27.11c11.36-15.03,20.5-27.27,20.42-27.33
								c-0.08-0.06-9.35,12.08-20.7,27.11C437.02,473.32,427.88,485.56,427.96,485.62z"/>
						</g>
					</g>
				</g>
				<g>
					<g>
						<path class="st26" d="M400.06,423.03c-0.01,0.01,0.1,0.12,0.33,0.34c0.23,0.23,0.59,0.51,1.05,0.89
							c0.93,0.75,2.3,1.81,3.99,3.09c3.4,2.58,8.14,6.08,13.39,9.93c5.26,3.84,10.03,7.29,13.5,9.77c1.71,1.21,3.11,2.21,4.12,2.92
							c0.47,0.32,0.84,0.58,1.13,0.78c0.26,0.17,0.4,0.26,0.41,0.25c0.01-0.01-0.12-0.12-0.37-0.31c-0.28-0.21-0.64-0.49-1.09-0.83
							c-0.99-0.74-2.37-1.76-4.05-3.01c-3.47-2.54-8.21-6.02-13.44-9.86c-5.24-3.83-9.98-7.3-13.45-9.84
							c-1.69-1.25-3.07-2.27-4.06-3c-0.47-0.36-0.86-0.63-1.09-0.83C400.2,423.12,400.07,423.02,400.06,423.03z"/>
					</g>
				</g>
				<g>
					<g>
						<path class="st26" d="M379.47,450.49c0.08,0.06,9.3-12.14,20.6-27.26c11.3-15.12,20.39-27.41,20.31-27.47
							c-0.08-0.06-9.3,12.14-20.6,27.26C388.49,438.13,379.39,450.43,379.47,450.49z"/>
					</g>
				</g>
				<g>
					<g>
						<path class="st26" d="M423.55,447.45c0-0.02-0.19,0-0.49,0.16c-0.29,0.16-0.69,0.5-0.93,1.07c-0.25,0.55-0.29,1.41,0.24,2.08
							c0.49,0.66,1.44,1.12,2.4,0.87c0.96-0.28,1.54-1.16,1.63-1.97c0.11-0.85-0.36-1.57-0.85-1.91c-0.5-0.37-1.01-0.46-1.34-0.45
							c-0.34,0.01-0.51,0.1-0.5,0.11c0.01,0.03,0.19,0,0.5,0.03c0.31,0.03,0.76,0.16,1.19,0.51c0.42,0.34,0.79,0.96,0.68,1.67
							c-0.09,0.69-0.61,1.44-1.39,1.66c-0.78,0.21-1.62-0.17-2.05-0.72c-0.46-0.56-0.45-1.28-0.26-1.78
							c0.19-0.52,0.52-0.86,0.77-1.04C423.39,447.54,423.56,447.48,423.55,447.45z"/>
					</g>
				</g>
				<g>
					<g>
						<path class="st26" d="M407.63,436.02c0-0.02-0.19,0-0.49,0.16c-0.29,0.16-0.69,0.5-0.93,1.07c-0.25,0.55-0.29,1.41,0.24,2.08
							c0.49,0.66,1.44,1.12,2.4,0.87c0.96-0.28,1.54-1.16,1.63-1.97c0.11-0.85-0.36-1.57-0.85-1.91c-0.5-0.37-1.01-0.46-1.34-0.45
							c-0.34,0.01-0.51,0.1-0.5,0.11c0.01,0.03,0.19,0,0.5,0.03c0.31,0.03,0.76,0.16,1.19,0.51c0.42,0.34,0.79,0.96,0.68,1.67
							c-0.09,0.69-0.61,1.44-1.39,1.66c-0.78,0.21-1.62-0.17-2.05-0.72c-0.46-0.56-0.45-1.28-0.26-1.78
							c0.19-0.52,0.52-0.86,0.77-1.04C407.47,436.12,407.64,436.05,407.63,436.02z"/>
					</g>
				</g>
				<g>
					<path class="st26" d="M483.02,487.19c1.78-0.67,4.02,0.31,4.73,2.08c0.71,1.77-0.24,4.02-1.99,4.76
						c-1.76,0.74-4.03-0.16-4.8-1.91c-0.77-1.74,0.09-4.03,1.82-4.83"/>
				</g>
			</g>
			<g>
				<path class="st17" d="M342.34,399.28c3.46,9.68,14.1,14.72,23.78,11.26c9.68-3.46,14.72-14.1,11.26-23.78
					c-3.46-9.68-14.1-14.72-23.78-11.26C343.92,378.96,338.88,389.61,342.34,399.28z"/>
				<g>
					<path class="st26" d="M342.34,399.28c0.11-0.03-0.55-1.56-0.82-4.49c-0.26-2.87,0.12-7.36,3.01-11.75
						c1.44-2.16,3.46-4.27,6.12-5.78c2.65-1.48,5.86-2.53,9.3-2.45c1.71-0.01,3.47,0.26,5.18,0.79c1.72,0.5,3.4,1.29,4.92,2.35
						c3.11,2.05,5.59,5.24,6.95,8.94c1.3,3.73,1.4,7.76,0.29,11.33c-0.51,1.79-1.31,3.46-2.32,4.94c-0.99,1.49-2.17,2.82-3.5,3.89
						c-2.61,2.24-5.76,3.47-8.75,4c-3.02,0.52-5.92,0.16-8.4-0.59c-5.02-1.57-8.16-4.8-9.77-7.19
						C342.9,400.84,342.44,399.24,342.34,399.28c-0.03,0.01,0.1,0.4,0.38,1.13c0.13,0.37,0.31,0.82,0.59,1.32
						c0.26,0.51,0.55,1.11,0.98,1.72c1.56,2.48,4.71,5.86,9.86,7.56c2.54,0.82,5.55,1.22,8.68,0.71c3.11-0.52,6.38-1.77,9.12-4.09
						c1.39-1.11,2.63-2.49,3.67-4.04c1.06-1.54,1.9-3.28,2.44-5.14c1.16-3.71,1.07-7.93-0.29-11.83c-1.42-3.87-4.02-7.19-7.27-9.33
						c-1.6-1.1-3.35-1.92-5.14-2.44c-1.78-0.54-3.61-0.82-5.4-0.8c-3.58-0.06-6.91,1.05-9.64,2.62c-2.75,1.59-4.81,3.8-6.26,6.05
						c-2.91,4.57-3.2,9.19-2.84,12.1c0.05,0.75,0.21,1.39,0.33,1.95c0.1,0.56,0.25,1.03,0.38,1.39
						C342.17,398.91,342.31,399.29,342.34,399.28z"/>
				</g>
			</g>
			<g>
				<path class="st26" d="M304.73,351.73c3.26-4.37,20.56-3.98,45.01,2.64l-29.66,39.75C306.35,372.96,301.47,356.1,304.73,351.73"
					/>
			</g>
			<g>
				<g>
					<g>
						<path class="st26" d="M304.73,351.73c0,0-0.17,0.27-0.49,0.83c-0.25,0.59-0.48,1.53-0.55,2.78
							c-0.11,2.51,0.55,6.19,2.01,10.72c2.98,9.05,9.16,21.6,19.28,35.58c5.15,6.91,11.24,14.22,18.64,21.28
							c3.71,3.51,7.75,6.96,12.11,10.26c4.37,3.27,8.88,6.64,13.51,10.11c18.54,13.85,39.08,29.2,60.91,45.5l0.32,0.24l0.24-0.32
							c6.62-8.86,13.55-18.15,20.61-27.61c7.06-9.46,13.99-18.75,20.6-27.62l0.24-0.32l-0.32-0.24
							c-21.85-16.29-42.42-31.61-60.97-45.44c-4.64-3.45-9.15-6.82-13.53-10.07c-2.19-1.63-4.34-3.23-6.46-4.81
							c-2.18-1.55-4.4-2.88-6.62-4.17c-8.87-5.1-17.62-8.85-25.77-11.67c-8.19-2.72-15.76-4.53-22.44-5.83
							c-6.68-1.27-12.49-2.01-17.26-2.17c-4.76-0.16-8.48,0.19-10.87,0.96c-0.58,0.24-1.11,0.4-1.52,0.64
							c-0.4,0.26-0.76,0.43-1,0.65C304.95,351.49,304.73,351.73,304.73,351.73s0.25-0.21,0.71-0.65c0.24-0.2,0.61-0.37,1-0.61
							c0.41-0.23,0.94-0.37,1.52-0.6c2.38-0.72,6.08-1.03,10.81-0.82c4.74,0.2,10.53,0.98,17.19,2.29
							c6.65,1.34,14.2,3.18,22.35,5.93c8.11,2.83,16.82,6.61,25.63,11.71c2.19,1.28,4.42,2.63,6.55,4.15
							c2.12,1.58,4.27,3.19,6.45,4.83c4.37,3.27,8.88,6.64,13.51,10.1c18.54,13.85,39.08,29.2,60.91,45.51l-0.08-0.56
							c-6.62,8.86-13.55,18.16-20.61,27.62c-7.06,9.46-13.99,18.75-20.6,27.61l0.56-0.08c-21.85-16.28-42.41-31.6-60.96-45.43
							c-4.64-3.45-9.15-6.82-13.53-10.08c-4.35-3.27-8.37-6.7-12.08-10.18c-7.39-7-13.48-14.28-18.65-21.14
							c-10.14-13.89-16.39-26.38-19.43-35.35c-1.5-4.5-2.19-8.15-2.13-10.63c0.04-1.24,0.25-2.16,0.47-2.76
							C304.6,352.03,304.73,351.73,304.73,351.73z"/>
					</g>
				</g>
			</g>
		</g>
		<g>
			<g>
				<path class="st26" d="M361.38,406.86c0.11-0.01,0.01-1.45-0.31-3.74c-0.32-2.29-0.88-5.44-1.57-8.9
					c-0.67-3.3-1.28-6.28-1.8-8.84c-0.47-2.26-0.76-3.66-0.88-3.64c-0.11,0.01-0.01,1.45,0.31,3.74c0.32,2.29,0.88,5.44,1.57,8.9
					c0.67,3.3,1.28,6.28,1.8,8.84C360.98,405.47,361.27,406.87,361.38,406.86z"/>
			</g>
			<g>
				<path class="st26" d="M364.68,402.48c0.22-0.03-0.19-3.68-0.93-8.16c-0.73-4.48-1.51-8.07-1.72-8.03
					c-0.22,0.04,0.2,3.69,0.93,8.16C363.68,398.92,364.46,402.51,364.68,402.48z"/>
			</g>
		</g>
	</g>
	<g>
		<g>
			<g>
				<g>
					<g>
						<g>
							<g>
								<g>
									<g>
										<g>
											<path class="st25" d="M818.95,647.72l-39.28-19.13c-2.71-1.32-3.84-4.59-2.52-7.31l26.48-54.37
												c1.32-2.71,4.59-3.84,7.31-2.52l24.91,12.13l9.6,29.27l-19.19,39.41C824.93,647.92,821.66,649.04,818.95,647.72z"/>
										</g>
									</g>
								</g>
							</g>
						</g>
					</g>
				</g>
			</g>
			<g>
				<g>
					<g>
						<g>
							<g>
								<g>
									<g>
										<g>
											<path class="st26" d="M835.84,576.53l-7.45,15.3c-1.23,2.52-0.18,5.57,2.34,6.8l14.71,7.17L835.84,576.53z"/>
										</g>
									</g>
								</g>
							</g>
						</g>
					</g>
				</g>
			</g>
		</g>
		<g>
			<g>
				<g>
					<g>
						<g>
							<g>
								<g>
									<path class="st17" d="M825.4,589.6c-0.1,0.2-4.24-1.63-9.26-4.07c-5.02-2.44-9.01-4.58-8.91-4.78
										c0.1-0.2,4.24,1.62,9.26,4.07C821.5,587.26,825.49,589.4,825.4,589.6z"/>
								</g>
							</g>
						</g>
					</g>
				</g>
			</g>
		</g>
		<g>
			<g>
				<g>
					<g>
						<g>
							<g>
								<g>
									<path class="st17" d="M832.92,603.97c-0.1,0.2-6.87-2.9-15.13-6.93c-8.26-4.02-14.88-7.44-14.78-7.64
										c0.1-0.2,6.87,2.9,15.13,6.93C826.4,600.35,833.02,603.77,832.92,603.97z"/>
								</g>
							</g>
						</g>
					</g>
				</g>
			</g>
		</g>
		<g>
			<g>
				<g>
					<g>
						<g>
							<g>
								<g>
									<path class="st17" d="M832.1,612.5c-0.1,0.2-7.47-3.2-16.47-7.58c-9-4.39-16.22-8.1-16.13-8.29
										c0.1-0.2,7.47,3.2,16.48,7.58C824.97,608.59,832.19,612.31,832.1,612.5z"/>
								</g>
							</g>
						</g>
					</g>
				</g>
			</g>
		</g>
		<g>
			<g>
				<g>
					<g>
						<g>
							<g>
								<g>
									<path class="st17" d="M828.78,619.32c-0.1,0.2-7.47-3.2-16.47-7.58c-9-4.38-16.22-8.1-16.13-8.29
										c0.1-0.2,7.47,3.2,16.48,7.58C821.65,615.41,828.87,619.12,828.78,619.32z"/>
								</g>
							</g>
						</g>
					</g>
				</g>
			</g>
		</g>
		<g>
			<g>
				<g>
					<g>
						<g>
							<g>
								<g>
									<path class="st17" d="M825.46,626.13c-0.1,0.2-7.47-3.2-16.47-7.58c-9-4.39-16.22-8.1-16.13-8.29
										c0.1-0.2,7.47,3.2,16.48,7.58C818.33,622.22,825.56,625.94,825.46,626.13z"/>
								</g>
							</g>
						</g>
					</g>
				</g>
			</g>
		</g>
		<g>
			<g>
				<g>
					<g>
						<g>
							<g>
								<g>
									<path class="st17" d="M822.14,632.95c-0.1,0.2-7.47-3.2-16.47-7.58c-9-4.38-16.22-8.1-16.13-8.29
										c0.1-0.2,7.47,3.2,16.48,7.58C815.02,629.04,822.24,632.75,822.14,632.95z"/>
								</g>
							</g>
						</g>
					</g>
				</g>
			</g>
		</g>
	</g>
	<g>
		<rect x="483.96" y="240.46" class="st27" width="23.82" height="74.39"/>
		<rect x="519.53" y="257.45" class="st27" width="23.82" height="57.4"/>
		<rect x="552.45" y="280.76" class="st27" width="23.82" height="34.09"/>
	</g>
	<g>
		<g>
			<path class="st0" d="M782.19,469.28c-0.45-28.34,22.13-51.77,50.34-52.22c28.21-0.46,51.53,22.23,51.98,50.57
				c0.45,28.34-22.13,51.77-50.34,52.22C805.96,520.31,782.64,497.63,782.19,469.28z M857.81,468.06
				c-0.22-13.55-11.37-24.4-24.85-24.18c-13.49,0.22-24.29,11.42-24.07,24.97c0.22,13.55,11.37,24.4,24.86,24.18
				C847.23,492.82,858.03,481.62,857.81,468.06z"/>
		</g>
		<g>
			<path class="st28" d="M782.24,469.29c-0.45-28.34,22.13-51.77,50.34-52.22l0.43,26.82c-13.49,0.22-24.29,11.42-24.07,24.97
				c0.22,13.55,11.37,24.4,24.86,24.18l0.43,26.82C806.01,520.31,782.69,497.63,782.24,469.29z"/>
		</g>
		<g>
			<g>
				<path class="st0" d="M827.99,412.94c33-0.53,59.33,25.08,59.86,58.24l-31.24,0.5c-0.25-15.85-12.32-25.83-28.1-25.58
					L827.99,412.94z"/>
			</g>
		</g>
		<g>
			<g>
				<linearGradient id="SVGID_1_" gradientUnits="userSpaceOnUse" x1="827.9872" y1="442.3033" x2="887.8499" y2="442.3033">
					<stop  offset="0" style="stop-color:#00C0F3"/>
					<stop  offset="1" style="stop-color:#00C0F3;stop-opacity:0"/>
				</linearGradient>
				<path class="st2" d="M827.99,412.94c33-0.53,59.33,25.08,59.86,58.24l-31.24,0.5c-0.25-15.85-12.32-25.83-28.1-25.58
					L827.99,412.94z"/>
			</g>
		</g>
	</g>
	<g>
		<g>
			<rect x="415.21" y="621.55" class="st0" width="91.05" height="196.06"/>
		</g>
		<g class="st30">
			<rect x="478.04" y="621.55" width="28.22" height="196.06"/>
		</g>
		<g>
			<g>
				<path class="st6" d="M478.04,817.61c-0.21,0-0.39-43.4-0.39-96.92c0-53.54,0.17-96.93,0.39-96.93c0.21,0,0.39,43.39,0.39,96.93
					C478.42,774.21,478.25,817.61,478.04,817.61z"/>
			</g>
		</g>
	</g>
	<g>
		<g>
			<rect x="304.09" y="552.43" class="st0" width="91.05" height="265.17"/>
		</g>
		<g class="st30">
			<rect x="366.91" y="552.43" width="28.22" height="265.17"/>
		</g>
		<g>
			<g>
				<path class="st6" d="M366.91,817.61c-0.21,0-0.39-58.7-0.39-131.08c0-72.41,0.17-131.1,0.39-131.1c0.21,0,0.39,58.68,0.39,131.1
					C367.3,758.91,367.13,817.61,366.91,817.61z"/>
			</g>
		</g>
	</g>
	<g>
		<g>
			<rect x="527.55" y="678.62" class="st0" width="91.05" height="138.98"/>
		</g>
		<g class="st30">
			<rect x="590.37" y="678.62" width="28.22" height="138.98"/>
		</g>
		<g>
			<g>
				<path class="st6" d="M590.37,817.61c-0.21,0-0.39-30.76-0.39-68.7c0-37.95,0.17-68.71,0.39-68.71c0.21,0,0.39,30.76,0.39,68.71
					C590.76,786.84,590.59,817.61,590.37,817.61z"/>
			</g>
		</g>
	</g>
	<g>
		<g>
			<rect x="637.46" y="741.77" class="st0" width="91.05" height="75.84"/>
		</g>
		<g class="st30">
			<rect x="700.28" y="741.77" width="28.22" height="75.84"/>
		</g>
		<g>
			<g>
				<path class="st6" d="M700.28,817.61c-0.21,0-0.39-16.79-0.39-37.49c0-20.71,0.17-37.49,0.39-37.49c0.21,0,0.39,16.78,0.39,37.49
					C700.67,800.82,700.49,817.61,700.28,817.61z"/>
			</g>
		</g>
	</g>
	<g>
		<g>
			<rect x="748.58" y="768.01" class="st0" width="91.05" height="49.6"/>
		</g>
		<g class="st30">
			<rect x="811.4" y="768.01" width="28.22" height="49.6"/>
		</g>
		<g>
			<g>
				<path class="st6" d="M811.4,817.61c-0.21,0-0.39-10.98-0.39-24.52c0-13.54,0.17-24.52,0.39-24.52c0.21,0,0.39,10.98,0.39,24.52
					C811.79,806.63,811.62,817.61,811.4,817.61z"/>
			</g>
		</g>
	</g>
	<g>
		<g>
			<rect x="192.96" y="465.26" class="st0" width="91.05" height="352.3"/>
		</g>
		<g class="st30">
			<rect x="255.79" y="465.26" width="28.22" height="352.3"/>
		</g>
		<g>
			<g>
				<path class="st6" d="M255.79,818.99c-0.21,0-0.39-78.3-0.39-174.87c0-96.6,0.17-174.88,0.39-174.88
					c0.21,0,0.39,78.28,0.39,174.88C256.18,740.69,256,818.99,255.79,818.99z"/>
			</g>
		</g>
	</g>
	<g>
		<g>
			<rect x="81.84" y="393.75" class="st0" width="91.05" height="425.23"/>
		</g>
		<g class="st30">
			<rect x="144.67" y="393.75" width="28.22" height="425.23"/>
		</g>
		<g>
			<g>
				<path class="st6" d="M144.67,818.99c-0.21,0-0.39-94.12-0.39-210.21c0-116.12,0.17-210.23,0.39-210.23
					c0.21,0,0.39,94.1,0.39,210.23C145.05,724.86,144.88,818.99,144.67,818.99z"/>
			</g>
		</g>
	</g>
	<g>
		<g>
			
				<ellipse transform="matrix(0.7071 -0.7071 0.7071 0.7071 -182.2291 176.2638)" class="st0" cx="121.65" cy="308.1" rx="57.87" ry="57.87"/>
			
				<ellipse transform="matrix(0.7071 -0.7071 0.7071 0.7071 -182.2291 176.2638)" class="st30" cx="121.65" cy="308.1" rx="57.87" ry="57.87"/>
			
				<ellipse transform="matrix(0.7071 -0.7071 0.7071 0.7071 -177.7092 174.3916)" class="st0" cx="121.65" cy="301.71" rx="57.87" ry="57.87"/>
			<circle class="st17" cx="121.65" cy="301.71" r="38.76"/>
			
				<ellipse transform="matrix(0.7071 -0.7071 0.7071 0.7071 -177.7092 174.3916)" class="st0" cx="121.65" cy="301.71" rx="18.97" ry="18.97"/>
			<polygon class="st0" points="168.18,252.71 166.61,240.36 179.18,226.91 180.08,240.23 			"/>
			<polygon class="st0" points="195.16,242.88 182.41,241.85 169.63,254.14 182.41,255.51 			"/>
			<linearGradient id="SVGID_2_" gradientUnits="userSpaceOnUse" x1="166.6104" y1="239.8096" x2="180.0829" y2="239.8096">
				<stop  offset="0" style="stop-color:#00C0F3"/>
				<stop  offset="1" style="stop-color:#00C0F3;stop-opacity:0"/>
			</linearGradient>
			<polygon class="st10" points="168.18,252.71 166.61,240.36 179.18,226.91 180.08,240.23 			"/>
			<linearGradient id="SVGID_3_" gradientUnits="userSpaceOnUse" x1="169.6281" y1="248.676" x2="195.1584" y2="248.676">
				<stop  offset="0" style="stop-color:#00C0F3"/>
				<stop  offset="1" style="stop-color:#00C0F3;stop-opacity:0"/>
			</linearGradient>
			<polygon style="fill:url(#SVGID_3_);" points="195.16,242.88 182.41,241.85 169.63,254.14 182.41,255.51 			"/>
			<path class="st30" d="M124.19,301.43l44.25-33.78c-1.5-2.25-3.41-4.5-5.54-6.76l-38.71,37.53V301.43z"/>
			<g>
				<g>
					<path class="st0" d="M181.24,236.93c-6.77,6.86-13.53,13.71-20.3,20.57c-10.74,10.88-21.47,21.76-32.21,32.63
						c-2.47,2.5-4.94,5-7.4,7.5c-2.35,2.38,1.32,6.05,3.67,3.67c6.77-6.86,13.53-13.71,20.3-20.57
						c10.74-10.88,21.47-21.76,32.21-32.63c2.47-2.5,4.94-5,7.4-7.5C187.25,238.22,183.58,234.55,181.24,236.93L181.24,236.93z"/>
				</g>
			</g>
			<g>
				<linearGradient id="SVGID_4_" gradientUnits="userSpaceOnUse" x1="120.5719" y1="269.1144" x2="185.6561" y2="269.1144">
					<stop  offset="0" style="stop-color:#00C0F3"/>
					<stop  offset="1" style="stop-color:#00C0F3;stop-opacity:0"/>
				</linearGradient>
				<path class="st12" d="M181.24,236.93c-6.77,6.86-13.53,13.71-20.3,20.57c-10.74,10.88-21.47,21.76-32.21,32.63
					c-2.47,2.5-4.94,5-7.4,7.5c-2.35,2.38,1.32,6.05,3.67,3.67c6.77-6.86,13.53-13.71,20.3-20.57
					c10.74-10.88,21.47-21.76,32.21-32.63c2.47-2.5,4.94-5,7.4-7.5C187.25,238.22,183.58,234.55,181.24,236.93L181.24,236.93z"/>
			</g>
		</g>
		<g>
			<g>
				<path class="st0" d="M121.65,229.09c-0.2,0-0.36-11.07-0.36-24.73c0-13.66,0.16-24.73,0.36-24.73s0.36,11.07,0.36,24.73
					C122.01,218.02,121.85,229.09,121.65,229.09z"/>
			</g>
		</g>
		<g>
			<g>
				<path class="st0" d="M159.02,203.28c0.16,0.12-3.8,5.67-8.83,12.4c-5.04,6.73-9.25,12.09-9.41,11.97
					c-0.16-0.12,3.79-5.67,8.83-12.4C154.65,208.52,158.87,203.16,159.02,203.28z"/>
			</g>
		</g>
		<g>
			<g>
				<path class="st0" d="M83.84,202.14c0.17-0.1,3.61,5.79,7.67,13.15c4.06,7.36,7.21,13.41,7.04,13.5
					c-0.17,0.1-3.61-5.79-7.67-13.16C86.81,208.28,83.66,202.24,83.84,202.14z"/>
			</g>
		</g>
	</g>
	<g>
		<g>
			<g>
				<g>
					<g>
						<g>
							<g>
								<g>
									<g>
										<g>
											<g>
												<g>
													<path class="st17" d="M701.54,353.81l11.04-1.29c4.45,4.52,10.16,7.9,16.77,9.53c19.01,4.67,38.21-6.95,42.88-25.96
														c4.67-19.01-6.95-38.21-25.96-42.88c-19.01-4.67-38.21,6.95-42.88,25.96c-1.95,7.94-1.05,15.9,2.03,22.84l-0.01-0.02
														L701.54,353.81z"/>
													<g>
														<path class="st6" d="M701.54,353.81c0,0,0.06-0.24,0.22-0.74c0.17-0.54,0.4-1.28,0.7-2.25
															c0.65-2.05,1.59-5.02,2.81-8.88l0.09-0.28l0.19,0.22c0,0,0.01,0.01,0.01,0.02l-0.27,0.17
															c-1.91-4.25-3.6-10.24-3.03-17.37c0.25-3.55,1.15-7.33,2.74-11.07c1.58-3.75,3.92-7.47,7.06-10.74
															c3.13-3.28,7.07-6.1,11.6-8.06c4.53-1.97,9.65-3.06,14.94-2.96c10.55,0.1,21.71,5.52,28.4,15.06
															c3.38,4.85,5.64,10.4,6.3,16.06c0.72,5.64,0.08,11.3-1.67,16.39c-1.73,5.11-4.67,9.59-8.17,13.18
															c-3.52,3.59-7.64,6.28-11.88,8.04c-8.54,3.53-17.34,3.32-24.12,1.17c-6.86-2.11-11.79-5.86-14.96-9.13l0.13,0.04
															c-3.59,0.38-6.37,0.67-8.28,0.87c-0.9,0.09-1.59,0.16-2.09,0.21C701.76,353.8,701.54,353.81,701.54,353.81
															s0.26-0.05,0.74-0.11c0.51-0.07,1.22-0.16,2.13-0.28c1.88-0.24,4.61-0.59,8.15-1.05l0.07-0.01l0.05,0.05
															c3.19,3.2,8.1,6.86,14.88,8.89c6.7,2.07,15.36,2.23,23.75-1.28c4.17-1.75,8.21-4.41,11.65-7.94
															c3.43-3.53,6.3-7.93,7.99-12.95c1.71-5,2.34-10.54,1.62-16.07c-0.65-5.54-2.86-10.98-6.18-15.73
															c-6.55-9.34-17.47-14.66-27.82-14.78c-5.18-0.11-10.21,0.95-14.66,2.87c-4.46,1.91-8.33,4.68-11.42,7.88
															c-3.1,3.21-5.41,6.85-6.99,10.54c-1.59,3.68-2.5,7.4-2.77,10.9c-0.61,7.03,1,12.96,2.84,17.2l0.47,1.07l-0.73-0.9
															c0-0.01-0.01-0.02-0.01-0.02l0.27-0.05c-1.29,3.79-2.28,6.71-2.96,8.71c-0.34,0.97-0.59,1.73-0.78,2.27
															C701.64,353.54,701.54,353.81,701.54,353.81z"/>
													</g>
												</g>
											</g>
										</g>
									</g>
								</g>
							</g>
						</g>
					</g>
				</g>
			</g>
		</g>
		<g>
			<g>
				<g>
					<g>
						<g>
							<g>
								<g>
									<g>
										<polygon class="st0" points="720.38,328.98 724.74,324.31 733.72,331.76 750.27,314.71 754.62,319.09 733.37,340.5 
																					"/>
									</g>
								</g>
							</g>
						</g>
					</g>
				</g>
			</g>
		</g>
	</g>
	<g>
		<g>
			<g>
				<g>
					<g>
						<g>
							<g>
								<g>
									<g>
										<g>
											<g>
												<g>
													<path class="st17" d="M240.92,409.1l4.44-0.52c1.79,1.82,4.09,3.18,6.75,3.83c7.65,1.88,15.37-2.8,17.25-10.44
														c1.88-7.65-2.8-15.37-10.44-17.25c-7.65-1.88-15.37,2.8-17.25,10.44c-0.78,3.19-0.42,6.4,0.82,9.19l-0.01-0.01
														L240.92,409.1z"/>
													<g>
														<path class="st6" d="M240.92,409.1c0,0,0.03-0.1,0.09-0.3c0.07-0.22,0.16-0.52,0.28-0.9
															c0.26-0.82,0.64-2.02,1.13-3.57l0.04-0.11l0.08,0.09c0,0,0,0,0.01,0.01l-0.11,0.07c-0.77-1.71-1.45-4.12-1.22-6.99
															c0.1-1.43,0.46-2.95,1.1-4.46c0.64-1.51,1.58-3,2.84-4.32c1.26-1.32,2.84-2.45,4.67-3.24
															c1.82-0.79,3.88-1.23,6.01-1.19c4.25,0.04,8.73,2.22,11.42,6.06c1.36,1.95,2.27,4.18,2.53,6.46
															c0.29,2.27,0.03,4.54-0.67,6.59c-0.7,2.06-1.88,3.86-3.29,5.3c-1.41,1.45-3.07,2.53-4.78,3.24
															c-3.44,1.42-6.98,1.34-9.7,0.47c-2.76-0.85-4.74-2.36-6.02-3.67l0.05,0.02c-1.45,0.15-2.56,0.27-3.33,0.35
															c-0.36,0.04-0.64,0.06-0.84,0.08C241,409.1,240.92,409.1,240.92,409.1s0.11-0.02,0.3-0.04
															c0.21-0.03,0.49-0.06,0.86-0.11c0.76-0.1,1.86-0.24,3.28-0.42l0.03,0l0.02,0.02c1.28,1.29,3.26,2.76,5.99,3.58
															c2.7,0.83,6.18,0.9,9.55-0.51c1.68-0.7,3.3-1.77,4.69-3.2c1.38-1.42,2.53-3.19,3.21-5.21
															c0.69-2.01,0.94-4.24,0.65-6.46c-0.26-2.23-1.15-4.42-2.49-6.33c-2.64-3.76-7.03-5.9-11.19-5.95
															c-2.08-0.04-4.11,0.38-5.9,1.15c-1.79,0.77-3.35,1.88-4.6,3.17c-1.25,1.29-2.18,2.76-2.81,4.24
															c-0.64,1.48-1,2.98-1.11,4.38c-0.25,2.83,0.4,5.22,1.14,6.92l0.19,0.43l-0.3-0.36c0,0-0.01-0.01-0.01-0.01l0.11-0.02
															c-0.52,1.52-0.92,2.7-1.19,3.51c-0.13,0.39-0.24,0.69-0.31,0.91C240.96,408.99,240.92,409.1,240.92,409.1z"/>
													</g>
												</g>
											</g>
										</g>
									</g>
								</g>
							</g>
						</g>
					</g>
				</g>
			</g>
		</g>
		<g>
			<g>
				<g>
					<g>
						<g>
							<g>
								<g>
									<g>
										<polygon class="st0" points="248.49,399.11 250.25,397.23 253.86,400.23 260.52,393.37 262.27,395.13 253.72,403.75 
																					"/>
									</g>
								</g>
							</g>
						</g>
					</g>
				</g>
			</g>
		</g>
	</g>
	<g>
		<g>
			<path class="st34" d="M543.95,378.18c-2.53-2.81-5.88-5.42-6.71-5.93c-1.59-0.98-4.03-1.54-4.03-1.54s-20.56-5.67-24.88-6.05
				c-4.32-0.38-3.88,3.15,0.13,3.81c4.02,0.67,12.55,4.12,12.55,4.12s-1.77,0.3-1.89,2.13c-0.12,1.83,1.15,2.22,1.15,2.22
				s-1.13,1.47-1.13,2.45c0,0.98,0.99,2.4,0.99,2.4s-1.49,1.21-1.02,2.58c0.47,1.37,2.59,3.29,2.59,3.29s8.79,5.56,10.68,5.71
				c1.89,0.15,4.09,0.57,4.09,0.57l3.09,2.24l8.3-13.01C547.87,383.17,546.64,381.16,543.95,378.18z"/>
			<g>
				<g>
					<path class="st35" d="M521.01,372.51c-0.01,0.06,0.78,0.28,1.77,0.48c0.99,0.2,1.81,0.32,1.83,0.25
						c0.01-0.06-0.78-0.28-1.77-0.48C521.84,372.56,521.02,372.45,521.01,372.51z"/>
				</g>
			</g>
			<g>
				<g>
					<path class="st35" d="M520.15,376.91c-0.02,0.06,0.77,0.28,1.72,0.57c0.96,0.28,1.73,0.53,1.76,0.47
						c0.03-0.06-0.71-0.4-1.68-0.69C520.98,376.97,520.16,376.85,520.15,376.91z"/>
				</g>
			</g>
			<g>
				<g>
					<path class="st35" d="M519.65,381.08c-0.02,0.06,0.83,0.38,1.86,0.81c1.03,0.42,1.85,0.8,1.89,0.74
						c0.04-0.05-0.73-0.52-1.78-0.95C520.58,381.25,519.67,381.03,519.65,381.08z"/>
				</g>
			</g>
		</g>
		<g>
			<g>
				<path class="st36" d="M696.45,580.84c0,0-3.66-33.58-11.52-37.31c-7.86-3.73-18.76-6.18-21.74-1.16
					c-2.97,5.03-6.07,12.6-7.25,20.63c-1.19,8.03-0.51,20.31-0.51,20.31l8.96-1c0,0-0.44-33.47,2.28-38.41
					c2.72-4.95,16.52-0.97,18.03,4.99c1.51,5.96,4.82,32.71,4.82,32.71L696.45,580.84z"/>
				<g>
					<path class="st36" d="M727.67,628.18c-0.42-13.85-1.74-44.39-2.34-57.82c-0.16-3.66-3.19-6.54-6.85-6.52l-82.36,0.49
						c-3.68,0.02-6.67,2.95-6.78,6.63l-1.61,56.88c-0.11,3.83,2.96,7,6.79,7.01l86.31,0.35
						C724.68,635.22,727.78,632.03,727.67,628.18z"/>
					<g>
						<path class="st6" d="M635.06,585.2c0,0-0.01,0.2-0.02,0.61c0,0.44,0,1.05,0,1.83c0.01,1.65,0.01,4.04,0.02,7.1
							c0.04,6.23,0.09,15.2,0.16,26.28c0.01,0.69,0.01,1.4,0.02,2.11c-0.03,0.7,0.09,1.52,0.48,2.18c0.38,0.67,0.97,1.23,1.7,1.56
							c0.71,0.36,1.57,0.35,2.29,0.34c3.02,0,6.16-0.01,9.42-0.01c6.51-0.01,13.46-0.02,20.78-0.04c7.32-0.02,15-0.03,22.96-0.05
							c3.98-0.01,8.03-0.02,12.15-0.03c2.06-0.01,4.13-0.01,6.21-0.02l1.57,0c0.51-0.01,1.06,0.04,1.63-0.1
							c1.11-0.26,2.1-1.04,2.58-2.09c0.21-0.45,0.33-0.93,0.35-1.43c0.02-0.49-0.01-0.92-0.02-1.38c-0.02-0.9-0.04-1.8-0.06-2.7
							c-0.04-1.79-0.08-3.58-0.11-5.35c-0.08-3.54-0.15-7.04-0.22-10.48c-0.15-6.88-0.29-13.54-0.43-19.89l-0.01-0.3l-0.3,0.02
							c-23.66,1.44-43.96,1.84-58.33,1.9c-7.18,0.03-12.89,0-16.79-0.03c-1.94-0.01-3.45-0.02-4.5-0.03c-0.49,0-0.86,0-1.14,0
							C635.18,585.2,635.05,585.2,635.06,585.2c0.01,0.01,0.14,0.01,0.41,0.03c0.28,0.01,0.67,0.03,1.16,0.05
							c1.04,0.03,2.52,0.08,4.45,0.13c3.91,0.09,9.61,0.18,16.8,0.2c14.37,0.04,34.68-0.28,58.37-1.68l-0.31-0.28
							c0.13,6.36,0.27,13.01,0.41,19.89c0.07,3.44,0.14,6.94,0.22,10.48c0.04,1.77,0.07,3.56,0.11,5.35c0.02,0.9,0.04,1.8,0.06,2.7
							c0.02,0.92,0.11,1.78-0.28,2.53c-0.4,0.88-1.23,1.54-2.16,1.75c-0.45,0.12-0.96,0.08-1.5,0.09l-1.57,0
							c-2.08,0.01-4.16,0.01-6.21,0.02c-4.11,0.01-8.16,0.03-12.15,0.04c-7.96,0.03-15.64,0.06-22.96,0.09
							c-7.32,0.03-14.27,0.06-20.78,0.09c-3.25,0.02-6.4,0.03-9.42,0.05c-0.77,0.02-1.46,0.02-2.1-0.29
							c-0.63-0.28-1.15-0.77-1.49-1.36c-0.35-0.6-0.45-1.25-0.43-1.96c-0.01-0.71-0.02-1.4-0.03-2.09
							c-0.17-11.02-0.3-19.96-0.39-26.16c-0.06-3.09-0.1-5.49-0.13-7.15c-0.02-0.8-0.03-1.43-0.04-1.87
							C635.08,585.43,635.06,585.2,635.06,585.2z"/>
					</g>
					<g>
						<path class="st6" d="M658.73,621.75c0-0.04-0.51-0.01-1.44-0.2c-0.91-0.21-2.3-0.69-3.57-1.97c-1.28-1.26-2.23-3.39-2.01-5.99
							c-0.01-2.59-0.02-5.53-0.03-8.78c-0.01-1.63-0.02-3.33-0.03-5.1c-0.11-1.76,0.3-3.57,1.47-5.04c1.13-1.46,2.93-2.47,4.89-2.6
							c2-0.06,4.12-0.04,6.27-0.07c8.6-0.07,18.05-0.15,27.98-0.23c2.38-0.03,4.69,1.27,5.87,3.27c0.62,0.98,0.93,2.12,0.98,3.26
							c0.02,1.19,0.03,2.36,0.05,3.53c0.02,2.34,0.05,4.64,0.07,6.89c0.01,1.13,0.02,2.24,0.04,3.34c-0.01,1.09,0.08,2.21-0.05,3.22
							c-0.27,2.06-1.52,3.87-3.2,4.88c-0.83,0.51-1.77,0.84-2.71,0.95c-0.93,0.1-1.94,0.05-2.88,0.08
							c-3.82,0.05-7.38,0.09-10.64,0.13c-6.47,0.1-11.72,0.18-15.4,0.24c-1.79,0.04-3.19,0.07-4.19,0.1
							c-0.45,0.02-0.81,0.03-1.09,0.04C658.85,621.73,658.73,621.74,658.73,621.75c0,0.01,0.13,0.02,0.37,0.03
							c0.28,0.01,0.64,0.01,1.09,0.02c1,0,2.4,0.01,4.19,0.02c3.68-0.01,8.93-0.02,15.41-0.04c3.26-0.02,6.82-0.04,10.64-0.06
							c0.97-0.02,1.91,0.03,2.94-0.07c1.02-0.12,2.03-0.47,2.93-1.01c1.82-1.08,3.19-3.04,3.48-5.27c0.14-1.13,0.05-2.2,0.07-3.3
							c-0.01-1.1-0.02-2.21-0.03-3.34c-0.02-2.25-0.04-4.55-0.06-6.89c-0.01-1.17-0.03-2.36-0.04-3.55
							c-0.05-1.24-0.4-2.48-1.07-3.55c-1.28-2.18-3.81-3.6-6.4-3.57c-9.92,0.1-19.37,0.19-27.98,0.28c-2.16,0.03-4.23,0.02-6.3,0.09
							c-2.12,0.15-4.06,1.25-5.26,2.82c-1.24,1.56-1.67,3.58-1.54,5.35c0.02,1.77,0.05,3.48,0.07,5.1c0.05,3.25,0.09,6.19,0.13,8.78
							c0.01,0.64,0.01,1.27,0.07,1.88c0.09,0.61,0.22,1.19,0.43,1.71c0.41,1.06,1.02,1.91,1.68,2.56c1.34,1.3,2.78,1.75,3.71,1.93
							C658.22,621.82,658.73,621.75,658.73,621.75z"/>
					</g>
					<g class="st30">
						<path d="M714.79,626.67c-24.4,7.41-50.98,7.48-75.41,0.18L714.79,626.67z"/>
					</g>
					<path class="st26" d="M667.85,600.57l10.24-0.09c1.38-0.01,2.49-1.14,2.48-2.52l0-0.52c-0.01-1.38-1.14-2.49-2.52-2.48
						l-10.24,0.09c-1.38,0.01-2.49,1.14-2.48,2.52l0,0.52C665.34,599.48,666.47,600.59,667.85,600.57z"/>
				</g>
				<g>
					<path class="st34" d="M668.54,529.56c0,0-2.78,2.47-3.75,4.17c-0.97,1.71-2.69,9.11-2.69,9.11s1.37,1.24,3.82-2.67
						c2.46-3.91,3.17-5.87,3.17-5.87L668.54,529.56z"/>
					<path class="st34" d="M680.66,514.85l-3.27,5.76l-9.01,9.1l-3.39,13.5c-0.36,1.43-0.23,2.95,0.46,4.25
						c0.25,0.47,0.55,0.86,0.91,1c1.01,0.42,3.86-1.04,3.86-1.04s2.08,2.58,4.3,1.06c0,0,3.2,1.65,4.98,0.05
						c0,0,2.03,1.61,3.54,0.61c1.51-1,5.84-7.31,5.84-7.31l5.8-20.81L680.66,514.85z"/>
				</g>
			</g>
			<path class="st25" d="M701.89,400.99c0,0,5.72,3.69,6.03,11.29c0.23,5.67,4.49,44.13,4.11,54.48
				c-0.37,10.35-17.99,59.32-17.99,59.32l-19.45-5.86l16.82-54.76l-1.66-34.37L701.89,400.99z"/>
		</g>
		<g>
			<g>
				<g>
					<g>
						<g>
							<g>
								<g>
									<path class="st6" d="M667.77,316.41c-0.95-1.98-3.28-3.21-5.46-2.89c-2.48-2.09-6.47-2.15-9.01-0.14
										c-1.88-1.2-4.41-1.33-6.41-0.34c-2,0.99-3.42,3.07-3.59,5.28c-2.22-0.43-4.67,0.69-5.78,2.65
										c-1.11,1.96-0.81,4.61,0.71,6.27c-2.46,0.7-4.16,3.4-3.7,5.9c0.45,2.5,3,4.45,5.55,4.25l26.51-14.95
										C668.22,320.96,668.72,318.39,667.77,316.41z"/>
								</g>
							</g>
						</g>
					</g>
				</g>
				<g>
					<g>
						<g>
							<g>
								<g>
									<path class="st34" d="M636.7,366.1c0.13-5.7,1.36-17.42,2.6-28.01c1.33-11.39,11.25-19.85,22.81-19.45l1.15,0.04
										c12.35,1.14,18.27,12.19,16.78,24.4l-3.48,38.51l-23.9,21.55l-5.21-15.23l0.83-7.76
										C648.27,380.15,636.43,377.9,636.7,366.1z"/>
								</g>
							</g>
						</g>
						<g>
							<g>
								<g>
									<g>
										<g>
											<g>
												<g>
													<g>
														<g>
															<path class="st35" d="M648.17,380.13c0,0,7.58,0.72,15.75-3.99c0,0-3.96,8.36-15.8,6.89L648.17,380.13z"/>
														</g>
													</g>
												</g>
											</g>
										</g>
									</g>
								</g>
							</g>
						</g>
						<g>
							<g>
								<g>
									<g>
										<g>
											<g>
												<g>
													<g>
														<g>
															<g>
																<g>
																	<g>
																		<path class="st6" d="M642.39,348.34c-0.06,0.89,0.64,1.67,1.58,1.76c0.93,0.08,1.74-0.57,1.8-1.46
																			c0.06-0.89-0.64-1.68-1.58-1.76C643.26,346.8,642.45,347.46,642.39,348.34z"/>
																	</g>
																</g>
															</g>
														</g>
													</g>
												</g>
											</g>
										</g>
									</g>
								</g>
							</g>
						</g>
						<g>
							<g>
								<g>
									<g>
										<g>
											<g>
												<g>
													<g>
														<g>
															<g>
																<g>
																	<g>
																		<g>
																			<path class="st6" d="M641.65,343.95c0.2,0.23,1.52-0.67,3.35-0.61c1.83,0.04,3.14,1.02,3.34,0.81
																				c0.1-0.1-0.1-0.5-0.67-0.94c-0.56-0.44-1.53-0.88-2.67-0.92c-1.14-0.03-2.11,0.35-2.68,0.76
																				C641.75,343.46,641.55,343.85,641.65,343.95z"/>
																		</g>
																	</g>
																</g>
															</g>
														</g>
													</g>
												</g>
											</g>
										</g>
									</g>
								</g>
							</g>
						</g>
						<g>
							<g>
								<g>
									<g>
										<g>
											<g>
												<g>
													<g>
														<g>
															<g>
																<g>
																	<g>
																		<path class="st6" d="M658.89,349.23c-0.06,0.89,0.64,1.67,1.58,1.76c0.93,0.08,1.74-0.57,1.8-1.46
																			c0.06-0.89-0.64-1.67-1.58-1.76C659.76,347.69,658.95,348.34,658.89,349.23z"/>
																	</g>
																</g>
															</g>
														</g>
													</g>
												</g>
											</g>
										</g>
									</g>
								</g>
							</g>
						</g>
						<g>
							<g>
								<g>
									<g>
										<g>
											<g>
												<g>
													<g>
														<g>
															<g>
																<g>
																	<g>
																		<g>
																			<path class="st6" d="M659.61,344.91c0.2,0.23,1.53-0.67,3.35-0.6c1.83,0.04,3.14,1.02,3.34,0.81
																				c0.1-0.09-0.1-0.5-0.67-0.94c-0.56-0.44-1.53-0.88-2.67-0.92c-1.14-0.03-2.11,0.35-2.68,0.76
																				C659.72,344.42,659.51,344.81,659.61,344.91z"/>
																		</g>
																	</g>
																</g>
															</g>
														</g>
													</g>
												</g>
											</g>
										</g>
									</g>
								</g>
							</g>
						</g>
						<g>
							<g>
								<g>
									<g>
										<g>
											<g>
												<g>
													<g>
														<g>
															<g>
																<g>
																	<g>
																		<path class="st6" d="M652.5,358.12c0.01-0.1-1.12-0.34-2.95-0.63c-0.47-0.06-0.9-0.17-0.97-0.49
																			c-0.1-0.34,0.11-0.83,0.36-1.36c0.48-1.1,0.98-2.26,1.5-3.48c2.09-4.95,3.63-9.03,3.42-9.11
																			c-0.2-0.08-2.06,3.87-4.16,8.82c-0.5,1.22-0.99,2.39-1.45,3.5c-0.19,0.52-0.52,1.11-0.31,1.81
																			c0.11,0.35,0.45,0.61,0.74,0.7c0.3,0.1,0.56,0.12,0.79,0.14C651.34,358.18,652.49,358.23,652.5,358.12z"/>
																	</g>
																</g>
															</g>
														</g>
													</g>
												</g>
											</g>
										</g>
									</g>
								</g>
							</g>
						</g>
						<g>
							<g>
								<g>
									<g>
										<g>
											<g>
												<g>
													<g>
														<g>
															<g>
																<g>
																	<g>
																		<path class="st6" d="M657.84,359.56c-0.3-0.03-0.37,1.94-2.12,3.28c-1.74,1.34-3.85,1.05-3.88,1.32
																			c-0.03,0.12,0.46,0.4,1.35,0.45c0.87,0.06,2.16-0.17,3.23-0.99c1.07-0.82,1.55-1.95,1.65-2.75
																			C658.18,360.05,657.98,359.56,657.84,359.56z"/>
																	</g>
																</g>
															</g>
														</g>
													</g>
												</g>
											</g>
										</g>
									</g>
								</g>
							</g>
						</g>
						<g>
							<g>
								<g>
									<g>
										<g>
											<g>
												<g>
													<g>
														<path class="st6" d="M659.39,337.79c0.16,0.5,2,0.33,4.13,0.66c2.14,0.29,3.85,0.97,4.15,0.54
															c0.13-0.21-0.15-0.68-0.83-1.18c-0.68-0.5-1.77-0.99-3.05-1.18c-1.28-0.18-2.47-0.02-3.26,0.27
															C659.73,337.18,659.32,337.55,659.39,337.79z"/>
													</g>
												</g>
											</g>
										</g>
									</g>
								</g>
							</g>
						</g>
						<g>
							<g>
								<g>
									<g>
										<g>
											<g>
												<g>
													<g>
														<path class="st6" d="M642.51,338.73c0.31,0.42,1.58,0.04,3.1,0.07c1.52-0.02,2.79,0.37,3.1-0.05
															c0.14-0.2-0.05-0.62-0.6-1.03c-0.54-0.41-1.45-0.76-2.49-0.76c-1.04,0-1.96,0.34-2.5,0.74
															C642.56,338.1,642.37,338.52,642.51,338.73z"/>
													</g>
												</g>
											</g>
										</g>
									</g>
								</g>
							</g>
						</g>
						<g>
							<g>
								<g>
									<g>
										<g>
											<g>
												<g>
													<path class="st6" d="M640.63,332.72c0,0,3.4-7.28,7.05-8.88c4.42-1.94,6.13,2.86,10.31,1.86
														c4.19-1.01,8.41-2.87,12.53,0.46c4.51,3.64,2.26,6,2.36,11.25c0.42,21.26,4.11,27.4,5.58,17.44
														c0.16-1.09,3.26-1.86,3.87-6.47c0.8-5.98,1.29-13.26,0.09-17.56c-1.01-3.63-2.99-6.18-6.59-9.04
														c-5.69-4.52-13.71-4.89-19.18-4.53C651.18,317.59,640.46,323.45,640.63,332.72z"/>
												</g>
											</g>
										</g>
									</g>
								</g>
							</g>
						</g>
						<g>
							<g>
								<g>
									<g>
										<g>
											<g>
												<g>
													<path class="st34" d="M677.71,354.49c0.14-1.82,1.77-3.2,3.59-2.97c2.21,0.29,4.64,1.62,4.33,6.16
														c-0.54,8.06-8.59,5.85-8.59,5.62C677.05,363.15,677.46,357.86,677.71,354.49z"/>
												</g>
											</g>
										</g>
									</g>
								</g>
							</g>
						</g>
						<g>
							<g>
								<g>
									<g>
										<g>
											<g>
												<g>
													<path class="st35" d="M679.03,360.4c0.04-0.02,0.14,0.11,0.37,0.23c0.23,0.12,0.62,0.22,1.06,0.09
														c0.88-0.26,1.69-1.56,1.83-3.01c0.07-0.73-0.04-1.44-0.26-2.04c-0.21-0.61-0.56-1.04-0.99-1.15
														c-0.42-0.13-0.75,0.11-0.86,0.33c-0.12,0.22-0.08,0.38-0.13,0.39c-0.02,0.02-0.17-0.15-0.08-0.48
														c0.04-0.16,0.15-0.34,0.35-0.48c0.21-0.14,0.5-0.21,0.8-0.15c0.62,0.08,1.15,0.69,1.39,1.35
														c0.28,0.66,0.42,1.46,0.34,2.28c-0.16,1.62-1.1,3.08-2.3,3.34c-0.58,0.11-1.05-0.09-1.28-0.3
														C679.03,360.59,679,360.41,679.03,360.4z"/>
												</g>
											</g>
										</g>
									</g>
								</g>
							</g>
						</g>
					</g>
					<g>
						<g>
							<g>
								<g>
									<g>
										<g>
											<path class="st6" d="M678.1,338.86c-1.08,0.68-2.22,1.38-3.5,1.46c-1.28,0.08-2.71-0.69-2.88-1.95
												c-0.08-0.56,0.08-1.21-0.27-1.66c-0.43-0.53-1.25-0.4-1.94-0.35c-2.37,0.17-4.74-1.58-5.26-3.88
												c-0.63,0.87-2.04,0.79-2.93,0.17c-0.89-0.61-1.45-1.59-2.13-2.43c-0.69-0.84-1.66-1.6-2.74-1.48
												c-0.6,0.06-1.18,0.4-1.78,0.33c-1.06-0.13-1.54-1.39-1.67-2.45c-0.12-1.06-0.21-2.29-1.09-2.89
												c-0.82-0.56-1.92-0.29-2.91-0.18c-0.99,0.11-2.25-0.16-2.47-1.13c-0.11-0.5,0.12-1.02,0.42-1.45
												c1.34-1.93,4.13-2.72,6.29-1.76c0.89-2.64,3.48-4.63,6.27-4.82c2.8-0.2,5.64,1.41,6.89,3.9
												c1.77-1.49,4.29-2.05,6.54-1.46c2.25,0.59,4.15,2.32,4.95,4.48c2-0.45,4.22,0.39,5.42,2.04c1.2,1.65,1.29,4.01,0.23,5.74
												c1.43,0.88,2.63,2.36,2.61,4.03c-0.03,1.67-1.73,3.28-3.34,2.78c0.61,1.32,0.01,3.07-1.28,3.75
												c-1.3,0.68-3.09,0.19-3.85-1.05"/>
										</g>
									</g>
								</g>
							</g>
						</g>
					</g>
				</g>
				<g>
					<g>
						<g>
							<g>
								<g>
									<g>
										<path class="st36" d="M683.42,335.91c0.03-0.02,0.13,0.68-0.56,1.53c-0.34,0.4-0.91,0.81-1.66,0.91
											c-0.74,0.1-1.63-0.11-2.3-0.75l0.35-0.04c-0.43,0.68-0.98,1.37-1.69,1.96c-0.46,0.37-0.96,0.69-1.51,0.86
											c-0.54,0.19-1.15,0.19-1.64,0.09c-1.03-0.15-1.91-0.73-2.3-1.42c-0.41-0.67-0.53-1.29-0.6-1.7
											c-0.07-0.42-0.07-0.65-0.04-0.65c0.04-0.01,0.1,0.22,0.22,0.61c0.12,0.39,0.29,0.98,0.7,1.56
											c0.73,1.18,3.22,1.86,4.88,0.28c0.66-0.54,1.2-1.19,1.61-1.83l0.15-0.23l0.19,0.19c0.54,0.54,1.3,0.75,1.94,0.69
											c0.65-0.05,1.16-0.38,1.5-0.72C683.33,336.55,683.35,335.89,683.42,335.91z"/>
									</g>
								</g>
							</g>
						</g>
					</g>
				</g>
				<g>
					<g>
						<g>
							<g>
								<g>
									<g>
										<path class="st35" d="M660.59,360.84c-0.13,0-0.15-0.86-0.82-1.58c-0.64-0.75-1.49-0.88-1.48-1.01
											c0-0.06,0.23-0.12,0.6-0.04c0.36,0.07,0.85,0.31,1.23,0.74c0.38,0.43,0.56,0.94,0.59,1.3
											C660.74,360.62,660.65,360.84,660.59,360.84z"/>
									</g>
								</g>
							</g>
						</g>
					</g>
				</g>
				<g>
					<g>
						<g>
							<g>
								<g>
									<g>
										<path class="st35" d="M661.39,358.63c-0.12,0.06-0.4-0.23-0.83-0.43c-0.42-0.22-0.82-0.27-0.84-0.41
											c-0.03-0.12,0.49-0.29,1.05-0.01C661.34,358.07,661.51,358.58,661.39,358.63z"/>
									</g>
								</g>
							</g>
						</g>
					</g>
				</g>
			</g>
			<g>
				<g>
					<g>
						<g>
							<path class="st26" d="M646.51,313.25c-0.04-0.08-0.88,0.45-1.54,1.79c-0.33,0.66-0.64,1.5-0.73,2.49
								c-0.11,0.99,0.15,2.15,0.84,3.1c0.7,0.94,1.66,1.54,2.54,1.95c0.88,0.42,1.71,0.69,2.4,0.9c1.39,0.42,2.25,0.65,2.27,0.58
								c0.03-0.08-0.79-0.45-2.14-0.96c-0.67-0.26-1.47-0.57-2.3-0.99c-0.83-0.42-1.69-0.99-2.31-1.82
								c-0.6-0.84-0.84-1.82-0.78-2.72c0.05-0.9,0.3-1.71,0.57-2.35C645.87,313.89,646.55,313.31,646.51,313.25z"/>
						</g>
					</g>
				</g>
			</g>
			<g>
				<g>
					<g>
						<g>
							<path class="st26" d="M641.34,318.55c-0.07,0-0.12,0.51,0.1,1.3c0.21,0.78,0.76,1.81,1.69,2.67
								c0.93,0.85,2.01,1.31,2.81,1.46c0.81,0.15,1.31,0.06,1.31,0c0-0.09-0.48-0.15-1.21-0.39c-0.72-0.24-1.67-0.71-2.53-1.49
								c-0.85-0.78-1.4-1.68-1.69-2.38C641.53,319.02,641.44,318.54,641.34,318.55z"/>
						</g>
					</g>
				</g>
			</g>
		</g>
		<g>
			<g>
				<g>
					<path class="st25" d="M632.83,395.87l-11.7,93.47c-0.57,4.54,3.55,12.81,7.99,13.93l59.14,6.44c3.59,0.62,6.5-2.14,6.92-5.75
						c1.48-12.68,2.49-39.32,4.32-56.67c2.01-19.13,5.69-43.45,1.24-46.91c-9.33-7.25-22.65-13.85-22.65-13.85l-0.99-8.69
						c0,0-26.37,3.04-30.86,6.94l-2.09,8.4L632.83,395.87z"/>
				</g>
			</g>
			<path class="st25" d="M642.19,394.23l-54.26,5.13l-42.2-20.67l-8.92,18.53l6.46,3.36c10.4,6.64,29.38,20.57,37.28,24.06
				c11.08,4.89,66.71-1.42,66.71-1.42L642.19,394.23z"/>
			<g>
				<path class="st6" d="M626.82,425.51c0-0.08,1.31,0.01,3.57-0.51c2.23-0.52,5.49-1.81,8.41-4.76c2.9-2.9,5.35-7.53,5.67-12.98
					c0.12-2.7-0.4-5.6-1.74-8.22c-0.66-1.3-1.55-2.55-2.89-3.13c-1.33-0.58-2.93-0.66-4.47-0.55c-12.71,0.94-24.22,2.07-32.55,2.78
					c-4.1,0.35-7.45,0.64-9.87,0.85c-1.11,0.08-2,0.15-2.69,0.21c-0.61,0.04-0.94,0.05-0.94,0.03c0-0.02,0.32-0.08,0.93-0.17
					c0.68-0.09,1.57-0.2,2.67-0.34c2.41-0.26,5.75-0.63,9.85-1.08c8.33-0.84,19.81-2.05,32.56-2.99c1.62-0.11,3.27-0.05,4.81,0.61
					c1.56,0.68,2.55,2.11,3.23,3.46c1.39,2.75,1.92,5.76,1.78,8.57c-0.37,5.65-2.95,10.37-5.97,13.31
					c-3.06,2.98-6.42,4.22-8.71,4.67c-1.16,0.23-2.07,0.28-2.69,0.29C627.14,425.56,626.82,425.53,626.82,425.51z"/>
			</g>
			<g>
				<path class="st6" d="M678.1,386.53c0.01,0.11-1.9,0.4-4.97,0.99c-3.07,0.58-7.28,1.55-11.92,2.68c-4.64,1.13-8.89,2.02-12,2.48
					c-1.55,0.23-2.81,0.39-3.69,0.45c-0.88,0.07-1.36,0.09-1.37,0.04c-0.01-0.11,1.9-0.4,4.97-0.99c3.07-0.58,7.28-1.55,11.92-2.68
					c4.64-1.13,8.89-2.02,12-2.48c1.55-0.23,2.81-0.39,3.69-0.45C677.61,386.5,678.09,386.48,678.1,386.53z"/>
			</g>
			<g>
				<path class="st6" d="M702.44,410.09c0.02,0,0.01,0.36-0.05,1.03c-0.07,0.74-0.17,1.72-0.29,2.94c-0.27,2.63-0.65,6.3-1.11,10.8
					c-0.9,9.12-2,21.74-2.77,35.71c-0.39,6.98-0.66,13.64-0.85,19.7c-0.08,3.03-0.15,5.9-0.22,8.6c-0.06,2.69-0.06,5.21-0.21,7.51
					c-0.17,2.3-0.47,4.38-1.01,6.14c-0.52,1.77-1.25,3.2-2.03,4.25c-0.76,1.06-1.56,1.69-2.1,2.1c-0.58,0.36-0.88,0.54-0.9,0.52
					c-0.09-0.1,1.33-0.67,2.77-2.78c0.72-1.04,1.39-2.46,1.87-4.19c0.49-1.74,0.75-3.79,0.89-6.06c0.12-2.28,0.09-4.79,0.13-7.49
					c0.03-2.7,0.07-5.58,0.16-8.61c0.15-6.07,0.4-12.73,0.79-19.72c0.77-13.98,1.95-26.61,2.98-35.72
					c0.52-4.56,0.99-8.24,1.34-10.78c0.18-1.21,0.32-2.19,0.43-2.92C702.35,410.43,702.41,410.08,702.44,410.09z"/>
			</g>
		</g>
		<g>
			<g>
				<g>
					<g>
						<g>
							<g>
								<g>
									<g>
										<g>
											<g>
												<g>
													<g>
														<g>
															<g>
																<g>
																	<g>
																		<g>
																			<path class="st36" d="M581.88,639.88l10.59,23.62c0,0-27.88,10.91-28.11,16.1l54.26-0.98l-0.07-4.53
																				l-11.97-38.96L581.88,639.88z"/>
																		</g>
																	</g>
																</g>
															</g>
														</g>
													</g>
												</g>
											</g>
										</g>
									</g>
								</g>
							</g>
						</g>
					</g>
					<g>
						<g>
							<g>
								<g>
									<g>
										<g>
											<g>
												<g>
													<g>
														<g>
															<g>
																<g>
																	<g>
																		<g>
																			<g>
																				<path class="st26" d="M608.37,659.25c1.06,0.27,1.8,1.44,1.58,2.5c-0.22,1.07-1.41,1.84-2.47,1.59
																					c-1.06-0.25-2-1.62-1.66-2.66c0.34-1.03,1.78-1.86,2.75-1.37"/>
																			</g>
																		</g>
																	</g>
																</g>
															</g>
														</g>
													</g>
												</g>
											</g>
										</g>
									</g>
								</g>
							</g>
						</g>
					</g>
					<g>
						<g>
							<g>
								<g>
									<g>
										<g>
											<g>
												<g>
													<g>
														<g>
															<g>
																<g>
																	<g>
																		<g>
																			<path class="st6" d="M618.62,678.62l-0.07-4.53l-52.1,2.72c0,0-2.4,1.09-2.09,2.79L618.62,678.62z"/>
																		</g>
																	</g>
																</g>
															</g>
														</g>
													</g>
												</g>
											</g>
										</g>
									</g>
								</g>
							</g>
						</g>
					</g>
					<g>
						<g>
							<g>
								<g>
									<g>
										<g>
											<g>
												<g>
													<g>
														<g>
															<g>
																<g>
																	<g>
																		<g>
																			<g>
																				<path class="st6" d="M591.58,663.24c0.01,0.27,1.34,0.36,2.66,1.19c1.34,0.79,2.03,1.93,2.28,1.82
																					c0.24-0.06-0.18-1.63-1.8-2.61C593.12,662.65,591.52,662.99,591.58,663.24z"/>
																			</g>
																		</g>
																	</g>
																</g>
															</g>
														</g>
													</g>
												</g>
											</g>
										</g>
									</g>
								</g>
							</g>
						</g>
					</g>
					<g>
						<g>
							<g>
								<g>
									<g>
										<g>
											<g>
												<g>
													<g>
														<g>
															<g>
																<g>
																	<g>
																		<g>
																			<g>
																				<path class="st6" d="M585.94,665.69c-0.06,0.26,1.1,0.69,2.02,1.79c0.95,1.08,1.2,2.28,1.47,2.27
																					c0.25,0.04,0.41-1.52-0.77-2.87C587.5,665.52,585.94,665.44,585.94,665.69z"/>
																			</g>
																		</g>
																	</g>
																</g>
															</g>
														</g>
													</g>
												</g>
											</g>
										</g>
									</g>
								</g>
							</g>
						</g>
					</g>
					<g>
						<g>
							<g>
								<g>
									<g>
										<g>
											<g>
												<g>
													<g>
														<g>
															<g>
																<g>
																	<g>
																		<g>
																			<g>
																				<path class="st6" d="M582.83,672.56c0.24,0.05,0.59-1.28-0.12-2.72c-0.7-1.44-1.96-1.99-2.06-1.77
																					c-0.15,0.22,0.67,0.98,1.23,2.17C582.47,671.43,582.56,672.54,582.83,672.56z"/>
																			</g>
																		</g>
																	</g>
																</g>
															</g>
														</g>
													</g>
												</g>
											</g>
										</g>
									</g>
								</g>
							</g>
						</g>
					</g>
					<g>
						<g>
							<g>
								<g>
									<g>
										<g>
											<g>
												<g>
													<g>
														<g>
															<g>
																<g>
																	<g>
																		<g>
																			<g>
																				<path class="st6" d="M589.61,657.08c0.12,0.24,1.32-0.15,2.82-0.07c1.5,0.04,2.68,0.53,2.81,0.3
																					c0.15-0.19-1.01-1.15-2.77-1.22C590.7,656.01,589.47,656.87,589.61,657.08z"/>
																			</g>
																		</g>
																	</g>
																</g>
															</g>
														</g>
													</g>
												</g>
											</g>
										</g>
									</g>
								</g>
							</g>
						</g>
					</g>
				</g>
			</g>
			<g>
				<g>
					<g>
						<g>
							<g>
								<g>
									<polygon class="st36" points="677.29,697.6 678.5,742.64 654.82,742.57 653.55,698.63 									"/>
								</g>
							</g>
						</g>
					</g>
					<g>
						<g>
							<g>
								<g>
									<g>
										<path class="st6" d="M666.74,740.36c-0.2,0-0.5-9.6-0.66-21.45c-0.17-11.85-0.15-21.45,0.05-21.46
											c0.2,0,0.5,9.6,0.66,21.45C666.96,730.75,666.94,740.35,666.74,740.36z"/>
									</g>
								</g>
							</g>
						</g>
					</g>
					<g>
						<g>
							<g>
								<g>
									<g>
										<path class="st6" d="M654.41,728.53c-0.04-0.03,0.16-0.38,0.58-0.97c0.43-0.59,1.1-1.41,2.06-2.3
											c0.96-0.89,2.2-1.87,3.76-2.65c1.55-0.8,3.45-1.38,5.49-1.4c4.09-0.09,7.58,1.84,9.32,3.8c0.9,0.97,1.47,1.88,1.79,2.53
											c0.32,0.66,0.44,1.05,0.4,1.06c-0.13,0.07-0.73-1.46-2.55-3.24c-1.76-1.79-5.07-3.52-8.95-3.44
											c-3.87,0.07-7.02,2.09-8.92,3.72C655.45,727.29,654.51,728.61,654.41,728.53z"/>
									</g>
								</g>
							</g>
						</g>
					</g>
				</g>
				<g>
					<polygon class="st6" points="678.42,742.68 654.84,742.57 654.67,737.25 678.44,737.36 					"/>
				</g>
			</g>
			<g>
				<g>
					<path class="st6" d="M679.17,506.83l-49.1-4.31l-0.82,5.39c-12.51,10.02-51.5,33.98-71.63,53.6c0,0-7.43,10.37-4.47,19.49
						l31.47,71.35l32.04-7.39l-19.55-60.56l60.13-28.08c11.69-4.33,22.22-19.08,24.71-27.54
						C684.08,521.55,679.49,516.1,679.17,506.83z"/>
				</g>
				<g>
					<path class="st6" d="M637.93,563.66l12.99,151.56l32.79-0.18c0,0,1.05-46.27,0.4-77.47c-0.65-31.2,3.14-94.6,3.14-94.6
						L637.93,563.66z"/>
				</g>
				<g>
					<path class="st6" d="M679.17,506.83l15.76,1.74c0,0,1.56,31.48,0.42,35.47c-1.14,3.99-9.65,19.79-9.65,19.79l-46.62,13.57
						v-35.5L679.17,506.83z"/>
				</g>
				<g>
					<g>
						<path class="st36" d="M675.02,539.06c0.02,0.01-0.11,0.3-0.39,0.85c-0.29,0.53-0.64,1.38-1.29,2.34
							c-1.18,1.99-3.17,4.77-6.27,7.57c-3.07,2.82-7.22,5.61-12.1,8.13c-4.87,2.56-10.42,4.9-16.15,7.57
							c-11.47,5.25-21.84,10.01-29.44,13.48c-3.73,1.67-6.77,3.04-8.95,4.02c-1.02,0.44-1.83,0.79-2.45,1.06
							c-0.56,0.24-0.86,0.35-0.87,0.33c-0.01-0.02,0.27-0.17,0.82-0.45c0.61-0.3,1.4-0.69,2.4-1.17c2.16-1.03,5.17-2.45,8.86-4.21
							c7.57-3.52,17.92-8.34,29.36-13.66c5.73-2.67,11.29-4.99,16.14-7.5c4.87-2.48,8.99-5.2,12.07-7.94
							c3.1-2.72,5.13-5.42,6.37-7.36C674.38,540.18,674.95,539.03,675.02,539.06z"/>
					</g>
				</g>
				<g>
					<g>
						<path class="st36" d="M576.26,581.69c-0.01-0.08,1.27-0.41,3.39-0.66c2.12-0.25,5.1-0.38,8.35-0.01
							c3.26,0.35,6.13,1.15,8.14,1.9c2,0.76,3.16,1.42,3.12,1.48c-0.04,0.1-1.26-0.4-3.28-1.04c-2.02-0.63-4.86-1.34-8.06-1.69
							c-3.2-0.37-6.13-0.31-8.24-0.18C577.58,581.63,576.28,581.79,576.26,581.69z"/>
					</g>
				</g>
			</g>
			<polygon class="st36" points="628.89,507.87 695.18,514.13 694.96,509.27 630.07,502.53 			"/>
			<path class="st6" d="M642.93,509.88c0.19-0.39,0.67-6.14,0.67-6.14l3.61,0.37l-0.87,7.03L642.93,509.88z"/>
			<path class="st6" d="M677.69,513.58c0.19-0.39,0.67-6.14,0.67-6.14l3.61,0.37l-0.87,7.03L677.69,513.58z"/>
		</g>
	</g>
</g>
</svg>
