<svg xmlns="http://www.w3.org/2000/svg" xmlns:xlink="http://www.w3.org/1999/xlink" viewBox="0 0 1080 1080"><defs><style>.cls-1{isolation:isolate;}.cls-2{fill:#cecece;opacity:0.3;}.cls-3{fill:#fffffa;}.cls-4{fill:#2557a0;}.cls-5{fill:#f4eefa;}.cls-6{fill:url(#linear-gradient);}.cls-7{fill:#201e60;}.cls-8{fill:#fff;}.cls-11,.cls-15,.cls-9{fill:none;}.cls-9{stroke:#00e0dc;stroke-width:0.76px;}.cls-15,.cls-9{stroke-miterlimit:10;}.cls-10{fill:url(#linear-gradient-2);}.cls-11{stroke:#6e59f3;stroke-linecap:round;stroke-linejoin:round;stroke-width:1.67px;}.cls-12{fill:#272262;opacity:0.5;mix-blend-mode:multiply;}.cls-13{fill:#91b3fa;}.cls-14{fill:#089bcb;}.cls-15{stroke:#0c03c6;stroke-width:0.63px;}.cls-16{fill:#322d7b;}.cls-17{fill:#3577d8;}.cls-18{fill:#363080;}.cls-19{fill:#ccd0fb;}.cls-20{fill:#298aff;}</style><linearGradient id="linear-gradient" x1="427.74" y1="586.12" x2="628.05" y2="586.12" gradientUnits="userSpaceOnUse"><stop offset="0" stop-color="#089bcb"/><stop offset="1" stop-color="#143c83"/></linearGradient><linearGradient id="linear-gradient-2" x1="485.6" y1="425.67" x2="570.19" y2="425.67" xlink:href="#linear-gradient"/></defs><g class="cls-1"><g id="Layer_1" data-name="Layer 1"><ellipse id="_Path_" data-name="&lt;Path&gt;" class="cls-2" cx="527.54" cy="758.57" rx="151.43" ry="8.59"/><path class="cls-3" d="M850.76,543.14a2.17,2.17,0,0,1-2.17,2.17h0a2.17,2.17,0,0,1-2.17-2.17V529.8a2.17,2.17,0,0,1,2.17-2.17h0a2.17,2.17,0,0,1,2.17,2.17Z"/><path class="cls-3" d="M850.76,567.13a2.17,2.17,0,0,1-2.17,2.17h0a2.17,2.17,0,0,1-2.17-2.17V553.78a2.17,2.17,0,0,1,2.17-2.17h0a2.17,2.17,0,0,1,2.17,2.17Z"/><path class="cls-4" d="M473.23,398.46c-22.73,0-43.07-21.83-43.07-21.83s-20.34,21.83-43.07,21.83c0,0-1.8,60.72,43.07,86.14C475,459.18,473.23,398.46,473.23,398.46Z"/><path class="cls-5" d="M430.16,473.86c-26.55-18.14-32.36-51.94-33.61-67.25,14.2-2.88,26.45-11.51,33.61-17.55,7.16,6,19.41,14.67,33.62,17.55C462.52,421.91,456.72,455.72,430.16,473.86Z"/><rect class="cls-6" x="427.74" y="414" width="200.32" height="344.23" rx="7.52"/><rect class="cls-7" x="427.63" y="431.51" width="200.52" height="287.67"/><path class="cls-8" d="M555.24,738.29a4.89,4.89,0,0,1-5,4.74H505.56a4.75,4.75,0,1,1,0-9.48h44.67A4.89,4.89,0,0,1,555.24,738.29Z"/><rect class="cls-9" x="438.08" y="445.33" width="179.64" height="267.36"/><path class="cls-10" d="M532.91,414H489.15c-2.76,0-4.22,2.12-3.25,4.7l5.23,13.95a7.79,7.79,0,0,0,6.77,4.69h60a7.79,7.79,0,0,0,6.77-4.69l5.23-13.95c1-2.58-.49-4.7-3.25-4.7Z"/><path class="cls-8" d="M510.87,425.67a2.72,2.72,0,1,1-2.71-2.71A2.72,2.72,0,0,1,510.87,425.67Z"/><line class="cls-11" x1="516.93" y1="425.67" x2="550.35" y2="425.67"/><path class="cls-12" d="M568.75,414a20.7,20.7,0,0,0,41.39,0Z"/><circle class="cls-4" cx="589.45" cy="407.67" r="20.72" transform="translate(-115.62 536.21) rotate(-45)"/><path class="cls-8" d="M580.64,410.47a3.46,3.46,0,0,0,2.82-1.37l1.51,1.55a5.69,5.69,0,0,1-8.22.48,5.55,5.55,0,0,1,0-7.77,5.37,5.37,0,0,1,3.92-1.57,5.56,5.56,0,0,1,4.33,2l-1.46,1.65A3.41,3.41,0,0,0,580.8,404a3.22,3.22,0,0,0-2.26.87,3,3,0,0,0-.94,2.33,3.19,3.19,0,0,0,.89,2.35A2.92,2.92,0,0,0,580.64,410.47Z"/><path class="cls-8" d="M588.88,410.9v-2.7h-2.63v-1.85h2.63v-2.71H591v2.71h2.64v1.85H591v2.7Z"/><path class="cls-8" d="M597.66,410.9v-2.7H595v-1.85h2.63v-2.71h2.08v2.71h2.63v1.85h-2.63v2.7Z"/><circle class="cls-12" cx="577.19" cy="612.51" r="20.72" transform="translate(-119.54 1084.62) rotate(-80.82)"/><circle class="cls-13" cx="577.19" cy="606.59" r="20.72" transform="translate(-187.02 264.41) rotate(-22.3)"/><path class="cls-8" d="M563.58,604.06v-1.51h4.1v5.14a2.82,2.82,0,0,1-.72,2.11,2.58,2.58,0,0,1-1.87.7,3.33,3.33,0,0,1-2.48-1.1l.91-1.26a2.06,2.06,0,0,0,1.49.77.85.85,0,0,0,.64-.29,1.26,1.26,0,0,0,.26-.86v-3.7Z"/><path class="cls-8" d="M575.06,610.43l-.73-1.7H571l-.73,1.7h-1.87l3.4-7.88h1.7l3.41,7.88Zm-2.38-5.54-1,2.29h2Z"/><path class="cls-8" d="M580.27,607.57l2-5h1.9L581,610.43h-1.49l-3.17-7.88h1.9Z"/><path class="cls-8" d="M590.25,610.43l-.73-1.7h-3.31l-.73,1.7h-1.87l3.4-7.88h1.71l3.41,7.88Zm-2.38-5.54-1,2.29h2Z"/><circle class="cls-4" cx="396.83" cy="526.21" r="20.72"/><path class="cls-8" d="M386.1,521.94h1.76v7.89H386.1v-3.1H383v3.1h-1.76v-7.89H383v3.3h3.13Z"/><path class="cls-8" d="M393.14,523.47v6.36h-1.76v-6.36h-2.23v-1.53h6.23v1.53Z"/><path class="cls-8" d="M403.72,524.86l-2.13,4.31h-1l-2.12-4.31v5h-1.76v-7.89H399l2,4.33,2-4.33h2.37v7.89h-1.76Z"/><path class="cls-8" d="M407.42,529.83v-7.89h1.76v6.32h3.36v1.57Z"/><polygon class="cls-12" points="628.15 491.31 547.45 491.31 547.45 530.17 598.89 530.17 606.58 544.74 609.88 530.17 628.15 530.17 628.15 491.31"/><polygon class="cls-14" points="636.43 485.05 541.18 485.05 541.18 523.91 592.62 523.91 600.31 538.47 603.62 523.91 636.43 523.91 636.43 485.05"/><path class="cls-8" d="M570.88,504.53a4.7,4.7,0,1,1-4.7-4.7A4.7,4.7,0,0,1,570.88,504.53Z"/><path class="cls-8" d="M593.5,504.53a4.7,4.7,0,1,1-4.7-4.7A4.7,4.7,0,0,1,593.5,504.53Z"/><path class="cls-8" d="M616.12,504.53a4.7,4.7,0,1,1-4.7-4.7A4.7,4.7,0,0,1,616.12,504.53Z"/><line class="cls-15" x1="608.42" y1="456.32" x2="608.42" y2="478.19"/><line class="cls-15" x1="542.66" y1="455.04" x2="607.14" y2="455.04"/><line class="cls-15" x1="541.37" y1="478.19" x2="541.37" y2="456.32"/><line class="cls-15" x1="607.14" y1="479.48" x2="542.66" y2="479.48"/><path class="cls-15" d="M542.66,455a1.29,1.29,0,1,1-1.29-1.29A1.28,1.28,0,0,1,542.66,455Z"/><path class="cls-15" d="M609.71,455a1.29,1.29,0,1,1-1.29-1.29A1.28,1.28,0,0,1,609.71,455Z"/><path class="cls-15" d="M542.66,479.48a1.29,1.29,0,1,1-1.29-1.29A1.29,1.29,0,0,1,542.66,479.48Z"/><path class="cls-15" d="M609.71,479.48a1.29,1.29,0,1,1-1.29-1.29A1.29,1.29,0,0,1,609.71,479.48Z"/><rect class="cls-16" x="547.48" y="459.65" width="54.84" height="15.22"/><rect class="cls-15" x="545.55" y="458.05" width="58.69" height="18.41"/><line class="cls-15" x1="545.55" y1="458.05" x2="604.25" y2="476.46"/><line class="cls-15" x1="604.25" y1="458.05" x2="545.55" y2="476.46"/><line class="cls-15" x1="608.42" y1="549.49" x2="608.42" y2="571.36"/><line class="cls-15" x1="542.66" y1="548.21" x2="607.14" y2="548.21"/><line class="cls-15" x1="541.37" y1="571.36" x2="541.37" y2="549.49"/><line class="cls-15" x1="607.14" y1="572.65" x2="542.66" y2="572.65"/><path class="cls-15" d="M542.66,548.21a1.29,1.29,0,1,1-1.29-1.29A1.28,1.28,0,0,1,542.66,548.21Z"/><path class="cls-15" d="M609.71,548.21a1.29,1.29,0,1,1-1.29-1.29A1.28,1.28,0,0,1,609.71,548.21Z"/><path class="cls-15" d="M542.66,572.65a1.29,1.29,0,1,1-1.29-1.29A1.28,1.28,0,0,1,542.66,572.65Z"/><path class="cls-15" d="M609.71,572.65a1.29,1.29,0,1,1-1.29-1.29A1.28,1.28,0,0,1,609.71,572.65Z"/><rect class="cls-16" x="547.48" y="552.82" width="54.84" height="15.22"/><rect class="cls-15" x="545.55" y="551.22" width="58.69" height="18.41"/><line class="cls-15" x1="545.55" y1="551.22" x2="604.25" y2="569.63"/><line class="cls-15" x1="604.25" y1="551.22" x2="545.55" y2="569.63"/><rect class="cls-15" x="448.94" y="454.73" width="82.66" height="120.31"/><rect class="cls-16" x="454.44" y="460.58" width="71.65" height="108.62"/><path class="cls-17" d="M515.36,532.55V521.37H509a20.58,20.58,0,0,0-1.92-4.67l4.5-4.5-7.91-7.91-4.5,4.5a21.08,21.08,0,0,0-4.67-1.93v-6.37H483.31v6.37a20.88,20.88,0,0,0-4.67,1.93l-4.5-4.5-7.91,7.91,4.5,4.5a20.61,20.61,0,0,0-1.93,4.67h-6.37v11.18h6.37a20.61,20.61,0,0,0,1.93,4.67l-4.5,4.5,7.91,7.91,4.5-4.5a20.88,20.88,0,0,0,4.67,1.93v6.37h11.18v-6.37a21.08,21.08,0,0,0,4.67-1.93l4.5,4.5,7.91-7.91-4.5-4.5a20.58,20.58,0,0,0,1.92-4.67ZM488.9,537.4A10.44,10.44,0,1,1,499.34,527,10.44,10.44,0,0,1,488.9,537.4Z"/><path class="cls-17" d="M518.11,491v-5.1h-2.9a9.67,9.67,0,0,0-.88-2.12l2-2.06-3.61-3.6-2,2.05a9.28,9.28,0,0,0-2.13-.88v-2.9h-5.1v2.9a9.47,9.47,0,0,0-2.13.88l-2.05-2.05-3.6,3.6,2.05,2.06a9.21,9.21,0,0,0-.88,2.12H494V491h2.91a9.28,9.28,0,0,0,.88,2.13l-2.05,2,3.6,3.61,2.05-2.05a10,10,0,0,0,2.13.88v2.9h5.1v-2.9a9.75,9.75,0,0,0,2.13-.88l2,2.05,3.61-3.61-2-2a9.75,9.75,0,0,0,.88-2.13ZM506,493.18a4.76,4.76,0,1,1,4.76-4.76A4.76,4.76,0,0,1,506,493.18Z"/><rect class="cls-14" x="446.09" y="596.33" width="43.78" height="6.91"/><rect class="cls-14" x="498.42" y="596.33" width="12.44" height="6.91"/><rect class="cls-14" x="519.41" y="596.33" width="12.44" height="6.91"/><rect class="cls-14" x="463.9" y="581.41" width="67.31" height="6.91" transform="translate(995.1 1169.73) rotate(180)"/><rect class="cls-14" x="446.09" y="581.41" width="12.76" height="6.91" transform="translate(904.94 1169.73) rotate(180)"/><rect class="cls-18" x="545.44" y="641.68" width="63.5" height="63.5"/><rect class="cls-5" x="551.14" y="647.38" width="52.1" height="52.1"/><polygon class="cls-19" points="551.14 699.48 569.48 665.43 587.08 699.48 551.14 699.48"/><polygon class="cls-19" points="574.95 699.48 589.09 673.24 602.65 699.48 574.95 699.48"/><circle class="cls-19" cx="593.68" cy="656.64" r="4.23"/><rect class="cls-20" x="446.09" y="679.4" width="43.78" height="6.91"/><rect class="cls-20" x="498.42" y="679.4" width="12.44" height="6.91"/><rect class="cls-20" x="519.41" y="679.4" width="12.44" height="6.91"/><rect class="cls-14" x="446.09" y="666.86" width="47.31" height="6.91"/><rect class="cls-14" x="501.54" y="666.86" width="29.67" height="6.91"/><rect class="cls-14" x="483.75" y="691.93" width="47.31" height="6.91" transform="translate(1014.81 1390.78) rotate(180)"/><rect class="cls-14" x="445.95" y="691.93" width="29.67" height="6.91" transform="translate(921.56 1390.78) rotate(180)"/><rect class="cls-20" x="446.09" y="654.33" width="67.31" height="6.91"/><rect class="cls-20" x="518.45" y="654.33" width="12.76" height="6.91"/><rect class="cls-12" x="427.63" y="618.17" width="88.43" height="27.23"/><rect class="cls-14" x="414.81" y="612.51" width="95.25" height="27.23"/><path class="cls-8" d="M432.73,621.54a4.66,4.66,0,1,0-.63,7.11.93.93,0,0,0,.26.5l2.64,2.64a1,1,0,0,0,1.4,0,1,1,0,0,0,0-1.39l-2.65-2.65a1.06,1.06,0,0,0-.49-.26A4.66,4.66,0,0,0,432.73,621.54Zm-.83,5.75a3.48,3.48,0,1,1,0-4.91A3.48,3.48,0,0,1,431.9,627.29Z"/><path class="cls-8" d="M498.17,631h-48.7a4.84,4.84,0,0,1-4.84-4.84h0a4.83,4.83,0,0,1,4.84-4.84h48.7a4.84,4.84,0,0,1,4.84,4.84h0A4.84,4.84,0,0,1,498.17,631Z"/></g></g></svg>