<svg xmlns="http://www.w3.org/2000/svg" xmlns:xlink="http://www.w3.org/1999/xlink" viewBox="0 0 1080 1080"><defs><style>.cls-1{isolation:isolate;}.cls-2{fill:#00dfbf;}.cls-3{fill:#0b2f63;}.cls-11,.cls-14,.cls-26,.cls-4{fill:#fff;}.cls-4{opacity:0.4;}.cls-5{fill:url(#linear-gradient);}.cls-6{fill:url(#linear-gradient-2);}.cls-30,.cls-7{opacity:0.2;}.cls-8{fill:url(#linear-gradient-3);}.cls-9{opacity:0.05;}.cls-10,.cls-65{fill:#f5f5f5;}.cls-11,.cls-56{opacity:0.7;}.cls-12{fill:#ff9090;}.cls-13{fill:#143c83;}.cls-15{fill:url(#linear-gradient-4);}.cls-16{fill:#cc0d0d;}.cls-17{fill:#9d9eb3;}.cls-18{fill:url(#New_Gradient_Swatch_copy_22);}.cls-19{fill:url(#New_Gradient_Swatch_copy_22-2);}.cls-20{fill:url(#New_Gradient_Swatch_copy_22-3);}.cls-21{fill:url(#linear-gradient-5);}.cls-22{fill:url(#linear-gradient-6);}.cls-23{fill:url(#linear-gradient-7);}.cls-24{fill:url(#linear-gradient-8);}.cls-25,.cls-44,.cls-56{mix-blend-mode:screen;}.cls-25{fill:url(#New_Gradient_Swatch_1);}.cls-26{opacity:0.3;}.cls-27{fill:url(#linear-gradient-9);}.cls-28{fill:url(#linear-gradient-10);}.cls-29{fill:#fafafa;}.cls-31{opacity:0;}.cls-32{opacity:0.09;}.cls-33{opacity:0.18;}.cls-34{opacity:0.27;}.cls-35{opacity:0.36;}.cls-36{opacity:0.45;}.cls-37{opacity:0.55;}.cls-38{opacity:0.64;}.cls-39{opacity:0.73;}.cls-40{opacity:0.82;}.cls-41{opacity:0.91;}.cls-42{fill:url(#linear-gradient-11);}.cls-43,.cls-50,.cls-52,.cls-53,.cls-54,.cls-63{mix-blend-mode:color-dodge;}.cls-43{fill:url(#radial-gradient);}.cls-44{opacity:0.6;fill:url(#radial-gradient-2);}.cls-45{fill:url(#linear-gradient-12);}.cls-46{fill:url(#linear-gradient-13);}.cls-47{fill:url(#linear-gradient-14);}.cls-48{fill:#bcbec0;}.cls-48,.cls-76{mix-blend-mode:multiply;}.cls-49{fill:url(#linear-gradient-15);}.cls-50{fill:url(#Radial_Gradient_1);}.cls-51{fill:url(#linear-gradient-16);}.cls-52{fill:url(#radial-gradient-3);}.cls-53{fill:url(#radial-gradient-4);}.cls-54{fill:url(#radial-gradient-5);}.cls-55{fill:url(#linear-gradient-17);}.cls-57{fill:url(#radial-gradient-6);}.cls-58{fill:url(#radial-gradient-7);}.cls-59{fill:url(#radial-gradient-8);}.cls-60{fill:url(#linear-gradient-18);}.cls-61{fill:url(#linear-gradient-19);}.cls-62{fill:url(#linear-gradient-20);}.cls-63{fill:url(#radial-gradient-9);}.cls-64{fill:url(#linear-gradient-21);}.cls-65{font-size:36.09px;font-family:ArialRoundedMTBold, Arial Rounded MT Bold;}.cls-66{fill:url(#linear-gradient-22);}.cls-67{fill:url(#linear-gradient-23);}.cls-68{fill:url(#linear-gradient-24);}.cls-69{fill:url(#linear-gradient-25);}.cls-70{fill:url(#linear-gradient-26);}.cls-71{fill:url(#linear-gradient-27);}.cls-72{fill:url(#linear-gradient-28);}.cls-73{fill:#1f3263;}.cls-74{fill:#089bcb;}.cls-75{fill:none;stroke:#422889;stroke-miterlimit:10;stroke-width:0.25px;}.cls-76{opacity:0.35;}.cls-77{fill:#584eb7;}.cls-78{fill:#bec6ea;}.cls-79,.cls-83,.cls-84{opacity:0.16;}.cls-79{fill:url(#linear-gradient-29);}.cls-80{fill:#f5cfc0;}.cls-81{fill:#0e3e77;}.cls-82{fill:#dfe2f4;}.cls-83{fill:url(#linear-gradient-30);}.cls-84{fill:url(#linear-gradient-31);}</style><linearGradient id="linear-gradient" x1="214.1" y1="619.16" x2="245.88" y2="619.16" gradientUnits="userSpaceOnUse"><stop offset="0" stop-color="#143c83"/><stop offset="1" stop-color="#089bcb"/></linearGradient><linearGradient id="linear-gradient-2" x1="235.3" y1="522.99" x2="595.52" y2="522.99" gradientUnits="userSpaceOnUse"><stop offset="0" stop-color="#089bcb"/><stop offset="1" stop-color="#143c83"/></linearGradient><linearGradient id="linear-gradient-3" x1="219.59" y1="328.99" x2="579.82" y2="328.99" xlink:href="#linear-gradient-2"/><linearGradient id="linear-gradient-4" x1="343.37" y1="490.24" x2="458.16" y2="464.51" xlink:href="#linear-gradient-2"/><radialGradient id="New_Gradient_Swatch_copy_22" cx="381.28" cy="375.11" r="63.96" gradientUnits="userSpaceOnUse"><stop offset="0" stop-color="#eeebf2"/><stop offset="0.58" stop-color="#d4d1d8"/><stop offset="0.94" stop-color="#a5a6b9"/><stop offset="1" stop-color="#9d9eb3"/></radialGradient><radialGradient id="New_Gradient_Swatch_copy_22-2" cx="381.28" cy="375.11" r="63.96" xlink:href="#New_Gradient_Swatch_copy_22"/><radialGradient id="New_Gradient_Swatch_copy_22-3" cx="381.28" cy="375.11" r="63.96" xlink:href="#New_Gradient_Swatch_copy_22"/><linearGradient id="linear-gradient-5" x1="359.31" y1="396.12" x2="389.12" y2="396.12" xlink:href="#linear-gradient-2"/><linearGradient id="linear-gradient-6" x1="389.12" y1="396.12" x2="418.94" y2="396.12" xlink:href="#linear-gradient-2"/><linearGradient id="linear-gradient-7" x1="360.31" y1="372.34" x2="389.12" y2="372.34" xlink:href="#linear-gradient-2"/><linearGradient id="linear-gradient-8" x1="389.12" y1="372.34" x2="417.94" y2="372.34" xlink:href="#linear-gradient-2"/><linearGradient id="New_Gradient_Swatch_1" x1="371.65" y1="351.6" x2="395.62" y2="394.82" gradientUnits="userSpaceOnUse"><stop offset="0" stop-color="#fff"/><stop offset="1"/></linearGradient><linearGradient id="linear-gradient-9" x1="382.14" y1="688.94" x2="517.61" y2="688.94" xlink:href="#linear-gradient-2"/><linearGradient id="linear-gradient-10" x1="382.16" y1="673.95" x2="465.62" y2="673.95" xlink:href="#linear-gradient-2"/><linearGradient id="linear-gradient-11" x1="637.77" y1="303.73" x2="766.22" y2="526.21" gradientUnits="userSpaceOnUse"><stop offset="0.06" stop-color="#143c83"/><stop offset="0.2" stop-color="#163a85"/><stop offset="0.27" stop-color="#1d328b"/><stop offset="0.33" stop-color="#282595"/><stop offset="0.35" stop-color="#311b9d"/><stop offset="0.38" stop-color="#351f9e"/><stop offset="0.42" stop-color="#432ca3"/><stop offset="0.45" stop-color="#5842a9"/><stop offset="0.49" stop-color="#7760b3"/><stop offset="0.5" stop-color="#8770b8"/><stop offset="0.53" stop-color="#615fa7"/><stop offset="0.56" stop-color="#405097"/><stop offset="0.58" stop-color="#28458c"/><stop offset="0.61" stop-color="#193e85"/><stop offset="0.63" stop-color="#143c83"/><stop offset="0.66" stop-color="#172c81"/><stop offset="0.72" stop-color="#1c147f"/><stop offset="0.77" stop-color="#1f057e"/><stop offset="0.81" stop-color="#20007d"/><stop offset="1" stop-color="#143c83"/></linearGradient><radialGradient id="radial-gradient" cx="837.38" cy="394.12" r="241.04" gradientUnits="userSpaceOnUse"><stop offset="0"/><stop offset="0.11" stop-color="#07142a"/><stop offset="0.22" stop-color="#0c2550"/><stop offset="0.32" stop-color="#11326c"/><stop offset="0.41" stop-color="#13397c"/><stop offset="0.48" stop-color="#143c82"/><stop offset="1" stop-color="#143c83"/></radialGradient><radialGradient id="radial-gradient-2" cx="797.06" cy="376.9" r="142.01" gradientUnits="userSpaceOnUse"><stop offset="0" stop-color="#fff"/><stop offset="1" stop-color="#143c83"/></radialGradient><linearGradient id="linear-gradient-12" x1="813.63" y1="660.83" x2="614.26" y2="239.58" gradientUnits="userSpaceOnUse"><stop offset="0" stop-color="#311b61"/><stop offset="0" stop-color="#280d74"/><stop offset="0" stop-color="#200085"/><stop offset="0.48" stop-color="#180056"/><stop offset="1" stop-color="#0f001f"/></linearGradient><linearGradient id="linear-gradient-13" x1="667.51" y1="484.35" x2="792.71" y2="484.35" gradientUnits="userSpaceOnUse"><stop offset="0" stop-color="#143c83"/><stop offset="0.02" stop-color="#15387f"/><stop offset="0.34" stop-color="#1d1052"/><stop offset="0.49" stop-color="#200041"/><stop offset="1" stop-color="#0f001f"/></linearGradient><linearGradient id="linear-gradient-14" x1="653.36" y1="338.01" x2="843.84" y2="701.23" xlink:href="#linear-gradient-2"/><linearGradient id="linear-gradient-15" x1="759.89" y1="531" x2="779.44" y2="496.62" xlink:href="#linear-gradient-2"/><radialGradient id="Radial_Gradient_1" cx="765.59" cy="539.94" r="28.46" xlink:href="#New_Gradient_Swatch_1"/><linearGradient id="linear-gradient-16" x1="600.73" y1="438.58" x2="763.89" y2="438.58" xlink:href="#linear-gradient-2"/><radialGradient id="radial-gradient-3" cx="711.49" cy="389.95" r="7.45" xlink:href="#New_Gradient_Swatch_1"/><radialGradient id="radial-gradient-4" cx="665.83" cy="438.54" r="51.57" xlink:href="#New_Gradient_Swatch_1"/><radialGradient id="radial-gradient-5" cx="654.16" cy="441.72" r="13.05" xlink:href="#New_Gradient_Swatch_1"/><linearGradient id="linear-gradient-17" x1="743.94" y1="544.6" x2="674.79" y2="676.38" xlink:href="#linear-gradient-2"/><radialGradient id="radial-gradient-6" cx="827.33" cy="530.46" r="188.27" gradientUnits="userSpaceOnUse"><stop offset="0" stop-color="#3d065f"/><stop offset="0.97" stop-color="#020002"/><stop offset="1"/></radialGradient><radialGradient id="radial-gradient-7" cx="827.33" cy="530.45" r="188.27" xlink:href="#radial-gradient-6"/><radialGradient id="radial-gradient-8" cx="827.33" cy="530.46" r="188.27" xlink:href="#radial-gradient-6"/><linearGradient id="linear-gradient-18" x1="771.48" y1="556.92" x2="775.49" y2="556.92" xlink:href="#linear-gradient-2"/><linearGradient id="linear-gradient-19" x1="777.18" y1="560.5" x2="891.25" y2="560.5" xlink:href="#linear-gradient-2"/><linearGradient id="linear-gradient-20" x1="852.52" y1="460.23" x2="856.31" y2="460.23" xlink:href="#linear-gradient-2"/><radialGradient id="radial-gradient-9" cx="-2200.74" cy="6511.04" r="25.01" gradientTransform="matrix(0.47, 0.88, 0.88, -0.47, -3979, 5424.57)" gradientUnits="userSpaceOnUse"><stop offset="0.09" stop-color="#fff"/><stop offset="0.1" stop-color="#e2dee7"/><stop offset="0.12" stop-color="#b0a5bf"/><stop offset="0.14" stop-color="#86749c"/><stop offset="0.16" stop-color="#634c80"/><stop offset="0.17" stop-color="#482d69"/><stop offset="0.19" stop-color="#35175a"/><stop offset="0.21" stop-color="#290a50"/><stop offset="0.23" stop-color="#25054d"/><stop offset="0.27" stop-color="#1d043c"/><stop offset="0.34" stop-color="#120226"/><stop offset="0.42" stop-color="#0a0115"/><stop offset="0.51" stop-color="#040109"/><stop offset="0.65" stop-color="#010002"/><stop offset="1"/></radialGradient><linearGradient id="linear-gradient-21" x1="262.79" y1="525.14" x2="573.48" y2="525.14" xlink:href="#linear-gradient-2"/><linearGradient id="linear-gradient-22" x1="845.14" y1="461.55" x2="899.12" y2="461.55" xlink:href="#linear-gradient-2"/><linearGradient id="linear-gradient-23" x1="824.55" y1="452.83" x2="899.12" y2="452.83" xlink:href="#linear-gradient-2"/><linearGradient id="linear-gradient-24" x1="839.6" y1="460.39" x2="899.12" y2="460.39" xlink:href="#linear-gradient"/><linearGradient id="linear-gradient-25" x1="577.8" y1="669.35" x2="592.77" y2="669.35" xlink:href="#linear-gradient-2"/><linearGradient id="linear-gradient-26" x1="606.52" y1="669.35" x2="621.49" y2="669.35" xlink:href="#linear-gradient-2"/><linearGradient id="linear-gradient-27" x1="597.45" y1="669.35" x2="603.08" y2="669.35" xlink:href="#linear-gradient-2"/><linearGradient id="linear-gradient-28" x1="570.6" y1="621.13" x2="630.81" y2="621.13" xlink:href="#linear-gradient-2"/><linearGradient id="linear-gradient-29" x1="555.5" y1="598.09" x2="579.67" y2="598.09" xlink:href="#linear-gradient-2"/><linearGradient id="linear-gradient-30" x1="555.91" y1="589.36" x2="570.21" y2="589.36" xlink:href="#linear-gradient-2"/><linearGradient id="linear-gradient-31" x1="557.02" y1="606.17" x2="575.57" y2="606.17" xlink:href="#linear-gradient-2"/></defs><g class="cls-1"><g id="Layer_1" data-name="Layer 1"><path class="cls-2" d="M214.1,473.5l360.22-208,14.41,8.32a15,15,0,0,1,6.78,11.74V551.31a15,15,0,0,1-6.78,11.74L242.07,763.2a15.06,15.06,0,0,1-13.56,0l-7.63-4.41a15,15,0,0,1-6.78-11.74Z"/><path class="cls-3" d="M215.29,473.5l360.21-208,14.42,8.32a15,15,0,0,1,6.77,11.74V551.31a15,15,0,0,1-6.77,11.74L243.25,763.2a15,15,0,0,1-13.55,0l-7.64-4.41a15.05,15.05,0,0,1-6.77-11.74Z"/><path class="cls-2" d="M586.37,554.85a3.56,3.56,0,0,1-.38.54l-150.11-47.6a25.86,25.86,0,0,0-32.44,10L243,756.29,237,759.72l-.05,0c-1.8,1-3.41,1.13-4.59.51l165-245.85a25.93,25.93,0,0,1,32.46-10Z"/><path class="cls-4" d="M388.66,541.19l.38-.32L243,756.3,237,759.73l-.05,0c-1.79,1-3.41,1.11-4.59.51l150.5-222.53Z"/><path class="cls-2" d="M245.88,491.86,214.1,473.5V747.05a15,15,0,0,0,6.78,11.74l7.63,4.41a15.06,15.06,0,0,0,13.56,0l3.81-2.2Z"/><path class="cls-5" d="M245.88,491.86,214.1,473.5V747.05a15,15,0,0,0,6.78,11.74l7.63,4.41a15.06,15.06,0,0,0,13.56,0l3.81-2.2Z"/><path class="cls-6" d="M595.52,285.59V551.31a13.79,13.79,0,0,1-2.11,6.86,14.79,14.79,0,0,1-4,4.45l-.27.14a3.73,3.73,0,0,1-.43.3L242.08,763.18l-.05,0c-1.81,1-3.43,1.16-4.62.54a4.13,4.13,0,0,1-2-3.24,9.22,9.22,0,0,1-.08-1.21V493.54c0-4.29,3.38-7,7.62-6L388.67,541.2l19.1,4.54A12.63,12.63,0,0,0,420,541.18l22.11-30.82L590.2,285.16l.75-1.05C593.46,280.62,595.52,281.27,595.52,285.59Z"/><path class="cls-3" d="M572.33,242.17l1.47-.8-5.6-3.26h0a9.56,9.56,0,0,0-1.48-.71L408.19,178.66A10.92,10.92,0,0,0,396,182.54l-177.34,259a30.74,30.74,0,0,0-4.57,14.79v17.2l5.5,3.19L574.32,265.53v-17.2A11.62,11.62,0,0,0,572.33,242.17Z"/><path class="cls-3" d="M403.36,183.79a8.91,8.91,0,0,0-1.84,1.94l-177.35,259a27.5,27.5,0,0,0-3.3,7.4l-5.51-3.19a36.16,36.16,0,0,1,1.43-3.91c0-.06,0-.08.06-.11.24-.54.48-1.05.75-1.57.06-.08.08-.16.14-.24a15.15,15.15,0,0,1,.94-1.57L396,182.55a8.52,8.52,0,0,1,.89-1.08c.3-.3.62-.6,1-.87Z"/><path class="cls-3" d="M573.74,241.34a8.72,8.72,0,0,0-1.51-.73L413.67,181.85a10.84,10.84,0,0,0-10.31,1.94l-5.51-3.19a11,11,0,0,1,10.34-1.94L566.72,237.4a8.13,8.13,0,0,1,1.48.73Z"/><path class="cls-2" d="M217.73,443.07c.3-.56.62-1.08.94-1.56C218.35,442,218,442.51,217.73,443.07Z"/><path class="cls-2" d="M396.9,181.47c.3-.31.62-.59,1-.87C397.52,180.88,397.2,181.16,396.9,181.47Z"/><path class="cls-2" d="M215.35,448.92a35.77,35.77,0,0,1,1.44-3.93A35.77,35.77,0,0,0,215.35,448.92Z"/><path class="cls-2" d="M216.84,444.88c.24-.54.5-1.05.76-1.55C217.34,443.83,217.08,444.34,216.84,444.88Z"/><path class="cls-7" d="M216.79,445a1.17,1.17,0,0,0,.05-.11A1.17,1.17,0,0,1,216.79,445Z"/><polygon class="cls-7" points="215.35 448.92 215.35 448.92 215.35 448.92 215.35 448.92"/><polygon class="cls-7" points="397.85 180.6 397.85 180.6 397.85 180.6 397.85 180.6"/><path class="cls-7" d="M217.6,443.33c0-.08.08-.18.13-.26C217.68,443.15,217.64,443.25,217.6,443.33Z"/><path class="cls-7" d="M396,182.54a8.28,8.28,0,0,1,.89-1.07A7.66,7.66,0,0,0,396,182.54Z"/><path class="cls-8" d="M401.51,185.73l-177.34,259a30.71,30.71,0,0,0-4.58,14.79c0,7.4,0,17.2,0,17.2l360.22-208V251.52a12.5,12.5,0,0,0-7.59-10.92L413.68,181.86A10.91,10.91,0,0,0,401.51,185.73Z"/><path class="cls-9" d="M579.81,251.52a11.61,11.61,0,0,0-1.92-6.06l-357,206.64,0,.06a26.82,26.82,0,0,0-1.25,7.33v17.2l360.23-208Z"/><path class="cls-2" d="M570,203.46c0-1.85-.64-3.16-1.69-3.77s-9.93-5.74-11-6.35-2.52-.52-4.13.41L257.67,364.33a12.88,12.88,0,0,0-5.84,10.13V728.3c0,1.87.65,3.18,1.71,3.79l11,6.33c1.06.61,2.52.53,4.13-.41L564.11,567.43A12.92,12.92,0,0,0,570,557.31Z"/><path class="cls-3" d="M570,203.46c0-1.85-.64-3.16-1.69-3.77s-9.93-5.74-11-6.35-2.52-.52-4.13.41L257.67,364.33a12.88,12.88,0,0,0-5.84,10.13V728.3c0,1.87.65,3.18,1.71,3.79l11,6.33c1.06.61,2.52.53,4.13-.41L564.11,567.43A12.92,12.92,0,0,0,570,557.31Z"/><path class="cls-2" d="M268.64,738,564.11,567.43A12.92,12.92,0,0,0,570,557.31V203.46c0-3.73-2.61-5.24-5.84-3.38L268.64,370.66a12.93,12.93,0,0,0-5.84,10.13V734.64C262.8,738.37,265.42,739.88,268.64,738Z"/><path class="cls-10" d="M268.64,738,564.11,567.43A12.92,12.92,0,0,0,570,557.31V203.46c0-3.73-2.61-5.24-5.84-3.38L268.64,370.66a12.93,12.93,0,0,0-5.84,10.13V734.64C262.8,738.37,265.42,739.88,268.64,738Z"/><path class="cls-2" d="M262.79,734.63a4.43,4.43,0,0,0,1.37,3.57c-2-1.11-9.64-5.56-10.61-6.1s-1.73-1.92-1.73-3.79V374.45a11.74,11.74,0,0,1,1.73-5.76l11,6.32a11.83,11.83,0,0,0-1.72,5.78Z"/><path class="cls-11" d="M262.79,734.63a4.43,4.43,0,0,0,1.37,3.57c-2-1.11-9.64-5.56-10.61-6.1s-1.73-1.92-1.73-3.79V374.45a11.74,11.74,0,0,1,1.73-5.76l11,6.32a11.83,11.83,0,0,0-1.72,5.78Z"/><path class="cls-3" d="M262.79,734.63a4.43,4.43,0,0,0,1.37,3.57c-2-1.11-9.64-5.56-10.61-6.1s-1.73-1.92-1.73-3.79V374.45a11.74,11.74,0,0,1,1.73-5.76l11,6.32a11.83,11.83,0,0,0-1.72,5.78Z"/><path class="cls-3" d="M595.38,283.89h0c-.32-1.95-1.35-2.49-2.67-1.57a7.82,7.82,0,0,0-1.73,1.79l-.75,1.05L442.06,510.36,420,541.18a12.63,12.63,0,0,1-12.18,4.56l-19.1-4.54L242.92,487.55a7.34,7.34,0,0,0-3-.11,5.31,5.31,0,0,0-1.11.35l5.49-3.18,139.74,51.22,18.4,6.56a12.53,12.53,0,0,0,12.18-4.56L436.77,507,585.63,280.78a6.05,6.05,0,0,1,1.68-1.54l-12.89-7.42,5.41-3.11,8.91,5.13A15.43,15.43,0,0,1,595.38,283.89Z"/><path class="cls-3" d="M442.06,510.35l-22.12,30.82a12.63,12.63,0,0,1-12.18,4.56l-19.1-4.54.38-.32.92-1.46,12.5,3a12.55,12.55,0,0,0,12.18-4.56l21.91-30.47Z"/><polygon class="cls-3" points="244.33 484.61 238.84 487.79 233.28 484.57 219.58 476.69 224.91 473.53 244.33 484.61"/><path class="cls-3" d="M244.58,485.45,224.9,474.26l-5.32,3.16,13.7,7.89,5.56,3.21.06,0a5.25,5.25,0,0,1,1-.33,7.52,7.52,0,0,1,3,.11L254,492.35l127.24,46.84,2-3Z"/><path class="cls-12" d="M316,349.09l-20.29-11.71h0l-.14-.08v0c-6.95-3.92-16.49-3.33-27,2.76C247.21,352.33,230,382.16,230,406.69c0,12.24,4.29,20.85,11.23,24.87h0l0,0h0l18.88,10.81,3.4-5.69a39,39,0,0,0,11-4.29C295.81,420.16,313,390.33,313,365.8a41.19,41.19,0,0,0-1.21-9.83Z"/><path class="cls-2" d="M316,349.09l-20.29-11.71h0l-.14-.08v0c-6.95-3.92-16.49-3.33-27,2.76C247.21,352.33,230,382.16,230,406.69c0,12.24,4.29,20.85,11.23,24.87h0l0,0h0l18.88,10.81,3.4-5.69a39,39,0,0,0,11-4.29C295.81,420.16,313,390.33,313,365.8a41.19,41.19,0,0,0-1.21-9.83Z"/><path class="cls-3" d="M316,349.09l-20.29-11.71h0l-.14-.08v0c-6.95-3.92-16.49-3.33-27,2.76C247.21,352.33,230,382.16,230,406.69c0,12.24,4.29,20.85,11.23,24.87h0l0,0h0l18.88,10.81,3.4-5.69a39,39,0,0,0,11-4.29C295.81,420.16,313,390.33,313,365.8a41.19,41.19,0,0,0-1.21-9.83Z"/><path class="cls-13" d="M288,351.28c-21.24,12.26-38.46,42.09-38.46,66.62s17.22,34.47,38.46,22.21,38.47-42.09,38.47-66.62S309.21,339,288,351.28Z"/><path class="cls-14" d="M272.93,423.74c-.39,0-.59-.23-.59-.58a2.94,2.94,0,0,1,.33-1.12l1.92-4.36a2.52,2.52,0,0,1,.73-1.08,2.34,2.34,0,0,1,.93-.2,18.64,18.64,0,0,0,5.07-1,33.23,33.23,0,0,0,6.26-2.88,24.91,24.91,0,0,0,8-6.7,12.34,12.34,0,0,0,2.55-7.27q0-6.89-8.41-2l-5.57,3.21c-.88.51-1.51.69-1.89.53s-.56-.66-.56-1.5V397a3.68,3.68,0,0,1,.56-2,5.58,5.58,0,0,1,1.89-1.62l5.43-3.14a14.6,14.6,0,0,0,5.37-5,11.15,11.15,0,0,0,1.79-5.84q0-6.69-9.41-1.26A41.33,41.33,0,0,0,277,386.52a5.05,5.05,0,0,1-.93.87q-.33.19-.72-.18l-1.86-2a1,1,0,0,1-.33-.74,2.21,2.21,0,0,1,.6-1.27A39.2,39.2,0,0,1,280,377a63.74,63.74,0,0,1,8.54-5.86,26.51,26.51,0,0,1,8.85-3.52c2.49-.38,4.42,0,5.76,1.15s2,3,2,5.55a16.91,16.91,0,0,1-1.5,6.63,23.26,23.26,0,0,1-4.27,6.58c2.39-.5,4.16-.17,5.33,1s1.76,3,1.76,5.45q0,6.22-4.61,12.69a40.64,40.64,0,0,1-13.08,11.37Q278,424.25,272.93,423.74Z"/><path class="cls-3" d="M418.51,481.46,391.11,453c-1.68-1.75-3.6-1.92-4.28-.38l-6.52,14.79c-.68,1.54.14,4.2,1.82,5.95l27.4,28.5c1.68,1.75,3.59,1.92,4.27.38l6.52-14.79C421,485.87,420.19,483.21,418.51,481.46Z"/><path class="cls-15" d="M417.71,481.72l-27.4-28.49c-1.68-1.75-3.6-1.92-4.27-.39l-6.53,14.8c-.67,1.54.14,4.2,1.82,5.95l27.4,28.5c1.68,1.75,3.59,1.92,4.27.38l6.52-14.79C420.2,486.14,419.39,483.47,417.71,481.72Z"/><path class="cls-3" d="M417.71,481.72l-27.4-28.49c-1.24-1.29-2.59-1.71-3.49-1.25a4.11,4.11,0,0,1,2.6,1.42l27.4,28.5c1.68,1.75,2.49,4.41,1.82,6l-6.53,14.8a1.7,1.7,0,0,1-.78.86,1.64,1.64,0,0,0,1.67-1l6.52-14.79C420.2,486.14,419.39,483.47,417.71,481.72Z"/><path class="cls-3" d="M388.22,451.89h0l9.28,30.44,21.86,2,0-.09-20.91-4Z"/><path class="cls-3" d="M403.65,482.89l7.27,20.29.06,0L404.81,483Z"/><path class="cls-3" d="M394.33,472.09l-14.51-1.3a.36.36,0,0,0,0,.09l15,2.83Z"/><path class="cls-16" d="M389.49,458.37a2.81,2.81,0,0,1-1.85-2c-.27-1,.11-1.75.86-1.63a2.83,2.83,0,0,1,1.85,2.05C390.62,457.76,390.24,458.49,389.49,458.37Z"/><path class="cls-17" d="M389.25,457.33a.61.61,0,0,1-.51-.27L360.41,415.2l1-.68,27.83,41.11,27.82-41.11,1,.68-28.33,41.86A.6.6,0,0,1,389.25,457.33Z"/><path class="cls-17" d="M389.25,457.33a.6.6,0,0,1-.58-.42l-13.82-41.86,1.16-.38,13.24,40.11,13.23-40.11,1.16.38-13.82,41.86A.6.6,0,0,1,389.25,457.33Z"/><path class="cls-18" d="M425.72,402.27a28,28,0,0,0-.39-4.6,45.79,45.79,0,0,0-.87-5.14,37.65,37.65,0,0,0-6.52-13.32c-10.74-12.08-28.82-8.48-28.82-8.48s-18.06-3.6-28.81,8.47a37.89,37.89,0,0,0-6.53,13.35,45.86,45.86,0,0,0-.86,5.12,27,27,0,0,0-.39,4.6c0,4.18.91,8.62,6.76,11.21,6.63,4.93,17.52,8.15,29.83,8.15s23.2-3.22,29.83-8.15C424.53,411.31,425.72,406.48,425.72,402.27Z"/><path class="cls-19" d="M377.49,420.62c5,4.37,18.22,4.58,23.26,0-.16-27.67-5.3-49.89-11.63-49.89S377.66,393,377.49,420.62Z"/><path class="cls-20" d="M395.83,365.47a36,36,0,0,0-13.41,0,43.61,43.61,0,0,1,6.7,5.26A44,44,0,0,1,395.83,365.47Z"/><path class="cls-21" d="M389.12,370.73c-16.18,0-29.35,19-29.81,42.76,0,6.87,13.27,9.61,18.18,7.13C377.66,393,382.8,370.73,389.12,370.73Z"/><path class="cls-22" d="M389.12,370.73c6.33,0,11.47,22.22,11.63,49.89,4.22,2.48,17.68-.26,18.19-7.13C418.47,389.76,405.31,370.73,389.12,370.73Z"/><path class="cls-23" d="M360.31,379.2c10.75-12.07,28.81-8.47,28.81-8.47a43.61,43.61,0,0,0-6.7-5.26A36.5,36.5,0,0,0,360.31,379.2Z"/><path class="cls-24" d="M417.94,379.21a36.52,36.52,0,0,0-22.11-13.74,44,44,0,0,0-6.71,5.26S407.2,367.13,417.94,379.21Z"/><path class="cls-25" d="M415,383.61c0,9.67-11.44,17.51-25.56,17.51s-25.55-7.84-25.55-17.51,11.44-17.51,25.55-17.51S415,373.94,415,383.61Z"/><path class="cls-3" d="M429.4,487.85c0,2.89-1,4.93-2.62,5.93L424,495.52c-1.69,1-.61-1.2-3.17-2.67-5.16-3-9.34-10.19-9.34-16.11,0-2.93-2.71-2.95-1.05-3.93l3.14-1.79c1.68-.91,4-.75,6.52.72C425.22,474.72,429.4,481.93,429.4,487.85Z"/><path class="cls-13" d="M426.34,489.67c0,5.92-4.18,8.3-9.34,5.32s-9.34-10.19-9.34-16.11,4.18-8.3,9.34-5.32S426.34,483.75,426.34,489.67Z"/><path class="cls-3" d="M417.45,473.33c-2.47-1.42-4.72-1.62-6.39-.78a7.31,7.31,0,0,1,5.58,1.1c5.16,3,9.34,10.19,9.34,16.11,0,3.08-1.13,5.2-3,6.11,2.28-.64,3.76-2.91,3.76-6.43C426.79,483.52,422.61,476.31,417.45,473.33Z"/><path class="cls-14" d="M412.53,486.31a.67.67,0,0,1,0-.33l.1-.8c0-.29.16-.45.39-.49l2.24-.92a13,13,0,0,0,1.53-.38,2.15,2.15,0,0,0,.84-.47,1.15,1.15,0,0,0,.35-.72,2.69,2.69,0,0,0-.18-1.38,2.63,2.63,0,0,0-.89-1.12c-.42-.31-.76-.41-1-.28a1.16,1.16,0,0,0-.59.84c0,.1-.1.16-.17.16a.4.4,0,0,1-.24-.09l-1.12-.84a.58.58,0,0,1-.18-.23.61.61,0,0,1,0-.29,2.55,2.55,0,0,1,.61-1.39,1.51,1.51,0,0,1,1.25-.46,3.36,3.36,0,0,1,1.73.77,7.32,7.32,0,0,1,1.64,1.7,6.18,6.18,0,0,1,.9,1.94,5.4,5.4,0,0,1,.15,1.94,2.31,2.31,0,0,1-.7,1.52,3.7,3.7,0,0,1-1.67.7l-2,.86,3.52,2.65a.67.67,0,0,1,.21.28.57.57,0,0,1,.05.34l-.13,1.1c0,.12-.05.18-.12.21a.28.28,0,0,1-.24-.07l-6-4.49A.67.67,0,0,1,412.53,486.31Z"/><path class="cls-2" d="M380.82,700.76v.9a5,5,0,0,0,2.26,3.93l48.6,28a5,5,0,0,0,4.53,0l80.47-46.46a5,5,0,0,0,2.26-3.92v-.9a5,5,0,0,0-2.26-3.93l-48.6-28a5,5,0,0,0-4.53,0l-80.47,46.46A5,5,0,0,0,380.82,700.76Z"/><path class="cls-2" d="M380.82,700.76v.9a5,5,0,0,0,2.26,3.93l48.6,28a5,5,0,0,0,4.53,0l80.47-46.46a5,5,0,0,0,2.26-3.92v-.9a5,5,0,0,0-2.26-3.93l-48.6-28a5,5,0,0,0-4.53,0l-80.47,46.46A5,5,0,0,0,380.82,700.76Z"/><path class="cls-26" d="M516.68,678.43l-48.6-28a5,5,0,0,0-4.53,0l-29.61,17.09v66.72h0a4.68,4.68,0,0,0,2.27-.55l80.47-46.46a5,5,0,0,0,2.26-3.92v-.9A5,5,0,0,0,516.68,678.43Z"/><path class="cls-3" d="M516.68,678.43l-48.6-28a5,5,0,0,0-4.53,0l-29.61,17.09v66.72h0a4.68,4.68,0,0,0,2.27-.55l80.47-46.46a5,5,0,0,0,2.26-3.92v-.9A5,5,0,0,0,516.68,678.43Z"/><path class="cls-26" d="M433.94,667.47l-50.86,29.37a5,5,0,0,0-2.26,3.92v.9a5,5,0,0,0,2.26,3.93l48.6,28a4.61,4.61,0,0,0,2.26.55h0Z"/><path class="cls-3" d="M433.94,667.47l-50.86,29.37a5,5,0,0,0-2.26,3.92v.9a5,5,0,0,0,2.26,3.93l48.6,28a4.61,4.61,0,0,0,2.26.55h0Z"/><path class="cls-2" d="M423.9,723l-40.82-23.57a1.38,1.38,0,0,1,0-2.61l80.47-46.46a5,5,0,0,1,4.53,0l48.6,28c1.25.73,1.25,1.9,0,2.62l-13.35,7.71-4.68,2.7-62.44,36a5,5,0,0,1-4.53,0l-4-2.29Z"/><path class="cls-27" d="M423.9,723l-40.82-23.57a1.38,1.38,0,0,1,0-2.61l80.47-46.46a5,5,0,0,1,4.53,0l48.6,28c1.25.73,1.25,1.9,0,2.62l-13.35,7.71-4.68,2.7-62.44,36a5,5,0,0,1-4.53,0l-4-2.29Z"/><path class="cls-3" d="M461,683.87l55.73-5.44-55.24,3.13,6.64-31.18a4.75,4.75,0,0,0-2.47-.52L455.19,692l-73,6a1.53,1.53,0,0,0,.92,1.42l59-3.42-8.12,32,10.38-32.15h0l10.08-.59a5.46,5.46,0,0,0,3.32-1.38h0a5.47,5.47,0,0,0,1.7-2.93Z"/><path class="cls-28" d="M399.59,696.6l55.6-4.59,2-8,1.1-4.43,7.34-29.75a4.63,4.63,0,0,0-2.07.52l-40.23,23.23-40.24,23.23a1.66,1.66,0,0,0-.92,1.19l11.16-.92Z"/><path class="cls-16" d="M456.61,643.73c5.09-2.94,13.33-2.94,18.41,0s5.08,7.69,0,10.62-13.32,2.94-18.41,0S451.53,646.66,456.61,643.73Z"/><path class="cls-29" d="M459.39,650.79a.69.69,0,0,1-.38-.14.25.25,0,0,1-.11-.25l.76-3.35a3,3,0,0,1,.09-.29.55.55,0,0,1,.28-.31l1.86-1.07a.86.86,0,0,1,.41-.1.83.83,0,0,1,.41.1l9.86,5.69a.25.25,0,0,1,0,.47l-2,1.16a.86.86,0,0,1-.41.09.83.83,0,0,1-.41-.09l-6.67-3.85-.44,1.84a.34.34,0,0,1-.22.22.89.89,0,0,1-.44.07Z"/><g class="cls-30"><path class="cls-31" d="M797.22,685.33a20.79,20.79,0,0,1-10.36-2.49L724,647.06l-62.87-35.77c-3.77-2.18-5.94-5.63-5.94-9.47,0-4.2,2.61-8.11,7.15-10.74l41.14-23.15a25.52,25.52,0,0,1,12.58-3.19,20.78,20.78,0,0,1,10.35,2.49L789.28,603l62.86,35.78c3.78,2.18,5.94,5.63,5.94,9.46,0,4.2-2.61,8.12-7.15,10.74l-41.14,23.15A25.51,25.51,0,0,1,797.22,685.33Z"/><path class="cls-32" d="M663.46,592l11.16-6.22c.45-.27,21.39-11.69,21.78-11.46l7.19-3.53c3.25-1.87,8-2.49,12.14-2.49a21.35,21.35,0,0,1,10,2.6l50.33,28.68,10.74,6.11,61.07,34.79a13,13,0,0,1,4.74,4.62,9.63,9.63,0,0,1,1.25,4.4c.12,4-2.36,7.87-6.83,10.45l-11.16,6.22c-.45.26-21.39,11.68-21.78,11.46l-7.2,3.52c-3.24,1.87-8,2.5-12.13,2.5a21.23,21.23,0,0,1-10-2.61l-50.33-28.67-10.74-6.12-61.07-34.78a13.18,13.18,0,0,1-4.75-4.62,9.78,9.78,0,0,1-1.24-4.4C656.5,598.38,659,594.55,663.46,592Z"/><path class="cls-33" d="M664.57,592.85l10.86-6c.91-.52,20.51-10.83,21.29-10.38l7-2.88c2.92-1.68,8-1.79,11.71-1.79a22.07,22.07,0,0,1,9.63,2.71l48.86,27.86,10.42,5.94,59.28,33.8a14.16,14.16,0,0,1,4.68,4.39,9.64,9.64,0,0,1,1.36,4.19c.24,3.87-2.11,7.62-6.51,10.15l-10.85,6c-.91.53-20.51,10.84-21.3,10.38l-7,2.88c-2.92,1.69-8,1.8-11.7,1.8a22,22,0,0,1-9.64-2.72L733.8,651.33l-10.42-5.94-59.27-33.8a14.09,14.09,0,0,1-4.68-4.4,9.47,9.47,0,0,1-1.36-4.18C657.83,599.13,660.18,595.39,664.57,592.85Z"/><path class="cls-34" d="M665.69,593.74,676.24,588c1.37-.78,19.63-10,20.81-9.3l6.76-2.24c2.6-1.5,8-1.09,11.28-1.09,2.87,0,7.22,1.63,9.27,2.82l47.38,27,10.1,5.77,57.49,32.81a15.55,15.55,0,0,1,4.61,4.17,9.43,9.43,0,0,1,1.48,4c.36,3.71-1.87,7.37-6.18,9.86l-10.56,5.78c-1.36.78-19.62,10-20.81,9.3l-6.76,2.24c-2.6,1.5-8,1.09-11.28,1.09-2.86,0-7.21-1.63-9.27-2.82l-47.38-27-10.1-5.77-57.49-32.81a15.55,15.55,0,0,1-4.61-4.17,9.43,9.43,0,0,1-1.48-4C659.15,599.88,661.37,596.23,665.69,593.74Z"/><path class="cls-35" d="M666.8,594.62l10.26-5.55c1.81-1.05,18.74-9.14,20.31-8.23l6.55-1.59c2.28-1.31,8-.39,10.84-.39,2.51,0,7.12,1.89,8.92,2.93L769.58,608l9.79,5.59,55.69,31.82a17.43,17.43,0,0,1,4.55,4,9.42,9.42,0,0,1,1.59,3.75c.48,3.55-1.62,7.12-5.86,9.57l-10.26,5.55c-1.82,1-18.74,9.14-20.31,8.23l-6.56,1.59c-2.27,1.31-8,.39-10.84.39-2.51,0-7.11-1.89-8.91-2.93l-45.9-26.23-9.79-5.59-55.69-31.82a17.43,17.43,0,0,1-4.55-3.95,9.28,9.28,0,0,1-1.59-3.75C660.46,600.64,662.56,597.07,666.8,594.62Z"/><path class="cls-36" d="M667.91,595.51l10-5.33c2.27-1.31,17.86-8.29,19.82-7.15l6.34-.95c2-1.12,7.93.31,10.41.31,2.15,0,7,2.15,8.56,3l44.42,25.41,9.47,5.42,53.89,30.83a20,20,0,0,1,4.49,3.72,9.5,9.5,0,0,1,1.71,3.54c.6,3.39-1.37,6.87-5.54,9.27l-10,5.33c-2.28,1.31-17.86,8.29-19.83,7.15l-6.34.95c-2,1.13-7.93-.3-10.41-.3-2.15,0-7-2.15-8.55-3l-44.42-25.41-9.48-5.42L668.57,612a20.23,20.23,0,0,1-4.49-3.72,9.32,9.32,0,0,1-1.7-3.54C661.78,601.39,663.75,597.91,667.91,595.51Z"/><path class="cls-37" d="M669,596.39l9.65-5.1c2.73-1.57,17-7.44,19.34-6.08l6.12-.3c1.63-.94,7.91,1,10,1,1.79,0,6.91,2.4,8.19,3.15l43,24.59,9.15,5.25,52.1,29.84a24.17,24.17,0,0,1,4.43,3.5,9.47,9.47,0,0,1,1.81,3.32c.73,3.23-1.12,6.62-5.21,9l-9.65,5.1c-2.73,1.58-17,7.44-19.34,6.08l-6.12.3c-1.63.94-7.91-1-10-1-1.79,0-6.91-2.41-8.19-3.15l-43-24.6L722.16,642l-52.1-29.85a23.75,23.75,0,0,1-4.43-3.5,9.3,9.3,0,0,1-1.81-3.32C663.09,602.15,664.94,598.76,669,596.39Z"/><path class="cls-38" d="M670.14,597.28l9.36-4.88c3.18-1.84,16.09-6.59,18.84-5l5.91.34c1.3-.75,7.89,1.7,9.54,1.7,1.44,0,6.81,2.67,7.84,3.26l41.47,23.79,8.84,5.07,50.3,28.85a31,31,0,0,1,4.37,3.28,9.88,9.88,0,0,1,1.92,3.1c.85,3.07-.87,6.37-4.88,8.69l-9.36,4.88c-3.18,1.83-16.09,6.59-18.85,5l-5.91-.34c-1.29.75-7.89-1.71-9.54-1.71-1.43,0-6.81-2.67-7.84-3.26l-41.46-23.78-8.84-5.07-50.3-28.86a30.16,30.16,0,0,1-4.37-3.27,10.27,10.27,0,0,1-1.93-3.11C664.4,602.9,666.13,599.6,670.14,597.28Z"/><path class="cls-39" d="M671.26,598.17l9-4.66c3.63-2.1,15.21-5.75,18.36-3.93l5.69,1c1-.57,7.87,2.4,9.11,2.4,1.08,0,6.71,2.93,7.48,3.37l40,23,8.52,4.9L818,652.07c.59.35,4,2.53,4.3,3a6.54,6.54,0,0,1,2,2.89c1,2.9-.62,6.12-4.56,8.39l-9.06,4.66c-3.63,2.1-15.2,5.74-18.35,3.93l-5.7-1c-1,.56-7.87-2.41-9.11-2.41-1.07,0-6.71-2.92-7.48-3.37l-40-23-8.53-4.9L673,612.49c-.59-.34-4-2.52-4.3-3a6.67,6.67,0,0,1-2-2.89C665.71,603.65,667.32,600.44,671.26,598.17Z"/><path class="cls-40" d="M672.37,599.05l8.75-4.43c4.09-2.36,14.33-4.9,17.87-2.85l5.48,1.63c.65-.38,7.85,3.1,8.68,3.1s6.6,3.18,7.12,3.48l38.5,22.16,8.21,4.72,46.72,26.87a41.11,41.11,0,0,1,4.24,2.83,6.36,6.36,0,0,1,2.15,2.67c1.11,2.74-.38,5.87-4.24,8.1l-8.75,4.43c-4.09,2.36-14.33,4.9-17.87,2.85L783.75,673c-.65.38-7.85-3.1-8.68-3.1s-6.6-3.19-7.12-3.48l-38.5-22.16-8.21-4.72-46.72-26.88a39.5,39.5,0,0,1-4.24-2.82,6.36,6.36,0,0,1-2.15-2.67C667,604.41,668.51,601.28,672.37,599.05Z"/><path class="cls-41" d="M673.48,599.94l8.45-4.21c4.55-2.63,13.45-4.05,17.38-1.78l5.27,2.27c.33-.18,7.83,3.81,8.24,3.81s6.51,3.44,6.77,3.59l37,21.34,7.9,4.55,44.92,25.89c.19.11,4.08,2.42,4.17,2.59a6.39,6.39,0,0,1,2.27,2.46c1.24,2.58-.13,5.62-3.92,7.8l-8.45,4.21c-4.54,2.63-13.44,4-17.38,1.78L780.85,672c-.32.18-7.82-3.81-8.24-3.81s-6.5-3.44-6.76-3.59l-37-21.34-7.89-4.55L676,612.8c-.2-.12-4.08-2.43-4.18-2.6a6.28,6.28,0,0,1-2.26-2.46C668.33,605.17,669.7,602.12,673.48,599.94Z"/><path d="M783,673.87,728.2,642.22l-54.81-31.65c-4.33-2.5-3.79-6.86,1.21-9.75l8.15-4c5-2.89,12.56-3.2,16.89-.7l54.81,31.64,54.82,31.65c4.33,2.5,3.78,6.87-1.22,9.75l-8.15,4C794.91,676.05,787.34,676.37,783,673.87Z"/></g><path class="cls-42" d="M788.66,666l-98.33-56.78c-11.1-6.4-20.09-23.58-20.09-38.37V309c0-7.52-6.18-9.18-2.44-11.88.15-.1,8.78-4,9-4.09,4-1.54,8.34-2.23,13.58.79l98.33,56.77c11.09,6.41,20.08,23.59,20.08,38.38V650.83c0,7.86-2.53,13.46-6.58,16-.24.15-10.64,5.1-10.91,5.19C787.67,673.24,793.51,668.82,788.66,666Z"/><path class="cls-43" d="M787.75,350.89l-98.33-56.78c-5.24-3,92.9,58.59,92.9,58.59,11.09,6.4,20.08,23.58,20.08,38.37,0,0,5.44,267.92,5.44,260.07V389.26C807.84,374.47,798.85,357.29,787.75,350.89Z"/><path class="cls-44" d="M781,669.51l-98.33-56.77c-11.09-6.41-20.09-23.59-20.09-38.38V312.49c0-14.79,9-21.59,20.09-15.19L781,354.08c11.09,6.4,20.09,23.58,20.09,38.37V654.33C801.11,669.12,792.11,675.91,781,669.51Z"/><path class="cls-3" d="M779.27,670.46l-98.33-56.78c-11.09-6.4-20.09-23.58-20.09-38.37V313.43c0-14.79,9-21.59,20.09-15.18L779.27,355c11.09,6.41,20.09,23.59,20.09,38.38V655.27C799.36,670.06,790.36,676.86,779.27,670.46Z"/><path class="cls-45" d="M663.59,577.05V314.85c0-13,7.89-18.92,17.61-13.31L779,358c9.73,5.62,17.61,20.68,17.61,33.64v262.2c0,13-7.88,18.93-17.61,13.31L681.2,610.69C671.48,605.08,663.59,590,663.59,577.05Z"/><path class="cls-46" d="M667.51,578.64V317.77c0-10.85,6.59-15.84,14.73-11.14L778,361.9c8.14,4.7,14.74,17.31,14.74,28.16V650.93c0,10.85-6.6,15.84-14.74,11.14L682.24,606.8C674.1,602.1,667.51,589.5,667.51,578.64Z"/><path class="cls-47" d="M683.35,309.52c-7.67-4.43-13.89-.89-13.89,7.92v263.8c0,8.8,6.22,19.53,13.89,24l93.51,54c7.67,4.42,13.89.88,13.89-7.92V387.46c0-8.8-6.22-19.53-13.89-23.95Z"/><path class="cls-14" d="M769.42,376.05l12.14,7c.46.27.84.06.84-.47a1.87,1.87,0,0,0-.84-1.45l-12.14-7c-.46-.27-.84-.05-.84.48A1.84,1.84,0,0,0,769.42,376.05Zm12.14,9.42-12.14-7c-.46-.27-.84-.06-.84.47a1.87,1.87,0,0,0,.84,1.45l12.14,7c.46.26.84.05.84-.48A1.84,1.84,0,0,0,781.56,385.47Zm0,4.32-12.14-7c-.46-.27-.84,0-.84.48a1.85,1.85,0,0,0,.84,1.44l12.14,7c.46.27.84.06.84-.48A1.85,1.85,0,0,0,781.56,389.79Z"/><ellipse class="cls-14" cx="693" cy="332.95" rx="1.65" ry="2.85" transform="translate(-73.31 395.23) rotate(-30.31)"/><path class="cls-14" d="M688.92,330.57c0,1.28-.91,1.8-2,1.15a4.43,4.43,0,0,1-2-3.48c0-1.29.9-1.8,2-1.16A4.49,4.49,0,0,1,688.92,330.57Z"/><path class="cls-14" d="M682.82,327c0,1.28-.91,1.79-2,1.15a4.46,4.46,0,0,1-2-3.49c0-1.28.9-1.8,2-1.15A4.47,4.47,0,0,1,682.82,327Z"/><path class="cls-48" d="M776.86,363.51l-93.51-54c-7.67-4.43-13.89-.89-13.89,7.92v263.8c0,8.8,6.22,19.53,13.89,24l93.51,54c7.67,4.42,13.89.88,13.89-7.92V387.46C790.75,378.66,784.53,367.93,776.86,363.51Zm12.68,287.76a10.29,10.29,0,0,1-1.86,6.49,5.66,5.66,0,0,1-4.58,2.13h0a11.65,11.65,0,0,1-5.63-1.75l-93.5-54c-7.33-4.23-13.29-14.5-13.29-22.91V317.44c0-5.32,2.47-8.62,6.45-8.62a11.62,11.62,0,0,1,5.63,1.74l93.51,54c7.32,4.23,13.28,14.51,13.28,22.91Z"/><path class="cls-49" d="M723.55,538.55V521.9a8.15,8.15,0,0,1,12.22-7.06l37.52,21.63A15.63,15.63,0,0,1,781.12,550v16.64a8.15,8.15,0,0,1-12.22,7.06l-37.52-21.63A15.63,15.63,0,0,1,723.55,538.55Z"/><path class="cls-3" d="M721.53,539.45V522.8a8.15,8.15,0,0,1,12.22-7.06l37.52,21.63a15.63,15.63,0,0,1,7.83,13.55v16.64a8.15,8.15,0,0,1-12.22,7.06L729.36,553A15.61,15.61,0,0,1,721.53,539.45Z"/><path class="cls-50" d="M771.27,537.37l-37.52-21.63a8.06,8.06,0,0,0-7.44-.35,8.07,8.07,0,0,1,6.24.8l37.52,21.63a15.63,15.63,0,0,1,7.83,13.55V568a8.08,8.08,0,0,1-4.78,7.41,8.12,8.12,0,0,0,6-7.86V550.92A15.63,15.63,0,0,0,771.27,537.37Z"/><polygon class="cls-14" points="745.8 543.87 737.37 526.57 763.86 554.29 736.77 551.78 745.8 543.87"/><path class="cls-3" d="M680.58,455.05V438.4a8.15,8.15,0,0,1,12.22-7.06l79.11,45.06a15.63,15.63,0,0,1,7.83,13.54v16.65a8.15,8.15,0,0,1-12.22,7.06l-79.11-45.06A15.63,15.63,0,0,1,680.58,455.05Z"/><path class="cls-48" d="M769.64,512.59l-79.11-45.06A15.63,15.63,0,0,1,682.7,454V437.34a8,8,0,0,1,3.5-6.67,8.11,8.11,0,0,0-5.62,7.73v16.65a15.63,15.63,0,0,0,7.83,13.54l79.11,45.06a8.08,8.08,0,0,0,8.72-.39A8,8,0,0,1,769.64,512.59Z"/><path class="cls-10" d="M744.15,382.85l-28.34-16.37c-1.74-1-3.15-.2-3.15,1.8v19.2a6.94,6.94,0,0,0,3.15,5.43l28.34,16.36c1.74,1,3.15.2,3.15-1.79v-19.2A6.92,6.92,0,0,0,744.15,382.85Zm1.66,25.79-11.17-17.15L730,394l-4.64-7.84-11.19,4.25s9.15-5.55,10.08-6.11c-4.61-7.79-10.32-17.44-10.31-17.44L730,391s16.1-5.56,16.12-5.53l-10.36,5.47C736.77,392.71,745.83,408.64,745.81,408.64Z"/><path class="cls-10" d="M690.84,459.85a20.06,20.06,0,0,1-2.94-8.94c0-.83-.06-.58-.06-1.61s0-1.94.06-2.63a8.31,8.31,0,0,1,1.46-4.28,4.14,4.14,0,0,1,3.33-1.61,10.12,10.12,0,0,1,5.1,1.64c6.5,3.75,10,9.95,10.31,15.91,0,.87,0,1.17,0,1.7,0,.78,0,1.43,0,2-.08,1.48-.48,2.42-1.22,2.82a2.77,2.77,0,0,1-2.76-.36,7.24,7.24,0,0,1-2-1.71,8.27,8.27,0,0,1-1.2-1.87,1.83,1.83,0,0,1-1.23.73,3.92,3.92,0,0,1-2.31-.74,8.33,8.33,0,0,1-3.27-3.6,11.94,11.94,0,0,1-1.21-5.45c0-2,.4-3.39,1.19-4.09s1.87-.65,3.23.14a6.06,6.06,0,0,1,1.66,1.35,8.79,8.79,0,0,1,1.14,1.75v-.47c0-.24.06-.38.19-.45a.49.49,0,0,1,.47.07l1.1.64a1.25,1.25,0,0,1,.49.48,1.31,1.31,0,0,1,.18.66v6.59a4.41,4.41,0,0,0,.43,2,3,3,0,0,0,1.17,1.28c.57.33,1,.32,1.22,0a2.6,2.6,0,0,0,.35-1.44c0-.61.06-1.27.06-2,0-.31,0-.47-.06-1.25a12.61,12.61,0,0,0-2-6.47,17,17,0,0,0-5.87-5.51q-3.37-2-5.23-1.07t-2.2,4.2a23.72,23.72,0,0,0-.08,2.45,8,8,0,0,0,.08,1.47,14.41,14.41,0,0,0,2.22,6.72,15.44,15.44,0,0,0,5.43,5,16.47,16.47,0,0,0,2.82,1.36,5.09,5.09,0,0,0,1.67.33,8.26,8.26,0,0,0,1.26-.21l.39-.11a.6.6,0,0,1,.38.11l1.55.89a1.34,1.34,0,0,1,.47.5,1.27,1.27,0,0,1,.19.65.69.69,0,0,1-.16.38q-2.94,2-8.57-1.21A20,20,0,0,1,690.84,459.85Zm8.68-1.35a4,4,0,0,0,.57-2.53,8,8,0,0,0-.57-3.2,4.28,4.28,0,0,0-1.84-2q-2.37-1.38-2.37,2.46a7.72,7.72,0,0,0,.59,3.12,4.25,4.25,0,0,0,1.78,2.06C698.53,458.88,699.14,458.91,699.52,458.5Z"/><path class="cls-51" d="M716.51,531.51a1.06,1.06,0,0,1-.46-.1c-1.23-.6-2.51-1.29-3.81-2a1.06,1.06,0,0,1,1.06-1.84c1.27.73,2.5,1.4,3.68,2a1.06,1.06,0,0,1,.48,1.42A1,1,0,0,1,716.51,531.51Zm-7.35-4.23a1.12,1.12,0,0,1-.58-.17c-1.16-.76-2.34-1.58-3.54-2.44a1.06,1.06,0,1,1,1.24-1.72c1.17.84,2.33,1.64,3.46,2.38a1.06,1.06,0,0,1,.31,1.47A1.08,1.08,0,0,1,709.16,527.28Zm-6.89-4.95a1.1,1.1,0,0,1-.66-.23q-1.65-1.29-3.32-2.7a1.06,1.06,0,0,1,1.36-1.62c1.09.92,2.19,1.8,3.27,2.65a1.06,1.06,0,0,1,.18,1.49A1.05,1.05,0,0,1,702.27,522.33Zm-6.51-5.46a1,1,0,0,1-.7-.27q-1.57-1.43-3.14-2.92a1.06,1.06,0,0,1,1.47-1.53c1,1,2.05,1.94,3.08,2.87a1.05,1.05,0,0,1,.08,1.5A1.07,1.07,0,0,1,695.76,516.87ZM689.64,511a1.07,1.07,0,0,1-.76-.32q-1.49-1.51-2.94-3.11a1.06,1.06,0,1,1,1.57-1.43c1,1,1.92,2.06,2.89,3.06a1.06,1.06,0,0,1-.76,1.8Zm-5.73-6.26a1.08,1.08,0,0,1-.81-.37q-1.38-1.62-2.72-3.3a1.06,1.06,0,1,1,1.66-1.32c.87,1.1,1.77,2.18,2.68,3.24a1.05,1.05,0,0,1-.12,1.49A1,1,0,0,1,683.91,504.73Zm-5.29-6.63a1.07,1.07,0,0,1-.85-.43c-.85-1.15-1.68-2.32-2.49-3.5A1.06,1.06,0,0,1,677,493c.79,1.15,1.6,2.3,2.43,3.42a1.07,1.07,0,0,1-.85,1.7Zm-4.78-7a1,1,0,0,1-.9-.5c-.76-1.22-1.49-2.45-2.18-3.69a1.05,1.05,0,0,1,.4-1.44,1.06,1.06,0,0,1,1.45.4c.68,1.22,1.39,2.42,2.13,3.61a1.06,1.06,0,0,1-.34,1.46A1,1,0,0,1,673.84,491.07Zm-4.14-7.4a1.07,1.07,0,0,1-1-.59q-1-1.93-1.8-3.9a1.06,1.06,0,1,1,1.94-.84c.55,1.27,1.14,2.54,1.76,3.8a1.06,1.06,0,0,1-.48,1.42A1.12,1.12,0,0,1,669.7,483.67Zm-3.33-7.8a1.05,1.05,0,0,1-1-.7c-.49-1.38-.94-2.76-1.32-4.11a1.06,1.06,0,1,1,2-.57c.37,1.3.8,2.63,1.27,4a1,1,0,0,1-.64,1.35A1,1,0,0,1,666.37,475.87Zm-2.31-8.15a1.06,1.06,0,0,1-1-.82c-.33-1.4-.67-2.75-1-4.06a1.06,1.06,0,0,1,2-.58c.38,1.35.73,2.73,1.06,4.16a1,1,0,0,1-.79,1.27Zm-2.29-8.16a1.06,1.06,0,0,1-1-.73c-.45-1.36-.92-2.67-1.42-3.93a1.06,1.06,0,1,1,2-.78c.51,1.3,1,2.65,1.46,4a1,1,0,0,1-.67,1.34A1,1,0,0,1,661.77,459.56Zm-3.11-7.89a1.07,1.07,0,0,1-1-.61c-.6-1.3-1.22-2.54-1.87-3.73a1.06,1.06,0,1,1,1.87-1c.66,1.23,1.31,2.51,1.92,3.85a1.06,1.06,0,0,1-1,1.5Zm-4-7.44a1.06,1.06,0,0,1-.89-.49c-.54-.85-1.1-1.69-1.68-2.49l-.5.06a1.06,1.06,0,0,1-.29-2.1,1,1,0,0,1,.32-.38A1,1,0,0,1,653,439l2.46-.34a1.06,1.06,0,1,1,.29,2.1l-1.35.19c.37.54.74,1.1,1.1,1.66a1.06,1.06,0,0,1-.33,1.46A1.08,1.08,0,0,1,654.62,444.23ZM628.87,443c-1,0-2,0-2.9-.05a1.06,1.06,0,0,1-1-1.09,1.1,1.1,0,0,1,1.09-1c1,0,1.93.05,2.93.05h1.27a1,1,0,0,1,1.07,1.05,1.06,1.06,0,0,1-1,1.07h-1.39Zm5.62-.13a1.06,1.06,0,0,1-1-1,1,1,0,0,1,1-1.1c1.37-.07,2.78-.15,4.21-.25a1.07,1.07,0,0,1,1.13,1,1,1,0,0,1-1,1.13c-1.45.11-2.88.19-4.27.25Zm-12.72-.18h-.1c-1.55-.15-3-.36-4.3-.61a1.06,1.06,0,1,1,.41-2.08c1.23.24,2.61.43,4.09.58a1.06,1.06,0,0,1-.1,2.11Zm21.2-.42a1.08,1.08,0,0,1-1.06-1,1.06,1.06,0,0,1,1-1.15c1.38-.13,2.79-.27,4.21-.43a1,1,0,0,1,1.17.94,1.06,1.06,0,0,1-.94,1.17c-1.43.16-2.85.3-4.24.43ZM613.48,441a1.06,1.06,0,0,1-.34-.06,41,41,0,0,1-4-1.59,1.05,1.05,0,0,1-.53-1.4,1.06,1.06,0,0,1,1.41-.53,40.51,40.51,0,0,0,3.84,1.51,1.06,1.06,0,0,1-.34,2.07Zm46.35-.83a1.06,1.06,0,0,1-.16-2.11l4.19-.66a1.06,1.06,0,0,1,.34,2.1l-4.21.66Zm8.38-1.35a1.06,1.06,0,0,1-.18-2.11l4.18-.73a1.06,1.06,0,0,1,.38,2.08l-4.2.74Zm-18.66-1.36a1.07,1.07,0,0,1-.8-.36c-.92-1-1.88-2.05-2.87-3a1.06,1.06,0,1,1,1.46-1.54c1,1,2,2,3,3.12a1.06,1.06,0,0,1-.09,1.5A1,1,0,0,1,649.55,437.44Zm-43.71-.07a1.07,1.07,0,0,1-.61-.19,12.67,12.67,0,0,1-3.32-3.17,1.06,1.06,0,1,1,1.74-1.21,10.63,10.63,0,0,0,2.79,2.63,1.06,1.06,0,0,1-.6,1.94Zm70.74-.08a1.06,1.06,0,0,1-.2-2.1l4.17-.8a1.06,1.06,0,1,1,.4,2.08l-4.17.8A.71.71,0,0,1,676.58,437.29Zm8.34-1.62a1.06,1.06,0,0,1-1-.85,1,1,0,0,1,.83-1.25l4.15-.86a1.06,1.06,0,0,1,.44,2.08l-4.17.86Zm8.32-1.73a1.06,1.06,0,0,1-.23-2.1l4.15-.9a1.06,1.06,0,0,1,.46,2.07l-4.16.9Zm8.3-1.83a1.06,1.06,0,0,1-.24-2.09l4.14-.95a1.06,1.06,0,0,1,.48,2.07l-4.15.95Zm-58.13-.5a1.05,1.05,0,0,1-.65-.23c-1.09-.86-2.22-1.67-3.37-2.41a1.06,1.06,0,0,1-.31-1.47,1.05,1.05,0,0,1,1.46-.31,40.7,40.7,0,0,1,3.53,2.53,1.06,1.06,0,0,1-.66,1.89Zm-41.61-1.14-.2,0a1.06,1.06,0,0,1-.85-1.24,7.49,7.49,0,0,1,2.54-4.13,1.06,1.06,0,1,1,1.41,1.59,5.35,5.35,0,0,0-1.86,2.93A1.08,1.08,0,0,1,601.8,430.47Zm108-.27a1.06,1.06,0,0,1-.24-2.09l4.13-1a1.06,1.06,0,0,1,.49,2.07l-4.14,1Zm8.27-2a1.06,1.06,0,0,1-.26-2.09l4.13-1a1.06,1.06,0,0,1,.51,2.06l-4.13,1A1.07,1.07,0,0,1,718.09,428.21ZM636.3,427a1.21,1.21,0,0,1-.49-.11,39.34,39.34,0,0,0-3.76-1.69,1.06,1.06,0,1,1,.76-2,42.6,42.6,0,0,1,4,1.78,1.06,1.06,0,0,1-.48,2Zm90-.89a1.06,1.06,0,0,1-.27-2.09l2.63-.68v-.06l.67-.12.88-.18a1.06,1.06,0,1,1,.45,2.07l-1,.19v0c-.54.19-1.48.43-3.15.86A.82.82,0,0,1,726.34,426.13ZM607.58,424.7a1.06,1.06,0,0,1-1-.63,1.08,1.08,0,0,1,.54-1.4,24,24,0,0,1,4.22-1.38,1.06,1.06,0,0,1,.48,2.07,21.35,21.35,0,0,0-3.84,1.25A1.07,1.07,0,0,1,607.58,424.7Zm127-.64a1.06,1.06,0,0,1-.29-2.08c1.2-.34,2.55-.75,4-1.25a1.06,1.06,0,1,1,.69,2c-1.49.52-2.89.94-4.11,1.29A1,1,0,0,1,734.62,424.06ZM628.4,424l-.27,0a38.79,38.79,0,0,0-4-.86,1.06,1.06,0,0,1,.33-2.1,39.92,39.92,0,0,1,4.26.91,1.06,1.06,0,0,1-.28,2.08Zm-12.6-1.22a1.06,1.06,0,0,1-.09-2.12,37,37,0,0,1,4.37-.08,1.06,1.06,0,0,1,1,1.1,1,1,0,0,1-1.11,1,32.79,32.79,0,0,0-4.11.08Zm126.86-1.45a1,1,0,0,1-1-.65,1.06,1.06,0,0,1,.57-1.39c1.33-.54,2.61-1.12,3.8-1.72a1.07,1.07,0,0,1,1.43.48,1.06,1.06,0,0,1-.48,1.42c-1.25.62-2.57,1.22-3.94,1.79A1.12,1.12,0,0,1,742.66,421.29Zm7.59-3.79a1.06,1.06,0,0,1-.55-2,39.81,39.81,0,0,0,3.41-2.33,1.06,1.06,0,1,1,1.29,1.69,40.4,40.4,0,0,1-3.6,2.45A1.08,1.08,0,0,1,750.25,417.5Zm6.69-5.18a1.07,1.07,0,0,1-.75-1.81,23.62,23.62,0,0,0,2.58-3.11,1.06,1.06,0,1,1,1.75,1.19A25.23,25.23,0,0,1,757.7,412,1.07,1.07,0,0,1,756.94,412.32Zm-39.51-4.66a1,1,0,0,1-.89-.49c-.75-1.16-1.52-2.36-2.29-3.59a1.06,1.06,0,0,1,.33-1.46,1.08,1.08,0,0,1,1.47.33c.76,1.22,1.52,2.41,2.27,3.57a1.07,1.07,0,0,1-.89,1.64Zm44.21-2.33a.91.91,0,0,1-.39-.08,1,1,0,0,1-.59-1.37,16.66,16.66,0,0,0,1-3.83,1.06,1.06,0,1,1,2.1.29,18.61,18.61,0,0,1-1.14,4.32A1.07,1.07,0,0,1,761.64,405.33Zm-48.72-4.86A1.08,1.08,0,0,1,712,400q-1.1-1.8-2.19-3.66a1.06,1.06,0,1,1,1.83-1.07c.72,1.22,1.45,2.43,2.17,3.62a1.07,1.07,0,0,1-.9,1.62ZM762.83,397a1.06,1.06,0,0,1-1.06-1,27.06,27.06,0,0,0-.58-4.05,1.06,1.06,0,0,1,.81-1.26,1,1,0,0,1,1.26.81,31.47,31.47,0,0,1,.63,4.35,1.06,1.06,0,0,1-1,1.13Zm-54.21-3.87a1.09,1.09,0,0,1-.93-.54c-.7-1.24-1.38-2.49-2.06-3.74a1.06,1.06,0,1,1,1.87-1c.67,1.23,1.35,2.47,2,3.69a1.06,1.06,0,0,1-.4,1.45A1.13,1.13,0,0,1,708.62,393.15Zm52.46-4.41a1.05,1.05,0,0,1-1-.71c-.44-1.28-1-2.57-1.55-3.83a1.06,1.06,0,1,1,1.92-.89,39.5,39.5,0,0,1,1.63,4,1,1,0,0,1-1,1.4Zm-56.48-3.07a1.05,1.05,0,0,1-.94-.58q-1-1.93-1.89-3.84a1.06,1.06,0,0,1,1.92-.9q.88,1.88,1.86,3.78a1.06,1.06,0,0,1-.47,1.42A1,1,0,0,1,704.6,385.67Zm52.91-4.61a1.06,1.06,0,0,1-.92-.52,40.34,40.34,0,0,0-2.28-3.45,1.06,1.06,0,0,1,1.71-1.26c.85,1.16,1.66,2.38,2.4,3.63a1,1,0,0,1-.91,1.6ZM701,378a1.05,1.05,0,0,1-1-.64c-.58-1.35-1.12-2.68-1.61-4a1.06,1.06,0,1,1,2-.75c.48,1.28,1,2.57,1.58,3.89a1.06,1.06,0,0,1-.56,1.39A1,1,0,0,1,701,378Zm51.5-3.75a1,1,0,0,1-.78-.34,34.52,34.52,0,0,0-3-2.87,1.06,1.06,0,0,1,1.38-1.61,35.84,35.84,0,0,1,3.13,3.05,1.06,1.06,0,0,1-.06,1.5A1.09,1.09,0,0,1,752.48,374.24Zm-23.16-2.76-.75-2.07c-.29-.79-.6-1.58-1-2.37a1.06,1.06,0,0,1,2-.85c.1.24.21.48.31.73a1.05,1.05,0,0,1,1.44,1.53,9.11,9.11,0,0,0-.85,1.16ZM698,370.05a1.07,1.07,0,0,1-1-.75c-.45-1.47-.82-2.88-1.11-4.19a1.06,1.06,0,0,1,2.08-.45c.27,1.26.62,2.6,1.06,4a1.06,1.06,0,0,1-.7,1.33A1.12,1.12,0,0,1,698,370.05Zm48-1.29a1.07,1.07,0,0,1-.57-.16c-.26-.17-.52-.32-.78-.47a20,20,0,0,0-2.81-1.36,1.06,1.06,0,1,1,.76-2,23.2,23.2,0,0,1,3.11,1.5c.28.16.57.33.85.51a1.06,1.06,0,0,1-.56,2ZM734,366.42a1.06,1.06,0,0,1-.37-2.05,10.87,10.87,0,0,1,4.62-.61,1.06,1.06,0,1,1-.15,2.11,8.78,8.78,0,0,0-3.73.49A1.15,1.15,0,0,1,734,366.42Zm-7.26-2.54a1.09,1.09,0,0,1-.93-.54,41.22,41.22,0,0,0-2.2-3.51,1.07,1.07,0,0,1,.27-1.48,1.06,1.06,0,0,1,1.47.27,41.26,41.26,0,0,1,2.31,3.68,1.05,1.05,0,0,1-.4,1.44A1,1,0,0,1,726.71,363.88Zm-30.41-2.13a1.07,1.07,0,0,1-1.06-1c0-.53-.06-1.05-.06-1.55a22.39,22.39,0,0,1,.19-2.89,1,1,0,0,1,1.19-.91,1.05,1.05,0,0,1,.91,1.19,19.73,19.73,0,0,0-.17,2.61q0,.69.06,1.41a1.06,1.06,0,0,1-1,1.13Zm25.55-4.82a1.07,1.07,0,0,1-.8-.36,35.08,35.08,0,0,0-2.87-3,1.06,1.06,0,1,1,1.44-1.56,37.56,37.56,0,0,1,3,3.13,1.06,1.06,0,0,1-.1,1.5A1.09,1.09,0,0,1,721.85,356.93Zm-24.34-3.49a1.07,1.07,0,0,1-1-1.49,11,11,0,0,1,2.68-3.8,1.06,1.06,0,1,1,1.43,1.57,8.94,8.94,0,0,0-2.17,3.09A1.06,1.06,0,0,1,697.51,353.44Zm18.07-2.19a1,1,0,0,1-.59-.19c-.53-.36-1.07-.7-1.61-1a20.35,20.35,0,0,0-1.91-1,1.06,1.06,0,0,1,.86-1.94,21.37,21.37,0,0,1,2.12,1.09c.58.33,1.16.7,1.73,1.09a1.06,1.06,0,0,1-.6,1.94ZM703.64,348a1,1,0,0,1-1-.81,1.06,1.06,0,0,1,.78-1.28,11.87,11.87,0,0,1,4.62-.14,1.06,1.06,0,0,1-.33,2.1,9.78,9.78,0,0,0-3.79.1A1.15,1.15,0,0,1,703.64,348Z"/><path class="cls-52" d="M718.17,408.8a1.06,1.06,0,0,1-.89-.48c-10.08-15.48-22.1-36.56-22.1-49.11,0-5.79,2-10.14,5.67-12.25s8.52-1.68,13.6,1.26c6.79,3.92,13,11.76,16.12,20.47a1.06,1.06,0,0,1-2,.72c-3-8.26-8.8-15.67-15.18-19.36-4.41-2.54-8.48-3-11.48-1.25s-4.61,5.41-4.61,10.41c0,12,11.83,32.72,21.76,48a1.06,1.06,0,0,1-.31,1.47A1,1,0,0,1,718.17,408.8Z"/><path class="cls-53" d="M716.51,531.51a1.06,1.06,0,0,1-.46-.1c-18.21-8.91-46.68-35.92-52.79-63.47-7.67-34.6-29.62-46-46.17-45.28-7.66.34-13.8,3.42-14.29,7.16-.44,3.41,4.13,6.95,12.22,9.48a1.06,1.06,0,0,1-.63,2c-12.73-4-14-9.09-13.69-11.79.63-4.9,7.34-8.6,16.29-9,17.32-.75,40.39,11.06,48.35,46.94,6,26.91,33.82,53.31,51.64,62a1.06,1.06,0,0,1,.48,1.42A1,1,0,0,1,716.51,531.51Z"/><path class="cls-54" d="M716.51,531.51a1.06,1.06,0,0,1-.46-.1c-18.21-8.91-46.68-35.92-52.79-63.47-7.67-34.6-29.62-46-46.17-45.28-7.66.34-13.8,3.42-14.29,7.16-.44,3.41,4.13,6.95,12.22,9.48a1.06,1.06,0,0,1-.63,2c-12.73-4-14-9.09-13.69-11.79.63-4.9,7.34-8.6,16.29-9,17.32-.75,40.39,11.06,48.35,46.94,6,26.91,33.82,53.31,51.64,62a1.06,1.06,0,0,1,.48,1.42A1,1,0,0,1,716.51,531.51Z"/><path class="cls-3" d="M740.5,667.13v-7.57l-5.85,2.31-52.77-30.46a13.73,13.73,0,0,0-12.42,0l-31,17.92-4.36-3.24v7.64c-.11,1.38.72,2.78,2.55,3.84l35,20.23.1,20.17,17.42-10.06,3.5,2a13.76,13.76,0,0,0,12.42,0L738,671C739.8,669.9,740.62,668.51,740.5,667.13Z"/><path class="cls-55" d="M738,655.69l-56.07-32.37a13.7,13.7,0,0,0-12.42,0l-32.89,19c-3.41,2-3.4,5.19,0,7.18l35,20.23.1,20.17,17.42-10.06,3.5,2a13.76,13.76,0,0,0,12.42,0l32.89-19C741.41,660.89,741.39,657.68,738,655.69Z"/><path class="cls-14" d="M679.07,644c0,2.1-2.93,3.8-6.56,3.79s-6.6-1.71-6.61-3.81,2.93-3.8,6.57-3.79S679.06,641.94,679.07,644Z"/><path class="cls-14" d="M694.26,652.81c0,2.1-2.93,3.8-6.57,3.79s-6.59-1.71-6.61-3.81,2.93-3.8,6.57-3.8S694.25,650.71,694.26,652.81Z"/><ellipse class="cls-14" cx="702.86" cy="661.56" rx="3.8" ry="6.59" transform="translate(37.49 1360.82) rotate(-89.69)"/><polygon class="cls-3" points="689.18 679.8 689.18 687.89 671.76 697.95 671.76 689.86 689.18 679.8"/><g class="cls-56"><path class="cls-57" d="M774.43,558.46a1.13,1.13,0,0,1-.48-.11l-1.9-1a1.06,1.06,0,0,1,1-1.89l1.89,1a1.06,1.06,0,0,1-.48,2Z"/><path class="cls-58" d="M866.84,658.33a17.65,17.65,0,0,1-1.92-.11,1.06,1.06,0,0,1,.25-2.11,14.61,14.61,0,0,0,4-.08,1.06,1.06,0,1,1,.33,2.09A16.53,16.53,0,0,1,866.84,658.33Zm-5.91-1.13a1.22,1.22,0,0,1-.38-.07,22.73,22.73,0,0,1-4-2,1.06,1.06,0,0,1,1.14-1.78,20.09,20.09,0,0,0,3.6,1.84,1.06,1.06,0,0,1-.38,2.05Zm12.46-.25a1.06,1.06,0,0,1-.41-2,22.41,22.41,0,0,0,2.25-1.12l1.37-.82a1.06,1.06,0,1,1,1.11,1.8c-.46.29-.93.57-1.42.85a21.24,21.24,0,0,1-2.48,1.24A1.06,1.06,0,0,1,873.39,657Zm-19.65-4.26a1.08,1.08,0,0,1-.7-.27,39.17,39.17,0,0,1-3.12-3.08,1.07,1.07,0,0,1,1.58-1.43,36.68,36.68,0,0,0,2.94,2.92,1.06,1.06,0,0,1,.1,1.5A1.05,1.05,0,0,1,853.74,652.69Zm27-.15a1.06,1.06,0,0,1-.63-1.91,34.91,34.91,0,0,0,3.18-2.66,1.06,1.06,0,0,1,1.46,1.54,39.21,39.21,0,0,1-3.37,2.82A1.11,1.11,0,0,1,880.7,652.54Zm6.13-5.92a1.09,1.09,0,0,1-.64-.21,1.07,1.07,0,0,1-.21-1.49,17.1,17.1,0,0,0,2-3.46,1.06,1.06,0,1,1,2,.83,19.18,19.18,0,0,1-2.27,3.9A1.07,1.07,0,0,1,886.83,646.62ZM848,646.39a1.08,1.08,0,0,1-.85-.42c-.84-1.11-1.68-2.31-2.49-3.57a1.06,1.06,0,0,1,1.77-1.15c.79,1.21,1.61,2.36,2.42,3.44a1.06,1.06,0,0,1-.21,1.48A1,1,0,0,1,848,646.39Zm-4.68-7.16a1,1,0,0,1-.92-.53c-.7-1.22-1.39-2.49-2.06-3.81a1,1,0,0,1,.46-1.42,1.06,1.06,0,0,1,1.43.46q1,1.92,2,3.72a1,1,0,0,1-.92,1.58Zm46.78-.4H890a1.06,1.06,0,0,1-.93-1.18,13.82,13.82,0,0,0,.09-1.58,14.68,14.68,0,0,0-.2-2.37,1.06,1.06,0,0,1,.88-1.22,1,1,0,0,1,1.21.87,15.77,15.77,0,0,1,.23,2.72,14,14,0,0,1-.11,1.83A1.06,1.06,0,0,1,890.09,638.83Zm-50.68-7.21a1.07,1.07,0,0,1-1-.62c-.59-1.28-1.16-2.6-1.73-4a1.06,1.06,0,1,1,2-.82c.55,1.33,1.12,2.63,1.7,3.89a1,1,0,0,1-.52,1.4A1,1,0,0,1,839.41,631.62Zm49.39-1.12a1,1,0,0,1-1-.66,26.6,26.6,0,0,0-1.86-3.63,1.06,1.06,0,1,1,1.8-1.11,27.27,27.27,0,0,1,2,3.94,1.08,1.08,0,0,1-.58,1.39A1.12,1.12,0,0,1,888.8,630.5Zm-52.69-6.77a1.05,1.05,0,0,1-1-.69q-.75-2-1.47-4a1.06,1.06,0,1,1,2-.69c.47,1.35,1,2.69,1.45,4a1.06,1.06,0,0,1-1,1.44Zm48.31-.52a1.08,1.08,0,0,1-.84-.4c-.81-1-1.73-2.11-2.73-3.18a1.06,1.06,0,0,1,1.56-1.44c1,1.11,2,2.23,2.84,3.31a1.06,1.06,0,0,1-.18,1.49A1.08,1.08,0,0,1,884.42,623.21Zm-5.8-6.27a1.05,1.05,0,0,1-.73-.29c-1-.94-2-1.88-3.15-2.83a1.06,1.06,0,0,1,1.38-1.61c1.13,1,2.21,1.93,3.23,2.9a1.06,1.06,0,0,1-.73,1.83Zm-45.32-1.29a1.07,1.07,0,0,1-1-.74c-.43-1.36-.84-2.73-1.25-4.12a1.06,1.06,0,1,1,2-.59c.4,1.37.81,2.73,1.23,4.06a1.07,1.07,0,0,1-.69,1.34A1.13,1.13,0,0,1,833.3,615.65Zm38.83-4.29a1.09,1.09,0,0,1-.66-.22c-1.09-.86-2.22-1.72-3.38-2.58a1.06,1.06,0,0,1,1.26-1.7c1.18.87,2.33,1.74,3.43,2.61A1.06,1.06,0,0,1,873,611,1,1,0,0,1,872.13,611.36Zm-41.22-3.93a1.05,1.05,0,0,1-1-.79c-.37-1.37-.72-2.76-1.06-4.17a1.06,1.06,0,0,1,2.06-.5c.34,1.39.69,2.77,1.05,4.13a1.06,1.06,0,0,1-.75,1.29A.9.9,0,0,1,830.91,607.43Zm34.33-1.15a1,1,0,0,1-.6-.19c-1.15-.8-2.33-1.6-3.53-2.39a1.06,1.06,0,0,1,1.18-1.77c1.21.8,2.4,1.61,3.56,2.42a1.06,1.06,0,0,1-.61,1.93Zm-7.13-4.73a1,1,0,0,1-.57-.17c-1.19-.75-2.39-1.5-3.62-2.25a1,1,0,0,1-.35-1.45,1.06,1.06,0,0,1,1.46-.36c1.23.76,2.45,1.51,3.65,2.27a1.06,1.06,0,0,1,.32,1.47A1,1,0,0,1,858.11,601.55Zm-29.21-2.44a1.06,1.06,0,0,1-1-.83c-.3-1.39-.6-2.79-.88-4.21a1.06,1.06,0,0,1,2.08-.41c.28,1.4.57,2.79.87,4.16a1.06,1.06,0,0,1-.8,1.27A.93.93,0,0,1,828.9,599.11Zm21.9-2a1.08,1.08,0,0,1-.54-.15c-1.21-.72-2.44-1.43-3.69-2.15a1.06,1.06,0,0,1,1.06-1.84l3.71,2.16a1.06,1.06,0,0,1-.54,2Zm-7.43-4.26a1,1,0,0,1-.51-.13c-1.24-.69-2.48-1.38-3.74-2.06a1.06,1.06,0,0,1,1-1.87l3.76,2.07a1.06,1.06,0,0,1-.52,2Zm-16.15-2.11a1.06,1.06,0,0,1-1-.87c-.26-1.4-.5-2.81-.72-4.24a1.06,1.06,0,1,1,2.09-.33c.23,1.41.46,2.81.71,4.2a1.06,1.06,0,0,1-.85,1.23Zm8.63-2a1,1,0,0,1-.49-.13l-3.78-2a1.06,1.06,0,1,1,1-1.88c1.27.66,2.54,1.33,3.79,2a1.05,1.05,0,0,1,.44,1.43A1.07,1.07,0,0,1,835.85,588.74Zm-7.59-4a1.07,1.07,0,0,1-.49-.12L824,582.71a1.06,1.06,0,0,1,.77-2c-.17-1.2-.33-2.42-.48-3.63a1.06,1.06,0,1,1,2.11-.26c.17,1.41.36,2.82.56,4.22a1.08,1.08,0,0,1-.14.69l2,1a1.06,1.06,0,0,1-.48,2Zm-7.64-3.87a1.05,1.05,0,0,1-.48-.11l-3.82-1.89a1.06,1.06,0,0,1,.94-1.9l3.83,1.89a1.06,1.06,0,0,1-.47,2ZM813,577.12a1.1,1.1,0,0,1-.47-.1l-3.84-1.88a1.06,1.06,0,1,1,.92-1.9l3.85,1.87a1.06,1.06,0,0,1-.46,2Zm11.87-3.34a1,1,0,0,1-1.05-.94c-.15-1.42-.29-2.85-.41-4.27a1.06,1.06,0,1,1,2.11-.18c.12,1.41.26,2.82.4,4.22a1.05,1.05,0,0,1-.94,1.17Zm-19.58-.39a1,1,0,0,1-.46-.11l-3.85-1.85a1.06,1.06,0,1,1,.91-1.91l3.86,1.86a1.06,1.06,0,0,1,.5,1.41A1.07,1.07,0,0,1,805.24,573.39Zm-7.72-3.7a1,1,0,0,1-.45-.1l-3.87-1.85a1.06,1.06,0,1,1,.92-1.91l3.86,1.84a1.07,1.07,0,0,1,.5,1.42A1.06,1.06,0,0,1,797.52,569.69ZM789.8,566a1.06,1.06,0,0,1-.46-.1L785.48,564a1.06,1.06,0,0,1,.92-1.91l3.86,1.86a1.06,1.06,0,0,1-.46,2Zm34.28-.71a1.05,1.05,0,0,1-1.05-1c-.1-1.43-.19-2.86-.26-4.29a1.06,1.06,0,0,1,1-1.11,1,1,0,0,1,1.11,1c.07,1.42.16,2.83.25,4.24a1.06,1.06,0,0,1-1,1.14Zm-42-3a1.12,1.12,0,0,1-.47-.11l-3.85-1.89a1.06,1.06,0,0,1,1-1.9l3.83,1.88a1.06,1.06,0,0,1-.46,2Zm41.57-5.53a1.06,1.06,0,0,1-1.06-1c-.05-1.43-.08-2.86-.1-4.3a1.06,1.06,0,0,1,1-1.07h0a1.06,1.06,0,0,1,1.06,1c0,1.42,0,2.84.1,4.26a1,1,0,0,1-1,1.09Zm-.11-8.56h0a1,1,0,0,1-1-1.07c0-1.43,0-2.87.07-4.3a1.05,1.05,0,0,1,1.06-1h0a1.07,1.07,0,0,1,1,1.09c0,1.42-.06,2.84-.07,4.26A1.06,1.06,0,0,1,823.55,548.18Zm.22-8.56h0a1.07,1.07,0,0,1-1-1.11c.07-1.43.15-2.87.25-4.3a1.07,1.07,0,0,1,1.13-1,1.06,1.06,0,0,1,1,1.13c-.09,1.41-.17,2.83-.24,4.25A1.06,1.06,0,0,1,823.77,539.62Zm.59-8.54h-.1a1.06,1.06,0,0,1-1-1.15c.13-1.43.27-2.86.43-4.28a1.07,1.07,0,0,1,1.18-.93,1.05,1.05,0,0,1,.93,1.17c-.16,1.4-.3,2.82-.43,4.23A1.06,1.06,0,0,1,824.36,531.08Zm1-8.5h-.15a1.06,1.06,0,0,1-.9-1.2c.2-1.42.41-2.84.64-4.25a1.06,1.06,0,1,1,2.09.34q-.35,2.09-.63,4.2A1.06,1.06,0,0,1,825.32,522.58Zm1.39-8.44-.21,0a1.06,1.06,0,0,1-.84-1.24c.27-1.42.56-2.82.87-4.22a1.07,1.07,0,0,1,2.08.46c-.31,1.38-.6,2.76-.86,4.16A1.07,1.07,0,0,1,826.71,514.14Zm1.85-8.35a1.09,1.09,0,0,1-.26,0,1.06,1.06,0,0,1-.77-1.29c.36-1.4.73-2.79,1.13-4.16a1.06,1.06,0,0,1,2,.59c-.39,1.35-.76,2.71-1.11,4.09A1.07,1.07,0,0,1,828.56,505.79Zm2.38-8.21a1.26,1.26,0,0,1-.33-.05,1.07,1.07,0,0,1-.68-1.34c.46-1.38.93-2.74,1.43-4.08a1,1,0,0,1,1.36-.62,1.06,1.06,0,0,1,.63,1.36c-.49,1.31-1,2.65-1.4,4A1.06,1.06,0,0,1,830.94,497.58Zm3-8a1.07,1.07,0,0,1-1-1.47c.56-1.34,1.15-2.66,1.76-4a1.06,1.06,0,1,1,1.91.91c-.59,1.26-1.17,2.55-1.72,3.86A1.07,1.07,0,0,1,833.92,489.57Zm3.67-7.73a1.11,1.11,0,0,1-.5-.12,1.07,1.07,0,0,1-.44-1.44c.69-1.28,1.41-2.54,2.15-3.76a1.06,1.06,0,0,1,1.46-.35,1,1,0,0,1,.35,1.45c-.72,1.19-1.42,2.41-2.09,3.67A1.05,1.05,0,0,1,837.59,481.84Zm4.44-7.3a1.05,1.05,0,0,1-.87-1.66q1.25-1.8,2.58-3.49a1.06,1.06,0,1,1,1.66,1.31q-1.29,1.64-2.49,3.39A1.09,1.09,0,0,1,842,474.54Zm5.3-6.7a1.07,1.07,0,0,1-.71-.27,1.05,1.05,0,0,1-.07-1.5c1-1.08,2-2.13,3-3.11a1.06,1.06,0,0,1,1.46,1.54c-1,.94-2,1.95-2.93,3A1.06,1.06,0,0,1,847.33,467.84Z"/><path class="cls-59" d="M853.58,461.94a1.06,1.06,0,0,1-.67-1.89c.56-.45,1.14-.89,1.71-1.32a1.07,1.07,0,0,1,1.49.22,1.06,1.06,0,0,1-.22,1.48c-.56.41-1.11.84-1.64,1.27A1.08,1.08,0,0,1,853.58,461.94Z"/></g><path class="cls-60" d="M774.43,558.46a1.13,1.13,0,0,1-.48-.11l-1.9-1a1.06,1.06,0,0,1,1-1.89l1.89,1a1.06,1.06,0,0,1-.48,2Z"/><path class="cls-61" d="M866.84,658.33a17.65,17.65,0,0,1-1.92-.11,1.06,1.06,0,0,1,.25-2.11,14.61,14.61,0,0,0,4-.08,1.06,1.06,0,1,1,.33,2.09A16.53,16.53,0,0,1,866.84,658.33Zm-5.91-1.13a1.22,1.22,0,0,1-.38-.07,22.73,22.73,0,0,1-4-2,1.06,1.06,0,0,1,1.14-1.78,20.09,20.09,0,0,0,3.6,1.84,1.06,1.06,0,0,1-.38,2.05Zm12.46-.25a1.06,1.06,0,0,1-.41-2,22.41,22.41,0,0,0,2.25-1.12l1.37-.82a1.06,1.06,0,1,1,1.11,1.8c-.46.29-.93.57-1.42.85a21.24,21.24,0,0,1-2.48,1.24A1.06,1.06,0,0,1,873.39,657Zm-19.65-4.26a1.08,1.08,0,0,1-.7-.27,39.17,39.17,0,0,1-3.12-3.08,1.07,1.07,0,0,1,1.58-1.43,36.68,36.68,0,0,0,2.94,2.92,1.06,1.06,0,0,1,.1,1.5A1.05,1.05,0,0,1,853.74,652.69Zm27-.15a1.06,1.06,0,0,1-.63-1.91,34.91,34.91,0,0,0,3.18-2.66,1.06,1.06,0,0,1,1.46,1.54,39.21,39.21,0,0,1-3.37,2.82A1.11,1.11,0,0,1,880.7,652.54Zm6.13-5.92a1.09,1.09,0,0,1-.64-.21,1.07,1.07,0,0,1-.21-1.49,17.1,17.1,0,0,0,2-3.46,1.06,1.06,0,1,1,2,.83,19.18,19.18,0,0,1-2.27,3.9A1.07,1.07,0,0,1,886.83,646.62ZM848,646.39a1.08,1.08,0,0,1-.85-.42c-.84-1.11-1.68-2.31-2.49-3.57a1.06,1.06,0,0,1,1.77-1.15c.79,1.21,1.61,2.36,2.42,3.44a1.06,1.06,0,0,1-.21,1.48A1,1,0,0,1,848,646.39Zm-4.68-7.16a1,1,0,0,1-.92-.53c-.7-1.22-1.39-2.49-2.06-3.81a1,1,0,0,1,.46-1.42,1.06,1.06,0,0,1,1.43.46q1,1.92,2,3.72a1,1,0,0,1-.92,1.58Zm46.78-.4H890a1.06,1.06,0,0,1-.93-1.18,13.82,13.82,0,0,0,.09-1.58,14.68,14.68,0,0,0-.2-2.37,1.06,1.06,0,0,1,.88-1.22,1,1,0,0,1,1.21.87,15.77,15.77,0,0,1,.23,2.72,14,14,0,0,1-.11,1.83A1.06,1.06,0,0,1,890.09,638.83Zm-50.68-7.21a1.07,1.07,0,0,1-1-.62c-.59-1.28-1.16-2.6-1.73-4a1.06,1.06,0,1,1,2-.82c.55,1.33,1.12,2.63,1.7,3.89a1,1,0,0,1-.52,1.4A1,1,0,0,1,839.41,631.62Zm49.39-1.12a1,1,0,0,1-1-.66,26.6,26.6,0,0,0-1.86-3.63,1.06,1.06,0,1,1,1.8-1.11,27.27,27.27,0,0,1,2,3.94,1.08,1.08,0,0,1-.58,1.39A1.12,1.12,0,0,1,888.8,630.5Zm-52.69-6.77a1.05,1.05,0,0,1-1-.69q-.75-2-1.47-4a1.06,1.06,0,1,1,2-.69c.47,1.35,1,2.69,1.45,4a1.06,1.06,0,0,1-1,1.44Zm48.31-.52a1.08,1.08,0,0,1-.84-.4c-.81-1-1.73-2.11-2.73-3.18a1.06,1.06,0,0,1,1.56-1.44c1,1.11,2,2.23,2.84,3.31a1.06,1.06,0,0,1-.18,1.49A1.08,1.08,0,0,1,884.42,623.21Zm-5.8-6.27a1.05,1.05,0,0,1-.73-.29c-1-.94-2-1.88-3.15-2.83a1.06,1.06,0,0,1,1.38-1.61c1.13,1,2.21,1.93,3.23,2.9a1.06,1.06,0,0,1-.73,1.83Zm-45.32-1.29a1.07,1.07,0,0,1-1-.74c-.43-1.36-.84-2.73-1.25-4.12a1.06,1.06,0,1,1,2-.59c.4,1.37.81,2.73,1.23,4.06a1.07,1.07,0,0,1-.69,1.34A1.13,1.13,0,0,1,833.3,615.65Zm38.83-4.29a1.09,1.09,0,0,1-.66-.22c-1.09-.86-2.22-1.72-3.38-2.58a1.06,1.06,0,0,1,1.26-1.7c1.18.87,2.33,1.74,3.43,2.61A1.06,1.06,0,0,1,873,611,1,1,0,0,1,872.13,611.36Zm-41.22-3.93a1.05,1.05,0,0,1-1-.79c-.37-1.37-.72-2.76-1.06-4.17a1.06,1.06,0,0,1,2.06-.5c.34,1.39.69,2.77,1.05,4.13a1.06,1.06,0,0,1-.75,1.29A.9.9,0,0,1,830.91,607.43Zm34.33-1.15a1,1,0,0,1-.6-.19c-1.15-.8-2.33-1.6-3.53-2.39a1.06,1.06,0,0,1,1.18-1.77c1.21.8,2.4,1.61,3.56,2.42a1.06,1.06,0,0,1-.61,1.93Zm-7.13-4.73a1,1,0,0,1-.57-.17c-1.19-.75-2.39-1.5-3.62-2.25a1,1,0,0,1-.35-1.45,1.06,1.06,0,0,1,1.46-.36c1.23.76,2.45,1.51,3.65,2.27a1.06,1.06,0,0,1,.32,1.47A1,1,0,0,1,858.11,601.55Zm-29.21-2.44a1.06,1.06,0,0,1-1-.83c-.3-1.39-.6-2.79-.88-4.21a1.06,1.06,0,0,1,2.08-.41c.28,1.4.57,2.79.87,4.16a1.06,1.06,0,0,1-.8,1.27A.93.93,0,0,1,828.9,599.11Zm21.9-2a1.08,1.08,0,0,1-.54-.15c-1.21-.72-2.44-1.43-3.69-2.15a1.06,1.06,0,0,1,1.06-1.84l3.71,2.16a1.06,1.06,0,0,1-.54,2Zm-7.43-4.26a1,1,0,0,1-.51-.13c-1.24-.69-2.48-1.38-3.74-2.06a1.06,1.06,0,0,1,1-1.87l3.76,2.07a1.06,1.06,0,0,1-.52,2Zm-16.15-2.11a1.06,1.06,0,0,1-1-.87c-.26-1.4-.5-2.81-.72-4.24a1.06,1.06,0,1,1,2.09-.33c.23,1.41.46,2.81.71,4.2a1.06,1.06,0,0,1-.85,1.23Zm8.63-2a1,1,0,0,1-.49-.13l-3.78-2a1.06,1.06,0,1,1,1-1.88c1.27.66,2.54,1.33,3.79,2a1.05,1.05,0,0,1,.44,1.43A1.07,1.07,0,0,1,835.85,588.74Zm-7.59-4a1.07,1.07,0,0,1-.49-.12L824,582.71a1.06,1.06,0,0,1,.77-2c-.17-1.2-.33-2.42-.48-3.63a1.06,1.06,0,1,1,2.11-.26c.17,1.41.36,2.82.56,4.22a1.08,1.08,0,0,1-.14.69l2,1a1.06,1.06,0,0,1-.48,2Zm-7.64-3.87a1.05,1.05,0,0,1-.48-.11l-3.82-1.89a1.06,1.06,0,0,1,.94-1.9l3.83,1.89a1.06,1.06,0,0,1-.47,2ZM813,577.12a1.1,1.1,0,0,1-.47-.1l-3.84-1.88a1.06,1.06,0,1,1,.92-1.9l3.85,1.87a1.06,1.06,0,0,1-.46,2Zm11.87-3.34a1,1,0,0,1-1.05-.94c-.15-1.42-.29-2.85-.41-4.27a1.06,1.06,0,1,1,2.11-.18c.12,1.41.26,2.82.4,4.22a1.05,1.05,0,0,1-.94,1.17Zm-19.58-.39a1,1,0,0,1-.46-.11l-3.85-1.85a1.06,1.06,0,1,1,.91-1.91l3.86,1.86a1.06,1.06,0,0,1,.5,1.41A1.07,1.07,0,0,1,805.24,573.39Zm-7.72-3.7a1,1,0,0,1-.45-.1l-3.87-1.85a1.06,1.06,0,1,1,.92-1.91l3.86,1.84a1.07,1.07,0,0,1,.5,1.42A1.06,1.06,0,0,1,797.52,569.69ZM789.8,566a1.06,1.06,0,0,1-.46-.1L785.48,564a1.06,1.06,0,0,1,.92-1.91l3.86,1.86a1.06,1.06,0,0,1-.46,2Zm34.28-.71a1.05,1.05,0,0,1-1.05-1c-.1-1.43-.19-2.86-.26-4.29a1.06,1.06,0,0,1,1-1.11,1,1,0,0,1,1.11,1c.07,1.42.16,2.83.25,4.24a1.06,1.06,0,0,1-1,1.14Zm-42-3a1.12,1.12,0,0,1-.47-.11l-3.85-1.89a1.06,1.06,0,0,1,1-1.9l3.83,1.88a1.06,1.06,0,0,1-.46,2Zm41.57-5.53a1.06,1.06,0,0,1-1.06-1c-.05-1.43-.08-2.86-.1-4.3a1.06,1.06,0,0,1,1-1.07h0a1.06,1.06,0,0,1,1.06,1c0,1.42,0,2.84.1,4.26a1,1,0,0,1-1,1.09Zm-.11-8.56h0a1,1,0,0,1-1-1.07c0-1.43,0-2.87.07-4.3a1.05,1.05,0,0,1,1.06-1h0a1.07,1.07,0,0,1,1,1.09c0,1.42-.06,2.84-.07,4.26A1.06,1.06,0,0,1,823.55,548.18Zm.22-8.56h0a1.07,1.07,0,0,1-1-1.11c.07-1.43.15-2.87.25-4.3a1.07,1.07,0,0,1,1.13-1,1.06,1.06,0,0,1,1,1.13c-.09,1.41-.17,2.83-.24,4.25A1.06,1.06,0,0,1,823.77,539.62Zm.59-8.54h-.1a1.06,1.06,0,0,1-1-1.15c.13-1.43.27-2.86.43-4.28a1.07,1.07,0,0,1,1.18-.93,1.05,1.05,0,0,1,.93,1.17c-.16,1.4-.3,2.82-.43,4.23A1.06,1.06,0,0,1,824.36,531.08Zm1-8.5h-.15a1.06,1.06,0,0,1-.9-1.2c.2-1.42.41-2.84.64-4.25a1.06,1.06,0,1,1,2.09.34q-.35,2.09-.63,4.2A1.06,1.06,0,0,1,825.32,522.58Zm1.39-8.44-.21,0a1.06,1.06,0,0,1-.84-1.24c.27-1.42.56-2.82.87-4.22a1.07,1.07,0,0,1,2.08.46c-.31,1.38-.6,2.76-.86,4.16A1.07,1.07,0,0,1,826.71,514.14Zm1.85-8.35a1.09,1.09,0,0,1-.26,0,1.06,1.06,0,0,1-.77-1.29c.36-1.4.73-2.79,1.13-4.16a1.06,1.06,0,0,1,2,.59c-.39,1.35-.76,2.71-1.11,4.09A1.07,1.07,0,0,1,828.56,505.79Zm2.38-8.21a1.26,1.26,0,0,1-.33-.05,1.07,1.07,0,0,1-.68-1.34c.46-1.38.93-2.74,1.43-4.08a1,1,0,0,1,1.36-.62,1.06,1.06,0,0,1,.63,1.36c-.49,1.31-1,2.65-1.4,4A1.06,1.06,0,0,1,830.94,497.58Zm3-8a1.07,1.07,0,0,1-1-1.47c.56-1.34,1.15-2.66,1.76-4a1.06,1.06,0,1,1,1.91.91c-.59,1.26-1.17,2.55-1.72,3.86A1.07,1.07,0,0,1,833.92,489.57Zm3.67-7.73a1.11,1.11,0,0,1-.5-.12,1.07,1.07,0,0,1-.44-1.44c.69-1.28,1.41-2.54,2.15-3.76a1.06,1.06,0,0,1,1.46-.35,1,1,0,0,1,.35,1.45c-.72,1.19-1.42,2.41-2.09,3.67A1.05,1.05,0,0,1,837.59,481.84Zm4.44-7.3a1.05,1.05,0,0,1-.87-1.66q1.25-1.8,2.58-3.49a1.06,1.06,0,1,1,1.66,1.31q-1.29,1.64-2.49,3.39A1.09,1.09,0,0,1,842,474.54Zm5.3-6.7a1.07,1.07,0,0,1-.71-.27,1.05,1.05,0,0,1-.07-1.5c1-1.08,2-2.13,3-3.11a1.06,1.06,0,0,1,1.46,1.54c-1,.94-2,1.95-2.93,3A1.06,1.06,0,0,1,847.33,467.84Z"/><path class="cls-62" d="M853.58,461.94a1.06,1.06,0,0,1-.67-1.89c.56-.45,1.14-.89,1.71-1.32a1.07,1.07,0,0,1,1.49.22,1.06,1.06,0,0,1-.22,1.48c-.56.41-1.11.84-1.64,1.27A1.08,1.08,0,0,1,853.58,461.94Z"/><path class="cls-63" d="M730.07,429.55a25,25,0,1,0-33.87-10.22A25,25,0,0,0,730.07,429.55Z"/><path class="cls-64" d="M262.79,492.91V737s.23,8.71,8.65,1.87L573.48,563v-7.52q0-123.36-.28-246.69L423.7,536.17s-2.76,9.58-18.73,7.71Z"/><text class="cls-65" transform="matrix(0.87, -0.49, 0.49, 0.87, 331.59, 653.53)">NEWSLETTER</text><polygon class="cls-66" points="845.14 469.5 899.12 443.04 860.19 480.06 845.14 469.5"/><polygon class="cls-67" points="899.12 443.04 839.6 462.62 824.55 452.06 899.12 443.04"/><polygon class="cls-2" points="839.6 462.62 841.95 477.74 845.14 469.5 899.12 443.04 839.6 462.62"/><polygon class="cls-68" points="839.6 462.62 841.95 477.74 845.14 469.5 899.12 443.04 839.6 462.62"/><polygon class="cls-69" points="590.02 649.9 577.8 688.8 578.95 688.8 592.77 649.9 590.02 649.9"/><polygon class="cls-70" points="609.26 649.9 621.49 688.8 620.33 688.8 606.52 649.9 609.26 649.9"/><polygon class="cls-71" points="600.2 649.9 603.08 688.8 601.92 688.8 597.45 649.9 600.2 649.9"/><path class="cls-72" d="M595.92,637.55s-25.32,3.38-25.32,9.29,13.59,5.77,28,5.91c15.91.16,26.42-5.25,30.06-17,4.78-15.44,1.59-45.15-8.71-46.17C602,587.77,595.92,637.55,595.92,637.55Z"/><path class="cls-73" d="M545.59,684.46s-4.79,1.94-4.83,3.46c0,.5,3.06.31,5.52-.37.4-.11,1.22-.21,1.25-1.26a3.89,3.89,0,0,0-.49-1.79"/><path class="cls-74" d="M595.19,626.76s-27.71,3.06-35,8.76c-3.13,2.43-7.32,15.72-10.61,27.86-3,11.11-4.62,21.37-4.62,21.37l2.47.45s14.79-21,16.83-24.89a29.6,29.6,0,0,0,3.27-18.06s25.94,8,37.6,4.07c7-2.36,8.49-12.1,5-17.93"/><path class="cls-75" d="M546.5,685s13.34-19,17.4-30.75c2-5.79,1.35-12.71,3.1-13.5s24.2,2.61,27.34,3.12,11.57,1.79,13.89-6.44"/><g class="cls-76"><path class="cls-77" d="M605.09,646.32a8.94,8.94,0,0,0,3.39-2.07,38.51,38.51,0,0,0-4.12-11.1,40,40,0,0,0-3.81-5.8l-5.36-.59s-27.71,3.06-35,8.76c-1.45,1.13-3.14,4.62-4.86,9.25a4.24,4.24,0,0,1,4.52.12c2.73,1.9,5,5.12,4.93,11,0,1.17,0,2.35-.07,3.53a29.51,29.51,0,0,0,2.82-17.12S593.43,650.27,605.09,646.32Z"/></g><path class="cls-73" d="M521.47,657.37s-4.34-2.2-5.29-1c-.32.39,2.1,2.28,4.32,3.7a1.23,1.23,0,0,0,1.76-.25,1.83,1.83,0,0,0,.34-1.53"/><path class="cls-74" d="M601.49,630.17s-28.24-10.48-43.35-4.25-36.67,31.45-36.67,31.45,0,1.44,1.19,1.82c.66-.36,23-9.3,29-14.19a36.21,36.21,0,0,0,8.49-9.48s26.48,15.54,43.8,11.91a14,14,0,0,0,11-10.26"/><path class="cls-75" d="M522.32,658.63s20.31-8.77,26.94-14,8.53-9.58,10.79-10.66c1.46-.69,15.71,7.18,26.82,9.28s20.76-.61,22.68-10.56"/><path class="cls-75" d="M602.76,633.7s-1.22,2.78-.79,4.31a6.6,6.6,0,0,0,2,3.25"/><path class="cls-75" d="M601.87,633.71s-1,3.12-.53,4.64a6.4,6.4,0,0,0,2.18,3.28"/><polygon class="cls-78" points="575.3 577.06 582.23 613.14 561.11 618.5 552.92 585.63 575.3 577.06"/><polygon class="cls-79" points="555.5 586.82 573.65 580.37 579.67 611.5 562.73 615.8 555.5 586.82"/><rect class="cls-78" x="557.89" y="588.81" width="18.09" height="1.08" transform="translate(-140.44 179.02) rotate(-15.99)"/><path class="cls-80" d="M579.78,599.83c0-.1-1.84-1-2-1.77s-.32-1.71-.32-1.71-.9-1.84-.51-2.07,1.64,1.55,1.64,1.55l-.07-1.93-.42-2.19a7.8,7.8,0,0,1,1.61,3.16,28.78,28.78,0,0,0,.87,3.62l3.5,2.62-2.36.67Z"/><path class="cls-81" d="M612.44,594.85c-2.67-.36-5.2,2.23-9.18,7.35a69.31,69.31,0,0,1-5.65,6.44l-15.91-9.35-.92,1.54s15.19,18,19,17,11.3-4.58,15.33-11.7C617.51,602,618.61,595.68,612.44,594.85Z"/><path class="cls-3" d="M615.82,594.11c8.41,7.3,9.91,24.62,4.93,36.6C617.31,639,613,643.57,608.3,646c-2.54-6-9.4-13.34-15.68-17a44.27,44.27,0,0,0-8.53-3.1s10.33-3.38,12.82-12.72c-1.5-3.93-1.41-8.07,2.72-11.47,1.71-1.42,4-3.27,4.82-4C609.37,593.43,614.58,593,615.82,594.11Z"/><path class="cls-80" d="M608.12,577.9c-2.69,2.47-3.76,8.3-3.78,9.24a2.68,2.68,0,0,0,2.74,2.48,8.66,8.66,0,0,1,2.47.52,8.33,8.33,0,0,1,0,2.86c-.3,1.16-2.61,3.13-2.61,3.13a34.47,34.47,0,0,0,5.48-.58c2.16-.57,2.67-1.42,2.67-1.42l-1.38-1.65s-.39-3.25.53-4.29,3.2-3.9,2.86-6.51C616.45,576.69,611.76,574.56,608.12,577.9Z"/><path class="cls-80" d="M605.89,582c-.32.15-2.06,1.73-2,2.14s1.59.61,1.59.61"/><path class="cls-16" d="M612.27,575.1c-1.55-.63-4.12.1-5.11.57a5,5,0,0,0-2.33,2,2.47,2.47,0,0,0-.34,1.69l3.32.87a.68.68,0,0,0,.4,0,.79.79,0,0,0,.32-.31,2.54,2.54,0,0,1,1.83-1,3.28,3.28,0,0,0-1,2.06c0,.25,1.49.73,2.25,1.06s2.33,1.78,3,1.18c.4-.37.11-1.6.22-2.13a6.87,6.87,0,0,0,.19-2.7,2.34,2.34,0,0,0-1.7-1.91"/><path class="cls-16" d="M613.86,580.57c-.23.2-.38.72-.57,1a6.92,6.92,0,0,0-1.1,1.87.81.81,0,0,0,.23.75c.27.19.25-.3.71-.34s.93.34,1,1.21c0,.53-.58,2.11-1.42,2.05a.53.53,0,0,0-.48.22.66.66,0,0,0,0,.58c.11.2.69,1.46,1.52,1.39.36.18,1,0,1.4-.1a6.54,6.54,0,0,0,2.28-.91,8.07,8.07,0,0,0,3.42-8.75c-1-3.38-6.66-8.31-11.84-4.2"/><path class="cls-16" d="M616.09,575.76c-.64-.3-.37-1.61-.14-2.08a2.84,2.84,0,0,1,2.43-1.48c1.85,0,3.51,2.17,2.45,3.88-.8,1.3-2.1,1.13-3.49,1"/><polygon class="cls-82" points="571.11 584.71 578.22 623.36 561.11 618.5 552.92 585.63 571.11 584.71"/><polygon class="cls-83" points="569.74 587.92 555.91 588.34 556.38 590.81 570.21 590.38 569.74 587.92"/><polygon class="cls-84" points="557.02 592.99 570.62 592.31 575.57 620.03 562.18 616.67 557.02 592.99"/><rect class="cls-82" x="567.3" y="591.28" width="1.08" height="29.5" transform="translate(-103.35 116.93) rotate(-10.78)"/><rect class="cls-82" x="563.36" y="603.68" width="1.08" height="8.93" transform="translate(-101.95 1102.58) rotate(-83.76)"/><path class="cls-80" d="M580.37,611.5l-3.08-1.5s-.6-3-1-3.4a4.64,4.64,0,0,0-1.26-.75l.13.73c-.36.39-1.71.1-1.92-.32s-1.93-2.75-2.15-2a7,7,0,0,0,.72,3.78,6.68,6.68,0,0,0,2.54,2c.44.26,4.57,3.12,4.57,3.12"/><path class="cls-81" d="M612.93,599a8.18,8.18,0,0,0-8.34,6.83c-.66,4-6,14.22-6,14.22l-19.5-9-.67,2.17s19.07,16.9,22.9,15.9,15-11.47,17-19.4C619.3,605.64,619.09,599.79,612.93,599Z"/></g></g></svg>