<svg id="Layer_1" data-name="Layer 1" xmlns="http://www.w3.org/2000/svg" xmlns:xlink="http://www.w3.org/1999/xlink" viewBox="0 0 24 24"><defs><style>.cls-1{fill:url(#linear-gradient);}.cls-2{fill:url(#linear-gradient-2);}.cls-3{fill:url(#linear-gradient-3);}.cls-4{fill:url(#linear-gradient-4);}.cls-5{fill:url(#linear-gradient-5);}.cls-6{fill:url(#linear-gradient-6);}.cls-7{fill:url(#linear-gradient-7);}.cls-8{fill:url(#linear-gradient-8);}.cls-9{fill:url(#linear-gradient-9);}.cls-10{fill:url(#linear-gradient-10);}.cls-11{fill:url(#linear-gradient-11);}</style><linearGradient id="linear-gradient" x1="7.26" y1="11.42" x2="17.15" y2="11.42" gradientUnits="userSpaceOnUse"><stop offset="0" stop-color="#283376"/><stop offset="1" stop-color="#1c67a6"/></linearGradient><linearGradient id="linear-gradient-2" x1="9.51" y1="18.45" x2="14.88" y2="18.45" xlink:href="#linear-gradient"/><linearGradient id="linear-gradient-3" x1="9.74" y1="19.96" x2="14.64" y2="19.96" xlink:href="#linear-gradient"/><linearGradient id="linear-gradient-4" x1="10.68" y1="21.69" x2="13.7" y2="21.69" xlink:href="#linear-gradient"/><linearGradient id="linear-gradient-5" x1="11.8" y1="2.8" x2="12.78" y2="2.8" xlink:href="#linear-gradient"/><linearGradient id="linear-gradient-6" x1="16.7" y1="4.81" x2="19.46" y2="4.81" xlink:href="#linear-gradient"/><linearGradient id="linear-gradient-7" x1="5.14" y1="16.36" x2="7.89" y2="16.36" xlink:href="#linear-gradient"/><linearGradient id="linear-gradient-8" x1="2.42" y1="10.57" x2="5.9" y2="10.57" xlink:href="#linear-gradient"/><linearGradient id="linear-gradient-9" x1="18.53" y1="10.57" x2="22" y2="10.57" xlink:href="#linear-gradient"/><linearGradient id="linear-gradient-10" x1="5.26" y1="4.91" x2="8.06" y2="4.91" xlink:href="#linear-gradient"/><linearGradient id="linear-gradient-11" x1="16.6" y1="16.24" x2="19.36" y2="16.24" xlink:href="#linear-gradient"/></defs><path class="cls-1" d="M12.16,17.32H10.21a.6.6,0,0,1-.61-.39c-.55-1.26-1.12-2.52-1.67-3.78A6.57,6.57,0,0,1,7.27,10a5,5,0,0,1,5.19-4.5,4.89,4.89,0,0,1,4,2.26A4.56,4.56,0,0,1,17,11.46c-.06.26-.14.52-.22.78-.34,1.1-.68,2.21-1,3.3a5.83,5.83,0,0,1-.51,1.14,1.25,1.25,0,0,1-1.2.65C13.4,17.31,12.78,17.32,12.16,17.32Zm.17-1c.56,0,1.11,0,1.67,0a.39.39,0,0,0,.41-.23c.13-.31.28-.61.38-.93.32-1,.62-2,.93-2.93.09-.32.19-.64.27-1A3.9,3.9,0,0,0,15.94,9,4,4,0,0,0,9.6,7.52a3.76,3.76,0,0,0-1.09,4.25c.54,1.49,1.23,2.93,1.87,4.38,0,.08.19.14.29.14C11.23,16.31,11.78,16.3,12.33,16.3Z"/><path class="cls-2" d="M12.19,18h2.13c.34,0,.55.18.56.47s-.21.5-.56.51H10.07c-.35,0-.57-.21-.56-.51s.22-.47.56-.47Z"/><path class="cls-3" d="M12.18,20.45H10.32c-.35,0-.58-.19-.58-.49s.22-.49.58-.49h3.74c.36,0,.58.19.58.49s-.22.49-.58.49Z"/><path class="cls-4" d="M10.68,21h3a1.41,1.41,0,0,1-1.45,1.39A1.46,1.46,0,0,1,10.68,21Z"/><path class="cls-5" d="M11.8,2.8V1.62c0-.34.19-.55.48-.56s.5.21.5.57V4a.5.5,0,0,1-.48.56c-.3,0-.49-.22-.5-.57Z"/><path class="cls-6" d="M19.46,4a1.36,1.36,0,0,1-.19.31q-.84.87-1.71,1.71a.48.48,0,0,1-.71,0,.49.49,0,0,1,0-.72L18.59,3.6a.48.48,0,0,1,.56-.12A.54.54,0,0,1,19.46,4Z"/><path class="cls-7" d="M7.89,15.56a1,1,0,0,1-.17.29q-.84.87-1.71,1.71a.49.49,0,1,1-.7-.68L7,15.15A.47.47,0,0,1,7.6,15,.51.51,0,0,1,7.89,15.56Z"/><path class="cls-8" d="M4.16,11.06H3a.49.49,0,0,1-.54-.49A.48.48,0,0,1,3,10.09H5.37a.49.49,0,1,1,0,1Z"/><path class="cls-9" d="M20.27,11.06h-1.2a.48.48,0,0,1-.54-.49.48.48,0,0,1,.55-.48h2.39a.49.49,0,1,1,0,1Z"/><path class="cls-10" d="M8.06,5.83a2,2,0,0,1-.35.4.44.44,0,0,1-.56-.1c-.4-.4-.79-.8-1.19-1.19L5.43,4.4a.5.5,0,0,1,0-.72.49.49,0,0,1,.72,0c.58.57,1.15,1.15,1.72,1.73A1.76,1.76,0,0,1,8.06,5.83Z"/><path class="cls-11" d="M17.07,14.83a2.2,2.2,0,0,1,.4.24c.58.56,1.16,1.14,1.73,1.72a.49.49,0,1,1-.69.69c-.59-.57-1.17-1.16-1.74-1.74a.43.43,0,0,1-.1-.55A1.74,1.74,0,0,1,17.07,14.83Z"/></svg>