<svg id="Layer_1" data-name="Layer 1" xmlns="http://www.w3.org/2000/svg" xmlns:xlink="http://www.w3.org/1999/xlink" viewBox="0 0 24 24"><defs><style>.cls-1{fill:url(#linear-gradient);}.cls-2{fill:url(#linear-gradient-2);}.cls-3{fill:url(#linear-gradient-3);}.cls-4{fill:url(#linear-gradient-4);}.cls-5{fill:url(#linear-gradient-5);}.cls-6{fill:url(#linear-gradient-6);}.cls-7{fill:url(#linear-gradient-7);}.cls-8{fill:url(#linear-gradient-8);}</style><linearGradient id="linear-gradient" x1="2.66" y1="13.16" x2="21" y2="13.16" gradientUnits="userSpaceOnUse"><stop offset="0" stop-color="#283376"/><stop offset="1" stop-color="#1c67a6"/></linearGradient><linearGradient id="linear-gradient-2" x1="5.39" y1="14.18" x2="16.24" y2="14.18" xlink:href="#linear-gradient"/><linearGradient id="linear-gradient-3" x1="5.38" y1="12.14" x2="16.24" y2="12.14" xlink:href="#linear-gradient"/><linearGradient id="linear-gradient-4" x1="5.39" y1="16.21" x2="14.54" y2="16.21" xlink:href="#linear-gradient"/><linearGradient id="linear-gradient-5" x1="5.39" y1="18.25" x2="13.18" y2="18.25" xlink:href="#linear-gradient"/><linearGradient id="linear-gradient-6" x1="8.1" y1="10.11" x2="16.24" y2="10.11" xlink:href="#linear-gradient"/><linearGradient id="linear-gradient-7" x1="5.38" y1="10.11" x2="7.41" y2="10.11" xlink:href="#linear-gradient"/><linearGradient id="linear-gradient-8" x1="15.15" y1="19.7" x2="19.46" y2="19.7" xlink:href="#linear-gradient"/></defs><path class="cls-1" d="M18.12,3a1.05,1.05,0,0,1,.8.76,1.5,1.5,0,0,1,0,.42V16.09a.28.28,0,0,0,.15.29A3.65,3.65,0,0,1,21,20.1a3.72,3.72,0,0,1-6.91,1.4.32.32,0,0,0-.32-.19H3.82a1,1,0,0,1-1.12-.76,1.71,1.71,0,0,1,0-.39c0-4.21,0-8.41,0-12.62A.66.66,0,0,1,2.89,7L7.07,3.17,7.29,3ZM13.67,20.64A3.75,3.75,0,0,1,18.28,16V4.14c0-.39-.1-.49-.5-.49h-10V6.56a1.58,1.58,0,0,1,0,.43,1,1,0,0,1-1.07.74H3.35v12.4c0,.07,0,.15,0,.19a.73.73,0,0,0,.24.28c.06,0,.18,0,.27,0h9.8Zm3.59-4.08a3.06,3.06,0,1,0,3,3.1A3,3,0,0,0,17.26,16.56ZM3.89,7l.22,0H6.59c.39,0,.49-.1.49-.48V4.32c0-.06,0-.12,0-.22Z"/><path class="cls-2" d="M10.82,14.52H5.67a.32.32,0,0,1-.28-.32.3.3,0,0,1,.25-.33.75.75,0,0,1,.21,0H15.92a.35.35,0,0,1,.32.34.33.33,0,0,1-.33.33H10.82Z"/><path class="cls-3" d="M10.8,11.81h4.95c.33,0,.49.1.49.33s-.16.34-.5.34h-10c-.24,0-.39-.13-.4-.33s.15-.34.4-.34Z"/><path class="cls-4" d="M10,16.55H5.9a.87.87,0,0,1-.23,0,.33.33,0,0,1,0-.64.9.9,0,0,1,.23,0q4.11,0,8.22,0a1,1,0,0,1,.24,0,.32.32,0,0,1,.23.35.3.3,0,0,1-.28.29,1,1,0,0,1-.24,0Z"/><path class="cls-5" d="M9.27,18.59H5.89a1.06,1.06,0,0,1-.25,0,.33.33,0,0,1,0-.63,1.09,1.09,0,0,1,.26,0h6.8c.33,0,.5.12.49.35s-.16.33-.49.33Z"/><path class="cls-6" d="M12.17,9.77h3.58c.33,0,.49.11.49.33s-.16.35-.5.35H8.6a1.18,1.18,0,0,1-.27,0,.32.32,0,0,1-.23-.34.32.32,0,0,1,.27-.3h3.8Z"/><path class="cls-7" d="M6.4,9.77h.65a.34.34,0,0,1,.36.32.33.33,0,0,1-.35.35H5.73a.34.34,0,1,1,0-.67H6.4Z"/><path class="cls-8" d="M16.58,20.49c.74-.73,1.46-1.45,2.17-2.17.26-.25.45-.29.61-.12s.13.35-.12.6l-2.31,2.3c-.27.28-.42.28-.69,0l-.95-.94a.36.36,0,0,1-.09-.45.34.34,0,0,1,.57,0Z"/></svg>