<svg xmlns="http://www.w3.org/2000/svg" xmlns:xlink="http://www.w3.org/1999/xlink" viewBox="0 0 1080 1080"><defs><style>.cls-1,.cls-37{isolation:isolate;}.cls-2{fill:#70a5ee;}.cls-3{fill:#cecece;}.cls-28,.cls-3{opacity:0.3;}.cls-4{fill:url(#linear-gradient);}.cls-5{fill:#201e60;}.cls-16,.cls-34,.cls-6{fill:#fff;}.cls-11,.cls-14,.cls-15,.cls-17,.cls-18,.cls-7{fill:none;}.cls-7{stroke:#00e0dc;stroke-width:0.76px;}.cls-11,.cls-14,.cls-16,.cls-17,.cls-18,.cls-7{stroke-miterlimit:10;}.cls-8{fill:#272262;opacity:0.5;mix-blend-mode:multiply;}.cls-9{fill:#4198c4;}.cls-10{fill:#089bcb;}.cls-11{stroke:#0c03c6;stroke-width:0.63px;}.cls-12{fill:#322d7b;}.cls-13{fill:#cdd7f9;}.cls-14,.cls-15,.cls-16,.cls-17,.cls-18{stroke:#089bcb;}.cls-14{stroke-width:0.9px;}.cls-15,.cls-18{stroke-linecap:round;}.cls-15{stroke-linejoin:round;stroke-width:1.67px;}.cls-16,.cls-17,.cls-18{stroke-width:2px;}.cls-19{fill:#dba585;}.cls-20{fill:#5f76af;}.cls-21{fill:#6881be;}.cls-22{fill:#3162c4;}.cls-23{fill:#343d57;}.cls-24{fill:#393d3f;}.cls-25{fill:#d3d6e6;}.cls-26{fill:#dee3fc;}.cls-27{fill:#cc7a63;}.cls-28{fill:#c4c6c6;}.cls-29{fill:#467cdb;}.cls-30{fill:#bb6953;}.cls-31{fill:#007cff;}.cls-32{opacity:0.4;}.cls-33{opacity:0.1;}.cls-34,.cls-37{opacity:0.2;}.cls-35{fill:#1a2e35;}.cls-36{fill:#143c83;}.cls-38{fill:#d14c38;}</style><linearGradient id="linear-gradient" x1="367.58" y1="462.9" x2="567.9" y2="462.9" gradientUnits="userSpaceOnUse"><stop offset="0" stop-color="#089bcb"/><stop offset="1" stop-color="#143c83"/></linearGradient></defs><g class="cls-1"><g id="Layer_1" data-name="Layer 1"><path class="cls-2" d="M562.11,626.76h-6.63v-1.3h6.63Zm-13.27,0h-6.63v-1.3h6.63Zm-13.26,0H529v-1.3h6.63Zm-13.27,0h-6.63v-1.3h6.63Zm-13.26,0h-6.64v-1.3h6.64Zm-13.27,0h-6.63v-1.3h6.63Zm-13.27,0h-6.63v-1.3h6.63Zm-13.26,0h-6.63v-1.3h6.63Zm-13.27,0h-6.63v-1.3H456Zm-13.26,0h-6.64v-1.3h6.64Zm-13.27,0h-6.63v-1.3h6.63Zm-13.27,0h-6.63v-1.3h6.63Zm-13.26,0h-6.64v-1.3h6.64Zm-13.27,0H383v-1.3h6.63Zm-13.26,0h-6.64v-1.3h6.64Zm192.43-.19-.17-1.28a11.52,11.52,0,0,0,5.75-2.95l.68,1A12.54,12.54,0,0,1,568.82,626.57Zm-205.75-1.32a14.35,14.35,0,0,1-5.24-5.15l.91-.75a13,13,0,0,0,4.8,4.73ZM579.19,617l-1-.49a16.44,16.44,0,0,0,.9-5.42v-1.95h1.11V611A18,18,0,0,1,579.19,617ZM355.44,612.6q-.06-.78-.06-1.56v-6.27h1.11V611c0,.47,0,1,.06,1.43Zm224.73-11.27h-1.11v-7.77h1.11ZM356.49,597h-1.11v-7.76h1.11ZM580.17,585.8h-1.11V578h1.11Zm-223.68-4.31h-1.11v-7.76h1.11Zm223.68-11.21h-1.11v-7.76h1.11ZM356.49,566h-1.11V558.2h1.11Zm223.68-11.22h-1.11V547h1.11Zm-223.68-4.31h-1.11v-7.76h1.11Zm223.68-11.21h-1.11v-7.76h1.11Zm-223.68-4.31h-1.11v-7.76h1.11Zm223.68-11.21h-1.11V516h1.11ZM356.49,519.4h-1.11v-7.77h1.11Zm223.68-11.22h-1.11v-7.76h1.11Zm-223.68-4.31h-1.11v-7.76h1.11Zm223.68-11.21h-1.11V484.9h1.11Zm-223.68-4.31h-1.11v-7.76h1.11Zm223.68-11.21h-1.11v-7.77h1.11Zm-223.68-4.32h-1.11v-7.76h1.11Zm223.68-11.21h-1.11v-7.76h1.11ZM356.49,457.3h-1.11v-7.76h1.11Zm223.68-11.21h-1.11v-7.76h1.11Zm-223.68-4.31h-1.11V434h1.11Zm223.68-11.21h-1.11V422.8h1.11Zm-223.68-4.32h-1.11v-7.76h1.11ZM580.17,415h-1.11v-7.76h1.11Zm-223.68-4.31h-1.11V403h1.11Zm223.68-11.21h-1.11v-7.76h1.11Zm-223.68-4.31h-1.11v-7.77h1.11ZM580.17,384h-1.11v-7.76h1.11Zm-223.68-4.31h-1.11v-7.76h1.11Zm223.68-11.21h-1.11v-7.76h1.11Zm-223.68-4.31h-1.11V356.4h1.11ZM580.17,353h-1.11v-7.76h1.11Zm-223.68-4.31h-1.11v-7.77h1.11Zm223.68-11.22h-1.11v-7.76h1.11Zm-223.68-4.31h-1.11v-7.76h1.11ZM580.17,321.9h-1.11v-7.76h1.11Zm-223.68-4.31h-1.11v-7.76h1.11Zm223.68-11.21h-1.11v-7.77a16.87,16.87,0,0,0-.24-2.85l1.09-.25a18.83,18.83,0,0,1,.26,3.11Zm-223.68-4.32h-1.11v-3.45a18.22,18.22,0,0,1,.54-4.43l1.06.36a16.79,16.79,0,0,0-.49,4.07Zm219.57-12.89a12.54,12.54,0,0,0-5.19-4.15l.38-1.22a13.67,13.67,0,0,1,5.64,4.52Zm-215.83-.91-.77-.93a13.13,13.13,0,0,1,6-3.93l.28,1.25A12,12,0,0,0,360.23,288.26Zm204.28-4.07h-6.63v-1.3h6.63Zm-13.26,0h-6.64v-1.3h6.64Zm-13.27,0h-6.63v-1.3H538Zm-13.27,0h-6.63v-1.3h6.63Zm-13.26,0h-6.64v-1.3h6.64Zm-13.27,0h-6.63v-1.3h6.63Zm-13.26,0h-6.64v-1.3h6.64Zm-13.27,0H465v-1.3h6.63Zm-13.27,0h-6.63v-1.3h6.63Zm-13.26,0h-6.63v-1.3h6.63Zm-13.27,0h-6.63v-1.3h6.63Zm-13.26,0H412v-1.3h6.64Zm-13.27,0h-6.63v-1.3h6.63Zm-13.27,0h-6.63v-1.3h6.63Zm-13.26,0h-6.63v-1.3h6.63Z"/><ellipse id="_Path_" data-name="&lt;Path&gt;" class="cls-3" cx="467.39" cy="635.35" rx="151.43" ry="8.59"/><rect class="cls-4" x="367.58" y="290.78" width="200.32" height="344.23" rx="7.52"/><rect class="cls-5" x="367.48" y="308.29" width="200.52" height="287.67"/><path class="cls-6" d="M495.09,615.07a4.9,4.9,0,0,1-5,4.74H445.41a4.75,4.75,0,1,1,0-9.48h44.67A4.89,4.89,0,0,1,495.09,615.07Z"/><rect class="cls-7" x="377.93" y="322.11" width="179.64" height="267.36"/><circle class="cls-8" cx="517.04" cy="489.29" r="20.72" transform="translate(-48.46 921.67) rotate(-80.82)"/><circle class="cls-9" cx="517.04" cy="483.37" r="20.72" transform="translate(-144.76 232.37) rotate(-22.3)"/><path class="cls-6" d="M503.43,480.84v-1.51h4.1v5.14a2.79,2.79,0,0,1-.73,2.11,2.58,2.58,0,0,1-1.86.7,3.33,3.33,0,0,1-2.48-1.1l.91-1.26a2,2,0,0,0,1.49.77.85.85,0,0,0,.64-.29,1.26,1.26,0,0,0,.26-.86v-3.7Z"/><path class="cls-6" d="M514.91,487.21l-.74-1.7h-3.3l-.73,1.7h-1.88l3.41-7.88h1.7l3.41,7.88Zm-2.38-5.54-1,2.29h2Z"/><path class="cls-6" d="M520.12,484.34l2-5H524l-3.17,7.88h-1.48l-3.17-7.88h1.9Z"/><path class="cls-6" d="M530.1,487.21l-.73-1.7h-3.31l-.73,1.7h-1.87l3.4-7.88h1.71l3.4,7.88Zm-2.38-5.54-1,2.29h2Z"/><circle class="cls-9" cx="557.56" cy="531.1" r="20.72"/><path class="cls-6" d="M546.83,526.83h1.76v7.89h-1.76v-3.1h-3.14v3.1h-1.76v-7.89h1.76v3.3h3.14Z"/><path class="cls-6" d="M553.87,528.36v6.36h-1.76v-6.36h-2.23v-1.53h6.22v1.53Z"/><path class="cls-6" d="M564.45,529.75l-2.13,4.31h-1.05l-2.12-4.31v5h-1.76v-7.89h2.38l2,4.33,2-4.33h2.37v7.89h-1.76Z"/><path class="cls-6" d="M568.15,534.72v-7.89h1.76v6.32h3.36v1.57Z"/><polygon class="cls-8" points="568 368.09 487.29 368.09 487.29 406.95 538.73 406.95 546.42 421.51 549.73 406.95 568 406.95 568 368.09"/><polygon class="cls-10" points="576.27 361.82 481.03 361.82 481.03 400.69 532.47 400.69 540.16 415.25 543.47 400.69 576.27 400.69 576.27 361.82"/><path class="cls-6" d="M510.73,381.3a4.7,4.7,0,1,1-4.7-4.69A4.69,4.69,0,0,1,510.73,381.3Z"/><path class="cls-6" d="M533.35,381.3a4.7,4.7,0,1,1-4.7-4.69A4.69,4.69,0,0,1,533.35,381.3Z"/><path class="cls-6" d="M556,381.3a4.7,4.7,0,1,1-4.7-4.69A4.69,4.69,0,0,1,556,381.3Z"/><line class="cls-11" x1="548.27" y1="333.1" x2="548.27" y2="354.97"/><line class="cls-11" x1="482.51" y1="331.81" x2="546.99" y2="331.81"/><line class="cls-11" x1="481.22" y1="354.97" x2="481.22" y2="333.1"/><line class="cls-11" x1="546.99" y1="356.25" x2="482.51" y2="356.25"/><path class="cls-11" d="M482.51,331.81a1.29,1.29,0,1,1-2.57,0,1.29,1.29,0,0,1,2.57,0Z"/><path class="cls-11" d="M549.56,331.81a1.29,1.29,0,1,1-2.57,0,1.29,1.29,0,0,1,2.57,0Z"/><path class="cls-11" d="M482.51,356.25a1.29,1.29,0,1,1-2.57,0,1.29,1.29,0,0,1,2.57,0Z"/><path class="cls-11" d="M549.56,356.25a1.29,1.29,0,1,1-2.57,0,1.29,1.29,0,0,1,2.57,0Z"/><rect class="cls-12" x="487.33" y="336.43" width="54.84" height="15.22"/><rect class="cls-11" x="485.4" y="334.83" width="58.69" height="18.41"/><line class="cls-11" x1="485.4" y1="334.83" x2="544.09" y2="353.24"/><line class="cls-11" x1="544.09" y1="334.83" x2="485.4" y2="353.24"/><line class="cls-11" x1="548.27" y1="426.27" x2="548.27" y2="448.14"/><line class="cls-11" x1="482.51" y1="424.98" x2="546.99" y2="424.98"/><line class="cls-11" x1="481.22" y1="448.14" x2="481.22" y2="426.27"/><line class="cls-11" x1="546.99" y1="449.42" x2="482.51" y2="449.42"/><path class="cls-11" d="M482.51,425a1.29,1.29,0,1,1-1.29-1.28A1.29,1.29,0,0,1,482.51,425Z"/><path class="cls-11" d="M549.56,425a1.29,1.29,0,1,1-1.29-1.28A1.29,1.29,0,0,1,549.56,425Z"/><path class="cls-11" d="M482.51,449.42a1.29,1.29,0,1,1-2.57,0,1.29,1.29,0,0,1,2.57,0Z"/><path class="cls-11" d="M549.56,449.42a1.29,1.29,0,1,1-2.57,0,1.29,1.29,0,0,1,2.57,0Z"/><rect class="cls-12" x="487.33" y="429.6" width="54.84" height="15.22"/><rect class="cls-11" x="485.4" y="428" width="58.69" height="18.41"/><line class="cls-11" x1="485.4" y1="428" x2="544.09" y2="446.41"/><line class="cls-11" x1="544.09" y1="428" x2="485.4" y2="446.41"/><rect class="cls-10" x="385.94" y="473.11" width="43.78" height="6.91"/><rect class="cls-10" x="438.27" y="473.11" width="12.44" height="6.91"/><rect class="cls-10" x="459.26" y="473.11" width="12.44" height="6.91"/><rect class="cls-10" x="403.75" y="458.19" width="67.31" height="6.91" transform="translate(874.8 923.28) rotate(180)"/><rect class="cls-10" x="385.94" y="458.19" width="12.76" height="6.91" transform="translate(784.64 923.28) rotate(180)"/><rect class="cls-10" x="447.98" y="539.74" width="92.71" height="1.37"/><rect class="cls-10" x="447.98" y="545.42" width="73.66" height="1.37"/><rect class="cls-10" x="447.98" y="551.1" width="81.06" height="1.37"/><rect class="cls-10" x="447.98" y="556.85" width="73.66" height="1.37"/><rect class="cls-10" x="447.98" y="562.53" width="81.06" height="1.37"/><path class="cls-13" d="M420,378.75l4.49,2.49a1.29,1.29,0,0,1,.45.34.57.57,0,0,1,.11.38.69.69,0,0,1-.21.5.66.66,0,0,1-.48.21,1.19,1.19,0,0,1-.55-.2l-5.8-3.22a.57.57,0,0,1,0-1l5.8-3.23a1.28,1.28,0,0,1,.54-.19.67.67,0,0,1,.49.21.69.69,0,0,1,.21.5.59.59,0,0,1-.11.38,1.42,1.42,0,0,1-.45.34Z"/><path class="cls-13" d="M431.52,374.1l-4.45,9.59a1.45,1.45,0,0,1-.3.47.69.69,0,0,1-.43.14.67.67,0,0,1-.49-.21.63.63,0,0,1-.2-.46,1.36,1.36,0,0,1,.16-.53l4.46-9.58a1.28,1.28,0,0,1,.3-.46.64.64,0,0,1,.42-.15.68.68,0,0,1,.49.2.62.62,0,0,1,.2.46A1.36,1.36,0,0,1,431.52,374.1Z"/><path class="cls-13" d="M437.11,378.75l-4.49-2.49a1.42,1.42,0,0,1-.45-.34.59.59,0,0,1-.11-.38.69.69,0,0,1,.21-.5.67.67,0,0,1,.49-.21,1.28,1.28,0,0,1,.54.19l5.8,3.23a.57.57,0,0,1,0,1l-5.8,3.22a1.2,1.2,0,0,1-.54.2.69.69,0,0,1-.5-.21.74.74,0,0,1-.2-.51.56.56,0,0,1,.11-.37,1.29,1.29,0,0,1,.45-.34Z"/><path class="cls-10" d="M444.86,450.58h-43.6a6.76,6.76,0,0,1-6.83-7.49l9.12-104.2a8.22,8.22,0,0,1,8-7.38h11.34a1.9,1.9,0,0,1,1.93,1.86l0,.35a2.66,2.66,0,0,0,2.71,2.58h10.77a3.42,3.42,0,0,0,3.27-2.68l.08-.35a2.22,2.22,0,0,1,2.15-1.76h11.33A6.76,6.76,0,0,1,462,339l-9.12,104.2A8.21,8.21,0,0,1,444.86,450.58ZM411.57,332.69a7,7,0,0,0-6.85,6.31L395.6,443.2a5.73,5.73,0,0,0,1.44,4.4,5.66,5.66,0,0,0,4.22,1.8h43.6a7,7,0,0,0,6.85-6.31l9.12-104.2a5.71,5.71,0,0,0-1.44-4.39,5.6,5.6,0,0,0-4.22-1.81H443.84a1.06,1.06,0,0,0-1,.82l-.08.36a4.62,4.62,0,0,1-4.42,3.61H427.57a3.83,3.83,0,0,1-3.89-3.71v-.36a.75.75,0,0,0-.76-.72Z"/><rect class="cls-10" x="403.3" y="347.88" width="57.28" height="1.18"/><rect class="cls-10" x="443.84" y="331.51" width="11.33" height="1.18"/><path class="cls-10" d="M444.52,396.55H411.09L414,363.13h33.43Zm-32.14-1.18h31.06l2.71-31.06H415.09Z"/><path class="cls-10" d="M444.92,434.3H404L405,421.91h41Zm-39.69-1.18h38.61l.88-10H406.11Z"/><path class="cls-10" d="M418,413.74a3.22,3.22,0,0,1-3.26-3.57,3.86,3.86,0,0,1,3.77-3.46,3.22,3.22,0,0,1,3.26,3.57h0A3.86,3.86,0,0,1,418,413.74Zm.51-5.86a2.67,2.67,0,0,0-2.6,2.4,2.13,2.13,0,0,0,.53,1.62,2.08,2.08,0,0,0,1.56.67,2.67,2.67,0,0,0,2.6-2.4h0a2.07,2.07,0,0,0-2.09-2.29Z"/><path class="cls-10" d="M426.44,413.74a3.22,3.22,0,0,1-3.26-3.57,3.86,3.86,0,0,1,3.77-3.46,3.22,3.22,0,0,1,3.26,3.57A3.86,3.86,0,0,1,426.44,413.74Zm.51-5.86a2.68,2.68,0,0,0-2.6,2.4,2.13,2.13,0,0,0,.53,1.62,2.08,2.08,0,0,0,1.56.67,2.67,2.67,0,0,0,2.6-2.4h0a2.07,2.07,0,0,0-2.09-2.29Z"/><path class="cls-10" d="M434.91,413.74a3.22,3.22,0,0,1-3.26-3.57,3.86,3.86,0,0,1,3.78-3.46,3.22,3.22,0,0,1,3.25,3.57h0A3.85,3.85,0,0,1,434.91,413.74Zm.52-5.86a2.67,2.67,0,0,0-2.6,2.4,2.05,2.05,0,0,0,2.08,2.29,2.67,2.67,0,0,0,2.6-2.4h0a2.07,2.07,0,0,0-2.08-2.29Z"/><rect class="cls-14" x="395.8" y="530.2" width="43.23" height="43.23" rx="7.15"/><polyline class="cls-15" points="410.67 545.57 404.44 551.8 410.72 558.07"/><polyline class="cls-15" points="424.15 545.57 430.38 551.8 424.11 558.07"/><line class="cls-15" x1="420.33" y1="545.57" x2="414.5" y2="558.07"/><path class="cls-16" d="M457,512H354.87a10.2,10.2,0,0,1-10.2-10.2h0a10.2,10.2,0,0,1,10.2-10.2H457a10.2,10.2,0,0,1,10.2,10.2h0A10.2,10.2,0,0,1,457,512Z"/><path class="cls-17" d="M455.53,501.14a5.43,5.43,0,1,1-5.43-5.43A5.42,5.42,0,0,1,455.53,501.14Z"/><line class="cls-18" x1="453.94" y1="504.98" x2="456.93" y2="507.97"/><circle class="cls-9" cx="360.48" cy="378.85" r="26.35"/><path class="cls-6" d="M345.12,383.62l-5.69-3.52v-1.26l5.69-3.49v1.81l-3.93,2.31,3.93,2.33Z"/><path class="cls-6" d="M355,375.27a1.64,1.64,0,0,0-1.49,1.1,7.11,7.11,0,0,0-.55,3.07c0,2.73.72,4.1,2.14,4.1a3.89,3.89,0,0,0,2-.6v1.95a3.94,3.94,0,0,1-2.21.57,3.47,3.47,0,0,1-3.06-1.58,8,8,0,0,1-1.07-4.46,7.86,7.86,0,0,1,1.1-4.47,3.52,3.52,0,0,1,3.06-1.6,4.58,4.58,0,0,1,1.24.17,4.82,4.82,0,0,1,1.27.63l-.73,1.78a6.53,6.53,0,0,0-.77-.46A1.91,1.91,0,0,0,355,375.27Z"/><path class="cls-6" d="M364.11,382.05a3.51,3.51,0,0,1-.84,2.53,3.13,3.13,0,0,1-2.4.88,5.31,5.31,0,0,1-2.62-.6v-2.17a4.57,4.57,0,0,0,2.42.86,1.2,1.2,0,0,0,.95-.35,1.34,1.34,0,0,0,.32-.94,1.71,1.71,0,0,0-.38-1.07,5.52,5.52,0,0,0-1.25-1.09,5.44,5.44,0,0,1-1.15-1,3.57,3.57,0,0,1-.6-1.08,3.92,3.92,0,0,1-.22-1.38,3.37,3.37,0,0,1,.84-2.41,3,3,0,0,1,2.27-.88,5,5,0,0,1,2.6.75l-.73,1.76a6.1,6.1,0,0,0-.81-.4,2.26,2.26,0,0,0-.9-.18,1,1,0,0,0-.82.35,1.49,1.49,0,0,0-.29,1,1.65,1.65,0,0,0,.35,1,4.83,4.83,0,0,0,1.19,1,5,5,0,0,1,1.61,1.58A3.72,3.72,0,0,1,364.11,382.05Z"/><path class="cls-6" d="M370.92,382.05a3.51,3.51,0,0,1-.83,2.53,3.16,3.16,0,0,1-2.41.88,5.3,5.3,0,0,1-2.61-.6v-2.17a4.54,4.54,0,0,0,2.42.86,1.2,1.2,0,0,0,.95-.35,1.34,1.34,0,0,0,.32-.94,1.71,1.71,0,0,0-.38-1.07,5.52,5.52,0,0,0-1.25-1.09,5.44,5.44,0,0,1-1.15-1,3.57,3.57,0,0,1-.6-1.08,3.92,3.92,0,0,1-.22-1.38,3.37,3.37,0,0,1,.84-2.41,3,3,0,0,1,2.27-.88,5,5,0,0,1,2.6.75l-.73,1.76a6.1,6.1,0,0,0-.81-.4,2.26,2.26,0,0,0-.9-.18,1,1,0,0,0-.82.35,1.49,1.49,0,0,0-.29,1,1.71,1.71,0,0,0,.34,1,5.12,5.12,0,0,0,1.2,1,5,5,0,0,1,1.61,1.58A3.72,3.72,0,0,1,370.92,382.05Z"/><path class="cls-6" d="M376.27,381.8l4-2.33-4-2.31v-1.81l5.68,3.49v1.26l-5.68,3.52Z"/><path class="cls-19" d="M616.48,442.42s-2.55-4.3-3.42-4.68a14.24,14.24,0,0,1-3.17-1.37c-1.08-.76-2.49-1.4-2.42-1.66s1.34-.15,2.7.44,2,.3,2.08,0a8.09,8.09,0,0,0-1.14-3c-.4-.51-3.32-3.44-2.83-3.88s2.37,1.18,2.68,1.51c0,0-1.51-3.17-.92-3.32s1.69,1,1.69,1-.13-2.71,2.78,1.69c0,0-.61-1.46.28-1s1.77,3.22,2.05,4.6,1.56,5.77,2.64,6.83S616.48,442.42,616.48,442.42Z"/><path class="cls-19" d="M614,590.8s.43,3.15.48,3.63,4.78-.28,4.78-.28l.38-3.75S614.61,590.36,614,590.8Z"/><path class="cls-20" d="M614.45,594a13.15,13.15,0,0,1-3,2.72c-1.44.83-3.72,1.16-4.58,2-.61.62-2.25,3.28,3.77,3.23s8.91.38,9.56-.65-.93-7.53-.93-7.53A16.51,16.51,0,0,1,614.45,594Z"/><path class="cls-21" d="M582.06,593a13.2,13.2,0,0,1-2.94,2.73c-1.45.83-6.78,1.51-7.64,2.36-.62.62-1.65,3.11,6.82,2.88,6-.17,8.91.37,9.56-.65s-.93-7.53-.93-7.53A25.13,25.13,0,0,1,582.06,593Z"/><path class="cls-19" d="M568,447.87s-.75-3.55.15-4.57c.51-.58,1.75-2.12,1.86-2.34s1.44-1,1.44-1.36-1.3-.82-2.43.23-1.83,1.27-2.28,1.16-1.1-3.87-1.16-4.81-.42-3.38-1-3.21-.56,1.24-.56,1.24-.67-1.87-1.12-1.5-.4,1.27-.4,1.27-.85-1-1.07-.28a2.59,2.59,0,0,0,0,1.44s-.88-.48-.93.71a18,18,0,0,0,.87,5.9c.62,1.24,3,4.49,3.23,5.76S568,447.87,568,447.87Z"/><path class="cls-19" d="M593.85,458.83s-1.64-2.87,1-10.54a7.73,7.73,0,0,1,14-2c2.76,4.75,1.83,7.71-2.24,13.07S595.54,461.28,593.85,458.83Z"/><path class="cls-22" d="M612.43,512.36s2.42,7.53,2.1,14,1.25,13.59,1.9,20.37c.71,7.56,3.65,25.45,3.75,29.5s-.45,17-.45,17l-5.87.14s-4.93-31.28-6.21-34.47-7.61-26-7.82-28.5S612.43,512.36,612.43,512.36Z"/><path class="cls-22" d="M588.09,511.58s-3.56,19.91-4,23.88-.71,19.22-.92,21.71-1.42,32.48-2.55,36.17h6.54s6.72-21.81,6.72-32.13,4.45-22.44,7.32-29.25,9.45-7,11.22-19.6C612.43,512.36,590.48,507.57,588.09,511.58Z"/><path class="cls-19" d="M596.22,460.85a5.67,5.67,0,0,1,0,3.68c-.74,1.54,9.43.62,9.43.62a11,11,0,0,1,.87-5.78C607.85,456.76,596.22,460.85,596.22,460.85Z"/><path class="cls-23" d="M612.9,514s-3.66,3.76-25.14-.58l.33-1.84,24.42.92Z"/><path class="cls-19" d="M594.68,465s-3.75.38-4.83.59-8.29-1.29-9.78-1.45-7.8-4.48-8-5-3.85-9.73-4.05-11.72-3.55-1-3.26.41c.53,2.57,1.22,8.8,1.6,10.61s1.5,6.37,2.11,6.92a44.22,44.22,0,0,0,11.88,6.71,47.26,47.26,0,0,1,9.76,4.55h27.46s10.67-15.27,10.9-17.57-7.45-17.58-9-19.5-3.75.63-3.75.63,4.6,13.48,5.21,15.39S615.6,466,614,466s-5.84-.51-7.7-.59a13,13,0,0,1-3.83-.9Z"/><path class="cls-10" d="M582.85,475.23a8.87,8.87,0,0,1,3.67,6.07,78.86,78.86,0,0,0,2.14,11.95c.62,2.07-.53,17.1-.69,18.17s21.25,3.63,24.54,1.08c0,0,.92-14,1.3-18s2.22-13.64,2.84-15,8.05-11.73,8.35-13.11c0,0-3.85-6.13-6.6-6.21,0,0-4.39,5.14-5.82,5.37s-10.19-1.38-10.19-1.39-.95,1.3-6-.23c0,0-6.05.68-7,.81-1.2.15-9.49-1-9.49-1s-3.32,5.61-2.74,8.45Z"/><path class="cls-24" d="M606.52,459.37a11.54,11.54,0,0,1-4.2-.87c-2.87-1-3.08-6-3.7-5.4a1.8,1.8,0,0,1-2.93-.34s1.4-1.84.75-2.72a6.93,6.93,0,0,0-1.7-1.54s2-9.7,11.17-5.28C616.64,448.4,606.52,459.37,606.52,459.37Z"/><path class="cls-25" d="M596.22,464.53l.32-1.4a74.69,74.69,0,0,1,9,.34l.34,1.68S601.83,467,596.22,464.53Z"/><path class="cls-19" d="M597.66,451.88c.54-.89,2.5-1.48,2.73,1,.18,1.94-3.51,4.05-3.54,2.25A5.42,5.42,0,0,1,597.66,451.88Z"/><polygon class="cls-5" points="584.66 658.9 565.85 601.12 626.88 601.12 645.52 658.36 643.84 658.9 625.6 602.89 568.29 602.89 586.35 658.36 584.66 658.9"/><polygon class="cls-5" points="548.61 658.9 546.92 658.36 565.56 601.12 626.6 601.12 607.78 658.9 606.09 658.36 624.15 602.89 566.85 602.89 548.61 658.9"/><polygon class="cls-5" points="625.56 618.71 559.73 618.71 559.73 617.06 624.67 617.06 625.56 618.71"/><rect class="cls-5" x="553.66" y="634.92" width="77.69" height="1.64"/><path class="cls-26" d="M497.88,301.22H442a2.36,2.36,0,0,1-2.36-2.35h0a2.36,2.36,0,0,1,2.36-2.36h55.91a2.36,2.36,0,0,1,2.35,2.36h0A2.35,2.35,0,0,1,497.88,301.22Z"/><path class="cls-27" d="M335.9,499.36a97,97,0,0,0,10.54,10.14c2.17,1.7,20.71-9.58,23-10.86,0,0-2.07-2.05-2.93-1.83-3.24.82-17.68,5.81-17.68,5.81-.68-.21-7.34-7.86-7.34-7.86Z"/><path class="cls-27" d="M371.85,495.79l-.05,0,.06.06s-1.64,2.7-3.89,3.38l-1.7-1.67.77-4.93,0-.3.18-.17,2.32-2.26a1.22,1.22,0,0,1,1.7,0l1.74,1.68a1.23,1.23,0,0,1,.24,1.43Z"/><path class="cls-28" d="M334.66,620.09c7.66,4.57,7.86,11.61.46,15.74s-19.6,3.77-27.25-.8-7.86-11.61-.46-15.74S327,615.53,334.66,620.09Z"/><path class="cls-29" d="M341.58,493.69c-4-5.65-10.93-9.34-12.92-9.37-2.86-.05-3.74.62-2.66,2.79,1.83,3.69,4.87,7.45,9.06,11.95Z"/><path class="cls-29" d="M330.3,484.6a43.13,43.13,0,0,0-4.87-1.46,65,65,0,0,0-9.17-1.52c-2-.22-3.88-.28-5.42-.3a2.48,2.48,0,0,0-.54.06,2.73,2.73,0,0,0-2,3.19c3,16,3.18,23.15,2.75,31.41l18.46.66a1,1,0,0,0,1-.82c.82-4.17,3.37-13.42,3.37-13.42,2.61-1.84,2.5-3.95,1.82-6.67-.21-.85-.71-1.66-2.8-6.25C332.87,489.48,331.25,485,330.3,484.6Z"/><path class="cls-6" d="M318.63,516.25l6.73.25c1-8,.5-14,.47-23C325.86,501.94,321,512.14,318.63,516.25Z"/><path class="cls-27" d="M325.61,519.48s8.3,41,7.88,58.06c-.45,17.93-4,48.79-4,48.79l-4.38-.05a208.42,208.42,0,0,1-1.68-47.91C312,553.25,309,521.09,309,521.09Z"/><path class="cls-30" d="M325.61,519.48s8.3,41,7.88,58.06c-.45,17.93-4,48.79-4,48.79l-4.38-.05a208.42,208.42,0,0,1-1.68-47.91C312,553.25,309,521.09,309,521.09Z"/><path class="cls-27" d="M321.89,529.6s2.16,32.13-.09,49c-2.38,17.77-9.19,48.07-9.19,48.07l-4.35-.51a208.14,208.14,0,0,1,3.49-47.81,132.13,132.13,0,0,1-6.53-48.93Z"/><path class="cls-27" d="M321.89,529.6s2.16,32.13-.09,49c-2.38,17.77-9.19,48.07-9.19,48.07l-4.35-.51a208.14,208.14,0,0,1,3.49-47.81,132.13,132.13,0,0,1-6.53-48.93Z"/><path class="cls-31" d="M305.37,566.54A97.78,97.78,0,0,0,319,568.92l.42,0,.9.07c1.86.1,14.27,1.71,15.13-3.4,0,0-2.67-12.66-5.24-26.72-1.56-8.52-.29-20.49-.29-20.49h0a91.71,91.71,0,0,0-16.23-.48l-3.15.18s-10.64,10.53-8,21A89.38,89.38,0,0,1,305.37,566.54Z"/><g class="cls-32"><path d="M305.37,566.54A97.78,97.78,0,0,0,319,568.92l.42,0,.9.07c1.86.1,14.27,1.71,15.13-3.4,0,0-2.67-12.66-5.24-26.72-1.56-8.52-.29-20.49-.29-20.49h0a91.71,91.71,0,0,0-16.23-.48l-3.15.18s-10.64,10.53-8,21A89.38,89.38,0,0,1,305.37,566.54Z"/></g><path class="cls-33" d="M313.61,481.37h0a13.77,13.77,0,0,0,2.14,4.51c2.68,3.69,6.62,7.68,8.36,8.12.5-1.15,1.28-3.41,1.28-3.41,1.14.56,1.45,2.17,1.83,3.4,1.83-3,3.23-8.09,2.77-9.94,0,0-2.22-.66-3.32-.93a64.61,64.61,0,0,0-9.17-1.47A30,30,0,0,0,313.61,481.37Z"/><path class="cls-6" d="M313.55,481l.61,1.11c2.36,4.27,7.82,9.78,9.95,10.32a27.42,27.42,0,0,0,1-3.16,5.83,5.83,0,0,1,2.37,3.4c1.83-3,2.91-7.13,2.45-9h0c-1.08-.33-2.22-.66-3.32-.93a67.6,67.6,0,0,0-9.17-1.47A32,32,0,0,0,313.55,481Z"/><path class="cls-31" d="M311.05,518.11l9.35.25.79,0,2,0,.77,0,5.49.15c.17,0,.32-.09.33-.19l.22-1.77c0-.12-.14-.22-.33-.23l-5.42-.22-.66,0-2.68-.1-.63,0-9-.35a.35.35,0,0,0-.33.13l-.22,2C310.68,518,310.83,518.1,311.05,518.11Z"/><path class="cls-34" d="M311.05,518.11l9.35.25.79,0,2,0,.77,0,5.49.15c.17,0,.32-.09.33-.19l.22-1.77c0-.12-.14-.22-.33-.23l-5.42-.22-.66,0-2.68-.1-.63,0-9-.35a.35.35,0,0,0-.33.13l-.22,2C310.68,518,310.83,518.1,311.05,518.11Z"/><path class="cls-35" d="M326.89,518.76h-.6c-.13,0-.21-.07-.21-.15l.34-2.49c0-.08.11-.14.24-.14h.6c.12,0,.21.07.2.15l-.33,2.5A.23.23,0,0,1,326.89,518.76Z"/><path class="cls-35" d="M316.47,518.61h-.57c-.12,0-.2-.07-.19-.14L316,516c0-.07.12-.13.23-.12h.57c.11,0,.2.06.19.14l-.34,2.49C316.68,518.56,316.58,518.61,316.47,518.61Z"/><polygon class="cls-36" points="336.31 511.31 322.2 511.31 323.85 492.46 337.95 492.46 336.31 511.31"/><path class="cls-27" d="M311.13,507.8a2.52,2.52,0,0,0,.76-2.07s0-1.15,0-2.89c.06-5.11.1-15.29-.43-16.64-1.17-2.91-3.16-4.5-4.2-2.79-1.22,2-1.31,17.11-1.31,17.11C306.28,510.52,309.94,509.19,311.13,507.8Z"/><path class="cls-27" d="M330.61,506.28l0-.06,0,.08a7.17,7.17,0,0,1-4.21.95l-.6-1.9,2.52-3.35.15-.2.21-.06,2.61-.75a1,1,0,0,1,1.25.68l.62,1.93a1,1,0,0,1-.38,1.15Z"/><path class="cls-27" d="M308.11,508.35c1.65,2,18.53-1,18.66-1,.55-.25.63-1.69,0-2.22-.34-.28-17.6-1.85-18.79-1.94C305.94,506.28,307.27,507.31,308.11,508.35Z"/><path class="cls-35" d="M332,461.43c2.29,2.78,3.5,4.85,2.11,14.14-.27,1.75.49,5.87.82,5.91-9-1.05-11.58-2.53-15.86-5.14-2.86-1.75-5.19-8.08-4.45-11.35.81-3.52,4.65-7.64,8.36-8C327.16,456.61,329.42,458.27,332,461.43Z"/><path class="cls-27" d="M325.86,478.93c-1,1.9-1.54,4.06.79,6a2.78,2.78,0,0,1,1,1.59c.19,1-.22,2.09-3.81.68-5.19-2-5.31-5.27-5.31-5.27,2.36-1.17,3-6.66,3.06-9.74Z"/><path class="cls-37" d="M322.57,476.62c-.15,1.33,1.53,3.15,2.68,3.79a9.15,9.15,0,0,1,.61-1.49l-2.55-4A4.62,4.62,0,0,0,322.57,476.62Z"/><path class="cls-27" d="M319.21,464.57a6.65,6.65,0,0,1,8.61-3.83c4.86,1.83,5.74,9.09,4.82,13.54-1,5-6.95,6.56-10.79,2.83-2.56-2.48-2.63-4.57-3.06-9.48A6.78,6.78,0,0,1,319.21,464.57Z"/><path class="cls-35" d="M319.8,472.82a7.09,7.09,0,0,0,1.69-5.66s2.24-2.29,2.13-4.75a5.34,5.34,0,0,1,0,3.36s5.81-.43,5.67-3.36c0,0,.5,2.54-.37,3.31,0,0,4-.31,3.69-3.06a4.63,4.63,0,0,0-4.09-4.45s-3.86-3.28-9.19,2.51c0,0-6.28,3.92-1.83,10.46Z"/><path class="cls-38" d="M329.73,472.55a1.71,1.71,0,0,0,1.42-.3,10.76,10.76,0,0,1-1.5-2.53Z"/><path class="cls-35" d="M326,473a.14.14,0,0,1,0-.17.13.13,0,0,1,.17,0,3.14,3.14,0,0,0,2.61,1.18.15.15,0,0,1,.12.12h0a.11.11,0,0,1-.11.12,3.62,3.62,0,0,1-.57,0A3.34,3.34,0,0,1,326,473Z"/><path class="cls-27" d="M317,470.59a1.82,1.82,0,0,1,1.76-1.87c1.38,0,2.3,1.71,2.5,2.91s-.61,2.46-1.92,1.92a4.1,4.1,0,0,1-2.16-2.23A1.83,1.83,0,0,1,317,470.59Z"/><path class="cls-35" d="M326.38,468.36c0,.49.24.9.57.91s.59-.37.6-.87-.24-.9-.56-.91S326.4,467.86,326.38,468.36Z"/><path class="cls-35" d="M331,468.88c0,.49.24.9.56.91s.59-.38.61-.87-.24-.9-.56-.92S331,468.38,331,468.88Z"/><path class="cls-35" d="M331.43,468l1.19-.31S332,468.63,331.43,468Z"/><path class="cls-35" d="M325,466.74l-.11-.06a.24.24,0,0,1,0-.34h0a2.8,2.8,0,0,1,2.43-.88.24.24,0,0,1,.19.28.25.25,0,0,1-.28.19,2.32,2.32,0,0,0-2,.75A.25.25,0,0,1,325,466.74Z"/><path class="cls-35" d="M332.72,467.33a.39.39,0,0,1-.1-.08,2.35,2.35,0,0,0-1.86-1.05.25.25,0,0,1-.26-.23h0a.25.25,0,0,1,.24-.25A2.88,2.88,0,0,1,333,467a.24.24,0,0,1,0,.34.21.21,0,0,1-.25,0Z"/><path class="cls-35" d="M326.85,467.51l1.19-.3S327.41,468.11,326.85,467.51Z"/><path class="cls-29" d="M309.31,481.58a3.44,3.44,0,0,1,3.28.91,6.64,6.64,0,0,1,1.67,3.68c.27,2.1-2,9.63-1.93,11.76-2.23-1.22-5.51-2.89-8.62-3.2.43-5,1-8.25,2-9.89a8.85,8.85,0,0,1,2-2.59A4.44,4.44,0,0,1,309.31,481.58Z"/><path class="cls-35" d="M330.67,626.87c1.57,1.57,2.4,2.37,6.65,3.35.94.21.33,2.45-1.9,2.43-3.69,0-1.67-.19-4.81-.23-2.69,0-5,0-7.18,0l-.21,0a.8.8,0,0,1-.6-.95l1.08-4.79a.44.44,0,0,1,.46-.36l5.17.11A1.88,1.88,0,0,1,330.67,626.87Z"/><path class="cls-35" d="M314.18,627.21c1,2,1.54,3,5.27,5.26.83.49-.45,2.43-2.56,1.71-3.49-1.19-1.53-.7-4.5-1.71-2.55-.87-4.79-1.57-6.83-2.22a.88.88,0,0,1-.2-.09.79.79,0,0,1-.27-1.08l2.52-4.22a.47.47,0,0,1,.55-.2l4.88,1.73A1.86,1.86,0,0,1,314.18,627.21Z"/></g></g></svg>