<?xml version="1.0" encoding="utf-8"?>
<!-- Generator: Adobe Illustrator 25.2.1, SVG Export Plug-In . SVG Version: 6.00 Build 0)  -->
<svg version="1.1" id="Layer_1" xmlns="http://www.w3.org/2000/svg" xmlns:xlink="http://www.w3.org/1999/xlink" x="0px" y="0px"
	 viewBox="0 0 400 340" style="enable-background:new 0 0 400 340;" xml:space="preserve">
<style type="text/css">
	.st0{fill:url(#SVGID_1_);}
	.st1{opacity:0.2;}
	.st2{fill:#50CEF5;}
	.st3{opacity:0;fill:#7F7F7F;}
	.st4{opacity:0.0196;fill:#818181;}
	.st5{opacity:0.0392;fill:#838484;}
	.st6{opacity:0.0588;fill:#868686;}
	.st7{opacity:0.0784;fill:#888889;}
	.st8{opacity:0.098;fill:#8A8B8B;}
	.st9{opacity:0.1176;fill:#8C8D8E;}
	.st10{opacity:0.1373;fill:#8E8F90;}
	.st11{opacity:0.1569;fill:#919293;}
	.st12{opacity:0.1765;fill:#939495;}
	.st13{opacity:0.1961;fill:#959698;}
	.st14{opacity:0.2157;fill:#97999A;}
	.st15{opacity:0.2353;fill:#999B9D;}
	.st16{opacity:0.2549;fill:#9C9D9F;}
	.st17{opacity:0.2745;fill:#9EA0A2;}
	.st18{opacity:0.2941;fill:#A0A2A4;}
	.st19{opacity:0.3137;fill:#A2A4A7;}
	.st20{opacity:0.3333;fill:#A4A7A9;}
	.st21{opacity:0.3529;fill:#A7A9AC;}
	.st22{opacity:0.3725;fill:#A9ABAE;}
	.st23{opacity:0.3922;fill:#ABAEB1;}
	.st24{opacity:0.4118;fill:#ADB0B3;}
	.st25{opacity:0.4314;fill:#AFB2B6;}
	.st26{opacity:0.451;fill:#B2B5B8;}
	.st27{opacity:0.4706;fill:#B4B7BB;}
	.st28{opacity:0.4902;fill:#B6B9BD;}
	.st29{opacity:0.5098;fill:#B8BCC0;}
	.st30{opacity:0.5294;fill:#BABEC2;}
	.st31{opacity:0.549;fill:#BCC0C5;}
	.st32{opacity:0.5686;fill:#BFC3C7;}
	.st33{opacity:0.5882;fill:#C1C5CA;}
	.st34{opacity:0.6078;fill:#C3C7CC;}
	.st35{opacity:0.6275;fill:#C5CACF;}
	.st36{opacity:0.6471;fill:#C7CCD1;}
	.st37{opacity:0.6667;fill:#CACED4;}
	.st38{opacity:0.6863;fill:#CCD1D6;}
	.st39{opacity:0.7059;fill:#CED3D9;}
	.st40{opacity:0.7255;fill:#D0D5DB;}
	.st41{opacity:0.7451;fill:#D2D8DE;}
	.st42{opacity:0.7647;fill:#D5DAE0;}
	.st43{opacity:0.7843;fill:#D7DCE3;}
	.st44{opacity:0.8039;fill:#D9DFE5;}
	.st45{opacity:0.8235;fill:#DBE1E8;}
	.st46{opacity:0.8431;fill:#DDE3EA;}
	.st47{opacity:0.8627;fill:#E0E6ED;}
	.st48{opacity:0.8824;fill:#E2E8EF;}
	.st49{opacity:0.902;fill:#E4EAF2;}
	.st50{opacity:0.9216;fill:#E6EDF4;}
	.st51{opacity:0.9412;fill:#E8EFF7;}
	.st52{opacity:0.9608;fill:#EBF1F9;}
	.st53{opacity:0.9804;fill:#EDF4FC;}
	.st54{fill:#EFF6FE;}
	.st55{opacity:9.900990e-03;fill:#808080;}
	.st56{opacity:0.0198;fill:#818182;}
	.st57{opacity:0.0297;fill:#828383;}
	.st58{opacity:0.0396;fill:#838484;}
	.st59{opacity:0.0495;fill:#858585;}
	.st60{opacity:0.0594;fill:#868687;}
	.st61{opacity:0.0693;fill:#878788;}
	.st62{opacity:0.0792;fill:#888889;}
	.st63{opacity:0.0891;fill:#898A8A;}
	.st64{opacity:0.099;fill:#8A8B8C;}
	.st65{opacity:0.1089;fill:#8B8C8D;}
	.st66{opacity:0.1188;fill:#8C8D8E;}
	.st67{opacity:0.1287;fill:#8D8E8F;}
	.st68{opacity:0.1386;fill:#8F8F91;}
	.st69{opacity:0.1485;fill:#909192;}
	.st70{opacity:0.1584;fill:#919293;}
	.st71{opacity:0.1683;fill:#929394;}
	.st72{opacity:0.1782;fill:#939496;}
	.st73{opacity:0.1881;fill:#949597;}
	.st74{opacity:0.198;fill:#959798;}
	.st75{opacity:0.2079;fill:#969899;}
	.st76{opacity:0.2178;fill:#97999B;}
	.st77{opacity:0.2277;fill:#999A9C;}
	.st78{opacity:0.2376;fill:#9A9B9D;}
	.st79{opacity:0.2475;fill:#9B9C9E;}
	.st80{opacity:0.2574;fill:#9C9EA0;}
	.st81{opacity:0.2673;fill:#9D9FA1;}
	.st82{opacity:0.2772;fill:#9EA0A2;}
	.st83{opacity:0.2871;fill:#9FA1A3;}
	.st84{opacity:0.297;fill:#A0A2A5;}
	.st85{opacity:0.3069;fill:#A1A4A6;}
	.st86{opacity:0.3168;fill:#A2A5A7;}
	.st87{opacity:0.3267;fill:#A4A6A8;}
	.st88{opacity:0.3366;fill:#A5A7AA;}
	.st89{opacity:0.3465;fill:#A6A8AB;}
	.st90{opacity:0.3564;fill:#A7A9AC;}
	.st91{opacity:0.3663;fill:#A8ABAE;}
	.st92{opacity:0.3762;fill:#A9ACAF;}
	.st93{opacity:0.3861;fill:#AAADB0;}
	.st94{opacity:0.396;fill:#ABAEB1;}
	.st95{opacity:0.4059;fill:#ACAFB3;}
	.st96{opacity:0.4158;fill:#AEB0B4;}
	.st97{opacity:0.4257;fill:#AFB2B5;}
	.st98{opacity:0.4356;fill:#B0B3B6;}
	.st99{opacity:0.4455;fill:#B1B4B8;}
	.st100{opacity:0.4554;fill:#B2B5B9;}
	.st101{opacity:0.4653;fill:#B3B6BA;}
	.st102{opacity:0.4752;fill:#B4B8BB;}
	.st103{opacity:0.4851;fill:#B5B9BD;}
	.st104{opacity:0.495;fill:#B6BABE;}
	.st105{opacity:0.505;fill:#B8BBBF;}
	.st106{opacity:0.5149;fill:#B9BCC0;}
	.st107{opacity:0.5248;fill:#BABDC2;}
	.st108{opacity:0.5347;fill:#BBBFC3;}
	.st109{opacity:0.5446;fill:#BCC0C4;}
	.st110{opacity:0.5545;fill:#BDC1C5;}
	.st111{opacity:0.5644;fill:#BEC2C7;}
	.st112{opacity:0.5743;fill:#BFC3C8;}
	.st113{opacity:0.5842;fill:#C0C5C9;}
	.st114{opacity:0.5941;fill:#C2C6CA;}
	.st115{opacity:0.604;fill:#C3C7CC;}
	.st116{opacity:0.6139;fill:#C4C8CD;}
	.st117{opacity:0.6238;fill:#C5C9CE;}
	.st118{opacity:0.6337;fill:#C6CACF;}
	.st119{opacity:0.6436;fill:#C7CCD1;}
	.st120{opacity:0.6535;fill:#C8CDD2;}
	.st121{opacity:0.6634;fill:#C9CED3;}
	.st122{opacity:0.6733;fill:#CACFD5;}
	.st123{opacity:0.6832;fill:#CCD0D6;}
	.st124{opacity:0.6931;fill:#CDD1D7;}
	.st125{opacity:0.703;fill:#CED3D8;}
	.st126{opacity:0.7129;fill:#CFD4DA;}
	.st127{opacity:0.7228;fill:#D0D5DB;}
	.st128{opacity:0.7327;fill:#D1D6DC;}
	.st129{opacity:0.7426;fill:#D2D7DD;}
	.st130{opacity:0.7525;fill:#D3D9DF;}
	.st131{opacity:0.7624;fill:#D4DAE0;}
	.st132{opacity:0.7723;fill:#D5DBE1;}
	.st133{opacity:0.7822;fill:#D7DCE2;}
	.st134{opacity:0.7921;fill:#D8DDE4;}
	.st135{opacity:0.802;fill:#D9DEE5;}
	.st136{opacity:0.8119;fill:#DAE0E6;}
	.st137{opacity:0.8218;fill:#DBE1E7;}
	.st138{opacity:0.8317;fill:#DCE2E9;}
	.st139{opacity:0.8416;fill:#DDE3EA;}
	.st140{opacity:0.8515;fill:#DEE4EB;}
	.st141{opacity:0.8614;fill:#DFE6EC;}
	.st142{opacity:0.8713;fill:#E1E7EE;}
	.st143{opacity:0.8812;fill:#E2E8EF;}
	.st144{opacity:0.8911;fill:#E3E9F0;}
	.st145{opacity:0.901;fill:#E4EAF1;}
	.st146{opacity:0.9109;fill:#E5EBF3;}
	.st147{opacity:0.9208;fill:#E6EDF4;}
	.st148{opacity:0.9307;fill:#E7EEF5;}
	.st149{opacity:0.9406;fill:#E8EFF6;}
	.st150{opacity:0.9505;fill:#E9F0F8;}
	.st151{opacity:0.9604;fill:#EBF1F9;}
	.st152{opacity:0.9703;fill:#ECF2FA;}
	.st153{opacity:0.9802;fill:#EDF4FB;}
	.st154{opacity:0.9901;fill:#EEF5FD;}
	.st155{enable-background:new    ;}
	.st156{clip-path:url(#SVGID_6_);enable-background:new    ;}
	.st157{fill:#BECEF9;}
	.st158{fill:#CDDCFB;}
	.st159{fill:#DAE8FD;}
	.st160{fill:#E6F1FE;}
	.st161{clip-path:url(#SVGID_8_);enable-background:new    ;}
	.st162{fill:#1499FC;}
	.st163{fill:#13B7FD;}
	.st164{fill:#15D9FD;}
	.st165{clip-path:url(#SVGID_10_);enable-background:new    ;}
	.st166{clip-path:url(#SVGID_12_);enable-background:new    ;}
	.st167{clip-path:url(#SVGID_14_);enable-background:new    ;}
	.st168{clip-path:url(#SVGID_16_);enable-background:new    ;}
	.st169{clip-path:url(#SVGID_18_);enable-background:new    ;}
	.st170{fill:#98A4E0;}
	.st171{clip-path:url(#SVGID_20_);enable-background:new    ;}
	.st172{fill:#10191B;}
	.st173{clip-path:url(#SVGID_22_);enable-background:new    ;}
	.st174{fill:#242A31;}
	.st175{clip-path:url(#SVGID_24_);enable-background:new    ;}
	.st176{fill:#C6D5FA;}
	.st177{clip-path:url(#SVGID_26_);enable-background:new    ;}
	.st178{clip-path:url(#SVGID_28_);enable-background:new    ;}
	.st179{opacity:0.3;fill:#15D9FD;}
	.st180{clip-path:url(#SVGID_30_);enable-background:new    ;}
	.st181{clip-path:url(#SVGID_32_);enable-background:new    ;}
	.st182{clip-path:url(#SVGID_34_);enable-background:new    ;}
	.st183{clip-path:url(#SVGID_36_);enable-background:new    ;}
	.st184{clip-path:url(#SVGID_38_);enable-background:new    ;}
	.st185{clip-path:url(#SVGID_40_);enable-background:new    ;}
	.st186{clip-path:url(#SVGID_42_);enable-background:new    ;}
	.st187{clip-path:url(#SVGID_44_);enable-background:new    ;}
	.st188{clip-path:url(#SVGID_46_);enable-background:new    ;}
	.st189{clip-path:url(#SVGID_48_);enable-background:new    ;}
	.st190{fill:#FFD438;}
	.st191{fill:#FFB700;}
	.st192{fill:#FBC70E;}
	.st193{fill:#D4E2FC;}
	.st194{fill:#ECF5FE;}
	.st195{fill:#B5B3C4;}
	.st196{clip-path:url(#SVGID_50_);enable-background:new    ;}
	.st197{fill:#37404A;}
	.st198{clip-path:url(#SVGID_52_);enable-background:new    ;}
	.st199{clip-path:url(#SVGID_54_);enable-background:new    ;}
	.st200{clip-path:url(#SVGID_56_);enable-background:new    ;}
	.st201{clip-path:url(#SVGID_58_);enable-background:new    ;}
	.st202{fill:#3C6FF7;}
	.st203{clip-path:url(#SVGID_60_);enable-background:new    ;}
	.st204{clip-path:url(#SVGID_62_);enable-background:new    ;}
	.st205{clip-path:url(#SVGID_64_);enable-background:new    ;}
	.st206{fill:#F1F1F1;}
	.st207{fill:#F3A984;}
	.st208{fill:#283032;}
	.st209{fill:#EE9C76;}
	.st210{fill:#F5A783;}
	.st211{fill:#FFFFFF;}
	.st212{fill:#FFBFA2;}
	.st213{fill:#F8B495;}
	.st214{fill:#0D1315;}
	.st215{clip-path:url(#SVGID_68_);enable-background:new    ;}
	.st216{clip-path:url(#SVGID_74_);}
	.st217{fill:#F9F9F9;}
	.st218{fill:#EBE7E6;}
	.st219{clip-path:url(#SVGID_92_);enable-background:new    ;}
	.st220{clip-path:url(#SVGID_98_);}
	.st221{opacity:0.6;fill:#242A31;}
	.st222{clip-path:url(#SVGID_114_);enable-background:new    ;}
	.st223{clip-path:url(#SVGID_116_);enable-background:new    ;}
	.st224{clip-path:url(#SVGID_118_);enable-background:new    ;}
	.st225{fill:#1C2021;}
	.st226{fill:#131717;}
	.st227{clip-path:url(#SVGID_120_);enable-background:new    ;}
	.st228{clip-path:url(#SVGID_122_);enable-background:new    ;}
	.st229{clip-path:url(#SVGID_124_);enable-background:new    ;}
	.st230{clip-path:url(#SVGID_126_);enable-background:new    ;}
	.st231{clip-path:url(#SVGID_128_);enable-background:new    ;}
	.st232{clip-path:url(#SVGID_130_);enable-background:new    ;}
	.st233{clip-path:url(#SVGID_132_);enable-background:new    ;}
	.st234{clip-path:url(#SVGID_134_);enable-background:new    ;}
	.st235{clip-path:url(#SVGID_136_);enable-background:new    ;}
	.st236{clip-path:url(#SVGID_138_);enable-background:new    ;}
	.st237{clip-path:url(#SVGID_140_);enable-background:new    ;}
	.st238{clip-path:url(#SVGID_142_);enable-background:new    ;}
	.st239{clip-path:url(#SVGID_144_);enable-background:new    ;}
	.st240{clip-path:url(#SVGID_146_);enable-background:new    ;}
	.st241{clip-path:url(#SVGID_148_);enable-background:new    ;}
	.st242{clip-path:url(#SVGID_150_);enable-background:new    ;}
	.st243{clip-path:url(#SVGID_152_);enable-background:new    ;}
	.st244{clip-path:url(#SVGID_154_);enable-background:new    ;}
	.st245{clip-path:url(#SVGID_156_);enable-background:new    ;}
	.st246{clip-path:url(#SVGID_158_);enable-background:new    ;}
	.st247{clip-path:url(#SVGID_160_);enable-background:new    ;}
	.st248{clip-path:url(#SVGID_162_);enable-background:new    ;}
	.st249{clip-path:url(#SVGID_164_);enable-background:new    ;}
	.st250{clip-path:url(#SVGID_166_);enable-background:new    ;}
	.st251{clip-path:url(#SVGID_168_);enable-background:new    ;}
	.st252{clip-path:url(#SVGID_170_);enable-background:new    ;}
	.st253{clip-path:url(#SVGID_172_);enable-background:new    ;}
	.st254{clip-path:url(#SVGID_174_);enable-background:new    ;}
	.st255{clip-path:url(#SVGID_176_);enable-background:new    ;}
	.st256{clip-path:url(#SVGID_178_);enable-background:new    ;}
	.st257{clip-path:url(#SVGID_180_);enable-background:new    ;}
	.st258{clip-path:url(#SVGID_182_);enable-background:new    ;}
	.st259{clip-path:url(#SVGID_184_);enable-background:new    ;}
	.st260{clip-path:url(#SVGID_186_);enable-background:new    ;}
	.st261{clip-path:url(#SVGID_188_);enable-background:new    ;}
	.st262{clip-path:url(#SVGID_190_);enable-background:new    ;}
	.st263{clip-path:url(#SVGID_192_);enable-background:new    ;}
	.st264{clip-path:url(#SVGID_194_);enable-background:new    ;}
	.st265{clip-path:url(#SVGID_196_);enable-background:new    ;}
	.st266{clip-path:url(#SVGID_198_);enable-background:new    ;}
	.st267{clip-path:url(#SVGID_200_);enable-background:new    ;}
	.st268{clip-path:url(#SVGID_202_);enable-background:new    ;}
	.st269{clip-path:url(#SVGID_204_);enable-background:new    ;}
	.st270{clip-path:url(#SVGID_206_);enable-background:new    ;}
	.st271{clip-path:url(#SVGID_208_);enable-background:new    ;}
	.st272{clip-path:url(#SVGID_210_);enable-background:new    ;}
	.st273{clip-path:url(#SVGID_212_);enable-background:new    ;}
	.st274{clip-path:url(#SVGID_214_);enable-background:new    ;}
	.st275{clip-path:url(#SVGID_216_);enable-background:new    ;}
	.st276{clip-path:url(#SVGID_218_);enable-background:new    ;}
	.st277{clip-path:url(#SVGID_220_);enable-background:new    ;}
	.st278{clip-path:url(#SVGID_222_);enable-background:new    ;}
	.st279{opacity:0.5;fill:#EFF6FE;}
	.st280{opacity:0.4;fill:#EFF6FE;}
	.st281{opacity:0.1;fill:#EFF6FE;}
	.st282{opacity:0.7;fill:#EFF6FE;}
	.st283{clip-path:url(#SVGID_226_);enable-background:new    ;}
	.st284{clip-path:url(#SVGID_232_);}
	.st285{fill:#3A4648;}
	.st286{fill:#021B74;}
	.st287{fill:#30383A;}
	.st288{clip-path:url(#SVGID_238_);enable-background:new    ;}
	.st289{clip-path:url(#SVGID_244_);}
	.st290{fill:#353F41;}
	.st291{fill:#F4F4F4;}
	.st292{fill:#C99C83;}
	.st293{fill:#B98C74;}
	.st294{clip-path:url(#SVGID_250_);enable-background:new    ;}
	.st295{clip-path:url(#SVGID_256_);}
	.st296{fill:#293233;}
	.st297{fill:#171C1D;}
	.st298{fill:#202728;}
	.st299{fill:#47477E;}
	.st300{fill:#393966;}
	.st301{fill:#242448;}
	.st302{opacity:0.5;fill:#FFFFFF;}
	.st303{opacity:0.8;fill:#FFFFFF;}
	.st304{opacity:0.3;fill:#EFF6FE;}
	.st305{fill:#000A8C;}
	.st306{fill:url(#SVGID_259_);}
	.st307{fill:url(#SVGID_260_);}
	.st308{fill:#002680;}
	.st309{fill:#F5F5F5;}
	.st310{fill:#1A2E35;}
	.st311{opacity:0.9;fill:#FFFFFF;}
	.st312{fill:url(#SVGID_261_);}
	.st313{fill:url(#SVGID_262_);}
	.st314{opacity:0.3;}
	.st315{fill:url(#SVGID_263_);}
	.st316{fill:url(#SVGID_264_);}
	.st317{fill:url(#SVGID_265_);}
	.st318{opacity:0.1;}
	.st319{fill:#FFC3BD;}
	.st320{fill:url(#SVGID_266_);}
	.st321{fill:url(#SVGID_267_);}
	.st322{fill:#FF847F;}
	.st323{fill:#007CFF;}
	.st324{opacity:0.3;fill:#FFFFFF;}
	.st325{opacity:0.2;fill:#FFFFFF;}
</style>
<g>
	<ellipse id="_x3C_Path_x3E__110_" class="st309" cx="202.83" cy="329.65" rx="177.24" ry="10.35"/>
	<path class="st310" d="M369.58,269.18H81.22c-3.1,0-5.64-2.54-5.64-5.64V76.28c0-3.1,2.54-5.64,5.64-5.64h288.36
		c3.1,0,5.64,2.54,5.64,5.64v187.26C375.22,266.64,372.68,269.18,369.58,269.18z"/>
	<polygon class="st310" points="265.78,323.36 198.45,323.36 186.83,205.51 254.15,205.51 	"/>
	<polygon class="st308" points="263.98,323.36 196.65,323.36 185.02,205.51 252.35,205.51 	"/>
	<path class="st310" d="M278.95,327.33h-86.18l0.95-3.97h82.11C277.89,323.36,279.43,325.3,278.95,327.33L278.95,327.33z"/>
	<line class="st310" x1="272.46" y1="327.33" x2="271.51" y2="323.36"/>
	<path class="st308" d="M264.33,327.33h-86.18l0,0c0.55-2.33,2.63-3.97,5.02-3.97h82.11L264.33,327.33z"/>
	<path class="st310" d="M271.51,323.36h-8.62c-2.08,0-3.61,1.94-3.13,3.97l0,0h12.7"/>
	<polygon class="st1" points="252.35,205.51 185.02,205.51 191.86,274.83 259.19,274.83 	"/>
	<path class="st308" d="M367.92,269.18H79.57c-3.1,0-5.64-2.54-5.64-5.64V76.28c0-3.1,2.54-5.64,5.64-5.64h288.36
		c3.1,0,5.64,2.54,5.64,5.64v187.26C373.56,266.64,371.03,269.18,367.92,269.18z"/>
	<circle class="st1" cx="223.75" cy="255.6" r="5.3"/>
	<path class="st311" d="M368.56,240.71H78.72c-1.32,0-2.39-1.07-2.39-2.39V84.7c0-1.32,1.07-2.39,2.39-2.39h289.84
		c1.32,0,2.39,1.07,2.39,2.39v153.62C370.96,239.64,369.89,240.71,368.56,240.71z"/>
	<g>
		<g>
			<path class="st308" d="M231.37,207.83c-7.07-0.72-13.85-2.81-19.84-6.07c-6-3.25-11.22-7.63-15.33-12.73
				c-4.11-5.11-7.1-10.93-8.82-16.95c-1.21-4.21-1.79-8.52-1.8-12.77h9.57l-18.6-32.22l-18.6,32.22h9.99
				c1.11,6.44,3.18,12.65,6.13,18.3c3.76,7.24,8.9,13.58,14.94,18.63c6.05,5.04,12.99,8.79,20.25,11.03
				c7.26,2.25,14.83,2.98,22.12,2.29c0.4-0.04,0.74-0.36,0.77-0.77C232.19,208.3,231.84,207.88,231.37,207.83z"/>
			<path class="st308" d="M279.56,163.66c-1.11-6.44-3.18-12.65-6.13-18.3c-3.76-7.24-8.9-13.58-14.94-18.63
				c-6.05-5.04-12.99-8.79-20.25-11.03c-7.26-2.25-14.83-2.98-22.12-2.29c-0.4,0.04-0.74,0.36-0.77,0.78
				c-0.05,0.47,0.3,0.89,0.77,0.94c7.07,0.72,13.85,2.81,19.84,6.07c6,3.25,11.22,7.63,15.33,12.74c4.11,5.11,7.1,10.93,8.82,16.95
				c1.21,4.21,1.79,8.52,1.8,12.77h-9.57l18.6,32.22l18.6-32.22H279.56z"/>
		</g>
	</g>
	<g>
		<linearGradient id="SVGID_1_" gradientUnits="userSpaceOnUse" x1="157.9388" y1="168.4413" x2="232.147" y2="168.4413">
			<stop  offset="0" style="stop-color:#00C0F3"/>
			<stop  offset="1" style="stop-color:#00C0F3;stop-opacity:0"/>
		</linearGradient>
		<path class="st0" d="M231.37,207.83c-7.07-0.72-13.85-2.81-19.84-6.07c-6-3.25-11.22-7.63-15.33-12.73
			c-4.11-5.11-7.1-10.93-8.82-16.95c-1.21-4.21-1.79-8.52-1.8-12.77h9.57l-18.6-32.22l-18.6,32.22h9.99
			c1.11,6.44,3.18,12.65,6.13,18.3c3.76,7.24,8.9,13.58,14.94,18.63c6.05,5.04,12.99,8.79,20.25,11.03
			c7.26,2.25,14.83,2.98,22.12,2.29c0.4-0.04,0.74-0.36,0.77-0.77C232.19,208.3,231.84,207.88,231.37,207.83z"/>
		<linearGradient id="SVGID_3_" gradientUnits="userSpaceOnUse" x1="215.344" y1="154.5256" x2="289.5521" y2="154.5256">
			<stop  offset="0" style="stop-color:#00C0F3"/>
			<stop  offset="1" style="stop-color:#00C0F3;stop-opacity:0"/>
		</linearGradient>
		<path style="fill:url(#SVGID_3_);" d="M279.56,163.66c-1.11-6.44-3.18-12.65-6.13-18.3c-3.76-7.24-8.9-13.58-14.94-18.63
			c-6.05-5.04-12.99-8.79-20.25-11.03c-7.26-2.25-14.83-2.98-22.12-2.29c-0.4,0.04-0.74,0.36-0.77,0.78
			c-0.05,0.47,0.3,0.89,0.77,0.94c7.07,0.72,13.85,2.81,19.84,6.07c6,3.25,11.22,7.63,15.33,12.74c4.11,5.11,7.1,10.93,8.82,16.95
			c1.21,4.21,1.79,8.52,1.8,12.77h-9.57l18.6,32.22l18.6-32.22H279.56z"/>
	</g>
	<g class="st314">
		<polygon class="st211" points="137.29,142.47 177.8,82.28 126.92,82.28 87.19,141.29 85.51,143.81 76.43,157.3 76.43,232.91 
			85.51,219.42 		"/>
		<polygon class="st211" points="225.86,82.28 174.3,158.89 122.18,236.34 119.26,240.68 144.18,240.68 174.3,195.95 250.79,82.28 
					"/>
	</g>
	<g>
		<g>
			<path class="st310" d="M121.64,328.19H43.47c-5.46,0-9.93-4.47-9.93-9.93V139.57c0-5.46,4.47-9.93,9.93-9.93h78.17
				c5.46,0,9.93,4.47,9.93,9.93v178.69C131.56,323.72,127.1,328.19,121.64,328.19z"/>
			<path class="st310" d="M130.94,192.33h-1.33c-1.03,0-1.86-0.84-1.86-1.86V166.4c0-1.03,0.84-1.86,1.86-1.86h1.33
				c1.03,0,1.86,0.84,1.86,1.86v24.07C132.81,191.49,131.97,192.33,130.94,192.33z"/>
			<path class="st310" d="M33.74,178.11h-1.53c-0.97,0-1.76-0.79-1.76-1.76V166.3c0-0.97,0.79-1.76,1.76-1.76h1.53
				c0.97,0,1.76,0.79,1.76,1.76v10.05C35.5,177.31,34.71,178.11,33.74,178.11z"/>
			<path class="st310" d="M33.74,196.05h-1.53c-0.97,0-1.76-0.79-1.76-1.76v-10.05c0-0.97,0.79-1.76,1.76-1.76h1.53
				c0.97,0,1.76,0.79,1.76,1.76v10.05C35.5,195.26,34.71,196.05,33.74,196.05z"/>
			<path class="st308" d="M119.98,328.19H41.81c-5.46,0-9.93-4.47-9.93-9.93V139.57c0-5.46,4.47-9.93,9.93-9.93h78.17
				c5.46,0,9.93,4.47,9.93,9.93v178.69C129.91,323.72,125.44,328.19,119.98,328.19z"/>
			<path class="st311" d="M126.16,316.88H35.63c-1.32,0-2.39-1.07-2.39-2.39v-170.8c0-1.32,1.07-2.39,2.39-2.39h90.53
				c1.32,0,2.39,1.07,2.39,2.39v170.8C128.56,315.81,127.49,316.88,126.16,316.88z"/>
			<g>
				<g>
					<path class="st308" d="M84.75,249.8c-3.57-0.36-6.99-1.42-10.02-3.06c-3.03-1.64-5.66-3.85-7.74-6.43
						c-2.07-2.58-3.58-5.52-4.45-8.56c-0.61-2.13-0.9-4.3-0.91-6.45h4.83l-9.39-16.27l-9.39,16.27h5.04
						c0.56,3.25,1.61,6.38,3.09,9.24c1.9,3.66,4.49,6.86,7.54,9.4c3.05,2.55,6.56,4.44,10.22,5.57c3.67,1.14,7.49,1.5,11.17,1.15
						c0.2-0.02,0.37-0.18,0.39-0.39C85.16,250.03,84.99,249.82,84.75,249.8z"/>
					<path class="st308" d="M109.08,227.5c-0.56-3.25-1.61-6.38-3.09-9.24c-1.9-3.66-4.49-6.86-7.54-9.4
						c-3.05-2.55-6.56-4.44-10.22-5.57c-3.67-1.14-7.49-1.5-11.17-1.15c-0.2,0.02-0.37,0.18-0.39,0.39
						c-0.02,0.24,0.15,0.45,0.39,0.47c3.57,0.36,6.99,1.42,10.02,3.06c3.03,1.64,5.66,3.85,7.74,6.43c2.07,2.58,3.58,5.52,4.45,8.56
						c0.61,2.13,0.9,4.3,0.91,6.45h-4.83l9.39,16.27l9.39-16.27H109.08z"/>
				</g>
			</g>
			<g>
				<g>
					<linearGradient id="SVGID_4_" gradientUnits="userSpaceOnUse" x1="47.674" y1="229.9136" x2="85.14" y2="229.9136">
						<stop  offset="0" style="stop-color:#00C0F3"/>
						<stop  offset="1" style="stop-color:#00C0F3;stop-opacity:0"/>
					</linearGradient>
					<path style="fill:url(#SVGID_4_);" d="M84.75,249.8c-3.57-0.36-6.99-1.42-10.02-3.06c-3.03-1.64-5.66-3.85-7.74-6.43
						c-2.07-2.58-3.58-5.52-4.45-8.56c-0.61-2.13-0.9-4.3-0.91-6.45h4.83l-9.39-16.27l-9.39,16.27h5.04
						c0.56,3.25,1.61,6.38,3.09,9.24c1.9,3.66,4.49,6.86,7.54,9.4c3.05,2.55,6.56,4.44,10.22,5.57c3.67,1.14,7.49,1.5,11.17,1.15
						c0.2-0.02,0.37-0.18,0.39-0.39C85.16,250.03,84.99,249.82,84.75,249.8z"/>
					<linearGradient id="SVGID_6_" gradientUnits="userSpaceOnUse" x1="76.6566" y1="222.8879" x2="114.1227" y2="222.8879">
						<stop  offset="0" style="stop-color:#00C0F3"/>
						<stop  offset="1" style="stop-color:#00C0F3;stop-opacity:0"/>
					</linearGradient>
					<path style="fill:url(#SVGID_6_);" d="M109.08,227.5c-0.56-3.25-1.61-6.38-3.09-9.24c-1.9-3.66-4.49-6.86-7.54-9.4
						c-3.05-2.55-6.56-4.44-10.22-5.57c-3.67-1.14-7.49-1.5-11.17-1.15c-0.2,0.02-0.37,0.18-0.39,0.39
						c-0.02,0.24,0.15,0.45,0.39,0.47c3.57,0.36,6.99,1.42,10.02,3.06c3.03,1.64,5.66,3.85,7.74,6.43c2.07,2.58,3.58,5.52,4.45,8.56
						c0.61,2.13,0.9,4.3,0.91,6.45h-4.83l9.39,16.27l9.39-16.27H109.08z"/>
				</g>
			</g>
			<g class="st314">
				<path class="st211" d="M128.22,142.47c-0.41-0.7-1.18-1.18-2.06-1.18H78.12l-1.69,2.51l-43.19,64.18v75.62l43.19-64.19
					L128.22,142.47z"/>
				<path class="st211" d="M76.43,236.34l-43.19,64.18v13.97c0,1.33,1.07,2.4,2.39,2.4h11.53l51.28-76.2l30.11-44.74v-37.06
					L76.43,236.34z"/>
			</g>
			<path class="st1" d="M71.47,134.24h18.85c0.67,0,1.22,0.55,1.22,1.22l0,0c0,0.67-0.55,1.22-1.22,1.22H71.47
				c-0.67,0-1.22-0.55-1.22-1.22v0C70.25,134.79,70.8,134.24,71.47,134.24z"/>
		</g>
	</g>
	<g>
		<g>
			<g class="st155">
				<g>
					<g>
						<path class="st308" d="M295.6,21.91c-0.06,0-0.12-0.01-0.18-0.01c-0.17-0.01-0.35-0.02-0.52-0.03c-0.13,0-0.26-0.01-0.39-0.01
							h-4.95c0.31,0,0.61,0.01,0.91,0.03c0.06,0,0.12,0,0.19,0.01c0.33,0.03,0.66,0.06,0.99,0.11h4.95
							c-0.06-0.01-0.12-0.02-0.17-0.02C296.15,21.96,295.88,21.93,295.6,21.91z"/>
						<path class="st308" d="M344.34,41.38c0.03-0.33,0.04-0.66,0.04-0.99c0-0.08,0-0.15,0-0.23c-0.01-0.26-0.02-0.53-0.05-0.79
							c-0.01-0.06-0.01-0.12-0.02-0.17c-0.01-0.13-0.03-0.27-0.05-0.4c-0.02-0.1-0.04-0.2-0.06-0.3c-0.02-0.13-0.04-0.25-0.07-0.37
							c-0.04-0.2-0.1-0.41-0.15-0.61c-0.03-0.11-0.06-0.22-0.09-0.33c-0.01-0.04-0.02-0.08-0.03-0.12
							c-0.08-0.24-0.17-0.48-0.26-0.71c-0.02-0.05-0.04-0.1-0.06-0.15c-0.1-0.24-0.21-0.47-0.33-0.7c-0.03-0.06-0.06-0.12-0.09-0.18
							c-0.14-0.26-0.29-0.51-0.44-0.76c-0.03-0.05-0.07-0.1-0.1-0.14c-0.14-0.21-0.29-0.42-0.44-0.62c-0.04-0.05-0.08-0.1-0.12-0.15
							c-0.18-0.23-0.37-0.45-0.57-0.66c-0.04-0.04-0.09-0.09-0.13-0.13c-0.09-0.09-0.17-0.18-0.26-0.27
							c-0.07-0.06-0.14-0.12-0.21-0.18c-0.1-0.09-0.21-0.18-0.31-0.27c-0.14-0.12-0.29-0.23-0.43-0.34
							c-0.11-0.08-0.22-0.16-0.33-0.24c-0.05-0.03-0.09-0.07-0.14-0.1c-0.19-0.13-0.38-0.24-0.57-0.36c-0.01,0-0.01-0.01-0.02-0.01
							c-0.18-0.11-0.37-0.21-0.56-0.3c-0.04-0.02-0.09-0.04-0.14-0.06c-0.23-0.11-0.46-0.21-0.7-0.3c-0.09-0.03-0.17-0.08-0.25-0.11
							c-0.02-0.01-0.05-0.01-0.08-0.02c-0.23-0.08-0.46-0.15-0.7-0.21c-0.1-0.03-0.19-0.06-0.29-0.09c-0.01,0-0.02,0-0.04-0.01
							c-0.33-0.08-0.66-0.14-1-0.19c-0.02,0-0.03-0.01-0.05-0.01c0,0,0,0,0,0c-0.35-0.05-0.7-0.08-1.05-0.09
							c-0.01-0.13-0.03-0.25-0.05-0.38c-0.02-0.13-0.05-0.26-0.08-0.39c-0.03-0.14-0.05-0.28-0.08-0.42c-0.04-0.2-0.1-0.4-0.15-0.6
							c-0.04-0.13-0.07-0.26-0.11-0.39c-0.01-0.03-0.02-0.06-0.03-0.09c-0.08-0.26-0.18-0.51-0.28-0.76
							c-0.02-0.06-0.05-0.11-0.07-0.17c-0.1-0.24-0.21-0.47-0.32-0.7c-0.04-0.07-0.07-0.15-0.11-0.22c-0.14-0.27-0.29-0.54-0.46-0.8
							c-0.02-0.02-0.03-0.05-0.05-0.07c-0.15-0.23-0.31-0.46-0.48-0.69c-0.05-0.07-0.1-0.13-0.15-0.2
							c-0.17-0.22-0.35-0.43-0.53-0.63c-0.02-0.02-0.04-0.05-0.06-0.07c-0.17-0.18-0.34-0.36-0.52-0.53
							c-0.03-0.03-0.07-0.06-0.1-0.09c-0.11-0.1-0.23-0.2-0.35-0.3c-0.14-0.12-0.28-0.24-0.42-0.35c-0.12-0.09-0.25-0.18-0.37-0.27
							c-0.1-0.07-0.19-0.15-0.29-0.21c-0.06-0.04-0.13-0.08-0.19-0.12c-0.07-0.05-0.14-0.09-0.22-0.14
							c-0.23-0.14-0.46-0.27-0.7-0.39c-0.04-0.02-0.08-0.04-0.12-0.06c-0.01-0.01-0.02-0.01-0.04-0.02
							c-0.05-0.03-0.11-0.05-0.16-0.07c-0.29-0.14-0.58-0.27-0.88-0.38c-0.04-0.02-0.08-0.04-0.12-0.05
							c-0.09-0.03-0.19-0.05-0.28-0.09c-0.22-0.07-0.44-0.14-0.67-0.21c-0.07-0.02-0.13-0.04-0.2-0.06
							c-0.08-0.02-0.17-0.03-0.25-0.05c-0.22-0.05-0.44-0.09-0.66-0.13c-0.09-0.01-0.17-0.04-0.26-0.05
							c-0.07-0.01-0.14-0.01-0.2-0.02c-0.24-0.03-0.49-0.05-0.74-0.06c-0.1-0.01-0.2-0.02-0.31-0.03c-0.1,0-0.2,0-0.3,0l0,0h-4.14
							c-0.04-0.06-0.07-0.12-0.11-0.18c-0.05-0.08-0.11-0.17-0.16-0.25c-0.12-0.19-0.25-0.37-0.38-0.55
							c-0.06-0.09-0.13-0.18-0.2-0.26c-0.14-0.18-0.29-0.36-0.44-0.53c-0.06-0.07-0.12-0.14-0.18-0.21
							c-0.21-0.24-0.43-0.46-0.66-0.68c0,0-0.01-0.01-0.01-0.01c-0.03-0.03-0.06-0.05-0.09-0.08c-0.2-0.18-0.4-0.36-0.61-0.53
							c-0.08-0.07-0.16-0.13-0.24-0.19c-0.17-0.13-0.35-0.26-0.53-0.39c-0.05-0.03-0.1-0.07-0.15-0.11c-0.05-0.03-0.1-0.06-0.15-0.1
							c-0.1-0.07-0.21-0.13-0.31-0.19c-0.12-0.08-0.25-0.15-0.38-0.22c-0.11-0.06-0.21-0.12-0.32-0.17
							c-0.06-0.03-0.12-0.07-0.18-0.1c-0.04-0.02-0.08-0.03-0.12-0.05c-0.36-0.17-0.72-0.33-1.1-0.47c-0.01,0-0.02-0.01-0.03-0.01
							c-0.03-0.01-0.06-0.02-0.1-0.03c-0.32-0.11-0.65-0.21-0.98-0.3c-0.05-0.01-0.1-0.03-0.15-0.05c-0.04-0.01-0.08-0.01-0.11-0.02
							c-0.36-0.09-0.73-0.16-1.1-0.21c-0.01,0-0.02,0-0.03-0.01c-0.24-0.03-0.48-0.06-0.72-0.08c-0.06,0-0.13-0.01-0.2-0.01
							c-0.13-0.01-0.27-0.02-0.41-0.02c-0.11,0-0.21,0-0.32,0h-4.95c0.24,0,0.49,0.01,0.73,0.03c0.07,0,0.13,0.01,0.2,0.01
							c0.25,0.02,0.51,0.05,0.76,0.08c0.37,0.05,0.74,0.12,1.1,0.21c0.09,0.02,0.18,0.04,0.26,0.07c0.33,0.09,0.66,0.18,0.98,0.3
							c0.04,0.01,0.08,0.03,0.12,0.04c0.38,0.14,0.74,0.3,1.1,0.47c0.1,0.05,0.2,0.1,0.3,0.15c0.11,0.06,0.22,0.11,0.32,0.17
							c0.13,0.07,0.25,0.14,0.38,0.22c0.1,0.06,0.21,0.13,0.31,0.19c0.1,0.07,0.2,0.13,0.3,0.2c0.18,0.13,0.36,0.26,0.53,0.39
							c0.08,0.06,0.16,0.12,0.24,0.19c0.21,0.17,0.41,0.35,0.61,0.54c0.03,0.03,0.07,0.06,0.1,0.09c0.23,0.22,0.45,0.45,0.66,0.68
							c0.06,0.07,0.12,0.14,0.18,0.21c0.15,0.17,0.29,0.35,0.43,0.53c0.07,0.09,0.13,0.17,0.2,0.26c0.13,0.18,0.26,0.37,0.38,0.55
							c0.05,0.08,0.11,0.16,0.16,0.25c0.17,0.27,0.33,0.55,0.47,0.83h4.95c-0.11-0.21-0.22-0.41-0.34-0.61
							c0.17,0.01,0.34,0.02,0.51,0.04c0.16,0.02,0.31,0.04,0.46,0.07c0.22,0.04,0.44,0.08,0.66,0.13c0.15,0.03,0.3,0.07,0.45,0.11
							c0.23,0.06,0.45,0.13,0.67,0.21c0.13,0.05,0.27,0.09,0.4,0.14c0.3,0.11,0.6,0.24,0.88,0.38c0.07,0.03,0.14,0.06,0.2,0.09
							c0.04,0.02,0.08,0.04,0.12,0.06c0.24,0.12,0.47,0.25,0.7,0.39c0.07,0.04,0.14,0.09,0.22,0.14c0.17,0.11,0.32,0.22,0.48,0.33
							c0.13,0.09,0.25,0.18,0.37,0.27c0.14,0.11,0.28,0.23,0.42,0.35c0.12,0.1,0.23,0.2,0.35,0.3c0.21,0.2,0.42,0.4,0.62,0.62
							c0.02,0.02,0.04,0.05,0.06,0.07c0.19,0.2,0.36,0.42,0.53,0.63c0.05,0.07,0.1,0.13,0.15,0.2c0.17,0.22,0.33,0.45,0.48,0.69
							c0.02,0.02,0.03,0.05,0.05,0.07c0.16,0.26,0.32,0.52,0.46,0.8c0.04,0.07,0.07,0.14,0.11,0.22c0.11,0.23,0.22,0.46,0.32,0.7
							c0.02,0.06,0.05,0.11,0.07,0.17c0.11,0.28,0.22,0.57,0.31,0.86c0.04,0.13,0.07,0.26,0.11,0.39c0.06,0.2,0.11,0.4,0.15,0.6
							c0.03,0.14,0.06,0.28,0.08,0.42c0.05,0.26,0.09,0.51,0.12,0.77c0.35,0.01,0.7,0.04,1.05,0.09c0.02,0,0.03,0.01,0.05,0.01
							c0.34,0.05,0.67,0.11,1,0.19c0.11,0.03,0.21,0.06,0.32,0.09c0.24,0.07,0.47,0.13,0.7,0.21c0.11,0.04,0.22,0.09,0.33,0.13
							c0.24,0.09,0.47,0.19,0.7,0.3c0.24,0.11,0.47,0.23,0.7,0.36c0.01,0,0.01,0.01,0.02,0.01c0.25,0.14,0.48,0.3,0.71,0.46
							c0.11,0.08,0.22,0.16,0.33,0.24c0.15,0.11,0.29,0.22,0.43,0.34c0.11,0.09,0.21,0.18,0.31,0.27c0.16,0.15,0.32,0.29,0.47,0.45
							c0.04,0.04,0.09,0.09,0.13,0.13c0.2,0.21,0.39,0.43,0.57,0.66c0.04,0.05,0.08,0.1,0.12,0.15c0.15,0.2,0.3,0.41,0.44,0.62
							c0.03,0.05,0.07,0.09,0.1,0.14c0.16,0.25,0.31,0.5,0.44,0.76c0.03,0.06,0.06,0.12,0.09,0.18c0.12,0.23,0.23,0.46,0.33,0.7
							c0.02,0.05,0.04,0.1,0.06,0.15c0.11,0.27,0.21,0.55,0.29,0.83c0.03,0.11,0.06,0.22,0.09,0.33c0.06,0.2,0.11,0.4,0.15,0.61
							c0.03,0.12,0.05,0.25,0.07,0.37c0.04,0.23,0.08,0.47,0.1,0.71c0.01,0.06,0.01,0.12,0.02,0.17c0.03,0.33,0.05,0.67,0.05,1.01
							c0,0.35-0.02,0.7-0.05,1.04c-0.02,0.25-0.07,0.49-0.11,0.74c-0.02,0.12-0.03,0.24-0.05,0.36c-0.07,0.36-0.16,0.71-0.27,1.05
							c0,0.01-0.01,0.02-0.01,0.03c-0.11,0.34-0.23,0.67-0.37,1c-0.04,0.08-0.08,0.16-0.12,0.25c-0.13,0.28-0.26,0.55-0.41,0.81
							c-0.11,0.2-0.22,0.39-0.35,0.58c-0.04,0.06-0.07,0.11-0.11,0.17c-0.17,0.26-0.36,0.51-0.55,0.75
							c-0.03,0.03-0.06,0.07-0.09,0.1c-0.2,0.24-0.4,0.47-0.62,0.69c0,0,0,0-0.01,0.01c-0.22,0.22-0.45,0.43-0.68,0.63
							c-0.04,0.03-0.07,0.06-0.11,0.09c-0.23,0.19-0.46,0.37-0.71,0.54c-0.05,0.03-0.09,0.06-0.14,0.09
							c-0.25,0.17-0.5,0.32-0.76,0.47c-0.04,0.02-0.08,0.04-0.12,0.06c-0.27,0.15-0.56,0.29-0.84,0.41c0,0,0,0,0,0
							c-0.29,0.12-0.59,0.23-0.89,0.33c-0.04,0.01-0.09,0.03-0.13,0.04c-0.29,0.09-0.58,0.17-0.88,0.23
							c-0.06,0.01-0.11,0.02-0.17,0.03c-0.3,0.06-0.61,0.11-0.92,0.14c-0.05,0-0.09,0.01-0.14,0.01c-0.33,0.03-0.66,0.05-0.99,0.05
							h4.95c0.33,0,0.66-0.02,0.99-0.05c0.05,0,0.09-0.01,0.14-0.01c0.31-0.03,0.61-0.08,0.92-0.14c0.06-0.01,0.11-0.02,0.17-0.03
							c0.3-0.06,0.59-0.14,0.88-0.23c0.04-0.01,0.09-0.03,0.13-0.04c0.3-0.1,0.6-0.2,0.89-0.33c0,0,0,0,0,0
							c0.29-0.12,0.57-0.26,0.84-0.41c0.04-0.02,0.08-0.04,0.12-0.06c0.26-0.14,0.51-0.3,0.76-0.47c0.05-0.03,0.09-0.06,0.14-0.09
							c0.24-0.17,0.48-0.35,0.71-0.54c0.04-0.03,0.07-0.06,0.11-0.09c0.24-0.2,0.47-0.41,0.69-0.63c0,0,0,0,0.01-0.01
							c0.22-0.22,0.42-0.45,0.62-0.69c0.03-0.03,0.06-0.07,0.09-0.1c0.02-0.02,0.04-0.05,0.06-0.07c0.17-0.22,0.34-0.45,0.49-0.68
							c0.04-0.06,0.07-0.11,0.11-0.17c0.09-0.15,0.19-0.29,0.28-0.44c0.02-0.04,0.04-0.09,0.07-0.13c0.15-0.26,0.28-0.53,0.41-0.81
							c0.03-0.07,0.07-0.13,0.1-0.2c0.01-0.02,0.01-0.03,0.02-0.05c0.14-0.33,0.26-0.66,0.37-1c0-0.01,0.01-0.02,0.01-0.03
							c0,0,0,0,0,0c0.11-0.34,0.19-0.7,0.27-1.05c0-0.01,0-0.02,0.01-0.02c0.02-0.11,0.03-0.22,0.05-0.33
							c0.04-0.24,0.08-0.49,0.11-0.74C344.33,41.41,344.34,41.4,344.34,41.38z"/>
					</g>
				</g>
				<g>
					<g>
						<path class="st308" d="M303.26,13.42c4.71,0,8.79,2.71,10.82,6.67c1.18-0.42,2.45-0.66,3.77-0.66
							c5.88,0,10.72,4.49,11.38,10.26c5.66,0.21,10.19,4.91,10.19,10.69c0,5.92-4.74,10.71-10.58,10.71h-39.3
							c-7.98,0-14.44-6.55-14.44-14.62c0-8.08,6.46-14.62,14.44-14.62c0.71,0,1.41,0.05,2.09,0.15
							C293.21,17.04,297.82,13.42,303.26,13.42z"/>
					</g>
				</g>
				<g>
					<g>
						<linearGradient id="SVGID_8_" gradientUnits="userSpaceOnUse" x1="275.1139" y1="32.2644" x2="339.43" y2="32.2644">
							<stop  offset="0" style="stop-color:#00C0F3"/>
							<stop  offset="1" style="stop-color:#00C0F3;stop-opacity:0"/>
						</linearGradient>
						<path style="fill:url(#SVGID_8_);" d="M303.26,13.42c4.71,0,8.79,2.71,10.82,6.67c1.18-0.42,2.45-0.66,3.77-0.66
							c5.88,0,10.72,4.49,11.38,10.26c5.66,0.21,10.19,4.91,10.19,10.69c0,5.92-4.74,10.71-10.58,10.71h-39.3
							c-7.98,0-14.44-6.55-14.44-14.62c0-8.08,6.46-14.62,14.44-14.62c0.71,0,1.41,0.05,2.09,0.15
							C293.21,17.04,297.82,13.42,303.26,13.42z"/>
					</g>
				</g>
			</g>
			<g class="st318">
				<path class="st211" d="M303.26,13.43c-5.44,0-10.06,3.61-11.62,8.59c-0.37-0.05-0.76-0.09-1.15-0.12l-7.93,27.38
					c2.07,1.16,4.45,1.83,7,1.83h6.61L306.91,14C305.76,13.63,304.54,13.43,303.26,13.43z"/>
				<path class="st211" d="M317.86,19.44c-1.33,0-2.6,0.24-3.78,0.66c-1.14-2.24-2.94-4.08-5.14-5.25l-10.5,36.25h11.32l9.16-31.61
					C318.57,19.46,318.21,19.44,317.86,19.44z"/>
			</g>
		</g>
		<g>
			<g>
				<path class="st308" d="M270.48,39.32c-0.24,0-0.48-0.1-0.65-0.27c-0.17-0.17-0.27-0.41-0.27-0.65c0-0.24,0.1-0.48,0.27-0.65
					c0.34-0.34,0.95-0.34,1.29,0c0.17,0.17,0.27,0.41,0.27,0.65c0,0.24-0.1,0.48-0.27,0.65C270.96,39.22,270.72,39.32,270.48,39.32z
					"/>
				<path class="st308" d="M50.89,120.84c0-0.5,0.41-0.91,0.91-0.91l0,0c0.5,0,0.91,0.41,0.91,0.91l0,0c0,0.51-0.41,0.91-0.91,0.91
					l0,0C51.3,121.75,50.89,121.34,50.89,120.84z M50.89,117.16c0-0.51,0.41-0.91,0.91-0.91l0,0c0.5,0,0.91,0.41,0.91,0.91l0,0
					c0,0.5-0.41,0.91-0.91,0.91l0,0C51.3,118.08,50.89,117.67,50.89,117.16z M50.89,113.49c0-0.5,0.41-0.91,0.91-0.91l0,0
					c0.5,0,0.91,0.41,0.91,0.91l0,0c0,0.5-0.41,0.91-0.91,0.91l0,0C51.3,114.4,50.89,113.99,50.89,113.49z M50.89,109.81
					c0-0.5,0.41-0.91,0.91-0.91l0,0c0.5,0,0.91,0.41,0.91,0.91l0,0c0,0.51-0.41,0.91-0.91,0.91l0,0
					C51.3,110.73,50.89,110.32,50.89,109.81z M50.89,106.14c0-0.51,0.41-0.91,0.91-0.91l0,0c0.5,0,0.91,0.41,0.91,0.91l0,0
					c0,0.51-0.41,0.91-0.91,0.91l0,0C51.3,107.05,50.89,106.64,50.89,106.14z M50.89,102.46c0-0.51,0.41-0.91,0.91-0.91l0,0
					c0.5,0,0.91,0.41,0.91,0.91l0,0c0,0.5-0.41,0.91-0.91,0.91l0,0C51.3,103.38,50.89,102.97,50.89,102.46z M50.89,98.79
					c0-0.5,0.41-0.91,0.91-0.91l0,0c0.5,0,0.91,0.41,0.91,0.91l0,0c0,0.51-0.41,0.91-0.91,0.91l0,0
					C51.3,99.7,50.89,99.29,50.89,98.79z M50.89,95.11c0-0.5,0.41-0.91,0.91-0.91l0,0c0.5,0,0.91,0.41,0.91,0.91l0,0
					c0,0.51-0.41,0.91-0.91,0.91l0,0C51.3,96.03,50.89,95.62,50.89,95.11z M50.89,91.44c0-0.51,0.41-0.91,0.91-0.91l0,0
					c0.5,0,0.91,0.41,0.91,0.91l0,0c0,0.5-0.41,0.91-0.91,0.91l0,0C51.3,92.35,50.89,91.94,50.89,91.44z M50.89,87.76
					c0-0.51,0.41-0.91,0.91-0.91l0,0c0.5,0,0.91,0.41,0.91,0.91l0,0c0,0.5-0.41,0.91-0.91,0.91l0,0
					C51.3,88.67,50.89,88.27,50.89,87.76z M50.89,84.09c0-0.5,0.41-0.91,0.91-0.91l0,0c0.5,0,0.91,0.41,0.91,0.91l0,0
					c0,0.51-0.41,0.92-0.91,0.92l0,0C51.3,85,50.89,84.59,50.89,84.09z M50.89,80.41c0-0.51,0.41-0.91,0.91-0.91l0,0
					c0.5,0,0.91,0.41,0.91,0.91l0,0c0,0.51-0.41,0.91-0.91,0.91l0,0C51.3,81.32,50.89,80.92,50.89,80.41z M50.89,76.74
					c0-0.51,0.41-0.91,0.91-0.91l0,0c0.5,0,0.91,0.41,0.91,0.91l0,0c0,0.5-0.41,0.91-0.91,0.91l0,0
					C51.3,77.65,50.89,77.24,50.89,76.74z M50.89,73.06c0-0.5,0.41-0.91,0.91-0.91l0,0c0.5,0,0.91,0.41,0.91,0.91l0,0
					c0,0.5-0.41,0.91-0.91,0.91l0,0C51.3,73.97,50.89,73.56,50.89,73.06z M50.89,69.38c0-0.5,0.41-0.91,0.91-0.91l0,0
					c0.5,0,0.91,0.41,0.91,0.91l0,0c0,0.51-0.41,0.91-0.91,0.91l0,0C51.3,70.3,50.89,69.89,50.89,69.38z M50.89,65.71
					c0-0.51,0.41-0.91,0.91-0.91l0,0c0.5,0,0.91,0.41,0.91,0.91l0,0c0,0.51-0.41,0.91-0.91,0.91l0,0
					C51.3,66.62,50.89,66.22,50.89,65.71z M50.89,62.03c0-0.51,0.41-0.91,0.91-0.91l0,0c0.5,0,0.91,0.41,0.91,0.91l0,0
					c0,0.5-0.41,0.91-0.91,0.91l0,0C51.3,62.95,50.89,62.54,50.89,62.03z M50.89,58.36c0-0.5,0.41-0.91,0.91-0.91l0,0
					c0.5,0,0.91,0.41,0.91,0.91l0,0c0,0.5-0.41,0.91-0.91,0.91l0,0C51.3,59.27,50.89,58.86,50.89,58.36z M51.79,55.6
					c-0.51-0.01-0.91-0.42-0.9-0.93l0,0c0.01-0.5,0.42-0.91,0.93-0.9l0,0c0.51,0.01,0.91,0.42,0.9,0.93l0,0
					c-0.01,0.5-0.42,0.9-0.91,0.9l0,0C51.8,55.6,51.8,55.6,51.79,55.6z M52.05,51.94c-0.49-0.12-0.79-0.61-0.67-1.1l0,0
					c0.12-0.49,0.61-0.79,1.1-0.67l0,0c0.49,0.12,0.79,0.61,0.67,1.1l0,0c0,0,0,0,0,0l0,0c-0.1,0.42-0.48,0.7-0.89,0.7l0,0
					C52.2,51.96,52.12,51.95,52.05,51.94z M53.12,48.42c-0.45-0.22-0.64-0.77-0.41-1.22l0,0c0.22-0.45,0.77-0.64,1.22-0.41l0,0
					c0.45,0.22,0.64,0.77,0.41,1.23l0,0c-0.16,0.32-0.48,0.51-0.82,0.51l0,0C53.39,48.52,53.25,48.49,53.12,48.42z M54.93,45.23
					c-0.39-0.32-0.45-0.89-0.13-1.29l0,0c0.32-0.39,0.89-0.45,1.29-0.13l0,0c0.39,0.32,0.45,0.89,0.13,1.29l0,0
					c-0.18,0.22-0.44,0.34-0.71,0.34l0,0C55.3,45.43,55.1,45.37,54.93,45.23z M57.4,42.51c-0.31-0.4-0.25-0.97,0.15-1.28l0,0
					c0.4-0.31,0.97-0.24,1.28,0.15l0,0c0.31,0.4,0.24,0.97-0.15,1.28l0,0c0,0,0,0,0,0l0,0c-0.17,0.13-0.37,0.2-0.57,0.2l0,0
					C57.85,42.86,57.58,42.74,57.4,42.51z M60.41,40.4c-0.22-0.46-0.02-1,0.43-1.22l0,0c0.45-0.22,1-0.02,1.22,0.43l0,0
					c0.22,0.46,0.02,1-0.43,1.22l0,0c-0.13,0.06-0.26,0.09-0.39,0.09l0,0C60.89,40.92,60.56,40.73,60.41,40.4z M63.81,39.01
					c-0.11-0.49,0.2-0.98,0.69-1.09l0,0c0.49-0.11,0.98,0.2,1.09,0.69l0,0c0.11,0.49-0.2,0.98-0.69,1.09l0,0
					c-0.07,0.01-0.14,0.02-0.2,0.02l0,0C64.28,39.72,63.9,39.43,63.81,39.01z M265.89,38.4c0-0.5,0.41-0.91,0.91-0.91l0,0
					c0.5,0,0.91,0.41,0.91,0.91l0,0c0,0.5-0.41,0.91-0.91,0.91l0,0C266.3,39.32,265.89,38.91,265.89,38.4z M262.21,38.4
					c0-0.5,0.41-0.91,0.91-0.91l0,0c0.51,0,0.91,0.41,0.91,0.91l0,0c0,0.5-0.41,0.91-0.91,0.91l0,0
					C262.62,39.32,262.21,38.91,262.21,38.4z M258.54,38.4c0-0.5,0.41-0.91,0.91-0.91l0,0c0.51,0,0.91,0.41,0.91,0.91l0,0
					c0,0.5-0.41,0.91-0.91,0.91l0,0C258.95,39.32,258.54,38.91,258.54,38.4z M254.86,38.4c0-0.5,0.41-0.91,0.91-0.91l0,0
					c0.5,0,0.91,0.41,0.91,0.91l0,0c0,0.5-0.41,0.91-0.91,0.91l0,0C255.27,39.32,254.86,38.91,254.86,38.4z M251.19,38.4
					c0-0.5,0.41-0.91,0.91-0.91l0,0c0.5,0,0.91,0.41,0.91,0.91l0,0c0,0.5-0.41,0.91-0.91,0.91l0,0
					C251.6,39.32,251.19,38.91,251.19,38.4z M247.51,38.4c0-0.5,0.41-0.91,0.91-0.91l0,0c0.51,0,0.91,0.41,0.91,0.91l0,0
					c0,0.5-0.41,0.91-0.91,0.91l0,0C247.92,39.32,247.51,38.91,247.51,38.4z M243.84,38.4c0-0.5,0.41-0.91,0.91-0.91l0,0
					c0.5,0,0.91,0.41,0.91,0.91l0,0c0,0.5-0.41,0.91-0.91,0.91l0,0C244.25,39.32,243.84,38.91,243.84,38.4z M240.16,38.4
					c0-0.5,0.41-0.91,0.91-0.91l0,0c0.5,0,0.91,0.41,0.91,0.91l0,0c0,0.5-0.41,0.91-0.91,0.91l0,0
					C240.57,39.32,240.16,38.91,240.16,38.4z M236.49,38.4c0-0.5,0.41-0.91,0.91-0.91l0,0c0.5,0,0.91,0.41,0.91,0.91l0,0
					c0,0.5-0.41,0.91-0.91,0.91l0,0C236.9,39.32,236.49,38.91,236.49,38.4z M232.81,38.4c0-0.5,0.41-0.91,0.91-0.91l0,0
					c0.51,0,0.91,0.41,0.91,0.91l0,0c0,0.5-0.41,0.91-0.91,0.91l0,0C233.22,39.32,232.81,38.91,232.81,38.4z M229.14,38.4
					c0-0.5,0.41-0.91,0.91-0.91l0,0c0.5,0,0.91,0.41,0.91,0.91l0,0c0,0.5-0.41,0.91-0.91,0.91l0,0
					C229.55,39.32,229.14,38.91,229.14,38.4z M225.46,38.4c0-0.5,0.41-0.91,0.91-0.91l0,0c0.5,0,0.91,0.41,0.91,0.91l0,0
					c0,0.5-0.41,0.91-0.91,0.91l0,0C225.87,39.32,225.46,38.91,225.46,38.4z M221.79,38.4c0-0.5,0.41-0.91,0.91-0.91l0,0
					c0.51,0,0.92,0.41,0.92,0.91l0,0c0,0.5-0.41,0.91-0.92,0.91l0,0C222.2,39.32,221.79,38.91,221.79,38.4z M218.11,38.4
					c0-0.5,0.41-0.91,0.91-0.91l0,0c0.51,0,0.91,0.41,0.91,0.91l0,0c0,0.5-0.41,0.91-0.91,0.91l0,0
					C218.52,39.32,218.11,38.91,218.11,38.4z M214.44,38.4c0-0.5,0.41-0.91,0.91-0.91l0,0c0.5,0,0.91,0.41,0.91,0.91l0,0
					c0,0.5-0.41,0.91-0.91,0.91l0,0C214.85,39.32,214.44,38.91,214.44,38.4z M210.76,38.4c0-0.5,0.41-0.91,0.91-0.91l0,0
					c0.5,0,0.91,0.41,0.91,0.91l0,0c0,0.5-0.41,0.91-0.91,0.91l0,0C211.17,39.32,210.76,38.91,210.76,38.4z M207.09,38.4
					c0-0.5,0.41-0.91,0.92-0.91l0,0c0.5,0,0.91,0.41,0.91,0.91l0,0c0,0.5-0.41,0.91-0.91,0.91l0,0
					C207.5,39.32,207.09,38.91,207.09,38.4z M203.41,38.4c0-0.5,0.41-0.91,0.91-0.91l0,0c0.51,0,0.91,0.41,0.91,0.91l0,0
					c0,0.5-0.41,0.91-0.91,0.91l0,0C203.82,39.32,203.41,38.91,203.41,38.4z M199.74,38.4c0-0.5,0.41-0.91,0.91-0.91l0,0
					c0.5,0,0.91,0.41,0.91,0.91l0,0c0,0.5-0.41,0.91-0.91,0.91l0,0C200.14,39.32,199.74,38.91,199.74,38.4z M196.06,38.4
					c0-0.5,0.41-0.91,0.91-0.91l0,0c0.5,0,0.91,0.41,0.91,0.91l0,0c0,0.5-0.41,0.91-0.91,0.91l0,0
					C196.47,39.32,196.06,38.91,196.06,38.4z M192.38,38.4c0-0.5,0.41-0.91,0.91-0.91l0,0c0.51,0,0.91,0.41,0.91,0.91l0,0
					c0,0.5-0.41,0.91-0.91,0.91l0,0C192.79,39.32,192.38,38.91,192.38,38.4z M188.71,38.4c0-0.5,0.41-0.91,0.91-0.91l0,0
					c0.5,0,0.91,0.41,0.91,0.91l0,0c0,0.5-0.41,0.91-0.91,0.91l0,0C189.12,39.32,188.71,38.91,188.71,38.4z M185.04,38.4
					c0-0.5,0.41-0.91,0.91-0.91l0,0c0.5,0,0.91,0.41,0.91,0.91l0,0c0,0.5-0.41,0.91-0.91,0.91l0,0
					C185.44,39.32,185.04,38.91,185.04,38.4z M181.36,38.4c0-0.5,0.41-0.91,0.91-0.91l0,0c0.5,0,0.91,0.41,0.91,0.91l0,0
					c0,0.5-0.41,0.91-0.91,0.91l0,0C181.77,39.32,181.36,38.91,181.36,38.4z M177.68,38.4c0-0.5,0.41-0.91,0.91-0.91l0,0
					c0.51,0,0.92,0.41,0.92,0.91l0,0c0,0.5-0.41,0.91-0.92,0.91l0,0C178.09,39.32,177.68,38.91,177.68,38.4z M174.01,38.4
					c0-0.5,0.41-0.91,0.91-0.91l0,0c0.5,0,0.91,0.41,0.91,0.91l0,0c0,0.5-0.41,0.91-0.91,0.91l0,0
					C174.42,39.32,174.01,38.91,174.01,38.4z M170.33,38.4c0-0.5,0.41-0.91,0.91-0.91l0,0c0.5,0,0.91,0.41,0.91,0.91l0,0
					c0,0.5-0.41,0.91-0.91,0.91l0,0C170.74,39.32,170.33,38.91,170.33,38.4z M166.66,38.4c0-0.5,0.41-0.91,0.91-0.91l0,0
					c0.51,0,0.91,0.41,0.91,0.91l0,0c0,0.5-0.41,0.91-0.91,0.91l0,0C167.07,39.32,166.66,38.91,166.66,38.4z M162.98,38.4
					c0-0.5,0.41-0.91,0.91-0.91l0,0c0.51,0,0.91,0.41,0.91,0.91l0,0c0,0.5-0.41,0.91-0.91,0.91l0,0
					C163.39,39.32,162.98,38.91,162.98,38.4z M159.31,38.4c0-0.5,0.41-0.91,0.91-0.91l0,0c0.5,0,0.91,0.41,0.91,0.91l0,0
					c0,0.5-0.41,0.91-0.91,0.91l0,0C159.72,39.32,159.31,38.91,159.31,38.4z M155.63,38.4c0-0.5,0.41-0.91,0.91-0.91l0,0
					c0.5,0,0.91,0.41,0.91,0.91l0,0c0,0.5-0.41,0.91-0.91,0.91l0,0C156.04,39.32,155.63,38.91,155.63,38.4z M151.96,38.4
					c0-0.5,0.41-0.91,0.92-0.91l0,0c0.5,0,0.91,0.41,0.91,0.91l0,0c0,0.5-0.41,0.91-0.91,0.91l0,0
					C152.37,39.32,151.96,38.91,151.96,38.4z M148.28,38.4c0-0.5,0.41-0.91,0.91-0.91l0,0c0.51,0,0.91,0.41,0.91,0.91l0,0
					c0,0.5-0.41,0.91-0.91,0.91l0,0C148.69,39.32,148.28,38.91,148.28,38.4z M144.61,38.4c0-0.5,0.41-0.91,0.91-0.91l0,0
					c0.5,0,0.91,0.41,0.91,0.91l0,0c0,0.5-0.41,0.91-0.91,0.91l0,0C145.02,39.32,144.61,38.91,144.61,38.4z M140.93,38.4
					c0-0.5,0.41-0.91,0.91-0.91l0,0c0.5,0,0.91,0.41,0.91,0.91l0,0c0,0.5-0.41,0.91-0.91,0.91l0,0
					C141.34,39.32,140.93,38.91,140.93,38.4z M137.26,38.4c0-0.5,0.41-0.91,0.91-0.91l0,0c0.5,0,0.91,0.41,0.91,0.91l0,0
					c0,0.5-0.41,0.91-0.91,0.91l0,0C137.67,39.32,137.26,38.91,137.26,38.4z M133.58,38.4c0-0.5,0.41-0.91,0.91-0.91l0,0
					c0.5,0,0.91,0.41,0.91,0.91l0,0c0,0.5-0.41,0.91-0.91,0.91l0,0C133.99,39.32,133.58,38.91,133.58,38.4z M129.91,38.4
					c0-0.5,0.41-0.91,0.91-0.91l0,0c0.51,0,0.91,0.41,0.91,0.91l0,0c0,0.5-0.41,0.91-0.91,0.91l0,0
					C130.32,39.32,129.91,38.91,129.91,38.4z M126.23,38.4c0-0.5,0.41-0.91,0.91-0.91l0,0c0.5,0,0.91,0.41,0.91,0.91l0,0
					c0,0.5-0.41,0.91-0.91,0.91l0,0C126.64,39.32,126.23,38.91,126.23,38.4z M122.56,38.4c0-0.5,0.41-0.91,0.91-0.91l0,0
					c0.5,0,0.92,0.41,0.92,0.91l0,0c0,0.5-0.41,0.91-0.92,0.91l0,0C122.97,39.32,122.56,38.91,122.56,38.4z M118.88,38.4
					c0-0.5,0.41-0.91,0.91-0.91l0,0c0.5,0,0.91,0.41,0.91,0.91l0,0c0,0.5-0.41,0.91-0.91,0.91l0,0
					C119.29,39.32,118.88,38.91,118.88,38.4z M115.21,38.4c0-0.5,0.41-0.91,0.91-0.91l0,0c0.51,0,0.91,0.41,0.91,0.91l0,0
					c0,0.5-0.41,0.91-0.91,0.91l0,0C115.62,39.32,115.21,38.91,115.21,38.4z M111.53,38.4c0-0.5,0.41-0.91,0.91-0.91l0,0
					c0.5,0,0.91,0.41,0.91,0.91l0,0c0,0.5-0.41,0.91-0.91,0.91l0,0C111.94,39.32,111.53,38.91,111.53,38.4z M107.86,38.4
					c0-0.5,0.41-0.91,0.92-0.91l0,0c0.5,0,0.91,0.41,0.91,0.91l0,0c0,0.5-0.41,0.91-0.91,0.91l0,0
					C108.26,39.32,107.86,38.91,107.86,38.4z M104.18,38.4c0-0.5,0.41-0.91,0.91-0.91l0,0c0.51,0,0.91,0.41,0.91,0.91l0,0
					c0,0.5-0.41,0.91-0.91,0.91l0,0C104.59,39.32,104.18,38.91,104.18,38.4z M100.5,38.4c0-0.5,0.41-0.91,0.91-0.91l0,0
					c0.5,0,0.91,0.41,0.91,0.91l0,0c0,0.5-0.41,0.91-0.91,0.91l0,0C100.91,39.32,100.5,38.91,100.5,38.4z M96.83,38.4
					c0-0.5,0.41-0.91,0.92-0.91l0,0c0.5,0,0.91,0.41,0.91,0.91l0,0c0,0.5-0.41,0.91-0.91,0.91l0,0
					C97.24,39.32,96.83,38.91,96.83,38.4z M93.15,38.4c0-0.5,0.41-0.91,0.91-0.91l0,0c0.5,0,0.91,0.41,0.91,0.91l0,0
					c0,0.5-0.41,0.91-0.91,0.91l0,0C93.56,39.32,93.15,38.91,93.15,38.4z M89.48,38.4c0-0.5,0.41-0.91,0.91-0.91l0,0
					c0.51,0,0.91,0.41,0.91,0.91l0,0c0,0.5-0.41,0.91-0.91,0.91l0,0C89.89,39.32,89.48,38.91,89.48,38.4z M85.8,38.4
					c0-0.5,0.41-0.91,0.91-0.91l0,0c0.5,0,0.91,0.41,0.91,0.91l0,0c0,0.5-0.41,0.91-0.91,0.91l0,0C86.21,39.32,85.8,38.91,85.8,38.4
					z M82.13,38.4c0-0.5,0.41-0.91,0.91-0.91l0,0c0.5,0,0.91,0.41,0.91,0.91l0,0c0,0.5-0.41,0.91-0.91,0.91l0,0
					C82.54,39.32,82.13,38.91,82.13,38.4z M78.45,38.4c0-0.5,0.41-0.91,0.91-0.91l0,0c0.5,0,0.91,0.41,0.91,0.91l0,0
					c0,0.5-0.41,0.91-0.91,0.91l0,0C78.86,39.32,78.45,38.91,78.45,38.4z M74.78,38.4c0-0.5,0.41-0.91,0.91-0.91l0,0
					c0.51,0,0.91,0.41,0.91,0.91l0,0c0,0.5-0.41,0.91-0.91,0.91l0,0C75.19,39.32,74.78,38.91,74.78,38.4z M71.1,38.4
					c0-0.5,0.41-0.91,0.91-0.91l0,0c0.51,0,0.91,0.41,0.91,0.91l0,0c0,0.5-0.41,0.91-0.91,0.91l0,0
					C71.51,39.32,71.1,38.91,71.1,38.4z M67.43,38.4c0-0.5,0.41-0.92,0.91-0.92l0,0c0.51,0,0.92,0.41,0.92,0.91l0,0
					c0,0.5-0.41,0.91-0.91,0.92l0,0C67.84,39.32,67.43,38.91,67.43,38.4z"/>
				<path class="st308" d="M51.8,125.45c-0.24,0-0.48-0.1-0.65-0.27c-0.17-0.17-0.27-0.41-0.27-0.65c0-0.24,0.1-0.48,0.27-0.65
					c0.34-0.34,0.95-0.34,1.29,0c0.17,0.17,0.27,0.41,0.27,0.65c0,0.24-0.1,0.48-0.27,0.65C52.28,125.35,52.04,125.45,51.8,125.45z"
					/>
			</g>
		</g>
		<g>
			<g>
				<path class="st308" d="M308.49,66.94c-0.24,0-0.48-0.1-0.65-0.27c-0.17-0.17-0.27-0.41-0.27-0.65c0-0.24,0.1-0.48,0.27-0.65
					c0.34-0.34,0.95-0.34,1.29,0c0.17,0.17,0.27,0.41,0.27,0.65c0,0.24-0.1,0.48-0.27,0.65C308.97,66.85,308.73,66.94,308.49,66.94z
					"/>
				<path class="st308" d="M307.58,62.54c0-0.51,0.41-0.92,0.91-0.92l0,0c0.51,0,0.92,0.41,0.92,0.92l0,0c0,0.5-0.41,0.91-0.92,0.91
					l0,0C307.99,63.46,307.58,63.05,307.58,62.54z M307.58,59.05c0-0.51,0.41-0.91,0.91-0.91l0,0c0.51,0,0.92,0.41,0.92,0.91l0,0
					c0,0.5-0.41,0.91-0.92,0.91l0,0C307.99,59.97,307.58,59.56,307.58,59.05z"/>
				<path class="st308" d="M308.49,56.48c-0.24,0-0.48-0.1-0.65-0.27c-0.17-0.17-0.27-0.41-0.27-0.65c0-0.24,0.1-0.48,0.27-0.65
					c0.34-0.34,0.95-0.34,1.29,0c0.17,0.17,0.27,0.4,0.27,0.65c0,0.24-0.1,0.48-0.27,0.65C308.97,56.38,308.73,56.48,308.49,56.48z"
					/>
			</g>
		</g>
	</g>
	<g>
		<polygon class="st319" points="298.51,142.09 295.14,143.59 297.03,148.9 300.18,147.12 		"/>
		<g>
			<path class="st310" d="M300.44,159.34l13.79-1.48c0.69-0.07,1.13-0.69,0.98-1.38l-5.02-22.35c-0.15-0.68-0.84-1.18-1.54-1.11
				l-13.79,1.48c-0.69,0.07-1.13,0.69-0.98,1.38l5.02,22.35C299.06,158.91,299.75,159.41,300.44,159.34z"/>
			<path class="st308" d="M300.65,159.31l13.79-1.48c0.69-0.07,1.13-0.69,0.98-1.38l-5.02-22.35c-0.15-0.68-0.84-1.18-1.54-1.11
				l-13.79,1.48c-0.69,0.07-1.13,0.69-0.98,1.38l5.02,22.35C299.27,158.89,299.96,159.39,300.65,159.31z"/>
			<path class="st311" d="M299.55,157.98l15.35-1.64c0.17-0.02,0.27-0.17,0.24-0.33l-4.8-21.37c-0.04-0.17-0.2-0.28-0.37-0.27
				l-15.35,1.64c-0.17,0.02-0.27,0.17-0.24,0.33l4.8,21.37C299.22,157.88,299.38,158,299.55,157.98z"/>
			<g>
				<path class="st308" d="M305.83,148.72c-0.46,0-0.93-0.08-1.35-0.25c-0.43-0.16-0.83-0.41-1.16-0.7
					c-0.34-0.29-0.61-0.64-0.8-1.01c-0.14-0.26-0.24-0.53-0.3-0.79l0.61-0.07l-1.65-1.91l-0.73,2.16l0.64-0.07
					c0.16,0.4,0.38,0.78,0.65,1.11c0.34,0.43,0.76,0.8,1.22,1.07c0.46,0.28,0.96,0.47,1.45,0.56c0.5,0.09,0.99,0.09,1.45-0.01
					c0.02-0.01,0.04-0.03,0.04-0.05C305.89,148.74,305.86,148.72,305.83,148.72z"/>
				<path class="st308" d="M308.29,145.6c-0.16-0.4-0.38-0.78-0.65-1.11c-0.34-0.43-0.76-0.8-1.22-1.07
					c-0.46-0.28-0.96-0.47-1.45-0.56c-0.5-0.09-0.99-0.09-1.45,0.01c-0.02,0.01-0.04,0.03-0.04,0.05c0,0.03,0.03,0.05,0.06,0.05
					c0.46,0,0.93,0.08,1.35,0.25c0.43,0.16,0.83,0.41,1.16,0.7c0.34,0.29,0.61,0.64,0.8,1.01c0.14,0.26,0.24,0.53,0.3,0.79
					l-0.61,0.07l1.65,1.91l0.73-2.16L308.29,145.6z"/>
				<linearGradient id="SVGID_10_" gradientUnits="userSpaceOnUse" x1="300.4471" y1="146.4449" x2="305.8939" y2="146.4449">
					<stop  offset="0" style="stop-color:#00C0F3"/>
					<stop  offset="1" style="stop-color:#00C0F3;stop-opacity:0"/>
				</linearGradient>
				<path style="fill:url(#SVGID_10_);" d="M305.83,148.72c-0.46,0-0.93-0.08-1.35-0.25c-0.43-0.16-0.83-0.41-1.16-0.7
					c-0.34-0.29-0.61-0.64-0.8-1.01c-0.14-0.26-0.24-0.53-0.3-0.79l0.61-0.07l-1.65-1.91l-0.73,2.16l0.64-0.07
					c0.16,0.4,0.38,0.78,0.65,1.11c0.34,0.43,0.76,0.8,1.22,1.07c0.46,0.28,0.96,0.47,1.45,0.56c0.5,0.09,0.99,0.09,1.45-0.01
					c0.02-0.01,0.04-0.03,0.04-0.05C305.89,148.74,305.86,148.72,305.83,148.72z"/>
				<linearGradient id="SVGID_12_" gradientUnits="userSpaceOnUse" x1="303.4784" y1="145.2374" x2="308.9251" y2="145.2374">
					<stop  offset="0" style="stop-color:#00C0F3"/>
					<stop  offset="1" style="stop-color:#00C0F3;stop-opacity:0"/>
				</linearGradient>
				<path style="fill:url(#SVGID_12_);" d="M308.29,145.6c-0.16-0.4-0.38-0.78-0.65-1.11c-0.34-0.43-0.76-0.8-1.22-1.07
					c-0.46-0.28-0.96-0.47-1.45-0.56c-0.5-0.09-0.99-0.09-1.45,0.01c-0.02,0.01-0.04,0.03-0.04,0.05c0,0.03,0.03,0.05,0.06,0.05
					c0.46,0,0.93,0.08,1.35,0.25c0.43,0.16,0.83,0.41,1.16,0.7c0.34,0.29,0.61,0.64,0.8,1.01c0.14,0.26,0.24,0.53,0.3,0.79
					l-0.61,0.07l1.65,1.91l0.73-2.16L308.29,145.6z"/>
				<g class="st314">
					<path class="st211" d="M298.19,135.63l-1.34,11.68v0.01l2.34,10.39c0.04,0.16,0.2,0.28,0.37,0.27l1.74-0.18l2.61-22.78
						L298.19,135.63z"/>
					<polygon class="st211" points="305.39,134.86 302.77,157.63 305.82,157.31 308.8,134.5 					"/>
				</g>
			</g>
			<path class="st1" d="M303.29,134.18l-2.39,0.26c-0.09,0.01-0.14,0.09-0.12,0.17l0,0c0.02,0.08,0.1,0.15,0.19,0.14l2.39-0.26
				c0.09-0.01,0.14-0.09,0.12-0.17l0,0C303.46,134.24,303.38,134.17,303.29,134.18z"/>
		</g>
		<path class="st319" d="M347.1,141.18c2.02,3.33,3.83,6.66,5.58,10.1c1.72,3.44,3.34,6.95,4.77,10.62c0.34,0.94,0.69,1.85,1,2.82
			l0.24,0.72l0.12,0.36l0.08,0.28l0.1,0.39c0.12,0.58,0.23,1.32,0.04,2.28c-0.16,0.96-0.81,2.06-1.55,2.65
			c-0.73,0.62-1.41,0.87-1.95,1.04c-0.54,0.16-0.98,0.21-1.39,0.24c-0.79,0.05-1.44,0.01-2.04-0.06c-1.2-0.14-2.22-0.39-3.23-0.67
			c-3.96-1.15-7.43-2.74-10.88-4.62l1.49-3.83c3.6,0.76,7.3,1.59,10.71,2.02c0.84,0.1,1.68,0.16,2.36,0.15
			c0.34-0.01,0.64-0.04,0.78-0.09c0.05-0.02,0.09-0.05-0.01-0.04c-0.09,0.02-0.33,0.07-0.71,0.37c-0.38,0.29-0.78,0.96-0.86,1.45
			c-0.1,0.5-0.05,0.76-0.03,0.88c0,0.02,0,0.04,0,0.05l0.01,0.02l-0.03-0.08l-0.12-0.3l-0.25-0.61c-0.31-0.81-0.71-1.63-1.06-2.44
			c-1.5-3.27-3.2-6.54-4.95-9.79c-1.74-3.24-3.56-6.52-5.36-9.69L347.1,141.18z"/>
		<path class="st319" d="M339.97,163.27l-3.78-1.45l-0.93,6.26c0,0,2.99,0.8,5.07-0.86L339.97,163.27z"/>
		<polygon class="st319" points="330.79,160.13 331.05,165.75 335.26,168.08 336.19,161.82 		"/>
		<path class="st310" d="M318.82,120.99c0.11,0.43-0.03,0.83-0.31,0.9c-0.28,0.07-0.6-0.22-0.7-0.65c-0.11-0.43,0.03-0.83,0.31-0.9
			C318.39,120.27,318.71,120.56,318.82,120.99z"/>
		<path class="st322" d="M318.83,121.81c0,0-0.35,2.72-1.12,4.18c0.94,0.51,2.14-0.14,2.14-0.14L318.83,121.81z"/>
		<path class="st310" d="M319.78,118.21c0.06-0.03,0.1-0.08,0.13-0.14c0.05-0.13-0.01-0.28-0.15-0.34
			c-1.34-0.53-2.32,0.16-2.36,0.19c-0.12,0.08-0.14,0.25-0.06,0.36c0.08,0.12,0.25,0.14,0.36,0.06l0,0
			c0.03-0.02,0.81-0.55,1.87-0.13C319.64,118.25,319.72,118.24,319.78,118.21z"/>
		<path class="st319" d="M332,123.3c1.12,4.07,0.63,9.81,3.96,12.48c0,0-0.3,4.07-7.74,4.07c-8.19,0-4.71-4.07-4.71-4.07
			c4.26-1.07,3.49-4.38,2.1-7.5L332,123.3z"/>
		<path class="st310" d="M336.26,136.68c0.59-0.78,1.24-1.68-0.1-1.96c-1.48-0.31-9.59-0.62-12.39-0.04c-2.8,0.58-2,2.17-2,2.17
			L336.26,136.68z"/>
		<path class="st323" d="M360.01,321.65c-0.55,0.12-1.1,0.15-1.36-0.07c-0.11-0.09-0.22-0.28-0.13-0.6c0.05-0.17,0.16-0.3,0.33-0.38
			c0.74-0.35,2.44,0.34,2.51,0.37c0.05,0.02,0.08,0.06,0.08,0.12c0,0.05-0.03,0.1-0.07,0.12
			C361.12,321.32,360.57,321.53,360.01,321.65z M359.12,320.78c-0.06,0.01-0.11,0.03-0.15,0.05c-0.1,0.05-0.17,0.12-0.2,0.22
			c-0.07,0.23,0.02,0.31,0.05,0.33c0.29,0.25,1.39,0.02,2.16-0.29C360.46,320.91,359.61,320.67,359.12,320.78z"/>
		<path class="st323" d="M361.35,321.21c-0.02,0-0.04,0-0.06,0c-0.62-0.18-1.94-1.12-1.96-1.74c0-0.11,0.04-0.32,0.33-0.42
			c0.19-0.07,0.38-0.05,0.58,0.05c0.73,0.37,1.2,1.89,1.21,1.96c0.01,0.05,0,0.1-0.03,0.13C361.4,321.19,361.37,321.2,361.35,321.21
			z M359.8,319.27c-0.02,0-0.04,0.01-0.06,0.02c-0.16,0.06-0.16,0.13-0.16,0.17c0.01,0.37,0.88,1.11,1.53,1.41
			c-0.16-0.44-0.53-1.3-1-1.54C360.01,319.26,359.9,319.25,359.8,319.27z"/>
		<path class="st323" d="M320.56,324.34c-0.7,0-1.38-0.1-1.61-0.41c-0.08-0.11-0.14-0.3,0.01-0.57c0.09-0.15,0.22-0.25,0.41-0.3
			c0.91-0.25,2.83,0.84,2.91,0.89c0.05,0.03,0.07,0.08,0.06,0.13c-0.01,0.05-0.05,0.1-0.1,0.11
			C321.89,324.25,321.21,324.34,320.56,324.34z M319.69,323.27c-0.09,0-0.18,0.01-0.25,0.03c-0.12,0.03-0.2,0.09-0.25,0.18
			c-0.09,0.16-0.06,0.24-0.03,0.29c0.25,0.35,1.64,0.36,2.66,0.22C321.31,323.73,320.33,323.27,319.69,323.27z"/>
		<path class="st323" d="M322.21,324.18c-0.02,0-0.04,0-0.05-0.01c-0.66-0.3-1.97-1.48-1.87-2.1c0.02-0.15,0.13-0.33,0.48-0.36
			c0.27-0.03,0.51,0.05,0.72,0.22c0.7,0.57,0.84,2.05,0.85,2.11c0,0.05-0.02,0.09-0.05,0.12
			C322.27,324.18,322.24,324.18,322.21,324.18z M320.88,321.96c-0.03,0-0.05,0-0.08,0c-0.23,0.02-0.25,0.12-0.25,0.15
			c-0.06,0.37,0.83,1.3,1.5,1.71c-0.07-0.43-0.27-1.31-0.72-1.69C321.19,322.02,321.04,321.96,320.88,321.96z"/>
		<polygon class="st319" points="328.24,324.05 322.76,324.05 322.21,311.36 327.69,311.36 		"/>
		<polygon class="st319" points="367.46,319.75 362.1,320.91 356.72,309.09 362.08,307.93 		"/>
		<path class="st310" d="M361.59,320.37l6.02-1.3c0.22-0.05,0.44,0.06,0.54,0.27l2.09,4.53c0.22,0.47-0.07,1.02-0.58,1.12
			c-2.11,0.42-3.16,0.52-5.8,1.09c-1.63,0.35-5.3,1.25-7.55,1.73c-2.2,0.48-3.02-1.67-2.15-2.07c3.93-1.8,5.57-3.38,6.64-4.85
			C360.98,320.63,361.27,320.44,361.59,320.37z"/>
		<path class="st310" d="M322.79,323.42h5.98c0.22,0,0.42,0.16,0.47,0.37l1.08,4.87c0.11,0.5-0.27,0.98-0.79,0.97
			c-2.16-0.04-5.28-0.16-7.99-0.16c-3.17,0-5.91,0.17-9.63,0.17c-2.25,0-2.87-2.27-1.93-2.48c4.29-0.94,7.79-1.04,11.49-3.32
			C321.88,323.6,322.32,323.42,322.79,323.42z"/>
		<path class="st319" d="M321.1,143.3c-1.1,2.62-2.3,5.01-3.56,7.47c-1.28,2.43-2.65,4.83-4.17,7.17c-1.52,2.35-3.17,4.65-5.19,6.86
			c-1.02,1.1-2.11,2.19-3.46,3.2c-1.35,0.98-2.96,2-5.26,2.41l-1.18,0.21l-1.02-0.49c-0.79-0.38-1.5-0.94-2.03-1.53
			c-0.53-0.6-0.9-1.22-1.17-1.81c-0.52-1.18-0.71-2.21-0.82-3.17c-0.2-1.91-0.02-3.56,0.21-5.16c0.26-1.59,0.62-3.12,1.06-4.6
			c0.47-1.49,0.94-2.91,1.58-4.37l3.97,1.09c-0.11,1.37-0.25,2.82-0.3,4.21c-0.07,1.4-0.12,2.79-0.07,4.11
			c0.03,1.32,0.17,2.61,0.42,3.61c0.12,0.49,0.3,0.89,0.43,1.03c0.15,0.16,0.09-0.08-0.19-0.25l-2.2-0.28
			c0.33-0.09,1.07-0.48,1.8-1.12c0.74-0.64,1.52-1.44,2.26-2.33c1.48-1.79,2.87-3.87,4.18-6.01c1.3-2.15,2.54-4.39,3.71-6.67
			c1.19-2.25,2.32-4.64,3.35-6.88L321.1,143.3z"/>
		<g>
			<path class="st323" d="M344.94,137.02c5.14,1.18,13.76,26.68,13.76,26.68l-8.39,2.79c0,0-8.56-12.69-11.47-18.8
				C335.8,141.28,339.69,135.82,344.94,137.02z"/>
			<path class="st324" d="M344.94,137.02c5.14,1.18,13.76,26.68,13.76,26.68l-8.39,2.79c0,0-8.56-12.69-11.47-18.8
				C335.8,141.28,339.69,135.82,344.94,137.02z"/>
		</g>
		<path class="st314" d="M342.64,145.8c-1.36-1.63-2.27,0.56-2.01,5.3c0.83,1.47,1.78,3.07,2.76,4.66
			C344.46,151.03,344.12,147.91,342.64,145.8z"/>
		<g>
			<g>
				<path class="st310" d="M349.72,164.89c1.61-0.62,5.23-1.9,8.47-2.31c0.48-0.06,0.95,0.22,1.12,0.67c0.54,1.39,1,3.84,0.54,4.67
					c-0.56,1.02-8.19,2.49-9.23,1.89c-0.72-0.41-1.29-2.44-1.57-3.65C348.93,165.63,349.21,165.09,349.72,164.89z"/>
			</g>
		</g>
		<g>
			<path class="st323" d="M314.24,137.3c0,0-5.83,6.59-0.32,47.36c8.83,0,25.01,0,29.31,0c0.2-4.5-2.63-26.45,1.71-47.65
				c0,0-5.02-1.01-9.81-1.24c-3.75-0.18-9.17-0.3-12.46,0C318.33,136.18,314.24,137.3,314.24,137.3z"/>
			<path class="st324" d="M314.24,137.3c0,0-5.83,6.59-0.32,47.36c8.83,0,25.01,0,29.31,0c0.2-4.5-2.63-26.45,1.71-47.65
				c0,0-5.02-1.01-9.81-1.24c-3.75-0.18-9.17-0.3-12.46,0C318.33,136.18,314.24,137.3,314.24,137.3z"/>
		</g>
		<path class="st314" d="M317.79,151.37c-0.49-3.29-3.6-2.56-6.11-1.37c-0.2,3.97-0.18,9.12,0.27,15.77
			C314.04,164.8,318.49,156.1,317.79,151.37z"/>
		<g>
			<path class="st323" d="M320.98,141.27c3.39,6.75-12.52,25.44-12.52,25.44l-5.68-9.32c0,0,5.14-8.21,7.24-14.66
				C312.61,134.77,318.4,136.13,320.98,141.27z"/>
			<path class="st324" d="M320.98,141.27c3.39,6.75-12.52,25.44-12.52,25.44l-5.68-9.32c0,0,5.14-8.21,7.24-14.66
				C312.61,134.77,318.4,136.13,320.98,141.27z"/>
		</g>
		<g>
			<path class="st310" d="M303.41,156.54c1.41,1.62,5.48,6.36,6.69,8.66c0.12,0.22,0.09,0.49-0.05,0.7
				c-0.83,1.14-3.16,3.05-4.3,3.04c-1.26-0.01-7.01-6.53-6.93-7.74c0.06-0.94,2.49-3.56,3.59-4.69
				C302.68,156.22,303.14,156.23,303.41,156.54z"/>
		</g>
		<path class="st319" d="M299.74,151.9l0.29-0.99c0.44-1.51-0.04-3.13-1.23-4.16l-3.65-3.16c0,0-1.71,7.01,1.48,9.41L299.74,151.9z"
			/>
		<path class="st319" d="M297.08,146.52l0.85-0.67l-0.09-1.93l0.59-1.24l0.69,1.56l0.89,2.02c0.16,0.36,0.24,0.76,0.23,1.16
			l-0.06,2.25L297.08,146.52z"/>
		<g>
			<polygon class="st1" points="322.21,311.37 322.49,317.91 327.98,317.91 327.7,311.37 			"/>
			<polygon class="st1" points="362.08,307.94 356.73,309.1 359.5,315.19 364.86,314.03 			"/>
		</g>
		<path class="st319" d="M332.88,116.45c1.01,5.34,1.88,8.42-0.09,11.79c-2.97,5.08-10.07,4.32-12.66-0.62
			c-2.33-4.44-3.6-12.43,1.02-15.83C325.69,108.44,331.86,111.11,332.88,116.45z"/>
		<path class="st310" d="M322.43,120.71c-1.69-1.69-5.07-2.25-5.6-6.02c-0.53-3.77,1.79-6.09,5.6-7.2
			c3.81-1.1,11.65-1.87,11.27,2.02c2.82,0,3.92,2.86,2.48,6.13c-1.45,3.28-3.02,8.57-2.22,11.46c-1.59,2.36-7.8,2.24-8.72-0.92
			C324.34,123.03,323.42,121.7,322.43,120.71z"/>
		<path class="st310" d="M318.31,106.6c0,0-3.25,1.15-3.83,5.6s2.84,5.08,4.67,4.2l0.27-5.45
			C317.06,111.15,318.31,106.6,318.31,106.6z"/>
		<path class="st310" d="M323.12,106.18c0,0-3.44-0.21-5.71,3.67c-2.26,3.88,0.64,5.78,2.67,5.69l2.37-4.91
			C320.2,109.89,323.12,106.18,323.12,106.18z"/>
		<path class="st310" d="M332.95,109.99c0,0,2.34-2.66,4.15-1.17C336.23,108.87,333.96,109.33,332.95,109.99z"/>
		<path class="st319" d="M324.65,120.7c0.28,1.4-0.02,2.86-0.57,3.91c-0.82,1.58-2.24,1.1-2.85-0.4c-0.55-1.35-0.78-3.79,0.45-4.86
			C322.89,118.28,324.33,119.1,324.65,120.7z"/>
		<path class="st310" d="M324.32,184.67c0,0,6.22,41.88,9.63,57.57c3.74,17.18,22.79,72.26,22.79,72.26l9.81-2.12
			c0,0-14.02-51.57-16.16-68.58c-2.32-18.46-7.16-59.12-7.16-59.12H324.32z"/>
		<path class="st323" d="M354.39,311.22c-0.04,0.01,1.83,3.55,1.83,3.55l11.04-2.39l-0.93-3.32L354.39,311.22z"/>
		<path class="st314" d="M328.25,199.59c7.19,1.41,6.43,28.23,5.56,42.02c-2.07-9.75-5.11-28.51-7.18-41.82
			C327.11,199.54,327.64,199.47,328.25,199.59z"/>
		<path class="st310" d="M313.92,184.67c0,0-0.75,40.97-0.16,57.68c0.62,17.38,6.69,74.29,6.69,74.29h9.28c0,0,0.34-55.9,0.75-72.97
			c0.45-18.61,2.7-59.01,2.7-59.01H313.92z"/>
		<path class="st325" d="M322.39,309.97C322.39,309.97,322.39,309.97,322.39,309.97c0.06-0.01,0.1-0.05,0.09-0.1
			c-1.64-15.74-5.49-53.84-5.98-67.53c-0.5-13.98-0.05-45.27,0.1-54.52c0-0.05-0.04-0.09-0.09-0.09c0,0,0,0,0,0
			c-0.05,0-0.09,0.04-0.09,0.09c-0.15,9.26-0.6,40.55-0.1,54.53c0.49,13.69,4.35,51.79,5.98,67.54
			C322.3,309.94,322.34,309.97,322.39,309.97z"/>
		<path class="st323" d="M318.67,312.94c-0.04,0,0.52,3.85,0.52,3.85h11.29l0.31-3.44L318.67,312.94z"/>
	</g>
</g>
</svg>
