<?xml version="1.0" encoding="utf-8"?>
<!-- Generator: Adobe Illustrator 25.2.1, SVG Export Plug-In . SVG Version: 6.00 Build 0)  -->
<svg version="1.1" id="Layer_1" xmlns="http://www.w3.org/2000/svg" xmlns:xlink="http://www.w3.org/1999/xlink" x="0px" y="0px"
	 viewBox="0 0 128.51 124" style="enable-background:new 0 0 128.51 124;" xml:space="preserve">
<style type="text/css">
	.st0{fill:#002680;}
	.st1{opacity:0.65;}
	.st2{fill:url(#SVGID_1_);}
	.st3{fill:url(#SVGID_2_);}
	.st4{fill:#FFFFFF;}
	.st5{fill:url(#SVGID_3_);}
	.st6{fill:url(#SVGID_4_);}
	.st7{fill:url(#SVGID_5_);}
	.st8{fill:url(#SVGID_6_);}
	.st9{fill:url(#SVGID_7_);}
	.st10{fill:url(#SVGID_8_);}
	.st11{fill:url(#SVGID_9_);}
	.st12{fill:url(#SVGID_10_);}
	.st13{fill:url(#SVGID_11_);}
	.st14{fill:url(#SVGID_12_);}
	.st15{fill:url(#SVGID_13_);}
	.st16{fill:url(#SVGID_14_);}
	.st17{fill:url(#SVGID_15_);}
	.st18{fill:url(#SVGID_16_);}
	.st19{fill:url(#SVGID_17_);}
	.st20{fill:url(#SVGID_18_);}
	.st21{fill:url(#SVGID_19_);}
	.st22{fill:url(#SVGID_20_);}
	.st23{fill:url(#SVGID_21_);}
	.st24{fill:url(#SVGID_22_);}
	.st25{fill:url(#SVGID_23_);}
	.st26{fill:url(#SVGID_24_);}
	.st27{fill:url(#SVGID_25_);}
	.st28{fill:url(#SVGID_26_);}
	.st29{fill:url(#SVGID_27_);}
	.st30{fill:url(#SVGID_28_);}
	.st31{fill:url(#SVGID_29_);}
	.st32{fill:url(#SVGID_30_);}
	.st33{fill:url(#SVGID_31_);}
	.st34{fill:url(#SVGID_32_);}
	.st35{fill:url(#SVGID_33_);}
	.st36{fill:url(#SVGID_34_);}
	.st37{fill:url(#SVGID_35_);}
	.st38{fill:url(#SVGID_36_);}
	.st39{fill:url(#SVGID_37_);}
	.st40{fill:url(#SVGID_38_);}
	.st41{fill:url(#SVGID_39_);}
	.st42{fill:url(#SVGID_40_);}
	.st43{fill:url(#SVGID_41_);}
	.st44{fill:url(#SVGID_42_);}
	.st45{fill:url(#SVGID_43_);}
	.st46{fill:url(#SVGID_44_);}
	.st47{fill:url(#SVGID_45_);}
	.st48{fill:url(#SVGID_46_);}
	.st49{fill:url(#SVGID_47_);}
	.st50{fill:url(#SVGID_48_);}
	.st51{fill:url(#SVGID_49_);}
	.st52{fill:url(#SVGID_50_);}
	.st53{fill:url(#SVGID_51_);}
	.st54{fill:url(#SVGID_52_);}
	.st55{fill:url(#SVGID_53_);}
</style>
<g>
	<path class="st0" d="M101.36,61.31l-13.08-7.12c-0.05-0.03-0.11-0.03-0.17-0.04l0-25.13c0-2.4-1.96-4.35-4.36-4.35h-39
		c-1.16,0-2.26,0.45-3.08,1.28c-0.82,0.82-1.27,1.91-1.27,3.08V54.1l-4.7,0c0,0,0,0-0.01,0h-3.32c-3.11,0-5.64,2.53-5.64,5.64v4.51
		c0,3.11,2.54,5.64,5.64,5.64h3.31c0.01,0,0.01,0.01,0.02,0.01h4.7v25.08c0,2.4,1.96,4.35,4.36,4.35h39c2.4,0,4.35-1.96,4.35-4.36
		V69.85c0.06-0.02,0.12-0.01,0.17-0.04l13.08-7.12c0.25-0.14,0.41-0.4,0.41-0.69C101.77,61.71,101.61,61.45,101.36,61.31
		L101.36,61.31z M87.12,61.22H54.5c0.16-1.98,0.9-3.92,2.27-5.55h30.36L87.12,61.22z M58.4,54.1c3.42-2.54,8.16-2.56,11.65,0H58.4z
		 M83.97,54.1H72.48c-0.19-0.19-0.37-0.39-0.58-0.57c-4.65-4.2-11.85-3.84-16.06,0.79c-0.02,0.01-0.03,0.03-0.04,0.04l0,0
		c-1.93,2.14-2.85,4.81-2.88,7.49c-0.01,0.05-0.06,0.09-0.06,0.15c0,0.05,0.04,0.08,0.05,0.12c0.03,2.65,0.99,5.27,2.83,7.36
		c0.06,0.1,0.12,0.18,0.22,0.24c0.23,0.25,0.42,0.52,0.67,0.75c2.11,1.91,4.8,2.94,7.63,2.94c0.2,0,0.4,0,0.61-0.02
		c2.91-0.15,5.59-1.4,7.6-3.49h11.52v17.15H44.54V34.29h39.43L83.97,54.1z M58.47,69.9h11.67c-1.55,1.16-3.4,1.83-5.37,1.93
		C62.51,71.95,60.3,71.24,58.47,69.9z M56.79,68.33c-1.36-1.61-2.14-3.54-2.3-5.55h32.64v5.55H56.79z M88.71,56.21l7.34,4v3.59
		l-7.34,4V56.21z M40.4,55.67v12.66h-3.91V55.67H40.4z M28.3,64.26v-4.51c0-2.25,1.83-4.07,4.07-4.07h2.55v12.66h-2.55
		C30.13,68.33,28.31,66.5,28.3,64.26z M83.75,97.76H44.76c-1.54,0-2.79-1.25-2.79-2.79V29.02c0-0.75,0.29-1.45,0.81-1.97
		c0.53-0.53,1.23-0.82,1.97-0.82h39c1.54,0,2.79,1.25,2.79,2.79V54.1h-1V33.51c0-0.43-0.35-0.78-0.78-0.78h-41
		c-0.43,0-0.78,0.35-0.78,0.78v54.32c0,0.43,0.35,0.78,0.78,0.78h41c0.43,0,0.78-0.35,0.78-0.78l0-17.93h1v25.08
		C86.54,96.51,85.3,97.76,83.75,97.76L83.75,97.76z"/>
	<linearGradient id="SVGID_1_" gradientUnits="userSpaceOnUse" x1="136.1736" y1="58.534" x2="35.3129" y2="63.3948">
		<stop  offset="0" style="stop-color:#10BEF0"/>
		<stop  offset="1" style="stop-color:#10BEF0;stop-opacity:0"/>
	</linearGradient>
	<path class="st2" d="M101.36,61.31l-13.08-7.12c-0.05-0.03-0.11-0.03-0.17-0.04l0-25.13c0-2.4-1.96-4.35-4.36-4.35h-39
		c-1.16,0-2.26,0.45-3.08,1.28c-0.82,0.82-1.27,1.91-1.27,3.08V54.1l-4.7,0c0,0,0,0-0.01,0h-3.32c-3.11,0-5.64,2.53-5.64,5.64v4.51
		c0,3.11,2.54,5.64,5.64,5.64h3.31c0.01,0,0.01,0.01,0.02,0.01h4.7v25.08c0,2.4,1.96,4.35,4.36,4.35h39c2.4,0,4.35-1.96,4.35-4.36
		V69.85c0.06-0.02,0.12-0.01,0.17-0.04l13.08-7.12c0.25-0.14,0.41-0.4,0.41-0.69C101.77,61.71,101.61,61.45,101.36,61.31
		L101.36,61.31z M87.12,61.22H54.5c0.16-1.98,0.9-3.92,2.27-5.55h30.36L87.12,61.22z M58.4,54.1c3.42-2.54,8.16-2.56,11.65,0H58.4z
		 M83.97,54.1H72.48c-0.19-0.19-0.37-0.39-0.58-0.57c-4.65-4.2-11.85-3.84-16.06,0.79c-0.02,0.01-0.03,0.03-0.04,0.04l0,0
		c-1.93,2.14-2.85,4.81-2.88,7.49c-0.01,0.05-0.06,0.09-0.06,0.15c0,0.05,0.04,0.08,0.05,0.12c0.03,2.65,0.99,5.27,2.83,7.36
		c0.06,0.1,0.12,0.18,0.22,0.24c0.23,0.25,0.42,0.52,0.67,0.75c2.11,1.91,4.8,2.94,7.63,2.94c0.2,0,0.4,0,0.61-0.02
		c2.91-0.15,5.59-1.4,7.6-3.49h11.52v17.15H44.54V34.29h39.43L83.97,54.1z M58.47,69.9h11.67c-1.55,1.16-3.4,1.83-5.37,1.93
		C62.51,71.95,60.3,71.24,58.47,69.9z M56.79,68.33c-1.36-1.61-2.14-3.54-2.3-5.55h32.64v5.55H56.79z M88.71,56.21l7.34,4v3.59
		l-7.34,4V56.21z M40.4,55.67v12.66h-3.91V55.67H40.4z M28.3,64.26v-4.51c0-2.25,1.83-4.07,4.07-4.07h2.55v12.66h-2.55
		C30.13,68.33,28.31,66.5,28.3,64.26z M83.75,97.76H44.76c-1.54,0-2.79-1.25-2.79-2.79V29.02c0-0.75,0.29-1.45,0.81-1.97
		c0.53-0.53,1.23-0.82,1.97-0.82h39c1.54,0,2.79,1.25,2.79,2.79V54.1h-1V33.51c0-0.43-0.35-0.78-0.78-0.78h-41
		c-0.43,0-0.78,0.35-0.78,0.78v54.32c0,0.43,0.35,0.78,0.78,0.78h41c0.43,0,0.78-0.35,0.78-0.78l0-17.93h1v25.08
		C86.54,96.51,85.3,97.76,83.75,97.76L83.75,97.76z"/>
	<path class="st0" d="M55.78,30.44h16.95c0.43,0,0.78-0.35,0.78-0.78s-0.35-0.78-0.78-0.78H55.78c-0.43,0-0.78,0.35-0.78,0.78
		S55.35,30.44,55.78,30.44z"/>
	<path class="st0" d="M64.26,89.74c-1.86,0-3.37,1.51-3.37,3.37c0,1.86,1.51,3.37,3.37,3.37s3.37-1.51,3.37-3.37
		C67.63,91.25,66.12,89.74,64.26,89.74L64.26,89.74z M64.26,94.91c-0.99,0-1.8-0.81-1.8-1.8c0-0.99,0.81-1.8,1.8-1.8
		c0.99,0,1.8,0.81,1.8,1.8C66.06,94.1,65.25,94.91,64.26,94.91z"/>
	<linearGradient id="SVGID_2_" gradientUnits="userSpaceOnUse" x1="54.9954" y1="29.6597" x2="73.517" y2="29.6597">
		<stop  offset="0" style="stop-color:#10BEF0"/>
		<stop  offset="1" style="stop-color:#10BEF0;stop-opacity:0"/>
	</linearGradient>
	<path class="st3" d="M55.78,30.44h16.95c0.43,0,0.78-0.35,0.78-0.78s-0.35-0.78-0.78-0.78H55.78c-0.43,0-0.78,0.35-0.78,0.78
		S55.35,30.44,55.78,30.44z"/>
	<linearGradient id="SVGID_3_" gradientUnits="userSpaceOnUse" x1="60.8874" y1="93.109" x2="67.6263" y2="93.109">
		<stop  offset="0" style="stop-color:#10BEF0"/>
		<stop  offset="1" style="stop-color:#10BEF0;stop-opacity:0"/>
	</linearGradient>
	<path class="st5" d="M64.26,89.74c-1.86,0-3.37,1.51-3.37,3.37c0,1.86,1.51,3.37,3.37,3.37s3.37-1.51,3.37-3.37
		C67.63,91.25,66.12,89.74,64.26,89.74L64.26,89.74z M64.26,94.91c-0.99,0-1.8-0.81-1.8-1.8c0-0.99,0.81-1.8,1.8-1.8
		c0.99,0,1.8,0.81,1.8,1.8C66.06,94.1,65.25,94.91,64.26,94.91z"/>
	<path class="st0" d="M90.54,50.33c0.06,0.01,0.12,0.02,0.18,0.02c0.36,0,0.68-0.25,0.76-0.61l0.89-3.91
		c0.09-0.42-0.17-0.84-0.59-0.94c-0.42-0.09-0.84,0.17-0.94,0.59l-0.89,3.91C89.85,49.81,90.11,50.23,90.54,50.33L90.54,50.33z"/>
	<path class="st0" d="M93.79,52.58c0.26,0,0.51-0.13,0.66-0.36l2.18-3.36c0.24-0.36,0.13-0.85-0.23-1.08
		c-0.36-0.23-0.85-0.13-1.08,0.23l-2.18,3.36c-0.24,0.36-0.13,0.85,0.23,1.08C93.5,52.54,93.65,52.58,93.79,52.58L93.79,52.58z"/>
	<path class="st0" d="M95.51,56.28c0.15,0.2,0.39,0.31,0.62,0.31c0.17,0,0.33-0.05,0.47-0.16l3.2-2.42c0.34-0.26,0.41-0.75,0.15-1.1
		c-0.26-0.34-0.75-0.41-1.1-0.15l-3.2,2.42C95.32,55.45,95.25,55.94,95.51,56.28L95.51,56.28z"/>
	<path class="st0" d="M79.28,78.04c-0.24,0.36-0.13,0.85,0.23,1.08c0.13,0.08,0.28,0.13,0.43,0.13c0.26,0,0.51-0.13,0.66-0.36
		l2.18-3.36c0.24-0.36,0.13-0.85-0.23-1.08c-0.36-0.24-0.85-0.13-1.08,0.23L79.28,78.04z"/>
	<path class="st0" d="M77.51,75.25c0.17,0,0.33-0.05,0.47-0.16l3.2-2.42c0.34-0.26,0.41-0.75,0.15-1.1
		c-0.26-0.35-0.75-0.41-1.1-0.15l-3.2,2.42c-0.34,0.26-0.42,0.75-0.15,1.1C77.03,75.14,77.27,75.25,77.51,75.25z"/>
	<linearGradient id="SVGID_4_" gradientUnits="userSpaceOnUse" x1="92.6508" y1="45.4201" x2="89.6692" y2="49.8008">
		<stop  offset="0" style="stop-color:#10BEF0"/>
		<stop  offset="1" style="stop-color:#10BEF0;stop-opacity:0"/>
	</linearGradient>
	<path class="st6" d="M90.54,50.33c0.06,0.01,0.12,0.02,0.18,0.02c0.36,0,0.68-0.25,0.76-0.61l0.89-3.91
		c0.09-0.42-0.17-0.84-0.59-0.94c-0.42-0.09-0.84,0.17-0.94,0.59l-0.89,3.91C89.85,49.81,90.11,50.23,90.54,50.33L90.54,50.33z"/>
	<linearGradient id="SVGID_5_" gradientUnits="userSpaceOnUse" x1="96.4486" y1="47.8075" x2="93.313" y2="52.4144">
		<stop  offset="0" style="stop-color:#10BEF0"/>
		<stop  offset="1" style="stop-color:#10BEF0;stop-opacity:0"/>
	</linearGradient>
	<path class="st7" d="M93.79,52.58c0.26,0,0.51-0.13,0.66-0.36l2.18-3.36c0.24-0.36,0.13-0.85-0.23-1.08
		c-0.36-0.23-0.85-0.13-1.08,0.23l-2.18,3.36c-0.24,0.36-0.13,0.85,0.23,1.08C93.5,52.54,93.65,52.58,93.79,52.58L93.79,52.58z"/>
	<linearGradient id="SVGID_6_" gradientUnits="userSpaceOnUse" x1="99.2452" y1="52.3839" x2="96.2268" y2="56.8187">
		<stop  offset="0" style="stop-color:#10BEF0"/>
		<stop  offset="1" style="stop-color:#10BEF0;stop-opacity:0"/>
	</linearGradient>
	<path class="st8" d="M95.51,56.28c0.15,0.2,0.39,0.31,0.62,0.31c0.17,0,0.33-0.05,0.47-0.16l3.2-2.42c0.34-0.26,0.41-0.75,0.15-1.1
		c-0.26-0.34-0.75-0.41-1.1-0.15l-3.2,2.42C95.32,55.45,95.25,55.94,95.51,56.28L95.51,56.28z"/>
	<linearGradient id="SVGID_7_" gradientUnits="userSpaceOnUse" x1="82.5915" y1="74.4799" x2="79.4561" y2="79.0865">
		<stop  offset="0" style="stop-color:#10BEF0"/>
		<stop  offset="1" style="stop-color:#10BEF0;stop-opacity:0"/>
	</linearGradient>
	<path class="st9" d="M79.28,78.04c-0.24,0.36-0.13,0.85,0.23,1.08c0.13,0.08,0.28,0.13,0.43,0.13c0.26,0,0.51-0.13,0.66-0.36
		l2.18-3.36c0.24-0.36,0.13-0.85-0.23-1.08c-0.36-0.24-0.85-0.13-1.08,0.23L79.28,78.04z"/>
	<linearGradient id="SVGID_8_" gradientUnits="userSpaceOnUse" x1="80.6149" y1="71.0335" x2="77.5953" y2="75.4701">
		<stop  offset="0" style="stop-color:#10BEF0"/>
		<stop  offset="1" style="stop-color:#10BEF0;stop-opacity:0"/>
	</linearGradient>
	<path class="st10" d="M77.51,75.25c0.17,0,0.33-0.05,0.47-0.16l3.2-2.42c0.34-0.26,0.41-0.75,0.15-1.1
		c-0.26-0.35-0.75-0.41-1.1-0.15l-3.2,2.42c-0.34,0.26-0.42,0.75-0.15,1.1C77.03,75.14,77.27,75.25,77.51,75.25z"/>
</g>
</svg>
