<svg id="Layer_1" data-name="Layer 1" xmlns="http://www.w3.org/2000/svg" xmlns:xlink="http://www.w3.org/1999/xlink" viewBox="0 0 24 24"><defs><style>.cls-1{fill:url(#linear-gradient);}.cls-2{fill:url(#linear-gradient-2);}.cls-3{fill:url(#linear-gradient-3);}</style><linearGradient id="linear-gradient" x1="17.51" y1="13.42" x2="23" y2="13.42" gradientUnits="userSpaceOnUse"><stop offset="0" stop-color="#283376"/><stop offset="1" stop-color="#1c67a6"/></linearGradient><linearGradient id="linear-gradient-2" x1="4.03" y1="13.4" x2="16.31" y2="13.4" xlink:href="#linear-gradient"/><linearGradient id="linear-gradient-3" x1="0.7" y1="11.32" x2="17.26" y2="11.32" xlink:href="#linear-gradient"/></defs><path class="cls-1" d="M23,13.46l-.18.15-2,2c0,.06-.11.11-.2.2V14.47H17.51V12.38h3.1V11.05L23,13.41Z"/><path class="cls-2" d="M12.72,9.64l1.16-1.17,1.21,1.21-1.17,1.15a4.89,4.89,0,0,1,.69,1.6c0,.05.11.1.17.11h1.53v1.72H14.79a.31.31,0,0,0-.19.12,4.77,4.77,0,0,1-.66,1.56l1.17,1.17-1.22,1.22L12.77,17.2,11,17.92v1.62H9.32V17.92l-1.74-.71L6.47,18.34,5.24,17.12,6.39,16c-.16-.35-.32-.67-.46-1a2.78,2.78,0,0,1-.17-.56c0-.15-.1-.19-.23-.18H4V12.55H5.65l.71-1.74L5.22,9.71,6.46,8.47,7.62,9.64A4.79,4.79,0,0,1,9.2,9c.05,0,.11-.13.11-.19,0-.5,0-1,0-1.5H11V8.78c0,.1,0,.17.14.19A4.43,4.43,0,0,1,12.72,9.64Zm-2.55,1.88a1.88,1.88,0,1,0,1.88,1.88A1.9,1.9,0,0,0,10.17,11.52Z"/><path class="cls-3" d="M3.92,17.91l-1.19,1.2A9.67,9.67,0,0,1,15.61,5.05l1.24-1.32.41,4-3.79-.34.91-1a7.79,7.79,0,0,0-9.08.69A8,8,0,0,0,3.92,17.91Z"/></svg>