<?xml version="1.0" encoding="utf-8"?>
<!-- Generator: Adobe Illustrator 25.2.1, SVG Export Plug-In . SVG Version: 6.00 Build 0)  -->
<svg version="1.1" id="Layer_1" xmlns="http://www.w3.org/2000/svg" xmlns:xlink="http://www.w3.org/1999/xlink" x="0px" y="0px"
	 viewBox="0 0 1000 1000" style="enable-background:new 0 0 1000 1000;" xml:space="preserve">
<style type="text/css">
	.st0{fill:#002680;}
	.st1{opacity:0.2;}
	.st2{fill:url(#SVGID_1_);}
	.st3{fill:#E27B62;}
	.st4{fill:#007CFF;}
	.st5{opacity:0.3;fill:#FFFFFF;}
	.st6{fill:#1A2E35;}
	.st7{fill:#D14C38;}
	.st8{opacity:0.1;fill:#002680;}
	.st9{opacity:0.1;}
	.st10{fill:url(#SVGID_2_);}
	.st11{opacity:0.3;fill:url(#SVGID_3_);}
	.st12{fill:url(#SVGID_4_);}
	.st13{opacity:0.1;fill:url(#SVGID_5_);}
	.st14{fill:url(#SVGID_6_);}
	.st15{fill:url(#SVGID_7_);}
	.st16{opacity:0.4;}
	.st17{fill:#FFFFFF;}
	.st18{opacity:0.3;enable-background:new    ;}
	.st19{fill:#E67B62;}
	.st20{opacity:0.2;fill:#808285;enable-background:new    ;}
	.st21{opacity:0.2;enable-background:new    ;}
	.st22{fill:#000A8C;}
	.st23{fill:url(#SVGID_8_);}
	.st24{fill:url(#SVGID_9_);}
	.st25{fill:#ECECEC;}
	.st26{fill:#E1E1E1;}
	.st27{fill:#F5F5F5;}
	.st28{fill:#5FCAFF;}
	.st29{fill:url(#SVGID_10_);}
	.st30{opacity:0.3;}
	.st31{fill:url(#SVGID_11_);}
	.st32{fill:url(#SVGID_12_);}
	.st33{fill:url(#SVGID_13_);}
	.st34{fill:#FFC19D;}
	.st35{fill:#FF9C6A;}
	.st36{fill:#375A64;}
	.st37{opacity:0.1;fill:url(#SVGID_14_);}
	.st38{fill:url(#SVGID_15_);}
	.st39{fill:url(#SVGID_16_);}
	.st40{fill:none;stroke:#FFFFFF;stroke-width:1.7246;stroke-miterlimit:10;}
	.st41{fill:url(#SVGID_17_);}
	.st42{fill:url(#SVGID_18_);}
	.st43{fill:url(#SVGID_19_);}
	.st44{fill:url(#SVGID_20_);}
	.st45{fill:url(#SVGID_21_);}
	.st46{fill:url(#SVGID_22_);}
	.st47{fill:url(#SVGID_23_);}
	.st48{fill:url(#SVGID_24_);}
	.st49{fill:url(#SVGID_25_);}
	.st50{fill:url(#SVGID_26_);}
	.st51{fill:url(#SVGID_27_);}
	.st52{fill:url(#SVGID_28_);}
	.st53{fill:url(#SVGID_29_);}
	.st54{fill:url(#SVGID_30_);}
	.st55{fill:url(#SVGID_31_);}
	.st56{fill:#78909C;}
	.st57{font-family:'Montserrat-ExtraBold';}
	.st58{font-size:18.3463px;}
	.st59{letter-spacing:1;}
	.st60{fill:none;stroke:#002680;stroke-width:5;stroke-miterlimit:10;}
	.st61{fill:none;stroke:url(#SVGID_32_);stroke-width:5;stroke-miterlimit:10;}
	.st62{opacity:0.1;fill:url(#SVGID_33_);}
	.st63{fill:url(#SVGID_34_);}
	.st64{fill:url(#SVGID_35_);}
	.st65{fill:url(#SVGID_36_);}
	.st66{fill:url(#SVGID_37_);}
	.st67{fill:url(#SVGID_38_);}
	.st68{fill:url(#SVGID_39_);}
	.st69{font-size:35.7423px;}
	.st70{letter-spacing:2;}
	.st71{fill:none;stroke:url(#SVGID_40_);stroke-width:5.1738;stroke-miterlimit:10;}
	.st72{opacity:0.1;fill:url(#SVGID_41_);}
	.st73{fill:url(#SVGID_42_);}
	.st74{fill:url(#SVGID_43_);}
	.st75{fill:url(#SVGID_44_);}
	.st76{fill:url(#SVGID_45_);}
	.st77{fill:url(#SVGID_46_);}
	.st78{fill:url(#SVGID_47_);}
	.st79{fill:url(#SVGID_48_);}
	.st80{fill:url(#SVGID_49_);}
	.st81{fill:none;stroke:url(#SVGID_50_);stroke-width:5.1738;stroke-miterlimit:10;}
	.st82{opacity:0.1;fill:url(#SVGID_51_);}
	.st83{fill:url(#SVGID_52_);}
	.st84{fill:url(#SVGID_53_);}
	.st85{fill:url(#SVGID_54_);}
	.st86{fill:url(#SVGID_55_);}
	.st87{fill:url(#SVGID_56_);}
	.st88{fill:url(#SVGID_57_);}
	.st89{fill:url(#SVGID_58_);}
	.st90{fill:none;stroke:url(#SVGID_59_);stroke-width:5.1738;stroke-miterlimit:10;}
	.st91{opacity:0.1;fill:url(#SVGID_60_);}
	.st92{fill:url(#SVGID_61_);}
	.st93{fill:url(#SVGID_62_);}
	.st94{fill:url(#SVGID_63_);}
	.st95{fill:none;stroke:url(#SVGID_64_);stroke-width:6.8984;stroke-miterlimit:10;}
	.st96{opacity:0.1;fill:url(#SVGID_65_);}
	.st97{fill:url(#SVGID_66_);}
	.st98{fill:url(#SVGID_67_);}
	.st99{fill:url(#SVGID_68_);}
	.st100{fill:url(#SVGID_69_);}
	.st101{fill:url(#SVGID_70_);}
	.st102{fill:url(#SVGID_71_);}
	.st103{fill:url(#SVGID_72_);}
	.st104{fill:none;stroke:url(#SVGID_73_);stroke-width:5.1738;stroke-miterlimit:10;}
	.st105{font-size:16.1454px;}
	.st106{fill:url(#SVGID_74_);}
	.st107{fill:url(#SVGID_75_);}
</style>
<g>
	<g>
		<g>
			<g>
				<g>
					<circle class="st0" cx="516.28" cy="495.59" r="125.48"/>
				</g>
			</g>
		</g>
	</g>
	<g>
		<g>
			<g>
				<linearGradient id="SVGID_1_" gradientUnits="userSpaceOnUse" x1="845.8624" y1="722.9833" x2="728.7584" y2="548.6287">
					<stop  offset="0.1082" style="stop-color:#495867"/>
					<stop  offset="1" style="stop-color:#495867;stop-opacity:0.1"/>
				</linearGradient>
				<circle style="opacity:0.1;fill:url(#SVGID_1_);" cx="775.23" cy="617.82" r="74.04"/>
				<g>
					<linearGradient id="SVGID_2_" gradientUnits="userSpaceOnUse" x1="822.8876" y1="694.3721" x2="754.0322" y2="581.8856">
						<stop  offset="0" style="stop-color:#F7F7FF"/>
						<stop  offset="1" style="stop-color:#DEDEE6;stop-opacity:0.1"/>
					</linearGradient>
					<circle class="st10" cx="768.67" cy="605.8" r="74.04"/>
					<linearGradient id="SVGID_3_" gradientUnits="userSpaceOnUse" x1="725.8552" y1="549.6971" x2="745.6255" y2="575.6032">
						<stop  offset="0" style="stop-color:#F7F7FF"/>
						<stop  offset="1" style="stop-color:#DEDEE6;stop-opacity:0.1"/>
					</linearGradient>
					<circle style="fill:url(#SVGID_3_);" cx="768.67" cy="605.8" r="74.04"/>
					
						<ellipse transform="matrix(0.2256 -0.9742 0.9742 0.2256 5.0749 1217.9874)" class="st40" cx="768.67" cy="605.8" rx="74.04" ry="74.04"/>
				</g>
			</g>
			<g>
				<g>
					<g>
						<linearGradient id="SVGID_4_" gradientUnits="userSpaceOnUse" x1="750.9506" y1="611.8127" x2="750.9506" y2="590.3042">
							<stop  offset="0" style="stop-color:#FFFFFF"/>
							<stop  offset="0.2482" style="stop-color:#FCFCFC"/>
							<stop  offset="0.4645" style="stop-color:#F1F3F5"/>
							<stop  offset="0.6689" style="stop-color:#DFE5E7"/>
							<stop  offset="0.8648" style="stop-color:#C6D0D5"/>
							<stop  offset="1" style="stop-color:#B0BEC5"/>
						</linearGradient>
						<path class="st12" d="M734.22,611.81c-0.61,0-1.22-0.83-1.69-1.3s-0.7-1.68-0.7-2.29v-3.44c0-1.03,0.33-2.07,1.01-2.94
							c0.68-0.87,1.61-1.45,2.61-1.7l8.91-2.23c0.5-0.12,0.96-0.41,1.3-0.85c0.34-0.44,0.51-0.96,0.51-1.47v-1.72v-3.58h9.56v5.3
							c0,0.52,0.16,1.03,0.51,1.47c0.34,0.44,0.8,0.72,1.3,0.85l8.91,2.23c1,0.25,1.93,0.82,2.61,1.7c0.68,0.87,1.01,1.91,1.01,2.94
							v3.44c0,0.61-0.23,1.82-0.7,2.29s-1.08,1.3-1.69,1.3H734.22z"/>
						<linearGradient id="SVGID_5_" gradientUnits="userSpaceOnUse" x1="731.8318" y1="604.4227" x2="770.0693" y2="604.4227">
							<stop  offset="0" style="stop-color:#00D4E6"/>
							<stop  offset="1" style="stop-color:#007FF5"/>
						</linearGradient>
						<path style="fill:url(#SVGID_5_);" d="M769.06,601.85c-0.68-0.87-1.61-1.45-2.61-1.7l-8.91-2.23c-0.5-0.12-0.96-0.41-1.3-0.85
							c-0.14-0.18-0.23,0.23-0.31,0.03l-2.59,2.76h-2.39h-2.39l-2.59-2.76c-0.08,0.2-0.17,0.09-0.31,0.27
							c-0.34,0.44-0.8,0.57-1.3,0.7l-8.91,2.15c-1,0.25-1.93,0.78-2.61,1.66c-0.68,0.87-1.01,1.87-1.01,2.9v3.44
							c0,0.61,0.23,1.82,0.7,2.29s1.08,1.3,1.69,1.3h33.46c0.61,0,1.22-0.83,1.69-1.3s0.7-1.68,0.7-2.29v-3.44
							C770.07,603.76,769.74,602.72,769.06,601.85z"/>
						<linearGradient id="SVGID_6_" gradientUnits="userSpaceOnUse" x1="742.5861" y1="600.0592" x2="750.9506" y2="600.0592">
							<stop  offset="0" style="stop-color:#00D4E6"/>
							<stop  offset="1" style="stop-color:#007FF5"/>
						</linearGradient>
						<polygon class="st14" points="742.59,600.06 744.98,596.47 750.95,600.06 748.56,603.64 						"/>
						<linearGradient id="SVGID_7_" gradientUnits="userSpaceOnUse" x1="750.9506" y1="600.0592" x2="759.3151" y2="600.0592">
							<stop  offset="0" style="stop-color:#00D4E6"/>
							<stop  offset="1" style="stop-color:#007FF5"/>
						</linearGradient>
						<polygon class="st15" points="759.32,600.06 756.93,596.47 750.95,600.06 753.34,603.64 						"/>
						<g>
							<linearGradient id="SVGID_8_" gradientUnits="userSpaceOnUse" x1="750.634" y1="572.6732" x2="750.634" y2="598.2778">
								<stop  offset="0" style="stop-color:#FFFFFF"/>
								<stop  offset="0.2482" style="stop-color:#FCFCFC"/>
								<stop  offset="0.4645" style="stop-color:#F1F3F5"/>
								<stop  offset="0.6689" style="stop-color:#DFE5E7"/>
								<stop  offset="0.8648" style="stop-color:#C6D0D5"/>
								<stop  offset="1" style="stop-color:#B0BEC5"/>
							</linearGradient>
							<path class="st23" d="M757.81,584.07c-0.35-4.3-2.22-7.36-7.17-7.36c-4.96,0-6.89,3.19-7.24,7.49
								c-0.54,0.23-0.9,1.2-0.79,2.58c0.11,1.5,0.69,2.69,1.32,2.78c1.12,3.54,3.7,6.4,6.71,6.4c3.01,0,5.6-2.86,6.71-6.4
								c0.63-0.09,1.2-1.28,1.32-2.78C758.77,585.4,758.35,584.31,757.81,584.07z"/>
						</g>
						<path class="st0" d="M745.29,585.29h0.42c0,0-0.3-2.48,0.76-3.02c1.72-0.87,2.41,1.63,5.92,1.27
							c3.51-0.37,3.31,1.76,3.31,1.76h0.35c0,0,0.14-0.85,0.49-1.06c1.28-0.77,1.83,0.54,1.83,0.54s0.03-0.48,0.03-0.83
							c0-5.73-2.2-7.71-4.92-8.66c-2.54-0.89-4.09-0.45-4.9,0.01c-0.54,0.31-1.11,0.57-1.71,0.75c-0.62,0.19-1.45,0.56-2.24,1.28
							c-1.47,1.34-2.01,3.1-1.77,6.62c0.04,0.55-0.02,0.76-0.02,0.87c0.5-0.81,1.27-0.96,1.85-0.61
							C745.1,584.44,745.29,585.29,745.29,585.29z"/>
					</g>
					<g>
						<linearGradient id="SVGID_9_" gradientUnits="userSpaceOnUse" x1="789.188" y1="611.8127" x2="789.188" y2="590.3042">
							<stop  offset="0" style="stop-color:#FFFFFF"/>
							<stop  offset="0.2482" style="stop-color:#FCFCFC"/>
							<stop  offset="0.4645" style="stop-color:#F1F3F5"/>
							<stop  offset="0.6689" style="stop-color:#DFE5E7"/>
							<stop  offset="0.8648" style="stop-color:#C6D0D5"/>
							<stop  offset="1" style="stop-color:#B0BEC5"/>
						</linearGradient>
						<path class="st24" d="M772.46,611.81c-0.61,0-1.22-0.83-1.69-1.3c-0.47-0.47-0.7-1.68-0.7-2.29v-3.44
							c0-1.03,0.33-2.07,1.01-2.94c0.68-0.87,1.61-1.45,2.61-1.7l8.91-2.23c0.5-0.12,0.96-0.41,1.3-0.85
							c0.34-0.44,0.51-0.96,0.51-1.47v-1.72v-3.58h9.56v5.3c0,0.52,0.16,1.03,0.51,1.47c0.34,0.44,0.8,0.72,1.3,0.85l8.91,2.23
							c1,0.25,1.93,0.82,2.61,1.7c0.68,0.87,1.01,1.91,1.01,2.94v3.44c0,0.61-0.23,1.82-0.7,2.29s-1.08,1.3-1.69,1.3H772.46z"/>
						<linearGradient id="SVGID_10_" gradientUnits="userSpaceOnUse" x1="770.0693" y1="604.4227" x2="808.3068" y2="604.4227">
							<stop  offset="0" style="stop-color:#00D4E6"/>
							<stop  offset="1" style="stop-color:#007FF5"/>
						</linearGradient>
						<path class="st29" d="M807.29,601.85c-0.68-0.87-1.61-1.45-2.61-1.7l-8.91-2.23c-0.5-0.12-0.96-0.41-1.3-0.85
							c-0.14-0.18-0.23,0.23-0.31,0.03l-2.59,2.76h-2.39h-2.39l-2.59-2.76c-0.08,0.2-0.17,0.09-0.31,0.27
							c-0.34,0.44-0.8,0.57-1.3,0.7l-8.91,2.15c-1,0.25-1.93,0.78-2.61,1.66c-0.68,0.87-1.01,1.87-1.01,2.9v3.44
							c0,0.61,0.23,1.82,0.7,2.29c0.47,0.47,1.08,1.3,1.69,1.3h33.46c0.61,0,1.22-0.83,1.69-1.3s0.7-1.68,0.7-2.29v-3.44
							C808.31,603.76,807.98,602.72,807.29,601.85z"/>
						<linearGradient id="SVGID_11_" gradientUnits="userSpaceOnUse" x1="780.8236" y1="600.0592" x2="789.188" y2="600.0592">
							<stop  offset="0" style="stop-color:#00D4E6"/>
							<stop  offset="1" style="stop-color:#007FF5"/>
						</linearGradient>
						<polygon class="st31" points="780.82,600.06 783.21,596.47 789.19,600.06 786.8,603.64 						"/>
						<linearGradient id="SVGID_12_" gradientUnits="userSpaceOnUse" x1="789.188" y1="600.0592" x2="797.5526" y2="600.0592">
							<stop  offset="0" style="stop-color:#00D4E6"/>
							<stop  offset="1" style="stop-color:#007FF5"/>
						</linearGradient>
						<polygon class="st32" points="797.55,600.06 795.16,596.47 789.19,600.06 791.58,603.64 						"/>
						<g>
							<linearGradient id="SVGID_13_" gradientUnits="userSpaceOnUse" x1="788.8715" y1="572.6732" x2="788.8715" y2="598.2778">
								<stop  offset="0" style="stop-color:#FFFFFF"/>
								<stop  offset="0.2482" style="stop-color:#FCFCFC"/>
								<stop  offset="0.4645" style="stop-color:#F1F3F5"/>
								<stop  offset="0.6689" style="stop-color:#DFE5E7"/>
								<stop  offset="0.8648" style="stop-color:#C6D0D5"/>
								<stop  offset="1" style="stop-color:#B0BEC5"/>
							</linearGradient>
							<path class="st33" d="M796.05,584.07c-0.35-4.3-2.22-7.36-7.17-7.36c-4.96,0-6.89,3.19-7.24,7.49
								c-0.54,0.23-0.9,1.2-0.79,2.58c0.11,1.5,0.69,2.69,1.32,2.78c1.12,3.54,3.7,6.4,6.71,6.4c3.01,0,5.59-2.86,6.71-6.4
								c0.63-0.09,1.2-1.28,1.32-2.78C797.01,585.4,796.58,584.31,796.05,584.07z"/>
						</g>
						<path class="st0" d="M783.53,585.29h0.42c0,0-0.3-2.48,0.76-3.02c1.72-0.87,2.41,1.63,5.92,1.27
							c3.51-0.37,3.31,1.76,3.31,1.76h0.35c0,0,0.14-0.85,0.49-1.06c1.28-0.77,1.83,0.54,1.83,0.54s0.03-0.48,0.03-0.83
							c0-5.73-2.2-7.71-4.92-8.66c-2.54-0.89-4.09-0.45-4.9,0.01c-0.54,0.31-1.11,0.57-1.71,0.75c-0.62,0.19-1.45,0.56-2.24,1.28
							c-1.47,1.34-2.01,3.1-1.77,6.62c0.04,0.55-0.02,0.76-0.02,0.87c0.5-0.81,1.27-0.96,1.85-0.61
							C783.33,584.44,783.53,585.29,783.53,585.29z"/>
					</g>
					<linearGradient id="SVGID_14_" gradientUnits="userSpaceOnUse" x1="770.0692" y1="618.8251" x2="770.0692" y2="586.4582">
						<stop  offset="0" style="stop-color:#FFFFFF"/>
						<stop  offset="0.2482" style="stop-color:#FCFCFC"/>
						<stop  offset="0.4645" style="stop-color:#F1F3F5"/>
						<stop  offset="0.6689" style="stop-color:#DFE5E7"/>
						<stop  offset="0.8648" style="stop-color:#C6D0D5"/>
						<stop  offset="1" style="stop-color:#B0BEC5"/>
					</linearGradient>
					<path style="fill:url(#SVGID_14_);" d="M744.89,618.83c-0.92,0-1.84-0.35-2.54-1.05s-1.05-1.62-1.05-2.54v-5.17
						c0-1.55,0.5-3.11,1.52-4.43c1.03-1.32,2.42-2.18,3.92-2.55l13.41-3.35c0.75-0.19,1.45-0.62,1.96-1.28
						c0.51-0.66,0.76-1.44,0.76-2.21v-2.59v-7.19h14.39v9.78c0,0.77,0.25,1.56,0.76,2.21c0.51,0.66,1.21,1.09,1.96,1.28l13.41,3.35
						c1.5,0.38,2.9,1.24,3.92,2.55c1.03,1.32,1.52,2.88,1.52,4.43v5.17c0,0.92-0.35,1.84-1.05,2.54c-0.7,0.7-1.62,1.05-2.54,1.05
						H744.89z"/>
					<linearGradient id="SVGID_15_" gradientUnits="userSpaceOnUse" x1="741.2987" y1="608.2106" x2="798.8398" y2="608.2106">
						<stop  offset="0" style="stop-color:#00D4E6"/>
						<stop  offset="1" style="stop-color:#007FF5"/>
					</linearGradient>
					<path class="st38" d="M797.32,605.63c-1.03-1.32-2.42-2.18-3.92-2.55l-13.41-3.35c-0.75-0.19-1.45-0.62-1.96-1.28
						c-0.21-0.26-0.34-0.56-0.46-0.85l-3.9,3.25h-3.6h-3.6l-3.9-3.25c-0.12,0.3-0.25,0.59-0.46,0.85c-0.51,0.66-1.21,1.09-1.96,1.28
						l-13.41,3.35c-1.5,0.38-2.9,1.24-3.92,2.55c-1.03,1.32-1.52,2.88-1.52,4.43v5.17c0,0.92,0.35,1.84,1.05,2.54
						s1.62,1.05,2.54,1.05h50.35c0.92,0,1.84-0.35,2.54-1.05c0.7-0.7,1.05-1.62,1.05-2.54v-5.17
						C798.84,608.51,798.34,606.95,797.32,605.63z"/>
					<linearGradient id="SVGID_16_" gradientUnits="userSpaceOnUse" x1="757.4822" y1="601.8898" x2="770.0693" y2="601.8898">
						<stop  offset="0" style="stop-color:#00D4E6"/>
						<stop  offset="1" style="stop-color:#007FF5"/>
					</linearGradient>
					<polygon class="st39" points="757.48,601.89 761.08,596.5 770.07,601.89 766.47,607.28 					"/>
					<linearGradient id="SVGID_17_" gradientUnits="userSpaceOnUse" x1="770.0693" y1="601.8898" x2="782.6563" y2="601.8898">
						<stop  offset="0" style="stop-color:#00D4E6"/>
						<stop  offset="1" style="stop-color:#007FF5"/>
					</linearGradient>
					<polygon class="st41" points="782.66,601.89 779.06,596.5 770.07,601.89 773.67,607.28 					"/>
					<g>
						<linearGradient id="SVGID_18_" gradientUnits="userSpaceOnUse" x1="769.593" y1="596.7644" x2="769.593" y2="567.8028">
							<stop  offset="0" style="stop-color:#FFFFFF"/>
							<stop  offset="0.2482" style="stop-color:#FCFCFC"/>
							<stop  offset="0.4645" style="stop-color:#F1F3F5"/>
							<stop  offset="0.6689" style="stop-color:#DFE5E7"/>
							<stop  offset="0.8648" style="stop-color:#C6D0D5"/>
							<stop  offset="1" style="stop-color:#B0BEC5"/>
						</linearGradient>
						<path class="st42" d="M780.39,578.88c-0.52-6.47-3.33-11.08-10.8-11.08c-7.46,0-10.37,4.79-10.89,11.27
							c-0.81,0.35-1.35,1.8-1.19,3.89c0.17,2.25,1.04,4.05,1.98,4.18c1.68,5.32,5.57,9.63,10.1,9.63c4.53,0,8.42-4.3,10.1-9.63
							c0.94-0.13,1.81-1.93,1.98-4.18C781.84,580.87,781.2,579.23,780.39,578.88z"/>
					</g>
					<path class="st0" d="M761.55,580.71h0.64c0,0-0.46-3.74,1.15-4.55c2.59-1.3,3.63,2.46,8.91,1.91c5.29-0.55,4.98,2.64,4.98,2.64
						h0.52c0,0,0.21-1.28,0.74-1.6c1.92-1.15,2.76,0.82,2.76,0.82s0.04-0.72,0.04-1.24c0-8.62-3.31-11.6-7.4-13.03
						c-3.92-1.37-6.28-0.64-7.47,0.07c-0.79,0.47-1.65,0.82-2.53,1.09c-0.93,0.29-2.15,0.85-3.32,1.91
						c-2.21,2.02-3.03,4.67-2.66,9.96c0.06,0.83-0.02,1.14-0.02,1.31c0.75-1.21,1.91-1.45,2.79-0.92
						C761.26,579.43,761.55,580.71,761.55,580.71z"/>
				</g>
				<g>
					<text transform="matrix(1 0 0 1 740.4676 641.0275)"><tspan x="0" y="0" class="st56 st57 st58 st59">TEAM</tspan><tspan x="-4.36" y="18.98" class="st56 st57 st58 st59">WORK</tspan></text>
				</g>
			</g>
		</g>
		
			<ellipse transform="matrix(0.2251 -0.9743 0.9743 0.2251 5.3859 1218.3751)" class="st60" cx="768.67" cy="605.8" rx="83.03" ry="83.03"/>
		<linearGradient id="SVGID_19_" gradientUnits="userSpaceOnUse" x1="683.1412" y1="605.8016" x2="854.2021" y2="605.8016">
			<stop  offset="0" style="stop-color:#00D4E6"/>
			<stop  offset="1" style="stop-color:#007FF5"/>
		</linearGradient>
		
			<ellipse transform="matrix(0.2251 -0.9743 0.9743 0.2251 5.3859 1218.3751)" style="fill:none;stroke:url(#SVGID_19_);stroke-width:5;stroke-miterlimit:10;" cx="768.67" cy="605.8" rx="83.03" ry="83.03"/>
	</g>
	<g>
		<linearGradient id="SVGID_20_" gradientUnits="userSpaceOnUse" x1="590.19" y1="877.2569" x2="473.086" y2="702.9023">
			<stop  offset="0.1082" style="stop-color:#495867"/>
			<stop  offset="1" style="stop-color:#495867;stop-opacity:0.1"/>
		</linearGradient>
		<circle style="opacity:0.1;fill:url(#SVGID_20_);" cx="519.56" cy="772.1" r="74.04"/>
		<g>
			<linearGradient id="SVGID_21_" gradientUnits="userSpaceOnUse" x1="567.2152" y1="848.6458" x2="498.3597" y2="736.1592">
				<stop  offset="0" style="stop-color:#F7F7FF"/>
				<stop  offset="1" style="stop-color:#DEDEE6;stop-opacity:0.1"/>
			</linearGradient>
			<circle class="st45" cx="513" cy="760.08" r="74.04"/>
			<linearGradient id="SVGID_22_" gradientUnits="userSpaceOnUse" x1="470.1828" y1="703.9708" x2="489.9532" y2="729.8769">
				<stop  offset="0" style="stop-color:#F7F7FF"/>
				<stop  offset="1" style="stop-color:#DEDEE6;stop-opacity:0.1"/>
			</linearGradient>
			<circle class="st46" cx="513" cy="760.08" r="74.04"/>
			
				<ellipse transform="matrix(0.7071 -0.7071 0.7071 0.7071 -387.2003 585.3661)" class="st40" cx="513" cy="760.08" rx="74.04" ry="74.04"/>
		</g>
	</g>
	<g>
		<g>
			<g>
				<linearGradient id="SVGID_23_" gradientUnits="userSpaceOnUse" x1="469.0761" y1="417.7498" x2="560.6791" y2="443.6638">
					<stop  offset="0" style="stop-color:#00D4E6"/>
					<stop  offset="1" style="stop-color:#007FF5"/>
				</linearGradient>
				<polygon class="st47" points="560.01,418.57 472.56,418.57 457.05,439.25 575.52,439.25 				"/>
				<linearGradient id="SVGID_24_" gradientUnits="userSpaceOnUse" x1="459.0158" y1="453.3119" x2="550.6188" y2="479.2259">
					<stop  offset="0" style="stop-color:#00D4E6"/>
					<stop  offset="1" style="stop-color:#007FF5"/>
				</linearGradient>
				<polygon class="st48" points="575.52,439.25 457.05,439.25 516.28,516.53 				"/>
			</g>
			<g>
				<linearGradient id="SVGID_25_" gradientUnits="userSpaceOnUse" x1="516.5473" y1="437.1675" x2="519.6409" y2="412.8613">
					<stop  offset="0" style="stop-color:#00D4E6"/>
					<stop  offset="1" style="stop-color:#007FF5"/>
				</linearGradient>
				<polygon class="st49" points="536.42,418.57 496.15,418.57 489,439.25 543.56,439.25 				"/>
				<linearGradient id="SVGID_26_" gradientUnits="userSpaceOnUse" x1="517.0179" y1="426.2871" x2="513.4825" y2="488.5997">
					<stop  offset="0" style="stop-color:#00D4E6"/>
					<stop  offset="1" style="stop-color:#007FF5"/>
				</linearGradient>
				<polygon class="st50" points="543.56,439.25 489,439.25 516.28,516.53 				"/>
			</g>
		</g>
		<g>
			<text transform="matrix(1 0 0 1 433.8404 568.4503)" class="st17 st57 st69 st70">VALUES</text>
		</g>
	</g>
	<linearGradient id="SVGID_27_" gradientUnits="userSpaceOnUse" x1="430.7918" y1="760.0752" x2="601.7733" y2="760.0752">
		<stop  offset="0" style="stop-color:#00D4E6"/>
		<stop  offset="1" style="stop-color:#007FF5"/>
	</linearGradient>
	
		<ellipse transform="matrix(0.7071 -0.7071 0.7071 0.7071 -386.2386 587.6878)" style="fill:none;stroke:url(#SVGID_27_);stroke-width:5.1738;stroke-miterlimit:10;" cx="516.28" cy="760.08" rx="82.9" ry="82.9"/>
	<g>
		<g>
			<g>
				<linearGradient id="SVGID_28_" gradientUnits="userSpaceOnUse" x1="309.9393" y1="723.0049" x2="192.8353" y2="548.6503">
					<stop  offset="0.1082" style="stop-color:#495867"/>
					<stop  offset="1" style="stop-color:#495867;stop-opacity:0.1"/>
				</linearGradient>
				<circle style="opacity:0.1;fill:url(#SVGID_28_);" cx="239.31" cy="617.85" r="74.04"/>
				<g>
					<linearGradient id="SVGID_29_" gradientUnits="userSpaceOnUse" x1="286.9645" y1="694.3937" x2="218.1091" y2="581.9072">
						<stop  offset="0" style="stop-color:#F7F7FF"/>
						<stop  offset="1" style="stop-color:#DEDEE6;stop-opacity:0.1"/>
					</linearGradient>
					<circle class="st53" cx="232.75" cy="605.82" r="74.04"/>
					<linearGradient id="SVGID_30_" gradientUnits="userSpaceOnUse" x1="189.9321" y1="549.7188" x2="209.7025" y2="575.6249">
						<stop  offset="0" style="stop-color:#F7F7FF"/>
						<stop  offset="1" style="stop-color:#DEDEE6;stop-opacity:0.1"/>
					</linearGradient>
					<circle class="st54" cx="232.75" cy="605.82" r="74.04"/>
					
						<ellipse transform="matrix(0.219 -0.9757 0.9757 0.219 -409.3402 700.2458)" class="st40" cx="232.75" cy="605.82" rx="74.04" ry="74.04"/>
				</g>
			</g>
			<g>
				<g>
					<text transform="matrix(1 0 0 1 186.8991 657.2893)" class="st56 st57 st58 st59">QUALITY</text>
				</g>
				<g>
					<linearGradient id="SVGID_31_" gradientUnits="userSpaceOnUse" x1="205.6547" y1="615.3781" x2="236.0292" y2="615.3781">
						<stop  offset="0" style="stop-color:#00D4E6"/>
						<stop  offset="1" style="stop-color:#007FF5"/>
					</linearGradient>
					<polygon class="st55" points="205.65,633.33 216.7,630.57 224.98,638.85 236.03,597.43 216.7,591.91 					"/>
					<linearGradient id="SVGID_32_" gradientUnits="userSpaceOnUse" x1="230.5065" y1="615.3781" x2="260.881" y2="615.3781">
						<stop  offset="0" style="stop-color:#00D4E6"/>
						<stop  offset="1" style="stop-color:#007FF5"/>
					</linearGradient>
					<polygon style="fill:url(#SVGID_32_);" points="260.88,633.33 249.84,630.57 241.55,638.85 230.51,597.43 249.84,591.91 					
						"/>
					<linearGradient id="SVGID_33_" gradientUnits="userSpaceOnUse" x1="233.5892" y1="549.0641" x2="233.1208" y2="602.4534">
						<stop  offset="0" style="stop-color:#00D4E6"/>
						<stop  offset="1" style="stop-color:#007FF5"/>
					</linearGradient>
					<polygon style="fill:url(#SVGID_33_);" points="233.27,558.08 241.84,553.69 247.07,561.78 256.7,562.26 257.18,571.89 
						265.27,577.12 260.88,585.69 265.27,594.27 257.18,599.5 256.7,609.12 247.07,609.61 241.84,617.7 233.27,613.31 224.69,617.7 
						219.46,609.61 209.84,609.12 209.35,599.5 201.26,594.27 205.65,585.69 201.26,577.12 209.35,571.89 209.84,562.26 
						219.46,561.78 224.69,553.69 					"/>
					<linearGradient id="SVGID_34_" gradientUnits="userSpaceOnUse" x1="201.2611" y1="582.9321" x2="265.2746" y2="582.9321">
						<stop  offset="0" style="stop-color:#00D4E6"/>
						<stop  offset="1" style="stop-color:#007FF5"/>
					</linearGradient>
					<polygon class="st63" points="233.27,555.32 241.84,550.93 247.07,559.02 256.7,559.5 257.18,569.13 265.27,574.36 
						260.88,582.93 265.27,591.51 257.18,596.74 256.7,606.36 247.07,606.85 241.84,614.94 233.27,610.55 224.69,614.94 
						219.46,606.85 209.84,606.36 209.35,596.74 201.26,591.51 205.65,582.93 201.26,574.36 209.35,569.13 209.84,559.5 
						219.46,559.02 224.69,550.93 					"/>
					<linearGradient id="SVGID_35_" gradientUnits="userSpaceOnUse" x1="211.1772" y1="582.4163" x2="255.3585" y2="582.4163">
						<stop  offset="0" style="stop-color:#F7F7FF"/>
						<stop  offset="1" style="stop-color:#DEDEE6"/>
					</linearGradient>
					<circle class="st64" cx="233.27" cy="582.42" r="22.09"/>
					<g>
						<linearGradient id="SVGID_36_" gradientUnits="userSpaceOnUse" x1="225.1361" y1="582.4163" x2="241.3996" y2="582.4163">
							<stop  offset="0" style="stop-color:#00D4E6"/>
							<stop  offset="1" style="stop-color:#007FF5"/>
						</linearGradient>
						<path class="st65" d="M225.14,574.45c0.51-0.24,1.01-0.49,1.5-0.73c0.48-0.24,0.97-0.53,1.47-0.85s1.03-0.74,1.59-1.24
							c0.56-0.5,1.16-1.15,1.82-1.95H238v20.64h3.4v4.85h-14.59v-4.85h3.65v-13.53l-3.65,1.72L225.14,574.45z"/>
					</g>
				</g>
			</g>
		</g>
		<linearGradient id="SVGID_37_" gradientUnits="userSpaceOnUse" x1="147.0879" y1="605.8232" x2="318.4092" y2="605.8232">
			<stop  offset="0" style="stop-color:#00D4E6"/>
			<stop  offset="1" style="stop-color:#007FF5"/>
		</linearGradient>
		
			<ellipse transform="matrix(0.2231 -0.9748 0.9748 0.2231 -409.7356 697.5164)" style="fill:none;stroke:url(#SVGID_37_);stroke-width:5.1738;stroke-miterlimit:10;" cx="232.75" cy="605.82" rx="83.07" ry="83.07"/>
	</g>
	<g>
		<g>
			<g>
				<linearGradient id="SVGID_38_" gradientUnits="userSpaceOnUse" x1="309.9394" y1="486.4845" x2="192.8354" y2="312.1299">
					<stop  offset="0.1082" style="stop-color:#495867"/>
					<stop  offset="1" style="stop-color:#495867;stop-opacity:0.1"/>
				</linearGradient>
				<circle style="opacity:0.1;fill:url(#SVGID_38_);" cx="239.31" cy="381.33" r="74.04"/>
				<g>
					<linearGradient id="SVGID_39_" gradientUnits="userSpaceOnUse" x1="286.9645" y1="457.8733" x2="218.1091" y2="345.3867">
						<stop  offset="0" style="stop-color:#F7F7FF"/>
						<stop  offset="1" style="stop-color:#DEDEE6;stop-opacity:0.1"/>
					</linearGradient>
					<circle class="st68" cx="232.75" cy="369.3" r="74.04"/>
					<linearGradient id="SVGID_40_" gradientUnits="userSpaceOnUse" x1="189.9321" y1="313.1983" x2="209.7025" y2="339.1043">
						<stop  offset="0" style="stop-color:#F7F7FF"/>
						<stop  offset="1" style="stop-color:#DEDEE6;stop-opacity:0.1"/>
					</linearGradient>
					<circle style="fill:url(#SVGID_40_);" cx="232.75" cy="369.3" r="74.04"/>
					<circle class="st40" cx="232.75" cy="369.3" r="74.04"/>
				</g>
			</g>
			<g>
				<g>
					<linearGradient id="SVGID_41_" gradientUnits="userSpaceOnUse" x1="233.8189" y1="360.7771" x2="233.8189" y2="310.0837">
						<stop  offset="0" style="stop-color:#00D4E6"/>
						<stop  offset="1" style="stop-color:#007FF5"/>
					</linearGradient>
					<path style="fill:url(#SVGID_41_);" d="M233.82,310.08c-11.61,0-21.05,9.44-21.05,21.05c0,0.1,0.23,9.99,8.31,20.4
						c1.88,2.5,1.84,7.64,1.75,8.54c0,0.03-0.01,0.07-0.01,0.1c0,0.34,0.27,0.61,0.61,0.61h20.82c0.34,0,0.61-0.27,0.61-0.61
						c0-0.04,0-0.07-0.01-0.11c-0.1-0.9-0.18-6.03,1.69-8.53c8.09-10.42,8.32-20.31,8.32-20.4
						C254.87,319.53,245.42,310.08,233.82,310.08z"/>
					<linearGradient id="SVGID_42_" gradientUnits="userSpaceOnUse" x1="233.8181" y1="363.9069" x2="233.8181" y2="362.6851">
						<stop  offset="0" style="stop-color:#00D4E6"/>
						<stop  offset="1" style="stop-color:#007FF5"/>
					</linearGradient>
					<path class="st73" d="M244.64,362.69h-21.65c-0.34,0-0.61,0.27-0.61,0.61c0,0.34,0.27,0.61,0.61,0.61h21.65
						c0.34,0,0.61-0.27,0.61-0.61C245.25,362.96,244.98,362.69,244.64,362.69z"/>
					<linearGradient id="SVGID_43_" gradientUnits="userSpaceOnUse" x1="233.8181" y1="367.3984" x2="233.8181" y2="366.1765">
						<stop  offset="0" style="stop-color:#00D4E6"/>
						<stop  offset="1" style="stop-color:#007FF5"/>
					</linearGradient>
					<path class="st74" d="M244.64,366.18h-21.65c-0.34,0-0.61,0.27-0.61,0.61s0.27,0.61,0.61,0.61h21.65
						c0.34,0,0.61-0.27,0.61-0.61S244.98,366.18,244.64,366.18z"/>
					<linearGradient id="SVGID_44_" gradientUnits="userSpaceOnUse" x1="233.8181" y1="370.8912" x2="233.8181" y2="369.6692">
						<stop  offset="0" style="stop-color:#00D4E6"/>
						<stop  offset="1" style="stop-color:#007FF5"/>
					</linearGradient>
					<path class="st75" d="M244.64,369.67h-21.65c-0.34,0-0.61,0.27-0.61,0.61s0.27,0.61,0.61,0.61h21.65
						c0.34,0,0.61-0.27,0.61-0.61S244.98,369.67,244.64,369.67z"/>
					<linearGradient id="SVGID_45_" gradientUnits="userSpaceOnUse" x1="233.8183" y1="374.731" x2="233.8183" y2="373.5092">
						<stop  offset="0" style="stop-color:#00D4E6"/>
						<stop  offset="1" style="stop-color:#007FF5"/>
					</linearGradient>
					<path class="st76" d="M242.02,373.51h-16.41c-0.34,0-0.61,0.27-0.61,0.61s0.27,0.61,0.61,0.61h16.41
						c0.34,0,0.61-0.27,0.61-0.61S242.36,373.51,242.02,373.51z"/>
				</g>
				<g>
					<text transform="matrix(1 0 0 1 170.1315 401.915)" class="st56 st57 st58 st59">CREATIVITY</text>
				</g>
			</g>
		</g>
		<linearGradient id="SVGID_46_" gradientUnits="userSpaceOnUse" x1="145.711" y1="369.3027" x2="319.7862" y2="369.3027">
			<stop  offset="0" style="stop-color:#00D4E6"/>
			<stop  offset="1" style="stop-color:#007FF5"/>
		</linearGradient>
		<circle style="fill:none;stroke:url(#SVGID_46_);stroke-width:5.1738;stroke-miterlimit:10;" cx="232.75" cy="369.3" r="84.45"/>
	</g>
	<g>
		<g>
			<g>
				<linearGradient id="SVGID_47_" gradientUnits="userSpaceOnUse" x1="593.4707" y1="353.9419" x2="476.3668" y2="179.5874">
					<stop  offset="0.1082" style="stop-color:#495867"/>
					<stop  offset="1" style="stop-color:#495867;stop-opacity:0.1"/>
				</linearGradient>
				<circle style="opacity:0.1;fill:url(#SVGID_47_);" cx="522.84" cy="248.78" r="74.04"/>
				<g>
					<linearGradient id="SVGID_48_" gradientUnits="userSpaceOnUse" x1="570.4959" y1="325.3309" x2="501.6404" y2="212.8443">
						<stop  offset="0" style="stop-color:#F7F7FF"/>
						<stop  offset="1" style="stop-color:#DEDEE6;stop-opacity:0.1"/>
					</linearGradient>
					<circle class="st79" cx="516.28" cy="236.76" r="74.04"/>
					<linearGradient id="SVGID_49_" gradientUnits="userSpaceOnUse" x1="473.4635" y1="180.6558" x2="493.2339" y2="206.5619">
						<stop  offset="0" style="stop-color:#F7F7FF"/>
						<stop  offset="1" style="stop-color:#DEDEE6;stop-opacity:0.1"/>
					</linearGradient>
					<circle class="st80" cx="516.28" cy="236.76" r="74.04"/>
					<circle class="st40" cx="516.28" cy="236.76" r="74.04"/>
				</g>
			</g>
			<g>
				<linearGradient id="SVGID_50_" gradientUnits="userSpaceOnUse" x1="496.863" y1="218.2632" x2="542.2581" y2="218.2632">
					<stop  offset="0" style="stop-color:#00D4E6"/>
					<stop  offset="1" style="stop-color:#007FF5"/>
				</linearGradient>
				<path style="fill:url(#SVGID_50_);" d="M519.56,248.66L519.56,248.66L519.56,248.66c-13.98-7.52-22.7-22.12-22.7-37.99v-16.75
					l0,0c14.06-8.06,31.34-8.06,45.4,0l0,0v16.75C542.26,226.54,533.54,241.13,519.56,248.66z"/>
				<g>
					<text transform="matrix(1 0 0 1 462.9722 272.3814)" class="st56 st57 st58 st59">INTEGRITY</text>
				</g>
			</g>
		</g>
		<linearGradient id="SVGID_51_" gradientUnits="userSpaceOnUse" x1="429.9339" y1="236.7602" x2="602.6259" y2="236.7602">
			<stop  offset="0" style="stop-color:#00D4E6"/>
			<stop  offset="1" style="stop-color:#007FF5"/>
		</linearGradient>
		<circle style="fill:none;stroke:url(#SVGID_51_);stroke-width:6.8984;stroke-miterlimit:10;" cx="516.28" cy="236.76" r="82.9"/>
	</g>
	<g>
		<g>
			<g>
				<linearGradient id="SVGID_52_" gradientUnits="userSpaceOnUse" x1="845.8624" y1="485.7075" x2="728.7584" y2="311.3529">
					<stop  offset="0.1082" style="stop-color:#495867"/>
					<stop  offset="1" style="stop-color:#495867;stop-opacity:0.1"/>
				</linearGradient>
				<circle style="opacity:0.1;fill:url(#SVGID_52_);" cx="775.23" cy="380.55" r="74.04"/>
				<g>
					<linearGradient id="SVGID_53_" gradientUnits="userSpaceOnUse" x1="822.8876" y1="457.0964" x2="754.0321" y2="344.6097">
						<stop  offset="0" style="stop-color:#F7F7FF"/>
						<stop  offset="1" style="stop-color:#DEDEE6;stop-opacity:0.1"/>
					</linearGradient>
					<circle class="st84" cx="768.67" cy="368.53" r="74.04"/>
					<linearGradient id="SVGID_54_" gradientUnits="userSpaceOnUse" x1="725.8552" y1="312.4213" x2="745.6255" y2="338.3274">
						<stop  offset="0" style="stop-color:#F7F7FF"/>
						<stop  offset="1" style="stop-color:#DEDEE6;stop-opacity:0.1"/>
					</linearGradient>
					<circle class="st85" cx="768.67" cy="368.53" r="74.04"/>
					<circle class="st40" cx="768.67" cy="368.53" r="74.04"/>
				</g>
			</g>
			<g>
				<g>
					<linearGradient id="SVGID_55_" gradientUnits="userSpaceOnUse" x1="751.5762" y1="385.5727" x2="751.5762" y2="363.5011">
						<stop  offset="0" style="stop-color:#00D4E6"/>
						<stop  offset="1" style="stop-color:#007FF5"/>
					</linearGradient>
					<rect x="744.39" y="363.5" class="st86" width="14.38" height="22.07"/>
					<linearGradient id="SVGID_56_" gradientUnits="userSpaceOnUse" x1="770.0692" y1="385.5727" x2="770.0692" y2="357.2299">
						<stop  offset="0" style="stop-color:#00D4E6"/>
						<stop  offset="1" style="stop-color:#007FF5"/>
					</linearGradient>
					<rect x="762.88" y="357.23" class="st87" width="14.38" height="28.34"/>
					<linearGradient id="SVGID_57_" gradientUnits="userSpaceOnUse" x1="788.5623" y1="385.5727" x2="788.5623" y2="346.5162">
						<stop  offset="0" style="stop-color:#00D4E6"/>
						<stop  offset="1" style="stop-color:#007FF5"/>
					</linearGradient>
					<rect x="781.37" y="346.52" class="st88" width="14.38" height="39.06"/>
					<g>
						<g>
							<linearGradient id="SVGID_58_" gradientUnits="userSpaceOnUse" x1="742.906" y1="338.7492" x2="791.8552" y2="338.7492">
								<stop  offset="0" style="stop-color:#00D4E6"/>
								<stop  offset="1" style="stop-color:#007FF5"/>
							</linearGradient>
							<path class="st89" d="M745.33,356.45c-0.8,0-1.6-0.01-2.42-0.03l0.16-6.56c26.21,0.63,39.94-8.81,41.97-28.82l6.53,0.66
								C789.94,337.67,780.53,356.45,745.33,356.45z"/>
						</g>
						<g>
							<linearGradient id="SVGID_59_" gradientUnits="userSpaceOnUse" x1="742.9064" y1="318.6531" x2="791.855" y2="318.6531">
								<stop  offset="0" style="stop-color:#00D4E6"/>
								<stop  offset="1" style="stop-color:#007FF5"/>
							</linearGradient>
							<polygon style="fill:url(#SVGID_59_);" points="780.22,322.07 796.15,322.82 788.56,314.48 							"/>
						</g>
					</g>
				</g>
				<g>
					<text transform="matrix(1 0 0 1 720.5319 409.147)" class="st56 st57 st58 st59">GROWTH</text>
				</g>
			</g>
		</g>
		<linearGradient id="SVGID_60_" gradientUnits="userSpaceOnUse" x1="683.1879" y1="368.5258" x2="854.1553" y2="368.5258">
			<stop  offset="0" style="stop-color:#00D4E6"/>
			<stop  offset="1" style="stop-color:#007FF5"/>
		</linearGradient>
		<circle style="fill:none;stroke:url(#SVGID_60_);stroke-width:5.1738;stroke-miterlimit:10;" cx="768.67" cy="368.53" r="82.9"/>
	</g>
	<g>
		<g>
			<text transform="matrix(1 0 0 1 455.1305 794.629)" class="st56 st57 st105">INNOVATION</text>
		</g>
		<g>
			<linearGradient id="SVGID_61_" gradientUnits="userSpaceOnUse" x1="518.7197" y1="733.4443" x2="522.1176" y2="783.9283">
				<stop  offset="0" style="stop-color:#00D4E6"/>
				<stop  offset="1" style="stop-color:#007FF5"/>
			</linearGradient>
			<path class="st92" d="M544.91,756.09v-12.27h-5.14c-0.39-1.26-0.9-2.47-1.51-3.61l3.65-3.65l-8.68-8.68h-4.04l0.39,3.65
				c-1.15-0.61-2.35-1.12-3.61-1.51v-5.15H513.7v5.15c-1.26,0.39-2.47,0.9-3.61,1.51l-3.65-3.65h-4.04l-4.64,8.68l3.65,3.65
				c-0.61,1.15-1.12,2.35-1.51,3.61h-5.14v12.27h5.14c0.39,1.26,0.9,2.47,1.51,3.61l-3.65,3.65l4.64,8.68h4.04l3.65-3.65
				c1.15,0.61,2.35,1.12,3.61,1.51v5.15h12.27v-5.15c1.26-0.39,2.47-0.9,3.61-1.51l-0.39,3.65h4.04l8.68-8.68l-3.65-3.65
				c0.61-1.15,1.12-2.35,1.51-3.61H544.91z M519.83,761.14c-6.17,0-11.19-5.02-11.19-11.19c0-6.17,5.02-11.19,11.19-11.19
				c6.17,0,11.19,5.02,11.19,11.19C531.02,756.12,526,761.14,519.83,761.14z"/>
			<linearGradient id="SVGID_62_" gradientUnits="userSpaceOnUse" x1="517.5072" y1="713.4135" x2="516.0378" y2="744.7604">
				<stop  offset="0" style="stop-color:#00D4E6"/>
				<stop  offset="1" style="stop-color:#007FF5"/>
			</linearGradient>
			<path class="st93" d="M540.87,756.09v-12.27h-5.14c-0.39-1.26-0.9-2.47-1.51-3.61l3.65-3.65l-8.68-8.68l-3.65,3.65
				c-1.15-0.61-2.35-1.12-3.61-1.51v-5.15h-12.27v5.15c-1.26,0.39-2.47,0.9-3.61,1.51l-3.65-3.65l-8.68,8.68l3.65,3.65
				c-0.61,1.15-1.12,2.35-1.51,3.61h-5.14v12.27h5.15c0.39,1.26,0.9,2.47,1.51,3.61l-3.65,3.65l8.68,8.68l3.65-3.65
				c1.15,0.61,2.35,1.12,3.61,1.51v5.15h12.27v-5.15c1.26-0.39,2.47-0.9,3.61-1.51l3.65,3.65l8.68-8.68l-3.65-3.65
				c0.61-1.15,1.12-2.35,1.51-3.61H540.87z M515.79,761.14c-6.17,0-11.19-5.02-11.19-11.19c0-6.17,5.02-11.19,11.19-11.19
				c6.17,0,11.19,5.02,11.19,11.19C526.98,756.12,521.96,761.14,515.79,761.14z"/>
		</g>
	</g>
</g>
</svg>
