<?xml version="1.0" encoding="utf-8"?>
<!-- Generator: Adobe Illustrator 25.2.1, SVG Export Plug-In . SVG Version: 6.00 Build 0)  -->
<svg version="1.1" id="Layer_1" xmlns="http://www.w3.org/2000/svg" xmlns:xlink="http://www.w3.org/1999/xlink" x="0px" y="0px"
	 viewBox="0 0 1000 1000" style="enable-background:new 0 0 1000 1000;" xml:space="preserve">
<style type="text/css">
	.st0{fill:#002680;}
	.st1{opacity:0.2;}
	.st2{fill:url(#SVGID_1_);}
	.st3{fill:#E27B62;}
	.st4{fill:#007CFF;}
	.st5{opacity:0.3;fill:#FFFFFF;}
	.st6{fill:#1A2E35;}
	.st7{fill:#D14C38;}
	.st8{opacity:0.1;fill:#002680;}
	.st9{opacity:0.1;}
	.st10{fill:url(#SVGID_2_);}
	.st11{opacity:0.3;fill:url(#SVGID_3_);}
	.st12{fill:url(#SVGID_4_);}
	.st13{opacity:0.1;fill:url(#SVGID_5_);}
	.st14{fill:url(#SVGID_6_);}
	.st15{fill:url(#SVGID_7_);}
	.st16{opacity:0.4;}
	.st17{fill:#FFFFFF;}
	.st18{opacity:0.3;enable-background:new    ;}
	.st19{fill:#E67B62;}
	.st20{opacity:0.2;fill:#808285;enable-background:new    ;}
	.st21{opacity:0.2;enable-background:new    ;}
	.st22{fill:#000A8C;}
	.st23{fill:url(#SVGID_8_);}
	.st24{fill:url(#SVGID_9_);}
	.st25{fill:#ECECEC;}
	.st26{fill:#E1E1E1;}
	.st27{fill:#F5F5F5;}
	.st28{fill:#5FCAFF;}
	.st29{fill:url(#SVGID_10_);}
	.st30{opacity:0.3;}
	.st31{fill:url(#SVGID_11_);}
	.st32{fill:url(#SVGID_12_);}
	.st33{fill:url(#SVGID_13_);}
	.st34{fill:#FFC19D;}
	.st35{fill:#FF9C6A;}
	.st36{fill:#375A64;}
	.st37{opacity:0.1;fill:url(#SVGID_14_);}
	.st38{fill:url(#SVGID_15_);}
	.st39{fill:url(#SVGID_16_);}
	.st40{fill:none;stroke:#FFFFFF;stroke-width:1.7246;stroke-miterlimit:10;}
	.st41{fill:url(#SVGID_17_);}
	.st42{fill:url(#SVGID_18_);}
	.st43{fill:url(#SVGID_19_);}
	.st44{fill:url(#SVGID_20_);}
	.st45{fill:url(#SVGID_21_);}
	.st46{fill:url(#SVGID_22_);}
	.st47{fill:url(#SVGID_23_);}
	.st48{fill:url(#SVGID_24_);}
	.st49{fill:url(#SVGID_25_);}
	.st50{fill:url(#SVGID_26_);}
	.st51{fill:url(#SVGID_27_);}
	.st52{fill:url(#SVGID_28_);}
	.st53{fill:url(#SVGID_29_);}
	.st54{fill:url(#SVGID_30_);}
	.st55{fill:url(#SVGID_31_);}
	.st56{fill:none;stroke:#002680;stroke-width:5;stroke-miterlimit:10;}
	.st57{fill:none;stroke:url(#SVGID_32_);stroke-width:5;stroke-miterlimit:10;}
	.st58{opacity:0.1;fill:url(#SVGID_33_);}
	.st59{fill:url(#SVGID_34_);}
	.st60{fill:url(#SVGID_35_);}
	.st61{fill:url(#SVGID_36_);}
	.st62{fill:url(#SVGID_37_);}
	.st63{fill:url(#SVGID_38_);}
	.st64{fill:url(#SVGID_39_);}
	.st65{fill:none;stroke:url(#SVGID_40_);stroke-width:5.1738;stroke-miterlimit:10;}
	.st66{opacity:0.1;fill:url(#SVGID_41_);}
	.st67{fill:url(#SVGID_42_);}
	.st68{fill:url(#SVGID_43_);}
	.st69{fill:url(#SVGID_44_);}
	.st70{fill:url(#SVGID_45_);}
	.st71{fill:url(#SVGID_46_);}
	.st72{fill:url(#SVGID_47_);}
	.st73{fill:url(#SVGID_48_);}
	.st74{fill:url(#SVGID_49_);}
	.st75{fill:none;stroke:url(#SVGID_50_);stroke-width:5.1738;stroke-miterlimit:10;}
	.st76{opacity:0.1;fill:url(#SVGID_51_);}
	.st77{fill:url(#SVGID_52_);}
	.st78{fill:url(#SVGID_53_);}
	.st79{fill:url(#SVGID_54_);}
	.st80{fill:url(#SVGID_55_);}
	.st81{fill:url(#SVGID_56_);}
	.st82{fill:url(#SVGID_57_);}
	.st83{fill:url(#SVGID_58_);}
	.st84{fill:none;stroke:url(#SVGID_59_);stroke-width:5.1738;stroke-miterlimit:10;}
	.st85{opacity:0.1;fill:url(#SVGID_60_);}
	.st86{fill:url(#SVGID_61_);}
	.st87{fill:url(#SVGID_62_);}
	.st88{fill:url(#SVGID_63_);}
	.st89{fill:none;stroke:url(#SVGID_64_);stroke-width:6.8984;stroke-miterlimit:10;}
	.st90{opacity:0.1;fill:url(#SVGID_65_);}
	.st91{fill:url(#SVGID_66_);}
	.st92{fill:url(#SVGID_67_);}
	.st93{fill:url(#SVGID_68_);}
	.st94{fill:url(#SVGID_69_);}
	.st95{fill:url(#SVGID_70_);}
	.st96{fill:url(#SVGID_71_);}
	.st97{fill:url(#SVGID_72_);}
	.st98{fill:none;stroke:url(#SVGID_73_);stroke-width:5.1738;stroke-miterlimit:10;}
	.st99{fill:url(#SVGID_74_);}
	.st100{fill:url(#SVGID_75_);}
</style>
<g>
	<g>
		<g>
			<rect x="625.26" y="512.63" class="st0" width="157.03" height="424.7"/>
			<rect x="625.22" y="512.22" class="st1" width="44.37" height="425.2"/>
		</g>
		<g>
			<rect x="468.02" y="682.48" class="st0" width="157.03" height="254.85"/>
			<rect x="468.02" y="682.48" class="st1" width="47.19" height="254.59"/>
		</g>
		<g>
			<rect x="310.87" y="736.6" class="st0" width="157.03" height="200.74"/>
			<rect x="310.87" y="736.6" class="st1" width="46.71" height="200.47"/>
		</g>
		<g>
			<rect x="153.8" y="790.72" class="st0" width="157.02" height="146.62"/>
			<rect x="153.81" y="790.57" class="st1" width="44.37" height="146.49"/>
		</g>
	</g>
	<g>
		<g>
			<g>
				<path class="st0" d="M580.74,184.54c-7.46,9.02-15.14,17.85-22.82,26.67l-5.81,6.58l-5.21,5.81c-2.14,2.53-3.56,5.7-4.06,9.16
					l-1.75,17.13c-0.59,5.81-1.15,11.62-1.83,17.43c-1.28,11.62-2.62,23.23-4.18,34.83c-0.55,4.07-4.29,6.92-8.35,6.37
					c-3.59-0.48-6.23-3.45-6.43-6.94c-0.67-11.68-1.12-23.34-1.51-35.01c-0.24-5.83-0.36-11.66-0.5-17.49l-0.4-17.79
					c0.11-8.18,2.81-16.41,7.49-23.32l5.78-7.77l5.24-6.96c7.04-9.23,14.09-18.45,21.36-27.48c5.14-6.38,14.48-7.4,20.86-2.26
					c6.38,5.14,7.4,14.48,2.26,20.86C580.84,184.42,580.77,184.51,580.74,184.54z"/>
				<linearGradient id="SVGID_1_" gradientUnits="userSpaceOnUse" x1="563.9509" y1="140.7958" x2="546.3216" y2="224.4219">
					<stop  offset="0" style="stop-color:#00C0F3"/>
					<stop  offset="1" style="stop-color:#00C0F3;stop-opacity:0"/>
				</linearGradient>
				<path class="st2" d="M580.74,184.54c-7.46,9.02-15.14,17.85-22.82,26.67l-5.81,6.58l-5.21,5.81c-2.14,2.53-3.56,5.7-4.06,9.16
					l-1.75,17.13c-0.59,5.81-1.15,11.62-1.83,17.43c-1.28,11.62-2.62,23.23-4.18,34.83c-0.55,4.07-4.29,6.92-8.35,6.37
					c-3.59-0.48-6.23-3.45-6.43-6.94c-0.67-11.68-1.12-23.34-1.51-35.01c-0.24-5.83-0.36-11.66-0.5-17.49l-0.4-17.79
					c0.11-8.18,2.81-16.41,7.49-23.32l5.78-7.77l5.24-6.96c7.04-9.23,14.09-18.45,21.36-27.48c5.14-6.38,14.48-7.4,20.86-2.26
					c6.38,5.14,7.4,14.48,2.26,20.86C580.84,184.42,580.77,184.51,580.74,184.54z"/>
				<g>
					<path class="st3" d="M518.46,302.93l-9.7,16.47l22.33,2.27l3.93-16.72c0.47-1.98-0.81-3.98-2.81-4.32
						C528.5,299.99,522.71,299.73,518.46,302.93z"/>
					<path class="st3" d="M508.76,319.4l1.02,5.83c0.5,2.88,3.01,4.98,5.93,4.97l7.27-0.02c2.22-0.01,4.25-1.23,5.29-3.19l2.82-5.32
						L508.76,319.4z"/>
				</g>
				<g>
					<g>
						<polygon class="st4" points="516.88,290.59 538.37,291.32 536.99,304.16 518.83,302.76 						"/>
					</g>
					<polygon class="st5" points="516.88,290.59 538.37,291.32 536.99,304.16 518.83,302.76 					"/>
				</g>
			</g>
			<g>
				<g>
					<g>
						<path class="st6" d="M625.92,91.42c0.85-0.16,1.75,0.72,2.02,2c0.27,1.28-0.17,2.48-1.02,2.64c-0.85,0.16-1.75-0.72-2.02-2
							C624.56,92.74,625.07,91.58,625.92,91.42z"/>
						<path class="st6" d="M626.07,92.49c0.86-0.4,1.66-1.31,2.01-2.2c-0.74,0.69-1.76,1.08-2.77,1.05
							C625.69,91.57,626.05,92.05,626.07,92.49z"/>
						<path class="st7" d="M627.76,105.48c2.23,0.09,4.38-0.81,5.88-2.45c-3.25-2.82-6.1-6.08-8.47-9.67L627.76,105.48z"/>
						<path class="st6" d="M618.81,89.33c1.23-1.54,3.13-2.4,5.1-2.29l0,0c0.08,0.03,0.17,0.04,0.25,0.04
							c0.43-0.01,0.78-0.37,0.77-0.8c-0.01-0.43-0.37-0.78-0.8-0.77c-2.46-0.2-4.87,0.8-6.46,2.7c-0.12,0.14-0.19,0.32-0.19,0.51
							c0,0.43,0.35,0.78,0.78,0.78C618.46,89.51,618.66,89.45,618.81,89.33z"/>
						<path class="st3" d="M610.73,166.02c-22.08,0.24-25.46-11.78-25.46-11.78c6.56-6.44,6.88-18.22,5.49-28.73
							c1.69,2.37,3.8,4.45,6.56,6.29c5.28,3.47,16.74-2.11,16.74-2.11c0.03,0,0,1.96,0.15,4.78c0.36,6.88,1.87,18.96,8.13,20.83
							C622.33,155.31,635.06,165.76,610.73,166.02z"/>
						<path class="st3" d="M614.38,131.49c-0.23,1.02-0.47,2.03-0.61,3.11c-0.09,0.06-0.18,0.09-0.28,0.1
							c-5.17,1.28-10.88,0.58-16.17-2.89c-2.78-1.84-4.89-3.9-6.57-6.28c-0.34-2.67-0.82-5.27-1.31-7.66l24.04,13.15L614.38,131.49z
							"/>
						<g>
							<path class="st3" d="M630.2,113.46c-0.16,8.16-4.62,15.05-10.87,18.8l-0.03,0c-0.03,0.03-0.06,0.03-0.09,0.03
								c-1.68,1.06-3.51,1.82-5.44,2.3c-0.09,0.06-0.18,0.09-0.28,0.1c-5.17,1.28-10.88,0.58-16.17-2.89
								c-2.78-1.84-4.89-3.9-6.57-6.28c-4.33-5.94-6.13-13.86-9.23-25c-0.96-3.27-1.15-6.74-0.54-10.09
								c2.17-11.99,13.65-19.94,25.61-17.76C623.38,75.65,630.53,98.55,630.2,113.46z"/>
							<path class="st1" d="M618.12,132.7c-1.54,0.98-2.31,1.36-3.92,1.78c-0.15-2.82-0.12-4.78-0.15-4.78
								c0.15-2.46,0.33-4.93,0.33-4.93C614.38,124.86,616.96,132.7,618.12,132.7z"/>
						</g>
						<path class="st6" d="M624.4,83.36c-1.8,2.86-7.46,5.27-7.26,4.61c0.97-2.37,0.79-6.92-2.14-5.85
							c0.81,1.81,3.25,15.44,2.14,17.09c-0.6,0.9-1.18,11.81-5.82,21.42c-3.7,7.67-3.7,10.05-3.7,10.05l-15.07,2.91
							c-5.64-0.7-10.9-7.91-11.36-8.71c-1.97-3.39-7.99-7.84-11.12-10.19c-1.35-1.02-2.41-2.52-2.99-4.13
							c-1.03-2.89,1.08-13.32,1.54-18.22c0.66-7.05,4.36-13.57,14.59-17.76c6.32-2.59,11.64-8.27,18.1-10.52
							c6.45-2.25,14.13-2.15,19.58,1.98C623.56,68.05,628.9,76.2,624.4,83.36z"/>
						<path class="st3" d="M616.53,93.28c4.64,1.36,7.07,8.2,7.26,12.55c0.23,4.8-2.98,7.83-7.17,4.62c-3.15-2.48-5.4-5.92-6.41-9.8
							C609.08,95.95,611.88,91.92,616.53,93.28z"/>
					</g>
					<g id="_x3C_Group_x3E__3_">
						<g>
							<path class="st4" d="M578.93,162.2c0,0,3.43-10.59,8.6-13.93c5.17-3.34,27.89,0.13,31.45,1.52c3.56,1.39,7.15,9.6,7.15,9.6
								L578.93,162.2z"/>
							<path class="st5" d="M578.93,162.2c0,0,3.43-10.59,8.6-13.93c5.17-3.34,27.89,0.13,31.45,1.52c3.56,1.39,7.15,9.6,7.15,9.6
								L578.93,162.2z"/>
							<g>
								<g>
									<g>
										<path class="st0" d="M630.8,157.68c-3.53-0.58-4.51-1.12-8.56-1.43c-12.19-0.57-24.4-0.44-36.57,0.39
											c-4.44,0.32-8.72,1.18-12.96,2.2c-8.72,2.09-14.59,10.22-13.95,19.1c1.81,24.84,9.15,39.42,10.24,55.78
											c2.16,32.59-3.04,55.43-3.92,63.04l16.71,2.54c29.84-0.71,49.65-7.12,66.07-14.11l0,0c0,0-4.3-39.4-0.14-53.59
											c11.37-38.78,3.99-44.92,1.75-56.02C647.58,166.33,640.16,159.21,630.8,157.68z"/>
										<g>
											<path class="st8" d="M647.7,231.57c-1.36,4.63-1.81,11.93-1.81,19.64c0,16.02,1.96,33.95,1.96,33.95
												c-16.41,7-36.23,13.41-66.09,14.13l-16.71-2.55c0.89-7.6,6.08-30.45,3.95-63.03c-1.1-16.35-8.43-30.92-10.24-55.79
												c-0.65-8.87,5.22-17,13.95-19.08c4.24-1.04,8.52-1.87,12.97-2.2c12.17-0.83,24.36-0.98,36.56-0.42
												c4.04,0.33,5.01,0.86,8.55,1.45c9.38,1.54,16.8,8.64,18.67,17.89c0.8,3.98,2.28,7.33,3.29,11.78
												c1.25,5.4,1.84,12.43-0.24,24.21C651.56,217.09,650.02,223.65,647.7,231.57z"/>
										</g>
									</g>
									<g>
										<path class="st0" d="M635.6,156.48c6.1,0.86,12.14,2.08,18.21,3.1c6.05,1.17,12.1,2.37,18.13,3.66l-2.18-0.17
											c2.69,0.12,5.06,0.33,6.55,0.42c0.72,0.05,1.23,0.04,1.04,0.15c-0.04,0.06-0.39,0.17-0.8,0.44
											c-0.52,0.28-1.14,0.73-1.81,1.41c-1.39,1.39-1.95,3.26-1.91,3.81c-0.01,0.6,0.18,0.46,0.21-0.01
											c0.1-0.96-0.1-2.79-0.5-4.67l0.28,0.78c-3.06-8.83-5.97-17.73-8.63-26.72c-2.58-9.02-5.06-18.08-6.83-27.42
											c-0.68-3.59,1.68-7.04,5.27-7.72c2.74-0.52,5.42,0.76,6.82,2.98c5.05,8.05,9.39,16.38,13.62,24.76
											c4.15,8.4,8.06,16.9,11.82,25.46l0.28,0.78c1.03,2.71,2.03,5.55,2.63,9.38c0.28,1.92,0.47,4.21,0.03,7.18
											c-0.41,2.9-2,7.07-5.14,10.13c-1.53,1.54-3.19,2.62-4.77,3.44c-1.51,0.76-2.99,1.29-4.2,1.62c-2.53,0.7-4.42,0.9-6.1,1.08
											c-3.31,0.31-5.76,0.33-7.87,0.45l-0.34,0.02l-1.85-0.19c-6.13-0.64-12.25-1.38-18.37-2.15
											c-6.09-0.91-12.21-1.64-18.28-2.72c-8.07-1.44-13.44-9.14-12.01-17.21C620.33,160.69,627.74,155.38,635.6,156.48z"/>
									</g>
									<g class="st9">
										<path class="st0" d="M635.6,156.48c6.1,0.86,12.14,2.08,18.21,3.1c6.05,1.17,12.1,2.37,18.13,3.66l-2.18-0.17
											c2.69,0.12,5.06,0.33,6.55,0.42c0.72,0.05,1.23,0.04,1.04,0.15c-0.04,0.06-0.39,0.17-0.8,0.44
											c-0.52,0.28-1.14,0.73-1.81,1.41c-1.39,1.39-1.95,3.26-1.91,3.81c-0.01,0.6,0.18,0.46,0.21-0.01
											c0.1-0.96-0.1-2.79-0.5-4.67l0.28,0.78c-3.06-8.83-5.97-17.73-8.63-26.72c-2.58-9.02-5.06-18.08-6.83-27.42
											c-0.68-3.59,1.68-7.04,5.27-7.72c2.74-0.52,5.42,0.76,6.82,2.98c5.05,8.05,9.39,16.38,13.62,24.76
											c4.15,8.4,8.06,16.9,11.82,25.46l0.28,0.78c1.03,2.71,2.03,5.55,2.63,9.38c0.28,1.92,0.47,4.21,0.03,7.18
											c-0.41,2.9-2,7.07-5.14,10.13c-1.53,1.54-3.19,2.62-4.77,3.44c-1.51,0.76-2.99,1.29-4.2,1.62c-2.53,0.7-4.42,0.9-6.1,1.08
											c-3.31,0.31-5.76,0.33-7.87,0.45l-0.34,0.02l-1.85-0.19c-6.13-0.64-12.25-1.38-18.37-2.15
											c-6.09-0.91-12.21-1.64-18.28-2.72c-8.07-1.44-13.44-9.14-12.01-17.21C620.33,160.69,627.74,155.38,635.6,156.48z"/>
									</g>
								</g>
							</g>
						</g>
					</g>
					<g id="_x3C_Group_x3E__2_">
						<g>
							<linearGradient id="SVGID_2_" gradientUnits="userSpaceOnUse" x1="554.1362" y1="105.9709" x2="638.6663" y2="199.5417">
								<stop  offset="0" style="stop-color:#00C0F3"/>
								<stop  offset="1" style="stop-color:#00C0F3;stop-opacity:0"/>
							</linearGradient>
							<path class="st10" d="M578.93,162.2c0,0,3.43-10.59,8.6-13.93c5.17-3.34,27.89,0.13,31.45,1.52c3.56,1.39,7.15,9.6,7.15,9.6
								L578.93,162.2z"/>
							<linearGradient id="SVGID_3_" gradientUnits="userSpaceOnUse" x1="554.1362" y1="105.9709" x2="638.6663" y2="199.5417">
								<stop  offset="0" style="stop-color:#00C0F3"/>
								<stop  offset="1" style="stop-color:#00C0F3;stop-opacity:0"/>
							</linearGradient>
							<path class="st11" d="M578.93,162.2c0,0,3.43-10.59,8.6-13.93c5.17-3.34,27.89,0.13,31.45,1.52c3.56,1.39,7.15,9.6,7.15,9.6
								L578.93,162.2z"/>
							<g>
								<g>
									<g>
										<linearGradient id="SVGID_4_" gradientUnits="userSpaceOnUse" x1="519.7999" y1="136.9897" x2="604.33" y2="230.5605">
											<stop  offset="0" style="stop-color:#00C0F3"/>
											<stop  offset="1" style="stop-color:#00C0F3;stop-opacity:0"/>
										</linearGradient>
										<path class="st12" d="M630.8,157.68c-3.53-0.58-4.51-1.12-8.56-1.43c-12.19-0.57-24.4-0.44-36.57,0.39
											c-4.44,0.32-8.72,1.18-12.96,2.2c-8.72,2.09-14.59,10.22-13.95,19.1c1.81,24.84,9.15,39.42,10.24,55.78
											c2.16,32.59-3.04,55.43-3.92,63.04l16.71,2.54c29.84-0.71,49.65-7.12,66.07-14.11l0,0c0,0-4.3-39.4-0.14-53.59
											c11.37-38.78,3.99-44.92,1.75-56.02C647.58,166.33,640.16,159.21,630.8,157.68z"/>
										<g>
											<linearGradient id="SVGID_5_" gradientUnits="userSpaceOnUse" x1="519.7997" y1="136.9899" x2="604.3298" y2="230.5607">
												<stop  offset="0" style="stop-color:#00C0F3"/>
												<stop  offset="1" style="stop-color:#00C0F3;stop-opacity:0"/>
											</linearGradient>
											<path class="st13" d="M647.7,231.57c-1.36,4.63-1.81,11.93-1.81,19.64c0,16.02,1.96,33.95,1.96,33.95
												c-16.41,7-36.23,13.41-66.09,14.13l-16.71-2.55c0.89-7.6,6.08-30.45,3.95-63.03c-1.1-16.35-8.43-30.92-10.24-55.79
												c-0.65-8.87,5.22-17,13.95-19.08c4.24-1.04,8.52-1.87,12.97-2.2c12.17-0.83,24.36-0.98,36.56-0.42
												c4.04,0.33,5.01,0.86,8.55,1.45c9.38,1.54,16.8,8.64,18.67,17.89c0.8,3.98,2.28,7.33,3.29,11.78
												c1.25,5.4,1.84,12.43-0.24,24.21C651.56,217.09,650.02,223.65,647.7,231.57z"/>
										</g>
									</g>
									<g>
										<linearGradient id="SVGID_6_" gradientUnits="userSpaceOnUse" x1="585.9193" y1="77.2586" x2="670.4495" y2="170.8294">
											<stop  offset="0" style="stop-color:#00C0F3"/>
											<stop  offset="1" style="stop-color:#00C0F3;stop-opacity:0"/>
										</linearGradient>
										<path class="st14" d="M635.6,156.48c6.1,0.86,12.14,2.08,18.21,3.1c6.05,1.17,12.1,2.37,18.13,3.66l-2.18-0.17
											c2.69,0.12,5.06,0.33,6.55,0.42c0.72,0.05,1.23,0.04,1.04,0.15c-0.04,0.06-0.39,0.17-0.8,0.44
											c-0.52,0.28-1.14,0.73-1.81,1.41c-1.39,1.39-1.95,3.26-1.91,3.81c-0.01,0.6,0.18,0.46,0.21-0.01
											c0.1-0.96-0.1-2.79-0.5-4.67l0.28,0.78c-3.06-8.83-5.97-17.73-8.63-26.72c-2.58-9.02-5.06-18.08-6.83-27.42
											c-0.68-3.59,1.68-7.04,5.27-7.72c2.74-0.52,5.42,0.76,6.82,2.98c5.05,8.05,9.39,16.38,13.62,24.76
											c4.15,8.4,8.06,16.9,11.82,25.46l0.28,0.78c1.03,2.71,2.03,5.55,2.63,9.38c0.28,1.92,0.47,4.21,0.03,7.18
											c-0.41,2.9-2,7.07-5.14,10.13c-1.53,1.54-3.19,2.62-4.77,3.44c-1.51,0.76-2.99,1.29-4.2,1.62c-2.53,0.7-4.42,0.9-6.1,1.08
											c-3.31,0.31-5.76,0.33-7.87,0.45l-0.34,0.02l-1.85-0.19c-6.13-0.64-12.25-1.38-18.37-2.15
											c-6.09-0.91-12.21-1.64-18.28-2.72c-8.07-1.44-13.44-9.14-12.01-17.21C620.33,160.69,627.74,155.38,635.6,156.48z"/>
									</g>
									<g class="st9">
										<linearGradient id="SVGID_7_" gradientUnits="userSpaceOnUse" x1="585.9193" y1="77.2586" x2="670.4495" y2="170.8294">
											<stop  offset="0" style="stop-color:#00C0F3"/>
											<stop  offset="1" style="stop-color:#00C0F3;stop-opacity:0"/>
										</linearGradient>
										<path class="st15" d="M635.6,156.48c6.1,0.86,12.14,2.08,18.21,3.1c6.05,1.17,12.1,2.37,18.13,3.66l-2.18-0.17
											c2.69,0.12,5.06,0.33,6.55,0.42c0.72,0.05,1.23,0.04,1.04,0.15c-0.04,0.06-0.39,0.17-0.8,0.44
											c-0.52,0.28-1.14,0.73-1.81,1.41c-1.39,1.39-1.95,3.26-1.91,3.81c-0.01,0.6,0.18,0.46,0.21-0.01
											c0.1-0.96-0.1-2.79-0.5-4.67l0.28,0.78c-3.06-8.83-5.97-17.73-8.63-26.72c-2.58-9.02-5.06-18.08-6.83-27.42
											c-0.68-3.59,1.68-7.04,5.27-7.72c2.74-0.52,5.42,0.76,6.82,2.98c5.05,8.05,9.39,16.38,13.62,24.76
											c4.15,8.4,8.06,16.9,11.82,25.46l0.28,0.78c1.03,2.71,2.03,5.55,2.63,9.38c0.28,1.92,0.47,4.21,0.03,7.18
											c-0.41,2.9-2,7.07-5.14,10.13c-1.53,1.54-3.19,2.62-4.77,3.44c-1.51,0.76-2.99,1.29-4.2,1.62c-2.53,0.7-4.42,0.9-6.1,1.08
											c-3.31,0.31-5.76,0.33-7.87,0.45l-0.34,0.02l-1.85-0.19c-6.13-0.64-12.25-1.38-18.37-2.15
											c-6.09-0.91-12.21-1.64-18.28-2.72c-8.07-1.44-13.44-9.14-12.01-17.21C620.33,160.69,627.74,155.38,635.6,156.48z"/>
									</g>
								</g>
							</g>
						</g>
					</g>
					<g>
						<g>
							<g>
								<g>
									<polygon class="st4" points="745.35,99.34 824.91,96.91 823.69,71.98 744.28,77.21 									"/>
									<polygon class="st4" points="685.21,100.3 749.55,98.23 748.57,77.79 684.34,81.93 									"/>
									<polygon class="st6" points="741.05,98.75 745.27,99.2 744.22,77.36 740.07,78.21 									"/>
									<polygon class="st1" points="741.05,98.75 745.27,99.2 744.22,77.36 740.07,78.21 									"/>
									<polygon class="st6" points="745.28,99.35 749.6,99.21 748.53,76.93 744.22,77.21 									"/>
									<polygon class="st6" points="675.22,97.28 681.6,100.24 680.76,82.34 674.68,85.9 									"/>
									<g>
										<polygon class="st6" points="642.52,97.06 661.44,96.07 661.05,87.69 642.14,88.82 										"/>
										<polygon class="st1" points="642.52,97.06 661.44,96.07 661.05,87.69 642.14,88.82 										"/>
									</g>
									<polygon class="st6" points="658.86,97.76 679.91,96.96 679.35,85.22 658.33,86.47 									"/>
									<polygon class="st1" points="675.22,97.28 681.6,100.24 680.76,82.34 674.68,85.9 									"/>
									<polygon class="st6" points="681.72,100.41 685.21,100.3 684.34,81.93 680.86,82.16 									"/>
									<polygon class="st6" points="822.2,96.99 834.68,96.54 833.46,71.52 820.99,72.16 									"/>
									<g>
										<path class="st4" d="M827.74,98.76l15.92-0.44l0.4-1.1c3.4-9.44,2.73-19.87-1.87-28.79v0l-15.89,1.1l0.35,0.83
											C830.43,79.38,830.81,89.47,827.74,98.76L827.74,98.76z"/>
									</g>
									<g>
										<g class="st16">
											<path class="st17" d="M810.78,74.74l6.44-0.4l0.13,2.75l-6.54,0.38C810.65,76.57,810.7,75.66,810.78,74.74z"/>
											<path class="st17" d="M806.88,75.05c-0.07,0.91-0.11,1.82,0.03,2.71l-55.85,3.16l-0.13-2.48L806.88,75.05z"/>
										</g>
										<g class="st16">
											<polygon class="st17" points="685.7,83.38 685.82,85.61 738.3,82.49 738.18,80.06 											"/>
										</g>
										<g class="st16">
											<polygon class="st17" points="827.71,70.38 827.87,73.16 840.31,72.34 840.18,69.5 											"/>
										</g>
									</g>
								</g>
								<g>
									<path class="st18" d="M842.06,94.64c-0.08,0.95-0.13,1.9,0.03,2.84l-12.89,0.44l-0.16-2.79L842.06,94.64z"/>
									<path class="st18" d="M818.97,93.08c-0.07,0.92-0.12,1.84,0.03,2.75l-68.32,2.44l-0.13-2.48L818.97,93.08z"/>
									<path class="st18" d="M737.67,95.48c-0.05,0.81-0.08,1.63,0.03,2.44l-50.76,1.78l-0.12-2.23L737.67,95.48z"/>
								</g>
							</g>
							<g>
								<path class="st4" d="M638.27,89.14l0.17,8.02c0.03,1.36,1.26,2.45,2.76,2.42l6.51-0.11l-0.27-13.13l-6.5,0.24
									C639.43,86.63,638.24,87.78,638.27,89.14z"/>
							</g>
						</g>
						<path class="st19" d="M671.89,111.37l2.47-14.94c0.1-0.62,0.13-1.25,0.07-1.88l-0.71-7.92c-0.12-1.02-0.84-2.03-1.95-2.37
							l-11.93-0.14c-1.57-0.5-3.3,0.26-3.83,1.66l-2.14,9.79c-0.16,0.73-0.14,1.49,0.05,2.22l3.54,13.47c0.34,1.12,1.38,2,2.67,2.25
							l7.8,0.07C669.76,113.94,671.52,112.96,671.89,111.37z"/>
						<g>
							<polygon class="st4" points="678.91,117.67 658.62,124.8 655.24,112.34 672.66,107.04 							"/>
							<polygon class="st5" points="678.91,117.67 658.62,124.8 655.24,112.34 672.66,107.04 							"/>
						</g>
					</g>
					<path class="st1" d="M652.51,211.57l-15.55-29.35l15.79,5.13C654,192.76,654.59,199.79,652.51,211.57z"/>
				</g>
				<g>
					<polygon class="st19" points="732.67,455.22 729.46,495.08 747.6,495.43 752.58,454.36 					"/>
					<g>
						<path class="st6" d="M750.47,489.98l-20.7,0.42c-0.78,0.02-1.45,0.61-1.61,1.43l-3.56,18.15c-0.33,1.61,0.62,3.19,2.11,3.52
							c0.19,0.04,0.39,0.07,0.58,0.06c7.46-0.29,14.09-0.86,23.38-1.04c10.96-0.22,8.19,1.25,21.08,1.18
							c7.77-0.05,9.09-9.55,5.8-9.95c-15.09-1.73-16.7-6.58-22.57-12.26C753.71,490.42,752.1,489.88,750.47,489.98z"/>
					</g>
					<g>
						<polygon class="st19" points="534.54,626.05 527.2,662.66 546.71,668.62 556.11,631.23 						"/>
						<path d="M638.92,286.78c0,0-27.77,162.06-42.85,209.75c-10.74,33.96-39.54,145.06-39.54,145.06l-26.13-5.79
							c0,0-2.92-75.62,11.61-114.66c4.96-13.32,11.43-25.33,13.18-33.59c7.48-35.27-7.94-99.26-1.12-146.99
							c3.7-25.87,11.59-44.32,11.59-44.32L638.92,286.78z"/>
						<path d="M596.07,496.52c-10.74,33.96-39.54,145.06-39.54,145.06l-26.13-5.79c0,0-2.92-75.62,11.61-114.66
							c4.96-13.32,11.43-25.33,13.18-33.59c7.48-35.27-7.94-99.26-1.12-146.99c3.7-25.87,11.59-44.32,11.59-44.32"/>
						<polygon class="st20" points="604.87,336.87 618.85,391.76 629.08,339.25 						"/>
						<path d="M753.85,474.34l-25.53,0.82c0,0,1.88-33.41,1.88-82.14c0-7.51,1.17-14.91,2.81-21.55
							c3.64-14.89,9.53-25.98,9.53-25.98s-2.73,0.16-7.4,0.37c-14.44,0.74-103.93,5.37-105.68,5.23c-1.33-0.13-9.46,0.95-24.04-6.16
							c-27.09-13.21-27.36-50.29-27.36-50.29l69.77-9.47c0,0.05,1.14,0.21,17.94,0.5c50.93,0.88,113.51,2.85,124.5,20.33
							C805.72,330.6,753.85,474.34,753.85,474.34z"/>
						<g>
							<path class="st6" d="M547.69,659.14l-21.41,0.29c-0.81,0.01-1.47,0.61-1.59,1.43l-2.66,18.3c-0.25,1.62,0.82,3.22,2.39,3.57
								c0.2,0.04,0.4,0.07,0.61,0.07c7.71-0.24,14.54-0.78,24.15-0.9c11.34-0.15,8.56,1.31,21.9,1.33c8.04,0,8.88-9.58,5.44-10.01
								c-15.72-1.84-17.67-6.75-24.07-12.52C551.06,659.61,549.37,659.05,547.69,659.14z"/>
						</g>
					</g>
				</g>
			</g>
		</g>
		<path class="st21" d="M733.02,371.48c3.64-14.89,9.53-25.98,9.53-25.98s-2.73,0.16-7.4,0.37c-0.21-0.08-0.42-0.13-0.69-0.13
			l18.61-1.57L733.02,371.48z"/>
	</g>
</g>
</svg>
