<?xml version="1.0" encoding="utf-8"?>
<!-- Generator: Adobe Illustrator 25.2.1, SVG Export Plug-In . SVG Version: 6.00 Build 0)  -->
<svg version="1.1" id="Layer_1" xmlns="http://www.w3.org/2000/svg" xmlns:xlink="http://www.w3.org/1999/xlink" x="0px" y="0px"
	 viewBox="0 0 128.51 124" style="enable-background:new 0 0 128.51 124;" xml:space="preserve">
<style type="text/css">
	.st0{fill:#002680;}
	.st1{opacity:0.65;}
	.st2{fill:url(#SVGID_1_);}
	.st3{fill:url(#SVGID_2_);}
	.st4{fill:#FFFFFF;}
	.st5{fill:url(#SVGID_3_);}
	.st6{fill:url(#SVGID_4_);}
	.st7{fill:url(#SVGID_5_);}
	.st8{fill:url(#SVGID_6_);}
	.st9{fill:url(#SVGID_7_);}
	.st10{fill:url(#SVGID_8_);}
	.st11{fill:url(#SVGID_9_);}
	.st12{fill:url(#SVGID_10_);}
	.st13{fill:url(#SVGID_11_);}
	.st14{fill:url(#SVGID_12_);}
	.st15{fill:url(#SVGID_13_);}
	.st16{fill:url(#SVGID_14_);}
	.st17{fill:url(#SVGID_15_);}
	.st18{fill:url(#SVGID_16_);}
	.st19{fill:url(#SVGID_17_);}
	.st20{fill:url(#SVGID_18_);}
	.st21{fill:url(#SVGID_19_);}
	.st22{fill:url(#SVGID_20_);}
	.st23{fill:url(#SVGID_21_);}
	.st24{fill:url(#SVGID_22_);}
	.st25{fill:url(#SVGID_23_);}
	.st26{fill:url(#SVGID_24_);}
	.st27{fill:url(#SVGID_25_);}
	.st28{fill:url(#SVGID_26_);}
	.st29{fill:url(#SVGID_27_);}
	.st30{fill:url(#SVGID_28_);}
	.st31{fill:url(#SVGID_29_);}
	.st32{fill:url(#SVGID_30_);}
	.st33{fill:url(#SVGID_31_);}
	.st34{fill:url(#SVGID_32_);}
	.st35{fill:url(#SVGID_33_);}
	.st36{fill:url(#SVGID_34_);}
	.st37{fill:url(#SVGID_35_);}
	.st38{fill:url(#SVGID_36_);}
	.st39{fill:url(#SVGID_37_);}
	.st40{fill:url(#SVGID_38_);}
	.st41{fill:url(#SVGID_39_);}
	.st42{fill:url(#SVGID_40_);}
	.st43{fill:url(#SVGID_41_);}
	.st44{fill:url(#SVGID_42_);}
	.st45{fill:url(#SVGID_43_);}
	.st46{fill:url(#SVGID_44_);}
	.st47{fill:url(#SVGID_45_);}
	.st48{fill:url(#SVGID_46_);}
	.st49{fill:url(#SVGID_47_);}
	.st50{fill:url(#SVGID_48_);}
	.st51{fill:url(#SVGID_49_);}
	.st52{fill:url(#SVGID_50_);}
	.st53{fill:url(#SVGID_51_);}
	.st54{fill:url(#SVGID_52_);}
	.st55{fill:url(#SVGID_53_);}
</style>
<g>
	<path class="st0" d="M51.66,50.8h7c0.77,0,1.4-0.63,1.4-1.4s-0.63-1.4-1.4-1.4h-7c-0.77,0-1.4,0.63-1.4,1.4S50.89,50.8,51.66,50.8z
		"/>
	<path class="st0" d="M65.66,48.01h-1.4c-0.77,0-1.4,0.63-1.4,1.4s0.63,1.4,1.4,1.4h1.4c0.77,0,1.4-0.63,1.4-1.4
		S66.43,48.01,65.66,48.01z"/>
	<path class="st0" d="M51.66,56.4h1.4c0.77,0,1.4-0.63,1.4-1.4s-0.63-1.4-1.4-1.4h-1.4c-0.77,0-1.4,0.63-1.4,1.4
		S50.89,56.4,51.66,56.4z"/>
	<path class="st0" d="M65.66,53.6h-7c-0.77,0-1.4,0.63-1.4,1.4s0.63,1.4,1.4,1.4h7c0.77,0,1.4-0.63,1.4-1.4S66.43,53.6,65.66,53.6z"
		/>
	<path class="st0" d="M51.66,62h13.99c0.77,0,1.4-0.63,1.4-1.4s-0.63-1.4-1.4-1.4H51.66c-0.77,0-1.4,0.63-1.4,1.4S50.89,62,51.66,62
		z"/>
	<path class="st0" d="M71.25,59.2V62c0,0.37-0.15,0.73-0.41,0.99c-0.26,0.26-0.62,0.41-0.99,0.41c-0.77,0-1.4,0.63-1.4,1.4
		c0,0.77,0.63,1.4,1.4,1.4c1.11,0,2.18-0.44,2.97-1.23c0.79-0.79,1.23-1.86,1.23-2.97v-2.8c0-0.74,0.29-1.45,0.82-1.98
		c0.52-0.52,1.24-0.82,1.98-0.82c0.77,0,1.4-0.63,1.4-1.4s-0.63-1.4-1.4-1.4c-0.74,0-1.45-0.29-1.98-0.82
		c-0.52-0.52-0.82-1.24-0.82-1.98v-2.8c0-1.11-0.44-2.18-1.23-2.97c-0.79-0.79-1.86-1.23-2.97-1.23c-0.77,0-1.4,0.63-1.4,1.4
		s0.63,1.4,1.4,1.4c0.37,0,0.73,0.15,0.99,0.41s0.41,0.62,0.41,0.99v2.8c0.01,1.61,0.71,3.14,1.93,4.2
		C71.97,56.06,71.26,57.59,71.25,59.2L71.25,59.2z"/>
	<path class="st0" d="M46.06,50.8v-2.8c0-0.77,0.63-1.4,1.4-1.4c0.77,0,1.4-0.63,1.4-1.4c0-0.77-0.63-1.4-1.4-1.4
		c-1.11,0-2.18,0.44-2.97,1.23c-0.79,0.79-1.23,1.86-1.23,2.97v2.8c0,0.74-0.29,1.45-0.82,1.98c-0.52,0.52-1.24,0.82-1.98,0.82
		c-0.77,0-1.4,0.63-1.4,1.4c0,0.77,0.63,1.4,1.4,1.4c0.74,0,1.45,0.29,1.98,0.82c0.52,0.52,0.82,1.24,0.82,1.98V62
		c0,1.11,0.44,2.18,1.23,2.97s1.86,1.23,2.97,1.23c0.77,0,1.4-0.63,1.4-1.4s-0.63-1.4-1.4-1.4c-0.77,0-1.4-0.63-1.4-1.4v-2.8
		c-0.01-1.61-0.71-3.14-1.93-4.2C45.35,53.95,46.05,52.42,46.06,50.8L46.06,50.8z"/>
	<g>
		<linearGradient id="SVGID_1_" gradientUnits="userSpaceOnUse" x1="55.4274" y1="20.0049" x2="54.9524" y2="72.2493">
			<stop  offset="0" style="stop-color:#10BEF0"/>
			<stop  offset="1" style="stop-color:#10BEF0;stop-opacity:0"/>
		</linearGradient>
		<path class="st2" d="M51.66,50.8h7c0.77,0,1.4-0.63,1.4-1.4s-0.63-1.4-1.4-1.4h-7c-0.77,0-1.4,0.63-1.4,1.4S50.89,50.8,51.66,50.8
			z"/>
		<linearGradient id="SVGID_2_" gradientUnits="userSpaceOnUse" x1="65.2229" y1="20.0939" x2="64.7479" y2="72.3383">
			<stop  offset="0" style="stop-color:#10BEF0"/>
			<stop  offset="1" style="stop-color:#10BEF0;stop-opacity:0"/>
		</linearGradient>
		<path class="st3" d="M65.66,48.01h-1.4c-0.77,0-1.4,0.63-1.4,1.4s0.63,1.4,1.4,1.4h1.4c0.77,0,1.4-0.63,1.4-1.4
			S66.43,48.01,65.66,48.01z"/>
		<linearGradient id="SVGID_3_" gradientUnits="userSpaceOnUse" x1="52.6795" y1="19.9799" x2="52.2046" y2="72.2243">
			<stop  offset="0" style="stop-color:#10BEF0"/>
			<stop  offset="1" style="stop-color:#10BEF0;stop-opacity:0"/>
		</linearGradient>
		<path class="st5" d="M51.66,56.4h1.4c0.77,0,1.4-0.63,1.4-1.4s-0.63-1.4-1.4-1.4h-1.4c-0.77,0-1.4,0.63-1.4,1.4
			S50.89,56.4,51.66,56.4z"/>
		<linearGradient id="SVGID_4_" gradientUnits="userSpaceOnUse" x1="62.4751" y1="20.0689" x2="62.0001" y2="72.3134">
			<stop  offset="0" style="stop-color:#10BEF0"/>
			<stop  offset="1" style="stop-color:#10BEF0;stop-opacity:0"/>
		</linearGradient>
		<path class="st6" d="M65.66,53.6h-7c-0.77,0-1.4,0.63-1.4,1.4s0.63,1.4,1.4,1.4h7c0.77,0,1.4-0.63,1.4-1.4S66.43,53.6,65.66,53.6z
			"/>
		<linearGradient id="SVGID_5_" gradientUnits="userSpaceOnUse" x1="59.0275" y1="20.0376" x2="58.5526" y2="72.282">
			<stop  offset="0" style="stop-color:#10BEF0"/>
			<stop  offset="1" style="stop-color:#10BEF0;stop-opacity:0"/>
		</linearGradient>
		<path class="st7" d="M51.66,62h13.99c0.77,0,1.4-0.63,1.4-1.4s-0.63-1.4-1.4-1.4H51.66c-0.77,0-1.4,0.63-1.4,1.4
			S50.89,62,51.66,62z"/>
		<linearGradient id="SVGID_6_" gradientUnits="userSpaceOnUse" x1="73.6254" y1="20.1703" x2="73.1504" y2="72.4147">
			<stop  offset="0" style="stop-color:#10BEF0"/>
			<stop  offset="1" style="stop-color:#10BEF0;stop-opacity:0"/>
		</linearGradient>
		<path class="st8" d="M71.25,59.2V62c0,0.37-0.15,0.73-0.41,0.99c-0.26,0.26-0.62,0.41-0.99,0.41c-0.77,0-1.4,0.63-1.4,1.4
			c0,0.77,0.63,1.4,1.4,1.4c1.11,0,2.18-0.44,2.97-1.23c0.79-0.79,1.23-1.86,1.23-2.97v-2.8c0-0.74,0.29-1.45,0.82-1.98
			c0.52-0.52,1.24-0.82,1.98-0.82c0.77,0,1.4-0.63,1.4-1.4s-0.63-1.4-1.4-1.4c-0.74,0-1.45-0.29-1.98-0.82
			c-0.52-0.52-0.82-1.24-0.82-1.98v-2.8c0-1.11-0.44-2.18-1.23-2.97c-0.79-0.79-1.86-1.23-2.97-1.23c-0.77,0-1.4,0.63-1.4,1.4
			s0.63,1.4,1.4,1.4c0.37,0,0.73,0.15,0.99,0.41s0.41,0.62,0.41,0.99v2.8c0.01,1.61,0.71,3.14,1.93,4.2
			C71.97,56.06,71.26,57.59,71.25,59.2L71.25,59.2z"/>
		<linearGradient id="SVGID_7_" gradientUnits="userSpaceOnUse" x1="44.3279" y1="19.904" x2="43.853" y2="72.1484">
			<stop  offset="0" style="stop-color:#10BEF0"/>
			<stop  offset="1" style="stop-color:#10BEF0;stop-opacity:0"/>
		</linearGradient>
		<path class="st9" d="M46.06,50.8v-2.8c0-0.77,0.63-1.4,1.4-1.4c0.77,0,1.4-0.63,1.4-1.4c0-0.77-0.63-1.4-1.4-1.4
			c-1.11,0-2.18,0.44-2.97,1.23c-0.79,0.79-1.23,1.86-1.23,2.97v2.8c0,0.74-0.29,1.45-0.82,1.98c-0.52,0.52-1.24,0.82-1.98,0.82
			c-0.77,0-1.4,0.63-1.4,1.4c0,0.77,0.63,1.4,1.4,1.4c0.74,0,1.45,0.29,1.98,0.82c0.52,0.52,0.82,1.24,0.82,1.98V62
			c0,1.11,0.44,2.18,1.23,2.97s1.86,1.23,2.97,1.23c0.77,0,1.4-0.63,1.4-1.4s-0.63-1.4-1.4-1.4c-0.77,0-1.4-0.63-1.4-1.4v-2.8
			c-0.01-1.61-0.71-3.14-1.93-4.2C45.35,53.95,46.05,52.42,46.06,50.8L46.06,50.8z"/>
	</g>
	<path class="st0" d="M99.24,52.2H85.25c-1.11,0-2.18,0.44-2.97,1.23c-0.79,0.79-1.23,1.86-1.23,2.97v27.99
		c0,1.11,0.44,2.18,1.23,2.97c0.79,0.79,1.86,1.23,2.97,1.23h13.99c1.11,0,2.18-0.44,2.97-1.23s1.23-1.86,1.23-2.97V56.4
		c0-1.11-0.44-2.18-1.23-2.97C101.43,52.65,100.36,52.2,99.24,52.2L99.24,52.2z M83.85,60.6h16.79v19.59H83.85V60.6z M85.25,55
		h13.99c0.37,0,0.73,0.15,0.99,0.41c0.26,0.26,0.41,0.62,0.41,0.99v1.4H83.85v-1.4C83.85,55.63,84.48,55,85.25,55z M99.24,85.79
		H85.25c-0.77,0-1.4-0.63-1.4-1.4v-1.4h16.79v1.4c0,0.37-0.15,0.73-0.41,0.99C99.97,85.64,99.61,85.79,99.24,85.79z"/>
	<path class="st0" d="M96.44,63.4h-8.4c-0.77,0-1.4,0.63-1.4,1.4v5.6c0,0.37,0.15,0.73,0.41,0.99c0.26,0.26,0.62,0.41,0.99,0.41h8.4
		c0.37,0,0.73-0.15,0.99-0.41c0.26-0.26,0.41-0.62,0.41-0.99v-5.6c0-0.37-0.15-0.73-0.41-0.99C97.17,63.55,96.82,63.4,96.44,63.4z
		 M95.05,69h-5.6v-2.8h5.6V69z"/>
	<path class="st0" d="M89.45,74.6h-1.4c-0.77,0-1.4,0.63-1.4,1.4c0,0.77,0.63,1.4,1.4,1.4h1.4c0.77,0,1.4-0.63,1.4-1.4
		C90.85,75.22,90.22,74.6,89.45,74.6z"/>
	<path class="st0" d="M96.44,74.6h-1.4c-0.77,0-1.4,0.63-1.4,1.4c0,0.77,0.63,1.4,1.4,1.4h1.4c0.77,0,1.4-0.63,1.4-1.4
		C97.84,75.22,97.22,74.6,96.44,74.6z"/>
	<linearGradient id="SVGID_8_" gradientUnits="userSpaceOnUse" x1="114.0701" y1="60.1858" x2="82.6048" y2="70.8721">
		<stop  offset="0" style="stop-color:#10BEF0"/>
		<stop  offset="1" style="stop-color:#10BEF0;stop-opacity:0"/>
	</linearGradient>
	<path class="st10" d="M96.44,63.4h-8.4c-0.77,0-1.4,0.63-1.4,1.4v5.6c0,0.37,0.15,0.73,0.41,0.99c0.26,0.26,0.62,0.41,0.99,0.41
		h8.4c0.37,0,0.73-0.15,0.99-0.41c0.26-0.26,0.41-0.62,0.41-0.99v-5.6c0-0.37-0.15-0.73-0.41-0.99
		C97.17,63.55,96.82,63.4,96.44,63.4z M95.05,69h-5.6v-2.8h5.6V69z"/>
	<linearGradient id="SVGID_9_" gradientUnits="userSpaceOnUse" x1="117.3777" y1="54.0247" x2="78.0757" y2="84.184">
		<stop  offset="0" style="stop-color:#10BEF0"/>
		<stop  offset="1" style="stop-color:#10BEF0;stop-opacity:0"/>
	</linearGradient>
	<path class="st11" d="M89.45,74.6h-1.4c-0.77,0-1.4,0.63-1.4,1.4c0,0.77,0.63,1.4,1.4,1.4h1.4c0.77,0,1.4-0.63,1.4-1.4
		C90.85,75.22,90.22,74.6,89.45,74.6z"/>
	<linearGradient id="SVGID_10_" gradientUnits="userSpaceOnUse" x1="119.9711" y1="57.4043" x2="80.669" y2="87.5635">
		<stop  offset="0" style="stop-color:#10BEF0"/>
		<stop  offset="1" style="stop-color:#10BEF0;stop-opacity:0"/>
	</linearGradient>
	<path class="st12" d="M96.44,74.6h-1.4c-0.77,0-1.4,0.63-1.4,1.4c0,0.77,0.63,1.4,1.4,1.4h1.4c0.77,0,1.4-0.63,1.4-1.4
		C97.84,75.22,97.22,74.6,96.44,74.6z"/>
	<path class="st0" d="M32.07,85.79c-1.11,0-2.18-0.44-2.97-1.23c-0.79-0.79-1.23-1.86-1.23-2.97v-1.4h21.52l1.02,2.03
		c0.24,0.47,0.72,0.77,1.25,0.77h13.99c0.53,0,1.01-0.3,1.25-0.77l1.02-2.03h10.33v-2.8h-11.2c-0.53,0-1.01,0.3-1.25,0.77
		l-1.02,2.03H52.53l-1.02-2.03c-0.24-0.47-0.72-0.77-1.25-0.77H32.07v-2.8h46.18v-2.8H32.07V38.21h53.18v11.2h2.8v-12.6
		c0-0.37-0.15-0.73-0.41-0.99c-0.26-0.26-0.62-0.41-0.99-0.41H30.67c-0.77,0-1.4,0.63-1.4,1.4v40.58h-1.4
		c-0.74,0-1.45,0.29-1.98,0.82s-0.82,1.24-0.82,1.98v1.4c0,1.86,0.74,3.64,2.05,4.95c1.31,1.31,3.09,2.05,4.95,2.05h47.58
		c-0.64-0.82-1.09-1.78-1.3-2.8L32.07,85.79z"/>
</g>
</svg>
