<svg id="Layer_1" data-name="Layer 1" xmlns="http://www.w3.org/2000/svg" xmlns:xlink="http://www.w3.org/1999/xlink" viewBox="0 0 24 24"><defs><style>.cls-1{fill:#002680;}.cls-2{fill:url(#linear-gradient);}.cls-3{fill:url(#linear-gradient-2);}.cls-4{fill:url(#linear-gradient-3);}.cls-5{fill:url(#linear-gradient-4);}</style><linearGradient id="linear-gradient" x1="10.78" y1="15.66" x2="13.22" y2="15.66" gradientUnits="userSpaceOnUse"><stop offset="0" stop-color="#10bef0"/><stop offset="1" stop-color="#10bef0" stop-opacity="0"/></linearGradient><linearGradient id="linear-gradient-2" x1="12.09" y1="9.82" x2="9.01" y2="9.87" xlink:href="#linear-gradient"/><linearGradient id="linear-gradient-3" x1="6.81" y1="8.79" x2="15.97" y2="8.79" xlink:href="#linear-gradient"/><linearGradient id="linear-gradient-4" x1="13.52" y1="9.88" x2="16.29" y2="12.25" xlink:href="#linear-gradient"/></defs><path class="cls-1" d="M20.85,14.75H3.15a.31.31,0,0,1-.31-.31V4.37A1.22,1.22,0,0,1,4.06,3.15H19.94a1.22,1.22,0,0,1,1.22,1.22V14.44a.31.31,0,0,1-.31.31Zm-17.4-.61h17.1V4.37a.61.61,0,0,0-.61-.61H4.06a.61.61,0,0,0-.61.61Z"/><path class="cls-1" d="M19.94,17.19H4.06A1.22,1.22,0,0,1,2.84,16V14.44a.3.3,0,0,1,.31-.3h17.7a.3.3,0,0,1,.31.3V16a1.22,1.22,0,0,1-1.22,1.22ZM3.45,14.75V16a.61.61,0,0,0,.61.61H19.94a.61.61,0,0,0,.61-.61V14.75Z"/><path class="cls-1" d="M12.92,16H11.08a.31.31,0,0,1,0-.61h1.84a.31.31,0,0,1,0,.61Z"/><path class="cls-2" d="M12.92,16H11.08a.31.31,0,0,1,0-.61h1.84a.31.31,0,0,1,0,.61Z"/><path class="cls-1" d="M19.63,14.75H4.37a.31.31,0,0,1-.31-.31V4.67a.3.3,0,0,1,.31-.3H19.63a.3.3,0,0,1,.31.3v9.77A.31.31,0,0,1,19.63,14.75Zm-15-.61H19.33V5H4.67Z"/><path class="cls-1" d="M16,20.85H8A.92.92,0,0,1,8,19H16a.92.92,0,1,1,0,1.83ZM8,19.63a.3.3,0,0,0-.3.31.29.29,0,0,0,.3.3H16a.29.29,0,0,0,.3-.3.3.3,0,0,0-.3-.31Z"/><path class="cls-1" d="M15.36,19.63H8.64a.29.29,0,0,1-.3-.3.3.3,0,0,1,.3-.31c1,0,1.53-.72,1.53-2.14a.31.31,0,0,1,.3-.3h3.06a.3.3,0,0,1,.3.3c0,1.42.52,2.14,1.53,2.14a.3.3,0,0,1,.3.31.29.29,0,0,1-.3.3ZM10.13,19h3.74a2.9,2.9,0,0,1-.64-1.83H10.77A2.9,2.9,0,0,1,10.13,19Z"/><path class="cls-1" d="M16.35,13.53a.36.36,0,0,1-.22-.09l-.73-.74-.43.43a.29.29,0,0,1-.29.08.28.28,0,0,1-.22-.21L13.54,10a.31.31,0,0,1,.38-.38l3,.92a.3.3,0,0,1,.13.5l-.41.41.74.74a.3.3,0,0,1,0,.43l-.86.87a.36.36,0,0,1-.22.09ZM15.4,12a.39.39,0,0,1,.28.12l.67.67.43-.43-.71-.71a.37.37,0,0,1-.1-.25.37.37,0,0,1,.1-.24l.24-.24-2-.6.61,2,.22-.22A.38.38,0,0,1,15.4,12Z"/><path class="cls-1" d="M15.66,7.73H7.11a.31.31,0,0,1-.3-.31V5.89a.31.31,0,0,1,.3-.3h8.55a.31.31,0,0,1,.31.3V7.42a.31.31,0,0,1-.31.31ZM7.42,7.11h7.94V6.2H7.42Z"/><path class="cls-1" d="M10.78,10.78H8.34A.31.31,0,0,1,8,10.47V9.25A.3.3,0,0,1,8.34,9h2.44a.29.29,0,0,1,.3.3v1.22A.3.3,0,0,1,10.78,10.78Zm-2.14-.61h1.83V9.56H8.64Z"/><path class="cls-3" d="M10.78,10.78H8.34A.31.31,0,0,1,8,10.47V9.25A.3.3,0,0,1,8.34,9h2.44a.29.29,0,0,1,.3.3v1.22A.3.3,0,0,1,10.78,10.78Zm-2.14-.61h1.83V9.56H8.64Z"/><path class="cls-1" d="M14.38,12H7.12a.31.31,0,0,1-.31-.31V5.89a.31.31,0,0,1,.31-.3h8.54a.3.3,0,0,1,.31.3v4.52a.33.33,0,0,1-.12.25.32.32,0,0,1-.27,0l-1.29-.38.39,1.29a.33.33,0,0,1,0,.27.33.33,0,0,1-.25.12Zm-7-.61H14L13.54,10a.31.31,0,0,1,.38-.38l1.44.43V6.2H7.42Z"/><path class="cls-4" d="M14.38,12H7.12a.31.31,0,0,1-.31-.31V5.89a.31.31,0,0,1,.31-.3h8.54a.3.3,0,0,1,.31.3v4.52a.33.33,0,0,1-.12.25.32.32,0,0,1-.27,0l-1.29-.38.39,1.29a.33.33,0,0,1,0,.27.33.33,0,0,1-.25.12Zm-7-.61H14L13.54,10a.31.31,0,0,1,.38-.38l1.44.43V6.2H7.42Z"/><path class="cls-5" d="M16.35,13.53a.36.36,0,0,1-.22-.09l-.73-.74-.43.43a.29.29,0,0,1-.29.08.28.28,0,0,1-.22-.21L13.54,10a.31.31,0,0,1,.38-.38l3,.92a.3.3,0,0,1,.13.5l-.41.41.74.74a.3.3,0,0,1,0,.43l-.86.87a.36.36,0,0,1-.22.09ZM15.4,12a.39.39,0,0,1,.28.12l.67.67.43-.43-.71-.71a.37.37,0,0,1-.1-.25.37.37,0,0,1,.1-.24l.24-.24-2-.6.61,2,.22-.22A.38.38,0,0,1,15.4,12Z"/></svg>