<svg width="1264" height="250" viewBox="0 0 1264 250" fill="none" xmlns="http://www.w3.org/2000/svg">
<g clip-path="url(#clip0_6701_15671)">
<g clip-path="url(#clip1_6701_15671)">
<mask id="mask0_6701_15671" style="mask-type:luminance" maskUnits="userSpaceOnUse" x="8" y="0" width="1264" height="250">
<path d="M1272 0H8V250H1272V0Z" fill="white"/>
</mask>
<g mask="url(#mask0_6701_15671)">
<path d="M606.409 137.291L278.824 215.647L483.423 10.7168L606.409 137.291Z" stroke="#E2E8F0"/>
<path d="M747.859 86.3262C747.859 83.5647 750.069 81.3262 752.796 81.3262H854.699C857.425 81.3262 859.636 83.5647 859.636 86.3262V154.724H747.859V86.3262Z" fill="#F7FAFC"/>
<path d="M747.859 86.3262C747.859 83.5647 750.069 81.3262 752.796 81.3262H854.699C857.425 81.3262 859.636 83.5647 859.636 86.3262V86.981H747.859V86.3262Z" fill="#A0AEC0"/>
<path d="M752.017 85.7116C752.867 85.7116 753.556 85.0141 753.556 84.1537C753.556 83.2932 752.867 82.5957 752.017 82.5957C751.167 82.5957 750.479 83.2932 750.479 84.1537C750.479 85.0141 751.167 85.7116 752.017 85.7116Z" fill="#2D3748"/>
<path d="M756.006 85.7116C756.855 85.7116 757.544 85.0141 757.544 84.1537C757.544 83.2932 756.855 82.5957 756.006 82.5957C755.156 82.5957 754.467 83.2932 754.467 84.1537C754.467 85.0141 755.156 85.7116 756.006 85.7116Z" fill="#CBD5E0"/>
<path d="M759.994 85.7116C760.844 85.7116 761.533 85.0141 761.533 84.1537C761.533 83.2932 760.844 82.5957 759.994 82.5957C759.144 82.5957 758.456 83.2932 758.456 84.1537C758.456 85.0141 759.144 85.7116 759.994 85.7116Z" fill="#718096"/>
<path d="M820.373 99.8301H790.62V120.834H820.373V99.8301Z" fill="#F7FAFC"/>
<path d="M820.556 92.8184H756.263V147.297H820.556V92.8184Z" fill="#EDF2F7"/>
<path d="M853.596 112.562H824.959V127.064H853.596V112.562Z" fill="#EDF2F7"/>
<path d="M816.774 97.9258H777.273V112.397H816.774V97.9258Z" fill="#F7FAFC"/>
<path d="M853.596 132.643H824.959V147.145H853.596V132.643Z" fill="#EDF2F7"/>
<path d="M773.071 107.605C773.071 104.844 775.282 102.605 778.008 102.605H879.91C882.638 102.605 884.848 104.844 884.848 107.605V176.003H773.071V107.605Z" fill="#F7FAFC"/>
<path d="M773.071 107.605C773.071 104.844 775.282 102.605 778.008 102.605H879.91C882.638 102.605 884.848 104.844 884.848 107.605V108.26H773.071V107.605Z" fill="#A0AEC0"/>
<path d="M777.23 106.991C778.08 106.991 778.768 106.293 778.768 105.433C778.768 104.573 778.08 103.875 777.23 103.875C776.38 103.875 775.691 104.573 775.691 105.433C775.691 106.293 776.38 106.991 777.23 106.991Z" fill="#2D3748"/>
<path d="M781.219 106.991C782.068 106.991 782.757 106.293 782.757 105.433C782.757 104.573 782.068 103.875 781.219 103.875C780.369 103.875 779.68 104.573 779.68 105.433C779.68 106.293 780.369 106.991 781.219 106.991Z" fill="#CBD5E0"/>
<path d="M785.206 106.991C786.056 106.991 786.744 106.293 786.744 105.433C786.744 104.573 786.056 103.875 785.206 103.875C784.356 103.875 783.667 104.573 783.667 105.433C783.667 106.293 784.356 106.991 785.206 106.991Z" fill="#718096"/>
<path d="M845.587 121.109H815.833V142.113H845.587V121.109Z" fill="#F7FAFC"/>
<path d="M812.214 115.375H783.577V129.877H812.214V115.375Z" fill="#EDF2F7"/>
<path d="M819.715 114.949H864.678V153.68H819.715V114.949Z" fill="white"/>
<path d="M812.214 153.68H783.577V168.183H812.214V153.68Z" fill="#EDF2F7"/>
<path d="M812.214 134.525H783.577V149.027H812.214V134.525Z" fill="#EDF2F7"/>
<path d="M878.809 153.922H850.172V168.424H878.809V153.922Z" fill="#EDF2F7"/>
<path d="M1055.74 198.568H645.333L925.249 236.634L1055.74 198.568Z" fill="#EDF2F7"/>
<path d="M573.974 92.1338C520.683 97.9969 524.174 113.242 532.582 120.132C533.607 129.864 553.847 126.186 563.838 123.13L553.126 115.736C556.714 116.622 564.384 118.333 566.352 118.091C568.32 117.849 573.265 111.929 575.491 109L565.563 107.359L577.283 105.916L573.974 92.1338Z" fill="#E2E8F0"/>
<path d="M540.761 29.9604C543.823 94.8335 528.111 103.75 519.753 95.0828C509.772 95.8085 509.071 75.9112 510.469 63.3557L520.725 69.6455C519.228 65.5332 512.473 59.1131 512.385 56.7126C512.298 54.312 521.171 44.8103 523.748 41.5618L527.073 53.0987L526.554 38.8013L540.761 29.9604Z" fill="#E2E8F0"/>
<path d="M543.75 29.7407C506.521 83.6316 525.766 95.631 525.767 95.6285C524.705 103.178 546.555 87.4865 552.275 75.748L541.232 74.4245C544.565 71.865 553.064 70.7739 554.422 68.7625C555.78 66.7511 554.277 52.7292 554.103 48.235L545.407 55.9909L553.496 44.0114L543.75 29.7407Z" fill="#E2E8F0"/>
<path d="M473.821 99.8789C519.974 113.146 514.091 128.713 505.38 134.839C502.69 144.936 485.427 138.371 477.132 133.827L487.978 127.478C484.636 127.931 477.525 128.709 475.825 128.192C474.126 127.675 470.828 120.791 469.391 117.414L478.489 117.011L468.367 113.932L473.821 99.8789Z" fill="#E2E8F0"/>
<path d="M517.949 164.413C508.825 138.798 529.149 69.6091 536.572 59.6328" stroke="#718096"/>
<path d="M522.506 165.16C524.5 149.128 530.946 120.726 545.39 112.308" stroke="#718096"/>
<path d="M511.337 163.583C512.504 153.009 512.114 134.459 501.456 127.878" stroke="#718096"/>
<path d="M252.739 107.792C327.6 111.333 324.022 132.911 312.876 143.257C312.271 156.927 283.715 153.556 269.514 150.163L283.836 138.912C278.902 140.46 268.344 143.516 265.578 143.349C262.812 143.183 255.41 135.353 252.054 131.459L265.768 128.305L249.292 127.312L252.739 107.792Z" fill="#CBD5E0"/>
<path d="M293.808 18.1431C295.041 108.935 317.721 120.009 328.65 107.187C342.639 107.331 341.929 79.5046 338.913 62.1061L325.136 71.7761C326.876 65.9073 335.756 56.3605 335.674 53.0032C335.591 49.6458 322.405 37.1592 318.532 32.8506L314.871 49.239L314.383 29.243L293.808 18.1431Z" fill="#A0AEC0"/>
<path d="M289.616 18.0938C346.14 90.053 320.304 108.473 320.304 108.469C322.425 118.911 290.604 98.9176 281.625 83.0354L296.922 80.2273C292.055 76.9458 280.103 76.1632 278.037 73.4748C275.971 70.7863 276.879 51.0889 276.74 44.8025L289.532 54.868L277.229 38.8559L289.616 18.0938Z" fill="#A0AEC0"/>
<path d="M393.153 109.878C329.875 132.41 339.406 153.621 352.082 161.41C356.691 175.266 380.224 164.602 391.414 157.538L375.739 149.623C380.443 149.965 390.43 150.431 392.758 149.562C395.086 148.692 399.104 138.799 400.824 133.961L388.094 134.191L401.956 129.014L393.153 109.878Z" fill="#A0AEC0"/>
<path d="M337.054 203.775C347.61 167.237 313.378 72.458 302.172 59.1831" stroke="#718096"/>
<path d="M330.757 205.213C326.615 183.016 315.209 143.944 294.34 133.455" stroke="#718096"/>
<path d="M346.209 202.039C343.683 187.386 342.654 161.467 356.967 151.355" stroke="#718096"/>
<path d="M320.764 227.651V176.9L250.595 187.345L247.093 222.814L320.764 227.651Z" fill="#1A202C"/>
<path d="M505.589 117.053C506.066 106.925 498.985 97.895 488.993 97.2344C479.634 96.6157 470.238 96.7907 460.369 97.7653C450.406 98.7493 443.417 107.832 443.989 117.953L446.271 158.286C446.769 167.083 452.868 174.712 461.469 176.047C471.454 177.598 479.609 177.574 488.663 176.16C497.24 174.82 503.229 167.105 503.643 158.326L505.589 117.053Z" fill="#4A5568"/>
<path d="M461.584 116.716C463.115 114.299 463.698 111.395 463.22 108.57C461.406 97.8705 447.251 95.3845 441.933 104.832L411.557 158.798C409.766 161.978 409.857 165.89 411.793 168.98C415.649 175.136 424.562 175.155 428.451 169.017L461.584 116.716Z" fill="#4A5568"/>
<path d="M483.744 82.623H466.261V102.022C473.09 105.38 476.915 105.571 483.744 102.022V82.623Z" fill="#A0AEC0"/>
<path d="M482.922 91.5168C473.907 95.0374 463.005 88.5723 458.57 77.0764C454.136 65.5805 457.849 53.4071 466.864 49.8865C475.879 46.3658 486.781 52.831 491.216 64.3269C495.65 75.8228 491.937 87.9961 482.922 91.5168Z" fill="#CBD5E0"/>
<path d="M452.533 75.0046C453.601 77.7722 456.225 79.3287 458.395 78.4811C460.565 77.6335 461.459 74.7028 460.392 71.9352C459.324 69.1676 456.699 67.6111 454.529 68.4587C452.359 69.3063 451.465 72.237 452.533 75.0046Z" fill="#CBD5E0"/>
<path d="M464.076 64.8622C467.841 61.4792 465.035 55.2205 465.035 55.2205C465.035 55.2205 471.302 52.2247 476.011 52.8524C481.46 53.5787 484.676 55.6145 488.284 59.7877C490.234 62.0444 490.196 62.5329 490.196 62.5329C490.196 62.5329 491.443 57.232 490.732 54.6706C490.082 52.3295 488.284 50.6039 488.284 50.6039C489.504 49.9303 490.196 46.5373 490.196 46.5373C490.196 46.5373 487.252 47.6217 485.646 43.2838C483.436 37.3155 474.915 43.1787 468.782 41.6572C462.226 40.0308 460.414 41.9932 457.005 45.4528C454.739 47.7511 457.005 52.8524 453.257 52.8524C442.834 52.8524 453.822 80.9317 453.822 80.9317C453.822 80.9317 455.838 80.0859 457.688 82.6232C459.537 85.1605 462.227 84.1456 462.227 84.1456C462.227 84.1456 461.443 79.3435 459.369 78.2252C457.806 77.3829 457.157 78.2343 455.838 77.0412C454.375 75.7155 454.83 75.1324 454.83 73.1507C454.83 71.5653 453.783 70.2759 454.83 69.091C456.007 67.758 458.192 67.758 459.369 69.091C460.415 70.2759 459.369 73.1507 459.369 73.1507H464.076C462.507 71.7974 460.311 68.2452 464.076 64.8622Z" fill="#171923"/>
<path d="M607.344 136.99L243.272 223.782L518.562 243.202L645.515 197.853L607.344 136.99Z" fill="#EDF2F7"/>
<path d="M395.014 144.409L374.071 138.088L373.959 142.74C372.506 153.536 371.986 175.942 372.575 182.279C373.164 188.616 375.177 193.504 373.819 195.591L395.83 211.301L395.014 207.169L391.769 203.67C390.366 199.02 389.083 194.061 389.57 186.422C390.064 178.694 394.983 157.107 395.014 144.409Z" fill="#CBD5E0"/>
<path d="M463.192 182.436L454.399 179.582L458.565 168.873L467.666 172.241L480.087 167.702C481.857 167.621 485.403 167.741 485.434 168.873C485.464 170.005 483.865 171.208 482.404 171.299L476.803 172.505H478.87L487.806 175.785C487.806 175.785 492.367 179.037 493.261 180.697C494.121 182.29 492.906 182.136 492.518 182.007L482.404 177.376L487.806 180.485L489.989 182.051C490.869 183.12 493.101 185.777 493.638 186.772C494.174 187.768 493.371 188.675 491.961 187.699L487.806 184.067L481.083 181.505L486.652 185.252C487.928 186.161 490.729 188.238 491.72 189.269C492.711 190.3 493.046 191.863 489.981 190.551C486.432 188.565 484.188 187.799 483.957 187.699C483.708 187.592 478.634 185.126 478.634 185.126C478.634 185.126 484.941 190.484 485.657 191.811C486.373 193.138 486.859 194.343 484.821 193.405C481.937 191.083 474.761 187.797 474.418 187.699C474.075 187.602 466.701 183.786 463.192 182.436Z" fill="#CBD5E0"/>
<path d="M459.412 183.45L466.907 170.979L423.262 157.062C417.344 155.175 411.318 159.645 411.31 165.928C411.305 170.358 414.384 174.179 418.671 175.062L459.412 183.45Z" fill="#4A5568"/>
<path d="M549.754 171.858C554.423 174.317 560.169 172.474 562.588 167.74C564.918 163.182 563.32 157.567 558.951 154.963L536.461 141.556C531.434 138.56 524.964 140.431 522.259 145.663C519.633 150.74 521.581 157.02 526.604 159.665L549.754 171.858Z" fill="#4A5568"/>
<path d="M488.787 117.747C484.75 112.627 485.597 105.187 490.678 101.131C495.76 97.0752 503.151 97.9381 507.188 103.059L535.613 139.113C539.65 144.234 538.803 151.673 533.722 155.729C528.64 159.785 521.249 158.922 517.212 153.802L488.787 117.747Z" fill="#4A5568"/>
<path d="M367.106 155.934L339.467 163.264L342.419 167.608C348.143 178.468 362.384 199.374 367.106 204.804C371.83 210.234 376.024 211.902 380.557 216.207L391.326 218.231L405.211 216.207L398.771 212.949C394.388 209.601 390.452 204.804 385.891 197.474C381.275 190.057 375.425 167.608 367.106 155.934Z" fill="#E2E8F0"/>
<path d="M379.337 54.7363L389.548 84.0167L371.841 98.928C365.207 87.1179 365.351 79.2146 371.841 63.1409L379.337 54.7363Z" fill="#E2E8F0"/>
<path d="M325.305 65.787C311.922 70.667 280.281 120.041 277.337 122.21C259.891 148.68 253.058 157.521 248.048 186.975C248.048 186.975 272.332 192.827 288.162 192.827C297.395 192.827 304.467 192.297 312.457 186.975C322.102 180.55 321.748 171.158 329.588 162.575C340.592 150.529 362.78 137.361 362.78 137.361L372.149 127.33V145.224H395.437C396.329 129.228 395.169 93.2237 393.028 86.9339C390.886 80.644 386.871 85.3072 383.124 89.3739C378.573 93.1695 374.023 97.2362 372.149 96.1518C370.333 95.1012 363.583 92.3562 372.149 62.8047C360.996 63.7988 336.013 61.8829 325.305 65.787Z" fill="#002680"/>
<path d="M316.927 106.272C314.461 84.5488 339.096 80.5552 349.239 94.7306L369.727 153.572C357.15 162.834 350.074 165.118 337.415 165.114L316.927 106.272Z" fill="#002680"/>
<path d="M418.95 72.9004C410.252 85.0475 393.831 85.3718 383.473 83.2028C373.676 76.0069 374.776 58.989 383.473 46.8419C392.17 34.6947 407.164 30.681 416.96 37.8768C426.757 45.0727 427.647 60.7533 418.95 72.9004Z" fill="#E2E8F0"/>
<path d="M381.25 57.9819H374.827C374.827 57.9819 374.202 55.1804 378.574 49.5773C382.946 43.9743 384.378 33.8918 393.028 30.5993C400.41 27.7904 405.292 31.6931 413.104 32.7682C423.009 34.1311 430.426 41.6679 432.645 52.2885C433.102 54.4735 433.18 57.9819 433.18 57.9819C429.79 58.9759 425.991 58.6921 422.206 55.5419C418.663 52.5938 418.28 46.5047 417.387 44.6973C417.655 46.324 418.03 50.1196 417.387 52.2885C416.745 54.4574 406.681 57.9819 406.681 57.9819C406.681 57.9819 405.77 66.7118 403.201 70.182C399.988 74.5199 401.326 80.2133 403.201 80.2133C404.7 80.2133 407.751 76.6955 409.089 75.3399L413.104 79.1355C408.911 83.2023 407.751 91.6001 396.508 91.6001C392.414 91.6001 390.085 82.1111 389.013 76.1466C387.943 70.182 390.62 70.9954 396.508 68.5553C401.22 66.6033 402.933 62.6812 403.201 60.9641C405.556 52.9392 398.115 54.193 396.508 57.9819H381.25Z" fill="#1A202C"/>
<path d="M386.584 221.28L376.017 212.459L387.704 204.362L399.653 214.638L417.8 218.803C419.953 219.934 424.055 222.47 423.226 223.567C422.398 224.665 419.591 224.718 417.794 223.806L412.696 222.54L420.755 231.762C420.755 231.762 423.665 237.971 423.457 240.162C423.257 242.264 421.938 241.288 421.578 240.899L413.155 229.587L417.168 236.234L418.555 239.215C418.778 240.833 419.39 244.884 419.264 246.197C419.14 247.511 417.498 247.825 416.576 245.935L414.434 239.641L408.443 232.613L412.167 239.981C412.982 241.717 414.708 245.605 415.093 247.263C415.478 248.921 414.68 250.636 412.058 247.294C409.378 242.982 407.311 240.721 407.115 240.469C406.902 240.196 402.785 234.384 402.785 234.384C402.785 234.384 406.152 243.789 405.985 245.54C405.818 247.291 405.474 248.77 403.782 246.487C402.144 242.308 396.168 234.281 395.837 233.954C395.507 233.627 389.701 224.96 386.584 221.28Z" fill="#E2E8F0"/>
<path d="M549.561 174.42L497.155 190.46L541.211 205.334L549.561 174.42Z" fill="#718096"/>
<path d="M552.441 179.086L516.161 190.284L546.661 200.668L552.441 179.086Z" fill="#4A5568"/>
<path d="M607.438 137.09L556.76 149.63L540.923 205.334L592.753 188.127L607.438 137.09Z" fill="#CBD5E0"/>
<path d="M540.923 204.751L497.442 190.46V192.502L540.923 207.667L592.465 190.46V188.127L540.923 204.751Z" fill="#4A5568"/>
<path d="M765.385 242.915H518.846L645.515 198.141L765.385 242.915Z" stroke="#E2E8F0"/>
<path d="M1003.74 193.782C1005.75 196.211 1004.35 199.944 1001.23 200.24C995.638 200.769 990.839 200.759 984.861 200.172C981.8 199.871 980.28 196.326 982.053 193.782H1003.74Z" fill="#A0AEC0"/>
<path d="M976.014 168.787C989.12 171.809 996.458 171.663 1009.57 168.787L1005.26 193.778C995.846 195.775 990.574 195.932 981.166 193.778L976.014 168.787Z" fill="#4A5568"/>
<path d="M976.014 168.788C981.206 170.55 995.164 173.018 1009.45 168.788C1004.22 167.635 990.202 166.02 976.014 168.788Z" fill="#1A202C"/>
<path d="M1039.62 99.9966C992.137 111.147 997.001 124.18 1005.37 129.303C1007.39 137.758 1025.26 132.245 1033.95 128.432L1023.44 123.124C1026.78 123.501 1033.9 124.146 1035.65 123.711C1037.41 123.277 1041.21 117.509 1042.89 114.679L1033.74 114.349L1044.16 111.762L1039.62 99.9966Z" fill="#A0AEC0"/>
<path d="M1002.63 48.9756C1012.69 105.76 999.499 115.377 990.97 108.684C982.034 110.444 979.165 93.0011 979.017 81.7874L988.99 86.1743C987.175 82.721 980.352 77.8262 980.003 75.722C979.655 73.6178 986.603 64.2535 988.567 61.1032L992.867 70.8895L990.792 58.3572L1002.63 48.9756Z" fill="#A0AEC0"/>
<path d="M1005.31 48.4443C977.73 100.085 996.468 108.489 996.468 108.487C996.359 115.255 1014.33 98.9815 1018.18 88.0017L1008.06 88.0768C1010.78 85.4484 1018.34 83.5328 1019.34 81.6089C1020.34 79.6851 1017.4 67.5059 1016.74 63.5678L1009.76 71.3747L1015.71 59.9165L1005.31 48.4443Z" fill="#A0AEC0"/>
<path d="M966.07 93.521C999.391 122.101 988.883 132.409 979.463 133.99C973.577 141.112 961.695 129.127 956.489 122.244L967.755 121.308C964.829 120.381 958.672 118.259 957.455 117.184C956.238 116.108 956.01 109.267 956.048 105.981L963.712 109.176L956.465 102.771L966.07 93.521Z" fill="#A0AEC0"/>
<path d="M993.626 169.132C982.505 147.6 993.093 84.3874 998.68 74.7681" stroke="#718096"/>
<path d="M997.831 169.277C997.831 154.935 1000.46 129.199 1012.56 120.164" stroke="#718096"/>
<path d="M987.56 169.143C987.426 159.7 984.989 143.409 974.621 138.81" stroke="#718096"/>
<path d="M351.777 102.643C360.65 118.182 365.437 125.833 371.863 127.504L363.469 136.297L351.777 102.643Z" fill="#2D3748" fill-opacity="0.3"/>
<path d="M325.395 127.504L334.689 157.217C334.429 157.187 326.969 162.575 320.303 178.306C316.811 183.763 313.953 185.689 310.145 187.937L325.395 127.504Z" fill="#2D3748" fill-opacity="0.3"/>
<path d="M494.155 129.746L504.672 137.95L503.169 162.561L487.245 166.511C493.026 154.499 495.021 146.813 494.155 129.746Z" fill="black" fill-opacity="0.3"/>
<path d="M471.886 169.821C459.665 160.818 452.067 157.638 445.746 141.926L447.248 164.364L467.98 168.912L467.078 171.338L471.886 169.821Z" fill="black" fill-opacity="0.3"/>
<path d="M907.701 129.149C908.573 124.415 912.654 120.982 917.408 120.982H1008.09C1014.27 120.982 1018.93 126.665 1017.8 132.816L1008.07 185.629C1007.19 190.363 1003.11 193.795 998.364 193.795H907.679C901.5 193.795 896.839 188.112 897.972 181.961L907.701 129.149Z" fill="#718096"/>
<path d="M910.913 127.697C911.346 125.328 913.388 123.609 915.767 123.609H1010.33C1013.42 123.609 1015.75 126.447 1015.19 129.522L1005.6 181.825C1005.17 184.194 1003.12 185.913 1000.74 185.913H906.18C903.092 185.913 900.761 183.075 901.325 180L910.913 127.697Z" fill="#E2E8F0"/>
<path d="M826.985 152.329C827.248 150.91 828.471 149.881 829.897 149.881H896.615C898.469 149.881 899.868 151.587 899.527 153.433L891.374 197.547H818.629L826.985 152.329Z" fill="#718096"/>
<path d="M864.342 214.806C863.901 215.055 863.404 215.186 862.9 215.186H798.851C796.815 215.186 796.111 212.443 797.889 211.439L818.502 199.797H890.916L864.342 214.806Z" fill="#4A5568"/>
<path d="M864.342 213.304C863.901 213.553 863.404 213.684 862.9 213.684H798.851C796.815 213.684 796.111 210.941 797.889 209.937L818.502 198.295H890.916L864.342 213.304Z" fill="#718096"/>
<path d="M861.318 209.932H807.196L821.061 202.05H874.663L861.318 209.932Z" fill="#4A5568"/>
<path d="M828.626 153.835C828.886 152.413 830.111 151.381 831.539 151.381H894.027C895.879 151.381 897.277 153.083 896.94 154.927L890.108 192.291H821.595L828.626 153.835Z" fill="#E2E8F0"/>
<path d="M875.301 97.6774C875.604 96.3076 876.805 95.334 878.191 95.334H894.212C896.083 95.334 897.485 97.0679 897.117 98.9251L889.621 136.697C889.343 138.098 888.127 139.106 886.716 139.106H869.825C867.928 139.106 866.52 137.325 866.935 135.45L875.301 97.6774Z" fill="#4A5568"/>
<path d="M876.141 99.4205C876.447 98.054 877.646 97.084 879.03 97.084H892.482C894.353 97.084 895.756 98.8178 895.387 100.675L889.283 131.444C889.004 132.845 887.789 133.853 886.377 133.853H872.14C870.239 133.853 868.831 132.066 869.25 130.189L876.141 99.4205Z" fill="#E2E8F0"/>
<path d="M947.321 193.793H968.822L972.528 209.556H951.028L947.321 193.793Z" fill="#4A5568"/>
<path d="M937.312 209.557H985.317V215.186H937.312V209.557Z" fill="#4A5568"/>
<path d="M918.358 164.169L977.169 123.355H916.909C913.826 123.355 911.498 126.184 912.052 129.255L918.358 164.169Z" fill="#CBD5E0"/>
<path d="M835.261 188.536L888.726 151.377H832.112C830.263 151.377 828.866 153.074 829.197 154.916L835.261 188.536Z" fill="#CBD5E0"/>
<path d="M878.1 108.734L894.139 97.1602H879.619C877.777 97.1602 876.382 98.8434 876.701 100.68L878.1 108.734Z" fill="#CBD5E0"/>
<path d="M987.876 58.0953L991.15 55.2734L1035.59 107.992L1032.31 110.814L987.876 58.0953Z" fill="#4A5568"/>
<path d="M1031.32 105.843L1035.58 106.422L1024.23 191.974L1019.97 191.396L1031.32 105.843Z" fill="#4A5568"/>
<path d="M990.969 59.5044C994.037 56.2314 993.899 51.064 990.662 47.9626C987.426 44.8612 982.316 45.0004 979.249 48.2734L969.349 58.8369L981.07 70.0679L990.969 59.5044Z" fill="#002680"/>
<path d="M986.336 69.7211C987.234 62.183 981.224 52.9043 970.566 53.318C959.907 53.7317 949.083 63.2627 949.083 63.2627C964.362 71.236 970.033 77.2138 976.514 90.4618C976.514 90.4618 985.286 78.5416 986.336 69.7211Z" fill="#002680"/>
<path d="M1033.92 188.08C1029.2 185.56 1018.41 184.66 1011.26 188.08C1004.11 191.5 1003.32 195.667 1003.32 197.682C1003.32 199.697 1040.9 198.595 1041.58 197.265C1042.26 195.935 1039.46 191.028 1033.92 188.08Z" fill="#002680"/>
<path d="M976.383 90.4595C973.661 93.2851 965.258 89.4716 957.616 81.942C949.973 74.4123 945.984 66.0178 948.707 63.1922C951.43 60.3667 959.832 64.1802 967.475 71.7098C975.117 79.2395 979.106 87.634 976.383 90.4595Z" fill="#2D3748"/>
<path d="M960.977 77.7592C963.555 80.298 967.296 80.6404 969.335 78.524C971.375 76.4076 969.864 74.1634 967.287 71.6246C964.71 69.0858 962.044 67.2139 960.003 69.3303C957.964 71.4467 958.401 75.2205 960.977 77.7592Z" fill="#CBD5E0"/>
<path d="M1031.05 113.094C1028.28 113.094 1026.03 110.822 1026.03 108.019C1026.03 105.216 1028.28 102.944 1031.05 102.944C1033.82 102.944 1036.07 105.216 1036.07 108.019C1036.07 110.822 1033.82 113.094 1031.05 113.094Z" fill="#002680"/>
<path d="M1041.8 196.807C1028.26 199.318 1018.09 198.861 1003.19 197.035L1003.32 200.823C1003.32 200.823 1008.16 204.112 1022.39 204.112C1036.61 204.112 1041.8 200.823 1041.8 200.823V196.807Z" fill="#4A5568"/>
</g>
</g>
</g>
<defs>
<clipPath id="clip0_6701_15671">
<rect width="1264" height="250" fill="white"/>
</clipPath>
<clipPath id="clip1_6701_15671">
<rect width="1264" height="250" fill="white" transform="translate(8)"/>
</clipPath>
</defs>
</svg>
