<svg width="81" height="80" viewBox="0 0 81 80" fill="none" xmlns="http://www.w3.org/2000/svg">
<path d="M64.3154 65.5576H16.8077L10.5 73.0952H70.5L64.3154 65.5576Z" fill="#CBD5E0"/>
<path d="M64.3163 65.5577H16.8086V39C16.8086 38.4477 17.2563 38 17.8086 38H63.3163C63.8686 38 64.3163 38.4477 64.3163 39V65.5577Z" fill="#2D3748"/>
<path d="M61.2679 63.8085H19.8525V39.8086H61.2679V63.8085Z" fill="#EDF2F7"/>
<path d="M61.7103 66.9038H18.9146L15.458 71.7425H65.2327L61.7103 66.9038Z" fill="#718096"/>
<path d="M70.5 73.0352H10.5615V74H70.5V73.0352Z" fill="#2D3748"/>
<path d="M46.5601 44.5H53.4649V54.2381H46.5601V44.5Z" fill="#CBD5E0"/>
<path d="M53.4646 36.2856L58.9164 38.7023L58.9885 40.7737L50.886 50.3337L49.058 48.7863C46.8917 46.9523 46.6846 43.6849 48.6022 41.5922L53.4646 36.2856Z" fill="#CBD5E0"/>
<path d="M50.2138 37.3044C50.6913 36.7631 51.5137 36.7024 52.0654 37.1678C52.6411 37.6532 52.6982 38.5197 52.1913 39.0766L46.5601 45.2621L46.2106 43.7268C45.9965 42.7861 46.2479 41.7998 46.8861 41.0763L50.2138 37.3044Z" fill="#A0AEC0"/>
<path d="M56.917 31.1349C56.917 30.5736 57.3641 30.1145 57.9251 30.0995C58.5077 30.084 58.9884 30.5521 58.9884 31.1349V40.7736L56.917 38.3569V31.1349Z" fill="#A0AEC0"/>
<path d="M55.5361 29.065C55.5361 28.5041 55.9826 28.0452 56.5432 28.0297C57.1262 28.0135 57.6076 28.4817 57.6076 29.065V39.3931L55.5361 37.5044V29.065Z" fill="#CBD5E0"/>
<path d="M53.4648 29.753C53.4648 29.1913 53.9125 28.732 54.4739 28.7176C55.0562 28.7026 55.5363 29.1705 55.5363 29.753V37.6665L53.4648 36.8745V29.753Z" fill="#CBD5E0"/>
<path d="M35.0583 44.5H28.0825V54.5081H35.0583V44.5Z" fill="#CBD5E0"/>
<path d="M28.0822 36.3711L22.5744 38.8126L22.5015 40.9054L30.6874 50.5637L32.575 48.9658C34.7414 47.1318 34.9484 43.8644 33.0309 41.7717L28.0822 36.3711Z" fill="#CBD5E0"/>
<path d="M31.3668 37.3998C30.8844 36.853 30.0536 36.7917 29.4961 37.2618C28.9146 37.7523 28.8569 38.6277 29.369 39.1903L35.0581 45.4394L35.4147 43.8729C35.6288 42.9322 35.3774 41.9459 34.7392 41.2224L31.3668 37.3998Z" fill="#A0AEC0"/>
<path d="M24.5943 31.1675C24.5943 30.6005 24.1426 30.1366 23.5758 30.1215C22.9872 30.1059 22.5015 30.5787 22.5015 31.1675V40.9054L24.5943 38.4639V31.1675Z" fill="#A0AEC0"/>
<path d="M25.9897 29.0756C25.9897 28.509 25.5387 28.0453 24.9723 28.0297C24.3833 28.0134 23.897 28.4864 23.897 29.0756V39.51L25.9897 37.6019V29.0756Z" fill="#CBD5E0"/>
<path d="M28.0821 29.7711C28.0821 29.2036 27.6298 28.7396 27.0626 28.725C26.4743 28.7099 25.9893 29.1827 25.9893 29.7711V37.766L28.0821 36.9659V29.7711Z" fill="#CBD5E0"/>
<path d="M27.0238 57H36.6904V52.1667H27.0238V57Z" fill="#002680"/>
<path d="M45.3573 57H55.0239V52.1667H45.3573V57Z" fill="#002680"/>
<path d="M52.8335 17.8198H28.8335V36.0423H52.8335V17.8198Z" fill="#CBD5E0"/>
<path d="M33.3652 25.694C33.3652 24.0379 34.7078 22.6953 36.364 22.6953C38.0202 22.6953 39.3628 24.0379 39.3628 25.694V35.9755H33.3652V25.694Z" fill="#4A5568"/>
<path d="M43.5 26C43.5 24.3431 44.8431 23 46.5 23C48.1569 23 49.5 24.3431 49.5 26V32H43.5V26Z" fill="#4A5568"/>
<path d="M45.0344 32C44.5396 31.4227 43.2286 30.434 43.5501 29.4024C43.7335 28.8142 44.5397 27.6706 44.5397 27.6706C44.5397 27.6706 44.5397 28.5365 45.0345 28.5365C45.5293 28.5365 45.5293 28.9694 45.5293 28.9694C45.6707 28.9694 45.5293 27.6706 46.0241 27.6706C46.5189 27.6706 47 25.1443 47 25C47.3328 26.3276 48.0032 27.6706 47.9655 29.0306C48.8274 28.8831 48.5 28.5 49 27.5C49 27.5 49 28 49.4875 28.9694C49.7918 29.5745 49.2798 30.0733 48.9928 30.7012C48.6883 31.3672 47.5084 32 47.5084 32H45.0344Z" fill="#002680"/>
<path d="M40.5002 6L55.2226 19.6669H25.7778L40.5002 6Z" fill="#002680"/>
<path d="M40.5745 8.80322L52.7327 20.1557H28.812L40.5745 8.80322Z" fill="#CBD5E0"/>
<path d="M37.9185 17.0037C37.9185 15.5368 39.1076 14.3477 40.5745 14.3477C42.0414 14.3477 43.2306 15.5368 43.2306 17.0037V19.6598H37.9185V17.0037Z" fill="#A0AEC0"/>
</svg>
