<svg width="80" height="80" viewBox="0 0 80 80" fill="none" xmlns="http://www.w3.org/2000/svg">
<g clip-path="url(#clip0_6701_16260)">
<mask id="mask0_6701_16260" style="mask-type:luminance" maskUnits="userSpaceOnUse" x="0" y="0" width="80" height="80">
<path d="M80 0H0V80H80V0Z" fill="white"/>
</mask>
<g mask="url(#mask0_6701_16260)">
<path d="M63.8154 65.5576H16.3077L10 73.0952H70L63.8154 65.5576Z" fill="#CBD5E0"/>
<path d="M63.8163 65.5577H16.3086V39C16.3086 38.4477 16.7563 38 17.3086 38H62.8163C63.3686 38 63.8163 38.4477 63.8163 39V65.5577Z" fill="#2D3748"/>
<path d="M60.7679 63.808H19.3525V39.8081H60.7679V63.808Z" fill="#EDF2F7"/>
<path d="M61.2103 66.9033H18.4146L14.958 71.742H64.7327L61.2103 66.9033Z" fill="#718096"/>
<path d="M70 73.0352H10.0615V74H70V73.0352Z" fill="#2D3748"/>
<path d="M33.0204 18.5H30.1274C29.299 18.5 28.6274 19.1716 28.6274 20V25.9565C28.6274 26.7849 29.299 27.4565 30.1274 27.4565H33.0204C33.8488 27.4565 34.5204 26.7849 34.5204 25.9565V20C34.5204 19.1716 33.8488 18.5 33.0204 18.5Z" stroke="#2D3748"/>
<path d="M39.1472 26.4243H24C22.8954 26.4243 22 27.3197 22 28.4243V49.6985C22 50.8031 22.8954 51.6985 24 51.6985H39.1472C40.2518 51.6985 41.1472 50.8031 41.1472 49.6985V28.4243C41.1472 27.3197 40.2518 26.4243 39.1472 26.4243Z" fill="#718096"/>
<path d="M35.3174 26.4243H27.8291C26.7245 26.4243 25.8291 27.3197 25.8291 28.4243V49.6985C25.8291 50.8031 26.7245 51.6985 27.8291 51.6985H35.3174C36.422 51.6985 37.3174 50.8031 37.3174 49.6985V28.4243C37.3174 27.3197 36.422 26.4243 35.3174 26.4243Z" fill="#4A5568"/>
<path d="M57.2305 53.5281V38.3809C57.2305 37.2763 56.335 36.3809 55.2305 36.3809H33.9563C32.8517 36.3809 31.9563 37.2763 31.9563 38.3809V53.5281C31.9563 54.6326 32.8517 55.5281 33.9563 55.5281H55.2305C56.335 55.5281 57.2305 54.6326 57.2305 53.5281Z" fill="#CBD5E0"/>
<path d="M47.5715 33.8174H42.3809C41.5524 33.8174 40.8809 34.489 40.8809 35.3174V41.2739C40.8809 42.1023 41.5524 42.7739 42.3809 42.7739H47.5715C48.3999 42.7739 49.0715 42.1023 49.0715 41.2739V35.3174C49.0715 34.489 48.3999 33.8174 47.5715 33.8174Z" stroke="#2D3748"/>
<path d="M52.6357 53.5281V38.3809C52.6357 37.2763 51.7403 36.3809 50.6357 36.3809H39.318C38.2135 36.3809 37.318 37.2763 37.318 38.3809V53.5281C37.318 54.6326 38.2135 55.5281 39.318 55.5281H50.6357C51.7403 55.5281 52.6357 54.6326 52.6357 53.5281Z" fill="#E2E8F0"/>
<path d="M54.167 57.0601L54.167 56.2942C54.167 55.8712 54.5099 55.5283 54.9329 55.5283C55.3559 55.5283 55.6988 55.8712 55.6988 56.2942L55.6988 57.0601C55.6988 57.4831 55.3559 57.826 54.9329 57.826C54.5099 57.826 54.167 57.4831 54.167 57.0601Z" fill="#2D3748"/>
<path d="M34.2539 57.0601L34.2539 56.2942C34.2539 55.8712 34.5968 55.5283 35.0198 55.5283C35.4428 55.5283 35.7857 55.8712 35.7857 56.2942L35.7857 57.0601C35.7857 57.4831 35.4428 57.826 35.0198 57.826C34.5968 57.826 34.2539 57.4831 34.2539 57.0601Z" fill="#2D3748"/>
<path d="M24.2974 53.2305L24.2974 52.4646C24.2974 52.0416 24.6403 51.6987 25.0632 51.6987C25.4862 51.6987 25.8291 52.0416 25.8291 52.4646L25.8291 53.2305C25.8291 53.6535 25.4862 53.9964 25.0632 53.9964C24.6403 53.9964 24.2974 53.6535 24.2974 53.2305Z" fill="#2D3748"/>
<path d="M49.2198 18.0042C46.5263 16.602 44.3027 14.4413 42.8239 11.7891C42.5289 11.2601 42.9353 10.6125 43.5405 10.6348C46.5391 10.7457 49.4774 11.699 51.9606 13.3834L62.9055 20.8079L60.9102 24.0898L49.2198 18.0042Z" fill="#002680"/>
<path d="M60.9097 24.0898L62.9051 20.808L67.425 19.061L63.4085 23.5344L61.2854 29.1591L60.9097 24.0898Z" fill="#002680"/>
<path d="M61.2856 29.159L63.3456 23.496L67.4252 19.061L68.233 19.5521L64.1534 23.9872L62.0934 29.6502L61.2856 29.159Z" fill="#002680"/>
<path d="M46.3506 26.9939L48.6044 14.1875L59.1892 6.44629L61.7137 7.98119L53.401 17.1038L49.1276 28.6823L46.3506 26.9939Z" fill="#002680"/>
<path d="M46.3365 20.7612L45.4155 22.2759L47.9401 23.8108L48.861 22.2961L46.3365 20.7612Z" fill="#002680"/>
<path d="M54.0108 8.1386L53.0898 9.65332L55.6144 11.1882L56.5353 9.6735L54.0108 8.1386Z" fill="#002680"/>
</g>
</g>
<defs>
<clipPath id="clip0_6701_16260">
<rect width="80" height="80" fill="white"/>
</clipPath>
</defs>
</svg>
