<svg width="81" height="80" viewBox="0 0 81 80" fill="none" xmlns="http://www.w3.org/2000/svg">
<path d="M64.3154 65.5576H16.8077L10.5 73.0952H70.5L64.3154 65.5576Z" fill="#CBD5E0"/>
<path d="M64.3163 65.5577H16.8086V39C16.8086 38.4477 17.2563 38 17.8086 38H63.3163C63.8686 38 64.3163 38.4477 64.3163 39V65.5577Z" fill="#2D3748"/>
<path d="M61.2679 63.8085H19.8525V39.8086H61.2679V63.8085Z" fill="#EDF2F7"/>
<path d="M61.7103 66.9038H18.9146L15.458 71.7425H65.2327L61.7103 66.9038Z" fill="#718096"/>
<path d="M70.5 73.0352H10.5615V74H70.5V73.0352Z" fill="#2D3748"/>
<path d="M31 35V51H50.5V19" stroke="#718096" stroke-linecap="round"/>
<path d="M30 33.5H32V34.5C32 35.0523 31.5523 35.5 31 35.5C30.4477 35.5 30 35.0523 30 34.5V33.5Z" fill="#A0AEC0"/>
<path d="M29 24H27.5V18.75C27.5 18.3358 27.8358 18 28.25 18C28.6642 18 29 18.3358 29 18.75V24Z" fill="#A0AEC0"/>
<path d="M34.5 24H33V18.75C33 18.3358 33.3358 18 33.75 18C34.1642 18 34.5 18.3358 34.5 18.75V24Z" fill="#A0AEC0"/>
<path d="M26.5 26H35.5V29.5C35.5 31.9853 33.4853 34 31 34C28.5147 34 26.5 31.9853 26.5 29.5V26Z" fill="#002680"/>
<path d="M36.5 23H25.5V26H36.5V23Z" fill="#002680"/>
<path d="M50.9019 9C54.4998 12 55.1665 17 50.4998 19.5C48.1665 18 44.865 14.4 50.9019 9Z" fill="#A0AEC0"/>
<path d="M60.7997 20.3397C60.1863 23.6363 57.2063 29.85 51 27.0002C50.9999 24.0002 51.0536 18.0881 60.7997 20.3397Z" fill="#A0AEC0"/>
<path d="M41.6914 18.2617C44.7327 17.8285 50.6559 18.7778 50.0001 24.9998C47.396 25.8786 42.5918 27.381 41.6914 18.2617Z" fill="#A0AEC0"/>
</svg>
