<svg width="81" height="80" viewBox="0 0 81 80" fill="none" xmlns="http://www.w3.org/2000/svg">
<path d="M64.4555 65.5576H16.9478L10.6401 73.0952H70.6401L64.4555 65.5576Z" fill="#CBD5E0"/>
<path d="M64.4564 65.5577H16.9487V39C16.9487 38.4477 17.3964 38 17.9487 38H63.4564C64.0087 38 64.4564 38.4477 64.4564 39V65.5577Z" fill="#2D3748"/>
<path d="M61.4081 63.8085H19.9927V39.8086H61.4081V63.8085Z" fill="#EDF2F7"/>
<path d="M61.8504 66.9038H19.0547L15.5981 71.7425H65.3728L61.8504 66.9038Z" fill="#718096"/>
<path d="M70.6402 73.0352H10.7017V74H70.6402V73.0352Z" fill="#2D3748"/>
<path d="M50.0373 18.4032C50.0373 16.9702 49.5249 15.5959 48.613 14.5826C47.701 13.5693 46.4641 13 45.1744 13C43.8846 13 42.6477 13.5693 41.7358 14.5826C40.8238 15.5959 40.3115 16.9702 40.3115 18.4032H45.1744H50.0373Z" fill="#A0AEC0"/>
<path d="M41.3918 18.4032C41.3918 16.9702 40.8795 15.5959 39.9675 14.5826C39.0555 13.5693 37.8186 13 36.5289 13C35.2392 13 34.0023 13.5693 33.0903 14.5826C32.1783 15.5959 31.666 16.9702 31.666 18.4032H36.5289H41.3918Z" fill="#A0AEC0"/>
<path d="M40.8518 29.7501C40.8518 29.7501 50.0374 23.783 50.0372 18.4033C50.0372 17.863 31.7264 17.863 31.6662 18.4033C31.0709 23.75 40.8518 29.7501 40.8518 29.7501Z" fill="#A0AEC0"/>
<path d="M58.89 24.3332H51.3066L48.9733 28.9998L44.89 17.9165L39.64 27.2498L36.14 21.4165L32.0566 31.3332L27.9733 21.9998L25.0566 27.2498" stroke="#002680" stroke-linecap="round"/>
<path d="M47.877 41.3447H55.9325V52.7618H47.877V41.3447Z" fill="#CBD5E0"/>
<path d="M55.9321 31.7144L62.2925 34.5478L62.3766 36.9764L52.9237 48.1846L50.1213 45.8006C47.9594 43.9614 47.7515 40.6862 49.6636 38.5893L55.9321 31.7144Z" fill="#CBD5E0"/>
<path d="M52.1398 32.9076C52.6966 32.2735 53.6558 32.2026 54.2995 32.7482C54.9711 33.3174 55.038 34.333 54.4469 34.9854L47.8766 42.2381L47.4111 40.1831C47.1976 39.2402 47.4481 38.252 48.0844 37.5272L52.1398 32.9076Z" fill="#A0AEC0"/>
<path d="M59.96 25.6698C59.96 25.0151 60.4815 24.4794 61.136 24.4619C61.8158 24.4437 62.3767 24.9898 62.3767 25.6698V36.9763L59.96 34.143V25.6698Z" fill="#A0AEC0"/>
<path d="M58.3491 23.2426C58.3491 22.5883 58.8698 22.0529 59.5238 22.0347C60.204 22.0158 60.7657 22.5621 60.7657 23.2426V35.3573L58.3491 33.1431V23.2426Z" fill="#CBD5E0"/>
<path d="M55.9321 24.0496C55.9321 23.3944 56.4543 22.8586 57.1093 22.8417C57.7886 22.8242 58.3488 23.3701 58.3488 24.0496V33.3335L55.9321 32.4049V24.0496Z" fill="#CBD5E0"/>
<path d="M34.4577 41.3447H26.3193V53.0784H34.4577V41.3447Z" fill="#CBD5E0"/>
<path d="M26.3194 31.814L19.8936 34.6765L19.8086 37.1301L29.3588 48.4537L32.2308 46.0104C34.3926 44.1713 34.6005 40.8961 32.6885 38.7991L26.3194 31.814Z" fill="#CBD5E0"/>
<path d="M30.1508 33.02C29.5883 32.3793 28.6193 32.3078 27.9689 32.8589C27.2904 33.434 27.2228 34.46 27.8199 35.1192L34.4579 42.4465L34.9316 40.3549C35.1452 39.412 34.8947 38.4238 34.2584 37.699L30.1508 33.02Z" fill="#A0AEC0"/>
<path d="M22.2501 25.7076C22.2501 25.0462 21.7233 24.505 21.062 24.4873C20.3753 24.4689 19.8086 25.0206 19.8086 25.7076V37.1305L22.2501 34.268V25.7076Z" fill="#A0AEC0"/>
<path d="M23.878 23.255C23.878 22.594 23.3519 22.0531 22.6912 22.0347C22.0039 22.0156 21.4365 22.5675 21.4365 23.255V35.4944L23.878 33.2573V23.255Z" fill="#CBD5E0"/>
<path d="M26.3194 24.0704C26.3194 23.4085 25.7919 22.8671 25.1301 22.85C24.4438 22.8323 23.8779 23.3839 23.8779 24.0704V33.4498L26.3194 32.5117V24.0704Z" fill="#CBD5E0"/>
<path d="M25.0845 56H36.3623V50.3333H25.0845V56Z" fill="#002680"/>
<path d="M46.4737 56H57.7515V50.3333H46.4737V56Z" fill="#002680"/>
</svg>
