<svg width="80" height="80" viewBox="0 0 80 80" fill="none" xmlns="http://www.w3.org/2000/svg">
<path d="M21.7698 18.3594H58.9173C64.8653 18.3594 69.687 23.1811 69.687 29.129C69.687 35.0769 64.8653 39.8987 58.9173 39.8987H21.7698C15.8219 39.8987 11.0001 35.0769 11.0001 29.129C11.0001 23.1811 15.8219 18.3594 21.7698 18.3594Z" fill="#CBD5E0"/>
<path d="M50.8091 28.7588C45.0336 28.7588 40.3516 24.0768 40.3516 18.3013C40.3516 12.5257 45.0336 7.84375 50.8091 7.84375C56.5846 7.84375 61.2666 12.5257 61.2666 18.3013C61.2666 24.0768 56.5846 28.7588 50.8091 28.7588Z" fill="#CBD5E0"/>
<path d="M31.0364 28.765C24.1978 28.765 18.6539 23.2212 18.6539 16.3825C18.6539 9.54383 24.1978 4 31.0364 4C37.8751 4 43.4189 9.54383 43.4189 16.3825C43.4189 23.2212 37.8751 28.765 31.0364 28.765Z" fill="#CBD5E0"/>
<path d="M62.094 28.3445C62.094 23.9253 58.5114 20.3428 54.0922 20.3428H26.492C22.0727 20.3428 18.4902 23.9253 18.4902 28.3445C18.4902 32.7638 22.0727 36.3463 26.492 36.3463H54.0922C58.5115 36.3463 62.094 32.7638 62.094 28.3445Z" fill="#F7FAFC"/>
<path d="M48.0612 28.0738C43.7701 28.0738 40.2914 24.5951 40.2914 20.304C40.2914 16.0128 43.7701 12.5342 48.0612 12.5342C52.3524 12.5342 55.8311 16.0128 55.8311 20.304C55.8311 24.5951 52.3524 28.0738 48.0612 28.0738Z" fill="#F7FAFC"/>
<path d="M33.4884 28.074C28.4073 28.074 24.2883 23.955 24.2883 18.8739C24.2883 13.7928 28.4073 9.67383 33.4884 9.67383C38.5695 9.67383 42.6885 13.7928 42.6885 18.8739C42.6885 23.955 38.5695 28.074 33.4884 28.074Z" fill="#F7FAFC"/>
<path d="M55 75L40 30L25 75" stroke="#002680" stroke-width="3"/>
<path d="M59 74H21V77H59V74Z" fill="#2D3748"/>
<path d="M40 34V74M35 46L46 52.5L30 61L52 70M45 46L34 52.5L50 61L28 70" stroke="#002680"/>
<path d="M43.6831 20.123C45.9345 21.6061 45.9345 26.2926 43.6831 27.7757" stroke="#002680" stroke-width="1.5" stroke-linecap="round"/>
<path d="M45.6528 18.4053C49.0299 20.5542 49.0299 27.3448 45.6528 29.4938" stroke="#002680" stroke-width="1.5" stroke-linecap="round"/>
<path d="M47.623 17C52.1258 19.6937 52.1258 28.2059 47.623 30.8997" stroke="#002680" stroke-width="1.5" stroke-linecap="round"/>
<path d="M36.3701 20.1455C34.1025 21.6392 34.1025 26.3596 36.3701 27.8533" stroke="#002680" stroke-width="1.5" stroke-linecap="round"/>
<path d="M34.386 18.4155C30.9846 20.5799 30.9846 27.4196 34.386 29.584" stroke="#002680" stroke-width="1.5" stroke-linecap="round"/>
<path d="M32.4015 17C27.8662 19.7132 27.8662 28.2868 32.4015 31" stroke="#002680" stroke-width="1.5" stroke-linecap="round"/>
<path d="M38 24C38 25.1046 38.8954 26 40 26C41.1046 26 42 25.1046 42 24C42 22.8954 41.1046 22 40 22C38.8954 22 38 22.8954 38 24Z" fill="#002680"/>
</svg>
