<svg width="80" height="80" viewBox="0 0 80 80" fill="none" xmlns="http://www.w3.org/2000/svg">
<path d="M63.8154 65.5576H16.3077L10 73.0952H70L63.8154 65.5576Z" fill="#CBD5E0"/>
<path d="M63.8163 65.5577H16.3086V39C16.3086 38.4477 16.7563 38 17.3086 38H62.8163C63.3686 38 63.8163 38.4477 63.8163 39V65.5577Z" fill="#2D3748"/>
<path d="M60.7679 63.8085H19.3525V39.8086H60.7679V63.8085Z" fill="#EDF2F7"/>
<path d="M61.2103 66.9038H18.4146L14.958 71.7425H64.7327L61.2103 66.9038Z" fill="#718096"/>
<path d="M70 73.0352H10.0615V74H70V73.0352Z" fill="#2D3748"/>
<path d="M45.0353 20.6859C45.3597 20.2878 45.8248 20.0297 46.3342 19.9651L57.411 18.561C58.5448 18.4173 59.5683 19.2512 59.6565 20.3907L60.519 31.5227C60.5586 32.0347 60.3998 32.5424 60.0754 32.9405L41.624 55.5861C40.9262 56.4424 39.6665 56.571 38.8101 55.8732L26.871 46.1453C26.0147 45.4476 25.8861 44.1878 26.5838 43.3315L45.0353 20.6859Z" fill="#CBD5E0"/>
<path d="M56.7883 23.4532C56.8719 24.5545 56.0468 25.5152 54.9454 25.5988C53.844 25.6824 52.8834 24.8574 52.7998 23.756C52.7161 22.6546 53.5412 21.6939 54.6426 21.6103C55.744 21.5267 56.7046 22.3518 56.7883 23.4532Z" fill="#718096"/>
<path d="M46.5032 41.3118L45.9093 40.8263C45.4731 40.4697 45.1466 40.0499 44.9298 39.567C44.7161 39.0804 44.6427 38.5679 44.7098 38.0295C44.7769 37.4911 45.0172 36.9689 45.4307 36.463C45.8562 35.9425 46.3246 35.5976 46.8359 35.4285C47.3436 35.2564 47.8541 35.2303 48.3675 35.3504C48.8839 35.4668 49.3621 35.7047 49.802 36.0643L50.3959 36.5498C50.8321 36.9064 51.1586 37.3262 51.3754 37.8092C51.5921 38.2921 51.667 38.8028 51.5999 39.3412C51.5359 39.8759 51.2941 40.3999 50.8745 40.9131C50.455 41.4263 49.9881 41.7693 49.4738 41.9421C48.9595 42.1149 48.4441 42.1431 47.9277 42.0268C47.4143 41.9067 46.9395 41.6684 46.5032 41.3118ZM47.0825 39.3911L47.6764 39.8766C47.966 40.1133 48.2887 40.2609 48.6446 40.3194C49.0004 40.3779 49.3221 40.2312 49.6098 39.8793C49.9005 39.5237 49.9806 39.1825 49.8502 38.8557C49.7191 38.5223 49.507 38.2357 49.2137 37.996L48.6198 37.5105C48.3266 37.2708 48.0065 37.1162 47.6597 37.0467C47.3092 36.9743 46.9841 37.1213 46.6844 37.4879C46.4027 37.8325 46.3263 38.1767 46.455 38.5204C46.5801 38.8612 46.7893 39.1514 47.0825 39.3911ZM35.3793 41.7679L34.7854 41.2825C34.3455 40.9229 34.0187 40.4997 33.8049 40.0131C33.5911 39.5265 33.5196 39.0155 33.5904 38.4801C33.6574 37.9417 33.8977 37.4196 34.3112 36.9137C34.7338 36.3968 35.2007 36.0538 35.712 35.8846C36.2226 35.7089 36.7347 35.681 37.2481 35.801C37.7615 35.9211 38.2382 36.1609 38.6781 36.5205L39.272 37.0059C39.7119 37.3655 40.0402 37.7868 40.2569 38.2698C40.473 38.7461 40.5457 39.2519 40.475 39.7873C40.4043 40.3227 40.1606 40.8452 39.7441 41.3547C39.3216 41.8716 38.855 42.218 38.3444 42.3938C37.8367 42.5659 37.3247 42.5938 36.8083 42.4774C36.2918 42.361 35.8155 42.1245 35.3793 41.7679ZM35.9676 39.8363L36.5615 40.3217C36.8547 40.5615 37.1778 40.7124 37.5306 40.7745C37.8828 40.83 38.2027 40.6818 38.4904 40.3299C38.778 39.978 38.8567 39.6386 38.7263 39.3119C38.5952 38.9784 38.383 38.6919 38.0898 38.4521L37.4959 37.9667C37.2026 37.7269 36.8826 37.5723 36.5357 37.5029C36.1852 37.4304 35.8617 37.5756 35.565 37.9385C35.2803 38.2868 35.2038 38.631 35.3356 38.971C35.4673 39.3111 35.678 39.5995 35.9676 39.8363ZM44.4479 48.1353L39.5153 31.1872L40.639 29.8125L45.5716 46.7606L44.4479 48.1353Z" fill="#002680"/>
<path d="M55.8961 24.9093C53.3083 21.2381 53.2349 16.1542 56.2674 13.2681C63.0468 6.81602 71.5473 19.7095 65.0606 25.5588C63.3558 27.0961 61.071 27.0236 60.0738 27.0993" stroke="#2D3748"/>
</svg>
