<svg width="81" height="80" viewBox="0 0 81 80" fill="none" xmlns="http://www.w3.org/2000/svg">
<path d="M64.3154 65.5576H16.8077L10.5 73.0952H70.5L64.3154 65.5576Z" fill="#CBD5E0"/>
<path d="M64.3163 65.5577H16.8086V39C16.8086 38.4477 17.2563 38 17.8086 38H63.3163C63.8686 38 64.3163 38.4477 64.3163 39V65.5577Z" fill="#2D3748"/>
<path d="M61.2679 63.8085H19.8525V39.8086H61.2679V63.8085Z" fill="#EDF2F7"/>
<path d="M61.7103 66.9038H18.9146L15.458 71.7425H65.2327L61.7103 66.9038Z" fill="#718096"/>
<path d="M70.5 73.0352H10.5615V74H70.5V73.0352Z" fill="#2D3748"/>
<path d="M28.5 45C28.5 43.8954 29.3954 43 30.5 43H52.5C53.6046 43 54.5 43.8954 54.5 45V58.3423C54.5 59.4469 53.6046 60.3423 52.5 60.3423H30.5C29.3954 60.3423 28.5 59.4469 28.5 58.3423V45Z" fill="white"/>
<path d="M39.5663 12.4756C39.3904 11.3851 40.1319 10.3586 41.2224 10.1827L65.1816 6.3183C66.2721 6.14241 67.2987 6.88383 67.4746 7.97431L69.892 22.963C70.0679 24.0535 69.3265 25.0801 68.236 25.256L44.2768 29.1204C43.1863 29.2963 42.1597 28.5548 41.9838 27.4644L39.5663 12.4756Z" fill="#A0AEC0"/>
<path d="M61.3517 20.737C61.3078 20.4644 61.4931 20.2077 61.7657 20.1638L65.7621 19.5192C66.0347 19.4752 66.2914 19.6606 66.3353 19.9332L66.6584 21.9361C66.7024 22.2087 66.517 22.4654 66.2444 22.5093L62.248 23.1539C61.9754 23.1979 61.7188 23.0125 61.6748 22.7399L61.3517 20.737Z" fill="#EDF2F7"/>
<path d="M39.8911 14.4881L67.7993 9.98682L68.2815 12.9769L40.3734 17.4783L39.8911 14.4881Z" fill="#4A5568"/>
<path d="M43.8136 26.1276L55.7742 24.1984L55.6135 23.2017L43.6528 25.1309L43.8136 26.1276Z" fill="#002680"/>
<path d="M43.4918 24.1337L50.4689 23.0084L50.3081 22.0117L43.3311 23.137L43.4918 24.1337Z" fill="#002680"/>
<path d="M20.111 22.7984C20.5697 21.7935 21.7561 21.3508 22.7609 21.8095L46.3746 32.5885C47.3794 33.0472 47.8222 34.2336 47.3635 35.2384L40.583 50.0924C40.1243 51.0972 38.9379 51.5399 37.9331 51.0813L14.3194 40.3022C13.3146 39.8435 12.8719 38.6571 13.3305 37.6523L20.111 22.7984Z" fill="#CBD5E0"/>
<path d="M34.4238 42.9722C34.5384 42.721 34.835 42.6103 35.0862 42.725L39.0431 44.5312C39.2943 44.6458 39.4049 44.9424 39.2903 45.1936L38.3727 47.2039C38.258 47.4551 37.9614 47.5657 37.7102 47.4511L33.7534 45.6449C33.5022 45.5302 33.3915 45.2336 33.5062 44.9824L34.4238 42.9722Z" fill="#EDF2F7"/>
<path d="M19.1644 24.8721L46.4169 37.3122L45.084 40.2321L17.8315 27.7921L19.1644 24.8721Z" fill="#718096"/>
<path d="M15.7793 37.4401L27.4589 42.7715L27.9032 41.7982L16.2236 36.4668L15.7793 37.4401Z" fill="#002680"/>
<path d="M16.668 35.4938L23.4811 38.6038L23.9254 37.6305L17.1123 34.5205L16.668 35.4938Z" fill="#002680"/>
</svg>
