<svg width="81" height="80" viewBox="0 0 81 80" fill="none" xmlns="http://www.w3.org/2000/svg">
<path d="M24.7316 20H6.5C5.94772 20 5.5 20.4477 5.5 21V45.3302C5.5 45.8825 5.94772 46.3302 6.5 46.3302H24.7316C25.2839 46.3302 25.7316 45.8825 25.7316 45.3302V21C25.7316 20.4477 25.2839 20 24.7316 20Z" fill="#718096"/>
<path d="M23.3365 20.9575H7.89551C7.34322 20.9575 6.89551 21.4052 6.89551 21.9575V44.3727C6.89551 44.925 7.34322 45.3727 7.89551 45.3727H23.3365C23.8888 45.3727 24.3365 44.925 24.3365 44.3727V21.9575C24.3365 21.4052 23.8888 20.9575 23.3365 20.9575Z" fill="#EDF2F7"/>
<path d="M19.1222 20.5684H13.1032C12.8388 20.5684 12.6245 20.7827 12.6245 21.0471C12.6245 21.3115 12.8388 21.5258 13.1032 21.5258H19.1222C19.3866 21.5258 19.6009 21.3115 19.6009 21.0471C19.6009 20.7827 19.3866 20.5684 19.1222 20.5684Z" fill="#718096"/>
<path d="M15.1163 62.2246H65.9401L72.688 70.3007H8.5L15.1163 62.2246Z" fill="#CBD5E0"/>
<path d="M15.1167 62.2248H65.9405V33.6987C65.9405 33.1464 65.4927 32.6987 64.9405 32.6987H16.1167C15.5644 32.6987 15.1167 33.1464 15.1167 33.6987V62.2248Z" fill="#2D3748"/>
<path d="M18.375 60.35H62.6811V34.6357H18.375V60.35Z" fill="#F7FAFC"/>
<path d="M17.9031 63.6665H63.6859L67.3838 68.8508H14.1348L17.9031 63.6665Z" fill="#718096"/>
<path d="M8.5 70.2339H72.6222V71.2677H8.5V70.2339Z" fill="#2D3748"/>
<path d="M73.1286 9H56.5C55.9477 9 55.5 9.44772 55.5 10V43.3302C55.5 43.8825 55.9477 44.3302 56.5 44.3302H73.1286C73.6809 44.3302 74.1286 43.8825 74.1286 43.3302V10C74.1286 9.44772 73.6809 9 73.1286 9Z" fill="#2D3748"/>
<path d="M71.8439 10.2852H57.7847C57.2324 10.2852 56.7847 10.7329 56.7847 11.2852V42.0459C56.7847 42.5981 57.2324 43.0459 57.7847 43.0459H71.8439C72.3962 43.0459 72.8439 42.5981 72.8439 42.0459V11.2852C72.8439 10.7329 72.3962 10.2852 71.8439 10.2852Z" fill="#EDF2F7"/>
<path d="M67.8414 9.76221H62.7024C62.3477 9.76221 62.0601 10.0498 62.0601 10.4046C62.0601 10.7593 62.3477 11.0469 62.7024 11.0469H67.8414C68.1961 11.0469 68.4837 10.7593 68.4837 10.4046C68.4837 10.0498 68.1961 9.76221 67.8414 9.76221Z" fill="#2D3748"/>
<path d="M39.9996 44.132C45.8717 44.132 50.632 39.3717 50.632 33.4996C50.632 27.6275 45.8717 22.8672 39.9996 22.8672C34.1275 22.8672 29.3672 27.6275 29.3672 33.4996C29.3672 39.3717 34.1275 44.132 39.9996 44.132Z" fill="#F7FAFC" stroke="#002680"/>
<path d="M40 27.8125C43.0414 27.8125 45.7825 28.4705 47.7541 29.5221C49.7366 30.5794 50.8824 31.9975 50.8824 33.4998C50.8824 35.002 49.7366 36.4202 47.7541 37.4775C45.7825 38.529 43.0414 39.187 40 39.187C36.9586 39.187 34.2176 38.529 32.2459 37.4775C30.2635 36.4202 29.1177 35.002 29.1177 33.4998C29.1177 31.9975 30.2635 30.5794 32.2459 29.5221C34.2176 28.4705 36.9586 27.8125 40 27.8125Z" stroke="#002680" stroke-width="0.5"/>
<path d="M45.687 33.5C45.687 36.5414 45.029 39.2825 43.9774 41.2541C42.9201 43.2366 41.502 44.3824 39.9997 44.3824C38.4975 44.3824 37.0793 43.2366 36.022 41.2541C34.9705 39.2825 34.3125 36.5414 34.3125 33.5C34.3125 30.4586 34.9705 27.7176 36.022 25.7459C37.0793 23.7635 38.4975 22.6177 39.9997 22.6177C41.502 22.6177 42.9201 23.7635 43.9774 25.7459C45.029 27.7176 45.687 30.4586 45.687 33.5Z" stroke="#002680" stroke-width="0.5"/>
<path d="M40 23.1089V44.2604" stroke="#002680" stroke-width="0.5"/>
<path d="M50.7614 33.499H29.6099" stroke="#002680" stroke-width="0.5"/>
</svg>
