<svg width="80" height="80" viewBox="0 0 80 80" fill="none" xmlns="http://www.w3.org/2000/svg">
<path d="M68.6932 61.7017H11.5831L4.00049 70.92H76.1279L68.6932 61.7017Z" fill="#CBD5E0"/>
<path d="M68.6947 61.7018H11.5845V29C11.5845 28.4477 12.0323 28 12.5845 28H67.6947C68.247 28 68.6947 28.4477 68.6947 29V61.7018Z" fill="#2D3748"/>
<path d="M65.0296 59.5628H15.2432V30.2119H65.0296V59.5628Z" fill="#EDF2F7"/>
<path d="M65.5619 63.3481H14.1161L9.96094 69.2657H69.7962L65.5619 63.3481Z" fill="#718096"/>
<path d="M76.1277 70.8467H4.07422V72.0266H76.1277V70.8467Z" fill="#2D3748"/>
<path d="M58 36H23C22.4477 36 22 36.4477 22 37V55C22 55.5523 22.4477 56 23 56H58C58.5523 56 59 55.5523 59 55V37C59 36.4477 58.5523 36 58 36Z" fill="#718096"/>
<path d="M66 9H51C49.3431 9 48 10.3431 48 12V24.4384C48 26.0953 49.3431 27.4384 51 27.4384H66C67.6569 27.4384 69 26.0953 69 24.4384V12C69 10.3431 67.6569 9 66 9Z" fill="#EDF2F7"/>
<path d="M51.938 30.669L55.2192 26.8496H53.5786H51.938V30.669Z" fill="#EDF2F7"/>
<path d="M11 8H37C38.6569 8 40 9.34315 40 11V31.8195C40 33.4764 38.6569 34.8195 37 34.8195H11C9.34315 34.8195 8 33.4764 8 31.8195V11C8 9.34315 9.34315 8 11 8Z" fill="#E2E8F0"/>
<path d="M33.9995 39.5189L28.9995 33.9634H31.4995H33.9995V39.5189Z" fill="#E2E8F0"/>
<path d="M61.2042 12.7713C61.2042 11.2408 59.9635 10 58.4329 10C56.9023 10 55.6616 11.2408 55.6616 12.7713V17.8668C55.6616 19.2069 56.6531 20.3402 57.9813 20.5182C58.2083 20.5486 58.4411 20.5494 58.6683 20.5213C60.1043 20.3435 61.2042 19.1207 61.2042 17.6738V12.7713Z" fill="#002680"/>
<path d="M62.3894 16.9624C62.7265 16.9624 62.9995 17.236 62.9614 17.571C62.8202 18.8116 62.3003 20.5534 61.5844 21.2693C60.7405 22.1133 59.5959 22.5874 58.4024 22.5874C57.209 22.5874 56.0644 22.1133 55.2204 21.2693C54.5047 20.5536 54.125 18.8123 54.0262 17.5718C53.9994 17.2358 54.2731 16.9624 54.6103 16.9624C54.9474 16.9624 55.2213 17.2357 55.2494 17.5717C55.3304 18.5396 55.5877 19.91 56.0838 20.406C56.6987 21.021 57.5328 21.3665 58.4024 21.3665C59.2721 21.3665 60.1061 21.021 60.7211 20.406C61.2173 19.9098 61.6015 18.5383 61.7314 17.5703C61.7762 17.2361 62.0522 16.9624 62.3894 16.9624Z" fill="#4A5568"/>
<path d="M58.4061 22.0396H58.4061C58.7395 22.0396 59.0098 22.3098 59.0098 22.6432V25.442C59.0098 25.7754 58.7395 26.0457 58.4061 26.0457H58.4061C58.0727 26.0457 57.8024 25.7754 57.8024 25.442V22.6432C57.8024 22.3098 58.0727 22.0396 58.4061 22.0396Z" fill="#4A5568"/>
<path d="M55.0586 25.4401L55.0586 25.4401C55.0586 25.1067 55.3289 24.8364 55.6623 24.8364L60.8757 24.8364C61.2091 24.8364 61.4793 25.1067 61.4793 25.4401C61.4793 25.7735 61.2091 26.0437 60.8757 26.0437L55.6623 26.0437C55.3289 26.0437 55.0586 25.7735 55.0586 25.4401Z" fill="#4A5568"/>
<path d="M40 54C44.4183 54 48 50.4183 48 46C48 41.5817 44.4183 38 40 38C35.5817 38 32 41.5817 32 46C32 50.4183 35.5817 54 40 54Z" fill="#EDF2F7"/>
<path d="M46 45.9999L37 51.1961V40.8037L46 45.9999Z" fill="#002680"/>
<path d="M29.4029 15H16C14.8954 15 14 15.8954 14 17V25.7391C14 26.8437 14.8954 27.7391 16 27.7391H29.4029C30.5075 27.7391 31.4029 26.8437 31.4029 25.7391V17C31.4029 15.8954 30.5075 15 29.4029 15Z" fill="#002680"/>
<path d="M30.9702 18.279L35.0666 15.8491V26.8897L30.9702 24.224V18.279Z" fill="#002680"/>
</svg>
