<svg width="81" height="80" viewBox="0 0 81 80" fill="none" xmlns="http://www.w3.org/2000/svg">
<path d="M25.8292 15.519H55.5506C59.4935 15.519 62.6899 18.7155 62.6899 22.6584V22.6585C62.6899 26.6014 59.4935 29.7978 55.5506 29.7978H25.8292C21.8863 29.7978 18.6898 26.6014 18.6898 22.6584C18.6898 18.7155 21.8863 15.519 25.8292 15.519Z" fill="#E2E8F0"/>
<path d="M48.536 22.4128C44.2059 22.4128 40.6956 19.309 40.6956 15.4803C40.6956 11.6516 44.2059 8.54785 48.536 8.54785C52.8662 8.54785 56.3765 11.6516 56.3765 15.4803C56.3765 19.309 52.8662 22.4128 48.536 22.4128Z" fill="#E2E8F0"/>
<path d="M33.7114 22.4172C28.5842 22.4172 24.4277 18.7421 24.4277 14.2086C24.4277 9.67511 28.5842 6 33.7114 6C38.8387 6 42.9951 9.67511 42.9951 14.2086C42.9951 18.7421 38.8387 22.4172 33.7114 22.4172Z" fill="#E2E8F0"/>
<path d="M37.1111 24.1304H41.7383V29.472H37.1111V24.1304Z" fill="#CBD5E0"/>
<path d="M39.4251 19.3662L33.5923 26.4582H45.2579L39.4251 19.3662Z" fill="#CBD5E0"/>
<path d="M48.4984 39H9.68994C8.03309 39 6.68994 40.3431 6.68994 42V70.851C6.68994 72.5079 8.03309 73.851 9.68994 73.851H48.4984C50.1553 73.851 51.4984 72.5079 51.4984 70.851V42C51.4984 40.3431 50.1553 39 48.4984 39Z" fill="#002680"/>
<path d="M8.03076 40.4893C8.03076 38.8324 9.37391 37.4893 11.0307 37.4893H49.8935C51.529 37.4893 52.8631 38.7993 52.893 40.4345L53.4198 69.2856C53.4505 70.9636 52.0986 72.3403 50.4203 72.3403H11.0307C9.37391 72.3403 8.03076 70.9972 8.03076 69.3403V40.4893Z" fill="#2D3748"/>
<path d="M51.4984 36H12.6899C11.0331 36 9.68994 37.3431 9.68994 39V67.851C9.68994 69.5079 11.0331 70.851 12.6899 70.851H51.4984C53.1553 70.851 54.4984 69.5079 54.4984 67.851V39C54.4984 37.3431 53.1553 36 51.4984 36Z" fill="#EDF2F7"/>
<path d="M50.798 40.4431L13.1191 40.6445L13.2521 65.5227L50.931 65.3213L50.798 40.4431Z" fill="#CBD5E0"/>
<path d="M16.6519 62.0054L24.9572 47.4434L33.4177 61.9158L16.6519 62.0054Z" fill="#718096"/>
<path d="M27.6807 62.1078L38.24 43.5938L48.9967 61.9939L27.6807 62.1078Z" fill="#A0AEC0"/>
<path d="M33.1694 45.8681C33.1767 47.2421 32.0686 48.3619 30.6944 48.3692C29.3202 48.3766 28.2002 47.2687 28.1929 45.8947C28.1856 44.5207 29.2936 43.4009 30.6678 43.3936C32.042 43.3862 33.162 44.4941 33.1694 45.8681Z" fill="#4A5568"/>
<path d="M51.5474 13L73.6902 18.4804V25.1786L51.5474 18.4804V13Z" fill="#002680"/>
<path d="M53.7617 17.4287H51.5474V42.893H53.7617V17.4287Z" fill="#002680"/>
<path d="M73.6899 24.0713H71.4756V49.5356H73.6899V24.0713Z" fill="#002680"/>
<path d="M48.2257 46.2141C51.2829 46.2141 53.7614 44.7271 53.7614 42.8927C53.7614 41.0583 51.2829 39.5713 48.2257 39.5713C45.1684 39.5713 42.6899 41.0583 42.6899 42.8927C42.6899 44.7271 45.1684 46.2141 48.2257 46.2141Z" fill="#002680"/>
<path d="M68.1544 52.8572C71.2117 52.8572 73.6901 51.3702 73.6901 49.5358C73.6901 47.7014 71.2117 46.2144 68.1544 46.2144C65.0971 46.2144 62.6187 47.7014 62.6187 49.5358C62.6187 51.3702 65.0971 52.8572 68.1544 52.8572Z" fill="#002680"/>
</svg>
