<svg width="80" height="80" viewBox="0 0 80 80" fill="none" xmlns="http://www.w3.org/2000/svg">
<path d="M31.5006 55.4777C41.9822 55.4777 50.4792 46.9807 50.4792 36.4991C50.4792 26.0175 41.9822 17.5205 31.5006 17.5205C21.019 17.5205 12.522 26.0175 12.522 36.4991C12.522 46.9807 21.019 55.4777 31.5006 55.4777Z" fill="#F7FAFC" stroke="#CBD5E0" stroke-width="0.5"/>
<path d="M31.5 26.3945C36.7902 26.3945 41.5721 27.5384 45.0261 29.3805C48.4865 31.2261 50.5786 33.7502 50.5786 36.4997C50.5786 39.2493 48.4865 41.7734 45.0261 43.619C41.5722 45.4611 36.7902 46.605 31.5 46.605C26.2098 46.605 21.4279 45.4611 17.9739 43.619C14.5135 41.7734 12.4214 39.2493 12.4214 36.4997C12.4214 33.7502 14.5135 31.2261 17.9739 29.3805C21.4279 27.5384 26.2098 26.3945 31.5 26.3945Z" stroke="#CBD5E0" stroke-width="0.3"/>
<path d="M41.6055 36.5001C41.6055 41.7903 40.4616 46.5722 38.6195 50.0262C36.7739 53.4866 34.2498 55.5787 31.5002 55.5787C28.7507 55.5787 26.2266 53.4866 24.381 50.0262C22.5389 46.5722 21.395 41.7903 21.395 36.5001C21.395 31.2099 22.5389 26.4279 24.381 22.974C26.2266 19.5136 28.7507 17.4214 31.5002 17.4214C34.2498 17.4214 36.7739 19.5136 38.6195 22.974C40.4616 26.4279 41.6055 31.2099 41.6055 36.5001Z" stroke="#CBD5E0" stroke-width="0.3"/>
<path d="M31.5 17.5L31.5012 55.0865" stroke="#CBD5E0" stroke-width="0.5"/>
<path d="M50.5005 36.5002L12.5005 36.499" stroke="#CBD5E0" stroke-width="0.5"/>
<path d="M57 46H22V65H57V46Z" fill="#A0AEC0"/>
<path d="M66.25 66H22.75C22.3358 66 22 66.3358 22 66.75C22 67.1642 22.3358 67.5 22.75 67.5H66.25C66.6642 67.5 67 67.1642 67 66.75C67 66.3358 66.6642 66 66.25 66Z" fill="#2D3748"/>
<path d="M58.5 65V54H64L67.2526 57.7172C67.4121 57.8995 67.5 58.1335 67.5 58.3757V64C67.5 64.5523 67.0523 65 66.5 65H58.5Z" fill="#002680"/>
<path d="M62 59V55H64L66.5 58V59H62Z" fill="#2D3748"/>
<path d="M63.5 53H58.5V48.5C61.0156 49.4548 61.6932 50.4952 63.5 53Z" fill="#002680"/>
<path d="M29.5 68.5C30.6046 68.5 31.5 67.6046 31.5 66.5C31.5 65.3954 30.6046 64.5 29.5 64.5C28.3954 64.5 27.5 65.3954 27.5 66.5C27.5 67.6046 28.3954 68.5 29.5 68.5Z" fill="#E2E8F0" stroke="black"/>
<path d="M46.5 68.5C47.6046 68.5 48.5 67.6046 48.5 66.5C48.5 65.3954 47.6046 64.5 46.5 64.5C45.3954 64.5 44.5 65.3954 44.5 66.5C44.5 67.6046 45.3954 68.5 46.5 68.5Z" fill="#E2E8F0" stroke="black"/>
<path d="M63.5 68.5C64.6046 68.5 65.5 67.6046 65.5 66.5C65.5 65.3954 64.6046 64.5 63.5 64.5C62.3954 64.5 61.5 65.3954 61.5 66.5C61.5 67.6046 62.3954 68.5 63.5 68.5Z" fill="#E2E8F0" stroke="black"/>
<path d="M53.341 21.5532C55.9847 20.0593 59.0083 19.3728 62.0379 19.5787C62.6422 19.6198 62.9637 20.3135 62.615 20.8087C60.8875 23.2622 58.4867 25.206 55.721 26.3697L43.5305 31.4988L41.8667 28.037L53.341 21.5532Z" fill="#002680"/>
<path d="M41.8663 28.0367L43.5301 31.4985L42.531 36.2401L40.9699 30.4343L37.4116 25.5884L41.8663 28.0367Z" fill="#002680"/>
<path d="M37.4117 25.5884L41.0366 30.4023L42.5312 36.2401L41.679 36.6496L40.1845 30.8119L36.5596 25.998L37.4117 25.5884Z" fill="#002680"/>
<path d="M47.3677 14.2476L56.8757 23.1178L57.5962 36.2115L54.9333 37.4913L51.8162 25.5495L44.4385 15.6555L47.3677 14.2476Z" fill="#002680"/>
<path d="M52.6009 17.6329L51.833 16.0352L49.1701 17.315L49.938 18.9128L52.6009 17.6329Z" fill="#002680"/>
<path d="M58.9998 30.9474L58.2319 29.3496L55.569 30.6295L56.3369 32.2272L58.9998 30.9474Z" fill="#002680"/>
<path d="M43.4116 51.6714V59.2108H33V54.9028V51.6714H43.4116Z" fill="#2D3748"/>
<path d="M47.361 55.4414L41.6167 60.8822V50L47.361 55.4414Z" fill="#2D3748"/>
</svg>
