<svg id="Layer_1" data-name="Layer 1" xmlns="http://www.w3.org/2000/svg" xmlns:xlink="http://www.w3.org/1999/xlink" viewBox="0 0 24 24"><defs><style>.cls-1{fill:url(#linear-gradient);}</style><linearGradient id="linear-gradient" x1="3.06" y1="12.28" x2="21" y2="12.28" gradientUnits="userSpaceOnUse"><stop offset="0" stop-color="#283376"/><stop offset="1" stop-color="#1c67a6"/></linearGradient></defs><path class="cls-1" d="M3.06,3.05V21.5H21V3.05Zm8.59,17v.25h-6A1.52,1.52,0,0,1,4,18.68V5.86A1.51,1.51,0,0,1,5.62,4.29h6v.21c0,.55,0,1.1,0,1.65a.53.53,0,0,1-.18.42l-4,4-.16.13,0,.06h4.3v3.41h3.27l-.17.18-3,3a.37.37,0,0,0-.13.31ZM20,18.71a1.51,1.51,0,0,1-1.56,1.55H12.41v-.21c0-.7,0-1.4,0-2.1a.45.45,0,0,1,.14-.33c1.35-1.33,2.68-2.67,4-4a.93.93,0,0,1,.15-.13l0-.05H12.41V10H9.15l.18-.19c1-1,2-2,2.94-2.94a.44.44,0,0,0,.14-.34c0-.74,0-1.48,0-2.23h6A1.51,1.51,0,0,1,20,5.85Z"/></svg>