<svg id="Layer_1" data-name="Layer 1" xmlns="http://www.w3.org/2000/svg" xmlns:xlink="http://www.w3.org/1999/xlink" viewBox="0 0 24 24"><defs><style>.cls-1{fill:url(#linear-gradient);}</style><linearGradient id="linear-gradient" x1="2.26" y1="12.07" x2="22.21" y2="12.07" gradientUnits="userSpaceOnUse"><stop offset="0" stop-color="#283376"/><stop offset="1" stop-color="#1c67a6"/></linearGradient></defs><path class="cls-1" d="M4.59,9.66h1.3v2.89a1.93,1.93,0,0,1-.42,1.3,1.67,1.67,0,0,1-.61.46,1.87,1.87,0,0,1-.76.17A1.79,1.79,0,0,1,2.79,14a1.74,1.74,0,0,1-.53-1.28,1.76,1.76,0,0,1,.53-1.27A1.68,1.68,0,0,1,4,10.88a2.58,2.58,0,0,1,.35,0v1.43a.55.55,0,0,0-.32-.13.49.49,0,0,0-.35.15.52.52,0,0,0-.14.36.45.45,0,0,0,.15.34.49.49,0,0,0,.36.15c.33,0,.5-.23.5-.69Z"/><path class="cls-1" d="M8.48,10.91V12.3a.56.56,0,0,0-.25-.08c-.24,0-.36.19-.36.55v1.64H6.57V12.52A1.73,1.73,0,0,1,7,11.32a1.42,1.42,0,0,1,1.1-.45A2.31,2.31,0,0,1,8.48,10.91Z"/><path class="cls-1" d="M10.5,10.87A1.8,1.8,0,0,1,11.76,14a1.72,1.72,0,0,1-1.29.53A1.79,1.79,0,0,1,9.18,14a1.81,1.81,0,0,1,0-2.56A1.82,1.82,0,0,1,10.5,10.87Zm0,1.28a.5.5,0,0,0-.36.16.53.53,0,0,0-.14.37.49.49,0,0,0,.15.36.43.43,0,0,0,.35.16.46.46,0,0,0,.36-.16.52.52,0,0,0,.14-.36.53.53,0,0,0-.14-.37A.5.5,0,0,0,10.47,12.15Z"/><path class="cls-1" d="M15.73,10.94l-1.06,2.11h1.22v1.36H12.55l1.06-2.11h-1.1V10.94Z"/><path class="cls-1" d="M19.77,12.89h-2a1,1,0,0,1,0-.28,1,1,0,0,1,.06-.34h.66a.41.41,0,0,0-.44-.38.47.47,0,0,0-.39.2.9.9,0,0,0-.15.53.92.92,0,0,0,.14.55.46.46,0,0,0,.39.21.53.53,0,0,0,.38-.2l.74.9a1.83,1.83,0,0,1-1.15.4A1.76,1.76,0,0,1,16.7,14a1.72,1.72,0,0,1-.53-1.28,1.76,1.76,0,0,1,.53-1.29A1.79,1.79,0,0,1,18,10.87a1.71,1.71,0,0,1,1.26.51,1.69,1.69,0,0,1,.52,1.27S19.78,12.78,19.77,12.89Z"/><path class="cls-1" d="M22.21,10.91V12.3a.52.52,0,0,0-.24-.08c-.24,0-.36.19-.36.55v1.64h-1.3V12.52a1.73,1.73,0,0,1,.41-1.2,1.42,1.42,0,0,1,1.1-.45A2.13,2.13,0,0,1,22.21,10.91Z"/></svg>