<svg id="Layer_1" data-name="Layer 1" xmlns="http://www.w3.org/2000/svg" xmlns:xlink="http://www.w3.org/1999/xlink" viewBox="0 0 24 24"><defs><style>.cls-1{fill:url(#linear-gradient);}.cls-2{font-size:20.4px;fill:#fff;font-family:ColonnaMT, Colonna MT;}</style><linearGradient id="linear-gradient" x1="1.01" y1="11.84" x2="22" y2="11.84" gradientUnits="userSpaceOnUse"><stop offset="0" stop-color="#283376"/><stop offset="1" stop-color="#1c67a6"/></linearGradient></defs><path class="cls-1" d="M20.37,4.84,13,.65a3.16,3.16,0,0,0-3.16,0L2.58,4.91A3.15,3.15,0,0,0,1,7.66L1,16.1a3.16,3.16,0,0,0,1.59,2.74L10,23a3.15,3.15,0,0,0,3.17,0l7.3-4.25A3.18,3.18,0,0,0,22,16l0-8.44A3.17,3.17,0,0,0,20.37,4.84Z"/><text class="cls-2" transform="translate(3.64 17.1)">N</text></svg>