<svg id="Layer_1" data-name="Layer 1" xmlns="http://www.w3.org/2000/svg" xmlns:xlink="http://www.w3.org/1999/xlink" viewBox="0 0 24 24"><defs><style>.cls-1{fill:url(#linear-gradient);}.cls-2{fill:url(#linear-gradient-2);}</style><linearGradient id="linear-gradient" x1="5.77" y1="12.09" x2="18.66" y2="12.09" gradientUnits="userSpaceOnUse"><stop offset="0" stop-color="#283376"/><stop offset="1" stop-color="#1c67a6"/></linearGradient><linearGradient id="linear-gradient-2" x1="1.44" y1="11.09" x2="23" y2="11.09" xlink:href="#linear-gradient"/></defs><path class="cls-1" d="M18.66,12.07a6.45,6.45,0,1,1-6.48-6.43A6.45,6.45,0,0,1,18.66,12.07ZM10.2,9.71l.13,0h1.33c.66,0,1,.3,1,1s0,1.45,0,2.17c0,.28.11.49.41.49s.4-.2.4-.46c0-.82,0-1.64,0-2.46a1.56,1.56,0,0,0-1.51-1.49c-.68,0-1.37,0-2.05,0a.41.41,0,0,0-.46.45v5.55c0,.26.15.47.41.42s.29-.26.38-.42,0-.26,0-.4Zm1.62,4.79c0-1.06,0-2.08,0-3.1,0-.27-.09-.5-.39-.51s-.42.22-.42.52v3.38c0,.37.17.53.54.52h1.73A1.62,1.62,0,0,0,15,13.56V9.5c0-.1,0-.22,0-.28s-.25-.32-.38-.32-.29.17-.39.31,0,.23,0,.35c0,1.34,0,2.69,0,4a.8.8,0,0,1-.8.91C12.91,14.52,12.39,14.5,11.82,14.5Z"/><path class="cls-2" d="M12.22,22A2.45,2.45,0,0,1,11,21.65,18.28,18.28,0,0,1,1.88,9.81c-.14-.49-.24-1-.33-1.47L1.5,8.09A2.05,2.05,0,0,1,3.05,5.52,15.74,15.74,0,0,0,10.69.94,2.1,2.1,0,0,1,12.23.21h0a2,2,0,0,1,1.49.7,15.76,15.76,0,0,0,7.69,4.61A2,2,0,0,1,23,7.69v.08a20,20,0,0,1-2,6.17,17.69,17.69,0,0,1-7.6,7.73A2.54,2.54,0,0,1,12.22,22Zm0-20.46a.83.83,0,0,0-.58.32A17.2,17.2,0,0,1,3.39,6.77a.79.79,0,0,0-.62,1.06l.06.25c.09.48.18.93.31,1.38a16.83,16.83,0,0,0,8.5,11,1.11,1.11,0,0,0,1.15,0,16.32,16.32,0,0,0,7-7.17A18.64,18.64,0,0,0,21.7,7.61a.74.74,0,0,0-.63-.83,17.31,17.31,0,0,1-8.31-5,.78.78,0,0,0-.53-.29Z"/></svg>