<svg id="Layer_1" data-name="Layer 1" xmlns="http://www.w3.org/2000/svg" xmlns:xlink="http://www.w3.org/1999/xlink" viewBox="0 0 24 24"><defs><style>.cls-1{fill:#fff;}.cls-2{mask:url(#mask);}.cls-3{fill:#ef6c00;}.cls-4{mask:url(#mask-2-2);}.cls-5{fill:#ff9800;}.cls-6{mask:url(#mask-3);}</style><mask id="mask" x="3.25" y="1.14" width="16.76" height="21.54" maskUnits="userSpaceOnUse"><g id="mask-2"><path id="path-1" class="cls-1" d="M19.28,5.33l-6.93-4a1.45,1.45,0,0,0-1.45,0L4,5.33a1.47,1.47,0,0,0-.72,1.26v8A1.47,1.47,0,0,0,4,15.84l3.47,2v4.09a.44.44,0,0,0,.65.37l11.19-6.45A1.46,1.46,0,0,0,20,14.59v-8a1.48,1.48,0,0,0-.73-1.26Z"/></g></mask><mask id="mask-2-2" x="3.25" y="0.92" width="16.76" height="21.44" maskUnits="userSpaceOnUse"><g id="mask-2-3" data-name="mask-2"><path id="path-1-2" data-name="path-1" class="cls-1" d="M19.28,5.33l-6.93-4a1.45,1.45,0,0,0-1.45,0L4,5.33a1.47,1.47,0,0,0-.72,1.26v8A1.47,1.47,0,0,0,4,15.84l3.47,2v4.09a.44.44,0,0,0,.65.37l11.19-6.45A1.46,1.46,0,0,0,20,14.59v-8a1.48,1.48,0,0,0-.73-1.26Z"/></g></mask><mask id="mask-3" x="3.25" y="1.14" width="16.76" height="21.22" maskUnits="userSpaceOnUse"><g id="mask-2-4" data-name="mask-2"><path id="path-1-3" data-name="path-1" class="cls-1" d="M19.28,5.33l-6.93-4a1.45,1.45,0,0,0-1.45,0L4,5.33a1.47,1.47,0,0,0-.72,1.26v8A1.47,1.47,0,0,0,4,15.84l3.47,2v4.09a.44.44,0,0,0,.65.37l11.19-6.45A1.46,1.46,0,0,0,20,14.59v-8a1.48,1.48,0,0,0-.73-1.26Z"/></g></mask></defs><g class="cls-2"><polygon class="cls-3" points="20 5.75 11.63 10.59 3.25 5.75 3.25 15.42 7.44 17.84 7.44 22.68 20 15.42 20 5.75"/></g><g class="cls-4"><polygon class="cls-5" points="11.63 10.59 3.25 5.75 11.63 0.92 20 5.75 11.63 10.59"/></g><g class="cls-6"><polygon class="cls-5" points="11.48 10.44 3.3 5.72 3.25 5.75 11.63 10.59 20 5.75 19.8 5.63 11.48 10.44"/></g><g class="cls-6"><polygon class="cls-5" points="11.63 10.65 11.63 10.59 3.3 5.78 3.25 5.81 11.63 10.65"/></g></svg>