<svg id="Layer_1" data-name="Layer 1" xmlns="http://www.w3.org/2000/svg" viewBox="0 0 24 24"><path d="M21,9.37c-.49,1,.06,1.91.53,2.89a5,5,0,0,1-3.11,7,1,1,0,0,0-.68.6A5.14,5.14,0,0,1,9.44,21.5a1,1,0,0,0-.66-.21A5.2,5.2,0,0,1,2.93,16a5.92,5.92,0,0,0-.55-2.65A5.16,5.16,0,0,1,5.56,6.19a1,1,0,0,0,.52-.45A5.19,5.19,0,0,1,14.43,4a1,1,0,0,0,.72.21,5.17,5.17,0,0,1,5.57,3.71A13.46,13.46,0,0,1,21,9.37Zm-5.89,2.87c0,1.57-.08,3,0,4.45a1.9,1.9,0,0,1-1.23,2.13c-1.13.53-2.17,1.23-3.32,1.9a3.83,3.83,0,0,0,3.57.69,3.34,3.34,0,0,0,2.54-2.74,45.73,45.73,0,0,0,.15-5.24.39.39,0,0,0-.2-.29C16.15,12.85,15.66,12.57,15.09,12.24Zm3.07,5.64.35-.12a3.7,3.7,0,0,0,2.14-3.32,3.59,3.59,0,0,0-1.81-3.35c-1.22-.76-2.48-1.46-3.74-2.16a.55.55,0,0,0-.48,0c-.5.25-1,.54-1.53.86.22.14.38.25.55.34,1.3.75,2.59,1.51,3.89,2.23a1.09,1.09,0,0,1,.64,1.09C18.14,14.88,18.16,16.35,18.16,17.88ZM9.93,10.25l.54-.3c1.32-.75,2.63-1.5,3.93-2.27a1.05,1.05,0,0,1,1.22,0c1.09.66,2.21,1.28,3.31,1.92l.62.33a3.79,3.79,0,0,0-1.46-3.64A3.6,3.6,0,0,0,14,5.92c-1.29.66-2.54,1.43-3.8,2.17-.12.07-.27.23-.27.35C9.92,9,9.93,9.59,9.93,10.25ZM4.35,15.54c0,.24-.06.38-.07.52a3.81,3.81,0,0,0,5.63,3.46c1.25-.67,2.47-1.4,3.7-2.12.13-.08.3-.22.3-.34,0-.59,0-1.17,0-1.85-1.53.88-3,1.69-4.37,2.53a1.18,1.18,0,0,1-1.41,0C6.93,17,5.67,16.3,4.35,15.54Zm1.35-8a3.78,3.78,0,0,0-2.44,3.06A3.65,3.65,0,0,0,5,14.36c1.23.78,2.51,1.47,3.78,2.19a.53.53,0,0,0,.44,0c.51-.26,1-.56,1.55-.88l-.52-.33C9,14.65,7.73,13.9,6.45,13.21a1.27,1.27,0,0,1-.76-1.31C5.73,10.49,5.7,9.07,5.7,7.55Zm3.09,5.68c0-1.74,0-3.36,0-5a1.29,1.29,0,0,1,.77-1.34c1.25-.66,2.46-1.4,3.67-2.1,0-.07,0-.09,0-.1a.68.68,0,0,0-.12-.12A3.71,3.71,0,0,0,9.15,4.3,3.58,3.58,0,0,0,7.07,7.48c-.06,1.48,0,2.95,0,4.43a.58.58,0,0,0,.21.44C7.73,12.65,8.21,12.9,8.79,13.23Zm1.14-.66c0,1.32,0,1.32,1,1.91l0,0c.62.57,1.17.39,1.88,0A1.76,1.76,0,0,0,14,12.67,1.69,1.69,0,0,0,13,11a1.73,1.73,0,0,0-2.09,0C10.2,11.42,9.68,11.8,9.93,12.57Z"/></svg>