<svg id="Layer_1" data-name="Layer 1" xmlns="http://www.w3.org/2000/svg" xmlns:xlink="http://www.w3.org/1999/xlink" viewBox="0 0 24 24"><defs><style>.cls-1{fill:url(#linear-gradient);}.cls-2{fill:url(#linear-gradient-2);}.cls-3{fill:url(#linear-gradient-3);}.cls-4{fill:url(#linear-gradient-4);}.cls-5{font-size:4.37px;fill:#fff;font-family:Poppins-Bold, Poppins;font-weight:700;}</style><linearGradient id="linear-gradient" x1="2.45" y1="11.94" x2="21.8" y2="11.94" gradientUnits="userSpaceOnUse"><stop offset="0" stop-color="#283376"/><stop offset="1" stop-color="#1c67a6"/></linearGradient><linearGradient id="linear-gradient-2" x1="14.81" y1="12.26" x2="19.92" y2="12.26" xlink:href="#linear-gradient"/><linearGradient id="linear-gradient-3" x1="7.16" y1="11.18" x2="9" y2="11.18" xlink:href="#linear-gradient"/><linearGradient id="linear-gradient-4" x1="2.45" y1="11.94" x2="14.34" y2="11.94" xlink:href="#linear-gradient"/></defs><path class="cls-1" d="M2.45,3.46,14.31,1.88V3.51l.71,0h5.09c1.22,0,1.69.47,1.69,1.66v13.4c0,1.18-.45,1.63-1.62,1.63H14.34V22L2.45,20.37ZM14.36,19.52h6.08c.5,0,.6-.34.6-.78,0-4.54,0-9.09,0-13.64,0-.59-.24-.83-.83-.82H14.36ZM9.08,13c.17-.18.31-.3.42-.44a2.29,2.29,0,0,0-.34-3.1,1.88,1.88,0,0,0-2.67.62,2.15,2.15,0,0,0,.76,3c.78.32,1.6.55,2.44.83l.26-.65ZM5.63,9.35c-.3,0-.53-.12-.75-.14a1.34,1.34,0,0,0-1.44.89c-.15.58.12,1,.84,1.35a.79.79,0,0,1,.33.17,3.08,3.08,0,0,1,.32.48c-.18.12-.35.31-.53.32a3.69,3.69,0,0,1-.88-.15c-.2.47-.14.78.43.81a4.7,4.7,0,0,0,.75,0,1.05,1.05,0,0,0,1.08-.95,1.08,1.08,0,0,0-.69-1.21,2.57,2.57,0,0,1-.5-.24,2.28,2.28,0,0,1-.36-.46A1.87,1.87,0,0,1,4.79,10a2.16,2.16,0,0,1,.69.08Zm5,3.9h2.62v-.73l-1.74-.09V9.1l-.88.05Z"/><path class="cls-2" d="M17.27,9.22c.62.09,1.12.12,1.6.23.82.2,1,.46,1,1.32,0,1.06,0,2.12,0,3.17a1,1,0,0,1-.73,1,4.61,4.61,0,0,1-3.66,0,1.29,1.29,0,0,1-.71-.85c-.05-1.24,0-2.48,0-3.71a.76.76,0,0,1,.66-.79C16.14,9.4,16.76,9.32,17.27,9.22Zm-2.11,3a.81.81,0,0,0,.54,1.15,4.63,4.63,0,0,0,3.24,0,.86.86,0,0,0,.64-1.2A5,5,0,0,1,15.16,12.19Zm0-1.33c-.05.73,0,.9.61,1.11A4.6,4.6,0,0,0,19,12a.81.81,0,0,0,.59-1.11A6.1,6.1,0,0,1,15.14,10.86Zm4.45,2.67a5,5,0,0,1-4.43,0,.84.84,0,0,0,.63,1.18,4.86,4.86,0,0,0,3.13,0A.89.89,0,0,0,19.59,13.53Z"/><path class="cls-3" d="M9,11.19c0,.2,0,.45-.13.59s-.51.64-.82.71c-.46.1-.78-.28-.85-.73a3.76,3.76,0,0,1,0-1.11A.85.85,0,0,1,8,9.86a.86.86,0,0,1,.87.76C9,10.8,9,11,9,11.19Z"/><polygon class="cls-4" points="2.45 3.46 14.31 1.88 14.34 22 2.45 20.37 2.45 3.46"/><text class="cls-5" transform="translate(3.79 13.04)">SQL</text></svg>