<svg id="Layer_1" data-name="Layer 1" xmlns="http://www.w3.org/2000/svg" xmlns:xlink="http://www.w3.org/1999/xlink" viewBox="0 0 24 24"><defs><style>.cls-1{fill:url(#linear-gradient);}</style><linearGradient id="linear-gradient" x1="2.64" y1="12.68" x2="20" y2="12.68" gradientUnits="userSpaceOnUse"><stop offset="0" stop-color="#283376"/><stop offset="1" stop-color="#1c67a6"/></linearGradient></defs><path class="cls-1" d="M12.47,4,13,4a31.63,31.63,0,0,1,4.46.44,7.17,7.17,0,0,1,1.77.5,2.74,2.74,0,0,1,.59.36.57.57,0,0,1,.22.49C20,6.91,20,8,20,9.1a.64.64,0,0,1-.28.57,4.94,4.94,0,0,1-.55.32l-.18.08c.18.09.34.16.49.25a1.77,1.77,0,0,1,.35.26A.54.54,0,0,1,20,11q0,1.68,0,3.36a.63.63,0,0,1-.31.54c-.21.14-.44.25-.67.39l.16.07c.2.13.41.24.6.37a.57.57,0,0,1,.22.49q0,1.63,0,3.27a.74.74,0,0,1-.31.62,3.89,3.89,0,0,1-1.31.55,16.4,16.4,0,0,1-2.7.47,41.51,41.51,0,0,1-5.11.21,32.24,32.24,0,0,1-5.36-.46,8.23,8.23,0,0,1-1.82-.52L3.1,20.2a.86.86,0,0,1-.46-.8c0-1,0-2.1,0-3.14a.66.66,0,0,1,.29-.59c.22-.14.46-.27.7-.4l-.28-.13L3,14.94a.73.73,0,0,1-.36-.69c0-1.07,0-2.13,0-3.2a.62.62,0,0,1,.28-.57c.23-.15.47-.27.71-.41l-.31-.15A3,3,0,0,1,3,9.72a.7.7,0,0,1-.34-.65c0-1.07,0-2.14,0-3.2A.7.7,0,0,1,3,5.25a3.4,3.4,0,0,1,1.18-.53,16.75,16.75,0,0,1,3.14-.53c.92-.07,1.85-.11,2.78-.16l.12,0ZM19.13,17l-.5.17-.5.14a26.49,26.49,0,0,1-5.1.59,46.23,46.23,0,0,1-5.13-.1,20.58,20.58,0,0,1-3.11-.43c-.42-.1-.84-.23-1.27-.35v.16c0,.71,0,1.43,0,2.15a.23.23,0,0,0,.18.26c.4.13.79.29,1.2.38a23.25,23.25,0,0,0,4.78.52c1.32,0,2.65,0,4,0A20.84,20.84,0,0,0,17.5,20c.49-.11,1-.29,1.46-.44a.23.23,0,0,0,.17-.26c0-.72,0-1.44,0-2.15ZM3.53,6.57a.06.06,0,0,0,0,0V9a.21.21,0,0,0,.11.16,6.92,6.92,0,0,0,.76.28A21.4,21.4,0,0,0,8.83,10q2.13.12,4.26,0a25.87,25.87,0,0,0,4.56-.5c.44-.1.87-.26,1.31-.4a.23.23,0,0,0,.17-.27c0-.62,0-1.25,0-1.88V6.56c-.34.1-.67.21-1,.29a25.08,25.08,0,0,1-5,.59,45.69,45.69,0,0,1-5.61-.12,20,20,0,0,1-2.78-.41C4.36,6.82,4,6.69,3.53,6.57Zm0,5.2v2.4a.21.21,0,0,0,.1.13,4.32,4.32,0,0,0,.68.26,20.21,20.21,0,0,0,4.52.65,45.4,45.4,0,0,0,4.81,0,23.25,23.25,0,0,0,4-.48A13.08,13.08,0,0,0,19,14.33c.11,0,.15-.11.15-.24,0-.64,0-1.28,0-1.92v-.41l-1,.3a25.84,25.84,0,0,1-5,.58,43.79,43.79,0,0,1-5.61-.12,20,20,0,0,1-2.78-.4C4.36,12,4,11.89,3.53,11.77ZM3.89,5.7v.06L4,5.82l.84.23a24.67,24.67,0,0,0,4.54.52,40.31,40.31,0,0,0,6.77-.24,12.81,12.81,0,0,0,2.37-.5l.23-.09-.11,0-.55-.17a22.24,22.24,0,0,0-4.3-.58A45.21,45.21,0,0,0,8.37,5,22.08,22.08,0,0,0,5,5.4C4.64,5.49,4.26,5.6,3.89,5.7Zm0,10.41v.07c.33.09.66.2,1,.27A26,26,0,0,0,9.61,17a41.75,41.75,0,0,0,5.48-.13,18.87,18.87,0,0,0,3.07-.49l.61-.19a.32.32,0,0,0-.16-.1l-1.17-.3a1.4,1.4,0,0,0-.41,0c-1.06.11-2.13.27-3.2.32q-2.05.09-4.11,0c-1.16,0-2.31-.16-3.46-.26a3.26,3.26,0,0,0-1.39,0C4.55,15.94,4.21,16,3.88,16.11ZM18.77,11v-.06l-.09,0c-.32-.09-.63-.19-.94-.26a2,2,0,0,0-.67-.08,33.87,33.87,0,0,1-5,.38c-1.2,0-2.41,0-3.62-.09-.86,0-1.71-.17-2.57-.26a3.38,3.38,0,0,0-.55,0,3.73,3.73,0,0,0-.56.12l-.85.24V11l.4.14a18.26,18.26,0,0,0,3.6.58,44.24,44.24,0,0,0,4.89.11,27.44,27.44,0,0,0,4.7-.48C17.91,11.22,18.34,11.1,18.77,11Z"/></svg>