<svg id="Layer_1" data-name="Layer 1" xmlns="http://www.w3.org/2000/svg" xmlns:xlink="http://www.w3.org/1999/xlink" viewBox="0 0 24 24"><defs><style>.cls-1{fill:url(#linear-gradient);}.cls-2{fill:url(#linear-gradient-2);}.cls-3{fill:url(#linear-gradient-3);}.cls-4{fill:url(#linear-gradient-4);}.cls-5{fill:url(#linear-gradient-5);}.cls-6{fill:url(#linear-gradient-6);}.cls-7{fill:url(#linear-gradient-7);}.cls-8{fill:url(#linear-gradient-8);}.cls-9{fill:url(#linear-gradient-9);}</style><linearGradient id="linear-gradient" x1="2.19" y1="7.88" x2="22" y2="7.88" gradientUnits="userSpaceOnUse"><stop offset="0" stop-color="#283376"/><stop offset="1" stop-color="#1c67a6"/></linearGradient><linearGradient id="linear-gradient-2" x1="2.89" y1="18.75" x2="11.38" y2="18.75" xlink:href="#linear-gradient"/><linearGradient id="linear-gradient-3" x1="2.89" y1="14.26" x2="11.38" y2="14.26" xlink:href="#linear-gradient"/><linearGradient id="linear-gradient-4" x1="12.89" y1="14.26" x2="21.38" y2="14.26" xlink:href="#linear-gradient"/><linearGradient id="linear-gradient-5" x1="12.8" y1="18.75" x2="21.28" y2="18.75" xlink:href="#linear-gradient"/><linearGradient id="linear-gradient-6" x1="2.88" y1="16.62" x2="11.4" y2="16.62" xlink:href="#linear-gradient"/><linearGradient id="linear-gradient-7" x1="12.8" y1="16.62" x2="21.31" y2="16.62" xlink:href="#linear-gradient"/><linearGradient id="linear-gradient-8" x1="2.89" y1="20.87" x2="11.38" y2="20.87" xlink:href="#linear-gradient"/><linearGradient id="linear-gradient-9" x1="12.8" y1="20.87" x2="21.29" y2="20.87" xlink:href="#linear-gradient"/></defs><path class="cls-1" d="M8.43,3.64H10c.06,0,.13-.09.16-.16a2.12,2.12,0,0,1,3.23-.8,2.19,2.19,0,0,1,.72,1,.3.3,0,0,0,.13.18c.77.32,1.55.62,2.32.93a2.13,2.13,0,1,1,3,2.78c.22.32.43.65.66,1a.37.37,0,0,0,.21.12,2.12,2.12,0,0,1-.11,4.11,2.12,2.12,0,0,1-1.77-3.73l.2-.14a10.39,10.39,0,0,0-.69-1c-.11-.13-.34-.15-.52-.22,0,0-.07.06-.1.09l-3.18,3.83a.6.6,0,0,0-.12.24,2.1,2.1,0,0,1-4,.31.33.33,0,0,0-.27-.24l-3.44-1-.17,0-.1.17A2.12,2.12,0,1,1,4.46,7.89,2,2,0,0,1,6.28,9.27a.36.36,0,0,0,.25.23l3.47,1c.13,0,.19,0,.25-.1a3.5,3.5,0,0,1,.23-.35l-.1-.14L7.47,6.41a.22.22,0,0,0-.31-.08A2,2,0,0,1,5,5.9a2,2,0,0,1-.59-2.16A2,2,0,0,1,6.06,2.26,2.08,2.08,0,0,1,8.37,3.5Zm0,1.41c-.12.13-.09.23,0,.35Q10,7.29,11.63,9.2a.27.27,0,0,0,.29.11,1.94,1.94,0,0,1,1.32.34,5.74,5.74,0,0,1,.49.4l.18-.22,2.51-3a.4.4,0,0,0-.15-.61l-1.71-.68L14,5.32A6,6,0,0,1,13.4,6a2.09,2.09,0,0,1-3.23-.78c0-.1-.07-.18-.21-.17Z"/><path class="cls-2" d="M11.38,17.58c0,.35,0,.67,0,1a.7.7,0,0,1-.38.52,3.69,3.69,0,0,1-1.46.57,10.77,10.77,0,0,1-5.29-.14,4.27,4.27,0,0,1-1-.43.77.77,0,0,1-.4-.76c0-.24,0-.48,0-.75a8.32,8.32,0,0,0,4.25.91A8.3,8.3,0,0,0,11.38,17.58Z"/><path class="cls-3" d="M7.13,15.68l-.63,0-1-.1a7.55,7.55,0,0,1-.8-.16l-.38-.1a1.46,1.46,0,0,0-.38-.14,2.65,2.65,0,0,1-.65-.33c-.5-.35-.52-.82,0-1.15a4.45,4.45,0,0,1,1.16-.51,10.9,10.9,0,0,1,5.64.06,3.45,3.45,0,0,1,.74.32c.28.15.56.33.57.7a.79.79,0,0,1-.57.7A9.26,9.26,0,0,1,7.13,15.68Z"/><path class="cls-4" d="M17.13,15.69l-.63,0-1-.1a7.55,7.55,0,0,1-.8-.16l-.38-.1a1.46,1.46,0,0,0-.38-.14,2.65,2.65,0,0,1-.65-.33c-.5-.35-.52-.82,0-1.15a4.45,4.45,0,0,1,1.16-.51,10.9,10.9,0,0,1,5.64.06,3.45,3.45,0,0,1,.74.32c.28.15.56.33.57.7a.79.79,0,0,1-.57.7A9.27,9.27,0,0,1,17.13,15.69Z"/><path class="cls-5" d="M21.28,17.58c0,.35,0,.69,0,1a.71.71,0,0,1-.4.51,4.16,4.16,0,0,1-1.44.56,10.93,10.93,0,0,1-5.27-.15,4.45,4.45,0,0,1-1-.44.73.73,0,0,1-.39-.74c0-.25,0-.5,0-.77a8.26,8.26,0,0,0,4.26.92A8.19,8.19,0,0,0,21.28,17.58Z"/><path class="cls-6" d="M2.89,15.45a8.21,8.21,0,0,0,4.24.92,8.25,8.25,0,0,0,4.27-.93,7.91,7.91,0,0,1-.06,1.11c-.06.3-.36.45-.62.58a6.08,6.08,0,0,1-2,.56,10.87,10.87,0,0,1-4.25-.23,5.23,5.23,0,0,1-1-.42.84.84,0,0,1-.52-.89C2.91,15.92,2.89,15.7,2.89,15.45Z"/><path class="cls-7" d="M12.8,15.45a8.21,8.21,0,0,0,4.24.92,8.25,8.25,0,0,0,4.27-.93,5.66,5.66,0,0,1-.07,1.11,1,1,0,0,1-.49.5,6.7,6.7,0,0,1-1.42.51,10.69,10.69,0,0,1-5.24-.18,4.17,4.17,0,0,1-1-.48.67.67,0,0,1-.32-.65C12.81,16,12.8,15.73,12.8,15.45Z"/><path class="cls-8" d="M2.89,19.7a8.27,8.27,0,0,0,4.25.92,8.3,8.3,0,0,0,4.23-.91,5.76,5.76,0,0,1,0,1,.89.89,0,0,1-.35.47,3.47,3.47,0,0,1-1.39.57,10.78,10.78,0,0,1-5.41-.14,4.56,4.56,0,0,1-1-.49.66.66,0,0,1-.32-.64C2.9,20.24,2.89,20,2.89,19.7Z"/><path class="cls-9" d="M12.8,19.69c1.83,1.23,6.67,1.24,8.47,0a5.34,5.34,0,0,1,0,1.06.84.84,0,0,1-.44.49,5.47,5.47,0,0,1-1.29.5,10.56,10.56,0,0,1-5.41-.13,4.75,4.75,0,0,1-1-.5.65.65,0,0,1-.3-.62C12.81,20.25,12.8,20,12.8,19.69Z"/></svg>