<svg id="Layer_1" data-name="Layer 1" xmlns="http://www.w3.org/2000/svg" xmlns:xlink="http://www.w3.org/1999/xlink" viewBox="0 0 24 24"><defs><style>.cls-1{fill:url(#linear-gradient);}.cls-2{fill:url(#linear-gradient-2);}.cls-3{fill:url(#linear-gradient-3);}.cls-4{fill:url(#linear-gradient-4);}</style><linearGradient id="linear-gradient" x1="3.74" y1="7.48" x2="20" y2="7.48" gradientUnits="userSpaceOnUse"><stop offset="0" stop-color="#283376"/><stop offset="1" stop-color="#1c67a6"/></linearGradient><linearGradient id="linear-gradient-2" x1="3.74" y1="18.95" x2="20" y2="18.95" xlink:href="#linear-gradient"/><linearGradient id="linear-gradient-3" x1="3.74" y1="13.22" x2="19.98" y2="13.22" xlink:href="#linear-gradient"/><linearGradient id="linear-gradient-4" x1="3.75" y1="3.36" x2="19.98" y2="3.36" xlink:href="#linear-gradient"/></defs><path class="cls-1" d="M3.74,4.5A37,37,0,0,0,20,4.5v.2c0,1.52,0,3,0,4.54a.24.24,0,0,1-.22.28,36.31,36.31,0,0,1-9.69.92A27.83,27.83,0,0,1,4,9.54c-.21,0-.26-.14-.26-.34,0-1.49,0-3,0-4.45ZM16.06,7.69a.47.47,0,0,0,.44.49A.48.48,0,0,0,17,7.74a.49.49,0,0,0-.45-.49A.48.48,0,0,0,16.06,7.69Zm1.81-.3a.44.44,0,0,0,.45.46.45.45,0,0,0,.46-.45.46.46,0,0,0-.45-.47A.45.45,0,0,0,17.87,7.39Zm-3.2.89a.44.44,0,0,0,.46-.45.47.47,0,0,0-.46-.47.48.48,0,0,0-.47.46A.47.47,0,0,0,14.67,8.28Z"/><path class="cls-2" d="M3.74,16A36.78,36.78,0,0,0,20,16a1.41,1.41,0,0,1,0,.21c0,1.5,0,3,0,4.51,0,.19-.05.26-.23.3a36.2,36.2,0,0,1-10.58.86A26.23,26.23,0,0,1,4,21c-.17-.05-.24-.11-.24-.31,0-1.5,0-3,0-4.49ZM17,19.19a.49.49,0,0,0-.46-.47.47.47,0,0,0,0,.93A.49.49,0,0,0,17,19.19Zm-2.32-.35a.46.46,0,0,0-.47.45.47.47,0,0,0,.47.46.46.46,0,1,0,0-.91Zm4.11,0a.46.46,0,1,0-.91,0,.44.44,0,0,0,.46.45A.44.44,0,0,0,18.78,18.86Z"/><path class="cls-3" d="M3.76,10.24a36.84,36.84,0,0,0,16.22,0v5l-1,.23a35.67,35.67,0,0,1-8.92.74A25.73,25.73,0,0,1,4,15.25c-.13,0-.21-.05-.21-.22,0-1.56,0-3.12,0-4.68A.52.52,0,0,1,3.76,10.24Zm11.37,3.33a.47.47,0,0,0-.44-.48.47.47,0,1,0,0,.93A.47.47,0,0,0,15.13,13.57Zm2.74-.44a.46.46,0,1,0,.45-.46A.45.45,0,0,0,17.87,13.13ZM16.53,13a.46.46,0,0,0-.47.46.45.45,0,0,0,.46.45.46.46,0,0,0,.47-.45A.47.47,0,0,0,16.53,13Z"/><path class="cls-4" d="M11.85,4.82a31.35,31.35,0,0,1-5.8-.44,14.86,14.86,0,0,1-1.81-.52c-.23-.07-.49-.2-.49-.5S4,3,4.24,2.87a7.81,7.81,0,0,1,2.18-.58A38.13,38.13,0,0,1,14.48,2a20.44,20.44,0,0,1,4.12.57,5.72,5.72,0,0,1,1,.4c.45.24.45.56,0,.82a5.43,5.43,0,0,1-1.72.56A31.67,31.67,0,0,1,11.85,4.82Z"/></svg>