<svg id="Layer_1" data-name="Layer 1" xmlns="http://www.w3.org/2000/svg" xmlns:xlink="http://www.w3.org/1999/xlink" viewBox="0 0 24 24"><defs><style>.cls-1{fill:url(#linear-gradient);}</style><linearGradient id="linear-gradient" x1="3.29" y1="13.76" x2="21" y2="13.76" gradientUnits="userSpaceOnUse"><stop offset="0" stop-color="#283376"/><stop offset="1" stop-color="#1c67a6"/></linearGradient></defs><path class="cls-1" d="M10.44,15.91,10,16.3a3.7,3.7,0,0,1-2.48.78c-.15,0-.28,0-.32-.22s.05-.26.18-.34a9.47,9.47,0,0,0,.8-.56,1.82,1.82,0,0,0,.56-.8.22.22,0,0,0,0-.18c-.07-.09-.13,0-.19,0a2,2,0,0,1-1,.4,1.49,1.49,0,0,1-1.44-.59,3.36,3.36,0,0,1-.35-.57L3.45,9.18a1.52,1.52,0,0,1,.09-1.5,2.69,2.69,0,0,1,.82-.86,4.09,4.09,0,0,1,3.25-.71A2.93,2.93,0,0,1,9.14,7l.07.09a4.5,4.5,0,0,1,.41-.25,2.42,2.42,0,0,1,1.18-.28c.83,0,1.66,0,2.48,0a2.64,2.64,0,0,1,1.78.54l.06,0a3,3,0,0,1,2.6-1,4.13,4.13,0,0,1,2.59,1.1A2,2,0,0,1,21,8.29a1.4,1.4,0,0,1-.11.83c-.79,1.72-1.56,3.44-2.36,5.15a2.55,2.55,0,0,1-.46.68,1.47,1.47,0,0,1-1.63.38,4,4,0,0,1-.65-.33c-.06,0-.12-.11-.19,0a.21.21,0,0,0,0,.19,2,2,0,0,0,.7.93c.21.15.43.29.65.42a.29.29,0,0,1,.18.35c0,.16-.17.2-.32.21A3.7,3.7,0,0,1,14,16l-.12-.1h0c0,.21,0,.42,0,.63,0,1.17,0,2.33,0,3.5a1.47,1.47,0,0,1-1.21,1.43,2.17,2.17,0,0,1-.36,0H10.8a1.44,1.44,0,0,1-1.41-1.33,2.66,2.66,0,0,1,0-.69,1.18,1.18,0,0,1,.94-1c.09,0,.13-.05.13-.15,0-.72,0-1.44,0-2.16C10.47,16.11,10.45,16,10.44,15.91ZM8.83,10.49v3.06c0,.18,0,.36,0,.54,0,.34.15.49.49.5l.41,0A1.3,1.3,0,0,1,11,15.76a3.7,3.7,0,0,1,.07.66v3.1c0,.21-.1.32-.28.33s-.27-.11-.27-.33,0-.3,0-.46a.62.62,0,0,0-.52.5,4,4,0,0,0,0,.5.89.89,0,0,0,.85.89c.54,0,1.09,0,1.63,0a.87.87,0,0,0,.83-.72c0-.3,0-.61,0-.94-.26,0-.52,0-.78,0a.41.41,0,0,1-.26-.13.33.33,0,0,1,0-.26.25.25,0,0,1,.27-.16h.79v-.55h-.81a.28.28,0,0,1-.27-.19.25.25,0,0,1,.09-.3.44.44,0,0,1,.23-.06h.76v-.55h-.81a.28.28,0,0,1-.27-.19.23.23,0,0,1,.09-.29.37.37,0,0,1,.23-.07c.26,0,.51,0,.76,0,0-.21,0-.4,0-.59a1.33,1.33,0,0,1,1.22-1.31,4.55,4.55,0,0,1,.53,0,.39.39,0,0,0,.41-.38,1,1,0,0,0,0-.17V10.62a1.05,1.05,0,0,0,0-.13.85.85,0,0,0-.54.77.28.28,0,0,1-.3.29.28.28,0,0,1-.25-.32,1.38,1.38,0,0,1,1-1.29.13.13,0,0,0,.12-.15c0-.27,0-.53,0-.8A1.9,1.9,0,0,0,13.6,7.13c-1,0-1.94,0-2.91,0A1.86,1.86,0,0,0,8.9,8.57a7.38,7.38,0,0,0-.07,1.16A.19.19,0,0,0,9,10a1.36,1.36,0,0,1,.94,1.25c0,.21-.08.32-.25.34s-.28-.1-.3-.3c0,0,0-.09,0-.14A.83.83,0,0,0,8.83,10.49Zm5.31,4.87a2.87,2.87,0,0,0,1.65,1A2.61,2.61,0,0,1,15,15.16,1.13,1.13,0,0,0,14.14,15.36Zm-4.8-.21c-.12.24-.21.47-.34.68s-.31.39-.48.6a3.32,3.32,0,0,0,1.65-1.07A1.27,1.27,0,0,0,9.34,15.15Z"/></svg>