<svg width="109" height="148" viewBox="0 0 109 148" fill="none" xmlns="http://www.w3.org/2000/svg">
<path d="M52.144 147.926C50.214 147.926 48.2915 147.445 46.8214 146.484L18.5874 127.934C17.1172 126.973 16.3105 125.668 16.3105 124.27C16.3105 122.871 17.1172 121.576 18.5874 120.615L46.8214 102.064C49.7541 100.133 54.5264 100.133 57.4666 102.064L85.7007 120.615C87.1708 121.576 87.9775 122.88 87.9775 124.278C87.9775 125.677 87.1708 126.973 85.7082 127.934L57.4742 146.484C56.004 147.437 54.074 147.926 52.144 147.926ZM47.0702 145.987C49.8672 147.831 54.4208 147.831 57.2179 145.987L85.4519 127.436C86.7562 126.578 87.4799 125.454 87.4799 124.27C87.4799 123.086 86.7562 121.953 85.4519 121.095L57.2179 102.544C54.4208 100.7 49.8597 100.708 47.0702 102.544L18.8361 121.095C17.5319 121.953 16.8081 123.077 16.8081 124.261C16.8081 125.445 17.5319 126.578 18.8361 127.436L47.0702 145.987Z" fill="#273C7F"/>
<path opacity="0.4" d="M88.8532 117.145V106.145L87.0815 105.021C86.584 108.453 83.0255 110.718 80.0551 111.19L59.8276 124.653L50.9993 128.282L22.818 111.731L23.4664 111.302C21.0614 110.023 19.7571 107.089 18.4604 104.42L16.5606 105.707L15.4297 106.068V117.256C15.4297 118.681 16.259 120.114 17.91 121.195L46.1441 139.745C49.4462 141.916 54.8291 141.916 58.1313 139.745L86.3653 121.195C87.9938 120.122 88.8156 118.732 88.8457 117.325C88.8533 117.265 88.8532 117.205 88.8532 117.145Z" fill="#273C7F"/>
<path d="M88.8532 107.367V100.091L87.0815 98.9665C86.584 102.399 83.0255 104.664 80.0551 105.136L59.8276 118.598L50.9993 122.228L22.818 105.676L23.4664 105.247C21.0614 103.969 19.7571 101.034 18.4604 98.366L16.5606 99.653L15.4297 100.013V107.478C15.4297 108.903 16.259 110.335 17.91 111.417L46.1441 129.967C49.4462 132.138 54.8291 132.138 58.1313 129.967L86.3653 111.417C87.9938 110.344 88.8156 108.954 88.8457 107.547C88.8533 107.487 88.8532 107.427 88.8532 107.367Z" fill="#273C7F"/>
<path opacity="0.3" d="M80.0622 105.133L59.8347 118.596L52.1523 121.753V131.595C54.3236 131.595 56.4949 131.054 58.146 129.965L86.38 111.414C88.0085 110.341 88.8302 108.951 88.8604 107.544C88.8604 107.484 88.8604 107.416 88.8604 107.356H88.8679V100.079L87.2545 99.0583H87.0887C86.5157 102.439 83.0025 104.67 80.0622 105.133Z" fill="#0F054C"/>
<path d="M46.154 122.58L17.92 104.029C14.6178 101.858 14.6178 98.3233 17.92 96.1525L46.154 77.6017C49.4561 75.4309 54.8391 75.4309 58.1412 77.6017L86.3752 96.1525C89.6774 98.3233 89.6774 101.858 86.3752 104.029L58.1412 122.58C54.8391 124.751 49.4637 124.751 46.154 122.58Z" fill="#273C7F"/>
<path d="M52.1464 119.208C50.4048 119.208 48.6633 118.77 47.3365 117.904L25.277 103.412C23.9501 102.536 23.2188 101.361 23.2188 100.091C23.2188 98.8211 23.9501 97.6456 25.277 96.7704L47.3365 82.2783C49.9902 80.5365 54.3026 80.5365 56.9488 82.2783L79.0083 96.7704C80.3352 97.6456 81.0665 98.8211 81.0665 100.091C81.0665 101.361 80.3352 102.536 79.0083 103.412L56.9488 117.904C55.6295 118.77 53.8879 119.208 52.1464 119.208ZM52.1464 81.5146C50.4953 81.5146 48.8443 81.9264 47.5852 82.7501L25.5257 97.2423C24.3572 98.0059 23.7088 99.0184 23.7088 100.074C23.7088 101.129 24.3496 102.142 25.5257 102.905L47.5852 117.397C50.1033 119.053 54.1895 119.053 56.7076 117.397L78.767 102.905C79.9356 102.142 80.5764 101.129 80.5764 100.074C80.5764 99.0184 79.9356 98.0059 78.767 97.2423L56.7076 82.7501C55.4561 81.935 53.7974 81.5146 52.1464 81.5146Z" fill="#273C7F"/>
<path d="M86.3735 104.017L58.1394 122.568C54.8373 124.738 49.4544 124.738 46.1522 122.568L17.9182 104.017C16.4405 103.047 15.6263 101.803 15.468 100.533C15.272 102.104 16.0862 103.725 17.9182 104.927L46.1522 123.477C49.4544 125.648 54.8373 125.648 58.1394 123.477L86.3735 104.927C88.1979 103.725 89.0197 102.104 88.8237 100.533C88.6729 101.803 87.8511 103.047 86.3735 104.017Z" fill="#273C7F"/>
<path d="M52.389 109.831C63.7769 109.831 73.0086 104.995 73.0086 99.0285C73.0086 93.0624 63.7769 88.2258 52.389 88.2258C41.0012 88.2258 31.7695 93.0624 31.7695 99.0285C31.7695 104.995 41.0012 109.831 52.389 109.831Z" fill="url(#paint0_radial_2198_18632)"/>
<path opacity="0.5" d="M52.3908 106.474C48.3724 106.474 44.6029 105.659 41.7757 104.175C39.0767 102.759 37.584 100.931 37.584 99.0264C37.584 97.1215 39.0692 95.2939 41.7757 93.8782C44.6029 92.3938 48.3724 91.5786 52.3908 91.5786C56.4092 91.5786 60.1787 92.3938 63.0059 93.8782C65.7049 95.2939 67.1977 97.1215 67.1977 99.0264C67.1977 100.931 65.7125 102.759 63.0059 104.175C60.1787 105.659 56.4092 106.474 52.3908 106.474Z" fill="#273C7F"/>
<path opacity="0.5" d="M52.3901 105.898C48.4472 105.898 44.753 105.1 41.9937 103.65C39.4832 102.337 38.1035 100.69 38.1035 99.0252C38.1035 97.3606 39.4832 95.7217 41.9937 94.4004C44.753 92.9503 48.4472 92.1523 52.3977 92.1523C56.3406 92.1523 60.0348 92.9503 62.7942 94.4004C65.3047 95.7132 66.6843 97.3606 66.6843 99.0252C66.6843 100.69 65.3047 102.329 62.7942 103.65C60.0348 105.1 56.3406 105.898 52.3901 105.898Z" fill="#273C7F"/>
<path d="M66.9693 106.671C58.9175 110.893 45.8598 110.893 37.808 106.671C33.6389 104.483 31.6334 101.6 31.7767 98.7346C31.9124 101.403 33.9178 104.046 37.808 106.088C45.8598 110.31 58.9175 110.31 66.9693 106.088C70.852 104.054 72.8649 101.403 73.0006 98.7346C73.1514 101.6 71.1385 104.483 66.9693 106.671Z" fill="#396FB5"/>
<path d="M73.0006 98.7311C72.8649 96.0626 70.852 93.4199 66.9693 91.3778C58.9175 87.1563 45.8598 87.1563 37.808 91.3778C33.9178 93.4113 31.9124 96.0626 31.7767 98.7311C31.6334 95.8738 33.6389 92.9823 37.808 90.7943C45.8598 86.5728 58.9175 86.5728 66.9693 90.7943C71.1385 92.9823 73.1514 95.8738 73.0006 98.7311Z" fill="#273C7F"/>
<path opacity="0.3" d="M52.3888 105.94C60.2999 105.94 66.7131 102.652 66.7131 98.5953C66.7131 94.5389 60.2999 91.2505 52.3888 91.2505C44.4777 91.2505 38.0645 94.5389 38.0645 98.5953C38.0645 102.652 44.4777 105.94 52.3888 105.94Z" fill="#273C7F"/>
<path opacity="0.5" d="M52.3923 105.417C48.6303 105.417 45.1096 104.67 42.4633 103.314C39.9377 102.019 38.543 100.346 38.543 98.6038C38.543 96.862 39.9377 95.1888 42.4633 93.8931C45.1096 92.5375 48.6379 91.791 52.3923 91.791C56.1544 91.791 59.6752 92.5375 62.3214 93.8931C64.847 95.1888 66.2417 96.862 66.2417 98.6038C66.2417 100.346 64.847 102.019 62.3214 103.314C59.6827 104.67 56.1544 105.417 52.3923 105.417Z" fill="#273C7F"/>
<path opacity="0.5" d="M52.39 104.884C48.6959 104.884 45.243 104.155 42.657 102.833C40.3048 101.632 39.0156 100.122 39.0156 98.6031C39.0156 97.0844 40.3124 95.5742 42.657 94.373C45.243 93.0516 48.6959 92.3223 52.39 92.3223C56.0842 92.3223 59.5371 93.0516 62.1231 94.373C64.4753 95.5742 65.7644 97.0844 65.7644 98.6031C65.7644 100.13 64.4677 101.632 62.1231 102.833C59.5447 104.155 56.0842 104.884 52.39 104.884Z" fill="#273C7F"/>
<path opacity="0.8" d="M67.1885 71.1471C67.1885 71.1214 67.1885 71.087 67.1885 71.0612C67.1885 68.8818 65.5977 66.8655 62.7178 65.3811C59.9509 63.9653 56.2793 63.1846 52.3892 63.1846C48.499 63.1846 44.8274 63.9653 42.0606 65.3811C39.1731 66.8569 37.5898 68.8733 37.5898 71.0612C37.5898 71.087 37.5898 71.1214 37.5898 71.1471C37.5898 71.1729 37.5898 71.2072 37.5898 71.2329C37.5898 71.2586 37.5898 71.2929 37.5898 71.3187C37.5898 71.3444 37.5898 71.3787 37.5898 71.4045C37.5898 71.4302 37.5898 71.4645 37.5898 71.4902C37.5898 71.516 37.5898 71.5504 37.5898 71.5761C37.5898 71.6019 37.5898 71.6362 37.5898 71.6619C37.5898 71.6877 37.5898 71.722 37.5898 71.7477C37.5898 71.7734 37.5898 71.8077 37.5898 71.8335C37.5898 71.8592 37.5898 71.8935 37.5898 71.9193C37.5898 71.945 37.5898 71.9794 37.5898 72.0052C37.5898 72.0309 37.5898 72.0652 37.5898 72.0909C37.5898 72.1167 37.5898 72.151 37.5898 72.1767C37.5898 72.2025 37.5898 72.2368 37.5898 72.2625C37.5898 72.2882 37.5898 72.3225 37.5898 72.3483C37.5898 72.374 37.5898 72.4084 37.5898 72.4342C37.5898 72.4599 37.5898 72.4942 37.5898 72.5199C37.5898 72.5457 37.5898 72.58 37.5898 72.6057C37.5898 72.6315 37.5898 72.6658 37.5898 72.6915C37.5898 72.7173 37.5898 72.7516 37.5898 72.7773C37.5898 72.803 37.5898 72.8374 37.5898 72.8632C37.5898 72.8889 37.5898 72.9232 37.5898 72.949C37.5898 72.9747 37.5898 73.009 37.5898 73.0347C37.5898 73.0605 37.5898 73.0948 37.5898 73.1205C37.5898 73.1463 37.5898 73.1806 37.5898 73.2063C37.5898 73.2321 37.5898 73.2665 37.5898 73.2922C37.5898 73.3179 37.5898 73.3522 37.5898 73.378C37.5898 73.4037 37.5898 73.438 37.5898 73.4638C37.5898 73.4895 37.5898 73.5238 37.5898 73.5495C37.5898 73.5753 37.5898 73.6096 37.5898 73.6353C37.5898 73.6611 37.5898 73.6955 37.5898 73.7212C37.5898 73.747 37.5898 73.7813 37.5898 73.807C37.5898 73.8327 37.5898 73.867 37.5898 73.8928C37.5898 73.9185 37.5898 73.9528 37.5898 73.9786C37.5898 74.0043 37.5898 74.0386 37.5898 74.0643C37.5898 74.0901 37.5898 74.1245 37.5898 74.1502C37.5898 74.176 37.5898 74.2103 37.5898 74.236C37.5898 74.2618 37.5898 74.2961 37.5898 74.3218C37.5898 74.3475 37.5898 74.3818 37.5898 74.4076C37.5898 74.4333 37.5898 74.4676 37.5898 74.4934C37.5898 74.5191 37.5898 74.5535 37.5898 74.5792C37.5898 74.605 37.5898 74.6393 37.5898 74.665C37.5898 74.6908 37.5898 74.7251 37.5898 74.7508C37.5898 74.7765 37.5898 74.8108 37.5898 74.8366C37.5898 74.8623 37.5898 74.8966 37.5898 74.9224C37.5898 74.9481 37.5898 74.9825 37.5898 75.0083C37.5898 75.034 37.5898 75.0683 37.5898 75.094C37.5898 75.1198 37.5898 75.1541 37.5898 75.1798C37.5898 75.2056 37.5898 75.2399 37.5898 75.2656C37.5898 75.2913 37.5898 75.3256 37.5898 75.3514C37.5898 75.3771 37.5898 75.4115 37.5898 75.4373C37.5898 75.463 37.5898 75.4973 37.5898 75.5231C37.5898 75.5488 37.5898 75.5831 37.5898 75.6088C37.5898 75.6346 37.5898 75.6689 37.5898 75.6946C37.5898 75.7204 37.5898 75.7547 37.5898 75.7804C37.5898 75.8061 37.5898 75.8405 37.5898 75.8663C37.5898 75.892 37.5898 75.9263 37.5898 75.9521C37.5898 75.9778 37.5898 76.0121 37.5898 76.0379C37.5898 76.0636 37.5898 76.0979 37.5898 76.1236C37.5898 76.1494 37.5898 76.1837 37.5898 76.2094C37.5898 76.2352 37.5898 76.2696 37.5898 76.2953C37.5898 76.321 37.5898 76.3553 37.5898 76.3811C37.5898 76.4068 37.5898 76.4411 37.5898 76.4669C37.5898 76.4926 37.5898 76.5269 37.5898 76.5527C37.5898 76.5784 37.5898 76.6127 37.5898 76.6384C37.5898 76.6642 37.5898 76.6986 37.5898 76.7243C37.5898 76.7501 37.5898 76.7844 37.5898 76.8101C37.5898 76.8358 37.5898 76.8701 37.5898 76.8959C37.5898 76.9216 37.5898 76.9559 37.5898 76.9817C37.5898 77.0074 37.5898 77.0417 37.5898 77.0674C37.5898 77.0932 37.5898 77.1276 37.5898 77.1533C37.5898 77.1791 37.5898 77.2134 37.5898 77.2391C37.5898 77.2649 37.5898 77.2992 37.5898 77.3249C37.5898 77.3506 37.5898 77.3849 37.5898 77.4107C37.5898 77.4364 37.5898 77.4707 37.5898 77.4965C37.5898 77.5222 37.5898 77.5566 37.5898 77.5824C37.5898 77.6081 37.5898 77.6424 37.5898 77.6681C37.5898 77.6939 37.5898 77.7282 37.5898 77.7539C37.5898 77.7797 37.5898 77.814 37.5898 77.8397C37.5898 77.8654 37.5898 77.8997 37.5898 77.9255C37.5898 77.9512 37.5898 77.9856 37.5898 78.0114C37.5898 78.0371 37.5898 78.0714 37.5898 78.0971C37.5898 78.1229 37.5898 78.1572 37.5898 78.1829C37.5898 78.2087 37.5898 78.243 37.5898 78.2687C37.5898 78.2945 37.5898 78.3288 37.5898 78.3545C37.5898 78.3802 37.5898 78.4146 37.5898 78.4404C37.5898 78.4661 37.5898 78.5004 37.5898 78.5262C37.5898 78.5519 37.5898 78.5862 37.5898 78.6119C37.5898 78.6377 37.5898 78.672 37.5898 78.6977C37.5898 78.7235 37.5898 78.7578 37.5898 78.7835C37.5898 78.8093 37.5898 78.8437 37.5898 78.8694C37.5898 78.8951 37.5898 78.9294 37.5898 78.9552C37.5898 78.9809 37.5898 79.0152 37.5898 79.041C37.5898 79.0667 37.5898 79.101 37.5898 79.1267C37.5898 79.1525 37.5898 79.1868 37.5898 79.2125C37.5898 79.2383 37.5898 79.2727 37.5898 79.2984C37.5898 79.3242 37.5898 79.3585 37.5898 79.3842C37.5898 79.4099 37.5898 79.4442 37.5898 79.47C37.5898 79.4957 37.5898 79.53 37.5898 79.5558C37.5898 79.5815 37.5898 79.6158 37.5898 79.6415C37.5898 79.6673 37.5898 79.7017 37.5898 79.7274C37.5898 79.7532 37.5898 79.7875 37.5898 79.8132C37.5898 79.8389 37.5898 79.8733 37.5898 79.899C37.5898 79.9247 37.5898 79.959 37.5898 79.9848C37.5898 80.0105 37.5898 80.0448 37.5898 80.0706C37.5898 80.0963 37.5898 80.1307 37.5898 80.1564C37.5898 80.1822 37.5898 80.2165 37.5898 80.2422C37.5898 80.268 37.5898 80.3023 37.5898 80.328C37.5898 80.3537 37.5898 80.388 37.5898 80.4138C37.5898 80.4395 37.5898 80.4738 37.5898 80.4996C37.5898 80.5253 37.5898 80.5597 37.5898 80.5855C37.5898 80.6112 37.5898 80.6455 37.5898 80.6712C37.5898 80.697 37.5898 80.7313 37.5898 80.757C37.5898 80.7828 37.5898 80.8171 37.5898 80.8428C37.5898 80.8685 37.5898 80.9028 37.5898 80.9286C37.5898 80.9543 37.5898 80.9887 37.5898 81.0145C37.5898 81.0402 37.5898 81.0745 37.5898 81.1003C37.5898 81.126 37.5898 81.1603 37.5898 81.186C37.5898 81.2118 37.5898 81.2461 37.5898 81.2718C37.5898 81.2976 37.5898 81.3319 37.5898 81.3576C37.5898 81.3833 37.5898 81.4177 37.5898 81.4435C37.5898 81.4692 37.5898 81.5035 37.5898 81.5293C37.5898 81.555 37.5898 81.5893 37.5898 81.6151C37.5898 81.6408 37.5898 81.6751 37.5898 81.7008C37.5898 81.7266 37.5898 81.7609 37.5898 81.7866C37.5898 81.8124 37.5898 81.8468 37.5898 81.8725C37.5898 81.8982 37.5898 81.9325 37.5898 81.9583C37.5898 81.984 37.5898 82.0183 37.5898 82.0441C37.5898 82.0698 37.5898 82.1041 37.5898 82.1298C37.5898 82.1556 37.5898 82.1899 37.5898 82.2156C37.5898 82.2414 37.5898 82.2758 37.5898 82.3015C37.5898 82.3273 37.5898 82.3616 37.5898 82.3873C37.5898 82.413 37.5898 82.4473 37.5898 82.4731C37.5898 82.4988 37.5898 82.5331 37.5898 82.5589C37.5898 82.5846 37.5898 82.6189 37.5898 82.6446C37.5898 82.6704 37.5898 82.7048 37.5898 82.7305C37.5898 82.7563 37.5898 82.7906 37.5898 82.8163C37.5898 82.8421 37.5898 82.8764 37.5898 82.9021C37.5898 82.9278 37.5898 82.9621 37.5898 82.9879C37.5898 83.0136 37.5898 83.0479 37.5898 83.0737C37.5898 83.0994 37.5898 83.1338 37.5898 83.1595C37.5898 83.1853 37.5898 83.2196 37.5898 83.2453C37.5898 83.2711 37.5898 83.3054 37.5898 83.3311C37.5898 83.3569 37.5898 83.3912 37.5898 83.4169C37.5898 83.4426 37.5898 83.4769 37.5898 83.5027C37.5898 83.5284 37.5898 83.5628 37.5898 83.5886C37.5898 83.6143 37.5898 83.6486 37.5898 83.6743C37.5898 83.7001 37.5898 83.7344 37.5898 83.7601C37.5898 83.7859 37.5898 83.8202 37.5898 83.8459C37.5898 83.8717 37.5898 83.906 37.5898 83.9317C37.5898 83.9574 37.5898 83.9918 37.5898 84.0176C37.5898 84.0433 37.5898 84.0776 37.5898 84.1034C37.5898 84.1291 37.5898 84.1634 37.5898 84.1891C37.5898 84.2149 37.5898 84.2492 37.5898 84.2749C37.5898 84.3007 37.5898 84.335 37.5898 84.3607C37.5898 84.3864 37.5898 84.4209 37.5898 84.4466C37.5898 84.4723 37.5898 84.5066 37.5898 84.5324C37.5898 84.5581 37.5898 84.5924 37.5898 84.6182C37.5898 84.6439 37.5898 84.6782 37.5898 84.7039C37.5898 84.7297 37.5898 84.764 37.5898 84.7897C37.5898 84.8155 37.5898 84.8499 37.5898 84.8756C37.5898 84.9014 37.5898 84.9357 37.5898 84.9614C37.5898 84.9871 37.5898 85.0214 37.5898 85.0472C37.5898 85.0729 37.5898 85.1072 37.5898 85.133C37.5898 85.1587 37.5898 85.193 37.5898 85.2187C37.5898 85.2445 37.5898 85.2789 37.5898 85.3046C37.5898 85.3304 37.5898 85.3647 37.5898 85.3904C37.5898 85.4161 37.5898 85.4504 37.5898 85.4762C37.5898 85.5019 37.5898 85.5362 37.5898 85.562C37.5898 85.5877 37.5898 85.622 37.5898 85.6478C37.5898 85.6735 37.5898 85.7079 37.5898 85.7336C37.5898 85.7594 37.5898 85.7937 37.5898 85.8194C37.5898 85.8452 37.5898 85.8795 37.5898 85.9052C37.5898 85.9309 37.5898 85.9652 37.5898 85.991C37.5898 86.0167 37.5898 86.051 37.5898 86.0768C37.5898 86.1025 37.5898 86.1369 37.5898 86.1627C37.5898 86.1884 37.5898 86.2227 37.5898 86.2484C37.5898 86.2742 37.5898 86.3085 37.5898 86.3342C37.5898 86.36 37.5898 86.3943 37.5898 86.42C37.5898 86.4457 37.5898 86.48 37.5898 86.5058C37.5898 86.5315 37.5898 86.5659 37.5898 86.5917C37.5898 86.6174 37.5898 86.6517 37.5898 86.6775C37.5898 86.7032 37.5898 86.7375 37.5898 86.7632C37.5898 86.789 37.5898 86.8233 37.5898 86.849C37.5898 86.8748 37.5898 86.9091 37.5898 86.9348C37.5898 86.9605 37.5898 86.9949 37.5898 87.0207C37.5898 87.0464 37.5898 87.0807 37.5898 87.1065C37.5898 87.1322 37.5898 87.1665 37.5898 87.1923C37.5898 87.218 37.5898 87.2523 37.5898 87.278C37.5898 87.3038 37.5898 87.3381 37.5898 87.3638C37.5898 87.3896 37.5898 87.424 37.5898 87.4497C37.5898 87.4754 37.5898 87.5097 37.5898 87.5355C37.5898 87.5612 37.5898 87.5955 37.5898 87.6213C37.5898 87.647 37.5898 87.6813 37.5898 87.707C37.5898 87.7328 37.5898 87.7671 37.5898 87.7928C37.5898 87.8186 37.5898 87.853 37.5898 87.8787C37.5898 87.9045 37.5898 87.9388 37.5898 87.9645C37.5898 87.9902 37.5898 88.0245 37.5898 88.0503C37.5898 88.076 37.5898 88.1103 37.5898 88.1361C37.5898 88.1618 37.5898 88.1961 37.5898 88.2218C37.5898 88.2476 37.5898 88.282 37.5898 88.3077C37.5898 88.3335 37.5898 88.3678 37.5898 88.3935C37.5898 88.4193 37.5898 88.4536 37.5898 88.4793C37.5898 88.505 37.5898 88.5393 37.5898 88.5651C37.5898 88.5908 37.5898 88.6251 37.5898 88.6509C37.5898 88.6766 37.5898 88.711 37.5898 88.7367C37.5898 88.7625 37.5898 88.7968 37.5898 88.8225C37.5898 88.8483 37.5898 88.8826 37.5898 88.9083C37.5898 88.9341 37.5898 88.9684 37.5898 88.9941C37.5898 89.0198 37.5898 89.0541 37.5898 89.0799C37.5898 89.1056 37.5898 89.14 37.5898 89.1658C37.5898 89.1915 37.5898 89.2258 37.5898 89.2515C37.5898 89.2773 37.5898 89.3116 37.5898 89.3373C37.5898 89.3631 37.5898 89.3974 37.5898 89.4231C37.5898 89.4489 37.5898 89.4832 37.5898 89.5089C37.5898 89.5346 37.5898 89.569 37.5898 89.5948C37.5898 89.6205 37.5898 89.6548 37.5898 89.6806C37.5898 89.7063 37.5898 89.7406 37.5898 89.7663C37.5898 89.7921 37.5898 89.8264 37.5898 89.8521C37.5898 89.8779 37.5898 89.9122 37.5898 89.9379C37.5898 89.9636 37.5898 89.9981 37.5898 90.0238C37.5898 90.0495 37.5898 90.0838 37.5898 90.1096C37.5898 90.1353 37.5898 90.1696 37.5898 90.1954C37.5898 90.2211 37.5898 90.2554 37.5898 90.2811C37.5898 90.3069 37.5898 90.3412 37.5898 90.3669C37.5898 90.3927 37.5898 90.4271 37.5898 90.4528C37.5898 90.4786 37.5898 90.5129 37.5898 90.5386C37.5898 90.5643 37.5898 90.5986 37.5898 90.6244C37.5898 90.6501 37.5898 90.6844 37.5898 90.7102C37.5898 90.7359 37.5898 90.7702 37.5898 90.7959C37.5898 90.8217 37.5898 90.8561 37.5898 90.8818C37.5898 90.9076 37.5898 90.9419 37.5898 90.9676C37.5898 90.9933 37.5898 91.0276 37.5898 91.0534C37.5898 91.0791 37.5898 91.1134 37.5898 91.1392C37.5898 91.1649 37.5898 91.1992 37.5898 91.225C37.5898 91.2507 37.5898 91.2851 37.5898 91.3108C37.5898 91.3366 37.5898 91.3709 37.5898 91.3966C37.5898 91.4224 37.5898 91.4567 37.5898 91.4824C37.5898 91.5081 37.5898 91.5424 37.5898 91.5682C37.5898 91.5939 37.5898 91.6282 37.5898 91.654C37.5898 91.6797 37.5898 91.7141 37.5898 91.7399C37.5898 91.7656 37.5898 91.7999 37.5898 91.8256C37.5898 91.8514 37.5898 91.8857 37.5898 91.9114C37.5898 91.9372 37.5898 91.9715 37.5898 91.9972C37.5898 92.0229 37.5898 92.0572 37.5898 92.083C37.5898 92.1087 37.5898 92.1431 37.5898 92.1689C37.5898 92.1946 37.5898 92.2289 37.5898 92.2547C37.5898 92.2804 37.5898 92.3147 37.5898 92.3404C37.5898 92.3662 37.5898 92.4005 37.5898 92.4262C37.5898 92.452 37.5898 92.4863 37.5898 92.512C37.5898 92.5377 37.5898 92.5721 37.5898 92.5979C37.5898 92.6236 37.5898 92.6579 37.5898 92.6837C37.5898 92.7094 37.5898 92.7437 37.5898 92.7695C37.5898 92.7952 37.5898 92.8295 37.5898 92.8552C37.5898 92.881 37.5898 92.9153 37.5898 92.941C37.5898 92.9668 37.5898 93.0012 37.5898 93.0269C37.5898 93.0526 37.5898 93.0869 37.5898 93.1127C37.5898 93.1384 37.5898 93.1727 37.5898 93.1985C37.5898 93.2242 37.5898 93.2585 37.5898 93.2842C37.5898 93.31 37.5898 93.3443 37.5898 93.37C37.5898 93.3958 37.5898 93.4302 37.5898 93.4559C37.5898 93.4817 37.5898 93.516 37.5898 93.5417C37.5898 93.5674 37.5898 93.6017 37.5898 93.6275C37.5898 93.6532 37.5898 93.6875 37.5898 93.7133C37.5898 93.739 37.5898 93.7733 37.5898 93.799C37.5898 93.8248 37.5898 93.8592 37.5898 93.8849C37.5898 93.9107 37.5898 93.945 37.5898 93.9707C37.5898 93.9965 37.5898 94.0308 37.5898 94.0565C37.5898 94.0822 37.5898 94.1165 37.5898 94.1423C37.5898 94.168 37.5898 94.2023 37.5898 94.2281C37.5898 94.2538 37.5898 94.2882 37.5898 94.3139C37.5898 94.3397 37.5898 94.374 37.5898 94.3997C37.5898 94.4255 37.5898 94.4598 37.5898 94.4855C37.5898 94.5113 37.5898 94.5456 37.5898 94.5713C37.5898 94.597 37.5898 94.6313 37.5898 94.6571C37.5898 94.6828 37.5898 94.7172 37.5898 94.743C37.5898 94.7687 37.5898 94.803 37.5898 94.8287C37.5898 94.8545 37.5898 94.8888 37.5898 94.9145C37.5898 94.9403 37.5898 94.9746 37.5898 95.0003C37.5898 95.0261 37.5898 95.0604 37.5898 95.0861C37.5898 95.1118 37.5898 95.1462 37.5898 95.172C37.5898 95.1977 37.5898 95.232 37.5898 95.2578C37.5898 95.2835 37.5898 95.3178 37.5898 95.3435C37.5898 95.3693 37.5898 95.4036 37.5898 95.4293C37.5898 95.4551 37.5898 95.4894 37.5898 95.5151C37.5898 95.5408 37.5898 95.5753 37.5898 95.601C37.5898 95.6267 37.5898 95.661 37.5898 95.6868C37.5898 95.7125 37.5898 95.7468 37.5898 95.7726C37.5898 95.7983 37.5898 95.8326 37.5898 95.8583C37.5898 95.8841 37.5898 95.9184 37.5898 95.9441C37.5898 95.9699 37.5898 96.0043 37.5898 96.03C37.5898 96.0558 37.5898 96.0901 37.5898 96.1158C37.5898 96.1415 37.5898 96.1758 37.5898 96.2016C37.5898 96.2273 37.5898 96.2616 37.5898 96.2874C37.5898 96.3131 37.5898 96.3474 37.5898 96.3731C37.5898 96.3989 37.5898 96.4333 37.5898 96.459C37.5898 96.4848 37.5898 96.5191 37.5898 96.5448C37.5898 96.5705 37.5898 96.6048 37.5898 96.6306C37.5898 96.6563 37.5898 96.6906 37.5898 96.7164C37.5898 96.7421 37.5898 96.7764 37.5898 96.8022C37.5898 96.8279 37.5898 96.8623 37.5898 96.888C37.5898 96.9138 37.5898 96.9481 37.5898 96.9738C37.5898 96.9996 37.5898 97.0339 37.5898 97.0596C37.5898 97.0853 37.5898 97.1196 37.5898 97.1454C37.5898 97.1711 37.5898 97.2054 37.5898 97.2312C37.5898 97.2569 37.5898 97.2913 37.5898 97.3171C37.5898 97.3428 37.5898 97.3771 37.5898 97.4028C37.5898 97.4286 37.5898 97.4629 37.5898 97.4886C37.5898 97.5144 37.5898 97.5487 37.5898 97.5744C37.5898 97.6001 37.5898 97.6344 37.5898 97.6602C37.5898 97.6859 37.5898 97.7203 37.5898 97.7461C37.5898 97.7718 37.5898 97.8061 37.5898 97.8319C37.5898 100.011 39.1806 102.028 42.0606 103.512C44.8274 104.928 48.499 105.709 52.3892 105.709C56.2793 105.709 59.9509 104.928 62.7178 103.512C65.6053 102.036 67.1885 100.02 67.1885 97.8319C67.1885 97.8061 67.1885 97.7718 67.1885 97.7461C67.1885 97.7203 67.1885 97.6859 67.1885 97.6602C67.1885 97.6344 67.1885 97.6001 67.1885 97.5744C67.1885 97.5487 67.1885 97.5144 67.1885 97.4886C67.1885 97.4629 67.1885 97.4286 67.1885 97.4028C67.1885 97.3771 67.1885 97.3428 67.1885 97.3171C67.1885 97.2913 67.1885 97.2569 67.1885 97.2312C67.1885 97.2054 67.1885 97.1711 67.1885 97.1454C67.1885 97.1196 67.1885 97.0853 67.1885 97.0596C67.1885 97.0339 67.1885 96.9996 67.1885 96.9738C67.1885 96.9481 67.1885 96.9138 67.1885 96.888C67.1885 96.8623 67.1885 96.8279 67.1885 96.8022C67.1885 96.7764 67.1885 96.7421 67.1885 96.7164C67.1885 96.6906 67.1885 96.6563 67.1885 96.6306C67.1885 96.6048 67.1885 96.5705 67.1885 96.5448C67.1885 96.5191 67.1885 96.4848 67.1885 96.459C67.1885 96.4333 67.1885 96.3989 67.1885 96.3731C67.1885 96.3474 67.1885 96.3131 67.1885 96.2874C67.1885 96.2616 67.1885 96.2273 67.1885 96.2016C67.1885 96.1758 67.1885 96.1415 67.1885 96.1158C67.1885 96.0901 67.1885 96.0558 67.1885 96.03C67.1885 96.0043 67.1885 95.9699 67.1885 95.9441C67.1885 95.9184 67.1885 95.8841 67.1885 95.8583C67.1885 95.8326 67.1885 95.7983 67.1885 95.7726C67.1885 95.7468 67.1885 95.7125 67.1885 95.6868C67.1885 95.661 67.1885 95.6267 67.1885 95.601C67.1885 95.5753 67.1885 95.5408 67.1885 95.5151C67.1885 95.4894 67.1885 95.4551 67.1885 95.4293C67.1885 95.4036 67.1885 95.3693 67.1885 95.3435C67.1885 95.3178 67.1885 95.2835 67.1885 95.2578C67.1885 95.232 67.1885 95.1977 67.1885 95.172C67.1885 95.1462 67.1885 95.1118 67.1885 95.0861C67.1885 95.0604 67.1885 95.0261 67.1885 95.0003C67.1885 94.9746 67.1885 94.9403 67.1885 94.9145C67.1885 94.8888 67.1885 94.8545 67.1885 94.8287C67.1885 94.803 67.1885 94.7687 67.1885 94.743C67.1885 94.7172 67.1885 94.6828 67.1885 94.6571C67.1885 94.6313 67.1885 94.597 67.1885 94.5713C67.1885 94.5456 67.1885 94.5113 67.1885 94.4855C67.1885 94.4598 67.1885 94.4255 67.1885 94.3997C67.1885 94.374 67.1885 94.3397 67.1885 94.3139C67.1885 94.2882 67.1885 94.2538 67.1885 94.2281C67.1885 94.2023 67.1885 94.168 67.1885 94.1423C67.1885 94.1165 67.1885 94.0822 67.1885 94.0565C67.1885 94.0308 67.1885 93.9965 67.1885 93.9707C67.1885 93.945 67.1885 93.9107 67.1885 93.8849C67.1885 93.8592 67.1885 93.8248 67.1885 93.799C67.1885 93.7733 67.1885 93.739 67.1885 93.7133C67.1885 93.6875 67.1885 93.6532 67.1885 93.6275C67.1885 93.6017 67.1885 93.5674 67.1885 93.5417C67.1885 93.516 67.1885 93.4817 67.1885 93.4559C67.1885 93.4302 67.1885 93.3958 67.1885 93.37C67.1885 93.3443 67.1885 93.31 67.1885 93.2842C67.1885 93.2585 67.1885 93.2242 67.1885 93.1985C67.1885 93.1727 67.1885 93.1384 67.1885 93.1127C67.1885 93.0869 67.1885 93.0526 67.1885 93.0269C67.1885 93.0012 67.1885 92.9668 67.1885 92.941C67.1885 92.9153 67.1885 92.881 67.1885 92.8552C67.1885 92.8295 67.1885 92.7952 67.1885 92.7695C67.1885 92.7437 67.1885 92.7094 67.1885 92.6837C67.1885 92.6579 67.1885 92.6236 67.1885 92.5979C67.1885 92.5721 67.1885 92.5377 67.1885 92.512C67.1885 92.4863 67.1885 92.452 67.1885 92.4262C67.1885 92.4005 67.1885 92.3662 67.1885 92.3404C67.1885 92.3147 67.1885 92.2804 67.1885 92.2547C67.1885 92.2289 67.1885 92.1946 67.1885 92.1689C67.1885 92.1431 67.1885 92.1087 67.1885 92.083C67.1885 92.0572 67.1885 92.0229 67.1885 91.9972C67.1885 91.9715 67.1885 91.9372 67.1885 91.9114C67.1885 91.8857 67.1885 91.8514 67.1885 91.8256C67.1885 91.7999 67.1885 91.7656 67.1885 91.7399C67.1885 91.7141 67.1885 91.6797 67.1885 91.654C67.1885 91.6282 67.1885 91.5939 67.1885 91.5682C67.1885 91.5424 67.1885 91.5081 67.1885 91.4824C67.1885 91.4567 67.1885 91.4224 67.1885 91.3966C67.1885 91.3709 67.1885 91.3366 67.1885 91.3108C67.1885 91.2851 67.1885 91.2507 67.1885 91.225C67.1885 91.1992 67.1885 91.1649 67.1885 91.1392C67.1885 91.1134 67.1885 91.0791 67.1885 91.0534C67.1885 91.0276 67.1885 90.9933 67.1885 90.9676C67.1885 90.9419 67.1885 90.9076 67.1885 90.8818C67.1885 90.8561 67.1885 90.8217 67.1885 90.7959C67.1885 90.7702 67.1885 90.7359 67.1885 90.7102C67.1885 90.6844 67.1885 90.6501 67.1885 90.6244C67.1885 90.5986 67.1885 90.5643 67.1885 90.5386C67.1885 90.5129 67.1885 90.4786 67.1885 90.4528C67.1885 90.4271 67.1885 90.3927 67.1885 90.3669C67.1885 90.3412 67.1885 90.3069 67.1885 90.2811C67.1885 90.2554 67.1885 90.2211 67.1885 90.1954C67.1885 90.1696 67.1885 90.1353 67.1885 90.1096C67.1885 90.0838 67.1885 90.0495 67.1885 90.0238C67.1885 89.9981 67.1885 89.9636 67.1885 89.9379C67.1885 89.9122 67.1885 89.8779 67.1885 89.8521C67.1885 89.8264 67.1885 89.7921 67.1885 89.7663C67.1885 89.7406 67.1885 89.7063 67.1885 89.6806C67.1885 89.6548 67.1885 89.6205 67.1885 89.5948C67.1885 89.569 67.1885 89.5346 67.1885 89.5089C67.1885 89.4832 67.1885 89.4489 67.1885 89.4231C67.1885 89.3974 67.1885 89.3631 67.1885 89.3373C67.1885 89.3116 67.1885 89.2773 67.1885 89.2515C67.1885 89.2258 67.1885 89.1915 67.1885 89.1658C67.1885 89.14 67.1885 89.1056 67.1885 89.0799C67.1885 89.0541 67.1885 89.0198 67.1885 88.9941C67.1885 88.9684 67.1885 88.9341 67.1885 88.9083C67.1885 88.8826 67.1885 88.8483 67.1885 88.8225C67.1885 88.7968 67.1885 88.7625 67.1885 88.7367C67.1885 88.711 67.1885 88.6766 67.1885 88.6509C67.1885 88.6251 67.1885 88.5908 67.1885 88.5651C67.1885 88.5393 67.1885 88.505 67.1885 88.4793C67.1885 88.4536 67.1885 88.4193 67.1885 88.3935C67.1885 88.3678 67.1885 88.3335 67.1885 88.3077C67.1885 88.282 67.1885 88.2476 67.1885 88.2218C67.1885 88.1961 67.1885 88.1618 67.1885 88.1361C67.1885 88.1103 67.1885 88.076 67.1885 88.0503C67.1885 88.0245 67.1885 87.9902 67.1885 87.9645C67.1885 87.9388 67.1885 87.9045 67.1885 87.8787C67.1885 87.853 67.1885 87.8186 67.1885 87.7928C67.1885 87.7671 67.1885 87.7328 67.1885 87.707C67.1885 87.6813 67.1885 87.647 67.1885 87.6213C67.1885 87.5955 67.1885 87.5612 67.1885 87.5355C67.1885 87.5097 67.1885 87.4754 67.1885 87.4497C67.1885 87.424 67.1885 87.3896 67.1885 87.3638C67.1885 87.3381 67.1885 87.3038 67.1885 87.278C67.1885 87.2523 67.1885 87.218 67.1885 87.1923C67.1885 87.1665 67.1885 87.1322 67.1885 87.1065C67.1885 87.0807 67.1885 87.0464 67.1885 87.0207C67.1885 86.9949 67.1885 86.9605 67.1885 86.9348C67.1885 86.9091 67.1885 86.8748 67.1885 86.849C67.1885 86.8233 67.1885 86.789 67.1885 86.7632C67.1885 86.7375 67.1885 86.7032 67.1885 86.6775C67.1885 86.6517 67.1885 86.6174 67.1885 86.5917C67.1885 86.5659 67.1885 86.5315 67.1885 86.5058C67.1885 86.48 67.1885 86.4457 67.1885 86.42C67.1885 86.3943 67.1885 86.36 67.1885 86.3342C67.1885 86.3085 67.1885 86.2742 67.1885 86.2484C67.1885 86.2227 67.1885 86.1884 67.1885 86.1627C67.1885 86.1369 67.1885 86.1025 67.1885 86.0768C67.1885 86.051 67.1885 86.0167 67.1885 85.991C67.1885 85.9652 67.1885 85.9309 67.1885 85.9052C67.1885 85.8795 67.1885 85.8452 67.1885 85.8194C67.1885 85.7937 67.1885 85.7594 67.1885 85.7336C67.1885 85.7079 67.1885 85.6735 67.1885 85.6478C67.1885 85.622 67.1885 85.5877 67.1885 85.562C67.1885 85.5362 67.1885 85.5019 67.1885 85.4762C67.1885 85.4504 67.1885 85.4161 67.1885 85.3904C67.1885 85.3647 67.1885 85.3304 67.1885 85.3046C67.1885 85.2789 67.1885 85.2445 67.1885 85.2187C67.1885 85.193 67.1885 85.1587 67.1885 85.133C67.1885 85.1072 67.1885 85.0729 67.1885 85.0472C67.1885 85.0214 67.1885 84.9871 67.1885 84.9614C67.1885 84.9357 67.1885 84.9014 67.1885 84.8756C67.1885 84.8499 67.1885 84.8155 67.1885 84.7897C67.1885 84.764 67.1885 84.7297 67.1885 84.7039C67.1885 84.6782 67.1885 84.6439 67.1885 84.6182C67.1885 84.5924 67.1885 84.5581 67.1885 84.5324C67.1885 84.5066 67.1885 84.4723 67.1885 84.4466C67.1885 84.4209 67.1885 84.3864 67.1885 84.3607C67.1885 84.335 67.1885 84.3007 67.1885 84.2749C67.1885 84.2492 67.1885 84.2149 67.1885 84.1891C67.1885 84.1634 67.1885 84.1291 67.1885 84.1034C67.1885 84.0776 67.1885 84.0433 67.1885 84.0176C67.1885 83.9918 67.1885 83.9574 67.1885 83.9317C67.1885 83.906 67.1885 83.8717 67.1885 83.8459C67.1885 83.8202 67.1885 83.7859 67.1885 83.7601C67.1885 83.7344 67.1885 83.7001 67.1885 83.6743C67.1885 83.6486 67.1885 83.6143 67.1885 83.5886C67.1885 83.5628 67.1885 83.5284 67.1885 83.5027C67.1885 83.4769 67.1885 83.4426 67.1885 83.4169C67.1885 83.3912 67.1885 83.3569 67.1885 83.3311C67.1885 83.3054 67.1885 83.2711 67.1885 83.2453C67.1885 83.2196 67.1885 83.1853 67.1885 83.1595C67.1885 83.1338 67.1885 83.0994 67.1885 83.0737C67.1885 83.0479 67.1885 83.0136 67.1885 82.9879C67.1885 82.9621 67.1885 82.9278 67.1885 82.9021C67.1885 82.8764 67.1885 82.8421 67.1885 82.8163C67.1885 82.7906 67.1885 82.7563 67.1885 82.7305C67.1885 82.7048 67.1885 82.6704 67.1885 82.6446C67.1885 82.6189 67.1885 82.5846 67.1885 82.5589C67.1885 82.5331 67.1885 82.4988 67.1885 82.4731C67.1885 82.4473 67.1885 82.413 67.1885 82.3873C67.1885 82.3616 67.1885 82.3273 67.1885 82.3015C67.1885 82.2758 67.1885 82.2414 67.1885 82.2156C67.1885 82.1899 67.1885 82.1556 67.1885 82.1298C67.1885 82.1041 67.1885 82.0698 67.1885 82.0441C67.1885 82.0183 67.1885 81.984 67.1885 81.9583C67.1885 81.9325 67.1885 81.8982 67.1885 81.8725C67.1885 81.8468 67.1885 81.8124 67.1885 81.7866C67.1885 81.7609 67.1885 81.7266 67.1885 81.7008C67.1885 81.6751 67.1885 81.6408 67.1885 81.6151C67.1885 81.5893 67.1885 81.555 67.1885 81.5293C67.1885 81.5035 67.1885 81.4692 67.1885 81.4435C67.1885 81.4177 67.1885 81.3833 67.1885 81.3576C67.1885 81.3319 67.1885 81.2976 67.1885 81.2718C67.1885 81.2461 67.1885 81.2118 67.1885 81.186C67.1885 81.1603 67.1885 81.126 67.1885 81.1003C67.1885 81.0745 67.1885 81.0402 67.1885 81.0145C67.1885 80.9887 67.1885 80.9543 67.1885 80.9286C67.1885 80.9028 67.1885 80.8685 67.1885 80.8428C67.1885 80.8171 67.1885 80.7828 67.1885 80.757C67.1885 80.7313 67.1885 80.697 67.1885 80.6712C67.1885 80.6455 67.1885 80.6112 67.1885 80.5855C67.1885 80.5597 67.1885 80.5253 67.1885 80.4996C67.1885 80.4738 67.1885 80.4395 67.1885 80.4138C67.1885 80.388 67.1885 80.3537 67.1885 80.328C67.1885 80.3023 67.1885 80.268 67.1885 80.2422C67.1885 80.2165 67.1885 80.1822 67.1885 80.1564C67.1885 80.1307 67.1885 80.0963 67.1885 80.0706C67.1885 80.0448 67.1885 80.0105 67.1885 79.9848C67.1885 79.959 67.1885 79.9247 67.1885 79.899C67.1885 79.8733 67.1885 79.8389 67.1885 79.8132C67.1885 79.7875 67.1885 79.7532 67.1885 79.7274C67.1885 79.7017 67.1885 79.6673 67.1885 79.6415C67.1885 79.6158 67.1885 79.5815 67.1885 79.5558C67.1885 79.53 67.1885 79.4957 67.1885 79.47C67.1885 79.4442 67.1885 79.4099 67.1885 79.3842C67.1885 79.3585 67.1885 79.3242 67.1885 79.2984C67.1885 79.2727 67.1885 79.2383 67.1885 79.2125C67.1885 79.1868 67.1885 79.1525 67.1885 79.1267C67.1885 79.101 67.1885 79.0667 67.1885 79.041C67.1885 79.0152 67.1885 78.9809 67.1885 78.9552C67.1885 78.9294 67.1885 78.8951 67.1885 78.8694C67.1885 78.8437 67.1885 78.8093 67.1885 78.7835C67.1885 78.7578 67.1885 78.7235 67.1885 78.6977C67.1885 78.672 67.1885 78.6377 67.1885 78.6119C67.1885 78.5862 67.1885 78.5519 67.1885 78.5262C67.1885 78.5004 67.1885 78.4661 67.1885 78.4404C67.1885 78.4146 67.1885 78.3802 67.1885 78.3545C67.1885 78.3288 67.1885 78.2945 67.1885 78.2687C67.1885 78.243 67.1885 78.2087 67.1885 78.1829C67.1885 78.1572 67.1885 78.1229 67.1885 78.0971C67.1885 78.0714 67.1885 78.0371 67.1885 78.0114C67.1885 77.9856 67.1885 77.9512 67.1885 77.9255C67.1885 77.8997 67.1885 77.8654 67.1885 77.8397C67.1885 77.814 67.1885 77.7797 67.1885 77.7539C67.1885 77.7282 67.1885 77.6939 67.1885 77.6681C67.1885 77.6424 67.1885 77.6081 67.1885 77.5824C67.1885 77.5566 67.1885 77.5222 67.1885 77.4965C67.1885 77.4707 67.1885 77.4364 67.1885 77.4107C67.1885 77.3849 67.1885 77.3506 67.1885 77.3249C67.1885 77.2992 67.1885 77.2649 67.1885 77.2391C67.1885 77.2134 67.1885 77.1791 67.1885 77.1533C67.1885 77.1276 67.1885 77.0932 67.1885 77.0674C67.1885 77.0417 67.1885 77.0074 67.1885 76.9817C67.1885 76.9559 67.1885 76.9216 67.1885 76.8959C67.1885 76.8701 67.1885 76.8358 67.1885 76.8101C67.1885 76.7844 67.1885 76.7501 67.1885 76.7243C67.1885 76.6986 67.1885 76.6642 67.1885 76.6384C67.1885 76.6127 67.1885 76.5784 67.1885 76.5527C67.1885 76.5269 67.1885 76.4926 67.1885 76.4669C67.1885 76.4411 67.1885 76.4068 67.1885 76.3811C67.1885 76.3553 67.1885 76.321 67.1885 76.2953C67.1885 76.2696 67.1885 76.2352 67.1885 76.2094C67.1885 76.1837 67.1885 76.1494 67.1885 76.1236C67.1885 76.0979 67.1885 76.0636 67.1885 76.0379C67.1885 76.0121 67.1885 75.9778 67.1885 75.9521C67.1885 75.9263 67.1885 75.892 67.1885 75.8663C67.1885 75.8405 67.1885 75.8061 67.1885 75.7804C67.1885 75.7547 67.1885 75.7204 67.1885 75.6946C67.1885 75.6689 67.1885 75.6346 67.1885 75.6088C67.1885 75.5831 67.1885 75.5488 67.1885 75.5231C67.1885 75.4973 67.1885 75.463 67.1885 75.4373C67.1885 75.4115 67.1885 75.3771 67.1885 75.3514C67.1885 75.3256 67.1885 75.2913 67.1885 75.2656C67.1885 75.2399 67.1885 75.2056 67.1885 75.1798C67.1885 75.1541 67.1885 75.1198 67.1885 75.094C67.1885 75.0683 67.1885 75.034 67.1885 75.0083C67.1885 74.9825 67.1885 74.9481 67.1885 74.9224C67.1885 74.8966 67.1885 74.8623 67.1885 74.8366C67.1885 74.8108 67.1885 74.7765 67.1885 74.7508C67.1885 74.7251 67.1885 74.6908 67.1885 74.665C67.1885 74.6393 67.1885 74.605 67.1885 74.5792C67.1885 74.5535 67.1885 74.5191 67.1885 74.4934C67.1885 74.4676 67.1885 74.4333 67.1885 74.4076C67.1885 74.3818 67.1885 74.3475 67.1885 74.3218C67.1885 74.2961 67.1885 74.2618 67.1885 74.236C67.1885 74.2103 67.1885 74.176 67.1885 74.1502C67.1885 74.1245 67.1885 74.0901 67.1885 74.0643C67.1885 74.0386 67.1885 74.0043 67.1885 73.9786C67.1885 73.9528 67.1885 73.9185 67.1885 73.8928C67.1885 73.867 67.1885 73.8327 67.1885 73.807C67.1885 73.7813 67.1885 73.747 67.1885 73.7212C67.1885 73.6955 67.1885 73.6611 67.1885 73.6353C67.1885 73.6096 67.1885 73.5753 67.1885 73.5495C67.1885 73.5238 67.1885 73.4895 67.1885 73.4638C67.1885 73.438 67.1885 73.4037 67.1885 73.378C67.1885 73.3522 67.1885 73.3179 67.1885 73.2922C67.1885 73.2665 67.1885 73.2321 67.1885 73.2063C67.1885 73.1806 67.1885 73.1463 67.1885 73.1205C67.1885 73.0948 67.1885 73.0605 67.1885 73.0347C67.1885 73.009 67.1885 72.9747 67.1885 72.949C67.1885 72.9232 67.1885 72.8889 67.1885 72.8632C67.1885 72.8374 67.1885 72.803 67.1885 72.7773C67.1885 72.7516 67.1885 72.7173 67.1885 72.6915C67.1885 72.6658 67.1885 72.6315 67.1885 72.6057C67.1885 72.58 67.1885 72.5457 67.1885 72.5199C67.1885 72.4942 67.1885 72.4599 67.1885 72.4342C67.1885 72.4084 67.1885 72.374 67.1885 72.3483C67.1885 72.3225 67.1885 72.2882 67.1885 72.2625C67.1885 72.2368 67.1885 72.2025 67.1885 72.1767C67.1885 72.151 67.1885 72.1167 67.1885 72.0909C67.1885 72.0652 67.1885 72.0309 67.1885 72.0052C67.1885 71.9794 67.1885 71.945 67.1885 71.9193C67.1885 71.8935 67.1885 71.8592 67.1885 71.8335C67.1885 71.8077 67.1885 71.7734 67.1885 71.7477C67.1885 71.722 67.1885 71.6877 67.1885 71.6619C67.1885 71.6362 67.1885 71.6019 67.1885 71.5761C67.1885 71.5504 67.1885 71.516 67.1885 71.4902C67.1885 71.4645 67.1885 71.4302 67.1885 71.4045C67.1885 71.3787 67.1885 71.3444 67.1885 71.3187C67.1885 71.2929 67.1885 71.2586 67.1885 71.2329C67.1885 71.2072 67.196 71.1729 67.1885 71.1471Z" fill="url(#paint1_linear_2198_18632)"/>
<path opacity="0.3" d="M41.0805 93.474C38.8187 94.8812 37.5898 96.6745 37.5898 98.5965V64.3611L41.0805 93.474Z" fill="url(#paint2_linear_2198_18632)"/>
<path opacity="0.8" d="M55.2168 77.2308C57.6067 77.0077 59.8308 76.4757 61.7382 75.6777V103.221C59.8383 104.019 57.6067 104.542 55.2168 104.774V77.2308Z" fill="url(#paint3_linear_2198_18632)"/>
<path opacity="0.8" d="M46.2223 86.9895V104.107C45.4684 103.927 44.7447 103.712 44.0586 103.455V86.3374C44.7447 86.5948 45.4684 86.8093 46.2223 86.9895Z" fill="url(#paint4_linear_2198_18632)"/>
<path opacity="0.5" d="M45.38 76.6584L45.1312 82.3558C45.1236 82.536 45.2518 82.6904 45.4177 82.6904C45.5835 82.6904 45.7117 82.536 45.7042 82.3558L45.38 76.6584Z" fill="url(#paint5_linear_2198_18632)"/>
<path opacity="0.5" d="M39.2642 79.2144L39.0531 84.0622C39.0456 84.2167 39.1586 84.3455 39.2943 84.3455C39.4376 84.3455 39.5431 84.2167 39.5356 84.0622L39.2642 79.2144Z" fill="url(#paint6_linear_2198_18632)"/>
<path opacity="0.5" d="M52.3677 82.7048L52.1566 87.5527C52.1491 87.7072 52.2622 87.8358 52.3979 87.8358C52.5411 87.8358 52.6467 87.7072 52.6391 87.5527L52.3677 82.7048Z" fill="url(#paint7_linear_2198_18632)"/>
<path opacity="0.5" d="M49.1503 80.6277L48.6452 92.0138C48.6301 92.3741 48.8864 92.6745 49.2106 92.6745C49.5348 92.6745 49.7987 92.3656 49.776 92.0052L49.1503 80.6277Z" fill="url(#paint8_linear_2198_18632)"/>
<path opacity="0.5" d="M59.412 85.7778L58.9069 97.1639C58.8918 97.5243 59.1481 97.8246 59.4723 97.8246C59.804 97.8246 60.0604 97.5157 60.0378 97.1553L59.412 85.7778Z" fill="url(#paint9_linear_2198_18632)"/>
<path opacity="0.5" d="M63.8192 86.2473L63.5628 92.1162C63.5553 92.305 63.691 92.4594 63.8568 92.4594C64.0227 92.4594 64.1584 92.2964 64.1509 92.1162L63.8192 86.2473Z" fill="url(#paint10_linear_2198_18632)"/>
<path opacity="0.5" d="M53.0851 88.9031L52.7157 97.2775C52.7006 97.5435 52.8966 97.7665 53.1303 97.7665C53.3716 97.7665 53.5601 97.5434 53.545 97.2689L53.0851 88.9031Z" fill="url(#paint11_linear_2198_18632)"/>
<path opacity="0.5" d="M45.2575 96.3816L45.0766 100.569C45.069 100.697 45.167 100.809 45.2877 100.809C45.4083 100.809 45.5063 100.697 45.4988 100.56L45.2575 96.3816Z" fill="url(#paint12_linear_2198_18632)"/>
<path d="M104.275 14.3213L86.588 2.62632V2.63491C83.9493 0.841625 80.2777 1.07327 76.2141 3.74175C74.8872 4.61694 73.6056 5.69809 72.3842 6.93365L65.2598 2.24878C61.347 -0.883027 55.6776 -0.745719 49.3673 3.39857C41.3909 8.64113 34.4323 18.9546 30.7532 29.8774C29.5319 29.9203 28.1748 30.375 26.7348 31.3275C21.5253 34.751 17.3034 43.0653 17.3034 49.9124C17.3034 50.0583 17.3185 50.1956 17.3185 50.3414C15.8333 50.4616 14.1897 51.0536 12.4633 52.1862C5.80621 56.5621 0.408203 67.2017 0.408203 75.9536C0.408203 80.2953 1.73508 83.3413 3.88373 84.7913H3.87618L3.92896 84.8256L3.93651 84.8342L21.3971 96.3661L25.212 75.4903L76.199 41.9842C82.7128 37.7026 88.2315 28.453 90.0861 19.4695L104.275 14.3213Z" fill="#273C7F"/>
<path d="M86.8674 21.5458L87.1317 22.5137L87.7453 21.7198C89.6502 19.2555 91.7748 17.1785 94.0021 15.7144C97.93 13.1377 101.343 12.9771 103.747 14.5568C106.177 16.1541 107.778 19.6566 107.771 24.854V24.8548C107.771 30.041 106.167 35.8154 103.56 40.9536C100.951 46.0944 97.3625 50.5485 93.4382 53.1294C93.4381 53.1295 93.4381 53.1295 93.438 53.1295L29.7024 95.0099L29.7023 95.0099C26.468 97.1359 23.6804 97.2557 21.7275 95.973C19.7477 94.6726 18.4219 91.8048 18.4219 87.5081C18.4219 83.2269 19.7447 78.4564 21.8989 74.2096C24.0545 69.96 27.0172 66.2846 30.2516 64.1585C31.9249 63.0608 33.489 62.5062 34.8724 62.3943L35.3321 62.3571V61.8959C35.3321 61.8096 35.3278 61.7275 35.3242 61.6595L35.3239 61.6549C35.32 61.5822 35.3171 61.5244 35.3171 61.4669C35.3171 58.1382 36.3459 54.4252 38.0251 51.1169C39.7057 47.8059 42.0124 44.9498 44.5231 43.2998L44.5244 43.299C45.9063 42.385 47.1753 41.9706 48.2844 41.9316L48.6303 41.9194L48.7407 41.5915C52.3961 30.7391 59.2998 20.5342 67.1556 15.3709L67.1557 15.3708C71.9003 12.2508 76.1896 11.4938 79.5732 12.6155C82.9474 13.734 85.5629 16.7687 86.8674 21.5458Z" fill="#273C7F" stroke="#F3F4FF"/>
<path d="M87.361 21.425C89.2835 18.9281 91.4472 16.8088 93.739 15.3072C98.6621 12.0725 103.012 12.4328 105.643 15.6161C103.065 11.9352 98.5113 11.3517 93.3244 14.7667C91.1079 16.2253 89.012 18.2588 87.1348 20.6528C87.2102 20.9016 87.2856 21.159 87.361 21.425Z" fill="#273C7F"/>
<path d="M17.9381 87.5195C17.9381 78.7676 23.3361 68.128 29.9931 63.7521C31.7196 62.6195 33.3631 62.0189 34.8483 61.9073C34.8408 61.7615 34.8332 61.6328 34.8332 61.4783C34.8332 54.6398 39.0552 46.3169 44.2647 42.8934C45.7047 41.9495 47.0617 41.4948 48.2831 41.4433C51.9622 30.5206 58.9132 20.207 66.8972 14.9645C74.2026 10.1595 80.6561 10.743 84.5161 15.5565C80.7164 10.2453 74.0594 9.43875 66.4825 14.4239C58.5061 19.6665 51.5475 29.98 47.8684 40.9028C46.6471 40.9457 45.29 41.4004 43.8501 42.3528C38.6405 45.7763 34.4186 54.0907 34.4186 60.9378C34.4186 61.0836 34.4337 61.2209 34.4337 61.3668C32.9485 61.4869 31.305 62.079 29.5785 63.2116C22.9214 67.5875 17.5234 78.2271 17.5234 86.979C17.5234 90.4197 18.3678 93.0367 19.7776 94.7013C18.6166 93.0195 17.9381 90.5999 17.9381 87.5195Z" fill="#273C7F"/>
<defs>
<radialGradient id="paint0_radial_2198_18632" cx="0" cy="0" r="1" gradientUnits="userSpaceOnUse" gradientTransform="translate(52.5205 98.5951) scale(20.2699 10.7064)">
<stop stop-color="#39F0CF"/>
<stop offset="0.1389" stop-color="#37EBCE"/>
<stop offset="0.3045" stop-color="#31DCCA"/>
<stop offset="0.4837" stop-color="#27C4C5"/>
<stop offset="0.6725" stop-color="#1AA3BD"/>
<stop offset="0.867" stop-color="#0978B3"/>
<stop offset="0.9523" stop-color="#0063AE"/>
</radialGradient>
<linearGradient id="paint1_linear_2198_18632" x1="52.4944" y1="62.8693" x2="52.2361" y2="105.989" gradientUnits="userSpaceOnUse">
<stop stop-color="#231F20"/>
<stop offset="0.0255" stop-color="#312D2E"/>
<stop offset="0.1218" stop-color="#615E5F"/>
<stop offset="0.2233" stop-color="#8B898A"/>
<stop offset="0.3284" stop-color="#AFAEAE"/>
<stop offset="0.4379" stop-color="#CCCBCB"/>
<stop offset="0.5534" stop-color="#E3E2E2"/>
<stop offset="0.6775" stop-color="#F3F2F2"/>
<stop offset="0.8163" stop-color="#FCFCFC"/>
<stop offset="1" stop-color="white"/>
</linearGradient>
<linearGradient id="paint2_linear_2198_18632" x1="37.106" y1="64.3143" x2="40.1973" y2="98.2681" gradientUnits="userSpaceOnUse">
<stop stop-color="#231F20"/>
<stop offset="0.1758" stop-color="#1E343F"/>
<stop offset="0.5616" stop-color="#106B8E"/>
<stop offset="1" stop-color="#00AEEF"/>
</linearGradient>
<linearGradient id="paint3_linear_2198_18632" x1="58.3968" y1="74.9855" x2="58.5905" y2="103.069" gradientUnits="userSpaceOnUse">
<stop stop-color="#231F20"/>
<stop offset="0.1758" stop-color="#1E343F"/>
<stop offset="0.5616" stop-color="#106B8E"/>
<stop offset="1" stop-color="#00AEEF"/>
</linearGradient>
<linearGradient id="paint4_linear_2198_18632" x1="45.2729" y1="86.854" x2="44.9285" y2="103.57" gradientUnits="userSpaceOnUse">
<stop stop-color="#231F20"/>
<stop offset="0.1758" stop-color="#1E343F"/>
<stop offset="0.5616" stop-color="#106B8E"/>
<stop offset="1" stop-color="#00AEEF"/>
</linearGradient>
<linearGradient id="paint5_linear_2198_18632" x1="45.5014" y1="76.8289" x2="45.3843" y2="82.5135" gradientUnits="userSpaceOnUse">
<stop stop-color="#231F20"/>
<stop offset="0.1104" stop-color="#222326"/>
<stop offset="0.2512" stop-color="#1F2E35"/>
<stop offset="0.4086" stop-color="#1B4050"/>
<stop offset="0.5779" stop-color="#155974"/>
<stop offset="0.7569" stop-color="#0D79A3"/>
<stop offset="0.9413" stop-color="#03A0DB"/>
<stop offset="1" stop-color="#00AEEF"/>
</linearGradient>
<linearGradient id="paint6_linear_2198_18632" x1="39.3693" y1="79.3565" x2="39.2696" y2="84.1975" gradientUnits="userSpaceOnUse">
<stop stop-color="#231F20"/>
<stop offset="0.1104" stop-color="#222326"/>
<stop offset="0.2512" stop-color="#1F2E35"/>
<stop offset="0.4086" stop-color="#1B4050"/>
<stop offset="0.5779" stop-color="#155974"/>
<stop offset="0.7569" stop-color="#0D79A3"/>
<stop offset="0.9413" stop-color="#03A0DB"/>
<stop offset="1" stop-color="#00AEEF"/>
</linearGradient>
<linearGradient id="paint7_linear_2198_18632" x1="52.4691" y1="82.8477" x2="52.3693" y2="87.6884" gradientUnits="userSpaceOnUse">
<stop stop-color="#231F20"/>
<stop offset="0.1104" stop-color="#222326"/>
<stop offset="0.2512" stop-color="#1F2E35"/>
<stop offset="0.4086" stop-color="#1B4050"/>
<stop offset="0.5779" stop-color="#155974"/>
<stop offset="0.7569" stop-color="#0D79A3"/>
<stop offset="0.9413" stop-color="#03A0DB"/>
<stop offset="1" stop-color="#00AEEF"/>
</linearGradient>
<linearGradient id="paint8_linear_2198_18632" x1="49.3913" y1="80.967" x2="49.1571" y2="92.3362" gradientUnits="userSpaceOnUse">
<stop stop-color="#231F20"/>
<stop offset="0.1104" stop-color="#222326"/>
<stop offset="0.2512" stop-color="#1F2E35"/>
<stop offset="0.4086" stop-color="#1B4050"/>
<stop offset="0.5779" stop-color="#155974"/>
<stop offset="0.7569" stop-color="#0D79A3"/>
<stop offset="0.9413" stop-color="#03A0DB"/>
<stop offset="1" stop-color="#00AEEF"/>
</linearGradient>
<linearGradient id="paint9_linear_2198_18632" x1="59.6534" y1="86.1115" x2="59.4193" y2="97.4808" gradientUnits="userSpaceOnUse">
<stop stop-color="#231F20"/>
<stop offset="0.1838" stop-color="#222123"/>
<stop offset="0.3265" stop-color="#21282D"/>
<stop offset="0.4555" stop-color="#1E333D"/>
<stop offset="0.5763" stop-color="#1A4355"/>
<stop offset="0.6915" stop-color="#155873"/>
<stop offset="0.8024" stop-color="#0F7298"/>
<stop offset="0.9078" stop-color="#078FC3"/>
<stop offset="1" stop-color="#00AEEF"/>
</linearGradient>
<linearGradient id="paint10_linear_2198_18632" x1="63.9447" y1="86.4168" x2="63.8241" y2="92.2778" gradientUnits="userSpaceOnUse">
<stop stop-color="#231F20"/>
<stop offset="0.1104" stop-color="#222326"/>
<stop offset="0.2512" stop-color="#1F2E35"/>
<stop offset="0.4086" stop-color="#1B4050"/>
<stop offset="0.5779" stop-color="#155974"/>
<stop offset="0.7569" stop-color="#0D79A3"/>
<stop offset="0.9413" stop-color="#03A0DB"/>
<stop offset="1" stop-color="#00AEEF"/>
</linearGradient>
<linearGradient id="paint11_linear_2198_18632" x1="53.2656" y1="89.1498" x2="53.0934" y2="97.5078" gradientUnits="userSpaceOnUse">
<stop stop-color="#231F20"/>
<stop offset="0.1104" stop-color="#222326"/>
<stop offset="0.2512" stop-color="#1F2E35"/>
<stop offset="0.4086" stop-color="#1B4050"/>
<stop offset="0.5779" stop-color="#155974"/>
<stop offset="0.7569" stop-color="#0D79A3"/>
<stop offset="0.9413" stop-color="#03A0DB"/>
<stop offset="1" stop-color="#00AEEF"/>
</linearGradient>
<linearGradient id="paint12_linear_2198_18632" x1="45.346" y1="96.5043" x2="45.2598" y2="100.683" gradientUnits="userSpaceOnUse">
<stop stop-color="#231F20"/>
<stop offset="0.1104" stop-color="#222326"/>
<stop offset="0.2512" stop-color="#1F2E35"/>
<stop offset="0.4086" stop-color="#1B4050"/>
<stop offset="0.5779" stop-color="#155974"/>
<stop offset="0.7569" stop-color="#0D79A3"/>
<stop offset="0.9413" stop-color="#03A0DB"/>
<stop offset="1" stop-color="#00AEEF"/>
</linearGradient>
</defs>
</svg>
