<svg width="601" height="401" viewBox="0 0 601 401" fill="none" xmlns="http://www.w3.org/2000/svg">
<path opacity="0.2" d="M239.218 342.955C239.218 342.955 215.045 177.455 177.248 193.652C161.352 200.46 169.773 235.261 179.226 262.394C180.681 266.558 175.212 269.582 172.475 266.128C158.629 248.641 140.834 232.488 129.812 246.57C118.775 260.667 129.747 277.458 141.902 289.749C145.335 293.218 142.131 298.994 137.365 297.926C127.353 295.676 117.514 295.583 114.518 302.506C104.542 325.583 137.516 342.947 159.912 342.947C182.307 342.947 239.218 342.955 239.218 342.955Z" fill="#97A7AF"/>
<path opacity="0.3" d="M368.992 342.954C368.992 342.954 371.773 204.193 409.233 212.464C424.828 215.911 425.688 238.536 423.38 257.951C422.907 261.907 428.253 263.555 430.095 260.015C441.454 238.149 458.482 212.306 471.934 221.551C487.235 232.065 472.192 254.726 458.554 270.628C456.089 273.502 458.704 277.867 462.402 277.028C470.279 275.229 478.743 276.555 484.01 286.904C496.086 310.64 472.708 341.879 434.961 341.879C397.2 341.879 368.992 342.954 368.992 342.954Z" fill="#1395ED"/>
<g opacity="0.3">
<path d="M196.963 126.184C196.963 123.676 196.963 121.174 196.963 118.666C199.292 117.39 201.8 116.516 204.244 115.513C206.595 114.552 207.663 111.829 206.609 109.5C205.742 107.572 204.925 105.616 204.058 103.681C203.678 102.821 203.807 102.14 204.517 101.488C205.685 100.413 206.839 99.309 207.921 98.148C208.652 97.3668 209.39 97.1948 210.365 97.589C212.55 98.4776 214.751 99.3233 216.951 100.176C218.721 100.864 221.638 99.6028 222.354 97.8541C223.193 95.8045 224.046 93.762 224.863 91.7051C225.264 90.6946 225.902 90.1858 227.056 90.2431C228.597 90.3148 230.137 90.3076 231.678 90.2431C232.739 90.2001 233.398 90.6158 233.814 91.5833C234.638 93.5326 235.527 95.4605 236.351 97.4098C237.361 99.8035 240.128 100.936 242.478 99.9181C244.464 99.051 246.477 98.2555 248.47 97.3955C249.38 97.0013 250.097 97.1303 250.799 97.8685C251.888 99.0223 253.035 100.133 254.217 101.187C254.984 101.867 255.156 102.563 254.762 103.487C253.888 105.573 253.049 107.672 252.189 109.765C251.372 111.743 252.569 114.588 254.554 115.355C257.063 116.33 259.628 117.175 262.051 118.387C262.051 120.895 262.051 123.396 262.051 125.904C259.535 127.245 256.848 128.183 254.232 129.287C252.648 129.954 251.465 132.985 252.153 134.547C253.049 136.576 253.924 138.611 254.841 140.625C255.321 141.678 255.221 142.502 254.296 143.305C253.164 144.28 252.103 145.34 251.093 146.437C250.369 147.218 249.624 147.397 248.649 147.003C246.599 146.165 244.528 145.376 242.471 144.559C240.178 143.649 237.369 144.86 236.473 147.125C235.735 149.01 234.925 150.866 234.201 152.751C233.771 153.876 233.09 154.442 231.814 154.363C230.324 154.27 228.826 154.299 227.335 154.356C226.275 154.399 225.608 153.998 225.2 153.03C224.297 150.902 223.358 148.788 222.433 146.673C221.681 144.961 218.656 143.771 216.951 144.502C214.872 145.391 212.773 146.251 210.701 147.154C209.698 147.591 208.903 147.505 208.129 146.645C207.097 145.505 205.986 144.423 204.832 143.405C204.008 142.682 203.879 141.943 204.294 140.976C205.104 139.07 205.864 137.149 206.667 135.235C207.742 132.677 206.638 130.075 204.065 129.101C201.664 128.169 199.235 127.359 196.963 126.184ZM229.492 132.261C235.211 132.261 239.726 127.89 239.719 122.35C239.712 116.638 235.283 112.288 229.485 112.295C223.745 112.302 219.258 116.652 219.273 122.206C219.287 127.933 223.68 132.254 229.492 132.261Z" fill="#1395ED"/>
</g>
<g opacity="0.3">
<path d="M270.571 80.1519C271.431 79.1701 272.284 78.1883 273.144 77.2064C274.491 77.5003 275.774 78.0163 277.078 78.4606C278.333 78.8906 279.673 78.1883 280.06 76.9126C280.382 75.8591 280.726 74.8128 281.049 73.7593C281.192 73.2934 281.479 73.0713 281.98 73.0569C282.805 73.0354 283.636 72.9996 284.453 72.9136C285.005 72.8563 285.356 73.0426 285.6 73.5299C286.151 74.6264 286.725 75.7086 287.298 76.7979C287.757 77.6723 289.326 78.1739 290.208 77.7296C291.24 77.2136 292.272 76.7048 293.297 76.1744C293.798 75.9164 294.221 75.9308 294.658 76.3464C295.239 76.8983 295.848 77.4286 296.471 77.9303C296.901 78.2743 297.023 78.6613 296.851 79.1844C296.507 80.2308 296.199 81.2914 295.855 82.3378C295.432 83.6206 296.127 85.0109 297.396 85.4123C298.471 85.7491 299.532 86.1289 300.607 86.4729C301.101 86.6306 301.338 86.9244 301.359 87.4548C301.395 88.2789 301.459 89.1031 301.567 89.9273C301.631 90.4504 301.467 90.7873 300.994 91.0166C299.94 91.5326 298.894 92.0701 297.84 92.6004C296.844 93.0949 296.342 94.6214 296.851 95.6033C297.503 96.8431 298.22 98.0543 298.75 99.3514C297.89 100.333 297.038 101.315 296.178 102.297C294.737 101.96 293.361 101.415 291.956 100.95C291.111 100.67 289.606 101.451 289.341 102.297C288.997 103.393 288.645 104.497 288.316 105.601C288.144 106.181 287.821 106.468 287.183 106.468C286.409 106.461 285.628 106.518 284.861 106.597C284.31 106.654 283.958 106.475 283.708 105.981C283.192 104.949 282.647 103.938 282.124 102.913C281.536 101.774 280.024 101.286 278.899 101.867C277.967 102.354 277.014 102.806 276.082 103.293C275.53 103.587 275.072 103.58 274.592 103.107C274.04 102.562 273.445 102.06 272.836 101.573C272.406 101.229 272.284 100.842 272.449 100.319C272.821 99.1794 273.18 98.0256 273.538 96.8789C273.832 95.9544 273.051 94.4494 272.133 94.1556C271.015 93.7901 269.897 93.4103 268.779 93.0591C268.235 92.8871 267.955 92.5861 267.941 91.9769C267.927 91.1743 267.862 90.3716 267.755 89.5833C267.676 89.0171 267.884 88.6874 268.371 88.4438C269.338 87.9779 270.299 87.4834 271.266 87.0033C272.563 86.3654 273.015 84.9751 272.341 83.7066C271.732 82.5384 271.058 81.3918 270.571 80.1519ZM281.242 93.6539C283.485 95.6104 286.746 95.4384 288.638 93.2669C290.588 91.0238 290.337 87.8059 288.065 85.8279C285.815 83.8643 282.568 84.0363 280.676 86.2221C278.72 88.4653 278.963 91.6616 281.242 93.6539Z" fill="#97A7AF"/>
</g>
<path d="M126.529 144.503L135.652 135.38C131.295 131.109 125.332 128.464 118.768 128.464V141.364C121.778 141.364 124.508 142.568 126.529 144.503Z" fill="#F45573"/>
<path d="M135.645 135.387L126.521 144.51C128.643 146.553 129.969 149.412 129.969 152.587C129.969 155.597 128.772 158.335 126.83 160.349L135.953 169.472C140.231 165.122 142.869 159.159 142.869 152.587C142.876 145.851 140.102 139.759 135.645 135.387Z" fill="#3A415E"/>
<path d="M118.768 163.789C112.583 163.789 107.552 158.758 107.552 152.573C107.552 146.388 112.583 141.357 118.768 141.357V128.457C105.474 128.457 94.6523 139.272 94.6523 152.573C94.6523 165.867 105.467 176.689 118.768 176.689C125.498 176.689 131.582 173.915 135.961 169.458L126.838 160.334C124.795 162.463 121.936 163.789 118.768 163.789Z" fill="#1395ED"/>
<path opacity="0.5" d="M118.768 128.465V93.3557H185.052" stroke="#97A7AF" stroke-width="1.5595" stroke-miterlimit="10" stroke-dasharray="6.24 6.24"/>
<path d="M186.665 96.1783C188.225 96.1783 189.489 94.9141 189.489 93.3547C189.489 91.7952 188.225 90.531 186.665 90.531C185.106 90.531 183.842 91.7952 183.842 93.3547C183.842 94.9141 185.106 96.1783 186.665 96.1783Z" fill="#97A7AF"/>
<path opacity="0.5" d="M118.768 176.688V222.089" stroke="#97A7AF" stroke-width="1.5595" stroke-miterlimit="10" stroke-dasharray="6.24 6.24"/>
<path d="M118.769 224.914C120.328 224.914 121.593 223.65 121.593 222.09C121.593 220.531 120.328 219.266 118.769 219.266C117.21 219.266 115.945 220.531 115.945 222.09C115.945 223.65 117.21 224.914 118.769 224.914Z" fill="#97A7AF"/>
<path d="M419.345 73.2815V86.1887C426.282 86.4037 431.865 92.1012 431.865 99.0887C431.865 106.212 426.067 112.01 418.943 112.01C416.113 112.01 413.497 111.086 411.368 109.538L403.535 119.8C407.842 123.011 413.174 124.917 418.943 124.917C433.184 124.917 444.765 113.336 444.765 99.0958C444.765 84.9918 433.399 73.4965 419.345 73.2815Z" fill="#1395ED"/>
<path d="M418.944 86.1674C419.08 86.1674 419.209 86.1817 419.345 86.1889V73.2817C419.209 73.2817 419.08 73.2745 418.944 73.2745C406.675 73.2745 396.383 81.8745 393.768 93.3627L406.359 96.1864C407.685 90.453 412.817 86.1674 418.944 86.1674Z" fill="#3A415E"/>
<path d="M406.023 99.0955C406.023 98.0922 406.152 97.1247 406.367 96.1858L393.775 93.3622C393.352 95.2112 393.123 97.1247 393.123 99.0955C393.123 107.567 397.222 115.092 403.536 119.807L411.369 109.545C408.137 107.187 406.023 103.388 406.023 99.0955Z" fill="#F45573"/>
<path d="M491.077 139.78C491.077 126.486 480.262 115.664 466.961 115.664V128.564C473.146 128.564 478.177 133.595 478.177 139.78C478.177 143.865 475.977 147.434 472.701 149.398L479.316 160.485C486.347 156.263 491.077 148.566 491.077 139.78Z" fill="#3A415E"/>
<path d="M466.962 128.564V115.664C456.577 115.664 447.705 122.258 444.322 131.481L456.448 135.924C458.018 131.639 462.131 128.564 466.962 128.564Z" fill="#F45573"/>
<path d="M466.962 150.996C460.777 150.996 455.746 145.965 455.746 139.78C455.746 138.426 455.997 137.129 456.441 135.925L444.315 131.481C443.362 134.068 442.846 136.863 442.846 139.78C442.846 153.074 453.66 163.896 466.962 163.896C471.469 163.896 475.698 162.649 479.31 160.485L472.695 149.398C471.018 150.401 469.061 150.996 466.962 150.996Z" fill="#1395ED"/>
<path d="M466.96 204.159C468.52 204.159 469.784 202.895 469.784 201.335C469.784 199.776 468.52 198.511 466.96 198.511C465.401 198.511 464.137 199.776 464.137 201.335C464.137 202.895 465.401 204.159 466.96 204.159Z" fill="#97A7AF"/>
<path opacity="0.5" d="M444.766 99.095H466.961V115.664" stroke="#97A7AF" stroke-width="1.5595" stroke-miterlimit="10" stroke-dasharray="6.24 6.24"/>
<path opacity="0.5" d="M466.961 163.896V201.335" stroke="#97A7AF" stroke-width="1.5595" stroke-miterlimit="10" stroke-dasharray="6.24 6.24"/>
<path opacity="0.3" d="M148.768 127.41C151.602 127.41 153.899 125.112 153.899 122.278C153.899 119.444 151.602 117.147 148.768 117.147C145.934 117.147 143.637 119.444 143.637 122.278C143.637 125.112 145.934 127.41 148.768 127.41Z" fill="#1395ED"/>
<path opacity="0.3" d="M394.977 149.411C394.977 152.242 392.684 154.542 389.846 154.542C387.015 154.542 384.715 152.249 384.715 149.411C384.715 146.58 387.008 144.28 389.846 144.28C392.684 144.287 394.977 146.58 394.977 149.411Z" fill="#1395ED"/>
<path opacity="0.3" d="M488.833 177.483C488.833 180.313 486.54 182.614 483.702 182.614C480.871 182.614 478.57 180.321 478.57 177.483C478.57 174.652 480.864 172.351 483.702 172.351C486.54 172.351 488.833 174.645 488.833 177.483Z" fill="#97A7AF"/>
<path opacity="0.3" d="M162.148 110.911C162.148 112.359 160.973 113.534 159.525 113.534C158.078 113.534 156.902 112.359 156.902 110.911C156.902 109.463 158.078 108.288 159.525 108.288C160.973 108.288 162.148 109.463 162.148 110.911Z" fill="#97A7AF"/>
<path opacity="0.3" d="M387.598 131.881C387.598 133.328 386.422 134.504 384.975 134.504C383.527 134.504 382.352 133.328 382.352 131.881C382.352 130.433 383.527 129.258 384.975 129.258C386.429 129.265 387.598 130.433 387.598 131.881Z" fill="#97A7AF"/>
<path opacity="0.3" d="M463.699 84.1439C463.699 85.5915 462.524 86.7669 461.076 86.7669C459.628 86.7669 458.453 85.5915 458.453 84.1439C458.453 82.6962 459.628 81.5209 461.076 81.5209C462.524 81.528 463.699 82.6962 463.699 84.1439Z" fill="#1395ED"/>
<path opacity="0.3" d="M442.142 165.185C442.142 166.632 440.967 167.808 439.519 167.808C438.072 167.808 436.896 166.632 436.896 165.185C436.896 163.737 438.072 162.562 439.519 162.562C440.967 162.562 442.142 163.737 442.142 165.185Z" fill="#97A7AF"/>
<path opacity="0.3" d="M192.643 158.735C194.091 158.735 195.266 157.56 195.266 156.112C195.266 154.663 194.091 153.489 192.643 153.489C191.194 153.489 190.02 154.663 190.02 156.112C190.02 157.56 191.194 158.735 192.643 158.735Z" fill="#97A7AF"/>
<path opacity="0.3" d="M108.899 191.873C108.899 194.166 107.036 196.03 104.743 196.03C102.449 196.03 100.586 194.166 100.586 191.873C100.586 189.58 102.449 187.716 104.743 187.716C107.036 187.723 108.899 189.58 108.899 191.873Z" fill="#97A7AF"/>
<path opacity="0.3" d="M109.988 99.8098C109.988 101.257 108.813 102.433 107.365 102.433C105.918 102.433 104.742 101.257 104.742 99.8098C104.742 98.3621 105.918 97.1868 107.365 97.1868C108.813 97.1868 109.988 98.3621 109.988 99.8098Z" fill="#97A7AF"/>
<path d="M477.668 342.42H105.016V343.495H477.668V342.42Z" fill="#25263A"/>
<path d="M99.991 342.42H85.5V343.495H99.991V342.42Z" fill="#25263A"/>
<path d="M497.39 342.42H483.709V343.495H497.39V342.42Z" fill="#25263A"/>
<path d="M515.5 342.42H501.818V343.495H515.5V342.42Z" fill="#25263A"/>
<path d="M266.68 342.383H260.058C256.604 342.383 254.003 339.222 254.669 335.833L258.453 316.626H271.747L266.68 342.383Z" fill="#748389"/>
<path d="M326.6 342.383H260.201L265.275 316.633H331.674L326.6 342.383Z" fill="#97A7AF"/>
<path d="M260.201 342.383H334.29L336.304 335.145H261.627L260.201 342.383Z" fill="#97A7AF"/>
<path d="M223.81 316.662H208.05C199.536 316.662 192.635 309.76 192.635 301.246V181.499C192.635 172.985 199.536 166.083 208.05 166.083H223.803C232.317 166.083 239.218 172.985 239.218 181.499V301.254C239.218 309.76 232.317 316.662 223.81 316.662Z" fill="#97A7AF"/>
<path d="M380.918 316.662H215.181C205.979 316.662 198.512 309.201 198.512 299.992V182.76C198.512 173.558 205.972 166.09 215.181 166.09H380.918C390.12 166.09 397.587 173.55 397.587 182.76V299.999C397.587 309.201 390.12 316.662 380.918 316.662Z" fill="#C2CFD8"/>
<path d="M380.352 295.376H215.755C209.656 295.376 204.711 290.431 204.711 284.332V183.426C204.711 177.327 209.656 172.382 215.755 172.382H380.352C386.45 172.382 391.395 177.327 391.395 183.426V284.332C391.395 290.431 386.45 295.376 380.352 295.376Z" fill="#161822"/>
<path d="M302.901 306.399C302.901 308.843 300.916 310.828 298.472 310.828C296.028 310.828 294.043 308.843 294.043 306.399C294.043 303.955 296.028 301.97 298.472 301.97C300.916 301.977 302.901 303.955 302.901 306.399Z" fill="#161822"/>
<g opacity="0.5">
<path d="M229.414 172.381V174.61" stroke="#97A7AF" stroke-width="1.5595" stroke-miterlimit="10"/>
<path d="M229.414 179.003V290.947" stroke="#97A7AF" stroke-width="1.5595" stroke-miterlimit="10" stroke-dasharray="6.13 6.13"/>
<path d="M229.414 293.139V295.375" stroke="#97A7AF" stroke-width="1.5595" stroke-miterlimit="10"/>
</g>
<g opacity="0.5">
<path d="M257.035 172.381V174.61" stroke="#97A7AF" stroke-width="1.5595" stroke-miterlimit="10"/>
<path d="M257.035 179.003V290.947" stroke="#97A7AF" stroke-width="1.5595" stroke-miterlimit="10" stroke-dasharray="6.13 6.13"/>
<path d="M257.035 293.139V295.375" stroke="#97A7AF" stroke-width="1.5595" stroke-miterlimit="10"/>
</g>
<g opacity="0.5">
<path d="M284.662 172.381V174.61" stroke="#97A7AF" stroke-width="1.5595" stroke-miterlimit="10"/>
<path d="M284.662 179.003V290.947" stroke="#97A7AF" stroke-width="1.5595" stroke-miterlimit="10" stroke-dasharray="6.13 6.13"/>
<path d="M284.662 293.139V295.375" stroke="#97A7AF" stroke-width="1.5595" stroke-miterlimit="10"/>
</g>
<g opacity="0.5">
<path d="M312.291 172.381V174.61" stroke="#97A7AF" stroke-width="1.5595" stroke-miterlimit="10"/>
<path d="M312.291 179.003V290.947" stroke="#97A7AF" stroke-width="1.5595" stroke-miterlimit="10" stroke-dasharray="6.13 6.13"/>
<path d="M312.291 293.139V295.375" stroke="#97A7AF" stroke-width="1.5595" stroke-miterlimit="10"/>
</g>
<g opacity="0.5">
<path d="M339.91 172.381V174.61" stroke="#97A7AF" stroke-width="1.5595" stroke-miterlimit="10"/>
<path d="M339.91 179.003V290.947" stroke="#97A7AF" stroke-width="1.5595" stroke-miterlimit="10" stroke-dasharray="6.13 6.13"/>
<path d="M339.91 293.139V295.375" stroke="#97A7AF" stroke-width="1.5595" stroke-miterlimit="10"/>
</g>
<g opacity="0.5">
<path d="M367.537 172.381V174.61" stroke="#97A7AF" stroke-width="1.5595" stroke-miterlimit="10"/>
<path d="M367.537 179.003V290.947" stroke="#97A7AF" stroke-width="1.5595" stroke-miterlimit="10" stroke-dasharray="6.13 6.13"/>
<path d="M367.537 293.139V295.375" stroke="#97A7AF" stroke-width="1.5595" stroke-miterlimit="10"/>
</g>
<path d="M355.734 256.324H347.686V295.368H355.734V256.324Z" fill="#CC3366"/>
<path d="M332.679 269.389H324.631V295.375H332.679V269.389Z" fill="#F45573"/>
<path d="M371.558 238.651H363.51V295.375H371.558V238.651Z" fill="#F45573"/>
<path d="M229.414 241.375L257.034 251.065L312.289 233.879L339.91 236.581L367.537 193.115" stroke="#1395ED" stroke-width="1.4974" stroke-miterlimit="10"/>
<path d="M231.514 241.376C231.514 242.537 230.575 243.475 229.414 243.475C228.253 243.475 227.314 242.537 227.314 241.376C227.314 240.215 228.253 239.276 229.414 239.276C230.575 239.276 231.514 240.215 231.514 241.376Z" fill="#F45573"/>
<path d="M259.141 251.065C259.141 252.226 258.202 253.164 257.041 253.164C255.88 253.164 254.941 252.226 254.941 251.065C254.941 249.904 255.88 248.965 257.041 248.965C258.195 248.965 259.141 249.904 259.141 251.065Z" fill="#F45573"/>
<path d="M314.389 233.88C314.389 235.041 313.45 235.98 312.289 235.98C311.128 235.98 310.189 235.041 310.189 233.88C310.189 232.719 311.128 231.78 312.289 231.78C313.45 231.773 314.389 232.719 314.389 233.88Z" fill="#F45573"/>
<path d="M369.637 193.115C369.637 194.276 368.698 195.215 367.537 195.215C366.376 195.215 365.438 194.276 365.438 193.115C365.438 191.954 366.376 191.016 367.537 191.016C368.698 191.016 369.637 191.954 369.637 193.115Z" fill="#F45573"/>
<path d="M342.016 236.545C342.016 237.706 341.077 238.645 339.916 238.645C338.755 238.645 337.816 237.706 337.816 236.545C337.816 235.384 338.755 234.445 339.916 234.445C341.07 234.445 342.016 235.384 342.016 236.545Z" fill="#F45573"/>
<path d="M256.576 199.758H210.867C210.616 199.758 210.408 199.55 210.408 199.3V186.937C210.408 186.686 210.616 186.478 210.867 186.478H256.576C256.827 186.478 257.035 186.686 257.035 186.937V199.3C257.035 199.55 256.834 199.758 256.576 199.758Z" fill="#F45573"/>
<path d="M220.725 200.601C219.913 200.601 219.135 200.494 218.391 200.282C217.647 200.059 217.048 199.774 216.593 199.426L217.391 197.658C217.826 197.967 218.338 198.223 218.928 198.426C219.527 198.619 220.131 198.716 220.74 198.716C221.204 198.716 221.576 198.672 221.856 198.585C222.146 198.489 222.359 198.358 222.494 198.194C222.629 198.03 222.697 197.841 222.697 197.629C222.697 197.358 222.591 197.145 222.378 196.991C222.166 196.826 221.885 196.696 221.537 196.599C221.189 196.493 220.803 196.396 220.377 196.309C219.962 196.213 219.541 196.097 219.116 195.961C218.7 195.826 218.319 195.652 217.971 195.439C217.623 195.227 217.338 194.946 217.115 194.598C216.903 194.25 216.796 193.806 216.796 193.265C216.796 192.685 216.951 192.158 217.26 191.684C217.579 191.201 218.053 190.819 218.681 190.539C219.319 190.249 220.116 190.104 221.073 190.104C221.711 190.104 222.339 190.181 222.958 190.336C223.577 190.481 224.123 190.703 224.596 191.003L223.871 192.786C223.398 192.516 222.924 192.317 222.451 192.192C221.977 192.056 221.513 191.989 221.059 191.989C220.605 191.989 220.232 192.042 219.942 192.148C219.653 192.255 219.445 192.395 219.319 192.569C219.193 192.733 219.131 192.926 219.131 193.149C219.131 193.41 219.237 193.622 219.45 193.787C219.662 193.941 219.942 194.067 220.29 194.163C220.638 194.26 221.02 194.357 221.436 194.453C221.861 194.55 222.281 194.661 222.697 194.787C223.122 194.913 223.509 195.082 223.857 195.294C224.205 195.507 224.485 195.787 224.698 196.135C224.92 196.483 225.031 196.923 225.031 197.455C225.031 198.025 224.872 198.547 224.553 199.02C224.234 199.494 223.755 199.876 223.118 200.166C222.489 200.456 221.692 200.601 220.725 200.601ZM228.597 200.427V192.192H225.349V190.278H234.193V192.192H230.945V200.427H228.597ZM233.613 200.427L238.137 190.278H240.456L244.994 200.427H242.529L238.818 191.467H239.746L236.02 200.427H233.613ZM235.875 198.252L236.498 196.469H241.718L242.355 198.252H235.875ZM217.391 218.427V208.278H221.784C222.692 208.278 223.475 208.428 224.132 208.727C224.79 209.017 225.297 209.438 225.655 209.989C226.012 210.54 226.191 211.197 226.191 211.961C226.191 212.714 226.012 213.367 225.655 213.918C225.297 214.459 224.79 214.875 224.132 215.165C223.475 215.455 222.692 215.6 221.784 215.6H218.696L219.74 214.57V218.427H217.391ZM223.842 218.427L221.305 214.744H223.813L226.38 218.427H223.842ZM219.74 214.831L218.696 213.729H221.653C222.378 213.729 222.919 213.575 223.277 213.265C223.635 212.946 223.813 212.511 223.813 211.961C223.813 211.4 223.635 210.965 223.277 210.656C222.919 210.346 222.378 210.192 221.653 210.192H218.696L219.74 209.075V214.831ZM230.013 218.427V210.192H226.765V208.278H235.609V210.192H232.361V218.427H230.013Z" fill="#161822"/>
<g opacity="0.2">
<path d="M296.63 165.998C283.952 159.384 266.917 164.099 262.381 177.236C261.521 179.723 260.818 182.697 258.41 183.765C257.171 184.309 255.759 184.195 254.404 184.202C242.078 184.266 231.865 197.962 235.319 209.794C236.158 212.653 237.649 215.577 236.889 218.458C236.244 220.909 234.144 222.637 232.281 224.357C225.573 230.549 220.628 238.941 219.725 248.028C218.822 257.115 222.348 266.798 229.658 272.273C236.968 277.748 248.004 278.178 255.078 272.402C258.41 269.686 261.406 265.551 265.699 265.73C268.222 265.837 270.372 267.478 272.636 268.604C281.638 273.097 294.014 268.217 297.533 258.792C298.243 256.9 298.68 254.793 300.113 253.36C302.192 251.282 305.517 251.382 308.462 251.332C318.969 251.153 330.048 246.545 335.065 237.314C340.082 228.083 336.391 214.309 326.379 211.12C324.709 210.589 322.774 210.231 321.821 208.769C320.574 206.856 321.771 204.362 322.695 202.276C326.15 194.479 325.404 184.961 320.775 177.802C316.152 170.628 304.191 169.94 296.63 165.998Z" fill="#97A7AF"/>
<path d="M311.272 261.091C307.13 262.403 304.937 267.226 303.769 271.411C303.461 272.515 303.267 273.726 303.726 274.773C304.22 275.891 305.353 276.571 306.478 277.037C309.982 278.471 314.218 278.291 317.35 276.156C320.474 274.02 322.201 269.835 321.062 266.223C319.915 262.604 314.884 259.952 311.272 261.091Z" fill="#97A7AF"/>
<path d="M261.398 276.436C260.245 278.73 258.51 280.987 259.406 283.395C260.302 285.803 263.09 287.43 265.569 286.756C266.343 286.549 267.053 286.147 267.684 285.638C270.228 283.596 271.073 279.497 269.074 276.917C267.082 274.337 262.868 273.52 261.398 276.436Z" fill="#97A7AF"/>
</g>
<path d="M314.905 132.794C314.905 132.794 298.229 126.738 275.295 131.188C274.822 131.282 274.421 131.611 274.235 132.056L266.846 149.872C266.516 150.667 266.96 151.57 267.792 151.793L299.175 160.17L314.905 132.794Z" fill="#97A7AF"/>
<path d="M339.651 147.006C339.651 147.006 353.282 158.358 360.993 180.41C361.151 180.868 361.072 181.377 360.778 181.764L349.111 197.122C348.588 197.81 347.584 197.882 346.968 197.273L323.92 174.383L339.651 147.006Z" fill="#97A7AF"/>
<path d="M322.381 182.001C377.729 143.351 380.295 78.0913 379.9 60.1961C379.85 57.8311 377.5 56.2114 375.271 56.9998C304.486 81.9971 291.973 164.464 291.973 164.464L292.18 164.679C300.393 173.214 310.871 179.22 322.381 182.001Z" fill="#C2CFD8"/>
<path d="M291.973 164.465L292.18 164.68C300.393 173.215 310.871 179.221 322.381 182.009C325.713 179.679 328.852 177.25 331.819 174.749C312.992 168.542 300.773 158.617 294.653 152.589C292.668 159.892 291.973 164.465 291.973 164.465Z" fill="#CC3366"/>
<path d="M377.047 93.4421C379.806 78.6501 380.035 66.4954 379.899 60.2031C379.849 57.8381 377.498 56.2184 375.27 57.0067C363.545 61.1491 353.426 66.8752 344.689 73.5331C348.488 79.5101 358.478 91.7866 377.047 93.4421Z" fill="#F45573"/>
<path d="M340.842 131.885C349.7 131.885 356.881 124.704 356.881 115.846C356.881 106.988 349.7 99.8066 340.842 99.8066C331.984 99.8066 324.803 106.988 324.803 115.846C324.803 124.704 331.984 131.885 340.842 131.885Z" fill="#97A7AF"/>
<path d="M340.842 127.871C347.484 127.871 352.868 122.487 352.868 115.845C352.868 109.204 347.484 103.82 340.842 103.82C334.2 103.82 328.816 109.204 328.816 115.845C328.816 122.487 334.2 127.871 340.842 127.871Z" fill="#3A415E"/>
<path d="M345.229 78.59C345.229 79.2135 344.727 79.7152 344.104 79.7152C343.48 79.7152 342.979 79.2135 342.979 78.59C342.979 77.9665 343.48 77.4648 344.104 77.4648C344.72 77.4648 345.229 77.9665 345.229 78.59Z" fill="#97A7AF"/>
<path d="M349.508 84.1456C349.508 84.7691 349.006 85.2707 348.383 85.2707C347.759 85.2707 347.258 84.7691 347.258 84.1456C347.258 83.5221 347.759 83.0204 348.383 83.0204C349.006 83.0204 349.508 83.5221 349.508 84.1456Z" fill="#97A7AF"/>
<path d="M360.659 92.5013C360.659 93.1248 360.157 93.6265 359.533 93.6265C358.91 93.6265 358.408 93.1248 358.408 92.5013C358.408 91.8778 358.91 91.3762 359.533 91.3762C360.15 91.369 360.659 91.8778 360.659 92.5013Z" fill="#97A7AF"/>
<path d="M374.547 95.9633C374.547 96.5868 374.046 97.0885 373.422 97.0885C372.799 97.0885 372.297 96.5868 372.297 95.9633C372.297 95.3398 372.799 94.8381 373.422 94.8381C374.038 94.8381 374.547 95.3398 374.547 95.9633Z" fill="#97A7AF"/>
<path d="M354.516 88.6172C354.516 89.2407 354.014 89.7424 353.391 89.7424C352.767 89.7424 352.266 89.2407 352.266 88.6172C352.266 87.9937 352.767 87.4921 353.391 87.4921C354.014 87.4921 354.516 87.9937 354.516 88.6172Z" fill="#97A7AF"/>
<path d="M367.43 94.7526C367.43 95.3761 366.928 95.8778 366.305 95.8778C365.681 95.8778 365.18 95.3761 365.18 94.7526C365.18 94.1291 365.681 93.6274 366.305 93.6274C366.921 93.6274 367.43 94.1291 367.43 94.7526Z" fill="#97A7AF"/>
<path d="M300.092 152.274C300.092 152.898 299.59 153.399 298.967 153.399C298.343 153.399 297.842 152.898 297.842 152.274C297.842 151.651 298.343 151.149 298.967 151.149C299.59 151.142 300.092 151.651 300.092 152.274Z" fill="#97A7AF"/>
<path d="M306.627 157.24C306.627 157.864 306.126 158.365 305.502 158.365C304.879 158.365 304.377 157.864 304.377 157.24C304.377 156.617 304.879 156.115 305.502 156.115C306.126 156.115 306.627 156.617 306.627 157.24Z" fill="#97A7AF"/>
<path d="M313.702 161.892C313.702 162.516 313.2 163.017 312.576 163.017C311.953 163.017 311.451 162.516 311.451 161.892C311.451 161.269 311.953 160.767 312.576 160.767C313.2 160.767 313.702 161.269 313.702 161.892Z" fill="#97A7AF"/>
<path d="M322.323 166.601C322.323 167.224 321.821 167.726 321.197 167.726C320.574 167.726 320.072 167.224 320.072 166.601C320.072 165.977 320.574 165.475 321.197 165.475C321.821 165.475 322.323 165.984 322.323 166.601Z" fill="#97A7AF"/>
<path d="M331.762 170.327C331.762 170.951 331.26 171.452 330.637 171.452C330.013 171.452 329.512 170.951 329.512 170.327C329.512 169.704 330.013 169.202 330.637 169.202C331.253 169.202 331.762 169.704 331.762 170.327Z" fill="#97A7AF"/>
<path d="M309.889 196.778C317.442 180.552 295.634 166.269 284.139 179.986C281.889 182.674 279.903 186.436 278.499 191.653C271.733 216.715 275.919 224.642 275.919 224.642C275.919 224.642 288.776 223.473 304.313 205.191C306.807 202.253 308.649 199.451 309.889 196.778Z" fill="#1395ED"/>
<path d="M305.832 190.278C310.168 180.969 297.655 172.77 291.054 180.639C289.764 182.18 288.625 184.337 287.815 187.34C283.93 201.723 286.331 206.274 286.331 206.274C286.331 206.274 293.706 205.608 302.628 195.116C304.062 193.424 305.115 191.812 305.832 190.278Z" fill="#1147CB"/>
<path d="M183.453 227.359C183.453 227.359 195.02 270.926 195.178 283.439C195.328 295.959 189.781 337.289 189.781 337.289H178.594C178.594 337.289 178.967 290.419 177.928 282.321C176.881 274.229 170.962 253.439 170.962 253.439C170.962 253.439 168.812 309.884 164.189 337.282H153.081C153.081 337.282 151.425 262.67 152.522 227.352H183.453V227.359Z" fill="#1395ED"/>
<path d="M154.852 337.288L155.991 230.247" stroke="#1147CB" stroke-width="1.3182" stroke-miterlimit="10"/>
<path d="M175.024 248.271C174.838 248.822 174.58 249.317 174.293 249.79C174.014 250.27 173.691 250.714 173.362 251.152C173.018 251.582 172.659 251.997 172.265 252.384C171.871 252.771 171.448 253.144 170.961 253.452C171.147 252.9 171.405 252.406 171.692 251.933C171.971 251.453 172.294 251.008 172.631 250.571C172.975 250.148 173.333 249.725 173.734 249.338C174.114 248.944 174.53 248.579 175.024 248.271Z" fill="#1147CB"/>
<path d="M172.918 250.952C172.918 250.952 179.762 273.297 180.4 282.327C181.038 291.357 180.006 337.296 180.006 337.296" stroke="#1147CB" stroke-width="1.3182" stroke-miterlimit="10"/>
<path d="M205.126 228.397C206.416 226.735 209.297 227.688 211.382 227.329C211.64 227.286 211.913 227.243 212.163 227.329C212.636 227.494 212.837 228.053 212.973 228.533C213.023 228.713 213.066 228.913 212.966 229.064C212.894 229.171 212.758 229.214 212.636 229.257C211.819 229.522 210.981 229.73 210.135 229.866C211.719 231.013 213.36 232.181 215.252 232.64C215.94 232.805 216.75 232.948 217.08 233.579C217.209 233.822 217.237 234.102 217.23 234.374C217.209 236.109 215.818 237.707 214.106 237.972C213.023 238.144 211.92 237.829 210.895 237.427C207.942 236.273 205.291 234.338 203.284 231.88C203.234 231.816 203.184 231.751 203.176 231.672C203.169 231.579 203.227 231.5 203.284 231.436C204.008 230.483 204.395 229.336 205.126 228.397Z" fill="#FF5077"/>
<path d="M154.171 236.383C156.177 235.53 158.327 237.809 160.406 238.519C160.664 238.605 160.936 238.705 161.115 238.906C161.466 239.293 161.373 239.888 161.251 240.389C161.208 240.576 161.151 240.776 160.979 240.862C160.857 240.92 160.714 240.898 160.585 240.877C159.711 240.712 158.843 240.482 158.005 240.181C158.879 241.995 159.797 243.858 161.294 245.212C161.839 245.7 162.506 246.23 162.498 246.961C162.491 247.241 162.377 247.513 162.24 247.757C161.359 249.305 159.302 250.057 157.611 249.448C156.543 249.061 155.69 248.237 154.952 247.362C152.838 244.861 151.376 241.808 150.759 238.598C150.745 238.519 150.731 238.426 150.767 238.354C150.81 238.268 150.896 238.225 150.982 238.189C152.114 237.709 153.031 236.87 154.171 236.383Z" fill="#FF5077"/>
<path d="M168.361 137.268C168.361 137.268 174.016 136.379 176.574 142.406C179.126 148.426 179.635 161.004 171.658 160.832C163.682 160.652 160.421 154.453 160.421 154.453C160.421 154.453 156.508 152.862 157.002 150.383C157.504 147.903 159.288 148.634 159.288 148.634C159.288 148.634 157.733 137.447 168.361 137.268Z" fill="#FF5077"/>
<path d="M171.931 153.809L175.177 165.942L179.463 168.507C179.463 168.507 176.589 179.666 170.562 179.666C164.542 179.666 159.525 167.884 159.525 167.884L163.56 165.82L164.313 153.801H171.931V153.809Z" fill="#FF5077"/>
<path d="M174.316 162.753L173.721 160.546C173.721 160.546 170.861 161.377 167.414 160.001C167.421 159.994 170.374 162.316 174.316 162.753Z" fill="#CC3366"/>
<path d="M159.038 148.935C160.328 148.569 160.442 151.2 161.145 152.325C161.252 152.504 161.388 152.697 161.596 152.74C161.847 152.791 162.091 152.576 162.155 152.332C162.227 152.088 162.169 151.83 162.119 151.587C161.725 149.494 161.897 147.301 162.621 145.301C162.657 145.208 162.7 145.101 162.793 145.065C162.879 145.029 162.979 145.065 163.065 145.101C165.294 145.918 167.752 145.581 170.096 145.23C171.472 145.022 172.855 144.814 174.174 144.391C176.868 143.524 179.312 141.639 180.308 139.038C180.53 138.45 180.659 137.712 180.215 137.253C179.885 136.902 179.341 136.838 178.853 136.852C178.036 136.866 177.227 137.017 176.467 137.296C176.359 136.3 175.686 135.368 174.754 134.946C173.822 134.523 172.669 134.616 171.837 135.182C171.694 135.282 171.551 135.39 171.379 135.419C171.128 135.462 170.884 135.311 170.648 135.196C169.537 134.645 168.211 134.824 167 135.067C164.921 135.497 162.85 136.121 161.08 137.26C159.31 138.407 157.862 140.127 157.411 142.162C157.146 143.359 157.232 144.606 157.318 145.832C157.375 146.62 157.432 147.408 157.49 148.197C157.504 148.362 157.518 148.526 157.604 148.663C157.855 149.042 158.615 149.057 159.038 148.935Z" fill="#25263A"/>
<path d="M178.108 167.568C176.674 167.052 176.058 172.857 168.44 172.319C164.448 172.04 162.542 166.636 161.782 166.736C159.31 167.073 156.106 166.994 153.712 168.872C151.319 170.75 149.699 173.423 148.237 176.103C145.492 181.149 143.156 186.402 140.82 191.655C139.881 193.762 138.942 195.883 138.404 198.126C136.333 206.791 140.526 216.616 144.589 224.622C146.546 228.484 146.617 232.347 148.574 236.21C149.004 237.056 149.57 237.801 150.194 238.518C151.147 239.614 154.35 238.568 156.106 237.12C157.776 235.737 156.601 232.469 155.991 230.255C164.699 230.921 174.109 230.484 182.58 228.527C183.146 228.398 183.769 228.219 184.07 227.725C184.293 227.366 184.293 226.915 184.278 226.492C184.185 221.812 183.956 217.132 183.583 212.467C184.844 215.549 186.321 218.58 188.356 221.225C190.377 223.848 192.907 226.033 195.415 228.191C197.422 229.918 199.636 231.437 202.195 232.075C204.56 232.663 207.197 228.083 207.097 227.302C206.918 225.947 205.585 225.044 204.553 224.134C202.009 221.877 199.859 219.175 198.232 216.186C195.172 210.553 194.054 204.125 192.986 197.825C192.269 193.626 191.56 189.419 190.843 185.219C190.42 182.74 189.99 180.224 188.894 177.952C186.715 173.394 184.887 170.012 178.108 167.568Z" fill="#3C4161"/>
<path d="M155.992 230.247C155.992 230.247 152.71 219.081 148.775 201.193C148.775 201.193 152.846 193.396 155.491 188.616" stroke="#1C2035" stroke-width="1.3182" stroke-miterlimit="10"/>
<path d="M183.59 212.467C183.59 212.467 183.117 199.775 181.941 190.207" stroke="#1C2035" stroke-width="1.3182" stroke-miterlimit="10"/>
<path d="M177.972 167.404C177.972 167.404 175.378 172.328 170.254 172.328C165.129 172.328 161.775 166.745 161.775 166.745" stroke="#1C2035" stroke-width="1.3182" stroke-miterlimit="10"/>
<path d="M188.743 337.289L206.05 342.957H178.717L179.061 337.289H188.743Z" fill="#25263A"/>
<path d="M163.481 337.289L181.247 342.957H153.189L153.541 337.289H163.481Z" fill="#25263A"/>
<path d="M174.711 154.812L168.061 154.103C168.061 154.103 168.684 157.822 171.429 158.087C174.174 158.352 174.711 154.812 174.711 154.812Z" fill="#161822"/>
<path d="M172.547 148.936C172.877 149.38 173.12 149.861 173.321 150.362C173.522 150.864 173.672 151.387 173.751 151.946C173.78 152.226 173.787 152.519 173.73 152.842L173.636 153.1C173.601 153.186 173.515 153.279 173.45 153.358C173.321 153.48 173.171 153.559 173.013 153.616C172.354 153.817 171.766 153.523 171.379 153.157C171.902 153.279 172.447 153.308 172.791 153.107C172.87 153.057 172.948 152.985 173.006 152.921C173.013 152.885 173.027 152.885 173.034 152.849C173.042 152.806 173.049 152.763 173.056 152.727C173.07 152.527 173.07 152.29 173.034 152.046C172.984 151.559 172.87 151.05 172.784 150.534C172.69 150.004 172.597 149.488 172.547 148.936Z" fill="#CC3366"/>
<path d="M168.419 149.919C168.376 149.589 168.484 149.209 168.77 148.951C169.043 148.679 169.444 148.579 169.802 148.579C170.154 148.579 170.548 148.679 170.834 148.944C171.121 149.202 171.236 149.596 171.164 149.926C171.021 149.618 170.806 149.41 170.584 149.281C170.347 149.166 170.089 149.109 169.802 149.116C169.523 149.109 169.265 149.159 169.036 149.288C168.792 149.403 168.577 149.625 168.419 149.919Z" fill="#25263A"/>
<path d="M168.096 147.546C168.096 147.546 168.934 146.894 170.375 147.13" stroke="#25263A" stroke-miterlimit="10" stroke-linecap="round" stroke-linejoin="round"/>
<path d="M174.238 149.565C174.195 149.236 174.302 148.856 174.589 148.591C174.861 148.318 175.262 148.218 175.621 148.211C175.972 148.211 176.366 148.311 176.653 148.576C176.939 148.834 177.054 149.228 176.982 149.558C176.846 149.25 176.624 149.035 176.402 148.913C176.165 148.798 175.907 148.741 175.621 148.748C175.341 148.741 175.083 148.791 174.854 148.92C174.617 149.056 174.402 149.271 174.238 149.565Z" fill="#25263A"/>
<path d="M176.86 147.28C176.86 147.28 175.972 146.7 174.553 147.044" stroke="#25263A" stroke-miterlimit="10" stroke-linecap="round" stroke-linejoin="round"/>
<path d="M158.794 149.915C158.442 149.987 158.17 150.188 158.141 150.417C158.106 150.646 158.17 150.976 158.278 151.234C158.5 151.786 158.915 152.237 159.503 152.632C158.786 152.66 158.063 152.144 157.776 151.435C157.647 151.069 157.568 150.689 157.747 150.267C157.84 150.059 158.041 149.908 158.235 149.865C158.435 149.829 158.622 149.844 158.794 149.915Z" fill="#CC3366"/>
<path d="M361.151 229.459C360.055 227.839 357.36 228.606 355.461 228.183C355.225 228.133 354.981 228.076 354.744 228.147C354.3 228.284 354.085 228.792 353.935 229.244C353.877 229.409 353.827 229.595 353.913 229.738C353.978 229.839 354.092 229.889 354.207 229.932C354.945 230.219 355.698 230.448 356.472 230.613C354.952 231.616 353.383 232.641 351.613 232.985C350.975 233.114 350.222 233.207 349.885 233.78C349.756 234.003 349.713 234.268 349.699 234.526C349.62 236.153 350.81 237.715 352.365 238.037C353.347 238.245 354.386 237.994 355.346 237.665C358.127 236.712 360.671 235.02 362.656 232.799C362.707 232.741 362.757 232.684 362.764 232.605C362.771 232.519 362.728 232.447 362.678 232.376C362.069 231.466 361.775 230.376 361.151 229.459Z" fill="#FF5077"/>
<path d="M390.693 237.923C390.693 237.923 390.406 270.467 389.604 279.683C388.801 288.899 387.762 338.077 387.762 338.077H397.781C397.781 338.077 406.402 287.588 408.086 255.101L414.243 338.077H424.118C424.118 338.077 428.812 270.359 423.731 237.923H390.693Z" fill="#1395ED"/>
<path d="M406.302 249.776C406.94 250.55 407.313 251.41 407.628 252.292C407.772 252.736 407.901 253.187 407.979 253.653C408.065 254.119 408.116 254.592 408.087 255.101C407.757 254.721 407.514 254.305 407.299 253.883C407.084 253.46 406.912 253.023 406.761 252.585C406.474 251.69 406.259 250.779 406.302 249.776Z" fill="#1147CB"/>
<path d="M407.19 252.435C407.19 252.435 402.69 310.966 397.773 338.07" stroke="#1147CB" stroke-width="1.2814" stroke-miterlimit="10"/>
<path d="M422.692 338.077C422.692 338.077 428.11 265.701 421.574 238.088" stroke="#1147CB" stroke-width="1.2814" stroke-miterlimit="10"/>
<path d="M401.413 157.047L398.704 178.79C398.081 183.778 401.972 188.186 407.003 188.186H414.579C419.739 188.186 423.666 183.563 422.835 178.475L419.832 160.093L401.413 157.047Z" fill="#25263A"/>
<path d="M409.477 151.915C405.729 151.743 402.346 154.373 401.335 158.021C400.131 162.385 398.282 171.494 404.073 174.038C411.663 177.371 417.389 169.251 417.389 169.251C417.389 169.251 419.782 167.252 419.374 164.113C418.965 160.974 417.188 162.794 417.188 162.794C417.188 162.794 418.134 152.718 410.172 151.958C409.935 151.944 409.706 151.929 409.477 151.915Z" fill="#FF5077"/>
<path d="M404.84 170.012L403.686 180.081L397.537 182.547C397.537 182.547 400.647 191.82 407.728 191.82C414.809 191.82 418.894 182.382 418.894 182.382L413.368 180.131L412.458 167.289L404.84 170.012Z" fill="#FF5077"/>
<path d="M404.36 174.161C404.36 174.161 406.818 175.301 410.524 174.412C410.524 174.412 409.434 176.72 404.109 176.397L404.36 174.161Z" fill="#CC3366"/>
<path d="M400.877 155.807C400.877 155.807 400.483 158.309 402.812 159.068C405.019 159.785 408.366 166.486 415.296 165.31C416.006 165.189 416.6 164.658 416.823 163.963L417.195 162.795C417.195 162.795 418.736 161.111 419.381 164.114C419.381 164.114 422.556 151.851 412.222 149.723C401.887 147.594 400.877 155.807 400.877 155.807Z" fill="#25263A"/>
<path d="M393.424 237.922C394.284 210.596 400.254 181.427 400.254 181.427C400.254 181.427 403.142 190.894 407.585 190.894C412.774 190.894 416.551 181.198 416.551 181.198L419.933 237.922C419.933 237.922 415.676 241.706 405.148 241.706C394.621 241.706 393.424 237.922 393.424 237.922Z" fill="#161822"/>
<path d="M402.316 186.273C401.206 184.216 401.198 183.528 400.56 181.758L400.26 181.428L398.317 181.951C398.324 181.951 398.324 181.951 398.317 181.951C398.31 181.951 398.324 181.944 398.317 181.951L396.805 182.561C395.372 183.141 394.111 184.087 393.2 185.341C388.915 191.247 387.317 204.068 387.317 204.068V204.061C387.073 204.942 386.851 205.831 386.65 206.727C385.847 210.417 386.98 212.116 380.673 217.168C379.548 218.071 378.415 218.953 377.09 219.533C372.13 221.705 367.171 223.876 362.212 226.048C361.774 226.241 361.366 226.499 361.015 226.815C359.596 228.083 359.954 227.911 360.069 229.846C360.112 230.592 359.811 233.802 360.255 234.404C360.936 235.336 362.326 235.408 363.473 235.372C369.45 235.171 375.069 232.62 380.508 230.119C382.673 229.122 384.794 228.162 386.937 227.18C386.37 238.253 386.098 247.541 386.098 247.541C386.199 250.594 386.299 253.64 386.399 256.693C386.428 257.502 386.492 258.405 387.08 258.943C387.51 259.337 388.134 259.452 388.721 259.538C390.348 259.774 391.989 259.968 393.63 260.104C393.924 260.125 394.232 260.147 394.49 260.004C394.906 259.774 395.014 259.237 395.078 258.778C396.053 251.683 397.027 244.516 396.432 237.429C396.268 235.472 396.762 230.083 396.734 228.112C396.691 224.679 396.662 224.715 397.013 221.289C397.823 213.291 396.497 205.071 398.862 197.338C399.643 194.773 400.819 192.336 402.051 189.949C402.288 189.491 403.42 188.495 403.363 187.993C403.305 187.405 402.596 186.782 402.316 186.273Z" fill="#3A415E"/>
<path d="M416.55 181.199C421.381 182.044 422.9 183.342 425.96 187.111C429.551 191.533 431.149 198.986 431.593 204.748C432.747 219.598 433.836 229.244 434.632 246.731C434.646 246.989 434.596 247.254 434.481 247.49C434.252 247.942 433.722 248.15 433.227 248.243C431.443 248.601 429.644 248.114 427.845 247.978C427.523 247.956 427.179 247.942 426.885 248.092C425.774 248.644 426.39 253.668 426.304 254.894C426.168 256.793 423.846 257.703 421.947 257.889C419.754 258.104 417.539 257.99 415.397 257.545C415.088 257.481 414.766 257.402 414.551 257.173C414.279 256.886 414.264 256.442 414.257 256.04C414.142 244.452 414.021 232.856 414.615 221.26C414.888 215.878 415.311 210.46 414.752 205.128C414.558 203.315 414.257 201.509 414.157 199.689C413.963 196.163 413.669 195.339 413.354 191.827C413.311 191.347 412.802 187.878 412.96 187.412C413.075 187.068 413.304 186.774 413.533 186.488C414.773 184.89 415.103 183.263 416.343 181.672L416.55 181.199Z" fill="#3A415E"/>
<path d="M388.836 338.078L373.865 342.958H397.343L396.899 338.078H388.836Z" fill="#25263A"/>
<path d="M415.424 338.078L400.453 342.958H423.938L423.487 338.078H415.424Z" fill="#25263A"/>
<path d="M426.785 251.482C426.785 251.482 426.649 220.773 423.789 201.337" stroke="#1C2035" stroke-width="1.2814" stroke-miterlimit="10"/>
<path d="M429.234 247.842C427.306 247.491 426.955 248.989 425.371 250.207C425.178 250.358 424.97 250.523 424.87 250.745C424.676 251.175 424.927 251.655 425.171 252.042C425.257 252.185 425.364 252.343 425.536 252.357C425.658 252.372 425.773 252.307 425.88 252.25C426.59 251.849 427.263 251.397 427.901 250.895C427.657 252.694 427.399 254.543 426.489 256.127C426.16 256.7 425.737 257.353 425.952 257.962C426.038 258.198 426.21 258.392 426.396 258.557C427.586 259.603 429.571 259.624 430.854 258.607C431.664 257.962 432.165 257.009 432.552 256.055C433.67 253.311 434.294 250.702 433.921 247.807C433.914 247.735 433.9 247.656 433.849 247.606C433.792 247.549 433.692 247.498 433.62 247.534C433.183 247.728 431.04 248.172 429.234 247.842Z" fill="#FF5077"/>
<path d="M400.346 181.371C400.346 181.371 402.926 190.889 407.756 190.889C412.586 190.889 416.55 181.192 416.55 181.192" stroke="#1C2035" stroke-width="1.2814" stroke-miterlimit="10"/>
<path d="M404.402 169.855L410.451 169.167C410.451 169.167 409.978 172.979 407.312 172.979C404.66 172.979 404.402 169.855 404.402 169.855Z" fill="#161822"/>
<path d="M406.666 164.215C406.623 164.738 406.537 165.24 406.451 165.727C406.373 166.222 406.265 166.702 406.215 167.168C406.179 167.404 406.179 167.626 406.193 167.82C406.201 167.856 406.208 167.899 406.215 167.934C406.222 167.97 406.236 167.97 406.244 167.999C406.294 168.056 406.365 168.128 406.444 168.171C406.767 168.364 407.283 168.343 407.792 168.235C407.426 168.594 406.867 168.88 406.229 168.687C406.072 168.637 405.935 168.558 405.806 168.443C405.742 168.364 405.663 168.278 405.627 168.192L405.541 167.949C405.484 167.641 405.491 167.354 405.52 167.089C405.591 166.551 405.735 166.05 405.935 165.569C406.107 165.096 406.344 164.638 406.666 164.215Z" fill="#CC3366"/>
<path d="M410.953 164.694C410.795 164.415 410.587 164.207 410.365 164.085C410.143 163.963 409.899 163.92 409.634 163.928C409.362 163.92 409.118 163.971 408.896 164.078C408.681 164.2 408.473 164.401 408.337 164.687C408.265 164.372 408.365 163.992 408.645 163.741C408.917 163.483 409.297 163.39 409.634 163.383C409.978 163.383 410.365 163.483 410.623 163.748C410.895 164.006 411.003 164.379 410.953 164.694Z" fill="#25263A"/>
<path d="M411.261 162.416C411.261 162.416 410.458 161.793 409.082 162.015" stroke="#25263A" stroke-miterlimit="10" stroke-linecap="round" stroke-linejoin="round"/>
<path d="M404.402 164.624C404.244 164.345 404.036 164.137 403.814 164.015C403.592 163.893 403.348 163.85 403.083 163.858C402.811 163.85 402.567 163.901 402.345 164.008C402.13 164.13 401.922 164.331 401.786 164.617C401.714 164.302 401.815 163.922 402.094 163.671C402.367 163.413 402.746 163.32 403.083 163.313C403.427 163.313 403.814 163.413 404.072 163.678C404.345 163.936 404.452 164.302 404.402 164.624Z" fill="#25263A"/>
<path d="M401.9 162.431C401.9 162.431 402.753 161.872 404.108 162.209" stroke="#25263A" stroke-miterlimit="10" stroke-linecap="round" stroke-linejoin="round"/>
<path d="M418.032 163.876C418.534 164.313 418.713 165.052 418.598 165.718C418.527 166.048 418.405 166.377 418.204 166.643C418.018 166.915 417.76 167.13 417.48 167.295C417.609 166.994 417.731 166.714 417.839 166.442C417.946 166.17 418.018 165.897 418.075 165.625C418.133 165.353 418.14 165.073 418.14 164.786C418.118 164.493 418.097 164.192 418.032 163.876Z" fill="#CC3366"/>
<path d="M386.98 227.166C386.98 227.166 388.751 213.506 390.707 202.419" stroke="#1C2035" stroke-width="1.2814" stroke-miterlimit="10"/>
<path d="M426.648 247.914C426.648 247.914 432.102 249.125 434.869 247.112" stroke="#1C2035" stroke-width="1.2814" stroke-miterlimit="10"/>
</svg>
