<svg width="71" height="175" viewBox="0 0 71 175" fill="none" xmlns="http://www.w3.org/2000/svg">
<path d="M36.4921 174.819C34.7131 174.819 32.9411 174.376 31.586 173.491L5.56154 156.392C4.20646 155.506 3.46289 154.304 3.46289 153.015C3.46289 151.725 4.20646 150.531 5.56154 149.645L31.586 132.547C34.2892 130.767 38.688 130.767 41.3982 132.547L67.4227 149.645C68.7778 150.531 69.5214 151.733 69.5214 153.023C69.5214 154.312 68.7778 155.506 67.4297 156.392L41.4051 173.491C40.0501 174.368 38.2711 174.819 36.4921 174.819ZM31.8153 173.032C34.3935 174.732 38.5908 174.732 41.1689 173.032L67.1934 155.933C68.3956 155.142 69.0627 154.106 69.0627 153.015C69.0627 151.923 68.3956 150.879 67.1934 150.088L41.1689 132.989C38.5908 131.289 34.3865 131.297 31.8153 132.989L5.79083 150.088C4.58863 150.879 3.92151 151.915 3.92151 153.007C3.92151 154.098 4.58863 155.142 5.79083 155.933L31.8153 173.032Z" fill="#273C7F"/>
<path opacity="0.4" d="M70.326 146.452V136.313L68.693 135.277C68.2344 138.44 64.9544 140.528 62.2164 140.963L43.5719 153.372L35.4344 156.718L9.45858 141.461L10.0562 141.066C7.83942 139.888 6.63721 137.183 5.44196 134.723L3.69081 135.909L2.64844 136.242V146.555C2.64844 147.868 3.41283 149.188 4.93469 150.185L30.9592 167.284C34.0029 169.285 38.9646 169.285 42.0083 167.284L68.0328 150.185C69.5338 149.196 70.2913 147.915 70.3191 146.618C70.3261 146.563 70.326 146.507 70.326 146.452Z" fill="#273C7F"/>
<path d="M70.326 137.437V130.731L68.693 129.694C68.2344 132.858 64.9544 134.946 62.2164 135.381L43.5719 147.79L35.4344 151.135L9.45858 135.879L10.0562 135.484C7.83942 134.305 6.63721 131.601 5.44196 129.141L3.69081 130.327L2.64844 130.659V137.54C2.64844 138.853 3.41283 140.174 4.93469 141.17L30.9592 158.269C34.0029 160.27 38.9646 160.27 42.0083 158.269L68.0328 141.17C69.5338 140.182 70.2913 138.9 70.3191 137.603C70.3261 137.548 70.326 137.493 70.326 137.437Z" fill="#273C7F"/>
<path opacity="0.3" d="M62.2238 135.379L43.5792 147.788L36.498 150.698V159.77C38.4994 159.77 40.5008 159.271 42.0226 158.267L68.0471 141.168C69.5481 140.179 70.3056 138.898 70.3334 137.601C70.3334 137.546 70.3334 137.483 70.3334 137.427H70.3403V130.72L68.8532 129.779H68.7004C68.1722 132.895 64.9339 134.952 62.2238 135.379Z" fill="#0F054C"/>
<path d="M30.9675 151.46L4.94295 134.361C1.89923 132.36 1.89923 129.102 4.94295 127.101L30.9675 110.002C34.0112 108.001 38.9728 108.001 42.0166 110.002L68.0411 127.101C71.0848 129.102 71.0848 132.36 68.0411 134.361L42.0166 151.46C38.9728 153.461 34.0181 153.461 30.9675 151.46Z" fill="#273C7F"/>
<path d="M36.49 148.351C34.8847 148.351 33.2795 147.948 32.0565 147.149L11.7233 133.791C10.5003 132.984 9.82617 131.901 9.82617 130.73C9.82617 129.56 10.5003 128.476 11.7233 127.67L32.0565 114.312C34.5026 112.706 38.4775 112.706 40.9166 114.312L61.2498 127.67C62.4728 128.476 63.1469 129.56 63.1469 130.73C63.1469 131.901 62.4728 132.984 61.2498 133.791L40.9166 147.149C39.7005 147.948 38.0952 148.351 36.49 148.351ZM36.49 113.608C34.9681 113.608 33.4463 113.987 32.2858 114.746L11.9526 128.104C10.8755 128.808 10.2779 129.742 10.2779 130.714C10.2779 131.687 10.8685 132.621 11.9526 133.324L32.2858 146.682C34.6068 148.209 38.3732 148.209 40.6943 146.682L61.0274 133.324C62.1045 132.621 62.6952 131.687 62.6952 130.714C62.6952 129.742 62.1045 128.808 61.0274 128.104L40.6943 114.746C39.5407 113.995 38.0119 113.608 36.49 113.608Z" fill="#273C7F"/>
<path d="M68.0411 134.355L42.0166 151.454C38.9728 153.455 34.0112 153.455 30.9675 151.454L4.94296 134.355C3.58093 133.461 2.83042 132.315 2.68449 131.144C2.50381 132.591 3.25432 134.086 4.94296 135.193L30.9675 152.292C34.0112 154.293 38.9728 154.293 42.0166 152.292L68.0411 135.193C69.7228 134.086 70.4802 132.591 70.2995 131.144C70.1606 132.315 69.4031 133.461 68.0411 134.355Z" fill="#273C7F"/>
<path d="M36.7149 139.712C47.2115 139.712 55.7208 135.254 55.7208 129.755C55.7208 124.256 47.2115 119.798 36.7149 119.798C26.2182 119.798 17.709 124.256 17.709 129.755C17.709 135.254 26.2182 139.712 36.7149 139.712Z" fill="url(#paint0_radial_2198_18585)"/>
<path opacity="0.5" d="M36.7145 136.618C33.0106 136.618 29.536 135.867 26.9301 134.499C24.4423 133.194 23.0664 131.509 23.0664 129.754C23.0664 127.998 24.4354 126.313 26.9301 125.008C29.536 123.64 33.0106 122.889 36.7145 122.889C40.4184 122.889 43.8929 123.64 46.4989 125.008C48.9867 126.313 50.3626 127.998 50.3626 129.754C50.3626 131.509 48.9936 133.194 46.4989 134.499C43.8929 135.867 40.4184 136.618 36.7145 136.618Z" fill="#273C7F"/>
<path opacity="0.5" d="M36.7155 136.088C33.0811 136.088 29.676 135.352 27.1326 134.016C24.8185 132.806 23.5469 131.287 23.5469 129.753C23.5469 128.219 24.8185 126.708 27.1326 125.49C29.676 124.153 33.0811 123.418 36.7224 123.418C40.3568 123.418 43.7619 124.153 46.3053 125.49C48.6194 126.7 49.891 128.219 49.891 129.753C49.891 131.287 48.6194 132.798 46.3053 134.016C43.7619 135.352 40.3568 136.088 36.7155 136.088Z" fill="#273C7F"/>
<path d="M50.1541 136.801C42.7325 140.692 30.6966 140.692 23.2749 136.801C19.432 134.784 17.5836 132.126 17.7156 129.485C17.8407 131.945 19.6891 134.38 23.2749 136.263C30.6966 140.154 42.7325 140.154 50.1541 136.263C53.7329 134.388 55.5884 131.945 55.7134 129.485C55.8524 132.126 53.997 134.784 50.1541 136.801Z" fill="#396FB5"/>
<path d="M55.7134 129.487C55.5884 127.027 53.7329 124.591 50.1541 122.709C42.7325 118.818 30.6966 118.818 23.2749 122.709C19.6891 124.583 17.8407 127.027 17.7156 129.487C17.5836 126.853 19.432 124.188 23.2749 122.171C30.6966 118.28 42.7325 118.28 50.1541 122.171C53.997 124.188 55.8524 126.853 55.7134 129.487Z" fill="#05387A"/>
<path opacity="0.3" d="M36.7151 136.13C44.0071 136.13 49.9184 133.1 49.9184 129.361C49.9184 125.622 44.0071 122.591 36.7151 122.591C29.4231 122.591 23.5117 125.622 23.5117 129.361C23.5117 133.1 29.4231 136.13 36.7151 136.13Z" fill="#273C7F"/>
<path opacity="0.5" d="M36.7148 135.645C33.2472 135.645 30.0019 134.957 27.5628 133.707C25.2348 132.513 23.9492 130.971 23.9492 129.365C23.9492 127.76 25.2348 126.217 27.5628 125.023C30.0019 123.773 33.2541 123.085 36.7148 123.085C40.1824 123.085 43.4277 123.773 45.8668 125.023C48.1948 126.217 49.4803 127.76 49.4803 129.365C49.4803 130.971 48.1948 132.513 45.8668 133.707C43.4346 134.957 40.1824 135.645 36.7148 135.645Z" fill="#273C7F"/>
<path opacity="0.5" d="M36.7164 135.153C33.3114 135.153 30.1287 134.481 27.7451 133.263C25.577 132.156 24.3887 130.764 24.3887 129.364C24.3887 127.964 25.5839 126.572 27.7451 125.465C30.1287 124.247 33.3114 123.575 36.7164 123.575C40.1215 123.575 43.3042 124.247 45.6878 125.465C47.8559 126.572 49.0442 127.964 49.0442 129.364C49.0442 130.772 47.849 132.156 45.6878 133.263C43.3112 134.481 40.1215 135.153 36.7164 135.153Z" fill="#273C7F"/>
<path opacity="0.8" d="M50.3565 104.058C50.3565 104.034 50.3565 104.003 50.3565 103.979C50.3565 101.97 48.8903 100.112 46.2357 98.7434C43.6854 97.4384 40.3011 96.7188 36.7154 96.7188C33.1296 96.7188 29.7454 97.4384 27.1951 98.7434C24.5336 100.104 23.0742 101.962 23.0742 103.979C23.0742 104.003 23.0742 104.034 23.0742 104.058C23.0742 104.082 23.0742 104.114 23.0742 104.137C23.0742 104.161 23.0742 104.193 23.0742 104.216C23.0742 104.24 23.0742 104.272 23.0742 104.295C23.0742 104.319 23.0742 104.351 23.0742 104.374C23.0742 104.398 23.0742 104.43 23.0742 104.454C23.0742 104.477 23.0742 104.509 23.0742 104.533C23.0742 104.556 23.0742 104.588 23.0742 104.612C23.0742 104.635 23.0742 104.667 23.0742 104.691C23.0742 104.715 23.0742 104.746 23.0742 104.77C23.0742 104.794 23.0742 104.825 23.0742 104.849C23.0742 104.873 23.0742 104.904 23.0742 104.928C23.0742 104.952 23.0742 104.983 23.0742 105.007C23.0742 105.031 23.0742 105.063 23.0742 105.086C23.0742 105.11 23.0742 105.142 23.0742 105.165C23.0742 105.189 23.0742 105.221 23.0742 105.244C23.0742 105.268 23.0742 105.3 23.0742 105.324C23.0742 105.347 23.0742 105.379 23.0742 105.403C23.0742 105.426 23.0742 105.458 23.0742 105.482C23.0742 105.505 23.0742 105.537 23.0742 105.561C23.0742 105.584 23.0742 105.616 23.0742 105.64C23.0742 105.664 23.0742 105.695 23.0742 105.719C23.0742 105.743 23.0742 105.774 23.0742 105.798C23.0742 105.822 23.0742 105.853 23.0742 105.877C23.0742 105.901 23.0742 105.932 23.0742 105.956C23.0742 105.98 23.0742 106.012 23.0742 106.035C23.0742 106.059 23.0742 106.091 23.0742 106.114C23.0742 106.138 23.0742 106.17 23.0742 106.194C23.0742 106.217 23.0742 106.249 23.0742 106.273C23.0742 106.296 23.0742 106.328 23.0742 106.352C23.0742 106.375 23.0742 106.407 23.0742 106.431C23.0742 106.455 23.0742 106.486 23.0742 106.51C23.0742 106.534 23.0742 106.565 23.0742 106.589C23.0742 106.613 23.0742 106.644 23.0742 106.668C23.0742 106.692 23.0742 106.723 23.0742 106.747C23.0742 106.771 23.0742 106.803 23.0742 106.826C23.0742 106.85 23.0742 106.882 23.0742 106.905C23.0742 106.929 23.0742 106.961 23.0742 106.984C23.0742 107.008 23.0742 107.04 23.0742 107.063C23.0742 107.087 23.0742 107.119 23.0742 107.143C23.0742 107.166 23.0742 107.198 23.0742 107.222C23.0742 107.245 23.0742 107.277 23.0742 107.301C23.0742 107.324 23.0742 107.356 23.0742 107.38C23.0742 107.404 23.0742 107.435 23.0742 107.459C23.0742 107.483 23.0742 107.514 23.0742 107.538C23.0742 107.562 23.0742 107.593 23.0742 107.617C23.0742 107.641 23.0742 107.672 23.0742 107.696C23.0742 107.72 23.0742 107.752 23.0742 107.775C23.0742 107.799 23.0742 107.831 23.0742 107.854C23.0742 107.878 23.0742 107.91 23.0742 107.933C23.0742 107.957 23.0742 107.989 23.0742 108.013C23.0742 108.036 23.0742 108.068 23.0742 108.092C23.0742 108.115 23.0742 108.147 23.0742 108.171C23.0742 108.194 23.0742 108.226 23.0742 108.25C23.0742 108.274 23.0742 108.305 23.0742 108.329C23.0742 108.353 23.0742 108.384 23.0742 108.408C23.0742 108.432 23.0742 108.463 23.0742 108.487C23.0742 108.511 23.0742 108.542 23.0742 108.566C23.0742 108.59 23.0742 108.622 23.0742 108.645C23.0742 108.669 23.0742 108.701 23.0742 108.724C23.0742 108.748 23.0742 108.78 23.0742 108.803C23.0742 108.827 23.0742 108.859 23.0742 108.883C23.0742 108.906 23.0742 108.938 23.0742 108.962C23.0742 108.985 23.0742 109.017 23.0742 109.041C23.0742 109.064 23.0742 109.096 23.0742 109.12C23.0742 109.143 23.0742 109.175 23.0742 109.199C23.0742 109.223 23.0742 109.254 23.0742 109.278C23.0742 109.302 23.0742 109.333 23.0742 109.357C23.0742 109.381 23.0742 109.412 23.0742 109.436C23.0742 109.46 23.0742 109.491 23.0742 109.515C23.0742 109.539 23.0742 109.571 23.0742 109.594C23.0742 109.618 23.0742 109.65 23.0742 109.673C23.0742 109.697 23.0742 109.729 23.0742 109.752C23.0742 109.776 23.0742 109.808 23.0742 109.832C23.0742 109.855 23.0742 109.887 23.0742 109.911C23.0742 109.934 23.0742 109.966 23.0742 109.99C23.0742 110.014 23.0742 110.045 23.0742 110.069C23.0742 110.093 23.0742 110.124 23.0742 110.148C23.0742 110.172 23.0742 110.203 23.0742 110.227C23.0742 110.251 23.0742 110.282 23.0742 110.306C23.0742 110.33 23.0742 110.362 23.0742 110.385C23.0742 110.409 23.0742 110.441 23.0742 110.464C23.0742 110.488 23.0742 110.52 23.0742 110.543C23.0742 110.567 23.0742 110.599 23.0742 110.622C23.0742 110.646 23.0742 110.678 23.0742 110.702C23.0742 110.725 23.0742 110.757 23.0742 110.781C23.0742 110.804 23.0742 110.836 23.0742 110.86C23.0742 110.883 23.0742 110.915 23.0742 110.939C23.0742 110.963 23.0742 110.994 23.0742 111.018C23.0742 111.042 23.0742 111.073 23.0742 111.097C23.0742 111.121 23.0742 111.152 23.0742 111.176C23.0742 111.2 23.0742 111.231 23.0742 111.255C23.0742 111.279 23.0742 111.311 23.0742 111.334C23.0742 111.358 23.0742 111.39 23.0742 111.413C23.0742 111.437 23.0742 111.469 23.0742 111.492C23.0742 111.516 23.0742 111.548 23.0742 111.572C23.0742 111.595 23.0742 111.627 23.0742 111.651C23.0742 111.674 23.0742 111.706 23.0742 111.73C23.0742 111.753 23.0742 111.785 23.0742 111.809C23.0742 111.832 23.0742 111.864 23.0742 111.888C23.0742 111.912 23.0742 111.943 23.0742 111.967C23.0742 111.991 23.0742 112.022 23.0742 112.046C23.0742 112.07 23.0742 112.101 23.0742 112.125C23.0742 112.149 23.0742 112.18 23.0742 112.204C23.0742 112.228 23.0742 112.26 23.0742 112.283C23.0742 112.307 23.0742 112.339 23.0742 112.362C23.0742 112.386 23.0742 112.418 23.0742 112.442C23.0742 112.465 23.0742 112.497 23.0742 112.521C23.0742 112.544 23.0742 112.576 23.0742 112.6C23.0742 112.623 23.0742 112.655 23.0742 112.679C23.0742 112.702 23.0742 112.734 23.0742 112.758C23.0742 112.782 23.0742 112.813 23.0742 112.837C23.0742 112.861 23.0742 112.892 23.0742 112.916C23.0742 112.94 23.0742 112.971 23.0742 112.995C23.0742 113.019 23.0742 113.05 23.0742 113.074C23.0742 113.098 23.0742 113.13 23.0742 113.153C23.0742 113.177 23.0742 113.209 23.0742 113.232C23.0742 113.256 23.0742 113.288 23.0742 113.311C23.0742 113.335 23.0742 113.367 23.0742 113.391C23.0742 113.414 23.0742 113.446 23.0742 113.47C23.0742 113.493 23.0742 113.525 23.0742 113.549C23.0742 113.572 23.0742 113.604 23.0742 113.628C23.0742 113.652 23.0742 113.683 23.0742 113.707C23.0742 113.731 23.0742 113.762 23.0742 113.786C23.0742 113.81 23.0742 113.841 23.0742 113.865C23.0742 113.889 23.0742 113.92 23.0742 113.944C23.0742 113.968 23.0742 114 23.0742 114.023C23.0742 114.047 23.0742 114.079 23.0742 114.102C23.0742 114.126 23.0742 114.158 23.0742 114.181C23.0742 114.205 23.0742 114.237 23.0742 114.26C23.0742 114.284 23.0742 114.316 23.0742 114.34C23.0742 114.363 23.0742 114.395 23.0742 114.419C23.0742 114.442 23.0742 114.474 23.0742 114.498C23.0742 114.522 23.0742 114.553 23.0742 114.577C23.0742 114.601 23.0742 114.632 23.0742 114.656C23.0742 114.68 23.0742 114.711 23.0742 114.735C23.0742 114.759 23.0742 114.79 23.0742 114.814C23.0742 114.838 23.0742 114.87 23.0742 114.893C23.0742 114.917 23.0742 114.949 23.0742 114.972C23.0742 114.996 23.0742 115.028 23.0742 115.051C23.0742 115.075 23.0742 115.107 23.0742 115.131C23.0742 115.154 23.0742 115.186 23.0742 115.21C23.0742 115.233 23.0742 115.265 23.0742 115.289C23.0742 115.312 23.0742 115.344 23.0742 115.368C23.0742 115.391 23.0742 115.423 23.0742 115.447C23.0742 115.471 23.0742 115.502 23.0742 115.526C23.0742 115.55 23.0742 115.581 23.0742 115.605C23.0742 115.629 23.0742 115.66 23.0742 115.684C23.0742 115.708 23.0742 115.739 23.0742 115.763C23.0742 115.787 23.0742 115.819 23.0742 115.842C23.0742 115.866 23.0742 115.898 23.0742 115.921C23.0742 115.945 23.0742 115.977 23.0742 116C23.0742 116.024 23.0742 116.056 23.0742 116.08C23.0742 116.103 23.0742 116.135 23.0742 116.159C23.0742 116.182 23.0742 116.214 23.0742 116.238C23.0742 116.261 23.0742 116.293 23.0742 116.317C23.0742 116.341 23.0742 116.372 23.0742 116.396C23.0742 116.42 23.0742 116.451 23.0742 116.475C23.0742 116.499 23.0742 116.53 23.0742 116.554C23.0742 116.578 23.0742 116.609 23.0742 116.633C23.0742 116.657 23.0742 116.689 23.0742 116.712C23.0742 116.736 23.0742 116.768 23.0742 116.791C23.0742 116.815 23.0742 116.847 23.0742 116.87C23.0742 116.894 23.0742 116.926 23.0742 116.95C23.0742 116.973 23.0742 117.005 23.0742 117.029C23.0742 117.052 23.0742 117.084 23.0742 117.108C23.0742 117.131 23.0742 117.163 23.0742 117.187C23.0742 117.211 23.0742 117.242 23.0742 117.266C23.0742 117.29 23.0742 117.321 23.0742 117.345C23.0742 117.369 23.0742 117.4 23.0742 117.424C23.0742 117.448 23.0742 117.479 23.0742 117.503C23.0742 117.527 23.0742 117.559 23.0742 117.582C23.0742 117.606 23.0742 117.638 23.0742 117.661C23.0742 117.685 23.0742 117.717 23.0742 117.74C23.0742 117.764 23.0742 117.796 23.0742 117.819C23.0742 117.843 23.0742 117.875 23.0742 117.899C23.0742 117.922 23.0742 117.954 23.0742 117.978C23.0742 118.001 23.0742 118.033 23.0742 118.057C23.0742 118.08 23.0742 118.112 23.0742 118.136C23.0742 118.16 23.0742 118.191 23.0742 118.215C23.0742 118.239 23.0742 118.27 23.0742 118.294C23.0742 118.318 23.0742 118.349 23.0742 118.373C23.0742 118.397 23.0742 118.428 23.0742 118.452C23.0742 118.476 23.0742 118.508 23.0742 118.531C23.0742 118.555 23.0742 118.587 23.0742 118.61C23.0742 118.634 23.0742 118.666 23.0742 118.69C23.0742 118.713 23.0742 118.745 23.0742 118.769C23.0742 118.792 23.0742 118.824 23.0742 118.848C23.0742 118.871 23.0742 118.903 23.0742 118.927C23.0742 118.95 23.0742 118.982 23.0742 119.006C23.0742 119.03 23.0742 119.061 23.0742 119.085C23.0742 119.109 23.0742 119.14 23.0742 119.164C23.0742 119.188 23.0742 119.219 23.0742 119.243C23.0742 119.267 23.0742 119.298 23.0742 119.322C23.0742 119.346 23.0742 119.377 23.0742 119.401C23.0742 119.425 23.0742 119.457 23.0742 119.48C23.0742 119.504 23.0742 119.536 23.0742 119.559C23.0742 119.583 23.0742 119.615 23.0742 119.639C23.0742 119.662 23.0742 119.694 23.0742 119.718C23.0742 119.741 23.0742 119.773 23.0742 119.797C23.0742 119.82 23.0742 119.852 23.0742 119.876C23.0742 119.9 23.0742 119.931 23.0742 119.955C23.0742 119.979 23.0742 120.01 23.0742 120.034C23.0742 120.058 23.0742 120.089 23.0742 120.113C23.0742 120.137 23.0742 120.168 23.0742 120.192C23.0742 120.216 23.0742 120.248 23.0742 120.271C23.0742 120.295 23.0742 120.327 23.0742 120.35C23.0742 120.374 23.0742 120.406 23.0742 120.429C23.0742 120.453 23.0742 120.485 23.0742 120.508C23.0742 120.532 23.0742 120.564 23.0742 120.588C23.0742 120.611 23.0742 120.643 23.0742 120.667C23.0742 120.69 23.0742 120.722 23.0742 120.746C23.0742 120.77 23.0742 120.801 23.0742 120.825C23.0742 120.849 23.0742 120.88 23.0742 120.904C23.0742 120.928 23.0742 120.959 23.0742 120.983C23.0742 121.007 23.0742 121.038 23.0742 121.062C23.0742 121.086 23.0742 121.118 23.0742 121.141C23.0742 121.165 23.0742 121.197 23.0742 121.22C23.0742 121.244 23.0742 121.276 23.0742 121.299C23.0742 121.323 23.0742 121.355 23.0742 121.378C23.0742 121.402 23.0742 121.434 23.0742 121.458C23.0742 121.481 23.0742 121.513 23.0742 121.537C23.0742 121.56 23.0742 121.592 23.0742 121.616C23.0742 121.639 23.0742 121.671 23.0742 121.695C23.0742 121.719 23.0742 121.75 23.0742 121.774C23.0742 121.798 23.0742 121.829 23.0742 121.853C23.0742 121.877 23.0742 121.908 23.0742 121.932C23.0742 121.956 23.0742 121.987 23.0742 122.011C23.0742 122.035 23.0742 122.067 23.0742 122.09C23.0742 122.114 23.0742 122.146 23.0742 122.169C23.0742 122.193 23.0742 122.225 23.0742 122.248C23.0742 122.272 23.0742 122.304 23.0742 122.328C23.0742 122.351 23.0742 122.383 23.0742 122.407C23.0742 122.43 23.0742 122.462 23.0742 122.486C23.0742 122.509 23.0742 122.541 23.0742 122.565C23.0742 122.588 23.0742 122.62 23.0742 122.644C23.0742 122.668 23.0742 122.699 23.0742 122.723C23.0742 122.747 23.0742 122.778 23.0742 122.802C23.0742 122.826 23.0742 122.857 23.0742 122.881C23.0742 122.905 23.0742 122.936 23.0742 122.96C23.0742 122.984 23.0742 123.016 23.0742 123.039C23.0742 123.063 23.0742 123.095 23.0742 123.118C23.0742 123.142 23.0742 123.174 23.0742 123.198C23.0742 123.221 23.0742 123.253 23.0742 123.277C23.0742 123.3 23.0742 123.332 23.0742 123.356C23.0742 123.379 23.0742 123.411 23.0742 123.435C23.0742 123.459 23.0742 123.49 23.0742 123.514C23.0742 123.538 23.0742 123.569 23.0742 123.593C23.0742 123.617 23.0742 123.648 23.0742 123.672C23.0742 123.696 23.0742 123.727 23.0742 123.751C23.0742 123.775 23.0742 123.807 23.0742 123.83C23.0742 123.854 23.0742 123.886 23.0742 123.909C23.0742 123.933 23.0742 123.965 23.0742 123.988C23.0742 124.012 23.0742 124.044 23.0742 124.067C23.0742 124.091 23.0742 124.123 23.0742 124.147C23.0742 124.17 23.0742 124.202 23.0742 124.226C23.0742 124.249 23.0742 124.281 23.0742 124.305C23.0742 124.328 23.0742 124.36 23.0742 124.384C23.0742 124.408 23.0742 124.439 23.0742 124.463C23.0742 124.487 23.0742 124.518 23.0742 124.542C23.0742 124.566 23.0742 124.597 23.0742 124.621C23.0742 124.645 23.0742 124.676 23.0742 124.7C23.0742 124.724 23.0742 124.756 23.0742 124.779C23.0742 124.803 23.0742 124.835 23.0742 124.858C23.0742 124.882 23.0742 124.914 23.0742 124.937C23.0742 124.961 23.0742 124.993 23.0742 125.017C23.0742 125.04 23.0742 125.072 23.0742 125.096C23.0742 125.119 23.0742 125.151 23.0742 125.175C23.0742 125.198 23.0742 125.23 23.0742 125.254C23.0742 125.278 23.0742 125.309 23.0742 125.333C23.0742 125.357 23.0742 125.388 23.0742 125.412C23.0742 125.436 23.0742 125.467 23.0742 125.491C23.0742 125.515 23.0742 125.546 23.0742 125.57C23.0742 125.594 23.0742 125.625 23.0742 125.649C23.0742 125.673 23.0742 125.705 23.0742 125.728C23.0742 125.752 23.0742 125.784 23.0742 125.807C23.0742 125.831 23.0742 125.863 23.0742 125.887C23.0742 125.91 23.0742 125.942 23.0742 125.966C23.0742 125.989 23.0742 126.021 23.0742 126.045C23.0742 126.068 23.0742 126.1 23.0742 126.124C23.0742 126.147 23.0742 126.179 23.0742 126.203C23.0742 126.227 23.0742 126.258 23.0742 126.282C23.0742 126.306 23.0742 126.337 23.0742 126.361C23.0742 126.385 23.0742 126.416 23.0742 126.44C23.0742 126.464 23.0742 126.495 23.0742 126.519C23.0742 126.543 23.0742 126.575 23.0742 126.598C23.0742 126.622 23.0742 126.654 23.0742 126.677C23.0742 126.701 23.0742 126.733 23.0742 126.756C23.0742 126.78 23.0742 126.812 23.0742 126.836C23.0742 126.859 23.0742 126.891 23.0742 126.915C23.0742 126.938 23.0742 126.97 23.0742 126.994C23.0742 127.018 23.0742 127.049 23.0742 127.073C23.0742 127.097 23.0742 127.128 23.0742 127.152C23.0742 127.176 23.0742 127.207 23.0742 127.231C23.0742 127.255 23.0742 127.286 23.0742 127.31C23.0742 127.334 23.0742 127.365 23.0742 127.389C23.0742 127.413 23.0742 127.445 23.0742 127.468C23.0742 127.492 23.0742 127.524 23.0742 127.547C23.0742 127.571 23.0742 127.603 23.0742 127.626C23.0742 127.65 23.0742 127.682 23.0742 127.705C23.0742 127.729 23.0742 127.761 23.0742 127.785C23.0742 127.808 23.0742 127.84 23.0742 127.864C23.0742 127.887 23.0742 127.919 23.0742 127.943C23.0742 127.967 23.0742 127.998 23.0742 128.022C23.0742 128.046 23.0742 128.077 23.0742 128.101C23.0742 128.125 23.0742 128.156 23.0742 128.18C23.0742 128.204 23.0742 128.235 23.0742 128.259C23.0742 128.283 23.0742 128.315 23.0742 128.338C23.0742 128.362 23.0742 128.394 23.0742 128.417C23.0742 128.441 23.0742 128.473 23.0742 128.496C23.0742 128.52 23.0742 128.552 23.0742 128.576C23.0742 128.599 23.0742 128.631 23.0742 128.655C23.0742 130.663 24.5405 132.522 27.1951 133.89C29.7454 135.195 33.1296 135.915 36.7154 135.915C40.3011 135.915 43.6854 135.195 46.2357 133.89C48.8972 132.53 50.3565 130.671 50.3565 128.655C50.3565 128.631 50.3565 128.599 50.3565 128.576C50.3565 128.552 50.3565 128.52 50.3565 128.496C50.3565 128.473 50.3565 128.441 50.3565 128.417C50.3565 128.394 50.3565 128.362 50.3565 128.338C50.3565 128.315 50.3565 128.283 50.3565 128.259C50.3565 128.235 50.3565 128.204 50.3565 128.18C50.3565 128.156 50.3565 128.125 50.3565 128.101C50.3565 128.077 50.3565 128.046 50.3565 128.022C50.3565 127.998 50.3565 127.967 50.3565 127.943C50.3565 127.919 50.3565 127.887 50.3565 127.864C50.3565 127.84 50.3565 127.808 50.3565 127.785C50.3565 127.761 50.3565 127.729 50.3565 127.705C50.3565 127.682 50.3565 127.65 50.3565 127.626C50.3565 127.603 50.3565 127.571 50.3565 127.547C50.3565 127.524 50.3565 127.492 50.3565 127.468C50.3565 127.445 50.3565 127.413 50.3565 127.389C50.3565 127.365 50.3565 127.334 50.3565 127.31C50.3565 127.286 50.3565 127.255 50.3565 127.231C50.3565 127.207 50.3565 127.176 50.3565 127.152C50.3565 127.128 50.3565 127.097 50.3565 127.073C50.3565 127.049 50.3565 127.018 50.3565 126.994C50.3565 126.97 50.3565 126.938 50.3565 126.915C50.3565 126.891 50.3565 126.859 50.3565 126.836C50.3565 126.812 50.3565 126.78 50.3565 126.756C50.3565 126.733 50.3565 126.701 50.3565 126.677C50.3565 126.654 50.3565 126.622 50.3565 126.598C50.3565 126.575 50.3565 126.543 50.3565 126.519C50.3565 126.495 50.3565 126.464 50.3565 126.44C50.3565 126.416 50.3565 126.385 50.3565 126.361C50.3565 126.337 50.3565 126.306 50.3565 126.282C50.3565 126.258 50.3565 126.227 50.3565 126.203C50.3565 126.179 50.3565 126.147 50.3565 126.124C50.3565 126.1 50.3565 126.068 50.3565 126.045C50.3565 126.021 50.3565 125.989 50.3565 125.966C50.3565 125.942 50.3565 125.91 50.3565 125.887C50.3565 125.863 50.3565 125.831 50.3565 125.807C50.3565 125.784 50.3565 125.752 50.3565 125.728C50.3565 125.705 50.3565 125.673 50.3565 125.649C50.3565 125.625 50.3565 125.594 50.3565 125.57C50.3565 125.546 50.3565 125.515 50.3565 125.491C50.3565 125.467 50.3565 125.436 50.3565 125.412C50.3565 125.388 50.3565 125.357 50.3565 125.333C50.3565 125.309 50.3565 125.278 50.3565 125.254C50.3565 125.23 50.3565 125.198 50.3565 125.175C50.3565 125.151 50.3565 125.119 50.3565 125.096C50.3565 125.072 50.3565 125.04 50.3565 125.017C50.3565 124.993 50.3565 124.961 50.3565 124.937C50.3565 124.914 50.3565 124.882 50.3565 124.858C50.3565 124.835 50.3565 124.803 50.3565 124.779C50.3565 124.756 50.3565 124.724 50.3565 124.7C50.3565 124.676 50.3565 124.645 50.3565 124.621C50.3565 124.597 50.3565 124.566 50.3565 124.542C50.3565 124.518 50.3565 124.487 50.3565 124.463C50.3565 124.439 50.3565 124.408 50.3565 124.384C50.3565 124.36 50.3565 124.328 50.3565 124.305C50.3565 124.281 50.3565 124.249 50.3565 124.226C50.3565 124.202 50.3565 124.17 50.3565 124.147C50.3565 124.123 50.3565 124.091 50.3565 124.067C50.3565 124.044 50.3565 124.012 50.3565 123.988C50.3565 123.965 50.3565 123.933 50.3565 123.909C50.3565 123.886 50.3565 123.854 50.3565 123.83C50.3565 123.807 50.3565 123.775 50.3565 123.751C50.3565 123.727 50.3565 123.696 50.3565 123.672C50.3565 123.648 50.3565 123.617 50.3565 123.593C50.3565 123.569 50.3565 123.538 50.3565 123.514C50.3565 123.49 50.3565 123.459 50.3565 123.435C50.3565 123.411 50.3565 123.379 50.3565 123.356C50.3565 123.332 50.3565 123.3 50.3565 123.277C50.3565 123.253 50.3565 123.221 50.3565 123.198C50.3565 123.174 50.3565 123.142 50.3565 123.118C50.3565 123.095 50.3565 123.063 50.3565 123.039C50.3565 123.016 50.3565 122.984 50.3565 122.96C50.3565 122.936 50.3565 122.905 50.3565 122.881C50.3565 122.857 50.3565 122.826 50.3565 122.802C50.3565 122.778 50.3565 122.747 50.3565 122.723C50.3565 122.699 50.3565 122.668 50.3565 122.644C50.3565 122.62 50.3565 122.588 50.3565 122.565C50.3565 122.541 50.3565 122.509 50.3565 122.486C50.3565 122.462 50.3565 122.43 50.3565 122.407C50.3565 122.383 50.3565 122.351 50.3565 122.328C50.3565 122.304 50.3565 122.272 50.3565 122.248C50.3565 122.225 50.3565 122.193 50.3565 122.169C50.3565 122.146 50.3565 122.114 50.3565 122.09C50.3565 122.067 50.3565 122.035 50.3565 122.011C50.3565 121.987 50.3565 121.956 50.3565 121.932C50.3565 121.908 50.3565 121.877 50.3565 121.853C50.3565 121.829 50.3565 121.798 50.3565 121.774C50.3565 121.75 50.3565 121.719 50.3565 121.695C50.3565 121.671 50.3565 121.639 50.3565 121.616C50.3565 121.592 50.3565 121.56 50.3565 121.537C50.3565 121.513 50.3565 121.481 50.3565 121.458C50.3565 121.434 50.3565 121.402 50.3565 121.378C50.3565 121.355 50.3565 121.323 50.3565 121.299C50.3565 121.276 50.3565 121.244 50.3565 121.22C50.3565 121.197 50.3565 121.165 50.3565 121.141C50.3565 121.118 50.3565 121.086 50.3565 121.062C50.3565 121.038 50.3565 121.007 50.3565 120.983C50.3565 120.959 50.3565 120.928 50.3565 120.904C50.3565 120.88 50.3565 120.849 50.3565 120.825C50.3565 120.801 50.3565 120.77 50.3565 120.746C50.3565 120.722 50.3565 120.69 50.3565 120.667C50.3565 120.643 50.3565 120.611 50.3565 120.588C50.3565 120.564 50.3565 120.532 50.3565 120.508C50.3565 120.485 50.3565 120.453 50.3565 120.429C50.3565 120.406 50.3565 120.374 50.3565 120.35C50.3565 120.327 50.3565 120.295 50.3565 120.271C50.3565 120.248 50.3565 120.216 50.3565 120.192C50.3565 120.168 50.3565 120.137 50.3565 120.113C50.3565 120.089 50.3565 120.058 50.3565 120.034C50.3565 120.01 50.3565 119.979 50.3565 119.955C50.3565 119.931 50.3565 119.9 50.3565 119.876C50.3565 119.852 50.3565 119.82 50.3565 119.797C50.3565 119.773 50.3565 119.741 50.3565 119.718C50.3565 119.694 50.3565 119.662 50.3565 119.639C50.3565 119.615 50.3565 119.583 50.3565 119.559C50.3565 119.536 50.3565 119.504 50.3565 119.48C50.3565 119.457 50.3565 119.425 50.3565 119.401C50.3565 119.377 50.3565 119.346 50.3565 119.322C50.3565 119.298 50.3565 119.267 50.3565 119.243C50.3565 119.219 50.3565 119.188 50.3565 119.164C50.3565 119.14 50.3565 119.109 50.3565 119.085C50.3565 119.061 50.3565 119.03 50.3565 119.006C50.3565 118.982 50.3565 118.95 50.3565 118.927C50.3565 118.903 50.3565 118.871 50.3565 118.848C50.3565 118.824 50.3565 118.792 50.3565 118.769C50.3565 118.745 50.3565 118.713 50.3565 118.69C50.3565 118.666 50.3565 118.634 50.3565 118.61C50.3565 118.587 50.3565 118.555 50.3565 118.531C50.3565 118.508 50.3565 118.476 50.3565 118.452C50.3565 118.428 50.3565 118.397 50.3565 118.373C50.3565 118.349 50.3565 118.318 50.3565 118.294C50.3565 118.27 50.3565 118.239 50.3565 118.215C50.3565 118.191 50.3565 118.16 50.3565 118.136C50.3565 118.112 50.3565 118.08 50.3565 118.057C50.3565 118.033 50.3565 118.001 50.3565 117.978C50.3565 117.954 50.3565 117.922 50.3565 117.899C50.3565 117.875 50.3565 117.843 50.3565 117.819C50.3565 117.796 50.3565 117.764 50.3565 117.74C50.3565 117.717 50.3565 117.685 50.3565 117.661C50.3565 117.638 50.3565 117.606 50.3565 117.582C50.3565 117.559 50.3565 117.527 50.3565 117.503C50.3565 117.479 50.3565 117.448 50.3565 117.424C50.3565 117.4 50.3565 117.369 50.3565 117.345C50.3565 117.321 50.3565 117.29 50.3565 117.266C50.3565 117.242 50.3565 117.211 50.3565 117.187C50.3565 117.163 50.3565 117.131 50.3565 117.108C50.3565 117.084 50.3565 117.052 50.3565 117.029C50.3565 117.005 50.3565 116.973 50.3565 116.95C50.3565 116.926 50.3565 116.894 50.3565 116.87C50.3565 116.847 50.3565 116.815 50.3565 116.791C50.3565 116.768 50.3565 116.736 50.3565 116.712C50.3565 116.689 50.3565 116.657 50.3565 116.633C50.3565 116.609 50.3565 116.578 50.3565 116.554C50.3565 116.53 50.3565 116.499 50.3565 116.475C50.3565 116.451 50.3565 116.42 50.3565 116.396C50.3565 116.372 50.3565 116.341 50.3565 116.317C50.3565 116.293 50.3565 116.261 50.3565 116.238C50.3565 116.214 50.3565 116.182 50.3565 116.159C50.3565 116.135 50.3565 116.103 50.3565 116.08C50.3565 116.056 50.3565 116.024 50.3565 116C50.3565 115.977 50.3565 115.945 50.3565 115.921C50.3565 115.898 50.3565 115.866 50.3565 115.842C50.3565 115.819 50.3565 115.787 50.3565 115.763C50.3565 115.739 50.3565 115.708 50.3565 115.684C50.3565 115.66 50.3565 115.629 50.3565 115.605C50.3565 115.581 50.3565 115.55 50.3565 115.526C50.3565 115.502 50.3565 115.471 50.3565 115.447C50.3565 115.423 50.3565 115.391 50.3565 115.368C50.3565 115.344 50.3565 115.312 50.3565 115.289C50.3565 115.265 50.3565 115.233 50.3565 115.21C50.3565 115.186 50.3565 115.154 50.3565 115.131C50.3565 115.107 50.3565 115.075 50.3565 115.051C50.3565 115.028 50.3565 114.996 50.3565 114.972C50.3565 114.949 50.3565 114.917 50.3565 114.893C50.3565 114.87 50.3565 114.838 50.3565 114.814C50.3565 114.79 50.3565 114.759 50.3565 114.735C50.3565 114.711 50.3565 114.68 50.3565 114.656C50.3565 114.632 50.3565 114.601 50.3565 114.577C50.3565 114.553 50.3565 114.522 50.3565 114.498C50.3565 114.474 50.3565 114.442 50.3565 114.419C50.3565 114.395 50.3565 114.363 50.3565 114.34C50.3565 114.316 50.3565 114.284 50.3565 114.26C50.3565 114.237 50.3565 114.205 50.3565 114.181C50.3565 114.158 50.3565 114.126 50.3565 114.102C50.3565 114.079 50.3565 114.047 50.3565 114.023C50.3565 114 50.3565 113.968 50.3565 113.944C50.3565 113.92 50.3565 113.889 50.3565 113.865C50.3565 113.841 50.3565 113.81 50.3565 113.786C50.3565 113.762 50.3565 113.731 50.3565 113.707C50.3565 113.683 50.3565 113.652 50.3565 113.628C50.3565 113.604 50.3565 113.572 50.3565 113.549C50.3565 113.525 50.3565 113.493 50.3565 113.47C50.3565 113.446 50.3565 113.414 50.3565 113.391C50.3565 113.367 50.3565 113.335 50.3565 113.311C50.3565 113.288 50.3565 113.256 50.3565 113.232C50.3565 113.209 50.3565 113.177 50.3565 113.153C50.3565 113.13 50.3565 113.098 50.3565 113.074C50.3565 113.05 50.3565 113.019 50.3565 112.995C50.3565 112.971 50.3565 112.94 50.3565 112.916C50.3565 112.892 50.3565 112.861 50.3565 112.837C50.3565 112.813 50.3565 112.782 50.3565 112.758C50.3565 112.734 50.3565 112.702 50.3565 112.679C50.3565 112.655 50.3565 112.623 50.3565 112.6C50.3565 112.576 50.3565 112.544 50.3565 112.521C50.3565 112.497 50.3565 112.465 50.3565 112.442C50.3565 112.418 50.3565 112.386 50.3565 112.362C50.3565 112.339 50.3565 112.307 50.3565 112.283C50.3565 112.26 50.3565 112.228 50.3565 112.204C50.3565 112.18 50.3565 112.149 50.3565 112.125C50.3565 112.101 50.3565 112.07 50.3565 112.046C50.3565 112.022 50.3565 111.991 50.3565 111.967C50.3565 111.943 50.3565 111.912 50.3565 111.888C50.3565 111.864 50.3565 111.832 50.3565 111.809C50.3565 111.785 50.3565 111.753 50.3565 111.73C50.3565 111.706 50.3565 111.674 50.3565 111.651C50.3565 111.627 50.3565 111.595 50.3565 111.572C50.3565 111.548 50.3565 111.516 50.3565 111.492C50.3565 111.469 50.3565 111.437 50.3565 111.413C50.3565 111.39 50.3565 111.358 50.3565 111.334C50.3565 111.311 50.3565 111.279 50.3565 111.255C50.3565 111.231 50.3565 111.2 50.3565 111.176C50.3565 111.152 50.3565 111.121 50.3565 111.097C50.3565 111.073 50.3565 111.042 50.3565 111.018C50.3565 110.994 50.3565 110.963 50.3565 110.939C50.3565 110.915 50.3565 110.883 50.3565 110.86C50.3565 110.836 50.3565 110.804 50.3565 110.781C50.3565 110.757 50.3565 110.725 50.3565 110.702C50.3565 110.678 50.3565 110.646 50.3565 110.622C50.3565 110.599 50.3565 110.567 50.3565 110.543C50.3565 110.52 50.3565 110.488 50.3565 110.464C50.3565 110.441 50.3565 110.409 50.3565 110.385C50.3565 110.362 50.3565 110.33 50.3565 110.306C50.3565 110.282 50.3565 110.251 50.3565 110.227C50.3565 110.203 50.3565 110.172 50.3565 110.148C50.3565 110.124 50.3565 110.093 50.3565 110.069C50.3565 110.045 50.3565 110.014 50.3565 109.99C50.3565 109.966 50.3565 109.934 50.3565 109.911C50.3565 109.887 50.3565 109.855 50.3565 109.832C50.3565 109.808 50.3565 109.776 50.3565 109.752C50.3565 109.729 50.3565 109.697 50.3565 109.673C50.3565 109.65 50.3565 109.618 50.3565 109.594C50.3565 109.571 50.3565 109.539 50.3565 109.515C50.3565 109.491 50.3565 109.46 50.3565 109.436C50.3565 109.412 50.3565 109.381 50.3565 109.357C50.3565 109.333 50.3565 109.302 50.3565 109.278C50.3565 109.254 50.3565 109.223 50.3565 109.199C50.3565 109.175 50.3565 109.143 50.3565 109.12C50.3565 109.096 50.3565 109.064 50.3565 109.041C50.3565 109.017 50.3565 108.985 50.3565 108.962C50.3565 108.938 50.3565 108.906 50.3565 108.883C50.3565 108.859 50.3565 108.827 50.3565 108.803C50.3565 108.78 50.3565 108.748 50.3565 108.724C50.3565 108.701 50.3565 108.669 50.3565 108.645C50.3565 108.622 50.3565 108.59 50.3565 108.566C50.3565 108.542 50.3565 108.511 50.3565 108.487C50.3565 108.463 50.3565 108.432 50.3565 108.408C50.3565 108.384 50.3565 108.353 50.3565 108.329C50.3565 108.305 50.3565 108.274 50.3565 108.25C50.3565 108.226 50.3565 108.194 50.3565 108.171C50.3565 108.147 50.3565 108.115 50.3565 108.092C50.3565 108.068 50.3565 108.036 50.3565 108.013C50.3565 107.989 50.3565 107.957 50.3565 107.933C50.3565 107.91 50.3565 107.878 50.3565 107.854C50.3565 107.831 50.3565 107.799 50.3565 107.775C50.3565 107.752 50.3565 107.72 50.3565 107.696C50.3565 107.672 50.3565 107.641 50.3565 107.617C50.3565 107.593 50.3565 107.562 50.3565 107.538C50.3565 107.514 50.3565 107.483 50.3565 107.459C50.3565 107.435 50.3565 107.404 50.3565 107.38C50.3565 107.356 50.3565 107.324 50.3565 107.301C50.3565 107.277 50.3565 107.245 50.3565 107.222C50.3565 107.198 50.3565 107.166 50.3565 107.143C50.3565 107.119 50.3565 107.087 50.3565 107.063C50.3565 107.04 50.3565 107.008 50.3565 106.984C50.3565 106.961 50.3565 106.929 50.3565 106.905C50.3565 106.882 50.3565 106.85 50.3565 106.826C50.3565 106.803 50.3565 106.771 50.3565 106.747C50.3565 106.723 50.3565 106.692 50.3565 106.668C50.3565 106.644 50.3565 106.613 50.3565 106.589C50.3565 106.565 50.3565 106.534 50.3565 106.51C50.3565 106.486 50.3565 106.455 50.3565 106.431C50.3565 106.407 50.3565 106.375 50.3565 106.352C50.3565 106.328 50.3565 106.296 50.3565 106.273C50.3565 106.249 50.3565 106.217 50.3565 106.194C50.3565 106.17 50.3565 106.138 50.3565 106.114C50.3565 106.091 50.3565 106.059 50.3565 106.035C50.3565 106.012 50.3565 105.98 50.3565 105.956C50.3565 105.932 50.3565 105.901 50.3565 105.877C50.3565 105.853 50.3565 105.822 50.3565 105.798C50.3565 105.774 50.3565 105.743 50.3565 105.719C50.3565 105.695 50.3565 105.664 50.3565 105.64C50.3565 105.616 50.3565 105.584 50.3565 105.561C50.3565 105.537 50.3565 105.505 50.3565 105.482C50.3565 105.458 50.3565 105.426 50.3565 105.403C50.3565 105.379 50.3565 105.347 50.3565 105.324C50.3565 105.3 50.3565 105.268 50.3565 105.244C50.3565 105.221 50.3565 105.189 50.3565 105.165C50.3565 105.142 50.3565 105.11 50.3565 105.086C50.3565 105.063 50.3565 105.031 50.3565 105.007C50.3565 104.983 50.3565 104.952 50.3565 104.928C50.3565 104.904 50.3565 104.873 50.3565 104.849C50.3565 104.825 50.3565 104.794 50.3565 104.77C50.3565 104.746 50.3565 104.715 50.3565 104.691C50.3565 104.667 50.3565 104.635 50.3565 104.612C50.3565 104.588 50.3565 104.556 50.3565 104.533C50.3565 104.509 50.3565 104.477 50.3565 104.454C50.3565 104.43 50.3565 104.398 50.3565 104.374C50.3565 104.351 50.3565 104.319 50.3565 104.295C50.3565 104.272 50.3565 104.24 50.3565 104.216C50.3565 104.193 50.3565 104.161 50.3565 104.137C50.3565 104.114 50.3635 104.082 50.3565 104.058Z" fill="url(#paint1_linear_2198_18585)"/>
<path opacity="0.3" d="M26.2917 124.639C24.2069 125.936 23.0742 127.589 23.0742 129.36V97.804L26.2917 124.639Z" fill="url(#paint2_linear_2198_18585)"/>
<path opacity="0.8" d="M39.3203 109.67C41.5232 109.465 43.5732 108.974 45.3313 108.239V133.626C43.5801 134.362 41.5232 134.844 39.3203 135.058V109.67Z" fill="url(#paint3_linear_2198_18585)"/>
<path opacity="0.8" d="M31.0296 118.659V134.438C30.3346 134.271 29.6675 134.074 29.0352 133.836V118.058C29.6675 118.296 30.3346 118.493 31.0296 118.659Z" fill="url(#paint4_linear_2198_18585)"/>
<path opacity="0.5" d="M30.2511 109.137L30.0218 114.389C30.0148 114.555 30.133 114.697 30.2858 114.697C30.4387 114.697 30.5569 114.555 30.5499 114.389L30.2511 109.137Z" fill="url(#paint5_linear_2198_18585)"/>
<path opacity="0.5" d="M24.6168 111.494L24.4222 115.962C24.4153 116.105 24.5195 116.223 24.6446 116.223C24.7766 116.223 24.8739 116.105 24.867 115.962L24.6168 111.494Z" fill="url(#paint6_linear_2198_18585)"/>
<path opacity="0.5" d="M36.6949 114.71L36.5003 119.178C36.4934 119.321 36.5976 119.439 36.7227 119.439C36.8547 119.439 36.952 119.321 36.9451 119.178L36.6949 114.71Z" fill="url(#paint7_linear_2198_18585)"/>
<path opacity="0.5" d="M33.7279 112.8L33.2623 123.295C33.2484 123.627 33.4847 123.904 33.7835 123.904C34.0823 123.904 34.3255 123.619 34.3047 123.287L33.7279 112.8Z" fill="url(#paint8_linear_2198_18585)"/>
<path opacity="0.5" d="M43.1849 117.542L42.7193 128.037C42.7054 128.369 42.9417 128.646 43.2405 128.646C43.5463 128.646 43.7826 128.362 43.7617 128.029L43.1849 117.542Z" fill="url(#paint9_linear_2198_18585)"/>
<path opacity="0.5" d="M47.2502 117.976L47.0139 123.385C47.007 123.559 47.1321 123.702 47.285 123.702C47.4379 123.702 47.563 123.552 47.556 123.385L47.2502 117.976Z" fill="url(#paint10_linear_2198_18585)"/>
<path opacity="0.5" d="M37.355 120.423L37.0144 128.142C37.0005 128.387 37.1812 128.593 37.3967 128.593C37.619 128.593 37.7928 128.387 37.7789 128.134L37.355 120.423Z" fill="url(#paint11_linear_2198_18585)"/>
<path opacity="0.5" d="M30.1418 127.317L29.975 131.177C29.968 131.295 30.0584 131.398 30.1695 131.398C30.2807 131.398 30.3711 131.295 30.3641 131.169L30.1418 127.317Z" fill="url(#paint12_linear_2198_18585)"/>
<path d="M33.7902 102.771L33.2412 102.154C-5.53499 58.6871 0.28146 3.92638 0.344002 3.38067L0.621942 0.992188L2.49822 3.04846C21.1358 23.4533 31.9764 10.1902 32.4281 9.61283L33.7971 7.8808L35.1591 11.4081C35.6108 12.5786 46.4584 40.0935 65.0891 44.1665L66.9653 44.5778L67.2433 47.3301C67.3058 47.9628 73.1223 110.363 34.3461 102.874L33.7902 102.771Z" fill="#273C7F"/>
<path d="M25.4008 68.7367C25.0116 68.4757 24.6364 68.0011 24.3931 67.4396L18.9172 55.1018C18.4725 54.0737 18.5628 53.0613 19.1187 52.832C19.6747 52.6105 20.4877 53.2591 20.9325 54.2872L25.4077 64.2998L42.0857 47.5489C42.5304 47.106 43.3434 47.5172 43.8994 48.4742C44.4553 49.4312 44.5456 50.5621 44.0939 51.005L26.4084 68.7604C26.1652 68.9977 25.7899 68.9898 25.4008 68.7367Z" fill="white"/>
<defs>
<radialGradient id="paint0_radial_2198_18585" cx="0" cy="0" r="1" gradientUnits="userSpaceOnUse" gradientTransform="translate(36.8361 129.356) scale(18.6836 9.86857)">
<stop stop-color="#39F0CF"/>
<stop offset="0.1389" stop-color="#37EBCE"/>
<stop offset="0.3045" stop-color="#31DCCA"/>
<stop offset="0.4837" stop-color="#27C4C5"/>
<stop offset="0.6725" stop-color="#1AA3BD"/>
<stop offset="0.867" stop-color="#0978B3"/>
<stop offset="0.9523" stop-color="#0063AE"/>
</radialGradient>
<linearGradient id="paint1_linear_2198_18585" x1="36.8124" y1="96.4282" x2="36.5743" y2="136.173" gradientUnits="userSpaceOnUse">
<stop stop-color="#231F20"/>
<stop offset="0.0255" stop-color="#312D2E"/>
<stop offset="0.1218" stop-color="#615E5F"/>
<stop offset="0.2233" stop-color="#8B898A"/>
<stop offset="0.3284" stop-color="#AFAEAE"/>
<stop offset="0.4379" stop-color="#CCCBCB"/>
<stop offset="0.5534" stop-color="#E3E2E2"/>
<stop offset="0.6775" stop-color="#F3F2F2"/>
<stop offset="0.8163" stop-color="#FCFCFC"/>
<stop offset="1" stop-color="white"/>
</linearGradient>
<linearGradient id="paint2_linear_2198_18585" x1="22.6282" y1="97.7609" x2="25.4777" y2="129.057" gradientUnits="userSpaceOnUse">
<stop stop-color="#231F20"/>
<stop offset="0.1758" stop-color="#1E343F"/>
<stop offset="0.5616" stop-color="#106B8E"/>
<stop offset="1" stop-color="#00AEEF"/>
</linearGradient>
<linearGradient id="paint3_linear_2198_18585" x1="42.2515" y1="107.601" x2="42.43" y2="133.487" gradientUnits="userSpaceOnUse">
<stop stop-color="#231F20"/>
<stop offset="0.1758" stop-color="#1E343F"/>
<stop offset="0.5616" stop-color="#106B8E"/>
<stop offset="1" stop-color="#00AEEF"/>
</linearGradient>
<linearGradient id="paint4_linear_2198_18585" x1="30.1545" y1="118.535" x2="29.837" y2="133.942" gradientUnits="userSpaceOnUse">
<stop stop-color="#231F20"/>
<stop offset="0.1758" stop-color="#1E343F"/>
<stop offset="0.5616" stop-color="#106B8E"/>
<stop offset="1" stop-color="#00AEEF"/>
</linearGradient>
<linearGradient id="paint5_linear_2198_18585" x1="30.363" y1="109.294" x2="30.2551" y2="114.534" gradientUnits="userSpaceOnUse">
<stop stop-color="#231F20"/>
<stop offset="0.1104" stop-color="#222326"/>
<stop offset="0.2512" stop-color="#1F2E35"/>
<stop offset="0.4086" stop-color="#1B4050"/>
<stop offset="0.5779" stop-color="#155974"/>
<stop offset="0.7569" stop-color="#0D79A3"/>
<stop offset="0.9413" stop-color="#03A0DB"/>
<stop offset="1" stop-color="#00AEEF"/>
</linearGradient>
<linearGradient id="paint6_linear_2198_18585" x1="24.7137" y1="111.625" x2="24.6218" y2="116.087" gradientUnits="userSpaceOnUse">
<stop stop-color="#231F20"/>
<stop offset="0.1104" stop-color="#222326"/>
<stop offset="0.2512" stop-color="#1F2E35"/>
<stop offset="0.4086" stop-color="#1B4050"/>
<stop offset="0.5779" stop-color="#155974"/>
<stop offset="0.7569" stop-color="#0D79A3"/>
<stop offset="0.9413" stop-color="#03A0DB"/>
<stop offset="1" stop-color="#00AEEF"/>
</linearGradient>
<linearGradient id="paint7_linear_2198_18585" x1="36.7884" y1="114.841" x2="36.6964" y2="119.303" gradientUnits="userSpaceOnUse">
<stop stop-color="#231F20"/>
<stop offset="0.1104" stop-color="#222326"/>
<stop offset="0.2512" stop-color="#1F2E35"/>
<stop offset="0.4086" stop-color="#1B4050"/>
<stop offset="0.5779" stop-color="#155974"/>
<stop offset="0.7569" stop-color="#0D79A3"/>
<stop offset="0.9413" stop-color="#03A0DB"/>
<stop offset="1" stop-color="#00AEEF"/>
</linearGradient>
<linearGradient id="paint8_linear_2198_18585" x1="33.9501" y1="113.113" x2="33.7341" y2="123.592" gradientUnits="userSpaceOnUse">
<stop stop-color="#231F20"/>
<stop offset="0.1104" stop-color="#222326"/>
<stop offset="0.2512" stop-color="#1F2E35"/>
<stop offset="0.4086" stop-color="#1B4050"/>
<stop offset="0.5779" stop-color="#155974"/>
<stop offset="0.7569" stop-color="#0D79A3"/>
<stop offset="0.9413" stop-color="#03A0DB"/>
<stop offset="1" stop-color="#00AEEF"/>
</linearGradient>
<linearGradient id="paint9_linear_2198_18585" x1="43.4074" y1="117.85" x2="43.1916" y2="128.329" gradientUnits="userSpaceOnUse">
<stop stop-color="#231F20"/>
<stop offset="0.1838" stop-color="#222123"/>
<stop offset="0.3265" stop-color="#21282D"/>
<stop offset="0.4555" stop-color="#1E333D"/>
<stop offset="0.5763" stop-color="#1A4355"/>
<stop offset="0.6915" stop-color="#155873"/>
<stop offset="0.8024" stop-color="#0F7298"/>
<stop offset="0.9078" stop-color="#078FC3"/>
<stop offset="1" stop-color="#00AEEF"/>
</linearGradient>
<linearGradient id="paint10_linear_2198_18585" x1="47.366" y1="118.132" x2="47.2548" y2="123.534" gradientUnits="userSpaceOnUse">
<stop stop-color="#231F20"/>
<stop offset="0.1104" stop-color="#222326"/>
<stop offset="0.2512" stop-color="#1F2E35"/>
<stop offset="0.4086" stop-color="#1B4050"/>
<stop offset="0.5779" stop-color="#155974"/>
<stop offset="0.7569" stop-color="#0D79A3"/>
<stop offset="0.9413" stop-color="#03A0DB"/>
<stop offset="1" stop-color="#00AEEF"/>
</linearGradient>
<linearGradient id="paint11_linear_2198_18585" x1="37.5213" y1="120.65" x2="37.3626" y2="128.354" gradientUnits="userSpaceOnUse">
<stop stop-color="#231F20"/>
<stop offset="0.1104" stop-color="#222326"/>
<stop offset="0.2512" stop-color="#1F2E35"/>
<stop offset="0.4086" stop-color="#1B4050"/>
<stop offset="0.5779" stop-color="#155974"/>
<stop offset="0.7569" stop-color="#0D79A3"/>
<stop offset="0.9413" stop-color="#03A0DB"/>
<stop offset="1" stop-color="#00AEEF"/>
</linearGradient>
<linearGradient id="paint12_linear_2198_18585" x1="30.2233" y1="127.43" x2="30.1439" y2="131.282" gradientUnits="userSpaceOnUse">
<stop stop-color="#231F20"/>
<stop offset="0.1104" stop-color="#222326"/>
<stop offset="0.2512" stop-color="#1F2E35"/>
<stop offset="0.4086" stop-color="#1B4050"/>
<stop offset="0.5779" stop-color="#155974"/>
<stop offset="0.7569" stop-color="#0D79A3"/>
<stop offset="0.9413" stop-color="#03A0DB"/>
<stop offset="1" stop-color="#00AEEF"/>
</linearGradient>
</defs>
</svg>
