<svg width="84" height="194" viewBox="0 0 84 194" fill="none" xmlns="http://www.w3.org/2000/svg">
<path d="M39.5901 193.255C37.5398 193.255 35.4975 192.745 33.9358 191.724L3.94217 172.017C2.38041 170.996 1.52344 169.611 1.52344 168.125C1.52344 166.639 2.38041 165.263 3.94217 164.242L33.9358 144.535C37.0513 142.484 42.121 142.484 45.2445 144.535L75.2381 164.242C76.7999 165.263 77.6569 166.648 77.6569 168.134C77.6569 169.62 76.7999 170.996 75.2461 172.017L45.2525 191.724C43.6907 192.736 41.6404 193.255 39.5901 193.255ZM34.2001 191.195C37.1714 193.155 42.0089 193.155 44.9802 191.195L74.9739 171.489C76.3594 170.577 77.1283 169.383 77.1283 168.125C77.1283 166.867 76.3594 165.664 74.9739 164.752L44.9802 145.046C42.0089 143.086 37.1634 143.095 34.2001 145.046L4.20643 164.752C2.82087 165.664 2.05201 166.858 2.05201 168.116C2.05201 169.374 2.82087 170.577 4.20643 171.489L34.2001 191.195Z" fill="#273C7F"/>
<path opacity="0.4" d="M78.5854 160.557V148.872L76.7033 147.678C76.1747 151.324 72.3945 153.73 69.239 154.231L47.7508 168.533L38.3723 172.389L8.43474 154.806L9.1235 154.35C6.56863 152.992 5.18306 149.874 3.80552 147.04L1.78729 148.407L0.585938 148.79V160.676C0.585938 162.189 1.46691 163.711 3.22088 164.86L33.2145 184.566C36.7225 186.872 42.4409 186.872 45.9488 184.566L75.9425 164.86C77.6724 163.72 78.5454 162.243 78.5775 160.749C78.5855 160.685 78.5854 160.621 78.5854 160.557Z" fill="#273C7F"/>
<path d="M78.5854 150.168V142.439L76.7033 141.245C76.1747 144.891 72.3945 147.297 69.239 147.798L47.7508 162.1L38.3723 165.956L8.43474 148.373L9.1235 147.917C6.56863 146.559 5.18306 143.441 3.80552 140.607L1.78729 141.974L0.585938 142.357V150.287C0.585938 151.8 1.46691 153.322 3.22088 154.471L33.2145 174.177C36.7225 176.484 42.4409 176.484 45.9488 174.177L75.9425 154.471C77.6724 153.331 78.5454 151.855 78.5775 150.36C78.5855 150.296 78.5854 150.232 78.5854 150.168Z" fill="#273C7F"/>
<path opacity="0.3" d="M69.2469 147.796L47.7588 162.097L39.5977 165.452V175.907C41.9042 175.907 44.2108 175.332 45.9648 174.175L75.9585 154.468C77.6884 153.329 78.5614 151.852 78.5934 150.357C78.5934 150.293 78.5934 150.22 78.5934 150.157H78.6014V142.427L76.8875 141.342H76.7113C76.1026 144.934 72.3704 147.304 69.2469 147.796Z" fill="#273C7F"/>
<path d="M33.2242 166.329L3.23056 146.622C-0.277375 144.316 -0.277375 140.561 3.23056 138.255L33.2242 118.548C36.7322 116.242 42.4506 116.242 45.9585 118.548L75.9522 138.255C79.4601 140.561 79.4601 144.316 75.9522 146.622L45.9585 166.329C42.4506 168.635 36.7402 168.635 33.2242 166.329Z" fill="#273C7F"/>
<path d="M39.5899 162.745C37.7398 162.745 35.8897 162.281 34.4802 161.36L11.0459 145.965C9.63628 145.035 8.85938 143.786 8.85938 142.437C8.85938 141.088 9.63628 139.839 11.0459 138.91L34.4802 123.514C37.2993 121.664 41.8805 121.664 44.6916 123.514L68.1259 138.91C69.5355 139.839 70.3124 141.088 70.3124 142.437C70.3124 143.786 69.5355 145.035 68.1259 145.965L44.6916 161.36C43.2901 162.281 41.4399 162.745 39.5899 162.745ZM39.5899 122.703C37.8359 122.703 36.0819 123.14 34.7444 124.015L11.3101 139.411C10.0687 140.222 9.37998 141.298 9.37998 142.419C9.37998 143.54 10.0607 144.616 11.3101 145.427L34.7444 160.822C37.4194 162.581 41.7603 162.581 44.4353 160.822L67.8696 145.427C69.111 144.616 69.7918 143.54 69.7918 142.419C69.7918 141.298 69.111 140.222 67.8696 139.411L44.4353 124.015C43.1058 123.15 41.3438 122.703 39.5899 122.703Z" fill="#273C7F"/>
<path d="M75.9505 146.61L45.9568 166.317C42.4489 168.623 36.7305 168.623 33.2226 166.317L3.22892 146.61C1.65916 145.58 0.794187 144.258 0.625998 142.909C0.417765 144.577 1.28274 146.3 3.22892 147.576L33.2226 167.283C36.7305 169.589 42.4489 169.589 45.9568 167.283L75.9505 147.576C77.8887 146.3 78.7617 144.577 78.5534 142.909C78.3933 144.258 77.5203 145.58 75.9505 146.61Z" fill="#273C7F"/>
<path d="M39.846 152.789C51.9435 152.789 61.7506 147.651 61.7506 141.313C61.7506 134.975 51.9435 129.837 39.846 129.837C27.7484 129.837 17.9414 134.975 17.9414 141.313C17.9414 147.651 27.7484 152.789 39.846 152.789Z" fill="url(#paint0_radial_2198_18540)"/>
<path opacity="0.5" d="M39.8448 149.223C35.5761 149.223 31.5716 148.357 28.5682 146.78C25.701 145.276 24.1152 143.335 24.1152 141.311C24.1152 139.288 25.693 137.346 28.5682 135.842C31.5716 134.265 35.5761 133.399 39.8448 133.399C44.1136 133.399 48.1181 134.265 51.1215 135.842C53.9887 137.346 55.5745 139.288 55.5745 141.311C55.5745 143.335 53.9967 145.276 51.1215 146.78C48.1181 148.357 44.1136 149.223 39.8448 149.223Z" fill="#273C7F"/>
<path opacity="0.5" d="M39.8469 148.611C35.6582 148.611 31.7338 147.763 28.8025 146.222C26.1355 144.828 24.6699 143.078 24.6699 141.309C24.6699 139.541 26.1355 137.8 28.8025 136.396C31.7338 134.856 35.6582 134.008 39.8549 134.008C44.0436 134.008 47.9681 134.856 50.8994 136.396C53.5663 137.791 55.032 139.541 55.032 141.309C55.032 143.078 53.5663 144.819 50.8994 146.222C47.9681 147.763 44.0436 148.611 39.8469 148.611Z" fill="#273C7F"/>
<path d="M55.335 149.432C46.7814 153.916 32.9098 153.916 24.3562 149.432C19.9272 147.107 17.7968 144.045 17.949 141C18.0932 143.835 20.2236 146.643 24.3562 148.812C32.9098 153.297 46.7814 153.297 55.335 148.812C59.4596 146.652 61.598 143.835 61.7421 141C61.9023 144.045 59.7639 147.107 55.335 149.432Z" fill="#396FB5"/>
<path d="M61.7421 140.997C61.598 138.162 59.4596 135.355 55.335 133.186C46.7814 128.701 32.9098 128.701 24.3562 133.186C20.2236 135.346 18.0932 138.162 17.949 140.997C17.7968 137.962 19.9272 134.89 24.3562 132.566C32.9098 128.081 46.7814 128.081 55.335 132.566C59.7639 134.89 61.9023 137.962 61.7421 140.997Z" fill="#05387A"/>
<path opacity="0.3" d="M39.8479 148.657C48.2521 148.657 55.065 145.163 55.065 140.854C55.065 136.545 48.2521 133.052 39.8479 133.052C31.4438 133.052 24.6309 136.545 24.6309 140.854C24.6309 145.163 31.4438 148.657 39.8479 148.657Z" fill="#273C7F"/>
<path opacity="0.5" d="M39.8473 148.102C35.8508 148.102 32.1106 147.309 29.2994 145.869C26.6164 144.492 25.1348 142.715 25.1348 140.865C25.1348 139.014 26.6164 137.237 29.2994 135.86C32.1106 134.42 35.8588 133.627 39.8473 133.627C43.8438 133.627 47.584 134.42 50.3951 135.86C53.0782 137.237 54.5598 139.014 54.5598 140.865C54.5598 142.715 53.0782 144.492 50.3951 145.869C47.592 147.309 43.8438 148.102 39.8473 148.102Z" fill="#273C7F"/>
<path opacity="0.5" d="M39.8466 147.534C35.9222 147.534 32.2541 146.76 29.507 145.356C27.0082 144.08 25.6387 142.476 25.6387 140.862C25.6387 139.249 27.0162 137.645 29.507 136.368C32.2541 134.965 35.9222 134.19 39.8466 134.19C43.771 134.19 47.4391 134.965 50.1862 136.368C52.685 137.645 54.0545 139.249 54.0545 140.862C54.0545 142.485 52.677 144.08 50.1862 145.356C47.4472 146.76 43.771 147.534 39.8466 147.534Z" fill="#273C7F"/>
<path opacity="0.8" d="M55.5683 111.698C55.5683 111.67 55.5683 111.634 55.5683 111.607C55.5683 109.291 53.8784 107.149 50.819 105.572C47.8797 104.068 43.9793 103.239 39.8466 103.239C35.714 103.239 31.8137 104.068 28.8744 105.572C25.8069 107.14 24.125 109.282 24.125 111.607C24.125 111.634 24.125 111.67 24.125 111.698C24.125 111.725 24.125 111.762 24.125 111.789C24.125 111.816 24.125 111.853 24.125 111.88C24.125 111.907 24.125 111.944 24.125 111.971C24.125 111.999 24.125 112.035 24.125 112.062C24.125 112.09 24.125 112.126 24.125 112.154C24.125 112.181 24.125 112.217 24.125 112.245C24.125 112.272 24.125 112.308 24.125 112.336C24.125 112.363 24.125 112.4 24.125 112.427C24.125 112.454 24.125 112.491 24.125 112.518C24.125 112.545 24.125 112.582 24.125 112.609C24.125 112.637 24.125 112.673 24.125 112.7C24.125 112.728 24.125 112.764 24.125 112.792C24.125 112.819 24.125 112.855 24.125 112.883C24.125 112.91 24.125 112.946 24.125 112.974C24.125 113.001 24.125 113.038 24.125 113.065C24.125 113.092 24.125 113.129 24.125 113.156C24.125 113.184 24.125 113.22 24.125 113.247C24.125 113.275 24.125 113.311 24.125 113.338C24.125 113.366 24.125 113.402 24.125 113.43C24.125 113.457 24.125 113.493 24.125 113.521C24.125 113.548 24.125 113.585 24.125 113.612C24.125 113.639 24.125 113.676 24.125 113.703C24.125 113.73 24.125 113.767 24.125 113.794C24.125 113.822 24.125 113.858 24.125 113.885C24.125 113.913 24.125 113.949 24.125 113.977C24.125 114.004 24.125 114.04 24.125 114.068C24.125 114.095 24.125 114.131 24.125 114.159C24.125 114.186 24.125 114.223 24.125 114.25C24.125 114.277 24.125 114.314 24.125 114.341C24.125 114.368 24.125 114.405 24.125 114.432C24.125 114.46 24.125 114.496 24.125 114.523C24.125 114.551 24.125 114.587 24.125 114.615C24.125 114.642 24.125 114.678 24.125 114.706C24.125 114.733 24.125 114.769 24.125 114.797C24.125 114.824 24.125 114.861 24.125 114.888C24.125 114.915 24.125 114.952 24.125 114.979C24.125 115.007 24.125 115.043 24.125 115.07C24.125 115.098 24.125 115.134 24.125 115.161C24.125 115.189 24.125 115.225 24.125 115.253C24.125 115.28 24.125 115.316 24.125 115.344C24.125 115.371 24.125 115.408 24.125 115.435C24.125 115.462 24.125 115.499 24.125 115.526C24.125 115.553 24.125 115.59 24.125 115.617C24.125 115.645 24.125 115.681 24.125 115.708C24.125 115.736 24.125 115.772 24.125 115.8C24.125 115.827 24.125 115.863 24.125 115.891C24.125 115.918 24.125 115.954 24.125 115.982C24.125 116.009 24.125 116.046 24.125 116.073C24.125 116.1 24.125 116.137 24.125 116.164C24.125 116.191 24.125 116.228 24.125 116.255C24.125 116.283 24.125 116.319 24.125 116.346C24.125 116.374 24.125 116.41 24.125 116.438C24.125 116.465 24.125 116.501 24.125 116.529C24.125 116.556 24.125 116.593 24.125 116.62C24.125 116.647 24.125 116.684 24.125 116.711C24.125 116.738 24.125 116.775 24.125 116.802C24.125 116.83 24.125 116.866 24.125 116.893C24.125 116.921 24.125 116.957 24.125 116.984C24.125 117.012 24.125 117.048 24.125 117.076C24.125 117.103 24.125 117.139 24.125 117.167C24.125 117.194 24.125 117.231 24.125 117.258C24.125 117.285 24.125 117.322 24.125 117.349C24.125 117.376 24.125 117.413 24.125 117.44C24.125 117.468 24.125 117.504 24.125 117.531C24.125 117.559 24.125 117.595 24.125 117.623C24.125 117.65 24.125 117.686 24.125 117.714C24.125 117.741 24.125 117.778 24.125 117.805C24.125 117.832 24.125 117.869 24.125 117.896C24.125 117.923 24.125 117.96 24.125 117.987C24.125 118.014 24.125 118.051 24.125 118.078C24.125 118.106 24.125 118.142 24.125 118.169C24.125 118.197 24.125 118.233 24.125 118.261C24.125 118.288 24.125 118.324 24.125 118.352C24.125 118.379 24.125 118.416 24.125 118.443C24.125 118.47 24.125 118.507 24.125 118.534C24.125 118.561 24.125 118.598 24.125 118.625C24.125 118.653 24.125 118.689 24.125 118.716C24.125 118.744 24.125 118.78 24.125 118.807C24.125 118.835 24.125 118.871 24.125 118.899C24.125 118.926 24.125 118.963 24.125 118.99C24.125 119.017 24.125 119.054 24.125 119.081C24.125 119.108 24.125 119.145 24.125 119.172C24.125 119.199 24.125 119.236 24.125 119.263C24.125 119.291 24.125 119.327 24.125 119.354C24.125 119.382 24.125 119.418 24.125 119.446C24.125 119.473 24.125 119.509 24.125 119.537C24.125 119.564 24.125 119.601 24.125 119.628C24.125 119.655 24.125 119.692 24.125 119.719C24.125 119.746 24.125 119.783 24.125 119.81C24.125 119.837 24.125 119.874 24.125 119.901C24.125 119.929 24.125 119.965 24.125 119.992C24.125 120.02 24.125 120.056 24.125 120.084C24.125 120.111 24.125 120.147 24.125 120.175C24.125 120.202 24.125 120.239 24.125 120.266C24.125 120.293 24.125 120.33 24.125 120.357C24.125 120.384 24.125 120.421 24.125 120.448C24.125 120.476 24.125 120.512 24.125 120.539C24.125 120.567 24.125 120.603 24.125 120.63C24.125 120.658 24.125 120.694 24.125 120.722C24.125 120.749 24.125 120.786 24.125 120.813C24.125 120.84 24.125 120.877 24.125 120.904C24.125 120.931 24.125 120.968 24.125 120.995C24.125 121.022 24.125 121.059 24.125 121.086C24.125 121.114 24.125 121.15 24.125 121.177C24.125 121.205 24.125 121.241 24.125 121.269C24.125 121.296 24.125 121.332 24.125 121.36C24.125 121.387 24.125 121.424 24.125 121.451C24.125 121.478 24.125 121.515 24.125 121.542C24.125 121.569 24.125 121.606 24.125 121.633C24.125 121.66 24.125 121.697 24.125 121.724C24.125 121.752 24.125 121.788 24.125 121.815C24.125 121.843 24.125 121.879 24.125 121.907C24.125 121.934 24.125 121.97 24.125 121.998C24.125 122.025 24.125 122.062 24.125 122.089C24.125 122.116 24.125 122.153 24.125 122.18C24.125 122.207 24.125 122.244 24.125 122.271C24.125 122.299 24.125 122.335 24.125 122.362C24.125 122.39 24.125 122.426 24.125 122.454C24.125 122.481 24.125 122.517 24.125 122.545C24.125 122.572 24.125 122.609 24.125 122.636C24.125 122.663 24.125 122.7 24.125 122.727C24.125 122.754 24.125 122.791 24.125 122.818C24.125 122.845 24.125 122.882 24.125 122.909C24.125 122.937 24.125 122.973 24.125 123C24.125 123.028 24.125 123.064 24.125 123.092C24.125 123.119 24.125 123.155 24.125 123.183C24.125 123.21 24.125 123.247 24.125 123.274C24.125 123.301 24.125 123.338 24.125 123.365C24.125 123.392 24.125 123.429 24.125 123.456C24.125 123.483 24.125 123.52 24.125 123.547C24.125 123.575 24.125 123.611 24.125 123.639C24.125 123.666 24.125 123.702 24.125 123.73C24.125 123.757 24.125 123.793 24.125 123.821C24.125 123.848 24.125 123.885 24.125 123.912C24.125 123.939 24.125 123.976 24.125 124.003C24.125 124.03 24.125 124.067 24.125 124.094C24.125 124.122 24.125 124.158 24.125 124.185C24.125 124.213 24.125 124.249 24.125 124.277C24.125 124.304 24.125 124.34 24.125 124.368C24.125 124.395 24.125 124.432 24.125 124.459C24.125 124.486 24.125 124.523 24.125 124.55C24.125 124.577 24.125 124.614 24.125 124.641C24.125 124.668 24.125 124.705 24.125 124.732C24.125 124.76 24.125 124.796 24.125 124.823C24.125 124.851 24.125 124.887 24.125 124.915C24.125 124.942 24.125 124.978 24.125 125.006C24.125 125.033 24.125 125.07 24.125 125.097C24.125 125.124 24.125 125.161 24.125 125.188C24.125 125.215 24.125 125.252 24.125 125.279C24.125 125.306 24.125 125.343 24.125 125.37C24.125 125.398 24.125 125.434 24.125 125.462C24.125 125.489 24.125 125.525 24.125 125.553C24.125 125.58 24.125 125.616 24.125 125.644C24.125 125.671 24.125 125.708 24.125 125.735C24.125 125.762 24.125 125.799 24.125 125.826C24.125 125.853 24.125 125.89 24.125 125.917C24.125 125.945 24.125 125.981 24.125 126.008C24.125 126.036 24.125 126.072 24.125 126.1C24.125 126.127 24.125 126.163 24.125 126.191C24.125 126.218 24.125 126.255 24.125 126.282C24.125 126.309 24.125 126.346 24.125 126.373C24.125 126.4 24.125 126.437 24.125 126.464C24.125 126.491 24.125 126.528 24.125 126.555C24.125 126.583 24.125 126.619 24.125 126.646C24.125 126.674 24.125 126.71 24.125 126.738C24.125 126.765 24.125 126.801 24.125 126.829C24.125 126.856 24.125 126.893 24.125 126.92C24.125 126.947 24.125 126.984 24.125 127.011C24.125 127.038 24.125 127.075 24.125 127.102C24.125 127.13 24.125 127.166 24.125 127.193C24.125 127.221 24.125 127.257 24.125 127.285C24.125 127.312 24.125 127.348 24.125 127.376C24.125 127.403 24.125 127.439 24.125 127.467C24.125 127.494 24.125 127.531 24.125 127.558C24.125 127.585 24.125 127.622 24.125 127.649C24.125 127.677 24.125 127.713 24.125 127.74C24.125 127.768 24.125 127.804 24.125 127.831C24.125 127.859 24.125 127.895 24.125 127.923C24.125 127.95 24.125 127.986 24.125 128.014C24.125 128.041 24.125 128.078 24.125 128.105C24.125 128.132 24.125 128.169 24.125 128.196C24.125 128.223 24.125 128.26 24.125 128.287C24.125 128.315 24.125 128.351 24.125 128.378C24.125 128.406 24.125 128.442 24.125 128.469C24.125 128.497 24.125 128.533 24.125 128.561C24.125 128.588 24.125 128.624 24.125 128.652C24.125 128.679 24.125 128.716 24.125 128.743C24.125 128.77 24.125 128.807 24.125 128.834C24.125 128.861 24.125 128.898 24.125 128.925C24.125 128.953 24.125 128.989 24.125 129.016C24.125 129.044 24.125 129.08 24.125 129.108C24.125 129.135 24.125 129.171 24.125 129.199C24.125 129.226 24.125 129.262 24.125 129.29C24.125 129.317 24.125 129.354 24.125 129.381C24.125 129.408 24.125 129.445 24.125 129.472C24.125 129.5 24.125 129.536 24.125 129.563C24.125 129.591 24.125 129.627 24.125 129.654C24.125 129.682 24.125 129.718 24.125 129.746C24.125 129.773 24.125 129.809 24.125 129.837C24.125 129.864 24.125 129.901 24.125 129.928C24.125 129.955 24.125 129.992 24.125 130.019C24.125 130.046 24.125 130.083 24.125 130.11C24.125 130.138 24.125 130.174 24.125 130.201C24.125 130.229 24.125 130.265 24.125 130.292C24.125 130.32 24.125 130.356 24.125 130.384C24.125 130.411 24.125 130.447 24.125 130.475C24.125 130.502 24.125 130.539 24.125 130.566C24.125 130.593 24.125 130.63 24.125 130.657C24.125 130.684 24.125 130.721 24.125 130.748C24.125 130.776 24.125 130.812 24.125 130.839C24.125 130.867 24.125 130.903 24.125 130.931C24.125 130.958 24.125 130.994 24.125 131.022C24.125 131.049 24.125 131.085 24.125 131.113C24.125 131.14 24.125 131.177 24.125 131.204C24.125 131.231 24.125 131.268 24.125 131.295C24.125 131.323 24.125 131.359 24.125 131.386C24.125 131.414 24.125 131.45 24.125 131.477C24.125 131.505 24.125 131.541 24.125 131.569C24.125 131.596 24.125 131.632 24.125 131.66C24.125 131.687 24.125 131.724 24.125 131.751C24.125 131.778 24.125 131.815 24.125 131.842C24.125 131.869 24.125 131.906 24.125 131.933C24.125 131.961 24.125 131.997 24.125 132.024C24.125 132.052 24.125 132.088 24.125 132.115C24.125 132.143 24.125 132.179 24.125 132.207C24.125 132.234 24.125 132.27 24.125 132.298C24.125 132.325 24.125 132.362 24.125 132.389C24.125 132.416 24.125 132.453 24.125 132.48C24.125 132.507 24.125 132.544 24.125 132.571C24.125 132.599 24.125 132.635 24.125 132.662C24.125 132.69 24.125 132.726 24.125 132.754C24.125 132.781 24.125 132.817 24.125 132.845C24.125 132.872 24.125 132.908 24.125 132.936C24.125 132.963 24.125 133 24.125 133.027C24.125 133.054 24.125 133.091 24.125 133.118C24.125 133.146 24.125 133.182 24.125 133.209C24.125 133.237 24.125 133.273 24.125 133.3C24.125 133.328 24.125 133.364 24.125 133.392C24.125 133.419 24.125 133.455 24.125 133.483C24.125 133.51 24.125 133.547 24.125 133.574C24.125 133.601 24.125 133.638 24.125 133.665C24.125 133.692 24.125 133.729 24.125 133.756C24.125 133.784 24.125 133.82 24.125 133.847C24.125 133.875 24.125 133.911 24.125 133.938C24.125 133.966 24.125 134.002 24.125 134.03C24.125 134.057 24.125 134.093 24.125 134.121C24.125 134.148 24.125 134.185 24.125 134.212C24.125 134.239 24.125 134.276 24.125 134.303C24.125 134.33 24.125 134.367 24.125 134.394C24.125 134.422 24.125 134.458 24.125 134.485C24.125 134.513 24.125 134.549 24.125 134.577C24.125 134.604 24.125 134.64 24.125 134.668C24.125 134.695 24.125 134.731 24.125 134.759C24.125 134.786 24.125 134.823 24.125 134.85C24.125 134.877 24.125 134.914 24.125 134.941C24.125 134.969 24.125 135.005 24.125 135.032C24.125 135.06 24.125 135.096 24.125 135.123C24.125 135.151 24.125 135.187 24.125 135.215C24.125 135.242 24.125 135.278 24.125 135.306C24.125 135.333 24.125 135.37 24.125 135.397C24.125 135.424 24.125 135.461 24.125 135.488C24.125 135.515 24.125 135.552 24.125 135.579C24.125 135.607 24.125 135.643 24.125 135.67C24.125 135.698 24.125 135.734 24.125 135.761C24.125 135.789 24.125 135.825 24.125 135.853C24.125 135.88 24.125 135.916 24.125 135.944C24.125 135.971 24.125 136.008 24.125 136.035C24.125 136.062 24.125 136.099 24.125 136.126C24.125 136.153 24.125 136.19 24.125 136.217C24.125 136.245 24.125 136.281 24.125 136.308C24.125 136.336 24.125 136.372 24.125 136.4C24.125 136.427 24.125 136.463 24.125 136.491C24.125 136.518 24.125 136.554 24.125 136.582C24.125 136.609 24.125 136.646 24.125 136.673C24.125 136.7 24.125 136.737 24.125 136.764C24.125 136.792 24.125 136.828 24.125 136.855C24.125 136.883 24.125 136.919 24.125 136.946C24.125 136.974 24.125 137.01 24.125 137.038C24.125 137.065 24.125 137.101 24.125 137.129C24.125 137.156 24.125 137.193 24.125 137.22C24.125 137.247 24.125 137.284 24.125 137.311C24.125 137.338 24.125 137.375 24.125 137.402C24.125 137.43 24.125 137.466 24.125 137.493C24.125 137.521 24.125 137.557 24.125 137.584C24.125 137.612 24.125 137.648 24.125 137.676C24.125 137.703 24.125 137.739 24.125 137.767C24.125 137.794 24.125 137.831 24.125 137.858C24.125 137.885 24.125 137.922 24.125 137.949C24.125 137.976 24.125 138.013 24.125 138.04C24.125 138.068 24.125 138.104 24.125 138.131C24.125 138.159 24.125 138.195 24.125 138.223C24.125 138.25 24.125 138.286 24.125 138.314C24.125 138.341 24.125 138.378 24.125 138.405C24.125 138.432 24.125 138.469 24.125 138.496C24.125 138.523 24.125 138.56 24.125 138.587C24.125 138.615 24.125 138.651 24.125 138.678C24.125 138.706 24.125 138.742 24.125 138.769C24.125 138.797 24.125 138.833 24.125 138.861C24.125 138.888 24.125 138.924 24.125 138.952C24.125 138.979 24.125 139.016 24.125 139.043C24.125 139.07 24.125 139.107 24.125 139.134C24.125 139.161 24.125 139.198 24.125 139.225C24.125 139.253 24.125 139.289 24.125 139.316C24.125 139.344 24.125 139.38 24.125 139.407C24.125 139.435 24.125 139.471 24.125 139.499C24.125 139.526 24.125 139.563 24.125 139.59C24.125 139.617 24.125 139.654 24.125 139.681C24.125 139.708 24.125 139.745 24.125 139.772C24.125 139.799 24.125 139.836 24.125 139.863C24.125 139.891 24.125 139.927 24.125 139.954C24.125 139.982 24.125 140.018 24.125 140.046C24.125 142.361 25.8149 144.503 28.8744 146.08C31.8137 147.584 35.714 148.413 39.8466 148.413C43.9793 148.413 47.8797 147.584 50.819 146.08C53.8864 144.512 55.5683 142.37 55.5683 140.046C55.5683 140.018 55.5683 139.982 55.5683 139.954C55.5683 139.927 55.5683 139.891 55.5683 139.863C55.5683 139.836 55.5683 139.799 55.5683 139.772C55.5683 139.745 55.5683 139.708 55.5683 139.681C55.5683 139.654 55.5683 139.617 55.5683 139.59C55.5683 139.563 55.5683 139.526 55.5683 139.499C55.5683 139.471 55.5683 139.435 55.5683 139.407C55.5683 139.38 55.5683 139.344 55.5683 139.316C55.5683 139.289 55.5683 139.253 55.5683 139.225C55.5683 139.198 55.5683 139.161 55.5683 139.134C55.5683 139.107 55.5683 139.07 55.5683 139.043C55.5683 139.016 55.5683 138.979 55.5683 138.952C55.5683 138.924 55.5683 138.888 55.5683 138.861C55.5683 138.833 55.5683 138.797 55.5683 138.769C55.5683 138.742 55.5683 138.706 55.5683 138.678C55.5683 138.651 55.5683 138.615 55.5683 138.587C55.5683 138.56 55.5683 138.523 55.5683 138.496C55.5683 138.469 55.5683 138.432 55.5683 138.405C55.5683 138.378 55.5683 138.341 55.5683 138.314C55.5683 138.286 55.5683 138.25 55.5683 138.223C55.5683 138.195 55.5683 138.159 55.5683 138.131C55.5683 138.104 55.5683 138.068 55.5683 138.04C55.5683 138.013 55.5683 137.976 55.5683 137.949C55.5683 137.922 55.5683 137.885 55.5683 137.858C55.5683 137.831 55.5683 137.794 55.5683 137.767C55.5683 137.739 55.5683 137.703 55.5683 137.676C55.5683 137.648 55.5683 137.612 55.5683 137.584C55.5683 137.557 55.5683 137.521 55.5683 137.493C55.5683 137.466 55.5683 137.43 55.5683 137.402C55.5683 137.375 55.5683 137.338 55.5683 137.311C55.5683 137.284 55.5683 137.247 55.5683 137.22C55.5683 137.193 55.5683 137.156 55.5683 137.129C55.5683 137.101 55.5683 137.065 55.5683 137.038C55.5683 137.01 55.5683 136.974 55.5683 136.946C55.5683 136.919 55.5683 136.883 55.5683 136.855C55.5683 136.828 55.5683 136.792 55.5683 136.764C55.5683 136.737 55.5683 136.7 55.5683 136.673C55.5683 136.646 55.5683 136.609 55.5683 136.582C55.5683 136.554 55.5683 136.518 55.5683 136.491C55.5683 136.463 55.5683 136.427 55.5683 136.4C55.5683 136.372 55.5683 136.336 55.5683 136.308C55.5683 136.281 55.5683 136.245 55.5683 136.217C55.5683 136.19 55.5683 136.153 55.5683 136.126C55.5683 136.099 55.5683 136.062 55.5683 136.035C55.5683 136.008 55.5683 135.971 55.5683 135.944C55.5683 135.916 55.5683 135.88 55.5683 135.853C55.5683 135.825 55.5683 135.789 55.5683 135.761C55.5683 135.734 55.5683 135.698 55.5683 135.67C55.5683 135.643 55.5683 135.607 55.5683 135.579C55.5683 135.552 55.5683 135.515 55.5683 135.488C55.5683 135.461 55.5683 135.424 55.5683 135.397C55.5683 135.37 55.5683 135.333 55.5683 135.306C55.5683 135.278 55.5683 135.242 55.5683 135.215C55.5683 135.187 55.5683 135.151 55.5683 135.123C55.5683 135.096 55.5683 135.06 55.5683 135.032C55.5683 135.005 55.5683 134.969 55.5683 134.941C55.5683 134.914 55.5683 134.877 55.5683 134.85C55.5683 134.823 55.5683 134.786 55.5683 134.759C55.5683 134.731 55.5683 134.695 55.5683 134.668C55.5683 134.64 55.5683 134.604 55.5683 134.577C55.5683 134.549 55.5683 134.513 55.5683 134.485C55.5683 134.458 55.5683 134.422 55.5683 134.394C55.5683 134.367 55.5683 134.33 55.5683 134.303C55.5683 134.276 55.5683 134.239 55.5683 134.212C55.5683 134.185 55.5683 134.148 55.5683 134.121C55.5683 134.093 55.5683 134.057 55.5683 134.03C55.5683 134.002 55.5683 133.966 55.5683 133.938C55.5683 133.911 55.5683 133.875 55.5683 133.847C55.5683 133.82 55.5683 133.784 55.5683 133.756C55.5683 133.729 55.5683 133.692 55.5683 133.665C55.5683 133.638 55.5683 133.601 55.5683 133.574C55.5683 133.547 55.5683 133.51 55.5683 133.483C55.5683 133.455 55.5683 133.419 55.5683 133.392C55.5683 133.364 55.5683 133.328 55.5683 133.3C55.5683 133.273 55.5683 133.237 55.5683 133.209C55.5683 133.182 55.5683 133.146 55.5683 133.118C55.5683 133.091 55.5683 133.054 55.5683 133.027C55.5683 133 55.5683 132.963 55.5683 132.936C55.5683 132.908 55.5683 132.872 55.5683 132.845C55.5683 132.817 55.5683 132.781 55.5683 132.754C55.5683 132.726 55.5683 132.69 55.5683 132.662C55.5683 132.635 55.5683 132.599 55.5683 132.571C55.5683 132.544 55.5683 132.507 55.5683 132.48C55.5683 132.453 55.5683 132.416 55.5683 132.389C55.5683 132.362 55.5683 132.325 55.5683 132.298C55.5683 132.27 55.5683 132.234 55.5683 132.207C55.5683 132.179 55.5683 132.143 55.5683 132.115C55.5683 132.088 55.5683 132.052 55.5683 132.024C55.5683 131.997 55.5683 131.961 55.5683 131.933C55.5683 131.906 55.5683 131.869 55.5683 131.842C55.5683 131.815 55.5683 131.778 55.5683 131.751C55.5683 131.724 55.5683 131.687 55.5683 131.66C55.5683 131.632 55.5683 131.596 55.5683 131.569C55.5683 131.541 55.5683 131.505 55.5683 131.477C55.5683 131.45 55.5683 131.414 55.5683 131.386C55.5683 131.359 55.5683 131.323 55.5683 131.295C55.5683 131.268 55.5683 131.231 55.5683 131.204C55.5683 131.177 55.5683 131.14 55.5683 131.113C55.5683 131.085 55.5683 131.049 55.5683 131.022C55.5683 130.994 55.5683 130.958 55.5683 130.931C55.5683 130.903 55.5683 130.867 55.5683 130.839C55.5683 130.812 55.5683 130.776 55.5683 130.748C55.5683 130.721 55.5683 130.684 55.5683 130.657C55.5683 130.63 55.5683 130.593 55.5683 130.566C55.5683 130.539 55.5683 130.502 55.5683 130.475C55.5683 130.447 55.5683 130.411 55.5683 130.384C55.5683 130.356 55.5683 130.32 55.5683 130.292C55.5683 130.265 55.5683 130.229 55.5683 130.201C55.5683 130.174 55.5683 130.138 55.5683 130.11C55.5683 130.083 55.5683 130.046 55.5683 130.019C55.5683 129.992 55.5683 129.955 55.5683 129.928C55.5683 129.901 55.5683 129.864 55.5683 129.837C55.5683 129.809 55.5683 129.773 55.5683 129.746C55.5683 129.718 55.5683 129.682 55.5683 129.654C55.5683 129.627 55.5683 129.591 55.5683 129.563C55.5683 129.536 55.5683 129.5 55.5683 129.472C55.5683 129.445 55.5683 129.408 55.5683 129.381C55.5683 129.354 55.5683 129.317 55.5683 129.29C55.5683 129.262 55.5683 129.226 55.5683 129.199C55.5683 129.171 55.5683 129.135 55.5683 129.108C55.5683 129.08 55.5683 129.044 55.5683 129.016C55.5683 128.989 55.5683 128.953 55.5683 128.925C55.5683 128.898 55.5683 128.861 55.5683 128.834C55.5683 128.807 55.5683 128.77 55.5683 128.743C55.5683 128.716 55.5683 128.679 55.5683 128.652C55.5683 128.624 55.5683 128.588 55.5683 128.561C55.5683 128.533 55.5683 128.497 55.5683 128.469C55.5683 128.442 55.5683 128.406 55.5683 128.378C55.5683 128.351 55.5683 128.315 55.5683 128.287C55.5683 128.26 55.5683 128.223 55.5683 128.196C55.5683 128.169 55.5683 128.132 55.5683 128.105C55.5683 128.078 55.5683 128.041 55.5683 128.014C55.5683 127.986 55.5683 127.95 55.5683 127.923C55.5683 127.895 55.5683 127.859 55.5683 127.831C55.5683 127.804 55.5683 127.768 55.5683 127.74C55.5683 127.713 55.5683 127.677 55.5683 127.649C55.5683 127.622 55.5683 127.585 55.5683 127.558C55.5683 127.531 55.5683 127.494 55.5683 127.467C55.5683 127.439 55.5683 127.403 55.5683 127.376C55.5683 127.348 55.5683 127.312 55.5683 127.285C55.5683 127.257 55.5683 127.221 55.5683 127.193C55.5683 127.166 55.5683 127.13 55.5683 127.102C55.5683 127.075 55.5683 127.038 55.5683 127.011C55.5683 126.984 55.5683 126.947 55.5683 126.92C55.5683 126.893 55.5683 126.856 55.5683 126.829C55.5683 126.801 55.5683 126.765 55.5683 126.738C55.5683 126.71 55.5683 126.674 55.5683 126.646C55.5683 126.619 55.5683 126.583 55.5683 126.555C55.5683 126.528 55.5683 126.491 55.5683 126.464C55.5683 126.437 55.5683 126.4 55.5683 126.373C55.5683 126.346 55.5683 126.309 55.5683 126.282C55.5683 126.255 55.5683 126.218 55.5683 126.191C55.5683 126.163 55.5683 126.127 55.5683 126.1C55.5683 126.072 55.5683 126.036 55.5683 126.008C55.5683 125.981 55.5683 125.945 55.5683 125.917C55.5683 125.89 55.5683 125.853 55.5683 125.826C55.5683 125.799 55.5683 125.762 55.5683 125.735C55.5683 125.708 55.5683 125.671 55.5683 125.644C55.5683 125.616 55.5683 125.58 55.5683 125.553C55.5683 125.525 55.5683 125.489 55.5683 125.462C55.5683 125.434 55.5683 125.398 55.5683 125.37C55.5683 125.343 55.5683 125.306 55.5683 125.279C55.5683 125.252 55.5683 125.215 55.5683 125.188C55.5683 125.161 55.5683 125.124 55.5683 125.097C55.5683 125.07 55.5683 125.033 55.5683 125.006C55.5683 124.978 55.5683 124.942 55.5683 124.915C55.5683 124.887 55.5683 124.851 55.5683 124.823C55.5683 124.796 55.5683 124.76 55.5683 124.732C55.5683 124.705 55.5683 124.668 55.5683 124.641C55.5683 124.614 55.5683 124.577 55.5683 124.55C55.5683 124.523 55.5683 124.486 55.5683 124.459C55.5683 124.432 55.5683 124.395 55.5683 124.368C55.5683 124.34 55.5683 124.304 55.5683 124.277C55.5683 124.249 55.5683 124.213 55.5683 124.185C55.5683 124.158 55.5683 124.122 55.5683 124.094C55.5683 124.067 55.5683 124.03 55.5683 124.003C55.5683 123.976 55.5683 123.939 55.5683 123.912C55.5683 123.885 55.5683 123.848 55.5683 123.821C55.5683 123.793 55.5683 123.757 55.5683 123.73C55.5683 123.702 55.5683 123.666 55.5683 123.639C55.5683 123.611 55.5683 123.575 55.5683 123.547C55.5683 123.52 55.5683 123.483 55.5683 123.456C55.5683 123.429 55.5683 123.392 55.5683 123.365C55.5683 123.338 55.5683 123.301 55.5683 123.274C55.5683 123.247 55.5683 123.21 55.5683 123.183C55.5683 123.155 55.5683 123.119 55.5683 123.092C55.5683 123.064 55.5683 123.028 55.5683 123C55.5683 122.973 55.5683 122.937 55.5683 122.909C55.5683 122.882 55.5683 122.845 55.5683 122.818C55.5683 122.791 55.5683 122.754 55.5683 122.727C55.5683 122.7 55.5683 122.663 55.5683 122.636C55.5683 122.609 55.5683 122.572 55.5683 122.545C55.5683 122.517 55.5683 122.481 55.5683 122.454C55.5683 122.426 55.5683 122.39 55.5683 122.362C55.5683 122.335 55.5683 122.299 55.5683 122.271C55.5683 122.244 55.5683 122.207 55.5683 122.18C55.5683 122.153 55.5683 122.116 55.5683 122.089C55.5683 122.062 55.5683 122.025 55.5683 121.998C55.5683 121.97 55.5683 121.934 55.5683 121.907C55.5683 121.879 55.5683 121.843 55.5683 121.815C55.5683 121.788 55.5683 121.752 55.5683 121.724C55.5683 121.697 55.5683 121.66 55.5683 121.633C55.5683 121.606 55.5683 121.569 55.5683 121.542C55.5683 121.515 55.5683 121.478 55.5683 121.451C55.5683 121.424 55.5683 121.387 55.5683 121.36C55.5683 121.332 55.5683 121.296 55.5683 121.269C55.5683 121.241 55.5683 121.205 55.5683 121.177C55.5683 121.15 55.5683 121.114 55.5683 121.086C55.5683 121.059 55.5683 121.022 55.5683 120.995C55.5683 120.968 55.5683 120.931 55.5683 120.904C55.5683 120.877 55.5683 120.84 55.5683 120.813C55.5683 120.786 55.5683 120.749 55.5683 120.722C55.5683 120.694 55.5683 120.658 55.5683 120.63C55.5683 120.603 55.5683 120.567 55.5683 120.539C55.5683 120.512 55.5683 120.476 55.5683 120.448C55.5683 120.421 55.5683 120.384 55.5683 120.357C55.5683 120.33 55.5683 120.293 55.5683 120.266C55.5683 120.239 55.5683 120.202 55.5683 120.175C55.5683 120.147 55.5683 120.111 55.5683 120.084C55.5683 120.056 55.5683 120.02 55.5683 119.992C55.5683 119.965 55.5683 119.929 55.5683 119.901C55.5683 119.874 55.5683 119.837 55.5683 119.81C55.5683 119.783 55.5683 119.746 55.5683 119.719C55.5683 119.692 55.5683 119.655 55.5683 119.628C55.5683 119.601 55.5683 119.564 55.5683 119.537C55.5683 119.509 55.5683 119.473 55.5683 119.446C55.5683 119.418 55.5683 119.382 55.5683 119.354C55.5683 119.327 55.5683 119.291 55.5683 119.263C55.5683 119.236 55.5683 119.199 55.5683 119.172C55.5683 119.145 55.5683 119.108 55.5683 119.081C55.5683 119.054 55.5683 119.017 55.5683 118.99C55.5683 118.963 55.5683 118.926 55.5683 118.899C55.5683 118.871 55.5683 118.835 55.5683 118.807C55.5683 118.78 55.5683 118.744 55.5683 118.716C55.5683 118.689 55.5683 118.653 55.5683 118.625C55.5683 118.598 55.5683 118.561 55.5683 118.534C55.5683 118.507 55.5683 118.47 55.5683 118.443C55.5683 118.416 55.5683 118.379 55.5683 118.352C55.5683 118.324 55.5683 118.288 55.5683 118.261C55.5683 118.233 55.5683 118.197 55.5683 118.169C55.5683 118.142 55.5683 118.106 55.5683 118.078C55.5683 118.051 55.5683 118.014 55.5683 117.987C55.5683 117.96 55.5683 117.923 55.5683 117.896C55.5683 117.869 55.5683 117.832 55.5683 117.805C55.5683 117.778 55.5683 117.741 55.5683 117.714C55.5683 117.686 55.5683 117.65 55.5683 117.623C55.5683 117.595 55.5683 117.559 55.5683 117.531C55.5683 117.504 55.5683 117.468 55.5683 117.44C55.5683 117.413 55.5683 117.376 55.5683 117.349C55.5683 117.322 55.5683 117.285 55.5683 117.258C55.5683 117.231 55.5683 117.194 55.5683 117.167C55.5683 117.139 55.5683 117.103 55.5683 117.076C55.5683 117.048 55.5683 117.012 55.5683 116.984C55.5683 116.957 55.5683 116.921 55.5683 116.893C55.5683 116.866 55.5683 116.83 55.5683 116.802C55.5683 116.775 55.5683 116.738 55.5683 116.711C55.5683 116.684 55.5683 116.647 55.5683 116.62C55.5683 116.593 55.5683 116.556 55.5683 116.529C55.5683 116.501 55.5683 116.465 55.5683 116.438C55.5683 116.41 55.5683 116.374 55.5683 116.346C55.5683 116.319 55.5683 116.283 55.5683 116.255C55.5683 116.228 55.5683 116.191 55.5683 116.164C55.5683 116.137 55.5683 116.1 55.5683 116.073C55.5683 116.046 55.5683 116.009 55.5683 115.982C55.5683 115.954 55.5683 115.918 55.5683 115.891C55.5683 115.863 55.5683 115.827 55.5683 115.8C55.5683 115.772 55.5683 115.736 55.5683 115.708C55.5683 115.681 55.5683 115.645 55.5683 115.617C55.5683 115.59 55.5683 115.553 55.5683 115.526C55.5683 115.499 55.5683 115.462 55.5683 115.435C55.5683 115.408 55.5683 115.371 55.5683 115.344C55.5683 115.316 55.5683 115.28 55.5683 115.253C55.5683 115.225 55.5683 115.189 55.5683 115.161C55.5683 115.134 55.5683 115.098 55.5683 115.07C55.5683 115.043 55.5683 115.007 55.5683 114.979C55.5683 114.952 55.5683 114.915 55.5683 114.888C55.5683 114.861 55.5683 114.824 55.5683 114.797C55.5683 114.769 55.5683 114.733 55.5683 114.706C55.5683 114.678 55.5683 114.642 55.5683 114.615C55.5683 114.587 55.5683 114.551 55.5683 114.523C55.5683 114.496 55.5683 114.46 55.5683 114.432C55.5683 114.405 55.5683 114.368 55.5683 114.341C55.5683 114.314 55.5683 114.277 55.5683 114.25C55.5683 114.223 55.5683 114.186 55.5683 114.159C55.5683 114.131 55.5683 114.095 55.5683 114.068C55.5683 114.04 55.5683 114.004 55.5683 113.977C55.5683 113.949 55.5683 113.913 55.5683 113.885C55.5683 113.858 55.5683 113.822 55.5683 113.794C55.5683 113.767 55.5683 113.73 55.5683 113.703C55.5683 113.676 55.5683 113.639 55.5683 113.612C55.5683 113.585 55.5683 113.548 55.5683 113.521C55.5683 113.493 55.5683 113.457 55.5683 113.43C55.5683 113.402 55.5683 113.366 55.5683 113.338C55.5683 113.311 55.5683 113.275 55.5683 113.247C55.5683 113.22 55.5683 113.184 55.5683 113.156C55.5683 113.129 55.5683 113.092 55.5683 113.065C55.5683 113.038 55.5683 113.001 55.5683 112.974C55.5683 112.946 55.5683 112.91 55.5683 112.883C55.5683 112.855 55.5683 112.819 55.5683 112.792C55.5683 112.764 55.5683 112.728 55.5683 112.7C55.5683 112.673 55.5683 112.637 55.5683 112.609C55.5683 112.582 55.5683 112.545 55.5683 112.518C55.5683 112.491 55.5683 112.454 55.5683 112.427C55.5683 112.4 55.5683 112.363 55.5683 112.336C55.5683 112.308 55.5683 112.272 55.5683 112.245C55.5683 112.217 55.5683 112.181 55.5683 112.154C55.5683 112.126 55.5683 112.09 55.5683 112.062C55.5683 112.035 55.5683 111.999 55.5683 111.971C55.5683 111.944 55.5683 111.907 55.5683 111.88C55.5683 111.853 55.5683 111.816 55.5683 111.789C55.5683 111.762 55.5763 111.725 55.5683 111.698Z" fill="url(#paint1_linear_2198_18540)"/>
<path opacity="0.3" d="M27.8332 135.414C25.4305 136.909 24.125 138.814 24.125 140.856V104.487L27.8332 135.414Z" fill="url(#paint2_linear_2198_18540)"/>
<path opacity="0.8" d="M42.8477 118.158C45.3865 117.921 47.7492 117.356 49.7754 116.508V145.767C47.7572 146.615 45.3865 147.171 42.8477 147.417V118.158Z" fill="url(#paint3_linear_2198_18540)"/>
<path opacity="0.8" d="M33.2947 128.526V146.71C32.4938 146.519 31.7249 146.291 30.9961 146.017V127.833C31.7249 128.106 32.4938 128.334 33.2947 128.526Z" fill="url(#paint4_linear_2198_18540)"/>
<path opacity="0.5" d="M32.3975 117.55L32.1331 123.602C32.1251 123.794 32.2613 123.958 32.4375 123.958C32.6137 123.958 32.7498 123.794 32.7418 123.602L32.3975 117.55Z" fill="url(#paint5_linear_2198_18540)"/>
<path opacity="0.5" d="M25.9043 120.268L25.6801 125.418C25.6721 125.582 25.7922 125.719 25.9364 125.719C26.0885 125.719 26.2007 125.582 26.1927 125.418L25.9043 120.268Z" fill="url(#paint6_linear_2198_18540)"/>
<path opacity="0.5" d="M39.8223 123.974L39.598 129.124C39.59 129.288 39.7102 129.425 39.8543 129.425C40.0065 129.425 40.1186 129.288 40.1106 129.124L39.8223 123.974Z" fill="url(#paint7_linear_2198_18540)"/>
<path opacity="0.5" d="M36.4025 121.767L35.8659 133.863C35.8499 134.246 36.1222 134.565 36.4666 134.565C36.811 134.565 37.0913 134.237 37.0673 133.854L36.4025 121.767Z" fill="url(#paint8_linear_2198_18540)"/>
<path opacity="0.5" d="M47.3029 127.239L46.7663 139.335C46.7503 139.718 47.0226 140.037 47.367 140.037C47.7194 140.037 47.9917 139.709 47.9676 139.326L47.3029 127.239Z" fill="url(#paint9_linear_2198_18540)"/>
<path opacity="0.5" d="M51.9875 127.737L51.7152 133.972C51.7072 134.173 51.8513 134.337 52.0275 134.337C52.2037 134.337 52.3479 134.163 52.3399 133.972L51.9875 127.737Z" fill="url(#paint10_linear_2198_18540)"/>
<path opacity="0.5" d="M40.5848 130.558L40.1923 139.455C40.1763 139.737 40.3845 139.974 40.6328 139.974C40.8891 139.974 41.0893 139.737 41.0733 139.446L40.5848 130.558Z" fill="url(#paint11_linear_2198_18540)"/>
<path opacity="0.5" d="M32.2708 138.503L32.0786 142.951C32.0705 143.088 32.1746 143.206 32.3028 143.206C32.4309 143.206 32.5351 143.088 32.5271 142.942L32.2708 138.503Z" fill="url(#paint12_linear_2198_18540)"/>
<path d="M14.6981 33.0337C19.8478 36.4154 24.0365 33.6626 24.0365 26.8993C24.0365 24.6752 23.58 22.2961 22.7871 19.9809L27.6806 18.5863C29.3465 21.7128 31.573 24.4382 34.0238 26.0425C36.4104 27.6102 38.5889 27.8472 40.2387 26.9904L43.9309 33.6809C43.17 34.8476 42.6975 36.4701 42.6174 38.4936C42.3611 45.0838 46.3335 53.4696 51.4753 57.1886C51.6355 57.3071 51.7957 57.4165 51.9478 57.5168C56.8814 60.7617 61.022 58.3736 61.2703 51.9839C61.3824 49.2129 60.7497 46.0591 59.4843 42.96L65.435 37.1446C66.6444 38.7944 67.9819 40.1799 69.3914 41.2008C69.5516 41.3193 69.7118 41.4287 69.872 41.538C72.1866 43.0603 74.389 43.3975 76.119 42.4769C77.9691 41.4925 79.0583 39.1955 79.1864 36.0052C79.4427 29.415 75.4702 21.0292 70.3285 17.3102C67.8377 15.4963 65.443 15.0588 63.5929 16.0433C61.7428 17.0277 60.6536 19.3247 60.5255 22.5149C60.4053 25.4773 61.1422 28.8863 62.5918 32.186L56.7532 37.892C55.4478 36.0052 53.9661 34.4283 52.4044 33.2981C50.1779 31.6756 48.0875 31.2016 46.4137 31.7302L42.4572 24.5567C43.0339 23.3444 43.3622 21.7949 43.3622 19.9172C43.3622 13.1538 39.1735 4.89554 34.0238 1.50474C28.874 -1.87694 24.6853 0.875788 24.6853 7.63916C24.6853 9.43482 24.9896 11.3399 25.5182 13.2358L20.3284 14.7124C18.7586 12.1147 16.8044 9.88146 14.69 8.49598C9.54027 5.11429 5.35156 7.86702 5.35156 14.6304C5.35957 21.3938 9.54828 29.652 14.6981 33.0337ZM66.0757 21.257C67.1249 20.701 68.4544 20.9016 69.8559 21.8222C69.9521 21.886 70.0481 21.9498 70.1443 22.0227C73.2517 24.2742 75.6544 29.3421 75.5023 33.3254C75.4302 35.2578 74.7654 36.6433 73.6522 37.2358C72.5309 37.8282 71.0973 37.5639 69.5836 36.4701C68.078 35.3763 66.6924 33.608 65.6833 31.4659C64.6741 29.333 64.1536 27.0907 64.2337 25.1674C64.2977 23.2441 64.9544 21.8586 66.0757 21.257ZM51.9398 37.81C52.036 37.8738 52.1321 37.9376 52.2282 38.0105C53.7338 39.1043 55.1194 40.8726 56.1285 43.0147C57.1377 45.1476 57.6583 47.3899 57.5782 49.3223C57.418 53.3056 54.759 54.7002 51.6515 52.467C48.544 50.2156 46.1413 45.1476 46.2935 41.1643C46.4537 37.2996 48.9605 35.8503 51.9398 37.81ZM34.0238 6.35396C37.1392 8.39573 39.6701 13.3907 39.6701 17.4834C39.6701 21.5761 37.1392 23.235 34.0238 21.1932C30.9083 19.1515 28.3774 14.1565 28.3774 10.0638C28.3774 5.97113 30.9163 4.30307 34.0238 6.35396ZM14.6981 13.3361C17.8136 15.3778 20.3444 20.3729 20.3444 24.4656C20.3444 28.5582 17.8136 30.2263 14.6981 28.1754C11.5826 26.1336 9.05171 21.1386 9.05171 17.0459C9.05171 12.9532 11.5826 11.2943 14.6981 13.3361Z" fill="#273C7F"/>
<path d="M77.7856 125.836V64.7832L61.9358 54.3647V115.417L59.8695 114.059V88.6919L44.0197 78.2734V103.65L41.9534 102.292V51.0923L26.1036 40.6738V91.8731L24.0373 90.5149V54.237L8.18748 43.8185V80.0964L1.66016 75.8123V84.2256L84.0006 138.333V129.919L77.7856 125.836ZM65.6279 61.6567L74.0934 67.2169V122.673L65.6279 117.113V61.6567ZM47.7118 85.5473L56.1773 91.1074V110.887L47.7118 105.327V85.5473ZM29.7957 47.9567L38.2612 53.517V99.1195L29.7957 93.5594V47.9567ZM11.8716 51.1014L20.3371 56.6617V87.3429L11.8716 81.7827V51.1014Z" fill="#273C7F"/>
<defs>
<radialGradient id="paint0_radial_2198_18540" cx="0" cy="0" r="1" gradientUnits="userSpaceOnUse" gradientTransform="translate(39.9857 140.853) scale(21.5331 11.3737)">
<stop stop-color="#39F0CF"/>
<stop offset="0.1389" stop-color="#37EBCE"/>
<stop offset="0.3045" stop-color="#31DCCA"/>
<stop offset="0.4837" stop-color="#27C4C5"/>
<stop offset="0.6725" stop-color="#1AA3BD"/>
<stop offset="0.867" stop-color="#0978B3"/>
<stop offset="0.9523" stop-color="#0063AE"/>
</radialGradient>
<linearGradient id="paint1_linear_2198_18540" x1="39.9584" y1="102.904" x2="39.6841" y2="148.711" gradientUnits="userSpaceOnUse">
<stop stop-color="#231F20"/>
<stop offset="0.0255" stop-color="#312D2E"/>
<stop offset="0.1218" stop-color="#615E5F"/>
<stop offset="0.2233" stop-color="#8B898A"/>
<stop offset="0.3284" stop-color="#AFAEAE"/>
<stop offset="0.4379" stop-color="#CCCBCB"/>
<stop offset="0.5534" stop-color="#E3E2E2"/>
<stop offset="0.6775" stop-color="#F3F2F2"/>
<stop offset="0.8163" stop-color="#FCFCFC"/>
<stop offset="1" stop-color="white"/>
</linearGradient>
<linearGradient id="paint2_linear_2198_18540" x1="23.611" y1="104.437" x2="26.895" y2="140.507" gradientUnits="userSpaceOnUse">
<stop stop-color="#231F20"/>
<stop offset="0.1758" stop-color="#1E343F"/>
<stop offset="0.5616" stop-color="#106B8E"/>
<stop offset="1" stop-color="#00AEEF"/>
</linearGradient>
<linearGradient id="paint3_linear_2198_18540" x1="46.2259" y1="115.773" x2="46.4316" y2="145.606" gradientUnits="userSpaceOnUse">
<stop stop-color="#231F20"/>
<stop offset="0.1758" stop-color="#1E343F"/>
<stop offset="0.5616" stop-color="#106B8E"/>
<stop offset="1" stop-color="#00AEEF"/>
</linearGradient>
<linearGradient id="paint4_linear_2198_18540" x1="32.2861" y1="128.382" x2="31.9202" y2="146.139" gradientUnits="userSpaceOnUse">
<stop stop-color="#231F20"/>
<stop offset="0.1758" stop-color="#1E343F"/>
<stop offset="0.5616" stop-color="#106B8E"/>
<stop offset="1" stop-color="#00AEEF"/>
</linearGradient>
<linearGradient id="paint5_linear_2198_18540" x1="32.5264" y1="117.731" x2="32.402" y2="123.77" gradientUnits="userSpaceOnUse">
<stop stop-color="#231F20"/>
<stop offset="0.1104" stop-color="#222326"/>
<stop offset="0.2512" stop-color="#1F2E35"/>
<stop offset="0.4086" stop-color="#1B4050"/>
<stop offset="0.5779" stop-color="#155974"/>
<stop offset="0.7569" stop-color="#0D79A3"/>
<stop offset="0.9413" stop-color="#03A0DB"/>
<stop offset="1" stop-color="#00AEEF"/>
</linearGradient>
<linearGradient id="paint6_linear_2198_18540" x1="26.016" y1="120.419" x2="25.9101" y2="125.562" gradientUnits="userSpaceOnUse">
<stop stop-color="#231F20"/>
<stop offset="0.1104" stop-color="#222326"/>
<stop offset="0.2512" stop-color="#1F2E35"/>
<stop offset="0.4086" stop-color="#1B4050"/>
<stop offset="0.5779" stop-color="#155974"/>
<stop offset="0.7569" stop-color="#0D79A3"/>
<stop offset="0.9413" stop-color="#03A0DB"/>
<stop offset="1" stop-color="#00AEEF"/>
</linearGradient>
<linearGradient id="paint7_linear_2198_18540" x1="39.93" y1="124.126" x2="39.824" y2="129.268" gradientUnits="userSpaceOnUse">
<stop stop-color="#231F20"/>
<stop offset="0.1104" stop-color="#222326"/>
<stop offset="0.2512" stop-color="#1F2E35"/>
<stop offset="0.4086" stop-color="#1B4050"/>
<stop offset="0.5779" stop-color="#155974"/>
<stop offset="0.7569" stop-color="#0D79A3"/>
<stop offset="0.9413" stop-color="#03A0DB"/>
<stop offset="1" stop-color="#00AEEF"/>
</linearGradient>
<linearGradient id="paint8_linear_2198_18540" x1="36.6586" y1="122.128" x2="36.4097" y2="134.206" gradientUnits="userSpaceOnUse">
<stop stop-color="#231F20"/>
<stop offset="0.1104" stop-color="#222326"/>
<stop offset="0.2512" stop-color="#1F2E35"/>
<stop offset="0.4086" stop-color="#1B4050"/>
<stop offset="0.5779" stop-color="#155974"/>
<stop offset="0.7569" stop-color="#0D79A3"/>
<stop offset="0.9413" stop-color="#03A0DB"/>
<stop offset="1" stop-color="#00AEEF"/>
</linearGradient>
<linearGradient id="paint9_linear_2198_18540" x1="47.5593" y1="127.594" x2="47.3106" y2="139.672" gradientUnits="userSpaceOnUse">
<stop stop-color="#231F20"/>
<stop offset="0.1838" stop-color="#222123"/>
<stop offset="0.3265" stop-color="#21282D"/>
<stop offset="0.4555" stop-color="#1E333D"/>
<stop offset="0.5763" stop-color="#1A4355"/>
<stop offset="0.6915" stop-color="#155873"/>
<stop offset="0.8024" stop-color="#0F7298"/>
<stop offset="0.9078" stop-color="#078FC3"/>
<stop offset="1" stop-color="#00AEEF"/>
</linearGradient>
<linearGradient id="paint10_linear_2198_18540" x1="52.1209" y1="127.917" x2="51.9927" y2="134.144" gradientUnits="userSpaceOnUse">
<stop stop-color="#231F20"/>
<stop offset="0.1104" stop-color="#222326"/>
<stop offset="0.2512" stop-color="#1F2E35"/>
<stop offset="0.4086" stop-color="#1B4050"/>
<stop offset="0.5779" stop-color="#155974"/>
<stop offset="0.7569" stop-color="#0D79A3"/>
<stop offset="0.9413" stop-color="#03A0DB"/>
<stop offset="1" stop-color="#00AEEF"/>
</linearGradient>
<linearGradient id="paint11_linear_2198_18540" x1="40.7765" y1="130.82" x2="40.5936" y2="139.699" gradientUnits="userSpaceOnUse">
<stop stop-color="#231F20"/>
<stop offset="0.1104" stop-color="#222326"/>
<stop offset="0.2512" stop-color="#1F2E35"/>
<stop offset="0.4086" stop-color="#1B4050"/>
<stop offset="0.5779" stop-color="#155974"/>
<stop offset="0.7569" stop-color="#0D79A3"/>
<stop offset="0.9413" stop-color="#03A0DB"/>
<stop offset="1" stop-color="#00AEEF"/>
</linearGradient>
<linearGradient id="paint12_linear_2198_18540" x1="32.3647" y1="138.633" x2="32.2732" y2="143.073" gradientUnits="userSpaceOnUse">
<stop stop-color="#231F20"/>
<stop offset="0.1104" stop-color="#222326"/>
<stop offset="0.2512" stop-color="#1F2E35"/>
<stop offset="0.4086" stop-color="#1B4050"/>
<stop offset="0.5779" stop-color="#155974"/>
<stop offset="0.7569" stop-color="#0D79A3"/>
<stop offset="0.9413" stop-color="#03A0DB"/>
<stop offset="1" stop-color="#00AEEF"/>
</linearGradient>
</defs>
</svg>
