<svg width="80" height="80" viewBox="0 0 80 80" fill="none" xmlns="http://www.w3.org/2000/svg">
<path d="M27.5408 68.0423L50.7813 67.918L55.0712 72.8722L23.2134 73.0425L27.5408 68.0423Z" fill="#2D3748"/>
<path d="M41.7836 56.0748L37.1499 56.0996L37.2292 70.9251L41.8629 70.9003L41.7836 56.0748Z" fill="#2D3748"/>
<path d="M71.726 19.03L6.99999 19.376C6.44771 19.379 6.00239 19.8291 6.00535 20.3813L6.20534 57.7955C6.2083 58.3478 6.6584 58.7931 7.21068 58.7901L71.9366 58.4441C72.4889 58.4412 72.9342 57.9911 72.9313 57.4388L72.7313 20.0246C72.7283 19.4724 72.2782 19.0271 71.726 19.03Z" fill="#2D3748"/>
<path d="M69.8767 20.1245L8.67235 20.4517C8.12007 20.4546 7.67476 20.9047 7.67771 21.457L7.86611 56.7016C7.86906 57.2539 8.31916 57.6992 8.87144 57.6963L70.0758 57.3691C70.628 57.3661 71.0734 56.916 71.0704 56.3638L70.882 21.1192C70.8791 20.5669 70.429 20.1216 69.8767 20.1245Z" fill="#A0AEC0"/>
<path d="M69.7265 21.0323L8.99756 21.3569L9.18379 56.1955L69.9127 55.8709L69.7265 21.0323Z" fill="#F7FAFC"/>
<path d="M38.5663 26.6245H17.21V48.574H38.5663V26.6245Z" fill="#CBD5E0"/>
<path d="M21.9556 42.8573C21.9556 41.5468 23.018 40.4844 24.3285 40.4844C25.639 40.4844 26.7014 41.5468 26.7014 42.8573V48.5739H21.9556V42.8573Z" fill="#4A5568"/>
<path d="M21.9556 33.1498C21.9556 31.8392 23.018 30.7769 24.3285 30.7769C25.639 30.7769 26.7014 31.8392 26.7014 33.1498V38.8663H21.9556V33.1498Z" fill="#4A5568"/>
<path d="M22.5488 33.6352C22.5488 32.6523 23.3455 31.8555 24.3284 31.8555C25.3113 31.8555 26.1081 32.6523 26.1081 33.6352V37.2577H22.5488V33.6352Z" fill="#A0AEC0"/>
<path d="M22.5933 43.2035C22.5933 42.2206 23.3901 41.4238 24.373 41.4238C25.3559 41.4238 26.1527 42.2206 26.1527 43.2035V46.826H22.5933V43.2035Z" fill="#A0AEC0"/>
<path d="M29.0747 42.8573C29.0747 41.5468 30.1371 40.4844 31.4476 40.4844C32.7581 40.4844 33.8205 41.5468 33.8205 42.8573V48.5739H29.0747V42.8573Z" fill="#4A5568"/>
<path d="M29.0747 33.1499C29.0747 31.8393 30.1371 30.7769 31.4476 30.7769C32.7581 30.7769 33.8205 31.8393 33.8205 33.1499V38.8664H29.0747V33.1499Z" fill="#4A5568"/>
<path d="M29.668 33.6352C29.668 32.6523 30.4648 31.8555 31.4477 31.8555C32.4306 31.8555 33.2274 32.6523 33.2274 33.6352V37.2577H29.668V33.6352Z" fill="#A0AEC0"/>
<path d="M29.668 43.3427C29.668 42.3598 30.4648 41.563 31.4477 41.563C32.4306 41.563 33.2274 42.3598 33.2274 43.3427V46.9652H29.668V43.3427Z" fill="#A0AEC0"/>
<path d="M27.5914 12.3867L40.6921 28.8488H14.4907L27.5914 12.3867Z" fill="#4A5568"/>
<path d="M27.6581 15.7632L38.4771 29.4375H17.1914L27.6581 15.7632Z" fill="#CBD5E0"/>
<path d="M26.1084 26.0312C26.1084 25.0483 26.9052 24.2515 27.8881 24.2515C28.871 24.2515 29.6678 25.0483 29.6678 26.0312V28.9973H26.1084V26.0312Z" fill="#A0AEC0"/>
<path d="M62.0214 24.6284H35.5786V51.8058H62.0214V24.6284Z" fill="#E2E8F0"/>
<path d="M41.4541 44.7276C41.4541 43.105 42.7695 41.7896 44.3922 41.7896C46.0149 41.7896 47.3303 43.1049 47.3303 44.7276V51.8058H41.4541V44.7276Z" fill="#002680"/>
<path d="M41.4541 32.7081C41.4541 31.0855 42.7695 29.77 44.3922 29.77C46.0149 29.77 47.3303 31.0855 47.3303 32.7081V39.7863H41.4541V32.7081Z" fill="#002680"/>
<path d="M42.1885 33.3091C42.1885 32.0921 43.1751 31.1055 44.3921 31.1055C45.6091 31.1055 46.5957 32.0921 46.5957 33.3091V37.7944H42.1885V33.3091Z" fill="#CBD5E0"/>
<path d="M42.2437 45.1561C42.2437 43.9391 43.2302 42.9526 44.4472 42.9526C45.6642 42.9526 46.6508 43.9391 46.6508 45.1561V49.6414H42.2437V45.1561Z" fill="#CBD5E0"/>
<path d="M50.2686 44.7276C50.2686 43.105 51.584 41.7896 53.2067 41.7896C54.8293 41.7896 56.1448 43.1049 56.1448 44.7276V51.8058H50.2686V44.7276Z" fill="#002680"/>
<path d="M50.2686 32.7081C50.2686 31.0854 51.584 29.77 53.2067 29.77C54.8293 29.77 56.1448 31.0854 56.1448 32.7081V39.7862H50.2686V32.7081Z" fill="#002680"/>
<path d="M51.0034 33.3091C51.0034 32.0921 51.9899 31.1055 53.2069 31.1055C54.4239 31.1055 55.4105 32.0921 55.4105 33.3091V37.7944H51.0034V33.3091Z" fill="#CBD5E0"/>
<path d="M51.0034 45.3286C51.0034 44.1116 51.9899 43.125 53.2069 43.125C54.4239 43.125 55.4105 44.1116 55.4105 45.3286V49.8139H51.0034V45.3286Z" fill="#CBD5E0"/>
<path d="M48.4324 7L64.6533 27.383H32.2114L48.4324 7Z" fill="#002680"/>
<path d="M48.5145 11.1807L61.9102 28.1119H35.5547L48.5145 11.1807Z" fill="#E2E8F0"/>
<path d="M46.5957 23.894C46.5957 22.677 47.5823 21.6904 48.7993 21.6904C50.0163 21.6904 51.0029 22.677 51.0029 23.894V27.5666H46.5957V23.894Z" fill="#CBD5E0"/>
</svg>
