<svg width="300" height="301" viewBox="0 0 300 301" fill="none" xmlns="http://www.w3.org/2000/svg">
<path d="M280.992 216.666L77.1304 214.89V220.146C77.1304 221.574 78.0184 222.786 79.2244 223.002L136.872 233.346C137.556 233.466 138.252 233.502 138.942 233.442L278.784 221.646C280.032 221.538 280.998 220.326 280.998 218.862V216.666H280.992Z" fill="url(#paint0_linear_6134_15896)"/>
<path d="M215.364 208.146L79.3744 217.758C76.9384 217.932 74.9644 216.102 74.9644 213.678V116.454C74.9644 114.03 76.9443 112.062 79.3744 112.062H215.37C217.374 112.062 218.994 113.838 218.994 116.034V203.916C218.994 206.112 217.368 208.008 215.364 208.146Z" fill="url(#paint1_linear_6134_15896)"/>
<path d="M217.536 208.146L81.5404 217.758C79.1044 217.932 77.1304 216.102 77.1304 213.678V116.454C77.1304 114.03 79.1104 112.062 81.5404 112.062H217.536C219.54 112.062 221.16 113.838 221.16 116.034V203.916C221.16 206.112 219.54 208.008 217.536 208.146Z" fill="url(#paint2_linear_6134_15896)"/>
<path d="M213.3 201.954L86.6344 210.3C84.6544 210.432 83.0464 208.932 83.0464 206.952V121.836C83.0464 119.856 84.6544 118.242 86.6344 118.236L213.3 117.714C214.956 117.708 216.294 119.166 216.294 120.966V198.492C216.288 200.292 214.95 201.84 213.3 201.954Z" fill="#002680"/>
<path d="M213.3 201.954L86.6344 210.3C84.6544 210.432 83.0464 208.932 83.0464 206.952V121.836C83.0464 119.856 84.6544 118.242 86.6344 118.236L213.3 117.714C214.956 117.708 216.294 119.166 216.294 120.966V198.492C216.288 200.292 214.95 201.84 213.3 201.954Z" fill="url(#paint3_linear_6134_15896)"/>
<path d="M214.14 207.714L77.1304 217.83L136.872 228.552C137.556 228.672 138.252 228.708 138.942 228.648L280.998 216.666L216.324 207.78C215.598 207.684 214.866 207.66 214.14 207.714Z" fill="url(#paint4_linear_6134_15896)"/>
<path d="M157.578 185.208C169.696 185.208 179.52 175.258 179.52 162.984C179.52 150.71 169.696 140.76 157.578 140.76C145.46 140.76 135.636 150.71 135.636 162.984C135.636 175.258 145.46 185.208 157.578 185.208Z" fill="white"/>
<path d="M156.81 174.953C155.856 174.953 154.974 174.449 154.482 173.621L146.226 159.707C145.452 158.405 145.872 156.713 147.156 155.933C148.44 155.153 150.108 155.573 150.882 156.875L156.612 166.535L164.184 151.469C164.862 150.113 166.5 149.579 167.838 150.263C169.176 150.953 169.704 152.609 169.026 153.965L159.228 173.459C158.778 174.353 157.89 174.923 156.9 174.959C156.87 174.953 156.84 174.953 156.81 174.953Z" fill="#002680"/>
<path d="M156.81 174.953C155.856 174.953 154.974 174.449 154.482 173.621L146.226 159.707C145.452 158.405 145.872 156.713 147.156 155.933C148.44 155.153 150.108 155.573 150.882 156.875L156.612 166.535L164.184 151.469C164.862 150.113 166.5 149.579 167.838 150.263C169.176 150.953 169.704 152.609 169.026 153.965L159.228 173.459C158.778 174.353 157.89 174.923 156.9 174.959C156.87 174.953 156.84 174.953 156.81 174.953Z" fill="url(#paint5_linear_6134_15896)"/>
<path opacity="0.3" d="M97.1226 218.081L211.189 209.531L246.493 214.343L133.405 223.481L97.1226 218.081Z" fill="url(#paint6_linear_6134_15896)"/>
<path opacity="0.48" d="M184.77 181.481C174.288 175.841 166.044 182.987 158.088 175.937C153.264 171.659 155.634 168.473 149.7 162.083C143.124 155.009 138.846 157.385 132.24 151.019C123.888 142.967 128.064 136.703 120.87 130.919C112.14 123.905 102.726 130.397 94.4222 123.671C90.8402 120.767 88.8722 116.549 87.8462 112.067H79.7162C78.2942 112.067 77.1362 113.219 77.1362 114.647V215.417C77.1362 216.839 78.2942 217.913 79.7162 217.811L218.316 207.971C218.994 207.923 219.6 207.527 219.984 206.951C209.838 206.579 203.604 203.177 199.62 199.661C191.82 192.791 193.176 186.005 184.77 181.481Z" fill="white"/>
<path d="M261.037 162.792V238.692C261.037 239.826 259.795 240.162 258.385 240.294L209.653 245.742L208.909 245.814C207.379 245.964 206.125 245.112 206.125 243.93V164.622C206.125 163.434 207.379 162.426 208.909 162.378L209.916 162.348L258.817 162.51C260.232 162.462 261.037 161.658 261.037 162.792Z" fill="url(#paint7_linear_6134_15896)"/>
<path d="M262.543 162.707V238.589C262.543 239.723 261.391 240.761 259.987 240.899L210.445 245.711C208.915 245.861 207.661 245.009 207.661 243.827V164.531C207.661 163.343 208.915 162.335 210.445 162.287L259.987 160.721C261.391 160.679 262.543 161.573 262.543 162.707Z" fill="url(#paint8_linear_6134_15896)"/>
<path d="M260.953 166.968V237.282C260.953 238.344 259.879 239.31 258.559 239.436L211.975 243.9C210.553 244.038 209.389 243.246 209.389 242.142V168.864C209.389 167.76 210.553 166.812 211.975 166.764L258.559 165.126C259.879 165.084 260.953 165.912 260.953 166.968Z" fill="#002680"/>
<path d="M253.53 197.843C253.53 207.341 245.874 215.555 236.406 216.185C226.902 216.821 219.174 209.591 219.174 200.033C219.174 190.475 226.902 182.255 236.406 181.679C245.874 181.109 253.53 188.345 253.53 197.843Z" fill="white"/>
<path d="M235.8 208.271C235.056 208.319 234.36 207.971 233.976 207.353L227.502 196.955C226.896 195.983 227.22 194.645 228.234 193.973C229.242 193.301 230.55 193.547 231.156 194.519L235.65 201.737L241.578 189.665C242.112 188.579 243.39 188.087 244.434 188.555C245.478 189.023 245.892 190.283 245.364 191.363L237.708 206.975C237.36 207.689 236.658 208.181 235.89 208.259C235.848 208.271 235.824 208.271 235.8 208.271Z" fill="#002680"/>
<path d="M235.8 208.271C235.056 208.319 234.36 207.971 233.976 207.353L227.502 196.955C226.896 195.983 227.22 194.645 228.234 193.973C229.242 193.301 230.55 193.547 231.156 194.519L235.65 201.737L241.578 189.665C242.112 188.579 243.39 188.087 244.434 188.555C245.478 189.023 245.892 190.283 245.364 191.363L237.708 206.975C237.36 207.689 236.658 208.181 235.89 208.259C235.848 208.271 235.824 208.271 235.8 208.271Z" fill="url(#paint9_linear_6134_15896)"/>
<g opacity="0.48">
<path d="M246.529 206.369C242.023 197.327 231.487 199.481 227.533 189.617C225.175 183.731 228.109 180.941 226.339 173.765C225.139 168.905 222.529 165.035 219.565 161.999L210.445 162.287C208.915 162.335 207.661 163.343 207.661 164.531V243.827C207.661 245.015 208.915 245.861 210.445 245.711L250.309 241.841C247.357 237.737 246.091 233.879 245.635 230.531C244.225 220.151 250.531 214.403 246.529 206.369Z" fill="white"/>
</g>
<path d="M288.019 194.531V246.911C288.019 247.697 287.347 247.913 286.591 247.991L260.443 251.231L260.047 251.273C259.231 251.357 258.559 250.763 258.559 249.947V195.455C258.559 194.639 259.231 193.955 260.047 193.931L260.587 193.913L286.831 194.315C287.587 194.297 288.019 193.751 288.019 194.531Z" fill="url(#paint10_linear_6134_15896)"/>
<path d="M288.829 194.483V246.857C288.829 247.643 288.211 248.345 287.449 248.423L260.857 251.213C260.041 251.297 259.369 250.703 259.369 249.887V195.407C259.369 194.591 260.041 193.907 260.857 193.883L287.449 193.097C288.211 193.079 288.829 193.697 288.829 194.483Z" fill="url(#paint11_linear_6134_15896)"/>
<path d="M287.977 197.417V245.945C287.977 246.677 287.395 247.337 286.687 247.409L261.685 249.995C260.923 250.073 260.299 249.515 260.299 248.759V198.401C260.299 197.645 260.923 197.003 261.685 196.973L286.687 196.133C287.395 196.103 287.977 196.685 287.977 197.417Z" fill="#002680"/>
<path d="M285.025 218.981C285.025 224.639 280.489 229.535 274.885 229.919C269.269 230.303 264.708 226.013 264.708 220.337C264.708 214.661 269.269 209.759 274.885 209.399C280.489 209.033 285.025 213.323 285.025 218.981Z" fill="white"/>
<path d="M274.53 225.209C274.092 225.239 273.678 225.035 273.45 224.663L269.622 218.489C269.262 217.913 269.454 217.115 270.054 216.713C270.648 216.311 271.422 216.455 271.782 217.031L274.434 221.315L277.938 214.127C278.25 213.479 279.006 213.185 279.624 213.461C280.242 213.737 280.488 214.487 280.176 215.129L275.646 224.429C275.436 224.855 275.028 225.149 274.572 225.197C274.56 225.209 274.542 225.209 274.53 225.209Z" fill="#002680"/>
<path d="M274.53 225.209C274.092 225.239 273.678 225.035 273.45 224.663L269.622 218.489C269.262 217.913 269.454 217.115 270.054 216.713C270.648 216.311 271.422 216.455 271.782 217.031L274.434 221.315L277.938 214.127C278.25 213.479 279.006 213.185 279.624 213.461C280.242 213.737 280.488 214.487 280.176 215.129L275.646 224.429C275.436 224.855 275.028 225.149 274.572 225.197C274.56 225.209 274.542 225.209 274.53 225.209Z" fill="url(#paint12_linear_6134_15896)"/>
<g opacity="0.48">
<path d="M280.188 225.852C277.764 219.75 271.224 221.19 269.184 215.028C267.522 209.994 271.218 207.048 269.772 201.222C268.962 197.952 266.958 195.522 264.918 193.77L260.868 193.89C260.052 193.914 259.38 194.598 259.38 195.414V249.894C259.38 250.71 260.052 251.304 260.868 251.22L281.256 249.084C279.618 246.504 278.964 244.146 278.73 242.19C277.878 235.062 282.408 231.444 280.188 225.852Z" fill="white"/>
</g>
<path d="M215.178 87.9954L217.956 87.9774C217.956 87.9774 224.616 79.6194 229.116 79.1574L229.536 55.6074C212.298 55.6674 197.082 65.2974 190.152 79.5414L215.178 87.9954Z" fill="#002680"/>
<path d="M248.436 98.4297C247.02 106.17 239.916 112.254 231.21 112.518C229.068 112.584 226.566 111.312 226.566 111.312C226.566 111.312 224.274 111.438 223.884 111.288L210.294 132.156C216.612 134.982 223.746 136.368 231.21 135.942C252.918 134.706 269.982 118.494 271.878 98.9817L248.436 98.4297Z" fill="#002680"/>
<path d="M206.04 129.96L208.758 130.056L219.756 109.032C215.652 106.02 213.018 101.328 213.018 96.0117C213.018 94.7277 213.174 93.4737 213.468 92.2677L191.07 83.8857L188.346 83.9157C186.996 87.8397 186.27 92.0157 186.27 96.3357C186.264 110.658 194.184 122.982 206.04 129.96Z" fill="#002680"/>
<path d="M233.874 79.2591C241.8 80.4291 247.896 86.5251 248.622 94.0551L286.956 95.1591C286.956 95.1531 286.956 95.1411 286.956 95.1351C286.956 95.1351 286.956 95.1231 286.956 95.1111C286.956 95.0811 292.734 94.1871 292.734 94.1871C292.734 93.9291 240.366 39.3291 240.366 39.3291L234.558 40.2771C234.558 40.2711 234.102 66.2631 233.874 79.2591Z" fill="#002680"/>
<path d="M217.92 87.9954C220.698 83.1774 225.864 79.7754 231.864 79.1574L232.284 55.6074C215.046 55.6674 199.83 65.2974 192.9 79.5414L217.92 87.9954Z" fill="#002680"/>
<path d="M217.92 87.9954C220.698 83.1774 225.864 79.7754 231.864 79.1574L232.284 55.6074C215.046 55.6674 199.83 65.2974 192.9 79.5414L217.92 87.9954Z" fill="url(#paint13_linear_6134_15896)"/>
<path d="M251.178 98.4297C249.762 106.17 242.658 112.254 233.952 112.518C231.354 112.596 228.876 112.152 226.626 111.282L213.036 132.15C219.354 134.976 226.488 136.362 233.952 135.936C255.66 134.7 272.724 118.488 274.62 98.9757L251.178 98.4297Z" fill="#002680"/>
<path d="M251.178 98.4297C249.762 106.17 242.658 112.254 233.952 112.518C231.354 112.596 228.876 112.152 226.626 111.282L213.036 132.15C219.354 134.976 226.488 136.362 233.952 135.936C255.66 134.7 272.724 118.488 274.62 98.9757L251.178 98.4297Z" fill="url(#paint14_linear_6134_15896)"/>
<path d="M208.782 129.959L222.498 109.025C218.394 106.013 215.76 101.321 215.76 96.0052C215.76 94.7212 215.916 93.4672 216.21 92.2612L191.088 83.9092C189.738 87.8332 189.012 92.0092 189.012 96.3292C189.006 110.657 196.926 122.981 208.782 129.959Z" fill="#002680"/>
<path d="M208.782 129.959L222.498 109.025C218.394 106.013 215.76 101.321 215.76 96.0052C215.76 94.7212 215.916 93.4672 216.21 92.2612L191.088 83.9092C189.738 87.8332 189.012 92.0092 189.012 96.3292C189.006 110.657 196.926 122.981 208.782 129.959Z" fill="url(#paint15_linear_6134_15896)"/>
<path d="M251.178 98.4297C249.762 106.17 242.658 112.254 233.952 112.518C231.354 112.596 228.876 112.152 226.626 111.282L213.036 132.15C219.354 134.976 226.488 136.362 233.952 135.936C255.66 134.7 272.724 118.488 274.62 98.9757L251.178 98.4297Z" fill="url(#paint16_linear_6134_15896)"/>
<path d="M239.652 78.2692C247.578 79.4392 253.674 85.5352 254.4 93.0652L292.734 94.1692C292.734 94.1512 292.734 94.1392 292.734 94.1212C292.734 66.2272 270.33 42.3532 240.336 39.2812L239.652 78.2692Z" fill="#002680"/>
<path d="M239.652 78.2692C247.578 79.4392 253.674 85.5352 254.4 93.0652L292.734 94.1692C292.734 94.1512 292.734 94.1392 292.734 94.1212C292.734 66.2272 270.33 42.3532 240.336 39.2812L239.652 78.2692Z" fill="url(#paint17_linear_6134_15896)"/>
<g opacity="0.3">
<path d="M228.708 111.953C227.994 111.773 227.298 111.551 226.62 111.287L213.03 132.155C219.348 134.981 226.482 136.367 233.946 135.941C239.976 135.599 245.646 134.099 250.74 131.693C245.604 130.919 241.02 128.987 237.354 125.771C233.184 122.105 230.484 116.999 228.708 111.953Z" fill="url(#paint18_linear_6134_15896)"/>
</g>
<path d="M75.2762 117.858C74.3882 115.416 75.6722 113.958 75.7082 112.632C75.7442 111.306 75.3422 110.13 76.0562 109.956C76.7702 109.782 77.6162 110.874 78.0842 116.628L75.2762 117.858Z" fill="#F9B384"/>
<path d="M74.4961 120.18L75.4261 123.93H81.2581L84.8221 115.962C85.3381 115.002 86.7301 111.144 86.6041 110.328C86.3701 108.81 84.5221 112.572 84.4381 112.632C84.7681 111.492 85.8841 107.904 85.3681 107.094C84.7501 106.128 82.8721 110.322 82.3861 111.582C82.6261 110.412 83.9881 105.99 83.3221 105.348C82.5241 104.58 80.6821 109.464 80.4001 110.994C80.4721 109.848 81.0241 105.93 80.2561 106.026C79.2001 106.158 77.3521 113.022 77.3521 113.022C77.3521 113.022 75.4501 115.884 74.4961 120.18Z" fill="#F9B384"/>
<path d="M83.6159 114.948C82.9559 114.33 82.2179 113.784 81.3899 113.382C80.9759 113.19 80.5319 113.034 80.0699 112.956C79.6139 112.884 79.1339 112.884 78.6899 113.004L78.7079 113.124C79.5959 113.058 80.4599 113.28 81.2519 113.664C82.0559 114.036 82.7879 114.552 83.5379 115.05L83.6159 114.948Z" fill="#E28B6D"/>
<path d="M78.084 114.492C78.474 114.504 78.846 114.66 78.996 114.996C79.152 115.32 79.182 115.71 79.152 116.094C79.128 116.478 79.05 116.868 78.936 117.246C78.828 117.624 78.696 117.996 78.504 118.338L78.6 118.41C78.876 118.092 79.05 117.714 79.194 117.324C79.332 116.934 79.428 116.532 79.458 116.112C79.476 115.698 79.458 115.254 79.224 114.864C79.176 114.762 79.08 114.69 79.008 114.606C78.918 114.54 78.822 114.474 78.72 114.432C78.612 114.408 78.504 114.372 78.402 114.366L78.084 114.372V114.492Z" fill="#E28B6D"/>
<path d="M53.6582 266.939L53.0942 259.739H62.7842L64.1282 262.775C64.6922 264.053 65.4662 265.217 66.3902 266.231C63.5222 267.743 59.0462 269.393 53.6582 266.939Z" fill="#F9B384"/>
<path d="M66.3963 266.231C67.7463 267.713 69.4263 268.889 71.3343 269.615L75.6663 271.271C76.8303 272.009 76.3083 273.815 74.9283 273.815H57.3783C55.5783 273.815 54.0843 272.429 53.9403 270.635L53.6523 266.933C59.0463 269.393 63.5223 267.743 66.3963 266.231Z" fill="#102048"/>
<path d="M29.9161 266.939L30.4801 259.739H20.7901L19.4461 262.775C18.8821 264.053 18.1081 265.217 17.1841 266.231C20.0521 267.743 24.5281 269.393 29.9161 266.939Z" fill="#F9B384"/>
<path d="M17.1781 266.231C15.8281 267.713 14.1481 268.889 12.2401 269.615L7.90813 271.271C6.74413 272.009 7.26613 273.815 8.64613 273.815H26.1901C27.9901 273.815 29.4841 272.429 29.6281 270.635L29.9161 266.933C24.5281 269.393 20.0521 267.743 17.1781 266.231Z" fill="#102048"/>
<path d="M18.354 261.125H35.034L44.094 190.979L48.804 222.851L49.782 261.119H65.442C66.672 231.413 65.118 199.493 59.988 164.729L59.64 159.203L59.244 152.903L27.744 155.213L27.366 159.509L26.634 167.699L18.354 261.125Z" fill="#002680"/>
<path d="M18.354 261.125H35.034L44.094 190.979L48.804 222.851L49.782 261.119H65.442C66.672 231.413 65.118 199.493 59.988 164.729L59.64 159.203L59.244 152.903L27.744 155.213L27.366 159.509L26.634 167.699L18.354 261.125Z" fill="url(#paint19_linear_6134_15896)"/>
<path opacity="0.6" d="M26.6279 167.7C29.5919 172.182 50.2799 172.026 60.0959 166.542L59.6339 159.21L27.3539 159.516L26.6279 167.7Z" fill="#102048"/>
<path d="M60.858 154.751C60.858 154.751 63.978 162.821 61.302 164.369C58.626 165.917 27.756 166.229 25.314 164.369C22.872 162.509 28.782 157.865 28.218 154.769C27.66 151.673 60.858 154.751 60.858 154.751Z" fill="#002680"/>
<path d="M63.4982 121.572C64.5842 123.972 68.6101 131.25 68.6101 131.25L74.4962 120.174C75.8162 121.242 77.3642 122.238 81.9782 122.304C81.9782 122.304 75.3482 146.814 69.3841 149.334C59.6042 153.468 57.3062 134.964 57.3062 134.964L63.4982 121.572Z" fill="#002680"/>
<path d="M63.498 121.571L61.908 117.833C61.278 116.351 60.162 115.085 58.698 114.407C58.56 114.341 58.416 114.281 58.272 114.227C55.506 113.177 50.37 111.527 45.612 111.581C43.908 111.581 37.566 111.503 27.27 114.137L24.396 150.923L58.47 150.227L63.498 121.571Z" fill="#002680"/>
<path opacity="0.3" d="M33.0899 121.571C32.2919 135.395 33.4079 150.251 41.4539 151.211L32.1539 153.827L22.1699 148.481L26.1179 126.719L33.0899 121.571Z" fill="#1F3C88"/>
<path d="M31.5782 113.142C29.5262 113.592 26.0942 114.066 24.3902 115.224C22.6862 116.388 17.8862 141.246 16.6442 146.976C15.4022 152.706 15.0962 158.592 40.4942 159.522L42.9722 152.55L28.1042 146.82L33.8042 121.572L31.5782 113.142Z" fill="#002680"/>
<path d="M63.4982 121.572C64.5842 123.972 68.6101 131.25 68.6101 131.25L74.4962 120.174C75.8162 121.242 77.3642 122.238 81.9782 122.304C81.9782 122.304 75.3482 146.814 69.3841 149.334C59.6042 153.468 57.3062 134.964 57.3062 134.964L63.4982 121.572Z" fill="url(#paint20_linear_6134_15896)"/>
<path d="M31.5782 113.142C29.5262 113.592 26.0942 114.066 24.3902 115.224C22.6862 116.388 17.8862 141.246 16.6442 146.976C15.4022 152.706 15.0962 158.592 40.4942 159.522L42.9722 152.55L28.1042 146.82L33.8042 121.572L31.5782 113.142Z" fill="url(#paint21_linear_6134_15896)"/>
<path d="M58.9619 123.468C58.7819 125.958 58.7039 128.448 58.6199 130.938L58.5479 134.676C58.5359 135.924 58.5299 137.166 58.5599 138.414L58.7399 138.42C58.8359 137.178 58.8959 135.93 58.9559 134.688L59.0879 130.95C59.1419 128.46 59.1959 125.97 59.1539 123.474L58.9619 123.468Z" fill="#1F3C88"/>
<path d="M30.6304 149.142V150.576L37.7164 156.984L38.2744 154.344L30.6304 149.142Z" fill="#102048"/>
<path d="M38.7484 156.053L30.6304 149.141L45.9184 147.233L38.7484 156.053Z" fill="white"/>
<path d="M37.7163 156.983H67.1283L72.0483 133.577H42.6423L37.7163 156.983Z" fill="#102048"/>
<path d="M53.2383 146.921H56.5263L57.1503 143.639H53.8623L53.2383 146.921Z" fill="white"/>
<path d="M55.884 87.7015C59.184 79.3315 45.396 76.2295 44.052 83.2375C44.052 83.2375 40.116 81.1915 36.204 83.3575C28.668 87.5335 33.534 99.2995 36.204 99.2995L49.812 97.5235L55.884 87.7015Z" fill="#6F3428"/>
<path d="M38.6523 103.565V112.133C38.6523 114.485 40.9083 116.399 43.7043 116.399C46.4943 116.399 48.7443 114.491 48.7443 112.133V103.565H38.6523Z" fill="#F9B384"/>
<path d="M40.8301 106.782C42.1261 108.498 44.9041 110.472 48.7501 110.52V106.002L40.8301 106.782Z" fill="#3C1C16"/>
<path d="M38.6523 89.7119V104.382C38.6523 104.382 41.5323 109.278 47.4243 108.876C50.3463 108.672 51.8223 106.842 52.5903 103.914C52.8963 102.804 53.0883 101.526 53.2203 100.128C53.4423 97.7819 53.5083 95.0579 53.5863 92.1239V89.7119H38.6523Z" fill="#F9B384"/>
<path d="M53.4723 86.1533C55.2903 84.5693 58.9743 85.7753 60.0603 88.0013C61.5903 91.1513 59.5983 94.3313 57.0123 95.2013C53.2623 96.4613 51.7443 92.5193 51.7443 92.5193C51.7443 92.5193 50.5323 94.2293 47.8383 93.8573C45.8943 93.5873 45.2283 91.6793 45.2283 91.6793C45.2283 91.6793 44.6283 96.5513 38.2263 96.4373C36.8523 95.9693 36.2163 90.6413 36.2163 90.6413L40.4343 86.2553L53.4723 86.1533Z" fill="#6F3428"/>
<path d="M40.5 159.521C43.644 160.163 46.938 160.547 50.136 160.055C52.122 159.749 54.072 159.065 55.68 157.829C57.006 156.809 58.152 155.351 58.872 153.845C59.046 153.479 59.172 152.945 58.866 152.615C58.536 152.255 57.936 152.873 57.612 153.113C56.058 154.283 54.9 156.005 54.9 156.005C54.9 156.005 57.312 152.045 56.706 151.409C56.244 150.917 55.536 151.037 53.112 155.063C53.112 155.063 52.656 156.053 52.218 155.537C51.984 155.261 53.604 152.141 52.422 151.871C51.516 151.667 50.664 154.613 50.046 155.771C49.272 156.671 47.928 155.771 47.928 155.771L41.388 157.001L40.5 159.521Z" fill="#F9B384"/>
<path d="M48.1021 155.963C48.2101 155.285 48.3901 154.625 48.6361 154.007C48.6961 153.863 48.7561 153.725 48.7801 153.569C48.8761 152.993 48.3661 152.819 48.0241 152.939C47.2741 153.197 46.6021 154.199 46.1641 154.979C45.7801 155.657 45.5521 156.521 45.6601 157.349C45.6961 157.601 47.8081 157.607 47.9461 157.301C47.9761 157.229 47.9821 157.145 47.9881 157.061C48.0061 156.689 48.0481 156.323 48.1021 155.963Z" fill="#F9B384"/>
<path d="M45.5162 179.268C45.1202 181.818 44.7362 184.362 44.3762 186.918L43.3322 194.58L42.3662 202.254L41.9222 206.094L41.5142 209.94L41.7542 209.97L42.3482 206.148L42.9002 202.32L43.9382 194.658L44.8922 186.984C45.2042 184.428 45.4862 181.86 45.7502 179.298L45.5162 179.268Z" fill="#708CD5"/>
<path d="M49.5183 118.308C47.8923 119.79 45.7023 120.618 43.5423 120.474C42.4623 120.414 41.4003 120.114 40.4343 119.616C39.4623 119.13 38.5923 118.446 37.7883 117.678L37.6562 117.798C38.3763 118.662 39.2463 119.418 40.2483 119.97C41.2443 120.522 42.3723 120.858 43.5183 120.924C44.6643 120.978 45.8222 120.792 46.8783 120.36C47.9342 119.928 48.9003 119.268 49.6503 118.428L49.5183 118.308Z" fill="#1F3C88"/>
<path d="M39.3661 97.1752C38.7001 95.5192 37.4101 95.0633 36.1561 95.6513C34.1641 96.5813 34.8241 101.741 39.3661 101.855V97.1752Z" fill="#F9B384"/>
<path d="M38.37 98.1111C38.466 97.6251 38.316 97.1151 37.962 96.7131C37.782 96.5211 37.488 96.3711 37.2 96.3951C36.906 96.4191 36.678 96.5751 36.522 96.7611L36.63 96.9051C36.84 96.8331 37.032 96.7731 37.2 96.7971C37.362 96.8151 37.506 96.8931 37.632 97.0311C37.77 97.1571 37.866 97.3371 37.962 97.5171C38.052 97.7031 38.124 97.9011 38.184 98.1111H38.37Z" fill="#6F3428"/>
<defs>
<linearGradient id="paint0_linear_6134_15896" x1="163.24" y1="224.5" x2="148.919" y2="230.515" gradientUnits="userSpaceOnUse">
<stop stop-color="#40447E"/>
<stop offset="0.9964" stop-color="#3C3B6B"/>
</linearGradient>
<linearGradient id="paint1_linear_6134_15896" x1="144.117" y1="161.382" x2="128.575" y2="167.91" gradientUnits="userSpaceOnUse">
<stop stop-color="#40447E"/>
<stop offset="0.9964" stop-color="#3C3B6B"/>
</linearGradient>
<linearGradient id="paint2_linear_6134_15896" x1="77.1287" y1="164.916" x2="221.16" y2="164.916" gradientUnits="userSpaceOnUse">
<stop stop-color="#40447E"/>
<stop offset="0.9964" stop-color="#3C3B6B"/>
</linearGradient>
<linearGradient id="paint3_linear_6134_15896" x1="83.0444" y1="164.007" x2="216.29" y2="164.007" gradientUnits="userSpaceOnUse">
<stop stop-color="#10BEF0"/>
<stop offset="1" stop-color="#10BEF0" stop-opacity="0"/>
</linearGradient>
<linearGradient id="paint4_linear_6134_15896" x1="77.1287" y1="218.178" x2="280.993" y2="218.178" gradientUnits="userSpaceOnUse">
<stop stop-color="#40447E"/>
<stop offset="0.9964" stop-color="#3C3B6B"/>
</linearGradient>
<linearGradient id="paint5_linear_6134_15896" x1="145.838" y1="162.457" x2="169.324" y2="162.457" gradientUnits="userSpaceOnUse">
<stop stop-color="#10BEF0"/>
<stop offset="1" stop-color="#10BEF0" stop-opacity="0"/>
</linearGradient>
<linearGradient id="paint6_linear_6134_15896" x1="97.1211" y1="216.508" x2="246.491" y2="216.508" gradientUnits="userSpaceOnUse">
<stop stop-color="#40447E"/>
<stop offset="0.9964" stop-color="#3C3B6B"/>
</linearGradient>
<linearGradient id="paint7_linear_6134_15896" x1="266.251" y1="231.41" x2="226.735" y2="197.701" gradientUnits="userSpaceOnUse">
<stop stop-color="#444B8C"/>
<stop offset="0.9964" stop-color="#26264F"/>
</linearGradient>
<linearGradient id="paint8_linear_6134_15896" x1="233.605" y1="241.797" x2="238.826" y2="101.451" gradientUnits="userSpaceOnUse">
<stop stop-color="#444B8C"/>
<stop offset="0.9964" stop-color="#26264F"/>
</linearGradient>
<linearGradient id="paint9_linear_6134_15896" x1="227.195" y1="198.332" x2="245.584" y2="198.332" gradientUnits="userSpaceOnUse">
<stop stop-color="#10BEF0"/>
<stop offset="1" stop-color="#10BEF0" stop-opacity="0"/>
</linearGradient>
<linearGradient id="paint10_linear_6134_15896" x1="293.599" y1="239.73" x2="268.989" y2="218.737" gradientUnits="userSpaceOnUse">
<stop stop-color="#444B8C"/>
<stop offset="0.9964" stop-color="#26264F"/>
</linearGradient>
<linearGradient id="paint11_linear_6134_15896" x1="273.089" y1="248.413" x2="276.642" y2="152.894" gradientUnits="userSpaceOnUse">
<stop stop-color="#444B8C"/>
<stop offset="0.9964" stop-color="#26264F"/>
</linearGradient>
<linearGradient id="paint12_linear_6134_15896" x1="269.446" y1="219.292" x2="280.318" y2="219.292" gradientUnits="userSpaceOnUse">
<stop stop-color="#10BEF0"/>
<stop offset="1" stop-color="#10BEF0" stop-opacity="0"/>
</linearGradient>
<linearGradient id="paint13_linear_6134_15896" x1="192.894" y1="71.8" x2="232.28" y2="71.8" gradientUnits="userSpaceOnUse">
<stop stop-color="#10BEF0"/>
<stop offset="1" stop-color="#10BEF0" stop-opacity="0"/>
</linearGradient>
<linearGradient id="paint14_linear_6134_15896" x1="213.035" y1="117.226" x2="274.621" y2="117.226" gradientUnits="userSpaceOnUse">
<stop stop-color="#10BEF0"/>
<stop offset="1" stop-color="#10BEF0" stop-opacity="0"/>
</linearGradient>
<linearGradient id="paint15_linear_6134_15896" x1="189.007" y1="106.937" x2="222.496" y2="106.937" gradientUnits="userSpaceOnUse">
<stop stop-color="#10BEF0"/>
<stop offset="1" stop-color="#10BEF0" stop-opacity="0"/>
</linearGradient>
<linearGradient id="paint16_linear_6134_15896" x1="213.035" y1="117.226" x2="274.621" y2="117.226" gradientUnits="userSpaceOnUse">
<stop stop-color="#10BEF0"/>
<stop offset="1" stop-color="#10BEF0" stop-opacity="0"/>
</linearGradient>
<linearGradient id="paint17_linear_6134_15896" x1="239.651" y1="66.721" x2="292.734" y2="66.721" gradientUnits="userSpaceOnUse">
<stop stop-color="#10BEF0"/>
<stop offset="1" stop-color="#10BEF0" stop-opacity="0"/>
</linearGradient>
<linearGradient id="paint18_linear_6134_15896" x1="226.392" y1="120.823" x2="258.892" y2="186.466" gradientUnits="userSpaceOnUse">
<stop offset="0.00359712" stop-color="#E38DDD"/>
<stop offset="1" stop-color="#9571F6"/>
</linearGradient>
<linearGradient id="paint19_linear_6134_15896" x1="1.53378" y1="200.88" x2="69.0353" y2="211.993" gradientUnits="userSpaceOnUse">
<stop stop-color="#10BEF0"/>
<stop offset="1" stop-color="#10BEF0" stop-opacity="0"/>
</linearGradient>
<linearGradient id="paint20_linear_6134_15896" x1="57.3047" y1="135.062" x2="81.977" y2="135.062" gradientUnits="userSpaceOnUse">
<stop stop-color="#10BEF0"/>
<stop offset="1" stop-color="#10BEF0" stop-opacity="0"/>
</linearGradient>
<linearGradient id="paint21_linear_6134_15896" x1="16.2128" y1="136.331" x2="42.9782" y2="136.331" gradientUnits="userSpaceOnUse">
<stop stop-color="#10BEF0"/>
<stop offset="1" stop-color="#10BEF0" stop-opacity="0"/>
</linearGradient>
</defs>
</svg>
