<svg width="300" height="300" viewBox="0 0 300 300" fill="none" xmlns="http://www.w3.org/2000/svg">
<path opacity="0.15" d="M291.414 227.833C291.414 231.535 226.68 232.279 148.584 232.279C70.4878 232.279 8.5918 231.535 8.5918 227.833C8.5918 224.131 71.8798 224.245 149.976 224.245C228.072 224.245 291.414 224.131 291.414 227.833Z" fill="#231F20"/>
<path d="M101.694 189.757C101.694 189.757 104.652 198.157 97.0439 219.547H146.532C146.532 219.547 137.652 211.147 139.764 189.757H101.694Z" fill="#92BFF7"/>
<path d="M139.482 198.126C139.392 195.588 139.464 192.81 139.77 189.75H101.7C101.7 189.75 102.588 192.294 102.132 198.126H139.482Z" fill="#5F9BDD"/>
<path d="M197.568 193.019H42.6239C33.5699 193.019 26.2319 185.681 26.2319 176.627V93.1373C26.2319 85.2293 32.6399 78.8213 40.5479 78.8213H199.644C207.552 78.8213 213.96 85.2293 213.96 93.1373V176.627C213.96 185.675 206.622 193.019 197.568 193.019Z" fill="#92BFF7"/>
<path d="M27.8639 185.196V83.9284C27.8639 81.9184 29.6819 80.2864 31.9199 80.2864H211.536C212.232 80.2864 212.88 80.4604 213.456 80.7364C212.772 79.5964 211.446 78.8164 209.898 78.8164H30.2879C28.0439 78.8164 26.2319 80.4484 26.2319 82.4584V183.732C26.2319 185.262 27.1499 186.594 28.5179 187.32C28.1039 186.696 27.8639 185.976 27.8639 185.196Z" fill="#002680"/>
<path d="M27.8639 185.196V83.9284C27.8639 81.9184 29.6819 80.2864 31.9199 80.2864H211.536C212.232 80.2864 212.88 80.4604 213.456 80.7364C212.772 79.5964 211.446 78.8164 209.898 78.8164H30.2879C28.0439 78.8164 26.2319 80.4484 26.2319 82.4584V183.732C26.2319 185.262 27.1499 186.594 28.5179 187.32C28.1039 186.696 27.8639 185.976 27.8639 185.196Z" fill="url(#paint0_linear_6134_14893)"/>
<path d="M205.164 178.368H35.0281C34.6081 178.368 34.2661 178.026 34.2661 177.606V86.2504C34.2661 85.8304 34.6081 85.4824 35.0341 85.4824H205.164C205.584 85.4824 205.932 85.8244 205.932 86.2504V177.606C205.926 178.026 205.584 178.368 205.164 178.368Z" fill="#002680"/>
<path d="M71.8799 217.675L67.8599 226.891H170.22L166.2 217.675H71.8799Z" fill="#83B6ED"/>
<path d="M121.788 189.078C123.766 189.078 125.37 187.453 125.37 185.448C125.37 183.444 123.766 181.818 121.788 181.818C119.81 181.818 118.206 183.444 118.206 185.448C118.206 187.453 119.81 189.078 121.788 189.078Z" fill="#002680"/>
<path opacity="0.08" d="M65.268 171.673H47.982C45.576 171.673 43.626 169.723 43.626 167.317V97.1587C43.626 94.7527 45.576 92.8027 47.982 92.8027H65.268C67.674 92.8027 69.624 94.7527 69.624 97.1587V167.317C69.618 169.723 67.674 171.673 65.268 171.673Z" fill="white"/>
<path d="M57.2161 99.7691H47.7601C47.2921 99.7691 46.9141 99.3911 46.9141 98.9231C46.9141 98.4551 47.2921 98.0771 47.7601 98.0771H57.2101C57.6781 98.0771 58.0561 98.4551 58.0561 98.9231C58.0621 99.3911 57.6841 99.7691 57.2161 99.7691Z" fill="white"/>
<path d="M62.7541 103.621H47.7601C47.2921 103.621 46.9141 103.243 46.9141 102.775C46.9141 102.307 47.2921 101.929 47.7601 101.929H62.7481C63.2161 101.929 63.5941 102.307 63.5941 102.775C63.6001 103.243 63.2221 103.621 62.7541 103.621Z" fill="white"/>
<path d="M59.8801 107.473H47.7601C47.2921 107.473 46.9141 107.095 46.9141 106.627C46.9141 106.159 47.2921 105.781 47.7601 105.781H59.8801C60.3481 105.781 60.7261 106.159 60.7261 106.627C60.7261 107.095 60.3481 107.473 59.8801 107.473Z" fill="white"/>
<path d="M52.9741 111.325H47.7601C47.2921 111.325 46.9141 110.947 46.9141 110.479C46.9141 110.011 47.2921 109.633 47.7601 109.633H52.9681C53.4361 109.633 53.8141 110.011 53.8141 110.479C53.8201 110.947 53.4421 111.325 52.9741 111.325Z" fill="white"/>
<path d="M55.2481 115.177H47.7601C47.2921 115.177 46.9141 114.799 46.9141 114.331C46.9141 113.863 47.2921 113.485 47.7601 113.485H55.2481C55.7161 113.485 56.0941 113.863 56.0941 114.331C56.1001 114.799 55.7221 115.177 55.2481 115.177Z" fill="white"/>
<path d="M59.0341 119.029H47.7601C47.2921 119.029 46.9141 118.651 46.9141 118.183C46.9141 117.715 47.2921 117.337 47.7601 117.337H59.0341C59.5021 117.337 59.8801 117.715 59.8801 118.183C59.8861 118.651 59.5081 119.029 59.0341 119.029Z" fill="white"/>
<path d="M55.2481 122.881H47.7601C47.2921 122.881 46.9141 122.503 46.9141 122.035C46.9141 121.567 47.2921 121.189 47.7601 121.189H55.2481C55.7161 121.189 56.0941 121.567 56.0941 122.035C56.1001 122.503 55.7161 122.881 55.2481 122.881Z" fill="white"/>
<path d="M63.2461 126.733H47.7601C47.2921 126.733 46.9141 126.355 46.9141 125.887C46.9141 125.419 47.2921 125.041 47.7601 125.041H63.2401C63.7081 125.041 64.0861 125.419 64.0861 125.887C64.0921 126.355 63.7141 126.733 63.2461 126.733Z" fill="white"/>
<path d="M57.2821 130.586H47.7601C47.2921 130.586 46.9141 130.208 46.9141 129.74C46.9141 129.272 47.2921 128.894 47.7601 128.894H57.2821C57.7501 128.894 58.1281 129.272 58.1281 129.74C58.1341 130.208 57.7501 130.586 57.2821 130.586Z" fill="white"/>
<path d="M63.6661 134.437H47.7601C47.2921 134.437 46.9141 134.059 46.9141 133.591C46.9141 133.123 47.2921 132.745 47.7601 132.745H63.6601C64.1281 132.745 64.5061 133.123 64.5061 133.591C64.5121 134.059 64.1341 134.437 63.6661 134.437Z" fill="white"/>
<path d="M58.3381 138.289H47.7601C47.2921 138.289 46.9141 137.911 46.9141 137.443C46.9141 136.975 47.2921 136.597 47.7601 136.597H58.3321C58.8001 136.597 59.1781 136.975 59.1781 137.443C59.1841 137.911 58.8061 138.289 58.3381 138.289Z" fill="white"/>
<path d="M53.3581 142.141H47.7601C47.2921 142.141 46.9141 141.763 46.9141 141.295C46.9141 140.827 47.2921 140.449 47.7601 140.449H53.3521C53.8201 140.449 54.1981 140.827 54.1981 141.295C54.2041 141.757 53.8261 142.141 53.3581 142.141Z" fill="white"/>
<path d="M102.582 99.8764H78.3899C77.9159 99.8764 77.5259 99.4924 77.5259 99.0124C77.5259 98.5384 77.9099 98.1484 78.3899 98.1484H102.582C103.056 98.1484 103.446 98.5324 103.446 99.0124C103.44 99.4924 103.056 99.8764 102.582 99.8764Z" fill="white"/>
<path d="M93.006 103.254H77.904C77.43 103.254 77.04 102.87 77.04 102.39C77.04 101.916 77.424 101.526 77.904 101.526H93.006C93.48 101.526 93.87 101.91 93.87 102.39C93.87 102.87 93.48 103.254 93.006 103.254Z" fill="white"/>
<path d="M100.644 107.035H85.5422C85.0682 107.035 84.6782 106.651 84.6782 106.171C84.6782 105.697 85.0622 105.307 85.5422 105.307H100.644C101.118 105.307 101.508 105.691 101.508 106.171C101.508 106.651 101.124 107.035 100.644 107.035Z" fill="white"/>
<path d="M113.508 110.478H93.282C92.808 110.478 92.418 110.094 92.418 109.614C92.418 109.14 92.802 108.75 93.282 108.75H113.508C113.982 108.75 114.372 109.134 114.372 109.614C114.372 110.094 113.982 110.478 113.508 110.478Z" fill="white"/>
<path d="M108.864 113.928H92.988C92.514 113.928 92.124 113.544 92.124 113.064C92.124 112.59 92.508 112.2 92.988 112.2H108.864C109.338 112.2 109.728 112.584 109.728 113.064C109.728 113.544 109.344 113.928 108.864 113.928Z" fill="white"/>
<path d="M102.534 124.464H85.1579C84.6839 124.464 84.2939 124.08 84.2939 123.6C84.2939 123.126 84.6779 122.736 85.1579 122.736H102.534C103.008 122.736 103.398 123.12 103.398 123.6C103.392 124.08 103.008 124.464 102.534 124.464Z" fill="white"/>
<path d="M115.296 131.623H101.016C100.542 131.623 100.152 131.239 100.152 130.759C100.152 130.285 100.536 129.895 101.016 129.895H115.296C115.77 129.895 116.16 130.279 116.16 130.759C116.16 131.239 115.776 131.623 115.296 131.623Z" fill="white"/>
<path d="M124.308 135.205H108.3C107.826 135.205 107.436 134.821 107.436 134.341C107.436 133.867 107.82 133.477 108.3 133.477H124.308C124.782 133.477 125.172 133.861 125.172 134.341C125.172 134.821 124.782 135.205 124.308 135.205Z" fill="#9D79B5"/>
<path d="M116.766 142.363H100.758C100.284 142.363 99.894 141.979 99.894 141.499C99.894 141.025 100.278 140.635 100.758 140.635H116.766C117.24 140.635 117.63 141.019 117.63 141.499C117.624 141.979 117.24 142.363 116.766 142.363Z" fill="white"/>
<path d="M112.542 149.52H93.5041C93.0301 149.52 92.6401 149.136 92.6401 148.656C92.6401 148.182 93.0241 147.792 93.5041 147.792H112.542C113.016 147.792 113.406 148.176 113.406 148.656C113.406 149.136 113.016 149.52 112.542 149.52Z" fill="white"/>
<path d="M136.332 149.52H117.294C116.82 149.52 116.43 149.136 116.43 148.656C116.43 148.182 116.814 147.792 117.294 147.792H136.332C136.806 147.792 137.196 148.176 137.196 148.656C137.19 149.136 136.806 149.52 136.332 149.52Z" fill="#F48E8E"/>
<path d="M165.246 149.52H141.084C140.61 149.52 140.22 149.136 140.22 148.656C140.22 148.182 140.604 147.792 141.084 147.792H165.246C165.72 147.792 166.11 148.176 166.11 148.656C166.11 149.136 165.72 149.52 165.246 149.52Z" fill="#9D79B5"/>
<path d="M129.222 138.787H108.156C107.682 138.787 107.292 138.403 107.292 137.923C107.292 137.449 107.676 137.059 108.156 137.059H129.222C129.696 137.059 130.086 137.443 130.086 137.923C130.086 138.397 129.702 138.787 129.222 138.787Z" fill="white"/>
<path d="M189.618 138.787H143.55C143.076 138.787 142.686 138.403 142.686 137.923C142.686 137.449 143.07 137.059 143.55 137.059H189.618C190.092 137.059 190.482 137.443 190.482 137.923C190.476 138.397 190.092 138.787 189.618 138.787Z" fill="white"/>
<path d="M171.498 135.205H155.49C155.016 135.205 154.626 134.821 154.626 134.341C154.626 133.867 155.01 133.477 155.49 133.477H171.498C171.972 133.477 172.362 133.861 172.362 134.341C172.362 134.821 171.978 135.205 171.498 135.205Z" fill="#9D79B5"/>
<path d="M152.418 135.205H128.796C128.322 135.205 127.932 134.821 127.932 134.341C127.932 133.867 128.316 133.477 128.796 133.477H152.418C152.892 133.477 153.282 133.861 153.282 134.341C153.276 134.821 152.892 135.205 152.418 135.205Z" fill="#F48E8E"/>
<path d="M157.074 131.623H142.794C142.32 131.623 141.93 131.239 141.93 130.759C141.93 130.285 142.314 129.895 142.794 129.895H157.074C157.548 129.895 157.938 130.279 157.938 130.759C157.938 131.239 157.548 131.623 157.074 131.623Z" fill="white"/>
<path d="M136.914 131.623H120.456C119.982 131.623 119.592 131.239 119.592 130.759C119.592 130.285 119.976 129.895 120.456 129.895H136.914C137.388 129.895 137.778 130.279 137.778 130.759C137.772 131.239 137.388 131.623 136.914 131.623Z" fill="#F48E8E"/>
<path d="M121.05 128.046H93.0842C92.6102 128.046 92.2202 127.662 92.2202 127.182C92.2202 126.708 92.6042 126.318 93.0842 126.318H121.05C121.524 126.318 121.914 126.702 121.914 127.182C121.914 127.662 121.53 128.046 121.05 128.046Z" fill="white"/>
<path d="M133.14 128.046H126.45C125.976 128.046 125.586 127.662 125.586 127.182C125.586 126.708 125.97 126.318 126.45 126.318H133.14C133.614 126.318 134.004 126.702 134.004 127.182C134.004 127.662 133.614 128.046 133.14 128.046Z" fill="#1D9BC2"/>
<path d="M103.452 145.945H93.5701C93.0961 145.945 92.7061 145.561 92.7061 145.081C92.7061 144.607 93.0901 144.217 93.5701 144.217H103.452C103.926 144.217 104.316 144.601 104.316 145.081C104.31 145.555 103.926 145.945 103.452 145.945Z" fill="white"/>
<path d="M112.542 152.634H100.758C100.284 152.634 99.894 152.25 99.894 151.77C99.894 151.296 100.278 150.906 100.758 150.906H112.542C113.016 150.906 113.406 151.29 113.406 151.77C113.406 152.25 113.016 152.634 112.542 152.634Z" fill="white"/>
<path d="M104.61 156.216H93.5041C93.0301 156.216 92.6401 155.832 92.6401 155.352C92.6401 154.878 93.0241 154.488 93.5041 154.488H104.61C105.084 154.488 105.474 154.872 105.474 155.352C105.474 155.832 105.09 156.216 104.61 156.216Z" fill="white"/>
<path d="M104.064 159.792H92.9582C92.4842 159.792 92.0942 159.408 92.0942 158.928C92.0942 158.454 92.4782 158.064 92.9582 158.064H104.064C104.538 158.064 104.928 158.448 104.928 158.928C104.928 159.408 104.538 159.792 104.064 159.792Z" fill="white"/>
<path d="M117.378 163.308H100.758C100.284 163.308 99.894 162.924 99.894 162.444C99.894 161.97 100.278 161.58 100.758 161.58H117.378C117.852 161.58 118.242 161.964 118.242 162.444C118.236 162.924 117.852 163.308 117.378 163.308Z" fill="white"/>
<path d="M146.58 166.819H100.758C100.284 166.819 99.894 166.435 99.894 165.955C99.894 165.481 100.278 165.091 100.758 165.091H146.58C147.054 165.091 147.444 165.475 147.444 165.955C147.444 166.435 147.06 166.819 146.58 166.819Z" fill="white"/>
<path d="M122.874 163.308H144.942C145.416 163.308 145.806 162.924 145.806 162.444C145.806 161.97 145.422 161.58 144.942 161.58H122.874C122.4 161.58 122.01 161.964 122.01 162.444C122.01 162.924 122.394 163.308 122.874 163.308Z" fill="#F48E8E"/>
<path d="M158.082 166.819H189.618C190.092 166.819 190.482 166.435 190.482 165.955C190.482 165.481 190.098 165.091 189.618 165.091H158.082C157.608 165.091 157.218 165.475 157.218 165.955C157.218 166.435 157.602 166.819 158.082 166.819Z" fill="white"/>
<path d="M149.658 163.308H161.568C162.042 163.308 162.432 162.924 162.432 162.444C162.432 161.97 162.048 161.58 161.568 161.58H149.658C149.184 161.58 148.794 161.964 148.794 162.444C148.8 162.924 149.184 163.308 149.658 163.308Z" fill="#FBF393"/>
<path d="M129.27 159.792H109.62C109.146 159.792 108.756 159.408 108.756 158.928C108.756 158.454 109.14 158.064 109.62 158.064H129.27C129.744 158.064 130.134 158.448 130.134 158.928C130.134 159.408 129.75 159.792 129.27 159.792Z" fill="#F48E8E"/>
<path d="M147.936 159.792H133.608C133.134 159.792 132.744 159.408 132.744 158.928C132.744 158.454 133.128 158.064 133.608 158.064H147.936C148.41 158.064 148.8 158.448 148.8 158.928C148.8 159.408 148.41 159.792 147.936 159.792Z" fill="#2BB99B"/>
<path d="M160.122 159.792H154.32C153.846 159.792 153.456 159.408 153.456 158.928C153.456 158.454 153.84 158.064 154.32 158.064H160.122C160.596 158.064 160.986 158.448 160.986 158.928C160.98 159.408 160.596 159.792 160.122 159.792Z" fill="#1D9BC2"/>
<path d="M189.222 152.634H117.69C116.994 152.634 116.43 152.25 116.43 151.77C116.43 151.296 116.994 150.906 117.69 150.906H189.222C189.918 150.906 190.482 151.29 190.482 151.77C190.476 152.25 189.918 152.634 189.222 152.634Z" fill="white"/>
<path d="M167.472 131.623H161.652C161.178 131.623 160.788 131.239 160.788 130.759C160.788 130.285 161.172 129.895 161.652 129.895H167.472C167.946 129.895 168.336 130.279 168.336 130.759C168.33 131.239 167.946 131.623 167.472 131.623Z" fill="#1D9BC2"/>
<path d="M139.332 138.787H133.512C133.038 138.787 132.648 138.403 132.648 137.923C132.648 137.449 133.032 137.059 133.512 137.059H139.332C139.806 137.059 140.196 137.443 140.196 137.923C140.19 138.397 139.806 138.787 139.332 138.787Z" fill="white"/>
<path d="M182.01 135.205H176.61C176.136 135.205 175.746 134.821 175.746 134.341C175.746 133.867 176.13 133.477 176.61 133.477H182.01C182.484 133.477 182.874 133.861 182.874 134.341C182.868 134.821 182.484 135.205 182.01 135.205Z" fill="#1D9BC2"/>
<path d="M151.032 124.464H109.14C108.666 124.464 108.276 124.08 108.276 123.6C108.276 123.126 108.66 122.736 109.14 122.736H151.032C151.506 122.736 151.896 123.12 151.896 123.6C151.89 124.08 151.506 124.464 151.032 124.464Z" fill="white"/>
<path d="M96.1019 121.153H85.1579C84.6839 121.153 84.2939 120.769 84.2939 120.289C84.2939 119.815 84.6779 119.425 85.1579 119.425H96.1019C96.5759 119.425 96.9659 119.809 96.9659 120.289C96.9659 120.769 96.5759 121.153 96.1019 121.153Z" fill="white"/>
<path d="M168.246 113.928H161.748C161.274 113.928 160.884 113.544 160.884 113.064C160.884 112.59 161.268 112.2 161.748 112.2H168.246C168.72 112.2 169.11 112.584 169.11 113.064C169.104 113.544 168.72 113.928 168.246 113.928Z" fill="#F7F081"/>
<path d="M189.426 103.254H182.928C182.454 103.254 182.064 102.87 182.064 102.39C182.064 101.916 182.448 101.526 182.928 101.526H189.426C189.9 101.526 190.29 101.91 190.29 102.39C190.284 102.87 189.9 103.254 189.426 103.254Z" fill="#2BB99B"/>
<path d="M190.002 113.928H171.612C171.138 113.928 170.748 113.544 170.748 113.064C170.748 112.59 171.132 112.2 171.612 112.2H190.002C190.476 112.2 190.866 112.584 190.866 113.064C190.866 113.544 190.482 113.928 190.002 113.928Z" fill="#F48E8E"/>
<path d="M156.642 113.928H115.236C114.762 113.928 114.372 113.544 114.372 113.064C114.372 112.59 114.756 112.2 115.236 112.2H156.642C157.116 112.2 157.506 112.584 157.506 113.064C157.5 113.544 157.116 113.928 156.642 113.928Z" fill="#F48E8E"/>
<path d="M136.914 117.373H93.0901C92.6161 117.373 92.2261 116.989 92.2261 116.509C92.2261 116.035 92.6101 115.645 93.0901 115.645H136.914C137.388 115.645 137.778 116.029 137.778 116.509C137.772 116.989 137.388 117.373 136.914 117.373Z" fill="white"/>
<path d="M132.756 110.478H118.716C118.242 110.478 117.852 110.094 117.852 109.614C117.852 109.14 118.236 108.75 118.716 108.75H132.756C133.23 108.75 133.62 109.134 133.62 109.614C133.614 110.094 133.23 110.478 132.756 110.478Z" fill="#F48E8E"/>
<path d="M149.58 103.254H101.016C100.542 103.254 100.152 102.87 100.152 102.39C100.152 101.916 100.536 101.526 101.016 101.526H149.58C150.054 101.526 150.444 101.91 150.444 102.39C150.444 102.87 150.054 103.254 149.58 103.254Z" fill="#F48E8E"/>
<path d="M170.76 103.254H156.042C155.568 103.254 155.178 102.87 155.178 102.39C155.178 101.916 155.562 101.526 156.042 101.526H170.76C171.234 101.526 171.624 101.91 171.624 102.39C171.618 102.87 171.234 103.254 170.76 103.254Z" fill="white"/>
<path d="M238.143 225.396V199.266H236.463V225.396H238.143Z" fill="#A5C0D7"/>
<path d="M237.076 225.395V199.265H236.464V225.395H237.076Z" fill="#8394B4"/>
<path d="M238.218 205.939L239.556 199.657H235.05L236.382 205.939H238.218Z" fill="#8394B4"/>
<path d="M227.868 226.873H246.732V226.357L239.154 225.091H235.446L227.868 226.357V226.873Z" fill="#A5C0D7"/>
<path d="M235.008 225.235H239.598L238.746 219.877H235.86L235.008 225.235Z" fill="#A5C0D7"/>
<path d="M238.746 219.877H235.86L235.008 225.235L227.868 226.357H240.444L238.218 225.391L237.618 220.351L238.746 219.877Z" fill="#8394B4"/>
<path d="M241.338 195.999H244.602V191.109H241.338V195.999Z" fill="#8394B4"/>
<path d="M225.174 198.151H249.426C249.426 196.843 248.364 195.781 247.056 195.781H227.544C226.236 195.781 225.174 196.843 225.174 198.151Z" fill="#3D4359"/>
<path d="M227.55 195.781H237.75C236.442 195.781 235.38 196.843 235.38 198.151H225.18C225.174 196.843 226.236 195.781 227.55 195.781Z" fill="#323749"/>
<path d="M249.39 197.737C249.414 197.869 249.426 198.013 249.426 198.151H225.174C225.174 198.007 225.186 197.869 225.21 197.737H249.39Z" fill="#323749"/>
<path d="M224.223 201.26H250.377V198.056H224.223V201.26Z" fill="#3D4359"/>
<path d="M224.225 201.26H241.127V198.056H224.225V201.26Z" fill="#323749"/>
<path d="M224.223 198.443H250.377V198.059H224.223V198.443Z" fill="#323749"/>
<path d="M240.96 204.728C242.148 204.728 244.5 203.918 244.8 203.816C244.872 203.792 244.914 203.708 244.884 203.636C244.86 203.564 244.782 203.522 244.704 203.552C243.786 203.87 241.266 204.644 240.6 204.404C240.048 204.206 239.982 202.292 240.072 201.128C240.078 201.05 240.018 200.984 239.946 200.978C239.94 200.978 239.94 200.978 239.934 200.978C239.862 200.978 239.802 201.032 239.796 201.11C239.772 201.44 239.58 204.332 240.51 204.668C240.63 204.71 240.78 204.728 240.96 204.728Z" fill="#323749"/>
<path d="M245.508 202.591C244.896 202.753 243.996 203.401 244.116 203.875C244.236 204.349 245.346 204.469 245.958 204.307C246.57 204.145 246.96 203.629 246.834 203.155C246.714 202.681 246.12 202.429 245.508 202.591Z" fill="#323749"/>
<path d="M232.631 178.075C232.631 188.761 237.503 192.973 243.515 192.973C249.527 192.973 254.399 188.755 254.399 178.075C254.399 167.395 249.527 154.285 243.515 154.285C237.503 154.285 232.631 167.389 232.631 178.075Z" fill="#323749"/>
<path d="M231.54 177.925C231.54 188.251 236.25 192.331 242.064 192.331C247.878 192.331 252.588 188.257 252.588 177.925C252.588 167.599 247.878 154.927 242.064 154.927C236.25 154.927 231.54 167.599 231.54 177.925Z" fill="#3D4359"/>
<path d="M202.17 226.891H203.94L198.984 184.309H197.22L202.17 226.891Z" fill="#D0D1E9"/>
<path d="M202.626 226.891H204.396L199.446 184.309H197.676L202.626 226.891Z" fill="#A7A7D3"/>
<path d="M219.713 222.217L219.947 223.999L222.131 224.209L222.113 222.181L219.713 222.217Z" fill="#FBCEBF"/>
<path d="M222.678 226.704C222.678 226.812 222.588 226.896 222.486 226.89L215.664 226.632C215.664 226.632 215.646 225.252 216.45 225.222C217.458 225.186 218.622 224.562 219.402 223.914C219.984 223.428 222.234 223.602 222.492 224.028C222.708 224.388 222.69 226.122 222.678 226.704Z" fill="#19232D"/>
<path d="M203.094 222.019L202.698 223.813L204.864 224.173L205.488 222.145L203.094 222.019Z" fill="#FBCEBF"/>
<path d="M205.254 226.698C205.248 226.806 205.152 226.884 205.05 226.872L198.258 226.152C198.258 226.152 198.324 224.778 199.128 224.802C200.136 224.832 201.342 224.292 202.152 223.692C202.764 223.242 204.996 223.572 205.23 224.016C205.428 224.388 205.302 226.116 205.254 226.698Z" fill="#19232D"/>
<path d="M222.204 185.275C228.966 184.021 232.422 185.299 232.476 194.581L206.94 194.659C206.94 194.659 207.138 189.943 209.184 188.371C210.228 187.573 217.626 186.049 222.204 185.275Z" fill="#1A3438"/>
<path d="M224.658 189.799C224.658 189.799 222.048 190.819 218.088 191.467C214.128 192.115 212.352 192.169 211.938 192.883C211.524 193.597 212.04 200.515 211.416 203.617C210.882 206.299 205.368 219.649 204.09 223.501H205.374C205.374 223.501 213.198 207.541 213.852 202.591C214.176 199.345 214.332 196.555 214.332 196.555H222.726C224.346 196.141 224.658 189.799 224.658 189.799Z" fill="#192D30"/>
<path d="M242.466 187.441C242.64 189.673 242.052 192.895 240.792 194.647L216.726 194.659C216.726 194.659 215.748 190.153 217.62 188.371C219.648 186.445 232.938 185.431 240.858 185.125C242.076 185.083 242.37 186.223 242.466 187.441Z" fill="#223A3F"/>
<path d="M225.3 201.709C225.228 199.015 225.138 198.349 224.61 196.561H239.208C241.26 195.559 242.652 190.783 242.466 188.791L236.802 187.315C236.802 187.315 236.136 190.867 235.02 191.515C233.904 192.163 221.556 192.175 221.058 192.697C220.566 193.219 222.666 198.331 223.038 202.021C223.41 205.711 221.244 223.513 221.244 223.513H222.606C222.612 223.513 225.426 206.659 225.3 201.709Z" fill="#192D30"/>
<path d="M207.018 194.239C207.018 194.239 204.228 212.137 202.23 223.507H205.428C205.428 223.507 213.252 207.547 213.906 202.597C214.554 197.647 213.894 192.205 213.894 192.205L207.018 194.239Z" fill="#1A3438"/>
<path d="M216.726 194.665C216.726 194.665 218.646 212.143 219.414 223.513H222.612C222.612 223.513 225.426 206.659 225.3 201.709C225.174 196.759 223.254 192.211 223.254 192.211L216.726 194.665Z" fill="#223A3F"/>
<path d="M225.3 201.709C225.3 201.703 225.3 201.703 225.3 201.703C225.186 197.281 223.644 193.195 223.32 192.373C223.104 192.385 222.9 192.403 222.714 192.421L220.998 193.069C221.04 194.395 222.72 198.763 223.05 202.027C223.422 205.717 221.256 223.519 221.256 223.519H222.618C222.618 223.519 222.792 222.463 223.056 220.807C223.836 215.827 225.396 205.417 225.3 201.709Z" fill="#192D30"/>
<path d="M213.888 192.211C213.162 192.265 212.49 192.373 212.088 192.763C211.674 193.483 212.082 200.515 211.464 203.623C210.93 206.305 205.416 219.655 204.138 223.507H205.422C207.078 219.475 213.336 206.887 213.9 202.597C214.314 199.465 214.542 194.695 213.888 192.211Z" fill="#192D30"/>
<path d="M236.124 154.434L235.398 151.566L230.598 152.796L230.91 156.234C230.91 156.234 233.874 158.88 236.124 154.434Z" fill="#EFCEAB"/>
<path d="M236.472 186.133C236.472 186.133 230.508 185.815 228.834 185.815C228.834 185.815 228.03 180.277 228.03 172.363C228.03 164.449 229.338 155.317 229.338 155.317L230.856 154.411C230.856 154.411 231.906 156.955 232.824 157.141C233.742 157.333 235.98 153.835 235.98 153.835L236.934 154.405L236.472 186.133Z" fill="#FAF8F6"/>
<path d="M224.076 157.705C228.132 155.929 230.004 179.257 222.456 179.233C217.98 179.215 208.752 179.833 208.752 179.833L208.728 177.019L220.116 173.791C221.868 173.575 221.172 158.971 224.076 157.705Z" fill="#002266"/>
<path d="M224.076 157.705C228.132 155.929 230.004 179.257 222.456 179.233C217.98 179.215 208.752 179.833 208.752 179.833L208.728 177.019L220.116 173.791C221.868 173.575 221.172 158.971 224.076 157.705Z" fill="url(#paint1_linear_6134_14893)"/>
<path d="M224.304 157.59C226.704 156.252 229.344 155.316 229.344 155.316C229.344 155.316 228.06 175.752 228.852 185.952L223.05 185.196C223.05 185.196 222.264 173.76 222.36 169.944C222.348 168.126 223.008 161.67 223.266 159.156C223.332 158.502 223.716 157.92 224.304 157.59Z" fill="#002680"/>
<path d="M224.304 157.59C226.704 156.252 229.344 155.316 229.344 155.316C229.344 155.316 228.06 175.752 228.852 185.952L223.05 185.196C223.05 185.196 222.264 173.76 222.36 169.944C222.348 168.126 223.008 161.67 223.266 159.156C223.332 158.502 223.716 157.92 224.304 157.59Z" fill="url(#paint2_linear_6134_14893)"/>
<path d="M234.402 158.911L232.704 160.705C232.704 160.705 231.072 170.269 232.41 179.917L231.288 182.413L229.638 179.977C229.638 179.977 229.2 166.807 231.516 160.513C231.516 160.513 230.796 159.157 230.97 157.879L232.884 157.345L234.402 158.911Z" fill="#002266"/>
<path d="M234.402 158.911L232.704 160.705C232.704 160.705 231.072 170.269 232.41 179.917L231.288 182.413L229.638 179.977C229.638 179.977 229.2 166.807 231.516 160.513C231.516 160.513 230.796 159.157 230.97 157.879L232.884 157.345L234.402 158.911Z" fill="url(#paint3_linear_6134_14893)"/>
<path d="M229.338 155.365L230.856 154.429C230.856 154.429 231.966 156.661 232.89 156.859C233.808 157.057 235.98 153.835 235.98 153.835L236.934 154.429L236.904 156.043C236.226 157.201 234.864 159.493 234.474 159.883L232.83 157.627C232.83 157.627 229.92 158.821 228.846 159.553C229.11 157.021 229.338 155.365 229.338 155.365Z" fill="#002680"/>
<path d="M229.338 155.365L230.856 154.429C230.856 154.429 231.966 156.661 232.89 156.859C233.808 157.057 235.98 153.835 235.98 153.835L236.934 154.429L236.904 156.043C236.226 157.201 234.864 159.493 234.474 159.883L232.83 157.627C232.83 157.627 229.92 158.821 228.846 159.553C229.11 157.021 229.338 155.365 229.338 155.365Z" fill="#FAF8F6"/>
<path d="M230.334 177.673C228.132 176.995 226.05 176.569 224.49 177.271C224.28 177.367 223.146 177.829 223.248 178.279C223.332 178.627 224.304 178.111 224.724 177.967C225.3 177.769 226.032 177.649 226.062 177.721C226.116 177.823 223.512 178.423 223.746 178.933C224.034 179.557 226.164 178.219 226.26 178.423C226.356 178.627 224.208 179.131 224.454 179.533C224.676 179.899 226.5 179.047 226.62 179.155C226.74 179.263 225.24 179.557 225.534 179.887C225.69 180.061 225.918 180.133 227.016 179.929C227.352 179.869 229.212 180.217 230.106 179.575C231.054 178.747 230.334 177.673 230.334 177.673Z" fill="#E2A36A"/>
<path d="M229.338 177.228V180.276C229.176 180.06 233.328 180.612 236.136 180.648C236.304 184.2 236.502 185.376 236.406 186.918C236.406 186.918 238.644 189.57 242.688 188.688C242.688 188.688 242.382 182.664 242.286 180.474C242.286 180.474 248.766 181.326 248.766 176.514C248.766 170.796 247.092 164.694 247.092 162.594C247.092 160.494 246.696 156.396 240.492 155.73L236.946 154.398C236.946 154.398 235.668 163.74 235.764 170.508C235.794 172.494 235.872 174.642 235.968 176.754L229.338 177.228ZM241.47 172.362C242.586 172.302 242.67 175.308 242.688 176.232C242.694 176.514 241.47 176.58 241.47 176.58C241.236 175.47 241.47 172.362 241.47 172.362Z" fill="#002680"/>
<path d="M229.338 177.228V180.276C229.176 180.06 233.328 180.612 236.136 180.648C236.304 184.2 236.502 185.376 236.406 186.918C236.406 186.918 238.644 189.57 242.688 188.688C242.688 188.688 242.382 182.664 242.286 180.474C242.286 180.474 248.766 181.326 248.766 176.514C248.766 170.796 247.092 164.694 247.092 162.594C247.092 160.494 246.696 156.396 240.492 155.73L236.946 154.398C236.946 154.398 235.668 163.74 235.764 170.508C235.794 172.494 235.872 174.642 235.968 176.754L229.338 177.228ZM241.47 172.362C242.586 172.302 242.67 175.308 242.688 176.232C242.694 176.514 241.47 176.58 241.47 176.58C241.236 175.47 241.47 172.362 241.47 172.362Z" fill="url(#paint4_linear_6134_14893)"/>
<path d="M225.654 146.622C225.654 146.622 226.224 149.376 226.602 150.828C226.986 152.28 227.82 155.622 230.856 155.346C233.892 155.064 235.176 153.198 236.082 152.298C236.082 152.298 238.776 148.332 238.032 147.492C237.294 146.652 236.04 143.868 233.13 144.636C230.226 145.398 225.654 146.622 225.654 146.622Z" fill="#F9DCB8"/>
<path d="M235.968 152.443C235.968 152.443 239.082 148.513 239.538 146.317C239.994 144.121 239.616 142.669 238.386 141.955C238.386 141.955 239.1 140.731 239.586 140.605C239.586 140.605 238.134 140.989 237.774 141.601C237.774 141.601 237.876 140.017 237.264 139.663C237.264 139.663 237.522 140.635 237.162 141.247C237.162 141.247 234.558 137.269 231.774 138.517C228.99 139.765 224.784 143.467 223.686 143.239C223.686 143.239 224.298 143.599 225.27 143.341C225.27 143.341 223.944 144.211 222.486 144.589C222.486 144.589 223.608 146.887 227.742 146.833C231.876 146.779 234.66 145.531 234.66 145.531C234.66 145.531 234.582 149.179 235.452 150.505C235.452 150.505 235.914 148.309 236.88 148.057C237.852 147.799 237.264 149.509 236.904 150.127C236.556 150.733 235.488 152.569 235.968 152.443Z" fill="#221E52"/>
<path d="M227.885 180.582H238.139V179.49H227.885V180.582Z" fill="#002680"/>
<path d="M228.786 180.588H204.618L198.804 163.44H222.972L228.786 180.588Z" fill="#002680"/>
<path d="M229.026 180.588H205.062L199.296 163.44H223.26L229.026 180.588Z" fill="#002680"/>
<path d="M229.026 180.588H205.062L199.296 163.44H223.26L229.026 180.588Z" fill="url(#paint5_linear_6134_14893)"/>
<path d="M211.65 172.339C211.65 173.275 212.394 174.037 213.312 174.037C214.23 174.037 214.974 173.275 214.974 172.339C214.974 171.403 214.23 170.641 213.312 170.641C212.4 170.641 211.65 171.403 211.65 172.339Z" fill="white"/>
<path d="M268.35 226.891H270.12L265.17 184.309H263.4L268.35 226.891Z" fill="#D0D1E9"/>
<path d="M268.812 226.891H270.582L265.626 184.309H263.856L268.812 226.891Z" fill="#A7A7D3"/>
<path d="M249.696 226.891H247.926L252.876 184.309H254.646L249.696 226.891Z" fill="#D0D1E9"/>
<path d="M249.234 226.891H247.47L252.42 184.309H254.19L249.234 226.891Z" fill="#A7A7D3"/>
<path d="M183.51 226.891H181.746L186.696 184.309H188.466L183.51 226.891Z" fill="#D0D1E9"/>
<path d="M183.054 226.891H181.284L186.24 184.309H188.004L183.054 226.891Z" fill="#A7A7D3"/>
<path d="M270.486 184.307H181.344C180.42 184.307 179.67 183.473 179.67 182.441C179.67 181.409 180.42 180.575 181.344 180.575H270.486C271.41 180.575 272.16 181.409 272.16 182.441C272.154 183.467 271.41 184.307 270.486 184.307Z" fill="#A7A7D1"/>
<path d="M270.486 180.57H181.344C180.42 180.57 179.67 181.404 179.67 182.436C179.67 182.604 179.694 182.772 179.73 182.928H272.094C272.13 182.772 272.154 182.604 272.154 182.436C272.154 181.41 271.41 180.57 270.486 180.57Z" fill="#D0D1E9"/>
<path d="M263.334 179.029H262.536C262.29 179.029 262.086 178.831 262.086 178.585V175.495C262.086 175.249 262.284 175.051 262.536 175.051H263.334C264.438 175.051 265.338 175.945 265.338 177.043C265.338 178.135 264.438 179.029 263.334 179.029ZM262.65 178.471H263.328C264.12 178.471 264.768 177.829 264.768 177.043C264.768 176.251 264.12 175.615 263.328 175.615H262.65V178.471Z" fill="#6D97BE"/>
<path d="M260.274 180.57C258.684 180.57 257.394 179.28 257.394 177.69V173.688H263.16V177.69C263.154 179.28 261.864 180.57 260.274 180.57Z" fill="#95BAE2"/>
<path d="M261.798 173.688V179.352C261.798 179.868 261.468 180.318 260.976 180.57H261.462C262.398 180.57 263.16 179.946 263.16 179.178V173.688H261.798Z" fill="#6D97BE"/>
<path d="M258.288 177.864C258.168 177.864 258.072 177.768 258.072 177.648V174.342C258.072 174.222 258.168 174.126 258.288 174.126C258.408 174.126 258.504 174.222 258.504 174.342V177.648C258.504 177.768 258.408 177.864 258.288 177.864Z" fill="#CCDDED"/>
<path d="M259.83 173.389C259.752 173.389 259.686 173.323 259.686 173.245V172.309C259.674 172.255 259.614 172.105 259.422 172.123H257.226C257.208 172.123 257.034 172.117 256.89 171.979C256.776 171.865 256.716 171.691 256.716 171.475C256.716 171.277 256.776 171.127 256.896 171.025C257.07 170.875 257.292 170.887 257.352 170.893L263.286 170.887C263.358 170.857 263.646 170.719 263.628 170.233C263.61 169.735 263.274 169.609 263.202 169.591H259.584C259.506 169.591 259.44 169.525 259.44 169.447C259.44 169.369 259.506 169.303 259.584 169.303L263.256 169.309C263.478 169.357 263.898 169.609 263.922 170.227C263.946 170.845 263.562 171.115 263.358 171.175L263.322 171.181L257.346 171.187H257.334C257.334 171.187 257.184 171.169 257.094 171.247C257.04 171.295 257.016 171.373 257.016 171.481C257.016 171.817 257.208 171.841 257.244 171.841H259.428C259.788 171.817 259.95 172.111 259.98 172.273V172.303V173.257C259.968 173.323 259.908 173.389 259.83 173.389Z" fill="#CCDDED"/>
<path d="M106.416 44.4844H71.532C70.11 44.4844 68.958 45.6364 68.958 47.0584V62.9164C68.958 64.3384 70.11 65.4904 71.532 65.4904H82.038V71.8324L90.396 65.4904H106.416C107.838 65.4904 108.99 64.3384 108.99 62.9164V47.0584C108.996 45.6364 107.838 44.4844 106.416 44.4844Z" fill="#002680"/>
<path d="M106.416 44.4844H71.532C70.11 44.4844 68.958 45.6364 68.958 47.0584V62.9164C68.958 64.3384 70.11 65.4904 71.532 65.4904H82.038V71.8324L90.396 65.4904H106.416C107.838 65.4904 108.99 64.3384 108.99 62.9164V47.0584C108.996 45.6364 107.838 44.4844 106.416 44.4844Z" fill="url(#paint6_linear_6134_14893)"/>
<path d="M85.9562 57.9243C85.6142 58.0983 84.8642 58.2783 83.9102 58.2783C81.3962 58.2783 79.8662 56.7063 79.8662 54.2943C79.8662 51.6843 81.6782 50.1123 84.0962 50.1123C85.0502 50.1123 85.7282 50.3103 86.0222 50.4663L85.7042 51.6183C85.3262 51.4563 84.8102 51.3123 84.1502 51.3123C82.5422 51.3123 81.3782 52.3203 81.3782 54.2283C81.3782 55.9683 82.3982 57.0843 84.1382 57.0843C84.7262 57.0843 85.3382 56.9643 85.7162 56.7903L85.9562 57.9243Z" fill="white"/>
<path d="M87.1562 56.5863C87.6242 56.8563 88.3322 57.0903 89.0702 57.0903C90.0002 57.0903 90.5162 56.6583 90.5162 56.0103C90.5162 55.4103 90.1142 55.0563 89.1062 54.6963C87.8042 54.2283 86.9702 53.5323 86.9702 52.3923C86.9702 51.1023 88.0502 50.1123 89.7662 50.1123C90.6242 50.1123 91.2602 50.2983 91.6682 50.5143L91.3142 51.6783C91.0322 51.5283 90.4802 51.3003 89.7362 51.3003C88.8182 51.3003 88.4222 51.7923 88.4222 52.2543C88.4222 52.8663 88.8782 53.1483 89.9402 53.5563C91.3142 54.0723 91.9862 54.7683 91.9862 55.9083C91.9862 57.1803 91.0202 58.2843 88.9802 58.2843C88.1462 58.2843 87.2762 58.0503 86.8442 57.7923L87.1562 56.5863Z" fill="white"/>
<path d="M93.2524 56.5863C93.7204 56.8563 94.4284 57.0903 95.1664 57.0903C96.0964 57.0903 96.6124 56.6583 96.6124 56.0103C96.6124 55.4103 96.2104 55.0563 95.2024 54.6963C93.9004 54.2283 93.0664 53.5323 93.0664 52.3923C93.0664 51.1023 94.1464 50.1123 95.8624 50.1123C96.7204 50.1123 97.3564 50.2983 97.7644 50.5143L97.4104 51.6783C97.1284 51.5283 96.5764 51.3003 95.8324 51.3003C94.9144 51.3003 94.5184 51.7923 94.5184 52.2543C94.5184 52.8663 94.9744 53.1483 96.0364 53.5563C97.4104 54.0723 98.0824 54.7683 98.0824 55.9083C98.0824 57.1803 97.1164 58.2843 95.0764 58.2843C94.2424 58.2843 93.3724 58.0503 92.9404 57.7923L93.2524 56.5863Z" fill="white"/>
<path d="M274.548 85.1768H230.628C228.834 85.1768 227.382 86.6288 227.382 88.4228V108.385C227.382 110.179 228.834 111.631 230.628 111.631H243.852V119.617L254.376 111.631H274.542C276.336 111.631 277.788 110.179 277.788 108.385V88.4228C277.788 86.6288 276.336 85.1768 274.548 85.1768Z" fill="#002680"/>
<path d="M274.548 85.1768H230.628C228.834 85.1768 227.382 86.6288 227.382 88.4228V108.385C227.382 110.179 228.834 111.631 230.628 111.631H243.852V119.617L254.376 111.631H274.542C276.336 111.631 277.788 110.179 277.788 108.385V88.4228C277.788 86.6288 276.336 85.1768 274.548 85.1768Z" fill="url(#paint7_linear_6134_14893)"/>
<path d="M240.762 94.5787C241.386 94.4767 242.196 94.3867 243.234 94.3867C244.506 94.3867 245.436 94.6807 246.03 95.2147C246.576 95.6887 246.9 96.4147 246.9 97.3027C246.9 98.2027 246.636 98.9167 246.132 99.4327C245.454 100.159 244.344 100.525 243.084 100.525C242.7 100.525 242.346 100.513 242.046 100.435V104.431H240.756V94.5787H240.762ZM242.046 99.3847C242.328 99.4567 242.682 99.4867 243.108 99.4867C244.662 99.4867 245.61 98.7307 245.61 97.3567C245.61 96.0427 244.68 95.4067 243.258 95.4067C242.694 95.4067 242.268 95.4487 242.046 95.5087V99.3847Z" fill="white"/>
<path d="M249.918 94.459V98.629H254.742V94.459H256.044V104.431H254.742V99.757H249.918V104.431H248.628V94.459H249.918Z" fill="white"/>
<path d="M258.276 94.5787C258.9 94.4767 259.71 94.3867 260.748 94.3867C262.02 94.3867 262.95 94.6807 263.544 95.2147C264.09 95.6887 264.414 96.4147 264.414 97.3027C264.414 98.2027 264.15 98.9167 263.646 99.4327C262.968 100.159 261.858 100.525 260.598 100.525C260.214 100.525 259.86 100.513 259.56 100.435V104.431H258.27V94.5787H258.276ZM259.56 99.3847C259.842 99.4567 260.196 99.4867 260.622 99.4867C262.176 99.4867 263.124 98.7307 263.124 97.3567C263.124 96.0427 262.194 95.4067 260.772 95.4067C260.208 95.4067 259.782 95.4487 259.56 95.5087V99.3847Z" fill="white"/>
<path d="M181.92 51.0781H158.586C157.632 51.0781 156.864 51.8521 156.864 52.8001V63.4081C156.864 64.3621 157.638 65.1301 158.586 65.1301H165.612V69.3721L171.204 65.1301H181.92C182.874 65.1301 183.642 64.3561 183.642 63.4081V52.8001C183.648 51.8461 182.874 51.0781 181.92 51.0781Z" fill="#002680"/>
<path d="M181.92 51.0781H158.586C157.632 51.0781 156.864 51.8521 156.864 52.8001V63.4081C156.864 64.3621 157.638 65.1301 158.586 65.1301H165.612V69.3721L171.204 65.1301H181.92C182.874 65.1301 183.642 64.3561 183.642 63.4081V52.8001C183.648 51.8461 182.874 51.0781 181.92 51.0781Z" fill="url(#paint8_linear_6134_14893)"/>
<path d="M161.79 54.9238V57.1378H164.352V54.9238H165.042V60.2218H164.352V57.7378H161.79V60.2218H161.106V54.9238H161.79Z" fill="white"/>
<path d="M167.238 55.5058H165.624V54.9238H169.548V55.5058H167.928V60.2218H167.238V55.5058Z" fill="white"/>
<path d="M174.6 57.8998C174.558 57.1618 174.516 56.2738 174.522 55.6138H174.498C174.318 56.2378 174.096 56.8978 173.832 57.6238L172.896 60.1918H172.38L171.522 57.6658C171.27 56.9218 171.06 56.2378 170.91 55.6078H170.892C170.874 56.2678 170.838 57.1558 170.79 57.9478L170.646 60.2218H169.992L170.364 54.9238H171.234L172.14 57.4858C172.362 58.1398 172.542 58.7218 172.674 59.2678H172.698C172.83 58.7338 173.022 58.1518 173.256 57.4858L174.198 54.9238H175.068L175.398 60.2218H174.732L174.6 57.8998Z" fill="white"/>
<path d="M176.454 54.9238H177.138V59.6458H179.4V60.2218H176.454V54.9238Z" fill="white"/>
<path d="M215.838 72.1328H192.474C191.61 72.1328 190.908 72.8348 190.908 73.6988V90.0248C190.908 90.8888 191.61 91.5908 192.474 91.5908H215.838C216.702 91.5908 217.404 90.8888 217.404 90.0248V73.6988C217.404 72.8348 216.702 72.1328 215.838 72.1328Z" fill="#002680"/>
<path d="M215.838 72.1328H192.474C191.61 72.1328 190.908 72.8348 190.908 73.6988V90.0248C190.908 90.8888 191.61 91.5908 192.474 91.5908H215.838C216.702 91.5908 217.404 90.8888 217.404 90.0248V73.6988C217.404 72.8348 216.702 72.1328 215.838 72.1328Z" fill="url(#paint9_linear_6134_14893)"/>
<path d="M198.732 81.3848C199.746 81.3728 199.86 80.8208 199.86 80.3588C199.86 79.9808 199.818 79.5908 199.77 79.2008C199.71 78.7928 199.668 78.4028 199.668 78.0308C199.668 76.6688 200.538 76.0928 201.822 76.0928H202.242V77.1368H201.984C201.234 77.1368 200.97 77.5568 200.97 78.2648C200.97 78.5528 201.012 78.8588 201.072 79.1768C201.102 79.4948 201.156 79.8428 201.156 80.2208C201.168 81.2348 200.736 81.6668 199.998 81.8408V81.8708C200.736 82.0448 201.168 82.4948 201.156 83.5028C201.156 83.8928 201.096 84.2408 201.072 84.5588C201.012 84.8768 200.97 85.1828 200.97 85.4708C200.97 86.1908 201.258 86.6108 201.984 86.6108H202.242V87.6368H201.822C200.562 87.6368 199.668 87.1148 199.668 85.6568C199.668 85.2968 199.71 84.8888 199.77 84.4988C199.812 84.1088 199.86 83.7308 199.86 83.3588C199.86 82.9388 199.746 82.3448 198.732 82.3328V81.3848Z" fill="white"/>
<path d="M209.58 82.3211C208.584 82.3331 208.452 82.9271 208.452 83.3471C208.452 83.7251 208.512 84.0971 208.554 84.4871C208.596 84.8771 208.656 85.2851 208.656 85.6451C208.656 87.1031 207.762 87.625 206.502 87.625H206.082V86.5991H206.34C207.066 86.5871 207.336 86.179 207.336 85.459C207.336 85.171 207.294 84.8651 207.246 84.5471C207.204 84.2291 207.162 83.881 207.162 83.491C207.15 82.477 207.582 82.033 208.302 81.859V81.8291C207.576 81.6551 207.144 81.223 207.162 80.209C207.162 79.831 207.204 79.4831 207.246 79.1651C207.288 78.8471 207.336 78.5411 207.336 78.2531C207.336 77.5451 207.078 77.137 206.34 77.125H206.082V76.0811H206.502C207.792 76.0811 208.656 76.6571 208.656 78.0191C208.656 78.3971 208.596 78.7871 208.554 79.1891C208.512 79.5791 208.452 79.9691 208.452 80.3471C208.452 80.8091 208.584 81.3611 209.58 81.3731V82.3211Z" fill="white"/>
<path d="M50.088 69.3779H24.624V88.2539H50.088V69.3779Z" fill="#002680"/>
<path d="M50.088 69.3779H24.624V88.2539H50.088V69.3779Z" fill="url(#paint10_linear_6134_14893)"/>
<path d="M49.506 69.3779H24.624V87.4499H49.506V69.3779Z" fill="#002680"/>
<path d="M28.6562 78.6601L34.3263 75.9121V76.9861L29.8263 79.0801V79.1041L34.3263 81.2101V82.2721L28.6562 79.5241V78.6601Z" fill="white"/>
<path d="M35.1484 82.7462L38.0644 74.0762H39.0904L36.1744 82.7462H35.1484Z" fill="white"/>
<path d="M45.4801 79.5423L39.8101 82.2662V81.2042L44.3821 79.0982V79.0742L39.8101 76.9682V75.9062L45.4801 78.6303V79.5423Z" fill="white"/>
<defs>
<linearGradient id="paint0_linear_6134_14893" x1="25.1264" y1="130.925" x2="212.218" y2="135.186" gradientUnits="userSpaceOnUse">
<stop stop-color="#10BEF0"/>
<stop offset="1" stop-color="#10BEF0" stop-opacity="0"/>
</linearGradient>
<linearGradient id="paint1_linear_6134_14893" x1="214.227" y1="157.901" x2="218.189" y2="171.878" gradientUnits="userSpaceOnUse">
<stop stop-color="#10BEF0"/>
<stop offset="1" stop-color="#10BEF0" stop-opacity="0"/>
</linearGradient>
<linearGradient id="paint2_linear_6134_14893" x1="217.786" y1="155.778" x2="225.71" y2="169.425" gradientUnits="userSpaceOnUse">
<stop stop-color="#10BEF0"/>
<stop offset="1" stop-color="#10BEF0" stop-opacity="0"/>
</linearGradient>
<linearGradient id="paint3_linear_6134_14893" x1="229.605" y1="169.878" x2="234.405" y2="169.878" gradientUnits="userSpaceOnUse">
<stop stop-color="#10BEF0"/>
<stop offset="1" stop-color="#10BEF0" stop-opacity="0"/>
</linearGradient>
<linearGradient id="paint4_linear_6134_14893" x1="255.809" y1="161.751" x2="236.219" y2="173.747" gradientUnits="userSpaceOnUse">
<stop stop-color="#10BEF0"/>
<stop offset="1" stop-color="#10BEF0" stop-opacity="0"/>
</linearGradient>
<linearGradient id="paint5_linear_6134_14893" x1="199.293" y1="172.013" x2="229.027" y2="172.013" gradientUnits="userSpaceOnUse">
<stop stop-color="#10BEF0"/>
<stop offset="1" stop-color="#10BEF0" stop-opacity="0"/>
</linearGradient>
<linearGradient id="paint6_linear_6134_14893" x1="68.9566" y1="58.1601" x2="108.994" y2="58.1601" gradientUnits="userSpaceOnUse">
<stop stop-color="#10BEF0"/>
<stop offset="1" stop-color="#10BEF0" stop-opacity="0"/>
</linearGradient>
<linearGradient id="paint7_linear_6134_14893" x1="227.385" y1="102.395" x2="277.79" y2="102.395" gradientUnits="userSpaceOnUse">
<stop stop-color="#10BEF0"/>
<stop offset="1" stop-color="#10BEF0" stop-opacity="0"/>
</linearGradient>
<linearGradient id="paint8_linear_6134_14893" x1="156.862" y1="60.2252" x2="183.645" y2="60.2252" gradientUnits="userSpaceOnUse">
<stop stop-color="#10BEF0"/>
<stop offset="1" stop-color="#10BEF0" stop-opacity="0"/>
</linearGradient>
<linearGradient id="paint9_linear_6134_14893" x1="190.909" y1="81.8593" x2="217.402" y2="81.8593" gradientUnits="userSpaceOnUse">
<stop stop-color="#10BEF0"/>
<stop offset="1" stop-color="#10BEF0" stop-opacity="0"/>
</linearGradient>
<linearGradient id="paint10_linear_6134_14893" x1="30.2462" y1="78.6552" x2="84.6704" y2="79.8947" gradientUnits="userSpaceOnUse">
<stop stop-color="#10BEF0"/>
<stop offset="1" stop-color="#10BEF0" stop-opacity="0"/>
</linearGradient>
</defs>
</svg>
