<svg width="300" height="301" viewBox="0 0 300 301" fill="none" xmlns="http://www.w3.org/2000/svg">
<path opacity="0.15" d="M295.8 269.94C295.8 271.308 231.864 272.412 153 272.412C108.498 272.412 68.7542 272.058 42.5642 271.506C36.5342 271.38 31.2182 271.242 26.7362 271.092C23.7842 270.996 21.1862 270.894 18.9782 270.792C13.3022 270.528 10.2002 270.24 10.2002 269.934C10.2002 269.55 15.2342 269.19 24.2162 268.866C27.8942 268.734 32.2382 268.608 37.1642 268.488C63.1022 267.864 105.318 267.462 153 267.462C194.94 267.462 232.656 267.774 258.78 268.272C281.784 268.716 295.8 269.298 295.8 269.94Z" fill="#040C2B"/>
<path d="M160.146 212.568V251.826C160.146 253.044 160.026 254.238 159.792 255.39C158.136 263.67 150.828 269.91 142.056 269.91H118.656C113.928 269.91 109.626 268.098 106.404 265.128C103.65 262.59 101.682 259.206 100.92 255.39C100.692 254.238 100.566 253.044 100.566 251.826V212.568H160.146Z" fill="#002680"/>
<path d="M160.146 217.782H100.572V222.324H160.146V217.782Z" fill="white"/>
<path d="M160.146 228.805H100.572V233.347H160.146V228.805Z" fill="white"/>
<path d="M160.146 239.82H100.572V244.362H160.146V239.82Z" fill="white"/>
<path d="M160.146 250.843V251.821C160.146 253.039 160.026 254.233 159.792 255.385H100.92C100.692 254.233 100.566 253.039 100.566 251.821V250.843H160.146Z" fill="white"/>
<path opacity="0.1" d="M160.146 212.568V251.826C160.146 253.044 160.026 254.238 159.792 255.39C158.136 263.67 150.828 269.91 142.056 269.91H118.656C113.928 269.91 109.626 268.098 106.404 265.128C114.846 267.546 122.97 266.928 129.384 265.5C140.118 263.106 148.206 254.316 149.7 243.42C151.134 232.974 150.27 220.764 149.328 212.568H160.146Z" fill="black"/>
<path d="M147.546 175.584C146.178 174.216 144.294 173.37 142.212 173.37H136.05C132.93 173.37 130.398 170.838 130.398 167.718V147.162H112.236C109.788 147.78 107.976 149.994 107.976 152.64V158.802C107.976 160.884 107.13 162.774 105.762 164.142C104.394 165.51 102.51 166.356 100.422 166.356C98.3402 166.356 96.4502 165.51 95.0822 164.142C93.7142 162.774 92.8682 160.89 92.8682 158.802V152.64C92.8682 150 91.0562 147.78 88.6082 147.162H72.9902C75.6422 167.898 86.1422 194.73 100.566 212.598V212.592H130.392V194.124C130.392 192.612 130.986 191.238 131.952 190.224C132.006 190.164 132.06 190.11 132.12 190.056C133.134 189.072 134.52 188.472 136.044 188.472H142.206C144.222 188.472 146.058 187.68 147.414 186.39C147.45 186.354 147.486 186.324 147.522 186.288C147.564 186.246 147.606 186.204 147.648 186.156C148.956 184.8 149.754 182.958 149.754 180.924C149.76 178.836 148.914 176.952 147.546 175.584Z" fill="#002680"/>
<path d="M187.56 147.162C184.578 166.488 173.748 193.728 160.062 212.592H130.368V194.148C130.368 192.624 130.968 191.244 131.952 190.224C132.006 190.164 132.06 190.11 132.12 190.056C133.134 189.09 134.508 188.496 136.02 188.496H142.182C144.216 188.496 146.058 187.692 147.414 186.39C147.45 186.354 147.486 186.324 147.522 186.288C147.564 186.246 147.606 186.204 147.648 186.156C148.938 184.8 149.73 182.97 149.73 180.948C149.73 178.866 148.884 176.976 147.516 175.608C146.148 174.24 144.264 173.394 142.176 173.394H136.02C132.9 173.394 130.368 170.862 130.368 167.742V147.348H130.296V147.216H130.368V147.18H130.296V147.156H148.014C148.398 147.09 148.77 146.988 149.13 146.85C149.49 146.712 149.838 146.532 150.156 146.322C150.318 146.22 150.474 146.106 150.624 145.986C150.708 145.92 150.786 145.854 150.864 145.782C150.9 145.752 150.936 145.716 150.972 145.686C151.002 145.662 151.026 145.632 151.056 145.608C151.086 145.578 151.11 145.554 151.134 145.524C151.242 145.416 151.344 145.302 151.44 145.182C151.488 145.122 151.536 145.062 151.584 145.002C151.608 144.972 151.632 144.942 151.65 144.912C151.74 144.786 151.824 144.66 151.908 144.528C151.926 144.498 151.95 144.462 151.968 144.426C151.986 144.396 152.01 144.36 152.028 144.324C152.046 144.288 152.064 144.258 152.082 144.222C152.118 144.156 152.154 144.084 152.184 144.012C152.25 143.874 152.31 143.73 152.364 143.586C152.376 143.55 152.394 143.514 152.406 143.478C152.418 143.442 152.43 143.406 152.442 143.37C152.454 143.334 152.466 143.292 152.478 143.256C152.49 143.22 152.502 143.19 152.508 143.154C152.532 143.07 152.556 142.986 152.574 142.896C152.58 142.872 152.586 142.848 152.592 142.824C152.598 142.794 152.604 142.77 152.61 142.74C152.622 142.698 152.628 142.656 152.634 142.614C152.64 142.578 152.646 142.542 152.652 142.506C152.676 142.374 152.688 142.242 152.7 142.104C152.7 142.08 152.706 142.056 152.706 142.026C152.706 142.002 152.712 141.978 152.712 141.954C152.712 141.912 152.718 141.876 152.718 141.834C152.718 141.822 152.718 141.804 152.718 141.792C152.718 141.726 152.724 141.654 152.724 141.588V135.432C152.724 133.35 153.57 131.46 154.938 130.092C156.306 128.724 158.19 127.878 160.278 127.878C162.36 127.878 164.25 128.724 165.618 130.092C166.986 131.46 167.832 133.344 167.832 135.432V141.594C167.832 141.66 167.832 141.732 167.838 141.798C167.838 141.81 167.838 141.828 167.838 141.84C167.838 141.882 167.844 141.924 167.844 141.96C167.844 141.984 167.844 142.008 167.85 142.032C167.85 142.056 167.856 142.08 167.856 142.11C167.868 142.242 167.886 142.38 167.904 142.512C167.91 142.548 167.916 142.584 167.922 142.62C167.928 142.662 167.934 142.704 167.946 142.746C167.952 142.776 167.958 142.8 167.964 142.83C167.97 142.854 167.976 142.878 167.982 142.902C168 142.986 168.024 143.07 168.048 143.16C168.06 143.196 168.066 143.226 168.078 143.262C168.09 143.298 168.102 143.34 168.114 143.376C168.126 143.412 168.138 143.448 168.15 143.484C168.162 143.52 168.174 143.556 168.192 143.592C168.246 143.736 168.306 143.88 168.372 144.018C168.402 144.09 168.438 144.156 168.474 144.228C168.492 144.264 168.51 144.294 168.528 144.33C168.546 144.366 168.564 144.396 168.588 144.432C168.606 144.462 168.624 144.498 168.648 144.534C168.726 144.666 168.81 144.792 168.906 144.918C168.93 144.948 168.954 144.978 168.972 145.008C169.02 145.068 169.068 145.128 169.116 145.188C169.212 145.308 169.314 145.422 169.422 145.53C169.446 145.56 169.476 145.584 169.5 145.614C169.524 145.644 169.554 145.668 169.584 145.692C169.62 145.722 169.656 145.758 169.692 145.788C169.74 145.836 169.794 145.878 169.842 145.92C169.872 145.944 169.902 145.968 169.932 145.992C170.082 146.112 170.238 146.226 170.4 146.328C170.43 146.352 170.466 146.37 170.496 146.388C170.526 146.412 170.562 146.43 170.592 146.448C170.856 146.604 171.132 146.742 171.426 146.856C171.78 146.994 172.152 147.102 172.542 147.162H187.56Z" fill="#002680"/>
<path d="M130.344 147.012V147.048H130.416V147.072H112.698C112.548 147.096 112.398 147.126 112.254 147.168C109.806 147.786 107.994 150 107.994 152.646V158.808C107.994 160.89 107.148 162.78 105.78 164.148C104.412 165.516 102.528 166.362 100.44 166.362C98.358 166.362 96.468 165.516 95.1 164.148C93.732 162.78 92.886 160.896 92.886 158.808V152.646C92.886 150.006 91.074 147.786 88.626 147.168C88.482 147.132 88.332 147.102 88.182 147.072H72.996C72.57 143.736 72.354 140.562 72.354 137.61C72.354 106.704 98.298 81.6482 130.32 81.6182H130.344V100.092C130.344 100.26 130.338 100.428 130.32 100.59C130.32 100.596 130.32 100.596 130.32 100.602C130.314 100.638 130.314 100.674 130.308 100.716C130.308 100.722 130.308 100.728 130.308 100.734C130.302 100.776 130.296 100.818 130.29 100.86C130.284 100.902 130.278 100.95 130.272 100.992C130.254 101.124 130.224 101.256 130.194 101.382C130.182 101.424 130.176 101.466 130.164 101.508C130.14 101.592 130.116 101.676 130.092 101.76C130.068 101.844 130.038 101.928 130.008 102.006C129.978 102.09 129.948 102.168 129.912 102.252C129.864 102.372 129.81 102.492 129.75 102.606C129.732 102.642 129.708 102.684 129.69 102.72C129.672 102.756 129.648 102.798 129.63 102.834C129.546 102.984 129.456 103.128 129.36 103.272C129.336 103.308 129.312 103.344 129.288 103.38C129.24 103.452 129.186 103.518 129.132 103.584C129.066 103.668 129 103.752 128.928 103.83C128.856 103.908 128.784 103.986 128.706 104.064C128.676 104.094 128.646 104.124 128.616 104.154C128.586 104.184 128.556 104.214 128.52 104.244C128.466 104.298 128.406 104.346 128.352 104.394C128.28 104.454 128.202 104.52 128.124 104.574C128.094 104.598 128.058 104.622 128.022 104.646C127.992 104.67 127.956 104.694 127.926 104.718C127.572 104.964 127.188 105.174 126.78 105.336C126.75 105.348 126.72 105.36 126.696 105.372C126.678 105.378 126.654 105.39 126.636 105.396C126.594 105.414 126.552 105.426 126.51 105.444C126.456 105.462 126.402 105.48 126.342 105.498C126.312 105.51 126.276 105.516 126.246 105.528C126.15 105.558 126.048 105.582 125.952 105.606C125.916 105.612 125.874 105.624 125.838 105.63C125.76 105.648 125.688 105.66 125.61 105.672C125.58 105.678 125.55 105.684 125.52 105.684C125.25 105.72 124.974 105.744 124.698 105.744H118.536C116.454 105.744 114.564 106.59 113.202 107.958C111.834 109.326 110.988 111.21 110.988 113.298C110.988 115.38 111.834 117.27 113.202 118.632C114.57 120 116.454 120.846 118.536 120.846H124.698C124.98 120.846 125.25 120.864 125.52 120.906C125.55 120.912 125.58 120.918 125.61 120.918C125.664 120.93 125.724 120.936 125.778 120.948C125.814 120.954 125.85 120.96 125.886 120.972C125.982 120.99 126.084 121.014 126.174 121.044C126.21 121.056 126.252 121.062 126.288 121.074C126.336 121.086 126.384 121.104 126.432 121.116C126.468 121.128 126.498 121.14 126.534 121.152C126.624 121.182 126.72 121.218 126.81 121.254C126.84 121.266 126.87 121.278 126.9 121.29C126.978 121.32 127.05 121.356 127.128 121.392C127.29 121.47 127.446 121.554 127.596 121.644C127.632 121.668 127.668 121.686 127.704 121.71C127.74 121.734 127.776 121.758 127.812 121.782C127.884 121.83 127.956 121.878 128.022 121.932C128.052 121.956 128.088 121.98 128.118 122.004C128.196 122.064 128.268 122.124 128.346 122.184C128.406 122.232 128.46 122.286 128.514 122.334C128.544 122.364 128.574 122.394 128.61 122.424C128.64 122.454 128.67 122.484 128.7 122.514C128.79 122.604 128.88 122.7 128.964 122.796C129.018 122.862 129.072 122.928 129.126 122.994C129.156 123.03 129.18 123.06 129.204 123.096C129.228 123.132 129.258 123.162 129.282 123.198C129.306 123.234 129.33 123.27 129.354 123.306C129.402 123.378 129.45 123.45 129.492 123.522C129.54 123.594 129.582 123.672 129.624 123.744C129.642 123.78 129.666 123.822 129.684 123.858C129.702 123.894 129.726 123.936 129.744 123.972C129.774 124.032 129.804 124.086 129.828 124.146C129.852 124.206 129.882 124.266 129.906 124.326C129.924 124.368 129.936 124.404 129.954 124.446C129.972 124.488 129.984 124.53 130.002 124.566C130.014 124.608 130.032 124.65 130.044 124.692C130.086 124.818 130.122 124.944 130.158 125.07C130.17 125.112 130.182 125.154 130.188 125.196C130.218 125.328 130.242 125.454 130.266 125.586C130.272 125.628 130.278 125.676 130.284 125.718C130.29 125.76 130.296 125.802 130.302 125.844C130.302 125.85 130.302 125.85 130.302 125.856C130.308 125.898 130.308 125.94 130.314 125.982V125.988C130.332 126.156 130.338 126.318 130.338 126.486V146.88H130.41V147.012H130.344Z" fill="#002680"/>
<path d="M187.56 147.162C184.578 166.488 173.748 193.728 160.062 212.592H130.368V194.148C130.368 192.624 130.968 191.244 131.952 190.224C132.006 190.164 132.06 190.11 132.12 190.056C133.134 189.09 134.508 188.496 136.02 188.496H142.182C144.216 188.496 146.058 187.692 147.414 186.39C147.45 186.354 147.486 186.324 147.522 186.288C147.564 186.246 147.606 186.204 147.648 186.156C148.938 184.8 149.73 182.97 149.73 180.948C149.73 178.866 148.884 176.976 147.516 175.608C146.148 174.24 144.264 173.394 142.176 173.394H136.02C132.9 173.394 130.368 170.862 130.368 167.742V147.348H130.296V147.216H130.368V147.18H130.296V147.156H148.014C148.398 147.09 148.77 146.988 149.13 146.85C149.49 146.712 149.838 146.532 150.156 146.322C150.318 146.22 150.474 146.106 150.624 145.986C150.708 145.92 150.786 145.854 150.864 145.782C150.9 145.752 150.936 145.716 150.972 145.686C151.002 145.662 151.026 145.632 151.056 145.608C151.086 145.578 151.11 145.554 151.134 145.524C151.242 145.416 151.344 145.302 151.44 145.182C151.488 145.122 151.536 145.062 151.584 145.002C151.608 144.972 151.632 144.942 151.65 144.912C151.74 144.786 151.824 144.66 151.908 144.528C151.926 144.498 151.95 144.462 151.968 144.426C151.986 144.396 152.01 144.36 152.028 144.324C152.046 144.288 152.064 144.258 152.082 144.222C152.118 144.156 152.154 144.084 152.184 144.012C152.25 143.874 152.31 143.73 152.364 143.586C152.376 143.55 152.394 143.514 152.406 143.478C152.418 143.442 152.43 143.406 152.442 143.37C152.454 143.334 152.466 143.292 152.478 143.256C152.49 143.22 152.502 143.19 152.508 143.154C152.532 143.07 152.556 142.986 152.574 142.896C152.58 142.872 152.586 142.848 152.592 142.824C152.598 142.794 152.604 142.77 152.61 142.74C152.622 142.698 152.628 142.656 152.634 142.614C152.64 142.578 152.646 142.542 152.652 142.506C152.676 142.374 152.688 142.242 152.7 142.104C152.7 142.08 152.706 142.056 152.706 142.026C152.706 142.002 152.712 141.978 152.712 141.954C152.712 141.912 152.718 141.876 152.718 141.834C152.718 141.822 152.718 141.804 152.718 141.792C152.718 141.726 152.724 141.654 152.724 141.588V135.432C152.724 133.35 153.57 131.46 154.938 130.092C156.306 128.724 158.19 127.878 160.278 127.878C162.36 127.878 164.25 128.724 165.618 130.092C166.986 131.46 167.832 133.344 167.832 135.432V141.594C167.832 141.66 167.832 141.732 167.838 141.798C167.838 141.81 167.838 141.828 167.838 141.84C167.838 141.882 167.844 141.924 167.844 141.96C167.844 141.984 167.844 142.008 167.85 142.032C167.85 142.056 167.856 142.08 167.856 142.11C167.868 142.242 167.886 142.38 167.904 142.512C167.91 142.548 167.916 142.584 167.922 142.62C167.928 142.662 167.934 142.704 167.946 142.746C167.952 142.776 167.958 142.8 167.964 142.83C167.97 142.854 167.976 142.878 167.982 142.902C168 142.986 168.024 143.07 168.048 143.16C168.06 143.196 168.066 143.226 168.078 143.262C168.09 143.298 168.102 143.34 168.114 143.376C168.126 143.412 168.138 143.448 168.15 143.484C168.162 143.52 168.174 143.556 168.192 143.592C168.246 143.736 168.306 143.88 168.372 144.018C168.402 144.09 168.438 144.156 168.474 144.228C168.492 144.264 168.51 144.294 168.528 144.33C168.546 144.366 168.564 144.396 168.588 144.432C168.606 144.462 168.624 144.498 168.648 144.534C168.726 144.666 168.81 144.792 168.906 144.918C168.93 144.948 168.954 144.978 168.972 145.008C169.02 145.068 169.068 145.128 169.116 145.188C169.212 145.308 169.314 145.422 169.422 145.53C169.446 145.56 169.476 145.584 169.5 145.614C169.524 145.644 169.554 145.668 169.584 145.692C169.62 145.722 169.656 145.758 169.692 145.788C169.74 145.836 169.794 145.878 169.842 145.92C169.872 145.944 169.902 145.968 169.932 145.992C170.082 146.112 170.238 146.226 170.4 146.328C170.43 146.352 170.466 146.37 170.496 146.388C170.526 146.412 170.562 146.43 170.592 146.448C170.856 146.604 171.132 146.742 171.426 146.856C171.78 146.994 172.152 147.102 172.542 147.162H187.56Z" fill="url(#paint0_linear_6134_15810)"/>
<path d="M130.344 147.012V147.048H130.416V147.072H112.698C112.548 147.096 112.398 147.126 112.254 147.168C109.806 147.786 107.994 150 107.994 152.646V158.808C107.994 160.89 107.148 162.78 105.78 164.148C104.412 165.516 102.528 166.362 100.44 166.362C98.358 166.362 96.468 165.516 95.1 164.148C93.732 162.78 92.886 160.896 92.886 158.808V152.646C92.886 150.006 91.074 147.786 88.626 147.168C88.482 147.132 88.332 147.102 88.182 147.072H72.996C72.57 143.736 72.354 140.562 72.354 137.61C72.354 106.704 98.298 81.6482 130.32 81.6182H130.344V100.092C130.344 100.26 130.338 100.428 130.32 100.59C130.32 100.596 130.32 100.596 130.32 100.602C130.314 100.638 130.314 100.674 130.308 100.716C130.308 100.722 130.308 100.728 130.308 100.734C130.302 100.776 130.296 100.818 130.29 100.86C130.284 100.902 130.278 100.95 130.272 100.992C130.254 101.124 130.224 101.256 130.194 101.382C130.182 101.424 130.176 101.466 130.164 101.508C130.14 101.592 130.116 101.676 130.092 101.76C130.068 101.844 130.038 101.928 130.008 102.006C129.978 102.09 129.948 102.168 129.912 102.252C129.864 102.372 129.81 102.492 129.75 102.606C129.732 102.642 129.708 102.684 129.69 102.72C129.672 102.756 129.648 102.798 129.63 102.834C129.546 102.984 129.456 103.128 129.36 103.272C129.336 103.308 129.312 103.344 129.288 103.38C129.24 103.452 129.186 103.518 129.132 103.584C129.066 103.668 129 103.752 128.928 103.83C128.856 103.908 128.784 103.986 128.706 104.064C128.676 104.094 128.646 104.124 128.616 104.154C128.586 104.184 128.556 104.214 128.52 104.244C128.466 104.298 128.406 104.346 128.352 104.394C128.28 104.454 128.202 104.52 128.124 104.574C128.094 104.598 128.058 104.622 128.022 104.646C127.992 104.67 127.956 104.694 127.926 104.718C127.572 104.964 127.188 105.174 126.78 105.336C126.75 105.348 126.72 105.36 126.696 105.372C126.678 105.378 126.654 105.39 126.636 105.396C126.594 105.414 126.552 105.426 126.51 105.444C126.456 105.462 126.402 105.48 126.342 105.498C126.312 105.51 126.276 105.516 126.246 105.528C126.15 105.558 126.048 105.582 125.952 105.606C125.916 105.612 125.874 105.624 125.838 105.63C125.76 105.648 125.688 105.66 125.61 105.672C125.58 105.678 125.55 105.684 125.52 105.684C125.25 105.72 124.974 105.744 124.698 105.744H118.536C116.454 105.744 114.564 106.59 113.202 107.958C111.834 109.326 110.988 111.21 110.988 113.298C110.988 115.38 111.834 117.27 113.202 118.632C114.57 120 116.454 120.846 118.536 120.846H124.698C124.98 120.846 125.25 120.864 125.52 120.906C125.55 120.912 125.58 120.918 125.61 120.918C125.664 120.93 125.724 120.936 125.778 120.948C125.814 120.954 125.85 120.96 125.886 120.972C125.982 120.99 126.084 121.014 126.174 121.044C126.21 121.056 126.252 121.062 126.288 121.074C126.336 121.086 126.384 121.104 126.432 121.116C126.468 121.128 126.498 121.14 126.534 121.152C126.624 121.182 126.72 121.218 126.81 121.254C126.84 121.266 126.87 121.278 126.9 121.29C126.978 121.32 127.05 121.356 127.128 121.392C127.29 121.47 127.446 121.554 127.596 121.644C127.632 121.668 127.668 121.686 127.704 121.71C127.74 121.734 127.776 121.758 127.812 121.782C127.884 121.83 127.956 121.878 128.022 121.932C128.052 121.956 128.088 121.98 128.118 122.004C128.196 122.064 128.268 122.124 128.346 122.184C128.406 122.232 128.46 122.286 128.514 122.334C128.544 122.364 128.574 122.394 128.61 122.424C128.64 122.454 128.67 122.484 128.7 122.514C128.79 122.604 128.88 122.7 128.964 122.796C129.018 122.862 129.072 122.928 129.126 122.994C129.156 123.03 129.18 123.06 129.204 123.096C129.228 123.132 129.258 123.162 129.282 123.198C129.306 123.234 129.33 123.27 129.354 123.306C129.402 123.378 129.45 123.45 129.492 123.522C129.54 123.594 129.582 123.672 129.624 123.744C129.642 123.78 129.666 123.822 129.684 123.858C129.702 123.894 129.726 123.936 129.744 123.972C129.774 124.032 129.804 124.086 129.828 124.146C129.852 124.206 129.882 124.266 129.906 124.326C129.924 124.368 129.936 124.404 129.954 124.446C129.972 124.488 129.984 124.53 130.002 124.566C130.014 124.608 130.032 124.65 130.044 124.692C130.086 124.818 130.122 124.944 130.158 125.07C130.17 125.112 130.182 125.154 130.188 125.196C130.218 125.328 130.242 125.454 130.266 125.586C130.272 125.628 130.278 125.676 130.284 125.718C130.29 125.76 130.296 125.802 130.302 125.844C130.302 125.85 130.302 125.85 130.302 125.856C130.308 125.898 130.308 125.94 130.314 125.982V125.988C130.332 126.156 130.338 126.318 130.338 126.486V146.88H130.41V147.012H130.344Z" fill="url(#paint1_linear_6134_15810)"/>
<path d="M245.952 258.426L246.942 265.05L243.066 266.502L240.462 263.838L241.554 258.132L245.952 258.426Z" fill="#DB965F"/>
<path d="M242.628 262.338C242.628 262.338 241.722 260.796 241.056 260.742C241.056 260.742 234.42 265.782 233.628 266.94C233.628 266.94 230.49 270.15 236.904 270.222L243.798 268.326C243.798 268.326 249.75 267.792 247.422 263.082L246.492 262.068C246.498 262.068 245.544 264.6 242.628 262.338Z" fill="#040C2B"/>
<path d="M234.043 216.726L237.043 234.882L240.697 260.352L245.299 259.998L246.643 259.896L245.587 233.958L248.365 194.232L236.017 193.41C236.017 193.41 232.879 204.924 234.043 216.726Z" fill="#040C2B"/>
<path opacity="0.15" d="M242.202 209.784C242.202 209.784 232.446 232.764 242.16 240.498L245.298 259.998L246.642 259.896L245.586 233.958L248.364 194.232L240.054 193.68L242.202 209.784Z" fill="black"/>
<path d="M258.132 248.904L261.828 253.35L257.256 257.82L256.122 256.68L254.286 249.93L258.132 248.904Z" fill="#DB965F"/>
<path d="M263.592 252.54C263.592 252.54 264.516 253.668 263.988 257.268C263.988 257.268 263.568 258.24 263.868 260.112C263.868 260.112 263.832 264.954 259.242 267.504C259.242 267.504 256.638 268.044 256.446 263.472C256.446 263.472 256.2 257.958 255.612 254.826C255.612 254.826 258.69 255.924 260.286 251.502C260.292 251.502 261.318 250.326 263.592 252.54Z" fill="#040C2B"/>
<path d="M257.166 191.538C257.166 191.538 262.158 201.132 257.172 211.848L249.204 229.74C248.634 231.012 248.754 232.488 249.516 233.658L259.482 248.988L254.946 252.348L242.226 238.35C239.73 235.608 238.746 231.81 239.592 228.204L244.11 208.914L241.332 192.768L257.166 191.538Z" fill="#040C2B"/>
<path d="M254.352 145.044C254.352 145.044 258.192 157.488 256.626 161.472C255.06 165.456 254.922 165.528 254.922 165.528C254.922 165.528 248.808 166.878 248.592 167.022C248.376 167.166 240.84 160.548 240.84 160.548L242.832 148.176L249.306 143.982L254.352 145.044Z" fill="black"/>
<path d="M241.59 161.934L242.73 167.412L246.066 167.484L252.258 167.622L254.748 164.706C254.37 164.292 254.088 163.47 253.89 162.438C253.71 161.52 253.59 160.44 253.512 159.336C253.278 156.102 253.398 152.688 253.398 152.688L244.722 155.46C244.434 159.588 241.59 161.934 241.59 161.934Z" fill="#C9885B"/>
<path d="M254.106 146.575C254.106 146.575 257.802 157.729 249.282 160.435C248.916 160.549 248.52 160.549 248.154 160.423C246.588 159.895 242.58 157.735 242.868 149.491C242.868 149.491 246.498 136.693 254.106 146.575Z" fill="#DB965F"/>
<path d="M237.678 163.236V175.302H238.104L238.56 162.948L237.678 163.236Z" fill="#262C84"/>
<path d="M232.207 187.891L235.309 189.487L236.899 190.303L237.181 190.453L237.145 189.667L237.085 188.473L236.941 185.599L236.503 176.689L236.365 173.917L233.557 173.101L232.525 184.375L232.321 186.613L232.207 187.891Z" fill="#DB965F"/>
<path d="M212.4 180.012C213.42 182.124 217.86 184.104 217.86 184.104L231.552 193.122C232.428 193.698 233.466 193.794 234.372 193.494C235.26 193.206 236.028 192.534 236.4 191.568L236.892 190.296L237.138 189.66L237.534 188.646L237.078 188.466L235.59 187.884L232.32 186.612L224.772 183.66C223.416 182.934 222.12 181.77 221.322 180.972C220.89 180.54 220.506 180.06 220.2 179.532C219.576 178.458 218.688 177.42 217.956 176.652C217.224 175.884 216.648 175.38 216.648 175.38C216.27 175.752 216.24 176.352 216.576 176.76L217.974 178.464L216.138 177.384C215.52 177.018 214.8 176.832 214.086 176.874C211.386 177.036 212.4 180.012 212.4 180.012Z" fill="#DB965F"/>
<path d="M228.792 183.343L232.524 184.381L235.944 185.329L236.94 185.605L237.252 185.689L237.648 185.731L237.3 176.113L236.844 163.513C232.992 164.977 232.488 169.051 232.488 169.051L228.792 183.343Z" fill="#D3D3D3"/>
<path opacity="0.15" d="M235.309 189.487C235.417 188.941 235.513 188.407 235.597 187.891C235.747 186.985 235.861 186.127 235.951 185.323C236.527 180.109 236.443 178.963 236.443 178.963L236.725 177.325L237.223 173.767C237.199 175.633 236.899 181.243 236.953 185.593H236.947L236.953 185.773L237.085 188.467L237.541 188.647L237.145 189.661L237.181 190.441L236.893 190.297L236.401 191.569C236.257 191.947 236.053 192.277 235.801 192.559C235.411 192.997 234.913 193.315 234.373 193.495C234.757 192.091 235.063 190.747 235.309 189.487Z" fill="black"/>
<path d="M234.672 200.281C234.918 197.695 235.368 194.911 235.806 192.565C236.364 189.577 236.898 187.291 236.964 186.997C236.97 186.973 236.97 186.955 236.97 186.931C236.964 186.535 236.958 186.151 236.952 185.779C236.952 185.719 236.934 182.011 236.934 181.951C236.892 178.693 236.898 178.237 236.91 177.433C236.922 176.707 236.97 175.987 237.06 175.267L237.222 173.947L236.862 164.047L236.844 163.507C236.97 163.459 237.096 163.417 237.228 163.375C237.33 163.345 237.426 163.315 237.534 163.285L237.678 163.237L238.56 162.943L241.59 161.935C241.59 161.935 243.3 164.815 246.456 165.349C248.406 165.679 250.902 165.121 253.884 162.439L253.89 162.433L258.942 164.167L259.902 164.497L261.138 164.923C261.138 164.923 261.18 164.947 261.264 165.013C260.658 166.399 259.704 168.889 259.068 172.123C258.588 174.547 258.288 177.391 258.432 180.511C258.708 181.087 258.822 181.465 258.852 181.585C258.858 181.609 258.864 181.639 258.858 181.663C258.78 183.319 258.738 184.927 258.72 186.463L258.768 187.867L258.714 187.861C258.72 190.135 258.78 192.235 258.87 194.089C259.008 196.903 259.68 199.447 259.536 200.797L234.672 200.281Z" fill="#D3D3D3"/>
<path opacity="0.15" d="M257.904 187.776C258.036 189.972 258.33 192.138 258.882 194.082C258.792 192.228 258.726 190.134 258.726 187.854L258.78 187.86L258.732 186.456C258.744 184.908 258.786 183.288 258.87 181.62C258.87 181.62 258.78 181.206 258.444 180.504C258.3 177.39 258.606 174.54 259.08 172.116L259.014 172.086C259.014 172.086 258.372 175.368 258.03 179.742C257.832 182.214 257.736 185.016 257.904 187.776Z" fill="black"/>
<path d="M262.854 171.324L264.558 189.51C264.63 190.248 264.162 190.938 263.454 191.148L259.224 192.414L258.798 178.218L262.854 171.324Z" fill="#DB965F"/>
<path d="M258.588 182.484L258.78 187.866L259.014 187.89L269.328 184.404L264.99 172.458C263.418 167.01 261.738 165.378 261.276 165.006C260.112 167.646 257.712 174.288 258.588 182.484Z" fill="#D3D3D3"/>
<path d="M258.348 232.518C257.412 235.2 256.098 238.116 254.466 241.188L239.844 236.076C239.646 235.944 239.46 235.806 239.28 235.65C239.046 235.446 238.824 235.224 238.626 234.99C238.602 234.96 238.578 234.93 238.554 234.9C238.53 234.87 238.506 234.84 238.482 234.81C238.362 234.66 238.254 234.498 238.152 234.336C238.134 234.306 238.11 234.27 238.092 234.24C238.056 234.18 238.026 234.126 237.99 234.066C237.966 234.024 237.948 233.982 237.924 233.94C237.906 233.904 237.888 233.874 237.87 233.838C237.852 233.802 237.834 233.766 237.822 233.736C237.756 233.598 237.702 233.454 237.648 233.31C237.624 233.238 237.594 233.166 237.57 233.094C237.558 233.058 237.546 233.022 237.534 232.986C237.492 232.836 237.45 232.692 237.42 232.542C237.414 232.506 237.402 232.464 237.396 232.428C237.39 232.392 237.384 232.35 237.378 232.314C237.372 232.278 237.366 232.236 237.36 232.2C237.348 232.122 237.336 232.05 237.33 231.972C237.312 231.816 237.3 231.666 237.3 231.51C237.3 231.468 237.3 231.432 237.3 231.396C237.3 231.36 237.3 231.318 237.3 231.282C237.3 231.24 237.3 231.204 237.306 231.162C237.306 231.126 237.306 231.09 237.312 231.054C237.318 230.964 237.324 230.88 237.336 230.79C237.336 230.766 237.342 230.742 237.342 230.718C237.342 230.688 237.348 230.664 237.354 230.634C237.36 230.592 237.366 230.55 237.372 230.508C237.378 230.472 237.384 230.436 237.39 230.4C237.414 230.268 237.444 230.136 237.474 230.004C237.48 229.98 237.486 229.956 237.492 229.932C237.498 229.908 237.504 229.884 237.51 229.86C237.522 229.824 237.534 229.782 237.546 229.74C237.552 229.728 237.552 229.71 237.558 229.698C237.576 229.632 237.6 229.572 237.624 229.506L239.658 223.686C240.348 221.718 240.168 219.66 239.334 217.92C238.494 216.18 236.994 214.758 235.026 214.074C233.058 213.384 231 213.558 229.26 214.398C227.52 215.238 226.098 216.738 225.414 218.706L223.38 224.526C223.356 224.592 223.332 224.652 223.308 224.718C223.302 224.73 223.296 224.748 223.29 224.76C223.272 224.796 223.26 224.838 223.242 224.874C223.236 224.898 223.224 224.916 223.212 224.94C223.2 224.964 223.194 224.988 223.182 225.012C223.128 225.132 223.068 225.252 223.002 225.372C222.984 225.402 222.966 225.438 222.948 225.468C222.924 225.504 222.906 225.54 222.882 225.576C222.87 225.6 222.852 225.624 222.84 225.648C222.828 225.672 222.816 225.69 222.798 225.708C222.75 225.78 222.702 225.858 222.648 225.924C222.624 225.954 222.606 225.984 222.588 226.008C222.564 226.038 222.54 226.074 222.516 226.104C222.492 226.134 222.468 226.164 222.444 226.194C222.42 226.224 222.396 226.254 222.372 226.284C222.27 226.404 222.168 226.518 222.06 226.626C222.006 226.68 221.952 226.734 221.892 226.788C221.862 226.812 221.832 226.842 221.808 226.866C221.778 226.89 221.748 226.914 221.718 226.944C221.688 226.968 221.658 226.992 221.628 227.016C221.508 227.112 221.388 227.208 221.262 227.292C221.232 227.316 221.202 227.334 221.166 227.358C221.1 227.4 221.04 227.442 220.974 227.478C220.842 227.556 220.71 227.634 220.572 227.7C220.536 227.718 220.506 227.736 220.47 227.748C220.434 227.76 220.404 227.778 220.368 227.796C220.326 227.814 220.278 227.832 220.236 227.856C220.14 227.898 220.038 227.934 219.942 227.97C219.762 228.036 219.576 228.09 219.39 228.138C219.018 228.228 218.634 228.282 218.244 228.3C218.01 228.306 217.776 228.3 217.542 228.282L200.4 222.294L207.354 202.392V202.386C207.366 202.344 207.372 202.308 207.384 202.266C207.384 202.26 207.384 202.26 207.384 202.254C207.396 202.212 207.402 202.17 207.414 202.128C207.42 202.086 207.432 202.038 207.438 201.996C207.462 201.864 207.48 201.732 207.492 201.6C207.498 201.558 207.498 201.51 207.504 201.468C207.516 201.336 207.522 201.204 207.522 201.072C207.522 201.03 207.522 200.982 207.522 200.94C207.522 200.898 207.522 200.85 207.522 200.808C207.522 200.766 207.516 200.724 207.516 200.676C207.51 200.61 207.504 200.544 207.504 200.484C207.498 200.418 207.492 200.358 207.48 200.292C207.474 200.25 207.468 200.208 207.462 200.166C207.456 200.124 207.45 200.082 207.444 200.04C207.426 199.956 207.414 199.872 207.396 199.788C207.378 199.704 207.354 199.62 207.336 199.536C207.324 199.494 207.312 199.452 207.3 199.41C207.288 199.368 207.276 199.326 207.264 199.29C207.252 199.248 207.24 199.206 207.222 199.17C207.198 199.092 207.168 199.008 207.132 198.93C207.084 198.81 207.03 198.696 206.976 198.576C206.958 198.534 206.94 198.498 206.922 198.462C206.904 198.426 206.886 198.384 206.862 198.348C206.826 198.282 206.79 198.216 206.748 198.15C206.7 198.066 206.646 197.982 206.592 197.904C206.568 197.868 206.55 197.838 206.526 197.802C206.478 197.73 206.424 197.658 206.376 197.592C206.352 197.556 206.322 197.526 206.298 197.49C206.274 197.454 206.244 197.424 206.214 197.388C206.1 197.25 205.98 197.124 205.854 196.998C205.794 196.938 205.734 196.884 205.674 196.83C205.65 196.806 205.626 196.782 205.602 196.764C205.53 196.698 205.452 196.638 205.374 196.572C205.344 196.548 205.314 196.53 205.29 196.506C205.248 196.476 205.206 196.446 205.17 196.416C205.14 196.392 205.104 196.368 205.074 196.344C204.99 196.29 204.906 196.236 204.822 196.182C204.792 196.164 204.762 196.146 204.726 196.128C204.678 196.098 204.63 196.074 204.576 196.044C204.552 196.032 204.522 196.014 204.498 196.002C204.258 195.876 204.006 195.768 203.742 195.672L197.922 193.638C195.954 192.948 194.454 191.532 193.614 189.792C192.774 188.052 192.6 185.994 193.284 184.026C193.974 182.058 195.39 180.552 197.136 179.718C198.876 178.878 200.934 178.704 202.902 179.394L208.722 181.428C208.986 181.518 209.25 181.59 209.52 181.644C209.55 181.65 209.58 181.656 209.61 181.662C209.688 181.674 209.76 181.686 209.838 181.698C209.874 181.704 209.916 181.71 209.952 181.71C210.054 181.722 210.156 181.728 210.258 181.734C210.294 181.734 210.324 181.74 210.36 181.74C210.42 181.74 210.474 181.746 210.534 181.746C210.582 181.746 210.624 181.746 210.672 181.746C210.696 181.746 210.714 181.746 210.738 181.746C210.768 181.746 210.798 181.746 210.828 181.74C211.266 181.722 211.692 181.65 212.112 181.536C212.148 181.524 212.19 181.512 212.226 181.5C212.268 181.488 212.304 181.476 212.346 181.464C212.436 181.434 212.526 181.404 212.622 181.368C212.694 181.344 212.76 181.314 212.832 181.284C212.874 181.266 212.91 181.248 212.952 181.23C212.988 181.212 213.03 181.194 213.066 181.176C213.162 181.128 213.258 181.08 213.348 181.026C213.444 180.972 213.534 180.918 213.624 180.864C213.696 180.816 213.768 180.768 213.84 180.72C213.876 180.696 213.912 180.672 213.942 180.648C214.08 180.546 214.212 180.438 214.344 180.324C214.374 180.294 214.41 180.264 214.44 180.234C214.47 180.204 214.5 180.174 214.536 180.144C214.632 180.054 214.716 179.958 214.806 179.862C214.866 179.796 214.92 179.73 214.974 179.664C215.028 179.598 215.082 179.526 215.136 179.46C215.19 179.388 215.238 179.316 215.286 179.244C215.31 179.208 215.334 179.172 215.358 179.136C215.43 179.022 215.496 178.908 215.562 178.788C215.58 178.746 215.604 178.71 215.622 178.668C215.64 178.632 215.658 178.596 215.676 178.554C215.676 178.548 215.682 178.542 215.682 178.536C215.7 178.5 215.712 178.47 215.73 178.434C215.73 178.428 215.736 178.428 215.736 178.422L221.994 160.506L222.048 160.524C252.294 171.09 268.548 203.322 258.348 232.518Z" fill="#002680"/>
<path d="M262.776 194.766L256.578 209.604C256.578 209.604 254.964 214.188 252.948 215.382C252.948 215.382 250.068 216.636 249.684 213.966C249.582 213.252 249.708 212.526 250.026 211.878L250.956 209.964L249.372 211.494C248.994 211.86 248.394 211.878 247.992 211.536C247.992 211.536 248.442 210.924 249.15 210.132C249.858 209.34 250.818 208.368 251.838 207.66C252.342 207.312 252.786 206.892 253.182 206.424C253.908 205.56 254.964 204.174 255.576 202.764L257.898 195L258.906 191.634L259.194 190.602L264.588 189.792L262.776 194.766Z" fill="#DB965F"/>
<path d="M251.868 146.538C251.868 146.538 248.454 151.518 243.474 150.306C243.474 150.306 242.334 152.94 245.04 158.766C245.04 158.766 246.462 162.18 245.394 167.016C245.394 167.016 238.212 164.1 239.28 156.636C239.28 156.636 240.558 138.078 250.584 141.42C250.584 141.42 255.636 140.496 257.838 150.096C257.838 150.096 262.176 163.536 253.716 167.022C253.716 167.022 255.492 162.684 254.178 154.824C254.178 154.824 250.836 148.782 251.868 146.538Z" fill="black"/>
<path d="M254.881 154.929C255.03 154.108 254.72 153.364 254.189 153.267C253.658 153.17 253.106 153.758 252.956 154.58C252.807 155.401 253.117 156.146 253.648 156.242C254.18 156.339 254.732 155.751 254.881 154.929Z" fill="#DB965F"/>
<path d="M239.49 157.488C239.49 157.488 239.346 163.032 241.554 165.522C241.554 165.528 238.926 163.392 239.49 157.488Z" fill="black"/>
<path d="M258.03 153.276C258.03 153.276 259.488 162.438 256.386 167.052C256.386 167.058 260.274 162.936 258.03 153.276Z" fill="black"/>
<path d="M71.7364 163.794C71.1424 162.174 72.0004 161.202 72.0244 160.326C72.0484 159.444 71.7784 158.664 72.2584 158.55C72.7324 158.436 73.2964 159.162 73.6024 162.984L71.7364 163.794Z" fill="#F9B384"/>
<path d="M71.2202 165.336L71.8382 167.826H75.7082L78.0782 162.534C78.4202 161.898 79.3442 159.33 79.2602 158.79C79.1042 157.782 77.8802 160.278 77.8202 160.32C78.0362 159.564 78.7802 157.182 78.4382 156.642C78.0242 156 76.7762 158.784 76.4582 159.624C76.6202 158.844 77.5202 155.91 77.0822 155.484C76.5542 154.974 75.3302 158.214 75.1382 159.234C75.1862 158.472 75.5522 155.868 75.0422 155.934C74.3402 156.018 73.1102 160.584 73.1102 160.584C73.1102 160.584 71.8502 162.486 71.2202 165.336Z" fill="#F9B384"/>
<path d="M77.2804 161.862C76.8424 161.454 76.3504 161.088 75.7984 160.818C75.5224 160.686 75.2284 160.59 74.9224 160.536C74.6164 160.488 74.3044 160.488 74.0044 160.566L74.0164 160.644C74.6044 160.602 75.1804 160.746 75.7084 161.004C76.2424 161.25 76.7284 161.592 77.2264 161.922L77.2804 161.862Z" fill="#E28B6D"/>
<path d="M73.6021 161.556C73.8601 161.562 74.1061 161.67 74.2081 161.892C74.3101 162.108 74.3341 162.366 74.3101 162.624C74.2921 162.882 74.2381 163.14 74.1661 163.386C74.0941 163.638 74.0041 163.884 73.8781 164.112L73.9441 164.16C74.1241 163.95 74.2441 163.698 74.3401 163.44C74.4301 163.182 74.4961 162.912 74.5141 162.636C74.5261 162.36 74.5141 162.066 74.3581 161.808C74.3221 161.742 74.2621 161.694 74.2141 161.634C74.1541 161.592 74.0881 161.55 74.0221 161.52C73.9501 161.502 73.878 161.478 73.812 161.478L73.6021 161.484V161.556Z" fill="#E28B6D"/>
<path d="M57.372 262.83L57 258.048H63.438L64.332 260.064C64.71 260.916 65.22 261.684 65.838 262.362C63.93 263.364 60.954 264.462 57.372 262.83Z" fill="#F9B384"/>
<path d="M65.8379 262.362C66.7319 263.346 67.8479 264.126 69.1139 264.612L71.9939 265.716C72.7679 266.208 72.4199 267.408 71.5019 267.408H59.8499C58.6559 267.408 57.6599 266.49 57.5699 265.296L57.3779 262.836C60.9539 264.462 63.9299 263.364 65.8379 262.362Z" fill="#102048"/>
<path d="M41.6042 262.83L41.9762 258.048H35.5382L34.6442 260.064C34.2662 260.916 33.7562 261.684 33.1382 262.362C35.0522 263.364 38.0222 264.462 41.6042 262.83Z" fill="#F9B384"/>
<path d="M33.1441 262.362C32.2501 263.346 31.1341 264.126 29.8681 264.612L26.9881 265.716C26.2141 266.208 26.5621 267.408 27.4801 267.408H39.1321C40.3261 267.408 41.3221 266.49 41.4121 265.296L41.6041 262.836C38.0221 264.462 35.0521 263.364 33.1441 262.362Z" fill="#102048"/>
<path d="M33.9243 258.966H45.0003L51.0183 212.37L54.1443 233.544L54.7923 258.966H65.1963C66.0123 239.232 64.9803 218.028 61.5723 194.934L61.3443 191.262L61.0803 187.074L40.1523 188.61L39.9003 191.46L39.4143 196.902L33.9243 258.966Z" fill="#002680"/>
<path d="M33.9243 258.966H45.0003L51.0183 212.37L54.1443 233.544L54.7923 258.966H65.1963C66.0123 239.232 64.9803 218.028 61.5723 194.934L61.3443 191.262L61.0803 187.074L40.1523 188.61L39.9003 191.46L39.4143 196.902L33.9243 258.966Z" fill="url(#paint2_linear_6134_15810)"/>
<path opacity="0.6" d="M39.4199 196.902C41.3879 199.878 55.1279 199.776 61.6559 196.134L61.3499 191.262L39.9059 191.466L39.4199 196.902Z" fill="#102048"/>
<path d="M62.1599 188.304C62.1599 188.304 64.2299 193.662 62.4539 194.694C60.6779 195.72 40.1699 195.93 38.5499 194.694C36.9239 193.458 40.8539 190.374 40.4819 188.316C40.1039 186.258 62.1599 188.304 62.1599 188.304Z" fill="#002680"/>
<path d="M63.9119 166.266C64.6319 167.862 67.3079 172.698 67.3079 172.698L71.2199 165.342C72.0959 166.05 73.1279 166.716 76.1879 166.758C76.1879 166.758 71.7839 183.042 67.8239 184.716C61.3259 187.464 59.7959 175.17 59.7959 175.17L63.9119 166.266Z" fill="#002680"/>
<path d="M63.912 166.266L62.856 163.782C62.436 162.798 61.698 161.958 60.726 161.508C60.63 161.466 60.54 161.424 60.444 161.388C58.602 160.692 55.194 159.594 52.032 159.63C50.898 159.63 46.692 159.582 39.846 161.328L37.938 185.76L60.57 185.298L63.912 166.266Z" fill="#002680"/>
<path opacity="0.3" d="M43.7101 166.266C43.1761 175.446 43.9201 185.316 49.2661 185.952L43.0921 187.692L36.4561 184.14L39.0781 169.686L43.7101 166.266Z" fill="#1F3C88"/>
<path d="M42.7082 160.662C41.3462 160.962 39.0662 161.274 37.9322 162.048C36.7982 162.822 33.6122 179.334 32.7902 183.138C31.9682 186.942 31.7642 190.854 48.6362 191.472L50.2802 186.84L40.4042 183.036L44.1902 166.266L42.7082 160.662Z" fill="#002680"/>
<path d="M63.9119 166.266C64.6319 167.862 67.3079 172.698 67.3079 172.698L71.2199 165.342C72.0959 166.05 73.1279 166.716 76.1879 166.758C76.1879 166.758 71.7839 183.042 67.8239 184.716C61.3259 187.464 59.7959 175.17 59.7959 175.17L63.9119 166.266Z" fill="url(#paint3_linear_6134_15810)"/>
<path d="M42.7082 160.662C41.3462 160.962 39.0662 161.274 37.9322 162.048C36.7982 162.822 33.6122 179.334 32.7902 183.138C31.9682 186.942 31.7642 190.854 48.6362 191.472L50.2802 186.84L40.4042 183.036L44.1902 166.266L42.7082 160.662Z" fill="url(#paint4_linear_6134_15810)"/>
<path d="M60.9002 167.521C60.7802 169.171 60.7262 170.827 60.6722 172.483L60.6242 174.967C60.6182 175.795 60.6122 176.623 60.6302 177.451L60.7502 177.457C60.8162 176.629 60.8522 175.801 60.8942 174.979L60.9782 172.495C61.0142 170.839 61.0502 169.183 61.0202 167.527L60.9002 167.521Z" fill="#1F3C88"/>
<path d="M42.0781 184.578V185.532L46.7881 189.786L47.1601 188.028L42.0781 184.578Z" fill="#102048"/>
<path d="M47.4721 189.169L42.0781 184.579L52.2361 183.307L47.4721 189.169Z" fill="white"/>
<path d="M46.7881 189.786H66.3241L69.5941 174.24H50.0581L46.7881 189.786Z" fill="#102048"/>
<path d="M57.1021 183.102H59.2801L59.6941 180.918H57.5101L57.1021 183.102Z" fill="white"/>
<path d="M58.8599 143.766C61.0499 138.204 51.8939 136.146 50.9999 140.802C50.9999 140.802 48.3839 139.446 45.7859 140.886C40.7819 143.664 44.0159 151.476 45.7859 151.476L54.8279 150.294L58.8599 143.766Z" fill="#6F3428"/>
<path d="M47.4121 154.302V159.996C47.4121 161.562 48.9121 162.828 50.7661 162.828C52.6201 162.828 54.1141 161.562 54.1141 159.996V154.302H47.4121Z" fill="#F9B384"/>
<path d="M48.8521 156.438C49.7101 157.578 51.5581 158.892 54.1141 158.922V155.922L48.8521 156.438Z" fill="#3C1C16"/>
<path d="M47.4121 145.098V154.842C47.4121 154.842 49.3261 158.094 53.2381 157.824C55.1821 157.686 56.1601 156.474 56.6701 154.53C56.8741 153.792 57.0001 152.946 57.0901 152.016C57.2401 150.456 57.2821 148.65 57.3301 146.7V145.098H47.4121Z" fill="#F9B384"/>
<path d="M57.2521 142.734C58.4581 141.678 60.9061 142.482 61.6261 143.964C62.6401 146.058 61.3201 148.17 59.6041 148.746C57.1141 149.586 56.1061 146.964 56.1061 146.964C56.1061 146.964 55.3021 148.104 53.5081 147.852C52.2181 147.672 51.7741 146.406 51.7741 146.406C51.7741 146.406 51.3781 149.646 47.1241 149.568C46.2121 149.256 45.7861 145.716 45.7861 145.716L48.5881 142.8L57.2521 142.734Z" fill="#6F3428"/>
<path d="M48.6362 191.472C50.7242 191.898 52.9142 192.15 55.0382 191.826C56.3582 191.622 57.6542 191.172 58.7222 190.35C59.6042 189.672 60.3602 188.706 60.8462 187.704C60.9602 187.464 61.0442 187.104 60.8402 186.888C60.6182 186.648 60.2222 187.062 60.0062 187.218C58.9742 187.992 58.2062 189.138 58.2062 189.138C58.2062 189.138 59.8082 186.51 59.4062 186.084C59.1002 185.76 58.6322 185.838 57.0182 188.514C57.0182 188.514 56.7122 189.174 56.4242 188.832C56.2682 188.646 57.3422 186.576 56.5622 186.396C55.9622 186.258 55.3982 188.214 54.9842 188.988C54.4682 189.588 53.5802 188.988 53.5802 188.988L49.2362 189.804L48.6362 191.472Z" fill="#F9B384"/>
<path d="M53.688 189.108C53.76 188.658 53.88 188.22 54.042 187.812C54.078 187.716 54.12 187.626 54.138 187.518C54.204 187.134 53.862 187.02 53.634 187.098C53.136 187.272 52.692 187.932 52.398 188.454C52.14 188.904 51.99 189.48 52.062 190.026C52.086 190.194 53.49 190.194 53.58 189.99C53.604 189.942 53.604 189.882 53.604 189.828C53.622 189.588 53.652 189.348 53.688 189.108Z" fill="#F9B384"/>
<path d="M51.9661 204.588C51.7021 206.28 51.4441 207.972 51.2101 209.67L50.5141 214.758L49.8721 219.852L49.5781 222.402L49.3081 224.958L49.4701 224.976L49.8661 222.438L50.2321 219.894L50.9221 214.806L51.5581 209.706C51.7621 208.008 51.9481 206.304 52.1281 204.6L51.9661 204.588Z" fill="#708CD5"/>
<path d="M54.6242 164.094C53.5442 165.078 52.0922 165.63 50.6522 165.534C49.9322 165.492 49.2302 165.294 48.5882 164.964C47.9402 164.64 47.3642 164.184 46.8302 163.68L46.7402 163.764C47.2202 164.34 47.7962 164.838 48.4622 165.21C49.1282 165.576 49.8722 165.798 50.6342 165.846C51.3962 165.882 52.1642 165.762 52.8662 165.468C53.5682 165.18 54.2102 164.742 54.7082 164.184L54.6242 164.094Z" fill="#1F3C88"/>
<path d="M47.8803 150.054C47.4363 148.956 46.5783 148.65 45.7443 149.04C44.4243 149.658 44.8623 153.084 47.8803 153.162V150.054Z" fill="#F9B384"/>
<path d="M47.2202 150.678C47.2802 150.354 47.1842 150.012 46.9502 149.748C46.8302 149.622 46.6382 149.52 46.4402 149.538C46.2482 149.556 46.0922 149.658 45.9902 149.784L46.0622 149.88C46.2002 149.832 46.3322 149.79 46.4402 149.808C46.5482 149.82 46.6442 149.874 46.7282 149.964C46.8182 150.048 46.8842 150.168 46.9502 150.288C47.0102 150.408 47.0582 150.54 47.1002 150.684H47.2202V150.678Z" fill="#6F3428"/>
<defs>
<linearGradient id="paint0_linear_6134_15810" x1="130.301" y1="170.236" x2="187.563" y2="170.236" gradientUnits="userSpaceOnUse">
<stop stop-color="#10BEF0"/>
<stop offset="1" stop-color="#10BEF0" stop-opacity="0"/>
</linearGradient>
<linearGradient id="paint1_linear_6134_15810" x1="72.3548" y1="123.981" x2="130.413" y2="123.981" gradientUnits="userSpaceOnUse">
<stop stop-color="#10BEF0"/>
<stop offset="1" stop-color="#10BEF0" stop-opacity="0"/>
</linearGradient>
<linearGradient id="paint2_linear_6134_15810" x1="22.7513" y1="218.946" x2="67.5918" y2="226.328" gradientUnits="userSpaceOnUse">
<stop stop-color="#10BEF0"/>
<stop offset="1" stop-color="#10BEF0" stop-opacity="0"/>
</linearGradient>
<linearGradient id="paint3_linear_6134_15810" x1="59.7988" y1="175.223" x2="76.1883" y2="175.223" gradientUnits="userSpaceOnUse">
<stop stop-color="#10BEF0"/>
<stop offset="1" stop-color="#10BEF0" stop-opacity="0"/>
</linearGradient>
<linearGradient id="paint4_linear_6134_15810" x1="32.5021" y1="176.066" x2="50.2821" y2="176.066" gradientUnits="userSpaceOnUse">
<stop stop-color="#10BEF0"/>
<stop offset="1" stop-color="#10BEF0" stop-opacity="0"/>
</linearGradient>
</defs>
</svg>
