<svg width="300" height="301" viewBox="0 0 300 301" fill="none" xmlns="http://www.w3.org/2000/svg">
<path d="M292.416 241.349C292.416 242.807 230.484 243.983 154.086 243.983C77.6879 243.983 15.7559 242.801 15.7559 241.349C15.7559 239.891 77.6879 238.715 154.086 238.715C230.484 238.715 292.416 239.897 292.416 241.349Z" fill="#F5F5F5"/>
<path d="M180.372 164.106L182.532 174.528L187.068 174.486L186.234 163.224L180.372 164.106Z" fill="#263238"/>
<path d="M183.072 173.688C183.678 174.24 184.986 174.138 185.568 173.67L185.574 172.818C185.67 172.098 185.922 171.756 186.702 171.84C187.08 171.882 187.566 172.338 187.884 173.022C188.46 174.246 189.126 174.738 189.126 174.738C189.126 174.738 192.6 176.406 193.842 176.772C194.586 176.988 195.576 177.318 196.116 178.104C196.272 178.326 196.41 178.596 196.53 178.908C196.632 179.166 196.638 179.754 196.638 179.766L187.89 179.88C187.89 179.88 186.99 179.37 186.612 179.388C185.94 179.424 185.646 180.012 185.646 180.012L182.466 180.078C182.466 180.078 182.4 179.586 182.304 178.872C182.262 178.548 182.208 178.182 182.16 177.798C181.932 176.136 182.118 174.15 182.058 173.682C181.95 172.854 183.072 173.688 183.072 173.688Z" fill="#263238"/>
<path d="M191.004 175.56C190.962 175.524 190.902 175.524 190.86 175.554C190.656 175.686 190.482 175.872 190.368 176.106C190.308 176.226 190.5 176.34 190.56 176.22C190.662 176.016 190.812 175.848 190.992 175.734C191.046 175.686 191.058 175.608 191.004 175.56Z" fill="#407BFF"/>
<path d="M190.32 175.2C190.278 175.164 190.218 175.164 190.176 175.194C189.972 175.326 189.798 175.512 189.684 175.746C189.624 175.866 189.816 175.98 189.876 175.86C189.978 175.656 190.128 175.488 190.308 175.374C190.368 175.332 190.374 175.254 190.32 175.2C190.32 175.206 190.32 175.206 190.32 175.2Z" fill="#407BFF"/>
<path d="M189.624 174.87C189.582 174.834 189.522 174.834 189.48 174.864C189.276 174.996 189.102 175.182 188.988 175.416C188.928 175.536 189.12 175.65 189.18 175.53C189.282 175.326 189.432 175.158 189.612 175.044C189.666 175.002 189.678 174.924 189.624 174.87C189.624 174.876 189.624 174.876 189.624 174.87Z" fill="#407BFF"/>
<path opacity="0.2" d="M196.362 178.529C196.428 178.655 196.488 178.787 196.542 178.931C196.644 179.189 196.65 179.777 196.65 179.789L187.902 179.903C187.902 179.903 187.002 179.393 186.624 179.411C185.952 179.447 185.658 180.035 185.658 180.035L182.478 180.101C182.478 180.101 182.412 179.609 182.316 178.895C182.31 178.841 182.298 178.775 182.292 178.715L196.362 178.529Z" fill="white"/>
<path d="M189.54 174.978C189.51 174.672 189.48 174.372 189.504 174.066C189.528 173.76 189.606 173.454 189.78 173.208C189.858 173.094 189.978 172.98 190.122 172.986C190.272 172.992 190.38 173.13 190.434 173.268C190.536 173.538 190.5 173.844 190.374 174.102C190.254 174.36 189.762 174.792 189.54 174.978Z" stroke="#407BFF" stroke-width="0.5" stroke-miterlimit="10"/>
<path d="M189.504 174.978C189.378 174.702 189.258 174.42 189.084 174.168C188.916 173.916 188.694 173.688 188.418 173.556C188.292 173.496 188.13 173.454 188.01 173.532C187.884 173.61 187.854 173.784 187.878 173.934C187.92 174.216 188.106 174.468 188.34 174.63C188.58 174.792 189.222 174.924 189.504 174.978Z" stroke="#407BFF" stroke-width="0.5" stroke-miterlimit="10"/>
<path d="M136.806 173.819L132.822 183.683L136.62 186.167L142.176 176.333L136.806 173.819Z" fill="#263238"/>
<path d="M133.614 183.593C134.22 184.145 135.528 184.043 136.11 183.575L136.116 182.723C136.212 182.003 136.464 181.661 137.244 181.745C137.622 181.787 138.108 182.243 138.426 182.927C139.002 184.151 139.668 184.643 139.668 184.643C139.668 184.643 143.142 186.311 144.384 186.677C145.128 186.893 146.118 187.223 146.658 188.009C146.814 188.231 146.952 188.501 147.072 188.813C147.174 189.071 147.18 189.659 147.18 189.671L138.432 189.785C138.432 189.785 137.532 189.275 137.154 189.293C136.482 189.329 136.188 189.917 136.188 189.917L133.008 189.983C133.008 189.983 132.942 189.491 132.846 188.777C132.804 188.453 132.75 188.087 132.702 187.703C132.474 186.041 132.66 184.055 132.6 183.587C132.492 182.759 133.614 183.593 133.614 183.593Z" fill="#263238"/>
<path d="M141.546 185.458C141.504 185.422 141.444 185.422 141.402 185.452C141.198 185.584 141.024 185.77 140.91 186.004C140.85 186.124 141.042 186.238 141.102 186.118C141.204 185.914 141.354 185.746 141.534 185.632C141.588 185.584 141.6 185.506 141.546 185.458Z" fill="#407BFF"/>
<path d="M140.862 185.105C140.82 185.069 140.76 185.069 140.718 185.099C140.514 185.231 140.34 185.417 140.226 185.651C140.166 185.771 140.358 185.885 140.418 185.765C140.52 185.561 140.67 185.393 140.85 185.279C140.91 185.231 140.916 185.153 140.862 185.105Z" fill="#407BFF"/>
<path d="M140.16 184.775C140.118 184.739 140.058 184.739 140.016 184.769C139.812 184.901 139.638 185.087 139.524 185.321C139.464 185.441 139.656 185.555 139.716 185.435C139.818 185.231 139.968 185.063 140.148 184.949C140.208 184.901 140.22 184.823 140.16 184.775C140.166 184.775 140.166 184.775 140.16 184.775Z" fill="#407BFF"/>
<path opacity="0.2" d="M146.904 188.436C146.97 188.562 147.03 188.694 147.084 188.838C147.186 189.096 147.192 189.684 147.192 189.696L138.444 189.81C138.444 189.81 137.544 189.3 137.166 189.318C136.494 189.354 136.2 189.942 136.2 189.942L133.02 190.008C133.02 190.008 132.954 189.516 132.858 188.802C132.852 188.748 132.84 188.682 132.834 188.622L146.904 188.436Z" fill="white"/>
<path d="M140.082 184.877C140.052 184.571 140.022 184.271 140.046 183.965C140.07 183.659 140.148 183.353 140.322 183.107C140.4 182.993 140.52 182.879 140.664 182.885C140.814 182.891 140.922 183.029 140.976 183.167C141.078 183.437 141.042 183.743 140.916 184.001C140.796 184.259 140.304 184.697 140.082 184.877Z" stroke="#407BFF" stroke-width="0.5" stroke-miterlimit="10"/>
<path d="M140.046 184.877C139.92 184.601 139.8 184.319 139.626 184.067C139.458 183.815 139.236 183.587 138.96 183.455C138.834 183.395 138.672 183.353 138.552 183.431C138.426 183.509 138.396 183.683 138.42 183.833C138.462 184.115 138.648 184.367 138.882 184.529C139.122 184.691 139.764 184.829 140.046 184.877Z" stroke="#407BFF" stroke-width="0.5" stroke-miterlimit="10"/>
<path d="M145.296 119.909C145.278 120.491 141.738 153.473 141.738 153.473L133.026 181.679L139.926 183.443L153.036 153.479C153.972 146.963 156.6 131.555 157.674 124.583L161.442 117.029L147.678 113.573L145.296 119.909Z" fill="#263238"/>
<path opacity="0.2" d="M145.296 119.909C145.278 120.491 141.738 153.473 141.738 153.473L133.026 181.679L139.926 183.443L153.036 153.479C153.972 146.963 156.6 131.555 157.674 124.583L161.442 117.029L147.678 113.573L145.296 119.909Z" fill="white"/>
<path d="M163.578 120.299C164.034 120.815 180.966 137.099 183.096 140.453C185.226 143.801 188.538 172.265 188.538 172.265L180.468 174.533L174.072 144.683C174.072 144.683 152.916 126.449 153.372 126.143C153.828 125.837 160.932 117.173 160.932 117.173L163.578 120.299Z" fill="#263238"/>
<path opacity="0.2" d="M163.578 120.299C164.034 120.815 180.966 137.099 183.096 140.453C185.226 143.801 188.538 172.265 188.538 172.265L180.468 174.533L174.072 144.683C174.072 144.683 152.916 126.449 153.372 126.143C153.828 125.837 160.932 117.173 160.932 117.173L163.578 120.299Z" fill="white"/>
<path opacity="0.2" d="M156.768 129.485L157.674 124.583L159.984 121.037L158.376 130.931L156.768 129.485Z" fill="black"/>
<path d="M180.618 74.7232C180.618 74.7232 180.846 74.5432 181.476 74.6032C182.106 74.6632 182.004 75.4372 182.088 75.3952C182.172 75.3532 182.586 75.4012 182.958 75.4612C183.33 75.5272 183.468 75.9172 183.372 76.6612C183.282 77.4052 182.424 80.2792 182.148 80.5312C182.148 80.5312 182.052 81.2032 182.058 81.2752C182.064 81.3472 179.076 82.3372 179.076 82.3372L178.626 79.9132L177.57 78.5812C177.57 78.5812 176.76 77.1892 176.82 76.4392C176.832 76.3072 176.898 76.1692 176.916 76.0552C176.976 75.6352 177.36 75.7492 177.732 75.9592L178.218 76.1332C178.218 76.1332 178.386 75.1012 178.458 74.7112C178.506 74.4592 178.692 74.2372 178.956 74.1592C179.01 74.1412 179.064 74.1292 179.112 74.1292C179.448 74.1052 179.484 74.4412 179.484 74.4412C179.484 74.4412 180.018 74.1352 180.438 74.5912C180.606 74.7652 180.618 74.7232 180.618 74.7232Z" fill="#E9B376"/>
<path d="M166.686 76.7273C166.686 77.3873 166.878 77.9273 167.124 77.9273H174.168C174.408 77.9273 174.606 77.3933 174.606 76.7273C174.606 76.0673 174.42 75.5273 174.168 75.5273H167.124C166.896 75.5273 166.686 76.0673 166.686 76.7273Z" fill="#407BFF"/>
<path opacity="0.4" d="M166.686 76.7273C166.686 77.3873 166.878 77.9273 167.124 77.9273H174.168C174.408 77.9273 174.606 77.3933 174.606 76.7273C174.606 76.0673 174.42 75.5273 174.168 75.5273H167.124C166.896 75.5273 166.686 76.0673 166.686 76.7273Z" fill="white"/>
<path d="M173.718 76.7273C173.718 77.5673 173.976 78.2573 174.294 78.2573H182.7C183.018 78.2573 183.27 77.5793 183.27 76.7273C183.27 75.8813 183.018 75.1973 182.7 75.1973H174.276C173.958 75.1973 173.718 75.8873 173.718 76.7273Z" fill="#407BFF"/>
<path opacity="0.2" d="M173.718 76.7273C173.718 77.5673 173.976 78.2573 174.294 78.2573H182.7C183.018 78.2573 183.27 77.5793 183.27 76.7273C183.27 75.8813 183.018 75.1973 182.7 75.1973H174.276C173.958 75.1973 173.718 75.8873 173.718 76.7273Z" fill="white"/>
<path d="M181.872 76.7276C181.872 77.7416 182.184 78.5636 182.562 78.5636H191.34C191.724 78.5636 192.03 77.7476 192.03 76.7276C192.03 75.7076 191.724 74.8916 191.34 74.8916H182.562C182.184 74.8916 181.872 75.7136 181.872 76.7276Z" fill="#407BFF"/>
<path opacity="0.4" d="M181.872 76.7276C181.872 77.7416 182.184 78.5636 182.562 78.5636H191.34C191.724 78.5636 192.03 77.7476 192.03 76.7276C192.03 75.7076 191.724 74.8916 191.34 74.8916H182.562C182.184 74.8916 181.872 75.7136 181.872 76.7276Z" fill="white"/>
<path opacity="0.2" d="M191.34 74.8916C191.724 74.8916 192.03 75.7196 192.03 76.7276C192.03 77.7356 191.724 78.5636 191.34 78.5636C190.956 78.5636 190.65 77.7416 190.65 76.7276C190.65 75.7136 190.956 74.8916 191.34 74.8916Z" fill="white"/>
<path d="M190.86 76.7277C190.86 75.7137 191.166 75.0957 191.34 75.0957C191.514 75.0957 191.82 75.7197 191.82 76.7277C191.82 77.7357 191.508 78.3537 191.34 78.3537C191.166 78.3597 190.86 77.7417 190.86 76.7277Z" fill="black"/>
<path d="M178.65 77.1709C179.04 77.0209 179.34 76.6549 179.412 76.2409C179.424 76.1869 179.424 76.1269 179.394 76.0849C179.34 76.0129 179.232 76.0249 179.142 76.0489C178.56 76.1929 177.984 76.3369 177.402 76.4809C177.162 76.5409 176.88 76.6309 176.796 76.8649C176.724 77.0629 176.826 77.2729 176.928 77.4529C177.156 77.8369 177.426 78.1969 177.744 78.5149L179.49 78.7429C179.556 78.1129 179.208 77.4589 178.65 77.1709Z" fill="#E9B376"/>
<path d="M125.646 121.535C124.704 121.061 123.858 120.419 123.144 119.639C122.508 118.889 122.31 118.199 122.574 117.683C123.078 116.681 125.214 116.831 127.488 118.025C129.762 119.219 131.082 120.869 130.554 121.871C130.29 122.381 129.6 122.609 128.628 122.513C128.334 122.483 128.04 122.429 127.758 122.357C127.02 122.171 126.312 121.895 125.646 121.535ZM125.232 117.737C124.104 117.455 123.264 117.557 123.06 117.953C122.91 118.241 123.096 118.739 123.564 119.285C124.224 120.011 125.016 120.611 125.898 121.049C126.762 121.523 127.704 121.835 128.682 121.967C129.396 122.039 129.912 121.907 130.068 121.625C130.398 121.031 129.294 119.603 127.23 118.517C126.594 118.181 125.928 117.917 125.232 117.737Z" fill="#263238"/>
<path d="M116.946 115.194C117.174 114.762 117.714 114.594 118.146 114.822L137.49 124.962C137.922 125.19 138.09 125.73 137.862 126.162L130.914 139.422V139.428C130.686 139.86 130.146 140.028 129.714 139.8L110.37 129.66C110.364 129.66 110.364 129.654 110.358 129.654C109.926 129.426 109.764 128.886 109.998 128.46L116.946 115.194Z" fill="#263238"/>
<path opacity="0.1" d="M116.946 115.194C117.174 114.762 117.714 114.594 118.146 114.822L137.49 124.962C137.922 125.19 138.09 125.73 137.862 126.162L130.914 139.422V139.428C130.686 139.86 130.146 140.028 129.714 139.8L110.37 129.66C110.364 129.66 110.364 129.654 110.358 129.654C109.926 129.426 109.764 128.886 109.998 128.46L116.946 115.194Z" fill="white"/>
<path d="M135.966 125.154C136.194 124.722 136.734 124.56 137.16 124.794L137.484 124.962C137.916 125.19 138.084 125.73 137.856 126.162L130.908 139.422C130.908 139.422 130.908 139.422 130.908 139.428C130.68 139.86 130.14 140.028 129.708 139.8L129.384 139.632C128.964 139.392 128.796 138.864 129.012 138.432L135.96 125.172C135.966 125.166 135.966 125.16 135.966 125.154Z" fill="#263238"/>
<path d="M137.328 124.877L117.978 114.731C117.546 114.503 117.012 114.671 116.784 115.103L113.55 121.265C113.55 121.265 113.55 121.265 113.55 121.271C113.37 121.613 113.502 122.039 113.844 122.219L131.61 131.537C131.958 131.717 132.384 131.585 132.564 131.237L135.786 125.087C136.002 124.667 136.506 124.493 136.938 124.685L137.328 124.877Z" fill="#263238"/>
<path opacity="0.2" d="M137.328 124.871L117.978 114.725C117.546 114.497 117.012 114.665 116.784 115.097L113.55 121.265C113.55 121.265 113.55 121.265 113.55 121.271C113.37 121.613 113.502 122.039 113.844 122.219L131.61 131.537C131.958 131.717 132.384 131.585 132.564 131.237L135.786 125.087C136.002 124.667 136.506 124.493 136.938 124.685L137.328 124.871Z" fill="white"/>
<path d="M123.828 126.377L121.962 129.941C121.896 130.067 121.734 130.121 121.608 130.049L120.168 129.293C120.042 129.227 119.988 129.065 120.06 128.939L121.926 125.375L123.828 126.377Z" fill="#263238"/>
<path d="M122.172 129.24L120.498 128.352C120.372 128.286 120.276 128.166 120.234 128.028C120.192 127.89 120.204 127.74 120.27 127.614L120.684 126.816C120.75 126.69 120.87 126.594 121.008 126.552C121.146 126.504 121.296 126.522 121.428 126.588L123.102 127.476C123.228 127.542 123.33 127.662 123.372 127.8C123.414 127.938 123.402 128.088 123.33 128.214L122.916 129.006C122.85 129.138 122.736 129.234 122.598 129.276C122.502 129.306 122.4 129.306 122.304 129.282C122.25 129.282 122.208 129.264 122.172 129.24ZM121.248 126.816C121.2 126.804 121.152 126.81 121.11 126.828C121.044 126.852 120.984 126.894 120.948 126.96L120.534 127.758C120.504 127.824 120.498 127.896 120.516 127.962C120.534 128.028 120.582 128.088 120.648 128.124L122.322 129.012C122.388 129.048 122.46 129.054 122.532 129.03C122.598 129.006 122.652 128.958 122.688 128.898L123.102 128.1C123.138 128.04 123.144 127.962 123.12 127.896C123.102 127.83 123.054 127.77 122.988 127.734L121.314 126.846L121.248 126.828V126.816Z" fill="white"/>
<path d="M128.772 112.517C128.412 112.613 126.246 114.893 125.802 115.553C125.358 116.213 125.28 116.657 125.574 116.915C125.868 117.173 126.204 117.431 126.3 117.437C126.396 117.443 125.922 118.127 126.444 118.511C126.966 118.901 127.254 118.847 127.254 118.847C127.254 118.847 127.044 119.879 127.734 120.209C128.424 120.539 128.754 120.227 128.868 120.281C128.982 120.335 129.696 119.171 129.696 119.171L130.44 120.497C130.44 120.497 130.842 120.143 131.268 119.459C131.694 118.775 131.796 116.765 131.796 116.765L131.532 114.947L132.336 112.409C132.336 112.409 129.246 111.785 129.216 111.857C129.192 111.929 128.772 112.517 128.772 112.517Z" fill="#E9B376"/>
<path d="M146.124 114.797C146.124 114.797 145.236 114.683 145.608 113.903C145.98 113.123 147.096 112.277 147.096 112.277L146.868 105.743L147.27 88.1748L150.564 87.5808L154.182 86.9868L155.79 85.7148L159.924 85.7868L161.874 87.0348L163.986 87.4668C163.968 87.4968 167.556 96.9528 166.02 104.453C164.49 111.953 163.434 116.687 163.23 117.161C162.81 118.115 162.048 117.755 162.048 117.755L146.124 114.797Z" fill="#407BFF"/>
<path opacity="0.7" d="M146.124 114.797C146.124 114.797 145.236 114.683 145.608 113.903C145.98 113.123 146.988 112.445 146.988 112.445L146.868 105.743L147.072 96.9647L147.276 88.1807L150.57 87.5867L154.188 86.9927L155.796 85.7207L159.894 85.7507L161.874 87.0407L163.986 87.4727C163.968 87.5027 167.556 96.9587 166.02 104.459C164.49 111.959 163.434 116.693 163.23 117.167C162.81 118.121 162.048 117.761 162.048 117.761L146.124 114.797Z" fill="white"/>
<path opacity="0.1" d="M159.138 89.7051C159.126 98.2071 159.546 108.605 158.136 116.987" stroke="#263238" stroke-width="0.5" stroke-miterlimit="10" stroke-linecap="round" stroke-linejoin="round"/>
<path opacity="0.2" d="M154.356 87.2031C154.5 87.5211 156.924 91.0491 156.924 91.0491L159.138 89.7051C159.156 89.6871 157.164 91.6131 157.152 91.6311L156.6 91.6491L154.356 87.2031Z" fill="black"/>
<path opacity="0.2" d="M159.342 89.6748L160.884 90.4668C160.884 90.4668 161.682 88.9068 161.742 88.4748C161.808 88.0428 161.826 87.2988 161.826 87.2988L162.036 87.3108C162.036 87.3108 162.138 88.5348 161.766 89.4108C161.37 90.3408 160.914 91.2348 160.914 91.2348L159.342 89.6748Z" fill="black"/>
<path d="M154.914 78.5393C154.914 78.5393 151.47 75.4913 151.644 74.5013C151.818 73.5113 152.376 73.8293 152.376 73.8293C152.376 73.8293 151.218 71.4053 152.424 71.0213C153.63 70.6373 153.708 71.0453 153.708 71.0453C153.708 71.0453 153.276 69.0773 154.242 68.5133C154.974 68.0753 155.262 68.9813 155.262 68.9813C155.262 68.9813 156.69 66.8693 158.34 66.9413C159.156 67.0253 159.546 67.5593 159.414 68.1833C159.408 68.2133 159.402 68.2373 159.396 68.2613C159.396 68.2613 162.762 66.8873 164.292 67.8353C165.822 68.7833 163.776 69.7373 163.776 69.7373C163.776 69.7373 167.034 69.4733 167.64 70.7933C168.12 71.8433 166.662 72.5093 166.662 72.5093C166.662 72.5093 167.172 72.6953 167.598 73.1033C168.414 73.8773 167.874 75.2933 166.746 75.3113C166.74 75.3113 166.728 75.3113 166.722 75.3113C166.548 75.3113 166.236 75.3413 166.116 75.2213C166.116 75.2213 166.644 76.4093 165.438 76.7633C164.226 77.1113 163.686 75.7073 163.686 75.7073L154.914 78.5393Z" fill="#263238"/>
<path d="M155.844 86.2068C155.844 86.2068 156.078 84.5148 154.968 80.3748C154.968 80.3688 155.19 80.2788 155.19 80.2728C155.04 79.6908 154.872 79.1568 154.716 78.6948C154.71 78.6828 154.71 78.6768 154.71 78.6768L160.272 82.2768C160.11 83.5908 160.53 86.1468 160.794 87.2268L159.276 89.6688L155.844 86.2068Z" fill="#E9B376"/>
<path opacity="0.2" d="M160.338 84.131L157.11 83.333C157.386 84.347 158.25 85.565 160.506 85.709C160.506 85.703 160.302 84.569 160.338 84.131Z" fill="black"/>
<path d="M164.376 72.6176C165.012 73.9376 165.186 76.8056 163.122 76.1696C161.058 75.5276 163.278 70.3556 164.376 72.6176Z" fill="#263238"/>
<path d="M154.728 75.9351C155.034 79.5171 155.136 81.5451 156.996 83.3211C159.792 85.9971 164.082 84.2931 164.856 80.6811C165.552 77.4291 164.934 72.1191 161.382 70.8111C157.878 69.5271 154.422 72.3531 154.728 75.9351Z" fill="#E9B376"/>
<path d="M159.882 76.8473C159.888 77.2133 160.092 77.5073 160.332 77.4953C160.572 77.4893 160.758 77.1833 160.752 76.8173C160.746 76.4513 160.542 76.1573 160.302 76.1693C160.062 76.1813 159.876 76.4813 159.882 76.8473Z" fill="#263238"/>
<path d="M163.488 76.8356C163.494 77.2016 163.698 77.4956 163.938 77.4836C164.178 77.4776 164.364 77.1716 164.358 76.8056C164.352 76.4396 164.148 76.1456 163.908 76.1576C163.662 76.1636 163.476 76.4696 163.488 76.8356Z" fill="#263238"/>
<path d="M162.312 76.6611C162.312 76.6611 163.518 78.4551 163.908 79.1931C163.41 79.6671 162.522 79.4751 162.522 79.4751L162.312 76.6611Z" fill="#D58745"/>
<path d="M159.042 74.8613C159.102 74.8793 159.162 74.8613 159.21 74.8193C159.762 74.2853 160.38 74.4113 160.386 74.4113C160.476 74.4293 160.572 74.3753 160.59 74.2793C160.608 74.1893 160.554 74.0933 160.458 74.0753C160.428 74.0693 159.648 73.9073 158.964 74.5733C158.898 74.6393 158.892 74.7473 158.958 74.8133C158.988 74.8373 159.012 74.8553 159.042 74.8613Z" fill="#263238"/>
<path d="M165.054 75.2152C165.084 75.2032 165.114 75.1852 165.138 75.1612C165.198 75.0892 165.192 74.9812 165.12 74.9212C164.4 74.3032 163.644 74.5312 163.608 74.5372C163.518 74.5672 163.464 74.6632 163.494 74.7532C163.518 74.8432 163.614 74.8972 163.704 74.8672C163.734 74.8552 164.322 74.6932 164.898 75.1852C164.94 75.2212 165 75.2272 165.054 75.2152Z" fill="#263238"/>
<path d="M161.424 81.8396C161.388 81.8336 161.436 81.8456 161.424 81.8396V81.8396Z" fill="#263238"/>
<path d="M162.012 80.4656C161.442 80.2676 160.386 79.8596 159.882 79.3076C159.882 79.3076 159.786 79.4636 159.726 79.6976C159.672 79.9016 159.642 80.1656 159.702 80.4356C159.816 80.9336 160.236 81.4796 161.394 81.8276C161.412 81.8336 161.412 81.8336 161.418 81.8336C161.424 81.8336 161.424 81.8336 161.43 81.8396C161.43 81.8396 162.054 82.0136 162.402 80.5856C162.408 80.5916 162.252 80.5496 162.012 80.4656Z" fill="#263238"/>
<path d="M162.012 80.4655L161.784 80.8495C160.692 80.5195 159.972 80.1355 159.732 79.7035C159.792 79.4635 159.888 79.3135 159.888 79.3135C160.386 79.8655 161.442 80.2735 162.012 80.4655Z" fill="white"/>
<path d="M161.4 81.8334C160.242 81.4854 159.822 80.9394 159.708 80.4414C160.098 80.5734 160.554 80.7834 160.914 81.0834C161.19 81.3174 161.328 81.5814 161.4 81.8334Z" fill="#DC5753"/>
<path d="M164.208 72.1377C163.668 71.6457 163.008 71.3217 162.336 71.0457C161.22 70.5837 160.056 70.2297 158.85 70.1217C157.65 70.0137 156.408 70.1577 155.31 70.6497C155.07 70.7577 154.83 70.8897 154.656 71.0877C154.494 71.2797 154.404 71.5197 154.326 71.7597C153.846 73.2057 153.642 74.7417 153.726 76.2657L155.736 78.7377C156.048 78.5757 156.378 78.4017 156.552 78.0957C156.714 77.8137 156.714 77.4657 156.696 77.1357C156.672 76.7937 156.63 76.4577 156.576 76.1217C156.888 76.2897 157.284 76.0437 157.464 75.7377C157.734 75.2817 157.734 74.7117 157.704 74.1837C158.106 74.2797 158.568 74.1717 158.844 73.8597C159.12 73.5477 159.156 73.0317 158.886 72.7197C160.2 72.9297 161.556 72.8757 162.852 72.5637C162.762 72.7257 162.858 72.9297 162.966 73.0797C163.416 73.6917 164.094 74.1297 164.832 74.2797C164.94 74.3037 165.078 74.3097 165.138 74.2197C165.174 74.1717 165.174 74.1057 165.168 74.0457C165.144 73.3017 164.742 72.6297 164.208 72.1377Z" fill="#263238"/>
<path d="M153.378 78.9592C153.684 79.8772 154.392 80.5612 155.112 80.8972C156.192 81.4012 156.942 80.4772 156.816 79.3492C156.702 78.3352 156 76.8472 154.83 76.8172C153.678 76.7812 153.03 77.9152 153.378 78.9592Z" fill="#E9B376"/>
<path opacity="0.2" d="M154.176 77.9517C154.314 77.7357 154.608 77.6457 154.86 77.7057C155.112 77.7597 155.322 77.9337 155.484 78.1377C155.676 78.3837 155.796 78.6777 155.838 78.9837" stroke="black" stroke-width="0.5" stroke-miterlimit="10" stroke-linecap="round" stroke-linejoin="round"/>
<path d="M182.244 80.9336H178.278L177.996 91.7276C177.996 91.7276 170.856 89.2916 169.17 88.5776C167.49 87.8636 165.9 87.5396 165.9 87.5396L165.156 87.9536L166.68 94.6676C166.68 94.6676 178.692 100.47 182.712 97.4516C186.744 94.4396 182.244 80.9336 182.244 80.9336Z" fill="#263238"/>
<path opacity="0.2" d="M168.012 95.2612C167.964 95.0932 168.57 91.5352 168.57 91.5352L169.512 95.8792L168.012 95.2612Z" fill="black"/>
<path opacity="0.2" d="M146.658 100.103L146.604 102.509C146.604 102.509 155.856 97.247 157.392 95.573C159.372 93.413 159.588 92.165 159.588 92.165L146.658 100.103Z" fill="black"/>
<path opacity="0.2" d="M144.51 127.505L152.424 130.631C152.424 130.631 155.946 112.679 155.958 111.857C155.97 111.035 155.988 108.647 155.988 108.647L144.672 125.987L144.51 127.505Z" fill="black"/>
<path d="M146.922 88.0557C146.586 88.0497 136.332 94.8177 134.658 96.5997C132.984 98.3817 128.004 112.602 128.004 112.602L132.096 113.91L138.018 100.878L147.762 96.6657C147.762 96.6657 150.306 92.4897 150.384 92.2977C150.456 92.1057 146.922 88.0557 146.922 88.0557Z" fill="#263238"/>
<path d="M146.922 88.0557L153.354 86.7177L154.992 86.3457C154.992 86.3457 157.002 104.748 156.75 105.918C156.498 107.088 151.674 129.306 151.674 129.306L140.616 124.686L146.424 111.126L146.922 88.0557Z" fill="#263238"/>
<path opacity="0.2" d="M154.734 86.4056C154.734 86.4056 152.022 89.7896 152.73 90.9596C153.438 92.1296 154.59 94.6616 154.59 94.6616C154.59 94.6616 153.57 96.3416 153.6 97.6076C153.63 98.8736 156.552 102.054 156.552 102.054C156.294 97.6016 155.412 92.0636 154.986 86.3516L154.734 86.4056Z" fill="black"/>
<path opacity="0.2" d="M146.724 97.1096V93.8096L143.658 98.4356L146.724 97.1096Z" fill="black"/>
<path opacity="0.2" d="M147.276 114.647L152.22 116.729L151.074 118.907L145.884 116.507L147.276 114.647Z" fill="black"/>
<path d="M162.222 86.9277C162.222 86.9277 160.656 103.302 160.482 104.652C160.302 106.002 161.052 127.722 161.052 127.722L169.512 125.292L165.552 111.372C165.552 111.372 168.3 94.8177 168.474 91.1277L168.732 89.4237C168.732 89.4237 167.694 87.9957 166.278 87.6237C164.826 87.2457 162.408 86.9697 162.222 86.9277Z" fill="#263238"/>
<path opacity="0.2" d="M162.48 86.9696C162.48 86.9696 165.222 90.3716 164.514 91.5416C163.806 92.7116 162.654 95.2436 162.654 95.2436C162.654 95.2436 163.674 96.9236 163.644 98.1896C163.614 99.4556 160.752 102.054 160.752 102.054C161.064 97.7096 161.79 92.6456 162.222 86.9336L162.48 86.9696Z" fill="black"/>
<path opacity="0.2" d="M166.644 115.218L162.942 116.58L164.094 118.758L167.292 117.486L166.644 115.218Z" fill="black"/>
<path d="M275.088 138.701L226.956 165.497L208.572 183.383L180.342 183.989L162.018 194.087L130.5 193.835L103.242 214.379L68.5921 214.073L42.8521 236.237" stroke="#182A7D" stroke-width="20" stroke-miterlimit="10"/>
<path d="M275.088 138.701L226.956 165.497L208.572 183.383L180.342 183.989L162.018 194.087L130.5 193.835L103.242 214.379L68.5921 214.073L42.8521 236.237" stroke="url(#paint0_linear_6134_15997)" stroke-width="20" stroke-miterlimit="10"/>
<path d="M266.886 129.833L278.49 149.807C278.736 149.465 283.284 132.827 283.284 132.827L266.886 129.833Z" fill="#182A7D"/>
<path opacity="0.3" d="M268.71 137.327L273.012 144.779L274.944 143.693L270.6 136.253L268.71 137.327Z" fill="black"/>
<path d="M157.962 90.8634L158.724 92.2434C158.724 92.2434 145.98 100.451 134.58 100.475L133.638 104.303L137.502 105.269C137.502 105.269 155.184 99.7314 159.732 92.3934L161.058 90.6534L159.84 89.4414L159.42 89.6754L157.962 90.8634Z" fill="#182A7D"/>
<path d="M157.962 90.8634L158.724 92.2434C158.724 92.2434 145.98 100.451 134.58 100.475L133.638 104.303L137.502 105.269C137.502 105.269 155.184 99.7314 159.732 92.3934L161.058 90.6534L159.84 89.4414L159.42 89.6754L157.962 90.8634Z" fill="url(#paint1_linear_6134_15997)"/>
<path opacity="0.1" d="M252.252 152.417C251.904 152.321 251.514 152.387 251.22 152.603C250.926 152.819 250.74 153.167 250.728 153.533" stroke="black" stroke-width="0.5" stroke-miterlimit="10" stroke-linecap="round" stroke-linejoin="round"/>
<path d="M268.248 240.365H269.736L266.994 208.295H265.506L268.248 240.365Z" fill="#407BFF"/>
<path opacity="0.6" d="M268.248 240.365H269.736L266.994 208.295H265.506L268.248 240.365Z" fill="white"/>
<path d="M253.068 240.365H251.586L254.328 208.295H255.81L253.068 240.365Z" fill="#407BFF"/>
<path opacity="0.6" d="M253.068 240.365H251.586L254.328 208.295H255.81L253.068 240.365Z" fill="white"/>
<path d="M262.182 208.301H231.822C233.1 205.139 235.422 203.201 237.93 203.201H260.136L262.182 208.301Z" fill="#407BFF"/>
<path d="M247.974 240.365H249.456L246.714 208.295H245.232L247.974 240.365Z" fill="#407BFF"/>
<path opacity="0.6" d="M247.974 240.365H249.456L246.714 208.295H245.232L247.974 240.365Z" fill="white"/>
<path d="M232.788 240.365H231.306L234.048 208.295H235.536L232.788 240.365Z" fill="#407BFF"/>
<path opacity="0.6" d="M232.788 240.365H231.306L234.048 208.295H235.536L232.788 240.365Z" fill="white"/>
<path d="M268.962 208.301H252.276C253.728 205.139 256.368 203.201 259.224 203.201H265.128C267.99 203.201 269.394 204.851 268.962 208.301Z" fill="#407BFF"/>
<path opacity="0.5" d="M268.962 208.301H252.276C253.728 205.139 256.368 203.201 259.224 203.201H265.128C267.99 203.201 269.394 204.851 268.962 208.301Z" fill="black"/>
<path d="M260.802 187.451C260.022 186.419 258.21 183.953 257.982 181.361C257.982 181.355 257.982 181.349 257.982 181.337C257.97 181.169 257.958 181.001 257.958 180.839C257.916 179.735 257.922 178.427 257.994 176.861C258.006 176.615 258.018 176.357 258.036 176.099C258.078 175.277 258.144 174.389 258.222 173.423C258.366 171.695 258.582 169.721 258.864 167.477C258.93 166.955 259.416 166.151 259.488 165.605C259.818 163.163 257.592 161.399 255.186 161.495C254.544 161.519 253.866 161.561 253.176 161.633C250.476 161.885 248.268 162.119 245.922 162.677C245.142 162.857 244.338 163.079 243.57 163.301C240.81 164.093 239.538 167.627 239.502 170.471C239.466 173.123 241.326 178.535 242.604 183.287C242.79 186.011 241.302 187.499 241.752 188.447C242.202 189.395 255.378 186.815 260.808 190.055C260.802 190.055 261.636 188.549 260.802 187.451Z" fill="#407BFF"/>
<path opacity="0.6" d="M260.802 187.451C260.022 186.419 258.21 183.953 257.982 181.361C257.982 181.355 257.982 181.349 257.982 181.337C257.97 181.169 257.958 181.001 257.958 180.839C257.916 179.735 257.922 178.427 257.994 176.861C258.006 176.615 258.018 176.357 258.036 176.099C258.078 175.277 258.144 174.389 258.222 173.423C258.366 171.695 258.582 169.721 258.864 167.477C258.93 166.955 259.416 166.151 259.488 165.605C259.818 163.163 257.592 161.399 255.186 161.495C254.544 161.519 253.866 161.561 253.176 161.633C250.476 161.885 248.268 162.119 245.922 162.677C245.142 162.857 244.338 163.079 243.57 163.301C240.81 164.093 239.538 167.627 239.502 170.471C239.466 173.123 241.326 178.535 242.604 183.287C242.79 186.011 241.302 187.499 241.752 188.447C242.202 189.395 255.378 186.815 260.808 190.055C260.802 190.055 261.636 188.549 260.802 187.451Z" fill="white"/>
<path opacity="0.2" d="M258.702 184.007C258.702 184.007 254.052 185.027 251.886 185.129C249.72 185.225 245.04 186.701 245.04 186.701L243.372 187.733L242.784 186.359L245.586 183.821L257.892 181.325C258.054 182.357 258.618 183.797 258.702 184.007Z" fill="black"/>
<path d="M243.762 188.333C247.8 187.931 253.056 187.607 259.89 187.451C259.89 187.451 264.99 199.457 258.942 203.045C257.118 204.131 254.1 204.557 250.782 204.629C246.93 204.713 243.762 201.623 243.762 197.777V188.333Z" fill="#263238"/>
<path d="M256.968 198.221V203.861C251.94 205.313 241.506 204.761 235.302 204.251C232.506 204.023 230.358 201.689 230.358 198.887V194.261C230.358 192.725 231.306 191.357 232.746 190.817C235.752 189.683 241.224 188.003 246.948 188.087C252.498 188.171 256.968 192.665 256.968 198.221Z" fill="#263238"/>
<path d="M233.49 241.277L239.664 238.553L241.614 236.375L242.22 237.197L242.958 236.873C243.3 234.131 241.968 232.853 241.272 232.271C241.224 232.229 241.152 232.175 241.068 232.109C241.038 232.085 241.014 232.067 240.984 232.049C240.972 232.043 240.96 232.031 240.948 232.025C240.918 232.001 240.888 231.983 240.852 231.953C240.846 231.947 240.84 231.947 240.828 231.941V231.935C240.81 231.923 240.792 231.911 240.774 231.899L237.384 233.399C237.384 233.399 237.33 233.579 237.222 233.867C236.886 234.821 236.046 236.993 235.122 238.151C235.086 238.199 235.044 238.253 235.008 238.295C234.9 238.427 234.78 238.547 234.666 238.637C232.074 240.725 233.49 241.277 233.49 241.277Z" fill="#263238"/>
<path d="M234.996 238.277C235.962 238.655 237.324 237.701 238.362 236.453C238.944 235.751 239.502 234.623 240 233.711C240.324 233.123 240.618 232.625 240.87 232.385C241.014 232.259 241.146 232.199 241.266 232.259C241.266 232.259 241.26 232.253 241.26 232.247C241.212 232.205 241.14 232.151 241.056 232.085C241.032 232.067 241.008 232.049 240.972 232.025C240.96 232.019 240.948 232.007 240.936 232.001C240.906 231.977 240.876 231.959 240.84 231.929C240.834 231.923 240.828 231.923 240.816 231.917V231.911C240.798 231.899 240.78 231.887 240.762 231.875C240.408 231.611 240.012 231.335 240.012 231.335L236.826 232.133L237.072 233.351C236.718 234.611 235.968 237.005 235.11 238.121C235.074 238.187 235.038 238.235 234.996 238.277Z" fill="#E9B376"/>
<path d="M229.806 214.547C231.774 219.437 234.828 225.659 237.084 233.471C237.126 233.615 237.168 233.753 237.204 233.897C237.246 234.047 237.294 234.197 237.336 234.347L239.664 233.777L239.766 233.369C239.766 233.369 240.57 232.745 240.432 232.601C240.342 232.511 240.402 232.337 240.39 232.187V232.181C239.76 226.733 237.348 206.747 234.948 202.595C234.948 202.595 237.666 203.099 239.724 202.751C241.212 202.499 243.006 192.233 243.006 192.233C243.006 192.233 239.22 191.147 235.338 191.147H235.284C235.284 191.147 227.652 193.403 225.714 195.113C223.89 196.721 223.62 199.355 224.628 202.481C225.564 205.355 227.37 208.487 229.806 214.547Z" fill="#E9B376"/>
<path opacity="0.1" d="M227.628 197.585C228.078 195.809 231.348 194.075 234.726 193.139C235.272 192.431 233.874 191.591 233.874 191.591L240.522 190.991L241.68 191.825L243.666 192.239L241.896 200.183L234.636 201.455L239.232 222.779L239.772 226.991C239.772 226.991 231.99 210.287 230.364 206.735C228.732 203.183 226.842 200.669 227.628 197.585Z" fill="black"/>
<path d="M243.012 192.239C243.012 192.239 232.638 194.435 230.61 196.037C228.882 197.399 228.84 199.181 229.398 200.861C230.946 205.505 236.49 213.251 242.844 235.487L246.48 234.347C246.132 234.347 245.214 222.737 244.944 213.413C244.818 209.015 242.562 205.223 241.68 203.693C241.68 203.693 245.388 204.191 247.446 203.849C250.092 203.405 251.766 194.579 243.012 192.239Z" fill="#E9B376"/>
<path opacity="0.2" d="M241.896 204.107C241.896 204.107 240.522 201.821 238.806 200.861C238.806 200.861 240.918 200.999 242.238 203.759L241.686 203.693L241.896 204.107Z" fill="black"/>
<path d="M247.716 239.135L246.96 239.303L246.33 238.253C246.252 238.127 246.078 238.103 245.97 238.199L243.816 240.197L237.93 241.487C237.93 241.487 236.622 240.101 239.544 239.219C239.682 239.177 239.802 239.069 239.934 238.961C241.38 237.851 243.12 234.791 243.12 234.791L246.606 234.023C246.606 234.023 246.768 234.173 247.002 234.461C247.554 235.145 248.562 236.615 247.716 239.135Z" fill="#263238"/>
<path d="M247.002 234.461C247.002 234.467 247.002 234.473 247.002 234.473C246.426 234.059 244.83 236.777 243.462 237.881C242.244 238.865 240.768 239.501 239.934 238.961C241.38 237.851 243.198 233.987 243.198 233.987L246 233.369C246 233.369 246.768 234.173 247.002 234.461Z" fill="#E9B376"/>
<path d="M227.862 146.591C227.862 146.591 227.628 146.447 227.04 146.621C226.452 146.789 226.644 147.545 226.56 147.515C226.476 147.491 226.092 147.605 225.75 147.731C225.408 147.857 225.33 148.277 225.504 149.003C225.678 149.729 226.812 151.895 227.1 152.099C227.1 152.099 227.022 153.845 227.022 153.917C227.022 153.989 230.604 153.839 230.604 153.839L230.334 151.433L231.168 149.921C231.168 149.921 231.738 148.121 231.594 147.383C231.57 147.251 231.54 147.131 231.51 147.023C231.402 146.615 230.898 146.465 230.574 146.735L230.118 147.119C230.118 147.119 229.992 146.591 229.878 146.219C229.806 145.973 229.602 145.787 229.344 145.751C229.29 145.745 229.242 145.745 229.194 145.745C228.876 145.781 228.882 146.123 228.882 146.123C228.882 146.123 228.342 145.913 228.006 146.441C227.874 146.627 227.862 146.591 227.862 146.591Z" fill="#E9B376"/>
<path opacity="0.1" d="M228.996 150.456C228.924 150.294 228.942 150.102 229.014 149.94C229.086 149.778 229.206 149.64 229.338 149.52C229.662 149.22 230.052 148.998 230.472 148.878C230.436 148.932 230.364 148.938 230.298 148.938C229.89 148.944 229.452 148.938 229.116 148.704C229.02 148.638 228.93 148.548 228.912 148.434C228.876 148.248 228.918 148.044 229.056 147.924C229.386 147.63 229.788 147.36 230.28 146.976" stroke="#263238" stroke-width="0.5" stroke-miterlimit="10" stroke-linecap="round" stroke-linejoin="round"/>
<path opacity="0.1" d="M227.874 146.693C228.018 147.263 228.102 147.845 228.12 148.433C228.126 148.607 228.108 148.811 227.964 148.901C227.802 149.009 227.574 148.907 227.43 148.775C227.196 148.559 227.034 148.271 226.968 147.959C227.088 148.343 227.142 148.751 227.124 149.153C227.118 149.297 227.1 149.441 227.034 149.567C226.968 149.693 226.848 149.801 226.71 149.813C226.53 149.831 226.368 149.699 226.248 149.567C226.098 149.405 225.972 149.225 225.864 149.039C225.816 148.955 225.774 148.853 225.81 148.769" stroke="#263238" stroke-width="0.5" stroke-miterlimit="10" stroke-linecap="round" stroke-linejoin="round"/>
<path opacity="0.1" d="M228.942 148.685C228.912 148.775 228.828 148.847 228.732 148.871C228.636 148.895 228.54 148.883 228.444 148.853C228.312 148.811 228.192 148.721 228.108 148.613" stroke="#263238" stroke-width="0.5" stroke-miterlimit="10" stroke-linecap="round" stroke-linejoin="round"/>
<path opacity="0.1" d="M228.888 146.147C229.08 146.735 229.164 147.107 229.242 147.725" stroke="#263238" stroke-width="0.5" stroke-miterlimit="10" stroke-linecap="round" stroke-linejoin="round"/>
<path d="M230.97 152.483C230.742 152.591 233.532 163.295 233.532 163.295H244.848C244.848 163.295 239.742 170.051 239.502 170.471C239.262 170.891 230.742 170.735 228.672 167.591C226.602 164.447 226.416 152.843 226.416 152.843L230.97 152.483Z" fill="#407BFF"/>
<path opacity="0.6" d="M230.97 152.483C230.742 152.591 233.532 163.295 233.532 163.295H244.848C244.848 163.295 239.742 170.051 239.502 170.471C239.262 170.891 230.742 170.735 228.672 167.591C226.602 164.447 226.416 152.843 226.416 152.843L230.97 152.483Z" fill="white"/>
<path opacity="0.2" d="M239.502 170.639C239.502 170.639 239.634 168.311 240.846 166.205C240.846 166.205 238.968 168.599 238.686 170.639H239.502Z" fill="black"/>
<path d="M253.008 146.681C254.43 148.925 254.952 150.281 255.168 152.483C255.426 155.057 255.414 157.343 254.868 158.027C254.154 158.927 246.024 160.121 241.434 160.151C241.266 160.151 241.062 158.705 241.062 158.705C241.062 158.705 240.48 160.157 240.264 160.157C239.01 160.157 238.212 160.151 238.212 160.151C238.212 160.151 239.148 157.973 240.06 150.227C240.504 146.441 244.212 144.767 246.426 144.383C250.116 143.735 253.008 146.681 253.008 146.681Z" fill="#263238"/>
<path d="M242.46 154.433C241.164 152.417 239.718 146.891 244.632 144.935C250.764 142.493 253.74 146.339 254.46 150.251C255.18 154.163 253.098 157.241 248.964 157.133C244.824 157.031 243.354 155.831 242.46 154.433Z" fill="#263238"/>
<path d="M252.708 161.874C252.708 161.874 251.328 162.936 249.552 164.466C249.18 164.784 248.772 165.06 248.346 165.288C247.182 165.906 246.12 166.26 245.832 165.696C245.766 165.57 245.718 165.438 245.682 165.3C245.436 164.358 245.538 163.038 246.3 162.432C247.158 161.748 247.572 161.166 247.416 160.242C247.332 159.72 247.146 159.18 246.924 158.652L247.596 157.866L251.118 154.308C251.034 156.69 250.854 160.584 252.708 161.874Z" fill="#E9B376"/>
<path opacity="0.2" d="M247.446 160.452C248.418 159.876 249.48 158.88 249.354 157.74C249.3 157.26 249.192 156.804 249.078 156.516L247.11 159.12C247.266 159.534 247.326 159.816 247.446 160.452Z" fill="black"/>
<path d="M252.12 150.497C251.79 154.121 251.724 155.657 249.858 157.553C247.05 160.409 242.724 159.449 241.98 155.861C241.308 152.633 241.962 147.251 245.52 145.727C249.018 144.227 252.45 146.879 252.12 150.497Z" fill="#E9B376"/>
<path d="M247.578 151.811C247.56 152.177 247.332 152.477 247.08 152.483C246.822 152.489 246.63 152.195 246.654 151.835C246.672 151.469 246.9 151.169 247.152 151.163C247.41 151.157 247.602 151.445 247.578 151.811Z" fill="#263238"/>
<path d="M243.816 151.745C243.798 152.093 243.576 152.381 243.324 152.387C243.072 152.393 242.886 152.117 242.904 151.769C242.922 151.421 243.144 151.133 243.396 151.127C243.648 151.115 243.834 151.397 243.816 151.745Z" fill="#263238"/>
<path d="M248.094 150.474C248.046 150.486 247.992 150.474 247.95 150.444C247.308 149.988 246.642 150.228 246.63 150.234C246.534 150.27 246.426 150.228 246.396 150.132C246.366 150.042 246.42 149.934 246.522 149.898C246.558 149.886 247.392 149.574 248.19 150.144C248.268 150.198 248.28 150.312 248.214 150.396C248.184 150.438 248.136 150.462 248.094 150.474Z" fill="#263238"/>
<path d="M242.532 149.988C242.49 149.97 242.46 149.934 242.448 149.892C242.418 149.802 242.472 149.706 242.568 149.67C243.528 149.346 244.188 149.808 244.218 149.832C244.296 149.886 244.308 149.994 244.242 150.072C244.176 150.15 244.062 150.162 243.984 150.108C243.96 150.09 243.444 149.736 242.676 149.994C242.628 150.012 242.574 150.006 242.532 149.988Z" fill="#263238"/>
<path d="M249.096 147.282C247.944 148.494 248.514 153.06 251.754 153.66C255.474 152.778 252.534 143.67 249.096 147.282Z" fill="#263238"/>
<path d="M244.77 155.129C245.064 155.585 245.418 156.461 245.418 156.461C245.502 156.443 245.586 156.425 245.676 156.401C246.828 156.131 247.272 155.627 247.422 155.147C247.5 154.883 247.482 154.625 247.446 154.427C247.404 154.193 247.32 154.031 247.32 154.031C246.792 154.541 245.736 154.871 245.166 155.027C244.92 155.093 244.77 155.129 244.77 155.129Z" fill="#263238"/>
<path d="M245.16 155.027L245.364 155.417C246.45 155.159 247.176 154.835 247.44 154.427C247.398 154.193 247.314 154.031 247.314 154.031C246.786 154.541 245.73 154.871 245.16 155.027Z" fill="white"/>
<path d="M245.676 156.401C246.828 156.131 247.272 155.627 247.422 155.147C247.032 155.255 246.576 155.429 246.204 155.699C245.91 155.909 245.76 156.161 245.676 156.401Z" fill="#DC5753"/>
<path d="M244.83 151.487C244.83 151.487 244.146 153.119 243.438 153.917C243.9 154.367 244.728 154.127 244.728 154.127L244.83 151.487Z" fill="#D58745"/>
<path d="M246.432 150.989L247.266 151.187C246.882 151.607 246.432 150.989 246.432 150.989Z" fill="#263238"/>
<path d="M242.718 150.953L243.552 151.151C243.168 151.571 242.718 150.953 242.718 150.953Z" fill="#263238"/>
<path d="M245.544 144.953C244.116 145.439 242.592 147.911 242.34 148.865C244.374 149.195 249.858 147.293 249.858 147.293C249.858 147.293 253.518 148.301 251.664 146.447C249.804 144.593 245.544 144.953 245.544 144.953Z" fill="#263238"/>
<path d="M253.218 153.449C252.792 154.193 252.096 154.661 251.46 154.817C250.5 155.057 250.008 153.515 250.332 152.555C250.626 151.691 251.568 151.121 252.504 151.307C253.416 151.493 253.704 152.603 253.218 153.449Z" fill="#E9B376"/>
<path d="M240.582 149.525C240.378 151.121 240.168 152.729 239.634 154.241C239.094 155.753 237.978 158.879 236.646 159.773" stroke="#263238" stroke-width="0.5" stroke-miterlimit="10"/>
<path opacity="0.2" d="M253.38 168.688L252.792 176.638L243.762 182.008L252 180.658L254.508 179.14L255.804 174.67L253.38 168.688Z" fill="black"/>
<path d="M238.062 189.347C238.116 188.771 239.034 186.659 239.592 185.813C240.15 184.967 242.352 182.879 242.352 182.879L245.04 184.385C245.04 184.385 245.136 185.615 244.374 186.263C243.936 186.641 243.462 186.971 243.462 186.971C243.462 186.971 243.582 187.427 243.588 187.943C243.594 188.513 243.474 189.215 243.006 189.191C242.538 189.167 242.364 187.661 242.346 187.445C242.37 187.667 242.496 189.209 241.872 189.263C241.266 189.317 241.17 187.709 241.17 187.709C241.17 187.709 241.14 188.459 241.122 188.843C241.104 189.227 240.72 189.557 240.366 189.131C239.952 188.639 239.916 187.787 239.916 187.787C239.916 187.787 239.592 188.285 239.106 189.371C238.746 190.145 238.014 189.833 238.062 189.347Z" fill="#E9B376"/>
<path opacity="0.1" d="M242.364 187.733C242.352 187.445 242.334 187.151 242.376 186.863C242.418 186.575 242.514 186.293 242.7 186.071" stroke="black" stroke-width="0.5" stroke-miterlimit="10" stroke-linecap="round" stroke-linejoin="round"/>
<path opacity="0.1" d="M241.14 187.937C241.128 187.649 241.11 187.355 241.152 187.067C241.194 186.779 241.29 186.497 241.476 186.275" stroke="black" stroke-width="0.5" stroke-miterlimit="10" stroke-linecap="round" stroke-linejoin="round"/>
<path opacity="0.1" d="M239.923 187.829C239.911 187.541 239.893 187.247 239.935 186.959C239.977 186.671 240.073 186.389 240.259 186.167" stroke="black" stroke-width="0.5" stroke-miterlimit="10" stroke-linecap="round" stroke-linejoin="round"/>
<path d="M253.638 167.938C253.638 168.19 254.442 177.07 254.442 177.07C253.944 178.006 243.672 181.57 242.358 182.878L244.752 185.344C244.752 185.344 256.974 182.878 258.948 181.444C260.634 180.22 260.49 178.072 260.49 175.138C260.49 172.204 259.848 167.938 259.848 167.938H253.638Z" fill="#E9B376"/>
<path d="M254.67 162.455C252.144 163.511 254.07 177.017 254.07 177.017L244.218 181.589L246.09 185.345C246.09 185.345 256.176 183.245 259.23 182.621C262.464 181.961 260.85 174.905 260.484 168.689C260.118 162.443 257.622 161.219 254.67 162.455Z" fill="#407BFF"/>
<path opacity="0.6" d="M254.67 162.455C252.144 163.511 254.07 177.017 254.07 177.017L244.218 181.589L246.09 185.345C246.09 185.345 256.176 183.245 259.23 182.621C262.464 181.961 260.85 174.905 260.484 168.689C260.118 162.443 257.622 161.219 254.67 162.455Z" fill="white"/>
<path d="M218.394 188.837H231.546C231.774 188.837 231.954 188.687 231.954 188.507C231.954 188.471 231.948 188.441 231.936 188.405L226.086 174.989C225.936 174.605 225.498 174.341 225 174.341H211.836C211.614 174.341 211.434 174.485 211.434 174.665C211.434 174.701 211.44 174.737 211.458 174.773L217.308 188.189C217.458 188.573 217.896 188.831 218.394 188.837Z" fill="#263238"/>
<path opacity="0.7" d="M211.836 174.341H225C225.498 174.341 225.942 174.605 226.086 174.989L231.936 188.405C231.948 188.435 231.954 188.471 231.954 188.507C231.954 188.687 231.774 188.837 231.546 188.837H218.394C217.896 188.831 217.458 188.573 217.308 188.189L211.458 174.773C211.44 174.737 211.434 174.701 211.434 174.665C211.434 174.485 211.614 174.341 211.836 174.341Z" fill="white"/>
<path d="M219.99 181.888C220.272 182.53 220.848 182.974 221.28 182.884C221.712 182.794 221.826 182.206 221.55 181.564C221.274 180.916 220.692 180.484 220.26 180.574C219.828 180.664 219.702 181.228 219.99 181.888Z" fill="white"/>
<path opacity="0.3" d="M224.916 174.341H225C225.498 174.341 225.942 174.605 226.086 174.989L231.936 188.405C231.948 188.435 231.954 188.471 231.954 188.507C231.954 188.687 231.774 188.837 231.546 188.837H231.126L224.916 174.341Z" fill="black"/>
<path d="M244.428 188.837H230.736V187.913H243.504C244.014 187.913 244.428 188.327 244.428 188.837Z" fill="#263238"/>
<path opacity="0.7" d="M244.428 188.837H230.736V187.913H243.504C244.014 187.913 244.428 188.327 244.428 188.837Z" fill="white"/>
<path d="M218.388 240.077H199.38V191.171H200.13V239.303H217.632V191.171H218.388V240.077Z" fill="#263238"/>
<path d="M288.672 188.837H192.498V191.171H288.672V188.837Z" fill="#407BFF"/>
<path opacity="0.2" d="M288.672 188.837H192.498V191.171H288.672V188.837Z" fill="black"/>
<path opacity="0.2" d="M288.672 188.837H259.98V191.171H288.672V188.837Z" fill="black"/>
<path d="M287.274 240.587H268.266V191.171H269.022V239.801H286.518V191.171H287.274V240.587Z" fill="#263238"/>
<path d="M87.1199 138.701C87.1199 138.701 91.4159 149.447 92.0939 149.513C92.7779 149.579 101.484 146.183 101.484 146.183L102.84 147.713C102.84 147.713 98.2799 153.815 91.0559 155.753C89.7599 156.101 88.1219 154.631 86.5559 152.621C86.2499 152.231 85.9499 151.817 85.6499 151.391C84.0419 149.009 82.6019 146.519 81.3359 143.939L87.1199 138.701Z" fill="#407BFF"/>
<path d="M90.6481 150.707C90.2401 150.593 90.0061 150.167 90.1201 149.759L93.0301 137.513C93.2041 136.931 93.7261 136.529 94.3321 136.505L103.668 136.307C103.77 136.295 103.872 136.301 103.968 136.331C104.376 136.445 104.61 136.871 104.496 137.279L101.586 149.525C101.412 150.107 100.89 150.515 100.284 150.539L90.9481 150.731C90.8461 150.743 90.7441 150.737 90.6481 150.707Z" fill="#263238"/>
<path opacity="0.2" d="M90.6481 150.707C90.2401 150.593 90.0061 150.167 90.1201 149.759L93.0301 137.513C93.2041 136.931 93.7261 136.529 94.3321 136.505L103.668 136.307C103.77 136.295 103.872 136.301 103.968 136.331C104.376 136.445 104.61 136.871 104.496 137.279L101.586 149.525C101.412 150.107 100.89 150.515 100.284 150.539L90.9481 150.731C90.8461 150.743 90.7441 150.737 90.6481 150.707Z" fill="white"/>
<path d="M91.6081 150.689C91.2001 150.575 90.9661 150.149 91.0801 149.747L93.9901 137.501C94.1641 136.919 94.6861 136.517 95.2861 136.487L104.628 136.295C104.73 136.283 104.832 136.289 104.928 136.319C105.336 136.433 105.57 136.859 105.456 137.267L102.54 149.513C102.366 150.095 101.844 150.497 101.244 150.527L91.9021 150.719C91.8061 150.725 91.7041 150.719 91.6081 150.689Z" fill="#263238"/>
<path opacity="0.3" d="M91.6081 150.689C91.2001 150.575 90.9661 150.149 91.0801 149.747L93.9901 137.501C94.1641 136.919 94.6861 136.517 95.2861 136.487L104.628 136.295C104.73 136.283 104.832 136.289 104.928 136.319C105.336 136.433 105.57 136.859 105.456 137.267L102.54 149.513C102.366 150.095 101.844 150.497 101.244 150.527L91.9021 150.719C91.8061 150.725 91.7041 150.719 91.6081 150.689Z" fill="white"/>
<path opacity="0.2" d="M100.032 143.471C99.9839 142.937 99.5039 142.541 98.9699 142.589C98.2079 142.631 97.5599 143.153 97.3559 143.885C97.3199 144.005 97.3079 144.131 97.3199 144.257C97.3739 144.791 97.8479 145.175 98.3819 145.121C99.1439 145.079 99.7919 144.563 99.9959 143.825C100.032 143.717 100.044 143.591 100.032 143.471Z" fill="white"/>
<path d="M103.188 144.053C103.002 144.035 102.222 144.425 101.856 144.167C101.49 143.909 101.832 143.699 101.832 143.699C102.504 143.537 103.242 142.691 103.656 142.931C104.064 143.171 104.742 143.477 104.646 143.855C104.532 144.209 104.4 144.557 104.238 144.893C104.346 145.061 104.358 145.277 104.274 145.457C104.19 145.667 104.004 145.823 103.782 145.865C103.908 145.997 103.98 146.171 103.968 146.357C103.938 146.645 103.17 147.029 103.17 147.029C103.17 147.029 103.32 147.485 103.146 147.659C102.846 147.905 102.45 147.995 102.072 147.905C101.622 147.797 101.316 147.647 101.346 147.191C101.376 146.741 102.186 146.741 102.186 146.741C102.186 146.741 100.668 146.279 100.992 145.997C101.316 145.709 102.522 145.745 102.522 145.745C102.522 145.745 100.47 145.337 100.794 144.917C101.118 144.497 103.164 144.611 103.164 144.611C103.164 144.611 103.368 144.071 103.188 144.053Z" fill="#E9B376"/>
<path d="M72.1381 236.5L75.3841 236.356L76.5901 227.896L71.6401 228.064L72.1381 236.5Z" fill="#E9B376"/>
<path d="M75.7861 234.874H74.6281C74.3641 234.874 74.1241 235.006 73.9681 235.216C73.3021 236.128 72.7981 235.78 72.0721 234.928C71.6101 234.874 71.4841 235.402 71.4481 235.546L70.5841 238.69C70.5061 238.954 70.6621 239.224 70.9261 239.302C70.9741 239.314 71.0221 239.32 71.0701 239.32C72.4741 239.32 73.1401 239.32 74.8861 239.32H80.2321C81.6901 239.32 81.9901 237.85 81.3901 237.718C78.6901 237.124 76.7821 236.326 75.9481 235.54C75.7921 235.402 75.9541 235.294 75.7861 234.874Z" fill="#263238"/>
<path d="M78.0483 235.924C78.1683 235.834 78.2403 235.696 78.2463 235.546C78.2583 235.468 78.2223 235.384 78.1503 235.342C77.7903 235.084 76.3443 235.762 76.1823 235.84C76.1643 235.846 76.1523 235.858 76.1463 235.876C76.1343 235.912 76.1523 235.948 76.1823 235.96C76.5363 236.044 76.9023 236.092 77.2683 236.098C77.5323 236.128 77.8083 236.062 78.0483 235.924ZM78.0603 235.45C78.0903 235.468 78.1023 235.504 78.0963 235.534C78.0903 235.642 78.0363 235.744 77.9523 235.81C77.6223 236.056 76.8303 235.948 76.4043 235.87C77.0043 235.612 77.8563 235.312 78.0603 235.45Z" fill="#407BFF"/>
<path d="M76.2242 235.978C76.6562 235.798 77.5682 235.084 77.5202 234.706C77.5142 234.628 77.4542 234.532 77.2622 234.508C76.4702 234.418 76.1282 235.84 76.1282 235.9C76.1222 235.924 76.1282 235.954 76.1462 235.966C76.1582 235.972 76.1762 235.972 76.1942 235.966L76.2242 235.978ZM77.2322 234.622C77.3822 234.64 77.3822 234.688 77.3822 234.706C77.4242 234.934 76.7642 235.528 76.2902 235.78C76.3862 235.45 76.6802 234.616 77.1782 234.616L77.2322 234.622Z" fill="#407BFF"/>
<path d="M76.338 235.919C75.942 235.973 75.57 236.213 75.354 236.549" stroke="#407BFF" stroke-width="0.5" stroke-miterlimit="10" stroke-linecap="round" stroke-linejoin="round"/>
<path d="M77.0582 236.465C76.6622 236.519 76.2902 236.759 76.0742 237.095" stroke="#407BFF" stroke-width="0.5" stroke-miterlimit="10" stroke-linecap="round" stroke-linejoin="round"/>
<path d="M77.9523 236.914C77.5563 236.968 77.1843 237.208 76.9683 237.544" stroke="#407BFF" stroke-width="0.5" stroke-miterlimit="10" stroke-linecap="round" stroke-linejoin="round"/>
<path opacity="0.3" d="M75.9359 232.511L75.7799 233.597L71.9579 233.531L71.8979 232.511H75.9359Z" fill="black"/>
<path d="M85.68 235.667L89.208 235.217L89.988 227.243L85.146 227.111L85.68 235.667Z" fill="#E9B376"/>
<path d="M89.3881 234.552H88.2301C87.9661 234.552 87.7261 234.684 87.5701 234.894C86.9041 235.806 86.4001 235.458 85.6741 234.606C85.2121 234.552 85.0861 235.08 85.0501 235.224L84.1861 238.368C84.1081 238.632 84.2641 238.902 84.5281 238.98C84.5761 238.992 84.6241 238.998 84.6721 238.998C86.0761 238.998 86.7421 238.998 88.4881 238.998H93.8341C95.2921 238.998 95.5921 237.528 94.9921 237.396C92.2921 236.802 90.3841 236.004 89.5501 235.218C89.4001 235.08 89.5561 234.978 89.3881 234.552Z" fill="#263238"/>
<path d="M91.9023 235.445C92.0223 235.355 92.0943 235.217 92.1003 235.067C92.1123 234.989 92.0763 234.905 92.0043 234.863C91.6443 234.605 90.1983 235.283 90.0363 235.361C90.0183 235.367 90.0063 235.379 90.0003 235.397C89.9883 235.433 90.0063 235.469 90.0363 235.481C90.3903 235.565 90.7563 235.613 91.1223 235.619C91.3863 235.649 91.6623 235.589 91.9023 235.445ZM91.9083 234.977C91.9383 234.995 91.9503 235.031 91.9443 235.061C91.9383 235.169 91.8843 235.271 91.8003 235.337C91.4703 235.583 90.6783 235.475 90.2523 235.397C90.8583 235.133 91.7103 234.833 91.9083 234.977Z" fill="#407BFF"/>
<path d="M90.0782 235.499C90.5102 235.319 91.4222 234.605 91.3742 234.227C91.3682 234.149 91.3082 234.053 91.1162 234.029C90.3242 233.939 89.9822 235.361 89.9822 235.421C89.9762 235.445 89.9822 235.475 90.0002 235.487C90.0122 235.493 90.0302 235.493 90.0482 235.487L90.0782 235.499ZM91.0862 234.143C91.2362 234.161 91.2362 234.209 91.2362 234.227C91.2782 234.455 90.6182 235.049 90.1442 235.301C90.2402 234.971 90.5342 234.137 91.0322 234.137L91.0862 234.143Z" fill="#407BFF"/>
<path d="M90.192 235.445C89.796 235.499 89.424 235.739 89.208 236.075" stroke="#407BFF" stroke-width="0.5" stroke-miterlimit="10" stroke-linecap="round" stroke-linejoin="round"/>
<path d="M90.9122 235.985C90.5162 236.039 90.1442 236.279 89.9282 236.615" stroke="#407BFF" stroke-width="0.5" stroke-miterlimit="10" stroke-linecap="round" stroke-linejoin="round"/>
<path d="M91.8063 236.441C91.4103 236.495 91.0383 236.735 90.8223 237.071" stroke="#407BFF" stroke-width="0.5" stroke-miterlimit="10" stroke-linecap="round" stroke-linejoin="round"/>
<path opacity="0.3" d="M89.52 232.031L89.418 233.123L85.524 233.099L85.458 232.031H89.52Z" fill="black"/>
<path d="M78.1977 161.867L87.2637 161.909C87.2637 161.909 90.4317 179.753 90.2457 199.757C90.6177 211.505 90.3177 233.099 90.3177 233.099H84.4257C84.4257 233.099 80.6697 215.561 82.1757 201.659C81.6297 199.265 80.8977 195.113 80.4657 192.995C79.2597 187.289 78.3597 181.505 77.7537 175.679C76.7157 164.759 78.1977 161.867 78.1977 161.867Z" fill="#263238"/>
<path opacity="0.2" d="M79.0019 168.875C79.0019 168.875 82.2719 185.303 80.4659 193.001C79.2599 187.295 78.3599 181.511 77.7539 175.685L79.0019 168.875Z" fill="black"/>
<path d="M70.5779 157.193C69.7859 161.159 66.6839 166.001 66.0599 171.071C64.9859 179.729 69.6419 190.505 70.8599 200.663C69.0239 215.693 71.8379 233.915 71.4659 233.519L77.3819 233.525C77.5619 232.181 78.7739 211.817 79.3799 199.757C79.8899 189.197 80.7059 162.641 80.7059 162.641L70.5779 157.193Z" fill="#263238"/>
<path opacity="0.2" d="M87.1197 140.123C87.4557 141.611 88.2418 143.843 88.8658 145.427C89.0698 145.937 89.1538 146.495 89.0638 147.041C88.7938 148.607 87.4438 149.105 86.9938 150.353C86.7418 151.085 86.5978 151.847 86.5618 152.621C86.2558 152.231 85.9557 151.817 85.6557 151.391L84.9897 148.757L87.1197 140.123Z" fill="black"/>
<path d="M86.5738 149.375C90.0898 146.915 87.3418 144.689 87.6478 141.041C87.8638 138.257 85.9138 135.767 83.1598 135.299C82.5238 135.191 81.8638 135.083 81.2218 134.999L80.8378 134.951C79.1098 134.753 77.3758 134.675 75.6358 134.705C74.9998 134.705 74.3398 134.705 73.6558 134.723C72.9658 134.741 72.2998 134.765 71.6638 134.813C69.4618 134.969 67.7998 136.877 67.9558 139.085C67.9678 139.223 67.9858 139.367 68.0098 139.505L70.3618 155.057L67.3198 164.021C76.4278 168.143 88.5778 165.431 88.1098 163.793C86.7958 159.179 86.1178 152.501 86.5738 149.375Z" fill="#407BFF"/>
<path d="M86.4899 119.663L74.7119 117.575C73.7819 117.821 73.0439 118.661 72.6179 119.621C72.1919 120.581 72.03 121.661 71.892 122.723C71.52 125.573 71.28 128.561 72.15 131.273C78.018 132.347 84.042 132.335 89.898 131.225C87.336 128.621 87.9899 123.053 86.4899 119.663Z" fill="#263238"/>
<path d="M74.8018 134.657C74.8018 134.657 76.2418 135.833 78.0958 137.519C78.4798 137.873 78.9058 138.179 79.3618 138.437C80.5858 139.133 81.7078 139.541 82.0318 138.953C82.1038 138.821 82.1578 138.683 82.2058 138.533C82.4938 137.537 82.4278 136.121 81.6358 135.455C80.7418 134.699 80.3158 134.063 80.5138 133.085C80.6158 132.527 80.8378 131.957 81.0898 131.405L80.0518 130.739L76.3978 126.833C76.7518 129.173 76.8238 133.331 74.8018 134.657Z" fill="#E9B376"/>
<path opacity="0.2" d="M80.4721 133.295C79.4521 132.653 78.3481 131.555 78.5221 130.337C78.6001 129.827 78.7201 129.341 78.8521 129.035L80.8741 131.879C80.6881 132.323 80.6161 132.623 80.4721 133.295Z" fill="black"/>
<path d="M75.78 122.524C76.026 126.4 76.044 128.044 77.982 130.126C80.898 133.264 85.548 132.37 86.448 128.554C87.264 125.122 86.724 119.356 82.974 117.622C79.284 115.924 75.534 118.648 75.78 122.524Z" fill="#E9B376"/>
<path d="M80.9518 123.941C80.9578 124.349 81.1738 124.691 81.4258 124.703C81.6778 124.715 81.8818 124.391 81.8698 123.983C81.8638 123.575 81.6478 123.233 81.3958 123.221C81.1498 123.209 80.9458 123.533 80.9518 123.941Z" fill="#263238"/>
<path d="M84.882 124.031C84.888 124.427 85.104 124.763 85.356 124.775C85.608 124.787 85.806 124.475 85.8 124.079C85.794 123.683 85.578 123.347 85.326 123.335C85.074 123.323 84.876 123.635 84.882 124.031Z" fill="#263238"/>
<path d="M79.986 122.477C80.034 122.483 80.088 122.471 80.124 122.435C80.736 121.901 81.402 122.111 81.408 122.117C81.504 122.147 81.606 122.093 81.636 121.997C81.66 121.895 81.6 121.787 81.504 121.757C81.468 121.745 80.634 121.475 79.878 122.141C79.8 122.207 79.8 122.327 79.866 122.411C79.896 122.447 79.938 122.471 79.986 122.477Z" fill="#263238"/>
<path d="M85.9019 122.123C85.9439 122.111 85.9739 122.081 85.9919 122.039C86.0279 121.955 85.9919 121.841 85.9019 121.787C85.0319 121.265 84.3659 121.625 84.3359 121.637C84.2579 121.679 84.2339 121.793 84.2879 121.883C84.3419 121.973 84.4439 122.009 84.5279 121.967C84.5519 121.955 85.0739 121.685 85.7639 122.099C85.8119 122.129 85.8599 122.135 85.9019 122.123Z" fill="#263238"/>
<path d="M83.5317 123.809C83.5317 123.809 84.0957 125.273 84.7497 126.197C84.8637 126.359 84.7857 126.587 84.5937 126.647C84.1137 126.809 83.5557 126.635 83.5557 126.635L83.5317 123.809Z" fill="#A24E3F"/>
<path d="M81.2578 123.233L82.1518 123.047C82.1458 123.053 81.6418 123.701 81.2578 123.233Z" fill="#263238"/>
<path d="M85.1938 123.347L86.0878 123.161C86.0878 123.161 85.5838 123.809 85.1938 123.347Z" fill="#263238"/>
<path d="M76.4222 127.745C65.3882 117.509 80.4602 114.977 80.4602 114.977C86.8742 112.133 85.8962 118.175 85.8962 118.175C88.1462 121.679 83.6401 123.473 83.6401 123.473C85.8001 121.379 83.4782 119.423 83.4782 119.423C83.2502 122.723 79.8541 123.371 79.8541 123.371C81.6541 120.707 81.1622 119.045 81.1622 119.045C79.2482 124.049 76.4522 124.583 76.4522 124.583L76.4222 127.745Z" fill="#263238"/>
<path d="M74.5678 125.651C75.0778 126.467 75.9238 127.001 76.6978 127.205C77.8618 127.511 78.4918 125.885 78.1018 124.841C77.7538 123.899 76.6138 123.239 75.4738 123.395C74.3518 123.551 73.9858 124.715 74.5678 125.651Z" fill="#E9B376"/>
<path opacity="0.2" d="M76.686 125.501C76.674 125.135 76.506 124.775 76.236 124.523C75.966 124.271 75.594 124.133 75.228 124.145" stroke="black" stroke-width="0.5" stroke-miterlimit="10" stroke-linecap="round" stroke-linejoin="round"/>
<path d="M81.1318 126.911C81.1318 126.911 81.4798 127.943 82.6318 127.739" stroke="#263238" stroke-width="0.5" stroke-miterlimit="10" stroke-linecap="round" stroke-linejoin="round"/>
<path opacity="0.2" d="M69.4622 157.69L68.8262 159.562C68.8262 159.562 77.8262 157.996 82.3262 153.976C85.5302 151.108 85.0322 149.902 85.0322 149.902L81.4022 150.25L69.4622 157.69Z" fill="black"/>
<path opacity="0.2" d="M72.9362 144.28L72.4502 152.398C71.0942 153.262 70.2002 152.068 69.9902 150.832V148.498L72.9362 144.28Z" fill="black"/>
<path d="M73.4221 143.051C73.4221 143.051 70.0201 151.469 70.6381 151.859C71.2501 152.249 81.0361 149.573 81.0361 149.573L82.5781 151.787C82.2481 153.239 65.3581 162.407 63.9841 154.739C63.1441 150.083 68.2741 137.231 68.2741 137.231C72.4381 135.599 73.4221 143.051 73.4221 143.051Z" fill="#407BFF"/>
<path d="M82.7281 151.997C83.8861 152.087 83.9281 150.347 84.5281 150.275C84.8761 150.239 85.2241 150.155 85.5421 150.017C85.5421 150.017 85.1641 151.067 85.5421 150.983C85.9201 150.899 87.1441 150.839 87.4441 149.843C87.7441 148.847 86.6581 146.711 86.4061 146.417C86.1601 146.117 84.8581 146.213 84.8581 146.213C84.8581 146.213 86.2621 145.853 87.0301 145.745C87.7981 145.637 87.9481 144.761 86.8741 144.953C86.4361 145.031 82.9561 145.061 82.5781 145.415C82.2001 145.775 80.8021 149.291 80.8021 149.291C80.2801 149.585 81.6001 152.537 82.7281 151.997Z" fill="#E9B376"/>
<g opacity="0.3">
<path d="M84.8462 146.099C84.4922 146.075 84.1322 146.099 83.7782 146.165C83.7242 146.177 83.6942 146.231 83.7062 146.285C83.7182 146.333 83.7602 146.363 83.8082 146.357C84.1382 146.291 84.4802 146.267 84.8162 146.291C84.9482 146.291 84.9722 146.105 84.8462 146.099Z" fill="black"/>
<path d="M86.64 147.155C86.748 147.215 86.862 147.053 86.754 146.993C86.1 146.645 85.416 146.843 84.756 147.059C84.636 147.095 84.72 147.275 84.84 147.239C85.422 147.047 86.064 146.861 86.64 147.155Z" fill="black"/>
<path d="M87.1501 148.013C86.5861 147.677 85.8961 147.647 85.3081 147.935C85.2601 147.965 85.2481 148.025 85.2781 148.073C85.3021 148.109 85.3441 148.127 85.3861 148.115C85.9141 147.857 86.5321 147.881 87.0361 148.175C87.1501 148.241 87.2641 148.079 87.1501 148.013Z" fill="black"/>
<path d="M86.214 149.477C86.262 149.375 86.304 149.267 86.334 149.153C86.358 149.033 86.178 148.961 86.148 149.087C86.064 149.459 85.836 149.783 85.506 149.981C85.398 150.041 85.482 150.221 85.584 150.161H85.572C85.776 150.047 85.95 149.879 86.088 149.693C86.1 149.693 86.112 149.699 86.13 149.693C86.334 149.621 86.562 149.681 86.706 149.843C86.79 149.939 86.94 149.813 86.856 149.717C86.688 149.531 86.454 149.447 86.214 149.477Z" fill="black"/>
</g>
<path d="M43.2358 225.768L45.3658 236.058L49.8478 236.016L49.0258 224.892L43.2358 225.768Z" fill="#E0E0E0"/>
<path d="M45.8997 235.229C46.4997 235.775 47.7897 235.673 48.3657 235.211L48.3717 234.371C48.4677 233.657 48.7197 233.321 49.4817 233.405C49.8597 233.447 50.3337 233.897 50.6517 234.569C51.2217 235.781 51.8817 236.261 51.8817 236.261C51.8817 236.261 55.3137 237.911 56.5437 238.271C57.2757 238.487 58.2597 238.811 58.7877 239.585C58.9377 239.807 59.0757 240.071 59.2017 240.377C59.3037 240.635 59.3037 241.211 59.3097 241.223L50.6697 241.331C50.6697 241.331 49.7817 240.827 49.4097 240.845C48.7437 240.875 48.4557 241.463 48.4557 241.463L45.3117 241.529C45.3117 241.529 45.2457 241.043 45.1497 240.341C45.1077 240.023 45.0597 239.663 45.0057 239.279C44.7837 237.641 44.9637 235.679 44.9037 235.217C44.7957 234.407 45.8997 235.229 45.8997 235.229Z" fill="#263238"/>
<path d="M53.7357 237.071C53.6937 237.035 53.6337 237.035 53.5917 237.065C53.3877 237.197 53.2197 237.383 53.1057 237.611C53.0457 237.731 53.2377 237.845 53.2977 237.719C53.3997 237.515 53.5497 237.353 53.7237 237.239C53.7777 237.197 53.7897 237.119 53.7357 237.071Z" fill="#407BFF"/>
<path d="M53.0638 236.723C53.0218 236.687 52.9618 236.687 52.9198 236.717C52.7158 236.849 52.5478 237.035 52.4338 237.263C52.3738 237.383 52.5658 237.497 52.6258 237.371C52.7278 237.167 52.8778 237.005 53.0518 236.891C53.1118 236.849 53.1178 236.771 53.0638 236.723Z" fill="#407BFF"/>
<path d="M52.3739 236.399C52.3319 236.363 52.2719 236.363 52.2299 236.393C52.0259 236.525 51.8579 236.711 51.7439 236.939C51.6839 237.059 51.8759 237.173 51.9359 237.047C52.0379 236.843 52.1879 236.681 52.3619 236.567C52.4159 236.525 52.4279 236.447 52.3739 236.399Z" fill="#407BFF"/>
<path opacity="0.2" d="M59.0278 240.012C59.0878 240.138 59.1478 240.264 59.2078 240.408C59.3098 240.666 59.3098 241.242 59.3158 241.254L50.6758 241.362C50.6758 241.362 49.7878 240.858 49.4158 240.876C48.7498 240.906 48.4618 241.494 48.4618 241.494L45.3178 241.56C45.3178 241.56 45.2518 241.074 45.1558 240.372C45.1498 240.318 45.1378 240.252 45.1318 240.198L59.0278 240.012Z" fill="white"/>
<path d="M52.2898 236.502C52.2598 236.202 52.2298 235.902 52.2538 235.602C52.2778 235.302 52.3558 235.002 52.5238 234.75C52.6018 234.636 52.7218 234.522 52.8598 234.534C53.0038 234.54 53.1178 234.678 53.1718 234.816C53.2738 235.08 53.2378 235.386 53.1178 235.638C52.9978 235.89 52.5118 236.316 52.2898 236.502Z" stroke="#407BFF" stroke-width="0.5" stroke-miterlimit="10"/>
<path d="M52.2538 236.501C52.1338 236.225 52.0078 235.949 51.8398 235.697C51.6718 235.445 51.4558 235.223 51.1858 235.091C51.0598 235.031 50.9038 234.995 50.7838 235.067C50.6578 235.145 50.6338 235.319 50.6518 235.463C50.6938 235.745 50.8738 235.991 51.1078 236.153C51.3418 236.315 51.9778 236.447 52.2538 236.501Z" stroke="#407BFF" stroke-width="0.5" stroke-miterlimit="10"/>
<path d="M23.4117 225.131L22.1997 235.571L26.4717 236.939L29.1837 226.121L23.4117 225.131Z" fill="#E0E0E0"/>
<path d="M22.8115 235.066C23.2975 235.714 24.5815 235.87 25.2355 235.534L25.4095 234.706C25.6435 234.028 25.9555 233.746 26.6875 233.98C27.0475 234.094 27.4255 234.628 27.6055 235.354C27.9295 236.65 28.4755 237.256 28.4755 237.256C28.4755 237.256 31.5175 239.548 32.6515 240.136C33.3295 240.49 34.2235 241 34.5955 241.864C34.7035 242.11 34.7875 242.398 34.8415 242.722C34.8895 242.992 34.7815 243.562 34.7815 243.574L26.2855 241.99C26.2855 241.99 25.5115 241.324 25.1395 241.27C24.4795 241.174 24.0835 241.69 24.0835 241.69L20.9995 241.132C20.9995 241.132 21.0295 240.646 21.0715 239.932C21.0895 239.614 21.1135 239.248 21.1375 238.864C21.2395 237.214 21.7975 235.324 21.8335 234.856C21.8875 234.04 22.8115 235.066 22.8115 235.066Z" fill="#263238"/>
<path d="M30.1375 238.402C30.1075 238.36 30.0475 238.348 29.9995 238.366C29.7715 238.456 29.5735 238.601 29.4175 238.805C29.3335 238.913 29.5015 239.056 29.5795 238.948C29.7175 238.768 29.8975 238.637 30.0955 238.559C30.1555 238.535 30.1795 238.462 30.1375 238.402Z" fill="#407BFF"/>
<path d="M29.5437 237.929C29.5137 237.887 29.4537 237.875 29.4057 237.893C29.1777 237.983 28.9797 238.127 28.8237 238.331C28.7397 238.439 28.9077 238.583 28.9857 238.475C29.1237 238.295 29.3037 238.163 29.5017 238.085C29.5677 238.061 29.5917 237.989 29.5437 237.929Z" fill="#407BFF"/>
<path d="M28.9314 237.473C28.9014 237.431 28.8414 237.419 28.7934 237.437C28.5654 237.527 28.3674 237.671 28.2114 237.875C28.1274 237.983 28.2954 238.127 28.3734 238.019C28.5114 237.839 28.6914 237.707 28.8894 237.629C28.9494 237.611 28.9734 237.533 28.9314 237.473C28.9314 237.479 28.9314 237.479 28.9314 237.473Z" fill="#407BFF"/>
<path opacity="0.2" d="M34.7516 242.321C34.7876 242.453 34.8237 242.591 34.8477 242.747C34.8957 243.017 34.7877 243.587 34.7877 243.599L26.2917 242.015C26.2917 242.015 25.5177 241.349 25.1457 241.295C24.4857 241.199 24.0897 241.715 24.0897 241.715L20.9937 241.163C20.9937 241.163 21.0237 240.677 21.0657 239.963C21.0717 239.909 21.0717 239.843 21.0777 239.783L34.7516 242.321Z" fill="white"/>
<path d="M28.8354 237.557C28.8654 237.257 28.8954 236.957 28.9734 236.669C29.0574 236.381 29.1894 236.099 29.4054 235.889C29.5074 235.793 29.6454 235.709 29.7774 235.739C29.9214 235.775 29.9994 235.931 30.0234 236.075C30.0714 236.351 29.9754 236.645 29.8074 236.873C29.6394 237.101 29.0814 237.425 28.8354 237.557Z" stroke="#407BFF" stroke-width="0.5" stroke-miterlimit="10"/>
<path d="M28.7994 237.551C28.7334 237.257 28.6674 236.963 28.5534 236.687C28.4394 236.411 28.2654 236.147 28.0254 235.967C27.9114 235.883 27.7674 235.817 27.6354 235.865C27.4974 235.919 27.4374 236.081 27.4314 236.225C27.4194 236.507 27.5514 236.783 27.7434 236.987C27.9414 237.191 28.5354 237.449 28.7994 237.551Z" stroke="#407BFF" stroke-width="0.5" stroke-miterlimit="10"/>
<path d="M51.1679 203.07C51.5999 219.618 50.5439 233.796 50.5439 233.796L44.0999 234.192C44.0999 234.192 40.4699 212.724 41.9339 203.952C41.8619 202.11 39.5099 179.052 38.6999 174.69C37.2359 166.866 35.6699 161.496 35.6699 161.496L50.8319 160.728C50.8319 160.734 50.9039 192.654 51.1679 203.07Z" fill="#407BFF"/>
<path opacity="0.4" d="M51.1679 203.07C51.5999 219.618 50.5439 233.796 50.5439 233.796L44.0999 234.192C44.0999 234.192 40.4699 212.724 41.9339 203.952C41.8619 202.11 39.5099 179.052 38.6999 174.69C37.2359 166.866 35.6699 161.496 35.6699 161.496L50.8319 160.728C50.8319 160.734 50.9039 192.654 51.1679 203.07Z" fill="black"/>
<path opacity="0.3" d="M42.5518 168.287C42.5518 168.287 42.0598 186.413 41.1898 196.349C40.7338 190.979 39.5458 179.819 38.7358 175.463L42.5518 168.287Z" fill="black"/>
<path d="M21.0059 234.198L28.0139 235.872C28.0139 235.872 33.6539 213.936 36.2819 203.196C38.8319 191.232 43.5839 161.364 43.5839 161.364L30.1079 159.06C23.6399 169.644 27.2939 196.44 26.1479 203.538C22.4879 213.684 21.0059 234.198 21.0059 234.198Z" fill="#407BFF"/>
<path opacity="0.4" d="M21.0059 234.198L28.0139 235.872C28.0139 235.872 33.6539 213.936 36.2819 203.196C38.8319 191.232 43.5839 161.364 43.5839 161.364L30.1079 159.06C23.6399 169.644 27.2939 196.44 26.1479 203.538C22.4879 213.684 21.0059 234.198 21.0059 234.198Z" fill="black"/>
<path d="M46.0137 125.135C46.8117 123.377 48.8817 122.435 50.6397 123.233C51.4617 123.605 52.1157 124.445 52.4457 125.285L52.5177 125.471C52.9797 126.773 53.1597 128.159 53.0517 129.539C53.0217 130.901 52.9797 132.281 52.9977 133.595C53.0217 134.909 52.9977 139.667 53.0397 140.957C53.0817 142.151 55.4997 147.551 57.8337 155.345C57.8817 155.495 57.9417 155.639 58.0077 155.783L58.4397 156.641C58.4397 156.641 57.7977 157.049 57.1317 157.445C56.5977 157.847 56.0097 158.177 55.3917 158.423C55.0437 158.111 54.7557 157.733 54.5457 157.313C52.6797 154.373 46.5897 143.453 46.2657 141.857C45.9537 140.375 45.7317 135.461 45.5937 133.967C45.4557 132.473 45.3477 131.021 45.3057 129.551C45.2757 128.813 45.2997 128.075 45.3897 127.337C45.4977 126.575 45.7017 125.831 46.0137 125.135Z" fill="#263238"/>
<path opacity="0.3" d="M46.0137 125.135C46.8117 123.377 48.8817 122.435 50.6397 123.233C51.4617 123.605 52.1157 124.445 52.4457 125.285L52.5177 125.471C52.9797 126.773 53.1597 128.159 53.0517 129.539C53.0217 130.901 52.9797 132.281 52.9977 133.595C53.0217 134.909 52.9977 139.667 53.0397 140.957C53.0817 142.151 55.4997 147.551 57.8337 155.345C57.8817 155.495 57.9417 155.639 58.0077 155.783L58.4397 156.641C58.4397 156.641 57.7977 157.049 57.1317 157.445C56.5977 157.847 56.0097 158.177 55.3917 158.423C55.0437 158.111 54.7557 157.733 54.5457 157.313C52.6797 154.373 46.5897 143.453 46.2657 141.857C45.9537 140.375 45.7317 135.461 45.5937 133.967C45.4557 132.473 45.3477 131.021 45.3057 129.551C45.2757 128.813 45.2997 128.075 45.3897 127.337C45.4977 126.575 45.7017 125.831 46.0137 125.135Z" fill="black"/>
<path d="M59.7835 165.576H45.0955C44.2135 165.576 43.4995 164.862 43.4995 163.98V152.862C43.4995 151.98 44.2135 151.266 45.0955 151.266H59.7895C60.6715 151.266 61.3855 151.98 61.3855 152.862V163.98C61.3795 164.862 60.6655 165.576 59.7835 165.576Z" fill="#263238"/>
<path opacity="0.3" d="M59.7835 165.576H45.0955C44.2135 165.576 43.4995 164.862 43.4995 163.98V152.862C43.4995 151.98 44.2135 151.266 45.0955 151.266H59.7895C60.6715 151.266 61.3855 151.98 61.3855 152.862V163.98C61.3795 164.862 60.6655 165.576 59.7835 165.576Z" fill="white"/>
<path d="M26.2197 131.358C27.1437 146.376 30.5337 152.682 30.0537 164.676C30.0537 164.676 49.2717 165.21 49.9317 165.21C50.2137 143.1 49.4037 144.744 51.2157 130.944C51.3357 126.372 50.4297 123.726 48.5517 123.27L39.9657 120.51L29.8557 124.356C27.7737 124.866 26.0337 128.394 26.2197 131.358Z" fill="#407BFF"/>
<path opacity="0.5" d="M26.2197 131.358C27.1437 146.376 30.5337 152.682 30.0537 164.676C30.0537 164.676 49.2717 165.21 49.9317 165.21C50.2137 143.1 49.4037 144.744 51.2157 130.944C51.3357 126.372 50.4297 123.726 48.5517 123.27L39.9657 120.51L29.8557 124.356C27.7737 124.866 26.0337 128.394 26.2197 131.358Z" fill="white"/>
<path d="M46.0673 126.078C46.6673 133.116 45.8573 140.214 43.6733 146.922L45.2693 164.748C45.5813 167.334 47.5493 169.62 48.9833 169.758L51.9233 169.518L51.1433 150.984C51.1373 150.936 51.1373 151.032 51.1433 150.984C51.3053 149.7 52.8833 131.832 52.3493 127.746C51.9833 124.944 51.0833 123.852 50.4473 123.288C50.1713 123.048 49.7393 122.988 49.3853 122.91C48.2633 122.67 44.8673 121.992 45.0173 122.052C45.0593 122.07 45.1853 122.31 45.2993 122.622C45.7373 123.804 45.9653 124.812 46.0673 126.078Z" fill="#263238"/>
<path d="M36.8635 171.011C41.6575 171.359 42.6655 169.091 43.3315 165.107C43.3315 165.107 44.5975 150.827 44.3515 147.665C44.3515 147.665 43.2715 141.647 41.7175 135.869C40.4815 130.433 37.4695 121.619 36.6115 121.685C34.9675 121.805 29.2795 123.017 27.7795 124.001C26.4595 125.867 28.1515 128.909 28.4635 131.225C29.4655 138.641 29.3935 140.477 29.7715 147.953C29.7715 147.953 23.8255 169.409 24.3175 169.475C24.6835 169.517 33.0355 170.729 36.8635 171.011Z" fill="#263238"/>
<path opacity="0.2" d="M30.8034 154.439H38.9874V154.805C38.9874 155.891 38.1114 156.767 37.0254 156.767H32.7594C31.6734 156.767 30.7974 155.891 30.7974 154.805V154.439H30.8034Z" fill="white"/>
<path opacity="0.2" d="M51.4198 157.355H50.1598C49.0738 157.397 48.1618 156.557 48.1138 155.471V155.111L51.3178 154.979L51.4198 157.355Z" fill="white"/>
<path d="M41.3095 102.533C40.7815 102.317 39.2875 102.341 38.7775 102.617C37.3855 103.217 36.5755 103.871 36.3415 105.587C36.1855 105.869 36.1015 106.181 36.0955 106.505C36.0775 106.835 36.2515 107.141 36.5395 107.273C37.0675 106.937 37.6615 106.745 38.2735 106.715C39.5095 106.631 40.7455 106.661 41.9695 106.811C44.2015 107.045 46.4515 107.111 48.6955 107.003C49.1395 106.985 49.6615 106.919 49.8895 106.517C50.1175 106.115 49.4215 105.173 49.6015 105.071C49.8895 104.903 50.2555 104.777 50.3455 104.453C50.3755 104.321 50.3755 104.183 50.3455 104.057C50.2855 103.583 50.0515 103.157 49.6855 102.869C49.2955 102.599 48.7615 102.707 48.4855 103.109C48.4975 102.971 48.5095 102.833 48.5215 102.695C48.5575 102.143 48.2755 101.621 47.8075 101.333C47.8075 101.333 47.8015 101.333 47.8015 101.327C47.2615 100.991 46.0915 100.979 45.5155 101.267C44.9455 101.555 44.4415 101.999 43.9855 102.461C43.1095 103.097 42.9235 102.929 41.3095 102.533Z" fill="#263238"/>
<path d="M38.5018 121.397C38.5018 121.397 38.7718 119.447 37.4938 114.665C37.4938 114.659 37.7458 114.557 37.7458 114.551C37.5718 113.885 37.3798 113.261 37.1998 112.727C37.1938 112.709 37.1938 112.709 37.1938 112.709L43.6138 116.861C43.4278 118.379 43.9138 121.325 44.2138 122.573L42.4618 125.387L38.5018 121.397Z" fill="#EEC1BB"/>
<path opacity="0.2" d="M43.686 118.997L39.96 118.079C40.278 119.249 41.28 120.653 43.878 120.815C43.878 120.815 43.644 119.507 43.686 118.997Z" fill="black"/>
<path d="M48.3418 105.719C49.0738 107.237 49.2778 110.555 46.8958 109.817C44.5138 109.073 47.0818 103.103 48.3418 105.719Z" fill="#263238"/>
<path d="M37.2114 109.547C37.5654 113.681 37.6794 116.015 39.8274 118.073C43.0554 121.163 48.0054 119.195 48.8934 115.031C49.6974 111.281 48.9834 105.155 44.8854 103.643C40.8474 102.149 36.8574 105.413 37.2114 109.547Z" fill="#EEC1BB"/>
<path d="M43.1636 110.597C43.1756 111.023 43.4036 111.359 43.6856 111.347C43.9616 111.335 44.1776 110.987 44.1716 110.561C44.1596 110.135 43.9316 109.799 43.6496 109.811C43.3676 109.823 43.1516 110.177 43.1636 110.597Z" fill="#263238"/>
<path d="M47.3156 110.579C47.3276 111.005 47.5556 111.341 47.8376 111.329C48.1136 111.317 48.3296 110.969 48.3236 110.543C48.3116 110.117 48.0836 109.781 47.8016 109.793C47.5256 109.805 47.3096 110.159 47.3156 110.579Z" fill="#263238"/>
<path d="M45.9595 110.381C45.9595 110.381 47.3515 112.451 47.8015 113.297C47.2255 113.843 46.2055 113.621 46.2055 113.621L45.9595 110.381Z" fill="#DF8A8A"/>
<path d="M42.1916 108.305C42.2576 108.323 42.3356 108.305 42.3836 108.257C43.0196 107.639 43.7336 107.783 43.7396 107.789C43.8476 107.813 43.9556 107.747 43.9796 107.639C44.0036 107.531 43.9376 107.429 43.8296 107.405C43.7936 107.399 42.8936 107.213 42.1076 107.981C42.0296 108.059 42.0296 108.185 42.1016 108.263C42.1316 108.281 42.1616 108.293 42.1916 108.305Z" fill="#263238"/>
<path d="M49.1277 108.714C49.1637 108.702 49.1997 108.684 49.2237 108.654C49.2957 108.57 49.2837 108.444 49.1997 108.372C48.3657 107.664 47.4957 107.922 47.4537 107.928C47.3517 107.958 47.2917 108.072 47.3217 108.174C47.3517 108.276 47.4597 108.336 47.5677 108.306C47.6037 108.294 48.2817 108.102 48.9477 108.672C48.9957 108.72 49.0617 108.732 49.1277 108.714Z" fill="#263238"/>
<path d="M44.9396 116.358C44.8976 116.346 44.9516 116.364 44.9396 116.358V116.358Z" fill="#263238"/>
<path d="M45.6174 114.774C44.9574 114.546 43.7394 114.078 43.1634 113.436C43.1634 113.436 43.0554 113.616 42.9834 113.892C42.9234 114.126 42.8874 114.426 42.9594 114.744C43.0914 115.32 43.5774 115.944 44.9154 116.352C44.9334 116.358 44.9394 116.358 44.9394 116.364C44.9454 116.364 44.9454 116.364 44.9514 116.37C44.9514 116.37 45.6714 116.574 46.0734 114.924C46.0734 114.918 45.8934 114.87 45.6174 114.774Z" fill="#263238"/>
<path d="M45.6174 114.774L45.3534 115.212C44.0994 114.828 43.2654 114.39 42.9834 113.892C43.0494 113.616 43.1634 113.436 43.1634 113.436C43.7454 114.078 44.9574 114.546 45.6174 114.774Z" fill="white"/>
<path d="M44.9096 116.351C43.5776 115.949 43.0916 115.319 42.9536 114.743C43.4036 114.899 43.9256 115.133 44.3456 115.487C44.6696 115.751 44.8316 116.057 44.9096 116.351Z" fill="#DC5753"/>
<path d="M48.1495 105.161C47.5315 104.597 46.7635 104.219 45.9895 103.901C44.7055 103.367 43.3555 102.959 41.9695 102.833C40.5835 102.707 39.1555 102.875 37.8835 103.445C37.6075 103.571 37.3315 103.721 37.1335 103.949C36.9475 104.171 36.6055 104.519 36.5155 104.789C35.9635 106.457 35.5495 107.687 36.0355 111.083L39.3475 113.435C39.7075 113.249 40.0495 113.057 40.2535 112.703C40.4395 112.373 39.9775 111.257 39.9535 110.879C39.9295 110.489 39.7015 109.979 39.6355 109.589C40.0015 109.781 40.1515 109.655 40.3615 109.301C40.6735 108.773 40.6735 108.119 40.6435 107.507C41.1115 107.615 41.6455 107.489 41.9575 107.129C42.2755 106.769 42.3175 106.175 42.0055 105.809C43.5235 106.049 45.0835 105.989 46.5775 105.629C46.4695 105.815 46.5835 106.049 46.7095 106.223C47.2255 106.925 48.0115 107.429 48.8635 107.609C48.9895 107.633 49.1455 107.645 49.2175 107.537C49.2535 107.483 49.2595 107.405 49.2535 107.339C49.2295 106.505 48.7675 105.731 48.1495 105.161Z" fill="#263238"/>
<path d="M35.6576 113.033C36.0116 114.089 36.8276 114.881 37.6556 115.265C38.9036 115.847 39.7676 114.779 39.6176 113.483C39.4856 112.313 38.6756 110.597 37.3256 110.561C35.9996 110.525 35.2496 111.827 35.6576 113.033Z" fill="#EEC1BB"/>
<path opacity="0.2" d="M36.5757 111.87C36.7377 111.618 37.0737 111.522 37.3677 111.582C37.6617 111.648 37.9017 111.846 38.0877 112.086C38.3037 112.368 38.4477 112.71 38.4957 113.064" stroke="black" stroke-width="0.5" stroke-miterlimit="10" stroke-linecap="round" stroke-linejoin="round"/>
<path opacity="0.3" d="M29.8253 126.054C29.8253 126.054 27.5333 127.71 27.1013 132.804C26.6093 138.588 25.4873 152.466 25.4873 153.324C25.4873 154.182 32.3153 172.2 32.3153 172.2L38.1413 169.488L33.1853 151.536C33.1853 151.536 33.4073 133.248 32.8793 130.776C32.4953 128.97 29.8253 126.054 29.8253 126.054Z" fill="black"/>
<path d="M31.7458 168.557C31.5478 168.917 31.7038 172.355 31.8898 173.207C32.0698 174.059 32.3638 174.455 32.7898 174.419C33.2158 174.383 33.6778 174.311 33.7498 174.239C33.8218 174.167 34.0078 175.055 34.7098 174.941C35.4118 174.827 35.5918 174.557 35.5918 174.557C35.5918 174.557 36.2458 175.505 37.0318 175.205C37.8178 174.911 37.8178 174.413 37.9498 174.365C38.0818 174.317 37.7038 172.871 37.7038 172.871L38.0278 172.955C38.6818 173.123 39.2998 172.535 39.1318 171.875C39.1318 171.869 39.1258 171.857 39.1258 171.851C38.9038 170.999 37.3978 169.391 37.3978 169.391L35.7598 168.215L34.3678 165.659C34.3678 165.659 31.5298 167.627 31.5658 167.699C31.5958 167.777 31.7458 168.557 31.7458 168.557Z" fill="#EEC1BB"/>
<path d="M27.7735 124.001C27.7735 124.001 25.4815 125.657 25.0495 130.751C24.5575 136.535 23.4355 150.413 23.4355 151.271C23.4355 152.129 30.2635 170.147 30.2635 170.147L36.0895 167.435L31.1335 149.483C31.1335 149.483 32.7475 130.847 33.1075 129.035C33.4735 127.223 27.7735 124.001 27.7735 124.001Z" fill="#263238"/>
<path opacity="0.3" d="M26.4953 160.062L30.9113 170.364L29.2553 170.148L26.0693 161.784L26.4953 160.062Z" fill="black"/>
<path opacity="0.3" d="M42.3773 138.461C42.1673 137.603 41.9453 136.733 41.7113 135.863C41.2313 133.763 40.4933 131.165 39.7133 128.765C39.3233 127.619 38.8253 126.179 38.3393 124.883C37.5893 122.963 36.9353 121.655 36.6053 121.679C36.4673 121.691 36.2873 121.709 36.0893 121.733C36.0833 121.763 35.1413 128.003 36.3773 128.699C37.6133 129.395 38.5193 129.935 38.5193 129.935C38.5193 129.935 37.6733 131.927 37.6733 132.803C37.6793 133.547 41.2493 137.297 42.3773 138.461Z" fill="black"/>
<path opacity="0.3" d="M45.7496 138.461C45.7496 138.461 47.9636 133.397 48.3476 132.035C48.7316 130.673 47.0516 129.569 47.0516 129.569C47.0516 129.569 47.6276 128.465 47.8376 127.697C48.0476 126.929 46.5356 121.949 44.9336 122.039C44.9336 122.039 45.3416 122.759 45.6596 123.995C45.9596 125.159 46.1636 126.791 46.1876 128.549C46.2056 129.983 46.2656 131.879 46.1816 133.595C46.0496 136.211 45.7496 138.461 45.7496 138.461Z" fill="black"/>
<defs>
<linearGradient id="paint0_linear_6134_15997" x1="38.936" y1="187.122" x2="278.006" y2="187.122" gradientUnits="userSpaceOnUse">
<stop stop-color="#6CBCED"/>
<stop offset="1" stop-color="#6CBCED" stop-opacity="0"/>
</linearGradient>
<linearGradient id="paint1_linear_6134_15997" x1="133.634" y1="97.3575" x2="161.054" y2="97.3575" gradientUnits="userSpaceOnUse">
<stop stop-color="#6CBCED"/>
<stop offset="1" stop-color="#6CBCED" stop-opacity="0"/>
</linearGradient>
</defs>
</svg>
