<svg width="300" height="301" viewBox="0 0 300 301" fill="none" xmlns="http://www.w3.org/2000/svg">
<path d="M280.584 285.516H19.416V286.806H280.584V285.516Z" fill="#193B59"/>
<path d="M190.506 121.128C190.644 120.552 191.442 118.986 189.438 117.162C188.436 116.25 187.104 113.094 186.882 112.728C186.174 111.546 186.024 109.464 185.856 109.008C185.784 108.804 186.672 108.084 187.71 108.978C188.118 109.332 188.43 109.95 188.76 111.132C188.934 111.75 189.912 113.184 190.392 113.118C191.004 113.034 191.364 112.704 191.436 111.87C191.616 109.74 188.94 102.75 189.216 102.132C189.444 101.628 190.626 101.112 191.124 102.294C191.436 103.032 192.318 105.78 192.822 105.702C193.122 105.654 193.026 103.002 192.918 100.548C192.846 99.0297 194.586 99.2937 194.718 100.002C195.012 101.556 195.246 102.894 195.462 103.056C195.63 103.182 195.78 101.958 195.876 101.634C196.164 100.692 197.472 100.866 197.628 101.7C197.682 101.97 198.066 106.272 198.576 106.302C198.918 106.32 198.888 104.928 198.936 104.784C199.254 103.782 200.664 103.944 200.64 105.192C200.616 106.278 200.556 110.988 200.472 112.158C200.358 113.694 200.328 116.7 198.846 123.354L190.506 121.128Z" fill="#E7B7B7"/>
<path d="M198.84 123.36C197.31 130.53 196.128 157.17 191.274 158.994C186.294 160.866 175.062 153.222 175.062 153.222L180.396 140.154L184.608 143.418C186.06 135.696 190.506 121.134 190.506 121.134L198.84 123.36Z" fill="#E7B7B7"/>
<path d="M184.608 143.418C183.972 147.864 184.608 151.008 184.608 151.008" stroke="#00145B" stroke-miterlimit="10" stroke-linecap="round" stroke-linejoin="round"/>
<path d="M192.876 112.686C195.66 113.592 196.782 116.586 196.782 116.586" stroke="#7A1F0C" stroke-width="0.5" stroke-miterlimit="10" stroke-linecap="round" stroke-linejoin="round"/>
<path d="M192.822 105.695C193.182 106.847 193.584 108.989 193.584 108.989" stroke="#7A1F0C" stroke-width="0.5" stroke-miterlimit="10" stroke-linecap="round" stroke-linejoin="round"/>
<path d="M195.462 103.056C195.828 105.696 195.984 108.99 195.984 108.99" stroke="#7A1F0C" stroke-width="0.5" stroke-miterlimit="10" stroke-linecap="round" stroke-linejoin="round"/>
<path d="M198.582 106.302C198.618 107.058 198.582 109.344 198.582 109.344" stroke="#7A1F0C" stroke-width="0.5" stroke-miterlimit="10" stroke-linecap="round" stroke-linejoin="round"/>
<path d="M105.894 121.128C105.756 120.552 104.958 118.986 106.962 117.162C107.964 116.25 109.296 113.094 109.518 112.728C110.226 111.546 110.376 109.464 110.544 109.008C110.616 108.804 109.728 108.084 108.69 108.978C108.282 109.332 107.97 109.95 107.64 111.132C107.466 111.75 106.488 113.184 106.008 113.118C105.396 113.034 105.036 112.704 104.964 111.87C104.784 109.74 107.46 102.75 107.184 102.132C106.956 101.628 105.774 101.112 105.276 102.294C104.964 103.032 104.082 105.78 103.578 105.702C103.278 105.654 103.374 103.002 103.482 100.548C103.554 99.0297 101.814 99.2937 101.682 100.002C101.388 101.556 101.154 102.894 100.938 103.056C100.77 103.182 100.62 101.958 100.524 101.634C100.236 100.692 98.9281 100.866 98.7721 101.7C98.7181 101.97 98.3341 106.272 97.8241 106.302C97.4821 106.32 97.5121 104.928 97.4641 104.784C97.1461 103.782 95.7361 103.944 95.7601 105.192C95.7841 106.278 95.8441 110.988 95.9281 112.158C96.0421 113.694 96.0721 116.7 97.5541 123.354L105.894 121.128Z" fill="#E7B7B7"/>
<path d="M97.5601 123.36C99.0901 130.53 100.272 157.17 105.126 158.994C110.106 160.866 121.338 153.222 121.338 153.222L116.004 140.154L111.792 143.418C110.34 135.696 105.894 121.134 105.894 121.134L97.5601 123.36Z" fill="#E7B7B7"/>
<path d="M111.792 143.418C112.428 147.864 111.792 151.008 111.792 151.008" stroke="#00145B" stroke-miterlimit="10" stroke-linecap="round" stroke-linejoin="round"/>
<path d="M103.524 112.686C100.74 113.592 99.6182 116.586 99.6182 116.586" stroke="#7A1F0C" stroke-width="0.5" stroke-miterlimit="10" stroke-linecap="round" stroke-linejoin="round"/>
<path d="M103.578 105.695C103.218 106.847 102.816 108.989 102.816 108.989" stroke="#7A1F0C" stroke-width="0.5" stroke-miterlimit="10" stroke-linecap="round" stroke-linejoin="round"/>
<path d="M100.938 103.056C100.572 105.696 100.416 108.99 100.416 108.99" stroke="#7A1F0C" stroke-width="0.5" stroke-miterlimit="10" stroke-linecap="round" stroke-linejoin="round"/>
<path d="M97.8241 106.302C97.7881 107.058 97.8241 109.344 97.8241 109.344" stroke="#7A1F0C" stroke-width="0.5" stroke-miterlimit="10" stroke-linecap="round" stroke-linejoin="round"/>
<path d="M172.92 256.361L172.452 275.483C172.452 275.483 168.024 276.311 160.086 275.261L159.006 255.605L172.92 256.361Z" fill="#E7B7B7"/>
<path d="M159.69 283.938H191.79C191.79 283.938 192.27 278.25 186.396 277.374C180.114 276.444 173.964 275.976 173.502 275.052C173.04 274.128 173.766 272.586 173.106 271.632C172.638 270.954 171.318 270.408 170.874 271.206C170.04 272.688 170.952 274.242 169.752 274.596C166.398 275.58 161.928 274.794 161.136 273.804C160.344 272.82 158.502 274.218 159.426 276.516C160.464 279.114 158.97 281.73 159.69 283.938Z" fill="#002680"/>
<path d="M159.69 283.938H191.79C191.79 283.938 192.27 278.25 186.396 277.374C180.114 276.444 173.964 275.976 173.502 275.052C173.04 274.128 173.766 272.586 173.106 271.632C172.638 270.954 171.318 270.408 170.874 271.206C170.04 272.688 170.952 274.242 169.752 274.596C166.398 275.58 161.928 274.794 161.136 273.804C160.344 272.82 158.502 274.218 159.426 276.516C160.464 279.114 158.97 281.73 159.69 283.938Z" fill="url(#paint0_linear_6134_15653)"/>
<path d="M191.802 283.938H159.69V285.516H191.802V283.938Z" fill="#193B59"/>
<path d="M173.058 277.38C173.406 278.178 177.18 278.49 179.736 278.652C181.566 278.772 182.616 276.858 182.616 276.858C177.846 276.24 173.88 275.79 173.508 275.058C173.508 275.058 172.704 276.576 173.058 277.38Z" fill="#193B59"/>
<path d="M168.948 281.627C166.98 280.139 164.94 278.609 159.798 278.369C159.804 278.585 159.804 278.801 159.798 279.017C164.724 279.251 166.674 280.721 168.558 282.143C169.416 282.791 170.256 283.427 171.33 283.937H173.22C171.324 283.421 170.154 282.545 168.948 281.627Z" fill="#193B59"/>
<path d="M186.456 277.385C186.438 277.385 186.42 277.379 186.402 277.373C186.21 277.343 186.012 277.319 185.82 277.289C185.304 280.307 179.55 281.663 179.49 281.675L179.634 282.305C179.898 282.245 185.886 280.841 186.456 277.385Z" fill="#193B59"/>
<path d="M126.678 256.361L126.3 275.483C126.3 275.483 130.728 276.311 138.666 275.261L140.592 255.605L126.678 256.361Z" fill="#E7B7B7"/>
<path d="M139.056 283.938H106.956C106.956 283.938 106.476 278.25 112.35 277.374C118.632 276.444 124.782 275.976 125.244 275.052C125.706 274.128 124.98 272.586 125.64 271.632C126.108 270.954 127.428 270.408 127.872 271.206C128.706 272.688 127.794 274.242 128.994 274.596C132.348 275.58 136.818 274.794 137.61 273.804C138.402 272.82 140.244 274.218 139.32 276.516C138.288 279.114 139.782 281.73 139.056 283.938Z" fill="#002680"/>
<path d="M139.056 283.938H106.956C106.956 283.938 106.476 278.25 112.35 277.374C118.632 276.444 124.782 275.976 125.244 275.052C125.706 274.128 124.98 272.586 125.64 271.632C126.108 270.954 127.428 270.408 127.872 271.206C128.706 272.688 127.794 274.242 128.994 274.596C132.348 275.58 136.818 274.794 137.61 273.804C138.402 272.82 140.244 274.218 139.32 276.516C138.288 279.114 139.782 281.73 139.056 283.938Z" fill="url(#paint1_linear_6134_15653)"/>
<path d="M106.95 285.52L139.062 285.52L139.062 283.942L106.95 283.942L106.95 285.52Z" fill="#193B59"/>
<path d="M125.694 277.38C125.346 278.178 121.572 278.49 119.016 278.652C117.186 278.772 116.136 276.858 116.136 276.858C120.906 276.24 124.872 275.79 125.244 275.058C125.244 275.058 126.042 276.576 125.694 277.38Z" fill="#193B59"/>
<path d="M129.804 281.627C131.772 280.139 133.812 278.609 138.954 278.369C138.948 278.585 138.948 278.801 138.954 279.017C134.028 279.251 132.078 280.721 130.194 282.143C129.336 282.791 128.496 283.427 127.422 283.937H125.532C127.428 283.421 128.592 282.545 129.804 281.627Z" fill="#193B59"/>
<path d="M112.296 277.385C112.314 277.385 112.332 277.379 112.35 277.373C112.542 277.343 112.74 277.319 112.932 277.289C113.448 280.307 119.202 281.663 119.262 281.675L119.118 282.305C118.854 282.245 112.86 280.841 112.296 277.385Z" fill="#193B59"/>
<path d="M123.768 265.698C123.768 265.698 133.092 267.24 141.93 266.028C141.93 266.028 143.22 235.212 143.382 229.866C143.646 221.01 148.206 201.852 148.206 201.852C148.206 201.852 152.982 220.212 154.53 228.936C155.946 236.916 157.758 266.742 157.758 266.742C165.966 268.236 175.41 266.742 175.41 266.742C175.41 266.742 172.314 232.512 171.846 222.822C171.39 213.498 168.786 183.762 168.786 183.762H127.632C127.632 183.762 124.206 216.144 124.206 226.56C124.2 238.788 123.768 265.698 123.768 265.698Z" fill="#002680"/>
<path d="M123.768 265.698C123.768 265.698 133.092 267.24 141.93 266.028C141.93 266.028 143.22 235.212 143.382 229.866C143.646 221.01 148.206 201.852 148.206 201.852C148.206 201.852 152.982 220.212 154.53 228.936C155.946 236.916 157.758 266.742 157.758 266.742C165.966 268.236 175.41 266.742 175.41 266.742C175.41 266.742 172.314 232.512 171.846 222.822C171.39 213.498 168.786 183.762 168.786 183.762H127.632C127.632 183.762 124.206 216.144 124.206 226.56C124.2 238.788 123.768 265.698 123.768 265.698Z" fill="url(#paint2_linear_6134_15653)"/>
<path d="M145.926 201.846C142.596 210.186 139.182 224.334 138.84 228.072C138.498 231.804 137.124 262.194 137.124 262.194" stroke="#193B59" stroke-miterlimit="10" stroke-linecap="round" stroke-linejoin="round"/>
<path d="M148.248 184.17V201.846" stroke="#193B59" stroke-miterlimit="10" stroke-linecap="round" stroke-linejoin="round"/>
<path d="M148.248 196.2C148.248 196.2 151.998 194.412 151.644 185.508" stroke="#193B59" stroke-miterlimit="10" stroke-linecap="round" stroke-linejoin="round"/>
<path d="M159.786 262.188C159.786 262.188 157.722 232.638 156.648 226.962C155.544 221.148 150.366 201.84 150.366 201.84" stroke="#193B59" stroke-miterlimit="10" stroke-linecap="round" stroke-linejoin="round"/>
<path d="M163.014 185.508C163.95 189.456 167.766 193.014 167.766 193.014" stroke="#193B59" stroke-miterlimit="10" stroke-linecap="round" stroke-linejoin="round"/>
<path d="M131.946 185.04C131.352 188.946 128.124 193.008 128.124 193.008" stroke="#193B59" stroke-miterlimit="10" stroke-linecap="round" stroke-linejoin="round"/>
<path d="M162.27 127.068H134.22V184.662C143.364 187.338 162.264 185.298 162.264 185.298V127.068H162.27Z" fill="#FAFAFF"/>
<path d="M155.742 127.068C156.09 131.148 153.72 134.934 148.206 134.934C140.598 134.934 140.598 127.068 140.598 127.068H155.742Z" fill="#E7B7B7"/>
<path d="M145.404 137.052C147.438 144.306 144.51 188.616 144.51 188.616C133.05 189.102 126.36 186.03 126.36 186.03L129.108 149.532L119.526 155.994C115.74 154.494 113.346 141.282 113.346 141.282C113.346 141.282 129.03 127.074 134.226 127.074H142.152C135.726 131.622 145.404 137.052 145.404 137.052Z" fill="#002680"/>
<path d="M151.086 137.052C149.046 144.306 151.98 188.616 151.98 188.616C163.44 189.102 170.13 186.03 170.13 186.03L167.382 149.532L176.964 155.994C180.75 154.494 183.144 141.282 183.144 141.282C183.144 141.282 167.46 127.074 162.264 127.074H154.338C160.764 131.622 151.086 137.052 151.086 137.052Z" fill="#002680"/>
<path d="M142.146 127.068L142.428 124.164C142.428 124.164 139.668 125.364 138.438 127.068C137.208 128.772 138.438 139.68 138.438 139.68C138.438 139.68 140.772 136.242 141.534 136.158C142.296 136.074 145.398 137.052 145.398 137.052C145.398 137.052 139.746 130.374 142.146 127.068Z" fill="#002680"/>
<path d="M142.146 127.068L142.428 124.164C142.428 124.164 139.668 125.364 138.438 127.068C137.208 128.772 138.438 139.68 138.438 139.68C138.438 139.68 140.772 136.242 141.534 136.158C142.296 136.074 145.398 137.052 145.398 137.052C145.398 137.052 139.746 130.374 142.146 127.068Z" fill="url(#paint3_linear_6134_15653)"/>
<path d="M154.344 127.068L154.14 124.164C154.14 124.164 156.822 125.364 158.052 127.068C159.282 128.772 158.052 139.68 158.052 139.68C158.052 139.68 155.718 136.242 154.956 136.158C154.194 136.074 151.092 137.052 151.092 137.052C151.092 137.052 156.744 130.374 154.344 127.068Z" fill="#002680"/>
<path d="M154.344 127.068L154.14 124.164C154.14 124.164 156.822 125.364 158.052 127.068C159.282 128.772 158.052 139.68 158.052 139.68C158.052 139.68 155.718 136.242 154.956 136.158C154.194 136.074 151.092 137.052 151.092 137.052C151.092 137.052 156.744 130.374 154.344 127.068Z" fill="url(#paint4_linear_6134_15653)"/>
<path d="M167.382 149.526C166.758 147.21 166.128 140.208 166.128 140.208" stroke="#00145B" stroke-miterlimit="10" stroke-linecap="round" stroke-linejoin="round"/>
<path d="M129.108 149.526C129.426 146.418 130.188 139.356 130.188 139.356" stroke="#00145B" stroke-miterlimit="10" stroke-linecap="round" stroke-linejoin="round"/>
<path d="M134.664 106.506C135.762 110.19 137.124 111.27 139.908 112.41L153.042 117.912C156.918 113.718 157.692 111.774 157.692 106.08C160.164 101.112 156.918 93.1558 151.8 94.6798C147.336 87.5578 127.344 97.1398 134.664 106.506Z" fill="#193B59"/>
<path d="M141.972 128.826C142.368 129.87 144.828 132.636 147.852 132.636C152.256 132.636 154.428 128.988 154.428 127.494L152.82 109.302L143.442 111.198C143.574 112.572 142.386 124.776 141.972 128.826Z" fill="#E7B7B7"/>
<path d="M143.046 117.498L150.642 116.766C150.642 116.766 150.282 122.85 142.488 123.636L143.046 117.498Z" fill="#7A1F0C"/>
<path d="M136.944 102.917C135.126 105.809 136.356 107.375 136.356 110.249C136.356 113.333 135.174 117.713 137.646 119.993C140.208 122.357 146.136 122.471 150.198 117.353C154.296 112.187 153.366 103.559 148.908 101.333C145.098 99.4255 139.458 98.9155 136.944 102.917Z" fill="#E7B7B7"/>
<path d="M135.168 106.505C138.45 106.961 140.448 102.767 143.988 101.927C144.192 104.123 145.992 105.749 147.87 105.941C151.104 107.495 150.576 111.617 151.692 111.617C152.34 111.617 152.286 108.851 152.844 107.957C155.154 104.279 153.78 100.457 149.784 98.6814C145.788 96.9114 140.808 96.3414 138.018 98.6814C135.222 101.033 135.168 106.505 135.168 106.505Z" fill="#193B59"/>
<path d="M139.458 114.696C138.048 114.696 137.766 114.414 137.544 114.042C137.406 113.808 137.532 113.358 137.832 112.362C138.036 111.678 138.27 110.898 138.39 110.184C138.408 110.094 138.486 110.034 138.582 110.052C138.672 110.07 138.732 110.154 138.714 110.244C138.588 110.976 138.342 111.798 138.144 112.458C137.976 113.016 137.772 113.718 137.814 113.85C137.964 114.102 138.12 114.366 139.458 114.366C139.548 114.366 139.626 114.438 139.626 114.528C139.62 114.624 139.548 114.696 139.458 114.696Z" fill="#7A1F0C"/>
<path d="M148.716 111.024C149.178 111.888 148.932 112.914 148.164 113.322C147.402 113.73 146.412 113.358 145.95 112.494C145.488 111.63 145.734 110.604 146.502 110.196C147.264 109.794 148.254 110.16 148.716 111.024Z" fill="#E3A2A2"/>
<path d="M142.218 108.834C142.218 109.434 141.93 109.92 141.582 109.92C141.228 109.92 140.946 109.434 140.946 108.834C140.946 108.234 141.234 107.748 141.582 107.748C141.93 107.748 142.218 108.234 142.218 108.834Z" fill="#193B59"/>
<path d="M140.448 106.854C140.58 107.304 141.72 106.488 142.386 106.554C143.52 106.668 143.568 107.238 143.982 107.136C144.042 106.614 143.31 105.948 142.326 105.882C140.868 105.78 140.448 106.854 140.448 106.854Z" fill="#193B59"/>
<path d="M137.466 109.301C137.466 109.799 137.232 110.201 136.938 110.201C136.644 110.201 136.41 109.799 136.41 109.301C136.41 108.803 136.644 108.401 136.938 108.401C137.226 108.401 137.466 108.803 137.466 109.301Z" fill="#193B59"/>
<path d="M137.724 107.495C137.724 107.849 136.764 107.489 136.35 107.669C135.654 107.969 135.636 108.527 135.444 108.443C135.294 108.107 135.552 107.435 136.194 107.183C137.136 106.805 137.724 107.495 137.724 107.495Z" fill="#193B59"/>
<path d="M142.962 115.044C141.582 116.328 139.806 116.76 139.806 116.76C139.806 116.76 141.072 117.558 142.218 117.36C143.358 117.168 142.962 115.044 142.962 115.044Z" fill="#FAFAFF"/>
<path d="M147.732 111.78H138.846C137.394 111.78 136.218 110.604 136.218 109.152V107.34C136.218 105.888 137.394 104.712 138.846 104.712H147.732C149.184 104.712 150.36 105.888 150.36 107.34V109.152C150.366 110.604 149.184 111.78 147.732 111.78Z" fill="#FAFAFF"/>
<path d="M144.906 111.78H136.02C134.568 111.78 133.392 110.604 133.392 109.152V107.34C133.392 105.888 134.568 104.712 136.02 104.712H144.906C146.358 104.712 147.534 105.888 147.534 107.34V109.152C147.534 110.604 146.358 111.78 144.906 111.78Z" fill="#00145B"/>
<path d="M134.094 109.098V107.382C134.094 106.29 134.976 105.408 136.068 105.408H144.852C145.944 105.408 146.826 106.29 146.826 107.382V109.098C146.826 110.19 145.944 111.072 144.852 111.072H136.068C134.976 111.072 134.094 110.19 134.094 109.098Z" fill="#FAFAFF"/>
<path d="M157.314 108.834H148.944V106.512H157.314C157.68 106.512 157.974 106.806 157.974 107.172V108.18C157.974 108.54 157.68 108.834 157.314 108.834Z" fill="#00145B"/>
<mask id="mask0_6134_15653" style="mask-type:luminance" maskUnits="userSpaceOnUse" x="134" y="105" width="13" height="7">
<path d="M134.094 109.098V107.382C134.094 106.29 134.976 105.408 136.068 105.408H144.852C145.944 105.408 146.826 106.29 146.826 107.382V109.098C146.826 110.19 145.944 111.072 144.852 111.072H136.068C134.976 111.072 134.094 110.19 134.094 109.098Z" fill="white"/>
</mask>
<g mask="url(#mask0_6134_15653)">
<g opacity="0.35">
<path d="M141.974 101.607L140.966 101.025L134.09 112.935L135.098 113.517L141.974 101.607Z" fill="#96C1FA"/>
<path d="M146.255 104.257L144.359 103.162L137.483 115.071L139.379 116.166L146.255 104.257Z" fill="#96C1FA"/>
</g>
</g>
<path d="M141.522 108.6H139.398C139.2 108.6 139.044 108.444 139.044 108.246C139.044 108.048 139.2 107.892 139.398 107.892H141.522C141.72 107.892 141.876 108.048 141.876 108.246C141.876 108.438 141.72 108.6 141.522 108.6Z" fill="#00145B"/>
<path d="M152.844 107.964C153.984 106.488 156.27 106.932 156.81 108.78C157.182 110.052 156.816 113.652 153.192 113.412C153.186 113.406 152.01 109.044 152.844 107.964Z" fill="#E7B7B7"/>
<path d="M153.336 111.396C153.354 111.396 153.366 111.396 153.384 111.39C153.492 111.366 153.552 111.258 153.528 111.15C153.294 110.196 153.546 109.182 154.11 108.792C154.44 108.564 154.824 108.594 155.238 108.87C155.328 108.93 155.448 108.906 155.514 108.816C155.574 108.726 155.55 108.606 155.46 108.54C154.914 108.168 154.356 108.138 153.888 108.462C153.186 108.948 152.874 110.118 153.15 111.24C153.168 111.336 153.246 111.396 153.336 111.396Z" fill="#7A1F0C"/>
<path d="M72.0777 133.41H64.2957L61.4517 100.872H69.2337L72.0777 133.41Z" fill="#002680"/>
<path d="M87.4138 133.41H79.6318L77.7778 112.188H85.5538L87.4138 133.41Z" fill="#002680"/>
<path d="M101.334 133.41H93.5515L92.5615 122.088H100.344L101.334 133.41Z" fill="#002680"/>
<path d="M72.0779 133.41H64.2959L62.7959 116.208H70.5719L72.0779 133.41Z" fill="#9973D1"/>
<path d="M87.4137 133.41H79.6317L79.1396 127.752H86.9157L87.4137 133.41Z" fill="#9973D1"/>
<path d="M101.334 133.41H93.5518L92.8198 125.034H100.602L101.334 133.41Z" fill="#9973D1"/>
<path d="M53.7358 98.04L56.8258 133.41H113.412" stroke="#9973D1" stroke-miterlimit="10"/>
<path d="M117.09 110.772C116.952 109.212 115.578 107.94 114.012 107.94C112.452 107.94 111.294 109.206 111.432 110.772C111.57 112.338 112.944 113.604 114.51 113.604C116.076 113.604 117.228 112.338 117.09 110.772Z" fill="#96C1FA"/>
<path d="M117.245 122.492C118.278 121.412 118.16 119.621 116.979 118.491C115.799 117.362 114.005 117.321 112.971 118.401C111.938 119.48 112.057 121.271 113.237 122.401C114.417 123.531 116.212 123.571 117.245 122.492Z" fill="#96C1FA"/>
<path d="M116.244 101.106C116.382 102.666 115.224 103.938 113.664 103.938C112.104 103.938 110.724 102.672 110.586 101.106C110.448 99.5464 111.606 98.2744 113.166 98.2744C114.726 98.2744 116.106 99.5404 116.244 101.106Z" fill="#96C1FA"/>
<path opacity="0.6" d="M121.05 139.776H55.5058C54.1678 139.776 53.0518 138.75 52.9318 137.418L48.3118 84.5824C48.1798 83.0764 49.3678 81.7744 50.8858 81.7744H116.43C117.768 81.7744 118.884 82.8004 119.004 84.1324L123.624 136.968C123.756 138.474 122.568 139.776 121.05 139.776Z" fill="#96C1FA"/>
<path d="M114.06 62.8144H105.576L105.51 62.1064H114L114.06 62.8144Z" fill="#002680"/>
<path d="M109.242 64.3086H105.708L105.642 63.6006H109.182L109.242 64.3086Z" fill="#002680"/>
<path d="M114.324 65.8027H105.834L105.774 65.0947H114.264L114.324 65.8027Z" fill="#002680"/>
<path opacity="0.6" d="M95.6096 75.3841H115.422C116.934 75.3841 118.128 74.0881 117.996 72.5761L117 61.2721C116.886 59.9401 115.764 58.9141 114.426 58.9141H94.6196C93.1076 58.9141 91.9136 60.2101 92.0456 61.7221L93.0356 73.0261C93.1556 74.3581 94.2716 75.3841 95.6096 75.3841Z" fill="#96C1FA"/>
<path d="M102.762 70.4992C102.924 72.3412 101.382 72.8152 99.4256 72.8152C97.4696 72.8152 95.8496 72.3412 95.6876 70.4992C95.5256 68.6572 96.9776 67.1572 98.9336 67.1572C100.89 67.1572 102.606 68.6572 102.762 70.4992Z" fill="#FAFAFF"/>
<path d="M100.614 63.5996C100.512 62.4296 99.4796 61.4756 98.3036 61.4756C97.1276 61.4756 96.2636 62.4236 96.3656 63.5996C96.4676 64.7696 97.4996 65.7236 98.6756 65.7236C99.8516 65.7236 100.716 64.7696 100.614 63.5996Z" fill="#FAFAFF"/>
<path d="M196.122 106.398H184.806L185.796 95.082H197.112L196.122 106.398Z" fill="#002680"/>
<path d="M226.152 113.483H184.422L184.674 110.651H226.404L226.152 113.483Z" fill="#96C1FA"/>
<path d="M215.754 119.142H183.93L184.176 116.31H216.006L215.754 119.142Z" fill="#96C1FA"/>
<path d="M220.212 124.8H183.432L183.684 121.968H220.458L220.212 124.8Z" fill="#96C1FA"/>
<path d="M216.942 113.483H184.422L184.674 110.651H217.188L216.942 113.483Z" fill="#96C1FA"/>
<path d="M208.728 119.142H183.93L184.176 116.31H208.974L208.728 119.142Z" fill="#96C1FA"/>
<path d="M212.094 124.8H183.432L183.684 121.968H212.34L212.094 124.8Z" fill="#96C1FA"/>
<path d="M224.183 96.498H205.793L205.919 95.082H224.309L224.183 96.498Z" fill="#002680"/>
<path d="M220.326 100.158H205.476L205.596 98.748H220.452L220.326 100.158Z" fill="#002680"/>
<path d="M216.467 103.824H205.151L205.277 102.408H216.593L216.467 103.824Z" fill="#002680"/>
<path opacity="0.6" d="M230.358 128.088H180.372C178.86 128.088 177.666 126.792 177.798 125.28L180.69 92.2496C180.804 90.9176 181.926 89.8916 183.264 89.8916H233.25C234.762 89.8916 235.956 91.1876 235.824 92.6996L232.932 125.73C232.812 127.068 231.696 128.088 230.358 128.088Z" fill="#96C1FA"/>
<path d="M145.176 66.8643H200.382C200.904 56.9223 200.172 49.0383 194.442 49.0383C187.866 49.0383 191.82 57.7263 183.714 57.7263C175.314 57.7263 182.178 42.4863 174.24 42.4863C165.498 42.4863 173.058 58.5423 163.128 58.5423C156.084 58.5423 159.804 49.0383 153.354 49.0383C147.924 49.0383 145.608 58.5423 145.608 58.5423L145.176 66.8643Z" fill="#96C1FA"/>
<path d="M145.176 66.8643H200.382C200.904 56.9223 200.172 49.0383 194.442 49.0383C187.866 49.0383 191.82 57.7263 183.714 57.7263C175.314 57.7263 182.178 42.4863 174.24 42.4863C165.498 42.4863 173.058 58.5423 163.128 58.5423C156.084 58.5423 159.804 49.0383 153.354 49.0383C147.924 49.0383 145.608 58.5423 145.608 58.5423L145.176 66.8643Z" stroke="#193B59" stroke-width="0.5" stroke-miterlimit="10" stroke-linecap="round" stroke-linejoin="round"/>
<path d="M154.324 50.0292C154.898 49.4696 154.933 48.5734 154.401 48.0275C153.869 47.4816 152.972 47.4926 152.398 48.0522C151.824 48.6118 151.789 49.508 152.321 50.0539C152.853 50.5999 153.749 50.5888 154.324 50.0292Z" fill="#193B59"/>
<path d="M164.544 58.5478C164.586 57.7678 163.986 57.1318 163.206 57.1318C162.426 57.1318 161.76 57.7678 161.718 58.5478C161.676 59.3278 162.276 59.9638 163.056 59.9638C163.836 59.9638 164.508 59.3278 164.544 58.5478Z" fill="#193B59"/>
<path d="M175.656 42.4863C175.698 41.7063 175.098 41.0703 174.318 41.0703C173.538 41.0703 172.872 41.7063 172.83 42.4863C172.788 43.2663 173.388 43.9023 174.168 43.9023C174.948 43.9023 175.614 43.2723 175.656 42.4863Z" fill="#193B59"/>
<path d="M185.13 57.7265C185.172 56.9465 184.572 56.3105 183.792 56.3105C183.012 56.3105 182.346 56.9465 182.304 57.7265C182.262 58.5065 182.862 59.1425 183.642 59.1425C184.422 59.1425 185.088 58.5065 185.13 57.7265Z" fill="#193B59"/>
<path d="M195.405 50.0263C195.979 49.4667 196.014 48.5705 195.482 48.0246C194.95 47.4787 194.053 47.4897 193.479 48.0493C192.905 48.6089 192.87 49.5051 193.402 50.051C193.934 50.5969 194.831 50.5859 195.405 50.0263Z" fill="#193B59"/>
<path d="M215.904 66.8642H145.176L146.658 38.5742" stroke="#193B59" stroke-miterlimit="10" stroke-linecap="round" stroke-linejoin="round"/>
<path d="M144.024 41.0762L146.658 38.5742L149.028 41.0762" stroke="#193B59" stroke-miterlimit="10" stroke-linecap="round" stroke-linejoin="round"/>
<path d="M213.534 64.3623L215.904 66.8643L213.27 69.3663" stroke="#193B59" stroke-miterlimit="10" stroke-linecap="round" stroke-linejoin="round"/>
<path opacity="0.6" d="M217.476 71.112H143.43C141.954 71.112 140.772 69.87 140.85 68.394L142.506 36.78C142.578 35.406 143.712 34.332 145.086 34.332H219.132C220.608 34.332 221.79 35.574 221.712 37.05L220.056 68.664C219.984 70.032 218.85 71.112 217.476 71.112Z" fill="#96C1FA"/>
<path d="M216.432 39.6899C216.378 40.6679 215.55 41.4599 214.572 41.4599C213.594 41.4599 212.844 40.6679 212.898 39.6899C212.952 38.7119 213.78 37.9199 214.758 37.9199C215.73 37.9259 216.48 38.7119 216.432 39.6899Z" fill="#FAFAFF"/>
<path d="M216.138 45.2514C216.084 46.2294 215.256 47.0214 214.278 47.0214C213.3 47.0214 212.55 46.2294 212.604 45.2514C212.658 44.2734 213.486 43.4814 214.464 43.4814C215.442 43.4814 216.192 44.2734 216.138 45.2514Z" fill="#FAFAFF"/>
<path d="M215.85 50.8081C215.796 51.7861 214.968 52.5781 213.99 52.5781C213.012 52.5781 212.262 51.7861 212.316 50.8081C212.37 49.8301 213.198 49.0381 214.176 49.0381C215.154 49.0381 215.898 49.8361 215.85 50.8081Z" fill="#FAFAFF"/>
<defs>
<linearGradient id="paint0_linear_6134_15653" x1="193.596" y1="277.619" x2="159.479" y2="277.325" gradientUnits="userSpaceOnUse">
<stop stop-color="#10BEF0"/>
<stop offset="1" stop-color="#10BEF0" stop-opacity="0"/>
</linearGradient>
<linearGradient id="paint1_linear_6134_15653" x1="106.947" y1="277.378" x2="139.576" y2="277.378" gradientUnits="userSpaceOnUse">
<stop stop-color="#10BEF0"/>
<stop offset="1" stop-color="#10BEF0" stop-opacity="0"/>
</linearGradient>
<linearGradient id="paint2_linear_6134_15653" x1="149.56" y1="263.349" x2="148.971" y2="200.115" gradientUnits="userSpaceOnUse">
<stop stop-color="#10BEF0"/>
<stop offset="1" stop-color="#10BEF0" stop-opacity="0"/>
</linearGradient>
<linearGradient id="paint3_linear_6134_15653" x1="141.699" y1="139.652" x2="141.555" y2="124.174" gradientUnits="userSpaceOnUse">
<stop stop-color="#10BEF0"/>
<stop offset="1" stop-color="#10BEF0" stop-opacity="0"/>
</linearGradient>
<linearGradient id="paint4_linear_6134_15653" x1="154.896" y1="139.712" x2="154.751" y2="124.161" gradientUnits="userSpaceOnUse">
<stop stop-color="#10BEF0"/>
<stop offset="1" stop-color="#10BEF0" stop-opacity="0"/>
</linearGradient>
</defs>
</svg>
