<svg id="Layer_1" data-name="Layer 1" xmlns="http://www.w3.org/2000/svg" viewBox="0 0 24 24"><defs><style>.cls-1{fill:#f79919;}</style></defs><path class="cls-1" d="M11.51,20.16A16.73,16.73,0,0,1,1,16.17.9.9,0,0,1,.72,16c-.07-.13-.11-.28-.17-.42a1.29,1.29,0,0,1,.45.06,22.79,22.79,0,0,0,10.56,2.9A22.16,22.16,0,0,0,20.23,17a1.58,1.58,0,0,1,.58-.19c.15,0,.31.11.47.17-.06.15-.08.35-.19.43a18.63,18.63,0,0,1-1.66,1A16.38,16.38,0,0,1,11.51,20.16Z"/><path d="M10.33,11.81c.35-1.48.72-3,1.05-4.45a.7.7,0,0,1,.78-.66c.51,0,.78.14.89.67.28,1.33.62,2.64.94,4a1.07,1.07,0,0,0,.25.53c.1-.37.21-.73.31-1.1.31-1.18.61-2.36.92-3.55.11-.44.94-.77,1.25-.46.11.1.08.41,0,.6-.58,1.86-1.2,3.72-1.79,5.58a.64.64,0,0,1-.7.51c-.78,0-.8,0-1-.76-.34-1.39-.67-2.79-1.11-4.2a2.37,2.37,0,0,0-.13.34c-.33,1.35-.66,2.71-1,4.06-.08.36-.23.59-.64.56s-.84.08-1-.51c-.52-1.85-1.09-3.68-1.63-5.52-.07-.22-.31-.54.12-.67s1,0,1.13.44c.29,1.1.56,2.2.84,3.31.11.44.23.88.35,1.32Z"/><path d="M5.57,9.65c.31-1.45-.3-2.18-1.69-2.07-.47,0-.92.23-1.39.31a2.62,2.62,0,0,1-.62,0c0-.26,0-.63.17-.78a3.94,3.94,0,0,1,4.18,0,2.29,2.29,0,0,1,.7,1.75c0,.76,0,1.53,0,2.29a5.32,5.32,0,0,0,.29,1.48c.17.46-.15.55-.4.73a.43.43,0,0,1-.7-.08c-.13-.18-.25-.36-.4-.59a3.11,3.11,0,0,1-2.08,1,2,2,0,0,1-2.17-1.47A2.07,2.07,0,0,1,2.69,9.69,3.93,3.93,0,0,1,5,9.54Zm-1.22.72v-.06a7.39,7.39,0,0,0-.93.22,1,1,0,0,0-.64,1,1,1,0,0,0,.82,1A1.57,1.57,0,0,0,5.29,12a2.59,2.59,0,0,0,.31-1.37c0-.09-.61-.2-.94-.28A1.06,1.06,0,0,0,4.35,10.37Z"/><path d="M19.56,13.72c-.59-.15-1.19-.26-1.76-.46a.79.79,0,0,1-.43-.54c-.11-.53,0-.59.58-.45a11.3,11.3,0,0,0,1.74.3,1.93,1.93,0,0,0,.74-.13.81.81,0,0,0,.64-.77.77.77,0,0,0-.57-.81c-.55-.22-1.13-.37-1.69-.57a2,2,0,0,1-1.28-1.16,1.83,1.83,0,0,1,1.2-2.4,3.89,3.89,0,0,1,2.79.07c.12,0,.3.12.32.22a3.86,3.86,0,0,1,.11.77,2.06,2.06,0,0,1-.56,0,3.25,3.25,0,0,0-1.95-.15.82.82,0,0,0-.67.68.73.73,0,0,0,.47.82c.58.25,1.18.42,1.77.65a1.84,1.84,0,0,1,1,2.77,2.32,2.32,0,0,1-1.68,1c-.25,0-.5,0-.76.08Z"/><path class="cls-1" d="M21.39,19.13c.13-.36.27-.71.38-1.07s.27-.91.37-1.38-.09-.72-.55-.72c-.67,0-1.35,0-2,0H19l-.06-.15a4.81,4.81,0,0,1,.6-.4,5,5,0,0,1,3.09-.35c.61.11.74.3.68.9a4.73,4.73,0,0,1-1.05,2.61,5.81,5.81,0,0,1-.67.64Z"/></svg>