<svg id="Layer_1" data-name="Layer 1" xmlns="http://www.w3.org/2000/svg" viewBox="0 0 24 24"><defs><style>.cls-1{fill:#00b159;}.cls-2{fill:#004711;}</style></defs><path d="M9.35,23.39c-.91-1-1.82-1.95-2.72-2.94a1.49,1.49,0,0,1-.33-.62c-.23-1-.43-2-.61-3a.67.67,0,0,1,.22-.48,2.48,2.48,0,0,1,.51-.33s0-.09,0-.11A3.63,3.63,0,0,1,4.9,13.17c-.14-1-.38-1.95-.59-3l1.28-.65c-.49-.38-1-.72-1.39-1.09a1.13,1.13,0,0,1-.38-.57C3.42,6,3.05,4.18,2.67,2.32a2.41,2.41,0,0,1,0-.31l3-.94C6.4.83,7.18.56,8,.36a1.17,1.17,0,0,1,.76.06c1.19.54,2.36,1.1,3.52,1.69a.72.72,0,0,1,.32.49c.11,1.8.18,3.59.28,5.39a.52.52,0,0,1-.34.6c-.41.18-.79.41-1.26.65.45.31.84.6,1.26.84a.83.83,0,0,1,.45.84c0,.34,0,.68,0,1.14.5-.3.92-.53,1.3-.8a.54.54,0,0,1,.76,0c.22.18.47.32.81.55a6.5,6.5,0,0,0,0-.9.86.86,0,0,1,.56-1c.66-.36,1.28-.8,1.94-1.16a.77.77,0,0,1,.63,0c.9.46,1.79.94,2.65,1.46a.69.69,0,0,1,.28.56c-.09.93-.24,1.87-.38,2.8a.42.42,0,0,1-.15.3l-2.44,2-1-.62c0,.07-.07.1-.06.12a2.37,2.37,0,0,1-1.31,2.38c-.68.45-1.29,1-1.95,1.53l-1.37-1.12c0,.63,0,1.16.09,1.69a.68.68,0,0,1-.3.69C12,21.36,11,22.21,9.92,23c-.13.11-.25.23-.37.35ZM7.74,10.75c1.58-.82,3.1-1.6,4.61-2.4A.45.45,0,0,0,12.54,8c-.06-1.81-.13-3.62-.21-5.46a2.75,2.75,0,0,0-.3.07c-1.59.61-3.19,1.24-4.79,1.83a.47.47,0,0,0-.34.61C7.19,7,7.46,8.82,7.74,10.75Zm4.93-.07L9.26,12.61c-1.13.64-1.13.64-1,1.91,0,.07,0,.14,0,.21.14.95.29,1.9.44,2.91L12.65,15a.51.51,0,0,0,.19-.32C12.8,13.38,12.73,12.06,12.67,10.68ZM3,2.39c.4,1.91.77,3.68,1.15,5.45a.58.58,0,0,0,.19.33c1,.81,2,1.61,3.06,2.41,0-.07.06-.1.05-.13Q7,7.66,6.61,4.87a.59.59,0,0,0-.2-.33C5.3,3.84,4.18,3.15,3,2.39ZM13,17,9.2,19.68a.45.45,0,0,0-.09.35c.07.64.17,1.29.26,1.93.05.32.12.64.19,1,1.14-.91,2.23-1.78,3.3-2.65a.49.49,0,0,0,.19-.33C13,19,13,18.07,13,17ZM4.67,10.63a17.17,17.17,0,0,1,.42,2.12,4.56,4.56,0,0,0,2,3.49A18.28,18.28,0,0,1,8.46,17.5c-.21-1.46-.4-2.76-.6-4.06a.45.45,0,0,0-.14-.26Zm10.05,8.24,2.64-2.12a.44.44,0,0,0,.15-.25c.07-.93.13-1.85.21-2.91-1,.74-1.95,1.39-2.85,2.05a.28.28,0,0,0-.14.19C14.72,16.8,14.72,17.77,14.72,18.87ZM6.21,17.09,6,17.2c.11.54.26,1.06.33,1.6a3,3,0,0,0,1,2.09c.56.49,1,1.09,1.56,1.63a3.26,3.26,0,0,0,.29.23c-.14-.94-.26-1.8-.4-2.66a.81.81,0,0,0-.15-.41C7.86,18.81,7,18,6.21,17.09ZM19.05,15.4c.55-.43,1-.83,1.53-1.2A1.51,1.51,0,0,0,21.35,13c0-.7.17-1.39.27-2.18-.77.55-1.44,1-2.09,1.51a.75.75,0,0,0-.25.46C19.19,13.62,19.13,14.47,19.05,15.4Zm-.27,0a10.38,10.38,0,0,1,.15-1.63,1.59,1.59,0,0,0-1.08-2.09,15.72,15.72,0,0,1-1.66-1,1.31,1.31,0,0,0,.73,1.88c.19.08.33.25.52.33.51.22.6.58.52,1.11C17.81,14.9,17.89,15,18.78,15.41Zm-6.69.35a5.61,5.61,0,0,0,.51.42,1.23,1.23,0,0,1,.66,1.32.48.48,0,0,0,.1.37c.33.31.69.59,1.12.95a11.1,11.1,0,0,1,0-1.74,2,2,0,0,0-1.22-2.25s-.06,0,0,0Z"/><path class="cls-1" d="M7.74,10.75C7.46,8.82,7.19,7,6.9,5.09a.47.47,0,0,1,.34-.61c1.6-.59,3.2-1.22,4.79-1.83a2.75,2.75,0,0,1,.3-.07c.08,1.84.15,3.65.21,5.46a.45.45,0,0,1-.19.31C10.84,9.15,9.32,9.93,7.74,10.75Z"/><path class="cls-1" d="M12.67,10.68c.06,1.38.13,2.7.17,4a.51.51,0,0,1-.19.32L8.76,17.64c-.15-1-.3-2-.44-2.91,0-.07,0-.14,0-.21-.17-1.27-.17-1.27,1-1.91Z"/><path class="cls-2" d="M3,2.39c1.23.76,2.35,1.45,3.46,2.15a.59.59,0,0,1,.2.33q.4,2.79.79,5.58s0,.06-.05.13c-1-.8-2-1.6-3.06-2.41a.58.58,0,0,1-.19-.33C3.72,6.07,3.35,4.3,3,2.39Z"/><path class="cls-1" d="M13,17c0,1.08.08,2.05.1,3a.49.49,0,0,1-.19.33c-1.07.87-2.16,1.74-3.3,2.65-.07-.38-.14-.7-.19-1-.09-.64-.19-1.29-.26-1.93a.45.45,0,0,1,.09-.35Z"/><path class="cls-2" d="M4.67,10.63l3.05,2.55a.45.45,0,0,1,.14.26c.2,1.3.39,2.6.6,4.06A18.28,18.28,0,0,0,7.1,16.24a4.56,4.56,0,0,1-2-3.49A17.17,17.17,0,0,0,4.67,10.63Z"/><path class="cls-1" d="M14.72,18.87c0-1.1,0-2.07,0-3a.28.28,0,0,1,.14-.19c.9-.66,1.82-1.31,2.85-2.05-.08,1.06-.14,2-.21,2.91a.44.44,0,0,1-.15.25Z"/><path class="cls-2" d="M6.21,17.09C7,18,7.86,18.81,8.68,19.68a.81.81,0,0,1,.15.41c.14.86.26,1.72.4,2.66a3.26,3.26,0,0,1-.29-.23c-.52-.54-1-1.14-1.56-1.63a3,3,0,0,1-1-2.09c-.07-.54-.22-1.06-.33-1.6Z"/><path class="cls-1" d="M19.05,15.4c.08-.93.14-1.78.23-2.63a.75.75,0,0,1,.25-.46c.65-.49,1.32-1,2.09-1.51-.1.79-.23,1.48-.27,2.18a1.51,1.51,0,0,1-.77,1.22C20.07,14.57,19.6,15,19.05,15.4Z"/><path class="cls-2" d="M18.78,15.41c-.89-.43-1-.51-.82-1.42.08-.53,0-.89-.52-1.11-.19-.08-.33-.25-.52-.33a1.31,1.31,0,0,1-.73-1.88,15.72,15.72,0,0,0,1.66,1,1.59,1.59,0,0,1,1.08,2.09A10.38,10.38,0,0,0,18.78,15.41Z"/><path class="cls-2" d="M12.09,15.76l1.21-.93c-.09,0-.06,0,0,0a2,2,0,0,1,1.22,2.25,11.1,11.1,0,0,0,0,1.74c-.43-.36-.79-.64-1.12-.95a.48.48,0,0,1-.1-.37,1.23,1.23,0,0,0-.66-1.32A5.61,5.61,0,0,1,12.09,15.76Z"/></svg>