<svg id="Layer_1" data-name="Layer 1" xmlns="http://www.w3.org/2000/svg" viewBox="0 0 24 24"><defs><style>.cls-1{fill:blue;}.cls-2{fill:red;}.cls-3{fill:lime;}</style></defs><path class="cls-1" d="M23.47,17.51a15.11,15.11,0,0,1-.53,1.65,5.34,5.34,0,0,1-5.5,3.09,5.42,5.42,0,0,1-2.63-9.76c.15-.11.31-.21.5-.33l1.6,2.76a2.22,2.22,0,0,0-.34,3.54,2.14,2.14,0,0,0,3.08-.17c.87-1,.68-2.29-.52-3.34l1.61-2.79a5.5,5.5,0,0,1,2.63,3.78c0,.11.07.22.1.33Z"/><path class="cls-2" d="M14.53,10.79,12.94,8c1.27-1.42,1.37-2.63.31-3.57a2.17,2.17,0,0,0-3.05.19c-.88,1-.69,2.3.51,3.35L9.13,10.75c-1.82-.73-3-3.3-2.67-5.6A5.43,5.43,0,0,1,11.29.71,5.36,5.36,0,0,1,17,4.52,5.44,5.44,0,0,1,14.53,10.79Z"/><path class="cls-3" d="M8.4,12.19,6.83,14.92C5.16,14.46,4,15,3.62,16.31A2.19,2.19,0,0,0,5.17,19c1.34.34,2.36-.41,2.77-2.06H11.1a5.4,5.4,0,1,1-8.93-4.14A5.33,5.33,0,0,1,8.4,12.19Z"/></svg>