<svg id="Layer_1" data-name="Layer 1" xmlns="http://www.w3.org/2000/svg" viewBox="0 0 24 24"><defs><style>.cls-1{fill:#95bf47;}.cls-2{fill:#5e8e3e;}.cls-3{fill:#fff;}</style></defs><path class="cls-1" d="M14.7,23.47,1.66,21c.09-.68.18-1.33.26-2,.23-1.79.47-3.58.7-5.38l.75-6a.75.75,0,0,0,0-.21c-.05-.6,0-.68.77-.93S5.37,6.2,6,6a.46.46,0,0,0,.23-.29A11.38,11.38,0,0,1,7.43,2.76,4.75,4.75,0,0,1,10,.52,4.36,4.36,0,0,1,11.06.34,1.12,1.12,0,0,1,12.15.9a.35.35,0,0,0,.22.15,2.48,2.48,0,0,1,2.25,1.66c0,.08.07.16.11.25l.11.23.72-.11ZM11.52,11.1c.16-.73.32-1.49.51-2.24.06-.25,0-.33-.24-.4A5.54,5.54,0,0,0,9.5,8.34,4,4,0,0,0,6,10.88,3.26,3.26,0,0,0,6.12,14a9.46,9.46,0,0,0,1.3,1.31,6.38,6.38,0,0,1,.72.75,1,1,0,0,1,0,1.18.86.86,0,0,1-1,.3,5.12,5.12,0,0,1-1-.37c-.31-.16-.59-.37-.9-.57-.16.59-.31,1.16-.49,1.72a.41.41,0,0,0,.16.51,4.64,4.64,0,0,0,2.52,1.15,3.45,3.45,0,0,0,2.88-.74,3.63,3.63,0,0,0-.2-5.52c-.5-.39-1-.75-1.5-1.18a1,1,0,0,1,.41-1.65,2.61,2.61,0,0,1,1-.08C10.53,10.83,11,11,11.52,11.1ZM7.14,5.66l.27,0c.39-.13.77-.3,1.16-.4A.51.51,0,0,0,9,4.75a4.84,4.84,0,0,1,2.28-3.36s0,0,.09-.15a4,4,0,0,0-.68,0A2.7,2.7,0,0,0,9.1,2,6.53,6.53,0,0,0,7.68,4.19C7.49,4.65,7.33,5.13,7.14,5.66ZM12,1.94c-1.08.29-2,2.1-2,2.85l1.92-.67a.41.41,0,0,0,.31-.5C12.14,3.07,12.07,2.52,12,1.94Zm.74,0L13,3.8l1.06-.16C13.87,2.76,13.26,1.86,12.73,2Z"/><path class="cls-2" d="M15,23.47c.29-6.79.58-13.51.87-20.31a2.15,2.15,0,0,1,.31.22c.33.32.64.66,1,1a.73.73,0,0,0,.42.18c.55.06,1.11.11,1.67.13.25,0,.25.17.28.34.22,1.58.44,3.17.67,4.75l1.65,11.46c0,.27.07.53.1.81Z"/><path class="cls-3" d="M11.52,11.1c-.52-.12-1-.27-1.47-.33a2.61,2.61,0,0,0-1,.08,1,1,0,0,0-.41,1.65c.46.43,1,.79,1.5,1.18a3.63,3.63,0,0,1,.2,5.52,3.45,3.45,0,0,1-2.88.74,4.64,4.64,0,0,1-2.52-1.15.41.41,0,0,1-.16-.51c.18-.56.33-1.13.49-1.72.31.2.59.41.9.57a5.12,5.12,0,0,0,1,.37.86.86,0,0,0,1-.3,1,1,0,0,0,0-1.18,6.38,6.38,0,0,0-.72-.75A9.46,9.46,0,0,1,6.12,14,3.26,3.26,0,0,1,6,10.88,4,4,0,0,1,9.5,8.34a5.54,5.54,0,0,1,2.29.12c.22.07.3.15.24.4C11.84,9.61,11.68,10.37,11.52,11.1Z"/></svg>