<svg id="Layer_1" data-name="Layer 1" xmlns="http://www.w3.org/2000/svg" viewBox="0 0 24 24"><defs><style>.cls-1{fill:#ff5722;}</style></defs><path class="cls-1" d="M.68,15.15l.42.26a16.45,16.45,0,0,0,4.75,2,11,11,0,0,0,6.61-.37c.34-.13.66-.3,1-.46,0,0,0-.07,0-.07a18.32,18.32,0,0,1-3.19-2.7,99.05,99.05,0,0,1-7-8,4.56,4.56,0,0,1-.31-.42,77.39,77.39,0,0,0,8.8,6.46A75.18,75.18,0,0,1,5.74,4.33c.86.75,1.71,1.52,2.59,2.25S10.11,8,11,8.75s1.83,1.4,2.76,2.09,1.86,1.35,2.83,2.06c.12-.41.25-.77.34-1.15a10.62,10.62,0,0,0-.6-6.44,12.91,12.91,0,0,0-1.59-2.92.11.11,0,0,1,0-.1l.66.46a18.46,18.46,0,0,1,4.4,4.33,10.73,10.73,0,0,1,2.06,6.35A7.56,7.56,0,0,1,21.41,16a.27.27,0,0,0,.05.3,8.66,8.66,0,0,1,1.67,3.05A4.08,4.08,0,0,1,23.06,22c-.26-.28-.49-.57-.76-.83a3.27,3.27,0,0,0-2.6-1,4.57,4.57,0,0,0-1.2.34c-.72.3-1.41.68-2.13,1a9.05,9.05,0,0,1-4,.57,14.06,14.06,0,0,1-5.88-1.56A15.65,15.65,0,0,1,1.21,16c-.17-.23-.33-.47-.49-.71A.25.25,0,0,1,.68,15.15Z"/></svg>