<svg id="Layer_1" data-name="Layer 1" xmlns="http://www.w3.org/2000/svg" viewBox="0 0 24 24"><defs><style>.cls-1{fill:#ff9800;}.cls-2{fill:#ff7f00;}</style></defs><path class="cls-1" d="M22.12,11.15l-6-3.48c0,.88,0,1.66,0,2.43a.65.65,0,0,0,.29.37c.8.47,1.6.91,2.39,1.38a.7.7,0,0,1,.32.41c0,1.39,0,2.78,0,4.26l-3-1.71c0,.22,0,.39,0,.55,0,1.88,0,3.76,0,5.64,0,.16-.05.42-.16.49-1.23.74-2.48,1.45-3.78,2.21V.31a3.7,3.7,0,0,1,.4.18l9.22,5.28a.74.74,0,0,1,.36.43C22.13,7.82,22.12,9.43,22.12,11.15Z"/><path class="cls-2" d="M11.14,23.7c-1.31-.76-2.55-1.46-3.76-2.2A.7.7,0,0,1,7.19,21q0-4.86,0-9.71V7.67l-6,3.49V10c0-1.22,0-2.44,0-3.65a.72.72,0,0,1,.28-.53C4.57,4,7.73,2.21,10.88.41c.07,0,.15-.06.26-.11Z"/></svg>