<svg width="287" height="505" viewBox="0 0 287 505" fill="none" xmlns="http://www.w3.org/2000/svg">
<path d="M162.438 357.745L67 213.073L72.5519 210.745L162.276 346.727L246.367 211.219L252 213.418L162.438 357.745Z" fill="#EDF2F7"/>
<g filter="url(#filter0_d_5271_21953)">
<path d="M266.192 207.366L158.582 269.533L51 207.366V83.0876L158.582 20.9482L266.192 83.0876V207.366Z" fill="#EDF2F7"/>
</g>
<path style="mix-blend-mode:color-burn" d="M218.383 203.011L144.119 245.889L69.8555 203.011V117.228L144.119 74.3499L218.383 117.228V203.011Z" fill="url(#paint0_radial_5271_21953)" fill-opacity="0.3"/>
<path d="M159.577 258.499L258.153 201.554V87.6902L159.577 30.7449L61 87.6902V201.554L159.577 258.499Z" fill="#002680"/>
<path d="M220.781 181.088L159.391 216.526L98 181.088L98.027 110.184L159.391 74.7449L220.781 110.184V181.088Z" fill="white"/>
<path d="M152.68 129.758C155.432 129.758 157.602 130.787 159.192 132.846C160.781 134.894 161.576 137.843 161.576 141.694C161.576 145.523 160.792 148.462 159.224 150.51C157.656 152.547 155.474 153.566 152.68 153.566C149.874 153.566 147.682 152.547 146.104 150.51C144.536 148.473 143.752 145.539 143.752 141.71C143.752 139.15 144.114 136.979 144.84 135.198C145.565 133.417 146.594 132.067 147.928 131.15C149.261 130.222 150.845 129.758 152.68 129.758ZM152.68 149.742C154.056 149.742 155.064 149.129 155.704 147.902C156.344 146.665 156.664 144.601 156.664 141.71C156.664 138.755 156.338 136.638 155.688 135.358C155.037 134.078 154.029 133.438 152.664 133.438C151.298 133.438 150.28 134.083 149.608 135.374C148.946 136.665 148.616 138.777 148.616 141.71C148.616 144.59 148.946 146.649 149.608 147.886C150.269 149.123 151.293 149.742 152.68 149.742ZM168.473 153.214V135.886H164.345V133.246C165.667 133.246 166.734 133.123 167.545 132.878C168.366 132.622 168.979 132.259 169.385 131.79C169.79 131.31 170.03 130.739 170.105 130.078H173.209V153.214H168.473Z" fill="#5093FF"/>
<path d="M116.844 390.745V377.731H125.781L125.772 379.945H119.481V383.104H124.944V385.273H119.463V388.504L125.871 388.513V390.745H116.844ZM135.674 381.439L132.182 390.745H130.283L126.782 381.439H129.158L131.192 387.37H131.264L133.271 381.439H135.674ZM139.338 390.925C138.744 390.925 138.21 390.814 137.736 390.592C137.262 390.37 136.887 390.049 136.611 389.629C136.335 389.203 136.197 388.687 136.197 388.081C136.197 387.061 136.578 386.287 137.34 385.759C138.102 385.225 139.305 384.949 140.949 384.931L142.11 384.913V384.355C142.11 383.929 141.984 383.602 141.732 383.374C141.486 383.14 141.102 383.026 140.58 383.032C140.196 383.038 139.83 383.128 139.482 383.302C139.14 383.476 138.906 383.779 138.78 384.211H136.593C136.629 383.539 136.824 382.987 137.178 382.555C137.532 382.117 138.012 381.793 138.618 381.583C139.23 381.367 139.923 381.259 140.697 381.259C141.651 381.259 142.416 381.379 142.992 381.619C143.568 381.853 143.985 382.192 144.243 382.636C144.501 383.074 144.63 383.596 144.63 384.202V390.745H142.434L142.218 389.143C141.9 389.815 141.501 390.28 141.021 390.538C140.547 390.796 139.986 390.925 139.338 390.925ZM140.22 389.197C140.46 389.197 140.691 389.155 140.913 389.071C141.141 388.981 141.342 388.864 141.516 388.72C141.696 388.57 141.84 388.402 141.948 388.216C142.056 388.03 142.11 387.838 142.11 387.64V386.263L141.165 386.281C140.727 386.287 140.319 386.341 139.941 386.443C139.563 386.539 139.257 386.698 139.023 386.92C138.795 387.142 138.681 387.442 138.681 387.82C138.681 388.252 138.831 388.591 139.131 388.837C139.431 389.077 139.794 389.197 140.22 389.197ZM149.926 390.907C149.242 390.907 148.699 390.826 148.297 390.664C147.895 390.502 147.598 390.289 147.406 390.025C147.214 389.755 147.091 389.458 147.037 389.134C146.983 388.804 146.956 388.471 146.956 388.135V377.371H149.53V387.811C149.53 388.153 149.602 388.432 149.746 388.648C149.896 388.858 150.175 388.987 150.583 389.035L151.024 389.062V390.682C150.844 390.742 150.661 390.793 150.475 390.835C150.289 390.883 150.106 390.907 149.926 390.907ZM156.098 390.925C155.666 390.925 155.24 390.859 154.82 390.727C154.406 390.595 154.028 390.4 153.686 390.142C153.344 389.884 153.068 389.566 152.858 389.188C152.654 388.81 152.552 388.372 152.552 387.874V381.439H155.18V387.541C155.18 387.973 155.321 388.327 155.603 388.603C155.885 388.879 156.299 389.017 156.845 389.017C157.361 389.017 157.769 388.885 158.069 388.621C158.375 388.351 158.528 387.976 158.528 387.496V381.439H161.129V390.745H159.149L158.843 388.9C158.735 389.446 158.531 389.866 158.231 390.16C157.937 390.448 157.598 390.646 157.214 390.754C156.836 390.868 156.464 390.925 156.098 390.925ZM165.969 390.925C165.375 390.925 164.841 390.814 164.367 390.592C163.893 390.37 163.518 390.049 163.242 389.629C162.966 389.203 162.828 388.687 162.828 388.081C162.828 387.061 163.209 386.287 163.971 385.759C164.733 385.225 165.936 384.949 167.58 384.931L168.741 384.913V384.355C168.741 383.929 168.615 383.602 168.363 383.374C168.117 383.14 167.733 383.026 167.211 383.032C166.827 383.038 166.461 383.128 166.113 383.302C165.771 383.476 165.537 383.779 165.411 384.211H163.224C163.26 383.539 163.455 382.987 163.809 382.555C164.163 382.117 164.643 381.793 165.249 381.583C165.861 381.367 166.554 381.259 167.328 381.259C168.282 381.259 169.047 381.379 169.623 381.619C170.199 381.853 170.616 382.192 170.874 382.636C171.132 383.074 171.261 383.596 171.261 384.202V390.745H169.065L168.849 389.143C168.531 389.815 168.132 390.28 167.652 390.538C167.178 390.796 166.617 390.925 165.969 390.925ZM166.851 389.197C167.091 389.197 167.322 389.155 167.544 389.071C167.772 388.981 167.973 388.864 168.147 388.72C168.327 388.57 168.471 388.402 168.579 388.216C168.687 388.03 168.741 387.838 168.741 387.64V386.263L167.796 386.281C167.358 386.287 166.95 386.341 166.572 386.443C166.194 386.539 165.888 386.698 165.654 386.92C165.426 387.142 165.312 387.442 165.312 387.82C165.312 388.252 165.462 388.591 165.762 388.837C166.062 389.077 166.425 389.197 166.851 389.197ZM178.853 383.266H176.783L176.801 388.225C176.801 388.453 176.828 388.624 176.882 388.738C176.942 388.846 177.032 388.918 177.152 388.954C177.278 388.984 177.437 388.999 177.629 388.999H178.88V390.619C178.76 390.673 178.571 390.724 178.313 390.772C178.061 390.82 177.707 390.844 177.251 390.844C176.435 390.844 175.802 390.739 175.352 390.529C174.908 390.319 174.599 390.025 174.425 389.647C174.251 389.269 174.164 388.831 174.164 388.333V383.266H172.652V381.439H174.254L174.911 378.631H176.783V381.43H178.853V383.266ZM183.44 381.439V390.745H180.929V381.439H183.44ZM183.467 377.74V380.107H180.911V377.74H183.467ZM189.817 390.925C188.905 390.925 188.11 390.73 187.432 390.34C186.76 389.95 186.238 389.398 185.866 388.684C185.5 387.97 185.317 387.124 185.317 386.146C185.317 385.168 185.5 384.313 185.866 383.581C186.238 382.849 186.76 382.279 187.432 381.871C188.11 381.463 188.908 381.259 189.826 381.259C190.744 381.259 191.539 381.46 192.211 381.862C192.883 382.258 193.402 382.822 193.768 383.554C194.134 384.286 194.317 385.15 194.317 386.146C194.317 387.082 194.137 387.91 193.777 388.63C193.423 389.344 192.91 389.905 192.238 390.313C191.572 390.721 190.765 390.925 189.817 390.925ZM189.826 388.972C190.288 388.972 190.66 388.837 190.942 388.567C191.224 388.297 191.428 387.943 191.554 387.505C191.686 387.061 191.752 386.578 191.752 386.056C191.752 385.564 191.692 385.099 191.572 384.661C191.458 384.223 191.26 383.869 190.978 383.599C190.696 383.329 190.312 383.194 189.826 383.194C189.364 383.194 188.989 383.323 188.701 383.581C188.419 383.833 188.212 384.178 188.08 384.616C187.948 385.048 187.882 385.528 187.882 386.056C187.882 386.542 187.942 387.01 188.062 387.46C188.182 387.904 188.383 388.267 188.665 388.549C188.947 388.831 189.334 388.972 189.826 388.972ZM196.069 390.745V381.439H198.652V382.753C198.796 382.525 198.982 382.306 199.21 382.096C199.444 381.88 199.738 381.703 200.092 381.565C200.446 381.427 200.866 381.358 201.352 381.358C201.922 381.358 202.453 381.469 202.945 381.691C203.443 381.913 203.845 382.264 204.151 382.744C204.457 383.218 204.61 383.839 204.61 384.607V390.745H201.982V384.931C201.982 384.427 201.832 384.049 201.532 383.797C201.232 383.545 200.866 383.419 200.434 383.419C200.146 383.419 199.867 383.47 199.597 383.572C199.333 383.674 199.117 383.827 198.949 384.031C198.781 384.235 198.697 384.487 198.697 384.787V390.745H196.069Z" fill="#002680"/>
<path d="M63.6454 417.593V418.777H58.7974V422.537H62.7334V423.721H58.7974V428.745H57.3414V417.593H63.6454ZM69.2279 428.889C68.4065 428.889 67.6599 428.702 66.9879 428.329C66.3265 427.956 65.8039 427.428 65.4199 426.745C65.0465 426.052 64.8599 425.252 64.8599 424.345C64.8599 423.449 65.0519 422.66 65.4359 421.977C65.8305 421.284 66.3639 420.756 67.0359 420.393C67.7079 420.02 68.4599 419.833 69.2919 419.833C70.1239 419.833 70.8759 420.02 71.5479 420.393C72.2199 420.756 72.7479 421.278 73.1319 421.961C73.5265 422.644 73.7239 423.438 73.7239 424.345C73.7239 425.252 73.5212 426.052 73.1159 426.745C72.7212 427.428 72.1825 427.956 71.4999 428.329C70.8172 428.702 70.0599 428.889 69.2279 428.889ZM69.2279 427.609C69.7505 427.609 70.2412 427.486 70.6999 427.241C71.1585 426.996 71.5265 426.628 71.8039 426.137C72.0919 425.646 72.2359 425.049 72.2359 424.345C72.2359 423.641 72.0972 423.044 71.8199 422.553C71.5425 422.062 71.1799 421.7 70.7319 421.465C70.2839 421.22 69.7985 421.097 69.2759 421.097C68.7425 421.097 68.2519 421.22 67.8039 421.465C67.3665 421.7 67.0145 422.062 66.7479 422.553C66.4812 423.044 66.3479 423.641 66.3479 424.345C66.3479 425.06 66.4759 425.662 66.7319 426.153C66.9985 426.644 67.3505 427.012 67.7879 427.257C68.2252 427.492 68.7052 427.609 69.2279 427.609ZM77.0943 416.905V428.745H75.6383V416.905H77.0943ZM81.0318 416.905V428.745H79.5758V416.905H81.0318ZM87.3373 428.889C86.5159 428.889 85.7693 428.702 85.0973 428.329C84.4359 427.956 83.9133 427.428 83.5293 426.745C83.1559 426.052 82.9693 425.252 82.9693 424.345C82.9693 423.449 83.1613 422.66 83.5453 421.977C83.9399 421.284 84.4733 420.756 85.1453 420.393C85.8173 420.02 86.5693 419.833 87.4013 419.833C88.2333 419.833 88.9853 420.02 89.6573 420.393C90.3293 420.756 90.8573 421.278 91.2413 421.961C91.6359 422.644 91.8333 423.438 91.8333 424.345C91.8333 425.252 91.6306 426.052 91.2253 426.745C90.8306 427.428 90.2919 427.956 89.6093 428.329C88.9266 428.702 88.1693 428.889 87.3373 428.889ZM87.3373 427.609C87.8599 427.609 88.3506 427.486 88.8093 427.241C89.2679 426.996 89.6359 426.628 89.9133 426.137C90.2013 425.646 90.3453 425.049 90.3453 424.345C90.3453 423.641 90.2066 423.044 89.9293 422.553C89.6519 422.062 89.2893 421.7 88.8413 421.465C88.3933 421.22 87.9079 421.097 87.3853 421.097C86.8519 421.097 86.3613 421.22 85.9133 421.465C85.4759 421.7 85.1239 422.062 84.8573 422.553C84.5906 423.044 84.4573 423.641 84.4573 424.345C84.4573 425.06 84.5853 425.662 84.8413 426.153C85.1079 426.644 85.4599 427.012 85.8973 427.257C86.3346 427.492 86.8146 427.609 87.3373 427.609ZM105.428 419.977L102.692 428.745H101.188L99.0756 421.785L96.9636 428.745H95.4596L92.7076 419.977H94.1956L96.2116 427.337L98.3876 419.977H99.8756L102.004 427.353L103.988 419.977H105.428ZM107.625 418.553C107.347 418.553 107.113 418.457 106.921 418.265C106.729 418.073 106.633 417.838 106.633 417.561C106.633 417.284 106.729 417.049 106.921 416.857C107.113 416.665 107.347 416.569 107.625 416.569C107.891 416.569 108.115 416.665 108.297 416.857C108.489 417.049 108.585 417.284 108.585 417.561C108.585 417.838 108.489 418.073 108.297 418.265C108.115 418.457 107.891 418.553 107.625 418.553ZM108.329 419.977V428.745H106.873V419.977H108.329ZM115.082 419.817C116.149 419.817 117.013 420.142 117.674 420.793C118.335 421.433 118.666 422.361 118.666 423.577V428.745H117.226V423.785C117.226 422.91 117.007 422.244 116.57 421.785C116.133 421.316 115.535 421.081 114.778 421.081C114.01 421.081 113.397 421.321 112.938 421.801C112.49 422.281 112.266 422.98 112.266 423.897V428.745H110.81V419.977H112.266V421.225C112.554 420.777 112.943 420.43 113.434 420.185C113.935 419.94 114.485 419.817 115.082 419.817ZM124.661 419.833C125.418 419.833 126.079 419.998 126.645 420.329C127.221 420.66 127.647 421.076 127.925 421.577V419.977H129.397V428.937C129.397 429.737 129.226 430.446 128.885 431.065C128.543 431.694 128.053 432.185 127.413 432.537C126.783 432.889 126.047 433.065 125.205 433.065C124.053 433.065 123.093 432.793 122.325 432.249C121.557 431.705 121.103 430.964 120.965 430.025H122.405C122.565 430.558 122.895 430.985 123.397 431.305C123.898 431.636 124.501 431.801 125.205 431.801C126.005 431.801 126.655 431.55 127.157 431.049C127.669 430.548 127.925 429.844 127.925 428.937V427.097C127.637 427.609 127.21 428.036 126.645 428.377C126.079 428.718 125.418 428.889 124.661 428.889C123.882 428.889 123.173 428.697 122.533 428.313C121.903 427.929 121.407 427.39 121.045 426.697C120.682 426.004 120.501 425.214 120.501 424.329C120.501 423.433 120.682 422.649 121.045 421.977C121.407 421.294 121.903 420.766 122.533 420.393C123.173 420.02 123.882 419.833 124.661 419.833ZM127.925 424.345C127.925 423.684 127.791 423.108 127.525 422.617C127.258 422.126 126.895 421.753 126.437 421.497C125.989 421.23 125.493 421.097 124.949 421.097C124.405 421.097 123.909 421.225 123.461 421.481C123.013 421.737 122.655 422.11 122.389 422.601C122.122 423.092 121.989 423.668 121.989 424.329C121.989 425.001 122.122 425.588 122.389 426.089C122.655 426.58 123.013 426.958 123.461 427.225C123.909 427.481 124.405 427.609 124.949 427.609C125.493 427.609 125.989 427.481 126.437 427.225C126.895 426.958 127.258 426.58 127.525 426.089C127.791 425.588 127.925 425.006 127.925 424.345ZM135.579 424.329C135.579 423.433 135.76 422.649 136.123 421.977C136.485 421.294 136.981 420.766 137.611 420.393C138.251 420.02 138.96 419.833 139.739 419.833C140.507 419.833 141.173 419.998 141.739 420.329C142.304 420.66 142.725 421.076 143.003 421.577V419.977H144.475V428.745H143.003V427.113C142.715 427.625 142.283 428.052 141.707 428.393C141.141 428.724 140.48 428.889 139.723 428.889C138.944 428.889 138.24 428.697 137.611 428.313C136.981 427.929 136.485 427.39 136.123 426.697C135.76 426.004 135.579 425.214 135.579 424.329ZM143.003 424.345C143.003 423.684 142.869 423.108 142.603 422.617C142.336 422.126 141.973 421.753 141.515 421.497C141.067 421.23 140.571 421.097 140.027 421.097C139.483 421.097 138.987 421.225 138.539 421.481C138.091 421.737 137.733 422.11 137.467 422.601C137.2 423.092 137.067 423.668 137.067 424.329C137.067 425.001 137.2 425.588 137.467 426.089C137.733 426.58 138.091 426.958 138.539 427.225C138.987 427.481 139.483 427.609 140.027 427.609C140.571 427.609 141.067 427.481 141.515 427.225C141.973 426.958 142.336 426.58 142.603 426.089C142.869 425.588 143.003 425.006 143.003 424.345ZM151.207 419.817C152.274 419.817 153.138 420.142 153.799 420.793C154.46 421.433 154.791 422.361 154.791 423.577V428.745H153.351V423.785C153.351 422.91 153.132 422.244 152.695 421.785C152.258 421.316 151.66 421.081 150.903 421.081C150.135 421.081 149.522 421.321 149.063 421.801C148.615 422.281 148.391 422.98 148.391 423.897V428.745H146.935V419.977H148.391V421.225C148.679 420.777 149.068 420.43 149.559 420.185C150.06 419.94 150.61 419.817 151.207 419.817ZM169.435 424.025C169.435 424.302 169.419 424.596 169.387 424.905H162.379C162.432 425.769 162.726 426.446 163.259 426.937C163.803 427.417 164.459 427.657 165.227 427.657C165.856 427.657 166.379 427.513 166.795 427.225C167.222 426.926 167.52 426.532 167.691 426.041H169.259C169.024 426.884 168.555 427.572 167.851 428.105C167.147 428.628 166.272 428.889 165.227 428.889C164.395 428.889 163.648 428.702 162.987 428.329C162.336 427.956 161.824 427.428 161.451 426.745C161.078 426.052 160.891 425.252 160.891 424.345C160.891 423.438 161.072 422.644 161.435 421.961C161.798 421.278 162.304 420.756 162.955 420.393C163.616 420.02 164.374 419.833 165.227 419.833C166.059 419.833 166.795 420.014 167.435 420.377C168.075 420.74 168.566 421.241 168.907 421.881C169.259 422.51 169.435 423.225 169.435 424.025ZM167.931 423.721C167.931 423.166 167.808 422.692 167.563 422.297C167.318 421.892 166.982 421.588 166.555 421.385C166.139 421.172 165.675 421.065 165.163 421.065C164.427 421.065 163.798 421.3 163.275 421.769C162.763 422.238 162.47 422.889 162.395 423.721H167.931ZM174.621 427.401L177.341 419.977H178.893L175.453 428.745H173.757L170.317 419.977H171.885L174.621 427.401ZM179.782 424.329C179.782 423.433 179.963 422.649 180.326 421.977C180.688 421.294 181.184 420.766 181.814 420.393C182.454 420.02 183.163 419.833 183.942 419.833C184.71 419.833 185.376 419.998 185.942 420.329C186.507 420.66 186.928 421.076 187.206 421.577V419.977H188.678V428.745H187.206V427.113C186.918 427.625 186.486 428.052 185.91 428.393C185.344 428.724 184.683 428.889 183.926 428.889C183.147 428.889 182.443 428.697 181.814 428.313C181.184 427.929 180.688 427.39 180.326 426.697C179.963 426.004 179.782 425.214 179.782 424.329ZM187.206 424.345C187.206 423.684 187.072 423.108 186.806 422.617C186.539 422.126 186.176 421.753 185.718 421.497C185.27 421.23 184.774 421.097 184.23 421.097C183.686 421.097 183.19 421.225 182.742 421.481C182.294 421.737 181.936 422.11 181.67 422.601C181.403 423.092 181.27 423.668 181.27 424.329C181.27 425.001 181.403 425.588 181.67 426.089C181.936 426.58 182.294 426.958 182.742 427.225C183.19 427.481 183.686 427.609 184.23 427.609C184.774 427.609 185.27 427.481 185.718 427.225C186.176 426.958 186.539 426.58 186.806 426.089C187.072 425.588 187.206 425.006 187.206 424.345ZM192.594 416.905V428.745H191.138V416.905H192.594ZM202.852 419.977V428.745H201.396V427.449C201.118 427.897 200.729 428.249 200.228 428.505C199.737 428.75 199.193 428.873 198.596 428.873C197.913 428.873 197.3 428.734 196.756 428.457C196.212 428.169 195.78 427.742 195.46 427.177C195.15 426.612 194.996 425.924 194.996 425.113V419.977H196.436V424.921C196.436 425.785 196.654 426.452 197.092 426.921C197.529 427.38 198.126 427.609 198.884 427.609C199.662 427.609 200.276 427.369 200.724 426.889C201.172 426.409 201.396 425.71 201.396 424.793V419.977H202.852ZM204.766 424.329C204.766 423.433 204.947 422.649 205.31 421.977C205.673 421.294 206.169 420.766 206.798 420.393C207.438 420.02 208.147 419.833 208.926 419.833C209.694 419.833 210.361 419.998 210.926 420.329C211.491 420.66 211.913 421.076 212.19 421.577V419.977H213.662V428.745H212.19V427.113C211.902 427.625 211.47 428.052 210.894 428.393C210.329 428.724 209.667 428.889 208.91 428.889C208.131 428.889 207.427 428.697 206.798 428.313C206.169 427.929 205.673 427.39 205.31 426.697C204.947 426.004 204.766 425.214 204.766 424.329ZM212.19 424.345C212.19 423.684 212.057 423.108 211.79 422.617C211.523 422.126 211.161 421.753 210.702 421.497C210.254 421.23 209.758 421.097 209.214 421.097C208.67 421.097 208.174 421.225 207.726 421.481C207.278 421.737 206.921 422.11 206.654 422.601C206.387 423.092 206.254 423.668 206.254 424.329C206.254 425.001 206.387 425.588 206.654 426.089C206.921 426.58 207.278 426.958 207.726 427.225C208.174 427.481 208.67 427.609 209.214 427.609C209.758 427.609 210.254 427.481 210.702 427.225C211.161 426.958 211.523 426.58 211.79 426.089C212.057 425.588 212.19 425.006 212.19 424.345ZM217.899 421.177V426.345C217.899 426.772 217.989 427.076 218.171 427.257C218.352 427.428 218.667 427.513 219.115 427.513H220.187V428.745H218.875C218.064 428.745 217.456 428.558 217.051 428.185C216.645 427.812 216.443 427.198 216.443 426.345V421.177H215.307V419.977H216.443V417.769H217.899V419.977H220.187V421.177H217.899ZM222.703 418.553C222.425 418.553 222.191 418.457 221.999 418.265C221.807 418.073 221.711 417.838 221.711 417.561C221.711 417.284 221.807 417.049 221.999 416.857C222.191 416.665 222.425 416.569 222.703 416.569C222.969 416.569 223.193 416.665 223.375 416.857C223.567 417.049 223.663 417.284 223.663 417.561C223.663 417.838 223.567 418.073 223.375 418.265C223.193 418.457 222.969 418.553 222.703 418.553ZM223.407 419.977V428.745H221.951V419.977H223.407ZM229.712 428.889C228.891 428.889 228.144 428.702 227.472 428.329C226.811 427.956 226.288 427.428 225.904 426.745C225.531 426.052 225.344 425.252 225.344 424.345C225.344 423.449 225.536 422.66 225.92 421.977C226.315 421.284 226.848 420.756 227.52 420.393C228.192 420.02 228.944 419.833 229.776 419.833C230.608 419.833 231.36 420.02 232.032 420.393C232.704 420.756 233.232 421.278 233.616 421.961C234.011 422.644 234.208 423.438 234.208 424.345C234.208 425.252 234.006 426.052 233.6 426.745C233.206 427.428 232.667 427.956 231.984 428.329C231.302 428.702 230.544 428.889 229.712 428.889ZM229.712 427.609C230.235 427.609 230.726 427.486 231.184 427.241C231.643 426.996 232.011 426.628 232.288 426.137C232.576 425.646 232.72 425.049 232.72 424.345C232.72 423.641 232.582 423.044 232.304 422.553C232.027 422.062 231.664 421.7 231.216 421.465C230.768 421.22 230.283 421.097 229.76 421.097C229.227 421.097 228.736 421.22 228.288 421.465C227.851 421.7 227.499 422.062 227.232 422.553C226.966 423.044 226.832 423.641 226.832 424.345C226.832 425.06 226.96 425.662 227.216 426.153C227.483 426.644 227.835 427.012 228.272 427.257C228.71 427.492 229.19 427.609 229.712 427.609ZM240.395 419.817C241.461 419.817 242.325 420.142 242.987 420.793C243.648 421.433 243.979 422.361 243.979 423.577V428.745H242.539V423.785C242.539 422.91 242.32 422.244 241.883 421.785C241.445 421.316 240.848 421.081 240.091 421.081C239.323 421.081 238.709 421.321 238.251 421.801C237.803 422.281 237.579 422.98 237.579 423.897V428.745H236.123V419.977H237.579V421.225C237.867 420.777 238.256 420.43 238.747 420.185C239.248 419.94 239.797 419.817 240.395 419.817ZM254.447 428.889C253.625 428.889 252.879 428.702 252.207 428.329C251.545 427.956 251.023 427.428 250.639 426.745C250.265 426.052 250.079 425.252 250.079 424.345C250.079 423.449 250.271 422.66 250.655 421.977C251.049 421.284 251.583 420.756 252.255 420.393C252.927 420.02 253.679 419.833 254.511 419.833C255.343 419.833 256.095 420.02 256.767 420.393C257.439 420.756 257.967 421.278 258.351 421.961C258.745 422.644 258.943 423.438 258.943 424.345C258.943 425.252 258.74 426.052 258.335 426.745C257.94 427.428 257.401 427.956 256.719 428.329C256.036 428.702 255.279 428.889 254.447 428.889ZM254.447 427.609C254.969 427.609 255.46 427.486 255.919 427.241C256.377 426.996 256.745 426.628 257.023 426.137C257.311 425.646 257.455 425.049 257.455 424.345C257.455 423.641 257.316 423.044 257.039 422.553C256.761 422.062 256.399 421.7 255.951 421.465C255.503 421.22 255.017 421.097 254.495 421.097C253.961 421.097 253.471 421.22 253.023 421.465C252.585 421.7 252.233 422.062 251.967 422.553C251.7 423.044 251.567 423.641 251.567 424.345C251.567 425.06 251.695 425.662 251.951 426.153C252.217 426.644 252.569 427.012 253.007 427.257C253.444 427.492 253.924 427.609 254.447 427.609ZM264.425 421.177H262.585V428.745H261.129V421.177H259.993V419.977H261.129V419.353C261.129 418.372 261.38 417.657 261.881 417.209C262.393 416.75 263.209 416.521 264.329 416.521V417.737C263.689 417.737 263.236 417.865 262.969 418.121C262.713 418.366 262.585 418.777 262.585 419.353V419.977H264.425V421.177ZM56.7996 443.977L51.5196 456.873H50.0156L51.7436 452.649L48.2076 443.977H49.8236L52.5756 451.081L55.2956 443.977H56.7996ZM62.0873 452.889C61.2659 452.889 60.5193 452.702 59.8473 452.329C59.1859 451.956 58.6633 451.428 58.2793 450.745C57.9059 450.052 57.7193 449.252 57.7193 448.345C57.7193 447.449 57.9113 446.66 58.2953 445.977C58.6899 445.284 59.2233 444.756 59.8953 444.393C60.5673 444.02 61.3193 443.833 62.1513 443.833C62.9833 443.833 63.7353 444.02 64.4073 444.393C65.0793 444.756 65.6073 445.278 65.9913 445.961C66.3859 446.644 66.5833 447.438 66.5833 448.345C66.5833 449.252 66.3806 450.052 65.9753 450.745C65.5806 451.428 65.0419 451.956 64.3593 452.329C63.6766 452.702 62.9193 452.889 62.0873 452.889ZM62.0873 451.609C62.6099 451.609 63.1006 451.486 63.5593 451.241C64.0179 450.996 64.3859 450.628 64.6633 450.137C64.9513 449.646 65.0953 449.049 65.0953 448.345C65.0953 447.641 64.9566 447.044 64.6793 446.553C64.4019 446.062 64.0393 445.7 63.5913 445.465C63.1433 445.22 62.6579 445.097 62.1353 445.097C61.6019 445.097 61.1113 445.22 60.6633 445.465C60.2259 445.7 59.8739 446.062 59.6073 446.553C59.3406 447.044 59.2073 447.641 59.2073 448.345C59.2073 449.06 59.3353 449.662 59.5913 450.153C59.8579 450.644 60.2099 451.012 60.6473 451.257C61.0846 451.492 61.5646 451.609 62.0873 451.609ZM76.2736 443.977V452.745H74.8176V451.449C74.5403 451.897 74.151 452.249 73.6496 452.505C73.159 452.75 72.615 452.873 72.0176 452.873C71.335 452.873 70.7216 452.734 70.1776 452.457C69.6336 452.169 69.2016 451.742 68.8816 451.177C68.5723 450.612 68.4176 449.924 68.4176 449.113V443.977H69.8576V448.921C69.8576 449.785 70.0763 450.452 70.5136 450.921C70.951 451.38 71.5483 451.609 72.3056 451.609C73.0843 451.609 73.6976 451.369 74.1456 450.889C74.5936 450.409 74.8176 449.71 74.8176 448.793V443.977H76.2736ZM80.188 445.401C80.444 444.9 80.8067 444.51 81.276 444.233C81.756 443.956 82.3373 443.817 83.02 443.817V445.321H82.636C81.004 445.321 80.188 446.206 80.188 447.977V452.745H78.732V443.977H80.188V445.401ZM90.4224 445.609C90.721 445.086 91.1584 444.66 91.7344 444.329C92.3104 443.998 92.9664 443.833 93.7024 443.833C94.4917 443.833 95.201 444.02 95.8304 444.393C96.4597 444.766 96.9557 445.294 97.3184 445.977C97.681 446.649 97.8624 447.433 97.8624 448.329C97.8624 449.214 97.681 450.004 97.3184 450.697C96.9557 451.39 96.4544 451.929 95.8144 452.313C95.185 452.697 94.481 452.889 93.7024 452.889C92.945 452.889 92.2784 452.724 91.7024 452.393C91.137 452.062 90.7104 451.641 90.4224 451.129V452.745H88.9664V440.905H90.4224V445.609ZM96.3744 448.329C96.3744 447.668 96.241 447.092 95.9744 446.601C95.7077 446.11 95.345 445.737 94.8864 445.481C94.4384 445.225 93.9424 445.097 93.3984 445.097C92.865 445.097 92.369 445.23 91.9104 445.497C91.4624 445.753 91.0997 446.132 90.8224 446.633C90.5557 447.124 90.4224 447.694 90.4224 448.345C90.4224 449.006 90.5557 449.588 90.8224 450.089C91.0997 450.58 91.4624 450.958 91.9104 451.225C92.369 451.481 92.865 451.609 93.3984 451.609C93.9424 451.609 94.4384 451.481 94.8864 451.225C95.345 450.958 95.7077 450.58 95.9744 450.089C96.241 449.588 96.3744 449.001 96.3744 448.329ZM107.555 443.977V452.745H106.099V451.449C105.822 451.897 105.432 452.249 104.931 452.505C104.44 452.75 103.896 452.873 103.299 452.873C102.616 452.873 102.003 452.734 101.459 452.457C100.915 452.169 100.483 451.742 100.163 451.177C99.8535 450.612 99.6989 449.924 99.6989 449.113V443.977H101.139V448.921C101.139 449.785 101.358 450.452 101.795 450.921C102.232 451.38 102.83 451.609 103.587 451.609C104.366 451.609 104.979 451.369 105.427 450.889C105.875 450.409 106.099 449.71 106.099 448.793V443.977H107.555ZM113.117 452.889C112.445 452.889 111.843 452.777 111.309 452.553C110.776 452.318 110.355 451.998 110.045 451.593C109.736 451.177 109.565 450.702 109.533 450.169H111.037C111.08 450.606 111.283 450.964 111.645 451.241C112.019 451.518 112.504 451.657 113.101 451.657C113.656 451.657 114.093 451.534 114.413 451.289C114.733 451.044 114.893 450.734 114.893 450.361C114.893 449.977 114.723 449.694 114.381 449.513C114.04 449.321 113.512 449.134 112.797 448.953C112.147 448.782 111.613 448.612 111.197 448.441C110.792 448.26 110.44 447.998 110.141 447.657C109.853 447.305 109.709 446.846 109.709 446.281C109.709 445.833 109.843 445.422 110.109 445.049C110.376 444.676 110.755 444.382 111.245 444.169C111.736 443.945 112.296 443.833 112.925 443.833C113.896 443.833 114.68 444.078 115.277 444.569C115.875 445.06 116.195 445.732 116.237 446.585H114.781C114.749 446.126 114.563 445.758 114.221 445.481C113.891 445.204 113.443 445.065 112.877 445.065C112.355 445.065 111.939 445.177 111.629 445.401C111.32 445.625 111.165 445.918 111.165 446.281C111.165 446.569 111.256 446.809 111.437 447.001C111.629 447.182 111.864 447.332 112.141 447.449C112.429 447.556 112.824 447.678 113.325 447.817C113.955 447.988 114.467 448.158 114.861 448.329C115.256 448.489 115.592 448.734 115.869 449.065C116.157 449.396 116.307 449.828 116.317 450.361C116.317 450.841 116.184 451.273 115.917 451.657C115.651 452.041 115.272 452.345 114.781 452.569C114.301 452.782 113.747 452.889 113.117 452.889ZM119.125 442.553C118.847 442.553 118.613 442.457 118.421 442.265C118.229 442.073 118.133 441.838 118.133 441.561C118.133 441.284 118.229 441.049 118.421 440.857C118.613 440.665 118.847 440.569 119.125 440.569C119.391 440.569 119.615 440.665 119.797 440.857C119.989 441.049 120.085 441.284 120.085 441.561C120.085 441.838 119.989 442.073 119.797 442.265C119.615 442.457 119.391 442.553 119.125 442.553ZM119.829 443.977V452.745H118.373V443.977H119.829ZM126.582 443.817C127.649 443.817 128.513 444.142 129.174 444.793C129.835 445.433 130.166 446.361 130.166 447.577V452.745H128.726V447.785C128.726 446.91 128.507 446.244 128.07 445.785C127.633 445.316 127.035 445.081 126.278 445.081C125.51 445.081 124.897 445.321 124.438 445.801C123.99 446.281 123.766 446.98 123.766 447.897V452.745H122.31V443.977H123.766V445.225C124.054 444.777 124.443 444.43 124.934 444.185C125.435 443.94 125.985 443.817 126.582 443.817ZM140.545 448.025C140.545 448.302 140.529 448.596 140.497 448.905H133.489C133.542 449.769 133.835 450.446 134.369 450.937C134.913 451.417 135.569 451.657 136.337 451.657C136.966 451.657 137.489 451.513 137.905 451.225C138.331 450.926 138.63 450.532 138.801 450.041H140.369C140.134 450.884 139.665 451.572 138.961 452.105C138.257 452.628 137.382 452.889 136.337 452.889C135.505 452.889 134.758 452.702 134.097 452.329C133.446 451.956 132.934 451.428 132.561 450.745C132.187 450.052 132.001 449.252 132.001 448.345C132.001 447.438 132.182 446.644 132.545 445.961C132.907 445.278 133.414 444.756 134.065 444.393C134.726 444.02 135.483 443.833 136.337 443.833C137.169 443.833 137.905 444.014 138.545 444.377C139.185 444.74 139.675 445.241 140.017 445.881C140.369 446.51 140.545 447.225 140.545 448.025ZM139.041 447.721C139.041 447.166 138.918 446.692 138.673 446.297C138.427 445.892 138.091 445.588 137.665 445.385C137.249 445.172 136.785 445.065 136.273 445.065C135.537 445.065 134.907 445.3 134.385 445.769C133.873 446.238 133.579 446.889 133.505 447.721H139.041ZM145.57 452.889C144.898 452.889 144.296 452.777 143.762 452.553C143.229 452.318 142.808 451.998 142.498 451.593C142.189 451.177 142.018 450.702 141.986 450.169H143.49C143.533 450.606 143.736 450.964 144.098 451.241C144.472 451.518 144.957 451.657 145.554 451.657C146.109 451.657 146.546 451.534 146.866 451.289C147.186 451.044 147.346 450.734 147.346 450.361C147.346 449.977 147.176 449.694 146.834 449.513C146.493 449.321 145.965 449.134 145.25 448.953C144.6 448.782 144.066 448.612 143.65 448.441C143.245 448.26 142.893 447.998 142.594 447.657C142.306 447.305 142.162 446.846 142.162 446.281C142.162 445.833 142.296 445.422 142.562 445.049C142.829 444.676 143.208 444.382 143.698 444.169C144.189 443.945 144.749 443.833 145.378 443.833C146.349 443.833 147.133 444.078 147.73 444.569C148.328 445.06 148.648 445.732 148.69 446.585H147.234C147.202 446.126 147.016 445.758 146.674 445.481C146.344 445.204 145.896 445.065 145.33 445.065C144.808 445.065 144.392 445.177 144.082 445.401C143.773 445.625 143.618 445.918 143.618 446.281C143.618 446.569 143.709 446.809 143.89 447.001C144.082 447.182 144.317 447.332 144.594 447.449C144.882 447.556 145.277 447.678 145.778 447.817C146.408 447.988 146.92 448.158 147.314 448.329C147.709 448.489 148.045 448.734 148.322 449.065C148.61 449.396 148.76 449.828 148.77 450.361C148.77 450.841 148.637 451.273 148.37 451.657C148.104 452.041 147.725 452.345 147.234 452.569C146.754 452.782 146.2 452.889 145.57 452.889ZM153.93 452.889C153.258 452.889 152.655 452.777 152.122 452.553C151.588 452.318 151.167 451.998 150.858 451.593C150.548 451.177 150.378 450.702 150.346 450.169H151.85C151.892 450.606 152.095 450.964 152.458 451.241C152.831 451.518 153.316 451.657 153.914 451.657C154.468 451.657 154.906 451.534 155.226 451.289C155.546 451.044 155.706 450.734 155.706 450.361C155.706 449.977 155.535 449.694 155.194 449.513C154.852 449.321 154.324 449.134 153.61 448.953C152.959 448.782 152.426 448.612 152.01 448.441C151.604 448.26 151.252 447.998 150.954 447.657C150.666 447.305 150.522 446.846 150.522 446.281C150.522 445.833 150.655 445.422 150.922 445.049C151.188 444.676 151.567 444.382 152.058 444.169C152.548 443.945 153.108 443.833 153.738 443.833C154.708 443.833 155.492 444.078 156.09 444.569C156.687 445.06 157.007 445.732 157.05 446.585H155.594C155.562 446.126 155.375 445.758 155.034 445.481C154.703 445.204 154.255 445.065 153.69 445.065C153.167 445.065 152.751 445.177 152.442 445.401C152.132 445.625 151.978 445.918 151.978 446.281C151.978 446.569 152.068 446.809 152.25 447.001C152.442 447.182 152.676 447.332 152.954 447.449C153.242 447.556 153.636 447.678 154.138 447.817C154.767 447.988 155.279 448.158 155.674 448.329C156.068 448.489 156.404 448.734 156.682 449.065C156.97 449.396 157.119 449.828 157.13 450.361C157.13 450.841 156.996 451.273 156.73 451.657C156.463 452.041 156.084 452.345 155.594 452.569C155.114 452.782 154.559 452.889 153.93 452.889ZM164.907 445.401C165.163 444.9 165.525 444.51 165.995 444.233C166.475 443.956 167.056 443.817 167.739 443.817V445.321H167.355C165.723 445.321 164.907 446.206 164.907 447.977V452.745H163.451V443.977H164.907V445.401ZM177.42 448.025C177.42 448.302 177.404 448.596 177.372 448.905H170.364C170.417 449.769 170.71 450.446 171.244 450.937C171.788 451.417 172.444 451.657 173.212 451.657C173.841 451.657 174.364 451.513 174.78 451.225C175.206 450.926 175.505 450.532 175.676 450.041H177.244C177.009 450.884 176.54 451.572 175.836 452.105C175.132 452.628 174.257 452.889 173.212 452.889C172.38 452.889 171.633 452.702 170.972 452.329C170.321 451.956 169.809 451.428 169.436 450.745C169.062 450.052 168.876 449.252 168.876 448.345C168.876 447.438 169.057 446.644 169.42 445.961C169.782 445.278 170.289 444.756 170.94 444.393C171.601 444.02 172.358 443.833 173.212 443.833C174.044 443.833 174.78 444.014 175.42 444.377C176.06 444.74 176.55 445.241 176.892 445.881C177.244 446.51 177.42 447.225 177.42 448.025ZM175.916 447.721C175.916 447.166 175.793 446.692 175.548 446.297C175.302 445.892 174.966 445.588 174.54 445.385C174.124 445.172 173.66 445.065 173.148 445.065C172.412 445.065 171.782 445.3 171.26 445.769C170.748 446.238 170.454 446.889 170.38 447.721H175.916ZM178.797 448.329C178.797 447.433 178.979 446.649 179.341 445.977C179.704 445.294 180.2 444.766 180.829 444.393C181.469 444.02 182.184 443.833 182.973 443.833C183.731 443.833 184.392 444.004 184.957 444.345C185.533 444.676 185.955 445.086 186.221 445.577V443.977H187.693V456.905H186.221V451.129C185.944 451.62 185.517 452.036 184.941 452.377C184.365 452.718 183.693 452.889 182.925 452.889C182.157 452.889 181.459 452.697 180.829 452.313C180.2 451.929 179.704 451.39 179.341 450.697C178.979 450.004 178.797 449.214 178.797 448.329ZM186.221 448.345C186.221 447.684 186.088 447.108 185.821 446.617C185.555 446.126 185.192 445.753 184.733 445.497C184.285 445.23 183.789 445.097 183.245 445.097C182.701 445.097 182.205 445.225 181.757 445.481C181.309 445.737 180.952 446.11 180.685 446.601C180.419 447.092 180.285 447.668 180.285 448.329C180.285 449.001 180.419 449.588 180.685 450.089C180.952 450.58 181.309 450.958 181.757 451.225C182.205 451.481 182.701 451.609 183.245 451.609C183.789 451.609 184.285 451.481 184.733 451.225C185.192 450.958 185.555 450.58 185.821 450.089C186.088 449.588 186.221 449.006 186.221 448.345ZM197.93 443.977V452.745H196.474V451.449C196.197 451.897 195.807 452.249 195.306 452.505C194.815 452.75 194.271 452.873 193.674 452.873C192.991 452.873 192.378 452.734 191.834 452.457C191.29 452.169 190.858 451.742 190.538 451.177C190.229 450.612 190.074 449.924 190.074 449.113V443.977H191.514V448.921C191.514 449.785 191.733 450.452 192.17 450.921C192.607 451.38 193.205 451.609 193.962 451.609C194.741 451.609 195.354 451.369 195.802 450.889C196.25 450.409 196.474 449.71 196.474 448.793V443.977H197.93ZM201.14 442.553C200.863 442.553 200.628 442.457 200.436 442.265C200.244 442.073 200.148 441.838 200.148 441.561C200.148 441.284 200.244 441.049 200.436 440.857C200.628 440.665 200.863 440.569 201.14 440.569C201.407 440.569 201.631 440.665 201.812 440.857C202.004 441.049 202.1 441.284 202.1 441.561C202.1 441.838 202.004 442.073 201.812 442.265C201.631 442.457 201.407 442.553 201.14 442.553ZM201.844 443.977V452.745H200.388V443.977H201.844ZM205.782 445.401C206.038 444.9 206.4 444.51 206.87 444.233C207.35 443.956 207.931 443.817 208.614 443.817V445.321H208.23C206.598 445.321 205.782 446.206 205.782 447.977V452.745H204.326V443.977H205.782V445.401ZM218.295 448.025C218.295 448.302 218.279 448.596 218.247 448.905H211.239C211.292 449.769 211.585 450.446 212.119 450.937C212.663 451.417 213.319 451.657 214.087 451.657C214.716 451.657 215.239 451.513 215.655 451.225C216.081 450.926 216.38 450.532 216.551 450.041H218.119C217.884 450.884 217.415 451.572 216.711 452.105C216.007 452.628 215.132 452.889 214.087 452.889C213.255 452.889 212.508 452.702 211.847 452.329C211.196 451.956 210.684 451.428 210.311 450.745C209.937 450.052 209.751 449.252 209.751 448.345C209.751 447.438 209.932 446.644 210.295 445.961C210.657 445.278 211.164 444.756 211.815 444.393C212.476 444.02 213.233 443.833 214.087 443.833C214.919 443.833 215.655 444.014 216.295 444.377C216.935 444.74 217.425 445.241 217.767 445.881C218.119 446.51 218.295 447.225 218.295 448.025ZM216.791 447.721C216.791 447.166 216.668 446.692 216.423 446.297C216.177 445.892 215.841 445.588 215.415 445.385C214.999 445.172 214.535 445.065 214.023 445.065C213.287 445.065 212.657 445.3 212.135 445.769C211.623 446.238 211.329 446.889 211.255 447.721H216.791ZM230.76 443.817C231.443 443.817 232.051 443.961 232.584 444.249C233.118 444.526 233.539 444.948 233.848 445.513C234.158 446.078 234.312 446.766 234.312 447.577V452.745H232.872V447.785C232.872 446.91 232.654 446.244 232.216 445.785C231.79 445.316 231.208 445.081 230.472 445.081C229.715 445.081 229.112 445.326 228.664 445.817C228.216 446.297 227.992 446.996 227.992 447.913V452.745H226.552V447.785C226.552 446.91 226.334 446.244 225.896 445.785C225.47 445.316 224.888 445.081 224.152 445.081C223.395 445.081 222.792 445.326 222.344 445.817C221.896 446.297 221.672 446.996 221.672 447.913V452.745H220.216V443.977H221.672V445.241C221.96 444.782 222.344 444.43 222.824 444.185C223.315 443.94 223.854 443.817 224.44 443.817C225.176 443.817 225.827 443.982 226.392 444.313C226.958 444.644 227.379 445.129 227.656 445.769C227.902 445.15 228.307 444.67 228.872 444.329C229.438 443.988 230.067 443.817 230.76 443.817ZM244.701 448.025C244.701 448.302 244.685 448.596 244.653 448.905H237.645C237.698 449.769 237.991 450.446 238.525 450.937C239.069 451.417 239.725 451.657 240.493 451.657C241.122 451.657 241.645 451.513 242.061 451.225C242.487 450.926 242.786 450.532 242.957 450.041H244.525C244.29 450.884 243.821 451.572 243.117 452.105C242.413 452.628 241.538 452.889 240.493 452.889C239.661 452.889 238.914 452.702 238.253 452.329C237.602 451.956 237.09 451.428 236.717 450.745C236.343 450.052 236.157 449.252 236.157 448.345C236.157 447.438 236.338 446.644 236.701 445.961C237.063 445.278 237.57 444.756 238.221 444.393C238.882 444.02 239.639 443.833 240.493 443.833C241.325 443.833 242.061 444.014 242.701 444.377C243.341 444.74 243.831 445.241 244.173 445.881C244.525 446.51 244.701 447.225 244.701 448.025ZM243.197 447.721C243.197 447.166 243.074 446.692 242.829 446.297C242.583 445.892 242.247 445.588 241.821 445.385C241.405 445.172 240.941 445.065 240.429 445.065C239.693 445.065 239.063 445.3 238.541 445.769C238.029 446.238 237.735 446.889 237.661 447.721H243.197ZM250.895 443.817C251.961 443.817 252.825 444.142 253.487 444.793C254.148 445.433 254.479 446.361 254.479 447.577V452.745H253.039V447.785C253.039 446.91 252.82 446.244 252.383 445.785C251.945 445.316 251.348 445.081 250.591 445.081C249.823 445.081 249.209 445.321 248.751 445.801C248.303 446.281 248.079 446.98 248.079 447.897V452.745H246.623V443.977H248.079V445.225C248.367 444.777 248.756 444.43 249.247 444.185C249.748 443.94 250.297 443.817 250.895 443.817ZM258.633 445.177V450.345C258.633 450.772 258.724 451.076 258.905 451.257C259.086 451.428 259.401 451.513 259.849 451.513H260.921V452.745H259.609C258.798 452.745 258.19 452.558 257.785 452.185C257.38 451.812 257.177 451.198 257.177 450.345V445.177H256.041V443.977H257.177V441.769H258.633V443.977H260.921V445.177H258.633ZM265.789 452.889C265.117 452.889 264.514 452.777 263.981 452.553C263.448 452.318 263.026 451.998 262.717 451.593C262.408 451.177 262.237 450.702 262.205 450.169H263.709C263.752 450.606 263.954 450.964 264.317 451.241C264.69 451.518 265.176 451.657 265.773 451.657C266.328 451.657 266.765 451.534 267.085 451.289C267.405 451.044 267.565 450.734 267.565 450.361C267.565 449.977 267.394 449.694 267.053 449.513C266.712 449.321 266.184 449.134 265.469 448.953C264.818 448.782 264.285 448.612 263.869 448.441C263.464 448.26 263.112 447.998 262.813 447.657C262.525 447.305 262.381 446.846 262.381 446.281C262.381 445.833 262.514 445.422 262.781 445.049C263.048 444.676 263.426 444.382 263.917 444.169C264.408 443.945 264.968 443.833 265.597 443.833C266.568 443.833 267.352 444.078 267.949 444.569C268.546 445.06 268.866 445.732 268.909 446.585H267.453C267.421 446.126 267.234 445.758 266.893 445.481C266.562 445.204 266.114 445.065 265.549 445.065C265.026 445.065 264.61 445.177 264.301 445.401C263.992 445.625 263.837 445.918 263.837 446.281C263.837 446.569 263.928 446.809 264.109 447.001C264.301 447.182 264.536 447.332 264.813 447.449C265.101 447.556 265.496 447.678 265.997 447.817C266.626 447.988 267.138 448.158 267.533 448.329C267.928 448.489 268.264 448.734 268.541 449.065C268.829 449.396 268.978 449.828 268.989 450.361C268.989 450.841 268.856 451.273 268.589 451.657C268.322 452.041 267.944 452.345 267.453 452.569C266.973 452.782 266.418 452.889 265.789 452.889ZM272.549 450.729L270.757 455.033H269.78L270.949 450.729H272.549ZM52.3529 476.889C51.5315 476.889 50.7849 476.702 50.1129 476.329C49.4515 475.956 48.9289 475.428 48.5449 474.745C48.1715 474.052 47.9849 473.252 47.9849 472.345C47.9849 471.449 48.1769 470.66 48.5609 469.977C48.9555 469.284 49.4889 468.756 50.1609 468.393C50.8329 468.02 51.5849 467.833 52.4169 467.833C53.2489 467.833 54.0009 468.02 54.6729 468.393C55.3449 468.756 55.8729 469.278 56.2569 469.961C56.6515 470.644 56.8489 471.438 56.8489 472.345C56.8489 473.252 56.6462 474.052 56.2409 474.745C55.8462 475.428 55.3075 475.956 54.6249 476.329C53.9422 476.702 53.1849 476.889 52.3529 476.889ZM52.3529 475.609C52.8755 475.609 53.3662 475.486 53.8249 475.241C54.2835 474.996 54.6515 474.628 54.9289 474.137C55.2169 473.646 55.3609 473.049 55.3609 472.345C55.3609 471.641 55.2222 471.044 54.9449 470.553C54.6675 470.062 54.3049 469.7 53.8569 469.465C53.4089 469.22 52.9235 469.097 52.4009 469.097C51.8675 469.097 51.3769 469.22 50.9289 469.465C50.4915 469.7 50.1395 470.062 49.8729 470.553C49.6062 471.044 49.4729 471.641 49.4729 472.345C49.4729 473.06 49.6009 473.662 49.8569 474.153C50.1235 474.644 50.4755 475.012 50.9129 475.257C51.3502 475.492 51.8302 475.609 52.3529 475.609ZM66.5393 467.977V476.745H65.0833V475.449C64.8059 475.897 64.4166 476.249 63.9153 476.505C63.4246 476.75 62.8806 476.873 62.2833 476.873C61.6006 476.873 60.9873 476.734 60.4433 476.457C59.8993 476.169 59.4673 475.742 59.1473 475.177C58.8379 474.612 58.6833 473.924 58.6833 473.113V467.977H60.1233V472.921C60.1233 473.785 60.3419 474.452 60.7793 474.921C61.2166 475.38 61.8139 475.609 62.5713 475.609C63.3499 475.609 63.9633 475.369 64.4113 474.889C64.8593 474.409 65.0833 473.71 65.0833 472.793V467.977H66.5393ZM70.4536 469.401C70.7096 468.9 71.0723 468.51 71.5416 468.233C72.0216 467.956 72.603 467.817 73.2856 467.817V469.321H72.9016C71.2696 469.321 70.4536 470.206 70.4536 471.977V476.745H68.9976V467.977H70.4536V469.401ZM82.336 476.889C81.664 476.889 81.0613 476.777 80.528 476.553C79.9947 476.318 79.5733 475.998 79.264 475.593C78.9547 475.177 78.784 474.702 78.752 474.169H80.256C80.2987 474.606 80.5013 474.964 80.864 475.241C81.2373 475.518 81.7227 475.657 82.32 475.657C82.8747 475.657 83.312 475.534 83.632 475.289C83.952 475.044 84.112 474.734 84.112 474.361C84.112 473.977 83.9413 473.694 83.6 473.513C83.2587 473.321 82.7307 473.134 82.016 472.953C81.3653 472.782 80.832 472.612 80.416 472.441C80.0107 472.26 79.6587 471.998 79.36 471.657C79.072 471.305 78.928 470.846 78.928 470.281C78.928 469.833 79.0613 469.422 79.328 469.049C79.5947 468.676 79.9733 468.382 80.464 468.169C80.9547 467.945 81.5147 467.833 82.144 467.833C83.1147 467.833 83.8987 468.078 84.496 468.569C85.0933 469.06 85.4133 469.732 85.456 470.585H84C83.968 470.126 83.7813 469.758 83.44 469.481C83.1093 469.204 82.6613 469.065 82.096 469.065C81.5733 469.065 81.1573 469.177 80.848 469.401C80.5387 469.625 80.384 469.918 80.384 470.281C80.384 470.569 80.4747 470.809 80.656 471.001C80.848 471.182 81.0827 471.332 81.36 471.449C81.648 471.556 82.0427 471.678 82.544 471.817C83.1733 471.988 83.6853 472.158 84.08 472.329C84.4747 472.489 84.8107 472.734 85.088 473.065C85.376 473.396 85.5253 473.828 85.536 474.361C85.536 474.841 85.4027 475.273 85.136 475.657C84.8693 476.041 84.4907 476.345 84 476.569C83.52 476.782 82.9653 476.889 82.336 476.889ZM87.0474 472.329C87.0474 471.433 87.2287 470.649 87.5914 469.977C87.954 469.294 88.45 468.766 89.0794 468.393C89.7194 468.02 90.4287 467.833 91.2074 467.833C91.9754 467.833 92.642 467.998 93.2074 468.329C93.7727 468.66 94.194 469.076 94.4714 469.577V467.977H95.9434V476.745H94.4714V475.113C94.1834 475.625 93.7514 476.052 93.1754 476.393C92.61 476.724 91.9487 476.889 91.1914 476.889C90.4127 476.889 89.7087 476.697 89.0794 476.313C88.45 475.929 87.954 475.39 87.5914 474.697C87.2287 474.004 87.0474 473.214 87.0474 472.329ZM94.4714 472.345C94.4714 471.684 94.338 471.108 94.0714 470.617C93.8047 470.126 93.442 469.753 92.9834 469.497C92.5354 469.23 92.0394 469.097 91.4954 469.097C90.9514 469.097 90.4554 469.225 90.0074 469.481C89.5594 469.737 89.202 470.11 88.9354 470.601C88.6687 471.092 88.5354 471.668 88.5354 472.329C88.5354 473.001 88.6687 473.588 88.9354 474.089C89.202 474.58 89.5594 474.958 90.0074 475.225C90.4554 475.481 90.9514 475.609 91.4954 475.609C92.0394 475.609 92.5354 475.481 92.9834 475.225C93.442 474.958 93.8047 474.58 94.0714 474.089C94.338 473.588 94.4714 473.006 94.4714 472.345ZM99.8599 464.905V476.745H98.4039V464.905H99.8599ZM110.341 472.025C110.341 472.302 110.325 472.596 110.293 472.905H103.285C103.339 473.769 103.632 474.446 104.165 474.937C104.709 475.417 105.365 475.657 106.133 475.657C106.763 475.657 107.285 475.513 107.701 475.225C108.128 474.926 108.427 474.532 108.597 474.041H110.165C109.931 474.884 109.461 475.572 108.757 476.105C108.053 476.628 107.179 476.889 106.133 476.889C105.301 476.889 104.555 476.702 103.893 476.329C103.243 475.956 102.731 475.428 102.357 474.745C101.984 474.052 101.797 473.252 101.797 472.345C101.797 471.438 101.979 470.644 102.341 469.961C102.704 469.278 103.211 468.756 103.861 468.393C104.523 468.02 105.28 467.833 106.133 467.833C106.965 467.833 107.701 468.014 108.341 468.377C108.981 468.74 109.472 469.241 109.813 469.881C110.165 470.51 110.341 471.225 110.341 472.025ZM108.837 471.721C108.837 471.166 108.715 470.692 108.469 470.297C108.224 469.892 107.888 469.588 107.461 469.385C107.045 469.172 106.581 469.065 106.069 469.065C105.333 469.065 104.704 469.3 104.181 469.769C103.669 470.238 103.376 470.889 103.301 471.721H108.837ZM115.367 476.889C114.695 476.889 114.093 476.777 113.559 476.553C113.026 476.318 112.605 475.998 112.295 475.593C111.986 475.177 111.815 474.702 111.783 474.169H113.287C113.33 474.606 113.533 474.964 113.895 475.241C114.269 475.518 114.754 475.657 115.351 475.657C115.906 475.657 116.343 475.534 116.663 475.289C116.983 475.044 117.143 474.734 117.143 474.361C117.143 473.977 116.973 473.694 116.631 473.513C116.29 473.321 115.762 473.134 115.047 472.953C114.397 472.782 113.863 472.612 113.447 472.441C113.042 472.26 112.69 471.998 112.391 471.657C112.103 471.305 111.959 470.846 111.959 470.281C111.959 469.833 112.093 469.422 112.359 469.049C112.626 468.676 113.005 468.382 113.495 468.169C113.986 467.945 114.546 467.833 115.175 467.833C116.146 467.833 116.93 468.078 117.527 468.569C118.125 469.06 118.445 469.732 118.487 470.585H117.031C116.999 470.126 116.813 469.758 116.471 469.481C116.141 469.204 115.693 469.065 115.127 469.065C114.605 469.065 114.189 469.177 113.879 469.401C113.57 469.625 113.415 469.918 113.415 470.281C113.415 470.569 113.506 470.809 113.687 471.001C113.879 471.182 114.114 471.332 114.391 471.449C114.679 471.556 115.074 471.678 115.575 471.817C116.205 471.988 116.717 472.158 117.111 472.329C117.506 472.489 117.842 472.734 118.119 473.065C118.407 473.396 118.557 473.828 118.567 474.361C118.567 474.841 118.434 475.273 118.167 475.657C117.901 476.041 117.522 476.345 117.031 476.569C116.551 476.782 115.997 476.889 115.367 476.889ZM135.432 467.817C136.115 467.817 136.723 467.961 137.256 468.249C137.79 468.526 138.211 468.948 138.52 469.513C138.83 470.078 138.984 470.766 138.984 471.577V476.745H137.544V471.785C137.544 470.91 137.326 470.244 136.888 469.785C136.462 469.316 135.88 469.081 135.144 469.081C134.387 469.081 133.784 469.326 133.336 469.817C132.888 470.297 132.664 470.996 132.664 471.913V476.745H131.224V471.785C131.224 470.91 131.006 470.244 130.568 469.785C130.142 469.316 129.56 469.081 128.824 469.081C128.067 469.081 127.464 469.326 127.016 469.817C126.568 470.297 126.344 470.996 126.344 471.913V476.745H124.888V467.977H126.344V469.241C126.632 468.782 127.016 468.43 127.496 468.185C127.987 467.94 128.526 467.817 129.112 467.817C129.848 467.817 130.499 467.982 131.064 468.313C131.63 468.644 132.051 469.129 132.328 469.769C132.574 469.15 132.979 468.67 133.544 468.329C134.11 467.988 134.739 467.817 135.432 467.817ZM140.829 472.329C140.829 471.433 141.01 470.649 141.373 469.977C141.735 469.294 142.231 468.766 142.861 468.393C143.501 468.02 144.21 467.833 144.989 467.833C145.757 467.833 146.423 467.998 146.989 468.329C147.554 468.66 147.975 469.076 148.253 469.577V467.977H149.725V476.745H148.253V475.113C147.965 475.625 147.533 476.052 146.957 476.393C146.391 476.724 145.73 476.889 144.973 476.889C144.194 476.889 143.49 476.697 142.861 476.313C142.231 475.929 141.735 475.39 141.373 474.697C141.01 474.004 140.829 473.214 140.829 472.329ZM148.253 472.345C148.253 471.684 148.119 471.108 147.853 470.617C147.586 470.126 147.223 469.753 146.765 469.497C146.317 469.23 145.821 469.097 145.277 469.097C144.733 469.097 144.237 469.225 143.789 469.481C143.341 469.737 142.983 470.11 142.717 470.601C142.45 471.092 142.317 471.668 142.317 472.329C142.317 473.001 142.45 473.588 142.717 474.089C142.983 474.58 143.341 474.958 143.789 475.225C144.237 475.481 144.733 475.609 145.277 475.609C145.821 475.609 146.317 475.481 146.765 475.225C147.223 474.958 147.586 474.58 147.853 474.089C148.119 473.588 148.253 473.006 148.253 472.345ZM156.457 467.817C157.524 467.817 158.388 468.142 159.049 468.793C159.71 469.433 160.041 470.361 160.041 471.577V476.745H158.601V471.785C158.601 470.91 158.382 470.244 157.945 469.785C157.508 469.316 156.91 469.081 156.153 469.081C155.385 469.081 154.772 469.321 154.313 469.801C153.865 470.281 153.641 470.98 153.641 471.897V476.745H152.185V467.977H153.641V469.225C153.929 468.777 154.318 468.43 154.809 468.185C155.31 467.94 155.86 467.817 156.457 467.817ZM161.876 472.329C161.876 471.433 162.057 470.649 162.42 469.977C162.782 469.294 163.278 468.766 163.908 468.393C164.548 468.02 165.257 467.833 166.036 467.833C166.804 467.833 167.47 467.998 168.036 468.329C168.601 468.66 169.022 469.076 169.3 469.577V467.977H170.772V476.745H169.3V475.113C169.012 475.625 168.58 476.052 168.004 476.393C167.438 476.724 166.777 476.889 166.02 476.889C165.241 476.889 164.537 476.697 163.908 476.313C163.278 475.929 162.782 475.39 162.42 474.697C162.057 474.004 161.876 473.214 161.876 472.329ZM169.3 472.345C169.3 471.684 169.166 471.108 168.9 470.617C168.633 470.126 168.27 469.753 167.812 469.497C167.364 469.23 166.868 469.097 166.324 469.097C165.78 469.097 165.284 469.225 164.836 469.481C164.388 469.737 164.03 470.11 163.764 470.601C163.497 471.092 163.364 471.668 163.364 472.329C163.364 473.001 163.497 473.588 163.764 474.089C164.03 474.58 164.388 474.958 164.836 475.225C165.284 475.481 165.78 475.609 166.324 475.609C166.868 475.609 167.364 475.481 167.812 475.225C168.27 474.958 168.633 474.58 168.9 474.089C169.166 473.588 169.3 473.006 169.3 472.345ZM176.848 467.833C177.605 467.833 178.267 467.998 178.832 468.329C179.408 468.66 179.835 469.076 180.112 469.577V467.977H181.584V476.937C181.584 477.737 181.413 478.446 181.072 479.065C180.731 479.694 180.24 480.185 179.6 480.537C178.971 480.889 178.235 481.065 177.392 481.065C176.24 481.065 175.28 480.793 174.512 480.249C173.744 479.705 173.291 478.964 173.152 478.025H174.592C174.752 478.558 175.083 478.985 175.584 479.305C176.085 479.636 176.688 479.801 177.392 479.801C178.192 479.801 178.843 479.55 179.344 479.049C179.856 478.548 180.112 477.844 180.112 476.937V475.097C179.824 475.609 179.397 476.036 178.832 476.377C178.267 476.718 177.605 476.889 176.848 476.889C176.069 476.889 175.36 476.697 174.72 476.313C174.091 475.929 173.595 475.39 173.232 474.697C172.869 474.004 172.688 473.214 172.688 472.329C172.688 471.433 172.869 470.649 173.232 469.977C173.595 469.294 174.091 468.766 174.72 468.393C175.36 468.02 176.069 467.833 176.848 467.833ZM180.112 472.345C180.112 471.684 179.979 471.108 179.712 470.617C179.445 470.126 179.083 469.753 178.624 469.497C178.176 469.23 177.68 469.097 177.136 469.097C176.592 469.097 176.096 469.225 175.648 469.481C175.2 469.737 174.843 470.11 174.576 470.601C174.309 471.092 174.176 471.668 174.176 472.329C174.176 473.001 174.309 473.588 174.576 474.089C174.843 474.58 175.2 474.958 175.648 475.225C176.096 475.481 176.592 475.609 177.136 475.609C177.68 475.609 178.176 475.481 178.624 475.225C179.083 474.958 179.445 474.58 179.712 474.089C179.979 473.588 180.112 473.006 180.112 472.345ZM192.045 472.025C192.045 472.302 192.029 472.596 191.997 472.905H184.989C185.042 473.769 185.335 474.446 185.869 474.937C186.413 475.417 187.069 475.657 187.837 475.657C188.466 475.657 188.989 475.513 189.405 475.225C189.831 474.926 190.13 474.532 190.301 474.041H191.869C191.634 474.884 191.165 475.572 190.461 476.105C189.757 476.628 188.882 476.889 187.837 476.889C187.005 476.889 186.258 476.702 185.597 476.329C184.946 475.956 184.434 475.428 184.061 474.745C183.687 474.052 183.501 473.252 183.501 472.345C183.501 471.438 183.682 470.644 184.045 469.961C184.407 469.278 184.914 468.756 185.565 468.393C186.226 468.02 186.983 467.833 187.837 467.833C188.669 467.833 189.405 468.014 190.045 468.377C190.685 468.74 191.175 469.241 191.517 469.881C191.869 470.51 192.045 471.225 192.045 472.025ZM190.541 471.721C190.541 471.166 190.418 470.692 190.173 470.297C189.927 469.892 189.591 469.588 189.165 469.385C188.749 469.172 188.285 469.065 187.773 469.065C187.037 469.065 186.407 469.3 185.885 469.769C185.373 470.238 185.079 470.889 185.005 471.721H190.541ZM195.422 469.401C195.678 468.9 196.041 468.51 196.51 468.233C196.99 467.956 197.572 467.817 198.254 467.817V469.321H197.87C196.238 469.321 195.422 470.206 195.422 471.977V476.745H193.966V467.977H195.422V469.401ZM203.657 472.345C203.657 471.438 203.838 470.649 204.201 469.977C204.563 469.294 205.065 468.766 205.705 468.393C206.355 468.02 207.097 467.833 207.929 467.833C209.006 467.833 209.891 468.094 210.585 468.617C211.289 469.14 211.753 469.865 211.977 470.793H210.409C210.259 470.26 209.966 469.838 209.529 469.529C209.102 469.22 208.569 469.065 207.929 469.065C207.097 469.065 206.425 469.353 205.913 469.929C205.401 470.494 205.145 471.3 205.145 472.345C205.145 473.401 205.401 474.217 205.913 474.793C206.425 475.369 207.097 475.657 207.929 475.657C208.569 475.657 209.102 475.508 209.529 475.209C209.955 474.91 210.249 474.484 210.409 473.929H211.977C211.742 474.825 211.273 475.545 210.569 476.089C209.865 476.622 208.985 476.889 207.929 476.889C207.097 476.889 206.355 476.702 205.705 476.329C205.065 475.956 204.563 475.428 204.201 474.745C203.838 474.062 203.657 473.262 203.657 472.345ZM217.744 476.889C216.922 476.889 216.176 476.702 215.504 476.329C214.842 475.956 214.32 475.428 213.936 474.745C213.562 474.052 213.376 473.252 213.376 472.345C213.376 471.449 213.568 470.66 213.952 469.977C214.346 469.284 214.88 468.756 215.552 468.393C216.224 468.02 216.976 467.833 217.808 467.833C218.64 467.833 219.392 468.02 220.064 468.393C220.736 468.756 221.264 469.278 221.648 469.961C222.042 470.644 222.24 471.438 222.24 472.345C222.24 473.252 222.037 474.052 221.632 474.745C221.237 475.428 220.698 475.956 220.016 476.329C219.333 476.702 218.576 476.889 217.744 476.889ZM217.744 475.609C218.266 475.609 218.757 475.486 219.216 475.241C219.674 474.996 220.042 474.628 220.32 474.137C220.608 473.646 220.752 473.049 220.752 472.345C220.752 471.641 220.613 471.044 220.336 470.553C220.058 470.062 219.696 469.7 219.248 469.465C218.8 469.22 218.314 469.097 217.792 469.097C217.258 469.097 216.768 469.22 216.32 469.465C215.882 469.7 215.53 470.062 215.264 470.553C214.997 471.044 214.864 471.641 214.864 472.345C214.864 473.06 214.992 473.662 215.248 474.153C215.514 474.644 215.866 475.012 216.304 475.257C216.741 475.492 217.221 475.609 217.744 475.609ZM228.426 467.817C229.493 467.817 230.357 468.142 231.018 468.793C231.679 469.433 232.01 470.361 232.01 471.577V476.745H230.57V471.785C230.57 470.91 230.351 470.244 229.914 469.785C229.477 469.316 228.879 469.081 228.122 469.081C227.354 469.081 226.741 469.321 226.282 469.801C225.834 470.281 225.61 470.98 225.61 471.897V476.745H224.154V467.977H225.61V469.225C225.898 468.777 226.287 468.43 226.778 468.185C227.279 467.94 227.829 467.817 228.426 467.817ZM236.164 469.177V474.345C236.164 474.772 236.255 475.076 236.436 475.257C236.618 475.428 236.932 475.513 237.38 475.513H238.452V476.745H237.14C236.33 476.745 235.722 476.558 235.316 476.185C234.911 475.812 234.708 475.198 234.708 474.345V469.177H233.572V467.977H234.708V465.769H236.164V467.977H238.452V469.177H236.164ZM239.672 472.329C239.672 471.433 239.854 470.649 240.216 469.977C240.579 469.294 241.075 468.766 241.704 468.393C242.344 468.02 243.054 467.833 243.832 467.833C244.6 467.833 245.267 467.998 245.832 468.329C246.398 468.66 246.819 469.076 247.096 469.577V467.977H248.568V476.745H247.096V475.113C246.808 475.625 246.376 476.052 245.8 476.393C245.235 476.724 244.574 476.889 243.816 476.889C243.038 476.889 242.334 476.697 241.704 476.313C241.075 475.929 240.579 475.39 240.216 474.697C239.854 474.004 239.672 473.214 239.672 472.329ZM247.096 472.345C247.096 471.684 246.963 471.108 246.696 470.617C246.43 470.126 246.067 469.753 245.608 469.497C245.16 469.23 244.664 469.097 244.12 469.097C243.576 469.097 243.08 469.225 242.632 469.481C242.184 469.737 241.827 470.11 241.56 470.601C241.294 471.092 241.16 471.668 241.16 472.329C241.16 473.001 241.294 473.588 241.56 474.089C241.827 474.58 242.184 474.958 242.632 475.225C243.08 475.481 243.576 475.609 244.12 475.609C244.664 475.609 245.16 475.481 245.608 475.225C246.067 474.958 246.43 474.58 246.696 474.089C246.963 473.588 247.096 473.006 247.096 472.345ZM250.485 472.345C250.485 471.438 250.666 470.649 251.029 469.977C251.392 469.294 251.893 468.766 252.533 468.393C253.184 468.02 253.925 467.833 254.757 467.833C255.834 467.833 256.72 468.094 257.413 468.617C258.117 469.14 258.581 469.865 258.805 470.793H257.237C257.088 470.26 256.794 469.838 256.357 469.529C255.93 469.22 255.397 469.065 254.757 469.065C253.925 469.065 253.253 469.353 252.741 469.929C252.229 470.494 251.973 471.3 251.973 472.345C251.973 473.401 252.229 474.217 252.741 474.793C253.253 475.369 253.925 475.657 254.757 475.657C255.397 475.657 255.93 475.508 256.357 475.209C256.784 474.91 257.077 474.484 257.237 473.929H258.805C258.57 474.825 258.101 475.545 257.397 476.089C256.693 476.622 255.813 476.889 254.757 476.889C253.925 476.889 253.184 476.702 252.533 476.329C251.893 475.956 251.392 475.428 251.029 474.745C250.666 474.062 250.485 473.262 250.485 472.345ZM262.524 469.177V474.345C262.524 474.772 262.614 475.076 262.796 475.257C262.977 475.428 263.292 475.513 263.74 475.513H264.812V476.745H263.5C262.689 476.745 262.081 476.558 261.676 476.185C261.27 475.812 261.068 475.198 261.068 474.345V469.177H259.932V467.977H261.068V465.769H262.524V467.977H264.812V469.177H262.524ZM269.68 476.889C269.008 476.889 268.405 476.777 267.872 476.553C267.338 476.318 266.917 475.998 266.608 475.593C266.298 475.177 266.128 474.702 266.096 474.169H267.6C267.642 474.606 267.845 474.964 268.208 475.241C268.581 475.518 269.066 475.657 269.664 475.657C270.218 475.657 270.656 475.534 270.976 475.289C271.296 475.044 271.456 474.734 271.456 474.361C271.456 473.977 271.285 473.694 270.944 473.513C270.602 473.321 270.074 473.134 269.36 472.953C268.709 472.782 268.176 472.612 267.76 472.441C267.354 472.26 267.002 471.998 266.704 471.657C266.416 471.305 266.272 470.846 266.272 470.281C266.272 469.833 266.405 469.422 266.672 469.049C266.938 468.676 267.317 468.382 267.808 468.169C268.298 467.945 268.858 467.833 269.488 467.833C270.458 467.833 271.242 468.078 271.84 468.569C272.437 469.06 272.757 469.732 272.8 470.585H271.344C271.312 470.126 271.125 469.758 270.784 469.481C270.453 469.204 270.005 469.065 269.44 469.065C268.917 469.065 268.501 469.177 268.192 469.401C267.882 469.625 267.728 469.918 267.728 470.281C267.728 470.569 267.818 470.809 268 471.001C268.192 471.182 268.426 471.332 268.704 471.449C268.992 471.556 269.386 471.678 269.888 471.817C270.517 471.988 271.029 472.158 271.424 472.329C271.818 472.489 272.154 472.734 272.432 473.065C272.72 473.396 272.869 473.828 272.88 474.361C272.88 474.841 272.746 475.273 272.48 475.657C272.213 476.041 271.834 476.345 271.344 476.569C270.864 476.782 270.309 476.889 269.68 476.889ZM124.464 491.977L119.184 504.873H117.68L119.408 500.649L115.872 491.977H117.488L120.24 499.081L122.96 491.977H124.464ZM129.751 500.889C128.93 500.889 128.183 500.702 127.511 500.329C126.85 499.956 126.327 499.428 125.943 498.745C125.57 498.052 125.383 497.252 125.383 496.345C125.383 495.449 125.575 494.66 125.959 493.977C126.354 493.284 126.887 492.756 127.559 492.393C128.231 492.02 128.983 491.833 129.815 491.833C130.647 491.833 131.399 492.02 132.071 492.393C132.743 492.756 133.271 493.278 133.655 493.961C134.05 494.644 134.247 495.438 134.247 496.345C134.247 497.252 134.045 498.052 133.639 498.745C133.245 499.428 132.706 499.956 132.023 500.329C131.341 500.702 130.583 500.889 129.751 500.889ZM129.751 499.609C130.274 499.609 130.765 499.486 131.223 499.241C131.682 498.996 132.05 498.628 132.327 498.137C132.615 497.646 132.759 497.049 132.759 496.345C132.759 495.641 132.621 495.044 132.343 494.553C132.066 494.062 131.703 493.7 131.255 493.465C130.807 493.22 130.322 493.097 129.799 493.097C129.266 493.097 128.775 493.22 128.327 493.465C127.89 493.7 127.538 494.062 127.271 494.553C127.005 495.044 126.871 495.641 126.871 496.345C126.871 497.06 126.999 497.662 127.255 498.153C127.522 498.644 127.874 499.012 128.311 499.257C128.749 499.492 129.229 499.609 129.751 499.609ZM143.938 491.977V500.745H142.482V499.449C142.204 499.897 141.815 500.249 141.314 500.505C140.823 500.75 140.279 500.873 139.682 500.873C138.999 500.873 138.386 500.734 137.842 500.457C137.298 500.169 136.866 499.742 136.546 499.177C136.236 498.612 136.082 497.924 136.082 497.113V491.977H137.522V496.921C137.522 497.785 137.74 498.452 138.178 498.921C138.615 499.38 139.212 499.609 139.97 499.609C140.748 499.609 141.362 499.369 141.81 498.889C142.258 498.409 142.482 497.71 142.482 496.793V491.977H143.938ZM150.118 496.329C150.118 495.433 150.299 494.649 150.662 493.977C151.024 493.294 151.52 492.766 152.15 492.393C152.79 492.02 153.504 491.833 154.294 491.833C155.051 491.833 155.712 492.004 156.278 492.345C156.854 492.676 157.275 493.086 157.542 493.577V491.977H159.014V504.905H157.542V499.129C157.264 499.62 156.838 500.036 156.262 500.377C155.686 500.718 155.014 500.889 154.246 500.889C153.478 500.889 152.779 500.697 152.15 500.313C151.52 499.929 151.024 499.39 150.662 498.697C150.299 498.004 150.118 497.214 150.118 496.329ZM157.542 496.345C157.542 495.684 157.408 495.108 157.142 494.617C156.875 494.126 156.512 493.753 156.054 493.497C155.606 493.23 155.11 493.097 154.566 493.097C154.022 493.097 153.526 493.225 153.078 493.481C152.63 493.737 152.272 494.11 152.006 494.601C151.739 495.092 151.606 495.668 151.606 496.329C151.606 497.001 151.739 497.588 152.006 498.089C152.272 498.58 152.63 498.958 153.078 499.225C153.526 499.481 154.022 499.609 154.566 499.609C155.11 499.609 155.606 499.481 156.054 499.225C156.512 498.958 156.875 498.58 157.142 498.089C157.408 497.588 157.542 497.006 157.542 496.345ZM169.25 491.977V500.745H167.794V499.449C167.517 499.897 167.128 500.249 166.626 500.505C166.136 500.75 165.592 500.873 164.994 500.873C164.312 500.873 163.698 500.734 163.154 500.457C162.61 500.169 162.178 499.742 161.858 499.177C161.549 498.612 161.394 497.924 161.394 497.113V491.977H162.834V496.921C162.834 497.785 163.053 498.452 163.49 498.921C163.928 499.38 164.525 499.609 165.282 499.609C166.061 499.609 166.674 499.369 167.122 498.889C167.57 498.409 167.794 497.71 167.794 496.793V491.977H169.25ZM172.461 490.553C172.183 490.553 171.949 490.457 171.757 490.265C171.565 490.073 171.469 489.838 171.469 489.561C171.469 489.284 171.565 489.049 171.757 488.857C171.949 488.665 172.183 488.569 172.461 488.569C172.727 488.569 172.951 488.665 173.133 488.857C173.325 489.049 173.421 489.284 173.421 489.561C173.421 489.838 173.325 490.073 173.133 490.265C172.951 490.457 172.727 490.553 172.461 490.553ZM173.165 491.977V500.745H171.709V491.977H173.165ZM175.102 496.345C175.102 495.438 175.283 494.649 175.646 493.977C176.009 493.294 176.51 492.766 177.15 492.393C177.801 492.02 178.542 491.833 179.374 491.833C180.451 491.833 181.337 492.094 182.03 492.617C182.734 493.14 183.198 493.865 183.422 494.793H181.854C181.705 494.26 181.411 493.838 180.974 493.529C180.547 493.22 180.014 493.065 179.374 493.065C178.542 493.065 177.87 493.353 177.358 493.929C176.846 494.494 176.59 495.3 176.59 496.345C176.59 497.401 176.846 498.217 177.358 498.793C177.87 499.369 178.542 499.657 179.374 499.657C180.014 499.657 180.547 499.508 180.974 499.209C181.401 498.91 181.694 498.484 181.854 497.929H183.422C183.187 498.825 182.718 499.545 182.014 500.089C181.31 500.622 180.43 500.889 179.374 500.889C178.542 500.889 177.801 500.702 177.15 500.329C176.51 499.956 176.009 499.428 175.646 498.745C175.283 498.062 175.102 497.262 175.102 496.345ZM190.261 500.745L186.821 496.873V500.745H185.365V488.905H186.821V495.865L190.197 491.977H192.229L188.101 496.345L192.245 500.745H190.261ZM195.055 488.905V500.745H193.599V488.905H195.055ZM205.089 491.977L199.809 504.873H198.305L200.033 500.649L196.497 491.977H198.113L200.865 499.081L203.585 491.977H205.089Z" fill="#434343"/>
<defs>
<filter id="filter0_d_5271_21953" x="31" y="0.948242" width="255.191" height="288.584" filterUnits="userSpaceOnUse" color-interpolation-filters="sRGB">
<feFlood flood-opacity="0" result="BackgroundImageFix"/>
<feColorMatrix in="SourceAlpha" type="matrix" values="0 0 0 0 0 0 0 0 0 0 0 0 0 0 0 0 0 0 127 0" result="hardAlpha"/>
<feOffset/>
<feGaussianBlur stdDeviation="10"/>
<feComposite in2="hardAlpha" operator="out"/>
<feColorMatrix type="matrix" values="0 0 0 0 0.645833 0 0 0 0 0.645833 0 0 0 0 0.645833 0 0 0 0.2 0"/>
<feBlend mode="normal" in2="BackgroundImageFix" result="effect1_dropShadow_5271_21953"/>
<feBlend mode="normal" in="SourceGraphic" in2="effect1_dropShadow_5271_21953" result="shape"/>
</filter>
<radialGradient id="paint0_radial_5271_21953" cx="0" cy="0" r="1" gradientUnits="userSpaceOnUse" gradientTransform="translate(144.119 160.106) scale(80.2134 80.2374)">
<stop offset="0.49" stop-color="#00547F"/>
<stop offset="0.5" stop-color="#065882"/>
<stop offset="0.61" stop-color="#508AA7"/>
<stop offset="0.72" stop-color="#8FB4C7"/>
<stop offset="0.81" stop-color="#BFD4DF"/>
<stop offset="0.89" stop-color="#E2ECF0"/>
<stop offset="0.96" stop-color="#F7FAFB"/>
<stop offset="1" stop-color="white"/>
</radialGradient>
</defs>
</svg>
