<svg width="288" height="529" viewBox="0 0 288 529" fill="none" xmlns="http://www.w3.org/2000/svg">
<g filter="url(#filter0_d_5271_21973)">
<path d="M267.587 207.366L159.978 269.533L52.3682 207.366V83.0876L159.978 20.9482L267.587 83.0876V207.366Z" fill="#EDF2F7"/>
</g>
<path d="M258.138 201.554L159.562 258.499L60.9854 201.554V87.6902L159.562 30.7449L258.138 87.6902V201.554Z" fill="#002680"/>
<path d="M221.368 180.693L159.978 216.131L98.5869 180.693V109.788L159.978 74.3499L221.368 109.788V180.693Z" fill="white"/>
<path d="M158.112 356.477L62.8076 211.806L68.3787 209.477L157.977 345.542L240.84 213.984L246.438 216.227L158.112 356.477Z" fill="#EDF2F7"/>
<path d="M148.915 133.544C151.667 133.544 153.838 134.573 155.427 136.632C157.016 138.68 157.811 141.629 157.811 145.48C157.811 149.309 157.027 152.248 155.459 154.296C153.891 156.333 151.71 157.352 148.915 157.352C146.11 157.352 143.918 156.333 142.339 154.296C140.771 152.259 139.987 149.325 139.987 145.496C139.987 142.936 140.35 140.765 141.075 138.984C141.8 137.203 142.83 135.853 144.163 134.936C145.496 134.008 147.08 133.544 148.915 133.544ZM148.915 153.528C150.291 153.528 151.299 152.915 151.939 151.688C152.579 150.451 152.899 148.387 152.899 145.496C152.899 142.541 152.574 140.424 151.923 139.144C151.272 137.864 150.264 137.224 148.899 137.224C147.534 137.224 146.515 137.869 145.843 139.16C145.182 140.451 144.851 142.563 144.851 145.496C144.851 148.376 145.182 150.435 145.843 151.672C146.504 152.909 147.528 153.528 148.915 153.528ZM160.662 140.984C160.662 139.32 161.052 137.939 161.83 136.84C162.62 135.741 163.681 134.92 165.014 134.376C166.348 133.821 167.83 133.544 169.462 133.544C171.19 133.544 172.726 133.768 174.07 134.216C175.425 134.664 176.492 135.347 177.27 136.264C178.049 137.181 178.438 138.344 178.438 139.752C178.438 140.893 178.108 141.901 177.446 142.776C176.785 143.64 175.708 144.328 174.214 144.84C175.068 145.075 175.857 145.432 176.582 145.912C177.308 146.392 177.889 147.005 178.326 147.752C178.764 148.499 178.982 149.395 178.982 150.44C178.982 151.571 178.732 152.568 178.23 153.432C177.729 154.296 177.036 155.021 176.15 155.608C175.265 156.195 174.241 156.632 173.078 156.92C171.916 157.208 170.673 157.352 169.35 157.352C167.494 157.341 165.91 157.037 164.598 156.44C163.297 155.832 162.294 154.968 161.59 153.848C160.897 152.728 160.54 151.395 160.518 149.848H165.014C165.238 151.16 165.75 152.109 166.55 152.696C167.35 153.283 168.3 153.576 169.398 153.576C170.358 153.576 171.18 153.437 171.862 153.16C172.556 152.883 173.084 152.499 173.446 152.008C173.82 151.507 174.006 150.936 174.006 150.296C174.006 149.635 173.814 149.064 173.43 148.584C173.057 148.104 172.534 147.731 171.862 147.464C171.19 147.187 170.422 147.037 169.558 147.016L167.35 146.936V143.224L169.334 143.112C170.166 143.08 170.892 142.925 171.51 142.648C172.129 142.371 172.609 142.003 172.95 141.544C173.302 141.075 173.478 140.547 173.478 139.96C173.478 139.395 173.302 138.904 172.95 138.488C172.598 138.072 172.113 137.747 171.494 137.512C170.876 137.277 170.166 137.16 169.366 137.16C168.63 137.16 167.953 137.283 167.334 137.528C166.716 137.773 166.209 138.179 165.814 138.744C165.42 139.299 165.19 140.045 165.126 140.984H160.662Z" fill="#6AAFFC"/>
<path d="M129.443 390.745V377.731H134.159C135.863 377.731 137.126 378.025 137.948 378.613C138.776 379.195 139.19 380.038 139.19 381.142C139.19 381.79 139.025 382.354 138.695 382.834C138.365 383.308 137.777 383.722 136.931 384.076C137.477 384.214 137.918 384.4 138.254 384.634C138.59 384.868 138.848 385.129 139.028 385.417C139.208 385.699 139.331 385.996 139.397 386.308C139.463 386.614 139.496 386.917 139.496 387.217C139.496 388.417 139.088 389.305 138.272 389.881C137.456 390.457 136.157 390.745 134.375 390.745H129.443ZM132.062 388.711H134.429C135.221 388.711 135.818 388.552 136.22 388.234C136.628 387.916 136.832 387.49 136.832 386.956C136.832 386.572 136.733 386.251 136.535 385.993C136.337 385.729 136.067 385.531 135.725 385.399C135.389 385.267 135.005 385.201 134.573 385.201H132.062V388.711ZM132.062 383.113H134.573C134.843 383.113 135.101 383.083 135.347 383.023C135.599 382.957 135.821 382.858 136.013 382.726C136.211 382.594 136.367 382.426 136.481 382.222C136.595 382.012 136.652 381.766 136.652 381.484C136.652 380.92 136.439 380.494 136.013 380.206C135.593 379.912 135.053 379.765 134.393 379.765H132.062V383.113ZM144.862 390.925C144.43 390.925 144.004 390.859 143.584 390.727C143.17 390.595 142.792 390.4 142.45 390.142C142.108 389.884 141.832 389.566 141.622 389.188C141.418 388.81 141.316 388.372 141.316 387.874V381.439H143.944V387.541C143.944 387.973 144.085 388.327 144.367 388.603C144.649 388.879 145.063 389.017 145.609 389.017C146.125 389.017 146.533 388.885 146.833 388.621C147.139 388.351 147.292 387.976 147.292 387.496V381.439H149.893V390.745H147.913L147.607 388.9C147.499 389.446 147.295 389.866 146.995 390.16C146.701 390.448 146.362 390.646 145.978 390.754C145.6 390.868 145.228 390.925 144.862 390.925ZM155.488 390.925C154.24 390.925 153.268 390.496 152.572 389.638C151.876 388.774 151.528 387.574 151.528 386.038C151.528 385.066 151.669 384.223 151.951 383.509C152.233 382.795 152.65 382.243 153.202 381.853C153.754 381.457 154.429 381.259 155.227 381.259C155.563 381.259 155.875 381.298 156.163 381.376C156.457 381.448 156.724 381.55 156.964 381.682C157.204 381.814 157.414 381.967 157.594 382.141C157.774 382.315 157.921 382.501 158.035 382.699V377.371H160.672V390.745H158.764L158.467 388.837C158.383 389.095 158.266 389.347 158.116 389.593C157.966 389.839 157.774 390.064 157.54 390.268C157.306 390.466 157.018 390.625 156.676 390.745C156.34 390.865 155.944 390.925 155.488 390.925ZM156.064 389.035C156.724 389.035 157.216 388.804 157.54 388.342C157.87 387.88 158.035 387.1 158.035 386.002C158.029 385.366 157.954 384.838 157.81 384.418C157.666 383.998 157.45 383.686 157.162 383.482C156.88 383.272 156.52 383.167 156.082 383.167C155.512 383.167 155.038 383.386 154.66 383.824C154.282 384.256 154.093 384.982 154.093 386.002C154.093 387.04 154.27 387.805 154.624 388.297C154.978 388.789 155.458 389.035 156.064 389.035ZM167.171 393.823C165.515 393.823 164.255 393.613 163.391 393.193C162.533 392.773 162.104 392.221 162.104 391.537C162.104 391.219 162.188 390.952 162.356 390.736C162.524 390.52 162.719 390.349 162.941 390.223C163.169 390.091 163.376 389.992 163.562 389.926C163.754 389.854 163.871 389.806 163.913 389.782C163.817 389.728 163.679 389.65 163.499 389.548C163.319 389.44 163.151 389.296 162.995 389.116C162.845 388.93 162.77 388.69 162.77 388.396C162.77 388.066 162.926 387.76 163.238 387.478C163.556 387.196 164.036 387.001 164.678 386.893C164.066 386.605 163.601 386.215 163.283 385.723C162.965 385.231 162.806 384.727 162.806 384.211C162.806 383.599 162.998 383.074 163.382 382.636C163.766 382.198 164.288 381.865 164.948 381.637C165.614 381.409 166.367 381.295 167.207 381.295C167.849 381.295 168.374 381.364 168.782 381.502C169.19 381.634 169.568 381.808 169.916 382.024C170.054 381.97 170.237 381.901 170.465 381.817C170.693 381.727 170.939 381.631 171.203 381.529C171.467 381.421 171.725 381.316 171.977 381.214C172.229 381.106 172.454 381.01 172.652 380.926L172.643 382.96L171.032 383.221C171.098 383.383 171.149 383.557 171.185 383.743C171.221 383.929 171.239 384.082 171.239 384.202C171.239 384.742 171.08 385.246 170.762 385.714C170.45 386.182 169.979 386.56 169.349 386.848C168.725 387.136 167.951 387.28 167.027 387.28C166.913 387.28 166.76 387.277 166.568 387.271C166.382 387.265 166.229 387.256 166.109 387.244C165.755 387.262 165.512 387.307 165.38 387.379C165.248 387.451 165.182 387.535 165.182 387.631C165.182 387.775 165.317 387.871 165.587 387.919C165.857 387.961 166.265 388 166.811 388.036C167.003 388.048 167.27 388.063 167.612 388.081C167.954 388.099 168.332 388.123 168.746 388.153C169.886 388.231 170.735 388.513 171.293 388.999C171.857 389.479 172.139 390.085 172.139 390.817C172.139 391.687 171.725 392.404 170.897 392.968C170.075 393.538 168.833 393.823 167.171 393.823ZM167.594 392.356C168.326 392.356 168.848 392.266 169.16 392.086C169.472 391.906 169.628 391.648 169.628 391.312C169.628 391.03 169.508 390.802 169.268 390.628C169.028 390.448 168.677 390.343 168.215 390.313L166.082 390.169C165.806 390.157 165.56 390.199 165.344 390.295C165.134 390.391 164.969 390.523 164.849 390.691C164.735 390.859 164.678 391.039 164.678 391.231C164.678 391.621 164.915 391.906 165.389 392.086C165.863 392.266 166.598 392.356 167.594 392.356ZM167.099 385.813C167.597 385.813 167.996 385.678 168.296 385.408C168.602 385.132 168.755 384.76 168.755 384.292C168.755 383.806 168.602 383.416 168.296 383.122C167.996 382.828 167.597 382.681 167.099 382.681C166.607 382.681 166.205 382.828 165.893 383.122C165.587 383.416 165.434 383.806 165.434 384.292C165.434 384.754 165.581 385.123 165.875 385.399C166.175 385.675 166.583 385.813 167.099 385.813ZM176.095 386.695C176.089 387.169 176.164 387.583 176.32 387.937C176.476 388.285 176.701 388.555 176.995 388.747C177.295 388.933 177.655 389.026 178.075 389.026C178.525 389.026 178.918 388.93 179.254 388.738C179.596 388.546 179.833 388.231 179.965 387.793H182.332C182.23 388.453 181.966 389.017 181.54 389.485C181.12 389.953 180.61 390.31 180.01 390.556C179.41 390.802 178.786 390.925 178.138 390.925C177.22 390.925 176.41 390.733 175.708 390.349C175.012 389.959 174.469 389.41 174.079 388.702C173.689 387.994 173.494 387.16 173.494 386.2C173.494 385.27 173.671 384.433 174.025 383.689C174.379 382.939 174.892 382.348 175.564 381.916C176.242 381.478 177.055 381.259 178.003 381.259C178.951 381.259 179.746 381.46 180.388 381.862C181.036 382.258 181.522 382.813 181.846 383.527C182.176 384.235 182.341 385.054 182.341 385.984V386.695H176.095ZM176.086 385.129H179.884C179.884 384.757 179.815 384.415 179.677 384.103C179.539 383.791 179.329 383.545 179.047 383.365C178.771 383.185 178.423 383.095 178.003 383.095C177.595 383.095 177.247 383.194 176.959 383.392C176.677 383.584 176.461 383.836 176.311 384.148C176.161 384.46 176.086 384.787 176.086 385.129ZM189.536 383.266H187.466L187.484 388.225C187.484 388.453 187.511 388.624 187.565 388.738C187.625 388.846 187.715 388.918 187.835 388.954C187.961 388.984 188.12 388.999 188.312 388.999H189.563V390.619C189.443 390.673 189.254 390.724 188.996 390.772C188.744 390.82 188.39 390.844 187.934 390.844C187.118 390.844 186.485 390.739 186.035 390.529C185.591 390.319 185.282 390.025 185.108 389.647C184.934 389.269 184.847 388.831 184.847 388.333V383.266H183.335V381.439H184.937L185.594 378.631H187.466V381.43H189.536V383.266Z" fill="#002680"/>
<path d="M75.8202 428.857C74.7856 428.857 73.8416 428.617 72.9882 428.137C72.1349 427.646 71.4576 426.969 70.9562 426.105C70.4656 425.23 70.2202 424.249 70.2202 423.161C70.2202 422.073 70.4656 421.097 70.9562 420.233C71.4576 419.358 72.1349 418.681 72.9882 418.201C73.8416 417.71 74.7856 417.465 75.8202 417.465C76.8656 417.465 77.8149 417.71 78.6682 418.201C79.5216 418.681 80.1936 419.353 80.6842 420.217C81.1749 421.081 81.4202 422.062 81.4202 423.161C81.4202 424.26 81.1749 425.241 80.6842 426.105C80.1936 426.969 79.5216 427.646 78.6682 428.137C77.8149 428.617 76.8656 428.857 75.8202 428.857ZM75.8202 427.593C76.5989 427.593 77.2976 427.412 77.9162 427.049C78.5456 426.686 79.0362 426.169 79.3882 425.497C79.7509 424.825 79.9322 424.046 79.9322 423.161C79.9322 422.265 79.7509 421.486 79.3882 420.825C79.0362 420.153 78.5509 419.636 77.9322 419.273C77.3136 418.91 76.6096 418.729 75.8202 418.729C75.0309 418.729 74.3269 418.91 73.7082 419.273C73.0896 419.636 72.5989 420.153 72.2362 420.825C71.8842 421.486 71.7082 422.265 71.7082 423.161C71.7082 424.046 71.8842 424.825 72.2362 425.497C72.5989 426.169 73.0896 426.686 73.7082 427.049C74.3376 427.412 75.0416 427.593 75.8202 427.593ZM91.1184 419.977V428.745H89.6624V427.449C89.385 427.897 88.9957 428.249 88.4944 428.505C88.0037 428.75 87.4597 428.873 86.8624 428.873C86.1797 428.873 85.5664 428.734 85.0224 428.457C84.4784 428.169 84.0464 427.742 83.7264 427.177C83.417 426.612 83.2624 425.924 83.2624 425.113V419.977H84.7024V424.921C84.7024 425.785 84.921 426.452 85.3584 426.921C85.7957 427.38 86.393 427.609 87.1504 427.609C87.929 427.609 88.5424 427.369 88.9904 426.889C89.4384 426.409 89.6624 425.71 89.6624 424.793V419.977H91.1184ZM95.0327 421.401C95.2887 420.9 95.6514 420.51 96.1207 420.233C96.6007 419.956 97.1821 419.817 97.8647 419.817V421.321H97.4807C95.8487 421.321 95.0327 422.206 95.0327 423.977V428.745H93.5767V419.977H95.0327V421.401ZM105.267 421.593C105.555 421.092 105.982 420.676 106.547 420.345C107.123 420.004 107.79 419.833 108.547 419.833C109.326 419.833 110.03 420.02 110.659 420.393C111.299 420.766 111.8 421.294 112.163 421.977C112.526 422.649 112.707 423.433 112.707 424.329C112.707 425.214 112.526 426.004 112.163 426.697C111.8 427.39 111.299 427.929 110.659 428.313C110.03 428.697 109.326 428.889 108.547 428.889C107.8 428.889 107.139 428.724 106.563 428.393C105.998 428.052 105.566 427.63 105.267 427.129V432.905H103.811V419.977H105.267V421.593ZM111.219 424.329C111.219 423.668 111.086 423.092 110.819 422.601C110.552 422.11 110.19 421.737 109.731 421.481C109.283 421.225 108.787 421.097 108.243 421.097C107.71 421.097 107.214 421.23 106.755 421.497C106.307 421.753 105.944 422.132 105.667 422.633C105.4 423.124 105.267 423.694 105.267 424.345C105.267 425.006 105.4 425.588 105.667 426.089C105.944 426.58 106.307 426.958 106.755 427.225C107.214 427.481 107.71 427.609 108.243 427.609C108.787 427.609 109.283 427.481 109.731 427.225C110.19 426.958 110.552 426.58 110.819 426.089C111.086 425.588 111.219 425.001 111.219 424.329ZM116.08 421.401C116.336 420.9 116.698 420.51 117.168 420.233C117.648 419.956 118.229 419.817 118.912 419.817V421.321H118.528C116.896 421.321 116.08 422.206 116.08 423.977V428.745H114.624V419.977H116.08V421.401ZM128.592 424.025C128.592 424.302 128.576 424.596 128.544 424.905H121.536C121.59 425.769 121.883 426.446 122.416 426.937C122.96 427.417 123.616 427.657 124.384 427.657C125.014 427.657 125.536 427.513 125.952 427.225C126.379 426.926 126.678 426.532 126.848 426.041H128.416C128.182 426.884 127.712 427.572 127.008 428.105C126.304 428.628 125.43 428.889 124.384 428.889C123.552 428.889 122.806 428.702 122.144 428.329C121.494 427.956 120.982 427.428 120.608 426.745C120.235 426.052 120.048 425.252 120.048 424.345C120.048 423.438 120.23 422.644 120.592 421.961C120.955 421.278 121.462 420.756 122.112 420.393C122.774 420.02 123.531 419.833 124.384 419.833C125.216 419.833 125.952 420.014 126.592 420.377C127.232 420.74 127.723 421.241 128.064 421.881C128.416 422.51 128.592 423.225 128.592 424.025ZM127.088 423.721C127.088 423.166 126.966 422.692 126.72 422.297C126.475 421.892 126.139 421.588 125.712 421.385C125.296 421.172 124.832 421.065 124.32 421.065C123.584 421.065 122.955 421.3 122.432 421.769C121.92 422.238 121.627 422.889 121.552 423.721H127.088ZM136.594 422.265V423.497H130.21V422.265H136.594ZM142.431 428.889C141.759 428.889 141.156 428.777 140.623 428.553C140.089 428.318 139.668 427.998 139.359 427.593C139.049 427.177 138.879 426.702 138.847 426.169H140.351C140.393 426.606 140.596 426.964 140.959 427.241C141.332 427.518 141.817 427.657 142.415 427.657C142.969 427.657 143.407 427.534 143.727 427.289C144.047 427.044 144.207 426.734 144.207 426.361C144.207 425.977 144.036 425.694 143.695 425.513C143.353 425.321 142.825 425.134 142.111 424.953C141.46 424.782 140.927 424.612 140.511 424.441C140.105 424.26 139.753 423.998 139.455 423.657C139.167 423.305 139.023 422.846 139.023 422.281C139.023 421.833 139.156 421.422 139.423 421.049C139.689 420.676 140.068 420.382 140.559 420.169C141.049 419.945 141.609 419.833 142.239 419.833C143.209 419.833 143.993 420.078 144.591 420.569C145.188 421.06 145.508 421.732 145.551 422.585H144.095C144.063 422.126 143.876 421.758 143.535 421.481C143.204 421.204 142.756 421.065 142.191 421.065C141.668 421.065 141.252 421.177 140.943 421.401C140.633 421.625 140.479 421.918 140.479 422.281C140.479 422.569 140.569 422.809 140.751 423.001C140.943 423.182 141.177 423.332 141.455 423.449C141.743 423.556 142.137 423.678 142.639 423.817C143.268 423.988 143.78 424.158 144.175 424.329C144.569 424.489 144.905 424.734 145.183 425.065C145.471 425.396 145.62 425.828 145.631 426.361C145.631 426.841 145.497 427.273 145.231 427.657C144.964 428.041 144.585 428.345 144.095 428.569C143.615 428.782 143.06 428.889 142.431 428.889ZM147.142 424.329C147.142 423.433 147.323 422.649 147.686 421.977C148.049 421.294 148.545 420.766 149.174 420.393C149.814 420.02 150.523 419.833 151.302 419.833C152.07 419.833 152.737 419.998 153.302 420.329C153.867 420.66 154.289 421.076 154.566 421.577V419.977H156.038V428.745H154.566V427.113C154.278 427.625 153.846 428.052 153.27 428.393C152.705 428.724 152.043 428.889 151.286 428.889C150.507 428.889 149.803 428.697 149.174 428.313C148.545 427.929 148.049 427.39 147.686 426.697C147.323 426.004 147.142 425.214 147.142 424.329ZM154.566 424.345C154.566 423.684 154.433 423.108 154.166 422.617C153.899 422.126 153.537 421.753 153.078 421.497C152.63 421.23 152.134 421.097 151.59 421.097C151.046 421.097 150.55 421.225 150.102 421.481C149.654 421.737 149.297 422.11 149.03 422.601C148.763 423.092 148.63 423.668 148.63 424.329C148.63 425.001 148.763 425.588 149.03 426.089C149.297 426.58 149.654 426.958 150.102 427.225C150.55 427.481 151.046 427.609 151.59 427.609C152.134 427.609 152.63 427.481 153.078 427.225C153.537 426.958 153.899 426.58 154.166 426.089C154.433 425.588 154.566 425.006 154.566 424.345ZM159.955 416.905V428.745H158.499V416.905H159.955ZM170.436 424.025C170.436 424.302 170.42 424.596 170.388 424.905H163.38C163.433 425.769 163.727 426.446 164.26 426.937C164.804 427.417 165.46 427.657 166.228 427.657C166.857 427.657 167.38 427.513 167.796 427.225C168.223 426.926 168.521 426.532 168.692 426.041H170.26C170.025 426.884 169.556 427.572 168.852 428.105C168.148 428.628 167.273 428.889 166.228 428.889C165.396 428.889 164.649 428.702 163.988 428.329C163.337 427.956 162.825 427.428 162.452 426.745C162.079 426.052 161.892 425.252 161.892 424.345C161.892 423.438 162.073 422.644 162.436 421.961C162.799 421.278 163.305 420.756 163.956 420.393C164.617 420.02 165.375 419.833 166.228 419.833C167.06 419.833 167.796 420.014 168.436 420.377C169.076 420.74 169.567 421.241 169.908 421.881C170.26 422.51 170.436 423.225 170.436 424.025ZM168.932 423.721C168.932 423.166 168.809 422.692 168.564 422.297C168.319 421.892 167.983 421.588 167.556 421.385C167.14 421.172 166.676 421.065 166.164 421.065C165.428 421.065 164.799 421.3 164.276 421.769C163.764 422.238 163.471 422.889 163.396 423.721H168.932ZM187.168 419.817C187.85 419.817 188.458 419.961 188.992 420.249C189.525 420.526 189.946 420.948 190.256 421.513C190.565 422.078 190.72 422.766 190.72 423.577V428.745H189.28V423.785C189.28 422.91 189.061 422.244 188.624 421.785C188.197 421.316 187.616 421.081 186.88 421.081C186.122 421.081 185.52 421.326 185.072 421.817C184.624 422.297 184.4 422.996 184.4 423.913V428.745H182.96V423.785C182.96 422.91 182.741 422.244 182.304 421.785C181.877 421.316 181.296 421.081 180.56 421.081C179.802 421.081 179.2 421.326 178.752 421.817C178.304 422.297 178.08 422.996 178.08 423.913V428.745H176.624V419.977H178.08V421.241C178.368 420.782 178.752 420.43 179.232 420.185C179.722 419.94 180.261 419.817 180.848 419.817C181.584 419.817 182.234 419.982 182.8 420.313C183.365 420.644 183.786 421.129 184.064 421.769C184.309 421.15 184.714 420.67 185.28 420.329C185.845 419.988 186.474 419.817 187.168 419.817ZM192.564 424.329C192.564 423.433 192.745 422.649 193.108 421.977C193.471 421.294 193.967 420.766 194.596 420.393C195.236 420.02 195.945 419.833 196.724 419.833C197.492 419.833 198.159 419.998 198.724 420.329C199.289 420.66 199.711 421.076 199.988 421.577V419.977H201.46V428.745H199.988V427.113C199.7 427.625 199.268 428.052 198.692 428.393C198.127 428.724 197.465 428.889 196.708 428.889C195.929 428.889 195.225 428.697 194.596 428.313C193.967 427.929 193.471 427.39 193.108 426.697C192.745 426.004 192.564 425.214 192.564 424.329ZM199.988 424.345C199.988 423.684 199.855 423.108 199.588 422.617C199.321 422.126 198.959 421.753 198.5 421.497C198.052 421.23 197.556 421.097 197.012 421.097C196.468 421.097 195.972 421.225 195.524 421.481C195.076 421.737 194.719 422.11 194.452 422.601C194.185 423.092 194.052 423.668 194.052 424.329C194.052 425.001 194.185 425.588 194.452 426.089C194.719 426.58 195.076 426.958 195.524 427.225C195.972 427.481 196.468 427.609 197.012 427.609C197.556 427.609 198.052 427.481 198.5 427.225C198.959 426.958 199.321 426.58 199.588 426.089C199.855 425.588 199.988 425.006 199.988 424.345ZM208.192 419.817C209.259 419.817 210.123 420.142 210.784 420.793C211.446 421.433 211.776 422.361 211.776 423.577V428.745H210.336V423.785C210.336 422.91 210.118 422.244 209.68 421.785C209.243 421.316 208.646 421.081 207.888 421.081C207.12 421.081 206.507 421.321 206.048 421.801C205.6 422.281 205.376 422.98 205.376 423.897V428.745H203.92V419.977H205.376V421.225C205.664 420.777 206.054 420.43 206.544 420.185C207.046 419.94 207.595 419.817 208.192 419.817ZM213.611 424.329C213.611 423.433 213.792 422.649 214.155 421.977C214.518 421.294 215.014 420.766 215.643 420.393C216.283 420.02 216.992 419.833 217.771 419.833C218.539 419.833 219.206 419.998 219.771 420.329C220.336 420.66 220.758 421.076 221.035 421.577V419.977H222.507V428.745H221.035V427.113C220.747 427.625 220.315 428.052 219.739 428.393C219.174 428.724 218.512 428.889 217.755 428.889C216.976 428.889 216.272 428.697 215.643 428.313C215.014 427.929 214.518 427.39 214.155 426.697C213.792 426.004 213.611 425.214 213.611 424.329ZM221.035 424.345C221.035 423.684 220.902 423.108 220.635 422.617C220.368 422.126 220.006 421.753 219.547 421.497C219.099 421.23 218.603 421.097 218.059 421.097C217.515 421.097 217.019 421.225 216.571 421.481C216.123 421.737 215.766 422.11 215.499 422.601C215.232 423.092 215.099 423.668 215.099 424.329C215.099 425.001 215.232 425.588 215.499 426.089C215.766 426.58 216.123 426.958 216.571 427.225C217.019 427.481 217.515 427.609 218.059 427.609C218.603 427.609 219.099 427.481 219.547 427.225C220.006 426.958 220.368 426.58 220.635 426.089C220.902 425.588 221.035 425.006 221.035 424.345ZM228.583 419.833C229.341 419.833 230.002 419.998 230.567 420.329C231.143 420.66 231.57 421.076 231.847 421.577V419.977H233.319V428.937C233.319 429.737 233.149 430.446 232.807 431.065C232.466 431.694 231.975 432.185 231.335 432.537C230.706 432.889 229.97 433.065 229.127 433.065C227.975 433.065 227.015 432.793 226.247 432.249C225.479 431.705 225.026 430.964 224.887 430.025H226.327C226.487 430.558 226.818 430.985 227.319 431.305C227.821 431.636 228.423 431.801 229.127 431.801C229.927 431.801 230.578 431.55 231.079 431.049C231.591 430.548 231.847 429.844 231.847 428.937V427.097C231.559 427.609 231.133 428.036 230.567 428.377C230.002 428.718 229.341 428.889 228.583 428.889C227.805 428.889 227.095 428.697 226.455 428.313C225.826 427.929 225.33 427.39 224.967 426.697C224.605 426.004 224.423 425.214 224.423 424.329C224.423 423.433 224.605 422.649 224.967 421.977C225.33 421.294 225.826 420.766 226.455 420.393C227.095 420.02 227.805 419.833 228.583 419.833ZM231.847 424.345C231.847 423.684 231.714 423.108 231.447 422.617C231.181 422.126 230.818 421.753 230.359 421.497C229.911 421.23 229.415 421.097 228.871 421.097C228.327 421.097 227.831 421.225 227.383 421.481C226.935 421.737 226.578 422.11 226.311 422.601C226.045 423.092 225.911 423.668 225.911 424.329C225.911 425.001 226.045 425.588 226.311 426.089C226.578 426.58 226.935 426.958 227.383 427.225C227.831 427.481 228.327 427.609 228.871 427.609C229.415 427.609 229.911 427.481 230.359 427.225C230.818 426.958 231.181 426.58 231.447 426.089C231.714 425.588 231.847 425.006 231.847 424.345ZM243.78 424.025C243.78 424.302 243.764 424.596 243.732 424.905H236.724C236.777 425.769 237.071 426.446 237.604 426.937C238.148 427.417 238.804 427.657 239.572 427.657C240.201 427.657 240.724 427.513 241.14 427.225C241.567 426.926 241.865 426.532 242.036 426.041H243.604C243.369 426.884 242.9 427.572 242.196 428.105C241.492 428.628 240.617 428.889 239.572 428.889C238.74 428.889 237.993 428.702 237.332 428.329C236.681 427.956 236.169 427.428 235.796 426.745C235.423 426.052 235.236 425.252 235.236 424.345C235.236 423.438 235.417 422.644 235.78 421.961C236.143 421.278 236.649 420.756 237.3 420.393C237.961 420.02 238.719 419.833 239.572 419.833C240.404 419.833 241.14 420.014 241.78 420.377C242.42 420.74 242.911 421.241 243.252 421.881C243.604 422.51 243.78 423.225 243.78 424.025ZM242.276 423.721C242.276 423.166 242.153 422.692 241.908 422.297C241.663 421.892 241.327 421.588 240.9 421.385C240.484 421.172 240.02 421.065 239.508 421.065C238.772 421.065 238.143 421.3 237.62 421.769C237.108 422.238 236.815 422.889 236.74 423.721H242.276ZM247.158 421.401C247.414 420.9 247.776 420.51 248.246 420.233C248.726 419.956 249.307 419.817 249.99 419.817V421.321H249.606C247.974 421.321 247.158 422.206 247.158 423.977V428.745H245.702V419.977H247.158V421.401ZM62.2827 445.593C62.5707 445.092 62.9974 444.676 63.5627 444.345C64.1387 444.004 64.8054 443.833 65.5627 443.833C66.3414 443.833 67.0454 444.02 67.6747 444.393C68.3147 444.766 68.8161 445.294 69.1787 445.977C69.5414 446.649 69.7227 447.433 69.7227 448.329C69.7227 449.214 69.5414 450.004 69.1787 450.697C68.8161 451.39 68.3147 451.929 67.6747 452.313C67.0454 452.697 66.3414 452.889 65.5627 452.889C64.8161 452.889 64.1547 452.724 63.5787 452.393C63.0134 452.052 62.5814 451.63 62.2827 451.129V456.905H60.8267V443.977H62.2827V445.593ZM68.2347 448.329C68.2347 447.668 68.1014 447.092 67.8347 446.601C67.5681 446.11 67.2054 445.737 66.7467 445.481C66.2987 445.225 65.8027 445.097 65.2587 445.097C64.7254 445.097 64.2294 445.23 63.7707 445.497C63.3227 445.753 62.9601 446.132 62.6827 446.633C62.4161 447.124 62.2827 447.694 62.2827 448.345C62.2827 449.006 62.4161 449.588 62.6827 450.089C62.9601 450.58 63.3227 450.958 63.7707 451.225C64.2294 451.481 64.7254 451.609 65.2587 451.609C65.8027 451.609 66.2987 451.481 66.7467 451.225C67.2054 450.958 67.5681 450.58 67.8347 450.089C68.1014 449.588 68.2347 449.001 68.2347 448.329ZM73.0952 445.401C73.3512 444.9 73.7139 444.51 74.1832 444.233C74.6632 443.956 75.2446 443.817 75.9272 443.817V445.321H75.5432C73.9112 445.321 73.0952 446.206 73.0952 447.977V452.745H71.6392V443.977H73.0952V445.401ZM81.432 452.889C80.6106 452.889 79.864 452.702 79.192 452.329C78.5306 451.956 78.008 451.428 77.624 450.745C77.2506 450.052 77.064 449.252 77.064 448.345C77.064 447.449 77.256 446.66 77.64 445.977C78.0346 445.284 78.568 444.756 79.24 444.393C79.912 444.02 80.664 443.833 81.496 443.833C82.328 443.833 83.08 444.02 83.752 444.393C84.424 444.756 84.952 445.278 85.336 445.961C85.7306 446.644 85.928 447.438 85.928 448.345C85.928 449.252 85.7253 450.052 85.32 450.745C84.9253 451.428 84.3866 451.956 83.704 452.329C83.0213 452.702 82.264 452.889 81.432 452.889ZM81.432 451.609C81.9546 451.609 82.4453 451.486 82.904 451.241C83.3626 450.996 83.7306 450.628 84.008 450.137C84.296 449.646 84.44 449.049 84.44 448.345C84.44 447.641 84.3013 447.044 84.024 446.553C83.7466 446.062 83.384 445.7 82.936 445.465C82.488 445.22 82.0026 445.097 81.48 445.097C80.9466 445.097 80.456 445.22 80.008 445.465C79.5706 445.7 79.2186 446.062 78.952 446.553C78.6853 447.044 78.552 447.641 78.552 448.345C78.552 449.06 78.68 449.662 78.936 450.153C79.2026 450.644 79.5546 451.012 79.992 451.257C80.4293 451.492 80.9093 451.609 81.432 451.609ZM91.1064 451.401L93.8264 443.977H95.3784L91.9384 452.745H90.2424L86.8024 443.977H88.3704L91.1064 451.401ZM97.5631 442.553C97.2858 442.553 97.0511 442.457 96.8591 442.265C96.6671 442.073 96.5711 441.838 96.5711 441.561C96.5711 441.284 96.6671 441.049 96.8591 440.857C97.0511 440.665 97.2858 440.569 97.5631 440.569C97.8298 440.569 98.0538 440.665 98.2351 440.857C98.4271 441.049 98.5231 441.284 98.5231 441.561C98.5231 441.838 98.4271 442.073 98.2351 442.265C98.0538 442.457 97.8298 442.553 97.5631 442.553ZM98.2671 443.977V452.745H96.8111V443.977H98.2671ZM100.205 448.329C100.205 447.433 100.386 446.649 100.749 445.977C101.111 445.294 101.607 444.766 102.237 444.393C102.877 444.02 103.591 443.833 104.381 443.833C105.063 443.833 105.698 443.993 106.285 444.313C106.871 444.622 107.319 445.033 107.629 445.545V440.905H109.101V452.745H107.629V451.097C107.341 451.62 106.914 452.052 106.349 452.393C105.783 452.724 105.122 452.889 104.365 452.889C103.586 452.889 102.877 452.697 102.237 452.313C101.607 451.929 101.111 451.39 100.749 450.697C100.386 450.004 100.205 449.214 100.205 448.329ZM107.629 448.345C107.629 447.684 107.495 447.108 107.229 446.617C106.962 446.126 106.599 445.753 106.141 445.497C105.693 445.23 105.197 445.097 104.653 445.097C104.109 445.097 103.613 445.225 103.165 445.481C102.717 445.737 102.359 446.11 102.093 446.601C101.826 447.092 101.693 447.668 101.693 448.329C101.693 449.001 101.826 449.588 102.093 450.089C102.359 450.58 102.717 450.958 103.165 451.225C103.613 451.481 104.109 451.609 104.653 451.609C105.197 451.609 105.693 451.481 106.141 451.225C106.599 450.958 106.962 450.58 107.229 450.089C107.495 449.588 107.629 449.006 107.629 448.345ZM119.561 448.025C119.561 448.302 119.545 448.596 119.513 448.905H112.505C112.558 449.769 112.852 450.446 113.385 450.937C113.929 451.417 114.585 451.657 115.353 451.657C115.982 451.657 116.505 451.513 116.921 451.225C117.348 450.926 117.646 450.532 117.817 450.041H119.385C119.15 450.884 118.681 451.572 117.977 452.105C117.273 452.628 116.398 452.889 115.353 452.889C114.521 452.889 113.774 452.702 113.113 452.329C112.462 451.956 111.95 451.428 111.577 450.745C111.204 450.052 111.017 449.252 111.017 448.345C111.017 447.438 111.198 446.644 111.561 445.961C111.924 445.278 112.43 444.756 113.081 444.393C113.742 444.02 114.5 443.833 115.353 443.833C116.185 443.833 116.921 444.014 117.561 444.377C118.201 444.74 118.692 445.241 119.033 445.881C119.385 446.51 119.561 447.225 119.561 448.025ZM118.057 447.721C118.057 447.166 117.934 446.692 117.689 446.297C117.444 445.892 117.108 445.588 116.681 445.385C116.265 445.172 115.801 445.065 115.289 445.065C114.553 445.065 113.924 445.3 113.401 445.769C112.889 446.238 112.596 446.889 112.521 447.721H118.057ZM124.587 452.889C123.915 452.889 123.312 452.777 122.779 452.553C122.246 452.318 121.824 451.998 121.515 451.593C121.206 451.177 121.035 450.702 121.003 450.169H122.507C122.55 450.606 122.752 450.964 123.115 451.241C123.488 451.518 123.974 451.657 124.571 451.657C125.126 451.657 125.563 451.534 125.883 451.289C126.203 451.044 126.363 450.734 126.363 450.361C126.363 449.977 126.192 449.694 125.851 449.513C125.51 449.321 124.982 449.134 124.267 448.953C123.616 448.782 123.083 448.612 122.667 448.441C122.262 448.26 121.91 447.998 121.611 447.657C121.323 447.305 121.179 446.846 121.179 446.281C121.179 445.833 121.312 445.422 121.579 445.049C121.846 444.676 122.224 444.382 122.715 444.169C123.206 443.945 123.766 443.833 124.395 443.833C125.366 443.833 126.15 444.078 126.747 444.569C127.344 445.06 127.664 445.732 127.707 446.585H126.251C126.219 446.126 126.032 445.758 125.691 445.481C125.36 445.204 124.912 445.065 124.347 445.065C123.824 445.065 123.408 445.177 123.099 445.401C122.79 445.625 122.635 445.918 122.635 446.281C122.635 446.569 122.726 446.809 122.907 447.001C123.099 447.182 123.334 447.332 123.611 447.449C123.899 447.556 124.294 447.678 124.795 447.817C125.424 447.988 125.936 448.158 126.331 448.329C126.726 448.489 127.062 448.734 127.339 449.065C127.627 449.396 127.776 449.828 127.787 450.361C127.787 450.841 127.654 451.273 127.387 451.657C127.12 452.041 126.742 452.345 126.251 452.569C125.771 452.782 125.216 452.889 124.587 452.889ZM135.564 445.593C135.852 445.092 136.279 444.676 136.844 444.345C137.42 444.004 138.087 443.833 138.844 443.833C139.623 443.833 140.327 444.02 140.956 444.393C141.596 444.766 142.097 445.294 142.46 445.977C142.823 446.649 143.004 447.433 143.004 448.329C143.004 449.214 142.823 450.004 142.46 450.697C142.097 451.39 141.596 451.929 140.956 452.313C140.327 452.697 139.623 452.889 138.844 452.889C138.097 452.889 137.436 452.724 136.86 452.393C136.295 452.052 135.863 451.63 135.564 451.129V456.905H134.108V443.977H135.564V445.593ZM141.516 448.329C141.516 447.668 141.383 447.092 141.116 446.601C140.849 446.11 140.487 445.737 140.028 445.481C139.58 445.225 139.084 445.097 138.54 445.097C138.007 445.097 137.511 445.23 137.052 445.497C136.604 445.753 136.241 446.132 135.964 446.633C135.697 447.124 135.564 447.694 135.564 448.345C135.564 449.006 135.697 449.588 135.964 450.089C136.241 450.58 136.604 450.958 137.052 451.225C137.511 451.481 138.007 451.609 138.54 451.609C139.084 451.609 139.58 451.481 140.028 451.225C140.487 450.958 140.849 450.58 141.116 450.089C141.383 449.588 141.516 449.001 141.516 448.329ZM146.376 445.401C146.632 444.9 146.995 444.51 147.464 444.233C147.944 443.956 148.526 443.817 149.208 443.817V445.321H148.824C147.192 445.321 146.376 446.206 146.376 447.977V452.745H144.92V443.977H146.376V445.401ZM154.713 452.889C153.892 452.889 153.145 452.702 152.473 452.329C151.812 451.956 151.289 451.428 150.905 450.745C150.532 450.052 150.345 449.252 150.345 448.345C150.345 447.449 150.537 446.66 150.921 445.977C151.316 445.284 151.849 444.756 152.521 444.393C153.193 444.02 153.945 443.833 154.777 443.833C155.609 443.833 156.361 444.02 157.033 444.393C157.705 444.756 158.233 445.278 158.617 445.961C159.012 446.644 159.209 447.438 159.209 448.345C159.209 449.252 159.007 450.052 158.601 450.745C158.207 451.428 157.668 451.956 156.985 452.329C156.303 452.702 155.545 452.889 154.713 452.889ZM154.713 451.609C155.236 451.609 155.727 451.486 156.185 451.241C156.644 450.996 157.012 450.628 157.289 450.137C157.577 449.646 157.721 449.049 157.721 448.345C157.721 447.641 157.583 447.044 157.305 446.553C157.028 446.062 156.665 445.7 156.217 445.465C155.769 445.22 155.284 445.097 154.761 445.097C154.228 445.097 153.737 445.22 153.289 445.465C152.852 445.7 152.5 446.062 152.233 446.553C151.967 447.044 151.833 447.641 151.833 448.345C151.833 449.06 151.961 449.662 152.217 450.153C152.484 450.644 152.836 451.012 153.273 451.257C153.711 451.492 154.191 451.609 154.713 451.609ZM161.908 442.553C161.63 442.553 161.396 442.457 161.204 442.265C161.022 442.073 160.932 441.838 160.932 441.561C160.932 441.284 161.022 441.049 161.204 440.857C161.396 440.665 161.63 440.569 161.908 440.569C162.185 440.569 162.414 440.665 162.596 440.857C162.788 441.049 162.884 441.284 162.884 441.561C162.884 441.838 162.788 442.073 162.596 442.265C162.414 442.457 162.185 442.553 161.908 442.553ZM162.628 454.649C162.628 455.428 162.43 455.998 162.036 456.361C161.641 456.724 161.065 456.905 160.308 456.905H159.46V455.673H160.068C160.473 455.673 160.756 455.593 160.916 455.433C161.086 455.273 161.172 455.001 161.172 454.617V443.977H162.628V454.649ZM173.092 448.025C173.092 448.302 173.076 448.596 173.044 448.905H166.036C166.09 449.769 166.383 450.446 166.916 450.937C167.46 451.417 168.116 451.657 168.884 451.657C169.514 451.657 170.036 451.513 170.452 451.225C170.879 450.926 171.178 450.532 171.348 450.041H172.916C172.682 450.884 172.212 451.572 171.508 452.105C170.804 452.628 169.93 452.889 168.884 452.889C168.052 452.889 167.306 452.702 166.644 452.329C165.994 451.956 165.482 451.428 165.108 450.745C164.735 450.052 164.548 449.252 164.548 448.345C164.548 447.438 164.73 446.644 165.092 445.961C165.455 445.278 165.962 444.756 166.612 444.393C167.274 444.02 168.031 443.833 168.884 443.833C169.716 443.833 170.452 444.014 171.092 444.377C171.732 444.74 172.223 445.241 172.564 445.881C172.916 446.51 173.092 447.225 173.092 448.025ZM171.588 447.721C171.588 447.166 171.466 446.692 171.22 446.297C170.975 445.892 170.639 445.588 170.212 445.385C169.796 445.172 169.332 445.065 168.82 445.065C168.084 445.065 167.455 445.3 166.932 445.769C166.42 446.238 166.127 446.889 166.052 447.721H171.588ZM174.47 448.345C174.47 447.438 174.652 446.649 175.014 445.977C175.377 445.294 175.878 444.766 176.518 444.393C177.169 444.02 177.91 443.833 178.742 443.833C179.82 443.833 180.705 444.094 181.398 444.617C182.102 445.14 182.566 445.865 182.79 446.793H181.222C181.073 446.26 180.78 445.838 180.342 445.529C179.916 445.22 179.382 445.065 178.742 445.065C177.91 445.065 177.238 445.353 176.726 445.929C176.214 446.494 175.958 447.3 175.958 448.345C175.958 449.401 176.214 450.217 176.726 450.793C177.238 451.369 177.91 451.657 178.742 451.657C179.382 451.657 179.916 451.508 180.342 451.209C180.769 450.91 181.062 450.484 181.222 449.929H182.79C182.556 450.825 182.086 451.545 181.382 452.089C180.678 452.622 179.798 452.889 178.742 452.889C177.91 452.889 177.169 452.702 176.518 452.329C175.878 451.956 175.377 451.428 175.014 450.745C174.652 450.062 174.47 449.262 174.47 448.345ZM186.509 445.177V450.345C186.509 450.772 186.6 451.076 186.781 451.257C186.962 451.428 187.277 451.513 187.725 451.513H188.797V452.745H187.485C186.674 452.745 186.066 452.558 185.661 452.185C185.256 451.812 185.053 451.198 185.053 450.345V445.177H183.917V443.977H185.053V441.769H186.509V443.977H188.797V445.177H186.509ZM196.283 445.609C196.581 445.086 197.019 444.66 197.595 444.329C198.171 443.998 198.827 443.833 199.563 443.833C200.352 443.833 201.061 444.02 201.691 444.393C202.32 444.766 202.816 445.294 203.179 445.977C203.541 446.649 203.723 447.433 203.723 448.329C203.723 449.214 203.541 450.004 203.179 450.697C202.816 451.39 202.315 451.929 201.675 452.313C201.045 452.697 200.341 452.889 199.563 452.889C198.805 452.889 198.139 452.724 197.563 452.393C196.997 452.062 196.571 451.641 196.283 451.129V452.745H194.827V440.905H196.283V445.609ZM202.235 448.329C202.235 447.668 202.101 447.092 201.835 446.601C201.568 446.11 201.205 445.737 200.747 445.481C200.299 445.225 199.803 445.097 199.259 445.097C198.725 445.097 198.229 445.23 197.771 445.497C197.323 445.753 196.96 446.132 196.683 446.633C196.416 447.124 196.283 447.694 196.283 448.345C196.283 449.006 196.416 449.588 196.683 450.089C196.96 450.58 197.323 450.958 197.771 451.225C198.229 451.481 198.725 451.609 199.259 451.609C199.803 451.609 200.299 451.481 200.747 451.225C201.205 450.958 201.568 450.58 201.835 450.089C202.101 449.588 202.235 449.001 202.235 448.329ZM213.415 443.977V452.745H211.959V451.449C211.682 451.897 211.293 452.249 210.791 452.505C210.301 452.75 209.757 452.873 209.159 452.873C208.477 452.873 207.863 452.734 207.319 452.457C206.775 452.169 206.343 451.742 206.023 451.177C205.714 450.612 205.559 449.924 205.559 449.113V443.977H206.999V448.921C206.999 449.785 207.218 450.452 207.655 450.921C208.093 451.38 208.69 451.609 209.447 451.609C210.226 451.609 210.839 451.369 211.287 450.889C211.735 450.409 211.959 449.71 211.959 448.793V443.977H213.415ZM215.33 448.329C215.33 447.433 215.511 446.649 215.874 445.977C216.236 445.294 216.732 444.766 217.362 444.393C218.002 444.02 218.716 443.833 219.506 443.833C220.188 443.833 220.823 443.993 221.41 444.313C221.996 444.622 222.444 445.033 222.754 445.545V440.905H224.226V452.745H222.754V451.097C222.466 451.62 222.039 452.052 221.474 452.393C220.908 452.724 220.247 452.889 219.49 452.889C218.711 452.889 218.002 452.697 217.362 452.313C216.732 451.929 216.236 451.39 215.874 450.697C215.511 450.004 215.33 449.214 215.33 448.329ZM222.754 448.345C222.754 447.684 222.62 447.108 222.354 446.617C222.087 446.126 221.724 445.753 221.266 445.497C220.818 445.23 220.322 445.097 219.778 445.097C219.234 445.097 218.738 445.225 218.29 445.481C217.842 445.737 217.484 446.11 217.218 446.601C216.951 447.092 216.818 447.668 216.818 448.329C216.818 449.001 216.951 449.588 217.218 450.089C217.484 450.58 217.842 450.958 218.29 451.225C218.738 451.481 219.234 451.609 219.778 451.609C220.322 451.609 220.818 451.481 221.266 451.225C221.724 450.958 222.087 450.58 222.354 450.089C222.62 449.588 222.754 449.006 222.754 448.345ZM230.302 443.833C231.059 443.833 231.721 443.998 232.286 444.329C232.862 444.66 233.289 445.076 233.566 445.577V443.977H235.038V452.937C235.038 453.737 234.867 454.446 234.526 455.065C234.185 455.694 233.694 456.185 233.054 456.537C232.425 456.889 231.689 457.065 230.846 457.065C229.694 457.065 228.734 456.793 227.966 456.249C227.198 455.705 226.745 454.964 226.606 454.025H228.046C228.206 454.558 228.537 454.985 229.038 455.305C229.539 455.636 230.142 455.801 230.846 455.801C231.646 455.801 232.297 455.55 232.798 455.049C233.31 454.548 233.566 453.844 233.566 452.937V451.097C233.278 451.609 232.851 452.036 232.286 452.377C231.721 452.718 231.059 452.889 230.302 452.889C229.523 452.889 228.814 452.697 228.174 452.313C227.545 451.929 227.049 451.39 226.686 450.697C226.323 450.004 226.142 449.214 226.142 448.329C226.142 447.433 226.323 446.649 226.686 445.977C227.049 445.294 227.545 444.766 228.174 444.393C228.814 444.02 229.523 443.833 230.302 443.833ZM233.566 448.345C233.566 447.684 233.433 447.108 233.166 446.617C232.899 446.126 232.537 445.753 232.078 445.497C231.63 445.23 231.134 445.097 230.59 445.097C230.046 445.097 229.55 445.225 229.102 445.481C228.654 445.737 228.297 446.11 228.03 446.601C227.763 447.092 227.63 447.668 227.63 448.329C227.63 449.001 227.763 449.588 228.03 450.089C228.297 450.58 228.654 450.958 229.102 451.225C229.55 451.481 230.046 451.609 230.59 451.609C231.134 451.609 231.63 451.481 232.078 451.225C232.537 450.958 232.899 450.58 233.166 450.089C233.433 449.588 233.566 449.006 233.566 448.345ZM245.499 448.025C245.499 448.302 245.483 448.596 245.451 448.905H238.443C238.496 449.769 238.789 450.446 239.323 450.937C239.867 451.417 240.523 451.657 241.291 451.657C241.92 451.657 242.443 451.513 242.859 451.225C243.285 450.926 243.584 450.532 243.755 450.041H245.323C245.088 450.884 244.619 451.572 243.915 452.105C243.211 452.628 242.336 452.889 241.291 452.889C240.459 452.889 239.712 452.702 239.051 452.329C238.4 451.956 237.888 451.428 237.515 450.745C237.141 450.052 236.955 449.252 236.955 448.345C236.955 447.438 237.136 446.644 237.499 445.961C237.861 445.278 238.368 444.756 239.019 444.393C239.68 444.02 240.437 443.833 241.291 443.833C242.123 443.833 242.859 444.014 243.499 444.377C244.139 444.74 244.629 445.241 244.971 445.881C245.323 446.51 245.499 447.225 245.499 448.025ZM243.995 447.721C243.995 447.166 243.872 446.692 243.627 446.297C243.381 445.892 243.045 445.588 242.619 445.385C242.203 445.172 241.739 445.065 241.227 445.065C240.491 445.065 239.861 445.3 239.339 445.769C238.827 446.238 238.533 446.889 238.459 447.721H243.995ZM249.196 445.177V450.345C249.196 450.772 249.287 451.076 249.468 451.257C249.65 451.428 249.964 451.513 250.412 451.513H251.484V452.745H250.172C249.362 452.745 248.754 452.558 248.348 452.185C247.943 451.812 247.74 451.198 247.74 450.345V445.177H246.604V443.977H247.74V441.769H249.196V443.977H251.484V445.177H249.196ZM256.353 452.889C255.681 452.889 255.078 452.777 254.545 452.553C254.011 452.318 253.59 451.998 253.281 451.593C252.971 451.177 252.801 450.702 252.769 450.169H254.273C254.315 450.606 254.518 450.964 254.881 451.241C255.254 451.518 255.739 451.657 256.337 451.657C256.891 451.657 257.329 451.534 257.649 451.289C257.969 451.044 258.129 450.734 258.129 450.361C258.129 449.977 257.958 449.694 257.617 449.513C257.275 449.321 256.747 449.134 256.033 448.953C255.382 448.782 254.849 448.612 254.433 448.441C254.027 448.26 253.675 447.998 253.377 447.657C253.089 447.305 252.945 446.846 252.945 446.281C252.945 445.833 253.078 445.422 253.345 445.049C253.611 444.676 253.99 444.382 254.481 444.169C254.971 443.945 255.531 443.833 256.161 443.833C257.131 443.833 257.915 444.078 258.513 444.569C259.11 445.06 259.43 445.732 259.473 446.585H258.017C257.985 446.126 257.798 445.758 257.457 445.481C257.126 445.204 256.678 445.065 256.113 445.065C255.59 445.065 255.174 445.177 254.865 445.401C254.555 445.625 254.401 445.918 254.401 446.281C254.401 446.569 254.491 446.809 254.673 447.001C254.865 447.182 255.099 447.332 255.377 447.449C255.665 447.556 256.059 447.678 256.561 447.817C257.19 447.988 257.702 448.158 258.097 448.329C258.491 448.489 258.827 448.734 259.105 449.065C259.393 449.396 259.542 449.828 259.553 450.361C259.553 450.841 259.419 451.273 259.153 451.657C258.886 452.041 258.507 452.345 258.017 452.569C257.537 452.782 256.982 452.889 256.353 452.889ZM72.6265 472.329C72.6265 471.433 72.8078 470.649 73.1705 469.977C73.5331 469.294 74.0291 468.766 74.6585 468.393C75.2985 468.02 76.0078 467.833 76.7865 467.833C77.5545 467.833 78.2211 467.998 78.7865 468.329C79.3518 468.66 79.7731 469.076 80.0505 469.577V467.977H81.5225V476.745H80.0505V475.113C79.7625 475.625 79.3305 476.052 78.7545 476.393C78.1891 476.724 77.5278 476.889 76.7705 476.889C75.9918 476.889 75.2878 476.697 74.6585 476.313C74.0291 475.929 73.5331 475.39 73.1705 474.697C72.8078 474.004 72.6265 473.214 72.6265 472.329ZM80.0505 472.345C80.0505 471.684 79.9171 471.108 79.6505 470.617C79.3838 470.126 79.0211 469.753 78.5625 469.497C78.1145 469.23 77.6185 469.097 77.0745 469.097C76.5305 469.097 76.0345 469.225 75.5865 469.481C75.1385 469.737 74.7811 470.11 74.5145 470.601C74.2478 471.092 74.1145 471.668 74.1145 472.329C74.1145 473.001 74.2478 473.588 74.5145 474.089C74.7811 474.58 75.1385 474.958 75.5865 475.225C76.0345 475.481 76.5305 475.609 77.0745 475.609C77.6185 475.609 78.1145 475.481 78.5625 475.225C79.0211 474.958 79.3838 474.58 79.6505 474.089C79.9171 473.588 80.0505 473.006 80.0505 472.345ZM88.255 467.817C89.3216 467.817 90.1856 468.142 90.847 468.793C91.5083 469.433 91.839 470.361 91.839 471.577V476.745H90.399V471.785C90.399 470.91 90.1803 470.244 89.743 469.785C89.3056 469.316 88.7083 469.081 87.951 469.081C87.183 469.081 86.5696 469.321 86.111 469.801C85.663 470.281 85.439 470.98 85.439 471.897V476.745H83.983V467.977H85.439V469.225C85.727 468.777 86.1163 468.43 86.607 468.185C87.1083 467.94 87.6576 467.817 88.255 467.817ZM93.6734 472.329C93.6734 471.433 93.8547 470.649 94.2174 469.977C94.58 469.294 95.076 468.766 95.7054 468.393C96.3454 468.02 97.06 467.833 97.8494 467.833C98.532 467.833 99.1667 467.993 99.7534 468.313C100.34 468.622 100.788 469.033 101.097 469.545V464.905H102.569V476.745H101.097V475.097C100.809 475.62 100.383 476.052 99.8174 476.393C99.252 476.724 98.5907 476.889 97.8334 476.889C97.0547 476.889 96.3454 476.697 95.7054 476.313C95.076 475.929 94.58 475.39 94.2174 474.697C93.8547 474.004 93.6734 473.214 93.6734 472.329ZM101.097 472.345C101.097 471.684 100.964 471.108 100.697 470.617C100.431 470.126 100.068 469.753 99.6094 469.497C99.1614 469.23 98.6654 469.097 98.1214 469.097C97.5774 469.097 97.0814 469.225 96.6334 469.481C96.1854 469.737 95.828 470.11 95.5614 470.601C95.2947 471.092 95.1614 471.668 95.1614 472.329C95.1614 473.001 95.2947 473.588 95.5614 474.089C95.828 474.58 96.1854 474.958 96.6334 475.225C97.0814 475.481 97.5774 475.609 98.1214 475.609C98.6654 475.609 99.1614 475.481 99.6094 475.225C100.068 474.958 100.431 474.58 100.697 474.089C100.964 473.588 101.097 473.006 101.097 472.345ZM108.751 472.329C108.751 471.433 108.933 470.649 109.295 469.977C109.658 469.294 110.154 468.766 110.783 468.393C111.423 468.02 112.133 467.833 112.911 467.833C113.679 467.833 114.346 467.998 114.911 468.329C115.477 468.66 115.898 469.076 116.175 469.577V467.977H117.647V476.745H116.175V475.113C115.887 475.625 115.455 476.052 114.879 476.393C114.314 476.724 113.653 476.889 112.895 476.889C112.117 476.889 111.413 476.697 110.783 476.313C110.154 475.929 109.658 475.39 109.295 474.697C108.933 474.004 108.751 473.214 108.751 472.329ZM116.175 472.345C116.175 471.684 116.042 471.108 115.775 470.617C115.509 470.126 115.146 469.753 114.687 469.497C114.239 469.23 113.743 469.097 113.199 469.097C112.655 469.097 112.159 469.225 111.711 469.481C111.263 469.737 110.906 470.11 110.639 470.601C110.373 471.092 110.239 471.668 110.239 472.329C110.239 473.001 110.373 473.588 110.639 474.089C110.906 474.58 111.263 474.958 111.711 475.225C112.159 475.481 112.655 475.609 113.199 475.609C113.743 475.609 114.239 475.481 114.687 475.225C115.146 474.958 115.509 474.58 115.775 474.089C116.042 473.588 116.175 473.006 116.175 472.345ZM125.83 469.401C126.086 468.9 126.448 468.51 126.918 468.233C127.398 467.956 127.979 467.817 128.662 467.817V469.321H128.278C126.646 469.321 125.83 470.206 125.83 471.977V476.745H124.374V467.977H125.83V469.401ZM134.166 476.889C133.345 476.889 132.598 476.702 131.926 476.329C131.265 475.956 130.742 475.428 130.358 474.745C129.985 474.052 129.798 473.252 129.798 472.345C129.798 471.449 129.99 470.66 130.374 469.977C130.769 469.284 131.302 468.756 131.974 468.393C132.646 468.02 133.398 467.833 134.23 467.833C135.062 467.833 135.814 468.02 136.486 468.393C137.158 468.756 137.686 469.278 138.07 469.961C138.465 470.644 138.662 471.438 138.662 472.345C138.662 473.252 138.46 474.052 138.054 474.745C137.66 475.428 137.121 475.956 136.438 476.329C135.756 476.702 134.998 476.889 134.166 476.889ZM134.166 475.609C134.689 475.609 135.18 475.486 135.638 475.241C136.097 474.996 136.465 474.628 136.742 474.137C137.03 473.646 137.174 473.049 137.174 472.345C137.174 471.641 137.036 471.044 136.758 470.553C136.481 470.062 136.118 469.7 135.67 469.465C135.222 469.22 134.737 469.097 134.214 469.097C133.681 469.097 133.19 469.22 132.742 469.465C132.305 469.7 131.953 470.062 131.686 470.553C131.42 471.044 131.286 471.641 131.286 472.345C131.286 473.06 131.414 473.662 131.67 474.153C131.937 474.644 132.289 475.012 132.726 475.257C133.164 475.492 133.644 475.609 134.166 475.609ZM148.353 467.977V476.745H146.897V475.449C146.619 475.897 146.23 476.249 145.729 476.505C145.238 476.75 144.694 476.873 144.097 476.873C143.414 476.873 142.801 476.734 142.257 476.457C141.713 476.169 141.281 475.742 140.961 475.177C140.651 474.612 140.497 473.924 140.497 473.113V467.977H141.937V472.921C141.937 473.785 142.155 474.452 142.593 474.921C143.03 475.38 143.627 475.609 144.385 475.609C145.163 475.609 145.777 475.369 146.225 474.889C146.673 474.409 146.897 473.71 146.897 472.793V467.977H148.353ZM154.427 467.833C155.184 467.833 155.846 467.998 156.411 468.329C156.987 468.66 157.414 469.076 157.691 469.577V467.977H159.163V476.937C159.163 477.737 158.992 478.446 158.651 479.065C158.31 479.694 157.819 480.185 157.179 480.537C156.55 480.889 155.814 481.065 154.971 481.065C153.819 481.065 152.859 480.793 152.091 480.249C151.323 479.705 150.87 478.964 150.731 478.025H152.171C152.331 478.558 152.662 478.985 153.163 479.305C153.664 479.636 154.267 479.801 154.971 479.801C155.771 479.801 156.422 479.55 156.923 479.049C157.435 478.548 157.691 477.844 157.691 476.937V475.097C157.403 475.609 156.976 476.036 156.411 476.377C155.846 476.718 155.184 476.889 154.427 476.889C153.648 476.889 152.939 476.697 152.299 476.313C151.67 475.929 151.174 475.39 150.811 474.697C150.448 474.004 150.267 473.214 150.267 472.329C150.267 471.433 150.448 470.649 150.811 469.977C151.174 469.294 151.67 468.766 152.299 468.393C152.939 468.02 153.648 467.833 154.427 467.833ZM157.691 472.345C157.691 471.684 157.558 471.108 157.291 470.617C157.024 470.126 156.662 469.753 156.203 469.497C155.755 469.23 155.259 469.097 154.715 469.097C154.171 469.097 153.675 469.225 153.227 469.481C152.779 469.737 152.422 470.11 152.155 470.601C151.888 471.092 151.755 471.668 151.755 472.329C151.755 473.001 151.888 473.588 152.155 474.089C152.422 474.58 152.779 474.958 153.227 475.225C153.675 475.481 154.171 475.609 154.715 475.609C155.259 475.609 155.755 475.481 156.203 475.225C156.662 474.958 157.024 474.58 157.291 474.089C157.558 473.588 157.691 473.006 157.691 472.345ZM165.976 467.817C166.637 467.817 167.234 467.961 167.768 468.249C168.301 468.526 168.717 468.948 169.016 469.513C169.325 470.078 169.48 470.766 169.48 471.577V476.745H168.04V471.785C168.04 470.91 167.821 470.244 167.384 469.785C166.946 469.316 166.349 469.081 165.592 469.081C164.824 469.081 164.21 469.321 163.752 469.801C163.304 470.281 163.08 470.98 163.08 471.897V476.745H161.624V464.905H163.08V469.225C163.368 468.777 163.762 468.43 164.264 468.185C164.776 467.94 165.346 467.817 165.976 467.817ZM179.228 476.889C178.556 476.889 177.953 476.777 177.42 476.553C176.886 476.318 176.465 475.998 176.156 475.593C175.846 475.177 175.676 474.702 175.644 474.169H177.148C177.19 474.606 177.393 474.964 177.756 475.241C178.129 475.518 178.614 475.657 179.212 475.657C179.766 475.657 180.204 475.534 180.524 475.289C180.844 475.044 181.004 474.734 181.004 474.361C181.004 473.977 180.833 473.694 180.492 473.513C180.15 473.321 179.622 473.134 178.908 472.953C178.257 472.782 177.724 472.612 177.308 472.441C176.902 472.26 176.55 471.998 176.252 471.657C175.964 471.305 175.82 470.846 175.82 470.281C175.82 469.833 175.953 469.422 176.22 469.049C176.486 468.676 176.865 468.382 177.356 468.169C177.846 467.945 178.406 467.833 179.036 467.833C180.006 467.833 180.79 468.078 181.388 468.569C181.985 469.06 182.305 469.732 182.348 470.585H180.892C180.86 470.126 180.673 469.758 180.332 469.481C180.001 469.204 179.553 469.065 178.988 469.065C178.465 469.065 178.049 469.177 177.74 469.401C177.43 469.625 177.276 469.918 177.276 470.281C177.276 470.569 177.366 470.809 177.548 471.001C177.74 471.182 177.974 471.332 178.252 471.449C178.54 471.556 178.934 471.678 179.436 471.817C180.065 471.988 180.577 472.158 180.972 472.329C181.366 472.489 181.702 472.734 181.98 473.065C182.268 473.396 182.417 473.828 182.428 474.361C182.428 474.841 182.294 475.273 182.028 475.657C181.761 476.041 181.382 476.345 180.892 476.569C180.412 476.782 179.857 476.889 179.228 476.889ZM183.939 472.345C183.939 471.438 184.12 470.649 184.483 469.977C184.846 469.294 185.347 468.766 185.987 468.393C186.638 468.02 187.379 467.833 188.211 467.833C189.288 467.833 190.174 468.094 190.867 468.617C191.571 469.14 192.035 469.865 192.259 470.793H190.691C190.542 470.26 190.248 469.838 189.811 469.529C189.384 469.22 188.851 469.065 188.211 469.065C187.379 469.065 186.707 469.353 186.195 469.929C185.683 470.494 185.427 471.3 185.427 472.345C185.427 473.401 185.683 474.217 186.195 474.793C186.707 475.369 187.379 475.657 188.211 475.657C188.851 475.657 189.384 475.508 189.811 475.209C190.238 474.91 190.531 474.484 190.691 473.929H192.259C192.024 474.825 191.555 475.545 190.851 476.089C190.147 476.622 189.267 476.889 188.211 476.889C187.379 476.889 186.638 476.702 185.987 476.329C185.347 475.956 184.846 475.428 184.483 474.745C184.12 474.062 183.939 473.262 183.939 472.345ZM198.554 467.817C199.215 467.817 199.812 467.961 200.346 468.249C200.879 468.526 201.295 468.948 201.594 469.513C201.903 470.078 202.058 470.766 202.058 471.577V476.745H200.618V471.785C200.618 470.91 200.399 470.244 199.962 469.785C199.524 469.316 198.927 469.081 198.17 469.081C197.402 469.081 196.788 469.321 196.33 469.801C195.882 470.281 195.658 470.98 195.658 471.897V476.745H194.202V464.905H195.658V469.225C195.946 468.777 196.34 468.43 196.842 468.185C197.354 467.94 197.924 467.817 198.554 467.817ZM212.436 472.025C212.436 472.302 212.42 472.596 212.388 472.905H205.38C205.433 473.769 205.727 474.446 206.26 474.937C206.804 475.417 207.46 475.657 208.228 475.657C208.857 475.657 209.38 475.513 209.796 475.225C210.223 474.926 210.521 474.532 210.692 474.041H212.26C212.025 474.884 211.556 475.572 210.852 476.105C210.148 476.628 209.273 476.889 208.228 476.889C207.396 476.889 206.649 476.702 205.988 476.329C205.337 475.956 204.825 475.428 204.452 474.745C204.079 474.052 203.892 473.252 203.892 472.345C203.892 471.438 204.073 470.644 204.436 469.961C204.799 469.278 205.305 468.756 205.956 468.393C206.617 468.02 207.375 467.833 208.228 467.833C209.06 467.833 209.796 468.014 210.436 468.377C211.076 468.74 211.567 469.241 211.908 469.881C212.26 470.51 212.436 471.225 212.436 472.025ZM210.932 471.721C210.932 471.166 210.809 470.692 210.564 470.297C210.319 469.892 209.983 469.588 209.556 469.385C209.14 469.172 208.676 469.065 208.164 469.065C207.428 469.065 206.799 469.3 206.276 469.769C205.764 470.238 205.471 470.889 205.396 471.721H210.932ZM213.814 472.329C213.814 471.433 213.995 470.649 214.358 469.977C214.721 469.294 215.217 468.766 215.846 468.393C216.486 468.02 217.201 467.833 217.99 467.833C218.673 467.833 219.307 467.993 219.894 468.313C220.481 468.622 220.929 469.033 221.238 469.545V464.905H222.71V476.745H221.238V475.097C220.95 475.62 220.523 476.052 219.958 476.393C219.393 476.724 218.731 476.889 217.974 476.889C217.195 476.889 216.486 476.697 215.846 476.313C215.217 475.929 214.721 475.39 214.358 474.697C213.995 474.004 213.814 473.214 213.814 472.329ZM221.238 472.345C221.238 471.684 221.105 471.108 220.838 470.617C220.571 470.126 220.209 469.753 219.75 469.497C219.302 469.23 218.806 469.097 218.262 469.097C217.718 469.097 217.222 469.225 216.774 469.481C216.326 469.737 215.969 470.11 215.702 470.601C215.435 471.092 215.302 471.668 215.302 472.329C215.302 473.001 215.435 473.588 215.702 474.089C215.969 474.58 216.326 474.958 216.774 475.225C217.222 475.481 217.718 475.609 218.262 475.609C218.806 475.609 219.302 475.481 219.75 475.225C220.209 474.958 220.571 474.58 220.838 474.089C221.105 473.588 221.238 473.006 221.238 472.345ZM232.946 467.977V476.745H231.49V475.449C231.213 475.897 230.824 476.249 230.322 476.505C229.832 476.75 229.288 476.873 228.69 476.873C228.008 476.873 227.394 476.734 226.85 476.457C226.306 476.169 225.874 475.742 225.554 475.177C225.245 474.612 225.09 473.924 225.09 473.113V467.977H226.53V472.921C226.53 473.785 226.749 474.452 227.186 474.921C227.624 475.38 228.221 475.609 228.978 475.609C229.757 475.609 230.37 475.369 230.818 474.889C231.266 474.409 231.49 473.71 231.49 472.793V467.977H232.946ZM236.861 464.905V476.745H235.405V464.905H236.861ZM247.342 472.025C247.342 472.302 247.326 472.596 247.294 472.905H240.286C240.34 473.769 240.633 474.446 241.166 474.937C241.71 475.417 242.366 475.657 243.134 475.657C243.764 475.657 244.286 475.513 244.702 475.225C245.129 474.926 245.428 474.532 245.598 474.041H247.166C246.932 474.884 246.462 475.572 245.758 476.105C245.054 476.628 244.18 476.889 243.134 476.889C242.302 476.889 241.556 476.702 240.894 476.329C240.244 475.956 239.732 475.428 239.358 474.745C238.985 474.052 238.798 473.252 238.798 472.345C238.798 471.438 238.98 470.644 239.342 469.961C239.705 469.278 240.212 468.756 240.862 468.393C241.524 468.02 242.281 467.833 243.134 467.833C243.966 467.833 244.702 468.014 245.342 468.377C245.982 468.74 246.473 469.241 246.814 469.881C247.166 470.51 247.342 471.225 247.342 472.025ZM245.838 471.721C245.838 471.166 245.716 470.692 245.47 470.297C245.225 469.892 244.889 469.588 244.462 469.385C244.046 469.172 243.582 469.065 243.07 469.065C242.334 469.065 241.705 469.3 241.182 469.769C240.67 470.238 240.377 470.889 240.302 471.721H245.838Z" fill="#434343"/>
<defs>
<filter id="filter0_d_5271_21973" x="32.3682" y="0.948242" width="255.219" height="288.584" filterUnits="userSpaceOnUse" color-interpolation-filters="sRGB">
<feFlood flood-opacity="0" result="BackgroundImageFix"/>
<feColorMatrix in="SourceAlpha" type="matrix" values="0 0 0 0 0 0 0 0 0 0 0 0 0 0 0 0 0 0 127 0" result="hardAlpha"/>
<feOffset/>
<feGaussianBlur stdDeviation="10"/>
<feComposite in2="hardAlpha" operator="out"/>
<feColorMatrix type="matrix" values="0 0 0 0 0.645833 0 0 0 0 0.645833 0 0 0 0 0.645833 0 0 0 0.2 0"/>
<feBlend mode="normal" in2="BackgroundImageFix" result="effect1_dropShadow_5271_21973"/>
<feBlend mode="normal" in="SourceGraphic" in2="effect1_dropShadow_5271_21973" result="shape"/>
</filter>
</defs>
</svg>
