<svg width="372" height="562" viewBox="0 0 372 562" fill="none" xmlns="http://www.w3.org/2000/svg">
<g clip-path="url(#clip0_6207_18543)">
<path d="M0 400.791L0.765037 400.04L0 399.521V400.791Z" fill="url(#paint0_linear_6207_18543)" fill-opacity="0.5"/>
<path d="M0 302.479V399.52L0.765037 400.04C31.8708 368.071 69.3239 387.145 101.985 406.276C107.357 409.355 112.687 412.531 118.009 415.745C135.304 410.017 152.418 401.711 169.241 390.879C176.202 386.567 183.207 382.307 190.258 378.099C153.511 358.333 116.764 332.812 79.2861 311.968C52.9723 296.012 25.2293 283.367 0 302.479Z" fill="url(#paint1_linear_6207_18543)" fill-opacity="0.5"/>
<path d="M122.161 333.139C120.48 333.601 118.723 333.986 117.008 334.275C141.565 349.383 165.911 365.069 190.258 378.099C250.485 342.435 313.353 315.663 371.588 362.201V276.766C288.905 272.666 205.146 308.253 122.161 333.139Z" fill="url(#paint2_linear_6207_18543)" fill-opacity="0.5"/>
<path d="M169.24 390.879C152.417 401.711 135.303 410.017 118.008 415.745C169.29 446.771 218.564 481.646 272.646 465.94C306.66 457.491 339.674 437.07 371.587 409.375V362.144C306.543 310.178 235.714 349.71 169.24 390.879Z" fill="url(#paint3_linear_6207_18543)" fill-opacity="0.5"/>
<path d="M272.647 465.94C212.957 483.262 159.152 438.995 101.985 406.276C69.0634 387.029 31.2572 367.783 9.98087e-05 400.791V550.529C-0.00463527 552.239 0.159166 553.93 0.479303 555.475C0.870291 557.435 1.50061 559.094 2.29421 560.251C3.08782 561.409 4.01081 562.016 4.95182 562H366.452C366.628 562 366.805 562 366.973 562C367.31 561.926 367.642 561.771 367.965 561.538C368.998 560.839 369.907 559.401 370.558 557.433C371.208 555.466 371.566 553.073 371.58 550.606V409.375C339.675 437.205 306.661 457.491 272.647 465.94Z" fill="url(#paint4_linear_6207_18543)" fill-opacity="0.5"/>
</g>
<defs>
<linearGradient id="paint0_linear_6207_18543" x1="0.382527" y1="400.24" x2="0.382527" y2="399.517" gradientUnits="userSpaceOnUse">
<stop stop-color="#F8FAFF"/>
<stop offset="1" stop-color="#DAE5FF" stop-opacity="0.78"/>
</linearGradient>
<linearGradient id="paint1_linear_6207_18543" x1="95.1312" y1="362.429" x2="95.1312" y2="292.538" gradientUnits="userSpaceOnUse">
<stop stop-color="#F8FAFF"/>
<stop offset="1" stop-color="#DAE5FF" stop-opacity="0.78"/>
</linearGradient>
<linearGradient id="paint2_linear_6207_18543" x1="244.301" y1="333.993" x2="244.301" y2="276.176" gradientUnits="userSpaceOnUse">
<stop stop-color="#F8FAFF"/>
<stop offset="1" stop-color="#DAE5FF" stop-opacity="0.78"/>
</linearGradient>
<linearGradient id="paint3_linear_6207_18543" x1="244.8" y1="412.348" x2="244.8" y2="336.993" gradientUnits="userSpaceOnUse">
<stop stop-color="#F8FAFF"/>
<stop offset="1" stop-color="#DAE5FF" stop-opacity="0.78"/>
</linearGradient>
<linearGradient id="paint4_linear_6207_18543" x1="185.794" y1="484.302" x2="185.794" y2="382.449" gradientUnits="userSpaceOnUse">
<stop stop-color="white" stop-opacity="0.74"/>
<stop offset="1" stop-color="#DAE5FF"/>
</linearGradient>
<clipPath id="clip0_6207_18543">
<rect width="372" height="562" fill="white"/>
</clipPath>
</defs>
</svg>
