<svg width="1440" height="890" viewBox="0 0 1440 890" fill="none" xmlns="http://www.w3.org/2000/svg">
<g clip-path="url(#clip0_5247_17652)">
<path d="M1440 18.4096V871.834C1439.95 875.742 1438.56 879.531 1436.04 882.646C1433.52 885.762 1430.01 888.04 1426.01 889.147C1424.76 889.516 1423.47 889.761 1422.17 889.878C1421.51 889.878 1420.83 889.878 1420.15 889.878H20.7943C17.1517 889.904 13.5788 888.943 10.5068 887.109C7.43476 885.276 4.99483 882.649 3.48133 879.546C2.24209 877.098 1.60802 874.421 1.62635 871.712V18.2877C1.59628 15.9065 2.06893 13.5432 3.01714 11.3336C3.96535 9.12397 5.37047 7.11162 7.15167 5.41222C8.93286 3.71282 11.0551 2.35986 13.3963 1.43105C15.7376 0.502241 18.2517 0.0158968 20.7943 0H1420.15C1423.35 0.0353998 1426.5 0.78682 1429.33 2.19173C1432.16 3.59665 1434.59 5.61444 1436.42 8.07708C1438.7 11.1022 1439.95 14.7054 1440 18.4096Z" fill="url(#paint0_linear_5247_17652)" fill-opacity="0.5"/>
<path d="M0 634.704L2.96143 633.515L0 632.692V634.704Z" fill="url(#paint1_linear_5247_17652)" fill-opacity="0.5"/>
<path d="M0 479.015V632.693L2.96143 633.515C123.371 582.889 268.35 613.094 394.78 643.391C415.576 648.267 436.208 653.297 456.808 658.387C523.758 649.316 590.005 636.161 655.125 619.007C682.071 612.18 709.19 605.434 736.483 598.769C594.237 567.466 451.991 527.051 306.914 494.041C205.054 468.774 97.6619 448.749 0 479.015Z" fill="url(#paint2_linear_5247_17652)" fill-opacity="0.5"/>
<path d="M472.883 527.569C466.374 528.3 459.572 528.91 452.934 529.367C547.992 553.293 642.237 578.134 736.482 598.769C969.621 542.29 1212.98 499.893 1438.4 573.593V438.294C1118.34 431.802 794.116 488.159 472.883 527.569Z" fill="url(#paint3_linear_5247_17652)" fill-opacity="0.5"/>
<path d="M655.126 619.007C590.006 636.161 523.759 649.316 456.809 658.387C655.322 707.519 846.057 762.748 1055.41 737.877C1187.08 724.496 1314.87 692.158 1438.41 648.298V573.501C1186.62 491.207 912.445 553.811 655.126 619.007Z" fill="url(#paint4_linear_5247_17652)" fill-opacity="0.5"/>
<path d="M1055.41 737.877C824.35 765.309 616.074 695.206 394.781 643.391C267.342 612.911 120.996 582.432 0.000386356 634.704V871.834C-0.017943 874.543 0.616127 877.22 1.85537 879.668C3.36887 882.771 5.8088 885.398 8.88082 887.231C11.9528 889.064 15.5257 890.026 19.1683 890H1418.52C1419.21 890 1419.89 890 1420.54 890C1421.84 889.883 1423.13 889.638 1424.38 889.269C1428.38 888.162 1431.9 885.884 1434.42 882.768C1436.94 879.653 1438.32 875.864 1438.37 871.956V648.298C1314.87 692.371 1187.08 724.497 1055.41 737.877Z" fill="url(#paint5_linear_5247_17652)" fill-opacity="0.5"/>
</g>
<defs>
<linearGradient id="paint0_linear_5247_17652" x1="720.829" y1="503.793" x2="720.829" y2="-2.31494" gradientUnits="userSpaceOnUse">
<stop stop-color="#F8FAFF"/>
<stop offset="1" stop-color="#DAE5FF" stop-opacity="0.78"/>
</linearGradient>
<linearGradient id="paint1_linear_5247_17652" x1="1.48075" y1="633.831" x2="1.48075" y2="632.687" gradientUnits="userSpaceOnUse">
<stop stop-color="#F8FAFF"/>
<stop offset="1" stop-color="#DAE5FF" stop-opacity="0.78"/>
</linearGradient>
<linearGradient id="paint2_linear_5247_17652" x1="368.25" y1="573.953" x2="368.25" y2="463.273" gradientUnits="userSpaceOnUse">
<stop stop-color="#F8FAFF"/>
<stop offset="1" stop-color="#DAE5FF" stop-opacity="0.78"/>
</linearGradient>
<linearGradient id="paint3_linear_5247_17652" x1="945.68" y1="528.921" x2="945.68" y2="437.361" gradientUnits="userSpaceOnUse">
<stop stop-color="#F8FAFF"/>
<stop offset="1" stop-color="#DAE5FF" stop-opacity="0.78"/>
</linearGradient>
<linearGradient id="paint4_linear_5247_17652" x1="947.619" y1="653.006" x2="947.619" y2="533.672" gradientUnits="userSpaceOnUse">
<stop stop-color="#F8FAFF"/>
<stop offset="1" stop-color="#DAE5FF" stop-opacity="0.78"/>
</linearGradient>
<linearGradient id="paint5_linear_5247_17652" x1="719.203" y1="766.955" x2="719.203" y2="605.657" gradientUnits="userSpaceOnUse">
<stop stop-color="white" stop-opacity="0.74"/>
<stop offset="1" stop-color="#DAE5FF"/>
</linearGradient>
<clipPath id="clip0_5247_17652">
<rect width="1440" height="890" fill="white"/>
</clipPath>
</defs>
</svg>
