<svg width="1440" height="840" viewBox="0 0 1440 840" fill="none" xmlns="http://www.w3.org/2000/svg">
<path d="M-12 757.588C-12 516.763 -12 275.939 -12 34.8677C-2.70385 36.3497 6.4399 37.9552 15.5836 39.1902C36.3095 41.9072 57.0353 44.7477 77.7611 47.0942C113.117 50.9227 148.625 51.5402 184.133 50.6757C206.993 50.0582 229.852 48.3292 252.712 46.6002C298.43 43.0187 342.473 33.0152 386.363 22.2708C415.013 15.2313 444.121 10.5383 473.686 6.83331C513.308 1.89333 553.084 -0.700165 593.011 0.164332C664.638 1.76983 733.368 13.0083 797.07 40.9192C837.302 58.5797 877.077 76.7341 917.462 94.0241C970.344 116.624 1023.99 137.619 1079.76 155.28C1107.04 163.925 1134.47 172.57 1163.28 177.386C1177.3 179.733 1191.77 181.338 1206.1 181.956C1227.89 183.067 1249.69 183.808 1271.48 183.314C1313.39 182.203 1354.69 178.127 1394.16 165.654C1414.73 159.232 1433.47 150.587 1448.87 137.496C1449.17 137.249 1449.63 136.878 1450.09 136.755C1450.24 136.631 1450.54 136.755 1451 136.755C1451 366.958 1451 597.038 1451 827.488C1437.28 825.512 1423.57 823.413 1410.01 821.56C1391.41 818.843 1372.67 816.25 1353.92 813.533C1328.47 809.828 1303.18 805.753 1277.57 802.665C1258.52 800.318 1239.32 798.96 1220.27 797.478C1186.59 794.761 1152.91 794.514 1119.08 795.131C1097.14 795.502 1075.19 796.49 1053.25 797.478C1035.72 798.219 1018.04 798.96 1000.52 800.071C981.468 801.306 962.419 802.665 943.37 804.27C923.863 805.876 904.356 807.605 884.849 809.334C874.487 810.322 864.276 811.31 853.913 812.545C834.559 814.768 815.205 817.114 795.85 819.214C777.41 821.313 758.971 823.289 740.531 825.142C723.005 826.994 705.632 828.6 688.106 830.329C672.257 831.811 656.408 833.293 640.559 834.404C625.624 835.516 610.689 836.38 595.755 836.998C568.018 838.109 540.283 839.221 512.546 839.715C486.182 840.209 459.818 839.962 433.301 839.715C416.232 839.591 399.012 838.974 381.943 838.233C366.094 837.492 350.397 836.38 334.548 835.392C319.613 834.404 304.679 833.54 289.896 832.058C265.665 829.588 241.434 827.118 217.356 823.783C196.782 820.819 176.056 817.485 155.94 812.915C99.5537 800.071 44.5389 784.017 -6.51375 760.428C-8.1901 759.317 -10.0189 758.452 -12 757.588Z" fill="#002680" fill-opacity="0.05"/>
</svg>
