<?xml version="1.0" encoding="utf-8"?>
<!-- Generator: Adobe Illustrator 25.2.1, SVG Export Plug-In . SVG Version: 6.00 Build 0)  -->
<svg version="1.1" id="Layer_1" xmlns="http://www.w3.org/2000/svg" xmlns:xlink="http://www.w3.org/1999/xlink" x="0px" y="0px"
	 viewBox="0 0 24 24" style="enable-background:new 0 0 24 24;" xml:space="preserve">
<style type="text/css">
	.st0{fill:#002680;}
	.st1{opacity:0.65;}
	.st2{fill:url(#SVGID_1_);}
	.st3{fill:url(#SVGID_2_);}
	.st4{fill:url(#SVGID_3_);}
	.st5{fill:url(#SVGID_4_);}
	.st6{fill:url(#SVGID_5_);}
	.st7{fill:url(#SVGID_6_);}
	.st8{fill:url(#SVGID_7_);}
	.st9{fill:url(#SVGID_8_);}
	.st10{fill:url(#SVGID_9_);}
	.st11{fill:url(#SVGID_10_);}
	.st12{fill:url(#SVGID_11_);}
	.st13{fill:url(#SVGID_12_);}
	.st14{fill:url(#SVGID_13_);}
	.st15{fill:url(#SVGID_14_);}
	.st16{fill:url(#SVGID_15_);}
	.st17{fill:url(#SVGID_16_);}
	.st18{fill:url(#SVGID_17_);}
	.st19{fill:url(#SVGID_18_);}
	.st20{fill:url(#SVGID_19_);}
	.st21{fill:url(#SVGID_20_);}
	.st22{fill:url(#SVGID_21_);}
	.st23{fill:url(#SVGID_22_);}
	.st24{fill:url(#SVGID_23_);}
	.st25{fill:url(#SVGID_24_);}
	.st26{fill:url(#SVGID_25_);}
	.st27{fill:url(#SVGID_26_);}
	.st28{fill:url(#SVGID_27_);}
	.st29{fill:#FFFFFF;}
	.st30{fill:url(#SVGID_28_);}
	.st31{fill:url(#SVGID_29_);}
	.st32{fill:url(#SVGID_30_);}
	.st33{fill:url(#SVGID_31_);}
	.st34{fill:url(#SVGID_32_);}
	.st35{fill:url(#SVGID_33_);}
	.st36{fill:url(#SVGID_34_);}
	.st37{fill:url(#SVGID_35_);}
	.st38{fill:url(#SVGID_36_);}
	.st39{fill:url(#SVGID_37_);}
	.st40{fill:url(#SVGID_38_);}
	.st41{fill:url(#SVGID_39_);}
	.st42{fill:url(#SVGID_40_);}
	.st43{fill:url(#SVGID_41_);}
	.st44{fill:url(#SVGID_42_);}
	.st45{fill:url(#SVGID_43_);}
	.st46{fill:url(#SVGID_44_);}
	.st47{fill:url(#SVGID_45_);}
	.st48{fill:url(#SVGID_46_);}
	.st49{fill:url(#SVGID_47_);}
	.st50{fill:url(#SVGID_48_);}
	.st51{fill:url(#SVGID_49_);}
	.st52{fill:url(#SVGID_50_);}
	.st53{fill:url(#SVGID_51_);}
	.st54{fill:url(#SVGID_52_);}
	.st55{fill:url(#SVGID_53_);}
	.st56{fill:url(#SVGID_54_);}
	.st57{fill:url(#SVGID_55_);}
	.st58{fill:url(#SVGID_56_);}
	.st59{fill:url(#SVGID_57_);}
	.st60{fill:url(#SVGID_58_);}
	.st61{fill:url(#SVGID_59_);}
	.st62{fill:url(#SVGID_60_);}
	.st63{fill:url(#SVGID_61_);}
	.st64{fill:url(#SVGID_62_);}
	.st65{fill:url(#SVGID_63_);}
	.st66{fill:url(#SVGID_64_);}
	.st67{fill:url(#SVGID_65_);}
	.st68{fill:url(#SVGID_66_);}
	.st69{fill:url(#SVGID_67_);}
	.st70{fill:url(#SVGID_68_);}
	.st71{fill:url(#SVGID_69_);}
	.st72{fill:url(#SVGID_70_);}
	.st73{fill:url(#SVGID_71_);}
	.st74{fill:url(#SVGID_72_);}
	.st75{fill:url(#SVGID_73_);}
	.st76{fill:url(#SVGID_74_);}
	.st77{fill:url(#SVGID_75_);}
	.st78{fill:url(#SVGID_76_);}
	.st79{fill:url(#SVGID_77_);}
	.st80{fill:url(#SVGID_78_);}
	.st81{fill:url(#SVGID_79_);}
	.st82{fill:url(#SVGID_80_);}
	.st83{fill:url(#SVGID_81_);}
	.st84{fill:url(#SVGID_82_);}
	.st85{fill:url(#SVGID_83_);}
	.st86{fill:url(#SVGID_84_);}
	.st87{fill:url(#SVGID_85_);}
	.st88{fill:url(#SVGID_86_);}
	.st89{fill:url(#SVGID_87_);}
	.st90{fill:url(#SVGID_88_);}
	.st91{fill:url(#SVGID_89_);}
	.st92{fill:url(#SVGID_90_);}
	.st93{fill:url(#SVGID_91_);}
	.st94{fill:url(#SVGID_92_);}
	.st95{fill:url(#SVGID_93_);}
	.st96{fill:url(#SVGID_94_);}
	.st97{fill:url(#SVGID_95_);}
	.st98{fill:url(#SVGID_96_);}
	.st99{fill:url(#SVGID_97_);}
	.st100{fill:url(#SVGID_98_);}
	.st101{fill:url(#SVGID_99_);}
	.st102{fill:url(#SVGID_100_);}
	.st103{fill:url(#SVGID_101_);}
	.st104{fill:url(#SVGID_102_);}
	.st105{fill:url(#SVGID_103_);}
	.st106{fill:url(#SVGID_104_);}
	.st107{fill:url(#SVGID_105_);}
	.st108{fill:url(#SVGID_106_);}
	.st109{fill:url(#SVGID_107_);}
	.st110{fill:url(#SVGID_108_);}
	.st111{fill:url(#SVGID_109_);}
	.st112{fill:url(#SVGID_110_);}
	.st113{fill:url(#SVGID_111_);}
	.st114{fill:url(#SVGID_112_);}
	.st115{fill:url(#SVGID_113_);}
	.st116{fill:url(#SVGID_114_);}
	.st117{fill:url(#SVGID_115_);}
	.st118{fill:url(#SVGID_116_);}
	.st119{fill:url(#SVGID_117_);}
	.st120{fill:url(#SVGID_118_);}
	.st121{fill:url(#SVGID_119_);}
	.st122{fill:url(#SVGID_120_);}
	.st123{fill:url(#SVGID_121_);}
	.st124{fill:url(#SVGID_122_);}
	.st125{fill:url(#SVGID_123_);}
	.st126{fill:url(#SVGID_124_);}
	.st127{fill:url(#SVGID_125_);}
	.st128{fill:url(#SVGID_126_);}
	.st129{fill:url(#SVGID_127_);}
	.st130{fill:url(#SVGID_128_);}
	.st131{fill:url(#SVGID_129_);}
	.st132{fill:url(#SVGID_130_);}
	.st133{fill:url(#SVGID_131_);}
	.st134{fill:url(#SVGID_132_);}
	.st135{fill:url(#SVGID_133_);}
	.st136{fill:url(#SVGID_134_);}
	.st137{fill:url(#SVGID_135_);}
	.st138{fill:url(#SVGID_136_);}
	.st139{fill:url(#SVGID_137_);}
	.st140{fill:url(#SVGID_138_);}
	.st141{fill:url(#SVGID_139_);}
	.st142{fill:url(#SVGID_140_);}
	.st143{fill:url(#SVGID_141_);}
	.st144{fill:url(#SVGID_142_);}
	.st145{fill:url(#SVGID_143_);}
	.st146{fill:url(#SVGID_144_);}
	.st147{fill:url(#SVGID_145_);}
	.st148{fill:url(#SVGID_146_);}
	.st149{fill:url(#SVGID_147_);}
	.st150{fill:url(#SVGID_148_);}
	.st151{fill:url(#SVGID_149_);}
	.st152{fill:url(#SVGID_150_);}
	.st153{fill:url(#SVGID_151_);}
	.st154{fill:url(#SVGID_152_);}
	.st155{fill:url(#SVGID_153_);}
	.st156{fill:url(#SVGID_154_);}
	.st157{fill:url(#SVGID_155_);}
	.st158{fill:url(#SVGID_156_);}
	.st159{fill:url(#SVGID_157_);}
	.st160{fill:url(#SVGID_158_);}
	.st161{fill:url(#SVGID_159_);}
	.st162{fill:url(#SVGID_160_);}
	.st163{fill:url(#SVGID_161_);}
	.st164{fill:url(#SVGID_162_);}
	.st165{fill:url(#SVGID_163_);}
	.st166{fill:url(#SVGID_164_);}
	.st167{fill:url(#SVGID_165_);}
	.st168{fill:url(#SVGID_166_);}
	.st169{fill:url(#SVGID_167_);}
	.st170{fill:url(#SVGID_168_);}
	.st171{fill:url(#SVGID_169_);}
	.st172{fill:url(#SVGID_170_);}
	.st173{fill:url(#SVGID_171_);}
	.st174{fill:url(#SVGID_172_);}
	.st175{fill:url(#SVGID_173_);}
	.st176{fill:url(#SVGID_174_);}
	.st177{fill:url(#SVGID_175_);}
	.st178{fill:url(#SVGID_176_);}
	.st179{fill:url(#SVGID_177_);}
	.st180{fill:url(#SVGID_178_);}
	.st181{fill:url(#SVGID_179_);}
	.st182{fill:url(#SVGID_180_);}
	.st183{fill:url(#SVGID_181_);}
	.st184{fill:url(#SVGID_182_);}
	.st185{fill:url(#SVGID_183_);}
	.st186{fill:url(#SVGID_184_);}
	.st187{fill:url(#SVGID_185_);}
	.st188{fill:url(#SVGID_186_);}
	.st189{fill:url(#SVGID_187_);}
	.st190{fill:url(#SVGID_188_);}
	.st191{fill:url(#SVGID_189_);}
	.st192{fill:url(#SVGID_190_);}
	.st193{fill:url(#SVGID_191_);}
	.st194{fill:url(#SVGID_192_);}
	.st195{fill:url(#SVGID_193_);}
	.st196{fill:url(#SVGID_194_);}
	.st197{fill:url(#SVGID_195_);}
	.st198{fill:url(#SVGID_196_);}
	.st199{fill:url(#SVGID_197_);}
	.st200{fill:url(#SVGID_198_);}
	.st201{fill:url(#SVGID_199_);}
	.st202{fill:url(#SVGID_200_);}
	.st203{fill:url(#SVGID_201_);}
	.st204{fill:url(#SVGID_202_);}
	.st205{fill:url(#SVGID_203_);}
	.st206{fill:url(#SVGID_204_);}
	.st207{fill:url(#SVGID_205_);}
	.st208{fill:url(#SVGID_206_);}
	.st209{fill:url(#SVGID_207_);}
	.st210{fill:url(#SVGID_208_);}
	.st211{fill:url(#SVGID_209_);}
	.st212{fill:url(#SVGID_210_);}
	.st213{fill:url(#SVGID_211_);}
	.st214{fill:url(#SVGID_212_);}
	.st215{fill:url(#SVGID_213_);}
	.st216{fill:url(#SVGID_214_);}
	.st217{fill:url(#SVGID_215_);}
	.st218{fill:url(#SVGID_216_);}
	.st219{fill:url(#SVGID_217_);}
	.st220{fill:url(#SVGID_218_);}
	.st221{fill:url(#SVGID_219_);}
	.st222{fill:url(#SVGID_220_);}
	.st223{fill:url(#SVGID_221_);}
	.st224{fill:url(#SVGID_222_);}
	.st225{fill:url(#SVGID_223_);}
	.st226{fill:url(#SVGID_224_);}
	.st227{fill:url(#SVGID_225_);}
	.st228{fill:url(#SVGID_226_);}
	.st229{fill:url(#SVGID_227_);}
	.st230{fill:url(#SVGID_228_);}
	.st231{fill:url(#SVGID_229_);}
	.st232{fill:url(#SVGID_230_);}
	.st233{fill:url(#SVGID_231_);}
	.st234{fill:url(#SVGID_232_);}
	.st235{fill:url(#SVGID_233_);}
	.st236{fill:url(#SVGID_234_);}
	.st237{fill:url(#SVGID_235_);}
	.st238{fill:url(#SVGID_236_);}
	.st239{fill:url(#SVGID_237_);}
	.st240{fill:url(#SVGID_238_);}
	.st241{fill:url(#SVGID_239_);}
	.st242{fill:url(#SVGID_240_);}
	.st243{fill:url(#SVGID_241_);}
	.st244{fill:url(#SVGID_242_);}
	.st245{fill:url(#SVGID_243_);}
	.st246{fill:url(#SVGID_244_);}
	.st247{fill:url(#SVGID_245_);}
	.st248{fill:url(#SVGID_246_);}
	.st249{fill:url(#SVGID_247_);}
</style>
<g>
	<g>
		<path class="st0" d="M13.62,8.63c0.05,0.07,0.13,0.11,0.21,0.11h0.52c0.1,0.27,0.32,0.47,0.59,0.54c0.27,0.08,0.57,0.02,0.79-0.16
			c0.22-0.18,0.34-0.45,0.33-0.73c-0.01-0.28-0.16-0.54-0.4-0.7c-0.24-0.15-0.54-0.18-0.8-0.08c-0.26,0.1-0.46,0.33-0.53,0.6h-0.36
			l-0.7-0.95c-0.05-0.07-0.13-0.11-0.21-0.11H12v0.53h0.92L13.62,8.63z"/>
		<path class="st0" d="M16.58,9.97c-0.2,0-0.4,0.07-0.56,0.2c-0.16,0.13-0.27,0.31-0.31,0.51h-1.26l-0.77-0.96
			c-0.05-0.06-0.13-0.1-0.21-0.1h-1.41v0.53h1.28l0.77,0.96h0c0.05,0.06,0.13,0.1,0.21,0.1h1.45c0.09,0.19,0.24,0.35,0.43,0.44
			c0.19,0.09,0.41,0.11,0.62,0.05s0.38-0.19,0.5-0.37c0.12-0.18,0.16-0.39,0.14-0.6c-0.03-0.21-0.13-0.4-0.29-0.54
			C17,10.05,16.79,9.97,16.58,9.97L16.58,9.97z"/>
		<path class="st0" d="M15.25,14.69c-0.18,0-0.35,0.06-0.5,0.16c-0.15,0.1-0.26,0.25-0.32,0.42h-0.59c-0.08,0-0.16,0.04-0.21,0.11
			l-0.7,0.95H12v0.53h1.06c0.08,0,0.16-0.04,0.21-0.11l0.7-0.95h0.43c0.06,0.21,0.19,0.4,0.38,0.52c0.19,0.12,0.41,0.16,0.63,0.13
			c0.22-0.04,0.41-0.16,0.55-0.33c0.13-0.17,0.2-0.39,0.18-0.61c-0.02-0.22-0.12-0.42-0.28-0.57
			C15.69,14.77,15.47,14.69,15.25,14.69L15.25,14.69z"/>
		<path class="st0" d="M16.47,12.18c-0.19,0-0.37,0.06-0.52,0.17s-0.26,0.27-0.32,0.45h-1.37c-0.08,0-0.16,0.04-0.21,0.1l-0.77,0.96
			H12v0.53h1.41c0.08,0,0.16-0.04,0.21-0.1l0.77-0.96h1.24c0.07,0.21,0.21,0.38,0.39,0.49c0.19,0.11,0.41,0.15,0.62,0.1
			c0.21-0.04,0.4-0.17,0.53-0.34c0.13-0.18,0.19-0.39,0.16-0.61c-0.02-0.22-0.12-0.42-0.29-0.56
			C16.89,12.26,16.68,12.18,16.47,12.18L16.47,12.18z"/>
		<path class="st0" d="M22.02,9.89c-0.23,0-0.44-0.08-0.62-0.22c-0.18-0.14-0.31-0.33-0.37-0.54c-0.16-0.51-0.37-1.01-0.62-1.49
			C20.3,7.45,20.25,7.22,20.28,7c0.03-0.22,0.13-0.43,0.29-0.59l0.5-0.5v0c-0.79-1.17-1.8-2.19-2.98-2.98l-0.5,0.5
			C17.43,3.59,17.22,3.69,17,3.72c-0.22,0.03-0.45-0.01-0.65-0.12c-0.48-0.25-0.97-0.45-1.49-0.62c-0.22-0.06-0.41-0.19-0.54-0.37
			c-0.14-0.18-0.21-0.4-0.22-0.62V1.27C12.72,1,11.28,1,9.89,1.27v0.71c0,0.23-0.08,0.44-0.22,0.62C9.54,2.78,9.35,2.91,9.13,2.98
			C8.62,3.14,8.13,3.35,7.65,3.59C7.45,3.7,7.22,3.75,7,3.72C6.78,3.69,6.57,3.59,6.41,3.43l-0.5-0.5C4.73,3.72,3.72,4.73,2.92,5.9
			l0.5,0.5v0C3.59,6.57,3.69,6.78,3.72,7C3.75,7.22,3.7,7.45,3.59,7.65C3.35,8.13,3.14,8.62,2.98,9.13C2.91,9.35,2.78,9.54,2.6,9.68
			c-0.18,0.14-0.4,0.21-0.62,0.22H1.27C1,11.28,1,12.72,1.27,14.11h0.71c0.23,0,0.44,0.08,0.62,0.22c0.18,0.14,0.31,0.33,0.37,0.54
			c0.16,0.51,0.37,1.01,0.62,1.49c0.11,0.2,0.15,0.42,0.12,0.65c-0.03,0.22-0.13,0.43-0.29,0.59l-0.5,0.5
			c0.79,1.17,1.8,2.19,2.98,2.98l0.5-0.5c0.16-0.16,0.37-0.26,0.59-0.29c0.22-0.03,0.45,0.01,0.65,0.12
			c0.48,0.25,0.97,0.45,1.49,0.62c0.22,0.06,0.41,0.19,0.54,0.37c0.14,0.18,0.21,0.4,0.22,0.62v0.71c1.39,0.28,2.82,0.28,4.21,0
			v-0.71c0-0.23,0.08-0.44,0.22-0.62c0.14-0.18,0.33-0.31,0.54-0.37c0.51-0.16,1.01-0.37,1.49-0.62c0.2-0.11,0.42-0.15,0.65-0.12
			c0.22,0.03,0.43,0.13,0.59,0.29l0.5,0.5c1.17-0.79,2.19-1.8,2.98-2.98l-0.5-0.5c-0.16-0.16-0.26-0.37-0.29-0.59
			c-0.03-0.22,0.01-0.45,0.12-0.65c0.25-0.48,0.45-0.97,0.62-1.49c0.06-0.22,0.19-0.41,0.37-0.54c0.18-0.14,0.4-0.21,0.62-0.22h0.71
			c0.28-1.39,0.28-2.82,0-4.21L22.02,9.89z M12,19.65c-2.03,0-3.98-0.81-5.41-2.24S4.35,14.03,4.35,12s0.81-3.98,2.24-5.41
			S9.97,4.35,12,4.35s3.98,0.81,5.41,2.24c1.44,1.44,2.24,3.38,2.24,5.41c0,1.34-0.35,2.66-1.03,3.83s-1.64,2.13-2.8,2.8
			S13.34,19.65,12,19.65L12,19.65z"/>
		<path class="st0" d="M12.04,10.85h0.71v0.71h-0.71V10.85z"/>
		
			<linearGradient id="SVGID_1_" gradientUnits="userSpaceOnUse" x1="12.042" y1="11.2058" x2="12.7474" y2="11.2058" gradientTransform="matrix(-1 0 0 1 24.7894 0)">
			<stop  offset="0" style="stop-color:#10BEF0"/>
			<stop  offset="1" style="stop-color:#10BEF0;stop-opacity:0"/>
		</linearGradient>
		<path class="st2" d="M12.75,10.85h-0.71v0.71h0.71V10.85z"/>
		<path class="st0" d="M12.7,12.22h0.71v0.71H12.7V12.22z"/>
		<linearGradient id="SVGID_2_" gradientUnits="userSpaceOnUse" x1="13.4029" y1="12.5777" x2="12.6974" y2="12.5777">
			<stop  offset="0" style="stop-color:#10BEF0"/>
			<stop  offset="1" style="stop-color:#10BEF0;stop-opacity:0"/>
		</linearGradient>
		<path class="st3" d="M12.7,12.22h0.71v0.71H12.7V12.22z"/>
		<path class="st0" d="M9.65,7.06c-1.14,0-2.06,0.79-2.06,1.76c0,0.04,0.01,0.07,0.01,0.11c0.27,0.09,0.51,0.28,0.65,0.52
			C8.41,9.71,8.46,10,8.42,10.28l-0.4-0.08c0.03-0.17-0.01-0.35-0.09-0.51C7.84,9.55,7.7,9.42,7.54,9.36
			C7.21,9.47,6.92,9.68,6.7,9.97c-0.21,0.28-0.33,0.62-0.35,0.98c0.01,0.48,0.22,0.93,0.59,1.23c-0.37,0.31-0.58,0.76-0.59,1.23
			c0.01,0.34,0.12,0.66,0.32,0.94c0.19,0.28,0.47,0.49,0.78,0.61c0.16-0.08,0.29-0.22,0.37-0.39c0.07-0.17,0.09-0.36,0.04-0.54
			l0.39-0.13v0c0.08,0.28,0.06,0.58-0.06,0.84c-0.12,0.26-0.33,0.48-0.59,0.6c0.1,0.89,0.98,1.59,2.05,1.59
			c0.63,0.01,1.23-0.25,1.65-0.72v-4.51c-0.24,0-0.48,0.08-0.68,0.22c-0.2,0.14-0.35,0.34-0.42,0.58l-0.02,0.05l-0.39-0.13
			l0.02-0.05l0,0c0.1-0.31,0.3-0.59,0.57-0.78c0.27-0.19,0.59-0.3,0.92-0.3V7.78C10.87,7.31,10.27,7.05,9.65,7.06L9.65,7.06z"/>
		<linearGradient id="SVGID_3_" gradientUnits="userSpaceOnUse" x1="6.0405" y1="11.9773" x2="10.626" y2="12.0057">
			<stop  offset="0" style="stop-color:#10BEF0"/>
			<stop  offset="1" style="stop-color:#10BEF0;stop-opacity:0"/>
		</linearGradient>
		<path class="st4" d="M9.65,7.06c-1.14,0-2.06,0.79-2.06,1.76c0,0.04,0.01,0.07,0.01,0.11c0.27,0.09,0.51,0.28,0.65,0.52
			C8.41,9.71,8.46,10,8.42,10.28l-0.4-0.08c0.03-0.17-0.01-0.35-0.09-0.51C7.84,9.55,7.7,9.42,7.54,9.36
			C7.21,9.47,6.92,9.68,6.7,9.97c-0.21,0.28-0.33,0.62-0.35,0.98c0.01,0.48,0.22,0.93,0.59,1.23c-0.37,0.31-0.58,0.76-0.59,1.23
			c0.01,0.34,0.12,0.66,0.32,0.94c0.19,0.28,0.47,0.49,0.78,0.61c0.16-0.08,0.29-0.22,0.37-0.39c0.07-0.17,0.09-0.36,0.04-0.54
			l0.39-0.13v0c0.08,0.28,0.06,0.58-0.06,0.84c-0.12,0.26-0.33,0.48-0.59,0.6c0.1,0.89,0.98,1.59,2.05,1.59
			c0.63,0.01,1.23-0.25,1.65-0.72v-4.51c-0.24,0-0.48,0.08-0.68,0.22c-0.2,0.14-0.35,0.34-0.42,0.58l-0.02,0.05l-0.39-0.13
			l0.02-0.05l0,0c0.1-0.31,0.3-0.59,0.57-0.78c0.27-0.19,0.59-0.3,0.92-0.3V7.78C10.87,7.31,10.27,7.05,9.65,7.06L9.65,7.06z"/>
	</g>
	<g>
		<path class="st0" d="M13.62,8.63c0.05,0.07,0.13,0.11,0.21,0.11h0.52c0.1,0.27,0.32,0.47,0.59,0.54c0.27,0.08,0.57,0.02,0.79-0.16
			c0.22-0.18,0.34-0.45,0.33-0.73c-0.01-0.28-0.16-0.54-0.4-0.7c-0.24-0.15-0.54-0.18-0.8-0.08c-0.26,0.1-0.46,0.33-0.53,0.6h-0.36
			l-0.7-0.95c-0.05-0.07-0.13-0.11-0.21-0.11H12v0.53h0.92L13.62,8.63z"/>
		<path class="st0" d="M16.58,9.97c-0.2,0-0.4,0.07-0.56,0.2c-0.16,0.13-0.27,0.31-0.31,0.51h-1.26l-0.77-0.96
			c-0.05-0.06-0.13-0.1-0.21-0.1h-1.41v0.53h1.28l0.77,0.96h0c0.05,0.06,0.13,0.1,0.21,0.1h1.45c0.09,0.19,0.24,0.35,0.43,0.44
			c0.19,0.09,0.41,0.11,0.62,0.05s0.38-0.19,0.5-0.37c0.12-0.18,0.16-0.39,0.14-0.6c-0.03-0.21-0.13-0.4-0.29-0.54
			C17,10.05,16.79,9.97,16.58,9.97L16.58,9.97z"/>
		<path class="st0" d="M15.25,14.69c-0.18,0-0.35,0.06-0.5,0.16c-0.15,0.1-0.26,0.25-0.32,0.42h-0.59c-0.08,0-0.16,0.04-0.21,0.11
			l-0.7,0.95H12v0.53h1.06c0.08,0,0.16-0.04,0.21-0.11l0.7-0.95h0.43c0.06,0.21,0.19,0.4,0.38,0.52c0.19,0.12,0.41,0.16,0.63,0.13
			c0.22-0.04,0.41-0.16,0.55-0.33c0.13-0.17,0.2-0.39,0.18-0.61c-0.02-0.22-0.12-0.42-0.28-0.57
			C15.69,14.77,15.47,14.69,15.25,14.69L15.25,14.69z"/>
		<path class="st0" d="M16.47,12.18c-0.19,0-0.37,0.06-0.52,0.17s-0.26,0.27-0.32,0.45h-1.37c-0.08,0-0.16,0.04-0.21,0.1l-0.77,0.96
			H12v0.53h1.41c0.08,0,0.16-0.04,0.21-0.1l0.77-0.96h1.24c0.07,0.21,0.21,0.38,0.39,0.49c0.19,0.11,0.41,0.15,0.62,0.1
			c0.21-0.04,0.4-0.17,0.53-0.34c0.13-0.18,0.19-0.39,0.16-0.61c-0.02-0.22-0.12-0.42-0.29-0.56
			C16.89,12.26,16.68,12.18,16.47,12.18L16.47,12.18z"/>
		<path class="st0" d="M22.02,9.89c-0.23,0-0.44-0.08-0.62-0.22c-0.18-0.14-0.31-0.33-0.37-0.54c-0.16-0.51-0.37-1.01-0.62-1.49
			C20.3,7.45,20.25,7.22,20.28,7c0.03-0.22,0.13-0.43,0.29-0.59l0.5-0.5v0c-0.79-1.17-1.8-2.19-2.98-2.98l-0.5,0.5
			C17.43,3.59,17.22,3.69,17,3.72c-0.22,0.03-0.45-0.01-0.65-0.12c-0.48-0.25-0.97-0.45-1.49-0.62c-0.22-0.06-0.41-0.19-0.54-0.37
			c-0.14-0.18-0.21-0.4-0.22-0.62V1.27C12.72,1,11.28,1,9.89,1.27v0.71c0,0.23-0.08,0.44-0.22,0.62C9.54,2.78,9.35,2.91,9.13,2.98
			C8.62,3.14,8.13,3.35,7.65,3.59C7.45,3.7,7.22,3.75,7,3.72C6.78,3.69,6.57,3.59,6.41,3.43l-0.5-0.5C4.73,3.72,3.72,4.73,2.92,5.9
			l0.5,0.5v0C3.59,6.57,3.69,6.78,3.72,7C3.75,7.22,3.7,7.45,3.59,7.65C3.35,8.13,3.14,8.62,2.98,9.13C2.91,9.35,2.78,9.54,2.6,9.68
			c-0.18,0.14-0.4,0.21-0.62,0.22H1.27C1,11.28,1,12.72,1.27,14.11h0.71c0.23,0,0.44,0.08,0.62,0.22c0.18,0.14,0.31,0.33,0.37,0.54
			c0.16,0.51,0.37,1.01,0.62,1.49c0.11,0.2,0.15,0.42,0.12,0.65c-0.03,0.22-0.13,0.43-0.29,0.59l-0.5,0.5
			c0.79,1.17,1.8,2.19,2.98,2.98l0.5-0.5c0.16-0.16,0.37-0.26,0.59-0.29c0.22-0.03,0.45,0.01,0.65,0.12
			c0.48,0.25,0.97,0.45,1.49,0.62c0.22,0.06,0.41,0.19,0.54,0.37c0.14,0.18,0.21,0.4,0.22,0.62v0.71c1.39,0.28,2.82,0.28,4.21,0
			v-0.71c0-0.23,0.08-0.44,0.22-0.62c0.14-0.18,0.33-0.31,0.54-0.37c0.51-0.16,1.01-0.37,1.49-0.62c0.2-0.11,0.42-0.15,0.65-0.12
			c0.22,0.03,0.43,0.13,0.59,0.29l0.5,0.5c1.17-0.79,2.19-1.8,2.98-2.98l-0.5-0.5c-0.16-0.16-0.26-0.37-0.29-0.59
			c-0.03-0.22,0.01-0.45,0.12-0.65c0.25-0.48,0.45-0.97,0.62-1.49c0.06-0.22,0.19-0.41,0.37-0.54c0.18-0.14,0.4-0.21,0.62-0.22h0.71
			c0.28-1.39,0.28-2.82,0-4.21L22.02,9.89z M12,19.65c-2.03,0-3.98-0.81-5.41-2.24S4.35,14.03,4.35,12s0.81-3.98,2.24-5.41
			S9.97,4.35,12,4.35s3.98,0.81,5.41,2.24c1.44,1.44,2.24,3.38,2.24,5.41c0,1.34-0.35,2.66-1.03,3.83s-1.64,2.13-2.8,2.8
			S13.34,19.65,12,19.65L12,19.65z"/>
		<path class="st0" d="M12.04,10.85h0.71v0.71h-0.71V10.85z"/>
		
			<linearGradient id="SVGID_4_" gradientUnits="userSpaceOnUse" x1="12.042" y1="11.2058" x2="12.7474" y2="11.2058" gradientTransform="matrix(-1 0 0 1 24.7894 0)">
			<stop  offset="0" style="stop-color:#10BEF0"/>
			<stop  offset="1" style="stop-color:#10BEF0;stop-opacity:0"/>
		</linearGradient>
		<path class="st5" d="M12.75,10.85h-0.71v0.71h0.71V10.85z"/>
		<path class="st0" d="M12.7,12.22h0.71v0.71H12.7V12.22z"/>
		<linearGradient id="SVGID_5_" gradientUnits="userSpaceOnUse" x1="13.4029" y1="12.5777" x2="12.6974" y2="12.5777">
			<stop  offset="0" style="stop-color:#10BEF0"/>
			<stop  offset="1" style="stop-color:#10BEF0;stop-opacity:0"/>
		</linearGradient>
		<path class="st6" d="M12.7,12.22h0.71v0.71H12.7V12.22z"/>
		<path class="st0" d="M9.65,7.06c-1.14,0-2.06,0.79-2.06,1.76c0,0.04,0.01,0.07,0.01,0.11c0.27,0.09,0.51,0.28,0.65,0.52
			C8.41,9.71,8.46,10,8.42,10.28l-0.4-0.08c0.03-0.17-0.01-0.35-0.09-0.51C7.84,9.55,7.7,9.42,7.54,9.36
			C7.21,9.47,6.92,9.68,6.7,9.97c-0.21,0.28-0.33,0.62-0.35,0.98c0.01,0.48,0.22,0.93,0.59,1.23c-0.37,0.31-0.58,0.76-0.59,1.23
			c0.01,0.34,0.12,0.66,0.32,0.94c0.19,0.28,0.47,0.49,0.78,0.61c0.16-0.08,0.29-0.22,0.37-0.39c0.07-0.17,0.09-0.36,0.04-0.54
			l0.39-0.13v0c0.08,0.28,0.06,0.58-0.06,0.84c-0.12,0.26-0.33,0.48-0.59,0.6c0.1,0.89,0.98,1.59,2.05,1.59
			c0.63,0.01,1.23-0.25,1.65-0.72v-4.51c-0.24,0-0.48,0.08-0.68,0.22c-0.2,0.14-0.35,0.34-0.42,0.58l-0.02,0.05l-0.39-0.13
			l0.02-0.05l0,0c0.1-0.31,0.3-0.59,0.57-0.78c0.27-0.19,0.59-0.3,0.92-0.3V7.78C10.87,7.31,10.27,7.05,9.65,7.06L9.65,7.06z"/>
		<linearGradient id="SVGID_6_" gradientUnits="userSpaceOnUse" x1="6.0405" y1="11.9773" x2="10.626" y2="12.0057">
			<stop  offset="0" style="stop-color:#10BEF0"/>
			<stop  offset="1" style="stop-color:#10BEF0;stop-opacity:0"/>
		</linearGradient>
		<path class="st7" d="M9.65,7.06c-1.14,0-2.06,0.79-2.06,1.76c0,0.04,0.01,0.07,0.01,0.11c0.27,0.09,0.51,0.28,0.65,0.52
			C8.41,9.71,8.46,10,8.42,10.28l-0.4-0.08c0.03-0.17-0.01-0.35-0.09-0.51C7.84,9.55,7.7,9.42,7.54,9.36
			C7.21,9.47,6.92,9.68,6.7,9.97c-0.21,0.28-0.33,0.62-0.35,0.98c0.01,0.48,0.22,0.93,0.59,1.23c-0.37,0.31-0.58,0.76-0.59,1.23
			c0.01,0.34,0.12,0.66,0.32,0.94c0.19,0.28,0.47,0.49,0.78,0.61c0.16-0.08,0.29-0.22,0.37-0.39c0.07-0.17,0.09-0.36,0.04-0.54
			l0.39-0.13v0c0.08,0.28,0.06,0.58-0.06,0.84c-0.12,0.26-0.33,0.48-0.59,0.6c0.1,0.89,0.98,1.59,2.05,1.59
			c0.63,0.01,1.23-0.25,1.65-0.72v-4.51c-0.24,0-0.48,0.08-0.68,0.22c-0.2,0.14-0.35,0.34-0.42,0.58l-0.02,0.05l-0.39-0.13
			l0.02-0.05l0,0c0.1-0.31,0.3-0.59,0.57-0.78c0.27-0.19,0.59-0.3,0.92-0.3V7.78C10.87,7.31,10.27,7.05,9.65,7.06L9.65,7.06z"/>
	</g>
	
		<linearGradient id="SVGID_7_" gradientUnits="userSpaceOnUse" x1="9.9814" y1="25.8094" x2="11.7491" y2="25.8094" gradientTransform="matrix(-0.8061 -0.5918 -0.5918 0.8061 40.6145 -3.5282)">
		<stop  offset="0" style="stop-color:#10BEF0"/>
		<stop  offset="1" style="stop-color:#10BEF0;stop-opacity:0"/>
	</linearGradient>
	<circle class="st8" cx="16.58" cy="10.85" r="0.88"/>
	
		<linearGradient id="SVGID_8_" gradientUnits="userSpaceOnUse" x1="8.7649" y1="27.6591" x2="10.5326" y2="27.6591" gradientTransform="matrix(-0.8693 -0.4943 -0.4943 0.8693 38.5277 -6.2167)">
		<stop  offset="0" style="stop-color:#10BEF0"/>
		<stop  offset="1" style="stop-color:#10BEF0;stop-opacity:0"/>
	</linearGradient>
	<circle class="st9" cx="16.47" cy="13.06" r="0.88"/>
	
		<linearGradient id="SVGID_9_" gradientUnits="userSpaceOnUse" x1="8.5859" y1="30.4373" x2="10.3536" y2="30.4373" gradientTransform="matrix(-0.8693 -0.4943 -0.4943 0.8693 38.5277 -6.2167)">
		<stop  offset="0" style="stop-color:#10BEF0"/>
		<stop  offset="1" style="stop-color:#10BEF0;stop-opacity:0"/>
	</linearGradient>
	<circle class="st10" cx="15.25" cy="15.56" r="0.88"/>
	
		<linearGradient id="SVGID_10_" gradientUnits="userSpaceOnUse" x1="12.5452" y1="24.6907" x2="14.3129" y2="24.6907" gradientTransform="matrix(-0.9085 -0.4179 -0.4179 0.9085 37.6967 -8.3907)">
		<stop  offset="0" style="stop-color:#10BEF0"/>
		<stop  offset="1" style="stop-color:#10BEF0;stop-opacity:0"/>
	</linearGradient>
	<circle class="st11" cx="15.18" cy="8.43" r="0.88"/>
</g>
</svg>
