<svg id="Layer_1" data-name="Layer 1" xmlns="http://www.w3.org/2000/svg" xmlns:xlink="http://www.w3.org/1999/xlink" viewBox="0 0 24 24"><defs><style>.cls-1{fill:#002680;}.cls-2{fill:url(#linear-gradient);}.cls-3{fill:url(#linear-gradient-2);}.cls-4{fill:url(#linear-gradient-3);}.cls-5{fill:#fff;}.cls-6{fill:url(#linear-gradient-4);}.cls-7{fill:url(#linear-gradient-5);}.cls-8{fill:url(#linear-gradient-6);}</style><linearGradient id="linear-gradient" x1="10.19" y1="4.67" x2="13.81" y2="4.67" gradientUnits="userSpaceOnUse"><stop offset="0" stop-color="#10bef0"/><stop offset="0.27" stop-color="#10bef0" stop-opacity="0.67"/><stop offset="0.53" stop-color="#10bef0" stop-opacity="0.39"/><stop offset="0.75" stop-color="#10bef0" stop-opacity="0.18"/><stop offset="0.91" stop-color="#10bef0" stop-opacity="0.05"/><stop offset="1" stop-color="#10bef0" stop-opacity="0"/></linearGradient><linearGradient id="linear-gradient-2" x1="10.96" y1="19.29" x2="13.04" y2="19.29" xlink:href="#linear-gradient"/><linearGradient id="linear-gradient-3" x1="11.9" y1="7.3" x2="11.98" y2="9.53" xlink:href="#linear-gradient"/><linearGradient id="linear-gradient-4" x1="8.39" y1="10.88" x2="8.51" y2="13.92" xlink:href="#linear-gradient"/><linearGradient id="linear-gradient-5" x1="15.53" y1="10.77" x2="15.65" y2="14.03" xlink:href="#linear-gradient"/><linearGradient id="linear-gradient-6" x1="11.98" y1="10.64" x2="12.01" y2="14.44" xlink:href="#linear-gradient"/></defs><path class="cls-1" d="M10.24,7.38a.57.57,0,0,0-.4,1l.15.14a2.61,2.61,0,0,0-.6,1.29h0a.6.6,0,0,0,.13.45.57.57,0,0,0,.43.2H14a.57.57,0,0,0,.55-.65A2.48,2.48,0,0,0,14,8.49l.15-.15a.56.56,0,0,0,0-.8.57.57,0,0,0-.79,0l-.27.26a2.64,2.64,0,0,0-2.2,0l-.27-.26h0a.53.53,0,0,0-.39-.16Z"/><path class="cls-1" d="M7.32,2.46A1.76,1.76,0,0,0,5.57,4.22V19.78a1.76,1.76,0,0,0,1.75,1.76h9.36a1.76,1.76,0,0,0,1.75-1.76V4.22a1.76,1.76,0,0,0-1.75-1.76Zm-.18,1h9.72a.64.64,0,0,1,.66.65V19.94a.64.64,0,0,1-.66.65H7.14a.64.64,0,0,1-.66-.65V4.06A.64.64,0,0,1,7.14,3.41Zm3.61.8a.68.68,0,0,0-.4.13.42.42,0,0,0,0,.66.68.68,0,0,0,.4.13h2.5a.51.51,0,0,0,.56-.46.52.52,0,0,0-.56-.46ZM12,8.68A2,2,0,0,1,13.15,9h0l.08.05a2,2,0,0,1,.43.43H10.34a1.9,1.9,0,0,1,.4-.4h0a.65.65,0,0,0,.15-.1A2.09,2.09,0,0,1,12,8.68Zm-3.55,2.2a.56.56,0,0,0-.37.15.53.53,0,0,0-.15.37v2a.52.52,0,1,0,1,0v-2A.52.52,0,0,0,8.45,10.88Zm1.48-.11a.56.56,0,0,0-.56.56v3.59a.56.56,0,0,0,.56.56h.31v1a.56.56,0,0,0,.17.4.57.57,0,0,0,.39.16.56.56,0,0,0,.56-.56v-1h1.27v1h0a.56.56,0,0,0,.56.56.57.57,0,0,0,.39-.16.56.56,0,0,0,.17-.4v-1h.31a.56.56,0,0,0,.56-.56V11.33a.56.56,0,0,0-.56-.56Zm5.66,0h0a.5.5,0,0,0-.37.17.54.54,0,0,0-.15.39v2.14a.59.59,0,0,0,.15.4.51.51,0,0,0,.74,0,.59.59,0,0,0,.15-.4V11.33a.54.54,0,0,0-.15-.39.5.5,0,0,0-.37-.17Zm-4.07,8h0a.64.64,0,0,0-.4.15.5.5,0,0,0-.16.36.48.48,0,0,0,.16.35.59.59,0,0,0,.4.15h1a.54.54,0,0,0,.39-.15.46.46,0,0,0,.17-.35.48.48,0,0,0-.17-.36.59.59,0,0,0-.39-.15Z"/><path class="cls-2" d="M10.75,4.21a.68.68,0,0,0-.4.13.42.42,0,0,0,0,.66.68.68,0,0,0,.4.13h2.5a.51.51,0,0,0,.56-.46.52.52,0,0,0-.56-.46Z"/><path class="cls-3" d="M11.52,18.78h0a.59.59,0,0,0-.39.15.48.48,0,0,0-.17.36.46.46,0,0,0,.17.35.54.54,0,0,0,.39.15h1a.59.59,0,0,0,.4-.15.48.48,0,0,0,.16-.35.5.5,0,0,0-.16-.36.64.64,0,0,0-.4-.15Z"/><path class="cls-4" d="M10.24,7.38a.57.57,0,0,0-.4,1l.15.14a2.61,2.61,0,0,0-.6,1.29h0a.6.6,0,0,0,.13.45.57.57,0,0,0,.43.2H14a.57.57,0,0,0,.55-.65A2.48,2.48,0,0,0,14,8.49l.15-.15a.56.56,0,0,0,0-.8.57.57,0,0,0-.79,0l-.27.26a2.64,2.64,0,0,0-2.2,0l-.27-.26h0a.53.53,0,0,0-.39-.16Z"/><path class="cls-5" d="M12,8.68A2,2,0,0,1,13.15,9h0l.08.05a2,2,0,0,1,.43.43H10.34a1.9,1.9,0,0,1,.4-.4h0a.65.65,0,0,0,.15-.1A2.09,2.09,0,0,1,12,8.68Z"/><path class="cls-6" d="M8.45,10.88a.56.56,0,0,0-.37.15.53.53,0,0,0-.15.37v2a.52.52,0,1,0,1,0v-2A.52.52,0,0,0,8.45,10.88Z"/><path class="cls-7" d="M15.59,10.77h0a.5.5,0,0,0-.37.17.54.54,0,0,0-.15.39v2.14a.59.59,0,0,0,.15.4.51.51,0,0,0,.74,0,.59.59,0,0,0,.15-.4V11.33a.54.54,0,0,0-.15-.39.5.5,0,0,0-.37-.17Z"/><path class="cls-8" d="M9.93,10.77a.56.56,0,0,0-.56.56v3.59a.56.56,0,0,0,.56.56h.31v1a.56.56,0,0,0,.17.4.57.57,0,0,0,.39.16.56.56,0,0,0,.56-.56v-1h1.27v1h0a.56.56,0,0,0,.56.56.57.57,0,0,0,.39-.16.56.56,0,0,0,.17-.4v-1h.31a.56.56,0,0,0,.56-.56V11.33a.56.56,0,0,0-.56-.56Z"/><rect class="cls-5" x="10.21" y="11.67" width="3.57" height="2.92"/></svg>