<svg id="Layer_1" data-name="Layer 1" xmlns="http://www.w3.org/2000/svg" xmlns:xlink="http://www.w3.org/1999/xlink" viewBox="0 0 24 24"><defs><style>.cls-1{fill:#002680;}.cls-2{fill:url(#linear-gradient);}.cls-3{fill:url(#linear-gradient-2);}.cls-4{fill:url(#linear-gradient-3);}.cls-5{fill:url(#linear-gradient-4);}.cls-6{fill:url(#linear-gradient-5);}.cls-7{fill:url(#linear-gradient-6);}.cls-8{fill:url(#linear-gradient-7);}.cls-9{fill:url(#linear-gradient-8);}</style><linearGradient id="linear-gradient" x1="2.37" y1="9.98" x2="9.07" y2="9.98" gradientUnits="userSpaceOnUse"><stop offset="0" stop-color="#10bef0"/><stop offset="0.27" stop-color="#10bef0" stop-opacity="0.67"/><stop offset="0.53" stop-color="#10bef0" stop-opacity="0.39"/><stop offset="0.75" stop-color="#10bef0" stop-opacity="0.18"/><stop offset="0.91" stop-color="#10bef0" stop-opacity="0.05"/><stop offset="1" stop-color="#10bef0" stop-opacity="0"/></linearGradient><linearGradient id="linear-gradient-2" x1="14.97" y1="9.98" x2="21.67" y2="9.98" xlink:href="#linear-gradient"/><linearGradient id="linear-gradient-3" x1="8.67" y1="3.1" x2="15.37" y2="3.1" xlink:href="#linear-gradient"/><linearGradient id="linear-gradient-4" x1="8.67" y1="16.85" x2="15.37" y2="16.85" xlink:href="#linear-gradient"/><linearGradient id="linear-gradient-5" x1="7.74" y1="7.81" x2="10.16" y2="7.81" xlink:href="#linear-gradient"/><linearGradient id="linear-gradient-6" x1="14.04" y1="14.68" x2="16.46" y2="14.68" xlink:href="#linear-gradient"/><linearGradient id="linear-gradient-7" x1="14.04" y1="7.81" x2="16.46" y2="7.81" xlink:href="#linear-gradient"/><linearGradient id="linear-gradient-8" x1="7.74" y1="14.68" x2="10.16" y2="14.68" xlink:href="#linear-gradient"/></defs><path class="cls-1" d="M2.33,14.05l3.28,1.89V12.08L2.33,10.17Z"/><path class="cls-1" d="M5.71,8.06,2.37,10,5.69,11.9l3.38-2Z"/><path class="cls-1" d="M18.31,8.06,15,10l3.32,1.94,3.38-2Z"/><path class="cls-1" d="M21.67,10.16l-3.29,1.89v3.89l3.29-1.89Z"/><path class="cls-1" d="M15.37,3.07,12,1.18,8.67,3.08,12,5Z"/><path class="cls-1" d="M12,14.93l-3.34,1.9L12,18.77l3.38-1.94Z"/><path class="cls-1" d="M12.08,18.93v3.89l3.29-1.9V17Z"/><path class="cls-1" d="M8.63,20.93l3.28,1.89V19L8.63,17Z"/><path class="cls-1" d="M8,8.56l2-1.17a.19.19,0,0,0,.07-.27.19.19,0,0,0-.26-.07l-2,1.17a.19.19,0,0,0-.07.27A.18.18,0,0,0,8,8.56Z"/><path class="cls-1" d="M14.07,15.37a.2.2,0,0,0,.27.07l2-1.18a.19.19,0,0,0,.07-.26.19.19,0,0,0-.27-.07l-2,1.17A.2.2,0,0,0,14.07,15.37Z"/><path class="cls-1" d="M14.07,7.12a.2.2,0,0,0,.07.27l2,1.17a.2.2,0,0,0,.27-.07.21.21,0,0,0-.07-.27l-2-1.17A.2.2,0,0,0,14.07,7.12Z"/><path class="cls-1" d="M8,13.93a.19.19,0,0,0-.19.33l2,1.18a.19.19,0,0,0,.19-.34Z"/><path class="cls-1" d="M9,7.36l.82-.48a.46.46,0,0,1,.2,0,.41.41,0,0,1,.34.19.4.4,0,0,1-.15.54l-.43.25,2.18,1.26V5.2L8.63,3.29V7.18Z"/><path class="cls-1" d="M12.08,5.18V9.07l2.29-1.32-.32-.19a.41.41,0,0,1-.19-.24.45.45,0,0,1,0-.3.39.39,0,0,1,.34-.19.38.38,0,0,1,.19,0l.72.41.22-.12V3.28Z"/><path class="cls-1" d="M7.6,13.9a.4.4,0,0,1,.34-.2.35.35,0,0,1,.19.06l.72.41.22-.12V10.16L5.78,12.05v3.89l2.29-1.32-.33-.19a.38.38,0,0,1-.14-.53Z"/><path class="cls-1" d="M14.93,14.05l.32.18.82-.47a.35.35,0,0,1,.2,0,.39.39,0,0,1,.33.19.35.35,0,0,1,0,.3.39.39,0,0,1-.18.24l-.43.25L18.21,16V12.08l-3.28-1.91Z"/><path class="cls-2" d="M5.71,8.06,2.37,10,5.69,11.9l3.38-2Z"/><path class="cls-3" d="M18.31,8.06,15,10l3.32,1.94,3.38-2Z"/><path class="cls-4" d="M15.37,3.07,12,1.18,8.67,3.08,12,5Z"/><path class="cls-5" d="M12,14.93l-3.34,1.9L12,18.77l3.38-1.94Z"/><path class="cls-6" d="M8,8.56l2-1.17a.19.19,0,0,0,.07-.27.19.19,0,0,0-.26-.07l-2,1.17a.19.19,0,0,0-.07.27A.18.18,0,0,0,8,8.56Z"/><path class="cls-7" d="M14.07,15.37a.2.2,0,0,0,.27.07l2-1.18a.19.19,0,0,0,.07-.26.19.19,0,0,0-.27-.07l-2,1.17A.2.2,0,0,0,14.07,15.37Z"/><path class="cls-8" d="M14.07,7.12a.2.2,0,0,0,.07.27l2,1.17a.2.2,0,0,0,.27-.07.21.21,0,0,0-.07-.27l-2-1.17A.2.2,0,0,0,14.07,7.12Z"/><path class="cls-9" d="M8,13.93a.19.19,0,0,0-.19.33l2,1.18a.19.19,0,0,0,.19-.34Z"/></svg>