<svg id="Layer_1" data-name="Layer 1" xmlns="http://www.w3.org/2000/svg" xmlns:xlink="http://www.w3.org/1999/xlink" viewBox="0 0 24 24"><defs><style>.cls-1{fill:#002680;}.cls-2{fill:url(#linear-gradient);}</style><linearGradient id="linear-gradient" x1="12.05" y1="23.84" x2="11.93" y2="8.05" gradientUnits="userSpaceOnUse"><stop offset="0" stop-color="#10bef0"/><stop offset="0.27" stop-color="#10bef0" stop-opacity="0.67"/><stop offset="0.53" stop-color="#10bef0" stop-opacity="0.39"/><stop offset="0.75" stop-color="#10bef0" stop-opacity="0.18"/><stop offset="0.91" stop-color="#10bef0" stop-opacity="0.05"/><stop offset="1" stop-color="#10bef0" stop-opacity="0"/></linearGradient></defs><path class="cls-1" d="M20.71,18.27a.58.58,0,0,1-.29.13.33.33,0,0,1-.28-.13.39.39,0,0,1,0-.58l.28-.29H13.13V10.84H12v10l.29-.29a.41.41,0,0,1,.58.58l-1.32,1.32L10.3,21.16a.4.4,0,0,1,0-.57.38.38,0,0,1,.57,0l.29.28v-10H10V17.4H3.64l.29.29a.41.41,0,0,1,0,.58.38.38,0,0,1-.29.13.33.33,0,0,1-.29-.13L2,17,3.25,15.7a.41.41,0,0,1,.58.58l-.29.29H9.2V10.84h-1v3.54h-2l.29.29a.41.41,0,0,1,0,.58.44.44,0,0,1-.29.13A.36.36,0,0,1,6,15.25L4.64,13.93l1.25-1.25a.39.39,0,0,1,.58,0,.4.4,0,0,1,0,.57l-.23.33H7.47V10.84H6.21a2.07,2.07,0,0,1-2-2.12,3.27,3.27,0,0,1,2-3.09A3,3,0,0,1,9.27,3a3.18,3.18,0,0,1,.74.09,2.92,2.92,0,0,1,2.57-1.51,3.19,3.19,0,0,1,3.05,3.28,3.8,3.8,0,0,1-.06.58h.35A3.2,3.2,0,0,1,19,8.72a2.05,2.05,0,0,1-2,2.12H15.73v2.74h2.09l-.29-.29a.41.41,0,0,1,.58-.58L19.36,14,18,15.28a.58.58,0,0,1-.29.13.36.36,0,0,1-.29-.13.41.41,0,0,1,0-.58l.29-.29H14.86V10.87h-1V16.6h6.56l-.29-.29a.41.41,0,0,1,.58-.58L22,17Z"/><path class="cls-2" d="M20.71,18.27a.58.58,0,0,1-.29.13.33.33,0,0,1-.28-.13.39.39,0,0,1,0-.58l.28-.29H13.13V10.84H12v10l.29-.29a.41.41,0,0,1,.58.58l-1.32,1.32L10.3,21.16a.4.4,0,0,1,0-.57.38.38,0,0,1,.57,0l.29.28v-10H10V17.4H3.64l.29.29a.41.41,0,0,1,0,.58.38.38,0,0,1-.29.13.33.33,0,0,1-.29-.13L2,17,3.25,15.7a.41.41,0,0,1,.58.58l-.29.29H9.2V10.84h-1v3.54h-2l.29.29a.41.41,0,0,1,0,.58.44.44,0,0,1-.29.13A.36.36,0,0,1,6,15.25L4.64,13.93l1.25-1.25a.39.39,0,0,1,.58,0,.4.4,0,0,1,0,.57l-.23.33H7.47V10.84H6.21a2.07,2.07,0,0,1-2-2.12,3.27,3.27,0,0,1,2-3.09A3,3,0,0,1,9.27,3a3.18,3.18,0,0,1,.74.09,2.92,2.92,0,0,1,2.57-1.51,3.19,3.19,0,0,1,3.05,3.28,3.8,3.8,0,0,1-.06.58h.35A3.2,3.2,0,0,1,19,8.72a2.05,2.05,0,0,1-2,2.12H15.73v2.74h2.09l-.29-.29a.41.41,0,0,1,.58-.58L19.36,14,18,15.28a.58.58,0,0,1-.29.13.36.36,0,0,1-.29-.13.41.41,0,0,1,0-.58l.29-.29H14.86V10.87h-1V16.6h6.56l-.29-.29a.41.41,0,0,1,.58-.58L22,17Z"/></svg>