<svg id="Layer_1" data-name="Layer 1" xmlns="http://www.w3.org/2000/svg" xmlns:xlink="http://www.w3.org/1999/xlink" viewBox="0 0 24 24"><defs><style>.cls-1{fill:#002680;}.cls-2{fill:url(#linear-gradient);}.cls-3{fill:url(#linear-gradient-2);}.cls-4{fill:url(#linear-gradient-3);}.cls-5{fill:url(#linear-gradient-4);}.cls-6{fill:url(#linear-gradient-5);}.cls-7{fill:url(#linear-gradient-6);}.cls-8{fill:url(#linear-gradient-7);}.cls-9{fill:url(#linear-gradient-8);}.cls-10{fill:url(#linear-gradient-9);}.cls-11{fill:url(#linear-gradient-10);}.cls-12{fill:url(#linear-gradient-11);}</style><linearGradient id="linear-gradient" x1="22.47" y1="10.46" x2="12.2" y2="19.48" gradientUnits="userSpaceOnUse"><stop offset="0" stop-color="#10bef0"/><stop offset="0.27" stop-color="#10bef0" stop-opacity="0.67"/><stop offset="0.53" stop-color="#10bef0" stop-opacity="0.39"/><stop offset="0.75" stop-color="#10bef0" stop-opacity="0.18"/><stop offset="0.91" stop-color="#10bef0" stop-opacity="0.05"/><stop offset="1" stop-color="#10bef0" stop-opacity="0"/></linearGradient><linearGradient id="linear-gradient-2" x1="4.06" y1="3.31" x2="3.56" y2="3.68" xlink:href="#linear-gradient"/><linearGradient id="linear-gradient-3" x1="5.32" y1="3.31" x2="4.82" y2="3.68" xlink:href="#linear-gradient"/><linearGradient id="linear-gradient-4" x1="6.58" y1="3.31" x2="6.08" y2="3.68" xlink:href="#linear-gradient"/><linearGradient id="linear-gradient-5" x1="9.03" y1="6.29" x2="3" y2="10.78" xlink:href="#linear-gradient"/><linearGradient id="linear-gradient-6" x1="14.96" y1="5.78" x2="10.93" y2="8.77" xlink:href="#linear-gradient"/><linearGradient id="linear-gradient-7" x1="14.96" y1="7.35" x2="10.93" y2="10.35" xlink:href="#linear-gradient"/><linearGradient id="linear-gradient-8" x1="13.15" y1="9.45" x2="10.54" y2="11.4" xlink:href="#linear-gradient"/><linearGradient id="linear-gradient-9" x1="6.83" y1="7.54" x2="4.63" y2="9.17" xlink:href="#linear-gradient"/><linearGradient id="linear-gradient-10" x1="9.71" y1="11.91" x2="6.1" y2="14.61" xlink:href="#linear-gradient"/><linearGradient id="linear-gradient-11" x1="4.91" y1="12.87" x2="3.63" y2="13.83" xlink:href="#linear-gradient"/></defs><path class="cls-1" d="M21.8,15.06l-1-.16a4.82,4.82,0,0,0-.53-1.26l.63-.85a.24.24,0,0,0,0-.31l-.4-.4.48-.48h.84a.23.23,0,0,0,.24-.23.24.24,0,0,0-.24-.24h-.7v-.7a.24.24,0,1,0-.48,0v.84l-.48.48-.4-.4a.23.23,0,0,0-.3,0l-.85.63a4.88,4.88,0,0,0-1.27-.53l-.15-1a.24.24,0,0,0-.23-.2H15.29a.24.24,0,0,0-.23.2l-.15,1a4.88,4.88,0,0,0-1.27.53l-.84-.63a.24.24,0,0,0-.31,0l-1.14,1.14a.23.23,0,0,0,0,.3l.63.85a4.42,4.42,0,0,0-.52,1.27l-1,.15a.24.24,0,0,0-.2.23V16.9a.24.24,0,0,0,.2.23l1,.16A5,5,0,0,0,12,18.55l-.63.85a.24.24,0,0,0,0,.31l1.13,1.13a.24.24,0,0,0,.31,0l.85-.62a4.93,4.93,0,0,0,1.26.52l.16,1a.23.23,0,0,0,.23.2h1.6a.24.24,0,0,0,.24-.2l.15-1a4.65,4.65,0,0,0,1.26-.52l.56.41a.25.25,0,0,0,.33,0,.24.24,0,0,0-.05-.34l-.68-.5a.24.24,0,0,0-.27,0,4.13,4.13,0,0,1-1.41.58.26.26,0,0,0-.19.2l-.14,1h-1.2l-.15-1a.23.23,0,0,0-.18-.2,4.25,4.25,0,0,1-1.41-.58.24.24,0,0,0-.27,0l-.81.6-.85-.84.6-.81a.23.23,0,0,0,0-.27A4.57,4.57,0,0,1,11.85,17a.25.25,0,0,0-.2-.19l-1-.14V15.5l1-.15a.23.23,0,0,0,.2-.18,4.16,4.16,0,0,1,.58-1.41.23.23,0,0,0,0-.27l-.6-.81.85-.85.81.6a.23.23,0,0,0,.27,0,4.38,4.38,0,0,1,1.41-.58.23.23,0,0,0,.18-.19l.15-1h1.2l.14,1a.25.25,0,0,0,.19.19,4.57,4.57,0,0,1,1.41.58.23.23,0,0,0,.27,0l.81-.6.25.26-1.45,1.45a3.44,3.44,0,0,0-2.22-.83,3.5,3.5,0,0,0-1,.15.24.24,0,0,0-.15.3.24.24,0,0,0,.3.15,3.16,3.16,0,0,1,.87-.13,2.83,2.83,0,0,1,1.88.7l-.44.44a2.36,2.36,0,0,0-1.44-.51,2.29,2.29,0,1,0,2.29,2.28,2.25,2.25,0,0,0-.51-1.43l.44-.45a2.85,2.85,0,0,1,.7,1.88,2.92,2.92,0,1,1-4.69-2.31.23.23,0,0,0,0-.33.25.25,0,0,0-.33,0,3.39,3.39,0,0,0,2.05,6.08,3.39,3.39,0,0,0,3.39-3.39,3.34,3.34,0,0,0-.83-2.21l1.45-1.46.26.26-.61.81a.23.23,0,0,0,0,.26,4.32,4.32,0,0,1,.59,1.42.23.23,0,0,0,.2.18l1,.15v1.19l-1,.15a.25.25,0,0,0-.2.18,4.07,4.07,0,0,1-.59,1.41.24.24,0,0,0,0,.27l.61.81-.48.48a.24.24,0,0,0,0,.33.22.22,0,0,0,.33,0l.62-.62a.23.23,0,0,0,0-.31l-.63-.85a4.47,4.47,0,0,0,.52-1.26l1-.16a.22.22,0,0,0,.2-.23v-1.6a.22.22,0,0,0-.19-.23Zm-3.89,1a1.82,1.82,0,1,1-1.82-1.81,1.81,1.81,0,0,1,1.1.38l-.45.45a1.21,1.21,0,1,0,.34.34l.45-.45a1.8,1.8,0,0,1,.38,1.09Zm-1.11,0a.71.71,0,0,1-.71.71.71.71,0,0,1,0-1.41.64.64,0,0,1,.31.07l-.47.47a.24.24,0,0,0,0,.33.2.2,0,0,0,.16.07.23.23,0,0,0,.17-.07l.47-.47a.73.73,0,0,1,.07.3Z"/><path class="cls-2" d="M21.8,15.06l-1-.16a4.82,4.82,0,0,0-.53-1.26l.63-.85a.24.24,0,0,0,0-.31l-.4-.4.48-.48h.84a.23.23,0,0,0,.24-.23.24.24,0,0,0-.24-.24h-.7v-.7a.24.24,0,1,0-.48,0v.84l-.48.48-.4-.4a.23.23,0,0,0-.3,0l-.85.63a4.88,4.88,0,0,0-1.27-.53l-.15-1a.24.24,0,0,0-.23-.2H15.29a.24.24,0,0,0-.23.2l-.15,1a4.88,4.88,0,0,0-1.27.53l-.84-.63a.24.24,0,0,0-.31,0l-1.14,1.14a.23.23,0,0,0,0,.3l.63.85a4.42,4.42,0,0,0-.52,1.27l-1,.15a.24.24,0,0,0-.2.23V16.9a.24.24,0,0,0,.2.23l1,.16A5,5,0,0,0,12,18.55l-.63.85a.24.24,0,0,0,0,.31l1.13,1.13a.24.24,0,0,0,.31,0l.85-.62a4.93,4.93,0,0,0,1.26.52l.16,1a.23.23,0,0,0,.23.2h1.6a.24.24,0,0,0,.24-.2l.15-1a4.65,4.65,0,0,0,1.26-.52l.56.41a.25.25,0,0,0,.33,0,.24.24,0,0,0-.05-.34l-.68-.5a.24.24,0,0,0-.27,0,4.13,4.13,0,0,1-1.41.58.26.26,0,0,0-.19.2l-.14,1h-1.2l-.15-1a.23.23,0,0,0-.18-.2,4.25,4.25,0,0,1-1.41-.58.24.24,0,0,0-.27,0l-.81.6-.85-.84.6-.81a.23.23,0,0,0,0-.27A4.57,4.57,0,0,1,11.85,17a.25.25,0,0,0-.2-.19l-1-.14V15.5l1-.15a.23.23,0,0,0,.2-.18,4.16,4.16,0,0,1,.58-1.41.23.23,0,0,0,0-.27l-.6-.81.85-.85.81.6a.23.23,0,0,0,.27,0,4.38,4.38,0,0,1,1.41-.58.23.23,0,0,0,.18-.19l.15-1h1.2l.14,1a.25.25,0,0,0,.19.19,4.57,4.57,0,0,1,1.41.58.23.23,0,0,0,.27,0l.81-.6.25.26-1.45,1.45a3.44,3.44,0,0,0-2.22-.83,3.5,3.5,0,0,0-1,.15.24.24,0,0,0-.15.3.24.24,0,0,0,.3.15,3.16,3.16,0,0,1,.87-.13,2.83,2.83,0,0,1,1.88.7l-.44.44a2.36,2.36,0,0,0-1.44-.51,2.29,2.29,0,1,0,2.29,2.28,2.25,2.25,0,0,0-.51-1.43l.44-.45a2.85,2.85,0,0,1,.7,1.88,2.92,2.92,0,1,1-4.69-2.31.23.23,0,0,0,0-.33.25.25,0,0,0-.33,0,3.39,3.39,0,0,0,2.05,6.08,3.39,3.39,0,0,0,3.39-3.39,3.34,3.34,0,0,0-.83-2.21l1.45-1.46.26.26-.61.81a.23.23,0,0,0,0,.26,4.32,4.32,0,0,1,.59,1.42.23.23,0,0,0,.2.18l1,.15v1.19l-1,.15a.25.25,0,0,0-.2.18,4.07,4.07,0,0,1-.59,1.41.24.24,0,0,0,0,.27l.61.81-.48.48a.24.24,0,0,0,0,.33.22.22,0,0,0,.33,0l.62-.62a.23.23,0,0,0,0-.31l-.63-.85a4.47,4.47,0,0,0,.52-1.26l1-.16a.22.22,0,0,0,.2-.23v-1.6a.22.22,0,0,0-.19-.23Zm-3.89,1a1.82,1.82,0,1,1-1.82-1.81,1.81,1.81,0,0,1,1.1.38l-.45.45a1.21,1.21,0,1,0,.34.34l.45-.45a1.8,1.8,0,0,1,.38,1.09Zm-1.11,0a.71.71,0,0,1-.71.71.71.71,0,0,1,0-1.41.64.64,0,0,1,.31.07l-.47.47a.24.24,0,0,0,0,.33.2.2,0,0,0,.16.07.23.23,0,0,0,.17-.07l.47-.47a.73.73,0,0,1,.07.3Z"/><path class="cls-1" d="M4.13,3.5a.32.32,0,0,1-.32.31.32.32,0,0,1,0-.63.32.32,0,0,1,.32.32"/><path class="cls-1" d="M5.39,3.5a.32.32,0,0,1-.32.31.32.32,0,0,1,0-.63.32.32,0,0,1,.32.32"/><path class="cls-1" d="M6.65,3.5a.32.32,0,0,1-.32.31.32.32,0,0,1,0-.63.32.32,0,0,1,.32.32"/><path class="cls-1" d="M8.77,11.06V6a.24.24,0,0,0-.23-.24h-5A.24.24,0,0,0,3.26,6v5a.24.24,0,0,0,.24.23h5A.24.24,0,0,0,8.77,11.06Zm-.47-.24H3.73V6.25H8.3Z"/><path class="cls-1" d="M15.78,7H10.11a.24.24,0,1,0,0,.47h5.67a.24.24,0,1,0,0-.47Z"/><path class="cls-1" d="M16,8.85a.24.24,0,0,0-.24-.24H10.11a.24.24,0,1,0,0,.48h5.67A.24.24,0,0,0,16,8.85Z"/><path class="cls-1" d="M13.81,10.42a.24.24,0,0,0-.24-.23H10.11a.24.24,0,1,0,0,.47h3.46a.24.24,0,0,0,.24-.24Z"/><path class="cls-1" d="M5.28,10a.2.2,0,0,0,.11,0,.22.22,0,0,0,.13,0L7.41,8.73a.24.24,0,0,0,.1-.19.25.25,0,0,0-.1-.2L5.52,7.08a.23.23,0,0,0-.24,0,.23.23,0,0,0-.13.21V9.8a.23.23,0,0,0,.13.2Zm.34-2.28,1.23.82-1.23.81Z"/><path class="cls-1" d="M5.39,13.5h5a.24.24,0,0,0,0-.48h-5a.24.24,0,1,0,0,.48Z"/><path class="cls-1" d="M4.44,14.13a.24.24,0,0,0,.24-.24V12.63a.24.24,0,0,0-.48,0V13H3.5a.24.24,0,1,0,0,.48h.7v.39a.24.24,0,0,0,.24.24Z"/><path class="cls-3" d="M4.13,3.5a.32.32,0,0,1-.32.31.32.32,0,0,1,0-.63.32.32,0,0,1,.32.32"/><path class="cls-4" d="M5.39,3.5a.32.32,0,0,1-.32.31.32.32,0,0,1,0-.63.32.32,0,0,1,.32.32"/><path class="cls-5" d="M6.65,3.5a.32.32,0,0,1-.32.31.32.32,0,0,1,0-.63.32.32,0,0,1,.32.32"/><path class="cls-6" d="M8.77,11.06V6a.24.24,0,0,0-.23-.24h-5A.24.24,0,0,0,3.26,6v5a.24.24,0,0,0,.24.23h5A.24.24,0,0,0,8.77,11.06Zm-.47-.24H3.73V6.25H8.3Z"/><path class="cls-7" d="M15.78,7H10.11a.24.24,0,1,0,0,.47h5.67a.24.24,0,1,0,0-.47Z"/><path class="cls-8" d="M16,8.85a.24.24,0,0,0-.24-.24H10.11a.24.24,0,1,0,0,.48h5.67A.24.24,0,0,0,16,8.85Z"/><path class="cls-9" d="M13.81,10.42a.24.24,0,0,0-.24-.23H10.11a.24.24,0,1,0,0,.47h3.46a.24.24,0,0,0,.24-.24Z"/><path class="cls-10" d="M5.28,10a.2.2,0,0,0,.11,0,.22.22,0,0,0,.13,0L7.41,8.73a.24.24,0,0,0,.1-.19.25.25,0,0,0-.1-.2L5.52,7.08a.23.23,0,0,0-.24,0,.23.23,0,0,0-.13.21V9.8a.23.23,0,0,0,.13.2Zm.34-2.28,1.23.82-1.23.81Z"/><path class="cls-11" d="M5.39,13.5h5a.24.24,0,0,0,0-.48h-5a.24.24,0,1,0,0,.48Z"/><path class="cls-12" d="M4.44,14.13a.24.24,0,0,0,.24-.24V12.63a.24.24,0,0,0-.48,0V13H3.5a.24.24,0,1,0,0,.48h.7v.39a.24.24,0,0,0,.24.24Z"/><path class="cls-1" d="M9.48,15.23h-6a1,1,0,0,1-1-1V6.88a.23.23,0,0,0-.23-.23A.23.23,0,0,0,2,6.88V14.2a1.5,1.5,0,0,0,1.5,1.5h6a.24.24,0,1,0,0-.47Z"/><path class="cls-1" d="M2.24,6.05a.23.23,0,0,0,.23-.24V5H17.75v5.91a.24.24,0,1,0,.47,0V3.5A1.5,1.5,0,0,0,16.72,2H3.5A1.5,1.5,0,0,0,2,3.5V5.81a.24.24,0,0,0,.24.24ZM2.47,3.5a1,1,0,0,1,1-1H16.72a1,1,0,0,1,1,1v1H2.47Z"/></svg>