<svg id="Layer_1" data-name="Layer 1" xmlns="http://www.w3.org/2000/svg" xmlns:xlink="http://www.w3.org/1999/xlink" viewBox="0 0 24 24"><defs><style>.cls-1{fill:#002680;}.cls-2{fill:url(#linear-gradient);}.cls-3{fill:url(#linear-gradient-2);}.cls-4{fill:url(#linear-gradient-3);}.cls-5{fill:url(#linear-gradient-4);}.cls-6{fill:url(#linear-gradient-5);}.cls-7{fill:url(#linear-gradient-6);}.cls-8{fill:url(#linear-gradient-7);}.cls-9{fill:url(#linear-gradient-8);}.cls-10{fill:url(#linear-gradient-9);}.cls-11{fill:url(#linear-gradient-10);}.cls-12{fill:url(#linear-gradient-11);}.cls-13{fill:url(#linear-gradient-12);}.cls-14{fill:url(#linear-gradient-13);}.cls-15{fill:url(#linear-gradient-14);}.cls-16{fill:url(#linear-gradient-15);}.cls-17{fill:url(#linear-gradient-16);}.cls-18{fill:url(#linear-gradient-17);}.cls-19{fill:url(#linear-gradient-18);}.cls-20{fill:url(#linear-gradient-19);}.cls-21{fill:url(#linear-gradient-20);}.cls-22{fill:#fff;}.cls-23{fill:url(#linear-gradient-21);}</style><linearGradient id="linear-gradient" x1="11.41" y1="5.66" x2="12.03" y2="5.66" gradientUnits="userSpaceOnUse"><stop offset="0" stop-color="#10bef0"/><stop offset="0.27" stop-color="#10bef0" stop-opacity="0.67"/><stop offset="0.53" stop-color="#10bef0" stop-opacity="0.39"/><stop offset="0.75" stop-color="#10bef0" stop-opacity="0.18"/><stop offset="0.91" stop-color="#10bef0" stop-opacity="0.05"/><stop offset="1" stop-color="#10bef0" stop-opacity="0"/></linearGradient><linearGradient id="linear-gradient-2" x1="6.62" y1="9.94" x2="7.25" y2="9.94" xlink:href="#linear-gradient"/><linearGradient id="linear-gradient-3" x1="9.68" y1="4.47" x2="11.32" y2="4.47" xlink:href="#linear-gradient"/><linearGradient id="linear-gradient-4" x1="8.4" y1="7" x2="9.02" y2="7" xlink:href="#linear-gradient"/><linearGradient id="linear-gradient-5" x1="9.63" y1="16.97" x2="10.25" y2="16.97" xlink:href="#linear-gradient"/><linearGradient id="linear-gradient-6" x1="13.47" y1="6.15" x2="15.9" y2="6.15" xlink:href="#linear-gradient"/><linearGradient id="linear-gradient-7" x1="16.4" y1="14.06" x2="17.38" y2="14.06" xlink:href="#linear-gradient"/><linearGradient id="linear-gradient-8" x1="16.73" y1="11.72" x2="18.77" y2="11.72" xlink:href="#linear-gradient"/><linearGradient id="linear-gradient-9" x1="16.75" y1="8.71" x2="17.71" y2="8.71" xlink:href="#linear-gradient"/><linearGradient id="linear-gradient-10" x1="16.75" y1="10.5" x2="21.45" y2="10.5" xlink:href="#linear-gradient"/><linearGradient id="linear-gradient-11" x1="12.68" y1="19.17" x2="14.32" y2="19.17" xlink:href="#linear-gradient"/><linearGradient id="linear-gradient-12" x1="11.97" y1="18.18" x2="12.59" y2="18.18" xlink:href="#linear-gradient"/><linearGradient id="linear-gradient-13" x1="8.45" y1="19.64" x2="11.49" y2="19.64" xlink:href="#linear-gradient"/><linearGradient id="linear-gradient-14" x1="14.98" y1="15.6" x2="19.19" y2="15.6" xlink:href="#linear-gradient"/><linearGradient id="linear-gradient-15" x1="16.66" y1="14.03" x2="22" y2="14.03" xlink:href="#linear-gradient"/><linearGradient id="linear-gradient-16" x1="2" y1="9.97" x2="7.26" y2="9.97" xlink:href="#linear-gradient"/><linearGradient id="linear-gradient-17" x1="6.28" y1="17.25" x2="10.53" y2="17.25" xlink:href="#linear-gradient"/><linearGradient id="linear-gradient-18" x1="4.47" y1="9.31" x2="7.25" y2="9.31" xlink:href="#linear-gradient"/><linearGradient id="linear-gradient-19" x1="2.55" y1="13.5" x2="7.44" y2="13.5" xlink:href="#linear-gradient"/><linearGradient id="linear-gradient-20" x1="5.23" y1="12.28" x2="7.29" y2="12.28" xlink:href="#linear-gradient"/><linearGradient id="linear-gradient-21" x1="12.51" y1="4.04" x2="15.55" y2="4.04" xlink:href="#linear-gradient"/></defs><path class="cls-1" d="M12,6.09h-.62V5.54a.31.31,0,0,1,.31-.31.31.31,0,0,1,.31.31Z"/><path class="cls-1" d="M6.62,9.94a.31.31,0,0,0,.31.31h.32V10h0V9.63H6.93A.31.31,0,0,0,6.62,9.94Z"/><path class="cls-1" d="M10.19,4.13V6.38a.86.86,0,0,0,.14-.13l.19-.16h.29v-2a.83.83,0,0,0,.48-.54.81.81,0,0,0-.14-.72.82.82,0,0,0-.65-.32.82.82,0,0,0-.31,1.58Z"/><path class="cls-1" d="M13.13,3.13H14a.8.8,0,0,0,.55.48.82.82,0,0,0,1-.79.82.82,0,0,0-1-.79.83.83,0,0,0-.55.48H12.82a.31.31,0,0,0-.31.31V6.09h.62Z"/><path class="cls-1" d="M9,6.6a.32.32,0,0,0-.09-.23.28.28,0,0,0-.22-.09.31.31,0,0,0-.22.09.32.32,0,0,0-.09.23V7.73A3.46,3.46,0,0,0,9,7.37Z"/><path class="cls-1" d="M9.94,17.38a.31.31,0,0,0,.31-.31v-.15c-.21-.12-.42-.23-.62-.36v.51a.31.31,0,0,0,.31.31Z"/><path class="cls-1" d="M14.29,4.47a.81.81,0,0,0-.81.72.81.81,0,0,0,.13.56A.85.85,0,0,0,14.66,6a.78.78,0,0,0,.39-.43h.23v2h0a2.88,2.88,0,0,0,.62.28V5.29A.31.31,0,0,0,15.59,5h-.54a.82.82,0,0,0-.76-.51Z"/><path class="cls-1" d="M17.38,14.06a.29.29,0,0,0-.09-.22.31.31,0,0,0-.22-.09h-.5a4.77,4.77,0,0,1-.17.62h.67a.36.36,0,0,0,.22-.09.31.31,0,0,0,.09-.22Z"/><path class="cls-1" d="M18.77,11.72h0a.31.31,0,0,0-.31-.31H16.75c0,.22,0,.43,0,.62h1.73a.31.31,0,0,0,.31-.31Z"/><path class="cls-1" d="M17.71,8.71h0a.31.31,0,0,0-.09-.22.36.36,0,0,0-.22-.09h-.65V9h.65a.29.29,0,0,0,.22-.09.31.31,0,0,0,.09-.22Z"/><path class="cls-1" d="M16.75,10.81h3.12a.83.83,0,0,0,.54.48.81.81,0,0,0,.72-.14.82.82,0,0,0,.32-.65.82.82,0,0,0-1.58-.31H16.75v.62Z"/><path class="cls-1" d="M13.81,19.87v-3l-.23.13-.39.22v2.63a.83.83,0,0,0-.48.54.81.81,0,0,0,.14.72.82.82,0,0,0,.65.32.82.82,0,0,0,.31-1.58Z"/><path class="cls-1" d="M12,18l0,0v.51a.31.31,0,0,0,.31.3.32.32,0,0,0,.31-.3V17.6l-.25.15Z"/><path class="cls-1" d="M10.87,20.87H10a.8.8,0,0,0-.55-.48.82.82,0,1,0,0,1.58.83.83,0,0,0,.55-.48h1.15a.31.31,0,0,0,.31-.31V17.65l-.62-.37Z"/><path class="cls-1" d="M18.37,13.47a.84.84,0,0,0-.66.32.88.88,0,0,0-.14.72.85.85,0,0,0,.49.54v.23H15.91a4.56,4.56,0,0,1-.93.88V17.4a.31.31,0,0,0,.31.32.31.31,0,0,0,.22-.09.32.32,0,0,0,.09-.23V15.9h2.77a.31.31,0,0,0,.31-.31v-.54a.86.86,0,0,0,.48-.54.82.82,0,0,0-.79-1Z"/><path class="cls-1" d="M21.49,14V12.82a.31.31,0,0,0-.31-.31H16.71c0,.22,0,.42-.05.62h4.21V14a.8.8,0,0,0-.48.55.79.79,0,0,0,.14.71.82.82,0,0,0,1.3,0,.79.79,0,0,0,.14-.71.83.83,0,0,0-.48-.55Z"/><path class="cls-1" d="M2.82,11.49H7.26c0-.2,0-.4,0-.62H3.13V10a.8.8,0,0,0,.48-.55.82.82,0,0,0-.79-1,.82.82,0,0,0-.79,1,.83.83,0,0,0,.48.55v1.15a.31.31,0,0,0,.31.31Z"/><path class="cls-1" d="M9.71,19.53a.81.81,0,0,0,.81-.72.81.81,0,0,0-.13-.56A.85.85,0,0,0,9.34,18,.78.78,0,0,0,9,18.4H8.72V15.92A3.55,3.55,0,0,1,7.89,15H6.6a.32.32,0,0,0-.23.09.28.28,0,0,0-.09.22.31.31,0,0,0,.09.22.32.32,0,0,0,.23.09H8.1v3.11a.31.31,0,0,0,.31.31H9a.84.84,0,0,0,.3.37.86.86,0,0,0,.46.14Z"/><path class="cls-1" d="M5.29,10.53A.82.82,0,0,0,5.6,9V8.72H7.25V8.1h-2A.31.31,0,0,0,5,8.41V9a.86.86,0,0,0-.48.54.82.82,0,0,0,.79,1Z"/><path class="cls-1" d="M7.34,13.19H4.13a.83.83,0,0,0-.54-.48.81.81,0,0,0-.72.14.82.82,0,0,0-.32.65.82.82,0,0,0,1.58.31H7.44c0-.19-.07-.4-.1-.62Z"/><path class="cls-1" d="M5.23,12.28a.31.31,0,0,0,.31.31H7.29c0-.2,0-.41,0-.62H5.55a.28.28,0,0,0-.22.09.29.29,0,0,0-.1.22Z"/><path class="cls-2" d="M12,6.09h-.62V5.54a.31.31,0,0,1,.31-.31.31.31,0,0,1,.31.31Z"/><path class="cls-3" d="M6.62,9.94a.31.31,0,0,0,.31.31h.32V10h0V9.63H6.93A.31.31,0,0,0,6.62,9.94Z"/><path class="cls-4" d="M10.19,4.13V6.38a.86.86,0,0,0,.14-.13l.19-.16h.29v-2a.83.83,0,0,0,.48-.54.81.81,0,0,0-.14-.72.82.82,0,0,0-.65-.32.82.82,0,0,0-.31,1.58Z"/><path class="cls-5" d="M9,6.6a.32.32,0,0,0-.09-.23.28.28,0,0,0-.22-.09.31.31,0,0,0-.22.09.32.32,0,0,0-.09.23V7.73A3.46,3.46,0,0,0,9,7.37Z"/><path class="cls-6" d="M9.94,17.38a.31.31,0,0,0,.31-.31v-.15c-.21-.12-.42-.23-.62-.36v.51a.31.31,0,0,0,.31.31Z"/><path class="cls-7" d="M14.29,4.47a.81.81,0,0,0-.81.72.81.81,0,0,0,.13.56A.85.85,0,0,0,14.66,6a.78.78,0,0,0,.39-.43h.23v2h0a2.88,2.88,0,0,0,.62.28V5.29A.31.31,0,0,0,15.59,5h-.54a.82.82,0,0,0-.76-.51Z"/><path class="cls-8" d="M17.38,14.06a.29.29,0,0,0-.09-.22.31.31,0,0,0-.22-.09h-.5a4.77,4.77,0,0,1-.17.62h.67a.36.36,0,0,0,.22-.09.31.31,0,0,0,.09-.22Z"/><path class="cls-9" d="M18.77,11.72h0a.31.31,0,0,0-.31-.31H16.75c0,.22,0,.43,0,.62h1.73a.31.31,0,0,0,.31-.31Z"/><path class="cls-10" d="M17.71,8.71h0a.31.31,0,0,0-.09-.22.36.36,0,0,0-.22-.09h-.65V9h.65a.29.29,0,0,0,.22-.09.31.31,0,0,0,.09-.22Z"/><path class="cls-11" d="M16.75,10.81h3.12a.83.83,0,0,0,.54.48.81.81,0,0,0,.72-.14.82.82,0,0,0,.32-.65.82.82,0,0,0-1.58-.31H16.75v.62Z"/><path class="cls-12" d="M13.81,19.87v-3l-.23.13-.39.22v2.63a.83.83,0,0,0-.48.54.81.81,0,0,0,.14.72.82.82,0,0,0,.65.32.82.82,0,0,0,.31-1.58Z"/><path class="cls-13" d="M12,18l0,0v.51a.31.31,0,0,0,.31.3.32.32,0,0,0,.31-.3V17.6l-.25.15Z"/><path class="cls-14" d="M10.87,20.87H10a.8.8,0,0,0-.55-.48.82.82,0,1,0,0,1.58.83.83,0,0,0,.55-.48h1.15a.31.31,0,0,0,.31-.31V17.65l-.62-.37Z"/><path class="cls-15" d="M18.37,13.47a.84.84,0,0,0-.66.32.88.88,0,0,0-.14.72.85.85,0,0,0,.49.54v.23H15.91a4.56,4.56,0,0,1-.93.88V17.4a.31.31,0,0,0,.31.32.31.31,0,0,0,.22-.09.32.32,0,0,0,.09-.23V15.9h2.77a.31.31,0,0,0,.31-.31v-.54a.86.86,0,0,0,.48-.54.82.82,0,0,0-.79-1Z"/><path class="cls-16" d="M21.49,14V12.82a.31.31,0,0,0-.31-.31H16.71c0,.22,0,.42-.05.62h4.21V14a.8.8,0,0,0-.48.55.79.79,0,0,0,.14.71.82.82,0,0,0,1.3,0,.79.79,0,0,0,.14-.71.83.83,0,0,0-.48-.55Z"/><path class="cls-17" d="M2.82,11.49H7.26c0-.2,0-.4,0-.62H3.13V10a.8.8,0,0,0,.48-.55.82.82,0,0,0-.79-1,.82.82,0,0,0-.79,1,.83.83,0,0,0,.48.55v1.15a.31.31,0,0,0,.31.31Z"/><path class="cls-18" d="M9.71,19.53a.81.81,0,0,0,.81-.72.81.81,0,0,0-.13-.56A.85.85,0,0,0,9.34,18,.78.78,0,0,0,9,18.4H8.72V15.92A3.55,3.55,0,0,1,7.89,15H6.6a.32.32,0,0,0-.23.09.28.28,0,0,0-.09.22.31.31,0,0,0,.09.22.32.32,0,0,0,.23.09H8.1v3.11a.31.31,0,0,0,.31.31H9a.84.84,0,0,0,.3.37.86.86,0,0,0,.46.14Z"/><path class="cls-19" d="M5.29,10.53A.82.82,0,0,0,5.6,9V8.72H7.25V8.1h-2A.31.31,0,0,0,5,8.41V9a.86.86,0,0,0-.48.54.82.82,0,0,0,.79,1Z"/><path class="cls-20" d="M7.34,13.19H4.13a.83.83,0,0,0-.54-.48.81.81,0,0,0-.72.14.82.82,0,0,0-.32.65.82.82,0,0,0,1.58.31H7.44c0-.19-.07-.4-.1-.62Z"/><path class="cls-21" d="M5.23,12.28a.31.31,0,0,0,.31.31H7.29c0-.2,0-.41,0-.62H5.55a.28.28,0,0,0-.22.09.29.29,0,0,0-.1.22Z"/><path class="cls-1" d="M7.88,8.53a5.37,5.37,0,0,0,2.71-1.66l.17-.15h2.48l.17.15a5.37,5.37,0,0,0,2.71,1.66c0,.53,0,1,0,1.47,0,2.25,0,3.6-.45,4.48a5.48,5.48,0,0,1-2.4,2c-.41.23-.83.47-1.27.75-.43-.28-.86-.52-1.27-.75a5.4,5.4,0,0,1-2.39-2c-.46-.88-.46-2.23-.46-4.48,0-.44,0-.94,0-1.47Z"/><path class="cls-22" d="M8.61,12.23A5.14,5.14,0,0,0,9,14.17a3.43,3.43,0,0,0,1.26,1.19c.34.21.69.41,1,.6l.6.35a.36.36,0,0,0,.32,0l.6-.35c.34-.19.69-.39,1-.6a3.43,3.43,0,0,0,1.26-1.19,5.14,5.14,0,0,0,.34-1.94c0-.87,0-1.76,0-2.62V9.3a.31.31,0,0,0-.2-.29A7.36,7.36,0,0,1,13.06,7.5h0a.28.28,0,0,0-.21-.08h-1.7a.28.28,0,0,0-.21.08A7.23,7.23,0,0,1,8.78,9h0a.31.31,0,0,0-.2.29v.31c0,.86,0,1.75,0,2.62Z"/><path class="cls-1" d="M9.51,13.88a2.64,2.64,0,0,0,1,.95c.33.21.67.4,1,.59l.45.26.45-.26c.33-.19.68-.38,1-.59a2.64,2.64,0,0,0,1-.95,4.6,4.6,0,0,0,.28-1.68c0-.85,0-1.73,0-2.59v-.1A8.37,8.37,0,0,1,12.73,8H11.27A8.37,8.37,0,0,1,9.2,9.51v.1c0,.85,0,1.74,0,2.59a4.83,4.83,0,0,0,.29,1.68Z"/><path class="cls-23" d="M13.13,3.13H14a.8.8,0,0,0,.55.48.82.82,0,0,0,1-.79.82.82,0,0,0-1-.79.83.83,0,0,0-.55.48H12.82a.31.31,0,0,0-.31.31V6.09h.62Z"/></svg>