<svg id="Layer_1" data-name="Layer 1" xmlns="http://www.w3.org/2000/svg" xmlns:xlink="http://www.w3.org/1999/xlink" viewBox="0 0 24 24"><defs><style>.cls-1{fill:#002680;}.cls-2{fill:url(#linear-gradient);}.cls-3{fill:url(#linear-gradient-2);}.cls-4{fill:url(#linear-gradient-3);}.cls-5{fill:url(#linear-gradient-4);}.cls-6{fill:url(#linear-gradient-5);}.cls-7{fill:url(#linear-gradient-6);}.cls-8{fill:url(#linear-gradient-7);}.cls-9{fill:url(#linear-gradient-8);}.cls-10{fill:url(#linear-gradient-9);}.cls-11{fill:url(#linear-gradient-10);}.cls-12{fill:url(#linear-gradient-11);}.cls-13{fill:url(#linear-gradient-12);}.cls-14{fill:url(#linear-gradient-13);}.cls-15{fill:url(#linear-gradient-14);}.cls-16{fill:url(#linear-gradient-15);}.cls-17{fill:url(#linear-gradient-16);}.cls-18{fill:url(#linear-gradient-17);}.cls-19{fill:url(#linear-gradient-18);}.cls-20{fill:url(#linear-gradient-19);}.cls-21{fill:url(#linear-gradient-20);}.cls-22{fill:url(#linear-gradient-21);}.cls-23{fill:url(#linear-gradient-22);}.cls-24{fill:url(#linear-gradient-23);}.cls-25{fill:url(#linear-gradient-24);}.cls-26{fill:#fff;}</style><linearGradient id="linear-gradient" x1="12.51" y1="4.83" x2="15.55" y2="4.83" gradientUnits="userSpaceOnUse"><stop offset="0" stop-color="#10bef0"/><stop offset="0.27" stop-color="#10bef0" stop-opacity="0.67"/><stop offset="0.53" stop-color="#10bef0" stop-opacity="0.39"/><stop offset="0.75" stop-color="#10bef0" stop-opacity="0.18"/><stop offset="0.91" stop-color="#10bef0" stop-opacity="0.05"/><stop offset="1" stop-color="#10bef0" stop-opacity="0"/></linearGradient><linearGradient id="linear-gradient-2" x1="11.41" y1="6.45" x2="12.03" y2="6.45" xlink:href="#linear-gradient"/><linearGradient id="linear-gradient-3" x1="4.47" y1="9.31" x2="7.94" y2="9.31" xlink:href="#linear-gradient"/><linearGradient id="linear-gradient-4" x1="9.63" y1="16.86" x2="10.25" y2="16.86" xlink:href="#linear-gradient"/><linearGradient id="linear-gradient-5" x1="8.4" y1="7.02" x2="9.02" y2="7.02" xlink:href="#linear-gradient"/><linearGradient id="linear-gradient-6" x1="9.68" y1="5.11" x2="11.32" y2="5.11" xlink:href="#linear-gradient"/><linearGradient id="linear-gradient-7" x1="13.75" y1="7.14" x2="14.37" y2="7.14" xlink:href="#linear-gradient"/><linearGradient id="linear-gradient-8" x1="16.33" y1="10.5" x2="21.45" y2="10.5" xlink:href="#linear-gradient"/><linearGradient id="linear-gradient-9" x1="16.33" y1="14.06" x2="17.38" y2="14.06" xlink:href="#linear-gradient"/><linearGradient id="linear-gradient-10" x1="16.24" y1="8.71" x2="17.72" y2="8.71" xlink:href="#linear-gradient"/><linearGradient id="linear-gradient-11" x1="13.47" y1="6.2" x2="15.9" y2="6.2" xlink:href="#linear-gradient"/><linearGradient id="linear-gradient-12" x1="16.33" y1="11.72" x2="18.76" y2="11.72" xlink:href="#linear-gradient"/><linearGradient id="linear-gradient-13" x1="2.55" y1="13.5" x2="7.67" y2="13.5" xlink:href="#linear-gradient"/><linearGradient id="linear-gradient-14" x1="12.68" y1="18.89" x2="14.32" y2="18.89" xlink:href="#linear-gradient"/><linearGradient id="linear-gradient-15" x1="11.97" y1="17.54" x2="12.59" y2="17.54" xlink:href="#linear-gradient"/><linearGradient id="linear-gradient-16" x1="14.98" y1="16.98" x2="15.6" y2="16.98" xlink:href="#linear-gradient"/><linearGradient id="linear-gradient-17" x1="16.33" y1="14.03" x2="22" y2="14.03" xlink:href="#linear-gradient"/><linearGradient id="linear-gradient-18" x1="16.06" y1="14.69" x2="19.53" y2="14.69" xlink:href="#linear-gradient"/><linearGradient id="linear-gradient-19" x1="2" y1="9.97" x2="7.67" y2="9.97" xlink:href="#linear-gradient"/><linearGradient id="linear-gradient-20" x1="6.61" y1="9.94" x2="7.67" y2="9.94" xlink:href="#linear-gradient"/><linearGradient id="linear-gradient-21" x1="8.45" y1="19.17" x2="11.49" y2="19.17" xlink:href="#linear-gradient"/><linearGradient id="linear-gradient-22" x1="5.23" y1="12.28" x2="7.67" y2="12.28" xlink:href="#linear-gradient"/><linearGradient id="linear-gradient-23" x1="6.28" y1="15.29" x2="7.76" y2="15.29" xlink:href="#linear-gradient"/><linearGradient id="linear-gradient-24" x1="8.1" y1="17.79" x2="10.53" y2="17.79" xlink:href="#linear-gradient"/></defs><path class="cls-1" d="M12,7.67h-.62V5.54a.31.31,0,0,1,.62,0Z"/><path class="cls-1" d="M5,8.41V9a.82.82,0,0,0-.34,1.26.82.82,0,0,0,.65.32.82.82,0,0,0,.79-1A.79.79,0,0,0,5.6,9V8.72H7.68a1.11,1.11,0,0,1,.26-.62H5.29A.31.31,0,0,0,5,8.41Z"/><path class="cls-1" d="M9.94,17.38a.31.31,0,0,0,.31-.31v-.74H9.63v.74a.36.36,0,0,0,.09.22.31.31,0,0,0,.22.09Z"/><path class="cls-1" d="M9,7.67V6.6a.32.32,0,0,0-.09-.23.28.28,0,0,0-.22-.09.31.31,0,0,0-.22.09.32.32,0,0,0-.09.23V7.76a1.2,1.2,0,0,1,.45-.09Z"/><path class="cls-1" d="M13.13,3.13H14a.83.83,0,0,0,.55.48.79.79,0,0,0,.71-.14.8.8,0,0,0,.32-.65.82.82,0,0,0-1-.79.8.8,0,0,0-.55.48H12.82a.31.31,0,0,0-.31.31V7.67h.62Z"/><path class="cls-2" d="M13.13,3.13H14a.83.83,0,0,0,.55.48.79.79,0,0,0,.71-.14.8.8,0,0,0,.32-.65.82.82,0,0,0-1-.79.8.8,0,0,0-.55.48H12.82a.31.31,0,0,0-.31.31V7.67h.62Z"/><path class="cls-1" d="M10.19,4.13V7.67h.62V4.13a.83.83,0,0,0,.48-.54.81.81,0,0,0-.14-.72.82.82,0,0,0-.65-.32.82.82,0,0,0-.31,1.58Z"/><path class="cls-1" d="M14.06,6.62a.29.29,0,0,0-.22.09.31.31,0,0,0-.09.22v.74h.62V6.93a.36.36,0,0,0-.09-.22.31.31,0,0,0-.22-.09Z"/><path class="cls-1" d="M16.33,10.81h3.54a.86.86,0,0,0,.54.48.82.82,0,0,0,1-.79.82.82,0,0,0-1.58-.31H16.33Z"/><path class="cls-1" d="M17.38,14.06a.29.29,0,0,0-.09-.22.31.31,0,0,0-.22-.09h-.74v.62h.74a.36.36,0,0,0,.22-.09.31.31,0,0,0,.09-.22Z"/><path class="cls-1" d="M16.33,9H17.4a.32.32,0,0,0,.23-.09.28.28,0,0,0,.09-.22.31.31,0,0,0-.09-.22.32.32,0,0,0-.23-.09H16.24a1.2,1.2,0,0,1,.09.45Z"/><path class="cls-1" d="M15.59,5h-.54a.83.83,0,0,0-.54-.48.82.82,0,1,0,.54,1.1h.23V7.68h0a1.11,1.11,0,0,1,.62.26V5.29A.31.31,0,0,0,15.59,5Z"/><path class="cls-1" d="M16.33,11.41V12h2.13a.31.31,0,0,0,.3-.31.32.32,0,0,0-.3-.31Z"/><path class="cls-1" d="M7.67,13.19H4.13a.83.83,0,0,0-.54-.48.81.81,0,0,0-.72.14.82.82,0,0,0-.32.65.82.82,0,0,0,1.58.31H7.67Z"/><path class="cls-1" d="M13.81,19.87V16.33h-.62v3.54a.83.83,0,0,0-.48.54.81.81,0,0,0,.14.72.82.82,0,0,0,.65.32.82.82,0,0,0,.31-1.58Z"/><path class="cls-1" d="M12,18.46h0a.31.31,0,0,0,.31.3.32.32,0,0,0,.31-.3V16.33H12Z"/><path class="cls-1" d="M15,16.33V17.4a.31.31,0,0,0,.08.23.32.32,0,0,0,.23.09.31.31,0,0,0,.22-.09.32.32,0,0,0,.09-.23V16.24a1.2,1.2,0,0,1-.45.09Z"/><path class="cls-1" d="M21.49,14V12.82a.31.31,0,0,0-.31-.31H16.33v.62h4.54V14a.8.8,0,0,0-.48.55.79.79,0,0,0,.14.71.82.82,0,0,0,1.3,0,.79.79,0,0,0,.14-.71.83.83,0,0,0-.48-.55Z"/><path class="cls-1" d="M18.71,13.47a.82.82,0,0,0-.31,1.58v.23H16.32a1.11,1.11,0,0,1-.26.62h2.65a.31.31,0,0,0,.31-.31v-.54a.83.83,0,0,0,.48-.54.81.81,0,0,0-.14-.72.82.82,0,0,0-.65-.32Z"/><path class="cls-1" d="M2.82,11.49H7.67v-.62H3.13V10a.8.8,0,0,0,.48-.55.79.79,0,0,0-.14-.71.81.81,0,0,0-1.3,0A.79.79,0,0,0,2,9.48a.83.83,0,0,0,.48.55v1.15a.31.31,0,0,0,.31.31Z"/><path class="cls-1" d="M7.67,10.25V9.63H6.93a.33.33,0,0,0-.23.09.31.31,0,0,0-.09.22.28.28,0,0,0,.09.22.33.33,0,0,0,.23.09Z"/><path class="cls-1" d="M10.87,20.87H10a.83.83,0,0,0-.55-.48.82.82,0,1,0,0,1.58.8.8,0,0,0,.55-.48h1.15a.31.31,0,0,0,.31-.31V16.33h-.62Z"/><path class="cls-1" d="M5.23,12.28a.31.31,0,0,0,.09.21.32.32,0,0,0,.22.1H7.67V12H5.54a.31.31,0,0,0-.31.31Z"/><path class="cls-1" d="M7.67,15H6.6a.31.31,0,0,0-.23.08.32.32,0,0,0-.09.23.31.31,0,0,0,.09.22.32.32,0,0,0,.23.09H7.76a1.2,1.2,0,0,1-.09-.45Z"/><path class="cls-1" d="M9.71,19.53a.83.83,0,0,0,.81-.72.81.81,0,0,0-.13-.56.9.9,0,0,0-.47-.34.83.83,0,0,0-.58.06A.78.78,0,0,0,9,18.4H8.72V16.32a1.11,1.11,0,0,1-.62-.26v2.65a.31.31,0,0,0,.31.31H9a.82.82,0,0,0,.76.51Z"/><path class="cls-3" d="M12,7.67h-.62V5.54a.31.31,0,0,1,.62,0Z"/><path class="cls-4" d="M5,8.41V9a.82.82,0,0,0-.34,1.26.82.82,0,0,0,.65.32.82.82,0,0,0,.79-1A.79.79,0,0,0,5.6,9V8.72H7.68a1.11,1.11,0,0,1,.26-.62H5.29A.31.31,0,0,0,5,8.41Z"/><path class="cls-5" d="M9.94,17.38a.31.31,0,0,0,.31-.31v-.74H9.63v.74a.36.36,0,0,0,.09.22.31.31,0,0,0,.22.09Z"/><path class="cls-6" d="M9,7.67V6.6a.32.32,0,0,0-.09-.23.28.28,0,0,0-.22-.09.31.31,0,0,0-.22.09.32.32,0,0,0-.09.23V7.76a1.2,1.2,0,0,1,.45-.09Z"/><path class="cls-7" d="M10.19,4.13V7.67h.62V4.13a.83.83,0,0,0,.48-.54.81.81,0,0,0-.14-.72.82.82,0,0,0-.65-.32.82.82,0,0,0-.31,1.58Z"/><path class="cls-8" d="M14.06,6.62a.29.29,0,0,0-.22.09.31.31,0,0,0-.09.22v.74h.62V6.93a.36.36,0,0,0-.09-.22.31.31,0,0,0-.22-.09Z"/><path class="cls-9" d="M16.33,10.81h3.54a.86.86,0,0,0,.54.48.82.82,0,0,0,1-.79.82.82,0,0,0-1.58-.31H16.33Z"/><path class="cls-10" d="M17.38,14.06a.29.29,0,0,0-.09-.22.31.31,0,0,0-.22-.09h-.74v.62h.74a.36.36,0,0,0,.22-.09.31.31,0,0,0,.09-.22Z"/><path class="cls-11" d="M16.33,9H17.4a.32.32,0,0,0,.23-.09.28.28,0,0,0,.09-.22.31.31,0,0,0-.09-.22.32.32,0,0,0-.23-.09H16.24a1.2,1.2,0,0,1,.09.45Z"/><path class="cls-12" d="M15.59,5h-.54a.83.83,0,0,0-.54-.48.82.82,0,1,0,.54,1.1h.23V7.68h0a1.11,1.11,0,0,1,.62.26V5.29A.31.31,0,0,0,15.59,5Z"/><path class="cls-13" d="M16.33,11.41V12h2.13a.31.31,0,0,0,.3-.31.32.32,0,0,0-.3-.31Z"/><path class="cls-14" d="M7.67,13.19H4.13a.83.83,0,0,0-.54-.48.81.81,0,0,0-.72.14.82.82,0,0,0-.32.65.82.82,0,0,0,1.58.31H7.67Z"/><path class="cls-15" d="M13.81,19.87V16.33h-.62v3.54a.83.83,0,0,0-.48.54.81.81,0,0,0,.14.72.82.82,0,0,0,.65.32.82.82,0,0,0,.31-1.58Z"/><path class="cls-16" d="M12,18.46h0a.31.31,0,0,0,.31.3.32.32,0,0,0,.31-.3V16.33H12Z"/><path class="cls-17" d="M15,16.33V17.4a.31.31,0,0,0,.08.23.32.32,0,0,0,.23.09.31.31,0,0,0,.22-.09.32.32,0,0,0,.09-.23V16.24a1.2,1.2,0,0,1-.45.09Z"/><path class="cls-18" d="M21.49,14V12.82a.31.31,0,0,0-.31-.31H16.33v.62h4.54V14a.8.8,0,0,0-.48.55.79.79,0,0,0,.14.71.82.82,0,0,0,1.3,0,.79.79,0,0,0,.14-.71.83.83,0,0,0-.48-.55Z"/><path class="cls-19" d="M18.71,13.47a.82.82,0,0,0-.31,1.58v.23H16.32a1.11,1.11,0,0,1-.26.62h2.65a.31.31,0,0,0,.31-.31v-.54a.83.83,0,0,0,.48-.54.81.81,0,0,0-.14-.72.82.82,0,0,0-.65-.32Z"/><path class="cls-20" d="M2.82,11.49H7.67v-.62H3.13V10a.8.8,0,0,0,.48-.55.79.79,0,0,0-.14-.71.81.81,0,0,0-1.3,0A.79.79,0,0,0,2,9.48a.83.83,0,0,0,.48.55v1.15a.31.31,0,0,0,.31.31Z"/><path class="cls-21" d="M7.67,10.25V9.63H6.93a.33.33,0,0,0-.23.09.31.31,0,0,0-.09.22.28.28,0,0,0,.09.22.33.33,0,0,0,.23.09Z"/><path class="cls-22" d="M10.87,20.87H10a.83.83,0,0,0-.55-.48.82.82,0,1,0,0,1.58.8.8,0,0,0,.55-.48h1.15a.31.31,0,0,0,.31-.31V16.33h-.62Z"/><path class="cls-23" d="M5.23,12.28a.31.31,0,0,0,.09.21.32.32,0,0,0,.22.1H7.67V12H5.54a.31.31,0,0,0-.31.31Z"/><path class="cls-24" d="M7.67,15H6.6a.31.31,0,0,0-.23.08.32.32,0,0,0-.09.23.31.31,0,0,0,.09.22.32.32,0,0,0,.23.09H7.76a1.2,1.2,0,0,1-.09-.45Z"/><path class="cls-25" d="M9.71,19.53a.83.83,0,0,0,.81-.72.81.81,0,0,0-.13-.56.9.9,0,0,0-.47-.34.83.83,0,0,0-.58.06A.78.78,0,0,0,9,18.4H8.72V16.32a1.11,1.11,0,0,1-.62-.26v2.65a.31.31,0,0,0,.31.31H9a.82.82,0,0,0,.76.51Z"/><path class="cls-1" d="M15.7,8.85v6.29a.55.55,0,0,1-.55.56H8.85a.55.55,0,0,1-.55-.56V8.85a.55.55,0,0,1,.55-.55h6.3a.55.55,0,0,1,.55.55Z"/><path class="cls-26" d="M14,11.34a.49.49,0,0,0-.5-.49h-.12v-.42a1.2,1.2,0,0,0-1.19-1.2h-.3a1.2,1.2,0,0,0-1.19,1.2v.42h-.12a.49.49,0,0,0-.5.49v2.55a.85.85,0,0,0,.26.62.87.87,0,0,0,.61.26h2.18a.87.87,0,0,0,.61-.26.9.9,0,0,0,.26-.62Z"/><path class="cls-1" d="M12.72,10.43a.57.57,0,0,0-.17-.41.54.54,0,0,0-.4-.17h-.3a.58.58,0,0,0-.41.17.6.6,0,0,0-.16.41v.42h1.44Z"/><path class="cls-1" d="M10.66,11.47h2.68v2.42a.26.26,0,0,1-.25.26H10.91a.26.26,0,0,1-.25-.26Z"/><path class="cls-26" d="M11.27,12.51a.8.8,0,0,0,.11.4.89.89,0,0,0,.31.27v.34a.31.31,0,0,0,.62,0v-.34a.76.76,0,0,0,.36-.37.75.75,0,0,0,0-.51.75.75,0,0,0-.81-.51.7.7,0,0,0-.44.25.69.69,0,0,0-.18.47Z"/><path class="cls-1" d="M12,12.63a.1.1,0,0,0,.1-.07.12.12,0,0,0,0-.13.11.11,0,0,0-.12,0,.11.11,0,0,0,0,.22Z"/></svg>