<?xml version="1.0" encoding="utf-8"?>
<!-- Generator: Adobe Illustrator 25.2.1, SVG Export Plug-In . SVG Version: 6.00 Build 0)  -->
<svg version="1.1" id="Layer_1" xmlns="http://www.w3.org/2000/svg" xmlns:xlink="http://www.w3.org/1999/xlink" x="0px" y="0px"
	 viewBox="0 0 24 24" style="enable-background:new 0 0 24 24;" xml:space="preserve">
<style type="text/css">
	.st0{fill:#002680;}
	.st1{opacity:0.65;}
	.st2{fill:url(#SVGID_1_);}
	.st3{fill:url(#SVGID_2_);}
	.st4{fill:url(#SVGID_3_);}
	.st5{fill:url(#SVGID_4_);}
	.st6{fill:url(#SVGID_5_);}
	.st7{fill:url(#SVGID_6_);}
	.st8{fill:url(#SVGID_7_);}
	.st9{fill:url(#SVGID_8_);}
	.st10{fill:url(#SVGID_9_);}
	.st11{fill:url(#SVGID_10_);}
	.st12{fill:url(#SVGID_11_);}
	.st13{fill:url(#SVGID_12_);}
	.st14{fill:url(#SVGID_13_);}
	.st15{fill:url(#SVGID_14_);}
	.st16{fill:url(#SVGID_15_);}
	.st17{fill:url(#SVGID_16_);}
	.st18{fill:url(#SVGID_17_);}
	.st19{fill:url(#SVGID_18_);}
	.st20{fill:url(#SVGID_19_);}
	.st21{fill:url(#SVGID_20_);}
	.st22{fill:url(#SVGID_21_);}
	.st23{fill:url(#SVGID_22_);}
	.st24{fill:url(#SVGID_23_);}
	.st25{fill:url(#SVGID_24_);}
	.st26{fill:url(#SVGID_25_);}
	.st27{fill:url(#SVGID_26_);}
	.st28{fill:url(#SVGID_27_);}
	.st29{fill:#FFFFFF;}
	.st30{fill:url(#SVGID_28_);}
	.st31{fill:url(#SVGID_29_);}
	.st32{fill:url(#SVGID_30_);}
	.st33{fill:url(#SVGID_31_);}
	.st34{fill:url(#SVGID_32_);}
	.st35{fill:url(#SVGID_33_);}
	.st36{fill:url(#SVGID_34_);}
	.st37{fill:url(#SVGID_35_);}
	.st38{fill:url(#SVGID_36_);}
	.st39{fill:url(#SVGID_37_);}
	.st40{fill:url(#SVGID_38_);}
	.st41{fill:url(#SVGID_39_);}
	.st42{fill:url(#SVGID_40_);}
	.st43{fill:url(#SVGID_41_);}
	.st44{fill:url(#SVGID_42_);}
	.st45{fill:url(#SVGID_43_);}
	.st46{fill:url(#SVGID_44_);}
	.st47{fill:url(#SVGID_45_);}
	.st48{fill:url(#SVGID_46_);}
	.st49{fill:url(#SVGID_47_);}
	.st50{fill:url(#SVGID_48_);}
	.st51{fill:url(#SVGID_49_);}
	.st52{fill:url(#SVGID_50_);}
	.st53{fill:url(#SVGID_51_);}
	.st54{fill:url(#SVGID_52_);}
	.st55{fill:url(#SVGID_53_);}
	.st56{fill:url(#SVGID_54_);}
	.st57{fill:url(#SVGID_55_);}
	.st58{fill:url(#SVGID_56_);}
	.st59{fill:url(#SVGID_57_);}
	.st60{fill:url(#SVGID_58_);}
	.st61{fill:url(#SVGID_59_);}
	.st62{fill:url(#SVGID_60_);}
	.st63{fill:url(#SVGID_61_);}
	.st64{fill:url(#SVGID_62_);}
	.st65{fill:url(#SVGID_63_);}
	.st66{fill:url(#SVGID_64_);}
	.st67{fill:url(#SVGID_65_);}
	.st68{fill:url(#SVGID_66_);}
	.st69{fill:url(#SVGID_67_);}
	.st70{fill:url(#SVGID_68_);}
	.st71{fill:url(#SVGID_69_);}
	.st72{fill:url(#SVGID_70_);}
	.st73{fill:url(#SVGID_71_);}
	.st74{fill:url(#SVGID_72_);}
	.st75{fill:url(#SVGID_73_);}
	.st76{fill:url(#SVGID_74_);}
	.st77{fill:url(#SVGID_75_);}
	.st78{fill:url(#SVGID_76_);}
	.st79{fill:url(#SVGID_77_);}
	.st80{fill:url(#SVGID_78_);}
	.st81{fill:url(#SVGID_79_);}
	.st82{fill:url(#SVGID_80_);}
	.st83{fill:url(#SVGID_81_);}
	.st84{fill:url(#SVGID_82_);}
	.st85{fill:url(#SVGID_83_);}
	.st86{fill:url(#SVGID_84_);}
	.st87{fill:url(#SVGID_85_);}
	.st88{fill:url(#SVGID_86_);}
	.st89{fill:url(#SVGID_87_);}
	.st90{fill:url(#SVGID_88_);}
	.st91{fill:url(#SVGID_89_);}
	.st92{fill:url(#SVGID_90_);}
	.st93{fill:url(#SVGID_91_);}
	.st94{fill:url(#SVGID_92_);}
	.st95{fill:url(#SVGID_93_);}
	.st96{fill:url(#SVGID_94_);}
	.st97{fill:url(#SVGID_95_);}
	.st98{fill:url(#SVGID_96_);}
	.st99{fill:url(#SVGID_97_);}
	.st100{fill:url(#SVGID_98_);}
	.st101{fill:url(#SVGID_99_);}
	.st102{fill:url(#SVGID_100_);}
	.st103{fill:url(#SVGID_101_);}
	.st104{fill:url(#SVGID_102_);}
	.st105{fill:url(#SVGID_103_);}
	.st106{fill:url(#SVGID_104_);}
	.st107{fill:url(#SVGID_105_);}
	.st108{fill:url(#SVGID_106_);}
	.st109{fill:url(#SVGID_107_);}
	.st110{fill:url(#SVGID_108_);}
	.st111{fill:url(#SVGID_109_);}
	.st112{fill:url(#SVGID_110_);}
	.st113{fill:url(#SVGID_111_);}
	.st114{fill:url(#SVGID_112_);}
	.st115{fill:url(#SVGID_113_);}
	.st116{fill:url(#SVGID_114_);}
	.st117{fill:url(#SVGID_115_);}
	.st118{fill:url(#SVGID_116_);}
	.st119{fill:url(#SVGID_117_);}
	.st120{fill:url(#SVGID_118_);}
	.st121{fill:url(#SVGID_119_);}
	.st122{fill:url(#SVGID_120_);}
	.st123{fill:url(#SVGID_121_);}
	.st124{fill:url(#SVGID_122_);}
	.st125{fill:url(#SVGID_123_);}
	.st126{fill:url(#SVGID_124_);}
	.st127{fill:url(#SVGID_125_);}
	.st128{fill:url(#SVGID_126_);}
	.st129{fill:url(#SVGID_127_);}
	.st130{fill:url(#SVGID_128_);}
	.st131{fill:url(#SVGID_129_);}
	.st132{fill:url(#SVGID_130_);}
	.st133{fill:url(#SVGID_131_);}
	.st134{fill:url(#SVGID_132_);}
	.st135{fill:url(#SVGID_133_);}
	.st136{fill:url(#SVGID_134_);}
	.st137{fill:url(#SVGID_135_);}
	.st138{fill:url(#SVGID_136_);}
	.st139{fill:url(#SVGID_137_);}
	.st140{fill:url(#SVGID_138_);}
	.st141{fill:url(#SVGID_139_);}
	.st142{fill:url(#SVGID_140_);}
	.st143{fill:url(#SVGID_141_);}
	.st144{fill:url(#SVGID_142_);}
	.st145{fill:url(#SVGID_143_);}
	.st146{fill:url(#SVGID_144_);}
	.st147{fill:url(#SVGID_145_);}
	.st148{fill:url(#SVGID_146_);}
	.st149{fill:url(#SVGID_147_);}
	.st150{fill:url(#SVGID_148_);}
	.st151{fill:url(#SVGID_149_);}
	.st152{fill:url(#SVGID_150_);}
	.st153{fill:url(#SVGID_151_);}
	.st154{fill:url(#SVGID_152_);}
	.st155{fill:url(#SVGID_153_);}
	.st156{fill:url(#SVGID_154_);}
	.st157{fill:url(#SVGID_155_);}
	.st158{fill:url(#SVGID_156_);}
	.st159{fill:url(#SVGID_157_);}
	.st160{fill:url(#SVGID_158_);}
	.st161{fill:url(#SVGID_159_);}
	.st162{fill:url(#SVGID_160_);}
	.st163{fill:url(#SVGID_161_);}
	.st164{fill:url(#SVGID_162_);}
	.st165{fill:url(#SVGID_163_);}
	.st166{fill:url(#SVGID_164_);}
	.st167{fill:url(#SVGID_165_);}
	.st168{fill:url(#SVGID_166_);}
	.st169{fill:url(#SVGID_167_);}
	.st170{fill:url(#SVGID_168_);}
	.st171{fill:url(#SVGID_169_);}
	.st172{fill:url(#SVGID_170_);}
	.st173{fill:url(#SVGID_171_);}
	.st174{fill:url(#SVGID_172_);}
	.st175{fill:url(#SVGID_173_);}
	.st176{fill:url(#SVGID_174_);}
	.st177{fill:url(#SVGID_175_);}
	.st178{fill:url(#SVGID_176_);}
	.st179{fill:url(#SVGID_177_);}
	.st180{fill:url(#SVGID_178_);}
	.st181{fill:url(#SVGID_179_);}
	.st182{fill:url(#SVGID_180_);}
	.st183{fill:url(#SVGID_181_);}
	.st184{fill:url(#SVGID_182_);}
	.st185{fill:url(#SVGID_183_);}
	.st186{fill:url(#SVGID_184_);}
	.st187{fill:url(#SVGID_185_);}
	.st188{fill:url(#SVGID_186_);}
	.st189{fill:url(#SVGID_187_);}
	.st190{fill:url(#SVGID_188_);}
	.st191{fill:url(#SVGID_189_);}
</style>
<path class="st0" d="M20.69,12.02h-6.38c-0.43,0-0.77,0.34-0.77,0.77c0,0.43,0.34,0.77,0.77,0.77l5.61,0v6.94
	c0,0.43,0.34,0.77,0.77,0.77c0.43,0,0.77-0.34,0.77-0.77v-7.71C21.48,12.36,21.12,12.02,20.69,12.02L20.69,12.02z"/>
<linearGradient id="SVGID_1_" gradientUnits="userSpaceOnUse" x1="13.5426" y1="16.6463" x2="21.4568" y2="16.6463">
	<stop  offset="0" style="stop-color:#10BEF0"/>
	<stop  offset="1" style="stop-color:#10BEF0;stop-opacity:0"/>
</linearGradient>
<path class="st2" d="M20.69,12.02h-6.38c-0.43,0-0.77,0.34-0.77,0.77c0,0.43,0.34,0.77,0.77,0.77l5.61,0v6.94
	c0,0.43,0.34,0.77,0.77,0.77c0.43,0,0.77-0.34,0.77-0.77v-7.71C21.48,12.36,21.12,12.02,20.69,12.02L20.69,12.02z"/>
<path class="st0" d="M9.06,2.72c1.23,0.13,2.12,1.24,1.98,2.47S9.8,7.31,8.57,7.17C7.34,7.04,6.46,5.93,6.59,4.71
	S7.83,2.59,9.06,2.72"/>
<linearGradient id="SVGID_2_" gradientUnits="userSpaceOnUse" x1="6.5765" y1="4.9478" x2="11.0535" y2="4.9478">
	<stop  offset="0" style="stop-color:#10BEF0"/>
	<stop  offset="1" style="stop-color:#10BEF0;stop-opacity:0"/>
</linearGradient>
<path class="st3" d="M9.06,2.72c1.23,0.13,2.12,1.24,1.98,2.47S9.8,7.31,8.57,7.17C7.34,7.04,6.46,5.93,6.59,4.71
	S7.83,2.59,9.06,2.72"/>
<path class="st0" d="M8.68,16.14H5.45c-0.77,0-1.4-0.54-1.54-1.29L2.8,8.61c-0.07-0.43-0.47-0.7-0.9-0.63
	c-0.43,0.07-0.7,0.47-0.63,0.9l1.11,6.24c0.27,1.49,1.56,2.58,3.07,2.58h2.69v2.83c0,0.43,0.34,0.77,0.77,0.77
	c0.43,0,0.77-0.34,0.77-0.77v-3.39C9.68,16.59,9.22,16.14,8.68,16.14L8.68,16.14z"/>
<linearGradient id="SVGID_3_" gradientUnits="userSpaceOnUse" x1="1.2554" y1="14.6288" x2="9.6764" y2="14.6288">
	<stop  offset="0" style="stop-color:#10BEF0"/>
	<stop  offset="1" style="stop-color:#10BEF0;stop-opacity:0"/>
</linearGradient>
<path class="st4" d="M8.68,16.14H5.45c-0.77,0-1.4-0.54-1.54-1.29L2.8,8.61c-0.07-0.43-0.47-0.7-0.9-0.63
	c-0.43,0.07-0.7,0.47-0.63,0.9l1.11,6.24c0.27,1.49,1.56,2.58,3.07,2.58h2.69v2.83c0,0.43,0.34,0.77,0.77,0.77
	c0.43,0,0.77-0.34,0.77-0.77v-3.39C9.68,16.59,9.22,16.14,8.68,16.14L8.68,16.14z"/>
<path class="st0" d="M11.21,12.86H9.18l0.52-2.42l1.45,0.7c0.14,0.07,0.29,0.11,0.45,0.11h0.05l2.17-0.09
	c0.57-0.02,1.02-0.52,0.99-1.09s-0.52-1.02-1.09-0.99l-1.9,0.09c0,0-2.17-1.13-2.44-1.2C9.09,7.91,7.85,7.64,7.85,7.64
	C7.42,7.55,6.96,7.61,6.6,7.86C6.24,8.11,5.97,8.47,5.88,8.9l-0.9,4.34C4.88,13.72,5,14.22,5.31,14.6c0.32,0.38,0.77,0.59,1.24,0.59
	h3.59c0.23,0,0.43,0.18,0.43,0.43v4.48c0,0.63,0.52,1.15,1.15,1.15s1.15-0.52,1.15-1.15v-5.56C12.89,13.61,12.14,12.86,11.21,12.86
	L11.21,12.86z"/>
<path class="st0" d="M16.37,9.92c-0.11,0-0.18,0.09-0.18,0.18v0.81c0,0.11,0.09,0.18,0.18,0.18h2.71c0.11,0,0.18-0.09,0.18-0.18
	V10.1c0-0.11-0.09-0.18-0.18-0.18L16.37,9.92z"/>
<path class="st0" d="M16.37,9.92c-0.11,0-0.18,0.09-0.18,0.18v0.81c0,0.11,0.09,0.18,0.18,0.18h2.71c0.11,0,0.18-0.09,0.18-0.18
	V10.1c0-0.11-0.09-0.18-0.18-0.18L16.37,9.92z"/>
<linearGradient id="SVGID_4_" gradientUnits="userSpaceOnUse" x1="16.1878" y1="10.5079" x2="19.2627" y2="10.5079">
	<stop  offset="0" style="stop-color:#10BEF0"/>
	<stop  offset="1" style="stop-color:#10BEF0;stop-opacity:0"/>
</linearGradient>
<path class="st5" d="M16.37,9.92c-0.11,0-0.18,0.09-0.18,0.18v0.81c0,0.11,0.09,0.18,0.18,0.18h2.71c0.11,0,0.18-0.09,0.18-0.18
	V10.1c0-0.11-0.09-0.18-0.18-0.18L16.37,9.92z"/>
<path class="st0" d="M17.5,6.94l0.02-2.03l-0.05,0.05c-0.05,0.02-0.07,0.07-0.11,0.11l-1.31,2.28c-0.09,0.14-0.11,0.32-0.07,0.47
	l0.32,1.56c0.02,0.07,0.07,0.11,0.14,0.11h2.62c0.07,0,0.14-0.05,0.16-0.11l0.32-1.56c0.05-0.16,0-0.34-0.07-0.47l-1.36-2.28
	C18.09,5.01,18.04,4.97,18,4.92l-0.05-0.05v2.03h0.02c0.2,0.09,0.34,0.29,0.34,0.52c0,0.32-0.25,0.59-0.59,0.59
	c-0.32,0-0.59-0.25-0.59-0.59C17.14,7.23,17.27,7.03,17.5,6.94L17.5,6.94z"/>
<linearGradient id="SVGID_5_" gradientUnits="userSpaceOnUse" x1="17.7004" y1="4.5426" x2="17.7763" y2="8.7388">
	<stop  offset="0" style="stop-color:#10BEF0"/>
	<stop  offset="1" style="stop-color:#10BEF0;stop-opacity:0"/>
</linearGradient>
<path class="st6" d="M17.5,6.94l0.02-2.03l-0.05,0.05c-0.05,0.02-0.07,0.07-0.11,0.11l-1.31,2.28c-0.09,0.14-0.11,0.32-0.07,0.47
	l0.32,1.56c0.02,0.07,0.07,0.11,0.14,0.11h2.62c0.07,0,0.14-0.05,0.16-0.11l0.32-1.56c0.05-0.16,0-0.34-0.07-0.47l-1.36-2.28
	C18.09,5.01,18.04,4.97,18,4.92l-0.05-0.05v2.03h0.02c0.2,0.09,0.34,0.29,0.34,0.52c0,0.32-0.25,0.59-0.59,0.59
	c-0.32,0-0.59-0.25-0.59-0.59C17.14,7.23,17.27,7.03,17.5,6.94L17.5,6.94z"/>
<path class="st0" d="M22.07,4.06c0.38,0,0.68-0.32,0.68-0.68s-0.32-0.68-0.68-0.68c-0.27,0-0.52,0.16-0.61,0.41l-3.05,0V2.71h-1.36
	v0.41l-3.03,0c-0.11-0.23-0.34-0.41-0.61-0.41c-0.38,0-0.68,0.32-0.68,0.68c0,0.36,0.32,0.68,0.68,0.68c0.27,0,0.52-0.16,0.61-0.41
	l1.61,0c-1.06,0.61-1.83,1.7-2.03,2.94h-0.45v1.36h1.36V6.6h-0.34c0.27-1.45,1.42-2.6,2.87-2.87v0.34h1.36V3.73
	c1.45,0.27,2.6,1.42,2.87,2.87h-0.34v1.36h1.36V6.6h-0.45c-0.2-1.27-0.97-2.33-2.03-2.94h1.61C21.55,3.91,21.8,4.06,22.07,4.06
	L22.07,4.06z"/>
<linearGradient id="SVGID_6_" gradientUnits="userSpaceOnUse" x1="17.7366" y1="1.1154" x2="17.7366" y2="6.7546">
	<stop  offset="0" style="stop-color:#10BEF0"/>
	<stop  offset="1" style="stop-color:#10BEF0;stop-opacity:0"/>
</linearGradient>
<path class="st7" d="M22.07,4.06c0.38,0,0.68-0.32,0.68-0.68s-0.32-0.68-0.68-0.68c-0.27,0-0.52,0.16-0.61,0.41l-3.05,0V2.71h-1.36
	v0.41l-3.03,0c-0.11-0.23-0.34-0.41-0.61-0.41c-0.38,0-0.68,0.32-0.68,0.68c0,0.36,0.32,0.68,0.68,0.68c0.27,0,0.52-0.16,0.61-0.41
	l1.61,0c-1.06,0.61-1.83,1.7-2.03,2.94h-0.45v1.36h1.36V6.6h-0.34c0.27-1.45,1.42-2.6,2.87-2.87v0.34h1.36V3.73
	c1.45,0.27,2.6,1.42,2.87,2.87h-0.34v1.36h1.36V6.6h-0.45c-0.2-1.27-0.97-2.33-2.03-2.94h1.61C21.55,3.91,21.8,4.06,22.07,4.06
	L22.07,4.06z"/>
</svg>
