<?xml version="1.0" encoding="utf-8"?>
<!-- Generator: Adobe Illustrator 25.2.1, SVG Export Plug-In . SVG Version: 6.00 Build 0)  -->
<svg version="1.1" id="Layer_1" xmlns="http://www.w3.org/2000/svg" xmlns:xlink="http://www.w3.org/1999/xlink" x="0px" y="0px"
	 viewBox="0 0 24 24" style="enable-background:new 0 0 24 24;" xml:space="preserve">
<style type="text/css">
	.st0{fill:#002680;}
	.st1{opacity:0.65;}
	.st2{fill:url(#SVGID_1_);}
	.st3{fill:url(#SVGID_2_);}
	.st4{fill:url(#SVGID_3_);}
	.st5{fill:url(#SVGID_4_);}
	.st6{fill:url(#SVGID_5_);}
	.st7{fill:url(#SVGID_6_);}
	.st8{fill:url(#SVGID_7_);}
	.st9{fill:url(#SVGID_8_);}
	.st10{fill:url(#SVGID_9_);}
	.st11{fill:url(#SVGID_10_);}
	.st12{fill:url(#SVGID_11_);}
	.st13{fill:url(#SVGID_12_);}
	.st14{fill:url(#SVGID_13_);}
	.st15{fill:url(#SVGID_14_);}
	.st16{fill:url(#SVGID_15_);}
	.st17{fill:url(#SVGID_16_);}
	.st18{fill:url(#SVGID_17_);}
	.st19{fill:url(#SVGID_18_);}
	.st20{fill:url(#SVGID_19_);}
	.st21{fill:url(#SVGID_20_);}
	.st22{fill:url(#SVGID_21_);}
	.st23{fill:url(#SVGID_22_);}
	.st24{fill:url(#SVGID_23_);}
	.st25{fill:url(#SVGID_24_);}
	.st26{fill:url(#SVGID_25_);}
	.st27{fill:url(#SVGID_26_);}
	.st28{fill:url(#SVGID_27_);}
	.st29{fill:#FFFFFF;}
	.st30{fill:url(#SVGID_28_);}
	.st31{fill:url(#SVGID_29_);}
	.st32{fill:url(#SVGID_30_);}
	.st33{fill:url(#SVGID_31_);}
	.st34{fill:url(#SVGID_32_);}
	.st35{fill:url(#SVGID_33_);}
	.st36{fill:url(#SVGID_34_);}
	.st37{fill:url(#SVGID_35_);}
	.st38{fill:url(#SVGID_36_);}
	.st39{fill:url(#SVGID_37_);}
	.st40{fill:url(#SVGID_38_);}
	.st41{fill:url(#SVGID_39_);}
	.st42{fill:url(#SVGID_40_);}
	.st43{fill:url(#SVGID_41_);}
	.st44{fill:url(#SVGID_42_);}
	.st45{fill:url(#SVGID_43_);}
	.st46{fill:url(#SVGID_44_);}
	.st47{fill:url(#SVGID_45_);}
	.st48{fill:url(#SVGID_46_);}
	.st49{fill:url(#SVGID_47_);}
	.st50{fill:url(#SVGID_48_);}
	.st51{fill:url(#SVGID_49_);}
	.st52{fill:url(#SVGID_50_);}
	.st53{fill:url(#SVGID_51_);}
	.st54{fill:url(#SVGID_52_);}
	.st55{fill:url(#SVGID_53_);}
	.st56{fill:url(#SVGID_54_);}
	.st57{fill:url(#SVGID_55_);}
	.st58{fill:url(#SVGID_56_);}
	.st59{fill:url(#SVGID_57_);}
	.st60{fill:url(#SVGID_58_);}
	.st61{fill:url(#SVGID_59_);}
	.st62{fill:url(#SVGID_60_);}
	.st63{fill:url(#SVGID_61_);}
	.st64{fill:url(#SVGID_62_);}
	.st65{fill:url(#SVGID_63_);}
	.st66{fill:url(#SVGID_64_);}
	.st67{fill:url(#SVGID_65_);}
	.st68{fill:url(#SVGID_66_);}
	.st69{fill:url(#SVGID_67_);}
	.st70{fill:url(#SVGID_68_);}
	.st71{fill:url(#SVGID_69_);}
	.st72{fill:url(#SVGID_70_);}
	.st73{fill:url(#SVGID_71_);}
	.st74{fill:url(#SVGID_72_);}
	.st75{fill:url(#SVGID_73_);}
	.st76{fill:url(#SVGID_74_);}
	.st77{fill:url(#SVGID_75_);}
	.st78{fill:url(#SVGID_76_);}
	.st79{fill:url(#SVGID_77_);}
	.st80{fill:url(#SVGID_78_);}
	.st81{fill:url(#SVGID_79_);}
	.st82{fill:url(#SVGID_80_);}
	.st83{fill:url(#SVGID_81_);}
	.st84{fill:url(#SVGID_82_);}
	.st85{fill:url(#SVGID_83_);}
	.st86{fill:url(#SVGID_84_);}
	.st87{fill:url(#SVGID_85_);}
	.st88{fill:url(#SVGID_86_);}
	.st89{fill:url(#SVGID_87_);}
	.st90{fill:url(#SVGID_88_);}
	.st91{fill:url(#SVGID_89_);}
	.st92{fill:url(#SVGID_90_);}
	.st93{fill:url(#SVGID_91_);}
	.st94{fill:url(#SVGID_92_);}
	.st95{fill:url(#SVGID_93_);}
	.st96{fill:url(#SVGID_94_);}
	.st97{fill:url(#SVGID_95_);}
	.st98{fill:url(#SVGID_96_);}
	.st99{fill:url(#SVGID_97_);}
	.st100{fill:url(#SVGID_98_);}
	.st101{fill:url(#SVGID_99_);}
	.st102{fill:url(#SVGID_100_);}
	.st103{fill:url(#SVGID_101_);}
	.st104{fill:url(#SVGID_102_);}
	.st105{fill:url(#SVGID_103_);}
	.st106{fill:url(#SVGID_104_);}
	.st107{fill:url(#SVGID_105_);}
	.st108{fill:url(#SVGID_106_);}
	.st109{fill:url(#SVGID_107_);}
	.st110{fill:url(#SVGID_108_);}
	.st111{fill:url(#SVGID_109_);}
	.st112{fill:url(#SVGID_110_);}
	.st113{fill:url(#SVGID_111_);}
	.st114{fill:url(#SVGID_112_);}
	.st115{fill:url(#SVGID_113_);}
	.st116{fill:url(#SVGID_114_);}
	.st117{fill:url(#SVGID_115_);}
	.st118{fill:url(#SVGID_116_);}
	.st119{fill:url(#SVGID_117_);}
	.st120{fill:url(#SVGID_118_);}
	.st121{fill:url(#SVGID_119_);}
	.st122{fill:url(#SVGID_120_);}
	.st123{fill:url(#SVGID_121_);}
	.st124{fill:url(#SVGID_122_);}
	.st125{fill:url(#SVGID_123_);}
	.st126{fill:url(#SVGID_124_);}
	.st127{fill:url(#SVGID_125_);}
	.st128{fill:url(#SVGID_126_);}
	.st129{fill:url(#SVGID_127_);}
	.st130{fill:url(#SVGID_128_);}
	.st131{fill:url(#SVGID_129_);}
	.st132{fill:url(#SVGID_130_);}
	.st133{fill:url(#SVGID_131_);}
	.st134{fill:url(#SVGID_132_);}
	.st135{fill:url(#SVGID_133_);}
	.st136{fill:url(#SVGID_134_);}
	.st137{fill:url(#SVGID_135_);}
	.st138{fill:url(#SVGID_136_);}
	.st139{fill:url(#SVGID_137_);}
	.st140{fill:url(#SVGID_138_);}
	.st141{fill:url(#SVGID_139_);}
	.st142{fill:url(#SVGID_140_);}
	.st143{fill:url(#SVGID_141_);}
	.st144{fill:url(#SVGID_142_);}
	.st145{fill:url(#SVGID_143_);}
	.st146{fill:url(#SVGID_144_);}
	.st147{fill:url(#SVGID_145_);}
	.st148{fill:url(#SVGID_146_);}
	.st149{fill:url(#SVGID_147_);}
	.st150{fill:url(#SVGID_148_);}
	.st151{fill:url(#SVGID_149_);}
	.st152{fill:url(#SVGID_150_);}
	.st153{fill:url(#SVGID_151_);}
	.st154{fill:url(#SVGID_152_);}
	.st155{fill:url(#SVGID_153_);}
	.st156{fill:url(#SVGID_154_);}
	.st157{fill:url(#SVGID_155_);}
	.st158{fill:url(#SVGID_156_);}
	.st159{fill:url(#SVGID_157_);}
	.st160{fill:url(#SVGID_158_);}
	.st161{fill:url(#SVGID_159_);}
	.st162{fill:url(#SVGID_160_);}
	.st163{fill:url(#SVGID_161_);}
	.st164{fill:url(#SVGID_162_);}
	.st165{fill:url(#SVGID_163_);}
	.st166{fill:url(#SVGID_164_);}
	.st167{fill:url(#SVGID_165_);}
	.st168{fill:url(#SVGID_166_);}
	.st169{fill:url(#SVGID_167_);}
	.st170{fill:url(#SVGID_168_);}
	.st171{fill:url(#SVGID_169_);}
	.st172{fill:url(#SVGID_170_);}
	.st173{fill:url(#SVGID_171_);}
	.st174{fill:url(#SVGID_172_);}
	.st175{fill:url(#SVGID_173_);}
	.st176{fill:url(#SVGID_174_);}
	.st177{fill:url(#SVGID_175_);}
	.st178{fill:url(#SVGID_176_);}
	.st179{fill:url(#SVGID_177_);}
	.st180{fill:url(#SVGID_178_);}
	.st181{fill:url(#SVGID_179_);}
	.st182{fill:url(#SVGID_180_);}
	.st183{fill:url(#SVGID_181_);}
	.st184{fill:url(#SVGID_182_);}
	.st185{fill:url(#SVGID_183_);}
	.st186{fill:url(#SVGID_184_);}
	.st187{fill:url(#SVGID_185_);}
	.st188{fill:url(#SVGID_186_);}
	.st189{fill:url(#SVGID_187_);}
	.st190{fill:url(#SVGID_188_);}
	.st191{fill:url(#SVGID_189_);}
</style>
<g>
	<path class="st0" d="M21.62,3.03h-7.62c-0.21,0-0.38,0.17-0.38,0.38v5.43c0,0.21,0.17,0.38,0.38,0.38h3.05v0.67h-0.67
		c-0.11,0-0.19,0.08-0.19,0.19v0.36c0,0.11,0.08,0.19,0.19,0.19h2.84c0.11,0,0.19-0.08,0.19-0.19l0-0.36c0-0.11-0.08-0.19-0.19-0.19
		h-0.67V9.22h3.05c0.21,0,0.38-0.17,0.38-0.38l0-5.43C21.99,3.2,21.83,3.03,21.62,3.03L21.62,3.03z M17.8,8.82
		c-0.15,0-0.25-0.13-0.25-0.25c0-0.15,0.13-0.25,0.25-0.25c0.15,0,0.25,0.13,0.25,0.25C18.08,8.69,17.95,8.82,17.8,8.82z
		 M21.32,7.89h-7.01V3.7h7.01V7.89z"/>
	<path class="st0" d="M16.31,7.01c0.04,0.04,0.13,0.04,0.17,0l0.29-0.29c0.04-0.04,0.04-0.13,0-0.17l-0.74-0.74l0.74-0.74
		c0.04-0.04,0.04-0.13,0-0.17l-0.29-0.29c-0.04-0.04-0.13-0.04-0.17,0l-1.12,1.12c-0.04,0.04-0.04,0.13,0,0.17L16.31,7.01z"/>
	<path class="st0" d="M18.84,6.71l0.29,0.29c0.04,0.04,0.13,0.04,0.17,0l1.12-1.12c0.04-0.04,0.04-0.13,0-0.17L19.3,4.61
		c-0.04-0.04-0.13-0.04-0.17,0L18.84,4.9c-0.04,0.04-0.04,0.13,0,0.17l0.74,0.74l-0.74,0.74C18.79,6.59,18.79,6.67,18.84,6.71
		L18.84,6.71z"/>
	<linearGradient id="SVGID_1_" gradientUnits="userSpaceOnUse" x1="15.161" y1="5.8092" x2="16.8036" y2="5.8092">
		<stop  offset="0" style="stop-color:#10BEF0"/>
		<stop  offset="1" style="stop-color:#10BEF0;stop-opacity:0"/>
	</linearGradient>
	<path class="st2" d="M16.31,7.01c0.04,0.04,0.13,0.04,0.17,0l0.29-0.29c0.04-0.04,0.04-0.13,0-0.17l-0.74-0.74l0.74-0.74
		c0.04-0.04,0.04-0.13,0-0.17l-0.29-0.29c-0.04-0.04-0.13-0.04-0.17,0l-1.12,1.12c-0.04,0.04-0.04,0.13,0,0.17L16.31,7.01z"/>
	<linearGradient id="SVGID_2_" gradientUnits="userSpaceOnUse" x1="18.804" y1="5.8093" x2="20.4465" y2="5.8093">
		<stop  offset="0" style="stop-color:#10BEF0"/>
		<stop  offset="1" style="stop-color:#10BEF0;stop-opacity:0"/>
	</linearGradient>
	<path class="st3" d="M18.84,6.71l0.29,0.29c0.04,0.04,0.13,0.04,0.17,0l1.12-1.12c0.04-0.04,0.04-0.13,0-0.17L19.3,4.61
		c-0.04-0.04-0.13-0.04-0.17,0L18.84,4.9c-0.04,0.04-0.04,0.13,0,0.17l0.74,0.74l-0.74,0.74C18.79,6.59,18.79,6.67,18.84,6.71
		L18.84,6.71z"/>
	<path class="st0" d="M17.19,7.18h0.36c0.04,0,0.08-0.02,0.11-0.08l0.86-2.51c0.02-0.08-0.02-0.15-0.11-0.15h-0.36
		c-0.04,0-0.08,0.04-0.11,0.08l-0.86,2.51C17.07,7.09,17.13,7.18,17.19,7.18L17.19,7.18z"/>
	<path class="st0" d="M11.95,14.25c-0.06-0.48-0.46-0.86-0.97-0.86H8.5L8.24,9.98c0.69,0.42,1.47,0.65,2.3,0.65h1.68
		c0.44,0,0.8-0.36,0.8-0.8c0-0.44-0.36-0.8-0.8-0.8h-1.68c-0.57,0-1.1-0.17-1.58-0.46l-1.6-1.05C7.06,7.3,6.69,7.18,6.31,7.18H6.01
		c-0.57,0-1.1,0.25-1.47,0.67C4.18,8.27,4.01,8.84,4.1,9.41l0.8,5.1c0.06,0.46,0.48,0.82,0.95,0.82h4.27l0.57,5.31
		c0.06,0.51,0.46,0.86,0.97,0.86h0.11c0.53-0.06,0.91-0.53,0.86-1.07L11.95,14.25z"/>
	<path class="st0" d="M8.83,16.13H5.57c-0.74,0-1.35-0.53-1.45-1.24L3.27,9.45C3.21,9.09,2.9,8.86,2.54,8.9
		C2.18,8.97,1.95,9.28,1.99,9.64l0.84,5.43c0.21,1.35,1.37,2.34,2.74,2.34l3.26,0c0.36,0,0.65-0.29,0.65-0.65
		C9.49,16.4,9.19,16.13,8.83,16.13L8.83,16.13z"/>
	<linearGradient id="SVGID_3_" gradientUnits="userSpaceOnUse" x1="1.9848" y1="13.1559" x2="9.4861" y2="13.1559">
		<stop  offset="0" style="stop-color:#10BEF0"/>
		<stop  offset="1" style="stop-color:#10BEF0;stop-opacity:0"/>
	</linearGradient>
	<path class="st4" d="M8.83,16.13H5.57c-0.74,0-1.35-0.53-1.45-1.24L3.27,9.45C3.21,9.09,2.9,8.86,2.54,8.9
		C2.18,8.97,1.95,9.28,1.99,9.64l0.84,5.43c0.21,1.35,1.37,2.34,2.74,2.34l3.26,0c0.36,0,0.65-0.29,0.65-0.65
		C9.49,16.4,9.19,16.13,8.83,16.13L8.83,16.13z"/>
	<path class="st0" d="M21.34,11.37H10.5c-0.36,0-0.65,0.29-0.65,0.65c0,0.36,0.29,0.65,0.65,0.65h5.6v7.66h-1.31
		c-0.36,0-0.65,0.29-0.65,0.65c0,0.36,0.29,0.65,0.65,0.65h6.57c0.36,0,0.65-0.29,0.65-0.65v-8.97
		C21.99,11.66,21.7,11.37,21.34,11.37L21.34,11.37z"/>
	<linearGradient id="SVGID_4_" gradientUnits="userSpaceOnUse" x1="9.8442" y1="16.5063" x2="22.0152" y2="16.5063">
		<stop  offset="0" style="stop-color:#10BEF0"/>
		<stop  offset="1" style="stop-color:#10BEF0;stop-opacity:0"/>
	</linearGradient>
	<path class="st5" d="M21.34,11.37H10.5c-0.36,0-0.65,0.29-0.65,0.65c0,0.36,0.29,0.65,0.65,0.65h5.6v7.66h-1.31
		c-0.36,0-0.65,0.29-0.65,0.65c0,0.36,0.29,0.65,0.65,0.65h6.57c0.36,0,0.65-0.29,0.65-0.65v-8.97
		C21.99,11.66,21.7,11.37,21.34,11.37L21.34,11.37z"/>
	<path class="st0" d="M8.26,4.46c0,1.16-0.94,2.11-2.11,2.11C5,6.57,4.05,5.62,4.05,4.46C4.05,3.3,5,2.36,6.16,2.36
		C7.32,2.36,8.26,3.3,8.26,4.46"/>
	<linearGradient id="SVGID_5_" gradientUnits="userSpaceOnUse" x1="4.0534" y1="4.4615" x2="8.2648" y2="4.4615">
		<stop  offset="0" style="stop-color:#10BEF0"/>
		<stop  offset="1" style="stop-color:#10BEF0;stop-opacity:0"/>
	</linearGradient>
	<path class="st6" d="M8.26,4.46c0,1.16-0.94,2.11-2.11,2.11C5,6.57,4.05,5.62,4.05,4.46C4.05,3.3,5,2.36,6.16,2.36
		C7.32,2.36,8.26,3.3,8.26,4.46"/>
</g>
</svg>
