<svg id="Layer_1" data-name="Layer 1" xmlns="http://www.w3.org/2000/svg" xmlns:xlink="http://www.w3.org/1999/xlink" viewBox="0 0 24 24"><defs><style>.cls-1{fill:#002680;}.cls-2{fill:url(#linear-gradient);}.cls-3{fill:url(#linear-gradient-2);}.cls-4{fill:url(#linear-gradient-3);}.cls-5{fill:url(#linear-gradient-4);}.cls-6{fill:url(#linear-gradient-5);}.cls-7{fill:url(#linear-gradient-6);}.cls-8{fill:url(#linear-gradient-7);}.cls-9{fill:url(#linear-gradient-8);}.cls-10{fill:url(#linear-gradient-9);}.cls-11{fill:url(#linear-gradient-10);}.cls-12{fill:url(#linear-gradient-11);}.cls-13{fill:url(#linear-gradient-12);}.cls-14{fill:url(#linear-gradient-13);}.cls-15{fill:url(#linear-gradient-14);}</style><linearGradient id="linear-gradient" x1="14.42" y1="3.02" x2="15.19" y2="3.02" gradientUnits="userSpaceOnUse"><stop offset="0" stop-color="#10bef0"/><stop offset="0.27" stop-color="#10bef0" stop-opacity="0.67"/><stop offset="0.53" stop-color="#10bef0" stop-opacity="0.39"/><stop offset="0.75" stop-color="#10bef0" stop-opacity="0.18"/><stop offset="0.91" stop-color="#10bef0" stop-opacity="0.05"/><stop offset="1" stop-color="#10bef0" stop-opacity="0"/></linearGradient><linearGradient id="linear-gradient-2" x1="14.19" y1="2.21" x2="14.81" y2="2.21" xlink:href="#linear-gradient"/><linearGradient id="linear-gradient-3" x1="14.17" y1="3.84" x2="14.81" y2="3.84" xlink:href="#linear-gradient"/><linearGradient id="linear-gradient-4" x1="9.05" y1="3.59" x2="14.07" y2="3.59" xlink:href="#linear-gradient"/><linearGradient id="linear-gradient-5" x1="16.65" y1="19.18" x2="21.63" y2="19.18" xlink:href="#linear-gradient"/><linearGradient id="linear-gradient-6" x1="2.66" y1="19.53" x2="3.54" y2="19.53" xlink:href="#linear-gradient"/><linearGradient id="linear-gradient-7" x1="3.98" y1="18.78" x2="7.37" y2="18.78" xlink:href="#linear-gradient"/><linearGradient id="linear-gradient-8" x1="12.86" y1="10.02" x2="13.61" y2="10.02" xlink:href="#linear-gradient"/><linearGradient id="linear-gradient-9" x1="14.03" y1="10.02" x2="14.78" y2="10.02" xlink:href="#linear-gradient"/><linearGradient id="linear-gradient-10" x1="15.28" y1="10.02" x2="16.03" y2="10.02" xlink:href="#linear-gradient"/><linearGradient id="linear-gradient-11" x1="9.64" y1="13.2" x2="11.47" y2="13.2" xlink:href="#linear-gradient"/><linearGradient id="linear-gradient-12" x1="9.64" y1="15.07" x2="14.53" y2="15.07" xlink:href="#linear-gradient"/><linearGradient id="linear-gradient-13" x1="12.09" y1="12.62" x2="14.53" y2="12.62" xlink:href="#linear-gradient"/><linearGradient id="linear-gradient-14" x1="12.09" y1="13.81" x2="14.53" y2="13.81" xlink:href="#linear-gradient"/></defs><path class="cls-1" d="M15.08,3.13h-.55A.11.11,0,0,1,14.42,3a.1.1,0,0,1,.11-.11h.55a.1.1,0,0,1,.11.11A.12.12,0,0,1,15.08,3.13Z"/><path class="cls-1" d="M14.31,2.53l-.09,0a.15.15,0,0,1,0-.18l.4-.39s.11,0,.16,0a.14.14,0,0,1,0,.17l-.4.4S14.36,2.53,14.31,2.53Z"/><path class="cls-1" d="M14.69,4.16a.18.18,0,0,1-.09,0l-.4-.4a.14.14,0,0,1,0-.17.13.13,0,0,1,.18,0l.4.39a.15.15,0,0,1,0,.18s0,0-.09,0Z"/><path class="cls-1" d="M13.7,2.56V1.41a.12.12,0,0,0-.09-.11.11.11,0,0,0-.13,0,3,3,0,0,1-2.21.88H9.89a.51.51,0,0,0-.42.22H9.2a.15.15,0,0,0-.15.16v.88a.14.14,0,0,0,.15.15h.24a.66.66,0,0,0,.29.2l.73,1.92a.2.2,0,0,0,.17.13h.71a.22.22,0,0,0,.18-.11.2.2,0,0,0,0-.2l-.37-.42-.49-1.27h.64a3,3,0,0,1,2.21.88.15.15,0,0,0,.08,0h0s.09-.06.09-.11V3.55a.49.49,0,0,0,.37-.49.49.49,0,0,0-.37-.5Z"/><path class="cls-2" d="M15.08,3.13h-.55A.11.11,0,0,1,14.42,3a.1.1,0,0,1,.11-.11h.55a.1.1,0,0,1,.11.11A.12.12,0,0,1,15.08,3.13Z"/><path class="cls-3" d="M14.31,2.53l-.09,0a.15.15,0,0,1,0-.18l.4-.39s.11,0,.16,0a.14.14,0,0,1,0,.17l-.4.4S14.36,2.53,14.31,2.53Z"/><path class="cls-4" d="M14.69,4.16a.18.18,0,0,1-.09,0l-.4-.4a.14.14,0,0,1,0-.17.13.13,0,0,1,.18,0l.4.39a.15.15,0,0,1,0,.18s0,0-.09,0Z"/><path class="cls-5" d="M13.7,2.56V1.41a.12.12,0,0,0-.09-.11.11.11,0,0,0-.13,0,3,3,0,0,1-2.21.88H9.89a.51.51,0,0,0-.42.22H9.2a.15.15,0,0,0-.15.16v.88a.14.14,0,0,0,.15.15h.24a.66.66,0,0,0,.29.2l.73,1.92a.2.2,0,0,0,.17.13h.71a.22.22,0,0,0,.18-.11.2.2,0,0,0,0-.2l-.37-.42-.49-1.27h.64a3,3,0,0,1,2.21.88.15.15,0,0,0,.08,0h0s.09-.06.09-.11V3.55a.49.49,0,0,0,.37-.49.49.49,0,0,0-.37-.5Z"/><path class="cls-1" d="M3.45,15.84a9.45,9.45,0,0,1-.57-3.15A9.12,9.12,0,0,1,8.19,4.41v-1A10,10,0,0,0,2,12.67a9.56,9.56,0,0,0,.77,3.83Z"/><path class="cls-1" d="M21.1,12.67a9.39,9.39,0,0,1-.47,2.88l.71.71A9.86,9.86,0,0,0,22,12.67a10,10,0,0,0-6.34-9.32v1a9.15,9.15,0,0,1,5.44,8.35Z"/><path class="cls-1" d="M15.57,21.08a9.17,9.17,0,0,1-6.9.11L8,21.87a10.08,10.08,0,0,0,4,.84,9.65,9.65,0,0,0,4.23-.95Z"/><path class="cls-1" d="M21.54,18.24a2.48,2.48,0,0,0-4.8,1.28A2.43,2.43,0,0,0,17.79,21l-.66,1,2.62-.68a2.47,2.47,0,0,0,1.79-3ZM19.31,19.8H18v-.39h1.32ZM20.44,19H18v-.4h2.47V19Zm0-.75H18v-.4h2.47v.4Z"/><path class="cls-6" d="M21.54,18.24a2.48,2.48,0,0,0-4.8,1.28A2.43,2.43,0,0,0,17.79,21l-.66,1,2.62-.68a2.47,2.47,0,0,0,1.79-3ZM19.31,19.8H18v-.39h1.32ZM20.44,19H18v-.4h2.47V19Zm0-.75H18v-.4h2.47v.4Z"/><path class="cls-1" d="M2.66,18.33h.88v2.4H2.66Z"/><path class="cls-1" d="M4,18.3l1.3-1.47.55.11-.39,1.25H7.37l-.52,2.54H4"/><path class="cls-7" d="M2.66,18.33h.88v2.4H2.66Z"/><path class="cls-8" d="M4,18.3l1.3-1.47.55.11-.39,1.25H7.37l-.52,2.54H4"/><path class="cls-1" d="M16,8.72H8.17A1.65,1.65,0,0,0,6.6,10.44V15.2a1.65,1.65,0,0,0,1.57,1.72H16a1.65,1.65,0,0,0,1.56-1.72V10.44A1.65,1.65,0,0,0,16,8.72Zm-7.84.62H16a1,1,0,0,1,.95,1.1v.29H7.22v-.29a1,1,0,0,1,1-1.1Zm7.84,7H8.17a1,1,0,0,1-1-1.1V11.34H17v3.88a1,1,0,0,1-.95,1.1Z"/><path class="cls-1" d="M13.61,10a.38.38,0,1,1-.75,0,.38.38,0,0,1,.75,0"/><path class="cls-1" d="M14.78,10a.38.38,0,0,1-.38.38.38.38,0,0,1,0-.75.38.38,0,0,1,.38.37"/><path class="cls-1" d="M16,10a.38.38,0,1,1-.37-.37A.38.38,0,0,1,16,10"/><path class="cls-1" d="M9.64,12.29h1.83v1.83H9.64Z"/><path class="cls-1" d="M9.64,14.76h4.89v.61H9.64Z"/><path class="cls-1" d="M12.09,12.29h2.44V13H12.09Z"/><path class="cls-1" d="M12.09,13.48h2.44v.66H12.09Z"/><path class="cls-9" d="M13.61,10a.38.38,0,1,1-.75,0,.38.38,0,0,1,.75,0"/><path class="cls-10" d="M14.78,10a.38.38,0,0,1-.38.38.38.38,0,0,1,0-.75.38.38,0,0,1,.38.37"/><path class="cls-11" d="M16,10a.38.38,0,1,1-.37-.37A.38.38,0,0,1,16,10"/><path class="cls-12" d="M9.64,12.29h1.83v1.83H9.64Z"/><path class="cls-13" d="M9.64,14.76h4.89v.61H9.64Z"/><path class="cls-14" d="M12.09,12.29h2.44V13H12.09Z"/><path class="cls-15" d="M12.09,13.48h2.44v.66H12.09Z"/></svg>