<svg id="Layer_1" data-name="Layer 1" xmlns="http://www.w3.org/2000/svg" xmlns:xlink="http://www.w3.org/1999/xlink" viewBox="0 0 24 24"><defs><style>.cls-1{fill:#002680;}.cls-2{fill:url(#linear-gradient);}.cls-3{fill:url(#linear-gradient-2);}.cls-4{fill:url(#linear-gradient-3);}.cls-5{fill:#fff;}.cls-6{fill:url(#linear-gradient-4);}</style><linearGradient id="linear-gradient" x1="15.03" y1="14.54" x2="15.06" y2="18.24" gradientUnits="userSpaceOnUse"><stop offset="0" stop-color="#10bef0"/><stop offset="0.27" stop-color="#10bef0" stop-opacity="0.67"/><stop offset="0.53" stop-color="#10bef0" stop-opacity="0.39"/><stop offset="0.75" stop-color="#10bef0" stop-opacity="0.18"/><stop offset="0.91" stop-color="#10bef0" stop-opacity="0.05"/><stop offset="1" stop-color="#10bef0" stop-opacity="0"/></linearGradient><linearGradient id="linear-gradient-2" x1="19.04" y1="14.53" x2="19.06" y2="18.23" xlink:href="#linear-gradient"/><linearGradient id="linear-gradient-3" x1="12.11" y1="3.36" x2="13.1" y2="3.36" xlink:href="#linear-gradient"/><linearGradient id="linear-gradient-4" x1="9.53" y1="19.99" x2="11.98" y2="19.99" xlink:href="#linear-gradient"/></defs><path class="cls-1" d="M16,14.62a.32.32,0,0,0-.45,0l-1.44,1.52a.31.31,0,0,0,0,.44l1.44,1.53a.3.3,0,0,0,.23.1.35.35,0,0,0,.22-.08.33.33,0,0,0,0-.46l-1.24-1.31L16,15.08a.33.33,0,0,0,0-.46Zm4,1.54-1.44-1.52a.32.32,0,1,0-.47.43l1.24,1.31L18.1,17.69a.34.34,0,0,0,0,.46.37.37,0,0,0,.22.08.33.33,0,0,0,.24-.1L20,16.6a.31.31,0,0,0,0-.44Zm-2.52-1.6a.33.33,0,0,0-.39.24l-.73,3a.31.31,0,0,0,.24.38h.07A.31.31,0,0,0,17,18l.73-3a.32.32,0,0,0-.23-.39Zm-.44-2.64a4.17,4.17,0,0,0-.71.06V8a.53.53,0,0,0,.53-.53V6.07a.53.53,0,0,0-.53-.53V3.24a1.6,1.6,0,0,0-1.6-1.6H6.25a1.59,1.59,0,0,0-1.6,1.6V20.76a1.59,1.59,0,0,0,1.6,1.6h8.49a1.59,1.59,0,0,0,1.59-1.57,4.28,4.28,0,0,0,.72.06,4.47,4.47,0,0,0,0-8.93ZM15.7,20.76a1,1,0,0,1-1,1H6.25a1,1,0,0,1-1-1V5.14H14a.32.32,0,0,0,0-.64H5.29V3.24a1,1,0,0,1,1-1h8.49a1,1,0,0,1,1,1v8.89a4.46,4.46,0,0,0,0,8.51Zm1.35-.55a3.83,3.83,0,1,1,3.82-3.83,3.84,3.84,0,0,1-3.82,3.83Zm-6.29-1.44A1.23,1.23,0,1,0,12,20a1.23,1.23,0,0,0-1.22-1.22ZM12.6,2.87a.5.5,0,0,0,0,1,.5.5,0,1,0,0-1Z"/><path class="cls-2" d="M16,14.62a.32.32,0,0,0-.45,0l-1.44,1.52a.31.31,0,0,0,0,.44l1.44,1.53a.3.3,0,0,0,.23.1.35.35,0,0,0,.22-.08.32.32,0,0,0,0-.46l-1.23-1.31L16,15.07a.31.31,0,0,0,0-.45Z"/><path class="cls-3" d="M20,16.16l-1.44-1.52a.32.32,0,1,0-.47.43l1.24,1.31L18.1,17.69a.33.33,0,0,0,0,.46.37.37,0,0,0,.22.08.33.33,0,0,0,.24-.1L20,16.6a.31.31,0,0,0,0-.44Z"/><circle class="cls-4" cx="12.6" cy="3.36" r="0.49"/><path class="cls-5" d="M12.6,3.51a.14.14,0,0,1-.14-.15.14.14,0,0,1,.14-.14.15.15,0,0,1,.15.14A.15.15,0,0,1,12.6,3.51Z"/><path class="cls-6" d="M10.76,18.77A1.23,1.23,0,1,0,12,20a1.23,1.23,0,0,0-1.22-1.22Z"/><circle class="cls-5" cx="10.76" cy="19.99" r="0.59"/></svg>