<svg id="Layer_1" data-name="Layer 1" xmlns="http://www.w3.org/2000/svg" xmlns:xlink="http://www.w3.org/1999/xlink" viewBox="0 0 24 24"><defs><style>.cls-1{fill:#002680;}.cls-2{fill:url(#linear-gradient);}.cls-3{fill:url(#linear-gradient-2);}.cls-4{fill:url(#linear-gradient-3);}.cls-5{fill:url(#linear-gradient-4);}.cls-6{fill:url(#linear-gradient-5);}.cls-7{fill:url(#linear-gradient-6);}</style><linearGradient id="linear-gradient" x1="8.24" y1="10.49" x2="10.87" y2="10.49" gradientUnits="userSpaceOnUse"><stop offset="0" stop-color="#10bef0"/><stop offset="0.27" stop-color="#10bef0" stop-opacity="0.67"/><stop offset="0.53" stop-color="#10bef0" stop-opacity="0.39"/><stop offset="0.75" stop-color="#10bef0" stop-opacity="0.18"/><stop offset="0.91" stop-color="#10bef0" stop-opacity="0.05"/><stop offset="1" stop-color="#10bef0" stop-opacity="0"/></linearGradient><linearGradient id="linear-gradient-2" x1="14.63" y1="10.5" x2="17.27" y2="10.5" xlink:href="#linear-gradient"/><linearGradient id="linear-gradient-3" x1="11.25" y1="10.49" x2="14.26" y2="10.49" xlink:href="#linear-gradient"/><linearGradient id="linear-gradient-4" x1="6.73" y1="15.01" x2="11.99" y2="15.01" xlink:href="#linear-gradient"/><linearGradient id="linear-gradient-5" x1="6.74" y1="16.52" x2="10.49" y2="16.52" xlink:href="#linear-gradient"/><linearGradient id="linear-gradient-6" x1="8.24" y1="21.41" x2="11.99" y2="21.41" xlink:href="#linear-gradient"/></defs><path class="cls-1" d="M19.15,6H16.89V2.22a1.52,1.52,0,0,0-.44-1.07A1.5,1.5,0,0,0,15.39.71H4.85a1.5,1.5,0,0,0-1.06.44,1.53,1.53,0,0,0-.45,1.07V21.78a1.53,1.53,0,0,0,.45,1.07,1.5,1.5,0,0,0,1.06.44H15.39a1.5,1.5,0,0,0,1.06-.44,1.52,1.52,0,0,0,.44-1.07v-3h2.26a1.52,1.52,0,0,0,1.51-1.5V7.48a1.53,1.53,0,0,0-.45-1.06A1.5,1.5,0,0,0,19.15,6ZM12,1.46v.38a.38.38,0,0,1-.38.38h-3a.38.38,0,0,1-.37-.38V1.46Zm4.14,20.32a.79.79,0,0,1-.22.54.75.75,0,0,1-.53.22H4.85a.75.75,0,0,1-.53-.22.79.79,0,0,1-.22-.54V2.22a.79.79,0,0,1,.22-.54.75.75,0,0,1,.53-.22H7.48v.38A1.14,1.14,0,0,0,8.61,3h3a1.13,1.13,0,0,0,1.13-1.13V1.46h2.64a.75.75,0,0,1,.53.22.79.79,0,0,1,.22.54V6H6.36a1.5,1.5,0,0,0-1.51,1.5v9.79a1.5,1.5,0,0,0,.44,1.06,1.52,1.52,0,0,0,1.07.44h9.78Zm3.76-4.51a.75.75,0,0,1-.75.75H6.36a.77.77,0,0,1-.54-.22.75.75,0,0,1-.22-.53V7.48A.75.75,0,0,1,5.82,7a.77.77,0,0,1,.54-.22H19.15a.75.75,0,0,1,.75.75Z"/><path class="cls-1" d="M10.23,12.64a.37.37,0,1,0,.53-.53L9.15,10.49l1.61-1.61h0a.37.37,0,1,0-.53-.53L8.35,10.23a.38.38,0,0,0-.11.26.39.39,0,0,0,.11.27Z"/><path class="cls-1" d="M15.28,8.35a.39.39,0,0,0-.53,0,.38.38,0,0,0,0,.53l1.62,1.61-1.62,1.62h0a.39.39,0,0,0-.11.27.36.36,0,0,0,.11.26.39.39,0,0,0,.54,0l1.88-1.88a.39.39,0,0,0,.11-.27.36.36,0,0,0-.11-.26Z"/><path class="cls-1" d="M14,7.51a.41.41,0,0,0-.29,0,.39.39,0,0,0-.2.2L11.28,13a.37.37,0,0,0,.2.49.36.36,0,0,0,.49-.19L14.23,8a.37.37,0,0,0,0-.29.41.41,0,0,0-.2-.21Z"/><path class="cls-1" d="M11.62,14.63H7.11a.38.38,0,0,0,0,.76h4.51a.38.38,0,0,0,0-.76Z"/><path class="cls-1" d="M10.12,16.14h-3a.38.38,0,0,0,0,.75h3a.38.38,0,0,0,0-.75Z"/><path class="cls-2" d="M10.23,12.64a.37.37,0,1,0,.53-.53L9.15,10.49l1.61-1.61h0a.37.37,0,1,0-.53-.53L8.35,10.23a.38.38,0,0,0-.11.26.39.39,0,0,0,.11.27Z"/><path class="cls-3" d="M15.28,8.35a.39.39,0,0,0-.53,0,.38.38,0,0,0,0,.53l1.62,1.61-1.62,1.62h0a.39.39,0,0,0-.11.27.36.36,0,0,0,.11.26.39.39,0,0,0,.54,0l1.88-1.88a.39.39,0,0,0,.11-.27.36.36,0,0,0-.11-.26Z"/><path class="cls-4" d="M14,7.51a.41.41,0,0,0-.29,0,.39.39,0,0,0-.2.2L11.28,13a.37.37,0,0,0,.2.49.36.36,0,0,0,.49-.19L14.23,8a.37.37,0,0,0,0-.29.41.41,0,0,0-.2-.21Z"/><path class="cls-5" d="M11.62,14.63H7.11a.38.38,0,0,0,0,.76h4.51a.38.38,0,0,0,0-.76Z"/><path class="cls-6" d="M10.12,16.14h-3a.38.38,0,0,0,0,.75h3a.38.38,0,0,0,0-.75Z"/><path class="cls-1" d="M8.61,21.78h3a.38.38,0,0,0,0-.75h-3a.38.38,0,0,0,0,.75Z"/><path class="cls-7" d="M8.61,21.78h3a.38.38,0,0,0,0-.75h-3a.38.38,0,0,0,0,.75Z"/></svg>