<?xml version="1.0" encoding="utf-8"?>
<!-- Generator: Adobe Illustrator 25.2.1, SVG Export Plug-In . SVG Version: 6.00 Build 0)  -->
<svg version="1.1" id="Layer_1" xmlns="http://www.w3.org/2000/svg" xmlns:xlink="http://www.w3.org/1999/xlink" x="0px" y="0px"
	 viewBox="0 0 24 24" style="enable-background:new 0 0 24 24;" xml:space="preserve">
<style type="text/css">
	.st0{fill:#002680;}
	.st1{opacity:0.65;}
	.st2{fill:url(#SVGID_1_);}
	.st3{fill:url(#SVGID_2_);}
	.st4{fill:url(#SVGID_3_);}
	.st5{fill:url(#SVGID_4_);}
	.st6{fill:url(#SVGID_5_);}
	.st7{fill:url(#SVGID_6_);}
	.st8{fill:url(#SVGID_7_);}
	.st9{fill:url(#SVGID_8_);}
	.st10{fill:url(#SVGID_9_);}
	.st11{fill:url(#SVGID_10_);}
	.st12{fill:url(#SVGID_11_);}
	.st13{fill:url(#SVGID_12_);}
	.st14{fill:url(#SVGID_13_);}
	.st15{fill:url(#SVGID_14_);}
	.st16{fill:url(#SVGID_15_);}
	.st17{fill:url(#SVGID_16_);}
	.st18{fill:url(#SVGID_17_);}
	.st19{fill:url(#SVGID_18_);}
	.st20{fill:url(#SVGID_19_);}
	.st21{fill:url(#SVGID_20_);}
	.st22{fill:url(#SVGID_21_);}
	.st23{fill:url(#SVGID_22_);}
	.st24{fill:url(#SVGID_23_);}
	.st25{fill:url(#SVGID_24_);}
	.st26{fill:url(#SVGID_25_);}
	.st27{fill:url(#SVGID_26_);}
	.st28{fill:url(#SVGID_27_);}
	.st29{fill:#FFFFFF;}
	.st30{fill:url(#SVGID_28_);}
	.st31{fill:url(#SVGID_29_);}
	.st32{fill:url(#SVGID_30_);}
	.st33{fill:url(#SVGID_31_);}
	.st34{fill:url(#SVGID_32_);}
	.st35{fill:url(#SVGID_33_);}
	.st36{fill:url(#SVGID_34_);}
	.st37{fill:url(#SVGID_35_);}
	.st38{fill:url(#SVGID_36_);}
	.st39{fill:url(#SVGID_37_);}
	.st40{fill:url(#SVGID_38_);}
	.st41{fill:url(#SVGID_39_);}
	.st42{fill:url(#SVGID_40_);}
	.st43{fill:url(#SVGID_41_);}
	.st44{fill:url(#SVGID_42_);}
	.st45{fill:url(#SVGID_43_);}
	.st46{fill:url(#SVGID_44_);}
	.st47{fill:url(#SVGID_45_);}
	.st48{fill:url(#SVGID_46_);}
	.st49{fill:url(#SVGID_47_);}
	.st50{fill:url(#SVGID_48_);}
	.st51{fill:url(#SVGID_49_);}
	.st52{fill:url(#SVGID_50_);}
	.st53{fill:url(#SVGID_51_);}
	.st54{fill:url(#SVGID_52_);}
	.st55{fill:url(#SVGID_53_);}
	.st56{fill:url(#SVGID_54_);}
	.st57{fill:url(#SVGID_55_);}
	.st58{fill:url(#SVGID_56_);}
	.st59{fill:url(#SVGID_57_);}
	.st60{fill:url(#SVGID_58_);}
	.st61{fill:url(#SVGID_59_);}
	.st62{fill:url(#SVGID_60_);}
	.st63{fill:url(#SVGID_61_);}
	.st64{fill:url(#SVGID_62_);}
	.st65{fill:url(#SVGID_63_);}
	.st66{fill:url(#SVGID_64_);}
	.st67{fill:url(#SVGID_65_);}
	.st68{fill:url(#SVGID_66_);}
	.st69{fill:url(#SVGID_67_);}
	.st70{fill:url(#SVGID_68_);}
	.st71{fill:url(#SVGID_69_);}
	.st72{fill:url(#SVGID_70_);}
	.st73{fill:url(#SVGID_71_);}
	.st74{fill:url(#SVGID_72_);}
	.st75{fill:url(#SVGID_73_);}
	.st76{fill:url(#SVGID_74_);}
	.st77{fill:url(#SVGID_75_);}
	.st78{fill:url(#SVGID_76_);}
	.st79{fill:url(#SVGID_77_);}
	.st80{fill:url(#SVGID_78_);}
	.st81{fill:url(#SVGID_79_);}
	.st82{fill:url(#SVGID_80_);}
	.st83{fill:url(#SVGID_81_);}
	.st84{fill:url(#SVGID_82_);}
	.st85{fill:url(#SVGID_83_);}
	.st86{fill:url(#SVGID_84_);}
	.st87{fill:url(#SVGID_85_);}
	.st88{fill:url(#SVGID_86_);}
	.st89{fill:url(#SVGID_87_);}
	.st90{fill:url(#SVGID_88_);}
	.st91{fill:url(#SVGID_89_);}
	.st92{fill:url(#SVGID_90_);}
	.st93{fill:url(#SVGID_91_);}
	.st94{fill:url(#SVGID_92_);}
	.st95{fill:url(#SVGID_93_);}
	.st96{fill:url(#SVGID_94_);}
	.st97{fill:url(#SVGID_95_);}
	.st98{fill:url(#SVGID_96_);}
	.st99{fill:url(#SVGID_97_);}
	.st100{fill:url(#SVGID_98_);}
	.st101{fill:url(#SVGID_99_);}
	.st102{fill:url(#SVGID_100_);}
	.st103{fill:url(#SVGID_101_);}
	.st104{fill:url(#SVGID_102_);}
	.st105{fill:url(#SVGID_103_);}
	.st106{fill:url(#SVGID_104_);}
	.st107{fill:url(#SVGID_105_);}
	.st108{fill:url(#SVGID_106_);}
	.st109{fill:url(#SVGID_107_);}
	.st110{fill:url(#SVGID_108_);}
	.st111{fill:url(#SVGID_109_);}
	.st112{fill:url(#SVGID_110_);}
	.st113{fill:url(#SVGID_111_);}
	.st114{fill:url(#SVGID_112_);}
	.st115{fill:url(#SVGID_113_);}
	.st116{fill:url(#SVGID_114_);}
	.st117{fill:url(#SVGID_115_);}
	.st118{fill:url(#SVGID_116_);}
	.st119{fill:url(#SVGID_117_);}
	.st120{fill:url(#SVGID_118_);}
	.st121{fill:url(#SVGID_119_);}
	.st122{fill:url(#SVGID_120_);}
	.st123{fill:url(#SVGID_121_);}
	.st124{fill:url(#SVGID_122_);}
	.st125{fill:url(#SVGID_123_);}
	.st126{fill:url(#SVGID_124_);}
	.st127{fill:url(#SVGID_125_);}
	.st128{fill:url(#SVGID_126_);}
	.st129{fill:url(#SVGID_127_);}
	.st130{fill:url(#SVGID_128_);}
	.st131{fill:url(#SVGID_129_);}
	.st132{fill:url(#SVGID_130_);}
	.st133{fill:url(#SVGID_131_);}
	.st134{fill:url(#SVGID_132_);}
	.st135{fill:url(#SVGID_133_);}
	.st136{fill:url(#SVGID_134_);}
	.st137{fill:url(#SVGID_135_);}
	.st138{fill:url(#SVGID_136_);}
	.st139{fill:url(#SVGID_137_);}
	.st140{fill:url(#SVGID_138_);}
	.st141{fill:url(#SVGID_139_);}
	.st142{fill:url(#SVGID_140_);}
	.st143{fill:url(#SVGID_141_);}
	.st144{fill:url(#SVGID_142_);}
	.st145{fill:url(#SVGID_143_);}
	.st146{fill:url(#SVGID_144_);}
	.st147{fill:url(#SVGID_145_);}
	.st148{fill:url(#SVGID_146_);}
	.st149{fill:url(#SVGID_147_);}
	.st150{fill:url(#SVGID_148_);}
	.st151{fill:url(#SVGID_149_);}
	.st152{fill:url(#SVGID_150_);}
	.st153{fill:url(#SVGID_151_);}
	.st154{fill:url(#SVGID_152_);}
	.st155{fill:url(#SVGID_153_);}
	.st156{fill:url(#SVGID_154_);}
	.st157{fill:url(#SVGID_155_);}
	.st158{fill:url(#SVGID_156_);}
	.st159{fill:url(#SVGID_157_);}
	.st160{fill:url(#SVGID_158_);}
	.st161{fill:url(#SVGID_159_);}
	.st162{fill:url(#SVGID_160_);}
	.st163{fill:url(#SVGID_161_);}
	.st164{fill:url(#SVGID_162_);}
	.st165{fill:url(#SVGID_163_);}
	.st166{fill:url(#SVGID_164_);}
	.st167{fill:url(#SVGID_165_);}
	.st168{fill:url(#SVGID_166_);}
	.st169{fill:url(#SVGID_167_);}
	.st170{fill:url(#SVGID_168_);}
	.st171{fill:url(#SVGID_169_);}
	.st172{fill:url(#SVGID_170_);}
	.st173{fill:url(#SVGID_171_);}
	.st174{fill:url(#SVGID_172_);}
	.st175{fill:url(#SVGID_173_);}
	.st176{fill:url(#SVGID_174_);}
	.st177{fill:url(#SVGID_175_);}
	.st178{fill:url(#SVGID_176_);}
	.st179{fill:url(#SVGID_177_);}
	.st180{fill:url(#SVGID_178_);}
	.st181{fill:url(#SVGID_179_);}
	.st182{fill:url(#SVGID_180_);}
	.st183{fill:url(#SVGID_181_);}
	.st184{fill:url(#SVGID_182_);}
	.st185{fill:url(#SVGID_183_);}
	.st186{fill:url(#SVGID_184_);}
	.st187{fill:url(#SVGID_185_);}
	.st188{fill:url(#SVGID_186_);}
	.st189{fill:url(#SVGID_187_);}
	.st190{fill:url(#SVGID_188_);}
	.st191{fill:url(#SVGID_189_);}
	.st192{fill:url(#SVGID_190_);}
	.st193{fill:url(#SVGID_191_);}
	.st194{fill:url(#SVGID_192_);}
	.st195{fill:url(#SVGID_193_);}
	.st196{fill:url(#SVGID_194_);}
	.st197{fill:url(#SVGID_195_);}
	.st198{fill:url(#SVGID_196_);}
	.st199{fill:url(#SVGID_197_);}
	.st200{fill:url(#SVGID_198_);}
	.st201{fill:url(#SVGID_199_);}
	.st202{fill:url(#SVGID_200_);}
	.st203{fill:url(#SVGID_201_);}
	.st204{fill:url(#SVGID_202_);}
	.st205{fill:url(#SVGID_203_);}
	.st206{fill:url(#SVGID_204_);}
	.st207{fill:url(#SVGID_205_);}
	.st208{fill:url(#SVGID_206_);}
	.st209{fill:url(#SVGID_207_);}
	.st210{fill:url(#SVGID_208_);}
	.st211{fill:url(#SVGID_209_);}
	.st212{fill:url(#SVGID_210_);}
	.st213{fill:url(#SVGID_211_);}
	.st214{fill:url(#SVGID_212_);}
	.st215{fill:url(#SVGID_213_);}
	.st216{fill:url(#SVGID_214_);}
	.st217{fill:url(#SVGID_215_);}
	.st218{fill:url(#SVGID_216_);}
	.st219{fill:url(#SVGID_217_);}
	.st220{fill:url(#SVGID_218_);}
	.st221{fill:url(#SVGID_219_);}
	.st222{fill:url(#SVGID_220_);}
	.st223{fill:url(#SVGID_221_);}
	.st224{fill:url(#SVGID_222_);}
	.st225{fill:url(#SVGID_223_);}
	.st226{fill:url(#SVGID_224_);}
	.st227{fill:url(#SVGID_225_);}
	.st228{fill:url(#SVGID_226_);}
	.st229{fill:url(#SVGID_227_);}
	.st230{fill:url(#SVGID_228_);}
	.st231{fill:url(#SVGID_229_);}
	.st232{fill:url(#SVGID_230_);}
	.st233{fill:url(#SVGID_231_);}
	.st234{fill:url(#SVGID_232_);}
	.st235{fill:url(#SVGID_233_);}
	.st236{fill:url(#SVGID_234_);}
	.st237{fill:url(#SVGID_235_);}
	.st238{fill:url(#SVGID_236_);}
	.st239{fill:url(#SVGID_237_);}
	.st240{fill:url(#SVGID_238_);}
	.st241{fill:url(#SVGID_239_);}
	.st242{fill:url(#SVGID_240_);}
	.st243{fill:url(#SVGID_241_);}
	.st244{fill:url(#SVGID_242_);}
	.st245{fill:url(#SVGID_243_);}
	.st246{fill:url(#SVGID_244_);}
	.st247{fill:url(#SVGID_245_);}
	.st248{fill:url(#SVGID_246_);}
	.st249{fill:url(#SVGID_247_);}
</style>
<g>
	<path class="st0" d="M7.08,14.18c-0.06-0.06-0.13-0.12-0.21-0.16l-0.09-0.62c-0.04-0.3-0.19-0.57-0.42-0.77
		c-0.23-0.2-0.52-0.31-0.82-0.31H5.41c-0.14,0-0.27,0.05-0.38,0.13c-0.11,0.08-0.19,0.2-0.22,0.33c-0.07-0.01-0.14-0.02-0.22-0.03
		l0,0c-0.16-0.01-0.32,0.03-0.46,0.12c-0.14,0.09-0.24,0.22-0.3,0.37c-0.06,0.15-0.07,0.31-0.03,0.47c0.04,0.15,0.13,0.29,0.26,0.39
		l0.71,0.57v0.16c0,0.05,0.01,0.1,0.03,0.14l0.94,1.88c0.02,0.05,0.06,0.09,0.1,0.12l2.96,2.07v0c0.16,0.11,0.34,0.18,0.53,0.21
		l3.75,0.58v0c0.04,0.01,0.08,0.02,0.11,0.04l3.41,1.99c0.33,0.19,0.72,0.24,1.08,0.15c0.37-0.1,0.68-0.34,0.87-0.67l1.4-2.46v0
		c0.23-0.4,0.25-0.89,0.05-1.31c-0.2-0.42-0.59-0.72-1.05-0.79l-3.83-0.64c-0.08-0.01-0.15-0.06-0.2-0.12l-0.5-0.66
		c-0.22-0.29-0.49-0.54-0.8-0.73l-2.08-1.3l-1.74-1.45c-0.09-0.07-0.19-0.12-0.3-0.13C9.41,11.73,9.3,11.75,9.2,11.8
		c-0.35,0.17-0.59,0.5-0.65,0.88c-0.06,0.38,0.06,0.77,0.34,1.04l1.22,1.22l-0.68,0.14c-0.08-0.26-0.23-0.48-0.45-0.64
		C8.76,14.28,8.5,14.2,8.24,14.2c-0.17,0-0.33,0.07-0.44,0.18c-0.12,0.12-0.18,0.28-0.18,0.44v1.15l-0.16-0.12v-0.78
		C7.44,14.74,7.31,14.42,7.08,14.18L7.08,14.18z M4.46,13.6c-0.05-0.03-0.06-0.09-0.04-0.15c0.02-0.06,0.08-0.1,0.14-0.09
		c0.08,0,0.15,0.01,0.23,0.03v0.46L4.46,13.6z M5.41,12.94h0.13c0.15,0,0.3,0.06,0.41,0.15c0.11,0.1,0.19,0.24,0.21,0.39l0.05,0.33
		H6.19v0c-0.17,0-0.33,0.07-0.44,0.18c-0.12,0.12-0.18,0.28-0.18,0.44v0.6l-0.15-0.3L5.41,12.94z M8.24,14.83
		c0.17,0,0.33,0.07,0.44,0.18c0.12,0.12,0.18,0.28,0.18,0.44v0.94c0,0.1,0.05,0.19,0.13,0.25l1.26,0.94
		c0.05,0.04,0.12,0.06,0.19,0.06h0.31c0.17,0,0.31-0.14,0.31-0.31s-0.14-0.31-0.31-0.31h-0.21l-1.05-0.78v-0.53l0.74-0.15
		c0.15-0.03,0.28-0.11,0.38-0.23c0.09-0.12,0.14-0.27,0.13-0.42c-0.01-0.15-0.07-0.29-0.18-0.4l-1.22-1.22
		c-0.13-0.13-0.19-0.3-0.16-0.48c0.02-0.18,0.13-0.33,0.28-0.42l1.73,1.44c0.01,0.01,0.02,0.02,0.03,0.03l2.09,1.31
		c0.24,0.15,0.46,0.35,0.63,0.58l0.5,0.66c0.14,0.19,0.36,0.32,0.6,0.36l3.83,0.64l0,0c0.26,0.04,0.47,0.21,0.59,0.44
		c0.11,0.23,0.1,0.51-0.03,0.73l-1.4,2.46c-0.11,0.18-0.28,0.31-0.49,0.36c-0.2,0.05-0.42,0.03-0.6-0.07l-3.4-1.99
		c-0.1-0.06-0.21-0.1-0.33-0.12l-3.75-0.58c-0.1-0.01-0.19-0.05-0.26-0.11l-0.28-0.2l-0.66-1.98L8.24,14.83z M7.75,16.87l0.29,0.86
		l-1.64-1.15l-0.21-0.61v-1.52c0.09,0,0.18,0.02,0.26,0.06c0.07,0.03,0.13,0.07,0.18,0.13c0.12,0.12,0.18,0.28,0.18,0.44v0.94
		c0,0.1,0.05,0.19,0.13,0.25L7.75,16.87z"/>
	<path class="st0" d="M13.89,19.22c0.08,0,0.16-0.03,0.22-0.09l0.32-0.32c0.26-0.26,0.41-0.61,0.4-0.98v-0.5
		c0-0.17-0.14-0.31-0.31-0.31c-0.17,0-0.31,0.14-0.31,0.31v0.5c0,0.2-0.08,0.39-0.22,0.53l-0.32,0.32
		c-0.09,0.09-0.12,0.22-0.07,0.34C13.65,19.14,13.76,19.22,13.89,19.22L13.89,19.22z"/>
	<path class="st0" d="M11.69,17.65H12c0.17,0,0.31-0.14,0.31-0.31s-0.14-0.31-0.31-0.31h-0.31c-0.17,0-0.31,0.14-0.31,0.31
		S11.51,17.65,11.69,17.65z"/>
	<path class="st0" d="M14.67,5.1c0.29,0,0.57-0.12,0.78-0.32c0.21-0.21,0.32-0.49,0.32-0.78s-0.12-0.57-0.32-0.78
		c-0.21-0.21-0.49-0.32-0.78-0.32c-0.29,0-0.57,0.12-0.78,0.32C13.69,3.43,13.57,3.71,13.57,4s0.12,0.57,0.32,0.78
		C14.1,4.98,14.38,5.1,14.67,5.1z"/>
	<path class="st0" d="M21.1,4.15c-0.22,0-0.44,0.08-0.61,0.23c-0.17,0.15-0.28,0.35-0.32,0.57l-0.77,0.77h-2.7V4.15h1.26
		c0.08,0,0.16-0.03,0.22-0.09l0.6-0.6c0.18,0.23,0.45,0.37,0.74,0.38c0.29,0,0.57-0.13,0.75-0.36c0.18-0.23,0.25-0.53,0.17-0.81
		c-0.07-0.28-0.27-0.52-0.54-0.63c-0.27-0.12-0.57-0.1-0.83,0.04c-0.26,0.14-0.43,0.39-0.48,0.68l-0.77,0.77h-1.13V2.9
		c0-0.25-0.1-0.49-0.28-0.67c-0.18-0.18-0.42-0.28-0.67-0.28H8.24c-0.25,0-0.49,0.1-0.67,0.28S7.29,2.65,7.29,2.9v1.13L6.26,2.99
		C6.2,2.93,6.12,2.9,6.04,2.9H4.73C4.63,2.62,4.4,2.4,4.11,2.31c-0.29-0.09-0.6-0.03-0.84,0.14C3.04,2.63,2.9,2.91,2.9,3.21
		s0.14,0.58,0.38,0.76C3.52,4.15,3.83,4.2,4.11,4.11C4.4,4.03,4.63,3.81,4.73,3.53h1.18l1.39,1.39v1.13H4.47
		c-0.08,0-0.16,0.03-0.22,0.09l-0.6,0.6C3.47,6.49,3.2,6.36,2.91,6.35c-0.29,0-0.57,0.13-0.75,0.36S1.91,7.24,1.98,7.52
		c0.07,0.28,0.27,0.52,0.54,0.63c0.27,0.12,0.57,0.1,0.83-0.04c0.26-0.14,0.43-0.39,0.48-0.68L4.6,6.66h2.7v2.51H6.04
		c-0.08,0-0.16,0.03-0.22,0.09l-0.6,0.6C5.04,9.63,4.77,9.49,4.48,9.49c-0.29,0-0.57,0.13-0.75,0.36c-0.18,0.23-0.25,0.53-0.17,0.81
		c0.07,0.28,0.27,0.52,0.54,0.63c0.27,0.12,0.57,0.1,0.83-0.04c0.26-0.14,0.43-0.39,0.48-0.68L6.17,9.8h1.13v0.63
		c0,0.25,0.1,0.49,0.28,0.67c0.18,0.18,0.42,0.28,0.67,0.28h7.53c0.25,0,0.49-0.1,0.67-0.28c0.18-0.18,0.28-0.42,0.28-0.67V8.36
		l1.03,1.03v0c0.06,0.06,0.14,0.09,0.22,0.09h1.31c0.1,0.28,0.33,0.5,0.61,0.59c0.29,0.09,0.6,0.03,0.84-0.14
		c0.24-0.18,0.38-0.46,0.38-0.76s-0.14-0.58-0.38-0.76c-0.24-0.18-0.55-0.23-0.84-0.14c-0.29,0.09-0.51,0.31-0.61,0.59H18.1
		l-1.39-1.39V6.35h2.82c0.08,0,0.16-0.03,0.22-0.09l0.6-0.6c0.2,0.26,0.51,0.4,0.84,0.37C21.52,6,21.8,5.8,21.95,5.51
		c0.14-0.29,0.13-0.64-0.04-0.91C21.73,4.32,21.43,4.15,21.1,4.15L21.1,4.15z M8.24,2.58h7.53c0.08,0,0.16,0.03,0.22,0.09
		s0.09,0.14,0.09,0.22v4.89l-2.92-2.92c-0.12-0.12-0.32-0.12-0.44,0l-1.03,1.03l-1.03-1.03c-0.12-0.12-0.32-0.12-0.44,0L7.92,7.16
		V2.9C7.92,2.72,8.06,2.58,8.24,2.58L8.24,2.58z M7.92,8.05l2.51-2.51l2.13,2.13v0c0.12,0.12,0.32,0.12,0.44,0
		c0.12-0.12,0.12-0.32,0-0.44l-0.88-0.88l0.81-0.81l3.14,3.14v0.18H7.92L7.92,8.05z M15.77,10.75H8.24c-0.17,0-0.31-0.14-0.31-0.31
		V9.49h8.16v0.94c0,0.08-0.03,0.16-0.09,0.22C15.93,10.71,15.85,10.75,15.77,10.75z"/>
	<path class="st0" d="M10.43,9.8H8.86c-0.17,0-0.31,0.14-0.31,0.31c0,0.17,0.14,0.31,0.31,0.31h1.57c0.17,0,0.31-0.14,0.31-0.31
		C10.75,9.94,10.61,9.8,10.43,9.8z"/>
	<path class="st0" d="M13.89,9.8h-0.63c-0.17,0-0.31,0.14-0.31,0.31c0,0.17,0.14,0.31,0.31,0.31h0.63c0.17,0,0.31-0.14,0.31-0.31
		C14.2,9.94,14.06,9.8,13.89,9.8z"/>
	<linearGradient id="SVGID_1_" gradientUnits="userSpaceOnUse" x1="13.5732" y1="18.1213" x2="14.8268" y2="18.1213">
		<stop  offset="0" style="stop-color:#10BEF0"/>
		<stop  offset="1" style="stop-color:#10BEF0;stop-opacity:0"/>
	</linearGradient>
	<path class="st2" d="M13.89,19.22c0.08,0,0.16-0.03,0.22-0.09l0.32-0.32c0.26-0.26,0.41-0.61,0.4-0.98v-0.5
		c0-0.17-0.14-0.31-0.31-0.31c-0.17,0-0.31,0.14-0.31,0.31v0.5c0,0.2-0.08,0.39-0.22,0.53l-0.32,0.32
		c-0.09,0.09-0.12,0.22-0.07,0.34C13.65,19.14,13.76,19.22,13.89,19.22L13.89,19.22z"/>
	<linearGradient id="SVGID_2_" gradientUnits="userSpaceOnUse" x1="11.3741" y1="17.3366" x2="12.3158" y2="17.3366">
		<stop  offset="0" style="stop-color:#10BEF0"/>
		<stop  offset="1" style="stop-color:#10BEF0;stop-opacity:0"/>
	</linearGradient>
	<path class="st3" d="M11.69,17.65H12c0.17,0,0.31-0.14,0.31-0.31s-0.14-0.31-0.31-0.31h-0.31c-0.17,0-0.31,0.14-0.31,0.31
		S11.51,17.65,11.69,17.65z"/>
	<linearGradient id="SVGID_3_" gradientUnits="userSpaceOnUse" x1="8.5492" y1="10.1174" x2="10.7464" y2="10.1174">
		<stop  offset="0" style="stop-color:#10BEF0"/>
		<stop  offset="1" style="stop-color:#10BEF0;stop-opacity:0"/>
	</linearGradient>
	<path class="st4" d="M10.43,9.8H8.86c-0.17,0-0.31,0.14-0.31,0.31c0,0.17,0.14,0.31,0.31,0.31h1.57c0.17,0,0.31-0.14,0.31-0.31
		C10.75,9.94,10.61,9.8,10.43,9.8z"/>
	<linearGradient id="SVGID_4_" gradientUnits="userSpaceOnUse" x1="12.9435" y1="10.1174" x2="14.199" y2="10.1174">
		<stop  offset="0" style="stop-color:#10BEF0"/>
		<stop  offset="1" style="stop-color:#10BEF0;stop-opacity:0"/>
	</linearGradient>
	<path class="st5" d="M13.89,9.8h-0.63c-0.17,0-0.31,0.14-0.31,0.31c0,0.17,0.14,0.31,0.31,0.31h0.63c0.17,0,0.31-0.14,0.31-0.31
		C14.2,9.94,14.06,9.8,13.89,9.8z"/>
	<linearGradient id="SVGID_5_" gradientUnits="userSpaceOnUse" x1="2.6035" y1="3.1719" x2="4.3408" y2="3.2288">
		<stop  offset="0" style="stop-color:#10BEF0"/>
		<stop  offset="1" style="stop-color:#10BEF0;stop-opacity:0"/>
	</linearGradient>
	<circle class="st6" cx="3.84" cy="3.21" r="0.95"/>
	<linearGradient id="SVGID_6_" gradientUnits="userSpaceOnUse" x1="1.6642" y1="7.2531" x2="3.3974" y2="7.3099">
		<stop  offset="0" style="stop-color:#10BEF0"/>
		<stop  offset="1" style="stop-color:#10BEF0;stop-opacity:0"/>
	</linearGradient>
	<circle class="st7" cx="2.9" cy="7.29" r="0.94"/>
	<path class="st29" d="M3.84,3.53c-0.13,0-0.24-0.08-0.29-0.19C3.5,3.21,3.53,3.08,3.62,2.99C3.71,2.9,3.84,2.87,3.96,2.92
		c0.12,0.05,0.19,0.16,0.19,0.29c0,0.08-0.03,0.16-0.09,0.22C4,3.49,3.92,3.53,3.84,3.53z"/>
	<path class="st29" d="M2.9,7.61c-0.13,0-0.24-0.08-0.29-0.19C2.56,7.3,2.59,7.16,2.68,7.07C2.77,6.98,2.9,6.95,3.02,7
		c0.12,0.05,0.19,0.16,0.19,0.29c0,0.08-0.03,0.16-0.09,0.22C3.06,7.57,2.98,7.61,2.9,7.61z"/>
	<linearGradient id="SVGID_7_" gradientUnits="userSpaceOnUse" x1="3.2331" y1="10.3909" x2="4.9663" y2="10.4477">
		<stop  offset="0" style="stop-color:#10BEF0"/>
		<stop  offset="1" style="stop-color:#10BEF0;stop-opacity:0"/>
	</linearGradient>
	<circle class="st8" cx="4.46" cy="10.43" r="0.94"/>
	<path class="st29" d="M4.47,10.75c-0.13,0-0.24-0.08-0.29-0.19c-0.05-0.12-0.02-0.25,0.07-0.34c0.09-0.09,0.22-0.12,0.34-0.07
		c0.12,0.05,0.19,0.16,0.19,0.29c0,0.08-0.03,0.16-0.09,0.22C4.63,10.71,4.55,10.75,4.47,10.75z"/>
	
		<linearGradient id="SVGID_8_" gradientUnits="userSpaceOnUse" x1="12.8591" y1="9.1341" x2="14.5922" y2="9.1909" gradientTransform="matrix(-1 0 0 1 34.2572 0)">
		<stop  offset="0" style="stop-color:#10BEF0"/>
		<stop  offset="1" style="stop-color:#10BEF0;stop-opacity:0"/>
	</linearGradient>
	<circle class="st9" cx="20.17" cy="9.17" r="0.94"/>
	
		<linearGradient id="SVGID_9_" gradientUnits="userSpaceOnUse" x1="11.9202" y1="5.0518" x2="13.6533" y2="5.1086" gradientTransform="matrix(-1 0 0 1 34.2572 0)">
		<stop  offset="0" style="stop-color:#10BEF0"/>
		<stop  offset="1" style="stop-color:#10BEF0;stop-opacity:0"/>
	</linearGradient>
	<circle class="st10" cx="21.11" cy="5.09" r="0.94"/>
	<path class="st29" d="M20.16,8.86c0.13,0,0.24,0.08,0.29,0.19c0.05,0.12,0.02,0.25-0.07,0.34s-0.22,0.12-0.34,0.07
		c-0.12-0.05-0.19-0.16-0.19-0.29C19.85,9,19.99,8.86,20.16,8.86z"/>
	<path class="st29" d="M21.1,5.41c-0.13,0-0.24-0.08-0.29-0.19c-0.05-0.12-0.02-0.25,0.07-0.34c0.09-0.09,0.22-0.12,0.34-0.07
		c0.12,0.05,0.19,0.16,0.19,0.29c0,0.08-0.03,0.16-0.09,0.22S21.19,5.41,21.1,5.41z"/>
	
		<linearGradient id="SVGID_10_" gradientUnits="userSpaceOnUse" x1="13.4879" y1="2.8579" x2="15.221" y2="2.9148" gradientTransform="matrix(-0.9891 0.1474 0.1474 0.9891 33.6693 -2.1378)">
		<stop  offset="0" style="stop-color:#10BEF0"/>
		<stop  offset="1" style="stop-color:#10BEF0;stop-opacity:0"/>
	</linearGradient>
	<circle class="st11" cx="19.54" cy="2.9" r="0.94"/>
	
		<linearGradient id="SVGID_11_" gradientUnits="userSpaceOnUse" x1="18.2616" y1="3.2182" x2="20.2822" y2="3.2844" gradientTransform="matrix(-0.9891 0.1474 0.1474 0.9891 33.6693 -2.1378)">
		<stop  offset="0" style="stop-color:#10BEF0"/>
		<stop  offset="1" style="stop-color:#10BEF0;stop-opacity:0"/>
	</linearGradient>
	<circle class="st12" cx="14.67" cy="3.99" r="1.1"/>
	<path class="st29" d="M19.53,2.58c0.13,0,0.24,0.08,0.29,0.19c0.05,0.12,0.02,0.25-0.07,0.34c-0.09,0.09-0.22,0.12-0.34,0.07
		c-0.12-0.05-0.19-0.16-0.19-0.29C19.22,2.72,19.36,2.58,19.53,2.58z"/>
	<path class="st29" d="M14.67,3.53c0.19,0,0.36,0.11,0.43,0.29c0.07,0.18,0.03,0.38-0.1,0.51c-0.13,0.13-0.34,0.17-0.51,0.1
		C14.31,4.36,14.2,4.19,14.2,4C14.2,3.74,14.41,3.53,14.67,3.53L14.67,3.53z"/>
</g>
</svg>
