<svg id="Layer_1" data-name="Layer 1" xmlns="http://www.w3.org/2000/svg" xmlns:xlink="http://www.w3.org/1999/xlink" viewBox="0 0 24 24"><defs><style>.cls-1{fill:#002680;}.cls-2{fill:url(#linear-gradient);}.cls-3{fill:url(#linear-gradient-2);}.cls-4{fill:url(#linear-gradient-3);}.cls-5{fill:url(#linear-gradient-4);}.cls-6{fill:url(#linear-gradient-5);}.cls-7{fill:url(#linear-gradient-6);}</style><linearGradient id="linear-gradient" x1="18.97" y1="10.51" x2="19.08" y2="15.12" gradientUnits="userSpaceOnUse"><stop offset="0" stop-color="#10bef0"/><stop offset="0.05" stop-color="#10bef0" stop-opacity="0.89"/><stop offset="0.14" stop-color="#10bef0" stop-opacity="0.68"/><stop offset="0.24" stop-color="#10bef0" stop-opacity="0.5"/><stop offset="0.35" stop-color="#10bef0" stop-opacity="0.35"/><stop offset="0.46" stop-color="#10bef0" stop-opacity="0.22"/><stop offset="0.57" stop-color="#10bef0" stop-opacity="0.12"/><stop offset="0.69" stop-color="#10bef0" stop-opacity="0.05"/><stop offset="0.83" stop-color="#10bef0" stop-opacity="0.01"/><stop offset="1" stop-color="#10bef0" stop-opacity="0"/></linearGradient><linearGradient id="linear-gradient-2" x1="17.69" y1="3.15" x2="17.52" y2="7.77" gradientUnits="userSpaceOnUse"><stop offset="0" stop-color="#10bef0"/><stop offset="0.09" stop-color="#10bef0" stop-opacity="0.96"/><stop offset="0.24" stop-color="#10bef0" stop-opacity="0.85"/><stop offset="0.43" stop-color="#10bef0" stop-opacity="0.67"/><stop offset="0.66" stop-color="#10bef0" stop-opacity="0.42"/><stop offset="0.92" stop-color="#10bef0" stop-opacity="0.11"/><stop offset="1" stop-color="#10bef0" stop-opacity="0"/></linearGradient><linearGradient id="linear-gradient-3" x1="11.92" y1="9.81" x2="12.03" y2="14.88" gradientUnits="userSpaceOnUse"><stop offset="0" stop-color="#10bef0"/><stop offset="0.27" stop-color="#10bef0" stop-opacity="0.67"/><stop offset="0.53" stop-color="#10bef0" stop-opacity="0.39"/><stop offset="0.75" stop-color="#10bef0" stop-opacity="0.18"/><stop offset="0.91" stop-color="#10bef0" stop-opacity="0.05"/><stop offset="1" stop-color="#10bef0" stop-opacity="0"/></linearGradient><linearGradient id="linear-gradient-4" x1="12" y1="2.58" x2="12" y2="6.34" gradientUnits="userSpaceOnUse"><stop offset="0" stop-color="#10bef0"/><stop offset="0.12" stop-color="#10bef0" stop-opacity="0.91"/><stop offset="0.35" stop-color="#10bef0" stop-opacity="0.69"/><stop offset="0.69" stop-color="#10bef0" stop-opacity="0.35"/><stop offset="1" stop-color="#10bef0" stop-opacity="0"/></linearGradient><linearGradient id="linear-gradient-5" x1="5.14" y1="10.72" x2="4.86" y2="17.16" gradientUnits="userSpaceOnUse"><stop offset="0" stop-color="#10bef0"/><stop offset="0.03" stop-color="#10bef0" stop-opacity="0.92"/><stop offset="0.14" stop-color="#10bef0" stop-opacity="0.71"/><stop offset="0.24" stop-color="#10bef0" stop-opacity="0.52"/><stop offset="0.35" stop-color="#10bef0" stop-opacity="0.36"/><stop offset="0.46" stop-color="#10bef0" stop-opacity="0.23"/><stop offset="0.58" stop-color="#10bef0" stop-opacity="0.13"/><stop offset="0.7" stop-color="#10bef0" stop-opacity="0.06"/><stop offset="0.84" stop-color="#10bef0" stop-opacity="0.01"/><stop offset="1" stop-color="#10bef0" stop-opacity="0"/></linearGradient><linearGradient id="linear-gradient-6" x1="6.68" y1="3.21" x2="6.11" y2="8.85" gradientUnits="userSpaceOnUse"><stop offset="0" stop-color="#10bef0"/><stop offset="0.01" stop-color="#10bef0" stop-opacity="0.99"/><stop offset="0.22" stop-color="#10bef0" stop-opacity="0.69"/><stop offset="0.43" stop-color="#10bef0" stop-opacity="0.45"/><stop offset="0.61" stop-color="#10bef0" stop-opacity="0.25"/><stop offset="0.77" stop-color="#10bef0" stop-opacity="0.12"/><stop offset="0.91" stop-color="#10bef0" stop-opacity="0.03"/><stop offset="1" stop-color="#10bef0" stop-opacity="0"/></linearGradient></defs><path class="cls-1" d="M17.24,9.52H18.4a2.07,2.07,0,0,1,2,2.15v4.72a.08.08,0,0,1-.08.08h-1v4.07a.09.09,0,0,1-.08.09h-2v.62h2a.7.7,0,0,0,.7-.71V17.1h.35a.7.7,0,0,0,.7-.71V11.67a2.89,2.89,0,0,0-.44-1.55A2.54,2.54,0,0,0,18.4,8.9H17.24Z"/><path class="cls-1" d="M17.79,8A1.67,1.67,0,0,0,19.45,6.3V5.48a1.67,1.67,0,0,0-1.66-1.66h-.41a1.66,1.66,0,0,0-1.65,1.66V6.3A1.66,1.66,0,0,0,17.38,8ZM16.35,5.48a1,1,0,0,1,1-1h.41a1,1,0,0,1,1,1V6.3a1,1,0,0,1-1,1h-.41a1,1,0,0,1-1-1Z"/><path class="cls-1" d="M8.32,10.84V16a.71.71,0,0,0,.71.72h.44v3.82a.71.71,0,0,0,.71.72h3.64a.71.71,0,0,0,.71-.72V16.71H15a.71.71,0,0,0,.71-.72V10.84a3,3,0,0,0-1.17-2.42,2.58,2.58,0,0,0-1.6-.55H11.09a2.58,2.58,0,0,0-1.6.55,3,3,0,0,0-1.17,2.42Zm4.59-2.35a2.27,2.27,0,0,1,2.15,2.35V16a.09.09,0,0,1-.09.1H13.91v4.44a.1.1,0,0,1-.09.1H10.18a.1.1,0,0,1-.09-.1V16.09H9a.09.09,0,0,1-.09-.1V10.84a2.27,2.27,0,0,1,2.15-2.35Z"/><path class="cls-1" d="M12.23,7.36a1.85,1.85,0,0,0,1.84-1.85V4.6a1.85,1.85,0,0,0-1.84-1.85h-.46A1.85,1.85,0,0,0,9.93,4.6v.91a1.85,1.85,0,0,0,1.84,1.85ZM10.55,4.6a1.23,1.23,0,0,1,1.22-1.23h.46A1.23,1.23,0,0,1,13.45,4.6v.91a1.22,1.22,0,0,1-1.22,1.22h-.46a1.22,1.22,0,0,1-1.22-1.22Z"/><path class="cls-1" d="M6.76,9.52H5.6a2.07,2.07,0,0,0-2,2.15v4.72a.08.08,0,0,0,.08.08h1v4.07a.09.09,0,0,0,.08.09h2v.62h-2a.7.7,0,0,1-.7-.71V17.1H3.72a.7.7,0,0,1-.7-.71V11.67a2.89,2.89,0,0,1,.44-1.55A2.54,2.54,0,0,1,5.6,8.9H6.76Z"/><path class="cls-1" d="M6.21,8A1.67,1.67,0,0,1,4.55,6.3V5.48A1.67,1.67,0,0,1,6.21,3.82h.41A1.66,1.66,0,0,1,8.27,5.48V6.3A1.66,1.66,0,0,1,6.62,8ZM7.65,5.48a1,1,0,0,0-1-1H6.21a1,1,0,0,0-1,1V6.3a1,1,0,0,0,1,1h.41a1,1,0,0,0,1-1Z"/><path class="cls-2" d="M17.24,9.52H18.4a2.07,2.07,0,0,1,2,2.15v4.72a.08.08,0,0,1-.08.08h-1v4.07a.09.09,0,0,1-.08.09h-2v.62h2a.7.7,0,0,0,.7-.71V17.1h.35a.7.7,0,0,0,.7-.71V11.67a2.89,2.89,0,0,0-.44-1.55A2.54,2.54,0,0,0,18.4,8.9H17.24Z"/><path class="cls-3" d="M17.79,8A1.67,1.67,0,0,0,19.45,6.3V5.48a1.67,1.67,0,0,0-1.66-1.66h-.41a1.66,1.66,0,0,0-1.65,1.66V6.3A1.66,1.66,0,0,0,17.38,8ZM16.35,5.48a1,1,0,0,1,1-1h.41a1,1,0,0,1,1,1V6.3a1,1,0,0,1-1,1h-.41a1,1,0,0,1-1-1Z"/><path class="cls-4" d="M8.32,10.84V16a.71.71,0,0,0,.71.72h.44v3.82a.71.71,0,0,0,.71.72h3.64a.71.71,0,0,0,.71-.72V16.71H15a.71.71,0,0,0,.71-.72V10.84a3,3,0,0,0-1.17-2.42,2.58,2.58,0,0,0-1.6-.55H11.09a2.58,2.58,0,0,0-1.6.55,3,3,0,0,0-1.17,2.42Zm4.59-2.35a2.27,2.27,0,0,1,2.15,2.35V16a.09.09,0,0,1-.09.1H13.91v4.44a.1.1,0,0,1-.09.1H10.18a.1.1,0,0,1-.09-.1V16.09H9a.09.09,0,0,1-.09-.1V10.84a2.27,2.27,0,0,1,2.15-2.35Z"/><path class="cls-5" d="M12.23,7.36a1.85,1.85,0,0,0,1.84-1.85V4.6a1.85,1.85,0,0,0-1.84-1.85h-.46A1.85,1.85,0,0,0,9.93,4.6v.91a1.85,1.85,0,0,0,1.84,1.85ZM10.55,4.6a1.23,1.23,0,0,1,1.22-1.23h.46A1.23,1.23,0,0,1,13.45,4.6v.91a1.22,1.22,0,0,1-1.22,1.22h-.46a1.22,1.22,0,0,1-1.22-1.22Z"/><path class="cls-6" d="M6.76,9.52H5.6a2.07,2.07,0,0,0-2,2.15v4.72a.08.08,0,0,0,.08.08h1v4.07a.09.09,0,0,0,.08.09h2v.62h-2a.7.7,0,0,1-.7-.71V17.1H3.72a.7.7,0,0,1-.7-.71V11.67a2.89,2.89,0,0,1,.44-1.55A2.54,2.54,0,0,1,5.6,8.9H6.76Z"/><path class="cls-7" d="M6.21,8A1.67,1.67,0,0,1,4.55,6.3V5.48A1.67,1.67,0,0,1,6.21,3.82h.41A1.66,1.66,0,0,1,8.27,5.48V6.3A1.66,1.66,0,0,1,6.62,8ZM7.65,5.48a1,1,0,0,0-1-1H6.21a1,1,0,0,0-1,1V6.3a1,1,0,0,0,1,1h.41a1,1,0,0,0,1-1Z"/></svg>