<svg id="Layer_1" data-name="Layer 1" xmlns="http://www.w3.org/2000/svg" xmlns:xlink="http://www.w3.org/1999/xlink" viewBox="0 0 24 24"><defs><style>.cls-1{fill:#002680;}.cls-2{fill:url(#linear-gradient);}.cls-3{fill:url(#linear-gradient-2);}.cls-4{fill:url(#linear-gradient-3);}.cls-5{fill:url(#linear-gradient-4);}.cls-6{fill:url(#linear-gradient-5);}.cls-7{fill:url(#linear-gradient-6);}.cls-8{fill:url(#linear-gradient-7);}.cls-9{fill:url(#linear-gradient-8);}.cls-10{fill:url(#linear-gradient-9);}.cls-11{fill:url(#linear-gradient-10);}.cls-12{fill:url(#linear-gradient-11);}.cls-13{fill:url(#linear-gradient-12);}.cls-14{fill:url(#linear-gradient-13);}.cls-15{fill:url(#linear-gradient-14);}.cls-16{fill:url(#linear-gradient-15);}.cls-17{fill:url(#linear-gradient-16);}.cls-18{fill:url(#linear-gradient-17);}.cls-19{fill:url(#linear-gradient-18);}.cls-20{fill:url(#linear-gradient-19);}.cls-21{fill:url(#linear-gradient-20);}.cls-22{fill:url(#linear-gradient-21);}.cls-23{fill:url(#linear-gradient-22);}.cls-24{fill:url(#linear-gradient-23);}.cls-25{fill:url(#linear-gradient-24);}.cls-26{fill:url(#linear-gradient-25);}</style><linearGradient id="linear-gradient" x1="8.41" y1="1.54" x2="5.66" y2="10.99" gradientUnits="userSpaceOnUse"><stop offset="0" stop-color="#10bef0"/><stop offset="0.27" stop-color="#10bef0" stop-opacity="0.67"/><stop offset="0.53" stop-color="#10bef0" stop-opacity="0.39"/><stop offset="0.75" stop-color="#10bef0" stop-opacity="0.18"/><stop offset="0.91" stop-color="#10bef0" stop-opacity="0.05"/><stop offset="1" stop-color="#10bef0" stop-opacity="0"/></linearGradient><linearGradient id="linear-gradient-2" x1="8.41" y1="1.54" x2="5.66" y2="10.99" xlink:href="#linear-gradient"/><linearGradient id="linear-gradient-3" x1="8.41" y1="1.54" x2="5.66" y2="10.99" xlink:href="#linear-gradient"/><linearGradient id="linear-gradient-4" x1="11.49" y1="17.87" x2="12.37" y2="17.87" xlink:href="#linear-gradient"/><linearGradient id="linear-gradient-5" x1="15.85" y1="10.13" x2="17.38" y2="10.13" xlink:href="#linear-gradient"/><linearGradient id="linear-gradient-6" x1="17.6" y1="10.13" x2="18.92" y2="10.13" xlink:href="#linear-gradient"/><linearGradient id="linear-gradient-7" x1="15.85" y1="11.01" x2="18.48" y2="11.01" xlink:href="#linear-gradient"/><linearGradient id="linear-gradient-8" x1="18.7" y1="11.01" x2="19.58" y2="11.01" xlink:href="#linear-gradient"/><linearGradient id="linear-gradient-9" x1="17.16" y1="11.89" x2="19.36" y2="11.89" xlink:href="#linear-gradient"/><linearGradient id="linear-gradient-10" x1="15.85" y1="12.77" x2="17.16" y2="12.77" xlink:href="#linear-gradient"/><linearGradient id="linear-gradient-11" x1="17.38" y1="12.77" x2="19.58" y2="12.77" xlink:href="#linear-gradient"/><linearGradient id="linear-gradient-12" x1="15.85" y1="13.65" x2="17.38" y2="13.65" xlink:href="#linear-gradient"/><linearGradient id="linear-gradient-13" x1="17.6" y1="13.65" x2="19.14" y2="13.65" xlink:href="#linear-gradient"/><linearGradient id="linear-gradient-14" x1="15.85" y1="14.53" x2="18.48" y2="14.53" xlink:href="#linear-gradient"/><linearGradient id="linear-gradient-15" x1="18.7" y1="14.53" x2="19.58" y2="14.53" xlink:href="#linear-gradient"/><linearGradient id="linear-gradient-16" x1="17.16" y1="15.41" x2="19.36" y2="15.41" xlink:href="#linear-gradient"/><linearGradient id="linear-gradient-17" x1="16.29" y1="3.43" x2="16.94" y2="3.43" xlink:href="#linear-gradient"/><linearGradient id="linear-gradient-18" x1="18.48" y1="2.77" x2="19.14" y2="2.77" xlink:href="#linear-gradient"/><linearGradient id="linear-gradient-19" x1="15.19" y1="20.13" x2="15.85" y2="20.13" xlink:href="#linear-gradient"/><linearGradient id="linear-gradient-20" x1="20.9" y1="20.13" x2="21.56" y2="20.13" xlink:href="#linear-gradient"/><linearGradient id="linear-gradient-21" x1="8.15" y1="19.91" x2="8.81" y2="19.91" xlink:href="#linear-gradient"/><linearGradient id="linear-gradient-22" x1="3.1" y1="20.79" x2="3.76" y2="20.79" xlink:href="#linear-gradient"/><linearGradient id="linear-gradient-23" x1="19.8" y1="3.32" x2="22" y2="3.32" xlink:href="#linear-gradient"/><linearGradient id="linear-gradient-24" x1="17.38" y1="20.9" x2="19.58" y2="20.9" xlink:href="#linear-gradient"/><linearGradient id="linear-gradient-25" x1="5.3" y1="21.12" x2="7.06" y2="21.12" xlink:href="#linear-gradient"/></defs><path class="cls-1" d="M12.37,17.87a.44.44,0,0,1-.44.44.44.44,0,0,1,0-.88.44.44,0,0,1,.44.44"/><path class="cls-1" d="M16.07,10.35h1.09a.22.22,0,0,0,0-.44H16.07a.22.22,0,0,0,0,.44Z"/><path class="cls-1" d="M17.82,10.35h.88a.22.22,0,1,0,0-.44h-.88a.22.22,0,0,0,0,.44Z"/><path class="cls-1" d="M16.07,11.23h2.19a.22.22,0,0,0,0-.44H16.07a.22.22,0,0,0,0,.44Z"/><path class="cls-1" d="M19.36,10.79h-.44a.22.22,0,0,0,0,.44h.44a.22.22,0,0,0,0-.44Z"/><path class="cls-1" d="M16.07,12.11h.66a.22.22,0,0,0,0-.44h-.66a.22.22,0,0,0,0,.44Z"/><path class="cls-1" d="M17.16,11.89a.22.22,0,0,0,.22.22h1.76a.22.22,0,0,0,0-.44H17.38a.22.22,0,0,0-.22.22Z"/><path class="cls-1" d="M16.07,13H17a.22.22,0,0,0,0-.44h-.88a.22.22,0,0,0,0,.44Z"/><path class="cls-1" d="M19.36,12.55H17.6a.22.22,0,0,0,0,.44h1.76a.22.22,0,0,0,0-.44Z"/><path class="cls-1" d="M16.07,13.87h1.09a.22.22,0,0,0,0-.44H16.07a.22.22,0,0,0,0,.44Z"/><path class="cls-1" d="M18.92,13.87a.22.22,0,0,0,0-.44h-1.1a.22.22,0,0,0,0,.44Z"/><path class="cls-1" d="M16.07,14.75h2.19a.22.22,0,0,0,0-.44H16.07a.22.22,0,0,0,0,.44Z"/><path class="cls-1" d="M19.36,14.31h-.44a.22.22,0,0,0,0,.44h.44a.22.22,0,0,0,0-.44Z"/><path class="cls-1" d="M16.73,15.19h-.66a.22.22,0,0,0,0,.44h.66a.22.22,0,0,0,0-.44Z"/><path class="cls-1" d="M19.14,15.19H17.38a.22.22,0,1,0,0,.44h1.76a.22.22,0,0,0,0-.44Z"/><path class="cls-1" d="M20.22,4.86H15.41V4.11A1.45,1.45,0,0,0,14,2.66h-.33a1.1,1.1,0,0,0-2.16,0h-8A1.45,1.45,0,0,0,2,4.11V17.8a1.56,1.56,0,0,0,1.56,1.56h6v2.42H8.9a.22.22,0,0,0,0,.44H15a.22.22,0,0,0,0-.44h-.62V19.36h5.87a1.56,1.56,0,0,0,1.56-1.56V6.42a1.56,1.56,0,0,0-1.56-1.56Zm-16.46,11h9.67a.22.22,0,0,0,0-.44H3.76V15H9.25a.22.22,0,0,0,0-.44H3.76V12.11H9.3l3.12,2.37a.22.22,0,0,0,.35-.17v-2.2H14a1.45,1.45,0,0,0,1.45-1.45v-4H20v9.67H3.76ZM11.89,4.2h1.32v4H11.89Zm1.32-.44H11.89V3.54h1.32ZM11.89,8.59h1.32v.59l-.66.82-.66-.82Zm.66-6.37a.67.67,0,0,1,.66.66V3.1H11.89V2.88a.67.67,0,0,1,.66-.66ZM2.44,4.11a1,1,0,0,1,1-1h8V9.25a.24.24,0,0,0,.05.14l.88,1.1a.22.22,0,0,0,.34,0l.88-1.1a.24.24,0,0,0,.05-.14V3.1H14a1,1,0,0,1,1,1v6.55a1,1,0,0,1-1,1H12.55a.22.22,0,0,0-.22.22v2L9.51,11.72a.24.24,0,0,0-.13-.05H3.45a1,1,0,0,1-1-1V4.11ZM10,19.36h.66v2.42H10Zm1.1,2.42V19.36h1.75v2.42Zm2.85,0h-.66V19.36h.66Zm7.43-4a1.12,1.12,0,0,1-1.12,1.12H3.56A1.12,1.12,0,0,1,2.44,17.8V11.7a1.47,1.47,0,0,0,.88.4v4.41a.22.22,0,0,0,.22.22h16.7a.22.22,0,0,0,.22-.22V6.4a.22.22,0,0,0-.22-.22H15.41V5.3h4.81a1.12,1.12,0,0,1,1.12,1.12Z"/><path class="cls-1" d="M16.94,3.43a.33.33,0,1,1-.32-.33.32.32,0,0,1,.32.33"/><path class="cls-1" d="M19.14,2.77a.33.33,0,0,1-.33.33.33.33,0,0,1,0-.66.33.33,0,0,1,.33.33"/><path class="cls-1" d="M15.85,20.13a.33.33,0,0,1-.33.33.33.33,0,0,1,0-.66.33.33,0,0,1,.33.33"/><path class="cls-1" d="M21.56,20.13a.33.33,0,1,1-.33-.33.33.33,0,0,1,.33.33"/><path class="cls-1" d="M8.81,19.91a.33.33,0,0,1-.33.33.33.33,0,1,1,0-.66.33.33,0,0,1,.33.33"/><path class="cls-1" d="M3.76,20.79a.33.33,0,1,1-.33-.33.33.33,0,0,1,.33.33"/><path class="cls-1" d="M3.05,8l.9.2a2.8,2.8,0,0,0,.27.65l-.5.77a.23.23,0,0,0,0,.28l.48.49a.24.24,0,0,0,.28,0l.78-.5a2.56,2.56,0,0,0,.64.27l.2.9a.23.23,0,0,0,.22.17h.69a.21.21,0,0,0,.21-.17l.2-.9a2.48,2.48,0,0,0,.65-.27l.78.5a.23.23,0,0,0,.27,0l.49-.49a.23.23,0,0,0,0-.28l-.49-.78a2.56,2.56,0,0,0,.27-.64l.9-.2a.23.23,0,0,0,.17-.22V7.06a.21.21,0,0,0-.17-.21l-.9-.2A2.48,2.48,0,0,0,9.19,6l.49-.78a.21.21,0,0,0,0-.27l-.49-.49a.21.21,0,0,0-.27,0l-.78.49a3.42,3.42,0,0,0-.65-.27l-.2-.9a.21.21,0,0,0-.21-.17H6.36a.23.23,0,0,0-.22.17l-.2.9a3.32,3.32,0,0,0-.64.27l-.78-.49a.23.23,0,0,0-.28,0L3.76,5a.21.21,0,0,0,0,.27l.5.78A2.48,2.48,0,0,0,4,6.65l-.9.2a.21.21,0,0,0-.17.21v.69A.23.23,0,0,0,3.05,8Zm.27-.73.86-.19a.21.21,0,0,0,.16-.17,2.47,2.47,0,0,1,.32-.77.2.2,0,0,0,0-.23l-.47-.75.24-.24.74.48a.25.25,0,0,0,.24,0,2.28,2.28,0,0,1,.77-.32.23.23,0,0,0,.16-.17L6.53,4h.34l.19.86a.24.24,0,0,0,.17.17A2.37,2.37,0,0,1,8,5.37a.24.24,0,0,0,.23,0L9,4.89l.24.24-.48.75a.24.24,0,0,0,0,.23,2.25,2.25,0,0,1,.32.77.24.24,0,0,0,.17.17l.86.19v.34l-.86.19a.23.23,0,0,0-.17.16,2.17,2.17,0,0,1-.32.77.25.25,0,0,0,0,.24l.48.74L9,9.92l-.75-.47a.2.2,0,0,0-.23,0,2.47,2.47,0,0,1-.77.32.21.21,0,0,0-.17.16l-.19.86H6.53l-.19-.86a.2.2,0,0,0-.16-.16,2.47,2.47,0,0,1-.77-.32.21.21,0,0,0-.24,0l-.74.47-.24-.24.47-.74a.21.21,0,0,0,0-.24,2.37,2.37,0,0,1-.32-.77.2.2,0,0,0-.16-.16l-.86-.19Z"/><path class="cls-1" d="M6.7,8.32a.91.91,0,1,0-.91-.91A.91.91,0,0,0,6.7,8.32Zm0-1.38a.47.47,0,1,1,0,.94.47.47,0,1,1,0-.94Z"/><path class="cls-1" d="M6.7,9.28A1.88,1.88,0,1,0,4.83,7.41,1.88,1.88,0,0,0,6.7,9.28ZM6.7,6a1.44,1.44,0,1,1,0,2.87A1.44,1.44,0,0,1,6.7,6Z"/><path class="cls-1" d="M20.9,4.42a1.1,1.1,0,1,0-1.1-1.1A1.1,1.1,0,0,0,20.9,4.42Zm0-1.76a.66.66,0,1,1-.66.66A.67.67,0,0,1,20.9,2.66Z"/><path class="cls-1" d="M18.48,19.8a1.1,1.1,0,1,0,0,2.2,1.1,1.1,0,0,0,0-2.2Zm0,1.76a.66.66,0,1,1,.66-.66A.66.66,0,0,1,18.48,21.56Z"/><path class="cls-1" d="M6.18,20.24a.88.88,0,1,0,.88.88A.88.88,0,0,0,6.18,20.24Zm0,1.32a.44.44,0,0,1,0-.88.44.44,0,1,1,0,.88Z"/><path class="cls-1" d="M12.37,17.87a.44.44,0,0,1-.44.44.44.44,0,0,1,0-.88.44.44,0,0,1,.44.44"/><path class="cls-1" d="M16.07,10.35h1.09a.22.22,0,0,0,0-.44H16.07a.22.22,0,0,0,0,.44Z"/><path class="cls-1" d="M17.82,10.35h.88a.22.22,0,1,0,0-.44h-.88a.22.22,0,0,0,0,.44Z"/><path class="cls-1" d="M16.07,11.23h2.19a.22.22,0,0,0,0-.44H16.07a.22.22,0,0,0,0,.44Z"/><path class="cls-1" d="M19.36,10.79h-.44a.22.22,0,0,0,0,.44h.44a.22.22,0,0,0,0-.44Z"/><path class="cls-1" d="M16.07,12.11h.66a.22.22,0,0,0,0-.44h-.66a.22.22,0,0,0,0,.44Z"/><path class="cls-1" d="M17.16,11.89a.22.22,0,0,0,.22.22h1.76a.22.22,0,0,0,0-.44H17.38a.22.22,0,0,0-.22.22Z"/><path class="cls-1" d="M16.07,13H17a.22.22,0,0,0,0-.44h-.88a.22.22,0,0,0,0,.44Z"/><path class="cls-1" d="M19.36,12.55H17.6a.22.22,0,0,0,0,.44h1.76a.22.22,0,0,0,0-.44Z"/><path class="cls-1" d="M16.07,13.87h1.09a.22.22,0,0,0,0-.44H16.07a.22.22,0,0,0,0,.44Z"/><path class="cls-1" d="M18.92,13.87a.22.22,0,0,0,0-.44h-1.1a.22.22,0,0,0,0,.44Z"/><path class="cls-1" d="M16.07,14.75h2.19a.22.22,0,0,0,0-.44H16.07a.22.22,0,0,0,0,.44Z"/><path class="cls-1" d="M19.36,14.31h-.44a.22.22,0,0,0,0,.44h.44a.22.22,0,0,0,0-.44Z"/><path class="cls-1" d="M16.73,15.19h-.66a.22.22,0,0,0,0,.44h.66a.22.22,0,0,0,0-.44Z"/><path class="cls-1" d="M19.14,15.19H17.38a.22.22,0,1,0,0,.44h1.76a.22.22,0,0,0,0-.44Z"/><path class="cls-1" d="M20.22,4.86H15.41V4.11A1.45,1.45,0,0,0,14,2.66h-.33a1.1,1.1,0,0,0-2.16,0h-8A1.45,1.45,0,0,0,2,4.11V17.8a1.56,1.56,0,0,0,1.56,1.56h6v2.42H8.9a.22.22,0,0,0,0,.44H15a.22.22,0,0,0,0-.44h-.62V19.36h5.87a1.56,1.56,0,0,0,1.56-1.56V6.42a1.56,1.56,0,0,0-1.56-1.56Zm-16.46,11h9.67a.22.22,0,0,0,0-.44H3.76V15H9.25a.22.22,0,0,0,0-.44H3.76V12.11H9.3l3.12,2.37a.22.22,0,0,0,.35-.17v-2.2H14a1.45,1.45,0,0,0,1.45-1.45v-4H20v9.67H3.76ZM11.89,4.2h1.32v4H11.89Zm1.32-.44H11.89V3.54h1.32ZM11.89,8.59h1.32v.59l-.66.82-.66-.82Zm.66-6.37a.67.67,0,0,1,.66.66V3.1H11.89V2.88a.67.67,0,0,1,.66-.66ZM2.44,4.11a1,1,0,0,1,1-1h8V9.25a.24.24,0,0,0,.05.14l.88,1.1a.22.22,0,0,0,.34,0l.88-1.1a.24.24,0,0,0,.05-.14V3.1H14a1,1,0,0,1,1,1v6.55a1,1,0,0,1-1,1H12.55a.22.22,0,0,0-.22.22v2L9.51,11.72a.24.24,0,0,0-.13-.05H3.45a1,1,0,0,1-1-1V4.11ZM10,19.36h.66v2.42H10Zm1.1,2.42V19.36h1.75v2.42Zm2.85,0h-.66V19.36h.66Zm7.43-4a1.12,1.12,0,0,1-1.12,1.12H3.56A1.12,1.12,0,0,1,2.44,17.8V11.7a1.47,1.47,0,0,0,.88.4v4.41a.22.22,0,0,0,.22.22h16.7a.22.22,0,0,0,.22-.22V6.4a.22.22,0,0,0-.22-.22H15.41V5.3h4.81a1.12,1.12,0,0,1,1.12,1.12Z"/><path class="cls-1" d="M16.94,3.43a.33.33,0,1,1-.32-.33.32.32,0,0,1,.32.33"/><path class="cls-1" d="M19.14,2.77a.33.33,0,0,1-.33.33.33.33,0,0,1,0-.66.33.33,0,0,1,.33.33"/><path class="cls-1" d="M15.85,20.13a.33.33,0,0,1-.33.33.33.33,0,0,1,0-.66.33.33,0,0,1,.33.33"/><path class="cls-1" d="M21.56,20.13a.33.33,0,1,1-.33-.33.33.33,0,0,1,.33.33"/><path class="cls-1" d="M8.81,19.91a.33.33,0,0,1-.33.33.33.33,0,1,1,0-.66.33.33,0,0,1,.33.33"/><path class="cls-1" d="M3.76,20.79a.33.33,0,1,1-.33-.33.33.33,0,0,1,.33.33"/><path class="cls-1" d="M3.05,8l.9.2a2.8,2.8,0,0,0,.27.65l-.5.77a.23.23,0,0,0,0,.28l.48.49a.24.24,0,0,0,.28,0l.78-.5a2.56,2.56,0,0,0,.64.27l.2.9a.23.23,0,0,0,.22.17h.69a.21.21,0,0,0,.21-.17l.2-.9a2.48,2.48,0,0,0,.65-.27l.78.5a.23.23,0,0,0,.27,0l.49-.49a.23.23,0,0,0,0-.28l-.49-.78a2.56,2.56,0,0,0,.27-.64l.9-.2a.23.23,0,0,0,.17-.22V7.06a.21.21,0,0,0-.17-.21l-.9-.2A2.48,2.48,0,0,0,9.19,6l.49-.78a.21.21,0,0,0,0-.27l-.49-.49a.21.21,0,0,0-.27,0l-.78.49a3.42,3.42,0,0,0-.65-.27l-.2-.9a.21.21,0,0,0-.21-.17H6.36a.23.23,0,0,0-.22.17l-.2.9a3.32,3.32,0,0,0-.64.27l-.78-.49a.23.23,0,0,0-.28,0L3.76,5a.21.21,0,0,0,0,.27l.5.78A2.48,2.48,0,0,0,4,6.65l-.9.2a.21.21,0,0,0-.17.21v.69A.23.23,0,0,0,3.05,8Zm.27-.73.86-.19a.21.21,0,0,0,.16-.17,2.47,2.47,0,0,1,.32-.77.2.2,0,0,0,0-.23l-.47-.75.24-.24.74.48a.25.25,0,0,0,.24,0,2.28,2.28,0,0,1,.77-.32.23.23,0,0,0,.16-.17L6.53,4h.34l.19.86a.24.24,0,0,0,.17.17A2.37,2.37,0,0,1,8,5.37a.24.24,0,0,0,.23,0L9,4.89l.24.24-.48.75a.24.24,0,0,0,0,.23,2.25,2.25,0,0,1,.32.77.24.24,0,0,0,.17.17l.86.19v.34l-.86.19a.23.23,0,0,0-.17.16,2.17,2.17,0,0,1-.32.77.25.25,0,0,0,0,.24l.48.74L9,9.92l-.75-.47a.2.2,0,0,0-.23,0,2.47,2.47,0,0,1-.77.32.21.21,0,0,0-.17.16l-.19.86H6.53l-.19-.86a.2.2,0,0,0-.16-.16,2.47,2.47,0,0,1-.77-.32.21.21,0,0,0-.24,0l-.74.47-.24-.24.47-.74a.21.21,0,0,0,0-.24,2.37,2.37,0,0,1-.32-.77.2.2,0,0,0-.16-.16l-.86-.19Z"/><path class="cls-1" d="M6.7,8.32a.91.91,0,1,0-.91-.91A.91.91,0,0,0,6.7,8.32Zm0-1.38a.47.47,0,1,1,0,.94.47.47,0,1,1,0-.94Z"/><path class="cls-1" d="M6.7,9.28A1.88,1.88,0,1,0,4.83,7.41,1.88,1.88,0,0,0,6.7,9.28ZM6.7,6a1.44,1.44,0,1,1,0,2.87A1.44,1.44,0,0,1,6.7,6Z"/><path class="cls-2" d="M3.05,8l.9.2a2.8,2.8,0,0,0,.27.65l-.5.77a.23.23,0,0,0,0,.28l.48.49a.24.24,0,0,0,.28,0l.78-.5a2.56,2.56,0,0,0,.64.27l.2.9a.23.23,0,0,0,.22.17h.69a.21.21,0,0,0,.21-.17l.2-.9a2.48,2.48,0,0,0,.65-.27l.78.5a.23.23,0,0,0,.27,0l.49-.49a.23.23,0,0,0,0-.28l-.49-.78a2.56,2.56,0,0,0,.27-.64l.9-.2a.23.23,0,0,0,.17-.22V7.06a.21.21,0,0,0-.17-.21l-.9-.2A2.48,2.48,0,0,0,9.19,6l.49-.78a.21.21,0,0,0,0-.27l-.49-.49a.21.21,0,0,0-.27,0l-.78.49a3.42,3.42,0,0,0-.65-.27l-.2-.9a.21.21,0,0,0-.21-.17H6.36a.23.23,0,0,0-.22.17l-.2.9a3.32,3.32,0,0,0-.64.27l-.78-.49a.23.23,0,0,0-.28,0L3.76,5a.21.21,0,0,0,0,.27l.5.78A2.48,2.48,0,0,0,4,6.65l-.9.2a.21.21,0,0,0-.17.21v.69A.23.23,0,0,0,3.05,8Zm.27-.73.86-.19a.21.21,0,0,0,.16-.17,2.47,2.47,0,0,1,.32-.77.2.2,0,0,0,0-.23l-.47-.75.24-.24.74.48a.25.25,0,0,0,.24,0,2.28,2.28,0,0,1,.77-.32.23.23,0,0,0,.16-.17L6.53,4h.34l.19.86a.24.24,0,0,0,.17.17A2.37,2.37,0,0,1,8,5.37a.24.24,0,0,0,.23,0L9,4.89l.24.24-.48.75a.24.24,0,0,0,0,.23,2.25,2.25,0,0,1,.32.77.24.24,0,0,0,.17.17l.86.19v.34l-.86.19a.23.23,0,0,0-.17.16,2.17,2.17,0,0,1-.32.77.25.25,0,0,0,0,.24l.48.74L9,9.92l-.75-.47a.2.2,0,0,0-.23,0,2.47,2.47,0,0,1-.77.32.21.21,0,0,0-.17.16l-.19.86H6.53l-.19-.86a.2.2,0,0,0-.16-.16,2.47,2.47,0,0,1-.77-.32.21.21,0,0,0-.24,0l-.74.47-.24-.24.47-.74a.21.21,0,0,0,0-.24,2.37,2.37,0,0,1-.32-.77.2.2,0,0,0-.16-.16l-.86-.19Z"/><path class="cls-3" d="M6.7,8.32a.91.91,0,1,0-.91-.91A.91.91,0,0,0,6.7,8.32Zm0-1.38a.47.47,0,1,1,0,.94.47.47,0,1,1,0-.94Z"/><path class="cls-4" d="M6.7,9.28A1.88,1.88,0,1,0,4.83,7.41,1.88,1.88,0,0,0,6.7,9.28ZM6.7,6a1.44,1.44,0,1,1,0,2.87A1.44,1.44,0,0,1,6.7,6Z"/><path class="cls-1" d="M20.9,4.42a1.1,1.1,0,1,0-1.1-1.1A1.1,1.1,0,0,0,20.9,4.42Zm0-1.76a.66.66,0,1,1-.66.66A.67.67,0,0,1,20.9,2.66Z"/><path class="cls-1" d="M18.48,19.8a1.1,1.1,0,1,0,0,2.2,1.1,1.1,0,0,0,0-2.2Zm0,1.76a.66.66,0,1,1,.66-.66A.66.66,0,0,1,18.48,21.56Z"/><path class="cls-1" d="M6.18,20.24a.88.88,0,1,0,.88.88A.88.88,0,0,0,6.18,20.24Zm0,1.32a.44.44,0,0,1,0-.88.44.44,0,1,1,0,.88Z"/><path class="cls-1" d="M12.37,17.87a.44.44,0,0,1-.44.44.44.44,0,0,1,0-.88.44.44,0,0,1,.44.44"/><path class="cls-1" d="M16.07,10.35h1.09a.22.22,0,0,0,0-.44H16.07a.22.22,0,0,0,0,.44Z"/><path class="cls-1" d="M17.82,10.35h.88a.22.22,0,1,0,0-.44h-.88a.22.22,0,0,0,0,.44Z"/><path class="cls-1" d="M16.07,11.23h2.19a.22.22,0,0,0,0-.44H16.07a.22.22,0,0,0,0,.44Z"/><path class="cls-1" d="M19.36,10.79h-.44a.22.22,0,0,0,0,.44h.44a.22.22,0,0,0,0-.44Z"/><path class="cls-1" d="M17.16,11.89a.22.22,0,0,0,.22.22h1.76a.22.22,0,0,0,0-.44H17.38a.22.22,0,0,0-.22.22Z"/><path class="cls-1" d="M16.07,13H17a.22.22,0,0,0,0-.44h-.88a.22.22,0,0,0,0,.44Z"/><path class="cls-1" d="M19.36,12.55H17.6a.22.22,0,0,0,0,.44h1.76a.22.22,0,0,0,0-.44Z"/><path class="cls-1" d="M16.07,13.87h1.09a.22.22,0,0,0,0-.44H16.07a.22.22,0,0,0,0,.44Z"/><path class="cls-1" d="M18.92,13.87a.22.22,0,0,0,0-.44h-1.1a.22.22,0,0,0,0,.44Z"/><path class="cls-1" d="M16.07,14.75h2.19a.22.22,0,0,0,0-.44H16.07a.22.22,0,0,0,0,.44Z"/><path class="cls-1" d="M19.36,14.31h-.44a.22.22,0,0,0,0,.44h.44a.22.22,0,0,0,0-.44Z"/><path class="cls-1" d="M19.14,15.19H17.38a.22.22,0,1,0,0,.44h1.76a.22.22,0,0,0,0-.44Z"/><path class="cls-1" d="M16.94,3.43a.33.33,0,1,1-.32-.33.32.32,0,0,1,.32.33"/><path class="cls-1" d="M19.14,2.77a.33.33,0,0,1-.33.33.33.33,0,0,1,0-.66.33.33,0,0,1,.33.33"/><path class="cls-1" d="M15.85,20.13a.33.33,0,0,1-.33.33.33.33,0,0,1,0-.66.33.33,0,0,1,.33.33"/><path class="cls-1" d="M21.56,20.13a.33.33,0,1,1-.33-.33.33.33,0,0,1,.33.33"/><path class="cls-1" d="M8.81,19.91a.33.33,0,0,1-.33.33.33.33,0,1,1,0-.66.33.33,0,0,1,.33.33"/><path class="cls-1" d="M3.76,20.79a.33.33,0,1,1-.33-.33.33.33,0,0,1,.33.33"/><path class="cls-1" d="M20.9,4.42a1.1,1.1,0,1,0-1.1-1.1A1.1,1.1,0,0,0,20.9,4.42Zm0-1.76a.66.66,0,1,1-.66.66A.67.67,0,0,1,20.9,2.66Z"/><path class="cls-1" d="M18.48,19.8a1.1,1.1,0,1,0,0,2.2,1.1,1.1,0,0,0,0-2.2Zm0,1.76a.66.66,0,1,1,.66-.66A.66.66,0,0,1,18.48,21.56Z"/><path class="cls-1" d="M6.18,20.24a.88.88,0,1,0,.88.88A.88.88,0,0,0,6.18,20.24Zm0,1.32a.44.44,0,0,1,0-.88.44.44,0,1,1,0,.88Z"/><path class="cls-5" d="M12.37,17.87a.44.44,0,0,1-.44.44.44.44,0,0,1,0-.88.44.44,0,0,1,.44.44"/><path class="cls-6" d="M16.07,10.35h1.09a.22.22,0,0,0,0-.44H16.07a.22.22,0,0,0,0,.44Z"/><path class="cls-7" d="M17.82,10.35h.88a.22.22,0,1,0,0-.44h-.88a.22.22,0,0,0,0,.44Z"/><path class="cls-8" d="M16.07,11.23h2.19a.22.22,0,0,0,0-.44H16.07a.22.22,0,0,0,0,.44Z"/><path class="cls-9" d="M19.36,10.79h-.44a.22.22,0,0,0,0,.44h.44a.22.22,0,0,0,0-.44Z"/><path class="cls-10" d="M17.16,11.89a.22.22,0,0,0,.22.22h1.76a.22.22,0,0,0,0-.44H17.38a.22.22,0,0,0-.22.22Z"/><path class="cls-11" d="M16.07,13H17a.22.22,0,0,0,0-.44h-.88a.22.22,0,0,0,0,.44Z"/><path class="cls-12" d="M19.36,12.55H17.6a.22.22,0,0,0,0,.44h1.76a.22.22,0,0,0,0-.44Z"/><path class="cls-13" d="M16.07,13.87h1.09a.22.22,0,0,0,0-.44H16.07a.22.22,0,0,0,0,.44Z"/><path class="cls-14" d="M18.92,13.87a.22.22,0,0,0,0-.44h-1.1a.22.22,0,0,0,0,.44Z"/><path class="cls-15" d="M16.07,14.75h2.19a.22.22,0,0,0,0-.44H16.07a.22.22,0,0,0,0,.44Z"/><path class="cls-16" d="M19.36,14.31h-.44a.22.22,0,0,0,0,.44h.44a.22.22,0,0,0,0-.44Z"/><path class="cls-17" d="M19.14,15.19H17.38a.22.22,0,1,0,0,.44h1.76a.22.22,0,0,0,0-.44Z"/><path class="cls-18" d="M16.94,3.43a.33.33,0,1,1-.32-.33.32.32,0,0,1,.32.33"/><path class="cls-19" d="M19.14,2.77a.33.33,0,0,1-.33.33.33.33,0,0,1,0-.66.33.33,0,0,1,.33.33"/><path class="cls-20" d="M15.85,20.13a.33.33,0,0,1-.33.33.33.33,0,0,1,0-.66.33.33,0,0,1,.33.33"/><path class="cls-21" d="M21.56,20.13a.33.33,0,1,1-.33-.33.33.33,0,0,1,.33.33"/><path class="cls-22" d="M8.81,19.91a.33.33,0,0,1-.33.33.33.33,0,1,1,0-.66.33.33,0,0,1,.33.33"/><path class="cls-23" d="M3.76,20.79a.33.33,0,1,1-.33-.33.33.33,0,0,1,.33.33"/><path class="cls-24" d="M20.9,4.42a1.1,1.1,0,1,0-1.1-1.1A1.1,1.1,0,0,0,20.9,4.42Zm0-1.76a.66.66,0,1,1-.66.66A.67.67,0,0,1,20.9,2.66Z"/><path class="cls-25" d="M18.48,19.8a1.1,1.1,0,1,0,0,2.2,1.1,1.1,0,0,0,0-2.2Zm0,1.76a.66.66,0,1,1,.66-.66A.66.66,0,0,1,18.48,21.56Z"/><path class="cls-26" d="M6.18,20.24a.88.88,0,1,0,.88.88A.88.88,0,0,0,6.18,20.24Zm0,1.32a.44.44,0,0,1,0-.88.44.44,0,1,1,0,.88Z"/></svg>