<svg id="Layer_1" data-name="Layer 1" xmlns="http://www.w3.org/2000/svg" xmlns:xlink="http://www.w3.org/1999/xlink" viewBox="0 0 24 24"><defs><style>.cls-1{fill:#002680;}.cls-2{fill:url(#linear-gradient);}.cls-3{fill:url(#linear-gradient-2);}.cls-4{fill:url(#linear-gradient-3);}.cls-5{fill:url(#linear-gradient-4);}.cls-6{fill:url(#linear-gradient-5);}.cls-7{fill:url(#linear-gradient-6);}.cls-8{fill:url(#linear-gradient-7);}.cls-9{fill:url(#linear-gradient-8);}.cls-10{fill:url(#linear-gradient-9);}</style><linearGradient id="linear-gradient" x1="4.66" y1="5.44" x2="4.65" y2="3.25" gradientUnits="userSpaceOnUse"><stop offset="0" stop-color="#10bef0"/><stop offset="0.27" stop-color="#10bef0" stop-opacity="0.67"/><stop offset="0.53" stop-color="#10bef0" stop-opacity="0.39"/><stop offset="0.75" stop-color="#10bef0" stop-opacity="0.18"/><stop offset="0.91" stop-color="#10bef0" stop-opacity="0.05"/><stop offset="1" stop-color="#10bef0" stop-opacity="0"/></linearGradient><linearGradient id="linear-gradient-2" x1="7.48" y1="5.44" x2="7.46" y2="3.25" xlink:href="#linear-gradient"/><linearGradient id="linear-gradient-3" x1="10.29" y1="5.44" x2="10.28" y2="3.25" xlink:href="#linear-gradient"/><linearGradient id="linear-gradient-4" x1="14.82" y1="20.71" x2="14.79" y2="17.03" xlink:href="#linear-gradient"/><linearGradient id="linear-gradient-5" x1="7.65" y1="15.44" x2="7.6" y2="7.94" xlink:href="#linear-gradient"/><linearGradient id="linear-gradient-6" x1="8.07" y1="13.29" x2="8.04" y2="10.08" xlink:href="#linear-gradient"/><linearGradient id="linear-gradient-7" x1="15.29" y1="8.9" x2="15.29" y2="8.23" xlink:href="#linear-gradient"/><linearGradient id="linear-gradient-8" x1="15.61" y1="11.08" x2="15.6" y2="10.42" xlink:href="#linear-gradient"/><linearGradient id="linear-gradient-9" x1="15.61" y1="13.27" x2="15.6" y2="12.6" xlink:href="#linear-gradient"/></defs><path class="cls-1" d="M4.66,5.44a1.1,1.1,0,1,0-1.1-1.1,1.09,1.09,0,0,0,1.1,1.1Zm0-1.56a.46.46,0,0,1,.47.46.47.47,0,0,1-.94,0A.46.46,0,0,1,4.66,3.88Z"/><path class="cls-1" d="M7.47,5.44a1.1,1.1,0,1,0-1.09-1.1A1.09,1.09,0,0,0,7.47,5.44Zm0-1.56a.46.46,0,0,1,.47.46.47.47,0,0,1-.94,0A.46.46,0,0,1,7.47,3.88Z"/><path class="cls-1" d="M10.28,5.44a1.1,1.1,0,1,0-1.09-1.1A1.1,1.1,0,0,0,10.28,5.44Zm0-1.56a.46.46,0,0,1,.47.46.47.47,0,1,1-.93,0A.46.46,0,0,1,10.28,3.88Z"/><path class="cls-1" d="M21.86,16.43a.32.32,0,0,0-.3,0l-.81.37V3.19A1.19,1.19,0,0,0,19.56,2H3.19A1.19,1.19,0,0,0,2,3.19V17.06a1.19,1.19,0,0,0,1.19,1.19h6.93v3.11a.64.64,0,0,0,.64.64h7.8a.64.64,0,0,0,.64-.64V20.27l2.36,1.08a.28.28,0,0,0,.13,0,.34.34,0,0,0,.17-.05.32.32,0,0,0,.14-.27V16.69a.32.32,0,0,0-.14-.27ZM3.19,2.63H19.56a.57.57,0,0,1,.57.56V6.06H2.63V3.19a.56.56,0,0,1,.56-.56ZM18.56,21.37H10.75v-5h7.8a0,0,0,0,1,0,0Zm0-5.62h-7.8a.64.64,0,0,0-.64.64v1.23H3.19a.56.56,0,0,1-.56-.56V6.68H20.12V17.06l-.92.42V16.39a.63.63,0,0,0-.64-.64Zm2.82,4.83-2.17-1V18.17l2.17-1Z"/><path class="cls-1" d="M16.38,18.4l-2.67-1.31a.54.54,0,0,0-.52,0,.52.52,0,0,0-.25.45v2.61a.53.53,0,0,0,.25.46.6.6,0,0,0,.28.08.53.53,0,0,0,.24-.06l2.67-1.3h0a.55.55,0,0,0,.3-.48.53.53,0,0,0-.3-.48ZM13.56,20V17.72l2.38,1.16Z"/><path class="cls-1" d="M7.63,7.94a3.75,3.75,0,1,0,3.75,3.75A3.75,3.75,0,0,0,7.63,7.94Zm0,6.87a3.13,3.13,0,1,1,3.12-3.12,3.13,3.13,0,0,1-3.12,3.12Z"/><path class="cls-1" d="M9.49,11.42,6.9,10.13a.29.29,0,0,0-.3,0,.3.3,0,0,0-.15.26V13a.3.3,0,0,0,.32.31l.14,0L9.49,12a.33.33,0,0,0,.18-.28.31.31,0,0,0-.18-.28ZM7.08,12.49V10.91l1.57.79Z"/><path class="cls-1" d="M18.58,8.25H12a.31.31,0,0,0-.31.31.32.32,0,0,0,.31.32h6.58a.32.32,0,0,0,.31-.32A.31.31,0,0,0,18.58,8.25Z"/><path class="cls-1" d="M18.58,10.44H12.63a.31.31,0,1,0,0,.62h5.95a.31.31,0,0,0,0-.62Z"/><path class="cls-1" d="M18.58,12.63H12.63a.31.31,0,1,0,0,.62h5.95a.31.31,0,1,0,0-.62Z"/><path class="cls-2" d="M4.66,5.44a1.1,1.1,0,1,0-1.1-1.1,1.09,1.09,0,0,0,1.1,1.1Zm0-1.56a.46.46,0,0,1,.47.46.47.47,0,0,1-.94,0A.46.46,0,0,1,4.66,3.88Z"/><path class="cls-3" d="M7.47,5.44a1.1,1.1,0,1,0-1.09-1.1A1.09,1.09,0,0,0,7.47,5.44Zm0-1.56a.46.46,0,0,1,.47.46.47.47,0,0,1-.94,0A.46.46,0,0,1,7.47,3.88Z"/><path class="cls-4" d="M10.28,5.44a1.1,1.1,0,1,0-1.09-1.1A1.1,1.1,0,0,0,10.28,5.44Zm0-1.56a.46.46,0,0,1,.47.46.47.47,0,1,1-.93,0A.46.46,0,0,1,10.28,3.88Z"/><path class="cls-5" d="M16.38,18.4l-2.67-1.31a.54.54,0,0,0-.52,0,.52.52,0,0,0-.25.45v2.61a.53.53,0,0,0,.25.46.6.6,0,0,0,.28.08.53.53,0,0,0,.24-.06l2.67-1.3h0a.55.55,0,0,0,.3-.48.53.53,0,0,0-.3-.48ZM13.56,20V17.72l2.38,1.16Z"/><path class="cls-6" d="M7.63,7.94a3.75,3.75,0,1,0,3.75,3.75A3.75,3.75,0,0,0,7.63,7.94Zm0,6.87a3.13,3.13,0,1,1,3.12-3.12,3.13,3.13,0,0,1-3.12,3.12Z"/><path class="cls-7" d="M9.49,11.42,6.9,10.13a.29.29,0,0,0-.3,0,.3.3,0,0,0-.15.26V13a.3.3,0,0,0,.32.31l.14,0L9.49,12a.33.33,0,0,0,.18-.28.31.31,0,0,0-.18-.28ZM7.08,12.49V10.91l1.57.79Z"/><path class="cls-8" d="M18.58,8.25H12a.31.31,0,0,0-.31.31.32.32,0,0,0,.31.32h6.58a.32.32,0,0,0,.31-.32A.31.31,0,0,0,18.58,8.25Z"/><path class="cls-9" d="M18.58,10.44H12.63a.31.31,0,1,0,0,.62h5.95a.31.31,0,0,0,0-.62Z"/><path class="cls-10" d="M18.58,12.63H12.63a.31.31,0,1,0,0,.62h5.95a.31.31,0,1,0,0-.62Z"/></svg>