<?xml version="1.0" encoding="utf-8"?>
<!-- Generator: Adobe Illustrator 25.2.1, SVG Export Plug-In . SVG Version: 6.00 Build 0)  -->
<svg version="1.1" id="Layer_1" xmlns="http://www.w3.org/2000/svg" xmlns:xlink="http://www.w3.org/1999/xlink" x="0px" y="0px"
	 viewBox="0 0 24 24" style="enable-background:new 0 0 24 24;" xml:space="preserve">
<style type="text/css">
	.st0{fill:#002680;}
	.st1{opacity:0.65;}
	.st2{fill:url(#SVGID_1_);}
	.st3{fill:url(#SVGID_2_);}
	.st4{fill:url(#SVGID_3_);}
	.st5{fill:url(#SVGID_4_);}
	.st6{fill:url(#SVGID_5_);}
	.st7{fill:url(#SVGID_6_);}
	.st8{fill:url(#SVGID_7_);}
	.st9{fill:url(#SVGID_8_);}
	.st10{fill:url(#SVGID_9_);}
	.st11{fill:url(#SVGID_10_);}
	.st12{fill:url(#SVGID_11_);}
	.st13{fill:url(#SVGID_12_);}
	.st14{fill:url(#SVGID_13_);}
	.st15{fill:url(#SVGID_14_);}
	.st16{fill:url(#SVGID_15_);}
	.st17{fill:url(#SVGID_16_);}
	.st18{fill:url(#SVGID_17_);}
	.st19{fill:url(#SVGID_18_);}
	.st20{fill:url(#SVGID_19_);}
	.st21{fill:url(#SVGID_20_);}
	.st22{fill:url(#SVGID_21_);}
	.st23{fill:url(#SVGID_22_);}
	.st24{fill:url(#SVGID_23_);}
	.st25{fill:url(#SVGID_24_);}
	.st26{fill:url(#SVGID_25_);}
	.st27{fill:url(#SVGID_26_);}
	.st28{fill:url(#SVGID_27_);}
	.st29{fill:#FFFFFF;}
	.st30{fill:url(#SVGID_28_);}
	.st31{fill:url(#SVGID_29_);}
	.st32{fill:url(#SVGID_30_);}
	.st33{fill:url(#SVGID_31_);}
	.st34{fill:url(#SVGID_32_);}
	.st35{fill:url(#SVGID_33_);}
	.st36{fill:url(#SVGID_34_);}
	.st37{fill:url(#SVGID_35_);}
	.st38{fill:url(#SVGID_36_);}
	.st39{fill:url(#SVGID_37_);}
	.st40{fill:url(#SVGID_38_);}
	.st41{fill:url(#SVGID_39_);}
	.st42{fill:url(#SVGID_40_);}
	.st43{fill:url(#SVGID_41_);}
	.st44{fill:url(#SVGID_42_);}
	.st45{fill:url(#SVGID_43_);}
	.st46{fill:url(#SVGID_44_);}
	.st47{fill:url(#SVGID_45_);}
	.st48{fill:url(#SVGID_46_);}
	.st49{fill:url(#SVGID_47_);}
	.st50{fill:url(#SVGID_48_);}
	.st51{fill:url(#SVGID_49_);}
	.st52{fill:url(#SVGID_50_);}
	.st53{fill:url(#SVGID_51_);}
	.st54{fill:url(#SVGID_52_);}
	.st55{fill:url(#SVGID_53_);}
	.st56{fill:url(#SVGID_54_);}
	.st57{fill:url(#SVGID_55_);}
	.st58{fill:url(#SVGID_56_);}
	.st59{fill:url(#SVGID_57_);}
	.st60{fill:url(#SVGID_58_);}
	.st61{fill:url(#SVGID_59_);}
	.st62{fill:url(#SVGID_60_);}
	.st63{fill:url(#SVGID_61_);}
	.st64{fill:url(#SVGID_62_);}
	.st65{fill:url(#SVGID_63_);}
	.st66{fill:url(#SVGID_64_);}
	.st67{fill:url(#SVGID_65_);}
	.st68{fill:url(#SVGID_66_);}
	.st69{fill:url(#SVGID_67_);}
	.st70{fill:url(#SVGID_68_);}
	.st71{fill:url(#SVGID_69_);}
	.st72{fill:url(#SVGID_70_);}
	.st73{fill:url(#SVGID_71_);}
	.st74{fill:url(#SVGID_72_);}
	.st75{fill:url(#SVGID_73_);}
	.st76{fill:url(#SVGID_74_);}
	.st77{fill:url(#SVGID_75_);}
	.st78{fill:url(#SVGID_76_);}
	.st79{fill:url(#SVGID_77_);}
	.st80{fill:url(#SVGID_78_);}
	.st81{fill:url(#SVGID_79_);}
	.st82{fill:url(#SVGID_80_);}
	.st83{fill:url(#SVGID_81_);}
	.st84{fill:url(#SVGID_82_);}
	.st85{fill:url(#SVGID_83_);}
	.st86{fill:url(#SVGID_84_);}
	.st87{fill:url(#SVGID_85_);}
	.st88{fill:url(#SVGID_86_);}
	.st89{fill:url(#SVGID_87_);}
	.st90{fill:url(#SVGID_88_);}
	.st91{fill:url(#SVGID_89_);}
	.st92{fill:url(#SVGID_90_);}
	.st93{fill:url(#SVGID_91_);}
	.st94{fill:url(#SVGID_92_);}
	.st95{fill:url(#SVGID_93_);}
	.st96{fill:url(#SVGID_94_);}
	.st97{fill:url(#SVGID_95_);}
	.st98{fill:url(#SVGID_96_);}
	.st99{fill:url(#SVGID_97_);}
	.st100{fill:url(#SVGID_98_);}
	.st101{fill:url(#SVGID_99_);}
	.st102{fill:url(#SVGID_100_);}
	.st103{fill:url(#SVGID_101_);}
	.st104{fill:url(#SVGID_102_);}
	.st105{fill:url(#SVGID_103_);}
	.st106{fill:url(#SVGID_104_);}
	.st107{fill:url(#SVGID_105_);}
	.st108{fill:url(#SVGID_106_);}
	.st109{fill:url(#SVGID_107_);}
	.st110{fill:url(#SVGID_108_);}
	.st111{fill:url(#SVGID_109_);}
	.st112{fill:url(#SVGID_110_);}
	.st113{fill:url(#SVGID_111_);}
	.st114{fill:url(#SVGID_112_);}
	.st115{fill:url(#SVGID_113_);}
	.st116{fill:url(#SVGID_114_);}
	.st117{fill:url(#SVGID_115_);}
	.st118{fill:url(#SVGID_116_);}
	.st119{fill:url(#SVGID_117_);}
	.st120{fill:url(#SVGID_118_);}
	.st121{fill:url(#SVGID_119_);}
	.st122{fill:url(#SVGID_120_);}
	.st123{fill:url(#SVGID_121_);}
	.st124{fill:url(#SVGID_122_);}
	.st125{fill:url(#SVGID_123_);}
	.st126{fill:url(#SVGID_124_);}
	.st127{fill:url(#SVGID_125_);}
	.st128{fill:url(#SVGID_126_);}
	.st129{fill:url(#SVGID_127_);}
	.st130{fill:url(#SVGID_128_);}
	.st131{fill:url(#SVGID_129_);}
	.st132{fill:url(#SVGID_130_);}
	.st133{fill:url(#SVGID_131_);}
	.st134{fill:url(#SVGID_132_);}
	.st135{fill:url(#SVGID_133_);}
	.st136{fill:url(#SVGID_134_);}
	.st137{fill:url(#SVGID_135_);}
	.st138{fill:url(#SVGID_136_);}
	.st139{fill:url(#SVGID_137_);}
	.st140{fill:url(#SVGID_138_);}
	.st141{fill:url(#SVGID_139_);}
	.st142{fill:url(#SVGID_140_);}
	.st143{fill:url(#SVGID_141_);}
	.st144{fill:url(#SVGID_142_);}
	.st145{fill:url(#SVGID_143_);}
	.st146{fill:url(#SVGID_144_);}
	.st147{fill:url(#SVGID_145_);}
	.st148{fill:url(#SVGID_146_);}
	.st149{fill:url(#SVGID_147_);}
	.st150{fill:url(#SVGID_148_);}
	.st151{fill:url(#SVGID_149_);}
	.st152{fill:url(#SVGID_150_);}
	.st153{fill:url(#SVGID_151_);}
	.st154{fill:url(#SVGID_152_);}
	.st155{fill:url(#SVGID_153_);}
	.st156{fill:url(#SVGID_154_);}
	.st157{fill:url(#SVGID_155_);}
	.st158{fill:url(#SVGID_156_);}
	.st159{fill:url(#SVGID_157_);}
	.st160{fill:url(#SVGID_158_);}
	.st161{fill:url(#SVGID_159_);}
	.st162{fill:url(#SVGID_160_);}
	.st163{fill:url(#SVGID_161_);}
	.st164{fill:url(#SVGID_162_);}
	.st165{fill:url(#SVGID_163_);}
	.st166{fill:url(#SVGID_164_);}
	.st167{fill:url(#SVGID_165_);}
	.st168{fill:url(#SVGID_166_);}
	.st169{fill:url(#SVGID_167_);}
	.st170{fill:url(#SVGID_168_);}
	.st171{fill:url(#SVGID_169_);}
	.st172{fill:url(#SVGID_170_);}
	.st173{fill:url(#SVGID_171_);}
	.st174{fill:url(#SVGID_172_);}
	.st175{fill:url(#SVGID_173_);}
	.st176{fill:url(#SVGID_174_);}
	.st177{fill:url(#SVGID_175_);}
	.st178{fill:url(#SVGID_176_);}
	.st179{fill:url(#SVGID_177_);}
	.st180{fill:url(#SVGID_178_);}
	.st181{fill:url(#SVGID_179_);}
	.st182{fill:url(#SVGID_180_);}
	.st183{fill:url(#SVGID_181_);}
	.st184{fill:url(#SVGID_182_);}
	.st185{fill:url(#SVGID_183_);}
	.st186{fill:url(#SVGID_184_);}
	.st187{fill:url(#SVGID_185_);}
	.st188{fill:url(#SVGID_186_);}
	.st189{fill:url(#SVGID_187_);}
	.st190{fill:url(#SVGID_188_);}
	.st191{fill:url(#SVGID_189_);}
	.st192{fill:url(#SVGID_190_);}
	.st193{fill:url(#SVGID_191_);}
	.st194{fill:url(#SVGID_192_);}
	.st195{fill:url(#SVGID_193_);}
	.st196{fill:url(#SVGID_194_);}
	.st197{fill:url(#SVGID_195_);}
	.st198{fill:url(#SVGID_196_);}
	.st199{fill:url(#SVGID_197_);}
	.st200{fill:url(#SVGID_198_);}
	.st201{fill:url(#SVGID_199_);}
	.st202{fill:url(#SVGID_200_);}
	.st203{fill:url(#SVGID_201_);}
	.st204{fill:url(#SVGID_202_);}
	.st205{fill:url(#SVGID_203_);}
	.st206{fill:url(#SVGID_204_);}
	.st207{fill:url(#SVGID_205_);}
	.st208{fill:url(#SVGID_206_);}
	.st209{fill:url(#SVGID_207_);}
	.st210{fill:url(#SVGID_208_);}
	.st211{fill:url(#SVGID_209_);}
	.st212{fill:url(#SVGID_210_);}
	.st213{fill:url(#SVGID_211_);}
	.st214{fill:url(#SVGID_212_);}
	.st215{fill:url(#SVGID_213_);}
	.st216{fill:url(#SVGID_214_);}
	.st217{fill:url(#SVGID_215_);}
	.st218{fill:url(#SVGID_216_);}
	.st219{fill:url(#SVGID_217_);}
	.st220{fill:url(#SVGID_218_);}
	.st221{fill:url(#SVGID_219_);}
	.st222{fill:url(#SVGID_220_);}
	.st223{fill:url(#SVGID_221_);}
	.st224{fill:url(#SVGID_222_);}
	.st225{fill:url(#SVGID_223_);}
	.st226{fill:url(#SVGID_224_);}
	.st227{fill:url(#SVGID_225_);}
	.st228{fill:url(#SVGID_226_);}
	.st229{fill:url(#SVGID_227_);}
	.st230{fill:url(#SVGID_228_);}
	.st231{fill:url(#SVGID_229_);}
	.st232{fill:url(#SVGID_230_);}
	.st233{fill:url(#SVGID_231_);}
	.st234{fill:url(#SVGID_232_);}
	.st235{fill:url(#SVGID_233_);}
	.st236{fill:url(#SVGID_234_);}
	.st237{fill:url(#SVGID_235_);}
	.st238{fill:url(#SVGID_236_);}
	.st239{fill:url(#SVGID_237_);}
	.st240{fill:url(#SVGID_238_);}
	.st241{fill:url(#SVGID_239_);}
	.st242{fill:url(#SVGID_240_);}
	.st243{fill:url(#SVGID_241_);}
	.st244{fill:url(#SVGID_242_);}
	.st245{fill:url(#SVGID_243_);}
	.st246{fill:url(#SVGID_244_);}
	.st247{fill:url(#SVGID_245_);}
	.st248{fill:url(#SVGID_246_);}
	.st249{fill:url(#SVGID_247_);}
</style>
<g>
	<path class="st0" d="M12,1.33c-2.22,0-4.39,0.7-6.2,1.99C3.99,4.61,2.63,6.44,1.91,8.54c-0.72,2.1-0.77,4.38-0.13,6.51
		c0.64,2.13,1.92,4.01,3.68,5.38c1.76,1.36,3.9,2.15,6.12,2.24c2.22,0.09,4.42-0.52,6.28-1.74l0.29-0.19l0.04-0.03
		c0.15-0.13,0.17-0.35,0.06-0.5c-0.11-0.16-0.33-0.2-0.5-0.1l-0.06,0.04c-0.08,0.06-0.16,0.11-0.24,0.16
		c-0.68,0.45-1.42,0.81-2.19,1.07c1.18-1.08,2.07-2.44,2.6-3.95h2.46c-0.11,0.16-0.21,0.32-0.32,0.47c-0.12,0.17-0.09,0.4,0.08,0.53
		s0.4,0.09,0.53-0.08c1.57-2.13,2.29-4.77,2.03-7.4s-1.5-5.07-3.46-6.85C17.2,2.31,14.65,1.33,12,1.33L12,1.33z M18.77,11.62
		c-0.03-1.46-0.26-2.9-0.68-4.3h2.63c0.72,1.32,1.13,2.79,1.19,4.3H18.77z M11.62,21.9c-1.95-0.2-3.66-1.93-4.67-4.48h4.67V21.9z
		 M6.68,16.67c-0.44-1.39-0.67-2.83-0.7-4.29h5.64v4.29H6.68z M2.09,12.38h3.14c0.03,1.46,0.26,2.9,0.68,4.3H3.28
		C2.56,15.35,2.16,13.88,2.09,12.38z M12.38,2.1c1.95,0.2,3.66,1.93,4.67,4.47h-4.67V2.1z M11.62,2.1v4.47H6.96
		C7.97,4.03,9.67,2.3,11.62,2.1L11.62,2.1z M11.62,7.32v4.31H5.98c0.03-1.46,0.27-2.91,0.71-4.3L11.62,7.32z M5.23,11.62H2.09
		c0.05-1.5,0.45-2.97,1.17-4.3h2.63C5.47,8.72,5.25,10.17,5.23,11.62L5.23,11.62z M12.38,12.38h5.64c-0.03,1.46-0.27,2.91-0.71,4.3
		h-4.93L12.38,12.38z M12.38,11.62v-4.3h4.94c0.44,1.39,0.68,2.84,0.7,4.3H12.38z M20.29,6.57h-2.46c-0.53-1.51-1.42-2.86-2.6-3.94
		C17.31,3.35,19.09,4.73,20.29,6.57L20.29,6.57z M8.76,2.63c-1.18,1.08-2.07,2.43-2.6,3.94H3.73C4.92,4.74,6.69,3.35,8.76,2.63
		L8.76,2.63z M3.7,17.42h2.46c0.53,1.51,1.42,2.87,2.6,3.95C6.68,20.65,4.9,19.26,3.7,17.42L3.7,17.42z M12.38,21.9v-4.48h4.67
		C16.03,19.97,14.33,21.7,12.38,21.9z M18.1,16.67c0.42-1.39,0.65-2.84,0.67-4.29h3.12c-0.05,1.5-0.45,2.97-1.15,4.3L18.1,16.67z"/>
	<path class="st0" d="M12,1.33c-2.22,0-4.39,0.7-6.2,1.99C3.99,4.61,2.63,6.44,1.91,8.54c-0.72,2.1-0.77,4.38-0.13,6.51
		c0.64,2.13,1.92,4.01,3.68,5.38c1.76,1.36,3.9,2.15,6.12,2.24c2.22,0.09,4.42-0.52,6.28-1.74l0.29-0.19l0.04-0.03
		c0.15-0.13,0.17-0.35,0.06-0.5c-0.11-0.16-0.33-0.2-0.5-0.1l-0.06,0.04c-0.08,0.06-0.16,0.11-0.24,0.16
		c-0.68,0.45-1.42,0.81-2.19,1.07c1.18-1.08,2.07-2.44,2.6-3.95h2.46c-0.11,0.16-0.21,0.32-0.32,0.47c-0.12,0.17-0.09,0.4,0.08,0.53
		s0.4,0.09,0.53-0.08c1.57-2.13,2.29-4.77,2.03-7.4s-1.5-5.07-3.46-6.85C17.2,2.31,14.65,1.33,12,1.33L12,1.33z M18.77,11.62
		c-0.03-1.46-0.26-2.9-0.68-4.3h2.63c0.72,1.32,1.13,2.79,1.19,4.3H18.77z M11.62,21.9c-1.95-0.2-3.66-1.93-4.67-4.48h4.67V21.9z
		 M6.68,16.67c-0.44-1.39-0.67-2.83-0.7-4.29h5.64v4.29H6.68z M2.09,12.38h3.14c0.03,1.46,0.26,2.9,0.68,4.3H3.28
		C2.56,15.35,2.16,13.88,2.09,12.38z M12.38,2.1c1.95,0.2,3.66,1.93,4.67,4.47h-4.67V2.1z M11.62,2.1v4.47H6.96
		C7.97,4.03,9.67,2.3,11.62,2.1L11.62,2.1z M11.62,7.32v4.31H5.98c0.03-1.46,0.27-2.91,0.71-4.3L11.62,7.32z M5.23,11.62H2.09
		c0.05-1.5,0.45-2.97,1.17-4.3h2.63C5.47,8.72,5.25,10.17,5.23,11.62L5.23,11.62z M12.38,12.38h5.64c-0.03,1.46-0.27,2.91-0.71,4.3
		h-4.93L12.38,12.38z M12.38,11.62v-4.3h4.94c0.44,1.39,0.68,2.84,0.7,4.3H12.38z M20.29,6.57h-2.46c-0.53-1.51-1.42-2.86-2.6-3.94
		C17.31,3.35,19.09,4.73,20.29,6.57L20.29,6.57z M8.76,2.63c-1.18,1.08-2.07,2.43-2.6,3.94H3.73C4.92,4.74,6.69,3.35,8.76,2.63
		L8.76,2.63z M3.7,17.42h2.46c0.53,1.51,1.42,2.87,2.6,3.95C6.68,20.65,4.9,19.26,3.7,17.42L3.7,17.42z M12.38,21.9v-4.48h4.67
		C16.03,19.97,14.33,21.7,12.38,21.9z M18.1,16.67c0.42-1.39,0.65-2.84,0.67-4.29h3.12c-0.05,1.5-0.45,2.97-1.15,4.3L18.1,16.67z"/>
	<path class="st0" d="M19.22,18.8c-0.09,0.1-0.19,0.2-0.3,0.3l-0.29,0.27c-0.11,0.1-0.15,0.27-0.1,0.41
		c0.06,0.14,0.19,0.24,0.35,0.24c0.1,0,0.19-0.03,0.27-0.1c0.11-0.09,0.21-0.19,0.32-0.3c0.11-0.11,0.21-0.21,0.32-0.32
		c0.07-0.07,0.11-0.17,0.11-0.27s-0.04-0.2-0.11-0.27c-0.07-0.08-0.18-0.12-0.29-0.12C19.39,18.67,19.29,18.72,19.22,18.8
		L19.22,18.8z"/>
	<linearGradient id="SVGID_1_" gradientUnits="userSpaceOnUse" x1="18.5047" y1="19.3509" x2="19.8938" y2="19.3509">
		<stop  offset="0" style="stop-color:#10BEF0"/>
		<stop  offset="1" style="stop-color:#10BEF0;stop-opacity:0"/>
	</linearGradient>
	<path class="st2" d="M19.22,18.8c-0.09,0.1-0.19,0.2-0.3,0.3l-0.29,0.27c-0.11,0.1-0.15,0.27-0.1,0.41
		c0.06,0.14,0.19,0.24,0.35,0.24c0.1,0,0.19-0.03,0.27-0.1c0.11-0.09,0.21-0.19,0.32-0.3c0.11-0.11,0.21-0.21,0.32-0.32
		c0.07-0.07,0.11-0.17,0.11-0.27s-0.04-0.2-0.11-0.27c-0.07-0.08-0.18-0.12-0.29-0.12C19.39,18.67,19.29,18.72,19.22,18.8
		L19.22,18.8z"/>
</g>
</svg>
