<svg id="Layer_1" data-name="Layer 1" xmlns="http://www.w3.org/2000/svg" xmlns:xlink="http://www.w3.org/1999/xlink" viewBox="0 0 24 24"><defs><style>.cls-1{fill:#002680;}.cls-2{fill:url(#linear-gradient);}.cls-3{fill:url(#linear-gradient-2);}.cls-4{fill:url(#linear-gradient-3);}.cls-5{fill:url(#linear-gradient-4);}.cls-6{fill:url(#linear-gradient-5);}.cls-7{fill:url(#linear-gradient-6);}.cls-8{fill:url(#linear-gradient-7);}.cls-9{fill:url(#linear-gradient-8);}.cls-10{fill:url(#linear-gradient-9);}.cls-11{fill:url(#linear-gradient-10);}</style><linearGradient id="linear-gradient" x1="9.75" y1="1.28" x2="9.63" y2="14.62" gradientUnits="userSpaceOnUse"><stop offset="0" stop-color="#10bef0"/><stop offset="0.27" stop-color="#10bef0" stop-opacity="0.67"/><stop offset="0.53" stop-color="#10bef0" stop-opacity="0.39"/><stop offset="0.75" stop-color="#10bef0" stop-opacity="0.18"/><stop offset="0.91" stop-color="#10bef0" stop-opacity="0.05"/><stop offset="1" stop-color="#10bef0" stop-opacity="0"/></linearGradient><linearGradient id="linear-gradient-2" x1="12.25" y1="1.31" x2="12.13" y2="14.64" xlink:href="#linear-gradient"/><linearGradient id="linear-gradient-3" x1="9.05" y1="1.28" x2="8.92" y2="14.61" xlink:href="#linear-gradient"/><linearGradient id="linear-gradient-4" x1="11.55" y1="1.3" x2="11.42" y2="14.63" xlink:href="#linear-gradient"/><linearGradient id="linear-gradient-5" x1="10.67" y1="1.29" x2="10.54" y2="14.62" xlink:href="#linear-gradient"/><linearGradient id="linear-gradient-6" x1="14.39" y1="1.33" x2="14.27" y2="14.66" xlink:href="#linear-gradient"/><linearGradient id="linear-gradient-7" x1="6.91" y1="1.26" x2="6.79" y2="14.59" xlink:href="#linear-gradient"/><linearGradient id="linear-gradient-8" x1="24.71" y1="11.54" x2="16.68" y2="14.26" xlink:href="#linear-gradient"/><linearGradient id="linear-gradient-9" x1="25.56" y1="9.96" x2="15.53" y2="17.66" xlink:href="#linear-gradient"/><linearGradient id="linear-gradient-10" x1="26.22" y1="10.83" x2="16.19" y2="18.52" xlink:href="#linear-gradient"/></defs><path class="cls-1" d="M8.79,9.14h1.78a.36.36,0,1,0,0-.71H8.79a.36.36,0,1,0,0,.71Z"/><path class="cls-1" d="M12.36,8.43H12a.36.36,0,1,0,0,.71h.36a.36.36,0,0,0,0-.71Z"/><path class="cls-1" d="M8.79,10.57h.35a.36.36,0,1,0,0-.71H8.79a.36.36,0,1,0,0,.71Z"/><path class="cls-1" d="M12.36,9.86H10.57a.36.36,0,1,0,0,.71h1.79a.36.36,0,0,0,0-.71Z"/><path class="cls-1" d="M8.79,12h3.57a.36.36,0,0,0,0-.71H8.79a.36.36,0,1,0,0,.71Z"/><path class="cls-1" d="M13.79,11.29V12a.34.34,0,0,1-.11.25.36.36,0,0,1-.25.11.36.36,0,1,0,0,.71A1.06,1.06,0,0,0,14.5,12v-.71a.74.74,0,0,1,.21-.51.71.71,0,0,1,.5-.21.36.36,0,1,0,0-.71.71.71,0,0,1-.5-.21.75.75,0,0,1-.21-.51V8.43a1.07,1.07,0,0,0-.31-.76,1.08,1.08,0,0,0-.76-.31.36.36,0,1,0,0,.71.36.36,0,0,1,.25.11.33.33,0,0,1,.11.25v.71a1.42,1.42,0,0,0,.49,1.07,1.43,1.43,0,0,0-.49,1.08Z"/><path class="cls-1" d="M7.36,9.14V8.43a.36.36,0,0,1,.35-.36.36.36,0,1,0,0-.71A1.06,1.06,0,0,0,7,7.67a1.07,1.07,0,0,0-.32.76v.71a.72.72,0,0,1-.71.72.36.36,0,1,0,0,.71.71.71,0,0,1,.5.21.69.69,0,0,1,.21.51V12a1.09,1.09,0,0,0,.32.76,1.06,1.06,0,0,0,.75.31.36.36,0,1,0,0-.71A.36.36,0,0,1,7.36,12v-.71a1.44,1.44,0,0,0-.5-1.08,1.43,1.43,0,0,0,.5-1.07Z"/><path class="cls-2" d="M8.79,9.14h1.78a.36.36,0,1,0,0-.71H8.79a.36.36,0,1,0,0,.71Z"/><path class="cls-3" d="M12.36,8.43H12a.36.36,0,1,0,0,.71h.36a.36.36,0,0,0,0-.71Z"/><path class="cls-4" d="M8.79,10.57h.35a.36.36,0,1,0,0-.71H8.79a.36.36,0,1,0,0,.71Z"/><path class="cls-5" d="M12.36,9.86H10.57a.36.36,0,1,0,0,.71h1.79a.36.36,0,0,0,0-.71Z"/><path class="cls-6" d="M8.79,12h3.57a.36.36,0,0,0,0-.71H8.79a.36.36,0,1,0,0,.71Z"/><path class="cls-7" d="M13.79,11.29V12a.34.34,0,0,1-.11.25.36.36,0,0,1-.25.11.36.36,0,1,0,0,.71A1.06,1.06,0,0,0,14.5,12v-.71a.74.74,0,0,1,.21-.51.71.71,0,0,1,.5-.21.36.36,0,1,0,0-.71.71.71,0,0,1-.5-.21.75.75,0,0,1-.21-.51V8.43a1.07,1.07,0,0,0-.31-.76,1.08,1.08,0,0,0-.76-.31.36.36,0,1,0,0,.71.36.36,0,0,1,.25.11.33.33,0,0,1,.11.25v.71a1.42,1.42,0,0,0,.49,1.07,1.43,1.43,0,0,0-.49,1.08Z"/><path class="cls-8" d="M7.36,9.14V8.43a.36.36,0,0,1,.35-.36.36.36,0,1,0,0-.71A1.06,1.06,0,0,0,7,7.67a1.07,1.07,0,0,0-.32.76v.71a.72.72,0,0,1-.71.72.36.36,0,1,0,0,.71.71.71,0,0,1,.5.21.69.69,0,0,1,.21.51V12a1.09,1.09,0,0,0,.32.76,1.06,1.06,0,0,0,.75.31.36.36,0,1,0,0-.71A.36.36,0,0,1,7.36,12v-.71a1.44,1.44,0,0,0-.5-1.08,1.43,1.43,0,0,0,.5-1.07Z"/><path class="cls-1" d="M20.93,9.5H17.36a1.07,1.07,0,0,0-.76.31,1.08,1.08,0,0,0-.31.76v7.14a1.08,1.08,0,0,0,1.07,1.08h3.57a1.09,1.09,0,0,0,.76-.32,1.07,1.07,0,0,0,.31-.76V10.57A1.06,1.06,0,0,0,20.93,9.5ZM17,11.64h4.29v5H17Zm.36-1.43h3.57a.38.38,0,0,1,.36.36v.36H17v-.36A.36.36,0,0,1,17.36,10.21Zm3.57,7.86H17.36a.36.36,0,0,1-.36-.36v-.35h4.29v.35a.36.36,0,0,1-.11.26A.39.39,0,0,1,20.93,18.07Z"/><path class="cls-1" d="M20.21,12.36H18.07a.36.36,0,0,0-.36.35v1.43a.36.36,0,0,0,.11.26.39.39,0,0,0,.25.1h2.14a.34.34,0,0,0,.36-.36V12.71a.39.39,0,0,0-.1-.25A.35.35,0,0,0,20.21,12.36Zm-.35,1.43H18.43v-.72h1.43Z"/><path class="cls-1" d="M18.43,15.21h-.36a.36.36,0,0,0,0,.72h.36a.36.36,0,0,0,0-.72Z"/><path class="cls-1" d="M20.21,15.21h-.35a.36.36,0,0,0,0,.72h.35a.36.36,0,0,0,0-.72Z"/><path class="cls-9" d="M20.21,12.36H18.07a.36.36,0,0,0-.36.35v1.43a.36.36,0,0,0,.11.26.39.39,0,0,0,.25.1h2.14a.34.34,0,0,0,.36-.36V12.71a.39.39,0,0,0-.1-.25A.35.35,0,0,0,20.21,12.36Zm-.35,1.43H18.43v-.72h1.43Z"/><path class="cls-10" d="M18.43,15.21h-.36a.36.36,0,0,0,0,.72h.36a.36.36,0,0,0,0-.72Z"/><path class="cls-11" d="M20.21,15.21h-.35a.36.36,0,0,0,0,.72h.35a.36.36,0,0,0,0-.72Z"/><path class="cls-1" d="M3.79,18.07A1.07,1.07,0,0,1,3,17.76,1.09,1.09,0,0,1,2.71,17v-.36h5.5l.26.52a.36.36,0,0,0,.32.2h3.57a.35.35,0,0,0,.31-.2l.27-.52h2.63v-.71H12.71a.34.34,0,0,0-.31.19l-.26.52H9l-.26-.52a.36.36,0,0,0-.32-.19H3.79v-.72H15.57V14.5H3.79V5.93H17.36V8.79h.71V5.57a.39.39,0,0,0-.1-.25.36.36,0,0,0-.26-.11H3.43a.36.36,0,0,0-.36.36V15.93H2.71a.67.67,0,0,0-.5.21.71.71,0,0,0-.21.5V17a1.79,1.79,0,0,0,1.79,1.79H15.93a1.63,1.63,0,0,1-.33-.72Z"/></svg>