<?xml version="1.0" encoding="utf-8"?>
<!-- Generator: Adobe Illustrator 25.2.1, SVG Export Plug-In . SVG Version: 6.00 Build 0)  -->
<svg version="1.1" id="Layer_1" xmlns="http://www.w3.org/2000/svg" xmlns:xlink="http://www.w3.org/1999/xlink" x="0px" y="0px"
	 viewBox="0 0 24 24" style="enable-background:new 0 0 24 24;" xml:space="preserve">
<style type="text/css">
	.st0{fill:#002680;}
	.st1{opacity:0.65;}
	.st2{fill:url(#SVGID_1_);}
	.st3{fill:url(#SVGID_2_);}
	.st4{fill:url(#SVGID_3_);}
	.st5{fill:url(#SVGID_4_);}
	.st6{fill:url(#SVGID_5_);}
	.st7{fill:url(#SVGID_6_);}
	.st8{fill:url(#SVGID_7_);}
	.st9{fill:url(#SVGID_8_);}
	.st10{fill:url(#SVGID_9_);}
	.st11{fill:url(#SVGID_10_);}
	.st12{fill:url(#SVGID_11_);}
	.st13{fill:url(#SVGID_12_);}
	.st14{fill:url(#SVGID_13_);}
	.st15{fill:url(#SVGID_14_);}
	.st16{fill:url(#SVGID_15_);}
	.st17{fill:url(#SVGID_16_);}
	.st18{fill:url(#SVGID_17_);}
	.st19{fill:url(#SVGID_18_);}
	.st20{fill:url(#SVGID_19_);}
	.st21{fill:url(#SVGID_20_);}
	.st22{fill:url(#SVGID_21_);}
	.st23{fill:url(#SVGID_22_);}
	.st24{fill:url(#SVGID_23_);}
	.st25{fill:url(#SVGID_24_);}
	.st26{fill:url(#SVGID_25_);}
	.st27{fill:url(#SVGID_26_);}
	.st28{fill:url(#SVGID_27_);}
	.st29{fill:#FFFFFF;}
	.st30{fill:url(#SVGID_28_);}
	.st31{fill:url(#SVGID_29_);}
	.st32{fill:url(#SVGID_30_);}
	.st33{fill:url(#SVGID_31_);}
	.st34{fill:url(#SVGID_32_);}
	.st35{fill:url(#SVGID_33_);}
	.st36{fill:url(#SVGID_34_);}
	.st37{fill:url(#SVGID_35_);}
	.st38{fill:url(#SVGID_36_);}
	.st39{fill:url(#SVGID_37_);}
	.st40{fill:url(#SVGID_38_);}
	.st41{fill:url(#SVGID_39_);}
	.st42{fill:url(#SVGID_40_);}
	.st43{fill:url(#SVGID_41_);}
	.st44{fill:url(#SVGID_42_);}
	.st45{fill:url(#SVGID_43_);}
	.st46{fill:url(#SVGID_44_);}
	.st47{fill:url(#SVGID_45_);}
	.st48{fill:url(#SVGID_46_);}
	.st49{fill:url(#SVGID_47_);}
	.st50{fill:url(#SVGID_48_);}
	.st51{fill:url(#SVGID_49_);}
	.st52{fill:url(#SVGID_50_);}
	.st53{fill:url(#SVGID_51_);}
	.st54{fill:url(#SVGID_52_);}
	.st55{fill:url(#SVGID_53_);}
	.st56{fill:url(#SVGID_54_);}
	.st57{fill:url(#SVGID_55_);}
	.st58{fill:url(#SVGID_56_);}
	.st59{fill:url(#SVGID_57_);}
	.st60{fill:url(#SVGID_58_);}
	.st61{fill:url(#SVGID_59_);}
	.st62{fill:url(#SVGID_60_);}
	.st63{fill:url(#SVGID_61_);}
	.st64{fill:url(#SVGID_62_);}
	.st65{fill:url(#SVGID_63_);}
	.st66{fill:url(#SVGID_64_);}
	.st67{fill:url(#SVGID_65_);}
	.st68{fill:url(#SVGID_66_);}
	.st69{fill:url(#SVGID_67_);}
	.st70{fill:url(#SVGID_68_);}
	.st71{fill:url(#SVGID_69_);}
	.st72{fill:url(#SVGID_70_);}
	.st73{fill:url(#SVGID_71_);}
	.st74{fill:url(#SVGID_72_);}
	.st75{fill:url(#SVGID_73_);}
	.st76{fill:url(#SVGID_74_);}
	.st77{fill:url(#SVGID_75_);}
	.st78{fill:url(#SVGID_76_);}
	.st79{fill:url(#SVGID_77_);}
	.st80{fill:url(#SVGID_78_);}
	.st81{fill:url(#SVGID_79_);}
	.st82{fill:url(#SVGID_80_);}
	.st83{fill:url(#SVGID_81_);}
	.st84{fill:url(#SVGID_82_);}
	.st85{fill:url(#SVGID_83_);}
	.st86{fill:url(#SVGID_84_);}
	.st87{fill:url(#SVGID_85_);}
	.st88{fill:url(#SVGID_86_);}
	.st89{fill:url(#SVGID_87_);}
	.st90{fill:url(#SVGID_88_);}
	.st91{fill:url(#SVGID_89_);}
	.st92{fill:url(#SVGID_90_);}
	.st93{fill:url(#SVGID_91_);}
	.st94{fill:url(#SVGID_92_);}
	.st95{fill:url(#SVGID_93_);}
	.st96{fill:url(#SVGID_94_);}
	.st97{fill:url(#SVGID_95_);}
	.st98{fill:url(#SVGID_96_);}
	.st99{fill:url(#SVGID_97_);}
	.st100{fill:url(#SVGID_98_);}
	.st101{fill:url(#SVGID_99_);}
	.st102{fill:url(#SVGID_100_);}
	.st103{fill:url(#SVGID_101_);}
	.st104{fill:url(#SVGID_102_);}
	.st105{fill:url(#SVGID_103_);}
	.st106{fill:url(#SVGID_104_);}
	.st107{fill:url(#SVGID_105_);}
	.st108{fill:url(#SVGID_106_);}
	.st109{fill:url(#SVGID_107_);}
	.st110{fill:url(#SVGID_108_);}
	.st111{fill:url(#SVGID_109_);}
	.st112{fill:url(#SVGID_110_);}
	.st113{fill:url(#SVGID_111_);}
	.st114{fill:url(#SVGID_112_);}
	.st115{fill:url(#SVGID_113_);}
	.st116{fill:url(#SVGID_114_);}
	.st117{fill:url(#SVGID_115_);}
	.st118{fill:url(#SVGID_116_);}
	.st119{fill:url(#SVGID_117_);}
	.st120{fill:url(#SVGID_118_);}
	.st121{fill:url(#SVGID_119_);}
	.st122{fill:url(#SVGID_120_);}
	.st123{fill:url(#SVGID_121_);}
	.st124{fill:url(#SVGID_122_);}
	.st125{fill:url(#SVGID_123_);}
	.st126{fill:url(#SVGID_124_);}
	.st127{fill:url(#SVGID_125_);}
	.st128{fill:url(#SVGID_126_);}
	.st129{fill:url(#SVGID_127_);}
	.st130{fill:url(#SVGID_128_);}
	.st131{fill:url(#SVGID_129_);}
	.st132{fill:url(#SVGID_130_);}
	.st133{fill:url(#SVGID_131_);}
	.st134{fill:url(#SVGID_132_);}
	.st135{fill:url(#SVGID_133_);}
	.st136{fill:url(#SVGID_134_);}
	.st137{fill:url(#SVGID_135_);}
	.st138{fill:url(#SVGID_136_);}
	.st139{fill:url(#SVGID_137_);}
	.st140{fill:url(#SVGID_138_);}
	.st141{fill:url(#SVGID_139_);}
	.st142{fill:url(#SVGID_140_);}
	.st143{fill:url(#SVGID_141_);}
	.st144{fill:url(#SVGID_142_);}
	.st145{fill:url(#SVGID_143_);}
	.st146{fill:url(#SVGID_144_);}
	.st147{fill:url(#SVGID_145_);}
	.st148{fill:url(#SVGID_146_);}
	.st149{fill:url(#SVGID_147_);}
	.st150{fill:url(#SVGID_148_);}
	.st151{fill:url(#SVGID_149_);}
	.st152{fill:url(#SVGID_150_);}
	.st153{fill:url(#SVGID_151_);}
	.st154{fill:url(#SVGID_152_);}
	.st155{fill:url(#SVGID_153_);}
	.st156{fill:url(#SVGID_154_);}
	.st157{fill:url(#SVGID_155_);}
	.st158{fill:url(#SVGID_156_);}
	.st159{fill:url(#SVGID_157_);}
	.st160{fill:url(#SVGID_158_);}
	.st161{fill:url(#SVGID_159_);}
	.st162{fill:url(#SVGID_160_);}
	.st163{fill:url(#SVGID_161_);}
	.st164{fill:url(#SVGID_162_);}
	.st165{fill:url(#SVGID_163_);}
	.st166{fill:url(#SVGID_164_);}
	.st167{fill:url(#SVGID_165_);}
	.st168{fill:url(#SVGID_166_);}
	.st169{fill:url(#SVGID_167_);}
	.st170{fill:url(#SVGID_168_);}
	.st171{fill:url(#SVGID_169_);}
	.st172{fill:url(#SVGID_170_);}
	.st173{fill:url(#SVGID_171_);}
	.st174{fill:url(#SVGID_172_);}
	.st175{fill:url(#SVGID_173_);}
	.st176{fill:url(#SVGID_174_);}
	.st177{fill:url(#SVGID_175_);}
	.st178{fill:url(#SVGID_176_);}
	.st179{fill:url(#SVGID_177_);}
	.st180{fill:url(#SVGID_178_);}
	.st181{fill:url(#SVGID_179_);}
	.st182{fill:url(#SVGID_180_);}
	.st183{fill:url(#SVGID_181_);}
	.st184{fill:url(#SVGID_182_);}
	.st185{fill:url(#SVGID_183_);}
	.st186{fill:url(#SVGID_184_);}
	.st187{fill:url(#SVGID_185_);}
	.st188{fill:url(#SVGID_186_);}
	.st189{fill:url(#SVGID_187_);}
	.st190{fill:url(#SVGID_188_);}
	.st191{fill:url(#SVGID_189_);}
	.st192{fill:url(#SVGID_190_);}
	.st193{fill:url(#SVGID_191_);}
	.st194{fill:url(#SVGID_192_);}
	.st195{fill:url(#SVGID_193_);}
	.st196{fill:url(#SVGID_194_);}
	.st197{fill:url(#SVGID_195_);}
	.st198{fill:url(#SVGID_196_);}
	.st199{fill:url(#SVGID_197_);}
	.st200{fill:url(#SVGID_198_);}
	.st201{fill:url(#SVGID_199_);}
	.st202{fill:url(#SVGID_200_);}
	.st203{fill:url(#SVGID_201_);}
	.st204{fill:url(#SVGID_202_);}
	.st205{fill:url(#SVGID_203_);}
	.st206{fill:url(#SVGID_204_);}
	.st207{fill:url(#SVGID_205_);}
	.st208{fill:url(#SVGID_206_);}
	.st209{fill:url(#SVGID_207_);}
	.st210{fill:url(#SVGID_208_);}
	.st211{fill:url(#SVGID_209_);}
	.st212{fill:url(#SVGID_210_);}
	.st213{fill:url(#SVGID_211_);}
	.st214{fill:url(#SVGID_212_);}
	.st215{fill:url(#SVGID_213_);}
	.st216{fill:url(#SVGID_214_);}
	.st217{fill:url(#SVGID_215_);}
	.st218{fill:url(#SVGID_216_);}
	.st219{fill:url(#SVGID_217_);}
	.st220{fill:url(#SVGID_218_);}
	.st221{fill:url(#SVGID_219_);}
	.st222{fill:url(#SVGID_220_);}
	.st223{fill:url(#SVGID_221_);}
	.st224{fill:url(#SVGID_222_);}
	.st225{fill:url(#SVGID_223_);}
	.st226{fill:url(#SVGID_224_);}
	.st227{fill:url(#SVGID_225_);}
	.st228{fill:url(#SVGID_226_);}
	.st229{fill:url(#SVGID_227_);}
	.st230{fill:url(#SVGID_228_);}
	.st231{fill:url(#SVGID_229_);}
	.st232{fill:url(#SVGID_230_);}
	.st233{fill:url(#SVGID_231_);}
	.st234{fill:url(#SVGID_232_);}
	.st235{fill:url(#SVGID_233_);}
	.st236{fill:url(#SVGID_234_);}
	.st237{fill:url(#SVGID_235_);}
	.st238{fill:url(#SVGID_236_);}
	.st239{fill:url(#SVGID_237_);}
	.st240{fill:url(#SVGID_238_);}
	.st241{fill:url(#SVGID_239_);}
	.st242{fill:url(#SVGID_240_);}
	.st243{fill:url(#SVGID_241_);}
	.st244{fill:url(#SVGID_242_);}
	.st245{fill:url(#SVGID_243_);}
	.st246{fill:url(#SVGID_244_);}
	.st247{fill:url(#SVGID_245_);}
	.st248{fill:url(#SVGID_246_);}
	.st249{fill:url(#SVGID_247_);}
</style>
<g>
	<g>
		<path class="st0" d="M19.95,5.27c-1.08-1.28-2.44-2.27-3.99-2.91c0.9,1.15,1.58,2.46,2,3.87C18.66,5.97,19.32,5.65,19.95,5.27
			L19.95,5.27z"/>
		<path class="st0" d="M12.68,1.66v5.56c1.34-0.04,2.67-0.24,3.96-0.58C15.79,3.99,14.34,2.08,12.68,1.66L12.68,1.66z"/>
		<path class="st0" d="M7.36,6.64c1.29,0.34,2.62,0.53,3.96,0.58V1.66C9.66,2.08,8.2,3.99,7.36,6.64L7.36,6.64z"/>
		<path class="st0" d="M8.03,2.36C6.49,3,5.12,4,4.05,5.27c0.63,0.38,1.29,0.71,1.98,0.96C6.45,4.82,7.13,3.51,8.03,2.36L8.03,2.36z
			"/>
		<path class="st0" d="M5.67,7.55C4.82,7.25,4,6.85,3.23,6.37C2.27,7.85,1.71,9.55,1.6,11.32h3.6C5.24,10.05,5.39,8.79,5.67,7.55
			L5.67,7.55z"/>
		<path class="st0" d="M6.56,11.32h4.75V8.58c-1.46-0.04-2.9-0.25-4.31-0.62C6.75,9.07,6.61,10.19,6.56,11.32L6.56,11.32z"/>
		<path class="st0" d="M16.99,7.97c-1.41,0.37-2.86,0.58-4.32,0.62v2.73h4.76C17.39,10.19,17.25,9.07,16.99,7.97L16.99,7.97z"/>
		<path class="st0" d="M18.8,11.32h3.6c-0.11-1.76-0.68-3.47-1.64-4.95C20,6.85,19.18,7.25,18.33,7.55
			C18.61,8.79,18.76,10.05,18.8,11.32L18.8,11.32z"/>
		<path class="st0" d="M15.97,21.64c1.54-0.64,2.91-1.64,3.99-2.91c-0.63-0.39-1.3-0.71-1.99-0.96
			C17.55,19.18,16.87,20.49,15.97,21.64L15.97,21.64z"/>
		<path class="st0" d="M12.68,16.78v5.56c1.66-0.42,3.11-2.33,3.96-4.99C15.35,17.01,14.02,16.82,12.68,16.78L12.68,16.78z"/>
		<path class="st0" d="M11.32,22.34v-5.56c-1.34,0.04-2.67,0.24-3.96,0.58C8.21,20.01,9.66,21.92,11.32,22.34L11.32,22.34z"/>
		<path class="st0" d="M4.05,18.73c1.08,1.28,2.44,2.27,3.99,2.91c-0.9-1.15-1.58-2.46-2-3.87C5.34,18.03,4.68,18.35,4.05,18.73
			L4.05,18.73z"/>
		<path class="st0" d="M5.2,12.68H1.6c0.11,1.76,0.68,3.47,1.64,4.95c0.77-0.49,1.59-0.88,2.44-1.19
			C5.39,15.21,5.24,13.95,5.2,12.68L5.2,12.68z"/>
		<path class="st0" d="M7.01,16.03c1.41-0.37,2.86-0.57,4.32-0.62v-2.73H6.57C6.61,13.81,6.76,14.93,7.01,16.03L7.01,16.03z"/>
		<path class="st0" d="M17.43,12.68h-4.75v2.73c1.46,0.04,2.9,0.25,4.31,0.62C17.25,14.93,17.39,13.81,17.43,12.68L17.43,12.68z"/>
		<path class="st0" d="M18.33,16.45c0.86,0.3,1.68,0.7,2.44,1.19c0.96-1.48,1.52-3.19,1.64-4.95h-3.6
			C18.76,13.95,18.61,15.21,18.33,16.45L18.33,16.45z"/>
	</g>
	<g>
		<linearGradient id="SVGID_1_" gradientUnits="userSpaceOnUse" x1="15.9662" y1="4.2867" x2="19.9529" y2="4.2867">
			<stop  offset="0" style="stop-color:#10BEF0"/>
			<stop  offset="1" style="stop-color:#10BEF0;stop-opacity:0"/>
		</linearGradient>
		<path class="st2" d="M19.95,5.27c-1.08-1.28-2.44-2.27-3.99-2.91c0.9,1.15,1.58,2.46,2,3.87C18.66,5.97,19.32,5.65,19.95,5.27
			L19.95,5.27z"/>
		<linearGradient id="SVGID_2_" gradientUnits="userSpaceOnUse" x1="12.6822" y1="4.4387" x2="16.6439" y2="4.4387">
			<stop  offset="0" style="stop-color:#10BEF0"/>
			<stop  offset="1" style="stop-color:#10BEF0;stop-opacity:0"/>
		</linearGradient>
		<path class="st3" d="M12.68,1.66v5.56c1.34-0.04,2.67-0.24,3.96-0.58C15.79,3.99,14.34,2.08,12.68,1.66L12.68,1.66z"/>
		<linearGradient id="SVGID_3_" gradientUnits="userSpaceOnUse" x1="7.3555" y1="4.4386" x2="11.3172" y2="4.4386">
			<stop  offset="0" style="stop-color:#10BEF0"/>
			<stop  offset="1" style="stop-color:#10BEF0;stop-opacity:0"/>
		</linearGradient>
		<path class="st4" d="M7.36,6.64c1.29,0.34,2.62,0.53,3.96,0.58V1.66C9.66,2.08,8.2,3.99,7.36,6.64L7.36,6.64z"/>
		<linearGradient id="SVGID_4_" gradientUnits="userSpaceOnUse" x1="4.0473" y1="4.2932" x2="8.0341" y2="4.2932">
			<stop  offset="0" style="stop-color:#10BEF0"/>
			<stop  offset="1" style="stop-color:#10BEF0;stop-opacity:0"/>
		</linearGradient>
		<path class="st5" d="M8.03,2.36C6.49,3,5.12,4,4.05,5.27c0.63,0.38,1.29,0.71,1.98,0.96C6.45,4.82,7.13,3.51,8.03,2.36L8.03,2.36z
			"/>
		<linearGradient id="SVGID_5_" gradientUnits="userSpaceOnUse" x1="1.5964" y1="8.8417" x2="5.6746" y2="8.8417">
			<stop  offset="0" style="stop-color:#10BEF0"/>
			<stop  offset="1" style="stop-color:#10BEF0;stop-opacity:0"/>
		</linearGradient>
		<path class="st6" d="M5.67,7.55C4.82,7.25,4,6.85,3.23,6.37C2.27,7.85,1.71,9.55,1.6,11.32h3.6C5.24,10.05,5.39,8.79,5.67,7.55
			L5.67,7.55z"/>
		<linearGradient id="SVGID_6_" gradientUnits="userSpaceOnUse" x1="6.5648" y1="9.6428" x2="11.3173" y2="9.6428">
			<stop  offset="0" style="stop-color:#10BEF0"/>
			<stop  offset="1" style="stop-color:#10BEF0;stop-opacity:0"/>
		</linearGradient>
		<path class="st7" d="M6.56,11.32h4.75V8.58c-1.46-0.04-2.9-0.25-4.31-0.62C6.75,9.07,6.61,10.19,6.56,11.32L6.56,11.32z"/>
		<linearGradient id="SVGID_7_" gradientUnits="userSpaceOnUse" x1="12.67" y1="9.6422" x2="17.4306" y2="9.6422">
			<stop  offset="0" style="stop-color:#10BEF0"/>
			<stop  offset="1" style="stop-color:#10BEF0;stop-opacity:0"/>
		</linearGradient>
		<path class="st8" d="M16.99,7.97c-1.41,0.37-2.86,0.58-4.32,0.62v2.73h4.76C17.39,10.19,17.25,9.07,16.99,7.97L16.99,7.97z"/>
		<linearGradient id="SVGID_8_" gradientUnits="userSpaceOnUse" x1="18.3252" y1="8.8417" x2="22.4033" y2="8.8417">
			<stop  offset="0" style="stop-color:#10BEF0"/>
			<stop  offset="1" style="stop-color:#10BEF0;stop-opacity:0"/>
		</linearGradient>
		<path class="st9" d="M18.8,11.32h3.6c-0.11-1.76-0.68-3.47-1.64-4.95C20,6.85,19.18,7.25,18.33,7.55
			C18.61,8.79,18.76,10.05,18.8,11.32L18.8,11.32z"/>
		<linearGradient id="SVGID_9_" gradientUnits="userSpaceOnUse" x1="15.9659" y1="19.7068" x2="19.9527" y2="19.7068">
			<stop  offset="0" style="stop-color:#10BEF0"/>
			<stop  offset="1" style="stop-color:#10BEF0;stop-opacity:0"/>
		</linearGradient>
		<path class="st10" d="M15.97,21.64c1.54-0.64,2.91-1.64,3.99-2.91c-0.63-0.39-1.3-0.71-1.99-0.96
			C17.55,19.18,16.87,20.49,15.97,21.64L15.97,21.64z"/>
		<linearGradient id="SVGID_10_" gradientUnits="userSpaceOnUse" x1="12.6822" y1="19.5611" x2="16.6439" y2="19.5611">
			<stop  offset="0" style="stop-color:#10BEF0"/>
			<stop  offset="1" style="stop-color:#10BEF0;stop-opacity:0"/>
		</linearGradient>
		<path class="st11" d="M12.68,16.78v5.56c1.66-0.42,3.11-2.33,3.96-4.99C15.35,17.01,14.02,16.82,12.68,16.78L12.68,16.78z"/>
		<linearGradient id="SVGID_11_" gradientUnits="userSpaceOnUse" x1="7.3561" y1="19.5614" x2="11.3178" y2="19.5614">
			<stop  offset="0" style="stop-color:#10BEF0"/>
			<stop  offset="1" style="stop-color:#10BEF0;stop-opacity:0"/>
		</linearGradient>
		<path class="st12" d="M11.32,22.34v-5.56c-1.34,0.04-2.67,0.24-3.96,0.58C8.21,20.01,9.66,21.92,11.32,22.34L11.32,22.34z"/>
		<linearGradient id="SVGID_12_" gradientUnits="userSpaceOnUse" x1="4.0471" y1="19.7134" x2="8.0338" y2="19.7134">
			<stop  offset="0" style="stop-color:#10BEF0"/>
			<stop  offset="1" style="stop-color:#10BEF0;stop-opacity:0"/>
		</linearGradient>
		<path class="st13" d="M4.05,18.73c1.08,1.28,2.44,2.27,3.99,2.91c-0.9-1.15-1.58-2.46-2-3.87C5.34,18.03,4.68,18.35,4.05,18.73
			L4.05,18.73z"/>
		<linearGradient id="SVGID_13_" gradientUnits="userSpaceOnUse" x1="1.5967" y1="15.1583" x2="5.6748" y2="15.1583">
			<stop  offset="0" style="stop-color:#10BEF0"/>
			<stop  offset="1" style="stop-color:#10BEF0;stop-opacity:0"/>
		</linearGradient>
		<path class="st14" d="M5.2,12.68H1.6c0.11,1.76,0.68,3.47,1.64,4.95c0.77-0.49,1.59-0.88,2.44-1.19
			C5.39,15.21,5.24,13.95,5.2,12.68L5.2,12.68z"/>
		<linearGradient id="SVGID_14_" gradientUnits="userSpaceOnUse" x1="6.5651" y1="14.3579" x2="11.33" y2="14.3579">
			<stop  offset="0" style="stop-color:#10BEF0"/>
			<stop  offset="1" style="stop-color:#10BEF0;stop-opacity:0"/>
		</linearGradient>
		<path class="st15" d="M7.01,16.03c1.41-0.37,2.86-0.57,4.32-0.62v-2.73H6.57C6.61,13.81,6.76,14.93,7.01,16.03L7.01,16.03z"/>
		<linearGradient id="SVGID_15_" gradientUnits="userSpaceOnUse" x1="12.6826" y1="14.3573" x2="17.4307" y2="14.3573">
			<stop  offset="0" style="stop-color:#10BEF0"/>
			<stop  offset="1" style="stop-color:#10BEF0;stop-opacity:0"/>
		</linearGradient>
		<path class="st16" d="M17.43,12.68h-4.75v2.73c1.46,0.04,2.9,0.25,4.31,0.62C17.25,14.93,17.39,13.81,17.43,12.68L17.43,12.68z"/>
		<linearGradient id="SVGID_16_" gradientUnits="userSpaceOnUse" x1="18.3254" y1="15.1583" x2="22.4036" y2="15.1583">
			<stop  offset="0" style="stop-color:#10BEF0"/>
			<stop  offset="1" style="stop-color:#10BEF0;stop-opacity:0"/>
		</linearGradient>
		<path class="st17" d="M18.33,16.45c0.86,0.3,1.68,0.7,2.44,1.19c0.96-1.48,1.52-3.19,1.64-4.95h-3.6
			C18.76,13.95,18.61,15.21,18.33,16.45L18.33,16.45z"/>
	</g>
</g>
</svg>
