<svg id="Layer_1" data-name="Layer 1" xmlns="http://www.w3.org/2000/svg" viewBox="0 0 24 24"><defs><style>.cls-1{fill:#61dafb;}</style></defs><path class="cls-1" d="M23,12.18c0-1.47-1.85-2.87-4.68-3.74.65-2.88.36-5.18-.92-5.92a2,2,0,0,0-1-.25v1a1,1,0,0,1,.51.12c.62.35.89,1.7.68,3.44,0,.42-.13.87-.23,1.33a20.22,20.22,0,0,0-2.89-.49,21,21,0,0,0-1.88-2.27C14.06,4,15.45,3.28,16.39,3.28v-1c-1.25,0-2.88.89-4.54,2.44C10.2,3.16,8.57,2.28,7.32,2.28v1c.94,0,2.33.75,3.81,2.12A22,22,0,0,0,9.26,7.68a18.88,18.88,0,0,0-2.89.5q-.15-.69-.24-1.32c-.21-1.74,0-3.08.67-3.44a1,1,0,0,1,.52-.12v-1a2.07,2.07,0,0,0-1,.25c-1.27.74-1.56,3-.9,5.91C2.57,9.32.73,10.71.73,12.18s1.85,2.88,4.68,3.74c-.66,2.89-.37,5.19.91,5.92a2,2,0,0,0,1,.26c1.24,0,2.88-.89,4.53-2.43,1.65,1.53,3.29,2.41,4.54,2.41a2,2,0,0,0,1-.25c1.28-.74,1.56-3,.91-5.91,2.81-.87,4.65-2.26,4.65-3.74Zm-5.91-3c-.17.58-.38,1.19-.61,1.79-.19-.36-.39-.73-.6-1.09s-.43-.72-.65-1.06a18,18,0,0,1,1.86.36ZM15,14c-.35.61-.72,1.2-1.09,1.74-.68,0-1.37.09-2.06.09s-1.37,0-2-.09c-.38-.54-.74-1.12-1.1-1.73s-.66-1.19-.94-1.8c.28-.61.6-1.22.94-1.81s.71-1.2,1.09-1.74c.68-.06,1.36-.09,2-.09s1.37,0,2.05.09c.37.54.74,1.11,1.1,1.72s.65,1.2.94,1.81C15.66,12.79,15.35,13.4,15,14Zm1.47-.59c.23.59.44,1.2.62,1.81-.59.14-1.22.27-1.87.36.22-.35.45-.71.66-1.08l.59-1.09Zm-4.61,4.84a18.75,18.75,0,0,1-1.26-1.45c.41,0,.83,0,1.25,0s.85,0,1.26,0A17.34,17.34,0,0,1,11.87,18.24ZM8.5,15.57a17.69,17.69,0,0,1-1.87-.36c.17-.58.38-1.19.62-1.79.18.36.38.73.59,1.09S8.27,15.23,8.5,15.57Zm3.35-9.45a19,19,0,0,1,1.26,1.46c-.41,0-.82,0-1.25,0s-.85,0-1.26,0A17.48,17.48,0,0,1,11.85,6.12ZM8.49,8.8c-.22.35-.44.71-.65,1.07s-.41.73-.59,1.09q-.36-.89-.63-1.8C7.21,9,7.84,8.89,8.49,8.8ZM4.38,14.48c-1.61-.68-2.64-1.58-2.64-2.3s1-1.61,2.64-2.29a13.23,13.23,0,0,1,1.26-.46,22.33,22.33,0,0,0,1,2.76,22.7,22.7,0,0,0-1,2.75,13.45,13.45,0,0,1-1.27-.46ZM6.82,21c-.61-.36-.88-1.7-.67-3.44,0-.42.13-.87.23-1.33a21.85,21.85,0,0,0,2.88.49A23.43,23.43,0,0,0,11.15,19c-1.48,1.38-2.87,2.13-3.81,2.13A1,1,0,0,1,6.82,21Zm10.77-3.46c.22,1.73-.05,3.08-.66,3.44a1,1,0,0,1-.52.12c-.94,0-2.34-.75-3.82-2.12a19.76,19.76,0,0,0,1.88-2.26,21.69,21.69,0,0,0,2.89-.5c.1.46.18.9.23,1.32Zm1.75-3a13.23,13.23,0,0,1-1.26.46,21.75,21.75,0,0,0-1-2.76,20.72,20.72,0,0,0,1-2.76c.45.14.88.3,1.28.47C21,10.57,22,11.47,22,12.18s-1,1.62-2.65,2.3Z"/><path class="cls-1" d="M11.86,14.26a2.08,2.08,0,1,0-2.08-2.08A2.08,2.08,0,0,0,11.86,14.26Z"/></svg>