<svg width="72" height="49" viewBox="0 0 72 49" fill="none" xmlns="http://www.w3.org/2000/svg">
<g clip-path="url(#clip0_6204_14672)">
<path fill-rule="evenodd" clip-rule="evenodd" d="M38.1297 0.71476C45.2242 1.96199 50.2909 6.15287 53.6743 12.4526L54.3086 12.389C56.9734 12.1927 59.7381 12.6179 62.2089 13.6377C67.0787 15.6434 70.0234 19.6295 71.2708 24.6255C72.2214 28.4237 72.3029 32.623 71.1597 36.3873C69.4061 42.18 65.2408 45.19 59.7676 47.0771L59.7086 47.0954C58.5625 47.4853 57.3939 47.8102 56.2548 48.0743C50.7297 49.0532 21.2279 48.6012 14.6045 48.1534L14.267 48.1167C13.1392 47.9655 12.024 47.7254 10.9567 47.3892C5.987 45.8341 2.44746 42.4413 0.813402 37.4297C-0.305973 33.9889 -0.249723 30.2825 0.865433 26.8459C1.80481 23.956 3.15762 21.9968 5.03215 20.5109C7.2484 18.7523 10.3225 17.5884 13.0745 16.8087C16.2681 5.27712 26.3734 -1.34466 38.1297 0.71476ZM45.8795 27.1185C46.6093 27.1496 47.1268 27.3926 47.4264 27.8488C48.2378 29.072 47.1297 30.2797 46.3604 31.13L36.8401 39.5725C36.0245 40.4779 34.8629 40.4779 34.0473 39.5725L25.434 30.8998C24.7154 30.0848 23.8267 28.976 24.5734 27.8488C24.8814 27.3926 25.3932 27.1496 26.1217 27.1185H31.0295V19.2891C31.0295 18.1788 31.9393 17.2593 33.0489 17.2593H38.9523C40.0618 17.2593 40.9703 18.2057 40.9703 19.2891V27.1185H45.8795Z" fill="#002680"/>
</g>
<defs>
<clipPath id="clip0_6204_14672">
<rect width="72" height="48.3158" fill="white" transform="translate(0 0.342041)"/>
</clipPath>
</defs>
</svg>
