<svg width="56" height="82" viewBox="0 0 56 82" fill="none" xmlns="http://www.w3.org/2000/svg">
<g clip-path="url(#clip0_6204_14684)">
<path d="M34.7672 8.8779L38.2442 5.40087L38.4759 3.9368C32.1398 -1.8246 22.0678 -1.17132 16.3561 5.29993C14.7695 7.09727 13.5925 9.33805 12.9648 11.652L14.2102 11.4765L21.1641 10.3298L21.7009 9.78071C24.7942 6.38352 30.0244 5.92649 33.5959 8.81696L34.7672 8.8779Z" fill="#EA4335"/>
<path d="M43.1984 11.5498C42.3991 8.6067 40.7584 5.96092 38.477 3.93701L33.597 8.81701C35.6576 10.5008 36.8315 13.0373 36.7812 15.6978V16.564C39.1798 16.564 41.1245 18.5086 41.1245 20.9072C41.1245 23.3059 39.1798 25.2017 36.7812 25.2017H28.0826L27.2285 26.1289V31.3383L28.0826 32.1556H36.7812C43.0202 32.2042 48.1174 27.2347 48.166 20.9956C48.1954 17.2139 46.3309 13.6686 43.1984 11.5498Z" fill="#4285F4"/>
<path d="M19.396 32.1557H28.0824V25.2016H19.396C18.7771 25.2014 18.1777 25.0685 17.6149 24.8113L16.3826 25.1894L12.8812 28.6664L12.5762 29.8499C14.5398 31.3325 16.9355 32.1663 19.396 32.1557Z" fill="#34A853"/>
<path d="M19.3958 9.59773C13.1565 9.63492 8.12903 14.723 8.16622 20.9621C8.187 24.4462 9.81419 27.7259 12.5759 29.8498L17.6147 24.8112C15.4286 23.8235 14.4572 21.2509 15.4448 19.0649C16.4323 16.879 19.0051 15.9076 21.1909 16.8951C22.1542 17.3302 22.9256 18.1018 23.3608 19.0649L28.3995 14.0263C26.2556 11.2237 22.9243 9.58507 19.3958 9.59773Z" fill="#FBBC05"/>
</g>
<path d="M9.1877 53.57C8.9357 53.0847 8.5857 52.7207 8.1377 52.478C7.6897 52.226 7.1717 52.1 6.5837 52.1C5.9397 52.1 5.3657 52.2447 4.8617 52.534C4.3577 52.8233 3.96104 53.234 3.6717 53.766C3.3917 54.298 3.2517 54.914 3.2517 55.614C3.2517 56.314 3.3917 56.9347 3.6717 57.476C3.96104 58.008 4.3577 58.4187 4.8617 58.708C5.3657 58.9973 5.9397 59.142 6.5837 59.142C7.4517 59.142 8.15637 58.8993 8.6977 58.414C9.23904 57.9287 9.57037 57.2707 9.6917 56.44H6.0377V55.166H11.3997V56.412C11.297 57.168 11.0264 57.8633 10.5877 58.498C10.1584 59.1327 9.5937 59.6413 8.8937 60.024C8.20304 60.3973 7.43304 60.584 6.5837 60.584C5.66904 60.584 4.8337 60.374 4.0777 59.954C3.3217 59.5247 2.7197 58.932 2.2717 58.176C1.83304 57.42 1.6137 56.566 1.6137 55.614C1.6137 54.662 1.83304 53.808 2.2717 53.052C2.7197 52.296 3.3217 51.708 4.0777 51.288C4.84304 50.8587 5.67837 50.644 6.5837 50.644C7.6197 50.644 8.53904 50.9007 9.3417 51.414C10.1537 51.918 10.7417 52.6367 11.1057 53.57H9.1877ZM16.3198 60.626C15.5918 60.626 14.9338 60.4627 14.3458 60.136C13.7578 59.8 13.2958 59.3333 12.9598 58.736C12.6238 58.1293 12.4558 57.4293 12.4558 56.636C12.4558 55.852 12.6285 55.1567 12.9738 54.55C13.3192 53.9433 13.7905 53.4767 14.3878 53.15C14.9852 52.8233 15.6525 52.66 16.3898 52.66C17.1272 52.66 17.7945 52.8233 18.3918 53.15C18.9892 53.4767 19.4605 53.9433 19.8058 54.55C20.1512 55.1567 20.3238 55.852 20.3238 56.636C20.3238 57.42 20.1465 58.1153 19.7918 58.722C19.4372 59.3287 18.9518 59.8 18.3358 60.136C17.7292 60.4627 17.0572 60.626 16.3198 60.626ZM16.3198 59.24C16.7305 59.24 17.1132 59.142 17.4678 58.946C17.8318 58.75 18.1258 58.456 18.3498 58.064C18.5738 57.672 18.6858 57.196 18.6858 56.636C18.6858 56.076 18.5785 55.6047 18.3638 55.222C18.1492 54.83 17.8645 54.536 17.5098 54.34C17.1552 54.144 16.7725 54.046 16.3618 54.046C15.9512 54.046 15.5685 54.144 15.2138 54.34C14.8685 54.536 14.5932 54.83 14.3878 55.222C14.1825 55.6047 14.0798 56.076 14.0798 56.636C14.0798 57.4667 14.2898 58.1107 14.7098 58.568C15.1392 59.016 15.6758 59.24 16.3198 59.24ZM25.2476 60.626C24.5196 60.626 23.8616 60.4627 23.2736 60.136C22.6856 59.8 22.2236 59.3333 21.8876 58.736C21.5516 58.1293 21.3836 57.4293 21.3836 56.636C21.3836 55.852 21.5562 55.1567 21.9016 54.55C22.2469 53.9433 22.7182 53.4767 23.3156 53.15C23.9129 52.8233 24.5802 52.66 25.3176 52.66C26.0549 52.66 26.7222 52.8233 27.3196 53.15C27.9169 53.4767 28.3882 53.9433 28.7336 54.55C29.0789 55.1567 29.2516 55.852 29.2516 56.636C29.2516 57.42 29.0742 58.1153 28.7196 58.722C28.3649 59.3287 27.8796 59.8 27.2636 60.136C26.6569 60.4627 25.9849 60.626 25.2476 60.626ZM25.2476 59.24C25.6582 59.24 26.0409 59.142 26.3956 58.946C26.7596 58.75 27.0536 58.456 27.2776 58.064C27.5016 57.672 27.6136 57.196 27.6136 56.636C27.6136 56.076 27.5062 55.6047 27.2916 55.222C27.0769 54.83 26.7922 54.536 26.4376 54.34C26.0829 54.144 25.7002 54.046 25.2896 54.046C24.8789 54.046 24.4962 54.144 24.1416 54.34C23.7962 54.536 23.5209 54.83 23.3156 55.222C23.1102 55.6047 23.0076 56.076 23.0076 56.636C23.0076 57.4667 23.2176 58.1107 23.6376 58.568C24.0669 59.016 24.6036 59.24 25.2476 59.24ZM33.9373 52.66C34.5346 52.66 35.062 52.7813 35.5193 53.024C35.986 53.2573 36.35 53.5513 36.6113 53.906V52.786H38.2213V60.626C38.2213 61.3353 38.072 61.9653 37.7733 62.516C37.4746 63.076 37.0406 63.5147 36.4713 63.832C35.9113 64.1493 35.2393 64.308 34.4553 64.308C33.41 64.308 32.542 64.0607 31.8513 63.566C31.1606 63.0807 30.7686 62.418 30.6753 61.578H32.2573C32.3786 61.9793 32.6353 62.3013 33.0273 62.544C33.4286 62.796 33.9046 62.922 34.4553 62.922C35.0993 62.922 35.6173 62.726 36.0093 62.334C36.4106 61.942 36.6113 61.3727 36.6113 60.626V59.338C36.3406 59.702 35.972 60.01 35.5053 60.262C35.048 60.5047 34.5253 60.626 33.9373 60.626C33.2653 60.626 32.6493 60.458 32.0893 60.122C31.5386 59.7767 31.1 59.3007 30.7733 58.694C30.456 58.078 30.2973 57.3827 30.2973 56.608C30.2973 55.8333 30.456 55.1473 30.7733 54.55C31.1 53.9527 31.5386 53.4907 32.0893 53.164C32.6493 52.828 33.2653 52.66 33.9373 52.66ZM36.6113 56.636C36.6113 56.104 36.4993 55.642 36.2753 55.25C36.0606 54.858 35.776 54.5593 35.4213 54.354C35.0666 54.1487 34.684 54.046 34.2733 54.046C33.8626 54.046 33.48 54.1487 33.1253 54.354C32.7706 54.55 32.4813 54.844 32.2573 55.236C32.0426 55.6187 31.9353 56.076 31.9353 56.608C31.9353 57.14 32.0426 57.6067 32.2573 58.008C32.4813 58.4093 32.7706 58.7173 33.1253 58.932C33.4893 59.1373 33.872 59.24 34.2733 59.24C34.684 59.24 35.0666 59.1373 35.4213 58.932C35.776 58.7267 36.0606 58.428 36.2753 58.036C36.4993 57.6347 36.6113 57.168 36.6113 56.636ZM41.9136 50.14V60.5H40.3176V50.14H41.9136ZM51.079 56.454C51.079 56.7433 51.0603 57.0047 51.023 57.238H45.129C45.1757 57.854 45.4043 58.3487 45.815 58.722C46.2257 59.0953 46.7297 59.282 47.327 59.282C48.1857 59.282 48.7923 58.9227 49.147 58.204H50.869C50.6357 58.9133 50.211 59.4967 49.595 59.954C48.9883 60.402 48.2323 60.626 47.327 60.626C46.5897 60.626 45.927 60.4627 45.339 60.136C44.7603 59.8 44.303 59.3333 43.967 58.736C43.6403 58.1293 43.477 57.4293 43.477 56.636C43.477 55.8427 43.6357 55.1473 43.953 54.55C44.2797 53.9433 44.7323 53.4767 45.311 53.15C45.899 52.8233 46.571 52.66 47.327 52.66C48.055 52.66 48.7037 52.8187 49.273 53.136C49.8423 53.4533 50.2857 53.9013 50.603 54.48C50.9203 55.0493 51.079 55.7073 51.079 56.454ZM49.413 55.95C49.4037 55.362 49.1937 54.8907 48.783 54.536C48.3723 54.1813 47.8637 54.004 47.257 54.004C46.7063 54.004 46.235 54.1813 45.843 54.536C45.451 54.8813 45.2177 55.3527 45.143 55.95H49.413ZM7.67034 76.614C7.67034 75.662 7.88968 74.808 8.32834 74.052C8.77634 73.296 9.37834 72.708 10.1343 72.288C10.8997 71.8587 11.735 71.644 12.6403 71.644C13.6763 71.644 14.5957 71.9007 15.3983 72.414C16.2103 72.918 16.7983 73.6367 17.1623 74.57H15.2443C14.9923 74.0567 14.6423 73.674 14.1943 73.422C13.7463 73.17 13.2283 73.044 12.6403 73.044C11.9963 73.044 11.4223 73.1887 10.9183 73.478C10.4143 73.7673 10.0177 74.1827 9.72834 74.724C9.44834 75.2653 9.30834 75.8953 9.30834 76.614C9.30834 77.3327 9.44834 77.9627 9.72834 78.504C10.0177 79.0453 10.4143 79.4653 10.9183 79.764C11.4223 80.0533 11.9963 80.198 12.6403 80.198C13.2283 80.198 13.7463 80.072 14.1943 79.82C14.6423 79.568 14.9923 79.1853 15.2443 78.672H17.1623C16.7983 79.6053 16.2103 80.324 15.3983 80.828C14.5957 81.332 13.6763 81.584 12.6403 81.584C11.7257 81.584 10.8903 81.374 10.1343 80.954C9.37834 80.5247 8.77634 79.932 8.32834 79.176C7.88968 78.42 7.67034 77.566 7.67034 76.614ZM20.6265 71.14V81.5H19.0305V71.14H20.6265ZM26.0679 81.626C25.3399 81.626 24.6819 81.4627 24.0939 81.136C23.5059 80.8 23.0439 80.3333 22.7079 79.736C22.3719 79.1293 22.2039 78.4293 22.2039 77.636C22.2039 76.852 22.3765 76.1567 22.7219 75.55C23.0672 74.9433 23.5385 74.4767 24.1359 74.15C24.7332 73.8233 25.4005 73.66 26.1379 73.66C26.8752 73.66 27.5425 73.8233 28.1399 74.15C28.7372 74.4767 29.2085 74.9433 29.5539 75.55C29.8992 76.1567 30.0719 76.852 30.0719 77.636C30.0719 78.42 29.8945 79.1153 29.5399 79.722C29.1852 80.3287 28.6999 80.8 28.0839 81.136C27.4772 81.4627 26.8052 81.626 26.0679 81.626ZM26.0679 80.24C26.4785 80.24 26.8612 80.142 27.2159 79.946C27.5799 79.75 27.8739 79.456 28.0979 79.064C28.3219 78.672 28.4339 78.196 28.4339 77.636C28.4339 77.076 28.3265 76.6047 28.1119 76.222C27.8972 75.83 27.6125 75.536 27.2579 75.34C26.9032 75.144 26.5205 75.046 26.1099 75.046C25.6992 75.046 25.3165 75.144 24.9619 75.34C24.6165 75.536 24.3412 75.83 24.1359 76.222C23.9305 76.6047 23.8279 77.076 23.8279 77.636C23.8279 78.4667 24.0379 79.1107 24.4579 79.568C24.8872 80.016 25.4239 80.24 26.0679 80.24ZM38.6356 73.786V81.5H37.0396V80.59C36.7876 80.9073 36.4563 81.1593 36.0456 81.346C35.6443 81.5233 35.2149 81.612 34.7576 81.612C34.1509 81.612 33.6049 81.486 33.1196 81.234C32.6436 80.982 32.2656 80.6087 31.9856 80.114C31.7149 79.6193 31.5796 79.022 31.5796 78.322V73.786H33.1616V78.084C33.1616 78.7747 33.3343 79.3067 33.6796 79.68C34.0249 80.044 34.4963 80.226 35.0936 80.226C35.6909 80.226 36.1623 80.044 36.5076 79.68C36.8623 79.3067 37.0396 78.7747 37.0396 78.084V73.786H38.6356ZM40.2094 77.608C40.2094 76.8333 40.3681 76.1473 40.6854 75.55C41.0121 74.9527 41.4507 74.4907 42.0014 74.164C42.5614 73.828 43.1821 73.66 43.8634 73.66C44.3674 73.66 44.8621 73.772 45.3474 73.996C45.8421 74.2107 46.2341 74.5 46.5234 74.864V71.14H48.1334V81.5H46.5234V80.338C46.2621 80.7113 45.8981 81.0193 45.4314 81.262C44.9741 81.5047 44.4467 81.626 43.8494 81.626C43.1774 81.626 42.5614 81.458 42.0014 81.122C41.4507 80.7767 41.0121 80.3007 40.6854 79.694C40.3681 79.078 40.2094 78.3827 40.2094 77.608ZM46.5234 77.636C46.5234 77.104 46.4114 76.642 46.1874 76.25C45.9727 75.858 45.6881 75.5593 45.3334 75.354C44.9787 75.1487 44.5961 75.046 44.1854 75.046C43.7747 75.046 43.3921 75.1487 43.0374 75.354C42.6827 75.55 42.3934 75.844 42.1694 76.236C41.9547 76.6187 41.8474 77.076 41.8474 77.608C41.8474 78.14 41.9547 78.6067 42.1694 79.008C42.3934 79.4093 42.6827 79.7173 43.0374 79.932C43.4014 80.1373 43.7841 80.24 44.1854 80.24C44.5961 80.24 44.9787 80.1373 45.3334 79.932C45.6881 79.7267 45.9727 79.428 46.1874 79.036C46.4114 78.6347 46.5234 78.168 46.5234 77.636Z" fill="#434343"/>
<defs>
<clipPath id="clip0_6204_14684">
<rect width="40" height="32.1875" fill="white" transform="translate(8.16602)"/>
</clipPath>
</defs>
</svg>
