<svg id="Layer_1" data-name="Layer 1" xmlns="http://www.w3.org/2000/svg" viewBox="0 0 24 25"><defs><style>.cls-1{fill:#fff;}</style></defs><path class="cls-1" d="M12.22,23H10.93c-.49,0-.66-.17-.66-.65v-.83a.77.77,0,0,0-.52-.77c-.4-.16-.78-.35-1.17-.54a.58.58,0,0,0-.25-.12.65.65,0,0,0-.28,0,.62.62,0,0,0-.26.09.72.72,0,0,0-.21.18c-.22.22-.43.44-.65.65a.42.42,0,0,1-.19.16.46.46,0,0,1-.23.06.48.48,0,0,1-.24-.06A.42.42,0,0,1,6.08,21l-1.61-1.7a.52.52,0,0,1-.15-.18.47.47,0,0,1,0-.46.52.52,0,0,1,.15-.18l.65-.65a.61.61,0,0,0,.19-.2.79.79,0,0,0,.1-.27.88.88,0,0,0,0-.28.85.85,0,0,0-.13-.25c-.19-.38-.37-.75-.53-1.14a.71.71,0,0,0-.3-.4A.75.75,0,0,0,4,15.11H3a.49.49,0,0,1-.21,0A.45.45,0,0,1,2.6,15a.57.57,0,0,1-.12-.18.55.55,0,0,1,0-.22V11.75a.45.45,0,0,1,0-.2.42.42,0,0,1,.11-.18.46.46,0,0,1,.18-.1.39.39,0,0,1,.21,0H4a.64.64,0,0,0,.42-.12.68.68,0,0,0,.26-.34c.19-.43.39-.85.6-1.27a.64.64,0,0,0,.1-.45.7.7,0,0,0-.23-.41c-.22-.24-.46-.46-.68-.69a.55.55,0,0,1-.16-.18.5.5,0,0,1-.06-.24.53.53,0,0,1,.06-.24.55.55,0,0,1,.16-.18C5,6.55,5.58,6,6.14,5.49a.58.58,0,0,1,.18-.17.55.55,0,0,1,.5,0A.58.58,0,0,1,7,5.49c.23.22.44.45.67.67a.66.66,0,0,0,.43.23.63.63,0,0,0,.48-.11c.39-.19.79-.39,1.19-.55a.76.76,0,0,0,.39-.29A.74.74,0,0,0,10.29,5V4a.53.53,0,0,1,.55-.58h2.8c.38,0,.54.19.55.58V5a.74.74,0,0,0,.13.48.76.76,0,0,0,.39.29c.4.16.8.36,1.19.55a.63.63,0,0,0,.48.11.66.66,0,0,0,.43-.23l.69-.69a.49.49,0,0,1,.18-.14.51.51,0,0,1,.44,0,.49.49,0,0,1,.18.14c.57.56,1.14,1.13,1.7,1.7a.65.65,0,0,1,.15.18.54.54,0,0,1,.05.22.59.59,0,0,1-.05.23A.61.61,0,0,1,20,8c-.22.24-.46.46-.68.7a.67.67,0,0,0-.24.43.66.66,0,0,0,.12.47c.19.4.38.79.55,1.19a.79.79,0,0,0,.28.39.76.76,0,0,0,.46.12h.92c.42,0,.61.18.61.59v2.75c0,.39-.18.56-.58.57h-1a.86.86,0,0,0-.46.14.76.76,0,0,0-.28.38c-.16.4-.36.8-.55,1.19a.68.68,0,0,0-.12.48.72.72,0,0,0,.24.43l.69.69a.65.65,0,0,1,.15.18.54.54,0,0,1,.05.22.59.59,0,0,1-.05.23.61.61,0,0,1-.15.17L18.31,21a.65.65,0,0,1-.18.15.51.51,0,0,1-.44,0,.65.65,0,0,1-.18-.15c-.24-.23-.46-.47-.69-.69a.68.68,0,0,0-.44-.23.73.73,0,0,0-.48.11c-.39.19-.78.39-1.19.55a.76.76,0,0,0-.38.3.73.73,0,0,0-.13.47v.92c0,.4-.18.58-.58.59ZM21,12.21h-.58a1.59,1.59,0,0,1-1-.29,1.66,1.66,0,0,1-.62-.81A10.64,10.64,0,0,0,18.32,10a1.67,1.67,0,0,1-.24-1.11,1.7,1.7,0,0,1,.54-1c.12-.12.26-.23.41-.36-.24-.23-.43-.41-.6-.59s-.33-.39-.53-.62c-.16.19-.26.31-.37.42a1.67,1.67,0,0,1-1,.57,1.62,1.62,0,0,1-1.15-.26c-.34-.18-.7-.34-1.06-.49A1.67,1.67,0,0,1,13.2,5V4.4h-2V5A1.74,1.74,0,0,1,11,6a1.69,1.69,0,0,1-.82.62A11.55,11.55,0,0,0,9,7.11a1.63,1.63,0,0,1-2-.27l-.44-.45-1,1-.15.17.4.38A1.67,1.67,0,0,1,6.1,10c-.2.38-.38.77-.54,1.16a1.59,1.59,0,0,1-1.48,1H3.41v1.95H4a1.71,1.71,0,0,1,1,.3,1.67,1.67,0,0,1,.64.86c.15.36.32.72.5,1.06a1.63,1.63,0,0,1,.24,1.14,1.59,1.59,0,0,1-.57,1,2.31,2.31,0,0,1-.39.31L6.63,20q.13-.16.3-.33a1.65,1.65,0,0,1,1-.54,1.63,1.63,0,0,1,1.12.24c.34.18.7.35,1.06.5a1.7,1.7,0,0,1,.81.61,1.73,1.73,0,0,1,.3,1V22h1.95v-.56a1.66,1.66,0,0,1,1.11-1.61c.38-.16.75-.33,1.11-.52a1.66,1.66,0,0,1,2.05.28,4.59,4.59,0,0,1,.37.39L19,18.78a3.68,3.68,0,0,1-.38-.31,1.64,1.64,0,0,1-.3-2.11c.18-.34.34-.68.49-1A1.68,1.68,0,0,1,20.5,14.2H21Z"/><path class="cls-1" d="M12.18,19.05a5.88,5.88,0,0,1-3.25-1,5.79,5.79,0,0,1-2.14-2.65,5.86,5.86,0,1,1,5.39,3.66Zm0-1a4.85,4.85,0,0,0,4.51-3A4.76,4.76,0,0,0,17,12.24a4.87,4.87,0,0,0-8.83-1.8,4.92,4.92,0,0,0-.84,2.7,4.87,4.87,0,0,0,1.42,3.49,4.94,4.94,0,0,0,1.6,1.07,4.81,4.81,0,0,0,1.88.37Z"/><path class="cls-1" d="M9.46,13.2l1.13,1.09a.52.52,0,0,1,.16.29.48.48,0,0,1-.07.31.43.43,0,0,1-.21.21.44.44,0,0,1-.3,0A.64.64,0,0,1,9.88,15c-.47-.47-.88-.91-1.38-1.38a.61.61,0,0,1-.15-.17.59.59,0,0,1,0-.23.54.54,0,0,1,0-.22.65.65,0,0,1,.15-.18l1.36-1.35a.52.52,0,0,1,.17-.12.45.45,0,0,1,.2,0,.51.51,0,0,1,.2,0,.61.61,0,0,1,.16.12.66.66,0,0,1,.12.17.52.52,0,0,1,0,.4.52.52,0,0,1-.12.17Z"/><path class="cls-1" d="M15,13.21c-.4-.39-.74-.74-1.09-1.07a.5.5,0,0,1-.18-.27.53.53,0,0,1,0-.33.5.5,0,0,1,.13-.19.42.42,0,0,1,.2-.1.41.41,0,0,1,.22,0,.43.43,0,0,1,.2.11c.52.49,1,1,1.52,1.52a.42.42,0,0,1,.09.14.51.51,0,0,1,0,.17.42.42,0,0,1,0,.16.36.36,0,0,1-.1.14c-.48.5-1,1-1.47,1.48a.48.48,0,0,1-.34.14.49.49,0,0,1-.34-.15.48.48,0,0,1-.14-.34.53.53,0,0,1,.15-.34C14.2,13.94,14.58,13.6,15,13.21Z"/><path class="cls-1" d="M13.2,11.23a.54.54,0,0,1-.08.34c-.29,1-.57,2-.86,3a2.25,2.25,0,0,1-.08.24.49.49,0,0,1-.23.26.53.53,0,0,1-.35,0,.46.46,0,0,1-.28-.21.54.54,0,0,1-.07-.35,1,1,0,0,1,.05-.16l.9-3.16a1.19,1.19,0,0,1,.11-.26.6.6,0,0,1,.09-.13l.14-.08.16,0a.42.42,0,0,1,.15,0c.16.07.27.25.4.38Z"/></svg>