<svg id="Layer_1" data-name="Layer 1" xmlns="http://www.w3.org/2000/svg" viewBox="0 0 24 25"><defs><style>.cls-1{fill:#fff;}</style></defs><path class="cls-1" d="M19.6,13.6H16c-.22,0-.31-.09-.31-.31v-2a.25.25,0,0,1,0-.12.22.22,0,0,1,.17-.17A.25.25,0,0,1,16,11H19.6V9.49a.23.23,0,0,1,0-.16.22.22,0,0,1,.12-.11.25.25,0,0,1,.17,0,.31.31,0,0,1,.14.09l1.84,1.79,1,1a.39.39,0,0,1,.08.1.21.21,0,0,1,0,.12.27.27,0,0,1,0,.12.24.24,0,0,1-.08.09l-2.74,2.73-.12.13a.26.26,0,0,1-.28,0,.18.18,0,0,1-.11-.1.23.23,0,0,1,0-.14V13.6Z"/><path class="cls-1" d="M4.83,13.6H8.39c.22,0,.32-.09.32-.31v-2c0-.2-.1-.3-.31-.3H4.83V9.44a.3.3,0,0,0,0-.16.28.28,0,0,0-.13-.11.25.25,0,0,0-.17,0,.26.26,0,0,0-.14.09c-.6.62-1.21,1.24-1.83,1.84l-1,1a.25.25,0,0,0-.08.1.21.21,0,0,0,0,.12.27.27,0,0,0,0,.12.18.18,0,0,0,.08.09l2.73,2.73.12.13a.27.27,0,0,0,.28,0,.18.18,0,0,0,.11-.1.23.23,0,0,0,0-.14V13.6Z"/><path class="cls-1" d="M10.84,19.58V16c0-.22.09-.31.31-.32h2c.2,0,.3.1.3.31v3.57H15a.29.29,0,0,1,.16,0,.25.25,0,0,1,.11.12.25.25,0,0,1,0,.17.19.19,0,0,1-.09.14c-.62.61-1.23,1.22-1.84,1.84l-1,1a.26.26,0,0,1-.09.09.28.28,0,0,1-.13,0A.27.27,0,0,1,12,23a.26.26,0,0,1-.09-.09L9.2,20.13,9.07,20A.22.22,0,0,1,9,19.88a.23.23,0,0,1,.11-.26.23.23,0,0,1,.14,0h1.6Z"/><path class="cls-1" d="M10.84,4.81V8.37c0,.22.09.31.31.31h2a.17.17,0,0,0,.12,0,.22.22,0,0,0,.17-.17.25.25,0,0,0,0-.12V4.81H15a.23.23,0,0,0,.16,0,.22.22,0,0,0,.11-.12.25.25,0,0,0,0-.17.24.24,0,0,0-.09-.14L13.35,2.49l-1-1a.34.34,0,0,0-.09-.08.28.28,0,0,0-.13,0,.27.27,0,0,0-.12,0,.34.34,0,0,0-.09.08L9.2,4.26l-.13.12A.25.25,0,0,0,9,4.66a.18.18,0,0,0,.1.11.23.23,0,0,0,.14,0h1.6Z"/><path class="cls-1" d="M12.32,14.79a2.54,2.54,0,0,1-1.39-.41A2.59,2.59,0,0,1,10,13.26a2.48,2.48,0,0,1-.14-1.45,2.43,2.43,0,0,1,.68-1.28,2.51,2.51,0,0,1,1.28-.69,2.45,2.45,0,0,1,1.44.14,2.49,2.49,0,0,1,1.55,2.31,2.49,2.49,0,0,1-2.49,2.5Zm0-4.14a1.75,1.75,0,0,0-.91.29,1.67,1.67,0,0,0-.67,1.71A1.66,1.66,0,0,0,13,13.82a1.67,1.67,0,0,0,.73-.61,1.65,1.65,0,0,0,.27-.92,1.64,1.64,0,0,0-.5-1.17,1.62,1.62,0,0,0-.54-.35A1.73,1.73,0,0,0,12.32,10.65Z"/></svg>