<svg id="Layer_1" data-name="Layer 1" xmlns="http://www.w3.org/2000/svg" viewBox="0 0 24 25"><defs><style>.cls-1{fill:#fff;}</style></defs><path class="cls-1" d="M20.3,1.49h.09a1.71,1.71,0,0,1,.83.41,1.6,1.6,0,0,1,.49.79,1.69,1.69,0,0,1,.05,1,1.61,1.61,0,0,1-.49.83L18.64,7.1l-3.05,3a1.2,1.2,0,0,1-.47.29c-.81.28-1.62.55-2.44.81a1.31,1.31,0,0,1-.44.07H8.87a.8.8,0,0,0-.34.07.85.85,0,0,0-.48.48.86.86,0,0,0,0,.68.85.85,0,0,0,.48.48.8.8,0,0,0,.34.07h5.25a1.79,1.79,0,0,1,1.14.34,1.8,1.8,0,0,1,.66,1,3.69,3.69,0,0,1,.06.81.28.28,0,0,0,0,.15.2.2,0,0,0,.11.09,1.33,1.33,0,0,1,.62.62,1.31,1.31,0,0,1,.09.87,1.32,1.32,0,0,1-1.3,1,1.35,1.35,0,0,1-.82-.28,1.38,1.38,0,0,1-.48-.72,1.34,1.34,0,0,1,.08-.88,1.35,1.35,0,0,1,.62-.63.19.19,0,0,0,.13-.1.25.25,0,0,0,0-.17v-.23a.91.91,0,0,0,0-.4,1,1,0,0,0-.22-.34A.87.87,0,0,0,14.5,14a1.07,1.07,0,0,0-.4,0H8.94a1.75,1.75,0,0,1-.68-.13,2,2,0,0,1-.59-.39,2,2,0,0,1-.38-.58,1.81,1.81,0,0,1-.14-.69,1.85,1.85,0,0,1,.52-1.26,1.79,1.79,0,0,1,.59-.39,1.76,1.76,0,0,1,.68-.14h3c.18,0,.26,0,.31-.21.22-.7.45-1.39.69-2.08a1.54,1.54,0,0,1,.26-.42l5.42-5.43a2.47,2.47,0,0,1,1.17-.7ZM15.14,9.28l4.23-4.23-.26-.26L17.36,6.56l-.67-.65,1.77-1.76-.24-.25L14,8.13l.3.28,1.78-1.79.64.61L14.9,9Zm4.92-4.87c.21-.21.42-.4.62-.62a.83.83,0,0,0,0-1.1.75.75,0,0,0-.49-.3.81.81,0,0,0-.57.1,8.4,8.4,0,0,0-.76.7ZM13.52,9l-.4,1.2,1.2-.4Zm2,8.14a.48.48,0,0,0,.32-.13.46.46,0,0,0,.13-.32.49.49,0,0,0-.14-.3.48.48,0,0,0-.3-.13.51.51,0,0,0-.17,0,.42.42,0,0,0-.14.09.33.33,0,0,0-.1.14.35.35,0,0,0,0,.17.57.57,0,0,0,0,.18.46.46,0,0,0,.25.25.37.37,0,0,0,.18,0Z"/><path class="cls-1" d="M19.11,7.3h.51a.43.43,0,0,1,.26.13.42.42,0,0,1,.12.26.74.74,0,0,1,0,.21V18.75a1.32,1.32,0,0,1-.07.59,1.38,1.38,0,0,1-.32.5,1.26,1.26,0,0,1-.5.32,1.32,1.32,0,0,1-.59.07H14.21V22h.88v.89h-8V22H8V20.23H3.59A1.34,1.34,0,0,1,3,20.15a1.28,1.28,0,0,1-.48-.31,1.17,1.17,0,0,1-.31-.48,1.32,1.32,0,0,1-.09-.56V8.74a1.39,1.39,0,0,1,.08-.57A1.36,1.36,0,0,1,3,7.38a1.39,1.39,0,0,1,.57-.08H12v.89H3.64c-.45,0-.59.14-.59.59v10c0,.45.14.59.6.59H18.5c.47,0,.61-.15.61-.62ZM13.3,20.24H8.86V22H13.3Z"/><path class="cls-1" d="M6.16,17.55v.94A3.89,3.89,0,0,1,4.8,18.4,1.2,1.2,0,0,1,4.23,18,1.29,1.29,0,0,1,4,17.26v-1h.88V17c0,.4.16.56.56.56Z"/><path class="cls-1" d="M4.81,15.31H4v-.82h.86Z"/></svg>