<svg id="Layer_1" data-name="Layer 1" xmlns="http://www.w3.org/2000/svg" viewBox="0 0 24 25"><defs><style>.cls-1{fill:#fff;}</style></defs><path class="cls-1" d="M1,11.49A.92.92,0,0,1,1.4,11a.84.84,0,0,1,.6-.1H4a.92.92,0,0,0,.6-.15,1,1,0,0,0,.4-.47,8,8,0,0,0,.34-.8,1,1,0,0,0,0-.65A1,1,0,0,0,5,8.34L3.51,6.88a.72.72,0,0,1-.21-.25A.77.77,0,0,1,3.3,6a.75.75,0,0,1,.21-.26L4.8,4.49a.71.71,0,0,1,.6-.31.71.71,0,0,1,.6.31L7.45,5.91A1,1,0,0,0,8,6.24a1,1,0,0,0,.65-.09c.26-.1.52-.2.78-.32a1,1,0,0,0,.47-.4,1,1,0,0,0,.14-.6V2.72a.71.71,0,0,1,0-.32.65.65,0,0,1,.17-.27A1,1,0,0,1,10.53,2a.69.69,0,0,1,.32,0h1.88a.73.73,0,0,1,.58.21.78.78,0,0,1,.17.26.67.67,0,0,1,0,.31V4.8a1.06,1.06,0,0,0,.18.67,1.07,1.07,0,0,0,.55.41c1.33.56,1.35.56,2.38-.47l1-1a.63.63,0,0,1,.26-.2.65.65,0,0,1,.31-.08.66.66,0,0,1,.32.08.63.63,0,0,1,.26.2l1.31,1.32a1,1,0,0,1,.2.25.74.74,0,0,1,0,.63.82.82,0,0,1-.2.25L18.61,8.33a1,1,0,0,0-.34.6,1,1,0,0,0,.1.68l.3.69a1,1,0,0,0,.39.5,1,1,0,0,0,.61.17h2.09a.69.69,0,0,1,.32,0,.74.74,0,0,1,.27.16.8.8,0,0,1,.18.27.71.71,0,0,1,0,.32v1.89a.69.69,0,0,1,0,.32.8.8,0,0,1-.18.27,1,1,0,0,1-.27.17.85.85,0,0,1-.32,0h-2a1,1,0,0,0-.7.17,1,1,0,0,0-.41.59l-.22.49c-.35-.35-.69-.68-1-1-.05-.06,0-.2,0-.3a5.83,5.83,0,0,0,.16-2.56,5.72,5.72,0,0,0-1-2.38,5.88,5.88,0,1,0-8.41,8,5.83,5.83,0,0,0,2.64,1.13,5.46,5.46,0,0,0,2.6-.18.3.3,0,0,1,.21,0,.42.42,0,0,1,.18.11l.94.92-.53.22a1.07,1.07,0,0,0-.73,1.08v1.83a.81.81,0,0,1-.11.55.84.84,0,0,1-.41.38H10.59a.92.92,0,0,1-.48-.39.87.87,0,0,1-.11-.61V20.63a1.06,1.06,0,0,0-.7-1l-.69-.28a1,1,0,0,0-.71-.11,1.11,1.11,0,0,0-.62.37c-.46.45-.9.91-1.36,1.36a.75.75,0,0,1-.26.21.72.72,0,0,1-.32.08A.73.73,0,0,1,5,21.18.75.75,0,0,1,4.75,21L3.53,19.71a.67.67,0,0,1-.23-.27.76.76,0,0,1,0-.68.67.67,0,0,1,.23-.27L4.92,17.1a1.08,1.08,0,0,0,.24-1.24c-.09-.24-.19-.48-.29-.72a1.08,1.08,0,0,0-.39-.51,1.1,1.1,0,0,0-.61-.19H1.92a.89.89,0,0,1-.55-.12A.8.8,0,0,1,1,13.9Z"/><path class="cls-1" d="M10.88,8.69a3.85,3.85,0,0,1,1.72-.16,3.94,3.94,0,0,1,1.61.6,4.21,4.21,0,0,1,1.84,5,.95.95,0,0,0,.28,1.09c1.53,1.45,3,2.92,4.55,4.39a1.38,1.38,0,0,1,.45.62A1.48,1.48,0,0,1,21,21.71a1.49,1.49,0,0,1-.67.43,1.51,1.51,0,0,1-.79,0,1.41,1.41,0,0,1-.68-.41q-2.31-2.24-4.59-4.49a.94.94,0,0,0-.52-.31,1,1,0,0,0-.61,0,4.26,4.26,0,0,1-1.84.17,4.37,4.37,0,0,1-1.75-.62,4.2,4.2,0,0,1-1.32-1.3,4.3,4.3,0,0,1-.66-1.73,11.37,11.37,0,0,1,0-1.43.43.43,0,0,1,0-.12l.1-.1A.82.82,0,0,1,8,12c.47.49.92,1,1.41,1.46a2.21,2.21,0,0,0,2.2.57,2.25,2.25,0,0,0,1-.63,2.21,2.21,0,0,0,.52-1.06,2.07,2.07,0,0,0,0-1,2.15,2.15,0,0,0-.55-.87c-.46-.49-.94-1-1.42-1.42Zm9.61,11.92a.58.58,0,0,0,0-.26.64.64,0,0,0-.14-.22.54.54,0,0,0-.22-.15.58.58,0,0,0-.26-.06.66.66,0,0,0-.48.2.68.68,0,0,0-.21.48.65.65,0,0,0,.05.27.74.74,0,0,0,.14.22.91.91,0,0,0,.23.15.75.75,0,0,0,.26,0,.57.57,0,0,0,.26,0,.57.57,0,0,0,.37-.37A.58.58,0,0,0,20.49,20.61Z"/></svg>