<svg id="Layer_1" data-name="Layer 1" xmlns="http://www.w3.org/2000/svg" viewBox="0 0 24 25"><defs><style>.cls-1{fill:#fff;}</style></defs><path class="cls-1" d="M12.16,17.81H10.21a.6.6,0,0,1-.37-.09.59.59,0,0,1-.24-.3c-.55-1.26-1.12-2.52-1.67-3.78a6.48,6.48,0,0,1-.66-3.15A5,5,0,0,1,12.46,6a4.89,4.89,0,0,1,4,2.26A4.69,4.69,0,0,1,17.13,10,4.56,4.56,0,0,1,17,12c-.06.26-.14.52-.22.78-.34,1.1-.68,2.21-1,3.3a5.83,5.83,0,0,1-.51,1.14,1.27,1.27,0,0,1-.5.5,1.24,1.24,0,0,1-.7.15C13.4,17.8,12.78,17.81,12.16,17.81Zm.17-1H14a.4.4,0,0,0,.24,0,.39.39,0,0,0,.17-.19c.13-.31.28-.61.38-.93.32-1,.62-2,.93-2.93.09-.32.19-.64.27-1a3.94,3.94,0,0,0-.05-2.23A3.89,3.89,0,0,0,14.83,8a3.94,3.94,0,0,0-1.68-.85A4,4,0,0,0,9.6,8a3.84,3.84,0,0,0-1.23,2,3.7,3.7,0,0,0,.14,2.3c.54,1.49,1.23,2.93,1.87,4.38,0,.08.19.14.29.14.56,0,1.11,0,1.66,0Z"/><path class="cls-1" d="M12.19,18.49h2.13c.34,0,.55.18.56.47a.51.51,0,0,1-.56.51H10.07A.5.5,0,0,1,9.51,19c0-.3.22-.47.56-.47Z"/><path class="cls-1" d="M12.18,20.94H10.32c-.35,0-.58-.19-.58-.49S10,20,10.32,20h3.74c.36,0,.58.19.58.49s-.22.49-.58.49Z"/><path class="cls-1" d="M10.68,21.49h3a1.25,1.25,0,0,1-.12.54,1.33,1.33,0,0,1-.31.46,1.57,1.57,0,0,1-.47.3,1.3,1.3,0,0,1-.55.09,1.39,1.39,0,0,1-.57-.08,1.49,1.49,0,0,1-.5-.29,1.41,1.41,0,0,1-.34-.46A1.49,1.49,0,0,1,10.68,21.49Z"/><path class="cls-1" d="M11.8,3.29V2.11a.5.5,0,0,1,.48-.56c.29,0,.5.21.5.57V4.49a.5.5,0,0,1,0,.21.54.54,0,0,1-.1.18A.48.48,0,0,1,12.5,5a.46.46,0,0,1-.2,0c-.3,0-.49-.22-.5-.57Z"/><path class="cls-1" d="M19.46,4.49a1.23,1.23,0,0,1-.19.31q-.84.87-1.71,1.71a.48.48,0,0,1-.16.12.5.5,0,0,1-.39,0,.61.61,0,0,1-.16-.12.48.48,0,0,1-.12-.16.65.65,0,0,1,0-.2.58.58,0,0,1,0-.19.52.52,0,0,1,.12-.17l1.74-1.7a.46.46,0,0,1,.26-.15.51.51,0,0,1,.3,0,.61.61,0,0,1,.24.21A.57.57,0,0,1,19.46,4.49Z"/><path class="cls-1" d="M7.89,16.05a.92.92,0,0,1-.17.29q-.84.87-1.71,1.71a.51.51,0,0,1-.16.13.41.41,0,0,1-.19.05.34.34,0,0,1-.2,0,.48.48,0,0,1-.17-.1.66.66,0,0,1-.12-.17.69.69,0,0,1,0-.2.46.46,0,0,1,.05-.2.61.61,0,0,1,.12-.16L7,15.64a.48.48,0,0,1,.27-.19.52.52,0,0,1,.62.6Z"/><path class="cls-1" d="M4.16,11.55H3a.44.44,0,0,1-.2,0,.52.52,0,0,1-.18-.1.66.66,0,0,1-.12-.17.45.45,0,0,1,0-.2.46.46,0,0,1,.16-.36.4.4,0,0,1,.18-.1.44.44,0,0,1,.2,0H5.37a.51.51,0,0,1,.5.5.51.51,0,0,1-.15.36.5.5,0,0,1-.35.14Z"/><path class="cls-1" d="M20.27,11.55h-1.2a.5.5,0,0,1-.21,0,.42.42,0,0,1-.17-.1.41.41,0,0,1-.12-.17.52.52,0,0,1,0-.4.66.66,0,0,1,.12-.17.76.76,0,0,1,.18-.09.5.5,0,0,1,.21,0h2.39a.51.51,0,0,1,.5.5.51.51,0,0,1-.15.36.5.5,0,0,1-.35.14Z"/><path class="cls-1" d="M8.06,6.32a2.23,2.23,0,0,1-.35.4.45.45,0,0,1-.3,0,.41.41,0,0,1-.26-.15L6,5.43l-.53-.54a.36.36,0,0,1-.11-.16.45.45,0,0,1,0-.2.41.41,0,0,1,0-.19.39.39,0,0,1,.11-.17.42.42,0,0,1,.16-.11.43.43,0,0,1,.4,0,.42.42,0,0,1,.16.11c.58.57,1.15,1.15,1.72,1.73A1.59,1.59,0,0,1,8.06,6.32Z"/><path class="cls-1" d="M17.07,15.32a2.65,2.65,0,0,1,.4.24c.58.56,1.16,1.14,1.73,1.72a.48.48,0,0,1,.18.36.51.51,0,0,1,0,.2.45.45,0,0,1-.11.17.56.56,0,0,1-.17.11.64.64,0,0,1-.2,0,.45.45,0,0,1-.19,0,.51.51,0,0,1-.16-.13c-.59-.57-1.17-1.16-1.74-1.74a.41.41,0,0,1-.15-.25.44.44,0,0,1,.05-.3A1.72,1.72,0,0,1,17.07,15.32Z"/></svg>