<svg id="Layer_1" data-name="Layer 1" xmlns="http://www.w3.org/2000/svg" viewBox="0 0 24 25"><defs><style>.cls-1{fill:#fff;}</style></defs><path class="cls-1" d="M23,14l-.18.15-2,2c0,.06-.11.11-.2.2V15H17.51V12.87h3.1V11.54L23,13.9Z"/><path class="cls-1" d="M12.72,10.13,13.88,9l1.21,1.21-1.17,1.15a5,5,0,0,1,.69,1.6c0,.05.11.1.17.11h1.53v1.72H14.79a.35.35,0,0,0-.19.12,4.8,4.8,0,0,1-.66,1.56l1.17,1.17-1.22,1.22-1.12-1.13L11,18.41V20H9.32V18.41L7.58,17.7,6.47,18.83,5.24,17.61l1.15-1.12c-.16-.35-.32-.67-.46-1a2.78,2.78,0,0,1-.17-.56c0-.15-.1-.19-.23-.18H4V13H5.65l.71-1.74L5.22,10.2,6.46,9l1.16,1.17A5,5,0,0,1,9.2,9.49c.05,0,.11-.13.11-.19V7.8H11V9.27c0,.1,0,.17.14.19A4.52,4.52,0,0,1,12.72,10.13ZM10.17,12a1.82,1.82,0,0,0-1,.32,2,2,0,0,0-.7.84,1.85,1.85,0,0,0-.1,1.09,1.87,1.87,0,0,0,.51,1,2,2,0,0,0,1,.52,1.93,1.93,0,0,0,1.09-.11,1.83,1.83,0,0,0,.84-.69,1.86,1.86,0,0,0-.24-2.37A1.91,1.91,0,0,0,10.17,12Z"/><path class="cls-1" d="M3.92,18.4,2.73,19.6A9.67,9.67,0,0,1,15.61,5.54l1.24-1.32.41,4-3.79-.34.91-1a7.79,7.79,0,0,0-9.08.69A8,8,0,0,0,3.92,18.4Z"/></svg>