<svg id="Layer_1" data-name="Layer 1" xmlns="http://www.w3.org/2000/svg" viewBox="0 0 20 21"><defs><style>.cls-1{fill:#fff;}</style></defs><path class="cls-1" d="M16.12.49a1,1,0,0,1,.51.27,1,1,0,0,1,.29.49,1.48,1.48,0,0,1,0,.42V13.58a.25.25,0,0,0,0,.17.28.28,0,0,0,.12.12A3.67,3.67,0,0,1,19,17.59a3.75,3.75,0,0,1-1,2.07A3.72,3.72,0,0,1,12.09,19a.29.29,0,0,0-.13-.14.32.32,0,0,0-.19-.05H1.82a1,1,0,0,1-.71-.16A1,1,0,0,1,.7,18a2.54,2.54,0,0,1,0-.39V5a.7.7,0,0,1,0-.29.82.82,0,0,1,.16-.25L5.07.66,5.29.49ZM11.67,18.13a3.72,3.72,0,0,1,0-2,3.66,3.66,0,0,1,1-1.71,3.76,3.76,0,0,1,3.66-1V1.63c0-.39-.1-.49-.5-.49h-10V4.05a1.55,1.55,0,0,1,0,.43,1,1,0,0,1-.4.57.93.93,0,0,1-.67.17H1.35V17.81a.81.81,0,0,0,.24.28H11.66Zm3.59-4.08a3,3,0,0,0-1.71.49,3.07,3.07,0,0,0-1.36,3.12A3.12,3.12,0,0,0,13,19.24a3,3,0,0,0,1.56.86A3.06,3.06,0,0,0,16.33,20a3.07,3.07,0,0,0,1.93-2.81,3,3,0,0,0-.2-1.18,2.85,2.85,0,0,0-.64-1,3.07,3.07,0,0,0-1-.68A3,3,0,0,0,15.26,14.05ZM1.89,4.49h2.7c.39,0,.49-.1.49-.48V1.59Z"/></svg>