<svg id="Layer_1" data-name="Layer 1" xmlns="http://www.w3.org/2000/svg" xmlns:xlink="http://www.w3.org/1999/xlink" viewBox="0 0 24 24"><defs><style>.cls-1{fill:url(#linear-gradient);}.cls-2{fill:url(#linear-gradient-2);}.cls-3{fill:url(#linear-gradient-3);}.cls-4{fill:url(#linear-gradient-4);}.cls-5{fill:url(#linear-gradient-5);}.cls-6{fill:url(#linear-gradient-6);}.cls-7{fill:url(#linear-gradient-7);}.cls-8{fill:url(#linear-gradient-8);}.cls-9{fill:url(#linear-gradient-9);}.cls-10{fill:url(#linear-gradient-10);}.cls-11{fill:url(#linear-gradient-11);}</style><linearGradient id="linear-gradient" x1="6.91" y1="14.65" x2="17.18" y2="14.65" gradientUnits="userSpaceOnUse"><stop offset="0" stop-color="#283478"/><stop offset="1" stop-color="#1675b1"/></linearGradient><linearGradient id="linear-gradient-2" x1="6.94" y1="7.07" x2="17.16" y2="7.07" xlink:href="#linear-gradient"/><linearGradient id="linear-gradient-3" x1="10.36" y1="14.1" x2="13.74" y2="14.1" xlink:href="#linear-gradient"/><linearGradient id="linear-gradient-4" x1="17.55" y1="12.06" x2="19" y2="12.06" xlink:href="#linear-gradient"/><linearGradient id="linear-gradient-5" x1="5.1" y1="12.05" x2="6.55" y2="12.05" xlink:href="#linear-gradient"/><linearGradient id="linear-gradient-6" x1="10.93" y1="20.92" x2="13.13" y2="20.92" xlink:href="#linear-gradient"/><linearGradient id="linear-gradient-7" x1="14.66" y1="2.28" x2="15.82" y2="2.28" xlink:href="#linear-gradient"/><linearGradient id="linear-gradient-8" x1="8.27" y1="2.28" x2="9.43" y2="2.28" xlink:href="#linear-gradient"/><linearGradient id="linear-gradient-9" x1="9.05" y1="3.95" x2="10.09" y2="3.95" xlink:href="#linear-gradient"/><linearGradient id="linear-gradient-10" x1="13.99" y1="3.97" x2="15.03" y2="3.97" xlink:href="#linear-gradient"/><linearGradient id="linear-gradient-11" x1="11.61" y1="16.76" x2="12.5" y2="16.76" xlink:href="#linear-gradient"/></defs><path class="cls-1" d="M6.91,9.79H10v.29c0,2.21,0,4.42,0,6.64a2,2,0,1,0,4.08,0c0-2.2,0-4.41,0-6.62v-.3h3.09c-.06.44-.12.85-.19,1.26-.32,2-.63,3.95-1,5.93A3,3,0,0,1,13.1,19.5c-.8,0-1.59,0-2.38,0A3,3,0,0,1,8,16.86Q7.49,13.44,6.93,10C6.92,10,6.92,9.89,6.91,9.79Z"/><path class="cls-2" d="M6.94,9.4a5.13,5.13,0,0,1,10.22,0Zm7.13-1.48a.62.62,0,0,0,.64-.62.66.66,0,0,0-.63-.64.63.63,0,0,0,0,1.26ZM10,7.92a.61.61,0,0,0,.62-.63A.64.64,0,0,0,10,6.66a.64.64,0,0,0-.62.65A.61.61,0,0,0,10,7.92Z"/><path class="cls-3" d="M10.38,9.79h3.34a1.37,1.37,0,0,1,0,.19v6.67a1.67,1.67,0,0,1-1,1.57A1.6,1.6,0,0,1,11,18a1.54,1.54,0,0,1-.66-1.29c0-2.29,0-4.59,0-6.88A.32.32,0,0,1,10.38,9.79ZM12.06,16a.8.8,0,0,0-.83.79.82.82,0,0,0,.81.82.8.8,0,0,0,.83-.79A.82.82,0,0,0,12.06,16ZM12,12.15c-.22,0-.44,0-.65,0s-.14.12-.21.18.14.17.21.17c.44,0,.87,0,1.31,0,.08,0,.15-.11.22-.17s-.14-.18-.23-.19S12.2,12.15,12,12.15Zm0,1.59a4.68,4.68,0,0,0-.65,0c-.08,0-.15.11-.23.18.07.06.14.17.21.17.44,0,.88,0,1.31,0,.08,0,.15-.11.22-.17s-.15-.17-.23-.18A4.42,4.42,0,0,0,12,13.74Zm0-2.81a4.42,4.42,0,0,0,.63,0c.08,0,.16-.11.23-.17s-.14-.16-.22-.17H11.33c-.07,0-.14.11-.21.17s.13.16.21.17A5,5,0,0,0,12,10.93Z"/><path class="cls-4" d="M19,12.06v2.23a.72.72,0,0,1-.56.7.7.7,0,0,1-.78-.35.9.9,0,0,1-.1-.39c0-1.45,0-2.89,0-4.34a.71.71,0,0,1,.67-.79.67.67,0,0,1,.76.71C19,10.57,19,11.32,19,12.06Z"/><path class="cls-5" d="M5.1,12c0-.74,0-1.49,0-2.23a.69.69,0,0,1,.6-.69.73.73,0,0,1,.79.46,1.67,1.67,0,0,1,0,.31V14.2a.73.73,0,1,1-1.45,0V12Z"/><path class="cls-6" d="M13.13,19.87c0,.39,0,.76,0,1.12a1.09,1.09,0,0,1-2.16.1,9.9,9.9,0,0,1,0-1.22Z"/><path class="cls-7" d="M14.66,2.27a.56.56,0,0,1,.57-.56.57.57,0,0,1,.59.58.6.6,0,0,1-.58.57A.57.57,0,0,1,14.66,2.27Z"/><path class="cls-8" d="M8.27,2.29a.57.57,0,0,1,.58-.58.58.58,0,0,1,.58.56.59.59,0,0,1-.59.59A.57.57,0,0,1,8.27,2.29Z"/><path class="cls-9" d="M9.05,3.2l.35-.14.69,1.62-.32.16Z"/><path class="cls-10" d="M14.32,4.86,14,4.72l.72-1.64.32.14Z"/><path class="cls-11" d="M12.5,16.77a.46.46,0,0,1-.44.45.45.45,0,0,1-.45-.47.45.45,0,0,1,.45-.44A.46.46,0,0,1,12.5,16.77Z"/></svg>