<svg id="Layer_1" data-name="Layer 1" xmlns="http://www.w3.org/2000/svg" xmlns:xlink="http://www.w3.org/1999/xlink" viewBox="0 0 24 24"><defs><style>.cls-1{fill:url(#linear-gradient);}.cls-2{fill:url(#linear-gradient-2);}</style><linearGradient id="linear-gradient" x1="1.71" y1="12.45" x2="22" y2="12.45" gradientUnits="userSpaceOnUse"><stop offset="0" stop-color="#283478"/><stop offset="1" stop-color="#1675b1"/></linearGradient><linearGradient id="linear-gradient-2" x1="8.74" y1="17.29" x2="11.44" y2="17.29" xlink:href="#linear-gradient"/></defs><path class="cls-1" d="M11.86,22.59c-1.62,0-3.24,0-4.86,0a5.19,5.19,0,0,1-5.18-4.18,5.91,5.91,0,0,1-.1-1.12q0-4.84,0-9.7A5.15,5.15,0,0,1,5.91,2.41a5.26,5.26,0,0,1,1-.09h9.79A5.16,5.16,0,0,1,22,6.83a5.11,5.11,0,0,1,.05.78v9.68a5.17,5.17,0,0,1-4.16,5.19,6.75,6.75,0,0,1-1.19.11C15.05,22.6,13.46,22.59,11.86,22.59ZM15,3.79c-.67,0-1.33,0-2,0a.29.29,0,0,0-.31.23,5.84,5.84,0,0,0,7.6,7.39.26.26,0,0,0,.2-.28c0-1.23,0-2.46,0-3.69a3.68,3.68,0,0,0-3.67-3.64Zm-4.93,16A2.14,2.14,0,0,0,12.37,18a3.51,3.51,0,0,0,.06-.92,2.19,2.19,0,0,0-2-2.25A2.23,2.23,0,0,0,8.06,15.9a3,3,0,0,0-.31,1.6A2.2,2.2,0,0,0,10.1,19.78ZM13,18.13a1.57,1.57,0,0,0,.87,1.44,2.71,2.71,0,0,0,2.23,0,1.34,1.34,0,0,0,.8-1.3A1.29,1.29,0,0,0,16.07,17a6.18,6.18,0,0,0-.76-.26,8.41,8.41,0,0,1-1-.31.5.5,0,0,1-.26-.36.54.54,0,0,1,.27-.36,1,1,0,0,1,1.44.59l.94-.05A1.28,1.28,0,0,0,16,15a2.41,2.41,0,0,0-2.23,0,1.25,1.25,0,0,0-.1,2.16,3.67,3.67,0,0,0,.73.32c.35.11.71.19,1.06.3a.5.5,0,0,1,.42.45.59.59,0,0,1-.35.57,1.09,1.09,0,0,1-1.62-.65.78.78,0,0,0,0-.14ZM7,19.7V14.89h-1V19.7Z"/><path class="cls-2" d="M8.74,17.29a5.62,5.62,0,0,1,.1-.7,1.23,1.23,0,0,1,1.26-1,1.22,1.22,0,0,1,1.25,1,2.8,2.8,0,0,1,0,1.38,1.26,1.26,0,0,1-1.4,1,1.32,1.32,0,0,1-1.17-1.23l0-.42Z"/></svg>