<svg id="Layer_1" data-name="Layer 1" xmlns="http://www.w3.org/2000/svg" xmlns:xlink="http://www.w3.org/1999/xlink" viewBox="0 0 24 24"><defs><style>.cls-1{fill:url(#linear-gradient);}.cls-2{fill:url(#linear-gradient-2);}.cls-3{fill:url(#linear-gradient-3);}.cls-4{fill:#fff;}</style><linearGradient id="linear-gradient" x1="4.1" y1="8.8" x2="21" y2="8.8" gradientUnits="userSpaceOnUse"><stop offset="0" stop-color="#283376"/><stop offset="1" stop-color="#1c67a6"/></linearGradient><linearGradient id="linear-gradient-2" x1="4.1" y1="19.79" x2="21" y2="19.79" xlink:href="#linear-gradient"/><linearGradient id="linear-gradient-3" x1="16.26" y1="3.87" x2="20.61" y2="3.87" xlink:href="#linear-gradient"/></defs><path class="cls-1" d="M21,16.31H4.1v-15H14.71V5.93a1.55,1.55,0,0,0,1.68,1.66H21ZM16,9.43a2.46,2.46,0,0,0-2.38-.12,1.45,1.45,0,0,0-.18,2.52,5.7,5.7,0,0,0,.69.37,3.64,3.64,0,0,1,.65.34.53.53,0,0,1-.16,1,1,1,0,0,1-.54,0c-.39-.09-.76-.23-1.14-.35l-.28.91a2.67,2.67,0,0,0,2.41.33,1.52,1.52,0,0,0,1.05-1.31,1.5,1.5,0,0,0-.79-1.57c-.25-.14-.53-.24-.79-.37a3.14,3.14,0,0,1-.44-.25.44.44,0,0,1,.12-.77,1,1,0,0,1,.5-.06,9.88,9.88,0,0,1,1,.26Zm-6.83,4c-.05.26-.11.55-.15.85,0,0,.06.12.1.14a4.8,4.8,0,0,0,.63.15,1.52,1.52,0,0,0,1.73-.91,3.23,3.23,0,0,0,.18-1.11c0-1.06,0-2.11,0-3.17a1.85,1.85,0,0,0,0-.23H10.52v3.38a3.18,3.18,0,0,1-.06.62.43.43,0,0,1-.47.39C9.72,13.53,9.46,13.47,9.15,13.43Z"/><path class="cls-2" d="M21,17.89V21.7H4.1V17.89Z"/><path class="cls-3" d="M16.26,1.7,20.61,6H16.26Z"/><path class="cls-4" d="M6.14,5.34a1,1,0,0,1,.2,1.14c-.07.18-.18.35-.26.54a3.73,3.73,0,0,0-.14.4.47.47,0,0,0,.15.44.89.89,0,0,0,.51.28.24.24,0,0,1,.22.26.25.25,0,0,1-.24.25H6.45a1.39,1.39,0,0,1-.87-.59,1,1,0,0,1-.09-1c.07-.17.16-.33.24-.49A1.88,1.88,0,0,0,5.9,6.1a.43.43,0,0,0-.43-.5.27.27,0,0,1-.26-.34.28.28,0,0,1,.28-.19.37.37,0,0,0,.37-.24.45.45,0,0,0,0-.36c-.06-.15-.13-.29-.19-.44a4,4,0,0,1-.24-.57A1,1,0,0,1,5.88,2.3,1.29,1.29,0,0,1,6.53,2a.24.24,0,0,1,.28.19.24.24,0,0,1-.14.3l-.16,0A.77.77,0,0,0,6,2.9.5.5,0,0,0,6,3.37c.08.19.18.38.27.57a1.77,1.77,0,0,1,.19.59,1,1,0,0,1-.27.79Z"/><path class="cls-4" d="M8.06,5.34a1,1,0,0,1-.28-.84A2,2,0,0,1,8,4c.08-.17.17-.33.24-.51A.57.57,0,0,0,8,2.68a.9.9,0,0,0-.32-.13l-.14,0a.24.24,0,0,1-.1-.3A.24.24,0,0,1,7.65,2a1.27,1.27,0,0,1,1.06.77,1,1,0,0,1,0,.84c-.07.18-.16.35-.24.52a2.15,2.15,0,0,0-.13.32.45.45,0,0,0,.24.57.52.52,0,0,0,.17,0A.28.28,0,0,1,9,5.3a.27.27,0,0,1-.25.3.42.42,0,0,0-.43.56,2.65,2.65,0,0,0,.17.44c.08.19.19.37.25.56A1.11,1.11,0,0,1,8.11,8.5a1.36,1.36,0,0,1-.4.14.25.25,0,0,1-.33-.24.24.24,0,0,1,.21-.26A1,1,0,0,0,8,8a.54.54,0,0,0,.21-.65A3.43,3.43,0,0,0,8,6.86a2.15,2.15,0,0,1-.24-.59A1,1,0,0,1,8.06,5.34Z"/></svg>