<svg id="Layer_1" data-name="Layer 1" xmlns="http://www.w3.org/2000/svg" xmlns:xlink="http://www.w3.org/1999/xlink" viewBox="0 0 24 24"><defs><style>.cls-1{fill:url(#linear-gradient);}.cls-2{fill:url(#linear-gradient-2);}</style><linearGradient id="linear-gradient" x1="2.02" y1="11.81" x2="21" y2="11.81" gradientUnits="userSpaceOnUse"><stop offset="0" stop-color="#283376"/><stop offset="1" stop-color="#1c67a6"/></linearGradient><linearGradient id="linear-gradient-2" x1="9.61" y1="11.81" x2="13.41" y2="11.81" xlink:href="#linear-gradient"/></defs><path class="cls-1" d="M5.62,13.59a12.51,12.51,0,0,0-1.69,5.78c.24,0,.47,0,.69,0a9.88,9.88,0,0,0,3-.73c.06,0,.15,0,.18,0l1.72,1.26a1.19,1.19,0,0,1-.16.08,13.83,13.83,0,0,1-5.2,1.33,2.42,2.42,0,0,1-.8-.08,1.58,1.58,0,0,1-1.32-1.52,7.54,7.54,0,0,1,.31-3.06A19.7,19.7,0,0,1,9.55,6.08L9.69,6s0,0,0,0a12,12,0,0,0-5.8-1.69c0,.37,0,.74.08,1.1A10.27,10.27,0,0,0,4.69,8a.23.23,0,0,1,0,.2c-.39.55-.8,1.11-1.2,1.66l-.06,0c-.2-.49-.4-1-.59-1.48a12.08,12.08,0,0,1-.77-3.23,5.29,5.29,0,0,1,0-1.32A1.55,1.55,0,0,1,3.63,2.37a7.38,7.38,0,0,1,3.06.31A19.68,19.68,0,0,1,17.23,9.83l.16.22A12.7,12.7,0,0,0,19.1,4.21c-.41,0-.78,0-1.16.09A10,10,0,0,0,15.36,5a.27.27,0,0,1-.2,0L13.51,3.79l-.06-.08c.63-.24,1.24-.49,1.87-.71a11,11,0,0,1,3.31-.67,4.2,4.2,0,0,1,.87,0A1.57,1.57,0,0,1,21,3.93,7.55,7.55,0,0,1,20.64,7a19.62,19.62,0,0,1-7.15,10.53l-.22.17a12.57,12.57,0,0,0,5.85,1.7C19.07,18.9,19,18.44,19,18a9.79,9.79,0,0,0-.64-2.31.26.26,0,0,1,0-.21c.39-.56.79-1.1,1.19-1.65,0,0,0,0,.08-.06.26.68.53,1.33.75,2A9.88,9.88,0,0,1,21,19.19a4,4,0,0,1-.17,1,1.46,1.46,0,0,1-1.34,1,6.05,6.05,0,0,1-1.7,0A17.31,17.31,0,0,1,11,18.59a18.94,18.94,0,0,1-5.3-4.87.36.36,0,0,0-.07-.1Zm10.7-1.76,0-.07a17.36,17.36,0,0,0-4.63-4.69c-.12-.08-.18,0-.27,0A17.2,17.2,0,0,0,6.8,11.63a.23.23,0,0,0,0,.32,17.46,17.46,0,0,0,4.54,4.57.22.22,0,0,0,.3,0A17.69,17.69,0,0,0,14,14.59,16.44,16.44,0,0,0,16.32,11.83Z"/><path class="cls-2" d="M13.41,11.82a1.9,1.9,0,1,1-1.9-1.91A1.91,1.91,0,0,1,13.41,11.82Z"/></svg>