<svg id="Layer_1" data-name="Layer 1" xmlns="http://www.w3.org/2000/svg" xmlns:xlink="http://www.w3.org/1999/xlink" viewBox="0 0 24 24"><defs><style>.cls-1{fill:url(#linear-gradient);}</style><linearGradient id="linear-gradient" x1="1.62" y1="11.95" x2="22" y2="11.95" gradientUnits="userSpaceOnUse"><stop offset="0" stop-color="#283478"/><stop offset="1" stop-color="#1675b1"/></linearGradient></defs><path class="cls-1" d="M11.81,1.76A10.19,10.19,0,1,0,22,12,10.19,10.19,0,0,0,11.81,1.76ZM8.49,14.33c-.62,0-1.25,0-2,0,.77-1.07,1.5-2.06,2.24-3.07-.73-1-1.46-2-2.25-3.08.59,0,1.11,0,1.62,0a1,1,0,0,1,1,.52c.47.79,1,1.54,1.52,2.3a.4.4,0,0,1,0,.54c-.58.85-1.14,1.71-1.73,2.56A.63.63,0,0,1,8.49,14.33Zm7,3.44c-.68,0-1.27,0-1.87,0a.45.45,0,0,1-.31-.19l-2.87-4.06a.31.31,0,0,1,0-.42l4.51-6.77a.44.44,0,0,1,.31-.18c.59,0,1.18,0,1.86,0l-4.78,7.18Z"/></svg>