<svg width="94" height="78" viewBox="0 0 94 78" fill="none" xmlns="http://www.w3.org/2000/svg">
<path d="M47.1118 40.2493C36.2976 40.2493 27.1268 31.1154 27.0425 20.2326C27.0237 17.6074 27.5262 15.0045 28.5208 12.5749C29.5154 10.1452 30.9825 7.93719 32.8368 6.07875C34.7033 4.16704 36.9311 2.64523 39.3907 1.60171C41.8503 0.558186 44.4927 0.0137454 47.1645 7.88849e-06C49.788 -0.00232884 52.386 0.514497 54.8089 1.52071C57.2317 2.52691 59.4315 4.00262 61.2815 5.86278C63.1624 7.69627 64.6618 9.88388 65.6934 12.2995C66.7249 14.7152 67.2681 17.3111 67.2918 19.9377C67.3157 25.281 65.2239 30.4166 61.4733 34.2225C57.7227 38.0283 52.6182 40.1951 47.2751 40.2493H47.1118ZM47.175 1.05352C44.6432 1.06835 42.1395 1.58585 39.8093 2.576C37.4791 3.56615 35.3687 5.00922 33.6006 6.82148C31.8419 8.57972 30.4498 10.6696 29.5048 12.9699C28.5599 15.2703 28.0811 17.7353 28.096 20.2221C28.175 30.5359 36.8665 39.1853 47.1066 39.1853H47.2435C52.31 39.1393 57.1522 37.0894 60.7116 33.4837C64.2709 29.8779 66.258 25.0095 66.2383 19.9429C66.2146 17.4546 65.6989 14.9955 64.7207 12.7074C63.7425 10.4192 62.3213 8.34723 60.5388 6.61077C58.7898 4.84629 56.708 3.4465 54.414 2.49256C52.12 1.53861 49.6595 1.04948 47.175 1.05352Z" fill="#F1592A"/>
<path d="M31.5566 26.0111V14.2539H34.4169V15.3074H32.8999V24.9786H34.4169V26.0321L31.5566 26.0111Z" fill="#F1592A"/>
<path d="M41.2648 20.0166C41.2648 22.1605 39.9637 23.3826 38.1991 23.3826C36.4344 23.3826 35.2598 22.0078 35.2598 20.1273C35.2598 18.1625 36.4924 16.7771 38.2939 16.7771C40.0954 16.7771 41.2648 18.2204 41.2648 20.0166ZM36.4924 20.1115C36.4924 21.4125 37.1455 22.445 38.2675 22.445C39.3895 22.445 40.0322 21.3915 40.0322 20.064C40.0322 18.8578 39.4369 17.72 38.2675 17.72C37.0981 17.72 36.4818 18.8209 36.4818 20.1378L36.4924 20.1115Z" fill="#F1592A"/>
<path d="M42.2549 16.9984C42.815 16.9016 43.3826 16.854 43.951 16.8561C44.5896 16.7938 45.2315 16.9358 45.7841 17.2617C45.9913 17.3838 46.1621 17.559 46.2788 17.7692C46.3955 17.9795 46.4539 18.2171 46.4478 18.4575C46.4403 18.7699 46.3344 19.0719 46.1452 19.3206C45.9561 19.5693 45.6933 19.7521 45.3943 19.8428C45.7587 19.917 46.0863 20.1148 46.3215 20.4028C46.5567 20.6908 46.6851 21.0513 46.6849 21.4231C46.6889 21.675 46.6354 21.9245 46.5287 22.1526C46.4219 22.3808 46.2645 22.5817 46.0686 22.74C45.6156 23.1403 44.8623 23.3352 43.6982 23.3352C43.2193 23.3376 42.7407 23.3094 42.2654 23.2509L42.2549 16.9984ZM43.4137 19.5215H44.009C44.8149 19.5215 45.2679 19.1423 45.2679 18.5997C45.2679 18.0571 44.8149 17.7253 44.0722 17.7253C43.8499 17.7177 43.6274 17.7336 43.4085 17.7727L43.4137 19.5215ZM43.4137 22.4608C43.6185 22.4819 43.8243 22.4907 44.03 22.4871C44.778 22.4871 45.4417 22.2027 45.4417 21.4336C45.4417 20.6646 44.7991 20.3801 43.9932 20.3801H43.4137V22.4608Z" fill="#F1592A"/>
<path d="M48.9865 16.9141H50.1506V21.0702C50.1506 22.8348 49.2973 23.4247 48.0436 23.4247C47.7083 23.422 47.3757 23.365 47.0586 23.2562L47.2008 22.3186C47.4346 22.3916 47.6776 22.4306 47.9225 22.4344C48.5862 22.4344 48.976 22.1289 48.976 21.0227L48.9865 16.9141Z" fill="#F1592A"/>
<path d="M53.4651 20.3748V21.1807H51.042V20.3748H53.4651Z" fill="#F1592A"/>
<path d="M59.1218 23.114C58.5981 23.3228 58.0365 23.4197 57.4731 23.3985C55.4451 23.3985 54.2125 22.129 54.2125 20.1853C54.1885 19.7324 54.2607 19.2796 54.4243 18.8566C54.5878 18.4336 54.8391 18.05 55.1615 17.7311C55.4839 17.4121 55.8702 17.1651 56.2949 17.0061C56.7197 16.8471 57.1733 16.7799 57.6259 16.8088C58.1671 16.7864 58.7067 16.8835 59.2061 17.0932L58.948 18.0203C58.5518 17.8517 58.1249 17.7674 57.6943 17.7727C56.3933 17.7727 55.4556 18.5892 55.4556 20.1273C55.4556 21.5285 56.2826 22.4345 57.6838 22.4345C58.1185 22.4408 58.5501 22.3602 58.9533 22.1975L59.1218 23.114Z" fill="#F1592A"/>
<path d="M62.7773 14.2224V26.0112H59.917V24.9577H61.434V15.2759H59.917V14.2224H62.7773Z" fill="#F1592A"/>
<path d="M7.00149 72.612C5.96683 72.612 5.01216 72.372 4.13749 71.892C3.27349 71.4013 2.58549 70.724 2.07349 69.86C1.57216 68.9853 1.32149 68.004 1.32149 66.916C1.32149 65.828 1.57216 64.852 2.07349 63.988C2.58549 63.124 3.27349 62.452 4.13749 61.972C5.01216 61.4813 5.96683 61.236 7.00149 61.236C8.04683 61.236 9.00149 61.4813 9.86549 61.972C10.7402 62.452 11.4282 63.124 11.9295 63.988C12.4308 64.852 12.6815 65.828 12.6815 66.916C12.6815 68.004 12.4308 68.9853 11.9295 69.86C11.4282 70.724 10.7402 71.4013 9.86549 71.892C9.00149 72.372 8.04683 72.612 7.00149 72.612ZM7.00149 71.028C7.73749 71.028 8.39349 70.8627 8.96949 70.532C9.54549 70.1907 9.99349 69.7107 10.3135 69.092C10.6442 68.4627 10.8095 67.7373 10.8095 66.916C10.8095 66.0947 10.6442 65.3747 10.3135 64.756C9.99349 64.1373 9.54549 63.6627 8.96949 63.332C8.39349 63.0013 7.73749 62.836 7.00149 62.836C6.26549 62.836 5.60949 63.0013 5.03349 63.332C4.45749 63.6627 4.00416 64.1373 3.67349 64.756C3.35349 65.3747 3.19349 66.0947 3.19349 66.916C3.19349 67.7373 3.35349 68.4627 3.67349 69.092C4.00416 69.7107 4.45749 70.1907 5.03349 70.532C5.60949 70.8627 6.26549 71.028 7.00149 71.028ZM16.3004 64.996C16.6097 64.5693 17.031 64.2227 17.5644 63.956C18.1084 63.6787 18.711 63.54 19.3724 63.54C20.151 63.54 20.855 63.7267 21.4844 64.1C22.1137 64.4733 22.6097 65.0067 22.9724 65.7C23.335 66.3827 23.5164 67.1667 23.5164 68.052C23.5164 68.9373 23.335 69.732 22.9724 70.436C22.6097 71.1293 22.1084 71.6733 21.4684 72.068C20.839 72.452 20.1404 72.644 19.3724 72.644C18.6897 72.644 18.0817 72.5107 17.5484 72.244C17.0257 71.9773 16.6097 71.636 16.3004 71.22V72.5H14.4764V60.66H16.3004V64.996ZM21.6604 68.052C21.6604 67.444 21.5324 66.9213 21.2764 66.484C21.031 66.036 20.7004 65.7 20.2844 65.476C19.879 65.2413 19.4417 65.124 18.9724 65.124C18.5137 65.124 18.0764 65.2413 17.6604 65.476C17.255 65.7107 16.9244 66.052 16.6684 66.5C16.423 66.948 16.3004 67.476 16.3004 68.084C16.3004 68.692 16.423 69.2253 16.6684 69.684C16.9244 70.132 17.255 70.4733 17.6604 70.708C18.0764 70.9427 18.5137 71.06 18.9724 71.06C19.4417 71.06 19.879 70.9427 20.2844 70.708C20.7004 70.4627 21.031 70.1107 21.2764 69.652C21.5324 69.1933 21.6604 68.66 21.6604 68.052ZM26.2481 62.516C25.9175 62.516 25.6401 62.404 25.4161 62.18C25.1921 61.956 25.0801 61.6787 25.0801 61.348C25.0801 61.0173 25.1921 60.74 25.4161 60.516C25.6401 60.292 25.9175 60.18 26.2481 60.18C26.5681 60.18 26.8401 60.292 27.0641 60.516C27.2881 60.74 27.4001 61.0173 27.4001 61.348C27.4001 61.6787 27.2881 61.956 27.0641 62.18C26.8401 62.404 26.5681 62.516 26.2481 62.516ZM27.1441 74.228C27.1441 75.092 26.9255 75.716 26.4881 76.1C26.0615 76.4947 25.4375 76.692 24.6161 76.692H23.6721V75.156H24.2961C24.6695 75.156 24.9308 75.0813 25.0801 74.932C25.2401 74.7933 25.3201 74.5587 25.3201 74.228V63.684H27.1441V74.228ZM37.6189 67.876C37.6189 68.2067 37.5975 68.5053 37.5549 68.772H30.8189C30.8722 69.476 31.1335 70.0413 31.6029 70.468C32.0722 70.8947 32.6482 71.108 33.3309 71.108C34.3122 71.108 35.0055 70.6973 35.4109 69.876H37.3789C37.1122 70.6867 36.6269 71.3533 35.9229 71.876C35.2295 72.388 34.3655 72.644 33.3309 72.644C32.4882 72.644 31.7309 72.4573 31.0589 72.084C30.3975 71.7 29.8749 71.1667 29.4909 70.484C29.1175 69.7907 28.9309 68.9907 28.9309 68.084C28.9309 67.1773 29.1122 66.3827 29.4749 65.7C29.8482 65.0067 30.3655 64.4733 31.0269 64.1C31.6989 63.7267 32.4669 63.54 33.3309 63.54C34.1629 63.54 34.9042 63.7213 35.5549 64.084C36.2055 64.4467 36.7122 64.9587 37.0749 65.62C37.4375 66.2707 37.6189 67.0227 37.6189 67.876ZM35.7149 67.3C35.7042 66.628 35.4642 66.0893 34.9949 65.684C34.5255 65.2787 33.9442 65.076 33.2509 65.076C32.6215 65.076 32.0829 65.2787 31.6349 65.684C31.1869 66.0787 30.9202 66.6173 30.8349 67.3H35.7149ZM38.8059 68.084C38.8059 67.1773 38.9872 66.3827 39.3499 65.7C39.7232 65.0067 40.2352 64.4733 40.8859 64.1C41.5365 63.7267 42.2832 63.54 43.1259 63.54C44.1925 63.54 45.0725 63.796 45.7659 64.308C46.4699 64.8093 46.9445 65.5293 47.1899 66.468H45.2219C45.0619 66.0307 44.8059 65.6893 44.4539 65.444C44.1019 65.1987 43.6592 65.076 43.1259 65.076C42.3792 65.076 41.7819 65.3427 41.3339 65.876C40.8965 66.3987 40.6779 67.1347 40.6779 68.084C40.6779 69.0333 40.8965 69.7747 41.3339 70.308C41.7819 70.8413 42.3792 71.108 43.1259 71.108C44.1819 71.108 44.8805 70.644 45.2219 69.716H47.1899C46.9339 70.612 46.4539 71.3267 45.7499 71.86C45.0459 72.3827 44.1712 72.644 43.1259 72.644C42.2832 72.644 41.5365 72.4573 40.8859 72.084C40.2352 71.7 39.7232 71.1667 39.3499 70.484C38.9872 69.7907 38.8059 68.9907 38.8059 68.084ZM51.1356 65.172V70.052C51.1356 70.3827 51.2103 70.6227 51.3596 70.772C51.5196 70.9107 51.7863 70.98 52.1596 70.98H53.2796V72.5H51.8396C51.0183 72.5 50.389 72.308 49.9516 71.924C49.5143 71.54 49.2956 70.916 49.2956 70.052V65.172H48.2556V63.684H49.2956V61.492H51.1356V63.684H53.2796V65.172H51.1356ZM55.8887 62.516C55.5581 62.516 55.2807 62.404 55.0567 62.18C54.8327 61.956 54.7207 61.6787 54.7207 61.348C54.7207 61.0173 54.8327 60.74 55.0567 60.516C55.2807 60.292 55.5581 60.18 55.8887 60.18C56.2087 60.18 56.4807 60.292 56.7047 60.516C56.9287 60.74 57.0407 61.0173 57.0407 61.348C57.0407 61.6787 56.9287 61.956 56.7047 62.18C56.4807 62.404 56.2087 62.516 55.8887 62.516ZM56.7847 63.684V72.5H54.9607V63.684H56.7847ZM62.5875 70.868L65.0835 63.684H67.0195L63.6595 72.5H61.4835L58.1395 63.684H60.0915L62.5875 70.868ZM76.4782 67.876C76.4782 68.2067 76.4569 68.5053 76.4142 68.772H69.6782C69.7316 69.476 69.9929 70.0413 70.4622 70.468C70.9316 70.8947 71.5076 71.108 72.1902 71.108C73.1716 71.108 73.8649 70.6973 74.2702 69.876H76.2382C75.9716 70.6867 75.4862 71.3533 74.7822 71.876C74.0889 72.388 73.2249 72.644 72.1902 72.644C71.3476 72.644 70.5902 72.4573 69.9182 72.084C69.2569 71.7 68.7342 71.1667 68.3502 70.484C67.9769 69.7907 67.7902 68.9907 67.7902 68.084C67.7902 67.1773 67.9716 66.3827 68.3342 65.7C68.7076 65.0067 69.2249 64.4733 69.8862 64.1C70.5582 63.7267 71.3262 63.54 72.1902 63.54C73.0222 63.54 73.7636 63.7213 74.4142 64.084C75.0649 64.4467 75.5716 64.9587 75.9342 65.62C76.2969 66.2707 76.4782 67.0227 76.4782 67.876ZM74.5742 67.3C74.5636 66.628 74.3236 66.0893 73.8542 65.684C73.3849 65.2787 72.8036 65.076 72.1102 65.076C71.4809 65.076 70.9422 65.2787 70.4942 65.684C70.0462 66.0787 69.7796 66.6173 69.6942 67.3H74.5742ZM81.8215 66.916C81.8215 65.828 82.0722 64.852 82.5735 63.988C83.0855 63.124 83.7735 62.452 84.6375 61.972C85.5122 61.4813 86.4668 61.236 87.5015 61.236C88.6855 61.236 89.7362 61.5293 90.6535 62.116C91.5815 62.692 92.2535 63.5133 92.6695 64.58H90.4775C90.1895 63.9933 89.7895 63.556 89.2775 63.268C88.7655 62.98 88.1735 62.836 87.5015 62.836C86.7655 62.836 86.1095 63.0013 85.5335 63.332C84.9575 63.6627 84.5042 64.1373 84.1735 64.756C83.8535 65.3747 83.6935 66.0947 83.6935 66.916C83.6935 67.7373 83.8535 68.4573 84.1735 69.076C84.5042 69.6947 84.9575 70.1747 85.5335 70.516C86.1095 70.8467 86.7655 71.012 87.5015 71.012C88.1735 71.012 88.7655 70.868 89.2775 70.58C89.7895 70.292 90.1895 69.8547 90.4775 69.268H92.6695C92.2535 70.3347 91.5815 71.156 90.6535 71.732C89.7362 72.308 88.6855 72.596 87.5015 72.596C86.4562 72.596 85.5015 72.356 84.6375 71.876C83.7735 71.3853 83.0855 70.708 82.5735 69.844C82.0722 68.98 81.8215 68.004 81.8215 66.916Z" fill="#434343"/>
</svg>
