<svg width="48" height="57" viewBox="0 0 48 57" fill="none" xmlns="http://www.w3.org/2000/svg">
<g clip-path="url(#clip0_6204_14699)">
<path fill-rule="evenodd" clip-rule="evenodd" d="M14.9875 17.5575C14.4859 17.5754 14.1096 17.6784 13.8498 17.8531C13.702 17.9516 13.5945 18.077 13.5228 18.2293C13.4467 18.3951 13.4109 18.6011 13.4153 18.834C13.4332 19.5193 13.7961 20.4152 14.4903 21.4454L14.4993 21.4588L16.7523 25.0422C17.6571 26.48 18.6022 27.9446 19.7802 29.0196C20.9135 30.0543 22.2841 30.7531 24.1026 30.7576C26.069 30.762 27.5068 30.0364 28.6759 28.9435C29.8897 27.8058 30.8482 26.247 31.7934 24.6928L34.333 20.5137C34.8078 19.4342 34.978 18.7131 34.8705 18.2876C34.8078 18.0367 34.5301 17.9113 34.0553 17.8889C33.9568 17.8844 33.8493 17.8844 33.7463 17.8844C33.6343 17.8889 33.5134 17.8934 33.3924 17.9068C33.3252 17.9113 33.258 17.9068 33.1953 17.8934C32.9714 17.9068 32.7385 17.8889 32.5011 17.8576L33.37 14.01C26.92 15.0267 22.096 10.2385 15.2787 13.0514L15.7714 17.5843C15.4847 17.6023 15.2249 17.5933 14.9875 17.5575ZM31.4798 47.9128V50.0762L27.032 52.598V50.0762L29.8942 48.9878L27.032 47.9128V45.391L31.4798 47.9128ZM23.7756 53.3102H21.881L24.2191 44.1995H26.1138L23.7756 53.3102ZM20.6134 47.9128L17.7512 48.9878L20.6134 50.0762V52.598L16.1655 50.0762V47.9128L20.6134 45.391V47.9128ZM34.9109 16.7467C35.0049 12.8185 35.7261 8.84996 32.9311 5.62944C30.9378 3.33163 25.751 1.16819 22.3871 0.984546C20.9672 0.9084 21.5092 2.06402 20.1072 2.54777C17.2137 3.54663 14.6829 5.66975 13.8543 8.61705C13.7199 9.1008 13.6259 9.58902 13.5766 10.0773C13.4825 12.1287 13.5363 14.5743 13.6841 16.5183C13.4825 16.5944 13.2989 16.6885 13.1376 16.796C12.7882 17.0289 12.5329 17.3335 12.3627 17.6963C12.2015 18.0412 12.1298 18.4354 12.1432 18.8699C12.1701 19.7926 12.5956 20.9124 13.4198 22.1441L15.6728 25.7275C16.4612 26.9816 17.2853 28.2582 18.2887 29.3377C18.2394 29.481 18.2931 29.3242 18.2618 29.4183C17.9841 30.2604 17.5182 31.6668 17.1017 32.4552C14.3649 34.2468 8.09856 34.7082 5.66637 36.0654C-0.971755 39.7652 1.4246 47.3932 1.34397 53.6954C1.47387 55.1018 2.27116 55.9081 3.83887 56.029H5.53647L3.67762 41.9196C3.53429 40.8223 4.31366 39.9219 5.2722 39.9219H13.9931H24.2863C23.9324 37.6376 18.0244 35.4338 17.8139 33.7138C17.8721 33.6735 17.9258 33.6198 17.9706 33.557C18.4723 32.8583 18.9919 31.4026 19.3502 30.341C20.6178 31.3667 22.1407 32.0386 24.0981 32.0431C25.854 32.0476 27.256 31.5593 28.434 30.7665C28.5504 30.9323 28.6669 31.1069 28.7923 31.2906C29.3522 32.1148 30.0062 33.0688 30.6153 33.7496C30.4854 35.707 25.3613 35.7294 24.779 39.9219H43.0271C43.9856 39.9219 44.7695 40.8223 44.6217 41.9196L42.7628 56.029H44.4604C46.0281 55.9081 46.8254 55.1018 46.9598 53.6954C46.5164 47.7426 48.747 39.4695 42.6374 36.0654C40.2366 34.7261 34.1001 34.2603 31.3096 32.5268C30.8393 31.9445 30.3331 31.201 29.8852 30.547C29.7419 30.332 29.603 30.1305 29.4731 29.9468L29.5403 29.8886C30.8796 28.6344 31.8874 26.9995 32.8773 25.3691L35.4439 21.1408C35.4573 21.1184 35.4707 21.0915 35.4842 21.0691C36.0844 19.703 36.2815 18.6996 36.1023 17.9919C35.9366 17.3335 35.5379 16.9393 34.9109 16.7467Z" fill="#002680"/>
</g>
<defs>
<clipPath id="clip0_6204_14699">
<rect width="46.019" height="55.04" fill="white" transform="translate(0.990234 0.97998)"/>
</clipPath>
</defs>
</svg>
