<?xml version="1.0" encoding="utf-8"?>
<!-- Generator: Adobe Illustrator 25.2.1, SVG Export Plug-In . SVG Version: 6.00 Build 0)  -->
<svg version="1.1" id="Layer_1" xmlns="http://www.w3.org/2000/svg" xmlns:xlink="http://www.w3.org/1999/xlink" x="0px" y="0px"
	 viewBox="0 0 24 24" style="enable-background:new 0 0 24 24;" xml:space="preserve">
<style type="text/css">
	.st0{fill:#002680;}
	.st1{opacity:0.65;}
	.st2{fill:url(#SVGID_1_);}
	.st3{fill:#FFFFFF;}
	.st4{fill:url(#SVGID_2_);}
	.st5{fill:url(#SVGID_3_);}
	.st6{fill:url(#SVGID_4_);}
	.st7{fill:url(#SVGID_5_);}
	.st8{fill:url(#SVGID_6_);}
	.st9{fill:url(#SVGID_7_);}
	.st10{fill:url(#SVGID_8_);}
	.st11{fill:url(#SVGID_9_);}
	.st12{fill:url(#SVGID_10_);}
	.st13{fill:url(#SVGID_11_);}
	.st14{fill:url(#SVGID_12_);}
	.st15{fill:url(#SVGID_13_);}
	.st16{fill:url(#SVGID_14_);}
	.st17{fill:url(#SVGID_15_);}
	.st18{fill:url(#SVGID_16_);}
	.st19{fill:url(#SVGID_17_);}
	.st20{fill:url(#SVGID_18_);}
	.st21{fill:url(#SVGID_19_);}
	.st22{fill:url(#SVGID_20_);}
	.st23{fill:url(#SVGID_21_);}
	.st24{fill:url(#SVGID_22_);}
	.st25{fill:url(#SVGID_23_);}
	.st26{fill:url(#SVGID_24_);}
	.st27{fill:url(#SVGID_25_);}
	.st28{fill:url(#SVGID_26_);}
	.st29{fill:url(#SVGID_27_);}
	.st30{fill:url(#SVGID_28_);}
	.st31{fill:url(#SVGID_29_);}
	.st32{fill:url(#SVGID_30_);}
	.st33{fill:url(#SVGID_31_);}
	.st34{fill:url(#SVGID_32_);}
	.st35{fill:url(#SVGID_33_);}
	.st36{fill:url(#SVGID_34_);}
	.st37{fill:url(#SVGID_35_);}
	.st38{fill:url(#SVGID_36_);}
	.st39{fill:url(#SVGID_37_);}
	.st40{fill:url(#SVGID_38_);}
	.st41{fill:url(#SVGID_39_);}
	.st42{fill:url(#SVGID_40_);}
	.st43{fill:url(#SVGID_41_);}
	.st44{fill:url(#SVGID_42_);}
	.st45{fill:url(#SVGID_43_);}
	.st46{fill:url(#SVGID_44_);}
	.st47{fill:url(#SVGID_45_);}
	.st48{fill:url(#SVGID_46_);}
	.st49{fill:url(#SVGID_47_);}
	.st50{fill:url(#SVGID_48_);}
	.st51{fill:url(#SVGID_49_);}
	.st52{fill:url(#SVGID_50_);}
	.st53{fill:url(#SVGID_51_);}
	.st54{fill:url(#SVGID_52_);}
	.st55{fill:url(#SVGID_53_);}
	.st56{fill:url(#SVGID_54_);}
	.st57{fill:url(#SVGID_55_);}
	.st58{fill:url(#SVGID_56_);}
	.st59{fill:url(#SVGID_57_);}
	.st60{fill:url(#SVGID_58_);}
	.st61{fill:url(#SVGID_59_);}
	.st62{fill:url(#SVGID_60_);}
	.st63{fill:url(#SVGID_61_);}
	.st64{fill:url(#SVGID_62_);}
	.st65{fill:url(#SVGID_63_);}
	.st66{fill:url(#SVGID_64_);}
	.st67{fill:url(#SVGID_65_);}
	.st68{fill:url(#SVGID_66_);}
	.st69{fill:url(#SVGID_67_);}
	.st70{fill:url(#SVGID_68_);}
	.st71{fill:url(#SVGID_69_);}
	.st72{fill:url(#SVGID_70_);}
	.st73{fill:url(#SVGID_71_);}
	.st74{fill:url(#SVGID_72_);}
	.st75{fill:url(#SVGID_73_);}
	.st76{fill:url(#SVGID_74_);}
	.st77{fill:url(#SVGID_75_);}
	.st78{fill:url(#SVGID_76_);}
	.st79{fill:url(#SVGID_77_);}
	.st80{fill:url(#SVGID_78_);}
	.st81{fill:url(#SVGID_79_);}
	.st82{fill:url(#SVGID_80_);}
	.st83{fill:url(#SVGID_81_);}
	.st84{fill:url(#SVGID_82_);}
	.st85{fill:url(#SVGID_83_);}
	.st86{fill:url(#SVGID_84_);}
	.st87{fill:url(#SVGID_85_);}
	.st88{fill:url(#SVGID_86_);}
	.st89{fill:url(#SVGID_87_);}
	.st90{fill:url(#SVGID_88_);}
	.st91{fill:url(#SVGID_89_);}
	.st92{fill:url(#SVGID_90_);}
	.st93{fill:url(#SVGID_91_);}
	.st94{fill:url(#SVGID_92_);}
	.st95{fill:url(#SVGID_93_);}
	.st96{fill:url(#SVGID_94_);}
	.st97{fill:url(#SVGID_95_);}
	.st98{fill:url(#SVGID_96_);}
	.st99{fill:url(#SVGID_97_);}
	.st100{fill:url(#SVGID_98_);}
	.st101{fill:url(#SVGID_99_);}
	.st102{fill:url(#SVGID_100_);}
	.st103{fill:url(#SVGID_101_);}
	.st104{fill:url(#SVGID_102_);}
	.st105{fill:url(#SVGID_103_);}
	.st106{fill:url(#SVGID_104_);}
	.st107{fill:url(#SVGID_105_);}
	.st108{fill:url(#SVGID_106_);}
	.st109{fill:url(#SVGID_107_);}
	.st110{fill:url(#SVGID_108_);}
	.st111{fill:url(#SVGID_109_);}
	.st112{fill:url(#SVGID_110_);}
	.st113{fill:url(#SVGID_111_);}
	.st114{fill:url(#SVGID_112_);}
	.st115{fill:url(#SVGID_113_);}
	.st116{fill:url(#SVGID_114_);}
	.st117{fill:url(#SVGID_115_);}
	.st118{fill:url(#SVGID_116_);}
	.st119{fill:url(#SVGID_117_);}
	.st120{fill:url(#SVGID_118_);}
	.st121{fill:url(#SVGID_119_);}
	.st122{fill:url(#SVGID_120_);}
	.st123{fill:url(#SVGID_121_);}
	.st124{fill:url(#SVGID_122_);}
	.st125{fill:url(#SVGID_123_);}
	.st126{fill:url(#SVGID_124_);}
	.st127{fill:url(#SVGID_125_);}
	.st128{fill:url(#SVGID_126_);}
	.st129{fill:url(#SVGID_127_);}
	.st130{fill:url(#SVGID_128_);}
	.st131{fill:url(#SVGID_129_);}
	.st132{fill:url(#SVGID_130_);}
	.st133{fill:url(#SVGID_131_);}
	.st134{fill:url(#SVGID_132_);}
	.st135{fill:url(#SVGID_133_);}
	.st136{fill:url(#SVGID_134_);}
	.st137{fill:url(#SVGID_135_);}
	.st138{fill:url(#SVGID_136_);}
	.st139{fill:url(#SVGID_137_);}
	.st140{fill:url(#SVGID_138_);}
	.st141{fill:url(#SVGID_139_);}
	.st142{fill:url(#SVGID_140_);}
	.st143{fill:url(#SVGID_141_);}
	.st144{fill:url(#SVGID_142_);}
	.st145{fill:url(#SVGID_143_);}
	.st146{fill:url(#SVGID_144_);}
	.st147{fill:url(#SVGID_145_);}
	.st148{fill:url(#SVGID_146_);}
	.st149{fill:url(#SVGID_147_);}
	.st150{fill:url(#SVGID_148_);}
	.st151{fill:url(#SVGID_149_);}
	.st152{fill:url(#SVGID_150_);}
	.st153{fill:url(#SVGID_151_);}
	.st154{fill:url(#SVGID_152_);}
	.st155{fill:url(#SVGID_153_);}
	.st156{fill:url(#SVGID_154_);}
	.st157{fill:url(#SVGID_155_);}
	.st158{fill:url(#SVGID_156_);}
	.st159{fill:url(#SVGID_157_);}
	.st160{fill:url(#SVGID_158_);}
	.st161{fill:url(#SVGID_159_);}
	.st162{fill:url(#SVGID_160_);}
	.st163{fill:url(#SVGID_161_);}
	.st164{fill:url(#SVGID_162_);}
	.st165{fill:url(#SVGID_163_);}
	.st166{fill:url(#SVGID_164_);}
	.st167{fill:url(#SVGID_165_);}
	.st168{fill:url(#SVGID_166_);}
	.st169{fill:url(#SVGID_167_);}
	.st170{fill:url(#SVGID_168_);}
	.st171{fill:url(#SVGID_169_);}
	.st172{fill:url(#SVGID_170_);}
	.st173{fill:url(#SVGID_171_);}
	.st174{fill:url(#SVGID_172_);}
	.st175{fill:url(#SVGID_173_);}
	.st176{fill:url(#SVGID_174_);}
	.st177{fill:url(#SVGID_175_);}
	.st178{fill:url(#SVGID_176_);}
	.st179{fill:url(#SVGID_177_);}
	.st180{fill:url(#SVGID_178_);}
	.st181{fill:url(#SVGID_179_);}
	.st182{fill:url(#SVGID_180_);}
	.st183{fill:url(#SVGID_181_);}
	.st184{fill:url(#SVGID_182_);}
	.st185{fill:url(#SVGID_183_);}
	.st186{fill:url(#SVGID_184_);}
	.st187{fill:url(#SVGID_185_);}
	.st188{fill:url(#SVGID_186_);}
	.st189{fill:url(#SVGID_187_);}
	.st190{fill:url(#SVGID_188_);}
	.st191{fill:url(#SVGID_189_);}
	.st192{fill:url(#SVGID_190_);}
	.st193{fill:url(#SVGID_191_);}
	.st194{fill:url(#SVGID_192_);}
	.st195{fill:url(#SVGID_193_);}
	.st196{fill:url(#SVGID_194_);}
	.st197{fill:url(#SVGID_195_);}
	.st198{fill:url(#SVGID_196_);}
	.st199{fill:url(#SVGID_197_);}
	.st200{fill:url(#SVGID_198_);}
	.st201{fill:url(#SVGID_199_);}
	.st202{fill:url(#SVGID_200_);}
	.st203{fill:url(#SVGID_201_);}
	.st204{fill:url(#SVGID_202_);}
	.st205{fill:url(#SVGID_203_);}
	.st206{fill:url(#SVGID_204_);}
	.st207{fill:url(#SVGID_205_);}
	.st208{fill:url(#SVGID_206_);}
	.st209{fill:url(#SVGID_207_);}
	.st210{fill:url(#SVGID_208_);}
	.st211{fill:url(#SVGID_209_);}
	.st212{fill:url(#SVGID_210_);}
	.st213{fill:url(#SVGID_211_);}
	.st214{fill:url(#SVGID_212_);}
	.st215{fill:url(#SVGID_213_);}
	.st216{fill:url(#SVGID_214_);}
	.st217{fill:url(#SVGID_215_);}
	.st218{fill:url(#SVGID_216_);}
	.st219{fill:url(#SVGID_217_);}
	.st220{fill:url(#SVGID_218_);}
	.st221{fill:url(#SVGID_219_);}
	.st222{fill:url(#SVGID_220_);}
	.st223{fill:url(#SVGID_221_);}
	.st224{fill:url(#SVGID_222_);}
	.st225{fill:url(#SVGID_223_);}
	.st226{fill:url(#SVGID_224_);}
	.st227{fill:url(#SVGID_225_);}
	.st228{fill:url(#SVGID_226_);}
	.st229{fill:url(#SVGID_227_);}
	.st230{fill:url(#SVGID_228_);}
	.st231{fill:url(#SVGID_229_);}
	.st232{fill:url(#SVGID_230_);}
	.st233{fill:url(#SVGID_231_);}
	.st234{fill:url(#SVGID_232_);}
	.st235{fill:url(#SVGID_233_);}
	.st236{fill:url(#SVGID_234_);}
	.st237{fill:url(#SVGID_235_);}
	.st238{fill:url(#SVGID_236_);}
	.st239{fill:url(#SVGID_237_);}
	.st240{fill:url(#SVGID_238_);}
	.st241{fill:url(#SVGID_239_);}
	.st242{fill:url(#SVGID_240_);}
	.st243{fill:url(#SVGID_241_);}
	.st244{fill:url(#SVGID_242_);}
	.st245{fill:url(#SVGID_243_);}
	.st246{fill:url(#SVGID_244_);}
	.st247{fill:url(#SVGID_245_);}
	.st248{fill:url(#SVGID_246_);}
	.st249{fill:url(#SVGID_247_);}
	.st250{fill-rule:evenodd;clip-rule:evenodd;fill:#002680;}
	.st251{fill-rule:evenodd;clip-rule:evenodd;fill:url(#SVGID_248_);}
	.st252{fill-rule:evenodd;clip-rule:evenodd;fill:url(#SVGID_249_);}
	.st253{fill-rule:evenodd;clip-rule:evenodd;fill:url(#SVGID_250_);}
	.st254{fill-rule:evenodd;clip-rule:evenodd;fill:url(#SVGID_251_);}
	.st255{fill-rule:evenodd;clip-rule:evenodd;fill:url(#SVGID_252_);}
	.st256{fill-rule:evenodd;clip-rule:evenodd;fill:url(#SVGID_253_);}
	.st257{fill-rule:evenodd;clip-rule:evenodd;fill:url(#SVGID_254_);}
	.st258{fill-rule:evenodd;clip-rule:evenodd;fill:url(#SVGID_255_);}
	.st259{fill-rule:evenodd;clip-rule:evenodd;fill:url(#SVGID_256_);}
	.st260{fill-rule:evenodd;clip-rule:evenodd;fill:#FFFFFF;}
	.st261{fill:url(#SVGID_257_);}
	.st262{fill:url(#SVGID_258_);}
	.st263{fill:url(#SVGID_259_);}
	.st264{fill:url(#SVGID_260_);}
	.st265{fill:url(#SVGID_261_);}
	.st266{fill:url(#SVGID_262_);}
	.st267{fill:url(#SVGID_263_);}
	.st268{fill:url(#SVGID_264_);}
	.st269{fill:url(#SVGID_265_);}
	.st270{fill:url(#SVGID_266_);}
	.st271{fill:url(#SVGID_267_);}
	.st272{fill:url(#SVGID_268_);}
	.st273{fill:url(#SVGID_269_);}
	.st274{fill:url(#SVGID_270_);}
	.st275{fill:url(#SVGID_271_);}
	.st276{fill:url(#SVGID_272_);}
	.st277{fill:url(#SVGID_273_);}
	.st278{fill:url(#SVGID_274_);}
	.st279{fill:url(#SVGID_275_);}
	.st280{fill:url(#SVGID_276_);}
	.st281{fill:url(#SVGID_277_);}
	.st282{fill:url(#SVGID_278_);}
	.st283{fill:url(#SVGID_279_);}
	.st284{fill:url(#SVGID_280_);}
	.st285{fill:url(#SVGID_281_);}
	.st286{fill:url(#SVGID_282_);}
	.st287{fill:url(#SVGID_283_);}
	.st288{fill:url(#SVGID_284_);}
	.st289{fill:url(#SVGID_285_);}
	.st290{fill:url(#SVGID_286_);}
	.st291{fill:url(#SVGID_287_);}
	.st292{fill:url(#SVGID_288_);}
	.st293{fill:url(#SVGID_289_);}
	.st294{fill:url(#SVGID_290_);}
	.st295{fill:url(#SVGID_291_);}
	.st296{fill:url(#SVGID_292_);}
	.st297{fill:url(#SVGID_293_);}
	.st298{fill:url(#SVGID_294_);}
	.st299{fill:url(#SVGID_295_);}
	.st300{fill:url(#SVGID_296_);}
	.st301{fill:url(#SVGID_297_);}
	.st302{fill:url(#SVGID_298_);}
	.st303{fill:url(#SVGID_299_);}
	.st304{fill:url(#SVGID_300_);}
	.st305{fill:url(#SVGID_301_);}
	.st306{fill:url(#SVGID_302_);}
	.st307{fill:url(#SVGID_303_);}
	.st308{fill:url(#SVGID_304_);}
	.st309{fill:url(#SVGID_305_);}
	.st310{fill:url(#SVGID_306_);}
	.st311{fill:url(#SVGID_307_);}
	.st312{fill:url(#SVGID_308_);}
	.st313{fill:url(#SVGID_309_);}
	.st314{fill:url(#SVGID_310_);}
	.st315{fill:url(#SVGID_311_);}
	.st316{fill:url(#SVGID_312_);}
	.st317{fill:url(#SVGID_313_);}
	.st318{fill:url(#SVGID_314_);}
	.st319{fill:url(#SVGID_315_);}
	.st320{fill:url(#SVGID_316_);}
	.st321{fill:url(#SVGID_317_);}
	.st322{fill:url(#SVGID_318_);}
	.st323{fill:url(#SVGID_319_);}
	.st324{fill:url(#SVGID_320_);}
	.st325{fill:url(#SVGID_321_);}
	.st326{fill:url(#SVGID_322_);}
	.st327{fill:url(#SVGID_323_);}
	.st328{fill:url(#SVGID_324_);}
	.st329{fill:url(#SVGID_325_);}
	.st330{fill:url(#SVGID_326_);}
	.st331{fill:url(#SVGID_327_);}
	.st332{fill:url(#SVGID_328_);}
	.st333{fill:url(#SVGID_329_);}
	.st334{fill:url(#SVGID_330_);}
	.st335{fill:url(#SVGID_331_);}
	.st336{fill:url(#SVGID_332_);}
	.st337{fill:url(#SVGID_333_);}
	.st338{fill:url(#SVGID_334_);}
	.st339{fill:url(#SVGID_335_);}
	.st340{fill:url(#SVGID_336_);}
	.st341{fill:url(#SVGID_337_);}
	.st342{fill:url(#SVGID_338_);}
	.st343{fill:url(#SVGID_339_);}
	.st344{fill:url(#SVGID_340_);}
	.st345{fill:url(#SVGID_341_);}
	.st346{fill:url(#SVGID_342_);}
	.st347{fill-rule:evenodd;clip-rule:evenodd;}
	.st348{fill:none;}
	.st349{fill-rule:evenodd;clip-rule:evenodd;fill:url(#SVGID_343_);}
	.st350{fill:url(#SVGID_344_);}
	.st351{fill:url(#SVGID_345_);}
	.st352{fill:url(#SVGID_346_);}
	.st353{fill:url(#SVGID_347_);}
	.st354{fill-rule:evenodd;clip-rule:evenodd;fill:none;stroke:#FFFFFF;stroke-width:0.25;stroke-miterlimit:10;}
	.st355{fill:url(#SVGID_348_);}
	.st356{fill:url(#SVGID_349_);}
	.st357{fill:url(#SVGID_350_);}
	.st358{fill:url(#SVGID_351_);}
	.st359{fill:url(#SVGID_352_);}
	.st360{fill:url(#SVGID_353_);}
	.st361{fill:url(#SVGID_354_);}
	.st362{fill:url(#SVGID_355_);}
	.st363{fill:url(#SVGID_356_);}
	.st364{fill:url(#SVGID_357_);}
	.st365{fill:url(#SVGID_358_);}
	.st366{fill:url(#SVGID_359_);}
	.st367{fill:url(#SVGID_360_);}
	.st368{fill:url(#SVGID_361_);}
	.st369{fill:url(#SVGID_362_);}
	.st370{fill:url(#SVGID_363_);}
	.st371{fill:url(#SVGID_364_);}
	.st372{fill:url(#SVGID_365_);}
	.st373{fill:url(#SVGID_366_);}
	.st374{fill:url(#SVGID_367_);}
	.st375{fill:url(#SVGID_368_);}
	.st376{fill:url(#SVGID_369_);}
	.st377{fill:url(#SVGID_370_);}
	.st378{fill:url(#SVGID_371_);}
	.st379{fill:url(#SVGID_372_);}
	.st380{fill:url(#SVGID_373_);}
	.st381{fill:url(#SVGID_374_);}
	.st382{fill:url(#SVGID_375_);}
	.st383{fill:url(#SVGID_376_);}
	.st384{fill:url(#SVGID_377_);}
</style>
<g>
	<path class="st0" d="M8.9,6.29c-0.06,0.18,0,0.37,0.15,0.49l1.31,1.05L9.91,9.46c-0.05,0.18,0.02,0.37,0.17,0.48
		c0.15,0.11,0.35,0.12,0.51,0.01L12,9.03l1.4,0.92c0.08,0.05,0.16,0.07,0.25,0.07c0.09,0,0.18-0.03,0.26-0.09
		c0.15-0.11,0.22-0.3,0.17-0.48l-0.44-1.62l1.31-1.05c0.15-0.12,0.2-0.31,0.15-0.49c-0.06-0.18-0.22-0.3-0.41-0.31L13.02,5.9
		l-0.6-1.57C12.35,4.16,12.19,4.04,12,4.04s-0.35,0.11-0.42,0.29l-0.6,1.57L9.31,5.98C9.12,5.99,8.96,6.11,8.9,6.29z"/>
	<path class="st0" d="M11.13,6.53c0.18-0.01,0.34-0.12,0.4-0.29L12,5.01l0.47,1.23c0.06,0.17,0.22,0.28,0.4,0.29l1.31,0.06
		l-1.03,0.82c-0.14,0.11-0.2,0.3-0.15,0.47l0.34,1.27l-1.1-0.72C12.17,8.38,12.09,8.36,12,8.36c-0.09,0-0.17,0.02-0.25,0.07
		l-1.1,0.72L11,7.89c0.05-0.17-0.01-0.36-0.15-0.47L9.82,6.59L11.13,6.53z"/>
	<path class="st0" d="M11.68,3.01V1.85c0-0.18,0.14-0.32,0.32-0.32s0.32,0.14,0.32,0.32v1.16c0,0.18-0.14,0.32-0.32,0.32
		S11.68,3.19,11.68,3.01z"/>
	<path class="st0" d="M13.61,4.89c-0.12-0.13-0.11-0.33,0.02-0.45l1.3-1.17c0.13-0.12,0.33-0.11,0.45,0.02
		c0.12,0.13,0.11,0.33-0.02,0.45l-1.3,1.17C14,4.97,13.92,4.99,13.85,4.99C13.76,4.99,13.68,4.96,13.61,4.89z"/>
	<path class="st0" d="M8.62,3.3c0.12-0.13,0.32-0.14,0.45-0.02l1.3,1.17c0.13,0.12,0.14,0.32,0.02,0.45
		c-0.06,0.07-0.15,0.1-0.24,0.1c-0.08,0-0.15-0.03-0.21-0.08l-1.3-1.17C8.51,3.63,8.5,3.43,8.62,3.3z"/>
	<path class="st0" d="M11.68,3.01V1.85c0-0.18,0.14-0.32,0.32-0.32s0.32,0.14,0.32,0.32v1.16c0,0.18-0.14,0.32-0.32,0.32
		S11.68,3.19,11.68,3.01z"/>
	<path class="st0" d="M13.61,4.89c-0.12-0.13-0.11-0.33,0.02-0.45l1.3-1.17c0.13-0.12,0.33-0.11,0.45,0.02
		c0.12,0.13,0.11,0.33-0.02,0.45l-1.3,1.17C14,4.97,13.92,4.99,13.85,4.99C13.76,4.99,13.68,4.96,13.61,4.89z"/>
	<path class="st0" d="M8.62,3.3c0.12-0.13,0.32-0.14,0.45-0.02l1.3,1.17c0.13,0.12,0.14,0.32,0.02,0.45
		c-0.06,0.07-0.15,0.1-0.24,0.1c-0.08,0-0.15-0.03-0.21-0.08l-1.3-1.17C8.51,3.63,8.5,3.43,8.62,3.3z"/>
	<path class="st0" d="M16.07,6.78l1.31,1.05l-0.44,1.62c-0.05,0.18,0.02,0.37,0.17,0.48c0.15,0.11,0.35,0.12,0.51,0.01l1.4-0.92
		l1.4,0.92c0.08,0.05,0.16,0.07,0.25,0.07c0.09,0,0.18-0.03,0.26-0.09c0.15-0.11,0.22-0.3,0.17-0.48l-0.44-1.62l1.31-1.05
		c0.15-0.12,0.2-0.31,0.15-0.49c-0.06-0.18-0.22-0.3-0.41-0.31L20.04,5.9l-0.6-1.57c-0.07-0.18-0.23-0.29-0.42-0.29
		c-0.19,0-0.35,0.11-0.42,0.29L18,5.9l-1.68,0.08c-0.19,0.01-0.35,0.13-0.41,0.31C15.86,6.47,15.92,6.66,16.07,6.78z"/>
	<path class="st0" d="M18.15,6.53c0.18-0.01,0.34-0.12,0.4-0.29l0.47-1.23l0.47,1.23c0.06,0.17,0.22,0.28,0.4,0.29l1.31,0.06
		l-1.02,0.82c-0.14,0.11-0.2,0.3-0.15,0.47l0.34,1.27l-1.1-0.72c-0.07-0.05-0.16-0.07-0.25-0.07c-0.09,0-0.17,0.02-0.25,0.07
		l-1.1,0.72l0.34-1.27c0.05-0.17-0.01-0.36-0.15-0.47l-1.02-0.82L18.15,6.53z"/>
	<path class="st0" d="M2.03,6.78l1.31,1.05L2.9,9.46C2.85,9.64,2.91,9.83,3.07,9.94s0.35,0.12,0.51,0.01l1.4-0.92l1.4,0.92
		c0.08,0.05,0.16,0.07,0.25,0.07c0.09,0,0.18-0.03,0.26-0.09c0.15-0.11,0.22-0.3,0.17-0.48L6.63,7.84l1.31-1.05
		c0.15-0.12,0.2-0.31,0.15-0.49c-0.06-0.18-0.22-0.3-0.41-0.31L6,5.9L5.4,4.33C5.33,4.16,5.17,4.04,4.98,4.04
		c-0.19,0-0.35,0.11-0.42,0.29L3.96,5.9L2.29,5.98C2.1,5.99,1.94,6.11,1.88,6.29C1.82,6.47,1.88,6.66,2.03,6.78z"/>
	<path class="st0" d="M4.12,6.53c0.18-0.01,0.34-0.12,0.4-0.29l0.47-1.23l0.47,1.23c0.06,0.17,0.22,0.28,0.4,0.29l1.31,0.06
		L6.14,7.42C6,7.53,5.94,7.71,5.98,7.88l0.34,1.27l-1.1-0.72C5.15,8.38,5.07,8.36,4.98,8.36c-0.09,0-0.17,0.02-0.25,0.07l-1.1,0.72
		l0.34-1.27c0.05-0.17-0.01-0.36-0.15-0.47L2.8,6.59L4.12,6.53z"/>
	<path class="st0" d="M8.9,6.29c-0.06,0.18,0,0.37,0.15,0.49l1.31,1.05L9.91,9.46c-0.05,0.18,0.02,0.37,0.17,0.48
		c0.15,0.11,0.35,0.12,0.51,0.01L12,9.03l1.4,0.92c0.08,0.05,0.16,0.07,0.25,0.07c0.09,0,0.18-0.03,0.26-0.09
		c0.15-0.11,0.22-0.3,0.17-0.48l-0.44-1.62l1.31-1.05c0.15-0.12,0.2-0.31,0.15-0.49c-0.06-0.18-0.22-0.3-0.41-0.31L13.02,5.9
		l-0.6-1.57C12.35,4.16,12.19,4.04,12,4.04s-0.35,0.11-0.42,0.29l-0.6,1.57L9.31,5.98C9.12,5.99,8.96,6.11,8.9,6.29z"/>
	<linearGradient id="SVGID_1_" gradientUnits="userSpaceOnUse" x1="11.9494" y1="10.0463" x2="12.0348" y2="3.9513">
		<stop  offset="0" style="stop-color:#10BEF0"/>
		<stop  offset="1" style="stop-color:#10BEF0;stop-opacity:0"/>
	</linearGradient>
	<path class="st2" d="M8.9,6.29c-0.06,0.18,0,0.37,0.15,0.49l1.31,1.05L9.91,9.46c-0.05,0.18,0.02,0.37,0.17,0.48
		c0.15,0.11,0.35,0.12,0.51,0.01L12,9.03l1.4,0.92c0.08,0.05,0.16,0.07,0.25,0.07c0.09,0,0.18-0.03,0.26-0.09
		c0.15-0.11,0.22-0.3,0.17-0.48l-0.44-1.62l1.31-1.05c0.15-0.12,0.2-0.31,0.15-0.49c-0.06-0.18-0.22-0.3-0.41-0.31L13.02,5.9
		l-0.6-1.57C12.35,4.16,12.19,4.04,12,4.04s-0.35,0.11-0.42,0.29l-0.6,1.57L9.31,5.98C9.12,5.99,8.96,6.11,8.9,6.29z"/>
	<path class="st3" d="M11.13,6.53c0.18-0.01,0.34-0.12,0.4-0.29L12,5.01l0.47,1.23c0.06,0.17,0.22,0.28,0.4,0.29l1.31,0.06
		l-1.03,0.82c-0.14,0.11-0.2,0.3-0.15,0.47l0.34,1.27l-1.1-0.72C12.17,8.38,12.09,8.36,12,8.36c-0.09,0-0.17,0.02-0.25,0.07
		l-1.1,0.72L11,7.89c0.05-0.17-0.01-0.36-0.15-0.47L9.82,6.59L11.13,6.53z"/>
	<path class="st0" d="M13.61,4.89c-0.12-0.13-0.11-0.33,0.02-0.45l1.3-1.17c0.13-0.12,0.33-0.11,0.45,0.02
		c0.12,0.13,0.11,0.33-0.02,0.45l-1.3,1.17C14,4.97,13.92,4.99,13.85,4.99C13.76,4.99,13.68,4.96,13.61,4.89z"/>
	<path class="st0" d="M8.62,3.3c0.12-0.13,0.32-0.14,0.45-0.02l1.3,1.17c0.13,0.12,0.14,0.32,0.02,0.45
		c-0.06,0.07-0.15,0.1-0.24,0.1c-0.08,0-0.15-0.03-0.21-0.08l-1.3-1.17C8.51,3.63,8.5,3.43,8.62,3.3z"/>
	<path class="st0" d="M13.61,4.89c-0.12-0.13-0.11-0.33,0.02-0.45l1.3-1.17c0.13-0.12,0.33-0.11,0.45,0.02
		c0.12,0.13,0.11,0.33-0.02,0.45l-1.3,1.17C14,4.97,13.92,4.99,13.85,4.99C13.76,4.99,13.68,4.96,13.61,4.89z"/>
	<path class="st0" d="M8.62,3.3c0.12-0.13,0.32-0.14,0.45-0.02l1.3,1.17c0.13,0.12,0.14,0.32,0.02,0.45
		c-0.06,0.07-0.15,0.1-0.24,0.1c-0.08,0-0.15-0.03-0.21-0.08l-1.3-1.17C8.51,3.63,8.5,3.43,8.62,3.3z"/>
	<path class="st0" d="M16.07,6.78l1.31,1.05l-0.44,1.62c-0.05,0.18,0.02,0.37,0.17,0.48c0.15,0.11,0.35,0.12,0.51,0.01l1.4-0.92
		l1.4,0.92c0.08,0.05,0.16,0.07,0.25,0.07c0.09,0,0.18-0.03,0.26-0.09c0.15-0.11,0.22-0.3,0.17-0.48l-0.44-1.62l1.31-1.05
		c0.15-0.12,0.2-0.31,0.15-0.49c-0.06-0.18-0.22-0.3-0.41-0.31L20.04,5.9l-0.6-1.57c-0.07-0.18-0.23-0.29-0.42-0.29
		c-0.19,0-0.35,0.11-0.42,0.29L18,5.9l-1.68,0.08c-0.19,0.01-0.35,0.13-0.41,0.31C15.86,6.47,15.92,6.66,16.07,6.78z"/>
	<linearGradient id="SVGID_2_" gradientUnits="userSpaceOnUse" x1="18.9671" y1="10.1417" x2="19.0525" y2="4.0468">
		<stop  offset="0" style="stop-color:#10BEF0"/>
		<stop  offset="1" style="stop-color:#10BEF0;stop-opacity:0"/>
	</linearGradient>
	<path class="st4" d="M16.07,6.78l1.31,1.05l-0.44,1.62c-0.05,0.18,0.02,0.37,0.17,0.48c0.15,0.11,0.35,0.12,0.51,0.01l1.4-0.92
		l1.4,0.92c0.08,0.05,0.16,0.07,0.25,0.07c0.09,0,0.18-0.03,0.26-0.09c0.15-0.11,0.22-0.3,0.17-0.48l-0.44-1.62l1.31-1.05
		c0.15-0.12,0.2-0.31,0.15-0.49c-0.06-0.18-0.22-0.3-0.41-0.31L20.04,5.9l-0.6-1.57c-0.07-0.18-0.23-0.29-0.42-0.29
		c-0.19,0-0.35,0.11-0.42,0.29L18,5.9l-1.68,0.08c-0.19,0.01-0.35,0.13-0.41,0.31C15.86,6.47,15.92,6.66,16.07,6.78z"/>
	<path class="st3" d="M18.15,6.53c0.18-0.01,0.34-0.12,0.4-0.29l0.47-1.23l0.47,1.23c0.06,0.17,0.22,0.28,0.4,0.29l1.31,0.06
		l-1.02,0.82c-0.14,0.11-0.2,0.3-0.15,0.47l0.34,1.27l-1.1-0.72c-0.07-0.05-0.16-0.07-0.25-0.07c-0.09,0-0.17,0.02-0.25,0.07
		l-1.1,0.72l0.34-1.27c0.05-0.17-0.01-0.36-0.15-0.47l-1.02-0.82L18.15,6.53z"/>
	<path class="st0" d="M2.03,6.78l1.31,1.05L2.9,9.46C2.85,9.64,2.91,9.83,3.07,9.94s0.35,0.12,0.51,0.01l1.4-0.92l1.4,0.92
		c0.08,0.05,0.16,0.07,0.25,0.07c0.09,0,0.18-0.03,0.26-0.09c0.15-0.11,0.22-0.3,0.17-0.48L6.63,7.84l1.31-1.05
		c0.15-0.12,0.2-0.31,0.15-0.49c-0.06-0.18-0.22-0.3-0.41-0.31L6,5.9L5.4,4.33C5.33,4.16,5.17,4.04,4.98,4.04
		c-0.19,0-0.35,0.11-0.42,0.29L3.96,5.9L2.29,5.98C2.1,5.99,1.94,6.11,1.88,6.29C1.82,6.47,1.88,6.66,2.03,6.78z"/>
	<linearGradient id="SVGID_3_" gradientUnits="userSpaceOnUse" x1="4.9318" y1="9.945" x2="5.0173" y2="3.85">
		<stop  offset="0" style="stop-color:#10BEF0"/>
		<stop  offset="1" style="stop-color:#10BEF0;stop-opacity:0"/>
	</linearGradient>
	<path class="st5" d="M2.03,6.78l1.31,1.05L2.9,9.46C2.85,9.64,2.91,9.83,3.07,9.94s0.35,0.12,0.51,0.01l1.4-0.92l1.4,0.92
		c0.08,0.05,0.16,0.07,0.25,0.07c0.09,0,0.18-0.03,0.26-0.09c0.15-0.11,0.22-0.3,0.17-0.48L6.63,7.84l1.31-1.05
		c0.15-0.12,0.2-0.31,0.15-0.49c-0.06-0.18-0.22-0.3-0.41-0.31L6,5.9L5.4,4.33C5.33,4.16,5.17,4.04,4.98,4.04
		c-0.19,0-0.35,0.11-0.42,0.29L3.96,5.9L2.29,5.98C2.1,5.99,1.94,6.11,1.88,6.29C1.82,6.47,1.88,6.66,2.03,6.78z"/>
	<path class="st3" d="M4.12,6.53c0.18-0.01,0.34-0.12,0.4-0.29l0.47-1.23l0.47,1.23c0.06,0.17,0.22,0.28,0.4,0.29l1.31,0.06
		L6.14,7.42C6,7.53,5.94,7.71,5.98,7.88l0.34,1.27l-1.1-0.72C5.15,8.38,5.07,8.36,4.98,8.36c-0.09,0-0.17,0.02-0.25,0.07l-1.1,0.72
		l0.34-1.27c0.05-0.17-0.01-0.36-0.15-0.47L2.8,6.59L4.12,6.53z"/>
	<path class="st0" d="M3.73,22.47c-0.18,0-0.32-0.14-0.32-0.32v-2.62c0-0.18,0.14-0.32,0.32-0.32s0.32,0.14,0.32,0.32v2.62
		C4.05,22.33,3.91,22.47,3.73,22.47z M10,22.15v-3.56c0-0.18-0.14-0.32-0.32-0.32s-0.32,0.14-0.32,0.32v3.56
		c0,0.18,0.14,0.32,0.32,0.32C9.86,22.47,10,22.33,10,22.15z M14.63,22.15v-3.56c0-0.18-0.14-0.32-0.32-0.32S14,18.42,14,18.59v3.56
		c0,0.18,0.14,0.32,0.32,0.32C14.49,22.47,14.63,22.33,14.63,22.15z M20.58,22.15v-2.62c0-0.18-0.14-0.32-0.32-0.32
		c-0.18,0-0.32,0.14-0.32,0.32v2.62c0,0.18,0.14,0.32,0.32,0.32C20.44,22.47,20.58,22.33,20.58,22.15z M22.14,18.37v3.78
		c0,0.18-0.14,0.32-0.32,0.32c-0.18,0-0.32-0.14-0.32-0.32v-3.78c0-0.7-0.72-1.03-1.32-1.18c-1.26-0.32-2.55-0.34-3.86-0.05
		c0.01,0.06,0.01,0.12,0.01,0.19v4.83c0,0.18-0.14,0.32-0.32,0.32c-0.18,0-0.32-0.14-0.32-0.32v-4.83c0-0.83-0.92-1.19-1.46-1.32
		c-1.51-0.38-3.02-0.38-4.48,0c-0.67,0.17-1.47,0.54-1.47,1.32v4.83c0,0.18-0.14,0.32-0.32,0.32c-0.18,0-0.32-0.14-0.32-0.32v-4.83
		c0-0.06,0-0.13,0.01-0.19c-1.3-0.29-2.6-0.27-3.86,0.05c-0.6,0.16-1.32,0.49-1.32,1.18v3.78c0,0.18-0.14,0.32-0.32,0.32
		s-0.32-0.14-0.32-0.32v-3.78c0-0.86,0.64-1.5,1.8-1.8c0.49-0.13,0.98-0.21,1.47-0.25c-0.73-0.37-1.25-1.27-1.25-2.32
		c0-1.26,0.76-2.04,1.97-2.04s1.97,0.78,1.97,2.04c0,1.05-0.52,1.96-1.25,2.32c0.43,0.04,0.85,0.1,1.28,0.2
		C8.15,16,8.74,15.61,9.6,15.38c0.57-0.15,1.14-0.24,1.72-0.28c-0.84-0.36-1.45-1.37-1.45-2.55c0-1.36,0.82-2.2,2.13-2.2
		s2.13,0.84,2.13,2.2c0,1.19-0.61,2.2-1.45,2.56c0.57,0.04,1.15,0.13,1.72,0.28c0.85,0.21,1.45,0.61,1.74,1.14
		c0.43-0.1,0.86-0.16,1.28-0.2c-0.73-0.36-1.25-1.27-1.25-2.32c0-1.26,0.76-2.04,1.97-2.04c1.22,0,1.97,0.78,1.97,2.04
		c0,1.05-0.52,1.95-1.25,2.32c0.5,0.04,0.99,0.12,1.47,0.25C21.5,16.87,22.14,17.51,22.14,18.37z M5.86,15.87
		c0.74,0,1.34-0.83,1.34-1.86c0-1.22-0.84-1.41-1.34-1.41s-1.34,0.18-1.34,1.41C4.52,15.03,5.12,15.87,5.86,15.87z M12,14.61
		c0.82,0,1.49-0.93,1.49-2.06c0-1.36-0.94-1.57-1.49-1.57c-0.56,0-1.49,0.2-1.49,1.57C10.51,13.69,11.18,14.61,12,14.61z
		 M18.14,15.87c0.74,0,1.34-0.83,1.34-1.86c0-1.22-0.84-1.41-1.34-1.41s-1.34,0.18-1.34,1.41C16.8,15.03,17.4,15.87,18.14,15.87z"/>
	<path class="st0" d="M3.73,22.47c-0.18,0-0.32-0.14-0.32-0.32v-2.62c0-0.18,0.14-0.32,0.32-0.32s0.32,0.14,0.32,0.32v2.62
		C4.05,22.33,3.91,22.47,3.73,22.47z M10,22.15v-3.56c0-0.18-0.14-0.32-0.32-0.32s-0.32,0.14-0.32,0.32v3.56
		c0,0.18,0.14,0.32,0.32,0.32C9.86,22.47,10,22.33,10,22.15z M14.63,22.15v-3.56c0-0.18-0.14-0.32-0.32-0.32S14,18.42,14,18.59v3.56
		c0,0.18,0.14,0.32,0.32,0.32C14.49,22.47,14.63,22.33,14.63,22.15z M20.58,22.15v-2.62c0-0.18-0.14-0.32-0.32-0.32
		c-0.18,0-0.32,0.14-0.32,0.32v2.62c0,0.18,0.14,0.32,0.32,0.32C20.44,22.47,20.58,22.33,20.58,22.15z M22.14,18.37v3.78
		c0,0.18-0.14,0.32-0.32,0.32c-0.18,0-0.32-0.14-0.32-0.32v-3.78c0-0.7-0.72-1.03-1.32-1.18c-1.26-0.32-2.55-0.34-3.86-0.05
		c0.01,0.06,0.01,0.12,0.01,0.19v4.83c0,0.18-0.14,0.32-0.32,0.32c-0.18,0-0.32-0.14-0.32-0.32v-4.83c0-0.83-0.92-1.19-1.46-1.32
		c-1.51-0.38-3.02-0.38-4.48,0c-0.67,0.17-1.47,0.54-1.47,1.32v4.83c0,0.18-0.14,0.32-0.32,0.32c-0.18,0-0.32-0.14-0.32-0.32v-4.83
		c0-0.06,0-0.13,0.01-0.19c-1.3-0.29-2.6-0.27-3.86,0.05c-0.6,0.16-1.32,0.49-1.32,1.18v3.78c0,0.18-0.14,0.32-0.32,0.32
		s-0.32-0.14-0.32-0.32v-3.78c0-0.86,0.64-1.5,1.8-1.8c0.49-0.13,0.98-0.21,1.47-0.25c-0.73-0.37-1.25-1.27-1.25-2.32
		c0-1.26,0.76-2.04,1.97-2.04s1.97,0.78,1.97,2.04c0,1.05-0.52,1.96-1.25,2.32c0.43,0.04,0.85,0.1,1.28,0.2
		C8.15,16,8.74,15.61,9.6,15.38c0.57-0.15,1.14-0.24,1.72-0.28c-0.84-0.36-1.45-1.37-1.45-2.55c0-1.36,0.82-2.2,2.13-2.2
		s2.13,0.84,2.13,2.2c0,1.19-0.61,2.2-1.45,2.56c0.57,0.04,1.15,0.13,1.72,0.28c0.85,0.21,1.45,0.61,1.74,1.14
		c0.43-0.1,0.86-0.16,1.28-0.2c-0.73-0.36-1.25-1.27-1.25-2.32c0-1.26,0.76-2.04,1.97-2.04c1.22,0,1.97,0.78,1.97,2.04
		c0,1.05-0.52,1.95-1.25,2.32c0.5,0.04,0.99,0.12,1.47,0.25C21.5,16.87,22.14,17.51,22.14,18.37z M5.86,15.87
		c0.74,0,1.34-0.83,1.34-1.86c0-1.22-0.84-1.41-1.34-1.41s-1.34,0.18-1.34,1.41C4.52,15.03,5.12,15.87,5.86,15.87z M12,14.61
		c0.82,0,1.49-0.93,1.49-2.06c0-1.36-0.94-1.57-1.49-1.57c-0.56,0-1.49,0.2-1.49,1.57C10.51,13.69,11.18,14.61,12,14.61z
		 M18.14,15.87c0.74,0,1.34-0.83,1.34-1.86c0-1.22-0.84-1.41-1.34-1.41s-1.34,0.18-1.34,1.41C16.8,15.03,17.4,15.87,18.14,15.87z"/>
	<linearGradient id="SVGID_4_" gradientUnits="userSpaceOnUse" x1="11.6831" y1="2.4294" x2="12.3167" y2="2.4294">
		<stop  offset="0" style="stop-color:#10BEF0"/>
		<stop  offset="1" style="stop-color:#10BEF0;stop-opacity:0"/>
	</linearGradient>
	<path class="st6" d="M11.68,3.01V1.85c0-0.18,0.14-0.32,0.32-0.32s0.32,0.14,0.32,0.32v1.16c0,0.18-0.14,0.32-0.32,0.32
		S11.68,3.19,11.68,3.01z"/>
	<linearGradient id="SVGID_5_" gradientUnits="userSpaceOnUse" x1="13.5316" y1="4.093" x2="15.4614" y2="4.093">
		<stop  offset="0" style="stop-color:#10BEF0"/>
		<stop  offset="1" style="stop-color:#10BEF0;stop-opacity:0"/>
	</linearGradient>
	<path class="st7" d="M13.61,4.89c-0.12-0.13-0.11-0.33,0.02-0.45l1.3-1.17c0.13-0.12,0.33-0.11,0.45,0.02
		c0.12,0.13,0.11,0.33-0.02,0.45l-1.3,1.17C14,4.97,13.92,4.99,13.85,4.99C13.76,4.99,13.68,4.96,13.61,4.89z"/>
	<linearGradient id="SVGID_6_" gradientUnits="userSpaceOnUse" x1="8.5385" y1="4.0927" x2="10.4684" y2="4.0927">
		<stop  offset="0" style="stop-color:#10BEF0"/>
		<stop  offset="1" style="stop-color:#10BEF0;stop-opacity:0"/>
	</linearGradient>
	<path class="st8" d="M8.62,3.3c0.12-0.13,0.32-0.14,0.45-0.02l1.3,1.17c0.13,0.12,0.14,0.32,0.02,0.45
		c-0.06,0.07-0.15,0.1-0.24,0.1c-0.08,0-0.15-0.03-0.21-0.08l-1.3-1.17C8.51,3.63,8.5,3.43,8.62,3.3z"/>
	<linearGradient id="SVGID_7_" gradientUnits="userSpaceOnUse" x1="13.5316" y1="4.093" x2="15.4614" y2="4.093">
		<stop  offset="0" style="stop-color:#10BEF0"/>
		<stop  offset="1" style="stop-color:#10BEF0;stop-opacity:0"/>
	</linearGradient>
	<path class="st9" d="M13.61,4.89c-0.12-0.13-0.11-0.33,0.02-0.45l1.3-1.17c0.13-0.12,0.33-0.11,0.45,0.02
		c0.12,0.13,0.11,0.33-0.02,0.45l-1.3,1.17C14,4.97,13.92,4.99,13.85,4.99C13.76,4.99,13.68,4.96,13.61,4.89z"/>
	<linearGradient id="SVGID_8_" gradientUnits="userSpaceOnUse" x1="8.5385" y1="4.0927" x2="10.4684" y2="4.0927">
		<stop  offset="0" style="stop-color:#10BEF0"/>
		<stop  offset="1" style="stop-color:#10BEF0;stop-opacity:0"/>
	</linearGradient>
	<path class="st10" d="M8.62,3.3c0.12-0.13,0.32-0.14,0.45-0.02l1.3,1.17c0.13,0.12,0.14,0.32,0.02,0.45
		c-0.06,0.07-0.15,0.1-0.24,0.1c-0.08,0-0.15-0.03-0.21-0.08l-1.3-1.17C8.51,3.63,8.5,3.43,8.62,3.3z"/>
	<linearGradient id="SVGID_9_" gradientUnits="userSpaceOnUse" x1="13.5316" y1="4.093" x2="15.4614" y2="4.093">
		<stop  offset="0" style="stop-color:#10BEF0"/>
		<stop  offset="1" style="stop-color:#10BEF0;stop-opacity:0"/>
	</linearGradient>
	<path class="st11" d="M13.61,4.89c-0.12-0.13-0.11-0.33,0.02-0.45l1.3-1.17c0.13-0.12,0.33-0.11,0.45,0.02
		c0.12,0.13,0.11,0.33-0.02,0.45l-1.3,1.17C14,4.97,13.92,4.99,13.85,4.99C13.76,4.99,13.68,4.96,13.61,4.89z"/>
	<linearGradient id="SVGID_10_" gradientUnits="userSpaceOnUse" x1="8.5385" y1="4.0927" x2="10.4684" y2="4.0927">
		<stop  offset="0" style="stop-color:#10BEF0"/>
		<stop  offset="1" style="stop-color:#10BEF0;stop-opacity:0"/>
	</linearGradient>
	<path class="st12" d="M8.62,3.3c0.12-0.13,0.32-0.14,0.45-0.02l1.3,1.17c0.13,0.12,0.14,0.32,0.02,0.45
		c-0.06,0.07-0.15,0.1-0.24,0.1c-0.08,0-0.15-0.03-0.21-0.08l-1.3-1.17C8.51,3.63,8.5,3.43,8.62,3.3z"/>
</g>
</svg>
