<?xml version="1.0" encoding="utf-8"?>
<!-- Generator: Adobe Illustrator 25.2.1, SVG Export Plug-In . SVG Version: 6.00 Build 0)  -->
<svg version="1.1" id="Layer_1" xmlns="http://www.w3.org/2000/svg" xmlns:xlink="http://www.w3.org/1999/xlink" x="0px" y="0px"
	 viewBox="0 0 24 24" style="enable-background:new 0 0 24 24;" xml:space="preserve">
<style type="text/css">
	.st0{fill:#002680;}
	.st1{opacity:0.65;}
	.st2{fill:url(#SVGID_1_);}
	.st3{fill:#FFFFFF;}
	.st4{fill:url(#SVGID_2_);}
	.st5{fill:url(#SVGID_3_);}
	.st6{fill:url(#SVGID_4_);}
	.st7{fill:url(#SVGID_5_);}
	.st8{fill:url(#SVGID_6_);}
	.st9{fill:url(#SVGID_7_);}
	.st10{fill:url(#SVGID_8_);}
	.st11{fill:url(#SVGID_9_);}
	.st12{fill:url(#SVGID_10_);}
	.st13{fill:url(#SVGID_11_);}
	.st14{fill:url(#SVGID_12_);}
	.st15{fill:url(#SVGID_13_);}
	.st16{fill:url(#SVGID_14_);}
	.st17{fill:url(#SVGID_15_);}
	.st18{fill:url(#SVGID_16_);}
	.st19{fill:url(#SVGID_17_);}
	.st20{fill:url(#SVGID_18_);}
	.st21{fill:url(#SVGID_19_);}
	.st22{fill:url(#SVGID_20_);}
	.st23{fill:url(#SVGID_21_);}
	.st24{fill:url(#SVGID_22_);}
	.st25{fill:url(#SVGID_23_);}
	.st26{fill:url(#SVGID_24_);}
	.st27{fill:url(#SVGID_25_);}
	.st28{fill:url(#SVGID_26_);}
	.st29{fill:url(#SVGID_27_);}
	.st30{fill:url(#SVGID_28_);}
	.st31{fill:url(#SVGID_29_);}
	.st32{fill:url(#SVGID_30_);}
	.st33{fill:url(#SVGID_31_);}
	.st34{fill:url(#SVGID_32_);}
	.st35{fill:url(#SVGID_33_);}
	.st36{fill:url(#SVGID_34_);}
	.st37{fill:url(#SVGID_35_);}
	.st38{fill:url(#SVGID_36_);}
	.st39{fill:url(#SVGID_37_);}
	.st40{fill:url(#SVGID_38_);}
	.st41{fill:url(#SVGID_39_);}
	.st42{fill:url(#SVGID_40_);}
	.st43{fill:url(#SVGID_41_);}
	.st44{fill:url(#SVGID_42_);}
	.st45{fill:url(#SVGID_43_);}
	.st46{fill:url(#SVGID_44_);}
	.st47{fill:url(#SVGID_45_);}
	.st48{fill:url(#SVGID_46_);}
	.st49{fill:url(#SVGID_47_);}
	.st50{fill:url(#SVGID_48_);}
	.st51{fill:url(#SVGID_49_);}
	.st52{fill:url(#SVGID_50_);}
	.st53{fill:url(#SVGID_51_);}
	.st54{fill:url(#SVGID_52_);}
	.st55{fill:url(#SVGID_53_);}
	.st56{fill:url(#SVGID_54_);}
	.st57{fill:url(#SVGID_55_);}
	.st58{fill:url(#SVGID_56_);}
	.st59{fill:url(#SVGID_57_);}
	.st60{fill:url(#SVGID_58_);}
	.st61{fill:url(#SVGID_59_);}
	.st62{fill:url(#SVGID_60_);}
	.st63{fill:url(#SVGID_61_);}
	.st64{fill:url(#SVGID_62_);}
	.st65{fill:url(#SVGID_63_);}
	.st66{fill:url(#SVGID_64_);}
	.st67{fill:url(#SVGID_65_);}
	.st68{fill:url(#SVGID_66_);}
	.st69{fill:url(#SVGID_67_);}
	.st70{fill:url(#SVGID_68_);}
	.st71{fill:url(#SVGID_69_);}
	.st72{fill:url(#SVGID_70_);}
	.st73{fill:url(#SVGID_71_);}
	.st74{fill:url(#SVGID_72_);}
	.st75{fill:url(#SVGID_73_);}
	.st76{fill:url(#SVGID_74_);}
	.st77{fill:url(#SVGID_75_);}
	.st78{fill:url(#SVGID_76_);}
	.st79{fill:url(#SVGID_77_);}
	.st80{fill:url(#SVGID_78_);}
	.st81{fill:url(#SVGID_79_);}
	.st82{fill:url(#SVGID_80_);}
	.st83{fill:url(#SVGID_81_);}
	.st84{fill:url(#SVGID_82_);}
	.st85{fill:url(#SVGID_83_);}
	.st86{fill:url(#SVGID_84_);}
	.st87{fill:url(#SVGID_85_);}
	.st88{fill:url(#SVGID_86_);}
	.st89{fill:url(#SVGID_87_);}
	.st90{fill:url(#SVGID_88_);}
	.st91{fill:url(#SVGID_89_);}
	.st92{fill:url(#SVGID_90_);}
	.st93{fill:url(#SVGID_91_);}
	.st94{fill:url(#SVGID_92_);}
	.st95{fill:url(#SVGID_93_);}
	.st96{fill:url(#SVGID_94_);}
	.st97{fill:url(#SVGID_95_);}
	.st98{fill:url(#SVGID_96_);}
	.st99{fill:url(#SVGID_97_);}
	.st100{fill:url(#SVGID_98_);}
	.st101{fill:url(#SVGID_99_);}
	.st102{fill:url(#SVGID_100_);}
	.st103{fill:url(#SVGID_101_);}
	.st104{fill:url(#SVGID_102_);}
	.st105{fill:url(#SVGID_103_);}
	.st106{fill:url(#SVGID_104_);}
	.st107{fill:url(#SVGID_105_);}
	.st108{fill:url(#SVGID_106_);}
	.st109{fill:url(#SVGID_107_);}
	.st110{fill:url(#SVGID_108_);}
	.st111{fill:url(#SVGID_109_);}
	.st112{fill:url(#SVGID_110_);}
	.st113{fill:url(#SVGID_111_);}
	.st114{fill:url(#SVGID_112_);}
	.st115{fill:url(#SVGID_113_);}
	.st116{fill:url(#SVGID_114_);}
	.st117{fill:url(#SVGID_115_);}
	.st118{fill:url(#SVGID_116_);}
	.st119{fill:url(#SVGID_117_);}
	.st120{fill:url(#SVGID_118_);}
	.st121{fill:url(#SVGID_119_);}
	.st122{fill:url(#SVGID_120_);}
	.st123{fill:url(#SVGID_121_);}
	.st124{fill:url(#SVGID_122_);}
	.st125{fill:url(#SVGID_123_);}
	.st126{fill:url(#SVGID_124_);}
	.st127{fill:url(#SVGID_125_);}
	.st128{fill:url(#SVGID_126_);}
	.st129{fill:url(#SVGID_127_);}
	.st130{fill:url(#SVGID_128_);}
	.st131{fill:url(#SVGID_129_);}
	.st132{fill:url(#SVGID_130_);}
	.st133{fill:url(#SVGID_131_);}
	.st134{fill:url(#SVGID_132_);}
	.st135{fill:url(#SVGID_133_);}
	.st136{fill:url(#SVGID_134_);}
	.st137{fill:url(#SVGID_135_);}
	.st138{fill:url(#SVGID_136_);}
	.st139{fill:url(#SVGID_137_);}
	.st140{fill:url(#SVGID_138_);}
	.st141{fill:url(#SVGID_139_);}
	.st142{fill:url(#SVGID_140_);}
	.st143{fill:url(#SVGID_141_);}
	.st144{fill:url(#SVGID_142_);}
	.st145{fill:url(#SVGID_143_);}
	.st146{fill:url(#SVGID_144_);}
	.st147{fill:url(#SVGID_145_);}
	.st148{fill:url(#SVGID_146_);}
	.st149{fill:url(#SVGID_147_);}
	.st150{fill:url(#SVGID_148_);}
	.st151{fill:url(#SVGID_149_);}
	.st152{fill:url(#SVGID_150_);}
	.st153{fill:url(#SVGID_151_);}
	.st154{fill:url(#SVGID_152_);}
	.st155{fill:url(#SVGID_153_);}
	.st156{fill:url(#SVGID_154_);}
	.st157{fill:url(#SVGID_155_);}
	.st158{fill:url(#SVGID_156_);}
	.st159{fill:url(#SVGID_157_);}
	.st160{fill:url(#SVGID_158_);}
	.st161{fill:url(#SVGID_159_);}
	.st162{fill:url(#SVGID_160_);}
	.st163{fill:url(#SVGID_161_);}
	.st164{fill:url(#SVGID_162_);}
	.st165{fill:url(#SVGID_163_);}
	.st166{fill:url(#SVGID_164_);}
	.st167{fill:url(#SVGID_165_);}
	.st168{fill:url(#SVGID_166_);}
	.st169{fill:url(#SVGID_167_);}
	.st170{fill:url(#SVGID_168_);}
	.st171{fill:url(#SVGID_169_);}
	.st172{fill:url(#SVGID_170_);}
	.st173{fill:url(#SVGID_171_);}
	.st174{fill:url(#SVGID_172_);}
	.st175{fill:url(#SVGID_173_);}
	.st176{fill:url(#SVGID_174_);}
	.st177{fill:url(#SVGID_175_);}
	.st178{fill:url(#SVGID_176_);}
	.st179{fill:url(#SVGID_177_);}
	.st180{fill:url(#SVGID_178_);}
	.st181{fill:url(#SVGID_179_);}
	.st182{fill:url(#SVGID_180_);}
	.st183{fill:url(#SVGID_181_);}
	.st184{fill:url(#SVGID_182_);}
	.st185{fill:url(#SVGID_183_);}
	.st186{fill:url(#SVGID_184_);}
	.st187{fill:url(#SVGID_185_);}
	.st188{fill:url(#SVGID_186_);}
	.st189{fill:url(#SVGID_187_);}
	.st190{fill:url(#SVGID_188_);}
	.st191{fill:url(#SVGID_189_);}
	.st192{fill:url(#SVGID_190_);}
	.st193{fill:url(#SVGID_191_);}
	.st194{fill:url(#SVGID_192_);}
	.st195{fill:url(#SVGID_193_);}
	.st196{fill:url(#SVGID_194_);}
	.st197{fill:url(#SVGID_195_);}
	.st198{fill:url(#SVGID_196_);}
	.st199{fill:url(#SVGID_197_);}
	.st200{fill:url(#SVGID_198_);}
	.st201{fill:url(#SVGID_199_);}
	.st202{fill:url(#SVGID_200_);}
	.st203{fill:url(#SVGID_201_);}
	.st204{fill:url(#SVGID_202_);}
	.st205{fill:url(#SVGID_203_);}
	.st206{fill:url(#SVGID_204_);}
	.st207{fill:url(#SVGID_205_);}
	.st208{fill:url(#SVGID_206_);}
	.st209{fill:url(#SVGID_207_);}
	.st210{fill:url(#SVGID_208_);}
	.st211{fill:url(#SVGID_209_);}
	.st212{fill:url(#SVGID_210_);}
	.st213{fill:url(#SVGID_211_);}
	.st214{fill:url(#SVGID_212_);}
	.st215{fill:url(#SVGID_213_);}
	.st216{fill:url(#SVGID_214_);}
	.st217{fill:url(#SVGID_215_);}
	.st218{fill:url(#SVGID_216_);}
	.st219{fill:url(#SVGID_217_);}
	.st220{fill:url(#SVGID_218_);}
	.st221{fill:url(#SVGID_219_);}
	.st222{fill:url(#SVGID_220_);}
	.st223{fill:url(#SVGID_221_);}
	.st224{fill:url(#SVGID_222_);}
	.st225{fill:url(#SVGID_223_);}
	.st226{fill:url(#SVGID_224_);}
	.st227{fill:url(#SVGID_225_);}
	.st228{fill:url(#SVGID_226_);}
	.st229{fill:url(#SVGID_227_);}
	.st230{fill:url(#SVGID_228_);}
	.st231{fill:url(#SVGID_229_);}
	.st232{fill:url(#SVGID_230_);}
	.st233{fill:url(#SVGID_231_);}
	.st234{fill:url(#SVGID_232_);}
	.st235{fill:url(#SVGID_233_);}
	.st236{fill:url(#SVGID_234_);}
	.st237{fill:url(#SVGID_235_);}
	.st238{fill:url(#SVGID_236_);}
	.st239{fill:url(#SVGID_237_);}
	.st240{fill:url(#SVGID_238_);}
	.st241{fill:url(#SVGID_239_);}
	.st242{fill:url(#SVGID_240_);}
	.st243{fill:url(#SVGID_241_);}
	.st244{fill:url(#SVGID_242_);}
	.st245{fill:url(#SVGID_243_);}
	.st246{fill:url(#SVGID_244_);}
	.st247{fill:url(#SVGID_245_);}
	.st248{fill:url(#SVGID_246_);}
	.st249{fill:url(#SVGID_247_);}
	.st250{fill-rule:evenodd;clip-rule:evenodd;fill:#002680;}
	.st251{fill-rule:evenodd;clip-rule:evenodd;fill:url(#SVGID_248_);}
	.st252{fill-rule:evenodd;clip-rule:evenodd;fill:url(#SVGID_249_);}
	.st253{fill-rule:evenodd;clip-rule:evenodd;fill:url(#SVGID_250_);}
	.st254{fill-rule:evenodd;clip-rule:evenodd;fill:url(#SVGID_251_);}
	.st255{fill-rule:evenodd;clip-rule:evenodd;fill:url(#SVGID_252_);}
	.st256{fill-rule:evenodd;clip-rule:evenodd;fill:url(#SVGID_253_);}
	.st257{fill-rule:evenodd;clip-rule:evenodd;fill:url(#SVGID_254_);}
	.st258{fill-rule:evenodd;clip-rule:evenodd;fill:url(#SVGID_255_);}
	.st259{fill-rule:evenodd;clip-rule:evenodd;fill:url(#SVGID_256_);}
	.st260{fill-rule:evenodd;clip-rule:evenodd;fill:#FFFFFF;}
	.st261{fill:url(#SVGID_257_);}
	.st262{fill:url(#SVGID_258_);}
	.st263{fill:url(#SVGID_259_);}
	.st264{fill:url(#SVGID_260_);}
	.st265{fill:url(#SVGID_261_);}
	.st266{fill:url(#SVGID_262_);}
	.st267{fill:url(#SVGID_263_);}
	.st268{fill:url(#SVGID_264_);}
	.st269{fill:url(#SVGID_265_);}
	.st270{fill:url(#SVGID_266_);}
	.st271{fill:url(#SVGID_267_);}
	.st272{fill:url(#SVGID_268_);}
	.st273{fill:url(#SVGID_269_);}
	.st274{fill:url(#SVGID_270_);}
	.st275{fill:url(#SVGID_271_);}
	.st276{fill:url(#SVGID_272_);}
	.st277{fill:url(#SVGID_273_);}
	.st278{fill:url(#SVGID_274_);}
	.st279{fill:url(#SVGID_275_);}
	.st280{fill:url(#SVGID_276_);}
	.st281{fill:url(#SVGID_277_);}
	.st282{fill:url(#SVGID_278_);}
	.st283{fill:url(#SVGID_279_);}
	.st284{fill:url(#SVGID_280_);}
	.st285{fill:url(#SVGID_281_);}
	.st286{fill:url(#SVGID_282_);}
	.st287{fill:url(#SVGID_283_);}
	.st288{fill:url(#SVGID_284_);}
	.st289{fill:url(#SVGID_285_);}
	.st290{fill:url(#SVGID_286_);}
	.st291{fill:url(#SVGID_287_);}
	.st292{fill:url(#SVGID_288_);}
	.st293{fill:url(#SVGID_289_);}
	.st294{fill:url(#SVGID_290_);}
	.st295{fill:url(#SVGID_291_);}
	.st296{fill:url(#SVGID_292_);}
	.st297{fill:url(#SVGID_293_);}
	.st298{fill:url(#SVGID_294_);}
	.st299{fill:url(#SVGID_295_);}
	.st300{fill:url(#SVGID_296_);}
	.st301{fill:url(#SVGID_297_);}
	.st302{fill:url(#SVGID_298_);}
	.st303{fill:url(#SVGID_299_);}
	.st304{fill:url(#SVGID_300_);}
	.st305{fill:url(#SVGID_301_);}
	.st306{fill:url(#SVGID_302_);}
	.st307{fill:url(#SVGID_303_);}
	.st308{fill:url(#SVGID_304_);}
	.st309{fill:url(#SVGID_305_);}
	.st310{fill:url(#SVGID_306_);}
	.st311{fill:url(#SVGID_307_);}
	.st312{fill:url(#SVGID_308_);}
	.st313{fill:url(#SVGID_309_);}
	.st314{fill:url(#SVGID_310_);}
	.st315{fill:url(#SVGID_311_);}
	.st316{fill:url(#SVGID_312_);}
	.st317{fill:url(#SVGID_313_);}
	.st318{fill:url(#SVGID_314_);}
	.st319{fill:url(#SVGID_315_);}
	.st320{fill:url(#SVGID_316_);}
	.st321{fill:url(#SVGID_317_);}
	.st322{fill:url(#SVGID_318_);}
	.st323{fill:url(#SVGID_319_);}
	.st324{fill:url(#SVGID_320_);}
	.st325{fill:url(#SVGID_321_);}
	.st326{fill:url(#SVGID_322_);}
	.st327{fill:url(#SVGID_323_);}
	.st328{fill:url(#SVGID_324_);}
	.st329{fill:url(#SVGID_325_);}
	.st330{fill:url(#SVGID_326_);}
	.st331{fill:url(#SVGID_327_);}
	.st332{fill:url(#SVGID_328_);}
	.st333{fill:url(#SVGID_329_);}
	.st334{fill:url(#SVGID_330_);}
	.st335{fill:url(#SVGID_331_);}
	.st336{fill:url(#SVGID_332_);}
	.st337{fill:url(#SVGID_333_);}
	.st338{fill:url(#SVGID_334_);}
	.st339{fill:url(#SVGID_335_);}
	.st340{fill:url(#SVGID_336_);}
	.st341{fill:url(#SVGID_337_);}
	.st342{fill:url(#SVGID_338_);}
	.st343{fill:url(#SVGID_339_);}
	.st344{fill:url(#SVGID_340_);}
	.st345{fill:url(#SVGID_341_);}
	.st346{fill:url(#SVGID_342_);}
	.st347{fill-rule:evenodd;clip-rule:evenodd;}
	.st348{fill:none;}
	.st349{fill-rule:evenodd;clip-rule:evenodd;fill:url(#SVGID_343_);}
	.st350{fill:url(#SVGID_344_);}
	.st351{fill:url(#SVGID_345_);}
	.st352{fill:url(#SVGID_346_);}
	.st353{fill:url(#SVGID_347_);}
	.st354{fill-rule:evenodd;clip-rule:evenodd;fill:none;stroke:#FFFFFF;stroke-width:0.25;stroke-miterlimit:10;}
	.st355{fill:url(#SVGID_348_);}
	.st356{fill:url(#SVGID_349_);}
	.st357{fill:url(#SVGID_350_);}
	.st358{fill:url(#SVGID_351_);}
	.st359{fill:url(#SVGID_352_);}
	.st360{fill:url(#SVGID_353_);}
	.st361{fill:url(#SVGID_354_);}
	.st362{fill:url(#SVGID_355_);}
	.st363{fill:url(#SVGID_356_);}
	.st364{fill:url(#SVGID_357_);}
	.st365{fill:url(#SVGID_358_);}
	.st366{fill:url(#SVGID_359_);}
	.st367{fill:url(#SVGID_360_);}
	.st368{fill:url(#SVGID_361_);}
	.st369{fill:url(#SVGID_362_);}
	.st370{fill:url(#SVGID_363_);}
	.st371{fill:url(#SVGID_364_);}
	.st372{fill:url(#SVGID_365_);}
	.st373{fill:url(#SVGID_366_);}
	.st374{fill:url(#SVGID_367_);}
	.st375{fill:url(#SVGID_368_);}
	.st376{fill:url(#SVGID_369_);}
	.st377{fill:url(#SVGID_370_);}
	.st378{fill:url(#SVGID_371_);}
	.st379{fill:url(#SVGID_372_);}
	.st380{fill:url(#SVGID_373_);}
	.st381{fill:url(#SVGID_374_);}
	.st382{fill:url(#SVGID_375_);}
	.st383{fill:url(#SVGID_376_);}
	.st384{fill:url(#SVGID_377_);}
</style>
<g>
	<path class="st0" d="M14.08,13.05c2.49,0,4.52-2.02,4.52-4.52s-2.02-4.52-4.52-4.52S9.56,6.03,9.56,8.53S11.58,13.05,14.08,13.05z
		 M14.08,4.71c2.11,0,3.82,1.71,3.82,3.82s-1.71,3.82-3.82,3.82s-3.82-1.71-3.82-3.82S11.97,4.71,14.08,4.71z"/>
	
		<rect x="10.95" y="8.18" transform="matrix(0.7071 -0.7071 0.7071 0.7071 -1.9074 12.4505)" class="st0" width="6.25" height="0.69"/>
	<path class="st0" d="M12.69,8.18c0.58,0,1.04-0.47,1.04-1.04S13.26,6.1,12.69,6.1s-1.04,0.47-1.04,1.04S12.11,8.18,12.69,8.18z
		 M12.69,6.79c0.19,0,0.35,0.16,0.35,0.35s-0.16,0.35-0.35,0.35s-0.35-0.16-0.35-0.35S12.5,6.79,12.69,6.79z"/>
	<path class="st0" d="M15.47,8.88c-0.58,0-1.04,0.47-1.04,1.04s0.47,1.04,1.04,1.04s1.04-0.47,1.04-1.04S16.04,8.88,15.47,8.88z
		 M15.47,10.27c-0.19,0-0.35-0.16-0.35-0.35s0.16-0.35,0.35-0.35s0.35,0.16,0.35,0.35S15.66,10.27,15.47,10.27z"/>
	<linearGradient id="SVGID_1_" gradientUnits="userSpaceOnUse" x1="11.6189" y1="8.5277" x2="16.5318" y2="8.5277">
		<stop  offset="0" style="stop-color:#10BEF0"/>
		<stop  offset="1" style="stop-color:#10BEF0;stop-opacity:0"/>
	</linearGradient>
	<polygon class="st2" points="11.62,10.49 16.04,6.07 16.53,6.56 12.11,10.98 	"/>
	<linearGradient id="SVGID_2_" gradientUnits="userSpaceOnUse" x1="11.6449" y1="7.1394" x2="13.7292" y2="7.1394">
		<stop  offset="0" style="stop-color:#10BEF0"/>
		<stop  offset="1" style="stop-color:#10BEF0;stop-opacity:0"/>
	</linearGradient>
	<path class="st4" d="M12.69,8.18c0.58,0,1.04-0.47,1.04-1.04S13.26,6.1,12.69,6.1s-1.04,0.47-1.04,1.04S12.11,8.18,12.69,8.18z
		 M12.69,6.79c0.19,0,0.35,0.16,0.35,0.35s-0.16,0.35-0.35,0.35s-0.35-0.16-0.35-0.35S12.5,6.79,12.69,6.79z"/>
	<linearGradient id="SVGID_3_" gradientUnits="userSpaceOnUse" x1="14.424" y1="9.9185" x2="16.5084" y2="9.9185">
		<stop  offset="0" style="stop-color:#10BEF0"/>
		<stop  offset="1" style="stop-color:#10BEF0;stop-opacity:0"/>
	</linearGradient>
	<path class="st5" d="M15.47,8.88c-0.58,0-1.04,0.47-1.04,1.04s0.47,1.04,1.04,1.04s1.04-0.47,1.04-1.04S16.04,8.88,15.47,8.88z
		 M15.47,10.27c-0.19,0-0.35-0.16-0.35-0.35s0.16-0.35,0.35-0.35s0.35,0.16,0.35,0.35S15.66,10.27,15.47,10.27z"/>
	<path class="st0" d="M7.6,10.61c-0.12,0.15-0.09,0.37,0.06,0.49c0.04,0.03,0.09,0.06,0.15,0.07l0.93,0.19
		c0.1,0.02,0.18,0.08,0.23,0.16C8.99,11.57,9,11.61,9,11.66H4.35v0.69h4.46l-0.13,0.38c-0.04,0.12-0.02,0.25,0.07,0.35
		c0.08,0.09,0.2,0.14,0.32,0.12L10,13.06c0.1-0.02,0.2,0.01,0.27,0.08c0.08,0.06,0.12,0.16,0.13,0.26l0.03,0.97
		c0,0.12,0.07,0.23,0.17,0.29c0.11,0.06,0.24,0.06,0.35,0l0.83-0.45c0.09-0.05,0.19-0.06,0.28-0.02c0.1,0.03,0.17,0.11,0.2,0.2
		l0.35,0.89c0.04,0.11,0.14,0.19,0.26,0.22c0.02,0,0.04,0,0.06,0c0.1,0,0.19-0.04,0.26-0.12l0.63-0.69
		c0.13-0.14,0.35-0.16,0.49-0.03c0.01,0.01,0.02,0.02,0.03,0.03l0.62,0.69c0.08,0.09,0.2,0.14,0.32,0.11
		c0.12-0.02,0.22-0.1,0.26-0.22l0.35-0.89c0.04-0.09,0.11-0.17,0.2-0.2c0.09-0.03,0.2-0.03,0.28,0.02l0.81,0.44
		c0.11,0.06,0.24,0.06,0.35,0c0.1-0.06,0.17-0.17,0.17-0.29l0.03-0.95c0-0.1,0.05-0.19,0.12-0.26c0.08-0.06,0.18-0.09,0.27-0.08
		l0.93,0.14c0.19,0.03,0.37-0.1,0.4-0.29c0.01-0.05,0-0.11-0.01-0.16l-0.3-0.92c-0.03-0.09-0.02-0.2,0.03-0.28
		c0.05-0.09,0.13-0.15,0.23-0.17l0.93-0.19c0.19-0.04,0.31-0.22,0.27-0.41c-0.01-0.05-0.03-0.1-0.07-0.14l-0.6-0.76
		c-0.06-0.08-0.08-0.18-0.07-0.27c0.02-0.1,0.07-0.18,0.16-0.23l0.82-0.51c0.16-0.1,0.21-0.32,0.11-0.48
		c-0.03-0.05-0.07-0.08-0.11-0.11l-0.82-0.51c-0.08-0.05-0.14-0.14-0.16-0.23c-0.02-0.1,0.01-0.2,0.07-0.27l0.6-0.79
		c0.08-0.1,0.1-0.23,0.05-0.35c-0.04-0.11-0.14-0.2-0.25-0.22l-0.93-0.19c-0.1-0.02-0.18-0.08-0.23-0.16
		c-0.05-0.09-0.06-0.19-0.03-0.28l0.3-0.92c0.04-0.12,0.02-0.25-0.06-0.35c-0.08-0.09-0.2-0.14-0.32-0.12l-0.93,0.17
		c-0.1,0.01-0.2-0.01-0.27-0.08c-0.08-0.06-0.12-0.16-0.12-0.26l-0.03-0.96c0-0.12-0.07-0.23-0.17-0.29c-0.11-0.06-0.24-0.06-0.35,0
		l-0.83,0.45c-0.09,0.05-0.19,0.06-0.28,0.02c-0.09-0.03-0.17-0.11-0.2-0.2l-0.35-0.89c-0.04-0.12-0.14-0.2-0.26-0.23
		c-0.12-0.02-0.24,0.02-0.32,0.11l-0.62,0.72c-0.13,0.14-0.35,0.16-0.49,0.03c-0.01-0.01-0.02-0.02-0.03-0.03l-0.63-0.69
		c-0.07-0.1-0.2-0.15-0.32-0.14c-0.12,0.02-0.22,0.1-0.26,0.22l-0.35,0.89c-0.03,0.1-0.11,0.17-0.2,0.2
		c-0.09,0.03-0.2,0.03-0.28-0.02l-0.82-0.45c-0.11-0.06-0.24-0.06-0.35,0c-0.1,0.06-0.17,0.17-0.17,0.29L10.4,3.68
		c0,0.1-0.05,0.19-0.13,0.26C10.2,4,10.1,4.03,10,4.01L9.07,3.87C8.95,3.86,8.83,3.9,8.75,3.99c-0.08,0.1-0.11,0.23-0.07,0.35
		l0.13,0.37H4.35V5.4H9c0,0.05-0.02,0.09-0.04,0.13C8.91,5.62,8.83,5.68,8.73,5.7L7.8,5.9C7.61,5.93,7.49,6.12,7.53,6.3
		c0.01,0.05,0.03,0.1,0.07,0.15L7.87,6.8H2.96v0.69h5.3c-0.02,0.1-0.07,0.18-0.16,0.23L7.38,8.18H5.04v0.69h2.33L8.1,9.33
		c0.08,0.05,0.14,0.14,0.16,0.23h-5.3v0.69h4.91L7.6,10.61z M8.13,8.53l0.35-0.22C8.96,8.01,9.11,7.36,8.8,6.88
		C8.78,6.85,8.77,6.82,8.74,6.79L8.49,6.47l0.38-0.08c0.56-0.12,0.92-0.67,0.8-1.24C9.67,5.12,9.66,5.09,9.65,5.06L9.53,4.67
		l0.38,0.04c0.3,0.04,0.59-0.04,0.82-0.23C10.96,4.28,11.09,4,11.1,3.7V3.3l0.33,0.18c0.5,0.28,1.14,0.09,1.42-0.41
		c0.02-0.04,0.04-0.08,0.06-0.12l0.14-0.35l0.25,0.28c0.38,0.43,1.04,0.48,1.47,0.1c0.04-0.03,0.07-0.06,0.1-0.1l0.27-0.29
		l0.14,0.35c0.21,0.54,0.81,0.8,1.35,0.59c0.04-0.01,0.07-0.03,0.11-0.05l0.33-0.16v0.4c0.01,0.3,0.14,0.58,0.37,0.77
		c0.23,0.19,0.53,0.27,0.83,0.22l0.38-0.06l-0.12,0.4c-0.09,0.28-0.05,0.58,0.09,0.83c0.15,0.26,0.4,0.44,0.69,0.5l0.39,0.08
		l-0.25,0.33c-0.35,0.45-0.27,1.11,0.18,1.46c0.03,0.02,0.06,0.04,0.09,0.06l0.35,0.22l-0.35,0.22c-0.49,0.3-0.64,0.95-0.34,1.43
		c0.02,0.03,0.04,0.06,0.06,0.09l0.25,0.33l-0.38,0.08c-0.56,0.12-0.93,0.67-0.81,1.23c0.01,0.04,0.02,0.08,0.03,0.11l0.13,0.39
		l-0.39-0.06c-0.57-0.08-1.1,0.31-1.18,0.88c-0.01,0.04-0.01,0.08-0.01,0.13v0.4l-0.33-0.18c-0.51-0.28-1.14-0.09-1.41,0.42
		c-0.02,0.04-0.04,0.08-0.06,0.12l-0.14,0.35l-0.24-0.28c-0.38-0.43-1.04-0.48-1.47-0.1c-0.04,0.03-0.07,0.06-0.1,0.1l-0.26,0.3
		l-0.14-0.35c-0.11-0.28-0.33-0.5-0.61-0.6c-0.11-0.04-0.23-0.06-0.35-0.06c-0.18,0-0.35,0.04-0.5,0.13l-0.33,0.18v-0.4
		c-0.01-0.58-0.48-1.04-1.05-1.03c-0.05,0-0.1,0-0.14,0.01l-0.38,0.06l0.13-0.39c0.18-0.55-0.13-1.13-0.67-1.31
		c-0.04-0.01-0.08-0.02-0.12-0.03l-0.38-0.06l0.25-0.33C9.1,9.83,9.02,9.18,8.57,8.82C8.54,8.8,8.51,8.78,8.48,8.76L8.13,8.53z"/>
	<linearGradient id="SVGID_4_" gradientUnits="userSpaceOnUse" x1="24.1864" y1="8.6133" x2="9.8889" y2="8.4994">
		<stop  offset="0" style="stop-color:#10BEF0"/>
		<stop  offset="1" style="stop-color:#10BEF0;stop-opacity:0"/>
	</linearGradient>
	<path class="st6" d="M7.6,10.61c-0.12,0.15-0.09,0.37,0.06,0.49c0.04,0.03,0.09,0.06,0.15,0.07l0.93,0.19
		c0.1,0.02,0.18,0.08,0.23,0.16C8.99,11.57,9,11.61,9,11.66H4.35v0.69h4.46l-0.13,0.38c-0.04,0.12-0.02,0.25,0.07,0.35
		c0.08,0.09,0.2,0.14,0.32,0.12L10,13.06c0.1-0.02,0.2,0.01,0.27,0.08c0.08,0.06,0.12,0.16,0.13,0.26l0.03,0.97
		c0,0.12,0.07,0.23,0.17,0.29c0.11,0.06,0.24,0.06,0.35,0l0.83-0.45c0.09-0.05,0.19-0.06,0.28-0.02c0.1,0.03,0.17,0.11,0.2,0.2
		l0.35,0.89c0.04,0.11,0.14,0.19,0.26,0.22c0.02,0,0.04,0,0.06,0c0.1,0,0.19-0.04,0.26-0.12l0.63-0.69
		c0.13-0.14,0.35-0.16,0.49-0.03c0.01,0.01,0.02,0.02,0.03,0.03l0.62,0.69c0.08,0.09,0.2,0.14,0.32,0.11
		c0.12-0.02,0.22-0.1,0.26-0.22l0.35-0.89c0.04-0.09,0.11-0.17,0.2-0.2c0.09-0.03,0.2-0.03,0.28,0.02l0.81,0.44
		c0.11,0.06,0.24,0.06,0.35,0c0.1-0.06,0.17-0.17,0.17-0.29l0.03-0.95c0-0.1,0.05-0.19,0.12-0.26c0.08-0.06,0.18-0.09,0.27-0.08
		l0.93,0.14c0.19,0.03,0.37-0.1,0.4-0.29c0.01-0.05,0-0.11-0.01-0.16l-0.3-0.92c-0.03-0.09-0.02-0.2,0.03-0.28
		c0.05-0.09,0.13-0.15,0.23-0.17l0.93-0.19c0.19-0.04,0.31-0.22,0.27-0.41c-0.01-0.05-0.03-0.1-0.07-0.14l-0.6-0.76
		c-0.06-0.08-0.08-0.18-0.07-0.27c0.02-0.1,0.07-0.18,0.16-0.23l0.82-0.51c0.16-0.1,0.21-0.32,0.11-0.48
		c-0.03-0.05-0.07-0.08-0.11-0.11l-0.82-0.51c-0.08-0.05-0.14-0.14-0.16-0.23c-0.02-0.1,0.01-0.2,0.07-0.27l0.6-0.79
		c0.08-0.1,0.1-0.23,0.05-0.35c-0.04-0.11-0.14-0.2-0.25-0.22l-0.93-0.19c-0.1-0.02-0.18-0.08-0.23-0.16
		c-0.05-0.09-0.06-0.19-0.03-0.28l0.3-0.92c0.04-0.12,0.02-0.25-0.06-0.35c-0.08-0.09-0.2-0.14-0.32-0.12l-0.93,0.17
		c-0.1,0.01-0.2-0.01-0.27-0.08c-0.08-0.06-0.12-0.16-0.12-0.26l-0.03-0.96c0-0.12-0.07-0.23-0.17-0.29c-0.11-0.06-0.24-0.06-0.35,0
		l-0.83,0.45c-0.09,0.05-0.19,0.06-0.28,0.02c-0.09-0.03-0.17-0.11-0.2-0.2l-0.35-0.89c-0.04-0.12-0.14-0.2-0.26-0.23
		c-0.12-0.02-0.24,0.02-0.32,0.11l-0.62,0.72c-0.13,0.14-0.35,0.16-0.49,0.03c-0.01-0.01-0.02-0.02-0.03-0.03l-0.63-0.69
		c-0.07-0.1-0.2-0.15-0.32-0.14c-0.12,0.02-0.22,0.1-0.26,0.22l-0.35,0.89c-0.03,0.1-0.11,0.17-0.2,0.2
		c-0.09,0.03-0.2,0.03-0.28-0.02l-0.82-0.45c-0.11-0.06-0.24-0.06-0.35,0c-0.1,0.06-0.17,0.17-0.17,0.29L10.4,3.68
		c0,0.1-0.05,0.19-0.13,0.26C10.2,4,10.1,4.03,10,4.01L9.07,3.87C8.95,3.86,8.83,3.9,8.75,3.99c-0.08,0.1-0.11,0.23-0.07,0.35
		l0.13,0.37H4.35V5.4H9c0,0.05-0.02,0.09-0.04,0.13C8.91,5.62,8.83,5.68,8.73,5.7L7.8,5.9C7.61,5.93,7.49,6.12,7.53,6.3
		c0.01,0.05,0.03,0.1,0.07,0.15L7.87,6.8H2.96v0.69h5.3c-0.02,0.1-0.07,0.18-0.16,0.23L7.38,8.18H5.04v0.69h2.33L8.1,9.33
		c0.08,0.05,0.14,0.14,0.16,0.23h-5.3v0.69h4.91L7.6,10.61z M8.13,8.53l0.35-0.22C8.96,8.01,9.11,7.36,8.8,6.88
		C8.78,6.85,8.77,6.82,8.74,6.79L8.49,6.47l0.38-0.08c0.56-0.12,0.92-0.67,0.8-1.24C9.67,5.12,9.66,5.09,9.65,5.06L9.53,4.67
		l0.38,0.04c0.3,0.04,0.59-0.04,0.82-0.23C10.96,4.28,11.09,4,11.1,3.7V3.3l0.33,0.18c0.5,0.28,1.14,0.09,1.42-0.41
		c0.02-0.04,0.04-0.08,0.06-0.12l0.14-0.35l0.25,0.28c0.38,0.43,1.04,0.48,1.47,0.1c0.04-0.03,0.07-0.06,0.1-0.1l0.27-0.29
		l0.14,0.35c0.21,0.54,0.81,0.8,1.35,0.59c0.04-0.01,0.07-0.03,0.11-0.05l0.33-0.16v0.4c0.01,0.3,0.14,0.58,0.37,0.77
		c0.23,0.19,0.53,0.27,0.83,0.22l0.38-0.06l-0.12,0.4c-0.09,0.28-0.05,0.58,0.09,0.83c0.15,0.26,0.4,0.44,0.69,0.5l0.39,0.08
		l-0.25,0.33c-0.35,0.45-0.27,1.11,0.18,1.46c0.03,0.02,0.06,0.04,0.09,0.06l0.35,0.22l-0.35,0.22c-0.49,0.3-0.64,0.95-0.34,1.43
		c0.02,0.03,0.04,0.06,0.06,0.09l0.25,0.33l-0.38,0.08c-0.56,0.12-0.93,0.67-0.81,1.23c0.01,0.04,0.02,0.08,0.03,0.11l0.13,0.39
		l-0.39-0.06c-0.57-0.08-1.1,0.31-1.18,0.88c-0.01,0.04-0.01,0.08-0.01,0.13v0.4l-0.33-0.18c-0.51-0.28-1.14-0.09-1.41,0.42
		c-0.02,0.04-0.04,0.08-0.06,0.12l-0.14,0.35l-0.24-0.28c-0.38-0.43-1.04-0.48-1.47-0.1c-0.04,0.03-0.07,0.06-0.1,0.1l-0.26,0.3
		l-0.14-0.35c-0.11-0.28-0.33-0.5-0.61-0.6c-0.11-0.04-0.23-0.06-0.35-0.06c-0.18,0-0.35,0.04-0.5,0.13l-0.33,0.18v-0.4
		c-0.01-0.58-0.48-1.04-1.05-1.03c-0.05,0-0.1,0-0.14,0.01l-0.38,0.06l0.13-0.39c0.18-0.55-0.13-1.13-0.67-1.31
		c-0.04-0.01-0.08-0.02-0.12-0.03l-0.38-0.06l0.25-0.33C9.1,9.83,9.02,9.18,8.57,8.82C8.54,8.8,8.51,8.78,8.48,8.76L8.13,8.53z"/>
	<path class="st0" d="M3.31,22.42h4.17c0.19,0,0.35-0.16,0.35-0.35v-0.69l5.93,0.99c0.73,0.14,1.49-0.06,2.06-0.54l4.79-4.14
		c0.4-0.34,0.54-0.9,0.35-1.39c-0.27-0.68-1.04-1-1.72-0.73c-0.13,0.05-0.26,0.13-0.37,0.22l-2.47,1.89
		c-0.23-0.5-0.73-0.82-1.28-0.82h-4.17c0-0.96-0.78-1.74-1.74-1.74H7.82v-0.69c0-0.19-0.16-0.35-0.35-0.35H3.31
		c-0.19,0-0.35,0.16-0.35,0.35v7.64C2.96,22.27,3.12,22.42,3.31,22.42z M7.82,15.82h1.39c0.58,0,1.04,0.47,1.04,1.04v0.35
		c0,0.19,0.16,0.35,0.35,0.35h4.52c0.38,0,0.69,0.31,0.69,0.69s-0.31,0.69-0.69,0.69h-4.86v0.69h4.86c0.68,0,1.25-0.49,1.37-1.16
		l2.8-2.16c0.12-0.1,0.26-0.16,0.42-0.16c0.25-0.01,0.48,0.15,0.57,0.38c0.09,0.21,0.03,0.46-0.14,0.61l-4.77,4.13
		c-0.41,0.35-0.96,0.5-1.49,0.4l-6.05-1.01V15.82z M3.65,14.78h3.47v6.95H3.65V14.78z"/>
	<rect x="2.96" y="4.71" class="st0" width="0.69" height="0.69"/>
	<rect x="2.96" y="11.66" class="st0" width="0.69" height="0.69"/>
	<rect x="3.65" y="8.18" class="st0" width="0.69" height="0.69"/>
	<linearGradient id="SVGID_5_" gradientUnits="userSpaceOnUse" x1="3.6576" y1="5.0578" x2="2.9573" y2="5.0522">
		<stop  offset="0" style="stop-color:#10BEF0"/>
		<stop  offset="1" style="stop-color:#10BEF0;stop-opacity:0"/>
	</linearGradient>
	<rect x="2.96" y="4.71" class="st7" width="0.69" height="0.69"/>
	<linearGradient id="SVGID_6_" gradientUnits="userSpaceOnUse" x1="3.6576" y1="12.0057" x2="2.9573" y2="12.0001">
		<stop  offset="0" style="stop-color:#10BEF0"/>
		<stop  offset="1" style="stop-color:#10BEF0;stop-opacity:0"/>
	</linearGradient>
	<rect x="2.96" y="11.66" class="st8" width="0.69" height="0.69"/>
	<linearGradient id="SVGID_7_" gradientUnits="userSpaceOnUse" x1="4.3524" y1="8.5317" x2="3.6521" y2="8.5262">
		<stop  offset="0" style="stop-color:#10BEF0"/>
		<stop  offset="1" style="stop-color:#10BEF0;stop-opacity:0"/>
	</linearGradient>
	<rect x="3.65" y="8.18" class="st9" width="0.69" height="0.69"/>
</g>
</svg>
