<svg width="93" height="120" viewBox="0 0 93 120" fill="none" xmlns="http://www.w3.org/2000/svg">
<g clip-path="url(#clip0_5181_17858)">
<path fill-rule="evenodd" clip-rule="evenodd" d="M46.326 105.542C48.4768 105.542 50.2189 107.284 50.2189 109.435C50.2189 111.586 48.4768 113.328 46.326 113.328C44.1751 113.328 42.433 111.586 42.433 109.435C42.433 107.284 44.1751 105.542 46.326 105.542ZM21.1778 65.6882C21.1194 65.5714 21.0513 65.4643 20.9734 65.3573C20.6328 64.8025 20.2922 64.2478 19.9515 63.6152C19.6109 62.9339 19.2703 62.2916 18.9686 61.698C18.6669 61.0556 18.3749 60.3744 18.1219 59.6931C17.9078 59.0994 17.6547 58.4182 17.4017 57.6104C17.0221 56.462 15.9516 55.7418 14.8032 55.7418H7.43585C7.18281 55.7418 6.92977 55.7029 6.75459 55.6153C6.58914 55.5277 6.37503 55.4012 6.24851 55.2357C6.08306 55.0606 5.94681 54.8951 5.86895 54.7297C5.78136 54.5642 5.74243 54.3014 5.74243 54.0484V44.7638C5.74243 44.5108 5.78136 44.2967 5.83002 44.1215C5.91761 43.9463 6.04413 43.7419 6.25824 43.5278C6.42369 43.3624 6.59887 43.2261 6.76432 43.1872C6.9395 43.0996 7.19254 43.0607 7.44558 43.0607H14.2095C15.572 43.0607 16.6815 42.0777 16.9345 40.8028C17.1 40.0826 17.2752 39.4013 17.4406 38.7979C17.6547 38.1167 17.8688 37.4744 18.1219 36.7931C18.3749 36.1508 18.6279 35.4695 18.9686 34.8369C19.2703 34.1557 19.6109 33.562 19.9029 32.9683C20.4965 31.8588 20.2824 30.5839 19.4357 29.7372L14.1608 24.4137C14.1219 24.3747 14.1219 24.3747 14.0732 24.3747C13.9078 24.2093 13.7715 24.0341 13.6937 23.8687C13.6061 23.7032 13.6061 23.528 13.6061 23.275C13.6061 23.022 13.645 22.8078 13.7326 22.6327C13.8202 22.4186 13.9467 22.2531 14.1608 22.039L20.6717 15.567C20.8858 15.3529 21.0513 15.2264 21.2654 15.1388C21.4406 15.0512 21.6449 15.0123 21.9077 15.0123C22.1608 15.0123 22.3749 15.0512 22.55 15.1388C22.7252 15.2264 22.9296 15.3529 23.1048 15.5184H23.1437L27.9514 20.3261C28.8857 21.2604 30.3748 21.3869 31.4453 20.6278C32.0001 20.2872 32.5548 19.9466 33.1874 19.6059C33.8687 19.2653 34.511 18.9247 35.1047 18.623C35.747 18.3213 36.4282 18.0293 37.1095 17.7763C37.7032 17.5622 38.3844 17.3091 39.1922 17.0561C40.3406 16.6765 41.0608 15.606 41.0608 14.4576V7.08051C41.0608 6.82747 41.0997 6.57444 41.1873 6.39925C41.2749 6.23381 41.4014 6.05863 41.528 5.89318C41.7031 5.72773 41.8686 5.59148 42.034 5.55255C42.1995 5.46496 42.4622 5.42603 42.7153 5.42603H49.2554H49.3332H50.0047C50.2578 5.42603 50.5108 5.46496 50.686 5.55255C50.8515 5.59148 51.0266 5.72773 51.1921 5.89318C51.3186 6.05863 51.4451 6.23381 51.5327 6.39925C51.6203 6.5647 51.6592 6.82747 51.6592 7.08051V14.4478C51.6592 15.5962 52.3794 16.6571 53.5278 17.0463C54.3356 17.2994 55.0169 17.5524 55.6105 17.7665C56.2918 18.0196 56.973 18.3213 57.6154 18.6132C58.209 18.9149 58.8514 19.2556 59.5326 19.5962C60.175 19.9368 60.72 20.2775 61.2747 20.6181C62.3355 21.3869 63.8246 21.2604 64.7686 20.3164L69.5763 15.5086H69.6152C69.7807 15.3432 69.9948 15.2069 70.17 15.1291C70.3354 15.0415 70.5495 15.0026 70.8123 15.0026C71.0654 15.0026 71.2795 15.0415 71.4547 15.1291C71.6688 15.2167 71.8342 15.3432 72.0483 15.5573L78.5592 22.0293C78.7733 22.2434 78.8998 22.4088 78.9874 22.6229C79.075 22.7884 79.1139 23.0025 79.1139 23.2653C79.1139 23.5183 79.1139 23.6935 79.0263 23.8589C78.9388 24.0341 78.8122 24.1996 78.6468 24.365C78.6079 24.365 78.6079 24.365 78.5592 24.4039L73.2843 29.7275C72.4376 30.5742 72.2235 31.8588 72.8172 32.9586C73.1189 33.5523 73.4595 34.1459 73.7515 34.8272C74.0921 35.4695 74.3451 36.1508 74.5982 36.7834C74.8512 37.4646 75.0653 38.107 75.2794 38.7882C75.4449 39.3819 75.62 40.0631 75.7855 40.7931C76.0385 42.068 77.148 43.0509 78.5105 43.0509H85.2745C85.5275 43.0509 85.7805 43.0899 85.9557 43.1775C86.1212 43.2164 86.2963 43.3429 86.4618 43.5181C86.6759 43.7322 86.8024 43.9463 86.89 44.1118C86.9289 44.2772 86.9776 44.4913 86.9776 44.7541V54.0387C86.9776 54.2917 86.9387 54.5447 86.8511 54.7199C86.7635 54.8951 86.637 55.0605 86.4715 55.226C86.345 55.3914 86.1309 55.5277 85.9654 55.6056C85.7903 55.6931 85.5372 55.7321 85.2842 55.7321H77.9169C76.7685 55.7321 75.7076 56.4523 75.3184 57.6007C75.0653 58.4084 74.8123 59.0897 74.5982 59.6834C74.3451 60.3646 74.0434 61.0459 73.7515 61.6882C73.4498 62.2819 73.1091 62.9242 72.7685 63.6055C72.4279 64.2478 72.0872 64.8025 71.7466 65.3475C71.6688 65.4546 71.6006 65.5617 71.5422 65.6784H77.985C78.2575 65.1334 78.53 64.5495 78.8122 63.9461C79.1529 63.1773 79.4935 62.4181 79.7952 61.6493C79.8341 61.5228 79.9217 61.3476 79.9704 61.2211H85.4204C86.4034 61.2211 87.3377 61.0556 88.1844 60.715C89.0311 60.3744 89.8486 59.8196 90.5299 59.1384C91.2111 58.4571 91.7659 57.6883 92.1065 56.7929C92.4471 55.8975 92.6126 55.0022 92.6126 54.0289V44.7541C92.6126 43.8198 92.3985 42.8855 92.0578 42.0291C91.7172 41.1823 91.2111 40.4135 90.5299 39.7322L90.4909 39.6933C89.8097 39.0121 89.0408 38.4573 88.1941 38.1167C87.3474 37.7371 86.4034 37.562 85.4302 37.562H80.7879C80.7879 37.4354 80.749 37.3478 80.7003 37.2213C80.4473 36.4135 80.1942 35.6058 79.8925 34.8369C79.5519 34.0291 79.2502 33.2603 78.9096 32.5401C78.8706 32.4525 78.783 32.326 78.7441 32.1995L82.5786 28.326C83.2988 27.6837 83.8146 26.9246 84.1942 26.0681C84.5348 25.2214 84.7489 24.2774 84.7489 23.3042C84.7489 22.3212 84.5835 21.4356 84.1942 20.5402C83.8146 19.6935 83.2988 18.9247 82.6175 18.2434H82.5786L76.0677 11.7715C75.3865 11.0902 74.6176 10.5841 73.7223 10.1948C72.8269 9.81528 71.9315 9.6401 70.9583 9.6401C70.024 9.6401 69.0897 9.80554 68.1943 10.1948C67.299 10.5355 66.5301 11.0902 65.8489 11.7715L62.5302 15.0512L62.2771 14.9247C61.5959 14.5452 60.827 14.2045 60.0192 13.8152C59.2504 13.4746 58.4913 13.134 57.7224 12.8323C57.5959 12.7933 57.4207 12.7058 57.2942 12.6571V7.20703C57.2942 6.22407 57.1288 5.28978 56.7881 4.44307C56.4475 3.58663 55.8928 2.77885 55.2115 2.0976C54.4913 1.41634 53.7225 0.861599 52.866 0.52097C51.9804 0.180341 51.085 0.0148926 50.1021 0.0148926H46.7444H45.9951H42.6374C41.6545 0.0148926 40.7688 0.180341 39.8735 0.52097C39.0268 0.861599 38.2579 1.41634 37.528 2.0976C36.8467 2.77885 36.292 3.58663 35.9514 4.44307C35.6107 5.28978 35.4453 6.23381 35.4453 7.20703V12.6571C35.3188 12.696 35.1436 12.7836 35.0171 12.8323C34.2482 13.134 33.4891 13.4746 32.7203 13.8152C31.9125 14.1948 31.1436 14.5354 30.4624 14.9247L30.2093 15.0512L26.8906 11.7715C26.2094 11.0902 25.4405 10.5355 24.5452 10.1948C23.6498 9.81528 22.7155 9.6401 21.7812 9.6401C20.7982 9.6401 19.9126 9.80554 19.0172 10.1948C18.1219 10.5744 17.353 11.0902 16.6718 11.7715L10.1609 18.2434H10.1219C9.44069 18.9247 8.93461 19.6935 8.54532 20.5402C8.16577 21.4259 7.99059 22.3212 7.99059 23.2945C7.99059 24.2774 8.20469 25.2117 8.54532 26.0584C8.92488 26.9051 9.44069 27.674 10.1609 28.3163L13.9954 32.1897C13.9565 32.3163 13.8689 32.4428 13.8299 32.5304C13.4893 33.2506 13.1876 34.0194 12.847 34.8272C12.5453 35.596 12.2922 36.4038 12.0392 37.2116C12.0003 37.3381 11.9516 37.4257 11.9516 37.5522H7.30933C6.32637 37.5522 5.39207 37.7274 4.54537 38.107C3.69866 38.4476 2.92981 39.0023 2.24855 39.6836L2.20962 39.7225C1.52837 40.4038 1.02229 41.1726 0.681659 42.0193C0.331297 42.8758 0.117188 43.8198 0.117188 44.7541V54.0289C0.117188 55.0119 0.282636 55.8975 0.623265 56.7929C0.963894 57.6883 1.51863 58.4571 2.19989 59.1384C2.88115 59.8196 3.68893 60.3744 4.54537 60.715C5.39207 61.0556 6.3361 61.2211 7.30933 61.2211H12.7594C12.7983 61.3476 12.8859 61.5228 12.9346 61.6493C13.2363 62.4181 13.5769 63.1773 13.9175 63.9461C14.2095 64.5592 14.4723 65.1432 14.7448 65.6784H21.1778V65.6882ZM31.7178 57.0751C30.9101 57.1043 30.2872 57.2698 29.8687 57.5617C29.6254 57.7272 29.4502 57.9316 29.3432 58.1749C29.2166 58.4474 29.1582 58.7783 29.168 59.1578C29.1972 60.2673 29.7811 61.7271 30.9101 63.4108L30.9295 63.4303L34.5888 69.2599C36.0584 71.5957 37.5961 73.9801 39.5134 75.7221C41.3528 77.4058 43.5815 78.5445 46.5401 78.5542C49.7322 78.5639 52.0777 77.3766 53.9755 75.6053C55.9512 73.7562 57.5083 71.2258 59.0363 68.6954L63.1628 61.9023C63.9316 60.1505 64.2138 58.9729 64.0387 58.2819C63.9316 57.8732 63.4839 57.6688 62.7053 57.6299C62.5399 57.6201 62.3744 57.6201 62.1993 57.6201C62.0144 57.6299 61.8197 57.6396 61.6251 57.6591C61.518 57.6688 61.411 57.6591 61.3039 57.6396C60.9341 57.6591 60.5545 57.6299 60.175 57.5812L61.5861 51.3234C51.1045 52.9778 43.2603 45.192 32.1752 49.7662L32.9733 57.1335C32.5353 57.1432 32.1071 57.1335 31.7178 57.0751ZM64.1165 55.7613C65.1287 56.0727 65.7807 56.715 66.0532 57.7564C66.3452 58.9145 66.024 60.5398 65.0508 62.7588C65.0314 62.7977 65.0119 62.8366 64.9924 62.8755L60.8173 69.7465C59.2115 72.3937 57.5764 75.0506 55.3964 77.0944L55.2894 77.1917C55.4937 77.4934 55.7273 77.8243 55.9609 78.1747C56.6811 79.2355 57.5083 80.452 58.2772 81.396C62.8124 84.2184 72.788 84.9775 76.6906 87.1478C86.6175 92.6855 82.9971 106.135 83.7173 115.809C83.5032 118.096 82.2088 119.41 79.6589 119.605H76.9047L79.9314 96.666C80.165 94.8752 78.8998 93.4154 77.3329 93.4154H56.0485C56.574 89.6685 56.9536 86.087 57.1385 83.3814C56.1458 82.2817 55.085 80.7245 54.1702 79.3815C53.9658 79.0895 53.7711 78.7975 53.5862 78.5348C51.669 79.8194 49.3916 80.6175 46.5401 80.6077C43.3576 80.598 40.8759 79.508 38.8224 77.8438C38.2482 79.5664 37.4015 81.941 36.584 83.0797C36.5158 83.177 36.4282 83.2646 36.3309 83.3328C36.6813 86.1259 37.1679 89.7074 37.7421 93.4251H15.9418C14.3847 93.4251 13.1098 94.8849 13.3433 96.6757L16.3701 119.615H13.6061C11.0562 119.42 9.76186 118.106 9.54775 115.819C9.67426 105.571 5.78136 93.1721 16.5744 87.1575C20.5257 84.9483 30.7154 84.1989 35.1631 81.289C35.8443 80.0141 36.5937 77.7172 37.0511 76.3547C37.0998 76.199 37.0219 76.452 37.0998 76.2282C35.4648 74.4764 34.1314 72.4034 32.8468 70.3597L29.1874 64.5398C27.8444 62.5447 27.1534 60.715 27.1047 59.2162C27.0853 58.5155 27.2021 57.8732 27.4648 57.3087C27.7373 56.7248 28.1558 56.2284 28.7203 55.8489C28.9831 55.6737 29.2848 55.518 29.6059 55.3914C29.3724 52.2285 29.275 48.248 29.4308 44.9195C29.5086 44.1312 29.6643 43.3332 29.8784 42.5449C31.2215 37.7566 35.3382 34.3016 40.0389 32.6764C42.3163 31.888 41.4404 30.0097 43.7469 30.1362C49.2164 30.4379 57.6446 33.961 60.8854 37.6982C65.4401 42.9244 64.2625 49.3672 64.1165 55.7613ZM39.0852 87.7901C37.236 85.688 37.0803 83.4885 39.0852 81.1625C41.4014 81.7464 43.5231 82.7488 45.4792 84.1016C45.8977 83.9167 46.3941 83.8388 46.871 83.8778C48.905 82.4374 51.4938 81.8535 53.7614 80.7732C56.467 83.4106 56.175 85.8339 53.5181 88.0821C52.0291 87.7415 50.6179 87.2159 49.2651 86.5249C49.2262 86.8753 49.1386 87.2549 48.9731 87.6636L49.6641 93.4154H44.1459L44.8369 87.6636C44.4087 86.9337 44.2432 86.3108 44.253 85.795C42.6472 86.7585 40.9051 87.3814 39.0852 87.7901Z" fill="#002680"/>
</g>
<defs>
<clipPath id="clip0_5181_17858">
<rect width="92.5149" height="119.59" fill="white" transform="translate(0.117188 0.0148926)"/>
</clipPath>
</defs>
</svg>
