<svg width="124" height="120" viewBox="0 0 124 120" fill="none" xmlns="http://www.w3.org/2000/svg">
<g clip-path="url(#clip0_5181_17847)">
<path d="M26.6755 110.8L34.2655 104.93L42.9055 109.1L39.6755 100.08L46.3155 93.16L36.7355 93.46L32.1955 85.01L29.5055 94.22L20.0555 95.92L27.9855 101.32L26.6755 110.8ZM61.8755 119.62L65.5055 110.74L75.0655 110.03L67.7555 103.83L70.0455 94.51L61.8855 99.56L53.7255 94.51L56.0155 103.83L48.6855 110.03L58.2455 110.74L61.8755 119.62ZM33.6055 52.47C38.0455 50.81 43.7155 48.69 47.7955 46.16C52.4755 50.5 55.5155 55.44 55.7555 61.44H68.0355C68.2755 55.44 71.3155 50.5 75.9955 46.16C80.0755 48.69 85.7455 50.8 90.1855 52.47C103.266 57.36 96.8755 66.29 89.2455 73.81C82.2455 80.7 72.5755 84.96 61.8855 84.96C51.1955 84.96 41.5355 80.71 34.5255 73.81C27.0055 66.4 20.4355 57.39 33.6055 52.47ZM52.2555 40.06C52.4555 38.42 47.6155 32.21 46.7355 29.22C44.8355 26.22 44.1655 21.42 46.2355 18.24C47.0655 16.98 46.7055 14.72 46.7055 12.99C46.7055 -4.32 77.0355 -4.34 77.0355 12.99C77.0355 15.18 76.5355 16.85 77.7255 18.57C79.7155 21.45 78.6855 26.56 77.0055 29.24C75.9355 32.37 70.8555 38.3 71.2155 40.08C71.5155 48.95 52.1855 48.66 52.2555 40.06ZM123.316 84.55L117.446 76.97L121.616 68.33L112.586 71.57L105.666 64.93L105.966 74.51L97.5155 79.05L106.726 81.73L108.426 91.18L113.816 83.25L123.316 84.55ZM97.0755 110.8L95.7855 101.29L103.716 95.89L94.2755 94.18L91.5956 84.97L87.0555 93.42L77.4655 93.12L84.1055 100.04L80.8456 109.08L89.4855 104.91L97.0755 110.8ZM0.435547 84.54L9.94555 83.25L15.3455 91.18L17.0555 81.74L26.2655 79.06L17.8155 74.52L18.1155 64.94L11.1855 71.58L2.13555 68.33L6.30555 76.97L0.435547 84.54Z" fill="#002680"/>
</g>
<defs>
<clipPath id="clip0_5181_17847">
<rect width="122.88" height="119.62" fill="white" transform="translate(0.435547)"/>
</clipPath>
</defs>
</svg>
