<svg width="124" height="120" viewBox="0 0 124 120" fill="none" xmlns="http://www.w3.org/2000/svg">
<g clip-path="url(#clip0_5181_17853)">
<path d="M69.6455 90.1901C68.023 91.9753 66.2789 93.6459 64.4255 95.1901C64.9555 95.1201 65.4855 95.0301 66.0155 94.9301C67.4486 94.6446 68.8467 94.2054 70.1855 93.6201C70.5255 93.4801 70.8655 93.3201 71.1855 93.1701C71.4228 93.4773 71.6984 93.7529 72.0055 93.9901C72.3081 94.24 72.6449 94.4454 73.0055 94.6001C72.3455 94.9501 71.6656 95.2701 71.0055 95.6001C69.5257 96.2272 67.9838 96.6965 66.4055 97.0001C63.2127 97.6269 59.9284 97.6269 56.7355 97.0001C55.1955 96.6907 53.691 96.225 52.2455 95.6101C52.2259 95.6157 52.2052 95.6157 52.1855 95.6101C50.7586 94.9938 49.3898 94.2509 48.0955 93.3901C46.8129 92.5401 45.6201 91.5617 44.5355 90.4701C43.445 89.391 42.4697 88.2012 41.6255 86.9201C40.7597 85.6272 40.0133 84.2582 39.3955 82.8301C38.774 81.3646 38.3016 79.8402 37.9855 78.2801C37.6792 76.685 37.5252 75.0644 37.5255 73.4401C37.5239 71.8186 37.6814 70.2009 37.9955 68.6101C38.3035 67.0697 38.7693 65.5651 39.3855 64.1201C39.3811 64.1107 39.3788 64.1005 39.3788 64.0901C39.3788 64.0797 39.3811 64.0695 39.3855 64.0601C39.9974 62.6278 40.7405 61.2553 41.6055 59.9601C42.4557 58.6806 43.4341 57.4911 44.5255 56.4101C45.6018 55.3134 46.7919 54.3346 48.0755 53.4901C49.3713 52.609 50.7474 51.8523 52.1855 51.2301C53.6451 50.5995 55.1668 50.1236 56.7255 49.8101C58.3196 49.4955 59.9407 49.338 61.5655 49.3401C63.1876 49.3368 64.8059 49.4976 66.3955 49.8201C67.9365 50.1214 69.4414 50.5839 70.8855 51.2001H70.9455C72.373 51.8257 73.7446 52.5718 75.0455 53.4301C76.3225 54.2799 77.5117 55.2547 78.5956 56.3401C79.6838 57.4213 80.6589 58.6108 81.5055 59.8901C82.3826 61.1866 83.1359 62.5627 83.7555 64.0001C84.3866 65.4708 84.8657 67.002 85.1855 68.5701C85.3666 69.462 85.4968 70.3634 85.5755 71.2701L83.3955 70.6901C83.3255 70.1201 83.2355 69.5501 83.1255 68.9901C82.8421 67.5731 82.4132 66.1891 81.8456 64.8601C81.4893 64.0225 81.0818 63.2077 80.6255 62.4201H73.6255C74.8149 64.4159 75.7235 66.5661 76.3255 68.8101L73.9555 68.1801C73.273 66.148 72.332 64.2121 71.1555 62.4201H62.6355V66.3401C62.4764 66.4295 62.3258 66.5333 62.1855 66.6501C62.0755 66.7401 61.9555 66.8401 61.8555 66.9401C61.7149 67.0876 61.5846 67.2446 61.4655 67.4101C61.2815 67.6832 61.1336 67.979 61.0255 68.2901C60.9124 68.6124 60.8451 68.9491 60.8255 69.2901C60.7907 69.559 60.7907 69.8312 60.8255 70.1001C60.8635 70.3235 60.917 70.5441 60.9855 70.7601V70.8201C60.9881 70.8634 60.9881 70.9068 60.9855 70.9501C61.0029 70.9979 61.0229 71.0446 61.0455 71.0901L62.5555 74.5001V84.4301H66.9855L67.9156 86.5401H62.6355V93.9601C64.8218 92.1865 66.8525 90.2294 68.7055 88.1101L69.6455 90.2401V90.1901ZM25.4855 58.6301C25.3395 58.9848 25.1227 59.3059 24.8484 59.5739C24.574 59.8419 24.2478 60.0511 23.8898 60.1887C23.5319 60.3263 23.1496 60.3895 22.7663 60.3743C22.3831 60.3591 22.007 60.266 21.661 60.1005C21.315 59.935 21.0064 59.7006 20.7541 59.4118C20.5018 59.1229 20.3111 58.7857 20.1935 58.4206C20.076 58.0555 20.0342 57.6703 20.0707 57.2885C20.1071 56.9067 20.2211 56.5364 20.4055 56.2001C23.3761 49.9956 27.6904 44.5301 33.0355 40.2001C33.6195 39.7803 34.3417 39.5994 35.0546 39.6945C35.7675 39.7896 36.417 40.1535 36.8705 40.7117C37.324 41.2699 37.547 41.9802 37.4941 42.6975C37.4411 43.4147 37.1161 44.0846 36.5855 44.5701C31.8827 48.3697 28.09 53.1738 25.4855 58.6301ZM96.4855 93.1101C98.9855 100.46 106.126 100.26 108.326 93.1101C110.476 95.0401 116.806 95.4201 119.166 96.7301C119.94 97.1394 120.621 97.7046 121.166 98.3901C122.057 99.6523 122.564 101.146 122.626 102.69L123.116 106.48C123.109 106.769 123.045 107.055 122.927 107.319C122.809 107.583 122.639 107.821 122.427 108.018C122.216 108.216 121.967 108.369 121.695 108.469C121.424 108.569 121.135 108.614 120.846 108.6H83.9855C83.6973 108.612 83.4095 108.567 83.139 108.466C82.8685 108.366 82.6208 108.212 82.4104 108.015C82.2 107.817 82.031 107.58 81.9134 107.316C81.7958 107.053 81.7319 106.769 81.7255 106.48L82.1855 102.7C82.2546 101.156 82.7648 99.6635 83.6555 98.4001C84.2004 97.7146 84.8814 97.1494 85.6555 96.7401C88.0256 95.4201 94.3555 95.0401 96.4955 93.1101H96.4855ZM14.9455 93.1101C17.4355 100.46 24.5855 100.26 26.7855 93.1101C28.9255 95.0401 35.2555 95.4201 37.6155 96.7301C38.3897 97.1394 39.0707 97.7046 39.6155 98.3901C40.5073 99.6523 41.0144 101.146 41.0755 102.69L41.5655 106.48C41.5592 106.769 41.4953 107.053 41.3777 107.316C41.2601 107.58 41.0911 107.817 40.8807 108.015C40.6703 108.212 40.4226 108.366 40.1521 108.466C39.8816 108.567 39.5938 108.612 39.3055 108.6H2.45555C2.16726 108.614 1.8792 108.569 1.60821 108.47C1.33723 108.371 1.08878 108.218 0.877396 108.022C0.666013 107.825 0.495946 107.589 0.37715 107.326C0.258354 107.063 0.193215 106.779 0.185547 106.49L0.675547 102.7C0.75133 101.151 1.27596 99.6567 2.18555 98.4001C2.73042 97.7146 3.41139 97.1494 4.18555 96.7401C6.54555 95.4201 12.8855 95.0401 15.0255 93.1101H14.9455ZM13.3755 81.0501C13.6287 81.1101 13.8924 81.1101 14.1455 81.0501L13.6855 78.0501C13.8671 77.2569 14.2376 76.5193 14.7655 75.9001C15.2742 75.3703 15.9408 75.0195 16.6655 74.9001C17.6655 74.8301 17.9855 75.5601 18.9755 76.2101C21.7561 78.0515 25.0426 78.978 28.3755 78.8601L27.9055 80.5201C27.834 80.6257 27.8021 80.7532 27.8155 80.8801C27.8155 80.8801 27.8155 80.8801 27.8155 80.9501L27.7555 81.2701H28.0555C28.1538 81.3322 28.2698 81.3603 28.3855 81.3501C29.0355 81.2901 29.4455 81.3501 29.5455 81.5801C29.6455 81.8101 29.5455 82.4801 29.1355 83.4601L27.0855 86.8401C26.3996 88.1007 25.5488 89.2642 24.5555 90.3001C24.0647 90.7778 23.4842 91.1536 22.8475 91.4059C22.2107 91.6582 21.5303 91.782 20.8455 91.7701C19.536 91.7779 18.2758 91.2716 17.3355 90.3601C16.3826 89.3939 15.5591 88.3082 14.8855 87.1301L13.0555 84.2101C12.5863 83.591 12.2864 82.8604 12.1855 82.0901C12.1738 81.9228 12.2012 81.755 12.2655 81.6001C12.3214 81.474 12.416 81.3689 12.5355 81.3001C12.793 81.1376 13.0911 81.051 13.3955 81.0501H13.3755ZM29.6455 80.3601L29.7555 76.3601C29.701 74.7023 29.0717 73.115 27.9755 71.8701C25.4755 69.1601 20.8155 68.4701 17.2855 69.7401C16.7045 69.9491 16.1479 70.2207 15.6255 70.5501C14.1333 71.4521 13.0314 72.8785 12.5355 74.5501C12.4291 74.9404 12.3522 75.3382 12.3055 75.7401C12.2348 77.2504 12.2649 78.7638 12.3955 80.2701C12.2374 80.3337 12.0865 80.4142 11.9455 80.5101C11.6668 80.6889 11.4475 80.9464 11.3155 81.2501C11.175 81.5638 11.1132 81.9071 11.1355 82.2501C11.2172 83.2151 11.5632 84.1389 12.1355 84.9201L13.9655 87.8301C14.6909 89.0876 15.5785 90.2442 16.6055 91.2701C17.7361 92.3651 19.2517 92.9721 20.8255 92.9601C21.6438 92.9752 22.4568 92.8273 23.2174 92.5252C23.9779 92.223 24.6708 91.7726 25.2555 91.2001C26.3228 90.1007 27.2376 88.863 27.9755 87.5201L30.0955 84.0001V83.9301C30.6655 82.6301 30.7855 81.7401 30.4955 81.1401C30.4085 80.9633 30.2851 80.807 30.1335 80.6812C29.9818 80.5554 29.8053 80.463 29.6155 80.4101L29.6455 80.3601ZM55.4455 12.0001C55.6891 12.0558 55.942 12.0558 56.1855 12.0001L55.7155 9.0001C55.8852 8.20363 56.2611 7.46568 56.8055 6.8601C57.3116 6.32674 57.9794 5.97523 58.7055 5.8601C59.7055 5.7901 60.0155 6.5201 61.0155 7.1601C63.7961 9.00151 67.0826 9.92802 70.4156 9.8101L69.9455 11.4701C69.8762 11.5767 69.8446 11.7034 69.8555 11.8301C69.8555 11.8301 69.8555 11.8801 69.8555 11.9001L69.7955 12.2301H70.0855C70.1869 12.2937 70.3065 12.3218 70.4255 12.3101C71.0755 12.2501 71.4255 12.3101 71.5855 12.5201C71.7456 12.7301 71.5855 13.4301 71.1755 14.4001L69.1855 17.7501C68.4952 19.0074 67.6411 20.1675 66.6455 21.2001C66.1576 21.6789 65.579 22.0555 64.9437 22.3079C64.3083 22.5603 63.629 22.6834 62.9455 22.6701C61.636 22.6779 60.3758 22.1716 59.4355 21.2601C58.4614 20.2915 57.6237 19.1948 56.9455 18.0001L55.1155 15.0801C54.6462 14.4751 54.3429 13.7582 54.2355 13.0001C54.2245 12.8328 54.2519 12.6652 54.3155 12.5101C54.3682 12.3876 54.4595 12.2858 54.5755 12.2201C54.8368 12.0578 55.138 11.9712 55.4455 11.9701V12.0001ZM56.9955 24.0001C59.4955 31.3501 66.6356 31.1601 68.8456 24.0001C70.9855 25.9301 77.3255 26.3201 79.6755 27.6301C80.4527 28.0304 81.1348 28.5931 81.6755 29.2801C82.5673 30.5423 83.0744 32.0358 83.1355 33.5801L83.6255 37.3801C83.6165 37.6682 83.5505 37.9516 83.4313 38.214C83.312 38.4764 83.1419 38.7125 82.9308 38.9087C82.7197 39.105 82.4718 39.2574 82.2014 39.3572C81.931 39.457 81.6435 39.5021 81.3555 39.4901H44.5155C44.2276 39.5021 43.9401 39.457 43.6697 39.3572C43.3993 39.2574 43.1514 39.105 42.9403 38.9087C42.7292 38.7125 42.5591 38.4764 42.4398 38.214C42.3206 37.9516 42.2546 37.6682 42.2455 37.3801L42.7355 33.5801C42.793 32.0429 43.2968 30.5557 44.1855 29.3001C44.7256 28.6125 45.4078 28.0496 46.1855 27.6501C48.5355 26.3401 54.8855 25.9501 57.0155 24.0201L56.9955 24.0001ZM71.7155 11.2801L71.8255 7.2801C71.7699 5.62067 71.1368 4.03269 70.0355 2.7901C67.5355 0.000101089 62.8755 -0.649899 59.3555 0.620101C58.7704 0.82697 58.2103 1.09866 57.6855 1.4301C56.2069 2.3151 55.1067 3.71441 54.5955 5.3601C54.4885 5.74978 54.4149 6.1479 54.3755 6.5501C54.3065 8.06361 54.3332 9.57997 54.4555 11.0901C54.2969 11.1486 54.1458 11.2258 54.0055 11.3201C53.734 11.5069 53.5167 11.7622 53.3755 12.0601C53.2419 12.355 53.177 12.6764 53.1855 13.0001C53.2819 13.9701 53.6454 14.8943 54.2355 15.6701L56.0655 18.5801C56.79 19.8348 57.6814 20.9853 58.7155 22.0001C59.8461 23.0951 61.3617 23.7021 62.9355 23.6901C63.7489 23.7145 64.5591 23.5777 65.3194 23.2876C66.0797 22.9976 66.7751 22.56 67.3655 22.0001C68.4319 20.9023 69.3436 19.6642 70.0755 18.3201L72.1855 14.8601V14.8001C72.7555 13.5001 72.8856 12.6001 72.5855 12.0001C72.5 11.8252 72.3782 11.6704 72.2282 11.5463C72.0782 11.4221 71.9034 11.3314 71.7155 11.2801ZM94.9156 81.0501C94.6173 81.0535 94.3248 81.1326 94.0655 81.2801C93.9556 81.3573 93.8663 81.4603 93.8055 81.5801C93.7381 81.7341 93.7106 81.9026 93.7255 82.0701C93.8202 82.839 94.1208 83.568 94.5956 84.1801L96.4255 87.1001C97.1051 88.2769 97.9317 89.3623 98.8855 90.3301C99.8258 91.2416 101.086 91.7479 102.396 91.7401C103.778 91.7608 105.112 91.2321 106.106 90.2701C107.098 89.2335 107.949 88.0701 108.636 86.8101L110.696 83.4201C111.126 82.4201 111.256 81.8301 111.106 81.5401C110.956 81.2501 110.596 81.2601 109.946 81.3101C109.827 81.3184 109.708 81.2905 109.606 81.2301H109.316L109.376 80.9101C109.37 80.8871 109.37 80.8631 109.376 80.8401C109.362 80.7132 109.394 80.5857 109.466 80.4801L109.936 78.8201C106.603 78.9327 103.318 78.0066 100.536 76.1701C99.5355 75.5201 99.2355 74.7901 98.2255 74.8601C97.5022 74.9835 96.8368 75.3337 96.3255 75.8601C95.7882 76.4705 95.4133 77.2065 95.2355 78.0001L95.7055 81.0001C95.4462 81.0653 95.1749 81.0653 94.9156 81.0001V81.0501ZM111.186 80.3601C111.375 80.4083 111.551 80.4979 111.701 80.6224C111.852 80.7469 111.973 80.9032 112.056 81.0801C112.356 81.6801 112.236 82.5801 111.666 83.8701V83.9401L109.576 87.3701C108.84 88.7116 107.928 89.9491 106.866 91.0501C106.282 91.6244 105.589 92.0761 104.829 92.3783C104.068 92.6806 103.254 92.8274 102.436 92.8101C100.851 92.83 99.3235 92.2225 98.1855 91.1201C97.1576 90.0912 96.2699 88.9312 95.5455 87.6701L93.7155 84.7701C93.1529 83.9837 92.8079 83.0626 92.7155 82.1001C92.6916 81.756 92.757 81.4115 92.9055 81.1001C93.0433 80.8 93.2613 80.5439 93.5355 80.3601C93.6765 80.27 93.8235 80.1898 93.9755 80.1201C93.8482 78.6136 93.8215 77.1002 93.8955 75.5901C93.934 75.1878 94.0076 74.7896 94.1155 74.4001C94.62 72.7329 95.7197 71.3092 97.2055 70.4001C97.7314 70.0706 98.2913 69.7991 98.8755 69.5901C102.396 68.3201 107.056 69.0101 109.556 71.7201C110.666 72.9567 111.301 74.5484 111.346 76.2101L111.186 80.3601ZM89.8355 45.0001C89.5526 44.7631 89.319 44.4726 89.1483 44.1453C88.9775 43.818 88.8729 43.4603 88.8404 43.0926C88.8079 42.7249 88.8481 42.3543 88.9588 42.0022C89.0695 41.65 89.2485 41.3231 89.4855 41.0401C89.7226 40.7571 90.013 40.5236 90.3403 40.3528C90.6676 40.1821 91.0253 40.0775 91.3931 40.045C91.7608 40.0125 92.1313 40.0527 92.4835 40.1634C92.8356 40.2741 93.1626 40.4531 93.4455 40.6901C94.0155 41.1701 94.4455 41.5501 94.8055 41.8601C95.1656 42.1701 95.6355 42.6401 96.1055 43.0901C97.8004 44.7544 99.365 46.5463 100.786 48.4501C102.203 50.3524 103.477 52.358 104.596 54.4501C104.944 55.1131 105.015 55.8876 104.793 56.603C104.571 57.3185 104.074 57.9163 103.411 58.2651C102.748 58.6139 101.973 58.6849 101.258 58.4627C100.542 58.2405 99.9443 57.7431 99.5956 57.0801C98.6272 55.2356 97.5102 53.4731 96.2555 51.8101C95.0215 50.1538 93.6608 48.5958 92.1855 47.1501C91.8555 46.8101 91.4655 46.4601 91.0455 46.0701L89.8755 45.0701L89.8355 45.0001ZM75.9055 111.83C76.615 111.593 77.3897 111.647 78.0592 111.981C78.7287 112.315 79.2382 112.901 79.4755 113.61C79.7129 114.32 79.6587 115.094 79.3249 115.764C78.9911 116.433 78.405 116.943 77.6955 117.18C75.3262 117.98 72.8945 118.582 70.4255 118.98C62.8646 120.216 55.1155 119.567 47.8655 117.09C47.1874 116.824 46.6381 116.306 46.3321 115.645C46.0261 114.983 45.9869 114.23 46.2227 113.54C46.4585 112.851 46.9512 112.279 47.5981 111.944C48.245 111.608 48.9963 111.535 49.6955 111.74C56.0619 113.914 62.8652 114.487 69.5055 113.41C71.679 113.062 73.8198 112.534 75.9055 111.83ZM84.9055 89.5301C84.7682 89.6698 84.6052 89.7819 84.4255 89.8601C84.2442 89.9483 84.047 89.9993 83.8456 90.0101C83.6297 90.0315 83.4117 90.0077 83.2055 89.9401C82.9985 89.8789 82.8074 89.773 82.6455 89.6301L78.7055 86.3901L77.0855 90.3001C76.9592 90.6118 76.8018 90.91 76.6155 91.1901C76.4469 91.4486 76.2452 91.6839 76.0155 91.8901C75.846 92.0404 75.6578 92.1681 75.4555 92.2701C75.2662 92.3632 75.064 92.4273 74.8555 92.4601C74.6176 92.505 74.3734 92.505 74.1355 92.4601C73.8998 92.3878 73.6794 92.2725 73.4855 92.1201C73.3068 91.9756 73.1487 91.8074 73.0155 91.6201C72.8736 91.4146 72.7498 91.1971 72.6455 90.9701C69.6455 84.1801 66.0455 76.8801 63.3555 70.0401C63.3217 69.9497 63.2982 69.8558 63.2855 69.7601C63.2755 69.667 63.2755 69.5732 63.2855 69.4801C63.2972 69.3679 63.3206 69.2573 63.3555 69.1501C63.3954 69.0421 63.4456 68.9383 63.5055 68.8401C63.5397 68.7979 63.5764 68.7578 63.6155 68.7201C63.6509 68.6815 63.6912 68.6479 63.7355 68.6201C63.8059 68.561 63.8831 68.5107 63.9655 68.4701C64.044 68.43 64.1284 68.403 64.2155 68.3901C64.2919 68.3804 64.3692 68.3804 64.4455 68.3901C64.5286 68.3796 64.6125 68.3796 64.6955 68.3901H64.7855C72.1855 70.1501 79.5855 72.2301 86.9355 74.1801C87.1763 74.2452 87.4106 74.3323 87.6355 74.4401C87.8393 74.5396 88.0279 74.6675 88.1955 74.8201C88.3793 74.9862 88.5287 75.1866 88.6355 75.4101C88.7378 75.6295 88.7924 75.8681 88.7955 76.1101C88.8049 76.3206 88.7744 76.531 88.7055 76.7301C88.6435 76.9464 88.5491 77.1521 88.4255 77.3401C88.2604 77.6012 88.0583 77.837 87.8255 78.0401C87.5761 78.2693 87.3048 78.4736 87.0155 78.6501C85.8055 79.3601 84.6055 80.1101 83.4055 80.8401L87.3355 84.1001C87.4991 84.2416 87.6318 84.4152 87.7255 84.6101C87.8168 84.7945 87.8711 84.9949 87.8855 85.2001C87.9054 85.412 87.885 85.6258 87.8255 85.8301C87.7613 86.0318 87.6632 86.2212 87.5355 86.3901C86.7009 87.4698 85.8096 88.5046 84.8655 89.4901L84.9055 89.5301ZM83.6656 88.0001L85.8955 85.3801L81.1656 81.3801L81.0855 81.3001L80.9955 81.1701C80.8731 80.9511 80.8374 80.6941 80.8955 80.4501C80.9226 80.3274 80.9748 80.2116 81.0488 80.1101C81.1228 80.0085 81.217 79.9234 81.3255 79.8601C82.8655 79.0001 84.4855 78.0001 86.0255 77.0001C86.1946 76.8964 86.3551 76.7794 86.5055 76.6501C86.6173 76.544 86.7178 76.4267 86.8055 76.3001C86.8333 76.2645 86.8537 76.2237 86.8655 76.1801L86.7355 76.1101C86.64 76.0648 86.5392 76.0312 86.4355 76.0101L65.6855 70.5301L74.4055 90.1501C74.4492 90.2467 74.4993 90.3402 74.5555 90.4301L74.6355 90.5301L74.7455 90.4401C74.8571 90.3366 74.9546 90.2189 75.0355 90.0901C75.1434 89.9231 75.2339 89.7455 75.3055 89.5601L77.3955 84.4401C77.406 84.404 77.423 84.3701 77.4455 84.3401L77.5255 84.2401C77.6953 84.0585 77.9266 83.9466 78.1743 83.9263C78.422 83.906 78.6685 83.9786 78.8655 84.1301L83.6656 88.0001ZM58.7555 95.1701C55.6655 92.6515 52.9247 89.7325 50.6055 86.4901H43.9455C44.5829 87.3614 45.2884 88.1806 46.0555 88.9401C47.0418 89.9282 48.1238 90.8158 49.2855 91.5901C50.4729 92.38 51.7357 93.0499 53.0555 93.5901C54.3835 94.1701 55.7674 94.6124 57.1855 94.9101C57.7055 95.0101 58.2455 95.1001 58.7755 95.1701H58.7555ZM42.5555 84.3901H49.2555C47.4608 81.3742 46.4309 77.9652 46.2555 74.4601H39.6555C39.7102 75.5886 39.8472 76.7116 40.0655 77.8201C40.3411 79.2553 40.7702 80.6567 41.3455 82.0001C41.7025 82.8356 42.1065 83.6502 42.5555 84.4401V84.3901ZM39.6555 72.3901H46.3155C46.6317 68.8707 47.7578 65.4721 49.6055 62.4601H42.5555C42.1065 63.25 41.7025 64.0646 41.3455 64.9001C40.7783 66.2197 40.3461 67.5934 40.0555 69.0001C39.8345 70.1079 39.7007 71.2314 39.6555 72.3601V72.3901ZM43.9355 60.3901H50.9355C53.2244 57.1827 55.8901 54.2618 58.8755 51.6901C58.2755 51.7601 57.7055 51.8501 57.1355 51.9601C55.7203 52.2426 54.3392 52.675 53.0155 53.2501C51.7007 53.8008 50.4388 54.4703 49.2455 55.2501C48.0838 56.0244 47.0019 56.912 46.0155 57.9001C45.2462 58.6539 44.5404 59.47 43.9055 60.3401L43.9355 60.3901ZM64.2655 51.6901C67.2442 54.2328 69.9036 57.1272 72.1855 60.3101H79.1855C77.7133 58.3146 75.9066 56.5891 73.8456 55.2101C72.656 54.424 71.3935 53.7543 70.0755 53.2101C68.7614 52.6539 67.3945 52.2317 65.9955 51.9501C65.4155 51.8401 64.8355 51.7501 64.2655 51.6801V51.6901ZM62.6355 53.0001V60.3301H69.6355C67.5592 57.6537 65.2135 55.1975 62.6355 53.0001ZM60.5255 93.9101V86.4901H53.1855C55.3323 89.2431 57.796 91.7336 60.5255 93.9101ZM60.5255 84.3901V74.4601H48.3755C48.5866 78.0066 49.7358 81.4334 51.7055 84.3901H60.5255ZM60.5255 72.3901V62.4201H52.0755C50.0562 65.3781 48.799 68.7891 48.4155 72.3501L60.5255 72.3901ZM60.5255 60.3901V53.0001C57.9476 55.1975 55.6019 57.6537 53.5255 60.3301L60.5255 60.3901Z" fill="#002680"/>
</g>
<defs>
<clipPath id="clip0_5181_17853">
<rect width="122.88" height="119.59" fill="white" transform="translate(0.185547)"/>
</clipPath>
</defs>
</svg>
