<svg width="124" height="103" viewBox="0 0 124 103" fill="none" xmlns="http://www.w3.org/2000/svg">
<g clip-path="url(#clip0_5181_17864)">
<path fill-rule="evenodd" clip-rule="evenodd" d="M26.7335 89.2836V50.8586H44.0205C51.3465 52.1696 58.6735 56.1466 65.9995 60.7566H79.4255C85.5035 61.1196 88.6875 67.2826 82.7775 71.3296C78.0725 74.7856 71.8596 74.5876 65.4905 74.0156C61.0985 73.7966 60.9115 79.6986 65.4905 79.7186C67.0845 79.8436 68.8105 79.4696 70.3186 79.4696C78.2596 79.4576 84.8065 77.9396 88.8125 71.6626L90.8225 66.9696L110.794 57.0726C120.786 53.7836 127.894 64.2326 120.526 71.5076C106.059 82.0296 91.2265 90.6886 76.0546 97.6826C65.0336 104.386 54.0105 104.156 42.9995 97.6826L26.7335 89.2836ZM93.0525 28.6806C95.1115 28.6806 96.7596 29.2706 98.0155 30.4396C99.2655 31.6146 99.8965 33.1736 99.8965 35.1226C99.8965 37.0646 99.2655 38.6296 98.0155 39.7996C96.7596 40.9736 95.1115 41.5586 93.0525 41.5586C90.9935 41.5586 89.3375 40.9736 88.0835 39.7996C86.8335 38.6236 86.2085 37.0646 86.2085 35.1226C86.2085 33.1736 86.8335 31.6146 88.0835 30.4396C89.3375 29.2706 90.9945 28.6806 93.0525 28.6806ZM83.4825 0.997559C99.2405 0.997559 112.016 13.7716 112.016 29.5306C112.016 45.2886 99.2405 58.0636 83.4825 58.0636C67.7245 58.0636 54.9495 45.2896 54.9495 29.5306C54.9495 13.7716 67.7245 0.997559 83.4825 0.997559ZM83.4825 6.37556C96.2695 6.37556 106.637 16.7426 106.637 29.5306C106.637 42.3186 96.2695 52.6856 83.4825 52.6856C70.6935 52.6856 60.3275 42.3196 60.3275 29.5316C60.3275 16.7436 70.6935 6.37556 83.4825 6.37556ZM88.8515 18.4376H94.4215L78.1096 40.6236H72.5395L88.8515 18.4376ZM93.0525 33.1366C92.4505 33.1366 91.9885 33.3146 91.6695 33.6536C91.3535 34.0086 91.1905 34.4876 91.1905 35.1296C91.1905 35.7626 91.3525 36.2486 91.6695 36.5966C91.9875 36.9446 92.4505 37.1146 93.0525 37.1146C93.6485 37.1146 94.1115 36.9376 94.4296 36.5966C94.7456 36.2486 94.9085 35.7626 94.9085 35.1296C94.9085 34.4876 94.7446 34.0016 94.4296 33.6536C94.1196 33.3066 93.6565 33.1366 93.0525 33.1366ZM73.8355 21.9766C73.2316 21.9766 72.7746 22.1536 72.4585 22.4946C72.1425 22.8416 71.9795 23.3286 71.9795 23.9616C71.9795 24.5956 72.1415 25.0896 72.4585 25.4366C72.7746 25.7766 73.2316 25.9546 73.8355 25.9546C74.4375 25.9546 74.8995 25.7766 75.2165 25.4366C75.5325 25.0816 75.6875 24.5956 75.6875 23.9616C75.6875 23.3286 75.5335 22.8416 75.2165 22.4946C74.9085 22.1536 74.4455 21.9766 73.8355 21.9766ZM73.8335 17.5196C75.8925 17.5196 77.5486 18.1036 78.8046 19.2796C80.0526 20.4546 80.6775 22.0136 80.6775 23.9566C80.6775 25.9056 80.0526 27.4646 78.8046 28.6396C77.5486 29.8146 75.8925 30.3986 73.8335 30.3986C71.7766 30.3986 70.1265 29.8086 68.8705 28.6396C67.6205 27.4646 66.9895 25.9056 66.9895 23.9566C66.9895 22.0146 67.6205 20.4496 68.8705 19.2796C70.1265 18.1046 71.7775 17.5196 73.8335 17.5196ZM0.685547 47.1646H21.5295V93.1446H0.685547V47.1646Z" fill="#002680"/>
</g>
<defs>
<clipPath id="clip0_5181_17864">
<rect width="122.88" height="101.625" fill="white" transform="translate(0.685547 0.997559)"/>
</clipPath>
</defs>
</svg>
