<svg id="Layer_1" data-name="Layer 1" xmlns="http://www.w3.org/2000/svg" xmlns:xlink="http://www.w3.org/1999/xlink" viewBox="0 0 24 24"><defs><style>.cls-1{fill:url(#linear-gradient);}.cls-2{fill:url(#linear-gradient-2);}</style><linearGradient id="linear-gradient" x1="1.47" y1="12.18" x2="23.11" y2="12.18" gradientUnits="userSpaceOnUse"><stop offset="0" stop-color="#283478"/><stop offset="1" stop-color="#1675b1"/></linearGradient><linearGradient id="linear-gradient-2" x1="17.09" y1="12.21" x2="19.05" y2="12.21" xlink:href="#linear-gradient"/></defs><path class="cls-1" d="M12.29,1.36A10.82,10.82,0,1,0,23.11,12.18,10.85,10.85,0,0,0,12.29,1.36Zm4.12,17.88a8.46,8.46,0,0,1-4.66,1.28,8.15,8.15,0,0,1-4.13-1.07,7.81,7.81,0,0,1-2.94-3A8.52,8.52,0,0,1,3.6,12.2,8.54,8.54,0,0,1,4.68,7.91a7.89,7.89,0,0,1,2.94-3,8.06,8.06,0,0,1,4.13-1.08,8.38,8.38,0,0,1,4.66,1.29,7.37,7.37,0,0,1,2.9,3.66H16.76a5.09,5.09,0,0,0-2-2.28,5.69,5.69,0,0,0-3.06-.79,6,6,0,0,0-3.07.79A5.67,5.67,0,0,0,6.55,8.77a7.32,7.32,0,0,0-.77,3.43,7.24,7.24,0,0,0,.77,3.41,5.6,5.6,0,0,0,2.13,2.26,6,6,0,0,0,3.07.8,5.69,5.69,0,0,0,3.06-.79,5,5,0,0,0,2-2.26h2.55A7.32,7.32,0,0,1,16.41,19.24Zm4.12-6.31v.63H19.31L19,15.14h-.69l.34-1.58H17l-.34,1.58h-.69l.34-1.58H15v-.63H16.4l.3-1.43H15.48v-.63h1.36l.34-1.58h.69l-.35,1.58h1.67l.34-1.58h.69l-.34,1.58H21v.63H19.74l-.3,1.43Z"/><polygon class="cls-2" points="17.09 12.93 18.75 12.93 19.05 11.5 17.39 11.5 17.09 12.93"/></svg>