<svg id="Layer_1" data-name="Layer 1" xmlns="http://www.w3.org/2000/svg" xmlns:xlink="http://www.w3.org/1999/xlink" viewBox="0 0 24 24"><defs><style>.cls-1{fill:url(#linear-gradient);}.cls-2{fill:url(#linear-gradient-2);}.cls-3{fill:url(#linear-gradient-3);}.cls-4{fill:url(#linear-gradient-4);}.cls-5{fill:url(#linear-gradient-5);}</style><linearGradient id="linear-gradient" x1="1.47" y1="11.39" x2="22" y2="11.39" gradientUnits="userSpaceOnUse"><stop offset="0" stop-color="#283376"/><stop offset="1" stop-color="#1c67a6"/></linearGradient><linearGradient id="linear-gradient-2" x1="5.92" y1="10.21" x2="11.01" y2="10.21" xlink:href="#linear-gradient"/><linearGradient id="linear-gradient-3" x1="12.48" y1="10.23" x2="17.55" y2="10.23" xlink:href="#linear-gradient"/><linearGradient id="linear-gradient-4" x1="8.05" y1="15.2" x2="10.92" y2="15.2" xlink:href="#linear-gradient"/><linearGradient id="linear-gradient-5" x1="12.51" y1="15.19" x2="15.33" y2="15.19" xlink:href="#linear-gradient"/></defs><path class="cls-1" d="M5.39,17.74c-2.68-.21-3.63-1.88-2.22-4a2.4,2.4,0,0,1-1.7-2.29A2.33,2.33,0,0,1,3.18,9.13a2.42,2.42,0,0,1,2.26-4,2.47,2.47,0,0,1,1.17-2.6,2.36,2.36,0,0,1,2.79.31C10.84.54,12.82.53,14,2.83A2.41,2.41,0,0,1,18,5.1a2.5,2.5,0,0,1,2.6,1.16,2.36,2.36,0,0,1-.35,2.84A2.42,2.42,0,0,1,22,11.37a2.36,2.36,0,0,1-1.71,2.31,2.45,2.45,0,0,1,.36,2.8A2.39,2.39,0,0,1,18,17.68a2.51,2.51,0,0,1-1.15,2.6A2.4,2.4,0,0,1,14,20a2.44,2.44,0,0,1-2.32,1.71A2.38,2.38,0,0,1,9.46,20C7.5,21.39,5.26,20.25,5.39,17.74ZM4.5,11.37a7.24,7.24,0,1,0,7.18-7.3A7.23,7.23,0,0,0,4.5,11.37Z"/><path class="cls-2" d="M11,5.58C11,7,10.94,8.42,11,9.8a2.26,2.26,0,0,1-.82,1.94c-1,1-2,2-3.08,3.09a5.61,5.61,0,0,1-.8-5.51A5.77,5.77,0,0,1,11,5.58Z"/><path class="cls-3" d="M16.37,14.86c-1.3-1.31-2.53-2.56-3.74-3.81a.52.52,0,0,1-.14-.33c0-1.69,0-3.37,0-5.13a5.7,5.7,0,0,1,4.44,3.19A5.76,5.76,0,0,1,16.37,14.86Z"/><path class="cls-4" d="M8.05,16l2.87-2.83v4Z"/><path class="cls-5" d="M12.51,17.24V13.13L15.33,16Z"/></svg>