<svg id="Layer_1" data-name="Layer 1" xmlns="http://www.w3.org/2000/svg" xmlns:xlink="http://www.w3.org/1999/xlink" viewBox="0 0 24 24"><defs><style>.cls-1{fill:url(#linear-gradient);}.cls-2{fill:url(#linear-gradient-2);}.cls-3{fill:url(#linear-gradient-3);}.cls-4{fill:url(#linear-gradient-4);}</style><linearGradient id="linear-gradient" x1="3.99" y1="13.88" x2="22" y2="13.88" gradientUnits="userSpaceOnUse"><stop offset="0" stop-color="#283376"/><stop offset="1" stop-color="#1c67a6"/></linearGradient><linearGradient id="linear-gradient-2" x1="3.7" y1="19.94" x2="18.19" y2="19.94" xlink:href="#linear-gradient"/><linearGradient id="linear-gradient-3" x1="12.09" y1="5.51" x2="13.97" y2="5.51" xlink:href="#linear-gradient"/><linearGradient id="linear-gradient-4" x1="9.74" y1="5.5" x2="11.17" y2="5.5" xlink:href="#linear-gradient"/></defs><path class="cls-1" d="M17.9,10.71a3.92,3.92,0,0,1,1.35-.59,3.15,3.15,0,0,1,1.77.13,1.42,1.42,0,0,1,.84,2A3.29,3.29,0,0,1,21,13.48c-.45.41-.94.77-1.41,1.16s-.69.52-1,.8a1.48,1.48,0,0,0-.5,1c0,.62-.4.86-1,.71a1.63,1.63,0,0,1-.82-.59,1.64,1.64,0,0,1-.2-.26c-.22.29-.42.57-.65.83s-.55.57-.83.84a.92.92,0,0,1-.68.26H8A1,1,0,0,1,7.36,18,9.27,9.27,0,0,1,4.85,14.3,13.11,13.11,0,0,1,4,9.93c0-.29.14-.44.45-.44h13c.42,0,.53.11.52.53C17.93,10.24,17.91,10.45,17.9,10.71ZM16.83,15l.41-.14a9,9,0,0,0,2.16-1,3.34,3.34,0,0,0,1-.95.9.9,0,0,0-.5-1.46,2.36,2.36,0,0,0-2,.16.39.39,0,0,0-.14.21c-.13.54-.23,1.09-.39,1.63S17,14.43,16.83,15Z"/><path class="cls-2" d="M6.56,20.12C6.17,20,5.78,20,5.4,19.86s-.89-.28-1.32-.44a1.78,1.78,0,0,1-.38-.25l0-.07.23,0H18a2,2,0,0,1,.24.05c-.05.08-.1.18-.17.21-.49.19-1,.37-1.48.53s-.77.17-1.16.26a1.59,1.59,0,0,1,.06.3.36.36,0,0,1-.39.38h-.79c-2.41,0-4.83,0-7.24,0C6.57,20.82,6.36,20.51,6.56,20.12Z"/><path class="cls-3" d="M12.22,8.33c.11-.11.24-.22.34-.34a1.14,1.14,0,0,0,.23-1.25c-.12-.3-.27-.59-.42-.88a1.77,1.77,0,0,1-.22-1.36,2.75,2.75,0,0,1,.4-.78,4.14,4.14,0,0,1,1.17-1l-.12.14a1.74,1.74,0,0,0-.35,1.78c.11.32.26.63.39.95a6.92,6.92,0,0,1,.28.76,1.19,1.19,0,0,1-.35,1.23A3.4,3.4,0,0,1,12.22,8.33Z"/><path class="cls-4" d="M11,3.32a5.85,5.85,0,0,0-.36.7,1.44,1.44,0,0,0,.11,1c.12.28.25.54.36.82a1,1,0,0,1-.43,1.4c-.24.16-.5.29-.74.43l0,0c.08-.09.17-.17.25-.27a.86.86,0,0,0,.16-.94c-.09-.22-.2-.43-.3-.64A1.39,1.39,0,0,1,10.24,4C10.46,3.73,10.7,3.54,11,3.32Z"/></svg>