<svg id="Layer_1" data-name="Layer 1" xmlns="http://www.w3.org/2000/svg" xmlns:xlink="http://www.w3.org/1999/xlink" viewBox="0 0 24 24"><defs><style>.cls-1{fill:url(#linear-gradient);}.cls-2{fill:url(#linear-gradient-2);}.cls-3{fill:url(#linear-gradient-3);}</style><linearGradient id="linear-gradient" x1="3.44" y1="12.41" x2="20.47" y2="12.41" gradientUnits="userSpaceOnUse"><stop offset="0" stop-color="#283376"/><stop offset="1" stop-color="#1c67a6"/></linearGradient><linearGradient id="linear-gradient-2" x1="7.99" y1="12.41" x2="15.64" y2="12.41" xlink:href="#linear-gradient"/><linearGradient id="linear-gradient-3" x1="1.37" y1="12.41" x2="22.55" y2="12.41" xlink:href="#linear-gradient"/></defs><path class="cls-1" d="M3.44,12.36V5.49c0-1.1.49-1.59,1.59-1.59H18.91c1.07,0,1.56.49,1.56,1.57V19.35c0,1.08-.49,1.57-1.56,1.57H5a1.36,1.36,0,0,1-1.53-1.54Zm7.78-2.19-.11,0V8.93A1.86,1.86,0,0,0,9.29,7,1.8,1.8,0,0,0,7.42,8.87q0,3.54,0,7.08a1.8,1.8,0,0,0,1.87,1.88,1.85,1.85,0,0,0,1.82-1.94c0-.41,0-.82,0-1.23a27,27,0,0,1,1.65,2.21,1.84,1.84,0,1,0,3-2.07c-.48-.7-1-1.4-1.47-2.09a.43.43,0,0,1,0-.6,25,25,0,0,0,1.51-2.19,2.67,2.67,0,0,0,.34-1.44A1.61,1.61,0,0,0,14.8,7a1.73,1.73,0,0,0-1.88.7C12.34,8.54,11.79,9.36,11.22,10.17Z"/><path class="cls-2" d="M10.67,12l2.6-3.75a1.26,1.26,0,1,1,2.12,1.35c-.55.82-1.12,1.64-1.71,2.43a.58.58,0,0,0,0,.83c.55.74,1.06,1.5,1.59,2.26a1.31,1.31,0,0,1-.19,2,1.27,1.27,0,0,1-1.86-.51c-.86-1.23-1.71-2.47-2.68-3.68v1.81c0,.46,0,.93,0,1.38a1.32,1.32,0,0,1-1.36,1.22A1.27,1.27,0,0,1,8,15.94q0-3.51,0-7A1.3,1.3,0,0,1,9.24,7.54a1.33,1.33,0,0,1,1.3,1.34c0,.85,0,1.71,0,2.56V12Z"/><path class="cls-3" d="M19.33,23H4.58a3.21,3.21,0,0,1-3.21-3.21V5A3.21,3.21,0,0,1,4.58,1.82H19.33A3.22,3.22,0,0,1,22.55,5V19.79A3.22,3.22,0,0,1,19.33,23ZM4.58,2.53A2.51,2.51,0,0,0,2.08,5V19.79a2.5,2.5,0,0,0,2.5,2.5H19.33a2.5,2.5,0,0,0,2.5-2.5V5a2.51,2.51,0,0,0-2.5-2.5Z"/></svg>