<svg id="Layer_1" data-name="Layer 1" xmlns="http://www.w3.org/2000/svg" xmlns:xlink="http://www.w3.org/1999/xlink" viewBox="0 0 24 24"><defs><style>.cls-1{fill:url(#linear-gradient);}.cls-2{fill:url(#linear-gradient-2);}.cls-3{fill:url(#linear-gradient-3);}.cls-4{fill:url(#linear-gradient-4);}.cls-5{fill:url(#linear-gradient-5);}</style><linearGradient id="linear-gradient" x1="1" y1="12" x2="23" y2="12" gradientUnits="userSpaceOnUse"><stop offset="0" stop-color="#283376"/><stop offset="1" stop-color="#1c67a6"/></linearGradient><linearGradient id="linear-gradient-2" x1="4.19" y1="12.01" x2="16.84" y2="12.01" xlink:href="#linear-gradient"/><linearGradient id="linear-gradient-3" x1="11.38" y1="12.08" x2="19.14" y2="12.08" xlink:href="#linear-gradient"/><linearGradient id="linear-gradient-4" x1="11.38" y1="12.1" x2="19.14" y2="12.1" xlink:href="#linear-gradient"/><linearGradient id="linear-gradient-5" x1="11.38" y1="12.69" x2="19.14" y2="12.69" xlink:href="#linear-gradient"/></defs><path class="cls-1" d="M12,1A11,11,0,1,0,23,12,11,11,0,0,0,12,1Zm0,20.43A9.43,9.43,0,1,1,21.43,12,9.43,9.43,0,0,1,12,21.43Z"/><path class="cls-2" d="M8.28,7.44a4.86,4.86,0,0,1,2.47-.64,4.64,4.64,0,0,1,2.46.64,4.15,4.15,0,0,1,1.57,1.83h2.06A5.93,5.93,0,0,0,14.5,6.33a6.77,6.77,0,0,0-3.75-1,6.52,6.52,0,0,0-3.33.87A6.31,6.31,0,0,0,5.05,8.57,6.86,6.86,0,0,0,4.19,12a6.85,6.85,0,0,0,.86,3.45,6.3,6.3,0,0,0,2.37,2.38,6.61,6.61,0,0,0,3.33.86,6.76,6.76,0,0,0,3.75-1,5.85,5.85,0,0,0,2.34-2.91H14.78a4.07,4.07,0,0,1-1.57,1.82,4.64,4.64,0,0,1-2.46.63,4.76,4.76,0,0,1-2.47-.64,4.51,4.51,0,0,1-1.72-1.82A5.86,5.86,0,0,1,5.94,12a5.92,5.92,0,0,1,.62-2.77A4.58,4.58,0,0,1,8.28,7.44Z"/><path class="cls-3" d="M12.09,14a1.29,1.29,0,0,1-.52-.54,1.62,1.62,0,0,1-.19-.81V11.49a1.62,1.62,0,0,1,.19-.81,1.26,1.26,0,0,1,.52-.55,1.66,1.66,0,0,1,1.54,0,1.26,1.26,0,0,1,.52.55,1.73,1.73,0,0,1,.18.81v1.19a1.73,1.73,0,0,1-.18.81,1.29,1.29,0,0,1-.52.54,1.58,1.58,0,0,1-1.54,0Zm1.23-.5a.8.8,0,0,0,.3-.33,1,1,0,0,0,.11-.5V11.47a1,1,0,0,0-.11-.5.8.8,0,0,0-.3-.33.94.94,0,0,0-.92,0,.9.9,0,0,0-.31.33,1.12,1.12,0,0,0-.1.5V12.7a1.15,1.15,0,0,0,.1.5.9.9,0,0,0,.31.33.94.94,0,0,0,.92,0Z"/><path class="cls-4" d="M15.23,10h.59v4.2h-.59Zm.85,4.11a.77.77,0,0,1-.3-.38l0-.63a.67.67,0,0,0,.07.33.45.45,0,0,0,.2.21.63.63,0,0,0,.32.07.61.61,0,0,0,.45-.17A.72.72,0,0,0,17,13v-.65a.77.77,0,0,0-.16-.52.58.58,0,0,0-.45-.18.76.76,0,0,0-.32.07.51.51,0,0,0-.2.21.63.63,0,0,0-.07.32l-.06-.58a1,1,0,0,1,.35-.4.86.86,0,0,1,.49-.15,1,1,0,0,1,.55.15.87.87,0,0,1,.34.41,1.69,1.69,0,0,1,.12.66V13a1.6,1.6,0,0,1-.12.65.85.85,0,0,1-.36.41,1,1,0,0,1-.56.15A.91.91,0,0,1,16.08,14.09Z"/><path class="cls-5" d="M18,14.84h.33a.15.15,0,0,0,.13-.06.27.27,0,0,0,0-.17V11.19h.59v3.42a.86.86,0,0,1-.18.58.66.66,0,0,1-.52.21H18Zm.5-4.86h.6v.59h-.6Z"/></svg>