<svg id="Layer_1" data-name="Layer 1" xmlns="http://www.w3.org/2000/svg" xmlns:xlink="http://www.w3.org/1999/xlink" viewBox="0 0 24 24"><defs><style>.cls-1{fill:url(#linear-gradient);}.cls-2{fill:url(#linear-gradient-2);}.cls-3{fill:url(#linear-gradient-3);}</style><linearGradient id="linear-gradient" x1="1.82" y1="11.65" x2="22" y2="11.65" gradientUnits="userSpaceOnUse"><stop offset="0" stop-color="#283376"/><stop offset="1" stop-color="#1c67a6"/></linearGradient><linearGradient id="linear-gradient-2" x1="16.04" y1="15.58" x2="17.73" y2="15.58" xlink:href="#linear-gradient"/><linearGradient id="linear-gradient-3" x1="6.69" y1="15.57" x2="8.39" y2="15.57" xlink:href="#linear-gradient"/></defs><path class="cls-1" d="M11.9,21.74c-1.64,0-3.29,0-4.93,0a5.13,5.13,0,0,1-5-4,5.55,5.55,0,0,1-.13-1.15q0-4.92,0-9.82A5.14,5.14,0,0,1,7,1.57q5,0,9.88,0a5.12,5.12,0,0,1,5.09,4.37,5,5,0,0,1,.07.87v9.7a5.19,5.19,0,0,1-5.31,5.23H11.9ZM15.05,3.06V3c-.66,0-1.32,0-2,0a.28.28,0,0,0-.31.23,6.08,6.08,0,0,0-.26,2.87,5.84,5.84,0,0,0,7.83,4.48.24.24,0,0,0,.19-.26c0-1.22,0-2.43,0-3.65a3.64,3.64,0,0,0-3.41-3.64C16.43,3,15.73,3.06,15.05,3.06Zm-2,12.88H11.16V14.08h-.95v4.78h1V16.8h1.92v2.06H14V14.08h-.95ZM16,17c.49,0,.94,0,1.39,0a1.34,1.34,0,0,0,1.31-1.23,1.38,1.38,0,0,0-1.33-1.71l-2,0h-.34v4.79h1ZM6.68,17H8a1.45,1.45,0,0,0,1.4-1.83,1.26,1.26,0,0,0-1.21-1.1c-.78,0-1.57,0-2.35,0l-.09,0v4.77h1Z"/><path class="cls-2" d="M16,14.9c.37,0,.72,0,1.07,0a.65.65,0,0,1,0,1.3c-.36,0-.71,0-1.09.05Z"/><path class="cls-3" d="M6.69,16.27v-1.4a11.73,11.73,0,0,1,1.2.07.58.58,0,0,1,.5.64.58.58,0,0,1-.52.61C7.49,16.24,7.1,16.24,6.69,16.27Z"/></svg>