<svg id="Layer_1" data-name="Layer 1" xmlns="http://www.w3.org/2000/svg" xmlns:xlink="http://www.w3.org/1999/xlink" viewBox="0 0 24 24"><defs><style>.cls-1{fill:url(#linear-gradient);}.cls-2{fill:url(#linear-gradient-2);}.cls-3{fill:url(#linear-gradient-3);}.cls-4{fill:url(#linear-gradient-4);}.cls-5{fill:url(#linear-gradient-5);}.cls-6{fill:url(#linear-gradient-6);}.cls-7{fill:url(#linear-gradient-7);}</style><linearGradient id="linear-gradient" x1="6.91" y1="6.36" x2="17.17" y2="6.36" gradientUnits="userSpaceOnUse"><stop offset="0" stop-color="#283376"/><stop offset="1" stop-color="#1c67a6"/></linearGradient><linearGradient id="linear-gradient-2" x1="18.9" y1="11.58" x2="23" y2="11.58" xlink:href="#linear-gradient"/><linearGradient id="linear-gradient-3" x1="1.09" y1="11.58" x2="5.19" y2="11.58" xlink:href="#linear-gradient"/><linearGradient id="linear-gradient-4" x1="6.55" y1="15.18" x2="8.16" y2="15.18" xlink:href="#linear-gradient"/><linearGradient id="linear-gradient-5" x1="9.56" y1="15.18" x2="11.17" y2="15.18" xlink:href="#linear-gradient"/><linearGradient id="linear-gradient-6" x1="12.92" y1="15.18" x2="14.52" y2="15.18" xlink:href="#linear-gradient"/><linearGradient id="linear-gradient-7" x1="15.93" y1="15.18" x2="17.53" y2="15.18" xlink:href="#linear-gradient"/></defs><path class="cls-1" d="M7.81,4.46c-.22-.18-.42-.34-.61-.51a.48.48,0,1,1,.6-.75,3.31,3.31,0,0,1,.5.41,1.19,1.19,0,0,0,1.19.32l.09-.42A2.35,2.35,0,0,1,11.7,1.73a19.67,19.67,0,0,1,3.07,0,2.78,2.78,0,0,1,2.39,2.68c0,2,0,4,0,6a.47.47,0,0,1-.53.53h-3.9c-.36,0-.53-.19-.53-.58V7.13c0-.49,0-.49-.47-.54A2.43,2.43,0,0,1,9.68,5.08a.24.24,0,0,0-.24-.17,1.19,1.19,0,0,0-1.18.44,3.34,3.34,0,0,1-.47.45.5.5,0,0,1-.75,0,.5.5,0,0,1,.09-.75l.34-.32Zm8.38,5.59a1.62,1.62,0,0,0,0-.18V4.65c0-.12,0-.24,0-.36a1.88,1.88,0,0,0-1.66-1.6c-.92,0-1.84,0-2.77,0a1.36,1.36,0,0,0-1.24,1.25h1.11c.36,0,.58.2.57.49s-.22.47-.58.47H10.7a1.41,1.41,0,0,0,1.22.72,1.24,1.24,0,0,1,1.26,1.31v3.11Z"/><path class="cls-2" d="M21.83,11.64a4.52,4.52,0,0,1-1.21-2.17,6.88,6.88,0,0,1-.15-1.28c0-.69,0-1.39,0-2.09a1,1,0,0,0-1-1.16c-.32,0-.52-.24-.5-.51S19.16,4,19.5,4a2,2,0,0,1,1.9,1.83c0,.76,0,1.52,0,2.28a3.93,3.93,0,0,0,1.35,3.11.5.5,0,0,1,0,.81,4.77,4.77,0,0,0-1.35,3.49c0,.52,0,1,0,1.55a2.07,2.07,0,0,1-1.81,2.11,1,1,0,0,1-.34,0,.46.46,0,0,1-.41-.45.46.46,0,0,1,.35-.48.8.8,0,0,1,.15,0A1.12,1.12,0,0,0,20.5,17c0-.45,0-.9,0-1.35A5.85,5.85,0,0,1,21.83,11.64Z"/><path class="cls-3" d="M2.26,11.66a5.4,5.4,0,0,1,1.27,3c.07.75,0,1.51.05,2.27a2.15,2.15,0,0,0,0,.51,1.11,1.11,0,0,0,1,.81h.05c.36,0,.56.23.53.53s-.25.46-.59.44a2.1,2.1,0,0,1-1.91-1.59A4.62,4.62,0,0,1,2.62,17c0-.72,0-1.43,0-2.14a4.46,4.46,0,0,0-1.23-2.73c-.36-.38-.35-.58,0-.94A3.91,3.91,0,0,0,2.66,8.22c0-.75,0-1.5,0-2.25a2,2,0,0,1,1.7-2L4.5,4c.38,0,.62.13.65.43S5,4.91,4.6,5a1,1,0,0,0-1,1.1c0,.67,0,1.34,0,2a4.87,4.87,0,0,1-1.3,3.52S2.29,11.62,2.26,11.66Z"/><path class="cls-4" d="M7.33,15.66H7a.47.47,0,0,1-.45-.45.44.44,0,0,1,.4-.49,3.57,3.57,0,0,1,.8,0,.46.46,0,0,1,.41.48.48.48,0,0,1-.44.46Z"/><path class="cls-5" d="M10.38,15.66H10a.48.48,0,0,1-.43-.47.46.46,0,0,1,.4-.47,4.17,4.17,0,0,1,.79,0,.48.48,0,0,1,0,.95Z"/><path class="cls-6" d="M13.71,15.67H13.4a.47.47,0,0,1-.48-.48.45.45,0,0,1,.43-.48,4.33,4.33,0,0,1,.72,0,.48.48,0,0,1,0,.95Z"/><path class="cls-7" d="M16.72,15.66h-.36a.48.48,0,0,1-.43-.47.44.44,0,0,1,.39-.47,3.75,3.75,0,0,1,.82,0,.44.44,0,0,1,.39.5.46.46,0,0,1-.42.44Z"/></svg>