<svg id="Layer_1" data-name="Layer 1" xmlns="http://www.w3.org/2000/svg" xmlns:xlink="http://www.w3.org/1999/xlink" viewBox="0 0 24 24"><defs><style>.cls-1{fill:url(#linear-gradient);}.cls-2{fill:url(#linear-gradient-2);}</style><linearGradient id="linear-gradient" x1="0.73" y1="11.77" x2="23" y2="11.77" gradientUnits="userSpaceOnUse"><stop offset="0" stop-color="#283376"/><stop offset="1" stop-color="#1c67a6"/></linearGradient><linearGradient id="linear-gradient-2" x1="9.53" y1="11.92" x2="14.34" y2="11.92" xlink:href="#linear-gradient"/></defs><path class="cls-1" d="M11.85,22.91h-.42c-1.64,0-1.68,0-1.76-1.69a1.14,1.14,0,0,0-.78-1.1,2,2,0,0,0-2.83.42c-.41.46-.85.36-1.26-.07s-1.14-1.15-1.71-1.72c-.33-.33-.43-.74-.08-1a2.15,2.15,0,0,0,.38-3.18,1.23,1.23,0,0,0-.61-.5,7.11,7.11,0,0,0-1.31-.16.73.73,0,0,1-.74-.82V10.48c0-.47.23-.81.7-.78A2.17,2.17,0,0,0,3.94,7.8a.89.89,0,0,0-.14-.92c-1.4-1.75-1.35-1.44.19-3s1.23-1.6,3-.2c.34.28.63.36,1,.09a.54.54,0,0,1,.26-.11c1.23-.19,1.6-1,1.57-2.13,0-.68.33-.95,1-.92s1.58,0,2.37,0c.5,0,.84.23.81.73a2.1,2.1,0,0,0,1.81,2.44,1,1,0,0,0,1.1-.16c.27-.25.58-.46.87-.69a.72.72,0,0,1,1.1,0l1.82,1.82c.34.33.43.74.08,1A2.15,2.15,0,0,0,20.34,9a1.28,1.28,0,0,0,.61.5,8.08,8.08,0,0,0,1.31.15.73.73,0,0,1,.74.82c0,.86,0,1.72,0,2.58,0,.47-.23.8-.7.77a2.17,2.17,0,0,0-2.51,1.91.89.89,0,0,0,.14.92c1.4,1.74,1.34,1.43-.19,3s-1.23,1.6-3,.19a.71.71,0,0,0-1-.08.73.73,0,0,1-.31.14c-1.11.19-1.49.87-1.52,2s-.16,1.05-1.2,1.05Zm0-16.7a5.57,5.57,0,1,0,5.55,5.58A5.58,5.58,0,0,0,11.88,6.21Z"/><path class="cls-2" d="M9.53,8.62h.93v6.6H9.53Zm.4,2.93h2.26a.86.86,0,0,0,.78-.49,1.27,1.27,0,0,0,.11-.54A1.25,1.25,0,0,0,13,10a.79.79,0,0,0-.78-.49H9.93V8.62h2.22a2.11,2.11,0,0,1,1,.23,1.69,1.69,0,0,1,.68.67,2.05,2.05,0,0,1,.24,1,2,2,0,0,1-.25,1,1.73,1.73,0,0,1-.67.67,2.14,2.14,0,0,1-1,.23H9.93Zm1.8.68.92-.21,1.69,3.2h-1.1Z"/></svg>