<svg id="Layer_1" data-name="Layer 1" xmlns="http://www.w3.org/2000/svg" xmlns:xlink="http://www.w3.org/1999/xlink" viewBox="0 0 24 24"><defs><style>.cls-1{fill:url(#linear-gradient);}.cls-2{fill:url(#linear-gradient-2);}</style><linearGradient id="linear-gradient" x1="5.34" y1="12.19" x2="19" y2="12.19" gradientUnits="userSpaceOnUse"><stop offset="0" stop-color="#283478"/><stop offset="1" stop-color="#1675b1"/></linearGradient><linearGradient id="linear-gradient-2" x1="6" y1="10.13" x2="18.12" y2="10.13" xlink:href="#linear-gradient"/></defs><path class="cls-1" d="M5.34,12.19V3.46a1.87,1.87,0,0,1,2-2h8.22a.45.45,0,0,1,.37.15l3,3a.44.44,0,0,1,.14.34V21a1.87,1.87,0,0,1-1.95,1.95H7.27A1.86,1.86,0,0,1,5.34,21Zm13.42,6.35V4.88H17.47a1.86,1.86,0,0,1-1.85-1.6,10.11,10.11,0,0,1,0-1.35V1.69H7.32A1.66,1.66,0,0,0,5.56,3.45V18.54Zm-7.47,2.63h0l-.45-1.63a.35.35,0,0,0-.37-.31.37.37,0,0,0-.37.31l-.2.74c-.08.3-.16.61-.26,1,0-.11,0-.16-.06-.21-.12-.51-.23-1-.35-1.53-.06-.23-.16-.3-.34-.26s-.23.18-.18.38c.18.74.36,1.48.55,2.22,0,.17.13.31.34.31a.36.36,0,0,0,.36-.31c.1-.38.21-.75.31-1.13.06-.22.13-.45.21-.72a1.66,1.66,0,0,0,.05.16c.15.57.31,1.14.46,1.71a.35.35,0,0,0,.36.29c.2,0,.29-.13.34-.3l.18-.7c.12-.51.25-1,.37-1.53.05-.21,0-.35-.19-.38s-.28,0-.33.26-.08.33-.12.49Zm-4,1v-.06a1.33,1.33,0,0,0,.2,0A.9.9,0,0,0,8.38,21a.82.82,0,0,0-.58-.56c-.27-.09-.55-.15-.81-.24s-.25-.12-.24-.29.12-.24.26-.29c.34-.12.56,0,.78.34a.24.24,0,0,0,.33.15.26.26,0,0,0,.14-.35.72.72,0,0,0-.47-.49,1.45,1.45,0,0,0-1.12,0,.73.73,0,0,0,.08,1.38l.83.25a.35.35,0,0,1,.26.32.38.38,0,0,1-.25.36.62.62,0,0,1-.89-.31.91.91,0,0,1-.07-.14c-.07-.12-.19-.19-.3-.11a.34.34,0,0,0-.16.28.69.69,0,0,0,.4.59A5.21,5.21,0,0,0,7.27,22.19Zm7-2.48H15.3c.16,0,.31,0,.32-.22s-.09-.22-.31-.22H14c-.29,0-.38.09-.38.39v2.22a.28.28,0,0,0,.56,0,2.62,2.62,0,0,0,0-.28v-.75h.16c.28,0,.56,0,.83,0a.29.29,0,0,0,.2-.2c0-.12-.07-.2-.2-.21a1.77,1.77,0,0,0-.23,0h-.76Zm3,0c.22,0,.42,0,.61,0s.31,0,.31-.24-.15-.23-.32-.23H16.1c-.22,0-.33.08-.32.24s.11.23.33.23.38,0,.58,0v1.92c0,.36.08.48.29.48s.28-.13.28-.49Zm-4.7.92v1.15c0,.17,0,.31.25.33s.27-.1.28-.32V19.54c0-.22-.11-.33-.29-.32s-.24.16-.24.33Z"/><path class="cls-2" d="M13.75,11.84V11.3a16.06,16.06,0,0,0-.3-2.59c-.22-1.17-.46-2.34-.7-3.51,0-.2-.06-.4-.09-.6,0,0,0-.1,0-.18l.17.2a17.87,17.87,0,0,1,2,3.3,13,13,0,0,1,1,2.6c.16.7.29,1.4.4,2.11a4.71,4.71,0,0,1,0,.75c.3.18.59.35.88.54a1,1,0,0,1,.53.91s.05.07.08.08a.76.76,0,0,1,.4.44,1.44,1.44,0,0,0-.89-.25,1.62,1.62,0,0,0,.44.73.56.56,0,0,1-.44-.18c-.05-.06-.09-.05-.16,0a6.43,6.43,0,0,1-1,.14,16.3,16.3,0,0,1-4.07-.3,15.52,15.52,0,0,1-5.56-2.38c-.16-.1-.31-.23-.46-.34v0c.06,0,.12-.06.17,0a6.22,6.22,0,0,1,.88.11c.78.18,1.54.39,2.31.58a14.49,14.49,0,0,0,2.17.38h.35l.16,0,0-.07c-.75-1.2-1.5-2.39-2.24-3.59A5.64,5.64,0,0,0,8.38,8.58c-.25-.2-.49-.42-.74-.63a.62.62,0,0,1-.1-.16l0,0a.39.39,0,0,1,.15,0,4.91,4.91,0,0,1,.74.33c.55.35,1.08.72,1.61,1.1l3.42,2.47.23.17Zm3.43,2.71a.2.2,0,0,0-.2.2.21.21,0,0,0,.2.19.2.2,0,0,0,.19-.19A.21.21,0,0,0,17.18,14.55Z"/></svg>