<svg id="Layer_1" data-name="Layer 1" xmlns="http://www.w3.org/2000/svg" xmlns:xlink="http://www.w3.org/1999/xlink" viewBox="0 0 24 24"><defs><style>.cls-1{fill:url(#linear-gradient);}.cls-2{fill:url(#linear-gradient-2);}.cls-3{fill:url(#linear-gradient-3);}.cls-4{fill:url(#linear-gradient-4);}.cls-5{fill:url(#linear-gradient-5);}.cls-6{fill:url(#linear-gradient-6);}</style><linearGradient id="linear-gradient" x1="6.22" y1="12.6" x2="18.23" y2="12.6" gradientUnits="userSpaceOnUse"><stop offset="0" stop-color="#283376"/><stop offset="1" stop-color="#1c67a6"/></linearGradient><linearGradient id="linear-gradient-2" x1="11.13" y1="11.62" x2="13.32" y2="11.62" xlink:href="#linear-gradient"/><linearGradient id="linear-gradient-3" x1="3.13" y1="12.61" x2="21.31" y2="12.61" xlink:href="#linear-gradient"/><linearGradient id="linear-gradient-4" x1="3.13" y1="12.58" x2="21.31" y2="12.58" xlink:href="#linear-gradient"/><linearGradient id="linear-gradient-5" x1="1.44" y1="12.61" x2="23" y2="12.61" xlink:href="#linear-gradient"/><linearGradient id="linear-gradient-6" x1="1.44" y1="12.58" x2="23" y2="12.58" xlink:href="#linear-gradient"/></defs><path class="cls-1" d="M6.22,8.29l1.5-.54,2.5-.89,1.94-.69h.12l4,1.44,1.91.68c0,.14,0,.29-.05.44-.05.39-.09.79-.14,1.18l-.15,1.29-.15,1.28c0,.39-.09.77-.13,1.16s-.11.95-.16,1.42-.09.74-.13,1.11a.2.2,0,0,1-.07.09l-1.61.89-2.7,1.5-.65.36a.11.11,0,0,1-.13,0l-3.43-1.9-1.52-.84a.16.16,0,0,1-.09-.14L7,14.84c0-.49-.11-1-.16-1.45s-.12-1-.17-1.46-.14-1.16-.2-1.74-.13-1-.19-1.58Zm6-.72L8.48,16H9.82c.06,0,.07,0,.08-.07.23-.56.45-1.12.67-1.68.07-.17,0-.14.2-.14h3a.12.12,0,0,1,.12.07l.69,1.75a.1.1,0,0,0,.11.07H16Z"/><path class="cls-2" d="M11.13,12.94l1.09-2.64,1.1,2.64Z"/><path class="cls-3" d="M3.76,12.6a8.48,8.48,0,0,1,7.09-8.35,1.69,1.69,0,0,1-.28-.59,9.08,9.08,0,0,0,.18,17.89,1.8,1.8,0,0,1,.31-.58A8.46,8.46,0,0,1,3.76,12.6Z"/><path class="cls-4" d="M13.9,3.67a1.71,1.71,0,0,1-.29.59,8.45,8.45,0,0,1,.11,16.66,1.68,1.68,0,0,1,.33.58A9.09,9.09,0,0,0,13.9,3.67Z"/><path class="cls-5" d="M2.19,12.6a10,10,0,0,1,8.33-9.88,1.92,1.92,0,0,1,.36-.81A10.77,10.77,0,0,0,11,23.3a1.79,1.79,0,0,1-.34-.8A10,10,0,0,1,2.19,12.6Z"/><path class="cls-6" d="M13.6,1.91a1.89,1.89,0,0,1,.35.81,10,10,0,0,1,.19,19.72,1.9,1.9,0,0,1-.3.8A10.77,10.77,0,0,0,13.6,1.91Z"/></svg>