<svg id="Layer_1" data-name="Layer 1" xmlns="http://www.w3.org/2000/svg" xmlns:xlink="http://www.w3.org/1999/xlink" viewBox="0 0 24 24"><defs><style>.cls-1{fill:url(#linear-gradient);}.cls-2{fill:url(#linear-gradient-2);}.cls-3{fill:url(#linear-gradient-3);}.cls-4{fill:url(#linear-gradient-4);}.cls-5{fill:url(#linear-gradient-5);}.cls-6{fill:url(#linear-gradient-6);}</style><linearGradient id="linear-gradient" x1="9.37" y1="17.28" x2="16.15" y2="17.28" gradientUnits="userSpaceOnUse"><stop offset="0" stop-color="#283376"/><stop offset="1" stop-color="#1c67a6"/></linearGradient><linearGradient id="linear-gradient-2" x1="3.04" y1="11.14" x2="12.75" y2="11.14" xlink:href="#linear-gradient"/><linearGradient id="linear-gradient-3" x1="13.14" y1="9.47" x2="19.76" y2="9.47" xlink:href="#linear-gradient"/><linearGradient id="linear-gradient-4" x1="8.14" y1="16.5" x2="15.37" y2="16.5" xlink:href="#linear-gradient"/><linearGradient id="linear-gradient-5" x1="14.04" y1="8.73" x2="21" y2="8.73" xlink:href="#linear-gradient"/><linearGradient id="linear-gradient-6" x1="2.95" y1="8.28" x2="12.8" y2="8.28" xlink:href="#linear-gradient"/></defs><path class="cls-1" d="M15.76,13.53a2.67,2.67,0,0,1,.37,1.73,6,6,0,0,1-1.37,3.19,6.82,6.82,0,0,1-3.2,2.37,3.24,3.24,0,0,1-2,.1c-.18-.05-.25-.12-.24-.32a3.94,3.94,0,0,1,1.51-2.82,16.84,16.84,0,0,1,1.64-1.11,11,11,0,0,0,2.81-2.5Z"/><path class="cls-2" d="M12.75,10.29a2.79,2.79,0,0,1-1.09,1.46,5.8,5.8,0,0,1-2.83,1,7.27,7.27,0,0,1-3.69-.46A3.69,3.69,0,0,1,3.22,10.8c-.27-.48-.24-.39.14-.66a4.13,4.13,0,0,1,3.46-.57c.79.18,1.56.44,2.35.61A8.45,8.45,0,0,0,12.75,10.29Z"/><path class="cls-3" d="M19.76,13.08a2.74,2.74,0,0,1-1.85.07,6,6,0,0,1-2.8-1.77A7,7,0,0,1,13.25,8a3.34,3.34,0,0,1,.17-2.18.24.24,0,0,1,.34-.16,4.22,4.22,0,0,1,2.86,2.45c.24.48.42,1,.65,1.47A9.84,9.84,0,0,0,19.76,13.08Z"/><path class="cls-4" d="M8.77,20.39a2,2,0,0,1-.57-1.13A3.91,3.91,0,0,1,8.48,17a7.15,7.15,0,0,1,4.26-4.21,3,3,0,0,1,2-.08,7,7,0,0,1,.66.3c-.3.41-.55.8-.84,1.15a11.59,11.59,0,0,1-3,2.34,6,6,0,0,0-2.19,2.08,4.13,4.13,0,0,0-.57,1.63Z"/><path class="cls-5" d="M14,5.12a2.22,2.22,0,0,1,1.5-.38,4.36,4.36,0,0,1,2.07.72,7.21,7.21,0,0,1,3.3,4.63,3.1,3.1,0,0,1-.16,2c-.11.23-.27.44-.41.67A5.77,5.77,0,0,1,19,11.33a12.18,12.18,0,0,1-1.43-2.66,6.89,6.89,0,0,0-1.07-1.93A4.62,4.62,0,0,0,14,5.12Z"/><path class="cls-6" d="M12.8,9.68c-.37.05-.72.12-1.07.14a10.83,10.83,0,0,1-3.86-.6,6.77,6.77,0,0,0-2.72-.36,4.55,4.55,0,0,0-2.05.72L3,9.66a2.22,2.22,0,0,1,.58-1.31A4.48,4.48,0,0,1,5.69,7.06a7.4,7.4,0,0,1,5.18.31A3.71,3.71,0,0,1,12.34,8.5,2.11,2.11,0,0,1,12.8,9.68Z"/></svg>