<svg id="Layer_1" data-name="Layer 1" xmlns="http://www.w3.org/2000/svg" xmlns:xlink="http://www.w3.org/1999/xlink" viewBox="0 0 24 24"><defs><style>.cls-1{fill:url(#linear-gradient);}.cls-2{fill:url(#linear-gradient-2);}.cls-3{fill:url(#linear-gradient-3);}.cls-4{fill:url(#linear-gradient-4);}</style><linearGradient id="linear-gradient" x1="3.34" y1="6.17" x2="18" y2="6.17" gradientUnits="userSpaceOnUse"><stop offset="0" stop-color="#283376"/><stop offset="1" stop-color="#1c67a6"/></linearGradient><linearGradient id="linear-gradient-2" x1="6.95" y1="12.62" x2="14.39" y2="12.62" xlink:href="#linear-gradient"/><linearGradient id="linear-gradient-3" x1="10.42" y1="6.63" x2="14.32" y2="6.63" xlink:href="#linear-gradient"/><linearGradient id="linear-gradient-4" x1="4.06" y1="19.23" x2="17.13" y2="19.23" xlink:href="#linear-gradient"/></defs><path class="cls-1" d="M7.32,10.66c-.72,0-1.43.05-2.14,0A2.11,2.11,0,0,1,3.36,8.83,2.19,2.19,0,0,1,5.05,6.35c.19,0,.4,0,.61-.07A2.56,2.56,0,0,1,8.75,4.07a3.54,3.54,0,0,1,2-2.14,3.4,3.4,0,0,1,2.09-.19,3.57,3.57,0,0,1,2.73,3.62c.23,0,.46.09.68.16A2.67,2.67,0,0,1,18,8.17a2.63,2.63,0,0,1-2.16,2.47,8.53,8.53,0,0,1-1,0H14a.63.63,0,0,0-.24-.7c-.19-.17-.37-.37-.56-.55a.52.52,0,0,0-.66-.09l-.49.28c-.12.08-.21,0-.25-.1s-.08-.35-.13-.52a.53.53,0,0,0-.53-.42h-1A.53.53,0,0,0,9.66,9c0,.17-.08.34-.13.5s-.13.2-.27.12L8.8,9.35a.52.52,0,0,0-.68.09c-.19.19-.38.39-.58.57A.57.57,0,0,0,7.32,10.66Zm6.33-2.14a.64.64,0,0,0,.14-.08L14,8.27c.37-.38.36-.28.09-.73-.1-.18-.05-.32.15-.37l.28-.07a.21.21,0,0,0,.18-.23c0-.15,0-.31,0-.47s0-.22-.21-.27l-.25-.06a.22.22,0,0,1-.15-.36c0-.09.1-.18.16-.27a.2.2,0,0,0,0-.26l-.37-.37a.18.18,0,0,0-.27,0l-.25.15c-.18.1-.31,0-.37-.16s-.05-.2-.08-.3a.17.17,0,0,0-.19-.15H12.1a.19.19,0,0,0-.2.16c0,.1-.06.2-.07.3a.2.2,0,0,1-.21.19.37.37,0,0,1-.21-.08c-.38-.21-.32-.24-.63.08s-.36.28-.09.73a.22.22,0,0,1,0,.28.7.7,0,0,1-.23.11c-.38.11-.38,0-.38.49s0,.45.45.59c.21,0,.26.19.15.37s-.09.17-.15.25a.2.2,0,0,0,0,.26l.39.39a.19.19,0,0,0,.25,0l.27-.16a.21.21,0,0,1,.35.15c0,.1.06.2.08.3a.19.19,0,0,0,.2.16h.55a.19.19,0,0,0,.2-.17,1.68,1.68,0,0,1,.09-.32.49.49,0,0,1,.11-.14.18.18,0,0,1,.22,0C13.39,8.38,13.52,8.45,13.65,8.52Z"/><path class="cls-2" d="M10.66,16.32c-.15,0-.29,0-.44,0a.22.22,0,0,1-.23-.18c-.05-.22-.12-.45-.17-.67a.24.24,0,0,0-.13-.15.57.57,0,0,0-.71.06,3.24,3.24,0,0,1-.35.21.2.2,0,0,1-.27,0c-.21-.22-.43-.44-.65-.65a.2.2,0,0,1,0-.28L8,14a.32.32,0,0,0,0-.17.55.55,0,0,0-.53-.46,3.39,3.39,0,0,1-.43-.11A.17.17,0,0,1,7,13.09c0-.32,0-.63,0-.95A.17.17,0,0,1,7.11,12l.67-.17A.27.27,0,0,0,8,11.63.53.53,0,0,0,7.9,11a2.77,2.77,0,0,1-.22-.37.19.19,0,0,1,0-.27l.64-.64a.21.21,0,0,1,.29,0c.2.12.4.24.61.35a.28.28,0,0,0,.18,0,.57.57,0,0,0,.47-.55,2.13,2.13,0,0,1,.1-.4.18.18,0,0,1,.19-.15h1a.2.2,0,0,1,.2.17c.05.22.11.44.17.67,0,.08.05.15.15.16l.05,0a.44.44,0,0,0,.57,0,4,4,0,0,1,.41-.24.2.2,0,0,1,.28,0c.21.22.43.43.65.65a.2.2,0,0,1,0,.28c-.12.19-.23.39-.36.59a.18.18,0,0,0,0,.21v0c0,.27.23.36.47.4a3.69,3.69,0,0,1,.45.11.2.2,0,0,1,.16.21v.92a.19.19,0,0,1-.16.21l-.68.18a.21.21,0,0,0-.16.13.52.52,0,0,0,.06.68c.09.11.14.25.22.37a.19.19,0,0,1,0,.25l-.65.65a.21.21,0,0,1-.29,0c-.2-.12-.4-.24-.61-.35a.32.32,0,0,0-.17,0,.55.55,0,0,0-.47.54,2.62,2.62,0,0,1-.09.38.21.21,0,0,1-.22.18Zm0-5.36a1.66,1.66,0,1,0,1.66,1.66A1.66,1.66,0,0,0,10.68,11Z"/><path class="cls-3" d="M11.12,8.11c-.25-.21-.26-.21-.1-.47a.44.44,0,0,0,0-.43.5.5,0,0,0-.46-.38c-.15,0-.2-.09-.17-.23V6.45a2,2,0,0,0,.37-.1A.58.58,0,0,0,11,6.18s0-.06,0-.09a.42.42,0,0,0,0-.57.18.18,0,0,1,0-.3.48.48,0,0,0,.09-.11l.34.2a.3.3,0,0,0,.26,0,.6.6,0,0,0,.49-.57c0-.08.05-.09.12-.09.23,0,.22,0,.29.21s0,.24.12.29a1.52,1.52,0,0,0,.43.19.25.25,0,0,0,.14,0l.33-.19h0c.22.2.23.21.07.47a.41.41,0,0,0,0,.4.51.51,0,0,0,.5.41c.11,0,.14.06.13.17s0,.19-.12.23c-.43.11-.43.11-.56.53a.23.23,0,0,0,0,.18,3,3,0,0,0,.19.35l-.24.23-.32-.19a.23.23,0,0,0-.26,0S13,8,13,8c-.25,0-.34.22-.38.46a.24.24,0,0,1-.35.15l0-.05a.64.64,0,0,1,0-.07c-.11-.41-.11-.41-.51-.55a.35.35,0,0,0-.2,0C11.34,8,11.24,8.05,11.12,8.11Zm1.26-2.32a.83.83,0,1,0,0,1.66.83.83,0,0,0,0-1.66Z"/><path class="cls-4" d="M4.06,20.21l.66-.14c.08.37.38.56.91.56a1,1,0,0,0,.56-.14.44.44,0,0,0,.19-.36.52.52,0,0,0-.09-.29.66.66,0,0,0-.38-.2l-.72-.19a1.66,1.66,0,0,1-.54-.22.84.84,0,0,1-.29-.35,1,1,0,0,1-.1-.47,1,1,0,0,1,.37-.81,1.44,1.44,0,0,1,1-.31,1.75,1.75,0,0,1,.87.21,1,1,0,0,1,.49.61l-.65.16a.64.64,0,0,0-.69-.43.77.77,0,0,0-.49.13.41.41,0,0,0-.16.34c0,.21.17.36.52.45l.64.16a1.3,1.3,0,0,1,.78.43,1,1,0,0,1,.2.63,1,1,0,0,1-.42.88,1.75,1.75,0,0,1-1.08.32,2,2,0,0,1-1-.24A1.13,1.13,0,0,1,4.06,20.21Z"/><path class="cls-4" d="M10.62,21.12H9.89l-.3-.9H8.14l-.29.9H7.27l1.25-3.77h.84ZM9.41,19.68,8.86,18l-.55,1.68Z"/><path class="cls-4" d="M14,21.12H13.3l-.3-.9H11.55l-.29.9h-.58l1.25-3.77h.84Zm-1.21-1.44L12.27,18l-.55,1.68Z"/><path class="cls-4" d="M14.09,20.21l.66-.14c.08.37.38.56.91.56a1,1,0,0,0,.56-.14.44.44,0,0,0,.19-.36.52.52,0,0,0-.09-.29.66.66,0,0,0-.38-.2l-.72-.19a1.66,1.66,0,0,1-.54-.22.84.84,0,0,1-.29-.35,1,1,0,0,1-.1-.47,1,1,0,0,1,.37-.81,1.44,1.44,0,0,1,1-.31,1.75,1.75,0,0,1,.87.21,1,1,0,0,1,.49.61l-.65.16a.64.64,0,0,0-.69-.43.77.77,0,0,0-.49.13.41.41,0,0,0-.16.34c0,.21.17.36.52.45l.64.16a1.3,1.3,0,0,1,.78.43,1,1,0,0,1,.2.63,1,1,0,0,1-.42.88,1.75,1.75,0,0,1-1.08.32,2,2,0,0,1-1-.24A1.13,1.13,0,0,1,14.09,20.21Z"/></svg>