<svg id="Layer_1" data-name="Layer 1" xmlns="http://www.w3.org/2000/svg" xmlns:xlink="http://www.w3.org/1999/xlink" viewBox="0 0 24 24"><defs><style>.cls-1{fill:url(#linear-gradient);}.cls-2{fill:url(#linear-gradient-2);}</style><linearGradient id="linear-gradient" x1="4.69" y1="13.31" x2="18.22" y2="13.31" gradientUnits="userSpaceOnUse"><stop offset="0" stop-color="#283376"/><stop offset="1" stop-color="#1c67a6"/></linearGradient><linearGradient id="linear-gradient-2" x1="0.43" y1="11.97" x2="22.48" y2="11.97" xlink:href="#linear-gradient"/></defs><path class="cls-1" d="M4.69,7.46h4.9a.46.46,0,0,1,.46.27c.4.72.82,1.43,1.23,2.14l.18.3c.48-.83,1-1.63,1.41-2.44a.45.45,0,0,1,.47-.27h4.88L11.46,19.17l-1.09-1.88L4.86,7.75a1.24,1.24,0,0,0-.17-.23Z"/><path class="cls-2" d="M11.46,23a11,11,0,1,1,11-11A11,11,0,0,1,11.46,23Zm0-21.39A10.36,10.36,0,1,0,21.82,12,10.37,10.37,0,0,0,11.46,1.61Z"/></svg>