<svg id="Layer_1" data-name="Layer 1" xmlns="http://www.w3.org/2000/svg" xmlns:xlink="http://www.w3.org/1999/xlink" viewBox="0 0 24 24"><defs><style>.cls-1{fill:url(#linear-gradient);}.cls-2{fill:url(#linear-gradient-2);}.cls-3{fill:url(#linear-gradient-3);}.cls-4{fill:url(#linear-gradient-4);}.cls-5{fill:url(#linear-gradient-5);}.cls-6{fill:url(#linear-gradient-6);}.cls-7{fill:url(#linear-gradient-7);}.cls-8{fill:url(#linear-gradient-8);}.cls-9{fill:url(#linear-gradient-9);}.cls-10{fill:url(#linear-gradient-10);}.cls-11{fill:url(#linear-gradient-11);}.cls-12{fill:url(#linear-gradient-12);}.cls-13{fill:url(#linear-gradient-13);}.cls-14{fill:#fff;}</style><linearGradient id="linear-gradient" x1="6.09" y1="11.03" x2="7.31" y2="11.03" gradientUnits="userSpaceOnUse"><stop offset="0" stop-color="#283376"/><stop offset="1" stop-color="#1c67a6"/></linearGradient><linearGradient id="linear-gradient-2" x1="4.54" y1="13.93" x2="5.53" y2="13.93" xlink:href="#linear-gradient"/><linearGradient id="linear-gradient-3" x1="3.66" y1="10.75" x2="5.65" y2="10.75" xlink:href="#linear-gradient"/><linearGradient id="linear-gradient-4" x1="4.52" y1="9.53" x2="5.61" y2="9.53" xlink:href="#linear-gradient"/><linearGradient id="linear-gradient-5" x1="7.8" y1="9.52" x2="8.69" y2="9.52" xlink:href="#linear-gradient"/><linearGradient id="linear-gradient-6" x1="5.87" y1="9.47" x2="7.52" y2="9.47" xlink:href="#linear-gradient"/><linearGradient id="linear-gradient-7" x1="6.01" y1="12.46" x2="7.38" y2="12.46" xlink:href="#linear-gradient"/><linearGradient id="linear-gradient-8" x1="5.72" y1="14.02" x2="7.66" y2="14.02" xlink:href="#linear-gradient"/><linearGradient id="linear-gradient-9" x1="3.66" y1="12.71" x2="5.66" y2="12.71" xlink:href="#linear-gradient"/><linearGradient id="linear-gradient-10" x1="1.76" y1="12.22" x2="22" y2="12.22" xlink:href="#linear-gradient"/><linearGradient id="linear-gradient-11" x1="7.76" y1="10.76" x2="9.57" y2="10.76" xlink:href="#linear-gradient"/><linearGradient id="linear-gradient-12" x1="7.89" y1="13.95" x2="8.69" y2="13.95" xlink:href="#linear-gradient"/><linearGradient id="linear-gradient-13" x1="7.74" y1="12.74" x2="9.56" y2="12.74" xlink:href="#linear-gradient"/></defs><path class="cls-1" d="M6.09,10.55v1H7.31v-1Z"/><path class="cls-2" d="M4.54,13.87l.77.55.22-1-1,.38Z"/><path class="cls-3" d="M5.65,10.94c0-.43,0-.42-.42-.55s-.67-.26-1-.39a2.87,2.87,0,0,0-.56,1.51h2C5.65,11.3,5.66,11.12,5.65,10.94Z"/><path class="cls-4" d="M5.61,10.09,5.46,9l-.94.64v.08Z"/><path class="cls-5" d="M8.69,9.59l-.77-.54L7.8,10l.89-.34Z"/><path class="cls-6" d="M7.25,10.1A.16.16,0,0,0,7.37,10c.06-.35.1-.7.15-1.08a2.74,2.74,0,0,0-1.65,0L6,10.17Z"/><path class="cls-7" d="M6,13H7.38l-.06-1H6.08Z"/><path class="cls-8" d="M7.37,13.43A3.53,3.53,0,0,0,6,13.4l-.24,1.16a2.93,2.93,0,0,0,1.94-.06c-.06-.32-.12-.64-.19-.95A.18.18,0,0,0,7.37,13.43Z"/><path class="cls-9" d="M4.22,13.47,5.47,13s.11-.07.11-.11c0-.32,0-.65.08-1h-2A2.92,2.92,0,0,0,4.22,13.47Z"/><path class="cls-10" d="M18.08,2.1H5.67A3.92,3.92,0,0,0,1.76,6V18.43a3.93,3.93,0,0,0,3.91,3.92H18.08A3.93,3.93,0,0,0,22,18.43V6A3.93,3.93,0,0,0,18.08,2.1Zm-11.46,13A3.39,3.39,0,1,1,10,11.73,3.4,3.4,0,0,1,6.62,15.12Z"/><path class="cls-11" d="M8.86,10l-1,.37c-.05,0-.13.08-.13.13,0,.33,0,.65,0,1H9.57a3.07,3.07,0,0,0-.47-1.4C9,10,9,10,8.86,10Z"/><path class="cls-12" d="M8.06,14.34l.63-.47-.8-.32Z"/><path class="cls-13" d="M7.81,13a.21.21,0,0,0,.1.14l1.05.4A2.66,2.66,0,0,0,9.56,12H7.74C7.76,12.3,7.78,12.64,7.81,13Z"/><path class="cls-14" d="M15,11.46V12.6a2.39,2.39,0,0,1-.26,1.13,1.83,1.83,0,0,1-.74.77,2.33,2.33,0,0,1-1.11.26,2.4,2.4,0,0,1-1.12-.25A1.9,1.9,0,0,1,11,13.8a2.21,2.21,0,0,1-.26-1.08V11A2.41,2.41,0,0,1,11,9.88a1.81,1.81,0,0,1,.74-.76,2.23,2.23,0,0,1,1.11-.27,2.17,2.17,0,0,1,.95.21,2.09,2.09,0,0,1,.74.61,2.29,2.29,0,0,1,.39.9H13.78a.72.72,0,0,0-.2-.32,1,1,0,0,0-.32-.2,1,1,0,0,0-.38-.07.92.92,0,0,0-.51.13.87.87,0,0,0-.35.36,1.19,1.19,0,0,0-.12.54v1.71a.92.92,0,0,0,.12.48.8.8,0,0,0,.36.32,1.23,1.23,0,0,0,1,0,.82.82,0,0,0,.34-.35,1.2,1.2,0,0,0,.12-.55v-.09H13V11.46Z"/><path class="cls-14" d="M16.09,8.91h1.09v5.8H16.09Zm.48,4.74H20v1.06h-3.4Z"/></svg>