<svg width="87" height="16" viewBox="0 0 87 16" fill="none" xmlns="http://www.w3.org/2000/svg">
<g clip-path="url(#clip0_2583_18790)">
<path d="M32.9083 4.10945C32.9083 6.65028 32.9083 9.16832 32.9083 11.6921C33.3904 11.6921 33.8607 11.6921 34.3532 11.6921C34.3532 9.99153 34.3532 8.30097 34.3532 6.5748C34.4125 6.63746 34.4451 6.6688 34.4733 6.70298C35.8589 8.33515 37.2444 9.96732 38.63 11.5981C38.6641 11.6394 38.716 11.6949 38.7605 11.6963C39.1432 11.7035 39.526 11.7006 39.9235 11.7006C39.9235 11.6152 39.9235 11.5539 39.9235 11.4927C39.9235 9.10281 39.9235 6.71295 39.9235 4.32167C39.9235 4.29318 39.9206 4.2647 39.9235 4.23621C39.9324 4.14079 39.8909 4.10233 39.79 4.10518C39.6357 4.10945 39.4815 4.10661 39.3272 4.10661C39.0498 4.10661 38.7724 4.10661 38.4668 4.10661C38.4668 5.81711 38.4668 7.50625 38.4668 9.19396C38.3733 9.14269 38.3184 9.08429 38.268 9.02305C36.9091 7.42222 35.5503 5.81996 34.19 4.21912C34.1514 4.17355 34.0936 4.11373 34.0431 4.1123C33.6678 4.10518 33.2895 4.10945 32.9083 4.10945ZM69.8091 4.11658C69.8091 4.2063 69.8091 4.27324 69.8091 4.3416C69.8091 5.70174 69.8121 7.06189 69.8062 8.42203C69.8047 8.66557 69.781 8.91196 69.7305 9.14981C69.5866 9.82204 69.2143 10.3248 68.4874 10.4986C68.2204 10.5626 67.9355 10.5854 67.6611 10.5797C66.731 10.5598 66.1079 10.0926 65.8973 9.25235C65.8261 8.96751 65.792 8.66842 65.789 8.37503C65.7771 7.03198 65.7845 5.68893 65.7845 4.34588C65.7845 4.27324 65.7845 4.20203 65.7845 4.1237C65.2846 4.1237 64.8099 4.1237 64.3322 4.1237C64.3293 4.17924 64.3248 4.21912 64.3248 4.25757C64.3248 5.6405 64.3204 7.02343 64.3278 8.40636C64.3293 8.69548 64.3575 8.98602 64.402 9.27229C64.5904 10.5014 65.427 11.3987 66.6687 11.6892C67.4594 11.8744 68.2575 11.8701 69.0422 11.6579C69.9456 11.4129 70.5924 10.8717 70.9573 10.0357C71.1635 9.56283 71.2496 9.06293 71.2511 8.55448C71.2585 7.13167 71.254 5.70887 71.2525 4.28606C71.2525 4.23194 71.2466 4.17782 71.2422 4.118C70.7615 4.11658 70.2957 4.11658 69.8091 4.11658ZM18.3438 10.9087C18.4387 10.9757 18.5158 11.0369 18.6004 11.0882C18.7205 11.1608 18.8407 11.2363 18.9698 11.2919C20.1491 11.8145 21.3804 11.947 22.6472 11.6906C23.3103 11.5568 23.8978 11.2634 24.2998 10.7079C24.8175 9.99295 24.7893 8.94899 24.236 8.35651C23.9408 8.04033 23.5774 7.81388 23.1561 7.69424C22.4648 7.4977 21.7631 7.33249 21.0718 7.13167C20.7989 7.05192 20.5304 6.93228 20.2871 6.78701C19.9889 6.60756 19.9103 6.31701 19.9933 5.99371C20.1061 5.5579 20.4488 5.35423 20.8641 5.25596C21.4931 5.10926 22.1266 5.13205 22.7422 5.31293C23.1294 5.42687 23.5017 5.58496 23.8889 5.72596C24.0002 5.46247 24.1203 5.17905 24.2405 4.89421C24.3399 4.66206 24.3443 4.65209 24.104 4.53957C22.8238 3.9357 21.4976 3.82603 20.1372 4.23764C19.5631 4.41139 19.0944 4.74181 18.7843 5.25738C18.3912 5.90968 18.4016 6.99779 19.0143 7.56179C19.3332 7.85661 19.7011 8.06739 20.1224 8.18275C20.8107 8.37218 21.5065 8.53739 22.1903 8.73821C22.4514 8.81511 22.7125 8.93332 22.9306 9.08857C23.3103 9.35917 23.3415 9.88471 22.9959 10.1952C22.8208 10.3519 22.5894 10.4843 22.3595 10.5427C21.4931 10.7649 20.6416 10.6509 19.8213 10.3305C19.486 10.1995 19.1715 10.0157 18.8363 9.85195C18.6775 10.1895 18.5143 10.5427 18.3438 10.9087ZM86.1954 5.76156C86.3392 5.42117 86.4713 5.0993 86.6122 4.78027C86.6508 4.69197 86.6315 4.64354 86.5454 4.60366C86.3852 4.5296 86.2339 4.43845 86.0693 4.37436C85.1881 4.03255 84.2728 3.93427 83.3323 4.03824C82.7849 4.09806 82.2672 4.24903 81.8029 4.54669C80.984 5.07223 80.6309 6.02789 80.9365 6.92943C81.1442 7.54185 81.6278 7.90788 82.2316 8.10442C82.9021 8.32375 83.5993 8.46903 84.2758 8.67127C84.5947 8.76669 84.9226 8.87636 85.197 9.05154C85.6583 9.3435 85.6658 9.90607 85.2563 10.2664C85.0486 10.4487 84.7935 10.5427 84.522 10.5883C83.3753 10.7777 82.3235 10.5342 81.3519 9.94026C81.294 9.90465 81.2391 9.86762 81.1694 9.82347C80.9959 10.1995 80.8312 10.5541 80.6576 10.9287C80.8742 11.0554 81.0656 11.1922 81.2792 11.2876C82.4615 11.8188 83.6987 11.9513 84.9715 11.6921C85.6227 11.5596 86.2013 11.2748 86.6018 10.735C87.3228 9.76223 87.0365 8.48896 85.958 7.90361C85.734 7.78255 85.4863 7.68855 85.237 7.62018C84.5843 7.43788 83.9212 7.28834 83.27 7.09749C83.0208 7.02486 82.7834 6.8924 82.5624 6.75568C82.3621 6.63177 82.2835 6.42525 82.2865 6.1931C82.2909 5.7815 82.5713 5.44538 83.0519 5.29299C83.5296 5.14202 84.0206 5.14629 84.5131 5.20326C85.1095 5.2702 85.6613 5.4696 86.1954 5.76156ZM48.3733 6.41101C48.3377 5.79432 48.3035 5.19614 48.2679 4.55951C48.1033 4.70051 47.9683 4.81587 47.8511 4.91557C47.5826 4.75178 47.3438 4.58088 47.0827 4.45127C46.2861 4.05676 45.4331 3.94567 44.5474 4.02685C43.558 4.118 42.6887 4.46979 41.9766 5.1406C41.1296 5.93959 40.7632 6.92801 40.8047 8.05742C40.8477 9.23669 41.3269 10.218 42.3 10.9529C43.2376 11.6622 44.3264 11.8858 45.4939 11.7932C46.3706 11.7234 47.1687 11.4428 47.8363 10.8717C47.9534 10.772 48.0588 10.6595 48.1745 10.5484C47.8466 10.2507 47.5396 9.97016 47.231 9.69101C45.8959 11.0455 43.8384 10.7093 42.926 9.68674C41.9395 8.57869 42.0894 6.74001 43.245 5.83277C44.3709 4.94975 46.1377 5.12778 46.8468 5.8285C46.7251 5.93817 46.605 6.04926 46.4611 6.17886C47.1079 6.25719 47.7235 6.33268 48.3733 6.41101ZM29.1492 11.6935C29.1492 10.8546 29.1448 10.0357 29.1537 9.21675C29.1551 9.09996 29.1922 8.96893 29.2545 8.86923C30.2084 7.34388 31.1697 5.8228 32.1295 4.3003C32.1636 4.24476 32.1947 4.18779 32.2407 4.10803C31.7957 4.10803 31.3877 4.11373 30.9798 4.10518C30.8492 4.10233 30.781 4.14933 30.7143 4.25473C30.1105 5.21893 29.4993 6.18029 28.8911 7.14164C28.7531 7.35812 28.6152 7.57461 28.4639 7.81103C28.3986 7.70991 28.3481 7.63443 28.2992 7.55752C27.6094 6.45659 26.9181 5.35566 26.2327 4.2533C26.1675 4.14791 26.0963 4.10376 25.9657 4.10661C25.5622 4.11515 25.1587 4.10945 24.7567 4.10945C24.7063 4.10945 24.6573 4.11658 24.5846 4.12227C24.6336 4.20061 24.6692 4.259 24.7048 4.31597C25.6676 5.84274 26.6303 7.36952 27.5871 8.90057C27.6494 9.00169 27.6865 9.13272 27.688 9.25093C27.6969 9.9958 27.6925 10.7421 27.6925 11.487C27.6925 11.5539 27.6925 11.6194 27.6925 11.6949C28.1879 11.6935 28.6582 11.6935 29.1492 11.6935ZM54.7551 10.5142C53.371 10.5142 52.0003 10.5142 50.6148 10.5142C50.6148 8.3736 50.6148 6.25292 50.6148 4.12227C50.1252 4.12227 49.649 4.12227 49.1743 4.12227C49.1743 6.65456 49.1743 9.17117 49.1743 11.6935C51.039 11.6935 52.8919 11.6935 54.7551 11.6935C54.7551 11.3018 54.7551 10.9187 54.7551 10.5142ZM46.8216 6.69586C46.5753 6.53207 46.3721 6.36259 46.1392 6.24865C45.6867 6.02647 45.1972 6.00795 44.7002 6.07917C43.242 6.2871 42.5314 7.94206 43.4438 9.05011C44.0208 9.75083 44.8159 9.88613 45.6897 9.73801C46.0339 9.67962 46.332 9.52153 46.602 9.31217C46.7192 9.40902 46.8231 9.4959 46.9581 9.60841C46.9818 9.13699 47.0026 8.7083 47.0248 8.26536C46.7771 8.29669 46.556 8.32375 46.3335 8.35224C46.1095 8.38072 45.887 8.40921 45.663 8.43769C45.6556 8.45478 45.6496 8.47045 45.6422 8.48754C45.7283 8.55448 45.8143 8.61999 45.9004 8.68693C45.5399 9.03872 44.8367 9.02732 44.4451 8.67839C44.0505 8.3266 44.0223 7.61876 44.3857 7.2157C44.8011 6.7571 45.4509 6.78558 46.114 7.30258C46.3335 7.11601 46.5531 6.92801 46.8216 6.69586ZM79.9204 7.29119C79.8061 6.4751 79.4516 5.76868 78.8226 5.20184C77.9503 4.41282 76.8763 4.12655 75.7118 4.11088C74.6037 4.09521 73.494 4.10661 72.3844 4.10803C72.3236 4.10803 72.2613 4.11515 72.1975 4.11942V11.702H72.4126C73.4866 11.702 74.5592 11.7106 75.6332 11.6978C76.01 11.6935 76.3927 11.6664 76.7621 11.5966C77.9192 11.3787 78.8612 10.8332 79.4634 9.83059C79.9382 9.04157 80.0435 8.18133 79.9204 7.29119ZM77.9503 9.14838C77.575 9.7722 76.9891 10.1112 76.2681 10.2479C76.0382 10.2906 75.8008 10.3077 75.5664 10.3106C74.8974 10.3191 74.2298 10.3134 73.5623 10.3134H73.4288V5.5935C73.4673 5.59208 73.5059 5.58781 73.5445 5.58781C74.2343 5.58638 74.9256 5.57926 75.6154 5.58923C76.3408 5.5992 77.0083 5.77723 77.5513 6.26716C77.9414 6.62037 78.1625 7.06046 78.2337 7.56749C78.3108 8.12294 78.2455 8.65702 77.9503 9.14838ZM63.506 7.54043C63.4229 6.56198 63.0209 5.72738 62.2643 5.06654C61.2259 4.16073 59.9768 3.88015 58.615 4.04252C56.5501 4.28748 55.1704 5.74732 55.0176 7.52476C54.9257 8.61002 55.1942 9.59559 55.9418 10.4288C56.8111 11.3972 57.9475 11.7989 59.2559 11.8046C59.3745 11.8046 59.4932 11.8088 59.6119 11.8031C59.7128 11.7989 59.8122 11.7861 59.913 11.7732C60.9693 11.6408 61.8756 11.2206 62.5758 10.4402C63.3235 9.60699 63.5994 8.62711 63.506 7.54043ZM59.2989 10.6851C57.7294 10.6851 56.4581 9.46456 56.4581 7.95915C56.4581 6.45231 57.7294 5.23175 59.2989 5.23175C60.8669 5.23175 62.1382 6.45231 62.1382 7.95915C62.1382 9.46456 60.8669 10.6851 59.2989 10.6851Z" fill="#273C7F"/>
<path d="M15.5286 4.51378C15.6681 4.20188 15.7971 3.91561 15.9351 3.60797C16.3475 3.77461 16.7525 3.93982 17.1827 4.11358C16.7362 5.12478 16.2941 6.12601 15.8431 7.14576C14.7884 6.71707 13.7455 6.29265 12.6834 5.86111C12.8584 5.46232 13.0305 5.07351 13.2115 4.66333C13.526 4.79009 13.8316 4.91257 14.1594 5.0436C13.3984 3.54531 11.4773 2.03277 9.03408 1.88465C7.49425 1.79208 6.08646 2.16808 4.83443 3.03971C3.58239 3.91134 2.78133 5.08205 2.38228 6.53762C1.92241 6.4308 1.47292 6.32541 1.02344 6.22144C1.42249 4.26454 3.17296 1.7109 6.36535 0.805088C9.76245 -0.157693 13.6891 1.17966 15.5286 4.51378Z" fill="#273C7F"/>
<path d="M14.8019 9.46219C15.2751 9.57328 15.7216 9.67867 16.1681 9.78407C15.6756 11.9802 13.7724 14.457 10.5696 15.2617C7.28672 16.0863 3.44754 14.7632 1.65257 11.4903C1.51312 11.8008 1.38554 12.087 1.24758 12.3933C1.03397 12.3064 0.827766 12.2238 0.62305 12.1397C0.422784 12.0586 0.222518 11.976 0 11.8862C0.448002 10.8708 0.890071 9.86952 1.33956 8.85547C2.39874 9.28701 3.44309 9.71143 4.49931 10.1415C4.32278 10.5403 4.1507 10.932 3.9712 11.3379C3.65671 11.2126 3.35408 11.0901 3.04404 10.9662C3.11228 11.3778 4.12548 12.4873 4.91319 13.0185C5.71129 13.5554 6.59246 13.9058 7.55522 14.0496C9.19295 14.2946 10.7179 13.9955 12.105 13.1225C13.4935 12.248 14.3732 11.0146 14.8019 9.46219Z" fill="#273C7F"/>
<path d="M5.94331 6.77891C5.82315 6.78176 5.11554 6.81024 4.61265 7.37139C4.06674 7.98096 4.2047 8.72868 4.24327 8.90671C4.43167 9.75128 5.18823 10.1657 5.53981 10.3153C5.64513 10.3608 5.75787 10.3822 5.87358 10.3822C7.808 10.3722 9.74243 10.3637 11.6768 10.3537C11.7985 10.3537 11.9172 10.3281 12.0255 10.2768C12.3221 10.1387 12.8725 9.7997 13.0357 9.14313C13.0654 9.0235 13.1959 8.43814 12.8087 7.88696C12.3563 7.24463 11.5849 7.19763 11.4988 7.19478C11.5789 6.32173 11.0419 5.51562 10.2275 5.24501C9.52139 5.01001 8.71439 5.21225 8.18332 5.76058C8.09728 5.71358 7.56769 5.43586 6.95205 5.63525C6.43284 5.80046 6.04715 6.24055 5.94331 6.77891Z" fill="#273C7F"/>
</g>
<defs>
<clipPath id="clip0_2583_18790">
<rect width="87" height="15" fill="white" transform="translate(0 0.5)"/>
</clipPath>
</defs>
</svg>
