<svg width="288" height="570" viewBox="0 0 288 570" fill="none" xmlns="http://www.w3.org/2000/svg">
<g filter="url(#filter0_d_5271_21952)">
<path d="M267.177 451.201L159.568 513.34L51.9854 451.201V326.922L159.568 264.756L267.177 326.922V451.201Z" fill="#EDF2F7"/>
</g>
<path d="M259.138 445.554L160.562 502.499L61.9854 445.554V331.69L160.562 274.745L259.138 331.69V445.554Z" fill="#002680"/>
<path style="mix-blend-mode:color-burn" d="M219.368 446.818L145.105 489.696L70.8408 446.818V361.035L145.105 318.157L219.368 361.035V446.818Z" fill="url(#paint0_radial_5271_21952)" fill-opacity="0.3"/>
<path d="M221.767 424.088L160.376 459.554L98.9854 424.088V353.184L160.376 317.745L221.767 353.184V424.088Z" fill="white"/>
<path d="M68.4074 324.639L62.7822 322.433L152.218 177.639L245.575 318.214L240.031 320.551L152.407 188.629L68.4074 324.639Z" fill="#EDF2F7"/>
<path d="M135.218 4.73087H137.846V17.7449H135.479L129.296 8.78987V17.7449H126.677V4.73087H129.278L135.218 13.3439V4.73087ZM140.757 4.73087C140.823 4.73087 141.006 4.73087 141.306 4.73087C141.612 4.73087 141.969 4.73087 142.377 4.73087C142.791 4.73087 143.202 4.73387 143.61 4.73987C144.024 4.73987 144.369 4.74287 144.645 4.74887C146.223 4.78487 147.51 5.06687 148.506 5.59487C149.502 6.12287 150.231 6.86087 150.693 7.80887C151.161 8.75687 151.395 9.87887 151.395 11.1749C151.395 12.5249 151.149 13.6919 150.657 14.6759C150.165 15.6539 149.412 16.4099 148.398 16.9439C147.39 17.4779 146.109 17.7449 144.555 17.7449H140.757V4.73087ZM143.403 6.85487V15.6209H144.609C145.353 15.6209 146.028 15.4769 146.634 15.1889C147.246 14.9009 147.735 14.4299 148.101 13.7759C148.467 13.1219 148.65 12.2489 148.65 11.1569C148.65 10.1429 148.488 9.32087 148.164 8.69087C147.84 8.05487 147.378 7.58987 146.778 7.29587C146.178 7.00187 145.467 6.85487 144.645 6.85487H143.403ZM152.169 17.7449L156.831 4.73087H159.603L164.256 17.7449H161.637L160.575 14.7299H155.895L154.806 17.7449H152.169ZM156.48 12.4349H159.945L158.226 7.26887L156.48 12.4349Z" fill="#002680"/>
<path d="M48.6734 44.5929V55.7449H47.2174V44.5929H48.6734ZM55.4269 46.8169C56.4935 46.8169 57.3575 47.1422 58.0189 47.7929C58.6802 48.4329 59.0109 49.3609 59.0109 50.5769V55.7449H57.5709V50.7849C57.5709 49.9102 57.3522 49.2435 56.9149 48.7849C56.4775 48.3155 55.8802 48.0809 55.1229 48.0809C54.3549 48.0809 53.7415 48.3209 53.2829 48.8009C52.8349 49.2809 52.6109 49.9795 52.6109 50.8969V55.7449H51.1549V46.9769H52.6109V48.2249C52.8989 47.7769 53.2882 47.4302 53.7789 47.1849C54.2802 46.9395 54.8295 46.8169 55.4269 46.8169ZM67.4309 48.1769V53.3449C67.4309 53.7715 67.5215 54.0755 67.7029 54.2569C67.8842 54.4275 68.1989 54.5129 68.6469 54.5129H69.7189V55.7449H68.4069C67.5962 55.7449 66.9882 55.5582 66.5829 55.1849C66.1775 54.8115 65.9749 54.1982 65.9749 53.3449V48.1769H64.8389V46.9769H65.9749V44.7689H67.4309V46.9769H69.7189V48.1769H67.4309ZM75.835 46.8169C76.4963 46.8169 77.0936 46.9609 77.627 47.2489C78.1603 47.5262 78.5763 47.9475 78.875 48.5129C79.1843 49.0782 79.339 49.7662 79.339 50.5769V55.7449H77.899V50.7849C77.899 49.9102 77.6803 49.2435 77.243 48.7849C76.8056 48.3155 76.2083 48.0809 75.451 48.0809C74.683 48.0809 74.0696 48.3209 73.611 48.8009C73.163 49.2809 72.939 49.9795 72.939 50.8969V55.7449H71.483V43.9049H72.939V48.2249C73.227 47.7769 73.6216 47.4302 74.123 47.1849C74.635 46.9395 75.2056 46.8169 75.835 46.8169ZM89.7174 51.0249C89.7174 51.3022 89.7014 51.5955 89.6694 51.9049H82.6614C82.7147 52.7689 83.008 53.4462 83.5414 53.9369C84.0854 54.4169 84.7414 54.6569 85.5094 54.6569C86.1387 54.6569 86.6614 54.5129 87.0774 54.2249C87.504 53.9262 87.8027 53.5315 87.9734 53.0409H89.5414C89.3067 53.8835 88.8374 54.5715 88.1334 55.1049C87.4294 55.6275 86.5547 55.8889 85.5094 55.8889C84.6774 55.8889 83.9307 55.7022 83.2694 55.3289C82.6187 54.9555 82.1067 54.4275 81.7334 53.7449C81.36 53.0515 81.1734 52.2515 81.1734 51.3449C81.1734 50.4382 81.3547 49.6435 81.7174 48.9609C82.08 48.2782 82.5867 47.7555 83.2374 47.3929C83.8987 47.0195 84.656 46.8329 85.5094 46.8329C86.3414 46.8329 87.0774 47.0142 87.7174 47.3769C88.3574 47.7395 88.848 48.2409 89.1894 48.8809C89.5414 49.5102 89.7174 50.2249 89.7174 51.0249ZM88.2134 50.7209C88.2134 50.1662 88.0907 49.6915 87.8454 49.2969C87.6 48.8915 87.264 48.5875 86.8374 48.3849C86.4214 48.1715 85.9574 48.0649 85.4454 48.0649C84.7094 48.0649 84.08 48.2995 83.5574 48.7689C83.0454 49.2382 82.752 49.8889 82.6774 50.7209H88.2134ZM96.6569 45.5529C96.3795 45.5529 96.1449 45.4569 95.9529 45.2649C95.7609 45.0729 95.6649 44.8382 95.6649 44.5609C95.6649 44.2835 95.7609 44.0489 95.9529 43.8569C96.1449 43.6649 96.3795 43.5689 96.6569 43.5689C96.9235 43.5689 97.1475 43.6649 97.3289 43.8569C97.5209 44.0489 97.6169 44.2835 97.6169 44.5609C97.6169 44.8382 97.5209 45.0729 97.3289 45.2649C97.1475 45.4569 96.9235 45.5529 96.6569 45.5529ZM97.3609 46.9769V55.7449H95.9049V46.9769H97.3609ZM104.114 46.8169C105.181 46.8169 106.045 47.1422 106.706 47.7929C107.368 48.4329 107.698 49.3609 107.698 50.5769V55.7449H106.258V50.7849C106.258 49.9102 106.04 49.2435 105.602 48.7849C105.165 48.3155 104.568 48.0809 103.81 48.0809C103.042 48.0809 102.429 48.3209 101.97 48.8009C101.522 49.2809 101.298 49.9795 101.298 50.8969V55.7449H99.8424V46.9769H101.298V48.2249C101.586 47.7769 101.976 47.4302 102.466 47.1849C102.968 46.9395 103.517 46.8169 104.114 46.8169ZM111.853 48.1769V53.3449C111.853 53.7715 111.943 54.0755 112.125 54.2569C112.306 54.4275 112.621 54.5129 113.069 54.5129H114.141V55.7449H112.829C112.018 55.7449 111.41 55.5582 111.005 55.1849C110.599 54.8115 110.397 54.1982 110.397 53.3449V48.1769H109.261V46.9769H110.397V44.7689H111.853V46.9769H114.141V48.1769H111.853ZM123.905 51.0249C123.905 51.3022 123.889 51.5955 123.857 51.9049H116.849C116.902 52.7689 117.196 53.4462 117.729 53.9369C118.273 54.4169 118.929 54.6569 119.697 54.6569C120.326 54.6569 120.849 54.5129 121.265 54.2249C121.692 53.9262 121.99 53.5315 122.161 53.0409H123.729C123.494 53.8835 123.025 54.5715 122.321 55.1049C121.617 55.6275 120.742 55.8889 119.697 55.8889C118.865 55.8889 118.118 55.7022 117.457 55.3289C116.806 54.9555 116.294 54.4275 115.921 53.7449C115.548 53.0515 115.361 52.2515 115.361 51.3449C115.361 50.4382 115.542 49.6435 115.905 48.9609C116.268 48.2782 116.774 47.7555 117.425 47.3929C118.086 47.0195 118.844 46.8329 119.697 46.8329C120.529 46.8329 121.265 47.0142 121.905 47.3769C122.545 47.7395 123.036 48.2409 123.377 48.8809C123.729 49.5102 123.905 50.2249 123.905 51.0249ZM122.401 50.7209C122.401 50.1662 122.278 49.6915 122.033 49.2969C121.788 48.8915 121.452 48.5875 121.025 48.3849C120.609 48.1715 120.145 48.0649 119.633 48.0649C118.897 48.0649 118.268 48.2995 117.745 48.7689C117.233 49.2382 116.94 49.8889 116.865 50.7209H122.401ZM127.283 48.4009C127.539 47.8995 127.901 47.5102 128.371 47.2329C128.851 46.9555 129.432 46.8169 130.115 46.8169V48.3209H129.731C128.099 48.3209 127.283 49.2062 127.283 50.9769V55.7449H125.827V46.9769H127.283V48.4009ZM132.547 45.5529C132.27 45.5529 132.035 45.4569 131.843 45.2649C131.651 45.0729 131.555 44.8382 131.555 44.5609C131.555 44.2835 131.651 44.0489 131.843 43.8569C132.035 43.6649 132.27 43.5689 132.547 43.5689C132.814 43.5689 133.038 43.6649 133.219 43.8569C133.411 44.0489 133.507 44.2835 133.507 44.5609C133.507 44.8382 133.411 45.0729 133.219 45.2649C133.038 45.4569 132.814 45.5529 132.547 45.5529ZM133.251 46.9769V55.7449H131.795V46.9769H133.251ZM146.277 46.8169C146.96 46.8169 147.568 46.9609 148.101 47.2489C148.634 47.5262 149.056 47.9475 149.365 48.5129C149.674 49.0782 149.829 49.7662 149.829 50.5769V55.7449H148.389V50.7849C148.389 49.9102 148.17 49.2435 147.733 48.7849C147.306 48.3155 146.725 48.0809 145.989 48.0809C145.232 48.0809 144.629 48.3262 144.181 48.8169C143.733 49.2969 143.509 49.9955 143.509 50.9129V55.7449H142.069V50.7849C142.069 49.9102 141.85 49.2435 141.413 48.7849C140.986 48.3155 140.405 48.0809 139.669 48.0809C138.912 48.0809 138.309 48.3262 137.861 48.8169C137.413 49.2969 137.189 49.9955 137.189 50.9129V55.7449H135.733V46.9769H137.189V48.2409C137.477 47.7822 137.861 47.4302 138.341 47.1849C138.832 46.9395 139.37 46.8169 139.957 46.8169C140.693 46.8169 141.344 46.9822 141.909 47.3129C142.474 47.6435 142.896 48.1289 143.173 48.7689C143.418 48.1502 143.824 47.6702 144.389 47.3289C144.954 46.9875 145.584 46.8169 146.277 46.8169ZM153.721 53.7289L151.929 58.0329H150.953L152.121 53.7289H153.721ZM171.335 46.9769L168.599 55.7449H167.095L164.983 48.7849L162.871 55.7449H161.367L158.615 46.9769H160.103L162.119 54.3369L164.295 46.9769H165.783L167.911 54.3529L169.895 46.9769H171.335ZM180.78 51.0249C180.78 51.3022 180.764 51.5955 180.732 51.9049H173.724C173.777 52.7689 174.071 53.4462 174.604 53.9369C175.148 54.4169 175.804 54.6569 176.572 54.6569C177.201 54.6569 177.724 54.5129 178.14 54.2249C178.567 53.9262 178.865 53.5315 179.036 53.0409H180.604C180.369 53.8835 179.9 54.5715 179.196 55.1049C178.492 55.6275 177.617 55.8889 176.572 55.8889C175.74 55.8889 174.993 55.7022 174.332 55.3289C173.681 54.9555 173.169 54.4275 172.796 53.7449C172.423 53.0515 172.236 52.2515 172.236 51.3449C172.236 50.4382 172.417 49.6435 172.78 48.9609C173.143 48.2782 173.649 47.7555 174.3 47.3929C174.961 47.0195 175.719 46.8329 176.572 46.8329C177.404 46.8329 178.14 47.0142 178.78 47.3769C179.42 47.7395 179.911 48.2409 180.252 48.8809C180.604 49.5102 180.78 50.2249 180.78 51.0249ZM179.276 50.7209C179.276 50.1662 179.153 49.6915 178.908 49.2969C178.663 48.8915 178.327 48.5875 177.9 48.3849C177.484 48.1715 177.02 48.0649 176.508 48.0649C175.772 48.0649 175.143 48.2995 174.62 48.7689C174.108 49.2382 173.815 49.8889 173.74 50.7209H179.276ZM186.423 51.3289C186.423 50.4329 186.605 49.6489 186.967 48.9769C187.33 48.2942 187.826 47.7662 188.455 47.3929C189.095 47.0195 189.805 46.8329 190.583 46.8329C191.351 46.8329 192.018 46.9982 192.583 47.3289C193.149 47.6595 193.57 48.0755 193.847 48.5769V46.9769H195.319V55.7449H193.847V54.1129C193.559 54.6249 193.127 55.0515 192.551 55.3929C191.986 55.7235 191.325 55.8889 190.567 55.8889C189.789 55.8889 189.085 55.6969 188.455 55.3129C187.826 54.9289 187.33 54.3902 186.967 53.6969C186.605 53.0035 186.423 52.2142 186.423 51.3289ZM193.847 51.3449C193.847 50.6835 193.714 50.1075 193.447 49.6169C193.181 49.1262 192.818 48.7529 192.359 48.4969C191.911 48.2302 191.415 48.0969 190.871 48.0969C190.327 48.0969 189.831 48.2249 189.383 48.4809C188.935 48.7369 188.578 49.1102 188.311 49.6009C188.045 50.0915 187.911 50.6675 187.911 51.3289C187.911 52.0009 188.045 52.5875 188.311 53.0889C188.578 53.5795 188.935 53.9582 189.383 54.2249C189.831 54.4809 190.327 54.6089 190.871 54.6089C191.415 54.6089 191.911 54.4809 192.359 54.2249C192.818 53.9582 193.181 53.5795 193.447 53.0889C193.714 52.5875 193.847 52.0062 193.847 51.3449ZM201.348 48.1769H199.508V55.7449H198.052V48.1769H196.916V46.9769H198.052V46.3529C198.052 45.3715 198.303 44.6569 198.804 44.2089C199.316 43.7502 200.132 43.5209 201.252 43.5209V44.7369C200.612 44.7369 200.159 44.8649 199.892 45.1209C199.636 45.3662 199.508 45.7769 199.508 46.3529V46.9769H201.348V48.1769ZM206.613 48.1769H204.773V55.7449H203.317V48.1769H202.181V46.9769H203.317V46.3529C203.317 45.3715 203.568 44.6569 204.069 44.2089C204.581 43.7502 205.397 43.5209 206.517 43.5209V44.7369C205.877 44.7369 205.424 44.8649 205.157 45.1209C204.901 45.3662 204.773 45.7769 204.773 46.3529V46.9769H206.613V48.1769ZM209.063 45.5529C208.786 45.5529 208.551 45.4569 208.359 45.2649C208.167 45.0729 208.071 44.8382 208.071 44.5609C208.071 44.2835 208.167 44.0489 208.359 43.8569C208.551 43.6649 208.786 43.5689 209.063 43.5689C209.33 43.5689 209.554 43.6649 209.735 43.8569C209.927 44.0489 210.023 44.2835 210.023 44.5609C210.023 44.8382 209.927 45.0729 209.735 45.2649C209.554 45.4569 209.33 45.5529 209.063 45.5529ZM209.767 46.9769V55.7449H208.311V46.9769H209.767ZM216.825 55.7449L214.745 52.4809L212.745 55.7449H211.225L214.057 51.3929L211.225 46.9769H212.873L214.953 50.2249L216.937 46.9769H218.457L215.641 51.3129L218.473 55.7449H216.825ZM223.626 51.3289C223.626 50.4329 223.808 49.6489 224.17 48.9769C224.533 48.2942 225.029 47.7662 225.658 47.3929C226.298 47.0195 227.008 46.8329 227.786 46.8329C228.554 46.8329 229.221 46.9982 229.786 47.3289C230.352 47.6595 230.773 48.0755 231.05 48.5769V46.9769H232.522V55.7449H231.05V54.1129C230.762 54.6249 230.33 55.0515 229.754 55.3929C229.189 55.7235 228.528 55.8889 227.77 55.8889C226.992 55.8889 226.288 55.6969 225.658 55.3129C225.029 54.9289 224.533 54.3902 224.17 53.6969C223.808 53.0035 223.626 52.2142 223.626 51.3289ZM231.05 51.3449C231.05 50.6835 230.917 50.1075 230.65 49.6169C230.384 49.1262 230.021 48.7529 229.562 48.4969C229.114 48.2302 228.618 48.0969 228.074 48.0969C227.53 48.0969 227.034 48.2249 226.586 48.4809C226.138 48.7369 225.781 49.1102 225.514 49.6009C225.248 50.0915 225.114 50.6675 225.114 51.3289C225.114 52.0009 225.248 52.5875 225.514 53.0889C225.781 53.5795 226.138 53.9582 226.586 54.2249C227.034 54.4809 227.53 54.6089 228.074 54.6089C228.618 54.6089 229.114 54.4809 229.562 54.2249C230.021 53.9582 230.384 53.5795 230.65 53.0889C230.917 52.5875 231.05 52.0062 231.05 51.3449ZM239.255 46.8169C240.322 46.8169 241.186 47.1422 241.847 47.7929C242.508 48.4329 242.839 49.3609 242.839 50.5769V55.7449H241.399V50.7849C241.399 49.9102 241.18 49.2435 240.743 48.7849C240.306 48.3155 239.708 48.0809 238.951 48.0809C238.183 48.0809 237.57 48.3209 237.111 48.8009C236.663 49.2809 236.439 49.9795 236.439 50.8969V55.7449H234.983V46.9769H236.439V48.2249C236.727 47.7769 237.116 47.4302 237.607 47.1849C238.108 46.9395 238.658 46.8169 239.255 46.8169ZM51.7744 79.7449H50.3184L44.4624 70.8649V79.7449H43.0064V68.5769H44.4624L50.3184 77.4409V68.5769H51.7744V79.7449ZM57.7284 68.5929C58.9444 68.5929 59.9951 68.8222 60.8804 69.2809C61.7764 69.7289 62.4591 70.3742 62.9284 71.2169C63.4084 72.0595 63.6484 73.0515 63.6484 74.1929C63.6484 75.3342 63.4084 76.3262 62.9284 77.1689C62.4591 78.0009 61.7764 78.6409 60.8804 79.0889C59.9951 79.5262 58.9444 79.7449 57.7284 79.7449H54.2564V68.5929H57.7284ZM57.7284 78.5449C59.1684 78.5449 60.2671 78.1662 61.0244 77.4089C61.7817 76.6409 62.1604 75.5689 62.1604 74.1929C62.1604 72.8062 61.7764 71.7235 61.0084 70.9449C60.2511 70.1662 59.1577 69.7769 57.7284 69.7769H55.7124V78.5449H57.7284ZM72.1609 77.2649H67.2969L66.4009 79.7449H64.8649L68.8969 68.6569H70.5769L74.5929 79.7449H73.0569L72.1609 77.2649ZM71.7449 76.0809L69.7289 70.4489L67.7129 76.0809H71.7449ZM82.3918 72.1769V77.3449C82.3918 77.7715 82.4825 78.0755 82.6638 78.2569C82.8451 78.4275 83.1598 78.5129 83.6078 78.5129H84.6798V79.7449H83.3678C82.5571 79.7449 81.9491 79.5582 81.5438 79.1849C81.1385 78.8115 80.9358 78.1982 80.9358 77.3449V72.1769H79.7998V70.9769H80.9358V68.7689H82.3918V70.9769H84.6798V72.1769H82.3918ZM90.2679 79.8889C89.4466 79.8889 88.6999 79.7022 88.0279 79.3289C87.3666 78.9555 86.8439 78.4275 86.4599 77.7449C86.0866 77.0515 85.8999 76.2515 85.8999 75.3449C85.8999 74.4489 86.0919 73.6595 86.4759 72.9769C86.8706 72.2835 87.4039 71.7555 88.0759 71.3929C88.7479 71.0195 89.4999 70.8329 90.3319 70.8329C91.1639 70.8329 91.9159 71.0195 92.5879 71.3929C93.2599 71.7555 93.7879 72.2782 94.1719 72.9609C94.5666 73.6435 94.7639 74.4382 94.7639 75.3449C94.7639 76.2515 94.5612 77.0515 94.1559 77.7449C93.7612 78.4275 93.2226 78.9555 92.5399 79.3289C91.8572 79.7022 91.0999 79.8889 90.2679 79.8889ZM90.2679 78.6089C90.7906 78.6089 91.2812 78.4862 91.7399 78.2409C92.1986 77.9955 92.5666 77.6275 92.8439 77.1369C93.1319 76.6462 93.2759 76.0489 93.2759 75.3449C93.2759 74.6409 93.1372 74.0435 92.8599 73.5529C92.5826 73.0622 92.2199 72.6995 91.7719 72.4649C91.3239 72.2195 90.8386 72.0969 90.3159 72.0969C89.7826 72.0969 89.2919 72.2195 88.8439 72.4649C88.4066 72.6995 88.0546 73.0622 87.7879 73.5529C87.5212 74.0435 87.3879 74.6409 87.3879 75.3449C87.3879 76.0595 87.5159 76.6622 87.7719 77.1529C88.0386 77.6435 88.3906 78.0115 88.8279 78.2569C89.2652 78.4915 89.7452 78.6089 90.2679 78.6089ZM108.944 75.0249C108.944 75.3022 108.928 75.5955 108.896 75.9049H101.888C101.941 76.7689 102.235 77.4462 102.768 77.9369C103.312 78.4169 103.968 78.6569 104.736 78.6569C105.365 78.6569 105.888 78.5129 106.304 78.2249C106.731 77.9262 107.029 77.5315 107.2 77.0409H108.768C108.533 77.8835 108.064 78.5715 107.36 79.1049C106.656 79.6275 105.781 79.8889 104.736 79.8889C103.904 79.8889 103.157 79.7022 102.496 79.3289C101.845 78.9555 101.333 78.4275 100.96 77.7449C100.587 77.0515 100.4 76.2515 100.4 75.3449C100.4 74.4382 100.581 73.6435 100.944 72.9609C101.307 72.2782 101.813 71.7555 102.464 71.3929C103.125 71.0195 103.883 70.8329 104.736 70.8329C105.568 70.8329 106.304 71.0142 106.944 71.3769C107.584 71.7395 108.075 72.2409 108.416 72.8809C108.768 73.5102 108.944 74.2249 108.944 75.0249ZM107.44 74.7209C107.44 74.1662 107.317 73.6915 107.072 73.2969C106.827 72.8915 106.491 72.5875 106.064 72.3849C105.648 72.1715 105.184 72.0649 104.672 72.0649C103.936 72.0649 103.307 72.2995 102.784 72.7689C102.272 73.2382 101.979 73.8889 101.904 74.7209H107.44ZM115.138 70.8169C116.204 70.8169 117.068 71.1422 117.73 71.7929C118.391 72.4329 118.722 73.3609 118.722 74.5769V79.7449H117.282V74.7849C117.282 73.9102 117.063 73.2435 116.626 72.7849C116.188 72.3155 115.591 72.0809 114.834 72.0809C114.066 72.0809 113.452 72.3209 112.994 72.8009C112.546 73.2809 112.322 73.9795 112.322 74.8969V79.7449H110.866V70.9769H112.322V72.2249C112.61 71.7769 112.999 71.4302 113.49 71.1849C113.991 70.9395 114.54 70.8169 115.138 70.8169ZM124.204 79.8889C123.532 79.8889 122.929 79.7769 122.396 79.5529C121.863 79.3182 121.441 78.9982 121.132 78.5929C120.823 78.1769 120.652 77.7022 120.62 77.1689H122.124C122.167 77.6062 122.369 77.9635 122.732 78.2409C123.105 78.5182 123.591 78.6569 124.188 78.6569C124.743 78.6569 125.18 78.5342 125.5 78.2889C125.82 78.0435 125.98 77.7342 125.98 77.3609C125.98 76.9769 125.809 76.6942 125.468 76.5129C125.127 76.3209 124.599 76.1342 123.884 75.9529C123.233 75.7822 122.7 75.6115 122.284 75.4409C121.879 75.2595 121.527 74.9982 121.228 74.6569C120.94 74.3049 120.796 73.8462 120.796 73.2809C120.796 72.8329 120.929 72.4222 121.196 72.0489C121.463 71.6755 121.841 71.3822 122.332 71.1689C122.823 70.9449 123.383 70.8329 124.012 70.8329C124.983 70.8329 125.767 71.0782 126.364 71.5689C126.961 72.0595 127.281 72.7315 127.324 73.5849H125.868C125.836 73.1262 125.649 72.7582 125.308 72.4809C124.977 72.2035 124.529 72.0649 123.964 72.0649C123.441 72.0649 123.025 72.1769 122.716 72.4009C122.407 72.6249 122.252 72.9182 122.252 73.2809C122.252 73.5689 122.343 73.8089 122.524 74.0009C122.716 74.1822 122.951 74.3315 123.228 74.4489C123.516 74.5555 123.911 74.6782 124.412 74.8169C125.041 74.9875 125.553 75.1582 125.948 75.3289C126.343 75.4889 126.679 75.7342 126.956 76.0649C127.244 76.3955 127.393 76.8275 127.404 77.3609C127.404 77.8409 127.271 78.2729 127.004 78.6569C126.737 79.0409 126.359 79.3449 125.868 79.5689C125.388 79.7822 124.833 79.8889 124.204 79.8889ZM137.236 70.9769V79.7449H135.78V78.4489C135.502 78.8969 135.113 79.2489 134.612 79.5049C134.121 79.7502 133.577 79.8729 132.98 79.8729C132.297 79.8729 131.684 79.7342 131.14 79.4569C130.596 79.1689 130.164 78.7422 129.844 78.1769C129.534 77.6115 129.38 76.9235 129.38 76.1129V70.9769H130.82V75.9209C130.82 76.7849 131.038 77.4515 131.476 77.9209C131.913 78.3795 132.51 78.6089 133.268 78.6089C134.046 78.6089 134.66 78.3689 135.108 77.8889C135.556 77.4089 135.78 76.7102 135.78 75.7929V70.9769H137.236ZM141.15 72.4009C141.406 71.8995 141.769 71.5102 142.238 71.2329C142.718 70.9555 143.299 70.8169 143.982 70.8169V72.3209H143.598C141.966 72.3209 141.15 73.2062 141.15 74.9769V79.7449H139.694V70.9769H141.15V72.4009ZM153.663 75.0249C153.663 75.3022 153.647 75.5955 153.615 75.9049H146.607C146.66 76.7689 146.953 77.4462 147.487 77.9369C148.031 78.4169 148.687 78.6569 149.455 78.6569C150.084 78.6569 150.607 78.5129 151.023 78.2249C151.449 77.9262 151.748 77.5315 151.919 77.0409H153.487C153.252 77.8835 152.783 78.5715 152.079 79.1049C151.375 79.6275 150.5 79.8889 149.455 79.8889C148.623 79.8889 147.876 79.7022 147.215 79.3289C146.564 78.9555 146.052 78.4275 145.679 77.7449C145.305 77.0515 145.119 76.2515 145.119 75.3449C145.119 74.4382 145.3 73.6435 145.663 72.9609C146.025 72.2782 146.532 71.7555 147.183 71.3929C147.844 71.0195 148.601 70.8329 149.455 70.8329C150.287 70.8329 151.023 71.0142 151.663 71.3769C152.303 71.7395 152.793 72.2409 153.135 72.8809C153.487 73.5102 153.663 74.2249 153.663 75.0249ZM152.159 74.7209C152.159 74.1662 152.036 73.6915 151.791 73.2969C151.545 72.8915 151.209 72.5875 150.783 72.3849C150.367 72.1715 149.903 72.0649 149.391 72.0649C148.655 72.0649 148.025 72.2995 147.503 72.7689C146.991 73.2382 146.697 73.8889 146.623 74.7209H152.159ZM161.626 72.1769V77.3449C161.626 77.7715 161.717 78.0755 161.898 78.2569C162.079 78.4275 162.394 78.5129 162.842 78.5129H163.914V79.7449H162.602C161.791 79.7449 161.183 79.5582 160.778 79.1849C160.373 78.8115 160.17 78.1982 160.17 77.3449V72.1769H159.034V70.9769H160.17V68.7689H161.626V70.9769H163.914V72.1769H161.626ZM170.03 70.8169C170.692 70.8169 171.289 70.9609 171.822 71.2489C172.356 71.5262 172.772 71.9475 173.07 72.5129C173.38 73.0782 173.534 73.7662 173.534 74.5769V79.7449H172.094V74.7849C172.094 73.9102 171.876 73.2435 171.438 72.7849C171.001 72.3155 170.404 72.0809 169.646 72.0809C168.878 72.0809 168.265 72.3209 167.806 72.8009C167.358 73.2809 167.134 73.9795 167.134 74.8969V79.7449H165.678V67.9049H167.134V72.2249C167.422 71.7769 167.817 71.4302 168.318 71.1849C168.83 70.9395 169.401 70.8169 170.03 70.8169ZM183.913 75.0249C183.913 75.3022 183.897 75.5955 183.865 75.9049H176.857C176.91 76.7689 177.203 77.4462 177.737 77.9369C178.281 78.4169 178.937 78.6569 179.705 78.6569C180.334 78.6569 180.857 78.5129 181.273 78.2249C181.699 77.9262 181.998 77.5315 182.169 77.0409H183.737C183.502 77.8835 183.033 78.5715 182.329 79.1049C181.625 79.6275 180.75 79.8889 179.705 79.8889C178.873 79.8889 178.126 79.7022 177.465 79.3289C176.814 78.9555 176.302 78.4275 175.929 77.7449C175.555 77.0515 175.369 76.2515 175.369 75.3449C175.369 74.4382 175.55 73.6435 175.913 72.9609C176.275 72.2782 176.782 71.7555 177.433 71.3929C178.094 71.0195 178.851 70.8329 179.705 70.8329C180.537 70.8329 181.273 71.0142 181.913 71.3769C182.553 71.7395 183.043 72.2409 183.385 72.8809C183.737 73.5102 183.913 74.2249 183.913 75.0249ZM182.409 74.7209C182.409 74.1662 182.286 73.6915 182.041 73.2969C181.795 72.8915 181.459 72.5875 181.033 72.3849C180.617 72.1715 180.153 72.0649 179.641 72.0649C178.905 72.0649 178.275 72.2995 177.753 72.7689C177.241 73.2382 176.947 73.8889 176.873 74.7209H182.409ZM194.452 70.8169C195.113 70.8169 195.711 70.9609 196.244 71.2489C196.777 71.5262 197.193 71.9475 197.492 72.5129C197.801 73.0782 197.956 73.7662 197.956 74.5769V79.7449H196.516V74.7849C196.516 73.9102 196.297 73.2435 195.86 72.7849C195.423 72.3155 194.825 72.0809 194.068 72.0809C193.3 72.0809 192.687 72.3209 192.228 72.8009C191.78 73.2809 191.556 73.9795 191.556 74.8969V79.7449H190.1V67.9049H191.556V72.2249C191.844 71.7769 192.239 71.4302 192.74 71.1849C193.252 70.9395 193.823 70.8169 194.452 70.8169ZM201.087 69.5529C200.809 69.5529 200.575 69.4569 200.383 69.2649C200.191 69.0729 200.095 68.8382 200.095 68.5609C200.095 68.2835 200.191 68.0489 200.383 67.8569C200.575 67.6649 200.809 67.5689 201.087 67.5689C201.353 67.5689 201.577 67.6649 201.759 67.8569C201.951 68.0489 202.047 68.2835 202.047 68.5609C202.047 68.8382 201.951 69.0729 201.759 69.2649C201.577 69.4569 201.353 69.5529 201.087 69.5529ZM201.791 70.9769V79.7449H200.335V70.9769H201.791ZM207.888 70.8329C208.645 70.8329 209.307 70.9982 209.872 71.3289C210.448 71.6595 210.875 72.0755 211.152 72.5769V70.9769H212.624V79.9369C212.624 80.7369 212.453 81.4462 212.112 82.0649C211.771 82.6942 211.28 83.1849 210.64 83.5369C210.011 83.8889 209.275 84.0649 208.432 84.0649C207.28 84.0649 206.32 83.7929 205.552 83.2489C204.784 82.7049 204.331 81.9635 204.192 81.0249H205.632C205.792 81.5582 206.123 81.9849 206.624 82.3049C207.125 82.6355 207.728 82.8009 208.432 82.8009C209.232 82.8009 209.883 82.5502 210.384 82.0489C210.896 81.5475 211.152 80.8435 211.152 79.9369V78.0969C210.864 78.6089 210.437 79.0355 209.872 79.3769C209.307 79.7182 208.645 79.8889 207.888 79.8889C207.109 79.8889 206.4 79.6969 205.76 79.3129C205.131 78.9289 204.635 78.3902 204.272 77.6969C203.909 77.0035 203.728 76.2142 203.728 75.3289C203.728 74.4329 203.909 73.6489 204.272 72.9769C204.635 72.2942 205.131 71.7662 205.76 71.3929C206.4 71.0195 207.109 70.8329 207.888 70.8329ZM211.152 75.3449C211.152 74.6835 211.019 74.1075 210.752 73.6169C210.485 73.1262 210.123 72.7529 209.664 72.4969C209.216 72.2302 208.72 72.0969 208.176 72.0969C207.632 72.0969 207.136 72.2249 206.688 72.4809C206.24 72.7369 205.883 73.1102 205.616 73.6009C205.349 74.0915 205.216 74.6675 205.216 75.3289C205.216 76.0009 205.349 76.5875 205.616 77.0889C205.883 77.5795 206.24 77.9582 206.688 78.2249C207.136 78.4809 207.632 78.6089 208.176 78.6089C208.72 78.6089 209.216 78.4809 209.664 78.2249C210.123 77.9582 210.485 77.5795 210.752 77.0889C211.019 76.5875 211.152 76.0062 211.152 75.3449ZM219.437 70.8169C220.098 70.8169 220.695 70.9609 221.229 71.2489C221.762 71.5262 222.178 71.9475 222.477 72.5129C222.786 73.0782 222.941 73.7662 222.941 74.5769V79.7449H221.501V74.7849C221.501 73.9102 221.282 73.2435 220.845 72.7849C220.407 72.3155 219.81 72.0809 219.053 72.0809C218.285 72.0809 217.671 72.3209 217.213 72.8009C216.765 73.2809 216.541 73.9795 216.541 74.8969V79.7449H215.085V67.9049H216.541V72.2249C216.829 71.7769 217.223 71.4302 217.725 71.1849C218.237 70.9395 218.807 70.8169 219.437 70.8169ZM233.319 75.0249C233.319 75.3022 233.303 75.5955 233.271 75.9049H226.263C226.316 76.7689 226.61 77.4462 227.143 77.9369C227.687 78.4169 228.343 78.6569 229.111 78.6569C229.74 78.6569 230.263 78.5129 230.679 78.2249C231.106 77.9262 231.404 77.5315 231.575 77.0409H233.143C232.908 77.8835 232.439 78.5715 231.735 79.1049C231.031 79.6275 230.156 79.8889 229.111 79.8889C228.279 79.8889 227.532 79.7022 226.871 79.3289C226.22 78.9555 225.708 78.4275 225.335 77.7449C224.962 77.0515 224.775 76.2515 224.775 75.3449C224.775 74.4382 224.956 73.6435 225.319 72.9609C225.682 72.2782 226.188 71.7555 226.839 71.3929C227.5 71.0195 228.258 70.8329 229.111 70.8329C229.943 70.8329 230.679 71.0142 231.319 71.3769C231.959 71.7395 232.45 72.2409 232.791 72.8809C233.143 73.5102 233.319 74.2249 233.319 75.0249ZM231.815 74.7209C231.815 74.1662 231.692 73.6915 231.447 73.2969C231.202 72.8915 230.866 72.5875 230.439 72.3849C230.023 72.1715 229.559 72.0649 229.047 72.0649C228.311 72.0649 227.682 72.2995 227.159 72.7689C226.647 73.2382 226.354 73.8889 226.279 74.7209H231.815ZM238.345 79.8889C237.673 79.8889 237.07 79.7769 236.537 79.5529C236.003 79.3182 235.582 78.9982 235.273 78.5929C234.963 78.1769 234.793 77.7022 234.761 77.1689H236.265C236.307 77.6062 236.51 77.9635 236.873 78.2409C237.246 78.5182 237.731 78.6569 238.329 78.6569C238.883 78.6569 239.321 78.5342 239.641 78.2889C239.961 78.0435 240.121 77.7342 240.121 77.3609C240.121 76.9769 239.95 76.6942 239.609 76.5129C239.267 76.3209 238.739 76.1342 238.025 75.9529C237.374 75.7822 236.841 75.6115 236.425 75.4409C236.019 75.2595 235.667 74.9982 235.369 74.6569C235.081 74.3049 234.937 73.8462 234.937 73.2809C234.937 72.8329 235.07 72.4222 235.337 72.0489C235.603 71.6755 235.982 71.3822 236.473 71.1689C236.963 70.9449 237.523 70.8329 238.153 70.8329C239.123 70.8329 239.907 71.0782 240.505 71.5689C241.102 72.0595 241.422 72.7315 241.465 73.5849H240.009C239.977 73.1262 239.79 72.7582 239.449 72.4809C239.118 72.2035 238.67 72.0649 238.105 72.0649C237.582 72.0649 237.166 72.1769 236.857 72.4009C236.547 72.6249 236.393 72.9182 236.393 73.2809C236.393 73.5689 236.483 73.8089 236.665 74.0009C236.857 74.1822 237.091 74.3315 237.369 74.4489C237.657 74.5555 238.051 74.6782 238.553 74.8169C239.182 74.9875 239.694 75.1582 240.089 75.3289C240.483 75.4889 240.819 75.7342 241.097 76.0649C241.385 76.3955 241.534 76.8275 241.545 77.3609C241.545 77.8409 241.411 78.2729 241.145 78.6569C240.878 79.0409 240.499 79.3449 240.009 79.5689C239.529 79.7822 238.974 79.8889 238.345 79.8889ZM245.376 72.1769V77.3449C245.376 77.7715 245.467 78.0755 245.648 78.2569C245.829 78.4275 246.144 78.5129 246.592 78.5129H247.664V79.7449H246.352C245.541 79.7449 244.933 79.5582 244.528 79.1849C244.123 78.8115 243.92 78.1982 243.92 77.3449V72.1769H242.784V70.9769H243.92V68.7689H245.376V70.9769H247.664V72.1769H245.376ZM86.0171 91.9049V103.745H84.5611V91.9049H86.0171ZM96.4986 99.0249C96.4986 99.3022 96.4826 99.5955 96.4506 99.9049H89.4426C89.4959 100.769 89.7893 101.446 90.3226 101.937C90.8666 102.417 91.5226 102.657 92.2906 102.657C92.9199 102.657 93.4426 102.513 93.8586 102.225C94.2853 101.926 94.5839 101.532 94.7546 101.041H96.3226C96.0879 101.884 95.6186 102.572 94.9146 103.105C94.2106 103.628 93.3359 103.889 92.2906 103.889C91.4586 103.889 90.7119 103.702 90.0506 103.329C89.3999 102.956 88.8879 102.428 88.5146 101.745C88.1413 101.052 87.9546 100.252 87.9546 99.3449C87.9546 98.4382 88.1359 97.6435 88.4986 96.9609C88.8613 96.2782 89.3679 95.7555 90.0186 95.3929C90.6799 95.0195 91.4373 94.8329 92.2906 94.8329C93.1226 94.8329 93.8586 95.0142 94.4986 95.3769C95.1386 95.7395 95.6293 96.2409 95.9706 96.8809C96.3226 97.5102 96.4986 98.2249 96.4986 99.0249ZM94.9946 98.7209C94.9946 98.1662 94.8719 97.6915 94.6266 97.2969C94.3813 96.8915 94.0453 96.5875 93.6186 96.3849C93.2026 96.1715 92.7386 96.0649 92.2266 96.0649C91.4906 96.0649 90.8613 96.2995 90.3386 96.7689C89.8266 97.2382 89.5333 97.8889 89.4586 98.7209H94.9946ZM101.684 102.401L104.404 94.9769H105.956L102.516 103.745H100.82L97.3805 94.9769H98.9485L101.684 102.401ZM115.389 99.0249C115.389 99.3022 115.373 99.5955 115.341 99.9049H108.333C108.387 100.769 108.68 101.446 109.213 101.937C109.757 102.417 110.413 102.657 111.181 102.657C111.811 102.657 112.333 102.513 112.749 102.225C113.176 101.926 113.475 101.532 113.645 101.041H115.213C114.979 101.884 114.509 102.572 113.805 103.105C113.101 103.628 112.227 103.889 111.181 103.889C110.349 103.889 109.603 103.702 108.941 103.329C108.291 102.956 107.779 102.428 107.405 101.745C107.032 101.052 106.845 100.252 106.845 99.3449C106.845 98.4382 107.027 97.6435 107.389 96.9609C107.752 96.2782 108.259 95.7555 108.909 95.3929C109.571 95.0195 110.328 94.8329 111.181 94.8329C112.013 94.8329 112.749 95.0142 113.389 95.3769C114.029 95.7395 114.52 96.2409 114.861 96.8809C115.213 97.5102 115.389 98.2249 115.389 99.0249ZM113.885 98.7209C113.885 98.1662 113.763 97.6915 113.517 97.2969C113.272 96.8915 112.936 96.5875 112.509 96.3849C112.093 96.1715 111.629 96.0649 111.117 96.0649C110.381 96.0649 109.752 96.2995 109.229 96.7689C108.717 97.2382 108.424 97.8889 108.349 98.7209H113.885ZM118.767 91.9049V103.745H117.311V91.9049H118.767ZM129.338 103.889C128.517 103.889 127.77 103.702 127.098 103.329C126.437 102.956 125.914 102.428 125.53 101.745C125.157 101.052 124.97 100.252 124.97 99.3449C124.97 98.4489 125.162 97.6595 125.546 96.9769C125.941 96.2835 126.474 95.7555 127.146 95.3929C127.818 95.0195 128.57 94.8329 129.402 94.8329C130.234 94.8329 130.986 95.0195 131.658 95.3929C132.33 95.7555 132.858 96.2782 133.242 96.9609C133.637 97.6435 133.834 98.4382 133.834 99.3449C133.834 100.252 133.632 101.052 133.226 101.745C132.832 102.428 132.293 102.956 131.61 103.329C130.928 103.702 130.17 103.889 129.338 103.889ZM129.338 102.609C129.861 102.609 130.352 102.486 130.81 102.241C131.269 101.996 131.637 101.628 131.914 101.137C132.202 100.646 132.346 100.049 132.346 99.3449C132.346 98.6409 132.208 98.0435 131.93 97.5529C131.653 97.0622 131.29 96.6995 130.842 96.4649C130.394 96.2195 129.909 96.0969 129.386 96.0969C128.853 96.0969 128.362 96.2195 127.914 96.4649C127.477 96.6995 127.125 97.0622 126.858 97.5529C126.592 98.0435 126.458 98.6409 126.458 99.3449C126.458 100.06 126.586 100.662 126.842 101.153C127.109 101.644 127.461 102.012 127.898 102.257C128.336 102.492 128.816 102.609 129.338 102.609ZM139.317 96.1769H137.477V103.745H136.021V96.1769H134.885V94.9769H136.021V94.3529C136.021 93.3715 136.271 92.6569 136.773 92.2089C137.285 91.7502 138.101 91.5209 139.221 91.5209V92.7369C138.581 92.7369 138.127 92.8649 137.861 93.1209C137.605 93.3662 137.477 93.7769 137.477 94.3529V94.9769H139.317V96.1769ZM146.736 96.5929C147.024 96.0915 147.451 95.6755 148.016 95.3449C148.592 95.0035 149.259 94.8329 150.016 94.8329C150.795 94.8329 151.499 95.0195 152.128 95.3929C152.768 95.7662 153.269 96.2942 153.632 96.9769C153.995 97.6489 154.176 98.4329 154.176 99.3289C154.176 100.214 153.995 101.004 153.632 101.697C153.269 102.39 152.768 102.929 152.128 103.313C151.499 103.697 150.795 103.889 150.016 103.889C149.269 103.889 148.608 103.724 148.032 103.393C147.467 103.052 147.035 102.63 146.736 102.129V107.905H145.28V94.9769H146.736V96.5929ZM152.688 99.3289C152.688 98.6675 152.555 98.0915 152.288 97.6009C152.021 97.1102 151.659 96.7369 151.2 96.4809C150.752 96.2249 150.256 96.0969 149.712 96.0969C149.179 96.0969 148.683 96.2302 148.224 96.4969C147.776 96.7529 147.413 97.1315 147.136 97.6329C146.869 98.1235 146.736 98.6942 146.736 99.3449C146.736 100.006 146.869 100.588 147.136 101.089C147.413 101.58 147.776 101.958 148.224 102.225C148.683 102.481 149.179 102.609 149.712 102.609C150.256 102.609 150.752 102.481 151.2 102.225C151.659 101.958 152.021 101.58 152.288 101.089C152.555 100.588 152.688 100.001 152.688 99.3289ZM157.548 96.4009C157.804 95.8995 158.167 95.5102 158.636 95.2329C159.116 94.9555 159.698 94.8169 160.38 94.8169V96.3209H159.996C158.364 96.3209 157.548 97.2062 157.548 98.9769V103.745H156.092V94.9769H157.548V96.4009ZM162.813 93.5529C162.536 93.5529 162.301 93.4569 162.109 93.2649C161.917 93.0729 161.821 92.8382 161.821 92.5609C161.821 92.2835 161.917 92.0489 162.109 91.8569C162.301 91.6649 162.536 91.5689 162.813 91.5689C163.08 91.5689 163.304 91.6649 163.485 91.8569C163.677 92.0489 163.773 92.2835 163.773 92.5609C163.773 92.8382 163.677 93.0729 163.485 93.2649C163.304 93.4569 163.08 93.5529 162.813 93.5529ZM163.517 94.9769V103.745H162.061V94.9769H163.517ZM169.263 102.401L171.983 94.9769H173.535L170.095 103.745H168.399L164.959 94.9769H166.527L169.263 102.401ZM174.423 99.3289C174.423 98.4329 174.605 97.6489 174.967 96.9769C175.33 96.2942 175.826 95.7662 176.455 95.3929C177.095 95.0195 177.805 94.8329 178.583 94.8329C179.351 94.8329 180.018 94.9982 180.583 95.3289C181.149 95.6595 181.57 96.0755 181.847 96.5769V94.9769H183.319V103.745H181.847V102.113C181.559 102.625 181.127 103.052 180.551 103.393C179.986 103.724 179.325 103.889 178.567 103.889C177.789 103.889 177.085 103.697 176.455 103.313C175.826 102.929 175.33 102.39 174.967 101.697C174.605 101.004 174.423 100.214 174.423 99.3289ZM181.847 99.3449C181.847 98.6835 181.714 98.1075 181.447 97.6169C181.181 97.1262 180.818 96.7529 180.359 96.4969C179.911 96.2302 179.415 96.0969 178.871 96.0969C178.327 96.0969 177.831 96.2249 177.383 96.4809C176.935 96.7369 176.578 97.1102 176.311 97.6009C176.045 98.0915 175.911 98.6675 175.911 99.3289C175.911 100.001 176.045 100.588 176.311 101.089C176.578 101.58 176.935 101.958 177.383 102.225C177.831 102.481 178.327 102.609 178.871 102.609C179.415 102.609 179.911 102.481 180.359 102.225C180.818 101.958 181.181 101.58 181.447 101.089C181.714 100.588 181.847 100.006 181.847 99.3449ZM185.236 99.3449C185.236 98.4382 185.417 97.6489 185.78 96.9769C186.143 96.2942 186.644 95.7662 187.284 95.3929C187.935 95.0195 188.676 94.8329 189.508 94.8329C190.585 94.8329 191.471 95.0942 192.164 95.6169C192.868 96.1395 193.332 96.8649 193.556 97.7929H191.988C191.839 97.2595 191.545 96.8382 191.108 96.5289C190.681 96.2195 190.148 96.0649 189.508 96.0649C188.676 96.0649 188.004 96.3529 187.492 96.9289C186.98 97.4942 186.724 98.2995 186.724 99.3449C186.724 100.401 186.98 101.217 187.492 101.793C188.004 102.369 188.676 102.657 189.508 102.657C190.148 102.657 190.681 102.508 191.108 102.209C191.535 101.91 191.828 101.484 191.988 100.929H193.556C193.321 101.825 192.852 102.545 192.148 103.089C191.444 103.622 190.564 103.889 189.508 103.889C188.676 103.889 187.935 103.702 187.284 103.329C186.644 102.956 186.143 102.428 185.78 101.745C185.417 101.062 185.236 100.262 185.236 99.3449ZM203.051 94.9769L197.771 107.873H196.267L197.995 103.649L194.459 94.9769H196.075L198.827 102.081L201.547 94.9769H203.051ZM204.978 103.841C204.701 103.841 204.466 103.745 204.274 103.553C204.082 103.361 203.986 103.126 203.986 102.849C203.986 102.572 204.082 102.337 204.274 102.145C204.466 101.953 204.701 101.857 204.978 101.857C205.245 101.857 205.469 101.953 205.65 102.145C205.842 102.337 205.938 102.572 205.938 102.849C205.938 103.126 205.842 103.361 205.65 103.553C205.469 103.745 205.245 103.841 204.978 103.841Z" fill="#212529"/>
<path d="M149.353 376.289C152.105 376.289 154.275 377.318 155.865 379.377C157.454 381.425 158.249 384.374 158.249 388.225C158.249 392.054 157.465 394.993 155.897 397.041C154.329 399.078 152.147 400.097 149.353 400.097C146.547 400.097 144.355 399.078 142.777 397.041C141.209 395.004 140.425 392.07 140.425 388.241C140.425 385.681 140.787 383.51 141.513 381.729C142.238 379.948 143.267 378.598 144.601 377.681C145.934 376.753 147.518 376.289 149.353 376.289ZM149.353 396.273C150.729 396.273 151.737 395.66 152.377 394.433C153.017 393.196 153.337 391.132 153.337 388.241C153.337 385.286 153.011 383.169 152.361 381.889C151.71 380.609 150.702 379.969 149.337 379.969C147.971 379.969 146.953 380.614 146.281 381.905C145.619 383.196 145.289 385.308 145.289 388.241C145.289 391.121 145.619 393.18 146.281 394.417C146.942 395.654 147.966 396.273 149.353 396.273ZM161.45 399.745V397.441V396.257C161.45 395.084 161.668 394.07 162.106 393.217C162.543 392.353 163.119 391.606 163.834 390.977C164.559 390.337 165.348 389.777 166.202 389.297C167.066 388.817 167.93 388.364 168.794 387.937C169.658 387.51 170.447 387.084 171.162 386.657C171.887 386.22 172.468 385.734 172.906 385.201C173.343 384.668 173.562 384.038 173.562 383.313C173.562 382.385 173.236 381.628 172.586 381.041C171.946 380.454 171.066 380.161 169.946 380.161C168.783 380.161 167.796 380.497 166.986 381.169C166.175 381.841 165.674 382.854 165.482 384.209H161.018C161.039 382.737 161.38 381.404 162.042 380.209C162.714 379.004 163.716 378.049 165.05 377.345C166.383 376.641 168.058 376.289 170.074 376.289C171.802 376.289 173.29 376.582 174.538 377.169C175.796 377.756 176.767 378.572 177.45 379.617C178.132 380.662 178.474 381.884 178.474 383.281C178.474 384.444 178.26 385.446 177.834 386.289C177.407 387.132 176.842 387.852 176.138 388.449C175.434 389.046 174.66 389.569 173.818 390.017C172.975 390.465 172.132 390.881 171.29 391.265C170.458 391.649 169.69 392.044 168.986 392.449C168.282 392.844 167.716 393.292 167.29 393.793C166.863 394.294 166.65 394.897 166.65 395.601V395.809H178.442V399.745H161.45Z" fill="#5093FF"/>
<defs>
<filter id="filter0_d_5271_21952" x="31.9854" y="244.756" width="255.191" height="288.584" filterUnits="userSpaceOnUse" color-interpolation-filters="sRGB">
<feFlood flood-opacity="0" result="BackgroundImageFix"/>
<feColorMatrix in="SourceAlpha" type="matrix" values="0 0 0 0 0 0 0 0 0 0 0 0 0 0 0 0 0 0 127 0" result="hardAlpha"/>
<feOffset/>
<feGaussianBlur stdDeviation="10"/>
<feComposite in2="hardAlpha" operator="out"/>
<feColorMatrix type="matrix" values="0 0 0 0 0.645833 0 0 0 0 0.645833 0 0 0 0 0.645833 0 0 0 0.2 0"/>
<feBlend mode="normal" in2="BackgroundImageFix" result="effect1_dropShadow_5271_21952"/>
<feBlend mode="normal" in="SourceGraphic" in2="effect1_dropShadow_5271_21952" result="shape"/>
</filter>
<radialGradient id="paint0_radial_5271_21952" cx="0" cy="0" r="1" gradientUnits="userSpaceOnUse" gradientTransform="translate(145.105 403.913) scale(80.2134 80.2374)">
<stop offset="0.49" stop-color="#00547F"/>
<stop offset="0.5" stop-color="#065882"/>
<stop offset="0.61" stop-color="#508AA7"/>
<stop offset="0.72" stop-color="#8FB4C7"/>
<stop offset="0.81" stop-color="#BFD4DF"/>
<stop offset="0.89" stop-color="#E2ECF0"/>
<stop offset="0.96" stop-color="#F7FAFB"/>
<stop offset="1" stop-color="white"/>
</radialGradient>
</defs>
</svg>
