<svg id="Layer_1" data-name="Layer 1" xmlns="http://www.w3.org/2000/svg" xmlns:xlink="http://www.w3.org/1999/xlink" viewBox="0 0 24 24"><defs><style>.cls-1{fill:url(#linear-gradient);}.cls-2{fill:#fff;}</style><linearGradient id="linear-gradient" x1="1.27" y1="11.31" x2="23" y2="11.31" gradientUnits="userSpaceOnUse"><stop offset="0" stop-color="#283376"/><stop offset="1" stop-color="#1c67a6"/></linearGradient></defs><path class="cls-1" d="M21.67,10.9a1.38,1.38,0,0,1-.34-.88,6.17,6.17,0,0,0-11-3.9c-3.1-1.43-5.67,0-6,3.3a.89.89,0,0,1-.44.56,4.7,4.7,0,0,0,2.24,8.9c4.05,0,8.1,0,12.15,0A4.49,4.49,0,0,0,22.6,16,4.59,4.59,0,0,0,21.67,10.9Zm-1,5.74a9.65,9.65,0,0,0,0-2.46,7.6,7.6,0,0,0-1.2-1.89,1.38,1.38,0,0,1-.32-.79,4.76,4.76,0,0,0-1.95-4.62,4.67,4.67,0,0,0-5-.49c-.14.07-.29.12-.59.25a4.88,4.88,0,0,1,5.52-1.27,4.81,4.81,0,0,1,3,4.73,1.72,1.72,0,0,0,.64,1.62A3.29,3.29,0,0,1,20.65,16.64Z"/><path class="cls-2" d="M6.08,12.82a.94.94,0,0,1-.25-.72.84.84,0,0,1,.27-.68,1.3,1.3,0,0,1,.83-.23H7.7l0,.62H6.93a.47.47,0,0,0-.28.07.27.27,0,0,0-.09.22.26.26,0,0,0,.12.23A.63.63,0,0,0,7,12.4a1.18,1.18,0,0,0,.48-.07.24.24,0,0,0,.16-.23l.06.44a.39.39,0,0,1-.15.28.85.85,0,0,1-.34.18,1.49,1.49,0,0,1-.43.05A1,1,0,0,1,6.08,12.82Zm1.59-1.76a.42.42,0,0,0-.14-.33.69.69,0,0,0-.41-.11,1.4,1.4,0,0,0-.34.05.9.9,0,0,0-.29.16L6,10.34A1.25,1.25,0,0,1,6.47,10a1.78,1.78,0,0,1,.67-.12,1.55,1.55,0,0,1,.68.14,1,1,0,0,1,.44.39,1.17,1.17,0,0,1,.15.61v2H7.67Z"/><path class="cls-2" d="M8.85,9.94h.78l.55,1.89.64-1.89h.48L12,11.83l.55-1.89h.78L12.33,13h-.61l-.66-2-.66,2H9.8Z"/><path class="cls-2" d="M14.45,13a2.34,2.34,0,0,1-.49-.15,1.55,1.55,0,0,1-.4-.23l.5-.62a2.15,2.15,0,0,0,.46.22,1.59,1.59,0,0,0,.46.08,1.32,1.32,0,0,0,.45-.07c.1,0,.15-.1.15-.17a.18.18,0,0,0-.07-.16.38.38,0,0,0-.17-.08l-.3,0h-.27a2.79,2.79,0,0,1-.55-.11.62.62,0,0,1-.35-.25.82.82,0,0,1-.14-.53.91.91,0,0,1,.14-.53A.89.89,0,0,1,14.3,10,1.76,1.76,0,0,1,15,9.89a2.42,2.42,0,0,1,.47,0,2.35,2.35,0,0,1,.45.14,1.83,1.83,0,0,1,.39.21l-.48.59a1.9,1.9,0,0,0-.42-.18,1.64,1.64,0,0,0-.42-.06,1,1,0,0,0-.39.06.16.16,0,0,0-.13.15.11.11,0,0,0,.07.12.75.75,0,0,0,.18.07l.32,0h.16a3.27,3.27,0,0,1,.58.1.77.77,0,0,1,.38.26.89.89,0,0,1,.16.58,1,1,0,0,1-.15.55.93.93,0,0,1-.45.34,1.94,1.94,0,0,1-.72.12A3.08,3.08,0,0,1,14.45,13Z"/><path class="cls-2" d="M11.79,16.48a14.28,14.28,0,0,1-8-2.84l.12-.15c.08.06,7.21,5.72,14,.75l.11.16A10.31,10.31,0,0,1,11.79,16.48Z"/><path class="cls-2" d="M18.87,13.57a6.2,6.2,0,0,0-.77,1.78l-.3-.95L17,13.86A6.09,6.09,0,0,0,18.87,13.57Z"/></svg>