<svg id="Layer_1" data-name="Layer 1" xmlns="http://www.w3.org/2000/svg" xmlns:xlink="http://www.w3.org/1999/xlink" viewBox="0 0 24 24"><defs><style>.cls-1{fill:url(#linear-gradient);}</style><linearGradient id="linear-gradient" x1="0.92" y1="11.14" x2="23" y2="11.14" gradientUnits="userSpaceOnUse"><stop offset="0" stop-color="#283376"/><stop offset="1" stop-color="#1c67a6"/></linearGradient></defs><path class="cls-1" d="M23,13.24a4.12,4.12,0,0,0-3.65-3.88l-.47-.09a3.84,3.84,0,0,0-2.45-4.15,3.43,3.43,0,0,0-4.26,1.17C10.85,5,9.35,4.34,7.6,5.16A4,4,0,0,0,5.37,9.22a11.05,11.05,0,0,0-1.87.37A4.31,4.31,0,0,0,1,14.19a4.28,4.28,0,0,0,4.15,3.29h14a3.16,3.16,0,0,0,.68-.08A4.27,4.27,0,0,0,23,13.24Zm-11.41,2H8.23V11.94h3.35Zm0-3.74H8.23V7.82h3.36Zm4.1,3.74H12V11.93h3.72Zm0-3.74H12V7.82H15.7Z"/></svg>