<svg width="24" height="23" viewBox="0 0 24 23" fill="none" xmlns="http://www.w3.org/2000/svg">
<path d="M14.8594 20.2058H9.85938V20.9158H14.8594V20.2058Z" fill="#002680"/>
<path d="M23.0697 12.2858V10.2758L22.1697 10.0958C22.0997 9.8858 22.0197 9.6758 21.9097 9.4758L22.4197 8.7058L20.9997 7.2758L20.2297 7.7858C20.0297 7.6858 19.8197 7.5958 19.6097 7.5258L19.4297 6.6258L18.7797 6.6258V1.9858C18.7797 1.0058 17.9797 0.195801 16.9897 0.195801L7.70969 0.195801C6.72969 0.195801 5.91969 0.995801 5.91969 1.9858L5.91969 4.4858L1.99969 4.4858C1.40969 4.4858 0.929687 4.9658 0.929687 5.5558L0.929687 11.9858C0.929687 12.5758 1.40969 13.0558 1.99969 13.0558H5.92969L5.92969 20.5558C5.92969 21.5358 6.72969 22.3458 7.71969 22.3458L16.9997 22.3458C17.9797 22.3458 18.7897 21.5458 18.7897 20.5558V15.9158H19.4397L19.6197 15.0158C19.8297 14.9458 20.0397 14.8658 20.2397 14.7558L20.9997 15.2758L22.4197 13.8558L21.9097 13.0858C22.0097 12.8858 22.0997 12.6758 22.1697 12.4658L23.0697 12.2858ZM17.4197 6.6358L17.3597 6.9558V3.7758H18.0697V6.6358H17.4197ZM14.9397 9.4658C14.8397 9.6658 14.7497 9.8758 14.6797 10.0858L13.7797 10.2658V12.2758L14.6797 12.4558C14.7497 12.6658 14.8297 12.8758 14.9397 13.0758L14.4297 13.8458L15.8597 15.2758L16.6297 14.7658C16.6397 14.7658 16.6397 14.7758 16.6497 14.7758V18.7858L8.06969 18.7858L8.06969 13.0758L8.43969 13.0758L10.9297 14.3758V13.0758H13.0697V12.3658H10.9297V11.6558H13.0697V10.9458H10.9297V10.2358H13.0697V9.5258H10.9297V8.7758H13.0697V8.0658L10.9297 8.0658L10.9297 7.3458L14.8597 7.3458V6.6358L10.9297 6.6358V5.9158L15.9297 5.9158V5.2058L10.8597 5.2058C10.7097 4.7958 10.3197 4.4958 9.84969 4.4958H8.06969V3.7758L16.6397 3.7758V7.7858C16.6297 7.7858 16.6297 7.7958 16.6197 7.7958L15.8597 7.2758L14.4397 8.6958L14.9397 9.4658ZM7.70969 0.915801L16.9997 0.915801C17.5897 0.915801 18.0697 1.3958 18.0697 1.9858V3.0558L6.63969 3.0558V1.9858C6.63969 1.3958 7.11969 0.915801 7.70969 0.915801ZM6.63969 3.7758H7.34969L7.34969 4.4858H6.63969L6.63969 3.7758ZM1.63969 11.9858L1.63969 5.5658C1.63969 5.3658 1.79969 5.2058 1.99969 5.2058L9.85969 5.2058C10.0597 5.2058 10.2197 5.3658 10.2197 5.5658L10.2197 13.1858L8.61969 12.3458L1.99969 12.3458C1.79969 12.3458 1.63969 12.1858 1.63969 11.9858ZM7.35969 13.0658L7.35969 18.7758H6.63969L6.63969 13.0658H7.35969ZM16.9997 21.6358L7.70969 21.6358C7.11969 21.6358 6.63969 21.1558 6.63969 20.5658V19.4958L18.0697 19.4958V20.5658C18.0697 21.1558 17.5897 21.6358 16.9997 21.6358ZM18.0697 18.7758H17.3597V15.5958L17.4197 15.9158H18.0697V18.7758ZM21.5997 11.8458L21.5397 12.0658C21.4597 12.3658 21.3497 12.6458 21.1897 12.9158L21.0697 13.1058L21.4997 13.7558L20.8997 14.3558L20.2497 13.9258L20.0597 14.0458C19.7997 14.2058 19.5097 14.3258 19.2097 14.3958L18.9997 14.4458L18.8497 15.2058H18.0097L17.8597 14.4458L17.6397 14.3858C17.3397 14.3058 17.0597 14.1958 16.7897 14.0358L16.5997 13.9158L15.9497 14.3458L15.3497 13.7458L15.7797 13.0958L15.6597 12.9058C15.4997 12.6458 15.3797 12.3558 15.3097 12.0558L15.2497 11.8358L14.4897 11.6858V10.8458L15.2497 10.6958L15.3097 10.4758C15.3897 10.1758 15.4997 9.8958 15.6597 9.6258L15.7797 9.4358L15.3497 8.7858L15.9497 8.1858L16.5997 8.6158L16.7897 8.4958C17.0497 8.3358 17.3397 8.2158 17.6397 8.1458L17.8597 8.0858L18.0097 7.3258H18.8497L18.9997 8.1058L19.2197 8.1658C19.5197 8.2458 19.7997 8.3558 20.0697 8.5158L20.2597 8.6358L20.9097 8.2058L21.5097 8.8058L21.0797 9.4558L21.1997 9.6458C21.3597 9.9058 21.4797 10.1958 21.5497 10.4958L21.6097 10.7158L22.3697 10.8658V11.7058L21.5997 11.8458Z" fill="#002680"/>
<path d="M19.4994 11.2758C19.4994 10.6858 19.0194 10.2058 18.4294 10.2058C17.8394 10.2058 17.3594 10.6858 17.3594 11.2758C17.3594 11.8658 17.8394 12.3458 18.4294 12.3458C19.0194 12.3458 19.4994 11.8658 19.4994 11.2758ZM18.0694 11.2758C18.0694 11.0758 18.2294 10.9158 18.4294 10.9158C18.6294 10.9158 18.7894 11.0758 18.7894 11.2758C18.7894 11.4758 18.6294 11.6358 18.4294 11.6358C18.2294 11.6358 18.0694 11.4758 18.0694 11.2758Z" fill="#002680"/>
<path d="M5.39062 7.34577H6.46063C6.76063 7.34577 7.00063 7.58577 7.00063 7.88577H7.71063C7.71063 7.19577 7.15063 6.63577 6.46063 6.63577H6.29063V5.91577H5.57063V6.62577H5.39062C4.70063 6.62577 4.14062 7.18577 4.14062 7.87577C4.14062 8.56577 4.70063 9.12577 5.39062 9.12577H6.46063C6.76063 9.13577 7.00063 9.37577 7.00063 9.66577C7.00063 9.96577 6.76063 10.2058 6.46063 10.2058H5.39062C5.09062 10.2058 4.85063 9.96577 4.85063 9.66577H4.14062C4.14062 10.3558 4.70063 10.9158 5.39062 10.9158H5.57063V11.6258H6.28063L6.28063 10.9158H6.46063C7.15063 10.9158 7.71063 10.3558 7.71063 9.66577C7.71063 8.97577 7.15063 8.41577 6.46063 8.41577H5.39062C5.09062 8.41577 4.85063 8.17577 4.85063 7.87577C4.85063 7.57577 5.10063 7.34577 5.39062 7.34577Z" fill="#002680"/>
<path d="M13.7897 15.9158H14.4997V17.3458H10.9297V18.0658H15.2097V15.2058H13.7897V15.9158Z" fill="#002680"/>
<path d="M9.49906 15.9158H13.0691V15.2058H8.78906V18.0658H10.2091V17.3458H9.49906V15.9158Z" fill="#002680"/>
<path d="M3.06938 5.91577H2.35938V6.62577H3.06938V5.91577Z" fill="#002680"/>
<path d="M9.49906 5.91577H8.78906V6.62577H9.49906V5.91577Z" fill="#002680"/>
<path d="M3.06938 10.9158H2.35938V11.6258H3.06938V10.9158Z" fill="#002680"/>
<path d="M9.49906 10.9158H8.78906V11.6258H9.49906V10.9158Z" fill="#002680"/>
<path d="M18.4297 13.0657C17.4497 13.0657 16.6397 12.2657 16.6397 11.2757C16.6397 10.9057 16.7497 10.5457 16.9697 10.2457L16.3897 9.83569C16.0897 10.2657 15.9297 10.7657 15.9297 11.2857C15.9297 12.6657 17.0497 13.7857 18.4297 13.7857C18.9497 13.7857 19.4497 13.6257 19.8797 13.3257L19.4697 12.7457C19.1597 12.9457 18.7997 13.0657 18.4297 13.0657Z" fill="#002680"/>
<path d="M18.4305 8.77588C17.9105 8.77588 17.4105 8.93588 16.9805 9.23588L17.3905 9.81588C17.6905 9.59588 18.0505 9.48588 18.4205 9.48588C19.4005 9.48588 20.2105 10.2859 20.2105 11.2759C20.2105 11.6459 20.1005 12.0059 19.8805 12.3059L20.4605 12.7159C20.7605 12.2859 20.9205 11.7859 20.9205 11.2659C20.9305 9.89588 19.8105 8.77588 18.4305 8.77588Z" fill="#002680"/>
<path d="M14.8594 20.2058H9.85938V20.9158H14.8594V20.2058Z" fill="url(#paint0_linear_5691_15330)"/>
<path d="M23.0697 12.2858V10.2758L22.1697 10.0958C22.0997 9.8858 22.0197 9.6758 21.9097 9.4758L22.4197 8.7058L20.9997 7.2758L20.2297 7.7858C20.0297 7.6858 19.8197 7.5958 19.6097 7.5258L19.4297 6.6258L18.7797 6.6258V1.9858C18.7797 1.0058 17.9797 0.195801 16.9897 0.195801L7.71969 0.195801C6.73969 0.195801 5.92969 0.995801 5.92969 1.9858L5.92969 4.4858L1.99969 4.4858C1.40969 4.4858 0.929687 4.9658 0.929687 5.5558L0.929687 11.9858C0.929687 12.5758 1.40969 13.0558 1.99969 13.0558H5.92969L5.92969 20.5558C5.92969 21.5358 6.72969 22.3458 7.71969 22.3458L16.9997 22.3458C17.9797 22.3458 18.7897 21.5458 18.7897 20.5558V15.9158H19.4397L19.6197 15.0158C19.8297 14.9458 20.0397 14.8658 20.2397 14.7558L20.9997 15.2758L22.4197 13.8558L21.9097 13.0858C22.0097 12.8858 22.0997 12.6758 22.1697 12.4658L23.0697 12.2858ZM17.4197 6.6358L17.3597 6.9558V3.7758H18.0697V6.6358H17.4197ZM14.9497 9.4658C14.8497 9.6658 14.7597 9.8758 14.6897 10.0858L13.7897 10.2658V12.2758L14.6897 12.4558C14.7597 12.6658 14.8397 12.8758 14.9497 13.0758L14.4397 13.8458L15.8597 15.2758L16.6297 14.7658C16.6397 14.7658 16.6397 14.7758 16.6497 14.7758V18.7858L8.06969 18.7858L8.06969 13.0758L8.43969 13.0758L10.9297 14.3758V13.0758H13.0697V12.3658H10.9297V11.6558H13.0697V10.9458H10.9297V10.2358H13.0697V9.5258H10.9297V8.7758H13.0697V8.0658L10.9297 8.0658L10.9297 7.3458L14.8597 7.3458V6.6358L10.9297 6.6358V5.9158L15.9297 5.9158V5.2058L10.8597 5.2058C10.7097 4.7958 10.3197 4.4958 9.84969 4.4958H8.06969V3.7758L16.6397 3.7758V7.7858C16.6297 7.7858 16.6297 7.7958 16.6197 7.7958L15.8597 7.2758L14.4397 8.6958L14.9497 9.4658ZM7.71969 0.915801L16.9997 0.915801C17.5897 0.915801 18.0697 1.3958 18.0697 1.9858V3.0558L6.63969 3.0558V1.9858C6.63969 1.3958 7.11969 0.915801 7.71969 0.915801ZM6.63969 3.7758H7.34969L7.34969 4.4858H6.63969L6.63969 3.7758ZM1.63969 11.9858L1.63969 5.5658C1.63969 5.3658 1.79969 5.2058 1.99969 5.2058L9.85969 5.2058C10.0597 5.2058 10.2197 5.3658 10.2197 5.5658L10.2197 13.1858L8.61969 12.3458L1.99969 12.3458C1.79969 12.3458 1.63969 12.1858 1.63969 11.9858ZM7.35969 13.0658L7.35969 18.7758H6.63969L6.63969 13.0658H7.35969ZM16.9997 21.6358L7.71969 21.6358C7.12969 21.6358 6.64969 21.1558 6.64969 20.5658V19.4958L18.0797 19.4958V20.5658C18.0697 21.1558 17.5897 21.6358 16.9997 21.6358ZM18.0697 18.7758H17.3597V15.5958L17.4197 15.9158H18.0697V18.7758ZM21.5997 11.8458L21.5397 12.0658C21.4597 12.3658 21.3497 12.6458 21.1897 12.9158L21.0697 13.1058L21.4997 13.7558L20.8997 14.3558L20.2497 13.9258L20.0597 14.0458C19.7997 14.2058 19.5097 14.3258 19.2097 14.3958L18.9997 14.4458L18.8497 15.2058H18.0097L17.8597 14.4458L17.6397 14.3858C17.3397 14.3058 17.0597 14.1958 16.7897 14.0358L16.5997 13.9158L15.9497 14.3458L15.3497 13.7458L15.7797 13.0958L15.6597 12.9058C15.4997 12.6458 15.3797 12.3558 15.3097 12.0558L15.2497 11.8358L14.4897 11.6858V10.8458L15.2497 10.6958L15.3097 10.4758C15.3897 10.1758 15.4997 9.8958 15.6597 9.6258L15.7797 9.4358L15.3497 8.7858L15.9497 8.1858L16.5997 8.6158L16.7897 8.4958C17.0497 8.3358 17.3397 8.2158 17.6397 8.1458L17.8597 8.0858L18.0097 7.3258H18.8497L18.9997 8.1058L19.2197 8.1658C19.5197 8.2458 19.7997 8.3558 20.0697 8.5158L20.2597 8.6358L20.9097 8.2058L21.5097 8.8058L21.0797 9.4558L21.1997 9.6458C21.3597 9.9058 21.4797 10.1958 21.5497 10.4958L21.6097 10.7158L22.3697 10.8658V11.7058L21.5997 11.8458Z" fill="url(#paint1_linear_5691_15330)"/>
<path d="M19.4994 11.2758C19.4994 10.6858 19.0194 10.2058 18.4294 10.2058C17.8394 10.2058 17.3594 10.6858 17.3594 11.2758C17.3594 11.8658 17.8394 12.3458 18.4294 12.3458C19.0194 12.3458 19.4994 11.8658 19.4994 11.2758ZM18.0694 11.2758C18.0694 11.0758 18.2294 10.9158 18.4294 10.9158C18.6294 10.9158 18.7894 11.0758 18.7894 11.2758C18.7894 11.4758 18.6294 11.6358 18.4294 11.6358C18.2294 11.6358 18.0694 11.4758 18.0694 11.2758Z" fill="url(#paint2_linear_5691_15330)"/>
<path d="M5.39062 7.34577H6.46063C6.76063 7.34577 7.00063 7.58577 7.00063 7.88577H7.71063C7.71063 7.19577 7.15063 6.63577 6.46063 6.63577H6.29063V5.91577H5.57063V6.62577H5.39062C4.70063 6.62577 4.14062 7.18577 4.14062 7.87577C4.14062 8.56577 4.70063 9.12577 5.39062 9.12577H6.46063C6.76063 9.13577 7.00063 9.37577 7.00063 9.66577C7.00063 9.96577 6.76063 10.2058 6.46063 10.2058H5.39062C5.09062 10.2058 4.85063 9.96577 4.85063 9.66577H4.14062C4.14062 10.3558 4.70063 10.9158 5.39062 10.9158H5.57063V11.6258H6.28063L6.28063 10.9158H6.46063C7.15063 10.9158 7.71063 10.3558 7.71063 9.66577C7.71063 8.97577 7.15063 8.41577 6.46063 8.41577H5.39062C5.09062 8.41577 4.85063 8.17577 4.85063 7.87577C4.85063 7.57577 5.10063 7.34577 5.39062 7.34577Z" fill="url(#paint3_linear_5691_15330)"/>
<path d="M13.7897 15.9158H14.4997V17.3458H10.9297V18.0658H15.2197V15.2058H13.7897V15.9158Z" fill="url(#paint4_linear_5691_15330)"/>
<path d="M9.49906 15.9158H13.0691V15.2058H8.78906V18.0658H10.2191V17.3458H9.49906V15.9158Z" fill="url(#paint5_linear_5691_15330)"/>
<path d="M3.06938 5.91577H2.35938V6.62577H3.06938V5.91577Z" fill="url(#paint6_linear_5691_15330)"/>
<path d="M9.49906 5.91577H8.78906V6.62577H9.49906V5.91577Z" fill="url(#paint7_linear_5691_15330)"/>
<path d="M3.06938 10.9158H2.35938V11.6258H3.06938V10.9158Z" fill="url(#paint8_linear_5691_15330)"/>
<path d="M9.49906 10.9158H8.78906V11.6258H9.49906V10.9158Z" fill="url(#paint9_linear_5691_15330)"/>
<path d="M18.4297 13.0657C17.4497 13.0657 16.6397 12.2657 16.6397 11.2757C16.6397 10.9057 16.7497 10.5457 16.9697 10.2457L16.3897 9.83569C16.0897 10.2657 15.9297 10.7657 15.9297 11.2857C15.9297 12.6657 17.0497 13.7857 18.4297 13.7857C18.9497 13.7857 19.4497 13.6257 19.8797 13.3257L19.4697 12.7457C19.1597 12.9457 18.7997 13.0657 18.4297 13.0657Z" fill="url(#paint10_linear_5691_15330)"/>
<path d="M18.4305 8.77588C17.9105 8.77588 17.4105 8.93588 16.9805 9.23588L17.3905 9.81588C17.6905 9.59588 18.0505 9.48588 18.4205 9.48588C19.4005 9.48588 20.2105 10.2859 20.2105 11.2759C20.2105 11.6459 20.1005 12.0059 19.8805 12.3059L20.4605 12.7159C20.7605 12.2859 20.9205 11.7859 20.9205 11.2659C20.9305 9.89588 19.8105 8.77588 18.4305 8.77588Z" fill="url(#paint11_linear_5691_15330)"/>
<defs>
<linearGradient id="paint0_linear_5691_15330" x1="12.037" y1="-1.47956" x2="12.2079" y2="10.2546" gradientUnits="userSpaceOnUse">
<stop stop-color="#10BEF0"/>
<stop offset="1" stop-color="#10BEF0" stop-opacity="0"/>
</linearGradient>
<linearGradient id="paint1_linear_5691_15330" x1="11.8175" y1="-1.4764" x2="11.9884" y2="10.2578" gradientUnits="userSpaceOnUse">
<stop stop-color="#10BEF0"/>
<stop offset="1" stop-color="#10BEF0" stop-opacity="0"/>
</linearGradient>
<linearGradient id="paint2_linear_5691_15330" x1="18.2427" y1="-1.56999" x2="18.4136" y2="10.1642" gradientUnits="userSpaceOnUse">
<stop stop-color="#10BEF0"/>
<stop offset="1" stop-color="#10BEF0" stop-opacity="0"/>
</linearGradient>
<linearGradient id="paint3_linear_5691_15330" x1="5.78233" y1="-1.38853" x2="5.95313" y2="10.3457" gradientUnits="userSpaceOnUse">
<stop stop-color="#10BEF0"/>
<stop offset="1" stop-color="#10BEF0" stop-opacity="0"/>
</linearGradient>
<linearGradient id="paint4_linear_5691_15330" x1="12.8087" y1="-1.49089" x2="12.9796" y2="10.2433" gradientUnits="userSpaceOnUse">
<stop stop-color="#10BEF0"/>
<stop offset="1" stop-color="#10BEF0" stop-opacity="0"/>
</linearGradient>
<linearGradient id="paint5_linear_5691_15330" x1="10.6656" y1="-1.45969" x2="10.8365" y2="10.2745" gradientUnits="userSpaceOnUse">
<stop stop-color="#10BEF0"/>
<stop offset="1" stop-color="#10BEF0" stop-opacity="0"/>
</linearGradient>
<linearGradient id="paint6_linear_5691_15330" x1="2.60368" y1="-1.34223" x2="2.77458" y2="10.3919" gradientUnits="userSpaceOnUse">
<stop stop-color="#10BEF0"/>
<stop offset="1" stop-color="#10BEF0" stop-opacity="0"/>
</linearGradient>
<linearGradient id="paint7_linear_5691_15330" x1="9.03096" y1="-1.43583" x2="9.20176" y2="10.2983" gradientUnits="userSpaceOnUse">
<stop stop-color="#10BEF0"/>
<stop offset="1" stop-color="#10BEF0" stop-opacity="0"/>
</linearGradient>
<linearGradient id="paint8_linear_5691_15330" x1="2.53088" y1="-1.34123" x2="2.70178" y2="10.393" gradientUnits="userSpaceOnUse">
<stop stop-color="#10BEF0"/>
<stop offset="1" stop-color="#10BEF0" stop-opacity="0"/>
</linearGradient>
<linearGradient id="paint9_linear_5691_15330" x1="8.95806" y1="-1.43483" x2="9.12896" y2="10.2994" gradientUnits="userSpaceOnUse">
<stop stop-color="#10BEF0"/>
<stop offset="1" stop-color="#10BEF0" stop-opacity="0"/>
</linearGradient>
<linearGradient id="paint10_linear_5691_15330" x1="17.7019" y1="-1.56221" x2="17.8728" y2="10.172" gradientUnits="userSpaceOnUse">
<stop stop-color="#10BEF0"/>
<stop offset="1" stop-color="#10BEF0" stop-opacity="0"/>
</linearGradient>
<linearGradient id="paint11_linear_5691_15330" x1="18.785" y1="-1.57782" x2="18.9558" y2="10.1564" gradientUnits="userSpaceOnUse">
<stop stop-color="#10BEF0"/>
<stop offset="1" stop-color="#10BEF0" stop-opacity="0"/>
</linearGradient>
</defs>
</svg>
