<svg width="64" height="47" viewBox="0 0 64 47" fill="none" xmlns="http://www.w3.org/2000/svg">
<g clip-path="url(#clip0_6204_14627)">
<path fill-rule="evenodd" clip-rule="evenodd" d="M4.81707 0.150391H59.1821C60.3104 0.153093 61.3917 0.602518 62.1896 1.40037C62.9874 2.19822 63.4369 3.27956 63.4396 4.40789V42.5923C63.4355 43.7203 62.9857 44.8008 62.1881 45.5984C61.3905 46.3959 60.31 46.8458 59.1821 46.8498H4.81707C3.68916 46.8458 2.60859 46.3959 1.81103 45.5984C1.01347 44.8008 0.563615 43.7203 0.55957 42.5923L0.55957 4.40789C0.562273 3.27956 1.0117 2.19822 1.80955 1.40037C2.6074 0.602518 3.68874 0.153093 4.81707 0.150391ZM46.0002 28.0084C46.0728 27.6962 46.2664 27.4257 46.5385 27.2563C46.8106 27.0869 47.1388 27.0326 47.4509 27.1052C47.7631 27.1778 48.0336 27.3714 48.203 27.6435C48.3723 27.9155 48.4267 28.2437 48.3541 28.5559L45.7341 39.7779C45.6615 40.09 45.4679 40.3606 45.1958 40.5299C44.9237 40.6993 44.5955 40.7537 44.2834 40.6811C43.9712 40.6085 43.7007 40.4148 43.5313 40.1428C43.3619 39.8707 43.3076 39.5425 43.3802 39.2304L46.0002 28.0084ZM8.83918 37.6184C8.47817 37.6184 8.13196 37.475 7.87669 37.2198C7.62142 36.9645 7.47801 36.6183 7.47801 36.2573C7.47801 35.8963 7.62142 35.55 7.87669 35.2948C8.13196 35.0395 8.47817 34.8961 8.83918 34.8961H21.6321C21.8109 34.8961 21.9879 34.9313 22.153 34.9997C22.3182 35.0681 22.4682 35.1684 22.5946 35.2948C22.721 35.4212 22.8213 35.5712 22.8897 35.7364C22.9581 35.9015 22.9933 36.0785 22.9933 36.2573C22.9933 36.436 22.9581 36.613 22.8897 36.7782C22.8213 36.9433 22.721 37.0934 22.5946 37.2198C22.4682 37.3462 22.3182 37.4464 22.153 37.5148C21.9879 37.5832 21.8109 37.6184 21.6321 37.6184H8.83918ZM8.83918 29.1188C8.47817 29.1188 8.13196 28.9754 7.87669 28.7201C7.62142 28.4648 7.47801 28.1186 7.47801 27.7576C7.47801 27.3966 7.62142 27.0504 7.87669 26.7951C8.13196 26.5399 8.47817 26.3964 8.83918 26.3964H31.0682C31.4292 26.3964 31.7755 26.5399 32.0307 26.7951C32.286 27.0504 32.4294 27.3966 32.4294 27.7576C32.4294 28.1186 32.286 28.4648 32.0307 28.7201C31.7755 28.9754 31.4292 29.1188 31.0682 29.1188H8.83918ZM8.83918 20.6191C8.47817 20.6191 8.13196 20.4757 7.87669 20.2205C7.62142 19.9652 7.47801 19.619 7.47801 19.258C7.47801 18.897 7.62142 18.5507 7.87669 18.2955C8.13196 18.0402 8.47817 17.8968 8.83918 17.8968H44.0557C44.4167 17.8968 44.7629 18.0402 45.0182 18.2955C45.2734 18.5507 45.4168 18.897 45.4168 19.258C45.4168 19.619 45.2734 19.9652 45.0182 20.2205C44.7629 20.4757 44.4167 20.6191 44.0557 20.6191H8.83918ZM41.8962 36.9941C42.1175 37.2097 42.2478 37.5018 42.2602 37.8105C42.2727 38.1192 42.1664 38.4209 41.9632 38.6536C41.76 38.8863 41.4754 39.0322 41.1679 39.0615C40.8603 39.0907 40.5533 39.001 40.3099 38.8107L35.7044 34.7937C35.5853 34.6897 35.4879 34.5632 35.4178 34.4214C35.3476 34.2797 35.3061 34.1255 35.2957 33.9677C35.2852 33.8098 35.306 33.6515 35.3568 33.5017C35.4076 33.352 35.4875 33.2137 35.5918 33.0948C35.6271 33.0519 35.6666 33.0125 35.7095 32.9771L40.315 28.9653C40.5552 28.7549 40.8692 28.6486 41.1878 28.6697C41.5064 28.6908 41.8035 28.8376 42.0139 29.0779C42.2243 29.3181 42.3306 29.632 42.3095 29.9506C42.2884 30.2692 42.1415 30.5664 41.9013 30.7768L38.3551 33.888L41.8962 36.9941ZM51.7314 38.8159C51.6118 38.92 51.4729 38.9996 51.3225 39.0501C51.1721 39.1005 51.0133 39.1209 50.8551 39.1099C50.6968 39.099 50.5423 39.057 50.4003 38.9864C50.2583 38.9157 50.1316 38.8178 50.0274 38.6982C49.9233 38.5785 49.8437 38.4396 49.7932 38.2892C49.7428 38.1388 49.7224 37.98 49.7334 37.8218C49.7443 37.6635 49.7863 37.509 49.8569 37.367C49.9276 37.225 50.0255 37.0983 50.1451 36.9941L53.6913 33.888L50.1451 30.7819C50.0262 30.6777 49.9289 30.5511 49.8589 30.4094C49.7889 30.2676 49.7474 30.1135 49.737 29.9557C49.7265 29.798 49.7472 29.6397 49.798 29.49C49.8487 29.3402 49.9284 29.2019 50.0325 29.083C50.1367 28.964 50.2633 28.8668 50.405 28.7967C50.5468 28.7267 50.7009 28.6853 50.8587 28.6748C51.0164 28.6644 51.1747 28.6851 51.3245 28.7358C51.4742 28.7865 51.6125 28.8662 51.7314 28.9704L56.3369 32.9823C56.3799 33.0176 56.4193 33.057 56.4546 33.1C56.5589 33.2188 56.6388 33.3571 56.6896 33.5069C56.7404 33.6566 56.7612 33.815 56.7508 33.9728C56.7403 34.1306 56.6988 34.2848 56.6287 34.4265C56.5585 34.5683 56.4611 34.6948 56.342 34.7989L51.7366 38.8159H51.7314ZM60.9424 12.0683H3.26656V43.0068C3.26758 43.1632 3.30031 43.3177 3.36276 43.4611C3.4252 43.6045 3.51608 43.7337 3.62988 43.8409C3.73921 43.9506 3.86927 44.0373 4.01247 44.0962C4.15567 44.1551 4.30916 44.1848 4.46398 44.1838H59.7296C59.8844 44.1848 60.0379 44.1551 60.1811 44.0962C60.3243 44.0373 60.4544 43.9506 60.5637 43.8409C60.6738 43.732 60.7609 43.602 60.8198 43.4587C60.8787 43.3154 60.9082 43.1617 60.9066 43.0068V12.0683H60.9424ZM55.1293 4.93496C55.5454 4.93395 55.9526 5.05644 56.2991 5.28692C56.6456 5.5174 56.916 5.84551 57.076 6.22973C57.2359 6.61394 57.2783 7.03698 57.1978 7.44529C57.1172 7.8536 56.9173 8.22882 56.6233 8.52347C56.3294 8.81811 55.9547 9.01893 55.5466 9.1005C55.1385 9.18206 54.7153 9.14071 54.3307 8.98168C53.9461 8.82265 53.6173 8.55308 53.386 8.20711C53.1547 7.86114 53.0312 7.45431 53.0312 7.03813C53.0312 6.48122 53.2521 5.94704 53.6454 5.55277C54.0387 5.1585 54.5723 4.93632 55.1293 4.93496ZM40.883 4.93496C41.299 4.93496 41.7056 5.05831 42.0515 5.28941C42.3973 5.52051 42.6669 5.84898 42.8261 6.23328C42.9853 6.61758 43.0269 7.04046 42.9458 7.44843C42.8646 7.85641 42.6643 8.23115 42.3702 8.52529C42.076 8.81942 41.7013 9.01973 41.2933 9.10088C40.8853 9.18203 40.4625 9.14038 40.0782 8.9812C39.6939 8.82201 39.3654 8.55244 39.1343 8.20658C38.9032 7.86072 38.7798 7.45409 38.7798 7.03813C38.7798 6.48033 39.0014 5.94538 39.3958 5.55096C39.7903 5.15654 40.3252 4.93496 40.883 4.93496ZM48.0061 4.93496C48.4221 4.93496 48.8287 5.05831 49.1746 5.28941C49.5205 5.52051 49.79 5.84898 49.9492 6.23328C50.1084 6.61758 50.15 7.04046 50.0689 7.44843C49.9877 7.85641 49.7874 8.23115 49.4933 8.52529C49.1992 8.81942 48.8244 9.01973 48.4164 9.10088C48.0085 9.18203 47.5856 9.14038 47.2013 8.9812C46.817 8.82201 46.4885 8.55244 46.2574 8.20658C46.0263 7.86072 45.903 7.45409 45.903 7.03813C45.903 6.48033 46.1245 5.94538 46.519 5.55096C46.9134 5.15654 47.4483 4.93496 48.0061 4.93496Z" fill="#002680"/>
</g>
<defs>
<clipPath id="clip0_6204_14627">
<rect width="62.88" height="46.6995" fill="white" transform="translate(0.55957 0.150391)"/>
</clipPath>
</defs>
</svg>
