<?xml version="1.0" encoding="utf-8"?>
<!-- Generator: Adobe Illustrator 25.2.1, SVG Export Plug-In . SVG Version: 6.00 Build 0)  -->
<svg version="1.1" id="Layer_1" xmlns="http://www.w3.org/2000/svg" xmlns:xlink="http://www.w3.org/1999/xlink" x="0px" y="0px"
	 viewBox="0 0 600 400" style="enable-background:new 0 0 600 400;" xml:space="preserve">
<style type="text/css">
	.st0{fill:#FEC4AD;}
	.st1{fill:#613531;}
	.st2{fill:#DDAE8A;}
	.st3{fill:#FFFFFF;}
	.st4{fill:#002680;}
	.st5{fill:url(#SVGID_1_);}
	.st6{fill:#808194;}
	.st7{fill:#03214C;}
	.st8{fill:url(#SVGID_2_);}
	.st9{fill:url(#SVGID_3_);}
	.st10{fill:url(#SVGID_4_);}
	.st11{fill:url(#SVGID_5_);}
	.st12{fill:url(#SVGID_6_);}
	.st13{fill:url(#SVGID_7_);}
	.st14{fill:url(#SVGID_8_);}
	.st15{fill:url(#SVGID_9_);}
	.st16{fill:url(#SVGID_10_);}
	.st17{fill:url(#SVGID_11_);}
	.st18{fill:#1C67A6;}
	.st19{fill:none;stroke:#AEBFDE;stroke-width:0.25;stroke-miterlimit:10;}
	.st20{fill:url(#SVGID_12_);}
	.st21{fill:url(#SVGID_13_);}
	.st22{fill:url(#SVGID_14_);}
	.st23{fill:url(#SVGID_15_);}
	.st24{fill:#007CFF;}
	.st25{opacity:0.5;fill:#FFFFFF;}
	.st26{opacity:0.1;}
	.st27{fill:#C95B51;}
	.st28{fill:#001D56;}
	.st29{fill:#1A2E35;}
	.st30{fill:#FCB373;}
	.st31{fill:#EC873E;}
	.st32{fill:#263237;}
	.st33{opacity:0.3;}
	.st34{opacity:0.2;}
	.st35{opacity:0.4;}
	.st36{fill:url(#SVGID_16_);}
	.st37{opacity:0.7;fill:#FFFFFF;}
	.st38{opacity:0.6;fill:#FFFFFF;}
	.st39{fill:url(#SVGID_17_);}
	.st40{fill:url(#SVGID_18_);}
	.st41{fill:url(#SVGID_19_);}
	.st42{fill:#001E5B;}
	.st43{opacity:0.1;fill:#1A2E35;}
	.st44{opacity:0.2;fill:#FFFFFF;}
	.st45{fill:url(#SVGID_20_);}
	.st46{opacity:0.4;fill:#002680;}
	.st47{opacity:0.3;fill:#001E5B;}
	.st48{opacity:0.5;fill:#001E5B;}
	.st49{fill:url(#SVGID_21_);}
	.st50{fill:url(#SVGID_22_);}
	.st51{opacity:0.7;fill:#002680;}
	.st52{fill:url(#SVGID_23_);}
	.st53{opacity:0.7;fill:url(#SVGID_24_);}
	.st54{opacity:0.3;fill:#FFFFFF;}
	.st55{fill:#FFC3BD;}
	.st56{fill:url(#SVGID_25_);}
	.st57{opacity:0.1;fill:#FFFFFF;}
	.st58{opacity:0.5;fill:#002680;}
	.st59{fill:url(#SVGID_26_);}
	.st60{opacity:0.5;fill:url(#SVGID_27_);}
	.st61{opacity:0.7;}
	.st62{opacity:0.2;fill:#002680;}
	.st63{fill:url(#SVGID_28_);}
	.st64{fill:url(#SVGID_29_);}
	.st65{fill:url(#SVGID_30_);}
	.st66{fill:url(#SVGID_31_);}
	.st67{fill:#FF8935;}
</style>
<g>
	<g>
		<path class="st24" d="M381.69,297.07c0,26.97,45.37,33.56,101.34,33.56s78.44-6.59,78.44-33.56c0-26.97-15.8-59.75-71.77-59.75
			C433.73,237.32,381.69,270.11,381.69,297.07z"/>
		<path class="st25" d="M381.69,297.07c0,26.97,45.37,33.56,101.34,33.56s78.44-6.59,78.44-33.56c0-26.97-15.8-59.75-71.77-59.75
			C433.73,237.32,381.69,270.11,381.69,297.07z"/>
		<path class="st24" d="M374.37,259.28c-2.06,37.08,8.19,57.1,31.57,58.4c23.38,1.3,44-27.71,46.06-64.79
			c2.06-37.08-21.49-65.49-44.86-66.78C383.76,184.81,376.43,222.2,374.37,259.28z"/>
		<path class="st25" d="M374.37,259.28c-2.06,37.08,8.19,57.1,31.57,58.4c23.38,1.3,44-27.71,46.06-64.79
			c2.06-37.08-21.49-65.49-44.86-66.78C383.76,184.81,376.43,222.2,374.37,259.28z"/>
		<path class="st26" d="M488.54,240.51c0,0,21.75-2.76,23.67,4.92c1.92,7.68-35.88,3.45-43.46,11.13
			c-7.58,7.68,24.65,11.62,17.63,16.21c-5.51,3.61-24.33-12.76-48.38-6.62c-24.05,6.14-27.47-11.99-24.8-28.83
			c2.67-16.84,4.63-34.95,11.9-33.57C432.39,205.13,456.04,238.28,488.54,240.51z"/>
		<path class="st26" d="M420.9,268c0,0-22.51-3.95-23.75,5.47C395.91,282.89,394.19,268.95,420.9,268z"/>
		<path class="st26" d="M384.61,307.79c-6.33-7.41-9.75-18.91-10.38-34.3c2.9,29.32,19.92,48.32,87.89,51.39
			c68.12,3.07,83.1-17.27,90.39-14.84c3.06,1.02,3.07,3.83,2.06,6.74c-10.38,10.74-33.03,13.86-71.55,13.86
			C435.39,330.63,395.45,325.84,384.61,307.79z"/>
		<g>
			<path class="st27" d="M501.55,182.32c0,0-3.18,0.5-5.05,2.41c-1.87,1.91-7.4,1.71-7.4,1.71l-0.55,6.24l12.6-0.73L501.55,182.32z"
				/>
			<path class="st4" d="M450.79,145c1.65-0.09,7.93,3.19,11.73,19.79c3.79,16.6,2.95,22.17,32.4,20.28l-0.96,8.27
				c0,0-25.51,2.74-33.13-3.38C453.24,183.87,444.71,145.34,450.79,145z"/>
			<path class="st28" d="M459.26,165.42l1.44,2.54c0,0-1.58,15.64,1.43,22.86c-0.47-0.27-0.91-0.55-1.3-0.86
				c-2.04-1.64-4.15-5.64-6.03-10.61L459.26,165.42z"/>
			<g>
				<path class="st29" d="M417.23,114.49c0,0-0.22,4.84-2.47,5.84c-2.25,0.99,1.65,6.54,0.57,9.93c-1.09,3.39-3.61,6.44-0.91,10.99
					c0,0-0.58-3.79,1.33-6.05c0,0-0.8,6.36,1.26,6.5c2.06,0.14,2.46-1.72,5.84-0.93c3.38,0.79,0.4-5.19,0.4-5.19s1.36,0.9,2.27,4.08
					c0.91,3.17,9.85-0.49,13.49,0.82c3.64,1.31,4.65-5.42,4.65-5.42s1.62,3.99,0.31,5.36c0,0,2.86-0.82,3.18-4.62
					c0,0,0.84,1.15,0.41,3.57c0,0,2.76-0.2,2.07-5.54c-0.69-5.34-4.86-6.88-5.94-11.12c-1.08-4.24-14.44-12.45-14.44-12.45
					L417.23,114.49z"/>
				<path class="st30" d="M424.41,130.81l11.38,7.41c-0.04,7.99,5.73,7.57,5.73,7.57s0.09,2.79-6.87,3.81
					c-6.96,1.03-9.36,0.75-9.36,0.75C428.77,146.21,426.14,136.24,424.41,130.81z"/>
				<path class="st26" d="M436.58,142.56c-0.48-1.06-0.8-2.46-0.79-4.34l-10.16-6.61l-0.64,1.13
					C425,132.75,428.85,143.01,436.58,142.56z"/>
				<path class="st30" d="M421.12,118.62c1.16,9.29,1.44,13.24,6.45,17.73c7.53,6.75,18.68,3.31,20.33-6.14
					c1.48-8.5-0.65-22.25-10.01-25.39c-6.67-2.28-13.92,1.28-16.2,7.95C421.04,114.65,420.85,116.66,421.12,118.62z"/>
				<path class="st31" d="M441.65,124.09c0.78,1.69,1.79,3.27,3.01,4.68c-0.74,0.61-1.72,0.86-2.67,0.69L441.65,124.09z"/>
				<path class="st32" d="M433.47,119.25c-0.06-0.01-0.12-0.04-0.18-0.08c-0.16-0.13-0.19-0.36-0.06-0.52c0,0,0,0,0-0.01
					c0.85-1.13,2.2-1.77,3.61-1.71c0.2,0.03,0.35,0.21,0.33,0.41c-0.02,0.2-0.2,0.35-0.4,0.33c-1.17-0.02-2.27,0.51-2.98,1.44
					C433.73,119.22,433.6,119.27,433.47,119.25z"/>
				<path class="st32" d="M447.24,117.78c-0.06-0.01-0.12-0.04-0.18-0.08c-0.91-0.72-2.11-0.96-3.23-0.65
					c-0.19,0.07-0.41-0.02-0.48-0.21c0,0,0,0,0,0c-0.07-0.2,0.04-0.41,0.23-0.48c1.35-0.4,2.82-0.12,3.93,0.75
					c0.17,0.12,0.21,0.35,0.09,0.52C447.53,117.74,447.38,117.8,447.24,117.78L447.24,117.78z"/>
				<g>
					<path class="st32" d="M436.21,123.17c0.05,0.75,0.49,1.34,0.99,1.32c0.5-0.03,0.86-0.67,0.8-1.43
						c-0.05-0.77-0.49-1.34-0.98-1.31C436.54,121.77,436.17,122.41,436.21,123.17z"/>
					<path class="st32" d="M444.8,122.64c0.05,0.75,0.49,1.34,0.98,1.31c0.49-0.03,0.86-0.67,0.81-1.43
						c-0.04-0.76-0.49-1.34-0.98-1.31C445.12,121.24,444.74,121.87,444.8,122.64z"/>
					<path class="st32" d="M445.39,121.26l1.79-0.64C447.18,120.63,446.33,122.11,445.39,121.26z"/>
					<path class="st32" d="M436.81,121.8l1.79-0.64C438.6,121.16,437.75,122.64,436.81,121.8z"/>
				</g>
				<path class="st29" d="M437.15,130.78c-0.2-0.23-0.38-0.48-0.54-0.74c-0.06-0.08-0.04-0.19,0.05-0.25c0,0,0,0,0.01,0
					c0.09-0.05,0.2-0.02,0.25,0.07c0.81,1.34,2.2,2.22,3.75,2.37c0.1,0,0.18,0.08,0.18,0.19c0,0.1-0.08,0.18-0.19,0.18
					C439.29,132.48,438.03,131.83,437.15,130.78z"/>
				<path class="st29" d="M438.06,105.45c0,0,4.99,5.54-0.45,7.75c-5.44,2.21-10.33,5.48-11.13,10.06c-0.8,4.58-5.23,4.73-5.23,4.73
					s-7.19-9.11-2.55-18.69C423.34,99.73,436.16,102.11,438.06,105.45z"/>
				<path class="st29" d="M423.65,106.89c0,0,6-9.29,16.06-4.79c10.06,4.5,10.5,12.12,7.97,11.37c-2.53-0.75-6.55-1.52-9.43-6.72
					C435.37,101.56,423.65,106.89,423.65,106.89z"/>
				<path class="st29" d="M425.12,124.38c0,0,4.96-0.28,2.6,6.24C427.71,130.63,427.35,126.5,425.12,124.38z"/>
				<path class="st30" d="M419.37,126.13c0.63,1.7,1.9,3.08,3.54,3.84c2.19,0.99,3.64-0.88,3.34-3.13
					c-0.27-2.02-1.74-4.98-4.08-5.02c-1.71,0.02-3.07,1.42-3.05,3.13C419.13,125.36,419.21,125.76,419.37,126.13z"/>
			</g>
			<polygon class="st30" points="516.44,304.32 521.48,324.98 528.71,322.41 526.57,301.44 			"/>
			<g>
				<path class="st4" d="M529.29,321.24l-8.75,0.17c-0.38,0.01-0.7,0.28-0.78,0.65l-1.67,8.22c-0.15,0.73,0.31,1.44,1.04,1.59
					c0.09,0.02,0.19,0.03,0.28,0.03c3.62-0.13,6.85-0.39,11.36-0.47c5.33-0.1,3.99,0.57,10.25,0.54c3.77-0.02,4.39-4.32,2.78-4.5
					c-7.34-0.79-9.45-2.96-12.32-5.53C530.87,321.44,530.08,321.2,529.29,321.24z"/>
			</g>
			<polygon class="st26" points="527.81,313.6 526.57,301.44 516.44,304.32 519.36,316.27 			"/>
			<path class="st4" d="M446.32,204.27l11.56-4.45c0,0,6.08,6.71,9.85,14.7c3.77,7.99-14.4,7.99-14.4,7.99l-5.72-10.74
				L446.32,204.27z"/>
			<path class="st33" d="M446.32,204.27l11.56-4.45c0,0,6.08,6.71,9.85,14.7c3.77,7.99-14.4,7.99-14.4,7.99l-5.72-10.74
				L446.32,204.27z"/>
			<path class="st34" d="M453.04,201.68c3.28,18.1,9.13,14.86,9.13,14.86l-2.56,3.78l-6.96,0.89l-5.03-9.45l-1.3-7.5L453.04,201.68z
				"/>
			<polygon class="st30" points="555,266.79 571.17,286.09 576.86,281.8 562.66,260.34 			"/>
			<g>
				<path class="st4" d="M573.99,276.42l-6.95,5.4c-0.31,0.22-0.42,0.63-0.27,0.98l3.3,7.71c0.29,0.69,1.08,1.01,1.76,0.72
					c0.09-0.04,0.17-0.08,0.25-0.14c2.91-2.17,5.41-4.21,9.08-6.84c4.33-3.11,3.6-1.8,8.74-5.38c3.09-2.16,1.15-6.05-0.27-5.29
					c-6.49,3.52-9.61,2.64-13.44,2.16C575.4,275.69,574.61,275.94,573.99,276.42z"/>
			</g>
			<g class="st35">
				<path d="M529.29,321.24l-8.75,0.17c-0.38,0.01-0.7,0.28-0.78,0.65l-1.67,8.22c-0.15,0.73,0.31,1.44,1.04,1.59
					c0.09,0.02,0.19,0.03,0.28,0.03c3.62-0.13,6.85-0.39,11.36-0.47c5.33-0.1,3.99,0.57,10.25,0.54c3.77-0.02,4.39-4.32,2.78-4.5
					c-7.34-0.79-9.45-2.96-12.32-5.53C530.87,321.44,530.08,321.2,529.29,321.24z"/>
			</g>
			<g class="st35">
				<path d="M573.99,276.42l-6.95,5.4c-0.31,0.22-0.42,0.63-0.27,0.98l3.3,7.71c0.29,0.69,1.08,1.01,1.76,0.72
					c0.09-0.04,0.17-0.08,0.25-0.14c2.91-2.17,5.41-4.21,9.08-6.84c4.33-3.11,3.6-1.8,8.74-5.38c3.09-2.16,1.15-6.05-0.27-5.29
					c-6.49,3.52-9.61,2.64-13.44,2.16C575.4,275.69,574.61,275.94,573.99,276.42z"/>
			</g>
			<polygon class="st26" points="563.81,277.31 570.66,272.44 562.66,260.34 555,266.79 			"/>
			<path class="st4" d="M422.85,212.09c0,0-4.2,24.23,4.16,39.9c8.36,15.67,26.93,18.51,74.62-32.02c0,0,16.78,7.8,57.15,53.35
				l8.98-6.95c0,0-35.14-57.08-52.13-70.63c-17.16-13.68-54.67,24.54-59.45,22.42c-4.26-1.89-6.27-15.07-6.27-15.07L422.85,212.09z"
				/>
			<path class="st35" d="M422.85,212.09c0,0-4.2,24.23,4.16,39.9c8.36,15.67,26.93,18.51,74.62-32.02c0,0,16.78,7.8,57.15,53.35
				l8.98-6.95c0,0-35.14-57.08-52.13-70.63c-17.16-13.68-54.67,24.54-59.45,22.42c-4.26-1.89-6.27-15.07-6.27-15.07L422.85,212.09z"
				/>
			<polygon class="st4" points="555.91,273.25 559.63,276.54 570.23,267.74 568.41,263.02 			"/>
			<polygon class="st35" points="555.91,273.25 559.63,276.54 570.23,267.74 568.41,263.02 			"/>
			<path class="st4" d="M465.69,252.37c9.65-6.64,21.44-17.04,35.95-32.41c0,0,13.79-5.1,18.63,4.75
				c4.84,9.85,7.94,81.09,7.94,81.09l-11.49,3.31c0,0-20.53-64.29-20.42-68.53L465.69,252.37z"/>
			<path class="st35" d="M465.69,251.51c9.65-6.64,21.44-17.04,35.95-32.41c0,0,13.79-5.1,18.63,4.75
				c4.84,9.85,7.94,81.09,7.94,81.09l-11.49,3.31c0,0-20.53-64.29-20.42-68.53L465.69,251.51z"/>
			<path class="st34" d="M520.27,224.72c-0.89-1.81-2.08-3.11-3.44-4.03c4.1,2.16,9.86,7.39,10.55,19.82c0,0,0,0,0,0
				c-1.63-1.54-3.17-2.96-4.64-4.29C521.98,230.66,521.16,226.52,520.27,224.72z"/>
			<path class="st34" d="M501.64,219.96c0,0,2.11-0.78,4.96-1.14c-1.65,3.2-7.68,13.98-18.83,25.05l-22.08,8.5
				C475.34,245.74,487.13,235.33,501.64,219.96z"/>
			<polygon class="st4" points="514.68,307.81 516.14,312.49 529.47,308.52 529.64,303.47 			"/>
			<polygon class="st35" points="514.68,307.81 516.14,312.49 529.47,308.52 529.64,303.47 			"/>
			<path class="st4" d="M461.4,203.03c0,0-3.43,5.58-39.76,11.11c0,0,1.6-11.22-2.23-27.29c-3.83-16.06-18.02-31.16-4.18-35.06
				s37.77-11.93,39.82-3.24c2.05,8.69,5.81,12.48,5.65,19.41C460.53,174.89,455.5,179.92,461.4,203.03z"/>
			<linearGradient id="SVGID_1_" gradientUnits="userSpaceOnUse" x1="444.2245" y1="215.8665" x2="432.8321" y2="150.2463">
				<stop  offset="0" style="stop-color:#10BEF0"/>
				<stop  offset="1" style="stop-color:#10BEF0;stop-opacity:0"/>
			</linearGradient>
			<path class="st5" d="M461.4,203.03c0,0-3.43,5.58-39.76,11.11c0,0,1.6-11.22-2.23-27.29c-3.83-16.06-18.02-31.16-4.18-35.06
				s37.77-11.93,39.82-3.24c2.05,8.69,5.81,12.48,5.65,19.41C460.53,174.89,455.5,179.92,461.4,203.03z"/>
			<path class="st4" d="M423.28,149.53c0,0,19.33,1.11,18.19-4.38c0,0-3.76-1.73-3.03-3.77c0.73-2.04-9.22,0.07-13.11-0.49
				c-1.59-0.23-0.57,1.84-0.69,4.06C424.52,147.17,423.28,149.53,423.28,149.53z"/>
			<path class="st28" d="M420.22,190.63l14.13-0.18l4.81-3.27l5.44-2.4l0.71,1.92c0,0-16.88,19.64-23.41,17.91
				C421.75,200.82,421.29,196.06,420.22,190.63z"/>
			<path class="st28" d="M432.2,186.59c0,0-5.42,1.65-6.34-2.29c-1.33-5.68-5.3-21.48-9.32-27.55c-4.39-6.63,4.25,25.05,4.25,25.05
				l1.92,6.67l3.02,4.1l6.54-4.64L432.2,186.59z"/>
			<path class="st28" d="M442.09,147.63c0,0,0.67,3.7-13.85,3.37C428.23,151,445.17,155.05,442.09,147.63z"/>
			<g>
				<g>
					<polygon class="st29" points="455.63,178.51 455.43,176.94 454.33,177.6 					"/>
					<polygon class="st37" points="455.63,178.51 455.43,176.94 454.33,177.6 					"/>
				</g>
				<polygon class="st29" points="442.4,159.08 442.58,158.06 443.75,157.37 444.73,157.68 455.28,175.29 455.51,176.99 
					454.34,177.69 452.95,176.68 				"/>
				<polygon class="st38" points="442.4,159.08 442.58,158.06 443.75,157.37 444.73,157.68 455.28,175.29 455.51,176.99 
					454.34,177.69 452.95,176.68 				"/>
				
					<rect x="447.68" y="157.71" transform="matrix(0.8577 -0.5141 0.5141 0.8577 -22.4284 254.3584)" class="st25" width="1.36" height="19.98"/>
			</g>
			<path class="st4" d="M411.89,152.73c-4.94,1.39-5.25,8.08-0.75,24.48c4.5,16.4,7.79,26.87,16.48,22.93
				c8.7-3.94,18.74-14.51,18.74-14.51l-4.35-7.1c0,0-14.17,12.19-17.14,9.86C421.9,186.06,419.45,150.61,411.89,152.73z"/>
			<linearGradient id="SVGID_2_" gradientUnits="userSpaceOnUse" x1="481.8067" y1="192.8342" x2="463.8067" y2="169.3659">
				<stop  offset="0" style="stop-color:#10BEF0"/>
				<stop  offset="1" style="stop-color:#10BEF0;stop-opacity:0"/>
			</linearGradient>
			<path class="st8" d="M450.79,145c1.65-0.09,7.93,3.19,11.73,19.79c3.79,16.6,2.95,22.17,32.4,20.28l-0.96,8.27
				c0,0-25.51,2.74-33.13-3.38C453.24,183.87,444.71,145.34,450.79,145z"/>
			<linearGradient id="SVGID_3_" gradientUnits="userSpaceOnUse" x1="444.5232" y1="201.183" x2="410.8017" y2="170.4235">
				<stop  offset="0" style="stop-color:#10BEF0"/>
				<stop  offset="1" style="stop-color:#10BEF0;stop-opacity:0"/>
			</linearGradient>
			<path class="st9" d="M411.89,152.73c-4.94,1.39-5.25,8.08-0.75,24.48c4.5,16.4,7.79,26.87,16.48,22.93
				c8.7-3.94,18.74-14.51,18.74-14.51l-4.35-7.1c0,0-14.17,12.19-17.14,9.86C421.9,186.06,419.45,150.61,411.89,152.73z"/>
			<path class="st30" d="M440.14,181.33l5.99-5.04c0,0-0.88-10.07,2.38-10.19c2.67-0.1,4.81,3.1,5.29,7.47
				c0.48,4.37-4.46,7.09-4.46,7.09l-5.79,6.43L440.14,181.33z"/>
			<g>
				<g>
					<path class="st4" d="M490.45,203.73l-26.52-3.67c-0.56-0.08-0.88-0.69-0.62-1.19l16.46-32.06c0.45-0.88,1.42-1.38,2.4-1.25
						l26.52,3.67c0.56,0.08,0.88,0.69,0.62,1.19l-16.46,32.06C492.4,203.37,491.44,203.87,490.45,203.73z"/>
				</g>
				<g>
					<path class="st4" d="M491.49,203.88l-26.52-3.67c-0.56-0.08-0.88-0.69-0.62-1.19l16.46-32.06c0.45-0.88,1.42-1.38,2.4-1.25
						l26.52,3.67c0.56,0.08,0.88,0.69,0.62,1.19l-16.46,32.06C493.44,203.51,492.47,204.01,491.49,203.88z"/>
					<linearGradient id="SVGID_4_" gradientUnits="userSpaceOnUse" x1="480.6118" y1="204.5789" x2="499.4472" y2="149.2878">
						<stop  offset="0" style="stop-color:#10BEF0"/>
						<stop  offset="1" style="stop-color:#10BEF0;stop-opacity:0"/>
					</linearGradient>
					<path class="st10" d="M491.49,203.88l-26.52-3.67c-0.56-0.08-0.88-0.69-0.62-1.19l16.46-32.06c0.45-0.88,1.42-1.38,2.4-1.25
						l26.52,3.67c0.56,0.08,0.88,0.69,0.62,1.19l-16.46,32.06C493.44,203.51,492.47,204.01,491.49,203.88z"/>
					<g>
						<path class="st4" d="M506.11,174.92l-3.06-0.42c-0.06-0.01-0.1-0.08-0.07-0.14l1.9-3.7c0.05-0.1,0.16-0.16,0.28-0.14
							l3.06,0.42c0.06,0.01,0.1,0.08,0.07,0.14l-1.9,3.7C506.33,174.88,506.22,174.94,506.11,174.92z"/>
					</g>
				</g>
				<path class="st3" d="M489.6,185.1c-0.45,1.25-1.49,2.18-2.32,2.06c-0.83-0.11-1.13-1.22-0.68-2.48
					c0.45-1.25,1.49-2.18,2.32-2.06C489.75,182.74,490.05,183.85,489.6,185.1z"/>
			</g>
			<path class="st30" d="M506.02,185.16c0.2-0.72,0.1-1.49-0.24-2.16c-0.54-1.06-1.52-2.43-2.88-2.29c-2.2,0.22-2.78,1.79-3.34,3.84
				c-0.56,2.05-2.3,5.68-0.32,6.94C501.14,192.7,504.07,192.04,506.02,185.16z"/>
		</g>
	</g>
	<path class="st29" d="M317.4,84.5c0,0,13.47-8.29,20.48,3.61c4.98,8.45,2.22,16.96,6.16,23.83c6.14,10.71,2.05,15.83-7.16,17.75
		s-24,1.66-21.94-9.08C317.04,109.61,306.75,84.35,317.4,84.5z"/>
	<path class="st30" d="M332.12,108.48c0,0,1.12,15.77,4.06,16.04c0,0-6.94,3.47-13.75,0l-0.48-7.25L332.12,108.48z"/>
	<g>
		<polygon class="st24" points="267.09,331.38 261.67,331.38 263.38,247.21 270.61,247.21 		"/>
		<polygon class="st37" points="267.09,331.38 261.67,331.38 263.38,247.21 270.61,247.21 		"/>
	</g>
	<g>
		<polygon class="st42" points="311.55,331.38 306.13,331.38 307.85,247.21 315.07,247.21 		"/>
	</g>
	<g>
		<polygon class="st42" points="355.98,331.38 361.4,331.38 359.69,247.21 352.46,247.21 		"/>
	</g>
	<rect x="267.4" y="247.21" class="st24" width="88.95" height="7.87"/>
	<rect x="267.4" y="247.21" class="st42" width="88.95" height="7.87"/>
	<polygon class="st24" points="311.52,331.38 316.94,331.38 315.22,247.21 308,247.21 	"/>
	<polygon class="st4" points="311.52,331.38 316.94,331.38 315.22,247.21 308,247.21 	"/>
	<g>
		<path class="st29" d="M361.75,147.51h-14.74c-7.74,0-15.95,4-18.12,11.42c-6.15,20.99-10.8,86.82-10.8,86.82h39.44
			c4.79,0,8.82-3.6,9.34-8.37l8.26-74.92C376.03,154.49,369.78,147.51,361.75,147.51z"/>
		<path class="st38" d="M361.75,147.51h-14.74c-7.74,0-15.95,4-18.12,11.42c-6.15,20.99-10.8,86.82-10.8,86.82h39.44
			c4.79,0,8.82-3.6,9.34-8.37l8.26-74.92C376.03,154.49,369.78,147.51,361.75,147.51z"/>
		<path class="st29" d="M352.77,147.51h-14.74c-7.74,0-15.95,4-18.12,11.42c-6.15,20.99-10.8,86.82-10.8,86.82h38.07
			c5.57,0,10.25-4.19,10.86-9.73l8.11-73.55C367.04,154.49,360.8,147.51,352.77,147.51z"/>
		<path class="st25" d="M352.77,147.51h-14.74c-7.74,0-15.95,4-18.12,11.42c-6.15,20.99-10.8,86.82-10.8,86.82h38.07
			c5.57,0,10.25-4.19,10.86-9.73l8.11-73.55C367.04,154.49,360.8,147.51,352.77,147.51z"/>
	</g>
	<path class="st29" d="M322.94,247.21h-57.65c-5.32,0-9.63-4.31-9.63-9.63l0,0c0-5.32,4.31-9.63,9.63-9.63h57.65V247.21z"/>
	<path class="st25" d="M322.94,247.21h-57.65c-5.32,0-9.63-4.31-9.63-9.63l0,0c0-5.32,4.31-9.63,9.63-9.63h57.65V247.21z"/>
	<path class="st29" d="M358.19,247.21h-37.24c-5.09,0-9.21-4.12-9.21-9.21v-0.83c0-5.09,4.12-9.21,9.21-9.21h37.24
		c5.32,0,9.63,4.31,9.63,9.63l0,0C367.81,242.9,363.5,247.21,358.19,247.21z"/>
	<path class="st38" d="M358.19,247.21h-37.24c-5.09,0-9.21-4.12-9.21-9.21v-0.83c0-5.09,4.12-9.21,9.21-9.21h37.24
		c5.32,0,9.63,4.31,9.63,9.63l0,0C367.81,242.9,363.5,247.21,358.19,247.21z"/>
	<path class="st30" d="M304.13,145.61c0,0,1.29,14-5.33,19.93c-6.02,5.39-15.74,8.05-15.74,8.05l-8.57-2.5
		c-0.82-0.24-1.69,0.01-2.21,0.65l-3.83,4.65c-0.77,0.93-0.57,2.35,0.44,3.12l0,0c0.47,0.36,1.07,0.53,1.64,0.46l4.44-0.54
		c0,0,4.06,0.75,5.4,0.65c1.05-0.08,4.03-1.13,4.03-1.13s15.28-1.31,21.79-7.83c6.52-6.52,8.15-20.04,8.15-20.04L304.13,145.61z"/>
	<polygon class="st30" points="259.14,294.81 260.13,325.45 266.99,325.45 270.2,294.26 	"/>
	<path class="st29" d="M260.02,322.31l7.82,0.04c0.34,0,0.63,0.24,0.71,0.57l1.62,7.35c0.15,0.65-0.26,1.3-0.91,1.45
		c-0.08,0.02-0.17,0.03-0.25,0.03c-3.26-0.06-6.15-0.25-10.21-0.25c-4.78-0.01-3.57,0.57-9.2,0.63c-3.39,0.04-4-3.82-2.56-4
		c6.58-0.81,8.48-2.82,11.02-5.16C258.61,322.51,259.31,322.28,260.02,322.31z"/>
	<polygon class="st43" points="267.68,318.73 268.45,311.23 259.67,311.23 259.91,318.73 	"/>
	<path class="st29" d="M339.41,179.66c0,0,21.37,48.55,0.85,48.55s-59.23,0-59.23,0s-2.56,12.91-11.79,83.88h-9.91
		c0,0-1.66-83.12,3.82-95.52c4.29-9.72,31.8-16.66,44.82-19.21c3.5-0.69,6.18-3.52,6.66-7.06l2.89-11.93L339.41,179.66z"/>
	<path class="st34" d="M339.41,179.66c0,0,21.37,48.55,0.85,48.55s-59.23,0-59.23,0s-2.56,12.91-11.79,83.88h-9.91
		c0,0-1.66-83.12,3.82-95.52c4.29-9.72,31.8-16.66,44.82-19.21c3.5-0.69,6.18-3.52,6.66-7.06l2.89-11.93L339.41,179.66z"/>
	<g>
		<polygon class="st29" points="257.43,310.4 258.23,315.79 270,315.79 271.08,310.4 		"/>
		<polygon class="st44" points="257.43,310.4 258.23,315.79 270,315.79 271.08,310.4 		"/>
	</g>
	<g>
		<polygon class="st30" points="279.73,294.83 280.88,325.05 287.44,325.05 292.15,294.27 		"/>
		<polygon class="st43" points="288.41,318.73 289.56,311.23 280.35,311.23 280.64,318.73 		"/>
	</g>
	<path class="st29" d="M281.03,322.31l7.82,0.04c0.34,0,0.63,0.24,0.71,0.57l1.62,7.35c0.15,0.65-0.26,1.3-0.91,1.45
		c-0.08,0.02-0.17,0.03-0.25,0.03c-3.26-0.06-6.15-0.25-10.21-0.25c-4.78-0.01-3.57,0.57-9.2,0.63c-3.39,0.04-4-3.82-2.56-4
		c6.58-0.81,8.48-2.82,11.02-5.16C279.62,322.51,280.32,322.28,281.03,322.31z"/>
	<path class="st29" d="M350.21,180.51c0,0,1.54,0,3.85,11.46c2.94,14.57,7.18,36.24-6.8,36.24c-20.53,0-45.33,0-45.33,0
		s-2.22,5.26-11.86,83.88h-9.91c0,0-5.5-84.12-0.02-96.52c4.22-9.55,25.2-13.91,36.73-15.42c3.29-0.43,6.02-3.08,6.1-6.4
		c0.09-3.46-0.41-13.85-0.41-13.85L350.21,180.51z"/>
	<g>
		<polygon class="st29" points="278.18,310.4 279.31,315.79 290.74,315.79 291.83,310.4 		"/>
		<polygon class="st44" points="278.18,310.4 279.31,315.79 290.74,315.79 291.83,310.4 		"/>
	</g>
	<path class="st24" d="M311.42,124.61c-5.52-0.83-8.65,12.76-8.93,25.6l13.11,3.07C315.59,153.29,321.75,126.17,311.42,124.61z"/>
	<path class="st4" d="M311.42,124.61c-5.52-0.83-8.65,12.76-8.93,25.6l13.11,3.07C315.59,153.29,321.75,126.17,311.42,124.61z"/>
	<path class="st4" d="M314.92,186.59c0,0-0.3-9.1-2.11-20.61c-2.08-13.21-5.64-28.05-4.43-37.45c0.33-2.53,2.38-4.29,5.01-4.29
		h35.85c2.28,0,4.25,2.16,3.98,4.36c-1.24,10.06-4.34,35.13,0.4,58.79C353.61,187.4,326.23,189.58,314.92,186.59z"/>
	<linearGradient id="SVGID_5_" gradientUnits="userSpaceOnUse" x1="332.1015" y1="189.0859" x2="330.9622" y2="142.1492">
		<stop  offset="0" style="stop-color:#10BEF0"/>
		<stop  offset="1" style="stop-color:#10BEF0;stop-opacity:0"/>
	</linearGradient>
	<path class="st11" d="M314.92,186.59c0,0-0.3-9.1-2.11-20.61c-2.08-13.21-5.64-28.05-4.43-37.45c0.33-2.53,2.38-4.29,5.01-4.29
		h35.85c2.28,0,4.25,2.16,3.98,4.36c-1.24,10.06-4.34,35.13,0.4,58.79C353.61,187.4,326.23,189.58,314.92,186.59z"/>
	<g>
		<path class="st30" d="M346.02,142.19c0,0,2.38,16.3-4.81,20.9c-7.19,4.59-22.9,9.36-22.9,9.36l-9.71-2.06
			c-0.52-0.11-1.03,0.1-1.3,0.54l-3.89,6.29c-0.28,0.46-0.23,1.06,0.13,1.5l0,0c0.29,0.35,0.73,0.53,1.17,0.49l5.89-0.61
			c0,0,3.06,0.72,4.08,0.69c1.31-0.04,5.05-1.19,5.05-1.19s22.46-2.19,29.32-9.05c6.86-6.86,7.73-21.09,7.73-21.09L346.02,142.19z"
			/>
		<path class="st24" d="M350.5,124.56c-6.97-0.83-5.12,14.75-5.97,25.66l13.02,1.47C357.55,151.68,360.86,125.79,350.5,124.56z"/>
		<path class="st4" d="M350.5,124.56c-6.97-0.83-5.12,14.75-5.97,25.66l13.02,1.47C357.55,151.68,360.86,125.79,350.5,124.56z"/>
	</g>
	<path class="st24" d="M321.28,125.26c0,0-1.34,11.63,14.02,1.26c0.97-0.66,1.32-1.92,0.83-2.98c-0.53-1.15-1.08-2.77-1.12-4.59
		c-0.02-1.02-1.19-1.62-2.03-1.05c-2.17,1.48-5.69,3.07-10.44,2.68c-0.95-0.08-1.66,0.79-1.41,1.71
		C321.38,123.16,321.52,124.21,321.28,125.26z"/>
	<path class="st4" d="M321.28,125.26c0,0-1.34,11.63,14.02,1.26c0.97-0.66,1.32-1.92,0.83-2.98c-0.53-1.15-1.08-2.77-1.12-4.59
		c-0.02-1.02-1.19-1.62-2.03-1.05c-2.17,1.48-5.69,3.07-10.44,2.68c-0.95-0.08-1.66,0.79-1.41,1.71
		C321.38,123.16,321.52,124.21,321.28,125.26z"/>
	<path class="st26" d="M332.32,110.76L332.32,110.76c-0.14-1.37-0.2-2.27-0.2-2.27l-10.17,8.79l0.25,3.82
		C325.14,120.88,329.42,118.98,332.32,110.76z"/>
	<g>
		<path class="st30" d="M332.94,95.82c0.82,8.98,1.36,12.76-2.43,18.02c-5.7,7.91-16.91,6.96-20.4-1.6
			c-3.14-7.7-3.96-21.08,4.2-25.96c5.81-3.52,13.37-1.66,16.89,4.15C332.19,92.07,332.78,93.92,332.94,95.82z"/>
		<path class="st31" d="M314.03,104.32c-0.34,1.76-0.93,3.47-1.74,5.07c0.84,0.4,1.81,0.41,2.65,0.03L314.03,104.32z"/>
		<path class="st32" d="M319.61,98.65c0.06-0.03,0.11-0.06,0.15-0.11c0.12-0.16,0.09-0.38-0.06-0.5c0,0,0,0-0.01,0
			c-1.06-0.86-2.47-1.15-3.78-0.78c-0.18,0.07-0.28,0.27-0.22,0.46c0.07,0.18,0.26,0.28,0.45,0.22c1.09-0.29,2.25-0.04,3.12,0.67
			C319.37,98.68,319.5,98.7,319.61,98.65z"/>
		<path class="st32" d="M307.15,100.55c-0.06-0.01-0.12-0.03-0.18-0.06c-0.16-0.11-0.21-0.33-0.1-0.5c0,0,0,0,0-0.01
			c0.74-1.14,1.99-1.86,3.35-1.91c0.2,0.01,0.35,0.17,0.35,0.37c-0.01,0.19-0.16,0.35-0.36,0.35c-1.12,0.06-2.15,0.66-2.75,1.61
			C307.39,100.5,307.27,100.56,307.15,100.55z"/>
		<g>
			<path class="st32" d="M318.91,102.21c0.13,0.72-0.15,1.37-0.62,1.46c-0.48,0.09-0.95-0.43-1.08-1.16
				c-0.12-0.73,0.15-1.37,0.62-1.45C318.28,100.97,318.77,101.48,318.91,102.21z"/>
			<path class="st32" d="M310.75,103.68c0.13,0.72-0.15,1.37-0.62,1.45c-0.47,0.09-0.95-0.43-1.09-1.15s0.15-1.37,0.62-1.45
				C310.13,102.44,310.63,102.95,310.75,103.68z"/>
			<path class="st32" d="M309.88,102.52l-1.82-0.19C308.06,102.34,309.19,103.53,309.88,102.52z"/>
			<path class="st32" d="M318.03,101.06l-1.82-0.19C316.21,100.87,317.35,102.06,318.03,101.06z"/>
		</g>
		<path class="st30" d="M336.12,102.54c-0.24,1.73-1.16,3.29-2.55,4.34c-1.86,1.38-3.61-0.08-3.78-2.26
			c-0.16-1.96,0.61-5.05,2.81-5.57c1.61-0.33,3.18,0.71,3.51,2.32C336.2,101.75,336.2,102.15,336.12,102.54z"/>
		<path class="st29" d="M317.42,113.07c-0.26,0.08-0.52,0.14-0.79,0.18c-0.09,0.02-0.17-0.04-0.19-0.13c0,0,0,0,0-0.01
			c-0.01-0.09,0.06-0.17,0.14-0.18c1.37-0.18,2.58-1,3.25-2.22c0.04-0.08,0.13-0.12,0.21-0.08c0.08,0.04,0.12,0.13,0.08,0.21
			C319.56,111.93,318.59,112.73,317.42,113.07z"/>
	</g>
	<path class="st29" d="M320.7,89.52c0,0-2.45,3.84-0.56,6.52c1.9,2.69-11.02-2.94-14.35,2.94c0,0-4.22-18.17,14.91-15.74V89.52z"/>
	<path class="st29" d="M320.14,88.37c0,0-1.43,7.28,3.3,9.52c4.73,2.25,4.61,8.26,8.87,7.25c6.14-1.46,1.75-20.1-8.21-22.11
		C316.73,81.53,320.14,88.37,320.14,88.37z"/>
	<g>
		<g>
			<polygon class="st4" points="185.99,332.65 180.69,332.65 178.37,192.55 188.31,192.55 			"/>
			<polygon class="st4" points="185.99,332.65 180.69,332.65 178.37,192.55 188.31,192.55 			"/>
		</g>
		<g>
			<polygon class="st4" points="244.42,332.65 239.13,332.65 236.81,192.55 246.74,192.55 			"/>
			<polygon class="st46" points="244.42,332.65 239.13,332.65 236.81,192.55 246.74,192.55 			"/>
		</g>
		<g>
			<rect x="183.34" y="190.2" class="st42" width="99.9" height="10.96"/>
			<rect x="183.34" y="190.2" class="st47" width="99.9" height="10.96"/>
		</g>
		<g>
			<rect x="283.24" y="190.2" class="st42" width="58.58" height="10.96"/>
			<rect x="283.24" y="190.2" class="st48" width="58.58" height="10.96"/>
		</g>
		<g>
			<polygon class="st4" points="344.32,332.65 339.03,332.65 336.71,192.55 346.64,192.55 			"/>
			<polygon class="st46" points="344.32,332.65 339.03,332.65 336.71,192.55 346.64,192.55 			"/>
		</g>
		<path class="st4" d="M350.05,192.55h-78.57c-1.46,0-2.65-1.19-2.65-2.65v-4.1c0-1.46,1.19-2.65,2.65-2.65h78.57
			c1.46,0,2.65,1.19,2.65,2.65v4.1C352.7,191.36,351.52,192.55,350.05,192.55z"/>
		<linearGradient id="SVGID_6_" gradientUnits="userSpaceOnUse" x1="362.9697" y1="188.0458" x2="201.6533" y2="187.4382">
			<stop  offset="0" style="stop-color:#10BEF0"/>
			<stop  offset="1" style="stop-color:#10BEF0;stop-opacity:0"/>
		</linearGradient>
		<path class="st12" d="M350.05,192.55h-78.57c-1.46,0-2.65-1.19-2.65-2.65v-4.1c0-1.46,1.19-2.65,2.65-2.65h78.57
			c1.46,0,2.65,1.19,2.65,2.65v4.1C352.7,191.36,351.52,192.55,350.05,192.55z"/>
		<g>
			<path class="st4" d="M279.24,192.55H172.79c-1.46,0-2.65-1.19-2.65-2.65v-4.1c0-1.46,1.19-2.65,2.65-2.65h106.45
				c1.46,0,2.65,1.19,2.65,2.65v4.1C281.89,191.36,280.71,192.55,279.24,192.55z"/>
		</g>
		<g>
			<linearGradient id="SVGID_7_" gradientUnits="userSpaceOnUse" x1="163.6942" y1="187.5471" x2="351.7448" y2="188.4585">
				<stop  offset="0" style="stop-color:#10BEF0"/>
				<stop  offset="1" style="stop-color:#10BEF0;stop-opacity:0"/>
			</linearGradient>
			<path class="st13" d="M279.24,192.55H172.79c-1.46,0-2.65-1.19-2.65-2.65v-4.1c0-1.46,1.19-2.65,2.65-2.65h106.45
				c1.46,0,2.65,1.19,2.65,2.65v4.1C281.89,191.36,280.71,192.55,279.24,192.55z"/>
		</g>
		<g>
			<polygon class="st24" points="285.89,332.65 280.59,332.65 278.27,192.55 288.21,192.55 			"/>
		</g>
		<polygon class="st4" points="285.89,332.65 280.59,332.65 278.27,192.55 288.21,192.55 		"/>
	</g>
	<g>
		<g>
			<path class="st4" d="M274.89,183.15c-0.86,0-1.56-0.7-1.56-1.56s0.7-1.56,1.56-1.56h42.53c0.86,0,1.56,0.7,1.56,1.56
				s-0.7,1.56-1.56,1.56H274.89z"/>
			<path class="st34" d="M274.89,183.15c-0.86,0-1.56-0.7-1.56-1.56s0.7-1.56,1.56-1.56h42.53c0.86,0,1.56,0.7,1.56,1.56
				s-0.7,1.56-1.56,1.56H274.89z"/>
			<path class="st4" d="M278.5,180.45l-5.66-40.28c-0.21-1.48-1.58-2.68-3.06-2.68h-5.42v45.65h11.84
				C277.67,183.14,278.7,181.94,278.5,180.45z"/>
		</g>
		<g>
			<path class="st4" d="M273.85,183.14h-48.08c-1.48,0-2.85-1.2-3.06-2.68l-5.66-40.28c-0.21-1.48,0.82-2.68,2.31-2.68h48.08
				c1.48,0,2.85,1.2,3.06,2.68l5.66,40.28C276.36,181.94,275.33,183.14,273.85,183.14z"/>
			<path class="st51" d="M273.85,183.14h-48.08c-1.48,0-2.85-1.2-3.06-2.68l-5.66-40.28c-0.21-1.48,0.82-2.68,2.31-2.68h48.08
				c1.48,0,2.85,1.2,3.06,2.68l5.66,40.28C276.36,181.94,275.33,183.14,273.85,183.14z"/>
		</g>
		<g>
			<linearGradient id="SVGID_8_" gradientUnits="userSpaceOnUse" x1="268.0246" y1="188.2468" x2="225.1747" y2="132.3792">
				<stop  offset="0" style="stop-color:#10BEF0"/>
				<stop  offset="1" style="stop-color:#10BEF0;stop-opacity:0"/>
			</linearGradient>
			<path class="st14" d="M273.85,183.14h-48.08c-1.48,0-2.85-1.2-3.06-2.68l-5.66-40.28c-0.21-1.48,0.82-2.68,2.31-2.68h48.08
				c1.48,0,2.85,1.2,3.06,2.68l5.66,40.28C276.36,181.94,275.33,183.14,273.85,183.14z"/>
			<linearGradient id="SVGID_9_" gradientUnits="userSpaceOnUse" x1="268.0246" y1="188.2468" x2="225.1747" y2="132.3792">
				<stop  offset="0" style="stop-color:#10BEF0"/>
				<stop  offset="1" style="stop-color:#10BEF0;stop-opacity:0"/>
			</linearGradient>
			<path style="opacity:0.7;fill:url(#SVGID_9_);" d="M273.85,183.14h-48.08c-1.48,0-2.85-1.2-3.06-2.68l-5.66-40.28
				c-0.21-1.48,0.82-2.68,2.31-2.68h48.08c1.48,0,2.85,1.2,3.06,2.68l5.66,40.28C276.36,181.94,275.33,183.14,273.85,183.14z"/>
		</g>
		<path class="st3" d="M248.95,159.22c0.19,1.35-0.75,2.45-2.11,2.45s-2.61-1.1-2.8-2.45c-0.19-1.35,0.75-2.45,2.11-2.45
			S248.76,157.86,248.95,159.22z"/>
	</g>
	<g>
		<path class="st24" d="M104.65,171.47c-5.78,33.7,34.47,16.03,50.5,16.43c1.02,0.03,2.02,0.23,2.99,0.6l4.96,21.38l-4.81,22.14
			l-11.22,17.73H77.23l-50.5-34.17l-12.82-40.08l3.61-64.92l1.6-10.42c0,0,1.6,12.82,36.87,9.62c35.27-3.21,62.91-14.57,70.94-3.21
			C136.55,120.21,108.47,149.19,104.65,171.47z"/>
		<polygon class="st34" points="157.09,226.62 157.09,239.24 136.95,247.35 97.27,245.25 86.84,232.02 91.26,225.11 116.81,225.11 
					"/>
		<rect x="80.78" y="267.88" class="st29" width="12.13" height="55.21"/>
		<rect x="80.78" y="267.88" class="st25" width="12.13" height="55.21"/>
		<polygon class="st29" points="96.04,318.06 77.64,318.06 40.06,325.17 40.06,331.45 47.8,331.45 77.64,325.8 96.04,325.8 
			125.89,331.45 133.62,331.45 133.62,325.17 		"/>
		<polygon class="st54" points="96.04,318.06 77.64,318.06 40.06,325.17 40.06,331.45 47.8,331.45 77.64,325.8 96.04,325.8 
			125.89,331.45 133.62,331.45 133.62,325.17 		"/>
		<g>
			<path class="st4" d="M125.89,334.17c2.58,0,5.16,0,7.74,0c2.42,0,2.43-3.76,0-3.76c-2.58,0-5.16,0-7.74,0
				C123.47,330.4,123.46,334.17,125.89,334.17L125.89,334.17z"/>
		</g>
		<g>
			<path class="st4" d="M40.06,334.17c2.58,0,5.16,0,7.74,0c2.42,0,2.43-3.76,0-3.76c-2.58,0-5.16,0-7.74,0
				C37.64,330.4,37.63,334.17,40.06,334.17L40.06,334.17z"/>
		</g>
		<rect x="80.78" y="267.88" class="st34" width="12.13" height="12.49"/>
		<path class="st24" d="M152.4,234.45H79.84V218.8h72.57c4.32,0,7.82,3.5,7.82,7.82l0,0C160.23,230.94,156.73,234.45,152.4,234.45z"
			/>
		<path class="st26" d="M152.4,234.45H79.84V218.8h72.57c4.32,0,7.82,3.5,7.82,7.82l0,0C160.23,230.94,156.73,234.45,152.4,234.45z"
			/>
		<g>
			<path class="st55" d="M91.6,121.33c0,0,9.29,26.06,16.89,26.65c7.6,0.59,16.9-13.39,16.9-13.39l3.79-9.86l7.64-0.64v12.36
				l-7.84,3.94c0,0-11.98,19.69-21.29,19.2c-9.31-0.49-18.7-14.9-20.61-22.23C86.04,133.33,86.73,124.93,91.6,121.33z"/>
			<g>
				<polygon class="st4" points="138.44,142.78 141.2,120.02 130.67,119.32 130.35,142.23 				"/>
				
					<rect x="130.76" y="116.4" transform="matrix(0.9977 0.0671 -0.0671 0.9977 8.2253 -8.8609)" class="st4" width="10.55" height="3.28"/>
				<linearGradient id="SVGID_10_" gradientUnits="userSpaceOnUse" x1="127.0296" y1="117.6483" x2="151.7891" y2="118.7116">
					<stop  offset="0" style="stop-color:#10BEF0"/>
					<stop  offset="1" style="stop-color:#10BEF0;stop-opacity:0"/>
				</linearGradient>
				<polygon class="st16" points="141.2,120.02 130.67,119.32 130.89,116.05 141.42,116.75 				"/>
				<path class="st4" d="M141.42,116.75l-10.53-0.71l0.12-1.85c0.01-0.21,0.2-0.38,0.41-0.36l9.75,0.66
					c0.21,0.01,0.38,0.2,0.36,0.42L141.42,116.75z"/>
			</g>
			<g>
				<path class="st24" d="M89.16,144.27c0,0-9.96-16.45-3.6-24.25c6.37-7.8,16.09,17.91,16.09,17.91L89.16,144.27z"/>
				<path class="st4" d="M89.16,144.27c0,0-9.96-16.45-3.6-24.25c6.37-7.8,16.09,17.91,16.09,17.91L89.16,144.27z"/>
				<polygon class="st24" points="87.23,143.1 89.12,145.88 103.08,138.66 101.78,135.75 				"/>
				<polygon class="st57" points="87.23,143.1 89.12,145.88 103.08,138.66 101.78,135.75 				"/>
			</g>
			<g>
				<path class="st4" d="M39.24,207.17c0,0-12.49-43.7,2.15-87.16c0,0,19-8.84,46.1-2.36c3.11,0.74,4.99,3.89,4.19,6.98
					c-2.71,10.54-6.9,35.67,3.22,67.43C94.9,192.08,71.14,206.55,39.24,207.17z"/>
				<path class="st58" d="M39.24,207.17c0,0-12.49-43.7,2.15-87.16c0,0,19-8.84,46.1-2.36c3.11,0.74,4.99,3.89,4.19,6.98
					c-2.71,10.54-6.9,35.67,3.22,67.43C94.9,192.08,71.14,206.55,39.24,207.17z"/>
			</g>
			<g>
				<linearGradient id="SVGID_11_" gradientUnits="userSpaceOnUse" x1="60.8953" y1="189.6617" x2="71.832" y2="134.9782">
					<stop  offset="0" style="stop-color:#10BEF0"/>
					<stop  offset="1" style="stop-color:#10BEF0;stop-opacity:0"/>
				</linearGradient>
				<path class="st17" d="M39.24,207.17c0,0-12.49-43.7,2.15-87.16c0,0,19-8.84,46.1-2.36c3.11,0.74,4.99,3.89,4.19,6.98
					c-2.71,10.54-6.9,35.67,3.22,67.43C94.9,192.08,71.14,206.55,39.24,207.17z"/>
				<linearGradient id="SVGID_12_" gradientUnits="userSpaceOnUse" x1="60.8953" y1="189.6617" x2="71.832" y2="134.9782">
					<stop  offset="0" style="stop-color:#10BEF0"/>
					<stop  offset="1" style="stop-color:#10BEF0;stop-opacity:0"/>
				</linearGradient>
				<path style="opacity:0.5;fill:url(#SVGID_12_);" d="M39.24,207.17c0,0-12.49-43.7,2.15-87.16c0,0,19-8.84,46.1-2.36
					c3.11,0.74,4.99,3.89,4.19,6.98c-2.71,10.54-6.9,35.67,3.22,67.43C94.9,192.08,71.14,206.55,39.24,207.17z"/>
			</g>
			<path class="st55" d="M62.99,115.49l9.17,7.95l5.33-4.72c-2.01-1.5-1.46-4.88-0.34-8.54L64.15,99.9
				C64.81,104.73,65.31,111.35,62.99,115.49z"/>
			<g>
				<polygon class="st55" points="129.76,218.05 146.67,224.93 144.76,232.08 126.71,228.36 				"/>
				<g>
					<path class="st29" d="M72.03,193.65c0,0,80.92-28.03,87.6-2.28c6.67,25.76-54.65,43.52-86.78,42.44
						C40.71,232.73,72.03,193.65,72.03,193.65z"/>
					<path class="st33" d="M72.03,193.65c0,0,80.92-28.03,87.6-2.28c6.67,25.76-54.65,43.52-86.78,42.44
						C40.71,232.73,72.03,193.65,72.03,193.65z"/>
				</g>
				<path class="st61" d="M132.19,196.26l-39.27,25.03l6.27,10.28c0,0-3.8,1.26-9.05-11.3l24.3-16.07c0,0-7.61-0.76-7.41-1.96
					c0.32-1.94,17.02-5.67,24.64-7.27C132.43,194.82,132.84,195.84,132.19,196.26z"/>
				<path class="st61" d="M91.49,220.18l6.81,11.54c-9.24,1.59-18.11,2.33-25.46,2.09c-3.42-0.12-6.12-0.67-8.22-1.55l-2.39-4.58
					l5.15-10.86L91.49,220.18z"/>
				<polygon class="st55" points="92.18,221.96 84.54,228.37 88.05,233.82 99.69,232 				"/>
				<polygon class="st29" points="101.73,232.19 93.74,219.6 90.14,222.17 97.05,233.04 				"/>
				<polygon class="st54" points="101.73,232.19 93.74,219.6 90.14,222.17 97.05,233.04 				"/>
				<path class="st29" d="M43.58,220.46c-4.35-7.38-12.75-29.59,7.44-33.45c20.2-3.86,86.54,33.45,86.54,33.45l-3.09,9.71
					l-62.82-10.36c0,0,17.47,15.8-1.64,13.84C54.86,232.09,47.81,227.63,43.58,220.46z"/>
				<polygon class="st29" points="135.93,218.05 132,230.73 135.93,231.27 139.47,220.32 				"/>
				<polygon class="st54" points="135.93,218.05 132,230.73 135.93,231.27 139.47,220.32 				"/>
				<path class="st29" d="M90.29,233.53l-2.75-8.38c-0.1-0.32-0.41-0.52-0.74-0.49l-7.32,0.73c-0.65,0.06-1.13,0.63-1.07,1.28
					c0.01,0.08,0.02,0.17,0.05,0.25c1.05,3.01,2.09,5.64,3.33,9.4c1.46,4.44,0.56,3.49,2.2,8.73c0.99,3.16,4.76,2.56,4.49,1.17
					c-1.24-6.36,0.4-7.6,1.81-10.67C90.53,234.91,90.54,234.19,90.29,233.53z"/>
				<path class="st29" d="M145.17,224.47l-2.84,8.61c-0.11,0.32,0.02,0.68,0.32,0.86l6.49,3.87c0.57,0.35,1.32,0.16,1.67-0.41
					c0.04-0.07,0.08-0.15,0.11-0.23c0.97-3.12,1.71-5.94,2.99-9.8c1.51-4.56,1.67-3.22,3.52-8.56c1.11-3.22-2.37-5.02-3-3.71
					c-2.86,6.01-4.97,6.04-8.01,7.71C145.8,223.19,145.36,223.78,145.17,224.47z"/>
			</g>
			<g>
				<g>
					<path class="st4" d="M134.08,195.85H97.67c-1.72,0-3.11-1.39-3.11-3.11l0,0h42.63l0,0
						C137.19,194.46,135.79,195.85,134.08,195.85z"/>
					<path class="st62" d="M134.08,195.85H97.67c-1.72,0-3.11-1.39-3.11-3.11l0,0h42.63l0,0
						C137.19,194.46,135.79,195.85,134.08,195.85z"/>
				</g>
				<path class="st4" d="M107.27,195.85H80.82c-1.72,0-3.11-1.39-3.11-3.11l0,0h32.67l0,0
					C110.38,194.46,108.99,195.85,107.27,195.85z"/>
				<path class="st33" d="M107.27,195.85H80.82c-1.72,0-3.11-1.39-3.11-3.11l0,0h32.67l0,0
					C110.38,194.46,108.99,195.85,107.27,195.85z"/>
				<g>
					<path class="st4" d="M134.34,194.9h-23.97c-0.51,0-0.86-0.5-0.69-0.98l10.66-30.45c0.29-0.84,1.09-1.4,1.97-1.4h23.97
						c0.51,0,0.86,0.5,0.69,0.98l-10.66,30.45C136.02,194.34,135.22,194.9,134.34,194.9z"/>
				</g>
				<g>
					<path class="st4" d="M135.27,194.9h-23.97c-0.51,0-0.86-0.5-0.69-0.98l10.66-30.45c0.29-0.84,1.09-1.4,1.97-1.4h23.97
						c0.51,0,0.86,0.5,0.69,0.98l-10.66,30.45C136.95,194.34,136.16,194.9,135.27,194.9z"/>
					<linearGradient id="SVGID_13_" gradientUnits="userSpaceOnUse" x1="125.0266" y1="194.5021" x2="131.862" y2="168.6414">
						<stop  offset="0" style="stop-color:#10BEF0"/>
						<stop  offset="1" style="stop-color:#10BEF0;stop-opacity:0"/>
					</linearGradient>
					<path class="st21" d="M135.27,194.9h-23.97c-0.51,0-0.86-0.5-0.69-0.98l10.66-30.45c0.29-0.84,1.09-1.4,1.97-1.4h23.97
						c0.51,0,0.86,0.5,0.69,0.98l-10.66,30.45C136.95,194.34,136.16,194.9,135.27,194.9z"/>
					<linearGradient id="SVGID_14_" gradientUnits="userSpaceOnUse" x1="130.8868" y1="115.2921" x2="141.5422" y2="115.2921">
						<stop  offset="0" style="stop-color:#10BEF0"/>
						<stop  offset="1" style="stop-color:#10BEF0;stop-opacity:0"/>
					</linearGradient>
					<path class="st22" d="M141.42,116.75l-10.53-0.71l0.12-1.85c0.01-0.21,0.2-0.38,0.41-0.36l9.75,0.66
						c0.21,0.01,0.38,0.2,0.36,0.42L141.42,116.75z"/>
				</g>
				<path class="st3" d="M131.29,178.48c-0.25,1.17-1.06,2.11-1.8,2.11c-0.75,0-1.15-0.95-0.9-2.11c0.25-1.17,1.06-2.11,1.8-2.11
					C131.13,176.37,131.54,177.32,131.29,178.48z"/>
			</g>
			<path class="st55" d="M51.2,133.12c0,0,5.85,28.8,9.8,33.58c3.95,4.78,21.14,17.63,21.14,17.63l10.22-2.15l7.32,6.11l-4.79,3.78
				l-5.67-2.13c0,0-4.08,0.81-9.36,0.81s-26.73-12.62-30.98-19.7c-4.25-7.09-10.2-33.73-10.2-33.73L51.2,133.12z"/>
			<g>
				<path class="st24" d="M59.61,115.68l3.64-2.11l8.91,9.86c0,0-4.9-2-6.28-1.19c-1.24,0.73-0.38,3.89-1.82,3.91
					C60.86,126.21,59.61,115.68,59.61,115.68z"/>
				<path class="st24" d="M72.17,123.43l4.65-9.18l3.8,2.05c0,0,3.54,8.91,0.83,9.85c-1.64,0.57-2.27-3.6-3.91-4.2
					C76.24,121.47,72.17,123.43,72.17,123.43z"/>
			</g>
			<g>
				<path class="st4" d="M59.61,115.68l3.64-2.11l8.91,9.86c0,0-4.9-2-6.28-1.19c-1.24,0.73-0.38,3.89-1.82,3.91
					C60.86,126.21,59.61,115.68,59.61,115.68z"/>
				<path class="st4" d="M72.17,123.43l4.65-9.18l3.8,2.05c0,0,3.54,8.91,0.83,9.85c-1.64,0.57-2.27-3.6-3.91-4.2
					C76.24,121.47,72.17,123.43,72.17,123.43z"/>
			</g>
			<g>
				<linearGradient id="SVGID_15_" gradientUnits="userSpaceOnUse" x1="66.7025" y1="126.2319" x2="65.1835" y2="113.7762">
					<stop  offset="0" style="stop-color:#10BEF0"/>
					<stop  offset="1" style="stop-color:#10BEF0;stop-opacity:0"/>
				</linearGradient>
				<path class="st23" d="M59.61,115.68l3.64-2.11l8.91,9.86c0,0-4.9-2-6.28-1.19c-1.24,0.73-0.38,3.89-1.82,3.91
					C60.86,126.21,59.61,115.68,59.61,115.68z"/>
				<linearGradient id="SVGID_16_" gradientUnits="userSpaceOnUse" x1="77.5019" y1="124.9149" x2="75.9829" y2="112.4592">
					<stop  offset="0" style="stop-color:#10BEF0"/>
					<stop  offset="1" style="stop-color:#10BEF0;stop-opacity:0"/>
				</linearGradient>
				<path class="st36" d="M72.17,123.43l4.65-9.18l3.8,2.05c0,0,3.54,8.91,0.83,9.85c-1.64,0.57-2.27-3.6-3.91-4.2
					C76.24,121.47,72.17,123.43,72.17,123.43z"/>
			</g>
			<path class="st24" d="M39.24,147.45c0,0-6.77-20.5,2.15-27.43c8.92-6.93,13.11,23.64,13.11,23.64L39.24,147.45z"/>
			<path class="st4" d="M39.24,147.45c0,0-6.77-20.5,2.15-27.43c8.92-6.93,13.11,23.64,13.11,23.64L39.24,147.45z"/>
			<polygon class="st24" points="37.41,145.69 38.78,149.21 55.87,144.82 55.19,141.3 			"/>
			<polygon class="st57" points="37.41,145.69 38.78,149.21 55.87,144.82 55.19,141.3 			"/>
			<path class="st26" d="M64.36,101.61c-0.07-0.59-0.14-1.16-0.21-1.71l13.01,10.27c-0.48,1.57-0.84,3.07-0.96,4.42
				C68.34,114.66,65.36,105.97,64.36,101.61z"/>
			<path class="st55" d="M66.6,84.92c-2.71,9.17-4.06,13.04-1.19,19.22c4.3,9.41,16.16,10.73,21.56,2.55
				c4.82-7.37,8.53-21.13,0.99-27.9c-5.33-4.85-13.58-4.47-18.43,0.86C68.15,81.15,67.15,82.96,66.6,84.92z"/>
			<path class="st29" d="M76.94,94.13c-0.26,0.73-0.09,1.46,0.39,1.64c0.48,0.18,1.08-0.28,1.34-1.01c0.26-0.73,0.1-1.46-0.38-1.64
				C77.81,92.94,77.21,93.4,76.94,94.13z"/>
			<path class="st29" d="M85.2,97.13c-0.27,0.73-0.09,1.47,0.38,1.64c0.47,0.17,1.08-0.28,1.35-1.01c0.27-0.73,0.09-1.46-0.38-1.64
				C86.08,95.94,85.47,96.39,85.2,97.13z"/>
			<path class="st67" d="M82.43,97.33c0.46,1.85,1.17,3.62,2.11,5.28c-0.87,0.47-1.9,0.53-2.81,0.16L82.43,97.33z"/>
			<path class="st29" d="M76.62,90.07c0.14,0.14,0.36,0.17,0.53,0.08c1.91-0.92,4.32,0.39,4.34,0.4c0.22,0.12,0.5,0.04,0.62-0.18
				c0.12-0.22,0.04-0.5-0.18-0.62c-0.12-0.02-2.85-1.55-5.18-0.43c-0.23,0.11-0.32,0.38-0.21,0.61
				C76.55,89.98,76.58,90.03,76.62,90.07z"/>
			<path class="st29" d="M90.06,95.54c0.13,0.09,0.31,0.11,0.46,0.05c0.23-0.1,0.33-0.37,0.23-0.6c-0.55-1.38-1.74-2.4-3.18-2.74
				c-0.25-0.04-0.49,0.12-0.53,0.38c-0.04,0.25,0.12,0.49,0.38,0.53c1.13,0.29,2.06,1.11,2.49,2.19
				C89.94,95.43,89.99,95.49,90.06,95.54z"/>
			<path class="st29" d="M64.81,90.27c0,0,3.44-0.08,2.96-4.01c0,0,5.69-0.16,5.93-4.33c0,0,4.97,4.41,6.74,0.96
				c0,0,6.09,5.45,6.9,1.84c0,0,6.34,7.86,6.01,3.05c0,0,7.14-0.72,0.72-6.9c0,0,5.85-5.13-3.61-7.22c0,0,0.83-6.08-5.84-3.41
				c0,0-1.54-6.61-7.32-2.77c0,0-3.12-4.65-6.53,1.6c0,0-5.03-2.88-6.64,3.61c0,0-9.11,1.11-5.35,7.09c0,0,2.81,20.1,5.35,20.1
				C65.88,99.9,64.81,90.27,64.81,90.27z"/>
			<path class="st55" d="M61.67,91.21c0.06,1.85,0.84,3.6,2.19,4.87c1.79,1.67,3.83,0.34,4.25-1.94c0.39-2.05-0.06-5.39-2.31-6.2
				c-1.64-0.55-3.43,0.33-3.98,1.98C61.69,90.34,61.63,90.77,61.67,91.21z"/>
			<path class="st29" d="M78.96,105.25c0.32,0.09,0.65,0.16,0.99,0.2c0.11,0.02,0.21-0.05,0.23-0.16c0,0,0,0,0-0.01
				c0.01-0.11-0.07-0.21-0.18-0.22c-1.71-0.18-3.24-1.17-4.11-2.65c-0.05-0.1-0.17-0.14-0.27-0.09c-0.1,0.05-0.14,0.17-0.09,0.27
				C76.26,103.9,77.5,104.86,78.96,105.25z"/>
		</g>
		<g>
			<path class="st24" d="M13.11,100.97c0,0-32.75,168.05,75.34,171.13c98.59,2.81,76.55-77.75,70.13-83.36
				c-6.41-5.61,17.63,51.7-22.04,52.5c-47.83,0.97-56.51-44.49-72.54-44.89c-16.03-0.4-40.28,20.84-42.68-17.63
				C18.92,140.25,31.55,74.92,13.11,100.97z"/>
			<path class="st25" d="M13.11,100.97c0,0-32.75,168.05,75.34,171.13c98.59,2.81,76.55-77.75,70.13-83.36
				c-6.41-5.61,17.63,51.7-22.04,52.5c-47.83,0.97-56.51-44.49-72.54-44.89c-16.03-0.4-40.28,20.84-42.68-17.63
				C18.92,140.25,31.55,74.92,13.11,100.97z"/>
		</g>
	</g>
</g>
</svg>
