<svg width="539" height="501" viewBox="0 0 539 501" fill="none" xmlns="http://www.w3.org/2000/svg">
<path d="M338.929 327.634C338.929 327.634 404.193 298.523 458.199 302.78C507.11 306.656 514.925 313.649 539 310.551C532.782 326.076 506.368 377.324 451.981 395.965C397.594 414.606 344.748 405.276 324.552 389.752C304.357 374.227 326.511 333.848 338.929 327.634Z" fill="#2261A2"/>
<path d="M518.424 320.661C518.424 320.661 425.187 361.42 341.267 353.268L518.424 320.661Z" fill="#2261A2"/>
<path d="M518.424 320.661C518.424 320.661 425.187 361.42 341.267 353.268" stroke="white" stroke-width="1.2258" stroke-miterlimit="10"/>
<path d="M496.289 353.268L462.782 339.872" stroke="white" stroke-width="1.2258" stroke-miterlimit="10"/>
<path d="M441.789 322.104C441.789 322.979 425.188 348.023 425.188 348.023L441.789 322.104Z" fill="#2261A2"/>
<path d="M441.789 322.104C441.789 322.979 425.188 348.023 425.188 348.023" stroke="white" stroke-width="1.2258" stroke-miterlimit="10"/>
<path d="M223.709 332.043C223.709 332.043 203.723 280.566 171.738 253.545C142.776 229.071 134.675 228.672 123.132 213.869C118.092 225.783 104.686 268.291 124.425 308.1C144.145 347.909 178.241 371.51 197.79 373.98C217.32 376.431 227.151 342.209 223.709 332.043Z" fill="url(#paint0_linear_5596_18100)"/>
<path d="M128.931 230.61C128.931 230.61 157.95 303.692 208.477 344.85L128.931 230.61Z" fill="url(#paint1_linear_5596_18100)"/>
<path d="M128.931 230.61C128.931 230.61 157.95 303.692 208.477 344.85" stroke="white" stroke-width="0.9477" stroke-miterlimit="10"/>
<path d="M123.34 260.557L149.031 271.426" stroke="white" stroke-width="0.9477" stroke-miterlimit="10"/>
<path d="M170.234 273.08C169.759 273.555 165.252 296.338 165.252 296.338L170.234 273.08Z" fill="url(#paint2_linear_5596_18100)"/>
<path d="M170.234 273.08C169.759 273.555 165.252 296.338 165.252 296.338" stroke="white" stroke-width="0.9477" stroke-miterlimit="10"/>
<path d="M304.357 344.717C304.357 344.717 319.893 260.861 374.28 222.04C428.667 183.219 465.977 183.219 498.609 163.039C498.609 163.039 501.709 195.646 479.954 245.336C458.199 295.027 431.786 335.406 382.058 357.144C332.33 378.882 304.357 344.717 304.357 344.717Z" fill="url(#paint3_linear_5596_18100)"/>
<path d="M484.633 181.68C484.633 181.68 394.495 288.832 338.549 336.964L484.633 181.68Z" fill="url(#paint4_linear_5596_18100)"/>
<path d="M484.633 181.68C484.633 181.68 394.495 288.832 338.549 336.964" stroke="white" stroke-width="1.2258" stroke-miterlimit="10"/>
<path d="M472.975 235.246L434.904 239.902" stroke="white" stroke-width="1.2258" stroke-miterlimit="10"/>
<path d="M397.594 225.156L407.711 267.854" stroke="white" stroke-width="1.2258" stroke-miterlimit="10"/>
<path d="M418.588 309.012L371.18 306.675" stroke="white" stroke-width="1.2258" stroke-miterlimit="10"/>
<path d="M195.26 363.282C195.26 363.282 162 302.894 110.409 286.932C58.7983 270.97 30.1977 280.433 0.018692 273.25C0.018692 273.25 5.93279 299.055 35.256 331.644C64.5793 364.232 95.1196 388.498 138.8 392.545C182.481 396.593 195.26 363.282 195.26 363.282Z" fill="#273C7F"/>
<path d="M15.4786 283.987C15.4786 283.987 111.873 343.292 167.039 366L15.4786 283.987Z" fill="#273C7F"/>
<path d="M15.4786 283.987C15.4786 283.987 111.873 343.292 167.039 366" stroke="white" stroke-width="0.9906" stroke-miterlimit="10"/>
<path d="M38.0518 322.124L68.459 316.024" stroke="white" stroke-width="0.9906" stroke-miterlimit="10"/>
<path d="M93.313 295.236L96.4316 330.561" stroke="white" stroke-width="0.9906" stroke-miterlimit="10"/>
<path d="M98.5427 364.897L134.312 351.064" stroke="white" stroke-width="0.9906" stroke-miterlimit="10"/>
<path d="M148.081 415.29C131.879 424.639 131.803 439.784 147.891 449.133L223.424 492.99C239.511 502.339 265.697 502.339 281.88 492.99L357.907 449.133C374.109 439.784 374.185 424.639 358.098 415.29L282.565 371.434C266.477 362.085 240.291 362.085 224.108 371.434L148.081 415.29Z" fill="url(#paint5_linear_5596_18100)"/>
<path d="M148.081 395.072C131.879 404.421 131.803 419.566 147.891 428.915L223.424 472.771C239.511 482.12 265.697 482.12 281.88 472.771L357.907 428.915C374.109 419.566 374.185 404.421 358.098 395.072L282.565 351.215C266.477 341.866 240.291 341.866 224.108 351.215L148.081 395.072Z" stroke="#94C3FF" stroke-width="0.9256" stroke-miterlimit="10"/>
<path d="M121.134 367.956L215.892 422.986C236.088 434.71 268.91 434.71 289.238 422.986L384.624 367.956C394.855 362.066 399.952 354.313 399.933 346.579L399.971 357.524C399.99 365.258 394.893 372.992 384.662 378.902L289.276 433.931C268.948 445.656 236.126 445.656 215.93 433.931L121.172 378.902C111.15 373.087 106.13 365.448 106.092 357.828L106.054 346.883C106.092 354.522 111.112 362.142 121.134 367.956Z" fill="#A6D0F4"/>
<path d="M121.381 325.506C101.052 337.23 100.957 356.232 121.133 367.956L215.892 422.986C236.087 434.71 268.91 434.71 289.238 422.986L384.624 367.956C404.953 356.232 405.048 337.23 384.872 325.506L290.113 270.476C269.918 258.752 237.095 258.752 216.767 270.476L121.381 325.506Z" fill="url(#paint6_linear_5596_18100)"/>
<path d="M103.372 63.088L208.818 2.24352C213.382 -0.37876 217.509 -0.625786 220.494 1.1034L229.223 6.17694C226.237 4.44775 222.111 4.69478 217.547 7.31706L112.101 68.1425C103.049 73.3681 95.7277 86.0234 95.7467 96.4365L95.8418 132.749C95.8609 137.918 97.6864 141.547 100.634 143.257L91.9055 138.184C88.9579 136.474 87.1323 132.844 87.1133 127.676L87.0182 91.363C86.9802 80.9689 94.3205 68.2945 103.372 63.088Z" fill="#2261A2"/>
<path d="M112.102 68.1615C103.05 73.3871 95.7287 86.0424 95.7477 96.4555L95.8428 132.768C95.8808 143.181 103.259 147.362 112.292 142.136L217.738 81.3109C226.809 76.0854 234.111 63.43 234.092 53.0169L233.997 16.7041C233.959 6.29095 226.599 2.11051 217.548 7.33606L112.102 68.1615Z" fill="#EAF1F7"/>
<path d="M103.372 159.618L208.818 98.7928C213.382 96.1706 217.509 95.9235 220.494 97.6527L229.223 102.726C226.237 100.997 222.111 101.244 217.547 103.866L112.101 164.692C103.049 169.917 95.7277 182.573 95.7467 192.986L95.8418 229.299C95.8609 234.467 97.6864 238.097 100.634 239.807L91.9055 234.733C88.9579 233.023 87.1323 229.394 87.1133 224.225L87.0182 187.912C86.9802 177.499 94.3205 164.844 103.372 159.618Z" fill="#2261A2"/>
<path d="M112.102 164.692C103.05 169.917 95.7287 182.573 95.7477 192.986L95.8428 229.299C95.8808 239.712 103.259 243.892 112.292 238.667L217.738 177.841C226.809 172.616 234.111 159.96 234.092 149.547L233.997 113.234C233.959 102.821 226.599 98.6408 217.548 103.866L112.102 164.692Z" fill="#273C7F"/>
<path d="M115.221 125.053C115.278 125.091 115.336 125.148 115.393 125.186C115.317 125.129 115.278 125.091 115.221 125.053Z" fill="#A6D0F4"/>
<path d="M130.206 125.282C130.244 125.263 130.282 125.244 130.301 125.225C130.263 125.263 130.225 125.282 130.206 125.282Z" fill="#A6D0F4"/>
<path d="M129.596 125.567C129.691 125.529 129.786 125.472 129.9 125.434C129.805 125.472 129.71 125.529 129.596 125.567Z" fill="#A6D0F4"/>
<path d="M116.647 126.003C116.704 126.041 116.761 126.06 116.818 126.098C116.761 126.079 116.704 126.041 116.647 126.003Z" fill="#A6D0F4"/>
<path d="M145.629 110.688C145.705 110.574 145.762 110.479 145.838 110.365C145.762 110.479 145.705 110.593 145.629 110.688Z" fill="#A6D0F4"/>
<path d="M147.53 107.534C147.853 106.945 148.176 106.337 148.48 105.729C148.176 106.337 147.853 106.926 147.53 107.534Z" fill="#A6D0F4"/>
<path d="M144.24 112.74C144.64 112.189 145.02 111.638 145.4 111.068C145.02 111.619 144.64 112.189 144.24 112.74Z" fill="#A6D0F4"/>
<path d="M144.012 113.063C144.088 112.968 144.164 112.854 144.24 112.759C144.145 112.854 144.069 112.949 144.012 113.063Z" fill="#A6D0F4"/>
<path d="M131.423 124.654C131.461 124.635 131.499 124.616 131.518 124.597C131.613 124.54 131.727 124.483 131.822 124.426C131.917 124.369 132.012 124.312 132.126 124.255C132.165 124.236 132.184 124.217 132.222 124.198C132.298 124.16 132.355 124.122 132.431 124.084C132.469 124.065 132.507 124.027 132.545 124.008C132.602 123.97 132.659 123.932 132.735 123.894C132.773 123.875 132.811 123.837 132.849 123.818C132.906 123.78 132.963 123.742 133.02 123.704C133.058 123.685 133.096 123.647 133.134 123.628C133.191 123.59 133.248 123.552 133.306 123.514C133.344 123.495 133.382 123.457 133.42 123.438C133.477 123.4 133.553 123.362 133.61 123.305C133.648 123.286 133.686 123.248 133.724 123.229C133.8 123.172 133.876 123.134 133.933 123.077C134.104 122.963 134.199 122.887 134.294 122.811C134.408 122.735 134.504 122.659 134.58 122.602C134.618 122.583 134.637 122.564 134.675 122.526C134.732 122.488 134.808 122.431 134.865 122.393C134.903 122.374 134.941 122.336 134.979 122.317C135.036 122.279 135.093 122.222 135.169 122.184C135.207 122.165 135.245 122.127 135.283 122.108C135.34 122.07 135.397 122.013 135.473 121.975C135.511 121.956 135.549 121.918 135.587 121.899C135.645 121.842 135.702 121.804 135.778 121.747C135.816 121.728 135.854 121.69 135.873 121.671C135.93 121.614 136.006 121.557 136.063 121.519C136.082 121.5 136.12 121.481 136.158 121.443C136.234 121.367 136.329 121.31 136.405 121.234C136.538 121.12 136.633 121.044 136.728 120.968C136.843 120.873 136.919 120.797 137.014 120.721C137.166 120.588 137.223 120.531 137.299 120.474C137.337 120.455 137.356 120.417 137.394 120.398C137.451 120.341 137.527 120.284 137.584 120.227C137.622 120.208 137.641 120.17 137.679 120.151C137.736 120.094 137.812 120.037 137.869 119.98C137.907 119.961 137.927 119.923 137.965 119.904C138.041 119.847 138.098 119.79 138.155 119.714C138.307 119.581 138.383 119.505 138.459 119.429C138.687 119.201 138.877 119.03 139.067 118.859C139.163 118.764 139.258 118.669 139.334 118.593C139.467 118.46 139.524 118.403 139.6 118.327C139.733 118.193 139.809 118.117 139.866 118.06C139.999 117.927 140.075 117.851 140.132 117.775C140.266 117.642 140.342 117.547 140.418 117.471C140.722 117.148 140.988 116.844 141.254 116.559C141.349 116.464 141.426 116.369 141.502 116.274C141.616 116.141 141.692 116.065 141.749 115.97C141.863 115.837 141.939 115.742 141.996 115.666C142.11 115.533 142.186 115.438 142.262 115.362C142.376 115.21 142.452 115.115 142.528 115.02C142.871 114.583 143.213 114.165 143.536 113.747C143.631 113.614 143.707 113.519 143.784 113.424C143.879 113.291 143.955 113.196 144.031 113.101C144.126 112.968 144.202 112.854 144.278 112.759C144.677 112.189 145.077 111.638 145.438 111.068C145.514 110.935 145.59 110.84 145.666 110.726C145.761 110.593 145.818 110.479 145.894 110.384C146.351 109.681 146.769 108.978 147.168 108.274C147.245 108.141 147.302 108.027 147.378 107.913C147.454 107.78 147.511 107.666 147.587 107.552C147.929 106.925 148.252 106.336 148.557 105.728C145.02 105.063 137.774 104.911 137.394 104.892C137.394 104.911 137.28 105.101 137.052 105.424C136.272 106.583 134.237 109.358 131.499 110.935C129.806 111.904 127.867 112.436 125.775 111.866C125.661 111.828 125.566 111.809 125.452 111.771C125.109 112.17 118.587 119.847 114.879 124.711C114.993 124.825 115.126 124.92 115.259 125.034C115.335 125.091 115.392 125.129 115.449 125.186C115.525 125.243 115.582 125.281 115.639 125.319C115.734 125.376 115.791 125.433 115.829 125.471C115.925 125.528 115.982 125.585 116.039 125.623C116.248 125.756 116.457 125.889 116.666 126.003C116.761 126.06 116.818 126.079 116.875 126.117C116.97 126.174 117.027 126.193 117.085 126.231C117.18 126.288 117.256 126.307 117.313 126.345C117.56 126.459 117.769 126.554 117.997 126.649C118.092 126.687 118.149 126.706 118.226 126.725C118.321 126.763 118.397 126.782 118.454 126.801C118.568 126.839 118.625 126.858 118.701 126.877C118.967 126.953 119.195 127.029 119.443 127.086C119.538 127.105 119.614 127.124 119.671 127.143C119.785 127.162 119.842 127.181 119.918 127.2C120.032 127.219 120.089 127.238 120.165 127.238C120.279 127.257 120.355 127.276 120.431 127.276C120.622 127.295 120.774 127.314 120.964 127.333C121.059 127.333 121.135 127.352 121.211 127.352C121.325 127.352 121.401 127.371 121.458 127.371C121.591 127.371 121.648 127.39 121.725 127.39C121.858 127.39 121.915 127.39 121.991 127.39C122.2 127.39 122.371 127.39 122.561 127.39C122.656 127.39 122.732 127.39 122.827 127.39C122.942 127.39 123.018 127.371 123.094 127.371C123.227 127.371 123.303 127.352 123.36 127.352C123.493 127.333 123.569 127.333 123.645 127.333C123.778 127.314 123.873 127.314 123.949 127.295C124.159 127.276 124.33 127.238 124.52 127.219C124.653 127.2 124.729 127.181 124.786 127.181C124.805 127.181 124.843 127.181 124.862 127.162C124.919 127.143 124.995 127.143 125.052 127.124C125.071 127.124 125.109 127.105 125.128 127.105C125.205 127.086 125.262 127.086 125.338 127.067C125.357 127.067 125.395 127.048 125.414 127.048C125.49 127.029 125.566 127.01 125.642 126.991C125.889 126.934 126.079 126.896 126.269 126.839C126.403 126.801 126.479 126.782 126.555 126.763C126.593 126.763 126.612 126.744 126.65 126.744C126.707 126.725 126.783 126.706 126.84 126.687C126.878 126.668 126.897 126.668 126.935 126.649C126.992 126.63 127.068 126.611 127.125 126.592C127.163 126.573 127.201 126.573 127.22 126.554C127.277 126.535 127.353 126.516 127.41 126.497C127.448 126.478 127.468 126.478 127.506 126.459C127.582 126.44 127.677 126.402 127.753 126.364C127.886 126.326 127.981 126.288 128.076 126.25C128.209 126.193 128.285 126.174 128.361 126.136C128.399 126.117 128.418 126.117 128.456 126.098C128.513 126.079 128.589 126.041 128.646 126.022C128.685 126.003 128.723 125.984 128.761 125.984C128.818 125.965 128.894 125.927 128.951 125.908C128.989 125.889 129.027 125.87 129.065 125.87C129.122 125.851 129.198 125.813 129.255 125.794C129.293 125.775 129.331 125.756 129.35 125.756C129.426 125.718 129.502 125.699 129.578 125.661C129.749 125.585 129.845 125.528 129.959 125.49C130.092 125.433 130.168 125.395 130.263 125.338C130.301 125.319 130.339 125.3 130.358 125.281C130.415 125.243 130.491 125.224 130.548 125.186C130.586 125.167 130.624 125.148 130.662 125.129C130.719 125.091 130.795 125.072 130.852 125.034C130.89 125.015 130.928 124.996 130.966 124.977C131.024 124.939 131.1 124.901 131.157 124.882C131.195 124.863 131.233 124.844 131.271 124.825C131.29 124.73 131.347 124.692 131.423 124.654Z" fill="#4B5CC0"/>
<path d="M142.851 114.564C143.061 114.298 143.289 114.013 143.498 113.747C143.289 114.013 143.08 114.298 142.851 114.564Z" fill="#A6D0F4"/>
<path d="M141.748 115.914C141.824 115.838 141.881 115.743 141.957 115.667C141.9 115.743 141.824 115.819 141.748 115.914Z" fill="#A6D0F4"/>
<path d="M141.216 116.54C141.292 116.445 141.387 116.35 141.463 116.255C141.368 116.35 141.292 116.445 141.216 116.54Z" fill="#A6D0F4"/>
<path d="M140.399 117.434C140.665 117.149 140.931 116.845 141.197 116.56C140.931 116.845 140.665 117.13 140.399 117.434Z" fill="#A6D0F4"/>
<path d="M139.619 118.251C139.695 118.175 139.752 118.118 139.828 118.042C139.752 118.118 139.676 118.194 139.619 118.251Z" fill="#A6D0F4"/>
<path d="M139.028 118.84C139.104 118.764 139.199 118.669 139.275 118.593C139.199 118.688 139.104 118.764 139.028 118.84Z" fill="#A6D0F4"/>
<path d="M138.458 119.391C138.648 119.22 138.82 119.03 139.01 118.859C138.82 119.049 138.648 119.22 138.458 119.391Z" fill="#A6D0F4"/>
<path d="M137.355 120.398C137.412 120.341 137.488 120.284 137.545 120.227C137.488 120.303 137.412 120.36 137.355 120.398Z" fill="#A6D0F4"/>
<path d="M136.139 121.443C136.216 121.367 136.311 121.31 136.387 121.234C136.311 121.291 136.216 121.367 136.139 121.443Z" fill="#A6D0F4"/>
<path d="M118.435 126.802C118.511 126.821 118.568 126.84 118.645 126.859C118.568 126.84 118.492 126.821 118.435 126.802Z" fill="#A6D0F4"/>
<path d="M138.534 90.3935L138.306 93.1868C138.268 93.5288 138.23 93.8898 138.173 94.2509C138.23 94.2319 138.306 94.2129 138.382 94.1749C138.42 94.1559 138.458 94.1179 138.496 94.0989C140.169 92.7687 141.101 88.2652 139.941 88.2082C139.751 88.1892 139.58 88.2462 139.428 88.3413C139.275 88.4363 139.142 88.5503 139.009 88.6833C138.781 89.7284 138.591 90.5075 138.591 90.5455L138.534 90.3935Z" fill="#CBDCEB"/>
<path d="M116.001 125.624C116.21 125.757 116.4 125.89 116.609 126.004C116.4 125.871 116.191 125.757 116.001 125.624Z" fill="#A6D0F4"/>
<path d="M126.592 110.346C126.325 110.878 126.021 111.391 125.698 111.866C127.79 112.436 129.729 111.904 131.422 110.935C134.16 109.358 136.195 106.584 136.975 105.425C136.632 105.329 136.271 105.177 136.005 104.93C135.567 103.999 135.32 102.27 135.206 101.206L132.867 104.55C132.43 105.177 131.916 105.653 131.403 105.938C130.889 106.242 130.376 106.337 129.939 106.223L127.523 105.577C127.466 105.558 127.428 105.558 127.39 105.539C127.276 106.717 127.048 108.845 126.592 110.346Z" fill="#CBDCEB"/>
<path d="M115.41 125.206C115.467 125.244 115.505 125.282 115.562 125.32C115.524 125.282 115.467 125.244 115.41 125.206Z" fill="#A6D0F4"/>
<path d="M125.908 95.1063C125.053 95.6003 124.862 95.5813 124.862 95.5813L124.292 99.7807L124.425 101.187C124.444 101.472 124.501 101.738 124.539 102.004C124.919 103.828 125.908 105.082 127.373 105.538C127.411 105.557 127.468 105.557 127.506 105.576L129.921 106.222C130.358 106.336 130.872 106.222 131.385 105.937C131.898 105.633 132.412 105.158 132.849 104.55L135.188 101.206L135.245 101.13C136.748 99.0017 137.775 96.5504 138.174 94.2512C138.231 93.8901 138.288 93.5291 138.307 93.1871L138.535 90.3938L136.576 84.2371C136.557 84.2181 136.272 83.8001 135.531 84.2371C135.131 84.4651 134.618 84.9402 133.952 85.8713C132.07 88.5316 131.879 90.9258 128.628 93.2821C127.335 94.2132 126.479 94.7832 125.908 95.1063Z" fill="#CBDCEB"/>
<path d="M122.617 98.2033C121.477 99.5905 122.427 103.011 124.101 102.403C124.139 102.384 124.177 102.365 124.215 102.346C124.367 102.27 124.481 102.137 124.576 102.004C124.519 101.738 124.481 101.472 124.462 101.187L124.329 99.7805L124.272 100.142C124.253 100.085 123.854 99.1154 123.492 97.6143C123.378 97.6333 123.264 97.6713 123.15 97.7283C122.96 97.8423 122.789 97.9943 122.617 98.2033Z" fill="#CBDCEB"/>
<path d="M128.817 80.8929C125.375 83.9712 123.492 88.0566 122.979 91.857C122.712 93.8333 123.074 95.9995 123.473 97.6147C123.853 99.0968 124.234 100.085 124.253 100.142L124.31 99.7809L124.88 95.5814C124.899 95.5814 125.07 95.6004 125.926 95.1064C126.497 94.7834 127.352 94.2323 128.645 93.2822C131.897 90.926 132.087 88.5317 133.97 85.8714C134.636 84.9403 135.149 84.4653 135.548 84.2372C136.271 83.8192 136.575 84.2182 136.594 84.2372L138.553 90.3939L138.591 90.5459C138.61 90.5079 138.781 89.7288 139.009 88.6837C139.257 87.5626 139.561 86.1564 139.713 85.1873C140.036 83.3251 139.18 79.6008 137.811 78.3276C136.746 77.3395 133.932 77.5865 131.099 79.2207C130.338 79.6768 129.558 80.2278 128.817 80.8929Z" fill="#8182EE"/>
<path d="M136.975 105.424C137.204 105.082 137.318 104.892 137.318 104.892C137.698 104.892 144.943 105.063 148.48 105.728C151.523 99.7047 153.329 93.187 153.31 87.2394C153.272 73.5579 143.593 68.0473 131.689 74.9261C119.785 81.8048 110.162 98.4506 110.2 112.113C110.219 118.118 112.083 122.545 115.202 125.034C115.068 124.939 114.954 124.825 114.821 124.711C118.529 119.847 125.033 112.17 125.394 111.771C125.508 111.809 125.604 111.828 125.718 111.866C126.041 111.391 126.345 110.878 126.611 110.346C127.068 108.845 127.296 106.716 127.41 105.538C125.965 105.082 124.957 103.828 124.577 102.004C124.482 102.137 124.367 102.27 124.215 102.346C122.428 103.011 121.458 99.5907 122.618 98.2035C122.808 97.9755 122.979 97.8425 123.131 97.7475C123.246 97.6715 123.36 97.6335 123.474 97.6335C123.074 96.0183 122.713 93.8331 122.979 91.8759C123.493 88.0945 125.375 83.99 128.817 80.9117C129.559 80.2466 130.339 79.6956 131.118 79.2395C133.952 77.6053 136.747 77.3773 137.831 78.3464C139.2 79.6006 140.056 83.325 139.733 85.2062C139.581 86.1753 139.276 87.5624 139.029 88.7025C139.162 88.5505 139.295 88.4365 139.447 88.3605C139.6 88.2655 139.771 88.2085 139.961 88.2275C141.121 88.2845 140.189 92.788 138.516 94.1181C138.326 94.2321 138.249 94.2701 138.192 94.2701C137.793 96.5694 136.766 99.0016 135.264 101.149C135.321 102.289 135.568 104.018 136.006 104.949C136.272 105.177 136.633 105.329 136.975 105.424Z" fill="url(#paint7_linear_5596_18100)"/>
<path d="M139.334 118.536C139.41 118.46 139.467 118.384 139.543 118.327C139.486 118.403 139.41 118.479 139.334 118.536Z" fill="#A6D0F4"/>
<path d="M136.747 120.93C136.823 120.854 136.918 120.797 136.994 120.721C136.899 120.797 136.823 120.873 136.747 120.93Z" fill="#A6D0F4"/>
<path d="M134.884 122.412C134.922 122.393 134.96 122.355 134.998 122.336C134.96 122.355 134.922 122.374 134.884 122.412Z" fill="#A6D0F4"/>
<path d="M127.352 126.459C127.39 126.44 127.409 126.44 127.447 126.421C127.409 126.44 127.39 126.459 127.352 126.459Z" fill="#A6D0F4"/>
<path d="M126.878 126.631C126.935 126.612 127.011 126.593 127.068 126.574C126.992 126.593 126.935 126.612 126.878 126.631Z" fill="#A6D0F4"/>
<path d="M126.764 126.649C126.802 126.63 126.821 126.63 126.859 126.611C126.84 126.63 126.802 126.649 126.764 126.649Z" fill="#A6D0F4"/>
<path d="M126.573 126.706C126.631 126.687 126.707 126.668 126.764 126.649C126.707 126.668 126.65 126.687 126.573 126.706Z" fill="#A6D0F4"/>
<path d="M123.094 127.352C123.17 127.352 123.227 127.352 123.303 127.333C123.227 127.333 123.151 127.333 123.094 127.352Z" fill="#A6D0F4"/>
<path d="M117.958 126.63C118.015 126.649 118.091 126.687 118.148 126.706C118.091 126.687 118.034 126.649 117.958 126.63Z" fill="#A6D0F4"/>
<path d="M128.475 200.947C128.437 201.099 128.38 201.251 128.322 201.403L128.456 201.441C128.475 201.27 128.475 201.099 128.475 200.947Z" fill="#25437F"/>
<path d="M140.246 178.354C140.112 179.551 139.846 180.634 139.447 181.394C139.447 181.394 139.371 181.318 139.257 181.185L139.086 183.219C139.047 183.561 139.009 183.922 138.952 184.283C139.028 184.264 139.105 184.245 139.2 184.188C139.219 184.188 139.219 184.169 139.238 184.169C139.257 184.169 139.276 184.15 139.276 184.131C140.436 183.219 141.234 180.805 141.234 179.361C141.234 178.715 141.082 178.259 140.721 178.24C140.569 178.221 140.398 178.259 140.246 178.354Z" fill="#CBDCEB"/>
<path d="M129.255 195.855C129.217 196.843 129.065 198.952 128.475 200.928C128.475 201.099 128.475 201.271 128.475 201.442C129.768 201.879 130.966 201.632 132.012 201.099C132.088 201.061 132.145 201.023 132.222 200.985C132.26 200.966 132.298 200.947 132.336 200.928C134.351 199.712 135.721 197.413 135.911 197.052C135.93 197.014 135.93 197.014 135.93 197.014C135.264 195.741 135.074 193.708 135.017 192.663L133.667 194.601C133.229 195.228 132.716 195.703 132.202 196.007C131.689 196.311 131.176 196.425 130.738 196.292L129.255 195.855Z" fill="#CBDCEB"/>
<path d="M120.317 210.372C120.945 209.555 121.781 208.586 122.656 207.56C122.751 208.263 122.922 208.947 123.227 209.612C124.957 213.546 128.076 213.299 128.247 213.28C128.209 213.166 127.562 210.885 127.562 208.472C127.562 207.731 127.619 206.99 127.79 206.325C127.962 205.66 128.095 204.957 128.209 204.254C128.361 203.304 128.437 202.354 128.475 201.441C129.768 201.878 130.966 201.631 132.012 201.099C132.088 201.061 132.145 201.023 132.221 200.985C132.259 200.966 132.297 200.947 132.335 200.928C134.351 199.712 135.72 197.413 135.91 197.052C135.929 197.014 135.929 197.014 135.948 196.995C136.12 196.976 141.501 196.444 143.935 196.767C144.791 196.881 145.571 198.401 146.236 200.358C142.433 206.515 137.375 211.836 131.841 215.028C126.554 218.087 121.686 218.676 117.94 217.213C118.587 214.249 119.423 211.531 120.317 210.372Z" fill="#4B5CC0"/>
<path d="M125.337 197.242C125.869 196.007 126.173 195.019 126.325 194.259C126.801 194.867 127.409 195.304 128.113 195.551C128.189 195.57 128.246 195.608 128.322 195.627L129.254 195.874C129.216 196.862 129.064 198.971 128.474 200.947C128.436 201.1 128.379 201.252 128.322 201.404L128.455 201.442C128.436 202.354 128.341 203.323 128.189 204.254C128.075 204.976 127.942 205.66 127.771 206.325C127.599 206.99 127.542 207.731 127.542 208.472C127.542 210.886 128.189 213.166 128.227 213.28C128.056 213.299 124.937 213.527 123.207 209.612C122.902 208.947 122.731 208.244 122.636 207.56C122.579 207.18 122.56 206.819 122.56 206.439C122.598 203.38 124.081 200.149 125.337 197.242Z" fill="#8182EE"/>
<path d="M125.661 190.705L126.593 186.506C134.732 181.47 137.299 174.706 137.432 174.345C137.394 174.725 137.375 175.086 137.375 175.428C137.394 177.879 138.231 179.627 138.839 180.558C139.011 180.824 139.163 181.014 139.258 181.166L139.087 183.2C139.049 183.542 139.011 183.903 138.954 184.264C138.573 186.563 137.527 189.014 136.044 191.142L134.998 192.625C134.979 192.264 134.979 192.264 134.998 192.625L133.648 194.563C133.211 195.19 132.697 195.665 132.184 195.969C131.67 196.273 131.157 196.387 130.719 196.254L129.236 195.855L128.304 195.608C128.228 195.589 128.171 195.551 128.095 195.532C127.373 195.285 126.764 194.848 126.308 194.24C125.851 193.651 125.528 192.91 125.338 191.998C125.566 191.675 125.642 191.2 125.661 190.705Z" fill="#CBDCEB"/>
<path d="M125.355 192.017L125.298 192.093L125.317 192.169L125.355 192.036V192.017Z" fill="#25437F"/>
<path d="M125.66 190.705L125.356 192.016C125.565 191.674 125.641 191.199 125.66 190.705Z" fill="#FF8D68"/>
<path d="M123.892 187.779C123.74 187.874 123.569 188.007 123.398 188.216C123.036 188.653 122.884 189.28 122.903 189.926C122.922 191.351 123.74 192.834 124.881 192.416C124.919 192.397 124.957 192.378 124.995 192.359C125.033 192.34 125.052 192.321 125.09 192.302C125.185 192.245 125.261 192.169 125.318 192.074C125.204 191.731 124.577 189.869 124.101 187.665C124.063 187.684 124.044 187.684 124.006 187.703C123.968 187.76 123.93 187.76 123.892 187.779Z" fill="#CBDCEB"/>
<path d="M131.688 165.509C119.784 172.368 110.162 189.033 110.2 202.696C110.219 210.277 113.223 215.351 117.92 217.194C118.605 214.23 119.423 211.531 120.336 210.372C120.963 209.555 121.8 208.586 122.675 207.56C122.618 207.18 122.598 206.819 122.598 206.439C122.598 203.361 124.082 200.149 125.337 197.242C125.869 196.007 126.174 195.019 126.326 194.259C125.869 193.67 125.546 192.928 125.356 192.035C125.242 192.187 125.166 192.263 125.071 192.32C123.72 192.852 122.903 191.351 122.884 189.945C122.865 189.299 123.036 188.672 123.378 188.235C123.549 188.026 123.72 187.874 123.873 187.798C123.758 186.278 123.511 184.72 123.492 183.313C123.492 182.914 123.511 182.534 123.549 182.173C123.968 178.316 126.535 173.565 131.384 169.936C131.479 169.86 131.555 169.803 131.65 169.746C132.012 169.499 132.354 169.271 132.696 169.062C136.557 166.877 139.048 168.226 139.808 170.772C139.865 170.981 139.922 171.19 139.96 171.399C140.189 172.71 140.341 174.25 140.341 175.751C140.341 176.644 140.303 177.537 140.208 178.373C140.36 178.278 140.531 178.24 140.702 178.24C141.063 178.259 141.216 178.715 141.216 179.361C141.196 180.805 140.398 183.218 139.257 184.131C139.086 184.245 138.991 184.264 138.934 184.283C138.553 186.582 137.507 189.033 136.024 191.161L134.978 192.643C135.035 193.689 135.225 195.722 135.91 196.995C136.081 196.976 141.463 196.444 143.897 196.767C144.753 196.881 145.532 198.401 146.198 200.358C150.572 193.29 153.31 185.138 153.291 177.841C153.272 164.159 143.593 158.63 131.688 165.509Z" fill="#25437F"/>
<path d="M123.587 182.173C124.006 178.316 126.573 173.565 131.422 169.936C131.517 169.86 131.593 169.803 131.688 169.746C132.05 169.499 132.392 169.271 132.772 169.043C132.81 169.024 132.829 169.005 132.867 168.986C136.595 166.877 139.086 168.226 139.846 170.772C139.903 170.981 139.961 171.19 139.999 171.399C140.227 172.71 140.379 174.249 140.379 175.751C140.379 176.644 140.341 177.537 140.227 178.373C140.246 178.373 140.246 178.354 140.265 178.354C140.132 179.551 139.865 180.634 139.466 181.394C139.466 181.394 139.39 181.318 139.276 181.185C139.162 181.052 139.01 180.843 138.858 180.577C138.249 179.627 137.412 177.879 137.393 175.447C137.393 175.104 137.412 174.724 137.45 174.363C137.317 174.724 134.75 181.489 126.611 186.525L125.679 190.724L125.375 192.035L125.318 192.111C125.204 191.769 124.576 189.907 124.101 187.703C123.797 186.278 123.549 184.701 123.549 183.313C123.53 182.914 123.549 182.534 123.587 182.173Z" fill="#8182EE"/>
<path d="M161.791 72.9311C160.973 73.4062 160.326 74.5463 160.326 75.4774C160.326 76.4085 160.973 76.7885 161.81 76.3135L221.863 41.6728C222.662 41.2168 223.309 40.0766 223.309 39.1455C223.309 38.2144 222.662 37.8344 221.844 38.2904L161.791 72.9311Z" fill="#273C7F"/>
<path d="M179.096 71.5629C178.297 72.019 177.651 73.1401 177.651 74.0712C177.651 75.0023 178.297 75.3823 179.115 74.9263L221.883 50.2617C222.682 49.8056 223.328 48.6655 223.328 47.7344C223.328 46.8033 222.682 46.4423 221.864 46.8983L179.096 71.5629Z" fill="#273C7F"/>
<path d="M161.791 169.48C160.973 169.955 160.326 171.096 160.326 172.027C160.326 172.958 160.973 173.338 161.81 172.863L221.863 138.222C222.662 137.766 223.309 136.626 223.309 135.695C223.309 134.764 222.662 134.384 221.844 134.84L161.791 169.48Z" fill="#254DA1"/>
<path d="M179.096 168.093C178.297 168.549 177.651 169.67 177.651 170.601C177.651 171.533 178.297 171.913 179.115 171.457L221.883 146.792C222.682 146.336 223.328 145.196 223.328 144.265C223.328 143.334 222.682 142.973 221.864 143.429L179.096 168.093Z" fill="#254DA1"/>
<path d="M179.288 187.551C176.74 186.069 173.222 186.278 169.342 188.52C161.622 192.967 155.384 203.76 155.422 212.634C155.441 217.042 156.982 220.14 159.492 221.603L162.554 223.389C160.043 221.926 158.484 218.829 158.484 214.42C158.465 205.565 164.683 194.772 172.404 190.307C176.283 188.064 179.82 187.855 182.35 189.337L179.288 187.551Z" fill="#86E563"/>
<path d="M172.403 190.307C164.683 194.753 158.445 205.546 158.483 214.42C158.502 223.275 164.778 226.867 172.498 222.401C180.219 217.955 186.456 207.142 186.437 198.287C186.399 189.414 180.124 185.86 172.403 190.307Z" fill="#2AB774"/>
<path d="M167.384 201.955L164.379 207.142L175.846 213.679L181.418 204.045L178.394 202.316L175.827 206.762L167.384 201.955Z" fill="white"/>
<path d="M179.288 232.111C176.74 230.629 173.222 230.838 169.342 233.08C161.622 237.526 155.384 248.32 155.422 257.193C155.441 261.602 156.982 264.699 159.492 266.162L162.554 267.949C160.043 266.485 158.484 263.388 158.484 258.98C158.465 250.125 164.683 239.332 172.404 234.866C176.283 232.624 179.82 232.415 182.35 233.897L179.288 232.111Z" fill="#FF7363"/>
<path d="M172.403 234.866C164.683 239.313 158.445 250.106 158.483 258.98C158.502 267.835 164.778 271.426 172.498 266.961C180.219 262.514 186.456 251.702 186.437 242.847C186.399 233.973 180.124 230.401 172.403 234.866Z" fill="#FF465C"/>
<path d="M168.467 246.058L165.481 251.246L169.836 253.754L165.5 261.241L168.524 262.97L172.859 255.445L177.214 257.953L180.219 252.747L175.864 250.276L180.181 242.771L177.157 241.042L172.84 248.547L168.467 246.058Z" fill="white"/>
<path d="M240.862 139.59C242.231 134.84 246.852 130.697 253.774 131.02C260.43 131.343 265.336 134.289 266.971 139.248C267.941 142.193 267.713 147.343 265.944 151.048C265.07 152.872 263.396 154.545 261.399 155.932L263.339 162.792C261.609 164.882 254.382 167.409 249.305 167.143C249.286 167.143 248.696 164.749 248.05 162.183C244.665 163.134 242.174 160.359 240.957 156.578C240.082 153.956 239.797 143.295 240.862 139.59Z" fill="#FF8E54"/>
<path d="M240.863 139.59C242.232 134.84 246.853 130.697 253.775 131.02C253.889 131.02 254.003 131.039 254.117 131.058L267.276 140.502C267.847 143.504 267.486 147.818 265.926 151.048C265.052 152.872 263.378 154.545 261.381 155.932L263.321 162.792C261.591 164.882 254.364 167.409 249.287 167.143C249.268 167.143 248.678 164.749 248.032 162.183C246.815 162.525 245.712 162.373 244.723 161.86C245.712 161.461 246.492 160.435 247.271 159.01C248.507 156.749 244.381 155.305 244.172 153.024C243.962 150.763 245.408 146.83 242.726 144.987C241.338 144.037 240.787 142.383 240.577 140.977C240.654 140.483 240.749 139.989 240.863 139.59Z" fill="#FF5F4D"/>
<path d="M252.044 380.954C220.673 380.954 195.242 364.807 195.242 344.888C195.242 324.969 220.673 308.822 252.044 308.822C283.415 308.822 308.846 324.969 308.846 344.888C308.846 364.807 283.415 380.954 252.044 380.954Z" fill="#CBDCEB"/>
<path d="M226.143 160.018L223.708 158.155L220.552 151.543C220.552 151.543 218.821 150.821 218.403 150.688C217.966 150.536 214.676 151.258 214.676 151.258C214.676 151.258 213.097 149.395 212.66 149.11C212.223 148.825 210.511 146.963 209.788 147.381C209.066 147.818 209.218 148.521 209.636 149.11C210.074 149.68 211.5 151.125 211.5 151.125L213.078 155.001L212.926 156.445C212.926 156.445 212.07 156.445 211.785 157.3C211.5 158.155 211.5 159.029 212.508 159.314C213.516 159.599 214.371 160.037 214.371 160.037C214.371 160.037 216.387 161.481 217.528 161.899C218.669 162.336 219.962 162.621 219.962 162.621L220.685 164.35L226.143 160.018Z" fill="#FF8E54"/>
<path d="M211.785 157.281C211.804 157.243 211.823 157.243 211.823 157.205C212.413 157.224 213.116 157.281 213.535 157.452C214.333 157.794 215.493 159.409 215.95 159.751C216.406 160.093 219.183 161.367 220.438 160.207C221.369 159.352 223.423 158.896 224.431 158.706L226.143 160.017L220.685 164.331L219.962 162.602C219.962 162.602 218.669 162.317 217.528 161.88C216.387 161.443 214.371 160.017 214.371 160.017C214.371 160.017 213.516 159.58 212.508 159.295C211.481 159.01 211.481 158.155 211.785 157.281Z" fill="#FF5F4D"/>
<path d="M228.844 161.12L225.782 158.611C225.782 158.611 220.648 159.713 220.077 164.027L222.587 166.668L228.844 161.12Z" fill="#F9FBFC"/>
<path d="M245.406 174.706L228.729 159.295C228.729 159.295 221.217 159.713 220.4 165.965L237.077 185.119C237.077 185.119 245.406 183.466 245.406 174.706Z" fill="#253C72"/>
<path d="M237.077 185.119L220.4 165.965C220.628 164.255 221.37 162.982 222.321 162.032C227.93 169.937 238.18 178.621 238.18 178.621L239.568 184.207C238.18 184.91 237.077 185.119 237.077 185.119Z" fill="#252F4C"/>
<path d="M276.916 337.667L277.429 344.641C277.505 345.762 276.878 346.807 275.851 347.244C274.9 347.643 273.512 347.947 271.686 347.662C267.693 347.054 265.848 344.907 265.24 343.672C264.631 342.437 256.625 336.907 257.557 334.152C259.098 331.397 261.855 334.152 264.631 334.152C267.389 334.133 273.227 332.765 276.916 337.667Z" fill="#171E26"/>
<path d="M275.072 230.933C275.072 230.933 276.916 277.925 275.985 292.67C275.985 292.67 279.674 329.534 277.829 338.275C277.829 338.275 271.383 342.874 265.849 339.187C264.461 338.731 264.461 336.888 264.461 336.888C264.461 336.888 260.772 302.342 259.859 291.739C258.946 281.136 251.568 249.346 252.937 242.448C254.325 235.55 263.092 225.878 275.072 230.933Z" fill="#171E26"/>
<path d="M245.329 347.491C245.329 347.491 247.859 355.32 246.014 357.163C244.169 359.006 241.868 359.462 240.176 358.93C238.484 358.398 236.867 357.619 236.867 357.619L236.335 356.004L235.726 357.087C235.726 357.087 234.813 356.935 233.577 356.251C232.341 355.567 228.804 354.18 227.359 353.249C225.895 352.337 223.289 350.722 223.061 348.726C222.909 346.731 230.059 347.415 231.98 347.491C233.901 347.567 235.137 346.807 235.821 346.807C236.506 346.807 243.96 347.719 243.96 347.719" fill="#171E26"/>
<path d="M233.673 230.078C233.673 230.078 231.752 237.089 231.752 251.227C231.752 265.364 232.988 300.974 232.988 300.974C232.988 300.974 233.597 337.211 234.224 346.427C234.224 346.427 238.522 351.957 245.9 347.662C249.59 343.368 248.354 340.289 248.354 340.289C248.354 340.289 253.279 318.171 251.434 297.896C251.434 297.896 258.204 256.738 259.421 251.835C260.657 246.913 282.089 244.804 273.721 220.824L233.673 230.078Z" fill="#1F2F3F"/>
<path d="M245.406 251.854C245.406 251.854 235.499 256.186 236.735 270.419C237.971 284.652 240.443 293.944 239.207 302.589C237.971 311.254 236.107 316.195 237.343 326.722C238.351 335.273 241.812 343.425 239.074 349.163C235.917 348.631 234.187 346.408 234.187 346.408C233.578 337.192 232.951 300.955 232.951 300.955C232.951 300.955 231.714 265.326 231.714 251.208C231.714 245.127 232.076 240.377 232.475 236.918L247.859 243.816L245.406 251.854Z" fill="#25437F"/>
<path d="M229.375 184.815C229.242 181.756 230.707 178.849 233.255 177.157C238.884 173.414 246.547 168.645 251.491 166.041C257.653 162.792 264.023 159.372 267.427 159.049C276.916 158.174 282.64 166.991 281.746 178.583C281.195 185.632 279.331 193.48 276.764 201.537C275.68 204.976 274.939 211.057 274.653 216.644C274.71 219.342 274.939 222.401 275.68 224.187C277.221 227.874 278.761 242.619 278.761 242.619C278.761 242.619 268.302 253.375 254.781 254.287C241.261 255.199 236.031 252.443 236.031 252.443L235.118 246.306L233.274 251.835C233.274 251.835 230.821 250.923 230.516 248.453C230.231 246.23 232.703 227.285 233.198 223.598C232.418 215.941 230.878 204.672 230.402 199.561C229.946 194.829 229.585 189.433 229.375 184.815Z" fill="#25437F"/>
<path d="M263.093 159.125C263.093 159.125 258.643 162.963 248.032 164.502L246.434 168.321C246.434 168.321 250.485 169.405 255.714 168.797C260.944 168.188 265.242 164.027 265.698 163.115C266.154 162.203 266.154 162.203 266.154 162.203L263.093 159.125Z" fill="#F9FBFC"/>
<path d="M269.254 139.229C269.254 139.229 269.254 132.104 261.515 129.956C253.775 127.79 252.843 128.721 250.675 127.163C248.508 125.624 245.712 125.301 241.7 126.536C237.668 127.771 237.06 131.799 238.296 135.505C239.532 139.21 240.159 141.377 243.259 142.935C246.359 144.474 245.731 148.198 245.731 148.198C245.731 148.198 245.104 152.227 247.272 153.766L249.135 149.129C249.135 149.129 250.675 154.393 252.235 156.236C253.775 158.098 257.198 159.029 260.602 159.029C264.006 159.029 268.342 150.668 269.578 147.894C270.814 145.101 268.342 142.631 268.342 142.631C268.342 142.631 269.863 141.396 269.254 139.229Z" fill="#25437F"/>
<path d="M241.698 185.024C244.798 177.594 255.941 179.456 270.812 173.889C277.962 171.21 278.951 167.105 278.038 163.552C280.853 167.105 282.241 172.445 281.766 178.582C281.214 185.632 279.35 193.48 276.783 201.537C275.699 204.976 274.958 211.057 274.672 216.643C274.729 219.342 274.958 222.401 275.699 224.187C277.24 227.874 278.78 242.619 278.78 242.619C278.78 242.619 268.321 253.374 254.8 254.286C247.251 254.799 242.307 254.172 239.378 253.507C237.248 238.021 246.775 230.42 249.114 223.389C251.606 215.959 238.598 192.454 241.698 185.024Z" fill="#252F4C"/>
<path d="M244.381 129.329C245.788 126.745 248.545 126.707 250.656 127.144C250.656 127.144 250.675 127.144 250.675 127.163C252.843 128.702 253.775 127.79 261.514 129.956C269.254 132.123 269.254 139.229 269.254 139.229C269.881 141.396 268.322 142.631 268.322 142.631C268.322 142.631 270.794 145.101 269.558 147.894C268.721 149.775 266.459 154.203 264.024 156.882C259.232 156.046 257.141 152.113 257.996 149.547C259.232 145.842 255.106 149.129 253.851 146.716C252.596 144.284 257.996 142.536 252.634 137.595C247.271 132.636 241.889 133.871 244.381 129.329Z" fill="#252F4C"/>
<path d="M184.498 211.323L181.893 210.734C181.893 210.734 177.557 207.294 176.949 207.104C176.34 206.914 171.091 202.981 170.578 203.874C170.065 204.786 170.654 205.584 171.415 206.078C172.175 206.572 173.678 207.256 173.678 207.256L174.99 209.175C174.99 209.175 174.153 210.525 174.115 211.304C174.077 212.083 174.191 213.166 174.191 213.166C174.191 213.166 173.659 214.534 174.381 215.807C175.104 217.08 176.758 217.935 177.861 217.821C178.945 217.707 181.436 217.517 181.436 217.517L183.129 217.745L184.498 211.323Z" fill="#FF8E54"/>
<path d="M174.381 215.845C173.963 215.123 173.982 214.382 174.039 213.869C174.686 214.572 175.598 215.427 176.302 215.503C177.538 215.655 179.097 216.738 180.181 215.047C181.265 213.337 183.433 211.95 183.433 211.95L184.422 211.779L183.148 217.783L181.455 217.555C181.455 217.555 178.964 217.745 177.88 217.859C176.777 217.954 175.104 217.099 174.381 215.845Z" fill="#FF5F4D"/>
<path d="M187.18 210.905L183.966 210.354C183.966 210.354 181.608 211.779 181.361 215.028C181.304 217.992 182.426 219.056 182.426 219.056L185.031 219.379L187.18 210.905Z" fill="#CBDCEB"/>
<path d="M233.599 177.442C233.599 177.442 230.252 178.05 227.704 183.789C225.155 189.527 216.636 209.214 214.544 210.848C212.453 212.463 187.142 209.575 187.142 209.575C187.142 209.575 182.14 212.805 183.319 216.947C184.498 220.672 186.172 220.292 186.172 220.292C186.172 220.292 211.026 226.068 215.971 226.543C220.915 227.018 223.007 224.985 224.262 224.187C225.517 223.37 235.691 203.703 237.801 200.435C239.912 197.166 245.427 185.689 241.357 181.509C237.269 177.328 233.599 177.442 233.599 177.442Z" fill="#25437F"/>
<path d="M186.171 220.292C186.171 220.292 184.517 220.691 183.319 216.948C183.072 216.073 183.11 215.256 183.3 214.496C186.171 215.389 190.26 216.568 194.463 217.518C202.278 219.266 212.338 221.128 219.374 218.753C226.429 216.378 233.674 199.143 236.28 189.68C237.611 184.853 237.211 180.882 236.489 178.126C237.858 178.678 239.55 179.647 241.338 181.49C245.407 185.67 239.893 197.147 237.782 200.416C235.671 203.684 225.497 223.351 224.242 224.168C222.987 224.985 220.895 227.019 215.951 226.525C211.026 226.069 186.171 220.292 186.171 220.292Z" fill="#252F4C"/>
<path d="M420.129 114.393L419.615 291.625L318.581 233.327L319.076 56.0952L420.129 114.393Z" fill="#2261A2"/>
<path d="M406.913 121.823L410.412 119.79L409.899 297.022L406.419 299.036L406.913 121.823Z" fill="#2261A2"/>
<path d="M305.879 63.5249L309.359 61.4917L410.412 119.79L406.913 121.823L305.879 63.5249Z" fill="white"/>
<path d="M406.914 121.823L406.42 299.036L305.367 240.757L305.88 63.5249L406.914 121.823Z" fill="#EAF1F7"/>
<path d="M327.368 101.529V104.075L386.186 138.013V135.466L327.368 101.529Z" fill="#2261A2"/>
<path d="M352.811 126.383V128.93L386.147 148.16L386.166 145.613L352.811 126.383Z" fill="#2261A2"/>
<path d="M332.064 164.197V166.725L386.014 197.85V195.323L332.064 164.197Z" fill="#2261A2"/>
<path d="M352.717 164.862L352.698 167.39L386.053 186.62V184.092L352.717 164.862Z" fill="#2261A2"/>
<path d="M343.835 149.566V152.093L386.071 176.473L386.09 173.926L343.835 149.566Z" fill="#2261A2"/>
<path d="M370.821 148.027V150.573L386.129 159.39V156.863L370.821 148.027Z" fill="#2261A2"/>
<path d="M369.888 205.47C360.513 200.054 351.632 201.442 347.962 209.974C343.379 220.634 348.589 238.61 359.638 251.018L362.205 245.051C354.713 236.329 351.233 223.978 354.408 216.605C356.995 210.601 363.251 209.612 369.869 213.432C371.485 214.363 373.121 215.579 374.718 217.08L377.285 211.114C374.832 208.776 372.341 206.895 369.888 205.47Z" fill="#273C7F"/>
<path d="M377.284 211.133L374.717 217.099C375.117 217.479 375.516 217.879 375.915 218.278C384.435 227.038 388.58 240.491 385.214 248.358C385.081 248.643 384.967 248.909 384.815 249.175C384.758 249.27 384.72 249.365 384.663 249.46C382.191 253.792 377.494 254.856 372.264 252.747C371.446 252.424 370.61 252.025 369.773 251.531C369.545 251.398 369.317 251.265 369.107 251.132C368.708 250.885 368.385 250.676 368.081 250.467L367.947 250.372C367.282 249.897 366.616 249.384 365.932 248.814C365.856 248.738 365.761 248.662 365.684 248.586C365.437 248.377 365.19 248.149 364.943 247.921C364.848 247.845 364.753 247.75 364.677 247.655C364.353 247.351 364.03 247.028 363.707 246.705C363.193 246.173 362.699 245.621 362.223 245.07L359.656 251.037C360.151 251.588 360.645 252.12 361.14 252.652C361.596 253.127 362.052 253.564 362.509 254.001C362.642 254.134 362.775 254.248 362.908 254.362C363.25 254.685 363.612 255.008 363.973 255.312C364.087 255.427 364.201 255.522 364.334 255.617C365.285 256.434 366.236 257.175 367.187 257.84C367.263 257.897 367.339 257.954 367.415 257.992C367.852 258.296 368.29 258.581 368.708 258.847L368.86 258.942C369.164 259.132 369.45 259.303 369.754 259.474C370.458 259.873 371.161 260.253 371.865 260.576C372.397 260.823 372.892 261.032 373.386 261.241C381.373 264.395 388.504 262.4 391.699 254.989C396.491 243.854 390.596 224.757 378.521 212.33C378.083 211.912 377.684 211.513 377.284 211.133Z" fill="#2261A2"/>
<path d="M322.023 212.691V213.983C322.023 214.743 321.206 215.218 320.54 214.838L314.455 211.342C314.151 211.171 313.961 210.848 313.961 210.487V209.194C313.961 208.434 314.778 207.959 315.444 208.339L321.529 211.836C321.833 212.026 322.023 212.349 322.023 212.691Z" fill="#273C7F"/>
<path d="M341.287 230.116V231.408C341.287 232.168 340.469 232.643 339.804 232.263L314.455 217.745C314.151 217.574 313.961 217.251 313.961 216.89V215.598C313.961 214.838 314.778 214.363 315.444 214.743L340.793 229.261C341.116 229.432 341.287 229.774 341.287 230.116Z" fill="#273C7F"/>
<g opacity="0.53">
<path d="M330.848 236.937V238.229C330.848 238.989 330.03 239.465 329.364 239.084L314.456 230.553C314.151 230.382 313.961 230.059 313.961 229.697V228.405C313.961 227.645 314.779 227.17 315.444 227.55L330.353 236.082C330.657 236.272 330.848 236.595 330.848 236.937Z" fill="#273C7F"/>
</g>
<path d="M337.369 234.277V235.569C337.369 236.329 336.551 236.804 335.886 236.424L314.473 224.149C314.169 223.978 313.979 223.655 313.979 223.294V222.002C313.979 221.241 314.797 220.766 315.462 221.146L336.875 233.422C337.179 233.593 337.369 233.916 337.369 234.277Z" fill="#273C7F"/>
<defs>
<linearGradient id="paint0_linear_5596_18100" x1="113.99" y1="293.987" x2="224.387" y2="293.987" gradientUnits="userSpaceOnUse">
<stop stop-color="#002680"/>
<stop offset="1" stop-color="#1C67A6"/>
</linearGradient>
<linearGradient id="paint1_linear_5596_18100" x1="128.931" y1="287.73" x2="208.477" y2="287.73" gradientUnits="userSpaceOnUse">
<stop stop-color="#002680"/>
<stop offset="1" stop-color="#1C67A6"/>
</linearGradient>
<linearGradient id="paint2_linear_5596_18100" x1="165.252" y1="284.709" x2="170.234" y2="284.709" gradientUnits="userSpaceOnUse">
<stop stop-color="#002680"/>
<stop offset="1" stop-color="#1C67A6"/>
</linearGradient>
<linearGradient id="paint3_linear_5596_18100" x1="384.524" y1="263.71" x2="290.829" y2="263.71" gradientUnits="userSpaceOnUse">
<stop stop-color="#002680"/>
<stop offset="1" stop-color="#1C67A6"/>
</linearGradient>
<linearGradient id="paint4_linear_5596_18100" x1="398.79" y1="259.322" x2="328.383" y2="259.322" gradientUnits="userSpaceOnUse">
<stop stop-color="#002680"/>
<stop offset="1" stop-color="#1C67A6"/>
</linearGradient>
<linearGradient id="paint5_linear_5596_18100" x1="370.132" y1="432.216" x2="135.877" y2="432.216" gradientUnits="userSpaceOnUse">
<stop stop-color="white"/>
<stop offset="1" stop-color="#CBDCEB"/>
</linearGradient>
<linearGradient id="paint6_linear_5596_18100" x1="280.368" y1="271.382" x2="179.591" y2="549.316" gradientUnits="userSpaceOnUse">
<stop stop-color="white"/>
<stop offset="1" stop-color="#CBDCEB"/>
</linearGradient>
<linearGradient id="paint7_linear_5596_18100" x1="127.978" y1="98.4994" x2="107.2" y2="98.4994" gradientUnits="userSpaceOnUse">
<stop stop-color="#002680"/>
<stop offset="1" stop-color="#1C67A6"/>
</linearGradient>
</defs>
</svg>
