<svg width="631" height="598" viewBox="0 0 631 598" fill="none" xmlns="http://www.w3.org/2000/svg">
<path d="M568 140.282L621.422 109.921C622.484 109.311 623.435 109.29 624.187 109.703V109.66L629.363 112.6C629.363 112.6 627.063 113.428 625.713 113.907V152.239C625.713 155.353 623.789 158.969 621.422 160.319L570.367 189.351V193.838L565.124 190.876H565.146C564.261 190.353 563.686 189.177 563.686 187.5V148.384C563.708 145.248 565.633 141.632 568 140.282Z" fill="url(#paint0_linear_3900_3973)"/>
<path d="M573.264 193.685L626.709 163.303C629.075 161.953 631 158.337 631 155.223V116.107C631 112.992 629.075 111.555 626.709 112.905L573.264 143.287C570.897 144.638 568.973 148.253 568.973 151.368V190.484C568.973 193.598 570.897 195.036 573.264 193.685Z" fill="url(#paint1_linear_3900_3973)"/>
<path d="M571.959 142.351L625.381 111.99C626.885 111.141 628.213 111.402 628.965 112.491C628.301 112.317 627.527 112.426 626.686 112.905L573.264 143.287C570.897 144.638 568.973 148.253 568.973 151.367V190.483C568.973 191.638 569.238 192.531 569.681 193.184C568.464 192.879 567.668 191.572 567.668 189.569V150.431C567.668 147.316 569.592 143.701 571.959 142.351Z" fill="white"/>
<path d="M608.724 149.843C608.724 152.108 610.339 153.023 612.33 151.89C614.321 150.758 615.936 148.013 615.936 145.748C615.936 143.483 614.321 142.569 612.33 143.701C610.339 144.812 608.724 147.578 608.724 149.843Z" fill="white"/>
<path d="M597.818 156.05C597.818 158.315 599.433 159.23 601.424 158.097C603.414 156.965 605.029 154.221 605.029 151.956C605.029 149.691 603.414 148.776 601.424 149.908C599.433 151.019 597.818 153.785 597.818 156.05Z" fill="white"/>
<path d="M586.89 162.257C586.89 164.522 588.505 165.437 590.496 164.305C592.487 163.172 594.102 160.428 594.102 158.163C594.102 155.898 592.487 154.983 590.496 156.115C588.505 157.248 586.89 159.992 586.89 162.257Z" fill="white"/>
<path d="M254.656 375.37C257.51 374.956 260.208 374.107 262.442 372.843C269.123 369.032 269.123 362.868 262.442 359.079C255.762 355.267 244.923 355.267 238.22 359.079C235.986 360.342 234.526 361.888 233.774 363.5L187.497 337.19L285.957 281.217C294.23 276.513 307.636 276.513 315.909 281.217L414.369 337.19L369.021 362.955C370.769 363.413 372.428 364.066 373.866 364.872C380.546 368.684 380.546 374.847 373.866 378.637C367.185 382.426 356.324 382.448 349.643 378.637C348.205 377.809 347.077 376.873 346.259 375.871L300.911 401.636L254.656 375.37Z" fill="#EFEFEF"/>
<path d="M34.3105 434.436L132.771 378.462L179.048 404.772C179.8 403.16 181.26 401.614 183.494 400.351C190.175 396.539 201.036 396.539 207.717 400.351C214.397 404.162 214.397 410.326 207.717 414.115C205.482 415.379 202.784 416.228 199.93 416.642L246.207 442.952L198.559 470.023C198.315 467.737 196.656 465.493 193.603 463.751C186.923 459.94 176.084 459.94 169.381 463.751C162.7 467.562 162.7 473.726 169.381 477.516C172.456 479.258 176.393 480.194 180.397 480.347L132.749 507.419L34.2884 451.446C26.0373 446.763 26.0373 439.14 34.3105 434.436Z" fill="#EFEFEF"/>
<path d="M395.345 473.356C397.535 472.114 400.167 471.287 402.954 470.851L356.744 444.585L402.091 418.82C402.91 419.822 404.038 420.758 405.476 421.586C412.157 425.397 422.996 425.397 429.698 421.586C436.379 417.774 436.379 411.611 429.698 407.821C428.261 406.994 426.602 406.362 424.854 405.905L470.202 380.139L568.662 436.113C576.935 440.817 576.935 448.44 568.662 453.144L470.202 509.118L423.991 482.852C423.239 484.441 421.779 485.922 419.589 487.164C412.909 490.975 402.047 490.975 395.367 487.164C388.664 483.309 388.664 477.145 395.345 473.356Z" fill="#EFEFEF"/>
<path d="M238.707 516.131C234.902 516 231.186 515.107 228.288 513.452C221.962 509.858 221.962 504.021 228.288 500.428C234.615 496.834 244.879 496.834 251.206 500.428C254.103 502.083 255.652 504.196 255.895 506.352L300.956 480.739L344.667 505.589C342.034 506.003 339.535 506.787 337.477 507.963C331.151 511.557 331.151 517.394 337.477 520.988C343.804 524.581 354.068 524.581 360.372 520.988C362.43 519.811 363.823 518.396 364.531 516.893L408.242 541.743L315.113 594.689C307.282 599.132 294.607 599.132 286.776 594.689L193.647 541.743L238.707 516.131Z" fill="#EFEFEF"/>
<path d="M194.312 262.356L282.796 212.045C292.817 206.339 309.053 206.339 319.074 212.045L411.894 264.817L438.328 254.189V279.845L395.325 304.282V321.335C395.502 324.471 393.511 327.651 389.286 330.068C381.19 334.664 368.05 334.664 359.954 330.068C358.206 329.067 356.857 327.934 355.861 326.736L300.935 357.946L244.88 326.083V303.28C238.001 302.256 230.369 303.28 224.972 306.329C222.273 307.875 220.481 309.726 219.596 311.687L163.542 279.823V254.167L194.312 262.356Z" fill="url(#paint2_linear_3900_3973)"/>
<path d="M250.122 302.387L251.029 303.606L250.52 303.628L300.933 332.29L355.86 301.08C356.855 302.278 358.205 303.432 359.952 304.412C368.048 309.008 381.188 309.008 389.285 304.412C392.558 302.539 394.483 300.209 395.124 297.791C396.054 301.363 394.107 305.109 389.285 307.853C381.188 312.449 368.048 312.449 359.952 307.853C358.205 306.852 356.855 305.719 355.86 304.521L300.933 335.731L244.879 303.868V300.427L250.122 302.387Z" fill="url(#paint3_linear_3900_3973)"/>
<path d="M244.88 300.427C248.331 299.926 251.605 298.902 254.304 297.377C262.4 292.782 262.4 285.312 254.304 280.694C246.208 276.099 233.068 276.099 224.972 280.694C222.273 282.241 220.481 284.092 219.596 286.052L163.542 254.189L282.796 186.389C292.817 180.683 309.053 180.683 319.074 186.389L438.328 254.189L383.402 285.399C385.525 285.965 387.516 286.727 389.286 287.729C397.382 292.325 397.382 299.795 389.286 304.412C381.19 309.008 368.05 309.008 359.954 304.412C358.206 303.41 356.857 302.278 355.861 301.08L300.935 332.29L244.88 300.427Z" fill="url(#paint4_linear_3900_3973)"/>
<path d="M383.423 285.399L438.35 254.189V257.63L387.162 286.727C385.967 286.205 384.728 285.747 383.423 285.399Z" fill="white"/>
<path d="M219.596 286.052C220.503 284.092 222.273 282.241 224.971 280.694C233.068 276.099 246.208 276.099 254.304 280.694C259.126 283.439 261.051 287.185 260.144 290.757C259.524 288.339 257.6 286.009 254.304 284.136C246.208 279.54 233.068 279.54 224.971 284.136C222.273 285.682 220.481 287.533 219.596 289.493L163.542 257.63V254.189L219.596 286.052Z" fill="white"/>
<path d="M25.0634 365.917L131.841 305.218L187.896 337.081C188.803 335.121 190.572 333.27 193.271 331.724C196.103 330.112 199.553 329.088 203.181 328.587C204.995 326.279 211.034 319.179 211.631 319.004C212.339 318.808 228.665 314.148 228.665 314.148V339.913C228.731 342.984 226.718 346.055 222.603 348.385C219.905 349.931 216.631 350.933 213.18 351.434L241.384 367.464L269.234 357.641V383.298L211.543 416.097C211.233 413.331 209.242 410.631 205.526 408.518C201.146 406.035 195.284 404.903 189.533 405.099V428.599L131.841 461.399L12.5872 393.599C7.45514 390.681 4.97757 386.848 5.08817 383.036V357.881L25.0634 365.917Z" fill="#396CAA"/>
<path d="M211.543 370.535V416.119C211.233 413.353 209.242 410.653 205.526 408.54C197.43 403.944 184.29 403.944 176.194 408.54C174.446 409.52 173.119 410.653 172.123 411.85C167.81 410.522 163.275 409.76 158.652 409.542V370.535H211.543Z" fill="#173D7A"/>
<path d="M131.841 305.24L132.262 305.479V461.225L131.841 461.464L12.5874 393.665C7.45532 390.746 4.97775 386.913 5.08835 383.102V357.946L25.0857 365.917L131.841 305.24Z" fill="#173D7A"/>
<path d="M189.533 410.413V402.986L183.008 406.689L189.533 410.413Z" fill="#396CAA"/>
<path d="M5.26514 359.406C5.92876 362.542 8.33994 365.591 12.5872 368.008L131.841 435.808L182.144 407.212C182.211 406.427 182.432 404.859 182.432 404.859L189.555 403.008V406.449L131.863 439.249L12.6093 371.45C6.81361 368.139 4.38029 363.674 5.26514 359.406Z" fill="white"/>
<path d="M12.5872 347.361L131.841 279.562L187.896 311.425C188.803 309.465 190.572 307.614 193.271 306.067C201.367 301.472 214.507 301.472 222.603 306.067C230.7 310.663 230.7 318.133 222.603 322.751C219.905 324.297 216.631 325.299 213.18 325.8L269.234 357.663L211.543 390.463C211.233 387.697 209.242 384.996 205.526 382.884C197.43 378.288 184.29 378.288 176.194 382.884C168.097 387.479 168.097 394.95 176.194 399.567C179.91 401.679 184.688 402.812 189.533 402.986L131.841 435.786L12.5872 367.987C2.56638 362.302 2.56638 353.068 12.5872 347.361Z" fill="#273C7F"/>
<path d="M222.603 326.192C221.077 327.063 219.351 327.738 217.537 328.283L213.202 325.821C216.653 325.321 219.926 324.297 222.625 322.772C225.899 320.899 227.824 318.569 228.465 316.151C229.35 319.701 227.425 323.448 222.603 326.192Z" fill="white"/>
<path d="M170.354 392.946C169.425 389.374 171.371 385.628 176.194 382.884C184.29 378.288 197.43 378.288 205.526 382.884C209.242 384.996 211.233 387.719 211.543 390.463L269.234 357.663V361.104L211.543 393.904C211.233 391.138 209.242 388.438 205.526 386.325C197.43 381.729 184.29 381.729 176.194 386.325C172.92 388.198 170.995 390.528 170.354 392.946Z" fill="white"/>
<path d="M333.186 383.341V357.685L360.572 367.769L388.113 352.109C389.108 353.307 390.458 354.461 392.205 355.442C400.301 360.037 413.441 360.037 421.538 355.442C429.457 350.933 429.612 343.724 422.068 339.107L415.675 342.635V310.794H435.496L437.465 324.057L470.602 305.218L576.097 365.177L597.377 357.663V383.319C597.377 387.044 594.877 390.79 589.856 393.621L470.602 461.421L414.636 429.601C413.729 431.517 411.959 433.325 409.305 434.828C401.208 439.423 388.069 439.423 379.972 434.828C375.769 432.432 373.756 429.274 373.933 426.138V406.449L333.186 383.341Z" fill="#173D7A"/>
<path d="M470.58 305.218L576.075 365.177L597.355 357.663V383.319C597.355 387.044 594.856 390.79 589.834 393.621L470.58 461.421V305.218Z" fill="#396CAA"/>
<path d="M420.388 310.902L421.074 312.645L420.919 312.797C421.14 312.906 421.339 312.993 421.538 313.124C426.361 315.868 428.285 319.614 427.378 323.186C426.759 320.768 424.834 318.438 421.538 316.565C419.791 315.563 417.778 314.801 415.654 314.235V310.793L420.388 310.902Z" fill="white"/>
<path d="M379.95 392.532C382.605 391.029 385.79 390.027 389.153 389.505L333.187 357.685L388.113 326.475C389.109 327.673 390.458 328.827 392.205 329.807C400.302 334.403 413.442 334.403 421.538 329.807C429.634 325.212 429.634 317.741 421.538 313.124C419.79 312.122 417.777 311.36 415.654 310.794L470.58 279.583L589.834 347.383C599.855 353.089 599.855 362.302 589.834 368.008L470.58 435.808L414.614 403.988C413.707 405.905 411.937 407.712 409.283 409.215C401.187 413.811 388.047 413.811 379.95 409.215C371.832 404.598 371.832 397.127 379.95 392.532Z" fill="#2261A2"/>
<path d="M379.95 409.193C388.047 413.789 401.187 413.789 409.283 409.193C411.937 407.691 413.685 405.883 414.614 403.966L470.58 435.786L589.834 367.986C594.081 365.569 596.492 362.542 597.156 359.384C598.041 363.674 595.63 368.139 589.834 371.406L470.58 439.205L414.614 407.386C413.707 409.302 411.937 411.11 409.283 412.613C401.187 417.208 388.047 417.208 379.95 412.613C375.128 409.868 373.204 406.122 374.111 402.551C374.73 404.99 376.654 407.342 379.95 409.193Z" fill="white"/>
<path d="M389.152 389.483C387.67 389.723 386.232 390.049 384.839 390.463L333.186 361.104V357.663L389.152 389.483Z" fill="white"/>
<path d="M190.33 472.114L221.233 454.538C216.367 454.364 211.588 453.232 207.894 451.119C204.51 449.202 202.563 446.763 202.01 444.258L201.833 444.367V442.821C201.833 442.777 201.833 442.756 201.833 442.712V416.99L227.958 426.987L221.941 430.973C227.449 430.886 233.024 432.018 237.227 434.414C240.943 436.527 242.934 439.249 243.243 441.993L300.935 409.193L334.846 428.468L338.364 416.903L356.901 415.357V443.866L351.238 442.451C349.999 442.908 348.783 443.409 347.699 444.041C339.602 448.636 339.602 456.106 347.699 460.724C355.795 465.319 368.935 465.319 377.031 460.724C379.685 459.221 381.433 457.413 382.362 455.497L413.331 473.116L438.328 461.66V487.316L319.074 555.116C309.053 560.822 292.817 560.822 282.796 555.116L163.542 487.316V461.66L190.33 472.114Z" fill="url(#paint5_linear_3900_3973)"/>
<path d="M347.699 418.45C348.96 417.731 350.398 417.165 351.88 416.664L352.389 415.684L356.924 415.4V418.842C353.561 419.364 350.376 420.366 347.722 421.869C344.448 423.742 342.523 426.072 341.882 428.49C340.953 424.94 342.877 421.172 347.699 418.45Z" fill="white"/>
<path d="M221.233 428.904C216.367 428.729 211.588 427.597 207.894 425.484C199.798 420.889 199.798 413.419 207.894 408.801C215.99 404.206 229.13 404.206 237.227 408.801C240.943 410.914 242.934 413.636 243.243 416.381L300.935 383.581L356.901 415.4C353.539 415.923 350.353 416.925 347.699 418.428C339.602 423.023 339.602 430.494 347.699 435.111C355.795 439.706 368.935 439.706 377.031 435.111C379.685 433.608 381.433 431.8 382.362 429.884L438.328 461.704L319.074 529.503C309.053 535.21 292.817 535.21 282.796 529.503L163.542 461.704L221.233 428.904Z" fill="url(#paint6_linear_3900_3973)"/>
<path d="M202.054 418.863C202.673 421.281 204.597 423.611 207.894 425.484C211.61 427.597 216.388 428.729 221.232 428.904L216.145 431.8C213.114 431.256 210.283 430.298 207.871 428.925C203.071 426.181 201.147 422.435 202.054 418.863Z" fill="white"/>
<path d="M282.796 529.481C292.817 535.187 309.053 535.187 319.074 529.481L438.328 461.682V465.123L319.074 532.922C309.053 538.629 292.817 538.629 282.796 532.922L163.542 465.123V461.682L282.796 529.481Z" fill="white"/>
<path d="M469.807 395.363C439.447 395.363 414.836 381.371 414.836 364.11C414.836 346.849 439.447 332.856 469.807 332.856C500.166 332.856 524.777 346.849 524.777 364.11C524.777 381.371 500.166 395.363 469.807 395.363Z" fill="#F3F4FF"/>
<path d="M496.107 44.2776C496.107 44.2776 494.913 68.5617 493.033 84.8964C491.152 101.231 451.224 72.3514 451.224 72.3514V53.7735L496.107 44.2776Z" fill="#161822"/>
<path d="M474.848 346.49C474.251 347.971 463.898 360.364 453.568 363.456C449.077 364.807 446.047 364.981 444.056 364.741C442.065 364.502 440.848 362.498 441.512 360.625C443.282 355.681 448.392 345.423 461.354 339.085C478.896 330.548 474.848 346.49 474.848 346.49Z" fill="#173D7A"/>
<path d="M478.3 351.26C478.3 351.26 474.407 360.255 473.212 367.79C472.482 372.386 475.048 378.353 477.15 382.296C478.455 384.757 481.773 385.301 483.852 383.428C487.237 380.401 491.528 375.152 492.258 367.616C493.453 354.919 492.258 352.697 492.258 352.697L478.3 351.26Z" fill="#173D7A"/>
<path d="M503.209 197.801C503.209 197.801 504.558 213.809 503.209 231.538C501.859 249.245 497.037 332.094 496.13 352.022C496.13 352.022 496.573 358.055 484.716 356.727C472.859 355.398 473.81 348.69 473.81 348.69C473.81 348.69 457.153 348.472 456.622 338.802C456.091 329.132 439.567 223.327 439.567 185.3L503.209 197.801Z" fill="#D4ECFF"/>
<path d="M433.394 114.996L425.231 127.453L397.182 160.82C397.182 160.82 398.155 163.912 401.65 164.718C404.371 165.35 427.974 143.178 438.172 133.465C440.871 130.873 441.335 126.757 439.256 123.664L433.394 114.996Z" fill="#FFC2B0"/>
<path d="M449.322 63.901C449.322 63.901 436.359 63.5743 431.847 82.0216C427.334 100.469 423.795 123.577 427.732 125.493C439.523 131.265 446.977 124.513 446.977 124.513L449.322 63.901Z" fill="#5793CE"/>
<path d="M445.45 64.6851C447.662 63.7704 450.14 63.6615 452.44 64.3149C463.478 67.4293 505.022 79.4516 511.879 85.2014C519.798 91.8659 500.022 129.261 500.31 141.523C500.597 153.785 501.991 168.247 503.097 181.576C504.203 194.905 505.685 202.223 494.603 207.885C483.52 213.548 464.607 213.809 450.471 203.203C436.314 192.574 438.88 185.322 439.477 177.612C440.075 169.902 444.897 136.557 444.477 127.105C444.477 127.105 439.499 123.49 435.805 117.283C432.111 111.075 438.637 99.6848 441.335 92.258C444.034 84.8529 439.809 76.3589 440.65 70.326C441.048 67.1898 443.083 65.6652 445.45 64.6851Z" fill="#5793CE"/>
<path d="M477.193 89.884L472.482 95.22C471.862 95.9169 471.597 96.8316 471.729 97.7464L475.866 126.125C475.977 126.931 475.778 127.737 475.291 128.39L465.204 142.155C464.761 142.765 463.788 142.634 463.545 141.915L457.373 124.404C457.13 123.751 457.13 123.011 457.373 122.357L466.686 96.2218C466.885 95.6555 466.929 95.0239 466.774 94.4359L465.093 87.6189L477.193 89.884Z" fill="white"/>
<path d="M458.722 77.4477C457.837 84.1776 464.119 90.5372 472.747 91.6044C481.374 92.6934 489.072 88.1197 489.934 81.368C490.819 74.6381 484.537 68.2785 475.91 67.2113C467.305 66.1224 459.607 70.6961 458.722 77.4477Z" fill="white"/>
<path d="M463.169 77.9922C462.55 82.8055 467.019 87.3356 473.19 88.1197C479.34 88.9038 484.848 85.6151 485.49 80.8018C486.109 75.9885 481.64 71.4584 475.469 70.6743C469.297 69.912 463.811 73.179 463.169 77.9922Z" fill="#FFC2B0"/>
<path d="M469.297 62.1804C469.297 62.1804 476.796 56.1039 478.278 59.1748C479.761 62.2457 480.955 75.4441 480.955 75.4441L466.068 79.3862L468.324 66.0136C468.324 66.0354 465.338 63.5525 469.297 62.1804Z" fill="#FFC2B0"/>
<path d="M461.581 67.3212C449.864 63.7103 443.339 51.4312 447.006 39.895C450.674 28.3588 463.146 21.9341 474.863 25.5449C486.58 29.1558 493.105 41.4349 489.438 52.9711C485.77 64.5073 473.298 70.932 461.581 67.3212Z" fill="#FFC2B0"/>
<path d="M479.317 63.0298C479.45 63.7267 479.583 64.4672 479.693 65.2077C478.189 72.8306 466.62 76.1628 466.62 76.1628L468.323 66.0354C468.323 66.0354 466.93 64.8593 467.328 63.6832C471.885 62.2675 477.658 61.0043 479.317 63.0298Z" fill="#EA9C92"/>
<path d="M461.581 67.3212C449.864 63.7103 443.339 51.4312 447.006 39.895C450.674 28.3588 463.146 21.9341 474.863 25.5449C486.58 29.1558 493.105 41.4349 489.438 52.9711C485.77 64.5073 473.298 70.932 461.581 67.3212Z" fill="#FFC2B0"/>
<path d="M523.006 139.106L520.506 197.693L511.813 198.564L506.15 145.836L523.006 139.106Z" fill="#FFC2B0"/>
<path d="M494.426 134.205C494.89 132.158 498.695 130.481 499.292 127.824C502.279 114.168 502.987 94.0437 502.987 94.0437L505.42 121.529C502.611 129.675 500.199 137.167 500.31 141.501C500.487 148.71 501.04 156.66 501.681 164.696V164.718C501.681 164.74 491.528 146.707 494.426 134.205Z" fill="#396CAA"/>
<path d="M510.22 84.0034C510.22 84.0034 517.166 86.617 521.104 107.656C525.041 128.673 527.983 149.756 520.971 152.456C513.959 155.179 508.097 157.204 506.017 151.585C503.96 145.966 502.677 118.851 502.412 109.093C502.168 99.358 501.792 85.92 510.22 84.0034Z" fill="#5793CE"/>
<path d="M399.261 158.381C399.261 158.381 395.5 159.753 392.78 162.671C390.545 165.067 389.329 167.092 388.355 168.53C386.187 171.71 384.351 178.592 385.679 179.441C387.006 180.291 394.549 167.92 395.766 170.795C396.983 173.67 395.766 176.327 397.314 176.37C398.885 176.414 404.305 163.934 408.574 160.058C412.843 156.203 399.261 158.381 399.261 158.381Z" fill="#FFC2B0"/>
<path d="M473.809 348.712C473.809 348.712 471.751 348.69 469.053 348.232L465.801 219.45L473.809 348.712Z" fill="#396CAA"/>
<path d="M486.397 279.148L491.021 273.202L539.687 245.455C541.257 244.562 542.518 242.188 542.518 240.141L542.474 200.916L545.283 197.322L542.651 195.819C542.142 195.493 541.478 195.514 540.748 195.928L485.579 227.378C484.008 228.271 482.747 230.645 482.747 232.692L482.792 275.424C482.792 276.578 483.19 277.384 483.831 277.71L486.397 279.148Z" fill="#396CAA"/>
<path d="M520.065 256.65L523.516 254.668L542.496 222.216L542.474 200.894L545.283 197.3L542.651 195.798C542.142 195.471 541.478 195.493 540.748 195.907L485.579 227.356C484.76 227.835 484.008 228.707 483.499 229.752L520.065 256.65Z" fill="#396CAA"/>
<path d="M544.044 198.89L545.283 197.3L542.651 195.798C542.142 195.471 541.478 195.493 540.748 195.907L539.775 196.451L544.044 198.89Z" fill="#396CAA"/>
<path d="M485.092 227.705C483.876 228.685 482.924 230.558 482.792 232.278L488.189 235.349L490.777 230.928L485.092 227.705Z" fill="#396CAA"/>
<path d="M488.21 228.837L543.38 197.409C544.951 196.516 546.212 197.453 546.212 199.5L546.256 242.232C546.256 244.279 544.995 246.675 543.424 247.546L488.255 278.996C486.684 279.888 485.423 278.952 485.423 276.905L485.379 234.173C485.379 232.126 486.64 229.73 488.21 228.837Z" fill="#273C7F"/>
<path d="M487.369 228.358L542.539 196.909C543.468 196.386 544.264 196.516 544.795 197.105C544.375 197.017 543.888 197.105 543.379 197.388L488.21 228.837C486.639 229.73 485.378 232.104 485.378 234.151L485.422 276.883C485.422 277.732 485.644 278.364 485.997 278.778C485.157 278.603 484.582 277.754 484.582 276.382L484.537 233.651C484.56 231.625 485.82 229.251 487.369 228.358Z" fill="white"/>
<path d="M499.536 259.503L502.168 258V235.785L499.536 237.266V259.503Z" fill="white"/>
<path d="M505.687 255.996L508.297 254.515V232.278L505.687 233.781V255.996Z" fill="white"/>
<path d="M511.813 252.512L514.445 251.031V228.794L511.813 230.296V252.512Z" fill="white"/>
<path d="M520.44 197.192C520.44 197.192 522.741 210.869 522.387 215.247C522.033 219.625 519.666 226.855 517.852 226.703C516.038 226.55 517.786 209.083 514.622 210.826C511.459 212.568 511.105 215.552 509.667 214.485C508.229 213.439 512.167 198.498 511.127 192.03C510.088 185.583 520.44 197.192 520.44 197.192Z" fill="#FFC2B0"/>
<path d="M459.675 48.3503C448.526 52.2488 446.358 49.8749 446.248 49.7442C446.137 49.0908 446.071 48.4157 446.027 47.7405C445.872 45.323 446.159 42.9708 446.779 40.7493L475.713 36.8943C475.713 36.8943 471.134 44.3429 459.675 48.3503Z" fill="#EA9C92"/>
<path d="M445.229 25.9175C447.861 23.696 457.351 12.7409 474.34 15.3109C484.958 16.9225 493.917 24.0662 495.908 40.3355C497.235 51.2906 493.165 62.0933 485.622 70.0863C485.223 69.8903 484.781 69.7379 484.405 69.4765C480.158 66.7105 479.693 65.2077 479.693 65.1859L478.742 56.888C478.764 55.7119 479.671 54.6664 480.866 54.5793C481.795 54.514 482.901 54.0784 483.985 52.7063C486.418 49.57 485.29 44.6696 480.423 44.4736C477.879 44.3865 476.884 43.0144 476.53 41.7512C476.22 40.6404 475.026 40.0306 473.92 40.4226C468.367 42.4046 454.674 46.6734 445.87 44.2123C434.611 41.076 442.596 28.139 445.229 25.9175Z" fill="#161822"/>
<path d="M457.905 58.2382L451.114 56.4087C451.114 56.4087 454.366 61.4398 459.1 62.7247C463.834 64.0097 464.586 60.0459 464.586 60.0459L457.905 58.2382Z" fill="white"/>
<path d="M508.872 214.071L514.668 210.804L512.5 214.288L509.58 215.356L508.872 214.071Z" fill="#396CAA"/>
<path d="M481.198 53.2726C481.198 54.5358 482.237 55.5377 483.498 55.5377C484.759 55.5377 485.799 54.5141 485.799 53.2726C485.799 52.0312 484.759 51.0076 483.498 51.0076C482.237 51.0076 481.198 52.0094 481.198 53.2726Z" fill="white"/>
<path d="M132.66 387.457C102.826 387.457 78.641 373.708 78.641 356.748C78.641 339.788 102.826 326.039 132.66 326.039C162.494 326.039 186.68 339.788 186.68 356.748C186.68 373.708 162.494 387.457 132.66 387.457Z" fill="#699DD1"/>
<path d="M129.475 340.566C130.072 342.047 140.469 354.505 150.866 357.619C155.379 358.97 158.431 359.144 160.4 358.926C162.391 358.687 163.63 356.661 162.966 354.788C161.174 349.844 156.042 339.521 143.035 333.161C125.427 324.558 129.475 340.566 129.475 340.566Z" fill="#173D7A"/>
<path d="M126.025 345.358C126.025 345.358 129.94 354.396 131.135 361.954C131.865 366.571 129.299 372.56 127.175 376.524C125.87 378.985 122.53 379.551 120.428 377.678C117.022 374.651 112.708 369.38 112 361.801C110.806 349.06 112 346.817 112 346.817L126.025 345.358Z" fill="#173D7A"/>
<path d="M100.983 191.246C100.983 191.246 99.6338 207.319 100.983 225.113C102.333 242.907 107.199 326.105 108.084 346.12C108.084 346.12 107.642 352.175 119.543 350.846C131.466 349.518 130.493 342.788 130.493 342.788C130.493 342.788 147.216 342.57 147.747 332.856C148.278 323.143 164.891 216.902 164.891 178.701L100.983 191.246Z" fill="#D4ECFF"/>
<path d="M130.516 342.788C130.516 342.788 132.596 342.766 135.294 342.308L138.568 212.982L130.516 342.788Z" fill="#396CAA"/>
<path d="M118.68 73.2226C91.6481 84.2648 92.2012 99.9896 92.2012 99.9896C92.2012 99.9896 97.4881 157.662 95.6963 196.19C94.9442 212.285 182.587 213.526 169.514 170.555C154.096 119.896 159.869 78.907 152.658 72.7217C145.446 66.5363 125.692 70.3695 118.68 73.2226Z" fill="#5793CE"/>
<path d="M109.987 87.1833C111.403 92.5846 118.592 95.4377 126.047 93.5429C133.502 91.6481 138.413 85.7458 136.997 80.3445C135.581 74.9432 128.392 72.0901 120.937 73.9849C113.483 75.8579 108.572 81.7819 109.987 87.1833Z" fill="#FFC2B0"/>
<path d="M121.446 95.8081C123.105 95.8081 124.808 95.5903 126.489 95.1765C130.449 94.1746 133.878 92.1056 136.178 89.3178C138.589 86.3993 139.474 83.0671 138.656 79.9308C137.837 76.7946 135.426 74.2899 131.887 72.8743C128.524 71.5457 124.498 71.3497 120.539 72.3516C116.579 73.3534 113.15 75.4225 110.85 78.2102C108.438 81.1287 107.554 84.461 108.372 87.5972C109.191 90.7335 111.602 93.2381 115.141 94.6538C117.066 95.4161 119.211 95.8081 121.446 95.8081ZM125.56 75.0522C127.352 75.0522 129.077 75.3571 130.604 75.967C133.125 76.9688 134.807 78.6676 135.36 80.7585C135.913 82.8493 135.271 85.1361 133.546 87.2052C131.71 89.4267 128.9 91.1037 125.649 91.9313C122.397 92.759 119.101 92.6283 116.402 91.5611C113.88 90.5592 112.199 88.8604 111.646 86.7696C111.093 84.6788 111.734 82.3919 113.46 80.3229C115.296 78.1014 118.105 76.4243 121.357 75.5967C122.773 75.2265 124.189 75.0522 125.56 75.0522Z" fill="white"/>
<path d="M129.52 72.0248C129.52 72.0248 129.277 73.092 129.764 81.5206C129.919 84.1777 120.473 86.6388 118.04 84.2431C115.606 81.8473 116.58 79.3427 115.982 70.326C115.407 61.3093 129.52 72.0248 129.52 72.0248Z" fill="#FFC2B0"/>
<path d="M116.004 70.3477C116.004 70.3477 118.327 78.711 129.764 81.9126L129.587 74.3115L116.004 70.3477Z" fill="#EA9C92"/>
<path d="M108.749 49.0909C105.874 60.046 112.554 71.2188 123.681 74.0502C134.808 76.8815 146.156 70.3041 149.032 59.349C151.907 48.3939 145.227 37.221 134.1 34.3897C122.973 31.5584 111.625 38.1358 108.749 49.0909Z" fill="#FFC2B0"/>
<path d="M124.101 54.9713C124.101 54.9713 135.56 59.8064 143.479 59.85C151.42 59.9153 149.673 53.3597 149.673 53.3597L126.136 50.0056L124.101 54.9713Z" fill="#EA9C92"/>
<path d="M145.867 56.2346C145.867 56.2346 135.891 52.053 127.131 53.7953C125.073 54.2092 123.171 55.2981 121.844 56.888C121.401 57.4107 120.87 57.8899 120.251 58.0206C118.703 58.369 116.159 52.0312 113.15 51.8787C110.142 51.7263 108.129 53.8389 110.584 57.7374C113.062 61.636 112.221 65.9919 111.093 66.6235C109.965 67.2551 97.8868 58.1512 108.527 37.3736C119.167 16.5959 146.243 27.7906 150.446 31.9941C150.446 31.9941 154.87 35.8055 158.476 32.4079C158.454 32.4514 162.502 62.2458 145.867 56.2346Z" fill="#161822"/>
<path d="M165.887 68.5183L180.42 62.3547C182.079 61.6577 183.362 60.2856 183.96 58.5868L198.316 17.6414L204.975 18.7739L193.383 69.7379C192.852 72.1119 191.304 74.1592 189.136 75.3571L164.936 88.7297L165.887 68.5183Z" fill="#FFC2B0"/>
<path d="M14.6443 75.1609L11.3041 73.6581C8.47257 72.3731 5.86231 70.609 3.65022 68.4528L1.32754 66.1877C0.0224018 64.9245 -0.375803 62.9862 0.332069 61.3091C0.885094 60.0024 2.4557 59.4361 3.73872 60.0677L10.7068 63.5306C10.7068 63.5306 9.62286 60.5033 10.1316 59.6975C10.6626 58.9134 16.038 64.7721 18.5377 68.9102C21.0595 73.1136 14.6443 75.1609 14.6443 75.1609Z" fill="#FFC2B0"/>
<path d="M72.668 91.5609L60.236 90.1888C57.2939 89.8621 54.4624 88.9692 51.8743 87.5317L18.5602 68.9756L14.6447 75.1827L48.711 101.057C49.7728 101.863 50.9231 102.516 52.1397 103.039L72.4467 111.576L72.668 91.5609Z" fill="#FFC2B0"/>
<path d="M204.974 18.7739L206.235 17.3364C207.695 15.6812 208.646 13.6339 208.978 11.4777L209.862 5.51015C210.128 3.65889 209.398 1.76407 207.872 0.653317C207.805 0.609758 207.761 0.566199 207.695 0.544419C206.08 -0.544556 203.846 0.239506 203.093 2.02543L200.107 9.14733C200.107 9.14733 201.058 5.46659 199.842 5.05278C198.957 4.74786 197.276 9.32156 198.271 11.8698C199.267 14.418 198.337 17.6849 198.337 17.6849L204.974 18.7739Z" fill="#FFC2B0"/>
<path d="M137.15 68.3223L142.525 66.863C142.525 66.863 139.959 70.8269 136.221 71.8505C132.483 72.8742 131.885 69.7379 131.885 69.7379L137.15 68.3223Z" fill="white"/>
<path d="M145.204 69.7816C145.204 69.7816 169.492 65.0554 176.903 62.8339C184.313 60.6124 187.41 80.6713 186.857 85.7459C186.304 90.8206 161.042 96.505 158.034 105.217C155.025 113.929 145.204 69.7816 145.204 69.7816Z" fill="#5793CE"/>
<path d="M108.084 78.5803C108.084 78.5803 90.343 86.0725 60.6346 89.7314C59.4179 89.8839 58.4003 90.6679 58.0022 91.8005C56.8519 95.0456 54.9052 102.102 56.4316 109.377C57.051 112.382 59.8161 114.473 62.9352 114.451C72.226 114.386 92.2454 115.257 95.4751 123.816C99.7223 135.033 108.084 78.5803 108.084 78.5803Z" fill="#5793CE"/>
<path d="M118.524 94.3488L123.391 99.5541C124.032 100.229 124.32 101.144 124.209 102.059L120.869 130.546C120.781 131.352 121.002 132.158 121.488 132.79L131.952 146.271C132.416 146.859 133.367 146.707 133.611 145.988L139.318 128.325C139.539 127.65 139.517 126.931 139.252 126.278L129.231 100.404C129.01 99.8373 128.965 99.2274 129.098 98.6176L130.558 91.7571L118.524 94.3488Z" fill="white"/>
<path d="M65.369 109.159C70.678 109.769 83.7073 110.879 93.7502 111.685C99.5016 112.164 103.306 117.609 101.869 123.098C96.5153 143.309 103.594 175.782 102.333 186.781C100.807 199.936 108.903 205.032 108.947 205.054C100.962 203.355 95.542 200.241 95.7189 196.19C96.825 172.537 95.2544 141.676 93.8829 121.355C88.043 115.083 71.1204 114.386 62.8472 114.451C59.6839 114.473 57.0294 112.252 56.41 109.202C55.6357 105.413 55.8127 101.71 56.3215 98.5522C56.2994 98.77 56.2994 108.113 65.369 109.159Z" fill="#396CAA"/>
<path d="M293.789 500.907C258.482 500.907 229.86 484.632 229.86 464.557C229.86 444.481 258.482 428.207 293.789 428.207C329.097 428.207 357.719 444.481 357.719 464.557C357.719 484.632 329.097 500.907 293.789 500.907Z" fill="#F3F4FF"/>
<path d="M332.966 445.304C337.412 447.177 340.221 452.055 339.845 457.326C339.668 459.809 339.359 462.117 338.85 463.206C337.434 466.125 332.789 470.154 325.378 467.279C317.968 464.404 301.51 449.159 300.89 439.184C299.718 420.649 321.242 440.382 332.966 445.304Z" fill="#173D7A"/>
<path d="M289.411 475.926C289.411 475.926 291.18 486.598 290.318 488.558C289.455 490.518 284.301 494.7 276.669 493.785C269.037 492.892 247.115 485.443 242.227 471.2C234.661 449.137 284.566 472.855 284.566 472.855L289.411 475.926Z" fill="#173D7A"/>
<path d="M267.975 305.24L266.272 471.918C266.449 477.712 270.298 482.612 275.496 483.483C276.138 483.592 276.823 483.679 277.553 483.745C282.796 484.202 285.871 481.98 287.618 479.65C289.034 477.755 289.786 475.359 289.875 472.92L292.043 401.766L302.838 338.148L317.769 450.749C318.013 453.798 319.495 456.607 321.862 458.154C323.499 459.221 325.733 460.048 328.675 459.961C332.944 459.831 335.908 457.587 337.722 455.584C339.16 453.994 339.912 451.794 339.89 449.551L333.962 381.795L331.75 295.374L267.975 305.24Z" fill="#D4ECFF"/>
<path d="M289.897 156.05L292.574 171.23C292.574 171.23 292.685 176.414 286.801 177.851C280.916 179.289 279.102 175.543 279.102 175.543L276.448 158.446L289.897 156.05Z" fill="#FFC2B0"/>
<path d="M257.512 147.73C261.693 160.733 274.589 168.29 286.357 164.588C298.104 160.885 304.253 147.338 300.095 134.336C295.914 121.334 283.017 113.776 271.249 117.479C259.48 121.159 253.331 134.706 257.512 147.73Z" fill="#FFC2B0"/>
<path d="M289.189 171.514C289.587 171.361 314.119 155.811 323.189 172.08C337.966 198.607 327.149 229.033 332.435 295.091C333.32 306.133 317.327 312.884 309.761 317.131C303.037 320.921 295.516 323.23 287.751 323.295C280.097 323.36 265.387 316.652 265.918 306.786C268.373 261.419 264.303 223.175 260.542 186.062C260.564 186.019 265.276 181.053 289.189 171.514Z" fill="#5793CE"/>
<path d="M302.837 338.127L317.769 450.727C318.012 453.776 319.495 456.585 321.862 458.132C322.26 458.393 322.68 458.633 323.145 458.85C320.048 456.564 311 362.041 309.319 351.543C307.638 341.023 302.837 338.127 302.837 338.127Z" fill="#396CAA"/>
<path d="M209.664 185.256L189.136 145.117L195.573 141.109L216.854 171.688L209.664 185.256Z" fill="#FFC2B0"/>
<path d="M345.109 142.634L335.111 97.8989L327.169 97.986L330.156 135.098L345.109 142.634Z" fill="#FFC2B0"/>
<path d="M260.564 186.019C260.564 186.019 237.603 194.948 217.871 170.425C216.123 168.268 212.562 168.508 211.522 170.838C209.752 174.846 207.518 180.922 210.217 186.629C222.14 211.828 262.843 210.956 272.642 225.091C282.442 239.204 260.564 186.019 260.564 186.019Z" fill="#5793CE"/>
<path d="M304.76 165.938C304.76 165.938 323.718 167.375 326.461 151.215C327.877 142.895 328.297 137.93 328.363 135.055C328.408 133.116 330.133 131.657 332.08 131.897C336.614 132.441 343.649 133.791 344.6 136.775C346.016 141.24 348.692 163.194 329.978 196.865C317.701 218.928 304.76 165.938 304.76 165.938Z" fill="#5793CE"/>
<path d="M335.156 98.0077L334.979 92.9113C334.913 91.1036 334.382 89.3613 333.431 87.8149L328.188 79.3209L326.817 77.6221C325.556 76.054 323.299 75.662 321.574 76.7292L320.357 77.4697C318.809 78.428 317.924 80.1268 318.057 81.9127L320.778 89.1652L317.349 88.5119C316.685 88.3812 316.044 88.8168 315.911 89.4702C315.8 90.0364 316.11 90.5809 316.663 90.7987L322.282 93.0202L327.37 100.12L335.156 98.0077Z" fill="#FFC2B0"/>
<path d="M188.98 145.378L186.569 140.848C185.728 139.258 185.308 137.472 185.352 135.665L185.662 125.733L185.993 123.599C186.303 121.617 188.073 120.179 190.108 120.266L191.524 120.332C193.338 120.419 194.975 121.464 195.771 123.076L197.054 130.721L199.708 128.477C200.217 128.042 201.014 128.107 201.434 128.63C201.81 129.065 201.81 129.697 201.456 130.154L197.695 134.815L196.722 144.551L188.98 145.378Z" fill="#FFC2B0"/>
<path d="M275.539 220.038C277.53 228.99 265.518 296.593 278.879 321.313C272.198 318.656 265.584 313.429 265.938 306.764C267.686 274.313 266.115 245.52 263.682 218.165C252.245 212.459 234.372 209.061 221.741 199.958C235.301 204.858 273.747 212.023 275.539 220.038Z" fill="#396CAA"/>
<path d="M298.014 167.223L294.607 163.782C294.607 163.782 289.01 169.423 284.498 170.403C284.498 170.403 279.078 171.905 276.424 172.036L274.234 177.982C274.256 177.982 292.085 176.719 298.014 167.223Z" fill="white"/>
<path d="M273.504 148.122C272.553 148.101 271.69 147.687 271.159 146.924C270.23 145.596 270.827 139.498 267.951 138.496C263.461 136.928 252.821 142.438 251.693 126.517C251.095 118.241 255.188 116.041 255.166 111.511C255.166 111.511 254.812 113.776 276.446 112.36C298.08 110.945 305.115 129.871 305.623 138.866C306.132 147.883 301.708 162.693 286.909 164.718C284.454 165.045 274.167 156.899 274.433 155.832C274.698 154.765 278.592 154.83 278.016 151.716C277.574 149.124 275.959 148.166 273.504 148.122Z" fill="#173D7A"/>
<defs>
<linearGradient id="paint0_linear_3900_3973" x1="590.77" y1="151.63" x2="559.116" y2="151.63" gradientUnits="userSpaceOnUse">
<stop stop-color="#002680"/>
<stop offset="1" stop-color="#1C67A6"/>
</linearGradient>
<linearGradient id="paint1_linear_3900_3973" x1="568.973" y1="153.295" x2="631" y2="153.295" gradientUnits="userSpaceOnUse">
<stop stop-color="#002680"/>
<stop offset="1" stop-color="#1C67A6"/>
</linearGradient>
<linearGradient id="paint2_linear_3900_3973" x1="276.856" y1="282.856" x2="144.42" y2="282.856" gradientUnits="userSpaceOnUse">
<stop stop-color="#002680"/>
<stop offset="1" stop-color="#1C67A6"/>
</linearGradient>
<linearGradient id="paint3_linear_3900_3973" x1="306.929" y1="316.761" x2="234.408" y2="316.761" gradientUnits="userSpaceOnUse">
<stop stop-color="#002680"/>
<stop offset="1" stop-color="#1C67A6"/>
</linearGradient>
<linearGradient id="paint4_linear_3900_3973" x1="276.856" y1="257.2" x2="144.42" y2="257.2" gradientUnits="userSpaceOnUse">
<stop stop-color="#002680"/>
<stop offset="1" stop-color="#1C67A6"/>
</linearGradient>
<linearGradient id="paint5_linear_3900_3973" x1="163.542" y1="484.295" x2="438.328" y2="484.295" gradientUnits="userSpaceOnUse">
<stop stop-color="#002680"/>
<stop offset="1" stop-color="#1C67A6"/>
</linearGradient>
<linearGradient id="paint6_linear_3900_3973" x1="276.856" y1="458.682" x2="144.42" y2="458.682" gradientUnits="userSpaceOnUse">
<stop stop-color="#002680"/>
<stop offset="1" stop-color="#1C67A6"/>
</linearGradient>
</defs>
</svg>
