<svg width="270" height="347" viewBox="0 0 270 347" fill="none" xmlns="http://www.w3.org/2000/svg">
<path opacity="0.1" d="M197.903 345.378H7.87927C6.66699 345.369 5.47841 345.041 4.43196 344.428C3.38551 343.814 2.51776 342.936 1.91557 341.882C1.31338 340.827 0.997704 339.632 1.00001 338.417C1.00232 337.202 1.32255 336.009 1.92874 334.956L96.9406 170.04L191.953 5.0579C192.55 3.99402 193.419 3.10866 194.47 2.49247C195.522 1.87629 196.718 1.55151 197.936 1.55151C199.154 1.55151 200.35 1.87629 201.401 2.49247C202.453 3.10866 203.321 3.99402 203.919 5.0579L298.931 170.04L393.942 334.956C394.551 336.013 394.872 337.213 394.871 338.433C394.871 339.654 394.549 340.853 393.939 341.91C393.329 342.966 392.452 343.843 391.397 344.452C390.341 345.061 389.144 345.381 387.927 345.378H197.903Z" stroke="#002680" stroke-width="1.43" stroke-miterlimit="10"/>
</svg>
