<svg width="182" height="344" viewBox="0 0 182 344" fill="none" xmlns="http://www.w3.org/2000/svg">
<path d="M197.85 343.76H7.76056C6.55014 343.765 5.36003 343.448 4.31106 342.843C3.26209 342.237 2.3916 341.365 1.78749 340.313C1.18338 339.262 0.867157 338.069 0.871131 336.856C0.875104 335.642 1.19925 334.452 1.81024 333.404L96.8219 168.422L191.834 3.44038C192.445 2.39329 193.319 1.52472 194.368 0.921155C195.418 0.317594 196.607 0 197.817 0C199.027 0 200.216 0.317594 201.266 0.921155C202.315 1.52472 203.189 2.39329 203.8 3.44038L298.812 168.422L393.824 333.404C394.435 334.452 394.759 335.642 394.763 336.856C394.767 338.069 394.451 339.262 393.846 340.313C393.242 341.365 392.372 342.237 391.323 342.843C390.274 343.448 389.084 343.765 387.873 343.76H197.85Z" fill="#2176FF" fill-opacity="0.04"/>
</svg>
