<svg id="Layer_1" data-name="Layer 1" xmlns="http://www.w3.org/2000/svg" viewBox="0 0 24 24"><defs><style>.cls-1{fill:#017cff;}</style></defs><path class="cls-1" d="M12.16,18.68h-4v-4h4v4a6.09,6.09,0,0,0,3.48-1,6.14,6.14,0,0,0,2.73-4,6.22,6.22,0,0,0-5.15-7.52A6.14,6.14,0,0,0,8.07,7.47,6.23,6.23,0,0,0,5.8,12.3h-4A10.29,10.29,0,0,1,11.35,2,10.2,10.2,0,0,1,22.51,12.3,10.36,10.36,0,0,1,12.16,22.66Z"/><path class="cls-1" d="M5.05,18.71a1.13,1.13,0,0,1,.18,0H8.14v3H5.09c0-.09,0-.18,0-.26V19a1.9,1.9,0,0,0,0-.25Z"/><path class="cls-1" d="M5.05,18.71c-.14,0-.28,0-.42,0H2.53V16.11H5.05s0,0,0,.06v2.4a.7.7,0,0,1,0,.14Z"/></svg>