<svg width="306" height="102" viewBox="0 0 306 102" fill="none" xmlns="http://www.w3.org/2000/svg">
<g filter="url(#filter0_d_4920_17989)">
<rect x="32" width="254" height="96" rx="12" fill="white" shape-rendering="crispEdges"/>
<g clip-path="url(#clip0_4920_17989)">
<g opacity="0.8">
<g opacity="0.8">
<path opacity="0.8" d="M90.3846 57.9037L80 47.5L113.438 14H134L90.3846 57.9037ZM134 45.0031H113.438L105.754 52.7019L116.138 63.1056" fill="#42A5F5"/>
</g>
</g>
<path d="M105.754 73.3012L113.439 80.9999H134L115.931 62.8975" fill="#0D47A1"/>
<path d="M105.693 52.6116L95.4141 62.9121L105.696 73.2097L115.974 62.9092L105.693 52.6116Z" fill="#42A5F5"/>
</g>
<path d="M170.944 39.648H182.752L182.74 42.576H174.472V46.932H181.636V49.8H174.472V57H170.944V39.648ZM189.179 57.216C188.267 57.216 187.543 57.108 187.007 56.892C186.471 56.676 186.075 56.392 185.819 56.04C185.563 55.68 185.399 55.284 185.327 54.852C185.255 54.412 185.219 53.968 185.219 53.52V39.168H188.651V53.088C188.651 53.544 188.747 53.916 188.939 54.204C189.139 54.484 189.511 54.656 190.055 54.72L190.643 54.756V56.916C190.403 56.996 190.159 57.064 189.911 57.12C189.663 57.184 189.419 57.216 189.179 57.216ZM197.408 57.24C196.832 57.24 196.264 57.152 195.704 56.976C195.152 56.8 194.648 56.54 194.192 56.196C193.736 55.852 193.368 55.428 193.088 54.924C192.816 54.42 192.68 53.836 192.68 53.172V44.592H196.184V52.728C196.184 53.304 196.372 53.776 196.748 54.144C197.124 54.512 197.676 54.696 198.404 54.696C199.092 54.696 199.636 54.52 200.036 54.168C200.444 53.808 200.648 53.308 200.648 52.668V44.592H204.116V57H201.476L201.068 54.54C200.924 55.268 200.652 55.828 200.252 56.22C199.86 56.604 199.408 56.868 198.896 57.012C198.392 57.164 197.896 57.24 197.408 57.24ZM214.529 47.028H211.769L211.793 53.64C211.793 53.944 211.829 54.172 211.901 54.324C211.981 54.468 212.101 54.564 212.261 54.612C212.429 54.652 212.641 54.672 212.897 54.672H214.565V56.832C214.405 56.904 214.153 56.972 213.809 57.036C213.473 57.1 213.001 57.132 212.393 57.132C211.305 57.132 210.461 56.992 209.861 56.712C209.269 56.432 208.857 56.04 208.625 55.536C208.393 55.032 208.277 54.448 208.277 53.784V47.028H206.261V44.592H208.397L209.273 40.848H211.769V44.58H214.529V47.028ZM224.537 47.028H221.777L221.801 53.64C221.801 53.944 221.837 54.172 221.909 54.324C221.989 54.468 222.109 54.564 222.269 54.612C222.437 54.652 222.649 54.672 222.905 54.672H224.573V56.832C224.413 56.904 224.161 56.972 223.817 57.036C223.481 57.1 223.009 57.132 222.401 57.132C221.313 57.132 220.469 56.992 219.869 56.712C219.277 56.432 218.865 56.04 218.633 55.536C218.401 55.032 218.285 54.448 218.285 53.784V47.028H216.269V44.592H218.405L219.281 40.848H221.777V44.58H224.537V47.028ZM229.607 51.6C229.599 52.232 229.699 52.784 229.907 53.256C230.115 53.72 230.415 54.08 230.807 54.336C231.207 54.584 231.687 54.708 232.247 54.708C232.847 54.708 233.371 54.58 233.819 54.324C234.275 54.068 234.591 53.648 234.767 53.064H237.923C237.787 53.944 237.435 54.696 236.867 55.32C236.307 55.944 235.627 56.42 234.827 56.748C234.027 57.076 233.195 57.24 232.331 57.24C231.107 57.24 230.027 56.984 229.091 56.472C228.163 55.952 227.439 55.22 226.919 54.276C226.399 53.332 226.139 52.22 226.139 50.94C226.139 49.7 226.375 48.584 226.847 47.592C227.319 46.592 228.003 45.804 228.899 45.228C229.803 44.644 230.887 44.352 232.151 44.352C233.415 44.352 234.475 44.62 235.331 45.156C236.195 45.684 236.843 46.424 237.275 47.376C237.715 48.32 237.935 49.412 237.935 50.652V51.6H229.607ZM229.595 49.512H234.659C234.659 49.016 234.567 48.56 234.383 48.144C234.199 47.728 233.919 47.4 233.543 47.16C233.175 46.92 232.711 46.8 232.151 46.8C231.607 46.8 231.143 46.932 230.759 47.196C230.383 47.452 230.095 47.788 229.895 48.204C229.695 48.62 229.595 49.056 229.595 49.512ZM240.367 57V44.592H243.739V47.532C243.939 46.9 244.219 46.348 244.579 45.876C244.947 45.396 245.391 45.024 245.911 44.76C246.431 44.488 247.019 44.352 247.675 44.352C247.787 44.352 247.891 44.36 247.987 44.376C248.091 44.384 248.167 44.4 248.215 44.424V47.76C248.143 47.728 248.055 47.708 247.951 47.7C247.855 47.692 247.767 47.684 247.687 47.676C246.999 47.62 246.411 47.64 245.923 47.736C245.435 47.832 245.039 47.996 244.735 48.228C244.431 48.46 244.211 48.744 244.075 49.08C243.939 49.416 243.871 49.792 243.871 50.208V57H240.367Z" fill="#212529"/>
</g>
<defs>
<filter id="filter0_d_4920_17989" x="0" y="-32" width="318" height="160" filterUnits="userSpaceOnUse" color-interpolation-filters="sRGB">
<feFlood flood-opacity="0" result="BackgroundImageFix"/>
<feColorMatrix in="SourceAlpha" type="matrix" values="0 0 0 0 0 0 0 0 0 0 0 0 0 0 0 0 0 0 127 0" result="hardAlpha"/>
<feOffset/>
<feGaussianBlur stdDeviation="16"/>
<feComposite in2="hardAlpha" operator="out"/>
<feColorMatrix type="matrix" values="0 0 0 0 0 0 0 0 0 0 0 0 0 0 0 0 0 0 0.06 0"/>
<feBlend mode="normal" in2="BackgroundImageFix" result="effect1_dropShadow_4920_17989"/>
<feBlend mode="normal" in="SourceGraphic" in2="effect1_dropShadow_4920_17989" result="shape"/>
</filter>
<clipPath id="clip0_4920_17989">
<rect width="54" height="67" fill="white" transform="translate(80 14)"/>
</clipPath>
</defs>
</svg>
