<svg width="332" height="102" viewBox="0 0 332 102" fill="none" xmlns="http://www.w3.org/2000/svg">
<g filter="url(#filter0_d_4715_36063)">
<rect x="32.6953" width="267" height="102" rx="12" fill="white"/>
</g>
<g clip-path="url(#clip0_4715_36063)">
<path d="M105.182 48.908H118.839C122.663 48.908 125.759 45.6748 125.759 41.681V27.9877C125.759 24.184 122.663 21.1411 118.839 20.5706C114.287 19.8098 109.37 19.8098 105.182 20.5706C99.3545 21.7117 98.2619 23.8037 98.2619 27.9877V30.8405H111.919V35.2147H93.1631C89.1569 35.2147 85.697 37.6871 84.6045 42.4417C83.3298 47.9571 83.3298 51.1902 84.6045 56.8957C85.5149 61.0798 87.8822 64.1227 91.8884 64.1227H96.623V57.6564C96.623 53.092 100.447 48.908 105.182 48.908Z" fill="#347AB4"/>
<path d="M141.787 44.7239C140.877 40.5399 138.874 37.4969 134.867 37.4969H129.769V43.773C129.769 48.7178 125.762 52.9019 121.21 52.9019H107.553C103.728 52.9019 100.633 56.3252 100.633 60.1289V73.8221C100.633 77.6258 103.911 79.908 107.553 81.0491C111.923 82.3804 116.111 82.5706 121.21 81.0491C124.67 80.0982 128.13 77.816 128.13 73.8221V70.9693H114.472V66.5951H135.049C139.056 66.5951 140.512 63.7423 141.969 59.3681C143.062 54.6135 143.062 50.4295 141.787 44.7239Z" fill="#FFCA1D"/>
<path d="M104.272 28.3681C102.997 28.3681 101.723 27.227 101.723 25.7055C101.723 24.1841 102.815 23.043 104.272 23.043C105.547 23.043 106.821 24.1841 106.821 25.7055C106.821 27.227 105.729 28.3681 104.272 28.3681Z" fill="white"/>
</g>
<path d="M176.639 60V42.648H183.023C184.287 42.648 185.419 42.868 186.419 43.308C187.419 43.74 188.207 44.38 188.783 45.228C189.367 46.076 189.659 47.112 189.659 48.336C189.659 49.488 189.403 50.472 188.891 51.288C188.379 52.104 187.659 52.728 186.731 53.16C185.811 53.592 184.727 53.808 183.479 53.808H180.167V60H176.639ZM180.131 51.096H183.383C184.263 51.096 184.983 50.816 185.543 50.256C186.103 49.688 186.383 48.988 186.383 48.156C186.383 47.292 186.087 46.608 185.495 46.104C184.903 45.592 184.183 45.336 183.335 45.336H180.131V51.096ZM194.252 63.96C193.404 63.96 192.804 63.888 192.452 63.744C192.108 63.608 191.936 63.54 191.936 63.54V61.308L193.16 61.356C193.696 61.388 194.128 61.36 194.456 61.272C194.784 61.192 195.032 61.084 195.2 60.948C195.376 60.812 195.5 60.668 195.572 60.516C195.644 60.372 195.696 60.256 195.728 60.168L195.956 59.484L191.132 47.592H194.6L197.576 55.68L200.588 47.592H204.008L198.98 60.072C198.548 61.128 198.092 61.936 197.612 62.496C197.132 63.056 196.612 63.44 196.052 63.648C195.5 63.856 194.9 63.96 194.252 63.96ZM213.849 50.028H211.089L211.113 56.64C211.113 56.944 211.149 57.172 211.221 57.324C211.301 57.468 211.421 57.564 211.581 57.612C211.749 57.652 211.961 57.672 212.217 57.672H213.885V59.832C213.725 59.904 213.473 59.972 213.129 60.036C212.793 60.1 212.321 60.132 211.713 60.132C210.625 60.132 209.781 59.992 209.181 59.712C208.589 59.432 208.177 59.04 207.945 58.536C207.713 58.032 207.597 57.448 207.597 56.784V50.028H205.581V47.592H207.717L208.593 43.848H211.089V47.58H213.849V50.028ZM216.438 60V42.168H219.918V49.38C220.118 49.092 220.37 48.808 220.674 48.528C220.978 48.24 221.358 48 221.814 47.808C222.27 47.616 222.826 47.52 223.482 47.52C224.274 47.52 224.994 47.676 225.642 47.988C226.298 48.292 226.822 48.736 227.214 49.32C227.614 49.904 227.814 50.616 227.814 51.456V60H224.298V51.972C224.298 51.412 224.094 50.984 223.686 50.688C223.286 50.384 222.798 50.232 222.222 50.232C221.846 50.232 221.482 50.3 221.13 50.436C220.778 50.572 220.49 50.78 220.266 51.06C220.05 51.332 219.942 51.672 219.942 52.08V60H216.438ZM235.992 60.24C234.776 60.24 233.716 59.98 232.812 59.46C231.916 58.94 231.22 58.204 230.724 57.252C230.236 56.3 229.992 55.172 229.992 53.868C229.992 52.564 230.236 51.424 230.724 50.448C231.22 49.472 231.916 48.712 232.812 48.168C233.716 47.624 234.78 47.352 236.004 47.352C237.228 47.352 238.288 47.62 239.184 48.156C240.08 48.684 240.772 49.436 241.26 50.412C241.748 51.388 241.992 52.54 241.992 53.868C241.992 55.116 241.752 56.22 241.272 57.18C240.8 58.132 240.116 58.88 239.22 59.424C238.332 59.968 237.256 60.24 235.992 60.24ZM236.004 57.636C236.62 57.636 237.116 57.456 237.492 57.096C237.868 56.736 238.14 56.264 238.308 55.68C238.484 55.088 238.572 54.444 238.572 53.748C238.572 53.092 238.492 52.472 238.332 51.888C238.18 51.304 237.916 50.832 237.54 50.472C237.164 50.112 236.652 49.932 236.004 49.932C235.388 49.932 234.888 50.104 234.504 50.448C234.128 50.784 233.852 51.244 233.676 51.828C233.5 52.404 233.412 53.044 233.412 53.748C233.412 54.396 233.492 55.02 233.652 55.62C233.812 56.212 234.08 56.696 234.456 57.072C234.832 57.448 235.348 57.636 236.004 57.636ZM244.328 60V47.592H247.772V49.344C247.964 49.04 248.212 48.748 248.516 48.468C248.828 48.18 249.22 47.944 249.692 47.76C250.164 47.576 250.724 47.484 251.372 47.484C252.132 47.484 252.84 47.632 253.496 47.928C254.16 48.224 254.696 48.692 255.104 49.332C255.512 49.964 255.716 50.792 255.716 51.816V60H252.212V52.248C252.212 51.576 252.012 51.072 251.612 50.736C251.212 50.4 250.724 50.232 250.148 50.232C249.764 50.232 249.392 50.3 249.032 50.436C248.68 50.572 248.392 50.776 248.168 51.048C247.944 51.32 247.832 51.656 247.832 52.056V60H244.328Z" fill="#212529"/>
<defs>
<filter id="filter0_d_4715_36063" x="0.695312" y="-32" width="331" height="166" filterUnits="userSpaceOnUse" color-interpolation-filters="sRGB">
<feFlood flood-opacity="0" result="BackgroundImageFix"/>
<feColorMatrix in="SourceAlpha" type="matrix" values="0 0 0 0 0 0 0 0 0 0 0 0 0 0 0 0 0 0 127 0" result="hardAlpha"/>
<feOffset/>
<feGaussianBlur stdDeviation="16"/>
<feComposite in2="hardAlpha" operator="out"/>
<feColorMatrix type="matrix" values="0 0 0 0 0 0 0 0 0 0 0 0 0 0 0 0 0 0 0.06 0"/>
<feBlend mode="normal" in2="BackgroundImageFix" result="effect1_dropShadow_4715_36063"/>
<feBlend mode="normal" in="SourceGraphic" in2="effect1_dropShadow_4715_36063" result="shape"/>
</filter>
<clipPath id="clip0_4715_36063">
<rect width="59" height="62" fill="white" transform="translate(83.6953 20)"/>
</clipPath>
</defs>
</svg>
