<svg width="332" height="102" viewBox="0 0 332 102" fill="none" xmlns="http://www.w3.org/2000/svg">
<g filter="url(#filter0_d_4715_36051)">
<rect x="32.6953" width="267" height="102" rx="12" fill="white"/>
</g>
<g clip-path="url(#clip0_4715_36051)">
<path d="M141.191 22H129.592L121.282 35.4518L114.011 22H87.6953L121.282 80L154.695 22H141.191Z" fill="#41B883"/>
<path d="M96.0039 26.8916H104.141L121.28 56.7651L138.42 26.8916H146.384L121.28 70.3916L96.0039 26.8916Z" fill="#35495E"/>
</g>
<path d="M199.051 42.648L193.063 60H189.091L183.151 42.648H186.499L191.083 55.932L195.703 42.648H199.051ZM205.572 60.24C204.996 60.24 204.428 60.152 203.868 59.976C203.316 59.8 202.812 59.54 202.356 59.196C201.9 58.852 201.532 58.428 201.252 57.924C200.98 57.42 200.844 56.836 200.844 56.172V47.592H204.348V55.728C204.348 56.304 204.536 56.776 204.912 57.144C205.288 57.512 205.84 57.696 206.568 57.696C207.256 57.696 207.8 57.52 208.2 57.168C208.608 56.808 208.812 56.308 208.812 55.668V47.592H212.28V60H209.64L209.232 57.54C209.088 58.268 208.816 58.828 208.416 59.22C208.024 59.604 207.572 59.868 207.06 60.012C206.556 60.164 206.06 60.24 205.572 60.24ZM218.013 54.6C218.005 55.232 218.105 55.784 218.313 56.256C218.521 56.72 218.821 57.08 219.213 57.336C219.613 57.584 220.093 57.708 220.653 57.708C221.253 57.708 221.777 57.58 222.225 57.324C222.681 57.068 222.997 56.648 223.173 56.064H226.329C226.193 56.944 225.841 57.696 225.273 58.32C224.713 58.944 224.033 59.42 223.233 59.748C222.433 60.076 221.601 60.24 220.737 60.24C219.513 60.24 218.433 59.984 217.497 59.472C216.569 58.952 215.845 58.22 215.325 57.276C214.805 56.332 214.545 55.22 214.545 53.94C214.545 52.7 214.781 51.584 215.253 50.592C215.725 49.592 216.409 48.804 217.305 48.228C218.209 47.644 219.293 47.352 220.557 47.352C221.821 47.352 222.881 47.62 223.737 48.156C224.601 48.684 225.249 49.424 225.681 50.376C226.121 51.32 226.341 52.412 226.341 53.652V54.6H218.013ZM218.001 52.512H223.065C223.065 52.016 222.973 51.56 222.789 51.144C222.605 50.728 222.325 50.4 221.949 50.16C221.581 49.92 221.117 49.8 220.557 49.8C220.013 49.8 219.549 49.932 219.165 50.196C218.789 50.452 218.501 50.788 218.301 51.204C218.101 51.62 218.001 52.056 218.001 52.512ZM235.385 55.176C235.385 56.28 235.265 57.208 235.025 57.96C234.785 58.712 234.345 59.28 233.705 59.664C233.065 60.048 232.145 60.24 230.945 60.24C230.393 60.24 229.825 60.192 229.241 60.096C228.657 60.008 228.229 59.928 227.957 59.856L228.029 56.652C228.261 56.7 228.525 56.764 228.821 56.844C229.125 56.924 229.461 56.964 229.829 56.964C230.637 56.964 231.181 56.752 231.461 56.328C231.741 55.896 231.881 55.2 231.881 54.24V42.648H235.385V55.176ZM243.361 60.24C242.497 60.24 241.665 60.1 240.865 59.82C240.065 59.532 239.389 59.084 238.837 58.476C238.285 57.86 237.933 57.064 237.781 56.088H240.817C240.921 56.528 241.109 56.876 241.381 57.132C241.661 57.388 241.977 57.572 242.329 57.684C242.681 57.788 243.017 57.84 243.337 57.84C244.009 57.84 244.549 57.736 244.957 57.528C245.373 57.312 245.581 56.984 245.581 56.544C245.581 56.208 245.457 55.94 245.209 55.74C244.969 55.54 244.569 55.388 244.009 55.284L241.825 54.828C240.729 54.596 239.849 54.204 239.185 53.652C238.521 53.092 238.181 52.3 238.165 51.276C238.165 50.532 238.361 49.864 238.753 49.272C239.153 48.68 239.741 48.212 240.517 47.868C241.293 47.524 242.245 47.352 243.373 47.352C244.901 47.352 246.121 47.688 247.033 48.36C247.953 49.032 248.421 49.98 248.437 51.204H245.509C245.421 50.724 245.181 50.356 244.789 50.1C244.405 49.836 243.921 49.704 243.337 49.704C242.729 49.704 242.229 49.812 241.837 50.028C241.445 50.244 241.249 50.572 241.249 51.012C241.249 51.34 241.409 51.6 241.729 51.792C242.049 51.976 242.545 52.136 243.217 52.272L245.233 52.728C245.929 52.896 246.493 53.128 246.925 53.424C247.365 53.712 247.705 54.028 247.945 54.372C248.185 54.716 248.349 55.064 248.437 55.416C248.533 55.76 248.581 56.072 248.581 56.352C248.581 57.176 248.361 57.88 247.921 58.464C247.481 59.04 246.869 59.48 246.085 59.784C245.301 60.088 244.393 60.24 243.361 60.24Z" fill="#212529"/>
<defs>
<filter id="filter0_d_4715_36051" x="0.695312" y="-32" width="331" height="166" filterUnits="userSpaceOnUse" color-interpolation-filters="sRGB">
<feFlood flood-opacity="0" result="BackgroundImageFix"/>
<feColorMatrix in="SourceAlpha" type="matrix" values="0 0 0 0 0 0 0 0 0 0 0 0 0 0 0 0 0 0 127 0" result="hardAlpha"/>
<feOffset/>
<feGaussianBlur stdDeviation="16"/>
<feComposite in2="hardAlpha" operator="out"/>
<feColorMatrix type="matrix" values="0 0 0 0 0 0 0 0 0 0 0 0 0 0 0 0 0 0 0.06 0"/>
<feBlend mode="normal" in2="BackgroundImageFix" result="effect1_dropShadow_4715_36051"/>
<feBlend mode="normal" in="SourceGraphic" in2="effect1_dropShadow_4715_36051" result="shape"/>
</filter>
<clipPath id="clip0_4715_36051">
<rect width="67" height="58" fill="white" transform="translate(87.6953 22)"/>
</clipPath>
</defs>
</svg>
