<svg width="332" height="102" viewBox="0 0 332 102" fill="none" xmlns="http://www.w3.org/2000/svg">
<g filter="url(#filter0_d_4715_36035)">
<rect x="32.6953" width="267" height="102" rx="12" fill="white"/>
</g>
<g clip-path="url(#clip0_4715_36035)">
<path d="M106.481 84H92.8938C89.8318 84 87.1526 82.6372 86.0043 79.9115C81.22 71.9292 76.8183 63.5575 72.034 55.5752C70.3116 52.4602 70.3116 49.7345 72.034 46.6195C76.4356 38.4425 81.22 30.4602 86.0043 21.8938C87.7267 19.1681 89.8318 18 92.8938 18H119.495C122.557 18 125.236 19.3628 126.384 21.8938C131.169 29.8761 135.57 38.2478 140.355 46.2301C142.077 49.3451 142.077 52.4602 140.355 55.1858C135.57 63.1681 131.169 71.1504 126.384 79.5221C124.662 82.2478 121.983 84 118.921 84H106.481ZM91.1714 67.646H95.9558C97.2954 67.646 98.0609 67.2566 98.635 65.8938C101.314 61.0265 103.802 56.1593 106.481 51.292C108.587 55.3805 110.883 59.2743 112.988 63.3628C115.093 67.8407 115.093 67.8407 120.452 67.8407C122.174 67.8407 122.174 67.4513 121.409 66.0885C119.304 61.6106 116.624 57.1327 114.519 52.8496C114.136 51.8761 114.136 51.0973 114.519 50.1239C117.198 45.646 119.304 41.1681 121.409 36.885C121.791 35.5221 121.791 35.1327 120.452 35.1327C115.285 34.7434 115.285 34.7434 112.988 39.6106C112.988 40 112.605 40.5841 112.605 40.9734C110.883 44.4779 108.587 47.9823 106.864 51.6814C104.185 46.4248 101.697 41.5575 99.0178 36.6903C98.0609 35.7168 97.6782 34.9381 97.2954 34.9381H90.7887C91.1714 35.9115 91.1714 36.6903 91.7456 37.0796C93.8507 41.5575 96.1472 45.4513 98.635 49.9292C99.0178 51.292 99.0178 51.6814 98.635 53.0442C96.5299 56.938 94.2334 61.4159 92.1283 65.8938C91.5542 65.8938 91.5542 66.2832 91.1714 67.646Z" fill="#3498DB"/>
</g>
<path d="M184.243 60H179.875L175.963 53.736L172.123 60H168.355L174.127 51.192L168.535 42.648H172.867L176.335 48.264L179.767 42.648H183.487L178.135 50.736L184.243 60ZM189.834 60.24C189.042 60.24 188.33 60.092 187.698 59.796C187.066 59.5 186.566 59.072 186.198 58.512C185.83 57.944 185.646 57.256 185.646 56.448C185.646 55.088 186.154 54.056 187.17 53.352C188.186 52.64 189.79 52.272 191.982 52.248L193.53 52.224V51.48C193.53 50.912 193.362 50.476 193.026 50.172C192.698 49.86 192.186 49.708 191.49 49.716C190.978 49.724 190.49 49.844 190.026 50.076C189.57 50.308 189.258 50.712 189.09 51.288H186.174C186.222 50.392 186.482 49.656 186.954 49.08C187.426 48.496 188.066 48.064 188.874 47.784C189.69 47.496 190.614 47.352 191.646 47.352C192.918 47.352 193.938 47.512 194.706 47.832C195.474 48.144 196.03 48.596 196.374 49.188C196.718 49.772 196.89 50.468 196.89 51.276V60H193.962L193.674 57.864C193.25 58.76 192.718 59.38 192.078 59.724C191.446 60.068 190.698 60.24 189.834 60.24ZM191.01 57.936C191.33 57.936 191.638 57.88 191.934 57.768C192.238 57.648 192.506 57.492 192.738 57.3C192.978 57.1 193.17 56.876 193.314 56.628C193.458 56.38 193.53 56.124 193.53 55.86V54.024L192.27 54.048C191.686 54.056 191.142 54.128 190.638 54.264C190.134 54.392 189.726 54.604 189.414 54.9C189.11 55.196 188.958 55.596 188.958 56.1C188.958 56.676 189.158 57.128 189.558 57.456C189.958 57.776 190.442 57.936 191.01 57.936ZM199.992 60V47.592H203.424V49.344C203.8 48.8 204.304 48.332 204.936 47.94C205.576 47.548 206.38 47.352 207.348 47.352C207.772 47.352 208.204 47.428 208.644 47.58C209.084 47.732 209.496 47.956 209.88 48.252C210.272 48.54 210.588 48.904 210.828 49.344C211.228 48.776 211.752 48.304 212.4 47.928C213.056 47.544 213.784 47.352 214.584 47.352C215.048 47.352 215.516 47.428 215.988 47.58C216.468 47.732 216.908 47.98 217.308 48.324C217.708 48.668 218.028 49.128 218.268 49.704C218.516 50.272 218.64 50.976 218.64 51.816V60H215.136V52.248C215.136 51.752 215.036 51.356 214.836 51.06C214.644 50.756 214.396 50.54 214.092 50.412C213.796 50.276 213.48 50.208 213.144 50.208C212.832 50.208 212.516 50.272 212.196 50.4C211.876 50.52 211.604 50.716 211.38 50.988C211.156 51.26 211.044 51.616 211.044 52.056V60H207.552V51.936C207.552 51.56 207.452 51.244 207.252 50.988C207.052 50.732 206.8 50.54 206.496 50.412C206.2 50.276 205.896 50.208 205.584 50.208C205.264 50.208 204.944 50.276 204.624 50.412C204.304 50.54 204.036 50.744 203.82 51.024C203.604 51.296 203.496 51.64 203.496 52.056V60H199.992ZM221.484 60V47.592H224.856V50.532C225.056 49.9 225.336 49.348 225.696 48.876C226.064 48.396 226.508 48.024 227.028 47.76C227.548 47.488 228.136 47.352 228.792 47.352C228.904 47.352 229.008 47.36 229.104 47.376C229.208 47.384 229.284 47.4 229.332 47.424V50.76C229.26 50.728 229.172 50.708 229.068 50.7C228.972 50.692 228.884 50.684 228.804 50.676C228.116 50.62 227.528 50.64 227.04 50.736C226.552 50.832 226.156 50.996 225.852 51.228C225.548 51.46 225.328 51.744 225.192 52.08C225.056 52.416 224.988 52.792 224.988 53.208V60H221.484ZM234.762 47.592V60H231.414V47.592H234.762ZM234.798 42.66V45.816H231.39V42.66H234.798ZM241.538 60.24C240.746 60.24 240.034 60.092 239.402 59.796C238.77 59.5 238.27 59.072 237.902 58.512C237.534 57.944 237.35 57.256 237.35 56.448C237.35 55.088 237.858 54.056 238.874 53.352C239.89 52.64 241.494 52.272 243.686 52.248L245.234 52.224V51.48C245.234 50.912 245.066 50.476 244.73 50.172C244.402 49.86 243.89 49.708 243.194 49.716C242.682 49.724 242.194 49.844 241.73 50.076C241.274 50.308 240.962 50.712 240.794 51.288H237.878C237.926 50.392 238.186 49.656 238.658 49.08C239.13 48.496 239.77 48.064 240.578 47.784C241.394 47.496 242.318 47.352 243.35 47.352C244.622 47.352 245.642 47.512 246.41 47.832C247.178 48.144 247.734 48.596 248.078 49.188C248.422 49.772 248.594 50.468 248.594 51.276V60H245.666L245.378 57.864C244.954 58.76 244.422 59.38 243.782 59.724C243.15 60.068 242.402 60.24 241.538 60.24ZM242.714 57.936C243.034 57.936 243.342 57.88 243.638 57.768C243.942 57.648 244.21 57.492 244.442 57.3C244.682 57.1 244.874 56.876 245.018 56.628C245.162 56.38 245.234 56.124 245.234 55.86V54.024L243.974 54.048C243.39 54.056 242.846 54.128 242.342 54.264C241.838 54.392 241.43 54.604 241.118 54.9C240.814 55.196 240.662 55.596 240.662 56.1C240.662 56.676 240.862 57.128 241.262 57.456C241.662 57.776 242.146 57.936 242.714 57.936ZM251.695 60V47.592H255.139V49.344C255.331 49.04 255.579 48.748 255.883 48.468C256.195 48.18 256.587 47.944 257.059 47.76C257.531 47.576 258.091 47.484 258.739 47.484C259.499 47.484 260.207 47.632 260.863 47.928C261.527 48.224 262.063 48.692 262.471 49.332C262.879 49.964 263.083 50.792 263.083 51.816V60H259.579V52.248C259.579 51.576 259.379 51.072 258.979 50.736C258.579 50.4 258.091 50.232 257.515 50.232C257.131 50.232 256.759 50.3 256.399 50.436C256.047 50.572 255.759 50.776 255.535 51.048C255.311 51.32 255.199 51.656 255.199 52.056V60H251.695Z" fill="#212529"/>
<defs>
<filter id="filter0_d_4715_36035" x="0.695312" y="-32" width="331" height="166" filterUnits="userSpaceOnUse" color-interpolation-filters="sRGB">
<feFlood flood-opacity="0" result="BackgroundImageFix"/>
<feColorMatrix in="SourceAlpha" type="matrix" values="0 0 0 0 0 0 0 0 0 0 0 0 0 0 0 0 0 0 127 0" result="hardAlpha"/>
<feOffset/>
<feGaussianBlur stdDeviation="16"/>
<feComposite in2="hardAlpha" operator="out"/>
<feColorMatrix type="matrix" values="0 0 0 0 0 0 0 0 0 0 0 0 0 0 0 0 0 0 0.06 0"/>
<feBlend mode="normal" in2="BackgroundImageFix" result="effect1_dropShadow_4715_36035"/>
<feBlend mode="normal" in="SourceGraphic" in2="effect1_dropShadow_4715_36035" result="shape"/>
</filter>
<clipPath id="clip0_4715_36035">
<rect width="71" height="66" fill="white" transform="translate(70.6953 18)"/>
</clipPath>
</defs>
</svg>
