<svg width="76" height="82" viewBox="0 0 76 82" fill="none" xmlns="http://www.w3.org/2000/svg">
<g clip-path="url(#clip0_5373_19636)">
<path d="M38.7861 74H25.1985C22.1365 74 19.4573 72.6372 18.309 69.9115C13.5246 61.9292 9.12302 53.5575 4.33865 45.5752C2.61628 42.4602 2.61628 39.7345 4.33865 36.6195C8.74027 28.4425 13.5246 20.4602 18.309 11.8938C20.0314 9.16814 22.1365 8 25.1985 8H51.7996C54.8616 8 57.5408 9.36283 58.6891 11.8938C63.4734 19.8761 67.875 28.2478 72.6594 36.2301C74.3818 39.3451 74.3818 42.4602 72.6594 45.1858C67.875 53.1681 63.4734 61.1504 58.6891 69.5221C56.9667 72.2478 54.2874 74 51.2255 74H38.7861ZM23.4761 57.646H28.2605C29.6001 57.646 30.3656 57.2566 30.9397 55.8938C33.619 51.0265 36.1069 46.1593 38.7861 41.292C40.8912 45.3805 43.1877 49.2743 45.2928 53.3628C47.398 57.8407 47.398 57.8407 52.7564 57.8407C54.4788 57.8407 54.4788 57.4513 53.7133 56.0885C51.6082 51.6106 48.929 47.1327 46.8238 42.8496C46.4411 41.8761 46.4411 41.0973 46.8238 40.1239C49.5031 35.646 51.6082 31.1681 53.7133 26.885C54.0961 25.5221 54.0961 25.1327 52.7564 25.1327C47.5893 24.7434 47.5893 24.7434 45.2928 29.6106C45.2928 30 44.9101 30.5841 44.9101 30.9735C43.1877 34.4779 40.8912 37.9823 39.1688 41.6814C36.4896 36.4248 34.0017 31.5575 31.3225 26.6903C30.3656 25.7168 29.9829 24.9381 29.6001 24.9381H23.0934C23.4761 25.9115 23.4761 26.6903 24.0502 27.0796C26.1554 31.5575 28.4519 35.4513 30.9397 39.9292C31.3225 41.292 31.3225 41.6814 30.9397 43.0442C28.8346 46.9381 26.5381 51.4159 24.433 55.8938C23.8589 55.8938 23.8589 56.2832 23.4761 57.646Z" fill="#3498DB"/>
</g>
<defs>
<clipPath id="clip0_5373_19636">
<rect width="71" height="66" fill="white" transform="translate(3 8)"/>
</clipPath>
</defs>
</svg>
