<svg width="400" height="335" viewBox="0 0 400 335" fill="none" xmlns="http://www.w3.org/2000/svg">
<rect x="0.666016" y="0.620117" width="399.333" height="334" rx="4" fill="white"/>
<rect x="0.666016" y="0.620117" width="399.333" height="206" rx="4" fill="#EDF2F7"/>
<g clip-path="url(#clip0_5254_17973)">
<path fill-rule="evenodd" clip-rule="evenodd" d="M202.461 56.3349C209.555 57.5821 214.622 61.773 218.005 68.0727L218.64 68.0091C221.304 67.8128 224.069 68.238 226.54 69.2578C231.41 71.2635 234.354 75.2496 235.602 80.2456C236.552 84.0438 236.634 88.2431 235.491 92.0074C233.737 97.8001 229.572 100.81 224.099 102.697L224.04 102.716C222.894 103.105 221.725 103.43 220.586 103.694C215.061 104.673 185.559 104.221 178.936 103.774L178.598 103.737C177.47 103.586 176.355 103.346 175.288 103.009C170.318 101.454 166.779 98.0614 165.144 93.0499C164.025 89.609 164.081 85.9026 165.196 82.466C166.136 79.5761 167.489 77.6169 169.363 76.131C171.579 74.3724 174.654 73.2085 177.406 72.4288C180.599 60.8972 190.704 54.2755 202.461 56.3349ZM210.211 82.7386C210.94 82.7697 211.458 83.0127 211.757 83.4689C212.569 84.6921 211.461 85.8998 210.691 86.7501L201.171 95.1926C200.356 96.098 199.194 96.098 198.378 95.1926L189.765 86.5199C189.046 85.7049 188.158 84.5961 188.904 83.4689C189.212 83.0127 189.724 82.7697 190.453 82.7386H195.361V74.9092C195.361 73.799 196.27 72.8794 197.38 72.8794H203.283C204.393 72.8794 205.301 73.8258 205.301 74.9092V82.7386H210.211Z" fill="#002680"/>
</g>
<path d="M173.76 137.978C173.76 136.742 174.036 135.638 174.588 134.666C175.152 133.682 175.914 132.92 176.874 132.38C177.846 131.828 178.932 131.552 180.132 131.552C181.536 131.552 182.766 131.912 183.822 132.632C184.878 133.352 185.616 134.348 186.036 135.62H183.138C182.85 135.02 182.442 134.57 181.914 134.27C181.398 133.97 180.798 133.82 180.114 133.82C179.382 133.82 178.728 133.994 178.152 134.342C177.588 134.678 177.144 135.158 176.82 135.782C176.508 136.406 176.352 137.138 176.352 137.978C176.352 138.806 176.508 139.538 176.82 140.174C177.144 140.798 177.588 141.284 178.152 141.632C178.728 141.968 179.382 142.136 180.114 142.136C180.798 142.136 181.398 141.986 181.914 141.686C182.442 141.374 182.85 140.918 183.138 140.318H186.036C185.616 141.602 184.878 142.604 183.822 143.324C182.778 144.032 181.548 144.386 180.132 144.386C178.932 144.386 177.846 144.116 176.874 143.576C175.914 143.024 175.152 142.262 174.588 141.29C174.036 140.318 173.76 139.214 173.76 137.978ZM190.708 130.958V144.278H188.188V130.958H190.708ZM197.626 144.44C196.666 144.44 195.802 144.23 195.034 143.81C194.266 143.378 193.66 142.772 193.216 141.992C192.784 141.212 192.568 140.312 192.568 139.292C192.568 138.272 192.79 137.372 193.234 136.592C193.69 135.812 194.308 135.212 195.088 134.792C195.868 134.36 196.738 134.144 197.698 134.144C198.658 134.144 199.528 134.36 200.308 134.792C201.088 135.212 201.7 135.812 202.144 136.592C202.6 137.372 202.828 138.272 202.828 139.292C202.828 140.312 202.594 141.212 202.126 141.992C201.67 142.772 201.046 143.378 200.254 143.81C199.474 144.23 198.598 144.44 197.626 144.44ZM197.626 142.244C198.082 142.244 198.508 142.136 198.904 141.92C199.312 141.692 199.636 141.356 199.876 140.912C200.116 140.468 200.236 139.928 200.236 139.292C200.236 138.344 199.984 137.618 199.48 137.114C198.988 136.598 198.382 136.34 197.662 136.34C196.942 136.34 196.336 136.598 195.844 137.114C195.364 137.618 195.124 138.344 195.124 139.292C195.124 140.24 195.358 140.972 195.826 141.488C196.306 141.992 196.906 142.244 197.626 142.244ZM214.091 134.306V144.278H211.553V143.018C211.229 143.45 210.803 143.792 210.275 144.044C209.759 144.284 209.195 144.404 208.583 144.404C207.803 144.404 207.113 144.242 206.513 143.918C205.913 143.582 205.439 143.096 205.091 142.46C204.755 141.812 204.587 141.044 204.587 140.156V134.306H207.107V139.796C207.107 140.588 207.305 141.2 207.701 141.632C208.097 142.052 208.637 142.262 209.321 142.262C210.017 142.262 210.563 142.052 210.959 141.632C211.355 141.2 211.553 140.588 211.553 139.796V134.306H214.091ZM215.929 139.256C215.929 138.248 216.127 137.354 216.523 136.574C216.931 135.794 217.483 135.194 218.179 134.774C218.875 134.354 219.649 134.144 220.501 134.144C221.149 134.144 221.767 134.288 222.355 134.576C222.943 134.852 223.411 135.224 223.759 135.692V130.958H226.315V144.278H223.759V142.802C223.447 143.294 223.009 143.69 222.445 143.99C221.881 144.29 221.227 144.44 220.483 144.44C219.643 144.44 218.875 144.224 218.179 143.792C217.483 143.36 216.931 142.754 216.523 141.974C216.127 141.182 215.929 140.276 215.929 139.256ZM223.777 139.292C223.777 138.68 223.657 138.158 223.417 137.726C223.177 137.282 222.853 136.946 222.445 136.718C222.037 136.478 221.599 136.358 221.131 136.358C220.663 136.358 220.231 136.472 219.835 136.7C219.439 136.928 219.115 137.264 218.863 137.708C218.623 138.14 218.503 138.656 218.503 139.256C218.503 139.856 218.623 140.384 218.863 140.84C219.115 141.284 219.439 141.626 219.835 141.866C220.243 142.106 220.675 142.226 221.131 142.226C221.599 142.226 222.037 142.112 222.445 141.884C222.853 141.644 223.177 141.308 223.417 140.876C223.657 140.432 223.777 139.904 223.777 139.292Z" fill="#002680"/>
<rect x="0.666016" y="216.62" width="399.333" height="118" rx="4" fill="#EDF2F7"/>
<path d="M65.2814 254.787C64.9261 254.38 64.7255 253.86 64.7148 253.32C64.736 251.178 64.0876 249.082 62.8601 247.326C61.6327 245.571 59.8875 244.242 57.8683 243.526C55.849 242.81 53.6566 242.743 51.5973 243.333C49.5379 243.924 47.7144 245.143 46.3814 246.82C41.2148 244.437 36.9314 246.82 36.3814 252.32C36.33 252.518 36.2384 252.703 36.1122 252.863C35.986 253.024 35.828 253.157 35.6481 253.253C34.0539 254.052 32.7799 255.371 32.0368 256.992C31.2937 258.613 31.1259 260.439 31.5611 262.168C31.9964 263.898 33.0086 265.427 34.4305 266.503C35.8524 267.579 37.599 268.138 39.3814 268.087C46.1314 268.087 52.8814 268.087 59.6314 268.087C61.1809 268.131 62.7058 267.693 63.9956 266.833C65.2853 265.973 66.2762 264.734 66.8314 263.287C67.4597 261.879 67.6479 260.314 67.3713 258.797C67.0947 257.28 66.3663 255.882 65.2814 254.787ZM63.6148 264.353C63.7897 262.992 63.7897 261.614 63.6148 260.253C63.1073 259.11 62.4333 258.049 61.6148 257.103C61.3025 256.732 61.1158 256.271 61.0814 255.787C61.3099 254.328 61.1268 252.834 60.5526 251.474C59.9785 250.114 59.036 248.941 57.8314 248.087C56.6646 247.171 55.2603 246.607 53.7839 246.462C52.3075 246.318 50.8205 246.598 49.4981 247.27C49.2648 247.387 49.0148 247.47 48.5148 247.687C49.6375 246.421 51.1272 245.536 52.7762 245.157C54.4253 244.778 56.1516 244.922 57.7148 245.57C59.267 246.197 60.5839 247.295 61.4806 248.709C62.3773 250.123 62.8089 251.782 62.7148 253.453C62.6361 253.958 62.6935 254.474 62.881 254.948C63.0686 255.423 63.3794 255.839 63.7814 256.153C64.3484 256.682 64.797 257.324 65.0974 258.039C65.3979 258.753 65.5435 259.523 65.5246 260.298C65.5057 261.073 65.3227 261.835 64.9878 262.534C64.6528 263.233 64.1735 263.853 63.5814 264.353H63.6148Z" fill="url(#paint0_linear_5254_17973)"/>
<path d="M39.299 257.987C39.1497 257.827 39.0354 257.638 38.9636 257.431C38.8919 257.224 38.8642 257.005 38.8824 256.787C38.8671 256.576 38.8996 256.365 38.9775 256.169C39.0554 255.972 39.1768 255.796 39.3324 255.654C39.7365 255.372 40.2244 255.237 40.7157 255.27H41.999V256.304H40.7157C40.5518 256.293 40.3885 256.333 40.249 256.42C40.1977 256.466 40.1575 256.523 40.1315 256.586C40.1055 256.65 40.0944 256.718 40.099 256.787C40.0959 256.863 40.1127 256.938 40.1478 257.005C40.1829 257.073 40.2351 257.129 40.299 257.17C40.4634 257.255 40.6474 257.296 40.8324 257.287C41.1042 257.304 41.3767 257.264 41.6324 257.17C41.7114 257.142 41.7796 257.09 41.8275 257.021C41.8753 256.953 41.9003 256.871 41.899 256.787L41.999 257.52C41.9924 257.611 41.9668 257.7 41.9237 257.78C41.8806 257.861 41.8211 257.931 41.749 257.987C41.5856 258.129 41.3917 258.231 41.1824 258.287C40.9488 258.349 40.7074 258.377 40.4657 258.37C40.0422 258.396 39.625 258.258 39.299 257.987ZM41.949 255.054C41.9531 254.95 41.9343 254.847 41.894 254.752C41.8537 254.657 41.7928 254.572 41.7157 254.504C41.5129 254.372 41.2738 254.308 41.0324 254.32C40.8408 254.325 40.6505 254.353 40.4657 254.404C40.2895 254.462 40.1256 254.552 39.9824 254.67L39.1657 253.854C39.3788 253.606 39.6471 253.412 39.949 253.287C40.3049 253.149 40.6841 253.081 41.0657 253.087C41.4563 253.078 41.8438 253.158 42.199 253.32C42.5031 253.458 42.7586 253.685 42.9324 253.97C43.1068 254.28 43.1933 254.632 43.1824 254.987V258.32H41.949V255.054Z" fill="white"/>
<path d="M43.916 253.187H45.216L46.1327 256.337L47.1993 253.187H47.9993L49.166 256.337L50.0827 253.187H51.3827L49.716 258.287H48.6993L47.5993 254.954L46.4993 258.287H45.4993L43.916 253.187Z" fill="white"/>
<path d="M53.249 258.287C52.9684 258.234 52.6945 258.15 52.4323 258.037C52.1922 257.943 51.9675 257.814 51.7656 257.654L52.599 256.62C52.8391 256.772 53.0964 256.895 53.3656 256.987C53.6132 257.069 53.8716 257.114 54.1323 257.12C54.3872 257.125 54.6409 257.086 54.8823 257.004C55.049 257.004 55.1323 256.837 55.1323 256.72C55.1371 256.67 55.1289 256.618 55.1085 256.572C55.0881 256.525 55.0561 256.484 55.0156 256.454C54.9338 256.386 54.8364 256.34 54.7323 256.32H54.2323H53.7823C53.4714 256.29 53.1642 256.229 52.8656 256.137C52.6277 256.072 52.4208 255.924 52.2823 255.72C52.1055 255.461 52.0231 255.149 52.049 254.837C52.0341 254.525 52.1156 254.217 52.2823 253.954C52.4389 253.657 52.6915 253.422 52.999 253.287C53.3714 253.147 53.7683 253.085 54.1656 253.104C54.4261 253.078 54.6885 253.078 54.949 253.104C55.2061 253.156 55.4574 253.234 55.699 253.337C55.929 253.427 56.1473 253.544 56.349 253.687L55.549 254.67C55.3285 254.542 55.0935 254.442 54.849 254.37C54.6209 254.307 54.3856 254.273 54.149 254.27C53.9278 254.26 53.7068 254.294 53.499 254.37C53.44 254.381 53.3865 254.412 53.3472 254.458C53.3079 254.503 53.285 254.56 53.2823 254.62C53.2758 254.662 53.2838 254.705 53.3051 254.741C53.3263 254.777 53.3595 254.805 53.399 254.82C53.4935 254.872 53.5943 254.911 53.699 254.937H54.2323H54.499C54.8255 254.963 55.1491 255.019 55.4656 255.104C55.716 255.18 55.937 255.331 56.099 255.537C56.2974 255.818 56.3916 256.16 56.3656 256.504C56.373 256.827 56.2861 257.145 56.1156 257.42C55.9303 257.682 55.6683 257.88 55.3656 257.987C54.9819 258.129 54.5747 258.197 54.1656 258.187C53.8637 258.248 53.5569 258.281 53.249 258.287Z" fill="white"/>
<path d="M48.8158 264.087C43.9943 263.897 39.3443 262.246 35.4824 259.354L35.6824 259.104C35.8158 259.204 47.6991 268.637 59.0158 260.354L59.1991 260.62C56.2084 262.877 52.5622 264.094 48.8158 264.087Z" fill="white"/>
<path d="M60.6167 259.237C60.0359 260.152 59.6028 261.153 59.3333 262.203L58.8333 260.62L57.5 259.72C58.5577 259.722 59.6093 259.559 60.6167 259.237Z" fill="white"/>
<path d="M38.6716 306.348H34.0156L33.2156 308.62H31.3116L35.2956 297.484H37.4076L41.3916 308.62H39.4716L38.6716 306.348ZM38.1596 304.86L36.3516 299.692L34.5276 304.86H38.1596ZM57.6038 297.5L54.3078 308.62H52.2438L49.9078 300.204L47.4278 308.62L45.3798 308.636L42.2278 297.5H44.1638L46.4678 306.556L48.9638 297.5H51.0118L53.3318 306.508L55.6518 297.5H57.6038ZM62.7722 308.732C62.0255 308.732 61.3535 308.604 60.7562 308.348C60.1589 308.081 59.6895 307.708 59.3482 307.228C59.0069 306.748 58.8362 306.188 58.8362 305.548H60.7882C60.8309 306.028 61.0175 306.423 61.3482 306.732C61.6895 307.041 62.1642 307.196 62.7722 307.196C63.4015 307.196 63.8922 307.047 64.2442 306.748C64.5962 306.439 64.7722 306.044 64.7722 305.564C64.7722 305.191 64.6602 304.887 64.4362 304.652C64.2229 304.417 63.9509 304.236 63.6202 304.108C63.3002 303.98 62.8522 303.841 62.2762 303.692C61.5509 303.5 60.9589 303.308 60.5002 303.116C60.0522 302.913 59.6682 302.604 59.3482 302.188C59.0282 301.772 58.8682 301.217 58.8682 300.524C58.8682 299.884 59.0282 299.324 59.3482 298.844C59.6682 298.364 60.1162 297.996 60.6922 297.74C61.2682 297.484 61.9349 297.356 62.6922 297.356C63.7695 297.356 64.6495 297.628 65.3322 298.172C66.0255 298.705 66.4095 299.441 66.4842 300.38H64.4682C64.4362 299.975 64.2442 299.628 63.8922 299.34C63.5402 299.052 63.0762 298.908 62.5002 298.908C61.9775 298.908 61.5509 299.041 61.2202 299.308C60.8895 299.575 60.7242 299.959 60.7242 300.46C60.7242 300.801 60.8255 301.084 61.0282 301.308C61.2415 301.521 61.5082 301.692 61.8282 301.82C62.1482 301.948 62.5855 302.087 63.1402 302.236C63.8762 302.439 64.4735 302.641 64.9322 302.844C65.4015 303.047 65.7962 303.361 66.1162 303.788C66.4469 304.204 66.6122 304.764 66.6122 305.468C66.6122 306.033 66.4575 306.567 66.1482 307.068C65.8495 307.569 65.4069 307.975 64.8202 308.284C64.2442 308.583 63.5615 308.732 62.7722 308.732Z" fill="#434343"/>
<path d="M137.861 249.12C138.034 247.239 138.946 245.504 140.398 244.296C141.85 243.088 143.722 242.506 145.603 242.678C147.484 242.851 149.219 243.763 150.427 245.215C151.635 246.667 152.217 248.539 152.045 250.42C152.879 250.305 153.729 250.41 154.51 250.726C155.291 251.042 155.975 251.557 156.495 252.22C157.017 252.884 157.363 253.669 157.5 254.502C157.637 255.336 157.561 256.191 157.278 256.987C157.611 256.987 157.961 256.987 158.295 257.153C159.31 257.389 160.231 257.923 160.941 258.686C161.65 259.449 162.116 260.407 162.278 261.437C162.404 262.142 162.388 262.866 162.231 263.565C162.074 264.265 161.779 264.925 161.363 265.509C160.947 266.093 160.418 266.588 159.808 266.964C159.199 267.341 158.52 267.592 157.811 267.703C157.467 267.728 157.122 267.728 156.778 267.703H139.945C137.566 267.706 135.261 266.874 133.433 265.351C131.605 263.827 130.371 261.711 129.945 259.37C129.574 257.542 129.795 255.643 130.578 253.949C131.36 252.256 132.662 250.856 134.295 249.953C135.324 249.416 136.467 249.135 137.628 249.137L137.861 249.12ZM145.961 266.72C147.556 266.711 149.084 266.079 150.218 264.957C151.352 263.836 152.002 262.315 152.028 260.72C152.041 259.517 151.697 258.338 151.038 257.331C150.38 256.325 149.437 255.537 148.33 255.068C147.222 254.598 146.001 254.469 144.819 254.695C143.638 254.922 142.551 255.494 141.696 256.34C140.841 257.185 140.256 258.266 140.017 259.445C139.777 260.624 139.893 261.847 140.351 262.959C140.808 264.072 141.585 265.023 142.584 265.693C143.583 266.362 144.759 266.72 145.961 266.72Z" fill="url(#paint1_linear_5254_17973)"/>
<path d="M145.977 266.037C144.908 266.04 143.861 265.726 142.971 265.134C142.08 264.542 141.386 263.698 140.975 262.711C140.564 261.724 140.456 260.636 140.663 259.587C140.871 258.538 141.386 257.575 142.142 256.818C142.898 256.062 143.862 255.548 144.911 255.34C145.96 255.132 147.047 255.24 148.035 255.651C149.022 256.062 149.865 256.757 150.457 257.647C151.049 258.538 151.364 259.584 151.361 260.653C151.356 262.08 150.788 263.447 149.779 264.455C148.77 265.464 147.404 266.032 145.977 266.037ZM143.044 260.503V263.287C143.044 263.703 143.044 263.787 143.527 263.803H148.344C148.744 263.803 148.844 263.703 148.844 263.303V257.67C148.844 257.287 148.744 257.187 148.361 257.187H143.527C143.144 257.187 143.044 257.27 143.044 257.67V260.503Z" fill="url(#paint2_linear_5254_17973)"/>
<path d="M148.143 263.17H143.727V257.87H148.143V263.17ZM145.96 258.987H147.527C147.76 258.987 147.96 258.987 147.993 258.653C148.027 258.32 147.843 258.303 147.527 258.287H144.36C144.06 258.287 143.877 258.437 143.893 258.653C143.91 258.87 144.127 258.987 144.36 258.987H145.96ZM145.96 260.237H147.627C147.86 260.237 148.043 260.153 148.06 259.903C148.077 259.653 147.877 259.553 147.627 259.553H144.327C144.077 259.553 143.893 259.653 143.91 259.92C143.927 260.187 144.11 260.237 144.327 260.237H145.96ZM145.96 262.77H147.627C147.86 262.77 148.043 262.77 148.043 262.437C148.043 262.103 147.86 262.103 147.627 262.103H144.293C144.043 262.103 143.893 262.203 143.893 262.453C143.893 262.703 144.077 262.77 144.293 262.77H145.96ZM145.96 260.82H144.293C144.043 260.82 143.86 260.903 143.86 261.153C143.86 261.403 144.043 261.487 144.293 261.487H147.493C147.743 261.487 147.927 261.487 147.943 261.153C147.96 260.82 147.743 260.803 147.51 260.82H145.96Z" fill="url(#paint3_linear_5254_17973)"/>
<path d="M105.906 303.036C105.906 301.948 106.157 300.972 106.658 300.108C107.17 299.244 107.858 298.572 108.722 298.092C109.597 297.601 110.552 297.356 111.586 297.356C112.77 297.356 113.821 297.649 114.738 298.236C115.666 298.812 116.338 299.633 116.754 300.7H114.562C114.274 300.113 113.874 299.676 113.362 299.388C112.85 299.1 112.258 298.956 111.586 298.956C110.85 298.956 110.194 299.121 109.618 299.452C109.042 299.783 108.589 300.257 108.258 300.876C107.938 301.495 107.778 302.215 107.778 303.036C107.778 303.857 107.938 304.577 108.258 305.196C108.589 305.815 109.042 306.295 109.618 306.636C110.194 306.967 110.85 307.132 111.586 307.132C112.258 307.132 112.85 306.988 113.362 306.7C113.874 306.412 114.274 305.975 114.562 305.388H116.754C116.338 306.455 115.666 307.276 114.738 307.852C113.821 308.428 112.77 308.716 111.586 308.716C110.541 308.716 109.586 308.476 108.722 307.996C107.858 307.505 107.17 306.828 106.658 305.964C106.157 305.1 105.906 304.124 105.906 303.036ZM120.713 296.78V308.62H118.889V296.78H120.713ZM126.932 308.764C126.1 308.764 125.348 308.577 124.676 308.204C124.004 307.82 123.476 307.287 123.092 306.604C122.708 305.911 122.516 305.111 122.516 304.204C122.516 303.308 122.714 302.513 123.108 301.82C123.503 301.127 124.042 300.593 124.724 300.22C125.407 299.847 126.17 299.66 127.012 299.66C127.855 299.66 128.618 299.847 129.3 300.22C129.983 300.593 130.522 301.127 130.916 301.82C131.311 302.513 131.508 303.308 131.508 304.204C131.508 305.1 131.306 305.895 130.9 306.588C130.495 307.281 129.94 307.82 129.236 308.204C128.543 308.577 127.775 308.764 126.932 308.764ZM126.932 307.18C127.402 307.18 127.839 307.068 128.244 306.844C128.66 306.62 128.996 306.284 129.252 305.836C129.508 305.388 129.636 304.844 129.636 304.204C129.636 303.564 129.514 303.025 129.268 302.588C129.023 302.14 128.698 301.804 128.292 301.58C127.887 301.356 127.45 301.244 126.98 301.244C126.511 301.244 126.074 301.356 125.668 301.58C125.274 301.804 124.959 302.14 124.724 302.588C124.49 303.025 124.372 303.564 124.372 304.204C124.372 305.153 124.612 305.889 125.092 306.412C125.583 306.924 126.196 307.18 126.932 307.18ZM141.295 299.804V308.62H139.471V307.58C139.183 307.943 138.805 308.231 138.335 308.444C137.877 308.647 137.386 308.748 136.863 308.748C136.17 308.748 135.546 308.604 134.991 308.316C134.447 308.028 134.015 307.601 133.695 307.036C133.386 306.471 133.231 305.788 133.231 304.988V299.804H135.039V304.716C135.039 305.505 135.237 306.113 135.631 306.54C136.026 306.956 136.565 307.164 137.247 307.164C137.93 307.164 138.469 306.956 138.863 306.54C139.269 306.113 139.471 305.505 139.471 304.716V299.804H141.295ZM143.094 304.172C143.094 303.287 143.275 302.503 143.638 301.82C144.011 301.137 144.513 300.609 145.142 300.236C145.782 299.852 146.491 299.66 147.27 299.66C147.846 299.66 148.411 299.788 148.966 300.044C149.531 300.289 149.979 300.62 150.31 301.036V296.78H152.15V308.62H150.31V307.292C150.011 307.719 149.595 308.071 149.062 308.348C148.539 308.625 147.937 308.764 147.254 308.764C146.486 308.764 145.782 308.572 145.142 308.188C144.513 307.793 144.011 307.249 143.638 306.556C143.275 305.852 143.094 305.057 143.094 304.172ZM150.31 304.204C150.31 303.596 150.182 303.068 149.926 302.62C149.681 302.172 149.355 301.831 148.95 301.596C148.545 301.361 148.107 301.244 147.638 301.244C147.169 301.244 146.731 301.361 146.326 301.596C145.921 301.82 145.59 302.156 145.334 302.604C145.089 303.041 144.966 303.564 144.966 304.172C144.966 304.78 145.089 305.313 145.334 305.772C145.59 306.231 145.921 306.583 146.326 306.828C146.742 307.063 147.179 307.18 147.638 307.18C148.107 307.18 148.545 307.063 148.95 306.828C149.355 306.593 149.681 306.252 149.926 305.804C150.182 305.345 150.31 304.812 150.31 304.204ZM160.526 297.5V308.62H158.702V297.5H160.526ZM168.873 302.908C169.47 303.015 169.977 303.329 170.393 303.852C170.809 304.375 171.017 304.967 171.017 305.628C171.017 306.193 170.867 306.705 170.569 307.164C170.281 307.612 169.859 307.969 169.305 308.236C168.75 308.492 168.105 308.62 167.369 308.62H162.921V297.5H167.161C167.918 297.5 168.569 297.628 169.113 297.884C169.657 298.14 170.067 298.487 170.345 298.924C170.622 299.351 170.761 299.831 170.761 300.364C170.761 301.004 170.59 301.537 170.249 301.964C169.907 302.391 169.449 302.705 168.873 302.908ZM164.745 302.172H167.001C167.598 302.172 168.062 302.039 168.393 301.772C168.734 301.495 168.905 301.1 168.905 300.588C168.905 300.087 168.734 299.697 168.393 299.42C168.062 299.132 167.598 298.988 167.001 298.988H164.745V302.172ZM167.209 307.132C167.827 307.132 168.313 306.983 168.665 306.684C169.017 306.385 169.193 305.969 169.193 305.436C169.193 304.892 169.006 304.46 168.633 304.14C168.259 303.82 167.763 303.66 167.145 303.66H164.745V307.132H167.209ZM184.711 297.5V308.62H182.887V301.004L179.495 308.62H178.231L174.823 301.004V308.62H172.999V297.5H174.967L178.871 306.22L182.759 297.5H184.711Z" fill="#434343"/>
<path d="M249.388 261.453C249.388 260.57 249.388 259.687 249.388 258.803C249.413 258.4 249.323 257.998 249.128 257.644C248.933 257.29 248.642 256.998 248.288 256.803C247.507 256.33 246.641 256.013 245.738 255.87C242.756 255.275 239.68 255.331 236.721 256.037C236.031 256.224 235.369 256.504 234.755 256.87C234.417 257.053 234.14 257.33 233.956 257.667C233.773 258.004 233.691 258.387 233.721 258.77C233.721 260.62 233.721 262.487 233.721 264.337C233.721 264.887 233.621 264.97 233.055 264.97C231.388 264.97 229.721 264.97 228.055 264.97C227.442 264.987 226.833 264.867 226.272 264.619C225.711 264.372 225.212 264.002 224.812 263.538C224.412 263.074 224.119 262.526 223.957 261.935C223.794 261.344 223.765 260.724 223.871 260.12C223.944 259.422 224.187 258.753 224.579 258.172C224.972 257.59 225.501 257.115 226.121 256.787C226.355 256.67 226.271 256.503 226.255 256.353C226.026 254.865 226.308 253.344 227.055 252.037C228.009 250.386 229.487 249.101 231.255 248.387C231.923 248.106 232.607 247.866 233.305 247.67C233.405 247.646 233.498 247.599 233.576 247.533C233.654 247.466 233.715 247.382 233.755 247.287C234.293 245.981 235.148 244.83 236.242 243.937C237.336 243.044 238.635 242.436 240.021 242.17C241.814 241.813 243.674 242.055 245.315 242.859C246.957 243.663 248.288 244.985 249.105 246.62C249.391 247.156 249.636 247.714 249.838 248.287C249.858 248.376 249.909 248.456 249.982 248.511C250.056 248.566 250.147 248.593 250.238 248.587C251.966 248.72 253.602 249.414 254.899 250.564C256.196 251.713 257.082 253.254 257.421 254.953C257.522 255.543 257.572 256.139 257.571 256.737C257.567 256.826 257.584 256.916 257.622 256.997C257.66 257.078 257.717 257.149 257.788 257.203C258.422 257.703 258.9 258.373 259.166 259.135C259.431 259.896 259.474 260.718 259.288 261.503C259.17 262.292 258.823 263.028 258.289 263.621C257.756 264.214 257.06 264.636 256.288 264.837C256.011 264.912 255.725 264.946 255.438 264.937H250.038C249.571 264.937 249.455 264.82 249.455 264.353L249.388 261.453ZM249.388 249.353C249.313 249.241 249.257 249.117 249.221 248.987C249.221 248.637 248.988 248.587 248.671 248.62C247.228 248.788 245.863 249.367 244.738 250.287C244.232 250.76 243.759 251.266 243.321 251.803C243.281 251.847 243.25 251.899 243.231 251.956C243.213 252.012 243.208 252.073 243.216 252.132C243.224 252.191 243.245 252.247 243.278 252.297C243.31 252.347 243.354 252.389 243.405 252.42C243.452 252.453 243.506 252.476 243.563 252.487C243.619 252.499 243.678 252.498 243.734 252.485C243.791 252.473 243.844 252.449 243.89 252.415C243.937 252.38 243.976 252.337 244.005 252.287C244.055 252.211 244.111 252.138 244.171 252.07C244.997 250.945 246.168 250.12 247.505 249.72C248.126 249.564 248.754 249.442 249.388 249.353ZM234.221 248.287C234.838 248.287 235.471 248.287 236.055 248.287C236.924 248.368 237.769 248.623 238.538 249.037C238.855 249.203 239.138 249.037 239.205 248.803C239.271 248.57 239.121 248.387 238.905 248.287C237.784 247.714 236.547 247.406 235.288 247.387C234.771 247.387 234.405 247.487 234.305 248.053C234.288 248.135 234.26 248.213 234.221 248.287ZM227.221 257.187C228.102 256.994 229.023 257.118 229.821 257.537C229.918 257.569 230.024 257.564 230.117 257.524C230.211 257.483 230.287 257.41 230.33 257.317C230.373 257.225 230.381 257.12 230.352 257.022C230.322 256.924 230.258 256.84 230.171 256.787C229.862 256.633 229.538 256.51 229.205 256.42C228.544 256.246 227.849 256.246 227.188 256.42L227.221 257.187ZM256.721 257.387C256.721 257.237 256.721 257.003 256.721 256.77C256.721 256.537 256.721 256.537 256.571 256.52C256.071 256.42 255.571 256.32 255.071 256.253C255.015 256.243 254.957 256.245 254.902 256.261C254.847 256.277 254.796 256.305 254.754 256.344C254.712 256.383 254.679 256.431 254.659 256.485C254.639 256.539 254.632 256.596 254.638 256.653C254.636 256.709 254.645 256.765 254.665 256.818C254.685 256.87 254.715 256.918 254.754 256.959C254.793 256.999 254.84 257.032 254.891 257.053C254.943 257.075 254.999 257.087 255.055 257.087L256.721 257.387Z" fill="url(#paint4_linear_5254_17973)"/>
<path d="M234.655 264.587C234.655 262.637 234.655 260.687 234.655 258.737C234.643 258.502 234.694 258.269 234.802 258.061C234.911 257.853 235.073 257.678 235.272 257.553C235.953 257.118 236.721 256.833 237.522 256.72C240.447 256.12 243.468 256.171 246.372 256.87C246.955 257.023 247.515 257.253 248.038 257.553C248.25 257.67 248.423 257.846 248.539 258.058C248.654 258.271 248.706 258.512 248.688 258.753C248.688 262.62 248.688 266.503 248.688 270.42C248.698 270.66 248.644 270.899 248.533 271.112C248.422 271.326 248.257 271.506 248.055 271.637C247.354 272.07 246.571 272.354 245.755 272.47C243.005 273.024 240.172 273.024 237.422 272.47C236.746 272.248 236.094 271.963 235.472 271.62C235.203 271.5 234.978 271.299 234.828 271.045C234.679 270.791 234.613 270.497 234.638 270.203C234.672 268.387 234.655 266.487 234.655 264.587ZM242.072 257.17C240.307 257.101 238.542 257.303 236.838 257.77C236.426 257.906 236.03 258.085 235.655 258.303C235.438 258.437 235.438 258.637 235.655 258.803C235.817 258.919 235.99 259.02 236.172 259.103C237.031 259.449 237.934 259.673 238.855 259.77C241.146 260.088 243.476 260.003 245.738 259.52C246.363 259.363 246.967 259.133 247.538 258.837C247.872 258.687 247.855 258.453 247.538 258.27C247.25 258.087 246.943 257.936 246.622 257.82C245.147 257.371 243.613 257.152 242.072 257.17ZM247.722 266.62C247.322 266.803 246.938 267.003 246.522 267.153C246.114 267.292 245.696 267.398 245.272 267.47C243.238 267.847 241.158 267.909 239.105 267.653C237.835 267.599 236.595 267.245 235.488 266.62C235.505 266.836 235.505 267.054 235.488 267.27C235.476 267.325 235.475 267.381 235.486 267.437C235.496 267.492 235.517 267.544 235.548 267.591C235.579 267.638 235.62 267.678 235.667 267.708C235.714 267.739 235.766 267.76 235.822 267.77C236.285 267.945 236.758 268.095 237.238 268.22C239.852 268.792 242.553 268.848 245.188 268.387C245.985 268.213 246.769 267.99 247.538 267.72C247.591 267.7 247.64 267.669 247.68 267.629C247.72 267.588 247.751 267.54 247.772 267.487C247.722 267.137 247.722 266.853 247.722 266.62ZM235.488 262.653C235.488 262.92 235.488 263.137 235.488 263.337C235.468 263.438 235.488 263.543 235.544 263.63C235.6 263.717 235.688 263.779 235.788 263.803C236.355 263.97 236.905 264.203 237.455 264.32C239.87 264.806 242.352 264.868 244.788 264.503C245.728 264.409 246.645 264.161 247.505 263.77C247.56 263.744 247.609 263.706 247.649 263.661C247.689 263.615 247.719 263.561 247.738 263.503C247.755 263.22 247.755 262.936 247.738 262.653C247.108 263.096 246.383 263.387 245.622 263.503C243.288 263.967 240.891 264.023 238.538 263.67C237.455 263.579 236.41 263.23 235.488 262.653Z" fill="url(#paint5_linear_5254_17973)"/>
<path d="M222.076 290.19C221.824 289.705 221.474 289.341 221.026 289.098C220.578 288.846 220.06 288.72 219.472 288.72C218.828 288.72 218.254 288.865 217.75 289.154C217.246 289.443 216.85 289.854 216.56 290.386C216.28 290.918 216.14 291.534 216.14 292.234C216.14 292.934 216.28 293.555 216.56 294.096C216.85 294.628 217.246 295.039 217.75 295.328C218.254 295.617 218.828 295.762 219.472 295.762C220.34 295.762 221.045 295.519 221.586 295.034C222.128 294.549 222.459 293.891 222.58 293.06H218.926V291.786H224.288V293.032C224.186 293.788 223.915 294.483 223.476 295.118C223.047 295.753 222.482 296.261 221.782 296.644C221.092 297.017 220.322 297.204 219.472 297.204C218.558 297.204 217.722 296.994 216.966 296.574C216.21 296.145 215.608 295.552 215.16 294.796C214.722 294.04 214.502 293.186 214.502 292.234C214.502 291.282 214.722 290.428 215.16 289.672C215.608 288.916 216.21 288.328 216.966 287.908C217.732 287.479 218.567 287.264 219.472 287.264C220.508 287.264 221.428 287.521 222.23 288.034C223.042 288.538 223.63 289.257 223.994 290.19H222.076ZM229.209 297.246C228.481 297.246 227.823 297.083 227.235 296.756C226.647 296.42 226.185 295.953 225.849 295.356C225.513 294.749 225.345 294.049 225.345 293.256C225.345 292.472 225.517 291.777 225.863 291.17C226.208 290.563 226.679 290.097 227.277 289.77C227.874 289.443 228.541 289.28 229.279 289.28C230.016 289.28 230.683 289.443 231.281 289.77C231.878 290.097 232.349 290.563 232.695 291.17C233.04 291.777 233.213 292.472 233.213 293.256C233.213 294.04 233.035 294.735 232.681 295.342C232.326 295.949 231.841 296.42 231.225 296.756C230.618 297.083 229.946 297.246 229.209 297.246ZM229.209 295.86C229.619 295.86 230.002 295.762 230.357 295.566C230.721 295.37 231.015 295.076 231.239 294.684C231.463 294.292 231.575 293.816 231.575 293.256C231.575 292.696 231.467 292.225 231.253 291.842C231.038 291.45 230.753 291.156 230.399 290.96C230.044 290.764 229.661 290.666 229.251 290.666C228.84 290.666 228.457 290.764 228.103 290.96C227.757 291.156 227.482 291.45 227.277 291.842C227.071 292.225 226.969 292.696 226.969 293.256C226.969 294.087 227.179 294.731 227.599 295.188C228.028 295.636 228.565 295.86 229.209 295.86ZM238.136 297.246C237.408 297.246 236.75 297.083 236.162 296.756C235.574 296.42 235.112 295.953 234.776 295.356C234.44 294.749 234.272 294.049 234.272 293.256C234.272 292.472 234.445 291.777 234.79 291.17C235.136 290.563 235.607 290.097 236.204 289.77C236.802 289.443 237.469 289.28 238.206 289.28C238.944 289.28 239.611 289.443 240.208 289.77C240.806 290.097 241.277 290.563 241.622 291.17C241.968 291.777 242.14 292.472 242.14 293.256C242.14 294.04 241.963 294.735 241.608 295.342C241.254 295.949 240.768 296.42 240.152 296.756C239.546 297.083 238.874 297.246 238.136 297.246ZM238.136 295.86C238.547 295.86 238.93 295.762 239.284 295.566C239.648 295.37 239.942 295.076 240.166 294.684C240.39 294.292 240.502 293.816 240.502 293.256C240.502 292.696 240.395 292.225 240.18 291.842C239.966 291.45 239.681 291.156 239.326 290.96C238.972 290.764 238.589 290.666 238.178 290.666C237.768 290.666 237.385 290.764 237.03 290.96C236.685 291.156 236.41 291.45 236.204 291.842C235.999 292.225 235.896 292.696 235.896 293.256C235.896 294.087 236.106 294.731 236.526 295.188C236.956 295.636 237.492 295.86 238.136 295.86ZM246.826 289.28C247.423 289.28 247.951 289.401 248.408 289.644C248.875 289.877 249.239 290.171 249.5 290.526V289.406H251.11V297.246C251.11 297.955 250.961 298.585 250.662 299.136C250.363 299.696 249.929 300.135 249.36 300.452C248.8 300.769 248.128 300.928 247.344 300.928C246.299 300.928 245.431 300.681 244.74 300.186C244.049 299.701 243.657 299.038 243.564 298.198H245.146C245.267 298.599 245.524 298.921 245.916 299.164C246.317 299.416 246.793 299.542 247.344 299.542C247.988 299.542 248.506 299.346 248.898 298.954C249.299 298.562 249.5 297.993 249.5 297.246V295.958C249.229 296.322 248.861 296.63 248.394 296.882C247.937 297.125 247.414 297.246 246.826 297.246C246.154 297.246 245.538 297.078 244.978 296.742C244.427 296.397 243.989 295.921 243.662 295.314C243.345 294.698 243.186 294.003 243.186 293.228C243.186 292.453 243.345 291.767 243.662 291.17C243.989 290.573 244.427 290.111 244.978 289.784C245.538 289.448 246.154 289.28 246.826 289.28ZM249.5 293.256C249.5 292.724 249.388 292.262 249.164 291.87C248.949 291.478 248.665 291.179 248.31 290.974C247.955 290.769 247.573 290.666 247.162 290.666C246.751 290.666 246.369 290.769 246.014 290.974C245.659 291.17 245.37 291.464 245.146 291.856C244.931 292.239 244.824 292.696 244.824 293.228C244.824 293.76 244.931 294.227 245.146 294.628C245.37 295.029 245.659 295.337 246.014 295.552C246.378 295.757 246.761 295.86 247.162 295.86C247.573 295.86 247.955 295.757 248.31 295.552C248.665 295.347 248.949 295.048 249.164 294.656C249.388 294.255 249.5 293.788 249.5 293.256ZM254.802 286.76V297.12H253.206V286.76H254.802ZM263.968 293.074C263.968 293.363 263.949 293.625 263.912 293.858H258.018C258.064 294.474 258.293 294.969 258.704 295.342C259.114 295.715 259.618 295.902 260.216 295.902C261.074 295.902 261.681 295.543 262.036 294.824H263.758C263.524 295.533 263.1 296.117 262.484 296.574C261.877 297.022 261.121 297.246 260.216 297.246C259.478 297.246 258.816 297.083 258.228 296.756C257.649 296.42 257.192 295.953 256.856 295.356C256.529 294.749 256.366 294.049 256.366 293.256C256.366 292.463 256.524 291.767 256.842 291.17C257.168 290.563 257.621 290.097 258.2 289.77C258.788 289.443 259.46 289.28 260.216 289.28C260.944 289.28 261.592 289.439 262.162 289.756C262.731 290.073 263.174 290.521 263.492 291.1C263.809 291.669 263.968 292.327 263.968 293.074ZM262.302 292.57C262.292 291.982 262.082 291.511 261.672 291.156C261.261 290.801 260.752 290.624 260.146 290.624C259.595 290.624 259.124 290.801 258.732 291.156C258.34 291.501 258.106 291.973 258.032 292.57H262.302ZM220.559 313.234C220.559 312.282 220.778 311.428 221.217 310.672C221.665 309.916 222.267 309.328 223.023 308.908C223.788 308.479 224.624 308.264 225.529 308.264C226.565 308.264 227.484 308.521 228.287 309.034C229.099 309.538 229.687 310.257 230.051 311.19H228.133C227.881 310.677 227.531 310.294 227.083 310.042C226.635 309.79 226.117 309.664 225.529 309.664C224.885 309.664 224.311 309.809 223.807 310.098C223.303 310.387 222.906 310.803 222.617 311.344C222.337 311.885 222.197 312.515 222.197 313.234C222.197 313.953 222.337 314.583 222.617 315.124C222.906 315.665 223.303 316.085 223.807 316.384C224.311 316.673 224.885 316.818 225.529 316.818C226.117 316.818 226.635 316.692 227.083 316.44C227.531 316.188 227.881 315.805 228.133 315.292H230.051C229.687 316.225 229.099 316.944 228.287 317.448C227.484 317.952 226.565 318.204 225.529 318.204C224.614 318.204 223.779 317.994 223.023 317.574C222.267 317.145 221.665 316.552 221.217 315.796C220.778 315.04 220.559 314.186 220.559 313.234ZM233.515 307.76V318.12H231.919V307.76H233.515ZM238.957 318.246C238.229 318.246 237.571 318.083 236.983 317.756C236.395 317.42 235.933 316.953 235.597 316.356C235.261 315.749 235.093 315.049 235.093 314.256C235.093 313.472 235.265 312.777 235.611 312.17C235.956 311.563 236.427 311.097 237.025 310.77C237.622 310.443 238.289 310.28 239.027 310.28C239.764 310.28 240.431 310.443 241.029 310.77C241.626 311.097 242.097 311.563 242.443 312.17C242.788 312.777 242.961 313.472 242.961 314.256C242.961 315.04 242.783 315.735 242.429 316.342C242.074 316.949 241.589 317.42 240.973 317.756C240.366 318.083 239.694 318.246 238.957 318.246ZM238.957 316.86C239.367 316.86 239.75 316.762 240.105 316.566C240.469 316.37 240.763 316.076 240.987 315.684C241.211 315.292 241.323 314.816 241.323 314.256C241.323 313.696 241.215 313.225 241.001 312.842C240.786 312.45 240.501 312.156 240.147 311.96C239.792 311.764 239.409 311.666 238.999 311.666C238.588 311.666 238.205 311.764 237.851 311.96C237.505 312.156 237.23 312.45 237.025 312.842C236.819 313.225 236.717 313.696 236.717 314.256C236.717 315.087 236.927 315.731 237.347 316.188C237.776 316.636 238.313 316.86 238.957 316.86ZM251.524 310.406V318.12H249.928V317.21C249.676 317.527 249.345 317.779 248.934 317.966C248.533 318.143 248.104 318.232 247.646 318.232C247.04 318.232 246.494 318.106 246.008 317.854C245.532 317.602 245.154 317.229 244.874 316.734C244.604 316.239 244.468 315.642 244.468 314.942V310.406H246.05V314.704C246.05 315.395 246.223 315.927 246.568 316.3C246.914 316.664 247.385 316.846 247.982 316.846C248.58 316.846 249.051 316.664 249.396 316.3C249.751 315.927 249.928 315.395 249.928 314.704V310.406H251.524ZM253.098 314.228C253.098 313.453 253.257 312.767 253.574 312.17C253.901 311.573 254.339 311.111 254.89 310.784C255.45 310.448 256.071 310.28 256.752 310.28C257.256 310.28 257.751 310.392 258.236 310.616C258.731 310.831 259.123 311.12 259.412 311.484V307.76H261.022V318.12H259.412V316.958C259.151 317.331 258.787 317.639 258.32 317.882C257.863 318.125 257.335 318.246 256.738 318.246C256.066 318.246 255.45 318.078 254.89 317.742C254.339 317.397 253.901 316.921 253.574 316.314C253.257 315.698 253.098 315.003 253.098 314.228ZM259.412 314.256C259.412 313.724 259.3 313.262 259.076 312.87C258.861 312.478 258.577 312.179 258.222 311.974C257.867 311.769 257.485 311.666 257.074 311.666C256.663 311.666 256.281 311.769 255.926 311.974C255.571 312.17 255.282 312.464 255.058 312.856C254.843 313.239 254.736 313.696 254.736 314.228C254.736 314.76 254.843 315.227 255.058 315.628C255.282 316.029 255.571 316.337 255.926 316.552C256.29 316.757 256.673 316.86 257.074 316.86C257.485 316.86 257.867 316.757 258.222 316.552C258.577 316.347 258.861 316.048 259.076 315.656C259.3 315.255 259.412 314.788 259.412 314.256Z" fill="#434343"/>
<path d="M351.335 258.687C351.25 257.063 350.593 255.522 349.479 254.338C348.365 253.154 346.867 252.404 345.251 252.22L344.468 252.07C344.679 250.624 344.389 249.15 343.647 247.892C342.904 246.633 341.753 245.667 340.385 245.154C339.161 244.59 337.778 244.477 336.479 244.833C335.18 245.19 334.049 245.994 333.285 247.104C331.085 244.954 328.585 243.854 325.668 245.22C324.423 245.823 323.397 246.798 322.731 248.011C322.065 249.223 321.792 250.613 321.951 251.987C320.897 252.102 319.854 252.309 318.835 252.604C317.395 253.247 316.207 254.346 315.454 255.732C314.701 257.117 314.425 258.712 314.668 260.27C315.038 261.828 315.922 263.216 317.176 264.21C318.431 265.205 319.984 265.748 321.585 265.754H344.918C345.3 265.75 345.68 265.706 346.051 265.62C347.576 265.214 348.922 264.312 349.879 263.057C350.835 261.802 351.347 260.265 351.335 258.687ZM332.318 262.02H326.718V256.52H332.301L332.318 262.02ZM332.318 255.787H326.718V249.654H332.318V255.787ZM339.151 262.02H333.001V256.504H339.201L339.151 262.02ZM339.151 255.787H333.001V249.654H339.168L339.151 255.787Z" fill="url(#paint6_linear_5254_17973)"/>
<path d="M309.404 297.5V308.62H307.58V301.004L304.188 308.62H302.924L299.516 301.004V308.62H297.692V297.5H299.66L303.564 306.22L307.452 297.5H309.404ZM315.466 308.732C314.719 308.732 314.047 308.604 313.45 308.348C312.852 308.081 312.383 307.708 312.042 307.228C311.7 306.748 311.53 306.188 311.53 305.548H313.482C313.524 306.028 313.711 306.423 314.042 306.732C314.383 307.041 314.858 307.196 315.466 307.196C316.095 307.196 316.586 307.047 316.938 306.748C317.29 306.439 317.466 306.044 317.466 305.564C317.466 305.191 317.354 304.887 317.13 304.652C316.916 304.417 316.644 304.236 316.314 304.108C315.994 303.98 315.546 303.841 314.97 303.692C314.244 303.5 313.652 303.308 313.194 303.116C312.746 302.913 312.362 302.604 312.042 302.188C311.722 301.772 311.562 301.217 311.562 300.524C311.562 299.884 311.722 299.324 312.042 298.844C312.362 298.364 312.81 297.996 313.386 297.74C313.962 297.484 314.628 297.356 315.386 297.356C316.463 297.356 317.343 297.628 318.026 298.172C318.719 298.705 319.103 299.441 319.178 300.38H317.162C317.13 299.975 316.938 299.628 316.586 299.34C316.234 299.052 315.77 298.908 315.194 298.908C314.671 298.908 314.244 299.041 313.914 299.308C313.583 299.575 313.418 299.959 313.418 300.46C313.418 300.801 313.519 301.084 313.722 301.308C313.935 301.521 314.202 301.692 314.522 301.82C314.842 301.948 315.279 302.087 315.834 302.236C316.57 302.439 317.167 302.641 317.626 302.844C318.095 303.047 318.49 303.361 318.81 303.788C319.14 304.204 319.306 304.764 319.306 305.468C319.306 306.033 319.151 306.567 318.842 307.068C318.543 307.569 318.1 307.975 317.514 308.284C316.938 308.583 316.255 308.732 315.466 308.732ZM332.318 306.348H327.662L326.862 308.62H324.958L328.942 297.484H331.054L335.038 308.62H333.118L332.318 306.348ZM331.806 304.86L329.998 299.692L328.174 304.86H331.806ZM338.386 307.132H342.386V308.62H336.274V307.132L340.29 301.292H336.274V299.804H342.386V301.292L338.386 307.132ZM352.286 299.804V308.62H350.462V307.58C350.174 307.943 349.795 308.231 349.326 308.444C348.867 308.647 348.376 308.748 347.854 308.748C347.16 308.748 346.536 308.604 345.982 308.316C345.438 308.028 345.006 307.601 344.686 307.036C344.376 306.471 344.222 305.788 344.222 304.988V299.804H346.03V304.716C346.03 305.505 346.227 306.113 346.622 306.54C347.016 306.956 347.555 307.164 348.238 307.164C348.92 307.164 349.459 306.956 349.854 306.54C350.259 306.113 350.462 305.505 350.462 304.716V299.804H352.286ZM356.516 301.084C356.783 300.636 357.135 300.289 357.572 300.044C358.02 299.788 358.548 299.66 359.156 299.66V301.548H358.692C357.978 301.548 357.434 301.729 357.06 302.092C356.698 302.455 356.516 303.084 356.516 303.98V308.62H354.692V299.804H356.516V301.084ZM368.913 303.996C368.913 304.327 368.891 304.625 368.849 304.892H362.113C362.166 305.596 362.427 306.161 362.897 306.588C363.366 307.015 363.942 307.228 364.625 307.228C365.606 307.228 366.299 306.817 366.705 305.996H368.673C368.406 306.807 367.921 307.473 367.217 307.996C366.523 308.508 365.659 308.764 364.625 308.764C363.782 308.764 363.025 308.577 362.353 308.204C361.691 307.82 361.169 307.287 360.785 306.604C360.411 305.911 360.225 305.111 360.225 304.204C360.225 303.297 360.406 302.503 360.769 301.82C361.142 301.127 361.659 300.593 362.321 300.22C362.993 299.847 363.761 299.66 364.625 299.66C365.457 299.66 366.198 299.841 366.849 300.204C367.499 300.567 368.006 301.079 368.369 301.74C368.731 302.391 368.913 303.143 368.913 303.996ZM367.009 303.42C366.998 302.748 366.758 302.209 366.289 301.804C365.819 301.399 365.238 301.196 364.545 301.196C363.915 301.196 363.377 301.399 362.929 301.804C362.481 302.199 362.214 302.737 362.129 303.42H367.009Z" fill="#434343"/>
<defs>
<linearGradient id="paint0_linear_5254_17973" x1="31.2814" y1="255.47" x2="67.4981" y2="255.47" gradientUnits="userSpaceOnUse">
<stop stop-color="#283376"/>
<stop offset="1" stop-color="#1C67A6"/>
</linearGradient>
<linearGradient id="paint1_linear_5254_17973" x1="129.678" y1="255.27" x2="162.278" y2="255.27" gradientUnits="userSpaceOnUse">
<stop stop-color="#283376"/>
<stop offset="1" stop-color="#1C67A6"/>
</linearGradient>
<linearGradient id="paint2_linear_5254_17973" x1="140.561" y1="260.637" x2="151.361" y2="260.637" gradientUnits="userSpaceOnUse">
<stop stop-color="#283376"/>
<stop offset="1" stop-color="#1C67A6"/>
</linearGradient>
<linearGradient id="paint3_linear_5254_17973" x1="143.727" y1="260.52" x2="148.143" y2="260.52" gradientUnits="userSpaceOnUse">
<stop stop-color="#283376"/>
<stop offset="1" stop-color="#1C67A6"/>
</linearGradient>
<linearGradient id="paint4_linear_5254_17973" x1="223.871" y1="253.503" x2="259.388" y2="253.503" gradientUnits="userSpaceOnUse">
<stop stop-color="#283376"/>
<stop offset="1" stop-color="#1C67A6"/>
</linearGradient>
<linearGradient id="paint5_linear_5254_17973" x1="234.638" y1="264.553" x2="248.622" y2="264.553" gradientUnits="userSpaceOnUse">
<stop stop-color="#283376"/>
<stop offset="1" stop-color="#1C67A6"/>
</linearGradient>
<linearGradient id="paint6_linear_5254_17973" x1="314.535" y1="255.187" x2="351.335" y2="255.187" gradientUnits="userSpaceOnUse">
<stop stop-color="#283376"/>
<stop offset="1" stop-color="#1C67A6"/>
</linearGradient>
<clipPath id="clip0_5254_17973">
<rect width="72" height="48.3158" fill="white" transform="translate(164.332 55.9622)"/>
</clipPath>
</defs>
</svg>
