<svg width="400" height="335" viewBox="0 0 400 335" fill="none" xmlns="http://www.w3.org/2000/svg">
<rect x="0.333984" y="0.620117" width="399.333" height="334" rx="4" fill="white"/>
<rect x="0.333984" y="0.620117" width="399.333" height="206" rx="4" fill="#EDF2F7"/>
<g clip-path="url(#clip0_5254_18011)">
<path fill-rule="evenodd" clip-rule="evenodd" d="M214.744 82.3708C221.203 82.3708 226.441 87.608 226.441 94.0674C226.441 100.527 221.203 105.764 214.744 105.764C208.285 105.764 203.047 100.527 203.047 94.0674C203.047 87.608 208.285 82.3708 214.744 82.3708ZM209.175 96.0642C208.857 95.7586 208.698 95.3541 208.689 94.9496C208.68 94.5408 208.827 94.1319 209.132 93.8135C209.438 93.4993 209.838 93.3358 210.247 93.3272C210.656 93.3186 211.065 93.4649 211.383 93.7704L213.436 95.7199L218.195 89.4886C218.208 89.4671 218.23 89.4541 218.247 89.4369C219.796 88.0986 221.87 90.4224 220.364 91.8081L214.516 99.0765C214.503 99.0894 214.49 99.1066 214.477 99.1153C214.172 99.3821 213.784 99.5155 213.401 99.5069C213.014 99.4983 212.627 99.3519 212.325 99.0636L209.175 96.0642ZM181.173 65.6607C184.659 66.8269 189.513 67.5456 194.905 67.5456C200.297 67.5456 205.152 66.8269 208.637 65.6607C211.697 64.6408 213.591 63.4014 213.591 62.1922C213.591 60.9829 211.697 59.7436 208.637 58.7237C205.152 57.5618 200.297 56.8388 194.905 56.8388C189.513 56.8388 184.659 57.5574 181.173 58.7237C174.679 60.8926 174.499 63.4359 181.173 65.6607ZM176.246 74.7796C176.487 75.9071 178.324 77.0432 181.173 77.9942C184.659 79.1604 189.513 79.8791 194.905 79.8791C200.297 79.8791 205.152 79.1604 208.637 77.9942C211.697 76.9743 213.591 75.735 213.591 74.5257H213.604V66.2202C212.515 66.9647 211.116 67.6231 209.477 68.1696C205.72 69.4219 200.564 70.2008 194.905 70.2008C189.242 70.2008 184.091 69.4262 180.334 68.1696C178.712 67.6274 177.33 66.9819 176.25 66.246V74.7796H176.246ZM200.801 94.0071C198.929 94.1965 196.949 94.2955 194.905 94.2955C189.242 94.2955 184.091 93.5208 180.334 92.2643C178.712 91.722 177.33 91.0765 176.25 90.3406V98.2976C176.491 99.4251 178.329 100.561 181.178 101.512C184.663 102.674 189.518 103.397 194.91 103.397C198.146 103.397 201.184 103.139 203.852 102.678C204.523 103.513 205.285 104.271 206.129 104.933C202.888 105.643 199.032 106.052 194.91 106.052C189.246 106.052 184.095 105.278 180.338 104.021C178.359 103.358 173.595 101.189 173.595 98.5902C173.595 98.2847 173.595 98.0308 173.595 97.7382C173.586 85.8952 173.561 74.0437 173.561 62.1922C173.561 59.7134 176.147 57.6091 180.33 56.2105C184.087 54.9582 189.242 54.1836 194.905 54.1836C200.569 54.1836 205.72 54.9582 209.477 56.2148C213.285 57.4843 215.768 59.3434 216.186 61.5381C216.237 61.6758 216.263 61.8264 216.263 61.9856V80.2191C215.747 80.1588 215.222 80.1287 214.688 80.1287C214.322 80.1287 213.965 80.1416 213.608 80.1717V78.5623C212.519 79.3068 211.12 79.9652 209.481 80.5117C205.724 81.764 200.569 82.5429 194.91 82.5429C189.246 82.5429 184.095 81.7683 180.338 80.5117C178.716 79.9695 177.335 79.324 176.254 78.5881V86.5451C176.495 87.6725 178.333 88.8086 181.182 89.7597C184.668 90.9216 189.522 91.6446 194.914 91.6446C197.07 91.6446 199.14 91.5284 201.072 91.3175C200.891 92.1825 200.801 93.0862 200.801 94.0071Z" fill="#002680"/>
</g>
<path d="M59.9113 133.493C61.2313 133.493 62.3893 133.751 63.3853 134.267C64.3933 134.783 65.1673 135.521 65.7073 136.481C66.2593 137.429 66.5353 138.533 66.5353 139.793C66.5353 141.053 66.2593 142.157 65.7073 143.105C65.1673 144.041 64.3933 144.767 63.3853 145.283C62.3893 145.799 61.2313 146.057 59.9113 146.057H55.5193V133.493H59.9113ZM59.8213 143.915C61.1413 143.915 62.1613 143.555 62.8813 142.835C63.6013 142.115 63.9613 141.101 63.9613 139.793C63.9613 138.485 63.6013 137.465 62.8813 136.733C62.1613 135.989 61.1413 135.617 59.8213 135.617H58.0393V143.915H59.8213ZM67.7737 141.035C67.7737 140.027 67.9717 139.133 68.3677 138.353C68.7757 137.573 69.3217 136.973 70.0057 136.553C70.7017 136.133 71.4757 135.923 72.3277 135.923C73.0717 135.923 73.7197 136.073 74.2717 136.373C74.8357 136.673 75.2857 137.051 75.6217 137.507V136.085H78.1597V146.057H75.6217V144.599C75.2977 145.067 74.8477 145.457 74.2717 145.769C73.7077 146.069 73.0537 146.219 72.3097 146.219C71.4697 146.219 70.7017 146.003 70.0057 145.571C69.3217 145.139 68.7757 144.533 68.3677 143.753C67.9717 142.961 67.7737 142.055 67.7737 141.035ZM75.6217 141.071C75.6217 140.459 75.5017 139.937 75.2617 139.505C75.0217 139.061 74.6977 138.725 74.2897 138.497C73.8817 138.257 73.4437 138.137 72.9757 138.137C72.5077 138.137 72.0757 138.251 71.6797 138.479C71.2837 138.707 70.9597 139.043 70.7077 139.487C70.4677 139.919 70.3477 140.435 70.3477 141.035C70.3477 141.635 70.4677 142.163 70.7077 142.619C70.9597 143.063 71.2837 143.405 71.6797 143.645C72.0877 143.885 72.5197 144.005 72.9757 144.005C73.4437 144.005 73.8817 143.891 74.2897 143.663C74.6977 143.423 75.0217 143.087 75.2617 142.655C75.5017 142.211 75.6217 141.683 75.6217 141.071ZM83.5549 138.155V142.979C83.5549 143.315 83.6329 143.561 83.7889 143.717C83.9569 143.861 84.2329 143.933 84.6169 143.933H85.7869V146.057H84.2029C82.0789 146.057 81.0169 145.025 81.0169 142.961V138.155H79.8289V136.085H81.0169V133.619H83.5549V136.085H85.7869V138.155H83.5549ZM86.9514 141.035C86.9514 140.027 87.1494 139.133 87.5454 138.353C87.9534 137.573 88.4994 136.973 89.1834 136.553C89.8794 136.133 90.6534 135.923 91.5054 135.923C92.2494 135.923 92.8974 136.073 93.4494 136.373C94.0134 136.673 94.4634 137.051 94.7994 137.507V136.085H97.3374V146.057H94.7994V144.599C94.4754 145.067 94.0254 145.457 93.4494 145.769C92.8854 146.069 92.2314 146.219 91.4874 146.219C90.6474 146.219 89.8794 146.003 89.1834 145.571C88.4994 145.139 87.9534 144.533 87.5454 143.753C87.1494 142.961 86.9514 142.055 86.9514 141.035ZM94.7994 141.071C94.7994 140.459 94.6794 139.937 94.4394 139.505C94.1994 139.061 93.8754 138.725 93.4674 138.497C93.0594 138.257 92.6214 138.137 92.1534 138.137C91.6854 138.137 91.2534 138.251 90.8574 138.479C90.4614 138.707 90.1374 139.043 89.8854 139.487C89.6454 139.919 89.5254 140.435 89.5254 141.035C89.5254 141.635 89.6454 142.163 89.8854 142.619C90.1374 143.063 90.4614 143.405 90.8574 143.645C91.2654 143.885 91.6974 144.005 92.1534 144.005C92.6214 144.005 93.0594 143.891 93.4674 143.663C93.8754 143.423 94.1994 143.087 94.4394 142.655C94.6794 142.211 94.7994 141.683 94.7994 141.071ZM102.319 137.543C102.643 137.063 103.087 136.673 103.651 136.373C104.227 136.073 104.881 135.923 105.613 135.923C106.465 135.923 107.233 136.133 107.917 136.553C108.613 136.973 109.159 137.573 109.555 138.353C109.963 139.121 110.167 140.015 110.167 141.035C110.167 142.055 109.963 142.961 109.555 143.753C109.159 144.533 108.613 145.139 107.917 145.571C107.233 146.003 106.465 146.219 105.613 146.219C104.869 146.219 104.215 146.075 103.651 145.787C103.099 145.487 102.655 145.103 102.319 144.635V146.057H99.7986V132.737H102.319V137.543ZM107.593 141.035C107.593 140.435 107.467 139.919 107.215 139.487C106.975 139.043 106.651 138.707 106.243 138.479C105.847 138.251 105.415 138.137 104.947 138.137C104.491 138.137 104.059 138.257 103.651 138.497C103.255 138.725 102.931 139.061 102.679 139.505C102.439 139.949 102.319 140.471 102.319 141.071C102.319 141.671 102.439 142.193 102.679 142.637C102.931 143.081 103.255 143.423 103.651 143.663C104.059 143.891 104.491 144.005 104.947 144.005C105.415 144.005 105.847 143.885 106.243 143.645C106.651 143.405 106.975 143.063 107.215 142.619C107.467 142.175 107.593 141.647 107.593 141.035ZM111.35 141.035C111.35 140.027 111.548 139.133 111.944 138.353C112.352 137.573 112.898 136.973 113.582 136.553C114.278 136.133 115.052 135.923 115.904 135.923C116.648 135.923 117.296 136.073 117.848 136.373C118.412 136.673 118.862 137.051 119.198 137.507V136.085H121.736V146.057H119.198V144.599C118.874 145.067 118.424 145.457 117.848 145.769C117.284 146.069 116.63 146.219 115.886 146.219C115.046 146.219 114.278 146.003 113.582 145.571C112.898 145.139 112.352 144.533 111.944 143.753C111.548 142.961 111.35 142.055 111.35 141.035ZM119.198 141.071C119.198 140.459 119.078 139.937 118.838 139.505C118.598 139.061 118.274 138.725 117.866 138.497C117.458 138.257 117.02 138.137 116.552 138.137C116.084 138.137 115.652 138.251 115.256 138.479C114.86 138.707 114.536 139.043 114.284 139.487C114.044 139.919 113.924 140.435 113.924 141.035C113.924 141.635 114.044 142.163 114.284 142.619C114.536 143.063 114.86 143.405 115.256 143.645C115.664 143.885 116.096 144.005 116.552 144.005C117.02 144.005 117.458 143.891 117.866 143.663C118.274 143.423 118.598 143.087 118.838 142.655C119.078 142.211 119.198 141.683 119.198 141.071ZM128.013 146.219C127.197 146.219 126.465 146.075 125.817 145.787C125.169 145.487 124.653 145.085 124.269 144.581C123.897 144.077 123.693 143.519 123.657 142.907H126.195C126.243 143.291 126.429 143.609 126.753 143.861C127.089 144.113 127.503 144.239 127.995 144.239C128.475 144.239 128.847 144.143 129.111 143.951C129.387 143.759 129.525 143.513 129.525 143.213C129.525 142.889 129.357 142.649 129.021 142.493C128.697 142.325 128.175 142.145 127.455 141.953C126.711 141.773 126.099 141.587 125.619 141.395C125.151 141.203 124.743 140.909 124.395 140.513C124.059 140.117 123.891 139.583 123.891 138.911C123.891 138.359 124.047 137.855 124.359 137.399C124.683 136.943 125.139 136.583 125.727 136.319C126.327 136.055 127.029 135.923 127.833 135.923C129.021 135.923 129.969 136.223 130.677 136.823C131.385 137.411 131.775 138.209 131.847 139.217H129.435C129.399 138.821 129.231 138.509 128.931 138.281C128.643 138.041 128.253 137.921 127.761 137.921C127.305 137.921 126.951 138.005 126.699 138.173C126.459 138.341 126.339 138.575 126.339 138.875C126.339 139.211 126.507 139.469 126.843 139.649C127.179 139.817 127.701 139.991 128.409 140.171C129.129 140.351 129.723 140.537 130.191 140.729C130.659 140.921 131.061 141.221 131.397 141.629C131.745 142.025 131.925 142.553 131.937 143.213C131.937 143.789 131.775 144.305 131.451 144.761C131.139 145.217 130.683 145.577 130.083 145.841C129.495 146.093 128.805 146.219 128.013 146.219ZM143.276 140.855C143.276 141.215 143.252 141.539 143.204 141.827H135.914C135.974 142.547 136.226 143.111 136.67 143.519C137.114 143.927 137.66 144.131 138.308 144.131C139.244 144.131 139.91 143.729 140.306 142.925H143.024C142.736 143.885 142.184 144.677 141.368 145.301C140.552 145.913 139.55 146.219 138.362 146.219C137.402 146.219 136.538 146.009 135.77 145.589C135.014 145.157 134.42 144.551 133.988 143.771C133.568 142.991 133.358 142.091 133.358 141.071C133.358 140.039 133.568 139.133 133.988 138.353C134.408 137.573 134.996 136.973 135.752 136.553C136.508 136.133 137.378 135.923 138.362 135.923C139.31 135.923 140.156 136.127 140.9 136.535C141.656 136.943 142.238 137.525 142.646 138.281C143.066 139.025 143.276 139.883 143.276 140.855ZM140.666 140.135C140.654 139.487 140.42 138.971 139.964 138.587C139.508 138.191 138.95 137.993 138.29 137.993C137.666 137.993 137.138 138.185 136.706 138.569C136.286 138.941 136.028 139.463 135.932 140.135H140.666ZM163.102 133.493V146.057H160.582V137.885L157.216 146.057H155.308L151.924 137.885V146.057H149.404V133.493H152.266L156.262 142.835L160.258 133.493H163.102ZM164.946 141.035C164.946 140.027 165.144 139.133 165.54 138.353C165.948 137.573 166.494 136.973 167.178 136.553C167.874 136.133 168.648 135.923 169.5 135.923C170.244 135.923 170.892 136.073 171.444 136.373C172.008 136.673 172.458 137.051 172.794 137.507V136.085H175.332V146.057H172.794V144.599C172.47 145.067 172.02 145.457 171.444 145.769C170.88 146.069 170.226 146.219 169.482 146.219C168.642 146.219 167.874 146.003 167.178 145.571C166.494 145.139 165.948 144.533 165.54 143.753C165.144 142.961 164.946 142.055 164.946 141.035ZM172.794 141.071C172.794 140.459 172.674 139.937 172.434 139.505C172.194 139.061 171.87 138.725 171.462 138.497C171.054 138.257 170.616 138.137 170.148 138.137C169.68 138.137 169.248 138.251 168.852 138.479C168.456 138.707 168.132 139.043 167.88 139.487C167.64 139.919 167.52 140.435 167.52 141.035C167.52 141.635 167.64 142.163 167.88 142.619C168.132 143.063 168.456 143.405 168.852 143.645C169.26 143.885 169.692 144.005 170.148 144.005C170.616 144.005 171.054 143.891 171.462 143.663C171.87 143.423 172.194 143.087 172.434 142.655C172.674 142.211 172.794 141.683 172.794 141.071ZM183.319 135.941C184.507 135.941 185.467 136.319 186.199 137.075C186.931 137.819 187.297 138.863 187.297 140.207V146.057H184.777V140.549C184.777 139.757 184.579 139.151 184.183 138.731C183.787 138.299 183.247 138.083 182.563 138.083C181.867 138.083 181.315 138.299 180.907 138.731C180.511 139.151 180.313 139.757 180.313 140.549V146.057H177.793V136.085H180.313V137.327C180.649 136.895 181.075 136.559 181.591 136.319C182.119 136.067 182.695 135.941 183.319 135.941ZM189.045 141.035C189.045 140.027 189.243 139.133 189.639 138.353C190.047 137.573 190.593 136.973 191.277 136.553C191.973 136.133 192.747 135.923 193.599 135.923C194.343 135.923 194.991 136.073 195.543 136.373C196.107 136.673 196.557 137.051 196.893 137.507V136.085H199.431V146.057H196.893V144.599C196.569 145.067 196.119 145.457 195.543 145.769C194.979 146.069 194.325 146.219 193.581 146.219C192.741 146.219 191.973 146.003 191.277 145.571C190.593 145.139 190.047 144.533 189.639 143.753C189.243 142.961 189.045 142.055 189.045 141.035ZM196.893 141.071C196.893 140.459 196.773 139.937 196.533 139.505C196.293 139.061 195.969 138.725 195.561 138.497C195.153 138.257 194.715 138.137 194.247 138.137C193.779 138.137 193.347 138.251 192.951 138.479C192.555 138.707 192.231 139.043 191.979 139.487C191.739 139.919 191.619 140.435 191.619 141.035C191.619 141.635 191.739 142.163 191.979 142.619C192.231 143.063 192.555 143.405 192.951 143.645C193.359 143.885 193.791 144.005 194.247 144.005C194.715 144.005 195.153 143.891 195.561 143.663C195.969 143.423 196.293 143.087 196.533 142.655C196.773 142.211 196.893 141.683 196.893 141.071ZM205.798 135.923C206.542 135.923 207.196 136.073 207.76 136.373C208.324 136.661 208.768 137.039 209.092 137.507V136.085H211.63V146.129C211.63 147.053 211.444 147.875 211.072 148.595C210.7 149.327 210.142 149.903 209.398 150.323C208.654 150.755 207.754 150.971 206.698 150.971C205.282 150.971 204.118 150.641 203.206 149.981C202.306 149.321 201.796 148.421 201.676 147.281H204.178C204.31 147.737 204.592 148.097 205.024 148.361C205.468 148.637 206.002 148.775 206.626 148.775C207.358 148.775 207.952 148.553 208.408 148.109C208.864 147.677 209.092 147.017 209.092 146.129V144.581C208.768 145.049 208.318 145.439 207.742 145.751C207.178 146.063 206.53 146.219 205.798 146.219C204.958 146.219 204.19 146.003 203.494 145.571C202.798 145.139 202.246 144.533 201.838 143.753C201.442 142.961 201.244 142.055 201.244 141.035C201.244 140.027 201.442 139.133 201.838 138.353C202.246 137.573 202.792 136.973 203.476 136.553C204.172 136.133 204.946 135.923 205.798 135.923ZM209.092 141.071C209.092 140.459 208.972 139.937 208.732 139.505C208.492 139.061 208.168 138.725 207.76 138.497C207.352 138.257 206.914 138.137 206.446 138.137C205.978 138.137 205.546 138.251 205.15 138.479C204.754 138.707 204.43 139.043 204.178 139.487C203.938 139.919 203.818 140.435 203.818 141.035C203.818 141.635 203.938 142.163 204.178 142.619C204.43 143.063 204.754 143.405 205.15 143.645C205.558 143.885 205.99 144.005 206.446 144.005C206.914 144.005 207.352 143.891 207.76 143.663C208.168 143.423 208.492 143.087 208.732 142.655C208.972 142.211 209.092 141.683 209.092 141.071ZM223.362 140.855C223.362 141.215 223.338 141.539 223.29 141.827H216C216.06 142.547 216.312 143.111 216.756 143.519C217.2 143.927 217.746 144.131 218.394 144.131C219.33 144.131 219.996 143.729 220.392 142.925H223.11C222.822 143.885 222.27 144.677 221.454 145.301C220.638 145.913 219.636 146.219 218.448 146.219C217.488 146.219 216.624 146.009 215.856 145.589C215.1 145.157 214.506 144.551 214.074 143.771C213.654 142.991 213.444 142.091 213.444 141.071C213.444 140.039 213.654 139.133 214.074 138.353C214.494 137.573 215.082 136.973 215.838 136.553C216.594 136.133 217.464 135.923 218.448 135.923C219.396 135.923 220.242 136.127 220.986 136.535C221.742 136.943 222.324 137.525 222.732 138.281C223.152 139.025 223.362 139.883 223.362 140.855ZM220.752 140.135C220.74 139.487 220.506 138.971 220.05 138.587C219.594 138.191 219.036 137.993 218.376 137.993C217.752 137.993 217.224 138.185 216.792 138.569C216.372 138.941 216.114 139.463 216.018 140.135H220.752ZM237.585 135.941C238.809 135.941 239.793 136.319 240.537 137.075C241.293 137.819 241.671 138.863 241.671 140.207V146.057H239.151V140.549C239.151 139.769 238.953 139.175 238.557 138.767C238.161 138.347 237.621 138.137 236.937 138.137C236.253 138.137 235.707 138.347 235.299 138.767C234.903 139.175 234.705 139.769 234.705 140.549V146.057H232.185V140.549C232.185 139.769 231.987 139.175 231.591 138.767C231.195 138.347 230.655 138.137 229.971 138.137C229.275 138.137 228.723 138.347 228.315 138.767C227.919 139.175 227.721 139.769 227.721 140.549V146.057H225.201V136.085H227.721V137.291C228.045 136.871 228.459 136.541 228.963 136.301C229.479 136.061 230.043 135.941 230.655 135.941C231.435 135.941 232.131 136.109 232.743 136.445C233.355 136.769 233.829 137.237 234.165 137.849C234.489 137.273 234.957 136.811 235.569 136.463C236.193 136.115 236.865 135.941 237.585 135.941ZM253.332 140.855C253.332 141.215 253.308 141.539 253.26 141.827H245.97C246.03 142.547 246.282 143.111 246.726 143.519C247.17 143.927 247.716 144.131 248.364 144.131C249.3 144.131 249.966 143.729 250.362 142.925H253.08C252.792 143.885 252.24 144.677 251.424 145.301C250.608 145.913 249.606 146.219 248.418 146.219C247.458 146.219 246.594 146.009 245.826 145.589C245.07 145.157 244.476 144.551 244.044 143.771C243.624 142.991 243.414 142.091 243.414 141.071C243.414 140.039 243.624 139.133 244.044 138.353C244.464 137.573 245.052 136.973 245.808 136.553C246.564 136.133 247.434 135.923 248.418 135.923C249.366 135.923 250.212 136.127 250.956 136.535C251.712 136.943 252.294 137.525 252.702 138.281C253.122 139.025 253.332 139.883 253.332 140.855ZM250.722 140.135C250.71 139.487 250.476 138.971 250.02 138.587C249.564 138.191 249.006 137.993 248.346 137.993C247.722 137.993 247.194 138.185 246.762 138.569C246.342 138.941 246.084 139.463 245.988 140.135H250.722ZM260.698 135.941C261.886 135.941 262.846 136.319 263.578 137.075C264.31 137.819 264.676 138.863 264.676 140.207V146.057H262.156V140.549C262.156 139.757 261.958 139.151 261.562 138.731C261.166 138.299 260.626 138.083 259.942 138.083C259.246 138.083 258.694 138.299 258.286 138.731C257.89 139.151 257.692 139.757 257.692 140.549V146.057H255.172V136.085H257.692V137.327C258.028 136.895 258.454 136.559 258.97 136.319C259.498 136.067 260.074 135.941 260.698 135.941ZM270.006 138.155V142.979C270.006 143.315 270.084 143.561 270.24 143.717C270.408 143.861 270.684 143.933 271.068 143.933H272.238V146.057H270.654C268.53 146.057 267.468 145.025 267.468 142.961V138.155H266.28V136.085H267.468V133.619H270.006V136.085H272.238V138.155H270.006ZM282.678 146.183C281.802 146.183 281.01 146.033 280.302 145.733C279.606 145.433 279.054 145.001 278.646 144.437C278.238 143.873 278.028 143.207 278.016 142.439H280.716C280.752 142.955 280.932 143.363 281.256 143.663C281.592 143.963 282.048 144.113 282.624 144.113C283.212 144.113 283.674 143.975 284.01 143.699C284.346 143.411 284.514 143.039 284.514 142.583C284.514 142.211 284.4 141.905 284.172 141.665C283.944 141.425 283.656 141.239 283.308 141.107C282.972 140.963 282.504 140.807 281.904 140.639C281.088 140.399 280.422 140.165 279.906 139.937C279.402 139.697 278.964 139.343 278.592 138.875C278.232 138.395 278.052 137.759 278.052 136.967C278.052 136.223 278.238 135.575 278.61 135.023C278.982 134.471 279.504 134.051 280.176 133.763C280.848 133.463 281.616 133.313 282.48 133.313C283.776 133.313 284.826 133.631 285.63 134.267C286.446 134.891 286.896 135.767 286.98 136.895H284.208C284.184 136.463 283.998 136.109 283.65 135.833C283.314 135.545 282.864 135.401 282.3 135.401C281.808 135.401 281.412 135.527 281.112 135.779C280.824 136.031 280.68 136.397 280.68 136.877C280.68 137.213 280.788 137.495 281.004 137.723C281.232 137.939 281.508 138.119 281.832 138.263C282.168 138.395 282.636 138.551 283.236 138.731C284.052 138.971 284.718 139.211 285.234 139.451C285.75 139.691 286.194 140.051 286.566 140.531C286.938 141.011 287.124 141.641 287.124 142.421C287.124 143.093 286.95 143.717 286.602 144.293C286.254 144.869 285.744 145.331 285.072 145.679C284.4 146.015 283.602 146.183 282.678 146.183ZM298.848 136.085L292.674 150.773H289.992L292.152 145.805L288.156 136.085H290.982L293.556 143.051L296.166 136.085H298.848ZM304.023 146.219C303.207 146.219 302.475 146.075 301.827 145.787C301.179 145.487 300.663 145.085 300.279 144.581C299.907 144.077 299.703 143.519 299.667 142.907H302.205C302.253 143.291 302.439 143.609 302.763 143.861C303.099 144.113 303.513 144.239 304.005 144.239C304.485 144.239 304.857 144.143 305.121 143.951C305.397 143.759 305.535 143.513 305.535 143.213C305.535 142.889 305.367 142.649 305.031 142.493C304.707 142.325 304.185 142.145 303.465 141.953C302.721 141.773 302.109 141.587 301.629 141.395C301.161 141.203 300.753 140.909 300.405 140.513C300.069 140.117 299.901 139.583 299.901 138.911C299.901 138.359 300.057 137.855 300.369 137.399C300.693 136.943 301.149 136.583 301.737 136.319C302.337 136.055 303.039 135.923 303.843 135.923C305.031 135.923 305.979 136.223 306.687 136.823C307.395 137.411 307.785 138.209 307.857 139.217H305.445C305.409 138.821 305.241 138.509 304.941 138.281C304.653 138.041 304.263 137.921 303.771 137.921C303.315 137.921 302.961 138.005 302.709 138.173C302.469 138.341 302.349 138.575 302.349 138.875C302.349 139.211 302.517 139.469 302.853 139.649C303.189 139.817 303.711 139.991 304.419 140.171C305.139 140.351 305.733 140.537 306.201 140.729C306.669 140.921 307.071 141.221 307.407 141.629C307.755 142.025 307.935 142.553 307.947 143.213C307.947 143.789 307.785 144.305 307.461 144.761C307.149 145.217 306.693 145.577 306.093 145.841C305.505 146.093 304.815 146.219 304.023 146.219ZM312.949 138.155V142.979C312.949 143.315 313.027 143.561 313.183 143.717C313.351 143.861 313.627 143.933 314.011 143.933H315.181V146.057H313.597C311.473 146.057 310.411 145.025 310.411 142.961V138.155H309.223V136.085H310.411V133.619H312.949V136.085H315.181V138.155H312.949ZM326.264 140.855C326.264 141.215 326.24 141.539 326.192 141.827H318.902C318.962 142.547 319.214 143.111 319.658 143.519C320.102 143.927 320.648 144.131 321.296 144.131C322.232 144.131 322.898 143.729 323.294 142.925H326.012C325.724 143.885 325.172 144.677 324.356 145.301C323.54 145.913 322.538 146.219 321.35 146.219C320.39 146.219 319.526 146.009 318.758 145.589C318.002 145.157 317.408 144.551 316.976 143.771C316.556 142.991 316.346 142.091 316.346 141.071C316.346 140.039 316.556 139.133 316.976 138.353C317.396 137.573 317.984 136.973 318.74 136.553C319.496 136.133 320.366 135.923 321.35 135.923C322.298 135.923 323.144 136.127 323.888 136.535C324.644 136.943 325.226 137.525 325.634 138.281C326.054 139.025 326.264 139.883 326.264 140.855ZM323.654 140.135C323.642 139.487 323.408 138.971 322.952 138.587C322.496 138.191 321.938 137.993 321.278 137.993C320.654 137.993 320.126 138.185 319.694 138.569C319.274 138.941 319.016 139.463 318.92 140.135H323.654ZM340.487 135.941C341.711 135.941 342.695 136.319 343.439 137.075C344.195 137.819 344.573 138.863 344.573 140.207V146.057H342.053V140.549C342.053 139.769 341.855 139.175 341.459 138.767C341.063 138.347 340.523 138.137 339.839 138.137C339.155 138.137 338.609 138.347 338.201 138.767C337.805 139.175 337.607 139.769 337.607 140.549V146.057H335.087V140.549C335.087 139.769 334.889 139.175 334.493 138.767C334.097 138.347 333.557 138.137 332.873 138.137C332.177 138.137 331.625 138.347 331.217 138.767C330.821 139.175 330.623 139.769 330.623 140.549V146.057H328.103V136.085H330.623V137.291C330.947 136.871 331.361 136.541 331.865 136.301C332.381 136.061 332.945 135.941 333.557 135.941C334.337 135.941 335.033 136.109 335.645 136.445C336.257 136.769 336.731 137.237 337.067 137.849C337.391 137.273 337.859 136.811 338.471 136.463C339.095 136.115 339.767 135.941 340.487 135.941Z" fill="#002680"/>
<rect x="0.333984" y="216.62" width="399.333" height="118" rx="4" fill="#EDF2F7"/>
<path d="M50.385 242.687H53.0017C53.1017 242.687 53.2183 242.537 53.2683 242.42C53.4887 241.934 53.8163 241.504 54.2265 241.163C54.6367 240.822 55.119 240.578 55.637 240.449C56.155 240.321 56.6954 240.312 57.2175 240.422C57.7396 240.533 58.23 240.76 58.6517 241.087C59.203 241.516 59.6194 242.095 59.8517 242.753C59.8829 242.878 59.9604 242.985 60.0683 243.053C61.3517 243.587 62.6517 244.087 63.935 244.603C64.1816 244.111 64.5394 243.682 64.9803 243.352C65.4212 243.021 65.9329 242.798 66.4751 242.699C67.0172 242.601 67.5748 242.63 68.1038 242.784C68.6328 242.938 69.1186 243.214 69.5227 243.588C69.9269 243.963 70.2383 244.426 70.4324 244.942C70.6264 245.457 70.6978 246.011 70.6407 246.559C70.5837 247.107 70.3999 247.635 70.1038 248.099C69.8078 248.564 69.4076 248.954 68.935 249.237C69.3017 249.77 69.6517 250.32 70.035 250.903C70.126 251.007 70.2492 251.078 70.385 251.103C71.1426 251.316 71.8075 251.776 72.2744 252.409C72.7413 253.042 72.9834 253.813 72.9623 254.6C72.9413 255.386 72.6583 256.144 72.1582 256.751C71.6581 257.359 70.9696 257.782 70.2017 257.953C69.4225 258.122 68.6091 258.023 67.8938 257.671C67.1784 257.319 66.6031 256.735 66.2613 256.015C65.9195 255.295 65.8313 254.48 66.0111 253.703C66.1909 252.927 66.6281 252.234 67.2517 251.737L67.585 251.503C67.2345 250.926 66.8505 250.369 66.435 249.837C66.2517 249.62 65.8683 249.587 65.5683 249.47C65.5683 249.47 65.4517 249.57 65.4017 249.62L60.1017 256.003C60.0057 256.12 59.9373 256.257 59.9017 256.403C59.7364 257.132 59.3421 257.789 58.7766 258.278C58.211 258.766 57.5039 259.061 56.7588 259.119C56.0136 259.177 55.2695 258.994 54.6355 258.599C54.0014 258.203 53.5106 257.615 53.235 256.92C53.207 256.817 53.1495 256.724 53.0696 256.653C52.9897 256.582 52.8908 256.536 52.785 256.52L47.0517 254.853H46.7683L46.6017 255.137C46.2768 255.67 45.8163 256.108 45.2672 256.405C44.7181 256.703 44.1 256.85 43.4757 256.83C42.8515 256.811 42.2435 256.627 41.7137 256.296C41.1838 255.966 40.7511 255.501 40.4595 254.948C40.1679 254.396 40.028 253.776 40.0538 253.152C40.0797 252.528 40.2705 251.922 40.6067 251.396C40.943 250.87 41.4128 250.442 41.9681 250.157C42.5235 249.871 43.1447 249.738 43.7683 249.77C44.4483 249.798 45.1034 250.033 45.6456 250.445C46.1879 250.856 46.5913 251.423 46.8017 252.07C46.8342 252.163 46.8893 252.247 46.962 252.314C47.0346 252.381 47.1227 252.429 47.2183 252.453L53.0017 254.12C53.2183 254.12 53.3183 254.12 53.4183 253.953C53.5344 253.752 53.6624 253.557 53.8017 253.37L53.635 253.137L48.785 247.303C48.7609 247.26 48.7281 247.221 48.6886 247.191C48.6492 247.16 48.6038 247.138 48.5555 247.125C48.5071 247.113 48.4566 247.11 48.4073 247.118C48.3579 247.126 48.3106 247.144 48.2683 247.17C47.664 247.416 47.0007 247.479 46.3608 247.352C45.7209 247.225 45.1324 246.912 44.6683 246.453C44.164 246.02 43.8009 245.446 43.6257 244.804C43.4504 244.162 43.4711 243.483 43.685 242.853C43.8491 242.217 44.1977 241.643 44.6871 241.204C45.1764 240.765 45.7845 240.481 46.435 240.387C47.2165 240.237 48.0256 240.361 48.7266 240.737C49.4276 241.114 49.9779 241.72 50.285 242.453L50.385 242.687ZM50.385 245.037C50.185 245.253 50.235 245.42 50.385 245.62C52.1295 247.72 53.9072 249.831 55.7183 251.953C55.7703 252.03 55.8446 252.089 55.9311 252.121C56.0175 252.154 56.112 252.16 56.2017 252.137C56.9794 252.053 57.761 252.255 58.4017 252.703C58.6859 252.911 58.9586 253.133 59.2183 253.37L59.5183 253.003L63.7017 248.003C63.7636 247.924 63.8067 247.832 63.8278 247.733C63.8488 247.634 63.8472 247.532 63.8232 247.435C63.7991 247.337 63.7532 247.246 63.6889 247.168C63.6245 247.09 63.5434 247.029 63.4517 246.987L60.6017 245.853L59.6683 245.487C59.3641 245.889 59.0298 246.268 58.6683 246.62C58.2524 246.958 57.7641 247.195 57.2414 247.313C56.7188 247.432 56.1759 247.428 55.6551 247.302C55.1342 247.176 54.6494 246.932 54.2383 246.588C53.8273 246.244 53.501 245.811 53.285 245.32C53.285 245.153 53.1683 245.02 52.935 245.037H50.385Z" fill="url(#paint0_linear_5254_18011)"/>
<path d="M48.2507 262.737C46.4202 262.772 44.5979 262.485 42.8674 261.887C42.4827 261.754 42.1181 261.569 41.784 261.337C40.9507 260.754 40.9174 259.97 41.784 259.42C42.3846 259.046 43.0357 258.76 43.7174 258.57C46.8052 257.778 50.0471 257.813 53.1174 258.67C53.5479 258.799 53.9619 258.978 54.3507 259.204C54.8174 259.454 55.284 259.754 55.3007 260.37C55.2805 260.639 55.1786 260.894 55.0088 261.103C54.8389 261.311 54.6093 261.463 54.3507 261.537C53.6159 261.888 52.8445 262.156 52.0507 262.337C50.8007 262.57 49.5174 262.67 48.2674 262.82L48.2507 262.737Z" fill="url(#paint1_linear_5254_18011)"/>
<path d="M64.7509 262.737C62.9199 262.78 61.0961 262.493 59.3676 261.887C58.9117 261.706 58.4849 261.459 58.1009 261.153C57.9466 261.076 57.817 260.957 57.7264 260.809C57.6358 260.662 57.5879 260.493 57.5879 260.32C57.5879 260.147 57.6358 259.978 57.7264 259.831C57.817 259.684 57.9466 259.565 58.1009 259.487C58.7148 258.977 59.4493 258.632 60.2342 258.487C63.3108 257.695 66.542 257.729 69.6009 258.587C70.194 258.759 70.7564 259.023 71.2676 259.37C72.0676 259.92 72.0509 260.653 71.2676 261.237C70.4659 261.786 69.547 262.14 68.5842 262.27C67.3342 262.47 66.0676 262.587 64.8009 262.737H64.7509Z" fill="url(#paint2_linear_5254_18011)"/>
<path d="M55.3002 265.92C55.3002 266.503 55.3002 267.037 55.3002 267.587C55.2717 267.771 55.1993 267.947 55.0891 268.097C54.9789 268.248 54.8341 268.37 54.6669 268.454C53.9331 268.941 53.1033 269.265 52.2335 269.403C49.321 270.06 46.2906 269.98 43.4169 269.17C42.833 269.003 42.2729 268.763 41.7502 268.454C41.5258 268.332 41.3426 268.147 41.2239 267.922C41.1051 267.696 41.0563 267.44 41.0835 267.187C41.0835 266.787 41.0835 266.387 41.0835 265.937C43.2686 267.061 45.7131 267.584 48.1669 267.453C50.639 267.59 53.1025 267.06 55.3002 265.92Z" fill="url(#paint3_linear_5254_18011)"/>
<path d="M71.8012 265.92C71.8012 266.503 71.8012 267.07 71.8012 267.587C71.7655 267.771 71.6864 267.944 71.5705 268.092C71.4546 268.24 71.3051 268.358 71.1345 268.437C70.3998 268.895 69.5858 269.212 68.7345 269.37C65.8302 270.005 62.8147 269.919 59.9512 269.12C59.3676 268.945 58.8078 268.699 58.2845 268.387C58.0628 268.273 57.8816 268.093 57.7653 267.872C57.6491 267.652 57.6034 267.401 57.6345 267.153C57.6345 266.737 57.6345 266.32 57.6345 265.87C59.8212 267.008 62.2732 267.537 64.7345 267.403C67.1805 267.552 69.6215 267.04 71.8012 265.92Z" fill="url(#paint4_linear_5254_18011)"/>
<path d="M41.1523 262.37C43.3278 263.506 45.7686 264.035 48.219 263.904C50.6874 264.036 53.1459 263.501 55.3357 262.354C55.3458 262.972 55.3124 263.59 55.2357 264.204C55.1357 264.704 54.6357 264.954 54.2023 265.17C53.153 265.67 52.0254 265.986 50.869 266.104C48.5057 266.444 46.0985 266.313 43.7857 265.72C43.2074 265.545 42.6488 265.311 42.119 265.02C41.8303 264.904 41.5883 264.696 41.4314 264.427C41.2745 264.158 41.2115 263.845 41.2523 263.537C41.1857 263.154 41.1523 262.787 41.1523 262.37Z" fill="url(#paint5_linear_5254_18011)"/>
<path d="M57.6666 262.37C59.842 263.506 62.2828 264.035 64.7333 263.904C67.2017 264.036 69.6602 263.501 71.8499 262.354C71.8719 262.973 71.8328 263.592 71.7333 264.204C71.5703 264.571 71.2803 264.867 70.9166 265.037C70.1622 265.408 69.3683 265.694 68.5499 265.887C65.659 266.513 62.6577 266.41 59.8166 265.587C59.2279 265.396 58.6674 265.127 58.1499 264.787C57.9665 264.676 57.8188 264.516 57.7242 264.323C57.6296 264.131 57.5923 263.916 57.6166 263.704C57.6833 263.287 57.6666 262.837 57.6666 262.37Z" fill="url(#paint6_linear_5254_18011)"/>
<path d="M41.1523 269.454C43.3344 270.587 45.7801 271.117 48.2357 270.987C50.6784 271.114 53.1111 270.59 55.2857 269.47C55.334 270.025 55.334 270.582 55.2857 271.137C55.1852 271.456 54.9796 271.733 54.7023 271.92C54.0088 272.402 53.218 272.727 52.3857 272.87C49.4092 273.56 46.3058 273.48 43.369 272.637C42.7822 272.434 42.2224 272.16 41.7023 271.82C41.5203 271.713 41.3732 271.555 41.2786 271.365C41.184 271.176 41.1459 270.964 41.169 270.754C41.169 270.354 41.1523 269.954 41.1523 269.454Z" fill="url(#paint7_linear_5254_18011)"/>
<path d="M57.668 269.437C60.718 271.487 68.7846 271.503 71.7846 269.437C71.8432 270.024 71.8432 270.616 71.7846 271.203C71.7237 271.382 71.6274 271.546 71.5013 271.687C71.3753 271.827 71.2222 271.94 71.0513 272.02C70.3728 272.388 69.6504 272.668 68.9013 272.853C65.9279 273.566 62.8204 273.491 59.8846 272.637C59.2982 272.426 58.7388 272.146 58.218 271.803C58.0462 271.695 57.9083 271.541 57.8198 271.358C57.7314 271.176 57.6961 270.972 57.718 270.77C57.6846 270.37 57.668 269.953 57.668 269.437Z" fill="url(#paint8_linear_5254_18011)"/>
<path d="M41.1231 308.62H39.2991L33.8111 300.316V308.62H31.9871V297.484H33.8111L39.2991 305.772V297.484H41.1231V308.62ZM47.3424 308.764C46.5104 308.764 45.7584 308.577 45.0864 308.204C44.4144 307.82 43.8864 307.287 43.5024 306.604C43.1184 305.911 42.9264 305.111 42.9264 304.204C42.9264 303.308 43.1237 302.513 43.5184 301.82C43.913 301.127 44.4517 300.593 45.1344 300.22C45.817 299.847 46.5797 299.66 47.4224 299.66C48.265 299.66 49.0277 299.847 49.7104 300.22C50.393 300.593 50.9317 301.127 51.3264 301.82C51.721 302.513 51.9184 303.308 51.9184 304.204C51.9184 305.1 51.7157 305.895 51.3104 306.588C50.905 307.281 50.3504 307.82 49.6464 308.204C48.953 308.577 48.185 308.764 47.3424 308.764ZM47.3424 307.18C47.8117 307.18 48.249 307.068 48.6544 306.844C49.0704 306.62 49.4064 306.284 49.6624 305.836C49.9184 305.388 50.0464 304.844 50.0464 304.204C50.0464 303.564 49.9237 303.025 49.6784 302.588C49.433 302.14 49.1077 301.804 48.7024 301.58C48.297 301.356 47.8597 301.244 47.3904 301.244C46.921 301.244 46.4837 301.356 46.0784 301.58C45.6837 301.804 45.369 302.14 45.1344 302.588C44.8997 303.025 44.7824 303.564 44.7824 304.204C44.7824 305.153 45.0224 305.889 45.5024 306.412C45.993 306.924 46.6064 307.18 47.3424 307.18ZM57.3855 308.732C56.6388 308.732 55.9668 308.604 55.3695 308.348C54.7722 308.081 54.3028 307.708 53.9615 307.228C53.6202 306.748 53.4495 306.188 53.4495 305.548H55.4015C55.4442 306.028 55.6308 306.423 55.9615 306.732C56.3028 307.041 56.7775 307.196 57.3855 307.196C58.0148 307.196 58.5055 307.047 58.8575 306.748C59.2095 306.439 59.3855 306.044 59.3855 305.564C59.3855 305.191 59.2735 304.887 59.0495 304.652C58.8362 304.417 58.5642 304.236 58.2335 304.108C57.9135 303.98 57.4655 303.841 56.8895 303.692C56.1642 303.5 55.5722 303.308 55.1135 303.116C54.6655 302.913 54.2815 302.604 53.9615 302.188C53.6415 301.772 53.4815 301.217 53.4815 300.524C53.4815 299.884 53.6415 299.324 53.9615 298.844C54.2815 298.364 54.7295 297.996 55.3055 297.74C55.8815 297.484 56.5482 297.356 57.3055 297.356C58.3828 297.356 59.2628 297.628 59.9455 298.172C60.6388 298.705 61.0228 299.441 61.0975 300.38H59.0815C59.0495 299.975 58.8575 299.628 58.5055 299.34C58.1535 299.052 57.6895 298.908 57.1135 298.908C56.5908 298.908 56.1642 299.041 55.8335 299.308C55.5028 299.575 55.3375 299.959 55.3375 300.46C55.3375 300.801 55.4388 301.084 55.6415 301.308C55.8548 301.521 56.1215 301.692 56.4415 301.82C56.7615 301.948 57.1988 302.087 57.7535 302.236C58.4895 302.439 59.0868 302.641 59.5455 302.844C60.0148 303.047 60.4095 303.361 60.7295 303.788C61.0602 304.204 61.2255 304.764 61.2255 305.468C61.2255 306.033 61.0708 306.567 60.7615 307.068C60.4628 307.569 60.0202 307.975 59.4335 308.284C58.8575 308.583 58.1748 308.732 57.3855 308.732ZM71.9857 310.636L70.0337 308.524C69.5537 308.663 69.0257 308.732 68.4497 308.732C67.4151 308.732 66.4604 308.492 65.5857 308.012C64.7217 307.521 64.0337 306.844 63.5217 305.98C63.0204 305.105 62.7697 304.124 62.7697 303.036C62.7697 301.948 63.0204 300.972 63.5217 300.108C64.0337 299.244 64.7217 298.572 65.5857 298.092C66.4604 297.601 67.4151 297.356 68.4497 297.356C69.4951 297.356 70.4497 297.601 71.3137 298.092C72.1884 298.572 72.8764 299.244 73.3777 300.108C73.8791 300.972 74.1297 301.948 74.1297 303.036C74.1297 304.06 73.9057 304.988 73.4577 305.82C73.0204 306.641 72.4124 307.303 71.6337 307.804L74.3057 310.636H71.9857ZM64.6417 303.036C64.6417 303.857 64.8017 304.583 65.1217 305.212C65.4524 305.831 65.9057 306.311 66.4817 306.652C67.0577 306.983 67.7137 307.148 68.4497 307.148C69.1857 307.148 69.8417 306.983 70.4177 306.652C70.9937 306.311 71.4417 305.831 71.7617 305.212C72.0924 304.583 72.2577 303.857 72.2577 303.036C72.2577 302.215 72.0924 301.495 71.7617 300.876C71.4417 300.257 70.9937 299.783 70.4177 299.452C69.8417 299.121 69.1857 298.956 68.4497 298.956C67.7137 298.956 67.0577 299.121 66.4817 299.452C65.9057 299.783 65.4524 300.257 65.1217 300.876C64.8017 301.495 64.6417 302.215 64.6417 303.036ZM77.7955 307.148H81.5555V308.62H75.9715V297.5H77.7955V307.148Z" fill="#434343"/>
<path d="M147.033 269.39L145.859 270.43C143.979 271.9 141.63 272.639 139.246 272.51C138.846 272.51 138.499 272.51 138.393 271.923C138.286 271.336 138.526 271.23 138.873 271.016C139.609 270.556 140.321 270.057 141.006 269.523C141.689 268.961 142.205 268.224 142.499 267.39C142.533 267.314 142.551 267.232 142.551 267.15C142.551 267.067 142.533 266.985 142.499 266.91C142.313 266.67 142.153 266.91 141.993 266.91C141.218 267.502 140.296 267.871 139.326 267.976C138.603 268.093 137.862 268.008 137.184 267.731C136.507 267.453 135.919 266.994 135.486 266.403C135.125 265.929 134.812 265.419 134.553 264.883L128.393 251.443C128.083 250.813 127.942 250.113 127.984 249.411C128.026 248.71 128.25 248.032 128.633 247.443C129.182 246.525 129.929 245.742 130.819 245.15C132.051 244.245 133.459 243.608 134.952 243.282C136.445 242.956 137.989 242.947 139.486 243.256C141.058 243.608 142.483 244.437 143.566 245.63L143.753 245.87C144.105 245.628 144.47 245.406 144.846 245.203C145.815 244.691 146.897 244.434 147.993 244.456C150.206 244.456 152.419 244.456 154.606 244.456C156.311 244.345 157.998 244.856 159.353 245.896H159.513C160.367 244.924 161.444 244.174 162.651 243.709C163.859 243.245 165.161 243.08 166.446 243.23C169.021 243.369 171.465 244.407 173.353 246.163C174.27 246.902 174.917 247.924 175.193 249.07C175.323 249.82 175.221 250.592 174.899 251.283C172.793 255.87 170.739 260.456 168.606 265.016C168.298 265.683 167.884 266.295 167.379 266.83C166.844 267.421 166.141 267.834 165.364 268.015C164.588 268.196 163.774 268.136 163.033 267.843C162.429 267.603 161.849 267.308 161.299 266.963C161.139 266.963 160.979 266.67 160.793 266.963C160.753 267.042 160.732 267.128 160.732 267.216C160.732 267.304 160.753 267.391 160.793 267.47C161.155 268.463 161.805 269.326 162.659 269.95C163.219 270.35 163.806 270.723 164.393 271.07C164.575 271.136 164.726 271.269 164.815 271.442C164.904 271.615 164.925 271.816 164.873 272.003C164.873 272.43 164.419 272.536 164.019 272.563C162.634 272.628 161.251 272.4 159.96 271.895C158.669 271.39 157.499 270.618 156.526 269.63L156.206 269.363C156.206 269.923 156.206 270.483 156.206 271.043C156.206 274.163 156.206 277.256 156.206 280.376C156.196 281.288 155.868 282.168 155.279 282.864C154.69 283.56 153.877 284.028 152.979 284.19C152.66 284.216 152.339 284.216 152.019 284.19H147.993C147.037 284.173 146.122 283.8 145.427 283.144C144.731 282.488 144.306 281.596 144.233 280.643C144.153 280.032 144.153 279.414 144.233 278.803C144.32 278.153 144.609 277.546 145.058 277.068C145.508 276.59 146.096 276.264 146.739 276.136C146.979 276.136 147.086 276.003 147.086 275.736C147.086 273.816 147.086 271.896 147.086 269.976C147.113 269.923 147.059 269.63 147.033 269.39ZM142.739 254.936V263.096C142.739 263.576 142.739 264.056 142.739 264.536C142.739 265.443 143.139 265.843 144.046 265.87H145.139C145.988 265.885 146.801 266.211 147.426 266.786C148.05 267.361 148.441 268.145 148.526 268.99C148.641 269.57 148.703 270.159 148.713 270.75V279.016C148.713 279.576 148.446 279.87 147.966 279.896C147.486 279.923 147.246 279.603 147.246 279.016C147.246 278.43 147.246 278.216 147.246 277.79C146.905 277.839 146.587 277.995 146.339 278.234C146.09 278.473 145.923 278.784 145.859 279.123C145.832 279.567 145.832 280.012 145.859 280.456C145.859 281.068 146.094 281.656 146.516 282.098C146.939 282.54 147.515 282.802 148.126 282.83C149.566 282.83 151.033 282.83 152.473 282.83C153.006 282.813 153.518 282.613 153.921 282.263C154.324 281.914 154.594 281.435 154.686 280.91C154.686 280.11 154.686 279.283 154.686 278.403C153.993 278.403 153.299 278.403 152.606 278.403C152.34 278.376 152.094 278.253 151.913 278.056C151.866 277.947 151.842 277.829 151.842 277.71C151.842 277.59 151.866 277.473 151.913 277.363C151.966 277.22 152.066 277.1 152.197 277.023C152.328 276.945 152.482 276.915 152.633 276.936H154.739V275.47H152.579C152.421 275.472 152.266 275.425 152.137 275.334C152.007 275.243 151.91 275.113 151.859 274.963C151.802 274.822 151.795 274.666 151.839 274.521C151.882 274.375 151.974 274.249 152.099 274.163C152.285 274.054 152.497 273.999 152.713 274.003H154.739V272.536H152.579C152.421 272.539 152.266 272.491 152.137 272.4C152.007 272.309 151.91 272.18 151.859 272.03C151.799 271.894 151.789 271.74 151.834 271.598C151.878 271.455 151.972 271.334 152.099 271.256C152.277 271.128 152.493 271.062 152.713 271.07C153.406 271.07 154.073 271.07 154.739 271.07C154.739 270.51 154.739 270.003 154.739 269.496C154.75 268.614 155.089 267.766 155.69 267.12C156.292 266.474 157.113 266.076 157.993 266.003C158.463 265.976 158.935 265.976 159.406 266.003C159.545 266.01 159.684 265.989 159.814 265.942C159.945 265.895 160.065 265.822 160.167 265.727C160.269 265.633 160.351 265.519 160.408 265.392C160.465 265.265 160.496 265.129 160.499 264.99C160.512 264.839 160.512 264.687 160.499 264.536V255.283C160.507 255.168 160.507 255.052 160.499 254.936C160.084 255.099 159.726 255.38 159.47 255.746C159.213 256.111 159.071 256.544 159.059 256.99C159.063 257.095 159.045 257.199 159.006 257.297C158.967 257.394 158.908 257.482 158.832 257.555C158.757 257.628 158.667 257.684 158.568 257.72C158.469 257.756 158.364 257.771 158.259 257.763C158.159 257.753 158.061 257.723 157.972 257.674C157.883 257.626 157.805 257.559 157.743 257.479C157.68 257.4 157.635 257.308 157.609 257.21C157.583 257.112 157.578 257.01 157.593 256.91C157.614 256.127 157.883 255.372 158.363 254.753C158.843 254.135 159.507 253.685 160.259 253.47C160.307 253.467 160.354 253.453 160.397 253.431C160.44 253.409 160.478 253.378 160.508 253.34C160.538 253.303 160.56 253.259 160.572 253.213C160.584 253.166 160.587 253.117 160.579 253.07C160.579 252.35 160.579 251.656 160.579 250.936C160.551 249.602 159.998 248.332 159.039 247.404C158.081 246.475 156.794 245.962 155.459 245.976C152.793 245.976 150.286 245.976 147.699 245.976C146.589 245.989 145.515 246.375 144.649 247.071C143.784 247.768 143.177 248.734 142.926 249.816C142.783 250.841 142.72 251.875 142.739 252.91C142.704 252.986 142.688 253.071 142.693 253.155C142.699 253.24 142.725 253.321 142.77 253.393C142.815 253.465 142.878 253.524 142.951 253.565C143.025 253.606 143.108 253.629 143.193 253.63C143.903 253.86 144.525 254.303 144.973 254.9C145.422 255.497 145.675 256.217 145.699 256.963C145.699 257.523 145.486 257.816 145.033 257.87C144.579 257.923 144.286 257.603 144.233 257.07C144.233 257.07 144.233 256.83 144.233 256.696C144.17 256.294 143.997 255.917 143.734 255.606C143.47 255.296 143.126 255.064 142.739 254.936ZM156.899 267.923C158.014 269.293 159.569 270.235 161.299 270.59C160.312 269.741 159.582 268.632 159.193 267.39C158.794 267.32 158.386 267.331 157.992 267.423C157.598 267.515 157.226 267.685 156.899 267.923ZM144.099 267.363C143.779 268.003 143.539 268.616 143.193 269.176C142.846 269.736 142.366 270.216 141.913 270.776C143.634 270.291 145.168 269.297 146.313 267.923C145.662 267.486 144.88 267.288 144.099 267.363Z" fill="url(#paint9_linear_5254_18011)"/>
<path d="M115.369 300.812C115.369 301.377 115.235 301.911 114.969 302.412C114.702 302.913 114.275 303.324 113.689 303.644C113.102 303.953 112.35 304.108 111.433 304.108H109.417V308.62H107.593V297.5H111.433C112.286 297.5 113.006 297.649 113.593 297.948C114.19 298.236 114.633 298.631 114.921 299.132C115.219 299.633 115.369 300.193 115.369 300.812ZM111.433 302.62C112.126 302.62 112.643 302.465 112.985 302.156C113.326 301.836 113.497 301.388 113.497 300.812C113.497 299.596 112.809 298.988 111.433 298.988H109.417V302.62H111.433ZM120.932 308.764C120.1 308.764 119.348 308.577 118.676 308.204C118.004 307.82 117.476 307.287 117.092 306.604C116.708 305.911 116.516 305.111 116.516 304.204C116.516 303.308 116.714 302.513 117.108 301.82C117.503 301.127 118.042 300.593 118.724 300.22C119.407 299.847 120.17 299.66 121.012 299.66C121.855 299.66 122.618 299.847 123.3 300.22C123.983 300.593 124.522 301.127 124.916 301.82C125.311 302.513 125.508 303.308 125.508 304.204C125.508 305.1 125.306 305.895 124.9 306.588C124.495 307.281 123.94 307.82 123.236 308.204C122.543 308.577 121.775 308.764 120.932 308.764ZM120.932 307.18C121.402 307.18 121.839 307.068 122.244 306.844C122.66 306.62 122.996 306.284 123.252 305.836C123.508 305.388 123.636 304.844 123.636 304.204C123.636 303.564 123.514 303.025 123.268 302.588C123.023 302.14 122.698 301.804 122.292 301.58C121.887 301.356 121.45 301.244 120.98 301.244C120.511 301.244 120.074 301.356 119.668 301.58C119.274 301.804 118.959 302.14 118.724 302.588C118.49 303.025 118.372 303.564 118.372 304.204C118.372 305.153 118.612 305.889 119.092 306.412C119.583 306.924 120.196 307.18 120.932 307.18ZM130.511 308.764C129.818 308.764 129.194 308.641 128.639 308.396C128.095 308.14 127.663 307.799 127.343 307.372C127.023 306.935 126.853 306.449 126.831 305.916H128.719C128.751 306.289 128.927 306.604 129.247 306.86C129.578 307.105 129.989 307.228 130.479 307.228C130.991 307.228 131.386 307.132 131.663 306.94C131.951 306.737 132.095 306.481 132.095 306.172C132.095 305.841 131.935 305.596 131.615 305.436C131.306 305.276 130.81 305.1 130.127 304.908C129.466 304.727 128.927 304.551 128.511 304.38C128.095 304.209 127.733 303.948 127.423 303.596C127.125 303.244 126.975 302.78 126.975 302.204C126.975 301.735 127.114 301.308 127.391 300.924C127.669 300.529 128.063 300.22 128.575 299.996C129.098 299.772 129.695 299.66 130.367 299.66C131.37 299.66 132.175 299.916 132.783 300.428C133.402 300.929 133.733 301.617 133.775 302.492H131.951C131.919 302.097 131.759 301.783 131.471 301.548C131.183 301.313 130.794 301.196 130.303 301.196C129.823 301.196 129.455 301.287 129.199 301.468C128.943 301.649 128.815 301.889 128.815 302.188C128.815 302.423 128.901 302.62 129.071 302.78C129.242 302.94 129.45 303.068 129.695 303.164C129.941 303.249 130.303 303.361 130.783 303.5C131.423 303.671 131.946 303.847 132.351 304.028C132.767 304.199 133.125 304.455 133.423 304.796C133.722 305.137 133.877 305.591 133.887 306.156C133.887 306.657 133.749 307.105 133.471 307.5C133.194 307.895 132.799 308.204 132.287 308.428C131.786 308.652 131.194 308.764 130.511 308.764ZM137.986 301.292V306.172C137.986 306.503 138.061 306.743 138.21 306.892C138.37 307.031 138.637 307.1 139.01 307.1H140.13V308.62H138.69C137.869 308.62 137.24 308.428 136.802 308.044C136.365 307.66 136.146 307.036 136.146 306.172V301.292H135.106V299.804H136.146V297.612H137.986V299.804H140.13V301.292H137.986ZM145.363 299.66C146.046 299.66 146.649 299.799 147.171 300.076C147.705 300.343 148.121 300.679 148.419 301.084V299.804H150.259V308.764C150.259 309.575 150.089 310.295 149.747 310.924C149.406 311.564 148.91 312.065 148.259 312.428C147.619 312.791 146.851 312.972 145.955 312.972C144.761 312.972 143.769 312.689 142.979 312.124C142.19 311.569 141.742 310.812 141.635 309.852H143.443C143.582 310.311 143.875 310.679 144.323 310.956C144.782 311.244 145.326 311.388 145.955 311.388C146.691 311.388 147.283 311.164 147.731 310.716C148.19 310.268 148.419 309.617 148.419 308.764V307.292C148.11 307.708 147.689 308.06 147.155 308.348C146.633 308.625 146.035 308.764 145.363 308.764C144.595 308.764 143.891 308.572 143.251 308.188C142.622 307.793 142.121 307.249 141.747 306.556C141.385 305.852 141.203 305.057 141.203 304.172C141.203 303.287 141.385 302.503 141.747 301.82C142.121 301.137 142.622 300.609 143.251 300.236C143.891 299.852 144.595 299.66 145.363 299.66ZM148.419 304.204C148.419 303.596 148.291 303.068 148.035 302.62C147.79 302.172 147.465 301.831 147.059 301.596C146.654 301.361 146.217 301.244 145.747 301.244C145.278 301.244 144.841 301.361 144.435 301.596C144.03 301.82 143.699 302.156 143.443 302.604C143.198 303.041 143.075 303.564 143.075 304.172C143.075 304.78 143.198 305.313 143.443 305.772C143.699 306.231 144.03 306.583 144.435 306.828C144.851 307.063 145.289 307.18 145.747 307.18C146.217 307.18 146.654 307.063 147.059 306.828C147.465 306.593 147.79 306.252 148.035 305.804C148.291 305.345 148.419 304.812 148.419 304.204ZM154.479 301.084C154.746 300.636 155.098 300.289 155.535 300.044C155.983 299.788 156.511 299.66 157.119 299.66V301.548H156.655C155.94 301.548 155.396 301.729 155.023 302.092C154.66 302.455 154.479 303.084 154.479 303.98V308.62H152.655V299.804H154.479V301.084ZM166.876 303.996C166.876 304.327 166.854 304.625 166.812 304.892H160.076C160.129 305.596 160.39 306.161 160.86 306.588C161.329 307.015 161.905 307.228 162.588 307.228C163.569 307.228 164.262 306.817 164.668 305.996H166.636C166.369 306.807 165.884 307.473 165.18 307.996C164.486 308.508 163.622 308.764 162.588 308.764C161.745 308.764 160.988 308.577 160.316 308.204C159.654 307.82 159.132 307.287 158.748 306.604C158.374 305.911 158.188 305.111 158.188 304.204C158.188 303.297 158.369 302.503 158.732 301.82C159.105 301.127 159.622 300.593 160.284 300.22C160.956 299.847 161.724 299.66 162.588 299.66C163.42 299.66 164.161 299.841 164.812 300.204C165.462 300.567 165.969 301.079 166.332 301.74C166.694 302.391 166.876 303.143 166.876 303.996ZM164.972 303.42C164.961 302.748 164.721 302.209 164.252 301.804C163.782 301.399 163.201 301.196 162.508 301.196C161.878 301.196 161.34 301.399 160.892 301.804C160.444 302.199 160.177 302.737 160.092 303.42H164.972ZM172.335 308.732C171.588 308.732 170.916 308.604 170.319 308.348C169.721 308.081 169.252 307.708 168.911 307.228C168.569 306.748 168.399 306.188 168.399 305.548H170.351C170.393 306.028 170.58 306.423 170.911 306.732C171.252 307.041 171.727 307.196 172.335 307.196C172.964 307.196 173.455 307.047 173.807 306.748C174.159 306.439 174.335 306.044 174.335 305.564C174.335 305.191 174.223 304.887 173.999 304.652C173.785 304.417 173.513 304.236 173.183 304.108C172.863 303.98 172.415 303.841 171.839 303.692C171.113 303.5 170.521 303.308 170.063 303.116C169.615 302.913 169.231 302.604 168.911 302.188C168.591 301.772 168.431 301.217 168.431 300.524C168.431 299.884 168.591 299.324 168.911 298.844C169.231 298.364 169.679 297.996 170.255 297.74C170.831 297.484 171.497 297.356 172.255 297.356C173.332 297.356 174.212 297.628 174.895 298.172C175.588 298.705 175.972 299.441 176.047 300.38H174.031C173.999 299.975 173.807 299.628 173.455 299.34C173.103 299.052 172.639 298.908 172.063 298.908C171.54 298.908 171.113 299.041 170.783 299.308C170.452 299.575 170.287 299.959 170.287 300.46C170.287 300.801 170.388 301.084 170.591 301.308C170.804 301.521 171.071 301.692 171.391 301.82C171.711 301.948 172.148 302.087 172.703 302.236C173.439 302.439 174.036 302.641 174.495 302.844C174.964 303.047 175.359 303.361 175.679 303.788C176.009 304.204 176.175 304.764 176.175 305.468C176.175 306.033 176.02 306.567 175.711 307.068C175.412 307.569 174.969 307.975 174.383 308.284C173.807 308.583 173.124 308.732 172.335 308.732ZM186.935 310.636L184.983 308.524C184.503 308.663 183.975 308.732 183.399 308.732C182.364 308.732 181.41 308.492 180.535 308.012C179.671 307.521 178.983 306.844 178.471 305.98C177.97 305.105 177.719 304.124 177.719 303.036C177.719 301.948 177.97 300.972 178.471 300.108C178.983 299.244 179.671 298.572 180.535 298.092C181.41 297.601 182.364 297.356 183.399 297.356C184.444 297.356 185.399 297.601 186.263 298.092C187.138 298.572 187.826 299.244 188.327 300.108C188.828 300.972 189.079 301.948 189.079 303.036C189.079 304.06 188.855 304.988 188.407 305.82C187.97 306.641 187.362 307.303 186.583 307.804L189.255 310.636H186.935ZM179.591 303.036C179.591 303.857 179.751 304.583 180.071 305.212C180.402 305.831 180.855 306.311 181.431 306.652C182.007 306.983 182.663 307.148 183.399 307.148C184.135 307.148 184.791 306.983 185.367 306.652C185.943 306.311 186.391 305.831 186.711 305.212C187.042 304.583 187.207 303.857 187.207 303.036C187.207 302.215 187.042 301.495 186.711 300.876C186.391 300.257 185.943 299.783 185.367 299.452C184.791 299.121 184.135 298.956 183.399 298.956C182.663 298.956 182.007 299.121 181.431 299.452C180.855 299.783 180.402 300.257 180.071 300.876C179.751 301.495 179.591 302.215 179.591 303.036ZM192.745 307.148H196.505V308.62H190.921V297.5H192.745V307.148Z" fill="#434343"/>
<path d="M240.621 244.12C249.543 246.13 258.8 246.13 267.721 244.12V244.453C267.721 246.987 267.721 249.453 267.721 252.02C267.731 252.075 267.728 252.132 267.715 252.186C267.701 252.24 267.676 252.291 267.641 252.335C267.607 252.379 267.563 252.415 267.514 252.441C267.465 252.467 267.41 252.483 267.354 252.487C262.064 253.72 256.632 254.236 251.204 254.02C247.776 253.897 244.372 253.394 241.054 252.52C240.704 252.52 240.621 252.287 240.621 251.953C240.621 249.47 240.621 246.953 240.621 244.537V244.12ZM261.154 249.437C261.145 249.642 261.217 249.842 261.354 249.995C261.491 250.148 261.683 250.241 261.888 250.253C262.095 250.263 262.297 250.192 262.452 250.055C262.608 249.918 262.704 249.726 262.721 249.52C262.722 249.315 262.645 249.116 262.506 248.965C262.367 248.814 262.176 248.72 261.971 248.703C261.767 248.698 261.569 248.772 261.417 248.908C261.265 249.044 261.171 249.233 261.154 249.437ZM264.171 248.937C264.166 249.037 264.183 249.138 264.218 249.232C264.254 249.326 264.309 249.411 264.379 249.483C264.45 249.555 264.534 249.612 264.627 249.65C264.721 249.688 264.821 249.706 264.921 249.703C265.021 249.706 265.12 249.688 265.213 249.651C265.306 249.615 265.391 249.56 265.462 249.49C265.534 249.42 265.59 249.336 265.629 249.244C265.668 249.152 265.688 249.053 265.688 248.953C265.69 248.853 265.672 248.753 265.636 248.659C265.599 248.565 265.545 248.479 265.475 248.406C265.405 248.334 265.322 248.275 265.23 248.235C265.138 248.194 265.038 248.172 264.938 248.17C264.836 248.168 264.736 248.186 264.642 248.224C264.548 248.262 264.462 248.318 264.391 248.39C264.319 248.461 264.263 248.547 264.225 248.641C264.187 248.735 264.169 248.835 264.171 248.937ZM258.838 250.42C258.938 250.425 259.039 250.409 259.133 250.373C259.227 250.337 259.312 250.282 259.384 250.212C259.456 250.141 259.513 250.057 259.551 249.964C259.588 249.871 259.607 249.771 259.604 249.67C259.604 249.465 259.524 249.268 259.381 249.122C259.238 248.976 259.043 248.891 258.838 248.887C258.634 248.891 258.44 248.972 258.294 249.115C258.149 249.257 258.063 249.45 258.054 249.653C258.059 249.858 258.143 250.053 258.29 250.197C258.436 250.34 258.633 250.42 258.838 250.42Z" fill="url(#paint10_linear_5254_18011)"/>
<path d="M240.621 263.287C249.541 265.309 258.801 265.309 267.721 263.287C267.73 263.403 267.73 263.52 267.721 263.637C267.721 266.137 267.721 268.637 267.721 271.154C267.721 271.47 267.638 271.587 267.338 271.654C261.562 272.995 255.621 273.478 249.704 273.087C246.779 272.889 243.881 272.398 241.054 271.62C240.771 271.537 240.654 271.437 240.654 271.104C240.654 268.604 240.654 266.104 240.654 263.62L240.621 263.287ZM262.721 268.604C262.713 268.401 262.63 268.209 262.489 268.064C262.347 267.919 262.157 267.832 261.954 267.82C261.768 267.848 261.598 267.941 261.476 268.083C261.353 268.225 261.285 268.407 261.285 268.595C261.285 268.783 261.353 268.965 261.476 269.107C261.598 269.25 261.768 269.343 261.954 269.37C262.154 269.358 262.342 269.274 262.483 269.132C262.625 268.991 262.709 268.803 262.721 268.604ZM258.854 268.02C258.754 268.018 258.654 268.036 258.56 268.072C258.466 268.109 258.38 268.163 258.307 268.233C258.235 268.303 258.176 268.386 258.136 268.478C258.095 268.57 258.073 268.67 258.071 268.77C258.075 268.975 258.16 269.17 258.306 269.313C258.453 269.457 258.65 269.537 258.854 269.537C258.963 269.553 259.075 269.546 259.181 269.515C259.286 269.484 259.384 269.431 259.468 269.359C259.551 269.287 259.618 269.198 259.664 269.098C259.71 268.998 259.734 268.889 259.734 268.779C259.734 268.668 259.71 268.559 259.664 268.459C259.618 268.359 259.551 268.27 259.468 268.198C259.384 268.126 259.286 268.073 259.181 268.042C259.075 268.011 258.963 268.004 258.854 268.02ZM265.704 268.02C265.721 267.911 265.713 267.8 265.682 267.694C265.652 267.588 265.599 267.49 265.527 267.407C265.455 267.323 265.366 267.256 265.265 267.21C265.165 267.165 265.056 267.141 264.946 267.141C264.836 267.141 264.727 267.165 264.627 267.21C264.527 267.256 264.437 267.323 264.365 267.407C264.294 267.49 264.24 267.588 264.21 267.694C264.179 267.8 264.172 267.911 264.188 268.02C264.185 268.121 264.204 268.221 264.242 268.314C264.279 268.407 264.336 268.491 264.408 268.562C264.48 268.632 264.566 268.687 264.66 268.723C264.754 268.759 264.854 268.775 264.954 268.77C265.146 268.77 265.33 268.695 265.467 268.561C265.604 268.427 265.683 268.245 265.688 268.054L265.704 268.02Z" fill="url(#paint11_linear_5254_18011)"/>
<path d="M240.656 253.687C249.555 255.695 258.79 255.695 267.69 253.687V262.02L266.023 262.403C261.139 263.437 256.144 263.851 251.156 263.637C247.738 263.508 244.347 262.971 241.056 262.037C240.84 262.037 240.706 261.953 240.706 261.67C240.706 259.07 240.706 256.47 240.706 253.87C240.683 253.811 240.666 253.75 240.656 253.687ZM259.606 259.237C259.611 259.035 259.537 258.838 259.401 258.689C259.264 258.54 259.075 258.45 258.873 258.437C258.762 258.42 258.648 258.428 258.54 258.46C258.432 258.491 258.332 258.545 258.247 258.619C258.162 258.692 258.093 258.783 258.047 258.886C258 258.988 257.976 259.099 257.976 259.212C257.976 259.324 258 259.435 258.047 259.538C258.093 259.64 258.162 259.731 258.247 259.805C258.332 259.878 258.432 259.932 258.54 259.964C258.648 259.995 258.762 260.003 258.873 259.987C259.066 259.975 259.248 259.891 259.384 259.753C259.519 259.614 259.598 259.43 259.606 259.237ZM264.173 258.503C264.173 258.656 264.218 258.805 264.303 258.931C264.388 259.057 264.509 259.156 264.65 259.213C264.791 259.271 264.946 259.285 265.095 259.254C265.245 259.223 265.381 259.148 265.488 259.039C265.594 258.93 265.666 258.792 265.693 258.643C265.721 258.493 265.704 258.338 265.643 258.198C265.582 258.059 265.482 257.94 265.353 257.858C265.225 257.776 265.075 257.733 264.923 257.737C264.823 257.737 264.724 257.757 264.632 257.795C264.54 257.834 264.456 257.891 264.387 257.962C264.317 258.034 264.262 258.118 264.225 258.211C264.188 258.304 264.171 258.404 264.173 258.503ZM261.94 258.287C261.838 258.285 261.736 258.303 261.641 258.34C261.546 258.378 261.46 258.434 261.387 258.505C261.314 258.577 261.256 258.662 261.216 258.756C261.177 258.85 261.156 258.951 261.156 259.053C261.156 259.153 261.176 259.252 261.215 259.344C261.254 259.436 261.31 259.52 261.382 259.59C261.453 259.66 261.538 259.715 261.631 259.751C261.724 259.788 261.823 259.806 261.923 259.803C262.024 259.806 262.124 259.788 262.218 259.752C262.311 259.715 262.397 259.66 262.47 259.591C262.543 259.521 262.601 259.438 262.642 259.346C262.682 259.253 262.704 259.154 262.706 259.053C262.702 258.851 262.62 258.659 262.477 258.516C262.334 258.373 262.142 258.291 261.94 258.287Z" fill="url(#paint12_linear_5254_18011)"/>
<path d="M254.139 244.653C250.901 244.709 247.665 244.464 244.472 243.92C243.449 243.695 242.442 243.406 241.455 243.053C241.072 242.937 240.639 242.72 240.639 242.22C240.639 241.72 241.055 241.62 241.455 241.403C242.613 240.907 243.837 240.581 245.089 240.437C249.537 239.801 254.04 239.639 258.522 239.953C260.837 240.036 263.138 240.354 265.389 240.903C265.964 241.073 266.522 241.296 267.055 241.57C267.805 241.97 267.805 242.503 267.055 242.937C266.159 243.406 265.19 243.721 264.189 243.87C260.871 244.451 257.506 244.714 254.139 244.653Z" fill="url(#paint13_linear_5254_18011)"/>
<path d="M217.293 309.232C216.259 309.232 215.304 308.992 214.429 308.512C213.565 308.021 212.877 307.344 212.365 306.48C211.864 305.605 211.613 304.624 211.613 303.536C211.613 302.448 211.864 301.472 212.365 300.608C212.877 299.744 213.565 299.072 214.429 298.592C215.304 298.101 216.259 297.856 217.293 297.856C218.339 297.856 219.293 298.101 220.157 298.592C221.032 299.072 221.72 299.744 222.221 300.608C222.723 301.472 222.973 302.448 222.973 303.536C222.973 304.624 222.723 305.605 222.221 306.48C221.72 307.344 221.032 308.021 220.157 308.512C219.293 308.992 218.339 309.232 217.293 309.232ZM217.293 307.648C218.029 307.648 218.685 307.483 219.261 307.152C219.837 306.811 220.285 306.331 220.605 305.712C220.936 305.083 221.101 304.357 221.101 303.536C221.101 302.715 220.936 301.995 220.605 301.376C220.285 300.757 219.837 300.283 219.261 299.952C218.685 299.621 218.029 299.456 217.293 299.456C216.557 299.456 215.901 299.621 215.325 299.952C214.749 300.283 214.296 300.757 213.965 301.376C213.645 301.995 213.485 302.715 213.485 303.536C213.485 304.357 213.645 305.083 213.965 305.712C214.296 306.331 214.749 306.811 215.325 307.152C215.901 307.483 216.557 307.648 217.293 307.648ZM226.592 301.584C226.859 301.136 227.211 300.789 227.648 300.544C228.096 300.288 228.624 300.16 229.232 300.16V302.048H228.768C228.054 302.048 227.51 302.229 227.136 302.592C226.774 302.955 226.592 303.584 226.592 304.48V309.12H224.768V300.304H226.592V301.584ZM230.301 304.672C230.301 303.787 230.482 303.003 230.845 302.32C231.218 301.637 231.72 301.109 232.349 300.736C232.989 300.352 233.693 300.16 234.461 300.16C235.154 300.16 235.757 300.299 236.269 300.576C236.792 300.843 237.208 301.179 237.517 301.584V300.304H239.357V309.12H237.517V307.808C237.208 308.224 236.786 308.571 236.253 308.848C235.72 309.125 235.112 309.264 234.429 309.264C233.672 309.264 232.978 309.072 232.349 308.688C231.72 308.293 231.218 307.749 230.845 307.056C230.482 306.352 230.301 305.557 230.301 304.672ZM237.517 304.704C237.517 304.096 237.389 303.568 237.133 303.12C236.888 302.672 236.562 302.331 236.157 302.096C235.752 301.861 235.314 301.744 234.845 301.744C234.376 301.744 233.938 301.861 233.533 302.096C233.128 302.32 232.797 302.656 232.541 303.104C232.296 303.541 232.173 304.064 232.173 304.672C232.173 305.28 232.296 305.813 232.541 306.272C232.797 306.731 233.128 307.083 233.533 307.328C233.949 307.563 234.386 307.68 234.845 307.68C235.314 307.68 235.752 307.563 236.157 307.328C236.562 307.093 236.888 306.752 237.133 306.304C237.389 305.845 237.517 305.312 237.517 304.704ZM241.145 304.704C241.145 303.797 241.326 303.003 241.689 302.32C242.062 301.627 242.574 301.093 243.225 300.72C243.875 300.347 244.622 300.16 245.465 300.16C246.531 300.16 247.411 300.416 248.105 300.928C248.809 301.429 249.283 302.149 249.529 303.088H247.561C247.401 302.651 247.145 302.309 246.793 302.064C246.441 301.819 245.998 301.696 245.465 301.696C244.718 301.696 244.121 301.963 243.673 302.496C243.235 303.019 243.017 303.755 243.017 304.704C243.017 305.653 243.235 306.395 243.673 306.928C244.121 307.461 244.718 307.728 245.465 307.728C246.521 307.728 247.219 307.264 247.561 306.336H249.529C249.273 307.232 248.793 307.947 248.089 308.48C247.385 309.003 246.51 309.264 245.465 309.264C244.622 309.264 243.875 309.077 243.225 308.704C242.574 308.32 242.062 307.787 241.689 307.104C241.326 306.411 241.145 305.611 241.145 304.704ZM253.17 297.28V309.12H251.346V297.28H253.17ZM263.645 304.496C263.645 304.827 263.624 305.125 263.581 305.392H256.845C256.899 306.096 257.16 306.661 257.629 307.088C258.099 307.515 258.675 307.728 259.357 307.728C260.339 307.728 261.032 307.317 261.437 306.496H263.405C263.139 307.307 262.653 307.973 261.949 308.496C261.256 309.008 260.392 309.264 259.357 309.264C258.515 309.264 257.757 309.077 257.085 308.704C256.424 308.32 255.901 307.787 255.517 307.104C255.144 306.411 254.957 305.611 254.957 304.704C254.957 303.797 255.139 303.003 255.501 302.32C255.875 301.627 256.392 301.093 257.053 300.72C257.725 300.347 258.493 300.16 259.357 300.16C260.189 300.16 260.931 300.341 261.581 300.704C262.232 301.067 262.739 301.579 263.101 302.24C263.464 302.891 263.645 303.643 263.645 304.496ZM261.741 303.92C261.731 303.248 261.491 302.709 261.021 302.304C260.552 301.899 259.971 301.696 259.277 301.696C258.648 301.696 258.109 301.899 257.661 302.304C257.213 302.699 256.947 303.237 256.861 303.92H261.741ZM273.26 309.232C272.514 309.232 271.842 309.104 271.244 308.848C270.647 308.581 270.178 308.208 269.836 307.728C269.495 307.248 269.324 306.688 269.324 306.048H271.276C271.319 306.528 271.506 306.923 271.836 307.232C272.178 307.541 272.652 307.696 273.26 307.696C273.89 307.696 274.38 307.547 274.732 307.248C275.084 306.939 275.26 306.544 275.26 306.064C275.26 305.691 275.148 305.387 274.924 305.152C274.711 304.917 274.439 304.736 274.108 304.608C273.788 304.48 273.34 304.341 272.764 304.192C272.039 304 271.447 303.808 270.988 303.616C270.54 303.413 270.156 303.104 269.836 302.688C269.516 302.272 269.356 301.717 269.356 301.024C269.356 300.384 269.516 299.824 269.836 299.344C270.156 298.864 270.604 298.496 271.18 298.24C271.756 297.984 272.423 297.856 273.18 297.856C274.258 297.856 275.138 298.128 275.82 298.672C276.514 299.205 276.898 299.941 276.972 300.88H274.956C274.924 300.475 274.732 300.128 274.38 299.84C274.028 299.552 273.564 299.408 272.988 299.408C272.466 299.408 272.039 299.541 271.708 299.808C271.378 300.075 271.212 300.459 271.212 300.96C271.212 301.301 271.314 301.584 271.516 301.808C271.73 302.021 271.996 302.192 272.316 302.32C272.636 302.448 273.074 302.587 273.628 302.736C274.364 302.939 274.962 303.141 275.42 303.344C275.89 303.547 276.284 303.861 276.604 304.288C276.935 304.704 277.1 305.264 277.1 305.968C277.1 306.533 276.946 307.067 276.636 307.568C276.338 308.069 275.895 308.475 275.308 308.784C274.732 309.083 274.05 309.232 273.26 309.232ZM287.861 311.136L285.909 309.024C285.429 309.163 284.901 309.232 284.325 309.232C283.29 309.232 282.335 308.992 281.461 308.512C280.597 308.021 279.909 307.344 279.397 306.48C278.895 305.605 278.645 304.624 278.645 303.536C278.645 302.448 278.895 301.472 279.397 300.608C279.909 299.744 280.597 299.072 281.461 298.592C282.335 298.101 283.29 297.856 284.325 297.856C285.37 297.856 286.325 298.101 287.189 298.592C288.063 299.072 288.751 299.744 289.253 300.608C289.754 301.472 290.005 302.448 290.005 303.536C290.005 304.56 289.781 305.488 289.333 306.32C288.895 307.141 288.287 307.803 287.509 308.304L290.181 311.136H287.861ZM280.517 303.536C280.517 304.357 280.677 305.083 280.997 305.712C281.327 306.331 281.781 306.811 282.357 307.152C282.933 307.483 283.589 307.648 284.325 307.648C285.061 307.648 285.717 307.483 286.293 307.152C286.869 306.811 287.317 306.331 287.637 305.712C287.967 305.083 288.133 304.357 288.133 303.536C288.133 302.715 287.967 301.995 287.637 301.376C287.317 300.757 286.869 300.283 286.293 299.952C285.717 299.621 285.061 299.456 284.325 299.456C283.589 299.456 282.933 299.621 282.357 299.952C281.781 300.283 281.327 300.757 280.997 301.376C280.677 301.995 280.517 302.715 280.517 303.536ZM293.67 307.648H297.43V309.12H291.846V298H293.67V307.648Z" fill="#434343"/>
<path d="M324.221 242.298L343.987 239.665V242.381H345.171H353.654C355.687 242.381 356.471 243.165 356.471 245.148V267.481C356.471 269.448 355.721 270.198 353.771 270.198H344.037V273.198L324.221 270.481V242.298ZM344.071 269.065H354.204C355.037 269.065 355.204 268.498 355.204 267.765C355.204 260.198 355.204 252.615 355.204 245.031C355.204 244.048 354.804 243.648 353.821 243.665H344.071V269.065ZM335.271 258.198C335.554 257.898 335.787 257.698 335.971 257.465C336.546 256.691 336.808 255.728 336.703 254.77C336.598 253.811 336.134 252.928 335.404 252.298C335.048 252.06 334.647 251.898 334.226 251.821C333.805 251.744 333.372 251.755 332.955 251.852C332.538 251.948 332.146 252.13 331.802 252.384C331.457 252.639 331.169 252.961 330.954 253.331C330.7 253.74 330.531 254.196 330.458 254.672C330.384 255.148 330.407 255.634 330.525 256.1C330.644 256.567 330.855 257.005 331.146 257.388C331.437 257.772 331.803 258.092 332.221 258.331C333.521 258.865 334.887 259.248 336.287 259.715L336.721 258.631L335.271 258.198ZM329.521 252.115C329.021 252.115 328.637 251.915 328.271 251.881C327.761 251.815 327.244 251.926 326.807 252.196C326.37 252.466 326.039 252.879 325.871 253.365C325.621 254.331 326.071 255.031 327.271 255.615C327.474 255.664 327.662 255.761 327.821 255.898C328.023 256.147 328.202 256.415 328.354 256.698C328.054 256.898 327.771 257.215 327.471 257.231C326.973 257.208 326.481 257.124 326.004 256.981C325.671 257.765 325.771 258.281 326.721 258.331C327.137 258.365 327.555 258.365 327.971 258.331C328.416 258.346 328.85 258.19 329.184 257.896C329.519 257.602 329.729 257.191 329.771 256.748C329.848 256.33 329.775 255.898 329.564 255.529C329.354 255.16 329.02 254.878 328.621 254.731C328.329 254.628 328.05 254.494 327.787 254.331C327.555 254.102 327.354 253.845 327.187 253.565C327.477 253.393 327.792 253.269 328.121 253.198C328.509 253.18 328.897 253.225 329.271 253.331L329.521 252.115ZM337.854 258.615H342.221V257.398L339.321 257.248V251.698L337.854 251.781V258.615Z" fill="url(#paint14_linear_5254_18011)"/>
<path d="M350.404 259.607H353.171L353.671 257.224H350.904L350.404 259.607Z" fill="url(#paint15_linear_5254_18011)"/>
<path d="M324.939 297.5V308.62H323.115V301.004L319.723 308.62H318.459L315.051 301.004V308.62H313.227V297.5H315.195L319.099 306.22L322.987 297.5H324.939ZM331.001 308.732C330.254 308.732 329.582 308.604 328.985 308.348C328.387 308.081 327.918 307.708 327.577 307.228C327.235 306.748 327.065 306.188 327.065 305.548H329.017C329.059 306.028 329.246 306.423 329.577 306.732C329.918 307.041 330.393 307.196 331.001 307.196C331.63 307.196 332.121 307.047 332.473 306.748C332.825 306.439 333.001 306.044 333.001 305.564C333.001 305.191 332.889 304.887 332.665 304.652C332.451 304.417 332.179 304.236 331.849 304.108C331.529 303.98 331.081 303.841 330.505 303.692C329.779 303.5 329.187 303.308 328.729 303.116C328.281 302.913 327.897 302.604 327.577 302.188C327.257 301.772 327.097 301.217 327.097 300.524C327.097 299.884 327.257 299.324 327.577 298.844C327.897 298.364 328.345 297.996 328.921 297.74C329.497 297.484 330.163 297.356 330.921 297.356C331.998 297.356 332.878 297.628 333.561 298.172C334.254 298.705 334.638 299.441 334.713 300.38H332.697C332.665 299.975 332.473 299.628 332.121 299.34C331.769 299.052 331.305 298.908 330.729 298.908C330.206 298.908 329.779 299.041 329.449 299.308C329.118 299.575 328.953 299.959 328.953 300.46C328.953 300.801 329.054 301.084 329.257 301.308C329.47 301.521 329.737 301.692 330.057 301.82C330.377 301.948 330.814 302.087 331.369 302.236C332.105 302.439 332.702 302.641 333.161 302.844C333.63 303.047 334.025 303.361 334.345 303.788C334.675 304.204 334.841 304.764 334.841 305.468C334.841 306.033 334.686 306.567 334.377 307.068C334.078 307.569 333.635 307.975 333.049 308.284C332.473 308.583 331.79 308.732 331.001 308.732ZM344.813 308.732C344.067 308.732 343.395 308.604 342.797 308.348C342.2 308.081 341.731 307.708 341.389 307.228C341.048 306.748 340.877 306.188 340.877 305.548H342.829C342.872 306.028 343.059 306.423 343.389 306.732C343.731 307.041 344.205 307.196 344.813 307.196C345.443 307.196 345.933 307.047 346.285 306.748C346.637 306.439 346.813 306.044 346.813 305.564C346.813 305.191 346.701 304.887 346.477 304.652C346.264 304.417 345.992 304.236 345.661 304.108C345.341 303.98 344.893 303.841 344.317 303.692C343.592 303.5 343 303.308 342.541 303.116C342.093 302.913 341.709 302.604 341.389 302.188C341.069 301.772 340.909 301.217 340.909 300.524C340.909 299.884 341.069 299.324 341.389 298.844C341.709 298.364 342.157 297.996 342.733 297.74C343.309 297.484 343.976 297.356 344.733 297.356C345.811 297.356 346.691 297.628 347.373 298.172C348.067 298.705 348.451 299.441 348.525 300.38H346.509C346.477 299.975 346.285 299.628 345.933 299.34C345.581 299.052 345.117 298.908 344.541 298.908C344.019 298.908 343.592 299.041 343.261 299.308C342.931 299.575 342.765 299.959 342.765 300.46C342.765 300.801 342.867 301.084 343.069 301.308C343.283 301.521 343.549 301.692 343.869 301.82C344.189 301.948 344.627 302.087 345.181 302.236C345.917 302.439 346.515 302.641 346.973 302.844C347.443 303.047 347.837 303.361 348.157 303.788C348.488 304.204 348.653 304.764 348.653 305.468C348.653 306.033 348.499 306.567 348.189 307.068C347.891 307.569 347.448 307.975 346.861 308.284C346.285 308.583 345.603 308.732 344.813 308.732ZM359.413 310.636L357.461 308.524C356.981 308.663 356.453 308.732 355.877 308.732C354.843 308.732 353.888 308.492 353.013 308.012C352.149 307.521 351.461 306.844 350.949 305.98C350.448 305.105 350.197 304.124 350.197 303.036C350.197 301.948 350.448 300.972 350.949 300.108C351.461 299.244 352.149 298.572 353.013 298.092C353.888 297.601 354.843 297.356 355.877 297.356C356.923 297.356 357.877 297.601 358.741 298.092C359.616 298.572 360.304 299.244 360.805 300.108C361.307 300.972 361.557 301.948 361.557 303.036C361.557 304.06 361.333 304.988 360.885 305.82C360.448 306.641 359.84 307.303 359.061 307.804L361.733 310.636H359.413ZM352.069 303.036C352.069 303.857 352.229 304.583 352.549 305.212C352.88 305.831 353.333 306.311 353.909 306.652C354.485 306.983 355.141 307.148 355.877 307.148C356.613 307.148 357.269 306.983 357.845 306.652C358.421 306.311 358.869 305.831 359.189 305.212C359.52 304.583 359.685 303.857 359.685 303.036C359.685 302.215 359.52 301.495 359.189 300.876C358.869 300.257 358.421 299.783 357.845 299.452C357.269 299.121 356.613 298.956 355.877 298.956C355.141 298.956 354.485 299.121 353.909 299.452C353.333 299.783 352.88 300.257 352.549 300.876C352.229 301.495 352.069 302.215 352.069 303.036ZM365.223 307.148H368.983V308.62H363.399V297.5H365.223V307.148Z" fill="#434343"/>
<defs>
<linearGradient id="paint0_linear_5254_18011" x1="39.985" y1="249.753" x2="73.0017" y2="249.753" gradientUnits="userSpaceOnUse">
<stop stop-color="#283376"/>
<stop offset="1" stop-color="#1C67A6"/>
</linearGradient>
<linearGradient id="paint1_linear_5254_18011" x1="41.1507" y1="260.404" x2="55.3007" y2="260.404" gradientUnits="userSpaceOnUse">
<stop stop-color="#283376"/>
<stop offset="1" stop-color="#1C67A6"/>
</linearGradient>
<linearGradient id="paint2_linear_5254_18011" x1="57.6676" y1="260.403" x2="71.8342" y2="260.403" gradientUnits="userSpaceOnUse">
<stop stop-color="#283376"/>
<stop offset="1" stop-color="#1C67A6"/>
</linearGradient>
<linearGradient id="paint3_linear_5254_18011" x1="41.1502" y1="267.87" x2="55.3002" y2="267.87" gradientUnits="userSpaceOnUse">
<stop stop-color="#283376"/>
<stop offset="1" stop-color="#1C67A6"/>
</linearGradient>
<linearGradient id="paint4_linear_5254_18011" x1="57.6678" y1="267.87" x2="71.8012" y2="267.87" gradientUnits="userSpaceOnUse">
<stop stop-color="#283376"/>
<stop offset="1" stop-color="#1C67A6"/>
</linearGradient>
<linearGradient id="paint5_linear_5254_18011" x1="41.1357" y1="264.32" x2="55.3357" y2="264.32" gradientUnits="userSpaceOnUse">
<stop stop-color="#283376"/>
<stop offset="1" stop-color="#1C67A6"/>
</linearGradient>
<linearGradient id="paint6_linear_5254_18011" x1="57.6666" y1="264.32" x2="71.8499" y2="264.32" gradientUnits="userSpaceOnUse">
<stop stop-color="#283376"/>
<stop offset="1" stop-color="#1C67A6"/>
</linearGradient>
<linearGradient id="paint7_linear_5254_18011" x1="41.1523" y1="271.404" x2="55.3023" y2="271.404" gradientUnits="userSpaceOnUse">
<stop stop-color="#283376"/>
<stop offset="1" stop-color="#1C67A6"/>
</linearGradient>
<linearGradient id="paint8_linear_5254_18011" x1="57.668" y1="271.403" x2="71.818" y2="271.403" gradientUnits="userSpaceOnUse">
<stop stop-color="#283376"/>
<stop offset="1" stop-color="#1C67A6"/>
</linearGradient>
<linearGradient id="paint9_linear_5254_18011" x1="127.966" y1="263.656" x2="175.193" y2="263.656" gradientUnits="userSpaceOnUse">
<stop stop-color="#283376"/>
<stop offset="1" stop-color="#1C67A6"/>
</linearGradient>
<linearGradient id="paint10_linear_5254_18011" x1="240.621" y1="249.087" x2="267.721" y2="249.087" gradientUnits="userSpaceOnUse">
<stop stop-color="#283376"/>
<stop offset="1" stop-color="#1C67A6"/>
</linearGradient>
<linearGradient id="paint11_linear_5254_18011" x1="240.621" y1="268.204" x2="267.721" y2="268.204" gradientUnits="userSpaceOnUse">
<stop stop-color="#283376"/>
<stop offset="1" stop-color="#1C67A6"/>
</linearGradient>
<linearGradient id="paint12_linear_5254_18011" x1="240.623" y1="258.653" x2="267.69" y2="258.653" gradientUnits="userSpaceOnUse">
<stop stop-color="#283376"/>
<stop offset="1" stop-color="#1C67A6"/>
</linearGradient>
<linearGradient id="paint13_linear_5254_18011" x1="240.639" y1="242.22" x2="267.689" y2="242.22" gradientUnits="userSpaceOnUse">
<stop stop-color="#283376"/>
<stop offset="1" stop-color="#1C67A6"/>
</linearGradient>
<linearGradient id="paint14_linear_5254_18011" x1="324.221" y1="256.431" x2="356.471" y2="256.431" gradientUnits="userSpaceOnUse">
<stop stop-color="#283376"/>
<stop offset="1" stop-color="#1C67A6"/>
</linearGradient>
<linearGradient id="paint15_linear_5254_18011" x1="350.404" y1="258.407" x2="353.671" y2="258.407" gradientUnits="userSpaceOnUse">
<stop stop-color="#283478"/>
<stop offset="1" stop-color="#1675B1"/>
</linearGradient>
<clipPath id="clip0_5254_18011">
<rect width="52.88" height="51.873" fill="white" transform="translate(173.561 54.1836)"/>
</clipPath>
</defs>
</svg>
