<svg width="400" height="335" viewBox="0 0 400 335" fill="none" xmlns="http://www.w3.org/2000/svg">
<rect y="0.620117" width="399.333" height="334" rx="4" fill="white"/>
<rect y="0.620117" width="399.333" height="206" rx="4" fill="#EDF2F7"/>
<g clip-path="url(#clip0_5211_18783)">
<path fill-rule="evenodd" clip-rule="evenodd" d="M190.655 69.1776C190.153 69.1955 189.777 69.2985 189.517 69.4732C189.369 69.5717 189.261 69.6972 189.19 69.8495C189.114 70.0152 189.078 70.2212 189.082 70.4541C189.1 71.1395 189.463 72.0353 190.157 73.0655L190.166 73.0789L192.419 76.6623C193.324 78.1001 194.269 79.5648 195.447 80.6398C196.58 81.6745 197.951 82.3732 199.77 82.3777C201.736 82.3822 203.174 81.6565 204.343 80.5636C205.557 79.4259 206.515 77.8672 207.46 76.3129L210 72.1338C210.475 71.0543 210.645 70.3332 210.538 69.9077C210.475 69.6569 210.197 69.5314 209.722 69.509C209.624 69.5046 209.516 69.5046 209.413 69.5046C209.301 69.509 209.18 69.5135 209.059 69.527C208.992 69.5314 208.925 69.527 208.862 69.5135C208.638 69.527 208.405 69.509 208.168 69.4777L209.037 65.6301C202.587 66.6469 197.763 61.8586 190.946 64.6715L191.438 69.2045C191.152 69.2224 190.892 69.2134 190.655 69.1776ZM207.147 99.5329V101.696L202.699 104.218V101.696L205.561 100.608L202.699 99.5329V97.0111L207.147 99.5329ZM199.443 104.93H197.548L199.886 95.8197H201.781L199.443 104.93ZM196.28 99.5329L193.418 100.608L196.28 101.696V104.218L191.833 101.696V99.5329L196.28 97.0111V99.5329ZM210.578 68.3669C210.672 64.4386 211.393 60.4701 208.598 57.2496C206.605 54.9517 201.418 52.7883 198.054 52.6047C196.634 52.5285 197.176 53.6841 195.774 54.1679C192.881 55.1667 190.35 57.2899 189.521 60.2372C189.387 60.7209 189.293 61.2091 189.244 61.6974C189.15 63.7488 189.203 66.1945 189.351 68.1384C189.15 68.2146 188.966 68.3086 188.805 68.4161C188.455 68.649 188.2 68.9536 188.03 69.3164C187.868 69.6613 187.797 70.0555 187.81 70.49C187.837 71.4127 188.263 72.5325 189.087 73.7642L191.34 77.3476C192.128 78.6017 192.952 79.8783 193.956 80.9578C193.906 81.1011 193.96 80.9444 193.929 81.0384C193.651 81.8805 193.185 83.287 192.769 84.0753C190.032 85.867 183.766 86.3283 181.333 87.6855C174.695 91.3853 177.092 99.0133 177.011 105.315C177.141 106.722 177.938 107.528 179.506 107.649H181.203L179.345 93.5398C179.201 92.4424 179.981 91.5421 180.939 91.5421H189.66H199.953C199.599 89.2577 193.691 87.0539 193.481 85.3339C193.539 85.2936 193.593 85.2399 193.638 85.1772C194.139 84.4784 194.659 83.0227 195.017 81.9611C196.285 82.9868 197.808 83.6587 199.765 83.6632C201.521 83.6677 202.923 83.1795 204.101 82.3866C204.217 82.5524 204.334 82.7271 204.459 82.9107C205.019 83.7349 205.673 84.6889 206.282 85.3698C206.152 87.3272 201.028 87.3496 200.446 91.5421H218.694C219.653 91.5421 220.436 92.4424 220.289 93.5398L218.43 107.649H220.127C221.695 107.528 222.492 106.722 222.627 105.315C222.183 99.3627 224.414 91.0897 218.304 87.6855C215.904 86.3462 209.767 85.8804 206.977 84.147C206.506 83.5647 206 82.8211 205.552 82.1672C205.409 81.9522 205.27 81.7506 205.14 81.567L205.207 81.5087C206.547 80.2546 207.554 78.6197 208.544 76.9892L211.111 72.7609C211.124 72.7385 211.138 72.7116 211.151 72.6892C211.751 71.3231 211.948 70.3198 211.769 69.6121C211.604 68.9536 211.205 68.5595 210.578 68.3669Z" fill="#002680"/>
</g>
<path d="M157.444 145.642H161.584V147.64H154.924V135.076H157.444V145.642ZM162.537 142.618C162.537 141.61 162.735 140.716 163.131 139.936C163.539 139.156 164.085 138.556 164.769 138.136C165.465 137.716 166.239 137.506 167.091 137.506C167.835 137.506 168.483 137.656 169.035 137.956C169.599 138.256 170.049 138.634 170.385 139.09V137.668H172.923V147.64H170.385V146.182C170.061 146.65 169.611 147.04 169.035 147.352C168.471 147.652 167.817 147.802 167.073 147.802C166.233 147.802 165.465 147.586 164.769 147.154C164.085 146.722 163.539 146.116 163.131 145.336C162.735 144.544 162.537 143.638 162.537 142.618ZM170.385 142.654C170.385 142.042 170.265 141.52 170.025 141.088C169.785 140.644 169.461 140.308 169.053 140.08C168.645 139.84 168.207 139.72 167.739 139.72C167.271 139.72 166.839 139.834 166.443 140.062C166.047 140.29 165.723 140.626 165.471 141.07C165.231 141.502 165.111 142.018 165.111 142.618C165.111 143.218 165.231 143.746 165.471 144.202C165.723 144.646 166.047 144.988 166.443 145.228C166.851 145.468 167.283 145.588 167.739 145.588C168.207 145.588 168.645 145.474 169.053 145.246C169.461 145.006 169.785 144.67 170.025 144.238C170.265 143.794 170.385 143.266 170.385 142.654ZM180.911 137.524C182.099 137.524 183.059 137.902 183.791 138.658C184.523 139.402 184.889 140.446 184.889 141.79V147.64H182.369V142.132C182.369 141.34 182.171 140.734 181.775 140.314C181.379 139.882 180.839 139.666 180.155 139.666C179.459 139.666 178.907 139.882 178.499 140.314C178.103 140.734 177.905 141.34 177.905 142.132V147.64H175.385V137.668H177.905V138.91C178.241 138.478 178.667 138.142 179.183 137.902C179.711 137.65 180.287 137.524 180.911 137.524ZM191.191 137.506C191.935 137.506 192.589 137.656 193.153 137.956C193.717 138.244 194.161 138.622 194.485 139.09V137.668H197.023V147.712C197.023 148.636 196.837 149.458 196.465 150.178C196.093 150.91 195.535 151.486 194.791 151.906C194.047 152.338 193.147 152.554 192.091 152.554C190.675 152.554 189.511 152.224 188.599 151.564C187.699 150.904 187.189 150.004 187.069 148.864H189.571C189.703 149.32 189.985 149.68 190.417 149.944C190.861 150.22 191.395 150.358 192.019 150.358C192.751 150.358 193.345 150.136 193.801 149.692C194.257 149.26 194.485 148.6 194.485 147.712V146.164C194.161 146.632 193.711 147.022 193.135 147.334C192.571 147.646 191.923 147.802 191.191 147.802C190.351 147.802 189.583 147.586 188.887 147.154C188.191 146.722 187.639 146.116 187.231 145.336C186.835 144.544 186.637 143.638 186.637 142.618C186.637 141.61 186.835 140.716 187.231 139.936C187.639 139.156 188.185 138.556 188.869 138.136C189.565 137.716 190.339 137.506 191.191 137.506ZM194.485 142.654C194.485 142.042 194.365 141.52 194.125 141.088C193.885 140.644 193.561 140.308 193.153 140.08C192.745 139.84 192.307 139.72 191.839 139.72C191.371 139.72 190.939 139.834 190.543 140.062C190.147 140.29 189.823 140.626 189.571 141.07C189.331 141.502 189.211 142.018 189.211 142.618C189.211 143.218 189.331 143.746 189.571 144.202C189.823 144.646 190.147 144.988 190.543 145.228C190.951 145.468 191.383 145.588 191.839 145.588C192.307 145.588 192.745 145.474 193.153 145.246C193.561 145.006 193.885 144.67 194.125 144.238C194.365 143.794 194.485 143.266 194.485 142.654ZM208.898 137.668V147.64H206.36V146.38C206.036 146.812 205.61 147.154 205.082 147.406C204.566 147.646 204.002 147.766 203.39 147.766C202.61 147.766 201.92 147.604 201.32 147.28C200.72 146.944 200.246 146.458 199.898 145.822C199.562 145.174 199.394 144.406 199.394 143.518V137.668H201.914V143.158C201.914 143.95 202.112 144.562 202.508 144.994C202.904 145.414 203.444 145.624 204.128 145.624C204.824 145.624 205.37 145.414 205.766 144.994C206.162 144.562 206.36 143.95 206.36 143.158V137.668H208.898ZM210.737 142.618C210.737 141.61 210.935 140.716 211.331 139.936C211.739 139.156 212.285 138.556 212.969 138.136C213.665 137.716 214.439 137.506 215.291 137.506C216.035 137.506 216.683 137.656 217.235 137.956C217.799 138.256 218.249 138.634 218.585 139.09V137.668H221.123V147.64H218.585V146.182C218.261 146.65 217.811 147.04 217.235 147.352C216.671 147.652 216.017 147.802 215.273 147.802C214.433 147.802 213.665 147.586 212.969 147.154C212.285 146.722 211.739 146.116 211.331 145.336C210.935 144.544 210.737 143.638 210.737 142.618ZM218.585 142.654C218.585 142.042 218.465 141.52 218.225 141.088C217.985 140.644 217.661 140.308 217.253 140.08C216.845 139.84 216.407 139.72 215.939 139.72C215.471 139.72 215.039 139.834 214.643 140.062C214.247 140.29 213.923 140.626 213.671 141.07C213.431 141.502 213.311 142.018 213.311 142.618C213.311 143.218 213.431 143.746 213.671 144.202C213.923 144.646 214.247 144.988 214.643 145.228C215.051 145.468 215.483 145.588 215.939 145.588C216.407 145.588 216.845 145.474 217.253 145.246C217.661 145.006 217.985 144.67 218.225 144.238C218.465 143.794 218.585 143.266 218.585 142.654ZM227.49 137.506C228.234 137.506 228.888 137.656 229.452 137.956C230.016 138.244 230.46 138.622 230.784 139.09V137.668H233.322V147.712C233.322 148.636 233.136 149.458 232.764 150.178C232.392 150.91 231.834 151.486 231.09 151.906C230.346 152.338 229.446 152.554 228.39 152.554C226.974 152.554 225.81 152.224 224.898 151.564C223.998 150.904 223.488 150.004 223.368 148.864H225.87C226.002 149.32 226.284 149.68 226.716 149.944C227.16 150.22 227.694 150.358 228.318 150.358C229.05 150.358 229.644 150.136 230.1 149.692C230.556 149.26 230.784 148.6 230.784 147.712V146.164C230.46 146.632 230.01 147.022 229.434 147.334C228.87 147.646 228.222 147.802 227.49 147.802C226.65 147.802 225.882 147.586 225.186 147.154C224.49 146.722 223.938 146.116 223.53 145.336C223.134 144.544 222.936 143.638 222.936 142.618C222.936 141.61 223.134 140.716 223.53 139.936C223.938 139.156 224.484 138.556 225.168 138.136C225.864 137.716 226.638 137.506 227.49 137.506ZM230.784 142.654C230.784 142.042 230.664 141.52 230.424 141.088C230.184 140.644 229.86 140.308 229.452 140.08C229.044 139.84 228.606 139.72 228.138 139.72C227.67 139.72 227.238 139.834 226.842 140.062C226.446 140.29 226.122 140.626 225.87 141.07C225.63 141.502 225.51 142.018 225.51 142.618C225.51 143.218 225.63 143.746 225.87 144.202C226.122 144.646 226.446 144.988 226.842 145.228C227.25 145.468 227.682 145.588 228.138 145.588C228.606 145.588 229.044 145.474 229.452 145.246C229.86 145.006 230.184 144.67 230.424 144.238C230.664 143.794 230.784 143.266 230.784 142.654ZM245.053 142.438C245.053 142.798 245.029 143.122 244.981 143.41H237.691C237.751 144.13 238.003 144.694 238.447 145.102C238.891 145.51 239.437 145.714 240.085 145.714C241.021 145.714 241.687 145.312 242.083 144.508H244.801C244.513 145.468 243.961 146.26 243.145 146.884C242.329 147.496 241.327 147.802 240.139 147.802C239.179 147.802 238.315 147.592 237.547 147.172C236.791 146.74 236.197 146.134 235.765 145.354C235.345 144.574 235.135 143.674 235.135 142.654C235.135 141.622 235.345 140.716 235.765 139.936C236.185 139.156 236.773 138.556 237.529 138.136C238.285 137.716 239.155 137.506 240.139 137.506C241.087 137.506 241.933 137.71 242.677 138.118C243.433 138.526 244.015 139.108 244.423 139.864C244.843 140.608 245.053 141.466 245.053 142.438ZM242.443 141.718C242.431 141.07 242.197 140.554 241.741 140.17C241.285 139.774 240.727 139.576 240.067 139.576C239.443 139.576 238.915 139.768 238.483 140.152C238.063 140.524 237.805 141.046 237.709 141.718H242.443Z" fill="#002680"/>
<rect y="216.62" width="399.333" height="118" rx="4" fill="#EDF2F7"/>
<path d="M59.8346 254.47C60.5157 254.003 61.2792 253.669 62.0846 253.487C63.0684 253.275 64.0924 253.35 65.0346 253.703C65.3631 253.806 65.6651 253.98 65.9196 254.212C66.1741 254.443 66.375 254.728 66.5083 255.045C66.6416 255.363 66.7041 255.705 66.6913 256.049C66.6786 256.393 66.591 256.73 66.4346 257.037C66.1212 257.821 65.6306 258.523 65.0013 259.087C64.2513 259.77 63.4346 260.37 62.6513 261.02C61.868 261.67 61.5013 261.887 60.9846 262.353C60.4996 262.779 60.2005 263.377 60.1513 264.02C60.1513 265.053 59.4846 265.453 58.4846 265.203C57.9364 265.029 57.4579 264.684 57.118 264.22C56.9927 264.087 56.881 263.942 56.7846 263.787C56.418 264.27 56.0846 264.737 55.7013 265.17C55.318 265.603 54.7846 266.12 54.318 266.57C54.1685 266.716 53.9909 266.829 53.796 266.904C53.6011 266.978 53.3931 267.012 53.1846 267.003H43.3346C42.9452 267.004 42.5678 266.869 42.268 266.62C40.3913 264.937 38.9551 262.82 38.0846 260.453C37.2006 258.124 36.7215 255.661 36.668 253.17C36.668 252.687 36.9013 252.437 37.418 252.437H59.0846C59.7846 252.437 59.968 252.62 59.9513 253.32C59.8846 253.687 59.8513 254.037 59.8346 254.47ZM58.0513 261.62L58.7346 261.387C60.0031 260.993 61.2137 260.433 62.3346 259.72C62.9943 259.314 63.562 258.775 64.0013 258.137C64.1682 257.939 64.2809 257.701 64.3286 257.446C64.3762 257.192 64.3572 256.929 64.2733 256.684C64.1894 256.439 64.0435 256.22 63.8498 256.048C63.6561 255.876 63.4212 255.758 63.168 255.703C62.6269 255.5 62.0477 255.419 61.4715 255.465C60.8954 255.511 60.3365 255.683 59.8346 255.97C59.7202 256.058 59.6381 256.181 59.6013 256.32C59.3846 257.22 59.218 258.137 58.9513 259.037C58.6846 259.937 58.3346 260.67 58.0513 261.62Z" fill="url(#paint0_linear_5211_18783)"/>
<path d="M40.9327 270.153C40.2827 269.953 39.6327 269.953 38.9993 269.72C38.366 269.486 37.516 269.253 36.7993 268.986C36.5713 268.875 36.3584 268.735 36.166 268.57V268.453H36.5493H59.9993C60.1343 268.473 60.2678 268.501 60.3993 268.536C60.316 268.67 60.2327 268.836 60.116 268.886C59.2994 269.203 58.4494 269.503 57.6494 269.77C56.8493 270.036 56.366 270.053 55.716 270.203C55.7653 270.366 55.7988 270.534 55.816 270.703C55.8211 270.789 55.8077 270.875 55.7766 270.955C55.7455 271.036 55.6974 271.108 55.6358 271.168C55.5741 271.228 55.5003 271.275 55.4192 271.304C55.3381 271.333 55.2518 271.344 55.166 271.336H53.8493C49.8327 271.336 45.7993 271.336 41.7827 271.336C40.9493 271.32 40.5993 270.803 40.9327 270.153Z" fill="url(#paint1_linear_5211_18783)"/>
<path d="M50.3668 250.504C50.5501 250.32 50.7668 250.137 50.9335 249.937C51.197 249.667 51.3741 249.325 51.4424 248.954C51.5107 248.583 51.4669 248.2 51.3168 247.854C51.1168 247.354 50.8668 246.87 50.6168 246.387C50.4073 246.053 50.2669 245.68 50.2039 245.291C50.1409 244.901 50.1566 244.503 50.2501 244.12C50.4014 243.654 50.6265 243.215 50.9168 242.82C51.4569 242.148 52.1183 241.582 52.8668 241.154L52.6668 241.387C52.3061 241.78 52.0608 242.265 51.9579 242.788C51.855 243.312 51.8984 243.853 52.0835 244.354C52.2668 244.887 52.5168 245.404 52.7335 245.937C52.9136 246.35 53.0694 246.773 53.2001 247.204C53.3081 247.565 53.3106 247.95 53.2072 248.314C53.1039 248.677 52.8991 249.003 52.6168 249.254C51.9726 249.837 51.2027 250.265 50.3668 250.504Z" fill="url(#paint2_linear_5211_18783)"/>
<path d="M48.3333 242.153C48.1073 242.528 47.9068 242.918 47.7333 243.32C47.592 243.88 47.6571 244.471 47.9166 244.987C48.1166 245.453 48.3333 245.887 48.5166 246.353C48.6311 246.552 48.7035 246.772 48.7293 246.999C48.7551 247.227 48.7337 247.457 48.6665 247.676C48.5992 247.895 48.4876 248.098 48.3385 248.272C48.1894 248.446 48.006 248.587 47.7999 248.687C47.3999 248.953 46.9666 249.17 46.5666 249.403C46.6999 249.253 46.8499 249.12 46.9833 248.953C47.1773 248.748 47.3061 248.489 47.3536 248.21C47.401 247.932 47.365 247.645 47.2499 247.387C47.0999 247.02 46.9166 246.67 46.7499 246.32C46.4266 245.862 46.2805 245.302 46.3387 244.744C46.3969 244.186 46.6556 243.668 47.0666 243.287C47.4333 242.837 47.8333 242.52 48.3333 242.153Z" fill="url(#paint3_linear_5211_18783)"/>
<path d="M37.2953 297.5V305.516C37.2953 306.508 36.9913 307.292 36.3833 307.868C35.7859 308.444 34.9966 308.732 34.0153 308.732C33.0339 308.732 32.2393 308.444 31.6313 307.868C31.0339 307.292 30.7353 306.508 30.7353 305.516H32.5753C32.5859 306.007 32.7086 306.396 32.9433 306.684C33.1886 306.972 33.5459 307.116 34.0153 307.116C34.4846 307.116 34.8419 306.972 35.0873 306.684C35.3326 306.385 35.4553 305.996 35.4553 305.516V297.5H37.2953ZM39.6545 304.172C39.6545 303.287 39.8358 302.503 40.1985 301.82C40.5718 301.137 41.0732 300.609 41.7025 300.236C42.3425 299.852 43.0465 299.66 43.8145 299.66C44.5078 299.66 45.1105 299.799 45.6225 300.076C46.1452 300.343 46.5612 300.679 46.8705 301.084V299.804H48.7105V308.62H46.8705V307.308C46.5612 307.724 46.1398 308.071 45.6065 308.348C45.0732 308.625 44.4652 308.764 43.7825 308.764C43.0252 308.764 42.3318 308.572 41.7025 308.188C41.0732 307.793 40.5718 307.249 40.1985 306.556C39.8358 305.852 39.6545 305.057 39.6545 304.172ZM46.8705 304.204C46.8705 303.596 46.7425 303.068 46.4865 302.62C46.2412 302.172 45.9158 301.831 45.5105 301.596C45.1052 301.361 44.6678 301.244 44.1985 301.244C43.7292 301.244 43.2918 301.361 42.8865 301.596C42.4812 301.82 42.1505 302.156 41.8945 302.604C41.6492 303.041 41.5265 303.564 41.5265 304.172C41.5265 304.78 41.6492 305.313 41.8945 305.772C42.1505 306.231 42.4812 306.583 42.8865 306.828C43.3025 307.063 43.7398 307.18 44.1985 307.18C44.6678 307.18 45.1052 307.063 45.5105 306.828C45.9158 306.593 46.2412 306.252 46.4865 305.804C46.7425 305.345 46.8705 304.812 46.8705 304.204ZM54.5143 306.988L57.0103 299.804H58.9462L55.5863 308.62H53.4103L50.0663 299.804H52.0182L54.5143 306.988ZM59.717 304.172C59.717 303.287 59.8983 302.503 60.261 301.82C60.6343 301.137 61.1357 300.609 61.765 300.236C62.405 299.852 63.109 299.66 63.877 299.66C64.5703 299.66 65.173 299.799 65.685 300.076C66.2077 300.343 66.6237 300.679 66.933 301.084V299.804H68.773V308.62H66.933V307.308C66.6237 307.724 66.2023 308.071 65.669 308.348C65.1357 308.625 64.5277 308.764 63.845 308.764C63.0877 308.764 62.3943 308.572 61.765 308.188C61.1357 307.793 60.6343 307.249 60.261 306.556C59.8983 305.852 59.717 305.057 59.717 304.172ZM66.933 304.204C66.933 303.596 66.805 303.068 66.549 302.62C66.3037 302.172 65.9783 301.831 65.573 301.596C65.1677 301.361 64.7303 301.244 64.261 301.244C63.7917 301.244 63.3543 301.361 62.949 301.596C62.5437 301.82 62.213 302.156 61.957 302.604C61.7117 303.041 61.589 303.564 61.589 304.172C61.589 304.78 61.7117 305.313 61.957 305.772C62.213 306.231 62.5437 306.583 62.949 306.828C63.365 307.063 63.8023 307.18 64.261 307.18C64.7303 307.18 65.1677 307.063 65.573 306.828C65.9783 306.593 66.3037 306.252 66.549 305.804C66.805 305.345 66.933 304.812 66.933 304.204Z" fill="#434343"/>
<path d="M131.844 256.936V242.386C131.812 241.94 131.876 241.493 132.032 241.074C132.188 240.655 132.433 240.274 132.749 239.958C133.065 239.642 133.446 239.397 133.865 239.241C134.284 239.085 134.731 239.021 135.177 239.053H148.877C148.992 239.044 149.108 239.063 149.215 239.106C149.322 239.149 149.417 239.217 149.494 239.303L154.494 244.303C154.572 244.375 154.632 244.463 154.673 244.561C154.713 244.659 154.732 244.764 154.727 244.87V271.62C154.746 272.052 154.675 272.483 154.519 272.885C154.362 273.288 154.123 273.654 153.818 273.96C153.512 274.265 153.146 274.504 152.743 274.661C152.34 274.817 151.909 274.889 151.477 274.87H135.061C134.631 274.886 134.202 274.814 133.802 274.656C133.402 274.498 133.04 274.258 132.737 273.953C132.434 273.647 132.199 273.282 132.045 272.88C131.891 272.479 131.823 272.049 131.844 271.62V256.936ZM154.211 267.52V244.753H152.061C151.311 244.756 150.586 244.488 150.019 243.998C149.452 243.508 149.082 242.828 148.977 242.086C148.927 241.337 148.927 240.586 148.977 239.836V239.436H135.144C134.752 239.412 134.36 239.471 133.993 239.61C133.626 239.749 133.293 239.964 133.016 240.241C132.738 240.519 132.523 240.852 132.384 241.219C132.245 241.586 132.186 241.978 132.211 242.37V267.52H154.211ZM141.761 271.903L141.011 269.186C140.994 269.038 140.92 268.901 140.806 268.805C140.691 268.709 140.544 268.66 140.394 268.67C140.246 268.668 140.103 268.719 139.99 268.814C139.877 268.908 139.801 269.041 139.777 269.186L139.444 270.42C139.311 270.92 139.177 271.436 139.011 272.086C139.011 271.903 139.011 271.82 138.911 271.736C138.711 270.886 138.527 270.07 138.327 269.186C138.227 268.803 138.061 268.686 137.761 268.753C137.461 268.82 137.377 269.053 137.461 269.386C137.761 270.62 138.061 271.853 138.377 273.086C138.377 273.37 138.594 273.603 138.944 273.603C139.09 273.604 139.231 273.553 139.341 273.458C139.452 273.363 139.524 273.231 139.544 273.086C139.711 272.453 139.894 271.836 140.061 271.203C140.161 270.836 140.277 270.453 140.411 270.003C140.434 270.093 140.462 270.182 140.494 270.27C140.744 271.22 141.011 272.17 141.261 273.12C141.285 273.259 141.359 273.386 141.47 273.475C141.58 273.563 141.719 273.609 141.861 273.603C142.194 273.603 142.344 273.386 142.427 273.103L142.727 271.936C142.927 271.086 143.144 270.27 143.344 269.386C143.427 269.036 143.344 268.803 143.027 268.753C142.711 268.703 142.561 268.753 142.477 269.186C142.394 269.62 142.344 269.736 142.277 270.003L141.761 271.903ZM135.094 273.57V273.47C135.205 273.478 135.316 273.478 135.427 273.47C135.656 273.473 135.883 273.425 136.09 273.328C136.297 273.23 136.479 273.087 136.622 272.908C136.766 272.73 136.866 272.521 136.916 272.297C136.966 272.074 136.964 271.842 136.911 271.62C136.844 271.394 136.719 271.19 136.55 271.026C136.381 270.863 136.172 270.746 135.944 270.686C135.494 270.536 135.027 270.436 134.594 270.286C134.161 270.136 134.177 270.086 134.194 269.803C134.211 269.52 134.394 269.403 134.627 269.32C135.194 269.12 135.561 269.32 135.927 269.886C135.944 269.941 135.972 269.992 136.009 270.035C136.047 270.078 136.093 270.113 136.145 270.137C136.198 270.161 136.254 270.173 136.311 270.173C136.369 270.173 136.425 270.16 136.477 270.136C136.532 270.115 136.582 270.082 136.623 270.04C136.665 269.999 136.697 269.949 136.719 269.895C136.741 269.84 136.752 269.782 136.75 269.723C136.749 269.664 136.735 269.606 136.711 269.553C136.657 269.363 136.558 269.189 136.421 269.047C136.285 268.904 136.115 268.798 135.927 268.736C135.632 268.613 135.315 268.549 134.994 268.549C134.674 268.549 134.356 268.613 134.061 268.736C133.825 268.832 133.626 268.999 133.49 269.214C133.354 269.428 133.289 269.68 133.304 269.934C133.318 270.188 133.412 270.431 133.572 270.628C133.732 270.826 133.949 270.969 134.194 271.036L135.577 271.453C135.697 271.485 135.803 271.553 135.881 271.649C135.959 271.745 136.004 271.863 136.011 271.986C136.012 272.117 135.972 272.245 135.898 272.352C135.823 272.46 135.717 272.542 135.594 272.586C135.465 272.662 135.321 272.708 135.173 272.722C135.024 272.737 134.874 272.719 134.733 272.67C134.592 272.621 134.464 272.542 134.356 272.438C134.249 272.334 134.165 272.209 134.111 272.07C134.065 271.995 134.026 271.917 133.994 271.836C133.877 271.636 133.677 271.52 133.494 271.653C133.414 271.703 133.348 271.771 133.302 271.853C133.255 271.934 133.23 272.026 133.227 272.12C133.238 272.329 133.306 272.531 133.424 272.704C133.541 272.877 133.704 273.015 133.894 273.103C134.27 273.298 134.66 273.465 135.061 273.603L135.094 273.57ZM146.761 269.436H148.444C148.711 269.436 148.961 269.436 148.977 269.07C148.994 268.703 148.827 268.703 148.461 268.703H146.277C145.794 268.703 145.644 268.853 145.644 269.353V273.053C145.644 273.177 145.693 273.296 145.781 273.383C145.868 273.471 145.987 273.52 146.111 273.52C146.234 273.52 146.353 273.471 146.441 273.383C146.528 273.296 146.577 273.177 146.577 273.053C146.586 272.898 146.586 272.742 146.577 272.586V271.336H146.844C147.311 271.336 147.777 271.336 148.227 271.336C148.307 271.314 148.379 271.271 148.437 271.213C148.496 271.155 148.538 271.082 148.561 271.003C148.561 270.803 148.444 270.67 148.227 270.653C148.1 270.645 147.972 270.645 147.844 270.653H146.577L146.761 269.436ZM151.761 269.436C152.127 269.436 152.461 269.436 152.777 269.436C153.094 269.436 153.294 269.436 153.294 269.036C153.294 268.636 153.044 268.653 152.761 268.653H149.777C149.411 268.653 149.227 268.786 149.244 269.053C149.261 269.32 149.427 269.436 149.794 269.436C150.161 269.436 150.427 269.436 150.761 269.436V272.636C150.761 273.236 150.894 273.436 151.244 273.436C151.594 273.436 151.711 273.22 151.711 272.62L151.761 269.436ZM143.927 270.97V272.886C143.927 273.17 143.927 273.403 144.344 273.436C144.761 273.47 144.794 273.27 144.811 272.903V269.186C144.811 268.82 144.627 268.636 144.327 268.653C144.027 268.67 143.927 268.92 143.927 269.203V270.97Z" fill="url(#paint4_linear_5211_18783)"/>
<path d="M145.862 256.353V255.453C145.813 254.003 145.645 252.559 145.362 251.136C144.995 249.186 144.595 247.236 144.195 245.286C144.195 244.953 144.095 244.62 144.045 244.286C144.045 244.286 144.045 244.12 144.045 243.986L144.329 244.32C145.635 246.027 146.753 247.871 147.662 249.82C148.371 251.2 148.93 252.653 149.329 254.153C149.595 255.32 149.812 256.486 149.995 257.67C150.029 258.086 150.029 258.504 149.995 258.92C150.495 259.22 150.979 259.503 151.462 259.82C151.736 259.965 151.964 260.184 152.12 260.452C152.276 260.72 152.354 261.026 152.345 261.336C152.345 261.336 152.429 261.453 152.479 261.47C152.633 261.541 152.772 261.642 152.887 261.768C153.001 261.894 153.089 262.042 153.145 262.203C152.71 261.905 152.189 261.758 151.662 261.786C151.794 262.25 152.047 262.67 152.395 263.003C152.259 263.01 152.122 262.987 151.995 262.935C151.869 262.883 151.755 262.804 151.662 262.703C151.579 262.603 151.512 262.62 151.395 262.703C150.847 262.824 150.29 262.902 149.729 262.936C147.456 263.054 145.177 262.887 142.945 262.436C139.626 261.735 136.478 260.387 133.679 258.47C133.412 258.303 133.162 258.086 132.912 257.903C133.012 257.903 133.112 257.803 133.195 257.903C133.688 257.929 134.178 257.99 134.662 258.086C135.962 258.386 137.229 258.736 138.512 259.053C139.7 259.356 140.909 259.567 142.129 259.686H142.712H142.979V259.57C141.729 257.57 140.479 255.586 139.245 253.586C138.644 252.558 137.852 251.653 136.912 250.92C136.495 250.586 136.095 250.22 135.679 249.87C135.61 249.79 135.554 249.7 135.512 249.603C135.595 249.587 135.68 249.587 135.762 249.603C136.188 249.752 136.6 249.936 136.995 250.153C137.912 250.736 138.795 251.353 139.679 251.986L145.379 256.103L145.762 256.386L145.862 256.353ZM151.579 260.87C151.49 260.87 151.406 260.905 151.343 260.967C151.281 261.03 151.245 261.115 151.245 261.203C151.253 261.287 151.292 261.366 151.353 261.424C151.414 261.482 151.494 261.516 151.579 261.52C151.661 261.516 151.74 261.481 151.798 261.422C151.857 261.364 151.891 261.286 151.895 261.203C151.892 261.119 151.858 261.038 151.8 260.977C151.741 260.916 151.663 260.878 151.579 260.87Z" fill="url(#paint5_linear_5211_18783)"/>
<path d="M128.637 308.732C127.891 308.732 127.219 308.604 126.621 308.348C126.024 308.081 125.555 307.708 125.213 307.228C124.872 306.748 124.701 306.188 124.701 305.548H126.653C126.696 306.028 126.883 306.423 127.213 306.732C127.555 307.041 128.029 307.196 128.637 307.196C129.267 307.196 129.757 307.047 130.109 306.748C130.461 306.439 130.637 306.044 130.637 305.564C130.637 305.191 130.525 304.887 130.301 304.652C130.088 304.417 129.816 304.236 129.485 304.108C129.165 303.98 128.717 303.841 128.141 303.692C127.416 303.5 126.824 303.308 126.365 303.116C125.917 302.913 125.533 302.604 125.213 302.188C124.893 301.772 124.733 301.217 124.733 300.524C124.733 299.884 124.893 299.324 125.213 298.844C125.533 298.364 125.981 297.996 126.557 297.74C127.133 297.484 127.8 297.356 128.557 297.356C129.635 297.356 130.515 297.628 131.197 298.172C131.891 298.705 132.275 299.441 132.349 300.38H130.333C130.301 299.975 130.109 299.628 129.757 299.34C129.405 299.052 128.941 298.908 128.365 298.908C127.843 298.908 127.416 299.041 127.085 299.308C126.755 299.575 126.589 299.959 126.589 300.46C126.589 300.801 126.691 301.084 126.893 301.308C127.107 301.521 127.373 301.692 127.693 301.82C128.013 301.948 128.451 302.087 129.005 302.236C129.741 302.439 130.339 302.641 130.797 302.844C131.267 303.047 131.661 303.361 131.981 303.788C132.312 304.204 132.477 304.764 132.477 305.468C132.477 306.033 132.323 306.567 132.013 307.068C131.715 307.569 131.272 307.975 130.685 308.284C130.109 308.583 129.427 308.732 128.637 308.732ZM146.47 299.804L143.734 308.62H141.814L140.038 302.108L138.262 308.62H136.342L133.59 299.804H135.446L137.286 306.892L139.158 299.804H141.062L142.854 306.86L144.678 299.804H146.47ZM148.761 298.636C148.43 298.636 148.153 298.524 147.929 298.3C147.705 298.076 147.593 297.799 147.593 297.468C147.593 297.137 147.705 296.86 147.929 296.636C148.153 296.412 148.43 296.3 148.761 296.3C149.081 296.3 149.353 296.412 149.577 296.636C149.801 296.86 149.913 297.137 149.913 297.468C149.913 297.799 149.801 298.076 149.577 298.3C149.353 298.524 149.081 298.636 148.761 298.636ZM149.657 299.804V308.62H147.833V299.804H149.657ZM155.748 301.292H154.116V308.62H152.276V301.292H151.236V299.804H152.276V299.18C152.276 298.167 152.542 297.431 153.076 296.972C153.62 296.503 154.468 296.268 155.62 296.268V297.788C155.065 297.788 154.676 297.895 154.452 298.108C154.228 298.311 154.116 298.668 154.116 299.18V299.804H155.748V301.292ZM159.492 301.292V306.172C159.492 306.503 159.567 306.743 159.716 306.892C159.876 307.031 160.143 307.1 160.516 307.1H161.636V308.62H160.196C159.375 308.62 158.745 308.428 158.308 308.044C157.871 307.66 157.652 307.036 157.652 306.172V301.292H156.612V299.804H157.652V297.612H159.492V299.804H161.636V301.292H159.492Z" fill="#434343"/>
<path d="M252.389 236.453C248.401 236.453 244.502 237.636 241.185 239.852C237.869 242.068 235.284 245.217 233.758 248.902C232.231 252.587 231.832 256.642 232.61 260.554C233.388 264.466 235.309 268.059 238.129 270.88C240.95 273.7 244.543 275.621 248.455 276.399C252.367 277.177 256.422 276.778 260.107 275.251C263.792 273.725 266.941 271.14 269.157 267.824C271.373 264.507 272.556 260.608 272.556 256.62C272.556 251.271 270.431 246.142 266.649 242.36C262.867 238.578 257.738 236.453 252.389 236.453ZM252.389 273.908C248.97 273.908 245.627 272.894 242.784 270.995C239.941 269.095 237.726 266.395 236.417 263.236C235.108 260.077 234.766 256.601 235.433 253.247C236.1 249.893 237.747 246.813 240.165 244.395C242.582 241.977 245.663 240.331 249.017 239.664C252.37 238.997 255.846 239.339 259.005 240.647C262.164 241.956 264.864 244.172 266.764 247.015C268.664 249.858 269.678 253.2 269.678 256.62C269.678 261.205 267.856 265.602 264.614 268.844C261.372 272.087 256.974 273.908 252.389 273.908Z" fill="url(#paint6_linear_5211_18783)"/>
<path d="M245.569 248.26C246.947 247.472 248.51 247.067 250.097 247.086C251.68 247.05 253.242 247.456 254.607 248.26C255.877 249.069 256.879 250.236 257.485 251.615H261.262C260.454 249.401 258.949 247.509 256.972 246.225C254.908 244.956 252.519 244.318 250.097 244.391C247.956 244.367 245.848 244.917 243.992 245.986C242.179 247.017 240.677 248.518 239.647 250.331C238.581 252.254 238.037 254.422 238.07 256.62C238.03 258.83 238.574 261.012 239.647 262.945C240.674 264.766 242.176 266.274 243.992 267.308C245.852 268.363 247.959 268.907 250.097 268.885C252.519 268.959 254.909 268.321 256.972 267.051C258.947 265.789 260.453 263.916 261.262 261.716H257.485C256.884 263.093 255.881 264.256 254.607 265.053C253.24 265.85 251.679 266.25 250.097 266.208C248.509 266.236 246.943 265.831 245.569 265.035C244.224 264.242 243.131 263.086 242.415 261.698C241.626 260.124 241.236 258.38 241.279 256.62C241.24 254.86 241.63 253.117 242.415 251.541C243.144 250.178 244.236 249.042 245.569 248.26Z" fill="url(#paint7_linear_5211_18783)"/>
<path d="M252.553 260.287C252.144 260.059 251.812 259.714 251.6 259.297C251.356 258.841 251.236 258.329 251.251 257.812V255.685C251.236 255.168 251.356 254.657 251.6 254.2C251.807 253.774 252.139 253.422 252.553 253.192C252.989 252.964 253.473 252.845 253.965 252.845C254.456 252.845 254.941 252.964 255.376 253.192C255.79 253.422 256.123 253.774 256.33 254.2C256.558 254.661 256.672 255.171 256.66 255.685V257.867C256.672 258.381 256.558 258.891 256.33 259.352C256.117 259.769 255.785 260.114 255.376 260.342C254.945 260.583 254.459 260.709 253.965 260.709C253.47 260.709 252.984 260.583 252.553 260.342V260.287ZM254.808 259.37C255.045 259.225 255.236 259.015 255.358 258.765C255.504 258.482 255.573 258.166 255.56 257.849V255.649C255.573 255.331 255.504 255.015 255.358 254.732C255.236 254.482 255.045 254.272 254.808 254.127C254.55 253.982 254.26 253.906 253.965 253.906C253.669 253.906 253.379 253.982 253.121 254.127C252.883 254.277 252.688 254.485 252.553 254.732C252.422 255.019 252.359 255.333 252.37 255.649V257.904C252.361 258.219 252.424 258.532 252.553 258.82C252.688 259.067 252.883 259.275 253.121 259.425C253.379 259.57 253.669 259.646 253.965 259.646C254.26 259.646 254.55 259.57 254.808 259.425V259.37Z" fill="url(#paint8_linear_5211_18783)"/>
<path d="M258.311 252.953H259.392V260.653H258.311V252.953ZM259.869 260.488C259.615 260.321 259.423 260.077 259.319 259.791V258.636C259.309 258.846 259.354 259.054 259.447 259.241C259.524 259.407 259.653 259.542 259.814 259.626C259.995 259.72 260.197 259.764 260.401 259.755C260.552 259.761 260.703 259.737 260.845 259.684C260.987 259.63 261.116 259.548 261.226 259.443C261.345 259.309 261.436 259.152 261.493 258.982C261.549 258.812 261.571 258.632 261.556 258.453V257.261C261.577 256.919 261.473 256.58 261.262 256.308C261.157 256.197 261.028 256.11 260.886 256.053C260.743 255.996 260.59 255.97 260.437 255.978C260.235 255.978 260.034 256.022 259.851 256.106C259.694 256.197 259.566 256.33 259.484 256.491C259.39 256.672 259.346 256.875 259.356 257.078L259.246 256.015C259.389 255.717 259.611 255.464 259.887 255.281C260.152 255.101 260.465 255.005 260.786 255.006C261.141 254.998 261.492 255.094 261.794 255.281C262.075 255.461 262.293 255.724 262.417 256.033C262.571 256.418 262.645 256.829 262.637 257.243V258.453C262.648 258.861 262.573 259.267 262.417 259.645C262.286 259.961 262.054 260.225 261.757 260.396C261.45 260.587 261.092 260.683 260.731 260.671C260.429 260.677 260.131 260.601 259.869 260.451V260.488Z" fill="url(#paint9_linear_5211_18783)"/>
<path d="M263.389 261.827H263.994C264.039 261.83 264.085 261.821 264.127 261.802C264.168 261.783 264.205 261.753 264.232 261.717C264.266 261.616 264.266 261.506 264.232 261.405V255.135H265.314V261.405C265.337 261.788 265.219 262.166 264.984 262.468C264.863 262.599 264.715 262.701 264.55 262.767C264.385 262.834 264.208 262.863 264.03 262.853H263.389V261.827ZM264.305 252.917H265.405V253.998H264.305V252.917Z" fill="url(#paint10_linear_5211_18783)"/>
<path d="M212.223 309.232C211.189 309.232 210.234 308.992 209.359 308.512C208.495 308.021 207.807 307.344 207.295 306.48C206.794 305.605 206.543 304.624 206.543 303.536C206.543 302.448 206.794 301.472 207.295 300.608C207.807 299.744 208.495 299.072 209.359 298.592C210.234 298.101 211.189 297.856 212.223 297.856C213.269 297.856 214.223 298.101 215.087 298.592C215.962 299.072 216.65 299.744 217.151 300.608C217.653 301.472 217.903 302.448 217.903 303.536C217.903 304.624 217.653 305.605 217.151 306.48C216.65 307.344 215.962 308.021 215.087 308.512C214.223 308.992 213.269 309.232 212.223 309.232ZM212.223 307.648C212.959 307.648 213.615 307.483 214.191 307.152C214.767 306.811 215.215 306.331 215.535 305.712C215.866 305.083 216.031 304.357 216.031 303.536C216.031 302.715 215.866 301.995 215.535 301.376C215.215 300.757 214.767 300.283 214.191 299.952C213.615 299.621 212.959 299.456 212.223 299.456C211.487 299.456 210.831 299.621 210.255 299.952C209.679 300.283 209.226 300.757 208.895 301.376C208.575 301.995 208.415 302.715 208.415 303.536C208.415 304.357 208.575 305.083 208.895 305.712C209.226 306.331 209.679 306.811 210.255 307.152C210.831 307.483 211.487 307.648 212.223 307.648ZM221.522 301.616C221.831 301.189 222.253 300.843 222.786 300.576C223.33 300.299 223.933 300.16 224.594 300.16C225.373 300.16 226.077 300.347 226.706 300.72C227.335 301.093 227.831 301.627 228.194 302.32C228.557 303.003 228.738 303.787 228.738 304.672C228.738 305.557 228.557 306.352 228.194 307.056C227.831 307.749 227.33 308.293 226.69 308.688C226.061 309.072 225.362 309.264 224.594 309.264C223.911 309.264 223.303 309.131 222.77 308.864C222.247 308.597 221.831 308.256 221.522 307.84V309.12H219.698V297.28H221.522V301.616ZM226.882 304.672C226.882 304.064 226.754 303.541 226.498 303.104C226.253 302.656 225.922 302.32 225.506 302.096C225.101 301.861 224.663 301.744 224.194 301.744C223.735 301.744 223.298 301.861 222.882 302.096C222.477 302.331 222.146 302.672 221.89 303.12C221.645 303.568 221.522 304.096 221.522 304.704C221.522 305.312 221.645 305.845 221.89 306.304C222.146 306.752 222.477 307.093 222.882 307.328C223.298 307.563 223.735 307.68 224.194 307.68C224.663 307.68 225.101 307.563 225.506 307.328C225.922 307.083 226.253 306.731 226.498 306.272C226.754 305.813 226.882 305.28 226.882 304.672ZM231.47 299.136C231.139 299.136 230.862 299.024 230.638 298.8C230.414 298.576 230.302 298.299 230.302 297.968C230.302 297.637 230.414 297.36 230.638 297.136C230.862 296.912 231.139 296.8 231.47 296.8C231.79 296.8 232.062 296.912 232.286 297.136C232.51 297.36 232.622 297.637 232.622 297.968C232.622 298.299 232.51 298.576 232.286 298.8C232.062 299.024 231.79 299.136 231.47 299.136ZM232.366 310.848C232.366 311.712 232.147 312.336 231.71 312.72C231.283 313.115 230.659 313.312 229.838 313.312H228.894V311.776H229.518C229.891 311.776 230.152 311.701 230.302 311.552C230.462 311.413 230.542 311.179 230.542 310.848V300.304H232.366V310.848ZM242.841 304.496C242.841 304.827 242.819 305.125 242.777 305.392H236.041C236.094 306.096 236.355 306.661 236.825 307.088C237.294 307.515 237.87 307.728 238.553 307.728C239.534 307.728 240.227 307.317 240.633 306.496H242.601C242.334 307.307 241.849 307.973 241.145 308.496C240.451 309.008 239.587 309.264 238.553 309.264C237.71 309.264 236.953 309.077 236.281 308.704C235.619 308.32 235.097 307.787 234.713 307.104C234.339 306.411 234.153 305.611 234.153 304.704C234.153 303.797 234.334 303.003 234.697 302.32C235.07 301.627 235.587 301.093 236.249 300.72C236.921 300.347 237.689 300.16 238.553 300.16C239.385 300.16 240.126 300.341 240.777 300.704C241.427 301.067 241.934 301.579 242.297 302.24C242.659 302.891 242.841 303.643 242.841 304.496ZM240.937 303.92C240.926 303.248 240.686 302.709 240.217 302.304C239.747 301.899 239.166 301.696 238.473 301.696C237.843 301.696 237.305 301.899 236.857 302.304C236.409 302.699 236.142 303.237 236.057 303.92H240.937ZM244.028 304.704C244.028 303.797 244.209 303.003 244.572 302.32C244.945 301.627 245.457 301.093 246.108 300.72C246.758 300.347 247.505 300.16 248.348 300.16C249.414 300.16 250.294 300.416 250.988 300.928C251.692 301.429 252.166 302.149 252.412 303.088H250.444C250.284 302.651 250.028 302.309 249.676 302.064C249.324 301.819 248.881 301.696 248.348 301.696C247.601 301.696 247.004 301.963 246.556 302.496C246.118 303.019 245.9 303.755 245.9 304.704C245.9 305.653 246.118 306.395 246.556 306.928C247.004 307.461 247.601 307.728 248.348 307.728C249.404 307.728 250.102 307.264 250.444 306.336H252.412C252.156 307.232 251.676 307.947 250.972 308.48C250.268 309.003 249.393 309.264 248.348 309.264C247.505 309.264 246.758 309.077 246.108 308.704C245.457 308.32 244.945 307.787 244.572 307.104C244.209 306.411 244.028 305.611 244.028 304.704ZM256.357 301.792V306.672C256.357 307.003 256.432 307.243 256.581 307.392C256.741 307.531 257.008 307.6 257.381 307.6H258.501V309.12H257.061C256.24 309.12 255.611 308.928 255.173 308.544C254.736 308.16 254.517 307.536 254.517 306.672V301.792H253.477V300.304H254.517V298.112H256.357V300.304H258.501V301.792H256.357ZM261.11 299.136C260.78 299.136 260.502 299.024 260.278 298.8C260.054 298.576 259.942 298.299 259.942 297.968C259.942 297.637 260.054 297.36 260.278 297.136C260.502 296.912 260.78 296.8 261.11 296.8C261.43 296.8 261.702 296.912 261.926 297.136C262.15 297.36 262.262 297.637 262.262 297.968C262.262 298.299 262.15 298.576 261.926 298.8C261.702 299.024 261.43 299.136 261.11 299.136ZM262.006 300.304V309.12H260.182V300.304H262.006ZM267.809 307.488L270.305 300.304H272.241L268.881 309.12H266.705L263.361 300.304H265.313L267.809 307.488ZM281.7 304.496C281.7 304.827 281.679 305.125 281.636 305.392H274.9C274.953 306.096 275.215 306.661 275.684 307.088C276.153 307.515 276.729 307.728 277.412 307.728C278.393 307.728 279.087 307.317 279.492 306.496H281.46C281.193 307.307 280.708 307.973 280.004 308.496C279.311 309.008 278.447 309.264 277.412 309.264C276.569 309.264 275.812 309.077 275.14 308.704C274.479 308.32 273.956 307.787 273.572 307.104C273.199 306.411 273.012 305.611 273.012 304.704C273.012 303.797 273.193 303.003 273.556 302.32C273.929 301.627 274.447 301.093 275.108 300.72C275.78 300.347 276.548 300.16 277.412 300.16C278.244 300.16 278.985 300.341 279.636 300.704C280.287 301.067 280.793 301.579 281.156 302.24C281.519 302.891 281.7 303.643 281.7 304.496ZM279.796 303.92C279.785 303.248 279.545 302.709 279.076 302.304C278.607 301.899 278.025 301.696 277.332 301.696C276.703 301.696 276.164 301.899 275.716 302.304C275.268 302.699 275.001 303.237 274.916 303.92H279.796ZM287.043 303.536C287.043 302.448 287.294 301.472 287.795 300.608C288.307 299.744 288.995 299.072 289.859 298.592C290.734 298.101 291.689 297.856 292.723 297.856C293.907 297.856 294.958 298.149 295.875 298.736C296.803 299.312 297.475 300.133 297.891 301.2H295.699C295.411 300.613 295.011 300.176 294.499 299.888C293.987 299.6 293.395 299.456 292.723 299.456C291.987 299.456 291.331 299.621 290.755 299.952C290.179 300.283 289.726 300.757 289.395 301.376C289.075 301.995 288.915 302.715 288.915 303.536C288.915 304.357 289.075 305.077 289.395 305.696C289.726 306.315 290.179 306.795 290.755 307.136C291.331 307.467 291.987 307.632 292.723 307.632C293.395 307.632 293.987 307.488 294.499 307.2C295.011 306.912 295.411 306.475 295.699 305.888H297.891C297.475 306.955 296.803 307.776 295.875 308.352C294.958 308.928 293.907 309.216 292.723 309.216C291.678 309.216 290.723 308.976 289.859 308.496C288.995 308.005 288.307 307.328 287.795 306.464C287.294 305.6 287.043 304.624 287.043 303.536Z" fill="#434343"/>
<path d="M355.835 240.324C352.612 240.324 349.462 241.279 346.782 243.07C344.102 244.861 342.013 247.406 340.78 250.384C339.546 253.361 339.223 256.638 339.852 259.799C340.481 262.96 342.033 265.864 344.312 268.143C346.591 270.422 349.495 271.974 352.656 272.603C355.817 273.232 359.094 272.909 362.072 271.676C365.049 270.442 367.595 268.354 369.385 265.674C371.176 262.994 372.132 259.843 372.132 256.62C372.12 252.302 370.399 248.164 367.345 245.11C364.292 242.056 360.154 240.336 355.835 240.324ZM362.041 267.253C359.938 268.565 357.499 269.235 355.022 269.181C352.842 269.206 350.695 268.65 348.802 267.57C346.941 266.496 345.409 264.933 344.374 263.051C343.282 261.096 342.722 258.889 342.747 256.65C342.712 254.391 343.273 252.162 344.374 250.189C345.414 248.31 346.945 246.749 348.802 245.67C350.691 244.579 352.84 244.017 355.022 244.044C357.502 243.988 359.943 244.664 362.041 245.987C364.056 247.302 365.588 249.237 366.408 251.499H362.568C361.936 250.075 360.885 248.877 359.555 248.065C358.162 247.241 356.565 246.829 354.947 246.875C353.327 246.85 351.73 247.261 350.323 248.065C348.983 248.894 347.899 250.077 347.19 251.484C346.39 253.086 345.992 254.86 346.03 256.65C345.992 258.431 346.39 260.195 347.19 261.786C347.917 263.2 349.029 264.38 350.398 265.19C351.803 265.999 353.401 266.415 355.022 266.395C356.64 266.441 358.238 266.029 359.631 265.205C360.962 264.408 362.014 263.219 362.643 261.801H366.484C365.638 264.055 364.077 265.97 362.041 267.253ZM368.246 257.75V258.698H366.408L365.941 261.078H364.902L365.414 258.698H362.929L362.417 261.078H361.378L361.89 258.698H359.917V257.75H362.026L362.477 255.596H360.64V254.647H362.688L363.2 252.267H364.24L363.712 254.647H366.228L366.74 252.267H367.779L367.267 254.647H368.954V255.596H367.056L366.604 257.75H368.246Z" fill="url(#paint11_linear_5211_18783)"/>
<path d="M365.57 259.607H368.337L368.837 257.224H366.07L365.57 259.607Z" fill="url(#paint12_linear_5211_18783)"/>
<path d="M343.262 303.036C343.262 301.948 343.513 300.972 344.014 300.108C344.526 299.244 345.214 298.572 346.078 298.092C346.953 297.601 347.907 297.356 348.942 297.356C350.126 297.356 351.177 297.649 352.094 298.236C353.022 298.812 353.694 299.633 354.11 300.7H351.918C351.63 300.113 351.23 299.676 350.718 299.388C350.206 299.1 349.614 298.956 348.942 298.956C348.206 298.956 347.55 299.121 346.974 299.452C346.398 299.783 345.945 300.257 345.614 300.876C345.294 301.495 345.134 302.215 345.134 303.036C345.134 303.857 345.294 304.577 345.614 305.196C345.945 305.815 346.398 306.295 346.974 306.636C347.55 306.967 348.206 307.132 348.942 307.132C349.614 307.132 350.206 306.988 350.718 306.7C351.23 306.412 351.63 305.975 351.918 305.388H354.11C353.694 306.455 353.022 307.276 352.094 307.852C351.177 308.428 350.126 308.716 348.942 308.716C347.897 308.716 346.942 308.476 346.078 307.996C345.214 307.505 344.526 306.828 344.014 305.964C343.513 305.1 343.262 304.124 343.262 303.036ZM365.573 301.292L364.981 304.06H367.093V305.66H364.645L364.005 308.62H362.261L362.901 305.66H359.765L359.125 308.62H357.381L358.021 305.66H355.541V304.06H358.357L358.949 301.292H356.485V299.692H359.285L359.909 296.78H361.653L361.029 299.692H364.165L364.789 296.78H366.533L365.909 299.692H368.037V301.292H365.573ZM363.829 301.292H360.693L360.101 304.06H363.237L363.829 301.292Z" fill="#434343"/>
<defs>
<linearGradient id="paint0_linear_5211_18783" x1="36.6513" y1="259.753" x2="66.668" y2="259.753" gradientUnits="userSpaceOnUse">
<stop stop-color="#283376"/>
<stop offset="1" stop-color="#1C67A6"/>
</linearGradient>
<linearGradient id="paint1_linear_5211_18783" x1="36.166" y1="269.853" x2="60.316" y2="269.853" gradientUnits="userSpaceOnUse">
<stop stop-color="#283376"/>
<stop offset="1" stop-color="#1C67A6"/>
</linearGradient>
<linearGradient id="paint2_linear_5211_18783" x1="50.1501" y1="245.804" x2="53.2835" y2="245.804" gradientUnits="userSpaceOnUse">
<stop stop-color="#283376"/>
<stop offset="1" stop-color="#1C67A6"/>
</linearGradient>
<linearGradient id="paint3_linear_5211_18783" x1="46.2333" y1="245.787" x2="48.6166" y2="245.787" gradientUnits="userSpaceOnUse">
<stop stop-color="#283376"/>
<stop offset="1" stop-color="#1C67A6"/>
</linearGradient>
<linearGradient id="paint4_linear_5211_18783" x1="131.844" y1="256.936" x2="154.611" y2="256.936" gradientUnits="userSpaceOnUse">
<stop stop-color="#283478"/>
<stop offset="1" stop-color="#1675B1"/>
</linearGradient>
<linearGradient id="paint5_linear_5211_18783" x1="132.945" y1="253.503" x2="153.145" y2="253.503" gradientUnits="userSpaceOnUse">
<stop stop-color="#283478"/>
<stop offset="1" stop-color="#1675B1"/>
</linearGradient>
<linearGradient id="paint6_linear_5211_18783" x1="232.223" y1="256.62" x2="272.556" y2="256.62" gradientUnits="userSpaceOnUse">
<stop stop-color="#283376"/>
<stop offset="1" stop-color="#1C67A6"/>
</linearGradient>
<linearGradient id="paint7_linear_5211_18783" x1="238.07" y1="256.638" x2="261.262" y2="256.638" gradientUnits="userSpaceOnUse">
<stop stop-color="#283376"/>
<stop offset="1" stop-color="#1C67A6"/>
</linearGradient>
<linearGradient id="paint8_linear_5211_18783" x1="251.251" y1="256.767" x2="265.478" y2="256.767" gradientUnits="userSpaceOnUse">
<stop stop-color="#283376"/>
<stop offset="1" stop-color="#1C67A6"/>
</linearGradient>
<linearGradient id="paint9_linear_5211_18783" x1="251.252" y1="256.803" x2="265.479" y2="256.803" gradientUnits="userSpaceOnUse">
<stop stop-color="#283376"/>
<stop offset="1" stop-color="#1C67A6"/>
</linearGradient>
<linearGradient id="paint10_linear_5211_18783" x1="251.252" y1="257.885" x2="265.479" y2="257.885" gradientUnits="userSpaceOnUse">
<stop stop-color="#283376"/>
<stop offset="1" stop-color="#1C67A6"/>
</linearGradient>
<linearGradient id="paint11_linear_5211_18783" x1="339.539" y1="256.62" x2="372.132" y2="256.62" gradientUnits="userSpaceOnUse">
<stop stop-color="#283478"/>
<stop offset="1" stop-color="#1675B1"/>
</linearGradient>
<linearGradient id="paint12_linear_5211_18783" x1="365.57" y1="258.407" x2="368.837" y2="258.407" gradientUnits="userSpaceOnUse">
<stop stop-color="#283478"/>
<stop offset="1" stop-color="#1675B1"/>
</linearGradient>
<clipPath id="clip0_5211_18783">
<rect width="46.019" height="55.04" fill="white" transform="translate(176.656 52.6001)"/>
</clipPath>
</defs>
</svg>
