<svg width="400" height="335" viewBox="0 0 400 335" fill="none" xmlns="http://www.w3.org/2000/svg">
<rect x="0.666016" y="0.620117" width="399.333" height="334" rx="4" fill="white"/>
<rect x="0.666016" y="0.620117" width="399.333" height="206" rx="4" fill="#EDF2F7"/>
<g clip-path="url(#clip0_5254_17935)">
<g clip-path="url(#clip1_5254_17935)">
<path fill-rule="evenodd" clip-rule="evenodd" d="M189.718 50.8647H210.947C214.473 50.8647 217.332 53.7358 217.332 57.2691V103.732C217.332 107.267 214.473 110.135 210.947 110.135H189.718C186.192 110.135 183.332 107.267 183.332 103.732V57.2609C183.332 53.7173 186.186 50.8647 189.718 50.8647ZM189.678 82.4352C189.233 82.4352 188.873 82.0734 188.873 81.6281C188.873 81.1829 189.233 80.8222 189.678 80.8222H210.987C211.431 80.8222 211.791 81.1829 211.791 81.6281C211.791 82.0734 211.431 82.4352 210.987 82.4352H189.678ZM189.678 86.8485C189.233 86.8485 188.873 86.4867 188.873 86.0415C188.873 85.5962 189.233 85.2344 189.678 85.2344H207.204C207.648 85.2344 208.009 85.5962 208.009 86.0415C208.009 86.4867 207.648 86.8485 207.204 86.8485H189.678ZM189.678 95.6729C189.233 95.6729 188.873 95.3122 188.873 94.867C188.873 94.4217 189.233 94.0599 189.678 94.0599H195.276C195.72 94.0599 196.081 94.4217 196.081 94.867C196.081 95.3122 195.72 95.6729 195.276 95.6729H189.678ZM189.678 91.2607C189.233 91.2607 188.873 90.8989 188.873 90.4536C188.873 90.0084 189.233 89.6477 189.678 89.6477H198.582C199.026 89.6477 199.387 90.0084 199.387 90.4536C199.387 90.8989 199.026 91.2607 198.582 91.2607H189.678ZM203.87 95.6207C203.937 95.6796 203.992 95.7512 204.031 95.8314C204.071 95.9116 204.094 95.9988 204.1 96.0881C204.106 96.1774 204.094 96.2669 204.066 96.3517C204.037 96.4364 203.992 96.5146 203.933 96.582C203.874 96.6493 203.803 96.7043 203.723 96.7439C203.643 96.7836 203.556 96.807 203.467 96.8129C203.378 96.8189 203.289 96.8071 203.204 96.7784C203.12 96.7498 203.042 96.7047 202.975 96.6457L200.832 94.7637C200.764 94.7048 200.71 94.6332 200.67 94.553C200.631 94.4728 200.607 94.3856 200.601 94.2963C200.595 94.2071 200.607 94.1175 200.636 94.0328C200.664 93.948 200.709 93.8698 200.768 93.8025L200.836 93.7341L202.975 91.8555C203.042 91.7967 203.12 91.7517 203.204 91.723C203.289 91.6945 203.378 91.6828 203.467 91.6889C203.556 91.6949 203.643 91.7185 203.723 91.7582C203.803 91.7979 203.875 91.8531 203.933 91.9205C204.052 92.0565 204.112 92.2341 204.1 92.4143C204.088 92.5945 204.005 92.7626 203.87 92.8818L202.31 94.2512L203.87 95.6207ZM209.011 96.6457C208.944 96.7047 208.866 96.7498 208.782 96.7785C208.697 96.8072 208.608 96.8189 208.519 96.813C208.43 96.8071 208.343 96.7836 208.263 96.744C208.183 96.7043 208.111 96.6493 208.053 96.582C207.994 96.5147 207.949 96.4364 207.92 96.3517C207.892 96.2669 207.88 96.1774 207.886 96.0881C207.892 95.9988 207.915 95.9116 207.955 95.8314C207.994 95.7512 208.049 95.6796 208.116 95.6207L209.675 94.2512L208.116 92.8818C208.049 92.8228 207.994 92.7512 207.955 92.671C207.915 92.5908 207.892 92.5036 207.886 92.4143C207.88 92.3251 207.892 92.2355 207.92 92.1508C207.949 92.066 207.994 91.9878 208.053 91.9205C208.299 91.6364 208.729 91.6086 209.011 91.8555L211.148 93.7341L211.218 93.8025C211.277 93.8698 211.321 93.9482 211.35 94.0329C211.378 94.1177 211.39 94.2073 211.384 94.2966C211.378 94.3858 211.355 94.473 211.315 94.5532C211.275 94.6334 211.22 94.7049 211.153 94.7637L209.011 96.6457ZM205.869 91.4671C205.954 91.1007 206.32 90.8722 206.687 90.9569C207.052 91.0427 207.281 91.4103 207.196 91.7767L205.971 97.0354C205.93 97.2115 205.82 97.364 205.667 97.4596C205.514 97.5552 205.329 97.5861 205.153 97.5456C204.787 97.4598 204.559 97.0922 204.644 96.7257L205.869 91.4671ZM209.63 69.3541C209.536 69.2892 209.438 69.266 209.33 69.2845C209.223 69.3042 209.136 69.3599 209.071 69.4527L208.721 69.9513C208.594 69.8968 208.462 69.8539 208.326 69.8179C208.19 69.782 208.053 69.7553 207.915 69.7344L207.8 69.0816C207.782 68.9714 207.729 68.8856 207.639 68.8218C207.548 68.7581 207.45 68.7372 207.34 68.7569L206.521 68.8995C206.417 68.9181 206.333 68.9714 206.267 69.0619C206.202 69.1523 206.18 69.252 206.199 69.3622L206.303 69.9594C206.172 70.0162 206.046 70.08 205.927 70.1519C205.807 70.2238 205.696 70.3015 205.59 70.3849L205.04 70.0023C204.952 69.9374 204.855 69.913 204.746 69.9316C204.639 69.9501 204.554 70.0069 204.488 70.0985L204.015 70.7746C203.951 70.8673 203.927 70.9671 203.946 71.0749C203.966 71.1816 204.021 71.2697 204.114 71.3335L204.611 71.686C204.557 71.8135 204.514 71.9446 204.478 72.0814C204.442 72.2182 204.416 72.3562 204.395 72.4942L203.744 72.6078C203.634 72.6264 203.547 72.6809 203.485 72.7713C203.421 72.8606 203.4 72.9604 203.419 73.0705L203.562 73.8903C203.581 73.9959 203.634 74.0805 203.724 74.1466C203.814 74.2104 203.912 74.2336 204.022 74.2138L204.619 74.1095C204.676 74.2417 204.739 74.3669 204.811 74.4863C204.883 74.6069 204.961 74.7217 205.045 74.8319L204.662 75.3769C204.597 75.465 204.573 75.5613 204.591 75.6703C204.61 75.7781 204.666 75.8639 204.758 75.93L205.433 76.4112C205.525 76.4715 205.624 76.4912 205.73 76.4727C205.838 76.4541 205.926 76.4008 205.991 76.3138L206.341 75.8071C206.467 75.8604 206.599 75.9045 206.735 75.9393C206.872 75.9752 207.008 76.0031 207.146 76.0228L207.26 76.6768C207.279 76.7869 207.333 76.8727 207.422 76.9365C207.513 76.9991 207.612 77.0212 207.722 77.0015L208.539 76.8588C208.645 76.8403 208.729 76.7869 208.794 76.6965C208.859 76.606 208.882 76.5063 208.862 76.3962L208.758 75.7978C208.888 75.7432 209.013 75.6792 209.134 75.6065C209.254 75.5334 209.369 75.4557 209.478 75.3711L210.022 75.7561C210.11 75.821 210.207 75.8454 210.317 75.8257C210.429 75.8059 210.512 75.7503 210.573 75.6598L211.054 74.9826C211.114 74.8899 211.133 74.7913 211.115 74.6835C211.096 74.5756 211.043 74.4887 210.956 74.4226L210.45 74.0724C210.504 73.9448 210.547 73.8126 210.583 73.6758C210.619 73.5401 210.647 73.4021 210.666 73.2642L211.318 73.1505C211.428 73.1308 211.514 73.0775 211.577 72.987C211.64 72.8977 211.662 72.798 211.642 72.6879L211.5 71.868C211.481 71.7625 211.428 71.6779 211.338 71.6118C211.248 71.5468 211.148 71.5248 211.039 71.5434L210.442 71.6477C210.386 71.5199 210.322 71.3956 210.251 71.2755C210.178 71.1526 210.101 71.0389 210.017 70.9346L210.4 70.3815C210.465 70.2933 210.489 70.1959 210.47 70.0869C210.451 69.9803 210.394 69.8944 210.303 69.8284L209.63 69.3541ZM207.292 71.5063C207.48 71.4738 207.664 71.4784 207.844 71.5202C208.024 71.5631 208.187 71.635 208.331 71.737C208.476 71.8391 208.598 71.9678 208.7 72.1231C208.8 72.2797 208.867 72.4513 208.899 72.6403C208.933 72.8282 208.928 73.0125 208.886 73.1934C208.844 73.3732 208.771 73.5367 208.67 73.6816C208.566 73.8281 208.435 73.9536 208.284 74.0515C208.129 74.1524 207.958 74.2185 207.769 74.251C207.582 74.2846 207.398 74.2799 207.216 74.2382C207.037 74.1953 206.875 74.1234 206.73 74.0214C206.585 73.9193 206.462 73.7906 206.362 73.6352C206.261 73.4787 206.194 73.3071 206.162 73.1181C206.129 72.9302 206.134 72.7458 206.176 72.5649C206.218 72.384 206.29 72.2217 206.392 72.0756C206.494 71.9318 206.622 71.8089 206.777 71.7069C206.933 71.606 207.104 71.5399 207.292 71.5063ZM201.018 61.5003C200.977 61.4597 200.938 61.4307 200.9 61.4157C200.864 61.4006 200.82 61.3925 200.769 61.3925C200.718 61.3925 200.673 61.4006 200.636 61.4157C200.598 61.4319 200.559 61.4597 200.522 61.4968L199.735 62.283C199.673 62.3451 199.59 62.3832 199.503 62.3906C199.415 62.398 199.327 62.3743 199.255 62.3236C199.166 62.2668 199.07 62.2111 198.97 62.1555C198.861 62.0975 198.755 62.0442 198.651 61.9966C198.542 61.9456 198.43 61.8992 198.32 61.8563C198.219 61.8169 198.104 61.7763 197.98 61.7346C197.904 61.7098 197.839 61.6618 197.792 61.5975C197.746 61.5332 197.721 61.4557 197.721 61.3762V60.1726C197.721 60.1193 197.713 60.0729 197.696 60.0323C197.679 59.9913 197.653 59.9543 197.621 59.9233C197.59 59.891 197.553 59.865 197.513 59.8468C197.472 59.8317 197.426 59.8236 197.373 59.8236H195.865C195.816 59.8236 195.773 59.8305 195.737 59.8456C195.697 59.863 195.656 59.8897 195.618 59.9279C195.584 59.9616 195.558 59.9975 195.543 60.0358C195.527 60.0741 195.519 60.1204 195.519 60.1726V61.2754C195.519 61.4609 195.385 61.6151 195.209 61.6464C195.089 61.6754 194.979 61.7044 194.88 61.7346C194.769 61.7693 194.657 61.8088 194.547 61.8517L194.529 61.8586C194.428 61.8969 194.327 61.941 194.222 61.9897L194.204 61.9966C194.103 62.0442 194.007 62.0929 193.915 62.1427C193.767 62.2239 193.588 62.1937 193.473 62.0813L192.596 61.2151C192.563 61.1791 192.527 61.1525 192.491 61.1374C192.457 61.1223 192.415 61.1142 192.366 61.1142C192.318 61.1142 192.274 61.1235 192.237 61.1385C192.195 61.1559 192.155 61.1849 192.115 61.2232L191.063 62.2819C191.024 62.3213 190.995 62.3607 190.979 62.4001C190.964 62.4373 190.955 62.4813 190.955 62.5323C190.955 62.5834 190.964 62.6286 190.979 62.6657C190.996 62.704 191.023 62.7422 191.06 62.7793L191.844 63.5678C191.974 63.7 191.988 63.9041 191.884 64.0502C191.827 64.1383 191.772 64.2346 191.718 64.3366C191.659 64.4456 191.605 64.5523 191.558 64.6567C191.458 64.8753 191.371 65.0999 191.298 65.3292C191.273 65.4046 191.225 65.4702 191.161 65.5167C191.097 65.5631 191.02 65.588 190.94 65.5878L189.739 65.589C189.686 65.589 189.639 65.5971 189.6 65.6133C189.561 65.6284 189.524 65.6539 189.49 65.6875C189.456 65.7223 189.431 65.7583 189.415 65.7977C189.399 65.8383 189.391 65.8847 189.391 65.938V67.4501C189.391 67.4988 189.398 67.5417 189.413 67.5776C189.43 67.6182 189.458 67.6576 189.495 67.6971C189.53 67.7307 189.565 67.7562 189.602 67.7724C189.641 67.7875 189.687 67.7956 189.739 67.7956H190.839C191.024 67.7956 191.179 67.9301 191.21 68.1076C191.238 68.227 191.268 68.3371 191.298 68.4369C191.332 68.5482 191.371 68.6595 191.413 68.7697L191.423 68.7963C191.46 68.8903 191.504 68.9935 191.552 69.1036C191.605 69.2207 191.657 69.3286 191.707 69.4248C191.785 69.5744 191.752 69.7518 191.64 69.8655L190.778 70.7259C190.743 70.7606 190.716 70.7954 190.701 70.8314C190.686 70.8673 190.679 70.9091 190.679 70.9566C190.679 71.0065 190.687 71.0494 190.703 71.0865C190.721 71.1282 190.75 71.17 190.788 71.2082L191.836 72.2716C191.873 72.3064 191.913 72.333 191.952 72.3481C191.993 72.3632 192.039 72.3725 192.092 72.3725C192.145 72.3725 192.194 72.3632 192.234 72.3481L192.246 72.3435C192.281 72.3284 192.314 72.3052 192.346 72.275L193.123 71.4842C193.25 71.3543 193.446 71.337 193.592 71.4309C193.69 71.4935 193.791 71.5538 193.892 71.6083C194 71.6674 194.107 71.7196 194.211 71.7683C194.43 71.8673 194.654 71.9544 194.882 72.0292C195.04 72.0814 195.141 72.2287 195.141 72.3875V73.5912C195.141 73.6445 195.149 73.692 195.165 73.7315L195.171 73.7454C195.186 73.7779 195.209 73.8092 195.24 73.8405C195.276 73.8753 195.313 73.9019 195.35 73.917C195.389 73.9332 195.436 73.9413 195.489 73.9413H196.997C197.045 73.9413 197.088 73.9332 197.124 73.9193C197.164 73.9019 197.205 73.8741 197.243 73.837C197.278 73.8022 197.303 73.7663 197.318 73.728C197.334 73.6897 197.343 73.6445 197.343 73.5912V72.4884C197.343 72.3029 197.477 72.1487 197.653 72.1173C197.774 72.0884 197.885 72.0582 197.986 72.0281C198.099 71.9921 198.21 71.9538 198.315 71.9133C198.42 71.8715 198.531 71.8251 198.646 71.773C198.764 71.7196 198.871 71.6674 198.966 71.6187C199.115 71.5399 199.294 71.5723 199.406 71.686L200.265 72.5487C200.297 72.5835 200.332 72.609 200.37 72.6252L200.389 72.6345C200.42 72.645 200.457 72.6496 200.5 72.6496C200.553 72.6496 200.598 72.6415 200.632 72.6264C200.67 72.609 200.704 72.5835 200.737 72.5487L201.807 71.49C201.841 71.4518 201.867 71.4123 201.882 71.3729C201.898 71.3323 201.906 71.2848 201.906 71.2326C201.906 71.1781 201.898 71.1306 201.882 71.09L201.877 71.0772C201.862 71.0436 201.839 71.0088 201.809 70.9775L201.02 70.1994C200.959 70.1387 200.92 70.0586 200.911 69.9727C200.901 69.8868 200.921 69.8002 200.968 69.7275C201.031 69.6301 201.09 69.5292 201.144 69.4271C201.203 69.3181 201.256 69.2115 201.303 69.1083C201.353 68.9981 201.399 68.8868 201.443 68.7755C201.483 68.6746 201.523 68.5598 201.565 68.4346C201.59 68.3594 201.637 68.2939 201.701 68.2474C201.765 68.201 201.842 68.176 201.921 68.176H203.123C203.176 68.176 203.222 68.1667 203.261 68.1516L203.276 68.1458C203.31 68.1296 203.341 68.1064 203.371 68.0762C203.406 68.0415 203.431 68.0044 203.448 67.9661C203.463 67.9267 203.471 67.8791 203.471 67.8258V66.3149C203.471 66.2662 203.464 66.2233 203.449 66.1861C203.431 66.1456 203.404 66.1061 203.367 66.0667C203.332 66.0331 203.296 66.0076 203.259 65.9925C203.221 65.9763 203.175 65.9681 203.123 65.9681H202.023C201.834 65.9681 201.678 65.829 201.65 65.6481C201.625 65.5461 201.595 65.4394 201.561 65.3315C201.529 65.2249 201.491 65.1135 201.447 64.9987L201.44 64.979C201.398 64.87 201.356 64.7657 201.31 64.6671C201.261 64.5593 201.21 64.4561 201.157 64.3598C201.077 64.2114 201.107 64.0317 201.219 63.9169L202.083 63.0379C202.119 63.0043 202.145 62.9683 202.16 62.9324C202.175 62.8976 202.182 62.8559 202.182 62.8072C202.182 62.7585 202.174 62.7144 202.159 62.6773C202.141 62.6355 202.113 62.5938 202.075 62.5555L201.018 61.5003ZM201.191 60.7234C201.324 60.7791 201.445 60.8614 201.55 60.9669L202.609 62.0279C202.713 62.1346 202.794 62.2529 202.85 62.3828C202.906 62.5161 202.935 62.6576 202.935 62.8072C202.935 62.9591 202.905 63.1017 202.847 63.2339C202.791 63.3638 202.707 63.4785 202.602 63.5806L201.943 64.2508L201.992 64.3552C202.045 64.4711 202.094 64.5906 202.141 64.7112L202.149 64.7297C202.194 64.8503 202.238 64.9779 202.278 65.1101L202.31 65.2133H203.123C203.273 65.2133 203.414 65.2411 203.547 65.2968C203.679 65.353 203.798 65.435 203.899 65.5379L203.907 65.5461C204.01 65.6527 204.088 65.7699 204.141 65.8986C204.196 66.0319 204.224 66.1711 204.224 66.3149V67.8258C204.224 67.9765 204.196 68.1168 204.143 68.249C204.087 68.3829 204.005 68.5046 203.903 68.6073C203.804 68.7059 203.695 68.7813 203.576 68.8358L203.544 68.8497C203.413 68.903 203.272 68.9297 203.123 68.9297H202.187L202.142 69.0468C202.093 69.172 202.041 69.2973 201.986 69.4202C201.93 69.5435 201.869 69.6649 201.805 69.7843L201.758 69.8713L202.351 70.4568C202.445 70.5566 202.518 70.6679 202.569 70.7885L202.581 70.8163C202.632 70.9473 202.659 71.0865 202.659 71.2326C202.659 71.3775 202.632 71.5155 202.581 71.6466C202.529 71.7787 202.452 71.8998 202.355 72.0037L201.279 73.0694C201.176 73.1784 201.058 73.2618 200.929 73.3175C200.793 73.3743 200.651 73.4045 200.5 73.4045C200.363 73.4045 200.234 73.3801 200.111 73.3314L200.073 73.3175C199.94 73.2592 199.82 73.1744 199.721 73.0682L199.065 72.4084L198.955 72.4594C198.84 72.5116 198.716 72.5638 198.586 72.6136C198.459 72.6635 198.331 72.7076 198.205 72.747L198.094 72.7783V73.5912C198.096 73.7361 198.068 73.8799 198.012 74.0138C197.957 74.1477 197.875 74.269 197.772 74.3704L197.764 74.3785C197.657 74.4817 197.539 74.5606 197.412 74.6127C197.278 74.6672 197.14 74.6951 196.997 74.6951H195.489C195.34 74.6951 195.198 74.6684 195.068 74.6151C194.933 74.5598 194.811 74.4778 194.708 74.3739C194.614 74.2791 194.537 74.1679 194.483 74.0457L194.469 74.0144C194.416 73.8822 194.388 73.7419 194.388 73.5912V72.6531L194.272 72.609C194.146 72.5603 194.022 72.507 193.9 72.4513C193.771 72.3922 193.649 72.3319 193.537 72.2716L193.45 72.2229L192.865 72.8177C192.766 72.9117 192.655 72.9859 192.535 73.0369L192.507 73.0485C192.375 73.1006 192.234 73.127 192.092 73.1262C191.948 73.1262 191.81 73.1007 191.679 73.0485C191.547 72.9965 191.425 72.9193 191.322 72.8212L190.252 71.7358C190.148 71.6292 190.067 71.5109 190.012 71.381C189.955 71.2469 189.926 71.1024 189.926 70.9566C189.926 70.8047 189.956 70.6621 190.014 70.5299C190.072 70.3982 190.156 70.2798 190.262 70.182L190.92 69.5234L190.868 69.4132C190.822 69.31 190.774 69.1952 190.725 69.0677L190.715 69.0433C190.666 68.9193 190.621 68.7894 190.581 68.6572L190.55 68.5505H189.739C189.588 68.5505 189.447 68.5227 189.314 68.467C189.184 68.4125 189.067 68.3314 188.962 68.2258L188.955 68.2189C188.851 68.111 188.773 67.9939 188.72 67.8652C188.666 67.7319 188.639 67.5939 188.639 67.4501V65.938C188.639 65.7873 188.666 65.6458 188.719 65.5148C188.774 65.3808 188.855 65.2593 188.958 65.1576C189.067 65.0486 189.186 64.9686 189.318 64.9141C189.449 64.8608 189.59 64.8341 189.739 64.8341H190.674L190.72 64.717C190.768 64.5907 190.82 64.4662 190.877 64.3436C190.935 64.2149 190.995 64.0931 191.056 63.9795L191.106 63.8902L190.533 63.3151C190.429 63.2133 190.345 63.0914 190.288 62.9567C190.231 62.8225 190.202 62.6781 190.203 62.5323C190.203 62.3851 190.231 62.2436 190.288 62.1091C190.345 61.9751 190.428 61.8534 190.531 61.7508L191.589 60.6875C191.696 60.5831 191.814 60.5019 191.943 60.4463C192.077 60.3895 192.218 60.3605 192.366 60.3605C192.518 60.3605 192.66 60.3895 192.793 60.4486C192.921 60.5054 193.037 60.5877 193.138 60.6944L193.806 61.3542L193.908 61.3055C194.017 61.2557 194.135 61.2058 194.258 61.1571L194.274 61.1501C194.398 61.1014 194.528 61.0574 194.661 61.0168L194.767 60.9855V60.1726C194.766 60.0276 194.794 59.8839 194.849 59.7499C194.905 59.616 194.986 59.4948 195.09 59.3934L195.098 59.3853C195.204 59.2821 195.322 59.2044 195.449 59.151C195.584 59.0965 195.721 59.0687 195.865 59.0687H197.373C197.522 59.0687 197.663 59.0954 197.794 59.1487C197.929 59.2055 198.048 59.2844 198.153 59.3899C198.258 59.4954 198.338 59.616 198.393 59.7494C198.446 59.8804 198.474 60.0219 198.474 60.1726V61.1107L198.589 61.1548C198.714 61.2035 198.84 61.2568 198.962 61.3125C199.09 61.3716 199.213 61.4319 199.325 61.4922L199.414 61.5421L199.989 60.9692C200.094 60.8614 200.214 60.7791 200.345 60.7234C200.48 60.6666 200.622 60.6376 200.769 60.6376C200.916 60.6376 201.057 60.6654 201.191 60.7234ZM197.731 63.8044C198.139 63.9818 198.494 64.2195 198.789 64.5164L198.811 64.5396C199.098 64.8329 199.329 65.1808 199.501 65.5785L199.512 65.611C199.677 66.0157 199.761 66.4505 199.761 66.8819C199.761 67.3237 199.674 67.769 199.501 68.1829V68.1864C199.326 68.5923 199.087 68.9471 198.789 69.2463C198.491 69.5454 198.137 69.7843 197.731 69.9594L197.699 69.9721C196.876 70.3089 195.953 70.3043 195.134 69.9594H195.13C194.724 69.7843 194.37 69.5454 194.073 69.2474C193.774 68.9471 193.537 68.5923 193.361 68.1864L193.349 68.1539C193.183 67.7481 193.101 67.3132 193.101 66.8819C193.101 66.4401 193.187 65.9948 193.361 65.5809V65.5785C193.537 65.1704 193.775 64.8155 194.072 64.5175C194.367 64.2195 194.722 63.9818 195.13 63.8044L195.163 63.7928C195.566 63.6258 196 63.5423 196.431 63.5423C196.872 63.5423 197.315 63.6293 197.728 63.8044H197.731ZM198.257 65.0498C198.028 64.8202 197.753 64.6346 197.434 64.4967C197.121 64.3633 196.777 64.2972 196.431 64.2972C196.092 64.2972 195.757 64.3598 195.449 64.4862L195.427 64.4967C195.108 64.6346 194.833 64.8202 194.604 65.0498C194.374 65.2782 194.19 65.5542 194.051 65.8754C193.918 66.1908 193.852 66.5352 193.852 66.8819C193.852 67.2205 193.916 67.5568 194.041 67.8664L194.051 67.8884C194.19 68.2096 194.374 68.4856 194.602 68.714C194.831 68.9436 195.107 69.1291 195.427 69.2671C195.741 69.4005 196.084 69.4666 196.431 69.4666C196.769 69.4666 197.104 69.404 197.412 69.2776L197.434 69.2671C197.754 69.1291 198.031 68.9436 198.257 68.7152C198.487 68.4856 198.671 68.2096 198.81 67.8884C198.942 67.573 199.009 67.2286 199.009 66.8819C199.009 66.5433 198.945 66.207 198.819 65.8974L198.81 65.8754C198.675 65.5635 198.498 65.2933 198.278 65.0683L198.257 65.0498ZM185.532 101.24H215.123V57.2076H185.532V101.24ZM200.324 103.244C201.768 103.244 202.949 104.41 202.949 105.876C202.949 107.327 201.787 108.509 200.324 108.509C198.88 108.509 197.698 107.344 197.698 105.876C197.698 104.429 198.861 103.244 200.324 103.244Z" fill="#002680"/>
</g>
</g>
<path d="M184.774 135.076V147.64H182.254V139.468L178.888 147.64H176.98L173.596 139.468V147.64H171.076V135.076H173.938L177.934 144.418L181.93 135.076H184.774ZM191.693 147.802C190.733 147.802 189.869 147.592 189.101 147.172C188.333 146.74 187.727 146.134 187.283 145.354C186.851 144.574 186.635 143.674 186.635 142.654C186.635 141.634 186.857 140.734 187.301 139.954C187.757 139.174 188.375 138.574 189.155 138.154C189.935 137.722 190.805 137.506 191.765 137.506C192.725 137.506 193.595 137.722 194.375 138.154C195.155 138.574 195.767 139.174 196.211 139.954C196.667 140.734 196.895 141.634 196.895 142.654C196.895 143.674 196.661 144.574 196.193 145.354C195.737 146.134 195.113 146.74 194.321 147.172C193.541 147.592 192.665 147.802 191.693 147.802ZM191.693 145.606C192.149 145.606 192.575 145.498 192.971 145.282C193.379 145.054 193.703 144.718 193.943 144.274C194.183 143.83 194.303 143.29 194.303 142.654C194.303 141.706 194.051 140.98 193.547 140.476C193.055 139.96 192.449 139.702 191.729 139.702C191.009 139.702 190.403 139.96 189.911 140.476C189.431 140.98 189.191 141.706 189.191 142.654C189.191 143.602 189.425 144.334 189.893 144.85C190.373 145.354 190.973 145.606 191.693 145.606ZM201.264 139.126C201.588 138.646 202.032 138.256 202.596 137.956C203.172 137.656 203.826 137.506 204.558 137.506C205.41 137.506 206.178 137.716 206.862 138.136C207.558 138.556 208.104 139.156 208.5 139.936C208.908 140.704 209.112 141.598 209.112 142.618C209.112 143.638 208.908 144.544 208.5 145.336C208.104 146.116 207.558 146.722 206.862 147.154C206.178 147.586 205.41 147.802 204.558 147.802C203.814 147.802 203.16 147.658 202.596 147.37C202.044 147.07 201.6 146.686 201.264 146.218V147.64H198.744V134.32H201.264V139.126ZM206.538 142.618C206.538 142.018 206.412 141.502 206.16 141.07C205.92 140.626 205.596 140.29 205.188 140.062C204.792 139.834 204.36 139.72 203.892 139.72C203.436 139.72 203.004 139.84 202.596 140.08C202.2 140.308 201.876 140.644 201.624 141.088C201.384 141.532 201.264 142.054 201.264 142.654C201.264 143.254 201.384 143.776 201.624 144.22C201.876 144.664 202.2 145.006 202.596 145.246C203.004 145.474 203.436 145.588 203.892 145.588C204.36 145.588 204.792 145.468 205.188 145.228C205.596 144.988 205.92 144.646 206.16 144.202C206.412 143.758 206.538 143.23 206.538 142.618ZM212.221 136.48C211.777 136.48 211.405 136.342 211.105 136.066C210.817 135.778 210.673 135.424 210.673 135.004C210.673 134.584 210.817 134.236 211.105 133.96C211.405 133.672 211.777 133.528 212.221 133.528C212.665 133.528 213.031 133.672 213.319 133.96C213.619 134.236 213.769 134.584 213.769 135.004C213.769 135.424 213.619 135.778 213.319 136.066C213.031 136.342 212.665 136.48 212.221 136.48ZM213.463 137.668V147.64H210.943V137.668H213.463ZM218.473 134.32V147.64H215.953V134.32H218.473ZM230.233 142.438C230.233 142.798 230.209 143.122 230.161 143.41H222.871C222.931 144.13 223.183 144.694 223.627 145.102C224.071 145.51 224.617 145.714 225.265 145.714C226.201 145.714 226.867 145.312 227.263 144.508H229.981C229.693 145.468 229.141 146.26 228.325 146.884C227.509 147.496 226.507 147.802 225.319 147.802C224.359 147.802 223.495 147.592 222.727 147.172C221.971 146.74 221.377 146.134 220.945 145.354C220.525 144.574 220.315 143.674 220.315 142.654C220.315 141.622 220.525 140.716 220.945 139.936C221.365 139.156 221.953 138.556 222.709 138.136C223.465 137.716 224.335 137.506 225.319 137.506C226.267 137.506 227.113 137.71 227.857 138.118C228.613 138.526 229.195 139.108 229.603 139.864C230.023 140.608 230.233 141.466 230.233 142.438ZM227.623 141.718C227.611 141.07 227.377 140.554 226.921 140.17C226.465 139.774 225.907 139.576 225.247 139.576C224.623 139.576 224.095 139.768 223.663 140.152C223.243 140.524 222.985 141.046 222.889 141.718H227.623Z" fill="#002680"/>
<rect x="0.666016" y="216.62" width="399.333" height="118" rx="4" fill="#EDF2F7"/>
<path d="M43.9336 274.27C41.2336 274.27 38.5336 274.27 35.8336 274.27C33.8062 274.305 31.831 273.626 30.253 272.353C28.675 271.08 27.5945 269.292 27.2002 267.303C27.0855 266.688 27.0297 266.063 27.0336 265.437C27.0336 260.059 27.0336 254.67 27.0336 249.27C26.9862 247.237 27.6622 245.253 28.9411 243.672C30.2201 242.091 32.0188 241.015 34.0169 240.637C34.5664 240.534 35.1245 240.483 35.6836 240.487H52.0002C54.145 240.412 56.2404 241.141 57.8748 242.532C59.5092 243.923 60.5646 245.874 60.8336 248.003C60.8945 248.434 60.9224 248.869 60.9169 249.303V265.437C60.9637 267.464 60.2941 269.443 59.026 271.025C57.7578 272.607 55.9723 273.691 53.9836 274.087C53.3292 274.206 52.6655 274.268 52.0002 274.27C49.2502 274.287 46.6002 274.27 43.9336 274.27ZM49.1669 242.937C48.0502 242.937 46.9502 242.937 45.8336 242.937C45.7154 242.926 45.5975 242.959 45.5022 243.03C45.4069 243.101 45.341 243.204 45.3169 243.32C44.7007 245.073 44.599 246.965 45.0237 248.774C45.4484 250.582 46.3819 252.232 47.7138 253.527C49.0458 254.822 50.7205 255.709 52.5403 256.083C54.3601 256.456 56.2489 256.302 57.9836 255.637C58.0865 255.613 58.1771 255.552 58.2385 255.466C58.2999 255.38 58.3278 255.275 58.3169 255.17C58.3169 253.12 58.3169 251.07 58.3169 249.02C58.2994 247.408 57.6478 245.867 56.503 244.732C55.3583 243.597 53.8125 242.958 52.2002 242.953L49.1669 242.937ZM40.9502 269.603C41.8479 269.682 42.7421 269.419 43.4533 268.865C44.1644 268.312 44.6397 267.51 44.7836 266.62C44.8842 266.116 44.9178 265.6 44.8836 265.087C44.9126 264.154 44.5833 263.246 43.9634 262.548C43.3434 261.851 42.4799 261.417 41.5502 261.337C40.788 261.184 39.997 261.273 39.2884 261.593C38.5798 261.913 37.9894 262.447 37.6002 263.12C37.1853 263.944 37.0064 264.867 37.0836 265.787C37.0636 266.301 37.1522 266.814 37.3436 267.292C37.535 267.77 37.8248 268.202 38.1943 268.56C38.5637 268.919 39.0045 269.196 39.488 269.372C39.9714 269.549 40.4867 269.622 41.0002 269.587L40.9502 269.603ZM45.8336 266.837C45.8227 267.333 45.9532 267.822 46.21 268.247C46.4667 268.672 46.8391 269.015 47.2836 269.237C47.8676 269.5 48.5011 269.637 49.1419 269.637C49.7827 269.637 50.4162 269.5 51.0002 269.237C51.4166 269.054 51.7673 268.749 52.0056 268.362C52.2438 267.975 52.3583 267.524 52.3336 267.07C52.3562 266.616 52.2345 266.167 51.986 265.787C51.7375 265.407 51.3749 265.115 50.9502 264.953C50.5379 264.782 50.1148 264.637 49.6836 264.52C49.1178 264.383 48.5612 264.21 48.0169 264.003C47.9033 263.944 47.8051 263.858 47.73 263.754C47.6548 263.65 47.6047 263.53 47.5836 263.403C47.611 263.277 47.6654 263.158 47.7431 263.054C47.8208 262.951 47.9198 262.865 48.0336 262.803C48.2515 262.684 48.4935 262.614 48.7418 262.6C48.9901 262.586 49.2384 262.627 49.4685 262.722C49.6987 262.816 49.9048 262.96 50.0718 263.145C50.2388 263.329 50.3624 263.548 50.4336 263.787L52.0002 263.703C52.0357 263.279 51.9436 262.854 51.7357 262.483C51.5278 262.112 51.2136 261.811 50.8336 261.62C50.2599 261.321 49.6224 261.164 48.9752 261.164C48.3281 261.164 47.6906 261.321 47.1169 261.62C46.7931 261.788 46.5193 262.039 46.3227 262.346C46.1262 262.654 46.0139 263.008 45.997 263.372C45.9801 263.737 46.0593 264.099 46.2266 264.423C46.3939 264.748 46.6434 265.022 46.9502 265.22C47.3352 265.441 47.7432 265.62 48.1669 265.753C48.7502 265.937 49.3502 266.07 49.9336 266.253C50.1172 266.282 50.2858 266.372 50.4127 266.508C50.5395 266.644 50.6173 266.818 50.6336 267.003C50.6439 267.202 50.5937 267.399 50.4895 267.569C50.3854 267.739 50.2322 267.873 50.0502 267.953C49.809 268.1 49.5369 268.189 49.2555 268.212C48.9741 268.235 48.6911 268.193 48.429 268.088C48.1669 267.983 47.933 267.818 47.7457 267.606C47.5585 267.395 47.423 267.143 47.3502 266.87C47.3572 266.792 47.3572 266.714 47.3502 266.637L45.8336 266.837ZM35.8336 269.453V261.437H34.1669V269.453H35.8336Z" fill="url(#paint0_linear_5254_17935)"/>
<path d="M38.7324 265.437C38.7634 265.045 38.8191 264.655 38.8991 264.27C38.9907 263.786 39.2533 263.352 39.6389 263.046C40.0244 262.74 40.5073 262.583 40.9991 262.603C41.4889 262.583 41.9695 262.741 42.3523 263.047C42.7351 263.353 42.9944 263.788 43.0824 264.27C43.2743 265.025 43.2743 265.815 43.0824 266.57C42.9772 267.092 42.6777 267.554 42.2445 267.864C41.8113 268.173 41.2768 268.306 40.7491 268.237C40.2349 268.179 39.7575 267.942 39.4008 267.567C39.0442 267.192 38.8311 266.703 38.7991 266.187V265.487L38.7324 265.437Z" fill="url(#paint1_linear_5254_17935)"/>
<path d="M33.9791 297.5V308.62H32.1551V297.5H33.9791ZM41.4458 308.732C40.4112 308.732 39.4565 308.492 38.5818 308.012C37.7178 307.521 37.0298 306.844 36.5178 305.98C36.0165 305.105 35.7658 304.124 35.7658 303.036C35.7658 301.948 36.0165 300.972 36.5178 300.108C37.0298 299.244 37.7178 298.572 38.5818 298.092C39.4565 297.601 40.4112 297.356 41.4458 297.356C42.4912 297.356 43.4458 297.601 44.3098 298.092C45.1845 298.572 45.8725 299.244 46.3738 300.108C46.8752 300.972 47.1258 301.948 47.1258 303.036C47.1258 304.124 46.8752 305.105 46.3738 305.98C45.8725 306.844 45.1845 307.521 44.3098 308.012C43.4458 308.492 42.4912 308.732 41.4458 308.732ZM41.4458 307.148C42.1818 307.148 42.8378 306.983 43.4138 306.652C43.9898 306.311 44.4378 305.831 44.7578 305.212C45.0885 304.583 45.2538 303.857 45.2538 303.036C45.2538 302.215 45.0885 301.495 44.7578 300.876C44.4378 300.257 43.9898 299.783 43.4138 299.452C42.8378 299.121 42.1818 298.956 41.4458 298.956C40.7098 298.956 40.0538 299.121 39.4778 299.452C38.9018 299.783 38.4485 300.257 38.1178 300.876C37.7978 301.495 37.6378 302.215 37.6378 303.036C37.6378 303.857 37.7978 304.583 38.1178 305.212C38.4485 305.831 38.9018 306.311 39.4778 306.652C40.0538 306.983 40.7098 307.148 41.4458 307.148ZM52.5847 308.732C51.838 308.732 51.166 308.604 50.5687 308.348C49.9714 308.081 49.502 307.708 49.1607 307.228C48.8194 306.748 48.6487 306.188 48.6487 305.548H50.6007C50.6434 306.028 50.83 306.423 51.1607 306.732C51.502 307.041 51.9767 307.196 52.5847 307.196C53.214 307.196 53.7047 307.047 54.0567 306.748C54.4087 306.439 54.5847 306.044 54.5847 305.564C54.5847 305.191 54.4727 304.887 54.2487 304.652C54.0354 304.417 53.7634 304.236 53.4327 304.108C53.1127 303.98 52.6647 303.841 52.0887 303.692C51.3634 303.5 50.7714 303.308 50.3127 303.116C49.8647 302.913 49.4807 302.604 49.1607 302.188C48.8407 301.772 48.6807 301.217 48.6807 300.524C48.6807 299.884 48.8407 299.324 49.1607 298.844C49.4807 298.364 49.9287 297.996 50.5047 297.74C51.0807 297.484 51.7474 297.356 52.5047 297.356C53.582 297.356 54.462 297.628 55.1447 298.172C55.838 298.705 56.222 299.441 56.2967 300.38H54.2807C54.2487 299.975 54.0567 299.628 53.7047 299.34C53.3527 299.052 52.8887 298.908 52.3127 298.908C51.79 298.908 51.3634 299.041 51.0327 299.308C50.702 299.575 50.5367 299.959 50.5367 300.46C50.5367 300.801 50.638 301.084 50.8407 301.308C51.054 301.521 51.3207 301.692 51.6407 301.82C51.9607 301.948 52.398 302.087 52.9527 302.236C53.6887 302.439 54.286 302.641 54.7447 302.844C55.214 303.047 55.6087 303.361 55.9287 303.788C56.2594 304.204 56.4247 304.764 56.4247 305.468C56.4247 306.033 56.27 306.567 55.9607 307.068C55.662 307.569 55.2194 307.975 54.6327 308.284C54.0567 308.583 53.374 308.732 52.5847 308.732Z" fill="#434343"/>
<path d="M133.627 252.937H138.777V253.42C138.777 257.103 138.777 260.787 138.777 264.487C138.777 265.388 139.135 266.253 139.773 266.891C140.41 267.528 141.275 267.887 142.177 267.887C143.079 267.887 143.943 267.528 144.581 266.891C145.219 266.253 145.577 265.388 145.577 264.487C145.577 260.82 145.577 257.137 145.577 253.453V252.953H150.727C150.627 253.687 150.527 254.37 150.41 255.053C149.877 258.387 149.36 261.637 148.744 264.937C148.554 266.083 147.972 267.128 147.096 267.891C146.22 268.654 145.105 269.089 143.944 269.12C142.61 269.12 141.294 269.12 139.977 269.12C138.83 269.02 137.753 268.528 136.927 267.727C136.101 266.925 135.577 265.863 135.444 264.72C134.877 260.92 134.283 257.109 133.66 253.287C133.644 253.287 133.644 253.103 133.627 252.937Z" fill="url(#paint2_linear_5254_17935)"/>
<path d="M133.678 252.287C133.866 250.158 134.845 248.177 136.421 246.734C137.998 245.291 140.057 244.491 142.194 244.491C144.331 244.491 146.391 245.291 147.967 246.734C149.544 248.177 150.523 250.158 150.711 252.287H133.678ZM145.561 249.82C145.7 249.825 145.838 249.801 145.967 249.751C146.096 249.701 146.214 249.626 146.313 249.53C146.413 249.433 146.492 249.318 146.546 249.19C146.6 249.063 146.628 248.926 146.628 248.787C146.62 248.509 146.507 248.245 146.312 248.048C146.117 247.85 145.855 247.733 145.578 247.72C145.299 247.72 145.032 247.831 144.835 248.028C144.638 248.225 144.528 248.492 144.528 248.77C144.528 249.049 144.638 249.316 144.835 249.513C145.032 249.71 145.299 249.82 145.578 249.82H145.561ZM138.778 249.82C138.915 249.823 139.052 249.797 139.18 249.745C139.307 249.693 139.423 249.615 139.52 249.517C139.616 249.419 139.692 249.302 139.742 249.174C139.792 249.045 139.816 248.908 139.811 248.77C139.807 248.496 139.697 248.234 139.505 248.038C139.312 247.843 139.052 247.729 138.778 247.72C138.498 247.729 138.232 247.848 138.039 248.05C137.846 248.253 137.74 248.524 137.744 248.804C137.744 248.939 137.771 249.072 137.823 249.197C137.875 249.321 137.952 249.434 138.048 249.528C138.144 249.623 138.258 249.698 138.384 249.748C138.509 249.798 138.643 249.823 138.778 249.82Z" fill="url(#paint3_linear_5254_17935)"/>
<path d="M139.411 252.937H144.977C144.985 253.042 144.985 253.148 144.977 253.253V264.37C144.991 264.922 144.839 265.466 144.542 265.932C144.246 266.398 143.817 266.765 143.311 266.987C142.848 267.207 142.332 267.29 141.823 267.225C141.315 267.16 140.836 266.95 140.444 266.62C140.098 266.379 139.817 266.057 139.625 265.682C139.434 265.307 139.337 264.891 139.344 264.47C139.344 260.653 139.344 256.82 139.344 253.003C139.364 252.979 139.387 252.957 139.411 252.937ZM142.211 263.287C142.033 263.28 141.856 263.309 141.689 263.372C141.523 263.435 141.37 263.53 141.241 263.653C141.113 263.776 141.009 263.923 140.938 264.086C140.867 264.249 140.83 264.425 140.827 264.603C140.827 264.963 140.969 265.308 141.222 265.564C141.475 265.82 141.818 265.965 142.177 265.97C142.355 265.977 142.533 265.948 142.699 265.885C142.866 265.822 143.018 265.726 143.147 265.603C143.276 265.481 143.379 265.333 143.45 265.17C143.521 265.007 143.559 264.831 143.561 264.653C143.561 264.294 143.419 263.948 143.166 263.693C142.914 263.437 142.57 263.291 142.211 263.287ZM142.111 256.87C141.744 256.87 141.377 256.87 141.027 256.87C140.677 256.87 140.794 257.07 140.677 257.17C140.561 257.27 140.911 257.453 141.027 257.453C141.761 257.453 142.477 257.453 143.211 257.453C143.344 257.453 143.461 257.27 143.577 257.17C143.694 257.07 143.344 256.87 143.194 256.853C143.044 256.837 142.444 256.87 142.111 256.87ZM142.111 259.52C141.75 259.495 141.388 259.495 141.027 259.52C140.894 259.52 140.777 259.703 140.644 259.82C140.761 259.92 140.877 260.103 140.994 260.103C141.727 260.103 142.461 260.103 143.177 260.103C143.311 260.103 143.427 259.92 143.544 259.82C143.661 259.72 143.294 259.537 143.161 259.52C142.811 259.495 142.46 259.495 142.111 259.52ZM142.111 254.837C142.46 254.861 142.811 254.861 143.161 254.837C143.294 254.837 143.427 254.653 143.544 254.553C143.661 254.453 143.311 254.287 143.177 254.27H140.994C140.877 254.27 140.761 254.453 140.644 254.553C140.527 254.653 140.861 254.82 140.994 254.837C141.366 254.861 141.739 254.861 142.111 254.837Z" fill="url(#paint4_linear_5254_17935)"/>
<path d="M153.779 256.72V260.437C153.778 260.708 153.685 260.971 153.516 261.183C153.346 261.395 153.11 261.543 152.845 261.603C152.595 261.663 152.331 261.639 152.096 261.533C151.861 261.428 151.667 261.247 151.545 261.02C151.442 260.819 151.385 260.597 151.379 260.37C151.379 257.953 151.379 255.553 151.379 253.137C151.36 252.976 151.375 252.813 151.422 252.658C151.469 252.503 151.547 252.36 151.652 252.237C151.757 252.113 151.885 252.013 152.031 251.941C152.176 251.869 152.334 251.828 152.495 251.82C152.66 251.797 152.827 251.812 152.986 251.862C153.144 251.912 153.289 251.997 153.41 252.11C153.532 252.224 153.626 252.363 153.687 252.517C153.748 252.672 153.774 252.838 153.762 253.003C153.779 254.237 153.779 255.487 153.779 256.72Z" fill="url(#paint5_linear_5254_17935)"/>
<path d="M130.612 256.62C130.612 255.387 130.612 254.137 130.612 252.904C130.61 252.623 130.71 252.351 130.894 252.139C131.079 251.927 131.334 251.79 131.612 251.754C131.886 251.712 132.166 251.766 132.405 251.905C132.645 252.045 132.83 252.262 132.929 252.52C132.945 252.692 132.945 252.865 132.929 253.037V260.287C132.949 260.457 132.933 260.63 132.881 260.794C132.83 260.958 132.744 261.109 132.63 261.238C132.516 261.366 132.376 261.469 132.219 261.539C132.062 261.609 131.892 261.646 131.721 261.646C131.549 261.646 131.379 261.609 131.222 261.539C131.066 261.469 130.926 261.366 130.811 261.238C130.697 261.109 130.612 260.958 130.56 260.794C130.508 260.63 130.492 260.457 130.512 260.287V256.62H130.612Z" fill="url(#paint6_linear_5254_17935)"/>
<path d="M143.995 269.737C143.995 270.387 143.995 271.003 143.995 271.603C143.959 272.044 143.764 272.456 143.446 272.763C143.128 273.07 142.709 273.25 142.268 273.271C141.827 273.291 141.393 273.15 141.048 272.874C140.703 272.597 140.471 272.205 140.395 271.77C140.353 271.093 140.353 270.414 140.395 269.737H143.995Z" fill="url(#paint7_linear_5254_17935)"/>
<path d="M146.544 240.403C146.544 240.279 146.568 240.157 146.616 240.042C146.664 239.928 146.734 239.824 146.823 239.737C146.911 239.651 147.016 239.582 147.131 239.536C147.246 239.49 147.37 239.468 147.494 239.47C147.623 239.466 147.751 239.487 147.871 239.534C147.992 239.581 148.101 239.652 148.193 239.742C148.285 239.832 148.358 239.941 148.406 240.06C148.455 240.18 148.479 240.308 148.477 240.437C148.464 240.688 148.358 240.924 148.179 241.1C148 241.276 147.761 241.379 147.51 241.387C147.381 241.389 147.253 241.365 147.134 241.316C147.014 241.268 146.906 241.195 146.816 241.103C146.725 241.011 146.654 240.901 146.608 240.781C146.561 240.661 146.539 240.532 146.544 240.403Z" fill="url(#paint8_linear_5254_17935)"/>
<path d="M135.895 240.437C135.892 240.309 135.916 240.183 135.964 240.064C136.011 239.946 136.083 239.838 136.173 239.748C136.263 239.658 136.37 239.587 136.489 239.539C136.607 239.491 136.734 239.468 136.861 239.47C137.112 239.47 137.353 239.567 137.533 239.741C137.714 239.916 137.819 240.153 137.828 240.403C137.828 240.664 137.724 240.914 137.54 241.099C137.356 241.283 137.105 241.387 136.845 241.387C136.593 241.387 136.351 241.287 136.173 241.109C135.995 240.93 135.895 240.689 135.895 240.437Z" fill="url(#paint9_linear_5254_17935)"/>
<path d="M137.195 241.953L137.779 241.72L138.929 244.42L138.395 244.687L137.195 241.953Z" fill="url(#paint10_linear_5254_17935)"/>
<path d="M145.979 244.72L145.445 244.487L146.645 241.754L147.179 241.987L145.979 244.72Z" fill="url(#paint11_linear_5254_17935)"/>
<path d="M142.945 264.57C142.941 264.765 142.863 264.951 142.727 265.09C142.59 265.229 142.406 265.312 142.212 265.32C142.11 265.32 142.01 265.3 141.917 265.26C141.824 265.22 141.739 265.162 141.669 265.089C141.599 265.016 141.545 264.929 141.509 264.834C141.473 264.739 141.457 264.638 141.462 264.537C141.466 264.341 141.547 264.154 141.687 264.017C141.827 263.88 142.016 263.803 142.212 263.803C142.409 263.812 142.596 263.897 142.732 264.039C142.869 264.182 142.945 264.372 142.945 264.57Z" fill="url(#paint12_linear_5254_17935)"/>
<path d="M118.117 306.348H113.461L112.661 308.62H110.757L114.741 297.484H116.853L120.837 308.62H118.917L118.117 306.348ZM117.605 304.86L115.797 299.692L113.973 304.86H117.605ZM127.017 299.66C127.71 299.66 128.329 299.804 128.873 300.092C129.428 300.38 129.86 300.807 130.169 301.372C130.478 301.937 130.633 302.62 130.633 303.42V308.62H128.825V303.692C128.825 302.903 128.628 302.3 128.233 301.884C127.838 301.457 127.3 301.244 126.617 301.244C125.934 301.244 125.39 301.457 124.985 301.884C124.59 302.3 124.393 302.903 124.393 303.692V308.62H122.569V299.804H124.393V300.812C124.692 300.449 125.07 300.167 125.529 299.964C125.998 299.761 126.494 299.66 127.017 299.66ZM132.352 304.172C132.352 303.287 132.533 302.503 132.896 301.82C133.269 301.137 133.77 300.609 134.4 300.236C135.04 299.852 135.749 299.66 136.528 299.66C137.104 299.66 137.669 299.788 138.224 300.044C138.789 300.289 139.237 300.62 139.568 301.036V296.78H141.408V308.62H139.568V307.292C139.269 307.719 138.853 308.071 138.32 308.348C137.797 308.625 137.194 308.764 136.512 308.764C135.744 308.764 135.04 308.572 134.4 308.188C133.77 307.793 133.269 307.249 132.896 306.556C132.533 305.852 132.352 305.057 132.352 304.172ZM139.568 304.204C139.568 303.596 139.44 303.068 139.184 302.62C138.938 302.172 138.613 301.831 138.208 301.596C137.802 301.361 137.365 301.244 136.896 301.244C136.426 301.244 135.989 301.361 135.584 301.596C135.178 301.82 134.848 302.156 134.592 302.604C134.346 303.041 134.224 303.564 134.224 304.172C134.224 304.78 134.346 305.313 134.592 305.772C134.848 306.231 135.178 306.583 135.584 306.828C136 307.063 136.437 307.18 136.896 307.18C137.365 307.18 137.802 307.063 138.208 306.828C138.613 306.593 138.938 306.252 139.184 305.804C139.44 305.345 139.568 304.812 139.568 304.204ZM145.628 301.084C145.894 300.636 146.246 300.289 146.684 300.044C147.132 299.788 147.66 299.66 148.268 299.66V301.548H147.804C147.089 301.548 146.545 301.729 146.172 302.092C145.809 302.455 145.628 303.084 145.628 303.98V308.62H143.804V299.804H145.628V301.084ZM153.768 308.764C152.936 308.764 152.184 308.577 151.512 308.204C150.84 307.82 150.312 307.287 149.928 306.604C149.544 305.911 149.352 305.111 149.352 304.204C149.352 303.308 149.549 302.513 149.944 301.82C150.339 301.127 150.877 300.593 151.56 300.22C152.243 299.847 153.005 299.66 153.848 299.66C154.691 299.66 155.453 299.847 156.136 300.22C156.819 300.593 157.357 301.127 157.752 301.82C158.147 302.513 158.344 303.308 158.344 304.204C158.344 305.1 158.141 305.895 157.736 306.588C157.331 307.281 156.776 307.82 156.072 308.204C155.379 308.577 154.611 308.764 153.768 308.764ZM153.768 307.18C154.237 307.18 154.675 307.068 155.08 306.844C155.496 306.62 155.832 306.284 156.088 305.836C156.344 305.388 156.472 304.844 156.472 304.204C156.472 303.564 156.349 303.025 156.104 302.588C155.859 302.14 155.533 301.804 155.128 301.58C154.723 301.356 154.285 301.244 153.816 301.244C153.347 301.244 152.909 301.356 152.504 301.58C152.109 301.804 151.795 302.14 151.56 302.588C151.325 303.025 151.208 303.564 151.208 304.204C151.208 305.153 151.448 305.889 151.928 306.412C152.419 306.924 153.032 307.18 153.768 307.18ZM161.075 298.636C160.745 298.636 160.467 298.524 160.243 298.3C160.019 298.076 159.907 297.799 159.907 297.468C159.907 297.137 160.019 296.86 160.243 296.636C160.467 296.412 160.745 296.3 161.075 296.3C161.395 296.3 161.667 296.412 161.891 296.636C162.115 296.86 162.227 297.137 162.227 297.468C162.227 297.799 162.115 298.076 161.891 298.3C161.667 298.524 161.395 298.636 161.075 298.636ZM161.971 299.804V308.62H160.147V299.804H161.971ZM163.758 304.172C163.758 303.287 163.939 302.503 164.302 301.82C164.675 301.137 165.177 300.609 165.806 300.236C166.446 299.852 167.155 299.66 167.934 299.66C168.51 299.66 169.075 299.788 169.63 300.044C170.195 300.289 170.643 300.62 170.974 301.036V296.78H172.814V308.62H170.974V307.292C170.675 307.719 170.259 308.071 169.726 308.348C169.203 308.625 168.601 308.764 167.918 308.764C167.15 308.764 166.446 308.572 165.806 308.188C165.177 307.793 164.675 307.249 164.302 306.556C163.939 305.852 163.758 305.057 163.758 304.172ZM170.974 304.204C170.974 303.596 170.846 303.068 170.59 302.62C170.345 302.172 170.019 301.831 169.614 301.596C169.209 301.361 168.771 301.244 168.302 301.244C167.833 301.244 167.395 301.361 166.99 301.596C166.585 301.82 166.254 302.156 165.998 302.604C165.753 303.041 165.63 303.564 165.63 304.172C165.63 304.78 165.753 305.313 165.998 305.772C166.254 306.231 166.585 306.583 166.99 306.828C167.406 307.063 167.843 307.18 168.302 307.18C168.771 307.18 169.209 307.063 169.614 306.828C170.019 306.593 170.345 306.252 170.59 305.804C170.846 305.345 170.974 304.812 170.974 304.204Z" fill="#434343"/>
<path d="M250.739 239.553C247.384 239.554 244.103 240.547 241.312 242.41C238.521 244.272 236.344 246.92 235.057 250.018C233.769 253.117 233.428 256.527 234.076 259.82C234.725 263.112 236.334 266.138 238.701 268.516C241.068 270.895 244.086 272.519 247.375 273.184C250.664 273.848 254.076 273.524 257.181 272.251C260.285 270.978 262.944 268.815 264.82 266.033C266.696 263.251 267.706 259.976 267.722 256.62C267.733 254.383 267.302 252.165 266.454 250.095C265.605 248.025 264.356 246.143 262.778 244.557C261.199 242.971 259.324 241.713 257.258 240.854C255.192 239.995 252.976 239.553 250.739 239.553ZM245.206 260.503C244.172 260.503 243.122 260.503 241.872 260.503C243.156 258.72 244.372 257.07 245.606 255.387C244.389 253.72 243.172 252.053 241.856 250.253C242.839 250.253 243.706 250.253 244.556 250.253C244.888 250.214 245.225 250.275 245.523 250.43C245.82 250.584 246.064 250.825 246.222 251.12C247.006 252.437 247.889 253.687 248.756 254.953C248.868 255.076 248.93 255.237 248.93 255.403C248.93 255.57 248.868 255.731 248.756 255.853C247.789 257.27 246.856 258.703 245.872 260.12C245.707 260.328 245.468 260.465 245.206 260.503ZM256.872 266.237C255.739 266.237 254.756 266.237 253.756 266.237C253.652 266.223 253.553 266.187 253.464 266.133C253.375 266.078 253.298 266.006 253.239 265.92L248.456 259.153C248.368 259.058 248.319 258.933 248.319 258.803C248.319 258.674 248.368 258.549 248.456 258.453L255.972 247.17C256.033 247.087 256.11 247.017 256.199 246.965C256.288 246.913 256.387 246.881 256.489 246.87C257.472 246.87 258.456 246.87 259.589 246.87L251.622 258.837L256.872 266.237Z" fill="url(#paint13_linear_5254_17935)"/>
<path d="M223.031 303.568L226.487 309.12H224.439L221.927 305.088L219.575 309.12H217.543L220.999 303.568L217.527 298H219.575L222.103 302.064L224.471 298H226.503L223.031 303.568ZM227.881 304.672C227.881 303.787 228.062 303.003 228.425 302.32C228.798 301.637 229.3 301.109 229.929 300.736C230.569 300.352 231.273 300.16 232.041 300.16C232.734 300.16 233.337 300.299 233.849 300.576C234.372 300.843 234.788 301.179 235.097 301.584V300.304H236.937V309.12H235.097V307.808C234.788 308.224 234.366 308.571 233.833 308.848C233.3 309.125 232.692 309.264 232.009 309.264C231.252 309.264 230.558 309.072 229.929 308.688C229.3 308.293 228.798 307.749 228.425 307.056C228.062 306.352 227.881 305.557 227.881 304.672ZM235.097 304.704C235.097 304.096 234.969 303.568 234.713 303.12C234.468 302.672 234.142 302.331 233.737 302.096C233.332 301.861 232.894 301.744 232.425 301.744C231.956 301.744 231.518 301.861 231.113 302.096C230.708 302.32 230.377 302.656 230.121 303.104C229.876 303.541 229.753 304.064 229.753 304.672C229.753 305.28 229.876 305.813 230.121 306.272C230.377 306.731 230.708 307.083 231.113 307.328C231.529 307.563 231.966 307.68 232.425 307.68C232.894 307.68 233.332 307.563 233.737 307.328C234.142 307.093 234.468 306.752 234.713 306.304C234.969 305.845 235.097 305.312 235.097 304.704ZM250.005 300.16C250.698 300.16 251.317 300.304 251.861 300.592C252.415 300.88 252.847 301.307 253.157 301.872C253.477 302.437 253.637 303.12 253.637 303.92V309.12H251.829V304.192C251.829 303.403 251.631 302.8 251.237 302.384C250.842 301.957 250.303 301.744 249.621 301.744C248.938 301.744 248.394 301.957 247.989 302.384C247.594 302.8 247.397 303.403 247.397 304.192V309.12H245.589V304.192C245.589 303.403 245.391 302.8 244.997 302.384C244.602 301.957 244.063 301.744 243.381 301.744C242.698 301.744 242.154 301.957 241.749 302.384C241.354 302.8 241.157 303.403 241.157 304.192V309.12H239.333V300.304H241.157V301.312C241.455 300.949 241.834 300.667 242.293 300.464C242.751 300.261 243.242 300.16 243.765 300.16C244.469 300.16 245.098 300.309 245.653 300.608C246.207 300.907 246.634 301.339 246.933 301.904C247.199 301.371 247.615 300.949 248.181 300.64C248.746 300.32 249.354 300.16 250.005 300.16ZM257.782 301.584C258.048 301.136 258.4 300.789 258.838 300.544C259.286 300.288 259.814 300.16 260.422 300.16V302.048H259.958C259.243 302.048 258.699 302.229 258.326 302.592C257.963 302.955 257.782 303.584 257.782 304.48V309.12H255.958V300.304H257.782V301.584ZM263.026 299.136C262.696 299.136 262.418 299.024 262.194 298.8C261.97 298.576 261.858 298.299 261.858 297.968C261.858 297.637 261.97 297.36 262.194 297.136C262.418 296.912 262.696 296.8 263.026 296.8C263.346 296.8 263.618 296.912 263.842 297.136C264.066 297.36 264.178 297.637 264.178 297.968C264.178 298.299 264.066 298.576 263.842 298.8C263.618 299.024 263.346 299.136 263.026 299.136ZM263.922 300.304V309.12H262.098V300.304H263.922ZM270.765 300.16C271.459 300.16 272.077 300.304 272.621 300.592C273.176 300.88 273.608 301.307 273.917 301.872C274.227 302.437 274.381 303.12 274.381 303.92V309.12H272.573V304.192C272.573 303.403 272.376 302.8 271.981 302.384C271.587 301.957 271.048 301.744 270.365 301.744C269.683 301.744 269.139 301.957 268.733 302.384C268.339 302.8 268.141 303.403 268.141 304.192V309.12H266.317V300.304H268.141V301.312C268.44 300.949 268.819 300.667 269.277 300.464C269.747 300.261 270.243 300.16 270.765 300.16ZM284.788 304.496C284.788 304.827 284.766 305.125 284.724 305.392H277.988C278.041 306.096 278.302 306.661 278.772 307.088C279.241 307.515 279.817 307.728 280.5 307.728C281.481 307.728 282.174 307.317 282.58 306.496H284.548C284.281 307.307 283.796 307.973 283.092 308.496C282.398 309.008 281.534 309.264 280.5 309.264C279.657 309.264 278.9 309.077 278.228 308.704C277.566 308.32 277.044 307.787 276.66 307.104C276.286 306.411 276.1 305.611 276.1 304.704C276.1 303.797 276.281 303.003 276.644 302.32C277.017 301.627 277.534 301.093 278.196 300.72C278.868 300.347 279.636 300.16 280.5 300.16C281.332 300.16 282.073 300.341 282.724 300.704C283.374 301.067 283.881 301.579 284.244 302.24C284.606 302.891 284.788 303.643 284.788 304.496ZM282.884 303.92C282.873 303.248 282.633 302.709 282.164 302.304C281.694 301.899 281.113 301.696 280.42 301.696C279.79 301.696 279.252 301.899 278.804 302.304C278.356 302.699 278.089 303.237 278.004 303.92H282.884Z" fill="#434343"/>
<path d="M367.334 255.77V264.753C367.362 266.9 366.624 268.987 365.253 270.639C363.881 272.292 361.966 273.402 359.851 273.77C359.3 273.861 358.742 273.905 358.184 273.903H340.267C338.111 273.946 336.01 273.215 334.347 271.842C332.683 270.469 331.567 268.545 331.201 266.42C331.107 265.897 331.062 265.367 331.067 264.836C331.067 261.381 331.067 257.942 331.067 254.52C331.025 254.042 331.175 253.568 331.482 253.201C331.79 252.833 332.232 252.603 332.709 252.561C333.186 252.519 333.661 252.669 334.028 252.977C334.395 253.285 334.625 253.726 334.667 254.203C334.667 254.386 334.667 254.57 334.667 254.753V264.753C334.651 265.971 335.046 267.159 335.786 268.126C336.527 269.094 337.571 269.784 338.751 270.086C339.213 270.206 339.689 270.267 340.167 270.27C346.189 270.27 352.201 270.27 358.201 270.27C359.484 270.287 360.731 269.85 361.723 269.035C362.714 268.221 363.385 267.082 363.617 265.82C363.684 265.434 363.717 265.044 363.717 264.653V246.87C363.758 245.567 363.329 244.294 362.509 243.281C361.689 242.269 360.533 241.584 359.251 241.353C358.916 241.286 358.575 241.253 358.234 241.253H340.167C338.884 241.231 337.636 241.669 336.648 242.489C335.66 243.308 334.999 244.455 334.784 245.72C334.685 246.572 334.646 247.429 334.667 248.286C334.653 248.53 334.589 248.768 334.479 248.986C334.369 249.204 334.216 249.397 334.029 249.553C333.841 249.71 333.624 249.826 333.389 249.894C333.155 249.963 332.909 249.983 332.667 249.953C332.255 249.956 331.857 249.805 331.549 249.531C331.241 249.258 331.046 248.879 331.001 248.47C330.698 246.073 331.253 243.647 332.567 241.62C333.357 240.399 334.441 239.396 335.719 238.703C336.998 238.01 338.43 237.649 339.884 237.653C346.106 237.653 352.328 237.653 358.551 237.653C360.693 237.703 362.747 238.519 364.34 239.953C365.933 241.387 366.96 243.344 367.234 245.47C367.234 245.97 367.234 246.486 367.334 246.986V255.77Z" fill="url(#paint14_linear_5254_17935)"/>
<path d="M341.433 263.52H356.933V257.57H356.45C350.933 257.57 345.417 257.57 339.883 257.57C339.605 257.59 339.325 257.55 339.063 257.452C338.801 257.354 338.564 257.202 338.366 257.004C338.169 256.807 338.016 256.569 337.918 256.307C337.82 256.045 337.78 255.766 337.8 255.487C337.8 252.47 337.8 249.454 337.8 246.42C337.767 246.142 337.798 245.861 337.891 245.597C337.983 245.332 338.135 245.093 338.335 244.897C338.534 244.701 338.776 244.553 339.041 244.464C339.307 244.376 339.589 244.349 339.867 244.387C346.083 244.387 352.317 244.387 358.533 244.387C358.809 244.36 359.088 244.395 359.348 244.49C359.608 244.585 359.844 244.738 360.038 244.936C360.231 245.135 360.378 245.374 360.467 245.637C360.555 245.899 360.584 246.178 360.55 246.454C360.493 246.864 360.296 247.243 359.993 247.525C359.689 247.808 359.297 247.977 358.883 248.004H341.467V253.954H358.4C358.682 253.912 358.968 253.912 359.25 253.954C359.65 254.038 360.005 254.266 360.248 254.595C360.49 254.923 360.604 255.33 360.567 255.737C360.567 258.893 360.567 262.043 360.567 265.187C360.583 265.447 360.542 265.708 360.447 265.951C360.351 266.193 360.204 266.412 360.015 266.592C359.826 266.771 359.599 266.907 359.352 266.99C359.105 267.073 358.842 267.1 358.583 267.07H339.95C339.684 267.104 339.416 267.104 339.15 267.07C338.763 266.972 338.42 266.746 338.178 266.428C337.935 266.11 337.808 265.72 337.817 265.32C337.817 264.32 337.817 263.304 337.817 262.287C337.812 262.048 337.855 261.81 337.944 261.588C338.032 261.366 338.164 261.163 338.332 260.993C338.499 260.822 338.699 260.686 338.92 260.594C339.141 260.501 339.377 260.454 339.617 260.454C339.86 260.456 340.101 260.506 340.325 260.603C340.549 260.699 340.751 260.839 340.92 261.014C341.089 261.189 341.222 261.397 341.31 261.624C341.398 261.851 341.44 262.093 341.433 262.337V263.52Z" fill="url(#paint15_linear_5254_17935)"/>
<path d="M338.314 297.5V308.62H336.49V303.756H331.258V308.62H329.434V297.5H331.258V302.268H336.49V297.5H338.314ZM347.9 297.5V298.988H344.94V308.62H343.116V298.988H340.14V297.5H347.9ZM361.459 297.5V308.62H359.635V301.004L356.243 308.62H354.979L351.571 301.004V308.62H349.747V297.5H351.715L355.619 306.22L359.507 297.5H361.459ZM365.68 307.148H369.44V308.62H363.856V297.5H365.68V307.148Z" fill="#434343"/>
<defs>
<linearGradient id="paint0_linear_5254_17935" x1="27.0169" y1="257.37" x2="60.8336" y2="257.37" gradientUnits="userSpaceOnUse">
<stop stop-color="#283478"/>
<stop offset="1" stop-color="#1675B1"/>
</linearGradient>
<linearGradient id="paint1_linear_5254_17935" x1="38.7324" y1="265.437" x2="43.2324" y2="265.437" gradientUnits="userSpaceOnUse">
<stop stop-color="#283478"/>
<stop offset="1" stop-color="#1675B1"/>
</linearGradient>
<linearGradient id="paint2_linear_5254_17935" x1="133.627" y1="261.037" x2="150.744" y2="261.037" gradientUnits="userSpaceOnUse">
<stop stop-color="#283478"/>
<stop offset="1" stop-color="#1675B1"/>
</linearGradient>
<linearGradient id="paint3_linear_5254_17935" x1="133.678" y1="248.404" x2="150.711" y2="248.404" gradientUnits="userSpaceOnUse">
<stop stop-color="#283478"/>
<stop offset="1" stop-color="#1675B1"/>
</linearGradient>
<linearGradient id="paint4_linear_5254_17935" x1="139.377" y1="260.12" x2="145.011" y2="260.12" gradientUnits="userSpaceOnUse">
<stop stop-color="#283478"/>
<stop offset="1" stop-color="#1675B1"/>
</linearGradient>
<linearGradient id="paint5_linear_5254_17935" x1="151.362" y1="256.72" x2="153.779" y2="256.72" gradientUnits="userSpaceOnUse">
<stop stop-color="#283478"/>
<stop offset="1" stop-color="#1675B1"/>
</linearGradient>
<linearGradient id="paint6_linear_5254_17935" x1="130.612" y1="256.704" x2="133.029" y2="256.704" gradientUnits="userSpaceOnUse">
<stop stop-color="#283478"/>
<stop offset="1" stop-color="#1675B1"/>
</linearGradient>
<linearGradient id="paint7_linear_5254_17935" x1="140.328" y1="271.487" x2="143.995" y2="271.487" gradientUnits="userSpaceOnUse">
<stop stop-color="#283478"/>
<stop offset="1" stop-color="#1675B1"/>
</linearGradient>
<linearGradient id="paint8_linear_5254_17935" x1="146.544" y1="240.42" x2="148.477" y2="240.42" gradientUnits="userSpaceOnUse">
<stop stop-color="#283478"/>
<stop offset="1" stop-color="#1675B1"/>
</linearGradient>
<linearGradient id="paint9_linear_5254_17935" x1="135.895" y1="240.42" x2="137.828" y2="240.42" gradientUnits="userSpaceOnUse">
<stop stop-color="#283478"/>
<stop offset="1" stop-color="#1675B1"/>
</linearGradient>
<linearGradient id="paint10_linear_5254_17935" x1="137.195" y1="243.203" x2="138.929" y2="243.203" gradientUnits="userSpaceOnUse">
<stop stop-color="#283478"/>
<stop offset="1" stop-color="#1675B1"/>
</linearGradient>
<linearGradient id="paint11_linear_5254_17935" x1="145.429" y1="243.237" x2="147.162" y2="243.237" gradientUnits="userSpaceOnUse">
<stop stop-color="#283478"/>
<stop offset="1" stop-color="#1675B1"/>
</linearGradient>
<linearGradient id="paint12_linear_5254_17935" x1="141.462" y1="264.553" x2="142.945" y2="264.553" gradientUnits="userSpaceOnUse">
<stop stop-color="#283478"/>
<stop offset="1" stop-color="#1675B1"/>
</linearGradient>
<linearGradient id="paint13_linear_5254_17935" x1="233.756" y1="256.537" x2="267.722" y2="256.537" gradientUnits="userSpaceOnUse">
<stop stop-color="#283478"/>
<stop offset="1" stop-color="#1675B1"/>
</linearGradient>
<linearGradient id="paint14_linear_5254_17935" x1="331.034" y1="255.77" x2="367.334" y2="255.77" gradientUnits="userSpaceOnUse">
<stop stop-color="#283478"/>
<stop offset="1" stop-color="#1675B1"/>
</linearGradient>
<linearGradient id="paint15_linear_5254_17935" x1="337.8" y1="255.77" x2="360.583" y2="255.77" gradientUnits="userSpaceOnUse">
<stop stop-color="#283478"/>
<stop offset="1" stop-color="#1675B1"/>
</linearGradient>
<clipPath id="clip0_5254_17935">
<rect width="46.019" height="55.04" fill="white" transform="translate(177.322 52.6001)"/>
</clipPath>
<clipPath id="clip1_5254_17935">
<rect width="34" height="59.2703" fill="white" transform="translate(183.332 50.8647)"/>
</clipPath>
</defs>
</svg>
