<svg width="400" height="335" viewBox="0 0 400 335" fill="none" xmlns="http://www.w3.org/2000/svg">
<rect y="0.620117" width="399.333" height="334" rx="4" fill="white"/>
<rect y="0.620117" width="399.333" height="206" rx="4" fill="#EDF2F7"/>
<g clip-path="url(#clip0_5254_18049)">
<path fill-rule="evenodd" clip-rule="evenodd" d="M172.484 56.7705H226.849C227.977 56.7732 229.059 57.2226 229.857 58.0205C230.654 58.8183 231.104 59.8997 231.107 61.028V99.2125C231.103 100.34 230.653 101.421 229.855 102.218C229.058 103.016 227.977 103.466 226.849 103.47H172.484C171.356 103.466 170.276 103.016 169.478 102.218C168.68 101.421 168.231 100.34 168.227 99.2125V61.028C168.229 59.8997 168.679 58.8183 169.477 58.0205C170.274 57.2226 171.356 56.7732 172.484 56.7705ZM213.667 84.6285C213.74 84.3163 213.933 84.0458 214.205 83.8764C214.478 83.7071 214.806 83.6527 215.118 83.7253C215.43 83.7979 215.701 83.9915 215.87 84.2636C216.039 84.5357 216.094 84.8639 216.021 85.176L213.401 96.398C213.328 96.7102 213.135 96.9807 212.863 97.1501C212.591 97.3194 212.263 97.3738 211.95 97.3012C211.638 97.2286 211.368 97.035 211.198 96.7629C211.029 96.4908 210.975 96.1626 211.047 95.8505L213.667 84.6285ZM176.506 94.2386C176.145 94.2386 175.799 94.0951 175.544 93.8399C175.288 93.5846 175.145 93.2384 175.145 92.8774C175.145 92.5164 175.288 92.1702 175.544 91.9149C175.799 91.6596 176.145 91.5162 176.506 91.5162H189.299C189.478 91.5162 189.655 91.5514 189.82 91.6198C189.985 91.6882 190.135 91.7885 190.262 91.9149C190.388 92.0413 190.488 92.1913 190.557 92.3565C190.625 92.5216 190.66 92.6986 190.66 92.8774C190.66 93.0561 190.625 93.2331 190.557 93.3983C190.488 93.5634 190.388 93.7135 190.262 93.8399C190.135 93.9663 189.985 94.0665 189.82 94.1349C189.655 94.2033 189.478 94.2386 189.299 94.2386H176.506ZM176.506 85.7389C176.145 85.7389 175.799 85.5955 175.544 85.3402C175.288 85.085 175.145 84.7387 175.145 84.3777C175.145 84.0167 175.288 83.6705 175.544 83.4152C175.799 83.16 176.145 83.0166 176.506 83.0166H198.735C199.096 83.0166 199.442 83.16 199.698 83.4152C199.953 83.6705 200.096 84.0167 200.096 84.3777C200.096 84.7387 199.953 85.085 199.698 85.3402C199.442 85.5955 199.096 85.7389 198.735 85.7389H176.506ZM176.506 77.2393C176.145 77.2393 175.799 77.0958 175.544 76.8406C175.288 76.5853 175.145 76.2391 175.145 75.8781C175.145 75.5171 175.288 75.1709 175.544 74.9156C175.799 74.6603 176.145 74.5169 176.506 74.5169H211.723C212.084 74.5169 212.43 74.6603 212.685 74.9156C212.94 75.1709 213.084 75.5171 213.084 75.8781C213.084 76.2391 212.94 76.5853 212.685 76.8406C212.43 77.0958 212.084 77.2393 211.723 77.2393H176.506ZM209.563 93.6143C209.784 93.8298 209.915 94.122 209.927 94.4306C209.94 94.7393 209.833 95.041 209.63 95.2737C209.427 95.5064 209.142 95.6524 208.835 95.6816C208.527 95.7108 208.22 95.6211 207.977 95.4309L203.371 91.4139C203.252 91.3098 203.155 91.1833 203.085 91.0415C203.015 90.8998 202.973 90.7456 202.963 90.5878C202.952 90.43 202.973 90.2716 203.024 90.1219C203.075 89.9721 203.154 89.8338 203.259 89.715C203.294 89.672 203.334 89.6326 203.377 89.5973L207.982 85.5854C208.222 85.375 208.536 85.2687 208.855 85.2898C209.173 85.3109 209.471 85.4578 209.681 85.698C209.891 85.9382 209.998 86.2521 209.976 86.5707C209.955 86.8893 209.809 87.1865 209.568 87.3969L206.022 90.5081L209.563 93.6143ZM219.398 95.436C219.279 95.5401 219.14 95.6197 218.989 95.6702C218.839 95.7206 218.68 95.741 218.522 95.73C218.364 95.7191 218.209 95.6771 218.067 95.6065C217.925 95.5358 217.799 95.4379 217.694 95.3183C217.59 95.1987 217.511 95.0597 217.46 94.9093C217.41 94.759 217.389 94.6001 217.4 94.4419C217.411 94.2837 217.453 94.1291 217.524 93.9871C217.595 93.8451 217.692 93.7184 217.812 93.6143L221.358 90.5081L217.812 87.402C217.693 87.2978 217.596 87.1713 217.526 87.0295C217.456 86.8878 217.414 86.7336 217.404 86.5759C217.394 86.4181 217.414 86.2598 217.465 86.1101C217.516 85.9603 217.595 85.822 217.7 85.7031C217.804 85.5841 217.93 85.4869 218.072 85.4168C218.214 85.3468 218.368 85.3054 218.526 85.2949C218.683 85.2845 218.842 85.3052 218.991 85.3559C219.141 85.4066 219.279 85.4863 219.398 85.5905L224.004 89.6024C224.047 89.6377 224.086 89.6771 224.122 89.7201C224.226 89.8389 224.306 89.9772 224.357 90.127C224.407 90.2768 224.428 90.4351 224.418 90.5929C224.407 90.7507 224.366 90.9049 224.296 91.0466C224.226 91.1884 224.128 91.3149 224.009 91.419L219.404 95.436H219.398ZM228.609 68.6884H170.934V99.627C170.935 99.7833 170.967 99.9379 171.03 100.081C171.092 100.225 171.183 100.354 171.297 100.461C171.406 100.571 171.536 100.657 171.679 100.716C171.823 100.775 171.976 100.805 172.131 100.804H227.397C227.551 100.805 227.705 100.775 227.848 100.716C227.991 100.657 228.121 100.571 228.231 100.461C228.341 100.352 228.428 100.222 228.487 100.079C228.546 99.9355 228.575 99.7819 228.574 99.627V68.6884H228.609ZM222.796 61.5551C223.212 61.5541 223.62 61.6766 223.966 61.907C224.313 62.1375 224.583 62.4656 224.743 62.8498C224.903 63.2341 224.945 63.6571 224.865 64.0654C224.784 64.4737 224.584 64.8489 224.29 65.1436C223.996 65.4382 223.622 65.639 223.214 65.7206C222.805 65.8022 222.382 65.7608 221.998 65.6018C221.613 65.4428 221.284 65.1732 221.053 64.8272C220.822 64.4813 220.698 64.0744 220.698 63.6582C220.698 63.1013 220.919 62.5672 221.312 62.1729C221.706 61.7786 222.239 61.5564 222.796 61.5551ZM208.55 61.5551C208.966 61.5551 209.373 61.6784 209.718 61.9095C210.064 62.1406 210.334 62.4691 210.493 62.8534C210.652 63.2377 210.694 63.6606 210.613 64.0685C210.532 64.4765 210.331 64.8513 210.037 65.1454C209.743 65.4395 209.368 65.6398 208.96 65.721C208.552 65.8021 208.129 65.7605 207.745 65.6013C207.361 65.4421 207.032 65.1726 206.801 64.8267C206.57 64.4808 206.447 64.0742 206.447 63.6582C206.447 63.1004 206.668 62.5655 207.063 62.1711C207.457 61.7767 207.992 61.5551 208.55 61.5551ZM215.673 61.5551C216.089 61.5551 216.496 61.6784 216.842 61.9095C217.187 62.1406 217.457 62.4691 217.616 62.8534C217.775 63.2377 217.817 63.6606 217.736 64.0685C217.655 64.4765 217.454 64.8513 217.16 65.1454C216.866 65.4395 216.491 65.6398 216.083 65.721C215.675 65.8021 215.253 65.7605 214.868 65.6013C214.484 65.4421 214.156 65.1726 213.924 64.8267C213.693 64.4808 213.57 64.0742 213.57 63.6582C213.57 63.1004 213.792 62.5655 214.186 62.1711C214.58 61.7767 215.115 61.5551 215.673 61.5551Z" fill="#002680"/>
</g>
<path d="M196.828 130.906L193.318 143.47H190.348L187.99 134.524L185.524 143.47L182.572 143.488L179.188 130.906H181.888L184.102 140.662L186.658 130.906H189.466L191.878 140.608L194.11 130.906H196.828ZM207.743 138.268C207.743 138.628 207.719 138.952 207.671 139.24H200.381C200.441 139.96 200.693 140.524 201.137 140.932C201.581 141.34 202.127 141.544 202.775 141.544C203.711 141.544 204.377 141.142 204.773 140.338H207.491C207.203 141.298 206.651 142.09 205.835 142.714C205.019 143.326 204.017 143.632 202.829 143.632C201.869 143.632 201.005 143.422 200.237 143.002C199.481 142.57 198.887 141.964 198.455 141.184C198.035 140.404 197.825 139.504 197.825 138.484C197.825 137.452 198.035 136.546 198.455 135.766C198.875 134.986 199.463 134.386 200.219 133.966C200.975 133.546 201.845 133.336 202.829 133.336C203.777 133.336 204.623 133.54 205.367 133.948C206.123 134.356 206.705 134.938 207.113 135.694C207.533 136.438 207.743 137.296 207.743 138.268ZM205.133 137.548C205.121 136.9 204.887 136.384 204.431 136C203.975 135.604 203.417 135.406 202.757 135.406C202.133 135.406 201.605 135.598 201.173 135.982C200.753 136.354 200.495 136.876 200.399 137.548H205.133ZM212.103 134.956C212.427 134.476 212.871 134.086 213.435 133.786C214.011 133.486 214.665 133.336 215.397 133.336C216.249 133.336 217.017 133.546 217.701 133.966C218.397 134.386 218.943 134.986 219.339 135.766C219.747 136.534 219.951 137.428 219.951 138.448C219.951 139.468 219.747 140.374 219.339 141.166C218.943 141.946 218.397 142.552 217.701 142.984C217.017 143.416 216.249 143.632 215.397 143.632C214.653 143.632 213.999 143.488 213.435 143.2C212.883 142.9 212.439 142.516 212.103 142.048V143.47H209.583V130.15H212.103V134.956ZM217.377 138.448C217.377 137.848 217.251 137.332 216.999 136.9C216.759 136.456 216.435 136.12 216.027 135.892C215.631 135.664 215.199 135.55 214.731 135.55C214.275 135.55 213.843 135.67 213.435 135.91C213.039 136.138 212.715 136.474 212.463 136.918C212.223 137.362 212.103 137.884 212.103 138.484C212.103 139.084 212.223 139.606 212.463 140.05C212.715 140.494 213.039 140.836 213.435 141.076C213.843 141.304 214.275 141.418 214.731 141.418C215.199 141.418 215.631 141.298 216.027 141.058C216.435 140.818 216.759 140.476 216.999 140.032C217.251 139.588 217.377 139.06 217.377 138.448Z" fill="#002680"/>
<rect y="216.62" width="399.333" height="118" rx="4" fill="#EDF2F7"/>
<path d="M33.8164 249.053H41.9831C42.1418 249.04 42.3009 249.075 42.4383 249.156C42.5757 249.237 42.6845 249.358 42.7497 249.503C43.4164 250.703 44.1164 251.887 44.7997 253.07L45.0997 253.57C45.8997 252.187 46.7664 250.853 47.4497 249.503C47.5137 249.354 47.6247 249.228 47.7661 249.147C47.9074 249.066 48.0713 249.033 48.2331 249.053H56.3664L45.0997 268.57L43.2831 265.437L34.0997 249.537C34.0204 249.399 33.9253 249.27 33.8164 249.153V249.053Z" fill="url(#paint0_linear_5254_18049)"/>
<path d="M45.1009 274.954C41.4749 274.954 37.9304 273.878 34.9155 271.864C31.9006 269.849 29.5507 266.986 28.1631 263.636C26.7755 260.286 26.4125 256.6 27.1199 253.044C27.8273 249.487 29.5733 246.221 32.1373 243.657C34.7013 241.093 37.9679 239.347 41.5243 238.639C45.0806 237.932 48.7668 238.295 52.1168 239.682C55.4668 241.07 58.33 243.42 60.3445 246.435C62.359 249.45 63.4342 252.994 63.4342 256.62C63.4342 261.483 61.5027 266.146 58.0645 269.584C54.6264 273.022 49.9632 274.954 45.1009 274.954ZM45.1009 239.304C41.688 239.304 38.3517 240.315 35.5133 242.21C32.6749 244.105 30.4618 246.799 29.1534 249.951C27.8451 253.103 27.5003 256.572 28.1625 259.92C28.8247 263.268 30.4642 266.345 32.874 268.762C35.2838 271.179 38.3557 272.827 41.7018 273.499C45.0479 274.171 48.5181 273.836 51.674 272.537C54.8299 271.238 57.5301 269.032 59.4333 266.199C61.3366 263.366 62.3577 260.033 62.3676 256.62C62.372 254.349 61.9287 252.099 61.0631 250C60.1976 247.9 58.9267 245.992 57.3231 244.383C55.7195 242.775 53.8147 241.499 51.7176 240.627C49.6204 239.755 47.372 239.306 45.1009 239.304Z" fill="url(#paint1_linear_5254_18049)"/>
<path d="M41.0965 297.5L36.9205 308.62H34.8085L30.6165 297.5H32.5685L35.8645 306.748L39.1765 297.5H41.0965ZM50.6059 299.804V308.62H48.7819V307.58C48.4939 307.943 48.1152 308.231 47.6459 308.444C47.1872 308.647 46.6965 308.748 46.1739 308.748C45.4805 308.748 44.8565 308.604 44.3019 308.316C43.7579 308.028 43.3259 307.601 43.0059 307.036C42.6965 306.471 42.5419 305.788 42.5419 304.988V299.804H44.3499V304.716C44.3499 305.505 44.5472 306.113 44.9419 306.54C45.3365 306.956 45.8752 307.164 46.5579 307.164C47.2405 307.164 47.7792 306.956 48.1739 306.54C48.5792 306.113 48.7819 305.505 48.7819 304.716V299.804H50.6059ZM61.0925 303.996C61.0925 304.327 61.0712 304.625 61.0285 304.892H54.2925C54.3458 305.596 54.6072 306.161 55.0765 306.588C55.5458 307.015 56.1218 307.228 56.8045 307.228C57.7858 307.228 58.4792 306.817 58.8845 305.996H60.8525C60.5858 306.807 60.1005 307.473 59.3965 307.996C58.7032 308.508 57.8392 308.764 56.8045 308.764C55.9618 308.764 55.2045 308.577 54.5325 308.204C53.8712 307.82 53.3485 307.287 52.9645 306.604C52.5912 305.911 52.4045 305.111 52.4045 304.204C52.4045 303.297 52.5858 302.503 52.9485 301.82C53.3218 301.127 53.8392 300.593 54.5005 300.22C55.1725 299.847 55.9405 299.66 56.8045 299.66C57.6365 299.66 58.3778 299.841 59.0285 300.204C59.6792 300.567 60.1858 301.079 60.5485 301.74C60.9112 302.391 61.0925 303.143 61.0925 303.996ZM59.1885 303.42C59.1778 302.748 58.9378 302.209 58.4685 301.804C57.9992 301.399 57.4178 301.196 56.7245 301.196C56.0952 301.196 55.5565 301.399 55.1085 301.804C54.6605 302.199 54.3938 302.737 54.3085 303.42H59.1885Z" fill="#434343"/>
<path d="M140.426 254.203V255.87H142.459V254.203H140.426Z" fill="url(#paint2_linear_5254_18049)"/>
<path d="M137.845 259.737L139.128 260.653L139.495 258.987L137.828 259.62L137.845 259.737Z" fill="url(#paint3_linear_5254_18049)"/>
<path d="M139.695 254.854C139.695 254.137 139.695 254.154 138.995 253.937C138.295 253.72 137.878 253.504 137.328 253.287C136.783 254.019 136.459 254.893 136.395 255.804H139.728C139.695 255.454 139.711 255.154 139.695 254.854Z" fill="url(#paint4_linear_5254_18049)"/>
<path d="M139.627 253.437L139.377 251.62L137.811 252.687V252.82L139.627 253.437Z" fill="url(#paint5_linear_5254_18049)"/>
<path d="M144.761 252.603L143.477 251.703L143.277 253.287L144.761 252.72V252.603Z" fill="url(#paint6_linear_5254_18049)"/>
<path d="M142.361 253.453C142.405 253.445 142.447 253.425 142.482 253.396C142.517 253.367 142.544 253.329 142.561 253.287C142.661 252.703 142.727 252.12 142.811 251.487C141.916 251.204 140.955 251.204 140.061 251.487L140.277 253.57L142.361 253.453Z" fill="url(#paint7_linear_5254_18049)"/>
<path d="M140.277 258.287H142.577L142.477 256.62H140.411L140.277 258.287Z" fill="url(#paint8_linear_5254_18049)"/>
<path d="M142.56 259.004C141.81 258.838 141.034 258.821 140.277 258.954L139.877 260.887C140.935 261.222 142.075 261.187 143.11 260.787C143.01 260.254 142.91 259.72 142.794 259.204C142.776 259.152 142.746 259.107 142.705 259.071C142.663 259.036 142.614 259.013 142.56 259.004Z" fill="url(#paint9_linear_5254_18049)"/>
<path d="M137.312 259.07L139.396 258.287C139.396 258.287 139.579 258.17 139.579 258.103C139.579 257.57 139.579 257.02 139.712 256.437H136.379C136.426 257.387 136.75 258.302 137.312 259.07Z" fill="url(#paint10_linear_5254_18049)"/>
<path d="M160.411 240.12H139.728C138.004 240.124 136.351 240.81 135.13 242.028C133.91 243.245 133.22 244.896 133.211 246.62V267.337C133.215 269.065 133.903 270.722 135.123 271.946C136.344 273.17 137.999 273.861 139.728 273.87H160.411C162.142 273.866 163.802 273.176 165.026 271.952C166.25 270.727 166.94 269.068 166.944 267.337V246.62C166.931 244.895 166.237 243.244 165.014 242.027C163.791 240.81 162.137 240.124 160.411 240.12ZM141.311 261.787C140.191 261.79 139.096 261.461 138.164 260.84C137.232 260.22 136.505 259.337 136.076 258.303C135.647 257.269 135.535 256.13 135.753 255.032C135.972 253.934 136.512 252.926 137.305 252.136C138.098 251.345 139.108 250.808 140.206 250.593C141.305 250.377 142.443 250.493 143.476 250.925C144.509 251.357 145.39 252.087 146.007 253.02C146.625 253.954 146.951 255.051 146.944 256.17C146.94 257.664 146.346 259.096 145.29 260.155C144.235 261.213 142.805 261.811 141.311 261.82V261.787Z" fill="url(#paint11_linear_5254_18049)"/>
<path d="M145.043 253.287L143.377 253.904C143.293 253.904 143.16 254.037 143.16 254.12C143.16 254.67 143.16 255.204 143.16 255.787H146.227C146.159 254.957 145.891 254.156 145.443 253.454C145.277 253.287 145.277 253.287 145.043 253.287Z" fill="url(#paint12_linear_5254_18049)"/>
<path d="M143.711 260.52L144.761 259.737L143.428 259.203L143.711 260.52Z" fill="url(#paint13_linear_5254_18049)"/>
<path d="M143.294 258.287C143.304 258.335 143.324 258.381 143.353 258.421C143.381 258.462 143.418 258.495 143.461 258.52L145.211 259.187C145.808 258.459 146.159 257.56 146.211 256.62H143.178C143.211 257.12 143.244 257.687 143.294 258.287Z" fill="url(#paint14_linear_5254_18049)"/>
<path d="M155.278 255.72V257.62C155.291 258.274 155.142 258.921 154.845 259.503C154.571 260.044 154.141 260.491 153.612 260.787C153.04 261.082 152.405 261.231 151.762 261.22C151.115 261.234 150.474 261.091 149.895 260.803C149.365 260.537 148.92 260.127 148.612 259.62C148.316 259.067 148.167 258.447 148.178 257.82V254.953C148.17 254.305 148.319 253.665 148.612 253.087C148.887 252.551 149.317 252.11 149.845 251.82C150.412 251.512 151.05 251.357 151.695 251.37C152.242 251.365 152.784 251.485 153.278 251.72C153.763 251.959 154.185 252.307 154.512 252.737C154.834 253.184 155.056 253.696 155.162 254.237H153.245C153.183 254.033 153.068 253.848 152.912 253.703C152.757 253.56 152.576 253.446 152.378 253.37C152.177 253.29 151.962 253.251 151.745 253.253C151.447 253.241 151.151 253.317 150.895 253.47C150.646 253.608 150.443 253.817 150.312 254.07C150.175 254.35 150.107 254.659 150.112 254.97V257.82C150.104 258.1 150.173 258.377 150.312 258.62C150.452 258.855 150.662 259.042 150.912 259.153C151.174 259.27 151.458 259.331 151.745 259.331C152.032 259.331 152.316 259.27 152.578 259.153C152.822 259.021 153.02 258.818 153.145 258.57C153.283 258.285 153.352 257.971 153.345 257.653V257.503H151.945V255.72H155.278Z" fill="white"/>
<path d="M157.094 251.47H158.91V261.137H157.094V251.47ZM157.894 259.37H163.61V261.137H157.944L157.894 259.37Z" fill="white"/>
<path d="M137.864 297.5L134.568 308.62H132.504L130.168 300.204L127.688 308.62L125.64 308.636L122.488 297.5H124.424L126.728 306.556L129.224 297.5H131.272L133.592 306.508L135.912 297.5H137.864ZM147.448 303.996C147.448 304.327 147.427 304.625 147.384 304.892H140.648C140.701 305.596 140.963 306.161 141.432 306.588C141.901 307.015 142.477 307.228 143.16 307.228C144.141 307.228 144.835 306.817 145.24 305.996H147.208C146.941 306.807 146.456 307.473 145.752 307.996C145.059 308.508 144.195 308.764 143.16 308.764C142.317 308.764 141.56 308.577 140.888 308.204C140.227 307.82 139.704 307.287 139.32 306.604C138.947 305.911 138.76 305.111 138.76 304.204C138.76 303.297 138.941 302.503 139.304 301.82C139.677 301.127 140.195 300.593 140.856 300.22C141.528 299.847 142.296 299.66 143.16 299.66C143.992 299.66 144.733 299.841 145.384 300.204C146.035 300.567 146.541 301.079 146.904 301.74C147.267 302.391 147.448 303.143 147.448 303.996ZM145.544 303.42C145.533 302.748 145.293 302.209 144.824 301.804C144.355 301.399 143.773 301.196 143.08 301.196C142.451 301.196 141.912 301.399 141.464 301.804C141.016 302.199 140.749 302.737 140.664 303.42H145.544ZM151.067 301.116C151.376 300.689 151.798 300.343 152.331 300.076C152.875 299.799 153.478 299.66 154.139 299.66C154.918 299.66 155.622 299.847 156.251 300.22C156.88 300.593 157.376 301.127 157.739 301.82C158.102 302.503 158.283 303.287 158.283 304.172C158.283 305.057 158.102 305.852 157.739 306.556C157.376 307.249 156.875 307.793 156.235 308.188C155.606 308.572 154.907 308.764 154.139 308.764C153.456 308.764 152.848 308.631 152.315 308.364C151.792 308.097 151.376 307.756 151.067 307.34V308.62H149.243V296.78H151.067V301.116ZM156.427 304.172C156.427 303.564 156.299 303.041 156.043 302.604C155.798 302.156 155.467 301.82 155.051 301.596C154.646 301.361 154.208 301.244 153.739 301.244C153.28 301.244 152.843 301.361 152.427 301.596C152.022 301.831 151.691 302.172 151.435 302.62C151.19 303.068 151.067 303.596 151.067 304.204C151.067 304.812 151.19 305.345 151.435 305.804C151.691 306.252 152.022 306.593 152.427 306.828C152.843 307.063 153.28 307.18 153.739 307.18C154.208 307.18 154.646 307.063 155.051 306.828C155.467 306.583 155.798 306.231 156.043 305.772C156.299 305.313 156.427 304.78 156.427 304.172ZM168.135 300.7C167.847 300.145 167.447 299.729 166.935 299.452C166.423 299.164 165.831 299.02 165.159 299.02C164.423 299.02 163.767 299.185 163.191 299.516C162.615 299.847 162.161 300.316 161.831 300.924C161.511 301.532 161.351 302.236 161.351 303.036C161.351 303.836 161.511 304.545 161.831 305.164C162.161 305.772 162.615 306.241 163.191 306.572C163.767 306.903 164.423 307.068 165.159 307.068C166.151 307.068 166.956 306.791 167.575 306.236C168.193 305.681 168.572 304.929 168.711 303.98H164.535V302.524H170.663V303.948C170.545 304.812 170.236 305.607 169.735 306.332C169.244 307.057 168.599 307.639 167.799 308.076C167.009 308.503 166.129 308.716 165.159 308.716C164.113 308.716 163.159 308.476 162.295 307.996C161.431 307.505 160.743 306.828 160.231 305.964C159.729 305.1 159.479 304.124 159.479 303.036C159.479 301.948 159.729 300.972 160.231 300.108C160.743 299.244 161.431 298.572 162.295 298.092C163.169 297.601 164.124 297.356 165.159 297.356C166.343 297.356 167.393 297.649 168.311 298.236C169.239 298.812 169.911 299.633 170.327 300.7H168.135ZM174.286 307.148H178.046V308.62H172.462V297.5H174.286V307.148Z" fill="#434343"/>
<path d="M261.321 259.17C261.848 260.033 262.066 261.05 261.937 262.054C261.717 264.012 260.923 265.862 259.654 267.37C258.309 269.188 256.452 270.563 254.321 271.32C253.255 271.726 252.088 271.785 250.987 271.487C250.687 271.404 250.571 271.287 250.587 270.954C250.655 270.038 250.914 269.146 251.347 268.337C251.781 267.527 252.379 266.817 253.104 266.254C253.978 265.584 254.891 264.966 255.837 264.404C257.626 263.294 259.21 261.884 260.521 260.237L261.321 259.17Z" fill="url(#paint15_linear_5254_18049)"/>
<path d="M256.305 253.77C255.989 254.762 255.349 255.618 254.488 256.203C253.089 257.163 251.463 257.738 249.772 257.87C247.69 258.152 245.57 257.888 243.622 257.103C242.305 256.661 241.177 255.785 240.422 254.62C239.972 253.82 240.022 253.97 240.655 253.52C241.488 252.948 242.436 252.567 243.432 252.403C244.429 252.238 245.45 252.296 246.422 252.57C247.738 252.87 249.022 253.303 250.338 253.587C252.291 254.073 254.326 254.136 256.305 253.77Z" fill="url(#paint16_linear_5254_18049)"/>
<path d="M267.988 258.42C267.005 258.816 265.915 258.857 264.905 258.537C263.103 258.011 261.486 256.989 260.238 255.587C258.697 254.036 257.623 252.085 257.138 249.953C256.822 248.745 256.922 247.465 257.421 246.32C257.435 246.262 257.462 246.207 257.5 246.16C257.538 246.113 257.586 246.076 257.64 246.05C257.695 246.024 257.754 246.011 257.815 246.012C257.875 246.013 257.934 246.027 257.988 246.053C259.044 246.318 260.025 246.825 260.852 247.534C261.679 248.242 262.331 249.134 262.755 250.137C263.155 250.937 263.455 251.803 263.838 252.587C264.775 254.813 266.192 256.805 267.988 258.42Z" fill="url(#paint17_linear_5254_18049)"/>
<path d="M249.671 270.604C249.159 270.095 248.826 269.434 248.721 268.72C248.5 267.446 248.662 266.135 249.188 264.954C249.794 263.34 250.742 261.877 251.968 260.666C253.194 259.455 254.668 258.524 256.288 257.937C257.351 257.512 258.528 257.465 259.621 257.804C259.996 257.951 260.364 258.118 260.721 258.304C260.221 258.987 259.805 259.637 259.321 260.22C257.881 261.787 256.192 263.105 254.321 264.12C252.829 264.946 251.573 266.139 250.671 267.587C250.167 268.415 249.843 269.341 249.721 270.304L249.671 270.604Z" fill="url(#paint18_linear_5254_18049)"/>
<path d="M258.387 245.153C259.117 244.649 260.004 244.425 260.887 244.52C262.12 244.62 263.308 245.033 264.337 245.72C265.729 246.566 266.934 247.687 267.879 249.013C268.825 250.34 269.491 251.845 269.837 253.437C270.12 254.547 270.026 255.719 269.57 256.77C269.387 257.153 269.12 257.503 268.887 257.887C268.036 257.22 267.303 256.414 266.72 255.503C265.745 254.13 264.944 252.641 264.337 251.07C263.919 249.909 263.317 248.823 262.553 247.853C261.501 246.518 260.036 245.569 258.387 245.153Z" fill="url(#paint19_linear_5254_18049)"/>
<path d="M256.388 252.753C255.771 252.837 255.188 252.953 254.605 252.987C252.417 253.046 250.237 252.707 248.171 251.987C246.717 251.48 245.174 251.275 243.638 251.387C242.419 251.505 241.247 251.917 240.221 252.587L240.055 252.72C240.127 251.906 240.467 251.138 241.021 250.537C241.969 249.504 243.187 248.759 244.538 248.387C247.384 247.511 250.45 247.695 253.171 248.903C254.134 249.314 254.977 249.962 255.621 250.787C256.072 251.348 256.34 252.035 256.388 252.753Z" fill="url(#paint20_linear_5254_18049)"/>
<path d="M229.17 303.536C229.17 302.448 229.421 301.472 229.922 300.608C230.434 299.744 231.122 299.072 231.986 298.592C232.861 298.101 233.815 297.856 234.85 297.856C236.034 297.856 237.085 298.149 238.002 298.736C238.93 299.312 239.602 300.133 240.018 301.2H237.826C237.538 300.613 237.138 300.176 236.626 299.888C236.114 299.6 235.522 299.456 234.85 299.456C234.114 299.456 233.458 299.621 232.882 299.952C232.306 300.283 231.853 300.757 231.522 301.376C231.202 301.995 231.042 302.715 231.042 303.536C231.042 304.357 231.202 305.077 231.522 305.696C231.853 306.315 232.306 306.795 232.882 307.136C233.458 307.467 234.114 307.632 234.85 307.632C235.522 307.632 236.114 307.488 236.626 307.2C237.138 306.912 237.538 306.475 237.826 305.888H240.018C239.602 306.955 238.93 307.776 238.002 308.352C237.085 308.928 236.034 309.216 234.85 309.216C233.805 309.216 232.85 308.976 231.986 308.496C231.122 308.005 230.434 307.328 229.922 306.464C229.421 305.6 229.17 304.624 229.17 303.536ZM245.977 309.264C245.145 309.264 244.393 309.077 243.721 308.704C243.049 308.32 242.521 307.787 242.137 307.104C241.753 306.411 241.561 305.611 241.561 304.704C241.561 303.808 241.758 303.013 242.153 302.32C242.548 301.627 243.086 301.093 243.769 300.72C244.452 300.347 245.214 300.16 246.057 300.16C246.9 300.16 247.662 300.347 248.345 300.72C249.028 301.093 249.566 301.627 249.961 302.32C250.356 303.013 250.553 303.808 250.553 304.704C250.553 305.6 250.35 306.395 249.945 307.088C249.54 307.781 248.985 308.32 248.281 308.704C247.588 309.077 246.82 309.264 245.977 309.264ZM245.977 307.68C246.446 307.68 246.884 307.568 247.289 307.344C247.705 307.12 248.041 306.784 248.297 306.336C248.553 305.888 248.681 305.344 248.681 304.704C248.681 304.064 248.558 303.525 248.313 303.088C248.068 302.64 247.742 302.304 247.337 302.08C246.932 301.856 246.494 301.744 246.025 301.744C245.556 301.744 245.118 301.856 244.713 302.08C244.318 302.304 244.004 302.64 243.769 303.088C243.534 303.525 243.417 304.064 243.417 304.704C243.417 305.653 243.657 306.389 244.137 306.912C244.628 307.424 245.241 307.68 245.977 307.68ZM256.052 301.792H254.42V309.12H252.58V301.792H251.54V300.304H252.58V299.68C252.58 298.667 252.847 297.931 253.38 297.472C253.924 297.003 254.772 296.768 255.924 296.768V298.288C255.37 298.288 254.98 298.395 254.756 298.608C254.532 298.811 254.42 299.168 254.42 299.68V300.304H256.052V301.792ZM261.365 301.792H259.733V309.12H257.893V301.792H256.853V300.304H257.893V299.68C257.893 298.667 258.159 297.931 258.693 297.472C259.237 297.003 260.085 296.768 261.237 296.768V298.288C260.682 298.288 260.293 298.395 260.069 298.608C259.845 298.811 259.733 299.168 259.733 299.68V300.304H261.365V301.792ZM271.061 304.496C271.061 304.827 271.04 305.125 270.997 305.392H264.261C264.315 306.096 264.576 306.661 265.045 307.088C265.515 307.515 266.091 307.728 266.773 307.728C267.755 307.728 268.448 307.317 268.853 306.496H270.821C270.555 307.307 270.069 307.973 269.365 308.496C268.672 309.008 267.808 309.264 266.773 309.264C265.931 309.264 265.173 309.077 264.501 308.704C263.84 308.32 263.317 307.787 262.933 307.104C262.56 306.411 262.373 305.611 262.373 304.704C262.373 303.797 262.555 303.003 262.917 302.32C263.291 301.627 263.808 301.093 264.469 300.72C265.141 300.347 265.909 300.16 266.773 300.16C267.605 300.16 268.347 300.341 268.997 300.704C269.648 301.067 270.155 301.579 270.517 302.24C270.88 302.891 271.061 303.643 271.061 304.496ZM269.157 303.92C269.147 303.248 268.907 302.709 268.437 302.304C267.968 301.899 267.387 301.696 266.693 301.696C266.064 301.696 265.525 301.899 265.077 302.304C264.629 302.699 264.363 303.237 264.277 303.92H269.157ZM280.936 304.496C280.936 304.827 280.915 305.125 280.872 305.392H274.136C274.19 306.096 274.451 306.661 274.92 307.088C275.39 307.515 275.966 307.728 276.648 307.728C277.63 307.728 278.323 307.317 278.728 306.496H280.696C280.43 307.307 279.944 307.973 279.24 308.496C278.547 309.008 277.683 309.264 276.648 309.264C275.806 309.264 275.048 309.077 274.376 308.704C273.715 308.32 273.192 307.787 272.808 307.104C272.435 306.411 272.248 305.611 272.248 304.704C272.248 303.797 272.43 303.003 272.792 302.32C273.166 301.627 273.683 301.093 274.344 300.72C275.016 300.347 275.784 300.16 276.648 300.16C277.48 300.16 278.222 300.341 278.872 300.704C279.523 301.067 280.03 301.579 280.392 302.24C280.755 302.891 280.936 303.643 280.936 304.496ZM279.032 303.92C279.022 303.248 278.782 302.709 278.312 302.304C277.843 301.899 277.262 301.696 276.568 301.696C275.939 301.696 275.4 301.899 274.952 302.304C274.504 302.699 274.238 303.237 274.152 303.92H279.032Z" fill="#434343"/>
<path d="M351.051 247.654V257.087H360.467L351.051 247.654Z" fill="url(#paint21_linear_5254_18049)"/>
<path d="M360.718 241.07H340.801C339.137 241.079 337.544 241.744 336.368 242.92C335.191 244.097 334.526 245.69 334.518 247.353V267.353C334.526 269.017 335.191 270.61 336.368 271.787C337.544 272.963 339.137 273.628 340.801 273.637H360.801C362.465 273.606 364.049 272.92 365.21 271.728C366.371 270.536 367.014 268.934 367.001 267.27V247.353C366.992 245.69 366.327 244.097 365.151 242.92C363.974 241.744 362.381 241.079 360.718 241.07ZM355.718 266.853C353.895 267.859 351.8 268.262 349.734 268.003C347.868 267.839 346.078 267.182 344.549 266.098C343.02 265.014 341.807 263.544 341.034 261.837C340.407 260.558 340.061 259.16 340.018 257.737C339.939 255.14 340.794 252.6 342.426 250.579C344.059 248.558 346.362 247.189 348.918 246.72C349.501 246.62 350.101 246.62 350.701 246.62C350.805 246.617 350.906 246.653 350.984 246.72L361.401 257.153C361.469 257.219 361.511 257.308 361.518 257.403C361.512 259.361 360.966 261.28 359.94 262.947C358.913 264.615 357.447 265.966 355.701 266.853H355.718Z" fill="url(#paint22_linear_5254_18049)"/>
<path d="M349.201 260.737L348.668 262.287H349.918L349.318 260.737H349.201Z" fill="url(#paint23_linear_5254_18049)"/>
<path d="M350.968 257.654H350.751C350.685 257.654 350.621 257.627 350.574 257.58C350.527 257.533 350.501 257.47 350.501 257.404C350.493 257.326 350.493 257.248 350.501 257.17V247.17C348.514 247.223 346.585 247.857 344.954 248.993C343.322 250.129 342.059 251.718 341.32 253.564C340.581 255.41 340.398 257.431 340.794 259.379C341.19 261.328 342.148 263.117 343.55 264.528C344.951 265.938 346.734 266.907 348.68 267.316C350.626 267.724 352.649 267.555 354.499 266.827C356.349 266.1 357.946 264.847 359.093 263.222C360.239 261.598 360.885 259.674 360.951 257.687H350.951L350.968 257.654ZM346.384 263.754C345.781 263.9 345.146 263.816 344.601 263.52L344.801 262.987C345.181 263.182 345.611 263.257 346.034 263.204C346.318 263.204 346.451 263.054 346.501 262.854C346.53 262.745 346.519 262.63 346.47 262.529C346.421 262.428 346.337 262.348 346.234 262.304C346.068 262.204 345.868 262.137 345.701 262.054C345.519 261.986 345.341 261.908 345.168 261.82C345.008 261.733 344.874 261.604 344.781 261.447C344.688 261.29 344.639 261.111 344.639 260.929C344.639 260.746 344.688 260.567 344.781 260.41C344.874 260.253 345.008 260.124 345.168 260.037C345.456 259.897 345.772 259.824 346.093 259.824C346.413 259.824 346.729 259.897 347.018 260.037L346.818 260.537C346.484 260.537 346.184 260.42 345.884 260.404C345.774 260.382 345.66 260.403 345.565 260.462C345.469 260.52 345.399 260.613 345.368 260.72C345.35 260.775 345.343 260.833 345.347 260.89C345.352 260.947 345.367 261.003 345.394 261.055C345.42 261.106 345.457 261.151 345.501 261.188C345.545 261.225 345.596 261.253 345.651 261.27C345.934 261.42 346.234 261.52 346.518 261.654C346.694 261.721 346.849 261.836 346.963 261.986C347.078 262.136 347.149 262.315 347.168 262.504C347.207 262.637 347.218 262.778 347.199 262.916C347.18 263.054 347.132 263.187 347.058 263.305C346.984 263.424 346.886 263.525 346.769 263.602C346.653 263.679 346.522 263.731 346.384 263.754ZM350.351 263.754C350.251 263.504 350.168 263.27 350.084 263.037C350.001 262.804 350.084 262.854 349.868 262.87H348.668C348.644 262.862 348.619 262.859 348.595 262.863C348.57 262.867 348.547 262.877 348.527 262.892C348.508 262.906 348.492 262.926 348.481 262.948C348.471 262.971 348.466 262.995 348.468 263.02C348.468 263.02 348.468 263.17 348.384 263.237C348.168 263.82 348.168 263.82 347.518 263.737C347.51 263.698 347.51 263.659 347.518 263.62C347.968 262.47 348.434 261.337 348.884 260.187C348.906 260.117 348.951 260.056 349.011 260.013C349.072 259.971 349.144 259.95 349.218 259.954C349.283 259.939 349.351 259.938 349.418 259.95C349.484 259.963 349.547 259.988 349.603 260.026C349.659 260.063 349.707 260.111 349.744 260.168C349.781 260.224 349.806 260.287 349.818 260.354L351.084 263.604C351.089 263.653 351.089 263.704 351.084 263.754H350.351ZM353.068 263.754C352.5 263.858 351.913 263.77 351.401 263.503L351.601 262.97C351.981 263.165 352.411 263.241 352.834 263.187C353.118 263.187 353.251 263.037 353.301 262.837C353.327 262.728 353.314 262.615 353.266 262.514C353.217 262.414 353.135 262.334 353.034 262.287C352.868 262.187 352.668 262.12 352.501 262.037C352.303 261.968 352.113 261.879 351.934 261.77C351.797 261.679 351.684 261.555 351.606 261.41C351.528 261.264 351.487 261.102 351.487 260.937C351.487 260.772 351.528 260.609 351.606 260.464C351.684 260.319 351.797 260.195 351.934 260.104C352.224 259.94 352.551 259.854 352.884 259.854C353.217 259.854 353.544 259.94 353.834 260.104L353.668 260.62L352.818 260.47C352.714 260.445 352.605 260.445 352.501 260.47C352.428 260.49 352.361 260.529 352.309 260.583C352.256 260.637 352.219 260.705 352.202 260.778C352.185 260.852 352.188 260.929 352.212 261.001C352.235 261.073 352.277 261.137 352.334 261.187C352.478 261.295 352.635 261.385 352.801 261.454C352.968 261.537 353.168 261.587 353.351 261.67C353.586 261.76 353.781 261.929 353.903 262.149C354.025 262.368 354.066 262.624 354.018 262.87C353.991 263.108 353.88 263.329 353.707 263.493C353.533 263.658 353.307 263.756 353.068 263.77V263.754ZM356.901 262.954C356.886 263.095 356.833 263.23 356.748 263.344C356.663 263.458 356.549 263.548 356.418 263.604C356.083 263.755 355.719 263.834 355.351 263.834C354.983 263.834 354.619 263.755 354.284 263.604L354.501 263.037C354.875 263.231 355.299 263.307 355.718 263.253C355.934 263.253 356.118 263.154 356.184 262.92C356.219 262.811 356.213 262.694 356.167 262.589C356.121 262.485 356.038 262.401 355.934 262.354C355.756 262.26 355.572 262.177 355.384 262.104C355.197 262.03 355.013 261.947 354.834 261.854C354.7 261.76 354.591 261.635 354.515 261.49C354.439 261.345 354.4 261.184 354.4 261.02C354.4 260.857 354.439 260.695 354.515 260.55C354.591 260.405 354.7 260.281 354.834 260.187C355.13 260.023 355.463 259.938 355.801 259.938C356.139 259.938 356.472 260.023 356.768 260.187L356.584 260.654C356.234 260.654 355.918 260.537 355.584 260.52C355.251 260.504 355.018 260.787 355.134 261.087C355.21 261.224 355.327 261.335 355.468 261.404C355.718 261.554 356.018 261.637 356.284 261.77C356.512 261.866 356.698 262.039 356.811 262.258C356.924 262.477 356.955 262.73 356.901 262.97V262.954Z" fill="url(#paint24_linear_5254_18049)"/>
<path d="M336.401 308.732C335.654 308.732 334.982 308.604 334.385 308.348C333.788 308.081 333.318 307.708 332.977 307.228C332.636 306.748 332.465 306.188 332.465 305.548H334.417C334.46 306.028 334.646 306.423 334.977 306.732C335.318 307.041 335.793 307.196 336.401 307.196C337.03 307.196 337.521 307.047 337.873 306.748C338.225 306.439 338.401 306.044 338.401 305.564C338.401 305.191 338.289 304.887 338.065 304.652C337.852 304.417 337.58 304.236 337.249 304.108C336.929 303.98 336.481 303.841 335.905 303.692C335.18 303.5 334.588 303.308 334.129 303.116C333.681 302.913 333.297 302.604 332.977 302.188C332.657 301.772 332.497 301.217 332.497 300.524C332.497 299.884 332.657 299.324 332.977 298.844C333.297 298.364 333.745 297.996 334.321 297.74C334.897 297.484 335.564 297.356 336.321 297.356C337.398 297.356 338.278 297.628 338.961 298.172C339.654 298.705 340.038 299.441 340.113 300.38H338.097C338.065 299.975 337.873 299.628 337.521 299.34C337.169 299.052 336.705 298.908 336.129 298.908C335.606 298.908 335.18 299.041 334.849 299.308C334.518 299.575 334.353 299.959 334.353 300.46C334.353 300.801 334.454 301.084 334.657 301.308C334.87 301.521 335.137 301.692 335.457 301.82C335.777 301.948 336.214 302.087 336.769 302.236C337.505 302.439 338.102 302.641 338.561 302.844C339.03 303.047 339.425 303.361 339.745 303.788C340.076 304.204 340.241 304.764 340.241 305.468C340.241 306.033 340.086 306.567 339.777 307.068C339.478 307.569 339.036 307.975 338.449 308.284C337.873 308.583 337.19 308.732 336.401 308.732ZM341.785 304.172C341.785 303.287 341.967 302.503 342.329 301.82C342.703 301.137 343.204 300.609 343.833 300.236C344.473 299.852 345.177 299.66 345.945 299.66C346.639 299.66 347.241 299.799 347.753 300.076C348.276 300.343 348.692 300.679 349.001 301.084V299.804H350.841V308.62H349.001V307.308C348.692 307.724 348.271 308.071 347.737 308.348C347.204 308.625 346.596 308.764 345.913 308.764C345.156 308.764 344.463 308.572 343.833 308.188C343.204 307.793 342.703 307.249 342.329 306.556C341.967 305.852 341.785 305.057 341.785 304.172ZM349.001 304.204C349.001 303.596 348.873 303.068 348.617 302.62C348.372 302.172 348.047 301.831 347.641 301.596C347.236 301.361 346.799 301.244 346.329 301.244C345.86 301.244 345.423 301.361 345.017 301.596C344.612 301.82 344.281 302.156 344.025 302.604C343.78 303.041 343.657 303.564 343.657 304.172C343.657 304.78 343.78 305.313 344.025 305.772C344.281 306.231 344.612 306.583 345.017 306.828C345.433 307.063 345.871 307.18 346.329 307.18C346.799 307.18 347.236 307.063 347.641 306.828C348.047 306.593 348.372 306.252 348.617 305.804C348.873 305.345 349.001 304.812 349.001 304.204ZM356.437 308.764C355.744 308.764 355.12 308.641 354.565 308.396C354.021 308.14 353.589 307.799 353.269 307.372C352.949 306.935 352.778 306.449 352.757 305.916H354.645C354.677 306.289 354.853 306.604 355.173 306.86C355.504 307.105 355.914 307.228 356.405 307.228C356.917 307.228 357.312 307.132 357.589 306.94C357.877 306.737 358.021 306.481 358.021 306.172C358.021 305.841 357.861 305.596 357.541 305.436C357.232 305.276 356.736 305.1 356.053 304.908C355.392 304.727 354.853 304.551 354.437 304.38C354.021 304.209 353.658 303.948 353.349 303.596C353.05 303.244 352.901 302.78 352.901 302.204C352.901 301.735 353.04 301.308 353.317 300.924C353.594 300.529 353.989 300.22 354.501 299.996C355.024 299.772 355.621 299.66 356.293 299.66C357.296 299.66 358.101 299.916 358.709 300.428C359.328 300.929 359.658 301.617 359.701 302.492H357.877C357.845 302.097 357.685 301.783 357.397 301.548C357.109 301.313 356.72 301.196 356.229 301.196C355.749 301.196 355.381 301.287 355.125 301.468C354.869 301.649 354.741 301.889 354.741 302.188C354.741 302.423 354.826 302.62 354.997 302.78C355.168 302.94 355.376 303.068 355.621 303.164C355.866 303.249 356.229 303.361 356.709 303.5C357.349 303.671 357.872 303.847 358.277 304.028C358.693 304.199 359.05 304.455 359.349 304.796C359.648 305.137 359.802 305.591 359.813 306.156C359.813 306.657 359.674 307.105 359.397 307.5C359.12 307.895 358.725 308.204 358.213 308.428C357.712 308.652 357.12 308.764 356.437 308.764ZM364.984 308.764C364.291 308.764 363.667 308.641 363.112 308.396C362.568 308.14 362.136 307.799 361.816 307.372C361.496 306.935 361.325 306.449 361.304 305.916H363.192C363.224 306.289 363.4 306.604 363.72 306.86C364.051 307.105 364.461 307.228 364.952 307.228C365.464 307.228 365.859 307.132 366.136 306.94C366.424 306.737 366.568 306.481 366.568 306.172C366.568 305.841 366.408 305.596 366.088 305.436C365.779 305.276 365.283 305.1 364.6 304.908C363.939 304.727 363.4 304.551 362.984 304.38C362.568 304.209 362.205 303.948 361.896 303.596C361.597 303.244 361.448 302.78 361.448 302.204C361.448 301.735 361.587 301.308 361.864 300.924C362.141 300.529 362.536 300.22 363.048 299.996C363.571 299.772 364.168 299.66 364.84 299.66C365.843 299.66 366.648 299.916 367.256 300.428C367.875 300.929 368.205 301.617 368.248 302.492H366.424C366.392 302.097 366.232 301.783 365.944 301.548C365.656 301.313 365.267 301.196 364.776 301.196C364.296 301.196 363.928 301.287 363.672 301.468C363.416 301.649 363.288 301.889 363.288 302.188C363.288 302.423 363.373 302.62 363.544 302.78C363.715 302.94 363.923 303.068 364.168 303.164C364.413 303.249 364.776 303.361 365.256 303.5C365.896 303.671 366.419 303.847 366.824 304.028C367.24 304.199 367.597 304.455 367.896 304.796C368.195 305.137 368.349 305.591 368.36 306.156C368.36 306.657 368.221 307.105 367.944 307.5C367.667 307.895 367.272 308.204 366.76 308.428C366.259 308.652 365.667 308.764 364.984 308.764Z" fill="#434343"/>
<defs>
<linearGradient id="paint0_linear_5254_18049" x1="33.8164" y1="258.803" x2="56.3664" y2="258.803" gradientUnits="userSpaceOnUse">
<stop stop-color="#283376"/>
<stop offset="1" stop-color="#1C67A6"/>
</linearGradient>
<linearGradient id="paint1_linear_5254_18049" x1="26.7176" y1="256.57" x2="63.4676" y2="256.57" gradientUnits="userSpaceOnUse">
<stop stop-color="#283376"/>
<stop offset="1" stop-color="#1C67A6"/>
</linearGradient>
<linearGradient id="paint2_linear_5254_18049" x1="140.426" y1="255.003" x2="142.459" y2="255.003" gradientUnits="userSpaceOnUse">
<stop stop-color="#283376"/>
<stop offset="1" stop-color="#1C67A6"/>
</linearGradient>
<linearGradient id="paint3_linear_5254_18049" x1="137.845" y1="259.837" x2="139.495" y2="259.837" gradientUnits="userSpaceOnUse">
<stop stop-color="#283376"/>
<stop offset="1" stop-color="#1C67A6"/>
</linearGradient>
<linearGradient id="paint4_linear_5254_18049" x1="136.378" y1="254.537" x2="139.695" y2="254.537" gradientUnits="userSpaceOnUse">
<stop stop-color="#283376"/>
<stop offset="1" stop-color="#1C67A6"/>
</linearGradient>
<linearGradient id="paint5_linear_5254_18049" x1="137.811" y1="252.503" x2="139.627" y2="252.503" gradientUnits="userSpaceOnUse">
<stop stop-color="#283376"/>
<stop offset="1" stop-color="#1C67A6"/>
</linearGradient>
<linearGradient id="paint6_linear_5254_18049" x1="143.277" y1="252.487" x2="144.761" y2="252.487" gradientUnits="userSpaceOnUse">
<stop stop-color="#283376"/>
<stop offset="1" stop-color="#1C67A6"/>
</linearGradient>
<linearGradient id="paint7_linear_5254_18049" x1="140.061" y1="252.403" x2="142.811" y2="252.403" gradientUnits="userSpaceOnUse">
<stop stop-color="#283376"/>
<stop offset="1" stop-color="#1C67A6"/>
</linearGradient>
<linearGradient id="paint8_linear_5254_18049" x1="140.294" y1="257.387" x2="142.577" y2="257.387" gradientUnits="userSpaceOnUse">
<stop stop-color="#283376"/>
<stop offset="1" stop-color="#1C67A6"/>
</linearGradient>
<linearGradient id="paint9_linear_5254_18049" x1="139.81" y1="259.987" x2="143.044" y2="259.987" gradientUnits="userSpaceOnUse">
<stop stop-color="#283376"/>
<stop offset="1" stop-color="#1C67A6"/>
</linearGradient>
<linearGradient id="paint10_linear_5254_18049" x1="136.379" y1="257.803" x2="139.712" y2="257.803" gradientUnits="userSpaceOnUse">
<stop stop-color="#283376"/>
<stop offset="1" stop-color="#1C67A6"/>
</linearGradient>
<linearGradient id="paint11_linear_5254_18049" x1="133.211" y1="256.987" x2="166.944" y2="256.987" gradientUnits="userSpaceOnUse">
<stop stop-color="#283376"/>
<stop offset="1" stop-color="#1C67A6"/>
</linearGradient>
<linearGradient id="paint12_linear_5254_18049" x1="143.21" y1="254.554" x2="146.227" y2="254.554" gradientUnits="userSpaceOnUse">
<stop stop-color="#283376"/>
<stop offset="1" stop-color="#1C67A6"/>
</linearGradient>
<linearGradient id="paint13_linear_5254_18049" x1="143.428" y1="259.87" x2="144.761" y2="259.87" gradientUnits="userSpaceOnUse">
<stop stop-color="#283376"/>
<stop offset="1" stop-color="#1C67A6"/>
</linearGradient>
<linearGradient id="paint14_linear_5254_18049" x1="143.178" y1="257.853" x2="146.211" y2="257.853" gradientUnits="userSpaceOnUse">
<stop stop-color="#283376"/>
<stop offset="1" stop-color="#1C67A6"/>
</linearGradient>
<linearGradient id="paint15_linear_5254_18049" x1="250.671" y1="265.42" x2="261.971" y2="265.42" gradientUnits="userSpaceOnUse">
<stop stop-color="#283376"/>
<stop offset="1" stop-color="#1C67A6"/>
</linearGradient>
<linearGradient id="paint16_linear_5254_18049" x1="240.122" y1="255.187" x2="256.305" y2="255.187" gradientUnits="userSpaceOnUse">
<stop stop-color="#283376"/>
<stop offset="1" stop-color="#1C67A6"/>
</linearGradient>
<linearGradient id="paint17_linear_5254_18049" x1="256.955" y1="252.403" x2="267.988" y2="252.403" gradientUnits="userSpaceOnUse">
<stop stop-color="#283376"/>
<stop offset="1" stop-color="#1C67A6"/>
</linearGradient>
<linearGradient id="paint18_linear_5254_18049" x1="248.621" y1="264.12" x2="260.671" y2="264.12" gradientUnits="userSpaceOnUse">
<stop stop-color="#283376"/>
<stop offset="1" stop-color="#1C67A6"/>
</linearGradient>
<linearGradient id="paint19_linear_5254_18049" x1="258.453" y1="251.17" x2="270.053" y2="251.17" gradientUnits="userSpaceOnUse">
<stop stop-color="#283376"/>
<stop offset="1" stop-color="#1C67A6"/>
</linearGradient>
<linearGradient id="paint20_linear_5254_18049" x1="239.971" y1="250.42" x2="256.388" y2="250.42" gradientUnits="userSpaceOnUse">
<stop stop-color="#283376"/>
<stop offset="1" stop-color="#1C67A6"/>
</linearGradient>
<linearGradient id="paint21_linear_5254_18049" x1="351.051" y1="252.37" x2="360.467" y2="252.37" gradientUnits="userSpaceOnUse">
<stop stop-color="#283376"/>
<stop offset="1" stop-color="#1C67A6"/>
</linearGradient>
<linearGradient id="paint22_linear_5254_18049" x1="334.518" y1="257.32" x2="367.001" y2="257.32" gradientUnits="userSpaceOnUse">
<stop stop-color="#283376"/>
<stop offset="1" stop-color="#1C67A6"/>
</linearGradient>
<linearGradient id="paint23_linear_5254_18049" x1="348.601" y1="261.503" x2="349.851" y2="261.503" gradientUnits="userSpaceOnUse">
<stop stop-color="#283376"/>
<stop offset="1" stop-color="#1C67A6"/>
</linearGradient>
<linearGradient id="paint24_linear_5254_18049" x1="340.551" y1="257.32" x2="360.951" y2="257.32" gradientUnits="userSpaceOnUse">
<stop stop-color="#283376"/>
<stop offset="1" stop-color="#1C67A6"/>
</linearGradient>
<clipPath id="clip0_5254_18049">
<rect width="62.88" height="46.6995" fill="white" transform="translate(168.227 56.7705)"/>
</clipPath>
</defs>
</svg>
