<svg id="Layer_1" data-name="Layer 1" xmlns="http://www.w3.org/2000/svg" viewBox="0 0 24 24"><defs><style>.cls-1{font-size:2.65px;font-family:Poppins-Medium, Poppins;font-weight:500;}.cls-2{fill:#136da9;}.cls-3{fill:#f0f0f0;}.cls-4{fill:none;stroke:#fffdff;}.cls-5{fill:#008ece;}.cls-6{fill:#a0d8f1;}</style></defs><text class="cls-1" transform="translate(9 -0.97)">Drupal</text><path class="cls-2" d="M9.07,5.6A8.89,8.89,0,1,0,21,14c0-5.9-5.49-8.25-5.49-8.25a13.91,13.91,0,0,1-1.86-1,10.45,10.45,0,0,1-2.33-2.42A3.75,3.75,0,0,1,9.07,5.6"/><path class="cls-3" d="M11.22,21.13c-.31-.22-.24-.91.61-.41,0,0,1.8,1.32,4.65-.27.22-.12.5.31-.21.71,0,0-2.88,1.48-5,0Z"/><path class="cls-4" d="M11.22,21.13c-.31-.22-.24-.91.61-.41,0,0,1.8,1.32,4.65-.27.22-.12.5.31-.21.71,0,0-2.88,1.48-5,0Z"/><path class="cls-3" d="M14.89,18.94c1,.12.69.62,1,.7.58.16.33-.47.33-.47A1.27,1.27,0,0,0,15,18.38a2.41,2.41,0,0,0-2,.92c-.21.46.09.49.2.44.55-.26.89-.9,1.66-.8Z"/><path class="cls-4" d="M14.89,18.94c1,.12.69.62,1,.7.58.16.33-.47.33-.47A1.27,1.27,0,0,0,15,18.38a2.41,2.41,0,0,0-2,.92c-.21.46.09.49.2.44.55-.26.89-.9,1.66-.8Z"/><path class="cls-5" d="M4.38,18.43s3.19,2.64,11-3.24c0,0,3.89-2.44,3.78-6.64A9,9,0,0,0,15.72,5.8a15,15,0,0,1-4.4-3.4s-.26,5.28-7,7.36a8.81,8.81,0,0,0-.78,6.6,19.73,19.73,0,0,0,.86,2.07"/><path class="cls-3" d="M9.44,19.41a2.26,2.26,0,0,1-2.33-2.75s.55-3.17,4.27-2.47a7,7,0,0,1,2.32,1.34,3.89,3.89,0,0,0,1.56.76,2.47,2.47,0,0,0,1.31-.52s1.82-1.4,2.45-1.36c0,0,1.28-.14,1.28,1.9,0,0,0,2.24-1.67,3A.94.94,0,0,1,17.7,19a9.67,9.67,0,0,0-2.07-1.83,1.35,1.35,0,0,0-.91,0,6,6,0,0,0-1.74,1s-2.36,1.47-3.54,1.29Z"/><path class="cls-4" d="M9.44,19.41a2.26,2.26,0,0,1-2.33-2.75s.55-3.17,4.27-2.47a7,7,0,0,1,2.32,1.34,3.89,3.89,0,0,0,1.56.76,2.47,2.47,0,0,0,1.31-.52s1.82-1.4,2.45-1.36c0,0,1.28-.14,1.28,1.9,0,0,0,2.24-1.67,3A.94.94,0,0,1,17.7,19a9.67,9.67,0,0,0-2.07-1.83,1.35,1.35,0,0,0-.91,0,6,6,0,0,0-1.74,1s-2.36,1.47-3.54,1.29Z"/><path class="cls-5" d="M10.84,9.29c1.71-2.45.48-7,.48-7A3.76,3.76,0,0,1,9.11,5.58,9.23,9.23,0,0,0,4.3,9.69c.79,1.12,2.89,4.82,6.54-.4"/><path class="cls-6" d="M11.32,2.33s.22,2.06-.9,2.73c0,0-1.79.83-2.33,1.1A10.87,10.87,0,0,0,5,8.86S3.41,11,5.65,10.52c0,0,4-1.15,5.69-4.6a.59.59,0,0,0-.21-.59s1.23-.93.19-3"/><path class="cls-3" d="M11.32,2.33A3.62,3.62,0,0,1,10.25,4.9,5.64,5.64,0,0,1,8.09,6.16a9,9,0,0,0-3,2.58S3.71,10.4,5.6,10c0,0,3.82-1.41,5.22-4a.42.42,0,0,0-.1-.55,2.63,2.63,0,0,0,.6-3.08"/></svg>