<svg id="Layer_1" data-name="Layer 1" xmlns="http://www.w3.org/2000/svg" viewBox="0 0 24 24"><defs><style>.cls-1,.cls-2{fill:#8e75ff;fill-rule:evenodd;}.cls-2{opacity:0.41;isolation:isolate;}</style></defs><path class="cls-1" d="M14.37,15.12V8.69A.41.41,0,0,0,14,8.27H7.54V1.64H20.59a.42.42,0,0,1,.41.42h0V15.12Z"/><path class="cls-2" d="M7.54,1.64V8.27H1.42a.21.21,0,0,1-.15-.35Zm6.83,19.61V15.12H21l-6.27,6.27a.22.22,0,0,1-.3,0,.25.25,0,0,1-.06-.14Zm-6.83-13h6.63a.21.21,0,0,1,.2.21v6.64H8a.42.42,0,0,1-.42-.42Z"/></svg>