<svg id="Layer_1" data-name="Layer 1" xmlns="http://www.w3.org/2000/svg" viewBox="0 0 24 24"><defs><style>.cls-1{font-size:2.65px;font-family:Poppins-Medium, Poppins;font-weight:500;}.cls-2{fill:#464342;}</style></defs><text class="cls-1" transform="translate(5 -0.97)">WordPress</text><path class="cls-2" d="M2.79,12.59a8.86,8.86,0,0,0,5,8L3.56,9a8.69,8.69,0,0,0-.77,3.61Zm14.86-.45a4.73,4.73,0,0,0-.73-2.44A4.17,4.17,0,0,1,16,7.62,1.54,1.54,0,0,1,17.53,6h.12A8.86,8.86,0,0,0,4.25,7.72h.57c.93,0,2.36-.11,2.36-.11a.37.37,0,0,1,.06.73s-.48.05-1,.08L9.45,18l2-5.82L10,8.43c-.47,0-.93-.08-.93-.08a.37.37,0,0,1,.06-.73s1.46.11,2.34.11,2.36-.11,2.36-.11a.37.37,0,0,1,.06.73s-.48.05-1,.08L16.09,18,17,15a10.54,10.54,0,0,0,.68-2.87Zm-5.84,1.23L9.15,21.1a9.06,9.06,0,0,0,2.51.36A8.94,8.94,0,0,0,14.6,21l-.06-.12-2.73-7.47Zm7.63-5a6.67,6.67,0,0,1,.06.92,8.42,8.42,0,0,1-.67,3.17l-2.71,7.84A8.87,8.87,0,0,0,19.44,8.33ZM11.66,2.25A10.34,10.34,0,1,0,22,12.59,10.35,10.35,0,0,0,11.66,2.25Zm0,20.21a9.87,9.87,0,1,1,9.86-9.87,9.88,9.88,0,0,1-9.86,9.87Z"/></svg>