<svg id="Layer_1" data-name="Layer 1" xmlns="http://www.w3.org/2000/svg" viewBox="0 0 24 24"><defs><style>.cls-1{fill:#0072c6;}</style></defs><path class="cls-1" d="M11.35,1.19h1.37a9.7,9.7,0,0,1,3.52,1.49,6.45,6.45,0,0,0,2,.84,13.84,13.84,0,0,0,2.33.24c.67,0,.87.21.87.88,0,2.41,0,4.82,0,7.23a6,6,0,0,1-.05.74,9.09,9.09,0,0,1-2.09,4.58,27,27,0,0,1-7.18,6.16h-.29a27.66,27.66,0,0,1-7-5.91,9.25,9.25,0,0,1-2.33-6.53c.1-2,0-4.1,0-6.15,0-.88.1-1,1-1a7.08,7.08,0,0,0,3.87-.85A9.84,9.84,0,0,1,11.35,1.19Zm5.77,11.65v0h.35c1.36,0,1.39,0,1.14-1.37A6.79,6.79,0,0,0,5.2,12.2c0,.4.11.63.54.62.64,0,1.28,0,1.92,0,.47,0,.66-.18.74-.64a3.59,3.59,0,0,1,3.16-3,3.64,3.64,0,0,1,3.86,2.45c.14.39.19.93.46,1.12S16.7,12.82,17.12,12.84ZM12,15.3a2.54,2.54,0,0,0,2.48-2.59A2.5,2.5,0,0,0,12,10.33a2.49,2.49,0,1,0,0,5Z"/></svg>