<svg id="Layer_1" data-name="Layer 1" xmlns="http://www.w3.org/2000/svg" viewBox="0 0 24 24"><defs><style>.cls-1{fill:#eb5e32;}</style></defs><path class="cls-1" d="M12.48,20.69V18.18a.42.42,0,0,1,.15-.35L17,13.45l.17-.14,0-.05H12.48V9.52H8.93a2.15,2.15,0,0,1,.2-.21q1.59-1.61,3.2-3.2a.48.48,0,0,0,.15-.37V3.31h6.58A1.64,1.64,0,0,1,20.77,5q0,7,0,14a1.64,1.64,0,0,1-1.7,1.69c-2.12,0-4.25,0-6.37,0Z"/><path d="M7,10.34h4.67v3.72h3.56a2.11,2.11,0,0,1-.18.2l-3.24,3.23a.43.43,0,0,0-.14.33c0,.87,0,1.74,0,2.62v.26h-.23c-2.11,0-4.22,0-6.33,0A1.65,1.65,0,0,1,3.36,19V5A1.65,1.65,0,0,1,5.09,3.3h6.57v.22c0,.6,0,1.21,0,1.81a.55.55,0,0,1-.18.45L7.12,10.14,7,10.28Z"/></svg>