<svg id="Layer_1" data-name="Layer 1" xmlns="http://www.w3.org/2000/svg" viewBox="0 0 24 24"><defs><style>.cls-1{fill:#fc0000;}</style></defs><path class="cls-1" d="M4.44,5.09l.77.85A13.16,13.16,0,0,0,8.14,8.25a20.36,20.36,0,0,0,2.44,1.19c.67.26,1.35.48,2,.7,1,.32,2,.62,3,.93a12.31,12.31,0,0,1,2.41,1,4.86,4.86,0,0,1,.91.65,1.18,1.18,0,0,1,.28,1.46,5.24,5.24,0,0,0-.24.86.36.36,0,0,0,.28.43l1.3.4a4.53,4.53,0,0,1,1.39.65.91.91,0,0,1,.33.51.9.9,0,0,0,.17.32,3.73,3.73,0,0,1,.67,1,1.19,1.19,0,0,1,0,.77l-.06,0a1.13,1.13,0,0,0-.12-.18,6.4,6.4,0,0,0-2.53-1.82A6.14,6.14,0,0,0,18,16.72c-.55,0-1.1,0-1.65,0a4.68,4.68,0,0,1-1.78-.24,4.8,4.8,0,0,1-1.47-1A6.56,6.56,0,0,1,12,14c-.46-.77-.89-1.56-1.35-2.33A7.18,7.18,0,0,0,8.92,9.76C8,9.06,7.15,8.4,6.28,7.69a5.8,5.8,0,0,1-1.67-2c-.08-.17-.15-.36-.23-.54ZM22,17.35c0-.21,0-.36-.15-.45a.81.81,0,0,0-.65-.18Z"/><path class="cls-1" d="M15.53,20.33l.48.08,0-.05a6.48,6.48,0,0,1-1.94-1.67,2.71,2.71,0,0,0,1,.37,27.59,27.59,0,0,0-3-3.06l0,0a2.9,2.9,0,0,1,.33.2,5.65,5.65,0,0,0,1.54.8,4.8,4.8,0,0,0,2.26.17A8.59,8.59,0,0,1,19.2,17a5.45,5.45,0,0,1,1.65.6l.89.55.19.16-.22,0a4.2,4.2,0,0,0-2.3.53,3,3,0,0,1-1.6.42s-.07,0-.17,0a2.86,2.86,0,0,0,.34.35,2.26,2.26,0,0,0,1.27.36,6.37,6.37,0,0,1,.63.1.39.39,0,0,1,.34.44,2,2,0,0,1-.07.42s0,.06-.07.06S20,21,20,21a2.41,2.41,0,0,0-.08-.25.73.73,0,0,0-.64-.39,1.48,1.48,0,0,0-.83.2.58.58,0,0,0-.16.91,4,4,0,0,0,.43.37.81.81,0,0,1-.66-.13,1.71,1.71,0,0,1-.73-1c-.07-.15-.15-.12-.26-.1a4.67,4.67,0,0,1-.74.09,1.62,1.62,0,0,1-.81-.34Z"/><path class="cls-1" d="M.85,4.43c.24.22.46.41.66.62A29.05,29.05,0,0,0,4.13,7.38c.93.73,1.93,1.36,2.93,2a11.34,11.34,0,0,1,2.5,2.08A4.26,4.26,0,0,1,10.43,13l-.53-.6a8.47,8.47,0,0,0-2-1.56,30.65,30.65,0,0,1-4.2-2.75A10.47,10.47,0,0,1,1.38,5.58c-.2-.31-.34-.65-.51-1A.88.88,0,0,1,.85,4.43Z"/><path class="cls-1" d="M1.66,7.47l.86.79a21,21,0,0,0,4,2.78c.69.38,1.38.77,2.05,1.19a5.91,5.91,0,0,1,1.93,1.89.21.21,0,0,1,0,.14l-.07,0a8.08,8.08,0,0,0-2.41-1.69,27.73,27.73,0,0,1-3.23-1.72A11,11,0,0,1,2.34,8.72a3.8,3.8,0,0,1-.7-1.18Z"/><path class="cls-1" d="M13.11,17.77l-.33-.12c-.48-.17-.95-.37-1.43-.52s-.85-.2-1.26-.33a14.41,14.41,0,0,1-1.44-.5,7.49,7.49,0,0,1-2.51-1.77A1.25,1.25,0,0,1,6,14.36a6.23,6.23,0,0,0,3.63,1.39l0-.07c-.13-.13-.26-.27-.4-.39s-.31-.23-.46-.36a10.57,10.57,0,0,1,4.3,2.77Z"/></svg>