<?xml version="1.0" encoding="utf-8"?>
<!-- Generator: Adobe Illustrator 24.3.0, SVG Export Plug-In . SVG Version: 6.00 Build 0)  -->
<svg version="1.1" id="Layer_1" xmlns="http://www.w3.org/2000/svg" xmlns:xlink="http://www.w3.org/1999/xlink" x="0px" y="0px"
	 viewBox="0 0 24 24" style="enable-background:new 0 0 24 24;" xml:space="preserve">
<style type="text/css">
	.st0{fill:#176EC4;}
	.st1{fill:#C7DF89;}
	.st2{fill:#7E6A54;}
</style>
<g>
	<path class="st0" d="M7.5,11.6c-0.3,0.1-0.5,0.1-0.8,0v-0.2h1.3c0.1,0,0.3,0,0.3,0.2c0-0.2,0.2-0.2,0.3-0.2h1.2
		c0.1,0,0.1,0,0.1,0.1s0,0.1-0.1,0.1c-0.1,0-0.3,0-0.4,0c-0.1,0-0.3,0-0.4,0c-0.1,0-0.3,0-0.4,0H7.7C7.7,11.7,7.6,11.7,7.5,11.6z"/>
	<path class="st0" d="M2.8,13.1v-0.2h3.1c0,0.2,0,0.2-0.2,0.2H2.8z"/>
	<path class="st0" d="M2.8,10.7v-0.2h2.9c0.2,0,0.2,0,0.2,0.2L2.8,10.7z"/>
	<path class="st0" d="M5.6,10.2H2.8c0,0,0-0.1,0-0.1c0-0.1,0-0.1,0.1-0.1h2C5.2,10,5.4,10.1,5.6,10.2z"/>
	<path class="st0" d="M5.6,13.4c-0.2,0.1-0.4,0.2-0.6,0.2H3c-0.1,0-0.1,0-0.1-0.1s0-0.1,0.1-0.1L5.6,13.4L5.6,13.4z"/>
	<path class="st0" d="M5.7,12.2H3.5c-0.1,0-0.1,0-0.1-0.1s0-0.1,0.1-0.1h2C5.7,11.9,5.7,12,5.7,12.2L5.7,12.2z"/>
	<path class="st0" d="M3.4,11.4h2.4c-0.1,0.1-0.2,0.2-0.4,0.2H3.6C3.3,11.7,3.3,11.7,3.4,11.4z"/>
	<path class="st0" d="M0.6,10h1.8c0.1,0,0.1,0.1,0.1,0.1s0,0.1-0.1,0.1H0.6l0,0L0.6,10z"/>
	<path class="st0" d="M2.5,13.4v0.2H0.6v-0.2c0-0.1,0-0.1,0.1-0.1L2.5,13.4L2.5,13.4z"/>
	<path class="st0" d="M2.5,10.5v0.2H0.6v-0.2H2.5z"/>
	<path class="st0" d="M0.6,13.1c0,0,0-0.1,0-0.1s0-0.1,0-0.1h1.9v0.2H0.6z"/>
	<path class="st0" d="M8,10.7H6.1v-0.2h1.6C7.9,10.5,8,10.5,8,10.7z"/>
	<path class="st0" d="M7.8,10.2H6.1V10h1.4C7.7,10,7.7,10,7.8,10.2z"/>
	<path class="st0" d="M10.6,10.7H8.8c0-0.2,0-0.2,0.2-0.2h1.4C10.6,10.5,10.6,10.5,10.6,10.7z"/>
	<path class="st0" d="M10.6,10.2H9C9,10,9,10,9.2,10h1.2C10.6,10,10.6,10,10.6,10.2z"/>
	<path class="st0" d="M8.6,11.2c0-0.2,0-0.2,0.3-0.2h1.1c0.1,0,0.1,0,0.1,0.1s0,0.1-0.1,0.1H8.6z"/>
	<path class="st0" d="M6.7,11h1.2c0.2,0,0.2,0,0.3,0.2H6.9C6.7,11.2,6.7,11.2,6.7,11z"/>
	<path class="st0" d="M10.6,13.6H9.4c-0.2,0-0.2,0-0.2-0.2h1.2C10.6,13.4,10.6,13.4,10.6,13.6z"/>
	<path class="st0" d="M6.2,13.6v-0.2h1.4v0.2H6.2z"/>
	<path class="st0" d="M9.2,12.9h1.4v0.2H9.4C9.2,13.1,9.2,13.1,9.2,12.9z"/>
	<path class="st0" d="M7.5,13.1H6.2v-0.2h1.4V13.1z"/>
	<path class="st0" d="M7.7,11.9H9c0,0.2,0,0.2-0.2,0.2H8C7.8,12.2,7.8,12.1,7.7,11.9z"/>
	<path class="st0" d="M5.1,12.4c0.3,0,0.5,0,0.8,0c0,0,0.1,0.1,0.1,0.2H5.1V12.4z"/>
	<path class="st0" d="M5,11.2V11h0.9c0,0.2,0,0.2-0.2,0.2L5,11.2L5,11.2z"/>
	<path class="st0" d="M8.8,12.4c0,0.2-0.1,0.2-0.2,0.2H8.2c-0.2,0-0.2,0-0.3-0.2H8.8z"/>
	<path class="st0" d="M4.2,11v0.1c0,0.1,0,0.1-0.1,0.1s-0.4,0-0.6,0s-0.1,0-0.1-0.1s0-0.1,0.1-0.1H4.2z"/>
	<path class="st0" d="M4.2,12.6H3.4c0,0-0.1-0.1-0.1-0.1c0,0,0-0.1,0.1-0.1h0.7c0,0,0,0,0.1,0.1C4.2,12.5,4.2,12.6,4.2,12.6z"/>
	<path class="st0" d="M7.5,12.4v0.2H6.8c0,0-0.1-0.1-0.1-0.1c0-0.1,0-0.1,0-0.2H7.5z"/>
	<path class="st0" d="M10.1,12.6H9.3c-0.1,0-0.1-0.1-0.1-0.1s0-0.1,0.1-0.1H10c0,0,0.1,0,0.1,0.1C10.1,12.5,10.1,12.6,10.1,12.6z"/>
	<path class="st0" d="M1.6,11h0.3C2,11,2,11,2,11.1s0,0.1-0.1,0.1H1.2c-0.1,0-0.1-0.1-0.1-0.1s0-0.1,0.1-0.1L1.6,11z"/>
	<path class="st0" d="M1.1,12.6v-0.1c0-0.1,0-0.1,0.1-0.1h0.6c0.1,0,0.1,0,0.1,0.1s0,0.1-0.1,0.1H1.1z"/>
	<path class="st0" d="M1.1,11.4h0.8c0,0,0.1,0.1,0.1,0.1c0,0,0,0.1-0.1,0.1H1.2c0,0-0.1,0-0.1-0.1C1.1,11.5,1.2,11.5,1.1,11.4z"/>
	<path class="st0" d="M7.5,11.9v0.2H6.7v-0.2H7.5z"/>
	<path class="st0" d="M9.6,12.2H9.3c-0.1,0-0.1-0.1-0.1-0.1s0-0.1,0.1-0.1H10c0.1,0,0.1,0.1,0.1,0.1s0,0.1-0.1,0.1H9.6z"/>
	<path class="st0" d="M1.6,12.2H1.2c-0.1,0-0.1-0.1-0.1-0.1s0-0.1,0.1-0.1h0.7C2,11.9,2,12,2,12.1s0,0.1-0.1,0.1H1.6z"/>
	<path class="st0" d="M8.7,12.9c-0.1,0.1,0,0.2-0.2,0.2c-0.3,0-0.3,0-0.4-0.2H8.7z"/>
	<path class="st0" d="M8.4,13.6l-0.1-0.2h0.2L8.4,13.6L8.4,13.6z"/>
	<path class="st1" d="M14.1,12.8c0.1,0,0.1-0.1,0.1-0.1c0.2-0.3,0.3-0.7,0.2-1c-0.2-0.7-0.9-1.1-1.6-0.9c-0.4,0.1-0.7,0.4-0.9,0.8
		c-0.1,0.4,0,0.9,0.3,1.3c0,0,0.1,0,0.1,0s0,0,0,0l-0.1-0.3c-0.2-0.4-0.1-1,0.2-1.4c0.4-0.4,1.1-0.4,1.5,0c0.4,0.4,0.4,1.1,0,1.5
		C13.9,12.7,14,12.8,14.1,12.8L14.1,12.8z"/>
	<path class="st1" d="M13.7,12.5c0,0,0.1-0.1,0.1-0.1c0.1-0.2,0.2-0.4,0.1-0.7c-0.1-0.4-0.6-0.7-1-0.6c-0.3,0.1-0.5,0.3-0.6,0.5
		c-0.1,0.3,0,0.6,0.2,0.8l0,0l0,0c0-0.1,0-0.1-0.1-0.2c-0.1-0.3-0.1-0.6,0.1-0.9c0.3-0.3,0.7-0.3,1,0c0.3,0.3,0.3,0.7,0,1
		C13.5,12.4,13.6,12.5,13.7,12.5L13.7,12.5z"/>
	<path class="st1" d="M13.4,12.1C13.4,12.1,13.4,12.1,13.4,12.1c0.1-0.2,0.1-0.3,0.1-0.4c-0.1-0.2-0.3-0.4-0.6-0.3
		c-0.2,0-0.3,0.2-0.3,0.3c0,0.2,0,0.3,0.1,0.4l0,0l0,0c0,0,0-0.1,0-0.1c-0.1-0.2,0-0.3,0.1-0.5c0.2-0.1,0.4-0.1,0.5,0
		C13.5,11.8,13.5,12,13.4,12.1L13.4,12.1L13.4,12.1z"/>
	<path class="st1" d="M15,11.9c0-1-0.8-1.8-1.8-1.8s-1.8,0.8-1.8,1.8c0,1,0.8,1.8,1.8,1.8c0,0,0,0,0,0c0.1,0,0.3,0,0.4-0.1h1.3v-0.3
		h-0.6C14.8,13,15,12.4,15,11.9z M11.8,11.9c0-0.8,0.6-1.4,1.4-1.4s1.4,0.6,1.4,1.4c0,0.8-0.6,1.4-1.4,1.4
		C12.4,13.4,11.8,12.7,11.8,11.9C11.8,11.9,11.8,11.9,11.8,11.9L11.8,11.9z"/>
	<path class="st2" d="M16.3,12.8H16v0.8h-0.5v-2.1h0.8c0.2,0,0.4,0.1,0.6,0.2c0.1,0.1,0.2,0.3,0.2,0.5c0,0.3-0.1,0.5-0.4,0.6
		l0.5,0.9l0,0h-0.5L16.3,12.8z M16,12.4h0.3c0.1,0,0.3-0.1,0.3-0.2c0,0,0-0.1,0-0.1c0-0.1,0-0.2-0.1-0.2c-0.1-0.1-0.1-0.1-0.2-0.1
		H16V12.4z"/>
	<path class="st2" d="M18.4,13.6c0,0,0-0.1,0-0.1c-0.1,0.1-0.2,0.2-0.4,0.2c-0.1,0-0.3,0-0.4-0.1c-0.1-0.1-0.2-0.2-0.2-0.3
		c0-0.2,0.1-0.3,0.2-0.4c0.2-0.1,0.4-0.1,0.6-0.1h0.1v-0.1c0-0.1-0.1-0.2-0.2-0.2c-0.1,0-0.2,0-0.2,0.1c0,0,0,0,0,0h-0.5
		c0-0.1,0.1-0.3,0.2-0.4c0.1-0.1,0.3-0.2,0.5-0.1c0.2,0,0.3,0,0.5,0.1c0.1,0.1,0.2,0.3,0.2,0.4v0.7c0,0.1,0,0.2,0.1,0.3l0,0
		L18.4,13.6z M18.1,13.3c0.1,0,0.1,0,0.2,0c0,0,0.1-0.1,0.1-0.1v-0.3h-0.1c-0.2,0-0.3,0.1-0.3,0.2c0,0,0,0.1,0,0.1
		C18,13.3,18,13.3,18.1,13.3z"/>
	<path class="st2" d="M19,12.8c0-0.2,0-0.4,0.2-0.6c0.1-0.1,0.3-0.2,0.5-0.2c0.1,0,0.3,0.1,0.4,0.2v-0.8h0.5v2.3H20v-0.2
		c-0.1,0.1-0.2,0.2-0.4,0.2c-0.2,0-0.3-0.1-0.5-0.2C19.1,13.2,19,13,19,12.8z M19.5,12.8c0,0.3,0.1,0.4,0.2,0.4
		c0.1,0,0.2-0.1,0.2-0.1v-0.6c0-0.1-0.1-0.1-0.2-0.1C19.6,12.3,19.5,12.4,19.5,12.8L19.5,12.8z"/>
	<path class="st2" d="M21.7,13.6c0,0,0-0.1,0-0.1c-0.1,0.1-0.2,0.2-0.4,0.2c-0.1,0-0.3,0-0.4-0.1c-0.1-0.1-0.2-0.2-0.2-0.3
		c0-0.2,0.1-0.3,0.2-0.4c0.2-0.1,0.4-0.1,0.6-0.1h0.1v-0.1c0-0.1-0.1-0.2-0.2-0.2c-0.1,0-0.2,0-0.2,0.1c0,0,0,0,0,0h-0.5
		c0-0.1,0.1-0.3,0.2-0.4c0.1-0.1,0.3-0.2,0.5-0.1c0.2,0,0.3,0,0.5,0.1c0.1,0.1,0.2,0.3,0.2,0.4v0.7c0,0.1,0,0.2,0.1,0.3l0,0
		L21.7,13.6z M21.4,13.3c0.1,0,0.1,0,0.2,0c0,0,0.1-0.1,0.1-0.1v-0.3h-0.1c-0.2,0-0.3,0.1-0.3,0.2c0,0,0,0.1,0,0.1
		C21.3,13.3,21.3,13.3,21.4,13.3z"/>
	<path class="st2" d="M23.3,12.4h-0.2c-0.2,0-0.3,0.1-0.3,0.1v1h-0.5V12h0.5v0.2c0.1-0.1,0.2-0.2,0.4-0.2h0.1V12.4z"/>
</g>
</svg>
