<svg id="Layer_1" data-name="Layer 1" xmlns="http://www.w3.org/2000/svg" viewBox="0 0 24 24"><defs><style>.cls-1{fill:#16a6b6;}</style></defs><path class="cls-1" d="M12.05,1.34a11.06,11.06,0,0,0-3,.4h0c.22.52.28,1.09.45,1.62A9.43,9.43,0,0,1,12.05,3a9.24,9.24,0,1,1-9.24,9.24,8.15,8.15,0,0,1,.09-1.22c-.56-.06-1.13-.12-1.69-.16a10.43,10.43,0,0,0-.09,1.38A10.94,10.94,0,1,0,12.05,1.34Z"/><path class="cls-1" d="M12.05,4a8.22,8.22,0,0,0-1.93.23l.06,0a.91.91,0,0,1,.27.64v.16a.61.61,0,0,0,0,.11l0,.11a7.16,7.16,0,1,1-5.62,7,6.5,6.5,0,0,1,.08-1l-1.12-.13A8.28,8.28,0,1,0,12.05,4Z"/><path class="cls-1" d="M12.05,6.2a5.66,5.66,0,0,0-1,.09.91.91,0,0,1,.33.69v.11a5.06,5.06,0,0,1,.68,0,5.23,5.23,0,1,1-5.22,5.23,5.06,5.06,0,0,1,.06-.79l-.84-.08a4.94,4.94,0,0,0-.07.87A6.08,6.08,0,1,0,12.05,6.2Z"/><path class="cls-1" d="M2.76,5.88A22.53,22.53,0,0,1,8,7.74a25.68,25.68,0,0,1,5,3.32A26.91,26.91,0,0,1,4.86,7.42Z"/><circle class="cls-1" cx="5.98" cy="3.98" r="1.21"/><circle class="cls-1" cx="7.99" cy="5.83" r="0.83"/><circle class="cls-1" cx="4.37" cy="9.08" r="0.61"/></svg>