<svg id="Layer_1" data-name="Layer 1" xmlns="http://www.w3.org/2000/svg" viewBox="0 0 24 24"><defs><style>.cls-1{fill:#ed2e26;}</style></defs><path class="cls-1" d="M12.09,23.65H12l-.39-.24a22.54,22.54,0,0,1-5.78-4.54,11.64,11.64,0,0,1-3.28-6.7A39.91,39.91,0,0,1,2.6,4.29a.73.73,0,0,1,.27-.46,17.67,17.67,0,0,1,2.05-1.4A15.3,15.3,0,0,1,15.4,1.05a12.93,12.93,0,0,1,5.51,2.51,1.31,1.31,0,0,1,.62,1.08c0,1.9.12,3.8.1,5.7a15.87,15.87,0,0,1-.33,3.08A13.27,13.27,0,0,1,17.19,20,26,26,0,0,1,12.09,23.65Zm1.62-8.42a7.76,7.76,0,0,0,2.62.65c.12,0,.28-.12.38-.21A6.62,6.62,0,0,0,19,9.25,7,7,0,0,0,5,10.8a7.82,7.82,0,0,0,3.54,6.29,15.23,15.23,0,0,0,6.12,2.36.59.59,0,0,0,.44-.05c.67-.56,1.31-1.14,2-1.72-.86-.27-1.62-.39-2.38-.56A12.67,12.67,0,0,1,9.58,15,5.31,5.31,0,0,1,7.9,8.33a4.68,4.68,0,0,1,6.65-1.81,4.5,4.5,0,0,1,1.18,6.68A25.77,25.77,0,0,1,13.71,15.23Z"/></svg>