<svg id="Layer_1" data-name="Layer 1" xmlns="http://www.w3.org/2000/svg" viewBox="0 0 24 24"><defs><style>.cls-1{fill:#333152;}.cls-2{fill:#dbdbdb;}.cls-3{fill:#c49a7e;}.cls-4{fill:#fff;}</style></defs><path class="cls-1" d="M17.36,6.86a1.23,1.23,0,0,1-.06.25c-.22.6-.42,1.22-.67,1.81a2.36,2.36,0,0,0,0,1.12q.08,1.58.18,3.15a1.47,1.47,0,0,1-.32.92c-.18.27-.35.53-.55.78a.68.68,0,0,0-.15.53c.18,1.55.33,3.1.51,4.64a.6.6,0,0,1-.28.67c-1.14.8-2.27,1.62-3.39,2.43a.87.87,0,0,1-1.22,0L7.83,20.59a.28.28,0,0,1-.13-.29l.45-4.18s0-.09,0-.14a1.52,1.52,0,0,0-.39-1.52,2.32,2.32,0,0,1-.57-1.94c.09-1,.16-2,.23-3A1.46,1.46,0,0,0,7.38,9c-.21-.6-.45-1.19-.65-1.79a1.19,1.19,0,0,1,0-.67c.26-.82.54-1.65.88-2.44s.82-1.67,1.24-2.5A.66.66,0,0,1,9,1.43a.71.71,0,0,1,.11.21c.24,1.6.45,3.2.71,4.79a3.18,3.18,0,0,0,.44.91s.11,0,.16,0a4.69,4.69,0,0,1,3.18,0c.06,0,.17,0,.22-.09a3,3,0,0,0,.54-1.72c.18-1.31.37-2.61.57-3.92A.66.66,0,0,1,15,1.44c.06,0,.13.06.16.11a26.51,26.51,0,0,1,2.06,4.58,3.84,3.84,0,0,1,.11.46A1.57,1.57,0,0,1,17.36,6.86ZM11.45,17.67c-.11-.09-.21-.16-.29-.24a1.34,1.34,0,0,1-.21-.2c-.22-.24-.26-.4-.08-.66a1.27,1.27,0,0,0,.15-.89c0-.16,0-.31,0-.47,0-.7-.07-1.4-.11-2.1a1.09,1.09,0,0,0-.09-.23,1.05,1.05,0,0,0-.21.12c-.21.22-.41.45-.6.68a1.14,1.14,0,0,1-.77.51c-.17,0-.34.11-.52.15s-.21.15-.09.3.29.36.41.55a.71.71,0,0,1,.14.39,9.81,9.81,0,0,0,.31,2.21,1.67,1.67,0,0,0,.51.89,1.29,1.29,0,0,0,1.39.14,1,1,0,0,0,.48-1.18.24.24,0,0,0-.11-.16c-.05,0-.13,0-.18.06A.37.37,0,0,0,11.45,17.67Zm1.12,0-.13-.15c-.12-.1-.23-.09-.26.08A1,1,0,0,0,13,19a1.27,1.27,0,0,0,1.47-.82,5.88,5.88,0,0,0,.38-2.07,1.78,1.78,0,0,1,.46-1.25c.32-.36.31-.41-.16-.51a2,2,0,0,1-1.29-.83,2.8,2.8,0,0,0-.39-.45.74.74,0,0,0-.21-.13.7.7,0,0,0-.08.23c-.06,1-.11,2-.16,3a.48.48,0,0,0,.06.26c.3.56.29.68-.2,1.1ZM15.48,4c0,.14-.07.22-.09.3a2.46,2.46,0,0,0,.13,1.42c.17.5.38,1,.58,1.48,0,.08.14.24.21.08s.33-.56.2-.9c-.29-.74-.59-1.47-.88-2.21C15.61,4.07,15.56,4,15.48,4ZM7.77,7.36A2.93,2.93,0,0,0,8,7.09c.2-.55.41-1.1.6-1.66a2.25,2.25,0,0,0,0-1.26A.75.75,0,0,0,8.52,4s-.11.06-.13.11c-.31.75-.62,1.51-.89,2.28C7.38,6.74,7.62,7,7.77,7.36ZM12,20.43a1.54,1.54,0,0,0,1.29-.72c.06-.1.12-.23,0-.26s-.37-.09-.54.11a1,1,0,0,1-1.4,0,.47.47,0,0,0-.45-.16c-.23,0-.28.09-.15.28A1.54,1.54,0,0,0,12,20.43Zm-1.83-9.22h.59c.15,0,.22-.08.13-.22a1.79,1.79,0,0,0-1.49-.58.38.38,0,0,0-.23.25.55.55,0,0,0,.54.55Zm3.66,0h0a2.67,2.67,0,0,1,.4,0c.31.06.45-.12.56-.36s0-.43-.27-.45a1.74,1.74,0,0,0-1.38.57.21.21,0,0,0,0,.17s.08.06.13.07Zm-3.67.54c.11.21.15.39-.08.51s-.32,0-.41-.17A.22.22,0,0,0,9.74,12c0-.07.09-.15.08-.2s-.12-.08-.19-.09H9.29a.66.66,0,1,0,1.32,0Zm3.68,0h-.46a.68.68,0,0,0,1,.61.62.62,0,0,0,.29-.62h-.39c-.16,0-.21.11-.13.24a1.21,1.21,0,0,0,.14.1c-.12.2-.27.27-.44.17S13.73,12,13.84,11.75Zm-2.37,7.53a.68.68,0,0,0,1,0Z"/><path class="cls-2" d="M7,19.63,5.27,18.38a.63.63,0,0,1-.2-.54V7.05c0-.51.1-.63.59-.76L6,6.19c0,.09,0,.15,0,.2a1.82,1.82,0,0,0,.11,1.17c.17.37.27.78.44,1.15a2.49,2.49,0,0,1,.15,1.35c-.08,1-.12,2-.18,3a2,2,0,0,0,.4,1.35c.06.07.09.17.16.24A1.44,1.44,0,0,1,7.41,16c-.15,1.15-.26,2.32-.39,3.48C7,19.54,7,19.56,7,19.63Z"/><path class="cls-2" d="M18,6.18c.25.07.45.11.63.18a.49.49,0,0,1,.34.45,1.61,1.61,0,0,1,0,.22q0,5.37,0,10.76a.8.8,0,0,1-.37.72c-.52.35-1,.72-1.56,1.12,0-.37-.08-.7-.12-1-.11-1-.23-2.07-.33-3.11a.72.72,0,0,1,.11-.39c.16-.28.35-.54.53-.81a1.62,1.62,0,0,0,.3-1c0-1-.07-2.07-.16-3.1a2.94,2.94,0,0,1,.21-1.66c.12-.26.18-.54.3-.8A2,2,0,0,0,18,6.18Z"/><path class="cls-2" d="M10.37,5.56h3.25c0,.28-.06.51-.1.75s-.12.26-.34.2a4.8,4.8,0,0,0-2.38,0c-.22.06-.3,0-.32-.21S10.41,5.84,10.37,5.56Z"/><path class="cls-3" d="M11.45,17.67a.37.37,0,0,1,.11-.13s.13-.08.18-.06a.24.24,0,0,1,.11.16,1,1,0,0,1-.48,1.18A1.29,1.29,0,0,1,10,18.68a1.67,1.67,0,0,1-.51-.89,9.81,9.81,0,0,1-.31-2.21A.71.71,0,0,0,9,15.19c-.12-.19-.27-.37-.41-.55s-.12-.25.09-.3.35-.12.52-.15a1.14,1.14,0,0,0,.77-.51c.19-.23.39-.46.6-.68a1.05,1.05,0,0,1,.21-.12,1.09,1.09,0,0,1,.09.23c0,.7.07,1.4.11,2.1,0,.16,0,.31,0,.47a1.27,1.27,0,0,1-.15.89c-.18.26-.14.42.08.66a1.34,1.34,0,0,0,.21.2C11.24,17.51,11.34,17.58,11.45,17.67Z"/><path class="cls-3" d="M12.57,17.68l.27-.22c.49-.42.5-.54.2-1.1A.48.48,0,0,1,13,16.1c0-1,.1-2,.16-3a.7.7,0,0,1,.08-.23.74.74,0,0,1,.21.13,2.8,2.8,0,0,1,.39.45,2,2,0,0,0,1.29.83c.47.1.48.15.16.51a1.78,1.78,0,0,0-.46,1.25,5.88,5.88,0,0,1-.38,2.07A1.27,1.27,0,0,1,13,19a1,1,0,0,1-.78-1.34c0-.17.14-.18.26-.08Z"/><path class="cls-3" d="M15.48,4c.08.09.13.12.15.17.29.74.59,1.47.88,2.21.13.34-.07.62-.2.9s-.18,0-.21-.08c-.2-.49-.41-1-.58-1.48a2.46,2.46,0,0,1-.13-1.42C15.41,4.17,15.44,4.09,15.48,4Z"/><path class="cls-3" d="M7.77,7.36c-.15-.35-.39-.62-.27-1,.27-.77.58-1.53.89-2.28,0,0,.09-.08.13-.11a.75.75,0,0,1,.09.15,2.25,2.25,0,0,1,0,1.26C8.37,6,8.16,6.54,8,7.09A2.93,2.93,0,0,1,7.77,7.36Z"/><path class="cls-3" d="M12,20.43a1.54,1.54,0,0,1-1.29-.72c-.13-.19-.08-.25.15-.28a.47.47,0,0,1,.45.16,1,1,0,0,0,1.4,0c.17-.2.36-.14.54-.11s.1.16,0,.26A1.54,1.54,0,0,1,12,20.43Z"/><path class="cls-3" d="M10.17,11.21H9.71a.55.55,0,0,1-.54-.55.38.38,0,0,1,.23-.25,1.79,1.79,0,0,1,1.49.58c.09.14,0,.21-.13.22Z"/><path class="cls-3" d="M13.83,11.21h-.6c-.05,0-.12,0-.13-.07a.21.21,0,0,1,0-.17,1.74,1.74,0,0,1,1.38-.57c.3,0,.39.18.27.45s-.25.42-.56.36a2.67,2.67,0,0,0-.4,0Z"/><path class="cls-4" d="M10.16,11.75h.45a.66.66,0,1,1-1.32,0h.34c.07,0,.17,0,.19.09s0,.13-.08.2a.22.22,0,0,1-.07.06c.09.18.23.26.41.17S10.27,12,10.16,11.75Z"/><path class="cls-4" d="M13.84,11.75c-.11.2-.14.38.06.5s.32,0,.44-.17a1.21,1.21,0,0,1-.14-.1c-.08-.13,0-.23.13-.24h.39a.62.62,0,0,1-.29.62.68.68,0,0,1-1-.61Z"/><path class="cls-4" d="M11.47,19.28h1A.68.68,0,0,1,11.47,19.28Z"/></svg>