<svg id="Layer_1" data-name="Layer 1" xmlns="http://www.w3.org/2000/svg" viewBox="0 0 24 24"><defs><style>.cls-1{fill:#74ca33;}</style></defs><path d="M17.67,9.85s0,0,0,.07V12.7s0,.06,0,.07a.09.09,0,0,0,.11,0c.25-.28.5-.57.74-.86l.41-.46s0,0,.05,0l.63.27h0L18.5,12.91l1.36,1.7-.22.07-.57.2s-.05,0-.07,0l-1.28-1.78,0-.05v1.8h-.9v-5Z"/><path d="M8.48,9.85v5H7.59v-5Z"/><path d="M4.52,14.39v2.13H3.66V11.44h.87v.48h0l.09-.1a1.37,1.37,0,0,1,1.09-.46,1.43,1.43,0,0,1,1.37,1,2,2,0,0,1-.25,1.83,1.48,1.48,0,0,1-1.45.67,1.12,1.12,0,0,1-.75-.4l-.1-.11Zm1.73-1.33c0-.06,0-.14,0-.22a1.65,1.65,0,0,0-.18-.57.76.76,0,0,0-1.14-.21,1,1,0,0,0-.33.54,2.17,2.17,0,0,0,0,.88,1.27,1.27,0,0,0,.21.57.77.77,0,0,0,1,.27.78.78,0,0,0,.37-.39A2,2,0,0,0,6.25,13.06Z"/><path d="M16.16,14.82h-.89v-.06c0-.61,0-1.22,0-1.84a2.12,2.12,0,0,0,0-.44.57.57,0,0,0-.61-.51.79.79,0,0,0-.54.17.74.74,0,0,0-.24.45c0,.15,0,.29,0,.44v1.8h-.9V11.45h.9v.43h0l0,0a1.79,1.79,0,0,1,.52-.38,1.67,1.67,0,0,1,.63-.11,1.32,1.32,0,0,1,.55.11,1,1,0,0,1,.56.74,3,3,0,0,1,0,.52v2.09Z"/><path d="M11.4,11.44h.89v3.39H11.4v-.44h0l0,0a1.35,1.35,0,0,1-.6.4,1.5,1.5,0,0,1-1,0,1,1,0,0,1-.67-.77,3.27,3.27,0,0,1,0-.54V11.44H10v.06c0,.66,0,1.32,0,2a1.63,1.63,0,0,0,0,.31.56.56,0,0,0,.63.51.73.73,0,0,0,.53-.18.75.75,0,0,0,.23-.49,2.68,2.68,0,0,0,0-.4V11.44Z"/><path d="M.85,14.52l.29-.47.08.06a1.17,1.17,0,0,0,.48.25.65.65,0,0,0,.34,0,.4.4,0,0,0,.24-.63,1.07,1.07,0,0,0-.18-.19c-.18-.14-.37-.27-.55-.42a1.83,1.83,0,0,1-.32-.3.86.86,0,0,1,.27-1.3,1.25,1.25,0,0,1,.57-.16,1.86,1.86,0,0,1,1,.23l.06,0-.26.43a1.1,1.1,0,0,0-.4-.18.69.69,0,0,0-.35,0,.32.32,0,0,0-.13.56c.14.13.31.25.46.38l.51.42a.93.93,0,0,1-.2,1.45,1.54,1.54,0,0,1-.72.21,1.74,1.74,0,0,1-.87-.17A1.86,1.86,0,0,1,.85,14.52Z"/><path class="cls-1" d="M20.64,11.48l.42.21,2.23,1.12a.08.08,0,0,1,.06.09v.45a0,0,0,0,1,0,.05l-2.65,1.32,0,0v-.57s0,0,0,0l1.63-.81.43-.21,0,0-2-1a.08.08,0,0,1,0-.08v-.55Z"/></svg>