<svg id="Layer_1" data-name="Layer 1" xmlns="http://www.w3.org/2000/svg" viewBox="0 0 24 24"><defs><style>.cls-1{fill:#c00;}.cls-2{fill:#fce94f;}</style></defs><rect y="-0.08" width="24" height="24"/><rect class="cls-1" x="8.97" y="8.91" width="0.91" height="4.64"/><path class="cls-2" d="M9.75,8.41H9.57c0-.1,0-.21,0-.31s0-.17-.16-.15H9.3v.46H9.11v-1h.18v.4h.27V7.37h.19Z"/><path class="cls-2" d="M9,14.17h.2l.17.83h0c0-.12.05-.23.07-.34a2.17,2.17,0,0,0,.07-.35c0-.13.08-.2.23-.14l-.24,1h0c-.24,0-.24,0-.29-.22S9.11,14.46,9,14.17Z"/><path class="cls-2" d="M10.25,10.84c-.07,0-.2,0-.14-.13h.32V12h-.32c-.07-.17.08-.11.14-.14Z"/><path class="cls-2" d="M10.43,10.3h-.32c-.07-.16.08-.1.14-.13v-1s-.2,0-.14-.13h.32Z"/><path class="cls-2" d="M10.43,13.7c-.3,0-.33,0-.33-.1l.15,0v-1h-.14l0-.12h.34Z"/><path class="cls-2" d="M8.6,11.88h.14c0,.14,0,.15-.31.11V10.71h.32c.07.17-.08.1-.15.14Z"/><path class="cls-2" d="M8.42,10.3V9h.34v.11l-.16,0v1l.15,0C8.77,10.33,8.74,10.34,8.42,10.3Z"/><path class="cls-2" d="M8.43,12.41h.33v.12H8.6v1c.05,0,.21,0,.15.14H8.43Z"/><path class="cls-2" d="M5,12.14V10.71h.15v.69c0,.21,0,.43,0,.64S5.07,12.18,5,12.14Z"/><path class="cls-2" d="M15.51,12.14V10.71h.15v.69c0,.21,0,.43,0,.64S15.62,12.18,15.51,12.14Z"/><path class="cls-2" d="M1.45,12.41h.13v1.44H1.45Z"/><path class="cls-2" d="M1.45,10.71h.13a.62.62,0,0,1,0,.13V12c0,.1,0,.16-.14.12Z"/><path class="cls-2" d="M22.55,12.15V10.71h.14V12C22.69,12.16,22.69,12.16,22.55,12.15Z"/><path class="cls-2" d="M19,10.71h.12l0,0v1.34c0,.1-.06.1-.14.08Z"/><path class="cls-2" d="M5,12.41h.12a.17.17,0,0,1,0,.05v1.3c0,.11-.05.11-.14.09Z"/><path class="cls-2" d="M12,13.85V12.41h.12l0,0v1.31C12.14,13.87,12.09,13.87,12,13.85Z"/><path class="cls-2" d="M13.9,12.42v1.32c0,.13,0,.13-.14.1V12.42Z"/><path class="cls-2" d="M15.51,13.85V12.42h.15v.71c0,.2,0,.41,0,.61S15.63,13.88,15.51,13.85Z"/><path class="cls-2" d="M19,12.41h.13v1.44H19Z"/><path class="cls-2" d="M22.55,12.41h.14v1.33c0,.1,0,.14-.14.11Z"/><path class="cls-2" d="M6.72,15.55V14.12h.15v.53c0,.27,0,.53,0,.8C6.87,15.55,6.83,15.59,6.72,15.55Z"/><path class="cls-2" d="M8.48,15.54V14.12h.14v.68c0,.22,0,.43,0,.65S8.62,15.57,8.48,15.54Z"/><path class="cls-2" d="M19,15.55V14.12h.14v.74c0,.19,0,.39,0,.59S19.15,15.59,19,15.55Z"/><path class="cls-2" d="M20.79,14.11h.13v1.44h-.13Z"/><path class="cls-2" d="M9.27,10.68a1,1,0,0,1,.16.12,1,1,0,0,1,0,1.11.14.14,0,0,1-.2.08,1.26,1.26,0,0,0,0-1.27Z"/><path class="cls-2" d="M12.48,10.47h-.83c0-.12,0-.12.07-.12h.67C12.48,10.35,12.51,10.38,12.48,10.47Z"/><path class="cls-2" d="M13.35,10.36c0,.09,0,.12-.08.12H12.6c-.09,0-.12,0-.08-.12Z"/><path class="cls-2" d="M14.26,10.39s-.06.08-.09.08h-.7s-.07-.05-.1-.07l0,0h.84Z"/><path class="cls-2" d="M14.28,10.36h.83c0,.09,0,.12-.08.12h-.67C14.27,10.48,14.24,10.45,14.28,10.36Z"/><path class="cls-2" d="M16.9,10.39s-.07.08-.1.08H16v-.13h.83Z"/><path class="cls-2" d="M17.75,10.47h-.83c0-.12,0-.12.08-.12h.67C17.76,10.35,17.78,10.38,17.75,10.47Z"/><path class="cls-2" d="M19.56,10.47v-.11h.75c.09,0,.11,0,.08.12Z"/><path class="cls-2" d="M20.43,10.35h.83c0,.12,0,.12-.08.13h-.67C20.43,10.48,20.4,10.45,20.43,10.35Z"/><path class="cls-2" d="M21.28,10.43s.06-.08.1-.08h.69s.07.05.1.08l0,0h-.84Z"/><path class="cls-2" d="M10.74,8.69s-.06.08-.09.08H9.89V8.65h.84Z"/><path class="cls-2" d="M2,12.17v-.11h.75c.09,0,.12,0,.08.12Z"/><path class="cls-2" d="M18.63,10.47h-.84c0-.07,0-.12.07-.12h.7s.07.05.1.08Z"/><path class="cls-2" d="M8.12,7h.77S9,7,9,7l0,0H8.13Z"/><path class="cls-2" d="M9.84,7.07H9C9,7,9,7,9.09,7h.66C9.84,6.94,9.87,7,9.84,7.07Z"/><path class="cls-2" d="M9.88,7h.83c0,.12,0,.12-.08.12H10C9.87,7.08,9.84,7,9.88,7Z"/><path class="cls-2" d="M8.08,8.77H7.25V8.66H8C8.09,8.64,8.11,8.68,8.08,8.77Z"/><path class="cls-2" d="M8.12,8.77c0-.1,0-.13.09-.12h.67c.09,0,.11,0,.08.12Z"/><path class="cls-2" d="M11.6,8.77h-.83c0-.12,0-.12.07-.12h.67Q11.65,8.64,11.6,8.77Z"/><path class="cls-2" d="M2.8,10.47H2v-.12h.77s.06.06.09.09Z"/><path class="cls-2" d="M2.84,10.46c0-.08,0-.11.09-.11h.68s.07,0,.1.07l0,0Z"/><path class="cls-2" d="M16,13.88v-.12h.83c0,.07,0,.12-.07.12Z"/><path class="cls-2" d="M2.8,13.87H2v-.12h.77s.06.05.09.08Z"/><path class="cls-2" d="M2.85,13.76h.83l0,0s-.06.07-.09.07h-.7s-.07-.05-.1-.08Z"/><path class="cls-2" d="M4.56,13.87H3.73c0-.07,0-.12.07-.12h.69s.07.05.1.08Z"/><path class="cls-2" d="M5.49,13.87v-.1l0,0h.72c.09,0,.12,0,.08.12Z"/><path class="cls-2" d="M11.62,13.8s-.06.07-.09.07h-.76v-.12h.84Z"/><path class="cls-2" d="M13.35,13.87h-.83v-.11h.75C13.36,13.75,13.39,13.78,13.35,13.87Z"/><path class="cls-2" d="M15.11,13.87h-.83v-.1l.05,0H15C15.11,13.75,15.15,13.77,15.11,13.87Z"/><path class="cls-2" d="M20.42,15.51s-.07.07-.1.07h-.76v-.12h.83Z"/><path class="cls-2" d="M17.74,13.87h-.83c0-.08,0-.12.08-.12h.69a.35.35,0,0,1,.1.08Z"/><path class="cls-2" d="M22.17,13.8s-.06.07-.1.08h-.75v-.12h.82Z"/><path class="cls-2" d="M3.72,10.46c0-.08,0-.11.09-.11h.68s.07,0,.1.07l0,0Z"/><path class="cls-2" d="M5.49,10.47v-.12h.76s.07.06.1.08l0,0Z"/><path class="cls-2" d="M6.37,10.48c0-.1,0-.13.07-.13h.69s0,0,.08.05,0,.07-.07.07Z"/><path class="cls-2" d="M8.08,10.48H7.3s0,0-.07-.05,0-.07.07-.07H8s.07.06.1.08Z"/><path class="cls-2" d="M11.6,10.47h-.84v-.11h.75C11.6,10.35,11.63,10.38,11.6,10.47Z"/><path class="cls-2" d="M8.11,15.5s-.07.08-.1.08H7.25v-.12h.84Z"/><path class="cls-2" d="M18.06,13.73l.07-.44h.18C18.35,13.53,18.23,13.75,18.06,13.73Z"/><path class="cls-2" d="M4.37,11.32v.16H4c0-.18,0-.19.14-.19h.22Z"/><path class="cls-2" d="M9.53,9.43V9.07H9.7a1.92,1.92,0,0,0,0,.24C9.71,9.45,9.64,9.47,9.53,9.43Z"/><path class="cls-2" d="M9.17,9.43V9.07h.16v.24C9.34,9.43,9.3,9.47,9.17,9.43Z"/><path class="cls-2" d="M18.3,11.13h-.15v-.36h.15Z"/><path class="cls-2" d="M9.34,12.47H9.5v.36c-.11,0-.17,0-.16-.12A1.91,1.91,0,0,0,9.34,12.47Z"/><path class="cls-2" d="M6.9,11.58v.23H6.69v-.23Z"/><path class="cls-2" d="M17.44,11.81h-.2v-.23h.2Z"/><path class="cls-2" d="M21,11.58v.23h-.2v-.23Z"/></svg>