<svg width="331" height="102" viewBox="0 0 331 102" fill="none" xmlns="http://www.w3.org/2000/svg">
<g filter="url(#filter0_d_4715_36146)">
<rect x="32" width="267" height="102" rx="12" fill="white"/>
</g>
<g clip-path="url(#clip0_4715_36146)">
<path d="M107.087 44.7544C110.721 44.7544 113.694 47.7899 113.694 51.5C113.694 55.21 110.721 58.2455 107.087 58.2455C103.453 58.2455 100.48 55.21 100.48 51.5C100.48 47.7899 103.453 44.7544 107.087 44.7544Z" fill="#343434"/>
<path d="M80 44.2485C80 44.2485 80 44.4172 80 44.5858C80 45.2604 80.4955 45.9349 81.3213 45.9349H92.5526C93.048 45.9349 93.5435 45.5976 93.7087 45.0917C96.021 39.8639 101.141 36.3225 106.922 36.3225C115.015 36.3225 121.456 43.068 121.456 51.1627C121.456 59.426 114.85 66.003 106.922 66.003C100.976 66.003 96.021 62.4615 93.7087 57.4024C93.5435 57.0651 93.2132 56.7278 92.5526 56.7278H81.3213C80.6607 56.7278 80 57.4024 80 58.0769C80 58.0769 80 58.2456 80 58.4142C83.1381 70.7249 94.039 79.8314 107.087 79.8314C122.447 79.8314 135 67.0148 135 51.3314C135 35.8166 122.447 23 107.087 23C94.039 23 83.1381 32.1065 80 44.2485Z" fill="#343434"/>
</g>
<path d="M178.012 42.408C179.316 42.408 180.476 42.672 181.492 43.2C182.516 43.72 183.34 44.432 183.964 45.336C184.596 46.24 184.968 47.26 185.08 48.396H181.408C181.296 47.796 181.092 47.264 180.796 46.8C180.5 46.328 180.112 45.96 179.632 45.696C179.152 45.424 178.576 45.288 177.904 45.288C177.096 45.288 176.4 45.484 175.816 45.876C175.232 46.268 174.784 46.9 174.472 47.772C174.16 48.644 174.004 49.796 174.004 51.228C174.004 53.388 174.348 54.952 175.036 55.92C175.732 56.88 176.688 57.36 177.904 57.36C178.576 57.36 179.152 57.208 179.632 56.904C180.112 56.592 180.5 56.184 180.796 55.68C181.092 55.168 181.296 54.608 181.408 54H185.08C184.976 54.824 184.776 55.612 184.48 56.364C184.184 57.108 183.764 57.772 183.22 58.356C182.676 58.94 181.976 59.4 181.12 59.736C180.264 60.072 179.228 60.24 178.012 60.24C176.396 60.24 175 59.864 173.824 59.112C172.648 58.36 171.74 57.304 171.1 55.944C170.468 54.584 170.152 52.996 170.152 51.18C170.152 49.356 170.468 47.792 171.1 46.488C171.732 45.176 172.636 44.168 173.812 43.464C174.988 42.76 176.388 42.408 178.012 42.408ZM191.255 47.592V60H187.907V47.592H191.255ZM191.291 42.66V45.816H187.883V42.66H191.291ZM194.5 60V47.592H197.872V50.532C198.072 49.9 198.352 49.348 198.712 48.876C199.08 48.396 199.524 48.024 200.044 47.76C200.564 47.488 201.152 47.352 201.808 47.352C201.92 47.352 202.024 47.36 202.12 47.376C202.224 47.384 202.3 47.4 202.348 47.424V50.76C202.276 50.728 202.188 50.708 202.084 50.7C201.988 50.692 201.9 50.684 201.82 50.676C201.132 50.62 200.544 50.64 200.056 50.736C199.568 50.832 199.172 50.996 198.868 51.228C198.564 51.46 198.344 51.744 198.208 52.08C198.072 52.416 198.004 52.792 198.004 53.208V60H194.5ZM209.519 47.352C210.559 47.352 211.455 47.564 212.207 47.988C212.967 48.412 213.563 48.984 213.995 49.704C214.435 50.424 214.687 51.228 214.751 52.116H211.835C211.779 51.788 211.663 51.464 211.487 51.144C211.311 50.816 211.063 50.548 210.743 50.34C210.423 50.124 210.023 50.016 209.543 50.016C208.727 50.016 208.063 50.332 207.551 50.964C207.047 51.588 206.795 52.54 206.795 53.82C206.795 55.028 207.043 55.988 207.539 56.7C208.035 57.404 208.727 57.756 209.615 57.756C210.087 57.756 210.479 57.64 210.791 57.408C211.111 57.176 211.359 56.9 211.535 56.58C211.711 56.252 211.823 55.948 211.871 55.668H214.715C214.659 56.524 214.411 57.3 213.971 57.996C213.531 58.684 212.931 59.232 212.171 59.64C211.419 60.04 210.535 60.24 209.519 60.24C208.367 60.24 207.339 59.984 206.435 59.472C205.531 58.96 204.819 58.228 204.299 57.276C203.787 56.316 203.531 55.172 203.531 53.844C203.531 52.564 203.779 51.436 204.275 50.46C204.771 49.484 205.467 48.724 206.363 48.18C207.267 47.628 208.319 47.352 209.519 47.352ZM221.124 60.216C220.212 60.216 219.488 60.108 218.952 59.892C218.416 59.676 218.02 59.392 217.764 59.04C217.508 58.68 217.344 58.284 217.272 57.852C217.2 57.412 217.164 56.968 217.164 56.52V42.168H220.596V56.088C220.596 56.544 220.692 56.916 220.884 57.204C221.084 57.484 221.456 57.656 222 57.72L222.588 57.756V59.916C222.348 59.996 222.104 60.064 221.856 60.12C221.608 60.184 221.364 60.216 221.124 60.216ZM227.708 54.6C227.7 55.232 227.8 55.784 228.008 56.256C228.216 56.72 228.516 57.08 228.908 57.336C229.308 57.584 229.788 57.708 230.348 57.708C230.948 57.708 231.472 57.58 231.92 57.324C232.376 57.068 232.692 56.648 232.868 56.064H236.024C235.888 56.944 235.536 57.696 234.968 58.32C234.408 58.944 233.728 59.42 232.928 59.748C232.128 60.076 231.296 60.24 230.432 60.24C229.208 60.24 228.128 59.984 227.192 59.472C226.264 58.952 225.54 58.22 225.02 57.276C224.5 56.332 224.24 55.22 224.24 53.94C224.24 52.7 224.476 51.584 224.948 50.592C225.42 49.592 226.104 48.804 227 48.228C227.904 47.644 228.988 47.352 230.252 47.352C231.516 47.352 232.576 47.62 233.432 48.156C234.296 48.684 234.944 49.424 235.376 50.376C235.816 51.32 236.036 52.412 236.036 53.652V54.6H227.708ZM227.696 52.512H232.76C232.76 52.016 232.668 51.56 232.484 51.144C232.3 50.728 232.02 50.4 231.644 50.16C231.276 49.92 230.812 49.8 230.252 49.8C229.708 49.8 229.244 49.932 228.86 50.196C228.484 50.452 228.196 50.788 227.996 51.204C227.796 51.62 227.696 52.056 227.696 52.512ZM245.981 42.408C247.285 42.408 248.445 42.672 249.461 43.2C250.485 43.72 251.309 44.432 251.933 45.336C252.565 46.24 252.937 47.26 253.049 48.396H249.377C249.265 47.796 249.061 47.264 248.765 46.8C248.469 46.328 248.081 45.96 247.601 45.696C247.121 45.424 246.545 45.288 245.873 45.288C245.065 45.288 244.369 45.484 243.785 45.876C243.201 46.268 242.753 46.9 242.441 47.772C242.129 48.644 241.973 49.796 241.973 51.228C241.973 53.388 242.317 54.952 243.005 55.92C243.701 56.88 244.657 57.36 245.873 57.36C246.545 57.36 247.121 57.208 247.601 56.904C248.081 56.592 248.469 56.184 248.765 55.68C249.061 55.168 249.265 54.608 249.377 54H253.049C252.945 54.824 252.745 55.612 252.449 56.364C252.153 57.108 251.733 57.772 251.189 58.356C250.645 58.94 249.945 59.4 249.089 59.736C248.233 60.072 247.197 60.24 245.981 60.24C244.365 60.24 242.969 59.864 241.793 59.112C240.617 58.36 239.709 57.304 239.069 55.944C238.437 54.584 238.121 52.996 238.121 51.18C238.121 49.356 238.437 47.792 239.069 46.488C239.701 45.176 240.605 44.168 241.781 43.464C242.957 42.76 244.357 42.408 245.981 42.408ZM256.139 42.648H259.631V60H256.139V42.648Z" fill="#212529"/>
<defs>
<filter id="filter0_d_4715_36146" x="0" y="-32" width="331" height="166" filterUnits="userSpaceOnUse" color-interpolation-filters="sRGB">
<feFlood flood-opacity="0" result="BackgroundImageFix"/>
<feColorMatrix in="SourceAlpha" type="matrix" values="0 0 0 0 0 0 0 0 0 0 0 0 0 0 0 0 0 0 127 0" result="hardAlpha"/>
<feOffset/>
<feGaussianBlur stdDeviation="16"/>
<feComposite in2="hardAlpha" operator="out"/>
<feColorMatrix type="matrix" values="0 0 0 0 0 0 0 0 0 0 0 0 0 0 0 0 0 0 0.06 0"/>
<feBlend mode="normal" in2="BackgroundImageFix" result="effect1_dropShadow_4715_36146"/>
<feBlend mode="normal" in="SourceGraphic" in2="effect1_dropShadow_4715_36146" result="shape"/>
</filter>
<clipPath id="clip0_4715_36146">
<rect width="55" height="57" fill="white" transform="translate(80 23)"/>
</clipPath>
</defs>
</svg>
