<svg width="300" height="102" viewBox="0 0 300 102" fill="none" xmlns="http://www.w3.org/2000/svg">
<g filter="url(#filter0_d_4715_36025)">
<rect x="0.695312" width="267" height="102" rx="12" fill="white"/>
</g>
<g clip-path="url(#clip0_4715_36025)">
<path d="M57.9786 79.7927C56.9376 78.9639 55.8967 78.3423 54.8557 77.5135C52.982 75.8558 51.3165 73.9909 49.8591 71.9189C47.9854 69.018 46.7363 65.9099 46.1117 62.5945C45.9035 60.5225 45.6953 58.6576 45.6953 56.7927C45.6953 53.8918 46.3199 51.1981 47.569 48.5044C48.8182 45.3963 50.6919 42.7026 52.7738 40.2162C54.2311 38.3513 55.8967 36.4864 57.5622 34.6216C59.2277 32.5495 61.1015 30.6846 62.767 28.6126C64.4325 26.1261 66.098 23.8468 67.3472 21.3603C68.3881 19.2882 69.4291 17.2162 69.8455 14.9369C70.0537 13.6936 70.2619 12.4504 70.4701 11.2072C79.0059 14.9369 85.4598 21.1531 89.2073 29.6486C93.1629 38.1441 93.5793 46.8468 90.6646 55.7567C96.9103 53.6846 102.323 47.6756 102.948 39.8017C102.948 40.009 103.156 40.009 103.156 40.2162C104.613 42.9099 105.863 45.8108 106.279 48.9189C106.695 51.1981 106.904 53.6846 106.487 55.9639C106.071 60.7297 104.405 65.081 101.491 69.018C99.6168 71.7117 97.3267 73.9909 94.412 75.6486C91.4974 77.7207 88.1663 78.9639 84.6271 79.5855C82.9615 79.7927 81.5042 79.9999 79.8387 79.9999C77.7567 79.7927 75.6748 79.3783 73.5929 78.5495C71.0946 77.5135 69.0127 76.063 67.3472 74.1981C65.4735 72.1261 64.2243 69.8468 63.3916 67.1531C62.767 65.081 62.5588 63.009 62.767 60.9369C62.767 59.2792 63.1834 57.8288 63.8079 56.1711V55.9639C61.9342 57.2072 58.6032 61.9729 57.354 67.1531C56.7294 71.2972 56.7294 75.4414 57.9786 79.7927Z" fill="#663299"/>
</g>
<path d="M139.639 60V42.648H151.555L151.543 45.6H143.155V49.812H150.439V52.704H143.131V57.012L151.675 57.024V60H139.639ZM158.249 60.216C157.337 60.216 156.613 60.108 156.077 59.892C155.541 59.676 155.145 59.392 154.889 59.04C154.633 58.68 154.469 58.284 154.397 57.852C154.325 57.412 154.289 56.968 154.289 56.52V42.168H157.721V56.088C157.721 56.544 157.817 56.916 158.009 57.204C158.209 57.484 158.581 57.656 159.125 57.72L159.713 57.756V59.916C159.473 59.996 159.229 60.064 158.981 60.12C158.733 60.184 158.489 60.216 158.249 60.216ZM165.528 47.592V60H162.18V47.592H165.528ZM165.564 42.66V45.816H162.156V42.66H165.564ZM180.883 60H177.223L174.259 55.956L171.283 60H167.611L172.387 53.532L168.031 47.592H171.691L174.271 51.072L176.839 47.592H180.511L176.119 53.532L180.883 60ZM186.317 47.592V60H182.969V47.592H186.317ZM186.353 42.66V45.816H182.945V42.66H186.353ZM189.562 60V47.592H192.935V50.532C193.135 49.9 193.415 49.348 193.775 48.876C194.143 48.396 194.587 48.024 195.107 47.76C195.627 47.488 196.215 47.352 196.871 47.352C196.983 47.352 197.087 47.36 197.183 47.376C197.287 47.384 197.363 47.4 197.411 47.424V50.76C197.339 50.728 197.251 50.708 197.147 50.7C197.051 50.692 196.963 50.684 196.883 50.676C196.195 50.62 195.607 50.64 195.118 50.736C194.631 50.832 194.235 50.996 193.931 51.228C193.627 51.46 193.407 51.744 193.271 52.08C193.135 52.416 193.067 52.792 193.067 53.208V60H189.562Z" fill="#212529"/>
<defs>
<filter id="filter0_d_4715_36025" x="-31.3047" y="-32" width="331" height="166" filterUnits="userSpaceOnUse" color-interpolation-filters="sRGB">
<feFlood flood-opacity="0" result="BackgroundImageFix"/>
<feColorMatrix in="SourceAlpha" type="matrix" values="0 0 0 0 0 0 0 0 0 0 0 0 0 0 0 0 0 0 127 0" result="hardAlpha"/>
<feOffset/>
<feGaussianBlur stdDeviation="16"/>
<feComposite in2="hardAlpha" operator="out"/>
<feColorMatrix type="matrix" values="0 0 0 0 0 0 0 0 0 0 0 0 0 0 0 0 0 0 0.06 0"/>
<feBlend mode="normal" in2="BackgroundImageFix" result="effect1_dropShadow_4715_36025"/>
<feBlend mode="normal" in="SourceGraphic" in2="effect1_dropShadow_4715_36025" result="shape"/>
</filter>
<clipPath id="clip0_4715_36025">
<rect width="61" height="69" fill="white" transform="translate(45.6953 11)"/>
</clipPath>
</defs>
</svg>
