<svg width="76" height="82" viewBox="0 0 76 82" fill="none" xmlns="http://www.w3.org/2000/svg">
<g clip-path="url(#clip0_5373_19626)">
<path d="M20.2833 69.7928C19.2423 68.964 18.2014 68.3423 17.1604 67.5135C15.2867 65.8559 13.6212 63.991 12.1638 61.9189C10.2901 59.018 9.04096 55.9099 8.41638 52.5946C8.20819 50.5225 8 48.6577 8 46.7928C8 43.8919 8.62457 41.1982 9.87372 38.5045C11.1229 35.3964 12.9966 32.7027 15.0785 30.2162C16.5358 28.3514 18.2014 26.4865 19.8669 24.6216C21.5324 22.5496 23.4061 20.6847 25.0717 18.6126C26.7372 16.1261 28.4027 13.8469 29.6519 11.3604C30.6928 9.2883 31.7338 7.21622 32.1502 4.93694C32.3584 3.6937 32.5666 2.45046 32.7747 1.20721C41.3106 4.93694 47.7645 11.1532 51.5119 19.6487C55.4676 28.1441 55.884 36.8469 52.9693 45.7568C59.215 43.6847 64.628 37.6757 65.2526 29.8018C65.2526 30.009 65.4608 30.009 65.4608 30.2162C66.9181 32.9099 68.1672 35.8108 68.5836 38.9189C69 41.1982 69.2082 43.6847 68.7918 45.964C68.3754 50.7297 66.7099 55.0811 63.7952 59.018C61.9215 61.7117 59.6314 63.991 56.7167 65.6487C53.802 67.7207 50.471 68.964 46.9317 69.5856C45.2662 69.7928 43.8089 70 42.1433 70C40.0614 69.7928 37.9795 69.3784 35.8976 68.5496C33.3993 67.5135 31.3174 66.0631 29.6519 64.1982C27.7782 62.1261 26.529 59.8469 25.6962 57.1532C25.0717 55.0811 24.8635 53.009 25.0717 50.9369C25.0717 49.2793 25.4881 47.8288 26.1126 46.1712V45.964C24.2389 47.2072 20.9079 51.973 19.6587 57.1532C19.0341 61.2973 19.0341 65.4415 20.2833 69.7928Z" fill="#663299"/>
</g>
<defs>
<clipPath id="clip0_5373_19626">
<rect width="61" height="69" fill="white" transform="translate(8 1)"/>
</clipPath>
</defs>
</svg>
