<svg width="336" height="330" viewBox="0 0 336 330" fill="none" xmlns="http://www.w3.org/2000/svg">
<path d="M257.482 238.696C231.319 246.062 181.9 297.394 212.539 321.472C243.177 345.551 334.718 216.952 257.482 238.696Z" fill="#ECF2FA"/>
<path d="M264.553 230.909C153.635 253.869 186.913 312.484 112.908 326.29C13.0573 344.917 -33.7653 192.839 28.8331 98.9803C78.8641 23.9818 165.156 0.287113 241.613 31.0865C349.61 74.5941 352.102 212.787 264.553 230.909Z" fill="#C7E5FD"/>
<path d="M300.073 313.125L312.925 306.993L309.822 298.427C313.134 295.83 315.972 292.664 318.208 289.072L326.892 291.424L331.71 277.868L323.549 274.042C324.086 269.828 323.893 265.551 322.977 261.405L330.751 256.826L324.715 243.772L316.28 246.924C313.722 243.562 310.606 240.679 307.071 238.405L309.383 229.583L296.038 224.691L292.273 232.979C288.123 232.433 283.911 232.63 279.828 233.563L275.321 225.664L262.469 231.796L265.57 240.363C262.26 242.961 259.423 246.126 257.184 249.715L248.498 247.368L243.683 260.92L251.843 264.746C251.308 268.961 251.502 273.238 252.415 277.384L244.64 281.964L250.679 295.017L259.115 291.866C261.668 295.23 264.784 298.113 268.319 300.381L266.008 309.205L279.354 314.097L283.122 305.809C287.271 306.352 291.481 306.154 295.563 305.225L300.073 313.125ZM264.499 280.46C258.482 267.448 263.993 251.946 276.802 245.833C281.39 243.645 286.513 242.888 291.525 243.657C296.536 244.426 301.211 246.688 304.957 250.155C308.703 253.623 311.353 258.14 312.571 263.137C313.789 268.134 313.521 273.386 311.801 278.228C310.08 283.071 306.985 287.286 302.906 290.341C298.827 293.397 293.947 295.155 288.884 295.394C283.821 295.633 278.802 294.341 274.461 291.683C270.121 289.025 266.654 285.119 264.499 280.46Z" fill="#425FEC"/>
<path d="M264.282 237.731L262.074 231.631L271.767 227.007L272.033 227.585L262.862 231.959L264.869 237.51L264.282 237.731Z" fill="#1F191A"/>
<path d="M244.796 282.241L244.48 281.69L252.045 277.233C250.801 272.582 251.272 267.698 251.28 267.646L251.904 267.712C251.904 267.761 251.425 272.697 252.718 277.298L252.785 277.536L244.796 282.241Z" fill="#1F191A"/>
<path d="M281.408 294.956L281.546 294.334C301.205 298.862 309.851 281.851 309.934 281.679L310.494 281.965C310.407 282.148 301.546 299.591 281.408 294.956Z" fill="#1F191A"/>
<path d="M313.773 294.493C315.272 292.715 316.665 290.847 317.943 288.898L318.069 288.704L321.259 289.568L321.097 290.182L318.343 289.438C317.081 291.339 315.712 293.165 314.244 294.906L313.773 294.493Z" fill="#1F191A"/>
<path d="M253.745 297.517L247.461 283.931L255.287 279.321C255.013 278.113 253.849 272.432 254.722 267.018L246.517 263.169L251.528 249.065L260.268 251.427C262.465 247.948 265.226 244.871 268.434 242.327L265.311 233.701L278.687 227.321L283.226 235.274C284.514 234.989 290.832 233.704 295.344 234.685L299.127 226.36L313.015 231.453L310.693 240.31C311.693 240.862 315.755 243.312 319.652 248.618L328.142 245.446L334.423 259.031L326.599 263.641C326.879 264.864 328.089 270.659 327.163 275.945L335.369 279.792L330.355 293.9L321.623 291.535C321.037 292.559 318.349 296.964 313.453 300.641L316.576 309.261L303.2 315.641L298.662 307.699C294.695 308.663 290.585 308.854 286.548 308.263L282.758 316.6L268.869 311.517L271.191 302.659C270.157 302.094 265.822 299.522 262.227 294.357L253.745 297.517ZM248.266 284.188L254.064 296.723L262.463 293.588L262.6 293.786C266.621 299.674 271.641 302.178 271.691 302.203L271.922 302.316L269.617 311.116L282.432 315.812L286.182 307.567L286.413 307.606C293.023 308.694 298.668 307.048 298.725 307.031L298.959 306.961L303.451 314.827L315.794 308.937L312.706 300.414L312.896 300.274C318.464 296.164 321.169 291.073 321.196 291.02L321.311 290.801L329.965 293.143L334.594 280.127L326.468 276.318L326.514 276.074C327.611 270.233 325.962 263.643 325.945 263.57L325.886 263.338L333.623 258.78L327.826 246.242L319.435 249.379L319.296 249.188C314.951 243.193 310.241 240.783 310.195 240.759L309.966 240.646L312.272 231.85L299.458 227.153L295.702 235.417L295.455 235.358C290.65 234.206 283.215 235.923 283.147 235.94L282.923 235.993L278.439 228.14L266.096 234.028L269.179 242.548L268.997 242.689C263.653 246.806 260.717 251.901 260.688 251.954L260.568 252.162L251.924 249.831L247.3 262.846L255.421 266.656L255.38 266.895C254.343 272.895 255.931 279.342 255.948 279.406L256.006 279.638L248.266 284.188Z" fill="#1F191A"/>
<path d="M271.698 289.178C262.092 278.4 262.911 261.695 273.521 251.937C284.132 242.18 300.581 243.011 310.188 253.79C319.795 264.568 318.975 281.271 308.364 291.029C297.754 300.786 281.305 299.955 271.698 289.178ZM309.726 254.214C300.35 243.694 284.296 242.884 273.939 252.405C263.583 261.926 262.784 278.233 272.16 288.752C281.536 299.271 297.59 300.084 307.946 290.561C318.303 281.038 319.103 264.733 309.726 254.214Z" fill="#1F191A"/>
<path d="M300.299 208.516L308.526 204.591L306.537 199.109C308.657 197.447 310.474 195.421 311.904 193.121L317.463 194.625L320.549 185.958L315.326 183.508C315.67 180.814 315.546 178.079 314.96 175.428L319.935 172.496L316.081 164.126L310.68 166.146C309.043 163.994 307.049 162.149 304.787 160.693L306.268 155.049L297.721 151.915L295.31 157.219C292.657 156.871 289.964 156.997 287.354 157.592L284.468 152.537L276.242 156.462L278.231 161.944C276.112 163.608 274.295 165.634 272.862 167.932L267.303 166.429L264.214 175.103L269.436 177.552C269.095 180.247 269.219 182.981 269.803 185.633L264.826 188.571L268.691 196.927L274.091 194.907C275.726 197.06 277.72 198.905 279.983 200.358L278.503 206.005L287.045 209.135L289.456 203.831C292.11 204.178 294.802 204.051 297.412 203.457L300.299 208.516ZM277.533 187.608C276.154 184.626 275.677 181.295 276.162 178.037C276.647 174.78 278.072 171.741 280.258 169.306C282.443 166.872 285.29 165.149 288.438 164.358C291.587 163.566 294.896 163.74 297.948 164.859C300.999 165.977 303.655 167.99 305.58 170.641C307.505 173.293 308.613 176.465 308.764 179.756C308.914 183.047 308.1 186.309 306.425 189.131C304.75 191.952 302.288 194.205 299.352 195.606C297.403 196.536 295.292 197.067 293.14 197.168C290.988 197.27 288.838 196.94 286.812 196.197C284.785 195.454 282.923 194.313 281.331 192.84C279.739 191.366 278.449 189.588 277.533 187.608Z" fill="#7109B5"/>
<path d="M277.392 160.26L275.979 156.356L282.183 153.397L282.354 153.766L276.483 156.566L277.769 160.118L277.392 160.26Z" fill="#1F191A"/>
<path d="M264.921 188.755L264.719 188.402L269.562 185.549C268.765 182.573 269.066 179.447 269.069 179.414L269.468 179.456C269.468 179.487 269.162 182.646 269.99 185.591L270.033 185.746L264.921 188.755Z" fill="#1F191A"/>
<path d="M288.353 196.886L288.442 196.489C301.025 199.386 306.557 188.499 306.611 188.389L306.97 188.57C306.914 188.684 301.24 199.854 288.353 196.886Z" fill="#1F191A"/>
<path d="M309.069 196.59C310.029 195.454 310.921 194.261 311.739 193.016L311.817 192.892L313.86 193.445L313.756 193.84L311.995 193.362C311.188 194.579 310.312 195.748 309.372 196.862L309.069 196.59Z" fill="#1F191A"/>
<path d="M270.648 198.526L266.626 189.824L271.635 186.871C271.46 186.094 270.717 182.461 271.275 178.998L266.023 176.533L269.236 167.506L274.829 169.018C276.236 166.791 278.003 164.822 280.056 163.194L278.052 157.676L286.612 153.592L289.519 158.681C290.342 158.499 294.386 157.679 297.275 158.305L299.695 152.977L308.584 156.24L307.097 161.912C307.738 162.265 310.338 163.834 312.833 167.228L318.266 165.198L322.286 173.901L317.278 176.853C317.458 177.63 318.231 181.344 317.64 184.727L322.891 187.19L319.678 196.218L314.088 194.705C312.732 196.973 310.956 198.952 308.858 200.532L310.858 206.05L302.298 210.134L299.391 205.051C296.851 205.667 294.22 205.79 291.637 205.412L289.211 210.749L280.321 207.486L281.809 201.808C281.147 201.447 278.373 199.8 276.072 196.493L270.648 198.526ZM267.143 189.998L270.853 198.024L276.228 196.015L276.317 196.144C278.89 199.912 282.103 201.514 282.131 201.53L282.284 201.603L280.809 207.234L289.013 210.241L291.41 204.958L291.563 204.981C294.188 205.391 296.866 205.266 299.443 204.613L299.596 204.569L302.472 209.604L310.371 205.834L308.396 200.378L308.517 200.29C310.666 198.704 312.474 196.689 313.829 194.368L313.904 194.225L319.441 195.724L322.402 187.394L317.2 184.955L317.229 184.8C317.931 181.06 316.875 176.839 316.865 176.796L316.826 176.64L321.779 173.723L318.067 165.699L312.697 167.705L312.608 167.582C309.827 163.747 306.814 162.204 306.784 162.188L306.638 162.115L308.113 156.487L299.911 153.48L297.507 158.763L297.354 158.726C294.279 157.99 289.524 159.088 289.476 159.099L289.332 159.133L286.464 154.108L278.564 157.876L280.536 163.327L280.42 163.419C278.315 165.059 276.514 167.067 275.102 169.349L275.025 169.483L269.493 167.988L266.52 176.323L271.722 178.763L271.696 178.918C271.032 182.76 272.049 186.885 272.059 186.926L272.095 187.081L267.143 189.998Z" fill="#1F191A"/>
<path d="M282.14 193.188C279.934 190.714 278.501 187.631 278.021 184.329C277.54 181.028 278.035 177.656 279.441 174.64C280.848 171.623 283.103 169.098 285.923 167.384C288.742 165.67 291.999 164.843 295.281 165.009C298.563 165.175 301.723 166.325 304.361 168.315C306.999 170.304 308.997 173.044 310.102 176.187C311.208 179.33 311.371 182.735 310.57 185.972C309.77 189.209 308.043 192.132 305.607 194.372C302.338 197.371 298.032 198.931 293.632 198.709C289.233 198.487 285.1 196.501 282.14 193.188ZM306.479 170.811C304.327 168.395 301.517 166.682 298.406 165.889C295.295 165.095 292.022 165.256 289.001 166.352C285.98 167.447 283.346 169.428 281.434 172.044C279.522 174.659 278.416 177.792 278.256 181.046C278.097 184.3 278.892 187.529 280.539 190.325C282.187 193.12 284.614 195.357 287.513 196.751C290.412 198.145 293.653 198.635 296.827 198.159C300 197.682 302.963 196.261 305.341 194.074C308.525 191.14 310.434 187.042 310.647 182.681C310.86 178.319 309.361 174.05 306.479 170.809V170.811Z" fill="#1F191A"/>
<path d="M326.883 327.853H0.321533V329.713H326.883V327.853Z" fill="#101C3A"/>
<path fill-rule="evenodd" clip-rule="evenodd" d="M331.143 133.731C331.143 134.259 330.989 134.775 330.7 135.214C330.411 135.653 330.001 135.995 329.52 136.198C329.04 136.4 328.512 136.453 328.002 136.35C327.492 136.247 327.024 135.993 326.656 135.62C326.288 135.246 326.038 134.771 325.936 134.253C325.835 133.735 325.887 133.198 326.085 132.711C326.284 132.223 326.621 131.806 327.053 131.512C327.485 131.219 327.993 131.062 328.513 131.062C329.21 131.062 329.879 131.343 330.372 131.843C330.865 132.344 331.142 133.023 331.143 133.731Z" fill="#425FEC"/>
<path d="M62.5515 5.72234C62.8088 4.27125 61.8592 2.88304 60.4305 2.62169C59.0018 2.36034 57.635 3.32481 57.3777 4.77589C57.1203 6.22698 58.0699 7.61519 59.4987 7.87654C60.9274 8.13789 62.2942 7.17342 62.5515 5.72234Z" fill="#425FEC"/>
<path fill-rule="evenodd" clip-rule="evenodd" d="M283.821 2.78041C283.82 3.30835 283.665 3.82408 283.375 4.26239C283.085 4.7007 282.674 5.04191 282.193 5.24288C281.713 5.44385 281.184 5.49557 280.675 5.39148C280.165 5.28739 279.697 5.03217 279.33 4.6581C278.963 4.28402 278.714 3.80788 278.614 3.28987C278.513 2.77187 278.566 2.23525 278.766 1.74788C278.966 1.2605 279.304 0.844242 279.736 0.551728C280.169 0.259213 280.678 0.103576 281.197 0.104496C281.543 0.104903 281.885 0.174475 282.203 0.30923C282.522 0.443985 282.812 0.641277 283.056 0.88982C283.299 1.13836 283.492 1.43327 283.624 1.75768C283.755 2.08209 283.822 2.42963 283.821 2.78041Z" fill="#FC721A"/>
<path d="M3.45806 141.401L3.50243 141.451L7.586 137.785L2.51864 136.059L2.41154 136.321C2.13741 137.187 2.08975 138.111 2.27322 139.002C2.45669 139.892 2.865 140.719 3.45806 141.401Z" fill="#FC721A"/>
<path d="M11.7093 303.182L11.7521 303.233L15.8357 299.563L10.7683 297.843L10.6612 298.107C10.3883 298.973 10.3414 299.896 10.5251 300.785C10.7088 301.675 11.1169 302.501 11.7093 303.182Z" fill="#425FEC"/>
<path d="M330.294 214.478L330.338 214.528L334.422 210.857L329.354 209.131L329.247 209.393C328.972 210.26 328.924 211.185 329.107 212.076C329.291 212.968 329.7 213.796 330.294 214.478Z" fill="#FC721A"/>
<path d="M305.312 45.7557L307.039 47.8551C305.184 48.314 303.234 48.1727 301.462 47.4511C299.326 46.6223 297.337 45.0865 295.495 42.8436C293.71 40.6764 292.529 38.4972 291.95 36.3061C291.372 34.115 291.471 32.0384 292.247 30.0763C293.023 28.1079 294.274 26.3695 295.885 25.0213C297.653 23.5016 299.774 22.467 302.047 22.016C304.336 21.5581 306.497 21.7539 308.532 22.6033C310.567 23.4528 312.388 24.8514 313.996 26.799C315.361 28.4566 316.256 30.1975 316.681 32.0219C317.112 33.7586 317.017 35.5868 316.409 37.268C315.804 38.936 314.774 40.4105 313.422 41.5398C311.81 42.9261 309.785 43.7199 307.674 43.7931C304.926 43.9267 302.719 42.9819 301.054 40.9587C300.604 40.4132 300.361 39.9222 300.319 39.4871C300.284 39.037 300.417 38.5898 300.691 38.2346C299.316 38.0875 298.211 37.5073 297.377 36.4941C296.48 35.4033 296.105 34.1839 296.253 32.8361C296.4 31.4883 297.089 30.2918 298.32 29.2465C299.796 27.9735 301.623 27.1933 303.552 27.0119C305.943 26.7664 307.815 27.4652 309.169 29.1082C310.131 30.2768 310.403 31.5142 309.984 32.8206L311.263 32.1508L313.405 34.7537L305.218 39.1825C304.881 39.3525 304.557 39.5489 304.25 39.7699C304.111 39.8709 304.014 40.0211 303.979 40.191C303.969 40.2572 303.972 40.325 303.99 40.3896C304.008 40.4542 304.039 40.5142 304.082 40.5655C304.342 40.8763 304.864 41.1244 305.65 41.3098C306.744 41.5625 307.883 41.5433 308.968 41.2539C310.101 40.9857 311.156 40.4537 312.051 39.6999C313.643 38.348 314.492 36.6324 314.6 34.5532C314.708 32.4741 313.899 30.3866 312.172 28.2908C310.706 26.511 309.106 25.3057 307.371 24.6748C305.663 24.0445 303.806 23.962 302.05 24.4386C300.276 24.8915 298.625 25.7463 297.223 26.9389C295.897 28.0414 294.905 29.5024 294.362 31.1532C293.819 32.7823 293.811 34.5461 294.339 36.1802C294.865 37.8813 295.799 39.5466 297.142 41.1762C298.434 42.7467 299.76 43.9143 301.12 44.6788C302.394 45.4193 303.844 45.7917 305.312 45.7557ZM300.527 31.7157C299.705 32.415 299.24 33.0982 299.131 33.7654C299.072 34.0733 299.082 34.3908 299.162 34.6939C299.241 34.997 299.388 35.2778 299.59 35.5151C299.892 35.8861 300.284 36.1705 300.728 36.3403C301.119 36.4899 301.534 36.5642 301.952 36.5594C302.632 36.5718 303.456 36.3833 304.423 35.9938C305.301 35.6553 306.12 35.1769 306.849 34.5766C307.58 33.955 307.999 33.3059 308.107 32.6295C308.164 32.3108 308.15 31.9832 308.065 31.671C307.981 31.3587 307.828 31.0697 307.619 30.8253C307.154 30.2597 306.509 29.9199 305.684 29.8059C304.858 29.692 303.948 29.8515 302.952 30.2845C302.08 30.6398 301.263 31.1219 300.527 31.7157Z" fill="#425FEC"/>
<path d="M177.375 22.5503L180.035 22.1214C179.471 23.9737 178.35 25.6004 176.83 26.7739C175.031 28.2098 172.711 29.1561 169.872 29.613C167.124 30.0564 164.676 29.9673 162.528 29.3457C160.379 28.7241 158.677 27.5721 157.42 25.8897C156.156 24.2013 155.33 22.2164 155.02 20.1183C154.643 17.7985 154.858 15.4193 155.644 13.2079C156.431 10.9785 157.706 9.19454 159.469 7.85607C161.233 6.5176 163.351 5.64945 165.825 5.25164C167.924 4.91288 169.854 5.02684 171.616 5.59351C173.305 6.10919 174.801 7.13066 175.909 8.52427C177.008 9.90788 177.724 11.5635 177.985 13.3213C178.328 15.4374 177.959 17.6092 176.937 19.4859C175.64 21.9504 173.708 23.3894 171.143 23.8027C170.453 23.9146 169.919 23.8742 169.524 23.6862C169.126 23.4857 168.817 23.1408 168.657 22.7196C167.824 23.8437 166.767 24.5082 165.485 24.7134C164.102 24.9371 162.878 24.6383 161.813 23.8167C160.748 22.9952 160.091 21.7805 159.841 20.1727C159.522 18.2321 159.799 16.2388 160.633 14.4635C161.653 12.2538 163.205 10.9806 165.288 10.6439C166.771 10.4046 167.956 10.8034 168.842 11.8404L168.935 10.3812L172.234 9.84979L171.775 19.2512C171.745 19.6324 171.745 20.0153 171.775 20.3965C171.788 20.5695 171.865 20.731 171.991 20.8487C172.041 20.8922 172.101 20.924 172.165 20.942C172.228 20.9599 172.295 20.9636 172.361 20.9528C172.76 20.8875 173.238 20.5586 173.795 19.966C174.569 19.1408 175.137 18.1382 175.45 17.043C175.803 15.9162 175.893 14.7212 175.713 13.5529C175.387 11.4726 174.373 9.85186 172.673 8.69054C170.973 7.52922 168.795 7.16404 166.141 7.59501C163.885 7.95863 162.045 8.73561 160.62 9.92594C159.21 11.0921 158.187 12.6694 157.688 14.4448C157.161 16.223 157.036 18.0993 157.323 19.9334C157.572 21.6568 158.297 23.2731 159.414 24.5953C160.512 25.9044 161.999 26.8171 163.651 27.1966C165.359 27.611 167.246 27.6514 169.312 27.3178C171.302 26.9977 172.969 26.4408 174.313 25.6473C175.592 24.917 176.651 23.8462 177.375 22.5503ZM163.055 19.5123C163.223 20.5866 163.56 21.3428 164.068 21.781C164.298 21.9908 164.571 22.1452 164.867 22.2326C165.164 22.3201 165.476 22.3384 165.78 22.2861C166.249 22.2122 166.691 22.015 167.061 21.7142C167.388 21.4523 167.665 21.1302 167.875 20.7648C168.235 20.1774 168.498 19.3631 168.664 18.3219C168.829 17.3827 168.846 16.4227 168.713 15.4782C168.563 14.522 168.23 13.8233 167.713 13.3819C167.473 13.1684 167.189 13.0126 166.882 12.926C166.574 12.8393 166.252 12.8242 165.938 12.8816C165.224 12.9965 164.606 13.3845 164.084 14.0455C163.561 14.7064 163.228 15.5818 163.085 16.6716C162.94 17.6122 162.93 18.5689 163.055 19.5123Z" fill="#390D9F"/>
<path d="M23.3801 221.024L25.0142 218.849C25.8639 220.585 26.1587 222.547 25.8572 224.462C25.5318 226.761 24.4965 229.072 22.7513 231.394C21.0652 233.642 19.2343 235.294 17.2586 236.349C15.2829 237.405 13.2668 237.768 11.2105 237.437C9.14784 237.104 7.20093 236.249 5.5495 234.951C3.70057 233.536 2.23938 231.663 1.30528 229.512C0.35872 227.346 0.0685292 225.16 0.434709 222.956C0.800889 220.751 1.74337 218.638 3.26215 216.616C4.55143 214.9 6.02533 213.629 7.68385 212.804C9.25611 211.992 11.033 211.682 12.7818 211.913C14.518 212.145 16.1621 212.842 17.5447 213.934C19.2318 215.224 20.4413 217.054 20.978 219.128C21.7134 221.822 21.2937 224.217 19.7188 226.312C19.2955 226.878 18.8789 227.229 18.4688 227.364C18.0449 227.499 17.5868 227.467 17.1852 227.274C17.3453 228.67 17.0316 229.892 16.2442 230.94C15.3966 232.071 14.3088 232.712 12.9807 232.862C11.6527 233.012 10.3517 232.595 9.07768 231.61C7.52883 230.427 6.37559 228.789 5.7744 226.918C5.01042 224.604 5.26542 222.595 6.5394 220.892C7.45026 219.68 8.5789 219.138 9.9253 219.265L9.0073 218.145L11.033 215.449L17.0857 222.575C17.3238 222.872 17.5842 223.149 17.8645 223.405C17.9904 223.52 18.1543 223.582 18.3235 223.579C18.3892 223.575 18.4534 223.556 18.5114 223.524C18.5695 223.493 18.6202 223.449 18.6601 223.396C18.9049 223.069 19.0273 222.496 19.0273 221.677C19.0278 220.537 18.7581 219.414 18.2408 218.403C17.7303 217.34 16.9833 216.413 16.0591 215.694C14.4097 214.417 12.5737 213.955 10.5511 214.308C8.52841 214.661 6.70312 215.924 5.0752 218.095C3.68902 219.941 2.88475 221.793 2.66239 223.65C2.4348 225.482 2.76645 227.34 3.61251 228.974C4.44256 230.631 5.63098 232.074 7.08868 233.198C8.44037 234.264 10.0611 234.922 11.7644 235.094C13.4488 235.271 15.1445 234.889 16.5976 234.006C18.1154 233.108 19.5082 231.813 20.7761 230.121C22.0001 228.494 22.8278 226.921 23.2592 225.405C23.6906 223.983 23.7324 222.468 23.3801 221.024ZM10.955 228.865C11.8067 229.526 12.5651 229.837 13.2301 229.798C13.5388 229.789 13.8415 229.71 14.1155 229.565C14.3896 229.421 14.6277 229.215 14.8121 228.963C15.1008 228.581 15.2865 228.129 15.3507 227.652C15.4094 227.233 15.3897 226.806 15.2925 226.395C15.1548 225.717 14.7922 224.943 14.2047 224.073C13.6853 223.278 13.0449 222.572 12.3075 221.981C11.5507 221.396 10.8367 221.125 10.1655 221.167C9.84694 221.181 9.53548 221.267 9.25421 221.42C8.97294 221.572 8.72906 221.787 8.54065 222.048C8.10001 222.634 7.91641 223.348 7.98985 224.191C8.06329 225.034 8.41723 225.902 9.05167 226.793C9.58435 227.573 10.2254 228.271 10.955 228.865Z" fill="#7109B5"/>
<path d="M53.515 28.1416L6.33596 28.3079C2.81696 28.3157 -0.0288493 31.4034 0.000220747 35.1717L0.2389 66.9532C0.26644 70.7215 3.16426 73.7983 6.67714 73.7906L34.1544 73.6352L50.6142 83.9006L49.8155 73.6072L53.8562 73.629C57.3752 73.629 60.2195 70.535 60.192 66.7667L59.9594 34.979C59.9242 31.2122 57.0264 28.1354 53.515 28.1416Z" fill="#3E36C7"/>
<path d="M29.2064 58.7462L28.094 59.9427C27.7207 60.3405 27.7574 60.2007 27.5693 60.2846C27.4408 60.3057 27.309 60.2904 27.1886 60.2402C27.0681 60.19 26.9637 60.1069 26.8869 60.0002L19.6316 48.8987C19.5478 48.7698 19.4569 48.6458 19.3593 48.5273C18.094 47.0278 15.9351 46.7605 14.5382 47.9384C13.1414 49.1163 13.0343 51.2903 14.298 52.7914L18.8131 58.1727L21.0698 60.8642L22.1974 62.2099L22.7987 62.9263C23.1392 63.3359 23.5282 63.7013 23.9569 64.0141C25.6812 65.2914 27.9349 65.5027 29.6608 64.6683C30.4839 64.3248 31.3438 63.4251 31.6314 62.9589L32.5769 61.6148L36.356 56.2489L51.4786 34.7842L33.6632 53.9553L29.2064 58.7462Z" fill="white"/>
<mask id="mask0_643_1290" style="mask-type:luminance" maskUnits="userSpaceOnUse" x="29" y="43" width="276" height="285">
<path d="M304.001 43.5889H29.7817V327.852H304.001V43.5889Z" fill="white"/>
</mask>
<g mask="url(#mask0_643_1290)">
<path d="M124.21 75.7281V359.379C124.21 371.271 133.736 380.946 145.454 380.946H201.313V380.908H271.8C277.201 380.571 282.272 378.158 285.983 374.159C289.693 370.159 291.764 364.874 291.774 359.379V75.7281C291.774 63.8357 282.239 54.1592 270.53 54.1592H145.454C133.736 54.1592 124.21 63.8357 124.21 75.7281Z" fill="#101C3A"/>
<path d="M128.927 75.7246V359.379C128.93 363.828 130.672 368.094 133.77 371.24C136.869 374.385 141.071 376.152 145.451 376.152H270.53C274.91 376.15 279.11 374.382 282.206 371.237C285.303 368.092 287.044 363.827 287.047 359.379V75.7246C287.044 71.2765 285.303 67.0113 282.206 63.8662C279.11 60.721 274.91 58.9532 270.53 58.9512H145.451C141.071 58.9512 136.869 60.7181 133.77 63.8634C130.672 67.0088 128.93 71.2751 128.927 75.7246Z" fill="#EBF1FD"/>
<path d="M188.29 61.7471H227.231C227.648 61.7471 228.049 61.9154 228.343 62.215C228.638 62.5145 228.804 62.9209 228.804 63.3445C228.804 63.7682 228.638 64.1745 228.343 64.4741C228.049 64.7737 227.648 64.942 227.231 64.942H188.29C187.873 64.942 187.473 64.7737 187.178 64.4741C186.883 64.1745 186.717 63.7682 186.717 63.3445C186.717 62.9209 186.883 62.5145 187.178 62.215C187.473 61.9154 187.873 61.7471 188.29 61.7471Z" fill="#101C3A"/>
<path d="M262.337 73.8714L261.677 74.543L266.896 79.8407L267.557 79.1691L262.337 73.8714Z" fill="#101C3A"/>
<path d="M266.87 73.8265L261.653 79.127L262.314 79.7982L267.531 74.4977L266.87 73.8265Z" fill="#101C3A"/>
<path d="M152.125 78.1133H143.756V79.0627H152.125V78.1133Z" fill="#101C3A"/>
<path d="M196.186 132.797H191.241V196.41H196.186V132.797Z" fill="#3E36C7"/>
<path d="M228.674 197.675H218.168V359.629H228.674V197.675Z" fill="#3E36C7"/>
<path d="M168.436 159.582H179.09C179.168 159.582 179.243 159.582 179.322 159.582C179.402 159.582 179.475 159.582 179.555 159.582H252.776C252.854 159.582 252.929 159.582 253.009 159.582C253.088 159.582 253.162 159.582 253.24 159.582H263.893C271.751 159.582 278.18 166.783 278.18 175.588V220.685H154.157V175.586C154.157 166.783 160.586 159.582 168.436 159.582Z" fill="#390D9F"/>
<path d="M154.157 220.684H197.422V175.587C197.422 166.784 190.331 159.581 181.663 159.581H169.913C161.245 159.581 154.154 166.782 154.154 175.587L154.157 220.684Z" fill="#3E36C7"/>
<path d="M156.767 216.162H194.812V176.505C194.812 168.763 188.577 162.431 180.957 162.431H170.623C163.002 162.431 156.767 168.763 156.767 176.505V216.162Z" fill="#101C3A"/>
<path d="M196.393 132.797H178.674V141.446H196.393V132.797Z" fill="#FC721A"/>
<path d="M137.977 220.684H195.199C195.789 220.682 196.354 220.444 196.772 220.02C197.189 219.596 197.424 219.022 197.425 218.423C197.423 217.824 197.188 217.25 196.771 216.827C196.354 216.403 195.789 216.164 195.199 216.162H137.977C137.387 216.164 136.822 216.403 136.405 216.827C135.988 217.25 135.753 217.824 135.751 218.423C135.753 219.022 135.988 219.596 136.405 220.02C136.822 220.444 137.387 220.682 137.977 220.684Z" fill="#3E36C7"/>
<path opacity="0.5" d="M209.511 169.626H260.054C260.491 169.625 260.91 169.448 261.219 169.135C261.528 168.821 261.703 168.396 261.704 167.952C261.702 167.508 261.528 167.083 261.219 166.77C260.91 166.456 260.491 166.28 260.054 166.278H209.511C209.074 166.279 208.655 166.456 208.346 166.769C208.037 167.083 207.863 167.508 207.862 167.952C207.863 168.396 208.037 168.821 208.346 169.135C208.655 169.448 209.074 169.625 209.511 169.626Z" fill="white"/>
<path d="M182.465 199.554L148.193 184.521C148.088 184.475 147.993 184.409 147.913 184.327C147.833 184.244 147.77 184.146 147.727 184.039C147.684 183.931 147.663 183.816 147.664 183.7C147.665 183.584 147.689 183.47 147.734 183.363L157.133 161.25C157.178 161.143 157.243 161.047 157.324 160.965C157.406 160.884 157.502 160.82 157.608 160.777C157.714 160.733 157.828 160.712 157.942 160.713C158.056 160.714 158.169 160.738 158.274 160.784L192.546 175.817C192.651 175.862 192.747 175.928 192.827 176.011C192.907 176.094 192.97 176.191 193.012 176.299C193.055 176.407 193.076 176.522 193.075 176.638C193.074 176.753 193.05 176.868 193.005 176.975L183.606 199.084C183.562 199.191 183.497 199.288 183.415 199.37C183.334 199.451 183.237 199.515 183.131 199.559C183.025 199.603 182.912 199.625 182.798 199.624C182.683 199.623 182.57 199.599 182.465 199.554Z" fill="#101C3A"/>
<path d="M167.616 182.539C168.124 183.661 169.35 184.199 170.767 183.768L192.395 177.256C193.057 177.055 193.16 176.098 192.532 175.81H192.517L158.308 160.809H158.294C157.655 160.538 157.041 161.275 157.353 161.896L167.616 182.539Z" fill="white"/>
<path d="M163.285 178.235C163.391 178.202 163.488 178.145 163.571 178.07C163.653 177.995 163.718 177.902 163.762 177.799C163.806 177.695 163.827 177.583 163.824 177.471C163.82 177.358 163.793 177.248 163.744 177.147L157.268 164.136C157.201 164.006 157.1 163.898 156.976 163.825C156.852 163.751 156.71 163.714 156.566 163.718C156.422 163.723 156.283 163.768 156.163 163.849C156.044 163.931 155.949 164.044 155.891 164.178L148.481 181.607C148.424 181.743 148.407 181.893 148.431 182.038C148.455 182.184 148.52 182.32 148.617 182.429C148.714 182.539 148.84 182.618 148.98 182.658C149.12 182.698 149.269 182.696 149.408 182.653L163.285 178.235Z" fill="white"/>
<path d="M182.644 198.805L175.706 184.289C175.597 184.064 175.414 183.885 175.189 183.783C174.963 183.682 174.709 183.665 174.472 183.736L170.915 184.805C170.105 185.049 169.237 184.996 168.462 184.655C167.686 184.314 167.054 183.707 166.676 182.94L165.075 179.724C164.963 179.5 164.777 179.324 164.55 179.226C164.323 179.129 164.069 179.116 163.833 179.191L148.822 183.967C148.739 183.994 148.669 184.016 148.602 184.04C148.4 184.126 148.285 184.227 148.277 184.351C148.27 184.476 148.363 184.569 148.521 184.662L182.36 199.504C182.537 199.554 182.681 199.543 182.751 199.467C182.822 199.39 182.826 199.224 182.751 199.016C182.718 198.955 182.681 198.884 182.644 198.805Z" fill="white"/>
<path d="M190.846 178.859L177.239 182.957C177.133 182.99 177.036 183.045 176.953 183.119C176.87 183.193 176.804 183.284 176.76 183.387C176.715 183.489 176.693 183.6 176.694 183.712C176.696 183.824 176.721 183.935 176.769 184.036L183.05 197.176C183.115 197.306 183.215 197.414 183.339 197.489C183.463 197.564 183.604 197.602 183.748 197.598C183.892 197.595 184.032 197.55 184.152 197.47C184.272 197.389 184.367 197.276 184.427 197.143L191.754 179.908C191.809 179.774 191.826 179.627 191.803 179.483C191.779 179.34 191.717 179.206 191.622 179.096C191.528 178.987 191.405 178.907 191.268 178.865C191.131 178.823 190.985 178.821 190.846 178.859Z" fill="white"/>
<path d="M37.3645 329.732C32.3675 333.877 25.6738 346.038 20.6217 358.365C17.6076 365.717 13.8713 366.889 13.8713 366.889C13.8713 366.889 20.1443 376.718 22.2343 384.138C22.2343 384.138 68.6163 342.91 75.1723 332.456C81.7284 322.003 54.3658 315.635 37.3645 329.732Z" fill="#F8A3A2"/>
<path d="M59.4424 335.759C58.4387 342.231 60.544 372.552 64.8739 385.161C67.455 392.679 70.2932 407.003 70.2932 407.003C70.2932 407.003 81.8263 399.157 88.2569 403.273C88.2569 403.273 95.7539 341.137 93.7756 328.901C91.7973 316.665 62.8528 313.733 59.4424 335.759Z" fill="#F8A3A2"/>
<path d="M24.2202 348.803C33.8699 335.344 39.5569 311.067 46.1283 290.797C50.0221 278.79 52.4181 260.845 48.2167 249.588C41.2598 230.94 53.1403 217.954 57.4778 210.658C61.8154 203.362 98.7083 193.931 105.959 199.373C116.383 207.201 123.208 214.947 124.553 240.194C126.343 273.792 115.342 366.548 115.342 366.548C86.5998 373.035 60.7597 368.613 60.7597 368.613C59.245 361.201 59.4561 343.245 59.4561 343.245L44.6931 359.825C38.4278 352.78 29.5905 349.939 24.2202 348.803Z" fill="#101C3A"/>
<path d="M77.1048 131.927L78.468 145.192C77.4719 146.268 69.3645 153.533 61.2386 146.957L64.0906 126.423C64.0906 126.423 68.8841 129.03 77.1048 131.927Z" fill="#F8A3A2"/>
<path d="M77.5117 135.796L78.1559 142.149C70.4676 142.304 69.646 132.444 69.6567 132.455C72.7274 134.848 76.4055 135.92 77.5117 135.796Z" fill="#101C3A"/>
<path d="M77.7519 137.776C73.601 137.746 66.0275 132.003 64.3475 128.141C63.7493 126.766 65.4889 105.101 69.7148 103.589C71.4957 102.953 82.5408 104.911 84.2146 104.911C88.0396 104.911 88.087 114.656 88.1207 120.255C88.1589 126.539 85.0729 137.829 77.7519 137.776Z" fill="#F8A3A2"/>
<path d="M63.6316 132.797C65.1148 132.166 66.6307 131.616 68.1726 131.152C70.2856 127.234 74.7073 119.132 76.1608 117.221C77.6143 115.309 79.819 126.773 79.819 126.773C82.6724 120.2 81.8524 113.769 84.8818 112.281C88.1223 110.689 92.8209 99.995 80.4448 99.995C73.7449 99.995 65.6527 95.013 59.7316 103.179C51.4574 114.587 64.9612 129.083 63.6316 132.797Z" fill="#101C3A"/>
<path d="M77.5269 118.759C77.7611 119.501 77.7734 120.297 77.5621 121.046C77.3509 121.796 76.9256 122.465 76.3401 122.968C75.7545 123.472 75.035 123.788 74.2726 123.877C73.5102 123.965 72.739 123.822 72.0566 123.466C71.3743 123.109 70.8113 122.555 70.4391 121.873C70.0668 121.192 69.9018 120.413 69.9651 119.637C70.0284 118.86 70.317 118.12 70.7945 117.509C71.272 116.899 71.917 116.447 72.6478 116.209C73.6277 115.891 74.692 115.98 75.6068 116.459C76.5216 116.937 77.2122 117.764 77.5269 118.759Z" fill="#F8A3A2"/>
<path d="M73.7295 122.886C73.3038 122.877 72.8856 122.77 72.5055 122.575L72.8298 121.924C72.8406 121.924 73.9253 122.464 74.2405 121.924C74.3338 121.769 74.3354 121.769 74.0875 121.525C73.7937 121.244 73.3516 120.816 73.5306 119.927C73.6329 119.456 73.8666 119.025 74.2038 118.684C74.5312 118.313 74.6092 118.218 74.1334 117.626C74.0785 117.548 74.0057 117.484 73.9213 117.44C73.8368 117.396 73.7432 117.374 73.6484 117.374C72.8742 117.374 71.742 118.541 71.4054 118.952L70.8546 118.485C71.0076 118.297 72.3984 116.646 73.6499 116.646H73.6606C73.8613 116.646 74.0592 116.694 74.239 116.784C74.4189 116.875 74.5759 117.006 74.698 117.168C75.4936 118.168 75.2044 118.649 74.7454 119.169C74.4948 119.412 74.3189 119.723 74.239 120.066C74.1395 120.558 74.3384 120.748 74.5863 120.989C74.8341 121.23 75.2473 121.624 74.8617 122.286C74.7447 122.482 74.5774 122.641 74.3779 122.746C74.1783 122.852 73.9541 122.901 73.7295 122.886Z" fill="#101C3A"/>
<path d="M57.8389 150.145C57.8389 150.145 59.4837 144.085 62.5375 143.724C65.5914 143.364 79.3676 142.573 80.7721 143.953C82.1766 145.333 82.6846 147.538 82.6846 147.538C82.6846 147.538 96.0629 142.898 103.361 153.443C108.783 161.281 110.563 190.271 105.962 200.237C105.962 200.237 87.5117 194.747 57.2866 211.046C39.2326 220.786 48.8287 178.292 47.3416 171.024C45.8101 163.548 50.5148 152.336 57.8389 150.145Z" fill="#425FEC"/>
<path d="M52.5743 212.933C54.0048 212.933 55.6465 212.436 57.4886 211.443L57.0786 210.657C54.1716 212.226 51.8598 212.462 50.2211 211.361C45.2027 207.992 46.4573 193.122 47.3753 182.264C47.8175 177.021 48.1679 172.88 47.7701 170.936C46.2982 163.744 50.8025 152.714 57.9614 150.579L57.7135 149.725C50.1446 151.99 45.368 163.578 46.9117 171.124C47.2835 172.941 46.9209 177.228 46.5017 182.194C45.5653 193.274 44.2847 208.456 49.7376 212.11C50.5808 212.666 51.5689 212.953 52.5743 212.933Z" fill="white"/>
<path d="M61.0535 204.484C49.0338 195.782 51.0106 183.86 51.032 183.74L51.8934 183.896C51.8735 184.009 50.01 195.395 61.5615 203.754L61.0535 204.484Z" fill="white"/>
<path d="M95.3025 221.854C89.2774 220.374 82.1078 211.909 79.9184 200.471C77.7289 189.034 99.5299 180.694 102.36 184.845C102.36 184.845 108.739 205.962 107.061 211.417C105.382 216.873 98.5599 222.649 95.3025 221.854Z" fill="#F8A3A2"/>
<path d="M147.22 191.192C147.22 191.192 154.411 184.766 151.963 179.438C149.331 173.71 152.869 161.457 152.869 161.457C152.869 161.457 146.29 161.743 142.976 172.217C139.662 182.69 135.748 185.47 135.748 185.47L147.22 191.192Z" fill="#F8A3A2"/>
<path d="M152.345 161.481C152.345 161.481 161.571 161.472 169.306 162.579C170.36 162.734 170.133 164.711 169.128 165.065C165.213 166.474 154.783 164.67 154.783 164.67C154.783 164.67 164.38 168.061 164.434 169.382C164.465 170.137 163.323 173.537 162.341 176.309C161.637 178.294 161.089 177.955 159.035 177.655C156.434 177.274 154.338 177.403 154.073 177.688C153.547 178.255 152.362 183.872 151.796 184.946C151.796 184.946 144.643 177.332 144.587 174.034C144.521 170.263 152.345 161.481 152.345 161.481Z" fill="#F8A3A2"/>
<path d="M162.725 175.314L153.21 172.471C153.21 172.471 159.312 173.866 162.725 175.314Z" fill="#D17F80"/>
<path d="M163.701 172.414L152.742 168.181C152.742 168.181 160.442 170.636 163.701 172.414Z" fill="#D17F80"/>
<path d="M137.791 184.833L147.693 190.595C141.805 197.712 111.14 220.942 98.1208 221.581C90.7477 221.943 87.3588 216.826 86.5218 213.737C84.4869 206.233 91.629 201.261 99.4794 197.718C100.572 197.226 137.791 184.833 137.791 184.833Z" fill="#F8A3A2"/>
<path d="M72.4612 158.396C66.1056 172.428 70.5181 199.886 79.6904 197.585C79.6904 197.585 80.5794 201.771 80.255 203.982C80.255 203.982 97.0651 205.185 109.195 197.877C109.195 197.877 108.216 194.444 108.926 193.179C108.926 193.179 116.205 190.673 114.905 181.13C113.604 171.587 103.918 166.296 100.811 155.847C96.2756 140.597 79.4319 143.004 72.4612 158.396Z" fill="#425FEC"/>
<path d="M79.7516 204.391L80.2243 204.425C80.2702 204.425 84.8312 204.736 90.8242 204.044L90.7247 203.16C87.4112 203.55 84.0734 203.684 80.74 203.562C80.9067 201.241 80.154 197.657 80.128 197.491L80.0316 197.042L79.594 197.152C77.9003 197.577 76.3106 196.894 74.8724 195.132C69.776 188.873 67.8528 169.66 72.8666 158.588L72.071 158.215C66.8445 169.751 68.8335 189.111 74.1885 195.693C75.7185 197.567 77.4902 198.397 79.3477 198.106C79.5588 199.217 80.0713 202.217 79.822 203.915L79.7516 204.391Z" fill="white"/>
<path d="M79.2727 194.142C79.5542 194.282 86.0583 197.46 89.8297 193.676C91.4989 194.608 99.5039 198.493 106.201 191.894L105.589 191.255C98.6058 198.133 90.3239 192.964 89.9827 192.74L89.6767 192.542L89.4304 192.818C86.1409 196.518 79.7287 193.382 79.6644 193.35L79.2727 194.142Z" fill="white"/>
<path d="M61.4896 332.66C61.6609 331.095 61.8476 329.426 62.0465 327.669C64.5985 305.001 68.8733 267.065 59.9611 246.98C50.6572 226.014 67.1383 211.287 67.3051 211.141L66.7344 210.465C66.563 210.62 49.5984 225.779 59.1624 247.345C67.9752 267.206 63.7188 304.997 61.1744 327.568C60.977 329.327 60.7888 330.997 60.6175 332.561L61.4896 332.66Z" fill="white"/>
<path d="M58.6131 110.297C58.4708 103.04 65.8163 102.858 65.8163 102.858C58.3683 82.6478 44.866 94.9116 41.8167 101.702C37.8311 110.58 39.1347 183.704 43.7308 185.74L45.0695 184.513L46.1176 186.929C48.6819 188.794 55.5516 191.212 57.5375 190.77C57.5375 190.775 58.6223 110.746 58.6131 110.297Z" fill="#101C3A"/>
<path d="M60.3666 105.076C60.0232 104.853 59.7806 104.502 59.692 104.098C59.6034 103.694 59.676 103.271 59.8938 102.921L62.0694 99.4446C62.289 99.0962 62.6354 98.8501 63.033 98.7601C63.4306 98.6702 63.8471 98.7436 64.1916 98.9644C64.5346 99.1875 64.7769 99.5393 64.8655 99.9431C64.954 100.347 64.8817 100.77 64.6643 101.12L62.4887 104.596C62.2693 104.945 61.9229 105.191 61.5252 105.281C61.1275 105.371 60.7109 105.297 60.3666 105.076Z" fill="#3E36C7"/>
</g>
</svg>
