<svg width="487" height="456" viewBox="0 0 487 456" fill="none" xmlns="http://www.w3.org/2000/svg">
<g clip-path="url(#clip0_643_1289)">
<path opacity="0.5" d="M257.481 323.538L171.238 273.793L84.801 323.538L171.238 373.091L257.481 323.538Z" fill="url(#paint0_linear_643_1289)"/>
<path opacity="0.5" d="M73.1728 290.76C62.7073 290.953 54.1799 295.773 54.1799 301.75C54.1799 307.727 62.9011 312.355 73.3666 312.162C83.832 311.969 92.3595 307.149 92.3595 301.172C92.3595 295.387 83.832 290.76 73.1728 290.76Z" fill="url(#paint1_linear_643_1289)"/>
<path opacity="0.5" d="M316.592 364.8C297.599 364.993 282.482 373.862 282.482 384.467C282.676 395.072 297.986 403.555 316.979 403.17C335.972 402.977 351.089 394.108 351.089 383.503C351.089 372.898 335.584 364.607 316.592 364.8Z" fill="url(#paint2_linear_643_1289)"/>
<path opacity="0.5" d="M373.958 397.771C354.965 397.964 339.848 406.833 339.848 417.438C340.042 428.042 355.352 436.526 374.345 436.14C393.338 435.948 408.455 427.078 408.455 416.474C408.261 405.869 392.757 397.578 373.958 397.771Z" fill="url(#paint3_linear_643_1289)"/>
<path opacity="0.5" d="M234.612 356.895C217.751 357.088 204.185 364.801 204.379 374.248C204.572 383.696 218.139 391.216 235 391.023C251.861 390.83 265.427 382.925 265.233 373.67C265.233 364.222 251.473 356.702 234.612 356.895Z" fill="url(#paint4_linear_643_1289)"/>
<path opacity="0.5" d="M298.374 242.172C280.738 242.364 266.784 250.462 266.784 260.296C266.977 270.129 281.125 277.842 298.761 277.649C316.398 277.456 330.352 269.358 330.352 259.525C330.352 249.691 316.01 241.979 298.374 242.172Z" fill="url(#paint5_linear_643_1289)"/>
<path opacity="0.5" d="M400.121 271.865C366.593 272.25 339.654 287.868 339.848 306.571C340.042 325.274 367.368 340.313 400.897 339.927C434.425 339.542 461.364 323.924 461.17 305.221C460.976 286.326 433.65 271.479 400.121 271.865Z" fill="url(#paint6_linear_643_1289)"/>
<path opacity="0.7" d="M285.97 216.721C281.513 216.721 277.831 218.649 277.831 221.155C277.831 223.083 279.769 224.626 282.482 225.397L271.241 261.26L34.9932 397.193L34.6056 397.385L25.6906 428.235C21.2331 428.235 17.5508 430.163 17.5508 432.67C17.5508 435.176 21.0393 437.297 25.4968 437.297C29.9543 437.297 33.6366 435.369 33.6366 432.863C33.6366 430.935 31.3109 429.199 28.0162 428.428L36.5436 398.928L272.792 262.996L273.179 262.803L284.807 225.59C285.195 225.59 285.389 225.59 285.777 225.59C290.234 225.59 293.916 223.662 293.916 221.155C294.11 218.842 290.428 216.721 285.97 216.721Z" fill="url(#paint7_linear_643_1289)"/>
<path d="M285.97 218.456C288.684 218.456 290.815 219.806 290.815 221.348C290.815 222.891 288.684 224.048 285.97 224.048C283.257 224.048 281.125 222.698 281.125 221.155C281.125 219.613 283.257 218.456 285.97 218.456Z" fill="url(#paint8_linear_643_1289)"/>
<path d="M25.8844 430.164C28.5976 430.164 30.7295 431.514 30.7295 433.056C30.7295 434.599 28.5976 435.755 25.8844 435.755C23.1711 435.755 21.0393 434.406 21.0393 432.863C20.8455 431.321 23.1711 429.971 25.8844 430.164Z" fill="url(#paint9_linear_643_1289)"/>
<path opacity="0.8" d="M354.577 252.776H298.955L64.2577 387.745L55.5364 417.823C51.2727 417.823 47.5905 419.751 47.5905 422.258C47.5905 424.765 51.0789 426.885 55.5364 426.885C59.994 426.885 63.6762 424.957 63.6762 422.451C63.6762 420.33 61.1568 418.595 57.8621 418.016L66.0019 389.287L299.343 255.09L348.763 255.476C348.957 255.283 354.577 253.355 354.577 252.776Z" fill="url(#paint10_linear_643_1289)"/>
<path d="M55.7302 419.559C58.4435 419.559 60.5754 420.908 60.5754 422.451C60.5754 423.993 58.4435 425.15 55.7302 425.15C53.017 425.15 50.8851 423.8 50.8851 422.258C50.8851 420.715 53.017 419.559 55.7302 419.559Z" fill="url(#paint11_linear_643_1289)"/>
<path opacity="0.8" d="M277.831 235.617C277.831 233.11 274.342 230.989 269.885 230.989C265.427 230.989 261.745 232.917 261.745 235.424C261.745 237.545 264.264 239.28 267.559 239.859L265.815 245.45L76.0798 354.389H16.5818C15.8065 352.268 12.5119 350.725 8.63577 350.725C4.17826 350.725 0.495972 352.654 0.495972 355.16C0.495972 357.667 3.98446 359.788 8.44196 359.788C11.9304 359.788 15.0313 358.631 16.0003 356.895H76.6612L267.171 247.185L267.559 246.993L269.691 240.051C274.342 240.051 277.831 238.123 277.831 235.617Z" fill="url(#paint12_linear_643_1289)"/>
<path d="M8.63577 352.46C11.349 352.46 13.4809 353.81 13.4809 355.352C13.4809 356.895 11.349 358.051 8.63577 358.051C5.9225 358.051 3.79065 356.702 3.79065 355.159C3.79065 353.617 5.9225 352.46 8.63577 352.46Z" fill="url(#paint13_linear_643_1289)"/>
<path d="M269.884 232.725C272.598 232.725 274.73 234.074 274.73 235.617C274.73 237.159 272.598 238.316 269.884 238.316C267.171 238.316 265.039 236.966 265.039 235.424C264.846 233.881 267.171 232.725 269.884 232.725Z" fill="url(#paint14_linear_643_1289)"/>
<path opacity="0.7" d="M350.895 285.748H289.265L125.888 379.647L125.5 379.84L117.36 409.34L90.2275 424.958C88.8709 424.38 87.1267 423.994 85.1886 423.994C80.7311 423.994 77.0488 425.922 77.0488 428.429C77.0488 430.935 80.5373 433.056 84.9948 433.056C89.4523 433.056 93.1346 431.128 93.1346 428.622C93.1346 428.043 92.9408 427.465 92.5532 426.886L119.298 411.076L127.438 381.576L289.653 288.255H356.709C356.903 287.291 350.895 286.519 350.895 285.748Z" fill="url(#paint15_linear_643_1289)"/>
<path d="M85.3825 425.537C88.0957 425.537 90.2276 426.887 90.2276 428.429C90.2276 429.972 88.0957 431.129 85.3825 431.129C82.6692 431.129 80.5374 429.779 80.5374 428.236C80.5374 426.694 82.6692 425.537 85.3825 425.537Z" fill="url(#paint16_linear_643_1289)"/>
<path opacity="0.7" d="M59.0251 368.464C56.3118 368.464 54.1799 369.621 54.1799 371.163C54.1799 371.742 54.3737 372.127 54.9551 372.706L28.0163 388.323C26.8535 387.938 25.303 387.552 23.7526 387.552C19.2951 387.552 15.6128 389.48 15.6128 391.987C15.6128 394.493 19.1013 396.614 23.5588 396.614C28.0163 396.614 31.6986 394.686 31.6986 392.18C31.6986 391.216 31.311 390.444 30.342 389.673L57.6684 373.863C58.056 373.863 58.4436 374.055 59.0251 374.055C61.7383 374.055 63.8702 372.899 63.8702 371.356C63.8702 369.814 61.7383 368.464 59.0251 368.464Z" fill="url(#paint17_linear_643_1289)"/>
<path d="M23.5588 389.095C26.2721 389.095 28.4039 390.444 28.4039 391.987C28.4039 393.529 26.2721 394.686 23.5588 394.686C20.8455 394.686 18.7137 393.337 18.7137 391.794C18.5199 390.252 20.8455 389.095 23.5588 389.095Z" fill="url(#paint18_linear_643_1289)"/>
<path opacity="0.8" d="M135.384 300.786L50.8852 252.198H40.6136C39.6446 250.27 36.5437 248.92 32.8614 248.92C28.4039 248.92 24.7216 251.041 24.9154 253.547C24.9154 256.054 28.5977 257.982 33.0552 257.982C36.7375 257.982 39.8384 256.44 40.8074 254.704H50.4976L134.609 303.1C134.609 302.329 134.996 301.558 135.384 300.786Z" fill="url(#paint19_linear_643_1289)"/>
<path d="M32.8614 250.655C30.1481 250.655 28.0162 252.005 28.0162 253.547C28.0162 255.09 30.1481 256.247 32.8614 256.247C35.5746 256.247 37.7065 254.897 37.7065 253.355C37.9003 251.812 35.5746 250.655 32.8614 250.655Z" fill="url(#paint20_linear_643_1289)"/>
<path opacity="0.8" d="M437.332 292.689C437.332 290.182 433.843 288.062 429.386 288.062C424.928 288.062 421.246 289.99 421.246 292.496C421.246 294.617 423.766 296.352 427.06 296.931L425.316 302.522L235.775 411.654H175.889C175.114 409.533 171.819 407.991 167.943 407.991C163.486 407.991 159.803 409.919 159.803 412.425C159.803 414.932 163.292 417.053 167.749 417.053C171.238 417.053 174.339 415.896 175.308 414.16H235.969L426.479 304.451L426.866 304.258L428.998 297.316C433.65 297.124 437.332 295.196 437.332 292.689Z" fill="url(#paint21_linear_643_1289)"/>
<path d="M168.137 409.726C170.85 409.726 172.982 411.076 172.982 412.619C172.982 414.161 170.85 415.318 168.137 415.318C165.424 415.318 163.292 413.968 163.292 412.426C163.098 410.883 165.424 409.534 168.137 409.726Z" fill="url(#paint22_linear_643_1289)"/>
<path d="M429.192 289.797C431.905 289.797 434.037 291.147 434.037 292.689C434.037 294.232 431.905 295.388 429.192 295.388C426.479 295.388 424.347 294.039 424.347 292.496C424.347 291.147 426.479 289.797 429.192 289.797Z" fill="url(#paint23_linear_643_1289)"/>
<path opacity="0.7" d="M21.6207 232.725C25.6906 232.725 28.9852 234.267 29.5667 236.388H49.1409L212.518 330.287L212.906 330.48L221.046 359.98L248.178 375.598C249.535 375.02 251.279 374.634 253.217 374.634C257.675 374.634 261.357 376.562 261.357 379.069C261.357 381.575 257.869 383.696 253.411 383.696C248.954 383.696 245.271 381.768 245.271 379.262C245.271 378.683 245.465 378.105 245.853 377.526L219.108 361.716L210.968 332.216L48.5595 239.087H29.1791C28.0162 240.823 25.1092 241.98 21.8145 241.98C17.357 241.98 13.6747 240.051 13.6747 237.545C13.4809 234.846 17.1632 232.917 21.6207 232.725Z" fill="url(#paint24_linear_643_1289)"/>
<path d="M253.023 376.37C250.31 376.37 248.178 377.72 248.178 379.262C248.178 380.805 250.31 381.962 253.023 381.962C255.737 381.962 257.869 380.612 257.869 379.07C257.869 377.527 255.737 376.37 253.023 376.37Z" fill="url(#paint25_linear_643_1289)"/>
<path opacity="0.5" d="M253.023 376.37C250.31 376.37 248.178 377.72 248.178 379.262C248.178 380.805 250.31 381.962 253.023 381.962C255.737 381.962 257.869 380.612 257.869 379.07C257.869 377.527 255.737 376.37 253.023 376.37Z" fill="url(#paint26_linear_643_1289)"/>
<path d="M21.6206 234.652C18.9074 234.652 16.7755 236.002 16.7755 237.545C16.7755 239.087 18.9074 240.244 21.6206 240.244C24.3339 240.244 26.4657 238.894 26.4657 237.352C26.4657 235.809 24.3339 234.652 21.6206 234.652Z" fill="url(#paint27_linear_643_1289)"/>
<path opacity="0.8" d="M157.09 295.581C160.773 295.581 164.067 296.931 164.842 298.859H175.114L409.812 433.827L413.494 446.938C417.758 446.938 421.44 448.866 421.44 451.373C421.44 453.88 417.951 456.001 413.494 456.001C409.036 456.001 405.354 454.072 405.354 451.566C405.354 449.445 407.874 447.71 411.168 447.131L407.874 435.562L174.533 301.365H164.842C163.873 303.294 160.773 304.643 157.09 304.643C152.633 304.643 148.95 302.715 148.95 300.209C148.95 297.702 152.633 295.581 157.09 295.581Z" fill="url(#paint28_linear_643_1289)"/>
<path d="M157.09 297.316C154.377 297.316 152.245 298.666 152.245 300.209C152.245 301.751 154.377 302.908 157.09 302.908C159.804 302.908 161.935 301.558 161.935 300.016C161.935 298.473 159.804 297.316 157.09 297.316Z" fill="url(#paint29_linear_643_1289)"/>
<path d="M413.494 448.674C410.781 448.674 408.649 450.024 408.649 451.566C408.649 453.109 410.781 454.265 413.494 454.265C416.207 454.265 418.339 452.916 418.339 451.373C418.339 449.831 416.207 448.674 413.494 448.674Z" fill="url(#paint30_linear_643_1289)"/>
<path opacity="0.8" d="M192.556 295.388C192.556 292.882 196.045 290.761 200.502 290.761C204.96 290.761 208.642 292.689 208.642 295.195C208.642 297.316 206.123 299.052 202.828 299.63L204.572 305.222L394.113 414.353H453.999C454.774 412.232 458.069 410.69 461.945 410.69C466.402 410.69 470.085 412.618 470.085 415.124C470.085 417.631 466.596 419.752 462.139 419.752C458.65 419.752 455.549 418.595 454.58 416.86H393.919L203.409 307.15L203.022 306.957L200.89 300.016C196.239 300.016 192.75 297.895 192.556 295.388Z" fill="url(#paint31_linear_643_1289)"/>
<path d="M461.945 412.425C459.232 412.425 457.1 413.774 457.1 415.317C457.1 416.859 459.232 418.016 461.945 418.016C464.658 418.016 466.79 416.667 466.79 415.124C466.79 413.582 464.658 412.425 461.945 412.425Z" fill="url(#paint32_linear_643_1289)"/>
<path d="M200.696 292.688C197.983 292.688 195.851 294.038 195.851 295.581C195.851 297.123 197.983 298.28 200.696 298.28C203.409 298.28 205.541 296.93 205.541 295.388C205.541 293.845 203.409 292.688 200.696 292.688Z" fill="url(#paint33_linear_643_1289)"/>
<path opacity="0.7" d="M132.477 298.666C136.547 298.666 139.842 300.209 140.423 302.329H159.997L323.375 396.229L323.762 396.422L331.902 425.922L359.035 441.54C360.391 440.961 362.136 440.576 364.074 440.576C368.531 440.576 372.213 442.504 372.213 445.01C372.213 447.517 368.725 449.638 364.267 449.638C359.81 449.638 356.128 447.71 356.128 445.203C356.128 444.625 356.321 444.046 356.709 443.468L329.964 427.657L321.824 398.157L159.416 304.836H140.035C138.873 306.571 135.965 307.728 132.671 307.728C128.213 307.728 124.531 305.8 124.531 303.294C124.337 300.787 127.826 298.666 132.477 298.666Z" fill="url(#paint34_linear_643_1289)"/>
<path d="M363.88 442.118C361.167 442.118 359.035 443.468 359.035 445.01C359.035 446.553 361.167 447.71 363.88 447.71C366.593 447.71 368.725 446.36 368.725 444.818C368.725 443.275 366.593 442.118 363.88 442.118Z" fill="url(#paint35_linear_643_1289)"/>
<path d="M132.477 300.401C129.764 300.401 127.632 301.751 127.632 303.294C127.632 304.836 129.764 305.993 132.477 305.993C135.19 305.993 137.322 304.643 137.322 303.101C137.322 301.558 135.19 300.401 132.477 300.401Z" fill="url(#paint36_linear_643_1289)"/>
<path opacity="0.7" d="M389.074 378.49C391.788 378.49 393.919 379.647 393.919 381.19C393.919 381.768 393.726 382.154 393.144 382.732L420.083 398.35C421.246 397.964 422.796 397.579 424.347 397.579C428.804 397.579 432.487 399.507 432.487 402.013C432.487 404.52 428.998 406.641 424.541 406.641C420.083 406.641 416.401 404.713 416.401 402.206C416.401 401.242 416.788 400.471 417.757 399.7L390.431 383.889C390.043 383.889 389.656 384.082 389.074 384.082C386.361 384.082 384.229 382.925 384.229 381.382C384.229 379.84 386.361 378.683 389.074 378.49Z" fill="url(#paint37_linear_643_1289)"/>
<path d="M424.734 399.313C422.021 399.313 419.889 400.663 419.889 402.206C419.889 403.748 422.021 404.905 424.734 404.905C427.448 404.905 429.58 403.555 429.58 402.013C429.58 400.47 427.448 399.313 424.734 399.313Z" fill="url(#paint38_linear_643_1289)"/>
<path opacity="0.8" d="M303.413 295.195C300.699 295.195 298.568 296.352 298.568 297.895C298.568 298.473 298.761 298.859 299.343 299.437L272.404 315.055C271.241 314.669 269.691 314.284 268.14 314.284C263.683 314.284 260 316.212 260 318.718C260 321.225 263.489 323.346 267.946 323.346C272.404 323.346 276.086 321.418 276.086 318.911C276.086 317.947 275.699 317.176 274.73 316.405L302.056 300.594C302.444 300.594 302.831 300.787 303.413 300.787C306.126 300.787 308.258 299.63 308.258 298.087C308.258 296.545 306.126 295.195 303.413 295.195Z" fill="url(#paint39_linear_643_1289)"/>
<path d="M267.947 316.019C270.66 316.019 272.792 317.369 272.792 318.912C272.792 320.454 270.66 321.611 267.947 321.611C265.233 321.611 263.101 320.261 263.101 318.719C262.908 317.176 265.233 315.827 267.947 316.019Z" fill="url(#paint40_linear_643_1289)"/>
<path opacity="0.7" d="M258.062 414.546L441.402 309.078C441.014 308.499 440.433 307.728 440.045 307.149L255.543 413.389C254.38 413.003 253.217 412.81 251.861 412.81C247.597 412.81 244.302 414.738 244.302 417.245C244.302 419.559 247.791 421.487 252.055 421.487C256.318 421.487 259.613 419.559 259.613 417.052C259.419 416.088 259.032 415.124 258.062 414.546Z" fill="url(#paint41_linear_643_1289)"/>
<path d="M251.861 414.16C249.147 414.16 247.016 415.51 247.016 417.052C247.016 418.595 249.147 419.752 251.861 419.752C254.574 419.752 256.706 418.402 256.706 416.86C256.706 415.317 254.574 414.16 251.861 414.16Z" fill="url(#paint42_linear_643_1289)"/>
<path d="M247.597 324.502L171.238 368.463V347.639L247.597 303.871V324.502Z" fill="url(#paint43_linear_643_1289)"/>
<path d="M94.8789 324.502L171.238 368.463V347.639L94.8789 303.871V324.502Z" fill="url(#paint44_linear_643_1289)"/>
<path d="M247.597 303.871L171.238 259.91L94.8789 303.871L171.238 347.64L247.597 303.871Z" fill="url(#paint45_linear_643_1289)"/>
<path d="M247.597 294.424L171.238 338.193V317.562L247.597 273.601V294.424Z" fill="url(#paint46_linear_643_1289)"/>
<path d="M94.8789 294.424L171.238 338.193V317.562L94.8789 273.601V294.424Z" fill="url(#paint47_linear_643_1289)"/>
<path d="M247.597 273.6L171.238 229.832L94.8789 273.6L171.238 317.561L247.597 273.6Z" fill="url(#paint48_linear_643_1289)"/>
<path d="M247.597 264.345L171.238 308.306V287.482L247.597 243.714V264.345Z" fill="url(#paint49_linear_643_1289)"/>
<path d="M94.8789 264.345L171.238 308.306V287.482L94.8789 243.714V264.345Z" fill="url(#paint50_linear_643_1289)"/>
<path d="M247.597 243.714L171.238 199.753L94.8789 243.714L171.238 287.482L247.597 243.714Z" fill="url(#paint51_linear_643_1289)"/>
<path d="M171.044 219.227C149.144 219.227 131.508 229.06 131.508 241.4C131.508 253.74 149.144 263.573 171.044 263.573C192.944 263.573 210.58 253.74 210.58 241.4C210.58 229.06 192.944 219.227 171.044 219.227Z" fill="#33211F"/>
<path opacity="0.5" d="M210.58 241.401V33.5498C210.58 45.8898 192.944 55.7232 171.044 55.7232C149.144 55.7232 131.508 45.8898 131.508 33.5498V241.594C131.508 253.934 149.144 263.767 171.044 263.767C192.944 263.574 210.58 253.741 210.58 241.401Z" fill="url(#paint52_linear_643_1289)"/>
<path opacity="0.7" d="M171.044 11.376C149.144 11.376 131.508 21.2094 131.508 33.5493C131.508 45.8893 149.144 55.7227 171.044 55.7227C192.944 55.7227 210.58 45.8893 210.58 33.5493C210.58 21.2094 192.944 11.376 171.044 11.376Z" fill="url(#paint53_linear_643_1289)"/>
<path d="M178.99 229.832C177.827 229.832 176.858 230.796 176.858 231.953V243.136C176.858 244.293 177.827 245.257 178.99 245.257C180.153 245.257 181.122 244.293 181.122 243.136V231.953C181.122 230.603 180.153 229.832 178.99 229.832Z" fill="white"/>
<path d="M162.517 161.19C161.354 161.19 160.385 162.154 160.385 163.311V168.324C160.385 169.481 161.354 170.445 162.517 170.445C163.679 170.445 164.648 169.481 164.648 168.324V163.311C164.648 162.154 163.679 161.19 162.517 161.19Z" fill="white"/>
<path d="M178.99 107.396C177.827 107.396 176.858 108.361 176.858 109.517V114.531C176.858 115.687 177.827 116.651 178.99 116.651C180.153 116.651 181.122 115.687 181.122 114.531V109.517C181.122 108.361 180.153 107.396 178.99 107.396Z" fill="white"/>
<path d="M171.238 94.6709C170.075 94.6709 169.106 95.635 169.106 96.7918V101.805C169.106 102.962 170.075 103.926 171.238 103.926C172.401 103.926 173.37 102.962 173.37 101.805V96.7918C173.176 95.4422 172.207 94.6709 171.238 94.6709Z" fill="white"/>
<path d="M146.043 231.181C144.88 231.181 143.911 230.217 143.911 229.06V191.847C143.911 190.691 144.88 189.727 146.043 189.727C147.206 189.727 148.175 190.691 148.175 191.847V229.06C148.175 230.217 147.206 231.181 146.043 231.181Z" fill="white"/>
<path d="M154.377 195.126C153.214 195.126 152.245 194.162 152.245 193.005V171.796C152.245 170.639 153.214 169.675 154.377 169.675C155.54 169.675 156.509 170.639 156.509 171.796V193.005C156.315 194.162 155.346 195.126 154.377 195.126Z" fill="white"/>
<path d="M146.043 113.181C144.88 113.181 143.911 114.145 143.911 115.302V124.364C143.911 125.521 144.88 126.485 146.043 126.485C147.206 126.485 148.175 125.521 148.175 124.364V115.302C148.175 113.952 147.206 113.181 146.043 113.181Z" fill="white"/>
<path d="M170.85 71.1475C169.687 71.1475 168.718 72.1115 168.718 73.2684V86.3796C168.718 87.5365 169.687 88.5005 170.85 88.5005C172.013 88.5005 172.982 87.5365 172.982 86.3796V73.2684C172.788 72.1115 171.819 71.1475 170.85 71.1475Z" fill="white"/>
<path d="M154.377 104.118C153.214 104.118 152.245 103.154 152.245 101.997V64.784C152.245 63.6271 153.214 62.6631 154.377 62.6631C155.54 62.6631 156.509 63.6271 156.509 64.784V101.997C156.315 103.154 155.346 104.118 154.377 104.118Z" fill="white"/>
<path d="M162.517 222.698C161.354 222.698 160.385 221.734 160.385 220.577V183.364C160.385 182.207 161.354 181.243 162.517 181.243C163.679 181.243 164.648 182.207 164.648 183.364V220.577C164.648 221.926 163.679 222.698 162.517 222.698Z" fill="white"/>
<path d="M154.377 156.371C153.214 156.371 152.245 155.407 152.245 154.25V117.037C152.245 115.88 153.214 114.916 154.377 114.916C155.54 114.916 156.509 115.88 156.509 117.037V154.25C156.315 155.407 155.346 156.371 154.377 156.371Z" fill="white"/>
<path d="M162.517 75.7754C161.354 75.7754 160.385 74.8113 160.385 73.6545V52.4451C160.385 51.2883 161.354 50.3242 162.517 50.3242C163.679 50.3242 164.648 51.2883 164.648 52.4451V73.6545C164.648 75.0041 163.679 75.7754 162.517 75.7754Z" fill="white"/>
<path d="M170.85 49.167C169.687 49.167 168.718 48.2029 168.718 47.0461V25.8367C168.718 24.6799 169.687 23.7158 170.85 23.7158C172.013 23.7158 172.982 24.6799 172.982 25.8367V47.0461C172.788 48.2029 172.013 49.167 170.85 49.167Z" fill="white"/>
<path d="M146.043 72.3047C144.88 72.3047 143.911 71.3406 143.911 70.1838V48.9744C143.911 47.8176 144.88 46.8535 146.043 46.8535C147.206 46.8535 148.175 47.8176 148.175 48.9744V70.1838C148.175 71.5334 147.206 72.3047 146.043 72.3047Z" fill="white"/>
<path d="M154.377 37.9844C153.214 37.9844 152.245 38.9484 152.245 40.1053V49.1675C152.245 50.3243 153.214 51.2884 154.377 51.2884C155.54 51.2884 156.509 50.3243 156.509 49.1675V40.1053C156.315 38.9484 155.346 37.9844 154.377 37.9844Z" fill="white"/>
<path d="M170.85 121.086C169.687 121.086 168.718 122.05 168.718 123.207V132.269C168.718 133.426 169.687 134.39 170.85 134.39C172.013 134.39 172.982 133.426 172.982 132.269V123.207C172.788 122.05 171.819 121.086 170.85 121.086Z" fill="white"/>
<path d="M162.517 143.838C161.354 143.838 160.385 144.802 160.385 145.959V155.021C160.385 156.178 161.354 157.142 162.517 157.142C163.679 157.142 164.648 156.178 164.648 155.021V145.959C164.648 144.802 163.679 143.838 162.517 143.838Z" fill="white"/>
<path d="M146.043 152.321C144.88 152.321 143.911 153.285 143.911 154.442V159.455C143.911 160.612 144.88 161.576 146.043 161.576C147.206 161.576 148.175 160.612 148.175 159.455V154.249C148.175 153.093 147.206 152.321 146.043 152.321Z" fill="white"/>
<path d="M146.043 89.2715C144.88 89.2715 143.911 90.2355 143.911 91.3924V96.4055C143.911 97.5624 144.88 98.5265 146.043 98.5265C147.206 98.5265 148.175 97.5624 148.175 96.4055V91.3924C148.175 90.2355 147.206 89.2715 146.043 89.2715Z" fill="white"/>
<path d="M195.657 228.868C196.82 228.868 197.789 227.904 197.789 226.747V189.534C197.789 188.377 196.82 187.413 195.657 187.413C194.494 187.413 193.525 188.377 193.525 189.534V226.747C193.525 227.904 194.494 228.868 195.657 228.868Z" fill="white"/>
<path d="M195.657 138.824C196.82 138.824 197.789 137.86 197.789 136.703V115.494C197.789 114.337 196.82 113.373 195.657 113.373C194.494 113.373 193.525 114.337 193.525 115.494V136.703C193.525 137.86 194.494 138.824 195.657 138.824Z" fill="white"/>
<path d="M195.657 167.554C196.82 167.554 197.789 168.518 197.789 169.675V178.737C197.789 179.894 196.82 180.858 195.657 180.858C194.494 180.858 193.525 179.894 193.525 178.737V169.675C193.525 168.518 194.494 167.554 195.657 167.554Z" fill="white"/>
<path d="M187.324 203.995C188.486 203.995 189.455 204.959 189.455 206.116V233.688C189.455 234.845 188.486 235.809 187.324 235.809C186.161 235.809 185.192 234.845 185.192 233.688V206.116C185.192 204.766 186.161 203.995 187.324 203.995Z" fill="white"/>
<path d="M187.324 165.818C188.486 165.818 189.455 164.854 189.455 163.697V126.484C189.455 125.327 188.486 124.363 187.324 124.363C186.161 124.363 185.192 125.327 185.192 126.484V163.697C185.192 164.854 186.161 165.818 187.324 165.818Z" fill="white"/>
<path d="M187.324 100.456C188.486 100.456 189.455 99.4915 189.455 98.3346V61.1219C189.455 59.965 188.486 59.001 187.324 59.001C186.161 59.001 185.192 59.965 185.192 61.1219V98.3346C185.192 99.4915 186.161 100.456 187.324 100.456Z" fill="white"/>
<path d="M195.657 74.2324C196.82 74.2324 197.789 73.2684 197.789 72.1115V50.9022C197.789 49.7453 196.82 48.7812 195.657 48.7812C194.494 48.7812 193.525 49.7453 193.525 50.9022V72.1115C193.525 73.2684 194.494 74.2324 195.657 74.2324Z" fill="white"/>
<path d="M187.324 39.7197C188.486 39.7197 189.455 40.6838 189.455 41.8407V50.9028C189.455 52.0597 188.486 53.0237 187.324 53.0237C186.161 53.0237 185.192 52.0597 185.192 50.9028V41.8407C185.192 40.6838 186.161 39.7197 187.324 39.7197Z" fill="white"/>
<path d="M195.657 154.057C196.82 154.057 197.789 155.021 197.789 156.178V161.191C197.789 162.348 196.82 163.312 195.657 163.312C194.494 163.312 193.525 162.348 193.525 161.191V156.178C193.525 155.021 194.494 154.057 195.657 154.057Z" fill="white"/>
<path d="M170.85 139.403C169.687 139.403 168.718 140.367 168.718 141.524V146.537C168.718 147.694 169.687 148.658 170.85 148.658C172.013 148.658 172.982 147.694 172.982 146.537V141.524C172.788 140.367 172.013 139.403 170.85 139.403Z" fill="white"/>
<path d="M187.324 181.05C186.161 181.05 185.192 182.014 185.192 183.171V188.184C185.192 189.341 186.161 190.305 187.324 190.305C188.486 190.305 189.455 189.341 189.455 188.184V183.171C189.262 182.014 188.486 181.05 187.324 181.05Z" fill="white"/>
<path d="M162.517 28.9219C161.354 28.9219 160.385 29.8859 160.385 31.0428V36.0559C160.385 37.2128 161.354 38.1768 162.517 38.1768C163.679 38.1768 164.648 37.2128 164.648 36.0559V31.0428C164.648 29.8859 163.679 28.9219 162.517 28.9219Z" fill="white"/>
<path d="M178.99 33.3564C177.827 33.3564 176.858 34.3205 176.858 35.4774V40.4905C176.858 41.6474 177.827 42.6114 178.99 42.6114C180.153 42.6114 181.122 41.6474 181.122 40.4905V35.4774C181.122 34.3205 180.153 33.3564 178.99 33.3564Z" fill="white"/>
<path d="M178.99 216.72C177.827 216.72 176.858 215.756 176.858 214.599V193.389C176.858 192.233 177.827 191.269 178.99 191.269C180.153 191.269 181.122 192.233 181.122 193.389V214.599C181.122 215.756 180.153 216.72 178.99 216.72Z" fill="white"/>
<path d="M170.85 242.75C169.687 242.75 168.718 243.714 168.718 244.871V253.933C168.718 255.09 169.687 256.054 170.85 256.054C172.013 256.054 172.982 255.09 172.982 253.933V244.871C172.788 243.714 171.819 242.75 170.85 242.75Z" fill="white"/>
<path d="M195.463 91.7783C194.301 91.7783 193.332 92.7424 193.332 93.8993V102.961C193.332 104.118 194.301 105.082 195.463 105.082C196.626 105.082 197.595 104.118 197.595 102.961V93.8993C197.401 92.7424 196.626 91.7783 195.463 91.7783Z" fill="white"/>
<path d="M178.99 179.123C177.827 179.123 176.858 178.158 176.858 177.002V139.789C176.858 138.632 177.827 137.668 178.99 137.668C180.153 137.668 181.122 138.632 181.122 139.789V177.002C181.122 178.158 180.153 179.123 178.99 179.123Z" fill="white"/>
<path d="M170.85 187.22C169.687 187.22 168.718 186.256 168.718 185.099V163.889C168.718 162.733 169.687 161.769 170.85 161.769C172.013 161.769 172.982 162.733 172.982 163.889V185.099C172.788 186.256 171.819 187.22 170.85 187.22Z" fill="white"/>
<path d="M178.99 45.3105C177.827 45.3105 176.858 46.2746 176.858 47.4315V56.4936C176.858 57.6505 177.827 58.6146 178.99 58.6146C180.153 58.6146 181.122 57.6505 181.122 56.4936V47.4315C181.122 46.2746 180.153 45.3105 178.99 45.3105Z" fill="white"/>
<path d="M170.85 207.658C169.687 207.658 168.718 208.622 168.718 209.779V229.06C168.718 230.217 169.687 231.181 170.85 231.181C172.013 231.181 172.982 230.217 172.982 229.06V209.779C172.788 208.429 171.819 207.658 170.85 207.658Z" fill="white"/>
<path d="M154.377 226.554C153.214 226.554 152.245 227.518 152.245 228.675V233.688C152.245 234.845 153.214 235.809 154.377 235.809C155.54 235.809 156.509 234.845 156.509 233.688V228.675C156.315 227.518 155.346 226.554 154.377 226.554Z" fill="white"/>
<path d="M162.517 231.182C161.354 231.182 160.385 232.146 160.385 233.303V244.486C160.385 245.643 161.354 246.607 162.517 246.607C163.679 246.607 164.648 245.643 164.648 244.486V233.303C164.648 232.146 163.679 231.182 162.517 231.182Z" fill="white"/>
<path d="M87.7081 124.17C87.7081 124.17 87.7081 118.579 88.2895 115.879C88.6772 112.987 90.2276 113.758 91.0028 114.337C91.778 114.722 92.1656 111.637 95.8479 113.373C99.5302 115.108 98.9488 117.036 97.2046 119.735C95.4603 122.435 93.3285 126.484 93.3285 126.484L87.7081 124.17Z" fill="#FFD0CA"/>
<path d="M52.6295 138.053C52.6295 138.053 53.4047 131.112 53.4047 128.991C53.4047 126.87 51.8543 125.713 50.11 127.063C47.7844 123.785 44.4897 125.52 43.3269 127.834C42.164 130.148 41.9702 130.341 44.6835 134.583C46.2339 136.896 47.7844 139.596 47.7844 139.596L52.6295 138.053Z" fill="#FFD0CA"/>
<path d="M79.5684 179.121C79.5684 179.121 84.9949 159.84 88.2896 149.621C92.1657 137.667 95.0728 124.941 95.0728 124.941C95.0728 124.941 90.4215 124.941 87.5144 122.82C86.1578 126.484 82.2817 135.932 78.5994 143.644C75.8861 149.621 71.8162 162.154 69.2968 165.239C66.9711 168.324 79.5684 179.121 79.5684 179.121Z" fill="#5BAFE8"/>
<path d="M68.5215 231.952C67.7463 229.832 81.3126 228.289 81.3126 228.289C81.3126 228.289 81.3126 238.315 81.7002 242.557C82.2816 248.92 82.0878 252.005 80.3436 260.681C79.5684 264.538 78.4056 278.999 78.7932 284.012C79.1808 291.531 82.6693 295.002 83.8321 296.737C84.9949 298.665 80.5374 300.401 77.6303 297.701C74.7233 295.002 74.5295 294.424 72.979 293.652C71.4286 292.881 72.01 290.76 72.01 286.518C72.01 283.24 70.6534 272.443 70.0719 265.502C69.2967 255.668 71.4286 255.476 71.2348 250.462C71.041 241.207 68.9091 233.302 68.5215 231.952Z" fill="#F9BBB7"/>
<path d="M70.6534 288.831C70.6534 288.639 70.8472 288.446 70.8472 288.446C71.2348 287.482 72.01 286.518 72.01 286.518C72.01 286.518 72.5914 292.495 76.2737 295.001C80.1498 297.701 81.894 298.086 83.8321 296.737C83.8321 296.737 84.8011 298.086 86.933 300.593C88.0958 301.943 87.1268 303.099 83.6383 302.907C81.894 302.714 79.1808 301.943 77.8241 300.014C76.2737 298.086 75.1109 295.965 73.7542 294.808C73.5604 294.616 73.3666 294.423 73.1728 294.23C72.979 295.773 73.1728 296.737 72.979 297.893C72.5914 298.472 72.2038 298.279 71.8162 297.893C71.6224 296.544 71.8162 295.387 71.2348 293.073C70.2657 290.759 70.4596 289.41 70.6534 288.831Z" fill="#33211F"/>
<path d="M58.056 237.35C57.2808 235.229 70.8472 233.687 70.8472 233.687C70.8472 233.687 70.8472 243.713 71.2348 247.955C71.8162 254.317 71.6224 257.402 69.8781 266.079C69.1029 269.935 67.9401 284.396 68.3277 289.409C68.7153 296.929 72.2038 300.399 73.3666 302.135C74.5294 304.063 70.0719 305.798 67.1649 303.099C64.2578 300.399 64.064 299.821 62.5136 299.05C60.9631 298.279 61.5445 296.158 61.5445 291.916C61.5445 288.638 60.1879 277.84 59.6065 270.899C58.8313 261.066 60.9631 260.873 60.7693 255.86C60.5755 246.605 58.4437 238.7 58.056 237.35Z" fill="#FFD0CA"/>
<path d="M60.1879 294.037C60.1879 293.845 60.3817 293.652 60.3817 293.652C60.7693 292.688 61.5445 291.724 61.5445 291.724C61.5445 291.724 62.126 297.701 65.8082 300.207C69.6843 302.907 71.4286 303.292 73.3666 301.943C73.3666 301.943 74.3356 303.292 76.4675 305.799C77.6303 307.149 76.6613 308.305 73.1728 308.113C71.4286 307.92 68.7153 307.149 67.3587 305.22C65.8082 303.292 64.6454 301.171 63.2888 300.015C63.095 299.822 62.9012 299.629 62.7074 299.436C62.5136 300.979 62.7074 301.943 62.5136 303.1C62.126 303.678 61.7383 303.485 61.3507 303.1C61.1569 301.75 61.3507 300.593 60.7693 298.279C59.8003 295.965 59.9941 294.616 60.1879 294.037Z" fill="#33211F"/>
<path d="M63.2888 157.334C63.2888 157.334 60.1879 160.805 59.0251 169.096C58.056 177.386 58.2498 179.507 58.2498 179.507C58.2498 179.507 65.2268 180.471 66.971 176.808C68.5215 173.337 63.2888 157.334 63.2888 157.334Z" fill="#33211F"/>
<path d="M83.6382 208.429C83.6382 208.429 84.4135 212.285 84.6073 219.226C84.8011 227.71 83.6382 244.87 83.6382 244.87C83.6382 244.87 81.5064 247.762 76.4675 249.305C72.979 250.269 67.3586 250.462 63.2887 248.919C62.3197 245.063 61.7383 239.278 61.7383 239.278C61.5445 241.978 60.3817 245.834 60.1879 248.341C58.056 247.955 56.5056 246.412 56.5056 246.412C56.5056 246.412 55.9242 239.471 55.1489 231.952C54.5675 224.818 54.9551 218.069 58.056 210.164C62.9011 197.824 83.4444 201.68 83.6382 208.429Z" fill="#5BAFE8"/>
<path d="M53.9861 180.856C54.5675 176.229 65.2268 170.059 65.2268 170.059C65.2268 170.059 66.971 175.265 68.5214 176.422C70.0719 177.579 72.5913 180.664 72.7851 181.049C72.7851 180.471 72.3975 176.422 70.8471 172.18C70.2657 170.83 71.0409 166.781 71.0409 166.781C71.0409 166.781 71.6223 166.588 72.5913 166.396C73.948 167.938 76.6612 171.987 78.2117 173.722C79.5683 175.265 83.832 181.049 82.4754 186.255C81.3126 190.883 80.7311 196.667 80.9249 198.981C81.1188 201.487 83.832 209.778 83.832 209.778C83.832 209.778 81.1188 216.527 71.2347 214.984C63.8701 213.827 58.4436 209.393 58.4436 209.393C58.4436 209.393 60.1878 198.209 59.994 193.582C60.1878 193.582 52.6295 189.919 53.9861 180.856Z" fill="#EFDCDC"/>
<path d="M72.7852 171.216C72.7852 171.216 75.1108 177.579 77.2427 183.363C79.3745 188.955 79.3745 204.765 79.9559 207.079C80.925 210.935 83.6382 212.478 85.5763 211.128C85.5763 211.128 81.3126 192.618 82.6692 186.255C84.0258 179.893 82.4754 178.35 78.2117 172.566C73.948 166.781 73.948 167.938 73.948 167.938L72.7852 171.216Z" fill="#5BAFE8"/>
<path d="M73.948 169.095C75.6922 171.408 78.7931 175.65 78.7931 175.65L77.6303 177.386C77.6303 177.386 78.5993 177.964 79.5683 179.121C79.5683 182.013 78.5993 190.111 78.5993 190.111C78.5993 190.111 76.8551 181.049 72.2037 173.529C70.6533 171.023 71.6223 171.023 71.6223 171.023C71.6223 171.023 73.1728 169.095 73.948 169.095Z" fill="#3FA1D8"/>
<path d="M71.6224 167.36C71.6224 167.36 72.01 172.18 72.7852 174.687C72.7852 175.072 72.7852 176.229 71.6224 176.422C70.4596 176.615 67.9401 176.422 67.1649 175.843C63.6764 173.144 63.095 171.602 63.095 171.602C63.095 171.602 63.8702 168.324 63.8702 167.167C64.064 165.239 63.8702 158.876 63.8702 158.876L71.6224 167.36Z" fill="#F9BBB7"/>
<path d="M75.886 185.099C74.917 181.435 73.5604 179.314 73.1728 178.543C73.1728 178.35 73.3666 178.35 73.3666 178.157C73.5604 177.193 73.1728 175.651 73.1728 175.651C71.2347 174.687 70.0719 176.615 70.0719 176.615C70.0719 176.615 70.4595 177.772 71.6223 178.543C71.8161 178.736 72.0099 178.736 72.0099 178.736L73.948 201.102L77.2427 203.994C77.2427 203.994 78.5993 202.259 79.3745 199.945C78.9869 198.21 77.0489 189.148 75.886 185.099Z" fill="#DB4574"/>
<path d="M72.7852 170.06C72.7852 170.06 73.9481 170.831 74.7233 174.495C75.3047 177.001 74.1419 178.544 74.1419 178.544L71.4286 175.459C71.4286 175.459 72.5914 173.338 71.8162 170.06C71.4286 168.903 72.7852 170.06 72.7852 170.06Z" fill="white"/>
<path d="M65.4206 151.163C68.3277 148.657 75.3047 147.693 78.4056 154.827C81.5064 162.347 75.1109 172.373 71.2348 170.83C69.1029 170.059 64.8392 168.131 63.2888 164.082C61.7384 159.454 63.2888 152.899 65.4206 151.163Z" fill="#FFD0CA"/>
<path d="M63.095 170.059C63.095 170.059 69.8782 177.193 72.2038 188.376C72.7852 191.461 74.3357 198.016 74.7233 203.993C75.1109 210.163 74.1419 215.369 71.6224 217.297C64.4516 222.889 55.7304 214.405 55.7304 214.405C55.7304 214.405 59.2189 202.837 58.6375 199.173C58.0561 195.51 53.5986 179.892 54.9552 177.385C56.3118 174.879 63.095 170.059 63.095 170.059Z" fill="#80C6FF"/>
<path d="M63.6763 169.095C63.6763 169.095 63.4825 172.18 67.1648 176.422C72.979 182.784 72.7852 192.618 72.7852 192.618L65.2268 183.17L66.5834 180.471L63.6763 180.278C63.6763 180.278 60.9631 176.422 61.1569 172.373C60.9631 170.059 63.6763 169.095 63.6763 169.095Z" fill="#3FA1D8"/>
<path d="M70.2657 180.471C71.0409 178.542 71.2347 175.457 71.2347 175.457C71.2347 175.457 66.1958 173.144 63.8702 170.444C63.4826 173.722 66.002 178.928 70.2657 180.471Z" fill="white"/>
<path d="M72.979 156.562C72.979 156.562 68.1339 162.154 62.9012 163.504C60.3817 157.912 59.9941 156.562 61.1569 153.092C62.5135 149.043 66.7773 149.235 66.7773 149.235C66.7773 149.235 71.041 144.608 77.0489 148.85C85.7701 155.02 79.1807 162.347 79.1807 162.347C79.1807 162.347 78.5993 158.49 72.979 156.562Z" fill="#33211F"/>
<path d="M67.1649 162.733C67.1649 162.733 66.5835 161.961 66.0021 161.383C65.4206 160.997 64.4516 160.805 64.064 162.347C63.6764 164.468 65.4207 165.239 65.4207 165.239L67.1649 162.733Z" fill="#FFD0CA"/>
<path d="M45.6525 137.089C45.6525 137.089 48.9471 138.053 53.4047 136.317C57.0869 149.236 59.025 165.046 60.3816 174.109C61.7383 183.171 61.7383 190.883 57.2807 193.582C54.9551 190.69 53.017 188.762 51.2728 183.363C49.3348 177.193 48.9471 170.638 47.9781 163.118C47.0091 155.599 45.6525 137.089 45.6525 137.089Z" fill="#5BAFE8"/>
<path d="M212.131 226.168C212.131 226.168 208.448 223.854 207.092 222.504C205.735 221.155 202.247 217.491 202.44 215.37C202.44 213.249 203.991 212.092 205.348 212.671C206.898 213.249 208.642 215.949 209.417 216.334C210.193 216.72 209.611 214.599 210.387 213.442C211.162 212.285 211.937 212.671 211.743 214.021C211.549 215.177 212.325 216.527 212.325 218.841C212.325 221.155 214.263 223.661 214.263 223.661L212.131 226.168Z" fill="#FFD0CA"/>
<path d="M217.363 223.854C217.363 223.854 216.201 221.733 214.65 221.54C211.937 220.961 209.611 223.854 210.193 225.974C210.58 228.095 212.131 229.445 212.131 229.445L217.363 223.854Z" fill="white"/>
<path d="M215.619 221.926C220.077 221.926 226.666 230.795 230.542 234.651C233.837 237.929 240.039 242.942 245.271 245.449C250.504 247.955 253.799 251.619 252.248 258.753C250.698 265.887 240.62 260.874 238.488 258.56C236.356 256.053 229.186 250.655 226.472 248.148C223.759 245.642 212.518 231.952 210.774 229.06C209.417 225.782 213.681 221.926 215.619 221.926Z" fill="#9F78D6"/>
<path d="M211.937 373.861C213.293 372.897 222.596 375.597 222.596 375.597L232.674 378.874L231.899 386.394C231.899 386.394 228.41 390.25 223.371 386.78C220.464 384.852 214.844 382.345 212.712 379.26C211.162 377.139 210.58 374.825 211.937 373.861Z" fill="#472E2E"/>
<path d="M236.744 359.4C238.1 358.436 247.403 361.136 247.403 361.136L257.481 364.414L256.706 371.933C256.706 371.933 253.217 375.789 248.178 372.319C245.271 370.391 239.651 367.884 237.519 364.799C235.775 362.485 235.193 360.172 236.744 359.4Z" fill="#472E2E"/>
<path d="M249.535 290.76C249.535 290.76 254.186 295.194 254.768 304.642C255.155 308.884 252.83 327.008 252.83 327.008C252.83 327.008 256.318 336.456 257.287 342.433C258.256 349.567 258.062 363.643 258.062 363.643C257.481 365.571 255.543 367.306 251.667 366.92C247.597 366.535 244.884 361.522 244.884 361.522C244.884 361.522 243.527 349.953 242.17 342.241C241.395 337.806 240.62 334.914 240.232 331.25C240.038 327.008 239.651 316.982 239.651 316.982C239.651 316.982 234.806 336.071 233.255 341.855C236.162 351.495 233.643 377.911 233.255 380.032C227.247 384.659 223.759 380.224 221.239 376.561C221.433 370.777 220.464 360.365 220.27 352.267C220.077 345.904 220.27 343.012 220.077 340.891C219.883 336.649 221.821 323.923 222.79 314.283C223.953 302.907 224.147 294.809 224.147 294.809L249.535 290.76Z" fill="#9F78D6"/>
<path d="M223.565 259.139C223.565 265.694 224.728 276.877 224.728 280.348C224.534 286.518 222.79 299.822 221.627 304.449C223.759 306.57 232.286 310.234 239.457 308.691C244.496 307.534 252.636 305.992 255.543 300.786C255.543 299.822 250.698 288.639 251.279 285.554C252.636 277.841 253.411 268.586 253.605 262.224C253.799 257.789 252.054 252.39 250.116 250.462C248.178 248.534 246.434 247.184 243.139 248.148C240.426 248.341 234.224 251.812 232.286 252.969C226.472 252.776 223.565 257.21 223.565 259.139Z" fill="#BB96E6"/>
<path d="M245.465 251.619L244.302 245.642L235.775 247.57C235.775 247.57 236.744 250.848 235.775 253.354C235.775 253.547 242.17 253.161 245.465 251.619Z" fill="#FFA08D"/>
<path d="M247.403 232.723C245.659 229.059 239.263 224.818 233.062 230.602C226.666 236.579 229.186 248.726 233.837 249.497C236.356 249.883 241.008 248.726 244.302 245.448C247.985 241.785 248.76 235.615 247.403 232.723Z" fill="#FFD0CA"/>
<path d="M228.41 230.024C228.41 230.024 228.604 232.916 230.542 234.459C232.48 236.194 236.162 237.544 236.162 237.544C236.162 237.544 236.162 238.701 235.775 240.243C235.387 241.786 236.356 242.364 236.356 242.364C236.356 242.364 238.294 239.279 239.457 241.786C240.814 244.292 238.488 245.449 238.488 245.449C238.488 245.449 239.263 247.184 240.62 248.534C241.589 249.498 243.333 250.655 243.333 250.655C243.333 250.655 244.69 246.799 247.209 243.328C249.729 239.857 250.31 237.158 250.31 235.616C250.31 233.495 249.535 230.217 245.465 228.482C241.589 225.011 237.325 227.132 236.356 227.517C235.193 227.903 232.868 228.482 230.93 227.325C231.124 229.253 232.093 230.602 232.093 230.602C232.093 230.602 230.348 230.602 228.41 230.024Z" fill="#33211F"/>
<path d="M239.07 250.077C235.775 250.077 233.449 251.812 232.48 252.969C232.48 252.969 237.713 256.054 241.201 254.704C242.946 253.933 245.853 252.39 246.628 251.619C247.597 250.462 245.659 248.148 245.659 248.148C245.659 248.148 243.333 250.077 239.07 250.077Z" fill="#9F78D6"/>
<path d="M190.425 237.351C190.425 237.351 188.099 234.651 188.099 232.723C187.905 230.795 187.711 229.831 186.548 230.602C185.386 231.374 186.355 232.916 186.548 233.687C186.742 234.651 185.386 233.88 184.998 233.687C183.641 232.916 181.122 228.481 178.99 230.217C177.052 231.952 177.827 234.459 179.959 236.965C181.703 238.893 184.998 240.629 186.355 241.014C187.905 241.4 189.649 242.171 189.649 242.171L190.425 237.351Z" fill="#FFD0CA"/>
<path d="M195.463 238.701C195.463 238.701 191.2 236.387 189.843 236.58C188.293 237.158 186.161 239.665 187.711 242.171C189.456 244.099 192.363 245.449 192.363 245.449L195.463 238.701Z" fill="white"/>
<path d="M192.75 237.158C189.843 236.965 188.099 239.665 188.293 244.099C188.487 246.799 198.564 255.861 202.44 259.524C204.96 262.031 219.689 271.093 224.534 273.214C228.604 274.949 229.573 271.286 230.542 269.358C231.899 266.466 232.286 257.018 230.736 255.09C228.798 252.583 224.922 252.583 222.402 252.39C218.526 252.197 212.518 250.848 209.224 249.305C205.348 244.871 195.657 237.351 192.75 237.158Z" fill="#9F78D6"/>
<path d="M442.952 233.109C439.27 230.988 434.425 231.18 430.161 233.687L417.758 240.821C416.982 241.207 416.595 242.171 416.595 243.52C416.595 245.834 417.951 248.726 419.889 249.69C420.665 250.076 421.246 250.076 421.634 250.076C421.827 250.076 422.021 249.883 422.215 249.69L435.2 242.171C436.169 241.592 436.944 241.399 437.526 241.399C437.719 241.399 438.107 241.399 438.301 241.592C439.27 242.171 440.045 244.099 440.045 247.184V255.282C440.045 256.824 442.177 257.981 444.89 257.981C447.603 257.981 449.735 256.632 449.735 255.089V247.184C449.542 240.628 447.216 235.615 442.952 233.109Z" fill="url(#paint54_linear_643_1289)"/>
<path d="M455.356 239.858C451.673 237.737 446.828 237.929 442.565 240.436L430.161 247.57C429.386 247.956 428.998 248.92 428.998 250.269C428.998 252.583 430.355 255.475 432.293 256.439C433.068 256.825 433.65 256.825 434.037 256.825C434.231 256.825 434.425 256.632 434.619 256.439L447.604 248.92C448.573 248.341 449.348 248.148 449.929 248.148C450.123 248.148 450.511 248.148 450.704 248.341C451.673 248.92 452.449 250.848 452.449 253.933V262.031C452.449 263.573 454.58 264.73 457.294 264.73C460.007 264.73 462.139 263.381 462.139 261.838V253.933C461.945 247.377 459.619 242.364 455.356 239.858Z" fill="url(#paint55_linear_643_1289)"/>
<path d="M467.372 246.798C463.689 244.677 458.844 244.87 454.58 247.376L442.177 254.51C441.402 254.896 441.014 255.86 441.014 257.21C441.014 259.524 442.371 262.416 444.309 263.38C445.084 263.765 445.665 263.765 446.053 263.765C446.247 263.765 446.441 263.573 446.634 263.38L459.619 255.86C460.588 255.282 461.364 255.089 461.945 255.089C462.139 255.089 462.526 255.089 462.72 255.282C463.689 255.86 464.465 257.788 464.465 260.873V268.971C464.465 270.514 466.596 271.671 469.31 271.671C472.023 271.671 474.155 270.321 474.155 268.779V260.873C474.155 254.318 471.635 249.305 467.372 246.798Z" fill="url(#paint56_linear_643_1289)"/>
<path d="M357.678 233.109C361.36 230.988 366.205 231.18 370.469 233.687L382.873 240.821C383.648 241.207 384.035 242.171 384.035 243.52C384.035 245.834 382.679 248.726 380.741 249.69C379.966 250.076 379.384 250.076 378.997 250.076C378.803 250.076 378.609 249.883 378.415 249.69L365.43 242.171C364.461 241.592 363.686 241.399 363.105 241.399C362.911 241.399 362.523 241.399 362.329 241.592C361.36 242.171 360.585 244.099 360.585 247.184V255.282C360.585 256.824 358.453 257.981 355.74 257.981C353.027 257.981 350.895 256.632 350.895 255.089V247.184C350.895 240.628 353.414 235.615 357.678 233.109Z" fill="url(#paint57_linear_643_1289)"/>
<path d="M345.275 239.858C348.957 237.737 353.802 237.929 358.066 240.436L370.469 247.57C371.244 247.956 371.632 248.92 371.632 250.269C371.632 252.583 370.275 255.475 368.337 256.439C367.562 256.825 366.981 256.825 366.593 256.825C366.399 256.825 366.206 256.632 366.012 256.439L353.027 248.92C352.058 248.341 351.283 248.148 350.701 248.148C350.507 248.148 350.12 248.148 349.926 248.341C348.957 248.92 348.182 250.848 348.182 253.933V262.031C348.182 263.573 346.05 264.73 343.337 264.73C340.623 264.73 338.491 263.381 338.491 261.838V253.933C338.491 247.377 341.011 242.364 345.275 239.858Z" fill="url(#paint58_linear_643_1289)"/>
<path d="M333.065 246.798C336.747 244.677 341.592 244.87 345.856 247.376L358.26 254.51C359.035 254.896 359.422 255.86 359.422 257.21C359.422 259.524 358.066 262.416 356.128 263.38C355.352 263.765 354.771 263.765 354.383 263.765C354.19 263.765 353.996 263.573 353.802 263.38L340.817 255.86C339.848 255.282 339.073 255.089 338.491 255.089C338.298 255.089 337.91 255.089 337.716 255.282C336.747 255.86 335.972 257.788 335.972 260.873V268.971C335.972 270.514 333.646 271.671 331.127 271.671C328.414 271.671 326.282 270.321 326.282 268.779V260.873C326.476 254.318 328.995 249.305 333.065 246.798Z" fill="url(#paint59_linear_643_1289)"/>
<path d="M461.945 265.501H438.495C427.835 260.874 414.269 258.174 399.734 258.367C385.974 258.56 373.376 261.259 363.105 265.501H338.298V292.495C338.298 292.88 338.298 293.266 338.298 293.652C338.491 312.74 366.399 327.972 400.509 327.587C434.425 327.201 461.751 311.583 461.945 292.495V265.501Z" fill="#BB96E6"/>
<path d="M399.734 230.795C365.624 231.181 338.104 246.991 338.298 266.08C338.491 285.168 366.399 300.4 400.509 300.015C434.619 299.629 462.139 283.819 461.945 264.73C461.751 245.642 433.843 230.41 399.734 230.795Z" fill="#9F78D6"/>
<path d="M400.509 308.885C366.399 309.27 338.491 294.038 338.298 274.95C338.298 274.564 338.298 274.179 338.298 273.793V282.855C338.298 283.241 338.298 283.626 338.298 284.012C338.491 303.1 366.399 318.332 400.509 317.947C434.425 317.561 461.751 301.943 461.945 282.855V273.793C461.945 292.881 434.425 308.499 400.509 308.885Z" fill="#EFDCDC"/>
<path d="M461.945 219.419H438.495C427.835 214.792 414.269 212.092 399.734 212.285C385.974 212.478 373.376 215.177 363.105 219.419H338.298V246.413C338.298 246.798 338.298 247.184 338.298 247.57C338.491 266.658 366.399 281.89 400.509 281.505C434.425 281.119 461.751 265.501 461.945 246.413V219.419Z" fill="#BB96E6"/>
<path d="M400.509 262.417C366.399 262.803 338.491 247.57 338.298 228.482C338.298 228.096 338.298 227.711 338.298 227.325V236.387C338.298 236.773 338.298 237.159 338.298 237.544C338.491 256.633 366.399 271.865 400.509 271.479C434.425 271.093 461.751 255.476 461.945 236.387V227.325C461.945 246.414 434.425 262.031 400.509 262.417Z" fill="#EFDCDC"/>
<path d="M399.734 184.713C365.624 185.099 338.104 200.909 338.298 219.998C338.491 239.086 366.399 254.318 400.509 253.933C434.619 253.547 462.139 237.736 461.945 218.648C461.751 199.56 433.843 184.328 399.734 184.713Z" fill="#9F78D6"/>
<path d="M461.945 173.337H438.495C427.835 168.71 414.269 166.01 399.734 166.203C385.974 166.396 373.376 169.095 363.105 173.337H338.298V200.331C338.298 200.716 338.298 201.102 338.298 201.488C338.491 220.576 366.399 235.808 400.509 235.422C434.425 235.037 461.751 219.419 461.945 200.331V173.337Z" fill="#BB96E6"/>
<path d="M399.734 138.631C365.624 139.017 338.104 154.827 338.298 173.916C338.491 193.004 366.399 208.236 400.509 207.851C434.619 207.465 462.139 191.654 461.945 172.566C461.751 153.478 433.843 138.246 399.734 138.631Z" fill="#9F78D6"/>
<path d="M437.138 149.043H409.618C406.517 148.657 403.222 148.272 399.734 148.464C396.827 148.464 394.113 148.657 391.4 149.043H362.911V168.324H363.105C363.105 168.71 362.911 169.288 362.911 169.674C363.105 181.05 379.772 190.305 400.121 189.919C420.665 189.726 437.138 180.278 436.944 168.71C436.944 168.517 436.944 168.324 436.944 168.324V149.043H437.138Z" fill="url(#paint60_linear_643_1289)"/>
<path d="M399.927 128.605C379.384 128.797 362.911 138.245 363.105 149.814C363.298 161.19 379.966 170.445 400.315 170.059C420.858 169.866 437.332 160.419 437.138 148.85C437.138 137.474 420.277 128.412 399.927 128.605Z" fill="url(#paint61_linear_643_1289)"/>
<path d="M400.509 216.912C366.399 217.298 338.491 202.066 338.298 182.977C338.298 182.592 338.298 182.206 338.298 181.82V190.882C338.298 191.268 338.298 191.654 338.298 192.039C338.491 211.128 366.399 226.36 400.509 225.974C434.425 225.589 461.751 209.971 461.945 190.882V181.82C461.945 200.909 434.425 216.526 400.509 216.912Z" fill="#EFDCDC"/>
<path d="M344.887 291.145C344.887 288.831 343.53 285.939 341.592 284.975C340.817 284.589 340.042 284.589 339.654 284.782L328.995 290.952C320.855 295.579 314.266 307.727 314.266 318.331V326.622C314.266 328.165 316.398 329.321 319.111 329.321C321.824 329.321 323.956 327.972 323.956 326.429V318.138C323.956 311.004 328.414 302.135 333.646 299.243L343.53 293.651C344.499 293.266 344.887 292.494 344.887 291.145Z" fill="url(#paint62_linear_643_1289)"/>
<path d="M357.097 298.086C357.097 295.772 355.74 292.88 353.802 291.916C353.027 291.531 352.252 291.531 351.864 291.723L341.205 297.893C333.065 302.521 326.476 314.668 326.476 325.273V333.563C326.476 335.106 328.607 336.263 331.321 336.263C334.034 336.263 336.166 334.913 336.166 333.371V325.08C336.166 317.946 340.623 309.076 345.856 306.184L355.74 300.593C356.515 300.207 357.097 299.243 357.097 298.086Z" fill="url(#paint63_linear_643_1289)"/>
<path d="M369.113 305.028C369.113 302.714 367.756 299.822 365.818 298.858C365.043 298.472 364.267 298.472 363.88 298.665L353.221 304.835C345.081 309.462 338.491 321.609 338.491 332.214V340.505C338.491 342.047 340.817 343.204 343.337 343.204C346.05 343.204 348.182 341.855 348.182 340.312V332.021C348.182 324.887 352.639 316.018 357.872 313.126L367.756 307.534C368.725 307.148 369.113 306.377 369.113 305.028Z" fill="url(#paint64_linear_643_1289)"/>
<path d="M455.549 291.145C455.549 288.831 456.906 285.939 458.844 284.975C459.619 284.589 460.395 284.589 460.782 284.782L471.441 290.952C479.581 295.579 486.171 307.727 486.171 318.331V326.622C486.171 328.165 483.845 329.321 481.325 329.321C478.612 329.321 476.48 327.972 476.48 326.429V318.138C476.48 311.004 472.023 302.135 466.79 299.243L456.906 293.651C455.937 293.266 455.549 292.494 455.549 291.145Z" fill="url(#paint65_linear_643_1289)"/>
<path d="M443.534 298.086C443.534 295.772 444.89 292.88 446.828 291.916C447.603 291.531 448.379 291.531 448.766 291.723L459.426 297.893C467.565 302.521 474.155 314.668 474.155 325.273V333.563C474.155 335.106 472.023 336.263 469.31 336.263C466.596 336.263 464.464 334.913 464.464 333.371V325.08C464.464 317.946 460.007 309.076 454.774 306.184L444.89 300.593C443.921 300.207 443.534 299.243 443.534 298.086Z" fill="url(#paint66_linear_643_1289)"/>
<path d="M431.518 305.028C431.518 302.714 432.874 299.822 434.812 298.858C435.588 298.472 436.363 298.472 436.75 298.665L447.41 304.835C455.55 309.462 462.139 321.609 462.139 332.214V340.505C462.139 342.047 459.813 343.204 457.294 343.204C454.58 343.204 452.449 341.855 452.449 340.312V332.021C452.449 324.887 447.991 316.018 442.758 313.126L432.874 307.534C431.905 307.148 431.518 306.377 431.518 305.028Z" fill="url(#paint67_linear_643_1289)"/>
<path d="M400.121 134.39C387.136 134.39 376.671 140.367 376.671 147.501C376.671 154.828 387.136 160.612 400.121 160.612C413.106 160.612 423.572 154.635 423.572 147.501C423.572 140.174 413.106 134.39 400.121 134.39Z" fill="url(#paint68_linear_643_1289)"/>
<path opacity="0.5" d="M423.572 147.693V24.1006C423.572 31.4274 413.106 37.2118 400.121 37.2118C387.136 37.2118 376.671 31.2346 376.671 24.1006V147.693C376.671 155.02 387.136 160.804 400.121 160.804C413.106 160.997 423.572 155.02 423.572 147.693Z" fill="url(#paint69_linear_643_1289)"/>
<path opacity="0.8" d="M400.121 10.9902C387.136 10.9902 376.671 16.9674 376.671 24.1014C376.671 31.4283 387.136 37.2126 400.121 37.2126C413.106 37.2126 423.572 31.2355 423.572 24.1014C423.572 16.7746 413.106 10.9902 400.121 10.9902Z" fill="url(#paint70_linear_643_1289)"/>
<path d="M385.392 94.8632C384.423 94.8632 383.648 94.0919 383.648 93.1279V59.7714C383.648 58.8074 384.423 58.0361 385.392 58.0361C386.361 58.0361 387.136 58.8074 387.136 59.7714V92.9351C387.33 93.8991 386.361 94.8632 385.392 94.8632Z" fill="white"/>
<path d="M392.757 108.553C391.788 108.553 391.013 107.782 391.013 106.817V94.4775C391.013 93.5134 391.788 92.7422 392.757 92.7422C393.726 92.7422 394.501 93.5134 394.501 94.4775V106.817C394.695 107.782 393.726 108.553 392.757 108.553Z" fill="white"/>
<path d="M407.486 93.128C406.517 93.128 405.742 92.3567 405.742 91.3927V79.0527C405.742 78.0886 406.517 77.3174 407.486 77.3174C408.455 77.3174 409.23 78.0886 409.23 79.0527V91.3927C409.23 92.3567 408.455 93.128 407.486 93.128Z" fill="white"/>
<path d="M392.757 60.9287C391.788 60.9287 391.013 60.1574 391.013 59.1934V40.2978C391.013 39.3337 391.788 38.5625 392.757 38.5625C393.726 38.5625 394.501 39.3337 394.501 40.2978V59.1934C394.695 59.9646 393.726 60.9287 392.757 60.9287Z" fill="white"/>
<path d="M400.121 42.997C399.152 42.997 398.377 42.2258 398.377 41.2617V22.3662C398.377 21.4021 399.152 20.6309 400.121 20.6309C401.09 20.6309 401.866 21.4021 401.866 22.3662V41.2617C401.866 42.2258 401.09 42.997 400.121 42.997Z" fill="white"/>
<path d="M385.392 32.9707C384.423 32.9707 383.648 33.7419 383.648 34.706V42.8041C383.648 43.7682 384.423 44.5394 385.392 44.5394C386.361 44.5394 387.136 43.7682 387.136 42.8041V34.706C387.33 33.9348 386.361 32.9707 385.392 32.9707Z" fill="white"/>
<path d="M400.121 87.9219C399.152 87.9219 398.377 88.6931 398.377 89.6572V97.7553C398.377 98.7193 399.152 99.4906 400.121 99.4906C401.09 99.4906 401.866 98.7193 401.866 97.7553V89.6572C401.866 88.6931 401.09 87.9219 400.121 87.9219Z" fill="white"/>
<path d="M400.121 49.5527C399.152 49.5527 398.377 50.324 398.377 51.288V59.3861C398.377 60.3502 399.152 61.1214 400.121 61.1214C401.09 61.1214 401.866 60.3502 401.866 59.3861V51.288C401.866 50.324 401.09 49.5527 400.121 49.5527Z" fill="white"/>
<path d="M392.757 71.3408C391.788 71.3408 391.013 72.1121 391.013 73.0761V81.1742C391.013 82.1383 391.788 82.9095 392.757 82.9095C393.726 82.9095 394.501 82.1383 394.501 81.1742V73.2689C394.695 72.3049 393.726 71.3408 392.757 71.3408Z" fill="white"/>
<path d="M385.392 114.723C384.423 114.723 383.648 115.494 383.648 116.458V124.556C383.648 125.52 384.423 126.291 385.392 126.291C386.361 126.291 387.136 125.52 387.136 124.556V116.458C387.33 115.494 386.361 114.723 385.392 114.723Z" fill="white"/>
<path d="M414.851 87.9214C415.82 87.9214 416.595 87.1501 416.595 86.1861V53.0224C416.595 52.0584 415.82 51.2871 414.851 51.2871C413.881 51.2871 413.106 52.0584 413.106 53.0224V86.1861C412.912 87.1501 413.881 87.9214 414.851 87.9214Z" fill="white"/>
<path d="M414.851 34.7061C415.82 34.7061 416.595 35.4773 416.595 36.4414V44.5395C416.595 45.5035 415.82 46.2748 414.851 46.2748C413.881 46.2748 413.106 45.5035 413.106 44.5395V36.4414C412.912 35.4773 413.881 34.7061 414.851 34.7061Z" fill="white"/>
<path d="M400.121 75.7754C399.152 75.7754 398.377 76.5466 398.377 77.5107V81.9454C398.377 82.9094 399.152 83.6807 400.121 83.6807C401.09 83.6807 401.866 82.9094 401.866 81.9454V77.5107C401.866 76.5466 401.09 75.7754 400.121 75.7754Z" fill="white"/>
<path d="M414.85 121.086C413.881 121.086 413.106 121.857 413.106 122.821V127.256C413.106 128.22 413.881 128.991 414.85 128.991C415.819 128.991 416.595 128.22 416.595 127.256V122.821C416.595 121.857 415.819 121.086 414.85 121.086Z" fill="white"/>
<path d="M407.486 57.2646C406.517 57.2646 405.742 58.0359 405.742 59V63.4346C405.742 64.3987 406.517 65.1699 407.486 65.1699C408.455 65.1699 409.23 64.3987 409.23 63.4346V59C409.23 58.0359 408.455 57.2646 407.486 57.2646Z" fill="white"/>
<path d="M392.757 25.0654C391.788 25.0654 391.013 25.8367 391.013 26.8007V31.2354C391.013 32.1995 391.788 32.9707 392.757 32.9707C393.726 32.9707 394.501 32.1995 394.501 31.2354V26.8007C394.695 25.8367 393.726 25.0654 392.757 25.0654Z" fill="white"/>
<path d="M407.486 29.1143C406.517 29.1143 405.742 29.8855 405.742 30.8496V35.2842C405.742 36.2483 406.517 37.0195 407.486 37.0195C408.455 37.0195 409.23 36.2483 409.23 35.2842V30.8496C409.23 29.8855 408.455 29.1143 407.486 29.1143Z" fill="white"/>
<path d="M407.486 148.08C406.517 148.08 405.742 147.308 405.742 146.344V113.181C405.742 112.217 406.517 111.445 407.486 111.445C408.455 111.445 409.23 112.217 409.23 113.181V146.344C409.23 147.308 408.455 148.08 407.486 148.08Z" fill="white"/>
<path d="M400.121 154.249C399.152 154.249 398.377 153.478 398.377 152.514V133.618C398.377 132.654 399.152 131.883 400.121 131.883C401.09 131.883 401.866 132.654 401.866 133.618V152.514C401.866 153.478 401.09 154.249 400.121 154.249Z" fill="white"/>
<path d="M407.486 41.0684C406.517 41.0684 405.742 41.8396 405.742 42.8037V50.9018C405.742 51.8658 406.517 52.6371 407.486 52.6371C408.455 52.6371 409.23 51.8658 409.23 50.9018V42.8037C409.23 42.0324 408.455 41.0684 407.486 41.0684Z" fill="white"/>
<path d="M385.392 134.969C384.423 134.969 383.648 135.74 383.648 136.704V141.139C383.648 142.103 384.423 142.874 385.392 142.874C386.361 142.874 387.136 142.103 387.136 141.139V136.897C387.33 135.74 386.361 134.969 385.392 134.969Z" fill="white"/>
<path d="M414.657 134.969C413.688 134.969 412.912 135.74 412.912 136.704V141.139C412.912 142.103 413.688 142.874 414.657 142.874C415.626 142.874 416.401 142.103 416.401 141.139V136.897C416.401 135.74 415.626 134.969 414.657 134.969Z" fill="white"/>
<path d="M400.121 112.602C399.152 112.602 398.377 113.373 398.377 114.337V118.772C398.377 119.736 399.152 120.507 400.121 120.507C401.09 120.507 401.866 119.736 401.866 118.772V114.337C401.866 113.373 401.09 112.602 400.121 112.602Z" fill="white"/>
<path d="M385.392 102.383C384.423 102.383 383.648 103.154 383.648 104.118V108.553C383.648 109.517 384.423 110.288 385.392 110.288C386.361 110.288 387.136 109.517 387.136 108.553V104.118C387.33 103.154 386.361 102.383 385.392 102.383Z" fill="white"/>
<path d="M392.757 129.763C391.788 129.763 391.013 130.534 391.013 131.498V146.537C391.013 147.501 391.788 148.273 392.757 148.273C393.726 148.273 394.501 147.501 394.501 146.537V131.691C394.695 130.534 393.726 129.763 392.757 129.763Z" fill="white"/>
<path d="M414.85 91.3926C413.881 91.3926 413.106 92.1638 413.106 93.1279V107.974C413.106 108.938 413.881 109.71 414.85 109.71C415.819 109.71 416.595 108.938 416.595 107.974V93.1279C416.595 92.1638 415.819 91.3926 414.85 91.3926Z" fill="white"/>
<g opacity="0.5">
<path d="M399.152 128.22C365.043 128.22 337.329 112.409 337.135 92.7423C336.941 72.6899 364.849 56.1081 399.734 55.7225C416.401 55.5297 431.905 59.0003 443.921 65.3631C456.131 72.1115 463.108 81.1736 463.108 91.1998C463.302 111.252 435.394 127.834 400.509 128.22C400.121 128.22 399.734 128.22 399.152 128.22ZM399.734 60.35C367.756 60.7356 341.786 75.1965 341.98 92.5495C342.174 109.71 367.756 123.399 399.152 123.399C399.54 123.399 399.928 123.399 400.509 123.399C432.487 123.014 458.457 108.553 458.263 91.1998C458.263 83.1017 452.255 75.3893 441.402 69.4121C430.355 63.4349 415.432 60.1571 399.734 60.35Z" fill="url(#paint71_linear_643_1289)"/>
</g>
<g opacity="0.5">
<path d="M399.152 99.876C365.043 99.876 337.329 84.0654 337.135 64.3986C336.941 44.3462 364.849 27.7643 399.734 27.3787C416.401 27.1859 431.905 30.6565 443.921 37.0193C456.131 43.7677 463.108 52.8299 463.108 62.8561C463.302 82.9085 435.394 99.4903 400.509 99.876C400.121 99.876 399.734 99.876 399.152 99.876ZM399.734 32.199C367.756 32.5846 341.786 47.0455 341.98 64.3986C342.174 81.5588 367.756 95.2485 399.152 95.2485C399.54 95.2485 399.928 95.2485 400.509 95.2485C432.487 94.8629 458.457 80.402 458.263 63.0489C458.263 54.9508 452.255 47.2383 441.402 41.2612C430.355 35.0912 415.432 32.0062 399.734 32.199Z" fill="url(#paint72_linear_643_1289)"/>
</g>
<g opacity="0.5">
<path d="M399.152 72.4971C365.043 72.4971 337.329 56.6865 337.135 37.0197C336.941 16.9673 364.849 0.385436 399.734 -0.000187392C416.401 -0.192999 431.905 3.27761 443.921 9.6404C456.131 16.3888 463.108 25.451 463.108 35.4772C463.302 55.5296 435.394 72.1114 400.509 72.4971C400.121 72.4971 399.734 72.4971 399.152 72.4971ZM399.734 4.82011C367.756 5.20573 341.786 19.6666 341.98 37.0197C342.174 54.1799 367.756 67.8696 399.152 67.8696C399.54 67.8696 399.928 67.8696 400.509 67.8696C432.487 67.484 458.457 53.0231 458.263 35.67C458.263 27.5719 452.255 19.8594 441.402 13.8823C430.355 7.9051 415.432 4.6273 399.734 4.82011Z" fill="url(#paint73_linear_643_1289)"/>
</g>
<path d="M313.297 149.43C312.522 146.152 311.165 136.704 309.421 132.655C305.545 123.593 299.343 125.714 299.343 125.714L300.893 129.956C300.893 129.956 303.025 141.717 307.095 151.743C308.646 153.671 307.289 158.106 308.839 158.877C311.94 160.613 320.855 158.684 322.987 157.72C322.793 156.949 325.313 152.322 324.15 150.779C322.987 150.008 316.204 149.815 313.297 149.43Z" fill="#33211F"/>
<path d="M316.591 247.763C314.266 245.449 312.328 243.521 312.328 243.521L301.281 243.136V246.799C301.281 246.799 301.669 248.342 303.413 249.306C305.157 250.463 308.452 252.198 310.39 252.969C312.909 253.933 317.56 254.897 319.692 254.897C322.018 254.897 322.987 253.933 321.824 252.776C319.499 250.655 318.723 250.077 316.591 247.763Z" fill="#472E2E"/>
<path d="M287.133 255.862L277.249 254.705C277.249 254.705 275.893 261.068 278.218 267.431C280.544 273.986 284.614 273.986 285.97 273.408C287.327 272.829 288.102 268.78 287.715 264.153C287.521 259.718 287.133 255.862 287.133 255.862Z" fill="#472E2E"/>
<path d="M305.738 166.782C305.738 166.782 284.807 160.419 285.389 165.047C285.389 165.047 278.024 171.988 278.8 185.292C279.187 191.462 278.606 208.237 278.218 218.649C272.016 232.531 273.567 252.969 273.567 252.969C273.567 252.969 272.598 255.668 277.443 257.982C282.288 260.296 289.265 257.789 289.265 257.789C289.265 257.789 288.102 234.073 291.784 221.541C294.11 213.25 294.11 192.619 294.11 192.619L299.73 213.25L300.118 243.328C300.118 243.328 303.607 246.606 307.676 246.606C313.103 246.606 314.653 242.75 314.653 242.75C314.653 242.75 314.266 217.877 312.134 203.416C310.196 191.076 305.738 166.782 305.738 166.782Z" fill="#33211F"/>
<path d="M309.808 141.524C309.033 133.426 301.669 127.449 301.669 127.449C294.885 124.749 288.49 129.762 288.49 129.762C288.49 129.762 279.381 134.197 278.8 138.246C278.412 140.56 284.032 155.792 281.513 164.661C277.249 179.508 278.606 188.184 278.606 188.184C278.606 188.184 288.49 192.812 295.273 192.812C297.986 192.812 300.506 192.426 302.638 191.655C302.638 188.184 303.025 181.821 303.025 181.821C303.025 181.821 304.382 187.413 304.382 191.076C308.452 189.148 310.971 187.413 310.971 187.413C310.971 187.413 309.033 173.338 309.033 168.325C309.033 159.263 310.196 145.573 309.808 141.524Z" fill="#472E2E"/>
<path d="M305.351 139.596L307.483 137.475C307.483 137.475 307.095 135.933 305.351 133.619C302.638 129.763 298.568 126.678 298.568 126.678L289.653 127.449C289.653 127.449 285.583 128.22 284.42 132.655C283.838 134.969 289.846 142.488 289.846 142.488L294.11 143.838L291.397 147.887C291.397 147.887 296.63 154.635 297.986 157.142C299.343 159.649 302.638 169.482 302.638 169.482C302.638 169.482 305.351 160.034 307.676 156.178C310.002 152.322 308.258 141.139 308.258 141.139L305.351 139.596Z" fill="#33211F"/>
<path d="M302.444 134.582C299.343 133.425 289.653 135.161 289.653 135.161C289.653 135.161 294.304 139.981 297.986 145.187C301.087 149.429 302.637 164.661 302.637 164.661C302.637 164.661 306.126 149.043 305.157 144.416C304.188 139.788 302.444 134.582 302.444 134.582Z" fill="#EFDCDC"/>
<path d="M301.281 139.596L300.699 135.547L298.761 134.775L296.436 137.475L298.955 140.367C298.955 140.367 299.149 144.223 299.73 146.151C299.924 146.537 299.924 147.887 300.118 149.622C301.087 153.478 302.056 159.648 302.056 159.648L302.638 164.468L303.994 157.334C303.994 157.334 304.576 147.308 303.994 144.416C303.607 141.909 301.281 139.596 301.281 139.596Z" fill="#DB4574"/>
<path d="M290.815 121.278L289.071 131.112C289.071 131.112 294.304 135.932 296.63 136.703C298.761 134.968 299.537 133.618 299.537 133.618L299.149 127.255L290.815 121.278Z" fill="#FCB9B4"/>
<path d="M289.846 110.481C287.908 112.795 287.327 118.772 290.04 122.821C292.366 126.484 297.405 128.605 299.73 128.991C303.8 129.569 308.258 118.386 303.607 111.445C298.955 104.889 292.172 107.396 289.846 110.481Z" fill="#FFD0CA"/>
<path d="M299.343 129.763L298.761 134.969L303.025 136.704C303.025 136.511 303.413 131.112 299.343 129.763Z" fill="white"/>
<path d="M289.459 128.991C286.552 131.691 289.846 135.547 289.846 135.547C292.366 137.475 297.211 139.403 297.211 139.403L298.761 134.776C298.761 134.776 295.273 133.812 293.722 133.04C290.622 131.498 289.459 128.991 289.459 128.991Z" fill="white"/>
<path d="M281.9 179.894C281.707 182.979 283.645 185.485 283.645 185.485C283.645 185.485 282.288 185.871 281.513 186.449C280.738 187.028 280.738 187.992 282.288 187.799C283.839 187.606 286.746 187.22 287.908 183.364C289.071 179.508 286.358 176.809 286.358 176.809C286.358 176.809 282.094 177.965 281.9 179.894Z" fill="#FFD0CA"/>
<path d="M267.947 162.54C268.722 156.177 270.272 151.743 272.404 146.151C275.117 138.631 277.443 134.582 281.513 134.775C283.257 136.125 284.614 142.295 283.257 148.272C282.482 151.357 279.769 159.648 278.8 162.347C279.769 164.083 281.125 166.589 282.288 168.132C284.226 170.831 288.102 176.037 288.102 176.037C288.102 176.037 288.102 178.158 286.164 180.279C284.032 182.785 281.319 182.4 281.319 182.4C281.319 182.4 272.404 173.723 270.272 169.481C268.528 167.553 267.559 164.468 267.947 162.54Z" fill="#33211F"/>
<path d="M302.056 107.203C300.312 106.046 297.792 105.275 294.304 105.661C288.877 106.239 286.552 112.216 286.552 115.109C286.552 119.929 289.846 122.628 289.846 122.628C289.846 122.628 289.653 119.736 290.622 118.965C291.397 118.386 292.172 118.579 292.56 120.315C292.947 120.507 296.63 118.579 297.405 114.916H297.599C301.669 116.458 307.676 114.916 307.676 114.916C307.676 114.916 306.707 113.181 305.545 110.867C304.382 108.939 302.444 107.589 302.056 107.203Z" fill="#33211F"/>
<path d="M335.584 137.09C335.391 136.897 335.003 136.897 334.615 137.282L324.344 143.26C323.181 143.838 321.63 144.995 321.049 146.152L310.002 165.24C309.615 165.819 309.615 166.397 309.808 166.59L310.971 167.168L311.553 166.011L321.243 160.42C322.406 159.841 323.956 158.684 324.537 157.528L335.584 138.439C335.584 138.439 335.584 138.439 335.584 138.246L335.778 138.439L336.553 137.668L335.584 137.09Z" fill="#9F78D6"/>
<path d="M335.584 137.861L325.313 143.838C324.15 144.416 322.599 145.573 322.018 146.73L310.971 165.818C310.39 166.975 310.777 167.554 311.94 166.975L322.212 160.998C323.375 160.42 324.925 159.263 325.506 158.106L336.553 139.018C337.135 137.861 336.747 137.282 335.584 137.861Z" fill="#BB96E6"/>
<path d="M330.352 149.429C328.22 149.043 325.313 152.514 325.894 154.635C326.282 156.756 329.576 155.792 330.545 153.671C331.514 151.357 332.29 149.815 330.352 149.429Z" fill="#FFD0CA"/>
<path d="M347.6 374.055H286.164V382.346C286.164 382.731 286.164 383.117 286.164 383.502C286.358 392.95 300.118 400.663 317.173 400.277C334.228 400.084 347.794 392.179 347.794 382.731C347.794 382.538 347.794 382.538 347.794 382.346V374.055H347.6Z" fill="url(#paint74_linear_643_1289)"/>
<path d="M316.591 357.088C299.537 357.28 285.97 365.186 285.97 374.633C286.164 384.081 299.924 391.794 316.979 391.408C334.034 391.215 347.6 383.31 347.6 373.862C347.6 364.607 333.646 356.895 316.591 357.088Z" fill="url(#paint75_linear_643_1289)"/>
<path d="M316.785 362.293C304.963 362.486 295.467 367.885 295.467 374.633C295.467 381.189 305.157 386.587 316.979 386.394C328.801 386.202 338.298 380.803 338.298 374.055C338.298 367.499 328.607 362.293 316.785 362.293Z" fill="url(#paint76_linear_643_1289)"/>
<path d="M404.966 406.64H343.53V414.931C343.53 415.316 343.53 415.702 343.53 416.087C343.724 425.535 357.484 433.248 374.539 432.862C391.594 432.669 405.16 424.764 405.16 415.316C405.16 415.123 405.16 415.123 405.16 414.931V406.64H404.966Z" fill="url(#paint77_linear_643_1289)"/>
<path d="M373.958 389.673C356.903 389.865 343.336 397.771 343.336 407.218C343.53 416.666 357.29 424.379 374.345 423.993C391.4 423.8 404.966 415.895 404.966 406.447C404.773 396.999 391.012 389.48 373.958 389.673Z" fill="url(#paint78_linear_643_1289)"/>
<path d="M373.958 394.879C362.135 395.072 352.639 400.471 352.639 407.219C352.639 413.775 362.329 419.173 374.151 418.981C385.973 418.788 395.47 413.389 395.47 406.641C395.47 400.085 385.78 394.686 373.958 394.879Z" fill="url(#paint79_linear_643_1289)"/>
</g>
<defs>
<linearGradient id="paint0_linear_643_1289" x1="84.7818" y1="323.491" x2="257.569" y2="323.491" gradientUnits="userSpaceOnUse">
<stop stop-color="#1C67A6"/>
<stop offset="0.9619" stop-color="#1C67A6"/>
</linearGradient>
<linearGradient id="paint1_linear_643_1289" x1="54.2627" y1="301.527" x2="92.4901" y2="301.527" gradientUnits="userSpaceOnUse">
<stop stop-color="#1C67A6"/>
<stop offset="0.9619" stop-color="#1C67A6"/>
</linearGradient>
<linearGradient id="paint2_linear_643_1289" x1="282.633" y1="383.914" x2="351.133" y2="383.914" gradientUnits="userSpaceOnUse">
<stop stop-color="#1C67A6"/>
<stop offset="0.9619" stop-color="#1C67A6"/>
</linearGradient>
<linearGradient id="paint3_linear_643_1289" x1="339.881" y1="416.936" x2="408.382" y2="416.936" gradientUnits="userSpaceOnUse">
<stop stop-color="#1C67A6"/>
<stop offset="0.9619" stop-color="#1C67A6"/>
</linearGradient>
<linearGradient id="paint4_linear_643_1289" x1="204.317" y1="374.024" x2="265.309" y2="374.024" gradientUnits="userSpaceOnUse">
<stop stop-color="#1C67A6"/>
<stop offset="0.9619" stop-color="#1C67A6"/>
</linearGradient>
<linearGradient id="paint5_linear_643_1289" x1="266.874" y1="259.952" x2="330.403" y2="259.952" gradientUnits="userSpaceOnUse">
<stop stop-color="#1C67A6"/>
<stop offset="0.9619" stop-color="#1C67A6"/>
</linearGradient>
<linearGradient id="paint6_linear_643_1289" x1="339.792" y1="305.855" x2="461.183" y2="305.855" gradientUnits="userSpaceOnUse">
<stop stop-color="#1C67A6"/>
<stop offset="0.9619" stop-color="#1C67A6"/>
</linearGradient>
<linearGradient id="paint7_linear_643_1289" x1="17.6678" y1="327.034" x2="294.06" y2="327.034" gradientUnits="userSpaceOnUse">
<stop stop-color="#1C67A6"/>
<stop offset="0.9619" stop-color="#1C67A6"/>
</linearGradient>
<linearGradient id="paint8_linear_643_1289" x1="281.066" y1="221.238" x2="290.871" y2="221.238" gradientUnits="userSpaceOnUse">
<stop stop-color="#1C67A6"/>
<stop offset="0.9619" stop-color="#1C67A6"/>
</linearGradient>
<linearGradient id="paint9_linear_643_1289" x1="20.8575" y1="432.831" x2="30.6624" y2="432.831" gradientUnits="userSpaceOnUse">
<stop stop-color="#1C67A6"/>
<stop offset="0.9619" stop-color="#1C67A6"/>
</linearGradient>
<linearGradient id="paint10_linear_643_1289" x1="47.5877" y1="339.792" x2="354.586" y2="339.792" gradientUnits="userSpaceOnUse">
<stop stop-color="#283376"/>
<stop offset="0.6767" stop-color="#283577"/>
</linearGradient>
<linearGradient id="paint11_linear_643_1289" x1="50.7772" y1="422.372" x2="60.5822" y2="422.372" gradientUnits="userSpaceOnUse">
<stop stop-color="#283376"/>
<stop offset="0.6767" stop-color="#283577"/>
</linearGradient>
<linearGradient id="paint12_linear_643_1289" x1="0.495972" y1="295.373" x2="277.876" y2="295.373" gradientUnits="userSpaceOnUse">
<stop stop-color="#283376"/>
<stop offset="0.6767" stop-color="#283577"/>
</linearGradient>
<linearGradient id="paint13_linear_643_1289" x1="3.68541" y1="355.261" x2="13.4902" y2="355.261" gradientUnits="userSpaceOnUse">
<stop stop-color="#283376"/>
<stop offset="0.6767" stop-color="#283577"/>
</linearGradient>
<linearGradient id="paint14_linear_643_1289" x1="264.882" y1="235.485" x2="274.687" y2="235.485" gradientUnits="userSpaceOnUse">
<stop stop-color="#283376"/>
<stop offset="0.6767" stop-color="#283577"/>
</linearGradient>
<linearGradient id="paint15_linear_643_1289" x1="77.3145" y1="359.254" x2="357.008" y2="359.254" gradientUnits="userSpaceOnUse">
<stop stop-color="#1C67A6"/>
<stop offset="0.9619" stop-color="#1C67A6"/>
</linearGradient>
<linearGradient id="paint16_linear_643_1289" x1="80.5042" y1="428.3" x2="90.309" y2="428.3" gradientUnits="userSpaceOnUse">
<stop stop-color="#1C67A6"/>
<stop offset="0.9619" stop-color="#1C67A6"/>
</linearGradient>
<linearGradient id="paint17_linear_643_1289" x1="15.3905" y1="382.45" x2="63.8768" y2="382.45" gradientUnits="userSpaceOnUse">
<stop stop-color="#1C67A6"/>
<stop offset="0.9619" stop-color="#1C67A6"/>
</linearGradient>
<linearGradient id="paint18_linear_643_1289" x1="18.5804" y1="391.919" x2="28.3849" y2="391.919" gradientUnits="userSpaceOnUse">
<stop stop-color="#1C67A6"/>
<stop offset="0.9619" stop-color="#1C67A6"/>
</linearGradient>
<linearGradient id="paint19_linear_643_1289" x1="24.8445" y1="275.961" x2="135.461" y2="275.961" gradientUnits="userSpaceOnUse">
<stop stop-color="#283376"/>
<stop offset="0.6767" stop-color="#283577"/>
</linearGradient>
<linearGradient id="paint20_linear_643_1289" x1="28.0339" y1="253.462" x2="37.8388" y2="253.462" gradientUnits="userSpaceOnUse">
<stop stop-color="#283376"/>
<stop offset="0.6767" stop-color="#283577"/>
</linearGradient>
<linearGradient id="paint21_linear_643_1289" x1="159.948" y1="352.516" x2="437.329" y2="352.516" gradientUnits="userSpaceOnUse">
<stop stop-color="#283376"/>
<stop offset="0.6767" stop-color="#283577"/>
</linearGradient>
<linearGradient id="paint22_linear_643_1289" x1="163.138" y1="412.405" x2="172.943" y2="412.405" gradientUnits="userSpaceOnUse">
<stop stop-color="#283376"/>
<stop offset="0.6767" stop-color="#283577"/>
</linearGradient>
<linearGradient id="paint23_linear_643_1289" x1="424.334" y1="292.628" x2="434.139" y2="292.628" gradientUnits="userSpaceOnUse">
<stop stop-color="#283376"/>
<stop offset="0.6767" stop-color="#283577"/>
</linearGradient>
<linearGradient id="paint24_linear_643_1289" x1="13.5119" y1="308.259" x2="261.172" y2="308.259" gradientUnits="userSpaceOnUse">
<stop stop-color="#1C67A6"/>
<stop offset="0.9619" stop-color="#1C67A6"/>
</linearGradient>
<linearGradient id="paint25_linear_643_1289" x1="248.178" y1="379.175" x2="257.983" y2="379.175" gradientUnits="userSpaceOnUse">
<stop stop-color="#1C67A6"/>
<stop offset="0.9619" stop-color="#1C67A6"/>
</linearGradient>
<linearGradient id="paint26_linear_643_1289" x1="248.178" y1="379.175" x2="257.983" y2="379.175" gradientUnits="userSpaceOnUse">
<stop stop-color="#1C67A6"/>
<stop offset="0.9619" stop-color="#1C67A6"/>
</linearGradient>
<linearGradient id="paint27_linear_643_1289" x1="16.7013" y1="237.344" x2="26.5063" y2="237.344" gradientUnits="userSpaceOnUse">
<stop stop-color="#1C67A6"/>
<stop offset="0.9619" stop-color="#1C67A6"/>
</linearGradient>
<linearGradient id="paint28_linear_643_1289" x1="149.042" y1="375.797" x2="421.527" y2="375.797" gradientUnits="userSpaceOnUse">
<stop stop-color="#283376"/>
<stop offset="0.6767" stop-color="#283577"/>
</linearGradient>
<linearGradient id="paint29_linear_643_1289" x1="152.232" y1="300.126" x2="162.037" y2="300.126" gradientUnits="userSpaceOnUse">
<stop stop-color="#283376"/>
<stop offset="0.6767" stop-color="#283577"/>
</linearGradient>
<linearGradient id="paint30_linear_643_1289" x1="408.533" y1="451.467" x2="418.338" y2="451.467" gradientUnits="userSpaceOnUse">
<stop stop-color="#283376"/>
<stop offset="0.6767" stop-color="#283577"/>
</linearGradient>
<linearGradient id="paint31_linear_643_1289" x1="192.64" y1="355.261" x2="470.02" y2="355.261" gradientUnits="userSpaceOnUse">
<stop stop-color="#283376"/>
<stop offset="0.6767" stop-color="#283577"/>
</linearGradient>
<linearGradient id="paint32_linear_643_1289" x1="457.026" y1="415.149" x2="466.831" y2="415.149" gradientUnits="userSpaceOnUse">
<stop stop-color="#283376"/>
<stop offset="0.6767" stop-color="#283577"/>
</linearGradient>
<linearGradient id="paint33_linear_643_1289" x1="195.83" y1="295.372" x2="205.635" y2="295.372" gradientUnits="userSpaceOnUse">
<stop stop-color="#283376"/>
<stop offset="0.6767" stop-color="#283577"/>
</linearGradient>
<linearGradient id="paint34_linear_643_1289" x1="124.348" y1="374.024" x2="372.008" y2="374.024" gradientUnits="userSpaceOnUse">
<stop stop-color="#1C67A6"/>
<stop offset="0.9619" stop-color="#1C67A6"/>
</linearGradient>
<linearGradient id="paint35_linear_643_1289" x1="359.014" y1="444.939" x2="368.818" y2="444.939" gradientUnits="userSpaceOnUse">
<stop stop-color="#1C67A6"/>
<stop offset="0.9619" stop-color="#1C67A6"/>
</linearGradient>
<linearGradient id="paint36_linear_643_1289" x1="127.537" y1="303.11" x2="137.342" y2="303.11" gradientUnits="userSpaceOnUse">
<stop stop-color="#1C67A6"/>
<stop offset="0.9619" stop-color="#1C67A6"/>
</linearGradient>
<linearGradient id="paint37_linear_643_1289" x1="384.29" y1="392.567" x2="432.776" y2="392.567" gradientUnits="userSpaceOnUse">
<stop stop-color="#1C67A6"/>
<stop offset="0.9619" stop-color="#1C67A6"/>
</linearGradient>
<linearGradient id="paint38_linear_643_1289" x1="419.782" y1="402.035" x2="429.586" y2="402.035" gradientUnits="userSpaceOnUse">
<stop stop-color="#1C67A6"/>
<stop offset="0.9619" stop-color="#1C67A6"/>
</linearGradient>
<linearGradient id="paint39_linear_643_1289" x1="259.737" y1="309.207" x2="308.224" y2="309.207" gradientUnits="userSpaceOnUse">
<stop stop-color="#283376"/>
<stop offset="0.6767" stop-color="#283577"/>
</linearGradient>
<linearGradient id="paint40_linear_643_1289" x1="262.927" y1="318.677" x2="272.732" y2="318.677" gradientUnits="userSpaceOnUse">
<stop stop-color="#283376"/>
<stop offset="0.6767" stop-color="#283577"/>
</linearGradient>
<linearGradient id="paint41_linear_643_1289" x1="244.169" y1="364.163" x2="441.466" y2="364.163" gradientUnits="userSpaceOnUse">
<stop stop-color="#1C67A6"/>
<stop offset="0.9619" stop-color="#1C67A6"/>
</linearGradient>
<linearGradient id="paint42_linear_643_1289" x1="246.929" y1="416.982" x2="256.734" y2="416.982" gradientUnits="userSpaceOnUse">
<stop stop-color="#1C67A6"/>
<stop offset="0.9619" stop-color="#1C67A6"/>
</linearGradient>
<linearGradient id="paint43_linear_643_1289" x1="171.175" y1="336.161" x2="247.53" y2="336.161" gradientUnits="userSpaceOnUse">
<stop stop-color="#283376"/>
<stop offset="0.6767" stop-color="#283577"/>
</linearGradient>
<linearGradient id="paint44_linear_643_1289" x1="94.821" y1="336.161" x2="171.175" y2="336.161" gradientUnits="userSpaceOnUse">
<stop stop-color="#283376"/>
<stop offset="0.6767" stop-color="#283577"/>
</linearGradient>
<linearGradient id="paint45_linear_643_1289" x1="94.821" y1="303.839" x2="247.53" y2="303.839" gradientUnits="userSpaceOnUse">
<stop stop-color="#1C67A6"/>
<stop offset="0.9619" stop-color="#1C67A6"/>
</linearGradient>
<linearGradient id="paint46_linear_643_1289" x1="171.175" y1="305.983" x2="247.53" y2="305.983" gradientUnits="userSpaceOnUse">
<stop stop-color="#283376"/>
<stop offset="0.6767" stop-color="#283577"/>
</linearGradient>
<linearGradient id="paint47_linear_643_1289" x1="94.821" y1="305.983" x2="171.175" y2="305.983" gradientUnits="userSpaceOnUse">
<stop stop-color="#283376"/>
<stop offset="0.6767" stop-color="#283577"/>
</linearGradient>
<linearGradient id="paint48_linear_643_1289" x1="94.821" y1="273.66" x2="247.53" y2="273.66" gradientUnits="userSpaceOnUse">
<stop stop-color="#1C67A6"/>
<stop offset="0.9619" stop-color="#1C67A6"/>
</linearGradient>
<linearGradient id="paint49_linear_643_1289" x1="171.175" y1="275.967" x2="247.53" y2="275.967" gradientUnits="userSpaceOnUse">
<stop stop-color="#283376"/>
<stop offset="0.6767" stop-color="#283577"/>
</linearGradient>
<linearGradient id="paint50_linear_643_1289" x1="94.821" y1="275.967" x2="171.175" y2="275.967" gradientUnits="userSpaceOnUse">
<stop stop-color="#283376"/>
<stop offset="0.6767" stop-color="#283577"/>
</linearGradient>
<linearGradient id="paint51_linear_643_1289" x1="94.821" y1="243.645" x2="247.53" y2="243.645" gradientUnits="userSpaceOnUse">
<stop stop-color="#1C67A6"/>
<stop offset="0.9619" stop-color="#1C67A6"/>
</linearGradient>
<linearGradient id="paint52_linear_643_1289" x1="131.432" y1="148.53" x2="210.641" y2="148.53" gradientUnits="userSpaceOnUse">
<stop stop-color="#283376"/>
<stop offset="0.6767" stop-color="#283577"/>
</linearGradient>
<linearGradient id="paint53_linear_643_1289" x1="131.432" y1="33.4624" x2="210.641" y2="33.4624" gradientUnits="userSpaceOnUse">
<stop stop-color="#283376"/>
<stop offset="0.6767" stop-color="#283577"/>
</linearGradient>
<linearGradient id="paint54_linear_643_1289" x1="416.451" y1="244.736" x2="449.622" y2="244.736" gradientUnits="userSpaceOnUse">
<stop stop-color="#283376"/>
<stop offset="0.6767" stop-color="#283577"/>
</linearGradient>
<linearGradient id="paint55_linear_643_1289" x1="428.815" y1="251.548" x2="461.987" y2="251.548" gradientUnits="userSpaceOnUse">
<stop stop-color="#283376"/>
<stop offset="0.6767" stop-color="#283577"/>
</linearGradient>
<linearGradient id="paint56_linear_643_1289" x1="440.923" y1="258.441" x2="474.095" y2="258.441" gradientUnits="userSpaceOnUse">
<stop stop-color="#283376"/>
<stop offset="0.6767" stop-color="#283577"/>
</linearGradient>
<linearGradient id="paint57_linear_643_1289" x1="350.942" y1="244.736" x2="384.113" y2="244.736" gradientUnits="userSpaceOnUse">
<stop stop-color="#283376"/>
<stop offset="0.6767" stop-color="#283577"/>
</linearGradient>
<linearGradient id="paint58_linear_643_1289" x1="338.577" y1="251.548" x2="371.749" y2="251.548" gradientUnits="userSpaceOnUse">
<stop stop-color="#283376"/>
<stop offset="0.6767" stop-color="#283577"/>
</linearGradient>
<linearGradient id="paint59_linear_643_1289" x1="326.469" y1="258.441" x2="359.64" y2="258.441" gradientUnits="userSpaceOnUse">
<stop stop-color="#283376"/>
<stop offset="0.6767" stop-color="#283577"/>
</linearGradient>
<linearGradient id="paint60_linear_643_1289" x1="363.069" y1="169.115" x2="437.186" y2="169.115" gradientUnits="userSpaceOnUse">
<stop stop-color="#283376"/>
<stop offset="0.6767" stop-color="#283577"/>
</linearGradient>
<linearGradient id="paint61_linear_643_1289" x1="363.069" y1="149.442" x2="437.186" y2="149.442" gradientUnits="userSpaceOnUse">
<stop stop-color="#1C67A6"/>
<stop offset="0.9619" stop-color="#1C67A6"/>
</linearGradient>
<linearGradient id="paint62_linear_643_1289" x1="314.434" y1="307.008" x2="344.973" y2="307.008" gradientUnits="userSpaceOnUse">
<stop stop-color="#283376"/>
<stop offset="0.6767" stop-color="#283577"/>
</linearGradient>
<linearGradient id="paint63_linear_643_1289" x1="326.469" y1="313.898" x2="357.008" y2="313.898" gradientUnits="userSpaceOnUse">
<stop stop-color="#283376"/>
<stop offset="0.6767" stop-color="#283577"/>
</linearGradient>
<linearGradient id="paint64_linear_643_1289" x1="338.504" y1="320.913" x2="369.044" y2="320.913" gradientUnits="userSpaceOnUse">
<stop stop-color="#283376"/>
<stop offset="0.6767" stop-color="#283577"/>
</linearGradient>
<linearGradient id="paint65_linear_643_1289" x1="455.591" y1="307.008" x2="486.13" y2="307.008" gradientUnits="userSpaceOnUse">
<stop stop-color="#283376"/>
<stop offset="0.6767" stop-color="#283577"/>
</linearGradient>
<linearGradient id="paint66_linear_643_1289" x1="443.556" y1="313.898" x2="474.095" y2="313.898" gradientUnits="userSpaceOnUse">
<stop stop-color="#283376"/>
<stop offset="0.6767" stop-color="#283577"/>
</linearGradient>
<linearGradient id="paint67_linear_643_1289" x1="431.52" y1="320.913" x2="462.06" y2="320.913" gradientUnits="userSpaceOnUse">
<stop stop-color="#283376"/>
<stop offset="0.6767" stop-color="#283577"/>
</linearGradient>
<linearGradient id="paint68_linear_643_1289" x1="376.538" y1="147.515" x2="423.612" y2="147.515" gradientUnits="userSpaceOnUse">
<stop stop-color="#283376"/>
<stop offset="0.6767" stop-color="#283577"/>
</linearGradient>
<linearGradient id="paint69_linear_643_1289" x1="376.538" y1="92.5212" x2="423.612" y2="92.5212" gradientUnits="userSpaceOnUse">
<stop stop-color="#283376"/>
<stop offset="0.6767" stop-color="#283577"/>
</linearGradient>
<linearGradient id="paint70_linear_643_1289" x1="376.538" y1="24.1377" x2="423.612" y2="24.1377" gradientUnits="userSpaceOnUse">
<stop stop-color="#283376"/>
<stop offset="0.6767" stop-color="#283577"/>
</linearGradient>
<linearGradient id="paint71_linear_643_1289" x1="400.075" y1="128.212" x2="400.075" y2="55.6286" gradientUnits="userSpaceOnUse">
<stop stop-color="#283376"/>
<stop offset="0.6767" stop-color="#283577"/>
</linearGradient>
<linearGradient id="paint72_linear_643_1289" x1="400.075" y1="99.9161" x2="400.075" y2="27.3328" gradientUnits="userSpaceOnUse">
<stop stop-color="#283376"/>
<stop offset="0.6767" stop-color="#283577"/>
</linearGradient>
<linearGradient id="paint73_linear_643_1289" x1="400.075" y1="72.5831" x2="400.075" y2="-0.000189562" gradientUnits="userSpaceOnUse">
<stop stop-color="#283376"/>
<stop offset="0.6767" stop-color="#283577"/>
</linearGradient>
<linearGradient id="paint74_linear_643_1289" x1="286.117" y1="387.155" x2="347.648" y2="387.155" gradientUnits="userSpaceOnUse">
<stop stop-color="#283376"/>
<stop offset="0.6767" stop-color="#283577"/>
</linearGradient>
<linearGradient id="paint75_linear_643_1289" x1="286.117" y1="374.384" x2="347.648" y2="374.384" gradientUnits="userSpaceOnUse">
<stop stop-color="#1C67A6"/>
<stop offset="0.9619" stop-color="#1C67A6"/>
</linearGradient>
<linearGradient id="paint76_linear_643_1289" x1="295.418" y1="374.384" x2="338.348" y2="374.384" gradientUnits="userSpaceOnUse">
<stop stop-color="#283376"/>
<stop offset="0.6767" stop-color="#283577"/>
</linearGradient>
<linearGradient id="paint77_linear_643_1289" x1="343.366" y1="419.698" x2="404.897" y2="419.698" gradientUnits="userSpaceOnUse">
<stop stop-color="#283376"/>
<stop offset="0.6767" stop-color="#283577"/>
</linearGradient>
<linearGradient id="paint78_linear_643_1289" x1="343.366" y1="406.928" x2="404.897" y2="406.928" gradientUnits="userSpaceOnUse">
<stop stop-color="#1C67A6"/>
<stop offset="0.9619" stop-color="#1C67A6"/>
</linearGradient>
<linearGradient id="paint79_linear_643_1289" x1="352.667" y1="406.928" x2="395.596" y2="406.928" gradientUnits="userSpaceOnUse">
<stop stop-color="#283376"/>
<stop offset="0.6767" stop-color="#283577"/>
</linearGradient>
<clipPath id="clip0_643_1289">
<rect width="485.675" height="456" fill="white" transform="translate(0.495972)"/>
</clipPath>
</defs>
</svg>
