<svg width="76" height="82" viewBox="0 0 76 82" fill="none" xmlns="http://www.w3.org/2000/svg">
<g clip-path="url(#clip0_5373_19677)">
<path d="M38.0871 34.7545C41.7207 34.7545 44.6937 37.79 44.6937 41.5C44.6937 45.2101 41.7207 48.2456 38.0871 48.2456C34.4534 48.2456 31.4805 45.2101 31.4805 41.5C31.4805 37.79 34.4534 34.7545 38.0871 34.7545Z" fill="#343434"/>
<path d="M11 34.2485C11 34.2485 11 34.4172 11 34.5858C11 35.2604 11.4955 35.9349 12.3213 35.9349H23.5526C24.048 35.9349 24.5435 35.5976 24.7087 35.0917C27.021 29.8639 32.1411 26.3225 37.9219 26.3225C46.015 26.3225 52.4565 33.068 52.4565 41.1627C52.4565 49.426 45.8499 56.003 37.9219 56.003C31.976 56.003 27.021 52.4615 24.7087 47.4024C24.5435 47.0651 24.2132 46.7278 23.5526 46.7278H12.3213C11.6607 46.7278 11 47.4024 11 48.0769C11 48.0769 11 48.2456 11 48.4142C14.1381 60.7249 25.039 69.8314 38.0871 69.8314C53.4474 69.8314 66 57.0148 66 41.3314C66 25.8166 53.4474 13 38.0871 13C25.039 13 14.1381 22.1065 11 34.2485Z" fill="#343434"/>
</g>
<defs>
<clipPath id="clip0_5373_19677">
<rect width="55" height="57" fill="white" transform="translate(11 13)"/>
</clipPath>
</defs>
</svg>
