<svg id="Layer_1" data-name="Layer 1" xmlns="http://www.w3.org/2000/svg" viewBox="0 0 24 24"><defs><style>.cls-1{fill:#017cff;}</style></defs><path class="cls-1" d="M12.16,11.21H10.75V9.8h1.41v1.4a2.23,2.23,0,0,0,2.2-1.8,2.25,2.25,0,0,0-3.65-2.17A2.24,2.24,0,0,0,9.9,9H8.49a3.67,3.67,0,1,1,3.67,3.67Z"/><path class="cls-1" d="M9.64,11.22h1.09V12.3H9.65v-1s0-.06,0-.09Z"/><path class="cls-1" d="M9.64,11.22h-.9V10.3h.9v.92Z"/><path class="cls-1" d="M1.87,14.63a1.09,1.09,0,0,1,.46.44,1.44,1.44,0,0,1,0,1.32,1.09,1.09,0,0,1-.46.44,1.57,1.57,0,0,1-.7.15H.29V14.47h.88A1.45,1.45,0,0,1,1.87,14.63Zm-.11,1.71A.82.82,0,0,0,2,15.73a.8.8,0,0,0-.22-.61.81.81,0,0,0-.61-.23H.79v1.67h.36A.84.84,0,0,0,1.76,16.34Z"/><path class="cls-1" d="M2.9,14.67a.32.32,0,0,1-.08-.21.29.29,0,0,1,.08-.21.32.32,0,0,1,.23-.09.29.29,0,0,1,.22.09.26.26,0,0,1,.09.21.29.29,0,0,1-.09.21.33.33,0,0,1-.22.08A.36.36,0,0,1,2.9,14.67Zm.47.32v2h-.5V15Z"/><path class="cls-1" d="M5.05,15a.73.73,0,0,1,.26.23V15h.51v2a1.1,1.1,0,0,1-.11.49.88.88,0,0,1-.34.35,1.08,1.08,0,0,1-.54.13,1.15,1.15,0,0,1-.69-.2.72.72,0,0,1-.31-.54h.5a.4.4,0,0,0,.17.22.63.63,0,0,0,.32.08.53.53,0,0,0,.36-.13.54.54,0,0,0,.13-.4v-.31a.73.73,0,0,1-.26.23.88.88,0,0,1-.4.1.94.94,0,0,1-.46-.13.91.91,0,0,1-.33-.37,1.28,1.28,0,0,1,0-1.08,1,1,0,0,1,.33-.36A.9.9,0,0,1,4.65,15,1,1,0,0,1,5.05,15Zm.19.63a.5.5,0,0,0-.46-.27.48.48,0,0,0-.26.07.46.46,0,0,0-.19.2.72.72,0,0,0,0,.62.58.58,0,0,0,.2.21.45.45,0,0,0,.25.07.52.52,0,0,0,.27-.07.46.46,0,0,0,.19-.2A.62.62,0,0,0,5.31,16,.63.63,0,0,0,5.24,15.67Z"/><path class="cls-1" d="M6.35,14.67a.29.29,0,0,1-.09-.21.26.26,0,0,1,.09-.21.31.31,0,0,1,.44,0,.26.26,0,0,1,.09.21.29.29,0,0,1-.09.21.34.34,0,0,1-.44,0Zm.47.32v2H6.31V15Z"/><path class="cls-1" d="M7.9,15.4v1a.18.18,0,0,0,0,.14.23.23,0,0,0,.16,0h.24V17H8a.56.56,0,0,1-.64-.62v-1H7.16V15h.23V14.5H7.9V15h.45v.41Z"/><path class="cls-1" d="M8.7,15.44A1,1,0,0,1,9,15.08.9.9,0,0,1,9.49,15a.8.8,0,0,1,.39.09.75.75,0,0,1,.27.22V15h.51v2h-.51v-.29a.62.62,0,0,1-.27.23.81.81,0,0,1-.39.1.87.87,0,0,1-.79-.5,1.28,1.28,0,0,1,0-1.08Zm1.38.23a.5.5,0,0,0-.46-.27.48.48,0,0,0-.26.07.46.46,0,0,0-.19.2.72.72,0,0,0,0,.62.65.65,0,0,0,.19.21.51.51,0,0,0,.26.07.52.52,0,0,0,.27-.07.46.46,0,0,0,.19-.2.62.62,0,0,0,.07-.31A.63.63,0,0,0,10.08,15.67Z"/><path class="cls-1" d="M11.66,14.32V17h-.51V14.32Z"/><path class="cls-1" d="M12.67,16.84A1.25,1.25,0,0,1,12,15.72a1.32,1.32,0,0,1,.17-.66,1.29,1.29,0,0,1,.47-.46,1.34,1.34,0,0,1,.65-.17,1.31,1.31,0,0,1,.65.17,1.22,1.22,0,0,1,.47.46,1.32,1.32,0,0,1,.17.66,1.3,1.3,0,0,1-.17.66,1.22,1.22,0,0,1-.47.46,1.31,1.31,0,0,1-.65.17A1.34,1.34,0,0,1,12.67,16.84Zm1.05-.38a.79.79,0,0,0,.27-.3.89.89,0,0,0,.1-.44.87.87,0,0,0-.1-.44.76.76,0,0,0-.27-.29.85.85,0,0,0-.8,0,.63.63,0,0,0-.27.29.87.87,0,0,0-.1.44.89.89,0,0,0,.1.44.66.66,0,0,0,.27.3.85.85,0,0,0,.8,0Z"/><path class="cls-1" d="M15,15.44a.93.93,0,0,1,.35-.36,1,1,0,0,1,.51-.12,1,1,0,0,1,.61.18,1,1,0,0,1,.33.52h-.55a.41.41,0,0,0-.14-.2.44.44,0,0,0-.26-.07.43.43,0,0,0-.34.15.73.73,0,0,0-.12.45.72.72,0,0,0,.12.44.43.43,0,0,0,.34.15.38.38,0,0,0,.4-.27h.55a1,1,0,0,1-.33.52,1.07,1.07,0,0,1-1.12.06.93.93,0,0,1-.35-.36,1.08,1.08,0,0,1-.13-.54A1.09,1.09,0,0,1,15,15.44Z"/><path class="cls-1" d="M19,16.14H17.53a.51.51,0,0,0,.15.34.48.48,0,0,0,.33.12.42.42,0,0,0,.4-.24H19a.92.92,0,0,1-.33.47A1,1,0,0,1,18,17a1.11,1.11,0,0,1-.52-.13,1,1,0,0,1-.36-.36A1.19,1.19,0,0,1,17,16a1.2,1.2,0,0,1,.12-.55,1,1,0,0,1,.36-.36A1.08,1.08,0,0,1,18,15a1.07,1.07,0,0,1,.51.12.91.91,0,0,1,.35.35,1.07,1.07,0,0,1,.12.51A1.27,1.27,0,0,1,19,16.14Zm-.51-.34a.4.4,0,0,0-.14-.31.49.49,0,0,0-.34-.12.47.47,0,0,0-.31.11.49.49,0,0,0-.16.32Z"/><path class="cls-1" d="M19.36,15.44a1,1,0,0,1,.33-.36.9.9,0,0,1,.46-.12.8.8,0,0,1,.39.09.84.84,0,0,1,.27.22V15h.51v2h-.51v-.29a.75.75,0,0,1-.27.23.81.81,0,0,1-.39.1.87.87,0,0,1-.79-.5,1.27,1.27,0,0,1,0-1.08Zm1.38.23a.52.52,0,0,0-.72-.2.46.46,0,0,0-.19.2.72.72,0,0,0,0,.62.55.55,0,0,0,.19.21.52.52,0,0,0,.52,0,.43.43,0,0,0,.2-.2.74.74,0,0,0,.07-.31A.76.76,0,0,0,20.74,15.67Z"/><path class="cls-1" d="M23.49,15.19a.81.81,0,0,1,.22.62V17h-.5v-1.1a.49.49,0,0,0-.12-.36.48.48,0,0,0-.66,0,.49.49,0,0,0-.12.36V17h-.5V15h.5v.25a.75.75,0,0,1,.26-.21.77.77,0,0,1,.34-.07A.78.78,0,0,1,23.49,15.19Z"/></svg>