<svg id="Layer_1" data-name="Layer 1" xmlns="http://www.w3.org/2000/svg" viewBox="0 0 24 24"><defs><style>.cls-1{fill:#0091e2;}</style></defs><path class="cls-1" d="M17.57,7.72A3.12,3.12,0,0,1,18,4.28a3.1,3.1,0,0,1,1.62,2.11c.44,0,.88,0,1.31,0a1.9,1.9,0,0,1,1.18.52A2.44,2.44,0,0,1,19.76,8.7a.82.82,0,0,0-.82.55,9.06,9.06,0,0,1-6.8,5.2,11.28,11.28,0,0,1-3.93.14A5.37,5.37,0,0,1,3.52,10a5.83,5.83,0,0,1,0-2H16.14a3.19,3.19,0,0,0,1.23-.21Z"/><path class="cls-1" d="M13.62,1.63V3.38H11.71V1.63Z"/><path class="cls-1" d="M13.62,5.48H11.71V3.75h1.91Z"/><path class="cls-1" d="M9.06,5.48H7.15V3.74H9.06Z"/><path class="cls-1" d="M9.45,3.74h1.89V5.48H9.45Z"/><path class="cls-1" d="M11.71,5.86h1.91v1.7H11.71Z"/><path class="cls-1" d="M6.78,7.56H4.89V5.86H6.78Z"/><path class="cls-1" d="M9.06,5.86v1.7H7.15V5.86Z"/><path class="cls-1" d="M11.35,5.86V7.55H9.44V5.86Z"/><path class="cls-1" d="M15.9,7.56H14V5.86H15.9Z"/><path class="cls-1" d="M3.94,17.91c0-.51,0-1,0-1.43,0-.24.11-.39.3-.4s.4.1.4.36c0,1,0,2.1,0,3.15a2.1,2.1,0,0,1-2.39,2,2.14,2.14,0,0,1-1.39-3.4,2,2,0,0,1,1.54-.8A2.11,2.11,0,0,1,3.94,17.91ZM1.16,19.49A1.39,1.39,0,1,0,2.57,18.1,1.36,1.36,0,0,0,1.16,19.49Z"/><path class="cls-1" d="M18.27,20.79a1.46,1.46,0,0,0,1,0l.26-.1a.31.31,0,0,1,.42.17.32.32,0,0,1-.13.45,1.91,1.91,0,0,1-1.93.1A2.1,2.1,0,0,1,16.65,19a2.16,2.16,0,0,1,2.11-1.66,2.05,2.05,0,0,1,1.71.94.44.44,0,0,1-.09.69L19,20.13Zm1.5-2.23a1.41,1.41,0,0,0-2-.09,1.38,1.38,0,0,0-.08,1.89Z"/><path class="cls-1" d="M5.07,19.48a2.07,2.07,0,0,1,2.09-2.1,2.13,2.13,0,0,1,2.12,2.1A2.1,2.1,0,0,1,7.14,21.6,2.06,2.06,0,0,1,5.07,19.48Zm.7,0a1.44,1.44,0,0,0,1.41,1.4,1.43,1.43,0,0,0,1.38-1.42,1.4,1.4,0,0,0-1.4-1.37A1.37,1.37,0,0,0,5.77,19.49Z"/><path class="cls-1" d="M14.58,18.63c.34-.37.68-.74,1-1.1a.4.4,0,0,1,.31-.11.32.32,0,0,1,.23.54c-.2.25-.44.47-.66.7l-.87.84.7.67.78.8a.35.35,0,0,1,0,.53.32.32,0,0,1-.5,0c-.35-.36-.68-.73-1-1.09l-.1.06c0,.25,0,.51,0,.76a.33.33,0,0,1-.28.38c-.28,0-.42-.09-.42-.41V16.48c0-.27.11-.4.35-.4s.35.14.35.4c0,.7,0,1.39,0,2.08Z"/><path class="cls-1" d="M9.67,19.46A2,2,0,0,1,12,17.39a2.71,2.71,0,0,1,.78.24.34.34,0,0,1,.2.48.36.36,0,0,1-.49.15,1.86,1.86,0,0,0-.84-.17,1.32,1.32,0,0,0-1.19,1,1.35,1.35,0,0,0,.43,1.46,1.47,1.47,0,0,0,1.58.18.37.37,0,0,1,.51.12.38.38,0,0,1-.17.51,2,2,0,0,1-1.31.24A2.05,2.05,0,0,1,9.67,19.46Z"/><path class="cls-1" d="M21.23,20.24a11.07,11.07,0,0,1,.06-1.15,2.08,2.08,0,0,1,1.93-1.69c.29,0,.46.11.48.33s-.15.4-.46.41a1.19,1.19,0,0,0-.71.24A1.34,1.34,0,0,0,22,19.54c0,.53,0,1.07,0,1.6,0,.32-.12.47-.36.46s-.35-.15-.35-.48v-.87Z"/></svg>