<svg id="Layer_1" data-name="Layer 1" xmlns="http://www.w3.org/2000/svg" viewBox="0 0 24 24"><defs><style>.cls-1{fill:#e0e0e0;}.cls-2{fill:#4285f4;}.cls-3{fill:#fbbc05;}.cls-4{fill:#ea4335;}</style></defs><path class="cls-1" d="M11.62,7.12c.36,0,.72,0,1.07,0a.4.4,0,0,1,.29.15c.37.62.73,1.25,1.08,1.88a.4.4,0,0,1,0,.34c-.35.64-.71,1.26-1.09,1.88a.34.34,0,0,1-.26.15H10.54a.39.39,0,0,1-.28-.16c-.37-.62-.73-1.25-1.07-1.89a.36.36,0,0,1,0-.32c.35-.63.7-1.26,1.07-1.88a.35.35,0,0,1,.26-.15C10.89,7.11,11.25,7.12,11.62,7.12Zm-1,2.21a1,1,0,1,0,2,0,1,1,0,1,0-2,0Z"/><path class="cls-2" d="M14.9,6.7H12.09c-.57,0-1.15,0-1.72,0a.37.37,0,0,0-.39.23c-.36.64-.74,1.28-1.12,1.95,0-.07-.1-.12-.13-.17-.22-.39-.45-.77-.65-1.16a.42.42,0,0,1,0-.33c.29-.54.6-1.08.9-1.62a1,1,0,0,1,.86-.5h3.58a1,1,0,0,1,.88.51Z"/><path class="cls-3" d="M7.72,7.83l1,1.65c.44.76.88,1.52,1.31,2.28a.36.36,0,0,0,.35.21h2.28c0,.09-.06.15-.09.21-.23.4-.47.81-.72,1.21a.44.44,0,0,1-.27.17H9.78A.87.87,0,0,1,9,13.09L7.12,9.81a.92.92,0,0,1,0-1Z"/><path class="cls-4" d="M12.24,13.55l.92-1.6c.46-.81.92-1.62,1.39-2.42a.35.35,0,0,0,0-.42c-.38-.64-.75-1.29-1.14-2h1.67c.05,0,.12.09.15.15.3.52.59,1,.88,1.57a.94.94,0,0,1,0,1c-.61,1.08-1.22,2.17-1.84,3.25a.88.88,0,0,1-.83.48Z"/><path d="M1.43,15.62a.32.32,0,0,0-.14-.14.39.39,0,0,0-.2-.05.44.44,0,0,0-.23.06.41.41,0,0,0-.15.17.49.49,0,0,0-.06.25.51.51,0,0,0,.06.25.44.44,0,0,0,.16.17.52.52,0,0,0,.23.05.46.46,0,0,0,.27-.08.41.41,0,0,0,.14-.25H1v-.22H1.8v.25a.6.6,0,0,1-.13.28.61.61,0,0,1-.24.21.74.74,0,0,1-.34.08.83.83,0,0,1-.38-.1.65.65,0,0,1-.26-.26.7.7,0,0,1-.1-.38.73.73,0,0,1,.1-.39.65.65,0,0,1,.26-.26.82.82,0,0,1,.38-.09.8.8,0,0,1,.43.12.57.57,0,0,1,.24.33Z"/><path d="M2.23,16.58A.53.53,0,0,1,2,16.37a.64.64,0,0,1,0-.62.53.53,0,0,1,.21-.21.6.6,0,0,1,.3-.07.6.6,0,0,1,.3.07.63.63,0,0,1,.22.21.62.62,0,0,1,.07.31.59.59,0,0,1-.29.52.62.62,0,0,1-.31.07A.54.54,0,0,1,2.23,16.58Zm.44-.22a.23.23,0,0,0,.11-.11.41.41,0,0,0,.05-.19.33.33,0,0,0-.09-.25.29.29,0,0,0-.42,0,.43.43,0,0,0,0,.5.25.25,0,0,0,.2.09A.24.24,0,0,0,2.67,16.36Z"/><path d="M3.55,16.58a.53.53,0,0,1-.21-.21.64.64,0,0,1,0-.62.58.58,0,0,1,.52-.28.6.6,0,0,1,.3.07.53.53,0,0,1,.21.21.64.64,0,0,1,0,.62.63.63,0,0,1-.22.21.68.68,0,0,1-.6,0ZM4,16.36a.38.38,0,0,0,.11-.11.58.58,0,0,0,0-.19.33.33,0,0,0-.09-.25.29.29,0,0,0-.42,0,.43.43,0,0,0,0,.5.27.27,0,0,0,.21.09A.28.28,0,0,0,4,16.36Z"/><path d="M5.34,15.52a.37.37,0,0,1,.15.13v-.17h.29v1.16a.68.68,0,0,1-.06.29.55.55,0,0,1-.2.2.68.68,0,0,1-.31.07.65.65,0,0,1-.4-.12.43.43,0,0,1-.18-.31h.29a.22.22,0,0,0,.1.13.36.36,0,0,0,.19.05.28.28,0,0,0,.2-.08.32.32,0,0,0,.08-.23v-.18a.44.44,0,0,1-.16.14.51.51,0,0,1-.22,0,.5.5,0,0,1-.27-.07.55.55,0,0,1-.19-.21.79.79,0,0,1-.06-.32.73.73,0,0,1,.06-.3.55.55,0,0,1,.19-.21.5.5,0,0,1,.27-.07A.43.43,0,0,1,5.34,15.52Zm.11.36a.43.43,0,0,0-.11-.12.29.29,0,0,0-.16,0,.23.23,0,0,0-.14,0,.28.28,0,0,0-.12.12.47.47,0,0,0,0,.17.58.58,0,0,0,0,.19.34.34,0,0,0,.12.12.33.33,0,0,0,.14,0,.42.42,0,0,0,.16,0,.43.43,0,0,0,.11-.12.42.42,0,0,0,0-.36Z"/><path d="M6.36,15.1v1.53H6.07V15.1Z"/><path d="M7.7,16.15H6.86a.31.31,0,0,0,.09.19.25.25,0,0,0,.19.07.24.24,0,0,0,.23-.14h.31a.52.52,0,0,1-.19.27.51.51,0,0,1-.35.11.54.54,0,0,1-.29-.07.53.53,0,0,1-.21-.21.72.72,0,0,1,0-.62.58.58,0,0,1,.2-.21.68.68,0,0,1,.6,0,.48.48,0,0,1,.2.2.54.54,0,0,1,.07.29A.45.45,0,0,1,7.7,16.15ZM7.41,16a.25.25,0,0,0-.08-.18.32.32,0,0,0-.19-.07.29.29,0,0,0-.19.07.26.26,0,0,0-.09.18Z"/><path d="M8.46,15.53a.68.68,0,0,1,.62-.36.76.76,0,0,1,.41.11.66.66,0,0,1,.26.33H9.53a.39.39,0,0,0-.18-.2.46.46,0,0,0-.27-.08.5.5,0,0,0-.27.08.46.46,0,0,0-.19.2.66.66,0,0,0-.07.3.73.73,0,0,0,.07.3.52.52,0,0,0,.19.2.5.5,0,0,0,.27.07.45.45,0,0,0,.27-.07.39.39,0,0,0,.18-.2h.22a.59.59,0,0,1-.26.32.69.69,0,0,1-.41.12.75.75,0,0,1-.36-.1.65.65,0,0,1-.26-.26.77.77,0,0,1,0-.76Z"/><path d="M10.22,15.1v1.53H10V15.1Z"/><path d="M10.75,16.58a.53.53,0,0,1-.21-.21.74.74,0,0,1-.07-.31.65.65,0,0,1,.08-.31.64.64,0,0,1,.2-.2.6.6,0,0,1,.3-.07.59.59,0,0,1,.29.07.64.64,0,0,1,.2.2.65.65,0,0,1,.08.31.62.62,0,0,1-.08.31.53.53,0,0,1-.21.21.59.59,0,0,1-.29.07A.54.54,0,0,1,10.75,16.58Zm.48-.14a.34.34,0,0,0,.14-.15.47.47,0,0,0,0-.46.32.32,0,0,0-.14-.14.39.39,0,0,0-.38,0,.35.35,0,0,0-.13.14.41.41,0,0,0-.06.23.57.57,0,0,0,.05.24.38.38,0,0,0,.14.14.41.41,0,0,0,.19,0A.45.45,0,0,0,11.23,16.44Z"/><path d="M12.88,15.5v1.13h-.19v-.17a.4.4,0,0,1-.15.14.54.54,0,0,1-.22,0,.46.46,0,0,1-.23-.06.37.37,0,0,1-.17-.16.54.54,0,0,1-.06-.27V15.5H12v.64a.36.36,0,0,0,.09.26.3.3,0,0,0,.23.09.33.33,0,0,0,.24-.1.37.37,0,0,0,.09-.27V15.5Z"/><path d="M13.2,15.75a.52.52,0,0,1,.19-.2.55.55,0,0,1,.52,0,.4.4,0,0,1,.18.16v-.6h.19v1.53h-.19v-.21a.55.55,0,0,1-.17.17.53.53,0,0,1-.26.06.5.5,0,0,1-.27-.07.48.48,0,0,1-.19-.21.64.64,0,0,1,0-.62Zm.83.09a.4.4,0,0,0-.14-.15.38.38,0,0,0-.19,0,.41.41,0,0,0-.19,0,.29.29,0,0,0-.14.15.38.38,0,0,0,0,.22.43.43,0,0,0,0,.23.32.32,0,0,0,.14.14.33.33,0,0,0,.19.06.31.31,0,0,0,.19-.06.32.32,0,0,0,.14-.14.44.44,0,0,0,.06-.23A.4.4,0,0,0,14,15.84Z"/><path d="M16,15.91a.51.51,0,0,1-.37.12h-.28v.6h-.19V15.19h.47a.53.53,0,0,1,.37.12.4.4,0,0,1,.13.3A.38.38,0,0,1,16,15.91Zm-.14-.1a.26.26,0,0,0,.07-.2q0-.27-.3-.27h-.28v.53h.28A.37.37,0,0,0,15.85,15.81Z"/><path d="M16.54,15.1v1.53h-.19V15.1Z"/><path d="M16.86,15.75a.61.61,0,0,1,.19-.2.59.59,0,0,1,.54,0,.49.49,0,0,1,.16.16v-.2h.19v1.13h-.19v-.21a.52.52,0,0,1-.16.17.55.55,0,0,1-.26.06.53.53,0,0,1-.28-.07.55.55,0,0,1-.19-.21.72.72,0,0,1,0-.62Zm.84.09a.4.4,0,0,0-.14-.15.41.41,0,0,0-.19,0,.46.46,0,0,0-.2,0,.41.41,0,0,0-.14.15.48.48,0,0,0-.05.22.56.56,0,0,0,.05.23.47.47,0,0,0,.14.14.36.36,0,0,0,.2.06.33.33,0,0,0,.19-.06.32.32,0,0,0,.14-.14.56.56,0,0,0,.05-.23A.51.51,0,0,0,17.7,15.84Z"/><path d="M18.49,15.65v.67c0,.06,0,.1,0,.12a.17.17,0,0,0,.12,0h.14v.16h-.17a.27.27,0,0,1-.32-.31v-.67h-.14V15.5h.14v-.29h.19v.29h.3v.15Z"/><path d="M19.48,15.65h-.24v1h-.19v-1H18.9V15.5h.15v-.08a.34.34,0,0,1,.1-.28.47.47,0,0,1,.32-.09v.16c-.09,0-.15,0-.18,0a.22.22,0,0,0-.05.16v.08h.24Z"/><path d="M19.9,16.58a.58.58,0,0,1-.2-.21.62.62,0,0,1-.07-.31.64.64,0,0,1,.07-.31.58.58,0,0,1,.21-.2.57.57,0,0,1,.29-.07.54.54,0,0,1,.29.07.58.58,0,0,1,.21.2.65.65,0,0,1,.08.31.62.62,0,0,1-.08.31.53.53,0,0,1-.21.21.6.6,0,0,1-.3.07A.59.59,0,0,1,19.9,16.58Zm.48-.14a.36.36,0,0,0,.15-.15.55.55,0,0,0,0-.46.38.38,0,0,0-.14-.14.39.39,0,0,0-.38,0,.38.38,0,0,0-.14.14.52.52,0,0,0-.05.23.57.57,0,0,0,.05.24.38.38,0,0,0,.32.19A.38.38,0,0,0,20.38,16.44Z"/><path d="M21.36,15.53a.38.38,0,0,1,.22,0v.19h0c-.21,0-.32.12-.32.35v.61H21V15.5h.18v.18A.43.43,0,0,1,21.36,15.53Z"/><path d="M23.4,15.53a.38.38,0,0,1,.16.17.53.53,0,0,1,.06.26v.67h-.18V16a.36.36,0,0,0-.09-.26.28.28,0,0,0-.22-.09.32.32,0,0,0-.24.09.47.47,0,0,0-.08.28v.62h-.19V16a.4.4,0,0,0-.08-.26.32.32,0,0,0-.23-.09.32.32,0,0,0-.24.09A.47.47,0,0,0,22,16v.62H21.8V15.5H22v.16a.34.34,0,0,1,.15-.14.46.46,0,0,1,.21,0,.51.51,0,0,1,.25.06.38.38,0,0,1,.16.19.42.42,0,0,1,.16-.19.55.55,0,0,1,.48,0Z"/></svg>