<svg width="92" height="93" viewBox="0 0 92 93" fill="none" xmlns="http://www.w3.org/2000/svg">
<path d="M35.3289 57.2786C31.9056 55.0734 27.2597 54.6864 19.7673 56.7651C11.7797 58.6422 9.11654 59.8454 5.61904 57.43C4.27538 56.2434 3.79365 54.3329 4.15337 51.5809C4.98769 47.0948 7.24238 42.7776 11.2474 37.9887C13.4827 35.4976 15.5564 33.3598 18.2945 32.5013C20.393 31.9627 20.1968 33.612 19.9429 33.8478C19.6749 33.8478 19.2248 33.89 18.8769 34.117C18.5946 34.336 17.8196 35.043 17.778 35.9941C17.718 37.45 19.2246 37.1469 19.8744 36.3476C20.5749 35.4468 21.6101 33.7218 20.7958 32.1141C20.4545 31.5418 19.8648 31.1464 19.1326 31.0117C16.6253 30.8684 14.2904 32.0636 12.1353 33.385C7.42236 36.6589 3.65231 41.1954 1.51906 46.1611C0.289251 49.1572 -0.823029 53.449 0.844126 56.9421C2.13397 59.3659 4.81151 60.6533 8.0061 60.3841C10.2466 60.1487 12.9559 59.4245 14.7781 58.9873C16.6004 58.5493 25.9278 55.3431 28.9926 60.9234C28.9926 60.9234 30.0117 58.9451 32.5586 58.9029C34.6525 58.7097 37.6733 59.509 39.8731 61.1247C39.1402 60.0225 37.0623 58.3981 35.3289 57.2786Z" fill="#AFAFAF"/>
<path d="M20.7188 38.5527C18.9743 37.4081 15.4679 39.5964 12.6595 43.3499C10.0913 46.7167 8.98236 50.6298 10.1893 52.4393C11.9844 54.5686 15.3173 51.4715 16.7345 49.8138L16.9174 49.62C17.8812 48.5848 18.6257 47.3391 19.3465 46.1438C19.3465 46.1438 20.0089 45.0497 20.0405 44.9991C20.4499 44.9236 20.9431 44.8058 21.4987 44.6458C21.4908 44.6709 19.3727 48.231 19.5888 49.9981C19.6561 50.5372 19.6048 52.5066 21.5275 53.104C24.0901 53.5336 26.1365 51.5471 27.9417 49.7796C27.9417 49.7796 28.2493 49.4853 28.4233 49.3173C28.3793 49.4935 28.3219 49.7287 28.3219 49.7287C27.5717 52.3378 28.583 52.8853 29.2156 53.0872C31.1275 53.6432 33.4115 50.8656 33.4189 50.8656C33.3596 51.7405 33.1865 52.4642 34.1088 53.045C34.9793 53.3567 35.8603 52.8815 36.53 52.4354C38.9422 50.7355 40.8854 48.0746 42.455 45.7747H41.4538C41.4419 45.7747 38.9833 49.3384 37.3868 50.1129C37.3843 50.1129 37.0937 50.262 36.9263 50.1441C36.719 49.9673 36.8007 49.5996 36.9287 49.3393C36.9368 49.3224 43.0932 38.6447 43.0932 38.6447H40.1865C40.1865 38.6447 39.869 39.1584 39.8431 39.1921C39.8235 39.1754 39.777 39.087 39.7448 39.0447C37.9439 36.5536 33.8656 40.3854 30.7952 44.829C29.6131 46.5377 28.1081 48.4615 26.5476 49.8501C26.5476 49.8501 24.2356 51.9693 23.2479 50.4467C22.8868 49.807 22.9979 48.8717 23.2015 48.2575C24.3517 44.9834 26.3334 42.0122 28.5887 40.2194C29.2252 39.7232 29.9173 39.5797 30.2606 39.7901C30.5879 39.984 30.6407 40.4634 30.4337 40.7917C29.9085 40.7749 29.4876 40.9345 29.1455 41.288C28.4716 41.995 28.2375 42.6769 28.4517 43.3166C29.4926 44.7978 31.5685 41.8689 31.4681 40.0847C31.4322 39.4449 31.091 38.8391 30.5815 38.5442C29.8224 38.09 28.6644 38.2076 27.9149 38.5698C26.9116 38.9483 25.3235 40.2696 24.3965 41.2965C23.2295 42.5844 21.2279 44.015 20.6021 43.8548C20.8067 43.3076 22.4973 39.8487 20.7188 38.5527ZM34.7328 43.6698C35.2983 42.8872 36.944 40.7914 37.3453 40.4381C38.6947 39.2509 39.234 39.7732 39.2807 40.1433C38.0214 42.3988 36.535 44.9827 35.1375 47.3057C35.1404 47.2975 34.7002 47.9706 34.7002 47.9706C34.083 48.9129 33.4615 49.721 32.4478 50.2847C32.3032 50.3271 32.0649 50.344 31.9063 50.2257C31.7154 50.0994 31.6401 49.889 31.6616 49.6701C31.7225 48.9466 32.4592 46.7335 34.7328 43.6698ZM18.9197 45.0247C18.9197 45.0247 18.8943 45.1007 18.8819 45.1256C18.8787 45.1256 17.6145 47.1873 17.6145 47.1873C16.8516 48.2058 15.899 49.4854 14.7083 50.0995C14.3554 50.2173 13.8674 50.2933 13.6188 49.9821C13.0918 49.3508 13.3634 48.4754 13.5841 47.7686L13.6623 47.5161C14.295 45.7994 15.2989 44.2841 16.2761 42.8786C16.2883 42.8703 16.3157 42.8619 16.3256 42.8619C16.328 42.8703 16.3319 42.8703 16.3335 42.8872C16.9467 44.0653 18.0965 44.6121 18.9563 44.865C18.9615 44.865 18.9671 44.8734 18.9671 44.8903C18.9672 44.9153 18.9532 44.9493 18.9197 45.0247ZM20.1174 42.5927C20.1117 42.6095 19.5543 43.8887 19.5543 43.8887C19.4737 43.956 19.3463 43.9224 19.2002 43.8887L18.95 43.8464C18.1642 43.6025 17.5715 43.0806 17.3887 42.4579C17.1368 41.2459 18.1721 40.2949 18.6282 39.95C19.0659 39.6467 19.7464 39.4869 20.1415 39.7984C20.3852 40.0847 20.4775 40.4548 20.4775 40.8591C20.4776 41.4059 20.3088 42.0202 20.1174 42.5927ZM56.8645 46.4975C56.5841 45.8917 55.9188 45.5045 55.2097 45.5465C52.9071 45.757 50.6548 47.6506 49.4721 50.3689C48.8516 51.7661 48.5129 52.919 48.2909 54.7537C49.007 53.9292 50.4675 52.5742 52.1248 51.8335C52.1248 51.8335 52.3504 50.0746 53.5004 48.5091C53.9355 47.8608 54.8063 46.8173 55.7841 47.0949C56.6386 47.3812 56.3382 49.7463 55.2027 52.035C54.3625 53.7185 53.0768 55.4022 51.7759 56.5634C50.6258 57.5396 48.9242 58.7179 47.4354 57.809C46.4977 57.2538 46.0194 56.092 46.1204 54.594C46.5684 50.3439 48.5032 46.7249 51.2718 42.601C54.1265 38.7716 57.2734 34.8412 61.5126 32.7452C62.3773 32.3077 63.1781 32.2067 63.8703 32.476C63.8703 32.476 59.8908 34.6642 57.9939 38.7126C57.5113 39.7395 56.8402 41.1278 57.516 42.3567C57.8692 42.9962 58.4962 43.0468 59.0012 43.0131C61.3263 42.4744 62.8286 40.303 64.056 38.317C64.7676 36.8105 65.4001 35.3124 65.4001 33.6459C65.4001 33.444 65.3896 33.1748 65.3726 32.9726C66.4834 32.3837 68.7614 33.4271 68.7614 33.4271C70.5415 34.0165 74.3318 36.9202 75.6104 37.4754C76.234 36.7517 77.2589 35.6577 77.8361 35.1106L77.0006 34.5971C75.6632 33.7807 74.2495 33.0063 72.8581 32.2405C69.698 30.5154 67.1257 31.1212 65.8166 31.5926C65.3021 31.7776 64.832 31.9376 64.832 31.9376C63.8605 30.8772 62.267 30.9779 61.093 31.2643C56.8709 32.4761 52.9509 35.4301 48.7482 40.5558C45.6584 44.5705 43.7418 48.0381 42.7203 51.4633C41.9329 53.7693 41.6935 57.161 43.6154 59.1726C45.2495 60.8807 47.4162 60.5106 48.9461 59.8965C52.2612 58.2637 55.2408 54.7455 56.7254 50.6972C57.0838 49.4938 57.4813 47.7938 56.8645 46.4975ZM64.4875 33.8144C64.0486 38.8474 60.1364 41.8017 59.1684 42.037C58.5818 42.1547 57.5808 41.894 58.4745 39.7817C59.7903 36.9368 62.037 34.5215 64.4474 33.2842C64.5062 33.4947 64.5046 33.629 64.4875 33.8144ZM87.6942 34.4538C85.5898 35.6491 83.4083 36.4232 80.7677 36.154C80.0359 36.979 79.3233 37.8289 78.6665 38.7041C82.3728 39.6467 86.302 37.5511 88.4935 35.5566C90.8118 33.5451 92.0004 31.012 92.0004 31.012C92.0004 31.012 90.2628 32.998 87.6942 34.4538ZM47.9242 38.645H45.1638L43.6067 41.175H46.3666L47.9242 38.645Z" fill="#AFAFAF"/>
<path d="M80.7561 57.513C80.4593 57.7149 80.0423 57.5596 80.1981 57.0969C80.5866 55.9186 82.1306 53.5174 82.1306 53.5174L86.4311 45.8899H83.4854C83.3453 46.1199 83.046 46.648 83.046 46.648C82.9097 46.421 82.5021 45.9162 82.3343 45.8071C81.6147 45.3523 80.5589 45.5673 79.8305 45.9796C76.6635 47.8314 74.3528 51.4902 72.5304 54.3434C72.5304 54.3434 70.6121 57.5151 69.5473 57.751C68.7159 57.8184 68.8017 56.6985 68.8377 56.4376C69.1591 54.552 69.9056 52.7595 70.6576 51.1352C72.1873 50.0748 73.9329 48.6861 75.5193 47.1628C78.9622 43.8718 81.8647 40.1434 82.2889 39.3102C82.2889 39.3102 81.8297 39.4029 81.2875 39.4195C78.6388 43.1143 73.2186 48.4841 71.5754 49.2834C72.3034 47.5324 77.0066 39.1754 81.0089 35.1778L81.6387 34.5716C82.6126 33.6206 83.6217 32.6443 84.408 32.4844C84.4911 32.476 84.598 32.4844 84.6904 32.6782C84.7254 33.4187 84.4498 33.9659 84.1335 34.5886L83.6903 35.4977C83.6903 35.4977 84.3181 35.3798 84.7305 35.2448C85.2088 34.3447 85.7387 33.3344 85.5433 32.1312C85.4782 31.744 85.1978 31.4495 84.8316 31.3821C83.6376 31.1548 82.3365 32.0383 81.2895 32.7539L81.2473 32.779C75.865 36.9956 71.3203 43.0722 67.3469 51.3707C67.0589 51.5892 65.9463 51.8504 65.7572 51.724C66.1496 50.9162 66.6436 49.8303 66.8908 48.652C66.9335 48.3151 66.9733 47.9704 66.9733 47.6338C66.9733 46.9094 66.7995 46.2279 66.1506 45.7568C65.3898 45.378 64.4494 45.5549 63.8153 45.8408C60.9752 47.0191 58.8524 49.9313 57.3205 52.3297C56.4966 53.8534 55.6752 55.4854 55.4477 57.3541C55.2875 58.8183 55.6136 59.7611 56.4462 60.2325C57.3023 60.6698 58.3798 60.2152 58.8032 59.9966C61.6806 58.4816 63.6911 55.4435 65.2758 52.666C65.3388 52.6578 66.2041 52.6327 66.8587 52.4641C66.8673 52.4641 66.871 52.4641 66.8855 52.4728C66.848 52.5987 66.5098 53.6089 66.5098 53.6089C65.5054 56.5543 65.0409 58.5576 65.9896 59.7442C67.3454 61.419 69.5899 59.6855 71.4158 57.3959C71.0239 60.1394 72.4457 60.569 73.5297 60.3587C74.7748 60.0223 76.1623 58.6922 76.8062 58.0107C76.5994 58.81 76.6555 60.2411 77.7883 60.3839C78.5645 60.5274 79.1456 60.1052 79.8178 59.7431C82.2292 58.4301 85.1159 54.0547 85.8653 52.7897H84.8826C83.8172 54.4 82.4614 56.511 80.7561 57.513ZM59.111 57.2199C58.9581 56.9926 58.9074 56.7442 58.9023 56.4755C58.873 54.8252 60.6486 51.8699 61.9017 50.2599H61.9044C62.4295 51.4099 63.6188 52.1491 64.3367 52.4607C63.4451 54.4471 60.3869 58.7011 59.111 57.2199ZM64.8401 51.5726C64.7552 51.632 63.2555 51.1267 62.9656 49.738C62.7197 48.5425 63.543 47.6083 64.3395 47.1375C64.6814 46.868 65.1964 46.7757 65.5741 46.9098C65.9248 47.1459 66.0198 47.5671 66.0198 48.0207C66.0198 48.299 65.9828 48.5849 65.9503 48.8457L65.9432 48.9049C65.692 49.8379 65.3212 50.7346 64.8401 51.5726ZM76.8687 56.6898C76.8675 56.6898 76.5841 56.9422 76.5841 56.9422C76.1795 57.304 75.7632 57.6911 75.2607 57.4974C75.1219 57.4471 75.0243 57.262 75.0008 57.1185C74.9779 56.0833 75.444 55.1241 75.8962 54.1899L76.0121 53.9458C77.3125 51.7745 78.8241 49.2159 81.044 47.4403C81.4181 47.1704 81.8241 46.9436 82.2526 47.1205C82.3511 47.213 82.4659 47.3729 82.4659 47.5327C82.4659 47.5834 82.4208 47.7179 82.395 47.7599C81.7749 48.7619 81.1845 49.8137 80.6103 50.8236C79.4881 52.8183 78.3239 54.8799 76.8687 56.6898Z" fill="#AFAFAF"/>
</svg>
