<svg width="139" height="92" viewBox="0 0 139 92" fill="none" xmlns="http://www.w3.org/2000/svg">
<path d="M66.7661 72.6446C63.2459 72.5518 59.3638 72.2418 55.9275 71.7796C41.2971 69.8114 29.0377 64.7944 22.2128 57.9831C19.3185 55.0949 17.4845 51.9211 16.8661 48.7315C16.6646 47.6926 16.6172 47.1833 16.6172 46.0629C16.6172 44.9423 16.6649 44.4333 16.8661 43.3944C17.2727 41.2974 18.2382 39.1356 19.6628 37.1318C22.8852 32.6006 28.5389 28.5663 35.9571 25.5057C48.3214 20.4035 64.5108 18.3825 80.2755 19.9731C98.7822 21.8398 114.006 28.5933 120.047 37.6153C122.809 41.74 123.486 46.22 122.008 50.5983C121.155 53.1267 119.497 55.6534 117.163 57.9828C110.697 64.4364 99.316 69.303 85.6562 71.456C79.5472 72.4192 73.249 72.815 66.7658 72.6443L66.7661 72.6446ZM74.837 69.2391C82.2444 68.7807 88.4996 67.6919 94.5953 65.8C99.4317 64.2988 103.94 62.2209 107.401 59.8969C109.145 58.7261 110.355 57.7377 111.724 56.3662C113.349 54.7375 114.397 53.3085 115.251 51.5593C116.206 49.6023 116.576 48.0683 116.576 46.0626C116.576 44.0458 116.182 42.4301 115.215 40.4797C114.378 38.7932 113.311 37.3502 111.724 35.7594C109.393 33.4233 106.623 31.4965 102.963 29.6643C96.1121 26.2347 87.5399 23.9908 77.9904 23.1274C72.7009 22.6492 66.6917 22.6489 61.3854 23.1268C47.9596 24.3358 36.4346 28.3211 29.3035 34.2207C28.3991 34.969 26.7869 36.5967 26.111 37.4443C23.6946 40.4734 22.5536 43.7422 22.8136 46.8914C23.0966 50.323 24.642 53.3489 27.6523 56.3662C29.9324 58.652 32.6435 60.5518 36.1692 62.3347C44.1981 66.3945 54.0636 68.7209 65.6668 69.2913C66.9772 69.3558 73.5599 69.3183 74.837 69.2395V69.2391ZM37.2011 59.5186C37.1375 59.4919 37.0333 59.4124 36.9697 59.3419C36.8549 59.2141 36.854 59.1212 36.8393 46.8262L36.8244 34.4391L36.6712 34.2792C36.5262 34.1278 36.4861 34.1183 35.9336 34.103L35.3496 34.0865V32.5243L39.554 32.5097L43.7581 32.4947L43.9364 32.6448L44.1151 32.7951V37.2609C44.1151 42.1675 44.1018 41.9838 44.4546 41.9838C44.6737 41.9838 44.7493 41.8925 45.9692 40.1615C49.2001 35.5753 50.9773 33.0806 51.1378 32.9077C51.5327 32.481 51.3537 32.4982 55.4433 32.4966L59.1054 32.4953L59.2449 32.6352C59.4166 32.8069 59.4811 33.0409 59.4033 33.2084C59.3537 33.3146 57.7692 35.6675 52.2362 43.8506C51.6322 44.7439 51.4634 45.0351 51.4646 45.1814C51.4662 45.333 51.8592 45.9227 53.5368 48.2906C60.9505 58.7534 60.9744 58.7877 60.9973 58.9992C61.0144 59.1581 60.9858 59.2462 60.8749 59.3752L60.7302 59.5437L56.9057 59.5593C53.1346 59.5746 53.0771 59.5733 52.7996 59.4538C52.6447 59.387 52.4533 59.263 52.3745 59.1778C52.2957 59.0926 50.5522 56.6663 48.5004 53.7866C46.4486 50.907 44.728 48.5163 44.6772 48.4743C44.5348 48.356 44.2734 48.4123 44.1895 48.5795C44.1326 48.6927 44.1164 49.8715 44.1161 53.9714L44.1151 59.2188L43.9752 59.381L43.8357 59.5434L40.5764 59.5552C38.7834 59.5615 37.2647 59.545 37.2011 59.5186ZM66.2438 59.4926C66.1478 59.4503 66.0372 59.3454 65.998 59.2598C65.9427 59.1384 65.9272 56.3859 65.9272 46.7789V34.454L65.758 34.2849C65.5946 34.1215 65.5701 34.1158 65.0348 34.1158H64.4806V32.4957H73.0417L73.2306 32.6645L73.4197 32.8333V59.223L73.2592 59.3835L73.099 59.5437L69.759 59.5568C67.0837 59.5673 66.384 59.5542 66.2438 59.4929V59.4926ZM78.6847 59.5027C78.5048 59.3994 78.4281 59.2707 78.4259 59.0691C78.425 58.9674 79.2461 56.4285 80.2511 53.428L83.8025 42.8228C84.541 40.6154 85.2821 38.4089 86.0256 36.2032C86.2997 35.3944 86.5241 34.6619 86.5241 34.5751C86.5241 34.4883 86.4745 34.3561 86.4138 34.2811C86.3149 34.1587 86.2444 34.1412 85.7341 34.1158L85.1644 34.0865L85.1485 33.2911L85.1326 32.4953L90.2688 32.496C93.6406 32.496 95.4794 32.517 95.6215 32.5564C95.7404 32.5894 95.8663 32.6702 95.9016 32.7357C95.9741 32.8708 96.5502 34.5739 99.2648 42.6787C103.681 55.8636 104.691 58.907 104.691 59.0313C104.691 59.2347 104.577 59.4382 104.422 59.5084C104.324 59.553 103.297 59.5727 101.058 59.5727C98.1041 59.5727 97.8186 59.5641 97.6368 59.4716C97.5277 59.4159 97.3907 59.305 97.3319 59.2249C97.2734 59.1451 96.8248 57.8302 96.3346 56.3032C91.6645 41.7476 91.7935 42.1447 91.6886 42.0277C91.5726 41.8986 91.4842 41.8995 91.3644 42.0321C91.269 42.1377 91.0891 42.6908 88.5499 50.6918C87.9626 52.5436 87.3739 54.395 86.7839 56.246C86.5496 56.9779 86.2498 57.9214 86.1169 58.3433C85.8562 59.1724 85.7405 59.3702 85.4461 59.4929C85.1917 59.5994 78.8685 59.6083 78.6847 59.5027Z" fill="#AFAFAF"/>
</svg>
