<svg width="138" height="92" viewBox="0 0 138 92" fill="none" xmlns="http://www.w3.org/2000/svg">
<path d="M69.2932 58.4542L75.3299 24.5034C81.084 24.5034 82.8989 25.1343 83.161 27.7097C83.161 27.7097 87.021 26.2705 88.9678 23.3474C81.3707 19.8271 73.7373 19.6683 73.7373 19.6683L69.2832 25.0935L69.2932 25.0928L64.839 19.6675C64.839 19.6675 57.2055 19.8264 49.6094 23.3468C51.5545 26.2698 55.416 27.7091 55.416 27.7091C55.6796 25.1335 57.4924 24.5025 63.2078 24.4984L69.2932 58.4542Z" fill="#AFAFAF"/>
<path d="M69.2902 18.101C75.4314 18.054 82.4607 19.051 89.6565 22.1873C90.6183 20.4562 90.8655 19.6912 90.8655 19.6912C82.9994 16.5791 75.6329 15.514 69.2893 15.4873C62.9462 15.514 55.58 16.5792 47.7148 19.6912C47.7148 19.6912 48.0657 20.6336 48.923 22.1873C56.1175 19.051 63.148 18.054 69.2893 18.101H69.2902Z" fill="#AFAFAF"/>
<path d="M86.0921 72.9014V76.63H87.2878V74.1475H91.6397V76.63H92.8346V72.9079L86.0921 72.9014ZM87.1546 71.6953H91.7524C92.391 71.5683 92.8659 71.0047 92.9998 70.4595H85.9073C86.0398 71.0049 86.5217 71.5683 87.1546 71.6953ZM82.4706 76.6324C83.0735 76.3768 83.3979 75.9347 83.5221 75.4174H78.159L78.1624 70.4626L76.9602 70.466V76.6324H82.4706ZM68.0202 71.6786H72.2665C72.9066 71.4926 73.4442 71.0049 73.5752 70.4643H66.8299V74.1084H72.3507V75.3871L68.0202 75.3905C67.3416 75.5798 66.7661 76.0355 66.479 76.6373L66.8299 76.6309H73.5369V72.8968H68.0202V71.6786ZM57.5376 71.6903H62.1339C62.7734 71.5629 63.2486 70.9998 63.3819 70.4541H56.2896C56.422 70.9998 56.9043 71.5629 57.5376 71.6903ZM57.5376 74.1274H62.1339C62.7734 74.0013 63.2486 73.4377 63.3819 72.8917H56.2896C56.422 73.4379 56.9043 74.0013 57.5376 74.1274ZM57.5376 76.6317H62.1339C62.7734 76.5046 63.2486 75.9412 63.3819 75.3958H56.2896C56.422 75.9414 56.9043 76.5046 57.5376 76.6317ZM45.5801 70.4691C45.7183 71.008 46.1848 71.5588 46.825 71.6968H48.7598L48.8584 71.7358V76.6179H50.0666V71.7358L50.1764 71.6968H52.1128C52.7601 71.53 53.2167 71.008 53.3525 70.4691V70.4572H45.5801V70.4691Z" fill="#AFAFAF"/>
</svg>
