<svg width="24" height="25" viewBox="0 0 24 25" fill="none" xmlns="http://www.w3.org/2000/svg">
<path d="M12.2201 22.9717H10.9301C10.4401 22.9717 10.2701 22.8017 10.2701 22.3217V21.4917C10.2791 21.3242 10.2332 21.1584 10.1393 21.0194C10.0455 20.8804 9.9088 20.7759 9.7501 20.7217C9.3501 20.5617 8.9701 20.3717 8.5801 20.1817C8.50606 20.1242 8.42136 20.0819 8.33089 20.0573C8.24043 20.0327 8.14598 20.0262 8.05301 20.0383C7.96004 20.0504 7.87038 20.0808 7.78921 20.1277C7.70804 20.1746 7.63697 20.2372 7.5801 20.3117C7.3601 20.5317 7.1501 20.7517 6.9301 20.9617C6.88209 21.0298 6.81843 21.0854 6.74447 21.1237C6.6705 21.1621 6.58841 21.1821 6.5051 21.1821C6.42178 21.1821 6.33969 21.1621 6.26573 21.1237C6.19177 21.0854 6.1281 21.0298 6.0801 20.9617L4.4701 19.2617C4.40599 19.2143 4.3539 19.1525 4.318 19.0813C4.28211 19.0101 4.26341 18.9314 4.26341 18.8517C4.26341 18.772 4.28211 18.6933 4.318 18.6221C4.3539 18.5509 4.40599 18.4891 4.4701 18.4417L5.1201 17.7917C5.19769 17.7374 5.26327 17.6676 5.31274 17.5869C5.36221 17.5061 5.39452 17.416 5.40766 17.3222C5.42079 17.2283 5.41447 17.1328 5.38908 17.0416C5.36369 16.9503 5.31979 16.8653 5.2601 16.7917C5.0701 16.4117 4.8901 16.0417 4.7301 15.6517C4.6806 15.4866 4.57643 15.3432 4.4347 15.2451C4.29296 15.1469 4.12208 15.0999 3.9501 15.1117H3.0001C2.92779 15.1213 2.85425 15.1143 2.78506 15.0912C2.71588 15.0681 2.65286 15.0295 2.60081 14.9784C2.54875 14.9273 2.50902 14.8651 2.48464 14.7963C2.46026 14.7276 2.45187 14.6542 2.4601 14.5817C2.4601 13.6417 2.4601 12.7017 2.4601 11.7517C2.45684 11.6813 2.46883 11.6109 2.49524 11.5456C2.52165 11.4802 2.56186 11.4213 2.61313 11.3729C2.66439 11.3244 2.72551 11.2877 2.79229 11.265C2.85907 11.2424 2.92996 11.2344 3.0001 11.2417H4.0001C4.14776 11.248 4.29353 11.2066 4.41595 11.1238C4.53837 11.041 4.63096 10.9211 4.6801 10.7817C4.8701 10.3517 5.0701 9.9317 5.2801 9.5117C5.36635 9.37695 5.40071 9.21545 5.3768 9.05726C5.35288 8.89906 5.27232 8.75494 5.1501 8.6517C4.9301 8.4117 4.6901 8.1917 4.4701 7.9617C4.40203 7.91482 4.34638 7.85209 4.30794 7.77893C4.26949 7.70576 4.24941 7.62435 4.24941 7.5417C4.24941 7.45905 4.26949 7.37764 4.30794 7.30447C4.34638 7.23131 4.40203 7.16859 4.4701 7.1217C5.0001 6.5517 5.5801 6.0017 6.1401 5.4917C6.18618 5.41943 6.24974 5.35995 6.3249 5.31874C6.40005 5.27753 6.48438 5.25593 6.5701 5.25593C6.65581 5.25593 6.74014 5.27753 6.8153 5.31874C6.89045 5.35995 6.95401 5.41943 7.0001 5.4917C7.2301 5.7117 7.4401 5.9417 7.6701 6.1617C7.78067 6.28982 7.93447 6.37283 8.10225 6.39496C8.27003 6.41708 8.44009 6.37678 8.5801 6.2817C8.9701 6.0917 9.3701 5.8917 9.7701 5.7317C9.92974 5.67895 10.0674 5.57475 10.1615 5.43542C10.2556 5.29609 10.3008 5.12949 10.2901 4.9617C10.2901 4.6517 10.2901 4.3517 10.2901 4.0417C10.2901 3.7317 10.4601 3.4717 10.8401 3.4617C11.7701 3.4617 12.7101 3.4617 13.6401 3.4617C14.0201 3.4617 14.1801 3.6517 14.1901 4.0417V4.9617C14.1794 5.12949 14.2246 5.29609 14.3187 5.43542C14.4128 5.57475 14.5505 5.67895 14.7101 5.7317C15.1101 5.8917 15.5101 6.0917 15.9001 6.2817C16.0401 6.37678 16.2102 6.41708 16.3779 6.39496C16.5457 6.37283 16.6995 6.28982 16.8101 6.1617C17.0401 5.9317 17.2601 5.7017 17.5001 5.4717C17.5478 5.41134 17.6086 5.36257 17.6779 5.32903C17.7472 5.2955 17.8231 5.27809 17.9001 5.27809C17.9771 5.27809 18.053 5.2955 18.1223 5.32903C18.1916 5.36257 18.2524 5.41134 18.3001 5.4717C18.8701 6.0317 19.4401 6.6017 20.0001 7.1717C20.0622 7.21827 20.1126 7.27867 20.1473 7.34809C20.182 7.41752 20.2001 7.49408 20.2001 7.5717C20.2001 7.64932 20.182 7.72588 20.1473 7.79531C20.1126 7.86473 20.0622 7.92513 20.0001 7.9717C19.7801 8.2117 19.5401 8.4317 19.3201 8.6717C19.1887 8.77787 19.1031 8.93036 19.0807 9.09779C19.0584 9.26521 19.1011 9.43482 19.2001 9.5717C19.3901 9.9717 19.5801 10.3617 19.7501 10.7617C19.7973 10.918 19.8963 11.0537 20.0308 11.1463C20.1652 11.239 20.3272 11.2832 20.4901 11.2717H21.4101C21.8301 11.2717 22.0201 11.4517 22.0201 11.8617C22.0201 12.7717 22.0201 13.6917 22.0201 14.6117C22.0201 15.0017 21.8401 15.1717 21.4401 15.1817H20.4901C20.3273 15.1777 20.1676 15.226 20.0343 15.3196C19.9011 15.4133 19.8015 15.5472 19.7501 15.7017C19.5901 16.1017 19.3901 16.5017 19.2001 16.8917C19.1028 17.031 19.0612 17.2016 19.0834 17.37C19.1056 17.5384 19.19 17.6924 19.3201 17.8017C19.5501 18.0317 19.7801 18.2517 20.0101 18.4917C20.0722 18.5383 20.1226 18.5987 20.1573 18.6681C20.192 18.7375 20.2101 18.8141 20.2101 18.8917C20.2101 18.9693 20.192 19.0459 20.1573 19.1153C20.1226 19.1847 20.0722 19.2451 20.0101 19.2917L18.3101 20.9917C18.2635 21.0538 18.2031 21.1042 18.1337 21.1389C18.0643 21.1736 17.9877 21.1917 17.9101 21.1917C17.8325 21.1917 17.7559 21.1736 17.6865 21.1389C17.6171 21.1042 17.5567 21.0538 17.5101 20.9917C17.2701 20.7617 17.0501 20.5217 16.8201 20.3017C16.7078 20.1728 16.5523 20.0895 16.3828 20.0674C16.2134 20.0453 16.0417 20.0859 15.9001 20.1817C15.5101 20.3717 15.1201 20.5717 14.7101 20.7317C14.5533 20.7876 14.4188 20.8929 14.3268 21.0317C14.2349 21.1706 14.1904 21.3355 14.2001 21.5017V22.4217C14.2001 22.8217 14.0201 23.0017 13.6201 23.0117L12.2201 22.9717ZM21.0001 12.2117H20.4201C20.073 12.2189 19.7326 12.1165 19.4471 11.919C19.1616 11.7215 18.9457 11.439 18.8301 11.1117C18.6785 10.7433 18.5083 10.3828 18.3201 10.0317C18.1118 9.69977 18.0277 9.30486 18.0826 8.91687C18.1375 8.52888 18.3279 8.17282 18.6201 7.9117C18.7401 7.7917 18.8801 7.6817 19.0301 7.5517C18.7901 7.3217 18.6001 7.1417 18.4301 6.9617C18.2601 6.7817 18.1001 6.5717 17.9001 6.3417C17.7401 6.5317 17.6401 6.6517 17.5301 6.7617C17.2674 7.07083 16.9005 7.27306 16.4989 7.33017C16.0972 7.38729 15.6886 7.29534 15.3501 7.0717C15.0101 6.8917 14.6501 6.7317 14.2901 6.5817C13.9696 6.46605 13.6927 6.25401 13.4975 5.97468C13.3024 5.69535 13.1985 5.36245 13.2001 5.0217C13.2001 4.8217 13.2001 4.6217 13.2001 4.4017H11.2401C11.2401 4.6217 11.2401 4.8017 11.2401 4.9817C11.2478 5.33267 11.1447 5.67714 10.9454 5.96616C10.7461 6.25519 10.4609 6.47406 10.1301 6.5917C9.7441 6.74399 9.36685 6.91759 9.0001 7.1117C8.68385 7.29438 8.31594 7.36699 7.954 7.31812C7.59207 7.26926 7.25658 7.1017 7.0001 6.8417L6.5601 6.3917L5.5601 7.3917L5.4101 7.5617L5.8101 7.9417C6.08836 8.20124 6.26901 8.54849 6.32181 8.92533C6.3746 9.30216 6.29633 9.68569 6.1001 10.0117C5.9001 10.3917 5.7201 10.7817 5.5601 11.1717C5.44079 11.4666 5.23625 11.7193 4.97263 11.8974C4.709 12.0756 4.39826 12.1711 4.0801 12.1717C3.8601 12.1717 3.6401 12.1717 3.4101 12.1717V14.1217H4.0001C4.36664 14.1076 4.7278 14.2132 5.02907 14.4224C5.33033 14.6317 5.55533 14.9333 5.6701 15.2817C5.81836 15.6434 5.98525 15.9972 6.1701 16.3417C6.38728 16.6785 6.47362 17.0832 6.41282 17.4793C6.35203 17.8754 6.14829 18.2355 5.8401 18.4917C5.71978 18.6067 5.58924 18.7104 5.4501 18.8017L6.6301 19.9817C6.72402 19.8663 6.82417 19.7562 6.9301 19.6517C7.1934 19.3562 7.55309 19.1639 7.94503 19.1089C8.33698 19.054 8.73569 19.14 9.0701 19.3517C9.4101 19.5317 9.7701 19.7017 10.1301 19.8517C10.4552 19.9659 10.7367 20.1783 10.9355 20.4596C11.1344 20.7409 11.2409 21.0772 11.2401 21.4217C11.2401 21.6217 11.2401 21.8217 11.2401 22.0217H13.1901V21.4617C13.1824 21.1107 13.2855 20.7663 13.4848 20.4772C13.6841 20.1882 13.9693 19.9693 14.3001 19.8517C14.6801 19.6917 15.0501 19.5217 15.4101 19.3317C15.732 19.1358 16.1115 19.0566 16.4848 19.1076C16.8582 19.1586 17.2026 19.3366 17.4601 19.6117C17.5912 19.7341 17.7148 19.8643 17.8301 20.0017L19.0001 18.7817C18.8662 18.6875 18.7393 18.5839 18.6201 18.4717C18.3287 18.2122 18.1387 17.8579 18.0837 17.4716C18.0288 17.0853 18.1126 16.6921 18.3201 16.3617C18.5001 16.0217 18.6601 15.6817 18.8101 15.3617C18.9243 15.009 19.152 14.7039 19.4577 14.4941C19.7634 14.2843 20.1299 14.1815 20.5001 14.2017H21.0001V12.2117Z" fill="url(#paint0_linear_3983_2173)"/>
<path d="M12.1809 19.0517C11.0207 19.0437 9.88895 18.6915 8.92912 18.0396C7.96928 17.3878 7.22455 16.4657 6.78929 15.3901C6.35404 14.3146 6.24785 13.1341 6.48419 11.9982C6.72053 10.8623 7.28875 9.82205 8.11686 9.00938C8.94496 8.19672 9.99567 7.64817 11.1358 7.43325C12.276 7.21833 13.4543 7.34671 14.5215 7.80213C15.5886 8.25754 16.4965 9.0195 17.1302 9.99143C17.7639 10.9634 18.0947 12.1015 18.0809 13.2617C18.0624 14.8107 17.4314 16.2893 16.3258 17.3743C15.2202 18.4593 13.7299 19.0624 12.1809 19.0517ZM12.1809 18.0517C13.1452 18.0537 14.0885 17.7699 14.8917 17.2362C15.6948 16.7025 16.3219 15.9428 16.6936 15.053C17.0654 14.1632 17.1652 13.1832 16.9804 12.2368C16.7957 11.2903 16.3347 10.4198 15.6556 9.73517C14.9765 9.05051 14.1098 8.58239 13.1649 8.38991C12.22 8.19743 11.2392 8.28921 10.3464 8.65367C9.45364 9.01813 8.68885 9.63893 8.14859 10.4377C7.60834 11.2365 7.31684 12.1774 7.31091 13.1417C7.30563 13.7881 7.42854 14.4291 7.67254 15.0276C7.91654 15.6262 8.27679 16.1704 8.73246 16.6289C9.18813 17.0873 9.73017 17.4509 10.3272 17.6986C10.9243 17.9462 11.5645 18.073 12.2109 18.0717L12.1809 18.0517Z" fill="url(#paint1_linear_3983_2173)"/>
<path d="M9.46078 13.2017L10.5908 14.2917C10.6743 14.365 10.7291 14.4654 10.7456 14.5752C10.762 14.6851 10.7391 14.7972 10.6808 14.8917C10.6372 14.9846 10.5618 15.0588 10.4683 15.101C10.3748 15.1432 10.2693 15.1505 10.1708 15.1217C10.0617 15.0947 9.96173 15.0396 9.88078 14.9617C9.41078 14.4917 9.00078 14.0517 8.50078 13.5817C8.43868 13.5351 8.38828 13.4747 8.35357 13.4053C8.31885 13.3359 8.30078 13.2593 8.30078 13.1817C8.30078 13.1041 8.31885 13.0275 8.35357 12.9581C8.38828 12.8887 8.43868 12.8283 8.50078 12.7817L9.86078 11.4317C9.90674 11.3804 9.963 11.3393 10.0259 11.3112C10.0888 11.2831 10.1569 11.2686 10.2258 11.2686C10.2947 11.2686 10.3628 11.2831 10.4257 11.3112C10.4886 11.3393 10.5448 11.3804 10.5908 11.4317C10.641 11.4793 10.681 11.5367 10.7083 11.6003C10.7357 11.664 10.7498 11.7325 10.7498 11.8017C10.7498 11.8709 10.7357 11.9394 10.7083 12.0031C10.681 12.0667 10.641 12.124 10.5908 12.1717L9.46078 13.2017Z" fill="url(#paint2_linear_3983_2173)"/>
<path d="M15.0007 13.2117C14.6007 12.8217 14.2607 12.4717 13.9107 12.1417C13.8243 12.0712 13.7624 11.9753 13.7337 11.8676C13.7049 11.7599 13.7109 11.6458 13.7507 11.5417C13.7764 11.4695 13.8196 11.4048 13.8766 11.3536C13.9335 11.3023 14.0024 11.2661 14.0769 11.2482C14.1514 11.2303 14.2292 11.2314 14.3032 11.2512C14.3772 11.271 14.4451 11.309 14.5007 11.3617C15.0207 11.8517 15.5007 12.3617 16.0207 12.8817C16.0597 12.923 16.09 12.9715 16.1101 13.0246C16.1302 13.0777 16.1396 13.1342 16.1377 13.1909C16.1359 13.2476 16.1228 13.3033 16.0993 13.355C16.0758 13.4066 16.0423 13.4531 16.0007 13.4917C15.5207 13.9917 15.0007 14.4917 14.5307 14.9717C14.4392 15.0605 14.3162 15.1094 14.1887 15.1075C14.0611 15.1057 13.9396 15.0532 13.8507 14.9617C13.7619 14.8702 13.713 14.7472 13.7149 14.6196C13.7168 14.4921 13.7692 14.3705 13.8607 14.2817C14.2007 13.9417 14.5807 13.6017 15.0007 13.2117Z" fill="url(#paint3_linear_3983_2173)"/>
<path d="M13.2007 11.2317C13.2007 11.3417 13.2007 11.4617 13.1207 11.5717C12.8307 12.5717 12.5507 13.5717 12.2607 14.5717C12.2386 14.6531 12.2119 14.7333 12.1807 14.8117C12.1378 14.9238 12.0545 15.0158 11.9471 15.0694C11.8398 15.1231 11.7162 15.1346 11.6007 15.1017C11.4843 15.0668 11.3846 14.9908 11.3201 14.8877C11.2557 14.7846 11.2311 14.6616 11.2507 14.5417C11.2629 14.4871 11.2796 14.4335 11.3007 14.3817L12.2007 11.2217C12.227 11.131 12.2639 11.0437 12.3107 10.9617C12.3332 10.9133 12.3652 10.8699 12.4046 10.8341C12.4441 10.7982 12.4904 10.7707 12.5407 10.753C12.591 10.7352 12.6444 10.7278 12.6976 10.731C12.7509 10.7342 12.8029 10.7481 12.8507 10.7717C13.0107 10.8417 13.1207 11.0217 13.2507 11.1517L13.2007 11.2317Z" fill="url(#paint4_linear_3983_2173)"/>
<defs>
<linearGradient id="paint0_linear_3983_2173" x1="2.4401" y1="13.1917" x2="22.0001" y2="13.1917" gradientUnits="userSpaceOnUse">
<stop stop-color="#283376"/>
<stop offset="1" stop-color="#1C67A6"/>
</linearGradient>
<linearGradient id="paint1_linear_3983_2173" x1="6.36091" y1="13.1917" x2="18.0809" y2="13.1917" gradientUnits="userSpaceOnUse">
<stop stop-color="#283376"/>
<stop offset="1" stop-color="#1C67A6"/>
</linearGradient>
<linearGradient id="paint2_linear_3983_2173" x1="8.31078" y1="13.1917" x2="10.7508" y2="13.1917" gradientUnits="userSpaceOnUse">
<stop stop-color="#283376"/>
<stop offset="1" stop-color="#1C67A6"/>
</linearGradient>
<linearGradient id="paint3_linear_3983_2173" x1="13.6907" y1="13.1917" x2="16.1307" y2="13.1917" gradientUnits="userSpaceOnUse">
<stop stop-color="#283376"/>
<stop offset="1" stop-color="#1C67A6"/>
</linearGradient>
<linearGradient id="paint4_linear_3983_2173" x1="11.2507" y1="12.9417" x2="13.2507" y2="12.9417" gradientUnits="userSpaceOnUse">
<stop stop-color="#283376"/>
<stop offset="1" stop-color="#1C67A6"/>
</linearGradient>
</defs>
</svg>
