<svg width="24" height="25" viewBox="0 0 24 25" fill="none" xmlns="http://www.w3.org/2000/svg">
<path d="M19.5992 13.6017H15.9992C15.7792 13.6017 15.6892 13.5117 15.6892 13.2917V11.2917C15.6823 11.2507 15.6852 11.2087 15.6978 11.1691C15.7104 11.1295 15.7323 11.0935 15.7617 11.0641C15.7911 11.0348 15.8271 11.0129 15.8667 11.0003C15.9063 10.9876 15.9483 10.9847 15.9892 10.9917H19.5992V9.4917C19.5904 9.43639 19.6004 9.37972 19.6276 9.33076C19.6548 9.2818 19.6976 9.24339 19.7492 9.22169C19.8024 9.19853 19.8618 9.19382 19.918 9.20832C19.9742 9.22282 20.0239 9.25569 20.0592 9.3017L21.8992 11.0917L22.8992 12.0917C22.9343 12.1155 22.963 12.1476 22.9828 12.1851C23.0027 12.2225 23.013 12.2643 23.013 12.3067C23.013 12.3491 23.0027 12.3909 22.9828 12.4283C22.963 12.4658 22.9343 12.4979 22.8992 12.5217L20.1592 15.2517L20.0392 15.3817C19.9974 15.4084 19.9489 15.4226 19.8992 15.4226C19.8496 15.4226 19.8011 15.4084 19.7592 15.3817C19.7129 15.3615 19.6738 15.3278 19.647 15.285C19.6202 15.2421 19.6071 15.1922 19.6092 15.1417V13.6017H19.5992Z" fill="url(#paint0_linear_3983_13719)"/>
<path d="M4.82981 13.6017H8.38981C8.60981 13.6017 8.70981 13.5117 8.70981 13.2917V11.2917C8.70981 11.0917 8.60981 10.9917 8.39981 10.9917H4.82981V10.9117C4.82981 10.4217 4.82981 9.91171 4.82981 9.44171C4.8362 9.38542 4.82403 9.32858 4.79515 9.27984C4.76627 9.2311 4.72226 9.19313 4.66981 9.17171C4.61662 9.14854 4.55721 9.14384 4.50104 9.15833C4.44487 9.17283 4.39515 9.2057 4.35981 9.25171C3.75981 9.87171 3.14981 10.4917 2.52981 11.0917L1.52981 12.0917C1.49475 12.1155 1.46605 12.1476 1.44622 12.1851C1.42638 12.2226 1.41602 12.2643 1.41602 12.3067C1.41602 12.3491 1.42638 12.3909 1.44622 12.4283C1.46605 12.4658 1.49475 12.4979 1.52981 12.5217L4.25981 15.2517L4.37981 15.3817C4.42162 15.4084 4.4702 15.4226 4.51981 15.4226C4.56943 15.4226 4.61801 15.4084 4.65981 15.3817C4.70614 15.3615 4.74527 15.3278 4.77205 15.285C4.79882 15.2421 4.81199 15.1922 4.80981 15.1417V13.6017H4.82981Z" fill="url(#paint1_linear_3983_13719)"/>
<path d="M10.8396 19.5817V16.0217C10.8396 15.8017 10.9296 15.7117 11.1496 15.7017H13.1496C13.3496 15.7017 13.4496 15.8017 13.4496 16.0117V19.5817H14.9996C15.0556 19.5769 15.1118 19.5898 15.1602 19.6184C15.2086 19.6471 15.2468 19.6902 15.2696 19.7417C15.2927 19.7949 15.2974 19.8543 15.2829 19.9105C15.2684 19.9667 15.2356 20.0164 15.1896 20.0517C14.5696 20.6617 13.9596 21.2717 13.3496 21.8917L12.3496 22.8917C12.3257 22.9268 12.2937 22.9555 12.2562 22.9753C12.2187 22.9951 12.177 23.0055 12.1346 23.0055C12.0922 23.0055 12.0504 22.9951 12.0129 22.9753C11.9755 22.9555 11.9434 22.9268 11.9196 22.8917L9.19956 20.1317L9.06956 20.0117C9.03154 19.9772 9.0046 19.9321 8.99214 19.8823C8.97968 19.8325 8.98226 19.7801 8.99956 19.7317C9.01972 19.6854 9.05344 19.6463 9.09629 19.6195C9.13913 19.5927 9.18908 19.5795 9.23956 19.5817H10.8196H10.8396Z" fill="url(#paint2_linear_3983_13719)"/>
<path d="M10.8396 4.8117V8.3717C10.8396 8.5917 10.9296 8.6817 11.1496 8.6817H13.1496C13.1905 8.68868 13.2326 8.68575 13.2721 8.67314C13.3117 8.66053 13.3477 8.63862 13.3771 8.60924C13.4065 8.57986 13.4284 8.54387 13.441 8.50428C13.4536 8.46469 13.4565 8.42266 13.4496 8.3817V4.8117H14.9996C15.0549 4.82055 15.1115 4.81058 15.1605 4.78338C15.2095 4.75618 15.2479 4.71333 15.2696 4.6617C15.2927 4.60851 15.2974 4.5491 15.2829 4.49292C15.2684 4.43675 15.2356 4.38704 15.1896 4.3517L13.3496 2.4917L12.3496 1.4917C12.3257 1.45664 12.2937 1.42794 12.2562 1.4081C12.2187 1.38827 12.177 1.3779 12.1346 1.3779C12.0922 1.3779 12.0504 1.38827 12.0129 1.4081C11.9755 1.42794 11.9434 1.45664 11.9196 1.4917L9.19956 4.2617L9.06956 4.3817C9.03154 4.41623 9.0046 4.46126 8.99214 4.51109C8.97968 4.56093 8.98226 4.61333 8.99956 4.6617C9.01972 4.70802 9.05344 4.74715 9.09629 4.77393C9.13913 4.80071 9.18908 4.81387 9.23956 4.8117H10.8196H10.8396Z" fill="url(#paint3_linear_3983_13719)"/>
<path d="M12.3205 14.7917C11.8257 14.7937 11.3413 14.6487 10.9289 14.3752C10.5165 14.1017 10.1945 13.712 10.0037 13.2554C9.81298 12.7987 9.76204 12.2957 9.85737 11.8101C9.9527 11.3245 10.19 10.8781 10.5392 10.5275C10.8885 10.1769 11.3339 9.93777 11.8191 9.84049C12.3044 9.74322 12.8075 9.79214 13.2649 9.98106C13.7223 10.17 14.1134 10.4904 14.3885 10.9017C14.6637 11.3131 14.8105 11.7968 14.8105 12.2917C14.8106 12.953 14.5485 13.5874 14.0819 14.0559C13.6152 14.5245 12.9819 14.7891 12.3205 14.7917ZM12.3205 10.6517C11.9951 10.6576 11.6787 10.7597 11.4112 10.945C11.1436 11.1303 10.9368 11.3906 10.8168 11.6931C10.6968 11.9957 10.669 12.327 10.7368 12.6453C10.8046 12.9636 10.9651 13.2548 11.198 13.4821C11.4309 13.7095 11.7258 13.8629 12.0457 13.923C12.3656 13.9832 12.6961 13.9473 12.9957 13.8201C13.2952 13.6929 13.5505 13.4799 13.7293 13.2079C13.9081 12.9359 14.0025 12.6172 14.0005 12.2917C13.9993 12.0733 13.9546 11.8574 13.8693 11.6563C13.7839 11.4553 13.6594 11.2733 13.5032 11.1207C13.3469 10.9682 13.1619 10.8482 12.9589 10.7676C12.7559 10.6871 12.5389 10.6477 12.3205 10.6517Z" fill="url(#paint4_linear_3983_13719)"/>
<defs>
<linearGradient id="paint0_linear_3983_13719" x1="15.7292" y1="12.2917" x2="22.9992" y2="12.2917" gradientUnits="userSpaceOnUse">
<stop stop-color="#283376"/>
<stop offset="1" stop-color="#1C67A6"/>
</linearGradient>
<linearGradient id="paint1_linear_3983_13719" x1="1.42981" y1="12.2917" x2="8.70981" y2="12.2917" gradientUnits="userSpaceOnUse">
<stop stop-color="#283376"/>
<stop offset="1" stop-color="#1C67A6"/>
</linearGradient>
<linearGradient id="paint2_linear_3983_13719" x1="8.99956" y1="19.3417" x2="15.2896" y2="19.3417" gradientUnits="userSpaceOnUse">
<stop stop-color="#283376"/>
<stop offset="1" stop-color="#1C67A6"/>
</linearGradient>
<linearGradient id="paint3_linear_3983_13719" x1="8.99956" y1="5.0517" x2="15.2896" y2="5.0517" gradientUnits="userSpaceOnUse">
<stop stop-color="#283376"/>
<stop offset="1" stop-color="#1C67A6"/>
</linearGradient>
<linearGradient id="paint4_linear_3983_13719" x1="9.82055" y1="12.2917" x2="14.8105" y2="12.2917" gradientUnits="userSpaceOnUse">
<stop stop-color="#283376"/>
<stop offset="1" stop-color="#1C67A6"/>
</linearGradient>
</defs>
</svg>
