<svg width="24" height="25" viewBox="0 0 24 25" fill="none" xmlns="http://www.w3.org/2000/svg">
<path d="M20.3004 1.4917H20.3904C20.7014 1.54647 20.9904 1.68828 21.224 1.90068C21.4577 2.11307 21.6263 2.38735 21.7104 2.6917C21.8243 3.00148 21.8433 3.33818 21.7649 3.65881C21.6865 3.97943 21.5144 4.26941 21.2704 4.4917L18.6404 7.1017L15.5904 10.1017C15.4567 10.2314 15.2963 10.3304 15.1204 10.3917C14.3104 10.6717 13.5004 10.9417 12.6804 11.2017C12.5376 11.2452 12.3896 11.2687 12.2404 11.2717H8.87039C8.75351 11.2717 8.63778 11.2947 8.5298 11.3394C8.42182 11.3842 8.32371 11.4497 8.24107 11.5324C8.15842 11.615 8.09286 11.7131 8.04814 11.8211C8.00341 11.9291 7.98039 12.0448 7.98039 12.1617C7.98039 12.2786 8.00341 12.3943 8.04814 12.5023C8.09286 12.6103 8.15842 12.7084 8.24107 12.791C8.32371 12.8737 8.42182 12.9392 8.5298 12.984C8.63778 13.0287 8.75351 13.0517 8.87039 13.0517H14.1204C14.5281 13.0302 14.9306 13.1511 15.259 13.3937C15.5874 13.6364 15.8212 13.9856 15.9204 14.3817C15.9656 14.6492 15.9856 14.9204 15.9804 15.1917C15.9782 15.2422 15.9914 15.2921 16.0182 15.335C16.0449 15.3778 16.0841 15.4115 16.1304 15.4317C16.4029 15.5595 16.6227 15.7778 16.7522 16.0496C16.8817 16.3213 16.9128 16.6295 16.8404 16.9217C16.7666 17.2097 16.5985 17.4647 16.3629 17.6459C16.1272 17.8272 15.8377 17.9243 15.5404 17.9217C15.244 17.9209 14.9561 17.8225 14.7211 17.6417C14.4862 17.461 14.3172 17.208 14.2404 16.9217C14.166 16.6279 14.195 16.3174 14.3224 16.0425C14.4499 15.7675 14.6681 15.5448 14.9404 15.4117C14.9963 15.3953 15.0439 15.3583 15.0736 15.3082C15.1033 15.2581 15.1129 15.1986 15.1004 15.1417C15.0954 15.0651 15.0954 14.9883 15.1004 14.9117C15.1165 14.7765 15.1017 14.6394 15.0571 14.5108C15.0125 14.3821 14.9394 14.2653 14.8431 14.169C14.7468 14.0727 14.63 13.9996 14.5013 13.955C14.3727 13.9104 14.2356 13.8956 14.1004 13.9117H8.94039C8.70532 13.9117 8.47256 13.8654 8.25539 13.7754C8.03821 13.6855 7.84089 13.5536 7.67467 13.3874C7.50845 13.2212 7.3766 13.0239 7.28665 12.8067C7.19669 12.5895 7.15039 12.3568 7.15039 12.1217C7.15039 11.8866 7.19669 11.6539 7.28665 11.4367C7.3766 11.2195 7.50845 11.0222 7.67467 10.856C7.84089 10.6898 8.03821 10.5579 8.25539 10.468C8.47256 10.378 8.70532 10.3317 8.94039 10.3317H11.9404C12.1204 10.3317 12.2004 10.3317 12.2504 10.1217C12.4704 9.4217 12.7004 8.7317 12.9404 8.0417C13.0017 7.88749 13.0897 7.74531 13.2004 7.6217L18.6204 2.1917C18.937 1.85322 19.3424 1.61064 19.7904 1.4917H20.3004ZM15.1404 9.2817L19.3704 5.0517L19.1104 4.7917L17.3604 6.5617L16.6904 5.9117L18.4604 4.1517L18.2204 3.9017L14.0004 8.1317L14.3004 8.4117L16.0804 6.6217L16.7204 7.2317L14.9004 9.0217L15.1404 9.2817ZM20.0604 4.4117C20.2704 4.2017 20.4804 4.0117 20.6804 3.7917C20.8147 3.63995 20.8888 3.44432 20.8888 3.2417C20.8888 3.03908 20.8147 2.84345 20.6804 2.6917C20.5605 2.53215 20.3853 2.42318 20.1892 2.38617C19.9931 2.34917 19.7902 2.38681 19.6204 2.4917C19.3507 2.70666 19.0968 2.94059 18.8604 3.1917L20.0604 4.4117ZM13.5204 8.9617L13.1204 10.1617L14.3204 9.7617L13.5204 8.9617ZM15.5204 17.1017C15.6397 17.1017 15.7542 17.0543 15.8386 16.9699C15.923 16.8855 15.9704 16.771 15.9704 16.6517C15.9631 16.5383 15.9141 16.4317 15.8329 16.3523C15.7516 16.2729 15.6439 16.2264 15.5304 16.2217C15.4726 16.2204 15.4151 16.2304 15.3612 16.2513C15.3073 16.2722 15.2581 16.3035 15.2163 16.3435C15.1745 16.3834 15.141 16.4312 15.1177 16.4841C15.0944 16.5369 15.0817 16.5939 15.0804 16.6517C15.0774 16.7124 15.0873 16.7731 15.1095 16.8297C15.1317 16.8864 15.1657 16.9376 15.2092 16.9802C15.2527 17.0227 15.3047 17.0555 15.3617 17.0765C15.4188 17.0974 15.4797 17.106 15.5404 17.1017H15.5204Z" fill="url(#paint0_linear_3983_7619)"/>
<path d="M19.1105 7.3017H19.6205C19.7185 7.31462 19.8092 7.36011 19.8781 7.43086C19.947 7.5016 19.9902 7.59347 20.0005 7.6917C20.0055 7.76161 20.0055 7.83179 20.0005 7.9017V18.7517C20.0209 18.9511 19.9966 19.1525 19.9294 19.3413C19.8622 19.5301 19.7538 19.7016 19.6121 19.8433C19.4704 19.985 19.2989 20.0933 19.1101 20.1605C18.9213 20.2277 18.7199 20.252 18.5205 20.2317H14.2105V22.0117H15.0905V22.9017H7.09053V22.0217H7.95053V20.2317H3.59053C3.39889 20.2449 3.20664 20.217 3.02663 20.1499C2.84663 20.0829 2.68301 19.9781 2.5467 19.8428C2.4104 19.7074 2.30455 19.5445 2.23623 19.365C2.16791 19.1855 2.13869 18.9934 2.15053 18.8017V8.7417C2.1355 8.54877 2.16244 8.35487 2.2295 8.17334C2.29655 7.99182 2.40213 7.82697 2.53896 7.69013C2.6758 7.55329 2.84065 7.44772 3.02217 7.38067C3.2037 7.31361 3.3976 7.28667 3.59053 7.3017H12.0005V8.1917H3.64053C3.19053 8.1917 3.05053 8.3317 3.05053 8.7817V18.7817C3.05053 19.2317 3.19053 19.3717 3.65053 19.3717H18.5005C18.9705 19.3717 19.1105 19.2217 19.1105 18.7517V7.3017ZM13.3005 20.2417H8.86053V21.9917H13.3005V20.2417Z" fill="url(#paint1_linear_3983_7619)"/>
<path d="M6.16 17.5517V18.4917C5.70481 18.5372 5.24522 18.5068 4.8 18.4017C4.56936 18.3114 4.37047 18.155 4.22818 17.9523C4.08589 17.7495 4.00653 17.5093 4 17.2617C4 16.9217 4 16.5817 4 16.2617H4.88V17.0217C4.88 17.4217 5.04 17.5817 5.44 17.5817L6.16 17.5517Z" fill="url(#paint2_linear_3983_7619)"/>
<path d="M4.81 15.3117H4V14.4917H4.86L4.81 15.3117Z" fill="url(#paint3_linear_3983_7619)"/>
<defs>
<linearGradient id="paint0_linear_3983_7619" x1="7.06039" y1="9.7517" x2="21.7904" y2="9.7517" gradientUnits="userSpaceOnUse">
<stop stop-color="#283376"/>
<stop offset="1" stop-color="#1C67A6"/>
</linearGradient>
<linearGradient id="paint1_linear_3983_7619" x1="2.15053" y1="15.1017" x2="20.0005" y2="15.1017" gradientUnits="userSpaceOnUse">
<stop stop-color="#283376"/>
<stop offset="1" stop-color="#1C67A6"/>
</linearGradient>
<linearGradient id="paint2_linear_3983_7619" x1="3.93" y1="17.3417" x2="6.16" y2="17.3417" gradientUnits="userSpaceOnUse">
<stop stop-color="#283376"/>
<stop offset="1" stop-color="#1C67A6"/>
</linearGradient>
<linearGradient id="paint3_linear_3983_7619" x1="3.95" y1="14.8817" x2="4.81" y2="14.8817" gradientUnits="userSpaceOnUse">
<stop stop-color="#283376"/>
<stop offset="1" stop-color="#1C67A6"/>
</linearGradient>
</defs>
</svg>
