<svg width="24" height="25" viewBox="0 0 24 25" fill="none" xmlns="http://www.w3.org/2000/svg">
<path d="M1 11.4917C1.07581 11.2974 1.21746 11.1358 1.40024 11.0353C1.58301 10.9348 1.79529 10.9017 2 10.9417C2.65 10.9417 3.3 10.9417 4 10.9417C4.21082 10.9573 4.42117 10.9057 4.60083 10.7943C4.7805 10.6829 4.92025 10.5175 5 10.3217C5.12775 10.0614 5.24125 9.79433 5.34 9.5217C5.42262 9.31521 5.43404 9.08708 5.37246 8.87337C5.31088 8.65966 5.17982 8.47257 5 8.3417L3.51 6.8817C3.4227 6.81342 3.3521 6.72616 3.30354 6.62653C3.25499 6.52691 3.22975 6.41753 3.22975 6.3067C3.22975 6.19587 3.25499 6.0865 3.30354 5.98687C3.3521 5.88725 3.4227 5.79998 3.51 5.7317L4.8 4.4917C4.86719 4.39475 4.95686 4.31553 5.06136 4.26081C5.16585 4.2061 5.28205 4.17751 5.4 4.17751C5.51795 4.17751 5.63415 4.2061 5.73864 4.26081C5.84314 4.31553 5.93281 4.39475 6 4.4917L7.45 5.9117C7.59582 6.08123 7.79425 6.197 8.01359 6.2405C8.23292 6.28401 8.46052 6.25274 8.66 6.1517C8.92 6.0517 9.18 5.9517 9.44 5.8317C9.63391 5.75033 9.79723 5.60989 9.90674 5.43037C10.0163 5.25084 10.0664 5.04136 10.05 4.8317V2.7217C10.0391 2.61395 10.0522 2.50511 10.0886 2.40307C10.1249 2.30104 10.1835 2.20837 10.2601 2.13178C10.3367 2.05519 10.4293 1.99661 10.5314 1.96027C10.6334 1.92394 10.7422 1.91076 10.85 1.9217H12.73C12.8355 1.91097 12.9421 1.92369 13.0422 1.95895C13.1422 1.99421 13.2332 2.05114 13.3087 2.12566C13.3842 2.20018 13.4422 2.29046 13.4788 2.39004C13.5153 2.48963 13.5294 2.59605 13.52 2.7017C13.52 3.4017 13.52 4.1017 13.52 4.8017C13.504 5.03731 13.5671 5.27153 13.6994 5.46718C13.8316 5.66284 14.0254 5.80873 14.25 5.8817C15.58 6.4417 15.6 6.4417 16.63 5.4117L17.63 4.4117C17.6983 4.3244 17.7855 4.2538 17.8852 4.20524C17.9848 4.15669 18.0942 4.13145 18.205 4.13145C18.3158 4.13145 18.4252 4.15669 18.5248 4.20524C18.6245 4.2538 18.7117 4.3244 18.78 4.4117L20.09 5.7317C20.1737 5.80017 20.2411 5.88637 20.2874 5.98409C20.3337 6.0818 20.3577 6.18857 20.3577 6.2967C20.3577 6.40483 20.3337 6.51161 20.2874 6.60932C20.2411 6.70703 20.1737 6.79323 20.09 6.8617L18.61 8.3317C18.4318 8.48692 18.3111 8.69772 18.2676 8.93C18.224 9.16228 18.2601 9.40247 18.37 9.6117L18.67 10.3017C18.7413 10.5068 18.8775 10.6831 19.0579 10.804C19.2383 10.9249 19.4532 10.9838 19.67 10.9717H21.76C21.8676 10.9594 21.9766 10.9712 22.0791 11.0063C22.1816 11.0413 22.275 11.0988 22.3526 11.1744C22.4301 11.25 22.4899 11.342 22.5275 11.4435C22.5651 11.5451 22.5796 11.6538 22.57 11.7617V13.6517C22.5796 13.7596 22.5651 13.8683 22.5275 13.9699C22.4899 14.0714 22.4301 14.1634 22.3526 14.239C22.275 14.3147 22.1816 14.3721 22.0791 14.4071C21.9766 14.4422 21.8676 14.454 21.76 14.4417H19.76C19.5136 14.4076 19.2633 14.4666 19.0581 14.6072C18.8529 14.7477 18.7074 14.9597 18.65 15.2017L18.43 15.6917C18.08 15.3417 17.74 15.0117 17.43 14.6917C17.38 14.6317 17.43 14.4917 17.43 14.3917C17.6739 13.5602 17.7278 12.6846 17.5875 11.8295C17.4473 10.9744 17.1167 10.1617 16.62 9.4517C16.0684 8.65011 15.3264 7.99795 14.4607 7.55369C13.595 7.10943 12.6325 6.88697 11.6596 6.90625C10.6868 6.92553 9.73389 7.18596 8.88644 7.66416C8.03899 8.14237 7.32347 8.82342 6.80403 9.64624C6.28459 10.4691 5.97747 11.4079 5.91021 12.3787C5.84296 13.3494 6.01766 14.3217 6.41866 15.2083C6.81966 16.0948 7.43442 16.8681 8.20782 17.4586C8.98122 18.0491 9.88908 18.4384 10.85 18.5917C11.7187 18.7378 12.6097 18.6761 13.45 18.4117C13.5172 18.3847 13.5912 18.3798 13.6614 18.3978C13.7315 18.4158 13.7941 18.4557 13.84 18.5117L14.78 19.4317L14.25 19.6517C14.0254 19.7247 13.8316 19.8706 13.6994 20.0662C13.5671 20.2619 13.504 20.4961 13.52 20.7317C13.52 21.3417 13.52 21.9517 13.52 22.5617C13.5453 22.7521 13.5083 22.9455 13.4145 23.1131C13.3208 23.2807 13.1754 23.4135 13 23.4917H10.59C10.3882 23.4232 10.2177 23.2847 10.1095 23.1012C10.0012 22.9177 9.96237 22.7014 10 22.4917C10 21.8717 10 21.2517 10 20.6317C10.0006 20.4132 9.9337 20.1998 9.80839 20.0208C9.68308 19.8418 9.50552 19.7059 9.3 19.6317L8.61 19.3517C8.39283 19.2329 8.14095 19.1939 7.89802 19.2414C7.6551 19.2889 7.43646 19.4199 7.28 19.6117C6.82 20.0617 6.38 20.5217 5.92 20.9717C5.85084 21.061 5.76216 21.1332 5.66076 21.183C5.55936 21.2327 5.44793 21.2585 5.335 21.2585C5.22207 21.2585 5.11064 21.2327 5.00924 21.183C4.90784 21.1332 4.81916 21.061 4.75 20.9717L3.53 19.7117C3.43297 19.6423 3.3539 19.5508 3.29935 19.4447C3.2448 19.3386 3.21635 19.221 3.21635 19.1017C3.21635 18.9824 3.2448 18.8648 3.29935 18.7587C3.3539 18.6527 3.43297 18.5611 3.53 18.4917L4.92 17.1017C5.08639 16.9472 5.19933 16.7438 5.24247 16.5209C5.28562 16.298 5.25673 16.0671 5.16 15.8617C5.07 15.6217 4.97 15.3817 4.87 15.1417C4.79706 14.9354 4.66146 14.757 4.48217 14.6315C4.30288 14.506 4.08885 14.4396 3.87 14.4417C3.22 14.4417 2.57 14.4417 1.92 14.4417C1.7289 14.4632 1.53598 14.4222 1.37013 14.3248C1.20428 14.2275 1.07442 14.079 1 13.9017V11.4917Z" fill="url(#paint0_linear_3983_5848)"/>
<path d="M10.8801 8.69169C11.4325 8.5094 12.0189 8.45429 12.5955 8.53048C13.1721 8.60668 13.7241 8.8122 14.2101 9.13169C15.0464 9.6251 15.6863 10.3924 16.0217 11.3036C16.357 12.2148 16.367 13.2139 16.0501 14.1317C15.973 14.3193 15.9585 14.5268 16.009 14.7232C16.0595 14.9197 16.1721 15.0945 16.3301 15.2217C17.8601 16.6717 19.3301 18.1417 20.8801 19.6117C21.0866 19.7726 21.2438 19.9881 21.3339 20.2338C21.4241 20.4794 21.4435 20.7455 21.3901 21.0017C21.3425 21.2669 21.2219 21.5136 21.0419 21.7141C20.8618 21.9146 20.6295 22.061 20.3709 22.1368C20.1123 22.2126 19.8377 22.2148 19.5779 22.1433C19.3181 22.0717 19.0834 21.9292 18.9001 21.7317C17.3601 20.2384 15.8301 18.7417 14.3101 17.2417C14.1734 17.0846 13.9909 16.9742 13.7884 16.9258C13.5858 16.8773 13.3731 16.8934 13.1801 16.9717C12.5848 17.161 11.9554 17.2186 11.3356 17.1405C10.7158 17.0624 10.1203 16.8505 9.59051 16.5195C9.0607 16.1885 8.60918 15.7463 8.26723 15.2235C7.92528 14.7007 7.70107 14.1097 7.61013 13.4917C7.57527 13.0157 7.57527 12.5377 7.61013 12.0617C7.61904 12.0168 7.63692 11.9742 7.6627 11.9364C7.68847 11.8986 7.72161 11.8664 7.76013 11.8417C7.76013 11.8417 7.91013 11.9017 7.97013 11.9617C8.44013 12.4517 8.89013 12.9617 9.38013 13.4217C9.65972 13.7086 10.0127 13.9133 10.4005 14.0136C10.7884 14.1138 11.1963 14.1058 11.5799 13.9903C11.9635 13.8748 12.3081 13.6563 12.5761 13.3585C12.8442 13.0608 13.0254 12.6953 13.1001 12.3017C13.1743 11.9625 13.1589 11.6099 13.0554 11.2786C12.952 10.9472 12.764 10.6484 12.5101 10.4117C12.0501 9.92169 11.5701 9.41169 11.0901 8.99169L10.8801 8.69169ZM20.4901 20.6117C20.4915 20.5224 20.4752 20.4337 20.4422 20.3507C20.4093 20.2677 20.3603 20.192 20.2981 20.1279C20.2358 20.0638 20.1616 20.0126 20.0796 19.9773C19.9976 19.9419 19.9094 19.923 19.8201 19.9217C19.6388 19.9217 19.4648 19.993 19.3357 20.1202C19.2066 20.2475 19.1328 20.4204 19.1301 20.6017C19.1274 20.6917 19.143 20.7814 19.1762 20.8652C19.2094 20.9489 19.2594 21.025 19.3231 21.0887C19.3868 21.1524 19.4629 21.2024 19.5467 21.2356C19.6304 21.2688 19.7201 21.2845 19.8101 21.2817C19.8997 21.2859 19.9891 21.2715 20.0729 21.2394C20.1566 21.2074 20.2328 21.1583 20.2967 21.0954C20.3605 21.0325 20.4107 20.957 20.444 20.8738C20.4773 20.7905 20.493 20.7013 20.4901 20.6117Z" fill="url(#paint1_linear_3983_5848)"/>
<defs>
<linearGradient id="paint0_linear_3983_5848" x1="1" y1="12.7017" x2="22.57" y2="12.7017" gradientUnits="userSpaceOnUse">
<stop stop-color="#283376"/>
<stop offset="1" stop-color="#1C67A6"/>
</linearGradient>
<linearGradient id="paint1_linear_3983_5848" x1="7.59013" y1="15.3417" x2="21.4301" y2="15.3417" gradientUnits="userSpaceOnUse">
<stop stop-color="#283376"/>
<stop offset="1" stop-color="#1C67A6"/>
</linearGradient>
</defs>
</svg>
