<svg width="24" height="25" viewBox="0 0 24 25" fill="none" xmlns="http://www.w3.org/2000/svg">
<path d="M12.1592 17.8117H10.2092C10.0789 17.822 9.94882 17.7895 9.83872 17.7191C9.72861 17.6487 9.6445 17.5443 9.59917 17.4217C9.04917 16.1617 8.47917 14.9017 7.92917 13.6417C7.45142 12.6627 7.22461 11.5802 7.26917 10.4917C7.39573 9.22061 8.00397 8.04617 8.96908 7.20937C9.9342 6.37257 11.183 5.93687 12.4592 5.9917C13.26 6.01193 14.0436 6.22862 14.7411 6.62269C15.4386 7.01676 16.0286 7.57616 16.4592 8.2517C16.8056 8.79524 17.0328 9.40603 17.1259 10.0438C17.2189 10.6816 17.1758 11.3318 16.9992 11.9517C16.9392 12.2117 16.8592 12.4717 16.7792 12.7317C16.4392 13.8317 16.0992 14.9417 15.7792 16.0317C15.6505 16.4289 15.4795 16.8111 15.2692 17.1717C15.1537 17.3847 14.9788 17.5595 14.7657 17.6749C14.5527 17.7903 14.3107 17.8413 14.0692 17.8217C13.3992 17.8017 12.7792 17.8117 12.1592 17.8117ZM12.3292 16.8117C12.8892 16.8117 13.4392 16.8117 13.9992 16.8117C14.0832 16.8232 14.1687 16.8069 14.2427 16.7654C14.3167 16.7239 14.3751 16.6594 14.4092 16.5817C14.5392 16.2717 14.6892 15.9717 14.7892 15.6517C15.1092 14.6517 15.4092 13.6517 15.7192 12.7217C15.8092 12.4017 15.9092 12.0817 15.9892 11.7217C16.19 10.9893 16.1726 10.2143 15.9392 9.4917C15.6966 8.90293 15.317 8.38057 14.8319 7.96808C14.3467 7.55558 13.7702 7.26487 13.15 7.12011C12.5299 6.97535 11.8842 6.98073 11.2666 7.13581C10.649 7.29089 10.0773 7.59117 9.59917 8.0117C8.99548 8.51686 8.56555 9.19874 8.36999 9.96123C8.17444 10.7237 8.22312 11.5283 8.50917 12.2617C9.04917 13.7517 9.73917 15.1917 10.3792 16.6417C10.3792 16.7217 10.5692 16.7817 10.6692 16.7817C11.2292 16.8017 11.7792 16.7917 12.3292 16.7917V16.8117Z" fill="url(#paint0_linear_3983_4516)"/>
<path d="M12.1901 18.4917H14.3201C14.6601 18.4917 14.8701 18.6717 14.8801 18.9617C14.8901 19.2517 14.6701 19.4617 14.3201 19.4717H10.0701C9.72009 19.4717 9.50009 19.2617 9.51009 18.9617C9.52009 18.6617 9.73009 18.4917 10.0701 18.4917H12.1901Z" fill="url(#paint1_linear_3983_4516)"/>
<path d="M12.1802 20.9417H10.3202C9.97023 20.9417 9.74023 20.7517 9.74023 20.4517C9.74023 20.1517 9.96023 19.9617 10.3202 19.9617H14.0602C14.4202 19.9617 14.6402 20.1517 14.6402 20.4517C14.6402 20.7517 14.4202 20.9417 14.0602 20.9417H12.1802Z" fill="url(#paint2_linear_3983_4516)"/>
<path d="M10.6797 21.4917H13.6797C13.6771 21.6786 13.6374 21.8631 13.5629 22.0345C13.4883 22.2059 13.3805 22.3608 13.2456 22.4901C13.1106 22.6195 12.9513 22.7207 12.7769 22.7879C12.6025 22.8551 12.4165 22.887 12.2297 22.8817C12.0363 22.8938 11.8424 22.8674 11.6593 22.8038C11.4763 22.7403 11.3077 22.6409 11.1634 22.5115C11.0191 22.3821 10.902 22.2253 10.819 22.0502C10.736 21.8752 10.6886 21.6853 10.6797 21.4917Z" fill="url(#paint3_linear_3983_4516)"/>
<path d="M11.8008 3.2917V2.1117C11.8008 1.7717 11.9908 1.5617 12.2808 1.5517C12.5708 1.5417 12.7808 1.7617 12.7808 2.1217V4.4917C12.7891 4.56056 12.7831 4.63041 12.763 4.69681C12.7429 4.76321 12.7092 4.82469 12.6641 4.87736C12.6189 4.93003 12.5633 4.97273 12.5008 5.00275C12.4382 5.03276 12.3701 5.04943 12.3008 5.0517C12.0008 5.0517 11.8108 4.8317 11.8008 4.4817V3.2917Z" fill="url(#paint4_linear_3983_4516)"/>
<path d="M19.4609 4.4917C19.4118 4.60307 19.3479 4.70734 19.2709 4.8017C18.7109 5.3817 18.1409 5.9517 17.5609 6.5117C17.516 6.56113 17.4611 6.60062 17.4 6.62765C17.3389 6.65467 17.2728 6.66863 17.2059 6.66863C17.1391 6.66863 17.073 6.65467 17.0119 6.62765C16.9507 6.60062 16.8959 6.56113 16.8509 6.5117C16.8013 6.46582 16.7616 6.41015 16.7345 6.34819C16.7074 6.28623 16.6934 6.21933 16.6934 6.1517C16.6934 6.08407 16.7074 6.01717 16.7345 5.95521C16.7616 5.89325 16.8013 5.83758 16.8509 5.7917L18.5909 4.0917C18.659 4.01418 18.7502 3.96064 18.8511 3.93903C18.952 3.91742 19.0571 3.92887 19.1509 3.9717C19.2487 4.01748 19.3304 4.09149 19.3857 4.18417C19.4409 4.27686 19.4671 4.38397 19.4609 4.4917Z" fill="url(#paint5_linear_3983_4516)"/>
<path d="M7.88983 16.0517C7.84994 16.1573 7.79246 16.2553 7.71983 16.3417C7.15983 16.9217 6.58983 17.4917 6.00983 18.0517C5.96703 18.1047 5.91364 18.1482 5.85309 18.1794C5.79254 18.2106 5.72614 18.2288 5.65815 18.2329C5.59015 18.237 5.52205 18.2269 5.45819 18.2032C5.39433 18.1795 5.33611 18.1427 5.28725 18.0952C5.23839 18.0478 5.19996 17.9907 5.17442 17.9275C5.14888 17.8644 5.13679 17.7966 5.13891 17.7285C5.14104 17.6604 5.15733 17.5935 5.18676 17.5321C5.21619 17.4706 5.25811 17.416 5.30983 17.3717L6.99983 15.6417C7.06477 15.5483 7.16136 15.4817 7.27169 15.4541C7.38201 15.4265 7.4986 15.4399 7.59983 15.4917C7.70396 15.539 7.78917 15.6199 7.84176 15.7215C7.89436 15.8231 7.91129 15.9394 7.88983 16.0517Z" fill="url(#paint6_linear_3983_4516)"/>
<path d="M4.16095 11.5517H3.00095C2.93253 11.5587 2.8634 11.5513 2.79805 11.5298C2.7327 11.5083 2.67261 11.4734 2.62167 11.4271C2.57073 11.3809 2.5301 11.3245 2.50241 11.2615C2.47472 11.1986 2.46059 11.1305 2.46095 11.0617C2.46042 10.9933 2.47451 10.9255 2.50229 10.863C2.53008 10.8005 2.57091 10.7446 2.62204 10.6992C2.67318 10.6537 2.73344 10.6197 2.79879 10.5995C2.86414 10.5792 2.93307 10.5731 3.00095 10.5817H5.37095C5.50356 10.5817 5.63074 10.6344 5.72451 10.7281C5.81827 10.8219 5.87095 10.9491 5.87095 11.0817C5.87095 11.2143 5.81827 11.3415 5.72451 11.4353C5.63074 11.529 5.50356 11.5817 5.37095 11.5817L4.16095 11.5517Z" fill="url(#paint7_linear_3983_4516)"/>
<path d="M20.2695 11.5517H19.0695C19.0008 11.5604 18.931 11.5541 18.8649 11.5333C18.7988 11.5124 18.738 11.4775 18.6867 11.431C18.6354 11.3844 18.5948 11.3273 18.5677 11.2636C18.5405 11.1998 18.5275 11.131 18.5295 11.0617C18.5288 10.9923 18.5431 10.9236 18.5714 10.8603C18.5998 10.797 18.6416 10.7405 18.6939 10.6949C18.7461 10.6493 18.8077 10.6155 18.8743 10.596C18.9408 10.5765 19.0109 10.5716 19.0795 10.5817H21.4695C21.6021 10.5817 21.7293 10.6344 21.823 10.7281C21.9168 10.8219 21.9695 10.9491 21.9695 11.0817C21.9695 11.2143 21.9168 11.3415 21.823 11.4353C21.7293 11.529 21.6021 11.5817 21.4695 11.5817L20.2695 11.5517Z" fill="url(#paint8_linear_3983_4516)"/>
<path d="M8.06036 6.3217C7.96201 6.47001 7.8443 6.60453 7.71036 6.7217C7.62028 6.77402 7.51457 6.79268 7.41202 6.77437C7.30948 6.75606 7.21676 6.70196 7.15036 6.6217C6.75036 6.2217 6.36036 5.8217 5.96036 5.4317L5.43036 4.8917C5.38197 4.84506 5.34347 4.78914 5.31718 4.72728C5.29089 4.66543 5.27734 4.59891 5.27734 4.5317C5.27734 4.46449 5.29089 4.39797 5.31718 4.33611C5.34347 4.27426 5.38197 4.21834 5.43036 4.1717C5.47624 4.12201 5.53191 4.08236 5.59387 4.05524C5.65582 4.02812 5.72272 4.01411 5.79036 4.01411C5.85799 4.01411 5.92489 4.02812 5.98685 4.05524C6.0488 4.08236 6.10447 4.12201 6.15036 4.1717C6.73036 4.7417 7.30036 5.3217 7.87036 5.9017C7.95183 6.03276 8.01571 6.17397 8.06036 6.3217Z" fill="url(#paint9_linear_3983_4516)"/>
<path d="M17.0698 15.3217C17.2113 15.3873 17.3454 15.4677 17.4698 15.5617C18.0498 16.1217 18.6298 16.7017 19.1998 17.2817C19.2523 17.3252 19.2951 17.3792 19.3255 17.4403C19.3559 17.5013 19.3732 17.568 19.3763 17.6361C19.3795 17.7041 19.3684 17.7721 19.3438 17.8357C19.3191 17.8993 19.2815 17.957 19.2333 18.0052C19.1851 18.0534 19.1274 18.091 19.0638 18.1156C19.0003 18.1403 18.9323 18.1513 18.8642 18.1482C18.7961 18.145 18.7294 18.1277 18.6684 18.0973C18.6074 18.0669 18.5534 18.0241 18.5098 17.9717C17.9198 17.4017 17.3398 16.8117 16.7698 16.2317C16.6904 16.167 16.6366 16.076 16.6183 15.9752C16.5999 15.8743 16.6182 15.7702 16.6698 15.6817C16.7837 15.5417 16.9186 15.4202 17.0698 15.3217Z" fill="url(#paint10_linear_3983_4516)"/>
<defs>
<linearGradient id="paint0_linear_3983_4516" x1="7.25917" y1="11.9117" x2="17.1492" y2="11.9117" gradientUnits="userSpaceOnUse">
<stop stop-color="#283376"/>
<stop offset="1" stop-color="#1C67A6"/>
</linearGradient>
<linearGradient id="paint1_linear_3983_4516" x1="9.51009" y1="18.9417" x2="14.8801" y2="18.9417" gradientUnits="userSpaceOnUse">
<stop stop-color="#283376"/>
<stop offset="1" stop-color="#1C67A6"/>
</linearGradient>
<linearGradient id="paint2_linear_3983_4516" x1="9.74023" y1="20.4517" x2="14.6402" y2="20.4517" gradientUnits="userSpaceOnUse">
<stop stop-color="#283376"/>
<stop offset="1" stop-color="#1C67A6"/>
</linearGradient>
<linearGradient id="paint3_linear_3983_4516" x1="10.6797" y1="22.1817" x2="13.6997" y2="22.1817" gradientUnits="userSpaceOnUse">
<stop stop-color="#283376"/>
<stop offset="1" stop-color="#1C67A6"/>
</linearGradient>
<linearGradient id="paint4_linear_3983_4516" x1="11.8008" y1="3.2917" x2="12.7808" y2="3.2917" gradientUnits="userSpaceOnUse">
<stop stop-color="#283376"/>
<stop offset="1" stop-color="#1C67A6"/>
</linearGradient>
<linearGradient id="paint5_linear_3983_4516" x1="16.7009" y1="5.3017" x2="19.4609" y2="5.3017" gradientUnits="userSpaceOnUse">
<stop stop-color="#283376"/>
<stop offset="1" stop-color="#1C67A6"/>
</linearGradient>
<linearGradient id="paint6_linear_3983_4516" x1="5.13983" y1="16.8517" x2="7.88983" y2="16.8517" gradientUnits="userSpaceOnUse">
<stop stop-color="#283376"/>
<stop offset="1" stop-color="#1C67A6"/>
</linearGradient>
<linearGradient id="paint7_linear_3983_4516" x1="2.42095" y1="11.0617" x2="5.90095" y2="11.0617" gradientUnits="userSpaceOnUse">
<stop stop-color="#283376"/>
<stop offset="1" stop-color="#1C67A6"/>
</linearGradient>
<linearGradient id="paint8_linear_3983_4516" x1="18.5295" y1="11.0617" x2="21.9995" y2="11.0617" gradientUnits="userSpaceOnUse">
<stop stop-color="#283376"/>
<stop offset="1" stop-color="#1C67A6"/>
</linearGradient>
<linearGradient id="paint9_linear_3983_4516" x1="5.26036" y1="5.4017" x2="8.06036" y2="5.4017" gradientUnits="userSpaceOnUse">
<stop stop-color="#283376"/>
<stop offset="1" stop-color="#1C67A6"/>
</linearGradient>
<linearGradient id="paint10_linear_3983_4516" x1="16.5998" y1="16.7317" x2="19.3598" y2="16.7317" gradientUnits="userSpaceOnUse">
<stop stop-color="#283376"/>
<stop offset="1" stop-color="#1C67A6"/>
</linearGradient>
</defs>
</svg>
