<svg width="24" height="25" viewBox="0 0 24 25" fill="none" xmlns="http://www.w3.org/2000/svg">
<path d="M22.9998 13.9517L22.8198 14.1017L20.8198 16.1017C20.8198 16.1617 20.7098 16.2117 20.6198 16.3017V14.9617H17.5098V12.8717H20.6098V11.5417L22.9998 13.9017V13.9517Z" fill="url(#paint0_linear_3983_12014)"/>
<path d="M12.72 10.1317L13.88 8.9617L15.09 10.1717L13.92 11.3217C14.2439 11.8094 14.4776 12.3514 14.61 12.9217C14.61 12.9717 14.72 13.0217 14.78 13.0317H16.31V14.7517H14.79C14.7139 14.7665 14.6461 14.8093 14.6 14.8717C14.4748 15.4269 14.2513 15.9552 13.94 16.4317L15.11 17.6017L13.89 18.8217L12.77 17.6917L11 18.4117V20.0317H9.32V18.4117L7.58 17.7017L6.47 18.8317L5.24 17.6117L6.39 16.4917C6.23 16.1417 6.07 15.8217 5.93 15.4917C5.85379 15.3115 5.79681 15.1238 5.76 14.9317C5.76 14.7817 5.66 14.7417 5.53 14.7517H4V13.0417H5.65L6.36 11.3017L5.22 10.2017L6.46 8.9617L7.62 10.1317C8.10416 9.82561 8.6393 9.60884 9.2 9.4917C9.25 9.4917 9.31 9.3617 9.31 9.3017C9.31 8.8017 9.31 8.3017 9.31 7.8017H11V9.2717C11 9.3717 11 9.4417 11.14 9.4617C11.7053 9.5799 12.242 9.80751 12.72 10.1317ZM10.17 12.0117C9.79817 12.0117 9.43469 12.122 9.12553 12.3285C8.81636 12.5351 8.5754 12.8287 8.43311 13.1723C8.29081 13.5158 8.25358 13.8938 8.32612 14.2585C8.39866 14.6232 8.57772 14.9581 8.84064 15.2211C9.10356 15.484 9.43855 15.663 9.80323 15.7356C10.1679 15.8081 10.5459 15.7709 10.8894 15.6286C11.233 15.4863 11.5266 15.2453 11.7332 14.9362C11.9397 14.627 12.05 14.2635 12.05 13.8917C12.0448 13.3947 11.8451 12.9195 11.4936 12.5681C11.1422 12.2166 10.667 12.0169 10.17 12.0117Z" fill="url(#paint1_linear_3983_12014)"/>
<path d="M3.91915 18.4017L2.72915 19.6017C1.32649 17.7988 0.60737 15.5575 0.699234 13.275C0.791098 10.9926 1.68801 8.81634 3.23103 7.13196C4.77404 5.44758 6.86353 4.36382 9.12921 4.07274C11.3949 3.78167 13.6905 4.30206 15.6091 5.54171L16.8491 4.22171L17.2591 8.22171L13.4691 7.88171L14.3791 6.88171C12.9846 6.02977 11.3574 5.63798 9.72783 5.76181C8.0983 5.88564 6.54898 6.51881 5.29915 7.57171C3.74024 8.86644 2.73077 10.7045 2.47463 12.7147C2.21848 14.7249 2.73474 16.7574 3.91915 18.4017Z" fill="url(#paint2_linear_3983_12014)"/>
<defs>
<linearGradient id="paint0_linear_3983_12014" x1="17.5098" y1="13.9117" x2="22.9998" y2="13.9117" gradientUnits="userSpaceOnUse">
<stop stop-color="#283376"/>
<stop offset="1" stop-color="#1C67A6"/>
</linearGradient>
<linearGradient id="paint1_linear_3983_12014" x1="4.03" y1="13.8917" x2="16.31" y2="13.8917" gradientUnits="userSpaceOnUse">
<stop stop-color="#283376"/>
<stop offset="1" stop-color="#1C67A6"/>
</linearGradient>
<linearGradient id="paint2_linear_3983_12014" x1="0.699147" y1="11.8117" x2="17.2591" y2="11.8117" gradientUnits="userSpaceOnUse">
<stop stop-color="#283376"/>
<stop offset="1" stop-color="#1C67A6"/>
</linearGradient>
</defs>
</svg>
