<svg width="20" height="21" viewBox="0 0 20 21" fill="none" xmlns="http://www.w3.org/2000/svg">
<path d="M16.1206 0.491699C16.3113 0.53166 16.4872 0.623915 16.6285 0.758138C16.7698 0.892362 16.8709 1.06326 16.9206 1.2517C16.9403 1.39101 16.9403 1.53239 16.9206 1.6717V13.5817C16.9121 13.6397 16.9221 13.6988 16.949 13.7508C16.9759 13.8028 17.0184 13.8451 17.0706 13.8717C17.7355 14.2184 18.2774 14.7615 18.6227 15.4271C18.968 16.0927 19.1 16.8485 19.0006 17.5917C18.9034 18.3643 18.5662 19.0869 18.0366 19.6577C17.5069 20.2284 16.8115 20.6186 16.0484 20.7733C15.2852 20.9279 14.4928 20.8391 13.7827 20.5195C13.0727 20.1999 12.4809 19.6655 12.0906 18.9917C12.0637 18.9306 12.0184 18.8795 11.9611 18.8454C11.9037 18.8113 11.8371 18.796 11.7706 18.8017H1.82061C1.57264 18.8385 1.31992 18.7807 1.11249 18.64C0.90506 18.4992 0.758061 18.2857 0.700608 18.0417C0.685735 17.9121 0.685735 17.7813 0.700608 17.6517C0.700608 13.4417 0.700608 9.2417 0.700608 5.0317C0.689705 4.9332 0.701123 4.83351 0.734015 4.74003C0.766907 4.64654 0.820429 4.56167 0.890608 4.4917L5.07061 0.661699L5.29061 0.491699H16.1206ZM11.6706 18.1317C11.4882 17.4911 11.4798 16.8134 11.6461 16.1685C11.8125 15.5235 12.1476 14.9345 12.6171 14.462C13.0865 13.9894 13.6734 13.6505 14.3173 13.48C14.9611 13.3094 15.6388 13.3135 16.2806 13.4917V1.6317C16.2806 1.2417 16.1806 1.1417 15.7806 1.1417H5.78061V4.0517C5.8002 4.19436 5.8002 4.33904 5.78061 4.4817C5.71985 4.7124 5.57861 4.91378 5.38239 5.04948C5.18618 5.18519 4.94791 5.24627 4.71061 5.2217H1.35061V17.6217C1.35061 17.6917 1.35061 17.7717 1.35061 17.8117C1.40533 17.924 1.48796 18.0204 1.59061 18.0917C1.65061 18.0917 1.77061 18.0917 1.86061 18.0917H11.6606L11.6706 18.1317ZM15.2606 14.0517C14.6547 14.0399 14.0589 14.2082 13.5488 14.5354C13.0387 14.8626 12.6372 15.3339 12.3953 15.8895C12.1534 16.4452 12.0819 17.0601 12.1899 17.6565C12.2979 18.2528 12.5805 18.8036 13.002 19.2391C13.4234 19.6746 13.9647 19.9751 14.5571 20.1026C15.1496 20.2301 15.7666 20.1788 16.3298 19.9552C16.8931 19.7316 17.3773 19.3458 17.721 18.8467C18.0648 18.3476 18.2526 17.7577 18.2606 17.1517C18.274 16.7494 18.2063 16.3485 18.0616 15.9729C17.9169 15.5973 17.698 15.2547 17.4181 14.9654C17.1382 14.6762 16.8029 14.4462 16.4322 14.2892C16.0616 14.1323 15.6631 14.0515 15.2606 14.0517ZM1.89061 4.4917H2.11061H4.59061C4.98061 4.4917 5.08061 4.3917 5.08061 4.0117V1.8117C5.08061 1.7517 5.08061 1.6917 5.08061 1.5917L1.89061 4.4917Z" fill="url(#paint0_linear_3983_9374)"/>
<defs>
<linearGradient id="paint0_linear_3983_9374" x1="0.660608" y1="10.6517" x2="19.0006" y2="10.6517" gradientUnits="userSpaceOnUse">
<stop stop-color="#283376"/>
<stop offset="1" stop-color="#1C67A6"/>
</linearGradient>
</defs>
</svg>
